<svg xmlns="http://www.w3.org/2000/svg" viewBox="0 0 32 32"><path d="M4.651 3.188L1.708 19.412c1.152-2.245 3.448-3.756 6.099-3.756h.011a6.773 6.773 0 013.86 1.199l-.027-.016a4.263 4.263 0 001.172-1.781l.011-.031c.547-1.772-1.052-7.297 4.88-7.381 2.964-.041 6.76 2.423 6.656 2.407-5.323-.817-7.015-1.052-8.323 1.484-1.183 2.303-.875 4.219-2.401 5.657-1.307 1.228-4.427 2.041-5.395 1.843-.444-.093 1.113-.505 2.556-1.515-5.015-3.037-10.864 2.416-8.176 7.629 2.681 5.213 10.52 3.625 10.963-2.219v-.02c.339.192.657.391.948.593a6.844 6.844 0 01-4.115 5.287l-.047.02h12.317c-.979-1.687-4.687-7.025-13.161-8.541 1.043-.516 10.12-.26 18.063 7.177l4.407-24.255zm8.709 2.119c.785.027 1.567.235 2.219.391 1.781.428 3.375.901 3.161.996-.047.02-.781-.084-1.089-.115a5.565 5.565 0 00-2.077.093l.036-.005c-2.797.672-3.807 3.948-4 4.245-.021.031-1.579-.803-1.697-2.439-.084-1.192.343-2.333 2.036-2.963a3.742 3.742 0 011.412-.204zm7.181 5.458c.871-.011 1.959.109 3.339.407a11.92 11.92 0 00-2.484 1.943c-1.427 1.464-2.751 3.421-2.256 4.505.491 1.083 3.537 2.432 5.729 3.896 1.141.755 2.021 3.411 2.027 3.416-4.147-3.219-7.161-4.125-9.401-5.463-2.625-1.584-.948-5.412-.151-7.068.459-.937 1.287-1.615 3.197-1.636zm-19.53 12.47L0 28.812h5.203c-2.276-.957-3.905-3.047-4.187-5.547z"/></svg>