<svg width="24" height="24" viewBox="0 0 24 24" xmlns="http://www.w3.org/2000/svg"><path d="M12 12c0-.107.023-.216.072-.316a.617.617 0 0 1 .221-.253l6.86-4.35c.276-.174.623-.06.775.254a.725.725 0 0 1 .072.316v8.698c0 .36-.255.651-.57.651a.516.516 0 0 1-.277-.082l-6.86-4.349A.671.671 0 0 1 12 12v4.35c0 .36-.255.651-.57.651a.516.516 0 0 1-.277-.082l-6.86-4.349c-.275-.174-.374-.57-.221-.885a.617.617 0 0 1 .221-.253l6.86-4.35c.276-.174.623-.06.775.254a.725.725 0 0 1 .072.316V12z" fill="#000" fill-rule="evenodd"/></svg>