<svg width="11" height="14" viewBox="0 0 11 14" xmlns="http://www.w3.org/2000/svg"><path d="M9 11v1h1v2H0v-2h1V5H0V4h.379A2.25 2.25 0 0 1 2.64.534 1.993 1.993 0 0 1 4 0c.364 0 .706.097 1 .268A1.99 1.99 0 0 1 6 0c.525 0 1.003.202 1.36.534A2.25 2.25 0 0 1 9.621 4H10v1H9v1h1.001c.552 0 .999.444.999 1v3c0 .552-.443 1-.999 1H9zM6.5 6v5h1V6h-1zm-2 0v5h1V6h-1zm-2 0v5h1V6h-1zm4.653-4.46A1.497 1.497 0 0 0 5 1.382a1.497 1.497 0 0 0-2.153.158 1.5 1.5 0 1 0 .806 2.42A1.504 1.504 0 0 0 5 3.618a1.494 1.494 0 0 0 1.347.342 1.5 1.5 0 1 0 .806-2.42z" fill="#000" fill-rule="evenodd"/></svg>