<svg width="14" height="14" viewBox="0 0 14 14" xmlns="http://www.w3.org/2000/svg"><path d="M14 11.376v.874C14 14 12.25 14 12.25 14H1.75S0 14 0 12.25v-.874c.895 0 .875-.876 1.75-.876s.875.876 1.75.876.875-.876 1.75-.876.875.875 1.75.876c.875-.001.875-.876 1.75-.876s.875.876 1.75.876.875-.876 1.75-.876.857.876 1.75.876zM6.125 6.125V3.937c0-.437.438-.437.438-.437h.875s.437 0 .437.438v2.187h1.75V3.937c0-.437.438-.437.438-.437h.874s.438 0 .438.438v2.187C14 6.125 14 8.75 14 8.75v.875c-.875 0-.875-.875-1.75-.875s-.875.875-1.75.875-.875-.875-1.75-.875-.875.875-1.75.875-.875-.875-1.75-.875-.875.875-1.75.875-.875-.875-1.75-.875-.875.875-1.75.875V8.75s0-2.625 2.625-2.625V3.937c0-.437.438-.437.438-.437h.874s.438 0 .438.438v2.187h1.75zm4.375-3.5c-.483 0-.875-.588-.875-1.313.438-.437.875-.44.875-1.312.483 0 .875.588.875 1.313 0 .724-.392 1.312-.875 1.312zm-3.5 0c-.483 0-.875-.588-.875-1.313C6.563.875 7 .873 7 0c.483 0 .875.588.875 1.313 0 .724-.392 1.312-.875 1.312zm-3.5 0c-.483 0-.875-.588-.875-1.313C3.063.875 3.5.873 3.5 0c.483 0 .875.588.875 1.313 0 .724-.392 1.312-.875 1.312z" fill="#000" fill-rule="evenodd"/></svg>