<svg width="10" height="14" viewBox="0 0 10 14" xmlns="http://www.w3.org/2000/svg"><path d="M1 14s-1 0-1-1V1c0-1 .957-1 .957-1h3.698c.883 0 1.637.087 2.262.261.625.175 1.138.423 1.54.746.4.323.694.713.88 1.171.187.459.28.975.28 1.55 0 .329-.046.643-.14.944-.093.3-.237.58-.433.842a3.3 3.3 0 0 1-.746.711c-.302.213-.661.394-1.078.543C9.073 7.2 10 8.239 10 9.885c0 .594-.109 1.143-.326 1.646a3.62 3.62 0 0 1-.952 1.302c-.417.365-.93.65-1.54.857-.609.207-1.305.31-2.089.31H1zm1.51-6.138v4.105h2.546c.466 0 .857-.058 1.17-.174.315-.117.567-.272.756-.465.19-.194.327-.42.41-.678.085-.258.127-.532.127-.823a2.26 2.26 0 0 0-.14-.818 1.532 1.532 0 0 0-.439-.62 2.022 2.022 0 0 0-.765-.392 4.086 4.086 0 0 0-1.128-.135H2.509zm0-1.801h2.005c.852 0 1.499-.162 1.94-.484.442-.323.663-.836.663-1.54 0-.729-.2-1.249-.597-1.558-.398-.31-1.02-.465-1.866-.465H2.509V6.06z" fill="#000" fill-rule="evenodd"/></svg>