<svg width="14" height="14" xmlns="http://www.w3.org/2000/svg"><path d="M5 2.278C3 3.248 3 5.6 3 5.6h8s0-2.352-2-3.322V0H8v1.955a5.41 5.41 0 0 0-1-.088 5.41 5.41 0 0 0-1 .088V0H5v2.278zm6.153 9.777C10.562 13.166 9.339 14 7 14c-2.341 0-3.564-.835-4.154-1.947l-2.504.85L0 12.026l2.513-.854a5.166 5.166 0 0 1-.138-.905H0v-.934h2.378c.018-.261.049-.516.086-.759L0 7.737l.342-.877 2.312.785C2.822 6.975 3 6.533 3 6.533h8s.177.441.345 1.11l2.314-.787.342.877-2.466.838c.038.244.069.5.087.762H14v.934h-2.375c-.02.305-.064.611-.139.908l2.504.851-.342.877-2.495-.848z" fill="#000" fill-rule="evenodd"/></svg>