<svg width="14" height="14" xmlns="http://www.w3.org/2000/svg"><path d="M0 7a2 2 0 0 1 1.298-1.873c.097-.296.217-.581.357-.855a2 2 0 0 1 2.618-2.618c.273-.14.558-.259.854-.356a2 2 0 0 1 3.746 0c.296.097.581.217.855.357a2 2 0 0 1 2.618 2.618c.14.273.259.558.356.854a2 2 0 0 1 0 3.746 5.963 5.963 0 0 1-.357.855 2 2 0 0 1-2.618 2.618c-.273.14-.558.259-.854.356a2 2 0 0 1-3.746 0 5.963 5.963 0 0 1-.855-.357 2 2 0 0 1-2.618-2.618 5.963 5.963 0 0 1-.356-.854A2 2 0 0 1 0 7zm4-1L3 7l3 3 5-5-1-1-4 4-2-2z" fill="#000" fill-rule="evenodd"/></svg>