<svg width="14" height="14" viewBox="0 0 14 14" xmlns="http://www.w3.org/2000/svg"><path d="M14 9.133a.592.592 0 0 1-.005.079l-.005.025-.01.05-.01.03-.016.044-.013.03a.736.736 0 0 1-.02.04l-.018.027a.538.538 0 0 1-.076.095c-.008.008-.015.016-.024.023a.568.568 0 0 1-.034.03l-.027.02-.01.007L7.334 13.9a.6.6 0 0 1-.668 0L.268 9.633l-.01-.007a.565.565 0 0 1-.061-.05l-.024-.023-.03-.033a.495.495 0 0 1-.063-.09.703.703 0 0 1-.02-.04l-.014-.029a.608.608 0 0 1-.016-.044l-.01-.03-.01-.05-.004-.025A.593.593 0 0 1 0 9.132V4.868c0-.026.002-.053.006-.078 0-.01.003-.018.004-.026l.01-.05a.504.504 0 0 1 .026-.074.716.716 0 0 1 .097-.16l.03-.032.024-.024a.584.584 0 0 1 .061-.049l.01-.007L6.666.1a.601.601 0 0 1 .668 0l6.398 4.266.01.007.027.02.034.03c.009.007.016.015.024.023a.514.514 0 0 1 .076.095l.018.028a.597.597 0 0 1 .02.04c.004.01.01.02.013.03l.016.043.01.03.01.05.005.026a.584.584 0 0 1 .005.078v4.266zM1.203 5.993v2.014L2.708 7 1.203 5.993zm5.195-1.461V1.726L1.685 4.868 3.79 6.276l2.608-1.744zm5.917.336L7.602 1.726v2.806l2.608 1.744 2.105-1.408zM1.685 9.132l4.713 3.142V9.468L3.79 7.724 1.685 9.132zm5.917.336v2.806l4.713-3.142-2.105-1.408-2.608 1.744zM7 5.577L4.872 7 7 8.423 9.128 7 7 5.577zm5.797 2.43V5.993L11.292 7l1.505 1.007z" fill="#050101" fill-rule="evenodd"/></svg>