<svg width="14" height="14" xmlns="http://www.w3.org/2000/svg"><path d="M9.757 11.172A4.972 4.972 0 0 1 8 11.9v1.6c0 .5-.495.5-.495.5H6.5S6 14 6 13.5v-1.6a4.972 4.972 0 0 1-1.757-.728L3.11 12.303c-.354.354-.704.004-.704.004l-.71-.71s-.354-.354 0-.708l1.131-1.132A4.972 4.972 0 0 1 2.1 8H.5C0 8 0 7.5 0 7.5v-1S0 6 .5 6h1.6c.13-.638.38-1.233.728-1.757L1.697 3.11c-.354-.354 0-.707 0-.707l.707-.707s.353-.354.707 0l1.132 1.131A4.972 4.972 0 0 1 6 2.1V.5c0-.5.5-.5.5-.5h1S8 0 8 .5v1.6c.638.13 1.233.38 1.757.728l1.132-1.131c.354-.354.707 0 .707 0l.707.707s.354.353 0 .707l-1.131 1.132c.347.524.598 1.119.728 1.757h1.6c.5 0 .5.488.5.488V7.5s0 .5-.5.5h-1.6a4.972 4.972 0 0 1-.728 1.757l1.131 1.132c.354.354.01.698.01.698l-.717.716s-.353.354-.707 0l-1.132-1.131zM7 10a3 3 0 1 0 0-6 3 3 0 0 0 0 6z" fill="#000" fill-rule="evenodd"/></svg>