<svg width="14" height="12" viewBox="0 0 14 12" xmlns="http://www.w3.org/2000/svg"><path d="M12.863 2.922c.113-.28.48-1.391-.114-2.896 0 0-.919-.29-3.01 1.137C8.864.918 7.927.883 7 .883c-.928 0-1.864.035-2.739.28C2.17-.272 1.251.026 1.251.026c-.595 1.505-.227 2.616-.113 2.896C.427 3.683 0 4.663 0 5.853c0 4.506 2.914 5.521 6.982 5.521 4.07 0 7.018-1.015 7.018-5.52 0-1.19-.429-2.17-1.137-2.932zM7 10.517c-2.888 0-5.232-.131-5.232-2.931 0-.665.332-1.295.892-1.812.936-.857 2.537-.402 4.34-.402 1.811 0 3.395-.455 4.34.402.569.517.893 1.138.893 1.812 0 2.79-2.346 2.93-5.233 2.93zM4.804 6.133c-.578 0-1.05.7-1.05 1.558 0 .857.472 1.566 1.05 1.566.577 0 1.05-.7 1.05-1.566 0-.867-.473-1.558-1.05-1.558zm4.392 0c-.577 0-1.05.691-1.05 1.558 0 .866.473 1.566 1.05 1.566.578 0 1.05-.7 1.05-1.566 0-.867-.463-1.558-1.05-1.558z" fill="#000" fill-rule="evenodd"/></svg>