<svg width="14" height="14" xmlns="http://www.w3.org/2000/svg"><path d="M0 7a7 7 0 1 1 14 0A7 7 0 0 1 0 7zm1.252-1.552c-.243.507.152.785.498.957.346.172 1.404-1.174 1.404-1.174l1.221.894s.178 1.483.515 1.75c.337.267 1.017.267 1.017.267l1.28.589s-.283.57-.187.894c.096.324.577.856.577.856S6.643 12.495 7 13.125h.875c.369 0 2.713-2.922 2.625-3.5-.088-.578-2.923-1.038-2.923-1.038s-.922-.365-1.277-.731c-.175-.15 0-.473 0-.473s.413.17.708 0S8.244 6.26 8.244 6.26s.198.298.506-.135-.35-1.392-.875-1.383c-.59.01-.867.887-.867.887l-.944-.567s.965-.276.944-.687c-.02-.411-.599-1.047-1.023-.875-.425.172-.078.698-.078.698-.657.177-1.368 0-1.368 0s-.658-.37-1.26-.302c-.603.067-.437.443-.654.39-.258-.063-.153-.786-.441-.786-.289 0-.69 1.44-.932 1.948zm6.57-2.098c.845 0 1.38.3 1.69 0 .31-.3 1.195-1.007.572-1.502-.624-.496-1.745-.85-2.203-.85-.458 0-2.593-.124-2.593.701-.341.577 1.69 1.651 2.534 1.651z" fill="#000" fill-rule="evenodd"/></svg>