<svg width="14" height="14" viewBox="0 0 14 14" xmlns="http://www.w3.org/2000/svg"><path d="M7 0C5.099 0 4.86.008 4.114.042c-.745.034-1.254.152-1.7.326-.46.178-.85.418-1.24.807-.388.389-.628.78-.807 1.24-.173.445-.29.954-.325 1.699C.008 4.86 0 5.099 0 7c0 1.901.008 2.14.042 2.886.034.745.152 1.254.325 1.7.18.46.419.85.808 1.24.389.388.78.628 1.24.807.445.173.954.29 1.699.325.747.034.985.042 2.886.042 1.901 0 2.14-.008 2.886-.042.745-.034 1.254-.152 1.7-.325.46-.18.85-.419 1.24-.808.388-.389.628-.78.807-1.24.173-.445.29-.954.325-1.699C13.992 9.14 14 8.901 14 7c0-1.901-.008-2.14-.042-2.886-.034-.745-.152-1.254-.325-1.7a3.431 3.431 0 0 0-.808-1.24 3.43 3.43 0 0 0-1.24-.806C11.14.194 10.631.076 9.886.042 9.14.008 8.901 0 7 0m0 1.261c1.87 0 2.09.007 2.829.041.682.031 1.053.145 1.3.241.326.127.56.279.804.524.245.245.397.478.524.805.096.246.21.617.24 1.3.035.738.042.959.042 2.828 0 1.87-.007 2.09-.041 2.829-.031.682-.145 1.053-.241 1.3a2.17 2.17 0 0 1-.524.804 2.169 2.169 0 0 1-.805.524c-.246.096-.617.21-1.3.24-.737.035-.959.042-2.828.042-1.87 0-2.09-.007-2.829-.041-.682-.031-1.053-.145-1.3-.241a2.168 2.168 0 0 1-.804-.524 2.169 2.169 0 0 1-.524-.805c-.096-.246-.21-.617-.24-1.3C1.267 9.09 1.26 8.87 1.26 7c0-1.87.007-2.09.041-2.829.031-.682.145-1.053.241-1.3.127-.326.279-.56.524-.804.245-.245.478-.397.805-.524.246-.096.617-.21 1.3-.241.738-.034.959-.04 2.828-.04m0 8.071a2.333 2.333 0 1 1 0-4.666 2.333 2.333 0 0 1 0 4.666m0-5.928a3.595 3.595 0 1 0 0 7.19 3.595 3.595 0 0 0 0-7.19m4.577-.142a.84.84 0 1 1-1.68 0 .84.84 0 0 1 1.68 0" fill="#000" fill-rule="evenodd"/></svg>