<svg width="24" height="24" viewBox="0 0 24 24" xmlns="http://www.w3.org/2000/svg"><path d="M10 4h10a1 1 0 0 1 0 2H10a1 1 0 1 1 0-2zm0 7h10a1 1 0 0 1 0 2H10a1 1 0 0 1 0-2zm0 7h10a1 1 0 0 1 0 2H10a1 1 0 0 1 0-2zM4.5 4a.5.5 0 0 1 0-1h1c.28 0 .5.22.5.5v3a.5.5 0 0 1-1 0V4.015L4.5 4zm0 6h2c.28 0 .5.22.5.5v.5l-1.7 2h1.2c.28 0 .5.22.5.5s-.224.5-.5.5h-2c-.28 0-.5-.22-.5-.5V13l1.7-2H4.5c-.28 0-.5-.22-.5-.5s.199-.5.5-.5zm2 11h-2a.5.5 0 1 1 0-1H6v-.5H4.5a.5.5 0 1 1 0-1H6V18H4.5a.5.5 0 1 1 0-1h2a.5.5 0 0 1 .5.5v3a.5.5 0 0 1-.5.5z" fill="#000" fill-rule="evenodd"/></svg>