<svg width="14" height="14" xmlns="http://www.w3.org/2000/svg"><path d="M7 0a7 7 0 0 0-2.551 13.518c-.061-.554-.117-1.403.024-2.008.127-.546.82-3.48.82-3.48s-.208-.419-.208-1.038c0-.974.564-1.7 1.266-1.7.597 0 .886.448.886.985 0 .6-.382 1.499-.58 2.331-.165.697.35 1.265 1.037 1.265 1.244 0 2.2-1.312 2.2-3.205 0-1.676-1.204-2.848-2.924-2.848-1.991 0-3.16 1.494-3.16 3.038 0 .601.231 1.246.52 1.597a.21.21 0 0 1 .05.2l-.196.795c-.03.127-.1.155-.233.093-.875-.407-1.421-1.685-1.421-2.712 0-2.208 1.604-4.235 4.625-4.235 2.428 0 4.315 1.73 4.315 4.042 0 2.413-1.52 4.354-3.632 4.354-.71 0-1.376-.368-1.605-.804l-.436 1.664c-.158.608-.584 1.37-.87 1.836A7 7 0 1 0 7 0" fill="#000" fill-rule="evenodd"/></svg>