<svg width="14" height="13" xmlns="http://www.w3.org/2000/svg"><path d="M13.931.836A1.274 1.274 0 0 0 12.738 0H1.269A1.276 1.276 0 0 0 0 1.27v4.225l.048.84c.203 1.91 1.195 3.58 2.73 4.744l.083.063.018.012a6.928 6.928 0 0 0 2.737 1.21 7.072 7.072 0 0 0 2.68.02l.154-.03a.183.183 0 0 0 .045-.017 6.935 6.935 0 0 0 2.627-1.183l.018-.013c.028-.02.056-.04.083-.062 1.534-1.165 2.526-2.835 2.729-4.745l.048-.84V1.27c0-.146-.018-.291-.069-.434zm-2.964 4.401L7.674 8.396a.96.96 0 0 1-1.329 0L3.051 5.237a.96.96 0 1 1 1.33-1.385l2.628 2.52 2.63-2.52a.96.96 0 0 1 1.328 1.385z" fill="#000" fill-rule="nonzero"/></svg>