<svg width="14" height="14" viewBox="0 0 14 14" xmlns="http://www.w3.org/2000/svg"><path d="M3.929 7.714a.786.786 0 1 0 0-1.571.786.786 0 0 0 0 1.571zm3.928 1.572a2.357 2.357 0 0 1-4.714 0h4.714zm-.786-1.572a.786.786 0 1 0 0-1.571.786.786 0 0 0 0 1.571zm-1.571 5.5a4.714 4.714 0 1 0 0-9.428 4.714 4.714 0 0 0 0 9.428zm0 .786a5.5 5.5 0 1 1 0-11 5.5 5.5 0 0 1 0 11zm6.833-12.333h.834a.833.833 0 1 1 0 1.666h-.834v.834a.833.833 0 1 1-1.666 0v-.834h-.834a.833.833 0 1 1 0-1.666h.834V.833a.833.833 0 1 1 1.666 0v.834z" fill="#000" fill-rule="evenodd"/></svg>