<svg width="16" height="10" viewBox="0 0 16 10" xmlns="http://www.w3.org/2000/svg"><path d="M9.411 8.82L5.903 0H3.977L0 10h1.463a.625.625 0 0 0 .403-.131.655.655 0 0 0 .22-.29l.757-2.041h4.194l.756 2.04a.642.642 0 0 0 .63.422H9.88v-.002h.108a.468.468 0 0 0 .445-.301l.54-1.458h2.996l.54 1.458a.459.459 0 0 0 .45.301H16l-2.84-7.143h-1.376L9.41 8.821zm1.908-1.52h2.305s-1.108-3.047-1.155-3.215c-.047.168-1.15 3.216-1.15 3.216zM3.326 6.225h3.228S5.002 1.957 4.937 1.722c-.066.235-1.611 4.502-1.611 4.502z" fill="#000" fill-rule="evenodd"/></svg>