<svg width="14" height="12" viewBox="0 0 14 12" xmlns="http://www.w3.org/2000/svg"><path d="M4.396 11.38c5.281 0 8.171-4.38 8.171-8.171 0-.123 0-.246-.005-.37a5.85 5.85 0 0 0 1.433-1.49 5.82 5.82 0 0 1-1.652.454A2.89 2.89 0 0 0 13.61.213c-.554.33-1.17.565-1.826.694A2.866 2.866 0 0 0 9.69 0a2.875 2.875 0 0 0-2.8 3.528A8.155 8.155 0 0 1 .968.526a2.88 2.88 0 0 0 .89 3.836A2.905 2.905 0 0 1 .56 4.005v.04c0 1.388.991 2.553 2.302 2.816a2.8 2.8 0 0 1-.756.101c-.185 0-.364-.017-.538-.05a2.872 2.872 0 0 0 2.683 1.994A5.76 5.76 0 0 1 0 10.098a8.169 8.169 0 0 0 4.396 1.282" fill="#000" fill-rule="nonzero"/></svg>