<svg width="14" height="14" xmlns="http://www.w3.org/2000/svg"><path d="M12.523 3.98c.49.897.77 1.926.77 3.02a6.29 6.29 0 0 1-3.129 5.44l1.922-5.558c.36-.898.479-1.616.479-2.254 0-.232-.015-.447-.042-.648zm-4.656.069c.38-.02.72-.06.72-.06.34-.04.3-.538-.04-.518 0 0-1.019.08-1.677.08-.618 0-1.658-.08-1.658-.08-.339-.02-.379.498-.04.518 0 0 .322.04.66.06l.981 2.687-1.377 4.13L3.144 4.05c.38-.02.72-.06.72-.06.339-.04.299-.538-.04-.518 0 0-1.02.08-1.677.08-.118 0-.258-.003-.405-.008A6.286 6.286 0 0 1 7 .706a6.27 6.27 0 0 1 4.25 1.653c-.027-.002-.054-.005-.082-.005-.618 0-1.057.538-1.057 1.117 0 .518.3.957.619 1.476.239.419.519.957.519 1.735 0 .539-.208 1.164-.48 2.035l-.627 2.097L7.867 4.05zM7 13.294c-.618 0-1.214-.09-1.778-.257L7.11 7.55l1.935 5.3c.013.031.028.06.045.087a6.28 6.28 0 0 1-2.09.357zM.706 7c0-.913.196-1.779.545-2.562l3.003 8.226A6.294 6.294 0 0 1 .706 7zM7 0C3.14 0 0 3.14 0 7s3.14 7 7 7 7-3.14 7-7-3.14-7-7-7z" fill="#000" fill-rule="evenodd"/></svg>