<svg width="14" height="14" viewBox="0 0 14 14" xmlns="http://www.w3.org/2000/svg"><path d="M7 0C3.14 0 0 3.14 0 7s3.14 7 7 7 7-3.14 7-7-3.14-7-7-7m0 13.679A6.687 6.687 0 0 1 .32 6.999 6.686 6.686 0 0 1 7 .322 6.687 6.687 0 0 1 13.679 7a6.687 6.687 0 0 1-6.68 6.679M.996 6.999a6.005 6.005 0 0 0 3.385 5.405L1.515 4.556A5.981 5.981 0 0 0 .995 7m10.059-.303c0-.742-.267-1.256-.496-1.656-.304-.495-.59-.914-.59-1.409 0-.552.42-1.065 1.009-1.065.027 0 .052.003.078.004A5.983 5.983 0 0 0 7 .995 5.998 5.998 0 0 0 1.983 3.7c.14.005.273.008.386.008.628 0 1.6-.077 1.6-.077.324-.019.362.457.039.495 0 0-.325.038-.687.057l2.186 6.505 1.315-3.941-.936-2.564c-.323-.019-.63-.057-.63-.057-.323-.019-.285-.514.038-.495 0 0 .992.077 1.582.077.628 0 1.6-.077 1.6-.077.324-.019.362.457.039.495 0 0-.326.038-.688.057l2.17 6.455.6-2c.259-.832.457-1.428.457-1.942m-3.949.828L5.303 12.76a5.998 5.998 0 0 0 3.691-.095.554.554 0 0 1-.043-.083L7.105 7.525zm5.164-3.406c.026.191.04.396.04.617 0 .61-.114 1.294-.456 2.151l-1.834 5.303a6.001 6.001 0 0 0 2.25-8.071" fill="#000" fill-rule="evenodd"/></svg>