<svg xmlns="http://www.w3.org/2000/svg" width="24" height="24" viewBox="0 0 24 24" viewBox="0 0 24 24"><path d="M21,9V6.021c0.003-0.146-0.007-1.465-1.3-2.735C18.427,2.036,17.143,2,17,2h-2H8H6.996C6.757,2,5.503,2.063,4.288,3.302	C3.036,4.578,3,5.859,3,6v3H2v3h1v7c0,0.553,0.447,1,1,1h1v1c0,0.553,0.447,1,1,1h2c0.553,0,1-0.447,1-1v-1h6v1c0,0.553,0.447,1,1,1	h2c0.553,0,1-0.447,1-1v-1h1c0.553,0,1-0.447,1-1v-7h1V9H21z M9,4h6v2H9V4z M7,16.991H5V15h2V16.991z M11,13H5V8h6V13z M19,16.991	h-2V15h2V16.991z M19,13h-6V8h6V13z"/></svg>