<svg xmlns="http://www.w3.org/2000/svg" width="24" height="24" viewBox="0 0 24 24"><path d="M9.5 3h-5C3.673 3 3 3.673 3 4.5v7c0 .827.673 1.5 1.5 1.5h5c.827 0 1.5-.673 1.5-1.5v-7c0-.827-.673-1.5-1.5-1.5zm0 12h-5c-.827 0-1.5.673-1.5 1.5v3c0 .827.673 1.5 1.5 1.5h5c.827 0 1.5-.673 1.5-1.5v-3c0-.827-.673-1.5-1.5-1.5zm10-3h-5c-.827 0-1.5.673-1.5 1.5v6c0 .827.673 1.5 1.5 1.5h5c.827 0 1.5-.673 1.5-1.5v-6c0-.827-.673-1.5-1.5-1.5zm0-9h-5c-.827 0-1.5.673-1.5 1.5v4c0 .827.673 1.5 1.5 1.5h5c.827 0 1.5-.673 1.5-1.5v-4c0-.827-.673-1.5-1.5-1.5z"/></svg>