<svg xmlns="http://www.w3.org/2000/svg" width="24" height="24" viewBox="0 0 24 24" viewBox="0 0 24 24"><path d="M19.08,4.929c-1.895-1.895-4.405-2.938-7.07-2.938c-2.666,0-5.178,1.044-7.072,2.938c-3.899,3.898-3.899,10.243,0,14.142	c1.895,1.895,4.406,2.938,7.072,2.938s5.177-1.043,7.07-2.937C22.979,15.174,22.979,8.829,19.08,4.929z M19.937,12.991H18v-2h1.934	C20.018,11.655,20.019,12.327,19.937,12.991z M12.01,20.009c-2.132,0-4.142-0.835-5.658-2.352c-0.508-0.508-0.924-1.071-1.267-1.666	h13.849c-0.343,0.595-0.76,1.159-1.268,1.667C16.15,19.174,14.142,20.009,12.01,20.009z M4.084,10.991H6v2H4.081	C3.999,12.327,4,11.655,4.084,10.991z M7.106,5.685l1.357,1.357L7.05,8.456L5.693,7.1c0.203-0.261,0.418-0.516,0.658-0.756	C6.591,6.104,6.845,5.89,7.106,5.685z M17.666,6.343c0.386,0.387,0.724,0.803,1.015,1.242l-4.717,4.054	C13.985,11.756,14,11.875,14,11.998c0,1.101-0.893,1.993-1.992,1.993c-1.099,0-1.991-0.893-1.991-1.993	c0-1.098,0.893-1.99,1.991-1.99c0.229,0,0.444,0.047,0.648,0.117l4.714-4.051C17.469,6.163,17.571,6.248,17.666,6.343z M13,5.991h-2	V4.063c0.333-0.042,0.669-0.071,1.01-0.071c0.334,0,0.663,0.027,0.99,0.068V5.991z"/></svg>