<svg xmlns="http://www.w3.org/2000/svg" width="24" height="24" viewBox="0 0 24 24"><path d="M12.01 1.991a9.941 9.941 0 0 0-7.072 2.938c-3.899 3.898-3.899 10.243 0 14.142 1.895 1.895 4.406 2.938 7.072 2.938s5.177-1.043 7.07-2.937c3.899-3.898 3.899-10.243 0-14.144a9.938 9.938 0 0 0-7.07-2.937zm7.927 11H18v-2h1.934c.084.664.085 1.336.003 2zm-7.927 7.018A7.95 7.95 0 0 1 5.767 17h12.485a7.95 7.95 0 0 1-6.242 3.009zm-7.926-9.018H6v2H4.081a8.063 8.063 0 0 1 .003-2zm3.022-5.306l1.357 1.357L7.05 8.456 5.693 7.1c.203-.261.418-.516.658-.756.24-.24.494-.454.755-.659zM11 4.063a8.056 8.056 0 0 1 1.01-.071c.334 0 .663.027.99.068v1.932h-2V4.063zm2.964 7.576c.021.117.036.236.036.359a1.993 1.993 0 0 1-1.992 1.993 1.992 1.992 0 0 1 0-3.983c.229 0 .444.047.648.117l4.714-4.051c.099.089.201.174.296.269.386.387.724.803 1.015 1.242l-4.717 4.054z"/></svg>