<svg xmlns="http://www.w3.org/2000/svg" width="24" height="24" viewBox="0 0 24 24" viewBox="0 0 24 24"><path d="M12.554,3.678c-1.508,1.508-1.951,3.679-1.338,5.581l-7.501,7.5c-0.153,0.153-0.252,0.352-0.282,0.566L3.079,19.8	c-0.045,0.312,0.06,0.626,0.282,0.849s0.537,0.327,0.849,0.282l2.475-0.354c0.375-0.053,0.687-0.315,0.808-0.673L8,18	c0,0,0.472,0.405,0.665,0.466c0.412,0.13,0.813-0.274,0.948-0.684L10,16.01c0,0,0.577,0.292,0.786,0.335	c0.266,0.055,0.524-0.109,0.707-0.293c0.107-0.107,0.191-0.239,0.241-0.391L12,14.01c0,0,0.675,0.187,0.906,0.214	c0.263,0.03,0.519-0.104,0.707-0.293l1.138-1.137c1.901,0.612,4.073,0.17,5.581-1.338c2.144-2.145,2.144-5.634,0-7.778	C18.188,1.534,14.698,1.534,12.554,3.678z M14.382,5.506c1.139-1.136,2.984-1.136,4.122,0c1.136,1.138,1.136,2.983,0,4.122"/></svg>