<svg xmlns="http://www.w3.org/2000/svg" width="24" height="24" viewBox="0 0 24 24" viewBox="0 0 24 24"><path d="M13.586,5l-1.999,1.999H7.001c-0.421,0-0.796,0.263-0.939,0.658l-4,11c-0.133,0.365-0.042,0.774,0.232,1.049l0.293,0.293 l6.422-6.422c-0.001-0.026-0.008-0.052-0.008-0.078c0-0.828,0.672-1.5,1.5-1.5s1.5,0.672,1.5,1.5s-0.672,1.5-1.5,1.5 c-0.026,0-0.052-0.007-0.078-0.008l-6.422,6.422l0.293,0.293c0.19,0.191,0.446,0.293,0.707,0.293c0.114,0,0.23-0.02,0.342-0.061 l11-4c0.396-0.144,0.658-0.519,0.658-0.939v-4.586L19,10.414L13.586,5z"/><path transform="rotate(45.001 18.5 5.5)" d="M14.964 4H22.035V7H14.964z"/></svg>