<svg xmlns="http://www.w3.org/2000/svg" width="24" height="24" viewBox="0 0 24 24"><path d="M20 10.999h2C22 5.869 18.127 2 12.99 2v2C17.052 4 20 6.943 20 10.999z"/><path d="M13 8c2.103 0 3 .897 3 3h2c0-3.225-1.775-5-5-5v2zm1.299 5.994l-1.66 1.66c-.577-.109-1.734-.471-2.926-1.66-1.193-1.193-1.553-2.354-1.661-2.926l1.661-1.66.701-.701L5 3.293l-.701.701-1 1a.991.991 0 0 0-.291.649c-.015.25-.302 6.172 4.291 10.766 4.006 4.006 9.024 4.299 10.406 4.299.202 0 .326-.006.358-.008a.994.994 0 0 0 .649-.291l1-1 .697-.697-5.414-5.414-.696.696z"/></svg>