<svg xmlns="http://www.w3.org/2000/svg" width="24" height="24" viewBox="0 0 24 24" viewBox="0 0 24 24"><path d="M20.531,9.965c-0.118-0.361-0.431-0.625-0.808-0.68L15.008,8.6l-2.111-4.275c-0.336-0.684-1.457-0.684-1.793,0L8.992,8.6	L4.276,9.285C3.899,9.34,3.587,9.604,3.469,9.965c-0.117,0.362-0.02,0.76,0.253,1.025l3.413,3.328l-0.804,4.699	c-0.064,0.375,0.09,0.755,0.397,0.979c0.31,0.224,0.718,0.254,1.054,0.075L12,17.854l4.218,2.218	c0.146,0.077,0.307,0.115,0.466,0.115c0.207,0,0.413-0.064,0.588-0.19c0.308-0.224,0.462-0.604,0.397-0.979l-0.804-4.699	l3.413-3.328C20.551,10.725,20.648,10.327,20.531,9.965z M9.283,13.619"/></svg>