<svg xmlns="http://www.w3.org/2000/svg" width="24" height="24" viewBox="0 0 24 24"><path fill="none" d="M17.279 6H6.721l-1.334 4h13.226zM18 13h2v2h-2zM4 13h2v2H4z"/><path d="M20.772 10.155l-1.596-4.787A1.996 1.996 0 0 0 17.279 4H14V2h-4v2H6.721c-.863 0-1.625.55-1.897 1.367l-1.597 4.788A2 2 0 0 0 2 12v4c0 .738.404 1.376 1 1.723V20a1 1 0 0 0 1 1h1a1 1 0 0 0 1-1v-2h12v2a1 1 0 0 0 1 1h1a1 1 0 0 0 1-1v-2.277A1.99 1.99 0 0 0 22 16v-4a2 2 0 0 0-1.228-1.845zM6 15H4v-2h2v2zm11.819-5H5.387l1.334-4H17.28l1.334 4h-.795zM18 15v-2h2v2h-2z"/></svg>