<svg xmlns="http://www.w3.org/2000/svg" width="24" height="24" viewBox="0 0 24 24" viewBox="0 0 24 24"><path fill="none" d="M18 13H20V15H18zM4 13H6V15H4zM16.382 6L7.618 6 5.618 10 18.382 10z"/><path d="M21,10h-0.382l-2.724-5.447C17.725,4.214,17.379,4,17,4h-3V2h-4v2H7C6.621,4,6.275,4.214,6.105,4.553L3.382,10H3 c-0.553,0-1,0.447-1,1v6c0,0.553,0.447,1,1,1v2c0,0.553,0.447,1,1,1h1c0.553,0,1-0.447,1-1v-2h12v2c0,0.553,0.447,1,1,1h1 c0.553,0,1-0.447,1-1v-2c0.553,0,1-0.447,1-1v-6C22,10.447,21.553,10,21,10z M20,13v2h-2v-2H20z M7.618,6h8.764l2,4H5.618L7.618,6 z M6,15H4v-2h2V15z"/></svg>