<?xml version="1.0" encoding="utf-8"?>
<svg width="1792" height="1792" xmlns="http://www.w3.org/2000/svg"><path d="M400 1088c-132.544 0-240 107.456-240 240s107.456 240 240 240 240-107.456 240-240-107.456-240-240-240zm107.584 282.432l-.064-.064c-2.528 3.424-6.08 5.632-10.08 5.632H301.92c-3.936 0-7.456-2.08-9.984-5.408-.032-.064-.096-.096-.16-.16-5.44-6.944-5.44-18.208 0-25.152l97.76-123.424c.128-.192.192-.448.352-.64 5.44-6.944 14.304-6.944 19.744 0l97.984 124.064c5.44 6.944 5.44 18.208-.032 25.152z" fill="undefined"/></svg>