<svg width="64" height="64" viewBox="0 0 512 512" xmlns="http://www.w3.org/2000/svg"><path d="M273.152 34.304c-131.904 0-238.848 106.944-238.848 238.848S141.248 512 273.152 512 512 405.056 512 273.152 405.056 34.304 273.152 34.304zm-110.08 356.928c-6.272-6.272-6.272-16.48 0-22.752l84.8-95.872-84.8-95.872c-6.272-6.304-6.272-16.512 0-22.784s16.48-6.272 22.752 0l94.688 107.04c3.2 3.2 4.736 7.392 4.672 11.584.096 4.224-1.44 8.416-4.64 11.616l-94.688 107.04a16.088 16.088 0 0 1-22.784 0zm232.224-107.04l-94.688 107.04c-6.272 6.272-16.48 6.272-22.752 0s-6.272-16.48 0-22.752l84.8-95.872-84.8-95.872c-6.272-6.272-6.272-16.48 0-22.752s16.48-6.272 22.752 0l94.688 107.04c3.2 3.2 4.736 7.392 4.672 11.584.032 4.192-1.472 8.384-4.672 11.584z"/></svg>