<?xml version="1.0" encoding="utf-8"?>
<svg width="1792" height="1792" xmlns="http://www.w3.org/2000/svg"><path d="M400 1568c132.544 0 240-107.456 240-240s-107.456-240-240-240-240 107.456-240 240 107.456 240 240 240zm-115.136-211.424L388.64 1252.8c3.136-3.136 7.232-4.672 11.36-4.672 4.128 0 8.224 1.536 11.36 4.672l103.776 103.776c6.24 6.24 6.24 16.384 0 22.624-6.24 6.24-16.384 6.24-22.624 0L400 1286.688l-92.512 92.512c-6.24 6.24-16.384 6.24-22.624 0-6.24-6.24-6.24-16.384 0-22.624z" fill="undefined"/></svg>