<svg width="64" height="64" viewBox="0 0 512 512" xmlns="http://www.w3.org/2000/svg"><path d="M347.2 260.64L243.424 156.864c-6.24-6.24-16.384-6.24-22.624 0-6.24 6.24-6.24 16.384 0 22.624L313.312 272 220.8 364.512c-6.24 6.24-6.24 16.384 0 22.624 6.24 6.24 16.384 6.24 22.624 0L347.2 283.36a15.876 15.876 0 0 0 4.672-11.36c0-4.128-1.536-8.224-4.672-11.36zM273.152 34.304c-131.904 0-238.848 106.944-238.848 238.848S141.248 512 273.152 512 512 405.056 512 273.152 405.056 34.304 273.152 34.304zm0 445.696c-114.048 0-206.848-92.8-206.848-206.848s92.8-206.848 206.848-206.848S480 159.104 480 273.152 387.2 480 273.152 480z"/></svg>