<svg width="1792" height="1792" xmlns="http://www.w3.org/2000/svg"><path d="M401.056 1090.144c-131.968 0-238.944 106.976-238.944 238.944S269.12 1568 401.056 1568 640 1461.024 640 1329.056s-106.976-238.912-238.944-238.912zm116.992 266.464l-107.04 94.688c-3.2 3.2-7.392 4.736-11.584 4.672-4.224.032-8.416-1.472-11.616-4.672l-107.04-94.688c-6.272-6.272-6.272-16.48 0-22.752 6.272-6.272 16.48-6.272 22.752 0l95.872 84.8 95.872-84.8c6.272-6.272 16.48-6.272 22.752 0s6.336 16.448.032 22.752zm0-114.752l-107.04 94.688c-3.2 3.2-7.392 4.736-11.584 4.672-4.224.032-8.416-1.472-11.616-4.672l-107.04-94.688c-6.272-6.272-6.272-16.48 0-22.752 6.272-6.304 16.48-6.304 22.752-.032l95.872 84.8 95.872-84.8c6.272-6.272 16.48-6.272 22.752 0s6.336 16.48.032 22.784z" fill="undefined"/></svg>