<svg width="64" height="64" viewBox="0 0 512 512" xmlns="http://www.w3.org/2000/svg"><path d="M273.152 34.272c-131.904 0-238.848 106.944-238.848 238.848C34.272 405.056 141.216 512 273.152 512 405.056 512 512 405.056 512 273.152c0-131.936-106.944-238.88-238.848-238.88zm-6.976 355.776c-6.272 6.272-16.48 6.272-22.752 0l-94.72-107.04c-3.2-3.2-4.736-7.424-4.672-11.616-.032-4.192 1.472-8.384 4.672-11.584l94.688-107.04c6.272-6.272 16.48-6.272 22.752 0s6.272 16.48 0 22.752l-84.8 95.872 84.8 95.872c6.304 6.304 6.304 16.512.032 22.784zm114.752-22.752c6.272 6.272 6.272 16.48 0 22.752s-16.48 6.272-22.752 0l-94.72-107.04c-3.2-3.2-4.736-7.424-4.672-11.616-.032-4.192 1.472-8.384 4.672-11.584l94.688-107.04c6.272-6.272 16.48-6.272 22.752 0s6.272 16.48 0 22.752l-84.8 95.872 84.832 95.904z"/></svg>