<svg width="1792" height="1792" xmlns="http://www.w3.org/2000/svg"><path d="M208 1312c-8.832 0-16 7.168-16 16v160.064c0 2.08.416 4.128 1.216 6.048.768 1.888 1.92 3.584 3.328 5.024.064.064.064.128.128.192.032.032.096.032.128.096 1.44 1.408 3.168 2.592 5.056 3.36 1.984.8 4.064 1.216 6.144 1.216h160c8.832 0 16-7.168 16-16s-7.168-16-16-16H246.624L544 1174.624V1296c0 8.832 7.168 16 16 16s16-7.168 16-16v-160c0-2.08-.416-4.16-1.248-6.112-1.632-3.904-4.736-7.04-8.64-8.64A15.585 15.585 0 0 0 560 1120H400c-8.832 0-16 7.168-16 16s7.168 16 16 16h121.376L224 1449.376V1328c0-8.832-7.168-16-16-16z" fill="undefined"/></svg>