<svg width="64" height="64" viewBox="0 0 512 512" xmlns="http://www.w3.org/2000/svg"><path d="M283.36 196.8c-3.136-3.136-7.232-4.672-11.36-4.672-4.128 0-8.224 1.536-11.36 4.672L156.864 300.576c-6.24 6.24-6.24 16.384 0 22.624 6.24 6.24 16.384 6.24 22.624 0L272 230.688l92.512 92.512c6.24 6.24 16.384 6.24 22.624 0 6.24-6.24 6.24-16.384 0-22.624L283.36 196.8zM273.056 34.144c-131.968 0-238.944 106.976-238.944 238.944S141.12 512 273.056 512 512 405.024 512 273.056 405.024 34.144 273.056 34.144zm0 445.856c-114.112 0-206.944-92.832-206.944-206.944S158.944 66.112 273.056 66.112 480 158.976 480 273.056 387.168 480 273.056 480z"/></svg>