<svg width="64" height="64" viewBox="0 0 512 512" xmlns="http://www.w3.org/2000/svg"><path d="M364.512 220.8L272 313.312 179.488 220.8c-6.24-6.24-16.384-6.24-22.624 0-6.24 6.24-6.24 16.384 0 22.624L260.64 347.2a15.876 15.876 0 0 0 11.36 4.672c4.128 0 8.224-1.536 11.36-4.672l103.776-103.776c6.24-6.24 6.24-16.384 0-22.624-6.24-6.24-16.384-6.24-22.624 0zm-91.36-186.528c-131.904 0-238.848 106.944-238.848 238.848C34.272 405.056 141.216 512 273.152 512 405.056 512 512 405.056 512 273.152c0-131.936-106.944-238.88-238.848-238.88zm0 445.728c-114.048 0-206.848-92.8-206.848-206.848 0-114.048 92.8-206.848 206.848-206.848C387.2 66.272 480 159.072 480 273.152 480 387.2 387.2 480 273.152 480z"/></svg>