<svg width="1792" height="1792" xmlns="http://www.w3.org/2000/svg"><path d="M475.2 1316.64l-103.776-103.776c-6.24-6.24-16.384-6.24-22.624 0-6.24 6.24-6.24 16.384 0 22.624L441.312 1328l-92.512 92.512c-6.24 6.24-6.24 16.384 0 22.624 6.24 6.24 16.384 6.24 22.624 0L475.2 1339.36a15.876 15.876 0 0 0 4.672-11.36c0-4.128-1.536-8.224-4.672-11.36zm-74.048-226.336c-131.904 0-238.848 106.944-238.848 238.848S269.248 1568 401.152 1568 640 1461.056 640 1329.152s-106.944-238.848-238.848-238.848zm0 445.696c-114.048 0-206.848-92.8-206.848-206.848s92.8-206.848 206.848-206.848S608 1215.104 608 1329.152 515.2 1536 401.152 1536z" fill="undefined"/></svg>