<svg width="64" height="64" viewBox="0 0 512 512" xmlns="http://www.w3.org/2000/svg"><path d="M272 32C139.456 32 32 139.456 32 272s107.456 240 240 240 240-107.456 240-240S404.544 32 272 32zm176 240c0 8.832-7.168 16-16 16H182.624l68.672 68.672c6.24 6.24 6.24 16.384 0 22.624-6.24 6.24-16.384 6.24-22.624 0l-96-96c-.032-.032-.064-.096-.096-.16-1.408-1.44-2.56-3.136-3.328-5.024-.8-1.952-1.248-4-1.248-6.048V272c0-2.08.416-4.16 1.248-6.112.768-1.888 1.92-3.584 3.328-5.024.064-.064.064-.128.128-.192l96-96c6.24-6.24 16.384-6.24 22.624 0 6.24 6.24 6.24 16.384 0 22.624L182.624 256H432c8.832 0 16 7.168 16 16z"/></svg>