<svg width="64" height="64" viewBox="0 0 512 512" xmlns="http://www.w3.org/2000/svg"><path d="M273.056 34.144c-131.968 0-238.944 106.976-238.944 238.944S141.12 512 273.056 512 512 405.024 512 273.056 405.024 34.144 273.056 34.144zm116.992 266.464l-107.04 94.688c-3.2 3.2-7.392 4.736-11.584 4.672-4.224.032-8.416-1.472-11.616-4.672l-107.04-94.688c-6.272-6.272-6.272-16.48 0-22.752 6.272-6.272 16.48-6.272 22.752 0l95.872 84.8 95.872-84.8c6.272-6.272 16.48-6.272 22.752 0s6.336 16.448.032 22.752zm0-114.752l-107.04 94.688c-3.2 3.2-7.392 4.736-11.584 4.672-4.224.032-8.416-1.472-11.616-4.672l-107.04-94.688c-6.272-6.272-6.272-16.48 0-22.752 6.272-6.304 16.48-6.304 22.752-.032l95.872 84.8 95.872-84.8c6.272-6.272 16.48-6.272 22.752 0s6.336 16.48.032 22.784z"/></svg>