<svg width="64" height="64" viewBox="0 0 512 512" xmlns="http://www.w3.org/2000/svg"><path d="M510.752 265.888a15.831 15.831 0 0 0-3.456-5.184l-64-64c-6.24-6.24-16.384-6.24-22.624 0-6.24 6.24-6.24 16.384 0 22.624L457.376 256H288V86.624l36.672 36.672c6.24 6.24 16.384 6.24 22.624 0 6.24-6.24 6.24-16.384 0-22.624l-64-64c-.032-.032-.128-.064-.16-.096-1.44-1.408-3.136-2.56-5.024-3.328A15.585 15.585 0 0 0 272 32h-.064c-2.048 0-4.096.448-6.048 1.248-1.888.768-3.584 1.92-5.024 3.328l-.192.096-64 64c-6.24 6.24-6.24 16.384 0 22.624 6.24 6.24 16.384 6.24 22.624 0L256 86.624V256H86.624l36.672-36.672c6.24-6.24 6.24-16.384 0-22.624-6.24-6.24-16.384-6.24-22.624 0l-64 64c-.032.032-.064.128-.096.16-1.408 1.44-2.56 3.136-3.328 5.024A15.585 15.585 0 0 0 32 272v.064c0 2.048.448 4.096 1.248 6.048.768 1.888 1.92 3.584 3.328 5.024l.096.192 64 64c6.24 6.24 16.384 6.24 22.624 0 6.24-6.24 6.24-16.384 0-22.624L86.624 288H256v169.376l-36.672-36.672c-6.24-6.24-16.384-6.24-22.624 0-6.24 6.24-6.24 16.384 0 22.624l64 64a15.831 15.831 0 0 0 5.184 3.456c1.952.768 4 1.216 6.048 1.216H272c2.08 0 4.16-.416 6.112-1.248a15.831 15.831 0 0 0 5.184-3.456l64-64c6.24-6.24 6.24-16.384 0-22.624-6.24-6.24-16.384-6.24-22.624 0L288 457.376V288h169.376l-36.672 36.672c-6.24 6.24-6.24 16.384 0 22.624 6.24 6.24 16.384 6.24 22.624 0l64-64a15.831 15.831 0 0 0 3.456-5.184c.768-1.952 1.216-4 1.216-6.048V272c0-2.08-.416-4.16-1.248-6.112z"/></svg>