<svg width="64" height="64" viewBox="0 0 512 512" xmlns="http://www.w3.org/2000/svg"><path d="M272 32C139.456 32 32 139.456 32 272s107.456 240 240 240 240-107.456 240-240S404.544 32 272 32zm119.232 348.928c-6.272 6.272-16.48 6.272-22.752 0l-95.872-84.8-95.872 84.8c-6.272 6.272-16.48 6.272-22.752 0-6.272-6.272-6.272-16.48 0-22.752l107.04-94.688c3.2-3.2 7.392-4.736 11.584-4.672 4.192-.096 8.384 1.44 11.584 4.64l107.04 94.688a16.088 16.088 0 0 1 0 22.784zm0-114.752c-6.272 6.272-16.48 6.272-22.752 0l-95.904-84.832-95.872 84.832c-6.272 6.272-16.48 6.272-22.752 0-6.272-6.272-6.272-16.48 0-22.752l107.04-94.688c3.2-3.2 7.392-4.736 11.584-4.672 4.224-.096 8.416 1.44 11.616 4.64l107.04 94.688a16.088 16.088 0 0 1 0 22.784z"/></svg>