<svg width="1792" height="1792" xmlns="http://www.w3.org/2000/svg"><path d="M260.704 1323.008l94.688 107.04c6.272 6.272 16.48 6.272 22.752 0s6.272-16.48 0-22.752l-84.8-95.872 84.8-95.872c6.272-6.272 6.272-16.48 0-22.752s-16.48-6.272-22.752 0l-94.688 107.008c-3.2 3.2-4.704 7.392-4.672 11.584-.032 4.192 1.472 8.416 4.672 11.616zm232.224-130.24c-6.272-6.272-16.48-6.272-22.752 0l-94.72 107.04c-3.2 3.2-4.736 7.392-4.672 11.584-.032 4.192 1.472 8.416 4.672 11.616l94.688 107.04c6.272 6.272 16.48 6.272 22.752 0s6.272-16.48 0-22.752l-84.8-95.872 84.8-95.872c6.304-6.304 6.304-16.512.032-22.784z" fill="undefined"/></svg>