<?xml version="1.0" encoding="utf-8"?>
<svg width="1792" height="1792" xmlns="http://www.w3.org/2000/svg"><path d="M400 1088c-132.544 0-240 107.456-240 240s107.456 240 240 240 240-107.456 240-240-107.456-240-240-240zm107.328 219.328c-6.24 6.24-16.384 6.24-22.624 0L416 1238.624V1488c0 8.832-7.168 16-16 16s-16-7.168-16-16v-249.376l-68.672 68.704c-6.24 6.24-16.384 6.24-22.624 0-6.24-6.24-6.24-16.384 0-22.624l96-96c.032-.064.064-.064.096-.096 1.44-1.408 3.168-2.592 5.056-3.36a15.872 15.872 0 0 1 12.224 0c1.984.8 3.744 1.952 5.248 3.424l96 96c6.24 6.272 6.24 16.384 0 22.656z" fill="undefined"/></svg>