<svg width="64" height="64" viewBox="0 0 512 512" xmlns="http://www.w3.org/2000/svg"><path d="M323.2 156.864c-6.24-6.24-16.384-6.24-22.624 0L196.8 260.64c-3.136 3.136-4.672 7.232-4.672 11.36 0 4.128 1.536 8.224 4.672 11.36l103.776 103.776c6.24 6.24 16.384 6.24 22.624 0 6.24-6.24 6.24-16.384 0-22.624L230.688 272l92.512-92.512c6.24-6.24 6.24-16.384 0-22.624zM272 32C139.456 32 32 139.456 32 272s107.456 240 240 240 240-107.456 240-240S404.544 32 272 32zm0 448c-114.688 0-208-93.312-208-208S157.312 64 272 64s208 93.312 208 208-93.312 208-208 208z"/></svg>