<svg width="1792" height="1792" xmlns="http://www.w3.org/2000/svg"><path d="M230.304 1158.304c-93.728 93.728-93.728 245.696 0 339.424 93.728 93.728 245.696 93.728 339.424 0 93.728-93.728 93.728-245.696 0-339.424-93.76-93.728-245.696-93.728-339.424 0zm288.672 73.376L342.624 1408h97.152c8.832 0 16 7.168 16 16s-7.168 16-16 16H304c-2.08 0-4.16-.416-6.112-1.248a16.055 16.055 0 0 1-5.056-3.36c-.032-.032-.096-.032-.128-.096-.064-.064-.064-.128-.128-.192-1.408-1.44-2.56-3.136-3.328-5.024-.8-1.92-1.248-3.968-1.248-6.016v-135.84c0-8.832 7.168-16 16-16s16 7.168 16 16v97.152l176.32-176.32c6.24-6.24 16.384-6.24 22.624 0s6.272 16.352.032 22.624z" fill="undefined"/></svg>