<svg width="64" height="64" viewBox="0 0 512 512" xmlns="http://www.w3.org/2000/svg"><path d="M88.928 376.992c6.24-6.24 6.24-16.384 0-22.624L54.56 320H336c8.832 0 16-7.168 16-16s-7.168-16-16-16H54.56l36.704-36.704c6.24-6.24 6.24-16.384 0-22.624-6.24-6.24-16.384-6.24-22.624 0L4.672 292.64C1.536 295.776 0 299.872 0 304c0 4.128 1.536 8.224 4.672 11.36l61.632 61.632c6.272 6.272 16.384 6.272 22.624 0zm418.4-180.032l-61.632-61.632c-6.24-6.24-16.384-6.24-22.624 0s-6.24 16.384 0 22.624l34.368 34.368H176c-8.832 0-16 7.168-16 16s7.168 16 16 16h281.44l-36.704 36.704c-6.24 6.24-6.24 16.384 0 22.624 6.24 6.24 16.384 6.24 22.624 0l63.968-63.968c3.136-3.136 4.672-7.232 4.672-11.36 0-4.128-1.536-8.224-4.672-11.36z"/></svg>