<?xml version="1.0" encoding="utf-8"?>
<svg width="1792" height="1792" xmlns="http://www.w3.org/2000/svg"><path d="M400 1088c-132.544 0-240 107.456-240 240s107.456 240 240 240 240-107.456 240-240-107.456-240-240-240zm115.136 211.424L411.36 1403.2a15.876 15.876 0 0 1-11.36 4.672c-4.128 0-8.224-1.536-11.36-4.672l-103.776-103.776c-6.24-6.24-6.24-16.384 0-22.624 6.24-6.24 16.384-6.24 22.624 0L400 1369.312l92.512-92.512c6.24-6.24 16.384-6.24 22.624 0 6.24 6.24 6.24 16.384 0 22.624z" fill="undefined"/></svg>