<svg width="1792" height="1792" xmlns="http://www.w3.org/2000/svg"><path d="M492.512 1276.8L400 1369.312l-92.512-92.512c-6.24-6.24-16.384-6.24-22.624 0-6.24 6.24-6.24 16.384 0 22.624L388.64 1403.2a15.876 15.876 0 0 0 11.36 4.672c4.128 0 8.224-1.536 11.36-4.672l103.776-103.776c6.24-6.24 6.24-16.384 0-22.624-6.24-6.24-16.384-6.24-22.624 0zm-91.36-186.528c-131.904 0-238.848 106.944-238.848 238.848-.032 131.936 106.912 238.88 238.848 238.88C533.056 1568 640 1461.056 640 1329.152c0-131.936-106.944-238.88-238.848-238.88zm0 445.728c-114.048 0-206.848-92.8-206.848-206.848 0-114.048 92.8-206.848 206.848-206.848C515.2 1122.272 608 1215.072 608 1329.152 608 1443.2 515.2 1536 401.152 1536z" fill="undefined"/></svg>