<?xml version="1.0" encoding="utf-8"?>
<svg width="1792" height="1792" xmlns="http://www.w3.org/2000/svg"><path d="M495.296 1333.824l-95.872 84.8-95.872-84.8c-6.272-6.272-16.48-6.272-22.752 0-6.272 6.272-6.272 16.48 0 22.752l107.04 94.688c3.2 3.2 7.392 4.736 11.584 4.672 4.192.064 8.416-1.472 11.584-4.672l107.04-94.688c6.272-6.272 6.272-16.48 0-22.752s-16.48-6.272-22.752 0zm0-114.752l-95.872 84.8-95.872-84.8c-6.304-6.272-16.512-6.272-22.784 0-6.272 6.272-6.272 16.48 0 22.752l107.04 94.688c3.2 3.2 7.392 4.736 11.584 4.672 4.192.064 8.416-1.472 11.584-4.672l107.04-94.688c6.272-6.272 6.272-16.48 0-22.752s-16.448-6.272-22.72 0zm-94.144-128.768c-131.904 0-238.848 106.944-238.848 238.848S269.248 1568 401.152 1568 640 1461.056 640 1329.152s-106.944-238.848-238.848-238.848zm0 445.696c-114.048 0-206.848-92.8-206.848-206.848s92.8-206.848 206.848-206.848S608 1215.104 608 1329.152 515.2 1536 401.152 1536z" fill="undefined"/></svg>