<svg width="1792" height="1792" xmlns="http://www.w3.org/2000/svg"><path d="M523.296 1316.992l-94.688-107.04c-6.272-6.272-16.48-6.272-22.752 0s-6.272 16.48 0 22.752l84.8 95.872-84.8 95.872c-6.272 6.272-6.272 16.48 0 22.752s16.48 6.272 22.752 0l94.688-107.04c3.2-3.2 4.736-7.392 4.672-11.584.032-4.192-1.472-8.384-4.672-11.584zm-110.08 11.584c.064-4.192-1.472-8.416-4.672-11.584l-94.688-107.04c-6.272-6.272-16.48-6.272-22.752 0s-6.272 16.48 0 22.752l84.8 95.872-84.8 95.872c-6.272 6.272-6.272 16.48 0 22.752s16.48 6.272 22.752 0l94.688-107.04c3.2-3.168 4.736-7.36 4.672-11.584zM400 1088c-132.544 0-240 107.456-240 240s107.456 240 240 240 240-107.456 240-240-107.456-240-240-240zm0 448c-114.688 0-208-93.312-208-208s93.312-208 208-208 208 93.312 208 208-93.312 208-208 208z" fill="undefined"/></svg>