<svg width="64" height="64" viewBox="0 0 512 512" xmlns="http://www.w3.org/2000/svg"><path d="M292.48 507.488a15.876 15.876 0 0 0 11.36 4.672c4.128 0 8.224-1.536 11.36-4.672l61.632-61.632c6.24-6.24 6.24-16.384 0-22.624s-16.384-6.24-22.624 0L320 457.44V176.16c0-8.832-7.168-16-16-16s-16 7.168-16 16v281.6l-36.864-36.864c-6.24-6.24-16.384-6.24-22.624 0-6.24 6.24-6.24 16.384 0 22.624l63.968 63.968zM208 352.16c8.832 0 16-7.168 16-16V54.56l36.864 36.864c6.24 6.24 16.384 6.24 22.624 0 6.24-6.24 6.24-16.384 0-22.624L219.52 4.832C216.384 1.696 212.288.16 208.16.16c-4.128 0-8.224 1.536-11.36 4.672l-61.632 61.632c-6.24 6.24-6.24 16.384 0 22.624 6.24 6.24 16.384 6.24 22.624 0L192 54.88v281.28c0 8.832 7.168 16 16 16z"/></svg>