<svg width="64" height="64" viewBox="0 0 512 512" xmlns="http://www.w3.org/2000/svg"><path d="M478.752 41.888c-1.632-3.904-4.736-7.04-8.64-8.64A15.585 15.585 0 0 0 464 32H336c-8.832 0-16 7.168-16 16s7.168 16 16 16h89.376L292.672 196.672c-6.24 6.24-6.24 16.384 0 22.624 6.24 6.24 16.384 6.24 22.624 0L448 86.624V176c0 8.832 7.168 16 16 16s16-7.168 16-16V48c0-2.08-.416-4.16-1.248-6.112zM48 320c-8.832 0-16 7.168-16 16v128.064c0 2.08.416 4.128 1.216 6.048.768 1.888 1.92 3.584 3.328 5.024.064.064.064.128.128.192.032.032.096.032.128.096 1.44 1.408 3.168 2.592 5.056 3.36C43.84 479.584 45.92 480 48 480h128c8.832 0 16-7.168 16-16s-7.168-16-16-16H86.624l132.672-132.672c6.24-6.24 6.24-16.384 0-22.624-6.24-6.24-16.384-6.24-22.624 0L64 425.376V336c0-8.832-7.168-16-16-16z"/></svg>