<svg width="1792" height="1792" xmlns="http://www.w3.org/2000/svg"><path d="M192 1296c0 8.832 7.168 16 16 16s16-7.168 16-16v-121.376L521.376 1472H400c-8.832 0-16 7.168-16 16s7.168 16 16 16h160c2.08 0 4.16-.416 6.112-1.248 3.904-1.632 7.04-4.736 8.64-8.64.8-1.952 1.248-4 1.248-6.048V1328c0-8.832-7.168-16-16-16s-16 7.168-16 16v121.376L246.624 1152H368c8.832 0 16-7.168 16-16s-7.168-16-16-16H208c-2.08 0-4.16.416-6.112 1.248-1.92.768-3.616 1.92-5.088 3.36-.032.032-.064.032-.128.064-.032.064-.064.16-.096.192-1.408 1.44-2.56 3.136-3.328 5.024A15.585 15.585 0 0 0 192 1136v160z" fill="undefined"/></svg>