<svg width="64" height="64" viewBox="0 0 512 512" xmlns="http://www.w3.org/2000/svg"><path d="M480 0H32C14.336 0 0 14.336 0 32v448c0 17.664 14.336 32 32 32h448c17.664 0 32-14.336 32-32V32c0-17.664-14.336-32-32-32zM224 304v128c0 8.832-7.168 16-16 16s-16-7.168-16-16v-89.376L91.328 443.296c-6.24 6.24-16.384 6.24-22.624 0-6.24-6.24-6.24-16.384 0-22.624L169.376 320H80c-8.832 0-16-7.168-16-16s7.168-16 16-16h128c2.08 0 4.16.416 6.112 1.248 3.904 1.632 7.04 4.736 8.64 8.64A15.585 15.585 0 0 1 224 304zm208-112c8.832 0 16 7.168 16 16s-7.168 16-16 16H304c-2.08 0-4.16-.416-6.112-1.248-1.92-.768-3.616-1.92-5.088-3.36-.032-.032-.064-.032-.128-.064l-.096-.192c-1.408-1.44-2.56-3.136-3.328-5.024-.8-1.952-1.248-4-1.248-6.048V80c0-8.832 7.168-16 16-16s16 7.168 16 16v89.376L420.672 68.704c6.24-6.24 16.384-6.24 22.624 0 6.24 6.24 6.24 16.384 0 22.624L342.624 192H432z"/></svg>