<?xml version="1.0" encoding="utf-8"?>
<svg width="1792" height="1792" xmlns="http://www.w3.org/2000/svg"><path d="M507.296 1300.992l-94.688-107.04c-6.272-6.272-16.48-6.272-22.752 0s-6.272 16.48 0 22.752l84.8 95.872-84.8 95.872c-6.272 6.272-6.272 16.48 0 22.752s16.48 6.272 22.752 0l94.688-107.04c3.2-3.2 4.736-7.392 4.672-11.584.032-4.192-1.472-8.384-4.672-11.584zm-232.224 130.24c6.272 6.272 16.48 6.272 22.752 0l94.688-107.04c3.2-3.2 4.736-7.392 4.672-11.584.064-4.192-1.472-8.416-4.672-11.584l-94.656-107.072c-6.272-6.272-16.48-6.272-22.752 0s-6.272 16.48 0 22.752l84.8 95.872-84.8 95.872c-6.304 6.304-6.304 16.512-.032 22.784z" fill="undefined"/></svg>