<?xml version="1.0" encoding="utf-8"?>
<svg width="1792" height="1792" xmlns="http://www.w3.org/2000/svg"><path d="M603.328 1092.672c-6.24-6.24-16.384-6.24-22.624 0L448 1225.376V1136c0-8.832-7.168-16-16-16s-16 7.168-16 16v128.064c0 2.048.448 4.096 1.248 6.048.768 1.888 1.92 3.584 3.328 5.024l.096.192c.064.032.096.032.128.064 1.44 1.408 3.168 2.592 5.056 3.36A15.857 15.857 0 0 0 432 1280h128c8.832 0 16-7.168 16-16s-7.168-16-16-16h-89.376l132.672-132.672c6.272-6.272 6.272-16.384.032-22.656zm-438.656 438.656c6.24 6.24 16.384 6.24 22.624 0L320 1398.624V1488c0 8.832 7.168 16 16 16s16-7.168 16-16v-128c0-2.08-.416-4.16-1.248-6.112-1.632-3.904-4.736-7.04-8.64-8.64A15.585 15.585 0 0 0 336 1344H208c-8.832 0-16 7.168-16 16s7.168 16 16 16h89.376l-132.672 132.672c-6.272 6.272-6.272 16.384-.032 22.656z" fill="undefined"/></svg>