<?xml version="1.0" encoding="utf-8"?>
<svg width="1792" height="1792" xmlns="http://www.w3.org/2000/svg"><path d="M400 1088c-132.544 0-240 107.456-240 240s107.456 240 240 240 240-107.456 240-240-107.456-240-240-240zm48 337.44c0 3.936-2.08 7.456-5.408 9.984-.064.064-.064.128-.128.16-6.944 5.44-18.208 5.44-25.152 0l-123.456-97.728c-.192-.16-.448-.192-.64-.352-6.944-5.44-6.944-14.304 0-19.744l124.064-97.984c6.944-5.44 18.208-5.44 25.152 0l-.064.064c3.424 2.528 5.632 6.08 5.632 10.08v195.52z" fill="undefined"/></svg>