<svg width="1792" height="1792" xmlns="http://www.w3.org/2000/svg"><path d="M411.36 1252.8c-3.136-3.136-7.232-4.672-11.36-4.672-4.128 0-8.224 1.536-11.36 4.672l-103.776 103.776c-6.24 6.24-6.24 16.384 0 22.624 6.24 6.24 16.384 6.24 22.624 0L400 1286.688l92.512 92.512c6.24 6.24 16.384 6.24 22.624 0 6.24-6.24 6.24-16.384 0-22.624L411.36 1252.8zm-10.304-162.656c-131.968 0-238.944 106.976-238.944 238.944S269.12 1568 401.056 1568 640 1461.024 640 1329.056s-106.976-238.912-238.944-238.912zm0 445.856c-114.112 0-206.944-92.832-206.944-206.944s92.832-206.944 206.944-206.944S608 1214.976 608 1329.056 515.168 1536 401.056 1536z" fill="undefined"/></svg>