<svg width="64" height="64" viewBox="0 0 512 512" xmlns="http://www.w3.org/2000/svg"><path d="M181.344 271.392l84.8-95.872c6.272-6.272 6.272-16.48 0-22.752s-16.48-6.272-22.752 0l-94.688 107.04c-3.2 3.2-4.736 7.392-4.672 11.584-.032 4.192 1.472 8.416 4.672 11.616l94.688 107.04c6.272 6.272 16.48 6.272 22.752 0s6.272-16.48 0-22.752l-84.8-95.904zm199.584-118.624c-6.272-6.272-16.48-6.272-22.752 0l-94.72 107.04c-3.2 3.2-4.736 7.392-4.672 11.584-.032 4.192 1.472 8.416 4.672 11.616l94.688 107.04c6.272 6.272 16.48 6.272 22.752 0s6.272-16.48 0-22.752l-84.8-95.872 84.8-95.872c6.304-6.304 6.304-16.512.032-22.784zM272 32C139.456 32 32 139.456 32 272s107.456 240 240 240 240-107.456 240-240S404.544 32 272 32zm0 448c-114.688 0-208-93.312-208-208S157.312 64 272 64s208 93.312 208 208-93.312 208-208 208z"/></svg>