<svg width="64" height="64" viewBox="0 0 512 512" xmlns="http://www.w3.org/2000/svg"><path d="M272 32C139.456 32 32 139.456 32 272s107.456 240 240 240 240-107.456 240-240S404.544 32 272 32zm107.328 219.328c-6.24 6.24-16.384 6.24-22.624 0L288 182.624V432c0 8.832-7.168 16-16 16s-16-7.168-16-16V182.624l-68.672 68.704c-6.24 6.24-16.384 6.24-22.624 0-6.24-6.24-6.24-16.384 0-22.624l96-96c.032-.064.064-.064.096-.096 1.44-1.408 3.168-2.592 5.056-3.36a15.872 15.872 0 0 1 12.224 0c1.984.8 3.744 1.952 5.248 3.424l96 96c6.24 6.272 6.24 16.384 0 22.656z"/></svg>