<svg width="1792" height="1792" xmlns="http://www.w3.org/2000/svg"><path d="M400 1088c-132.544 0-240 107.456-240 240s107.456 240 240 240 240-107.456 240-240-107.456-240-240-240zm0 448c-114.688 0-208-93.312-208-208s93.312-208 208-208 208 93.312 208 208-93.312 208-208 208zm9.6-282.784c-5.44-6.944-14.304-6.944-19.744 0-.16.192-.192.448-.352.64l-97.728 123.424c-5.44 6.944-5.44 18.208 0 25.152.032.064.128.064.16.128 2.528 3.36 6.048 5.44 9.984 5.44h195.52c4 0 7.552-2.208 10.08-5.632l.064.064c5.44-6.944 5.44-18.208 0-25.152L409.6 1253.216z" fill="undefined"/></svg>