<svg width="1792" height="1792" xmlns="http://www.w3.org/2000/svg"><path d="M638.752 1321.888a15.831 15.831 0 0 0-3.456-5.184l-64-64c-6.24-6.24-16.384-6.24-22.624 0-6.24 6.24-6.24 16.384 0 22.624L585.376 1312H182.624l36.672-36.672c6.24-6.24 6.24-16.384 0-22.624-6.24-6.24-16.384-6.24-22.624 0l-64 64c-.032.032-.064.128-.096.16-1.408 1.44-2.56 3.136-3.328 5.024A15.585 15.585 0 0 0 128 1328v.064c0 2.048.448 4.096 1.248 6.048.768 1.888 1.92 3.584 3.328 5.024l.096.192 64 64c6.24 6.24 16.384 6.24 22.624 0 6.24-6.24 6.24-16.384 0-22.624L182.624 1344h402.752l-36.672 36.672c-6.24 6.24-6.24 16.384 0 22.624 6.24 6.24 16.384 6.24 22.624 0l64-64a15.831 15.831 0 0 0 3.456-5.184c.768-1.952 1.216-4 1.216-6.048V1328c0-2.08-.416-4.16-1.248-6.112z" fill="undefined"/></svg>