<svg width="1792" height="1792" xmlns="http://www.w3.org/2000/svg"><path d="M230.304 1158.304c-93.728 93.728-93.728 245.696 0 339.424 93.728 93.728 245.696 93.728 339.424 0 93.728-93.728 93.728-245.696 0-339.424-93.76-93.728-245.696-93.728-339.424 0zM512 1232v135.776c0 8.832-7.168 16-16 16s-16-7.168-16-16v-97.152l-176.32 176.32c-6.24 6.24-16.384 6.24-22.624 0-6.24-6.24-6.24-16.384 0-22.624L457.376 1248h-97.152c-8.832 0-16-7.168-16-16s7.168-16 16-16H496c2.08 0 4.16.416 6.112 1.248 3.904 1.632 7.04 4.736 8.64 8.64A15.585 15.585 0 0 1 512 1232z" fill="undefined"/></svg>