<svg width="1792" height="1792" xmlns="http://www.w3.org/2000/svg"><path d="M400 1088c-132.544 0-240 107.456-240 240s107.456 240 240 240 240-107.456 240-240-107.456-240-240-240zm144 240v.064c0 2.08-.416 4.128-1.216 6.048a15.831 15.831 0 0 1-3.456 5.184l-96 96c-6.24 6.24-16.384 6.24-22.624 0-6.24-6.24-6.24-16.384 0-22.624L489.376 1344H240c-8.832 0-16-7.168-16-16s7.168-16 16-16h249.376l-68.704-68.672c-6.24-6.24-6.24-16.384 0-22.624 6.24-6.24 16.384-6.24 22.624 0l96 96a15.831 15.831 0 0 1 3.456 5.184A15.585 15.585 0 0 1 544 1328z" fill="undefined"/></svg>