<svg width="1792" height="1792" xmlns="http://www.w3.org/2000/svg"><path d="M400 1088c-132.544 0-240 107.456-240 240s107.456 240 240 240 240-107.456 240-240-107.456-240-240-240zm0 448c-114.688 0-208-93.312-208-208s93.312-208 208-208 208 93.312 208 208-93.312 208-208 208zm107.744-250.592c-2.528-3.328-6.048-5.408-9.984-5.408H302.24c-4 0-7.552 2.208-10.08 5.632l-.064-.064c-5.44 6.944-5.44 18.208 0 25.152l97.984 124.064c5.44 6.944 14.304 6.944 19.744 0 .16-.192.192-.448.352-.64l97.76-123.424c5.44-6.944 5.44-18.208 0-25.152-.064-.064-.128-.096-.192-.16z" fill="undefined"/></svg>