<svg width="1792" height="1792" xmlns="http://www.w3.org/2000/svg"><path d="M216.928 1432.992c6.24-6.24 6.24-16.384 0-22.624L182.56 1376H464c8.832 0 16-7.168 16-16s-7.168-16-16-16H182.56l36.704-36.704c6.24-6.24 6.24-16.384 0-22.624-6.24-6.24-16.384-6.24-22.624 0l-63.968 63.968c-3.136 3.136-4.672 7.232-4.672 11.36 0 4.128 1.536 8.224 4.672 11.36l61.632 61.632c6.272 6.272 16.384 6.272 22.624 0zm418.4-180.032l-61.632-61.632c-6.24-6.24-16.384-6.24-22.624 0s-6.24 16.384 0 22.624l34.368 34.368H304c-8.832 0-16 7.168-16 16s7.168 16 16 16h281.44l-36.704 36.704c-6.24 6.24-6.24 16.384 0 22.624 6.24 6.24 16.384 6.24 22.624 0l63.968-63.968c3.136-3.136 4.672-7.232 4.672-11.36 0-4.128-1.536-8.224-4.672-11.36z" fill="undefined"/></svg>