<svg width="1792" height="1792" xmlns="http://www.w3.org/2000/svg"><path d="M230.304 1158.304c-93.728 93.728-93.728 245.696 0 339.424 93.728 93.728 245.696 93.728 339.424 0 93.728-93.728 93.728-245.696 0-339.424-93.76-93.728-245.696-93.728-339.424 0zM512 1424v.064c0 2.08-.416 4.128-1.216 6.048-1.632 3.904-4.736 7.04-8.64 8.64A15.857 15.857 0 0 1 496 1440H360.224c-8.832 0-16-7.168-16-16s7.168-16 16-16h97.152l-176.32-176.32c-6.24-6.24-6.24-16.384 0-22.624s16.384-6.24 22.624 0L480 1385.376v-97.152c0-8.832 7.168-16 16-16s16 7.168 16 16V1424z" fill="undefined"/></svg>