<svg width="64" height="64" viewBox="0 0 512 512" xmlns="http://www.w3.org/2000/svg"><path d="M272 32C139.456 32 32 139.456 32 272s107.456 240 240 240 240-107.456 240-240S404.544 32 272 32zm107.328 283.328l-96 96a15.831 15.831 0 0 1-5.184 3.456 15.872 15.872 0 0 1-12.224 0 16.055 16.055 0 0 1-5.056-3.36c-.032-.032-.096-.032-.128-.096l-96-96c-6.24-6.24-6.24-16.384 0-22.624 6.24-6.24 16.384-6.24 22.624 0L256 361.376V112c0-8.832 7.168-16 16-16s16 7.168 16 16v249.376l68.672-68.672c6.24-6.24 16.384-6.24 22.624 0 6.272 6.24 6.272 16.352.032 22.624z"/></svg>