<svg width="1792" height="1792" xmlns="http://www.w3.org/2000/svg"><path d="M451.2 1212.864c-6.24-6.24-16.384-6.24-22.624 0L324.8 1316.64c-3.136 3.136-4.672 7.232-4.672 11.36 0 4.128 1.536 8.224 4.672 11.36l103.776 103.776c6.24 6.24 16.384 6.24 22.624 0 6.24-6.24 6.24-16.384 0-22.624L358.688 1328l92.512-92.512c6.24-6.24 6.24-16.384 0-22.624zM400 1088c-132.544 0-240 107.456-240 240s107.456 240 240 240 240-107.456 240-240-107.456-240-240-240zm0 448c-114.688 0-208-93.312-208-208s93.312-208 208-208 208 93.312 208 208-93.312 208-208 208z" fill="undefined"/></svg>