<svg width="64" height="64" viewBox="0 0 512 512" xmlns="http://www.w3.org/2000/svg"><path d="M480 0H32C14.336 0 0 14.336 0 32v448c0 17.664 14.336 32 32 32h448c17.664 0 32-14.336 32-32V32c0-17.664-14.336-32-32-32zM208 416c8.832 0 16 7.168 16 16s-7.168 16-16 16H80c-2.08 0-4.16-.416-6.112-1.248a16.055 16.055 0 0 1-5.056-3.36c-.032-.032-.096-.032-.128-.096-.064-.064-.064-.128-.128-.192-1.408-1.44-2.56-3.136-3.328-5.024-.8-1.92-1.248-3.968-1.248-6.016V304c0-8.832 7.168-16 16-16s16 7.168 16 16v89.376l100.672-100.672c6.24-6.24 16.384-6.24 22.624 0 6.24 6.24 6.24 16.384 0 22.624L118.624 416H208zM448 80v128c0 8.832-7.168 16-16 16s-16-7.168-16-16v-89.376L315.328 219.328c-6.24 6.24-16.384 6.24-22.624 0-6.24-6.24-6.24-16.384 0-22.624L393.376 96H304c-8.832 0-16-7.168-16-16s7.168-16 16-16h128c2.08 0 4.16.416 6.112 1.248 3.904 1.632 7.04 4.736 8.64 8.64A15.585 15.585 0 0 1 448 80z"/></svg>