<svg width="64" height="64" viewBox="0 0 512 512" xmlns="http://www.w3.org/2000/svg"><path d="M351.296 261.824l-95.872 84.8-95.872-84.8c-6.272-6.272-16.48-6.272-22.752 0-6.272 6.272-6.272 16.48 0 22.752l107.04 94.688c3.2 3.2 7.392 4.736 11.584 4.672 4.192.064 8.384-1.44 11.584-4.64l107.04-94.688c6.272-6.272 6.272-16.48 0-22.752s-16.48-6.304-22.752-.032zm22.752-114.752c-6.272-6.272-16.48-6.272-22.752 0l-95.872 84.8-95.872-84.8c-6.304-6.272-16.512-6.272-22.784 0-6.272 6.272-6.272 16.48 0 22.752l107.04 94.688c3.2 3.2 7.392 4.736 11.584 4.672 4.192.064 8.416-1.472 11.584-4.672l107.04-94.688c6.336-6.272 6.336-16.448.032-22.752z"/></svg>