<svg width="64" height="64" viewBox="0 0 512 512" xmlns="http://www.w3.org/2000/svg"><path d="M272 32C139.456 32 32 139.456 32 272s107.456 240 240 240 240-107.456 240-240S404.544 32 272 32zm0 448c-114.688 0-208-93.312-208-208S157.312 64 272 64s208 93.312 208 208-93.312 208-208 208zm42.432-316.224c-6.944-5.44-18.208-5.44-25.152 0L165.216 261.76c-6.944 5.44-6.944 14.304 0 19.744.192.16.448.192.64.352l123.424 97.76c6.944 5.44 18.208 5.44 25.152 0 .064-.032.064-.128.128-.16 3.36-2.56 5.44-6.08 5.44-10.016V173.92c0-4-2.208-7.552-5.632-10.08l.064-.064z"/></svg>