<svg width="64" height="64" viewBox="0 0 512 512" xmlns="http://www.w3.org/2000/svg"><path d="M367.296 277.824l-95.872 84.8-95.872-84.8c-6.272-6.272-16.48-6.272-22.752 0-6.272 6.272-6.272 16.48 0 22.752l107.04 94.688c3.2 3.2 7.392 4.736 11.584 4.672 4.192.064 8.416-1.472 11.584-4.672l107.04-94.688c6.272-6.272 6.272-16.48 0-22.752s-16.48-6.272-22.752 0zm0-114.752l-95.872 84.8-95.872-84.8c-6.304-6.272-16.512-6.272-22.784 0-6.272 6.272-6.272 16.48 0 22.752l107.04 94.688c3.2 3.2 7.392 4.736 11.584 4.672 4.192.064 8.416-1.472 11.584-4.672l107.04-94.688c6.272-6.272 6.272-16.48 0-22.752s-16.448-6.272-22.72 0zM273.152 34.304c-131.904 0-238.848 106.944-238.848 238.848S141.248 512 273.152 512 512 405.056 512 273.152 405.056 34.304 273.152 34.304zm0 445.696c-114.048 0-206.848-92.8-206.848-206.848s92.8-206.848 206.848-206.848S480 159.104 480 273.152 387.2 480 273.152 480z"/></svg>