<svg width="1792" height="1792" xmlns="http://www.w3.org/2000/svg"><path d="M400 1088c-132.544 0-240 107.456-240 240s107.456 240 240 240 240-107.456 240-240-107.456-240-240-240zm0 448c-114.688 0-208-93.312-208-208s93.312-208 208-208 208 93.312 208 208-93.312 208-208 208zm42.432-316.224c-6.944-5.44-18.208-5.44-25.152 0l-124.064 97.984c-6.944 5.44-6.944 14.304 0 19.744.192.16.448.192.64.352l123.424 97.76c6.944 5.44 18.208 5.44 25.152 0 .064-.032.064-.128.128-.16 3.36-2.56 5.44-6.08 5.44-10.016v-195.52c0-4-2.208-7.552-5.632-10.08l.064-.064z" fill="undefined"/></svg>