<svg width="1792" height="1792" xmlns="http://www.w3.org/2000/svg"><path d="M503.232 1283.392l-107.04-94.688c-3.2-3.2-7.392-4.736-11.584-4.672-4.224-.064-8.416 1.472-11.616 4.672l-107.04 94.688c-6.272 6.272-6.272 16.48 0 22.752 6.272 6.272 16.48 6.272 22.752 0l95.872-84.832 95.872 84.832c6.272 6.272 16.48 6.272 22.752 0 6.336-6.272 6.336-16.448.032-22.752zm-107.04 20.064c-3.2-3.2-7.392-4.736-11.584-4.672-4.224-.064-8.416 1.472-11.616 4.672l-107.04 94.688c-6.272 6.272-6.272 16.48 0 22.752 6.272 6.272 16.48 6.272 22.752 0l95.872-84.8 95.872 84.8c6.272 6.272 16.48 6.272 22.752 0 6.272-6.272 6.272-16.48 0-22.752l-107.008-94.688z" fill="undefined"/></svg>