<svg width="64" height="64" viewBox="0 0 512 512" xmlns="http://www.w3.org/2000/svg"><path d="M96 512h320c17.664 0 32-14.336 32-32V32c0-17.664-14.336-32-32-32H96C78.336 0 64 14.336 64 32v448c0 17.664 14.336 32 32 32zm256-160c-17.664 0-32-14.336-32-32s14.336-32 32-32 32 14.336 32 32-14.336 32-32 32zm32 64c0 17.664-14.336 32-32 32s-32-14.336-32-32 14.336-32 32-32 32 14.336 32 32zm-32-160c-17.664 0-32-14.336-32-32s14.336-32 32-32 32 14.336 32 32-14.336 32-32 32zM128 128V64h256v64H128zm128 224c-17.664 0-32-14.336-32-32s14.336-32 32-32 32 14.336 32 32-14.336 32-32 32zm32 64c0 17.664-14.336 32-32 32s-32-14.336-32-32 14.336-32 32-32 32 14.336 32 32zm-32-160c-17.664 0-32-14.336-32-32s14.336-32 32-32 32 14.336 32 32-14.336 32-32 32zm-96-64c17.664 0 32 14.336 32 32s-14.336 32-32 32-32-14.336-32-32 14.336-32 32-32zm0 96c17.664 0 32 14.336 32 32s-14.336 32-32 32-32-14.336-32-32 14.336-32 32-32zm0 96c17.664 0 32 14.336 32 32s-14.336 32-32 32-32-14.336-32-32 14.336-32 32-32z"/></svg>