<?xml version="1.0" encoding="utf-8"?>
<svg width="1792" height="1792" xmlns="http://www.w3.org/2000/svg"><path d="M375.2 1566.752c2.88.832 5.856 1.248 8.8 1.248s5.92-.416 8.8-1.248C590.848 1510.176 620 1309.984 607.776 1212c-2.016-15.968-15.648-28-31.776-28-4.576-.352-32-5.088-32-64 0-8.48-3.36-16.64-9.376-22.624C527.712 1090.464 488 1056 384 1056s-143.712 34.464-150.624 41.376C227.36 1103.36 224 1111.52 224 1120c0 58.912-27.424 63.648-32.928 64.032-16.128 0-28.832 12-30.848 28-12.224 97.952 16.96 298.144 214.976 354.72zM192 1216s64 0 64-96c0 0 32-32 128-32v224h188.448c-12.608 79.712-54.912 185.856-188.448 224v-224H195.552c-8.512-54.016-3.552-96-3.552-96z" fill="undefined"/></svg>