<svg width="64" height="64" viewBox="0 0 512 512" xmlns="http://www.w3.org/2000/svg"><path d="M256 0C167.648 0 96 72.736 96 162.464V192H64c-17.664 0-32 14.336-32 32v256c0 17.664 14.336 32 32 32h384c17.664 0 32-14.336 32-32V224c0-17.664-14.336-32-32-32h-32v-29.536C416 72.736 344.352 0 256 0zM128 162.464C128 90.528 185.408 32 256 32s128 58.528 128 130.464V192H128v-29.536zM448 480H64V224h384v256zM320 352c0-35.36-28.64-64-64-64s-64 28.64-64 64 28.64 64 64 64 64-28.64 64-64zm-64 32c-17.632 0-32-14.368-32-32s14.368-32 32-32 32 14.368 32 32-14.368 32-32 32z"/></svg>