<svg width="64" height="64" viewBox="0 0 512 512" xmlns="http://www.w3.org/2000/svg"><path d="M416 32h-64c0-17.664-14.336-32-32-32h-96c-17.664 0-32 14.336-32 32h-64c-17.664 0-32 14.336-32 32h352c0-17.664-14.336-32-32-32zM96 480c0 17.664 14.336 32 32 32h288c17.664 0 32-14.336 32-32V96H96v384zm256-304c0-8.832 7.168-16 16-16s16 7.168 16 16v256c0 8.832-7.168 16-16 16s-16-7.168-16-16V176zm-96 0c0-8.832 7.168-16 16-16s16 7.168 16 16v256c0 8.832-7.168 16-16 16s-16-7.168-16-16V176zm-96 0c0-8.832 7.168-16 16-16s16 7.168 16 16v256c0 8.832-7.168 16-16 16s-16-7.168-16-16V176z"/></svg>