<svg width="1792" height="1792" xmlns="http://www.w3.org/2000/svg"><path d="M608 1088H160c-17.664 0-32 14.336-32 32v288c0 17.664 14.336 32 32 32h159.968c-.064 23.136-.992 53.184-9.76 64h-6.464c-8.704 0-15.744 7.168-15.744 16s7.04 16 15.744 16h160.48c8.736 0 15.776-7.168 15.776-16s-7.04-16-15.744-16h-6.464c-8.8-10.816-9.696-40.864-9.76-64H608c17.664 0 32-14.336 32-32v-288c0-17.664-14.336-32-32-32zm-256 352l-.032.064c0-.032 0-.032.032-.064zm64.032.064L416 1440h.032v.064zM608 1376H160v-256h448v256z" fill="undefined"/></svg>