<svg width="64" height="64" viewBox="0 0 512 512" xmlns="http://www.w3.org/2000/svg"><path d="M480 96H320v64c0 17.664-14.336 32-32 32h16c26.496 0 48-21.504 48-48 0-6.08-.096-11.36-.288-16H480v352H32V128h128.288c-.192 4.64-.288 9.92-.288 16 0 26.496 21.504 48 48 48h16c-17.664 0-32-14.336-32-32V96H32c-17.664 0-32 14.336-32 32v352c0 17.664 14.336 32 32 32h448c17.664 0 32-14.336 32-32V128c0-17.664-14.336-32-32-32zm-45.344 224H240c-8.832 0-16 7.168-16 16s7.168 16 16 16h194.656c8.832 0 16-7.168 16-16s-7.168-16-16-16zm0 64H240c-8.832 0-16 7.168-16 16s7.168 16 16 16h194.656c8.832 0 16-7.168 16-16s-7.168-16-16-16zM240 288h194.656c8.832 0 16-7.168 16-16s-7.168-16-16-16H240c-8.832 0-16 7.168-16 16s7.168 16 16 16zM89.28 262.656a38.656 38.656 0 1 0 77.312 0 38.656 38.656 0 1 0-77.312 0zm39.488 54.112c-34.944 0-63.232 37.952-63.232 84.8S192 448.384 192 401.568s-28.32-84.8-63.232-84.8zM192 160c0 17.664 14.336 32 32 32h64c17.664 0 32-14.336 32-32V32c0-17.664-14.336-32-32-32h-64c-17.664 0-32 14.336-32 32v128zm96 0h-64V32h64v128z"/></svg>