<svg width="64" height="64" viewBox="0 0 512 512" xmlns="http://www.w3.org/2000/svg"><path d="M465.28 0H294.496c-4.896.256-16.032 7.904-17.472 9.344L73.344 212.992c-12.48 12.48-12.48 32.704 0 45.184l25.408 25.408-25.408 25.408c-12.48 12.48-12.48 32.704 0 45.184l148.672 148.672c6.24 6.24 14.4 9.344 22.592 9.344 8.16 0 16.352-3.104 22.592-9.344l203.648-203.68c1.472-1.44 9.152-11.296 9.152-17.44V15.904C480.448 6.976 474.048 0 465.28 0zm-16.928 276.32c-.096.16-.16.256-.128.256L244.64 480.256 95.968 331.648l25.408-25.408 100.64 100.64c6.24 6.24 14.4 9.344 22.592 9.344 8.16 0 16.352-3.104 22.592-9.344l181.152-181.152v50.592zm0-148.32v52.32c-.096.16-.16.256-.128.256L244.64 384.256 95.968 235.648 298.272 33.376a29.34 29.34 0 0 1 2.08-1.376h148v96zm-64-48.128a16 16 0 1 0 32 0 16 16 0 1 0-32 0z"/></svg>