<svg width="64" height="64" viewBox="0 0 512 512" xmlns="http://www.w3.org/2000/svg"><path d="M371.424 9.376A31.99 31.99 0 0 0 348.768 0H163.232c-8.48 0-16.64 3.36-22.624 9.376L9.408 140.608C3.36 146.592 0 154.72 0 163.232V348.8c0 8.48 3.36 16.64 9.376 22.624l131.2 131.232A32.094 32.094 0 0 0 163.232 512H348.8c8.48 0 16.64-3.36 22.624-9.376l131.2-131.232c6.016-5.984 9.376-14.112 9.376-22.624V163.232c0-8.48-3.36-16.64-9.376-22.624L371.424 9.376zM480 348.768L348.768 480H163.232L32 348.768V163.232L163.232 32H348.8L480 163.232v185.536zM256 96c-17.664 0-32 14.336-32 32v160c0 17.664 14.336 32 32 32s32-14.336 32-32V128c0-17.664-14.336-32-32-32zm-32 288a32 32 0 1 0 64 0 32 32 0 1 0-64 0z"/></svg>