<svg width="1792" height="1792" xmlns="http://www.w3.org/2000/svg"><path d="M639.456 1118.336C638.048 1101.856 624.736 1088 608 1088H160c-16.736 0-30.048 13.856-31.456 30.336H128V1536c0 17.664 14.336 32 32 32h448c17.664 0 32-14.336 32-32v-417.664h-.544zM320 1280v-96h128v96H320zm128 32v98.656H320V1312h128zm-160-128v96H160v-96h128zm-128 128h128v98.656H160V1312zm0 224v-96h128v96H160zm160 0v-96h128v96H320zm288 0H480v-96h128v96zm0-125.344H480V1312h128v98.656zM608 1280H480v-96h128v96z" fill="undefined"/></svg>