<svg width="1792" height="1792" xmlns="http://www.w3.org/2000/svg"><path d="M192 1120v288l4.736 11.84L256 1568l64-160-.16-.064c.096-.096.064-.256.16-.352V1120c0-35.36-28.64-64-64-64s-64 28.64-64 64zm32 0c0-17.632 14.368-32 32-32s32 14.368 32 32v32h-64v-32zm32 361.824l-16.48-41.184-6.4-16-.48-1.184 23.36-11.68 23.36 11.68-.48 1.216-6.4 16-16.48 41.152zm274.944-330.496l-30.24-77.344-.288.064C498.912 1063.904 490.56 1056 480 1056c-10.432 0-18.976 8.032-20.672 18.08l-.32-.064-29.952 77.312L416 1184v320c0 35.36 28.64 64 64 64s64-28.64 64-64c17.664 0 32-14.336 32-32v-96c0-17.664-14.336-32-32-32v-160l-13.056-32.672zm-29.728 11.904l8.32 20.768h-59.072l8.32-20.768 4.48-11.232L480 1110.176 496.736 1152l4.48 11.232z" fill="undefined"/></svg>