<?xml version="1.0" encoding="utf-8"?>
<svg width="1792" height="1792" xmlns="http://www.w3.org/2000/svg"><path d="M576 1120c-8.992-20-25.312-32-43.008-32H232c-17.664 0-32 12-40 32l-64 256v144.512c0 8.832 7.168 16 16 16h480c8.832 0 16-7.168 16-16v-142.528l-.416-1.472L576 1120zm-353.76 10.656c1.472-3.296 5.216-10.656 9.76-10.656h300.992c4.384 0 9.44 4.512 12.992 11.392l56.352 229.024c0 .064-.096 0-.096.064 0 8.832-7.168 16-16 16-.032 0-.032.032-.064.032H464c-8.832 0-16 7.168-16 16V1424c0 8.832-7.168 16-16 16-.32 0-.64.416-.96.512h-94.496c-.224-.096-.224-.512-.544-.512-8.832 0-16-7.168-16-16v-31.488c0-8.832-7.168-16-16-16H181.824c-.032 0-.032-.032-.064-.032-8.832 0-16.256-7.168-16.256-16 0-.224-.256-.064-.32-.224l57.056-229.6z" fill="undefined"/></svg>