<?xml version="1.0" encoding="utf-8"?>
<svg width="1792" height="1792" xmlns="http://www.w3.org/2000/svg"><path d="M400 1088c-132.544 0-240 107.456-240 240s107.456 240 240 240 240-107.456 240-240-107.456-240-240-240zm0 448c-114.688 0-208-93.312-208-208s93.312-208 208-208 208 93.312 208 208-93.312 208-208 208zm27.424-320c28.992 0 52.576 21.536 52.576 48 0 8.832 7.168 16 16 16s16-7.168 16-16c0-44.128-37.952-80-84.576-80H416v-16c0-8.832-7.168-16-16-16s-16 7.168-16 16v16h-11.424c-46.624 0-84.576 35.872-84.576 80s37.952 80 84.576 80H384v96h-11.424c-28.992 0-52.576-21.536-52.576-48 0-8.832-7.168-16-16-16s-16 7.168-16 16c0 44.128 37.952 80 84.576 80H384v16c0 8.832 7.168 16 16 16s16-7.168 16-16v-16h11.424c46.624 0 84.576-35.872 84.576-80s-37.952-80-84.576-80H416v-96h11.424zm0 128c28.992 0 52.576 21.536 52.576 48s-23.584 48-52.576 48H416v-96h11.424zM384 1312h-11.424c-28.992 0-52.576-21.536-52.576-48s23.584-48 52.576-48H384v96z" fill="undefined"/></svg>