<svg width="64" height="64" viewBox="0 0 512 512" xmlns="http://www.w3.org/2000/svg"><path d="M446.56 188.64c2.816 12.672 4.448 25.696 4.448 39.072 0 103.296-87.68 189.408-203.136 207.904 24.416 9.856 51.776 15.616 80.928 15.616 27.488 0 53.44-5.056 76.864-13.856 29.664 10.112 62.048 12.736 88.832 12.736-13.92-16.704-23.584-33.088-30.496-47.488 29.696-26.496 48-61.6 48-100.256 0-45.696-25.504-86.432-65.44-113.728zm-43.552 39.072C403.008 137.312 312.8 64 201.504 64S0 137.312 0 227.712c0 47.168 24.672 89.536 63.968 119.424-7.392 19.072-19.904 44-41.12 69.504 40.256 0 92.096-5.28 132-29.792 15.008 2.912 30.592 4.608 46.656 4.608 111.296-.032 201.504-73.312 201.504-163.744z"/></svg>