<svg width="64" height="64" viewBox="0 0 512 512" xmlns="http://www.w3.org/2000/svg"><path d="M152.928 64.896c18.72-18.72 49.152-18.72 67.872 0l171.616 171.616c8.448-31.968.544-67.36-24.512-92.416L254.752 30.976c-37.504-37.504-98.272-37.504-135.776 0l-25.44 25.44c-37.504 37.504-37.504 98.272 0 135.776l113.152 113.152c25.056 25.056 60.448 32.96 92.416 24.512L127.488 158.24c-18.72-18.72-18.72-49.152 0-67.872l25.44-25.472zm104.32 416.128c37.504 37.504 98.272 37.504 135.776 0l25.44-25.472c37.504-37.504 37.504-98.272 0-135.776L305.312 206.688c-25.056-25.056-60.448-32.96-92.416-24.512l171.616 171.616c18.72 18.72 18.72 49.152 0 67.872l-25.472 25.472c-18.72 18.72-49.152 18.72-67.872 0L119.584 275.488c-8.448 31.968-.544 67.36 24.512 92.416l113.152 113.12z"/></svg>