<svg width="64" height="64" viewBox="0 0 512 512" xmlns="http://www.w3.org/2000/svg"><path d="M220.608 409.408c.64.512 1.024 1.216 1.696 1.696.96.64 2.048.768 3.072 1.216 1.216.576 2.4 1.12 3.68 1.472 1.248.32 2.464.48 3.744.576 1.824.192 3.584.192 5.376-.064.736-.128 1.44-.32 2.176-.512 2.208-.544 4.256-1.408 6.272-2.624.352-.224.64-.48.992-.704 1.312-.896 2.72-1.568 3.84-2.784.8-.864 1.152-1.984 1.792-2.944.032-.032.096-.064.096-.096L444.032 99.008c6.784-10.336 3.872-24.224-6.496-31.008s-24.224-3.872-31.008 6.496L230.4 356.768l-97.408-94.752c-9.088-8.416-23.232-7.872-31.648 1.216-8.384 9.088-7.84 23.264 1.248 31.648l117.184 114.016c.224.224.544.288.832.512z"/></svg>