<svg width="1792" height="1792" xmlns="http://www.w3.org/2000/svg"><path d="M608 1376v-64c0-17.664-14.336-32-32-32H416v-64h96c17.664 0 32-14.336 32-32v-32c0-17.664-14.336-32-32-32H288c-17.664 0-32 14.336-32 32v32c0 17.664 14.336 32 32 32h96v64H224c-17.664 0-32 14.336-32 32v64c-17.664 0-32 14.336-32 32v64c0 17.664 14.336 32 32 32h32c17.664 0 32-14.336 32-32v-64c0-17.664-14.336-32-32-32v-64h160v64c-17.664 0-32 14.336-32 32v64c0 17.664 14.336 32 32 32h32c17.664 0 32-14.336 32-32v-64c0-17.664-14.336-32-32-32v-64h160v64c-17.664 0-32 14.336-32 32v64c0 17.664 14.336 32 32 32h32c17.664 0 32-14.336 32-32v-64c0-17.664-14.336-32-32-32z" fill="undefined"/></svg>