<?xml version="1.0" encoding="utf-8"?>
<svg width="1792" height="1792" xmlns="http://www.w3.org/2000/svg"><path d="M560.672 1056h-352c-44.16 0-79.904 35.488-80.544 79.488l-.128-.16v352c0 44.544 36.128 80.672 80.672 80.672h272c17.664 0 31.328-14.336 31.328-32v-336c0-8.832-6.496-16-15.328-16h-288c-26.848 0-48.672-20.512-48.672-47.328 0-26.848 21.824-48.672 48.672-48.672H544v368c0 8.832 7.84 16 16.672 16S576 1464.832 576 1456v-384c0-8.832-6.496-16-15.328-16zm-352 160h271.36l.64 320h-272c-26.848 0-48.672-21.824-48.672-48.672v-286.976c13.44 9.856 30.24 15.648 48.672 15.648z" fill="undefined"/></svg>