<?xml version="1.0" encoding="utf-8"?>
<svg width="1792" height="1792" xmlns="http://www.w3.org/2000/svg"><path d="M593.28 1056H422.496c-4.896.256-16.032 7.904-17.472 9.344l-203.68 203.648c-12.48 12.48-12.48 32.704 0 45.184l25.408 25.408-25.408 25.408c-12.48 12.48-12.48 32.704 0 45.184l148.672 148.672c6.24 6.24 14.4 9.344 22.592 9.344 8.16 0 16.352-3.104 22.592-9.344l203.648-203.68c1.472-1.44 9.152-11.296 9.152-17.44v-265.824c.448-8.928-5.952-15.904-14.72-15.904zm-16.928 276.32c-.096.16-.16.256-.128.256l-203.584 203.68-148.672-148.608 25.408-25.408 100.64 100.64c6.24 6.24 14.4 9.344 22.592 9.344 8.16 0 16.352-3.104 22.592-9.344l181.152-181.152v50.592zm0-148.32v52.32c-.096.16-.16.256-.128.256l-203.584 203.68-148.672-148.608 202.304-202.272a29.34 29.34 0 0 1 2.08-1.376h148v96zm-64-48.128a16 16 0 1 0 32 0 16 16 0 1 0-32 0z" fill="undefined"/></svg>