<?xml version="1.0" encoding="utf-8"?>
<svg width="1792" height="1792" xmlns="http://www.w3.org/2000/svg"><path d="M160 1444.064h73.44c5.792 5.76 139.232 118.08 139.232 118.08 8.032 4.864 14.848 6.272 20.672 5.728 11.84-1.12 20.16-11.04 22.688-21.504.128-1.024.128-467.712-.032-468.736-2.496-10.496-10.848-20.416-22.656-21.536-5.824-.544-12.64.864-20.672 5.728 0 0-133.44 116.416-139.232 122.176H160c-17.664 0-32 14.336-32 32v196.064c0 17.696 14.336 32 32 32zm474.272-214.912c-7.616-7.616-20-7.616-27.616 0l-55.232 55.232-55.232-55.232c-7.616-7.616-20-7.616-27.616 0s-7.616 20 0 27.616L523.808 1312l-55.232 55.232c-7.616 7.616-7.616 20 0 27.616s20 7.616 27.616 0l55.232-55.232 55.232 55.232c7.616 7.616 20 7.616 27.616 0s7.616-20 0-27.616L579.04 1312l55.232-55.232c7.648-7.616 7.648-20 0-27.616z" fill="undefined"/></svg>