<svg width="64" height="64" viewBox="0 0 512 512" xmlns="http://www.w3.org/2000/svg"><path d="M64 96v256l4.736 11.84L128 512l64-160-.16-.064c.096-.096.064-.256.16-.352V64c0-35.36-28.64-64-64-64S64 28.64 64 64v32zm32-32c0-17.632 14.368-32 32-32s32 14.368 32 32v32H96V64zm32 361.824l-16.48-41.184-6.4-16-.48-1.184 23.36-11.68 23.36 11.68-.48 1.216-6.4 16L128 425.824zM160 336l-32-16-32 16V128h64v208zM402.944 95.328L372.288 16l-.288.096C369.76 6.944 361.856 0 352 0c-10.592 0-18.944 7.936-20.416 18.112l-.576-.128-29.952 77.344L288 128v320c0 35.36 28.64 64 64 64s64-28.64 64-64c17.664 0 32-14.336 32-32v-96c0-17.664-14.336-32-32-32V128l-13.056-32.672zM384 320v128c0 17.632-14.368 32-32 32s-32-14.368-32-32V128h64v192zM368.736 96h-33.472L352 54.176 368.736 96z"/></svg>