<svg width="1792" height="1792" xmlns="http://www.w3.org/2000/svg"><path d="M384 1056c-89.728 0-162.464 72.736-162.464 162.464V1248H192c-17.664 0-32 14.336-32 32v256c0 17.664 14.336 32 32 32h384c17.664 0 32-14.336 32-32v-256c0-17.664-14.336-32-32-32h-29.536v-29.536C546.464 1128.736 473.728 1056 384 1056zm-98.464 162.464c0-54.304 44.16-98.464 98.464-98.464s98.464 44.16 98.464 98.464V1248H285.536v-29.536zM384 1472c-35.36 0-64-28.64-64-64s28.64-64 64-64 64 28.64 64 64-28.64 64-64 64z" fill="undefined"/></svg>