<svg width="64" height="64" viewBox="0 0 512 512" xmlns="http://www.w3.org/2000/svg"><path d="M13.568 430.56c-18.752 18.752-18.752 49.12 0 67.872 9.376 9.376 21.664 14.048 33.952 14.048 12.288 0 24.576-4.672 33.952-14.048l157.6-157.6-67.904-67.872-157.6 157.6zm393.888-292.096l68.576-35.488L512 33.504 478.496 0l-69.472 35.968-35.488 68.576-83.584 83.584 33.92 33.92zm15.008 182.176c-2.176-.128-4.256-.64-6.464-.64-11.712 0-22.816 2.4-33.184 6.24L185.76 129.184C189.6 118.816 192 107.712 192 96c0-2.208-.512-4.288-.64-6.464C187.968 39.584 146.816 0 96 0 81.216 0 67.36 3.616 54.848 9.6l63.776 63.776c3.36 3.36 5.664 7.328 7.2 11.52 4.192 11.36 1.92 24.576-7.2 33.728A31.912 31.912 0 0 1 96 128c-3.776 0-7.52-.832-11.104-2.176-4.192-1.568-8.16-3.84-11.52-7.2L9.6 54.848C3.616 67.36 0 81.216 0 96c0 50.816 39.584 91.968 89.536 95.36 2.176.128 4.256.64 6.464.64 11.712 0 22.816-2.4 33.184-6.24L326.24 382.816C322.4 393.184 320 404.288 320 416c0 2.208.512 4.288.64 6.464C324.032 472.416 365.184 512 416 512c14.784 0 28.64-3.616 41.152-9.6l-63.776-63.776c-3.36-3.36-5.664-7.328-7.2-11.52-4.192-11.36-1.92-24.576 7.2-33.728A31.912 31.912 0 0 1 416 384c3.776 0 7.52.832 11.104 2.176 4.192 1.568 8.16 3.84 11.52 7.2l63.776 63.776c5.984-12.512 9.6-26.368 9.6-41.152 0-50.816-39.584-91.968-89.536-95.36z"/></svg>