<svg width="64" height="64" viewBox="0 0 512 512" xmlns="http://www.w3.org/2000/svg"><path d="M272 32C139.456 32 32 139.456 32 272s107.456 240 240 240 240-107.456 240-240S404.544 32 272 32zm175.008 128h-47.68c-9.28-29.184-22.016-54.752-37.376-75.264 34.816 16.8 64.288 42.944 85.056 75.264zM288 160V66.624c30.24 8.928 59.712 42.464 77.856 93.376H288zm87.168 32c4.512 19.584 7.424 41.024 8.352 64H288v-64h87.168zM256 66.624V160h-77.856C196.288 109.088 225.76 75.552 256 66.624zM256 192v64h-95.52c.928-22.976 3.84-44.416 8.352-64H256zm-127.52 64H64.8c1.728-22.496 6.88-44.064 15.232-64h56.32c-4.288 20.256-6.976 41.664-7.872 64zm0 32c.896 22.336 3.584 43.744 7.872 64h-56.32c-8.352-19.936-13.504-41.504-15.232-64h63.68zm32 0H256v64h-87.168c-4.512-19.584-7.424-41.024-8.352-64zM256 384v93.376c-30.24-8.928-59.712-42.464-77.856-93.376H256zm32 93.376V384h77.856c-18.144 50.912-47.616 84.448-77.856 93.376zM288 352v-64h95.52c-.928 22.976-3.84 44.416-8.352 64H288zm127.52-64h63.68c-1.728 22.496-6.88 44.064-15.232 64h-56.32c4.288-20.256 6.976-41.664 7.872-64zm0-32c-.896-22.336-3.584-43.744-7.872-64h56.32c8.352 19.936 13.504 41.504 15.232 64h-63.68zM182.048 84.736c-15.328 20.512-28.096 46.08-37.376 75.264h-47.68c20.768-32.32 50.24-58.464 85.056-75.264zM96.992 384h47.68c9.28 29.184 22.016 54.752 37.376 75.264-34.816-16.8-64.288-42.944-85.056-75.264zm264.96 75.264c15.328-20.512 28.096-46.08 37.376-75.264h47.68c-20.768 32.32-50.24 58.464-85.056 75.264z"/></svg>