<svg width="64" height="64" viewBox="0 0 512 512" xmlns="http://www.w3.org/2000/svg"><path d="M32 388.064h73.44c5.792 5.76 139.232 118.08 139.232 118.08 8.032 4.864 14.848 6.272 20.672 5.728 11.84-1.12 20.16-11.04 22.688-21.504.128-1.024.128-467.712-.032-468.736-2.496-10.496-10.848-20.416-22.656-21.536-5.824-.544-12.64.864-20.672 5.728 0 0-133.44 116.416-139.232 122.176H32c-17.664 0-32 14.336-32 32v196.064c0 17.696 14.336 32 32 32zm305.312-76.16c-7.904 4-11.072 13.6-7.104 21.504a16.013 16.013 0 0 0 14.272 8.8c2.432 0 4.864-.544 7.2-1.696 32.352-16.32 52.448-48.672 52.448-84.512s-20.096-68.192-52.448-84.512c-7.904-4-17.472-.8-21.472 7.104-3.968 7.904-.8 17.504 7.104 21.504 21.472 10.816 34.816 32.224 34.816 55.904s-13.344 45.088-34.816 55.904zm-22.016 127.744c1.504 7.648 8.192 12.928 15.68 12.928 1.024 0 2.048-.096 3.104-.288C427.904 433.984 496 351.424 496 256S427.904 78.016 334.048 59.712c-8.544-1.728-17.088 3.968-18.752 12.64-1.696 8.672 3.968 17.088 12.64 18.784C406.784 106.496 464 175.84 464 256s-57.216 149.504-136.064 164.864c-8.672 1.696-14.336 10.112-12.64 18.784z"/></svg>