<svg width="64" height="64" viewBox="0 0 512 512" xmlns="http://www.w3.org/2000/svg"><path d="M480 224v-96c0-17.664-14.336-32-32-32h-9.536L427.68 29.44a15.826 15.826 0 0 0-6.432-10.4 15.574 15.574 0 0 0-11.904-2.816L61.44 72.672c-8.736 1.408-14.656 9.632-13.216 18.368l.8 4.96H32c-17.664 0-32 14.336-32 32v352c0 17.664 14.336 32 32 32h416c17.664 0 32-14.336 32-32v-96c17.664 0 32-14.336 32-32v-96c0-17.664-14.336-32-32-32zM32 128h416v96H320c-17.664 0-32 14.336-32 32v96c0 17.664 14.336 32 32 32h128v96H32V128zm85.376-32l281.28-45.664L406.048 96H117.376zM320 352v-96h160v96H320zm32-48a16 16 0 1 0 32 0 16 16 0 1 0-32 0z"/></svg>