<svg width="64" height="64" viewBox="0 0 512 512" xmlns="http://www.w3.org/2000/svg"><path d="M507.168 228.576l-77.152-140.32c-.192-.352-.608-.48-.832-.8-3.872-5.984-11.168-9.024-18.272-6.656L288 121.728V80c0-8.832-7.168-16-16-16s-16 7.168-16 16v52.352L122.4 176.8c-1.088.352-1.92 1.088-2.88 1.664h-.032c-2.176 1.312-4 2.976-5.312 5.056-.16.224-.448.32-.608.576l-79.456 140c-1.792 3.136-2.112 6.592-1.696 9.92-.096.672-.416 1.28-.416 1.984 0 32.96 49.76 80 96 80s96-47.04 96-80c0-2.048-.448-4-1.184-5.792 0-.064-.032-.128-.032-.192-.032-.096-.064-.224-.096-.32-.288-1.92-.832-3.808-1.824-5.6l-69.856-123.04L256 166.112V432c0 8.832 7.168 16 16 16s16-7.168 16-16V155.456l94.272-31.36-57.44 104.512A15.797 15.797 0 0 0 320 240c0 32.96 49.76 80 96 80s96-47.04 96-80c0-4.48-1.856-8.512-4.832-11.424zM73.216 320l54.272-95.584L181.728 320H73.216zm290.688-96L416 129.216 468.096 224H363.904z"/></svg>