<?xml version="1.0" encoding="utf-8"?>
<svg width="1792" height="1792" xmlns="http://www.w3.org/2000/svg"><path d="M639.744 1277.344c-1.344-78.528-65.056-148.512-143.744-148.512-45.504 0-85.6 23.808-112 58.752-26.4-34.944-66.496-58.752-112-58.752-78.688 0-142.4 69.984-143.744 148.512H128c0 .48.096.928.096 1.408 0 .352-.096.704-.096 1.088 0 2.208.544 3.872.64 5.984C135.68 1485.952 381.984 1568 381.984 1568s249.92-81.952 257.312-281.856c.128-2.24.704-4 .704-6.304 0-.384-.096-.736-.096-1.088 0-.512.096-.928.096-1.408h-.256z" fill="undefined"/></svg>