<?xml version="1.0" encoding="utf-8"?>
<svg width="1792" height="1792" xmlns="http://www.w3.org/2000/svg"><path d="M608 1184H160c-17.664 0-32 14.336-32 32v96h32v224c0 17.664 14.336 32 32 32h384c17.664 0 32-14.336 32-32v-224h32v-96c0-17.664-14.336-32-32-32zm-448 32h192v64H160v-64zm32 320v-224h160v224H192zm384 0H416.672v-224H576v224zm32-256H416.672v-64H608v64zm-224-128c0-.064-.032-.192-.032-.256h.096a.753.753 0 0 0-.064.256h128c44.192 0 64-21.504 64-48s-19.808-48-64-48c-41.376 0-73.952 18.624-96 40.224-9.664-5.728-20.832-9.216-32.928-9.216-11.584 0-22.304 3.264-31.712 8.576C329.344 1074.24 296.96 1056 256 1056c-44.192 0-64 21.504-64 48s19.808 48 64 48h128zm160-48c0 13.216-17.408 16-32 16h-72.672c-.256-.448-.48-.928-.736-1.344C454.848 1102.848 479.488 1088 512 1088c14.592 0 32 2.784 32 16zm-320 0c0-13.216 17.408-16 32-16 31.808 0 55.936 14.24 72.192 29.504-.512.8-.896 1.664-1.376 2.496H256c-14.592 0-32-2.784-32-16z" fill="undefined"/></svg>