<svg width="64" height="64" viewBox="0 0 512 512" xmlns="http://www.w3.org/2000/svg"><path d="M440.416 202.912c-4.032-14.016-9.504-27.36-16.448-39.872l31.808-66.912a258.544 258.544 0 0 0-39.904-39.904L348.96 88.032c-12.48-6.912-25.856-12.416-39.872-16.448L284.192 1.632C274.944.608 265.536 0 256 0s-18.944.608-28.192 1.632l-24.896 69.952c-13.984 4.032-27.36 9.536-39.84 16.448L96.128 56.224a258.544 258.544 0 0 0-39.904 39.904l31.808 66.912c-6.912 12.48-12.416 25.856-16.448 39.872L1.632 227.808C.608 237.056 0 246.464 0 256s.608 18.944 1.632 28.192l69.984 24.896c4.032 14.016 9.504 27.36 16.448 39.872l-31.808 66.912C68.064 430.592 81.44 444 96.16 455.776l66.912-31.808c12.48 6.912 25.856 12.416 39.872 16.448L227.84 510.4c9.216.992 18.624 1.6 28.16 1.6s18.944-.608 28.192-1.632l24.896-69.984c14.016-4.032 27.36-9.504 39.872-16.448l66.912 31.808c14.72-11.808 28.128-25.184 39.904-39.904l-31.808-66.912c6.912-12.48 12.416-25.856 16.448-39.872L510.4 284.16c.992-9.216 1.6-18.624 1.6-28.16s-.608-18.944-1.632-28.192l-69.952-24.896zM256 384c-70.688 0-128-57.312-128-128s57.312-128 128-128 128 57.312 128 128-57.312 128-128 128zm-64-128a64 64 0 1 0 128 0 64 64 0 1 0-128 0z"/></svg>