<svg width="1792" height="1792" xmlns="http://www.w3.org/2000/svg"><path d="M608 1120c-1.984-31.328-28.64-64-64-64H224c-35.36 0-62.016 32.672-64 64l-32 342.656c0 1.504.352 3.36.448 4.96-.096 1.472-.448 2.88-.448 4.384v32c0 35.36 28.64 64 64 64h384c35.36 0 64-28.64 64-64v-32c0-1.504-.352-2.912-.448-4.352.096-1.632.448-3.488.448-4.992L608 1120zm-448 384v-32c0-17.632 14.368-32 32-32h384c17.632 0 32 14.368 32 32v32c0 17.632-14.368 32-32 32H192c-17.632 0-32-14.368-32-32zm31.936-381.952C192.928 1106.304 207.168 1088 224 1088h320c16.832 0 31.072 18.304 32.128 34.976l27.2 291.392C595.04 1410.4 585.824 1408 576 1408H192c-9.824 0-19.04 2.4-27.36 6.368l27.296-292.32zM544 1488a16 16 0 1 0 32 0 16 16 0 1 0-32 0zm-64 0a16 16 0 1 0 32 0 16 16 0 1 0-32 0zm-272 16h224c8.832 0 16-7.168 16-16s-7.168-16-16-16H208c-8.832 0-16 7.168-16 16s7.168 16 16 16z" fill="undefined"/></svg>