<?xml version="1.0" encoding="utf-8"?>
<svg width="1792" height="1792" xmlns="http://www.w3.org/2000/svg"><path d="M160 1536h288c17.664 0 32-14.336 32-32v-43.2a112.344 112.344 0 0 0 19.168-11.68l98.208 98.208c3.136 3.136 7.232 4.672 11.328 4.672s8.192-1.568 11.328-4.672c6.24-6.24 6.24-16.384 0-22.624l-98.272-98.272C535.552 1407.808 544 1384.96 544 1360c0-44.608-26.272-82.784-64-100.8V1088c0-17.664-14.336-32-32-32H160c-17.664 0-32 14.336-32 32v416c0 17.664 14.336 32 32 32zm272-96c-44.096 0-80-35.904-80-80s35.904-80 80-80 80 35.904 80 80-35.904 80-80 80zm-32-256H208c-8.832 0-16-7.168-16-16s7.168-16 16-16h192c8.832 0 16 7.168 16 16s-7.168 16-16 16zm-192 64h192c3.104 0 5.824 1.12 8.256 2.624-20.928 4.544-39.68 14.912-54.464 29.376H208c-8.832 0-16-7.168-16-16s7.168-16 16-16zm0 96h113.6c-.736 5.28-1.6 10.528-1.6 16s.864 10.72 1.6 16H208c-8.832 0-16-7.168-16-16s7.168-16 16-16z" fill="undefined"/></svg>