<svg width="64" height="64" viewBox="0 0 512 512" xmlns="http://www.w3.org/2000/svg"><path d="M480 160h-32V32c0-17.664-14.336-32-32-32H96C78.336 0 64 14.336 64 32v128H32c-17.664 0-32 14.336-32 32v160c0 17.664 14.336 32 32 32h32v96c0 17.664 14.336 32 32 32h320c17.664 0 32-14.336 32-32v-96h32c17.664 0 32-14.336 32-32V192c0-17.664-14.336-32-32-32zM96 320h320v160H96V320zm320-32H96c-17.664 0-32 14.336-32 32v32H32V192h448v160h-32v-32c0-17.664-14.336-32-32-32zM96 32h320v128H96V32zm256 208a16 16 0 1 0 32 0 16 16 0 1 0-32 0zm-288 0a16 16 0 1 0 32 0 16 16 0 1 0-32 0zm352 0a16 16 0 1 0 32 0 16 16 0 1 0-32 0zm-32 128c0-8.832-7.168-16-16-16H144c-8.832 0-16 7.168-16 16s7.168 16 16 16h224c8.832 0 16-7.168 16-16zm-16 48H144c-8.832 0-16 7.168-16 16s7.168 16 16 16h224c8.832 0 16-7.168 16-16s-7.168-16-16-16z"/></svg>