<?xml version="1.0" encoding="utf-8"?>
<svg width="1792" height="1792" xmlns="http://www.w3.org/2000/svg"><path d="M454.816 1056c-5.28 0-11.328 1.632-18.272 5.824 0 0-133.44 116.416-139.232 122.176H224c-17.664 0-32 14.336-32 32v196.064c0 17.664 14.336 32 32 32h73.312c5.792 5.76 139.232 118.08 139.232 118.08 6.944 4.224 12.992 5.856 18.272 5.856.8 0 1.6-.032 2.368-.096 11.84-1.12 20.288-11.04 22.816-21.504v-468.768c-2.496-10.496-10.976-20.416-22.816-21.504a18.888 18.888 0 0 0-2.368-.128zM448 1529.984c-49.92-42.048-122.24-103.136-128.128-108.576-5.984-5.984-14.112-9.312-22.592-9.312H224V1216h73.312c8.192 0 16.384-3.424 22.304-9.056 5.824-5.536 78.144-68.8 128.384-112.64v435.68zm81.312-162.08c-7.904 4-11.072 13.6-7.104 21.504a16.013 16.013 0 0 0 14.272 8.8c2.432 0 4.864-.544 7.2-1.696 32.352-16.32 52.448-48.672 52.448-84.512s-20.096-68.192-52.448-84.512c-7.904-4-17.504-.8-21.472 7.104s-.8 17.504 7.104 21.504c21.472 10.816 34.816 32.224 34.816 55.904s-13.344 45.088-34.816 55.904z" fill="undefined"/></svg>