<?xml version="1.0" encoding="utf-8"?>
<svg width="1792" height="1792" xmlns="http://www.w3.org/2000/svg"><path d="M544 1088h-64c0-17.664-14.336-32-32-32h-96c-17.664 0-32 14.336-32 32h-64c-17.664 0-32 14.336-32 32h352c0-17.664-14.336-32-32-32zm-320 448c0 17.664 14.336 32 32 32h288c17.664 0 32-14.336 32-32v-384H224v384zm256-304c0-8.832 7.168-16 16-16s16 7.168 16 16v256c0 8.832-7.168 16-16 16s-16-7.168-16-16v-256zm-96 0c0-8.832 7.168-16 16-16s16 7.168 16 16v256c0 8.832-7.168 16-16 16s-16-7.168-16-16v-256zm-96 0c0-8.832 7.168-16 16-16s16 7.168 16 16v256c0 8.832-7.168 16-16 16s-16-7.168-16-16v-256z" fill="undefined"/></svg>