<svg width="64" height="64" viewBox="0 0 512 512" xmlns="http://www.w3.org/2000/svg"><path d="M480 320v-64c0-17.664-14.336-32-32-32H288v-64h96c17.664 0 32-14.336 32-32V96c0-17.664-14.336-32-32-32H160c-17.664 0-32 14.336-32 32v32c0 17.664 14.336 32 32 32h96v64H96c-17.664 0-32 14.336-32 32v64c-17.664 0-32 14.336-32 32v64c0 17.664 14.336 32 32 32h32c17.664 0 32-14.336 32-32v-64c0-17.664-14.336-32-32-32v-64h160v64c-17.664 0-32 14.336-32 32v64c0 17.664 14.336 32 32 32h32c17.664 0 32-14.336 32-32v-64c0-17.664-14.336-32-32-32v-64h160v64c-17.664 0-32 14.336-32 32v64c0 17.664 14.336 32 32 32h32c17.664 0 32-14.336 32-32v-64c0-17.664-14.336-32-32-32zM160 96h224v32H160V96zM96 384v32H64v-64h32v32zm192 32h-32v-64h32v64zm160-32v-32h32v64h-32v-32z"/></svg>