<svg width="64" height="64" viewBox="0 0 512 512" xmlns="http://www.w3.org/2000/svg"><path d="M32 0C14.336 0 0 14.336 0 32v448c0 17.664 14.336 32 32 32h32V0H32zm384 0H96v512h320c17.664 0 32-14.336 32-32V32c0-17.664-14.336-32-32-32zM270.24 123.328c26.752 0 48.416 21.696 48.416 48.416 0 26.752-21.696 48.448-48.416 48.448-26.752 0-48.448-21.696-48.448-48.448s21.696-48.416 48.448-48.416zM192 345.824c0-58.688 35.488-106.24 79.232-106.24s79.232 47.584 79.232 106.24S192 404.48 192 345.824zM480 32h32v96h-32zm0 128h32v96h-32zm0 128h32v96h-32z"/></svg>