<?xml version="1.0" encoding="utf-8"?>
<svg width="1792" height="1792" xmlns="http://www.w3.org/2000/svg"><path d="M614.944 1120.768l-144-64A31.631 31.631 0 0 0 464 1056c-2.08 0-4.192.192-6.24.608l-154.048 62.688-136.736-62.528A32.136 32.136 0 0 0 160 1056c-7.2 0-14.272 2.432-20 7.04a31.91 31.91 0 0 0-12 24.96v384c0 14.976 10.4 27.968 25.024 31.232l143.328 64c2.304.512 4.64.768 6.976.768 2.08 0 4.192-.192 6.24-.608l154.048-62.688 137.408 62.528c2.336.512 4.672.768 6.976.768 7.2 0 14.304-2.432 20.032-7.04 7.552-6.08 11.968-15.264 11.968-24.96v-384c0-15.008-10.432-28-25.056-31.232zM320 1145.376l128-50.976v384l-128 50.976v-384zM160 1088l128 57.152v384L160 1472v-384zm448 448l-128-56.896v-384L608 1152v384z" fill="undefined"/></svg>