<svg width="1792" height="1792" xmlns="http://www.w3.org/2000/svg"><path d="M546.656 1312c29.888-68.64 11.456-112.288-3.552-133.312-22.784-31.904-64.288-49.408-100.736-42.4C379.008 1148.384 352 1191.328 352 1280v74.048l-37.056-37.056c-6.24-6.24-16.384-6.24-22.624 0s-6.24 16.384 0 22.624l64.384 64.352c3.232 3.232 7.488 4.704 11.712 4.608 4.224.096 8.48-1.376 11.712-4.608l64.704-64.672c6.24-6.24 6.24-16.384 0-22.624s-16.384-6.24-22.624 0L384 1354.848V1280c0-92.288 31.776-106.048 64.32-112.288 20.896-3.84 51.136 4.928 68.704 29.568 21.504 30.048 17.376 74.624-11.616 125.44-3.072 5.408-2.752 12.096.832 17.152s9.888 7.616 15.872 6.528c3.872-.672 15.424-2.432 22.72-2.432 34.848 0 63.168 28.704 63.168 64.032 0 35.296-28.704 64-64 64l-317.664.192C189.152 1466.688 160 1431.456 160 1392c0-39.296 29.504-73.12 68.672-78.72l13.76-1.984c7.872-1.12 13.728-7.872 13.728-15.84l-.256-17.024c.096-57.312 35.424-104.416 84.096-112 8.704-1.376 14.688-9.536 13.344-18.272-1.376-8.736-9.344-14.656-18.304-13.344-64.32 10.016-111.04 70.4-111.136 143.552 0 .032.256 3.232.256 3.232-54.816 7.84-96.16 55.296-96.16 110.4 0 55.872 40.256 103.936 96 112h320c52.928 0 96-43.072 96-96 0-52.352-41.728-95.04-93.344-96z" fill="undefined"/></svg>