<svg width="64" height="64" viewBox="0 0 512 512" xmlns="http://www.w3.org/2000/svg"><path d="M96 480a32 32 0 1 0 64 0 32 32 0 1 0-64 0zm288 0a32 32 0 1 0 64 0 32 32 0 1 0-64 0zM-.928 80c0 8.832 7.168 16 16 16H48.32l19.872 84.992L96 320c0 1.152.544 2.144.672 3.264l-16.288 73.28a15.948 15.948 0 0 0 3.136 13.472C86.56 413.824 91.136 416 96 416h363.008c8.832 0 16-7.168 16-16s-7.168-16-16-16h-343.04l7.328-32.96c1.6.256 3.04.96 4.704.96h291.68c17.664 0 28.32-3.488 36.832-24l51.968-159.424C517.504 140 497.696 128 480 128H96c-2.496 0-4.672.864-7.008 1.408L76.576 76.352A15.99 15.99 0 0 0 60.992 64h-45.92c-8.864 0-16 7.168-16 16zm97.568 80H477.6l-51.072 156.768c-.608 1.376-1.12 2.368-1.504 3.04-1.056.096-2.72.192-5.344.192H128v-3.168l-.608-3.104L96.64 160z"/></svg>