<svg width="1792" height="1792" xmlns="http://www.w3.org/2000/svg"><path d="M544.832 1311.968c-1.376 0-2.72 0-4.032.032a162.966 162.966 0 0 0 3.2-32c0-88.224-71.776-160-160-160-88.16 0-160 71.072-160.096 158.368 0 .032.256 3.232.256 3.232-54.816 7.84-96.16 55.296-96.16 110.4 0 55.872 40.256 103.936 96 112h80c8.832 0 16-7.168 16-16s-7.168-16-16-16l-77.664.16C189.152 1466.688 160 1431.456 160 1392c0-39.296 29.504-73.12 68.672-78.72l13.76-1.984c7.872-1.12 13.728-7.872 13.728-15.84l-.256-17.024C256 1208.704 313.44 1152 384 1152c70.592 0 128 57.408 128 128 0 8.672-.864 17.408-2.624 25.888l-4.224 20.352c-1.056 5.088.448 10.336 3.968 14.144 3.52 3.776 8.576 5.728 13.824 4.928.352-.032 10.368-1.344 21.888-1.344 34.848 0 63.168 28.704 63.168 64.032 0 35.296-28.704 64-64 64H432c-44.8 0-47.84-26.848-48-32v-106.176l37.856 37.824c6.24 6.24 16.384 6.24 22.624 0 6.24-6.24 6.24-16.384 0-22.624l-64.384-64.352c-3.136-3.136-7.264-4.672-11.392-4.672-.256 0-.448-.128-.704-.128-4.608 0-8.672 1.984-11.584 5.088l-64.448 64.384c-6.24 6.24-6.24 16.384 0 22.624 6.24 6.24 16.384 6.24 22.624 0L352 1334.592V1440c0 22.112 16.704 64 80 64h112c52.928 0 96-43.072 96-96s-42.688-96.032-95.168-96.032z" fill="undefined"/></svg>