<?xml version="1.0" encoding="utf-8"?>
<svg width="1792" height="1792" xmlns="http://www.w3.org/2000/svg"><path d="M608 1120H160c-17.664 0-32 14.336-32 32v320c0 17.664 14.336 32 32 32h448c17.664 0 32-14.336 32-32v-320c0-17.664-14.336-32-32-32zm0 352H160v-192h448v192zm-448-254.656V1152h448v65.344H160zM208 1440h160c8.832 0 16-7.168 16-16s-7.168-16-16-16H208c-8.832 0-16 7.168-16 16s7.168 16 16 16zm208-16a16 16 0 1 0 32 0 16 16 0 1 0-32 0zm64 0a16 16 0 1 0 32 0 16 16 0 1 0-32 0zm64 0a16 16 0 1 0 32 0 16 16 0 1 0-32 0z" fill="undefined"/></svg>