<?xml version="1.0" encoding="utf-8"?>
<svg width="1792" height="1792" xmlns="http://www.w3.org/2000/svg"><path d="M208.672 1568H511.232c17.664 0 32-14.336 32-32v-336c0-8.832-7.168-16-16-16H256c-.8 0-2.368.128-3.872.224l-43.456-.224c-26.848 0-48.672-20.512-48.672-47.328 0-26.848 21.152-48.672 48-48.672h368v368c0 8.832 6.4 16 15.264 16S608 1464.832 608 1456v-384c0-8.832-7.904-16-16.736-16H208.672c-44.16 0-79.904 35.488-80.544 79.488l-.128-.16v352c0 44.544 36.128 80.672 80.672 80.672z" fill="undefined"/></svg>