<?xml version="1.0" encoding="utf-8"?>
<svg width="1792" height="1792" xmlns="http://www.w3.org/2000/svg"><path d="M608 1280v-96c0-17.664-14.336-32-32-32h-9.536l-10.784-66.56a15.826 15.826 0 0 0-6.432-10.4 15.574 15.574 0 0 0-11.904-2.816l-347.904 56.448c-8.736 1.408-14.656 9.632-13.216 18.368l.8 4.96H160c-17.664 0-32 14.336-32 32v352c0 17.664 14.336 32 32 32h416c17.664 0 32-14.336 32-32v-96c17.664 0 32-14.336 32-32v-96c0-17.664-14.336-32-32-32zm-448-96h416v96H448c-17.664 0-32 14.336-32 32v96c0 17.664 14.336 32 32 32h128v96H160v-352zm85.376-32l281.28-45.664 7.392 45.664H245.376zM448 1408v-96h160v96H448zm32-48a16 16 0 1 0 32 0 16 16 0 1 0-32 0z" fill="undefined"/></svg>