<svg width="64" height="64" viewBox="0 0 512 512" xmlns="http://www.w3.org/2000/svg"><path d="M510.112 89.984C506.08 76.96 494.368 67.328 480 67.328h-32v49.664c0 26.464-21.536 48-48 48s-48-21.536-48-48V67.328H159.84v49.664c0 26.464-21.536 48-48 48s-48-21.536-48-48V67.328H32c-14.368 0-26.08 9.632-30.112 22.656H0V480c0 17.664 14.336 32 32 32h448c17.664 0 32-14.336 32-32V89.984h-1.888zM480 480H32V224h448v256zM111.84 132.992c8.832 0 16-7.168 16-16V16c0-8.832-7.168-16-16-16s-16 7.168-16 16v100.992c0 8.832 7.168 16 16 16zm288.16 0c8.832 0 16-7.168 16-16V16c0-8.832-7.168-16-16-16s-16 7.168-16 16v100.992c0 8.832 7.168 16 16 16z"/></svg>