<svg width="64" height="64" viewBox="0 0 512 512" xmlns="http://www.w3.org/2000/svg"><path d="M320 64h32v32h-32zm64 0h32v32h-32zm-64 64h32v32h-32zm64 0h32v32h-32zm-64 64h32v32h-32zm64 0h32v32h-32zm-64 64h32v32h-32zm64 0h32v32h-32zm-64 64h32v32h-32zm64 0h32v32h-32zM448 0H288c-17.664 0-32 14.336-32 32v96H96c-17.664 0-32 14.336-32 32v320c0 17.664 14.336 32 32 32h352c17.664 0 32-14.336 32-32V32c0-17.664-14.336-32-32-32zM192 480h-32v-64h32v64zm32 0v-96h-96v96H96V160h160v320h-32zm160 0h-32v-64h32v64zm64 0h-32v-96h-96v96h-32V32h160v448zM128 192h32v32h-32zm64 0h32v32h-32zm-64 64h32v32h-32zm64 0h32v32h-32zm-64 64h32v32h-32zm64 0h32v32h-32z"/></svg>