<svg width="1792" height="1792" xmlns="http://www.w3.org/2000/svg"><path d="M143.648 1331.168l55.52-2.048c6.56 8.512 14.144 16.256 22.592 23.168l-3.648 55.584c6.08 3.456 12.352 6.656 18.944 9.504 6.56 2.848 13.216 5.184 19.904 7.264l37.92-40.8c10.848 1.376 21.664 1.568 32.32.512l36.64 41.792a190.569 190.569 0 0 0 39.328-15.648l-2.016-55.552c8.48-6.56 16.224-14.144 23.136-22.592l55.584 3.648c3.456-6.08 6.656-12.352 9.504-18.944 2.848-6.56 5.184-13.216 7.264-19.904l-40.8-37.92c1.376-10.848 1.568-21.664.512-32.32l41.792-36.64a190.569 190.569 0 0 0-15.648-39.328l-55.552 2.016c-6.56-8.48-14.144-16.224-22.592-23.136L408 1074.24c-6.08-3.456-12.352-6.656-18.944-9.504-6.56-2.816-13.216-5.184-19.904-7.232l-37.888 40.8c-10.848-1.376-21.664-1.568-32.32-.512L262.272 1056a190.569 190.569 0 0 0-39.328 15.648l2.016 55.52c-8.48 6.56-16.224 14.112-23.136 22.56l-55.584-3.616c-3.456 6.08-6.656 12.352-9.504 18.944-2.816 6.56-5.184 13.216-7.232 19.904l40.8 37.92c-1.376 10.848-1.568 21.664-.512 32.32L128 1291.84a191.284 191.284 0 0 0 15.648 39.328zm207.424-178.272c48.672 20.992 71.136 77.472 50.144 126.176s-77.472 71.136-126.176 50.144-71.136-77.472-50.144-126.176 77.472-71.136 126.176-50.144zm-86.016 88.16a48 48 0 1 0 96 0 48 48 0 1 0-96 0zm343.616 191.712l-13.248-4.704 6.048-12.736 13.92-29.28a112.766 112.766 0 0 0-17.472-17.472l-29.28 13.92-12.736 6.048-4.704-13.248-10.88-30.624c-4.032-.416-8.16-.672-12.32-.672s-8.288.256-12.352.704l-10.88 30.624-4.704 13.248-12.736-6.048-29.28-13.92a112.766 112.766 0 0 0-17.472 17.472l13.92 29.28 6.048 12.736-13.248 4.704-30.624 10.88c-.416 4.032-.672 8.16-.672 12.32s.256 8.288.704 12.32l30.624 10.88 13.248 4.704-6.048 12.736-13.92 29.28a112.766 112.766 0 0 0 17.472 17.472l29.28-13.92 12.736-6.048 4.704 13.248 10.88 30.624c4.032.448 8.16.704 12.32.704s8.288-.256 12.352-.704l10.88-30.624 4.704-13.248 12.736 6.048 29.28 13.92a112.766 112.766 0 0 0 17.472-17.472l-13.92-29.28-6.048-12.736 13.248-4.704 30.624-10.88c.416-4.032.672-8.16.672-12.32s-.256-8.288-.704-12.352l-30.624-10.88zM528 1480c-13.248 0-24-10.752-24-24s10.752-24 24-24 24 10.752 24 24-10.752 24-24 24z" fill="undefined"/></svg>