<svg width="1792" height="1792" xmlns="http://www.w3.org/2000/svg"><path d="M192 1152v256l4.736 11.84L256 1568l64-160-.16-.064c.096-.096.064-.256.16-.352V1120c0-35.36-28.64-64-64-64s-64 28.64-64 64v32zm32-32c0-17.632 14.368-32 32-32s32 14.368 32 32v32h-64v-32zm32 361.824l-16.48-41.184-6.4-16-.48-1.184 23.36-11.68 23.36 11.68-.48 1.216-6.4 16-16.48 41.152zM288 1392l-32-16-32 16v-208h64v208zm242.944-240.672L500.288 1072l-.288.096c-2.24-9.152-10.144-16.096-20-16.096-10.592 0-18.944 7.936-20.416 18.112l-.576-.128-29.952 77.344L416 1184v320c0 35.36 28.64 64 64 64s64-28.64 64-64c17.664 0 32-14.336 32-32v-96c0-17.664-14.336-32-32-32v-160l-13.056-32.672zM512 1376v128c0 17.632-14.368 32-32 32s-32-14.368-32-32v-320h64v192zm-15.264-224h-33.472L480 1110.176 496.736 1152z" fill="undefined"/></svg>