<svg width="64" height="64" viewBox="0 0 512 512" xmlns="http://www.w3.org/2000/svg"><path d="M434.816 258.496c2.272-6.08 4.16-12.352 5.792-18.656.288-1.088.64-2.112.896-3.2 1.44-5.92 2.464-11.968 3.328-18.048.192-1.408.544-2.816.704-4.224.864-7.392 1.344-14.848 1.344-22.368 0-105.856-86.144-192-192-192s-192 86.144-192 192c0 7.52.48 14.976 1.376 22.336.16 1.44.48 2.816.672 4.224.864 6.08 1.888 12.128 3.328 18.048.256 1.088.608 2.144.896 3.2 1.632 6.304 3.52 12.576 5.792 18.656.224.576.48 1.152.672 1.728 2.528 6.56 5.344 12.992 8.576 19.232.128.256.256.48.384.704a192.684 192.684 0 0 0 11.168 18.816c.128.192.256.352.352.544 4 5.92 8.352 11.584 12.992 17.056.384.448.736.864 1.12 1.312 4.224 4.896 8.8 9.536 13.536 14.016 1.056.992 2.048 1.984 3.136 2.944 1.408 1.248 2.656 2.656 4.128 3.872.864.736 1.92 1.216 2.88 1.824 3.168 2.624 6.176 5.376 9.536 7.808 1.344.96 2.176 1.888 3.328 2.848C168.832 369.504 158.048 384 182.624 384h144.512c24.544 0 13.792-14.496 35.904-32.832 1.152-.96 1.984-1.856 3.328-2.848 3.36-2.432 6.368-5.184 9.536-7.808.928-.64 1.984-1.088 2.88-1.824 1.44-1.216 2.72-2.624 4.128-3.872 1.056-.96 2.08-1.984 3.136-2.944 4.736-4.48 9.28-9.12 13.536-14.016.384-.448.736-.864 1.12-1.312 4.64-5.472 8.992-11.136 12.992-17.056.128-.192.256-.352.352-.544a194.534 194.534 0 0 0 11.136-18.784c.128-.224.256-.48.384-.704 3.232-6.24 6.048-12.672 8.576-19.232.192-.608.448-1.152.672-1.728zM368 193.504c-8.832 0-16-7.168-16-16C352 128.736 308 96 272 96c-8.832 0-16-7.168-16-16s7.168-16 16-16c55.008 0 112 40.512 112 113.504 0 8.832-7.168 16-16 16zM252.928 480h-70.304l57.696 29.504a32.023 32.023 0 0 0 14.56 3.52c4.928 0 9.888-1.152 14.432-3.424L327.84 480h-74.912zM352 432c0-8.832-7.168-16-16-16H176c-8.832 0-16 7.168-16 16s7.168 16 16 16h160c8.832 0 16-7.168 16-16z"/></svg>