<svg width="64" height="64" viewBox="0 0 512 512" xmlns="http://www.w3.org/2000/svg"><path d="M416 256c-1.12 0-2.176.288-3.264.32A160.466 160.466 0 0 0 416 224c0-88.352-71.648-160-160-160S96 135.648 96 224c0 .544.16 1.056.16 1.6C41.888 233.344 0 279.584 0 336c0 56.384 41.792 102.56 96 110.4v1.6h320c53.024 0 96-42.976 96-96s-42.976-96-96-96zm0 160H106.048a30.957 30.957 0 0 0-5.472-1.28C61.472 409.088 32 375.232 32 336c0-39.296 29.536-73.12 68.672-78.72 15.904-2.272 27.648-15.968 27.488-32 0-.96-.064-1.92-.16-2.848C128.864 152.544 185.952 96 256 96c70.592 0 128 57.408 128 128 0 8.704-.896 17.408-2.624 25.888-1.984 9.6.576 19.584 6.912 27.072 6.08 7.2 15.04 11.328 24.448 11.328.384 0 .736 0 1.12-.032.704.032 2.208-.096 3.456-.256C452 288.704 480 317.152 480 352c0 35.296-28.704 64-64 64z"/></svg>