<?xml version="1.0" encoding="utf-8"?>
<svg width="1792" height="1792" xmlns="http://www.w3.org/2000/svg"><path d="M608 1152H448v32c17.664 0 32 14.336 32 32s-14.336 32-32 32H320c-17.664 0-32-14.336-32-32s14.336-32 32-32v-32H160c-17.664 0-32 14.336-32 32v352c0 17.664 14.336 32 32 32h448c17.664 0 32-14.336 32-32v-352c0-17.664-14.336-32-32-32zm-240 160h194.656c8.832 0 16 7.168 16 16s-7.168 16-16 16H368c-8.832 0-16-7.168-16-16s7.168-16 16-16zm0 64h194.656c8.832 0 16 7.168 16 16s-7.168 16-16 16H368c-8.832 0-16-7.168-16-16s7.168-16 16-16zm0 64h194.656c8.832 0 16 7.168 16 16s-7.168 16-16 16H368c-8.832 0-16-7.168-16-16s7.168-16 16-16zm-48 17.568c0 46.848-126.496 46.848-126.496 0s28.32-84.8 63.232-84.8c34.944 0 63.264 37.952 63.264 84.8zm-25.408-138.912c0 21.344-17.312 38.656-38.656 38.656-21.344 0-38.656-17.312-38.656-38.656.032-21.344 17.312-38.656 38.656-38.656 21.376 0 38.656 17.312 38.656 38.656zM352 1088h64v128h-64z" fill="undefined"/></svg>