<?xml version="1.0" encoding="utf-8"?>
<svg width="1792" height="1792" xmlns="http://www.w3.org/2000/svg"><path d="M304 1312h256c8.832 0 16-7.168 16-16s-7.168-16-16-16H304c-8.832 0-16 7.168-16 16s7.168 16 16 16zm0-128h256c8.832 0 16-7.168 16-16s-7.168-16-16-16H304c-8.832 0-16 7.168-16 16s7.168 16 16 16zm0 256h256c8.832 0 16-7.168 16-16s-7.168-16-16-16H304c-8.832 0-16 7.168-16 16s7.168 16 16 16zm-112-272a16 16 0 1 0 32 0 16 16 0 1 0-32 0zm0 128a16 16 0 1 0 32 0 16 16 0 1 0-32 0zm0 128a16 16 0 1 0 32 0 16 16 0 1 0-32 0z" fill="undefined"/></svg>