<svg width="1792" height="1792" xmlns="http://www.w3.org/2000/svg"><path d="M153.984 1340.512l38.016-30.4V1536c0 17.664 14.336 32 32 32h96c17.664 0 32-14.336 32-32v-128h64v128c0 17.664 14.336 32 32 32h96c17.664 0 32-14.336 32-32v-225.888l38.016 30.4A16.01 16.01 0 0 0 624 1344c4.704 0 9.344-2.048 12.512-6.016 5.504-6.912 4.384-16.96-2.496-22.496l-240-192a16.021 16.021 0 0 0-20 0l-86.016 68.8V1152c0-17.664-14.336-32-32-32s-32 14.336-32 32v91.488l-89.984 72c-6.88 5.536-8 15.584-2.496 22.496 5.504 6.912 15.552 8.032 22.464 2.528zM384 1156.48l160 128V1536h-96v-160H320v160h-96v-251.488l160-128.032z" fill="undefined"/></svg>