<svg width="1792" height="1792" xmlns="http://www.w3.org/2000/svg"><path d="M400 1088c-132.544 0-240 107.456-240 240s107.456 240 240 240 240-107.456 240-240-107.456-240-240-240zm27.424 224c46.624 0 84.576 35.872 84.576 80s-37.952 80-84.576 80H416v16c0 8.832-7.168 16-16 16s-16-7.168-16-16v-16h-11.424c-46.624 0-84.576-35.872-84.576-80 0-8.832 7.168-16 16-16s16 7.168 16 16c0 26.464 23.584 48 52.576 48H384v-96h-11.424c-46.624 0-84.576-35.872-84.576-80s37.952-80 84.576-80H384v-16c0-8.832 7.168-16 16-16s16 7.168 16 16v16h11.424c46.624 0 84.576 35.872 84.576 80 0 8.832-7.168 16-16 16s-16-7.168-16-16c0-26.464-23.584-48-52.576-48H416v96h11.424zM320 1264c0 26.464 23.584 48 52.576 48H384v-96h-11.424c-28.992 0-52.576 21.536-52.576 48zm107.424 176c28.992 0 52.576-21.536 52.576-48s-23.584-48-52.576-48H416v96h11.424z" fill="undefined"/></svg>