<svg width="64" height="64" viewBox="0 0 512 512" xmlns="http://www.w3.org/2000/svg"><path d="M480 96H320v32c17.664 0 32 14.336 32 32s-14.336 32-32 32H192c-17.664 0-32-14.336-32-32s14.336-32 32-32V96H32c-17.664 0-32 14.336-32 32v352c0 17.664 14.336 32 32 32h448c17.664 0 32-14.336 32-32V128c0-17.664-14.336-32-32-32zM240 256h194.656c8.832 0 16 7.168 16 16s-7.168 16-16 16H240c-8.832 0-16-7.168-16-16s7.168-16 16-16zm0 64h194.656c8.832 0 16 7.168 16 16s-7.168 16-16 16H240c-8.832 0-16-7.168-16-16s7.168-16 16-16zm0 64h194.656c8.832 0 16 7.168 16 16s-7.168 16-16 16H240c-8.832 0-16-7.168-16-16s7.168-16 16-16zm-48 17.568c0 46.848-126.496 46.848-126.496 0s28.32-84.8 63.232-84.8c34.944 0 63.264 37.952 63.264 84.8zm-25.408-138.912c0 21.344-17.312 38.656-38.656 38.656-21.344 0-38.656-17.312-38.656-38.656.032-21.344 17.312-38.656 38.656-38.656 21.376 0 38.656 17.312 38.656 38.656zM224 32h64v128h-64z"/></svg>