<?xml version="1.0" encoding="utf-8"?>
<svg width="1792" height="1792" xmlns="http://www.w3.org/2000/svg"><path d="M192 1504h32v32c0 17.664 14.336 32 32 32h320c17.664 0 32-14.336 32-32v-384c0-17.664-14.336-32-32-32h-32v-32c0-17.664-14.336-32-32-32H192c-17.664 0-32 14.336-32 32v384c0 17.664 14.336 32 32 32zm320-32H192v-384h320v384zm64-320v384H256v-32h256c17.664 0 32-14.336 32-32v-320h32zm-288 16c0 8.832 7.168 16 16 16h160c8.832 0 16-7.168 16-16s-7.168-16-16-16H304c-8.832 0-16 7.168-16 16zm-48 112h224c8.832 0 16-7.168 16-16s-7.168-16-16-16H240c-8.832 0-16 7.168-16 16s7.168 16 16 16zm0 64h224c8.832 0 16-7.168 16-16s-7.168-16-16-16H240c-8.832 0-16 7.168-16 16s7.168 16 16 16zm0 64h224c8.832 0 16-7.168 16-16s-7.168-16-16-16H240c-8.832 0-16 7.168-16 16s7.168 16 16 16z" fill="undefined"/></svg>