<svg width="1792" height="1792" xmlns="http://www.w3.org/2000/svg"><path d="M574.56 1244.64c2.816 12.672 4.448 25.696 4.448 39.072 0 103.296-87.68 189.408-203.136 207.904 24.416 9.856 51.776 15.616 80.928 15.616 27.488 0 53.44-5.056 76.864-13.856 29.664 10.112 62.048 12.736 88.832 12.736-13.92-16.704-23.584-33.088-30.496-47.488 29.696-26.496 48-61.6 48-100.256 0-45.696-25.504-86.432-65.44-113.728zm-423.008 218.048c2.784 5.28 8.256 8.576 14.176 8.576.256 0 .544 0 .768-.032 16.928-.8 50.592-12.032 86.24-34.656 19.072 3.36 61.792 9.696 76.704 9.696 112.544 0 200.672-78.368 200.672-178.432 0-98.4-89.984-178.432-200.672-178.432s-200.608 80-200.608 178.4c0 45.792 20.16 90.048 55.648 123.168-7.968 19.392-18.528 37.728-31.424 54.528-3.808 4.928-4.384 11.648-1.504 17.184zm9.28-194.88c0-80.736 75.648-146.432 168.672-146.432s168.672 65.696 168.672 146.432c0 83.456-72.512 146.432-168.672 146.432-12.64 0-62.944-7.328-76.768-10.24-4.224-.832-8.608-.064-12.128 2.336-13.728 9.088-26.656 15.968-37.92 21.024a271.144 271.144 0 0 0 15.808-35.68c2.272-6.368.32-13.472-4.864-17.76-34.048-28-52.8-65.696-52.8-106.112z" fill="undefined"/></svg>