<svg width="64" height="64" viewBox="0 0 512 512" xmlns="http://www.w3.org/2000/svg"><path d="M464.928 0h-.864c-.256 0-.48-.032-.736 0H294.144c-4.896.256-16.032 7.904-17.472 9.344L72.992 212.992c-12.48 12.48-12.48 32.704 0 45.184L98.4 283.584l-25.408 25.408c-12.48 12.48-12.48 32.704 0 45.184l148.672 148.672c6.24 6.24 14.4 9.344 22.592 9.344s16.352-3.104 22.592-9.344l203.648-203.68c1.472-1.44 9.504-11.296 9.504-17.44V15.904C480.448 6.976 473.696 0 464.928 0zM432 31.872c8.832 0 16 7.168 16 16s-7.168 16-16 16-16-7.168-16-16 7.168-16 16-16zm15.904 244.704L244.32 480.256 95.648 331.648l25.408-25.408 100.64 100.64c6.24 6.24 14.4 9.344 22.592 9.344s16.352-3.104 22.592-9.344L448 225.728v50.592c-.096.16-.16.256-.096.256-.032 0-.032 0 0 0z"/></svg>