<svg width="1792" height="1792" xmlns="http://www.w3.org/2000/svg"><path d="M639.744 1277.344c-1.344-78.528-65.056-148.512-143.744-148.512-45.504 0-85.6 23.808-112 58.752-26.4-34.944-66.496-58.752-112-58.752-78.688 0-142.4 69.984-143.744 148.512H128c0 .48.096.928.096 1.408 0 .352-.096.704-.096 1.088 0 2.208.544 3.872.64 5.984C135.68 1485.952 381.984 1568 381.984 1568s249.92-81.952 257.312-281.856c.128-2.24.704-4 .704-6.304 0-.384-.096-.736-.096-1.088 0-.512.096-.928.096-1.408h-.256zm-32.416 7.616c-5.664 153.6-181.056 231.68-225.28 248.928-43.84-17.28-216.032-95.008-221.44-249.536-.064-1.6-.224-3.072-.448-4.672.032-.576.064-1.184.096-1.792 1.088-63.456 52.256-117.056 111.744-117.056 32.832 0 64.352 16.768 86.464 46.048 6.048 8 15.488 12.704 25.536 12.704s19.488-4.704 25.536-12.704c22.112-29.28 53.632-46.048 86.464-46.048 59.488 0 110.656 53.6 111.744 117.056 0 .608.032 1.216.096 1.824a54.057 54.057 0 0 0-.512 5.248z" fill="undefined"/></svg>