<svg width="64" height="64" viewBox="0 0 512 512" xmlns="http://www.w3.org/2000/svg"><path d="M160 128V80c0-8.832-7.168-16-16-16s-16 7.168-16 16v48c-17.664 0-32 14.336-32 32v32c0 17.664 14.336 32 32 32v208c0 8.832 7.168 16 16 16s16-7.168 16-16V224c17.664 0 32-14.336 32-32v-32c0-17.664-14.336-32-32-32zm-32 32h32v32h-32v-32zm160 128V80c0-8.832-7.168-16-16-16s-16 7.168-16 16v208c-17.664 0-32 14.336-32 32v32c0 17.664 14.336 32 32 32v48c0 8.832 7.168 16 16 16s16-7.168 16-16v-48c17.664 0 32-14.336 32-32v-32c0-17.664-14.336-32-32-32zm-32 32h32v32h-32v-32zm160-128V80c0-8.832-7.168-16-16-16s-16 7.168-16 16v112c-17.664 0-32 14.336-32 32v32c0 17.664 14.336 32 32 32v144c0 8.832 7.168 16 16 16s16-7.168 16-16V288c17.664 0 32-14.336 32-32v-32c0-17.664-14.336-32-32-32zm-32 32h32v32h-32v-32z"/></svg>