<?xml version="1.0" encoding="utf-8"?>
<svg width="1792" height="1792" xmlns="http://www.w3.org/2000/svg"><path d="M560.32 1421.12a2.912 2.912 0 1 0 5.824 0 2.912 2.912 0 1 0-5.824 0zm-64.288 66.336a5.792 5.792 0 1 0 11.584 0 5.792 5.792 0 1 0-11.584 0zm-86.656 34.144a8.704 8.704 0 1 0 17.408 0 8.704 8.704 0 1 0-17.408 0zm-93.28-4.576a11.584 11.584 0 1 0 23.168 0 11.584 11.584 0 1 0-23.168 0zm-82.752-42.464a14.496 14.496 0 1 0 28.992 0 14.496 14.496 0 1 0-28.992 0zm-57.312-72.192a17.408 17.408 0 1 0 34.816 0 17.408 17.408 0 1 0-34.816 0zm-21.504-88.64a20.288 20.288 0 1 0 40.576 0 20.288 20.288 0 1 0-40.576 0zm17.696-88.064a23.2 23.2 0 1 0 46.4 0 23.2 23.2 0 1 0-46.4 0zm53.088-71.008a26.112 26.112 0 1 0 52.224 0 26.112 26.112 0 1 0-52.224 0zm77.952-40.672a28.992 28.992 0 1 0 57.984 0 28.992 28.992 0 1 0-57.984 0zm87.552-2.528a31.904 31.904 0 1 0 63.808 0 31.904 31.904 0 1 0-63.808 0zm80.16 36.064a34.784 34.784 0 1 0 69.568 0 34.784 34.784 0 1 0-69.568 0zm56.96 67.744a37.696 37.696 0 1 0 75.392 0 37.696 37.696 0 1 0-75.392 0zm22.656 87.744a40.608 40.608 0 1 0 81.216 0 40.608 40.608 0 1 0-81.216 0z" fill="undefined"/></svg>