<svg width="64" height="64" viewBox="0 0 512 512" xmlns="http://www.w3.org/2000/svg"><path d="M160 175.008a16.992 16.992 0 1 0 33.984 0 16.992 16.992 0 1 0-33.984 0zM256 0C114.624 0 0 114.624 0 256s114.624 256 256 256 256-114.624 256-256S397.376 0 256 0zM128 175.008c0-27.072 21.952-48.992 48.992-48.992s48.992 21.952 48.992 48.992S204.064 224 176.992 224 128 202.048 128 175.008zm43.328 188.32a16.07 16.07 0 0 1-22.656 0c-6.24-6.24-6.24-16.384 0-22.624l192-192c6.24-6.24 16.384-6.24 22.624 0s6.24 16.384 0 22.624l-191.968 192zM335.008 384c-27.072 0-48.992-21.952-48.992-48.992s21.952-48.992 48.992-48.992S384 307.936 384 335.008 362.048 384 335.008 384zm-16.992-48.992a16.992 16.992 0 1 0 33.984 0 16.992 16.992 0 1 0-33.984 0z"/></svg>