<svg width="64" height="64" viewBox="0 0 512 512" xmlns="http://www.w3.org/2000/svg"><path d="M329.344.096c-5.824-.544-12.64.864-20.672 5.728 0 0-133.44 116.416-139.232 122.176H96c-17.664 0-32 14.336-32 32v196.064c0 17.664 14.336 32 32 32h73.44c5.792 5.76 139.232 118.08 139.232 118.08 8.032 4.864 14.848 6.272 20.672 5.728 11.84-1.12 20.16-11.04 22.688-21.504.16-1.024.16-467.744 0-468.736-2.528-10.496-10.88-20.416-22.688-21.536zm71.968 311.808c-7.904 4-11.072 13.6-7.104 21.504a16.013 16.013 0 0 0 14.272 8.8c2.432 0 4.864-.544 7.2-1.696 32.352-16.32 52.448-48.672 52.448-84.512s-20.096-68.192-52.448-84.512c-7.904-4-17.504-.8-21.472 7.104s-.8 17.504 7.104 21.504c21.472 10.816 34.816 32.224 34.816 55.904s-13.344 45.088-34.816 55.904z"/></svg>