<svg width="64" height="64" viewBox="0 0 512 512" xmlns="http://www.w3.org/2000/svg"><path d="M64 512h385.344c17.664 0 32-14.336 32-32V32c0-17.664-14.336-32-32-32H64C46.336 0 32 14.336 32 32v448c0 17.664 14.336 32 32 32zM240 96h129.344c8.832 0 16 7.168 16 16s-7.168 16-16 16H240c-8.832 0-16-7.168-16-16s7.168-16 16-16zm-96 96h225.344c8.832 0 16 7.168 16 16s-7.168 16-16 16H144c-8.832 0-16-7.168-16-16s7.168-16 16-16zm0 96h225.344c8.832 0 16 7.168 16 16s-7.168 16-16 16H144c-8.832 0-16-7.168-16-16s7.168-16 16-16zm0 96h225.344c8.832 0 16 7.168 16 16s-7.168 16-16 16H144c-8.832 0-16-7.168-16-16s7.168-16 16-16z"/></svg>