<svg width="64" height="64" viewBox="0 0 512 512" xmlns="http://www.w3.org/2000/svg"><path d="M480 160h-64s-18.496 0-32-32c-6.88-16.288-14.336-32-32-32H224c-17.664 0-25.344 15.616-32 32-12.992 32-32 32-32 32h-32c0-17.664-14.336-32-32-32H64c-17.664 0-32 14.336-32 32-17.664 0-32 14.336-32 32v256c0 17.664 14.336 32 32 32h448c17.664 0 32-14.336 32-32V192c0-17.664-14.336-32-32-32zm0 288H32V320h145.6c7.84 54.208 54.016 96 110.4 96 57.76 0 104.736-43.872 110.784-100H480v132zM208 304c0-44.128 35.904-80 80-80s80 35.872 80 80c0 44.096-35.904 80-80 80s-80-35.904-80-80zm190.4-16c-7.84-54.208-54.016-96-110.4-96s-102.56 41.792-110.4 96H32v-96h128c18.688 0 46.08-13.6 61.632-51.968 2.656-6.496 4.448-10.08 5.632-12.032h121.344c2.144 3.52 4.896 10.016 5.92 12.448C375.232 189.504 409.376 192 416 192h64v96h-81.6zM64 240.32a16 16 0 1 0 32 0 16 16 0 1 0-32 0z"/></svg>