<svg width="64" height="64" viewBox="0 0 512 512" xmlns="http://www.w3.org/2000/svg"><path d="M416 170.432V32h15.776C440.736 32 448 24.832 448 16s-7.264-16-16.224-16H112.224C103.264 0 96 7.168 96 16s7.264 16 16.224 16H128v138.432c0 9.12 3.904 17.824 10.72 23.904L207.904 256l-69.184 61.664A32.053 32.053 0 0 0 128 341.568V480h-15.776C103.264 480 96 487.168 96 496s7.264 16 16.224 16h319.584c8.928 0 16.192-7.168 16.192-16s-7.264-16-16.224-16H416V341.568c0-9.12-3.904-17.824-10.72-23.904L336.096 256l69.184-61.664A32.053 32.053 0 0 0 416 170.432zm-32 0L288 256l96 85.568V480H160V341.568L256 256l-96-85.568V32h224v138.432zm-32-46.336V96H192v28.096l80 71.296zM192 388.032V448h160v-59.968L311.584 352h-79.168z"/></svg>