<?xml version="1.0" encoding="utf-8"?>
<svg width="1792" height="1792" xmlns="http://www.w3.org/2000/svg"><path d="M384 1568c141.376 0 256-114.624 256-256s-114.624-256-256-256-256 114.624-256 256 114.624 256 256 256zm0-448c63.712 0 128 36.48 128 118.016 0 47.456-23.52 84.512-69.888 110.016C428.672 1355.424 416 1370.048 416 1376c0 17.664-14.336 32-32 32s-32-14.336-32-32c0-40.608 37.248-71.936 59.264-84.032 32.352-17.856 36.736-37.312 36.736-53.952 0-47.008-40.096-54.016-64-54.016-30.816 0-64 20.224-64 64.672 0 17.664-14.336 32-32 32s-32-14.336-32-32C256 1165.088 321.952 1120 384 1120zm0 385.408c-18.208 0-32.96-14.752-32.96-32.96s14.752-32.96 32.96-32.96 32.96 14.752 32.96 32.96-14.752 32.96-32.96 32.96z" fill="undefined"/></svg>