<?xml version="1.0" encoding="utf-8"?>
<svg width="1792" height="1792" xmlns="http://www.w3.org/2000/svg"><path d="M608 1056H192c-17.664 0-32 14.336-32 32s14.336 32 32 32v256c0 17.664 14.336 32 32 32h160v49.952l-90.752 82.208c-6.528 5.92-7.04 16.032-1.088 22.592 5.984 6.528 16.096 7.04 22.592 1.088L384 1501.12V1552c0 8.832 7.168 16 16 16s16-7.168 16-16v-50.88l69.248 62.72A15.951 15.951 0 0 0 496 1568c4.352 0 8.672-1.792 11.84-5.248 5.952-6.56 5.44-16.672-1.088-22.592L416 1457.952V1408h160c17.664 0 32-14.336 32-32v-256c17.664 0 32-14.336 32-32s-14.336-32-32-32zm-68.896 123.52l-112 108c-6.144 5.952-15.872 5.984-22.144.064l-49.44-47.008-71.52 74.528a16.048 16.048 0 0 1-11.52 4.896c-4 0-7.968-1.472-11.104-4.48-6.368-6.08-6.56-16.192-.448-22.624l82.528-86.016c6.112-6.24 16.224-6.496 22.56-.48l49.92 47.424 100.96-97.376c6.336-6.048 16.48-6.016 22.624.448 6.144 6.368 5.952 16.48-.416 22.624z" fill="undefined"/></svg>