<svg width="1792" height="1792" xmlns="http://www.w3.org/2000/svg"><path d="M608 1152H160c-17.664 0-32 14.336-32 32v288c0 17.664 14.336 32 32 32h448c17.664 0 32-14.336 32-32v-288c0-17.664-14.336-32-32-32zm-448 32h448v288H160v-288zm402.656 128H368c-8.832 0-16 7.168-16 16s7.168 16 16 16h194.656c8.832 0 16-7.168 16-16s-7.168-16-16-16zm0 64H368c-8.832 0-16 7.168-16 16s7.168 16 16 16h194.656c8.832 0 16-7.168 16-16s-7.168-16-16-16zm0-128H368c-8.832 0-16 7.168-16 16s7.168 16 16 16h194.656c8.832 0 16-7.168 16-16s-7.168-16-16-16zm-345.376 6.656a38.656 38.656 0 1 0 77.312 0 38.656 38.656 0 1 0-77.312 0zm39.488 54.112c-34.944 0-63.232 37.952-63.232 84.8s126.464 46.816 126.464 0-28.32-84.8-63.232-84.8z" fill="undefined"/></svg>