<svg width="1792" height="1792" xmlns="http://www.w3.org/2000/svg"><path d="M272.48 1320a16.01 16.01 0 0 0 12.64-6.176l70.464-90.72 48.256 56.672c3.072 3.552 6.528 5.12 12.256 5.632 4.64-.032 9.12-2.08 12.16-5.728l112-133.408c5.696-6.752 4.8-16.832-1.984-22.528-6.752-5.728-16.832-4.768-22.528 1.984l-99.84 118.912-48.704-57.28c-3.168-3.648-8.992-5.344-12.544-5.6-4.832.128-9.344 2.368-12.288 6.176l-82.528 106.24c-5.44 6.976-4.16 17.056 2.816 22.464 2.912 2.272 6.368 3.36 9.824 3.36zm351.168-264H176.352c-9.024 0-16.352 7.168-16.352 16s7.328 16 16.352 16H192v288c0 17.664 14.336 32 32 32h160v49.952l-90.752 82.208c-6.528 5.92-7.04 16.032-1.088 22.592 5.984 6.528 16.096 7.04 22.592 1.088L384 1501.12V1552c0 8.832 7.168 16 16 16s16-7.168 16-16v-50.88l69.248 62.72A15.951 15.951 0 0 0 496 1568c4.352 0 8.672-1.792 11.84-5.248 5.952-6.56 5.44-16.672-1.088-22.592L416 1457.952V1408h160c17.664 0 32-14.336 32-32v-288h15.648c9.024 0 16.352-7.168 16.352-16s-7.328-16-16.352-16zM576 1376H224v-288h352v288z" fill="undefined"/></svg>