<svg width="1792" height="1792" xmlns="http://www.w3.org/2000/svg"><path d="M384 1056c-141.376 0-256 114.624-256 256s114.624 256 256 256 256-114.624 256-256-114.624-256-256-256zm0 480c-123.52 0-224-100.48-224-224s100.48-224 224-224 224 100.48 224 224-100.48 224-224 224zm-30.016-304.992c0-27.072-21.952-48.992-48.992-48.992S256 1203.936 256 1231.008 277.952 1280 304.992 1280s48.992-21.952 48.992-48.992zm-65.984 0c0-9.376 7.616-16.992 16.992-16.992s16.992 7.616 16.992 16.992S314.368 1248 304.992 1248 288 1240.384 288 1231.008zm175.008 111.008c-27.072 0-48.992 21.952-48.992 48.992S435.936 1440 463.008 1440 512 1418.048 512 1391.008s-21.952-48.992-48.992-48.992zm0 65.984c-9.376 0-16.992-7.616-16.992-16.992s7.616-16.992 16.992-16.992S480 1381.632 480 1391.008 472.384 1408 463.008 1408zm28.32-203.328c-6.24-6.24-16.384-6.24-22.624 0l-192 192c-6.24 6.24-6.24 16.384 0 22.624 3.104 3.136 7.2 4.704 11.296 4.704s8.192-1.568 11.328-4.672l192-192c6.24-6.272 6.24-16.384 0-22.656z" fill="undefined"/></svg>