<svg width="64" height="64" viewBox="0 0 512 512" xmlns="http://www.w3.org/2000/svg"><path d="M320 224H192v160c0 32-64 78.336-64 96v16c0 8.832 7.168 16 16 16h224c8.832 0 16-7.168 16-16v-16c0-17.664-64-64-64-96V224zm50.656-191.456V32h-32v.544C337.76 32.384 336.96 32 336 32c-8.832 0-16 7.168-16 16v16h-32V48c0-7.904-5.824-14.144-13.344-15.456V32h-32v.544C241.76 32.384 240.96 32 240 32c-8.832 0-16 7.168-16 16v16h-32V48c0-7.904-5.824-14.144-13.344-15.456V32h-32v.544C145.76 32.384 144.96 32 144 32c-8.832 0-16 7.168-16 16v80c0 8.48 3.36 16.64 9.376 22.624l32 32A31.97 31.97 0 0 0 192 192h128c8.48 0 16.64-3.36 22.624-9.376l32-32C380.64 144.64 384 136.48 384 128V48c0-7.904-5.824-14.144-13.344-15.456z"/></svg>