<svg width="64" height="64" viewBox="0 0 512 512" xmlns="http://www.w3.org/2000/svg"><path d="M414.24 160.064c.896-13.376 1.44-24.224 1.728-30.72.352-8.704-2.848-17.184-8.864-23.488S392.704 96 384 96H32c-8.704 0-17.056 3.552-23.104 9.856S-.32 120.64.032 129.344c1.76 42.272 13.664 255.936 74.624 310.496A32.014 32.014 0 0 0 96 448h224a32.014 32.014 0 0 0 21.344-8.16c19.104-17.12 33.408-49.856 44.064-88.064 15.84-.064 26.784-.096 28.064-.096 54.432 0 98.56-39.68 98.56-95.84-.032-76.256-65.952-95.488-97.792-95.776zM320 416H96c-53.984-48.32-64-288-64-288h352s-10.016 239.68-64 288zm93.44-96.32l-10.08.032c-2.88 0-6.304.032-10.176.032 9.536-43.808 15.264-90.56 18.56-127.744h1.696c2.72 0 66.56.736 66.56 63.84 0 36.992-28 63.84-66.56 63.84z"/></svg>