<svg width="64" height="64" viewBox="0 0 512 512" xmlns="http://www.w3.org/2000/svg"><path d="M243.392 262.784c45.984 0 83.392-37.408 83.392-83.392 0-45.984-37.408-83.392-83.392-83.392S160 133.408 160 179.392c0 45.984 37.408 83.392 83.392 83.392zm0-134.784c28.32 0 51.392 23.04 51.392 51.392s-23.04 51.392-51.392 51.392S192 207.712 192 179.392 215.04 128 243.392 128zm-11.648 375.328c2.688 2.976 5.28 4.896 7.776 6.24.032.032.096.032.128.064 1.728.896 3.424 1.568 5.024 1.568s3.296-.672 5.024-1.568c.032-.032.096-.032.128-.064 2.496-1.344 5.088-3.264 7.776-6.24 0 0 148.736-161.76 163.68-301.92.896-7.232 1.504-14.56 1.504-22.016C422.784 80.32 342.464 0 243.392 0S64 80.32 64 179.392c0 7.584.608 14.976 1.536 22.304 15.328 140.096 166.208 301.632 166.208 301.632zM243.392 32c81.28 0 147.392 66.112 147.392 147.392 0 5.408-.384 11.168-1.312 18.624-11.456 107.392-112.288 233.408-144.768 271.744-33.312-38.4-135.584-164.096-147.424-272-.864-7.072-1.28-12.896-1.28-18.368C96 98.112 162.112 32 243.392 32z"/></svg>