<svg width="64" height="64" viewBox="0 0 512 512" xmlns="http://www.w3.org/2000/svg"><path d="M64 512h384c17.664 0 32-14.336 32-32V32c0-17.664-14.336-32-32-32H64C46.336 0 32 14.336 32 32v448c0 17.664 14.336 32 32 32zm0-480h384v448H64V32zm304 64H240c-8.832 0-16 7.168-16 16s7.168 16 16 16h128c8.832 0 16-7.168 16-16s-7.168-16-16-16zm0 96H144c-8.832 0-16 7.168-16 16s7.168 16 16 16h224c8.832 0 16-7.168 16-16s-7.168-16-16-16zm0 96H144c-8.832 0-16 7.168-16 16s7.168 16 16 16h224c8.832 0 16-7.168 16-16s-7.168-16-16-16zm0 96H144c-8.832 0-16 7.168-16 16s7.168 16 16 16h224c8.832 0 16-7.168 16-16s-7.168-16-16-16z"/></svg>