<?xml version="1.0" encoding="utf-8"?>
<svg width="1792" height="1792" xmlns="http://www.w3.org/2000/svg"><path d="M384 1056c-141.376 0-256 114.624-256 256s114.624 256 256 256 256-114.624 256-256-114.624-256-256-256zm0 480c-123.52 0-224-100.48-224-224s100.48-224 224-224 224 100.48 224 224-100.48 224-224 224zm0-384c-88.352 0-160 71.648-160 160s71.648 160 160 160 160-71.648 160-160-71.648-160-160-160zm0 256c-52.928 0-96-43.072-96-96s43.072-96 96-96 96 43.072 96 96-43.072 96-96 96zm-32-96a32 32 0 1 0 64 0 32 32 0 1 0-64 0z" fill="undefined"/></svg>