<svg width="64" height="64" viewBox="0 0 512 512" xmlns="http://www.w3.org/2000/svg"><path d="M510.144 207.136c-3.776-11.584-13.792-20.032-25.856-21.76l-137.92-20.032-61.664-124.992C279.296 29.408 268.192 22.496 256 22.496s-23.296 6.912-28.704 17.856l-61.664 124.96-137.92 20.032c-12.064 1.76-22.08 10.208-25.824 21.792a31.946 31.946 0 0 0 8.096 32.8l99.808 97.28L86.24 474.592a32.03 32.03 0 0 0 12.736 31.296c5.536 4.064 12.128 6.112 18.784 6.112a31.895 31.895 0 0 0 14.88-3.68L256 443.456l123.36 64.864a31.895 31.895 0 0 0 14.88 3.68c6.624 0 13.248-2.048 18.816-6.112a32.03 32.03 0 0 0 12.736-31.296L402.24 337.216l99.808-97.28a31.946 31.946 0 0 0 8.096-32.8zM367.84 326.048L394.24 480 256 407.328V54.496l69.12 140.064 154.56 22.464-111.84 109.024z"/></svg>