<?xml version="1.0" encoding="utf-8"?>
<svg width="1792" height="1792" xmlns="http://www.w3.org/2000/svg"><path d="M532.992 1088H232c-17.664 0-32 12-40 32l-64 223.488V1520c0 8.832 7.168 16 16 16h480c8.832 0 16-7.168 16-16v-174.528L576 1120c-8.992-20-25.312-32-43.008-32zm-310.752 42.656c1.472-3.296 5.216-10.656 9.76-10.656h300.992c4.384 0 9.44 4.512 12.992 11.392L606.304 1344H464c-8.832 0-16 7.168-16 16v48H320v-48c0-8.832-7.168-16-16-16H161.152l61.088-213.344zM608 1504H160v-128h128v48c0 8.832 7.168 16 16 16h160c8.832 0 16-7.168 16-16v-48h128v128z" fill="undefined"/></svg>