<svg width="64" height="64" viewBox="0 0 512 512" xmlns="http://www.w3.org/2000/svg"><path d="M511.744 221.344C510.4 142.816 446.688 72.832 368 72.832c-45.504 0-85.6 23.808-112 58.752-26.4-34.944-66.496-58.752-112-58.752-78.688 0-142.4 69.984-143.744 148.512H0c0 .48.096.928.096 1.408 0 .352-.096.704-.096 1.088 0 2.208.544 3.872.64 5.984C7.68 429.952 253.984 512 253.984 512s249.92-81.952 257.312-281.856c.128-2.24.704-4 .704-6.304 0-.384-.096-.736-.096-1.088 0-.512.096-.928.096-1.408h-.256z"/></svg>