<svg width="64" height="64" viewBox="0 0 512 512" xmlns="http://www.w3.org/2000/svg"><path d="M272 32C139.456 32 32 139.456 32 272s107.456 240 240 240 240-107.456 240-240S404.544 32 272 32zm0 448c-114.688 0-208-93.312-208-208S157.312 64 272 64s208 93.312 208 208-93.312 208-208 208zm27.424-320C328.416 160 352 181.536 352 208c0 8.832 7.168 16 16 16s16-7.168 16-16c0-44.128-37.952-80-84.576-80H288v-16c0-8.832-7.168-16-16-16s-16 7.168-16 16v16h-11.424C197.952 128 160 163.872 160 208s37.952 80 84.576 80H256v96h-11.424C215.584 384 192 362.464 192 336c0-8.832-7.168-16-16-16s-16 7.168-16 16c0 44.128 37.952 80 84.576 80H256v16c0 8.832 7.168 16 16 16s16-7.168 16-16v-16h11.424C346.048 416 384 380.128 384 336s-37.952-80-84.576-80H288v-96h11.424zm0 128C328.416 288 352 309.536 352 336s-23.584 48-52.576 48H288v-96h11.424zM256 256h-11.424C215.584 256 192 234.464 192 208s23.584-48 52.576-48H256v96z"/></svg>