<svg width="64" height="64" viewBox="0 0 512 512" xmlns="http://www.w3.org/2000/svg"><path d="M40.704 394.496c7.68 11.936 23.808 26.144 57.088 26.144 20.928 0 47.712-6.112 77.536-16.768C188.224 460.704 211.936 512 256 512c44.8 0 68.608-53.056 81.344-111.072 29.888 10.112 56.768 15.936 77.792 15.936 35.2 0 51.712-14.976 59.392-27.52 24.832-40.704-13.92-92.384-60.704-135.104 8.64-8.32 16.768-16.64 23.904-24.736 40.448-46.048 51.744-83.712 33.568-112-7.68-11.936-23.808-26.144-57.088-26.144-20.928 0-47.712 6.112-77.536 16.768C323.776 51.296 300.064 0 256 0c-44.8 0-68.608 53.056-81.344 111.072-29.888-10.144-56.768-15.936-77.792-15.936-35.2 0-51.744 14.976-59.392 27.52C12.64 163.36 51.392 215.04 98.176 257.76c-8.64 8.352-16.768 16.64-23.904 24.736-40.448 46.048-51.744 83.744-33.568 112zM256 480c-20.704 0-39.072-34.592-50.784-88 16.832-7.264 34.24-15.744 52.064-25.44a655.06 655.06 0 0 0 49.984 23.072C295.616 444.384 277.024 480 256 480zm-64-224c0-11.744.352-23.2.832-34.464 9.216-6.528 18.656-12.992 28.544-19.36 11.36-7.296 22.592-14.016 33.728-20.416 11.296 6.144 22.688 12.576 34.208 19.584 10.304 6.304 20.192 12.736 29.792 19.2.544 11.584.896 23.36.896 35.456 0 11.744-.352 23.2-.832 34.464-9.216 6.528-18.656 12.992-28.544 19.36-11.36 7.296-22.592 14.016-33.728 20.416-11.296-6.144-22.688-12.576-34.208-19.584-10.304-6.304-20.192-12.736-29.792-19.2-.544-11.584-.896-23.36-.896-35.456zm-31.84 12.032a665.109 665.109 0 0 1-13.728-10.72 641.509 641.509 0 0 1 13.664-11.232A757.832 757.832 0 0 0 160 256c0 2.336.064 6.752.16 12.032zm35.584-87.104a607.447 607.447 0 0 1 3.264-26.4c7.296 3.104 14.752 6.528 22.368 10.112-5.76 3.52-11.52 6.88-17.312 10.592-2.88 1.888-5.472 3.84-8.32 5.696zm92.736-17.088c8.256-4.16 16.32-8.032 24.224-11.584 1.344 9.056 2.496 18.496 3.488 28.192a667.839 667.839 0 0 0-10.176-6.4c-5.856-3.584-11.712-6.816-17.536-10.208zm63.36 80.128a665.109 665.109 0 0 1 13.728 10.72c-4.416 3.744-8.992 7.456-13.696 11.232.096-4.288.128-7.904.128-9.92 0-2.336-.064-6.752-.16-12.032zm-35.584 87.104c-.928 9.088-1.984 17.92-3.232 26.4-7.296-3.104-14.784-6.528-22.368-10.112 5.76-3.52 11.52-6.88 17.312-10.592 2.848-1.888 5.44-3.84 8.288-5.696zm-110.272 6.88c5.856 3.584 11.68 6.816 17.536 10.208-8.256 4.16-16.32 8.032-24.224 11.584-1.344-9.024-2.496-18.464-3.488-28.192 4.448 2.816 8.192 5.184 10.176 6.4zm241.216 34.72c-5.056 8.256-16.256 12.192-32.064 12.192-18.464 0-43.392-5.632-71.808-15.616 3.392-21.952 5.504-43.392 6.752-61.696 14.304-10.56 27.52-21.248 40.032-32 45.152 40.992 68.64 78.208 57.088 97.12zM414.208 123.36c14.656 0 25.184 3.68 30.176 11.456 12 18.656-10.656 56.448-54.88 98.528-13.76-11.2-27.328-21.44-39.552-30.112-1.312-18.88-3.488-40.896-7.104-63.392 28.384-10.528 53.184-16.48 71.36-16.48zM256 32c20.704 0 39.072 34.592 50.784 88-16.832 7.264-34.24 15.744-52.064 25.44-17.12-8.768-33.824-16.448-49.984-23.072C216.384 67.616 234.976 32 256 32zM64.8 139.328c5.056-8.256 16.256-12.192 32.064-12.192 18.464 0 43.392 5.632 71.808 15.616-3.424 21.952-5.504 43.36-6.752 61.696-14.304 10.56-27.52 21.248-40.032 32-45.152-40.992-68.64-78.208-57.088-97.12zm97.216 169.408c1.312 18.88 3.488 40.896 7.104 63.392-28.352 10.528-53.152 16.48-71.328 16.48-14.656 0-25.184-3.68-30.176-11.456-12-18.656 10.656-56.448 54.88-98.528 13.728 11.2 27.296 21.472 39.52 30.112z"/></svg>