<svg width="64" height="64" viewBox="0 0 512 512" xmlns="http://www.w3.org/2000/svg"><path d="M272 32C139.456 32 32 139.456 32 272s107.456 240 240 240 240-107.456 240-240S404.544 32 272 32zm0 448c-114.688 0-208-93.312-208-208S157.312 64 272 64s208 93.312 208 208-93.312 208-208 208zm88.576-319.2l-87.968 87.968-78.88-87.968c-6.24-6.24-16.384-6.24-22.624 0-6.24 6.24-6.24 16.384 0 22.624l78.912 87.968-89.184 89.184c-6.24 6.24-6.24 16.384 0 22.624 6.24 6.24 16.384 6.24 22.624 0l87.968-87.968 78.912 87.968c6.24 6.24 16.384 6.24 22.624 0s6.24-16.384 0-22.624l-78.944-87.968 89.184-89.184c6.24-6.24 6.24-16.384 0-22.624-6.24-6.24-16.384-6.24-22.624 0z"/></svg>