<svg width="64" height="64" viewBox="0 0 512 512" xmlns="http://www.w3.org/2000/svg"><path d="M481.888 346.208c-87.136 87.104-228.928 87.168-316.064 0-42.176-42.144-65.376-98.272-65.376-158.048S123.68 72.256 165.792 30.144c6.24-6.24 6.24-16.384 0-22.624s-16.384-6.24-22.624 0c-48.192 48.16-74.72 112.32-74.72 180.64s26.56 132.512 74.72 180.672c40.672 40.704 91.808 64.48 144.832 71.936V480h-48c-8.832 0-16 7.168-16 16s7.168 16 16 16h128c8.832 0 16-7.168 16-16s-7.168-16-16-16h-48v-36.608c1.28.032 2.56.192 3.84.192 65.408 0 130.848-24.896 180.672-74.72 6.24-6.24 6.24-16.384 0-22.624s-16.384-6.272-22.624-.032zM323.84 0C219.904 0 135.68 84.256 135.68 188.16s84.256 188.16 188.16 188.16S512 292.096 512 188.16 427.744 0 323.84 0zm0 344.32c-86.112 0-156.16-70.048-156.16-156.16S237.728 32 323.84 32 480 102.048 480 188.16s-70.048 156.16-156.16 156.16z"/></svg>