<?xml version="1.0" encoding="utf-8"?>
<svg width="1792" height="1792" xmlns="http://www.w3.org/2000/svg"><path d="M154.496 1340.096L384 1141.184l229.504 198.912A16.019 16.019 0 0 0 624 1344c4.48 0 8.928-1.888 12.096-5.504 5.792-6.688 5.056-16.768-1.6-22.592l-240-208a15.994 15.994 0 0 0-20.96 0L288 1182.016V1152c0-17.664-14.336-32-32-32s-32 14.336-32 32v85.472l-90.496 78.432c-6.656 5.792-7.392 15.904-1.6 22.592 5.824 6.656 15.904 7.392 22.592 1.6zM320 1408h128v160h96c17.664 0 32-14.336 32-32v-156.832a31.93 31.93 0 0 0-11.712-24.736l-160-131.168A31.941 31.941 0 0 0 384 1216c-7.2 0-14.4 2.432-20.288 7.264l-160 131.168c-7.424 6.048-11.712 15.136-11.712 24.736V1536c0 17.664 14.336 32 32 32h96v-160z" fill="undefined"/></svg>