<?xml version="1.0" encoding="utf-8"?>
<svg width="1792" height="1792" xmlns="http://www.w3.org/2000/svg"><path d="M544 1472H224v-320h236.032L480 1120H224c-17.664 0-32 14.336-32 32v320c0 17.664 14.336 32 32 32h320c17.664 0 32-14.336 32-32v-211.296L544 1312v160zm53.856-380.352a22.33 22.33 0 0 0-12.224-3.648c-7.296 0-14.464 3.584-18.752 10.144l-173.952 250.944-67.296-76.8c-9.12-8.416-23.264-7.872-31.68 1.216s-7.84 23.264 1.248 31.648l80.896 92.32c.512.832 1.312 1.472 1.952 2.24l2.048 2.336c.256.224.576.288.832.512.64.512 1.024 1.216 1.696 1.696 1.376.896 2.88 1.472 4.384 2.016.352.128.64.352.992.448 2.24.736 4.576 1.184 6.88 1.184.096 0 .192-.064.288-.064 6.08.032 12.128-2.208 16.576-7.008.832-.896 1.152-1.984 1.824-2.976l.096-.096 190.688-275.104c6.752-10.336 3.872-24.224-6.496-31.008z" fill="undefined"/></svg>