<?xml version="1.0" encoding="utf-8"?>
<svg width="1792" height="1792" xmlns="http://www.w3.org/2000/svg"><path d="M512 1568c17.664 0 32-14.336 32-32v-448c0-17.664-14.336-32-32-32H288c-17.664 0-32 14.336-32 32v448c0 17.664 14.336 32 32 32h224zm-128-49.984c0-9.952 8.064-17.984 17.984-17.984s17.984 8.064 17.984 17.984S411.936 1536 401.984 1536 384 1527.936 384 1518.016zM464 1088c8.832 0 16 7.168 16 16s-7.168 16-16 16h-32c-8.832 0-16-7.168-16-16s7.168-16 16-16h32zm-80 16c0 8.832-7.168 16-16 16s-16-7.168-16-16 7.168-16 16-16 16 7.168 16 16zm-96 48h224v320H288v-320z" fill="undefined"/></svg>