<svg width="1792" height="1792" xmlns="http://www.w3.org/2000/svg"><path d="M384 1568c141.376 0 256-114.624 256-256s-114.624-256-256-256-256 114.624-256 256 114.624 256 256 256zm0-480c123.52 0 224 100.48 224 224s-100.48 224-224 224-224-100.48-224-224 100.48-224 224-224zm-64 320c17.664 0 32-14.336 32-32v-128c0-17.664-14.336-32-32-32s-32 14.336-32 32v128c0 17.664 14.336 32 32 32zm128 0c17.664 0 32-14.336 32-32v-128c0-17.664-14.336-32-32-32s-32 14.336-32 32v128c0 17.664 14.336 32 32 32z" fill="undefined"/></svg>