<svg width="64" height="64" viewBox="0 0 512 512" xmlns="http://www.w3.org/2000/svg"><path d="M256 0C114.624 0 0 114.624 0 256s114.624 256 256 256 256-114.624 256-256S397.376 0 256 0zm0 480C132.48 480 32 379.52 32 256S132.48 32 256 32s224 100.48 224 224-100.48 224-224 224zm-30.016-304.992c0-27.072-21.952-48.992-48.992-48.992S128 147.936 128 175.008 149.952 224 176.992 224s48.992-21.952 48.992-48.992zm-65.984 0c0-9.376 7.616-16.992 16.992-16.992s16.992 7.616 16.992 16.992S186.368 192 176.992 192 160 184.384 160 175.008zm175.008 111.008c-27.072 0-48.992 21.952-48.992 48.992S307.936 384 335.008 384 384 362.048 384 335.008s-21.952-48.992-48.992-48.992zm0 65.984c-9.376 0-16.992-7.616-16.992-16.992s7.616-16.992 16.992-16.992S352 325.632 352 335.008 344.384 352 335.008 352zm28.32-203.328c-6.24-6.24-16.384-6.24-22.624 0l-192 192c-6.24 6.24-6.24 16.384 0 22.624 3.104 3.136 7.2 4.704 11.296 4.704s8.192-1.568 11.328-4.672l192-192c6.24-6.272 6.24-16.384 0-22.656z"/></svg>