<svg width="64" height="64" viewBox="0 0 512 512" xmlns="http://www.w3.org/2000/svg"><path d="M273.056 34.144c-61.152 0-122.304 23.328-168.96 69.984-93.312 93.312-93.312 244.608 0 337.888C150.784 488.672 211.904 512 273.056 512s122.304-23.328 168.96-69.984c93.312-93.312 93.312-244.608 0-337.888-46.656-46.656-107.808-69.984-168.96-69.984zm146.336 385.248C380.32 458.464 328.352 480 273.056 480c-55.264 0-107.232-21.536-146.336-60.608-39.072-39.072-60.608-91.04-60.608-146.336S87.648 165.824 126.72 126.72c39.072-39.072 91.04-60.608 146.336-60.608 55.264 0 107.232 21.536 146.336 60.608S480 217.792 480 273.056s-21.536 107.264-60.608 146.336zM368 256h-80V143.776c0-8.832-7.168-16-16-16s-16 7.168-16 16V272c0 8.832 7.168 16 16 16h96c8.832 0 16-7.168 16-16s-7.168-16-16-16z"/></svg>