<svg width="64" height="64" viewBox="0 0 512 512" xmlns="http://www.w3.org/2000/svg"><path d="M416 192H125.536v-29.536C125.536 108.16 169.696 64 224 64c35.776 0 66.912 19.328 84.128 47.968.16-.192.448-.288.64-.48 5.792 8.256 14.912 14.016 25.76 14.016 17.664 0 32-14.336 32-32 0-4.32-.896-8.448-2.464-12.224-.128-.224-.224-.48-.352-.704-1.408-3.2-3.424-6.016-5.76-8.544C328.832 28.8 280.064 0 224 0 134.272 0 61.536 72.736 61.536 162.464V192H32c-17.664 0-32 14.336-32 32v256c0 17.664 14.336 32 32 32h384c17.664 0 32-14.336 32-32V224c0-17.664-14.336-32-32-32zM224 416c-35.36 0-64-28.64-64-64s28.64-64 64-64 64 28.64 64 64-28.64 64-64 64z"/></svg>