<?xml version="1.0" encoding="utf-8"?>
<svg width="1792" height="1792" xmlns="http://www.w3.org/2000/svg"><path d="M400 1088c-132.544 0-240 107.456-240 240s107.456 240 240 240 240-107.456 240-240-107.456-240-240-240zm128 352H272c-8.832 0-16-7.168-16-16s7.168-16 16-16h256c8.832 0 16 7.168 16 16s-7.168 16-16 16zm0-96H272c-8.832 0-16-7.168-16-16s7.168-16 16-16h256c8.832 0 16 7.168 16 16s-7.168 16-16 16zm0-96H272c-8.832 0-16-7.168-16-16s7.168-16 16-16h256c8.832 0 16 7.168 16 16s-7.168 16-16 16z" fill="undefined"/></svg>