<?xml version="1.0" encoding="utf-8"?>
<svg width="1792" height="1792" xmlns="http://www.w3.org/2000/svg"><path d="M560 1280H304c-8.832 0-16 7.168-16 16s7.168 16 16 16h256c8.832 0 16-7.168 16-16s-7.168-16-16-16zm0-128H304c-8.832 0-16 7.168-16 16s7.168 16 16 16h256c8.832 0 16-7.168 16-16s-7.168-16-16-16zm0 256H304c-8.832 0-16 7.168-16 16s7.168 16 16 16h256c8.832 0 16-7.168 16-16s-7.168-16-16-16zm-320.64-200.544v-78.912h-9.12l-17.248 9.216 2.08 8.128 13.728-7.392h.224v68.96zm-25.376 113.312l-8.352 8.128v6.56H256v-8.864h-35.456v-.224l6.304-5.824c16.64-16.032 27.2-27.808 27.2-42.368 0-11.296-7.168-22.944-24.16-22.944-9.12 0-16.864 3.392-22.336 8.032l3.392 7.52c3.648-3.04 9.6-6.688 16.768-6.688 11.776 0 15.648 7.392 15.648 15.424-.096 11.872-9.216 22.08-29.376 41.248zm13.12 134.08c-7.392 0-14.432-3.04-17.472-4.96l-2.912 8.256c3.872 2.56 11.648 5.344 20.512 5.344 18.944 0 28.768-11.04 28.768-23.68 0-11.04-7.904-18.336-17.6-20.288v-.224c9.728-3.52 14.56-10.432 14.56-18.592 0-9.6-7.04-18.816-22.592-18.816-8.512 0-16.512 3.04-20.64 6.08l2.784 7.776c3.392-2.432 9.472-5.216 15.776-5.216 9.824 0 13.856 5.6 13.856 11.904 0 9.344-9.824 13.344-17.6 13.344h-5.952v8h5.952c10.336 0 20.288 4.736 20.384 15.776.16 6.56-4.096 15.296-17.824 15.296z" fill="undefined"/></svg>