<svg width="1792" height="1792" xmlns="http://www.w3.org/2000/svg"><path d="M638.144 1263.136c-3.776-11.584-13.792-20.032-25.856-21.76l-137.92-20.032-61.664-124.992c-5.408-10.944-16.512-17.856-28.704-17.856s-23.296 6.912-28.704 17.856l-61.664 124.96-137.92 20.032c-12.064 1.76-22.08 10.208-25.824 21.792a31.946 31.946 0 0 0 8.096 32.8l99.808 97.28-23.552 137.376a32.03 32.03 0 0 0 12.736 31.296c5.536 4.064 12.128 6.112 18.784 6.112a31.895 31.895 0 0 0 14.88-3.68L384 1499.456l123.36 64.864a31.895 31.895 0 0 0 14.88 3.68c6.624 0 13.248-2.048 18.816-6.112a32.03 32.03 0 0 0 12.736-31.296l-23.552-137.376 99.808-97.28a31.946 31.946 0 0 0 8.096-32.8zM495.84 1382.048L522.24 1536 384 1463.328v-352.832l69.12 140.064 154.56 22.464-111.84 109.024z" fill="undefined"/></svg>