<svg width="64" height="64" viewBox="0 0 512 512" xmlns="http://www.w3.org/2000/svg"><path d="M464.928 32.16h-.864c-.256 0-.48-.032-.736 0H262.144c-4.896.224-16.032 7.872-17.472 9.312L9.344 276.8c-12.48 12.48-12.48 32.704 0 45.184l180.672 180.672A31.915 31.915 0 0 0 212.608 512c8.16 0 16.352-3.104 22.592-9.344l235.328-235.328c1.44-1.44 9.472-11.328 9.472-17.472V48.032c.448-8.928-6.304-15.872-15.072-15.872zM448 243.872c-.48.736-.96 1.504-1.408 2.112L212.64 480 31.968 299.424 265.984 65.408A50.34 50.34 0 0 1 268.128 64H448v179.872zM384 112a16 16 0 1 0 32 0 16 16 0 1 0-32 0z"/></svg>