<svg width="1792" height="1792" xmlns="http://www.w3.org/2000/svg"><path d="M592.928 1056h-.864c-.256 0-.48-.032-.736 0H422.144c-4.896.256-16.032 7.904-17.472 9.344l-203.68 203.648c-12.48 12.48-12.48 32.704 0 45.184l25.408 25.408-25.408 25.408c-12.48 12.48-12.48 32.704 0 45.184l148.672 148.672c6.24 6.24 14.4 9.344 22.592 9.344s16.352-3.104 22.592-9.344l203.648-203.68c1.472-1.44 9.504-11.296 9.504-17.44v-265.824c.448-8.928-6.304-15.904-15.072-15.904zM560 1087.872c8.832 0 16 7.168 16 16s-7.168 16-16 16-16-7.168-16-16 7.168-16 16-16zm15.904 244.704l-203.584 203.68-148.672-148.608 25.408-25.408 100.64 100.64c6.24 6.24 14.4 9.344 22.592 9.344s16.352-3.104 22.592-9.344L576 1281.728v50.592c-.096.16-.16.256-.096.256-.032 0-.032 0 0 0z" fill="undefined"/></svg>