<svg width="1792" height="1792" xmlns="http://www.w3.org/2000/svg"><path d="M192 1216h64c17.664 0 32-14.336 32-32v-64c0-17.664-14.336-32-32-32h-64c-17.664 0-32 14.336-32 32v64c0 17.664 14.336 32 32 32zm160 0h64c17.664 0 32-14.336 32-32v-64c0-17.664-14.336-32-32-32h-64c-17.664 0-32 14.336-32 32v64c0 17.664 14.336 32 32 32zm160 0h64c17.664 0 32-14.336 32-32v-64c0-17.664-14.336-32-32-32h-64c-17.664 0-32 14.336-32 32v64c0 17.664 14.336 32 32 32zm-352 128c0 17.664 14.336 32 32 32h64c17.664 0 32-14.336 32-32v-64c0-17.664-14.336-32-32-32h-64c-17.664 0-32 14.336-32 32v64zm160 0c0 17.664 14.336 32 32 32h64c17.664 0 32-14.336 32-32v-64c0-17.664-14.336-32-32-32h-64c-17.664 0-32 14.336-32 32v64zm160 0c0 17.664 14.336 32 32 32h64c17.664 0 32-14.336 32-32v-64c0-17.664-14.336-32-32-32h-64c-17.664 0-32 14.336-32 32v64zm-320 160c0 17.664 14.336 32 32 32h64c17.664 0 32-14.336 32-32v-64c0-17.664-14.336-32-32-32h-64c-17.664 0-32 14.336-32 32v64zm160 0c0 17.664 14.336 32 32 32h64c17.664 0 32-14.336 32-32v-64c0-17.664-14.336-32-32-32h-64c-17.664 0-32 14.336-32 32v64zm160 0c0 17.664 14.336 32 32 32h64c17.664 0 32-14.336 32-32v-64c0-17.664-14.336-32-32-32h-64c-17.664 0-32 14.336-32 32v64z" fill="undefined"/></svg>