<svg width="1792" height="1792" xmlns="http://www.w3.org/2000/svg"><path d="M608 1216H480c0 17.664-14.336 32-32 32h160v64H448c17.664 0 32 14.336 32 32h128v192H160v-192h128c0-17.664 14.336-32 32-32H160v-64h160c-17.664 0-32-14.336-32-32H160c-17.664 0-32 14.336-32 32v288c0 17.664 14.336 32 32 32h448c17.664 0 32-14.336 32-32v-288c0-17.664-14.336-32-32-32zm-288 32h128c17.664 0 32-14.336 32-32v-32c0-17.664-14.336-32-32-32H320c-17.664 0-32 14.336-32 32v32c0 17.664 14.336 32 32 32zm0-64h128v32H320v-32zm-32 160v32c0 17.664 14.336 32 32 32h128c17.664 0 32-14.336 32-32v-32c0-17.664-14.336-32-32-32H320c-17.664 0-32 14.336-32 32zm160 32H320v-32h128v32z" fill="undefined"/></svg>