<svg width="1792" height="1792" xmlns="http://www.w3.org/2000/svg"><path d="M224 1280h96c17.664 0 32-14.336 32-32v-96c0-17.664-14.336-32-32-32h-96c-17.664 0-32 14.336-32 32v96c0 17.664 14.336 32 32 32zm224 0h96c17.664 0 32-14.336 32-32v-96c0-17.664-14.336-32-32-32h-96c-17.664 0-32 14.336-32 32v96c0 17.664 14.336 32 32 32zm-256 192c0 17.664 14.336 32 32 32h96c17.664 0 32-14.336 32-32v-96c0-17.664-14.336-32-32-32h-96c-17.664 0-32 14.336-32 32v96zm224 0c0 17.664 14.336 32 32 32h96c17.664 0 32-14.336 32-32v-96c0-17.664-14.336-32-32-32h-96c-17.664 0-32 14.336-32 32v96z" fill="undefined"/></svg>