<svg width="1792" height="1792" xmlns="http://www.w3.org/2000/svg"><path d="M499.424 1065.376a31.99 31.99 0 0 0-22.656-9.376H291.232c-8.48 0-16.64 3.36-22.624 9.376l-131.2 131.232c-6.048 5.984-9.408 14.112-9.408 22.624V1404.8c0 8.48 3.36 16.64 9.376 22.624l131.2 131.232a32.094 32.094 0 0 0 22.656 9.344H476.8c8.48 0 16.64-3.36 22.624-9.376l131.2-131.232c6.016-5.984 9.376-14.112 9.376-22.624v-185.536c0-8.48-3.36-16.64-9.376-22.624l-131.2-131.232zM608 1404.768L476.768 1536H291.232L160 1404.768v-185.536L291.232 1088H476.8L608 1219.232v185.536zM384 1152c-17.664 0-32 14.336-32 32v160c0 17.664 14.336 32 32 32s32-14.336 32-32v-160c0-17.664-14.336-32-32-32zm-32 288a32 32 0 1 0 64 0 32 32 0 1 0-64 0z" fill="undefined"/></svg>