<svg width="1792" height="1792" xmlns="http://www.w3.org/2000/svg"><path d="M384 1056c-141.376 0-256 114.624-256 256s114.624 256 256 256 256-114.624 256-256-114.624-256-256-256zm0 480c-123.52 0-224-100.48-224-224s100.48-224 224-224 224 100.48 224 224-100.48 224-224 224zm-35.616-63.552a32.96 32.96 0 1 0 65.92 0 32.96 32.96 0 1 0-65.92 0zM381.344 1120c-62.048 0-128 45.088-128 128.672 0 17.664 14.304 32 32 32s32-14.336 32-32c0-44.448 33.184-64.672 64-64.672 23.904 0 64 7.008 64 54.016 0 16.672-4.384 36.128-36.768 53.984-22.016 12.064-59.232 43.392-59.232 84 0 17.664 14.304 32 32 32s32-14.336 32-32c0-5.952 12.672-20.576 26.08-27.968 46.368-25.536 69.92-62.56 69.92-110.016 0-81.536-64.288-118.016-128-118.016z" fill="undefined"/></svg>