<?xml version="1.0" encoding="utf-8"?>
<svg width="1792" height="1792" xmlns="http://www.w3.org/2000/svg"><path d="M608 1152H160c-17.664 0-32 14.336-32 32v288c0 17.664 14.336 32 32 32h448c17.664 0 32-14.336 32-32v-288c0-17.664-14.336-32-32-32zm-45.344 192H368c-8.832 0-16-7.168-16-16s7.168-16 16-16h194.656c8.832 0 16 7.168 16 16s-7.168 16-16 16zm16 48c0 8.832-7.168 16-16 16H368c-8.832 0-16-7.168-16-16s7.168-16 16-16h194.656c8.832 0 16 7.168 16 16zm-16-112H368c-8.832 0-16-7.168-16-16s7.168-16 16-16h194.656c8.832 0 16 7.168 16 16s-7.168 16-16 16zm-305.888 28.768c34.912 0 63.232 37.952 63.232 84.8s-126.496 46.848-126.496 0 28.32-84.8 63.264-84.8zm-39.456-54.112c0-21.344 17.28-38.656 38.624-38.656s38.656 17.312 38.656 38.656c0 21.344-17.312 38.656-38.656 38.656-21.344 0-38.624-17.312-38.624-38.656z" fill="undefined"/></svg>