<svg width="64" height="64" viewBox="0 0 512 512" xmlns="http://www.w3.org/2000/svg"><path d="M480 160H352c0 17.664-14.336 32-32 32h160v64H320c17.664 0 32 14.336 32 32h128v192H32V288h128c0-17.664 14.336-32 32-32H32v-64h160c-17.664 0-32-14.336-32-32H32c-17.664 0-32 14.336-32 32v288c0 17.664 14.336 32 32 32h448c17.664 0 32-14.336 32-32V192c0-17.664-14.336-32-32-32zm-288 32h128c17.664 0 32-14.336 32-32v-32c0-17.664-14.336-32-32-32H192c-17.664 0-32 14.336-32 32v32c0 17.664 14.336 32 32 32zm0-64h128v32H192v-32zm-32 160v32c0 17.664 14.336 32 32 32h128c17.664 0 32-14.336 32-32v-32c0-17.664-14.336-32-32-32H192c-17.664 0-32 14.336-32 32zm160 32H192v-32h128v32z"/></svg>