<svg width="1792" height="1792" xmlns="http://www.w3.org/2000/svg"><path d="M560 1152h-48c0-17.664-14.336-32-32-32h-32c-17.664 0-32 14.336-32 32H208c-8.832 0-16 7.168-16 16s7.168 16 16 16h208c0 17.664 14.336 32 32 32h32c17.664 0 32-14.336 32-32h48c8.832 0 16-7.168 16-16s-7.168-16-16-16zm-80 32h-32v-32h32v32zm80 96H352c0-17.664-14.336-32-32-32h-32c-17.664 0-32 14.336-32 32h-48c-8.832 0-16 7.168-16 16s7.168 16 16 16h48c0 17.664 14.336 32 32 32h32c17.664 0 32-14.336 32-32h208c8.832 0 16-7.168 16-16s-7.168-16-16-16zm-240 32h-32v-32h32v32zm240 96H448c0-17.664-14.336-32-32-32h-32c-17.664 0-32 14.336-32 32H208c-8.832 0-16 7.168-16 16s7.168 16 16 16h144c0 17.664 14.336 32 32 32h32c17.664 0 32-14.336 32-32h112c8.832 0 16-7.168 16-16s-7.168-16-16-16zm-144 32h-32v-32h32v32z" fill="undefined"/></svg>