<svg width="64" height="64" viewBox="0 0 512 512" xmlns="http://www.w3.org/2000/svg"><path d="M480 32H64c-17.664 0-32 14.336-32 32v416c0 17.664 14.336 32 32 32h416c17.664 0 32-14.336 32-32V64c0-17.664-14.336-32-32-32zm0 448H64V64h416v416zM144 288h256c8.832 0 16-7.168 16-16s-7.168-16-16-16H144c-8.832 0-16 7.168-16 16s7.168 16 16 16zm0-96h256c8.832 0 16-7.168 16-16s-7.168-16-16-16H144c-8.832 0-16 7.168-16 16s7.168 16 16 16zm0 192h256c8.832 0 16-7.168 16-16s-7.168-16-16-16H144c-8.832 0-16 7.168-16 16s7.168 16 16 16z"/></svg>