<svg width="64" height="64" viewBox="0 0 512 512" xmlns="http://www.w3.org/2000/svg"><path d="M25.984 284.512L64 254.112V480c0 17.664 14.336 32 32 32h96c17.664 0 32-14.336 32-32V352h64v128c0 17.664 14.336 32 32 32h96c17.664 0 32-14.336 32-32V254.112l38.016 30.4A16.01 16.01 0 0 0 496 288c4.704 0 9.344-2.048 12.512-6.016 5.504-6.912 4.384-16.96-2.496-22.496l-240-192a16.021 16.021 0 0 0-20 0L160 136.288V96c0-17.664-14.336-32-32-32S96 78.336 96 96v91.488l-89.984 72c-6.88 5.536-8 15.584-2.496 22.496 5.504 6.912 15.552 8.032 22.464 2.528zM256 100.48l160 128V480h-96V320H192v160H96V228.512L256 100.48z"/></svg>