<svg width="64" height="64" viewBox="0 0 512 512" xmlns="http://www.w3.org/2000/svg"><path d="M176 256h256c8.832 0 16-7.168 16-16s-7.168-16-16-16H176c-8.832 0-16 7.168-16 16s7.168 16 16 16zm0-128h256c8.832 0 16-7.168 16-16s-7.168-16-16-16H176c-8.832 0-16 7.168-16 16s7.168 16 16 16zm0 256h256c8.832 0 16-7.168 16-16s-7.168-16-16-16H176c-8.832 0-16 7.168-16 16s7.168 16 16 16zM64 112a16 16 0 1 0 32 0 16 16 0 1 0-32 0zm0 128a16 16 0 1 0 32 0 16 16 0 1 0-32 0zm0 128a16 16 0 1 0 32 0 16 16 0 1 0-32 0z"/></svg>