<svg width="64" height="64" viewBox="0 0 512 512" xmlns="http://www.w3.org/2000/svg"><path d="M78.4 352.064H224v83.008C222.88 479.968 232.992 512 271.008 512 312 512 320 477.984 320 477.984c7.488-120.48 128-157.92 128-157.92v-256l-46.752-1.984C280.192 62.08 352.832.064 153.92.064 2.88.064 0 132.992 0 224.064s41.504 128 78.4 128zm75.52-320c101.056 0 122.464 16.096 141.376 30.304 23.872 17.952 46.848 31.68 104.384 31.68h.192L416 94.72v203.808c-39.904 18.656-119.2 68.544-127.648 173.376-1.248 2.56-5.376 8.096-17.344 8.096-2.848 0-6.528-.32-8.096-1.92-1.312-1.344-7.744-9.632-6.912-43.008V320.064H78.4c-23.072 0-46.4-32.96-46.4-96 0-124.512 19.424-192 121.92-192zm342.08 0c-8.832 0-16 7.168-16 16V334.72c0 8.832 7.168 16 16 16s16-7.168 16-16V48.064c0-8.832-7.168-16-16-16z"/></svg>