<?xml version="1.0" encoding="utf-8"?>
<svg width="1792" height="1792" xmlns="http://www.w3.org/2000/svg"><path d="M206.4 1408.064h144.992v87.392c-2.368 39.36 8.96 72.576 33.152 72.544 42.112-.064 40.928-34.016 40.928-34.016C432.96 1413.504 544 1376.064 544 1376.064v-256l-14.752-1.984c-121.056 0-48.416-62.016-247.328-62.016-151.04 0-153.92 132.928-153.92 224s41.504 128 78.4 128zm401.6-320c-17.664 0-32 14.336-32 32v255.008c0 17.664 14.336 32 32 32s32-14.336 32-32v-255.008c0-17.664-14.336-32-32-32z" fill="undefined"/></svg>