<svg width="64" height="64" viewBox="0 0 512 512" xmlns="http://www.w3.org/2000/svg"><path d="M256 0C190.496 0 124.96 24.992 74.976 74.976c-99.968 99.968-99.968 262.08 0 362.048C124.96 487.008 190.496 512 256 512s131.04-24.992 181.024-74.976c99.968-99.968 99.968-262.08 0-362.048C387.04 24.992 321.504 0 256 0zm-90.496 346.496C141.312 322.336 128 290.176 128 256c0-34.176 13.312-66.336 37.504-90.496C189.664 141.312 221.824 128 256 128s66.336 13.312 90.496 37.504C370.688 189.664 384 221.824 384 256c0 34.176-13.312 66.336-37.504 90.496C322.336 370.688 290.176 384 256 384s-66.336-13.312-90.496-37.504zM354.976 55.2L305.6 104.576C289.472 99.296 272.8 96 256 96c-15.296 0-30.432 2.912-45.248 7.264l-49.92-49.92C190.272 39.552 222.528 32 256 32c34.944 0 68.544 8.16 98.976 23.2zm-301.6 105.664l49.92 49.92c-9.152 31.04-8.768 64 1.28 94.848L55.2 355.008C40.16 324.544 32 290.944 32 256c0-33.472 7.552-65.728 21.376-95.136zM97.6 414.368c0 .032 0 .032 0 0zm67.104 46.08l50.432-50.432C228.544 413.568 242.208 416 256 416c15.296 0 30.432-2.912 45.248-7.296l49.92 49.92C321.728 472.448 289.472 480 256 480c-32.032 0-62.912-6.88-91.296-19.552zM458.56 351.072l-49.824-49.824c8.288-28.128 8.768-57.792 1.28-86.112l50.336-50.336c26.336 59.232 25.728 127.456-1.792 186.272z"/></svg>