<?xml version="1.0" encoding="utf-8"?>
<svg width="1792" height="1792" xmlns="http://www.w3.org/2000/svg"><path d="M608 1216h-32v-128c0-17.664-14.336-32-32-32H224c-17.664 0-32 14.336-32 32v128h-32c-17.664 0-32 14.336-32 32v160c0 17.664 14.336 32 32 32h32v96c0 17.664 14.336 32 32 32h320c17.664 0 32-14.336 32-32v-96h32c17.664 0 32-14.336 32-32v-160c0-17.664-14.336-32-32-32zm-384 160h320v160H224v-160zm320-32H224c-17.664 0-32 14.336-32 32v32h-32v-160h448v160h-32v-32c0-17.664-14.336-32-32-32zm-320-256h320v128H224v-128zm256 208a16 16 0 1 0 32 0 16 16 0 1 0-32 0zm-288 0a16 16 0 1 0 32 0 16 16 0 1 0-32 0zm352 0a16 16 0 1 0 32 0 16 16 0 1 0-32 0zm-32 128c0-8.832-7.168-16-16-16H272c-8.832 0-16 7.168-16 16s7.168 16 16 16h224c8.832 0 16-7.168 16-16zm-16 48H272c-8.832 0-16 7.168-16 16s7.168 16 16 16h224c8.832 0 16-7.168 16-16s-7.168-16-16-16z" fill="undefined"/></svg>