<?xml version="1.0" encoding="utf-8"?>
<svg width="1792" height="1792" xmlns="http://www.w3.org/2000/svg"><path d="M224 1568h320c17.664 0 32-14.336 32-32v-448c0-17.664-14.336-32-32-32H224c-17.664 0-32 14.336-32 32v448c0 17.664 14.336 32 32 32zm0-480h320v448H224v-448zm256 32H288c-17.664 0-32 14.336-32 32v32c0 17.664 14.336 32 32 32h192c17.664 0 32-14.336 32-32v-32c0-17.664-14.336-32-32-32zm0 64H288v-32h192v32zm-224 96a32 32 0 1 0 64 0 32 32 0 1 0-64 0zm0 96a32 32 0 1 0 64 0 32 32 0 1 0-64 0zm0 96a32 32 0 1 0 64 0 32 32 0 1 0-64 0zm96-192a32 32 0 1 0 64 0 32 32 0 1 0-64 0zm0 96a32 32 0 1 0 64 0 32 32 0 1 0-64 0zm0 96a32 32 0 1 0 64 0 32 32 0 1 0-64 0zm96-192a32 32 0 1 0 64 0 32 32 0 1 0-64 0zm0 96a32 32 0 1 0 64 0 32 32 0 1 0-64 0zm0 96a32 32 0 1 0 64 0 32 32 0 1 0-64 0z" fill="undefined"/></svg>