<svg width="64" height="64" viewBox="0 0 512 512" xmlns="http://www.w3.org/2000/svg"><path d="M480 96H367.488c-17.664 0-37.984 8.992-47.488 32 0 0-4.16 29.344-32 32H64c-17.664 0-32 13.824-32 31.488V480c0 17.664 14.336 32 32 32h416c17.664 0 32-14.336 32-32V128c0-17.664-14.336-32-32-32zm0 95.488V480H64V192h224a32.24 32.24 0 0 0 3.04-.16c30.016-2.848 48.576-23.872 57.152-45.472 8.32-20.864 22.816-18.368 22.816-18.368H480v63.488zM352 320h-64v-64c0-8.832-7.168-16-16-16s-16 7.168-16 16v64h-64c-8.832 0-16 7.168-16 16s7.168 16 16 16h64v64c0 8.832 7.168 16 16 16s16-7.168 16-16v-64h64c8.832 0 16-7.168 16-16s-7.168-16-16-16z"/></svg>