<svg width="64" height="64" viewBox="0 0 512 512" xmlns="http://www.w3.org/2000/svg"><path d="M432.672 0h-352C36.512 0 .768 35.488.128 79.488L0 79.328v352C0 475.872 36.128 512 80.672 512h272C370.336 512 384 497.664 384 480V144c0-8.832-6.496-16-15.328-16h-288C53.824 128 32 107.488 32 80.672 32 53.824 53.824 32 80.672 32H416v368c0 8.832 7.84 16 16.672 16S448 408.832 448 400V16c0-8.832-6.496-16-15.328-16zm-352 160h271.36l.64 320h-272C53.824 480 32 458.176 32 431.328V144.352C45.44 154.208 62.24 160 80.672 160z"/></svg>