<?xml version="1.0" encoding="utf-8"?>
<svg width="1792" height="1792" xmlns="http://www.w3.org/2000/svg"><path d="M609.888 1402.208c-87.136 87.104-228.928 87.168-316.064 0-42.176-42.144-65.376-98.272-65.376-158.048s23.232-115.904 65.344-158.016c6.24-6.24 6.24-16.384 0-22.624s-16.384-6.24-22.624 0c-48.192 48.16-74.72 112.32-74.72 180.64s26.56 132.512 74.72 180.672c40.672 40.704 91.808 64.48 144.832 71.936V1536h-48c-8.832 0-16 7.168-16 16s7.168 16 16 16h128c8.832 0 16-7.168 16-16s-7.168-16-16-16h-48v-36.608c1.28.032 2.56.192 3.84.192 65.408 0 130.848-24.896 180.672-74.72 6.24-6.24 6.24-16.384 0-22.624s-16.384-6.272-22.624-.032zM451.84 1056c-103.936 0-188.16 84.256-188.16 188.16s84.256 188.16 188.16 188.16S640 1348.096 640 1244.16 555.744 1056 451.84 1056zm0 344.32c-86.112 0-156.16-70.048-156.16-156.16S365.728 1088 451.84 1088 608 1158.048 608 1244.16s-70.048 156.16-156.16 156.16z" fill="undefined"/></svg>