<svg width="64" height="64" viewBox="0 0 512 512" xmlns="http://www.w3.org/2000/svg"><path d="M64 448h32v32c0 17.664 14.336 32 32 32h320c17.664 0 32-14.336 32-32V96c0-17.664-14.336-32-32-32h-32V32c0-17.664-14.336-32-32-32H64C46.336 0 32 14.336 32 32v384c0 17.664 14.336 32 32 32zM448 96v384H128v-32h256c17.664 0 32-14.336 32-32V96h32zM336 64c8.832 0 16 7.168 16 16s-7.168 16-16 16H206.656c-8.832 0-16-7.168-16-16s7.168-16 16-16H336zm-225.344 96H336c8.832 0 16 7.168 16 16s-7.168 16-16 16H110.656c-8.832 0-16-7.168-16-16s7.168-16 16-16zm0 96H336c8.832 0 16 7.168 16 16s-7.168 16-16 16H110.656c-8.832 0-16-7.168-16-16s7.168-16 16-16zm0 96H336c8.832 0 16 7.168 16 16s-7.168 16-16 16H110.656c-8.832 0-16-7.168-16-16s7.168-16 16-16z"/></svg>