<?xml version="1.0" encoding="utf-8"?>
<svg width="1792" height="1792" xmlns="http://www.w3.org/2000/svg"><path d="M544 1056H160c-17.664 0-32 14.336-32 32v448c0 17.664 14.336 32 32 32h384c17.664 0 32-14.336 32-32v-448c0-17.664-14.336-32-32-32zm-384 32h64v448h-64v-448zm384 448H256v-448h288v448zm-194.208-308.256a48.448 48.448 0 1 0 96.896 0 48.448 48.448 0 1 0-96.896 0zm49.44 67.808c-43.744 0-79.232 47.584-79.232 106.272s158.496 58.688 158.496 0-35.488-106.272-79.264-106.272zM608 1088h32v96h-32zm0 128h32v96h-32zm0 128h32v96h-32z" fill="undefined"/></svg>