<?xml version="1.0" encoding="utf-8"?>
<svg width="1792" height="1792" xmlns="http://www.w3.org/2000/svg"><path d="M256 1368.224c0 24.544 61.76 37.568 128.032 39.392 0 .128-.032.256-.032.384v96c0 17.664 7.168 64 16 64s16-46.336 16-64v-96c0-.128-.032-.256-.032-.384C482.24 1405.792 544 1392.768 544 1368.224c0-26.048-23.584-45.056-64-55.296V1147.2c40.416-13.696 64-35.744 64-51.424 0-53.024-288-53.024-288 0 0 17.248 23.584 38.816 64 52v165.152c-40.416 10.272-64 29.248-64 55.296z" fill="undefined"/></svg>