<?xml version="1.0" encoding="utf-8"?>
<svg width="1792" height="1792" xmlns="http://www.w3.org/2000/svg"><path d="M608 1184H160c-17.664 0-32 14.336-32 32v320c0 17.664 14.336 32 32 32h448c17.664 0 32-14.336 32-32v-320c0-17.664-14.336-32-32-32zm-298.24 224.864l74.304 50.496 73.856-50.848L585.376 1536H182.624l127.136-127.136zM160 1513.376V1307.04l122.816 83.488L160 1513.376zm324.704-123.296L608 1305.216v208.16L484.704 1390.08zM608 1216v51.776l-.672-.96-223.392 153.824L160 1268.384V1216h448z" fill="undefined"/></svg>