<svg width="64" height="64" viewBox="0 0 512 512" xmlns="http://www.w3.org/2000/svg"><path d="M247.2 510.752c2.88.832 5.856 1.248 8.8 1.248s5.92-.416 8.8-1.248C462.848 454.176 492 253.984 479.776 156c-2.016-15.968-15.648-28-31.776-28-4.576-.352-32-5.088-32-64 0-8.48-3.36-16.64-9.376-22.624C399.712 34.464 360 0 256 0S112.288 34.464 105.376 41.376C99.36 47.36 96 55.52 96 64c0 58.912-27.424 63.648-32.928 64.032-16.128 0-28.832 12-30.848 28C20 253.984 49.184 454.176 247.2 510.752zM64 160s64 0 64-96c0 0 32-32 128-32v224h188.448C431.84 335.712 389.536 441.856 256 480V256H67.552C59.04 201.984 64 160 64 160z"/></svg>