<svg width="64" height="64" viewBox="0 0 512 512" xmlns="http://www.w3.org/2000/svg"><path d="M511.744 221.344C510.4 142.816 446.688 72.832 368 72.832c-45.504 0-85.6 23.808-112 58.752-26.4-34.944-66.496-58.752-112-58.752-78.688 0-142.4 69.984-143.744 148.512H0c0 .48.096.928.096 1.408 0 .352-.096.704-.096 1.088 0 2.208.544 3.872.64 5.984C7.68 429.952 253.984 512 253.984 512s249.92-81.952 257.312-281.856c.128-2.24.704-4 .704-6.304 0-.384-.096-.736-.096-1.088 0-.512.096-.928.096-1.408h-.256zm-32.416 7.616c-5.664 153.6-181.056 231.68-225.28 248.928-43.84-17.28-216.032-95.008-221.44-249.536-.064-1.6-.224-3.072-.448-4.672.032-.576.064-1.184.096-1.792C33.344 158.432 84.512 104.832 144 104.832c32.832 0 64.352 16.768 86.464 46.048 6.048 8 15.488 12.704 25.536 12.704s19.488-4.704 25.536-12.704c22.112-29.28 53.632-46.048 86.464-46.048 59.488 0 110.656 53.6 111.744 117.056 0 .608.032 1.216.096 1.824a54.057 54.057 0 0 0-.512 5.248z"/></svg>