<svg width="64" height="64" viewBox="0 0 512 512" xmlns="http://www.w3.org/2000/svg"><path d="M257.344 0c-141.376 0-256 114.624-256 256s114.624 256 256 256 256-114.624 256-256S398.72 0 257.344 0zm0 480c-123.52 0-224-100.48-224-224s100.48-224 224-224 224 100.48 224 224-100.512 224-224 224zm112.128-325.824c-10.336-6.784-24.224-3.872-31.008 6.496L230.432 325.76l-51.648-47.808c-9.088-8.384-23.264-7.84-31.68 1.248s-7.84 23.232 1.248 31.648l71.392 66.048c.256.224.576.288.832.512.64.512 1.024 1.216 1.696 1.696.96.64 2.048.768 3.072 1.216 1.216.576 2.4 1.12 3.68 1.472 1.248.32 2.464.48 3.744.576 1.824.192 3.584.192 5.376-.064.736-.128 1.44-.32 2.176-.512 2.208-.544 4.256-1.408 6.272-2.624.352-.224.64-.48.992-.704 1.312-.896 2.72-1.568 3.84-2.784.8-.864 1.152-1.984 1.792-2.944.032-.032.096-.064.096-.096l122.624-187.424c6.784-10.368 3.872-24.256-6.464-31.04z"/></svg>