<svg width="1792" height="1792" xmlns="http://www.w3.org/2000/svg"><path d="M352 1136c0-42.816-37.184-80-80-80s-80 37.184-80 80 37.184 80 80 80 80-37.184 80-80zm56 304c0-128-66.432-192-140-192s-140 64-140 192c0 87.68 280 87.68 280 0zm96-161.76c42.816 0 80-37.184 80-80s-37.184-80-80-80-80 37.184-80 80 37.184 80 80 80zm-4 32c-22.112 0-43.296 6.496-62.496 18.08C449.12 1359.552 456 1396.576 456 1440c0 43.104-28.736 76.672-78.048 95.872C439.104 1587.648 640 1576.608 640 1502.24c0-128-66.432-192-140-192z" fill="undefined"/></svg>