<?xml version="1.0" encoding="utf-8"?>
<svg width="1792" height="1792" xmlns="http://www.w3.org/2000/svg"><path d="M568.416 1258.912c-4.032-14.016-9.504-27.36-16.448-39.872l31.808-66.912a258.544 258.544 0 0 0-39.904-39.904l-66.912 31.808c-12.48-6.912-25.856-12.416-39.872-16.448l-24.896-69.952c-9.248-1.024-18.656-1.632-28.192-1.632s-18.944.608-28.192 1.632l-24.896 69.952c-13.984 4.032-27.36 9.536-39.84 16.448l-66.944-31.808a258.544 258.544 0 0 0-39.904 39.904l31.808 66.912c-6.912 12.48-12.416 25.856-16.448 39.872l-69.952 24.896c-1.024 9.248-1.632 18.656-1.632 28.192s.608 18.944 1.632 28.192l69.984 24.896c4.032 14.016 9.504 27.36 16.448 39.872l-31.808 66.912c11.808 14.72 25.184 28.128 39.904 39.904l66.912-31.808c12.48 6.912 25.856 12.416 39.872 16.448l24.896 69.984c9.216.992 18.624 1.6 28.16 1.6s18.944-.608 28.192-1.632l24.896-69.984c14.016-4.032 27.36-9.504 39.872-16.448l66.912 31.808c14.72-11.808 28.128-25.184 39.904-39.904l-31.808-66.912c6.912-12.48 12.416-25.856 16.448-39.872l69.984-24.896c.992-9.216 1.6-18.624 1.6-28.16s-.608-18.944-1.632-28.192l-69.952-24.896zM384 1440c-70.688 0-128-57.312-128-128s57.312-128 128-128 128 57.312 128 128-57.312 128-128 128zm-64-128a64 64 0 1 0 128 0 64 64 0 1 0-128 0z" fill="undefined"/></svg>