<svg width="1792" height="1792" xmlns="http://www.w3.org/2000/svg"><path d="M609.888 1402.208c-87.136 87.104-228.928 87.168-316.064 0-42.176-42.144-65.376-98.272-65.376-158.048s23.232-115.904 65.344-158.016c6.24-6.24 6.24-16.384 0-22.624s-16.384-6.24-22.624 0c-48.192 48.16-74.72 112.32-74.72 180.64s26.56 132.512 74.72 180.672c40.672 40.704 91.808 64.48 144.832 71.936V1536h-48c-8.832 0-16 7.168-16 16s7.168 16 16 16h128c8.832 0 16-7.168 16-16s-7.168-16-16-16h-48v-36.608c1.28.032 2.56.192 3.84.192 65.408 0 130.848-24.896 180.672-74.72 6.24-6.24 6.24-16.384 0-22.624s-16.384-6.272-22.624-.032zM263.68 1244.16a188.16 188.16 0 1 0 376.32 0 188.16 188.16 0 1 0-376.32 0z" fill="undefined"/></svg>