<svg width="64" height="64" viewBox="0 0 512 512" xmlns="http://www.w3.org/2000/svg"><path d="M96 512h320c17.664 0 32-14.336 32-32V32c0-17.664-14.336-32-32-32H96C78.336 0 64 14.336 64 32v448c0 17.664 14.336 32 32 32zm0-480h320v448H96V32zm256 32H160c-17.664 0-32 14.336-32 32v32c0 17.664 14.336 32 32 32h192c17.664 0 32-14.336 32-32V96c0-17.664-14.336-32-32-32zm0 64H160V96h192v32zm-224 96a32 32 0 1 0 64 0 32 32 0 1 0-64 0zm0 96a32 32 0 1 0 64 0 32 32 0 1 0-64 0zm0 96a32 32 0 1 0 64 0 32 32 0 1 0-64 0zm96-192a32 32 0 1 0 64 0 32 32 0 1 0-64 0zm0 96a32 32 0 1 0 64 0 32 32 0 1 0-64 0zm0 96a32 32 0 1 0 64 0 32 32 0 1 0-64 0zm96-192a32 32 0 1 0 64 0 32 32 0 1 0-64 0zm0 96a32 32 0 1 0 64 0 32 32 0 1 0-64 0zm0 96a32 32 0 1 0 64 0 32 32 0 1 0-64 0z"/></svg>