<svg width="64" height="64" viewBox="0 0 512 512" xmlns="http://www.w3.org/2000/svg"><path d="M32.992 512h444.992a32.007 32.007 0 0 0 27.456-15.552c5.792-9.632 6.08-21.6.8-31.52l-222.016-416A31.956 31.956 0 0 0 256.032 32H256a31.964 31.964 0 0 0-28.192 16.896L4.8 464.896a32.056 32.056 0 0 0 .736 31.552C11.328 506.08 21.76 512 32.992 512zM256 384c17.664 0 32 14.336 32 32s-14.336 32-32 32-32-14.336-32-32 14.336-32 32-32zm-32-63.488v-128c0-17.664 14.336-32 32-32s32 14.336 32 32v128c0 17.664-14.336 32-32 32s-32-14.336-32-32z"/></svg>