<svg width="64" height="64" viewBox="0 0 512 512" xmlns="http://www.w3.org/2000/svg"><path d="M256 0C114.624 0 0 114.624 0 256s114.624 256 256 256 256-114.624 256-256S397.376 0 256 0zm125.568 152.48l-37.184 59.584-24.8 39.744c.096 1.408.416 2.752.416 4.192 0 35.36-28.64 64-64 64-1.44 0-2.784-.32-4.192-.416l-39.776 24.8-59.552 37.184A15.884 15.884 0 0 1 144 384c-4.128 0-8.224-1.6-11.328-4.672-5.28-5.28-6.208-13.472-2.24-19.776l37.184-59.584 24.8-39.744c-.096-1.44-.416-2.784-.416-4.224 0-35.36 28.64-64 64-64 1.44 0 2.784.32 4.192.416l39.776-24.8 59.552-37.184c6.208-3.936 14.496-3.008 19.776 2.272 5.312 5.248 6.24 13.44 2.272 19.776zM224 256a32 32 0 1 0 64 0 32 32 0 1 0-64 0z"/></svg>