<svg width="64" height="64" viewBox="0 0 512 512" xmlns="http://www.w3.org/2000/svg"><path d="M32 388.064h73.312c5.792 5.76 139.232 118.08 139.232 118.08 6.944 4.224 12.992 5.856 18.272 5.856.8 0 1.6-.032 2.368-.096 11.84-1.12 20.288-11.04 22.816-21.504V21.632C285.504 11.136 277.024 1.216 265.184.096A28.139 28.139 0 0 0 262.816 0c-5.28 0-11.328 1.632-18.272 5.824 0 0-133.44 116.416-139.232 122.176H32c-17.664 0-32 14.336-32 32v196.064c0 17.696 14.336 32 32 32zM32 352V160h73.312c8.192 0 16.384-3.424 22.304-9.056 5.824-5.536 78.144-68.8 128.384-112.64v435.68c-49.92-42.048-122.24-103.136-128.128-108.576-5.984-5.984-14.112-9.312-22.592-9.312H32V352zm474.272-178.848c-7.616-7.616-20-7.616-27.616 0l-55.232 55.232-55.232-55.232c-7.616-7.616-20-7.616-27.616 0s-7.616 20 0 27.616L395.808 256l-55.232 55.232c-7.616 7.616-7.616 20 0 27.616s20 7.616 27.616 0l55.232-55.232 55.232 55.232c7.616 7.616 20 7.616 27.616 0s7.616-20 0-27.616L451.04 256l55.232-55.232c7.648-7.616 7.648-20 0-27.616z"/></svg>