<svg width="64" height="64" viewBox="0 0 512 512" xmlns="http://www.w3.org/2000/svg"><path d="M26.496 284.096L256 85.184l229.504 198.912A16.019 16.019 0 0 0 496 288c4.48 0 8.928-1.888 12.096-5.504 5.792-6.688 5.056-16.768-1.6-22.592l-240-208a15.994 15.994 0 0 0-20.96 0L160 126.016V96c0-17.664-14.336-32-32-32S96 78.336 96 96v85.472L5.504 259.904c-6.656 5.792-7.392 15.904-1.6 22.592 5.824 6.656 15.904 7.392 22.592 1.6zM192 352h128v160h96c17.664 0 32-14.336 32-32V323.168a31.93 31.93 0 0 0-11.712-24.736l-160-131.168A31.941 31.941 0 0 0 256 160c-7.2 0-14.4 2.432-20.288 7.264l-160 131.168C68.288 304.48 64 313.568 64 323.168V480c0 17.664 14.336 32 32 32h96V352z"/></svg>