<svg width="64" height="64" viewBox="0 0 512 512" xmlns="http://www.w3.org/2000/svg"><path d="M384 512c17.664 0 32-14.336 32-32V32c0-17.664-14.336-32-32-32H160c-17.664 0-32 14.336-32 32v448c0 17.664 14.336 32 32 32h224zm-128-49.984c0-9.952 8.064-17.984 17.984-17.984s17.984 8.064 17.984 17.984S283.936 480 273.984 480 256 471.936 256 462.016zM336 32c8.832 0 16 7.168 16 16s-7.168 16-16 16h-32c-8.832 0-16-7.168-16-16s7.168-16 16-16h32zm-80 16c0 8.832-7.168 16-16 16s-16-7.168-16-16 7.168-16 16-16 16 7.168 16 16zm-96 48h224v320H160V96z"/></svg>