<?xml version="1.0" encoding="utf-8"?>
<svg width="1792" height="1792" xmlns="http://www.w3.org/2000/svg"><path d="M634.24 1520.928l-222.016-416A31.956 31.956 0 0 0 384.032 1088H384a31.964 31.964 0 0 0-28.192 16.896l-223.008 416a32.056 32.056 0 0 0 .736 31.552c5.792 9.632 16.224 15.552 27.456 15.552h444.992a32.007 32.007 0 0 0 27.456-15.552c5.792-9.632 6.08-21.6.8-31.52zM160.992 1536L384 1120l222.016 416H160.992zM352 1280.512v96c0 17.664 14.336 32 32 32s32-14.336 32-32v-96c0-17.664-14.336-32-32-32s-32 14.304-32 32zM352 1472a32 32 0 1 0 64 0 32 32 0 1 0-64 0z" fill="undefined"/></svg>