<svg width="64" height="64" viewBox="0 0 512 512" xmlns="http://www.w3.org/2000/svg"><path d="M418.656 256c29.888-68.64 11.456-112.288-3.552-133.312-22.784-31.904-64.288-49.408-100.736-42.4C251.008 92.384 224 135.328 224 224v74.048l-37.056-37.056c-6.24-6.24-16.384-6.24-22.624 0s-6.24 16.384 0 22.624l64.384 64.352c3.232 3.232 7.488 4.704 11.712 4.608 4.224.096 8.48-1.376 11.712-4.608l64.704-64.672c6.24-6.24 6.24-16.384 0-22.624s-16.384-6.24-22.624 0L256 298.848V224c0-92.288 31.776-106.048 64.32-112.288 20.896-3.84 51.136 4.928 68.704 29.568 21.504 30.048 17.376 74.624-11.616 125.44-3.072 5.408-2.752 12.096.832 17.152s9.888 7.616 15.872 6.528c3.872-.672 15.424-2.432 22.72-2.432C451.68 287.968 480 316.672 480 352c0 35.296-28.704 64-64 64l-317.664.192C61.152 410.688 32 375.456 32 336c0-39.296 29.504-73.12 68.672-78.72l13.76-1.984c7.872-1.12 13.728-7.872 13.728-15.84l-.256-17.024c.096-57.312 35.424-104.416 84.096-112 8.704-1.376 14.688-9.536 13.344-18.272-1.376-8.736-9.344-14.656-18.304-13.344C142.72 88.832 96 149.216 95.904 222.368c0 .032.256 3.232.256 3.232C41.344 233.44 0 280.896 0 336c0 55.872 40.256 103.936 96 112h320c52.928 0 96-43.072 96-96 0-52.352-41.728-95.04-93.344-96z"/></svg>