<svg width="1792" height="1792" xmlns="http://www.w3.org/2000/svg"><path d="M339.456 1185.024c-6.112-70.304-79.456-104.8-82.56-106.208a15.586 15.586 0 0 0-9.312-1.248c-84.672 14.048-97.408 63.328-97.92 65.376a15.85 15.85 0 0 0 .32 8.64c100.992 313.344 310.88 371.424 379.872 390.528 5.312 1.472 9.696 2.656 13.024 3.744 1.6.544 3.264.768 4.928.768 2.272 0 4.544-.48 6.624-1.44 2.112-.96 51.968-24.448 64.16-101.056.544-3.328 0-6.784-1.536-9.792-1.088-2.112-27.168-51.744-99.488-69.28-5.056-1.312-10.24.032-14.144 3.36-22.816 19.488-54.336 40.256-67.936 42.4-91.168-44.576-142.08-130.112-144-146.336-1.12-9.12 19.776-41.152 43.808-67.2 3.04-3.296 4.576-7.776 4.16-12.256z" fill="undefined"/></svg>