<svg width="64" height="64" viewBox="0 0 512 512" xmlns="http://www.w3.org/2000/svg"><path d="M404.992 32H104c-17.664 0-32 12-40 32L0 287.488V464c0 8.832 7.168 16 16 16h480c8.832 0 16-7.168 16-16V289.472L448 64c-8.992-20-25.312-32-43.008-32zM94.24 74.656C95.712 71.36 99.456 64 104 64h300.992c4.384 0 9.44 4.512 12.992 11.392L478.304 288H336c-8.832 0-16 7.168-16 16v48H192v-48c0-8.832-7.168-16-16-16H33.152L94.24 74.656zM480 448H32V320h128v48c0 8.832 7.168 16 16 16h160c8.832 0 16-7.168 16-16v-48h128v128z"/></svg>