<svg width="64" height="64" viewBox="0 0 512 512" xmlns="http://www.w3.org/2000/svg"><path d="M480 128H32c-17.664 0-32 14.336-32 32v96h32v224c0 17.664 14.336 32 32 32h384c17.664 0 32-14.336 32-32V256h32v-96c0-17.664-14.336-32-32-32zM32 160h192v64H32v-64zm32 320V256h160v224H64zm384 0H288.672V256H448v224zm32-256H288.672v-64H480v64zM256 96c0-.064-.032-.192-.032-.256h.096A.753.753 0 0 0 256 96h128c44.192 0 64-21.504 64-48S428.192 0 384 0c-41.376 0-73.952 18.624-96 40.224-9.664-5.728-20.832-9.216-32.928-9.216-11.584 0-22.304 3.264-31.712 8.576C201.344 18.24 168.96 0 128 0 83.808 0 64 21.504 64 48s19.808 48 64 48h128zm160-48c0 13.216-17.408 16-32 16h-72.672c-.256-.448-.48-.928-.736-1.344C326.848 46.848 351.488 32 384 32c14.592 0 32 2.784 32 16zM96 48c0-13.216 17.408-16 32-16 31.808 0 55.936 14.24 72.192 29.504-.512.8-.896 1.664-1.376 2.496H128c-14.592 0-32-2.784-32-16z"/></svg>