<?xml version="1.0" encoding="utf-8"?>
<svg width="1792" height="1792" xmlns="http://www.w3.org/2000/svg"><path d="M608 1216h-64s-18.496 0-32-32c-6.88-16.288-14.336-32-32-32H352c-17.664 0-25.344 15.616-32 32-12.992 32-32 32-32 32h-32c0-17.664-14.336-32-32-32h-32c-17.664 0-32 14.336-32 32-17.664 0-32 14.336-32 32v64h177.76c22.176-38.112 62.976-64 110.24-64s88.064 25.888 110.24 64H640v-64c0-17.664-14.336-32-32-32zm-368 64h-64c-8.832 0-16-7.168-16-16s7.168-16 16-16h64c8.832 0 16 7.168 16 16s-7.168 16-16 16zm80 96a96 96 0 1 0 192 0 96 96 0 1 0-192 0zm224 0c0 70.688-57.312 128-128 128s-128-57.312-128-128c0-11.104 1.856-21.728 4.512-32H128v160c0 17.664 14.336 32 32 32h448c17.664 0 32-14.336 32-32v-160H539.488c2.656 10.272 4.512 20.896 4.512 32z" fill="undefined"/></svg>