<svg width="1792" height="1792" xmlns="http://www.w3.org/2000/svg"><path d="M608 1536v-256c0-17.664-14.336-32-32-32H255.84l.16-13.568C256 1148.224 309.248 1088 385.536 1088c55.84 0 105.6 32.096 129.888 83.776 3.744 8 13.248 11.424 21.28 7.648 8-3.744 11.424-13.28 7.648-21.28C514.752 1095.168 453.92 1056 385.536 1056c-93.6 0-161.536 75.04-161.536 178.24l-.16 13.76H192c-17.664 0-32 14.336-32 32v256c0 17.664 14.336 32 32 32h384c17.664 0 32-14.336 32-32zm-416-256h384v256H192v-256zm192 64c-35.36 0-64 28.64-64 64s28.64 64 64 64 64-28.64 64-64-28.64-64-64-64zm0 96c-17.632 0-32-14.368-32-32s14.368-32 32-32 32 14.368 32 32-14.368 32-32 32z" fill="undefined"/></svg>