<svg width="64" height="64" viewBox="0 0 512 512" xmlns="http://www.w3.org/2000/svg"><path d="M272 32C139.456 32 32 139.456 32 272s107.456 240 240 240 240-107.456 240-240S404.544 32 272 32zm27.424 224C346.048 256 384 291.872 384 336s-37.952 80-84.576 80H288v16c0 8.832-7.168 16-16 16s-16-7.168-16-16v-16h-11.424C197.952 416 160 380.128 160 336c0-8.832 7.168-16 16-16s16 7.168 16 16c0 26.464 23.584 48 52.576 48H256v-96h-11.424C197.952 288 160 252.128 160 208s37.952-80 84.576-80H256v-16c0-8.832 7.168-16 16-16s16 7.168 16 16v16h11.424C346.048 128 384 163.872 384 208c0 8.832-7.168 16-16 16s-16-7.168-16-16c0-26.464-23.584-48-52.576-48H288v96h11.424zM192 208c0 26.464 23.584 48 52.576 48H256v-96h-11.424C215.584 160 192 181.536 192 208zm107.424 176C328.416 384 352 362.464 352 336s-23.584-48-52.576-48H288v96h11.424z"/></svg>