<?xml version="1.0" encoding="utf-8"?>
<svg width="1792" height="1792" xmlns="http://www.w3.org/2000/svg"><path d="M480 1440v-96c0-17.664 14.336-32 32-32h96v-64c0-17.664-14.336-32-32-32h-36.736l-15.616-92.768c-.704-4.224-3.104-8-6.592-10.432-3.52-2.464-7.904-3.328-12.096-2.656l-315.872 58.112a15.967 15.967 0 0 0-10.336 6.752c-2.4 3.552-3.296 7.904-2.432 12.128l5.728 28.864H160c-17.664 0-32 14.336-32 32v288c0 17.664 14.336 32 32 32h416c17.664 0 32-14.336 32-32v-64h-96c-17.664 0-32-14.336-32-32zm-269.152-243.2l283.936-52.256L506.816 1216h-292.16l-3.808-19.2zM624 1344H512v96h112c8.832 0 16-7.168 16-16v-64c0-8.832-7.168-16-16-16zm-64 64c-8.832 0-16-7.168-16-16s7.168-16 16-16 16 7.168 16 16-7.168 16-16 16z" fill="undefined"/></svg>