<?xml version="1.0" encoding="utf-8"?>
<svg width="1792" height="1792" xmlns="http://www.w3.org/2000/svg"><path d="M608 1376v-64c0-17.664-14.336-32-32-32H416v-64h96c17.664 0 32-14.336 32-32v-32c0-17.664-14.336-32-32-32H288c-17.664 0-32 14.336-32 32v32c0 17.664 14.336 32 32 32h96v64H224c-17.664 0-32 14.336-32 32v64c-17.664 0-32 14.336-32 32v64c0 17.664 14.336 32 32 32h32c17.664 0 32-14.336 32-32v-64c0-17.664-14.336-32-32-32v-64h160v64c-17.664 0-32 14.336-32 32v64c0 17.664 14.336 32 32 32h32c17.664 0 32-14.336 32-32v-64c0-17.664-14.336-32-32-32v-64h160v64c-17.664 0-32 14.336-32 32v64c0 17.664 14.336 32 32 32h32c17.664 0 32-14.336 32-32v-64c0-17.664-14.336-32-32-32zm-320-224h224v32H288v-32zm-64 288v32h-32v-64h32v32zm192 32h-32v-64h32v64zm160-32v-32h32v64h-32v-32z" fill="undefined"/></svg>