<svg width="1792" height="1792" xmlns="http://www.w3.org/2000/svg"><path d="M192 1568h385.344c17.664 0 32-14.336 32-32v-448c0-17.664-14.336-32-32-32H192c-17.664 0-32 14.336-32 32v448c0 17.664 14.336 32 32 32zm176-416h129.344c8.832 0 16 7.168 16 16s-7.168 16-16 16H368c-8.832 0-16-7.168-16-16s7.168-16 16-16zm-96 96h225.344c8.832 0 16 7.168 16 16s-7.168 16-16 16H272c-8.832 0-16-7.168-16-16s7.168-16 16-16zm0 96h225.344c8.832 0 16 7.168 16 16s-7.168 16-16 16H272c-8.832 0-16-7.168-16-16s7.168-16 16-16zm0 96h225.344c8.832 0 16 7.168 16 16s-7.168 16-16 16H272c-8.832 0-16-7.168-16-16s7.168-16 16-16z" fill="undefined"/></svg>