<svg width="1792" height="1792" xmlns="http://www.w3.org/2000/svg"><path d="M544 1088h-96c0-17.664-14.336-32-32-32h-64c-17.664 0-32 14.336-32 32h-96c-17.664 0-32 14.336-32 32v416c0 17.664 14.336 32 32 32h320c17.664 0 32-14.336 32-32v-416c0-17.664-14.336-32-32-32zm0 416H224v-384h64c0 17.664 14.336 32 32 32h128c17.664 0 32-14.336 32-32h64v384zm-288-272c0 8.832 7.168 16 16 16h224c8.832 0 16-7.168 16-16s-7.168-16-16-16H272c-8.832 0-16 7.168-16 16zm240 80H272c-8.832 0-16 7.168-16 16s7.168 16 16 16h224c8.832 0 16-7.168 16-16s-7.168-16-16-16zm0 96H272c-8.832 0-16 7.168-16 16s7.168 16 16 16h224c8.832 0 16-7.168 16-16s-7.168-16-16-16z" fill="undefined"/></svg>