<?xml version="1.0" encoding="utf-8"?>
<svg width="1792" height="1792" xmlns="http://www.w3.org/2000/svg"><path d="M544 1312c-1.12 0-2.176.288-3.264.32A160.466 160.466 0 0 0 544 1280c0-88.352-71.648-160-160-160s-160 71.648-160 160c0 .544.16 1.056.16 1.6-54.272 7.744-96.16 53.984-96.16 110.4 0 61.856 50.144 112 112 112h80.256c17.536 0 31.744-14.208 31.744-31.744V1376h-67.904L384 1248l99.904 128H416v96.256c0 17.536 14.208 31.744 31.744 31.744H544c53.024 0 96-42.976 96-96s-42.976-96-96-96z" fill="undefined"/></svg>