<svg width="1792" height="1792" xmlns="http://www.w3.org/2000/svg"><path d="M448 1280H320v160c0 32-64 78.336-64 96v16c0 8.832 7.168 16 16 16h224c8.832 0 16-7.168 16-16v-16c0-17.664-64-64-64-96v-160zm50.656-191.456V1088h-32v.544c-.896-.16-1.696-.544-2.656-.544-8.832 0-16 7.168-16 16v16h-32v-16c0-7.904-5.824-14.144-13.344-15.456V1088h-32v.544c-.896-.16-1.696-.544-2.656-.544-8.832 0-16 7.168-16 16v16h-32v-16c0-7.904-5.824-14.144-13.344-15.456V1088h-32v.544c-.896-.16-1.696-.544-2.656-.544-8.832 0-16 7.168-16 16v80c0 8.48 3.36 16.64 9.376 22.624l32 32A31.97 31.97 0 0 0 320 1248h128c8.48 0 16.64-3.36 22.624-9.376l32-32C508.64 1200.64 512 1192.48 512 1184v-80c0-7.904-5.824-14.144-13.344-15.456z" fill="undefined"/></svg>