<svg width="64" height="64" viewBox="0 0 512 512" xmlns="http://www.w3.org/2000/svg"><path d="M225.216 111.648c-33.888-33.824-76.448-36.672-106.048-7.072-29.6 29.568-26.784 72.192 7.04 106.048l183.168 183.168c6.24 6.24 16.384 6.24 22.624 0s6.24-16.384 0-22.624L148.832 188c-16.416-16.416-26.88-40.992-7.072-60.8 19.776-19.808 44.384-9.312 60.8 7.104L406.208 337.92c58.4 58.464 72.96 85.408 38.176 120.224-35.2 35.168-72.512 26.464-128.704-29.696L89.44 202.144C52.896 165.6 27.296 105.92 75.328 57.92c57.024-57.024 122.144-.96 140.704 17.632l207.872 207.904c6.24 6.24 16.384 6.24 22.624 0s6.24-16.384 0-22.624L238.656 52.928C175.808-9.92 104.544-16.64 52.672 35.296.256 87.68 5.92 163.84 66.816 224.768L293.088 451.04c19.232 19.232 60.416 60.384 107.776 60.384 21.28 0 43.84-8.352 66.176-30.688 63.584-63.616 4.768-122.496-38.176-165.472L225.216 111.648z"/></svg>