<svg width="64" height="64" viewBox="0 0 512 512" xmlns="http://www.w3.org/2000/svg"><path d="M139.04 284.352a32.07 32.07 0 0 0-7.168 28.352c2.304 10.048 9.344 18.368 18.848 22.336 22.72 9.504 61.344 15.52 105.312 16.736 0 .064-.032.128-.032.224v96c0 17.664 7.168 64 16 64s16-46.336 16-64v-96c0-.096-.032-.16-.032-.256 43.968-1.184 82.592-7.232 105.312-16.736 9.504-3.968 16.544-12.288 18.848-22.336 2.304-10.048-.352-20.608-7.168-28.32-13.12-14.88-36.032-23.104-52.96-27.392V91.2c16.736-5.664 30.944-12.768 42.176-21.056 9.6-7.072 14.464-18.944 12.608-30.72s-10.112-21.568-21.44-25.376C369.728 8.8 334.208 0 272 0c-65.76 0-102.08 10.144-114.656 14.496a31.988 31.988 0 0 0-21.12 25.28c-1.824 11.648 2.944 23.392 12.384 30.528C160 78.848 174.56 86.08 191.968 91.776H192V256.96c-16.896 4.256-39.84 12.48-52.96 27.392zm62.912-222.976c-16.704-5.472-27.552-11.712-34.112-16.672C184.864 38.816 219.328 32 272 32c51.648 0 85.856 6.56 103.2 12.384-6.784 4.992-17.536 11.104-33.472 16.512L320 68.256v213.6l24.128 6.112c17.696 4.48 31.072 11.008 36.8 17.536C366.112 311.68 330.112 320 272 320s-94.112-8.32-108.928-14.496c5.76-6.528 19.136-13.056 36.8-17.536L224 281.856V68.576l-22.048-7.2z"/></svg>