<?xml version="1.0" encoding="utf-8"?>
<svg width="1792" height="1792" xmlns="http://www.w3.org/2000/svg"><path d="M607.584 1056c-17.92 0-32.416 14.528-32.416 32.416V1164c-36.544-44.256-78.656-108-194.56-108C241.344 1056 128 1169.312 128 1308.608s113.344 252.608 252.608 252.608c109.376 0 205.824-69.856 240.064-173.824 5.664-17.312-3.744-35.968-21.056-41.664-17.312-5.696-35.968 3.712-41.664 21.024-25.28 76.832-96.544 128.448-177.344 128.448-102.912 0-186.624-83.712-186.624-186.624s83.712-186.24 186.624-186.24c72.864 0 113.344 45.344 146.368 92.896h-81.504c-17.92 0-32.416 14.528-32.416 32.416 0 17.92 14.528 32.416 32.416 32.416h162.112c17.888.064 32.416-14.464 32.416-32.352v-159.296c0-17.888-14.528-32.416-32.416-32.416z" fill="undefined"/></svg>