<?xml version="1.0" encoding="utf-8"?>
<svg width="1792" height="1792" xmlns="http://www.w3.org/2000/svg"><path d="M371.392 1318.784c45.984 0 83.392-37.408 83.392-83.392 0-45.984-37.408-83.392-83.392-83.392S288 1189.408 288 1235.392c0 45.984 37.408 83.392 83.392 83.392zm0-134.784c28.32 0 51.392 23.04 51.392 51.392s-23.04 51.392-51.392 51.392S320 1263.712 320 1235.392 343.04 1184 371.392 1184zm-11.648 375.328c2.688 2.976 5.28 4.896 7.776 6.24.032.032.096.032.128.064 1.728.896 3.424 1.568 5.024 1.568s3.296-.672 5.024-1.568c.032-.032.096-.032.128-.064 2.496-1.344 5.088-3.264 7.776-6.24 0 0 148.736-161.76 163.68-301.92.896-7.232 1.504-14.56 1.504-22.016 0-99.072-80.32-179.392-179.392-179.392S192 1136.32 192 1235.392c0 7.584.608 14.976 1.536 22.304 15.328 140.096 166.208 301.632 166.208 301.632zM371.392 1088c81.28 0 147.392 66.112 147.392 147.392 0 5.408-.384 11.168-1.312 18.624-11.456 107.392-112.288 233.408-144.768 271.744-33.312-38.4-135.584-164.096-147.424-272-.864-7.072-1.28-12.896-1.28-18.368 0-81.28 66.112-147.392 147.392-147.392z" fill="undefined"/></svg>