<svg width="1792" height="1792" xmlns="http://www.w3.org/2000/svg"><path d="M318.016 1456.832c-19.84 0-37.632-8.608-50.144-22.112-22.112-23.84-38.24-8.832-43.072 14.624C200.32 1568.928 235.68 1568 235.68 1568l340.16.928c35.36 0 64-28.64 64-64v-224c0-35.36 4.096-85.408-28.16-70.912-24.416 10.944-56.512 17.504-106.816 7.136-23.456-4.832-38.464-20.96-14.624-43.072 13.504-12.512 22.112-30.272 22.112-50.144C512.32 1086.4 481.92 1056 444.416 1056c-37.536 0-67.936 30.4-67.936 67.936 0 21.248 11.072 38.784 25.056 52.704 8.416 8.384 30.624 30.304-26.208 40.32-62.496 10.976-122.432-24.352-134.496-11.52-8 8.48-30.016 40.48-15.872 115.52 10.752 57.12 32 33.472 40.352 25.056 13.92-13.984 31.456-25.056 52.704-25.056 37.504 0 67.936 30.4 67.936 67.936 0 37.504-30.4 67.936-67.936 67.936z" fill="undefined"/></svg>