<svg width="64" height="64" viewBox="0 0 512 512" xmlns="http://www.w3.org/2000/svg"><path d="M224 80c0-42.816-37.184-80-80-80S64 37.184 64 80s37.184 80 80 80 80-37.184 80-80zm56 304c0-128-66.432-192-140-192S0 256 0 384c0 87.68 280 87.68 280 0zm96-161.76c42.816 0 80-37.184 80-80s-37.184-80-80-80-80 37.184-80 80 37.184 80 80 80zm-4 32c-22.112 0-43.296 6.496-62.496 18.08C321.12 303.552 328 340.576 328 384c0 43.104-28.736 76.672-78.048 95.872C311.104 531.648 512 520.608 512 446.24c0-128-66.432-192-140-192z"/></svg>