<svg width="64" height="64" viewBox="0 0 512 512" xmlns="http://www.w3.org/2000/svg"><path d="M480 480V224c0-17.664-14.336-32-32-32H127.84l.16-13.568C128 92.224 181.248 32 257.536 32c55.84 0 105.6 32.096 129.888 83.776 3.744 8 13.248 11.424 21.28 7.648 8-3.744 11.424-13.28 7.648-21.28C386.752 39.168 325.92 0 257.536 0 163.936 0 96 75.04 96 178.24L95.84 192H64c-17.664 0-32 14.336-32 32v256c0 17.664 14.336 32 32 32h384c17.664 0 32-14.336 32-32zM64 224h384v256H64V224zm192 64c-35.36 0-64 28.64-64 64s28.64 64 64 64 64-28.64 64-64-28.64-64-64-64zm0 96c-17.632 0-32-14.368-32-32s14.368-32 32-32 32 14.368 32 32-14.368 32-32 32z"/></svg>