<?xml version="1.0" encoding="utf-8"?>
<svg width="1792" height="1792" xmlns="http://www.w3.org/2000/svg"><path d="M401.056 1090.144c-61.152 0-122.304 23.328-168.96 69.984-93.312 93.312-93.312 244.608 0 337.888 46.688 46.656 107.808 69.984 168.96 69.984s122.304-23.328 168.96-69.984c93.312-93.312 93.312-244.608 0-337.888-46.656-46.656-107.808-69.984-168.96-69.984zm146.336 385.248C508.32 1514.464 456.352 1536 401.056 1536c-55.264 0-107.232-21.536-146.336-60.608-39.072-39.072-60.608-91.04-60.608-146.336s21.536-107.232 60.608-146.336c39.072-39.072 91.04-60.608 146.336-60.608 55.264 0 107.232 21.536 146.336 60.608S608 1273.792 608 1329.056s-21.536 107.264-60.608 146.336zM496 1312h-80v-112.224c0-8.832-7.168-16-16-16s-16 7.168-16 16V1328c0 8.832 7.168 16 16 16h96c8.832 0 16-7.168 16-16s-7.168-16-16-16z" fill="undefined"/></svg>