<svg width="64" height="64" viewBox="0 0 512 512" xmlns="http://www.w3.org/2000/svg"><path d="M414.24 160.064c.896-13.376 1.44-24.224 1.728-30.72.352-8.704-2.848-17.184-8.864-23.488S392.704 96 384 96H32c-8.704 0-17.056 3.552-23.104 9.856S-.32 120.64.032 129.344c1.76 42.272 13.664 255.936 74.624 310.496A32.014 32.014 0 0 0 96 448h224a32.014 32.014 0 0 0 21.344-8.16c19.104-17.12 33.408-49.856 44.064-88.064 15.84-.064 26.784-.096 28.064-.096 54.432 0 98.56-39.68 98.56-95.84-.032-76.256-65.952-95.488-97.792-95.776zm-.8 143.616l-10.144.032c-1.92 0-4.352 0-6.72.032 6.368-32.8 10.72-66.432 13.664-95.744h3.2c8.448 0 50.56 2.304 50.56 47.84 0 32.864-26.208 47.84-50.56 47.84z"/></svg>