<svg width="64" height="64" viewBox="0 0 512 512" xmlns="http://www.w3.org/2000/svg"><path d="M399.456 320l-12.128-32H124.672l-12.128 32L64 448h384l-48.544-128zm-252.672 0h218.464l36.416 96H110.368l36.416-96zm182.048-96h34.24l-12.128-32-65.088-171.552C281.088 8.128 269.216 0 256 0s-25.088 8.128-29.856 20.448L161.088 192l-12.128 32h179.872zM256 32l60.672 160H195.328L256 32zm239.744 448H16.256C7.264 480 0 486.784 0 495.744S7.264 512 16.256 512h479.488c8.992 0 16.256-7.264 16.256-16.256S504.736 480 495.744 480z"/></svg>