<svg width="1792" height="1792" xmlns="http://www.w3.org/2000/svg"><path d="M608 1152H448v64c0 17.664-14.336 32-32 32h16c26.496 0 48-21.504 48-48 0-6.08-.096-11.36-.288-16H608v352H160v-352h128.288c-.192 4.64-.288 9.92-.288 16 0 26.496 21.504 48 48 48h16c-17.664 0-32-14.336-32-32v-64H160c-17.664 0-32 14.336-32 32v352c0 17.664 14.336 32 32 32h448c17.664 0 32-14.336 32-32v-352c0-17.664-14.336-32-32-32zm-45.344 224H368c-8.832 0-16 7.168-16 16s7.168 16 16 16h194.656c8.832 0 16-7.168 16-16s-7.168-16-16-16zm0 64H368c-8.832 0-16 7.168-16 16s7.168 16 16 16h194.656c8.832 0 16-7.168 16-16s-7.168-16-16-16zM368 1344h194.656c8.832 0 16-7.168 16-16s-7.168-16-16-16H368c-8.832 0-16 7.168-16 16s7.168 16 16 16zm-150.72-25.344a38.656 38.656 0 1 0 77.312 0 38.656 38.656 0 1 0-77.312 0zm39.488 54.112c-34.944 0-63.232 37.952-63.232 84.8s126.464 46.816 126.464 0-28.32-84.8-63.232-84.8zM320 1216c0 17.664 14.336 32 32 32h64c17.664 0 32-14.336 32-32v-128c0-17.664-14.336-32-32-32h-64c-17.664 0-32 14.336-32 32v128zm96 0h-64v-128h64v128z" fill="undefined"/></svg>