<svg width="1792" height="1792" xmlns="http://www.w3.org/2000/svg"><path d="M608 1216h-32v-128c0-17.664-14.336-32-32-32H224c-17.664 0-32 14.336-32 32v128h-32c-17.664 0-32 14.336-32 32v160c0 17.664 14.336 32 32 32h32v96c0 17.664 14.336 32 32 32h320c17.664 0 32-14.336 32-32v-96h32c17.664 0 32-14.336 32-32v-160c0-17.664-14.336-32-32-32zm-384 160h320v160H224v-160zm256-80c0-8.832 7.168-16 16-16s16 7.168 16 16-7.168 16-16 16-16-7.168-16-16zm-272 16c-8.832 0-16-7.168-16-16s7.168-16 16-16 16 7.168 16 16-7.168 16-16 16zm352 0c-8.832 0-16-7.168-16-16s7.168-16 16-16 16 7.168 16 16-7.168 16-16 16zm-336-224h320v128H224v-128zm288 336c0-8.832-7.168-16-16-16H272c-8.832 0-16 7.168-16 16s7.168 16 16 16h224c8.832 0 16-7.168 16-16zm-16 48H272c-8.832 0-16 7.168-16 16s7.168 16 16 16h224c8.832 0 16-7.168 16-16s-7.168-16-16-16z" fill="undefined"/></svg>