<svg width="1792" height="1792" xmlns="http://www.w3.org/2000/svg"><path d="M160 1568h416c17.664 0 32-14.336 32-32v-192c0-17.664-14.336-32-32-32h-96c-17.664 0-32 14.336-32 32v-256c0-17.664-14.336-32-32-32h-96c-17.664 0-32 14.336-32 32v128c0-17.664-14.336-32-32-32h-96c-17.664 0-32 14.336-32 32v320c0 17.664 14.336 32 32 32zm0-32v-64h32v64h-32zm32-192v32h-32v-32h32zm-32-32v-32h32v32h-32zm32 96v32h-32v-32h32zm32-32v-32h32v32h-32zm32 32v32h-32v-32h32zm-32-96v-32h32v32h-32zm0 224v-64h32v64h-32zm32-288h-32v-32h32v32zm-64 0h-32v-32h32v32zm192 288v-64h32v64h-32zm-32-320v32h-32v-32h32zm-32-32v-32h32v32h-32zm32 96v32h-32v-32h32zm0 64v32h-32v-32h32zm0 64v32h-32v-32h32zm32-32v-32h32v32h-32zm32 32v32h-32v-32h32zm-32-96v-32h32v32h-32zm0-64v-32h32v32h-32zm0-64v-32h32v32h-32zm32-64h-32v-32h32v32zm-64 0h-32v-32h32v32zm-32 352h32v64h-32v-64zm192-32h-32v-32h32v32zm32-32h32v32h-32v-32zm0 64h32v64h-32v-64zm32-96h-32v-32h32v32zm-64 0h-32v-32h32v32zm-32 96h32v64h-32v-64z" fill="undefined"/></svg>