<svg width="64" height="64" viewBox="0 0 512 512" xmlns="http://www.w3.org/2000/svg"><path d="M272 32C139.456 32 32 139.456 32 272s107.456 240 240 240 240-107.456 240-240S404.544 32 272 32zm111.2 151.424l-89.184 89.184 78.912 87.968c6.24 6.24 6.24 16.384 0 22.624s-16.384 6.24-22.624 0l-78.912-87.968-87.968 87.968c-6.24 6.24-16.384 6.24-22.624 0-6.24-6.24-6.24-16.384 0-22.624l89.184-89.184-78.912-87.968c-6.24-6.24-6.24-16.384 0-22.624 6.24-6.24 16.384-6.24 22.624 0l78.912 87.968 87.968-87.968c6.24-6.24 16.384-6.24 22.624 0 6.24 6.24 6.24 16.384 0 22.624z"/></svg>