<svg width="64" height="64" viewBox="0 0 512 512" xmlns="http://www.w3.org/2000/svg"><path d="M416 0H32C14.336 0 0 14.336 0 32v448c0 17.664 14.336 32 32 32h384c17.664 0 32-14.336 32-32V32c0-17.664-14.336-32-32-32zM32 32h64v448H32V32zm384 448H128V32h288v448zM221.792 171.744a48.448 48.448 0 1 0 96.896 0 48.448 48.448 0 1 0-96.896 0zm49.44 67.808c-43.744 0-79.232 47.584-79.232 106.272s158.496 58.688 158.496 0-35.488-106.272-79.264-106.272zM480 32h32v96h-32zm0 128h32v96h-32zm0 128h32v96h-32z"/></svg>