<svg width="1792" height="1792" xmlns="http://www.w3.org/2000/svg"><path d="M158.368 1526.112c2.624 5.632 8.288 9.216 14.496 9.216 45.92 0 84.768-11.168 128.896-37.184 21.408 3.392 63.68 7.584 82.24 7.584 140.096 0 254.048-93.536 254.048-208.544S524.096 1088.672 384 1088.672s-254.048 93.504-254.048 208.512c0 54.208 26.144 106.592 72.16 145.408-10.432 23.68-24.352 46.016-41.504 66.464-3.968 4.8-4.864 11.456-2.24 17.056zm3.584-228.928c0-97.344 99.616-176.544 222.048-176.544s222.048 79.2 222.048 176.544S506.432 1473.728 384 1473.728c-18.368 0-66.176-4.928-82.336-8.064a16.566 16.566 0 0 0-11.36 2.048c-29.824 18.24-55.84 28.672-83.68 33.088 12-18.176 21.984-37.376 29.76-57.376 2.592-6.688.48-14.24-5.248-18.56-44.64-33.792-69.184-79.168-69.184-127.68z" fill="undefined"/></svg>