<svg width="64" height="64" viewBox="0 0 512 512" xmlns="http://www.w3.org/2000/svg"><path d="M96 224h96c17.664 0 32-14.336 32-32V96c0-17.664-14.336-32-32-32H96c-17.664 0-32 14.336-32 32v96c0 17.664 14.336 32 32 32zm224 0h96c17.664 0 32-14.336 32-32V96c0-17.664-14.336-32-32-32h-96c-17.664 0-32 14.336-32 32v96c0 17.664 14.336 32 32 32zM64 416c0 17.664 14.336 32 32 32h96c17.664 0 32-14.336 32-32v-96c0-17.664-14.336-32-32-32H96c-17.664 0-32 14.336-32 32v96zm224 0c0 17.664 14.336 32 32 32h96c17.664 0 32-14.336 32-32v-96c0-17.664-14.336-32-32-32h-96c-17.664 0-32 14.336-32 32v96z"/></svg>