<?xml version="1.0" encoding="utf-8"?>
<svg width="1792" height="1792" xmlns="http://www.w3.org/2000/svg"><path d="M544 1248H253.536v-29.536c0-54.304 44.16-98.464 98.464-98.464 35.776 0 66.912 19.328 84.128 47.968.16-.192.448-.288.64-.48 5.792 8.256 14.912 14.016 25.76 14.016 17.664 0 32-14.336 32-32 0-4.32-.896-8.448-2.464-12.224-.128-.224-.224-.48-.352-.704-1.408-3.2-3.424-6.016-5.76-8.544C456.832 1084.8 408.064 1056 352 1056c-89.728 0-162.464 72.736-162.464 162.464V1248H160c-17.664 0-32 14.336-32 32v256c0 17.664 14.336 32 32 32h384c17.664 0 32-14.336 32-32v-256c0-17.664-14.336-32-32-32zm-192 224c-35.36 0-64-28.64-64-64s28.64-64 64-64 64 28.64 64 64-28.64 64-64 64z" fill="undefined"/></svg>