<svg width="1792" height="1792" xmlns="http://www.w3.org/2000/svg"><path d="M384 1056c-105.856 0-192 86.144-192 192 0 61.888 30.08 120.32 80.512 156.32a37.359 37.359 0 0 0 2.368 1.536c11.712 6.88 12.864 29.056 12.608 33.12a42.435 42.435 0 0 0-.064 1.984V1504a31.936 31.936 0 0 0 17.44 28.48l64.576 32.992a32.023 32.023 0 0 0 14.56 3.52c4.96 0 9.888-1.152 14.432-3.424l65.344-32.992A31.973 31.973 0 0 0 481.344 1504v-62.656c0-31.584 19.296-42.016 19.488-42.112a31 31 0 0 0 7.072-4.544C551.168 1358.08 576 1304.64 576 1248c0-105.856-86.144-192-192-192zm-64.576 384.992s0-.64.032-.992H449.44c0 .48-.128.832-.128 1.344V1472H319.424v-31.008zm64.576 96L319.456 1504h129.888L384 1536.992zm103.232-166.752s-21.44 10.08-32.064 37.76H314.304c-3.968-11.072-10.848-22.464-23.2-29.728C250.496 1349.28 224 1301.728 224 1248c0-88.352 71.648-160 160-160s160 71.648 160 160c0 49.024-22.048 92.896-56.768 122.24zM400 1120c-8.832 0-16 7.168-16 16s7.168 16 16 16c36 0 80 32.736 80 81.504 0 8.832 7.168 16 16 16s16-7.168 16-16C512 1160.512 455.008 1120 400 1120z" fill="undefined"/></svg>