<svg width="1792" height="1792" xmlns="http://www.w3.org/2000/svg"><path d="M353.216 1167.648c-33.888-33.824-76.448-36.672-106.048-7.072-29.6 29.568-26.784 72.192 7.04 106.048l183.168 183.168c6.24 6.24 16.384 6.24 22.624 0s6.24-16.384 0-22.624L276.832 1244c-16.416-16.416-26.88-40.992-7.072-60.8 19.776-19.808 44.384-9.312 60.8 7.104l203.648 203.616c58.4 58.464 72.96 85.408 38.176 120.224-35.2 35.168-72.512 26.464-128.704-29.696l-226.24-226.304c-36.544-36.544-62.144-96.224-14.112-144.224 57.024-57.024 122.144-.96 140.704 17.632l207.872 207.904c6.24 6.24 16.384 6.24 22.624 0s6.24-16.384 0-22.624l-207.872-207.904c-62.848-62.848-134.112-69.568-185.984-17.632-52.416 52.384-46.752 128.544 14.144 189.472l226.272 226.272c19.232 19.232 60.416 60.384 107.776 60.384 21.28 0 43.84-8.352 66.176-30.688 63.584-63.616 4.768-122.496-38.176-165.472l-203.648-203.616z" fill="undefined"/></svg>