<svg width="1792" height="1792" xmlns="http://www.w3.org/2000/svg"><path d="M384 1056c-141.376 0-256 114.624-256 256s114.624 256 256 256 256-114.624 256-256-114.624-256-256-256zm128.416 251.328c-1.984 32.832-16.8 81.984-76.096 129.824-2.848 2.272-6.176 3.392-9.504 3.392-4.64 0-9.216-2.144-12.256-6.24-5.248-7.04-4.032-17.152 2.752-22.592 48.288-38.944 61.504-77.088 63.84-103.264-6.816 3.968-14.528 6.4-22.88 6.4-26.048 0-47.136-21.92-47.136-48.96s21.088-48.96 47.136-48.96c5.888 0 11.296 1.536 16.448 3.616l-.192-.384s2.272.832 5.44 2.592c.16.096.32.128.48.192.096.064.16.128.256.192 2.176 1.248 4.672 2.912 7.456 5.28 1.184 1.024 2.176 2.208 3.264 3.328 11.616 11.552 24.352 33.6 20.992 75.584zm-209.312 7.52c-26.048 0-47.136-21.92-47.136-48.96s21.12-48.96 47.136-48.96c5.888 0 11.296 1.536 16.448 3.616l-.16-.384s2.272.832 5.44 2.592c.16.096.32.128.48.192.096.064.16.128.256.192 2.176 1.248 4.672 2.912 7.456 5.28 1.184 1.024 2.176 2.208 3.264 3.328 11.616 11.552 24.384 33.6 20.992 75.616-1.984 32.832-16.8 81.984-76.096 129.824-2.848 2.272-6.176 3.392-9.504 3.392-4.64 0-9.216-2.144-12.256-6.24-5.248-7.04-4.032-17.152 2.752-22.592 48.288-38.944 61.504-77.088 63.84-103.264-6.848 3.904-14.56 6.368-22.912 6.368z" fill="undefined"/></svg>