<svg width="1792" height="1792" xmlns="http://www.w3.org/2000/svg"><path d="M592.928 1088.16h-.864c-.256 0-.48-.032-.736 0H390.144c-4.896.224-16.032 7.872-17.472 9.312L137.344 1332.8c-12.48 12.48-12.48 32.704 0 45.184l180.672 180.672a31.915 31.915 0 0 0 22.592 9.344c8.16 0 16.352-3.104 22.592-9.344l235.328-235.328c1.44-1.44 9.472-11.328 9.472-17.472v-201.824c.448-8.928-6.304-15.872-15.072-15.872zM560 1152c-8.832 0-16-7.168-16-16s7.168-16 16-16 16 7.168 16 16-7.168 16-16 16z" fill="undefined"/></svg>