<?xml version="1.0" encoding="utf-8"?>
<svg width="1792" height="1792" xmlns="http://www.w3.org/2000/svg"><path d="M288 1231.008a16.992 16.992 0 1 0 33.984 0 16.992 16.992 0 1 0-33.984 0zM384 1056c-141.376 0-256 114.624-256 256s114.624 256 256 256 256-114.624 256-256-114.624-256-256-256zm-128 175.008c0-27.072 21.952-48.992 48.992-48.992s48.992 21.952 48.992 48.992S332.064 1280 304.992 1280 256 1258.048 256 1231.008zm43.328 188.32a16.07 16.07 0 0 1-22.656 0c-6.24-6.24-6.24-16.384 0-22.624l192-192c6.24-6.24 16.384-6.24 22.624 0s6.24 16.384 0 22.624l-191.968 192zM463.008 1440c-27.072 0-48.992-21.952-48.992-48.992s21.952-48.992 48.992-48.992S512 1363.936 512 1391.008 490.048 1440 463.008 1440zm-16.992-48.992a16.992 16.992 0 1 0 33.984 0 16.992 16.992 0 1 0-33.984 0z" fill="undefined"/></svg>