<?xml version="1.0" encoding="utf-8"?>
<svg width="1792" height="1792" xmlns="http://www.w3.org/2000/svg"><path d="M385.344 1056c-141.376 0-256 114.624-256 256s114.624 256 256 256 256-114.624 256-256-114.624-256-256-256zm118.592 185.184l-122.624 187.424c-.032.032-.096.064-.096.096-.64.96-.992 2.048-1.792 2.944-1.12 1.216-2.56 1.856-3.84 2.784-.32.224-.64.48-.992.704-1.984 1.248-4.032 2.08-6.272 2.624-.736.192-1.408.384-2.176.512-1.824.256-3.552.256-5.376.064-1.28-.096-2.496-.256-3.744-.576-1.28-.352-2.464-.896-3.68-1.472-1.024-.48-2.112-.608-3.072-1.216-.704-.448-1.088-1.152-1.696-1.696-.256-.224-.576-.288-.832-.512l-71.392-66.016c-9.088-8.416-9.632-22.592-1.248-31.648s22.56-9.632 31.648-1.248l51.68 47.808 108-165.088c6.784-10.336 20.64-13.248 31.008-6.496 10.368 6.784 13.28 20.672 6.496 31.008z" fill="undefined"/></svg>