<?xml version="1.0" encoding="utf-8"?>
<svg width="1792" height="1792" xmlns="http://www.w3.org/2000/svg"><path d="M499.424 1065.376a31.99 31.99 0 0 0-22.656-9.376H291.232c-8.48 0-16.64 3.36-22.624 9.376l-131.2 131.232c-6.048 5.984-9.408 14.112-9.408 22.624V1404.8c0 8.48 3.36 16.64 9.376 22.624l131.2 131.232a32.094 32.094 0 0 0 22.656 9.344H476.8c8.48 0 16.64-3.36 22.624-9.376l131.2-131.232c6.016-5.984 9.376-14.112 9.376-22.624v-185.536c0-8.48-3.36-16.64-9.376-22.624l-131.2-131.232zM384 1376c-17.664 0-32-14.336-32-32v-192c0-17.664 14.336-32 32-32s32 14.336 32 32v192c0 17.664-14.336 32-32 32zm32 96c0 17.664-14.336 32-32 32s-32-14.336-32-32 14.336-32 32-32 32 14.336 32 32z" fill="undefined"/></svg>