<svg width="64" height="64" viewBox="0 0 512 512" xmlns="http://www.w3.org/2000/svg"><path d="M244.352 503.328c2.688 2.976 5.28 4.896 7.776 6.24.032.032.096.032.128.064 1.728.896 3.424 1.568 5.024 1.568s3.296-.672 5.024-1.568c.032-.032.096-.032.128-.064 2.496-1.344 5.088-3.264 7.776-6.24 0 0 148.736-161.76 163.68-301.92.896-7.232 1.504-14.56 1.504-22.016C435.392 80.32 355.072 0 256 0S76.608 80.32 76.608 179.392c0 7.584.608 14.976 1.536 22.304 15.328 140.096 166.208 301.632 166.208 301.632zM256 64c63.616 0 115.392 51.776 115.392 115.392 0 63.616-51.776 115.392-115.392 115.392s-115.392-51.776-115.392-115.392C140.608 115.776 192.384 64 256 64z"/></svg>