<svg width="64" height="64" viewBox="0 0 512 512" xmlns="http://www.w3.org/2000/svg"><path d="M256 512c141.376 0 256-114.624 256-256S397.376 0 256 0 0 114.624 0 256s114.624 256 256 256zm0-448c63.712 0 128 36.48 128 118.016 0 47.456-23.52 84.512-69.888 110.016C300.672 299.424 288 314.048 288 320c0 17.664-14.336 32-32 32s-32-14.336-32-32c0-40.608 37.248-71.936 59.264-84.032C315.616 218.112 320 198.656 320 182.016 320 135.008 279.904 128 256 128c-30.816 0-64 20.224-64 64.672 0 17.664-14.336 32-32 32s-32-14.336-32-32C128 109.088 193.952 64 256 64zm0 385.408c-18.208 0-32.96-14.752-32.96-32.96s14.752-32.96 32.96-32.96 32.96 14.752 32.96 32.96-14.752 32.96-32.96 32.96z"/></svg>