<svg width="64" height="64" viewBox="0 0 512 512" xmlns="http://www.w3.org/2000/svg"><path d="M176 400c0-9.504-2.048-18.688-6.08-27.232C159.424 350.432 136.672 336 112 336c-35.296 0-64 28.704-64 64 0 6.304 1.184 12.256 2.88 18.016a127.972 127.972 0 0 0 43.104 43.104c5.76 1.696 11.712 2.88 18.016 2.88 35.296 0 64-28.704 64-64zm-64-32c12.352 0 23.712 7.232 28.992 18.4A31.964 31.964 0 0 1 144 400c0 17.632-14.368 32-32 32s-32-14.368-32-32 14.368-32 32-32zM496 0h-69.248c-3.776 0-7.424 1.344-10.336 3.776l-226.56 191.328C179.424 193.024 169.6 192 160 192 71.776 192 0 263.776 0 352s71.776 160 160 160 160-71.776 160-160c0-16.832-2.688-33.472-8-49.6l48.704-31.648c4.544-2.944 7.296-8 7.296-13.408V199.2l60.832-3.2c7.936-.416 14.336-6.592 15.072-14.496l5.824-61.632 53.152-25.408c5.6-2.688 9.12-8.32 9.12-14.464V16c0-8.832-7.168-16-16-16zm-16 69.92l-52.224 24.96c-5.056 2.432-8.512 7.328-9.024 12.928l-5.376 56.928L351.168 168c-8.512.48-15.168 7.488-15.168 16v64.64l-52.224 33.952c-6.496 4.224-9.056 12.512-6.016 19.648C284.576 318.272 288 335.008 288 352c0 70.592-57.408 128-128 128-24.224 0-46.656-7.136-66.016-18.88a127.972 127.972 0 0 1-43.104-43.104C39.136 398.656 32 376.224 32 352c0-70.592 57.408-128 128-128 9.44 0 19.36 1.312 30.336 3.968 4.96 1.216 10.208 0 14.112-3.328L432.608 32H480v37.92z"/></svg>