<?xml version="1.0" encoding="utf-8"?>
<svg width="1792" height="1792" xmlns="http://www.w3.org/2000/svg"><path d="M608 1152h-32v-64c0-17.664-14.336-32-32-32H160c-17.664 0-32 14.336-32 32v352c0 17.664 14.336 32 32 32h32v64c0 17.664 14.336 32 32 32h384c17.664 0 32-14.336 32-32v-352c0-17.664-14.336-32-32-32zm-448 288v-352h384v352H160zm448 96H224v-64h32v32h320v-320h32v352zm-243.36-348.992a44.512 44.512 0 1 0 89.024 0 44.512 44.512 0 1 0-89.024 0zM288 1216l-96 64v128h320v-160l-128 64z" fill="undefined"/></svg>