<svg width="64" height="64" viewBox="0 0 512 512" xmlns="http://www.w3.org/2000/svg"><path d="M486.944 64.768l-144-64A31.631 31.631 0 0 0 336 0c-2.08 0-4.192.192-6.24.608L175.712 63.296 38.976.768A32.136 32.136 0 0 0 32 0c-7.2 0-14.272 2.432-20 7.04A31.91 31.91 0 0 0 0 32v384c0 14.976 10.4 27.968 25.024 31.232l143.328 64c2.304.512 4.64.768 6.976.768 2.08 0 4.192-.192 6.24-.608l154.048-62.688 137.408 62.528c2.336.512 4.672.768 6.976.768 7.2 0 14.304-2.432 20.032-7.04C507.584 498.88 512 489.696 512 480V96c0-15.008-10.432-28-25.056-31.232zM192 89.376L320 38.4v384l-128 50.976v-384zM32 32l128 57.152v384L32 416V32zm448 448l-128-56.896v-384L480 96v384z"/></svg>