<svg width="64" height="64" viewBox="0 0 512 512" xmlns="http://www.w3.org/2000/svg"><path d="M448 64c-8.992-20-25.312-32-43.008-32H104c-17.664 0-32 12-40 32L0 320v144.512c0 8.832 7.168 16 16 16h480c8.832 0 16-7.168 16-16V321.984l-.416-1.472L448 64zM94.24 74.656C95.712 71.36 99.456 64 104 64h300.992c4.384 0 9.44 4.512 12.992 11.392l56.352 229.024c0 .064-.096 0-.096.064 0 8.832-7.168 16-16 16-.032 0-.032.032-.064.032H336c-8.832 0-16 7.168-16 16V368c0 8.832-7.168 16-16 16-.32 0-.64.416-.96.512h-94.496c-.224-.096-.224-.512-.544-.512-8.832 0-16-7.168-16-16v-31.488c0-8.832-7.168-16-16-16H53.824c-.032 0-.032-.032-.064-.032-8.832 0-16.256-7.168-16.256-16 0-.224-.256-.064-.32-.224l57.056-229.6z"/></svg>