<svg width="64" height="64" viewBox="0 0 512 512" xmlns="http://www.w3.org/2000/svg"><path d="M179.968 375.104c-14.4 0-27.808-5.632-37.76-15.84-27.392-28.224-61.344-15.904-69.376 21.472-12.96 60.48-11.712 99.232 3.84 118.496 8.928 11.072 19.424 11.904 22.4 11.904l333.92.864c43.456 0 78.848-34.048 78.848-75.904v-209.6l.096-10.016c.288-25.76.608-52.384-13.088-66.208-9.056-9.184-22.112-11.136-36.896-4.832-27.328 11.68-56.96 13.248-95.456 5.696-9.632-1.92-13.44-5.056-13.312-4.64 0-.032.64-2.848 6.432-7.968 17.216-15.264 27.104-36.704 27.104-58.944C386.688 35.68 349.6 0 304 0c-45.568 0-82.656 35.68-82.656 79.552 0 21.824 9.984 42.304 29.664 60.96.928.928 2.816 2.72 4.288 4.384-3.2 1.568-9.568 3.872-21.728 5.92-31.808 5.344-63.136-2.208-87.104-7.872-26.752-6.304-43.776-8.384-53.664 1.664-11.072 11.2-35.104 45.472-19.872 122.464 2.304 11.776 9.408 47.616 36.64 47.616 13.472 0 23.552-9.76 29.792-15.744 39.616-38.112 91.296-10.848 91.296 28.608-.032 26.208-22.752 47.552-50.688 47.552zm0-127.136c-22.4 0-43.52 9.376-63.616 28.672-1.088 1.088-3.52 3.392-5.472 4.864-1.568-2.688-4.16-8.576-6.56-20.64-11.52-58.24 3.136-83.84 9.408-91.68 5.408.16 15.104 2.464 25.408 4.896 19.872 4.672 44.608 10.496 71.936 10.496 9.6 0 18.976-.736 27.808-2.208 18.304-3.072 43.328-9.376 49.12-28.352 5.312-17.472-8.928-30.976-15.072-36.768-13.184-12.512-19.584-24.8-19.584-37.696C253.344 53.344 276.064 32 304 32s50.688 21.344 50.688 47.552c0 13.248-5.792 25.664-16.288 34.944-17.984 15.872-18.752 30.24-16.224 39.488 3.808 14.08 17.728 24.48 38.08 28.48 44.8 8.768 81.088 6.496 114.24-7.616 1.024-.48 1.824-.704 2.24-.928 3.552 7.168 3.296 30.56 3.168 42.176l-.096 220c0 24.192-20.992 43.904-46.816 43.904l-330.88-.288c-.16-.128-15.04-13.184 1.984-92.256 1.76-8.288 5.024-11.968 5.856-12.352 0 0 3.2.16 9.28 6.432 16 16.48 37.568 25.536 60.672 25.536 45.568 0 82.656-35.68 82.656-79.552s-37.024-79.552-82.592-79.552z"/></svg>