<svg width="1792" height="1792" xmlns="http://www.w3.org/2000/svg"><path d="M384 1056c-65.504 0-131.04 24.992-181.024 74.976-99.968 99.968-99.968 262.08 0 362.048C252.96 1543.008 318.496 1568 384 1568s131.04-24.992 181.024-74.976c99.968-99.968 99.968-262.08 0-362.048C515.04 1080.992 449.504 1056 384 1056zm-90.496 346.496C269.312 1378.336 256 1346.176 256 1312c0-34.176 13.312-66.336 37.504-90.496C317.664 1197.312 349.824 1184 384 1184s66.336 13.312 90.496 37.504C498.688 1245.664 512 1277.824 512 1312c0 34.176-13.312 66.336-37.504 90.496C450.336 1426.688 418.176 1440 384 1440s-66.336-13.312-90.496-37.504zM482.976 1111.2l-49.376 49.376c-16.128-5.28-32.8-8.576-49.6-8.576-15.296 0-30.432 2.912-45.248 7.264l-49.92-49.92C318.272 1095.552 350.528 1088 384 1088c34.944 0 68.544 8.16 98.976 23.2zm-301.6 105.664l49.92 49.92c-9.152 31.04-8.768 64 1.28 94.848l-49.376 49.376c-15.04-30.464-23.2-64.064-23.2-99.008 0-33.472 7.552-65.728 21.376-95.136zm44.224 253.504c0 .032 0 .032 0 0zm67.104 46.08l50.432-50.432c13.408 3.552 27.072 5.984 40.864 5.984 15.296 0 30.432-2.912 45.248-7.296l49.92 49.92C449.728 1528.448 417.472 1536 384 1536c-32.032 0-62.912-6.88-91.296-19.552zm293.856-109.376l-49.824-49.824c8.288-28.128 8.768-57.792 1.28-86.112l50.336-50.336c26.336 59.232 25.728 127.456-1.792 186.272z" fill="undefined"/></svg>