<?xml version="1.0" encoding="utf-8"?>
<svg width="1792" height="1792" xmlns="http://www.w3.org/2000/svg"><path d="M400 1088c-132.544 0-240 107.456-240 240s107.456 240 240 240 240-107.456 240-240-107.456-240-240-240zm175.008 128h-47.68c-9.28-29.184-22.016-54.752-37.376-75.264 34.816 16.8 64.288 42.944 85.056 75.264zM416 1216v-93.376c30.24 8.928 59.712 42.464 77.856 93.376H416zm87.168 32c4.512 19.584 7.424 41.024 8.352 64H416v-64h87.168zM384 1122.624V1216h-77.856c18.144-50.912 47.616-84.448 77.856-93.376zM384 1248v64h-95.52c.928-22.976 3.84-44.416 8.352-64H384zm-127.52 64H192.8c1.728-22.496 6.88-44.064 15.232-64h56.32c-4.288 20.256-6.976 41.664-7.872 64zm0 32c.896 22.336 3.584 43.744 7.872 64h-56.32c-8.352-19.936-13.504-41.504-15.232-64h63.68zm32 0H384v64h-87.168c-4.512-19.584-7.424-41.024-8.352-64zm95.52 96v93.376c-30.24-8.928-59.712-42.464-77.856-93.376H384zm32 93.376V1440h77.856c-18.144 50.912-47.616 84.448-77.856 93.376zM416 1408v-64h95.52c-.928 22.976-3.84 44.416-8.352 64H416zm127.52-64h63.68c-1.728 22.496-6.88 44.064-15.232 64h-56.32c4.288-20.256 6.976-41.664 7.872-64zm0-32c-.896-22.336-3.584-43.744-7.872-64h56.32c8.352 19.936 13.504 41.504 15.232 64h-63.68zm-233.472-171.264c-15.328 20.512-28.096 46.08-37.376 75.264h-47.68c20.768-32.32 50.24-58.464 85.056-75.264zM224.992 1440h47.68c9.28 29.184 22.016 54.752 37.376 75.264-34.816-16.8-64.288-42.944-85.056-75.264zm264.96 75.264c15.328-20.512 28.096-46.08 37.376-75.264h47.68c-20.768 32.32-50.24 58.464-85.056 75.264z" fill="undefined"/></svg>