<svg width="64" height="64" viewBox="0 0 512 512" xmlns="http://www.w3.org/2000/svg"><path d="M64 512h384c35.36 0 64-28.64 64-64v-32c0-1.504-.352-2.912-.448-4.352.096-1.632.448-3.488.448-4.992L480 64c-1.984-31.328-28.64-64-64-64H96C60.64 0 33.984 32.672 32 64L0 406.656c0 1.504.352 3.36.448 4.96C.352 413.088 0 414.496 0 416v32c0 35.36 28.64 64 64 64zm-32-64v-32c0-17.632 14.368-32 32-32h384c17.632 0 32 14.368 32 32v32c0 17.632-14.368 32-32 32H64c-17.632 0-32-14.368-32-32zm384-16a16 16 0 1 0 32 0 16 16 0 1 0-32 0zm-60.672-.672a16 16 0 1 0 32 0 16 16 0 1 0-32 0zM80 448h224c8.832 0 16-7.168 16-16s-7.168-16-16-16H80c-8.832 0-16 7.168-16 16s7.168 16 16 16z"/></svg>