<svg width="64" height="64" viewBox="0 0 512 512" xmlns="http://www.w3.org/2000/svg"><path d="M12.768 487.296c23.936 31.072 73.376 33.088 110.432 4.544 15.072-11.616 25.504-26.528 31.296-42.176 3.328-6.592 5.504-15.936 5.504-26.624V183.904l288-54.432v126.272c0 44.544-34.08 54.784-46.144 57.056-1.056.128-2.08.384-3.136.576l-1.344.16.192.064c-14.272 2.592-28.64 8.576-41.536 18.496-37.056 28.544-47.712 76.864-23.776 107.936 23.936 31.072 73.376 33.12 110.432 4.576 18.752-14.464 30.688-33.984 34.848-53.76 1.44-4.8 2.464-10.08 2.464-16.064V64.192c0-1.952-.384-3.616-.544-5.472.064-.96.544-2.048.544-3.008v-32c0-17.664-14.336-27.648-32-22.24L160 55.904C142.336 61.28 128 80 128 97.664v32c0 .448.224.768.256 1.184-.032.96-.256 1.792-.256 2.752v169.408c0 44.608-34.176 54.816-46.208 57.056-.608.096-1.216.288-1.856.384-1.568.256-2.592.352-2.592.352l.352.16c-14.144 2.656-28.384 8.576-41.152 18.4-37.056 28.544-47.68 76.864-23.776 107.936z"/></svg>