<svg width="64" height="64" viewBox="0 0 512 512" xmlns="http://www.w3.org/2000/svg"><path d="M479.584 0c-17.92 0-32.416 14.528-32.416 32.416V108C410.624 63.744 368.512 0 252.608 0 113.344 0 0 113.312 0 252.608s113.344 252.608 252.608 252.608c109.376 0 205.824-69.856 240.064-173.824 5.664-17.312-3.744-35.968-21.056-41.664-17.312-5.696-35.968 3.712-41.664 21.024-25.28 76.832-96.544 128.448-177.344 128.448-102.912 0-186.624-83.712-186.624-186.624s83.712-186.24 186.624-186.24c72.864 0 113.344 45.344 146.368 92.896h-81.504c-17.92 0-32.416 14.528-32.416 32.416 0 17.92 14.528 32.416 32.416 32.416h162.112C497.472 224.128 512 209.6 512 191.712V32.416C512 14.528 497.472 0 479.584 0z"/></svg>