<svg width="64" height="64" viewBox="0 0 512 512" xmlns="http://www.w3.org/2000/svg"><path d="M64 160h64c17.664 0 32-14.336 32-32V64c0-17.664-14.336-32-32-32H64c-17.664 0-32 14.336-32 32v64c0 17.664 14.336 32 32 32zm160 0h64c17.664 0 32-14.336 32-32V64c0-17.664-14.336-32-32-32h-64c-17.664 0-32 14.336-32 32v64c0 17.664 14.336 32 32 32zm160 0h64c17.664 0 32-14.336 32-32V64c0-17.664-14.336-32-32-32h-64c-17.664 0-32 14.336-32 32v64c0 17.664 14.336 32 32 32zM32 288c0 17.664 14.336 32 32 32h64c17.664 0 32-14.336 32-32v-64c0-17.664-14.336-32-32-32H64c-17.664 0-32 14.336-32 32v64zm160 0c0 17.664 14.336 32 32 32h64c17.664 0 32-14.336 32-32v-64c0-17.664-14.336-32-32-32h-64c-17.664 0-32 14.336-32 32v64zm160 0c0 17.664 14.336 32 32 32h64c17.664 0 32-14.336 32-32v-64c0-17.664-14.336-32-32-32h-64c-17.664 0-32 14.336-32 32v64zM32 448c0 17.664 14.336 32 32 32h64c17.664 0 32-14.336 32-32v-64c0-17.664-14.336-32-32-32H64c-17.664 0-32 14.336-32 32v64zm160 0c0 17.664 14.336 32 32 32h64c17.664 0 32-14.336 32-32v-64c0-17.664-14.336-32-32-32h-64c-17.664 0-32 14.336-32 32v64zm160 0c0 17.664 14.336 32 32 32h64c17.664 0 32-14.336 32-32v-64c0-17.664-14.336-32-32-32h-64c-17.664 0-32 14.336-32 32v64z"/></svg>