<?xml version="1.0" encoding="utf-8"?>
<svg width="1792" height="1792" xmlns="http://www.w3.org/2000/svg"><path d="M432 1056c-114.88 0-208 93.12-208 208 0 49.44 17.312 94.752 46.112 130.464l-135.584 135.584c-8.672 8.672-8.672 22.752 0 31.424s22.752 8.672 31.424 0l135.584-135.584C337.248 1454.688 382.56 1472 432 1472c114.88 0 208-93.12 208-208s-93.12-208-208-208zm0 384c-97.056 0-176-78.944-176-176s78.944-176 176-176 176 78.944 176 176-78.944 176-176 176zm96-192h-80v-80c0-8.832-7.168-16-16-16s-16 7.168-16 16v80h-80c-8.832 0-16 7.168-16 16s7.168 16 16 16h80v80c0 8.832 7.168 16 16 16s16-7.168 16-16v-80h80c8.832 0 16-7.168 16-16s-7.168-16-16-16z" fill="undefined"/></svg>