<svg width="64" height="64" viewBox="0 0 512 512" xmlns="http://www.w3.org/2000/svg"><path d="M252.736 128.224c12.416-12.416 18.656-27.648 18.656-45.664 0-17.536-6.24-32.544-18.656-44.96-12.384-12.384-27.68-18.592-45.696-18.592-17.472 0-32.48 6.208-44.896 18.592-12.416 12.448-18.656 27.424-18.656 44.96 0 18.016 6.24 33.248 18.656 45.664 12.448 12.416 27.424 18.624 44.896 18.624 18.016 0 33.312-6.208 45.696-18.624zm56.992 13.888c7.552 7.552 16.32 13.504 26.304 17.888 9.984 4.352 20.864 6.56 32.512 6.56 11.712 0 22.528-2.208 32.512-6.56 9.984-4.416 18.72-10.336 26.304-17.888 7.552-7.552 13.536-16.32 17.92-26.304 4.384-9.984 6.592-20.8 6.592-32.544 0-11.68-2.176-22.496-6.592-32.512-4.352-9.984-10.368-18.752-17.92-26.304-7.552-7.552-16.288-13.536-26.304-17.888-9.952-4.384-20.8-6.56-32.512-6.56-11.648 0-22.528 2.176-32.512 6.56-9.984 4.352-18.752 10.336-26.304 17.888-7.52 7.584-13.472 16.352-17.888 26.336-4.384 9.984-6.592 20.8-6.592 32.512s2.208 22.528 6.592 32.544c4.416 9.952 10.368 18.72 17.888 26.272zm-224.704-9.856c13.664 0 25.088-4.736 34.368-14.24 9.248-9.536 13.856-21.088 13.856-34.752 0-13.152-4.64-24.48-13.856-33.952-9.28-9.504-20.704-14.272-34.368-14.272-13.6 0-25.216 4.768-34.656 14.272-9.536 9.472-14.272 20.8-14.272 33.952 0 13.664 4.768 25.216 14.272 34.72 9.472 9.504 21.056 14.272 34.656 14.272zM448.96 232.352c-10.208-10.24-22.304-18.272-36.16-24.128-13.92-5.856-28.672-8.768-44.256-8.768s-30.208 2.912-43.808 8.768c-13.664 5.856-25.568 13.664-35.808 23.392-4.864-18.016-14.752-32.96-29.6-44.928-14.88-11.936-32.288-17.92-52.288-17.92-12.672 0-24.576 2.688-35.808 8.032-11.136 5.408-20.928 12.928-29.152 22.656-3.488-12.64-10.24-23.232-20.48-31.776-10.208-8.544-22.4-12.768-36.576-12.768-16.544 0-30.56 5.728-41.984 17.152C31.584 183.488 32 197.536 32 214.08v102.432h84.128v83.872h140.96V512h225.024V312.704c0-15.584-2.592-30.336-8.704-44.192-6.08-13.888-14.24-25.952-24.448-36.16z"/></svg>