<svg width="64" height="64" viewBox="0 0 512 512" xmlns="http://www.w3.org/2000/svg"><path d="M416 0H96C42.976 0 0 42.976 0 96v320c0 53.024 42.976 96 96 96h320c53.024 0 96-42.976 96-96V96c0-53.024-42.976-96-96-96zm-90.592 407.392c-16.32 0-31.552-4.672-44.48-12.704-8.32 1.504-16.864 2.368-25.664 2.368-77.92 0-141.056-62.816-141.056-140.32 0-7.52.608-14.912 1.76-22.112C107.36 221.44 102.4 205.696 102.4 188.8c0-46.496 37.664-84.16 84.16-84.192 16.96 0 32.704 5.024 45.952 13.664a139.547 139.547 0 0 1 22.72-1.856c77.888 0 141.056 62.848 141.056 140.32 0 6.464-.48 12.8-1.312 19.04 9.248 13.536 14.624 29.856 14.624 47.424 0 46.496-37.664 84.192-84.192 84.192zm-87.84-177.664c-40.768-9.92-18.464-44.8 14.56-44.288 32.064.512 48.352 34.368 62.88 32.608 14.56-1.76 26.944-23.552 4.064-43.072-19.776-16.896-44.8-26.208-83.264-22.72-30.144 2.72-58.784 22.144-62.304 59.968-3.488 37.856 41.376 57.088 76.896 62.368 24.896 3.648 58.816 15.712 38.432 39.008-18.72 21.408-54.176 8.16-63.488 2.336-9.312-5.856-19.808-26.816-37.28-25.664-17.504 1.184-26.112 24.128-4.64 44.288 19.232 18.016 40.192 27.968 85.024 25.6 44.864-2.336 85.056-41.92 69.312-79.2s-59.424-41.344-100.192-51.232z"/></svg>