<?xml version="1.0" encoding="utf-8"?>
<svg width="1792" height="1792" xmlns="http://www.w3.org/2000/svg"><path d="M617.856 1313.248c0-129.152-105.28-233.888-235.104-233.888a233.947 233.947 0 0 0-37.856 3.072c-22.08-14.4-48.352-22.752-76.608-22.752C190.752 1059.68 128 1122.496 128 1200c0 28.192 8.288 54.4 22.592 76.384a233.582 233.582 0 0 0-2.912 36.864c0 129.184 105.216 233.888 235.072 233.888 14.656 0 28.928-1.44 42.784-3.936 21.536 13.376 46.944 21.152 74.144 21.152 77.536 0 140.32-62.816 140.32-140.32 0-29.28-8.96-56.512-24.352-79.04 1.408-10.4 2.208-20.992 2.208-31.744zM404.736 1485.6c-74.72 3.904-109.664-12.64-141.696-42.688-35.776-33.568-21.408-71.84 7.744-73.792 29.12-1.952 46.592 33.024 62.144 42.72 15.52 9.696 74.592 31.776 105.792-3.904 33.984-38.816-22.592-58.912-64.064-64.992-59.2-8.768-133.952-40.768-128.128-103.904 5.824-63.04 53.568-95.424 103.84-99.968 64.064-5.824 105.792 9.696 138.784 37.856 38.144 32.544 17.504 68.896-6.784 71.808-24.224 2.912-51.392-53.504-104.8-54.336-55.04-.864-92.224 57.28-24.288 73.792 67.968 16.512 140.736 23.296 166.976 85.408s-40.736 128.096-115.52 132z" fill="undefined"/></svg>