<svg width="1792" height="1792" xmlns="http://www.w3.org/2000/svg"><path d="M384 1056c-141.376 0-256 114.624-256 256s114.624 256 256 256 256-114.624 256-256c0-141.408-114.624-256-256-256zm17.664 296.64l-40.48-72.992c17.536-3.008 32.704-3.776 45.856-3.008l22.976 36.704 55.04-13.344c-21.632-21.184-61.152-41.088-133.408-28.224-1.6.288-3.168.608-4.704.896l44.672 82.72-160.864 44.192a79.346 79.346 0 0 1-8.384-17.216c-10.4-30.112-1.856-61.024 19.776-85.568 13.088-14.688 31.264-26.912 53.376-35.456l-13.536-28.352c12.032-3.84 25.056-6.72 38.88-8.576l14.208 26.336c1.536-.256 3.072-.512 4.64-.736 42.784-6.464 84.576-6.848 123.136 2.208 39.328 7.744 75.424 24.928 92.064 44.224 3.36 3.872 5.888 7.904 7.616 12.032l-160.864 44.16zm-124.928-2.176l55.04-13.344-24.608-51.456c-31.424 16.832-35.392 42.144-30.432 64.8z" fill="undefined"/></svg>