<svg width="64" height="64" viewBox="0 0 512 512" xmlns="http://www.w3.org/2000/svg"><path d="M416 0H96C42.976 0 0 42.976 0 96v320c0 53.024 42.976 96 96 96h320c53.024 0 96-42.976 96-96V96c0-53.024-42.976-96-96-96zm0 404.448c0 6.368-5.184 11.552-11.552 11.552H107.552C101.184 416 96 410.816 96 404.448V107.552C96 101.184 101.184 96 107.552 96h296.896c6.368 0 11.552 5.184 11.552 11.552v296.896zM320 128h64v64h-64zM192 256a64 64 0 1 0 128 0 64 64 0 1 0-128 0zm159.2 0c0 52.512-42.72 95.2-95.2 95.2s-95.2-42.688-95.2-95.2c0-6.816.8-9.568 2.144-16H128v144h256V240h-34.944c1.376 6.432 2.144 9.184 2.144 16z"/></svg>