<svg width="1792" height="1792" xmlns="http://www.w3.org/2000/svg"><path d="M480 1306.944l-34.016 12-29.984-12v62.016c0 59.968 43.072 103.04 96 103.04s96-43.072 96-96v-64h-64v64c0 17.632-14.368 32-32 32-17.632 0-32-14.368-32-39.008v-62.048zM256 1472c52.928 0 96-43.072 96-96v-128c0-17.632 14.368-32 32-32 17.6 0 32 14.336 32 24.96V1272l30.016 12L480 1272v-31.04c0-45.92-43.072-88.96-96-88.96s-96 43.04-96 96v128c0 17.632-14.368 32-32 32-17.632 0-32-14.368-32-32v-64h-64v64c0 52.928 43.072 96 96 96z" fill="undefined"/></svg>