<svg width="64" height="64" viewBox="0 0 512 512" xmlns="http://www.w3.org/2000/svg"><path d="M256 0C114.624 0 0 114.624 0 256s114.624 256 256 256 256-114.624 256-256C512 114.592 397.376 0 256 0zm0 64c25.472 0 49.76 4.96 72 13.952V211.84L191.328 75.168A192.301 192.301 0 0 1 256 64zM69.6 302.208A192.744 192.744 0 0 1 64 256c0-72.544 40.192-135.648 99.552-168.32L223.84 148 69.6 302.208zM160 422.304c-35.488-20.512-63.776-52.064-80.192-89.952L160 252.16v170.144zM256 448c-25.472 0-49.76-4.96-72-13.984V352h238.304c-33.216 57.376-95.232 96-166.304 96zm178.016-120H352V89.696c57.376 33.216 96 95.232 96 166.304 0 25.472-4.96 49.76-13.984 72z"/></svg>