<svg width="1792" height="1792" xmlns="http://www.w3.org/2000/svg"><path d="M625.888 1111.68a211.011 211.011 0 0 1-66.72 25.504C540 1116.736 512.704 1104 482.496 1104c-58.016 0-105.056 47.04-105.056 105.024 0 8.224.928 16.256 2.72 23.936-87.296-4.384-164.704-46.208-216.512-109.76-9.056 15.488-14.208 33.536-14.208 52.8 0 36.448 18.56 68.608 46.72 87.424a105.07 105.07 0 0 1-47.584-13.184v1.312c0 50.88 36.224 93.344 84.256 103.008-8.8 2.4-18.08 3.68-27.68 3.68-6.784 0-13.344-.672-19.776-1.888 13.376 41.728 52.16 72.096 98.112 72.96-35.936 28.16-81.248 44.96-130.464 44.96-8.48 0-16.832-.512-25.056-1.472 46.496 29.792 101.696 47.2 161.024 47.2 193.216 0 298.88-160.064 298.88-298.88 0-4.544-.096-9.088-.32-13.6 20.576-14.752 38.4-33.248 52.48-54.304a209.76 209.76 0 0 1-60.32 16.544c21.696-12.992 38.336-33.6 46.176-58.08z" fill="undefined"/></svg>