<?xml version="1.0" encoding="utf-8"?>
<svg width="1792" height="1792" xmlns="http://www.w3.org/2000/svg"><path d="M384 1056c-141.376 0-256 114.624-256 256s114.624 256 256 256 256-114.624 256-256c0-141.408-114.624-256-256-256zm157.28 313.312c-1.728 21.312-17.888 48.512-40.544 52.448-72.416 5.6-158.368 4.928-233.44 0-23.424-2.944-38.816-31.168-40.544-52.448-3.648-44.736-3.648-70.208 0-114.944 1.728-21.28 17.504-49.344 40.544-51.904 74.208-6.24 160.576-4.896 233.44 0 26.112.96 38.816 27.808 40.544 49.12 3.616 44.736 3.616 72.992 0 117.728zM352 1376l96-64-96-64z" fill="undefined"/></svg>