<svg width="1792" height="1792" xmlns="http://www.w3.org/2000/svg"><path d="M544 1056H224c-53.024 0-96 42.976-96 96v320c0 53.024 42.976 96 96 96h320c53.024 0 96-42.976 96-96v-320c0-53.024-42.976-96-96-96zm0 404.448c0 6.368-5.184 11.552-11.552 11.552H235.552c-6.368 0-11.552-5.184-11.552-11.552v-296.896c0-6.368 5.184-11.552 11.552-11.552h296.896c6.368 0 11.552 5.184 11.552 11.552v296.896zM448 1184h64v64h-64zm-128 128a64 64 0 1 0 128 0 64 64 0 1 0-128 0zm159.2 0c0 52.512-42.72 95.2-95.2 95.2s-95.2-42.688-95.2-95.2c0-6.816.8-9.568 2.144-16H256v144h256v-144h-34.944c1.376 6.432 2.144 9.184 2.144 16z" fill="undefined"/></svg>