<svg width="64" height="64" viewBox="0 0 512 512" xmlns="http://www.w3.org/2000/svg"><path d="M247.104 202.784c-27.136-48.224-56.352-88.736-60.672-94.656-45.792 21.6-80.032 63.808-90.624 114.592 7.328.096 74.752.384 151.296-19.936zM416 0H96C42.976 0 0 42.976 0 96v320c0 53.024 42.976 96 96 96h320c53.024 0 96-42.976 96-96V96c0-53.024-42.976-96-96-96zM256 447.584c-105.632 0-191.584-85.952-191.584-191.584S150.368 64.416 256 64.416 447.584 150.368 447.584 256 361.632 447.584 256 447.584zm11.424-189.92c2.144-.672 4.288-1.344 6.432-1.92-4.096-9.312-8.576-18.624-13.248-27.776-81.728 24.448-161.056 23.424-168.224 23.264a259.654 259.654 0 0 0-.064 4.992c.032 42.048 15.936 80.416 42.08 109.44 3.712-6.336 48.608-80.704 133.024-108zm23.84-40.384a509.566 509.566 0 0 1 10.848 23.712c1.184 2.816 2.368 5.664 3.52 8.448 54.464-6.848 108.576 4.128 113.952 5.28-.32-38.624-14.144-74.112-36.928-101.952-3.424 4.64-30.848 39.808-91.392 64.512zm-7.328 65.888c-92.288 32.16-125.44 96.192-128.384 102.208 27.744 21.632 62.624 34.528 100.448 34.528 22.688.032 44.32-4.608 63.936-12.992-2.432-14.368-11.936-64.416-34.912-124.096-.384.096-.736.224-1.088.352zm80.544-149.344C335.584 108.192 297.6 92.576 256 92.576c-13.184 0-26.048 1.568-38.336 4.544 4.512 6.08 34.24 46.56 61.056 95.808 58.208-21.792 82.816-54.912 85.76-59.104zm-48.832 141.408c21.408 58.816 30.112 106.72 31.776 116.672 36.704-24.832 62.848-64.16 70.144-109.696-5.568-1.76-50.624-15.2-101.92-6.976z"/></svg>