<svg width="1792" height="1792" xmlns="http://www.w3.org/2000/svg"><path d="M384 1056c-141.376 0-256 114.624-256 256s114.624 256 256 256 256-114.624 256-256c0-141.408-114.624-256-256-256zm-71.424 428.256c-56.672 0-104.48-23.072-104.48-59.936 0-37.408 43.616-73.536 100.288-73.504 6.176 0 11.84-.16 17.696-.16-7.744-7.52-13.888-16.768-13.888-28.192 0-6.784 2.176-13.28 5.184-19.072-3.072.224-6.208.32-9.44.32-46.56 0-77.728-33.12-77.728-74.176 0-40.16 43.04-74.816 88.8-74.816h102.08l-22.912 16.512h-32.352c21.472 8.256 32.896 33.28 32.896 58.944 0 21.536-11.936 40.096-28.8 53.28-16.48 12.896-19.584 18.272-19.584 29.216 0 9.344 17.664 25.216 26.88 31.744 26.976 19.072 35.68 36.8 35.68 66.336-.032 36.864-35.712 73.504-100.32 73.504zM576 1280.608h-64v63.872h-31.968v-63.872H416V1248h64.032v-64H512v64h64v32.608zm-231.392 83.808c-7.744-2.496-16.288-3.968-25.408-4.064-39.168-.416-74.24 23.872-74.24 53.088 0 29.792 28.288 54.592 67.456 54.592 55.072 0 74.24-23.296 74.24-53.056 0-3.616-.448-7.104-1.248-10.528-4.288-16.896-19.552-25.28-40.8-40.032zm17.44-132.256c-4.544-34.496-29.536-62.208-55.808-63.008-26.272-.768-43.904 25.632-39.36 60.192 4.544 34.528 29.536 63.168 55.84 63.936 26.24.8 43.904-26.56 39.328-61.12z" fill="undefined"/></svg>