<svg width="64" height="64" viewBox="0 0 512 512" xmlns="http://www.w3.org/2000/svg"><path d="M352 250.944l-34.016 12-29.984-12v62.016C288 372.928 331.072 416 384 416s96-43.072 96-96v-64h-64v64c0 17.632-14.368 32-32 32-17.632 0-32-14.368-32-39.008v-62.048zM128 416c52.928 0 96-43.072 96-96V192c0-17.632 14.368-32 32-32 17.6 0 32 14.336 32 24.96V216l30.016 12L352 216v-31.04C352 139.04 308.928 96 256 96s-96 43.04-96 96v128c0 17.632-14.368 32-32 32-17.632 0-32-14.368-32-32v-64H32v64c0 52.928 43.072 96 96 96z"/></svg>