<svg width="64" height="64" viewBox="0 0 512 512" xmlns="http://www.w3.org/2000/svg"><path d="M363.872 167.168c-57.312-13.44-119.392-12.864-182.976-3.264-2.304.352-4.576.704-6.848 1.088l-21.12-39.136c-20.576 2.752-39.904 7.04-57.792 12.736l20.128 42.112c-32.896 12.736-59.872 30.88-79.328 52.704-32.128 36.48-44.832 82.4-29.408 127.136 3.104 9.024 7.296 17.568 12.48 25.6l239.04-65.664-66.368-122.912c2.272-.448 4.608-.896 6.976-1.312 107.328-19.136 166.048 10.432 198.208 41.92l-81.792 19.84-34.144-54.56c-19.52-1.152-42.048.032-68.128 4.48l60.16 108.448L512 250.752c-2.592-6.144-6.336-12.128-11.328-17.888-24.736-28.64-78.368-54.176-136.8-65.696zM87.36 313.152c-7.392-33.664-1.504-71.264 45.216-96.288l36.576 76.48-81.792 19.808z"/></svg>