<?xml version="1.0" encoding="utf-8"?>
<svg width="1792" height="1792" xmlns="http://www.w3.org/2000/svg"><path d="M544 1056H224c-53.024 0-96 42.976-96 96v320c0 53.024 42.976 96 96 96h320c53.024 0 96-42.976 96-96v-320c0-53.024-42.976-96-96-96zm-254.208 320.128c-35.872 0-64.928-29.056-64.928-64.928s29.056-64.928 64.928-64.928 64.928 29.056 64.928 64.928-29.056 64.928-64.928 64.928zm189.088 0c-35.872 0-64.928-29.056-64.928-64.928s29.056-64.928 64.928-64.928 64.928 29.056 64.928 64.928-29.056 64.928-64.928 64.928z" fill="undefined"/></svg>