<svg width="1792" height="1792" xmlns="http://www.w3.org/2000/svg"><path d="M544 1056H224c-53.024 0-96 42.976-96 96v320c0 53.024 42.976 96 96 96h320c53.024 0 96-42.976 96-96v-320c0-53.024-42.976-96-96-96zm-357.12 256c0-27.84 6.144-54.272 17.088-78.112l94.016 250.912c-65.76-31.136-111.104-96.8-111.104-172.8zM384 1504c-19.36 0-38.016-2.752-55.68-7.808l61.696-161.184 58.048 155.456c.384.96.896 1.824 1.408 2.656-20.48 7.04-42.496 10.88-65.472 10.88zm27.104-282.016a411.492 411.492 0 0 0 22.56-1.824c10.656-1.248 9.376-16.416-1.248-15.84 0 0-31.936 2.432-52.544 2.432-19.36 0-51.904-2.432-51.904-2.432-10.592-.576-11.84 15.232-1.248 15.84 0 0 10.048 1.216 20.672 1.792l30.72 81.984-47.104 126.048-67.808-208a411.492 411.492 0 0 0 22.56-1.824c10.624-1.248 9.376-16.416-1.248-15.84 0 0-31.936 2.432-52.544 2.432-3.68 0-8.064-.096-12.672-.224C254.56 1154.432 315.136 1120 384 1120c51.328 0 98.048 19.136 133.12 50.4-.864-.064-1.664-.16-2.56-.16-19.392 0-33.12 16.416-33.12 34.08 0 15.84 9.376 29.216 19.36 45.056 7.52 12.8 12.864 19.872 12.864 43.584 0 16.416-6.464 35.52-14.976 62.08l-19.68 63.968-67.904-197.024zm71.968 255.936l60.224-169.536c11.232-27.392 14.976-49.28 14.976-68.768 0-7.072-.448-13.632-1.312-19.744 15.392 27.36 24.16 58.752 24.16 92.128 0 70.848-39.424 132.672-98.048 165.92z" fill="undefined"/></svg>