<svg width="1792" height="1792" xmlns="http://www.w3.org/2000/svg"><path d="M265.152 1521.632c84.8 0 131.648-48.128 131.648-96.512 0-38.784-11.456-62.048-46.848-87.072-12.096-8.576-35.264-29.408-35.264-41.664 0-14.368 4.096-21.44 25.728-38.336 22.144-17.312 37.824-41.664 37.824-69.952 0-33.696-15.008-66.56-43.2-77.376h42.464l30.016-21.664H273.536c-60.032 0-116.544 45.504-116.544 98.208 0 53.856 40.928 97.344 102.048 97.344 4.256 0 8.384-.096 12.416-.384-3.968 7.584-6.816 16.128-6.816 25.024 0 14.976 8.064 27.104 18.24 37.024-7.68 0-15.136.224-23.232.224-74.4-.032-131.648 47.36-131.648 96.48 0 48.384 62.784 78.656 137.152 78.656zm13.248-250.688c-34.528-1.024-67.328-38.624-73.28-83.936-5.952-45.344 17.184-80.032 51.68-79.008 34.496 1.024 67.328 37.408 73.28 82.72 5.984 45.344-17.184 81.248-51.68 80.224zm-4.576 88.032c12 .128 23.2 2.048 33.344 5.344 27.904 19.36 47.936 30.336 53.568 52.48 1.056 4.48 1.632 9.088 1.632 13.824 0 39.104-25.184 69.664-97.472 69.664-51.424 0-88.544-32.544-88.544-71.648 0-38.336 46.048-70.208 97.472-69.664zM544 1184v-94.944h-32V1184h-96v32h96v97.056h32V1216h96v-32z" fill="undefined"/></svg>