<svg width="64" height="64" viewBox="0 0 512 512" xmlns="http://www.w3.org/2000/svg"><path d="M416 0H96C42.976 0 0 42.976 0 96v320c0 53.024 42.976 96 96 96h320c53.024 0 96-42.976 96-96V96c0-53.024-42.976-96-96-96zm-.416 312.544c0 56.928-46.336 103.04-103.68 103.04H200.192c-57.28 0-103.808-46.112-103.808-103.008V199.488c.032-56.928 46.496-103.072 103.808-103.072h52.32c57.344 0 103.232 42.816 103.232 99.744.768 10.656 10.368 19.936 21.312 19.936h17.888c11.456 0 20.64 12.032 20.64 23.392v73.056zm-99.744-16.64H196.16c-10.976 0-19.936 8.992-19.936 19.936s8.992 19.936 19.936 19.936h119.68c10.976 0 19.936-8.992 19.936-19.936s-8.96-19.936-19.936-19.936zm-119.68-79.808H256c10.976 0 19.936-8.992 19.936-19.936 0-10.976-8.992-19.936-19.936-19.936h-59.84c-10.976 0-19.936 8.992-19.936 19.936-.032 10.976 8.96 19.936 19.936 19.936z"/></svg>