<svg width="64" height="64" viewBox="0 0 512 512" xmlns="http://www.w3.org/2000/svg"><path d="M256 0C114.624 0 0 114.624 0 256s114.624 256 256 256 256-114.624 256-256S397.376 0 256 0zm118.272 406.08c-3.2 5.824-9.216 9.12-15.424 9.12-2.88 0-5.76-.704-8.48-2.176-40.992-22.592-87.552-34.528-134.592-34.528-28.192 0-56.032 4.192-82.688 12.448-9.28 2.88-19.136-2.336-21.984-11.616-2.88-9.28 2.304-28.96 11.616-31.84 30.048-9.28 61.376-14.016 93.088-14.016 52.96 0 105.376 13.44 151.552 38.88 8.512 4.672 11.616 25.216 6.912 33.728zm32.512-96.448c-3.648 7.04-10.816 18.464-18.24 18.464-3.2 0-6.432-.736-9.44-2.336-50.784-26.368-105.728-39.744-163.296-39.744-31.712 0-63.2 4.192-93.6 12.512-10.976 2.976-22.24-3.456-25.216-14.4-2.944-10.944 3.488-29.6 14.432-32.576A397.015 397.015 0 0 1 215.808 237.6c63.328 0 126.336 15.36 182.208 44.384 10.048 5.216 13.984 17.6 8.768 27.648zm34.624-92.672c-4.128 8.224-12.384 15.456-21.024 15.456-3.52 0-7.072-.8-10.432-2.464-60.64-30.24-125.952-45.536-194.144-45.536a439.29 439.29 0 0 0-105.248 12.8c-12.576 3.104-25.28-4.544-28.384-17.12-3.136-12.544 4.544-27.744 17.12-30.848 37.984-9.44 77.184-14.208 116.512-14.208 75.52 0 147.872 16.992 215.04 50.464 11.616 5.792 16.32 19.872 10.56 31.456z"/></svg>