<svg width="64" height="64" viewBox="0 0 512 512" xmlns="http://www.w3.org/2000/svg"><path d="M128 477.728V250.88L21.056 357.792C42.976 408.32 80.704 450.368 128 477.728zm32 15.648c29.632 12 62.048 18.624 96 18.624 94.752 0 177.472-51.488 221.728-128H160v109.376zM213.12 112l-80.384-80.416C53.6 75.136 0 159.296 0 256c0 21.248 2.592 41.888 7.488 61.632L213.12 112zM352 18.624C322.336 6.624 289.952 0 256 0c-30.272 0-59.296 5.28-86.24 14.912L352 197.12V18.624zm32 15.648V352h109.376c12-29.664 18.624-62.048 18.624-96 0-94.752-51.488-177.472-128-221.728z"/></svg>