<?xml version="1.0" encoding="utf-8"?>
<svg width="1792" height="1792" xmlns="http://www.w3.org/2000/svg"><path d="M544 1056H224c-53.024 0-96 42.976-96 96v320c0 53.024 42.976 96 96 96h320c53.024 0 96-42.976 96-96v-320c0-53.024-42.976-96-96-96zm-64.032 236.8H403.2l-.032 70.24c0 17.824-.224 28.096 1.664 33.152 1.888 5.024 6.56 10.24 11.68 13.248 6.816 4.096 14.56 6.112 23.296 6.112 15.552 0 24.736-2.048 40.128-12.16v46.208c-13.12 6.176-24.544 9.76-35.2 12.256-10.624 2.496-22.112 3.744-34.496 3.744-14.048 0-22.336-1.76-33.12-5.312-10.784-3.552-20-8.64-27.616-15.168-7.648-6.56-12.896-13.568-15.872-20.96-2.944-7.392-4.416-18.112-4.416-32.16v-107.712h-41.184v-43.52c12.064-3.904 25.568-9.536 34.144-16.864 8.608-7.328 15.52-16.096 20.736-26.368 5.184-10.208 8.768-23.296 10.752-39.136H403.2v76.8h76.768v57.6z" fill="undefined"/></svg>