<?xml version="1.0" encoding="utf-8"?>
<svg width="1792" height="1792" xmlns="http://www.w3.org/2000/svg"><path d="M384 1056c-141.376 0-256 114.624-256 256s114.624 256 256 256 256-114.624 256-256-114.624-256-256-256zm-219.424 256c0-30.976 6.848-60.416 19.008-86.976l104.672 279.296c-73.216-34.624-123.68-107.744-123.68-192.32zM384 1525.728a224.853 224.853 0 0 1-61.984-8.704l65.824-186.336 67.424 179.968a21.843 21.843 0 0 0 1.568 2.976c-22.752 7.808-47.264 12.096-72.832 12.096zm30.176-313.92c13.216-.672 25.12-2.016 25.12-2.016 11.84-1.376 10.432-18.272-1.376-17.632 0 0-35.552 2.72-58.464 2.72-21.536 0-57.792-2.72-57.792-2.72-11.84-.672-13.216 16.928-1.408 17.632 0 0 11.2 1.344 23.008 2.016l34.176 91.232-48.032 140.256-79.872-231.488c13.248-.672 25.12-2.016 25.12-2.016 11.808-1.376 10.432-18.272-1.376-17.632 0 0-35.552 2.72-58.464 2.72-4.096 0-8.96-.096-14.112-.256 39.2-58.016 106.656-96.352 183.296-96.352 57.12 0 109.12 21.28 148.192 56.096-.96-.064-1.856-.192-2.848-.192-21.568 0-36.864 18.272-36.864 37.92 0 17.632 10.432 32.512 21.536 50.144 8.384 14.272 18.112 32.544 18.112 58.944 0 18.272-7.2 39.52-16.672 69.12l-21.92 71.2-79.36-229.696zM603.424 1312c0 78.848-43.872 147.68-109.12 184.672l67.04-188.704c12.512-30.496 16.672-54.848 16.672-76.544 0-7.872-.512-15.168-1.472-21.984 17.12 30.464 26.88 65.408 26.88 102.56z" fill="undefined"/></svg>