<svg width="64" height="64" viewBox="0 0 512 512" xmlns="http://www.w3.org/2000/svg"><path d="M256 0C114.624 0 0 114.624 0 256s114.624 256 256 256 256-114.624 256-256C512 114.592 397.376 0 256 0zm53.152 314.016c7.904-5.984 17.76-9.568 28.448-9.568 26.112 0 47.296 21.152 47.296 47.296 0 26.112-21.184 47.296-47.296 47.296s-47.264-21.152-47.264-47.296v-.032l-120.608-58.304c-7.392 4.768-16.16 7.584-25.6 7.584-26.112 0-47.296-21.184-47.296-47.296s21.184-47.296 47.296-47.296c11.136 0 21.344 3.872 29.44 10.304l116.736-56.384v-.032c0-26.112 21.184-47.296 47.264-47.296 26.112 0 47.296 21.152 47.296 47.296s-21.184 47.296-47.296 47.296c-10.688 0-20.512-3.584-28.448-9.568l-117.76 56.896c0 .704-.064 1.44-.096 2.144l117.888 56.96z"/></svg>