<svg width="1792" height="1792" xmlns="http://www.w3.org/2000/svg"><path d="M384 1056c-141.376 0-256 114.624-256 256s114.624 256 256 256 256-114.624 256-256c0-141.408-114.624-256-256-256zm160 404.448c0 6.368-5.184 11.552-11.552 11.552H235.552c-6.368 0-11.552-5.184-11.552-11.552v-296.896c0-6.368 5.184-11.552 11.552-11.552h296.896c6.368 0 11.552 5.184 11.552 11.552v296.896zM320 1312a64 64 0 1 0 128 0 64 64 0 1 0-128 0zm128-128h64v64h-64zm31.2 128c0 52.512-42.72 95.2-95.2 95.2s-95.2-42.688-95.2-95.2c0-6.816.8-9.568 2.144-16H256v144h256v-144h-34.944c1.376 6.432 2.144 9.184 2.144 16z" fill="undefined"/></svg>