<svg width="64" height="64" viewBox="0 0 512 512" xmlns="http://www.w3.org/2000/svg"><path d="M488.896 0H23.104C10.368 0 0 10.336 0 23.072v465.856C0 501.632 10.368 512 23.104 512h465.792C501.632 512 512 501.632 512 488.928V23.072C512 10.336 501.632 0 488.896 0zM345.344 256c0 49.344-40 89.344-89.344 89.344s-89.344-40-89.344-89.344c0-49.344 40-89.344 89.344-89.344s89.344 40 89.344 89.344zM448 448H64V224h42.144c-2.208 10.336-3.488 21.024-3.488 32 0 84.544 68.8 153.344 153.344 153.344S409.344 340.544 409.344 256c0-10.976-1.28-21.664-3.488-32H448v224zm0-288h-96V64h96v96z"/></svg>