<svg width="1792" height="1792" xmlns="http://www.w3.org/2000/svg"><path d="M616.896 1056H151.104c-12.736 0-23.104 10.336-23.104 23.072v465.856c0 12.704 10.368 23.072 23.104 23.072h465.792c12.736 0 23.104-10.368 23.104-23.072v-465.856c0-12.736-10.368-23.072-23.104-23.072zm-143.552 256c0 49.344-40 89.344-89.344 89.344s-89.344-40-89.344-89.344c0-49.344 40-89.344 89.344-89.344s89.344 40 89.344 89.344zM576 1504H192v-224h42.144c-2.208 10.336-3.488 21.024-3.488 32 0 84.544 68.8 153.344 153.344 153.344s153.344-68.8 153.344-153.344c0-10.976-1.28-21.664-3.488-32H576v224zm0-288h-96v-96h96v96z" fill="undefined"/></svg>