<svg width="1792" height="1792" xmlns="http://www.w3.org/2000/svg"><path d="M384 1056c-141.376 0-256 114.624-256 256s114.624 256 256 256 256-114.624 256-256c0-141.408-114.624-256-256-256zm0 64c25.472 0 49.76 4.96 72 13.952v133.888l-136.672-136.672A192.301 192.301 0 0 1 384 1120zm-186.4 238.208A192.744 192.744 0 0 1 192 1312c0-72.544 40.192-135.648 99.552-168.32L351.84 1204 197.6 1358.208zm90.4 120.096c-35.488-20.512-63.776-52.064-80.192-89.952L288 1308.16v170.144zM384 1504c-25.472 0-49.76-4.96-72-13.984V1408h238.304c-33.216 57.376-95.232 96-166.304 96zm178.016-120H480v-238.304c57.376 33.216 96 95.232 96 166.304 0 25.472-4.96 49.76-13.984 72z" fill="undefined"/></svg>