<svg width="1792" height="1792" xmlns="http://www.w3.org/2000/svg"><path d="M384 1056c-141.376 0-256 114.624-256 256s114.624 256 256 256 256-114.624 256-256c0-141.408-114.624-256-256-256zm-117.92 415.232c-23.008 0-41.696-18.56-41.696-41.536 0-22.848 18.688-41.632 41.696-41.632 23.072 0 41.728 18.784 41.76 41.632 0 22.976-18.656 41.536-41.76 41.536zm104.768.384c0-39.264-15.264-76.16-42.912-103.776-27.648-27.712-64.416-43.008-103.488-43.008V1264.8c113.952 0 206.72 92.768 206.72 206.816h-60.32zm106.528-.032c0-139.584-113.44-253.152-252.864-253.152V1158.4c172.608 0 313.088 140.544 313.088 313.184h-60.224z" fill="undefined"/></svg>