<svg width="1792" height="1792" xmlns="http://www.w3.org/2000/svg"><path d="M544 1056H224c-53.024 0-96 42.976-96 96v320c0 53.024 42.976 96 96 96h320c53.024 0 96-42.976 96-96v-320c0-53.024-42.976-96-96-96zm-140.032 325.216c-18.72-1.44-26.56-10.72-41.216-19.648-8.064 42.304-17.92 82.88-47.104 104.032-9.024-63.904 13.216-111.904 23.552-162.88-17.6-29.664 2.112-89.28 39.232-74.592 45.664 18.08-39.584 110.176 17.664 121.664 59.744 12.032 84.16-103.68 47.104-141.312-53.568-54.336-155.84-1.248-143.264 76.544 3.072 19.008 22.688 24.768 7.84 51.04-34.272-7.584-44.512-34.624-43.2-70.656 2.112-58.976 52.992-100.256 104.032-105.984 64.544-7.232 125.088 23.68 133.472 84.384 9.44 68.512-29.12 142.752-98.112 137.408z" fill="undefined"/></svg>