<svg width="64" height="64" viewBox="0 0 512 512" xmlns="http://www.w3.org/2000/svg"><path d="M478.912 192h-28.704c-17.568 0-32.992-14.88-34.208-32C416 68.672 342.368 0 250.4 0h-83.904C74.592 0 .064 74.016 0 165.344v181.408C0 438.048 74.592 512 166.496 512h179.2C437.664 512 512 438.048 512 346.72V229.536c0-18.24-14.72-37.536-33.088-37.536zM160 128h96c17.6 0 32 14.4 32 32s-14.4 32-32 32h-96c-17.6 0-32-14.4-32-32s14.4-32 32-32zm192 256H160c-17.6 0-32-14.4-32-32s14.4-32 32-32h192c17.6 0 32 14.4 32 32s-14.4 32-32 32z"/></svg>