<?xml version="1.0" encoding="utf-8"?>
<svg width="1792" height="1792" xmlns="http://www.w3.org/2000/svg"><path d="M353.856 1221.28c-29.504 0-58.88 3.584-87.392 10.656-9.44 2.336-15.168 13.728-12.832 23.136s11.872 15.168 21.312 12.832c25.728-6.368 52.288-9.6 78.944-9.6 51.136 0 100.128 11.488 145.6 34.176 2.528 1.248 5.184 1.856 7.84 1.856 6.464 0 12.672-5.408 15.776-11.584 4.32-8.672.8-19.264-7.904-23.584-50.432-25.152-104.704-37.888-161.344-37.888zm0 148.832a237.124 237.124 0 0 0-69.824 10.496c-6.976 2.144-10.848 16.928-8.704 23.872 2.144 6.976 9.536 10.88 16.512 8.704 20-6.208 40.896-9.344 62.016-9.344 35.264 0 70.176 8.96 100.928 25.888a13.017 13.017 0 0 0 6.368 1.632c4.672 0 9.184-2.464 11.552-6.848 3.52-6.368 1.216-21.792-5.184-25.312-34.624-19.008-73.952-29.088-113.664-29.088zm136.672-38.624c-41.888-21.76-89.152-33.28-136.64-33.28-26.496 0-52.864 3.52-78.304 10.464-8.192 2.24-13.024 16.224-10.784 24.416 2.24 8.192 10.688 13.024 18.912 10.784a267.218 267.218 0 0 1 70.176-9.376c43.2 0 84.384 10.048 122.464 29.824a15.182 15.182 0 0 0 7.072 1.728c5.568 0 10.912-8.576 13.664-13.824 3.904-7.52.96-16.832-6.56-20.736zM384 1056c-141.376 0-256 114.624-256 256s114.624 256 256 256 256-114.624 256-256c0-141.408-114.624-256-256-256zm0 448c-106.048 0-192-85.952-192-192s85.952-192 192-192 192 85.952 192 192-85.952 192-192 192z" fill="undefined"/></svg>