<svg width="64" height="64" viewBox="0 0 512 512" xmlns="http://www.w3.org/2000/svg"><path d="M.192 0v98.176c227.904 0 413.376 185.664 413.376 413.824H512C512 229.76 282.368 0 .192 0zm239.232 512h98.56c.032-186.432-151.616-338.08-337.92-338.08v98.144c63.904 0 123.968 24.992 169.216 70.272C214.464 387.488 239.424 447.84 239.424 512zm-171.264-.64c37.728 0 68.256-30.336 68.256-67.904-.032-37.344-30.528-68.032-68.256-68.032-37.6 0-68.16 30.656-68.16 68.032 0 37.568 30.56 67.904 68.16 67.904z"/></svg>