<svg width="64" height="64" viewBox="0 0 512 512" xmlns="http://www.w3.org/2000/svg"><path d="M256 0C114.624 0 0 114.624 0 256s114.624 256 256 256 256-114.624 256-256C512 114.592 397.376 0 256 0zm19.968 325.216c-18.72-1.44-26.56-10.72-41.216-19.648-8.064 42.304-17.92 82.88-47.104 104.032-9.024-63.904 13.216-111.904 23.552-162.88-17.6-29.664 2.112-89.28 39.232-74.592 45.664 18.08-39.584 110.176 17.664 121.664 59.744 12.032 84.16-103.68 47.104-141.312-53.568-54.336-155.84-1.248-143.264 76.544 3.072 19.008 22.688 24.768 7.84 51.04-34.272-7.584-44.512-34.624-43.2-70.656 2.112-58.976 52.992-100.256 104.032-105.984 64.544-7.232 125.088 23.68 133.472 84.384 9.44 68.512-29.12 142.752-98.112 137.408z"/></svg>