<svg width="1792" height="1792" xmlns="http://www.w3.org/2000/svg"><path d="M384 1056c-141.376 0-256 114.624-256 256s114.624 256 256 256 256-114.624 256-256c0-141.408-114.624-256-256-256zm152.064 186.336c-17.184 96.704-113.088 178.592-141.92 197.28-28.864 18.688-55.168-7.488-64.736-27.296-10.912-22.592-43.648-145.056-52.224-155.2-8.576-10.144-34.304 10.144-34.304 10.144l-12.48-16.352s52.256-62.368 92-70.208c42.144-8.288 42.08 64.736 52.224 105.248 9.824 39.2 16.384 61.632 24.96 61.632s24.96-21.856 42.88-55.36c17.984-33.536-.768-63.168-35.872-42.112 14.08-84.192 146.624-104.448 129.472-7.776z" fill="undefined"/></svg>