<?xml version="1.0" encoding="utf-8"?>
<svg width="1792" height="1792" xmlns="http://www.w3.org/2000/svg"><path d="M384 1056c-141.376 0-256 114.624-256 256s114.624 256 256 256 256-114.624 256-256c0-141.408-114.624-256-256-256zm-64 380h-64v-224h64v224zm-30.016-237.728c-16.576 0-29.984-13.44-29.984-30.016s13.44-30.016 29.984-30.016c16.576.032 30.016 13.472 30.016 30.016 0 16.576-13.44 30.016-30.016 30.016zM544 1436h-64v-138.496c0-16.224-4.64-27.584-24.576-27.584-33.056 0-39.424 27.584-39.424 27.584V1436h-64v-224h64v21.408c9.152-7.008 32-21.376 64-21.376 20.768 0 64 12.416 64 87.424V1436z" fill="undefined"/></svg>