<svg width="64" height="64" viewBox="0 0 512 512" xmlns="http://www.w3.org/2000/svg"><path d="M256 0C114.624 0 0 114.624 0 256s114.624 256 256 256 256-114.624 256-256C512 114.592 397.376 0 256 0zM138.08 415.232c-23.008 0-41.696-18.56-41.696-41.536 0-22.848 18.688-41.632 41.696-41.632 23.072 0 41.728 18.784 41.76 41.632 0 22.976-18.656 41.536-41.76 41.536zm104.768.384c0-39.264-15.264-76.16-42.912-103.776-27.648-27.712-64.416-43.008-103.488-43.008V208.8c113.952 0 206.72 92.768 206.72 206.816h-60.32zm106.528-.032c0-139.584-113.44-253.152-252.864-253.152V102.4C269.12 102.4 409.6 242.944 409.6 415.584h-60.224z"/></svg>