<svg width="64" height="64" viewBox="0 0 512 512" xmlns="http://www.w3.org/2000/svg"><path d="M256 0C114.624 0 0 114.624 0 256s114.624 256 256 256 256-114.624 256-256C512 114.592 397.376 0 256 0zm-64 380h-64V156h64v224zm-30.016-237.728c-16.576 0-29.984-13.44-29.984-30.016s13.44-30.016 29.984-30.016C178.56 82.272 192 95.712 192 112.256c0 16.576-13.44 30.016-30.016 30.016zM416 380h-64V241.504c0-16.224-4.64-27.584-24.576-27.584-33.056 0-39.424 27.584-39.424 27.584V380h-64V156h64v21.408c9.152-7.008 32-21.376 64-21.376 20.768 0 64 12.416 64 87.424V380z"/></svg>