<svg width="64" height="64" viewBox="0 0 512 512" xmlns="http://www.w3.org/2000/svg"><path d="M256 0C114.624 0 0 114.624 0 256s114.624 256 256 256 256-114.624 256-256C512 114.592 397.376 0 256 0zm127.36 198.528c.128 2.72.192 5.44.192 8.16 0 83.296-63.392 179.328-179.328 179.328-35.584 0-68.704-10.432-96.608-28.32 4.928.576 9.952.896 15.04.896 29.536 0 56.704-10.08 78.272-26.976-27.584-.512-50.848-18.752-58.88-43.776a63.018 63.018 0 0 0 11.872 1.12c5.76 0 11.328-.768 16.608-2.208-28.832-5.792-50.56-31.264-50.56-61.792v-.8c8.512 4.736 18.208 7.552 28.544 7.904-16.896-11.296-28.032-30.592-28.032-52.448 0-11.552 3.104-22.368 8.512-31.68 31.072 38.144 77.536 63.232 129.92 65.856-1.088-4.608-1.632-9.44-1.632-14.368 0-34.784 28.224-63.008 63.04-63.008 18.112 0 34.496 7.648 46.016 19.904a127.033 127.033 0 0 0 40.032-15.296c-4.704 14.72-14.688 27.072-27.712 34.88 12.736-1.504 24.896-4.928 36.192-9.92-8.448 12.608-19.168 23.712-31.488 32.544z"/></svg>