<?xml version="1.0" encoding="utf-8"?>
<svg width="1792" height="1792" xmlns="http://www.w3.org/2000/svg"><path d="M256 1533.728V1306.88l-106.944 106.912c21.92 50.528 59.648 92.576 106.944 119.936zm32 15.648c29.632 12 62.048 18.624 96 18.624 94.752 0 177.472-51.488 221.728-128H288v109.376zM341.12 1168l-80.384-80.416C181.6 1131.136 128 1215.296 128 1312c0 21.248 2.592 41.888 7.488 61.632L341.12 1168zM480 1074.624c-29.664-12-62.048-18.624-96-18.624-30.272 0-59.296 5.28-86.24 14.912L480 1253.12v-178.496zm32 15.648V1408h109.376c12-29.664 18.624-62.048 18.624-96 0-94.752-51.488-177.472-128-221.728z" fill="undefined"/></svg>