<svg width="64" height="64" viewBox="0 0 512 512" xmlns="http://www.w3.org/2000/svg"><path d="M256 0C114.848 0 0 114.848 0 256s114.848 256 256 256 256-114.848 256-256S397.152 0 256 0zm0 37.664c55.584 0 106.336 20.832 144.96 55.104-3.936 5.6-36.832 49.824-114.592 78.976-35.84-65.824-75.552-119.904-81.6-128A218.206 218.206 0 0 1 256 37.664zm-92.96 20.768c5.76 7.904 44.832 62.048 81.056 126.464-102.272 27.168-192.352 26.784-202.144 26.656C56.128 143.68 101.856 87.296 163.04 58.432zM37.312 256.32c0-2.24.032-4.48.096-6.688 9.568.224 115.552 1.568 224.736-31.104a740.394 740.394 0 0 1 17.728 37.12c-2.88.8-5.76 1.664-8.608 2.592C158.496 294.688 98.496 394.048 93.536 402.528 58.624 363.776 37.344 312.48 37.312 256.32zm218.656 218.656c-50.528 0-97.12-17.248-134.208-46.144 3.936-8.032 48.224-93.568 171.552-136.544l1.44-.48c30.72 79.776 43.392 146.624 46.656 165.824-26.24 11.168-55.104 17.376-85.44 17.344zM378.176 437.6c-2.24-13.312-13.856-77.312-42.464-155.904 68.512-10.976 128.704 6.976 136.192 9.344-9.76 60.832-44.672 113.376-93.728 146.56zm-55.84-190.368c-1.536-3.744-3.104-7.52-4.704-11.296a688.325 688.325 0 0 0-14.496-31.68C384 171.264 420.64 124.288 425.248 118.048c30.464 37.216 48.896 84.608 49.344 136.224-7.2-1.536-79.488-16.192-152.256-7.04z"/></svg>