<svg width="64" height="64" viewBox="0 0 512 512" xmlns="http://www.w3.org/2000/svg"><path d="M128.96 296.096c24.736-43.744-7.968-53.344-13.088-85.056C94.912 81.44 265.376-7.072 354.656 83.488c61.76 62.72 21.088 255.552-78.496 235.52-95.392-19.168 46.72-172.672-29.408-202.784-61.888-24.512-94.752 74.88-65.408 124.288-17.216 84.96-54.272 164.96-39.264 271.488 48.64-35.296 65.056-102.912 78.496-173.408 24.448 14.88 37.536 30.336 68.704 32.736 114.976 8.928 179.232-114.784 163.488-228.96C438.816 41.184 337.92-10.336 230.336 1.728 145.28 11.264 60.48 80.032 56.96 178.368c-2.144 60.032 14.88 105.088 72 117.728z"/></svg>