<?xml version="1.0" encoding="utf-8"?>
<svg width="1792" height="1792" xmlns="http://www.w3.org/2000/svg"><path d="M544 1056H224c-53.024 0-96 42.976-96 96v320c0 53.024 42.976 96 96 96h320c53.024 0 96-42.976 96-96v-320c0-53.024-42.976-96-96-96zm-160 187.392c-12.608 0-22.88 10.272-22.88 22.88v91.488c0 37.824-30.784 68.608-68.608 68.608-37.824 0-68.608-30.784-68.608-68.608V1312h45.728v45.728c0 12.608 10.272 22.88 22.88 22.88 12.608 0 22.88-10.272 22.88-22.88v-91.456c0-37.824 30.784-68.608 68.608-68.608s68.608 30.784 68.608 63.616v22.176L423.296 1292l-16.448-8.576v-22.176c0-7.584-10.272-17.856-22.848-17.856zm160.064 114.336c0 37.824-30.784 68.608-68.608 68.608s-68.608-30.784-68.608-73.632v-44.288l16.448 8.576 29.312-8.576v44.32c0 17.6 10.272 27.872 22.88 27.872s22.88-10.272 22.88-22.88V1312h45.728v45.728z" fill="undefined"/></svg>