<svg width="64" height="64" viewBox="0 0 512 512" xmlns="http://www.w3.org/2000/svg"><path d="M256 0C114.624 0 0 114.624 0 256s114.624 256 256 256 256-114.624 256-256C512 114.592 397.376 0 256 0zm160 404.448c0 6.368-5.184 11.552-11.552 11.552H107.552C101.184 416 96 410.816 96 404.448V107.552C96 101.184 101.184 96 107.552 96h296.896c6.368 0 11.552 5.184 11.552 11.552v296.896zM192 256a64 64 0 1 0 128 0 64 64 0 1 0-128 0zm128-128h64v64h-64zm31.2 128c0 52.512-42.72 95.2-95.2 95.2s-95.2-42.688-95.2-95.2c0-6.816.8-9.568 2.144-16H128v144h256V240h-34.944c1.376 6.432 2.144 9.184 2.144 16z"/></svg>