<svg xmlns="http://www.w3.org/2000/svg" width="1000" height="1000"><path d="M498.183.005c-147.445.678-291.229 66.62-387.347 186.018l153.958 236.639c38.92-110.963 150.567-181.877 267.325-170.051l414.127 22.061c-42.323-84.026-108.752-157.098-196.299-207.641C670.526 21.176 583.738-.389 498.184.005zM81.65 226.208C30.042 304.874 0 398.942 0 500.033c0 249.758 183.248 456.794 422.595 493.996l127.929-251.638c-115.557 21.774-232.78-39.492-280.918-146.521L81.65 226.208zm884.812 93.837l-281.918 14.999c76.637 89.189 82.213 221.338 13.593 316.541l-226.172 347.6c93.931 5.361 190.433-15.638 277.98-66.183 216.297-124.878 303.971-387.076 216.516-612.956zm-466.498 11.374c-93.11 0-168.613 75.503-168.613 168.613s75.503 168.613 168.613 168.613 168.613-75.503 168.613-168.613-75.503-168.613-168.613-168.613z" fill="#1f1a17"/></svg>