<svg xmlns="http://www.w3.org/2000/svg" width="1000" height="1000"><path d="M111.368 0c-1.667-.038-3.341.041-5.031.188-1.279.111-2.58.26-3.844.469v.031a50.82 50.82 0 0 0-2.906.563c-.309.055-.629.111-.938.188-8.05 1.967-16.378 6.148-24.094 11.875a87.096 87.096 0 0 0-4.25 3.375 90.955 90.955 0 0 0-4.031 3.594l-.031.063-.063.031v.031h-.031c-11.034 10.504-20.464 21.73-28.438 33.469a202.932 202.932 0 0 0-4.531 6.969c-1.412 2.274-2.8 4.562-4.094 6.844l-.094.188v.031h-.031c-6.807 12.012-12.316 24.636-16.656 37.625a224.6 224.6 0 0 0-2.375 7.563 241.7 241.7 0 0 0-2.094 7.625l-.031.063C-9.097 186.053 3.44 257.143 26.399 308.754c4.467 10.044 9.392 19.441 14.625 28.031 5.274 8.652 10.764 16.323 16.313 22.813l.344.406.125.156.031-.031.063.094a29.424 29.424 0 0 0 19.875 9.844c7.342.529 14.852-1.658 20.906-6.656l.5-.406a29.44 29.44 0 0 0 3.5-3.563l-.031-.031c.183-.207.359-.405.531-.625.22-.262.452-.533.656-.813 3.765-5.134 7.566-10.123 11.406-14.906l2.281-2.844 2.25-2.719.063-.063a421.69 421.69 0 0 1 12.313-14.156l2.469-2.656 1.938-2.094.313-.313v-.031l.25-.25.031-.031a422.872 422.872 0 0 1 73.781-62.219 422.097 422.097 0 0 1 15.969-10.125 417.686 417.686 0 0 1 15.656-8.938c.314-.144.63-.301.938-.469 7.081-3.882 11.956-10.305 14.094-17.531 2.126-7.186 1.52-15.178-2.313-22.281l-.063-.094c-2.633-4.852-6.416-8.667-10.813-11.281l-.031.031-.031-.031a27.838 27.838 0 0 0-1.625-.906c-.308-.171-.644-.318-.969-.469a29.2 29.2 0 0 0-2.75-1.125l-.063-.031h-.031v.031l-.094-.031a179.636 179.636 0 0 1-19.531-8.344c-.893-.445-2.065-1.023-3.5-1.781l-2.844-1.5c-.25-.154-.518-.328-.781-.469h-.031c-5.623-3.161-10.873-6.548-15.75-10.156-.392-.29-1.302-1.004-2.781-2.156l-1.969-1.531c-.171-.162-.35-.313-.531-.469l-.031.031-.219-.188h-.031c-22.581-18.598-35.867-42.194-39.625-66.656a95.511 95.511 0 0 1-1.094-14.188c-.014-4.936.31-9.707.969-14.219v-.063l.063-.313c1.501-9.982 1.342-18.53-.094-25.719a51.565 51.565 0 0 0-1.094-4.438 46.542 46.542 0 0 0-1.469-4.25h-.031l-.031-.063-.063-.188c-3.3-8.072-8.291-14.206-14.563-18.563a39.559 39.559 0 0 0-3.813-2.344c-1.414-.762-2.721-1.399-3.969-1.906l-.031.031-.063-.031c-4.653-1.883-9.531-2.855-14.531-2.969zm776.938 0c-5 .114-9.878 1.085-14.531 2.969l-.063.031-.031-.031c-1.248.507-2.555 1.144-3.969 1.906a39.559 39.559 0 0 0-3.813 2.344c-6.271 4.357-11.263 10.491-14.563 18.563l-.063.188-.031.063h-.031a46.542 46.542 0 0 0-1.469 4.25 51.38 51.38 0 0 0-1.094 4.438c-1.436 7.189-1.595 15.737-.094 25.719l.063.313v.063c.659 4.512.983 9.283.969 14.219a95.532 95.532 0 0 1-1.094 14.188c-3.758 24.462-17.044 48.058-39.625 66.656h-.031l-.219.188-.031-.031c-.181.156-.36.307-.531.469l-1.969 1.531c-1.479 1.152-2.389 1.866-2.781 2.156-4.877 3.608-10.127 6.995-15.75 10.156h-.031c-.263.141-.531.315-.781.469l-2.844 1.5c-1.435.758-2.607 1.336-3.5 1.781a179.636 179.636 0 0 1-19.531 8.344l-.094.031v-.031h-.031l-.063.031a29.2 29.2 0 0 0-2.75 1.125c-.325.151-.661.298-.969.469-.572.289-1.113.603-1.625.906l-.031.031-.031-.031c-4.396 2.614-8.18 6.429-10.813 11.281l-.063.094c-3.832 7.103-4.438 15.095-2.313 22.281 2.138 7.226 7.013 13.649 14.094 17.531.308.168.623.325.938.469a414.908 414.908 0 0 1 15.656 8.938 422.097 422.097 0 0 1 15.969 10.125 422.872 422.872 0 0 1 73.781 62.219l.031.031.25.25v.031l.313.313 1.938 2.094 2.469 2.656c4.091 4.495 8.182 9.229 12.281 14.156l.094.063 2.25 2.719 2.281 2.844c3.84 4.783 7.641 9.772 11.406 14.906.204.28.436.551.656.813.172.22.348.418.531.625l-.031.031a29.513 29.513 0 0 0 3.5 3.563l.5.406c6.054 4.998 13.564 7.185 20.906 6.656a29.424 29.424 0 0 0 19.875-9.844l.063-.094.031.031.125-.156.344-.406c5.548-6.489 11.039-14.161 16.313-22.813 5.233-8.59 10.158-17.987 14.625-28.031 22.959-51.611 35.496-122.701 18.594-187.969l-.031-.063a241.7 241.7 0 0 0-2.094-7.625 225.325 225.325 0 0 0-2.375-7.563c-4.34-12.989-9.849-25.613-16.656-37.625h-.031v-.031l-.125-.188a198.455 198.455 0 0 0-8.594-13.813c-7.974-11.739-17.404-22.965-28.438-33.469h-.031v-.031l-.063-.031-.031-.063a90.955 90.955 0 0 0-4.031-3.594 87.096 87.096 0 0 0-4.25-3.375c-7.716-5.727-16.044-9.908-24.094-11.875-.308-.076-.629-.133-.938-.188a52.617 52.617 0 0 0-2.906-.563V.658a50.463 50.463 0 0 0-3.844-.469c-1.69-.146-3.365-.225-5.031-.188zM222.212 388.313l-1 1.313h.031c-46.022 63.196-45.994 164.21.063 227.406 22.033 30.266 52.847 49.052 87.094 49.188l.031.031h.594v-.031c81.956-.236 121.579-93.991 121.781-162.281h.031v-1.031h-.031c0-5.5-.283-10.948-.688-16.313-2.295-1.012-4.489-2.033-6.75-3.281l-201.156-95zm555.25 0l-201.156 95c-2.261 1.248-4.456 2.269-6.75 3.281-.405 5.365-.688 10.813-.688 16.313h-.031v1.031h.031c.204 68.29 39.825 162.045 121.781 162.281v.031h.594l.031-.031c34.246-.135 65.062-18.922 87.094-49.188 46.056-63.196 46.086-164.21.063-227.406h.031l-1-1.313zm21.938 373.25c-13.581.13-27.113 5.445-37.375 15.906l-.031.031a52.23 52.23 0 0 0-1.969 2.094c-9.748 10.592-19.996 20.468-30.656 29.563-10.824 9.232-22.357 17.891-34.531 25.938-61.547 40.68-135.051 61.517-210.344 58.281h-.031v.219c-46.824-2.014-92.393-13.344-134.281-32.844a353.254 353.254 0 0 1-20.031-10.094c-33.438-18.23-64.291-42.287-91.125-71.531-19.843-21.625-53.47-23.061-75.094-3.219-21.626 19.843-23.061 53.438-3.219 75.063 34.203 37.277 74.455 68.5 118.875 92.719 8.954 4.883 17.662 9.282 26.125 13.219 54.104 25.188 113.249 39.846 174.219 42.469l-.031.219h.031c97.725 4.2 193.274-22.953 273.438-75.938 15.38-10.166 30.385-21.453 44.875-33.813a460.627 460.627 0 0 0 40.031-38.531c20.026-20.955 19.535-54.203-1.219-74.563-10.461-10.263-24.075-15.318-37.656-15.188z"/></svg>