<svg xmlns="http://www.w3.org/2000/svg" width="817" height="1000"><path d="M170.507 50c-60.551 0-109.688 64.791-109.688 144.375 0 79.505 49.137 144.313 109.688 144.313s109.656-64.808 109.656-144.313C280.163 114.791 231.057 50 170.507 50zm476.438 0c-60.552 0-109.656 64.791-109.656 144.375 0 79.505 49.105 144.313 109.656 144.313 60.55 0 109.688-64.808 109.688-144.313C756.633 114.791 707.495 50 646.945 50zM53.039 496.813c-18.3.414-35.968 10.065-45.781 27.063-14.954 25.9-6.057 59.077 19.844 74.031l709.063 378.75c25.9 14.954 59.077 6.057 74.031-19.844 14.953-25.902 6.057-59.077-19.844-74.031L81.289 504.063c-8.903-5.14-18.664-7.467-28.25-7.25z"/></svg>