<svg xmlns="http://www.w3.org/2000/svg" width="1000" height="1000"><path d="M53.124 111.719c-19.81.058-38.793 11.221-47.906 30.281-12.679 26.518-1.457 58.321 25.063 71l151.813 80.25c-3.034 45.712 8.308 92.828 34.031 128.125 20.554 28.23 51.333 49.125 87.344 49.125 90.142 0 126.618-107.279 121.188-179.406-119.785-52.833-231.843-114.748-348.438-174.156a53.065 53.065 0 0 0-23.094-5.219zm893.5 0a53.065 53.065 0 0 0-23.094 5.219c-116.595 59.408-228.653 121.323-348.438 174.156C569.661 363.222 606.137 470.5 696.28 470.5c36.011 0 66.79-20.895 87.344-49.125 25.723-35.297 37.065-82.413 34.031-128.125L969.468 213c26.519-12.679 37.742-44.482 25.063-71-9.113-19.061-28.096-30.223-47.906-30.281zM494.03 648.844c-165.217.478-330.443 61.75-460.656 184l-2.906 2.969c-5.883 5.581-10.716 10.191-14.438 13.938-20.747 20.849-20.973 54.992-.594 76.219 20.376 21.227 53.783 21.473 74.531.625l12.094-11.969 2.75-2.406C216.749 807.124 359.167 755.288 501.03 756.564c142.934 1.235 285.543 56.401 396.063 165.125a555.635 555.635 0 0 1 12.094 12.219c20.398 21.227 53.784 21.493 74.531.625 20.747-20.848 20.971-55.023.594-76.25a636.613 636.613 0 0 0-14.156-14.313C839.592 715.534 670.965 650.3 501.906 648.845c-2.622-.023-5.253-.008-7.875 0z" fill="#1f1a17"/></svg>