<svg xmlns="http://www.w3.org/2000/svg" width="1447" height="1000"><path d="M743.639 0C683.58 0 634.834 64.263 634.834 143.198c0 78.873 48.746 143.135 108.805 143.135 60.059 0 108.774-64.261 108.774-143.135C852.413 64.263 803.698 0 743.639 0zM142.302 80.543c-29.478 0-53.413 23.935-53.413 53.413s23.935 53.413 53.413 53.413l289.823.031c29.478 0 53.413-23.935 53.413-53.413s-23.935-53.413-53.413-53.413l-289.823-.031zm1039.921 20.151c-16.55-.029-34.726 2.394-54.764 7.483-111.743 50.416-108.432 174.211-92.898 266.213l-130.718-.534c-68.012-.218-123.685 52.749-123.927 122.763-.099 34.751 8.063 71.075 29.928 98.651a124.4 124.4 0 0 0-23.138 38.197c-17.887 47.341-10.209 105.266 22.981 143.921-4.516 5.32-17.869 26.628-18.013 26.628-28.601 57.395-9.706 144.385 45.836 179.037 17.497 10.91 38.855 17.298 64.258 17.322l378.194-.252c90.756-3.416 167.126-75.775 167.027-168.631V543.933c0-48.636-30.383-108.228-48.98-151.372-24.794-57.472-48.731-115.225-72.62-173.063-30.237-72.69-71.449-118.677-143.167-118.803zm2.578 115.376c29.969-1.17 42.588 47.679 50.74 67.307 21.302 51.538 42.587 129.038 64.667 180.231 20.59 47.713 37.429 88.485 37.474 104.184v254.959c.043 41.438-35.486 72.574-75.324 74.067l-332.483.22c-16.525 0-25.802-9.272-30.085-24.175-4.432-15.116-6.471-34.029 4.213-47.094 6.382-7.828 16.119-12.709 26.282-12.795 20.743.93 38.166-17.397 38.166-37.663 0-20.764-16.794-37.608-37.537-37.694-9.172 0-17.999-4.039-24.27-10.658-14.253-15.508-15.717-49.775-.189-65.107 3.46-3.397 7.735-6.151 12.387-7.86 3.849-1.406 7.865-2.169 11.758-2.169 20.721 0 37.851-16.938 37.851-37.725 0-20.761-16.794-37.607-37.537-37.694-28.203 0-33.681-28.524-33.639-50.112 0-12.005 6.869-23.154 17.165-29.079-1.383-2.099 188.631-4.058 209.374-3.993 27.455 0 46.775-30.007 33.26-55.393-26.964-50.629-44.688-207.118 21.503-220.817 2.156-.546 4.227-.865 6.225-.944zM52.296 479.673a53.454 53.454 0 0 0-20.749 4.716c-26.935 12.133-38.95 43.895-26.816 70.828C71.286 702.853 199.105 809.484 349.16 851.892a536.507 536.507 0 0 0 90.163 17.259c29.938 3.094 60.424 3.815 90.76 1.824l2.861-.189 2.42-.189c29.478-2.176 51.627-27.895 49.451-57.373-2.176-29.479-27.927-51.596-57.405-49.42l-2.453.157-.566.095a432.354 432.354 0 0 1-74.161-1.321c-24.269-2.513-48.462-7.247-72.149-13.927-120.057-33.921-222.388-119.356-275.707-237.605-9.1-20.2-29.22-32.01-50.08-31.532z"/></svg>