<svg xmlns="http://www.w3.org/2000/svg" width="999" height="1000"><path d="M261.346 50c-60.551 0-109.688 64.791-109.688 144.375 0 79.505 49.137 144.313 109.688 144.313s109.656-64.808 109.656-144.313C371.002 114.791 321.896 50 261.346 50zm476.438 0c-60.552 0-109.656 64.791-109.656 144.375 0 79.505 49.105 144.313 109.656 144.313 60.55 0 109.688-64.808 109.688-144.313C847.472 114.791 798.334 50 737.784 50zm208.219 598.844c-13.491.11-26.926 5.48-37.125 16.094a555.635 555.635 0 0 1-12.094 12.219c-110.519 108.724-253.129 163.89-396.063 165.125-141.863 1.276-284.281-50.56-396.219-155.656l-2.75-2.406-12.094-11.969c-20.749-20.848-54.155-20.602-74.531.625-20.379 21.227-20.154 55.401.594 76.25 3.722 3.746 8.554 8.357 14.438 13.938l2.906 2.969c132.28 124.191 300.701 185.444 468.531 183.969 169.059-1.455 337.686-66.658 468.25-195.094a639.245 639.245 0 0 0 14.156-14.344c20.378-21.227 20.154-55.371-.594-76.219-10.374-10.434-23.915-15.61-37.406-15.5z"/></svg>