<svg xmlns="http://www.w3.org/2000/svg" width="944" height="1000"><path d="M843.997 0c-80.678.939-181.049 45.981-280.875 105.613C323.669 71.092 64.53 209.159 53.615 492.039c60.186-93.177 224.123-256.588 367.46-301.373l-.031 13.624C242.32 294.471-149.987 816.014 60.49 977.111c90.518 69.281 310.783-37.165 344.775-76.211 28.709 5.394 58.448 8.218 88.896 8.218 201.139 0 370.835-123.609 423.703-292.499H616.459c-12.251 56.815-55.009 92.709-120.206 92.709-102.741 0-125.986-68.653-125.986-151.608h560.938c28.945-203.344-113.816-384.176-306.216-438.952C799.115 4.348 987.723-42.113 924.269 222.82h19.248C978.58 113.942 965.218 32.098 905.646 9.843 887.96 3.236 868.568.121 847.839 0c-1.271-.007-2.563-.015-3.844 0zm-351.93 303.405c79.263 0 128.049 47.466 128.049 128.361H368.238c0-77.042 45.869-128.361 123.83-128.361zm-367.429 421.86c58.746 82.662 149.564 144.396 256.253 170.356-76.511 58.601-226.295 84.41-265.784 52.182-48.493-39.58-36.219-123.587 9.53-222.539z"/></svg>