<svg xmlns="http://www.w3.org/2000/svg" width="1948" height="1000"><path d="M53.124 0C33.314.058 14.331 11.221 5.218 30.281c-12.679 26.518-1.457 58.321 25.063 71l151.813 80.25c-3.034 45.712 8.308 92.828 34.031 128.125 20.554 28.23 51.333 49.125 87.344 49.125 90.142 0 126.649-107.279 121.219-179.406C304.903 126.542 192.814 64.627 76.219 5.219A53.065 53.065 0 0 0 53.125 0zm518.938 169.281c-29.681 0-53.781 24.069-53.781 53.75s24.1 53.781 53.781 53.781l186.063.031c29.681 0 53.781-24.1 53.781-53.781 0-29.681-24.1-53.781-53.781-53.781H572.062zm619.094 87.063c-40.559 0-77.626 16.438-104.906 42.906l-2.156 1.969c-5.198 5.288-10.114 10.991-14.531 17-10.965 14.902-19.167 32.088-24.094 50.625-17.516 6.79-35.071 14.406-52.375 22.969-27.521 13.579-54.972 29.568-82.313 48.375l.063.094C838.258 490.245 748.246 599.246 710 705.032c-7.993 22.113-13.944 44.205-17.219 65.625-3.215 21.212-3.843 42.591-1.5 63.531l.313 3.75.188 1.313c9.163 67.269 36.958 114.105 77.969 139.281 8.953 5.468 18.523 9.911 28.438 13.125 7.841 2.524 16.392 4.452 25.375 5.594 1.952.39 3.863.599 5.906.75l3.031.25v-.063l1.031.063c53.929 3.184 100.142 1.885 145.719.563 20.31-.57 40.632-1.162 59.5-1.281 118.584-.842 143.015-91.938 167.531-183.813 6.82-25.567 13.831-51.249 22.844-71.438h219.188c84.033 0 126.789-45.01 147.219-100.563 3.816-10.395 6.773-21.085 8.906-31.781l289.094 1.219h1.532c28.902 0 52.344-23.472 52.344-52.375V404.688h.219v-66.219h-.188l-.031-.813a76.654 76.654 0 0 0-22.25-52.75c-11.718-11.778-27.26-19.682-44.625-21.875-3.065-.54-6.255-.938-9.5-.938h-49.095v.25l-.813-.031c-18.958.331-36.151 7.591-49.281 19.188l-.25.219-.75.594-2.313 2.063-.187.188c-8.984 8.923-15.71 20.252-19.375 32.75h-162.5c-13.4-17.907-30.766-32.861-50.625-43.406l-.063.125c-4.838-2.583-9.63-4.827-14.437-6.75l-4.094-1.719c-13.88-5.078-28.951-8.122-44.844-8.813-2.043-.24-4.209-.406-6.312-.406h-274.938zm277.656 105.125c4.116.3 8.194 1.216 12.25 2.688l1.25.469.469.125.219.063c1.502.57 2.73 1.178 3.781 1.719l.25.125-.031.094c9.374 4.957 16.916 13.207 21.031 23.063 8.984 21.632 30.827 34.143 53 32.25h237.094a52.412 52.412 0 0 0 44.344-24.344v6.969h.219v101.531l-285.438-1.219c-28.842-.091-52.382 23.156-52.594 51.969v.188c-.029 2.974-.297 7.427-.687 13.375h-.031v.219l-.031.75a161.573 161.573 0 0 1-2.5 17.75c-1.081 5.648-2.606 11.174-4.469 16.281-6.399 17.426-20.444 31.625-48.625 31.625h-249.344c-19.048 0-35.683 10.234-44.906 25.406-4.477 6.339-8.681 12.995-12.406 19.875l-.125.281c-5.738-3.815-34.823 96.966-36.656 103.906-14.18 53.178-28.347 105.886-66.563 106.156-22.203.15-42.049.74-61.938 1.281v.031c-42.272 1.232-85.091 2.444-135.625-.5v-.094l-3.031-.219-1.938-.063c-1.623-.3-3.354-.805-5.156-1.375a30.329 30.329 0 0 1-6.25-2.844c-13.88-8.532-24.061-29.798-28.688-63.688l-.188-1.313-.094-.656c-1.261-11.055-.792-23.633 1.25-37.063 2.284-14.842 6.41-30.178 11.938-45.5 31.186-86.257 103.546-174.443 161.531-214.281l.125-.094.063.094c22.893-15.743 46.024-29.21 69.188-40.656a553.294 553.294 0 0 1 69.844-28.75c21.933-7.331 35.905-27.756 35.875-49.688h.062v-.219h-.062l-.063-2c.421-9.133 3.742-17.817 9-24.969a52.428 52.428 0 0 1 4.656-5.438c8.262-8.202 19.726-13.281 32.344-13.281h274.938l2.719-.031zM441.843 537.407c-122.949 0-240.53 43.346-333.438 119.938-17.835 14.701-34.969 30.884-51.219 48.438-16.15 17.446-31.116 35.937-44.75 55.406-16.74 23.963-10.87 56.979 13.094 73.719 23.963 16.74 56.948 10.87 73.688-13.094 11.043-15.77 22.962-30.54 35.625-44.219 12.562-13.571 26.206-26.397 40.813-38.438 73.93-60.946 167.802-95.438 266.188-95.438h.031v-.219c18.085.001 36.372 1.219 54.656 3.625 1.643.216 1.364.282 8.906 1.438 15.192 2.328 30.111 5.444 44.656 9.344 28.322 7.567 57.401-9.272 64.969-37.594 7.567-28.322-9.241-57.401-37.563-64.969a523.697 523.697 0 0 0-56.281-11.844c-.926-.142-2.722-.316-11-1.406a524.37 524.37 0 0 0-68.344-4.469v-.219h-.031z"/></svg>