<svg xmlns="http://www.w3.org/2000/svg" width="1000" height="1000"><path d="M45.628 706.351l-.012-.025c-.102-.227-.2-.444-.278-.663a504.617 504.617 0 0 1-21.256-54.914 500.49 500.49 0 0 1-14.753-57.252C-10.139 494.189.603 389.81 43.986 295.204c2.626-5.734 9.506-8.179 15.352-5.447.725.345 1.394.741 2.019 1.187l.025-.018 79.936 58.667c4.707 3.459 6.132 9.686 3.607 14.615a367.436 367.436 0 0 0-12.419 37.286 370.2 370.2 0 0 0-8.487 39.068c-10.893 67.54-2.98 137.137 22.442 201.002 2.006 5.014.252 10.504-3.919 13.442l.017.014-79.519 56.112c-5.183 3.651-12.455 2.386-16.25-2.82a11.019 11.019 0 0 1-1.154-1.967l-.008.005zm119.843-574.708l.019-.018c.187-.168.364-.327.55-.464a511.347 511.347 0 0 1 46.146-36.999 509.56 509.56 0 0 1 50.397-31.598C351.892 13.534 455.406-8.6 559.625 3.048c6.314.7 10.788 6.43 9.972 12.783a12.638 12.638 0 0 1-.515 2.265l.025.021-31.613 93.453c-1.866 5.505-7.403 8.772-12.915 7.915a374.566 374.566 0 0 0-39.63-.178 380.086 380.086 0 0 0-40.123 4.072c-68.198 10.609-132.559 39.572-186.008 83.261-4.193 3.438-10.005 3.483-14.114.459l-.007.02-78.436-57.59c-5.105-3.754-6.139-10.998-2.315-16.181.457-.621.97-1.191 1.533-1.697l-.007-.007zm588.698-64.667l.025.013c.217.124.424.242.614.374a513.044 513.044 0 0 1 49.775 32.049 507.537 507.537 0 0 1 45.903 37.725c74.665 69.005 127.898 159.703 148.923 261.508 1.278 6.168-2.839 12.154-9.189 13.348a13.07 13.07 0 0 1-2.334.215l-.012.03-99.476-.911c-5.861-.057-10.707-4.265-11.589-9.724a365.94 365.94 0 0 0-12.073-37.397 370.838 370.838 0 0 0-16.31-36.547c-31.258-60.986-78.947-112.681-137.4-149.546-4.597-2.889-6.436-8.352-4.804-13.159l-.021-.002 31.041-91.705c2.029-5.969 8.662-9.182 14.819-7.181a11.31 11.31 0 0 1 2.102.92l.005-.009zm243.993 534.741l-.006.026c-.054.243-.103.477-.17.698a504.424 504.424 0 0 1-15.383 56.805 501.606 501.606 0 0 1-22.028 54.911c-43.165 91.679-113.776 169.866-205.003 221.137-5.524 3.112-12.542 1.081-15.652-4.534a12.96 12.96 0 0 1-.927-2.132l-.033-.001-29.864-94.018c-1.755-5.538.783-11.407 5.752-13.923a371.889 371.889 0 0 0 32.166-22.935 375.203 375.203 0 0 0 30.046-26.662c48.881-48.298 83.766-109.211 101.087-175.683a11.407 11.407 0 0 1 11.147-8.594l-.006-.02 97.622.912c6.358.066 11.491 5.324 11.473 11.745 0 .768-.078 1.526-.233 2.265l.011.001zM560.257 996.872l-.027.004c-.248.026-.488.052-.719.056a517.3 517.3 0 0 1-59.281 3.059 513.742 513.742 0 0 1-59.517-3.787c-101.343-12.346-198.216-54.721-275.622-124.837-4.695-4.245-4.913-11.485-.484-16.15.55-.575 1.14-1.083 1.761-1.533l-.009-.03 81.017-57.195c4.776-3.365 11.194-2.785 15.145 1.117a371.378 371.378 0 0 0 31.955 23.225 377.828 377.828 0 0 0 34.877 20.07c61.466 31.136 130.718 45.184 199.876 40.967 5.435-.341 10.163 3.008 11.693 7.848l.02-.013 29.289 92.27c1.902 6.011-1.559 12.471-7.728 14.439-.737.237-1.489.398-2.246.481l.002.009z"/></svg>