<svg xmlns="http://www.w3.org/2000/svg" width="1000" height="1000"><path d="M495.571.188C319.765.188 164.91 90.115 74.477 226.469a503.864 503.864 0 0 0-45.125 84.5A500.76 500.76 0 0 0 .977 403.157c-.09.308-.186.65-.25.969v.031H.79c-.145.736-.25 1.504-.25 2.281 0 6.416 5.209 11.594 11.625 11.594H113.04c5.185.005 9.911-3.495 11.25-8.75 29.147-113.201 108.762-206.163 213.438-253.531a380.335 380.335 0 0 1 63.688-22.281 384.001 384.001 0 0 1 94.125-11.688v.063h.031v-.063c25.467 0 50.473 2.532 74.781 7.344 4.551.901 9.231 1.931 14 3.063a386.052 386.052 0 0 1 13.813 3.531h.031a11.595 11.595 0 0 0 13.188-5.406l50.156-86.875c.516-.801.933-1.681 1.25-2.625 2.037-6.089-1.225-12.68-7.313-14.719a502.122 502.122 0 0 0-64.875-16.938 498.765 498.765 0 0 0-12.969-2.281c-26.627-4.359-54.016-6.623-82-6.625V.188h-.063zm326.906 113.875a11.61 11.61 0 0 0-10.344 5.844l-50.094 86.75c-2.988 4.544-2.463 10.697 1.563 14.656 29.65 29.12 54.588 63.019 73.563 100.438a382.205 382.205 0 0 1 10.375 22.219c19.859 46.325 30.874 97.326 30.875 150.844h-.063v.031c0 77.145-22.763 148.915-61.938 209a384.735 384.735 0 0 1-24.688 33.688 386.462 386.462 0 0 1-27.719 30.406l-.031.031-.375.344.031.031c-3.689 3.613-4.63 9.377-1.938 14.063l50.188 86.969c.428.809.961 1.597 1.594 2.313 4.253 4.806 11.602 5.252 16.406 1 58.229-51.639 104.441-116.505 133.906-189.875a501.288 501.288 0 0 0 15.281-43.75c13.589-45.641 20.905-94.045 20.906-144.219.001-108.271-34.092-208.57-92.094-290.75a507.637 507.637 0 0 0-36.5-45.813 508.907 508.907 0 0 0-41.469-41.281h-.031c-.58-.514-1.207-1.003-1.906-1.406a11.55 11.55 0 0 0-5.5-1.531zM11.633 581.907v.063c-.751.001-1.517.065-2.281.219-6.291 1.257-10.383 7.366-9.125 13.656 33.724 165.908 148.81 302.319 301.75 365.688a500.975 500.975 0 0 0 93.188 28.344c32.281 6.481 65.672 9.873 99.844 9.875v.063h.031c40.203 0 79.33-4.728 116.844-13.625a502.087 502.087 0 0 0 21.688-5.656c6.667-1.898 13.628-4.088 20.875-6.5a11.601 11.601 0 0 0 2.625-1.094c5.559-3.221 7.44-10.346 4.219-15.906l-50.438-87.375c-2.585-4.474-7.944-6.816-13.156-5.375a381.908 381.908 0 0 1-41.875 9.125c-2.619.417-5.392.818-8.313 1.219a386.091 386.091 0 0 1-52.406 3.594v-.063h-.063c-128.347 0-241.969-63.085-311.531-159.906a11.55 11.55 0 0 0-.406-.594c-13.605-19.008-25.451-39.187-35.344-60.281-9.825-20.949-17.824-42.907-23.75-65.656-.882-5.565-5.685-9.813-11.5-9.813H11.634z"/></svg>