<svg xmlns="http://www.w3.org/2000/svg" width="1000" height="1000"><path d="M493.556-.063C227.954-.063 11.25 209.678.056 472.531c-.765 18.027 13 19.031 13 19.031h83.813c16.291 0 19.146-9.297 19.531-17.625 9.228-199.317 175.315-357.688 377.156-357.688 107.739 0 204.915 45.163 273.719 117.563l-58.813 56.875c-10.23 12.319-10.043 27.275 5.063 31.5l247.125 49.75c21.15 5.281 46.288-10.747 37.656-43.656l-58.375-227.563c-1.482-8.615-15.924-22.024-29.406-12.406l-64.094 60.031C756.772 56.776 631.804-.063 493.556-.063zm409.625 508.5c-16.291 0-19.146 9.297-19.531 17.625-9.228 199.317-175.315 357.688-377.156 357.688-107.739 0-204.915-45.132-273.719-117.531l58.813-56.906c10.229-12.319 10.043-27.275-5.063-31.5L39.4 628.063c-21.15-5.281-46.288 10.747-37.656 43.656l58.375 227.563c1.482 8.615 15.924 22.024 29.406 12.406l64.094-60.031c89.659 91.567 214.627 148.406 352.875 148.406 265.602 0 482.306-209.741 493.5-472.594.765-18.027-13-19.031-13-19.031h-83.813z"/></svg>