<svg xmlns="http://www.w3.org/2000/svg" width="824" height="1000"><path d="M173.906 50c-60.551 0-109.688 64.791-109.688 144.375 0 79.505 49.137 144.313 109.688 144.313s109.656-64.808 109.656-144.313C283.562 114.791 234.456 50 173.906 50zm476.438 0c-60.552 0-109.656 64.791-109.656 144.375 0 79.505 49.105 144.313 109.656 144.313 60.55 0 109.688-64.808 109.688-144.313C760.032 114.791 710.894 50 650.344 50zm120.594 560.25l-717.625.969C23.895 611.219 0 635.114 0 664.532c0 29.417 23.895 53.313 53.313 53.313l139.781-.094v74c0 55.468 19.488 108.485 59.375 148.406 46.458 46.574 103.539 59.719 165.094 59.719 57.486 0 111.831-17.398 153.875-59.406 40.289-40.188 59.719-93.349 59.719-149.219v-74.125l139.781-.281c29.418 0 53.313-23.864 53.313-53.281 0-29.417-23.895-53.313-53.313-53.313zM300.125 718.625h224v72.094c0 27.767-7.072 53.331-27.906 74.094-38.775 38.713-129.319 38.991-168.094.094-20.442-20.478-28-44.986-28-73.156v-73.125z"/></svg>