<svg xmlns="http://www.w3.org/2000/svg" width="999" height="1000"><path d="M261.346 50c-60.551 0-109.688 64.791-109.688 144.375 0 79.505 49.137 144.313 109.688 144.313s109.656-64.808 109.656-144.313C371.002 114.791 321.896 50 261.346 50zm476.438 0c-60.552 0-109.656 64.791-109.656 144.375 0 79.505 49.105 144.313 109.656 144.313 60.55 0 109.688-64.808 109.688-144.313C847.472 114.791 798.334 50 737.784 50zM493.721 648.844c-165.217.478-330.443 61.75-460.656 184l-2.906 2.969c-5.883 5.581-10.716 10.191-14.438 13.938-20.747 20.849-20.973 54.992-.594 76.219 20.376 21.227 53.783 21.473 74.531.625l12.094-11.969 2.75-2.406C216.44 807.124 358.858 755.288 500.721 756.564c142.934 1.235 285.543 56.401 396.063 165.125a555.635 555.635 0 0 1 12.094 12.219c20.398 21.227 53.784 21.493 74.531.625 20.747-20.848 20.971-55.023.594-76.25a636.613 636.613 0 0 0-14.156-14.313C839.283 715.534 670.656 650.3 501.597 648.845c-2.622-.023-5.253-.008-7.875 0z"/></svg>