<svg xmlns="http://www.w3.org/2000/svg" width="774" height="1000"><path d="M663.813 49.875c-60.55 0-109.656 64.791-109.656 144.375 0 79.505 49.105 144.313 109.656 144.313 60.55 0 109.688-64.808 109.688-144.313 0-79.584-49.137-144.375-109.688-144.375zm-342.938 98.188l-267 .031C24.155 148.094 0 172.219 0 201.938c0 29.72 24.155 53.844 53.875 53.844l267-.031c29.72 0 53.844-24.124 53.844-53.844 0-29.72-24.124-53.844-53.844-53.844zM58.562 509.251a52.988 52.988 0 0 0-18.25 3.188c-27.519 9.976-41.726 40.388-31.75 67.906 46.007 126.456 136.345 227.621 249.625 288.5a535.668 535.668 0 0 0 68.625 30.906c57.773 21.255 120.085 32.717 184.594 32.719 56.467 0 112.266-8.853 165.313-26.063a534.453 534.453 0 0 0 30.625-10.969c11.02-4.335 21.121-8.624 30.25-12.875l-.094-.188.5-.219.031-.031c26.372-12.612 37.518-44.222 24.906-70.594-12.537-26.215-43.849-37.381-70.125-25.125l-.063-.188c-8.734 4.066-16.764 7.548-24.031 10.406a432.174 432.174 0 0 1-24.813 8.906c-42.901 13.918-87.622 21.063-132.5 21.063-51.285-.001-101.291-9.291-148.063-26.5-19.037-7.004-37.379-15.237-54.906-24.656-90.914-48.858-163.375-129.954-200.219-231.219-7.793-21.499-28.045-34.899-49.656-34.969z"/></svg>