<svg version="1.1" id="Layer_1" xmlns="http://www.w3.org/2000/svg" x="0" y="0" viewBox="0 0 72 56" xml:space="preserve"><path d="M34.6 26.1c1.5 0 2.8-1.2 2.8-2.8 0-1.5-1.2-2.8-2.8-2.8-1.5 0-2.8 1.2-2.8 2.8 0 1.5 1.3 2.8 2.8 2.8zm0 2.2c-1.9 0-3.5 1.5-3.5 3.5 0 1.9 1.5 3.5 3.5 3.5 1.9 0 3.5-1.5 3.5-3.5 0-1.9-1.6-3.5-3.5-3.5z"/><path d="M59.2 3.8H12.6c-.5 0-.8.4-.8.8v46.6c0 .4.4.8.8.8h46.6c.4 0 .8-.4.8-.8V4.6c0-.4-.4-.8-.8-.8zM26 37c0 .2-.1.3-.3.3h-1.8c-.2 0-.3-.1-.3-.3V20.8h-2.4c-.2 0-.3-.1-.3-.3v-1.7c0-.2.1-.3.3-.3h4.5c.2 0 .3.1.3.3V37zm8.6.6c-3.2 0-5.8-2.6-5.8-5.8 0-1.9.9-3.6 2.5-4.7-1.1-1-1.8-2.4-1.8-3.8 0-2.8 2.3-5.1 5.1-5.1s5.1 2.3 5.1 5.1c0 1.5-.7 2.9-1.8 3.8 1.5 1.1 2.5 2.8 2.5 4.7 0 3.2-2.6 5.8-5.8 5.8zm16.3-17.1c0 .2-.1.3-.3.3h-5v5.6h4.1c.2 0 .3.1.3.3v1.7c0 .2-.1.3-.3.3h-4.1V37c0 .2-.1.3-.3.3h-1.8c-.2 0-.3-.1-.3-.3V18.8c0-.2.1-.3.3-.3h7.1c.2 0 .3.1.3.3v1.7z"/></svg>