<svg xmlns="http://www.w3.org/2000/svg" viewBox="0 0 50.39 50.39"><path d="M0 0v50.39h11.58v-4.2H4.2V4.2l41.99.01v27.16h4.2V.01L0 0z"/><path d="M26.29 41.88a3.94 3.94 0 00-1.88-1.49 4.46 4.46 0 00-1.66-.28 3.67 3.67 0 00-1.81.41 5.67 5.67 0 00-.76.52l.39-2.62h5.77v-3h-8.4l-1.4 8.5h3.22a2.06 2.06 0 012.68-.87 1.76 1.76 0 01.83.87 3 3 0 01.19 1.82 2.16 2.16 0 01-.66 1.25 2 2 0 01-2.62-.14 1.94 1.94 0 01-.46-1.22H16.1a4.36 4.36 0 003.3 4.46 7.88 7.88 0 002.16.3 6.45 6.45 0 002-.3 5.44 5.44 0 003-2.45 5.09 5.09 0 00.66-2.58 5.68 5.68 0 00-.93-3.18zm10.95 1.93v-8.39H34l-6.12 8.21v3.21h5.88v3.55h3.47v-3.55H39v-3zm-6.51 0c1-1.28 2-2.58 3-3.84v3.84zm19.64-2a11.34 11.34 0 00-.65-3.5 5 5 0 00-1.56-2.24 4.66 4.66 0 00-2.56-.94 5.71 5.71 0 00-2.94.46 4.27 4.27 0 00-1.72 1.54 7 7 0 00-.89 2.13 14.15 14.15 0 00-.35 3.23 15.4 15.4 0 00.35 3.77 6.43 6.43 0 001.15 2.52 4 4 0 001.87 1.36 6.34 6.34 0 003.9 0 4.11 4.11 0 001.69-1.12 5.94 5.94 0 001.27-2.42 12.67 12.67 0 00.44-2.94s.04-1.23 0-1.85zm-7-.35a7.58 7.58 0 01.4-2.45 1.38 1.38 0 01.94-.89 1.3 1.3 0 011.14.26 2.46 2.46 0 01.65 1.27 11.6 11.6 0 01.23 2.28v2.34a7.2 7.2 0 01-.38 2.1 1.57 1.57 0 01-.78.93 1.26 1.26 0 01-1.32-.17 2.14 2.14 0 01-.58-1 10.1 10.1 0 01-.27-2.19v-2.42z"/></svg>