<svg xmlns="http://www.w3.org/2000/svg" viewBox="0 0 72 56"><path d="M12 4h48v40.4c-.1-1.1-.2-2.2-.6-3.2-.3-.8-.8-1.5-1.4-2.1-.7-.5-1.5-.8-2.4-.9-.9-.1-1.9 0-2.7.4-.6.3-1.2.8-1.6 1.4-.4.6-.7 1.3-.8 2-.2 1-.3 1.9-.3 2.9 0 1.2.1 2.3.3 3.5.2.8.5 1.6 1.1 2.3.4.6 1 1 1.7 1.2h-5.5v-3h1.6v-2.8h-1.6v-7.7h-3l-5.4 7.2c-.1.1-.2.2-.2.4v3h5.4v3h-9.4c1.2-.4 2.2-1.2 2.8-2.3.4-.7.6-1.6.6-2.4 0-1-.3-2.1-.8-2.9-.4-.6-1-1.1-1.7-1.4-.5-.2-1-.3-1.5-.3-.6 0-1.2.1-1.7.4-.3.1-.5.3-.7.5 0-.2 0-.4.1-.6l.3-1.8h5.3v-2.8h-7.7c-.4 2.6-.9 5.2-1.3 7.8h3c.4-.9 1.6-1.2 2.5-.8.3.2.6.5.8.8.2.5.3 1.1.2 1.7-.1.4-.3.9-.6 1.2-.3.3-.7.4-1.2.4s-1-.2-1.3-.5c-.3-.3-.4-.7-.4-1.1h-3.4c0 .9.2 1.8.7 2.5.6.8 1.4 1.3 2.3 1.6H12V4"/><path d="M54.8 41c.4-.1.8 0 1 .2.3.3.5.7.6 1.2.2.7.2 1.4.2 2.1v2.2c0 .7-.1 1.3-.4 1.9-.1.4-.4.7-.7.9-.4.2-.9.1-1.2-.2-.3-.2-.4-.6-.5-1-.2-.7-.2-1.3-.2-2v-2.2c0-.8.1-1.5.4-2.2.1-.5.4-.8.8-.9M41.7 46.2c.9-1.2 1.8-2.4 2.8-3.6v3.6h-2.8M59.6 48.7c.3-.9.3-1.8.4-2.7v6h-3.1c.6-.2 1.1-.6 1.6-1 .5-.7.9-1.4 1.1-2.3"/></svg>