<svg xmlns="http://www.w3.org/2000/svg" viewBox="0 0 72 56"><path d="M50.3 16.2h.5c.1-3.7.7-7.4 1.9-11l.3-1c.1-.4.5-.6.9-.6s.8.3.9.6l.3 1c1.2 3.6 1.8 7.3 1.9 11h.5v6.3l1.5 4v23.3H48.8V26.4l1.5-4v-6.2zM59 50.6H48.8V52H59v-1.4zM38.5 16.2h.5c.1-3.7.7-7.4 1.9-11l.3-1c.1-.4.5-.6.9-.6s.8.3.9.6l.3 1c1.2 3.6 1.8 7.3 1.9 11h.5v6.3l1.5 4v23.3H36.9V26.4l1.5-4 .1-6.2zM47.2 50.6H36.9V52h10.2v-1.4zM26.2 16.2h.5c.1-3.7.7-7.4 1.9-11l.3-1c.1-.4.5-.6.9-.6s.8.3.9.6l.3 1c1.2 3.6 1.8 7.3 1.9 11h.5v6.3l1.5 4v23.3H24.7V26.4l1.5-4v-6.2zM34.9 50.6H24.7V52h10.2v-1.4zM14.3 16.2h.5c.1-3.7.7-7.4 1.9-11l.3-1c.1-.4.5-.6.9-.6s.8.3.9.6l.3 1c1.2 3.6 1.8 7.3 1.9 11h.5v6.3l1.5 4v23.3H12.7V26.4l1.5-4 .1-6.2zM23 50.6H12.7V52H23v-1.4z"/></svg>