<svg xmlns="http://www.w3.org/2000/svg" viewBox="0 0 37.83 46.99"><path d="M37.62 27.06a.26.26 0 00-.34-.21 11.59 11.59 0 00-6.35 5.14.26.26 0 00.29.37l1.8-.44a.26.26 0 01.24.44l-.64.63c-3.78 3.4-4.58 4-8.09 4a3.61 3.61 0 01-3.31-2.11 6.93 6.93 0 01-.49-2.71c-.05-2.26-.1-4.52-.1-6.77l-.15-10.65h5.24a2.13 2.13 0 100-2.25h-5.25v-3a4.84 4.84 0 10-3 0v3h-5.38a2.13 2.13 0 100 2.25h5.23l-.15 10.65c0 2.26-.05 4.51-.09 6.77a6.94 6.94 0 01-.5 2.71 3.59 3.59 0 01-3.3 2.11c-3.52 0-4.32-.6-8.1-4l-.62-.6a.26.26 0 01.24-.44l1.8.44a.26.26 0 00.29-.37A11.55 11.55 0 00.51 26.9a.25.25 0 00-.33.21c-.16 1.18-.6 5.56 1 8a.26.26 0 00.44-.12l.55-1.38a.26.26 0 01.49 0c.56 1.64 2.62 5.74 9.56 8.8.25.09 5.21 1.81 6.42 4.37a.29.29 0 00.52 0c1.22-2.56 6.18-4.28 6.42-4.37 6.95-3.06 9-7.16 9.57-8.8a.26.26 0 01.48 0c.18.44.4 1 .55 1.38a.26.26 0 00.46 0c1.6-2.37 1.16-6.75.98-7.93zM18.91 6.87a2 2 0 112-2 2 2 0 01-2 2z"/></svg>