<svg xmlns="http://www.w3.org/2000/svg" viewBox="0 0 72 56"><path d="M41.66 47.21h-3.61v-33h15.19L46.81 24.4a1.1 1.1 0 00.34 1.53 1.18 1.18 0 00.59.17 1.12 1.12 0 00.94-.52l5.58-8.85 5.58 8.85a1.11 1.11 0 101.87-1.18l-6.43-10.21h.08a1.72 1.72 0 100-3.43H42.73a5.6 5.6 0 00-3-2.2 3.91 3.91 0 00-7.79 0 5.64 5.64 0 00-3 2.2H16.31a1.72 1.72 0 000 3.43h.08L10 24.4a1.11 1.11 0 00.35 1.53 1.15 1.15 0 00.59.17 1.12 1.12 0 00.94-.52l5.57-8.85L23 25.58a1.11 1.11 0 001.88-1.18l-6.44-10.21h15.18v33H30a3.91 3.91 0 00-3.91 3.91h19.47a3.91 3.91 0 00-3.9-3.89z"/><path d="M25.57 27.28H9.26a.59.59 0 00-.59.59 8.75 8.75 0 0017.49 0 .59.59 0 00-.59-.59zm36.84 0h-16.3a.58.58 0 00-.59.59 8.74 8.74 0 0017.48 0 .58.58 0 00-.59-.59z"/></svg>