<svg xmlns="http://www.w3.org/2000/svg" viewBox="0 0 45.46 48.25"><path d="M.17 45.72a1.2 1.2 0 002.2.6 22.27 22.27 0 015.85-6 8.53 8.53 0 002.15 5 1.2 1.2 0 002.09-.6 10.53 10.53 0 013.89-5.75c.8.67 2.53 2.76 3.21 8.17a1.2 1.2 0 001.8.91c1.54-.91 5.05-3.22 6-6.64a23.81 23.81 0 012.41 3.49 1.19 1.19 0 001.13.62 1.2 1.2 0 001-.75 17.57 17.57 0 001.28-5 33.72 33.72 0 004.37.58 1.21 1.21 0 00.91-2.07c-2.58-2.1-7.11-8.53-6.86-17.92 4.44 0 5.75 1.35 7.23 1.35a3.85 3.85 0 002.52-1.2 4.56 4.56 0 01.7 2.71.8.8 0 00.54.86.81.81 0 001-.36c3.68-6.43 1.23-10.07-.94-12.23-1.32-1.32-3.59-2-5.63-2.32C36.32 6.43 33.51 0 22.79 0 10.98 0 3.69 8.62 2.35 10.34a1 1 0 001 1.61l.67-.13a9.94 9.94 0 00-1.94 2.78 1 1 0 001.17 1.37l1.21-.31A70 70 0 00.17 45.72z"/></svg>