<svg xmlns="http://www.w3.org/2000/svg" viewBox="0 0 72 56"><path d="M61 49.12c0 1-.27 1.88-1.57 1.88H13.35A2.36 2.36 0 0111 48.65V5.22c0-1.3.85-1.57 1.88-1.57s1.88.27 1.88 1.57v39.67a2.36 2.36 0 002.35 2.35h42.32c1.3 0 1.57.84 1.57 1.88z"/><path d="M22.13 44h3.12a1.55 1.55 0 001.55-1.56V26.8a1.55 1.55 0 00-1.55-1.56h-3.12a1.56 1.56 0 00-1.56 1.56v15.59A1.56 1.56 0 0022.13 44zm9.24-.37h3.26A1.63 1.63 0 0036.26 42V12.65A1.63 1.63 0 0034.63 11h-3.26a1.63 1.63 0 00-1.63 1.63V42a1.63 1.63 0 001.63 1.63zm9.78 0h3.27A1.63 1.63 0 0046.05 42v-9.79a1.63 1.63 0 00-1.63-1.63h-3.27a1.63 1.63 0 00-1.63 1.63V42a1.63 1.63 0 001.63 1.63zm9.79 0h3.26A1.63 1.63 0 0055.83 42V19.17a1.63 1.63 0 00-1.63-1.63h-3.26a1.63 1.63 0 00-1.63 1.63V42a1.63 1.63 0 001.63 1.63z"/></svg>