<svg xmlns="http://www.w3.org/2000/svg" viewBox="0 0 72 56"><path d="M50.14 29.62a9 9 0 00-2.79.58v.73a11.21 11.21 0 01-5.76 9.78 9.15 9.15 0 00.61 1.83 9.44 9.44 0 00.87 1.46A14.77 14.77 0 0051 30.93c0-.44 0-.87-.06-1.3h-.35zM30.76 40.71A11.2 11.2 0 0125 30.93v-.73a9 9 0 00-2.79-.58h-.75c0 .43-.07.86-.07 1.3A14.77 14.77 0 0029.31 44a10 10 0 00.84-1.45 9.83 9.83 0 00.61-1.84zM30.19 21.49a11.11 11.11 0 0112 0 9.08 9.08 0 001.86-2.22c.12-.2.22-.42.32-.63a14.73 14.73 0 00-16.36 0c.1.22.2.43.31.63a9.12 9.12 0 001.87 2.22z"/><path d="M32.71 30.93a3.46 3.46 0 012.48-3.31V25.7H35a11.09 11.09 0 01-6.35-3 11.19 11.19 0 01-2-2.45c-.07-.12-.13-.26-.2-.39a11.06 11.06 0 016.03-15.71V2.08a16.69 16.69 0 00-13 16.26 16.4 16.4 0 00.25 2.73 16.36 16.36 0 00-3 1.36 16.69 16.69 0 00-7.61 19.38l1.79-1A11.06 11.06 0 0121.8 27.65h.52a11.24 11.24 0 018.85 5.07l.11.16 1.6-.93a3.39 3.39 0 01-.17-1.02zM55.67 22.43a16.71 16.71 0 00-3-1.37 16.19 16.19 0 00.24-2.72 16.7 16.7 0 00-13-16.27v2.08a11.12 11.12 0 017.42 10.48A10.93 10.93 0 0146 19.88c-.07.13-.12.27-.2.4a11.09 11.09 0 01-2 2.44 11 11 0 01-6.36 3h-.24v1.91a3.47 3.47 0 012.48 3.32 3.32 3.32 0 01-.16 1l1.6.93.1-.16a11.24 11.24 0 018.85-5.07h.53a11 11 0 0110.86 13.12l1.8 1a16.7 16.7 0 00-7.59-19.34zM38.39 33.59a3.37 3.37 0 01-4.41 0l-1.81 1a11.07 11.07 0 01.43 6.88 11.25 11.25 0 01-.6 1.9 11.75 11.75 0 01-.79 1.43 11.09 11.09 0 01-16.55 2.39l-1.79 1a16.68 16.68 0 0020.53 3.15 16.3 16.3 0 002.79-2 16.65 16.65 0 0023.35-1.09l-1.79-1A11.11 11.11 0 0145 48.38a11 11 0 01-3.76-3.58 10.54 10.54 0 01-.79-1.43 11.25 11.25 0 01-.64-1.85 11 11 0 01.43-6.88z"/></svg>