<svg xmlns="http://www.w3.org/2000/svg" viewBox="0 0 72 56"><path d="M61.26 46.71h-.64c-.35 0-.35-.42-.35-.42V16.7a1.35 1.35 0 00-1.34-1.36h-10.3a.33.33 0 01-.35-.36v-5.7c0-.06 0-.12.21-.12a.75.75 0 00.74-.75V7.07a.75.75 0 00-.74-.75H24.56a.75.75 0 00-.74.75v1.34a.75.75 0 00.74.75.21.21 0 01.22.22v5.47s0 .49-.28.49H13.37A1.35 1.35 0 0012 16.7v29.68c0 .29-.15.33-.45.33h-.51a.75.75 0 00-.74.75V49a.75.75 0 00.74.76h50.22A.75.75 0 0062 49v-1.54a.75.75 0 00-.74-.75zm-21.9-24.88h4.43a.6.6 0 01.59.6v4.51a.6.6 0 01-.59.6h-4.43a.59.59 0 01-.59-.6v-4.51a.59.59 0 01.59-.6zM38.77 19v-4.47a.59.59 0 01.59-.6h4.43a.6.6 0 01.59.6V19a.6.6 0 01-.59.6h-4.43a.59.59 0 01-.59-.6zm.59 10.41h4.43a.6.6 0 01.59.6v4.51a.6.6 0 01-.59.6h-4.43a.59.59 0 01-.59-.6v-4.47a.59.59 0 01.59-.6zm.64 9.1a.6.6 0 01.59.6v7a.6.6 0 01-.59.6h-6.84a.6.6 0 01-.6-.6v-7a.6.6 0 01.6-.6zM34.3 19a.6.6 0 01-.59.6h-4.43a.59.59 0 01-.59-.6v-4.47a.59.59 0 01.59-.6h4.43a.6.6 0 01.59.6V19zm-5 2.79h4.43a.6.6 0 01.59.6v4.51a.6.6 0 01-.59.6h-4.45a.59.59 0 01-.59-.6v-4.47a.59.59 0 01.59-.6zm0 7.62h4.43a.6.6 0 01.59.6v4.51a.6.6 0 01-.59.6h-4.45a.59.59 0 01-.59-.6v-4.47a.59.59 0 01.59-.6zM50 22.29a.6.6 0 01.59-.6H55a.6.6 0 01.6.6v4.51a.6.6 0 01-.6.6h-4.39a.6.6 0 01-.59-.6zm0 7.9a.6.6 0 01.59-.6H55a.6.6 0 01.6.6v4.51a.6.6 0 01-.6.6h-4.39a.6.6 0 01-.59-.6zm0 7.62a.6.6 0 01.59-.6H55a.6.6 0 01.6.6v4.51a.6.6 0 01-.6.6h-4.39a.6.6 0 01-.59-.6zM16.67 22.29a.6.6 0 01.59-.6h4.43a.59.59 0 01.59.6v4.51a.59.59 0 01-.59.6h-4.43a.6.6 0 01-.59-.6zm0 7.9a.6.6 0 01.59-.6h4.43a.59.59 0 01.59.6v4.51a.59.59 0 01-.59.6h-4.43a.6.6 0 01-.59-.6zm0 7.62a.6.6 0 01.59-.6h4.43a.59.59 0 01.59.6v4.51a.59.59 0 01-.59.6h-4.43a.6.6 0 01-.59-.6z"/></svg>