<svg data-name="Layer 1" xmlns="http://www.w3.org/2000/svg" viewBox="0 0 72 56"><path d="M12 16.8h1.6v9.6H12a1.6 1.6 0 01-1.6-1.6v-6.4a1.6 1.6 0 011.6-1.6zm48 0h-1.6v9.6H60a1.6 1.6 0 001.6-1.6v-6.4a1.6 1.6 0 00-1.6-1.6zm-4.8-3.2v28.8a3.2 3.2 0 01-3.2 3.2v3.2a3.2 3.2 0 01-3.2 3.2h-3.2a3.2 3.2 0 01-3.2-3.2v-3.2H29.6v3.2a3.2 3.2 0 01-3.2 3.2h-3.2a3.2 3.2 0 01-3.2-3.2v-3.2a3.2 3.2 0 01-3.2-3.2V13.6A9.6 9.6 0 0126.4 4h19.2a9.6 9.6 0 019.6 9.6zm-25.6-3.2h12.8V7.2H29.6zm-3.2 28.8a3.2 3.2 0 10-3.2 3.2 3.2 3.2 0 003.2-3.2zm25.6 0a3.2 3.2 0 10-3.2 3.2 3.2 3.2 0 003.2-3.2zm0-25.6H20v19.2h32V13.6z"/></svg>