<svg xmlns="http://www.w3.org/2000/svg" viewBox="0 0 72 56"><path d="M52.26 56H19.74A2.78 2.78 0 0117 53.21V2.79A2.78 2.78 0 0119.74 0h32.52A2.77 2.77 0 0155 2.79v50.42A2.77 2.77 0 0152.26 56zM20.38 2.43a1.28 1.28 0 00-1.28 1.28v48.58a1.28 1.28 0 001.28 1.28h31.24a1.28 1.28 0 001.28-1.28V3.71a1.28 1.28 0 00-1.28-1.28z"/><path d="M39.13 26.34H22.68a.69.69 0 01-.69-.69V5.6a.69.69 0 01.69-.69h16.45a.69.69 0 01.69.69v20a.69.69 0 01-.69.74zM23.37 25h15.07V6.29H23.37zM35.43 30.37h-12a.69.69 0 110-1.38h12a.69.69 0 010 1.38zM35.43 33.26h-12a.69.69 0 110-1.38h12a.69.69 0 010 1.38z"/><path d="M38.62 21.25a3 3 0 00-3-3h-9.44a3 3 0 00-3 3v4.58h15.44v-4.58zM34.93 13.15a4 4 0 11-4.05-4.05 4 4 0 014.05 4.05M27.71 51.65h-4.27a.69.69 0 01-.69-.69V36.6a.68.68 0 01.69-.68h4.27a.68.68 0 01.69.68V51a.69.69 0 01-.69.65zm-3.58-1.37H27v-13h-2.87zM49.89 14H43a.69.69 0 010-1.38h6.88a.69.69 0 010 1.38zM49.89 16.64H43a.68.68 0 01-.68-.69.67.67 0 01.68-.68h6.88a.68.68 0 01.69.68.69.69 0 01-.68.69zM49.89 26.23H43a.68.68 0 01-.68-.69.67.67 0 01.68-.68h6.88a.68.68 0 01.69.68.69.69 0 01-.68.69zM37.53 49.07h-5.66a1 1 0 01-1-1v-5.68a1 1 0 011-1h5.66a1 1 0 011 1v5.66a1 1 0 01-1 1.02zM32 47.94h5.44V42.5H32z"/></svg>