<svg data-name="Layer 1" xmlns="http://www.w3.org/2000/svg" viewBox="0 0 72 56"><path d="M53.37 30.15a.84.84 0 00-.37-.09 1 1 0 00-.72.31l-2 2a1 1 0 00-.28.69V41a5 5 0 01-5 5H19a5 5 0 01-5-5V15a5 5 0 015-5h26a5.78 5.78 0 011.4.18.85.85 0 00.28.07 1 1 0 00.72-.32l1.53-1.52a1 1 0 00.28-.91 1 1 0 00-.56-.72A8.6 8.6 0 0045 6H19a8.66 8.66 0 00-6.35 2.64A8.66 8.66 0 0010 15v26a8.66 8.66 0 002.64 6.35A8.66 8.66 0 0019 50h26a9 9 0 009-9v-9.94a.91.91 0 00-.63-.91z"/><path d="M61.21 12.23L57.78 8.8a2.49 2.49 0 00-3.56 0L34 29l-8.21-8.21a2.49 2.49 0 00-3.56 0l-3.44 3.43a2.49 2.49 0 000 3.56L32.24 41.2a2.49 2.49 0 003.56 0l25.41-25.41a2.49 2.49 0 000-3.56z"/></svg>