<svg xmlns="http://www.w3.org/2000/svg" viewBox="0 0 72 56"><path d="M43 14.06a10.47 10.47 0 0110.42 10.33 4.48 4.48 0 00-.05.64l-.09 2.56 2.42.84a6.94 6.94 0 01-2.28 13.51H18.58A7 7 0 0118.47 28l.5.05 2.65.18.87-2.5A7 7 0 0129 21a6.86 6.86 0 011.22.13l2.44.44 1.21-2.16A10.46 10.46 0 0143 14.06m0-3.48a13.86 13.86 0 00-12.1 7.15 11.14 11.14 0 00-1.9-.18 10.4 10.4 0 00-9.83 7c-.21 0-.41-.06-.62-.06a10.45 10.45 0 000 20.9h34.87a10.43 10.43 0 003.42-20.29c0-.21.07-.4.07-.61A13.94 13.94 0 0043 10.58z"/></svg>