<svg data-name="Layer 1" xmlns="http://www.w3.org/2000/svg" viewBox="0 0 54.13 47.76"><path d="M50.84 32.99l-.41-1c1.4-3.17 1.31-3.27 1-3.54l-1.79-1.75-.18-.15h-.21c-.11 0-.44 0-3.16 1.23l-1-.4c-1.3-3.21-1.43-3.21-1.81-3.21h-2.49c-.38 0-.52 0-1.73 3.22l-1 .4a17.37 17.37 0 00-3.21-1.17h-.24l-1.93 1.89c-.29.28-.39.37 1.09 3.49l-.41 1c-3.29 1.28-3.29 1.4-3.29 1.79v2.48c0 .39 0 .52 3.29 1.7l.41 1c-1.4 3.17-1.31 3.26-1 3.54l1.8 1.75.17.15h.21c.11 0 .43 0 3.16-1.24l1 .41c1.3 3.21 1.43 3.21 1.81 3.21h2.53c.38 0 .52 0 1.73-3.22l1-.41a17 17 0 003.2 1.18h.24l1.95-1.9c.27-.28.37-.38-1.11-3.49l.41-1c3.29-1.27 3.29-1.41 3.29-1.79v-2.47c-.02-.39-.02-.53-3.32-1.7zm-8.77 7.11a4.12 4.12 0 114.2-4.12 4.16 4.16 0 01-4.2 4.12zm-15-21.43l-.53-1.27c1.83-4.14 1.71-4.26 1.35-4.62l-2.34-2.29-.23-.19h-.25c-.14 0-.57 0-4.13 1.61l-1.31-.53c-1.69-4.19-1.86-4.19-2.36-4.19h-3.3c-.49 0-.68 0-2.25 4.21l-1.31.53a21.5 21.5 0 00-4.19-1.53h-.31L3.4 12.88c-.38.36-.51.49 1.42 4.57l-.53 1.26C0 20.37 0 20.53 0 21.03v3.24c0 .51 0 .69 4.3 2.23l.54 1.26c-1.83 4.13-1.71 4.26-1.36 4.61l2.34 2.29.25.22h.27c.14 0 .56 0 4.12-1.61l1.31.53c1.69 4.19 1.86 4.19 2.36 4.19h3.3c.51 0 .69 0 2.26-4.21l1.31-.53a21.5 21.5 0 004.19 1.53h.31l2.57-2.52c.36-.36.48-.49-1.44-4.55l.53-1.26c4.29-1.66 4.29-1.83 4.29-2.33v-3.24c-.04-.5-.04-.68-4.38-2.21zm-11.36 9.29a5.39 5.39 0 115.48-5.39 5.46 5.46 0 01-5.48 5.39zM49.07 7.5l-.35-.83c1.2-2.71 1.12-2.79.89-3l-1.54-1.51-.15-.13h-.18a9.91 9.91 0 00-2.67 1.05l-.86-.34C43.11 0 42.99 0 42.67 0h-2.13c-.33 0-.45 0-1.48 2.75l-.85.34a14.14 14.14 0 00-2.74-1h-.2l-1.64 1.62c-.25.24-.34.32.92 3l-.34.83c-2.8 1.08-2.8 1.18-2.8 1.51v2.12c0 .33 0 .45 2.8 1.45l.35.82c-1.19 2.71-1.11 2.79-.88 3l1.53 1.49.15.14h.18a10 10 0 002.69-1.06l.85.35c1.11 2.73 1.22 2.73 1.55 2.73h2.15c.33 0 .45 0 1.48-2.74l.85-.35a14.89 14.89 0 002.73 1h.23l1.66-1.62c.23-.23.31-.32-.94-3l.28-.8c2.8-1.09 2.8-1.2 2.8-1.52V8.95c.04-.34.04-.45-2.8-1.45zm-7.44 6.06a3.52 3.52 0 113.58-3.51 3.56 3.56 0 01-3.55 3.51z"/></svg>