<svg data-name="Layer 1" xmlns="http://www.w3.org/2000/svg" viewBox="0 0 72 56"><path d="M41 35.82A19.73 19.73 0 0049 30a12.39 12.39 0 000-16 19.73 19.73 0 00-8-5.8 28 28 0 00-11-2.09 28 28 0 00-11 2.13 19.63 19.63 0 00-8 5.8 12.56 12.56 0 00-2.93 8 12.19 12.19 0 002.21 7 18.1 18.1 0 006.06 5.51 14.68 14.68 0 01-.63 1.37 8.11 8.11 0 01-.71 1.14l-.7.9a10.78 10.78 0 01-.81.92c-.37.39-.61.65-.71.78s0 0-.13.14-.13.16-.14.15 0 0-.12.16l-.11.17-.08.15a.82.82 0 00-.06.19 1.23 1.23 0 000 .2.45.45 0 000 .2 1.07 1.07 0 00.35.66 1 1 0 00.64.25h.09c1-.15 1.93-.32 2.68-.5a26.25 26.25 0 008.64-4A31.35 31.35 0 0030 38a28 28 0 0011-2.18z"/><path d="M61.65 37a12.11 12.11 0 00-.13-14.13 18.38 18.38 0 00-6.34-5.54 15.95 15.95 0 01-1.37 12.63 20.94 20.94 0 01-6 6.59 27.71 27.71 0 01-8.2 4A33 33 0 0130 41.93c-.62 0-1.53 0-2.74-.13A26.11 26.11 0 0042 45.9a31.41 31.41 0 005.47-.49 26.25 26.25 0 008.64 4 26.9 26.9 0 002.68.49.92.92 0 00.68-.21 1.15 1.15 0 00.4-.69v-.4l-.06-.19-.08-.15-.11-.17a1.62 1.62 0 00-.12-.16l-.14-.15a1 1 0 00-.13-.14c-.1-.13-.34-.39-.71-.78a10.78 10.78 0 01-.81-.92L57 45a7.7 7.7 0 01-.78-1.2c-.21-.41-.43-.87-.63-1.36A18.36 18.36 0 0061.65 37z"/></svg>