<svg xmlns="http://www.w3.org/2000/svg" viewBox="0 0 72 56"><path d="M48.89 41.84A23.16 23.16 0 0058.25 35a14.53 14.53 0 000-18.75 23.25 23.25 0 00-9.36-6.8A33 33 0 0036 7a33 33 0 00-12.89 2.5 23.25 23.25 0 00-9.36 6.8 14.78 14.78 0 00-3.43 9.38 14.4 14.4 0 002.59 8.17A21.34 21.34 0 0020 40.29c-.25.59-.5 1.12-.75 1.61a10.14 10.14 0 01-.91 1.4c-.36.45-.63.81-.82 1.06s-.52.64-.92 1.08-.72.76-.84.91l-.15.16c-.15.16-.15.2-.16.18s-.06.05-.15.19l-.13.2-.09.18a.81.81 0 00-.07.22 1.64 1.64 0 000 .23.61.61 0 00-.01.29 1.23 1.23 0 00.42.77 1.16 1.16 0 00.75.29h.1a29.74 29.74 0 003.14-.59 30.71 30.71 0 0010.14-4.66 37.55 37.55 0 006.42.58 32.77 32.77 0 0012.92-2.55z"/></svg>