<svg data-name="Layer 1" xmlns="http://www.w3.org/2000/svg" viewBox="0 0 72 56"><path d="M27.69 34.62l-4.85-7.84.37-.36 1.6 1.37a1.5 1.5 0 00.53 1.93 1.54 1.54 0 00.81.23 1.49 1.49 0 00.87-.27L37 38.2a.62.62 0 00.44.18.64.64 0 00.47-.21.65.65 0 000-.91l-10.11-8.6 5-7.88a1.49 1.49 0 000-1.62 2.26 2.26 0 00-.25-.29L26.74 12a1.5 1.5 0 00-1.24-.66l-7.67.07a1.22 1.22 0 00-1.07.69l-2.37 5.09-.63-.54a.63.63 0 00-.9 0 .64.64 0 000 .91l.93.8-.24.53a1.52 1.52 0 00.59 2 1.42 1.42 0 00.74.2 1.51 1.51 0 001.27-.7l.78.67-3.53 3.81a2.37 2.37 0 00-.76 1.66l-.26 8.58-2.33 10.08A2.35 2.35 0 0011.81 48a2.48 2.48 0 00.54.06 2.35 2.35 0 002.29-1.83l2.44-10.53.23-7.63 1.4 1 4 6.49-4.38 9.15a2.35 2.35 0 104.25 2L27.76 36a1.37 1.37 0 00-.07-1.38z"/><circle cx="33.46" cy="12.22" r="4.3"/><path d="M61.39 45.33c-1.44-2.1-8.34-15.16-10.12-17s-3.36-2.08-4.44-1.64a6.94 6.94 0 00-3 2.24c-1.27 1.73-3 6.91-4.44 9.23a11.08 11.08 0 00-.8 1l-.08.06c-1.06.64-4 1.19-5.19 2.4a15.63 15.63 0 00-1.92 2.6l-.18.25a8.22 8.22 0 01-3.93 3.27v.32h33.14c.23.02 2.72-.16.96-2.73z"/></svg>