<svg xmlns="http://www.w3.org/2000/svg" viewBox="0 0 72 56"><path d="M40.39 14.72a1.61 1.61 0 10-1.61-1.61 1.61 1.61 0 001.61 1.61"/><path d="M50.77 43.31l-17.7.69a.81.81 0 01-.81-.78.8.8 0 01.77-.83l17.71-.73a.79.79 0 01.84.77.81.81 0 01-.78.84zM31.93 36a.82.82 0 01.78-.84l17.7-.72a.79.79 0 01.84.77.81.81 0 01-.77.84l-17.71.72a.81.81 0 01-.81-.77zm-.29-7.24a.81.81 0 01.77-.84l17.7-.72a.78.78 0 01.89.8.81.81 0 01-.77.84l-17.7.72a.8.8 0 01-.8-.77zm-.3-7.24a.81.81 0 01.77-.84L49.82 20a.78.78 0 01.84.78.81.81 0 01-.78.83l-17.7.73a.81.81 0 01-.81-.77zm9.05-11.63a3.22 3.22 0 11-3.22 3.22 3.22 3.22 0 013.22-3.22zm16.91.77a2.36 2.36 0 00-1.41-2.08A35.06 35.06 0 0024.7 10a2.62 2.62 0 00-1.23 2.34l1.64 34.21a2.38 2.38 0 001.41 2.08l.24.11a34.46 34.46 0 0030.68-1.25l.24-.13a2.38 2.38 0 001.23-2.19z"/><path d="M21.86 12.33a4.21 4.21 0 012.06-3.75 36.67 36.67 0 0111.33-4 34.65 34.65 0 00-15 1.25 2.35 2.35 0 00-1.64 1.89l-5.49 33.77a2.36 2.36 0 001 2.32l.22.16a34.31 34.31 0 0010.1 5 4 4 0 01-.9-2.36z"/></svg>