<svg xmlns="http://www.w3.org/2000/svg" viewBox="0 0 72 56"><path d="M13.54 51.66h8.29v-7.95h15.72v7.94h8V39.04H13.54v12.62zm48.92-31.31c-1.32-1.62-2.64-3.3-3.91-4.92l-1.23-1.57.33-.46a25 25 0 001.73-2.6c.18-.33 1-2 .1-3a1.44 1.44 0 00-1.06-.43 3.62 3.62 0 00-1.68.6h-.08c-.91.57-1.77 1.13-2.66 1.73l-.12.08-.68-1.66c-.34-.84-.66-1.63-1-2.58a1.71 1.71 0 00-1.54-1.2 1.5 1.5 0 00-1.08.48 3.44 3.44 0 00-.69 2.59 15.39 15.39 0 01-.35 3.79 2.52 2.52 0 01-.55 1.2l-6.17 6.31a2.44 2.44 0 01-2 .88H17.84A4 4 0 0014 21.78l-5.9 9.39 3.77 2.71 1.59-2.45V36H46l.11-.26C47.4 32.91 48.74 30 50 27.19l.82-1.8c.07-.16.15-.32.23-.48l1.78.75c2.15.91 4.18 1.76 6.22 2.68a3.2 3.2 0 001.35.32 2.79 2.79 0 002.21-1.22 5.38 5.38 0 00-.15-7.09zm-38.91 7.39L21.9 29l.63 1.95a.58.58 0 01-.55.77.66.66 0 01-.35-.11L20 30.35l-1.66 1.21a.6.6 0 01-.68 0 .58.58 0 01-.21-.66l.61-1.9-1.66-1.26a.58.58 0 01.34-1h2.05l.63-2a.6.6 0 01.56-.41.59.59 0 01.55.41l.64 2h2a.58.58 0 01.56.4.59.59 0 01-.18.6zm10.66 0L32.55 29l.63 1.95a.58.58 0 01-.21.66.58.58 0 01-.68 0l-1.66-1.21L29 31.56a.58.58 0 01-.89-.66l.6-1.9-1.66-1.21a.59.59 0 01-.21-.65.58.58 0 01.56-.4h2l.64-2a.59.59 0 01.55-.41.58.58 0 01.55.41l.64 2h2a.58.58 0 01.34 1zm10.28 0L42.83 29l.64 1.95a.6.6 0 01-.21.66.66.66 0 01-.35.11.6.6 0 01-.34-.11l-1.66-1.21-1.65 1.21a.59.59 0 01-.9-.66L39 29l-1.66-1.21a.58.58 0 01.34-1h2l.63-2a.58.58 0 011.11 0l.63 2h2a.58.58 0 01.55.4.57.57 0 01-.11.55z"/></svg>