<svg xmlns="http://www.w3.org/2000/svg" viewBox="0 0 72 56"><path d="M36.45 7.05H25.83a17.89 17.89 0 00-17.37 13.6h45.37a17.91 17.91 0 00-17.38-13.6zm-12.64 7.19l-1.71 1.24.65 2a.6.6 0 01-.22.67.57.57 0 01-.35.12.6.6 0 01-.36-.12l-1.71-1.25-1.72 1.25a.62.62 0 01-.71 0 .59.59 0 01-.22-.67l.65-2-1.71-1.24a.59.59 0 01-.22-.68.6.6 0 01.57-.42h2.13l.65-2a.61.61 0 011.15 0l.66 2h2.12a.6.6 0 01.35 1.1zm11.06 0l-1.72 1.24.65 2a.6.6 0 01-.22.67.57.57 0 01-.35.12.62.62 0 01-.36-.12l-1.71-1.25-1.72 1.25a.62.62 0 01-.71 0 .6.6 0 01-.22-.67l.65-2-1.71-1.24a.61.61 0 01.35-1.1h2.13l.65-2a.61.61 0 011.15 0l.66 2h2.12a.61.61 0 01.36 1.1zm10.66 0l-1.71 1.24.65 2a.6.6 0 01-.22.67.57.57 0 01-.35.12.62.62 0 01-.36-.12l-1.71-1.25-1.72 1.25a.62.62 0 01-.71 0 .6.6 0 01-.22-.67l.66-2-1.72-1.24a.61.61 0 01.35-1.1h2.13l.65-2a.6.6 0 01.58-.41.59.59 0 01.57.41l.66 2h2.12a.61.61 0 01.58.42.62.62 0 01-.23.68zM58.34 32v9.16a2.1 2.1 0 01-2.09 2.09 2 2 0 01-1.9-2.09V23.81H8v24.87h9.69V35.92h18.13v12.76h9.1V35.56a1.91 1.91 0 011.91-1.91 1.84 1.84 0 011.8 1.9v5.59A7.63 7.63 0 0056.25 49a7.81 7.81 0 007.81-7.81V32z"/></svg>