<svg xmlns="http://www.w3.org/2000/svg" viewBox="0 0 72 56"><path d="M47.76 36.76H23.28a1.08 1.08 0 100 2.16h24.48a1.08 1.08 0 000-2.16zM47.76 22.6H23.28a1.08 1.08 0 100 2.16h24.48a1.08 1.08 0 100-2.16z"/><path d="M46.92 0H18.74a3.44 3.44 0 00-3.44 3.43v49.14A3.44 3.44 0 0018.74 56h34.52a3.44 3.44 0 003.44-3.43V10.62zm.81 5.14L52 9.79h-4.27zm6.08 47.43a.55.55 0 01-.55.55H18.74a.55.55 0 01-.55-.55V3.43a.54.54 0 01.55-.54h26.11v8.35a1.45 1.45 0 001.44 1.44h7.52z"/><path d="M47.76 29.62H23.28a1.08 1.08 0 100 2.16h24.48a1.08 1.08 0 100-2.16z"/></svg>