<svg data-name="Layer 1" xmlns="http://www.w3.org/2000/svg" viewBox="0 0 72 56"><path d="M36.57 36.76h-16.9a1.08 1.08 0 000 2.16h16.06a3.41 3.41 0 01.84-2.16zm7.59-14.16H19.67a1.08 1.08 0 100 2.16h24.49a1.08 1.08 0 100-2.16z"/><path d="M50.21 37.92v14.65a.55.55 0 01-.55.55H15.13a.55.55 0 01-.55-.55V3.43a.55.55 0 01.55-.54h26.11v8.35a1.45 1.45 0 001.45 1.44h7.52v3c.07 0 .61-1 .69-1 .71-.95 1-.85 1.48-1h.69v-3.06L43.32 0H15.13a3.44 3.44 0 00-3.43 3.43v49.14A3.44 3.44 0 0015.13 56h34.53a3.44 3.44 0 003.43-3.43V33.26c-.32.44-.63.9-.92 1.37a16.16 16.16 0 00-1.96 3.29zM44.13 5.14l4.28 4.65h-4.28z"/><path d="M41.29 29.62H19.67a1.08 1.08 0 000 2.16h20.19zM27 48.83c.07.44.59.58.93.72s.72-.12 1-.26c1.69-.82 4 .15 5.78.15a.83.83 0 000-1.66c-2.11 0-3.86-.54-6-.19a1.06 1.06 0 00-.17-.51 1.32 1.32 0 00-1.39-.77 1.28 1.28 0 00-.11-.24.8.8 0 00-.52-.37 3.43 3.43 0 00.58-3 .82.82 0 00-.72-.41c-1.1 0-2.05 1.12-2.77 1.82a51.85 51.85 0 00-4.86 5.7c-.66.84.79 1.67 1.43.83a60.39 60.39 0 014.3-5c-.37.61-.76 1.21-1.17 1.78-.59.91.81 1.69 1.43.84a1.64 1.64 0 01.53-.52l-.12.3-.09.2c-.37.93 1 1.35 1.52.64a4.25 4.25 0 00.35-.58 3.21 3.21 0 00.07.53zm33.29-28.67c0-.2-.4-2-3.07-3.73s-4.44-1.37-4.64-1.32a1.1 1.1 0 00-.64.46L37 38.29a1.11 1.11 0 00-.17.47l-1 8.45a1.1 1.1 0 00.48 1 1.11 1.11 0 001.14 0l7.4-4.21a1 1 0 00.36-.34l14.91-22.73a1.09 1.09 0 00.17-.77zM40.44 44.68a8.25 8.25 0 00-1.16-.89 11.1 11.1 0 00-1.28-.72l.3-2.53a8 8 0 014.35 2.85z"/></svg>