<svg data-name="Layer 1" xmlns="http://www.w3.org/2000/svg" viewBox="0 0 72 56"><path d="M46.92 0H18.74a3.44 3.44 0 00-3.44 3.43v49.14A3.44 3.44 0 0018.74 56h34.52a3.44 3.44 0 003.44-3.43V10.62zm.81 5.14L52 9.79h-4.27zm6.08 47.43a.55.55 0 01-.55.55H18.74a.55.55 0 01-.55-.55V3.43a.54.54 0 01.55-.54h26.11v8.35a1.45 1.45 0 001.44 1.44h7.52z"/><path d="M25 48.69v-3.42h3l4.91-6.94L28 31.89h-2.85v-3.41h10.58v3.41h-1.94l2.84 3.56 2.57-3.56h-1.83v-3.41h9.11v3.41h-2.81l-4.79 6.64 5.29 6.74h2.9v3.42H36.21v-3.42h2l-3-4-2.89 4h2.07v3.42z"/></svg>