<svg xmlns="http://www.w3.org/2000/svg" viewBox="0 0 72 56"><path d="M46.92 0H18.74a3.44 3.44 0 00-3.44 3.43v49.14A3.44 3.44 0 0018.74 56h34.52a3.44 3.44 0 003.44-3.43V10.62zm.81 5.14L52 9.79h-4.27zm6.08 47.43a.55.55 0 01-.55.55H18.74a.55.55 0 01-.55-.55V3.43a.54.54 0 01.55-.54h26.11v8.35a1.45 1.45 0 001.44 1.44h7.52z"/><path d="M29.15 48.82l-5.77-16.93h-2.14v-3.41h9.11v3.41h-2.09l3.28 9.71 3.08-9.71h-1.83v-3.41h7.27v3.41h-1.88l3.31 9.71 3.19-9.71h-2v-3.41h8.09v3.41h-2.2L43 48.82h-3.8L36 39.59l-3 9.23z"/></svg>