<svg xmlns="http://www.w3.org/2000/svg" viewBox="0 0 72 56"><path d="M38.65 9.62a5 5 0 00-4.4-2.68H11.43a3.32 3.32 0 00-3.32 3.31V12h31.8zM60.58 15H8.11v30.75a3.32 3.32 0 003.32 3.31h49.14a3.32 3.32 0 003.32-3.31V18.33A3.32 3.32 0 0060.58 15zM28.24 37h-2.13v-9l-2.26 9h-2.21l-2.25-9v9h-2.14V25.64h3.44l2.07 7.76 2-7.76h3.44V37zm4.51 0h-2.29V25.64h2.29zm10.32-1.49a3.2 3.2 0 01-1.53 1.27 6.42 6.42 0 01-2.48.42 4.91 4.91 0 01-3.32-1 4.32 4.32 0 01-1.38-2.91l2.24-.21a2.7 2.7 0 00.82 1.65 2.47 2.47 0 001.66.53 2.61 2.61 0 001.68-.47 1.42 1.42 0 00.56-1.1 1 1 0 00-.24-.69 1.87 1.87 0 00-.83-.49c-.27-.09-.88-.26-1.84-.5a6.26 6.26 0 01-2.59-1.12 3 3 0 01-.55-3.89 3 3 0 011.42-1.15 5.57 5.57 0 012.24-.4 4.78 4.78 0 013.22.94 3.34 3.34 0 011.14 2.51L41 29a1.94 1.94 0 00-.63-1.26 2.29 2.29 0 00-1.46-.39 2.56 2.56 0 00-1.56.42.81.81 0 00-.37.7.86.86 0 00.34.69 5.88 5.88 0 002.11.76 11.42 11.42 0 012.48.82 3.14 3.14 0 011.26 1.16 3.54 3.54 0 01-.09 3.64zm10.29.78a5.37 5.37 0 01-6.75-.65 5.88 5.88 0 01-1.46-4.23A6.27 6.27 0 0146.61 27a5.07 5.07 0 013.86-1.57 4.69 4.69 0 013.39 1.24 4.43 4.43 0 011.14 2.1l-2.28.55a2.34 2.34 0 00-2.39-1.91 2.61 2.61 0 00-2.06.9 4.51 4.51 0 00-.79 3 4.74 4.74 0 00.78 3.07 2.53 2.53 0 002 .92 2.29 2.29 0 001.57-.59 3.31 3.31 0 00.95-1.83l2.23.71a5 5 0 01-1.65 2.72z"/></svg>