<svg xmlns="http://www.w3.org/2000/svg" viewBox="0 0 72 56"><path d="M64 12.78v17s-3.63.71-4.38.81-3.08.85-4.78-.78C52.22 27.25 42.93 18 42.93 18a3.54 3.54 0 00-4.18-.21c-2.36 1.24-5.87 3.07-7.33 3.78a3.37 3.37 0 01-5.06-2.64 3.44 3.44 0 012.1-3c3.33-2 10.36-6 13.29-7.52 1.78-1 3.06-1 5.51 1C50.27 12 53 14.27 53 14.27a2.75 2.75 0 002.26.43C58.63 14 64 12.78 64 12.78zM27 41.5a3 3 0 00-3.55-4.09 3.07 3.07 0 00-.64-3 3.13 3.13 0 00-3-.75 3.07 3.07 0 00-.65-3 3.38 3.38 0 00-4.72.13c-1.38 1.32-2.27 3.72-1 5.14s2.64.55 3.72.3c-.3 1.07-1.2 2.07-.09 3.47s2.64.55 3.72.3c-.3 1.07-1.16 2.16-.1 3.46s2.84.61 4 .25c-.45 1.15-1.41 2.39-.18 3.79s4.08.75 5.47-.58a3.32 3.32 0 00.3-4.68A3.18 3.18 0 0027 41.5zm25.35-8.82L41.62 22a3.53 3.53 0 00-3.77-.68c-1.5.66-3.43 1.56-4.89 2.24a8.15 8.15 0 01-3.29 1.1 5.59 5.59 0 01-3-10.34C29 12.73 34.09 10 34.09 10a6.46 6.46 0 00-5-2c-3.42 0-10.58 4.7-10.58 4.7a5.61 5.61 0 01-4.93.13L8 10.89v19.4s1.59.46 3 1a6.33 6.33 0 011.56-2.47 6.17 6.17 0 018.48-.06 5.4 5.4 0 011.34 2.37 5.49 5.49 0 012.29 1.4A5.4 5.4 0 0126 34.94a5.47 5.47 0 013.71 4 5.38 5.38 0 012.39 1.43 5.65 5.65 0 011.48 4.89s.8.9 1.29 1.39a2.46 2.46 0 003.48-3.48s2 2.48 4.28 1c2-1.4 1.69-3.06.74-4a3.19 3.19 0 004.77.13 2.45 2.45 0 00.13-3.3s1.33 1.81 4 .12c1.89-1.6 1-3.43 0-4.39z" fill="#030104"/></svg>