<svg xmlns="http://www.w3.org/2000/svg" viewBox="0 0 72 56"><path d="M59.17 43.66a1.24 1.24 0 00-.37-.8L39.89 24A14.35 14.35 0 0016.54 8.2a14.36 14.36 0 0010.14 24.5 14.21 14.21 0 005.61-1.14l6.21 6.22a1.33 1.33 0 001 .38l3.35-.16-.11 3.39a1.3 1.3 0 001.34 1.34l3.39-.12-.12 3.39a1.31 1.31 0 00.38 1 1.21 1.21 0 001 .38l3.39-.11-.12 3.39a1.28 1.28 0 00.41 1 1.29 1.29 0 00.88.35h.15l5.19-.57A1.31 1.31 0 0059.75 50zM25 16.62a4.08 4.08 0 110-5.77 4.09 4.09 0 010 5.77zM54.74 44.1a1 1 0 01-.69.28 1 1 0 01-.69-.28L37.27 28a13.73 13.73 0 001.23-1.53l16.24 16.25a1 1 0 010 1.38z"/></svg>