<svg xmlns="http://www.w3.org/2000/svg" viewBox="0 0 72 56"><path d="M56 22.78v-6.19h-2.1V5.43H41L39.57 4h-7.14L31 5.43H18.1v11.16H16v6.19h2.1v-.61H25v-2.1l2.7-2.44v-2.18H30l1-.95.88 5h-.36c-2.3 0-3.28.47-3.71 1.52-3.21.79-2.32 3.6-2.68 9.17-.44 6.71-1.22 9.5-4.71 12.81s-3.58 5.32-3.58 5.32S18.78 51.69 34 52l-1.29-2-.5-.8.72-2.8.18-.71-2.92-4.18 1.66-3.6-.11-.73 1.16-4.37.24 4.45-.65 3.74 4.2 3.79-.42 1.64-.58 2.26.86 1.31 1.28 2c15.43-.25 17.41-3.65 17.41-3.65s-.09-2-3.58-5.32S47.39 36.9 47 30.19c-.36-5.57.54-8.37-2.67-9.17-.43-1.05-1.42-1.52-3.72-1.52h-.35l.87-5 1 .95h2.27v2.18l2.6 2.45v2.09h6.9v.61zM33.92 19.5l-1-5.44h2v5.44h-1zm3.79 0h-.66v-5.44h2l-1 5.44z"/></svg>