<svg data-name="Layer 1" xmlns="http://www.w3.org/2000/svg" viewBox="0 0 72 56"><path d="M11.42 13.39h49.19v.79H11.42zm0 1.37h49.19v4.98H11.42zm-6.47 5.56h62.1v.76H4.95zm0 1.33h62.1v.76H4.95zm0 15.52h62.1v.76H4.95zm-2.19 1.22h66.5v.76H2.76zM0 39.6h72v3.01H0zm8.38-16.19A.41.41 0 008 23H5.65a.43.43 0 100 .85H6c-.12 1.49-.48 6.65-.39 12.84h2.44c.06-6.19-.28-11.35-.4-12.84H8a.41.41 0 00.38-.44zm5.32 0a.42.42 0 00-.43-.42h-2.34a.43.43 0 000 .85h.34c-.13 1.49-.49 6.65-.4 12.84h2.49c.06-6.19-.27-11.35-.39-12.84h.33a.41.41 0 00.4-.43zm5.3 0a.41.41 0 00-.43-.42h-2.32a.43.43 0 100 .85h.33c-.12 1.49-.49 6.65-.39 12.84h2.49c.06-6.19-.28-11.35-.4-12.84h.33a.41.41 0 00.39-.43zm5.32 0a.41.41 0 00-.42-.41h-2.34a.43.43 0 000 .85h.33c-.12 1.49-.48 6.65-.39 12.84H24c.06-6.19-.27-11.35-.39-12.84h.33a.41.41 0 00.38-.44zm5.32 0a.41.41 0 00-.43-.42h-2.34a.43.43 0 000 .85h.34c-.12 1.49-.49 6.65-.4 12.84h2.49c.06-6.19-.27-11.35-.39-12.84h.33a.41.41 0 00.4-.43zm5.36 0a.41.41 0 00-.42-.42h-2.39a.43.43 0 100 .85h.33c-.12 1.49-.48 6.65-.39 12.84h2.49c.06-6.19-.28-11.35-.4-12.84h.34a.41.41 0 00.44-.43zm5.27 0a.42.42 0 00-.43-.42H37.5a.43.43 0 000 .85h.34c-.12 1.49-.49 6.65-.4 12.84h2.49c.06-6.19-.27-11.35-.39-12.84h.33a.41.41 0 00.4-.43zm5.31 0a.41.41 0 00-.42-.42h-2.34a.43.43 0 100 .85h.33c-.12 1.49-.48 6.65-.39 12.84h2.49c.06-6.19-.28-11.35-.4-12.84h.34a.43.43 0 00.39-.43zm5.31 0a.41.41 0 00-.42-.42h-2.34a.43.43 0 000 .85h.34c-.13 1.49-.49 6.65-.4 12.84h2.49c.06-6.19-.27-11.35-.39-12.84h.33a.43.43 0 00.39-.43zm5.32 0a.41.41 0 00-.43-.42h-2.33a.43.43 0 100 .85h.33c-.12 1.49-.49 6.65-.39 12.84h2.49c.06-6.19-.28-11.35-.4-12.84h.33a.43.43 0 00.4-.43zm5.28 0a.41.41 0 00-.42-.42h-2.34a.43.43 0 100 .85h.33c-.12 1.49-.48 6.65-.39 12.84h2.49c.06-6.19-.27-11.35-.4-12.84h.34a.41.41 0 00.39-.43zm5.32 0a.41.41 0 00-.43-.42H64a.43.43 0 000 .85h.34c-.12 1.49-.49 6.65-.4 12.84h2.49c.06-6.19-.27-11.35-.39-12.84h.33a.41.41 0 00.44-.43z"/></svg>