<svg xmlns="http://www.w3.org/2000/svg" viewBox="0 0 72 56"><path d="M11.42 13.39h49.19v.79H11.42zM11.42 14.76h49.19v4.98H11.42zM4.95 20.32h62.1v.76H4.95zM4.95 21.65h62.1v.76H4.95zM4.95 37.17h62.1v.76H4.95zM2.76 38.39h66.5v.76H2.76zM0 39.6h72v3.01H0zM8.38 23.41A.41.41 0 008 23H5.65a.43.43 0 100 .85H6c-.12 1.49-.48 6.65-.39 12.84h2.44c.06-6.19-.28-11.35-.4-12.84H8a.41.41 0 00.38-.44zM13.7 23.41a.42.42 0 00-.43-.42h-2.34a.43.43 0 000 .85h.34c-.13 1.49-.49 6.65-.4 12.84h2.49c.06-6.19-.27-11.35-.39-12.84h.33a.41.41 0 00.4-.43zM19 23.41a.41.41 0 00-.43-.42h-2.32a.43.43 0 100 .85h.33c-.12 1.49-.49 6.65-.39 12.84h2.49c.06-6.19-.28-11.35-.4-12.84h.33a.41.41 0 00.39-.43zM24.32 23.41a.41.41 0 00-.42-.41h-2.34a.43.43 0 000 .85h.33c-.12 1.49-.48 6.65-.39 12.84H24c.06-6.19-.27-11.35-.39-12.84h.33a.41.41 0 00.38-.44zM29.64 23.41a.41.41 0 00-.43-.42h-2.34a.43.43 0 000 .85h.34c-.12 1.49-.49 6.65-.4 12.84h2.49c.06-6.19-.27-11.35-.39-12.84h.33a.41.41 0 00.4-.43zM35 23.41a.41.41 0 00-.42-.42h-2.39a.43.43 0 100 .85h.33c-.12 1.49-.48 6.65-.39 12.84h2.49c.06-6.19-.28-11.35-.4-12.84h.34a.41.41 0 00.44-.43zM40.27 23.41a.42.42 0 00-.43-.42H37.5a.43.43 0 000 .85h.34c-.12 1.49-.49 6.65-.4 12.84h2.49c.06-6.19-.27-11.35-.39-12.84h.33a.41.41 0 00.4-.43zM45.58 23.41a.41.41 0 00-.42-.42h-2.34a.43.43 0 100 .85h.33c-.12 1.49-.48 6.65-.39 12.84h2.49c.06-6.19-.28-11.35-.4-12.84h.34a.43.43 0 00.39-.43zM50.89 23.41a.41.41 0 00-.42-.42h-2.34a.43.43 0 000 .85h.34c-.13 1.49-.49 6.65-.4 12.84h2.49c.06-6.19-.27-11.35-.39-12.84h.33a.43.43 0 00.39-.43zM56.21 23.41a.41.41 0 00-.43-.42h-2.33a.43.43 0 100 .85h.33c-.12 1.49-.49 6.65-.39 12.84h2.49c.06-6.19-.28-11.35-.4-12.84h.33a.43.43 0 00.4-.43zM61.49 23.41a.41.41 0 00-.42-.42h-2.34a.43.43 0 100 .85h.33c-.12 1.49-.48 6.65-.39 12.84h2.49c.06-6.19-.27-11.35-.4-12.84h.34a.41.41 0 00.39-.43zM66.81 23.41a.41.41 0 00-.43-.42H64a.43.43 0 000 .85h.34c-.12 1.49-.49 6.65-.4 12.84h2.49c.06-6.19-.27-11.35-.39-12.84h.33a.41.41 0 00.44-.43z"/></svg>