<svg data-name="Layer 1" xmlns="http://www.w3.org/2000/svg" viewBox="0 0 72 56"><g data-name="Layer 5"><path d="M60 48.92c0 1-.26 1.81-1.5 1.81H14.26A2.27 2.27 0 0112 48.47V6.78c0-1.25.81-1.51 1.81-1.51s1.8.26 1.8 1.51v38.08a2.27 2.27 0 002.26 2.26H58.5c1.24 0 1.5.81 1.5 1.8z"/><path d="M55.78 20.72c.52.33.9.1.85-.52l-.88-9.61a.81.81 0 00-1.15-.72l-9 3.38c-.58.22-.62.66-.1 1l1.68 1a1.1 1.1 0 01.33 1.54l-6.87 10.42a1.48 1.48 0 01-1.67.53l-10.62-4a1.68 1.68 0 00-1.76.47l-6.67 8.07a3.68 3.68 0 00-.72 2v6.59c0 .62.32.74.72.27l8.59-10a1.71 1.71 0 011.78-.45L41 34.71a1.48 1.48 0 001.67-.53L52.2 19.8a1.17 1.17 0 011.57-.34z"/></g></svg>