<svg xmlns="http://www.w3.org/2000/svg" viewBox="0 0 47.08 51.25"><path d="M0 48.07h47.08v3.18H0zm44.66-20.51v-2.4h-5.45A16.14 16.14 0 0024.72 13V7.54c3-.65 6.06 3 9.08.68V1.64C30.72 3.92 27.72.3 24.66 1a1.17 1.17 0 00-1.12-1 1.19 1.19 0 00-1.14 1.23V13A16.16 16.16 0 007.87 25.16H2.43v2.4H0v19.35h47.08V27.56zM9.13 43.29a1.54 1.54 0 01-1.55 1.55 1.54 1.54 0 01-1.55-1.55V31.52A1.54 1.54 0 017.58 30a1.54 1.54 0 011.55 1.55zm8 0a1.54 1.54 0 01-1.55 1.55 1.54 1.54 0 01-1.55-1.55V31.52A1.54 1.54 0 0115.57 30a1.54 1.54 0 011.55 1.55zm8 0a1.54 1.54 0 01-1.55 1.55 1.54 1.54 0 01-1.55-1.55V31.52A1.54 1.54 0 0123.56 30a1.54 1.54 0 011.55 1.55zm8 0a1.54 1.54 0 01-1.55 1.55 1.55 1.55 0 01-1.55-1.55V31.52A1.55 1.55 0 0131.55 30a1.54 1.54 0 011.55 1.55zm8 0a1.54 1.54 0 01-1.55 1.55 1.55 1.55 0 01-1.55-1.55V31.52A1.55 1.55 0 0139.54 30a1.54 1.54 0 011.55 1.55z"/><path d="M23.52 48.07h23.56v3.18H23.52zM23.56 30a1.54 1.54 0 011.55 1.55v11.74a1.54 1.54 0 01-1.55 1.55v2.07h23.52V27.56h-2.42v-2.4h-5.45A16.14 16.14 0 0024.72 13V7.54c3-.65 6.06 3 9.08.68V1.64C30.72 3.92 27.72.3 24.66 1a1.17 1.17 0 00-1.12-1v30zm14.43 1.55a1.55 1.55 0 113.1 0v11.74a1.55 1.55 0 01-3.1 0zm-8 0a1.55 1.55 0 013.1 0v11.74a1.55 1.55 0 01-3.1 0z" opacity=".12"/></svg>