<svg xmlns="http://www.w3.org/2000/svg" viewBox="0 0 72 56"><path d="M33.85 25.9A2.15 2.15 0 1136 28.05a2.14 2.14 0 01-2.15-2.15m16.07 12.56a1.08 1.08 0 00-1-.73h-9L37.4 30a4.29 4.29 0 002.9-4.05 4.22 4.22 0 00-.6-2.14h9.2a1.07 1.07 0 001.1-1.13V17.3a1.07 1.07 0 00-1.07-1.08h-1.11v-1.1H24.18v1.1H23.1A1.07 1.07 0 0022 17.3v5.38a1.07 1.07 0 001.07 1.08h9.2a4.22 4.22 0 00-.6 2.14A4.29 4.29 0 0034.6 30l-2.53 7.74h-9a1.08 1.08 0 00-1 .73 1.1 1.1 0 00.37 1.2l7.19 5.47-3.25 9.44a1.07 1.07 0 001.66 1.21l8-6 8 6a1 1 0 00.65.22 1.08 1.08 0 001-1.43l-3.25-9.44 7.19-5.47a1.1 1.1 0 00.37-1.2M23.1 7.52h1.08V8.6h23.64V7.52h1.08A1.07 1.07 0 0050 6.45V1.07A1.07 1.07 0 0048.9 0H23.1A1.07 1.07 0 0022 1.07v5.38a1.07 1.07 0 001.1 1.07M24.18 13h23.64v-2.15H24.18z"/></svg>