<svg data-name="Layer 1" xmlns="http://www.w3.org/2000/svg" viewBox="0 0 72 56"><path d="M63.93 47.82V22.53H8.07v25.29a2.09 2.09 0 002.09 2.09h51.68a2.09 2.09 0 002.09-2.09zM45 37.06a2.09 2.09 0 01-2.09 2.09h-4v4.07a2.09 2.09 0 01-2.09 2.09h-1.66a2.09 2.09 0 01-2.09-2.09v-4.07h-4A2.09 2.09 0 0127 37.06v-1.67a2.1 2.1 0 012.09-2.09h4v-4a2.09 2.09 0 012.09-2.09h1.68a2.09 2.09 0 012.09 2.09v4h4A2.09 2.09 0 0145 35.39zm18.93-21.42a2.08 2.08 0 00-2.09-2.09h-11.3V8.18a2.09 2.09 0 00-2.08-2.09H23.55a2.09 2.09 0 00-2.09 2.09v5.37h-11.3a2.08 2.08 0 00-2.09 2.09v4.45h55.86v-4.45zm-17.56-2.09H25.64v-3.28h20.72v3.28z"/></svg>