<svg data-name="Layer 1" xmlns="http://www.w3.org/2000/svg" viewBox="0 0 72 56"><path d="M54.37 37.25a.34.34 0 01-.34.33H36.11a.34.34 0 01-.34-.33V35a.34.34 0 01.34-.34H54a.34.34 0 01.33.34v2.29zm-13.99-9.5a.34.34 0 00.45.16L45 26a.33.33 0 00.17-.44l-.63-1.36-4.73 2.18zM30.2 4.83l4.13-1.89a.34.34 0 00.16-.45L33.44.2A.34.34 0 0033 0l-4.12 1.9a.34.34 0 00-.17.45l1.06 2.29a.32.32 0 00.43.19zm15.28 18.92a.33.33 0 00.16-.44L36.26 2.94a.34.34 0 00-.45-.17l-6.48 3a.34.34 0 00-.17.45l3.3 7.15h.06a4.27 4.27 0 013.2 7.08l2.82 6.14a.34.34 0 00.45.16M43.54 23l-.46.21a.34.34 0 01-.45-.16l-8-17.36a.32.32 0 01.16-.44l.48-.25a.33.33 0 01.44.17l8 17.35a.34.34 0 01-.17.48z"/><path d="M46.78 37.29A13.06 13.06 0 1128.5 21.05a5.29 5.29 0 10-1.25-3.74 17 17 0 1023.65 20zM32.52 14.38a3.25 3.25 0 11-3.25 3.24 3.25 3.25 0 013.25-3.24z"/><path d="M40.28 53.72a.33.33 0 01-.33.33H29.48a.33.33 0 01-.33-.33v-6.91a.34.34 0 01.33-.34H40a.34.34 0 01.33.34z"/><path d="M43.68 55.66a.34.34 0 01-.33.34H24.94a.34.34 0 01-.33-.34V52.9a.33.33 0 01.33-.33h18.41a.33.33 0 01.33.33z"/></svg>