<svg xmlns="http://www.w3.org/2000/svg" viewBox="0 0 72 56"><path d="M59.65 37.79c.19 0 .35-.28.35-.63v-3.27c0-.34-.16-.62-.35-.62h-47.3c-.19 0-.35.28-.35.62v3.27c0 .35.16.63.35.63h3.13v5.88h-3.13c-.19 0-.35.28-.35.63v3.27c0 .35.16.62.35.62h47.3c.19 0 .35-.27.35-.62V44.3c0-.35-.16-.63-.35-.63h-3.13v-5.88zm-38.45 0h11.85v5.88H21.2zm29.6 5.88h-12v-5.88h12zm4.75-35.86h-7.61v3.46a.58.58 0 01-.58.57H45.5a.57.57 0 01-.57-.57V7.81h-7.62a1.72 1.72 0 00-1.72 1.72v18.24a1.73 1.73 0 001.72 1.73h18.24a1.74 1.74 0 001.73-1.73V9.53a1.73 1.73 0 00-1.73-1.72zm-1.63 15.41a.62.62 0 01-.47.21.61.61 0 01-.42-.16l-.45-.41v2.83a.64.64 0 01-.64.63.63.63 0 01-.63-.63v-2.83l-.45.41a.64.64 0 01-.9-.05.63.63 0 010-.89s1-.87 1.44-1.31a.75.75 0 01.49-.23.73.73 0 01.49.23l1.45 1.31a.62.62 0 01.09.89zM32 7.81h-7.65v3.46a.58.58 0 01-.57.57h-1.86a.58.58 0 01-.58-.57V7.81h-7.61A1.72 1.72 0 0012 9.53v18.24a1.73 1.73 0 001.73 1.73H32a1.73 1.73 0 001.73-1.73V9.53A1.72 1.72 0 0032 7.81zm-1.66 15.41a.64.64 0 01-.47.21.62.62 0 01-.43-.16l-.44-.41v2.83a.63.63 0 01-.63.63.64.64 0 01-.64-.63v-2.83l-.45.41a.63.63 0 01-.89-.05.62.62 0 010-.89L27.87 21a.73.73 0 01.49-.23.78.78 0 01.49.23c.47.44 1.44 1.31 1.44 1.31a.63.63 0 01.05.91z"/></svg>