<svg data-name="Layer 1" xmlns="http://www.w3.org/2000/svg" viewBox="0 0 72 56"><path d="M45.47 36.49a8 8 0 001.22-4.24c0-3.34-1.16-6.18-4.14-7.91a13.2 13.2 0 00-11.13-.94 9 9 0 00-4.82 13.18 4.29 4.29 0 01.61 1.54 2.66 2.66 0 01-.24 1 3.74 3.74 0 00-.29 1.21 2.23 2.23 0 002.26 2c1.44.08 1.74.38 1.83 1.76a.58.58 0 00.38.38 6.75 6.75 0 001.49.09c.49 0 .72.13.79.62 0 .16.22.4.36.41a8.38 8.38 0 001.21-.06c0-.34 0-.61.06-.91H37c0 .34 0 .63.06.93l1.46.07a3.1 3.1 0 00.09-.36c0-.57.33-.75.9-.7a10.57 10.57 0 001.37-.07c.32 0 .48-.14.43-.48-.19-1.25.69-1.59 1.59-1.68a4.07 4.07 0 001.39-.33 2 2 0 00.71-3 1.44 1.44 0 01-.15-1 6.08 6.08 0 01.62-1.51zm-12.72 1a3.66 3.66 0 01-3.35-.39 2.74 2.74 0 01.08-4.1 3 3 0 011.57-.42 7.78 7.78 0 012.51.48 1.74 1.74 0 011.2 2.15 2.64 2.64 0 01-2.01 2.31zm5 3.42a.83.83 0 01-1.05.09 1.13 1.13 0 00-1.44 0 1.17 1.17 0 01-1-.06A1 1 0 0134 40a22 22 0 011.27-2.52c.1-.17.44-.21.66-.3v.11c.49-.17.72.13.92.49s.51.9.75 1.36a2.6 2.6 0 01.31.87 1.22 1.22 0 01-.14.93zm5.45-4.57a2.8 2.8 0 01-2.67 1.39c-1-.13-2.15-.21-2.79-1.25a4.45 4.45 0 01-.57-1.7 1.57 1.57 0 01.92-1.64 5.82 5.82 0 013.91-.43 1.61 1.61 0 01.92.64 2.84 2.84 0 01.3 3.02z"/><path d="M48.49 11V2a2.16 2.16 0 00-.7-1.74 1.16 1.16 0 00-.73-.26h-22a1.29 1.29 0 00-.91.33 2.21 2.21 0 00-.61 1.74c.06 3.37 0 5.42 0 9a9.16 9.16 0 00-9.16 9.16v26.61A9.16 9.16 0 0023.51 56h25a9.16 9.16 0 009.16-9.16V20.19A9.16 9.16 0 0048.49 11zm-7.25-7.69h4v5.26h-4zm-7.1 0h4v5.26h-4zm-7.14 0h4v5.26h-4zm26.65 43.53a5.79 5.79 0 01-.06.83 5.17 5.17 0 01-2.65 3.71 5.06 5.06 0 01-2.45.62h-25a5.16 5.16 0 01-5.08-4.23 4.73 4.73 0 01-.08-.93V20.19A5.17 5.17 0 0123.51 15h25a5.17 5.17 0 015.17 5.16v26.68z"/></svg>