<svg data-name="Layer 1" xmlns="http://www.w3.org/2000/svg" viewBox="0 0 72 56"><path d="M48.47 22.7a10.73 10.73 0 001.65-5.7c0-4.51-1.56-8.35-5.6-10.7-4.77-2.82-9.85-2.99-15.05-1.3C21.4 7.59 19.27 17.19 23 22.81a6.1 6.1 0 01.83 2.09 3.65 3.65 0 01-.33 1.39 4.83 4.83 0 00-.39 1.64 3 3 0 003.06 2.67c1.94.1 2.35.5 2.48 2.37a.77.77 0 00.5.52 9.7 9.7 0 002 .12c.68 0 1 .17 1.08.84a.81.81 0 00.48.56 11.63 11.63 0 001.66-.09c0-.46.05-.83.08-1.23H37c0 .46.05.85.08 1.26L39 35a3 3 0 00.12-.48c.06-.77.46-1 1.23-1a12.88 12.88 0 001.85-.09c.43 0 .65-.2.58-.66-.26-1.69.92-2.15 2.14-2.27a5.18 5.18 0 001.92-.49 2.72 2.72 0 00.93-4 1.8 1.8 0 01-.2-1.35 8.12 8.12 0 01.9-1.96zm-17.2 1.38a5 5 0 01-4.54-.52c-1.68-1.25-1.65-4.5.12-5.63a4 4 0 012.15-.56 10.26 10.26 0 013.39.64A2.37 2.37 0 0134 20.92a3.55 3.55 0 01-2.73 3.16zm6.79 4.63a1.12 1.12 0 01-1.45.1 1.52 1.52 0 00-2 0 1.56 1.56 0 01-1.38-.09A1.3 1.3 0 0133 27.5a28.71 28.71 0 011.73-3.41c.13-.23.58-.28.89-.41v.15c.66-.23 1 .18 1.24.67s.7 1.21 1 1.84a3.48 3.48 0 01.44 1.17 1.76 1.76 0 01-.24 1.2zm7.37-6.18c-.71 1.42-2 1.81-3.61 1.88-1.38-.18-2.92-.28-3.78-1.7a6.09 6.09 0 01-.77-2.29 2.13 2.13 0 011.25-2.22 7.83 7.83 0 015.21-.62 2.21 2.21 0 011.24.86 3.81 3.81 0 01.46 4.09z"/><path d="M16.29 45.72a2.9 2.9 0 011.28-2.78 2.83 2.83 0 014.16 1.44l4.7-1.7 17.7-6.46 4.7-1.7a2.85 2.85 0 012.29-3.79A2.88 2.88 0 0153.9 32a2.67 2.67 0 01.37 2.08 1 1 0 00.43 1.12 2.82 2.82 0 11-4.43 3.15l-4.75 1.76-17.71 6.46-4.69 1.71a2.84 2.84 0 01-2.29 3.78 2.88 2.88 0 01-2.78-1.28 2.67 2.67 0 01-.37-2.08 1 1 0 00-.43-1.12 3 3 0 01-.96-1.86z"/><path d="M54.38 43a2.83 2.83 0 00-4.16 1.44l-7.1-2.62L37 44l11.74 4.27a2.84 2.84 0 005.06 2.5 2.63 2.63 0 00.38-2.08 1 1 0 01.42-1.12 2.78 2.78 0 001-1.81A2.69 2.69 0 0054.38 43zm-36.81-3.15a2.83 2.83 0 004.16-1.44l7.1 2.59 6.08-2.18-11.74-4.25a2.85 2.85 0 00-2.29-3.79 2.88 2.88 0 00-2.77 1.28 2.64 2.64 0 00-.38 2.08 1 1 0 01-.42 1.12 2.83 2.83 0 00-1 1.82 2.74 2.74 0 001.26 2.77z"/></svg>