<svg id="Layer_1" xmlns="http://www.w3.org/2000/svg" viewBox="0 0 72 56"><defs/><path d="M55.79 29.68H16.21a2 2 0 00-2 2.21l.53 6.32A4.09 4.09 0 0018.78 42h.65l3.74 14h25.59l3.75-14h.71a4.09 4.09 0 004.08-3.75l.53-6.32a2 2 0 00-2.04-2.25z"/><path d="M51.15 27.37a15.33 15.33 0 00-8.07-11.61c-1.82 1.81-4.32 11.73-7.08 11.73s-5.26-9.92-7.08-11.73a15.32 15.32 0 00-8.07 11.61 1 1 0 00.25.82 1.28 1.28 0 00.95.42H50a1.28 1.28 0 00.95-.42 1 1 0 00.2-.82zm-4.43-3.85h-4v-.85h4z"/><path d="M29.71 14.66l.51.49a8.63 8.63 0 0011.56 0l.51-.49c.16-.17.32-.35.46-.53a8.6 8.6 0 001.93-5.45 8.68 8.68 0 00-17.36 0 8.6 8.6 0 001.93 5.45c.14.18.3.36.46.53z"/><path d="M36.91 19.4a.24.24 0 01-.24.24h-1.34a.24.24 0 01-.24-.24v-1.34a.23.23 0 01.24-.23h1.34a.23.23 0 01.24.23zM35.01 20.19h1.92l.91 7.61H34.1"/></svg>