<svg xmlns="http://www.w3.org/2000/svg" viewBox="0 0 72 56"><path d="M37.3 35.7v-6.3h6.6c-.7 3.2-3.4 5.8-6.6 6.3zm2-9.1h4.6c-.2-1.2-.6-2.3-1.3-3.3l-3.3 3.3zm-4.9 9.1v-6.2h-6.3c.7 3.1 3.3 5.6 6.3 6.2zM37.3 0v7.5c4.6.3 8.8 2.1 12.1 5l5.4-5.4C50 3 43.9.3 37.3 0zm19.4 9.2l-5.4 5.4c2.8 3.3 4.6 7.4 4.9 12H64c-.4-6.7-3-12.8-7.3-17.4zM28.1 26.6h6.3V20c-3.2.6-5.8 3.2-6.3 6.6zm9.2-16.2V17c2.1.2 3.8 1 5.4 2.2l4.7-4.7c-2.9-2.3-6.3-3.8-10.1-4.1zm0 9.5v4.6l3.3-3.3c-1-.6-2-1.1-3.3-1.3zm-21.6 6.7c.6-10.1 8.6-18.3 18.7-19V0C20.1.8 8.7 12.3 8 26.6h7.7zm18.7 21.5c-9.9-.7-17.9-8.7-18.7-18.6H8C8.7 43.7 20.1 55.2 34.4 56v-7.9zm21.8-18.7c-.8 10-8.9 18-19 18.6v8c14.5-.7 26-12.2 26.7-26.6h-7.7zM34.4 45.2v-6.6c-4.8-.7-8.4-4.4-9.2-9.1h-6.6c.8 8.3 7.4 15 15.8 15.7zM18.6 26.6h6.6c.6-4.9 4.4-8.8 9.2-9.5v-6.6c-8.4.7-15.2 7.5-15.8 16.1zm34.8 2.8h-6.6c-.7 4.8-4.5 8.6-9.5 9.2v6.6c8.5-.6 15.3-7.3 16.1-15.8zm-8.7-8.1c1.1 1.5 1.9 3.3 2.1 5.3h6.6c-.3-3.8-1.7-7.2-4.1-10l-4.6 4.7z"/></svg>