<svg data-name="Layer 1" xmlns="http://www.w3.org/2000/svg" viewBox="0 0 72 56"><path d="M32.77 22.32a6.55 6.55 0 00-3.24 5.53H13.22c-.3-6.75 3.6-15.34 11.38-19.7l8.17 14.17M47.4 8.15a22.68 22.68 0 0111.42 19.69H42.5c-.56-3.1-.57-3.11-3.25-5.57q4.08-7 8.15-14.12M24.62 47.62q4.08-7 8.15-14.12c3.12 1.13 3.63 1.13 6.45 0q4.08 7 8.15 14.12a22.36 22.36 0 01-22.75 0M36 32a4.13 4.13 0 114.12-4.12A4.11 4.11 0 0136 32"/><path d="M36 56a28 28 0 1128-28 28 28 0 01-28 28zm0-53.55A25.55 25.55 0 1061.54 28 25.58 25.58 0 0036 2.45z"/></svg>