<svg xmlns="http://www.w3.org/2000/svg" viewBox="0 0 72 56"><path d="M24.42 30.55L27 32.1c.42 0 .64-.18.64-.53a2.3 2.3 0 00-.3-.94l-5.6-10.51-12.39.3a.78.78 0 00-.84.87c0 .13.18.3.53.53l2.57 1.55-2.77 4.23a6.15 6.15 0 00-1.13 3 4.91 4.91 0 00.75 2.4l8.43 14.7a12.58 12.58 0 01-.3-2.64A8 8 0 0118 40.64l6.43-10.09zM27.67 22l6.95-10.8q-3.9-8.88-8.28-8.88c-1.76 0-2.94.49-3.55 1.47L16.21 14.3 27.67 22z"/><path d="M22 51.15h13.41V37.2H22.49a47.41 47.41 0 00-3 4.61 8.66 8.66 0 00-1 3.93q0 5.41 3.48 5.41zM49.63 19.4l6-10a2.22 2.22 0 00.3-1.1c0-.45-.15-.68-.45-.68a2.53 2.53 0 01-.61.23L52.12 9l-2.49-4.91Q48 .77 43 .77H27.44a12.15 12.15 0 013.85 1.7q2.39 1.89 4.88 7.1l3.1 6.5-2.27 1.1a.6.6 0 00-.34.61c0 .37.24.59.72.64l12.29 1zm5.97 29.67l8.69-15.8a9.69 9.69 0 01-4.19 2.95 17.27 17.27 0 01-5.18.61h-9.68v-2q0-1.17-.57-1.17a.65.65 0 00-.6.3L38 44.57l6.35 9.76c.48.73.89 1 1.24.86s.53-.28.53-.56V51.3h5.37a4.33 4.33 0 004.16-2.23z"/><path d="M51.82 34.82h5.78A6.91 6.91 0 0061.91 33q2.39-1.89 2.38-4a3.47 3.47 0 00-.64-1.93l-6.88-10.5-11.83 6.88 6.88 11.37z"/></svg>