<svg xmlns="http://www.w3.org/2000/svg" viewBox="0 0 72 56"><path d="M36.93 20.53h1.87a.94.94 0 010 1.87h-1.87v4.67h4.67V25.2a.94.94 0 011.87 0v1.87h14.91A22.44 22.44 0 0036.93 5.62zm-8.4 6.54V25.2a.94.94 0 011.87 0v1.87h4.67V22.4H33.2a.94.94 0 010-1.87h1.87V5.62a22.44 22.44 0 00-21.45 21.45zm6.54 8.4H33.2a.94.94 0 010-1.87h1.87v-4.67H30.4v1.87a.94.94 0 01-1.87 0v-1.87H13.62a22.44 22.44 0 0021.45 21.45zm8.4-6.54v1.87a.94.94 0 01-1.87 0v-1.87h-4.67v4.67h1.87a.94.94 0 010 1.87h-1.87v14.91a22.44 22.44 0 0021.45-21.45z"/><path d="M36 52.27A24.27 24.27 0 1160.27 28 24.3 24.3 0 0136 52.27M36 0a28 28 0 1028 28A28 28 0 0036 0"/></svg>