<svg data-name="Layer 1" xmlns="http://www.w3.org/2000/svg" viewBox="0 0 72 56"><path d="M57 12h3V4L12 52h8v-3a.34.34 0 01.68 0v3h4.2v-3a.34.34 0 01.68 0v3h4.2v-3a.34.34 0 01.68 0v3h4.21v-3a.34.34 0 01.67 0v3h4.21v-3a.34.34 0 01.67 0v3h4.21v-3a.34.34 0 01.67 0v3h4.21v-3a.34.34 0 01.71 0v3h4.21v-3a.34.34 0 01.67 0v3H60v-5.14h-3a.34.34 0 010-.67h3V42h-3a.34.34 0 010-.67h3V37.1h-3a.34.34 0 010-.67h3v-4.21h-3a.34.34 0 010-.67h3v-4.21h-3a.34.34 0 010-.67h3v-4.21h-3a.34.34 0 010-.68h3v-4.2h-3a.34.34 0 010-.68h3v-4.2h-3a.34.34 0 010-.7zm-4.22 32.78H29.34l23.44-23.44z"/></svg>