<svg id="Layer_1" data-name="Layer 1" xmlns="http://www.w3.org/2000/svg" viewBox="0 0 72 56"><defs><style>.cls-1{fill:#010101}</style></defs><path class="cls-1" d="M52.67 17.21l-1.34-1.34H54L48.13 10v2.7l-1.34-1.34a2.31 2.31 0 00-3.26 0L33.22 21.64a2.31 2.31 0 000 3.26l1.41 1.41a7.19 7.19 0 00-.92.78l-.3.31a10.86 10.86 0 00-13.6 1.43l6.32 6.31-.1.1c-1.56 1.56-2.21 3.43-1.46 4.19s2.63.1 4.19-1.46l.1-.1 6.31 6.32a10.86 10.86 0 001.43-13.6l.32-.3a8 8 0 00.77-.92l1.41 1.41a2.31 2.31 0 003.26 0l10.31-10.31a2.31 2.31 0 000-3.26z"/><path class="cls-1" transform="rotate(-45 30.143 12.174)" d="M25.68 4.99h8.93v14.39h-8.93z"/><path class="cls-1" transform="rotate(-45 51.823 33.854)" d="M47.35 26.66h8.93v14.39h-8.93z"/><path class="cls-1" d="M27.74 50.56a14.32 14.32 0 01-14.3-14.3h-1.5a15.82 15.82 0 0015.8 15.8"/><path class="cls-1" d="M16.24 36.26h-1.51a13 13 0 0013 13v-1.5a11.51 11.51 0 01-11.49-11.5z"/><path class="cls-1" d="M21.78 42.22a8.4 8.4 0 01-2.47-6h-1.5a9.94 9.94 0 009.93 9.93v-1.5a8.4 8.4 0 01-5.96-2.43z"/><path class="cls-1" d="M22.1 36.26h-1.51a7.16 7.16 0 007.15 7.15V41.9a5.65 5.65 0 01-5.64-5.64z"/></svg>