<svg data-name="Layer 1" xmlns="http://www.w3.org/2000/svg" viewBox="0 0 72 56"><path d="M21.11 8.25A7.54 7.54 0 0019 6a11 11 0 00-3.4-1.69l-2.42-.57a2.78 2.78 0 00-.67 1.92c0 3 1.07 3.81 1.07 3.81h8.09a5.87 5.87 0 00-.56-1.22z"/><path d="M22.42 50.8a4.19 4.19 0 001-2.95V46h27a12.19 12.19 0 01-.14-1.88c0-9.08 7.85-22 7.85-32.31 0-8.26-7.85-9.3-7.85-9.3H16s6.14 1.48 7.56 7a9.11 9.11 0 01.29 2.35C23.88 22.13 16 35.05 16 44.13a11.26 11.26 0 00.49 3.41 7.25 7.25 0 001.27 2.39A5.51 5.51 0 0019 51a3.2 3.2 0 001.47.59 2.39 2.39 0 001.95-.79z"/><path d="M25.28 47.85a6 6 0 01-1.51 4.2 7.42 7.42 0 01-3 1.43h34.65a3.7 3.7 0 002.89-1.64 6.59 6.59 0 001.18-4H25.28z"/></svg>