<svg xmlns="http://www.w3.org/2000/svg" viewBox="0 0 29 54.39"><path d="M15 .19a.87.87 0 00-1.1 0c-2.89 2.38-4.17 5.18-4.51 10h10c-.28-4.82-1.55-7.54-4.39-10zM0 50.82l.68-3.31a3.94 3.94 0 011-2l4.59-5.18a5.93 5.93 0 001.53-3.65l.42-8a16.11 16.11 0 015.69-11.47.92.92 0 011.11 0 16 16 0 015.69 11.47l.42 8a5.93 5.93 0 001.53 3.65l4.59 5.18a4.8 4.8 0 011 2l.75 3.31c.18.53-.41 1-.85 1l-7.31.51a1.29 1.29 0 00-1.27 1.19.92.92 0 01-.85.85h-8.5a.85.85 0 01-.85-.85 1.3 1.3 0 00-1.18-1.28l-7.4-.42c-.42.02-.79-.32-.79-1z"/><path d="M11.38 26.18a.91.91 0 001.19-.17 2.28 2.28 0 011.87-.93 2.25 2.25 0 011.87.93.76.76 0 00.68.34 1.14 1.14 0 00.51-.17.92.92 0 00.17-1.19 4 4 0 00-6.46 0 .92.92 0 00.17 1.19zm11.47 10.37A4.57 4.57 0 0024 39.18l1.57 1.76V18.79a3.55 3.55 0 00-.51-1.78L23.7 14.8a.87.87 0 00-1.44 0l-1.36 2.21a3.13 3.13 0 00-.51 1.78v2.47a18.4 18.4 0 012 7.39zM6 36.55l.43-8a18.6 18.6 0 012-7.39v-2.45A3.68 3.68 0 008 16.94l-1.36-2.21a.88.88 0 00-1.45 0l-1.27 2.3a3.13 3.13 0 00-.51 1.78v22.13L5 39.18a4 4 0 001-2.63zm6.83-20.61a2.49 2.49 0 013.23 0 17.47 17.47 0 013.48 3.91v-7.91H9.34v7.9a17.28 17.28 0 013.49-3.9z"/></svg>