<svg data-name="Layer 1" xmlns="http://www.w3.org/2000/svg" viewBox="0 0 72 56"><circle cx="34.78" cy="6.12" r="2.44"/><circle cx="47.68" cy="6.12" r="2.44"/><path d="M54.94 8.33A6.78 6.78 0 0049 4.91v2.41A4.44 4.44 0 0152.85 14l-7.76 13.41a4.43 4.43 0 01-7.68 0L29.65 14a4.44 4.44 0 013.84-6.65V4.91a6.85 6.85 0 00-5.93 10.27l7.76 13.44A6.78 6.78 0 0040 31.94v6.48c0 6.33-3.74 11.48-8.33 11.48s-8.33-5.15-8.33-11.48V30.7a6 6 0 10-2.42 0v7.72c0 7.66 4.82 13.9 10.75 13.9s10.75-6.24 10.75-13.9v-6.48a6.78 6.78 0 004.72-3.32l7.76-13.44a6.77 6.77 0 00.04-6.85z"/></svg>