<svg data-name="Layer 1" xmlns="http://www.w3.org/2000/svg" viewBox="0 0 72 56"><path d="M63.14 32.88a1 1 0 000-.16c-1.07-3.54-3.63-6-6.6-6H43.67v-6a1.38 1.38 0 00-.27-.84.7.7 0 00-.64-.3l-5.4.62v-11c0-.67-.36-1.2-.83-1.2s-.84.52-.84 1.15v11.17l-2.53.28V12c0-.63-.37-1.14-.84-1.14s-.84.51-.84 1.14v8.8l-1.33.2a1.06 1.06 0 00-.77 1.14v4.6H28a4.41 4.41 0 00-2.07.52l-6.43 3.33v-2.75a1.17 1.17 0 00-.57-1.09l-3.16-1.44a.64.64 0 00-.75.16 1.3 1.3 0 00-.35.93v6.72L13.1 34a1.19 1.19 0 00-.53 1v.29h-1v-4.6c0-.64-.38-1.15-.84-1.15s-.84.51-.84 1.15v4.6H9.2c-.46 0-.84.51-.84 1.14s.38 1.15.84 1.15h.69v4.6c0 .63.38 1.15.84 1.15s.84-.52.84-1.15V37.6h1v.29A1.2 1.2 0 0013.1 39l1.57.82v7.06a1.32 1.32 0 00.35.93.69.69 0 00.49.22.58.58 0 00.26-.06l3.16-1.44a1.18 1.18 0 00.57-1.09v-3.12l6.41 3.37a4.43 4.43 0 002.07.53h28.51c3.94 0 7.15-4.38 7.15-9.77a12.88 12.88 0 00-.5-3.57zm-29.51 6a2.94 2.94 0 112.94-2.94 2.94 2.94 0 01-2.94 2.92zm9 0a2.94 2.94 0 112.94-2.94 2.94 2.94 0 01-2.89 2.92zm9.48 0a2.94 2.94 0 113-2.94 2.94 2.94 0 01-2.95 2.92z"/></svg>