<svg xmlns="http://www.w3.org/2000/svg" viewBox="0 0 72 56"><path d="M57.41 4.46H14.6a2.59 2.59 0 00-2.53 2.65v41.78a2.59 2.59 0 002.53 2.65h42.81a2.59 2.59 0 002.52-2.65V7.11a2.59 2.59 0 00-2.52-2.65zm-34.81 11h8.34v6.51H22.6zm0 8.1h8.34V31H22.6zm0 9h8.34v8H22.6zm-1.52 15.8h-7v-6.24h7zm0-7.84h-7v-8h7zm0-9.56h-7v-7.43h7zm0-9h-7v-6.53h7zm1.52 26.4v-6.24h8.34v6.24zm17.45 0h-7.59v-6.24h7.59zm0-7.84h-7.59v-8h7.59zm0-9.56h-7.59v-7.43h7.59zm0-9h-7.59v-6.53h7.59zm8.59 26.42h-7.08v-6.26h7.08zm0-7.84h-7.08v-8h7.08zm0-9.56h-7.08v-7.45h7.08zm0-9h-7.08v-6.55h7.08zm9.27 26.42h-7.75v-6.28h7.75zm0-7.84h-7.75v-8h7.75zm0-9.56h-7.75v-7.47h7.75zm0-9h-7.75v-6.57h7.75z"/></svg>