<svg xmlns="http://www.w3.org/2000/svg" viewBox="0 0 72 56"><path d="M47.67 16.27H14.22a2 2 0 00-2 2v31.05a2 2 0 002 2h33.45a2 2 0 002-2V18.25a2 2 0 00-2-1.98zM19.29 48.93h-5.46v-4.64h5.46zm0-5.83h-5.46v-5.92h5.46zm0-7.11h-5.46v-5.53h5.46zm0-6.71h-5.46v-4.84h5.46zM27 48.93h-6.52v-4.64H27v4.64zm0-5.83h-6.52v-5.92H27v5.92zm0-7.1h-6.52v-5.54H27V36zm0-6.71h-6.52v-4.85H27v4.84zm7.11 19.65h-5.93v-4.65h5.93v4.64zm0-5.83h-5.93v-5.93h5.93v5.92zm0-7.11h-5.93v-5.54h5.93V36zm0-6.71h-5.93v-4.85h5.93v4.84zm6.71 19.65h-5.53v-4.65h5.53zm0-5.83h-5.53v-5.93h5.53zm0-7.11h-5.53v-5.54h5.53zm0-6.71h-5.53v-4.85h5.53zm7.25 19.65H42v-4.65h6.06zm0-5.83H42v-5.93h6.06zm0-7.11H42v-5.54h6.06zm0-6.71H42v-4.85h6.06zM57.78 4.7H24.33a2 2 0 00-2 2v8.51h1.59v-2.35h5.48v2.33h1.19v-2.33h6.51v2.33h1.19v-2.33h5.92v2.33h1.19v-2.33h5.53v4.84h-.22a3.58 3.58 0 01.15 1v.15h.07v5.53h-.07v1.22h.07v5.93h-.07v1.18h.07v4.65h-.07v2.37h6.92a2 2 0 002-2V6.68a2 2 0 00-2-1.98zm.39 32.66h-6.06v-4.65h6.06v4.65zm0-5.83h-6.06V25.6h6.06v5.93zm0-7.11h-6.06v-5.53h6.06v5.53zm0-6.72h-6.06v-4.84h6.06v4.84z"/></svg>