<svg data-name="Layer 1" xmlns="http://www.w3.org/2000/svg" viewBox="0 0 72 56"><path d="M39.18 21.67A6.47 6.47 0 0039 20h25.08v-3h-27a6.37 6.37 0 00-3.28-1.59v-1.49s.06 0 .06-.07a3.19 3.19 0 00-3.2-3.15H17.38V16A6.32 6.32 0 0014 21.67v.07a9.71 9.71 0 011.21-.07zM57.84 39.2v-.05a7.22 7.22 0 006-7.1V32a7.23 7.23 0 00-7.19-7.3H15.23A7.34 7.34 0 007.92 32v.06A7.22 7.22 0 0014 39.15v.05a6.17 6.17 0 006.16 6.1H51.8a6 6 0 006-6.1zm-16.75 2.93a3.07 3.07 0 113.08-3.07 3.06 3.06 0 01-3.08 3.07zm-13.47-3.07a3.08 3.08 0 113.07 3.07 3.07 3.07 0 01-3.07-3.07zm-10.4 0a3.08 3.08 0 113.07 3.07 3.07 3.07 0 01-3.07-3.07zm34.27 3.07a3.07 3.07 0 113.08-3.07 3.06 3.06 0 01-3.08 3.07z"/></svg>