<svg data-name="Layer 1" xmlns="http://www.w3.org/2000/svg" viewBox="0 0 72 56"><path fill="none" d="M35.95 7.01L56.94 28"/><path d="M56.99 45.91l2.94-2.95-2.98-2.98L60 36.93l-3.01-3.01 2.98-2.99-1.79-1.78-4.15 4.14-2.98-2.98-3.01 3.02-3.05-3.05-2.98 2.98-2.95-2.95-2.95 2.95-5.37-5.37 1.15-1.06L33.72 25l-3-3 2.86-2.85-2.95-2.95 3.08-3.08-3.08-3.08 4.17-4.17L32.94 4l-3.07 3.08L26.79 4l-2.95 2.95-2.86-2.86-3 3-3-3 .06.07-2.98 2.98 2.95 2.95-2.94 2.95 2.98 2.98L12 19.07l3.01 3.01-2.98 2.99 2.98 2.98-3 3.01 3.07 3.07L12 37.22l2.95 2.94-2.85 2.86 2.99 3-3 3 .07-.07 2.98 2.99 2.95-2.95 2.95 2.94 2.98-2.98L27.07 52l3.01-3.01 2.99 2.98 2.98-2.98 3.01 3 3.07-3.07L45.22 52l2.94-2.95 2.86 2.86 3-3 3 3-.07-.07 2.99-2.98-2.95-2.95z"/><path d="M35.98 7.03l-3.01 3.01 3.08 3.08-3.08 3.08 2.95 2.95L33.06 22l3 3-3 3 .07-.06 2.98 2.98 2.95-2.95 2.95 2.94 2.98-2.98 3.05 3.05 3.01-3.01 2.98 2.98 2.99-2.98L35.98 7.03z"/></svg>