<svg xmlns="http://www.w3.org/2000/svg" viewBox="0 0 72 56"><path d="M13.32 44.31a4.5 4.5 0 006.36 6.36l14.76-14.76-6.36-6.36zM50.2 16.96l6.43-3.33L60 7.13l-3.14-3.14-6.5 3.37-3.33 6.42-7.82 7.83 3.17 3.18 7.82-7.83z"/><path d="M51.61 34H51a8.9 8.9 0 00-3.11.58L29.45 16.09A8.9 8.9 0 0030 13l-.06-.6a8.9 8.9 0 00-12.75-7.51l6 6a3 3 0 01.68 1.08A3 3 0 0121 16a2.92 2.92 0 01-1-.21 3.15 3.15 0 01-1.08-.67l-6-6a8.9 8.9 0 007.49 12.78l.59.1a8.9 8.9 0 003.11-.58L42.6 39.84A8.9 8.9 0 0042 43l.06.6A9 9 0 0051 51.94a8.72 8.72 0 003.85-.9l-6-6a3.08 3.08 0 01-.64-1.04A3 3 0 0151 40a2.92 2.92 0 011 .21 2.72 2.72 0 011.08.67l6 6A8.9 8.9 0 0051.61 34z"/></svg>