<svg xmlns="http://www.w3.org/2000/svg" viewBox="0 0 72 56"><path d="M52.82 20.74l-13.51-2.25a24.46 24.46 0 00-6.62 0l-13.51 2.25a4.1 4.1 0 00-3.3 3.91v10.06a3.36 3.36 0 003.35 3.35v3.36l5.37 2.68-5.37 10.73h33.54L47.4 44.1l5.37-2.68v-3.36a3.36 3.36 0 003.35-3.35V24.65a4.1 4.1 0 00-3.3-3.91zM36 21.29a3.36 3.36 0 11-3.35 3.36A3.35 3.35 0 0136 21.29zm-6.71 20.13h13.42l1.68 3.35H27.61zm18.45 10.06H24.26l1.68-3.36h20.12zM36 15a17.93 17.93 0 013.29.27l13.48 2.7v-6.74c0-3.7-7.51-6.71-16.77-6.71s-16.77 3-16.77 6.71v6.71l13.48-2.7A17.93 17.93 0 0136 15zm3.35-7c6.09.54 9.56 2.43 10.07 3.32v2.5L40 12l-.6-.08zm-6.7 3.84l-.6.08-9.47 1.9v-2.5c.51-.89 4-2.78 10.07-3.32z"/><circle cx="27.61" cy="2.84" r="1.68"/><circle cx="44.39" cy="2.84" r="1.68"/></svg>