<svg data-name="Layer 1" xmlns="http://www.w3.org/2000/svg" viewBox="0 0 72 56"><path d="M55.81 44.35v-7.94a3.09 3.09 0 00-3.09-3.09h-.81v-29a.8.8 0 00-.34-.65l-2-1.29a.77.77 0 00-1.16.62v9.32l-.59-1.58a5.42 5.42 0 00-5.07-3.53H29.24a5.43 5.43 0 00-5.09 3.56l-.56 1.55V3a.77.77 0 00-1.19-.64l-2 1.29a.8.8 0 00-.34.65v29h-.81a3.09 3.09 0 00-3.09 3.09v7.94h-1.29a.77.77 0 00-.77.77v4.3a.77.77 0 00.77.77h3.33v2a1.55 1.55 0 001.55 1.54h4.1a1.54 1.54 0 001.54-1.54v-2h21.22v2a1.54 1.54 0 001.54 1.54h4.1a1.55 1.55 0 001.55-1.54v-2h3.33a.77.77 0 00.77-.77v-4.28a.77.77 0 00-.77-.77zM24.62 16.63h22.76v7.62H24.62zm-.53 25.56h-2.64A1.46 1.46 0 0120 40.73a1.46 1.46 0 011.46-1.46h2.64a1.46 1.46 0 011.46 1.46 1.46 1.46 0 01-1.47 1.46zm17.16.43h-10.5a1.54 1.54 0 01-1.55-1.55v-9.79a1.54 1.54 0 011.55-1.54h10.5a1.54 1.54 0 011.55 1.54v9.79a1.54 1.54 0 01-1.55 1.55zm9.3-.43h-2.64a1.46 1.46 0 01-1.46-1.46 1.46 1.46 0 011.46-1.46h2.64A1.46 1.46 0 0152 40.69a1.46 1.46 0 01-1.45 1.5zM41 35.39H31a.76.76 0 01-.77-.76.76.76 0 01.77-.76h10a.76.76 0 01.76.76.76.76 0 01-.76.76zm0-3.09H31a.76.76 0 01-.77-.76.76.76 0 01.77-.76h10a.76.76 0 01.76.76.76.76 0 01-.76.76zm0 9.27H31a.76.76 0 01-.77-.76A.76.76 0 0131 40h10a.76.76 0 01.76.76.76.76 0 01-.76.81zm0-3.09H31a.76.76 0 01-.77-.76.76.76 0 01.77-.76h10a.76.76 0 01.76.76.76.76 0 01-.76.76z"/></svg>