<svg xmlns="http://www.w3.org/2000/svg" viewBox="0 0 72 56"><path d="M54.27 36.24A4.78 4.78 0 1059.05 41a4.79 4.79 0 00-4.78-4.76zm0 6.19a1.41 1.41 0 111.4-1.43 1.41 1.41 0 01-1.4 1.43z"/><path d="M53.81 16.38h-8.25a1.13 1.13 0 00-1.13 1.13v21.92a1.12 1.12 0 001.13 1.12h1.19a1.12 1.12 0 001.12-.95 6.48 6.48 0 0112.8 0 1.11 1.11 0 001.12.95H63a1.13 1.13 0 001.13-1.12v-11a1.11 1.11 0 00-.27-.72l-9.17-11a1.11 1.11 0 00-.88-.33zm-7.13 9v-5.62a1.13 1.13 0 011.12-1.13h5a1.11 1.11 0 01.86.41l4.68 5.62a1.12 1.12 0 01-.86 1.84H47.8a1.12 1.12 0 01-1.12-1.12zM9 40.55h2.9a1.12 1.12 0 001.1-.95 6.2 6.2 0 016.4-5.48 6.2 6.2 0 016.4 5.48 1.11 1.11 0 001.12.95h14.14a1.12 1.12 0 001.12-1.12V11.32a1.12 1.12 0 00-1.12-1.12H9a1.13 1.13 0 00-1.13 1.12v28.11A1.13 1.13 0 009 40.55z"/><path d="M19.42 36.24A4.78 4.78 0 1024.2 41a4.79 4.79 0 00-4.78-4.76zm0 6.19a1.41 1.41 0 111.4-1.43 1.41 1.41 0 01-1.4 1.43z"/></svg>