<svg data-name="Layer 1" xmlns="http://www.w3.org/2000/svg" viewBox="0 0 72 56"><path d="M8 8v40.1h56V8zm20.58 4.9l.74-1.49.73 1.49 1.65.24-1.19 1.17.28 1.69-1.47-.78-1.48.78.28-1.64-1.19-1.17zm2.21 13.72l-1.47-.77-1.48.77.28-1.62-1.19-1.17 1.65-.23.74-1.5.73 1.5 1.65.23L30.51 25zm-5.28-9.8l.74 1.49 1.65.24-1.19 1.17.29 1.64-1.48-.78-1.52.78.28-1.64-1.19-1.17 1.65-.24zm-2.6 9.8l-1.47-.77-1.44.77.24-1.62-1.19-1.17 1.65-.23.74-1.5.73 1.5 1.65.23L22.63 25zM20.7 12.9l.74-1.49.73 1.49 1.65.24-1.19 1.17.28 1.69-1.47-.78L20 16l.28-1.64-1.19-1.17zm-3.45 3.92l.75 1.49 1.65.24-1.19 1.17.28 1.64-1.48-.78-1.47.78.28-1.64-1.2-1.17 1.65-.24zm-4.14-3.92l.74-1.49.74 1.49 1.65.24L15 14.31l.33 1.69-1.48-.78-1.47.78.28-1.64-1.2-1.17zm0 10.68l.74-1.5.74 1.5 1.65.23L15 25l.29 1.64-1.48-.77-1.48.77.33-1.64-1.2-1.17zm48 21.94L11 45.57v-3.7h50.08zm0-6.19H11v-3.64h50.08zm0-5.85H11v-3.64h50.08zm0-6.5H35.5v-3.64h25.58zm0-6.59H35.5v-3.65h25.58zm0-6.21H35.5v-3.65h25.58z"/></svg>