<svg data-name="Layer 1" xmlns="http://www.w3.org/2000/svg" viewBox="0 0 72 56"><path d="M8.12 8v40c19 6.56 36.75-6.57 55.76 0V8C44.87 1.47 27.13 14.6 8.12 8zm20.7 11.88l.45-1.45c.18.51.26.77.44 1.28l1.44-.3L30 20.53c.17.51.26.76.44 1.27l-1.16-.61-1.16 1.07c.17-.58.26-.87.44-1.45l-1.16-.64zm-4.71-3.82c.17-.56.26-.85.44-1.41.18.52.27.78.44 1.31.58-.07.87-.11 1.44-.2l-1.16 1c.18.52.27.78.44 1.3l-1.16-.69-1.16 1c.18-.56.26-.84.44-1.41-.46-.29-.7-.43-1.16-.74.57-.04.86-.07 1.44-.13zm0 8.82c.17-.57.26-.85.44-1.42.18.53.27.79.44 1.31.58-.07.87-.11 1.44-.2l-1.16 1c.18.53.27.79.44 1.31l-1.16-.7c-.46.4-.7.59-1.16 1 .18-.56.26-.85.44-1.41L22.67 25c.57 0 .86 0 1.44-.09zM20 20.86c.17-.54.26-.82.44-1.37.18.55.27.82.44 1.36.58 0 .87 0 1.44-.07l-1.16.91c.18.54.27.81.44 1.34l-1.16-.8-1.16.84c.18-.55.26-.82.44-1.36-.46-.34-.7-.52-1.16-.88.53.03.82.03 1.44.03zm-5.08-4.94l.45-1.29c.17.57.26.86.44 1.43.58.07.86.11 1.44.16l-1.16.72c.17.57.26.85.44 1.42-.47-.39-.7-.59-1.16-1l-1.2.64c.17-.51.26-.77.44-1.28-.47-.43-.7-.64-1.16-1.09.55.14.86.19 1.43.29zm0 8.82l.45-1.3c.17.57.26.86.44 1.43.58.08.86.11 1.44.16l-1.16.72c.17.57.26.86.44 1.42-.47-.39-.7-.59-1.16-1-.47.27-.7.4-1.16.64.17-.51.26-.76.44-1.28-.47-.42-.7-.64-1.16-1.08.51.13.82.19 1.39.29zM61 43.85C43.84 40.08 28.16 50 11.05 46.21V43c17.11 3.81 32.79-6.1 49.95-2.32zm0-6.1C43.84 34 28.16 43.88 11.05 40.1v-3.05C28.16 40.83 43.84 30.92 61 34.7zm0-6C43.84 28 28.16 37.89 11.05 34.11V31c17.11 3.78 32.79-6.13 49.9-2.35zm0-6C52 23.65 44.31 25 35.45 27v-3.33C44.31 21.62 52 20.3 61 22.37zm0-6.29c-9-2.07-16.64-.74-25.5 1.31v-3c8.86-2 16.52-3.38 25.5-1.31zm0-6c-9-2.07-16.64-.75-25.5 1.3V11.1C44.31 9.05 52 7.72 61 9.79z"/></svg>