<svg xmlns="http://www.w3.org/2000/svg" viewBox="0 0 72 56"><path d="M55.89.21H16.11A1.6 1.6 0 0014.5 1.8v13.29h43V1.8A1.6 1.6 0 0055.89.21zM27.24 6.53l-.85.62-.86.63-.64.46.24.74.33 1 .33 1c.13.41-.05.54-.4.29l-.86-.62L23 9.58l-1.5 1.07-.86.62c-.35.25-.53.12-.4-.29l.33-1 .33-1 .24-.74-.64-.46-.86-.63-.85-.62c-.35-.25-.28-.46.15-.46h2.91l.57-1.74.34-1c.13-.41.35-.41.48 0l.34 1 .57 1.74h2.91c.47 0 .53.21.18.46zm13 0l-.86.62-.85.63-.64.46.21.76.33 1 .32 1c.14.41 0 .54-.39.29l-.86-.62L36 9.58l-1.5 1.07-.86.62c-.35.25-.53.12-.4-.29l.33-1 .32-1 .24-.74-.63-.45-.86-.63-.85-.62c-.35-.25-.28-.46.15-.46h2.91l.57-1.74.33-1c.14-.41.36-.41.49 0l.33 1 .58 1.74h2.91c.43-.01.5.2.15.45zm13 0l-.86.62-.86.63-.63.46.24.74.33 1 .32 1c.14.41 0 .54-.39.29l-.86-.62L49 9.58l-1.5 1.07-.86.62c-.35.25-.53.12-.4-.29l.33-1 .32-1 .24-.74-.63-.46-.86-.63-.86-.62c-.34-.25-.28-.46.15-.46h2.92l.57-1.74.33-1c.14-.41.36-.41.49 0l.33 1 .58 1.74H53c.46 0 .53.21.18.46zM24.12 18.18H14.5V43a3 3 0 001.41 2.36l8.21 4.46V18.18zm16.77 0h-9.78v35.41l3.48 1.89a3.31 3.31 0 002.82 0l3.48-1.89zm6.89 31.66l8.31-4.51A3 3 0 0057.5 43V18.18h-9.72z"/></svg>