<svg xmlns="http://www.w3.org/2000/svg" viewBox="0 0 49.08 48.44"><path d="M15.27 26.69c-1.43-8.16-3-16-4.65-23.14a41.25 41.25 0 00-4.3 2.56 4.18 4.18 0 00-1.24 1.35 1.65 1.65 0 00-.23 1.32c1.8 4.86 3.62 10.65 5.34 17 1 .1 2.6.56 5.08.91zM30.61 26.64c1.08-8.59 2.32-17 3.69-25A29.27 29.27 0 0027.06.05q-.32 13.5-.62 27c1.43-.14 2.79-.33 4.17-.41zM22.97 27.22q-.3-13.64-.62-27.23a29.27 29.27 0 00-7.24 1.59c1.43 8.14 2.63 16.64 3.71 25.37zM44.54 8.78a1.65 1.65 0 00-.23-1.32 4.18 4.18 0 00-1.24-1.35 42.32 42.32 0 00-4.3-2.56c-1.64 7.06-3.19 14.8-4.6 22.84 1.53-.25 3.26-.54 5.06-.8 1.73-6.24 3.54-11.98 5.31-16.81zM41.14 33.16l-.35 4A4.29 4.29 0 0137.45 41a56.7 56.7 0 01-13.4 1.48c-2.93 0-10.09-.18-13.4-1.83a4.34 4.34 0 01-2.37-3.43l-.34-4c-5 1.49-7.94 4-7.94 6.92 0 5.41 12.64 8.33 24.54 8.33s24.54-2.92 24.54-8.33c0-2.92-2.98-5.49-7.94-6.98z"/><path d="M23.89 28.36a64.22 64.22 0 01-13.7-1.23l.85 9.82a1.57 1.57 0 00.85 1.27c2.27 1.13 7.77 1.54 12.16 1.54a53.71 53.71 0 0012.79-1.44 1.53 1.53 0 001.2-1.37l.86-10.06a70.33 70.33 0 01-15.01 1.47zm-7.16 7.68l-1.92-1-1.92 1 .37-2.13-1.55-1.52 2.14-.31 1-1.94 1 1.94 2.14.31-1.55 1.52zm9.93.18l-2.12-.9-2.12.9.18-2.37-1.48-1.81 2.22-.56 1.2-2 1.2 2 2.22.56-1.48 1.81zm9.17-2.31l.37 2.13-1.92-1-1.91 1 .36-2.13-1.55-1.52 2.14-.31 1-1.94 1 1.94 2.15.31z"/></svg>