<svg id="Layer_1" data-name="Layer 1" xmlns="http://www.w3.org/2000/svg" viewBox="0 0 72 56"><defs><style>.cls-1{fill:#010002}</style></defs><path class="cls-1" d="M61.39 49.89a25.7 25.7 0 00-13.53-19.45c-3 3-7.23 19.66-11.86 19.66s-8.82-16.62-11.86-19.66a25.7 25.7 0 00-13.53 19.45 1.71 1.71 0 00.39 1.38 2.15 2.15 0 001.6.7h46.77a2.15 2.15 0 001.6-.7 1.71 1.71 0 00.42-1.38zM54 43.44h-6.76V42H54z"/><path class="cls-1" d="M25.47 28.6c.27.28.56.56.85.82a14.45 14.45 0 0019.36 0c.29-.26.58-.54.85-.82s.54-.58.79-.89a14.55 14.55 0 10-22.64 0c.25.29.51.6.79.89z"/><path class="cls-1" d="M37.52 36.55a.4.4 0 01-.4.4h-2.24a.4.4 0 01-.4-.4V34.3a.39.39 0 01.4-.39h2.24a.39.39 0 01.4.39zm-3.17 1.32h3.21l1.52 12.75h-6.27"/></svg>