<svg id="Layer_1" data-name="Layer 1" xmlns="http://www.w3.org/2000/svg" viewBox="0 0 72 56"><defs><style>.cls-1{fill:#010002}</style></defs><path class="cls-1" d="M17.25 52h37.5a1.68 1.68 0 001.25-.56 1.39 1.39 0 00.34-1.1 20.65 20.65 0 00-10.83-15.61 13.42 13.42 0 01-19 0 20.65 20.65 0 00-10.88 15.61 1.39 1.39 0 00.34 1.1 1.68 1.68 0 001.28.56z"/><path class="cls-1" d="M45.58 18.55l-.67.32-7.37 3.19a5.29 5.29 0 01-3.7 0l-7.3-3.17-.26-.12a11.66 11.66 0 00.64 13.78c.2.25.41.48.63.71s.45.45.68.66a11.62 11.62 0 0015.54 0c.23-.21.46-.43.68-.66s.43-.46.63-.71a11.66 11.66 0 00.5-14z"/><path d="M50.8 22.39h2.48l-.89-2.89v-9c.6-.41.43-.91-.45-1.22l-14.13-5A6.41 6.41 0 0034 4.3L19.51 9.77c-1.05.39-1.05 1 0 1.43l5.19 2v1a3.32 3.32 0 001.84 2.8l7.3 3.18a5.35 5.35 0 003.7 0L44.91 17a3.32 3.32 0 001.85-2.82V13l4.89-2.06v8.64z"/></svg>