<svg id="Layer_1" xmlns="http://www.w3.org/2000/svg" viewBox="0 0 72 56"><defs/><path d="M25.43 28.6c.27.29.56.56.85.82a14.52 14.52 0 0019.43 0 11.1 11.1 0 00.86-.82c.27-.29.54-.58.79-.89a14.6 14.6 0 10-22.72 0c.25.29.52.6.79.89z"/><path d="M37.52 36.58a.39.39 0 01-.39.4h-2.26a.4.4 0 01-.4-.4v-2.25a.4.4 0 01.4-.4h2.26a.39.39 0 01.39.4v2.25zm-3.18 1.32h3.23l1.52 8.05H32.8M21.77 31.84l-.93.65L34 52.05h1.4zm6.67 20.21h1.72L18.37 34.56c-.35.33-.69.68-1 1zM17 36a25.64 25.64 0 00-6.48 14 1.75 1.75 0 00.43 1.38 2.11 2.11 0 001.6.7h15.27z"/><path d="M61.49 50A25.8 25.8 0 0047.9 30.45c-3 3.05-7.26 11.8-11.9 11.8s-8.85-8.75-11.9-11.8c-.65.34-1.28.72-1.9 1.11L36 52.05h23.46a2.11 2.11 0 001.6-.7 1.75 1.75 0 00.43-1.35z"/></svg>