<svg xmlns="http://www.w3.org/2000/svg" viewBox="0 0 72 56"><path d="M26.05 30q.39.41.81.78a13.66 13.66 0 0018.28 0q.42-.37.81-.78c.25-.27.5-.54.74-.83a13.66 13.66 0 003.05-8.62c0-7.58-6.16-1.88-13.74-1.88s-13.74-5.7-13.74 1.88a13.66 13.66 0 003 8.62c.28.26.53.53.79.83z"/><path d="M24.93 14.29s10.8 5.08 22.14 0a32.87 32.87 0 00-22.14 0z"/><path d="M36 4s-6.7-.65-14.8 9A44.43 44.43 0 0136 10.21a54.26 54.26 0 0114.8 2.72S42.62 4 36 4zm-.39 3.72a1 1 0 010-2 1 1 0 010 1.96zM60 50.09a24.29 24.29 0 00-12.8-18.37c-1.49 1.49-3.94 6.79-5.93 7.59-1.83.75-3.17-3-5.27-3-1.69 0-3.2 3.29-4.73 2.8-2.42-.78-4.71-5.69-6.47-7.44A24.29 24.29 0 0012 50.09a1.64 1.64 0 00.41 1.3 2 2 0 001.5.66h44.17a2 2 0 001.5-.66 1.62 1.62 0 00.42-1.3zM50.64 47l-2.34-1.24L46 47l.45-2.61-1.9-1.85 2.62-.39 1.18-2.37 1.17 2.37 2.62.39-1.94 1.84z"/></svg>