<svg data-name="Layer 1" xmlns="http://www.w3.org/2000/svg" viewBox="0 0 72 56"><path d="M69.44 43V28.86l.28-.44v-.23h-.14v-.69l1.26-1v-.27h-.78v-1h-.29v-1.2l.29-.19v-.21h-15v-.4h-.51v-.41h-1.73V21l.51-.41v-.49h-2.69v.48l.52.41v1.86h-1.77v.41h-.51v.4h-.29l.33-.46v-.43h.21v-.29l-1-.39-.4-1.34v-.66l.53-.59h-6.39l-5.74-2.36v-3.25h2.57v-1.8h-2.57v-.42h-.26v5.47l-5.74 2.36h-6.44l.53.59v.66l-.4 1.34-.95.39v.29h.21v.43l.33.46h-.29v-.4h-.51v-.41h-1.77V21l.52-.41v-.49h-2.69v.48l.51.41v1.86h-1.76v.41h-.51v.4h-15v.21l.29.19v1.2h-.26v1h-.78v.27l1.26 1v.69h-.14v.23l.28.44V43H0v1.35h72V43zm-17-14.3v4.2h-2.6v-4.22zm-2.6 6.72h2.6v4.22h-2.6zm14.41-6.72h2.59v4.2h-2.57zm0 6.72h2.59v4.22h-2.57zm-7.2-6.72h2.59v4.2h-2.57zm0 6.72h2.59v4.22h-2.57zm-34.91-6.74v4.22h-2.6v-4.22zm-2.6 6.72h2.6v4.22h-2.6zm-7.2-6.72h2.59v4.22h-2.59zm0 6.72h2.59v4.22h-2.59zm-7.2-6.72h2.59v4.22H5.14zm0 6.72h2.59v4.22H5.14z"/></svg>