<svg data-name="Layer 1" xmlns="http://www.w3.org/2000/svg" viewBox="0 0 72 56"><path d="M59.25 12.42l-.83.27-4.42.39-1.27 2-.91-.29-3.59-3.19-.52-1.66L47 8.16l-2.23-2-2.63-.51-.06 1.2 2.58 2.52 1.26 1.48-1.42.75-1.15-.34-1.73-.73V9.14l-2.2-.94-.75 3.29-2.29.51.23 1.84 3 .57.52-2.93 2.46.37 1.14.67h1.84L46.8 15l3.34 3.38-.25 1.32-2.69-.34-4.64 2.34-3.34 4-.43 1.78h-1.21l-2.23-1-2.17 1 .54 2.29.94-1.09h1.67l-.12 2 1.38.4L39 32.67l2.2-.67 2.57.4 3 .8 1.48.18 2.52 2.86 4.87 2.86-3.15 6-3.32 1.54-1.26 3.44-4.81 3.21-.51 1.85a28 28 0 0016.66-42.72z"/><path d="M39.22 42.63l-2-3.78L39.05 35l-1.87-.56-2.1-2.11-4.66-1L28.88 28v1.92h-.68l-4-5.44V20l-2.94-4.78-4.67.83h-3.16l-1.59-1 2-1.6-2 .46A28 28 0 0036 56a29 29 0 003.51-.25l-.29-3.39s1.29-5 1.29-5.2-1.29-4.53-1.29-4.53zM18.41 9l5-.7 2.29-1.25 2.58.74 4.12-.23 1.42-2.22 2.05.34 5-.47 1.38-1.52 2-1.29 2.74.41 1-.15a27.91 27.91 0 00-33.51 7.49zm18.77-6.22L40 1.21l1.84 1.06-2.66 2-2.54.26-1.14-.74zM28.71 3l1.29.54L31.63 3l.9 1.56-3.82 1-1.83-1.06s1.79-1.15 1.83-1.5z"/></svg>