<svg width="64" height="64" viewBox="0 0 796 796" xmlns="http://www.w3.org/2000/svg"><path d="M792.747 677.386l-3.413 3.413C705.22 765.302 588.81 817.594 460.186 817.594s-245.034-52.293-329.131-136.778l-.017-.017C63.366 613.884 16.398 526.16.523 428.018l-.352-2.639q-2.287-16.009 27.307-20.48 29.15-4.574 32.017 11.435a3.382 3.382 0 01.579 2.302l.001-.015c6.692 34.703 15.78 65.155 27.493 94.27l-1.21-3.407c20.983 50.368 50.365 93.303 86.809 129.067l.06.059c73.337 73.326 174.644 118.678 286.544 118.678 57.108 0 111.457-11.812 160.737-33.126l-2.626 1.011c49.957-21.593 92.615-50.885 128.579-86.868l3.415-3.415a13.617 13.617 0 019.822-4.169c1.605 0 3.145.277 4.576.786l-.095-.03c7.387 2.912 13.672 7.18 18.825 12.544l.017.017q20.582 21.299 9.728 33.348zM523.093 325.813l-37.547 37.547 36.011 36.011q12.015 12.015-3.994 27.989c-4.476 5.364-10.904 8.969-18.179 9.718l-.117.01a14.708 14.708 0 01-10.83-5.667l-.025-.033-35.43-34.85-37.547 37.547a11.582 11.582 0 01-8.608 2.864l.04.003a25.94 25.94 0 01-17.684-9.11l-.031-.038-1.126-1.126c-5.552-3.698-9.38-9.608-10.229-16.442l-.011-.113a17.052 17.052 0 014.581-9.735l-.007.007 37.547-37.137-37.547-37.547q-9.148-9.148 7.987-25.702c4.325-5.377 10.505-9.108 17.556-10.219l.159-.021a13.04 13.04 0 017.466 2.886l-.025-.019 37.137 37.547 37.137-37.137q10.24-9.728 27.307 7.441 15.087 15.701 5.939 25.327zm269.142 32.563l.001.872c0 92.166-37.577 175.555-98.247 235.682l-.024.024c-29.901 29.829-65.356 54.106-104.679 71.141l-2.193.846c-38.462 16.621-83.245 26.288-130.287 26.288s-91.825-9.667-132.473-27.123l2.186.835c-41.515-17.881-76.97-42.158-106.878-71.994l.006.006c-29.871-29.586-54.01-64.898-70.64-104.163l-.801-2.128c-3.582-6.581-6.526-14.206-8.439-22.231l-.128-.638h-.58q-5.154-15.428 24.576-25.156 28.57-9.148 34.133 6.827c13.309 36.798 32.116 68.527 55.764 95.966l-.331-.393h.58V348.204c.518-52.309 22.795-99.316 58.198-132.48l.102-.094c36.069-36.362 86.054-58.873 141.297-58.873 1.145 0 2.288.01 3.429.029l-.172-.002c.937-.016 2.042-.025 3.149-.025 54.901 0 104.541 22.526 140.181 58.841l.03.03c36.666 35.175 59.45 84.576 59.45 139.298 0 1.056-.008 2.11-.025 3.162l.002-.159c-.31 111.908-90.946 202.545-202.824 202.854h-.03l-.625.001c-22.591 0-44.401-3.343-64.962-9.561l1.587.412q-16.009-6.281-7.441-34.85 9.148-29.15 25.156-24.576l7.987 1.707q7.987 1.707 18.842 3.413c5.029.928 10.913 1.542 16.91 1.703l.156.003c.807.017 1.758.027 2.711.027 38.295 0 72.928-15.68 97.828-40.969l.017-.017c25.394-24.61 41.155-59.031 41.155-97.133 0-.904-.009-1.806-.027-2.705l.002.135c.014-.702.021-1.53.021-2.36 0-37.548-15.789-71.409-41.089-95.305l-.063-.059c-24.669-25.08-58.969-40.62-96.899-40.62-1.094 0-2.186.013-3.274.039l.161-.003c-.773-.016-1.684-.026-2.597-.026-39.602 0-75.078 17.669-98.973 45.554l-.147.176c-22.487 23.834-36.368 55.999-36.557 91.406v236.036c38.734 24.051 85.732 38.307 136.058 38.307.779 0 1.557-.003 2.335-.01l-.119.001.563.001c37.967 0 74.143-7.666 107.065-21.535l-1.815.679c100.077-41.903 169.109-139.027 169.131-252.277v-.003c.017-1.113.027-2.427.027-3.743 0-74.541-30.878-141.869-80.541-189.892l-.074-.071c-49.743-49.441-118.301-80-193.997-80s-144.254 30.559-194.011 80.014l.014-.014a417.46 417.46 0 00-43.246 48.663l-.751 1.035-1.126 1.126a60.98 60.98 0 01-7.431 8.831l-.01.009c-3.506 2.445-7.616 4.32-12.043 5.378l-.245.049c-2.543.668-5.461 1.051-8.47 1.051-4.893 0-9.55-1.014-13.77-2.845l.224.087c-7.953-1.818-14.944-5.084-21.014-9.532l.159.111c-5.135-3.232-8.565-8.765-8.839-15.116l-.001-.039v-388.437-.136c0-5.827 2.289-11.12 6.016-15.028l-.008.009c3.721-4.063 9.049-6.601 14.97-6.601.257 0 .513.005.768.014l-.037-.001h501.146q17.067 0 17.067 31.437t-17.067 31.437H204.322v276.002h.58c33.894-33.504 73.524-61.297 117.269-81.76l2.573-1.081c38.461-16.62 83.245-26.287 130.285-26.287.601 0 1.201.002 1.801.005h-.093c.583-.004 1.272-.006 1.962-.006 46.37 0 90.482 9.671 130.428 27.106l-2.103-.818c121.512 51.793 205.143 170.222 205.143 308.184l-.002 1.013v-.052zM774.349 26.464c3.042 2.431 5.013 6.092 5.154 10.217l.001.023.001.159c0 3.77-1.175 7.265-3.179 10.139l.038-.058q-3.14 4.574-9.421 12.015-14.848 14.848-22.289 14.848a12.562 12.562 0 01-9.141-3.987l-.006-.007c-33.838-30.249-72.832-55.709-115.321-74.77l-2.849-1.142c-45.534-20.222-98.653-31.996-154.522-31.996a423 423 0 00-3.381.014l.173-.001c-53.867.104-105.308 10.367-152.548 28.975l2.839-.985q-15.428 5.7-25.702-21.129c-2.79-6.398-4.461-13.844-4.573-21.666v-.043a13.34 13.34 0 019.054-11.408l.094-.027c48.054-20.64 103.984-32.642 162.718-32.642 2.867 0 5.728.029 8.581.086l-.428-.007.691-.001c64.97 0 126.8 13.446 182.859 37.707l-2.984-1.15c51.874 21.723 96.33 51.007 134.343 87.022l-.199-.187z"/></svg>