<svg width="64" height="64" viewBox="0 0 1026 1026" xmlns="http://www.w3.org/2000/svg"><path d="M1010.258 680.585c-30.395-32.535-92.639-51.371-180.827-51.371-57.155.363-112.738 6.112-166.559 16.763l5.596-.923a872.356 872.356 0 01-96.969-113.799l-1.792-2.643c-19.729-27.644-39.863-59.679-58.173-92.862l-2.616-5.172c28.302-77.082 46.828-166.19 51.539-258.945l.089-2.193c0-71.577-25.686-146.237-100.174-146.237-24.55.855-45.794 14.242-57.616 33.931l-.176.316c-33.52 60.276-18.408 192.342 39.256 322.783-21.405 65.07-44.308 127.272-72.776 196.923-24.744 58.906-53.255 119.609-82.322 175.518C119.525 820.655 11.388 899.853 1.242 961.926c-.759 3.841-1.194 8.256-1.194 12.773 0 19.315 7.945 36.774 20.745 49.288l.013.013c16.713 14.498 38.68 23.333 62.71 23.333l.683-.002h-.035c110.876 0 227.746-183.224 287.122-293.672 45.592-15.411 91.184-29.41 136.69-43.452 50.001-13.827 100.174-24.958 145.552-32.749C770.612 784.481 873.825 801.605 925.71 801.605c63.872 0 86.646-26.413 94.181-48.032 3.503-8.308 5.539-17.967 5.539-28.102 0-17.625-6.156-33.811-16.436-46.527l.11.14.856 1.712zm-59.291 45.121c-6.822 22.859-27.657 39.239-52.317 39.239-2.474 0-4.909-.165-7.296-.484l.279.031c-9.297-.333-18.125-1.439-26.689-3.261l1.003.179c-64.924-17.18-121.078-48.437-167.28-90.446l.324.29c38.176-6.809 82.123-10.703 126.98-10.703h.624-.032a329.94 329.94 0 0111.863-.206c23.217 0 45.892 2.319 67.807 6.739l-2.185-.368c20.977 4.538 54.368 18.622 46.876 59.077h.856zm-322.14-73.075c-39.385 8.134-81.937 17.723-126.031 29.667-34.932 9.546-71.32 20.292-107.88 32.963 19.821-38.528 36.559-75.944 51.714-111.304 18.322-43.666 33.391-88.615 48.589-130.397 14.983 26.114 31.679 52.656 48.375 76.201 28.186 38.549 55.978 72.316 85.527 104.44l-.764-.842v-.856zM429.763 75.346c5.395-10.898 16.304-18.332 28.981-18.664l.043-.001c31.893 0 37.972 37.159 37.972 66.783-4.801 77.559-19.476 150.033-42.832 218.487l1.735-5.853c-45.464-120.722-48.589-221.753-25.686-260.709zM262.807 798.825c-77.571 130.14-151.973 211.05-197.565 211.05a37.01 37.01 0 01-22.556-7.895l.081.061c-7.03-6.146-11.445-15.131-11.445-25.147 0-2.619.302-5.168.873-7.614l-.044.226c9.118-46.662 95.722-111.861 230.828-170.809z"/></svg>