<svg width="64" height="64" viewBox="0 0 1024 1024" xmlns="http://www.w3.org/2000/svg"><path d="M523.382 366.489c.858-.013 1.87-.021 2.884-.021 55.643 0 105.975 22.734 142.216 59.421l.02.02c36.682 34.78 59.506 83.863 59.506 138.276 0 2.011-.031 4.014-.093 6.01l.007-.292.001.54c0 56.236-23.194 107.054-60.537 143.411l-.044.043c-35.67 36.687-85.495 59.449-140.637 59.449-1.18 0-2.358-.01-3.533-.031l.177.002c-.999.018-2.176.029-3.357.029-55.142 0-104.968-22.762-140.593-59.403l-.044-.046c-36.687-35.67-59.449-85.495-59.449-140.637 0-1.18.01-2.358.031-3.533l-.002.177c-.018-.999-.029-2.176-.029-3.357 0-55.142 22.762-104.968 59.403-140.593l.046-.044c35.67-36.687 85.496-59.45 140.638-59.45 1.192 0 2.382.011 3.569.032l-.178-.003zm143.994 127.987q4.573-2.287 2.287-9.147c-14.17-24.737-33.896-44.824-57.562-59.013l-.732-.407c-23.139-14.423-50.916-23.575-80.704-25.136l-.423-.018a6.06 6.06 0 00-5.085 1.74 6.057 6.057 0 00-1.738 5.116l-.003-.031v153.141q0 2.287 3.413 3.413c1.685.635 3.632 1.041 5.662 1.125l.037.001zM889.221 21.367c.346-.003.755-.005 1.164-.005 36.807 0 70.033 15.333 93.639 39.96l.044.046c24.572 23.636 39.836 56.796 39.836 93.521 0 .466-.002.932-.007 1.397l.001-.071v754.271c.003.346.005.755.005 1.164 0 36.807-15.333 70.033-39.96 93.639l-.046.044c-23.65 24.673-56.876 40.005-93.683 40.005-.409 0-.818-.002-1.227-.006H134.846c-.346.003-.755.005-1.164.005-36.807 0-70.033-15.333-93.639-39.96l-.044-.046C15.326 981.681-.007 948.455-.007 911.648c0-.421.002-.842.006-1.262v.064-754.271c-.003-.346-.005-.755-.005-1.164 0-36.807 15.333-70.033 39.96-93.639l.046-.044c23.65-24.673 56.876-40.005 93.683-40.005.409 0 .818.002 1.227.006h-.062zM427.375 215.669v36.579c0 1.525.935 2.832 2.263 3.378l.024.009a10.087 10.087 0 004.568 1.126h.005c26.479-8.659 56.953-13.652 88.592-13.652l.585.001h-.03l.555-.001c31.639 0 62.112 4.993 90.674 14.235l-2.082-.582a6.586 6.586 0 004.566-2.278l.007-.009a6.58 6.58 0 002.286-4.553l.001-.02v-34.13-.182c0-12.507-5.235-23.791-13.634-31.781l-.018-.017c-8.007-8.417-19.291-13.652-31.798-13.652H470.992c-.152-.002-.33-.003-.51-.003-12.013 0-22.797 5.264-30.17 13.612l-.038.043c-7.88 8.223-12.731 19.403-12.731 31.715v.171-.009zm-194.268 84.54c-8.367 6.812-13.668 17.112-13.668 28.649 0 .379.006.757.017 1.133l-.001-.055-.001.216c0 12.507 5.235 23.791 13.634 31.781l.018.017 18.294 18.294q4.573 4.573 9.147-2.287 16.007-20.478 33.14-38.84a256.542 256.542 0 0139.165-33.58l.835-.55q6.826-4.573 2.287-9.147l-18.294-18.294c-8.38-7.113-19.321-11.439-31.271-11.439-.249 0-.498.002-.746.006h.038a48.271 48.271 0 00-32.049 11.492l.07-.058zm290.105 557.648c.866.01 1.889.015 2.914.015 52.84 0 102.309-14.434 144.679-39.575l-1.312.72c43.829-25.756 79.365-61.292 104.382-103.765l.738-1.355c24.519-40.935 39.018-90.309 39.018-143.07 0-.733-.003-1.465-.008-2.197l.001.112c.006-.677.009-1.478.009-2.28 0-52.667-14.448-101.96-39.596-144.132l.713 1.291c-25.756-43.829-61.292-79.365-103.765-104.382l-1.355-.738c-40.867-24.415-90.139-38.85-142.784-38.85-.822 0-1.642.004-2.462.011l.125-.001a277.58 277.58 0 00-2.337-.01c-52.644 0-101.917 14.435-144.076 39.563l1.292-.713c-44.017 25.958-79.603 61.916-104.381 104.891l-.739 1.39c-24.373 41.195-38.775 90.789-38.775 143.747 0 .483.001.965.004 1.448v-.074c-.003.519-.005 1.133-.005 1.748 0 52.464 14.436 101.556 39.552 143.52l-.707-1.274c25.756 43.829 61.292 79.365 103.765 104.382l1.355.738c40.704 24.43 89.816 38.879 142.303 38.879.571 0 1.141-.002 1.711-.005h-.088z"/></svg>