<svg width="64" height="64" viewBox="0 0 1024 1024" xmlns="http://www.w3.org/2000/svg"><path d="M680.96 49.493l-99.84 394.24h92.16c25.6 0 35.84 20.48 20.48 46.08l-327.68 535.04c43.686 12.834 93.895 20.302 145.822 20.48H512c282.778-.223 511.928-229.511 511.928-512.32 0-222.262-141.535-411.466-339.393-482.401l-3.575-1.119zm-238.08 570.88h-92.16c-25.6 0-35.84-20.48-20.48-46.08l327.68-532.48c-43.686-12.834-93.895-20.302-145.822-20.48H512C229.222 21.556.072 250.844.072 533.653c0 222.262 141.535 411.466 339.393 482.401l3.575 1.119z"/></svg>