<svg width="64" height="64" viewBox="0 0 866 866" xmlns="http://www.w3.org/2000/svg"><path d="M303.377 81.786c13.252 0 23.996-10.743 23.996-23.996s-10.743-23.996-23.996-23.996a22.024 22.024 0 00-16.61 7.052l-.013.014c-4.194 4.395-6.775 10.361-6.775 16.93s2.581 12.535 6.784 16.94l-.009-.01c4.045 4.354 9.803 7.07 16.195 7.07.15 0 .301-.002.45-.004h-.022zm259.686 0a22.024 22.024 0 0016.61-7.052l.013-.014c4.194-4.395 6.775-10.361 6.775-16.93s-2.581-12.535-6.784-16.94l.009.01c-4.045-4.354-9.803-7.07-16.195-7.07-.15 0-.301.002-.45.004h.022c-13.252 0-23.996 10.743-23.996 23.996s10.743 23.996 23.996 23.996zM63.386 195.007c34.605.154 62.617 28.166 62.771 62.756V522.38c.007.357.012.779.012 1.201 0 17.084-6.946 32.547-18.168 43.716l-.002.002c-10.961 11.398-26.341 18.479-43.374 18.479-.435 0-.87-.005-1.303-.014l.065.001-.342.001c-34.818 0-63.044-28.226-63.044-63.044l.001-.325v.017-264.602a60.195 60.195 0 01-.007-.889c0-17.066 7.076-32.48 18.455-43.467l.018-.017c11.11-11.363 26.595-18.41 43.726-18.41.42 0 .838.004 1.256.013l-.062-.001zm652.322 11.707v409.839c.007.366.012.798.012 1.231 0 18.323-7.543 34.884-19.694 46.748l-.013.013c-11.764 12.156-28.227 19.702-46.453 19.702-.325 0-.649-.002-.973-.007l.049.001h-46.182v139.708c0 35.007-28.379 63.386-63.386 63.386s-63.386-28.379-63.386-63.386V684.241h-84.924v139.708l.001.342c0 34.818-28.226 63.044-63.044 63.044l-.361-.001h.018c-.265.004-.577.007-.889.007-17.066 0-32.48-7.076-43.467-18.455l-.017-.018c-11.403-11.116-18.477-26.628-18.477-43.791 0-.397.004-.793.011-1.188l-.001.059-.614-139.708h-45.466l-.445.001c-37.137 0-67.243-30.106-67.243-67.243l.002-.469v.024-409.839zM572.928-42.459c43.395 22.197 78.934 54.28 104.6 93.419l.633 1.028c24.686 36.963 39.393 82.416 39.393 131.304 0 .459-.001.917-.004 1.375v-.071H148.308a255.15 255.15 0 01-.004-1.304c0-48.888 14.708-94.341 39.94-132.175l-.547.871c26.413-40.259 62.162-72.365 104.277-93.74l1.536-.707-43.691-80.623a8.037 8.037 0 01-1.69-4.949 8.092 8.092 0 014.712-7.353l.05-.021a8.45 8.45 0 014.553-1.316 8.534 8.534 0 017.747 4.95l.022.053 44.373 81.237c36.427-16.334 78.952-25.849 123.699-25.849s87.272 9.514 125.663 26.631l-1.963-.782 44.373-81.237c1.376-2.975 4.336-5.003 7.769-5.003 1.689 0 3.263.491 4.588 1.337l-.034-.021c2.831 1.3 4.762 4.112 4.762 7.374a8.055 8.055 0 01-1.704 4.967l.014-.018zm293.547 300.373v264.602l.001.342c0 34.818-28.226 63.044-63.044 63.044l-.361-.001h.018c-.265.004-.577.007-.889.007-17.066 0-32.48-7.076-43.467-18.455l-.017-.018c-11.403-11.116-18.477-26.628-18.477-43.791 0-.397.004-.793.011-1.188l-.001.059V257.913a58.712 58.712 0 01-.013-1.239c0-17.033 7.081-32.412 18.459-43.355l.02-.019c11.057-11.217 26.418-18.167 43.402-18.167.342 0 .683.003 1.023.008l-.051-.001c.357-.007.779-.012 1.201-.012 17.084 0 32.547 6.946 43.716 18.168l.002.002c11.397 10.961 18.476 26.339 18.476 43.371 0 .388-.004.776-.011 1.162l.001-.058z"/></svg>