<svg width="64" height="64" viewBox="0 0 714 714" xmlns="http://www.w3.org/2000/svg"><path d="M547.177 136.157q47.085-127.949 73.46-211.269c11.178-29.262 20.366-63.723 25.986-99.371l.388-2.988c.06-.917.094-1.989.094-3.068a50.066 50.066 0 00-9.005-28.725l.108.164c-5.375-6.894-13.681-11.286-23.012-11.286-.438 0-.875.01-1.308.029l.062-.002q-19.687 0-40.057 32.687c-17.169 29.995-32.44 64.79-43.958 101.251l-1.046 3.838L458.602 120.6zm-93.488 189.126c-20.979-.924-40.682-3.182-59.939-6.716l2.652.404c-19.762-3.59-37.104-8.461-53.749-14.751l2.092.694q11.225 22.519 20.028 45.004c4.813 11.711 9.736 26.484 13.776 41.616l.622 2.739c11.204-13.998 22.83-26.51 35.306-38.12l.213-.196a297.595 297.595 0 0137.916-30.028l1.083-.68zm-79.43-213.01l-75.916-219.355c-13.492-42.265-28.974-78.39-47.41-112.693l1.724 3.51q-16.173-25.658-35.143-25.658c-.229-.006-.498-.01-.768-.01-9.36 0-17.696 4.382-23.069 11.207l-.048.063c-5.75 7.656-9.208 17.319-9.208 27.79 0 .858.023 1.711.069 2.558l-.005-.118c3.766 41.467 12.477 79.681 25.61 115.77l-1.01-3.176q24.6 80.147 73.801 210.211c2.598-4.92 6.747-8.728 11.787-10.827l.155-.057c5.628-2.037 12.123-3.215 18.893-3.215.771 0 1.539.015 2.303.046l-.11-.003q4.231 0 16.889.717t41.455 3.412zm-68.888 339.56c8.821-.268 16.618-4.435 21.759-10.828l.044-.056c5.943-6.084 9.662-14.363 9.826-23.511v-.032c-4.025-23.352-10.752-44.243-19.978-63.719l.633 1.484c-14.914-37.144-31.066-68.708-49.675-98.584l1.532 2.64c-11.592-20.367-25.375-37.844-41.385-52.992l-.105-.098c-9.95-10.134-23.435-16.768-38.455-17.901l-.202-.012c-13.357 1.73-24.846 8.597-32.605 18.521l-.081.108c-9.914 8.647-16.542 20.841-17.895 34.584l-.017.218c2.335 18.986 8.569 36.133 17.882 51.172l-.311-.539c14.741 27.28 30.358 50.727 47.855 72.604l-.736-.952c17.507 24.291 36.691 45.532 57.956 64.487l.388.34c11.343 11.795 26.289 20.052 43.064 22.996l.472.069zm-210.894-16.89q9.826 11.976 27.296 35.143 46.403 63.974 85.777 63.974l.282.001c8.987 0 17.23-3.182 23.666-8.48l-.064.051c5.9-3.855 9.905-10.187 10.537-17.485l.006-.087c-2.227-13.314-7.168-25.17-14.248-35.436l.191.293c-12.553-21.113-25.315-39.254-39.3-56.358l.643.811c-14.611-19.329-29.937-36.44-46.557-52.198l-.187-.176c-7.622-8.356-17.834-14.234-29.36-16.362l-.324-.05c-19.005 1.169-35.421 11.287-45.209 26.155l-.136.219c-12.946 16.409-20.765 37.387-20.765 60.19 0 .707.008 1.412.022 2.115l-.002-.105c.688 23.403 5.919 45.411 14.836 65.415l-.438-1.099c11.553 27.244 25.583 50.747 42.333 72.005l-.502-.661c26.9 36.071 61.447 64.95 101.367 84.571l1.641.729c38.674 18.876 84.147 29.913 132.198 29.913 1.349 0 2.696-.009 4.041-.026l-.204.002c1.555.029 3.388.046 5.226.046 89.401 0 169.571-39.522 223.992-102.046l.306-.359c57.521-64.617 92.665-150.255 92.665-244.102 0-4.268-.073-8.52-.217-12.753l.017.615c.063-2.36.099-5.138.099-7.924 0-23.711-2.596-46.816-7.52-69.046l.393 2.112c-3.191-16.234-11.488-30.152-23.12-40.362l-.081-.07c-32.002-20.961-69.804-36.027-110.44-42.662l-1.677-.226c-51.421-12.061-110.462-18.976-171.119-18.976-1.017 0-2.034.002-3.05.006h.158a56.476 56.476 0 00-5.256-.237c-11.326 0-21.899 3.225-30.85 8.808l.246-.143c-6.621 6.362-10.734 15.292-10.734 25.182 0 1.285.069 2.555.205 3.804l-.014-.155c.335 32.973 22.619 60.65 52.921 69.141l.51.122c44.115 14.025 94.853 22.107 147.48 22.107 8.96 0 17.866-.234 26.71-.697l-1.238.052h28.763c.188-.007.409-.01.63-.01 6.149 0 11.627 2.868 15.171 7.34l.031.04c4.418 6.212 7.335 13.776 8.074 21.969l.013.175c-14.06 10.747-30.388 19.471-48.026 25.32l-1.175.338c-21.757 7.873-40.555 17.484-57.904 29.094l.959-.604c-27.299 19.848-49.954 44.254-67.274 72.305l-.625 1.087c-15.119 22.725-24.539 50.402-25.65 80.203l-.008.285c.725 20.246 4.655 39.355 11.294 57.142l-.41-1.254c4.662 11.6 8.451 25.201 10.734 39.306l.15 1.125v4.913l-1.399 6.312c-22.117-2.244-40.465-16.368-48.713-35.813l-.146-.388c-11.431-24.156-18.104-52.479-18.104-82.361 0-3.049.069-6.082.207-9.098l-.016.428v-6.312a38.796 38.796 0 01-10.635 6.931l-.249.098c-3.335 1.34-7.202 2.117-11.25 2.117l-.369-.002h.019l-.276.001c-4.124 0-8.158-.385-12.069-1.121l.403.063c-5.116-.998-9.368-2.096-13.524-3.409l.866.236c1.198 4.107 2.306 9.216 3.089 14.431l.084.684c.574 3.414.955 7.419 1.056 11.493l.002.108v.215c0 17.741-7.909 33.635-20.394 44.348l-.078.066c-12.376 11.549-29.043 18.639-47.365 18.639-.405 0-.81-.003-1.214-.01l.061.001c-35.776-2.388-67.374-18.53-89.882-43.128l-.092-.101c-25.563-20.252-42.655-50.233-45.654-84.26l-.033-.459a48.74 48.74 0 011.858-13.992l-.084.344c1.151-4.021 3.22-7.469 5.972-10.237l-.001.001zm503.368-286.844c37.127 4.433 68.872 24.361 89.022 53.028l.269.403c16.782 32.958 26.615 71.876 26.615 113.09 0 6.213-.223 12.374-.663 18.475l.047-.818c.196 4.707.307 10.23.307 15.779 0 105.897-40.602 202.311-107.088 274.524l.26-.286c-65.513 69.64-158.27 113.011-261.156 113.011-3.958 0-7.901-.064-11.828-.192l.572.015h-.313c-45.524 0-89.029-8.641-128.966-24.372l2.388.829c-41.034-15.539-76.212-37.851-105.924-65.892l.153.144c-30.735-27.304-56.152-59.791-75.042-96.207l-.874-1.853C9.819 516.976.484 480.602.307 442.063v-.057a143.235 143.235 0 01-.291-9.278c0-31.496 9.837-60.694 26.607-84.689l-.317.479c20.727-23.595 49.243-39.906 81.499-44.906l.764-.097c-5.046-10.963-10.294-24.714-14.733-38.825l-.723-2.665c-2.643-7.671-4.424-16.548-4.968-25.757l-.013-.276c2.065-26.136 14.553-49.005 33.259-64.709l.145-.118c15.454-18.286 37.554-30.534 62.528-32.997l.388-.031c9.597.12 18.765 1.785 27.323 4.755l-.607-.183c12.429 4.378 23.106 9.48 33.127 15.555l-.782-.44Q189.365 4.558 164.765-78.728c-11.924-33.535-20.625-72.543-24.449-112.971l-.151-1.978a97.99 97.99 0 01-.146-5.443c0-24.275 8.538-46.556 22.776-64.003l-.145.183c14.189-15.83 34.7-25.744 57.527-25.744 1.284 0 2.56.031 3.829.093l-.179-.007q66.056 0 167.186 295.272 17.572 50.634 26.716 78.032 7.745-21.768 21.802-61.859 101.233-292.474 174.352-292.474a70.59 70.59 0 013.031-.063c21.537 0 40.886 9.368 54.194 24.252l.062.07c13.574 16.266 21.815 37.393 21.815 60.445 0 1.638-.042 3.265-.124 4.883l.009-.227c-3.835 41.751-12.163 80.176-24.586 116.709l1.044-3.534q-23.577 82.263-71.344 214.954z"/></svg>