<svg width="64" height="64" viewBox="0 0 1024 1024" xmlns="http://www.w3.org/2000/svg"><path d="M530.533 221.58c5.626-9.614 14.712-16.686 25.51-19.559l.293-.066c3.499-1.203 7.53-1.897 11.724-1.897a36.994 36.994 0 0120.431 6.114l-.14-.086c9.333 5.935 16.289 14.895 19.539 25.476l.086.327c1.058 3.348 1.667 7.199 1.667 11.192a38.22 38.22 0 01-6.903 21.971l.082-.124L423.19 576.681h130.039c.37-.01.804-.015 1.241-.015 19.93 0 37.125 11.708 45.083 28.62l.129.304c5.022 8.202 7.995 18.131 7.995 28.754 0 9.904-2.585 19.203-7.116 27.262l.145-.28H218.95c-.342.01-.745.016-1.149.016-11.652 0-22.195-4.743-29.806-12.403l-.002-.002c-7.649-7.449-12.394-17.847-12.394-29.353 0-.204.001-.407.004-.61v.031a34.76 34.76 0 01-.004-.58c0-11.506 4.745-21.905 12.385-29.345l.009-.009c7.613-7.663 18.157-12.405 29.808-12.405.404 0 .806.006 1.208.017l-.059-.001h107.342l136.251-237.416-41.435-74.201c-4.269-6.101-6.821-13.676-6.821-21.847 0-3.993.609-7.844 1.74-11.464l-.073.272c3.337-10.908 10.292-19.868 19.439-25.692l.187-.111c5.723-3.778 12.744-6.027 20.291-6.027 4.194 0 8.225.695 11.986 1.975l-.262-.077c11.091 2.939 20.177 10.011 25.696 19.428l.107.198 18.567 33.039zM309.637 774.844c-6.461 9.223-15.688 16.12-26.466 19.527l-.361.098c-3.469 1.16-7.463 1.829-11.614 1.829a37.602 37.602 0 01-20.514-6.049l.148.09c-9.689-5.54-16.795-14.663-19.564-25.52l-.061-.284c-.856-3.34-1.347-7.174-1.347-11.122a46.384 46.384 0 015.599-22.163l-.122.246 30.957-51.606c7.229-2.623 15.572-4.14 24.27-4.14 23.708 0 44.784 11.269 58.164 28.743l.129.176zm497.528-198.165c.342-.01.745-.016 1.149-.016 11.652 0 22.195 4.743 29.806 12.403l.002.002c7.649 7.449 12.394 17.847 12.394 29.353 0 .204-.001.407-.004.61V619c.003.172.004.376.004.58 0 11.506-4.745 21.905-12.385 29.345l-.009.009c-7.613 7.663-18.157 12.405-29.808 12.405-.404 0-.806-.006-1.208-.017l.059.001h-59.866l41.299 70.173c3.193 5.85 5.07 12.813 5.07 20.216 0 4.579-.718 8.99-2.049 13.127l.084-.303c-3.337 10.908-10.292 19.868-19.439 25.692l-.187.111c-5.72 3.774-12.738 6.02-20.279 6.02-4.185 0-8.209-.692-11.963-1.967l.262.077c-11.091-2.939-20.177-10.011-25.696-19.428l-.107-.198-154.818-270.42c-11.647-18.301-18.562-40.601-18.562-64.517 0-7.841.743-15.508 2.163-22.935l-.121.76c3.904-22.331 15.039-41.566 30.86-55.652l.096-.084 123.862 214.684zM511.966 21.367c.973-.007 2.124-.011 3.276-.011 93.222 0 180.441 25.704 254.956 70.412l-2.25-1.251c77.838 45.857 140.977 108.997 185.517 184.424l1.316 2.409c43.456 72.265 69.16 159.484 69.16 252.707 0 1.152-.004 2.303-.012 3.452l.001-.176c.007.973.011 2.124.011 3.276 0 93.222-25.704 180.441-70.412 254.956l1.251-2.25c-45.857 77.838-108.997 140.977-184.424 185.517l-2.409 1.316c-72.265 43.456-159.484 69.16-252.707 69.16-1.152 0-2.303-.004-3.452-.012l.176.001c-.973.007-2.124.011-3.276.011-93.222 0-180.441-25.704-254.956-70.412l2.25 1.251C178.141 930.281 115.002 867.13 70.465 791.69l-1.316-2.41C25.693 717.015-.011 629.796-.011 536.573c0-1.152.004-2.303.012-3.452l-.001.176c-.007-.973-.011-2.124-.011-3.276 0-93.222 25.704-180.441 70.412-254.956l-1.251 2.25c45.857-77.838 108.997-140.977 184.424-185.517l2.409-1.316c72.265-43.456 159.484-69.16 252.707-69.16 1.152 0 2.303.004 3.452.012l-.176-.001zm445.922 511.966c.011-1.141.017-2.49.017-3.841 0-81.12-22.197-157.055-60.849-222.063l1.103 2.003c-39.856-67.753-95.017-122.587-160.958-160.917l-2.12-1.138c-63.349-37.592-139.648-59.808-221.136-59.808-1.068 0-2.135.004-3.201.011l.164-.001c-.945-.007-2.063-.012-3.181-.012-81.037 0-156.876 22.25-221.744 60.973l1.981-1.096c-67.746 39.838-122.578 94.976-160.917 160.892l-1.137 2.118c-37.632 63.375-59.874 139.715-59.874 221.249 0 .932.003 1.863.009 2.794l-.001-.143c-.007.945-.012 2.063-.012 3.181 0 81.037 22.25 156.876 60.973 221.744l-1.096-1.981c39.856 67.753 95.017 122.587 160.958 160.917l2.12 1.138c63.375 37.633 139.715 59.874 221.249 59.874.956 0 1.911-.003 2.865-.009l-.146.001c.955.008 2.085.012 3.215.012 81.037 0 156.877-22.25 221.744-60.974l-1.981 1.096c67.821-39.836 122.713-95.001 161.088-160.961l1.137-2.117c37.629-63.21 59.872-139.38 59.872-220.745 0-.785-.002-1.57-.006-2.354l.001.121z"/></svg>