<svg width="64" height="64" viewBox="0 0 1024 1024" xmlns="http://www.w3.org/2000/svg"><path d="M1024 282.603c.014-1.226.022-2.675.022-4.126 0-31.681-3.741-62.488-10.804-92.003l.542 2.682c-13.294-55.078-46.913-100.666-92.286-129.336l-.863-.509c-22.889-14.924-49.851-25.787-78.81-30.836l-1.282-.185c-19.749-3.583-42.778-5.89-66.252-6.392l-.485-.008c-1.707 0-3.542-.427-5.291-.555H255.424c-6.486.427-12.801.725-19.415 1.109-33.733.692-65.802 6.889-95.646 17.725l2.07-.657C86.707 60.881 43.127 103.293 20.706 156.771l-.523 1.407c-7.241 17.459-12.68 37.746-15.366 58.892l-.123 1.187C2.499 232.898.966 250.294.443 267.943l-.016.665c0 1.365-.299 2.646-.427 3.968v521.558c.427 5.974.725 12.076 1.152 18.092.846 36.717 8.608 71.396 22.028 103.099l-.693-1.842c25.987 58.216 75.693 101.859 136.497 119.113l1.498.363c16.069 4.727 34.868 8.18 54.217 9.67l.956.059c23.682 2.262 47.364 2.56 71.131 2.56h470.525a538.554 538.554 0 0069.689-4.556l-2.696.289c36.872-4.106 70.196-16.434 99.032-35.103l-.89.54c35.183-22.988 62.726-55.029 79.674-92.852l.546-1.364c7.064-16.338 12.574-35.351 15.621-55.176l.167-1.319c3.596-23.01 5.651-49.547 5.651-76.564 0-3.656-.038-7.304-.113-10.942l.009.544V282.603zM749.929 452.857v243.732c.035 1.054.054 2.293.054 3.537 0 17.38-3.857 33.86-10.762 48.629l.296-.706c-11.636 23.987-32.882 41.768-58.597 48.504l-.629.14c-13.497 4.01-29.118 6.658-45.242 7.367l-.415.015a77.118 77.118 0 01-4.098.105c-44.092 0-79.836-35.744-79.836-79.836 0-31.625 18.388-58.955 45.056-71.882l.475-.208c12.52-5.962 27.075-10.752 42.303-13.646l1.136-.179c16.129-3.499 32.344-6.529 48.388-10.241 11.25-1.911 19.982-10.731 21.742-21.868l.019-.149c.543-2.42.854-5.2.854-8.053v-.192-232.244a30.942 30.942 0 00-1.162-8.112l.053.218c-1.113-5.735-6.095-10.006-12.075-10.006-.255 0-.509.008-.76.023l.035-.002c-7.576.554-14.51 1.554-21.28 2.997l1.011-.181q-48.644 9.601-97.288 19.458l-157.88 31.917c-.683 0-1.365.427-2.048.555-9.491 1.287-16.729 9.338-16.729 19.079 0 .644.032 1.281.093 1.909l-.006-.079v338.375c.04 1.213.063 2.638.063 4.069 0 17.389-3.392 33.985-9.552 49.164l.314-.876c-11.28 26.204-33.783 45.72-61.287 52.691l-.628.135c-13.595 4.089-29.301 6.729-45.528 7.329l-.342.01c-1.32.079-2.863.124-4.416.124-38.946 0-71.268-28.357-77.448-65.549l-.063-.458c-.837-4.333-1.315-9.317-1.315-14.413 0-33.513 20.705-62.19 50.02-73.938l.536-.19c13.445-5.417 29.314-10.003 45.739-12.995l1.539-.233c12.246-2.56 24.535-4.95 36.696-7.553 14.565-2.154 25.616-14.569 25.616-29.565 0-.317-.005-.633-.015-.948l.001.046v-6.401-378.997l-.001-.29a68.04 68.04 0 011.887-15.962l-.094.463c2.811-11.28 11.817-19.886 23.112-22.073l.186-.03c10.881-2.816 21.975-4.779 33.027-7.041 31.277-6.401 62.555-12.801 93.874-18.946l96.861-19.628c28.589-5.718 57.178-11.521 85.767-17.068 7.731-1.787 17.384-3.38 27.199-4.425l1.134-.098a20.405 20.405 0 012.605-.162c11.51 0 20.861 9.244 21.034 20.713v.016c.326 2.839.512 6.129.512 9.463v.056-.003 244.586z"/></svg>