<svg width="64" height="64" viewBox="0 0 857 857" xmlns="http://www.w3.org/2000/svg"><path d="M857.225 602.024c-19.227 58.646-44.917 109.606-76.993 155.795l1.286-1.956Q702.124 876.49 623.378 876.49c-31.551-2.225-60.854-9.257-88.049-20.381l1.897.686c-27.4-11.406-59.166-18.535-92.451-19.682l-.46-.013c-31.882 1.244-61.741 8.597-88.868 20.914l1.487-.604c-23.722 11.493-51.385 19.007-80.582 20.89l-.655.034q-93.525 0-185.242-159.369C36.298 630.577 3.057 524.179.019 410.25l-.018-.84a351.49 351.49 0 01-.323-15.348c0-80.744 26.202-155.368 70.567-215.833l-.714 1.02c39.241-54.026 102.206-88.752 173.283-88.752.52 0 1.04.002 1.559.006h-.079c39.322 1.322 76.608 7.978 111.819 19.269l-2.899-.803c24.644 8.589 53.435 15.083 83.213 18.28l1.745.152c32.373-2.861 62.23-10.288 90.051-21.668l-2.056.744c31.479-11.895 67.865-19.441 105.811-20.904l.651-.02c.887-.013 1.934-.02 2.983-.02 47.912 0 92.326 14.977 128.815 40.505l-.726-.481c24.416 17.737 45.483 37.991 63.492 60.773l.508.667c-26.465 21.323-49.54 45.178-69.409 71.582l-.735 1.02c-25.024 35.135-40.007 78.932-40.007 126.228 0 .407.001.814.003 1.22v-.063c-.01.791-.015 1.724-.015 2.659 0 50.392 15.905 97.07 42.968 135.287l-.491-.73c22.614 35.938 56.155 63.209 95.905 77.416l1.307.408zm-231.39-721.852c-.837 30.38-7.32 59.025-18.431 85.232l.579-1.537C594.211-2.95 574.854 25.33 550.821 48.849l-.045.044c-18.038 19.29-40.27 34.423-65.262 43.972l-1.196.401c-18.64 5.11-40.484 8.824-62.921 10.385l-1.079.06c-.002-.358-.003-.781-.003-1.205 0-58.556 17.938-112.922 48.618-157.904l-.624.969c37.29-47.519 90.968-80.7 152.399-91.038l1.439-.2c.554 1.822 1.088 4.124 1.486 6.472l.05.355a59.356 59.356 0 001.643 7.251l-.107-.424q0 2.458.307 6.144t.307 6.042z"/></svg>