<svg width="64" height="64" viewBox="0 0 1026 1026" xmlns="http://www.w3.org/2000/svg"><path d="M825.726 1046.905H671.76a52.13 52.13 0 01-5.949.329c-22.676 0-42.081-14.006-50.035-33.839l-.128-.363c-56.967-113.977-118.896-226.158-170.517-344.113-38.17-80.414-60.458-174.724-60.458-274.24 0-127.658 36.676-246.75 100.066-347.314l-1.587 2.697c7.1-12.018 22.239-26.73 33.83-26.73s25.362 16.038 31.648 28.484q232.83 465.746 466.174 931.834c23.18 44.522 12.488 62.784-38.705 63.254zm-623.261 0H44.351c-44.479 0-54.316-17.834-34.728-57.01q119.751-236.851 237.321-472.803c21.384-44.522 38.278-44.522 68.087-7.57 78.182 90.82 125.791 209.902 125.791 340.104 0 48.963-6.733 96.354-19.323 141.296l.88-3.679c-14.712 56.54-22.753 60.089-79.72 60.089z"/></svg>