<svg width="64" height="64" viewBox="0 0 1024 1024" xmlns="http://www.w3.org/2000/svg"><path d="M522.581 306.551c-27.989 114.961-26.18 108.783-51.575 213.948-.566 9.685-8.558 17.325-18.334 17.325-1.084 0-2.145-.094-3.177-.274l.11.016h-28.809c-.864.155-1.859.244-2.875.244-8.645 0-15.789-6.428-16.913-14.765l-.01-.088c-24.61-78.78-57.583-188.143-79.77-261.325-8.192-26.999-2.799-26.385 18.603-25.805 7.407.205 14.609 0 21.982 0a16.04 16.04 0 011.735-.091c8.358 0 15.275 6.168 16.448 14.2l.011.09c7.202 25.805 11.981 45.602 53.18 208.213.785 3.209 1.809 6.212 2.799 9.182h2.185c.99-3.994 2.185-7.782 3.209-11.81q23.381-98.679 46.592-197.564c4.813-20.48 13.38-22.391 34.133-22.391h15.189c13.653.205 17.988 3.004 21.402 16.589 11.981 46.797 47.002 203.537 53.385 220.74 10.24-36.591-3.584 15.804 57.003-217.941 4.198-16.179 8.192-19.388 24.61-19.388h25.225c10.786.205 13.995 3.584 11.401 14.199-4.813 19.012-5.803 19.797-82.569 265.728-6.212 19.797-8.397 21.606-29.184 21.606H597.37c-14.609 0-18.398-2.594-21.982-16.794-8.602-32.393-46.592-191.351-52.804-213.743zm-271.53 222.345c2.887 5.937 8.873 9.957 15.797 9.957 4.843 0 9.227-1.966 12.397-5.143l12.595-8.397c13.653-9.011 14.609-12.595 7.202-26.999-7.946-15.091-12.61-32.977-12.61-51.952 0-.648.005-1.294.016-1.939l-.001.097c0-6.212 1.195-111.377-1.809-133.564-2.634-37.125-28.355-67.589-62.777-77.268l-.609-.146c-15.062-4.176-32.358-6.576-50.215-6.576-5.393 0-10.734.219-16.016.648l.694-.045c-31.399 1.253-60.594 9.557-86.407 23.359l1.073-.524c-3.868 2.097-6.784 5.535-8.157 9.676l-.035.121c-1.104 5.043-1.736 10.837-1.736 16.778 0 2.613.122 5.198.362 7.749l-.025-.326c1.195 11.81 5.188 13.995 16.384 10.24 10.24-3.413 20.002-7.782 30.208-10.786 14.718-5.473 31.721-8.639 49.464-8.639 13.772 0 27.099 1.908 39.73 5.474l-1.028-.248c13.53 4.064 24.063 14.261 28.514 27.278l.09.302c3.305 11.007 5.207 23.656 5.207 36.75 0 4.03-.18 8.017-.533 11.955l.037-.508c0 10.991-.205 10.991-10.991 9.011-18.337-4.573-39.387-7.197-61.05-7.197-7.996 0-15.908.357-23.722 1.057l1.009-.073c-30.969 2.273-58.033 17.304-76.231 39.801l-.159.203c-11.098 15.376-17.75 34.601-17.75 55.38 0 8.387 1.084 16.52 3.119 24.268l-.148-.664c4.434 29.084 25.078 52.4 52.274 60.653l.53.138c11.955 4.266 25.745 6.731 40.111 6.731 28.479 0 54.695-9.688 75.532-25.948l-.273.205c7.612-5.598 14.404-12.39 22.187-19.012 6.212 10.001 11.605 19.388 17.783 27.989zm-30.72-123.188l.199-.002a8.567 8.567 0 018.392 10.297l.009-.055c-.41 7.612.205 15.189-.614 22.801a60.751 60.751 0 01-35.424 49.646l-.382.154c-12.524 6.579-27.364 10.44-43.105 10.44-3.199 0-6.361-.159-9.478-.471l.393.032c-22.555-1.319-40.346-19.932-40.346-42.7 0-3.512.423-6.926 1.222-10.192l-.061.293c1.125-23.396 19.641-42.125 42.842-43.582l.132-.007c8.949-1.439 19.266-2.261 29.774-2.261 16.571 0 32.665 2.044 48.043 5.894l-1.359-.288zm697.446 130.185c35.179-11.818 60.072-44.492 60.072-82.979 0-6.014-.608-11.887-1.766-17.559l.096.562c-4.566-27.846-24.064-50.211-49.856-58.83l-.525-.152c-38.908-12.195-70.772-24.54-101.676-38.626l5.488 2.24c-8.906-4.479-14.96-13.453-15.189-23.863l-.001-.03a33.5 33.5 0 01-.397-5.222c0-17.871 13.571-32.572 30.97-34.36l.147-.012c9.002-2.115 19.339-3.327 29.959-3.327 9.278 0 18.34.925 27.099 2.689l-.874-.147c14.609 2.799 28.604 8.397 42.803 12.595 5.598 1.809 11.81 4.198 15.599-3.209 1.972-4.133 3.124-8.982 3.124-14.101 0-12.71-7.103-23.761-17.556-29.4l-.177-.087c-21.085-10.056-45.824-15.929-71.934-15.929-23.295 0-45.499 4.675-65.724 13.137l1.125-.417c-30.93 12.302-52.397 41.98-52.397 76.672 0 33.248 19.716 61.89 48.094 74.874l.514.211c15.394 7.407 32.188 11.81 48.401 17.783s32.393 11.605 48.196 18.193c10.932 6.06 18.21 17.531 18.21 30.702 0 12.191-6.235 22.926-15.691 29.189l-.13.081c-55.398 30.72-129.707-4.813-138.377-7.612-6.588-2.185-10.581.41-12.595 7.407-1.628 3.799-2.575 8.221-2.575 12.864 0 15.749 10.894 28.953 25.558 32.487l.228.046c22.639 9.085 48.883 14.355 76.359 14.355 23.305 0 45.725-3.792 66.676-10.792l-1.484.43zM592.043 861.218c106.587-11.44 203.365-44.903 288.557-95.759l-3.236 1.79c16.009-9.387 30.993-20.48 46.182-31.403 14.609-10.24 6.383-36.796-22.596-24.405-100 43.922-216.14 71.972-338.118 77.708l-2.192.082c-12.79.621-27.777.975-42.847.975-49.166 0-97.452-3.767-144.585-11.029l5.262.667c-133.001-19.163-252.751-62.223-359.622-124.88l4.636 2.512c-3.738-2.501-8.056-4.549-12.667-5.921l-.338-.086c-9.796-2.185-15.394 9.387-4.813 19.388 130.958 121.081 306.75 195.345 499.889 195.345h.605-.031c28.809-1.604 57.583-1.809 85.982-4.983zm349.32-184.32c29.594 1.604 38.775 11.81 31.403 40.38-7.612 29.594-18.603 58.402-27.785 87.586-1.809 5.803-8.397 12.595-1.604 17.613 7.407 5.188 13.005-2.014 17.988-6.588 19.399-18.465 34.709-41.036 44.56-66.336l.428-1.248c11.003-24.075 17.417-52.222 17.417-81.867 0-.667-.003-1.333-.01-1.998l.001.102c-.41-12.39-3.584-17.613-15.599-20.992-9.549-2.964-20.762-5.218-32.31-6.329l-.697-.054c-7.796-.967-16.819-1.519-25.971-1.519-35.678 0-69.397 8.388-99.292 23.299l1.291-.583c-6.609 3.586-12.311 7.501-17.56 11.935l.152-.125c-2.185 1.809-6.383 10.581 4.813 12.186a47.48 47.48 0 0012.101-.659l-.291.045c22.445-3.215 48.366-5.051 74.716-5.051 5.714 0 11.407.086 17.079.258l-.83-.02z"/></svg>