<svg width="64" height="64" viewBox="0 0 1331 1331" xmlns="http://www.w3.org/2000/svg"><path d="M1178.368 485.159H852.531v79.104h325.837zm-160.666 271.616c-2.312-.153-5.011-.24-7.732-.24-68.854 0-124.692 55.725-124.876 124.536v.018h260.198c.12-1.998.189-4.333.189-6.685 0-65.292-52.929-118.221-118.221-118.221-3.364 0-6.696.141-9.989.416l.431-.029zm10.24 372.992c28.588-.155 55.374-7.731 78.571-20.897l-.798.417c22.876-11.311 40.204-30.938 48.241-54.834l.194-.667h140.902c-29.934 113.836-131.931 196.434-253.219 196.434-6.708 0-13.357-.253-19.938-.749l.876.053a276.39 276.39 0 01-13.869.336c-79.439 0-151.332-32.306-203.258-84.496l-.012-.012c-50.152-58.659-80.671-135.409-80.671-219.288 0-85.258 31.531-163.152 83.569-222.656l-.338.395c51.603-54.149 124.273-87.822 204.808-87.822 3.418 0 6.822.061 10.211.181l-.491-.014c1.851-.045 4.03-.071 6.216-.071 54.791 0 105.783 16.263 148.413 44.225l-1.029-.633c42.529 28.077 75.952 66.811 96.902 112.459l.685 1.666c20.372 44.922 32.244 97.409 32.244 152.668 0 1.912-.014 3.82-.043 5.725l.003-.288q0 10.854-1.28 30.003H885.042a147.613 147.613 0 00-.323 9.915c0 38.088 13.961 72.915 37.044 99.644l-.165-.195c25.009 23.919 58.986 38.641 96.402 38.641 3.444 0 6.859-.125 10.24-.37l-.453.026zm-851.302-32.052h188.723q130.714 0 130.714-106.394 0-114.79-126.874-114.79H176.64zm0-342.425h179.2c2.013.118 4.367.186 6.737.186 27.069 0 52.085-8.789 72.35-23.669l-.341.239c18.002-16.062 29.282-39.329 29.282-65.23 0-2.559-.11-5.092-.326-7.594l.023.325q0-91.802-121.139-91.853H176.64zM0 430.784h378.88c1.594-.019 3.476-.029 5.361-.029 33.059 0 65.358 3.254 96.594 9.458l-3.138-.52c30.424 6.278 57.428 16.772 81.994 31.007l-1.302-.696c24.848 14.436 44.499 35.419 56.921 60.606l.372.834c12.736 26.855 20.173 58.348 20.173 91.579 0 2.347-.037 4.685-.111 7.015l.009-.34c.057 1.666.089 3.623.089 5.588 0 73.08-44.887 135.676-108.594 161.721l-1.166.422c45.3 11.179 83.271 37.326 109.297 72.785l.373.533c23.236 34.484 37.089 76.964 37.089 122.68 0 2.591-.044 5.172-.133 7.741l.01-.373c.013.917.02 1.999.02 3.083 0 30.197-5.739 59.053-16.186 85.538l.55-1.581c-9.99 25.657-24.261 47.609-42.135 66.047l.048-.05a242.023 242.023 0 01-61.401 44.628l-1.37.633c-22.254 11.57-48.062 20.825-75.203 26.439l-1.956.338c-25.076 5.213-53.893 8.197-83.406 8.197-.72 0-1.439-.002-2.158-.005H0z"/></svg>