<svg width="64" height="64" viewBox="0 0 1139 1139" xmlns="http://www.w3.org/2000/svg"><path d="M36.926 136.333c-.142-.002-.31-.003-.478-.003C16.482 136.33.266 152.382 0 172.284v.025c-.002.123-.002.268-.002.413 0 2.05.174 4.059.507 6.014l-.03-.21 154.87 940.419c4.088 23.479 24.199 41.141 48.48 41.387h743.049l.396.002c18.125 0 33.176-13.16 36.119-30.446l.03-.216 155.202-950.671c.299-1.754.47-3.774.47-5.835 0-18.068-13.146-33.066-30.395-35.95l-.213-.029c-1.66-.308-3.57-.484-5.521-.484-.278 0-.555.004-.832.011l.041-.001zm652.227 679.518H451.841l-64.074-335.274H746.63z"/></svg>