<svg width="64" height="64" viewBox="0 0 1165 1165" xmlns="http://www.w3.org/2000/svg"><path d="M1142.566 662.467c-59.89-57.609-359.485-93.523-453.979-103.958 3.961-8.972 7.963-20.114 11.257-31.556l.488-1.981c10.884-4.993 24.543-10.184 38.557-14.573l2.648-.715c1.747 5.193 10.046 24.995 14.56 34.41 190.104 5.242 199.859-141.231 207.576-181.417 5.443-58.276 32.204-109.435 72.299-146.327l.161-.146c-97.066-28.343-236.842 43.68-283.627 151.326-14.931-5.908-32.608-10.955-50.882-14.291l-1.776-.269c-29.644-110.566-128.953-190.641-246.964-190.641l-1.302.003h.067c-118.994 1.518-226.617 48.975-306.201 125.409l.152-.145c-43.985 41.896-79.517 92.217-104.073 148.43l-1.146 2.945C14.841 497.727-.017 566.167-.017 638.078c0 1.528.007 3.054.02 4.578l-.002-.234c0 253.683 173.166 476.013 271.009 476.013 39.825-.601 73.742-25.265 87.904-60.07l.232-.645c7.231 19.704 29.411 80.808 36.691 96.338 10.774 23.053 60.618 42.952 82.506 19.025 12.558 8.534 28.055 13.625 44.741 13.625 25.333 0 47.926-11.735 62.638-30.066l.122-.157c7.434 2.534 15.998 3.996 24.904 3.996 38.155 0 70.04-26.848 77.794-62.683l.095-.524c26.499-1.407 39.506-38.826 33.731-68.238-20.233-48.792-42.89-90.594-69.249-129.694l1.643 2.586c35.187 28.635 124.342 36.691 135.116 0 56.735 44.505 145.163 21.209 152.151-15.045 68.966 17.909 147.977-21.452 135.019-69.063 110.753-7.668 96.581-125.458 65.52-155.306zM854.183 467.169c-27.262-10.805-58.814-17.504-91.803-18.481l-.41-.01c-36.74 0-59.162 20.821-93.766 20.821-1.294.05-2.813.078-4.339.078-12.189 0-23.958-1.802-35.054-5.154l.857.222c9.447 9.347 22.445 15.122 36.792 15.122 2.033 0 4.04-.116 6.013-.342l-.241.022c22.502-2.44 43.036-7.14 62.587-13.943l-1.969.596c.291 4.465.777 8.833 1.407 13.25-35.49 10.625-66.391 24.646-94.895 42.184l1.711-.98c-7.55-16.447-11.952-35.682-11.952-55.945 0-32.154 11.084-61.719 29.64-85.082l-.216.282c76.562 5.34 144.69 37.667 195.752 87.424l-.066-.064zm41.204-4.416l-14.56-13.638a425.82 425.82 0 00-45.277-37.067l-1.315-.886c23.138-50.956 53.985-94.402 91.579-130.943l.1-.097c-48.548 26.801-86.002 68.646-106.588 119.16l-.573 1.59c-10.419-6.772-22.769-13.766-35.534-20.047l-2.177-.968c37.402-76.504 111.506-129.95 198.744-137.575l.922-.065c-58.24 52.804-36.351 158.121-85.418 220.534zm-119.634 49.358c-7.041-14.804-11.441-32.092-12.126-50.331l-.007-.24c12.667.558 24.622 2.191 36.198 4.82l-1.352-.258c-1.025 6.488-1.723 14.148-1.936 21.93l-.005.25c2.038-3.543 7.765-15.725 10.095-20.578 24.224 4.212 45.736 10.479 66.183 18.819l-2.119-.765c-26.889 16.55-59.465 26.354-94.331 26.354l-.632-.001h.032zm-343.226-94.737c-23.539-8.445-23.539-29.654 0-38.098s53.095 2.184 53.095 19.025-29.557 27.47-53.095 19.025zm78.43 7.863v-.061c0-33.559-27.205-60.763-60.763-60.763s-60.763 27.205-60.763 60.763c0 22.372 12.091 41.921 30.095 52.467l.287.155c8.696 5.07 19.141 8.063 30.285 8.063 33.539 0 60.747-27.108 60.908-60.609v-.015zm135.067-76.44c-29.742 31.384-48.031 73.88-48.031 120.649 0 36.451 11.11 70.307 30.128 98.366l-.394-.616c-48.01 67.877-120.628 115.61-204.611 130.28l-1.897.274c6.003.402 13.012.632 20.075.632 64.951 0 125.371-19.399 175.783-52.72l-1.191.74c15.67-11.472 28.935-25.092 39.673-40.596l.367-.561c150.195 10.899 289.677 36.997 423.155 76.988l-13.827-3.558c10.642 7.892 18.054 19.618 20.2 33.1l.038.291c-112.354-15.725-314.883-32.275-367.881-35.089 37.662 5.339 312.213 57.318 359.824 69.499-15.584 20.696-40.108 33.938-67.725 33.938-10.535 0-20.62-1.927-29.922-5.448l.582.193c26.887 36.594-25.286 80.516-97.988 56.347 16.016 35.963-48.533 68.286-122.255 30.867.922 35.963-91.291 40.088-127.691.34 1.881 6.827 4.232 12.743 7.135 18.325l-.243-.513c-9.447 95.372-88.954 169.338-185.867 169.963h-.064c-223.133-1.18-403.561-182.337-403.561-405.634 0-.906.003-1.812.009-2.717l-.001.139c0-246.354 182.096-430.197 401.806-430.197.324-.002.708-.003 1.092-.003 88.726 0 164.294 56.34 192.88 135.196l.452 1.428z"/></svg>