<svg width="64" height="64" viewBox="0 0 1331 1331" xmlns="http://www.w3.org/2000/svg"><path d="M915.712 1102.835c3.026-8.265 4.777-17.808 4.777-27.759 0-16.805-4.991-32.444-13.572-45.515l.194.315c-13.679-17.636-34.873-28.877-58.693-28.877h-.251.013l-480.307-6.246h-.089a8.85 8.85 0 01-7.315-3.861l-.02-.03a10.645 10.645 0 01-1.595-5.635c0-1.057.152-2.078.437-3.043l-.019.076c1.775-4.761 6.098-8.174 11.268-8.598l.047-.003 484.403-6.246c64.196-7.147 117.281-48.406 141.192-104.999l.427-1.139 27.955-71.987c.74-1.737 1.17-3.758 1.17-5.879 0-1.238-.146-2.442-.423-3.595l.021.105c-32.626-142.167-158.057-246.601-307.881-246.601-137.983 0-255.277 88.58-298.119 211.976l-.669 2.215c-23.428-17.758-53.067-28.447-85.203-28.447-73.289 0-133.594 55.591-141.049 126.906l-.052.612c-.441 4.299-.692 9.29-.692 14.339 0 12.502 1.54 24.645 4.442 36.248l-.217-1.026C87.06 899.336.052 988.324.052 1097.634v.248-.013a248.18 248.18 0 002.132 30.486l-.135-1.25c.714 4.614 4.622 8.116 9.362 8.192h886.434a12.042 12.042 0 0011.293-8.516l.022-.085zm152.934-308.633c-4.301 0-8.96 0-13.261.358a7.898 7.898 0 00-6.999 5.423l-.016.056-18.739 65.178c-3.026 8.265-4.777 17.808-4.777 27.759 0 16.805 4.991 32.444 13.572 45.515l-.194-.315c13.679 17.636 34.873 28.877 58.693 28.877h.251-.013l102.4 6.246h.089a8.85 8.85 0 017.315 3.861l.02.03a10.889 10.889 0 011.574 5.673 11 11 0 01-.416 3.006l.019-.078c-1.775 4.761-6.098 8.174-11.268 8.598l-.047.003-106.496 6.246c-64.29 6.894-117.518 48.12-141.449 104.746l-.426 1.135-7.782 19.917a5.53 5.53 0 00-.429 2.157 5.633 5.633 0 005.921 5.625l-.013.001h365.978l.143.001c4.377 0 8.068-2.937 9.21-6.948l.016-.068c6.144-21.279 9.693-45.725 9.728-70.995v-.02c-.087-144.825-117.511-262.195-262.349-262.195h-.216.011z"/></svg>