<svg width="64" height="64" viewBox="0 0 1024 1024" xmlns="http://www.w3.org/2000/svg"><path d="M1024 1045.333H0v-1024h1024v1024zm-606.345-716.8a200.606 200.606 0 00-7.092-.121c-59.079 0-112.427 24.542-150.404 63.986l-.063.066c-34.307 37.648-55.318 87.934-55.318 143.128 0 1.066.008 2.13.023 3.192l-.002-.16c-.04 1.502-.062 3.27-.062 5.043 0 113.278 91.83 205.107 205.107 205.107 3.155 0 6.294-.071 9.414-.212l-.443.016c1.604.044 3.493.069 5.387.069 49.518 0 95.063-17.007 131.114-45.498l-.445.339c32.597-26.899 55.547-64.457 63.519-107.282l.174-1.126h-98.133c-12.668 41.081-50.295 70.417-94.774 70.417-2.046 0-4.078-.062-6.094-.184l.277.013c-.593.011-1.293.017-1.995.017-33.755 0-64.188-14.218-85.639-36.992l-.055-.059c-20.687-23.066-33.335-53.71-33.335-87.309 0-.83.008-1.657.023-2.483l-.002.124c-.013-.7-.021-1.524-.021-2.351 0-32.795 11.814-62.831 31.418-86.084l-.165.201c20.945-23.711 51.421-38.587 85.371-38.587 1.187 0 2.37.018 3.548.054l-.173-.004c1.018-.035 2.214-.055 3.415-.055 25.389 0 48.702 8.89 66.995 23.728l-.198-.155c16.862 14.804 28.604 35.077 32.449 58.027l.08.58h96.427c-5.199-46.87-27.372-87.765-60.136-117.058l-.177-.156c-35.85-30.071-82.485-48.336-133.387-48.336a212 212 0 00-6.965.114l.337-.009zm312.935 9.353l-58.948 25.259 73.865 172.749-73.899 172.817 58.982 25.19 49.596-116.77.239.546 34.304-81.92z"/></svg>