<svg width="64" height="64" viewBox="0 0 1024 1024" xmlns="http://www.w3.org/2000/svg"><path d="M123.426 689.322l344.576 229.717V713.898l-190.874-127.42zm-35.43-82.261l110.285-73.728-110.285-73.728zM555.998 919.04l344.576-229.717-153.6-102.844-190.976 127.42zM512 637.337l155.443-104.004L512 429.329 356.557 533.333zM277.129 480.324l190.874-127.556V147.627L123.427 377.344zm548.59 53.009l110.285 73.728V459.605zm-78.848-53.146l153.6-102.844-344.474-229.717v205.141zM1024 377.344v311.979c.012.378.019.823.019 1.27 0 14.782-7.683 27.77-19.274 35.187l-.167.1-468.002 312.013c-6.909 4.653-15.418 7.427-24.576 7.427s-17.667-2.774-24.735-7.528l.159.101L19.422 725.914C7.663 718.396-.02 705.409-.02 690.626c0-.458.007-.915.022-1.369l-.002.066V377.344c-.013-.388-.02-.845-.02-1.303 0-14.782 7.684-27.77 19.275-35.188l.167-.1L487.424 28.774c6.909-4.653 15.418-7.427 24.576-7.427s17.667 2.774 24.735 7.528l-.159-.101 468.002 311.979c11.759 7.518 19.442 20.505 19.442 35.288 0 .458-.007.915-.022 1.369l.002-.066z"/></svg>