<svg width="64" height="64" viewBox="0 0 1024 1024" xmlns="http://www.w3.org/2000/svg"><path d="M84.685 486.468h64l-9.933 37.751c-2.76 10.123-11.872 17.443-22.693 17.443l-.185-.001H86.119c-16.092.561-28.924 13.741-28.924 29.918s12.832 29.357 28.873 29.916l.051.001H104.307c5.806 0 10.513 4.707 10.513 10.513 0 .984-.135 1.936-.388 2.839l.018-.074-11.435 41.813H83.167c-45.922 0-83.149-37.227-83.149-83.149a83.286 83.286 0 012.881-21.779l-.134.582c8.519-37.891 41.88-65.775 81.754-65.775h.175-.009zm32.324 170.12l55.842-208.213c2.669-10.111 11.733-17.445 22.51-17.445.126 0 .253.001.379.003h59.244c39.882 0 73.228 27.987 81.468 65.392l.102.553c1.245 5.493 1.958 11.801 1.958 18.275 0 47.09-37.735 85.366-84.616 86.24l-.082.001h-51.2l10.24-38.093c2.869-10.043 11.966-17.272 22.751-17.272h16.605c.301.011.655.017 1.011.017 16.533 0 29.935-13.402 29.935-29.935s-13.402-29.935-29.935-29.935c-.355 0-.709.006-1.062.018l.051-.001h-31.676l-41.267 152.951c-3.019 9.899-12.038 16.991-22.724 17.067h-39.535zM470.05 545.143c.478-1.604 3.038-8.465-3.413-8.465H374.33c-12.932 0-23.415-10.483-23.415-23.415 0-2.198.303-4.326.869-6.343l-.04.165 5.598-21.436h124.553c26.012.003 47.098 21.091 47.098 47.104 0 4.185-.546 8.242-1.57 12.105l.074-.329-22.391 82.91c-4.428 16.532-19.276 28.506-36.92 28.506-.22 0-.441-.002-.66-.006h.033l-92.16-.307c-68.642 0-61.611-102.093 1.126-102.093h78.063l-5.598 21.129c-2.947 9.985-11.987 17.167-22.721 17.271h-34.657a6.315 6.315 0 000 12.63h55.842c7.373 0 8.158-6.246 8.806-8.465l13.653-50.893zm164.864-58.982l.479-.001c45.79 0 82.91 37.12 82.91 82.91a82.974 82.974 0 01-3.041 22.328l.139-.583-14.097 52.975c-1.94 7.247-8.448 12.496-16.182 12.496l-.321-.003h-30.704a9.477 9.477 0 01-.464.011c-5.655 0-10.24-4.585-10.24-10.24 0-1.088.17-2.137.484-3.121l-.02.073 17.067-64c.671-2.354 1.057-5.058 1.057-7.853 0-16.401-13.295-29.696-29.696-29.696l-.358.002h-31.658l-27.511 102.4c-1.978 7.253-8.507 12.497-16.261 12.497-.139 0-.278-.002-.417-.005h-30.318c-5.806 0-10.513-4.707-10.513-10.513 0-.984.135-1.936.388-2.839l-.018.074 41.916-157.013h77.312zm161.895 60.382l-12.8 48.026a8.263 8.263 0 00-.305 2.253 8.465 8.465 0 008.463 8.465h117.316l-9.114 33.621c-3.019 9.899-12.038 16.991-22.724 17.067H771.072l-.316.001c-25.732 0-46.592-20.86-46.592-46.592 0-4.323.589-8.508 1.69-12.48l-.078.328 17.271-63.898c7.606-27.48 32.369-47.329 61.776-47.377h75.844c25.826 0 46.763 20.936 46.763 46.763 0 4.31-.583 8.483-1.674 12.446l.077-.328-5.12 19.217c-4.432 16.342-19.132 28.164-36.593 28.164a36.4 36.4 0 01-.573-.004h-85.304l5.598-20.787c2.69-10.019 11.691-17.274 22.386-17.274.122 0 .244.001.365.003h34.559a6.043 6.043 0 006.239-4.773l.007-.04 1.126-4.164a6.45 6.45 0 00-6.221-8.158H809.575a11.41 11.41 0 00-.943-.038c-5.738 0-10.515 4.116-11.539 9.556l-.011.073zm112.332 109.465l56.969-212.992c2.022-7.333 8.632-12.63 16.48-12.63l.187.001h30.233l.187-.002c5.769 0 10.445 4.676 10.445 10.445 0 1.009-.143 1.985-.41 2.909l.018-.074-42.394 157.013c-8.515 32.02-37.245 55.228-71.396 55.228l-.3-.001h.015z"/></svg>