<svg width="64" height="64" viewBox="0 0 908 908" xmlns="http://www.w3.org/2000/svg"><path d="M826.279 819.363l81.607-914.03H0l1.058 11.843 80.447 902.323.683 7.509L450.53 929.333h5.802L825.528 826.94l.683-7.509zM454.728 104.966h263.799l-7.953 92.154-260.249 115.704 4.369 20.82h244.242l-28.124 322.163-217.005 60.173-216.937-60.071-13.652-154.272h89.321l7.168 78.228.683 7.577 131.643 34.984h5.666l130.176-36.179.648-7.543 12.287-144.477.99-11.775H215.778l-8.123-92.734 269.192-115.226-4.266-20.888H196.119l-7.884-88.741h266.222z"/></svg>