<svg width="64" height="64" viewBox="0 0 1024 1024" xmlns="http://www.w3.org/2000/svg"><path d="M600.235 504.021c-.297-.002-.648-.004-1-.004-73.049 0-132.267 59.218-132.267 132.267s59.218 132.267 132.267 132.267c2.618 0 5.219-.076 7.799-.226l-.357.017h-.683c69.161-1.013 124.838-57.315 124.838-126.622 0-1.085-.014-2.166-.041-3.244l.003.16c.047-1.31.074-2.85.074-4.395 0-71.965-58.339-130.304-130.304-130.304l-.438.001h.023zM0 21.333v1024h1024v-1024zm882.901 887.765H730.325v-60.032c-37.65 38.847-90.309 62.957-148.599 62.957-3.485 0-6.95-.086-10.392-.257l.484.019c-1.318.026-2.872.041-4.43.041-63.006 0-120.385-24.09-163.429-63.563l.179.162c-57.666-50.098-93.915-123.546-93.915-205.46 0-1.808.018-3.613.053-5.413l-.004.27c-.003-.455-.004-.993-.004-1.532 0-77.987 32.919-148.285 85.619-197.757l.145-.135c45.134-45.59 107.73-73.819 176.919-73.819.577 0 1.153.002 1.729.006h-.088c3.088-.19 6.697-.299 10.332-.299 56.759 0 107.346 26.426 140.128 67.645l.281.366v-233.6l157.568-32.64v743.04z"/></svg>