<svg width="64" height="64" viewBox="0 0 960 960" xmlns="http://www.w3.org/2000/svg"><path d="M412.092 981.265l62.191-76.8c1.568.049 3.411.077 5.262.077 24.427 0 47.713-4.883 68.936-13.725l-1.186.438c45.877-24.279 76.601-71.707 76.601-126.31 0-.462-.002-.924-.007-1.385l.001.07c-.205-10.001-1.604-8.806-57.822-74.82h158.345c.502 7.392.788 16.023.788 24.721 0 45.378-7.79 88.936-22.105 129.41l.837-2.715c-36.324 73.992-106.118 126.705-189.089 138.662l-1.341.159c-17.408 2.185-65.604 2.389-101.41 2.185zm400.827-335.429c3.821.294 8.276.462 12.769.462 53.83 0 102.038-24.069 134.449-62.032l.204-.245-351.027-.614-34.816 62.601zm-87.21-447.829v336.725H578.697l-65.399 111.002h-13.005c-104.619 0-116.053-113.015-116.599-117.828-.908-10.384-9.562-18.47-20.105-18.47-11.143 0-20.177 9.033-20.177 20.177 0 .601.026 1.195.078 1.783l-.005-.076c4.412 44.734 23.731 84.28 52.848 114.256l-.044-.046H214.256C163.261 645.53-7.372 591.941.24 417.519V-9.011c0-32.017 19.422-33.109 30.003-33.621h164.011c.41 0 .614.205.99.205 8.636-.785 100.25-4.198 100.25 87.415 0 11.16 9.047 20.207 20.207 20.207s20.207-9.047 20.207-20.207c.068-1.523.106-3.31.106-5.105 0-31.73-12.056-60.644-31.838-82.41l.09.1H472.68c217.429-.785 253.03 158.822 253.03 240.435zM460.698 310.033l128 58.607c26.487-91.034-84.412-143.428-128-58.641z"/></svg>