<svg width="64" height="64" viewBox="0 0 896 896" xmlns="http://www.w3.org/2000/svg"><path d="M594.342 379.737c-2.307 27.024-24.812 48.085-52.236 48.085-28.948 0-52.416-23.467-52.416-52.416s23.467-52.416 52.415-52.416c29.134 1.242 52.283 25.162 52.283 54.49 0 .794-.017 1.583-.051 2.369l.004-.112zm-239.111-56.746c-29.335 2.594-52.165 27.048-52.165 56.836s22.831 54.242 51.948 56.82l.217.016c29.134-1.242 52.283-25.162 52.283-54.49 0-.794-.017-1.583-.051-2.369l.004.112c.048-.85.075-1.846.075-2.847 0-29.208-23.1-53.021-52.028-54.165l-.104-.003zm540.762-324.2v918.542c-128.993-114-87.748-76.249-237.557-215.546l27.149 94.706H104.952C46.957 796.34.001 749.291.001 691.274v-.252.013V-1.209v-.239c0-58.017 46.955-105.066 104.936-105.219h686.106c57.995.153 104.951 47.202 104.951 105.219v.252-.013zM750.065 484.18c-1.808-109.18-28.857-211.635-75.54-302.332l1.799 3.847c-39.403-31.173-89.081-50.969-143.257-53.735l-.61-.025-7.168 8.183c49.047 13.298 91.714 35.708 128.104 65.499l-.605-.48c-59.702-32.816-130.835-52.122-206.477-52.122-63.704 0-124.21 13.693-178.735 38.295l2.743-1.107c-18.935 8.691-30.195 14.933-30.195 14.933 37.699-30.788 82.863-54.003 132.278-66.565l2.389-.515-5.107-6.152c-54.785 2.791-104.464 22.587-144.398 54.165l.531-.405c-44.883 86.85-71.932 189.305-73.733 297.904l-.008.581c34.079 47.396 89.068 77.899 151.181 77.899 1.755 0 3.504-.024 5.247-.073l-.256.006s18.935-23.027 34.317-42.5c-36.966-9.535-67.921-31.008-89.291-59.983l-.308-.437c7.526 5.286 19.951 12.096 20.906 12.813 51.601 28.66 113.165 45.53 178.669 45.53 50.799 0 99.228-10.146 143.372-28.522l-2.471.912c22.51-8.599 41.904-18.758 59.884-30.859l-1.047.664c-22.436 29.989-54.467 51.72-91.481 60.701l-1.104.226c15.351 19.443 33.779 41.484 33.779 41.484 1.41.038 3.071.06 4.736.06 62.338 0 117.558-30.48 151.569-77.35l.374-.542z"/></svg>