<svg width="64" height="64" viewBox="0 0 1024 1024" xmlns="http://www.w3.org/2000/svg"><path d="M516.335 21.333a524.808 524.808 0 00-3.474-.012C233.028 21.321 5.53 245.397.008 523.908l-.008.516c0 8.909.239 520.909.239 520.909l516.13-.444c280.853-2.367 507.616-230.591 507.616-511.778S797.223 23.7 516.594 21.334l-.225-.001zM512 825.89l-.655.001c-44.924 0-87.467-10.197-125.44-28.403l1.747.754-185.378 45.943 52.361-171.418c-22.29-40.32-35.407-88.397-35.407-139.537 0-161.631 131.028-292.659 292.659-292.659S804.546 371.599 804.546 533.23c0 161.592-130.964 292.595-292.54 292.659H512z"/></svg>