<svg width="64" height="64" viewBox="0 0 1054 1054" xmlns="http://www.w3.org/2000/svg"><path d="M546.444 1075.333h-.604c-125.552 0-240.359-46-328.489-122.066l.647.546L0 983.688l84.22-207.937c-28.918-62.2-45.788-135.02-45.788-211.779 0-281.531 226.933-510.058 507.855-512.637l.244-.002c282.77 0 512 229.23 512 512s-229.23 512-512 512zm277.439-513.45v-1.45c0-147.748-104.254-253.056-283.898-253.056H346.063v512.088h191.11c181.006 0 286.666-109.834 286.666-257.582zm-281.833 131.8h-56.674V433.29h56.674c4.337-.535 9.358-.841 14.45-.841 68.812 0 124.595 55.783 124.595 124.595 0 1.98-.046 3.949-.138 5.906l.01-.277v1.318c.096 1.828.151 3.969.151 6.122 0 68.666-55.665 124.332-124.332 124.332a125.65 125.65 0 01-15.113-.909l.596.059z"/></svg>