<svg width="64" height="64" viewBox="0 0 1462 1462" xmlns="http://www.w3.org/2000/svg"><path d="M648.964 925.386V790.591H799.7v134.795zM799.7 459.333V598.71H648.964V459.333zm178.231 331.502V925.63H827.195V790.835zM621.518 626.352v137.086H470.782V626.352zm178.231 0v137.086H648.964V626.352zm632.925 228.2l29.689 20.573-20.573 39c-21.506 42.595-58.736 74.616-103.87 88.781l-1.235.334c-28.241 8.761-60.71 13.807-94.357 13.807-2.974 0-5.939-.039-8.894-.118l.436.009c-58.012 145.462-157.527 264.122-283.831 344.394l-2.918 1.733c-125.331 75.564-276.659 120.267-438.429 120.267-8.514 0-16.998-.124-25.453-.37l1.241.029q-251.308 0-379.277-150.785c-40.851-50.581-71.686-111.057-88.423-177.151l-.692-3.225C5.872 1114.955.001 1072.611.001 1028.896c0-23.53 1.701-46.663 4.987-69.282l-.307 2.577h993.872c1.883.057 4.098.089 6.321.089 37.772 0 73.363-9.338 104.589-25.833l-1.222.588c-17.764-28.533-28.296-63.168-28.296-100.263 0-6.529.326-12.982.963-19.343l-.065.802c2.072-44.222 15.406-84.938 37.172-119.854l-.61 1.049 22.864-31.98 31.98 22.864c48.616 32.698 82.93 83.456 93.408 142.454l.193 1.31c16.66-2.646 35.869-4.157 55.432-4.157 13.099 0 26.04.678 38.789 2l-1.595-.134c27.625 1.031 53.105 9.372 74.812 23.13l-.614-.363zM265.153 790.591v134.795H114.368V790.591zm178.231 0v134.795H292.697V790.591zm178.231 0v134.795H470.782V790.591zm-178.28-164.483v137.086H292.697V626.108z"/></svg>