<svg width="64" height="64" viewBox="0 0 1102 1102" xmlns="http://www.w3.org/2000/svg"><path d="M223.881 489.443l327.202 202.035-226.509 188.757L0 668.95zm653.073 367.65v71.68l-324.54 194.082v.478l-.649-.649-.649.649v-.649L227.225 928.602v-71.68l97.382 63.59 226.509-188.109v-1.331l.649.649.649-.649v1.331l227.191 188.109zM324.54 99.333L551.049 288.09 223.847 489.477.001 310.618zm553.745 390.11l223.881 179.507-323.891 211.285-227.191-188.757zM778.24 99.333l323.891 211.285L878.25 489.443 551.048 288.056z"/></svg>