<svg width="64" height="64" viewBox="0 0 945 945" xmlns="http://www.w3.org/2000/svg"><path d="M333.961 162.322c-25.581-5.433-54.974-8.543-85.093-8.543-32.106 0-63.387 3.535-93.474 10.237l2.849-.533c-45.043 8.894-82.548 35.753-105.42 72.638l-.393.68c-12.326 20.728-19.611 45.701-19.611 72.377 0 7.512.578 14.888 1.691 22.088l-.102-.803c5.988 41.281 19.716 78.397 39.715 111.278l-.735-1.301a16.98 16.98 0 005.155 5.182l.067.04c2.002 1.105 4.388 1.755 6.926 1.755.229 0 .457-.005.684-.016l-.032.001a12.197 12.197 0 008.728-4.051l.01-.011a12.195 12.195 0 004.061-8.72v-.019a12.916 12.916 0 00-.605-4.153l.025.091a9.33 9.33 0 01-.58-2.881l-.001-.02c-17.493-28.035-30.151-60.969-35.874-96.228l-.205-1.53c-.996-5.848-1.565-12.585-1.565-19.454 0-21.925 5.797-42.497 15.942-60.265l-.314.598c21.088-31.995 54.152-54.631 92.669-61.585l.856-.128c23.872-5.21 51.293-8.194 79.411-8.194s55.54 2.984 81.965 8.654l-2.554-.459a2.346 2.346 0 011.743.583l-.003-.002.58.58a13.408 13.408 0 009.896-4.059l.003-.003a13.613 13.613 0 004.063-9.718l-.001-.19v.01a14 14 0 00-2.926-9.35l.024.032a13.974 13.974 0 00-7.483-4.589l-.094-.019zm-190.84 372.361c29.156 30.661 59.911 59.026 92.435 85.287l1.807 1.412c30.966 25.052 65.529 49.076 101.789 70.534l4.024 2.204c41.962 24.339 91.112 47.463 142.277 66.439l6.784 2.203c40.357 15.427 87.941 28.19 137.147 36.098l4.233.561c20.934 3.542 45.05 5.566 69.638 5.566a442.69 442.69 0 0055.401-3.467l-2.16.222c35.4-4.032 67.383-15.853 95.117-33.705l-.875.527a27.166 27.166 0 003.994-5.102l.068-.121a12.086 12.086 0 001.741-6.287v-.101.005l.001-.181c0-3.802-1.554-7.241-4.062-9.717l-.001-.001a13.613 13.613 0 00-9.718-4.063l-.19.001h.01a8.924 8.924 0 00-3.454 1.183l.041-.023a13.733 13.733 0 00-3.422 2.329l.008-.008c-24.946 15.919-54.725 26.551-86.717 29.6l-.801.062c-13.612 1.576-29.385 2.475-45.367 2.475-24.669 0-48.838-2.142-72.331-6.25l2.498.362c-50.388-8.44-94.988-20.573-137.695-36.579l5.053 1.66c-53.364-19.516-99.029-41.666-142.045-67.748l3.566 2.007c-40.627-23.327-75.41-47.022-108.257-73.053l1.795 1.373c-33.47-26.472-63.306-54.102-90.871-83.864l-.47-.513a15.523 15.523 0 00-5.118-3.376l-.104-.037c-1.536-.68-3.322-1.101-5.2-1.16l-.022-.001-.181-.001a13.612 13.612 0 00-9.717 4.062l-.001.001a13.613 13.613 0 00-4.063 9.718l.001.19v-.01a10.211 10.211 0 001.187 4.698l-.027-.056zm673.758-17.442c38.464-41.817 68.356-92.174 86.475-147.844l.804-2.855c5.531-15.591 8.728-33.573 8.728-52.301 0-27.939-7.113-54.217-19.628-77.121l.421.841c-16.378-27.677-40.802-49.096-70.03-61.32l-.968-.359c-32.974-13.99-71.323-22.121-111.571-22.121-.46 0-.92.001-1.379.003h.071a11.612 11.612 0 00-9.305 4.046l-.013.015a14.599 14.599 0 00-3.413 9.923l-.001-.024a14.62 14.62 0 003.431 9.921l-.018-.022c2.148 2.499 5.312 4.072 8.843 4.072.167 0 .333-.004.499-.01l-.024.001c2.151-.067 4.682-.106 7.221-.106 33.471 0 65.387 6.661 94.494 18.729l-1.637-.601c25.356 10.505 46.049 28.01 60.208 50.103l.31.517c9.445 18.435 14.98 40.218 14.98 63.294 0 17.378-3.139 34.024-8.882 49.399l.319-.975c-17.674 53.2-44.912 98.986-79.976 137.523l.275-.307-2.321 4.642a10.102 10.102 0 00-1.16 4.637v.005l-.001.181c0 3.802 1.554 7.241 4.062 9.717l.001.001a13.613 13.613 0 009.718 4.063l.19-.001h-.01a9.383 9.383 0 005.831-1.76l-.028.019a30.363 30.363 0 014.47-2.821l.172-.081zM592.282 166.999c-50.918 12.058-94.401 26.229-136.291 43.478l5.97-2.176c-46.165 18.789-84.811 38.109-121.79 59.95l4.269-2.333c-50.876 29.388-94.833 60.742-135.524 95.783l1.141-.96c-37.355 31.886-70.563 66.545-100.059 104.247l-1.18 1.566C84.364 497.477 63.777 533.026 48.7 571.347l-.981 2.829c-9.151 22.163-14.464 47.896-14.464 74.87 0 8.911.58 17.686 1.704 26.29l-.108-1.013c.812 3.217 2.435 5.981 4.64 8.156l.002.002a12.548 12.548 0 009.351 3.412l-.033.001.248.002c3.786 0 7.211-1.541 9.685-4.029l.001-.001a13.613 13.613 0 004.063-9.718l-.001-.19v.01-2.321c-.688-5.951-1.08-12.847-1.08-19.834 0-25.389 5.178-49.569 14.537-71.54l-.452 1.194c15.24-38.291 34.781-71.346 58.594-100.804l-.568.726c29.65-37.038 61.697-69.821 96.691-99.207l1.066-.872c38.339-32.491 80.95-62.662 126.08-88.987l4.241-2.285c30.474-18.367 66.384-36.5 103.647-52.039l5.58-2.063c33.364-14.194 73.715-27.557 115.297-37.793l5.706-1.188c4.902-.923 9.21-3.002 12.78-5.944l-.048.039a12.548 12.548 0 003.412-9.351l.001.033a12.197 12.197 0 00-4.051-8.728l-.011-.01a12.195 12.195 0 00-8.72-4.061h-3.432zM267.639 759.075c19.663 58.88 49.879 109.546 88.741 152.195l-.301-.335c28.516 32.816 69.849 53.851 116.12 55.256l.241.006c33.428-.331 64.15-11.648 88.797-30.505l-.358.263c30.222-22.92 55.139-51.103 73.763-83.375l.715-1.344a29.859 29.859 0 001.671-3.839l.069-.223a12.64 12.64 0 00.582-3.832l-.002-.242v.012l.001-.181c0-3.802-1.554-7.241-4.062-9.717l-.001-.001a13.613 13.613 0 00-9.718-4.063l-.19.001h.01-.096c-2.322 0-4.492.647-6.341 1.772l.054-.031a16.98 16.98 0 00-5.182 5.155l-.04.067c-17.28 30.033-39.239 55.333-65.189 75.8l-.552.42c-20.172 15.938-45.85 25.723-73.796 26.179l-.103.001c-40.163-1.95-75.537-20.923-99.31-49.804l-.188-.236c-34.207-38.761-61.035-84.94-77.722-135.721l-.785-2.758a30.273 30.273 0 00-5.752-6.343l-.05-.04a12.26 12.26 0 00-8.169-2.901h.011a12.197 12.197 0 00-8.728 4.051l-.01.011a13.613 13.613 0 00-4.063 9.718l.001.19v-.01 4.642zm418.919-24.439c10.763-33.221 20.1-73.286 26.235-114.396l.525-4.285c5.931-38.393 9.32-82.682 9.32-127.761l-.001-1.475v.075-6.827c.004-.966.006-2.109.006-3.252 0-56.221-5.081-111.255-14.81-164.668l.844 5.582c-9.302-53.062-23.03-100.14-41.249-144.913l1.689 4.693c-16.277-40.912-36.841-76.244-61.794-107.959l.696.917c-20.329-26.596-46.261-47.872-76.125-62.293l-1.256-.547a3.946 3.946 0 00-2.802-1.162l-.105.001h-2.896a14.62 14.62 0 00-9.921 3.431l.022-.018c-2.499 2.148-4.072 5.312-4.072 8.843 0 .167.004.333.01.499l-.001-.024a14.272 14.272 0 002.354 8.211l-.033-.054a11.298 11.298 0 005.724 4.618l.078.025c28.466 14.004 52.096 33.908 70.05 58.256l.367.522c22.005 29.002 40.803 62.218 54.856 97.825l.986 2.835c15.447 37.974 28.367 82.671 36.627 128.981l.612 4.139c8.516 45.73 13.386 98.345 13.386 152.098 0 1.14-.002 2.28-.007 3.419l.001-.176v7.666c0 44.056-3.388 87.321-9.918 129.549l.599-4.708c-6.959 45.819-16.69 86.238-29.461 125.281l1.54-5.439 1.161-3.413v1.161l-.001.181c0 3.802 1.554 7.241 4.062 9.717l.001.001a13.613 13.613 0 009.718 4.063l.19-.001h-.01l.213.002c3.036 0 5.815-1.098 7.963-2.918l-.018.015a14.38 14.38 0 004.608-6.048l.034-.096zm258.321-13.961c.004-.247.006-.539.006-.832 0-17.721-7.351-33.724-19.17-45.128l-.019-.018c-11.635-11.852-27.826-19.198-45.732-19.198-.494 0-.987.006-1.479.017l.073-.001a64.993 64.993 0 00-.799-.005c-17.737 0-33.754 7.365-45.16 19.203l-.019.019c-11.838 11.422-19.188 27.425-19.188 45.146 0 .292.002.584.006.876v-.044c-.009.409-.015.89-.015 1.373 0 17.923 7.359 34.127 19.221 45.755l.011.01c11.424 11.858 27.441 19.222 45.178 19.222.281 0 .562-.002.842-.006h-.043c.419.01.912.015 1.406.015 17.906 0 34.097-7.346 45.723-19.189l.01-.01c11.833-11.632 19.166-27.81 19.166-45.701 0-.529-.006-1.057-.019-1.584l.001.078zm-27.921 0c.006.255.01.555.01.856 0 10.35-4.234 19.711-11.065 26.446l-.004.004c-6.739 6.835-16.1 11.069-26.45 11.069a38.6 38.6 0 01-.901-.011l.044.001h-.149c-10.399 0-19.811-4.228-26.61-11.058l-.001-.001c-7.172-6.637-11.646-16.099-11.646-26.607 0-.246.002-.492.007-.737l-.001.037c.027-10.549 4.49-20.05 11.62-26.742l.02-.018c6.71-7.15 16.212-11.612 26.755-11.639h.005c.208-.004.454-.007.7-.007 10.507 0 19.969 4.475 26.585 11.622l.022.024c6.833 6.827 11.059 16.261 11.059 26.682v.082-.004zM66.321 787.167c.247.004.539.006.832.006 17.721 0 33.724-7.351 45.128-19.17l.018-.019c11.872-11.638 19.232-27.842 19.232-45.765 0-.483-.005-.964-.016-1.445l.001.072c.003-.238.005-.518.005-.799 0-17.737-7.365-33.754-19.203-45.16l-.019-.019c-11.422-11.838-27.425-19.188-45.146-19.188-.292 0-.584.002-.876.006h.044c-.409-.009-.89-.015-1.373-.015-17.923 0-34.127 7.359-45.755 19.221l-.01.011C7.345 686.325-.005 702.328-.005 720.049c0 .292.002.584.006.876v-.044c-.009.409-.015.89-.015 1.373 0 17.923 7.359 34.127 19.221 45.755l.011.01c11.632 11.832 27.809 19.164 45.699 19.164.494 0 .987-.006 1.478-.017l-.073.001zm0-27.921c-.255.006-.555.01-.856.01-10.35 0-19.711-4.234-26.446-11.065l-.004-.004c-6.835-6.739-11.069-16.1-11.069-26.45 0-.301.004-.601.011-.901l-.001.044v-.149c0-10.399 4.228-19.811 11.058-26.61l.001-.001c6.637-7.172 16.099-11.646 26.607-11.646.246 0 .492.002.737.007l-.037-.001c10.549.027 20.05 4.49 26.742 11.62l.018.02c7.15 6.71 11.612 16.212 11.639 26.755v.005c.004.208.007.454.007.7 0 10.507-4.475 19.969-11.622 26.585l-.024.022c-6.809 6.731-16.175 10.889-26.511 10.889l-.263-.001h.013zM472.508 73.849c.419.01.912.015 1.406.015 17.906 0 34.097-7.346 45.723-19.189l.01-.01c11.858-11.424 19.222-27.441 19.222-45.178 0-.281-.002-.562-.006-.842v.043c.01-.419.015-.912.015-1.406 0-17.906-7.346-34.097-19.189-45.723l-.01-.01c-11.635-11.852-27.826-19.198-45.732-19.198-.494 0-.987.006-1.479.017l.073-.001a64.993 64.993 0 00-.799-.005c-17.737 0-33.754 7.365-45.16 19.203l-.019.019c-11.852 11.635-19.198 27.826-19.198 45.732 0 .494.006.987.017 1.479l-.001-.073c-.003.238-.005.518-.005.799 0 17.737 7.365 33.754 19.203 45.16l.019.019c11.422 11.837 27.425 19.187 45.144 19.187.245 0 .49-.001.734-.004h-.037zm0-27.921l-.316.001c-10.165 0-19.34-4.24-25.852-11.047l-.013-.013c-6.821-6.525-11.061-15.7-11.061-25.865l.002-.333v.017a37.31 37.31 0 01-.01-.856c0-10.35 4.234-19.711 11.065-26.446l.004-.004c6.525-6.821 15.7-11.061 25.865-11.061l.333.002h-.017c.255-.006.555-.01.856-.01 10.35 0 19.711 4.234 26.446 11.065l.004.004c6.835 6.739 11.069 16.1 11.069 26.45 0 .301-.004.601-.011.901l.001-.044.001.316c0 10.165-4.24 19.34-11.047 25.852l-.013.013c-6.742 6.855-16.117 11.102-26.483 11.102-.29 0-.578-.003-.866-.01l.043.001zm10.479 480.597a11.375 11.375 0 01-5.046 1.162l-.186-.001h-5.316c-.224.004-.489.006-.754.006-12.943 0-24.637-5.348-32.993-13.955l-.011-.011c-8.618-8.366-13.967-20.06-13.967-33.004 0-.265.002-.53.007-.794l-.001.04c-.007-.29-.011-.631-.011-.974 0-12.694 5.363-24.135 13.947-32.181l.024-.022c8.466-8.28 20.063-13.389 32.853-13.389.318 0 .635.003.952.009l-.047-.001a46.093 46.093 0 0130.321 10.542l-.079-.063c8.007 6.335 13.798 15.157 16.219 25.289l.063.311a24.53 24.53 0 00.612 5.967l-.032-.164c.366 1.393.577 2.992.58 4.64v.002a46.093 46.093 0 01-10.542 30.321l.063-.079c-6.61 8.211-15.849 14.067-26.426 16.297l-.301.053z"/></svg>