<svg width="64" height="64" viewBox="0 0 893 893" xmlns="http://www.w3.org/2000/svg"><path d="M758.639-97.993c-37.548-20.105-124.659-13.961-227.165 16.35-77.861 62.807-331.104 288.675-334.279 569.534-.096 11.502-9.442 20.789-20.958 20.789-8.551 0-15.906-5.121-19.165-12.463l-.053-.134c-24.133-56.151-43.76-149.85-17.272-293.898.212-1.119.333-2.407.333-3.722 0-11.594-9.399-20.993-20.993-20.993-6.509 0-12.326 2.963-16.177 7.613l-.028.035q-13.824 17.067-26.181 34.681C-84.892 453.142 30.654 752.297 220.817 856.134s472.797 80.796 608.959-168.249S853.465-47.098 758.64-97.993z"/></svg>