<svg width="64" height="64" viewBox="0 0 733 733" xmlns="http://www.w3.org/2000/svg"><path d="M588.151-2.676l22.767-119.467c.564-2.081.888-4.471.888-6.937a27.435 27.435 0 00-6.452-17.716l.034.042c-4.95-6.283-12.559-10.281-21.101-10.281-.214 0-.427.003-.639.007l.032-.001H145.818c-.18-.004-.392-.006-.604-.006-9.183 0-17.426 4.03-23.055 10.417l-.029.034c-5.776 5.868-9.385 13.883-9.523 22.74V553.49q0 4.301 3.686.614l179.029-216.542c6.542-8.091 14.274-14.899 22.992-20.257l.389-.223c7.506-2.997 16.204-4.735 25.309-4.735 1.483 0 2.956.046 4.416.137l-.2-.01h147.046c.243.007.529.011.816.011 8.541 0 16.288-3.403 21.958-8.926l-.007.007c5.323-4.684 9.213-10.879 11.006-17.913l.053-.246q14.78-79.974 22.767-117.521c.288-1.536.453-3.304.453-5.11a28.938 28.938 0 00-7.54-19.524l.021.024c-5.118-6.994-13.245-11.525-22.436-11.673H341.333c-.383.013-.832.021-1.284.021-22.075 0-39.97-17.895-39.97-39.97 0-.451.007-.901.022-1.349l-.002.065V64.395a37.985 37.985 0 01-.024-1.363c0-10.907 4.476-20.769 11.691-27.849l.006-.006a40.474 40.474 0 0128.136-11.323c.501 0 .999.009 1.495.027l-.072-.002h212.855a34.227 34.227 0 0021.582-8.331l-.044.037c6.149-4.298 10.604-10.654 12.382-18.052l.042-.209zm139.64-136.533q-9.216 44.919-32.905 163.84t-42.769 215.313q-19.081 96.29-21.538 106.735-3.686 13.653-5.53 20.002c-2.639 7.796-5.547 14.404-8.949 20.706l.347-.704c-3.713 7.99-8.8 14.749-15.022 20.253l-.065.056c-6.81 5.178-14.639 9.533-23.053 12.693l-.635.209c-10.026 3.902-21.631 6.163-33.765 6.163-.67 0-1.338-.007-2.004-.021l.1.002H375.296a17.473 17.473 0 00-13.634 6.12l-.02.024q-4.915 5.53-262.076 303.787c-8.959 10.034-21.62 16.598-35.818 17.536l-.158.008c-2.965.667-6.371 1.049-9.866 1.049a46.723 46.723 0 01-20.249-4.584l.282.122C13.42 740.906-.476 720.797-.476 697.442c0-2.603.173-5.165.507-7.676l-.032.294v-867.567c.214-24.116 9.02-46.136 23.499-63.186l-.118.142c16.315-18.118 39.852-29.459 66.037-29.459 2.744 0 5.458.125 8.138.368l-.345-.025h546.304c3.352-.474 7.223-.745 11.158-.745 27.263 0 51.491 12.999 66.823 33.137l.15.206c7.792 16.734 12.338 36.328 12.338 56.983 0 14.579-2.265 28.63-6.462 41.818l.268-.976zm0 0l-97.212 485.99q2.458-10.445 21.538-106.735t42.769-215.313q23.689-119.057 32.905-163.977z"/></svg>