<svg width="64" height="64" viewBox="0 0 946 946" xmlns="http://www.w3.org/2000/svg"><path d="M301.158 808.476q0-57.139-94.276-57.139-90.283 0-90.283 59.426 0 57.719 98.27 57.719 86.289-.137 86.289-60.006zm-33.723-431.445c.042-1.058.066-2.301.066-3.549 0-20.483-6.411-39.468-17.337-55.059l.205.308c-10.877-14.355-27.937-23.533-47.141-23.533a60.48 60.48 0 00-3.893.126l.175-.009q-70.861 0-70.861 82.842 0 77.141 70.861 77.141 67.925.034 67.925-78.268zm153.6-185.139v115.439q-20.48 6.827-45.158 12.561c5.64 14.222 8.982 30.693 9.147 47.923l.001.068c.042 1.497.067 3.259.067 5.026 0 45.091-15.754 86.503-42.058 119.031l.28-.358c-27.848 33.574-67.018 56.906-111.588 64.132l-1.052.141c-13.195 1.896-24.847 7.414-34.219 15.501l.086-.072a44.171 44.171 0 00-11.273 29.553c0 1.264.053 2.515.156 3.753l-.011-.162c-.006.254-.01.554-.01.855 0 11.354 4.963 21.549 12.838 28.534l.04.034a88.955 88.955 0 0032.511 18.128l.633.167q20.275 6.588 44.851 12.561t49.152 14.575c17.155 5.966 31.97 13.208 45.732 21.959l-.881-.523c14.003 9.194 25.237 21.521 32.89 36.029l.254.528c8.134 15.48 12.907 33.823 12.907 53.281 0 1.056-.014 2.11-.042 3.159l.003-.155q.137 173.773-207.155 173.773c-.588.003-1.283.005-1.978.005-25.584 0-50.561-2.599-74.681-7.548l2.385.409c-24.999-5.181-47.166-13.272-67.676-24.083l1.389.668c-20.924-10.896-37.895-26.86-49.693-46.311l-.312-.554C6.867 870.103-.047 846.253-.047 820.789c0-1.281.017-2.557.052-3.83l-.004.187q0-94.276 104.004-128.58v-2.287c-23.166-13.932-38.426-38.936-38.426-67.504 0-1.577.046-3.143.138-4.697l-.01.214q0-62.293 36.011-78.302v-2.287c-30.085-11.558-54.027-33.464-67.939-61.262l-.328-.724c-16.456-27.025-26.504-59.55-27.303-94.361l-.004-.222c-.04-1.398-.062-3.043-.062-4.693 0-50.106 20.819-95.35 54.278-127.554l.056-.054c33.343-32.73 79.081-52.933 129.538-52.933 1.668 0 3.33.022 4.987.066l-.245-.005c.39-.003.851-.004 1.312-.004 36.964 0 71.598 9.976 101.356 27.381l-.951-.514c45.298-1.251 87.986-11.034 126.968-27.79l-2.245.858zm181.726 503.432H475.99q2.287-25.702 2.287-76.561V270.774q0-53.726-2.287-73.148h126.874q-2.287 18.842-2.287 70.861v350.276q0 50.859 2.287 76.561zm343.415-126.873v112.162c-27.02 14.113-59.014 22.392-92.943 22.392-2.281 0-4.554-.037-6.817-.112l.33.009c-1.084.028-2.361.044-3.642.044-20.747 0-40.508-4.22-58.472-11.849l.98.37c-15.836-6.625-29.209-16.329-39.903-28.452l-.102-.117c-10.02-12.585-17.773-27.473-22.349-43.694l-.213-.884c-4.905-15.214-8.638-33.055-10.491-51.452l-.091-1.114q-2.287-25.156-2.287-58.846V306.204h1.126v-2.287q-3.994 0-10.854-.58t-10.24-.58c-12.175.345-23.799 1.573-35.136 3.625l1.412-.212V197.626h54.852v-43.452a312.43 312.43 0 00-3.635-52.596l.222 1.738H837.63c-2.299 22.909-3.61 49.513-3.61 76.424 0 6.277.071 12.538.213 18.781l-.017-.929h97.621V306.17q-8.567 0-24.849-1.126t-24.269-1.126h-48.435v208.555q0 74.854 49.698 74.854c.455.007.992.011 1.53.011 22.71 0 43.773-7.052 61.118-19.085l-.355.233zM617.131 27.335c.004.287.006.625.006.964 0 22.046-8.476 42.113-22.346 57.119l.051-.056c-13.07 15.252-32.354 24.856-53.88 24.856-.342 0-.683-.002-1.024-.007l.052.001c-.3.004-.653.007-1.008.007-21.869 0-41.497-9.597-54.902-24.81l-.069-.08c-14.16-14.856-22.873-35.015-22.873-57.208 0-.288.001-.575.004-.862v.044a76.808 76.808 0 01-.006-.999c0-22.332 8.579-42.661 22.621-57.871l-.053.058c13.377-15.452 33.021-25.169 54.934-25.169.476 0 .95.005 1.423.014l-.071-.001c.363-.007.79-.011 1.219-.011 21.663 0 41.025 9.854 53.847 25.324l.093.116c13.646 15.281 21.986 35.554 21.986 57.774 0 .281-.001.561-.004.841v-.043z"/></svg>