<svg width="64" height="64" viewBox="0 0 1050 1050" xmlns="http://www.w3.org/2000/svg"><path d="M524.834 47.333c1.177-.01 2.569-.015 3.963-.015 95.644 0 185.18 26.154 261.845 71.7l-2.367-1.302c79.824 46.662 144.484 111.322 189.812 188.682l1.335 2.465c44.37 75.457 70.577 166.214 70.577 263.091 0 230.676-148.587 426.647-355.271 497.425l-3.698 1.101c-2.671.841-5.743 1.326-8.927 1.326a30.588 30.588 0 01-18.458-6.161l.078.057c-5.462-4.914-8.881-12.006-8.881-19.896 0-.205.002-.41.007-.615l-.001.03q0-2.048.341-52.292t.341-91.921c.296-3.184.465-6.886.465-10.627 0-33.784-13.764-64.353-35.99-86.406l-.008-.008c26.348-2.623 50.173-6.956 73.3-13.013l-3.258.725c24.452-6.823 45.786-15.918 65.582-27.375l-1.343.717c21.68-11.951 40.029-27.132 55.122-45.135l.242-.297c15.857-20.321 28.27-44.221 35.842-70.185l.374-1.495c8.909-29.145 14.039-62.645 14.039-97.343 0-1.934-.016-3.864-.048-5.791l.004.29c.015-.919.024-2.003.024-3.09 0-53.231-20.545-101.664-54.138-137.801l.115.125c7.155-18.76 11.299-40.457 11.299-63.121 0-27.674-6.178-53.906-17.23-77.391l.47 1.111c-4.886-.946-10.504-1.487-16.249-1.487-14.233 0-27.689 3.321-39.638 9.23l.523-.234c-24.239 8.97-44.966 19.097-64.499 30.991l1.625-.919-25.975 16.384c-39.335-11.281-84.514-17.768-131.209-17.768s-91.874 6.487-134.686 18.61l3.477-.842q-10.923-7.509-29.047-18.466c-15.928-9.114-34.735-17.971-54.256-25.379l-2.815-.938c-12.505-6.565-27.321-10.418-43.037-10.418-5.293 0-10.484.437-15.539 1.277l.549-.075c-10.582 22.374-16.76 48.605-16.76 76.28 0 22.664 4.144 44.361 11.714 64.373l-.416-1.252c-33.478 36.012-54.023 84.445-54.023 137.676 0 1.086.009 2.171.026 3.253l-.002-.163a325.09 325.09 0 00-.045 5.542c0 34.53 5.13 67.862 14.67 99.274l-.631-2.416c8.049 27.415 20.325 51.288 36.267 72.218l-.393-.538c15.112 18.54 33.375 33.852 54.076 45.293l.947.48c18.453 10.74 39.787 19.836 62.273 26.184l1.966.474c19.869 5.332 43.694 9.665 68.071 12.127l1.97.161c-18.38 18.269-30.64 42.677-33.444 69.89l-.041.493c-8.826 4.288-19.097 7.822-29.836 10.084l-.884.156c-10.906 2.183-23.443 3.432-36.272 3.432-.94 0-1.879-.007-2.816-.02l.142.002c-16.805-.347-32.273-5.792-44.996-14.845l.247.167c-15.833-11.054-28.628-25.377-37.607-42.059l-.316-.642c-8.464-14.331-19.58-26.21-32.772-35.291l-.372-.242c-9.611-7.232-20.899-12.861-33.126-16.22l-.7-.164-13.653-2.048a42.98 42.98 0 00-3.299-.123 44.253 44.253 0 00-16.828 3.302l.296-.107q-5.461 3.072-3.413 7.851c1.654 3.662 3.713 6.814 6.178 9.597l-.034-.039a50.35 50.35 0 008.731 8.092l.144.1 4.779 3.413c12.058 6.309 22.034 15.084 29.557 25.718l.173.258c8.132 10.11 15.32 21.561 21.096 33.808l.442 1.042 6.827 15.701c5.77 17.172 16.231 31.491 29.859 41.863l.213.155c12.79 9.979 28.244 17.169 45.109 20.375l.663.105c14.1 2.731 30.476 4.456 47.197 4.774l.283.004c1.902.065 4.136.101 6.38.101 11.136 0 22.061-.906 32.704-2.648l-1.162.157 15.701-2.731q0 25.975.341 60.484t.341 37.239c.004.174.006.379.006.584 0 7.89-3.419 14.982-8.857 19.874l-.024.021c-5.06 3.812-11.452 6.104-18.379 6.104-3.185 0-6.256-.485-9.145-1.384l.218.058C148.68 998.196.204 802.195.204 571.516c0-96.777 26.132-187.45 71.726-265.348l-1.345 2.486c46.662-79.824 111.322-144.484 188.682-189.812l2.465-1.335C335.947 73.39 425.358 47.314 520.86 47.314c1.396 0 2.791.006 4.185.017l-.214-.001zM198.861 801.099q2.048-4.779-4.779-8.192-6.827-2.048-8.875 1.365-2.048 4.779 4.779 8.192 6.144 4.096 8.875-1.365zm21.197 23.245q4.779-3.413-1.365-10.923-6.827-6.144-10.923-2.048-4.779 3.413 1.365 10.923 6.793 6.69 10.923 2.014zm20.48 30.72q6.144-4.779 0-12.971-5.461-8.875-11.605-4.096-6.144 3.413 0 12.288t11.605 4.779zm28.706 28.706q5.461-5.461-2.731-12.971-8.192-8.192-13.653-2.048-6.144 5.461 2.731 12.971 8.192 8.192 13.653 1.877zm38.946 17.067q2.048-7.509-8.875-10.923-10.24-2.731-12.971 4.779t8.875 10.24q10.24 4.13 12.971-4.096zm43.042 3.413q0-8.875-11.605-7.509-10.923 0-10.923 7.509 0 8.875 11.605 7.509 10.923.034 10.923-7.475zm39.629-6.826q-1.365-7.509-12.288-6.144-10.923 2.048-9.557 10.24t12.288 5.461q10.957-2.697 9.591-9.557z"/></svg>