<svg width="64" height="64" viewBox="0 0 1101 1101" xmlns="http://www.w3.org/2000/svg"><path d="M550.659 1122.333L17.182 726.493c-6.904-5.471-12.13-12.782-14.959-21.194l-.093-.32c-1.351-3.831-2.132-8.249-2.132-12.85S.779 683.111 2.214 679l-.085.279 62.412-189.292zM225.822 113.422l122.622 376.455H64.505L184.96 113.422c3.007-8.826 11.224-15.061 20.897-15.061.217 0 .433.003.648.009l-.032-.001a17.78 17.78 0 011.102-.033c9.025 0 16.546 6.435 18.226 14.967l.019.118zm122.621 376.456h404.431l-202.215 632.455zm750.745 189.292c1.351 3.831 2.132 8.249 2.132 12.85s-.781 9.018-2.216 13.129l.085-.279c-2.923 8.732-8.148 16.043-14.958 21.442l-.094.072-533.477 395.95 486.154-632.455zM916.357 113.422l120.455 376.455H752.873l122.622-376.455c1.699-8.65 9.221-15.085 18.246-15.085.388 0 .773.012 1.154.035l-.052-.003c.184-.006.4-.009.617-.009 9.673 0 17.89 6.235 20.851 14.906l.046.155z"/></svg>