<svg width="64" height="64" viewBox="0 0 1024 1024" xmlns="http://www.w3.org/2000/svg"><path d="M638.669 525.38c.036 1.853.056 4.038.056 6.227 0 57.897-14.328 112.448-39.63 160.3l.901-1.868c-25.594 47.824-63.176 86.316-108.807 112.295l-1.375.721c-45.476 25.599-99.831 40.68-157.707 40.68-2.216 0-4.427-.022-6.633-.066l.33.005-.929.001c-45.438 0-88.661-9.481-127.799-26.573l2.059.801c-78.833-33.051-140.278-94.497-172.546-171.232l-.783-2.097C9.518 607.201.042 563.66.042 517.905s9.476-89.296 26.573-128.768l-.809 2.099c33.051-78.833 94.497-140.278 171.232-172.546l2.097-.783c37.123-16.333 80.4-25.84 125.898-25.84l.776.001h-.04c1.586-.029 3.457-.046 5.332-.046 82.633 0 157.668 32.532 212.996 85.487l-.113-.107-88.439 84.89c-32.224-31.133-76.166-50.317-124.589-50.317-1.8 0-3.593.026-5.38.079l.262-.006c-.395-.003-.863-.005-1.331-.005-36.848 0-71.303 10.243-100.673 28.038l.867-.488c-60.98 36.909-101.113 102.881-101.113 178.227s40.133 141.318 100.188 177.707l.925.52c28.503 17.307 62.959 27.55 99.806 27.55.468 0 .935-.002 1.402-.005h-.071c.665.007 1.451.012 2.238.012 23.421 0 45.967-3.75 67.069-10.683l-1.518.432c19.431-6.091 36.333-14.8 51.363-25.897l-.47.332c13.239-10.167 24.718-21.646 34.561-34.447l.323-.437c8.447-10.66 15.729-22.827 21.314-35.893l.395-1.039c3.957-9.386 7.268-20.411 9.399-31.85l.158-1.02h-184.9V471.111h307.541c3.33 16.28 5.277 35.023 5.359 54.207v.065zM1024 471.074v93.389h-92.877v92.877h-93.389v-92.877H744.96v-93.389h92.877v-92.877h93.389v92.877z"/></svg>