<svg width="64" height="64" viewBox="0 0 923 923" xmlns="http://www.w3.org/2000/svg"><path d="M160.043-53.66L720.01 268.304 599.978 388.336zm-116-26.007l513.985 511.985L44.074 944.333C17.924 932.756.009 907.034.009 877.128c0-.979.019-1.953.057-2.922l-.004.139V-9.679a70.016 70.016 0 01-.053-2.783c0-29.906 17.914-55.628 43.597-67.02l.467-.185zm849.983 451.999c17.661 13.12 28.979 33.917 28.979 57.356 0 .925-.018 1.845-.053 2.761l.004-.132c.183 1.852.287 4.002.287 6.177 0 22.016-10.673 41.54-27.127 53.679l-.183.129-120.032 67.988-129.943-127.973 130.004-130.004zM160.043 918.295l439.965-441.966L720.04 596.361z"/></svg>