<svg width="64" height="64" viewBox="0 0 911 911" xmlns="http://www.w3.org/2000/svg"><path d="M543.189 25.709l210.56 121.557c16.65-17.474 40.099-28.341 66.086-28.341 50.38 0 91.221 40.841 91.221 91.221 0 42.715-29.359 78.573-68.999 88.495l-.629.133v243.2c40.493 9.929 70.064 45.912 70.064 88.801 0 50.427-40.879 91.307-91.307 91.307-27.16 0-51.551-11.859-68.276-30.681l-.081-.093-209.28 120.832c2.957 8.598 4.665 18.505 4.665 28.811 0 50.427-40.879 91.307-91.307 91.307s-91.307-40.879-91.307-91.307a91.313 91.313 0 013.909-26.514l-.168.647L157.524 693.74c-16.651 17.375-40.046 28.174-65.963 28.174-50.427 0-91.307-40.879-91.307-91.307 0-42.764 29.399-78.662 69.089-88.585l.629-.133V298.732C29.395 288.864-.26 252.841-.26 209.891c0-50.427 40.879-91.307 91.307-91.307 16.914 0 32.754 4.599 46.337 12.615l-.426-.232c7.845 4.525 14.583 9.864 20.442 16.045l.038.04 210.688-121.6c-2.385-7.761-3.759-16.682-3.759-25.924 0-50.404 40.86-91.264 91.264-91.264s91.264 40.86 91.264 91.264a91.264 91.264 0 01-4.006 26.826l.171-.646zm-21.973 37.419a34.243 34.243 0 01-2.445 2.449l-.029.026 275.669 477.44c1.109-.384 2.389-.683 3.499-.981V298.563c-40.032-10.171-69.172-45.891-69.172-88.416 0-7.814.984-15.398 2.835-22.636l-.137.631c.256-1.024.512-2.091.811-3.072L521.218 63.129zm-128.64 2.517l-2.56-2.56L178.987 184.77c2.269 7.572 3.576 16.272 3.576 25.278 0 41.347-27.534 76.263-65.267 87.412l-.645.163-3.243.896V542.06l3.584.981 275.669-477.44zm88.576 21.632c-7.618 2.275-16.371 3.585-25.429 3.585s-17.812-1.309-26.08-3.749l.651.165-275.627 477.397c12.205 11.783 21.166 26.849 25.462 43.776l.138.64h550.869c4.368-17.629 13.342-32.752 25.57-44.516l.03-.028L481.28 87.278zm42.069 692.352l209.792-121.088c-.64-2.005-1.152-4.011-1.621-6.059H180.139l-.896 3.541 210.731 121.685c16.646-17.193 39.937-27.866 65.722-27.866 26.711 0 50.746 11.454 67.464 29.717l.062.069z"/></svg>