<svg width="64" height="64" viewBox="0 0 760 760" xmlns="http://www.w3.org/2000/svg"><path d="M117.96 135.336c.116-10.172 5.655-19.025 13.858-23.814l.132-.071q-13.99-3.992-26.001-7.985c9.811-2.204 21.079-3.466 32.642-3.466 27.646 0 53.607 7.218 76.1 19.873l-.78-.403c22.535 12.982 41.706 28.956 57.761 47.681l.246.294c8.146 11.083 20.024 19.009 33.752 21.942l.37.066c3.908.637 8.412 1.002 13 1.002s9.093-.364 13.484-1.065l-.484.064 12.011-3.992.001.191c0 10.838-5.052 20.495-12.93 26.746l-.071.054c-8.032 6.838-18.529 10.998-29.996 10.998-.347 0-.693-.004-1.038-.011l.051.001c.055 1.067.087 2.318.087 3.575 0 15.042-4.516 29.028-12.267 40.678l.169-.27-13.99 22.009c3.867-9.658 6.11-20.853 6.11-32.572 0-6.873-.772-13.566-2.233-19.998l.115.602-6.005-16.003c-11.371 9.714-26.246 15.625-42.502 15.625a65.518 65.518 0 01-21.936-3.756l.459.142c-17.919-4.043-33.475-12.409-46.071-23.953l.075.067c-15.972-18.034-25.794-41.836-26.001-67.928v-.043c-4.321 9.368-7.181 20.257-7.969 31.717l-.016.289-5.971-10.237c-2.57-8.371-4.085-18.001-4.163-27.973v-.041zm58.007-3.992c-2.583 7.896-4.072 16.983-4.072 26.417 0 4.743.376 9.398 1.101 13.937l-.066-.5a44.36 44.36 0 0016.963 31.899l.098.074c9.302 7.961 21.476 12.806 34.782 12.806 3.251 0 6.434-.289 9.526-.843l-.325.048c11.914-.208 22.935-3.86 32.158-9.999l-.22.138c-10.931-13.52-23.076-25.352-36.48-35.625l-.508-.374c-15.358-12.367-32.635-24.869-50.539-36.486l-2.452-1.491zM333.883 599.19c1.704 2.587 2.719 5.76 2.719 9.169 0 1.719-.258 3.378-.737 4.94l.031-.119c-6.659 15.435-15.444 28.671-26.168 40.06l.064-.069c-6.094 4.974-13.959 7.988-22.527 7.988-.166 0-.331-.001-.496-.003h.025a35.615 35.615 0 01-23.063-8.036l.065.051c-11.92-10.214-21.409-22.908-27.72-37.311l-.26-.666c-1.08-1.91-1.717-4.194-1.717-6.627a13.6 13.6 0 013.736-9.382l-.006.006c4.693-3.82 10.745-6.134 17.338-6.134.936 0 1.861.047 2.773.138l-.115-.009h58.007a23.687 23.687 0 011.921-.076c6.194 0 11.85 2.305 16.156 6.104l-.027-.023zM459.93 223.302a46.225 46.225 0 01-31.049-11.042l.066.054c-7.949-6.304-13.001-15.962-13.001-26.8l.001-.201v.01h2.013c5.61 3.798 12.527 6.063 19.974 6.063.716 0 1.427-.021 2.133-.062l-.097.005c19.514-.073 36.843-9.363 47.869-23.741l.106-.144c16.301-19.019 35.472-34.994 56.955-47.414l1.052-.561c21.713-12.251 47.673-19.47 75.32-19.47 11.563 0 22.831 1.263 33.674 3.658l-1.032-.191q-12.011 3.992-26.001 7.985c8.335 4.86 13.874 13.713 13.99 23.869v.016a101.522 101.522 0 01-4.175 28.698l.183-.718-6.005 9.998c-1.182-11.812-4.007-22.654-8.262-32.747l.277.74c-1.534 25.944-11.084 49.397-26.183 68.206l.182-.235a99.83 99.83 0 01-45.325 23.757l-.671.128c-6.319 2.175-13.599 3.431-21.173 3.431-16.324 0-31.285-5.833-42.913-15.529l.108.087-6.005 16.003c-1.29 5.124-2.031 11.006-2.031 17.061s.74 11.937 2.136 17.561l-.105-.5 6.005 17.982-16.003-22.009c-7.581-11.379-12.096-25.365-12.096-40.406 0-1.246.031-2.485.092-3.716l-.007.173zm35.896-17.982v2.013h-2.013c8.678 4.643 18.757 8.132 29.414 9.918l.58.08c1.786.179 3.861.281 5.959.281 15.24 0 29.223-5.386 40.147-14.359l-.11.088c9.697-7.574 16.129-18.94 17.053-31.83l.008-.143c.675-4.088 1.061-8.799 1.061-13.601a87.657 87.657 0 00-4.237-27.011l.173.621c-20.356 13.109-37.633 25.61-54.222 38.934l1.231-.956c-13.608 10.143-25.197 22.025-34.715 35.476l-.328.489zm26.001 393.87a13.597 13.597 0 013.73 9.376c0 2.433-.637 4.717-1.752 6.695l.035-.068c-6.263 14.57-15.815 26.696-27.767 35.842l-.213.156c-5.766 6.145-13.933 9.979-22.995 9.998h-.078c-9.105 0-17.311-3.851-23.077-10.014l-.016-.018a148.862 148.862 0 01-25.614-37.094l-.387-.884a14.684 14.684 0 01-.607-4.225c0-3.738 1.366-7.157 3.626-9.785l-.017.02a20.953 20.953 0 0114.83-6.124c.786 0 1.561.043 2.325.127l-.094-.008h59.986c6.759.812 12.88 2.94 18.306 6.126l-.221-.12zM325.899 97.358c15.274 9.904 33.918 15.85 53.941 16.003h.04c20.063-.153 38.707-6.099 54.378-16.244l-.397.241-17.982 17.982c-9.161 9.844-21.692 16.445-35.746 17.96l-.253.022c-14.307-1.537-26.837-8.138-35.967-17.947l-.032-.035zm367.869 293.893c11.833 9.603 21.303 21.64 27.724 35.387l.256.612c10.868 21.395 17.234 46.653 17.234 73.398 0 11.52-1.181 22.765-3.429 33.619l.185-1.068c-8.109 52.099-44.638 93.981-92.969 109.703l-.968.272c-10.43 23.739-25.329 43.766-43.78 59.813l-.203.173c-23.954 21.661-55.216 35.642-89.681 37.853l-.435.022c-32.31 25.101-73.446 40.241-118.117 40.241-3.461 0-6.901-.091-10.318-.27l.478.02c-3.268.199-7.089.312-10.936.312-43.312 0-83.274-14.344-115.395-38.54l.489.353c-34.913-3.726-65.88-18.248-90.084-40.114l.139.123c-18.914-16.505-34.37-36.432-45.501-58.883l-.495-1.104c-49.314-15.983-85.857-57.868-93.873-109.204l-.099-.771c-2.059-9.673-3.239-20.786-3.239-32.174 0-17.052 2.644-33.487 7.544-48.917l-.313 1.143c5.346-17.641 13.515-32.963 24.102-46.278l-.216.282 13.99-16.003c2.887 18.373 8.866 34.871 17.428 49.688l-.367-.689c8.44 15.075 18.756 27.946 30.852 38.885l.13.116c5.245-35.56 8.241-76.608 8.241-118.355 0-1.913-.006-3.824-.019-5.734l.002.295a89 89 0 00.002-.544c0-13.147-3.815-25.404-10.399-35.722l.16.268c-3.764-6.262-8.423-11.562-13.872-15.912l-.118-.091-16.003-9.998c-20.566-10.199-38.27-21.553-54.578-34.583l.597.461C11.397 246.793.662 227.375.005 205.425l-.002-.104a58.238 58.238 0 0112.112-36.136l-.102.137c5.756-6.908 12.338-12.851 19.664-17.772l.332-.21 3.992-3.992q7.985-6.005 7.985-9.998c4.444-11.18 7.02-24.134 7.02-37.69 0-.809-.009-1.616-.027-2.42l.002.12c.457-3.15.718-6.787.718-10.485a76.876 76.876 0 00-3.876-24.181l.156.544c-5.86-7.553-11.189-16.082-15.618-25.13l-.385-.871c-6-10.829-9.531-23.745-9.531-37.486a78.81 78.81 0 011.635-16.014l-.088.509c3.69-14.99 14.048-26.996 27.669-32.876l.311-.12c11.695-5.553 25.325-9.15 39.695-9.984l.296-.014 2.013-12.011c1.104-4.733 1.828-10.231 2.01-15.866l.003-.137a43.165 43.165 0 00-6.115-22.207l.11.198c-8.597-12.18-20.135-21.747-33.604-27.773l-.518-.207c-6.91-3.711-14.937-6.497-23.426-7.921l-.46-.064-23.885-3.992 16.003-19.995c7.553-5.86 16.082-11.189 25.13-15.618l.871-.385c18.502-11.298 40.887-17.988 64.835-17.988.407 0 .813.002 1.219.006h-.062c17.187.055 33.675 2.974 49.035 8.305l-1.06-.32c41.753 14.959 76.067 42.165 99.523 77.246l.455.722 12.011-3.992a86.176 86.176 0 01-.238-6.519c0-15.077 3.736-29.281 10.334-41.737l-.234.485c5.291-13.412 13.111-24.805 22.952-34.078l.047-.044c5.815-6.89 13.712-11.857 22.715-13.935l.283-.055v6.005q2.013 39.991 13.99 47.975c7.81-39.984 38.313-71.162 77.295-79.856l.674-.126c-3.213 9.506-5.067 20.454-5.067 31.836 0 15.269 3.337 29.758 9.323 42.778l-.263-.638a140.978 140.978 0 0135.136-23.521l.862-.364c6.361-3.523 13.899-5.713 21.921-6.003l.088-.003h9.998l-12.011 26.001c-4.89 9.837-7.751 21.424-7.751 33.68 0 5.778.636 11.407 1.842 16.821l-.096-.513 17.982 6.005c23.91-35.804 58.224-63.01 98.59-77.533l1.387-.436c14.598-5.062 31.424-7.985 48.931-7.985h.072-.004.068c17.508 0 34.333 2.923 50.014 8.308l-1.083-.323c11.542 4.465 21.481 10.543 30.11 18.083l-.117-.1q12.011 6.005 12.011 7.985l16.003 19.995-23.885 3.992c-8.949 1.487-16.975 4.274-24.307 8.19l.422-.206c-14.482 5.317-26.267 15.116-33.958 27.691l-.164.289c-2.715 4.976-4.312 10.899-4.312 17.195 0 1.698.116 3.368.341 5.004l-.021-.19c-.364 1.561-.572 3.354-.572 5.195 0 3.943.956 7.663 2.648 10.941l-.063-.134v12.011c.811-.032 1.764-.05 2.721-.05 13.73 0 26.588 3.732 37.616 10.236l-.346-.189c13.933 6 24.29 18.006 27.911 32.666l.069.33c.984 4.661 1.547 10.018 1.547 15.505 0 13.741-3.531 26.657-9.736 37.89l.205-.404c-3.854 9.537-8.555 17.77-14.192 25.257l.202-.28c-3.621 7.469-5.737 16.245-5.737 25.516 0 3.34.275 6.615.803 9.806l-.047-.347a98.92 98.92 0 00-.035 2.719c0 13.399 2.517 26.209 7.104 37.985l-.245-.713c2.24 3.834 4.89 7.125 7.957 9.973l.027.025 3.992 2.013c7.395 6.048 13.948 12.601 19.8 19.75l.195.246c7.495 9.731 12.013 22.092 12.013 35.508l-.002.481v-.025c-.688 22.052-11.445 41.456-27.805 53.854l-.175.127c-15.711 12.569-33.415 23.923-52.256 33.341l-1.725.781-16.003 7.985a121.838 121.838 0 00-13.7 17.503l-.29.479c-6.279 9.966-10.005 22.088-10.005 35.081 0 .347.003.693.008 1.039l-.001-.052c-.02 2.151-.031 4.692-.031 7.236 0 41.171 2.913 81.661 8.545 121.276l-.53-4.546c26.174-21.493 43.896-52.444 47.918-87.559l.057-.612zm-85.954-557.86c-32.702 11.81-59.13 34.349-75.625 63.283l-.365.695 23.885 12.011c10.428-18.672 24.563-34.093 41.514-45.701l.456-.295c14.937-11.239 33.8-17.999 54.242-17.999.616 0 1.231.006 1.844.018l-.092-.001a74.45 74.45 0 0118.491 2.119l-.509-.105c5.641-3.482 12.216-6.834 19.065-9.658l.93-.34c-14.686-6.322-31.782-9.998-49.736-9.998h-.266.014l-.519-.001c-11.968 0-23.425 2.19-33.99 6.192l.66-.219zm41.97 35.999h-.204a63.302 63.302 0 00-39.908 14.085l.121-.095c-12.942 11.165-22.2 26.28-25.906 43.46l-.095.523a159.812 159.812 0 0119.648 23.352l.348.533 23.885-6.005c4.853-10.251 7.774-22.246 7.984-34.901l.001-.074c.21-12.729 3.131-24.724 8.208-35.504l-.224.529zM88.001-152.551a93.13 93.13 0 0018.595-2.125l-.613.112a85.696 85.696 0 011.752-.017c20.442 0 39.304 6.76 54.475 18.167l-.233-.168c17.434 11.897 31.592 27.319 41.692 45.324l.346.672 23.885-12.011c-16.846-29.638-43.263-52.187-74.973-63.701l-.983-.312c-9.933-3.805-21.422-6.008-33.425-6.008-.245 0-.49.001-.734.003h.038-.253c-17.954 0-35.05 3.676-50.575 10.317l.839-.319c7.842 3.177 14.474 6.553 20.777 10.414l-.611-.348zm87.966 79.982c-3.741-17.528-12.601-32.577-24.92-43.931l-.057-.052c-10.646-8.723-24.399-14.009-39.388-14.009-.548 0-1.094.007-1.639.021l.081-.002 6.005 6.005c4.58 10.593 7.467 22.892 7.978 35.801l.006.198c.252 12.439 3.17 24.136 8.203 34.627l-.218-.505 23.885 6.005c5.187-9.517 11.892-17.54 19.884-24.043l.146-.115zm-64.081 349.852c10.417 6.508 18.853 15.271 24.791 25.647l.187.354c7.282 12.012 12.012 26.321 13.086 41.638l.017.298c.513 11.622.806 25.253.806 38.952 0 39.848-2.475 79.119-7.279 117.666l.468-4.604c23.166 8.547 49.919 13.645 77.816 13.989l.152.001c4.444-7.437 8.499-16.054 11.694-25.078l.316-1.025 22.009-55.994q22.009-53.981 29.993-69.984c-9.743 67.53-25.822 128.219-47.999 185.884l1.968-5.822c7.172-1.266 15.438-1.998 23.871-2.013h233.92a112.861 112.861 0 0122.722 2.131l-.713-.118c-19.958-51.158-35.963-111.108-45.281-173.246l-.579-4.7q7.985 13.99 29.993 67.971l21.975 55.892c3.519 10.011 7.573 18.594 12.382 26.675l-.371-.674c28.05-.345 54.803-5.443 79.638-14.524l-1.669.534c-4.335-33.933-6.809-73.191-6.809-113.028 0-13.675.292-27.282.869-40.815l-.066 1.932c1.051-15.618 5.748-29.942 13.238-42.396l-.238.426c6.125-10.73 14.56-19.493 24.674-25.824l.303-.177 16.003-9.998c16.039-8.076 29.788-16.718 42.634-26.485l-.664.484c11.134-7.223 18.717-19.108 19.983-32.824l.013-.172c.094-1.065.148-2.303.148-3.554 0-7.448-1.9-14.452-5.241-20.554l.112.223c-3.687-5.083-7.98-9.43-12.842-13.058l-.158-.113-6.005-6.005c1.256 11.246 3.368 21.417 6.324 31.222l-.318-1.229-7.985-9.998c-3.724-7.272-7.77-16.5-11.342-25.96l-.669-2.02c-4.887-14.091-9.071-30.939-11.789-48.274l-.222-1.715c-.488-5.364-.767-11.602-.767-17.905 0-9.543.638-18.938 1.874-28.143l-.118 1.075c1.2-15.024 4.403-28.937 9.355-41.988l-.347 1.042v27.98l3.992-3.992a69.447 69.447 0 0013.823-21.543l.167-.466c3.528-6.469 5.602-14.168 5.602-22.352 0-2.698-.225-5.344-.659-7.919l.039.278c-1.706-7.712-6.916-13.933-13.836-17l-.154-.061c-8.145-3.205-17.578-5.063-27.444-5.063-1.244 0-2.482.03-3.712.088l.174-.007c-23.838.73-46.424 5.07-67.561 12.491l1.57-.48C548.537 2.11 506.136 27.804 469.251 59.704l.541-.458-12.011 7.985 7.985-12.011c7.984-13.737 17.262-25.568 27.943-35.963l.037-.036c21.803-23.539 47.624-42.982 76.434-57.317l1.534-.691a159.09 159.09 0 00-43.008-29.584l-.975-.41c-41.414-18.993-89.845-30.066-140.862-30.066-2.493 0-4.98.026-7.461.079l.37-.006c-2.11-.046-4.598-.073-7.091-.073-51.017 0-99.448 11.073-143.02 30.948l2.158-.882c-17.268 7.858-31.899 18.655-43.883 31.894l-.101.113c30.557 13.755 56.483 32.645 77.817 55.828l.151.167a165.73 165.73 0 0127.558 35.216l.422.783 7.985 12.011-12.011-7.985c-36.312-31.328-78.668-56.931-124.898-74.728l-2.923-.989c-19.567-6.941-42.154-11.281-65.651-12.003l-.34-.008a74.059 74.059 0 00-3.538-.081c-9.867 0-19.3 1.858-27.968 5.243l.523-.18c-7.074 3.128-12.284 9.349-13.96 16.9l-.03.161a41.291 41.291 0 00-.42 5.971 42.417 42.417 0 007.509 24.165l-.093-.143q6.005 12.011 12.011 22.009l3.992 3.992v-27.98c4.888 11.756 8.115 25.376 8.991 39.632l.018.359c1.117 8.315 1.755 17.927 1.755 27.688 0 6.445-.278 12.825-.823 19.128l.057-.819c-1.428 18.353-5.709 35.337-12.41 51.042l.399-1.053c-2.566 10.615-6.704 19.957-12.217 28.312l.206-.332-7.985 9.998c3.817-8.137 6.044-17.67 6.044-27.724a67.4 67.4 0 00-.042-2.384l.003.115-5.971 5.664c-4.851 3.494-8.863 7.822-11.902 12.808l-.109.192c-2.605 5.973-4.12 12.932-4.12 20.245 0 1.281.046 2.551.138 3.809l-.01-.168A45.016 45.016 0 0053.866 241l.115.083c12.182 9.283 25.931 17.925 40.435 25.293l1.535.707 2.013 2.013q9.998 6.21 13.922 8.189zM65.89 567.32c11.173 18.982 27.617 33.822 47.318 42.728l.658.266c19.532 9.289 42.444 14.713 66.622 14.713.51 0 1.02-.002 1.529-.007l-.078.001c-3.671-7.506-5.817-16.332-5.817-25.66 0-14.559 5.229-27.898 13.91-38.239l17.907-21.917c-32.013-.695-62.155-7.978-89.36-20.538l1.393.577c-29.359-14.81-51.542-40.247-61.752-71.133l-.247-.864q-9.998 9.998-7.985 47.975a138.749 138.749 0 00-.118 5.82c0 24.178 5.963 46.962 16.498 66.964l-.378-.786zm92.129 85.987c14.643 22.598 34.999 40.368 59.053 51.506l.866.36c-8.635-13.15-16.727-28.28-23.444-44.134l-.714-1.897c-13.494-1.282-25.696-3.39-37.567-6.336l1.738.365zm221.793 99.978q123.965 0 169.927-129.971c3.04-6.026 4.82-13.134 4.82-20.658a46.463 46.463 0 00-6.948-24.515l.115.2c-11.002-9.667-25.521-15.566-41.419-15.566-3.023 0-5.995.213-8.904.625l.334-.039H262.023c-2.575-.373-5.547-.587-8.57-.587-15.897 0-30.417 5.899-41.489 15.627l.071-.061c-4.311 7.263-6.859 16.012-6.859 25.356a50.1 50.1 0 004.874 21.627l-.13-.304q45.996 128.128 169.961 128.128zm162.011-48.112c25.389-11.847 46.313-29.575 61.637-51.506l.328-.496c-11.415 2.465-24.556 3.915-38.022 3.992h-.058c-7.03 18.444-15.064 34.262-24.525 49.082l.64-1.072zm151.945-137.955c10.961-20.274 17.568-44.312 17.981-69.857l.002-.128q0-39.991-9.998-47.975c-10.017 31.419-32.388 56.407-61.257 69.692l-.709.292c-25.164 12.155-54.659 19.474-85.809 19.993l-.178.002 16.003 22.009c8.601 10.248 13.825 23.581 13.825 38.135 0 9.32-2.142 18.139-5.961 25.992l.155-.353.774.002c24.401 0 47.512-5.525 68.15-15.392l-.954.411c20.339-9.129 36.778-23.909 47.71-42.34l.265-.483z"/></svg>