<svg width="64" height="64" viewBox="0 0 464 464" xmlns="http://www.w3.org/2000/svg"><path d="M396.267 242.944c-43.835 16.724-94.529 26.409-147.486 26.409-6.186 0-12.341-.132-18.462-.394l.874.03a424.23 424.23 0 01-17.068.331c-53.886 0-105.513-9.669-153.242-27.366l3.051.991 30.004 50.041 12.015 160.125q0 13.995 37.036 23.007c25.063 5.864 53.841 9.226 83.404 9.226 2.023 0 4.043-.016 6.059-.047l-.304.004c1.896.034 4.133.053 6.374.053 29.303 0 57.835-3.303 85.244-9.556l-2.561.492q37.036-9.012 37.036-23.007l10.001-160.125zM30.004-13.064c7.292-24.377 17.518-45.638 30.53-64.86l-.526.824c12.519-19.432 29.404-35.037 49.33-45.7l.711-.347c5.009-2.256 10.858-3.57 17.014-3.57a42.139 42.139 0 0121.215 5.692l-.203-.109c5.642 2.942 10.329 6.996 13.917 11.903l.078.112a24.201 24.201 0 015.983 11.863l.024.152c.55 1.59.868 3.422.868 5.328 0 2.803-.687 5.446-1.902 7.77l.044-.093c-1.503 2.975-4.524 4.987-8.017 5.018h-.004q-5.018 0-13.005-13.995-12.015-22.017-34.134-6.008C97.601-88.305 86.071-74.592 78.093-58.78l-.301.657C68.62-42.11 60.507-23.547 54.437-4.081l-.539 2.007c-2.848 6.933-4.501 14.98-4.501 23.414 0 6.252.909 12.292 2.601 17.994l-.114-.447c2.037 3.632 5.854 6.051 10.237 6.076h.003c12.677-2.524 23.443-9.368 30.944-18.901l.085-.111a169.023 169.023 0 0026.627-32.32l.407-.688 10.001-30.004q3.994-10.001 12.015-10.001t8.022 10.991c-.901 11.419-3.765 21.961-8.257 31.59l.236-.562c-4.159 9.724-8.265 21.71-11.563 34.028l-.452 1.984-16.111 51.884c-1.406 4.21-3.104 7.844-5.157 11.239l.139-.247c-1.211 2.733-3.758 4.677-6.789 5.014l-.038.003a6.822 6.822 0 01-5.993-2.98l-.015-.024c-.939-2.243-1.485-4.849-1.485-7.583 0-1.571.18-3.101.521-4.569l-.027.136c4.519-20.235 9.684-37.355 15.925-53.948l-.906 2.747-13.995 13.995C85.624 58.568 70.935 66.687 54.372 68.822l-.339.036a28.333 28.333 0 01-16.136-4.065l.127.071 16.009 158.077q2.014 10.001 52.021 22.017c36.276 8.9 77.922 14.006 120.76 14.006 1.167 0 2.333-.004 3.498-.011l-.179.001c.986.007 2.152.01 3.319.01 42.838 0 84.484-5.105 124.362-14.741l-3.602.735q48.027-12.015 52.021-22.017L428.25 34.826l-3.994 2.014c-9.632 10.732-20.907 19.744-33.478 26.701l-.657.333c-5.038 2.24-10.915 3.544-17.097 3.544-2.4 0-4.754-.197-7.046-.574l.25.034q-12.152-2.014-12.152-12.015c4.182-14.274 11.825-26.443 21.975-35.973l.042-.039 6.008-10.001q10.001-10.001 10.001-15.019t-8.022-3.994c-6.273 1.07-11.745 3.931-16.02 8.032l.011-.01a110.407 110.407 0 00-16.818 19.609l-.249.394c-6.134 8.913-11.84 19.103-16.586 29.813l-.481 1.215-8.022 16.009-19.627 55.981c-2.499 3.829-5.876 6.889-9.857 8.944l-.144.068c-1.405.949-3.137 1.515-5.001 1.515s-3.596-.566-5.033-1.535l.032.02c-2.296-1.531-3.808-4.079-3.891-6.985v-.012l2.014-6.008c5.221-15.106 10.628-27.665 16.814-39.759l-.805 1.733 13.995-30.004q2.014-8.022 2.014-6.008c-7.827 8.532-17.109 15.579-27.478 20.779l-.546.248c-4.258 2.176-9.287 3.451-14.614 3.451-1.903 0-3.769-.163-5.583-.475l.194.028c-5.036-1.066-8.935-4.965-9.986-9.917l-.015-.084-2.014-3.994c-8.404 8.568-20.074 13.906-32.991 13.995h-.017q-13.005-2.014-6.827-30.004c-7.42 17.473-24.262 29.59-43.982 30.003l-.052.001a16.54 16.54 0 01-2.41.171c-6.93 0-12.896-4.131-15.569-10.065l-.043-.108a81.93 81.93 0 01-.241-6.397c0-14.506 3.64-28.161 10.056-40.103l-.222.453V8.817q6.008-13.995 13.995-32.018 6.008-12.015 16.009-8.022h2.014q6.008 3.994 2.014 16.009l-6.008 8.022c-4.681 8.74-9.399 19.301-13.411 30.204l-.584 1.814q-3.994 18.023 3.004 18.023c5.524-.157 10.673-1.617 15.196-4.082l-.177.088c8.917-6.472 16.043-14.877 20.853-24.63l.174-.39c4.553-7.779 8.316-16.773 10.822-26.278l.169-.756 3.994-10.24q3.994-10.001 9.012-10.001a12.429 12.429 0 019.004 3.986l.007.008q3.994 3.994 0 13.995l-13.995 32.018c-3.103 6.99-5.239 15.098-5.987 23.604l-.021.29q0 8.022 13.995 2.014c5.357-2.076 9.983-4.781 14.094-8.099l-.099.078q2.014-8.022 32.018-86.053l20.003-50.041c1.847-5.845 7.221-10.008 13.567-10.008.151 0 .301.002.45.007l-.022-.001a12.157 12.157 0 016.016 3.011l-.008-.008q3.994 3.004 2.014 10.991L296.05-11.185q-13.995 36.012-17.067 45.911t1.195 10.24q13.995 0 46.047-34.134l2.014-2.014 6.008-13.995c1.411-6.913 4.197-13.01 8.075-18.25l-.088.124q3.994-3.994 6.008-3.994 8.022 0 8.022 6.827l.001.316c0 4.536-.737 8.9-2.099 12.979l.084-.289 10.001-10.001c7.924-9.255 19.621-15.083 32.678-15.083.824 0 1.643.023 2.456.069l-.113-.005c8.434.611 15.046 7.603 15.046 16.14 0 .326-.01.65-.029.972l.002-.044C409.843 2.75 400.73 18.368 388.292 30.62l-.012.012-3.994 2.014c-2.477 3.449-4.517 7.432-5.92 11.705l-.088.31q0 2.014 3.994 2.014c5.507-1.464 10.237-4.258 13.995-8.021L430.401 8.65l30.004-272.188c-38.395 13.958-82.716 22.03-128.921 22.03-1.118 0-2.235-.005-3.35-.014l.171.001c-28.725 1.912-62.271 3.002-96.071 3.002s-67.346-1.09-100.604-3.237l4.533.234c-.945.008-2.062.013-3.18.013-46.205 0-90.525-8.071-131.627-22.881l2.706.852zm434.293-268.195h-2.014q0-8.022-37.036-16.009c-28.037-5.802-61.348-10.089-95.308-11.938l-1.771-.077 20.003-81.923 114.077-122.099q6.008-3.994-10.001-18.023a22.731 22.731 0 00-11.865-6.8l-.15-.027q-6.008-.99-8.022.99L310.213-409.468 284.168-311.4l-52.021-2.048c-3.663-.042-7.99-.066-12.323-.066-53.527 0-106.2 3.659-157.781 10.74l5.986-.673Q-.001-293.446-.001-281.43q0 20.003 120.085 28.024c33.538 2.55 72.64 4.003 112.081 4.003s78.541-1.453 117.251-4.309l-5.171.306q120.051-7.953 120.051-27.99zm-139.951 10.001q0 2.014-8.022 5.018c-5.311 1.912-11.439 3.017-17.826 3.017-.417 0-.834-.005-1.249-.014l.062.001a54.066 54.066 0 01-19.391-3.122l.378.118q-8.022-3.004-8.022-5.018t6.008-3.994l-2.014 2.014q0 3.994 22.017 3.994t22.017-3.994l2.014-2.014q3.891 1.877 3.891 3.857z"/></svg>