<svg width="64" height="64" viewBox="0 0 1092 1092" xmlns="http://www.w3.org/2000/svg"><path d="M994.108 1050.866c-42.496-25.358-74.871-63.899-91.836-109.899l-.477-1.477c-.796-2.097-1.257-4.522-1.257-7.054 0-7.187 3.711-13.506 9.321-17.148l.079-.048c110.342-79.932 181.435-208.18 181.988-353.06v-.087c0-260.834-244.455-472.759-545.963-472.759C244.455 92.064 0 303.898 0 561.956c0 260.698 244.455 472.577 545.963 472.577 1.874.024 4.088.037 6.305.037 38.163 0 75.394-3.99 111.299-11.575l-3.498.618c1.939-.646 4.172-1.018 6.492-1.018a21.14 21.14 0 0115.25 6.472l.006.006c80.632 49.731 177.623 80.595 281.538 84.233l.998.028c1.421.185 3.065.291 4.733.291 21.211 0 38.43-17.097 38.625-38.262v-.019c5.46-8.235-5.505-16.424-13.649-24.477zm-146.727-43.45a8.266 8.266 0 012.772 5.332l.003.036a5.828 5.828 0 01-5.443 5.459l-.017.001c-60.632-17.229-113.318-45.233-158.477-82.106l.784.621a27.489 27.489 0 00-18.364-6.99 27.58 27.58 0 00-9.128 1.544l.194-.059c-34.162 8.347-73.469 13.303-113.875 13.648l-.231.002c-252.554 0-456.334-168.339-456.334-377.625s203.781-377.625 456.334-377.625 456.38 168.339 456.38 377.625C998.192 697.04 925.31 808.952 818.99 867.862l-1.819.925c-9.018 4.92-15.278 13.912-16.323 24.438l-.01.13c7.018 43.285 23.324 81.81 46.835 114.85l-.564-.835zm-2.73-334.084c.003-.136.005-.296.005-.457 0-11.81-9.574-21.384-21.384-21.384l-.293.002h.015a20.771 20.771 0 00-13.664 5.474l.015-.014c-68.992 57.536-158.587 92.466-256.341 92.466-2.476 0-4.946-.022-7.411-.067l.37.005c-100.022-.684-191.77-35.547-264.285-93.476l.858.662a28.094 28.094 0 00-13.512-5.446l-.137-.014c-12.098.213-21.824 10.07-21.824 22.199 0 .818.044 1.627.131 2.422l-.009-.098a36.606 36.606 0 0013.579 26.607l.07.054c66.74 79.932 166.426 130.421 277.903 130.421 2.541 0 5.075-.026 7.604-.078l-.378.006h2.775c3.657.138 7.951.217 12.264.217 110.589 0 209.066-51.862 272.435-132.592l.567-.75c2.73-8.189 10.737-19.109 10.737-27.298z"/></svg>