<svg width="64" height="64" viewBox="0 0 1005 1005" xmlns="http://www.w3.org/2000/svg"><path d="M648.919 2.936c-4.137-.368-8.95-.578-13.811-.578-29.388 0-56.984 7.67-80.896 21.118l.83-.429c-39.403 20.293-68.973 55.024-82.027 97.028l-.309 1.156v2.885l-1.507 10.12-5.77-10.12-14.426-25.838c-19.534-32.729-50.349-57.003-86.965-67.648l-1.056-.263c-8.89-2.46-19.099-3.873-29.638-3.873-20.34 0-39.451 5.266-56.042 14.509l.587-.3c-29.886 19.407-50.48 50.957-54.807 87.493l-.055.572c-1.668 9.344-2.622 20.1-2.622 31.078 0 33.653 8.963 65.212 24.631 92.422l-.477-.899 10.163 14.469-34.752-11.498c-12.126-3.094-26.046-4.87-40.382-4.87-30.801 0-59.686 8.199-84.593 22.533l.824-.437c-39.053 19.707-69.058 52.574-84.603 92.651l-.404 1.184c-6.898 15.3-10.917 33.17-10.917 51.977 0 23.313 6.175 45.183 16.978 64.065l-.333-.633c8.606 14.932 19.733 27.433 32.928 37.324l.317.227c17.107 16.697 39.424 28.126 64.287 31.624l.61.07 10.077 2.842-21.532 18.862c-17.94 15.885-31.467 36.367-38.761 59.609l-.254.938c-2.423 8.01-3.818 17.216-3.818 26.747 0 18.407 5.202 35.6 14.217 50.187l-.236-.411c6.423 11.667 15.122 21.33 25.57 28.674l.268.178a73.847 73.847 0 0043.04 18.756l.281.02c12.884 3.188 27.676 5.016 42.894 5.016 20.788 0 40.778-3.412 59.442-9.706l-1.311.384-25.838 43.063-7.235 18.776c-5.334 15.239-8.415 32.807-8.415 51.095 0 28.402 7.431 55.067 20.455 78.16l-.413-.797c10.519 16.269 21.437 30.417 33.403 43.595l-.245-.274a153.484 153.484 0 0063.97 32.942l1.055.217c14.917 4.658 32.068 7.341 49.846 7.341 28.642 0 55.658-6.965 79.445-19.293l-.963.454c38.645-21.017 67.302-56.275 79.179-98.554l.273-1.137 1.378-8.613c20.89 26.504 48.885 46.547 81.117 57.35l1.219.354c9.435 3.433 20.326 5.417 31.681 5.417 19.352 0 37.358-5.766 52.392-15.673l-.358.222c24.828-15.64 42.993-39.922 50.382-68.536l.174-.795c3.453-14.961 5.432-32.14 5.432-49.781s-1.979-34.821-5.727-51.328l.295 1.547c13.143 9.57 28.56 16.982 45.216 21.322l.948.21c16.023 6.095 34.551 9.624 53.903 9.624 26.767 0 51.956-6.752 73.959-18.645l-.825.408c38.138-21.786 66.249-57.437 77.682-99.924l.262-1.145c4.33-14.096 6.823-30.301 6.823-47.087 0-28.745-7.311-55.782-20.176-79.353l.433.868-7.321-11.627c-10.581-18.266-24.111-33.609-40.112-45.893l-.367-.271c-13.527-8.804-29.104-17.031-45.426-23.829l-1.944-.718c41.213-17.542 73.358-49.716 90.445-89.844l.418-1.106c3.801-10.068 6.001-21.707 6.001-33.86 0-18.344-5.013-35.517-13.744-50.224l.25.455v-2.67c-16.502-28.5-43.51-49.365-75.6-57.44l-.837-.178c-13.63-2.464-29.317-3.873-45.334-3.873-7.902 0-15.723.343-23.45 1.015l1.003-.07-47.714 10.12 15.933-36.087c5.267-15.149 8.309-32.61 8.309-50.782 0-30.295-8.455-58.615-23.133-82.729l.398.704-4.306-7.321c-21.297-34.83-55.453-60.02-95.713-69.098l-1.007-.191c-9.522-2.634-20.784-4.66-32.337-5.675l-.736-.052zm-24.546 60.891c2.588-.254 5.595-.398 8.636-.398 11.858 0 23.203 2.2 33.648 6.213l-.642-.217c28.261 5.45 51.59 22.98 64.781 46.886l.244.483c7.254 14.476 11.501 31.541 11.501 49.599 0 .306-.001.612-.004.918v-.047l-4.306 31.781c-5.949 16.453-13.213 30.669-21.988 43.789l.457-.726-129.879 158.903c-12.114-8.967-25.853-17.157-40.385-23.93l-1.473-.616-14.469-163.21-1.421-57.705 1.378-14.426c8.188-28.587 27.491-51.656 52.812-64.666l.586-.274c11.709-6.796 25.505-11.403 40.223-12.884l.429-.035zM327.969 86.952h.121c6.41 0 12.448 1.593 17.74 4.406l-.205-.099c30.032 10.014 53.523 32.49 64.696 61.13l.243.709c7.663 13.325 13.624 28.787 17.046 45.18l.179 1.027 28.852 170.401-21.532 7.235-128.501-140.042-7.235-14.383c-10.193-19.392-16.175-42.372-16.175-66.749 0-3.439.119-6.851.353-10.23l-.025.456a59.613 59.613 0 01-.021-1.591c0-21.755 11.433-40.839 28.617-51.573l.256-.149a24.618 24.618 0 0115.493-5.598h.01zm522.357 216.737l.52-.001c6.614 0 13.14.376 19.558 1.107l-.785-.073c21.803 1.174 40.457 13.609 50.354 31.552l.159.315 5.814 18.646-2.885 14.426c-13.282 29.056-37.316 51.267-66.884 61.844l-.812.253c-13.801 6.311-29.811 10.865-46.609 12.846l-.761.073-177.55 21.532-2.885-10.12-2.928-4.306 5.814-7.192 145.855-121.266 17.225-7.148c16.797-7.773 36.441-12.361 57.143-12.488h.045zm-665.8 7.881c7.693.418 14.91 1.571 21.854 3.398l-.753-.168 39.101 15.804 127.036 92.543c-10.072 12.262-17.971 26.746-22.845 42.557l-.237.893-207.909 25.838-14.383-2.842c-23.93-2.656-44.005-17.005-54.592-37.124l-.184-.384c-5.718-10.211-9.085-22.407-9.085-35.389 0-10.726 2.298-20.914 6.43-30.101l-.187.464c9.517-27.434 29.679-49.071 55.416-60.335l.653-.255c15.702-9.43 34.649-15.008 54.9-15.008 1.698 0 3.388.039 5.067.117l-.238-.009zm308.332 115.84c.347-.005.757-.007 1.168-.007 25.293 0 48.289 9.836 65.372 25.892l-.05-.047c17.884 16.62 29.037 40.272 29.037 66.529 0 .531-.005 1.061-.014 1.59l.001-.08c.043 1.014.067 2.204.067 3.399 0 25.568-11.141 48.534-28.834 64.308l-.085.075c-16.629 17.775-40.228 28.852-66.414 28.852h-.035.002a86.07 86.07 0 01-1.981.022c-25.986 0-49.379-11.098-65.7-28.812l-.057-.062c-17.783-16.706-28.86-40.372-28.86-66.626 0-.406.003-.812.008-1.217l-.001.061c.262-26.594 11.251-50.571 28.838-67.854l.014-.014c17.434-16.025 40.79-25.847 66.439-25.847.472 0 .943.003 1.414.01l-.071-.001zm362.506 111.103l14.469 1.507c22.945 6.732 41.665 21.67 53.167 41.343l.231.428c13.427 15.684 21.599 36.213 21.599 58.651 0 1.227-.024 2.448-.073 3.663l.006-.175-4.306 28.852c-6.166 27.564-24.313 49.954-48.559 61.776l-.533.235c-13.717 8.325-30.298 13.252-48.029 13.252-11.782 0-23.056-2.176-33.443-6.147l.642.216c-15.604-3.438-28.913-11.645-38.679-22.989l-.078-.093-151.582-125.658 10.12-21.532 4.306-17.225 163.123-14.426 57.705-1.507zM569.597 643.932l60.59 62.011 37.465 46.207 7.321 14.512c11.109 18.374 17.683 40.569 17.683 64.299 0 3.773-.166 7.507-.492 11.195l.034-.477c.024.615.037 1.338.037 2.064 0 21.226-11.503 39.765-28.615 49.723l-.274.147c-6.701 4.295-14.878 6.847-23.65 6.847-3.369 0-6.651-.376-9.805-1.09l.296.056c-30.385-10.247-54.006-33.374-64.71-62.714l-.229-.718-17.225-47.714-21.532-125.615 24.46-8.613 18.776-10.12zm-155.889 2.928c12.895 7.636 27.98 13.18 44.066 15.711l.72.093c2.842 49.092 7.105 101.069 14.297 157.353v57.791l-1.421 14.34c-9.434 26.33-28.467 47.253-52.779 58.943l-.62.269c-14.862 8.723-32.732 13.875-51.805 13.875-9.839 0-19.359-1.371-28.377-3.932l.731.177c-27.188-6.136-49.401-23.634-61.769-47.124l-.242-.504c-7.668-14.226-12.387-31.051-12.915-48.928l-.004-.164 7.321-33.159c3.261-15.928 10.876-29.717 21.538-40.486l-.006.007L413.709 646.86z"/></svg>