<svg width="64" height="64" viewBox="0 0 1024 1024" xmlns="http://www.w3.org/2000/svg"><path d="M802.133 608.768v-80.009a59.49 59.49 0 00-2.393-18.716l.106.421q-2.287-6.827-13.653-6.827t-11.435 25.156v6.827c-1.128 10.449-1.771 22.569-1.771 34.84 0 23.249 2.31 45.959 6.713 67.912l-.367-2.195q2.287 4.574 10.24 4.574a9.697 9.697 0 0010.221-6.758l.018-.069c1.484-5.354 2.337-11.501 2.337-17.848 0-.926-.018-1.847-.054-2.764l.004.132zM605.559 467.046c.071-1.046.111-2.268.111-3.499 0-6.96-1.293-13.618-3.652-19.747l.127.376q-3.413-6.827-19.422-6.827v192q16.009 0 19.422-7.987c2.234-6.663 3.523-14.335 3.523-22.308 0-1.398-.04-2.787-.118-4.166l.009.191v-128zM1024 131.072c.011-.567.017-1.236.017-1.906 0-29.717-12.251-56.574-31.977-75.794l-.023-.022c-19.242-19.749-46.098-32-75.816-32-.67 0-1.338.006-2.005.019l.1-.001H109.705a97.906 97.906 0 00-1.873-.017c-29.734 0-56.603 12.264-75.826 32.01l-.023.024C12.234 72.627-.016 99.483-.016 129.2c0 .658.006 1.315.018 1.97l-.001-.098v804.625c-.01.547-.016 1.192-.016 1.838 0 29.717 12.25 56.573 31.976 75.793l.023.022c19.242 19.749 46.098 32 75.816 32 .67 0 1.338-.006 2.005-.019l-.1.001h804.591c.567.011 1.236.017 1.906.017 29.717 0 56.574-12.251 75.794-31.977l.022-.023c19.749-19.242 31.999-46.098 31.999-75.815 0-.646-.006-1.291-.017-1.935l.001.097zm-802.133 256v292.625h-75.571V387.14zm258.287 0v292.625h-64.137V480.836L388.71 679.697h-48.128L313.275 485.41v194.287h-66.423V387.14h98.27q6.827 43.418 18.295 134.861l2.287 2.287 16.009-137.148zm198.86 102.843v61.713c.196 5.483.308 11.925.308 18.393 0 25.761-1.774 51.107-5.208 75.923l.325-2.873c-4.272 16.357-17.416 28.793-33.86 31.973l-.274.044c-23.385 3.149-50.416 4.946-77.867 4.946a627.99 627.99 0 01-21.436-.366l1.034.028h-34.133V387.139h64c2.904-.105 6.315-.165 9.74-.165 18.375 0 36.347 1.725 53.763 5.021l-1.789-.282c21.308 4.624 37.586 21.73 40.922 43.123l.038.295c3.032 12.624 4.77 27.117 4.77 42.017 0 2.089-.034 4.17-.102 6.242l.008-.302zm196.574 40.96h-2.458v82.295c.099 1.88.155 4.081.155 6.296 0 14.933-2.557 29.268-7.257 42.592l.276-.896c-7.657 12.495-21.237 20.706-36.735 20.706a43.37 43.37 0 01-4.583-.242l.187.016c-.45.011-.979.017-1.51.017-19.1 0-36.367-7.844-48.758-20.485l-.011-.011-2.287 18.295h-68.608V386.901h70.827v95.983c11.608-13.398 28.647-21.823 47.654-21.823 1.332 0 2.654.041 3.965.123l-.18-.009a40.772 40.772 0 014.343-.224c14.938 0 28.063 7.764 35.56 19.477l.101.169c5.998 12.28 9.505 26.719 9.505 41.978 0 2.934-.13 5.838-.384 8.706l.027-.371z"/></svg>