<svg width="64" height="64" viewBox="0 0 1024 1024" xmlns="http://www.w3.org/2000/svg"><path d="M931.2 21.333H92.8C41.568 21.382.049 62.901 0 114.128v838.405c.049 51.232 41.568 92.751 92.795 92.8H931.2c51.232-.049 92.751-41.568 92.8-92.795V114.133c-.049-51.232-41.568-92.751-92.795-92.8h-.005zM342.187 220.458c33.98 0 61.525 27.546 61.525 61.525s-27.546 61.525-61.525 61.525v1.152c-34.286 0-62.08-27.794-62.08-62.08s27.794-62.08 62.08-62.08zm418.816 589.44c-2.949.366-6.362.575-9.824.575-46.516 0-84.224-37.708-84.224-84.224 0-1.944.066-3.872.195-5.783l-.014.259v-.373c0-16.28 2.338-32.013 6.696-46.883l-.296 1.176 30.293-108.587c2.984-9.439 4.704-20.294 4.704-31.55 0-.533-.004-1.065-.012-1.597l.001.08a49.84 49.84 0 00.213-4.686c0-28.489-23.095-51.584-51.584-51.584-1.442 0-2.869.059-4.281.175l.185-.012c-43.221 0-71.68 31.019-86.4 90.88l-58.923 236.16H404.777l18.432-74.24c-23.594 46.28-69.909 77.97-123.844 80.415l-.316.011c-3.009.389-6.49.612-10.022.612-45.526 0-82.432-36.906-82.432-82.432 0-2.935.153-5.835.453-8.691l-.03.357c.171-16.501 2.183-32.444 5.84-47.75l-.294 1.456 46.933-191.573h-72.832l22.101-81.067h174.933l-69.12 273.067c-3.597 12.482-5.902 26.901-6.392 41.778l-.008.291c0 17.493 8.533 22.613 22.059 25.6 50.455-.14 93.302-32.563 108.981-77.695l.246-.812 45.227-181.333h-73.515l22.187-80h158.72l-20.48 92.16c25.912-53.559 76.218-91.759 136.085-100.367l.961-.113c58.848.3 106.437 48.074 106.437 106.964 0 4.708-.304 9.345-.894 13.893l.057-.537v.182c0 23.928-3.745 46.982-10.68 68.607l.44-1.589-29.44 105.643c-2.342 8.335-3.875 17.982-4.259 27.923l-.007.237c0 18.517 7.68 27.52 21.077 27.52s31.36-10.24 51.2-66.56l40.235 15.36c-23.68 83.797-67.243 118.357-121.6 118.357z"/></svg>