<svg width="64" height="64" viewBox="0 0 755 755" xmlns="http://www.w3.org/2000/svg"><path d="M243.234 544.26s-39.151 22.767 27.853 30.447c24.53 3.638 52.843 5.715 81.642 5.715 46.233 0 91.216-5.354 134.361-15.477l-3.967.784c15.95 9.749 34.502 18.991 53.857 26.641l2.497.87c-200.465 85.914-453.666-4.983-296.209-48.981zm-24.473-112.128s-43.895 32.495 23.142 39.424c29.316 3.684 63.24 5.786 97.656 5.786 62.33 0 123.05-6.895 181.438-19.964l-5.514 1.037a121.314 121.314 0 0041.311 25.433l.843.269c-242.347 70.861-512.341 5.598-338.876-51.985zm206.472-190.19c49.391 56.866-12.971 108.032-12.971 108.032s125.406-64.853 67.823-145.818C426.291 128.551 385.024 90.97 608.358-38.532c0 0-350.549 87.552-183.125 280.474zm265.114 385.262s28.945 23.893-31.881 42.325c-115.712 35.055-481.587 45.636-583.236 1.399-36.523-15.906 31.983-37.956 53.521-42.564 9.917-2.528 21.302-3.979 33.025-3.979.81 0 1.618.007 2.424.021l-.121-.002c-40.619-28.638-262.622 56.218-112.64 80.486 408.713 66.287 745.062-29.867 639.044-77.653zM262.042 315.977s-186.095 44.203-65.911 60.245c32.398 2.671 70.129 4.194 108.215 4.194 48.583 0 96.587-2.478 143.893-7.314l-5.938.492c77.005-6.485 154.351-20.48 154.351-20.48-18.127 7.944-33.491 16.318-48.051 25.822l1.254-.768c-188.996 49.698-554.086 26.59-448.99-24.269 46.355-24.015 101.194-38.098 159.322-38.098.652 0 1.304.002 1.956.005h-.1zM595.9 502.618c192.102-99.84 103.287-195.755 41.267-182.852-8.49 1.592-15.868 3.635-22.984 6.224l1.002-.319c4.057-5.714 9.649-10.097 16.178-12.583l.24-.08c122.641-43.11 216.986 127.181-39.595 194.56a16.77 16.77 0 003.813-4.923l.044-.095zM480.085-247.667S586.479-141.239 379.153 22.43c-166.229 131.277-37.922 206.131 0 291.669-97.041-87.552-168.243-164.625-120.491-236.373C328.806-27.575 523.059-78.605 480.119-247.701zM280.951 773.124c184.32 11.81 467.627-6.554 474.453-93.798 0 0-12.902 33.075-152.405 59.358-77.07 13.888-165.779 21.828-256.342 21.828-74.19 0-147.136-5.329-218.475-15.625l8.146.965s23.586 19.524 144.759 27.307z"/></svg>