<svg width="64" height="64" viewBox="0 0 578 578" xmlns="http://www.w3.org/2000/svg"><path d="M121.387 599.333h-.023c-67.04 0-121.387-54.347-121.387-121.387 0-11.323 1.55-22.285 4.451-32.683l-.203.854-.64-.384 3.84-9.643 298.667-775.125c1.561-8.039 2.454-17.284 2.454-26.737 0-9.617-.924-19.017-2.689-28.118l.149.925a20.17 20.17 0 01-.412-4.112c0-2.235.353-4.387 1.008-6.403l-.041.147.597-1.493v-.299l.384-.811c4.608-12.459 19.2-18.731 43.008-18.731 39.789 2.064 76.979 10.856 111.229 25.259l-2.173-.811c33.112 12.357 61.75 27.822 87.832 46.614l-1.091-.748c25.6 19.2 35.925 36.437 30.165 51.2l-1.323 1.92-.683.64a32.764 32.764 0 01-6.344 6.995l-.056.045c-14.024 11.382-25.912 24.696-35.444 39.656l-.396.664L230.698 532.73l-.683-.256c-20.695 39.697-61.456 66.384-108.471 66.603h-.286zM28.075 440.698l-.853 2.133c-3.923 10.342-6.194 22.299-6.194 34.787 0 42.569 26.394 78.974 63.71 93.742l.682.238c10.473 4.16 22.608 6.572 35.307 6.572l.427-.001h-.022.221c42.285 0 78.419-26.332 92.901-63.492l.233-.679 1.152-2.603 296.917-771.84c11.399-18.903 25.286-34.978 41.46-48.39l.311-.25.683-.683c.512-.64.853-.64.853-1.28 0-2.56-2.603-11.52-23.765-27.52-23.352-16.826-50.123-31.219-78.706-41.894l-2.36-.773c-29.739-12.455-64.197-20.705-100.274-22.993l-.931-.047c-16.64 0-22.357 3.499-23.253 5.376v1.707c1.554 8.6 2.442 18.498 2.442 28.604 0 12.768-1.418 25.206-4.105 37.163l.213-1.127-297.045 773.12zM409.941-50.267c-22.176 25.461-48.149 46.892-77.179 63.611l-1.456.773c-40.35 10.754-73.304 21.775-105.399 34.497l6.412-2.241c-20.408 11.997-37.345 27.735-50.347 46.416l-.341.517L44.458 449.999c-2.766 7.895-4.364 16.997-4.364 26.472 0 34.712 21.445 64.416 51.808 76.585l.555.197c8.438 3.288 18.206 5.194 28.419 5.194 33.527 0 62.257-20.536 74.298-49.716l.195-.534L409.94-50.267zM199.339 375.76a8.4 8.4 0 013.561-.779 8.535 8.535 0 017.766 4.992l.022.053a8.484 8.484 0 01.705 3.413 8.62 8.62 0 01-16.512 3.468l-.022-.055a8.4 8.4 0 01-.65-3.268 8.536 8.536 0 015.076-7.804l.054-.022zm-43.264-76.8c-1.486.653-3.217 1.033-5.038 1.033-7.069 0-12.8-5.731-12.8-12.8s5.731-12.8 12.8-12.8c5.148 0 9.586 3.039 11.618 7.421l.033.079a11.914 11.914 0 011.239 5.328c0 5.152-3.227 9.55-7.769 11.285l-.083.028zm12.202-46.934c-1.29-2.905-2.041-6.295-2.041-9.86 0-9.885 5.776-18.421 14.137-22.417l.15-.064c2.88-1.287 6.241-2.037 9.778-2.037 9.79 0 18.239 5.745 22.159 14.047l.063.149c1.14 2.733 1.803 5.909 1.803 9.239 0 13.573-11.003 24.576-24.576 24.576-9.603 0-17.919-5.507-21.962-13.535l-.064-.141h.555zM271.872 155.6c1.521-.689 3.298-1.09 5.169-1.09 7.069 0 12.8 5.731 12.8 12.8s-5.731 12.8-12.8 12.8c-5.225 0-9.718-3.13-11.707-7.618l-.032-.082c-.67-1.503-1.06-3.256-1.06-5.101 0-5.198 3.099-9.673 7.55-11.677l.081-.033zm-55.04-58.667a8.407 8.407 0 013.472-.738 8.533 8.533 0 11-7.716 12.181l-.022-.052a8.402 8.402 0 01-.795-3.597 8.533 8.533 0 015.008-7.773l.054-.022zm143.829-472.96c4.267-11.136 42.368-6.912 85.12 9.643s73.771 38.784 69.547 49.92-42.667 6.997-85.333-9.429-73.984-38.827-69.632-50.176z"/></svg>