<svg width="64" height="64" viewBox="0 0 926 926" xmlns="http://www.w3.org/2000/svg"><path d="M925.772 773.344c-.338 23.072-4.711 45.022-12.443 65.316l.439-1.312-33.946 109.985H35.829l-14.01-40.118c-8.438-18.242-15.663-39.621-20.587-61.865l-.398-2.139c-.524-2.278-.824-4.893-.824-7.578 0-9.487 3.749-18.099 9.846-24.435l-.011.011a112.445 112.445 0 0127.289-17.703l.701-.289c8.871-4.187 16.111-8.146 23.109-12.463l-1.013.581q29.903-19.997 79.897-49.993l44.007-25.984c16.258-7.072 30.172-16.497 42.034-28.022l-.033.032q7.993-12.005-12.005-42.001l-7.993-14.01c-8.582-17.496-14.3-37.89-15.95-59.423l-.035-.569c-32.894-4.762-60.687-23.345-77.721-49.562l-.262-.431c-14.409-22.319-24.928-48.572-29.873-76.744l-.185-1.27c-2.382-9.849-3.748-21.156-3.748-32.783 0-20.673 4.32-40.338 12.106-58.14l-.364.935 4.012-5.987c3.09-4.579 5.502-9.915 6.932-15.639l.073-.346a79.077 79.077 0 00-3.229-24.569l.142.559c-1.047-5.271-1.766-11.461-2-17.775l-.006-.217q-4.012-126.002 59.869-155.998c8.558-30.502 25.34-56.358 47.796-75.846l.191-.162c22.708-18.524 48.289-35.157 75.577-48.896l2.406-1.098 29.996-15.986c19.902-11.767 43.007-22.57 67.173-31.132l2.817-.87 9.999-4.012c40.52-13.997 87.216-22.08 135.799-22.08 14.862 0 29.547.756 44.02 2.233l-1.818-.15c61.52 2.341 117.971 22.196 165.032 54.685l-1.041-.68c22.587 18.325 42.831 37.297 61.651 57.607l.347.379a273.24 273.24 0 0149.279 66.41l.714 1.482c25.411 56.675 40.213 122.836 40.213 192.455 0 3.349-.034 6.69-.102 10.023l.008-.499c.105 4.694.165 10.225.165 15.771 0 72.713-10.282 143.025-29.47 209.56l1.316-5.329c-6.82 25.321-14.331 46.607-23.218 67.159l1.214-3.155-9.999 15.986q-19.997 32.002-17.004 42.001c13.134 18.665 28.688 34.533 46.436 47.592l.564.396 29.996 25.984q38.112 32.125 40.118 50.117zM363.81-8.62c-39.568 11.413-74.131 27.799-105.311 48.822l1.313-.834c-31.932 18.322-57.287 44.936-73.58 76.936l-.484 1.047c10.679-2.414 19.705-5.162 28.452-8.475l-1.45.482c8.564-3.415 18.475-5.576 28.838-5.982l.171-.005h9.999c2.703.653 5.805 1.027 8.996 1.027s6.293-.374 9.267-1.082l-.271.054q9.999-2.006 29.996-35.983c5.001-9.537 10.305-17.72 16.264-25.368l-.278.371a117.333 117.333 0 0119.591-16.743l.406-.261c7.465-5.129 13.991-10.381 20.097-16.078l-.1.092 5.987-2.006q12.005-4.012 12.005-12.005-5.925-6.018-9.906-4.012zM153.807 177.219c-12.748 17.202-20.824 38.554-21.992 61.726l-.011.272c-.354 6.647-.556 14.43-.556 22.26 0 16.814.931 33.411 2.743 49.741l-.181-2.011v4.012c12.359-8.024 27.474-12.795 43.704-12.795 3.982 0 7.897.287 11.725.842l-.436-.052c19.307 2.444 36.23 11.159 49.002 24.005l.004.004c12.341 11.921 20.003 28.616 20.003 47.101 0 .312-.002.623-.007.934l.001-.047q12.005 0 14.01-14.01c-1.158-9.681-3.261-18.469-6.252-26.835l.266.851-4.012-12.005c-1.738-9.119-2.732-19.609-2.732-30.33 0-5.522.264-10.982.779-16.368l-.053.686c.613-17.804 2.407-34.687 5.318-51.185l-.318 2.179q4.999-32.989 7.005-51.012c.012-.698.019-1.521.019-2.346 0-17.067-2.935-33.448-8.327-48.667l.315 1.019c-43.66 2.595-82.322 22.067-109.917 51.921l-.099.109zm74.002 400.132c6.814 26.562 14.34 48.876 23.273 70.46l-1.27-3.463c8.354 21.773 18.449 40.568 30.56 57.847l-.564-.849c14.174 18.55 34.13 32.047 57.148 37.837l.714.152c23.143 4.799 50.669 8.364 78.73 9.932l1.507.067c6.127-10.521 17.193-17.578 29.939-17.99l.057-.001c3.062-.289 6.622-.454 10.22-.454 11.321 0 22.26 1.631 32.596 4.671l-.816-.206c-31.897-16.376-58.591-38.601-79.596-65.487l-.393-.523a378.601 378.601 0 01-35.187-42.819l-.796-1.188c-9.662-14.777-16.115-32.478-17.955-51.528l-.037-.472 5.987 5.987c23.212 33.582 46.862 62.944 72.45 90.482l-.453-.494c28.158 27.033 62.16 48.212 99.9 61.437l1.938.591c14.939 4.757 32.122 7.499 49.945 7.499 20.086 0 39.359-3.482 57.247-9.875l-1.188.37c35.154-10.669 65.755-26.376 92.809-46.572l-.784.56c16.772-11.973 30.312-27.397 39.778-45.307l.34-.706 9.999-14.01c28.175-41.103 49.596-89.302 61.343-141.172l.531-2.791c10.585-42.466 16.658-91.216 16.658-141.386a619.02 619.02 0 00-.726-29.993l.054 1.401v-19.997q-2.006-40.118-4.012-57.986c-1.827-17.789-6.79-34.046-14.339-48.758l.359.771c-10.193-19.238-27.033-33.814-47.393-40.835l-.595-.178c-6.334-3.239-13.816-5.138-21.742-5.138-13.374 0-25.486 5.405-34.27 14.151l.002-.002c-.989-2.891-1.56-6.222-1.56-9.686 0-11.815 6.639-22.079 16.391-27.265l.167-.081c8.933-5.184 19.657-8.243 31.095-8.243a62.682 62.682 0 0120.359 3.375l-.442-.132-12.005-14.01q-24.009-32.002-37.989-47.987c-13.436-15.221-29.312-27.907-47.084-37.541l-.904-.448c-36.174-22.033-78.749-37.572-124.286-43.814l-1.715-.192c-14.376-3.495-30.881-5.499-47.853-5.499-30.428 0-59.351 6.442-85.48 18.036l1.345-.533q-133.995 66.01-165.997 139.981c6.525 13.883 10.333 30.152 10.333 47.31 0 3.062-.121 6.096-.359 9.098l.025-.396q-2.006 17.991-9.999 57.986t-9.999 60.054c.776 17.752 3.644 34.517 8.368 50.484l-.375-1.478c4.211 13.846 7.069 29.901 7.97 46.475l.023.524q-9.999 17.991-51.999 15.986c-2.848-17.257-8.435-32.73-16.35-46.711l.364.699c-6.257-13.213-18.864-22.513-33.772-23.995l-.174-.014c-2.896-.462-6.236-.726-9.636-.726-17.7 0-33.73 7.15-45.359 18.72l.003-.003c-14.562 13.627-23.95 32.627-24.99 53.821l-.007.184c-.028.979-.044 2.131-.044 3.286 0 27.395 9.032 52.68 24.281 73.04l-.227-.317c10.989 23.781 34.638 39.986 62.071 39.986.615 0 1.227-.008 1.838-.024l-.09.002c9.21-2.503 17.235-6.635 24.148-12.11l-.138.106a43.728 43.728 0 0123.828-9.984l.181-.014a18.398 18.398 0 013.946 11.426 18.51 18.51 0 01-.897 5.709l.037-.131c-3.304 6.315-7.664 11.631-12.902 15.914l-.09.071c-5.24 3.921-9.113 9.414-10.934 15.774l-.052.211c.108 10.427 1.919 20.396 5.167 29.69l-.198-.651zm443.985 249.967c-.932 2.841-1.47 6.112-1.47 9.507 0 1.94.176 3.84.512 5.683l-.029-.193c.266 1.809.417 3.897.417 6.021 0 3.904-.513 7.688-1.474 11.288l.069-.305c30.322 8.126 65.301 13.188 101.328 14.001l.51.009c5.572-10.068 8.852-22.074 8.852-34.846 0-3.941-.312-7.81-.914-11.582l.055.416a214.863 214.863 0 00-3.986-43.322l.221 1.352c-1.303-12.734-7.186-23.891-15.951-31.97l-.035-.032c-4.343-1.576-9.355-2.488-14.581-2.488a43.783 43.783 0 00-19.62 4.609l.255-.115c-14.473 7.131-26.936 15.123-38.39 24.32l.401-.311q-20.09 11.974-26.262 15.986l2.006 4.012c2.175 4.677 3.612 10.116 4.004 15.843l.008.143c4.317-1.434 9.286-2.26 14.449-2.26 8.663 0 16.782 2.328 23.765 6.394l-.225-.121h-7.993l-.216-.001c-9.61 0-18.522 2.99-25.855 8.091l.149-.098zM637.848 787.2l17.991-15.986a101.97 101.97 0 0125.386-17.725l.599-.266c-14.249.818-27.587 2.954-40.435 6.303l1.428-.316q-27.003 5.987-41.013 7.993c-2.649.358-5.711.562-8.821.562-10.594 0-20.635-2.368-29.623-6.605l.424.18-4.012 4.012c9.805 8.124 21.519 14.327 34.346 17.84l.65.152c11.759 2.556 25.266 4.021 39.116 4.021 1.372 0 2.741-.014 4.107-.043l-.204.003zm-24.01 66.01h-2.006c3.51 1.721 7.64 2.728 12.004 2.728a27.655 27.655 0 0017.066-5.86l-.062.046a28.021 28.021 0 008.172-19.817c0-1.118-.065-2.221-.192-3.305l.013.132c-.198-8.808-5.394-16.357-12.856-19.939l-.136-.059c-2.792-1.109-6.027-1.751-9.413-1.751a26.088 26.088 0 00-18.576 7.737l-.002.002c-.38 2.352-.596 5.063-.596 7.825 0 5.788.952 11.353 2.709 16.548l-.107-.364c1.168 6.421 2.537 11.871 4.218 17.181l-.268-.98zm-209.848-52c.393-6.564 1.494-12.705 3.234-18.572l-.148.581c1.428-4.621 2.517-10.051 3.059-15.642l.027-.343c-7.817-1.307-16.824-2.054-26.006-2.054-1.403 0-2.802.017-4.197.052l.207-.004c-19.664-.766-38.116-5.107-55.003-12.387l.998.383q-12.005 12.005 22.003 29.008c16.037 9.102 34.73 15.789 54.593 18.976l.955.126zM67.831 917.337h359.983l-4.012-14.01c-7.288-20.244-12.904-43.921-15.833-68.425l-.152-1.566-14.01-5.987c-38.62-17.799-71.413-36.479-102.428-57.578l2.442 1.567-16.016-17.991q-32.002-38.02-35.983-36.075c-77.896 35.08-145.039 77.24-205.489 127.209l1.504-1.208c9.301 19.103 19.436 43.574 28.319 68.637l1.677 5.427zm495.983 0h17.991l-5.987-7.993-7.993 5.987zm29.996-49.993v-19.997c-13.254-7.528-29.111-11.976-46.004-12.005h-.008c6.065-3.374 13.134-5.832 20.638-6.962l.346-.043c8.638-1.502 16.354-3.936 23.584-7.249l-.593.244v-7.993c-12.907-2.139-24.378-7.074-34.18-14.172l.234.161-9.999-5.987c-25.372-14.915-54.937-26.069-86.404-31.756l-1.64-.246q-23.978-3.95-29.996 25.984c-1.869 10.764-2.937 23.16-2.937 35.805 0 7.114.338 14.15.999 21.091l-.068-.885v2.006c3.16 22.405 8.752 42.624 16.6 61.676l-.614-1.684 7.993 19.997q2.006 12.005 9.011 14.01c.722.027 1.571.042 2.423.042 10.295 0 20.072-2.22 28.878-6.207l-.441.179c14.442-4.553 26.7-9.638 38.411-15.64l-1.379.642c14.703-9.039 27.454-18.61 39.249-29.222l-.241.214a151.751 151.751 0 0125.597-21.661l.542-.343zm106.005 49.993l2.006-24.009c-12.423-1.133-23.475-6.252-32.046-14.05l.044.04c-5.114-3.92-11.108-7.005-17.606-8.914l-.386-.097a33.085 33.085 0 00-18.036 5.11l.137-.081c-4.945 3.226-10.999 5.144-17.501 5.144-3.018 0-5.939-.413-8.711-1.187l.228.054-12.005 14.01q7.993 9.999 17.991 24.009h33.946a11.506 11.506 0 013.996-7.98l.015-.013a12.319 12.319 0 019.006-4.012h.005a9.492 9.492 0 017.973 3.983l.02.029a13.223 13.223 0 013.085 7.966l.001.027zm17.991 0h71.966c-6.512-11.747-17.005-20.618-29.621-24.887l-.375-.11c-4.938-1.81-10.639-2.857-16.585-2.857-8.622 0-16.729 2.201-23.791 6.073l.258-.129c-1.167 6.569-1.851 14.148-1.882 21.882v.029zm165.997-74.064l2.006-9.999c3.819-11.09 6.024-23.868 6.024-37.162 0-1.039-.013-2.076-.04-3.109l.003.153q-2.006-13.825-32.002-37.804l-9.844-7.993-27.99-27.99q-24.163-22.034-38.174-36.045c-6.006 8.691-13.312 15.997-21.722 21.819l-.281.184c-7.57 5.218-14.098 11.196-19.716 17.957l-.127.157c4.463-2.812 9.891-4.48 15.708-4.48 3.654 0 7.154.658 10.389 1.862l-.206-.067c8.587 3.182 15.185 9.963 18.053 18.46l.062.21c10.158 19.398 16.119 42.375 16.119 66.744 0 2.195-.048 4.378-.144 6.549l.011-.309c.166 2.597.261 5.631.261 8.687 0 21.101-4.516 41.147-12.633 59.225l.368-.916c2.197 6.767 5.992 12.504 10.952 16.973l.035.031a43.998 43.998 0 0110.874 14.723l.112.275-4.012 5.987H863.9c7.247-20.091 14.152-44.926 19.366-70.378l.631-3.686zM395.812 183.391c8.694-18.438 21.638-33.628 37.622-44.753l.366-.241c13.529-11.814 31.348-19.018 50.85-19.018.404 0 .807.003 1.21.009l-.061-.001c9.159 2.51 16.961 7.403 22.957 13.973l.034.037a16.276 16.276 0 014.78 11.542c0 3.992-1.433 7.65-3.813 10.487l.021-.025q-69.991-15.986-108.01 66.01-17.806-4.074-5.956-38.02zm367.976 128.008c8.525-3.174 18.374-5.01 28.652-5.01.473 0 .944.004 1.415.012l-.071-.001c.708.031 1.538.049 2.372.049 10.129 0 19.648-2.614 27.919-7.204l-.295.15-5.987-14.01c-7.63-16.275-12.082-35.343-12.082-55.45 0-1.597.028-3.188.084-4.772l-.006.23h2.006l9.999 19.997c10.521 24.27 21.274 44.627 33.356 64.071l-1.2-2.073c-4.824 11.388-14.15 20.068-25.685 23.923l-.299.087c-8.579 4.421-18.722 7.013-29.47 7.013-4.08 0-8.073-.373-11.946-1.088l.402.062c-10.99-1.951-19.229-11.432-19.229-22.837 0-1.121.08-2.223.233-3.301l-.014.124zm-191.981 4.012q-40.118-61.998-29.996-89.988 4.012 7.993 12.005 25.984c5.136 15.662 13.368 29.09 24.039 40.149l-.029-.031 4.012 4.012a97.615 97.615 0 0111.803 13.711l.202.299c1.277 3.578 2.016 7.705 2.016 12.005s-.738 8.427-2.095 12.262l.079-.257c-2.645 4.017-5.981 7.353-9.87 9.919l-.129.08a51.695 51.695 0 01-13.656 7.872l-.355.121c-8.052 2.384-17.303 3.757-26.875 3.757-10.766 0-21.126-1.736-30.816-4.943l.692.198q-30.86-9.011-14.998-32.989c7.341.582 14.142 2.007 20.595 4.187l-.597-.175c8.811 2.095 19.098 3.531 29.637 3.999l.359.013c8.582-.88 16.181-4.525 22.023-10.017l-.02.018zm54.005 139.981c1.862 4.641 3.271 10.041 3.978 15.658l.034.327c.82 6.725 2.941 12.813 6.107 18.213l-.12-.222c3.338 4.329 8.274 7.284 13.909 7.983l.101.01c3.754.599 8.083.942 12.491.942 12.058 0 23.519-2.562 33.866-7.17l-.53.211c17.937-5.213 33.291-11.292 47.921-18.606l-1.631.738 24.009-12.005c4.367-5.95 6.988-13.419 6.988-21.5 0-3.015-.365-5.945-1.053-8.747l.052.251c-3.668-8.751-9.105-16.119-15.906-21.937l-.079-.066-14.01-16.232c-16.978-18.988-32.837-39.85-46.97-61.924l-1.172-1.957c-13.279-22.352-21.371-49.158-22-77.805l-.003-.179q12.005-7.993 15.986 14.01v5.987c26.386 48.214 57.635 89.664 93.996 125.998l22.007 22.007c.084 1.172.131 2.54.131 3.919 0 9.501-2.26 18.475-6.272 26.413l.154-.335c-2.084 5.281-3.513 11.397-3.999 17.777l-.013.214c-20.081 13.657-43.074 26.363-67.225 36.912l-2.765 1.076c-20.416 8.507-44.134 13.448-69.006 13.448-8.104 0-16.085-.525-23.911-1.541l.923.098c-8.185-7.275-13.699-17.398-14.979-28.803l-.019-.206c-.437-2.19-.686-4.709-.686-7.285a38.855 38.855 0 019.704-25.747l-.037.043zM223.797 437.37c-7.157-4.897-12.68-11.712-15.883-19.706l-.103-.291q-7.993-22.003-19.01-22.991t-14.998 19.01c-1.865 8.067-2.934 17.33-2.934 26.843 0 5.343.337 10.606.991 15.771l-.063-.614v9.999a51.49 51.49 0 01-14.036-35.412c0-.57.009-1.137.027-1.702l-.002.082c-.42-3.137-.66-6.763-.66-10.446 0-11.757 2.445-22.943 6.855-33.078l-.208.536q-7.993-4.012-19.997 5.987l-5.987 5.987q4.012-32.002 29.008-35.983c1.996-.31 4.299-.487 6.643-.487 15.405 0 29.024 7.647 37.267 19.353l.096.144c8.508 10.57 13.656 24.157 13.656 38.947a62.37 62.37 0 01-2.787 18.493l.118-.442zm597.977 57.986c-10.9 20.801-24.28 38.612-40.069 53.957l-.049.048c-17.808 16.642-41.548 27.133-67.725 27.986l-.167.004c-.694-5.701-1.091-12.301-1.091-18.994s.396-13.293 1.166-19.779l-.076.785c16.9-3.142 31.668-7.298 45.869-12.616l-1.863.611c13.881-5.459 25.726-11.502 36.891-18.525l-.909.533zm-283.913 24.009c36.304 13.959 78.304 22.045 122.193 22.045 13.311 0 26.449-.744 39.373-2.192l-1.587.144c1.323 8.589 2.079 18.496 2.079 28.58 0 1.887-.026 3.767-.079 5.642l.006-.276v5.987c-4.575.254-9.93.399-15.318.399-30.15 0-59.242-4.533-86.631-12.955l2.085.552c-27.888-4.717-50.698-22.853-61.849-47.407l-.211-.519zm183.988 94c-2.196 9.934-8.894 17.952-17.793 21.924l-.198.079c-17.839 5.873-38.403 9.493-59.739 9.994l-.253.005c-4.023.426-8.692.668-13.417.668-18.994 0-37.072-3.923-53.468-11.004l.875.336c-14.949-11.141-27.554-24.424-37.626-39.539l-.363-.579-8.085-11.912-5.863-5.987c-4.76-3.975-8.504-9.007-10.893-14.745l-.094-.253q-.988-4.999 17.004-4.999c12.769 27.801 38.595 47.668 69.404 51.855l.463.051c22.321 3.119 48.109 4.9 74.312 4.9 11.149 0 22.222-.322 33.211-.958l-1.519.07z"/></svg>