<svg width="64" height="64" viewBox="0 0 775 775" xmlns="http://www.w3.org/2000/svg"><path d="M766.741 20.888a19.337 19.337 0 00-12.831-4.265l.032-.001a31.746 31.746 0 00-7.561 1.163l.223-.054c-36.706 14.599-81.467 28.39-127.487 38.871l-6.432 1.232c-8.474 2.147-15.216 8.13-18.367 15.947l-.064.179c-30.803 83.833-109.09 163.997-191.131 247.915-3.794 4.298-9.228 7.072-15.313 7.336l-.045.002c-6.195-.004-11.734-2.811-15.418-7.221l-.026-.032c-82.254-84.046-160.499-163.528-191.472-248.001-3.35-7.911-10.078-13.827-18.325-15.999l-.191-.043C109.208 45.411 64.548 31.455 21.242 14.772l7.342 2.487c-1.871-.836-4.054-1.322-6.351-1.322-.408 0-.812.015-1.211.045l.053-.003a20.054 20.054 0 00-12.843 4.299l.043-.033C3.274 24.242.098 30.341.098 37.182c0 .616.026 1.225.076 1.828l-.005-.079c10.115 79.868 40.258 151.23 85.195 210.806l-.807-1.117c52.568 70.12 107.402 132.152 166.787 189.502l.452.434C360.331 549.48 463.234 654.431 472.492 775.851c.8 11.065 9.931 19.751 21.11 19.838h127.657a22.64 22.64 0 0015.4-6.697l.001-.001a21.62 21.62 0 005.588-15.488l.001.044c-7.944-94.598-41.965-179.965-94.762-250.455l.903 1.26c-12.372-17.919-25.342-35.709-39.463-53.073a15.632 15.632 0 01-3.169-9.473 15.69 15.69 0 014.328-10.841l-.006.007 12.799-13.055c59.845-57.791 114.68-119.838 164.362-185.977l2.878-4.002c44.343-58.393 74.55-129.813 84.256-207.6l.217-2.132c.016-.302.025-.655.025-1.01 0-6.606-3.096-12.489-7.915-16.277l-.045-.034zM249.878 533.614c-3.522-3.912-8.603-6.361-14.256-6.361-.148 0-.295.002-.441.005h.022a21.336 21.336 0 00-17.27 9.896l-.052.087c-47.431 66.297-78.302 147.407-85.015 235.274l-.098 1.592a21.93 21.93 0 005.607 15.422l-.018-.021c3.62 4.194 8.943 6.833 14.883 6.833.182 0 .364-.002.545-.007l-.027.001H281.44c11.172 0 20.306-8.729 20.954-19.739l.003-.057c3.835-42.452 16.627-81.212 36.467-115.372l-.715 1.334c2.238-4.088 3.555-8.956 3.555-14.131 0-6.79-2.266-13.051-6.083-18.067l.054.073c-28.13-35.401-56.185-66.971-85.851-96.945l.098.099zM458.97 80.787c10.522.226 18.965 8.81 18.965 19.365 0 3.042-.701 5.92-1.951 8.481l.05-.115c-18.607 42.465-43.77 78.698-74.626 109.184l-.034.034a20.27 20.27 0 01-14.847 5.502l.043.002a20.703 20.703 0 01-14.774-5.558l.013.012c-30.953-30.522-56.128-66.809-73.796-107.133l-.864-2.212c-1.019-2.322-1.654-5.021-1.748-7.857l-.001-.036v-.053c0-10.661 8.464-19.345 19.038-19.699l.032-.001c9.215 0 32.68 2.474 72.783 2.474s63.568-2.474 71.546-2.474zM167.239-166.659c-37.11 0-67.194 30.084-67.194 67.194s30.084 67.194 67.194 67.194c37.065 0 67.121-30.011 67.194-67.059v-.007c-.145-37.043-30.148-67.031-67.183-67.152h-.012zm440.369 0c-37.11 0-67.194 30.084-67.194 67.194s30.084 67.194 67.194 67.194 67.194-30.084 67.194-67.194v-.045.002c-.241-36.97-30.207-66.861-67.183-66.981h-.011zm-220.142-61.008h-.043c-37.158 0-67.28 30.122-67.28 67.28s30.122 67.28 67.28 67.28 67.28-30.122 67.28-67.28v-.045.002c0-37.134-30.103-67.237-67.237-67.237z"/></svg>