<svg width="64" height="64" viewBox="0 0 1024 1024" xmlns="http://www.w3.org/2000/svg"><path d="M2.287 158.506c-.013-.699-.021-1.523-.021-2.349 0-37.157 15.322-70.734 39.993-94.76l.029-.028c23.651-24.674 56.878-40.007 93.686-40.007.409 0 .818.002 1.227.006h-.062c.809-.018 1.761-.028 2.716-.028 33.651 0 64.365 12.577 87.696 33.288l-.136-.119c23.823 20.437 40.638 48.439 46.722 80.251l.14.879c15.293-3.873 32.849-6.095 50.923-6.095 22.606 0 44.399 3.476 64.876 9.923l-1.528-.415c41.45 13.282 76.798 35.721 105.05 65.045l.074.077-100.55 100.55c-17.342-18.474-41.424-30.445-68.301-31.969l-.268-.012a74.496 74.496 0 00-1.103-.008c-22.611 0-42.962 9.673-57.142 25.106l-.051.056c-14.775 15.004-23.899 35.611-23.899 58.348 0 .378.003.755.008 1.131l-.001-.057c-.006.38-.01.829-.01 1.278 0 22.492 8.702 42.951 22.924 58.195l-.046-.05L493.911 645.42 393.122 745.902 164.444 517.224c-29.222-27.467-50.238-63.354-59.173-103.779l-.249-1.344c-4.028-16.819-6.337-36.13-6.337-55.979 0-23.174 3.148-45.612 9.039-66.911l-.415 1.759c-30.95-6.147-57.179-23.048-75.211-46.565l-.219-.297C13.44 221.246 2.281 191.842 2.281 159.831c0-.465.002-.93.007-1.394l-.001.071zM296.94 423.704l34.131-31.981 194.547-194.342c27.312-29.14 62.684-50.417 102.557-60.281l1.44-.301c17.366-4.552 37.303-7.165 57.85-7.165 22.112 0 43.517 3.027 63.823 8.689l-1.668-.397c4.896-33.198 21.516-61.826 45.441-82.097l.193-.159c23.769-21.202 55.292-34.158 89.842-34.158.957 0 1.912.01 2.864.03l-.142-.002.626-.002c36.624 0 69.664 15.341 93.046 39.948l.052.055c24.7 24.053 40.022 57.631 40.022 94.788 0 .826-.008 1.65-.023 2.472l.002-.123c.016.763.025 1.663.025 2.565 0 33.868-12.981 64.704-34.24 87.804l.083-.092c-21.557 24.054-50.724 40.896-83.692 46.732l-.884.13c6.183 18.922 9.749 40.697 9.749 63.305 0 19.761-2.724 38.886-7.817 57.02l.355-1.481c-12.993 44.02-35.92 81.723-66.275 111.977l-.007.007-102.871-102.939c19.658-15.872 32.564-39.429 34.119-66.034l.012-.248c.002-.189.002-.412.002-.635 0-23.107-9.644-43.961-25.126-58.758l-.031-.029c-14.826-15.513-35.68-25.157-58.787-25.157l-.669.003h.034c-.189-.002-.412-.002-.635-.002-23.107 0-43.961 9.644-58.758 25.126l-.029.031-228.678 228.678zm608.147 349.639c33.91 4.347 63.38 20.635 84.595 44.44l.118.135c21.177 23.008 34.16 53.846 34.16 87.716 0 .96-.01 1.919-.031 2.874l.002-.142c.013.699.021 1.523.021 2.349 0 37.157-15.322 70.734-39.993 94.76l-.029.028c-24.053 24.7-57.631 40.022-94.788 40.022-.826 0-1.65-.008-2.472-.023l.123.002-.705.002c-32.798 0-62.889-11.595-86.396-30.909l.237.189c-24.675-19.177-42.049-46.728-47.867-78.326l-.121-.79c-19.667 6.201-42.284 9.774-65.736 9.774-20.508 0-40.378-2.732-59.265-7.852l1.583.365c-43.904-11.135-81.307-34.461-109.543-66.136l-.188-.215 100.584-102.837c15.872 19.658 39.429 32.564 66.034 34.119l.248.012c.189.002.412.002.635.002 23.107 0 43.961-9.644 58.758-25.126l.029-.031c15.513-14.826 25.157-35.68 25.157-58.787l-.003-.669v.034l.001-.329c0-23.106-9.643-43.96-25.124-58.756l-.031-.029-228.678-228.678 102.837-100.55 226.255 228.678c27.544 27.004 48.211 60.922 59.197 98.948l.396 1.602c5.061 17.098 7.974 36.742 7.974 57.067s-2.912 39.969-8.343 58.539l.369-1.472zM713.1 652.382L486.811 878.466c-27.307 27.654-61.646 48.301-100.117 59.042l-1.593.38c-17.295 5.079-37.164 8.001-57.716 8.001s-40.421-2.922-59.214-8.374l1.499.372c-5.694 31.795-22.668 58.871-46.549 77.507l-.279.21c-22.891 18.522-52.359 29.734-84.446 29.734-.442 0-.883-.002-1.324-.006l.067.001c-.699.013-1.523.021-2.349.021-37.157 0-70.734-15.322-94.76-39.993l-.028-.029c-24.698-24.053-40.02-57.63-40.02-94.785 0-.767.007-1.532.02-2.296l-.002.115c-.005-.424-.008-.924-.008-1.425 0-32.088 11.213-61.557 29.935-84.703l-.199.254c18.243-23.807 44.459-40.707 74.601-46.729l.795-.132c-4.025-16.342-6.333-35.103-6.333-54.404 0-22.535 3.147-44.335 9.027-64.985l-.407 1.67c12.887-42.924 35.839-79.544 66.185-108.478l.098-.093 100.584 103.042c-18.568 16.33-30.611 39.695-31.938 65.887l-.009.225a87.55 87.55 0 00-.007 1.074c0 22.737 9.123 43.344 23.909 58.359l-.01-.011c14.438 15.505 34.968 25.172 57.755 25.172.586 0 1.171-.006 1.754-.019l-.087.001c.625.019 1.361.029 2.099.029 22.306 0 42.346-9.7 56.134-25.112l.064-.072L612.62 549.238z"/></svg>