<svg width="64" height="64" viewBox="0 0 1063 1063" xmlns="http://www.w3.org/2000/svg"><path d="M67.516 300.871C-26.59 436.107-14.882 612.099 57.037 755.834c1.707 3.413 3.413 6.827 5.257 10.24 1.126 2.15 2.185 4.335 3.413 6.451.649 1.263 1.399 2.526 2.082 3.721 1.229 2.287 2.492 4.471 3.755 6.827q3.413 5.905 6.827 11.742c1.297 2.15 2.56 4.301 3.925 6.451q3.891 6.281 7.953 12.459c1.126 1.775 2.219 3.413 3.413 5.222 3.755 5.598 7.578 11.196 11.537 16.657l.341.41c.614.887 1.331 1.741 1.946 2.628 3.413 4.71 6.827 9.387 10.513 13.995l3.959 5.052q4.779 6.007 9.728 11.947l3.721 4.437c4.403 5.188 8.909 10.24 13.653 15.462l.273.273.512.546c4.506 4.915 9.114 9.728 13.653 14.507l4.403 4.437a653.248 653.248 0 0010.991 10.752c1.502 1.434 3.004 2.901 4.506 4.267 4.949 4.676 9.967 9.25 15.053 13.653a.75.75 0 00.235.203l.004.002c.853.785 1.775 1.502 2.628 2.219q6.827 5.837 13.653 11.571l5.666 4.506q5.632 4.54 11.401 8.909l6.11 4.642c4.233 3.106 8.499 6.178 12.8 9.148a320.253 320.253 0 014.676 3.413l1.263.922c4.096 2.799 8.26 5.53 12.425 8.226 1.775 1.195 3.413 2.423 5.393 3.413 6.383 4.028 12.868 8.055 19.456 11.913l5.359 3.038c4.813 2.799 9.66 5.53 14.609 8.192 2.662 1.434 5.393 2.799 8.055 4.164 3.413 1.843 6.827 3.686 10.445 5.427l2.423 1.161 4.267 2.082q8.192 3.925 16.555 7.68l3.413 1.57q9.557 4.164 19.319 8.055l4.71 1.843a959.225 959.225 0 0018.227 6.827l2.287.785c6.827 2.355 13.653 4.54 20.48 6.656l4.915 1.468c5.455 1.969 12.479 4.001 19.651 5.646l1.341.259c455.134 82.978 587.332-273.51 587.332-273.51-111.036 144.657-308.122 182.818-494.933 140.322-7.066-1.604-13.926-3.789-20.855-5.837l-5.188-1.57q-10.24-3.106-20.07-6.519l-2.765-.99c-5.939-2.082-11.844-4.301-17.681-6.554l-4.949-1.946a549.907 549.907 0 01-19.115-7.953l-3.823-1.707c-5.427-2.458-10.786-4.915-16.111-7.475l-4.642-2.253c-4.198-2.048-8.329-4.198-12.459-6.349-2.765-1.468-5.598-2.833-8.329-4.369-5.052-2.697-10.001-5.53-14.95-8.397l-5.052-2.799c-6.554-3.857-13.039-7.885-19.456-11.913-1.775-1.126-3.413-2.321-5.257-3.413-4.642-3.004-9.284-6.042-13.858-9.216-1.502-.99-2.97-2.116-4.471-3.14q-6.622-4.642-13.107-9.455c-1.946-1.434-3.891-2.935-5.803-4.403-3.959-3.038-7.919-6.076-11.81-9.25l-5.257-4.233c-4.949-4.096-9.865-8.158-14.711-12.39l-1.604-1.365c-5.222-4.608-10.24-9.318-15.462-14.063l-4.369-4.198q-5.666-5.359-11.093-10.889L256 771.741q-6.827-7.134-13.653-14.438l-.683-.717a550.913 550.913 0 01-13.824-15.735l-3.55-4.369c-3.413-4.062-6.827-8.158-9.933-12.288a161.918 161.918 0 01-3.652-4.54c-3.925-5.086-7.748-10.24-11.503-15.292-103.697-141.38-140.937-336.452-58.027-496.64zm292.113-113.972c-32.157 49.765-51.271 110.575-51.271 175.849 0 57.486 14.824 111.509 40.859 158.455l-.852-1.675c10.026 19.514 20.021 35.953 31.028 51.63l-.922-1.385c10.395 16.525 21.958 30.855 34.992 43.696l.029.029c4.915 5.393 10.035 10.684 15.258 15.838 1.331 1.365 2.662 2.662 4.028 3.994 5.086 4.915 10.24 9.762 15.599 14.473.205.171.41.41.649.546a384.447 384.447 0 0018.227 15.053l4.13 3.243c6.212 4.779 12.561 9.455 19.046 13.926l.546.444c2.867 1.98 5.803 3.823 8.704 5.734 1.399.922 2.731 1.877 4.13 2.731a422.485 422.485 0 0014.131 8.67l1.98 1.161c4.13 2.389 8.294 4.71 12.493 6.827 1.468.819 2.935 1.536 4.437 2.321 2.901 1.502 5.803 3.038 8.738 4.54l1.297.58a420.586 420.586 0 0018.227 8.499c1.331.58 2.662 1.092 4.028 1.673a570.384 570.384 0 0014.916 6.076l6.417 2.355c4.54 1.673 9.114 3.243 13.653 4.779l6.212 1.98c5.372 2.049 12.007 4.023 18.812 5.543l1.019.191c351.403 58.231 432.538-212.343 432.538-212.343-73.148 105.301-214.767 155.58-365.875 116.361-6.827-1.775-13.312-3.686-19.9-5.769a172.086 172.086 0 01-5.973-1.946c-4.676-1.502-9.318-3.14-13.926-4.813l-6.281-2.321a526.765 526.765 0 01-14.985-6.042c-1.365-.58-2.731-1.092-4.028-1.707-6.212-2.697-12.322-5.564-18.33-8.499-3.106-1.536-6.144-3.14-9.182-4.676l-5.291-2.731q-5.871-3.209-11.639-6.554c-.887-.512-1.843-1.024-2.765-1.57q-7.134-4.164-14.097-8.602c-1.434-.922-2.799-1.911-4.233-2.833a422.902 422.902 0 01-9.114-6.042c-6.485-4.471-12.766-9.148-18.978-13.892l-4.267-3.413c-66.098-51.667-115.966-121.289-142.502-201.533l-.858-2.994c-10.083-29.618-15.903-63.737-15.903-99.215 0-57.104 15.078-110.686 41.47-156.982l-.82 1.563zm245.726-85.162c-21.487 31.891-34.297 71.177-34.297 113.454 0 30.487 6.662 59.419 18.609 85.418l-.525-1.274c31.146 69.412 87.844 122.7 157.819 148.64l1.925.625c2.901 1.092 5.769 2.048 8.738 3.038l3.857 1.195c3.318 1.24 7.507 2.484 11.793 3.475l.734.143c194.014 37.547 246.647-99.567 260.676-119.74-46.114 66.389-123.563 82.295-218.624 59.255-7.509-1.843-15.77-4.54-23.006-7.134-11.194-3.971-20.209-7.796-28.969-12.063l1.663.731c-18.248-8.896-33.916-18.622-48.479-29.724l.692.506c-85.06-64.546-137.899-187.733-82.398-287.949z"/></svg>