<svg width="64" height="64" viewBox="0 0 1498 1498" xmlns="http://www.w3.org/2000/svg"><path d="M1316.557 960.536c54.297 22.553 98.941 59.204 130.632 105.432l.645.996c31.337 45.319 50.056 101.446 50.056 161.945 0 80.329-33.003 152.95-86.189 205.043l-.049.048c-51.889 52.712-124.015 85.372-203.768 85.372-1.647 0-3.291-.014-4.931-.042l.247.003q-2.935 0-8.397-.375t-7.68-.375H296.96c-82.449-3.503-156.246-37.892-210.661-91.808l.024.024C33.087 1376.301-.035 1305.05-.035 1226.063c0-1.549.013-3.095.038-4.638l-.003.232a262.2 262.2 0 01-.007-2.059c0-54.037 14.963-104.579 40.971-147.709l-.72 1.287c26.437-44.759 62.761-81.083 106.133-106.76l1.387-.76c-5.567-17.655-8.775-37.959-8.775-59.011l.002-1.013v.052c-.015-.905-.024-1.973-.024-3.043 0-55.144 22.997-104.916 59.925-140.249l.072-.068c36.176-36.613 86.387-59.289 141.895-59.289 1.283 0 2.564.012 3.841.036l-.192-.003c.376-.002.82-.004 1.265-.004 47.105 0 90.481 15.964 125.014 42.777l-.463-.346c37.11-75.514 92.667-137.051 160.946-180.318l1.801-1.066c66.396-43.123 147.606-68.764 234.805-68.764 1.452 0 2.902.007 4.35.021l-.221-.002c.716-.004 1.563-.007 2.411-.007 162.335 0 304.379 86.878 382.172 216.676l1.124 2.023c37.451 62.056 59.608 136.996 59.608 217.111 0 1.072-.004 2.143-.012 3.214l.001-.165q0 4.403-.375 13.175t-.375 13.141zm-974.268 194.56a169.06 169.06 0 00-.174 7.812c0 53.301 23.81 101.04 61.374 133.163l.24.2c39.03 32.384 89.64 52.034 144.839 52.034 2.565 0 5.12-.042 7.664-.127l-.37.01c.439.003.958.004 1.478.004 68.033 0 129.601-27.679 174.058-72.39l.011-.011q-11.708-14.643-34.748-41.335l-31.812-36.932c-26.464 28.359-63.687 46.385-105.127 47.543l-.208.005c-.724.019-1.576.029-2.431.029-25.235 0-48.3-9.292-65.959-24.642l.123.105c-17.329-15.855-28.155-38.569-28.155-63.812s10.826-47.957 28.089-63.753l.066-.059c17.216-15.451 40.094-24.899 65.178-24.899.618 0 1.234.006 1.85.017l-.092-.001c22.618.022 43.904 5.705 62.523 15.707l-.708-.347c20.61 10.861 38.229 24.287 53.302 40.156l.082.087q23.893 24.883 47.548 54.852t50.483 59.972c17.534 19.693 35.932 37.627 55.522 54.195l.798.657c20.208 16.709 43.731 30.34 69.309 39.713l1.655.53c25.825 9.733 55.676 15.367 86.842 15.367.669 0 1.338-.003 2.007-.008l-.102.001c1.886.058 4.105.09 6.332.09 54.739 0 104.852-19.808 143.561-52.648l-.321.265c37.645-34.882 61.13-84.585 61.13-139.774 0-55.368-23.638-105.215-61.373-140l-.132-.12c-38.895-32.374-89.376-52.024-144.447-52.024-2.451 0-4.892.039-7.324.116l.355-.009c-1.627-.04-3.544-.062-5.465-.062-66.752 0-127.162 27.152-170.789 71.014l-.011.011 68.028 78.985c26.105-27.934 62.81-45.679 103.668-46.792l.2-.004c.335-.004.731-.006 1.128-.006 25.27 0 48.409 9.126 66.3 24.263l-.151-.124c17.885 14.073 29.265 35.719 29.265 60.023 0 .498-.005.995-.014 1.491l.001-.074c.051 1.11.079 2.412.079 3.72 0 24.865-10.41 47.299-27.11 63.181l-.037.035c-17.147 15.681-40.079 25.287-65.254 25.287-1.228 0-2.45-.023-3.666-.068l.176.005c-22.123-.029-42.91-5.716-61.003-15.691l.655.331c-20.292-10.998-37.659-24.403-52.58-40.149l-.088-.094q-23.893-24.883-47.787-54.852t-50.825-59.972c-17.579-19.733-36.103-37.673-55.866-54.178l-.829-.674c-20.151-16.543-43.526-30.151-68.894-39.685l-1.694-.558c-25.256-9.73-54.476-15.366-85.013-15.366-.581 0-1.161.002-1.74.006h.089a220.92 220.92 0 00-6.403-.089c-55.196 0-105.838 19.499-145.413 51.984l.401-.319c-38.218 31.535-62.393 78.906-62.393 131.924 0 2.377.049 4.743.145 7.097l-.011-.337z"/></svg>