<svg width="64" height="64" viewBox="0 0 1021 1021" xmlns="http://www.w3.org/2000/svg"><path d="M512.533 1040.968a479.02 479.02 0 0063.283-4.28l-2.443.269c49.937-6.616 95.213-19.534 137.455-38.085l-3.231 1.265c62.712-27.307 116.341-63.849 161.909-108.577l-.081.08c42.049-41.251 76.943-89.607 102.773-143.156l1.329-3.056c20.79-43.093 36.07-93.103 43.228-145.696l.29-2.607c2.77-20.39 4.351-43.957 4.351-67.894 0-28.745-2.28-56.957-6.67-84.465l.399 3.032c-7.127-44.617-18.914-84.612-35.102-122.268l1.269 3.319c-11.524-26.735-23.711-49.394-37.572-70.869l1.137 1.88C893.69 181.643 824.343 119.27 742.612 77.77l-2.973-1.369c-26.13-13.707-56.839-26.304-88.789-36.057l-3.879-1.019h-.213c5.077 2.688 10.24 5.632 14.719 8.533s10.197 6.229 14.975 9.6c25.036 16.944 46.831 35.636 66.307 56.519l.208.225c43.322 47.459 76.04 105.364 93.927 169.456l.704 2.953c11.142 37.879 18.764 81.857 21.266 127.201l.067 1.519c.812 10.933 1.275 23.683 1.275 36.541 0 20.632-1.192 40.986-3.51 60.997l.23-2.437c-6.501 57.533-25.146 109.621-53.316 155.199l.924-1.605c-21.688 35.046-48.691 64.55-80.251 88.328l-.812.586c-39.681 32.081-90.752 51.5-146.358 51.5a234.911 234.911 0 01-44.369-4.206l1.466.234c-12.209-2.907-22.847-6.684-32.932-11.439l1.019.432c-12.735-5.847-23.642-12.239-33.832-19.564l.597.408c-20.214-13.631-37.662-29.208-52.783-46.839l-.292-.349c-18.005-21.347-33.068-45.97-44.082-72.689l-.674-1.846c-12.769-32.086-20.449-69.241-21.073-108.11l-.003-.258c-.15-3.56-.235-7.738-.235-11.936 0-53.008 13.585-102.843 37.463-146.214l-.792 1.57c18.435-32.366 42.043-59.592 70.011-81.507l.599-.452c8.655-6.801 18.402-13.545 28.549-19.695l1.317-.741.683-.299c-14.63-3.492-31.426-5.494-48.69-5.494-4.499 0-8.967.136-13.399.404l.609-.029c-19.052 1.321-36.792 4.953-53.586 10.635l1.492-.438c-16.755 5.597-31.124 12.091-44.686 19.836l1.21-.637c-11.943 6.914-22.158 13.893-31.822 21.538l.549-.419c-9.002 7.68-17.919 15.317-26.239 23.679-45.148 48.504-76.138 110.743-86.057 179.788l-.211 1.794c-3.547 24.379-5.572 52.525-5.572 81.145 0 15.752.614 31.362 1.818 46.805l-.128-2.046c4.04 63.405 18.481 122.39 41.645 176.767l-1.327-3.505c15.365 35.501 34.622 66.083 57.802 93.212l-.418-.501c35.779 41.18 80.54 73.598 131.308 94.347l2.319.838c26.268 11.074 56.747 19.189 88.574 22.89l1.577.149c2.298.419 4.943.658 7.643.658.448 0 .894-.007 1.339-.02l-.065.002-.896-1.365zm-125.178-17.066c-7.633-3.308-13.937-6.561-20.004-10.171l.804.443c-6.357-3.541-12.799-7.168-19.157-11.05-25.646-16.081-47.871-34.046-67.733-54.334l-.062-.063c-44.462-47.58-77.722-106.198-95.218-171.275l-.65-2.841c-11.096-39.844-18.651-86.138-21.057-133.788l-.062-1.545c-.671-9.872-1.053-21.398-1.053-33.014a523.49 523.49 0 013.229-58.162l-.213 2.347c5.572-56.863 22.678-108.706 48.951-154.63l-.996 1.89c19.894-34.578 45.32-63.651 75.405-87.008l.667-.498c20.01-15.469 43.042-28.432 67.842-37.792l1.83-.606c23.187-8.668 49.98-13.685 77.944-13.685 11.077 0 21.97.787 32.627 2.309l-1.221-.143c15.387 2.092 29.202 5.45 42.431 10.059l-1.515-.459c1.237 0 1.237 0 1.92 1.28.64.64 1.92.64 2.56 1.28 1.92.683 4.266 1.92 7.04 3.157 11.723 6.161 21.489 12.105 30.866 18.572l-1.001-.652c38.468 27.109 68.965 63.077 88.901 105.035l.696 1.627c16.769 36.864 26.655 79.919 26.921 125.253v.096c.058 2.217.091 4.826.091 7.444 0 45.972-10.175 89.567-28.395 128.656l.785-1.876c-24.804 51.372-63.493 92.724-111.216 120.121l-1.334.706c3.84 1.28 7.68 1.92 11.562 3.2 8.783 1.914 18.906 3.059 29.279 3.157l.074.001c65.656-.623 124.952-27.348 168.11-70.279l-.01.01a214.835 214.835 0 0022.698-24.511l.341-.448c8.936-10.402 17.556-21.857 25.42-33.852l.776-1.261c9-13.92 17.753-30.081 25.271-46.915l.926-2.32c8.97-20.298 16.479-44.075 21.355-68.798l.361-2.196c5.033-26.869 7.912-57.781 7.912-89.365 0-13.986-.565-27.841-1.672-41.542l.117 1.803c-3.881-91.345-32.671-175.247-79.695-245.983l1.106 1.769c-8.099-11.606-15.873-21.602-24.11-31.189l.431.513c-14.066-15.841-28.87-30.24-44.662-43.5l-.648-.53c-17.023-14.09-36.059-27.029-56.268-38.094l-1.884-.945c-20.306-9.649-44.324-18.401-69.239-24.941l-2.95-.658-12.799-2.56c-8.917-1.28-17.919-1.877-27.05-2.56-4.769-.226-10.359-.354-15.978-.354-9.617 0-19.146.376-28.573 1.115l1.247-.079c-33.135 2.284-63.897 7.425-93.576 15.239l3.468-.776C242.144 73.15 122.877 170.853 55.567 299.955l-1.382 2.911C20.038 369.227.022 447.676.022 530.801c0 23.538 1.605 46.701 4.712 69.386l-.295-2.634c5.497 47.074 17.189 90.005 34.346 130.037l-1.152-3.024c11.139 27.352 22.94 50.474 36.421 72.456l-1.223-2.144c48.006 76.001 112.929 137.236 189.742 179.547l2.677 1.352c26.106 14.871 56.524 28.511 88.289 39.224l3.739 1.094c9.642 3.157 19.199 6.357 29.396 8.917z"/></svg>