<svg width="64" height="64" viewBox="0 0 877 877" xmlns="http://www.w3.org/2000/svg"><path d="M336.163 61.944v162.195L525.789-45.416c20.114-29.539 48.059-52.396 80.864-65.823l1.197-.434c17.921-7.368 38.724-11.646 60.526-11.646 12.141 0 23.972 1.327 35.356 3.843l-1.083-.201c32.675 7.369 60.951 23.01 83.466 44.609l-.061-.058c28.231 25.495 46.89 61.124 50.21 101.108l.037.556c.461 4.484.724 9.689.724 14.955 0 33.331-10.532 64.203-28.45 89.468l.324-.481L637.59 374.911 845.475 637.63c19.574 24.899 31.393 56.7 31.393 91.261 0 4.464-.197 8.882-.583 13.246l.04-.565c-2.227 41.571-19.649 78.689-46.763 106.243l.021-.022c-21.218 21.649-48.45 37.331-78.99 44.341l-1.085.21c-12.529 3.104-26.913 4.884-41.713 4.884-16.444 0-32.375-2.198-47.515-6.317l1.266.293c-28.026-7.352-51.804-22.613-69.523-43.231l-.152-.181-255.708-315.245v173.617c.313 4.232.492 9.168.492 14.146 0 50.449-18.331 96.617-48.697 132.206l.236-.284c-27.817 28.401-66.56 46.007-109.415 46.007-2.545 0-5.075-.062-7.59-.185l.354.014c-2.699.167-5.854.262-9.031.262-46.974 0-89.083-20.832-117.591-53.762l-.166-.196C16.865 809.149.015 764.075.015 715.065c0-3.131.069-6.246.205-9.344l-.015.441v-646.5a190.287 190.287 0 01-.135-7.299c0-47.672 16.867-91.406 44.959-125.557l-.273.342c28.444-32.438 69.969-52.806 116.251-52.806 2.905 0 5.791.08 8.656.239l-.398-.018c1.916-.082 4.165-.128 6.424-.128 43.748 0 83.413 17.484 112.387 45.846l-.028-.028C318.171-45.333 336.545.029 336.545 49.682c0 4.313-.139 8.593-.412 12.836l.03-.579z"/></svg>