<svg width="64" height="64" viewBox="0 0 1497 1497" xmlns="http://www.w3.org/2000/svg"><path d="M1491.573 973.68h-2.345q18.709 16.364-9.33 23.399l-203.353 53.732 184.594 250.1q9.33 14.019 4.69 19.956a78.305 78.305 0 01-22.883 14.775l-.515.192-238.376 86.61q-226.752 79.475-247.756 86.51h-2.345c-11.787 5.894-25.678 9.345-40.376 9.345-.591 0-1.181-.006-1.77-.017l.088.001c-15.065-3.354-27.473-12.742-34.787-25.436l-.137-.257q-23.399-30.383-170.625-296.848-250.25 65.406-313.361 79.475c-6.267 2.433-13.521 3.843-21.104 3.843-25.482 0-47.246-15.92-55.888-38.357l-.139-.409-60.816-133.407Q18.958 599.652 7.283 569.268q-21.054-46.747 18.709-51.437l30.383-2.345q243.315-18.659 271.154-21.004a61.997 61.997 0 014.747-.176c8.835 0 17.253 1.789 24.91 5.024l-.421-.158c7.152 4.919 13.022 11.171 17.363 18.441l.148.268 362.304 605.42 453.454-107.514-149.671-212.733q-16.364-23.399 21.054-28.038l210.388-34.923c2.869-.644 6.164-1.013 9.546-1.013 4.949 0 9.714.79 14.175 2.251l-.322-.091c9.396 4.928 17.221 11.652 23.27 19.776l.128.18 91.15 112.203q74.786 93.245 81.82 100.28zm-825.137 168.28q11.674-2.345 2.345-14.019L329.626 541.23c-1.655-2.863-4.702-4.759-8.191-4.759a9.46 9.46 0 00-1.185.074l.046-.005L72.54 557.594q-2.345 0-2.345 4.69a20.677 20.677 0 002.399 9.442l-.054-.113 306.227 631.113q2.345 4.69 4.69 4.69h11.674l165.935-39.912q102.824-25.544 105.368-25.544zm715.278 133.257l-149.671-205.698c-1.894-3.493-4.689-6.288-8.077-8.13l-.105-.052a17.448 17.448 0 00-3.409-.327c-2.574 0-5.02.543-7.232 1.52l.115-.045-444.024 116.893 147.276 247.756q7.035 11.674 11.674 12.872c1.153.221 2.479.348 3.834.348 2.823 0 5.518-.549 7.983-1.546l-.143.051 437.09-149.671q9.33-2.345 9.33-4.69a11.358 11.358 0 00-2.363-5.862l.019.025zm28.038-313.212q18.709-4.69 14.019-11.674-114.748-142.587-128.568-161.296c-2.714-5.778-8.485-9.708-15.174-9.708-1.252 0-2.472.138-3.646.399l.111-.021-168.28 30.383q-9.33 2.345-2.345 11.674l133.257 182.299q86.46-21.054 170.625-42.107z"/></svg>