<svg width="64" height="64" viewBox="0 0 1024 1024" xmlns="http://www.w3.org/2000/svg"><path d="M980.958 488.891l-.001.226c0 9.861 3.904 18.81 10.251 25.385l-.01-.011a42.66 42.66 0 0029.055 11.36c1.319 0 2.624-.06 3.913-.176l-.166.012v44.817a41.284 41.284 0 00-3.747-.164c-11.227 0-21.445 4.319-29.084 11.386l.028-.026a37.405 37.405 0 00-10.24 26.417v-.032q0 15.189 2.389 41.609t2.389 45.602c.267 2.469.42 5.334.42 8.233 0 17.97-5.857 34.572-15.766 48.001l.156-.222c-11.709 10.143-27.092 16.323-43.918 16.323-2.288 0-4.549-.114-6.778-.337l.281.023h-32.017v-39.936h9.762v-1.604a27.98 27.98 0 003.097.166 28.84 28.84 0 0019.321-7.392l-.027.024c4.169-6.589 6.644-14.611 6.644-23.21 0-1.684-.095-3.345-.28-4.98l.018.2-3.209-83.217a73.213 73.213 0 01-.172-5.113c0-13.124 3.325-25.472 9.177-36.247l-.199.4c6.5-9.365 16.31-16.04 27.705-18.35l.285-.048v-3.209c-11.527-2.297-21.277-8.657-27.904-17.494l-.085-.119c-5.686-10.349-9.031-22.679-9.031-35.79 0-2.048.082-4.076.242-6.083l-.017.265 3.209-83.217a47.15 47.15 0 00.241-4.847c0-8.478-2.163-16.45-5.967-23.396l.127.254a28.516 28.516 0 00-19.29-7.472 28.95 28.95 0 00-4.073.287l.153-.018h-9.591v-38.332h32.017a65.17 65.17 0 016.497-.315c16.826 0 32.209 6.18 44.002 16.395l-.084-.071c9.753 13.208 15.609 29.809 15.609 47.779 0 2.9-.153 5.764-.45 8.585l.03-.352q0 19.217-2.389 45.602t-2.526 42.428zm-169.643 51.2q68.847 22.391 68.847 76.834c.007.366.01.798.01 1.23 0 23.044-10.596 43.612-27.182 57.099l-.135.106c-19.081 14.628-43.291 23.441-69.56 23.441-2.559 0-5.099-.084-7.617-.248l.343.018c-17.921-.407-34.909-3.89-50.623-9.939l1.027.348c-17.297-5.823-32.213-14.553-44.929-25.726l.146.126 33.587-49.596c17.68 15.004 40.454 24.496 65.409 25.592l.229.008q31.983 0 31.983-20.787 0-9.591-14.404-19.183c-9.016-4.728-19.615-9.077-30.64-12.447l-1.343-.353-6.383-3.209q-65.638-25.6-65.638-73.626a66.544 66.544 0 01-.033-2.133c0-22.095 10.261-41.794 26.278-54.591l.14-.108c17.838-13.574 40.427-21.746 64.925-21.746 1.932 0 3.852.051 5.758.151l-.267-.011c33.235.931 63.518 12.85 87.522 32.234l-.277-.217-33.485 44.715c-14.823-12.03-33.627-19.69-54.174-20.777l-.234-.01q-27.307 0-27.307 19.217a22.186 22.186 0 0011.088 17.556l.108.057c7.365 4.592 15.865 8.411 24.881 11.018l.719.178q8.124 3.174 11.332 4.779zm-574.566 94.447h9.591l9.523 54.409c-10.68 4.082-23.032 6.446-35.937 6.446-.866 0-1.73-.011-2.591-.032l.128.002q-68.847 0-68.847-86.426v-240.06h-22.46a25.367 25.367 0 00-3.325-.211 26.162 26.162 0 00-18.288 7.42l.006-.006c-3.677 6.692-5.839 14.664-5.839 23.142 0 1.707.088 3.394.259 5.056l-.017-.208 1.604 81.647c.144 1.796.226 3.889.226 6.001 0 13.272-3.239 25.788-8.969 36.801l.21-.443c-6.337 9.19-16.318 15.478-27.811 16.777l-.178.016v3.209c11.679 2.357 21.489 9.032 27.893 18.252l.096.146c5.654 10.375 8.978 22.723 8.978 35.847 0 1.799-.062 3.584-.185 5.352l.013-.238q0 16.009-1.604 44.817v38.4a51.431 51.431 0 00-.204 4.654c0 8.816 2.145 17.13 5.942 24.45l-.14-.296c4.554 5.04 11.114 8.194 18.411 8.194 1.127 0 2.236-.075 3.322-.221l-.127.014h9.626v38.4h-32.154a65.03 65.03 0 01-6.457.311c-16.861 0-32.272-6.206-44.075-16.458l.083.07c-9.754-13.208-15.612-29.812-15.612-47.784 0-2.91.154-5.785.453-8.616l-.03.353q0-19.183 2.389-45.602t2.389-41.609c.008-.28.013-.61.013-.94 0-9.637-3.919-18.359-10.251-24.658l-.001-.001c-7.72-6.485-17.768-10.425-28.736-10.425a45.46 45.46 0 00-4.245.198l.179-.014v-44.783c1.123.105 2.428.164 3.747.164 11.227 0 21.445-4.319 29.084-11.386l-.028.026a36.425 36.425 0 0010.241-25.374l-.001-.238v.012q0-14.404-2.389-41.609t-2.389-46.285c-.267-2.469-.42-5.334-.42-8.233 0-17.97 5.857-34.572 15.766-48.001l-.156.222c11.709-10.143 27.092-16.323 43.918-16.323 2.288 0 4.549.114 6.778.337l-.281-.023h120.081v284.911a24.267 24.267 0 00-.102 2.261c0 5.115 1.529 9.873 4.154 13.841l-.058-.094c2.046 2.69 5.212 4.436 8.79 4.539h.016zm371.302-94.447q68.847 22.391 68.847 76.834c.007.366.01.798.01 1.23 0 23.044-10.596 43.612-27.182 57.099l-.135.106c-19.081 14.628-43.291 23.441-69.56 23.441-2.559 0-5.099-.084-7.617-.248l.343.018c-18.263-.227-35.64-3.739-51.659-9.97l1.005.344c-17.499-6.242-32.623-14.922-45.864-25.809l.262.209 33.587-49.596c17.68 15.004 40.454 24.496 65.409 25.592l.229.008q32.017 0 32.017-20.787 0-9.591-14.404-19.183c-9.016-4.728-19.615-9.077-30.64-12.447l-1.343-.353-4.813-3.209q-67.243-25.6-67.243-73.626a66.909 66.909 0 01-.024-1.81c0-22.385 10.652-42.283 27.164-54.9l.167-.122c18.215-13.572 41.161-21.729 66.013-21.729 1.837 0 3.664.045 5.479.133l-.256-.01c32.735.772 62.535 12.737 85.863 32.198l-.222-.18-33.553 44.749c-14.363-11.825-32.582-19.449-52.525-20.772l-.28-.015q-28.809 0-28.809 19.217c.028 7.737 4.544 14.413 11.079 17.562l.117.051c7.861 4.728 16.954 8.567 26.596 11.041l.711.155q7.919 3.174 11.127 4.779zM359.97 429.67a92.879 92.879 0 015.298-.146c29.626 0 56.129 13.37 73.804 34.405l.121.148c17.519 22.391 28.093 50.951 28.093 81.981 0 1.851-.038 3.693-.112 5.526l.008-.263a148.957 148.957 0 01-3.388 29.788l.179-.98v1.604H311.977c1.441 16.539 9.421 30.974 21.306 40.882l.096.078c10.271 8.569 23.61 13.772 38.165 13.772 2.187 0 4.346-.117 6.472-.346l-.264.023c20.727-.481 39.982-6.369 56.535-16.299l-.522.29 23.893 44.817c-24.886 17.976-55.996 28.767-89.624 28.809h-.01c-1.443.06-3.135.095-4.836.095-33.651 0-64.157-13.467-86.422-35.306l.02.019c-22.35-23.497-36.099-55.357-36.099-90.428 0-1.69.032-3.372.095-5.046l-.007.242c-.148-2.32-.232-5.03-.232-7.76 0-34.523 13.487-65.896 35.48-89.136l-.057.06c20.9-22.695 50.76-36.864 83.928-36.864h.222-.011zm-47.991 105.643h91.238q0-49.596-43.213-49.596h-.019c-12.155 0-23.169 4.887-31.183 12.804l.004-.004c-9.415 9.591-15.609 22.373-16.813 36.577l-.015.219z"/></svg>