<svg width="64" height="64" viewBox="0 0 1094 1094" xmlns="http://www.w3.org/2000/svg"><path d="M519.312 1115.297a15.78 15.78 0 01-9.938-2.698l.055.035c-10.722-8.388-6.783-28.847-2.261-52.515 3.338-12.316 5.256-26.457 5.256-41.046 0-6.315-.359-12.545-1.059-18.673l.07.749c-4.171-20.539-21.096-36.115-41.995-38.203l-.199-.016c-6.965-.802-12.764-1.532-18.234-2.298-66.599-9.433-126.805-27.807-182.558-54.078l3.862 1.636c-29.655-13.913-54.761-28.303-78.576-44.453l1.992 1.274c-24.769-16.715-46.407-34.091-66.511-53.075l.248.232c-19.617-18.534-37.41-38.548-53.362-60.01l-.867-1.22c-14.748-19.791-28.311-42.209-39.645-65.896l-1.054-2.446C12.746 637.725.009 584.991.009 529.283c0-31.327 4.028-61.714 11.594-90.67l-.552 2.489c8.176-31.314 19.077-58.663 32.857-84.232l-.983 1.996c15.224-28.192 32.013-52.52 51.097-74.823l-.479.573c20.267-23.881 42.13-45.177 65.846-64.264l.928-.722c23.655-19.018 50.145-36.745 78.132-52.08l2.828-1.42c26.091-14.43 56.786-28.073 88.7-39.102l4.222-1.269c28.783-10.152 63.349-19.025 98.897-25l3.798-.528c33.141-5.663 71.315-8.899 110.244-8.899s77.104 3.237 114.267 9.455l-4.023-.556c39.346 6.503 73.911 15.376 107.243 26.895l-4.547-1.367c36.137 12.298 66.832 25.941 96.052 41.941l-3.13-1.57c30.815 16.754 57.305 34.48 82.023 54.324l-1.063-.825c24.643 19.809 46.506 41.105 66.204 64.298l.57.689c18.541 21.764 35.272 46.14 49.336 72.17l1.1 2.226c12.846 23.53 23.804 50.824 31.459 79.468l.597 2.623c7.055 26.499 11.107 56.923 11.107 88.293 0 43.678-7.855 85.522-22.231 124.195l.803-2.465c-15.4 41.53-35.757 77.446-60.896 109.425l.65-.858c-3.279 4.721-6.609 8.85-10.205 12.728l.067-.073-.328.365c-18.27 21.681-37.735 41.099-58.746 58.735l-.734.6c-72.743 66.21-152.016 128.793-235.516 185.625l-7.437 4.777c-30.534 21.263-66.419 43.424-103.478 63.71l-6.329 3.173c-11.243 6.206-24.954 12.64-39.083 18.248l-2.564.898c-8.509 3.682-18.376 6.123-28.724 6.805l-.268.014zm255.28-714.346c-15.725.062-28.456 12.793-28.518 28.512v211.524c.062 15.725 12.793 28.456 28.512 28.518h110.323c15.725-.062 28.456-12.793 28.518-28.512v-2.376c-.062-15.725-12.793-28.456-28.512-28.518h-79.471v-45.112h79.428c15.734-.041 28.477-12.785 28.518-28.514v-2.374c-.062-15.725-12.793-28.456-28.512-28.518h-79.434v-45.185h79.428c15.725-.062 28.456-12.793 28.518-28.512v-2.413c-.062-15.725-12.793-28.456-28.512-28.518h-.006zm-254.769-.511c-15.725.062-28.456 12.793-28.518 28.512v211.524c.062 15.725 12.793 28.456 28.512 28.518h2.376c15.725-.062 28.456-12.793 28.518-28.512V513.93l103.862 141.863a29.127 29.127 0 002.117 2.892l-.038-.047c2.75 3.696 6.466 6.53 10.776 8.151l.164.054c3.192 1.361 6.905 2.152 10.803 2.152h2.545a28.242 28.242 0 0013.461-3.393l-.15.074c2.749-1.257 5.07-3.006 6.945-5.155l.021-.024c5.093-5.117 8.242-12.172 8.242-19.964v-.06.003-211.518c-.021-15.742-12.776-28.498-28.516-28.518h-2.518c-15.725.062-28.456 12.793-28.518 28.512V553.17L546.92 414.881c-4.974-8.718-14.183-14.516-24.752-14.587h-.01zm-99.596 0c-15.725.062-28.456 12.793-28.518 28.512v211.524c.062 15.725 12.793 28.456 28.512 28.518h2.376c15.725-.062 28.456-12.793 28.518-28.512V428.958c-.062-15.725-12.793-28.456-28.512-28.518h-.006zm-190.402 0c-15.725.062-28.456 12.793-28.518 28.512v211.524c.062 15.725 12.793 28.456 28.512 28.518h110.25c15.725-.062 28.456-12.793 28.518-28.512v-2.121c-.021-15.742-12.776-28.498-28.516-28.518h-79.394V428.959c-.062-15.725-12.793-28.456-28.512-28.518h-.006z"/></svg>