<svg width="64" height="64" viewBox="0 0 1071 1071" xmlns="http://www.w3.org/2000/svg"><path d="M243.439 401.065v691.268H13.244V401.065zm14.643-213.436c.05 1.241.078 2.698.078 4.161 0 31.938-13.56 60.71-35.236 80.871l-.068.062c-23.268 21.252-54.372 34.27-88.516 34.27-2.11 0-4.209-.05-6.294-.148l.295.011h-1.399c-1.74.086-3.778.135-5.827.135-33.448 0-63.85-13.045-86.394-34.325l.061.057c-21.484-20.809-34.82-49.921-34.82-82.148 0-1.036.014-2.069.041-3.098l-.003.152c-.025-.88-.039-1.915-.039-2.954 0-32.511 13.807-61.798 35.878-82.315l.07-.064c23.216-21.137 54.217-34.08 88.241-34.08 1.955 0 3.899.043 5.833.127l-.275-.01c1.817-.093 3.946-.145 6.087-.145 33.51 0 64.002 12.918 86.769 34.046l-.081-.074c21.97 21.196 35.613 50.896 35.613 83.783 0 .593-.004 1.185-.013 1.776l.001-.089zm813.329 508.587v396.117H841.933V722.635c.199-3.358.313-7.284.313-11.237 0-38.219-10.625-73.956-29.081-104.419l.506.899c-18.207-25.414-47.644-41.777-80.904-41.777-2.58 0-5.137.098-7.667.292l.336-.021a108.616 108.616 0 00-3.807-.064c-26.447 0-50.771 9.087-70.022 24.309l.237-.181c-19.32 15.643-34.467 35.688-44.011 58.649l-.362.982c-4.936 15.137-7.782 32.555-7.782 50.638 0 2.058.037 4.108.11 6.148l-.008-.295v385.775H370.313q1.399-278.323 1.399-451.311t-.683-206.473l-.683-33.485h229.478v100.454h-1.399c9.149-14.737 18.579-27.49 28.925-39.427l-.321.379c11.982-13.178 24.872-25.073 38.733-35.771l.691-.512c17.231-13.265 37.462-23.665 59.409-30.027l1.28-.318c22.961-6.879 49.346-10.839 76.655-10.839 1.131 0 2.26.007 3.388.02l-.171-.002c3.015-.131 6.551-.206 10.105-.206 71.73 0 136.34 30.485 181.581 79.205l.143.156q72.602 79.189 72.602 231.936z"/></svg>