<svg width="64" height="64" viewBox="0 0 870 870" xmlns="http://www.w3.org/2000/svg"><path d="M374.682 102.204a10.252 10.252 0 00-8.814 5.944l-.026.064q-2.56 5.427-4.847 5.427-2.867.58-2.867-2.867 0-6.827 10.854-8.567zm49.698 7.988q-2.287.58-6.588-3.721a9.402 9.402 0 00-6.955-3.066 9.399 9.399 0 00-3.112.526l.066-.02q13.653-6.281 18.295 1.126a3.415 3.415 0 01-1.682 5.147l-.024.007zM223.812 354.211a2.766 2.766 0 00-3.407 1.687l-.006.019c-.931 1.984-1.805 4.354-2.483 6.807l-.077.327c-.802 2.936-1.875 5.499-3.228 7.882l.088-.167a56.314 56.314 0 01-5.741 7.486l.04-.045q-5.7 6.281-.58 6.827 2.287.58 7.134-3.994a28.798 28.798 0 007.064-10.051l.07-.189q.58-1.707 1.126-3.994a17.599 17.599 0 011.172-3.524l-.045.111c.37-.738.665-1.596.843-2.495l.011-.065a11.93 11.93 0 00.273-2.271v-1.723l-.58-1.434zm488.551 205.141q0-10.24-31.437-23.893 2.287-8.567 4.301-15.701c1.234-4.217 2.242-9.256 2.828-14.422l.039-.426q.853-7.714 1.707-12.288c.34-2.274.535-4.898.535-7.567a54.29 54.29 0 00-.281-5.529l.019.228q-.58-8.294-.58-11.127c-.396-4.689-1.108-8.973-2.133-13.134l.119.573q-2.014-9.728-2.287-11.708t-2.867-14.268q-2.56-12.288-3.14-15.155c-5.506-22.423-14.776-42.1-27.207-59.348l.344.502c-10.575-17.322-24.358-31.649-40.64-42.529l-.491-.309a165.848 165.848 0 0132.138 46.389l.426 1.022c21.804 33.08 34.782 73.653 34.782 117.257 0 14.719-1.479 29.092-4.296 42.98l.234-1.381c-2.594 13.633-14.382 23.813-28.561 23.893h-.009q-17.715 2.287-21.982-10.581c-2.99-12.29-4.705-26.401-4.705-40.912 0-2.418.048-4.824.142-7.219l-.011.344c.002-.399.003-.872.003-1.345 0-21.191-2.402-41.821-6.947-61.633l.356 1.845c-3.597-16.001-7.425-29.192-11.932-42.063l.805 2.639c-3.314-10.075-7.08-18.674-11.542-26.838l.415.829q-5.154-8.841-8.841-13.995a57.744 57.744 0 00-7.414-8.542l-.027-.025-4.062-4.028c-4.87-22.737-10.971-42.417-18.596-61.318l.881 2.472c-4.538-12.208-10.225-22.769-17.139-32.388l.277.405c-4.623-5.545-9.047-11.697-13.021-18.155l-.393-.687c-5.801-8.996-9.249-19.985-9.249-31.78a59.072 59.072 0 014.236-22.038l-.141.399c2.239-5.466 3.539-11.811 3.539-18.459 0-3.482-.357-6.88-1.035-10.161l.056.323q-3.14-9.728-25.429-14.268c-9.678-2.615-18.129-6.113-25.993-10.531l.564.291c-5.739-3.32-12.432-6.408-19.416-8.882l-.86-.266q-4.574-.58-6.281-14.848a54.894 54.894 0 01-.33-6.106 56.378 56.378 0 015.049-23.399l-.144.355c2.923-8.792 10.923-15.084 20.441-15.427l.039-.001a25.724 25.724 0 014.266-.346c11.372 0 21.07 7.166 24.824 17.229l.06.183c2.9 5.611 4.6 12.247 4.6 19.28 0 4.964-.847 9.731-2.405 14.163l.092-.299q-6.281 10.854-1.126 15.155t17.067.273q7.441-2.287 7.441-20.48V71.345c-1.619-10.71-4.311-20.328-8.022-29.422l.308.852c-2.708-6.9-6.803-12.739-11.975-17.407l-.04-.036a52.14 52.14 0 00-13.085-8.435l-.33-.133c-4.397-1.778-9.577-3.27-14.942-4.229l-.486-.072q-61.133 4.574-50.859 76.561c.091.793.142 1.713.142 2.644 0 2.103-.263 4.145-.759 6.094l.037-.17a25.87 25.87 0 00-16.874-6.008h.013a82.357 82.357 0 00-8.197-.396c-3.752 0-7.448.243-11.072.715l.427-.045q-7.134 1.126-8.841-2.867c.149-2.138.234-4.634.234-7.15 0-16.034-3.455-31.26-9.66-44.976l.278.687c-4.16-10.7-13.92-18.358-25.585-19.413l-.118-.009a23.45 23.45 0 00-.731-.011c-10.403 0-19.303 6.437-22.933 15.546l-.059.167c-5.211 9.912-8.601 21.541-9.407 33.876l-.013.258a81.65 81.65 0 002.124 21.681l-.11-.552c1.536 8.061 4.117 15.243 7.641 21.846l-.2-.411q4.847 8.841 8.841 7.714c4.054-1.349 7.292-4.209 9.107-7.896l.04-.091q2.287-5.154-3.994-4.574-3.994 0-8.841-8.294c-3.193-5.507-5.176-12.071-5.425-19.076l-.002-.072a33.287 33.287 0 01-.118-2.845 34.172 34.172 0 015.355-18.422l-.083.139c3.775-5.008 9.713-8.212 16.399-8.212 1.067 0 2.115.082 3.137.239l-.114-.014a17.368 17.368 0 0115.393 11.892l.035.123c3.403 6.476 5.408 14.146 5.427 22.283v.006l.001.448c0 4.273-.311 8.474-.91 12.581l.056-.467c-7.014 4.417-12.899 9.933-17.59 16.375l-.125.18c-4.191 5.533-9.43 10.042-15.449 13.29l-.252.124q-11.127 6.588-11.708 7.134a32.462 32.462 0 00-8.792 15.203l-.049.225c-.269.79-.424 1.7-.424 2.646a8.465 8.465 0 004.676 7.572l.049.022c5.473 3.139 10.177 6.832 14.282 11.106l.02.021a86.546 86.546 0 018.972 10.596l.176.258c2.693 3.404 6.287 5.984 10.423 7.394l.158.047c6.018 2.253 12.971 3.607 20.226 3.72l.05.001c1.289.035 2.807.054 4.329.054 19.285 0 37.833-3.155 55.157-8.977l-1.22.356q1.126-.58 13.141-3.994t19.729-6.007c6.567-2.29 12.134-4.802 17.437-7.732l-.575.291c4.941-2.23 9.008-5.65 11.953-9.906l.062-.095q5.154-7.987 11.435-4.574a7.957 7.957 0 013.708 4.791l.013.055c.104.489.164 1.052.164 1.628a8.126 8.126 0 01-1.882 5.212l.011-.013c-2.335 2.812-5.606 4.776-9.329 5.414l-.092.013c-13.33 4.308-24.021 8.473-34.432 13.148l2.142-.86q-20.855 8.841-26.01 11.127c-11.496 5.523-24.878 10.062-38.864 12.945l-1.14.196c-5.843.786-12.598 1.235-19.457 1.235-9.14 0-18.094-.797-26.795-2.325l.923.134q-5.7-1.126-5.154 1.126c2.667 4.227 5.897 7.816 9.64 10.787l.088.067c9.124 7.904 21.11 12.72 34.221 12.72 1.435 0 2.856-.058 4.261-.171l-.185.012c7.497-.536 14.469-1.957 21.081-4.168l-.601.174c8.151-2.58 14.932-5.288 21.474-8.415l-.994.428q9.728-4.574 19.149-10.001t17.067-9.728c3.786-2.192 8.385-4.479 13.126-6.498l.869-.329c2.055-1.08 4.491-1.713 7.074-1.713 1.035 0 2.047.102 3.025.296l-.098-.016c2.638 1.013 4.538 3.392 4.844 6.247l.003.033a7.018 7.018 0 01-.598 2.605l.018-.045a7.595 7.595 0 01-2.269 2.854l-.018.013a39.677 39.677 0 01-3.272 2.47l-.141.09q-1.707 1.126-4.847 2.867t-5.154 2.56q-2.014.853-5.7 2.867a37.961 37.961 0 01-5.156 2.467l-.271.093c-14.695 7.873-27.318 16.213-39.103 25.564l.532-.408c-11.081 8.852-23.523 17.009-36.701 23.956l-1.289.62c-4.172 2.429-9.182 3.862-14.527 3.862a29.119 29.119 0 01-13.622-3.359l.16.077c-14.512-11.432-26.539-25.277-35.644-41.024l-.367-.687q-12.561-17.715-14.268-12.561c-.38 1.459-.598 3.133-.598 4.858 0 .296.006.591.019.884l-.001-.042c-.478 11.875-3.592 22.92-8.768 32.706l.201-.416q-8.567 17.988-16.862 31.71c-5.632 9.549-9.824 20.684-11.926 32.54l-.089.603c-.647 2.975-1.017 6.392-1.017 9.896 0 9.692 2.835 18.723 7.721 26.307l-.116-.192q-13.141 3.413-35.703 51.439c-12.148 23.278-21.623 50.274-27.017 78.715l-.29 1.839q-1.126 10.24-.853 39.424c.317 2.751.498 5.939.498 9.169 0 8.759-1.33 17.208-3.799 25.155l.161-.6q-4.574 13.653-16.555 1.707c-12.704-13.965-20.483-32.608-20.483-53.067 0-.232.001-.463.003-.694v.036a109.704 109.704 0 01-.282-7.985c0-8.502.936-16.785 2.71-24.752l-.141.755q2.287-10.854-.58-10.24a6.21 6.21 0 00-2.272 2.826l-.015.042c-5.6 12.331-8.863 26.74-8.863 41.911 0 19.541 5.414 37.817 14.823 53.41l-.26-.465c3.539 6.472 8.345 11.834 14.121 15.911l.146.098q11.435 9.148 13.653 11.435a596.157 596.157 0 0058.003 50.666l1.424 1.046q47.991 38.571 53.146 43.725c5.864 5.465 9.631 13.114 9.999 21.644l.002.065c.028.531.044 1.153.044 1.778 0 19.202-15.116 34.874-34.097 35.766l-.08.003c5.669 9.871 11.141 18.175 17.053 26.131l-.498-.702c6.698 8.781 12.14 18.975 15.797 29.984l.212.736c2.589 10.607 4.073 22.784 4.073 35.308 0 1.747-.029 3.488-.086 5.222l.007-.253q26.283-13.653 3.994-52.565c-1.793-3.48-3.789-6.479-6.074-9.23l.066.082q-3.721-4.574-5.427-6.827t-1.126-3.413a16.287 16.287 0 017.328-5.391l.113-.036a10.815 10.815 0 014.553-.987c2.614 0 5.016.913 6.902 2.437l-.021-.016q26.283 29.696 94.857 20.48h.25c40.957 0 77.395-19.35 100.67-49.407l.217-.292q13.141-21.709 19.422-17.067 6.827 3.413 5.7 29.696c-2.637 19.638-7.238 37.376-13.691 54.197l.55-1.632c-2.339 4.88-3.705 10.608-3.705 16.656 0 1.685.106 3.345.312 4.974l-.02-.194q1.707 8.294 13.653 8.841 1.707-10.854 8.294-43.998c3.269-14.39 5.996-31.949 7.598-49.831l.116-1.608a194.13 194.13 0 00-3.936-43.233l.215 1.249c-2.755-15.406-4.33-33.139-4.33-51.241 0-1.474.01-2.945.031-4.414l-.002.223a58.948 58.948 0 01-.027-1.856 62.363 62.363 0 0113.273-38.559l-.104.138c6.516-6.451 15.483-10.437 25.381-10.437 1.328 0 2.638.072 3.929.211l-.16-.014a28.817 28.817 0 01-.004-.528c0-13.299 8.04-24.72 19.524-29.668l.21-.08c8.914-4.33 19.39-6.861 30.457-6.861 3.876 0 7.68.31 11.388.908l-.407-.054c13.204 1.098 25.143 5.744 35.083 12.972l-.199-.138zM353.519 86.776c.403-1.842.633-3.959.633-6.129 0-3.936-.759-7.696-2.138-11.139l.071.202q-3.14-7.441-6.588-8.567-5.154-1.126-5.154 3.994a5.384 5.384 0 002.835 3.399l.032.014q5.7 0 3.994 8.567-1.707 11.435 4.574 11.435a1.503 1.503 0 001.74-1.785l.002.01zm239.411 112.64a11.594 11.594 0 00-3.708-6.577l-.012-.01a16.65 16.65 0 00-7.355-2.858l-.086-.009c-3.128-.497-5.925-1.601-8.378-3.191l.084.051a24.099 24.099 0 01-5.405-4.548l-.022-.026q-2.56-2.867-3.994-4.574l-3.14-3.721a11.88 11.88 0 00-2.258-2.266l-.029-.021q-.58-.273-2.287.853-7.987 9.148 3.994 24.849c5.213 8.253 12.89 14.539 21.986 17.89l.303.098a8.227 8.227 0 008.273-4.526l.022-.048c1.47-2.352 2.342-5.209 2.342-8.269 0-1.133-.119-2.238-.346-3.303l.018.103zM491.247 77.731l.001-.171c0-7.405-3.573-13.976-9.088-18.082l-.06-.043q-3.413-2.287-5.154-1.707a6.59 6.59 0 00-4.595 1.141l.021-.014a1.433 1.433 0 00-.004 2.284l.003.003a7.172 7.172 0 002.816 1.693l.051.014q7.987 2.287 10.24 17.715 0 1.707 4.574-1.126 1.195-1.229 1.195-1.707zm30.72-133.12a4.95 4.95 0 00-1.433-2.867l-.001-.001a21.94 21.94 0 00-4.881-3.904l-.102-.056q-3.721-2.287-5.427-3.413c-3.346-4.281-8.07-7.349-13.498-8.539l-.155-.029h-.04a7.134 7.134 0 00-6.529 4.255l-.018.046a12.248 12.248 0 00-.898 4.645c0 .992.116 1.956.335 2.881l-.017-.085c.237.928.373 1.993.373 3.09 0 1.446-.237 2.837-.673 4.135l.027-.091a18.372 18.372 0 01-3.434 6.032l.021-.025a28.042 28.042 0 00-3.339 4.999l-.074.156q-.58 1.434 1.707 4.847c.603.546 1.406.879 2.287.879s1.684-.334 2.29-.882l-.003.003q2.287-1.707 6.281-5.154a28.46 28.46 0 018.373-5.087l.194-.067a11.304 11.304 0 013.835-.656c.465 0 .923.027 1.374.081l-.055-.005.274.001c2.952 0 5.807-.412 8.512-1.181l-.219.053a7.198 7.198 0 005.033-4.017l.018-.045zM844.8 710.836c6.801 3.906 12.634 8.554 17.675 13.952l.04.043a24.504 24.504 0 016.809 13.516l.017.137c.082.866.128 1.872.128 2.889 0 3.566-.571 6.998-1.627 10.21l.066-.231c-1.895 5.028-4.927 9.256-8.796 12.524l-.045.037a166.023 166.023 0 01-12.986 10.82l-.428.308c-4.888 3.562-10.468 7.07-16.284 10.197l-.783.384q-10.581 5.7-17.988 9.421t-18.295 8.841q-10.854 5.154-15.428 7.441c-18.586 9.827-34.581 20.438-49.415 32.429l.57-.446c-15.943 12.224-30.002 24.194-43.432 36.825l.287-.268c-10.277 6.993-22.961 11.165-36.621 11.165-.782 0-1.56-.014-2.336-.041l.112.003c-2.908.297-6.283.466-9.699.466-14.905 0-29.056-3.226-41.794-9.019l.634.258c-6.702-3.296-12.328-7.819-16.79-13.323l-.072-.092a73.133 73.133 0 01-9.228-14.149l-.192-.426c-2.837-5.005-7.174-8.879-12.393-11.065l-.168-.062c-7.724-3.432-16.735-5.43-26.213-5.43-.229 0-.457.001-.685.003h.035q-25.156-.58-74.274-.58-10.854 0-32.563.853t-33.143 1.434c-16.368.155-31.961 3.285-46.325 8.873l.894-.306c-11.777 4.188-21.962 9.973-30.915 17.219l.195-.153a109.85 109.85 0 01-24.194 15.995l-.655.287c-8.225 4.185-17.937 6.637-28.221 6.637a65.32 65.32 0 01-2.624-.053l.125.004c-23.594-3.553-44.826-9.714-64.771-18.295l1.693.648c-22.926-9.027-50.827-17.487-79.518-23.849l-3.904-.727q-10.854-2.287-29.15-5.427t-28.57-5.154q-10.24-2.014-22.562-5.427c-7.267-1.818-13.654-4.67-19.384-8.44l.236.146c-4.162-2.789-7.472-6.548-9.655-10.963l-.073-.164C.91 806.533.215 801.735.215 796.774c0-8.792 2.181-17.074 6.032-24.336l-.136.282c4.003-8.811 7.522-19.2 10.016-29.982l.224-1.148a88.964 88.964 0 00-2.41-23.474l.123.605q-2.867-13.653-5.7-24.269c-1.639-5.726-2.581-12.303-2.581-19.1 0-.617.008-1.233.023-1.846l-.002.091a20.415 20.415 0 016.006-15.427l.001-.001c8.41-5.072 18.566-8.073 29.422-8.073 1.105 0 2.203.031 3.292.092l-.151-.007c.493.011 1.073.017 1.655.017 11.754 0 22.92-2.52 32.986-7.048l-.508.205c9.422-5.186 17.358-11.88 23.775-19.85l.118-.152c4.369-7.33 6.951-16.164 6.951-25.601 0-1.249-.045-2.487-.134-3.713l.01.164c2.686 5.816 4.252 12.622 4.252 19.794 0 16.967-8.767 31.886-22.018 40.474l-.188.114c-10.417 5.929-22.887 9.424-36.174 9.424-3.966 0-7.86-.311-11.658-.911l.42.055q-19.422-1.707-24.576 5.7-7.441 8.567 2.867 32.563c1.527 4.085 3.067 7.46 4.805 10.713l-.231-.473q3.413 6.827 4.847 10.24c1.085 2.783 1.976 6.056 2.522 9.445l.038.283c.488 2.527.767 5.433.767 8.405a47.18 47.18 0 01-.2 4.34l.014-.183c-1.463 10.492-4.893 19.943-9.917 28.33l.189-.341c-5.009 7.695-7.987 17.11-7.987 27.222v.09-.005q1.707 9.728 21.129 14.848 11.435 3.413 48.299 10.581t56.866 11.708q13.653 3.413 42.291 12.561t47.138 13.141c6.786 1.731 14.577 2.724 22.599 2.724 3.208 0 6.379-.159 9.506-.469l-.395.032c14.315-1.168 27.073-7.041 36.911-16.051l-.047.042c7.364-6.953 12.226-16.488 13.131-27.151l.011-.156c.04-1.079.063-2.347.063-3.621 0-10.625-1.595-20.878-4.558-30.532l.194.736c-2.968-11.401-6.679-21.278-11.274-30.642l.419.946q-5.7-11.127-11.435-20.855c-31.751-52.535-63.609-97.599-98.313-140.255l1.75 2.22q-38.844-42.291-64.58-22.869-6.281 5.154-8.567-8.567c-.834-4.742-1.311-10.203-1.311-15.775 0-2.088.067-4.16.199-6.214l-.014.28c.222-10.724 2.294-20.899 5.907-30.309l-.207.613c4.146-10.355 8.727-19.194 14.045-27.518l-.391.655c4.504-6.832 8.711-14.686 12.196-22.921l.366-.973q4.574-12.015 15.155-41.131t16.862-44.578c5.824-13.917 11.541-25.37 17.894-36.41l-.828 1.56c6.35-11.717 13.756-21.811 22.337-30.771l-.048.051c28.016-32.002 51.763-68.737 69.741-108.633l1.12-2.778q-6.827-64-9.148-177.118a202.91 202.91 0 01-.3-11.225c0-27.09 5.121-52.984 14.447-76.767l-.494 1.429c12.939-26.499 34.026-47.344 59.954-59.644l.769-.328c15.766-7.66 34.295-12.138 53.87-12.138 1.954 0 3.898.045 5.83.133l-.274-.01c1.073-.019 2.339-.031 3.607-.031 20.268 0 39.875 2.828 58.449 8.11l-1.504-.366c19.396 5.002 36.382 13.169 51.288 24.02l-.429-.298c22.984 17.939 40.893 41.354 51.893 68.321l.399 1.106c10.756 22.333 17.041 48.561 17.041 76.256 0 2.821-.065 5.626-.194 8.415l.015-.395c-.102 3.244-.161 7.06-.161 10.889 0 39.781 6.301 78.09 17.96 113.984l-.732-2.608c16.163 48.778 42.228 90.505 76.003 124.575l-.022-.023c23.275 26.5 42.454 57.329 56.094 90.995l.772 2.155c14.391 31.369 26.202 67.955 33.628 106.108l.506 3.118c2.067 10.805 3.249 23.232 3.249 35.936 0 4.35-.139 8.667-.412 12.947l.03-.585c-.583 11.552-3.037 22.368-7.065 32.382l.239-.672q-5.154 11.435-11.435 12.561c-5.626 2.149-10.227 5.925-13.35 10.748l-.065.107q-7.714 9.728-15.428 20.275c-6.227 7.907-13.94 14.344-22.756 18.964l-.386.184c-9.16 5.075-20.085 8.062-31.708 8.062a67.99 67.99 0 01-3.296-.08l.154.006c-6.517-.286-12.672-1.315-18.547-3.005l.559.138c-5.087-1.455-9.434-4.134-12.859-7.704l-.009-.01a108.788 108.788 0 01-7.538-8.608l-.176-.232c-2.33-3.359-4.528-7.2-6.389-11.229l-.198-.479q-3.994-8.294-5.154-11.127-12.561-21.129-23.415-17.067t-16.009 27.989c-1.105 5.952-1.737 12.8-1.737 19.796 0 12.744 2.097 24.999 5.966 36.437l-.235-.801c3.825 17.164 6.016 36.878 6.016 57.103 0 19.222-1.979 37.981-5.745 56.086l.309-1.778c-1.307 5.138-2.057 11.036-2.057 17.11 0 15.034 4.595 28.994 12.458 40.553l-.161-.251c8.666 11.587 22.353 19.007 37.772 19.007 1.386 0 2.759-.06 4.115-.178l-.176.012c18.758-1.379 35.553-8.822 48.664-20.355l-.092.079c15.185-13.256 31.901-25.772 49.523-36.992l1.677-.998c16.585-8.763 36.162-16.99 56.495-23.53l2.658-.739c16.755-5.048 31.363-12.155 44.535-21.204l-.537.348q13.653-10.581 10.581-19.729c-2.863-6.98-7.847-12.604-14.141-16.197l-.161-.084c-8.444-5.208-18.179-9.753-28.441-13.134l-.982-.28c-13.025-4.656-23.198-14.506-28.185-26.989l-.112-.318c-5.433-11.356-8.607-24.684-8.607-38.753 0-.944.014-1.885.043-2.823l-.003.137a36.205 36.205 0 01-.117-2.967c0-9.311 3.389-17.83 9.001-24.391l-.043.051c.275 11.593 1.927 22.679 4.799 33.263l-.225-.973c2.298 8.907 5.134 16.607 8.633 23.929l-.339-.787c3.222 6.246 7.125 11.609 11.718 16.292l-.01-.011a87.464 87.464 0 0011.793 10.694l.222.16q4.574 3.14 12.288 7.441t9.318 5.325z"/></svg>