<svg width="64" height="64" viewBox="0 0 1378 1378" xmlns="http://www.w3.org/2000/svg"><path d="M1205.175 557.14h2.354l2.24.345 2.297.632 2.24.861 2.182 1.148 2.24 1.263 2.01 1.723 2.01 1.665 2.125 2.584 2.642 2.584 1.723 2.584 2.527 2.584 4.307 6.834 1.665 3.445 1.665 4.307 1.723 4.249 1.78 4.249 1.608 4.249 3.331 10.336 1.723 5.168 1.78 5.111 1.665 5.742 1.608 5.742 1.78 6.03 1.723 5.742 3.331 11.485 1.723 6.891 1.723 6.776 1.665 7.752.861 6.891 1.665 7.695 1.723 7.695.976 7.752 1.608 8.556.861 8.499.861 8.556 1.78 8.556.861 8.556.919 8.499.861 9.475.861 9.418.861 9.36.861 9.475.861 9.418.919 10.279.861 19.697.919 10.279.861 10.279 1.723 20.673 2.584 33.249.919 11.198.861 11.083v22.281l.919 12.002.861 12.002v22.97l.861 11.944v35.087l.861 24.061.861 35.891v74.308l.861 21.419 1.723 15.447 2.642 10.279 2.469 6.834 2.699 5.742 3.388 5.168 2.584 2.527 2.584 2.584 2.527 2.584 3.56 1.665 5.111 2.642 5.111 1.665 5.742 1.723 8.154 1.665 11.083.632 15.447-.919h5.513v129.378l-13.725 1.665-32.502 1.493-35.029-1.665-25.726-3.847-19.754-5.111-14.586-5.111-13.61-6.834-13.552-8.614-11.944-10.566-7.695-7.695-7.81-8.556-9.762-15.447-8.614-17.974-6.834-19.639-4.709-22.97-3.101-26.186-.747-29.114V1098.48l-.861-24.004v-49.672l-.861-22.97v-16.768l-.919-11.485v-22.97l-.861-11.14V928.79l-.459-11.083-.861-11.14-.804-10.279v-10.336l-.861-10.279-.861-10.509v-10.222l-.861-10.336-.976-10.279-.689-10.279-.804-9.762-.976-9.762-.861-9.418-.861-9.705-.861-9.188-1.091-9.36-.861-9.418-.976-8.614-1.78-17.572-.861-8.097-.861-7.982-2.297-15.734-.919-7.695-.861-7.752-1.723-7.178-1.723-7.58-1.665-6.776-1.723-6.891-1.78-6.834-1.952-5.742-1.665-5.742-1.436-5.742-2.584-5.168-1.665-5.742-1.665-5.111-1.263-5.168-1.665-5.111-1.78-5.168-1.723-4.249-1.665-4.364-1.665-4.249-1.723-3.388-1.608-4.479-1.665-3.445-2.527-3.445-1.723-2.584-2.067-2.584-1.78-2.527-2.354-1.723-1.608-1.665-2.642-1.723-1.608-.861-2.642-.919-2.814-.689-2.527-.919-1.723-.861h144.825l-2.929 1.78zM.459 375.333l67.13 1.034 62.536 1.493 55.702.861 48.869 1.723 41.92 1.665 36.867 1.665 32.56 1.723 29.057 1.665 26.588 2.642 24.004 2.527 22.223 2.642 20.501 2.527 36.867 5.168 16.251 3.503 15.505 3.388 28.023 7.006 12.806 3.445 12.002 3.445 11.14 4.307 11.14 3.388 10.279 4.249 9.36 4.364 9.533 4.249 8.499 4.249 9.418 4.249 8.499 5.168 15.505 10.336 6.834 5.053 20.501 15.505 5.742 5.168 5.742 5.742 5.742 5.168 5.742 5.742 10.336 11.485 5.742 6.03 10.336 11.485 4.249 5.742 5.168 6.03 4.249 6.834 4.249 5.742 4.249 6.834 4.307 6.891 4.249 6.834 4.249 6.891 3.445 6.834 3.503 6.834 4.249 6.834 10.336 20.501 3.445 6.891 2.584 6.776 2.756 6.891 3.445 7.752 2.871 6.776 3.445 7.752 3.445 6.834 2.527 6.834 3.503 7.752 3.101 7.752 2.527 6.834 2.929 7.695 2.584 6.891 2.584 7.638 5.168 15.505 2.584 7.695 2.527 7.752 1.723 7.695 2.584 7.752 2.24 7.752 1.665 7.638 2.24 7.752 1.665 7.752 2.354 7.695 1.665 7.695 2.584 7.752 1.665 6.834 2.584 7.752v.804l1.665 6.891 1.78 7.293 1.665 7.695 1.665 7.752 3.331 8.729 1.723 7.752 1.665 7.638 2.584 6.891 1.665 7.695 1.723 6.834 1.723 7.752 3.331 13.667 1.723 6.891 1.723 6.834 1.665 6.891 3.445 13.667 3.331 13.667 3.445 13.667.804 6.891 1.723 5.742 2.642 12.806 3.331 11.485 1.723 5.742 1.263 5.742 1.665 5.742.919 5.742 1.665 5.742 1.723 5.742.861 5.742 1.665 5.742 1.723 5.168 1.723 5.742.861 5.111 1.723 5.168.861 5.168.861 5.111.861 5.168.861 4.307.919 5.168.861 4.881.919 4.307.804 4.249.919 4.479 1.378 4.249.861 4.249.861 4.307.861 3.905.919 3.445 1.321 4.249 1.321 3.503.919 3.733.861 3.445.919 3.445 2.584 10.336.861 2.584 1.723 2.929 1.723 5.168.919 2.527 1.665 2.642.861 2.527 2.182 4.307.861 2.182 1.723 3.503.861 1.665.861 1.723.861 1.665.919 1.723 2.584 2.584.919.861.861.919 1.665.919h.919l.861.861H599.848l-2.929-.861-3.273-.919-3.273-.804-3.445-.919-3.445-.861h-.919l-2.986-1.378-3.216-.861-3.273-1.78-3.503-1.723-2.527-1.665-3.445-1.723-2.584 1.148-3.503-1.723-5.053-5.168-3.503-2.584-2.584-2.584-3.445-2.527-3.445-3.445-3.445-3.216-2.527-3.445-3.503-3.101-3.445-2.584-3.445-3.445-3.503-3.445-2.527-3.445h-3.56l-3.388-3.445-2.584-3.905-3.101-3.733-6.834-8.499-3.388-4.307-2.584-4.249-3.56-5.8-3.388-4.249-3.503-5.168-3.445-4.307-3.445-5.053-6.891-10.336-3.503-5.168-3.388-5.168-3.503-5.168-3.445-5.111-3.445-5.742-3.388-5.168-2.642-5.742-10.336-17.227-3.503-5.742-3.388-5.742-6.891-11.485-3.503-5.742-3.044-8.269-3.503-5.742-3.388-5.742-3.503-6.834-3.445-6.891-3.445-6.834-3.503-6.891-3.675-7.006-3.503-6.834-3.388-6.834-3.445-6.834-7.752-1.608-2.814-7.236-3.388-7.063-3.503-7.063-3.388-7.178-3.675-7.178-3.445-7.293-3.445-6.834-3.675-6.834-3.445-6.834-3.618-6.834-3.445-6.834-3.445-8.614-3.445-7.695-3.618-6.834-3.618-6.891-3.445-7.695-3.618-6.834-3.503-7.752-3.445-6.834-3.445-8.097-6.891-15.39-3.331-7.58-3.388-7.752-3.503-6.834-3.388-7.695-3.388-7.638-3.388-7.752-3.445-7.752-3.445-7.695-6.834-15.39-3.445-8.556-3.445-6.891-3.388-7.925-3.273-6.661-3.445-6.834-4.192-6.776-3.847-7.752-4.249-6.891-3.445-6.776-3.79-6.891-3.503-6.834-3.388-6.891-3.733-6.604-3.445-6.834-3.158-8.097-7.121-13.782-3.445-6.834-3.503-6.834-8.499-13.667-7.752-12.863-3.331-6.834-4.249-6.317-4.364-6.891-3.388-6.432-3.503-5.742-7.178-11.944-4.249-6.087-3.503-5.742-3.331-6.03-3.503-5.742-3.445-6.03-3.618-5.742-3.79-5.168-3.388-5.168-4.249-5.168-4.364-5.053-3.388-5.111-4.307-5.168-5.053-6.719-3.847-4.364-3.962-4.881-3.388-4.077-3.331-5.742-4.249-4.249-3.79-3.158-4.307-3.962-3.56-3.733-4.307-4.939-7.465-6.891-3.905-3.445-3.847-2.929-3.962-2.814-4.02-2.584-3.675-3.158-4.135-2.642-3.618-2.527-4.249-2.527-3.618-1.723-3.905-1.723-4.02-1.723-4.077-1.723-4.135-1.78-3.388-1.321-3.445-.345h.459z"/></svg>