<svg width="64" height="64" viewBox="0 0 1404 1404" xmlns="http://www.w3.org/2000/svg"><path d="M1396.053 814.927l-131.243 610.406H997.614l142.438-665.6c2.474-7.154 3.903-15.399 3.903-23.977 0-17.567-5.991-33.735-16.042-46.572l.125.166c-14.844-16.389-36.205-26.641-59.959-26.641-2.263 0-4.504.093-6.72.276l.291-.019H926.414l-163.226 762.368H495.992l163.191-762.402H430.49l-163.294 762.402H0l163.191-762.402L40.96 401.334h1020.587c.693-.005 1.513-.008 2.333-.008 54.11 0 105.431 11.939 151.474 33.326l-2.221-.926c47.12 21.448 86.627 52.218 117.608 90.213l.459.581c30.929 37.442 53.581 82.874 64.471 132.704l.383 2.088c5.341 23.384 8.402 50.238 8.402 77.807s-3.061 54.422-8.861 80.24l.459-2.433z"/></svg>