<svg width="64" height="64" viewBox="0 0 1024 1024" xmlns="http://www.w3.org/2000/svg"><path d="M1024 1045.333H0v-1024h1024v1024zM640.614 405.06v312.593c0 8.431 0 9.967-5.427 15.428l-55.569 53.931v11.537h269.653v-11.537l-53.623-52.668c-3.863-2.967-6.329-7.588-6.329-12.784 0-.934.08-1.849.232-2.739l-.014.095v-386.97a15.488 15.488 0 01-.223-2.658c0-5.183 2.468-9.789 6.294-12.708l.039-.028 54.886-52.668v-11.503H660.41L524.901 590.472 370.926 252.381H171.451v11.571l64.068 77.346c5.433 4.923 8.832 12.005 8.832 19.882 0 .92-.046 1.829-.137 2.725l.009-.113v304.06c.308 1.747.484 3.758.484 5.81 0 9.469-3.75 18.061-9.847 24.374l.01-.01-72.09 87.654v11.537h204.8V785.68l-72.158-87.654a36.293 36.293 0 01-10.286-25.366c0-1.695.116-3.364.34-4.998l-.021.19V405.025l179.849 392.329h20.89z"/></svg>