<svg width="64" height="64" viewBox="0 0 1235 1235" xmlns="http://www.w3.org/2000/svg"><path d="M1220.062 1216.329c-16.217 15.977-36.676 27.692-59.533 33.302l-.883.183c-17.421 3.429-37.451 5.391-57.939 5.391-50.016 0-97.302-11.693-139.272-32.495l1.832.821c-186.231-81.92-145.101-289.485-63.42-432.606 24.542-42.974 48.708-86.255 73.079-129.707 19.149-34.133 60.621-91.955 44.373-133.803-17.067-43.895-62.601-44.169-92.501-7.168-27.07 37.039-51.455 79.152-71.19 123.781l-1.719 4.356c-21.641 45.124-129.707 282.351-129.707 282.351-23.603 48.352-53.751 89.647-89.906 124.794l-.103.1c-15.992 12.865-36.545 20.648-58.917 20.648-18.798 0-36.313-5.496-51.025-14.968l.373.225c-16.547-11.849-27.202-31.012-27.202-52.664 0-6.149.859-12.097 2.464-17.73l-.111.455c22.494-128.956 218.078-428.988 83.183-450.116-51.712-8.09-65.741 49.425-81.681 86.153-26.351 60.655-46.455 123.802-74.615 183.774-29.664 61.189-55.148 132.72-72.77 207.289l-1.436 7.205c-13.653 59.119-31.198 134.451-98.475 152.439-184.32 49.254-240.196-72.363-240.196-72.397-30.071-95.573-1.57-181.76 27.307-273.783 22.391-71.1 35.772-144.418 64.102-213.572 50.551-123.324 100.966-380.655 283.307-364.203 52.229 8.017 99.035 26.027 140.248 52.083l-1.496-.883c36.523 21.299 64.341 32.666 106.871 9.728 41.37-22.289 60.314-63.795 109.636-78.029 52.838-15.258 87.586 7.305 127.113 39.117 55.398 44.373 61.44 24.405 107.145 12.698 23.616-6.613 50.735-10.414 78.742-10.414 15.768 0 31.255 1.205 46.374 3.528l-1.69-.214c213.743 36.625 77.619 309.487 26.624 419.157-33.178 71.339-191.59 358.229-51.2 396.766 42.325 11.605 96.905 6.315 132.164 36.693 35.772 30.788 32.222 59.904 12.049 81.715z"/></svg>