<svg width="64" height="64" viewBox="0 0 1044 1044" xmlns="http://www.w3.org/2000/svg"><path d="M0 41.333l953.546 893.71c4.087 6.131 6.521 13.666 6.521 21.771 0 11.093-4.561 21.121-11.91 28.31l-.007.007c-7.511 7.254-17.751 11.723-29.036 11.723a41.632 41.632 0 01-24.864-8.191l.113.08zm283.209 89.558l740.225 680.52c4.108 6.142 6.556 13.697 6.556 21.823 0 11.089-4.558 21.113-11.902 28.301l-.007.007c-7.499 7.258-17.732 11.731-29.009 11.731a41.543 41.543 0 01-24.846-8.199l.112.08zM84.249 322.714l740.225 680.52c4.093 6.142 6.531 13.692 6.531 21.811 0 11.088-4.547 21.114-11.878 28.314l-.006.006c-7.496 7.243-17.719 11.707-28.984 11.707a41.547 41.547 0 01-24.871-8.218l.112.079zm438.347-114.841l517.461 475.511c2.851 4.286 4.549 9.553 4.549 15.216 0 7.762-3.19 14.778-8.331 19.81l-.005.005a28.97 28.97 0 01-20.263 8.226 28.944 28.944 0 01-17.369-5.757l.077.055zm-372.81 336.778l517.244 475.38c2.787 4.251 4.446 9.461 4.446 15.057 0 7.732-3.166 14.725-8.272 19.753l-.004.003a29.052 29.052 0 01-20.296 8.224 29.025 29.025 0 01-17.338-5.713l.079.056-475.859-512.762zm617.376-225.723l236.124 215.627a12.34 12.34 0 012.24 7.124c0 3.683-1.6 6.993-4.143 9.272l-.012.01a15.07 15.07 0 01-10.064 3.827c-3.199 0-6.167-.992-8.612-2.685l.05.033-215.584-233.164zM268.848 780.993l235.95 215.671a12.303 12.303 0 012.288 7.178c0 3.659-1.585 6.948-4.105 9.218l-.011.01a14.904 14.904 0 01-10.003 3.833 14.897 14.897 0 01-8.625-2.733l.047.032-215.54-233.208z"/></svg>