<svg width="64" height="64" viewBox="0 0 459 459" xmlns="http://www.w3.org/2000/svg"><path d="M450.645-137.566C396.757-374.793 269.653-452.745 256-482.569c-11.188-17.417-21.675-37.513-30.344-58.549l-.93-2.55c0 .811 0 1.323-.213 2.091v5.077a7.954 7.954 0 01-.001 1.091l.001-.025v.896a3.104 3.104 0 01-.002.913l.002-.017v2.218l-.384 2.133v.427a2.248 2.248 0 00.001.523l-.001-.011v1.749h-.213v.683h-1.536v2.432h-.256v1.963H221.1v1.621a.517.517 0 00.001.26l-.001-.004v.427a1.762 1.762 0 00.001.435l-.001-.009-.981.725-.213.299v.939h-.213v.768h-.256v1.92h-.256v.811h-.213v.768h-.213v.939h-1.92v.64h-.213v.811h-.213v.64h-.256v.981h-.213v.256a.713.713 0 010 .303l.001-.005a8.064 8.064 0 00-2.093 1.453l.003-.002a1.942 1.942 0 00-.38.42l-.004.007v2.475h-.213v-.341h-.213v.427h-.213v.341h-.213v.939h-2.603v.427h-.427v.853h-1.28v.427h-.213v.256h-.427v.427h-1.28v.256h-.213v2.475h-.256v.427h-.213v.256h-.213v.256a4.303 4.303 0 01-.595.68l-.003.003-.512.427a15.68 15.68 0 00-1.671 1.372l.007-.007a9.074 9.074 0 00-.948.733l.009-.008-2.091 1.664-3.157 2.645c-2.432 2.005-4.992 4.267-7.936 6.784-7.211 6.315-15.787 14.421-25.6 24.235l-.64.64C67.022-355.76 7.189-220.111 3.265-70.538l-.016.771c-.352 6.596-.552 14.319-.552 22.089 0 9.401.293 18.733.871 27.988l-.063-1.267v.384c4.797 75.318 26.813 144.576 62.119 205.134l-1.191-2.211c13.127 23.028 26.19 42.609 40.45 61.226l-.941-1.279c31.023 41.103 66.354 76.597 105.937 106.804l1.327.972c10.898 32.667 17.186 70.277 17.186 109.357 0 3.24-.043 6.47-.129 9.69l.01-.476 27.477 9.173c-1.159-12.914-1.819-27.935-1.819-43.11 0-22.737 1.483-45.127 4.357-67.08l-.277 2.585c2.77-10.966 7.943-20.473 14.947-28.31l-.057.064c12.728-9.081 23.856-18.111 34.404-27.764l-.271.244c.768-.811 1.195-1.536 1.877-2.304C403.93 222.984 463.123 96.614 463.123-43.581c0-34.17-3.516-67.519-10.207-99.704l.549 3.161z"/></svg>