<svg width="64" height="64" viewBox="0 0 1042 1042" xmlns="http://www.w3.org/2000/svg"><path d="M1029.523 1038.253l-21.676-20.634c-10.709-14.141-22.102-26.635-34.528-38.022l-.209-.189q-19.105-17.368-39.739-33.034-16.5-11.359-45.401-27.338c-15.832-7.123-28.183-19.643-34.914-35.165l-.17-.44-2.049-1.042c9.064-.908 17.322-2.549 25.278-4.898l-.962.244 24.316-6.704c10.087-3.156 21.736-5.193 33.79-5.654l.252-.008c12.697-.526 24.703-2.559 36.136-5.928l-1.052.266q8.267-2.049 17.021-4.655t14.971-4.655v-7.225q-6.183-9.275-14.971-21.155c-5.589-7.616-11.879-14.226-18.911-19.959l-.194-.153q-26.817-23.725-55.579-45.922c-16.883-13.189-36.063-26.63-55.921-39.09l-2.888-1.691c-10.493-6.92-22.546-13.325-35.2-18.573l-1.447-.532q-19.105-7.746-37.654-17.021c-4.126-2.063-8.94-3.838-13.966-5.075l-.485-.101c-4.987-1.021-9.254-3.6-12.378-7.198l-.023-.027c-5.876-7.757-11.063-16.579-15.168-25.981l-.325-.835q-6.183-14.45-13.408-27.789-15.493-29.943-29.943-60.893t-27.789-61.935q-9.275-20.634-17.021-41.267c-5.713-15.112-12.14-28.034-19.672-40.201l.567.983c-18.452-31.41-36.807-58.201-56.792-83.652l1.214 1.604c-19.762-24.934-40.242-47.188-62.235-67.85l-.326-.303c-21.729-20.396-45.116-39.849-69.63-57.858l-2.101-1.473q-38.21-27.789-83.611-54.71c-12.181-7.16-26.272-12.999-41.184-16.779l-1.125-.242-47.485-11.88-26.817-2.049q-13.408-1.042-26.817-1.042c-6.313-3.322-11.741-7.276-16.519-11.899l.02.019a153.472 153.472 0 00-15.063-12.587l-.43-.3C153.5 72.701 123.506 58.92 92.145 48.07l-3.636-1.094c-8.233-4.801-18.123-7.635-28.675-7.635a57.506 57.506 0 00-21.284 4.055l.39-.137C22.72 49.687 10.336 62.788 5.013 79.082l-.115.408C1.795 86.818-.008 95.34-.008 104.283c0 15.688 5.549 30.079 14.792 41.319l-.09-.113q23.204 30.95 35.605 48.631 9.275 12.401 19.105 25.809c5.999 8.04 11.355 17.175 15.655 26.883l.358.906c2.372 5.097 4.491 11.116 6.036 17.361l.147.702q2.049 8.788 5.176 19.105 9.275 23.725 17.542 48.631c6.032 18.135 12.659 33.487 20.414 48.149l-.823-1.706q6.183 11.359 12.401 22.197t13.408 21.155c2.781 4.168 6.253 7.64 10.287 10.337l.134.084c4.221 3.056 6.995 7.886 7.224 13.373l.001.035c-4.858 7.161-8.166 15.752-9.249 25.022l-.025.266c-1.473 10.791-3.635 20.384-6.526 29.655l.343-1.275c-9.503 28.43-14.986 61.165-14.986 95.18 0 10.998.573 21.861 1.691 32.563l-.113-1.337c2.565 40.893 14.889 78.428 34.648 110.946l-.606-1.075c8.401 12.57 17.4 23.543 27.351 33.569l-.013-.013c7.189 8.039 17.592 13.074 29.17 13.074a38.919 38.919 0 0018.01-4.388l-.217.103c14.914-5.364 25.538-19.044 26.327-35.306l.004-.091c2.043-20.232 5.141-38.328 9.361-55.988l-.573 2.841c1.031-2.678 1.628-5.776 1.628-9.014 0-.642-.023-1.278-.07-1.908l.005.084q-.521-4.655 5.662-8.788v2.049q6.183 14.45 12.887 28.901t13.895 28.901c12.6 19.164 25.934 35.874 40.634 51.27l-.131-.138c14.719 15.869 30.755 30.108 48.069 42.697l.944.654c9.031 6.904 16.992 14.359 24.154 22.53l.161.188c6.727 7.927 14.789 14.482 23.878 19.376l.438.215v-1.042h2.049c-1.675-3.698-4.341-6.699-7.661-8.74l-.085-.049c-3.383-1.877-6.255-3.751-8.984-5.803l.196.141q-9.275-9.275-19.105-20.634t-18.063-21.676q-21.676-29.943-41.337-62.595t-37.168-66.347q-8.267-16.5-16.014-34.042t-14.971-34.042c-2.073-4.205-3.535-9.093-4.115-14.248l-.019-.203a13.559 13.559 0 00-7.153-11.323l-.073-.036c-5.153 8.79-10.9 16.394-17.419 23.258l.051-.054a84.637 84.637 0 00-16.289 24.738l-.21.55c-6.035 14.604-10.412 31.546-12.328 49.225l-.073.83q-3.092 27.338-6.183 56.239l-2.049 1.042-1.042 1.042c-11.112-2.253-20.222-9.331-25.193-18.903l-.095-.202q-7.746-14.971-13.895-29.422c-10.602-27.175-17.149-58.612-18.055-91.458l-.008-.386c-.365-5.209-.573-11.289-.573-17.417 0-28.427 4.478-55.808 12.768-81.476l-.523 1.874q3.092-11.359 13.408-38.21t4.134-37.168c-2.133-7.036-6.085-12.987-11.312-17.502l-.047-.04a144.412 144.412 0 01-14.303-14.277l-.148-.174q-7.225-10.421-13.895-22.197t-11.88-23.204c-7.042-16.302-14.255-36.75-20.229-57.72l-.925-3.798c-6.775-24.125-14.338-44.521-23.313-64.137l1.116 2.723c-4.743-10.769-10.227-20.043-16.655-28.565l.259.359q-10.421-13.895-18.584-26.33-10.421-13.408-20.634-25.809c-6.943-8.41-13.13-17.894-18.194-28.038l-.39-.863c-2.063-4.126-3.838-8.94-5.075-13.966l-.101-.485c-.469-1.5-.739-3.224-.739-5.012 0-3.508 1.04-6.774 2.829-9.505l-.041.066a13.116 13.116 0 013.102-6.195l-.011.012a13.038 13.038 0 016.099-3.077l.084-.014c3.613-2.352 8.034-3.751 12.782-3.751 3.605 0 7.022.806 10.08 2.249l-.144-.061c9.362 2.663 16.912 5.303 24.274 8.308l-1.556-.562q19.591 8.267 36.126 16.014c12.731 6.077 23.558 12.439 33.783 19.602l-.749-.497q8.267 5.176 16.5 11.359t17.542 12.401h14.45q16.5 0 35.084 1.563c12.49.964 24.072 3.345 35.072 7.001l-1.03-.297c20.535 6.117 38.151 13.308 54.881 21.971l-1.734-.817q25.288 12.887 48.006 27.338c25.137 15.676 46.868 31.705 67.273 49.233l-.718-.602c21.341 18.256 40.705 36.971 58.885 56.789l.445.491c17.761 19.379 34.674 40.406 50.191 62.485l1.323 1.986c14.25 20.142 28.624 43.425 41.576 67.584l1.775 3.626c3.456 6.591 6.971 14.616 9.969 22.889l.452 1.427q4.134 11.88 9.275 24.316 11.359 25.809 24.316 52.105t24.316 51.098l22.718 49.534c7.959 17.34 16.91 32.248 27.273 46.034l-.456-.634c8.669 9.262 20.211 15.74 33.199 18.011l.357.052c15.7 3.937 28.943 8.349 41.743 13.618l-2.004-.73c6.096 2.754 13.959 5.737 22.004 8.312l1.722.476c9.033 2.754 16.9 6.44 24.106 11.067l-.381-.229c13.967 7.809 25.77 15.487 37.034 23.848l-.908-.644q17.542 12.887 35.084 24.316 8.267 6.183 27.789 18.063t20.634 22.197c-4.88-.18-10.612-.283-16.369-.283-20.974 0-41.63 1.365-61.882 4.012l2.386-.255c-22.888 3.057-43.607 8.669-63.118 16.628l1.703-.615c-4.801 2.07-10.591 4.01-16.562 5.493l-.806.169c-6.063.878-10.757 5.75-11.355 11.825l-.004.055a36.319 36.319 0 016.107 11.102l.076.257c1.449 4.351 3.2 8.106 5.319 11.615l-.143-.256c5.083 8.992 10.543 16.756 16.672 23.931l-.172-.206c6.028 7.421 12.811 13.873 20.329 19.379l.305.213q10.421 8.267 21.676 17.021c6.88 5.378 14.626 10.667 22.705 15.454l1.02.56c12.097 7.421 26.189 14.52 40.876 20.457l1.954.698c15.946 6.392 29.671 13.845 42.384 22.656l-.7-.459q12.401 7.225 24.767 16.014t23.725 17.021a54.536 54.536 0 018.133 10.188l.134.233c3.876 4.437 9.272 7.46 15.369 8.254l.124.013v-2.049c-3.756-2.855-6.533-6.825-7.847-11.413l-.038-.154c-1.062-4.342-2.661-8.163-4.759-11.65l.104.187zM236.938 218.817q-8.267 0-15.493.521c-4.898.322-9.466 1.239-13.794 2.682l.385-.111v1.042h2.049q4.134 6.183 10.421 13.895t11.359 14.971l16.5 34.042 2.049-1.042c4.816-3.486 8.545-8.199 10.763-13.685l.075-.21c2.226-5.952 3.515-12.829 3.515-20.007 0-.77-.015-1.537-.044-2.299l.003.11a21.485 21.485 0 01-4.6-6.569l-.054-.135-3.474-7.746c-2.247-3.584-5.4-6.414-9.143-8.21l-.131-.057c-3.996-1.925-7.423-4.331-10.398-7.202l.012.011z"/></svg>