<svg width="64" height="64" viewBox="0 0 564 564" xmlns="http://www.w3.org/2000/svg"><path d="M0-438.667l202.7 574.389v-.299l16.045 45.234c89.103 252.117 136.983 387.265 137.239 387.563s13.656.853 29.872 1.707c49.331 2.134 110.525 7.681 156.869 13.229 5.185.844 11.162 1.327 17.251 1.327 1.137 0 2.27-.017 3.398-.05l-.166.004L362.215 14.315l-18.606-52.489L240.21-330.489c-19.63-55.476-36.273-102.758-37.126-104.551l-1.238-3.627H.212zm363.154.512l-.427 226.427-.341 226.427-18.648-52.574-24.196 503.892c23.684 66.87 36.358 102.417 36.486 102.716s13.656 1.024 29.872 1.792c49.374 2.134 110.525 7.681 157.04 13.229 5.187.844 11.167 1.326 17.259 1.326 1.134 0 2.264-.017 3.39-.05l-.165.004c.555-.427.853-231.292.725-512.512l-.427-510.762H363.155zM0-438.667V72.992c0 281.391.299 511.872.64 512.085s17.752-1.28 38.705-3.67 49.928-5.548 64.437-6.828c22.105-2.134 88.249-6.401 95.931-6.401 2.219 0 2.39-11.522 2.688-216.783l.341-216.783 16.216 45.234 5.548 16.045L248.83-307.66l-8.108-23.3-38.833-107.709H-.001z"/></svg>