<svg width="64" height="64" viewBox="0 0 592 592" xmlns="http://www.w3.org/2000/svg"><path d="M403.473 333.471c58.17-13.479 109.486-35.41 155.613-64.77l-2.006 1.194c21.253-14.047 35.081-37.835 35.081-64.853 0-42.794-34.692-77.486-77.486-77.486-14.843 0-28.711 4.174-40.495 11.411l.337-.192c-50.496 32.03-111.991 51.044-177.927 51.044s-127.432-19.014-179.302-51.857l1.375.813c-11.696-7.475-25.96-11.914-41.26-11.914-27.398 0-51.47 14.235-65.226 35.712l-.186.31v.213C4.511 174.787.069 189.047.069 204.344c0 27.423 14.277 51.511 35.803 65.237l.312.186c44.116 28.187 95.442 50.096 150.284 62.84l3.323.65L41.774 481.103c-14.175 13.943-22.959 33.33-22.959 54.768 0 20.843 8.302 39.746 21.78 53.584l-.016-.017 1.28 1.28c13.906 13.942 33.136 22.568 54.381 22.568s40.475-8.626 54.379-22.567l.002-.002L296.59 445.474l145.073 145.329c14.008 14.014 33.364 22.682 54.744 22.682 42.749 0 77.404-34.655 77.404-77.404 0-21.369-8.659-40.716-22.661-54.722L403.475 333.47zM296.588 117.91C442.44 117.764 560.62-.506 560.62-146.378c0-145.962-118.326-264.288-264.288-264.288S32.044-292.34 32.044-146.378v.27-.014C32.335-.238 150.664 117.91 296.588 117.91zm0-373.648c60.445 0 109.444 49 109.444 109.445s-49 109.445-109.445 109.445c-60.385 0-109.347-48.903-109.444-109.265v-.009-.085c0-60.462 48.99-109.481 109.44-109.53h.005z"/></svg>