<svg width="64" height="64" viewBox="0 0 1024 1024" xmlns="http://www.w3.org/2000/svg"><path d="M209.92 764.894c-19.899 12.248-44.007 19.503-69.81 19.503-.658 0-1.314-.005-1.969-.014l.099.001C61.821 784.055-.002 722.03-.002 645.565c0-35.66 13.446-68.18 35.545-92.766l-.113.127c22.053-24.573 52.718-41.029 87.208-44.598l.583-.049c-1.134-6.829-1.782-14.698-1.782-22.718 0-.497.002-.994.007-1.49l-.001.076c-.002-.277-.003-.604-.003-.931 0-46.739 19.086-89.021 49.89-119.476l.016-.015c31.275-30.484 74.062-49.287 121.241-49.289a153.42 153.42 0 013.003-.029c29.328 0 56.766 8.092 80.204 22.165l-.706-.393c20.175-32.53 46.843-59.176 78.369-78.733l1.025-.592c31.873-19.303 70.385-30.726 111.564-30.726 53.926 0 103.278 19.589 141.326 52.039l-.304-.253c38.51 32.176 65.535 76.961 74.726 127.945l.197 1.318h-12.151a146.476 146.476 0 00-3.386-.038c-17.582 0-34.454 3.04-50.12 8.623l1.043-.324c-38.173-41.001-92.457-66.566-152.711-66.566-1.441 0-2.878.015-4.312.044l.214-.003c-.6-.006-1.309-.009-2.018-.009-28.224 0-55.243 5.161-80.164 14.59l1.559-.518c-48.065 18.268-87.251 50.831-113.347 92.439l-.556.95c-11.347 18.242-19.93 39.524-24.506 62.257l-.207 1.231c-16.615 3.403-31.188 8.02-45.063 13.954l1.509-.574c-21.977 10.167-40.38 24.688-54.762 42.58l-.227.292a159.691 159.691 0 00-31.651 54.543l-.332 1.128c-6.88 19.651-10.875 42.307-10.923 65.89v.022c-.019.991-.03 2.159-.03 3.33 0 24.384 4.724 47.665 13.306 68.978l-.442-1.242-2.628-3.891zm718.814-159.881q100.864 25.02 94.925 118.647T914.774 829.132H371.201q-134.656-17.749-132.267-139.23c1.434-81.271 47.104-126.02 136.943-133.769 3.835-78.299 58.732-142.768 131.919-161.026l1.201-.254c15.062-4.686 32.378-7.385 50.325-7.385 60.977 0 114.677 31.156 146.05 78.418l.404.647c16.155-12.784 36.824-20.508 59.298-20.508 3.906 0 7.758.233 11.542.687l-.457-.045c26.562.923 51.341 7.695 73.365 19.057l-.968-.454c25.252 12.98 45.575 32.481 59.196 56.306l.367.696c12.896 23.211 20.487 50.906 20.487 80.374 0 .544-.003 1.087-.008 1.629l.001-.083z"/></svg>