<svg width="64" height="64" viewBox="0 0 1084 1084" xmlns="http://www.w3.org/2000/svg"><path d="M1081.586 511.312v162.281c-.025 12.639-10.226 22.887-22.844 22.989h-35.194V488.277h35.184l.249-.001a22.02 22.02 0 0115.869 6.725l.006.006a22.516 22.516 0 016.731 16.084l-.001.233v-.012zm-22.899 209.298c12.591.076 22.778 10.263 22.854 22.847v162.92l.002.273c0 12.472-10.111 22.583-22.583 22.583l-.287-.002h-35.169V720.52h35.184zm0-464.756a26.375 26.375 0 0117.367 6.796l-.024-.021c4.822 3.833 7.9 9.682 7.949 16.252v162.334c.002.108.003.235.003.363 0 6.588-3.094 12.454-7.907 16.224l-.045.034c-4.71 3.785-10.757 6.081-17.34 6.097h-58.223v500.483l.001.202c0 5.951-2.753 11.259-7.056 14.719l-.037.028c-4.529 3.385-10.239 5.42-16.424 5.42H674.324V882.394h235.179V833.66H674.144v-57.496h235.179V730.05H674.144v-58.941h235.179v-45.392H674.144v-57.541h235.179v-45.437H674.144v-58.941h235.179v-46.069H674.144v-57.586h235.179v-48.102H674.144V197.636h311.057c2.981 1.603 5.509 3.641 7.605 6.064l.028.033a26.085 26.085 0 017.665 15.409l.013.128v36.629h58.174zM616.333 81.333v1024L0 998.922V190.499L616.378 81.378zM440.502 384.847l-72.265 4.742v134.549q-1.219 118.199 0 136.446l-144.124-262.82-73.575 2.891v372.889l57.541 4.517v-275.06L363.45 785.965l76.782 4.517V384.848z"/></svg>