<svg width="64" height="64" viewBox="0 0 1024 1024" xmlns="http://www.w3.org/2000/svg"><path d="M442.061 552.243h67.925l-35.499-57.788-65.911 104.414h-30.413l80.111-125.713a39.963 39.963 0 016.931-5.466l.169-.098c2.523-1.586 5.592-2.527 8.88-2.527l.246.002h-.012c3.033.055 5.836.99 8.179 2.56l-.055-.035a40.11 40.11 0 017.104 5.568l-.005-.005 80.111 125.713h-30.413l-14.199-23.313h-67.925zm310.238 23.313V467.08h-25.361v118.613a11.269 11.269 0 001.053 5.155l-.029-.069a15.981 15.981 0 003.033 4.058l.004.004a6.453 6.453 0 003.37 3.023l.044.015c1.608.648 3.474 1.025 5.427 1.025l.145-.001h115.568l14.199-23.313zm-418.714-20.275c.191.003.417.005.644.005 12.01 0 22.889-4.838 30.796-12.671l-.003.003c8.119-7.557 13.181-18.305 13.181-30.235 0-.242-.002-.485-.006-.726v.036c.011-.358.017-.779.017-1.201 0-12.092-5.059-23.003-13.175-30.731l-.017-.016c-7.904-7.83-18.783-12.668-30.793-12.668-.226 0-.452.002-.678.005H222.037v131.789H247.5V490.395h84.139a20.42 20.42 0 0115.222 6.074l.002.002a20.418 20.418 0 016.075 15.257l.001-.033a21.098 21.098 0 01-6.078 14.714l.003-.003c-3.646 4.055-8.91 6.593-14.766 6.593-.161 0-.321-.002-.481-.006h-72.066l76.049 65.911h36.489l-50.722-43.622zM65.877 598.869l-.344.001c-17.928 0-34.136-7.368-45.76-19.241l-.011-.011C7.579 568.152-.009 551.921-.009 533.918c0-.338.003-.675.008-1.011l-.001.051a65.334 65.334 0 01-.007-.927c0-18.003 7.587-34.234 19.738-45.669l.032-.03c11.635-11.884 27.842-19.252 45.771-19.252l.362.001h77.054c.316-.006.69-.009 1.064-.009 17.864 0 34.007 7.374 45.548 19.245l.014.015c11.886 11.556 19.26 27.698 19.26 45.562 0 .374-.003.747-.01 1.12l.001-.056c.005.297.008.648.008 1 0 17.914-7.415 34.096-19.344 45.644l-.017.017c-11.556 11.886-27.698 19.26-45.562 19.26-.374 0-.747-.003-1.12-.01l.056.001zm75.094-23.313c.304.008.662.013 1.02.013 11.571 0 22.007-4.863 29.374-12.657l.018-.019c7.511-7.547 12.154-17.954 12.154-29.445l-.003-.48v.024c.01-.343.016-.747.016-1.152 0-11.436-4.652-21.785-12.166-29.259l-.002-.002c-7.476-7.516-17.825-12.168-29.261-12.168-.405 0-.809.006-1.211.017l.059-.001H67.924c-.135-.002-.295-.002-.456-.002-11.491 0-21.898 4.643-29.447 12.156l.002-.002c-7.813 7.385-12.676 17.821-12.676 29.392 0 .359.005.717.014 1.073l-.001-.053-.001.285c0 11.639 4.855 22.144 12.649 29.601l.015.014c7.471 7.81 17.977 12.664 29.616 12.664l.301-.001h-.015zm481.587 23.313c-.316.006-.69.009-1.064.009-17.864 0-34.007-7.374-45.548-19.245l-.014-.015c-11.886-11.556-19.26-27.698-19.26-45.562 0-.374.003-.747.01-1.12l-.001.056a58.05 58.05 0 01-.009-1.064c0-17.864 7.374-34.007 19.245-45.548l.015-.014c11.556-11.886 27.698-19.26 45.562-19.26.374 0 .747.003 1.12.01l-.056-.001h91.204l-15.223 23.313h-75.093c-.135-.002-.295-.002-.456-.002-11.491 0-21.898 4.643-29.447 12.156l.002-.002c-7.813 7.385-12.676 17.821-12.676 29.392 0 .359.005.717.014 1.073l-.001-.053-.001.285c0 11.639 4.855 22.144 12.649 29.601l.015.014c7.471 7.81 17.977 12.664 29.616 12.664l.301-.001h92.145l-15.223 23.313zm309.214-23.313l-.323.001a38.79 38.79 0 01-25.096-9.163l.058.048c-7.068-5.657-12.373-13.245-15.135-21.965l-.089-.324h108.476l14.199-23.313H891.187c2.753-8.862 8.03-16.27 14.984-21.599l.103-.076c6.787-5.364 15.467-8.604 24.905-8.604.16 0 .321.001.481.003h75.069l15.223-23.313h-91.238a58.05 58.05 0 00-1.064-.009c-17.864 0-34.007 7.374-45.548 19.245l-.014.015c-11.886 11.556-19.26 27.698-19.26 45.562 0 .374.003.747.01 1.12l-.001-.056c-.006.316-.009.69-.009 1.064 0 17.864 7.374 34.007 19.245 45.548l.015.014c11.556 11.886 27.698 19.26 45.562 19.26.374 0 .747-.003 1.12-.01l-.056.001h77.961l15.223-23.313z"/></svg>