<svg width="64" height="64" viewBox="0 0 822 822" xmlns="http://www.w3.org/2000/svg"><path d="M703.977-52.637c37.39 38.551 67.507 84.402 87.979 135.178l1.004 2.818c18.442 44.837 29.149 96.886 29.149 151.436 0 3.712-.05 7.412-.148 11.1l.012-.544c-3.746 82.631-26.258 159.234-63.338 226.698l1.354-2.689c-32.346 62.284-65.534 115.291-102.412 165.416l2.405-3.425q-46.01 60.004-96.014 114.002-94 96.014-145.983 95.98-47.99 0-124.105-67.991c-46.456-43.018-88.44-89.44-126.073-139.329l-1.923-2.661c-36.413-46.538-69.679-98.995-97.559-154.619l-2.448-5.393C28.148 408.332 4.229 331.05.051 248.561l-.049-1.21c-.008-.961-.013-2.097-.013-3.234 0-77.671 21.178-150.396 58.076-212.714l-1.062 1.939C94.429-31.136 145.738-83.722 207.108-121.56l1.886-1.082c58.528-36.437 129.573-58.039 205.663-58.039 1.17 0 2.339.005 3.507.015l-.179-.001h.358c55.668 0 108.497 12.158 155.975 33.965l-2.329-.959c51.654 23.554 95.509 55.578 131.742 94.754l.247.27zM417.983 807.324q27.988 0 88.983-56.011c44.72-42.143 85.069-87.905 120.933-137.143l1.943-2.799c40.044-52.797 76.73-112.498 107.367-175.677l2.778-6.35c26.699-53.054 43.402-115.281 45.983-181.135l.027-.858c.002-.491.003-1.072.003-1.653 0-70.987-18.553-137.64-51.075-195.375l1.034 1.997C703.529-7.194 657.841-55.789 602.646-90.718l-1.577-.932c-51.584-33.249-114.587-53.008-182.205-53.008l-.821.001h.043c-.738-.005-1.611-.008-2.485-.008-70.054 0-135.502 19.724-191.092 53.922l1.583-.906C167.816-56.439 120.962-7.703 88.977 50.373l-.983 1.948C56.457 108.416 37.88 175.452 37.88 246.827c0 .893.003 1.785.009 2.676l-.001-.137c2.846 66.038 19.562 127.543 47.286 182.548L84 429.345c33.426 69.411 70.734 129.124 113.67 184.236l-1.682-2.243c38.027 52.329 79.428 98.183 125.175 139.297l.807.713q64.066 55.977 96.014 55.977zM639.979 233.22l.002.873c0 39.603-11.163 76.599-30.515 108.013l.511-.891c-20.097 33.271-47.423 60.28-79.933 79.427l-1.063.579c-31.328 18.854-69.144 30.007-109.565 30.007-.504 0-1.007-.002-1.51-.005h.077c-1.88.055-4.093.086-6.312.086-59.997 0-114.677-22.765-155.873-60.127l.194.174c-40.503-35.859-67.291-86.412-71.968-143.231l-.051-.772c-.631-6.21-.992-13.421-.992-20.715 0-52.265 18.488-100.213 49.281-137.659l-.3.376v.286c0 24.683 10.356 46.948 26.96 62.685l.039.037c15.948 16.653 38.362 27.002 63.193 27.002.283 0 .565-.001.848-.004h-.043c.356.005.776.008 1.196.008 24.401 0 46.378-10.375 61.763-26.954l.049-.053c16.065-15.942 26.011-38.031 26.011-62.443l-.002-.595V89.077c0-17.858-5.609-34.405-15.161-47.977l.177.265c-9.874-14.515-23.025-26.103-38.433-33.867l-.58-.265c16.82-4.639 36.134-7.304 56.07-7.304 29.9 0 58.399 5.996 84.362 16.851l-1.445-.536c43.35 18.017 78.83 47.707 103.474 85.161l.526.852c24.446 36.23 39.022 80.873 39.022 128.921 0 .719-.003 1.437-.01 2.154l.001-.11z"/></svg>