<svg width="64" height="64" viewBox="0 0 1024 1024" xmlns="http://www.w3.org/2000/svg"><path d="M512 260.3a943.172 943.172 0 00-4.969-.013c-68.701 0-135.659 7.465-200.107 21.627l6.147-1.134c-61.541 12.907-115.967 32.06-166.834 57.305l4.018-1.804c-43.124 20.792-79.647 48.606-109.637 82.354l-.307.352C15.946 445.592.769 480.963.002 519.867l-.002.154c.804 38.993 15.961 74.297 40.383 100.981l-.105-.117c30.297 34.1 66.819 61.913 107.891 81.808l2.052.897c46.849 23.441 101.275 42.594 158.305 54.699l4.511.802c58.3 13.029 125.258 20.493 193.96 20.493 1.747 0 3.492-.005 5.237-.014l-.268.001c1.475.008 3.222.013 4.969.013 68.701 0 135.659-7.465 200.107-21.627l-6.147 1.134c61.541-12.907 115.967-32.06 166.834-57.305l-4.018 1.804c43.138-20.789 79.672-48.603 109.671-82.354l.306-.351c24.365-26.605 39.542-61.976 40.309-100.88l.002-.154c-.77-39.058-15.947-74.43-40.416-101.15l.105.116c-30.297-34.1-66.819-61.913-107.891-81.808l-2.052-.897c-46.849-23.441-101.275-42.594-158.305-54.699l-4.511-.802c-58.3-13.029-125.258-20.493-193.96-20.493-1.747 0-3.492.005-5.237.014l.268-.001zM378.88 570.231a82.423 82.423 0 01-18.872 12.858l-.482.215c-6.025 2.918-13.159 5.597-20.559 7.637l-.911.214c-7.355 2.664-15.845 4.205-24.694 4.205-.342 0-.684-.002-1.026-.007l.052.001h-84.139l-13.653 83.763h-61.747l54.613-284.809h118.306c.789-.017 1.719-.027 2.651-.027 15.372 0 30.114 2.699 43.778 7.649l-.895-.283c12.586 4.607 23.284 11.758 31.912 20.885l.036.039c7.476 9.516 12.821 21.056 15.118 33.659l.072.474c1.079 6.234 1.696 13.413 1.696 20.737 0 8.359-.804 16.53-2.338 24.44l.13-.804c-1.531 7.649-3.523 14.314-6.05 20.709l.282-.809q-3.652 9.421-7.851 17.783-5.222 8.363-11.503 16.759c-4.104 5.497-8.589 10.318-13.54 14.616l-.113.096zm178.005 25.122l24.098-120.422c1.043-4.555 1.641-9.785 1.641-15.156 0-1.116-.026-2.227-.077-3.33l.006.156a18.032 18.032 0 00-4.723-12.063l.013.014a28.447 28.447 0 00-10.277-5.715l-.202-.054c-5.33-1.69-11.461-2.664-17.819-2.664-.732 0-1.461.013-2.186.038l.105-.003h-48.06l-31.403 159.164h-60.723l54.613-276.48h60.723l-14.643 75.401h54.613a170.09 170.09 0 0144.106 4.955l-1.167-.245c10.639 2.367 19.878 7.32 27.35 14.171l-.044-.04c6.663 5.242 11.377 12.698 13.037 21.245l.036.224c.601 3.777.945 8.132.945 12.567 0 7.247-.917 14.28-2.642 20.988l.127-.583-25.122 127.727zm337.135-93.184c-1.715 7.705-3.513 14.013-5.619 20.177l.396-1.335c-2.287 6.795-5.117 12.674-8.564 18.124l.201-.341c-2.95 6.592-6.455 12.275-10.597 17.424l.118-.152c-4.181 5.206-8.654 9.83-13.516 14.016l-.137.115a82.423 82.423 0 01-18.872 12.858l-.482.215c-6.025 2.918-13.159 5.597-20.559 7.637l-.911.214c-7.355 2.664-15.845 4.205-24.694 4.205-.342 0-.684-.002-1.026-.007l.052.001h-84.139l-14.643 83.593h-60.723l54.613-284.809H802.2c.925-.023 2.014-.037 3.106-.037 15.581 0 30.531 2.702 44.407 7.663l-.921-.287c12.242 4.444 22.576 11.625 30.647 20.839l.073.085a71.76 71.76 0 0116.149 34.107l.064.436c.94 5.575 1.477 11.997 1.477 18.545 0 9.415-1.111 18.571-3.208 27.343l.161-.797zM778.854 436.19h-41.745L715.23 553.472h36.523a175.36 175.36 0 0033.525-2.788l-1.064.16c8.697-1.521 16.451-4.638 23.284-9.057l-.244.148a70.966 70.966 0 0014.46-17.977l.183-.353c4.397-8.023 7.686-17.349 9.348-27.228l.073-.523c1.303-5.52 2.051-11.859 2.051-18.371 0-3.148-.175-6.255-.514-9.312l.034.376c-.615-6.762-3.085-12.85-6.889-17.87l.063.086a47.987 47.987 0 00-17.444-10.38l-.339-.099c-7.922-2.626-17.041-4.14-26.514-4.14-.975 0-1.946.016-2.913.048l.141-.004zm-477.457 0h-41.745L237.67 553.472h36.625a175.36 175.36 0 0033.525-2.788l-1.064.16c8.697-1.521 16.451-4.638 23.284-9.057l-.244.148a70.966 70.966 0 0014.46-17.977l.183-.353c4.397-8.023 7.686-17.349 9.348-27.228l.073-.523c1.303-5.52 2.051-11.859 2.051-18.371 0-3.148-.175-6.255-.514-9.312l.034.376c-.615-6.762-3.085-12.85-6.889-17.87l.063.086a47.987 47.987 0 00-17.444-10.38l-.339-.099c-7.922-2.626-17.041-4.14-26.514-4.14-.975 0-1.946.016-2.913.048l.141-.004z"/></svg>