<svg width="64" height="64" viewBox="0 0 788 788" xmlns="http://www.w3.org/2000/svg"><path d="M0 152.71c-.004-.65-.007-1.419-.007-2.188 0-44.27 8.473-86.562 23.886-125.341l-.804 2.294c15.488-39.6 37.043-73.589 63.887-102.613l-.195.213c54.729-58.458 125.058-101.676 204.351-123.036l3.043-.698c37.168-10.167 79.845-16.009 123.885-16.009h.452-.024c.929-.008 2.027-.012 3.126-.012 64.697 0 125.861 15.126 180.149 42.034l-2.369-1.062c56.016 27.568 101.966 68.101 135.206 117.848l.782 1.243c32.774 48.435 52.32 108.151 52.32 172.433 0 1.467-.01 2.932-.03 4.394l.002-.221v.687c0 40.709-4.264 80.422-12.369 118.718l.66-3.727c-8.638 41.184-21.382 77.594-38.153 111.663l1.221-2.744c-16.88 35.277-37.409 65.628-61.728 92.483l.288-.323c-24.585 26.509-54.262 47.91-87.526 62.71l-1.699.675c-33.282 14.98-72.146 23.707-113.049 23.707-1.14 0-2.279-.007-3.416-.02l.173.002c-30.298-.235-58.848-7.482-84.182-20.196l1.101.501c-25.42-11.275-45.8-30.07-58.763-53.534l-.322-.635q-6.144 23.893-17.067 69.222t-14.473 58.47q-3.413 13.244-12.629 43.691c-4.776 17.051-10.231 31.56-16.757 45.467l.749-1.776-19.695 38.468c-9.551 18.66-18.947 34.295-29.252 49.255l.956-1.468q-15.394 22.46-38.161 53.214l-8.602 3.072-5.53-6.144q-9.216-96.631-9.216-115.678c.551-45.293 5.347-89.126 14.007-131.553l-.763 4.474q13.244-70.451 40.96-176.913t32.017-124.928c-12.558-27.92-19.873-60.522-19.873-94.833 0-3.226.065-6.436.193-9.63l-.015.459c.001-36.297 11.903-69.814 32.018-96.86l-.308.434c17.292-27.113 47.186-44.851 81.227-44.919h.01a69.702 69.702 0 013.838-.102c21.791 0 41.325 9.659 54.556 24.929l.076.09c13.075 16.111 20.992 36.87 20.992 59.477 0 1.266-.025 2.527-.074 3.782l.006-.18c-3.136 43.078-12.793 83.049-28.01 120.152l.942-2.596c-14.038 33.733-23.672 72.815-26.978 113.686l-.09 1.378a81.843 81.843 0 00-.025 2.065c0 24.669 10.664 46.848 27.634 62.177l.073.065c17.008 15.834 39.894 25.553 65.049 25.553.711 0 1.421-.008 2.128-.023l-.105.002c.298.002.651.004 1.004.004 22.606 0 43.88-5.7 62.464-15.742l-.697.344c19.413-10.397 35.564-24.485 48.022-41.453l.276-.394c12.444-16.911 23.934-36.091 33.558-56.329l.916-2.141c9.359-19.397 17.391-42.077 22.931-65.716l.45-2.278c4.541-18.138 8.859-41.309 11.957-64.865l.366-3.402c2.464-18.319 3.912-39.567 3.993-61.137v-.098c.206-3.479.324-7.548.324-11.644 0-60.938-26.021-115.799-67.557-154.077l-.146-.132c-44.119-37.104-101.557-59.647-164.26-59.647-4.018 0-8.014.093-11.987.276l.563-.021a273.39 273.39 0 00-8.117-.116c-76.749 0-146.39 30.434-197.512 79.893l.078-.075c-50.945 49.039-82.59 117.816-82.59 193.984 0 2.867.045 5.724.134 8.569l-.01-.416-.001.512c0 18.472 2.808 36.287 8.019 53.044l-.339-1.264c4.342 15.249 10.007 28.527 17.089 40.888l-.467-.884q8.909 14.78 16.623 27.989c3.742 5.319 6.438 11.649 7.639 18.494l.041.28c-.82 16.342-4.13 31.668-9.56 45.949l.344-1.029q-9.216 27.682-22.767 27.682-1.229 0-10.445-1.843c-22.062-6.737-40.855-18.67-55.644-34.409l-.062-.066a179.52 179.52 0 01-37.114-56.829l-.433-1.198c-7.856-18.746-14.755-40.985-19.57-63.99l-.432-2.467c-4.234-19.644-6.703-42.241-6.792-65.4v-.067z"/></svg>