<svg width="64" height="64" viewBox="0 0 1024 1024" xmlns="http://www.w3.org/2000/svg"><path d="M656.521 456.943c.016-.575.026-1.252.026-1.93 0-20.741-8.718-39.447-22.69-52.651l-.034-.032c-13.557-13.402-32.203-21.68-52.783-21.68-.32 0-.639.002-.957.006H435.61v152.781h144.521c.184.002.402.003.62.003 20.858 0 39.684-8.702 53.045-22.674l.026-.028c14-13.387 22.702-32.214 22.702-53.072 0-.254-.001-.507-.004-.76v.039zM1024 533.333c.007-.973.011-2.124.011-3.277 0-93.229-25.706-180.453-70.416-254.973l1.251 2.25c-45.86-77.843-109.004-140.986-184.437-185.53L768 90.487c-72.269-43.459-159.494-69.165-252.723-69.165-1.152 0-2.303.004-3.453.012l.176-.001c-.973-.007-2.124-.011-3.277-.011-93.229 0-180.453 25.706-254.973 70.416l2.25-1.251c-77.843 45.86-140.986 109.004-185.53 184.437l-1.316 2.409C25.695 349.602-.011 436.827-.011 530.056c0 1.152.004 2.303.012 3.453L0 533.333c-.007.973-.011 2.124-.011 3.277 0 93.229 25.706 180.453 70.416 254.973l-1.251-2.25c45.864 77.829 109.007 140.961 184.436 185.495l2.41 1.316c72.269 43.459 159.494 69.165 252.723 69.165 1.152 0 2.303-.004 3.453-.012l-.176.001c.973.007 2.124.011 3.277.011 93.229 0 180.453-25.706 254.973-70.416l-2.25 1.251c77.843-45.86 140.986-109.004 185.53-184.437l1.316-2.409c43.459-72.269 69.165-159.494 69.165-252.723 0-1.152-.004-2.303-.012-3.453l.001.176zm-264.26-76.39c.013.799.021 1.741.021 2.685 0 48.754-20.165 92.798-52.609 124.248l-.045.043c-31.492 32.489-75.537 52.654-124.291 52.654-.944 0-1.886-.008-2.827-.023l.142.002H435.61v152.781H332.391v-512h247.74c.818-.014 1.783-.022 2.75-.022 48.721 0 92.739 20.138 124.184 52.544l.042.043c32.49 31.492 52.655 75.537 52.655 124.292 0 .968-.008 1.933-.024 2.897l.002-.145z"/></svg>