<svg width="64" height="64" viewBox="0 0 1013 1013" xmlns="http://www.w3.org/2000/svg"><path d="M500.361 10.333c-41.273.048-81.666 3.671-120.928 10.578l4.192-.611c-103.39 18.261-122.129 56.491-122.129 126.976v93.116h244.292v31.027H169.814c-.836-.016-1.822-.026-2.81-.026-74.108 0-135.87 52.858-149.642 122.93l-.158.966C6.285 432.49.002 475.227.002 519.432S6.284 606.374 18.004 646.8l-.801-3.225c17.374 72.329 58.846 123.836 129.707 123.836h84.002V655.795c1.916-83.329 69.207-150.321 152.474-151.755l.137-.002h244.019c67.568-.539 122.134-55.438 122.134-123.081 0-.373-.002-.746-.005-1.119v.057-232.619c-4.446-66.62-56.065-119.907-121.529-126.924l-.6-.052c-36.931-6.35-79.467-9.979-122.851-9.979-1.522 0-3.043.004-4.564.013l.234-.001zM368.265 85.222c.213-.004.465-.006.717-.006 25.713 0 46.558 20.845 46.558 46.558s-20.845 46.558-46.558 46.558c-25.663 0-46.477-20.764-46.558-46.408v-.008l-.001-.344c0-25.421 20.463-46.062 45.815-46.35h.027zm411.989 186.197v108.476c-.957 84.362-68.445 152.651-152.401 154.893l-.209.004H383.625c-67.588 1.394-121.875 56.387-122.129 124.118v232.644c0 66.185 57.549 105.131 122.129 124.143 36.477 11.824 78.447 18.641 122.01 18.641s85.533-6.817 124.903-19.443l-2.893.801c61.44-17.783 122.129-53.658 122.129-124.143v-93.184H505.755v-31.027h366.148c70.997 0 97.451-49.527 122.163-123.836 11.926-37.124 18.801-79.831 18.801-124.143s-6.875-87.02-19.615-127.113l.815 2.97c-17.545-70.656-51.2-123.836-122.163-123.836h-91.648zM643.038 860.526c.213-.004.465-.006.717-.006 25.713 0 46.558 20.845 46.558 46.558s-20.845 46.558-46.558 46.558-46.558-20.845-46.558-46.558v-.174.009l-.001-.308c0-25.366 20.495-45.944 45.829-46.079h.013z"/></svg>