<svg width="64" height="64" viewBox="0 0 992 992" xmlns="http://www.w3.org/2000/svg"><path d="M992.162 800.618h-2.281c.533 4.982.837 10.762.837 16.613 0 20.28-3.652 39.708-10.334 57.66l.373-1.143c-10.011 37.434-30.023 69.307-56.992 93.61l-.171.152c-34.501 28.531-79.195 45.838-127.93 45.838-3.262 0-6.505-.078-9.729-.231l.455.017c-1.674.049-3.645.076-5.622.076-48.039 0-92.255-16.367-127.376-43.829l.456.343c-34.663-26.332-63.034-59.02-83.772-96.518l-.798-1.574c-34.942 10.16-75.079 16.005-116.582 16.005-53.296 0-104.342-9.638-151.488-27.266l2.987.979c-87.925-30.624-161.103-84.974-214.067-155.391l-.83-1.153C33.616 633.63.009 542.844.009 444.209c0-1.577.009-3.153.026-4.726l-.002.24a415.047 415.047 0 01-.036-5.578c0-85.195 24.648-164.633 67.201-231.572l-1.043 1.756c42.114-66.204 98.794-119.604 165.769-156.675l2.346-1.191c63.117-35.942 138.677-57.13 219.186-57.13h.219-.012c80.888.099 156.81 21.268 222.602 58.311l-2.283-1.182c68.949 37.231 125.267 89.886 165.757 153.587l1.069 1.8c40.591 66.791 64.617 147.54 64.617 233.901 0 1.327-.006 2.653-.017 3.978l.001-.203c.006.865.009 1.888.009 2.912 0 72.13-16.872 140.319-46.884 200.837l1.184-2.639C828.37 699.54 786.91 748.991 737.162 788.444l-.96.735c14.107 22.789 30.74 42.325 49.886 59.055l.3.257c17.762 12.828 39.965 20.53 63.965 20.564h.008a67.75 67.75 0 003.251.075c20.483 0 38.917-8.774 51.749-22.769l.047-.052c10.495-12.312 17.206-28.134 18.175-45.49l.009-.201zm-329.09-132.542c24.884-60.827 39.329-131.416 39.329-205.379 0-8.138-.175-16.235-.521-24.288l.039 1.148q0-182.828-60.568-271.96C602.49 112.982 539.42 77.785 468.129 77.785c-5.358 0-10.669.199-15.927.589l.702-.042c-4.686-.374-10.146-.587-15.655-.587-70.859 0-133.483 35.255-171.289 89.181l-.446.671q-59.51 89.1-58.353 270.935t59.51 270.803c37.642 54.575 99.821 89.888 170.248 89.888 5.638 0 11.222-.226 16.745-.67l-.727.047c1.354.029 2.95.046 4.549.046 25.349 0 49.716-4.204 72.443-11.953l-1.579.468c-17.691-36.55-38.26-68.051-62.26-96.57l.568.693c-24.546-26.638-59.471-43.391-98.315-43.805l-.075-.001a90.81 90.81 0 00-2.24-.026c-14.972 0-29.144 3.425-41.775 9.533l.573-.25-29.755-54.848c40.07-32.847 91.845-52.757 148.271-52.757 3.317 0 6.617.069 9.9.205l-.47-.015a224.72 224.72 0 018.203-.144c45.156 0 87.319 12.814 123.052 35.004l-.995-.575c31.881 23.034 58.519 51.083 79.31 83.264l.731 1.207z"/></svg>