<svg width="64" height="64" viewBox="0 0 1024 1024" xmlns="http://www.w3.org/2000/svg"><path d="M891.29 660.787v49.664h84.582c26.759-.878 48.117-22.781 48.117-49.673 0-.537-.009-1.072-.025-1.605l.002.078v-19.217c.026-.594.04-1.291.04-1.992 0-26.802-21.422-48.6-48.078-49.207l-.057-.001h-42.155v-23.04h83.558v-49.596h-80.179c-27.029 1.213-48.484 23.421-48.484 50.64 0 .425.005.849.016 1.271l-.001-.063v17.271c-.014.443-.022.963-.022 1.486 0 26.994 21.507 48.965 48.32 49.713l.069.002c58.027.273-13.961 0 39.834 0v24.132l-85.606.273zm-453.223-12.083s45.261-4.13 45.261-66.116c.109-1.394.171-3.02.171-4.659 0-32.107-23.756-58.665-54.65-63.056l-.339-.04h-98.748v195.618h49.664v-47.206l42.94 47.172h73.455l-57.754-61.713zm-19.149-40.073h-39.492v-44.715h39.834c6.804 3.868 11.318 11.068 11.318 19.322 0 1.022-.069 2.028-.203 3.013l.013-.115c.103.815.163 1.757.163 2.714 0 8.436-4.595 15.798-11.418 19.722l-.11.059zm187.017-92.467h-50.347c-26.809 1.16-48.105 23.176-48.105 50.166 0 .364.004.726.012 1.088l-.001-.054v143.36h50.449v-34.133h47.377v34.133h48.811v-143.36c.032-.664.051-1.442.051-2.225 0-26.763-21.478-48.508-48.138-48.941l-.041-.001zm-.614 104.55h-47.787v-47.548s0-10.684 15.77-10.684h17.34c13.961 0 14.234 10.684 14.234 10.684v47.479zm71.68-104.516h52.497v194.253h-52.497zm126.293 144.043V516.198h-52.19v194.253h122.88v-50.21h-70.69zm-785.203 50.21h204.356s-39.049-189.03 90.283-265.591c28.194-14.541 117.931-68.847 264.875 46.353 4.642-4.13 9.045-7.407 9.045-7.407s-134.519-142.37-284.297-126.464c-75.264 7.134-167.868 79.838-222.174 175.855C49.887 584.218 28.07 643.972 18.43 707.72l-.34 2.731zm0-.034h204.356s-39.049-189.03 90.283-265.591c28.194-14.541 117.931-68.847 264.875 46.353 4.642-4.13 9.045-7.407 9.045-7.407s-134.519-142.336-284.297-126.43c-75.537 7.134-168.107 79.838-222.447 175.855-30.291 51.006-52.029 110.772-61.489 174.542l-.326 2.679zm425.847-337.715l1.024-18.398c-7.168-3.784-15.509-7.062-24.235-9.397l-.853-.194-1.024 18.091c8.533 3.004 16.828 6.315 25.088 9.865zm-24.678 58.163l-1.024 17.271c9.267.36 18.05 1.584 26.528 3.599l-.928-.186 1.024-17.067c-7.364-1.696-16.123-2.982-25.068-3.589l-.532-.029zm-95.676-85.607h2.594l-5.325-16.725c-8.767.018-17.377.613-25.816 1.749l1.001-.11 4.915 16.179c6.368-.699 13.752-1.097 21.229-1.097.493 0 .985.002 1.476.005h-.075zm12.425 100.967l5.939 18.944c6.25-3.352 13.681-6.593 21.381-9.257l1.112-.335-5.7-18.091c-9.05 2.817-16.591 5.793-23.865 9.241l1.098-.468zm-117.556-72.158l-11.639-18.944c-6.451 3.413-13.175 7.407-20.173 11.81l11.913 19.217c6.827-4.403 13.278-8.533 19.9-12.083zm53.009 123.46l12.425 19.763c4.837-7.3 9.857-13.665 15.347-19.587l-.089.097-11.639-18.671a149.743 149.743 0 00-15.76 18l-.283.398zm-37.546 88.337l20.958 17.545c1.2-12.125 3.113-23.046 5.763-33.677l-.336 1.592-18.637-15.633c-2.679 7.948-5.357 18.078-7.452 28.419l-.297 1.755zM120.798 455.543L102.4 438.545a420.575 420.575 0 00-19.149 20.48l19.9 18.091c5.937-8.098 11.7-15.16 17.794-21.918l-.216.243zM42.667 578.184l-29.73-11.605C8.022 578.389 2.697 592.111 0 599.518l29.73 11.537c3.379-9.284 8.806-22.733 12.937-32.87zm187.528 77.38c.396 12.582 1.512 24.517 3.315 36.226l-.209-1.649 31.027 11.81c-2.321-10.684-4.642-22.767-6.212-35.669l-27.921-10.684z"/></svg>