<svg width="64" height="64" viewBox="0 0 1151 1151" xmlns="http://www.w3.org/2000/svg"><path d="M678.468 659.207c0 56.799-46.045 102.844-102.844 102.844S472.78 716.006 472.78 659.207c0-56.799 46.045-102.844 102.844-102.844s102.844 46.045 102.844 102.844zM575.625 894.761c-8.593.228-18.709.358-28.856.358-119.915 0-235.594-18.134-344.446-51.809l8.246 2.197c-57.64-18.606-107.592-46.058-151.064-81.207l.877.686C26.727 740.635 4.055 702.891.211 659.73l-.04-.557c0-67.994 74.547-134.588 199.714-178.005 107.17-35.276 230.522-55.622 358.626-55.622 5.945 0 11.88.044 17.805.131l-.895-.01c4.931-.075 10.752-.117 16.583-.117 126.499 0 248.322 20.018 362.475 57.06l-8.301-2.329c55.69 18.109 104.006 44.197 146.48 77.411l-1.037-.781c33.057 23.289 55.383 59.902 59.148 101.863l.039.537c0 70.656-83.388 142.165-217.737 186.607-100.835 31.109-216.752 49.024-336.853 49.024-7.24 0-14.464-.065-21.673-.195l1.082.015zm0-419.84a1099.41 1099.41 0 00-15.258-.101c-122.916 0-241.327 19.286-352.373 54.996l8.139-2.262C101.001 567.695 49.392 622.615 49.392 659.275c0 38.093 55.501 98.133 177.186 139.708 95.945 29.751 206.249 46.886 320.555 46.886 10.019 0 20.008-.132 29.964-.393l-1.471.031c6.225.124 13.565.194 20.921.194 114.503 0 225.021-17.06 329.152-48.776l-7.989 2.093c126.293-41.984 184.32-102.025 184.32-139.947-4.371-27.213-19.701-50.186-41.231-64.636l-.344-.217c-36.968-28.773-80.056-51.924-126.725-67.152l-2.982-.842c-101.038-32.689-217.287-51.535-337.938-51.535-6.042 0-12.074.047-18.094.141l.909-.011zm-233.302 696.798c-.679.015-1.48.024-2.282.024-19.318 0-37.451-5.072-53.141-13.957l.537.28c-58.778-34.133-79.292-131.925-54.613-262.007 29.719-133.472 77.953-251.49 142.67-358.416l-2.962 5.273c63.942-113.27 141.213-210.182 231.471-293.193l.84-.763c39.402-36.021 85.462-65.588 135.994-86.549l3.099-1.139c17.377-8.351 37.779-13.23 59.321-13.23 21.372 0 41.622 4.802 59.73 13.387l-.847-.361c61.235 35.226 81.545 143.36 52.838 281.873-30.728 126.597-77.563 238.073-139.196 339.568l2.97-5.266c-61.948 112.212-136.924 208.295-224.689 290.948l-.591.551c-40.854 37.434-88.89 67.843-141.691 88.841l-3.137 1.1c-19.626 7.712-42.335 12.444-66.072 13.034l-.249.005zm51.405-616.38l21.299 12.288C356.087 664.91 309.864 777.8 282.524 897.872l-1.47 7.675c-22.733 119.842-.819 191.932 30.72 210.159 8.137 4.333 17.793 6.877 28.044 6.877.869 0 1.734-.018 2.594-.054l-.123.004c40.755 0 104.892-25.805 179.029-90.556 84.317-79.669 155.887-171.628 212.121-273.254l2.919-5.752c56.235-91.978 101.159-198.526 129.073-311.77l1.623-7.786c26.829-130.492 3.686-210.364-29.286-229.444-10.153-4-21.912-6.319-34.213-6.319-15.53 0-30.196 3.696-43.168 10.257l.547-.251c-47.71 19.861-88.676 46.319-124.039 78.783l.305-.277c-87.079 80.268-160.947 173.104-219.145 275.976l-2.927 5.624zm415.232 616.994c-55.706 0-126.293-33.587-200.124-97.109-92.79-84.618-171.371-182.71-233.148-291.587l-3.055-5.851C311.627 677.571 263.786 561.268 235.47 437.523l-1.521-7.897c-6.923-30.23-10.891-64.944-10.891-100.585 0-22.465 1.576-44.563 4.624-66.187l-.287 2.488c3.641-42.571 25.922-79.29 58.545-102.346l.437-.293c61.03-35.43 164.898 1.024 270.609 95.061 86.291 81.664 159.896 175.509 218.356 279.04l3.067 5.905c60.913 97.994 109.081 211.657 138.325 332.704l1.621 7.947c6.964 30.263 10.955 65.014 10.955 100.698 0 24.608-1.898 48.773-5.556 72.356l.335-2.626c-4.4 43.625-27.468 81.109-60.983 104.79l-.457.306c-14.827 8.474-32.587 13.471-51.514 13.471-.766 0-1.529-.008-2.291-.024l.114.002zM415.232 753.21c62.194 109.706 137.261 203.576 224.884 283.98l.839.76c92.399 79.497 165.717 96.7 197.461 78.268 32.973-19.046 57.139-97.109 32.154-223.266-29.963-123.297-76.253-231.863-137.351-330.273l2.763 4.777c-58.818-104.78-129.169-194.642-211.125-272.389l-.502-.472c-99.567-88.508-180.258-108.373-213.231-89.327-20.162 16.426-33.437 40.637-35.211 67.984l-.015.283c-2.339 16.632-3.675 35.845-3.675 55.37 0 32.287 3.652 63.721 10.566 93.911l-.542-2.815c28.697 125.952 74.549 237.201 135.773 338.084l-2.824-5.011z"/></svg>