<svg width="64" height="64" viewBox="0 0 1085 1085" xmlns="http://www.w3.org/2000/svg"><path d="M1084.518 594.333c.004.378.007.825.007 1.273 0 23.182-6.65 44.811-18.148 63.083l.289-.492c-11.703 18.845-28.04 33.812-47.452 43.554l-.676.308c4.619 17.19 7.272 36.925 7.272 57.28l-.001.787v-.041c-.434 66.473-24.737 127.187-64.757 174.081l.314-.377c-46.434 55.29-105.516 98.457-172.885 125.263l-2.936 1.031c-69.765 29.274-150.845 46.281-235.898 46.281-2.172 0-4.34-.011-6.507-.033l.331.003c-1.851.02-4.037.031-6.226.031-84.934 0-165.892-17.021-239.649-47.838l4.109 1.522c-70.179-27.892-129.15-71.049-174.966-125.623l-.548-.671c-39.707-46.518-64.01-107.232-64.443-173.612v-.093-.203c0-20.074 2.376-39.593 6.863-58.291l-.344 1.696c-20.623-10.15-37.448-25.288-49.339-43.886l-.291-.487C6.874 640.611-.116 618.304-.116 594.364c0-33.161 13.411-63.19 35.106-84.958l-.003.003c21.067-21.847 50.593-35.414 83.287-35.414.72 0 1.437.007 2.154.02l-.108-.002c.493-.008 1.076-.012 1.66-.012 34.11 0 64.805 14.626 86.154 37.948l.08.088c87.338-60.172 195.091-96.631 311.278-98.062l.359-.003 70.212-315.29c1.289-5.384 4.567-9.842 8.996-12.648l.084-.05c3.156-2.214 7.076-3.539 11.306-3.539 1.57 0 3.098.183 4.563.528l-.134-.027 223.334 49.015c7.418-15.044 18.58-27.269 32.296-35.763l.37-.213c13.619-8.546 30.173-13.616 47.911-13.616 24.973 0 47.598 10.048 64.055 26.321l-.008-.008c16.428 15.763 26.636 37.9 26.636 62.421 0 .507-.004 1.013-.013 1.518l.001-.076c.006.386.01.841.01 1.297 0 24.652-10.2 46.921-26.611 62.818l-.023.022c-16.403 16.452-39.09 26.63-64.154 26.63-24.911 0-47.474-10.055-63.851-26.328l.005.005c-16.249-15.813-26.33-37.894-26.33-62.329 0-.54.005-1.078.015-1.615l-.001.081-202.138-44.783-62.942 285.628c117.215.867 225.837 36.926 316.026 98.116l-1.999-1.279c21.908-22.763 52.635-36.903 86.665-36.903 33.291 0 63.422 13.532 85.192 35.396l.004.004c21.726 21.177 35.202 50.729 35.202 83.429 0 .562-.004 1.122-.012 1.682l.001-.085zM252.962 714.755c-.007.41-.011.894-.011 1.379 0 24.569 10.073 46.786 26.315 62.745l.013.012c15.763 16.428 37.9 26.636 62.421 26.636.507 0 1.013-.004 1.518-.013l-.076.001c50.113-.078 90.717-40.681 90.795-90.787v-.007c.008-.429.012-.935.012-1.442 0-24.521-10.208-46.658-26.606-62.393l-.03-.028c-15.972-16.254-38.188-26.328-62.757-26.328-.485 0-.969.004-1.452.012l.073-.001c-49.635.421-89.759 40.545-90.18 90.14v.04zm490.223 214.836c4.111-3.988 6.662-9.564 6.662-15.735s-2.551-11.747-6.657-15.73l-.006-.005a20.417 20.417 0 00-15.151-6.041l.03-.001a22.554 22.554 0 00-15.75 6.054l.014-.013c-19.785 18.436-44.652 31.67-72.271 37.378l-.979.169c-29.066 7.689-62.436 12.105-96.836 12.105s-67.771-4.416-99.573-12.711l2.737.606c-28.636-5.858-53.541-19.095-73.444-37.631l.091.084a22.54 22.54 0 00-15.754-6.041h.018a20.418 20.418 0 00-14.984 6.041l-.001.001c-4.196 3.674-6.831 9.04-6.831 15.022 0 .143.002.285.004.427v-.021l-.001.178a21.783 21.783 0 006.818 15.855l.01.009c19.705 18.539 43.739 32.711 70.41 40.832l1.27.332c21.361 7.925 46.393 14.176 72.305 17.651l1.833.201q28.433 2.731 55.057 2.731t55.057-2.731c27.744-3.676 52.776-9.927 76.62-18.645l-2.482.794c27.977-8.428 52.048-22.592 71.877-41.219l-.095.088zm-1.809-124.075c.429.008.935.012 1.442.012 24.521 0 46.658-10.208 62.393-26.606l.028-.03c16.254-15.972 26.328-38.188 26.328-62.757 0-.485-.004-.969-.012-1.452l.001.073c-.421-49.635-40.545-89.759-90.14-90.18h-.04c-.41-.007-.894-.011-1.379-.011-24.569 0-46.786 10.073-62.745 26.315l-.012.013c-16.428 15.763-26.636 37.9-26.636 62.421 0 .507.004 1.013.013 1.518l-.001-.076c.078 50.113 40.681 90.717 90.787 90.795h.007z"/></svg>