<svg width="64" height="64" viewBox="0 0 1195 1195" xmlns="http://www.w3.org/2000/svg"><path d="M1194.393 820.791c-.498 11.399-15.581 24.143-46.543 40.321-63.767 33.202-394.049 169.248-464.337 205.686-25.143 17.876-56.472 28.578-90.3 28.578-27.34 0-53.047-6.99-75.431-19.281l.815.41c-55.653-26.532-406.992-168.551-470.31-198.767C16.677 862.804.549 849.862.002 837.915v120.763c0 12.046 16.626 24.889 48.285 39.823 63.319 30.266 414.807 172.235 470.31 198.767 21.52 11.825 47.16 18.781 74.424 18.781 33.915 0 65.315-10.764 90.972-29.061l-.479.325c70.288-36.637 400.57-172.434 464.337-205.686 32.406-16.875 46.742-29.867 46.742-41.914V820.642zm-.05-196.876c-.548 11.399-15.581 24.093-46.493 40.271-63.767 33.202-394.049 169.248-464.337 205.686-25.192 17.947-56.597 28.693-90.511 28.693-27.253 0-52.886-6.94-75.227-19.148l.82.411c-55.653-26.731-406.992-168.75-470.31-199.016C16.675 665.878.547 652.936 0 640.989v120.763c0 12.046 16.626 24.889 48.285 39.823 63.319 30.266 414.757 172.235 470.31 198.767 21.57 11.881 47.277 18.871 74.617 18.871 33.828 0 65.157-10.702 90.785-28.905l-.485.327c70.288-36.637 400.57-172.484 464.337-205.686 32.406-16.925 46.742-29.867 46.742-41.964V623.914h-.299zm0-204.192c.597-12.146-15.282-22.799-47.24-34.546-61.925-22.749-390.465-153.418-453.286-176.466-22.507-10.321-48.827-16.338-76.553-16.338-31.324 0-60.853 7.68-86.809 21.26l1.033-.492c-73.872 26.532-423.419 163.623-485.592 187.965C14.784 413.352-.448 424.651.099 436.698v120.763c0 12.046 16.626 24.889 48.285 39.823 63.319 30.266 414.757 172.284 470.31 198.817 21.521 11.798 47.153 18.737 74.406 18.737 33.914 0 65.319-10.746 90.994-29.019l-.483.326c70.288-36.637 400.57-172.484 464.337-205.686 32.406-16.925 46.742-29.867 46.742-41.964V419.424h-.398zM427.749 534.214l276.82-42.511-83.628 122.605zm612.28-110.41l-181.444 71.681-163.623-64.961 181.145-71.632 163.772 64.712zM559.414 304.982l-26.781-49.381 83.529 32.655 78.75-25.785-21.305 51.023 80.243 29.867-103.49 10.752-23.147 55.951-37.483-62.174-119.469-10.752 89.204-32.157zM353.43 374.623c81.737 0 147.943 25.686 147.943 57.345s-66.504 57.345-147.943 57.345-148.241-25.736-148.241-57.345 66.256-57.345 148.241-57.345z"/></svg>