<svg width="64" height="64" viewBox="0 0 1080 1080" xmlns="http://www.w3.org/2000/svg"><path d="M748.372 791.78c38.111-3.817 67.619-35.721 67.619-74.517 0-1.548-.047-3.086-.14-4.611l.01.21c-1.986-41.067-35.57-73.661-76.855-74.058h-2.784c-41.295 1.519-74.196 35.362-74.196 76.889 0 .951.017 1.897.051 2.84l-.004-.136c1.127 20.191 9.382 38.261 22.264 51.918l-.038-.04c-50.636 94.469-128.033 168.969-222.019 214.674l-2.947 1.293c-50.871 28.155-111.537 44.725-176.073 44.725a372.452 372.452 0 01-48.234-3.124l1.86.198c-58.066-5.581-108.06-36.018-139.8-80.4l-.399-.587c-22.894-32.208-36.6-72.337-36.6-115.667 0-35.722 9.315-69.268 25.648-98.341l-.522 1.011c23.326-44.208 55.164-80.979 93.61-109.302l.876-.616c-7.278-19.328-13.815-42.605-18.444-66.562l-.453-2.817C-39.013 697.658-18.721 893.109 41.93 985.48c53.046 67.67 134.791 110.748 226.598 110.748 4.173 0 8.325-.089 12.455-.265l-.59.02c1.507.023 3.286.037 5.068.037 27.604 0 54.462-3.194 80.225-9.234l-2.37.468c171.022-31.307 311.03-141.518 382.871-290.735l1.371-3.16zm240.623-168.365C886.474 506.525 736.821 433.13 570.026 433.13c-5.097 0-10.178.069-15.243.205l.748-.016h-22.947c-12.092-24.203-36.684-40.534-65.09-40.534-.844 0-1.684.014-2.521.043l.122-.003h-1.665c-41.22.589-74.409 34.142-74.409 75.446 0 1.221.029 2.435.086 3.642l-.006-.171c1.915 41.1 35.505 73.747 76.809 74.148h3.368c30.448-1.206 56.194-20.129 67.304-46.696l.186-.502h24.971c108.96.114 210.078 33.599 293.707 90.783l-1.791-1.157c65.34 41.833 115.776 101.897 144.708 173.001l.89 2.472c11.076 23.116 17.546 50.249 17.546 78.893 0 30.28-7.23 58.872-20.059 84.142l.488-1.06c-33.141 67.655-101.495 113.416-180.538 113.416-2.887 0-5.76-.061-8.617-.182l.408.014c-48.523-1.014-94.295-11.694-135.824-30.181l2.239.89c-16.153 13.498-43.148 35.68-62.721 49.178 51.802 25.418 112.552 40.91 176.761 42.419l.512.01c2.507.075 5.456.118 8.415.118 108.873 0 204.245-57.802 257.104-144.392l.751-1.323c14.571-34.587 23.037-74.795 23.037-116.979 0-84.469-33.946-161.009-88.94-216.723l.032.033-.63 1.35zM292.006 816.166c1.871 41.151 35.538 73.843 76.909 74.149h2.73c41.321-1.427 74.277-35.268 74.277-76.805 0-42.25-34.095-76.536-76.272-76.846h-2.864a28.948 28.948 0 00-10.329 1.362l.205-.057c-45.633-74.295-72.663-164.273-72.663-260.565 0-15.519.702-30.875 2.076-46.036l-.143 1.952c3.885-81.319 33.741-154.99 81.384-213.628l-.531.675c42.273-45.679 101.855-74.814 168.258-76.929l.377-.01c145.598-2.745 206.294 178.668 210.973 250.792l67.49 20.202C798.18 193.37 660.726 77.333 529.256 77.333c-133.627 6.935-244.52 96.866-282.548 218.929l-.594 2.213c-18.709 53.83-29.513 115.876-29.513 180.445 0 110.415 31.595 213.45 86.238 300.557l-1.383-2.364c-6.109 9.206-9.747 20.511-9.747 32.667 0 2.25.125 4.471.367 6.656l-.024-.269z"/></svg>