<svg width="64" height="64" viewBox="0 0 1365 1365" xmlns="http://www.w3.org/2000/svg"><path d="M1174.726 950.948c1.675-.045 3.647-.071 5.626-.071 35.588 0 69.24 8.291 99.129 23.047l-1.313-.586c27.234 13.271 49.582 32.875 65.749 56.974l.376.595c12.75 18.599 20.361 41.591 20.361 66.361 0 1.79-.04 3.57-.118 5.34l.009-.252c-1.323 24.69-12.557 46.521-29.761 61.766l-.093.081a93.816 93.816 0 01-33.48 21.136l-.652.208q-10.649 2.139-11.741-3.186t9.602-11.741c19.285-11.711 33.247-30.552 38.303-52.779l.107-.557c.141-1.803.222-3.903.222-6.023 0-13.276-3.158-25.815-8.765-36.905l.215.468c-9.271-19.325-23.077-35.189-40.091-46.658l-.412-.262c-25.482-16.381-56.029-27.139-88.864-29.808l-.698-.046c-11.179-1.663-24.083-2.612-37.208-2.612-34.17 0-66.836 6.436-96.853 18.163l1.812-.623c6.195 14.45 10.053 31.226 10.643 48.83l.006.229c-.685 36.049-20.071 67.422-48.836 84.894l-.45.254c-13.23 9.371-28.345 17.615-44.398 24.011l-1.475.518c-9.759 4.773-21.236 7.565-33.365 7.565-1.39 0-2.772-.037-4.144-.109l.192.008q-40.503-8.51-19.205-70.403c6.178-17.983 14.863-33.552 25.814-47.227l-.238.307c14.042-18.338 29.45-34.425 46.45-48.675l.47-.383-4.187-6.235c-7.787-13.31-14.991-28.798-20.741-44.975l-.603-1.945q-6.417-21.344-10.649-40.503l-2.139-14.927-21.344 40.503q-27.715 51.198-53.337 89.562l-6.417 10.649c7.178 17.401 12.438 37.597 14.83 58.662l.097 1.046c.152 2.025.239 4.386.239 6.768 0 32.335-15.967 60.94-40.446 78.362l-.295.2c-11.673 7.207-25.659 14.68-40.098 21.339l-2.544 1.052c-15.043 6.549-32.503 10.774-50.829 11.726l-.368.015a66.493 66.493 0 01-4.738.163c-10.677 0-20.786-2.427-29.808-6.759l.414.179c-5.41-4.644-8.815-11.49-8.815-19.131 0-3.895.885-7.583 2.464-10.874l-.065.151c17.071-23.918 33.869-44.774 51.763-64.623l-.565.637 46.92-59.708-8.51-19.205c-6.848-12.548-13.341-27.345-18.592-42.718l-.612-2.063q-6.417-21.344-10.649-40.503l-2.139-14.927-21.344 51.198q-25.576 59.708-46.92 102.35-31.856 63.986-53.337 98.118l-4.278 6.417q-25.576 40.503-49.059 40.503t-31.856-29.854c-4.107-14.684-6.468-31.546-6.468-48.959 0-1.539.018-3.074.055-4.604l-.004.227 4.278-29.854v2.139q-17.066 40.503-34.132 74.635c-7.539 14.76-15.337 27.333-24.038 39.204l.555-.794c-8.786 9.205-21.151 14.928-34.852 14.928l-.344-.001h.018c-.878.066-1.901.103-2.933.103-10.79 0-20.626-4.081-28.05-10.785l.037.033c-14.879-15.294-25.955-34.364-31.654-55.633l-.203-.889c-6.98-19.432-11.016-41.852-11.016-65.216 0-3.009.067-6.002.199-8.978l-.015.423c3.365-33.95 10.144-65.06 20.083-94.721l-.878 3.02-76.774 44.781v2.139c11.152 23.11 17.668 50.253 17.668 78.919 0 5.252-.219 10.453-.648 15.594l.045-.672c-2.274 43.934-16.293 84.181-38.948 118.182l.539-.859c-23.753 37.707-58.037 66.873-98.716 83.722l-1.404.515c-22.929 10.293-49.7 16.289-77.871 16.289-17.85 0-35.137-2.407-51.555-6.915l1.364.319c-13.579-4.581-24.64-13.607-31.71-25.314l-.147-.262c-9.936-14.413-16.227-32.029-17.193-51.05l-.01-.239c-.467-4.309-.733-9.306-.733-14.366 0-21.894 4.987-42.624 13.888-61.114l-.367.845c24.503-41.765 58.355-75.618 98.829-99.418l1.291-.702c28.64-19.831 61.532-39.083 95.863-55.845l4.53-1.997 10.649-6.417q-19.205-14.927-70.403-51.198c-45.607-30.555-85.265-61.408-122.625-94.779l1.07.939C40.237 887.716 13.912 846.141 2.07 798.826l-.34-1.604c-1.106-6.553-1.739-14.103-1.739-21.801 0-24.052 6.174-46.662 17.025-66.332l-.359.709c23.884-51.358 57.009-94.664 97.611-129.504l.506-.424c43.954-41.532 93.693-77.672 147.703-106.931l3.705-1.836c48.277-27.851 104.603-53.77 163.36-74.539l7.253-2.235c54.58-19.989 117.597-31.645 183.308-31.856h.094c3.005-.096 6.54-.151 10.087-.151 52.948 0 103.034 12.249 147.581 34.068l-1.982-.877c38.404 17.495 67.175 50.452 78.668 90.697l.245 1.003c3.527 13.753 5.551 29.541 5.551 45.801 0 26.981-5.573 52.661-15.631 75.95l.478-1.243c-18.245 44.256-44.256 81.903-76.656 112.932l-.118.112c-32.858 32.543-72.231 58.573-115.981 75.953l-2.343.821c-45.836 19.681-99.044 32.029-154.878 34.108l-.809.024c-8.177.923-17.655 1.449-27.256 1.449-25.242 0-49.633-3.638-72.68-10.418l1.818.459c-20.612-6.572-38.408-16.786-53.509-30.002l.173.148c-10.578-8.625-19.181-19.235-25.323-31.307l-.253-.549q-6.417-17.066-1.047-20.252t7.463-1.047l10.649 10.649a120.97 120.97 0 0041.795 25.314l.847.262c21.597 7.53 46.492 11.879 72.403 11.879 8.304 0 16.504-.447 24.577-1.317l-1.001.088c69.032-8.133 131.274-31.685 184.994-67.111l-1.592.986c45.378-27.016 82.146-64.119 107.993-108.379l.774-1.435c12.842-18.864 20.505-42.152 20.505-67.229 0-15.423-2.898-30.169-8.18-43.723l.281.82c-15.958-25.215-41.768-42.965-71.89-47.885l-.606-.082c-23.392-5.768-50.246-9.077-77.873-9.077-22.24 0-43.979 2.144-65.021 6.237l2.135-.346c-71.998 12.986-136.321 35.206-195.655 65.756l3.88-1.815q-262.314 132.249-270.87 270.87c-.01.62-.016 1.353-.016 2.086 0 37.26 14.638 71.101 38.477 96.086l-.052-.055c27.162 30.208 57.22 56.885 90.016 79.929l1.685 1.122c29.907 22.364 56.364 45.443 80.989 70.339l.063.064 4.278 4.278 136.527-74.635c15.552-22.527 34.297-41.547 55.828-56.916l.694-.471c17.06-14.322 38.732-23.666 62.505-25.551l.389-.025c.854-.067 1.85-.106 2.854-.106 15.896 0 29.547 9.61 35.46 23.338l.096.251c4.479 10.042 7.088 21.76 7.088 34.088 0 3.77-.244 7.482-.717 11.123l.046-.43-4.141 21.025 6.417-4.278c4.417-3.356 10.009-5.377 16.073-5.377 3.83 0 7.473.806 10.766 2.258l-.171-.067c8.187 2.131 14.133 9.457 14.133 18.173a18.79 18.79 0 01-.506 4.345l.025-.127-6.417 23.483q-19.205 76.774-25.576 110.906c-2.114 7.395-3.33 15.89-3.33 24.668 0 1.824.053 3.637.156 5.435l-.011-.249q1.047 12.788 3.186 12.788t8.51-12.788l6.417-14.927q2.139 0 0 2.139l23.483-49.059q83.191-183.402 89.562-204.791l12.788-40.503q2.139-4.278 17.066-8.51c10.092-2.735 21.679-4.307 33.633-4.307.976 0 1.949.01 2.919.031l-.145-.002q29.854 0 29.854 14.927l-2.139 10.649c-4.798 13.133-9.502 29.562-13.164 46.381l-.489 2.678c-.855 5.498-1.344 11.839-1.344 18.294 0 8.616.87 17.028 2.528 25.154l-.137-.806 2.139 8.51c4.365 17.773 10.963 33.414 19.625 47.663l-.42-.744q25.576-42.642 49.059-87.423c12.392-20.595 23.891-44.5 33.156-69.491l.976-3.005c3.191-16.067 6.871-29.657 11.347-42.879l-.698 2.376q2.139-6.417 18.204-9.602c10.139-2.03 21.795-3.192 33.723-3.192.512 0 1.023.002 1.534.006l-.078-.001q29.854 0 31.856 14.927l-4.278 8.51c-5.058 14.327-9.501 31.555-12.517 49.27l-.271 1.928c-.398 4.13-.626 8.928-.626 13.779 0 10.21 1.006 20.185 2.925 29.831l-.161-.968v8.51c4.898 18.623 12.215 34.96 21.75 49.731l-.406-.672 6.417 14.927c35.611-17.49 77.508-27.719 121.794-27.719.556 0 1.112.002 1.667.005h-.086zm-914.733 309.461c29.668-30.637 47.954-72.45 47.954-118.535 0-17.786-2.724-34.937-7.777-51.056l.326 1.208-34.132 21.344c-34.833 19.854-64.946 41.993-92.222 67.162l.339-.309c-20.699 19.03-35.988 43.64-43.493 71.445l-.242 1.051q-9.602 39.456 9.602 51.198c7.821 3.586 16.967 5.676 26.601 5.676 10.5 0 20.419-2.483 29.204-6.894l-.375.171c25.347-9.22 46.821-23.84 63.872-42.561l.114-.127zm285.752-196.417q10.649-27.715 23.483-66.125 17.066-51.198 11.741-59.708t-20.252-2.139c-11.862 5.739-21.823 13.662-29.732 23.329l-.122.154c-8.879 11.204-17.341 23.759-24.814 36.947l-.762 1.462c-8.628 14.107-15.9 30.386-20.976 47.605l-.367 1.453c-8.252 22.331-13.027 48.122-13.027 75.029 0 3.623.087 7.226.258 10.806l-.019-.506q2.139 42.642 13.653 45.873t26.668-30.946c9.762-17.621 18.455-38.117 24.977-59.558l.599-2.288q6.371-15.109 8.692-21.389zm236.647 113.045c29.554-13.268 50.387-41.208 53.312-74.293l.024-.342v-2.139l-23.483 29.854-42.642 46.92a2.685 2.685 0 00-1.047 2.127v.012-.001.012a2.68 2.68 0 001.041 2.123l.006.005q2.048 2.093 12.788-4.278zm183.402-40.503c32.243-9.224 55.446-38.434 55.446-73.065 0-.552-.006-1.103-.018-1.652l.001.082c-.433-8.531-1.966-16.549-4.462-24.129l.184.647c-16.601 14.745-30.203 32.447-40.055 52.337l-.448 1q-19.25 38.364-10.74 44.735z"/></svg>