<svg width="64" height="64" viewBox="0 0 1425 1425" xmlns="http://www.w3.org/2000/svg"><path d="M1425.154 1446.333H1.14c0-4.75-.76-9.12-.76-13.586q0-344.057-.285-688.636a26.812 26.812 0 01-.077-2.065c0-9.238 4.531-17.417 11.491-22.437l.082-.056q194.378-146.449 388.471-293.372c5.463-4.18 9.5-5.985 15.391 0q145.356 146.544 290.76 292.85a18.123 18.123 0 011.027 3.541l.018.117c-5.985-2.613-10.973-4.418-15.676-6.508-120.417-53.582-241.12-106.879-361.3-160.937a13.816 13.816 0 00-8.316-2.758c-5.732 0-10.655 3.465-12.788 8.415l-.035.09Q209.389 705.587 108.78 849.375a15.146 15.146 0 00-4.298 10.592c0 4.239 1.735 8.072 4.534 10.829l.002.002q145.404 190.435 290.095 381.583c2.609 4.61 7.48 7.67 13.066 7.67 3.343 0 6.429-1.096 8.92-2.948l-.04.028c112.865-51.445 225.967-102.414 338.832-153.859 3.518-1.867 7.692-2.964 12.121-2.964 4.978 0 9.632 1.385 13.599 3.79l-.117-.066q316.601 168.109 632.964 335.934c2.328 1.283 4.418 2.613 6.508 3.895a10.376 10.376 0 01.189 2.492l.001-.021z"/></svg>