<svg width="64" height="64" viewBox="0 0 1157 1157" xmlns="http://www.w3.org/2000/svg"><path d="M1141.132 1127.893c10.173-15.231 16.234-33.96 16.234-54.105s-6.061-38.875-16.46-54.464l.225.359L672.41 204.727c-18.749-30.462-51.91-50.467-89.744-50.467-1.39 0-2.773.027-4.15.08l.198-.006c-38.531 1.874-72.19 21.203-93.455 50.193l-.241.344-151.466 266.766 36.07 21.652c115.445 65.517 208.481 158.554 272.152 270.472l1.847 3.527c55.766 93.096 92.158 203.749 100.834 322.102l.143 2.434H636.58c-8.501-102.133-39.668-195.442-88.423-277.026l1.623 2.931c-52.418-101.396-131.363-182.789-227.745-236.75l-2.854-1.468-36.118-21.555-144.185 245.162L174.9 824.77c92.042 55.614 156.642 148.707 172.828 257.597l.242 1.983H109.993c-5.7-.826-10.679-3.435-14.466-7.233l-.001-.001c-1.888-1.834-3.06-4.397-3.06-7.233s1.172-5.399 3.058-7.231l.002-.002 65.004-115.396c-21.427-20.647-48.273-35.813-78.194-43.155l-1.18-.245-64.907 115.878C6.076 1034.963.015 1053.692.015 1073.837s6.061 38.875 16.46 54.464l-.225-.359c16.967 30.456 48.976 50.718 85.718 50.718 2.808 0 5.588-.118 8.336-.35l-.359.024h331.721v-43.4c-1.359-82.069-22.623-158.877-59.153-226.197l1.286 2.59c-29.68-55.883-71.121-101.922-121.282-136.116l-1.299-.836 50.682-93.599c66.046 49.501 121.246 109.309 164.236 177.579l1.601 2.724c45.485 77.225 72.354 170.131 72.354 269.313 0 1.648-.007 3.294-.022 4.938l.002-.252v43.4h281.184v-43.4c.012-1.611.018-3.517.018-5.424 0-152.584-42.919-295.144-117.343-416.266l1.976 3.458C653.658 600.806 565.608 505.9 459.001 437.35l-2.965-1.784 108.211-187.44c3.653-3.998 8.704-6.666 14.374-7.226l.093-.007c7.233 0 7.233 0 14.467 7.233l468.769 814.956c1.888 1.834 3.06 4.397 3.06 7.233s-1.172 5.399-3.058 7.231l-.002.002a25.207 25.207 0 01-14.332 7.218l-.135.016H939.272v86.8h108.163c5.929 1.521 12.736 2.395 19.746 2.395 32.207 0 60.11-18.432 73.733-45.324l.217-.471z"/></svg>