<svg width="64" height="64" viewBox="0 0 1024 1024" xmlns="http://www.w3.org/2000/svg"><path d="M512.043 21.333c-282.77 0-512 229.23-512 512s229.23 512 512 512 512-229.23 512-512-229.23-512-512-512zm-90.795 714.069c-.681.007-1.486.011-2.292.011-57.177 0-109.526-20.671-149.983-54.947l.338.279c-49.421-42.011-81.907-102.652-86.53-170.936l-.041-.754c-.282-4.322-.443-9.371-.443-14.457 0-61.381 23.447-117.286 61.873-159.246l-.16.177c48.725-53.931 136.064-137.6 139.733-141.184 10.53-9.649 24.622-15.561 40.095-15.561 32.825 0 59.435 26.61 59.435 59.435 0 16.47-6.699 31.376-17.522 42.14l-.003.003c-.896.853-87.936 84.309-133.845 134.997-19.149 20.878-30.884 48.826-30.884 79.515 0 2.452.075 4.887.223 7.302l-.016-.331c2.734 35.867 19.818 67.277 45.458 88.842l.196.16c20.358 16.041 46.374 25.728 74.653 25.728 29.31 0 56.19-10.407 77.146-27.726l-.204.164c26.411-23.851 58.539-58.752 58.88-59.136 10.836-11.29 26.051-18.306 42.906-18.306 32.825 0 59.435 26.61 59.435 59.435 0 15.156-5.673 28.987-15.011 39.486l.053-.06c-1.493 1.493-36.352 39.424-67.072 67.072-40.984 35.966-95.05 57.909-154.242 57.909-.764 0-1.528-.004-2.291-.011l.116.001zm358.827-4.266c-48.768 53.845-136.064 137.6-139.776 141.184-10.53 9.649-24.622 15.561-40.095 15.561-32.825 0-59.435-26.61-59.435-59.435 0-16.47 6.699-31.376 17.522-42.14l.003-.003c.896-.853 88.021-84.352 133.845-135.083 19.149-20.872 30.885-48.815 30.885-79.499 0-2.458-.075-4.898-.224-7.318l.016.332c-2.706-35.847-19.799-67.239-45.455-88.755l-.199-.162c-20.337-16.053-46.34-25.75-74.608-25.75-29.321 0-56.206 10.433-77.144 27.789l.201-.162c-26.496 23.723-58.581 58.709-58.88 59.051-10.889 11.797-26.43 19.16-43.691 19.16-32.803 0-59.394-26.592-59.394-59.394 0-15.542 5.969-29.689 15.741-40.275l-.037.04c1.451-1.579 36.267-39.509 67.029-67.115 41.661-35.967 96.337-57.875 156.129-57.875 57.998 0 111.181 20.613 152.624 54.912l-.4-.322c49.422 42.021 81.898 102.683 86.488 170.984l.04.749c.288 4.365.452 9.463.452 14.6 0 61.336-23.417 117.202-61.798 159.147l.161-.179z"/></svg>