<svg width="64" height="64" viewBox="0 0 900 900" xmlns="http://www.w3.org/2000/svg"><path d="M592.597 920.437l307.883-66.603s-111.104-751.701-112-756.48c-.614-4.534-4.376-8.017-8.985-8.191l-.017-.001c-4.267 0-82.304-5.803-82.304-5.803s-54.4-54.357-61.397-60.203a16.357 16.357 0 00-5.051-3.119l-.112-.038-38.997 900.267h.981zM437.845 379.68c-22.108-10.922-48.063-17.539-75.506-18.088l-.185-.003c-61.739 0-64 38.656-64 48.683 0 52.565 138.24 73.173 138.24 197.504 0 98.133-61.44 160.427-145.323 160.427-1.691.051-3.679.08-5.675.08-57.209 0-108.81-24.007-145.28-62.497l-.085-.091 27.563-89.003a192.602 192.602 0 0096.166 45.334l1.114.149c.395.014.859.022 1.326.022 22.072 0 39.998-17.754 40.274-39.761v-.026c0-69.077-113.237-72.277-113.237-185.984-1.621-95.36 66.859-188.416 205.781-188.416 2.631-.145 5.709-.228 8.807-.228 25.828 0 50.31 5.762 72.231 16.07l-1.039-.439-40.32 116.053-.853.427zm-23.04-446.934a28.504 28.504 0 0117.138 5.812l-.071-.052c-41.771 19.84-87.851 69.76-106.795 170.325-27.989 9.088-55.168 17.28-80.597 24.661 22.272-76.16 75.648-200.32 170.325-200.32zm52.48 125.824v5.76c-32.171 9.899-67.541 20.651-102.144 31.403 9.116-54.929 42.451-100.586 88.448-126.303l.896-.46c8.456 24.078 13.34 51.839 13.34 80.741 0 3.115-.057 6.218-.169 9.306l.013-.447zm22.998-95.317c29.611 3.157 48.683 36.992 60.971 74.88-14.891 4.864-31.36 9.856-49.408 15.616V42.997c.042-1.674.065-3.645.065-5.622 0-26.516-4.254-52.038-12.117-75.921l.489 1.714zM617.941 18.25c-.853 0-2.56.896-3.328.896s-12.331 3.2-30.464 8.96c-18.048-52.608-50.176-101.12-107.008-101.12h-4.907c-12.108-17.034-31.298-28.354-53.185-29.644l-.191-.009c-132.523 0-195.84 165.419-215.68 249.429-50.944 15.573-88.021 27.136-92.16 28.757-28.8 9.088-29.611 9.899-32.939 37.12-3.2 19.712-78.08 600.021-78.08 600.021l578.603 108.672 39.552-903.083z"/></svg>