<svg width="64" height="64" viewBox="0 0 1261 1261" xmlns="http://www.w3.org/2000/svg"><path d="M530.761 1207.711c-208.994 20.547-389.61-73.886-403.168-211.253S272.58 731.235 481.784 710.53s389.557 73.571 403.115 211.148-144.987 265.328-354.033 285.822zm-55.073-162.906c-14.231 22.411-38.919 37.068-67.031 37.068-10.471 0-20.467-2.034-29.615-5.727l.531.19c-19.278-8.977-32.401-28.186-32.401-50.461a55.247 55.247 0 0111.168-33.393l-.102.141c14.352-22.052 38.881-36.428 66.768-36.428 9.856 0 19.293 1.796 28.001 5.078l-.547-.181c20.022 8.691 33.771 28.29 33.771 51.1 0 12.232-3.954 23.541-10.654 32.718l.11-.158zm66.739-85.5c-5.374 9.035-15.087 14.994-26.192 14.994-3.588 0-7.031-.622-10.227-1.765l.212.066c-7.67-3.079-12.987-10.454-12.987-19.07 0-4.389 1.379-8.455 3.728-11.79l-.043.065c5.156-8.695 14.493-14.433 25.171-14.433 3.642 0 7.129.668 10.344 1.887l-.2-.067c7.817 3.182 13.227 10.72 13.227 19.522 0 4.494-1.41 8.658-3.812 12.075l.045-.067zm9.249-142.885c-16.659-4.357-35.783-6.859-55.492-6.859-85.612 0-160.198 47.204-199.153 117.004l-.593 1.157c-10.726 20.553-17.018 44.889-17.018 70.693 0 71.816 48.735 132.25 114.937 150.033l1.086.248c20.21 6.565 43.466 10.35 67.605 10.35 87.941 0 164.148-50.235 201.492-123.575l.593-1.283c8.861-18.983 14.031-41.213 14.031-64.652 0-76.031-54.403-139.356-126.405-153.172l-.977-.156zm397.439-64.322c-18.182-5.255-29.954-9.459-21.283-32.319 9.958-18.248 15.814-39.971 15.814-63.061s-5.856-44.812-16.164-63.763l.35.702c-41.042-58.436-153.185-55.336-281.881-1.577 0 0-40.254 17.394-30.006-14.241 19.759-63.954 16.553-116.872-14.189-147.614-70.418-70.68-255.974 1.944-414.624 161.435C68.788 710.95-.001 837.229-.001 946.271c0 209.204 268.008 336.324 530.025 336.324 343.47 0 572.17-199.692 572.17-358.395 0-95.747-81.296-149.979-153.185-172.576v.526zm100.267-267.587c-29.954-33.325-73.202-54.19-121.323-54.19a163.445 163.445 0 00-35.308 3.837l1.081-.201c-18.883 3.992-32.85 20.518-32.85 40.306 0 22.728 18.425 41.153 41.153 41.153 2.939 0 5.807-.308 8.572-.894l-.269.048c5.063-1.15 10.877-1.809 16.845-1.809 43.825 0 79.351 35.527 79.351 79.351a79.3 79.3 0 01-3.972 24.861l.16-.561c-1.281 3.81-2.019 8.197-2.019 12.757 0 18.353 11.97 33.91 28.528 39.291l.292.082c3.54 1.058 7.608 1.667 11.818 1.667 18.525 0 34.295-11.79 40.219-28.275l.093-.298c5.03-15.018 7.933-32.312 7.933-50.283 0-42.057-15.897-80.402-42.009-109.353l.129.145 1.577 2.365zm127.067-115.349c-61.416-68.124-149.973-110.761-248.487-110.761-24.671 0-48.717 2.674-71.865 7.748l2.211-.407c-21.213 5.287-36.683 24.173-36.683 46.671 0 26.527 21.504 48.031 48.031 48.031 2.972 0 5.882-.27 8.705-.787l-.294.045c15.031-3.392 32.294-5.335 50.011-5.335 130.922 0 237.056 106.133 237.056 237.056 0 26.118-4.224 51.249-12.025 74.747l.482-1.674c-1.518 4.479-2.395 9.639-2.395 15.003 0 26.616 21.577 48.193 48.193 48.193 21.252 0 39.291-13.756 45.699-32.85l.099-.34c10.23-30.711 16.132-66.069 16.132-102.806 0-86.628-32.819-165.591-86.701-225.134l.256.288 1.577 2.365z"/></svg>