<svg width="64" height="64" viewBox="0 0 1024 1024" xmlns="http://www.w3.org/2000/svg"><path d="M1024.034 642.594c.026-1.072.041-2.334.041-3.599 0-46.861-20.216-89-52.403-118.171l-.134-.12c-32.216-30.243-75.692-48.821-123.507-48.821-1.412 0-2.82.016-4.224.048l.209-.004h-.425c-20.481 0-40.322 2.741-59.177 7.875l1.575-.365c2.392-9.665 3.764-20.761 3.764-32.178 0-.556-.003-1.111-.01-1.665l.001.084c.045-1.62.07-3.526.07-5.439 0-59.257-24.438-112.806-63.784-151.12l-.047-.045c-39.352-38.899-93.475-62.927-153.21-62.927-2.177 0-4.348.032-6.51.095l.317-.007h-.106c-32.758 0-63.988 6.548-92.45 18.405l1.591-.588c-29.303 11.737-54.085 29.295-73.908 51.393l-.161.183a45.102 45.102 0 00-11.229 23.189l-.035.261a17.685 17.685 0 004.687 13.153l-.011-.012a14.305 14.305 0 0010.222 4.676h.018c8.654-2.214 16.196-6.11 22.597-11.346l-.103.082c13.612-11.232 28.972-21.223 45.405-29.378l1.392-.625c21.822-10.662 47.482-16.897 74.599-16.897l.522.001h-.027c1.301-.033 2.834-.051 4.37-.051 49.98 0 95.362 19.685 128.817 51.725l-.067-.064c33.576 31.802 54.469 76.701 54.469 126.48 0 2.023-.035 4.038-.103 6.044l.008-.292c-.592 10.6-2.262 20.538-4.911 30.07l.234-.988c-2.414 8.543-4.084 18.482-4.66 28.714l-.017.368a23.254 23.254 0 007.494 17.052l.016.014c4.257 4.607 10.323 7.488 17.063 7.509h.004c11.753-1.131 22.561-3.789 32.69-7.791l-.809.282c13.174-5.844 28.455-9.851 44.488-11.227l.534-.037c.963-.031 2.094-.049 3.23-.049 31.361 0 59.529 13.669 78.871 35.375l.092.105c18.033 19.552 29.09 45.775 29.09 74.58 0 .48-.003.96-.009 1.439l.001-.073c.091 1.599.144 3.47.144 5.352 0 27.566-11.168 52.523-29.226 70.595l.001-.001c-20.544 22.048-49.748 35.794-82.163 35.794-2.1 0-4.186-.058-6.258-.172l.288.013c-52.198-1.572-99.355-21.94-135.203-54.528l.172.154c-39.682-37.276-75.936-77.089-108.923-119.565l-1.737-2.325q-56.252-69.393-88.132-103.151a491.288 491.288 0 00-104.475-79.389l-2.43-1.268c-39.506-21.27-86.454-33.768-136.321-33.768-.867 0-1.733.004-2.598.011l.133-.001c-.901-.012-1.965-.019-3.031-.019-43.991 0-85.299 11.485-121.09 31.619l1.241-.642c-36.686 20.58-66.489 49.487-87.541 84.281l-.591 1.052C12.181 505.835.015 546.781.015 590.569c0 1.153.008 2.305.025 3.454l-.002-.174c-.02 1.101-.032 2.399-.032 3.699 0 43.159 12.594 83.376 34.308 117.177l-.519-.863c22.551 34.836 52.915 62.807 88.726 81.909l1.284.625c34.593 18.895 75.776 30.007 119.554 30.007.497 0 .994-.001 1.49-.004h-.076c47.513-.478 92.566-10.475 133.516-28.168l-2.239.861c44.943-18.238 83.681-41.917 117.843-70.834l-.629.519 1.877-1.877q28.126-24.371 28.126-37.547a16.43 16.43 0 00-4.679-12.189l.003.003a16.432 16.432 0 00-12.219-4.675l.033-.001q-7.509 0-26.249 17.067l-11.264 9.387c-27.461 19.85-59.106 36.381-93.026 48.017l-2.548.76c-30.632 11.401-66.015 18.226-102.926 18.737l-.225.002c-2.49.118-5.41.186-8.345.186-50.737 0-96.774-20.128-130.56-52.834l.051.049c-28.463-30.37-45.946-71.332-45.946-116.377l.002-.883v.045a162.29 162.29 0 01-.109-6.039c0-42.758 16.045-81.768 42.442-111.338l-.144.164c31.466-32.529 75.51-52.724 124.271-52.724 3.113 0 6.206.082 9.278.245l-.429-.018c42.047.015 81.492 11.143 115.561 30.606l-1.146-.603c34.769 20.077 64.465 44.401 89.693 72.785l.317.363q28.126 30.003 80.657 96.597c26.824 34.948 53.234 65.816 81.148 95.242l-.491-.522c26.105 29.456 56.413 54.416 90.148 74.153l1.738.94c33.247 18.878 73.033 30.005 115.418 30.005l.922-.002h-.047c1.148.025 2.501.04 3.858.04 50.612 0 96.546-20.028 130.309-52.591l-.057.054c34.114-31.771 55.384-76.945 55.384-127.086 0-1.522-.02-3.038-.059-4.551l.005.223z"/></svg>