<svg width="64" height="64" viewBox="0 0 1024 1024" xmlns="http://www.w3.org/2000/svg"><path d="M934.775 498.858a85.97 85.97 0 012.483-.035c23.831 0 45.439 9.522 61.226 24.968l-.016-.015c15.771 15.236 25.562 36.573 25.562 60.197 0 .797-.011 1.592-.033 2.383l.003-.117a75.48 75.48 0 01.124 4.402c0 35.832-24.005 66.057-56.811 75.47l-.554.136-105.813 36.318 34.475 102.775c2.733 8.274 4.309 17.799 4.309 27.692 0 .429-.003.857-.009 1.284l.001-.065c.003.29.005.632.005.975 0 24.178-9.885 46.047-25.835 61.786l-.01.009c-15.32 16.305-37.022 26.46-61.095 26.46-.373 0-.746-.002-1.118-.007l.057.001-.622.002c-19.497 0-37.539-6.23-52.244-16.807l.267.182c-15.354-10.711-26.895-25.95-32.765-43.766l-.173-.607-33.86-101.547-190.771 65.229 33.86 100.932c3.048 8.609 4.842 18.539 4.915 28.877v.034c.003.29.005.632.005.975 0 24.178-9.885 46.047-25.835 61.786l-.01.009c-15.443 16.372-37.283 26.566-61.505 26.566-.457 0-.914-.004-1.369-.011l.069.001c-.223.002-.487.003-.752.003-19.354 0-37.251-6.233-51.795-16.802l.254.176c-15.203-10.781-26.628-26.003-32.458-43.762l-.174-.611-33.86-100.318-93.969 32.7c-9.109 3.18-19.623 5.177-30.553 5.525l-.167.004c-.737.023-1.604.036-2.474.036-23.391 0-44.584-9.411-59.998-24.654l.008.008c-15.41-15.188-24.956-36.289-24.956-59.62 0-.892.014-1.781.042-2.666l-.003.129-.001-.502c0-19.5 6.408-37.504 17.232-52.021l-.164.23c10.779-15.055 25.831-26.436 43.376-32.446l.621-.185 96.017-32.631L213.3 525.309l-95.983 33.246c-8.789 2.953-18.918 4.738-29.439 4.914l-.087.001c-.599.015-1.304.024-2.011.024-23.494 0-44.761-9.532-60.145-24.94l-.001-.001C9.812 523.342-.017 501.998-.017 478.358c0-.582.006-1.162.018-1.741l-.001.086-.001-.502c0-19.5 6.408-37.504 17.232-52.021l-.164.23c10.779-15.055 25.831-26.436 43.376-32.446l.621-.185 96.461-32.529-32.597-97.929c-3.048-8.609-4.842-18.539-4.915-28.877v-.034a86.504 86.504 0 01-.011-1.405c0-24.141 9.89-45.971 25.839-61.662l.012-.011c15.488-16.134 37.235-26.158 61.323-26.158.509 0 1.018.004 1.525.013l-.076-.001c.223-.002.487-.003.752-.003 19.354 0 37.251 6.233 51.795 16.802l-.254-.176c15.203 10.781 26.628 26.003 32.458 43.762l.174.611 33.246 98.475 190.771-64.614-33.246-98.475c-3.048-8.609-4.842-18.539-4.915-28.877v-.034a77.93 77.93 0 01-.006-1.006c0-24.257 10.013-46.176 26.132-61.848l.02-.019c15.479-16.311 37.315-26.459 61.521-26.459.332 0 .663.002.993.006h-.05c39.369.07 72.85 25.204 85.341 60.294l.197.634 32.631 98.987 99.669-33.621c7.887-2.34 16.95-3.686 26.326-3.686h.134-.007a82.986 82.986 0 011.799-.018c23.741 0 45.32 9.258 61.323 24.362l-.044-.041c16.096 14.575 26.165 35.55 26.165 58.877 0 .613-.007 1.224-.021 1.834l.002-.091v.1c0 19.151-6.988 36.669-18.553 50.145l.086-.103c-11.721 14.398-27.147 25.356-44.835 31.466l-.699.21-96.631 33.246 64.614 194.56 100.932-34.475c8.41-3.089 18.122-4.962 28.245-5.153l.086-.001zM446.157 660.104l190.771-64.614-64.614-193.843-190.771 65.843z"/></svg>