<svg width="64" height="64" viewBox="0 0 1024 1024" xmlns="http://www.w3.org/2000/svg"><path d="M0 21.333v1024h1024v-1024zM604.843 695.21c-25.042 23.034-58.597 37.154-95.45 37.154-1.094 0-2.184-.012-3.272-.037l.162.003c-1.693.04-3.687.062-5.687.062-33.617 0-65.743-6.381-95.234-17.997l1.763.612c-27.563-11.52-41.643-22.4-41.643-33.28l-3.243 4.267c1.434-9.521 5.125-17.986 10.51-25.097l-.099.137q10.453-16.64 18.773-16.64c5.157 2.495 9.547 5.108 13.69 8.048l-.292-.197c10.239 6.159 22.06 11.543 34.504 15.537l1.208.335c15.656 5.034 33.666 7.935 52.355 7.935 1.349 0 2.695-.015 4.037-.045l-.2.004c1.006.046 2.186.072 3.372.072 19.531 0 37.396-7.132 51.132-18.933l-.104.088c13.037-11.834 21.19-28.847 21.19-47.764a66.13 66.13 0 00-.076-3.157l.006.148c.061-1.064.095-2.309.095-3.563 0-18.013-7.128-34.361-18.717-46.378l.019.02c-20.877-15.959-45.849-27.712-73.03-33.491l-1.21-.215c-31.157-7.277-58.311-21.335-80.908-40.585l.268.222c-15.72-17.681-25.323-41.105-25.323-66.771 0-2.824.116-5.621.344-8.386l-.024.363a108.96 108.96 0 01-.012-1.582c0-32.919 14.864-62.365 38.247-81.995l.165-.135c24.8-21.149 57.223-34.015 92.651-34.015 2.529 0 5.042.066 7.538.195l-.349-.014c1.703-.045 3.707-.07 5.718-.07 25.161 0 49.391 3.99 72.09 11.371l-1.648-.463c22.357 7.04 33.28 15.36 33.28 23.68-.913 10.337-4.386 19.711-9.774 27.684l.132-.207c-6.4 11.52-12.16 16.64-16.64 16.64-.725 0-3.84-1.92-10.965-5.12-17.66-9.684-38.694-15.38-61.059-15.38-.794 0-1.586.007-2.377.021l.119-.002a89.099 89.099 0 00-5.769-.181c-18.275 0-35.309 5.314-49.641 14.482l.37-.221c-11.679 8.299-19.206 21.777-19.206 37.014 0 .262.002.524.007.786l-.001-.039c-.026.59-.041 1.281-.041 1.977 0 13.54 5.641 25.762 14.701 34.444l.017.016c14.103 10.949 30.799 19.334 48.96 24.106l.96.214c40.955 9.598 76.695 27.855 106.653 52.815l-.413-.335c17.711 20.755 28.487 47.896 28.487 77.553 0 3.113-.119 6.199-.352 9.253l.025-.406a119.1 119.1 0 01.063 3.939c0 36.268-15.767 68.854-40.821 91.276l-.117.103z"/></svg>