<svg width="64" height="64" viewBox="0 0 1089 1089" xmlns="http://www.w3.org/2000/svg"><path d="M555.315 86.333c1.845-.043 4.019-.068 6.198-.068 57.352 0 110.717 17.066 155.295 46.397l-1.067-.659c77.15 47.096 127.867 130.825 127.867 226.399 0 7.487-.311 14.902-.922 22.231l.064-.959q0 31.334-6.007 127.317c5.419 2.878 11.835 4.599 18.647 4.676h.024c12.575-1.01 24.17-4.227 34.729-9.267l-.595.256c9.963-4.784 21.559-8.001 33.784-8.988l.349-.023c14.002.164 26.928 4.639 37.549 12.154l-.207-.139c10.74 6.229 17.875 17.629 17.988 30.704v.016c-.338 15.268-8.588 28.537-20.799 35.903l-.193.108c-13.135 9.293-28.495 16.517-45.044 20.78l-.968.212c-17.444 4.409-32.775 11.041-46.699 19.719l.688-.399c-11.994 5.907-20.261 17.746-20.988 31.584l-.004.092c.935 10.595 3.782 20.327 8.198 29.136l-.211-.464c17.778 38.61 40.684 71.675 68.343 100.09l-.077-.079c26.583 28.223 58.623 50.976 94.473 66.625l1.851.72c15.077 6.12 32.949 11.42 51.429 15.02l1.887.306c10.64 1.405 18.766 10.418 18.766 21.329 0 .711-.034 1.413-.102 2.106l.007-.088q0 46.66-145.988 68.676c-3.894 7.561-6.514 16.394-7.32 25.745l-.018.265c-1.384 11.521-4.675 21.995-9.562 31.515l.244-.522c-3.939 7.413-11.612 12.376-20.444 12.376-.553 0-1.102-.019-1.645-.058l.073.004c-15.031-.544-29.265-2.099-43.166-4.609l1.831.274c-12.518-2.297-27.221-3.854-42.198-4.323l-.469-.012a216.66 216.66 0 00-42.666 3.619l1.33-.206c-15.767 2.637-29.887 7.876-42.57 15.302l.586-.317c-14.862 8.404-27.496 16.781-39.505 25.936l.832-.609q-17.988 13.653-38.673 26.999c-14.572 9.186-31.393 16.8-49.251 21.975l-1.402.348c-19.063 5.727-40.969 9.023-63.645 9.023-.833 0-1.665-.004-2.496-.013l.127.001c-.564.005-1.23.008-1.897.008-22.259 0-43.749-3.296-64.007-9.426l1.563.406c-19.017-5.507-35.621-13.12-50.787-22.789l.781.466q-20.48-13.346-38.332-26.999c-11.177-8.546-23.811-16.922-36.995-24.445l-1.678-.882c-11.988-7.063-25.973-12.296-40.868-14.878l-.741-.106c-11.8-2.182-25.378-3.43-39.248-3.43-.962 0-1.923.006-2.882.018l.146-.001c-15.745.474-30.767 2.266-45.343 5.274l1.686-.291c-11.34 2.469-24.723 4.249-38.389 4.958l-.626.026c-.655.063-1.417.099-2.187.099-9.046 0-16.934-4.956-21.098-12.301l-.063-.12c-4.702-9.203-8-19.92-9.279-31.247l-.039-.428c-.778-9.839-3.403-18.9-7.529-27.074l.19.415Q-.003 925.672-.003 879.012a20.954 20.954 0 01-.095-2.018c0-10.911 8.126-19.924 18.656-21.317l.109-.012c20.367-3.905 38.239-9.206 55.334-16.037l-2.017.712c37.747-16.258 69.805-39.028 96.179-67.188l.146-.157c27.683-28.281 50.604-61.361 67.377-97.853l.889-2.158c4.205-8.345 7.053-18.077 7.965-28.365l.022-.307a37.35 37.35 0 00-20.773-31.578l-.219-.097c-13.327-8.32-28.745-15.057-45.138-19.395l-1.181-.266c-17.617-4.647-33.056-11.853-46.822-21.319l.503.327c-12.299-7.119-20.546-20.042-20.991-34.925l-.001-.062c.227-12.798 7.039-23.957 17.185-30.255l.155-.089c10.104-7.597 22.832-12.207 36.632-12.322h.027c11.826 1.219 22.656 4.29 32.606 8.931l-.623-.261c10.347 4.724 22.374 7.832 35.023 8.654l.305.016a46.883 46.883 0 0021.61-4.799l-.277.123q-6.007-94.652-6.007-126.669c-.287-4.909-.45-10.651-.45-16.431 0-37.183 6.761-72.788 19.121-105.651l-.682 2.069c24.004-55.777 63.653-101.011 113.406-131.288l1.248-.705c49.117-26.482 107.496-42.044 169.51-42.044 2.315 0 4.624.022 6.929.065l-.345-.005z"/></svg>