<svg width="64" height="64" viewBox="0 0 1331 1331" xmlns="http://www.w3.org/2000/svg"><path d="M486.758 1126.541l8.909-133.888-8.909-290.56a15.795 15.795 0 00-4.157-9.431l.009.01a11.953 11.953 0 00-9.288-3.891l.021-.001a12.205 12.205 0 00-8.902 3.884l-.006.007a12.808 12.808 0 00-3.634 9.444l-.001-.023-7.782 290.56 7.782 133.888a14.575 14.575 0 004.149 9.167l-.002-.002a11.746 11.746 0 008.558 3.686h.046-.002c.375.041.81.064 1.251.064 6.73 0 12.186-5.456 12.186-12.186 0-.257-.008-.512-.024-.765l.002.035zm164.455-16.128l6.093-117.197-6.656-325.53c.01-.203.016-.441.016-.681 0-5.356-2.876-10.041-7.168-12.594l-.067-.037c-2.47-1.769-5.553-2.829-8.883-2.829s-6.413 1.06-8.93 2.861l.046-.032c-4.359 2.59-7.235 7.275-7.235 12.631 0 .24.006.478.017.714l-.001-.033-.563 3.328-5.581 321.69q0 .563 6.093 131.123v.563a13.971 13.971 0 003.345 9.441l-.016-.02c2.912 3.725 7.406 6.097 12.454 6.097.122 0 .243-.001.364-.004h-.018a15.329 15.329 0 0011.098-5.106l.013-.014c3.137-2.449 5.135-6.231 5.135-10.48 0-.222-.005-.443-.016-.662l.001.031zM70.656 921.536l11.264 71.117-11.264 69.99q-1.126 5.12-5.12 5.12t-5.12-5.12l-9.216-69.99 9.421-71.117q1.126-5.12 5.12-5.12t4.915 5.12zm47.77-43.878l14.438 114.995-14.438 112.64a5.43 5.43 0 01-5.589 5.119h.008q-5.12 0-5.12-5.53l-12.8-112.23 12.8-114.995a4.403 4.403 0 015.147-5.116l-.027-.004c.048-.002.105-.002.162-.002a5.427 5.427 0 015.418 5.108l.001.015zm51.097-21.146l13.875 136.09-13.875 131.686a5.427 5.427 0 01-6.121 6.09l.028.003a6.35 6.35 0 01-6.656-6.08v-.012L145.1 992.603l11.674-136.09q1.126-6.656 6.656-6.656t6.093 6.707zm52.224-3.891l12.8 139.981-12.8 135.578a7.426 7.426 0 01-7.8 7.219l.018.001a6.4 6.4 0 01-7.215-7.253l-.004.034-11.674-135.578 11.674-139.981a6.4 6.4 0 017.253-7.215l-.034-.004a7.424 7.424 0 017.782 7.209v.01zm52.224 10.24l11.674 129.997-11.674 136.653q-1.126 8.909-8.909 8.909h-.024a7.968 7.968 0 01-5.809-2.505l-.004-.004a8.625 8.625 0 01-2.508-6.415v.015L245.76 992.653l11.11-129.997c.111-4.564 3.782-8.234 8.335-8.345h.011a8.294 8.294 0 018.909 8.271v.078-.004zm52.224-81.306l11.674 211.098-11.674 136.653a10.209 10.209 0 01-2.77 6.969l.005-.006a8.692 8.692 0 01-6.636 3.072h-.021.001q-8.909 0-10.24-10.24l-10.24-136.653 10.24-211.098q1.126-10.24 10.24-10.24h.02a8.681 8.681 0 016.626 3.06l.01.012a10.199 10.199 0 012.764 7.392l.001-.018zm52.224-47.769l10.701 260.147-10.547 135.578c-.402 5.665-5.096 10.109-10.829 10.109s-10.427-4.444-10.827-10.075l-.002-.035-9.062-135.578 8.909-259.994a10.663 10.663 0 01-.026-.745c0-5.995 4.86-10.854 10.854-10.854s10.854 4.86 10.854 10.854c0 .262-.009.522-.028.78l.002-.035zm54.426-22.221l10.24 281.088-10.24 134.451c.007.152.012.33.012.509 0 6.193-5.02 11.213-11.213 11.213-.365 0-.725-.017-1.081-.051l.045.004q-10.547 0-11.674-11.674l-8.909-134.451 8.909-281.088v-.092c0-3.344 1.393-6.362 3.631-8.505l.004-.004a11.088 11.088 0 018.026-3.686h.012l.193-.002c3.243 0 6.153 1.422 8.142 3.676l.01.012a14.734 14.734 0 013.886 8.538l.005.063zm107.827-2.253l8.346 283.341-8.346 132.762c-.195 7.584-6.292 13.681-13.857 13.875h-.018l-.207.002a12.81 12.81 0 01-9.211-3.89l-.003-.003a15.61 15.61 0 01-4.453-10.205l-.001-.035-7.782-132.762 7.782-283.341a13.02 13.02 0 014.139-10.233l.008-.007c2.523-2.415 5.952-3.901 9.728-3.901s7.205 1.486 9.733 3.906l-.005-.005a13.029 13.029 0 014.146 10.273l.001-.033zm54.989 10.547l7.782 273.357-7.782 131.123v.054c0 8.257-6.694 14.95-14.95 14.95a14.904 14.904 0 01-10.648-4.456l-.002-.002a16.652 16.652 0 01-5.115-10.479l-.005-.068-6.656-131.123 6.656-273.357a17.185 17.185 0 015.117-11.108l.003-.003a14.402 14.402 0 0110.554-4.454h-.006l.21-.002c3.974 0 7.547 1.715 10.02 4.445l.01.011a17.788 17.788 0 014.708 11.062l.002.048zm117.76 273.357l-7.782 128.358v.021c0 9.529-7.725 17.254-17.254 17.254a17.2 17.2 0 01-12.186-5.039 18.681 18.681 0 01-5.578-12.183l-.003-.054-3.328-63.334-3.328-65.024 6.656-353.28v-1.69c.553-5.296 3-9.934 6.642-13.299l.014-.013a17.557 17.557 0 0111.06-3.891h.053-.003a14.024 14.024 0 018.383 2.791l-.037-.026c5.094 2.968 8.548 8.263 8.907 14.39l.002.048zm617.779-10.547c-.175 86.565-70.39 156.672-156.979 156.672H737.28c-4.82-.685-9.034-2.884-12.237-6.093a16.646 16.646 0 01-5.121-12.031l.001-.217v.011-499.456q0-12.8 15.36-18.33c29.918-12.02 64.604-18.993 100.919-18.993 72.519 0 138.544 27.807 187.994 73.341l-.195-.178c50.117 44.885 83.186 107.912 88.823 178.669l.06.941c17.975-7.743 38.9-12.246 60.877-12.246 86.952 0 157.44 70.488 157.44 157.44v.388-.02z"/></svg>