<svg width="64" height="64" viewBox="0 0 1024 1024" xmlns="http://www.w3.org/2000/svg"><path d="M751.343 742.673l.001-.285c0-14.502-7.99-27.139-19.808-33.747l-.196-.1c-82.016-48.274-180.676-76.789-285.997-76.789-4.215 0-8.42.046-12.613.137l.626-.011c-68.167.671-134.07 8.894-197.362 23.871l6.045-1.206c-15.928 2.026-28.118 15.494-28.118 31.809 0 1.011.047 2.01.138 2.997l-.009-.126c-.002.149-.004.325-.004.501 0 8.734 3.435 16.665 9.027 22.517l-.012-.012c5.617 5.969 13.569 9.686 22.389 9.686.445 0 .888-.009 1.328-.028l-.063.002c9.605-1.443 17.94-3.3 26.058-5.67l-1.379.345c48.451-10.863 104.293-17.384 161.555-17.985l.442-.004c3.208-.074 6.988-.115 10.778-.115 93.574 0 181.18 25.556 256.217 70.069l-2.325-1.277c6.233 4.126 13.765 6.788 21.877 7.331l.139.007h.042c17.287 0 31.3-14.014 31.3-31.3 0-.24-.003-.479-.008-.718l.001.036zm64-143.36c.013-.406.021-.883.021-1.363 0-16.871-9.343-31.559-23.137-39.174l-.23-.117c-100.625-59.189-221.659-94.15-350.859-94.15-5.052 0-10.091.053-15.118.16l.75-.013c-71.939.041-141.476 10.26-207.269 29.294l5.268-1.305c-18.452 3.786-32.134 19.893-32.134 39.194 0 1.222.055 2.432.162 3.626l-.011-.154v.171c0 21.999 17.834 39.834 39.834 39.834h.18-.009c9.314-1.194 17.662-3.059 25.707-5.606l-1.029.281c49.832-13.98 107.059-22.017 166.162-22.017l1.151.001h-.059c4.237-.103 9.228-.162 14.232-.162 114.477 0 221.773 30.748 314.078 84.436l-2.986-1.603c7.222 4.606 15.832 7.706 25.079 8.649l.248.02h.171c21.999 0 39.834-17.834 39.834-39.834v-.18.009zm72.124-165.308c.031-.659.048-1.432.048-2.209 0-19.154-10.696-35.809-26.44-44.32l-.267-.132c-56.323-32.348-121.622-57.791-190.803-72.832l-4.542-.828c-68.113-15.883-146.323-24.988-226.659-24.988l-2.147.002h.112a832.976 832.976 0 00-12.111-.085c-82.058 0-161.437 11.472-236.62 32.901l6.076-1.481c-10.365 3.169-19.095 9.118-25.597 16.978l-.071.089c-6.421 8.169-10.298 18.602-10.298 29.941 0 .838.021 1.672.063 2.499l-.005-.116a45.6 45.6 0 00-.016 1.22c0 13.032 5.217 24.846 13.676 33.467l-.007-.007c8.37 8.646 20.083 14.013 33.048 14.013.454 0 .906-.007 1.356-.02l-.066.002c9.826-.859 18.885-2.744 27.52-5.569l-.861.244c57.983-15.729 124.557-24.766 193.241-24.766 4.064 0 8.121.032 12.17.095l-.611-.008 1.877-.002c72.474 0 143.02 8.259 210.746 23.888l-6.287-1.221c63.736 13.375 120.263 35.273 171.844 64.822l-2.85-1.504c7.592 4.747 16.753 7.679 26.575 7.985l.083.002.447.002c12.95 0 24.683-5.215 33.212-13.659l-.004.004c8.746-8.298 14.188-20.005 14.188-32.982 0-.501-.008-1-.024-1.496l.002.072zM1024 533.333c.009 1.139.015 2.486.015 3.834 0 93.315-25.52 180.669-69.961 255.464l1.27-2.309c-45.504 77.803-108.532 140.831-183.932 185.032l-2.402 1.301c-73.758 43.162-162.406 68.649-257.007 68.649s-183.249-25.487-259.453-69.968l2.446 1.319c-77.803-45.504-140.831-108.532-185.032-183.932l-1.301-2.402C25.481 716.563-.006 627.915-.006 533.314s25.487-183.249 69.968-259.453l-1.319 2.446c45.504-77.803 108.532-140.831 183.932-185.032l2.402-1.301c73.758-43.162 162.406-68.649 257.007-68.649s183.249 25.487 259.453 69.968l-2.446-1.319c77.803 45.504 140.831 108.532 185.032 183.932l1.301 2.402c43.171 72.486 68.691 159.841 68.691 253.156 0 1.36-.005 2.719-.016 4.076l.001-.208z"/></svg>