<svg width="64" height="64" viewBox="0 0 1341 1341" xmlns="http://www.w3.org/2000/svg"><path d="M741.82 721.821v-82.432c0-39.352-31.901-71.253-71.253-71.253s-71.253 31.901-71.253 71.253v427.486c.018 1.192.028 2.599.028 4.008 0 80.588-33.758 153.291-87.903 204.74l-.121.114c-54.207 53.806-128.88 87.059-211.319 87.059-165.684 0-299.998-134.314-299.998-299.998v-.128.006-185.788h229.103v183.023c-.009.424-.015.923-.015 1.424 0 19.333 8.036 36.789 20.95 49.209l.022.021c12.931 12.74 30.695 20.608 50.295 20.608s37.364-7.867 50.304-20.616l-.009.009c12.936-12.442 20.973-29.898 20.973-49.23 0-.501-.005-1-.016-1.498l.001.074V626.828c-.012-.971-.02-2.117-.02-3.265 0-79.357 33.983-150.777 88.191-200.501l.2-.181c54.54-52.316 128.717-84.529 210.418-84.529 82.047 0 156.507 32.486 211.218 85.297l-.089-.086c54.213 50.458 88.018 122.221 88.018 201.878 0 1.219-.008 2.437-.024 3.653l.002-.185v95.13l-136.192 40.516zm370.21 155.068h229.103v185.788c-.238 165.543-134.491 299.649-300.066 299.649-82.401 0-157.044-33.214-211.273-86.985l.021.021c-54.282-51.873-88.027-124.841-88.027-205.691 0-1.475.011-2.947.034-4.417l-.003.222V878.289l91.511 42.598 136.192-40.516v188.587c-.005.316-.008.689-.008 1.063 0 19.22 8.039 36.562 20.939 48.848l.028.026c12.931 12.74 30.695 20.608 50.295 20.608s37.364-7.867 50.304-20.616l-.009.009c12.927-12.312 20.966-29.654 20.966-48.874 0-.374-.003-.747-.009-1.119l.001.056z"/></svg>