<svg width="64" height="64" viewBox="0 0 1024 1024" xmlns="http://www.w3.org/2000/svg"><path d="M157.798 715.4c26.556-31.778 29.696-64.58 9.114-125.508-13.005-38.537-34.645-68.267-18.739-92.16 17.067-25.532 52.873-.785 22.903 33.314l5.973 4.164c35.942 4.164 53.658-45.056 26.829-59.119-70.827-36.966-132.813 34.133-105.472 116.395 11.708 34.884 28.126 71.885 14.848 101.308-8.217 20.763-26.137 36.098-48.013 40.547l-.422.072c-30.993 1.57-10.411-69.53 25.259-87.245 3.14-1.57 7.543-3.652 3.413-8.841-4.185-.796-8.998-1.251-13.918-1.251-31.107 0-57.963 18.203-70.496 44.538l-.202.472C-34.372 764.62 90.897 795.101 157.799 715.4zm773.393-242.551c10.24 24.986 25.532 49.732 16.418 71.68-7.543 18.739-17.442 26.556-28.399 28.399-15.36 2.594-11.196-45.568 15.087-59.904 2.355-1.297 5.734-7.543 2.594-11.196-2.26-.303-4.872-.475-7.525-.475-24.28 0-45.18 14.469-54.548 35.255l-.152.377c-29.423 61.713 66.662 78.507 113.801 17.954 18.739-24.201 19.524-48.162 1.57-91.648-11.469-27.614-28.911-48.162-17.954-66.389 11.708-19.285 39.834-2.594 18.739 23.177l4.676 2.594c27.307 1.57 38.537-34.884 17.715-43.998-6.676-2.445-14.383-3.859-22.421-3.859-37.043 0-67.072 30.029-67.072 67.072 0 11.315 2.802 21.975 7.749 31.325l-.176-.365zm-347.886-66.014c-19.012-15.087-72.397 10.24-87.484 47.787-19.471 56.315-44.758 105.149-75.974 149.51l1.256-1.883c-29.15 32.017-32.017 7.305-29.15-11.196 15.549-65.421 40.495-123.066 73.738-174.88l-1.341 2.234c-8.602-12.766-64.853-10.923-103.902 49.732-14.575 22.903-47.787 99.226-84.89 159.369-8.055 13.005-18.227 3.891-10.411-26.556 20.349-81.416 43.791-150.653 72.064-217.345l-3.593 9.542c74.874-16.502 161.923-27.272 251.018-29.887l2.081-.048c9.626-2.594 16.145-11.196 0-11.708-1.946-.008-4.247-.013-6.549-.013-82.734 0-164.097 5.873-243.694 17.225l9.125-1.067c11.929-28.485 29.952-52.358 52.552-70.845l.321-.254c-7.826-3.577-16.975-5.662-26.612-5.662-23.78 0-44.594 12.699-56.032 31.685l-.164.294c-10.026 14.901-20.011 32.208-28.83 50.191l-1.173 2.647c-55.1 7.251-104.32 18.279-151.813 33.204l6.269-1.699c-28.638 10.923-25.532 45.568-8.055 39.049 37.315-13.913 84.003-27.623 131.811-38.374l7.726-1.46c-26.918 58.951-50.39 128.322-66.838 200.368l-1.428 7.436c-16.145 91.136 40.346 90.624 67.959 54.613 29.935-39.322 92.433-177.493 102.059-192.171 2.867-4.949 6.827-2.355 4.676 2.082-69.803 139.298-63.795 193.229-7.305 181.248 34.153-15.534 61.835-40.284 80.547-71.085l.451-.8c2.355-5.461 7.305-4.949 6.246-2.594-44.373 114.825-100.523 207.804-138.274 236.954-34.372 26.317-59.904-30.72 61.713-112.64 17.954-12.254 9.626-28.911-10.684-23.177-62.771 9.899-242.347 66.935-321.331 121.617-5.973 4.164-11.469 7.543-11.196 16.145.273 4.949 8.841 3.14 13.005.512 80.955-49.25 175.494-85.927 276.39-104.422l5.108-.777c.713.34 1.551.539 2.434.539.618 0 1.213-.097 1.771-.277l-.041.011c4.437-1.058 4.164 1.297 1.297 3.14-3.879 2.329-8.659 4.846-13.572 7.126l-1.003.418c-64.58 25.259-103.629 80.998-89.839 109.227 11.708 24.474 75.093 15.633 104.926-.512 73.421-39.834 126.805-117.965 163.26-225.758 31.881-95.369 71.987-203.81 81.374-206.814zm426.7 220.569c-35.93-2.612-77.843-4.101-120.104-4.101-131.43 0-259.496 14.4-382.708 41.709l11.701-2.178c-33.86 8.841-24.474 26.829-7.305 23.45.273 0 7.543-1.809 7.817-1.809 93.491-18.227 320.273-34.133 452.574-8.841 15.974 2.799 63.625-44.851 38.025-48.23zm-393.352-14.062c33.314-16.657 82.807-119.774 115.371-176.299 2.355-4.164 6.519-.785 4.164 2.082-82.295 141.653-47.377 158.071-14.848 155.989 43.486-2.594 83.593-65.092 92.433-79.155 3.652-5.461 5.734-1.058 3.652 2.867-2.082 6.519-9.626 17.954-16.657 33.587-9.899 22.118.512 30.72 9.114 34.645 13.653 6.519 50.517 2.355 56.252-20.48-36.966-.785 51.541-175.241 60.655-185.924-6.555-2.536-14.14-4.005-22.069-4.005-26.383 0-48.967 16.268-58.267 39.321l-.15.422c-37.239 73.694-68.471 133.12-88.03 134.11-38.025 2.082 43.759-164.318 57.037-169.506-8.055-11.708-59.904-6.827-88.747 38.025-10.24 16.145-73.967 128.649-89.566 147.115-27.614 32.802-29.696 4.676-21.879-28.126 4.173-16.796 8.547-30.607 13.65-44.06l-.884 2.656c12.009-26.616 28.817-49.097 49.512-67.258l.221-.19c80.452-89.327 126.566-161.69 108.339-190.089-16.145-25.259-70.042-14.063-104.687 38.025-63.795 95.573-122.641 226.543-130.185 286.447s36.147 64.478 65.57 49.801zm33.86-175.241c2.867-6.519 4.676-8.329 9.626-19.285 26.774-61.465 56.649-114.176 91.255-163.314l-1.928 2.887c15.36-16.145 36.966 5.734-2.082 65.604-23.567 36.299-49.055 67.903-77.416 96.668l.07-.071v.273c-7.305 8.055-13.653 14.848-16.657 18.739-2.116 2.662-4.437 2.116-2.867-1.502z"/></svg>