<svg width="64" height="64" viewBox="0 0 1390 1390" xmlns="http://www.w3.org/2000/svg"><path d="M116.326 1127.685c0 7.842-6.357 14.199-14.199 14.199s-14.199-6.357-14.199-14.199 6.357-14.199 14.199-14.199 14.199 6.357 14.199 14.199zm-48.23 87.927c0 7.842-6.357 14.199-14.199 14.199s-14.199-6.357-14.199-14.199 6.357-14.199 14.199-14.199 14.199 6.357 14.199 14.199zm0-87.927c0 7.842-6.357 14.199-14.199 14.199s-14.199-6.357-14.199-14.199 6.357-14.199 14.199-14.199 14.199 6.357 14.199 14.199zm48.23 87.927c0 7.842-6.357 14.199-14.199 14.199s-14.199-6.357-14.199-14.199 6.357-14.199 14.199-14.199 14.199 6.357 14.199 14.199zm1267.166-828.279c-16.35 4.574-32.973 11.742-46.012 13.995C861.559 494.034 407.415 605.445-.001 766.623v263.851c21.709-1.707 362.94-36.591 414.174-40.755 109.397-8.875 476.877-49.357 619.861-39.458 29.15 3.789 72.055 10.069 76.766 37.205 2.56 14.814-10.24 27.921-18.603 35.669-2.355 2.526-4.096 5.734-7.748 6.827-68.369 45.912-147.473 83.212-232.008 107.735l-6.003 1.491C607.32 1217.6 321.389 1283.765 27.549 1325.331L0 1328.525v82.807h30.515c300.749-48.23 585.523-123.392 861.662-195.14 169.984-44.169 339.627-109.909 497.766-168.073V745.732c-29.218 4.233-174.831 24.61-579.516 63.761-327.68 31.71-418.065 22.596-442.948 14.848a30.652 30.652 0 01-2.576-1.918l.05.041c-3.47-1.561-6.188-4.279-7.71-7.653l-.039-.096c-9.353-10.069-1.57-28.297 6.827-34.133 1.833-3.743 4.79-6.7 8.426-8.486l.108-.048c29.868-23.801 64.173-43.899 101.159-58.728l2.743-.971c65.156-29.433 145.272-58.752 227.673-82.703l13.581-3.381c42.121-12.254 84.275-24.883 127.147-36.454 143.18-41.13 327.237-81.656 514.619-112.29l30.422-4.104v-86.084z"/></svg>