<svg width="64" height="64" viewBox="0 0 1116 1116" xmlns="http://www.w3.org/2000/svg"><path d="M1029.261 689.633c48.131 108.119 37.07 218.061-24.705 245.561S853.684 897.339 805.553 789.22c-48.131-108.119-37.07-218.061 24.705-245.561s150.872 37.855 199.003 145.974zm-322.564 127.7c-45.431-107.008-51.2-214.426-21.606-283.307C558.722 572.417 468.339 687.9 468.339 824.493c0 2.343.027 4.68.08 7.011l-.006-.347c0 169.062 127.898 306.108 285.73 306.108 84.638-.56 160.182-39.017 210.591-99.235l.353-.434c-86.118 16.145-197.427-76.561-258.389-220.262zm-350.55-26.931s-132.642 163.26-112.23 224.495 255.113 102.025 255.113 102.025c-32.111-41.522-62.556-88.251-89.144-137.375l-2.709-5.473c-19.074-50.636-36.693-112.193-49.627-175.457l-1.403-8.214zm183.672-301.193S229.854 38.342 32.598 301.339c-111.104 148.207 82.569 232.38 272.384 244.224 9.744.881 21.077 1.383 32.527 1.383 74.933 0 144.844-21.501 203.9-58.67l-1.589.934zm224.508-329.955c43.931 25.364 42.998 109.226-2.085 187.309S644.999 467.384 601.068 442.02c-43.931-25.364-42.998-109.226 2.085-187.309s117.243-120.821 161.174-95.457z"/></svg>