<svg width="64" height="64" viewBox="0 0 1024 1024" xmlns="http://www.w3.org/2000/svg"><path d="M103.731 457.523H0v-94.754h321.297v94.754H217.6v275.046H103.731V457.523zm235.247-94.754h311.876v94.754H452.881v46.353h197.973v88.03H452.881v46.08h197.973v94.925H338.978V362.769zM784.009 638.02h44.612c70.997 0 81.374-57.685 81.374-92.399.154-1.884.241-4.079.241-6.294 0-45.375-36.784-82.159-82.159-82.159-2.934 0-5.832.154-8.687.454l.356-.03h-36.42v180.497zM670.071 362.769h187.051c123.358 0 166.878 91.102 166.878 184.32 0 113.493-60.109 185.651-189.167 185.651H670.071V362.769z"/></svg>