<svg width="64" height="64" viewBox="0 0 1024 1024" xmlns="http://www.w3.org/2000/svg"><path d="M512 21.333c-282.77 0-512 229.23-512 512s229.23 512 512 512 512-229.23 512-512-229.23-512-512-512zm251.46 350.754l-84.036 395.947c-6.178 28.092-22.903 34.884-46.251 21.675l-128-94.31-61.713 59.46c-5.968 7.693-15.214 12.596-25.606 12.596l-.21-.001h.011l9.079-130.287 237.227-214.289c10.24-9.079-2.287-14.234-15.906-5.154L354.986 602.283l-126.293-39.424c-27.307-8.67-28.092-27.307 5.769-40.687l493.5-190.225c22.972-8.363 42.94 5.461 35.499 40.141z"/></svg>