<svg width="64" height="64" viewBox="0 0 1024 1024" xmlns="http://www.w3.org/2000/svg"><path d="M512 250.112l105.6-129.109c132.319 7.192 255.546 38.742 367.723 90.226l-6.293-2.589c-35.349 45.991-81.926 81.689-135.695 103.256l-2.161.765c-6.229-61.397-49.237-76.373-185.771-76.373L512 1045.333 367.744 236.117c-135.68 0-178.688 15.104-184.96 76.459-55.887-22.133-102.444-57.673-137.219-102.765l-.552-.745c105.856-48.977 229.057-80.612 358.781-87.778l2.605-.115 105.6 128.939zm0-166.4c4.554-.064 9.931-.1 15.316-.1 169.26 0 330.149 35.84 475.492 100.344l-7.48-2.964c10.129-16.797 19.765-36.382 27.749-56.796l.923-2.681C872.501 59.099 696.684 22.398 512.423 21.336l-.423-.002C327.318 22.348 151.493 59.07-9.31 124.932L0 121.558c9.559 23.68 19.177 43.327 29.977 62.211l-1.305-2.477c138.156-61.773 299.406-97.751 469.059-97.751 5.017 0 10.026.031 15.028.094l-.759-.007z"/></svg>