<svg width="64" height="64" viewBox="0 0 780 780" xmlns="http://www.w3.org/2000/svg"><path d="M275.541 180.576c1.882 3.084 5.226 5.113 9.044 5.12h.07c2.549 0 4.882-.92 6.688-2.445l-.015.013.555-.597c16.531-13.81 31.446-27.996 45.407-43.076l.289-.316c49.612-56.263 79.895-130.599 79.895-212.008 0-43.54-8.662-85.058-24.358-122.922l.782 2.13c-1.128-2.516-1.786-5.453-1.786-8.544 0-6.801 3.183-12.859 8.14-16.766l.045-.035c3.396-2.463 7.647-3.94 12.243-3.94 5.387 0 10.3 2.029 14.017 5.365l-.02-.017c464 431.531 341.333 760.235 332.16 782.379-37.12 134.016-184.96 230.997-360.277 235.947-5.888.341-10.325.341-15.488.341-207.019 0-383.019-127.531-383.019-290.432v-2.56c0-226.133 204.8-448.939 213.717-458.411 3.452-3.94 8.493-6.414 14.111-6.414 3.019 0 5.871.714 8.396 1.983l-.108-.049c7.36 3.147 12.424 10.326 12.424 18.688 0 .195-.003.39-.008.584l.001-.029c-.306 4.154-.48 8.998-.48 13.883 0 37.335 10.179 72.293 27.913 102.249l-.511-.932v.768z"/></svg>