<svg width="64" height="64" viewBox="0 0 1024 1024" xmlns="http://www.w3.org/2000/svg"><path d="M896.119 21.333c.512-.008 1.117-.012 1.723-.012 34.751 0 66.141 14.387 88.539 37.53l.032.034c23.178 22.431 37.566 53.822 37.566 88.574 0 .665-.005 1.329-.016 1.991l.001-.1v768.102c.008.512.012 1.117.012 1.723 0 34.751-14.387 66.141-37.53 88.539l-.034.032c-22.431 23.176-53.821 37.564-88.572 37.564-.606 0-1.211-.004-1.814-.013l.091.001H128.015c-.563.009-1.226.015-1.891.015-34.752 0-66.143-14.388-88.542-37.533l-.032-.034C14.374 985.315-.014 953.925-.014 919.174c0-.606.004-1.211.013-1.814l-.001.091V149.349c-.008-.512-.012-1.117-.012-1.723 0-34.751 14.387-66.141 37.53-88.539l.034-.032c22.431-23.176 53.821-37.564 88.572-37.564.606 0 1.211.004 1.814.013l-.091-.001zm-450.346 774.93V215.475c.002-.168.003-.367.003-.567 0-16.838-7.014-32.038-18.28-42.837l-.021-.02c-10.797-11.126-25.89-18.031-42.597-18.031-.291 0-.581.002-.871.006H194.313a49.314 49.314 0 00-.567-.003c-16.838 0-32.038 7.014-42.837 18.28l-.02.021c-11.285 10.819-18.299 26.018-18.299 42.855l.001.311v-.016 580.788a55.938 55.938 0 00-.039 2.133c0 16.718 7.036 31.793 18.308 42.424l.029.027c11.018 10.569 26.003 17.076 42.508 17.076.322 0 .643-.002.963-.007l-.048.001H384.05c.272.004.593.007.915.007 16.505 0 31.49-6.507 42.53-17.096l-.021.02c11.301-10.659 18.337-25.733 18.337-42.451 0-.75-.014-1.497-.042-2.24l.003.107zm445.772-256.034V215.475c.002-.168.003-.367.003-.567 0-16.838-7.014-32.038-18.28-42.837l-.021-.02c-10.819-11.287-26.019-18.301-42.857-18.301l-.597.003H640.085a49.314 49.314 0 00-.567-.003c-16.838 0-32.038 7.014-42.837 18.28l-.02.021c-11.287 10.819-18.301 26.019-18.301 42.857l.003.597v-.03 324.617a55.938 55.938 0 00-.039 2.133c0 16.718 7.036 31.793 18.308 42.424l.029.027c11.018 10.569 26.003 17.076 42.508 17.076.322 0 .643-.002.963-.007l-.048.001h189.738c.272.004.593.007.915.007 16.505 0 31.49-6.507 42.53-17.096l-.021.02c11.297-10.658 18.33-25.73 18.33-42.445 0-.68-.012-1.358-.035-2.032l.003.098z"/></svg>