<svg width="64" height="64" viewBox="0 0 588 588" xmlns="http://www.w3.org/2000/svg"><path d="M539.034 403.099l49.22 145.818c-17.826 19.482-41.059 33.742-67.32 40.415l-.947.204c-32.349 11.954-69.709 19.125-108.668 19.692l-.252.003c-3.29.109-7.158.171-11.041.171-37.905 0-74.429-5.917-108.697-16.877l2.524.697c-33.617-10.275-62.815-25.838-88.244-45.958l.556.424c-22.642-18.617-41.994-40.117-57.806-64.154l-.664-1.075c-14.313-21.208-25.964-45.739-33.662-71.96l-.471-1.871c-6.364-21.724-10.094-46.698-10.24-72.521V1.315H0v-132.301c30.341-10.913 56.612-25.38 80.113-43.295l-.719.526c21.421-15.938 39.876-34.186 55.522-54.694l.491-.671c13.336-18.119 25.272-38.723 34.857-60.591l.812-2.078c7.916-17.122 15.081-37.415 20.392-58.445l.531-2.483c3.633-14.933 6.875-33.512 9.015-52.424l.201-2.19a10.014 10.014 0 012.765-5.222 6.438 6.438 0 014.599-2.116h150.196v260.915h204.8V1.314H358.058v318.737a142.104 142.104 0 004.199 35.451l-.206-.976c3.262 12.256 8.007 23.001 14.146 32.783l-.288-.492c7.288 11.385 17.695 20.209 30.015 25.371l.432.16c13.082 5.534 28.294 8.751 44.257 8.751 2.07 0 4.127-.054 6.171-.161l-.286.012c29.917-.022 58.292-6.596 83.776-18.366l-1.242.514z"/></svg>