<svg width="64" height="64" viewBox="0 0 1261 1261" xmlns="http://www.w3.org/2000/svg"><path d="M1260.817 379.95c-35.866 52.22-78.856 96.448-128.18 132.533l-1.527 1.065q.785 11.196.785 33.587c-.158 74.069-11.26 145.486-31.776 212.799l1.363-5.2c-22.802 75.666-54.271 141.637-94.124 201.55l1.725-2.758c-42.187 64.398-90.978 119.807-146.552 167.541l-1.04.873c-58.523 49.205-127.055 88.867-201.809 115.383l-4.596 1.421c-75.305 27.628-162.259 43.608-252.946 43.608-1.914 0-3.826-.007-5.737-.021l.293.002c-1.608.013-3.509.02-5.412.02-145.508 0-280.901-43.311-393.989-117.745l2.704 1.671c17.866 2.048 38.571 3.216 59.549 3.216 1.001 0 2.001-.003 3-.008l-.154.001c1.595.018 3.479.028 5.366.028 119.771 0 229.821-41.619 316.477-111.184l-.99.768c-112.586-2.141-207.413-75.816-241.071-177.371l-.525-1.829c14.594 2.426 31.485 3.873 48.692 3.993l.119.001c24.175-.005 47.596-3.219 69.866-9.237l-1.872.431c-60.264-12.104-111.59-44.109-148.051-88.735l-.361-.455c-36.588-43.151-58.835-99.468-58.835-160.981 0-1.197.008-2.393.025-3.586l-.002.181v-3.209c33.635 19.277 73.664 31.253 116.354 32.789l.451.013c-35.076-23.594-63.431-54.558-83.328-90.819l-.674-1.341C64.39 523.321 52.83 480.858 52.83 435.695c0-48.03 13.074-93.007 35.857-131.566l-.659 1.205c64.002 78.48 142.371 142.566 231.457 188.883l4.063 1.922c86.289 45.539 187.821 74.378 295.56 79.536l1.639.062c-3.963-17.709-6.271-38.072-6.349-58.961v-.056c.189-142.712 115.924-258.33 258.662-258.33 74.248 0 141.189 31.283 188.362 81.387l.123.132c61.772-12.117 116.696-33.792 166.107-63.668l-2.267 1.272c-19.404 61.049-59.753 110.75-112.422 141.765l-1.174.639c55.206-6.328 105.589-20.425 152.296-41.274l-3.27 1.304z"/></svg>