<svg width="64" height="64" viewBox="0 0 1024 1024" xmlns="http://www.w3.org/2000/svg"><path d="M512.171 21.333a458.535 458.535 0 00-3.453-.012c-70.876 0-138.312 14.732-199.412 41.3l3.233-1.252c-63.232 27.192-117.236 64.144-162.782 109.571l.011-.011C104.351 216.464 67.4 270.468 41.492 330.363l-1.285 3.337C14.891 391.568.159 459.003.159 529.88c0 1.214.004 2.427.013 3.639l-.001-.187a458.535 458.535 0 00-.012 3.453c0 70.876 14.732 138.312 41.3 199.412l-1.252-3.233c27.156 63.213 64.062 117.206 109.439 162.752l-.015-.015c45.535 45.417 99.539 82.368 159.434 108.276l3.337 1.285c57.868 25.317 125.305 40.049 196.182 40.049 1.261 0 2.521-.005 3.78-.014l-.193.001c1.026.008 2.239.012 3.453.012 70.876 0 138.312-14.732 199.412-41.3l-3.233 1.252c63.232-27.192 117.236-64.144 162.782-109.571l-.011.011c45.417-45.535 82.368-99.539 108.276-159.434l1.285-3.337c25.295-57.846 40.014-125.254 40.014-196.101 0-1.242-.005-2.483-.014-3.722l.001.19c.008-1.026.012-2.239.012-3.453 0-70.876-14.732-138.312-41.3-199.412l1.252 3.233c-27.192-63.232-64.144-117.236-109.571-162.782l.011.011c-45.535-45.417-99.539-82.368-159.434-108.276l-3.337-1.285C653.923 36.039 586.514 21.32 515.668 21.32c-1.253 0-2.506.005-3.757.014l.192-.001zm114.817 175.911c8.669-15.596 23.184-27.057 40.51-31.508l.448-.098c5.36-1.556 11.518-2.45 17.884-2.45 12.869 0 24.884 3.656 35.063 9.986l-.282-.164c15.596 8.669 27.057 23.184 31.508 40.51l.098.448c1.575 5.271 2.482 11.327 2.482 17.596 0 12.616-3.672 24.375-10.006 34.265l.153-.255c-8.669 15.596-23.184 27.057-40.51 31.508l-.448.098c-5.516 1.66-11.854 2.615-18.416 2.615-12.225 0-23.675-3.316-33.5-9.098l.31.169c-15.596-8.669-27.057-23.184-31.508-40.51l-.098-.448c-1.638-5.608-2.581-12.049-2.581-18.711 0-12.465 3.3-24.16 9.074-34.257l-.178.339zm-114.817 38.978l.741-.001c14.036 0 27.85.955 41.378 2.805l-1.572-.176c14.813 2.016 27.831 4.773 40.491 8.377l-2.025-.493c2.253 14.757 7.65 27.934 15.495 39.29l-.204-.313c8.383 12.149 19.133 22.059 31.648 29.241l.47.248c11.692 6.662 25.505 11.021 40.23 12.098l.318.019c2.26.197 4.89.309 7.546.309 11.867 0 23.209-2.243 33.628-6.328l-.626.216c24.931 24.345 45.597 52.922 60.861 84.591l.78 1.795c15.158 31.07 24.853 67.368 26.833 105.706l.028.681-96.932 1.058c-4.718-51.444-28.492-96.578-64.104-128.903l-.164-.147c-34.231-32.94-80.842-53.229-132.191-53.229-.936 0-1.87.007-2.802.02l.141-.002h-.077c-15.493 0-30.539 1.917-44.913 5.526l1.268-.27c-15.64 3.789-29.154 8.469-42.061 14.259l1.514-.607-47.408-85.328c17.95-9.182 38.833-16.959 60.685-22.258l1.98-.405c20.25-4.927 43.499-7.752 67.408-7.752.576 0 1.152.002 1.728.005h-.089zM164.375 601.8a64.44 64.44 0 01-1.026.008c-18.611 0-35.424-7.702-47.423-20.094l-.017-.018c-12.429-12.019-20.145-28.845-20.145-47.473 0-.349.003-.698.008-1.046l-.001.052c-.006-.334-.01-.728-.01-1.123 0-18.562 7.662-35.335 19.995-47.328l.015-.015c12.008-12.349 28.781-20.01 47.343-20.01.395 0 .789.003 1.182.01l-.059-.001c.218-.003.476-.004.734-.004 18.405 0 35.019 7.667 46.823 19.982l.022.023c12.349 12.008 20.01 28.781 20.01 47.343 0 .395-.003.789-.01 1.182l.001-.059c.006.334.01.728.01 1.123 0 18.562-7.662 35.335-19.995 47.328l-.015.015c-11.833 12.397-28.487 20.105-46.94 20.105l-.529-.002h.027zm60.037 6.314c10.502-9.188 19.15-20.19 25.515-32.56l.288-.615c6.302-11.963 10.001-26.142 10.001-41.185l-.001-.444v.023l.001-.421c0-15.043-3.699-29.222-10.237-41.678l.236.493c-6.654-12.985-15.302-23.987-25.676-33.066l-.127-.109c9.591-37.374 25.379-70.1 46.395-98.753l-.557.797c21.459-29.403 47.11-54.206 76.372-74.094l1.072-.687 49.49 84.27c-25.392 18.557-46.101 41.947-61.088 68.952l-.553 1.085c-14.909 26.393-23.694 57.954-23.694 91.567 0 .578.003 1.156.008 1.733l-.001-.088c-.005.509-.008 1.111-.008 1.713 0 33.53 8.588 65.054 23.684 92.493l-.502-.995c15.388 28.31 36.326 51.769 61.522 69.613l.631.424-49.524 84.304c-30.334-20.575-55.985-45.379-76.837-73.911l-.606-.87c-20.45-27.867-36.228-60.606-45.371-96.013l-.433-1.978zm496.163 285.472c-9.792 6.157-21.699 9.81-34.46 9.81a65.47 65.47 0 01-18.154-2.551l.462.114c-17.848-4.795-32.476-16.165-41.432-31.289l-.173-.317c-5.599-9.762-8.902-21.46-8.902-33.93 0-6.67.945-13.12 2.708-19.222l-.121.488c4.549-17.774 16.009-32.288 31.277-40.789l.329-.168c9.515-5.613 20.965-8.93 33.19-8.93 6.562 0 12.9.955 18.884 2.735l-.468-.119c17.774 4.549 32.288 16.009 40.789 31.277l.168.329c6.182 9.636 9.854 21.394 9.854 34.011 0 6.268-.907 12.325-2.596 18.046l.114-.45c-4.517 17.753-15.927 32.262-31.143 40.789l-.326.168zm-1.058-148.538c-9.792-3.869-21.135-6.112-33.001-6.112-2.656 0-5.286.112-7.885.333l.339-.023c-15.03 1.101-28.831 5.46-40.994 12.368l.481-.251c-12.985 7.43-23.734 17.34-31.907 29.168l-.21.322c-7.64 11.044-13.038 24.221-15.225 38.456l-.066.522c-10.635 3.111-23.652 5.868-36.96 7.713l-1.505.171c-11.959 1.674-25.774 2.629-39.813 2.629l-.775-.001h.04l-1.034.002c-24.115 0-47.559-2.875-70.007-8.3l2.028.414c-23.831-5.704-44.715-13.481-64.315-23.422l1.65.759 47.408-85.328c11.393 5.183 24.907 9.863 38.906 13.31l1.642.342c13.107 3.34 28.154 5.256 43.649 5.256h.077-.004c.791.012 1.725.019 2.661.019 51.349 0 97.959-20.289 132.252-53.287l-.061.058c35.805-32.503 59.586-77.691 64.212-128.415l.057-.771 96.932 1.058c-2.008 39.018-11.703 75.316-27.59 108.051l.729-1.665c-16.042 33.56-36.734 62.218-61.652 86.569l-.057.056z"/></svg>