<svg width="64" height="64" viewBox="0 0 1024 1024" xmlns="http://www.w3.org/2000/svg"><path d="M512 21.333c-282.77 0-512 229.23-512 512s229.23 512 512 512 512-229.23 512-512-229.23-512-512-512zm0 78.78c238.733.3 432.148 193.9 432.148 432.674 0 238.959-193.715 432.674-432.674 432.674S78.8 771.746 78.8 532.787c0-119.475 48.425-227.639 126.717-305.937C283.9 148.542 392.144 100.113 511.7 100.113h.317-.016zm0 118.169c-187.392 33.041-354.475 205.824-354.475 393.83 91.682-161.86 152.917-173.534 169.847-173.534s25.839 8.772 25.839 28.297v241.22c0 30.003-58.3 25.088-77.551 22.153 71.27 106.018 236.339 118.17 236.339 118.17l78.78-78.78 78.78 39.39c124.314-56.934 196.915-178.756 196.915-196.915-29.923 37.052-70.239 64.619-116.503 78.355l-1.666.424c-10.445 0-39.39-5.393-39.39-19.695V385.638c0-24.781 57.242-100.454 78.78-128-142.165 37.239-183.398 102.161-183.398 102.161s-10.786-23.381-52.907-23.381c21.368 20.173 35.769 47.525 39.333 78.183l.056.596v241.22c-22.395 15.914-48.81 27.866-77.346 34.174l-1.434.266c-27.307 0-40.619-11.093-40.619-31.983s1.229-283.068 1.229-283.068-39.39 14.473-39.39-66.458c0-40.482 78.78-91.102 78.78-91.102z"/></svg>