<svg width="64" height="64" viewBox="0 0 971 971" xmlns="http://www.w3.org/2000/svg"><path d="M861.454 68.043c-25.381-23.244-128.198-97.994-357.207-98.998 0 0-270.22-16.187-401.817 104.598C29.202 146.871 3.562 254.059.616 387.081S-5.6 769.313 234.643 837.07h.194l-.194 103.206s-1.586 41.794 25.899 50.211c33.215 10.392 52.801-21.399 84.591-55.617 17.417-18.809 41.405-46.391 59.599-67.401 25.584 2.502 55.306 3.928 85.362 3.928 77.969 0 153.696-9.601 226.062-27.685l-6.403 1.355c33.215-10.813 221.013-34.801 251.411-284.011 31.726-257.271-15.086-419.59-99.71-493.013zm27.808 474.236c-25.899 207.998-178.053 221.207-206.024 230.207-61.107 15.518-131.258 24.424-203.489 24.424-20.735 0-41.299-.734-61.666-2.177l2.737.156S316.805 920.303 284.399 952.903c-10.586 10.586-22.208 9.712-22.014-11.395 0-13.791.809-171.417.809-171.417C59.793 713.697 71.576 501.393 73.972 390.482s23.212-202.009 85.207-263.227C270.64 26.25 500.038 41.239 500.038 41.239c193.819.809 286.633 59.211 308.226 78.797 71.416 61.218 107.803 207.642 80.998 422.245zM611.435 380.672c.009.179.014.388.014.599 0 7.159-5.804 12.963-12.963 12.963-6.949 0-12.62-5.467-12.948-12.335l-.001-.029c.188-1.808.295-3.907.295-6.031 0-34.167-27.698-61.865-61.865-61.865-1.277 0-2.544.039-3.802.115l.173-.008c-6.856-.38-12.272-6.032-12.272-12.949 0-7.162 5.806-12.968 12.968-12.968.245 0 .488.007.73.02l-.034-.001c.874-.031 1.9-.049 2.931-.049 48.024 0 86.955 38.931 86.955 86.955 0 1.965-.065 3.915-.194 5.848l.014-.262zm40.596 22.661c2.007-84.818-50.988-151.216-151.604-158.629-6.768-.488-12.075-6.099-12.075-12.949 0-7.169 5.812-12.981 12.981-12.981.319 0 .635.012.948.034l-.042-.002.73-.002c96.745 0 175.172 78.427 175.172 175.172 0 3.462-.1 6.902-.299 10.314l.022-.471c-.172 7.02-5.904 12.645-12.949 12.645-7.154 0-12.953-5.799-12.953-12.953 0-.108.001-.216.004-.323v.016zm93.882 26.805v.097c0 7.152-5.798 12.95-12.95 12.95-7.118 0-12.894-5.743-12.949-12.847v-.005c-1.004-163.064-109.778-251.864-241.57-252.803-7.152 0-12.949-5.798-12.949-12.949s5.798-12.949 12.949-12.949c147.59 1.036 266.206 102.85 267.403 278.41zm-22.402 196.215v.388c-21.593 38.006-61.995 79.994-103.595 66.592l-.388-.615c-78.15-29.17-145.74-67.334-206.136-114.311l1.731 1.295c-31.702-25.275-59.542-53.115-84.007-83.766l-.811-1.052c-21.714-27.213-42.089-57.701-59.816-89.853l-1.693-3.35c-19.515-31.843-37.13-68.616-50.888-107.221l-1.298-4.176c-13.403-41.6 28.391-82.002 66.592-103.595h.388c5.529-3.562 12.281-5.678 19.528-5.678 11.389 0 21.557 5.228 28.235 13.414l.052.066s24.798 29.589 35.416 44.19c10.003 13.597 23.406 35.416 30.399 47.589 4.001 6.292 6.376 13.958 6.376 22.179 0 12.288-5.307 23.336-13.754 30.978l-.036.032-23.989 19.197c-6.598 6.404-10.693 15.355-10.693 25.263 0 .964.039 1.919.115 2.864l-.008-.124c24.711 81.214 87.386 143.889 166.826 168.134l1.774.466c.82.068 1.776.107 2.74.107 9.908 0 18.859-4.095 25.255-10.684l.008-.009 19.197-23.989c7.674-8.483 18.722-13.79 31.01-13.79a41.568 41.568 0 0122.35 6.477l-.17-.101c34.683 19.738 64.669 41.485 92.021 66.101l-.47-.416c8.172 6.581 13.356 16.585 13.356 27.8a35.452 35.452 0 01-5.831 19.535l.083-.135z"/></svg>