<svg width="64" height="64" viewBox="0 0 1184 1184" xmlns="http://www.w3.org/2000/svg"><path d="M1183.027 418.594q-7.27 171.588-241.391 473.361-242.142 313.378-408.644 313.378-103.253 0-174.524-191.147-31.983-116.326-95.983-350.481-52.361-190.498-114.142-190.498c-35.323 14.783-65.784 33.348-92.954 55.761l.623-.499L-.001 457.13q17.442-15.258 78.507-70.178t94.515-83.968q113.425-100.352 175.241-106.155c5.409-.828 11.649-1.301 17.999-1.301 36.983 0 70.22 16.035 93.139 41.531l.102.115c31.747 40.944 52.964 91.528 58.772 146.704l.108 1.264q31.983 208.691 47.991 271.223 40.004 180.907 87.245 180.907 37.069 0 111.991-117.077c37.008-50.647 64.566-110.694 78.692-175.75l.566-3.109q9.455-101.069-79.258-101.069c-31.925.601-62.084 7.499-89.502 19.497l1.506-.588q87.245-285.764 333.756-277.743 182.545 5.939 171.657 237.158z"/></svg>