<svg width="64" height="64" viewBox="0 0 898 898" xmlns="http://www.w3.org/2000/svg"><path d="M897.684 405.61c-20.95 5.505-45.002 8.666-69.792 8.666-29.295 0-57.559-4.414-84.163-12.613l2.022.536c-46.724-14.661-85.158-44.382-110.555-83.371l-.478-.783c-25.764-40.387-41.064-89.622-41.064-142.43 0-2.934.047-5.858.141-8.769l-.011.425a152.439 152.439 0 01-.275-9.31c0-28.36 7.478-54.974 20.57-77.976l-.408.779c10.315-18.143 29.448-30.222 51.416-30.393h.024c.348-.008.757-.012 1.168-.012 20.466 0 38.319 11.188 47.777 27.782l.142.271c11.195 20.52 17.778 44.945 17.778 70.908 0 3.016-.089 6.011-.264 8.982l.019-.41c-.791 41.157-7.569 80.448-19.496 117.427l.803-2.88c12.787 20.262 32.341 35.26 55.428 41.924l.686.169c18.028 5.94 38.778 9.366 60.328 9.366.977 0 1.952-.007 2.926-.021l-.147.002 30.394-4.673c21.592-48.189 34.435-104.382 35.065-163.505l.002-.231c.466-6.22.732-13.474.732-20.789 0-58.141-16.793-112.36-45.792-158.071l.715 1.206c-38.526-50.343-98.639-82.487-166.259-82.487-5.655 0-11.257.225-16.799.666l.731-.047a208.12 208.12 0 00-9.417-.205c-65.859 0-124.842 29.438-164.508 75.873l-.249.299c-40.156 48.933-64.497 112.18-64.497 181.112 0 3.726.071 7.436.212 11.128l-.016-.532c-.039 2.15-.062 4.687-.062 7.228 0 73.134 18.632 141.916 51.409 201.858l-1.101-2.198c31.289 58.275 78.094 104.717 134.924 134.712l1.762.848c-47.806 96.315-107.187 178.862-177.781 250.304l.093-.094c-62.666-77.618-116.712-166.159-158.365-261.36l-2.915-7.475c-52.732-127.873-90.004-276.09-104.717-430.884l-.483-6.292H.003c20.372 180.946 63.211 346.205 126.096 501.19l-4.522-12.608c38.737 101.214 90.033 188.606 153.27 265.844l-1.336-1.683c30.912 39.332 67.213 72.66 108.163 99.476l1.711 1.052c14.643 9.896 32.692 15.797 52.119 15.797 17.882 0 34.596-5 48.821-13.678l-.413.234c29.907-20.26 55.948-42.586 79.236-67.516l.244-.264A1113.925 1113.925 0 00671.119 712.6l2.147-3.053c37.477-48.871 71.723-104.08 100.299-162.567l2.548-5.775c43.221-.238 85.128-5.335 125.365-14.769l-3.791.749z"/></svg>