<svg width="64" height="64" viewBox="0 0 1024 1024" xmlns="http://www.w3.org/2000/svg"><path d="M1000.789 268.117c-11.524 36.232-27.04 67.75-46.492 96.377l.822-1.282q-28.672 47.787-68.471 110.421-34.133 49.459-36.147 51.2a54.427 54.427 0 00-11.401 26.366l-.034.292c1.165 9.034 5.32 16.932 11.423 22.824l.011.011 17.067 19.046q136.943 140.766 154.078 194.048c1.493 3.914 2.357 8.44 2.357 13.167a37.788 37.788 0 01-7.144 22.17l.077-.112c-7.513 7.727-18.008 12.522-29.623 12.522-1.3 0-2.585-.06-3.854-.177l.163.012H871.154a60.235 60.235 0 01-37.972-13.402l.115.09c-15.122-12.417-28.543-25.838-40.559-40.457l-.401-.503q-29.491-33.314-52.292-56.115-76.049-72.294-112.23-72.294a32.345 32.345 0 00-2.984-.133 33.361 33.361 0 00-19.008 5.907l.112-.073c-4.43 5.564-7.108 12.694-7.108 20.45 0 1.515.102 3.006.3 4.467l-.019-.17c-1.164 13.389-1.828 28.969-1.828 44.705 0 5.068.069 10.121.206 15.156l-.016-.742v49.459c.426 2 .67 4.297.67 6.652 0 10.32-4.688 19.545-12.05 25.662l-.055.044c-16.51 7.572-35.817 11.987-56.155 11.987-4.336 0-8.626-.201-12.859-.593l.543.041c-67.143-1.299-129.438-20.949-182.4-54.121l1.494.873c-64.485-39.153-117.888-90.148-158.607-150.416l-1.137-1.785c-38.642-51.282-74.697-109.243-105.442-170.336l-3-6.578c-17.966-34.238-36.558-76.28-52.597-119.56l-2.562-7.894C6.774 305.878 2.055 283.251.075 259.845l-.074-1.082q0-32.358 38.059-32.358h112.23a43.874 43.874 0 013.438-.131 45.13 45.13 0 0128.06 9.727l-.096-.073a76.96 76.96 0 0117.981 33.604l.11.53c20.642 58.337 42.521 107.304 67.721 154.222l-2.868-5.844c20.582 41.397 43.292 77.009 69.266 109.926l-1-1.314q34.133 41.882 53.248 41.882c.404.034.874.053 1.349.053 6.319 0 11.836-3.434 14.786-8.539l.044-.082c3.15-8.12 4.975-17.517 4.975-27.341 0-2.102-.084-4.185-.248-6.245l.017.272V361.539c-.876-19.511-5.694-37.697-13.67-54.061l.358.813c-5.29-11.269-11.655-20.975-19.179-29.648l.133.157c-6.99-6.983-11.79-16.157-13.282-26.404l-.03-.254c.01-7.271 3.327-13.764 8.528-18.059l.04-.032a29.025 29.025 0 0119.644-7.614l.341.002h176.896a26.33 26.33 0 013.128-.181c8.321 0 15.766 3.755 20.731 9.663l.034.041c4.411 8.033 7.006 17.603 7.006 27.778 0 1.612-.065 3.209-.193 4.788l.014-.208v220.706a40.348 40.348 0 00-.141 3.431 41.617 41.617 0 005.947 21.505l-.105-.189c3.103 4.616 8.306 7.612 14.208 7.612h.063-.003c7.502-.532 14.333-3.007 20.112-6.919l-.144.092c11.595-7.973 21.606-17.073 30.261-27.353l.186-.227c25.906-29.256 49.773-61.618 70.621-96.014l1.673-2.973c14.684-24.327 30.55-54.268 44.922-85.046l2.626-6.261 19.046-38.059c6.599-19.011 24.357-32.414 45.246-32.414.809 0 1.614.02 2.414.06l-.112-.004h112.265q45.5 0 34.133 41.847z"/></svg>