<svg width="64" height="64" viewBox="0 0 922 922" xmlns="http://www.w3.org/2000/svg"><path d="M893.952 708.666L479.471 943.333V760.481l258.048-142.234zm28.433-25.395v-491.52l-151.381 88.371v314.914l151.381 87.381zM28.433 708.666l414.481 234.667V760.481L184.866 618.247zM0 683.271v-491.52l151.381 88.371v314.914zM17.271 160.11L442.914-80.667V96.11L168.619 247.491zm887.877 0L479.505-80.667V96.11l274.261 151.381zM442.914 718.838L188.109 578.584V300.227l254.976 147.285zm36.557 0l254.976-140.186V300.295L479.471 447.58zM205.175 268.79l256-141.21 256 141.21-256 147.319z"/></svg>