<svg width="64" height="64" viewBox="0 0 1024 1024" xmlns="http://www.w3.org/2000/svg"><path d="M198.4 846.976h627.2V219.733H198.4zm294.4-73.643H252.843v-40.32h240zm176-482.133c36.884.393 70.706 13.183 97.576 34.391l-.339-.258-29.867 44.8c-18.345-14.737-41.528-24.15-66.846-25.586l-.311-.014c-21.333 0-34.133 9.6-34.133 24.32 0 17.067 11.563 23.68 56.277 34.56 52.523 14.72 83.243 34.133 83.243 80-.278 46.446-37.994 83.989-84.479 83.989a85.16 85.16 0 01-11.971-.842l.449.052c-42.899-1.52-81.801-17.469-112.281-43.11l.281.23 33.237-41.643c20.793 18.995 48.287 30.965 78.557 31.994l.205.006c23.68 0 38.4-9.6 38.4-25.6 0-14.763-9.685-22.4-52.48-34.133-53.163-14.08-87.04-28.843-87.04-81.067v-1.877c1.101-44.694 37.594-80.505 82.451-80.505 3.21 0 6.377.183 9.492.54l-.38-.035zm-368 5.12l40.277 153.6 44.8-153.6h45.056l44.843 153.6 39.637-153.6h62.763l-76.8 265.6H451.2l-42.667-153.6-43.52 153.6h-49.28L238.72 296.533zm723.2 71.893l-81.877-202.88L890.88 42.666 652.8 21.333l-37.12 35.84-47.36-17.92-150.187 80.213L256 23.253 0 128.213l137.6 817.963 566.4 99.157 35.84-181.76 6.4-3.883H185.6V206.933h652.8v598.4L1024 695.466l-112-209.92z"/></svg>