<svg width="64" height="64" viewBox="0 0 1024 1024" xmlns="http://www.w3.org/2000/svg"><path d="M115.405 685.704L4.642 372.189C1.951 365.034.273 356.766.003 348.142l-.003-.12c.368-24.224 20.092-43.72 44.369-43.72.566 0 1.129.011 1.69.032l-.081-.002h515.413c.183-.003.398-.004.614-.004 24.157 0 43.742 19.575 43.759 43.728v.002c-.391 7.676-1.761 14.891-3.989 21.717l.166-.588-112.128 316.518c-5.917 23.928-26.943 41.484-52.162 42.051l-.062.001h-3.209l-.427.002c-24.695 0-45.407-17.051-51.006-40.022l-.074-.359-49.732-151.552c-4.107-12.61-15.757-21.562-29.498-21.562-.43 0-.857.009-1.283.026l.061-.002c-.29-.009-.631-.015-.973-.015-13.89 0-25.699 8.912-30.021 21.33l-.068.223-49.801 151.586c-5.58 23.315-26.242 40.38-50.89 40.38h-3.007c-25.473-.05-46.773-17.853-52.189-41.693l-.069-.359zm862.652-71.168c-2.246-.445-4.829-.7-7.471-.7a40.05 40.05 0 00-21.402 6.157l.167-.098c-25.819 16.661-57.244 26.765-90.993 27.305l-.143.002c-1.668.082-3.623.129-5.589.129-63.422 0-115.457-48.752-120.675-110.824l-.03-.443c36.798 14.471 79.414 22.86 123.99 22.86 7.006 0 13.964-.207 20.868-.616l-.952.045c.708.007 1.544.012 2.381.012 42.864 0 83.114-11.191 117.987-30.811l-1.209.625c18.04-12.18 29.746-32.55 29.746-55.653 0-6.373-.891-12.537-2.554-18.376l.115.472c-8.24-90.279-83.577-160.453-175.304-160.453-3.171 0-6.323.084-9.453.25l.437-.018a201.933 201.933 0 00-6.687-.107c-114.993 0-208.213 93.22-208.213 208.213 0 4.577.148 9.12.439 13.624l-.032-.614a206.496 206.496 0 00-.059 5.054c0 119.536 96.903 216.439 216.439 216.439 3.839 0 7.654-.1 11.444-.297l-.53.022c53.266-.153 102.826-15.889 144.396-42.888l-1.036.631c9.891-6.985 16.859-17.542 19.039-29.757l.041-.28c.49-2.416.771-5.193.771-8.036 0-21.068-15.418-38.535-35.586-41.733l-.24-.031z"/></svg>