<svg width="64" height="64" viewBox="0 0 1016 1016" xmlns="http://www.w3.org/2000/svg"><path d="M651.571 576.943c24.645 7.894 45.997 17.767 65.84 29.868l-1.328-.753c22.588 10.047 42.05 21.771 59.845 35.544l-.658-.49c.863 2.584 1.36 5.56 1.36 8.652 0 .451-.011.899-.031 1.344l.002-.063c-.639 18.303-4.708 35.493-11.58 51.174l.35-.896c-9.874 19.745-26.301 34.988-46.372 43.102l-.595.213c-19.587 10.38-42.704 16.781-67.242 17.539l-.239.006c-46.924-6.227-89.358-20.667-127.499-41.89l1.82.93c-43.6-19.977-80.841-46.208-112.448-78.041l-.022-.022c-35.146-36.583-67.358-76.568-95.906-119.213l-1.988-3.155c-27.145-35.38-44.399-79.623-46.943-127.767l-.024-.574v-5.291c1.383-41.617 19.954-78.64 48.804-104.391l.143-.126c8.844-8.791 20.959-14.3 34.361-14.54l.046-.001c4.319.116 8.437.472 12.479 1.057l-.567-.067c3.693.541 8.039.898 12.45.988l.111.002a26.502 26.502 0 012.637-.128 27.18 27.18 0 0115.01 4.492l-.103-.063a47.66 47.66 0 0110.15 17.855l.09.339q5.291 13.244 21.845 58.197c5.74 13.416 11.387 29.926 15.908 46.895l.612 2.7c-3.258 15.385-11.414 28.49-22.728 37.938l-.107.087q-22.835 24.132-22.835 30.72a18.841 18.841 0 003.453 9.991l-.039-.059c17.278 35.362 39.927 65.407 67.257 90.421l.225.203c28.805 25.988 61.679 48.289 97.376 65.699l2.498 1.1c4.12 2.689 9.109 4.385 14.474 4.64l.066.003q9.933 0 35.738-32.085t34.304-32.085zm-134.28 350.583l.927.001c57.895 0 112.948-12.171 162.739-34.094l-2.59 1.017c100.509-42.405 178.882-120.778 220.278-218.603l1.008-2.683c20.907-47.493 33.076-102.863 33.076-161.075s-12.169-113.582-34.102-163.705l1.026 2.63C857.248 250.505 778.875 172.132 681.05 130.736l-2.683-1.008c-47.493-20.907-102.863-33.076-161.075-33.076s-113.582 12.169-163.705 34.102l2.63-1.026c-100.509 42.405-178.882 120.778-220.278 218.603l-1.008 2.683c-20.905 47.658-33.071 103.206-33.071 161.595 0 91.367 29.789 175.776 80.183 244.045l-.794-1.126-52.258 154.146 160.085-50.927c63.554 43.084 141.942 68.783 226.332 68.783.662 0 1.324-.002 1.986-.005h-.102zm0-914.193l1.388-.002c69.453 0 135.494 14.608 195.219 40.919l-3.105-1.22c120.52 51.07 214.522 145.072 264.374 262.367l1.218 3.225c25.085 57.054 39.684 123.565 39.684 193.485s-14.6 136.431-40.917 196.65l1.233-3.165c-51.07 120.52-145.072 214.522-262.367 264.374l-3.225 1.218c-56.62 25.091-122.661 39.699-192.114 39.699l-1.464-.002h.076c-.668.003-1.458.005-2.248.005-87.846 0-170.306-23.064-241.652-63.468l2.441 1.272L.001 1037.334l89.975-267.913c-44.863-73.12-71.434-161.66-71.434-256.406 0-70.231 14.6-137.053 40.931-197.595l-1.24 3.202C109.303 198.102 203.305 104.1 320.6 54.248l3.225-1.218c56.619-25.091 122.661-39.699 192.114-39.699l1.428.002h-.074z"/></svg>