<svg width="64" height="64" viewBox="0 0 1446 1446" xmlns="http://www.w3.org/2000/svg"><path d="M1249.894 774.631c-24.419.692-43.951 20.653-43.951 45.175s19.532 44.483 43.887 45.174l.064.001c24.419-.692 43.951-20.653 43.951-45.175s-19.532-44.483-43.887-45.174l-.064-.001zm-45.192 316.245c-.011.37-.017.805-.017 1.242 0 24.959 20.233 45.193 45.193 45.193s45.193-20.233 45.193-45.193c0-.437-.006-.872-.018-1.306l.001.064V940.28c.011-.37.017-.805.017-1.242 0-24.959-20.233-45.193-45.193-45.193s-45.193 20.233-45.193 45.193c0 .437.006.872.018 1.306l-.001-.064zm-105.404-316.245c24.419.692 43.951 20.653 43.951 45.175s-19.532 44.483-43.887 45.174l-.064.001H933.649v60.245h105.404c24.419.692 43.951 20.653 43.951 45.175s-19.532 44.483-43.887 45.174l-.064.001H933.649v75.298c.011.37.017.805.017 1.242 0 24.959-20.233 45.193-45.193 45.193s-45.193-20.233-45.193-45.193c0-.437.006-.872.018-1.306l-.001.064V819.787v-.205c0-24.846 20.142-44.988 44.988-44.988l.216.001h-.011zm346.351 90.351v180.702c-.019 133.064-107.884 240.928-240.945 240.947h-90.353c-94.951 110.875-235.085 180.694-391.526 180.694s-296.575-69.818-390.942-179.995l-.584-.698h-90.351C107.884 1286.613.02 1178.748.001 1045.687V864.983C.02 731.919 107.885 624.055 240.946 624.036h90.353c94.951-110.875 235.085-180.694 391.526-180.694s296.575 69.818 390.942 179.995l.584.698h90.351c133.064.019 240.928 107.884 240.947 240.945v.002zm-828.245-90.351c-24.419.692-43.951 20.653-43.951 45.175s19.532 44.483 43.887 45.174l.064.001c24.419-.692 43.951-20.653 43.951-45.175s-19.532-44.483-43.887-45.174l-.064-.001zm-45.193 316.245c.692 24.419 20.653 43.951 45.175 43.951s44.483-19.532 45.174-43.887l.001-.064V940.28c-.692-24.419-20.653-43.951-45.175-43.951s-44.483 19.532-45.174 43.887l-.001.064zm-135.543 5.018l70.281-256c2.885-5.81 4.573-12.652 4.573-19.889 0-25.148-20.386-45.534-45.534-45.534-21.525 0-39.561 14.935-44.311 35.008l-.062.309-30.106 110.421-30.106-110.421c-5.906-19.723-23.891-33.851-45.175-33.851s-39.27 14.128-45.09 33.517l-.086.333-30.106 110.421-30.106-110.421c-5.287-19.64-22.936-33.859-43.906-33.859-25.072 0-45.397 20.325-45.397 45.397a45.223 45.223 0 004.087 18.851l-.116-.284 70.281 256c3.053 22.468 22.113 39.6 45.175 39.6s42.123-17.132 45.149-39.364l.026-.236 30.106-105.404 30.106 105.404c2.182 23.216 21.574 41.24 45.175 41.24s42.994-18.025 45.162-41.059l.014-.181zm768-411.614H888.457l-.582-.001c-74.538 0-134.963 60.425-134.963 134.963l.001.613v-.031 271.053c.002.243.002.531.002.819 0 71.22-55.124 129.566-125.034 134.699l-.443.026h577.263l.753.002c99.384 0 179.951-80.567 179.951-179.951l-.002-.793v.041-180.736l.002-.753c0-99.384-80.567-179.951-179.951-179.951l-.793.002h.041z"/></svg>