<svg width="64" height="64" viewBox="0 0 1024 1024" xmlns="http://www.w3.org/2000/svg"><path d="M663.962 852.411L532.958 543.573q-11.025 21.777-70.485 135.782t-88.235 173.09c-2.17.248-4.686.389-7.234.389-1.754 0-3.493-.067-5.214-.199l.229.014a59.51 59.51 0 01-12.114-.694l.339.045q-36.454-85.777-113.562-260.881T121.311 326.21c-8.242-18.247-18.131-33.975-29.843-48.14l.283.353c-13.433-16.909-28.563-31.595-45.374-44.156l-.638-.456A79.726 79.726 0 00.72 214.719l-.31-.023q0-2.219-.205-10.65T0 191.997h259.106v22.221c-12.842.766-24.847 3.305-36.117 7.381l.891-.282c-11.73 3.918-21.683 10.503-29.512 19.062l-.048.053a24.163 24.163 0 00-7.163 17.201c0 4.106 1.021 7.974 2.823 11.363l-.064-.131q11.571 26.214 96.222 221.867t104.653 240.06q13.653-27.102 62.225-118.443t58.197-109.978q-8.431-17.34-56.013-124.86t-60.416-131.106q-16.896-30.72-89.327-31.573v-22.323l227.977.444v20.89a75.98 75.98 0 00-1.725-.019c-14.718 0-28.476 4.107-40.192 11.238l.342-.193q-14.882 10.24-5.564 30.72 14.677 31.13 38.673 84.207t38.195 83.319q48.879-95.095 76.868-161.314 10.65-24.439-4.403-35.226c-14.5-7.579-31.672-12.026-49.882-12.026-2.602 0-5.182.091-7.738.269l.345-.019c.294-2.763.462-5.968.462-9.212 0-.637-.006-1.273-.019-1.908l.002.095v-10.65q28.433 0 75.776-.205l120.934-.649v21.777c-19.51.699-37.625 6.055-53.46 14.982l.587-.304c-16.302 8.646-29.737 20.716-39.727 35.327l-.243.376-94.686 196.437q5.769 14.677 56.661 128.887t53.999 121.754l195.994-451.959c-4.377-11.577-12.025-21.085-21.81-27.654l-.206-.13c-8.235-6.11-17.871-10.909-28.289-13.845l-.622-.15c-7.274-1.819-15.736-3.042-24.42-3.405l-.259-.009v-22.357l204.459 1.775.444.887-.444 19.558c-41.174.599-76.024 27.024-89.118 63.773l-.209.671Q700.277 819.06 685.668 852.408z"/></svg>