<svg width="64" height="64" viewBox="0 0 1024 1024" xmlns="http://www.w3.org/2000/svg"><path d="M146.671 601.804c3.106-11.981 6.349-23.893 9.455-35.942 12.117-46.217 24.098-92.604 36.489-138.82 4.499-18.848 11.042-35.438 19.563-50.779l-.516 1.013c9.182-15.816 24.895-26.975 43.351-29.824l.34-.043c4.328-.968 9.299-1.523 14.4-1.523 19.909 0 37.844 8.451 50.414 21.961l.039.042a68.025 68.025 0 0113.241 23.206l.139.482c7.89 20.99 16.092 48.014 22.809 75.62l1.085 5.276q16.691 63.215 33.553 126.566c.273.99 0 2.116 1.399 2.97 2.389-9.455 4.949-18.876 7.339-28.194q21.777-84.787 43.418-169.404a2693.424 2693.424 0 018.158-31.71c2.102-7.876 5.298-14.777 9.473-20.963l-.155.244c6.34-9.425 16.21-16.059 27.674-18.021l.248-.035c13.376-2.766 28.771-4.379 44.533-4.437h.045c3.106 0 3.652.717 2.97 3.652q-19.866 75.913-39.595 151.791-29.184 112.265-58.505 224.393c-1.98 7.339-3.789 14.814-5.769 22.118-.41 1.399-.58 2.662-2.526 2.833-2.99.286-6.464.449-9.977.449a111.188 111.188 0 01-32.248-4.749l.787.205c-5.19-1.828-9.62-4.675-13.241-8.326l-.002-.002a186.638 186.638 0 01-14.293-14.967l-.214-.256c-4.809-7.218-9.033-15.498-12.26-24.26l-.267-.828c-11.328-27.257-21.562-59.859-28.988-93.514l-.742-4.005c-11.981-47.787-24.235-95.573-36.352-143.36-.748-3.008-2.008-5.644-3.696-7.948l.044.063c-1.843-3.301-5.315-5.497-9.3-5.497l-.199.002h.01a11.94 11.94 0 00-10.216 8.074l-.024.084c-4.096 12.971-7.031 26.214-10.581 39.322-14.234 54.955-28.058 110.08-42.701 164.898-4.369 16.35-11.571 31.71-17.067 47.787-5.889 15.388-15.764 28.143-28.374 37.386l-.23.161c-5.75 4.421-12.818 7.408-20.522 8.31l-.196.019c-6.588.882-14.203 1.385-21.937 1.385-2.297 0-4.583-.044-6.858-.132l.327.01c-2.526 0-3.413-.99-4.233-3.413q-20.48-77.79-41.301-155.443-26.931-101.717-54.204-203.81L.513 333.453c-.273-1.297-1.365-3.106 1.297-3.379 4.474-.631 9.641-.991 14.893-.991 17.032 0 33.179 3.787 47.646 10.565l-.689-.29c10.005 5.207 17.499 14.079 20.778 24.794l.077.294c7.339 23.893 12.834 48.06 19.012 72.158q21.129 81.613 41.984 163.226c.127.745.329 1.409.602 2.036l-.022-.056zm507.972 133.735c4.233-6.349 8.021-11.981 11.844-17.749q61.44-91.546 122.88-182.955a3.394 3.394 0 00.782-2.174c0-.97-.404-1.845-1.054-2.467l-.001-.001q-50.961-75.674-101.751-151.381l-30.72-46.217c-.41-.717-1.399-1.399-1.126-2.833l20.855 1.263c12.971.853 25.668 1.707 38.468 2.389 10.428 1.272 19.69 5.484 27.145 11.771l-.077-.064c6.73 5.134 12.397 11.247 16.897 18.187l.17.279c22.118 33.553 43.964 67.243 66.935 100.079 10.24 14.507 14.643 13.107 25.498 2.389 5.386-6.372 10.335-13.475 14.593-21.021l.357-.688c19.012-28.331 37.786-56.934 57.207-84.992 10.783-15.095 27.394-25.431 46.479-27.719l.318-.031c11.73-1.31 25.329-2.058 39.103-2.058 4.446 0 8.874.078 13.282.232l-.64-.018c3.413 0 1.263 1.843.58 2.833-9.455 14.097-18.876 28.194-28.467 42.291q-52.053 77.756-104.038 154.999a4.278 4.278 0 00-.98 2.734c0 1.185.479 2.257 1.254 3.035q65.946 98.099 131.789 196.198c.58.99 1.98 1.98 1.536 2.97s-2.389.58-3.413.58c-3.785.131-8.234.205-12.701.205-12.497 0-24.858-.583-37.057-1.722l1.561.118c-18.086-2.262-33.875-10.686-45.497-23.068l-.037-.04c-5.673-6.821-10.947-14.423-15.533-22.468l-.407-.776c-18.466-27.614-36.796-55.262-55.262-83.012-2.894-4.518-6.563-8.274-10.857-11.178l-.134-.086c-1.411-1.281-3.294-2.065-5.359-2.065s-3.948.784-5.366 2.071l.007-.006a30.981 30.981 0 00-7.816 7.915l-.069.107c-23.245 33.246-44.817 67.652-67.379 101.478-10.694 15.796-27.268 26.919-46.513 30.25l-.421.06c-9.142 1.558-19.672 2.449-30.411 2.449-3.038 0-6.059-.071-9.063-.212l.425.016zm-30.037-340.514v5.495q0 140.39.273 280.747c.017.497.027 1.081.027 1.668 0 19.22-10.591 35.967-26.255 44.723l-.259.133c-5.469 3.503-11.987 5.869-18.99 6.605l-.192.016c-6.469.72-13.97 1.13-21.566 1.13-.446 0-.892-.001-1.338-.004h.069c-4.642 0-4.642 0-4.642-4.506 0-50.586 0-101.205-.273-151.791 0-42.564-.41-84.992 0-127.556a22.683 22.683 0 0111.459-18.681l.112-.059c6.212-4.096 13.107-6.827 19.593-10.445 12.968-6.268 24.008-12.835 34.423-20.223l-.734.494c2.389-2.253 4.915-4.779 8.294-7.748zm-73.694 18.056a137.083 137.083 0 014.444-36.486l-.212.953c3.844-13.901 11.786-25.594 22.427-34.03l.135-.103c9.856-6.865 21.748-11.506 34.609-12.94l.344-.031c3.789-.717 7.612-.99 11.401-1.536 3.106-.58 3.959 1.126 4.096 3.789a81.603 81.603 0 01-1.341 16.987l.077-.501c-2.825 17.202-10.687 32.21-22 43.846l.018-.019a62.705 62.705 0 01-22.939 13.83l-.442.13c-9.902 3.626-18.472 8.234-26.252 13.868l.311-.214c-1.126.853-2.389 2.526-3.959 1.707s-.717-2.833-.853-4.233.137-3.482.137-5.018z"/></svg>