<svg width="64" height="64" viewBox="0 0 1024 1024" xmlns="http://www.w3.org/2000/svg"><path d="M0 533.333l-.001-.744c0-75.232 16.434-146.625 45.908-210.786l-1.295 3.146 244.361 669.013c-87.259-42.564-158.414-106.456-208.527-185.068l-1.222-2.051C29.538 730.742-.017 637.57-.017 537.495c0-1.464.006-2.926.019-4.386l-.002.224zm857.566-25.975c-.012 9.05-.62 17.946-1.785 26.665l.113-1.031c-1.947 13.014-4.328 24.161-7.314 35.059l.487-2.086q-4.983 19.968-7.646 29.286t-11.537 39.287q-8.977 29.969-11.639 38.605l-50.586 170.428-185.071-549.922q30.72-2.014 58.607-5.325a19.652 19.652 0 0017.258-12.191l.047-.131c1.228-2.571 1.945-5.588 1.945-8.772 0-4.374-1.353-8.431-3.663-11.777l.045.069c-3.575-5.515-9.701-9.113-16.666-9.113-.815 0-1.618.049-2.407.145l.095-.009-136.533 6.827q-49.937-.683-134.485-6.827a19.318 19.318 0 00-2.277-.13 19.948 19.948 0 00-11.442 3.586l.065-.043c-3.529 2.404-6.201 5.836-7.604 9.863l-.042.138c-.843 2.434-1.329 5.24-1.329 8.159 0 1.47.123 2.912.361 4.315l-.021-.151c.725 4.398 2.892 8.195 5.99 10.976l.017.015a20.828 20.828 0 0012.922 5.323l.049.002 53.248 5.325 79.906 218.453-111.855 335.565L198.417 293.65q30.72-2.014 58.607-5.325a19.652 19.652 0 0017.258-12.191l.047-.131c1.228-2.571 1.945-5.588 1.945-8.772 0-4.374-1.353-8.431-3.663-11.777l.045.069c-3.575-5.515-9.701-9.113-16.666-9.113-.815 0-1.618.049-2.407.145l.095-.009-136.533 6.827q-4.676 0-15.326-.341t-17.306-.341c46.495-70.495 107.95-127.485 180.136-167.462l2.614-1.328c70.678-39.184 154.983-62.247 244.675-62.247 67.219 0 131.412 12.953 190.22 36.5l-3.45-1.219c61.312 24.537 113.958 58.048 159.166 99.534l-.378-.342h-6.827c-.459-.01-1-.015-1.543-.015-23.749 0-45.069 10.401-59.653 26.895l-.074.085c-15.107 16.225-24.379 38.058-24.379 62.056 0 .431.003.862.009 1.292l-.001-.065a97.781 97.781 0 001.413 16.551l-.082-.577q1.331 7.987 2.662 14.302c1.403 5.86 3.23 10.968 5.531 15.807l-.206-.481q3.994 8.977 6.007 13.995c2.618 5.856 5.285 10.772 8.273 15.465l-.286-.48q6.007 10.001 8.329 13.995t9.66 15.974l9.318 15.326c25.394 40.094 40.864 88.69 41.911 140.826l.004.282zM520.67 577.945l157.798 430.763a15.694 15.694 0 003.433 7.363l-.02-.024c-50.542 18.459-108.891 29.181-169.732 29.286h-.048l-1.166.001c-51.13 0-100.441-7.786-146.812-22.238l3.491.937zm440.081-290.133c39.801 70.559 63.25 154.917 63.25 244.753l-.001 1.063v-.056c.009 1.107.014 2.415.014 3.725 0 93.321-25.746 180.628-70.522 255.206l1.252-2.248c-45.523 77.333-108.317 140.017-183.352 184.108l-2.402 1.305 156.467-451.652c21.745-54.149 35.862-116.831 39.229-182.353l.058-1.421a330.988 330.988 0 00-4.247-54.489l.253 1.89z"/></svg>