<svg width="64" height="64" viewBox="0 0 1024 1024" xmlns="http://www.w3.org/2000/svg"><path d="M1024 533.333v-.08c0-154.36-68.523-292.715-176.81-386.306l-.65-.549c-81.49 43.64-151.363 96.455-211.911 158.42l-.159.163c1.877 1.98 3.721 3.618 5.598 5.632 158.686 171.179 303.206 415.13 279.313 532.105C984.656 758.007 1024 650.385 1024 533.574v-.253.013zM537.225 190.088c71.686-47.093 157.805-78.198 250.519-86.28l2.068-.145C711.42 52.055 615.291 21.339 511.989 21.339c-92.63 0-179.492 24.698-254.36 67.867l2.468-1.312c28.058 24.201 121.037 33.314 233.984 102.4 6.092 3.791 13.487 6.039 21.407 6.039 8.057 0 15.57-2.326 21.905-6.343l-.167.099zM391.1 310.545c1.98-2.082 3.959-3.857 5.905-5.905-49.922-48.378-104.353-92.762-162.383-132.252l-4.222-2.711c-12.882-9.449-29.05-15.121-46.542-15.121-6.238 0-12.308.721-18.13 2.085l.536-.106C63.944 250.3.028 384.542.028 533.711c0 124.132 44.26 237.927 117.86 326.463l-.674-.834C73.216 750.659 222.891 489.335 391.1 310.544zm124.484 103.219c-169.028 149.47-404.343 372.463-368.299 478.652 92.752 94.404 221.774 152.908 364.461 152.908 149.053 0 283.195-63.841 376.574-165.672l.341-.377c20.753-111.718-202.889-313.037-373.077-465.51z"/></svg>