<svg width="64" height="64" viewBox="0 0 811 811" xmlns="http://www.w3.org/2000/svg"><path d="M461.551 397.27l7.987 435.063c-19.191-3.895-41.462-6.358-64.224-6.82l-.391-.006c-23.219.556-45.483 3.016-67.12 7.233l2.505-.407 7.987-435.063q-24.61-42.462-103.697-181.862T111.478-15.06Q57.24-106.128-.001-191.666c19.859 5.588 42.708 8.934 66.293 9.214l.164.002c24.562-.703 48.002-4.023 70.507-9.694l-2.24.478q38.775 68.267 82.159 141.244t102.775 170.155q59.392 97.246 85.333 139.708 22.767-37.547 67.379-109.227t72.294-116.907 64.614-108.305 65.809-116.668c19.738 5.403 42.411 8.538 65.806 8.602h.037c24.939-.084 49.107-3.216 72.203-9.042l-2.059.44q-17.067 23.893-36.932 54.613t-30.447 48.299q-10.752 17.852-34.782 59.085t-30.14 51.678q-89.839 152.474-217.225 375.262z"/></svg>