<svg width="64" height="64" viewBox="0 0 780 780" xmlns="http://www.w3.org/2000/svg"><path d="M392.772 530.929v72.533q-.58 166.741-3.413 174.08c-4.824 12.214-15.757 21.055-28.93 22.815l-.185.02c-1.294.025-2.819.04-4.348.04-36.025 0-70.177-8.016-100.771-22.362l1.456.613c-35.993-10.329-67.097-27.847-93.037-51.025l.229.201a42.816 42.816 0 01-9.654-20.216l-.04-.264a34.029 34.029 0 01-.065-2.153c0-4.565.863-8.928 2.436-12.936l-.083.241c5.942-10.144 12.362-18.923 19.564-26.99l-.142.162q17.067-21.129 103.356-123.358.58 0 34.133-39.97c5.539-7.025 13.349-12.042 22.309-13.95l.253-.045c3.228-.745 6.934-1.173 10.74-1.173a49.647 49.647 0 0117.863 3.302l-.34-.115c8.756 3.502 16.011 9.197 21.307 16.42l.094.135c4.567 6.146 7.311 13.883 7.311 22.26 0 .61-.015 1.217-.043 1.82l.003-.085zm-85.094-143.36c.013.383.021.833.021 1.285 0 18.442-12.469 33.972-29.436 38.619l-.281.066-68.54 22.289Q52.429 500.072 42.701 500.072a36.433 36.433 0 01-30.625-20.267l-.095-.213C6.705 467 3.231 452.409 2.305 437.13l-.018-.376C.925 423.352.149 407.791.149 392.049c0-17.751.988-35.272 2.911-52.51l-.192 2.12c.898-25.977 7.096-50.295 17.539-72.201l-.473 1.101c5.726-10.964 17.014-18.318 30.02-18.318.69 0 1.376.021 2.056.062l-.094-.004c47.305 15.206 85.505 30.108 122.658 46.913l-7.288-2.949 65.673 26.829 47.957 19.422c8.692 3.376 15.71 9.468 20.174 17.217l.102.191c4.129 7.137 6.566 15.701 6.566 24.834 0 1.002-.029 1.997-.087 2.985l.006-.136zm471.723 169.608c-10.635 35.822-28.642 66.665-52.381 92.088l.123-.133c-20.102 29.825-46.015 54.191-76.28 71.937l-1.101.597c-4.321 2.107-9.401 3.338-14.769 3.338a34.192 34.192 0 01-21.28-7.387l.072.055q-7.987-5.7-105.062-163.84l-26.829-43.964c-4.251-6.156-6.79-13.778-6.79-21.994 0-1.511.086-3.002.253-4.468l-.017.179c1.084-10.116 5.108-19.13 11.188-26.357l-.061.074c7.221-10.663 19.276-17.58 32.947-17.58a39.559 39.559 0 0114.732 2.826l-.267-.094q.58.58 67.959 22.835 116.053 37.547 138.206 45.397c10.201 2.907 19.11 6.901 27.283 11.97l-.455-.263c8.165 6.366 13.366 16.204 13.366 27.257 0 2.68-.306 5.288-.884 7.792l.045-.232zM395.639 196.286q2.867 58.266-30.72 69.666-33.109 9.694-65.092-40.55L83.968-115.931c-.664-2.588-1.045-5.559-1.045-8.619 0-10.609 4.579-20.148 11.868-26.75l.031-.027c33.468-24.506 73.364-42.405 116.634-50.893l1.877-.307c31.373-12.027 67.663-18.992 105.581-18.992 7.902 0 15.733.303 23.482.897l-1.029-.063c13.674 2.356 24.494 12.41 27.935 25.459l.054.243q1.707 10.24 12.561 174.455t13.722 216.815zm377.993 61.678c.226 1.49.356 3.21.356 4.959 0 11.893-5.975 22.39-15.086 28.654l-.118.076q-8.567 5.7-187.733 49.118-38.263 8.567-51.951 13.141l.58-1.126c-2.98.809-6.401 1.275-9.93 1.275a39.156 39.156 0 01-16.594-3.663l.242.101c-8.865-3.91-16.079-10.201-21.014-18.066l-.114-.195c-5.354-6.771-8.588-15.432-8.588-24.849s3.234-18.078 8.653-24.934l-.065.085q.58-.58 42.837-58.266 71.373-97.655 85.675-116.497c5.751-8.394 12.15-15.692 19.314-22.159l.108-.096c5.501-3.623 12.246-5.779 19.495-5.779 6.487 0 12.57 1.726 17.815 4.745l-.174-.092c28.923 19.898 52.526 45.42 69.656 75.143l.59 1.11c21.323 26.834 37.349 58.895 45.902 93.886l.349 1.687z"/></svg>