<svg width="64" height="64" viewBox="0 0 1456 1456" xmlns="http://www.w3.org/2000/svg"><path d="M577.877 1153.886L971.093 950.69 577.877 745.105zm150.358-700.553q136.533 0 263.714 3.652t186.505 7.714l59.324 3.413q.819 0 13.653 1.229c7.135.556 13.54 1.416 19.831 2.6l-1.126-.176q5.7 1.229 19.115 3.652c8.753 1.493 16.538 3.746 23.934 6.758l-.757-.273q9.762 4.062 22.767 10.581c9.61 4.876 17.863 10.139 25.545 16.102l-.354-.265c8.661 6.728 16.356 13.785 23.44 21.417l.112.122a155.736 155.736 0 0112.3 14.602l.295.416c8.622 13.588 16.542 29.251 22.916 45.685l.636 1.863c10.227 23.839 17.799 51.508 21.386 80.412l.153 1.508q6.485 52.019 10.24 110.933t4.471 92.16v143.019c.023 3.341.037 7.289.037 11.241 0 79.08-5.335 156.915-15.665 233.163l.985-8.884c-3.668 30.034-10.865 57.353-21.258 83.036l.778-2.175c-6.911 19.072-15.694 35.583-26.435 50.597l.426-.626-11.366 13.653a194.306 194.306 0 01-23.119 21.214l-.433.324c-7.315 5.7-15.582 10.841-24.37 15.072l-.82.356q-13.005 6.11-22.767 10.24c-6.639 2.74-14.424 4.993-22.503 6.389l-.673.096q-13.414 2.423-19.49 3.652t-18.705 2.423q-12.595 1.229-13.414 1.229-203.742 15.872-509.303 15.872-168.243-1.638-292.181-5.291t-162.953-6.11l-39.834-3.413-29.252-3.413c-17.251-2.146-32.311-4.995-47.035-8.689l2.662.566c-16.043-5.025-29.76-10.814-42.793-17.722l1.355.655c-17.777-8.752-32.955-19.906-45.865-33.268l-.045-.047a155.888 155.888 0 01-12.3-14.602l-.295-.416c-8.622-13.588-16.542-29.251-22.916-45.685l-.636-1.863c-10.227-23.839-17.799-51.508-21.386-80.412l-.153-1.508q-6.485-52.019-10.24-110.933t-4.471-92.16V909.999c-.023-3.338-.037-7.287-.037-11.239 0-79.081 5.335-156.916 15.665-233.164l-.985 8.884c3.668-30.034 10.865-57.353 21.258-83.036l-.778 2.175c6.911-19.072 15.694-35.583 26.435-50.597l-.426.626L72.4 529.995a194.222 194.222 0 0123.119-21.214l.433-.324c7.327-5.699 15.58-10.962 24.308-15.428l.882-.41q13.005-6.485 22.767-10.581c6.638-2.739 14.424-4.992 22.502-6.389l.674-.096q13.414-2.423 19.115-3.652c5.165-1.008 11.57-1.867 18.072-2.383l.633-.04q13.005-1.229 13.653-1.229 204.083-14.916 509.679-14.916z"/></svg>