<svg width="64" height="64" viewBox="0 0 849 849" xmlns="http://www.w3.org/2000/svg"><path d="M355.089 646.009q-4.403-89.839-1.775-179.678l5.871-203.469c-12.937-192-63.727-212.275-219.921-155.921l-11.435 4.403C52.458 140.753.029 212.779.029 297.051c0 14.399 1.531 28.441 4.438 41.971l-.235-1.306 18.193 87.211c22.323 106.291 77.21 214.357 77.21 322.97.058 67.596 54.84 122.378 122.431 122.436h15.57c67.731-.176 122.57-55.124 122.57-122.88 0-2.017-.049-4.023-.145-6.016l.011.281zm-28.774-149.743c-1.737 7.107-8.041 12.303-15.563 12.322h-.002c-1.161 0-2.355-.273-3.823-.273-4.536-1.16-8.263-4.018-10.538-7.84l-.043-.078c-1.167-2.023-1.856-4.449-1.856-7.036 0-1.572.254-3.085.724-4.499l-.029.101c10.115-23.21 16-50.251 16-78.667 0-30.695-6.867-59.786-19.149-85.82l.521 1.227c-22.581-38.848-57.536-68.388-99.379-83.552l-1.314-.416c-.307 0-.307.307-.58.307-43.334 20.021-77.01 54.803-95.113 97.757l-.46 1.23c-6.372 19.465-10.047 41.866-10.047 65.126 0 39.085 10.376 75.746 28.524 107.379l-.557-1.053c.863 1.775 1.367 3.861 1.367 6.064 0 1.937-.39 3.783-1.095 5.463l.035-.093c-1.799 4.19-5.131 7.434-9.273 9.074l-.113.04c-1.621.563-3.489.888-5.433.888l-.137-.001h.007-.059c-6.851 0-12.681-4.368-14.857-10.471l-.034-.11c-72.806-198.758 46.967-284.501 84.275-305.357-.862-2.075-1.395-4.481-1.467-7.003l-.001-.029a21.035 21.035 0 01-.045-1.406c0-12.027 9.75-21.777 21.777-21.777s21.777 9.75 21.777 21.777c0 1.857-.232 3.659-.67 5.38l.032-.151c44.271 18.432 162.406 88.61 116.599 281.498zm96.324-9.967c-1.643 7.52-2.584 16.158-2.584 25.016 0 60.861 44.419 111.347 102.606 120.81l.705.095 15.258 2.355c5.682.934 12.231 1.468 18.905 1.468 60.994 0 111.577-44.576 120.949-102.928l.093-.701c16.725-107.179 87.791-205.517 126.293-307.2l31.403-83.388c8.169-20.915 12.904-45.129 12.904-70.448 0-73.355-39.738-137.428-98.861-171.867l-.946-.509-10.854-6.178c-145.647-79.872-199.066-67.55-241.357 120.081l-25.532 201.728c-7.646 59.324-17.306 118.613-29.662 177.493zM652.834-11.57a23.969 23.969 0 01.612-6.613l-.032.162c1.02-11.209 10.373-19.923 21.761-19.923 12.065 0 21.845 9.78 21.845 21.845 0 2.678-.482 5.244-1.364 7.615l.049-.151c-.629 2.586-1.543 4.861-2.732 6.96l.07-.134c33.485 26.419 138.581 129.468 35.84 314.743-2.686 4.899-7.808 8.165-13.693 8.165-.975 0-1.929-.09-2.855-.261l.096.015a19.127 19.127 0 01-5.398-1.825l.107.05c-3.989-2.219-6.887-5.99-7.899-10.475l-.02-.107a13.804 13.804 0 01-.415-3.403c0-3.002.934-5.787 2.528-8.078l-.031.046c29.17-36.55 46.806-83.423 46.806-134.415 0-11.421-.885-22.634-2.589-33.577l.156 1.217c-11.497-47.309-39.896-86.62-78.294-112.04l-.69-.43c-.307 0-.307-.307-.58-.58-45.717 8.778-84.684 32.987-112.158 66.889l-.277.353c-21.262 31.43-33.943 70.179-33.943 111.889 0 17.408 2.209 34.301 6.362 50.413l-.306-1.397c.117.686.184 1.475.184 2.281a14.14 14.14 0 01-3.141 8.908l.021-.027c-2.778 3.548-6.961 5.887-11.697 6.176l-.045.002h-3.823c-7.24-1.027-12.806-6.991-13.208-14.331l-.002-.039C478.719 51.165 605.832.101 652.833-11.572z"/></svg>