<svg width="64" height="64" viewBox="0 0 1024 1024" xmlns="http://www.w3.org/2000/svg"><path d="M430.283 993.6l-.145.146c-28.491 28.491-74.685 28.491-103.177 0a22.288 22.288 0 01-.153-.154L51.226 718.01c-28.173-28.474-28.08-74.372.265-102.717l.257-.255L593.716 73.07l.242-.243c28.345-28.345 74.242-28.438 102.702-.279l275.604 275.604.146.145c28.491 28.491 28.491 74.685 0 103.177l-.154.153.008-.008zm425.586-490.319l5.132 5.132c4.245 4.245 11.127 4.245 15.372 0s4.245-11.127 0-15.372l-5.132-5.132c-4.245-4.245-11.127-4.245-15.372 0s-4.245 11.127 0 15.372zm-35.853-35.853l5.132 5.132c4.245 4.245 11.127 4.245 15.372 0s4.245-11.127 0-15.372l-5.132-5.132c-4.245-4.245-11.127-4.245-15.372 0s-4.245 11.127 0 15.372zm7.335-154.669l70.205 70.205c4.245 4.245 11.127 4.245 15.372 0s4.245-11.127 0-15.372l-70.205-70.205c-4.245-4.245-11.127-4.245-15.372 0s-4.245 11.127 0 15.372zM638.258 190.385l225.914 225.914c4.245 4.245 11.127 4.245 15.372 0s4.245-11.127 0-15.372L653.63 175.013c-4.245-4.245-11.127-4.245-15.372 0s-4.245 11.127 0 15.372zm-33.819 394.43c21.022 15.115 50.141 13.239 68.819-5.439l.287-.289-.015.015c18.457-18.899 20.388-47.879 5.815-68.871l-.199-.269 13.823-13.823c18.95-18.95 18.959-49.669.026-68.63l-51.662-51.662c-39.681-39.461-103.779-39.461-143.449-.01L213.085 660.636c-4.09 4.301-4.09 11.048-.01 15.338L355.48 818.379c4.301 4.09 11.048 4.09 15.338.01l70.215-70.215c21.023 15.137 50.16 13.268 68.847-5.419l.257-.259-.013.013c18.48-18.897 20.419-47.894 5.839-68.895l-.199-.269zM452.821 791.774l.012-.012c4.011-4.011 4.011-10.514 0-14.525a10.908 10.908 0 00-.444-.419l.021.019c-4.335-4.121-11.156-4.087-15.44.092l-.005.005-87.611 83.495c-4.245 4.245-4.245 11.127 0 15.372s11.127 4.245 15.372 0l88.119-84.004zm112.182-128.596c4.301 4.09 11.048 4.09 15.338.01l40.995-40.995c4.245-4.245 4.245-11.127 0-15.372s-11.127-4.245-15.372 0l-40.985 40.985c-4.137 4.353-4.086 11.21.143 15.491l.002.003zm219.233-231.53l5.132 5.132c4.245 4.245 11.127 4.245 15.372 0s4.245-11.127 0-15.372l-5.132-5.132c-4.245-4.245-11.127-4.245-15.372 0s-4.245 11.127 0 15.372zm-35.853-35.853l5.132 5.132c4.245 4.245 11.127 4.245 15.372 0s4.245-11.127 0-15.372l-5.132-5.132c-4.245-4.245-11.127-4.245-15.372 0s-4.245 11.127 0 15.372zm-35.853-35.853l5.132 5.132c4.245 4.245 11.127 4.245 15.372 0s4.245-11.127 0-15.372l-5.132-5.132c-4.245-4.245-11.127-4.245-15.372 0s-4.245 11.127 0 15.372zm-35.853-35.853l5.132 5.132c4.245 4.245 11.127 4.245 15.372 0s4.245-11.127 0-15.372l-5.084-5.084c-4.245-4.245-11.127-4.245-15.372 0s-4.245 11.127 0 15.372zm46.117-112.691l19.972 19.972c4.245 4.245 11.127 4.245 15.372 0s4.245-11.127 0-15.372l-19.972-19.972c-4.245-4.245-11.127-4.245-15.372 0s-4.245 11.127 0 15.372zM203.376 756.429l.121.123c4.171 4.171 10.935 4.171 15.106 0l.127-.13-.006.007 17.939-17.939c4.245-4.245 4.245-11.127 0-15.372s-11.127-4.245-15.372 0l-17.939 17.939c-4.098 4.309-4.089 11.075.016 15.364l.009.009zm437.472-468.217l5.132 5.132c4.245 4.245 11.127 4.245 15.372 0s4.245-11.127 0-15.372l-5.132-5.132c-4.245-4.245-11.127-4.245-15.372 0s-4.245 11.127 0 15.372zM156.242 734.908l.121.123c4.171 4.171 10.935 4.171 15.106 0l.127-.13-.006.007 30.745-30.745c4.245-4.245 4.245-11.127 0-15.372s-11.127-4.245-15.372 0l-30.745 30.745c-4.098 4.309-4.089 11.075.016 15.364l.009.009zm515.327-574.735l19.996 19.996c4.245 4.245 11.127 4.245 15.372 0s4.245-11.127 0-15.372l-19.996-19.996c-4.245-4.245-11.127-4.245-15.372 0s-4.245 11.127 0 15.372zm-66.598 92.21l5.132 5.132c4.245 4.245 11.127 4.245 15.372 0s4.245-11.127 0-15.372l-5.132-5.132c-4.245-4.245-11.127-4.245-15.372 0s-4.245 11.127 0 15.372zm-35.853-35.852l5.132 5.132c4.245 4.245 11.127 4.245 15.372 0s4.245-11.127 0-15.372l-5.156-5.156c-4.245-4.245-11.127-4.245-15.372 0s-4.245 11.127 0 15.372zm-35.852-35.853l5.132 5.132c4.245 4.245 11.127 4.245 15.372 0s4.245-11.127 0-15.372l-5.156-5.156c-4.245-4.245-11.127-4.245-15.372 0s-4.245 11.127 0 15.372zm80.396 381.599l-2.058-2.058c-1.041-1.041-1.549-2.566-2.566-3.583-.508-.508-.533-1.549-1.017-2.034-.533-1.549-1.041-2.058-1.525-3.607 0-1.017-.533-1.549-.508-2.59a5.438 5.438 0 01-1.066-2.96v.007a10.01 10.01 0 01-.509-3.597v-.01c0-1.017-.533-1.549-.533-2.566a5.753 5.753 0 01-.015-4.08l.015-.036c0-1.017-.508-1.525 0-2.034.144-1.34.47-2.703.973-4.014l.044-.101c.508-.508 0-1.017.533-1.549.508-1.525 1.549-2.566 2.058-4.091 0-1.017 0-1.017.508-1.525 1.059-1.713 2.463-3.491 4.098-5.126s3.413-3.039 5.295-4.211l-.169.114c1.017 0 1.017 0 1.525-.508 1.549-.533 2.566-1.549 4.091-2.058.508-.508 1.017 0 1.549-.533a15.307 15.307 0 004.018-.974l.097-.043h2.034c1.549.533 3.099 0 4.115 0s1.549.533 2.59.508c1.201.393 2.391.563 3.577.533h.006c1.017 0 2.034 1.017 3.099 1.017s1.549.533 2.59.508 2.034 1.017 3.583 1.549c.508.508 1.525.508 2.034 1.017a6.57 6.57 0 005.6.525l.04-.017 2.058 2.058c11.262 12.877 10.758 32.349-1.445 44.552s-31.675 12.707-44.478 1.511l-.074-.066zm10.24-10.24c6.263 6.154 16.3 6.154 22.557.005l.005-.005c.164-.148.351-.326.535-.51 5.936-5.936 5.936-15.561 0-21.497a15.362 15.362 0 00-.587-.557l.028.025c-6.224-6.224-16.314-6.224-22.538 0s-6.224 16.314 0 22.538zM449.746 726.193l-2.058-2.058c-1.041-1.041-1.549-2.566-2.566-3.583-.508-.508-.533-1.549-1.017-2.034 0-1.017-1.041-2.058-1.549-3.583 0-1.017-.533-1.549-.508-2.59a5.549 5.549 0 01-1.041-3.078v.004a9.992 9.992 0 01-.533-3.622v-.009c-.508-.508-.533-1.549-.533-2.566-.508-1.525.024-3.074 0-4.115v-2.034c.144-1.34.47-2.703.973-4.014l.044-.101c.508-.508 0-1.017.533-1.549.508-1.525 1.549-2.566 2.058-4.091 0-1.017 0-1.017.508-1.525 1.059-1.713 2.463-3.491 4.098-5.126s3.413-3.039 5.295-4.211l-.169.114c1.017 0 1.017 0 1.525-.508 1.549-.533 2.566-1.549 4.091-2.058.508-.508 1.017 0 1.549-.533a15.655 15.655 0 004.016-.974l.099-.043h6.149c1.017 0 1.549.533 2.566.533s2.566.484 3.607.508 2.034 1.017 3.074 1.041 1.549.533 2.59.508 2.034 1.017 3.583 1.549c.508.508 1.525.508 2.034 1.017a6.57 6.57 0 005.6.525l.04-.017 2.058 2.058c11.262 12.877 10.758 32.349-1.445 44.552s-31.675 12.707-44.478 1.511l-.074-.066zm10.24-10.24c6.263 6.154 16.3 6.154 22.557.005l.005-.005c.067-.064.145-.141.223-.218 6.097-6.097 6.097-15.981 0-22.078a15.481 15.481 0 00-.26-.254l.013.012c-6.224-6.224-16.314-6.224-22.538 0s-6.224 16.314 0 22.538zM662.83 495.679c-2.64-1.624-5.219-2.79-7.877-3.631l.203.073c-2.535-1.391-5.124-2.222-7.764-2.576l.066.01c-.508-.508-1.017 0-1.549-.533-2.566-.484-4.624-.508-7.166-1.017h-2.082a17.017 17.017 0 00-7.091-.018l-.074.018c-.508-.508-1.017 0-2.034 0-2.029.036-4.063.36-6.026.973l-.123.044c-.508.508-1.017 0-1.525.508-2.058 1.041-4.624 1.525-6.682 2.566-.508.508-1.525.508-2.034 1.017-2.034 1.017-4.624 2.542-6.682 3.583l-1.041 1.041c-2.169 1.528-4.481 3.474-6.653 5.645s-4.117 4.484-5.837 6.907l.192-.254-1.089 1.089c-1.041 2.058-2.542 4.624-3.583 6.682-.508.508-.508 1.525-1.017 2.034-1.243 2.256-2.068 4.485-2.57 6.771l.029-.113c-.508.508 0 1.017-.533 1.549 0 2.034-1.041 4.091-1.017 6.149.508.508 0 1.017-.024 2.058v7.166c-.508.508 0 1.017.024 2.058.484 2.566.508 4.624 1.017 7.166.508.508 0 1.017.533 1.549a29.158 29.158 0 001.945 6.976l.088.19c.692 2.562 1.868 5.167 3.485 7.563l.098.135-89.572 89.572c-2.637-1.64-5.225-2.814-7.896-3.653l.197.07c-2.465-1.047-4.844-1.701-7.257-2.049l.092.015c-.508-.508-1.017 0-1.549-.533a40.08 40.08 0 00-7.21-1.019l.045.003c-.508.508-1.017 0-2.082 0a33.717 33.717 0 00-7.087-.01l-.079.01c-.508-.508-1.017 0-2.034 0-2.029.036-4.063.36-6.026.973l-.123.044c-.508.508-1.017 0-1.525.508-2.058 1.041-4.624 1.525-6.682 2.566-.508.508-1.525.508-2.034 1.017-2.058 1.041-4.624 2.542-6.682 3.583l-1.065 1.065c-2.169 1.528-4.481 3.474-6.653 5.645s-4.117 4.484-5.837 6.907l.192-.254-.92.92c-1.017 2.034-2.542 4.624-3.583 6.682-.508.508-.508 1.525-1.017 2.034-1.243 2.256-2.068 4.485-2.57 6.771l.029-.113c-.508.508 0 1.017-.533 1.549-.169 2.058-.968 4.115-.944 6.125.508.508 0 1.017 0 2.034v7.166c-.508.508 0 1.017.024 2.058.484 2.566.508 4.624 1.017 7.166.508.508 0 1.017.533 1.549.569 2.244 1.396 4.788 2.383 7.284l.183.414c.683 2.557 1.851 5.154 3.463 7.541l.096.133-62.531 62.531-54.3-54.3 299.072-299.072 48.756-19.028 20.48 20.48.049.048c10.442 10.442 10.442 27.372 0 37.814l-.051.051.003-.003zm-64.54-72.722c-1.017 0-1.017 0-1.549.533l-51.734-51.734c27.677-9.066 58.793-2.697 80.424 18.935l.022.022 14.863 14.863zm-57.374 55.292l-57.35-57.35 29.704-29.704a89.212 89.212 0 0111.736-9.529l-.455.33 56.333 56.333zM292.972 726.193l-57.35-57.35 30.745-30.745 57.374 57.374zm149.584-150.601l-57.35-57.35 82.478-82.478 57.374 57.374zM338.46 679.688l-57.35-57.35 88.627-88.627 57.374 57.374zm129.418-243.392zm-97.851 97.851z"/></svg>