<svg width="64" height="64" viewBox="0 0 1025 1025" xmlns="http://www.w3.org/2000/svg"><path d="M993.212 356.567l.956-.307-10.786-24.781c-.307-.307-.307-.956-.649-1.263s-.649-1.604-.956-2.219l-12.39-27.307-.649.307C915.512 198.234 831.399 117.711 728.826 70.365l-3.151-1.304.341-.956-28.604-11.127-28.262-10.786-.307.956c-46.887-15.61-100.873-24.667-156.958-24.781h-.177c-62.907 0-123.148 11.414-178.765 32.284l3.51-1.155-.341-.956-55.91 24.166.341.956C177.278 130.54 96.301 214.591 48.649 317.252l-1.305 3.132-.956-.307-22.255 56.525.956.307C9.157 424.096-.037 478.44-.037 534.932c0 62.316 11.188 122.019 31.665 177.21l-1.145-3.525-.956.307 11.742 27.648.956 1.911c.307.307.307.956.649 1.263l10.786 24.781.956-.307c52.149 102.715 135.058 183.478 236.471 231.579l3.077 1.313-.307.956 27.955 11.127 28.262 11.435.307-.956c48.518 16.906 104.444 26.671 162.652 26.671 62.91 0 123.155-11.406 178.782-32.263l-3.513 1.155.341.956 55.91-24.166-.341-.956c102.377-52.457 182.843-135.432 230.791-236.796l1.316-3.093.956.307 22.255-56.525-.956-.307c16.853-48.174 26.588-103.711 26.588-161.522 0-63.427-11.718-124.117-33.108-180.023l1.161 3.454zM318.396 620.281l-1.263-2.526c-10.65-24.507-16.845-53.053-16.845-83.046 0-86.82 51.912-161.514 126.39-194.738l1.354-.54c24.693-11.045 53.514-17.477 83.837-17.477l.714.001h-.037c27.307.032 53.406 5.164 77.408 14.495l-1.462-.5c53.443 20.622 95.511 60.683 118.28 111.302l.538 1.338 1.263 2.526c10.929 24.695 17.292 53.496 17.292 83.784 0 28.542-5.65 55.765-15.894 80.61l.514-1.407C678.286 693.086 602.09 747.74 513.128 747.74c-86.542 0-161.003-51.721-194.16-125.939l-.539-1.349zm455.27-168.38l163.635-71.168c17.125 45.567 27.037 98.232 27.037 153.213 0 49.492-8.032 97.109-22.864 141.617l.913-3.16-165.854-65.434c6.383-21.811 10.054-46.868 10.054-72.782 0-29.404-4.727-57.705-13.464-84.182l.542 1.897zM512.205 83.022h.263c47.992 0 94.235 7.489 137.623 21.363l-3.197-.883-34.304 87.04-31.13 79.121c-20.658-5.54-44.375-8.723-68.836-8.723-28.595 0-56.173 4.349-82.111 12.421l1.955-.524L361.3 109.202c44.215-16.586 95.313-26.186 148.654-26.186.815 0 1.63.002 2.443.007l-.126-.001zM82.33 399.165l166.161 65.331c-5.805 20.924-9.141 44.951-9.141 69.757 0 28.047 4.265 55.097 12.181 80.539l-.514-1.918-163.84 71.168c-16.41-44.609-25.903-96.123-25.903-149.855 0-48.241 7.652-94.695 21.807-138.214l-.888 3.158zm431.445 586.513c-50.039-.06-98.16-8.186-143.161-23.147l3.214.926 65.468-165.854c22.363 6.536 48.053 10.296 74.621 10.296 28.577 0 56.138-4.35 82.057-12.424l-1.952.524 71.168 163.942c-44.87 16.286-96.661 25.703-150.651 25.703l-.806-.001h.041z"/></svg>