<svg width="64" height="64" viewBox="0 0 1524 1524" xmlns="http://www.w3.org/2000/svg"><path d="M892.245 1299.061h89.225v89.225h-89.225v-89.225zm308.395 0h89.225v89.225h-89.225v-89.225zm-74.82-316.416v-89.19h-123.631v43.418l46.114 45.773zm305.732 482.133v-188.109h28.365l26.385-26.078-312.388-312.422h-38.775v54.135h-90.897l-54.135-54.135H840.091L528.01 1250.25l26.385 26.385h41.779v188.109h-81.545c-121.958-116.634-154.351-381.235-142.985-578.048l2.014-4.028c.298-.002.65-.003 1.002-.003 53.332 0 100.625 25.853 130.031 65.711l.312.443c22.204 30.001 35.541 67.734 35.541 108.582 0 28.148-6.333 54.818-17.652 78.661l.476-1.113c24.888-6.478 46.528-17.919 64.758-33.277l-.246.202c38.3-33.516 62.355-82.491 62.355-137.084 0-40.729-13.389-78.331-36.005-108.645l.343.48c-29.081-40.179-75.835-66.016-128.623-66.016-16.449 0-32.312 2.509-47.227 7.164l1.121-.302c11.297-7.036 24.313-13.257 38.023-17.988l1.367-.41c17.299-6.512 37.293-10.282 58.168-10.282 46.194 0 88.076 18.46 118.673 48.404l-.03-.029c1.66-8.372 2.61-17.998 2.61-27.846 0-15.327-2.301-30.117-6.577-44.042l.28 1.062c-22.225-64.201-82.168-109.478-152.685-109.478-21.293 0-41.621 4.128-60.229 11.627l1.083-.386c-11.356 3.983-20.844 8.153-29.958 12.939l1.217-.582c-3.193-14.336-7.443-26.872-12.854-38.769l.498 1.222c-37.547-84.173-123.631-123.938-192.478-89.19-19.056 9.836-34.785 23.698-46.524 40.547l-.273.413c50.726 5.082 93.816 33.786 118.562 74.802l.392.701c-14.89-7.565-32.184-13.787-50.313-17.785l-1.468-.272C121.515 609.396 20.821 666.877 2.765 760.778 1.032 769.58.04 779.701.04 790.054c0 16.743 2.594 32.881 7.401 48.033l-.308-1.124c35.822-40.444 87.882-65.809 145.866-65.809 16.55 0 32.617 2.066 47.957 5.955l-1.345-.289c17.466 3.675 32.88 8.973 47.367 15.899l-1.252-.539c-6.94-.972-14.959-1.527-23.106-1.527-65.307 0-122.286 35.655-152.534 88.56l-.453.86c-17.24 28.766-27.435 63.467-27.435 100.549 0 66.883 33.167 126.02 83.951 161.86l.623.417c20.953 14.15 45.96 23.989 72.93 27.65l.9.1c-17.973-29.51-28.612-65.199-28.612-103.373 0-37.254 10.133-72.141 27.793-102.056l-.512.937c26.594-45.799 71.745-78.321 124.893-87.402l1.059-.15c-60.45 275.319-77.175 467.149-27.307 586.069h-145.34v80.213h1371.648v-80.213h-92.535zm-339.183-183.774h305.732v183.774h-305.732zm-463.428-36.42l211.183-211.183 211.183 211.183v220.194H819.405v-165.717H702.123v165.717h-73.489v-220.194z"/></svg>