<svg width="64" height="64" viewBox="0 0 1206 1206" xmlns="http://www.w3.org/2000/svg"><path d="M240.538 1159.271v.034c0 37.59-30.472 68.062-68.062 68.062h-.216.011-.034c-37.571 0-68.028-30.457-68.028-68.028v-.072.004-887.842-.034c0-37.571 30.457-68.028 68.028-68.028h.036-.002.205c37.59 0 68.062 30.472 68.062 68.062zM85.914 317.919H38.332C17.567 318.557.976 335.543.976 356.404s16.591 37.847 37.298 38.484l.059.001h47.582zm1006.523 139.264H409.77c-62.511.078-113.162 50.741-113.22 113.249v394.587c0 62.492 50.66 113.152 113.152 113.152h682.735c62.511-.078 113.162-50.741 113.22-113.249V570.437v-.102c0-62.492-50.66-113.152-113.152-113.152h-.072.004zm54.614 507.733c-.116 30.002-24.406 54.293-54.397 54.408H409.908c-29.992 0-54.306-24.314-54.306-54.306v-.108.006-394.479c.116-29.99 24.387-54.273 54.361-54.408h682.68c30.002.116 54.293 24.406 54.408 54.397v.011zm-630.75-529.613c21.924 0 39.697-17.773 39.697-39.697v-79.36c.011-.347.017-.755.017-1.164 0-21.924-17.773-39.697-39.697-39.697s-39.697 17.773-39.697 39.697c0 .409.006.817.018 1.223l-.001-.059v79.36c.019 21.904 17.761 39.658 39.659 39.697h.004zm469.743 0c21.916-.019 39.678-17.781 39.697-39.695v-79.362c0-21.924-17.773-39.697-39.697-39.697s-39.697 17.773-39.697 39.697v79.36c.019 21.916 17.781 39.678 39.695 39.697h.002zm-410.59-117.35h351.369v76.971H575.454v-76.971zm601.156 37.99c-.058-20.958-17.032-37.932-37.985-37.99h-87.933v76.971h87.893c20.95-.077 37.913-17.04 37.99-37.983v-.007zM522.069 843.811h-41.37v-38.332h-37.99V915.32h37.99v-44.373h41.37v44.373h37.956V805.479h-37.956zm169.029-25.668c-12.99-9.203-29.164-14.711-46.623-14.711-17.668 0-34.018 5.64-47.349 15.218l.242-.166c-10.379 9.653-16.852 23.385-16.852 38.63a53.5 53.5 0 00.099 3.264l-.007-.148a53.657 53.657 0 00-.053 2.435c0 11.026 3.213 21.301 8.754 29.94l-.133-.222c5.339 8.221 12.777 14.672 21.563 18.678l.316.129c9.099 3.716 19.658 5.873 30.72 5.873 1.2 0 2.395-.025 3.583-.076l-.17.006c.642.019 1.398.03 2.156.03 11.584 0 22.579-2.526 32.463-7.056l-.486.2c8.846-4.21 15.987-10.792 20.769-18.927l.121-.222c4.543-8.434 7.213-18.458 7.213-29.105 0-.832-.016-1.66-.049-2.484l.004.119c.061-.949.096-2.059.096-3.176 0-15.029-6.279-28.592-16.356-38.208l-.021-.02zm-28.024 66.389a24.228 24.228 0 01-17.284 7.218c-.548 0-1.092-.018-1.631-.054l.073.004a25.175 25.175 0 01-18.812-7.173l.005.005c-4.277-6.788-6.815-15.044-6.815-23.893s2.538-17.106 6.925-24.081l-.11.188c4.906-4.459 11.452-7.189 18.637-7.189s13.731 2.73 18.66 7.21l-.023-.02c4.347 5.26 6.983 12.072 6.983 19.501 0 1.09-.057 2.167-.168 3.228l.011-.133c.137 1.198.216 2.586.216 3.992a36.867 36.867 0 01-6.745 21.315l.078-.117zm51.644-52.019h38.639v82.807h37.99v-82.807h38.639v-27.034H714.718zm170.393 36.283h58.88V846.2h-58.88v-17.442h63.317v-23.279H847.12V915.32h103.322v-24.986h-65.365zm123.495-63.317h-37.99V915.32h97.178v-27.034h-59.187zm-555.964-88.951l35.601-18.842 35.942 18.842-6.827-39.697 28.774-28.058-39.697-5.803-18.125-36.25-17.783 36.25-39.697 5.803 28.74 28.058zm131.721 0l35.567-18.842 35.601 18.842-6.827-39.697 28.706-28.058-39.663-5.803-17.783-36.25-17.783 36.25-40.038 5.803 28.74 28.058zm131.379 0l35.601-18.842 35.601 18.842-6.827-39.697 28.74-28.058-39.663-5.803-17.783-36.25-17.783 36.25-40.038 5.803 29.116 28.058zm131.379 0l35.567-18.842 35.601 18.842-6.827-39.697 28.74-28.058-39.663-5.803-17.783-36.25-17.783 36.25-40.038 5.803 29.082 28.058zm166.912-109.841l-17.783 36.25-39.663 5.803 28.706 28.058-6.827 39.697 35.567-18.842 35.567 18.842-6.827-39.697 29.082-28.058-40.038-5.803zM262.076 317.953H451.96v76.971H262.076v-76.971z"/></svg>