<svg width="64" height="64" viewBox="0 0 940 940" xmlns="http://www.w3.org/2000/svg"><path d="M53.658 148.789l-6.827 49.596 48.23-13.483 18.807 46.421 34.987-35.772 39.492 30.72 12.459-48.435 49.596 6.827-13.483-48.23 46.421-18.773-35.772-34.987 30.72-39.492-48.435-12.459 6.827-49.596-48.23 13.483-18.807-46.421-35.191 35.772L94.96-46.76 82.501 1.675 32.905-5.152l13.483 48.23L-.033 61.885l35.772 34.987-30.72 39.492zm60.996-137.66c7.993-2.819 17.21-4.448 26.808-4.448 45.846 0 83.012 37.166 83.012 83.012s-37.166 83.012-83.012 83.012c-36.237 0-67.051-23.219-78.376-55.591l-.177-.582c-2.831-8.005-4.466-17.237-4.466-26.851 0-36.239 23.241-67.05 55.631-78.342l.582-.177zm85.504 804.386a17.016 17.016 0 0012.115-5.084l.002-.002 10.513-10.854c18.509-19.065 44.379-30.895 73.011-30.895s54.502 11.831 72.987 30.87l.024.025 10.752 10.991a17.016 17.016 0 0012.115 5.086h.049c4.697 0 8.94-1.948 11.963-5.081l.005-.005 11.332-11.537c18.507-18.801 44.231-30.45 72.677-30.45 28.731 0 54.686 11.884 73.218 31.004l.025.026 10.24 10.513a17.018 17.018 0 0012.108 5.222h.009a17.498 17.498 0 0012.119-5.087l-.001.001 10.411-10.752c18.509-19.065 44.379-30.895 73.011-30.895s54.502 11.831 72.987 30.87l.024.025 10.65 10.854a17.018 17.018 0 0012.108 5.222h.009a16.679 16.679 0 0012.11-5.215l.007-.007 10.513-10.854a104.546 104.546 0 0123.368-17.854l.525-.27c-52.595-48.394-115.036-87.039-183.864-112.513l-3.869-1.254c-28.74-122.709-3.413-283.887 36.113-405.811a60.472 60.472 0 002.492-2.731c64.501 15.993 111.558 73.382 111.558 141.763 0 36.608-13.487 70.065-35.763 95.675l.151-.177c.929.021 2.023.033 3.121.033 80.552 0 145.852-65.3 145.852-145.852s-65.3-145.852-145.852-145.852c-1.578 0-3.149.025-4.715.075l.229-.006c11.116-3.217 24.037-5.435 37.349-6.191l.47-.021c3.757-.318 8.13-.499 12.546-.499 54.604 0 102.732 27.729 131.07 69.873l.358.565c7.464-15.181 11.829-33.043 11.829-51.924 0-2.147-.056-4.28-.168-6.399l.012.296c-9.422-72.352-70.669-127.653-144.832-127.653-5.964 0-11.845.358-17.622 1.053l.697-.068c-9.972.512-19.33 1.841-28.396 3.932l1.09-.212a157.734 157.734 0 00-2.893-34.035l.162.993C739.706-11.254 684.09-61.465 616.747-61.465c-5.471 0-10.864.331-16.161.975l.637-.063c-18.786 3.746-35.267 11.808-48.963 23.121l.186-.149c40.906 14.559 72.448 46.471 86.201 86.637l.293.983c-11.819-9.781-25.166-18.457-39.457-25.51l-1.196-.534C511.793-17.989 413.318 6.212 378.332 78.233c-7.826 15.852-12.405 34.512-12.405 54.241 0 2.977.104 5.931.309 8.856l-.022-.394c26.81-16.794 59.388-26.754 94.293-26.754 30.647 0 59.5 7.679 84.741 21.217l-.96-.471c13.863 6.836 25.782 14.367 36.816 22.979l-.464-.349c-17.773-7.437-38.424-11.758-60.085-11.758-88.036 0-159.403 71.367-159.403 159.403 0 42.565 16.683 81.233 43.867 109.822l-.064-.067c15.745 16.57 34.968 29.676 56.515 38.166l1.068.371c-5.134-14.97-8.099-32.217-8.099-50.157 0-88.017 71.352-159.369 159.369-159.369 5.967 0 11.857.328 17.654.967l-.715-.064C543.809 411.374 491.62 541.218 482.916 641.297h-2.15c-43.781.085-86.073 6.312-126.108 17.864l3.228-.797c-47.666-49.19-84.367-109.298-105.974-176.191l-.897-3.214c0-.683 0-1.365.239-1.911 8.951-3.895 19.378-6.161 30.334-6.161 42.943 0 77.756 34.812 77.756 77.756a78.71 78.71 0 01-.246 6.227l.017-.271c19.579-14.289 32.155-37.158 32.155-62.963 0-42.924-34.797-77.722-77.722-77.722-18.005 0-34.58 6.122-47.757 16.399l.173-.13c4.269-5.433 8.916-10.221 14.015-14.487l.15-.122c14.692-12.885 34.07-20.745 55.284-20.745 10.254 0 20.078 1.836 29.163 5.198l-.582-.189c-2.158-11.037-6.896-20.721-13.566-28.741l.084.104c-14.174-14.797-34.093-23.994-56.16-23.994-20.653 0-39.424 8.055-53.343 21.196l.038-.035a100.47 100.47 0 00-10.424 10.138l-.089.102c-3.583-4.927-7.416-9.258-11.623-13.197l-.051-.047c-12.882-13.423-30.971-21.764-51.008-21.764-18.741 0-35.777 7.296-48.424 19.203l.036-.033a58.169 58.169 0 00-13.566 24.957l-.088.404c6.588-2.119 14.166-3.341 22.03-3.341 16.047 0 30.905 5.086 43.052 13.735l-.228-.154a101.13 101.13 0 00-5.559-.148 105.1 105.1 0 00-20.814 2.07l.671-.113c-43.607 4.61-77.29 41.188-77.29 85.634 0 2.61.116 5.192.344 7.743l-.024-.33c2.298 11.877 7.478 22.282 14.786 30.81l-.075-.09c12.651-31.127 40.36-53.76 73.837-59.015l.54-.07c5.881-1.182 12.642-1.859 19.561-1.859 1.127 0 2.251.018 3.369.054l-.163-.004c-37.255 9.544-64.352 42.818-64.352 82.421 0 46.921 38.037 84.958 84.958 84.958a85.033 85.033 0 0023.446-3.276l-.6.147c-21.951-15.599-36.1-40.934-36.1-69.574 0-5.134.455-10.162 1.326-15.045l-.076.515c4.437-25.118 19.488-46.036 40.26-58.29l.393-.214c8.716 74.837 27.87 143.089 56.118 206.393l-1.778-4.46c-54.581 26.072-101.526 57.923-142.963 95.711l.456-.41c18.296 6.211 33.897 16.235 46.498 29.191l.026.027a20.817 20.817 0 0012.692 4.369h.006zm-148.89 43.828a17.967 17.967 0 0012.662-5.324l.001-.001c10.29-10.553 24.647-17.098 40.533-17.098s30.243 6.545 40.522 17.087l.011.012c14.022 14.39 33.591 23.316 55.245 23.316s41.223-8.926 55.229-23.299l.016-.017L266 843.267c7.608-7.831 18.238-12.69 30.003-12.69s22.395 4.859 29.993 12.68l.01.01 10.752 10.991c13.997 14.4 33.55 23.334 55.191 23.334 21.523 0 40.982-8.838 54.945-23.082l.012-.013 11.435-11.537c7.559-7.747 18.102-12.552 29.768-12.552 11.783 0 22.421 4.902 29.986 12.777l.013.014 10.24 10.513c13.924 14.525 33.485 23.552 55.154 23.552h.077-.004.056c21.656 0 41.214-8.983 55.15-23.427l.022-.023 10.411-10.65c7.612-7.822 18.241-12.675 30.003-12.675s22.391 4.853 29.994 12.666l.009.009 10.513 10.752c14 14.382 33.546 23.305 55.177 23.305s41.177-8.922 55.16-23.288l10.53-10.872c7.608-7.831 18.238-12.69 30.003-12.69s22.395 4.859 29.993 12.68l.01.01c3.191 3.319 7.67 5.381 12.629 5.381s9.438-2.062 12.624-5.376l.005-.006c3.257-3.367 5.264-7.96 5.264-13.022s-2.007-9.655-5.269-13.027l.005.005c-14.018-14.398-33.588-23.33-55.245-23.33s-41.227 8.932-55.228 23.313l-.017.017-10.513 10.854c-7.608 7.831-18.238 12.69-30.003 12.69s-22.395-4.859-29.993-12.68l-.01-.01-10.513-10.854c-14.018-14.398-33.588-23.33-55.245-23.33s-41.227 8.932-55.228 23.313l-.017.017-10.411 10.65c-7.643 7.771-18.253 12.605-29.992 12.663h-.011c-11.776-.052-22.4-4.944-29.992-12.789l-.011-.011-10.24-10.513c-13.997-14.518-33.616-23.534-55.341-23.534-21.507 0-40.95 8.837-54.897 23.077l-.013.013-11.332 11.537c-7.586 7.687-18.12 12.449-29.767 12.449-11.764 0-22.393-4.858-29.991-12.678l-.01-.01-10.752-10.991c-14.022-14.39-33.591-23.316-55.245-23.316s-41.223 8.926-55.229 23.299l-.016.017-10.513 10.752c-7.584 7.814-18.186 12.664-29.92 12.664h-.088.005-.135c-11.675 0-22.217-4.852-29.719-12.65l-.013-.013c-16.668-17.189-39.975-27.858-65.775-27.858s-49.107 10.668-65.752 27.834l-.023.023c-3.234 3.377-5.224 7.967-5.224 13.022s1.991 9.645 5.231 13.029l-.007-.007c3.115 3.459 7.598 5.634 12.59 5.666h.006zm874.428 41.574c-14.018-14.398-33.588-23.33-55.245-23.33s-41.227 8.932-55.228 23.313l-.017.017-10.513 10.854c-7.612 7.822-18.241 12.675-30.003 12.675s-22.391-4.853-29.994-12.666l-10.522-10.864c-14.018-14.398-33.588-23.33-55.245-23.33s-41.227 8.932-55.228 23.313l-.017.017-10.411 10.65c-7.643 7.771-18.253 12.605-29.992 12.663h-.011c-11.776-.052-22.4-4.944-29.992-12.789l-.011-.011-10.24-10.513c-13.997-14.518-33.616-23.534-55.341-23.534-21.507 0-40.95 8.837-54.897 23.077l-.013.013-11.332 11.537c-7.586 7.687-18.12 12.449-29.767 12.449-11.764 0-22.393-4.858-29.991-12.678l-.01-.01-10.752-10.991c-14.018-14.398-33.588-23.33-55.245-23.33s-41.227 8.932-55.228 23.313l-.017.017-10.513 10.854c-7.608 7.831-18.238 12.69-30.003 12.69s-22.395-4.859-29.993-12.68l-.01-.01c-16.668-17.189-39.975-27.858-65.775-27.858s-49.107 10.668-65.752 27.834l-.023.023c-3.234 3.377-5.224 7.967-5.224 13.022s1.991 9.645 5.231 13.029l-.007-.007a17.433 17.433 0 0012.659 5.427h.005a17.967 17.967 0 0012.662-5.324l.001-.001c10.29-10.553 24.647-17.098 40.533-17.098s30.243 6.545 40.522 17.087l.011.012c14.022 14.39 33.591 23.316 55.245 23.316s41.223-8.926 55.229-23.299l.016-.017 10.513-10.752c7.612-7.822 18.241-12.675 30.003-12.675s22.391 4.853 29.994 12.666l.009.009 10.752 10.991c13.997 14.4 33.55 23.334 55.191 23.334 21.523 0 40.982-8.838 54.945-23.082l.012-.013 11.435-11.537c7.559-7.747 18.102-12.552 29.768-12.552 11.783 0 22.421 4.902 29.986 12.777l.013.014 10.24 10.513c13.929 14.526 33.495 23.552 55.169 23.552h.062-.003.074c21.644 0 41.193-8.969 55.133-23.394l.021-.022 10.411-10.65c7.608-7.831 18.238-12.69 30.003-12.69s22.395 4.859 29.993 12.68l.01.01 10.513 10.752c14 14.382 33.546 23.305 55.177 23.305s41.177-8.922 55.16-23.288l.017-.017 10.513-10.752c7.608-7.831 18.238-12.69 30.003-12.69s22.395 4.859 29.993 12.68l.01.01c3.191 3.319 7.67 5.381 12.629 5.381s9.438-2.062 12.624-5.376l.005-.006a18.41 18.41 0 005.407-13.056c0-5.065-2.039-9.653-5.341-12.989l.002.002z"/></svg>