<svg width="64" height="64" viewBox="0 0 1023 1023" xmlns="http://www.w3.org/2000/svg"><path d="M400.93 610.362L0 1011.292l33.075 33.075 399.906-399.906c-3.072-2.731-5.803-5.461-8.533-8.192a331.837 331.837 0 01-23.056-25.327l-.462-.58zm-212.07-365.5c-8.42 3.446-14.243 11.575-14.243 21.065 0 2.336.353 4.589 1.008 6.71l-.043-.161c23.042 72.515 73.651 130.565 139.21 162.926l1.59.71c2.959 1.722 6.513 2.739 10.304 2.739.205 0 .41-.003.614-.009l-.03.001h.05c4.954 0 9.55-1.532 13.341-4.147l-.079.051c130.72-95.431 281.211-175.277 442.543-232.134l12.25-3.762c1.607-.566 2.737-2.071 2.737-3.84 0-2.017-1.47-3.69-3.396-4.008l-.024-.003c-63.702-14.734-136.85-23.179-211.97-23.179l-2.229.002h.115-.243c-141.178 0-275.742 28.312-398.327 79.568l6.821-2.529zm138.069 165.683c-28.013-15.194-52.047-33.461-72.92-54.828l-.057-.058c-22.693-23.8-40.143-52.811-50.364-85.04l-.426-1.557c111.757-46.493 241.568-73.535 377.684-73.626h.035c43.43.052 86.142 2.903 128.027 8.383l-4.977-.532c-143.983 58.425-268.146 128.011-382.092 210.804l5.123-3.546zM168.038 226.498c121.491-52.999 263.044-83.836 411.798-83.836 64.588 0 127.818 5.813 189.195 16.945l-6.425-.967a3.893 3.893 0 004.428-2.363l.009-.026a4.266 4.266 0 00.337-1.676 4.33 4.33 0 00-1.692-3.437l-.01-.008C658.483 69.474 522.698 20.308 375.429 20.308c-96.114 0-187.337 20.942-269.354 58.513l4.038-1.657c-23.177 13.312-6.144 101.922 32.017 143.872 4.232 4.498 10.223 7.299 16.869 7.299a23.06 23.06 0 009.188-1.896l-.15.058zm684.92 22.153a4.793 4.793 0 00-3.69-3.408l-.03-.005h-.341a4.473 4.473 0 00-4.085 2.702l-.011.029c-60.847 174.899-141.53 326.547-241.679 463.019l3.394-4.848c-2.661 3.719-4.254 8.359-4.254 13.372 0 4.801 1.462 9.261 3.965 12.958l-.052-.081c38.745 61.596 93.257 110.089 157.946 140.52l2.275.962c2.322.867 5.005 1.369 7.805 1.369.136 0 .272-.001.408-.004h-.02c9.404-.119 17.459-5.772 21.069-13.846l.059-.148c50.848-117.029 80.429-253.344 80.429-396.568 0-76.534-8.447-151.096-24.459-222.803l1.272 6.78zm-8.499 305.118c-10.358 107.957-35.971 207.208-74.797 299.535l2.502-6.705c-58.623-29.164-106.449-72.392-140.305-125.405l-.836-1.4c79.98-109.747 150.344-234.922 205.26-368.094l4.387-12.015c5.049 37.306 7.931 80.427 7.931 124.221 0 31.641-1.505 62.93-4.446 93.8l.303-3.937zm47.855-275.798a4.164 4.164 0 00-7.506 3.096l-.003-.024c10.183 55.013 16.006 118.312 16.006 182.972 0 150.618-31.598 293.856-88.526 423.446l2.65-6.763c-1.155 2.642-1.827 5.721-1.827 8.957 0 7.672 3.778 14.461 9.574 18.61l.069.047c45.329 31.027 136.533 47.377 143.189 25.907.341-.683.683-1.707 1.024-2.389 35.516-77.555 56.222-168.241 56.222-263.762 0-147.226-49.188-282.963-132.026-391.675l1.155 1.58zm-66.56-59.869a4.487 4.487 0 00-3.013-1.156c-.384 0-.758.048-1.114.139l.031-.007c-175.822 59.176-328.45 138.708-465.852 238.006l5.052-3.475c-5.809 4.201-9.544 10.957-9.544 18.586 0 3.146.635 6.143 1.784 8.871l-.056-.15c21.437 54.29 51.567 100.785 89.14 140.109l-.154-.163c33.304 33.066 73.388 59.352 117.978 76.584l2.342.796c2.397.948 5.173 1.498 8.078 1.498 7.639 0 14.39-3.802 18.464-9.618l.048-.072c97.383-133.71 178.079-287.969 234.352-453.515l3.591-12.166a3.55 3.55 0 00.282-1.401 3.61 3.61 0 00-1.401-2.859l-.008-.006z"/></svg>