<svg width="64" height="64" viewBox="0 0 858 858" xmlns="http://www.w3.org/2000/svg"><path d="M234.496 608.485c-5.312-.708-11.453-1.113-17.688-1.113-1.378 0-2.751.02-4.119.059l.201-.005h-14.746v42.189h16.452c1.443.106 3.127.167 4.824.167 6.704 0 13.187-.946 19.323-2.712l-.492.121c3.815-1.475 6.964-3.965 9.208-7.14l.042-.062c2.152-3.266 3.433-7.271 3.433-11.576 0-5.119-1.811-9.814-4.828-13.481l.029.037c-2.847-3.474-6.919-5.853-11.547-6.475l-.093-.01zm95.642 63.795h40.448l-20.241-55.194zm451.823-816.947H75.776C33.926-144.667 0-110.741 0-68.891v872.482c0 41.85 33.926 75.776 75.776 75.776h706.219c41.85 0 75.776-33.926 75.776-75.776V-68.891c0-41.85-33.926-75.776-75.776-75.776h-.036.002zM444.041-28.614c3.072.341 6.519.341 9.591.683 10.306 1.005 19.497 5.122 26.79 11.386l-.064-.054c15.9 14.05 29.087 30.733 38.967 49.433l.457.948c5.068 9.052 10.142 19.891 14.474 31.1l.613 1.804c-26.49 3.594-57.926 6.051-89.784 6.807l-1.045.02zm103.185 358.605c-30.408-4.549-66.103-7.516-102.353-8.213l-.833-.013v-82.603h116.053c-1.331 32.927-5.984 64.107-13.646 94.082l.676-3.117zm-103.185 28.433c32.989.568 64.805 3.031 96.05 7.291l-4.163-.465c-5.291 14.278-10.716 26.148-16.877 37.563l.766-1.552c-10.221 19.705-23.425 36.407-39.226 50.211l-.198.17a47.785 47.785 0 01-26.531 11.283l-.195.015c-2.822.377-6.145.624-9.514.682l-.078.001zm101.819 56.9c7.123-12.757 13.952-27.807 19.563-43.437l.679-2.165a625.647 625.647 0 0147.787 10.24h.341c-3.413 4.13-7.202 7.885-10.615 11.332-21.051 21.162-45.942 38.479-73.545 50.82l-1.549.619c6.135-7.921 11.858-16.84 16.768-26.25l.469-.988zm128.888-176.196c-3.708 41.065-16.878 78.414-37.296 110.726l.603-1.022-4.13-1.024c-18.159-4.779-37.376-9.25-56.9-13.039 7.322-28.202 12.218-60.957 13.622-94.615l.032-.958zM444.041 109.865c36.829-.771 72.181-3.612 106.903-8.423l-4.742.538c7.658 27.778 12.706 59.956 14.036 93.092l.027.843H444.212zm131.993-12.663c19.183-3.413 37.547-7.543 55.876-12.698l4.096-1.024c20.982 31.901 34.812 70.247 38.338 111.534l.062.902h-84.343c-1.218-35.551-6.299-69.344-14.846-101.73l.715 3.187zm35.635-45.261c-15.428 3.789-31.198 7.202-46.626 9.933-6.065-16.749-12.415-30.765-19.689-44.209l.847 1.713C540.245 8.58 534.459-.487 528.175-9.17l.549.797c29.115 13.047 53.992 30.339 75.097 51.408l-.003-.003c2.389 3.072 5.154 5.837 7.885 8.909zM377.856-16.633a47.892 47.892 0 0126.528-11.317l.198-.016c2.816-.373 6.139-.619 9.506-.681l.085-.001v101.82c-32.628-.572-64.085-3.035-94.97-7.29l4.107.463c5.088-13.15 10.158-23.986 15.85-34.434l-.763 1.53c10.187-19.481 23.142-36.042 38.579-49.896l.163-.144zM281.532 334.77c-19.524 3.755-38.741 7.885-56.9 13.039l-4.13 1.024c-20.116-31.203-33.336-68.619-36.636-108.844l-.057-.861h84.343c.918 34.441 5.719 67.333 13.983 98.822l-.671-3.01zm-37.376 45.568a570.387 570.387 0 0147.787-10.24c6.392 17.871 13.217 32.916 21.094 47.303l-.853-1.701c5.956 10.798 11.742 19.865 18.026 28.548l-.549-.797c-29.115-13.047-53.991-30.34-75.097-51.408l.004.003c-3.413-3.789-6.827-7.543-10.24-11.674zm78.165-15.087c27.294-3.98 59.12-6.448 91.448-6.823l.439-.004v105.233c-7.885-.341-15.428-1.365-22.972-2.389-5.066-3.098-9.435-6.262-13.543-9.725l.163.134c-15.893-14.056-29.078-30.737-38.966-49.432l-.458-.949c-5.409-9.817-10.854-21.628-15.506-33.83l-.673-2.01zm91.887-43.554c-37.082.71-72.776 3.677-107.779 8.775l4.594-.549c-7.282-26.866-12.085-58.001-13.354-90.043l-.026-.82h116.565zM312.047 101.946c30.401 4.641 65.77 7.494 101.732 7.881l.429.004v86.05H297.643c1.592-34.02 6.713-66.101 15.025-96.872l-.723 3.142zM329.523-8.441c-5.735 7.886-11.52 16.953-16.766 26.362l-.71 1.388c-6.663 11.909-13.021 25.935-18.223 40.51l-.618 1.986c-15.428-2.731-31.198-6.178-46.626-9.933h-.341c2.731-3.072 5.495-6.144 8.226-8.909 21.132-20.86 45.959-38.038 73.402-50.454l1.589-.643zM226.338 84.47c18.159 4.813 36.693 8.909 55.876 12.698-7.9 29.214-13.074 63.049-14.379 97.874l-.025.84h-84.343c3.72-42.217 17.661-80.55 39.308-113.349l-.566.913zm38.4 581.086c-4.512 3.141-9.769 5.614-15.42 7.123l-.35.079c-8.16 1.333-17.564 2.094-27.147 2.094-1.424 0-2.845-.017-4.261-.05l.21.004h-19.524v56.218h-30.174V581.895h48.333c2.245-.116 4.875-.183 7.52-.183 9.94 0 19.662.936 29.082 2.725l-.966-.153c8.871 2.504 16.294 7.703 21.532 14.643l.074.102c5.366 8.23 8.558 18.303 8.558 29.122a53.614 53.614 0 01-5.285 23.288l.14-.323c-2.82 6.013-7.045 10.961-12.27 14.564l-.121.079zm128.888 65.468l-13.039-33.929h-59.733l-12.356 33.929h-31.881l58.027-149.129h31.881l59.631 149.129zm155.306-19.525c-4.829 7.533-11.757 13.349-19.956 16.691l-.285.103c-8.777 3.512-18.95 5.549-29.599 5.549-1.042 0-2.08-.02-3.113-.058l.149.004c-1.2.078-2.601.122-4.013.122-14.908 0-28.66-4.944-39.708-13.282l.167.121c-10.332-9.623-17.094-22.962-18.149-37.877l-.01-.182 29.15-2.731c1.007 8.523 4.878 15.995 10.607 21.564l.008.008c6.303 4.3 14.088 6.865 22.472 6.865 7.944 0 15.35-2.304 21.586-6.28l-.162.097c4.426-3.342 7.318-8.514 7.542-14.369l.001-.035a13.36 13.36 0 00-3.09-8.931l.018.022a28.642 28.642 0 00-10.754-6.461l-.203-.058c-3.413-1.365-11.639-3.413-23.893-6.519-12.938-2.486-24.369-7.647-34.153-14.904l.224.159c-8.379-7.108-13.661-17.646-13.661-29.416 0-.266.003-.532.008-.797l-.001.04-.001-.289a36.825 36.825 0 016.601-21.098l-.08.121c4.605-6.634 10.879-11.812 18.224-14.981l.276-.106c8.15-3.279 17.599-5.181 27.492-5.181.703 0 1.404.01 2.102.029l-.103-.002a60.005 60.005 0 014.794-.186c14.102 0 27.102 4.714 37.512 12.652l-.151-.11c9.056 7.843 14.751 19.359 14.751 32.205 0 .246-.002.492-.006.737v-.037l-30.174 1.365c-.766-6.525-3.771-12.234-8.214-16.441l-.012-.012c-4.733-3.28-10.597-5.24-16.919-5.24-.797 0-1.586.031-2.367.092l.103-.007a31.46 31.46 0 00-2.214-.075 32.58 32.58 0 00-18.38 5.644l.114-.073c-2.917 2.077-4.8 5.442-4.813 9.248v.002l-.001.112c0 3.601 1.748 6.794 4.442 8.776l.03.021c8.001 4.741 17.35 8.217 27.315 9.869l.47.064c12.405 2.69 23.284 6.345 33.593 11.035l-1.03-.419c6.773 3.618 12.32 8.728 16.349 14.917l.103.17c3.694 6.24 5.878 13.754 5.878 21.777 0 .66-.015 1.317-.044 1.97l.003-.093a42.056 42.056 0 01-6.992 24.459l.098-.157zm138.855 0c-4.831 7.532-11.758 13.347-19.955 16.691l-.286.103c-8.777 3.512-18.95 5.549-29.599 5.549-1.042 0-2.08-.02-3.113-.058l.149.004c-1.2.078-2.601.122-4.013.122-14.908 0-28.66-4.944-39.708-13.282l.167.121c-10.335-9.622-17.098-22.961-18.149-37.877l-.01-.182 29.15-2.731c1.01 8.523 4.88 15.994 10.607 21.564l.008.008c6.305 4.296 14.089 6.859 22.472 6.859a40.055 40.055 0 0021.586-6.273l-.163.097c4.426-3.342 7.318-8.514 7.542-14.369l.001-.035a13.36 13.36 0 00-3.09-8.931l.018.022a28.642 28.642 0 00-10.754-6.461l-.203-.058c-3.413-1.365-11.639-3.413-23.893-6.519-12.938-2.486-24.369-7.647-34.153-14.904l.224.159c-8.379-7.108-13.661-17.646-13.661-29.416 0-.266.003-.532.008-.797l-.001.04-.001-.289a36.825 36.825 0 016.601-21.098l-.08.121c4.603-6.636 10.878-11.814 18.224-14.981l.276-.106c8.152-3.279 17.603-5.18 27.498-5.18.701 0 1.399.01 2.096.028l-.103-.002a60.005 60.005 0 014.794-.186c14.102 0 27.102 4.714 37.512 12.652l-.151-.11c9.056 7.843 14.751 19.359 14.751 32.205 0 .246-.002.492-.006.737v-.037l-30.174 1.365c-.766-6.525-3.771-12.234-8.214-16.441l-.012-.012c-4.733-3.28-10.597-5.24-16.919-5.24-.797 0-1.586.031-2.367.092l.103-.007a31.46 31.46 0 00-2.214-.075 32.58 32.58 0 00-18.38 5.644l.114-.073c-2.917 2.077-4.8 5.442-4.813 9.248v.002l-.001.112c0 3.601 1.748 6.794 4.442 8.776l.03.021c7.991 4.737 17.328 8.213 27.28 9.868l.471.065c12.404 2.689 23.283 6.344 33.592 11.035l-1.029-.419c6.773 3.617 12.321 8.727 16.349 14.917l.103.17c3.694 6.24 5.878 13.754 5.878 21.777 0 .66-.015 1.317-.044 1.97l.003-.093c.053.748.083 1.621.083 2.501a37.37 37.37 0 01-7.055 21.913l.076-.111z"/></svg>