<svg width="64" height="64" viewBox="0 0 1000 1000" xmlns="http://www.w3.org/2000/svg"><path d="M399.36 837.013c-10.24 0-17.067 10.24-17.067 27.307 0 13.653 6.827 27.307 20.48 27.307 10.24 0 17.067-10.24 17.067-27.307 0-13.653-6.827-27.307-20.48-27.307zm-273.067 0c0 3.413-3.413 10.24-3.413 13.653l-3.413 17.067h17.067l-3.413-17.067c-3.413-3.413-3.413-6.827-6.827-13.653zm-64.853 0h-6.827v23.893h6.827c10.24 0 13.653-3.413 13.653-13.653s-3.413-10.24-13.653-10.24zm262.827 0h-6.827v23.893h6.827c10.24 0 13.653-3.413 13.653-13.653s-6.827-10.24-13.653-10.24zm150.186 0h-6.827v20.48h6.827c10.24 0 13.653-3.413 13.653-10.24s-6.827-10.24-13.653-10.24zm512-590.507L488.106.746c-3.572-2.279-7.926-3.633-12.596-3.633-9.518 0-17.724 5.622-21.476 13.726l-.061.146v3.413l-10.24 17.067-58.027 119.467h208.213c.204-.003.445-.004.687-.004 29.785 0 53.931 24.146 53.931 53.931 0 .242-.002.483-.005.724v-.037 785.067c3.413-3.413 6.827-6.827 6.827-10.24L996.692 280.64c2.09-3.52 3.325-7.76 3.325-12.289 0-9.523-5.462-17.771-13.425-21.781l-.14-.064zm-593.92 375.467c-21.159-7.407-45.621-12.3-71.028-13.626l-.652-.027v98.987c35.417-16.138 61.748-46.947 71.484-84.445l.196-.888zm10.24-211.627c-23.222 8.669-50.054 13.686-78.058 13.686-1.358 0-2.714-.012-4.066-.035l.204.003v54.613h92.16c-.33-24.445-4.048-47.894-10.705-70.071l.465 1.805zm-81.92-109.226v92.16c.95.018 2.071.029 3.194.029 24.715 0 48.255-5.03 69.652-14.122l-1.167.44c-9.305-36.899-36.136-65.984-70.902-78.267l-.778-.24zm116.054 300.373c12.382 6.794 21.932 17.447 27.162 30.317l.145.403a195.787 195.787 0 0047.734-111.893l.053-.747h-64.853c.256 4.025.402 8.728.402 13.465 0 24.455-3.893 48-11.093 70.05l.451-1.595zM167.253 659.52a140.716 140.716 0 0036.645 23.538l.902.355c-9.444-12.781-17.499-27.432-23.471-43.111l-.422-1.263c-6.298 5.288-11.041 12.236-13.569 20.172l-.085.308zM440.32 335.253c-12.781-10.015-27.255-20.141-42.262-29.494l-2.111-1.226c12.167 14.724 22.484 31.614 30.217 49.865l.503 1.335c6.827 0 13.653-10.24 13.653-20.48zm-37.547 348.16c13.179-6.286 24.457-14.291 34.141-23.901l-.008.008c-1.215-8.776-6.337-16.15-13.523-20.409l-.13-.071c-3.514 17.019-10.674 31.972-20.65 44.596l.17-.223zm47.787-201.387h64.853c-4.817-44.006-20.731-83.556-44.857-116.752l.484.699c-6.671 13.427-17.293 24.049-30.331 30.545l-.389.175c3.413 27.307 6.827 54.613 10.24 85.333zm-37.547 37.547h-92.16v51.2c29.704.799 57.743 6.995 83.477 17.637l-1.557-.571c6.192-20.373 9.91-43.822 10.238-68.089l.002-.177zm-211.626-204.8c-13.136 5.085-24.447 12.008-34.266 20.593l.132-.113a29.469 29.469 0 0010.201 20.447l.039.033c5.446-15.849 13.59-29.492 23.99-41.069l-.096.109zm-34.134 78.507c-10.804-7.432-19.874-16.502-27.079-26.957l-.228-.349c-26.615 32.627-44.024 73.713-47.735 118.684l-.052.782h61.44c.754-33.093 5.69-64.721 14.299-94.797l-.646 2.637zm116.054 307.2v-92.16c-25.637 2.902-48.784 7.701-71.117 14.386l2.851-.733c8.831 36.128 34.241 64.911 67.51 78.239l.757.268zm324.266-484.694c.013-.31.02-.673.02-1.038 0-13.702-10.444-24.964-23.806-26.261l-.108-.008H27.306a24.143 24.143 0 00-2.289-.105c-13.875 0-25.122 11.248-25.122 25.122 0 .806.038 1.603.112 2.39l-.008-.101v778.24c-.002.112-.003.245-.003.378 0 14.874 12.058 26.931 26.931 26.931.133 0 .266-.001.398-.003h552.94c14.652-1.021 26.286-12.655 27.302-27.214l.005-.092zM58.027 475.2c10.872-119.791 105.489-214.408 224.316-225.209l.964-.071v-3.413h37.547v3.413c126.862 10.052 226.001 115.475 226.001 244.053 0 135.185-109.589 244.774-244.774 244.774-6.607 0-13.153-.262-19.628-.776l.855.055c-127.002-11.218-225.85-117.091-225.85-246.051 0-5.903.207-11.757.614-17.556l-.044.781zm3.413 399.36h-6.827v27.307H37.546V823.36h23.893a31.571 31.571 0 013.698-.211 32.36 32.36 0 0120.261 7.088l-.065-.05c6.827 3.413 6.827 10.24 6.827 17.067a25.995 25.995 0 01-6.844 17.086l.018-.019c-5.696 6.306-13.902 10.252-23.03 10.252-.304 0-.606-.004-.908-.013l.044.001zm81.92 27.306l-6.827-20.48h-20.48l-6.827 20.48H92.159l23.893-78.507h23.893l23.893 78.507zm47.787 0c-.998.082-2.16.128-3.332.128a43.124 43.124 0 01-17.425-3.651l.277.109 3.413-13.653c5.054 2.239 10.949 3.542 17.148 3.542 1.173 0 2.335-.047 3.484-.138l-.152.01c6.827 0 10.24-3.413 10.24-6.827s-3.413-6.827-13.653-10.24c-10.24-6.827-20.48-13.653-20.48-23.893 0-13.653 10.24-23.893 30.72-23.893.998-.082 2.16-.128 3.332-.128a43.124 43.124 0 0117.425 3.651l-.277-.109-3.413 13.653c-3.776-2.324-8.351-3.7-13.248-3.7-1.348 0-2.671.104-3.963.305l.144-.018c-6.827 0-10.24 3.413-10.24 6.827s3.413 6.827 13.653 10.24c11.517 2.136 20.17 11.96 20.479 23.861l.001.032c0 13.653-10.24 23.893-34.133 23.893zm64.853 0c-.998.082-2.16.128-3.332.128a43.124 43.124 0 01-17.425-3.651l.277.109v-13.653c5.054 2.239 10.949 3.542 17.148 3.542 1.173 0 2.335-.047 3.484-.138l-.152.01c6.827 0 13.653-3.413 13.653-6.827s-3.413-6.827-13.653-10.24c-11.553-1.079-20.525-10.726-20.525-22.47 0-.501.016-.998.048-1.49l-.003.067c0-13.653 10.24-23.893 30.72-23.893.998-.082 2.16-.128 3.332-.128a43.124 43.124 0 0117.425 3.651l-.277-.109-3.413 13.653c-3.776-2.324-8.351-3.7-13.248-3.7-1.348 0-2.671.104-3.963.305l.144-.018c-6.827 0-10.24 3.413-10.24 6.827s3.413 6.827 13.653 10.24c11.517 2.136 20.17 11.96 20.479 23.861l.001.032c-2.655 13.92-14.73 24.3-29.23 24.3-1.732 0-3.429-.148-5.08-.432l.177.025zm92.16-34.133c-4.174 4.823-10.304 7.857-17.143 7.857-2.41 0-4.732-.377-6.911-1.075l.16.044h-6.827v27.307h-17.067v-78.507h23.893a31.571 31.571 0 013.698-.211 32.36 32.36 0 0120.261 7.088l-.065-.05c6.827 3.413 6.827 10.24 6.827 17.067-.767 7.66-3.207 14.618-6.947 20.69l.12-.21zm88.747-6.827c.22 1.497.346 3.225.346 4.982 0 19.35-15.261 35.135-34.404 35.975l-.076.003h-6.827c-20.659-.191-37.355-16.888-37.547-37.528v-3.431a36.973 36.973 0 01-.113-2.939c0-19.711 14.917-35.937 34.077-38.006l.169-.015H396.1c19.535 0 35.585 14.918 37.38 33.984l.011.15zm51.2 40.96c-3.413-6.827-3.413-10.24-6.827-17.067-3.413-10.24-6.827-13.653-13.653-13.653H460.8v30.72h-17.067v-78.507h23.893a27.978 27.978 0 014.806-.404 28.703 28.703 0 0119.117 7.256l-.03-.026a25.964 25.964 0 016.826 17.039v.028c-.23 9.104-5.706 16.874-13.509 20.421l-.145.059c6.827 3.413 6.827 6.827 10.24 13.653.767 7.66 3.207 14.618 6.947 20.69l-.12-.21h-13.653zm85.333-61.44h-20.48v61.44h-17.067v-61.44H512v-13.653h58.027v13.653zM167.253 601.493c-5.853-24.029-10.675-53.116-13.461-82.795l-.193-2.538H95.572c4.846 42.858 20.766 81.269 44.8 113.232l-.426-.592c7.432-10.805 16.502-19.875 26.957-27.079l.35-.228zm116.054-81.92h-92.16c.061 24.375 3.8 47.854 10.69 69.942l-.45-1.675c23.933-8.371 51.757-14.416 80.585-16.971l1.335-.095zm0-225.28c-37.547 6.827-61.44 47.787-71.68 78.507 20.932 8.355 45.215 14.387 70.518 16.971l1.162.096v-95.573zm0 187.733v-54.613c-29.704-.799-57.743-6.995-83.477-17.637l1.557.571c-6.447 21.458-10.184 46.122-10.24 71.65v.03h92.16z"/></svg>