<svg width="64" height="64" viewBox="0 0 1172 1172" xmlns="http://www.w3.org/2000/svg"><path d="M536.986 169.333l-68.437 166.639H.001v825.276h687.07v-38.366l171.93 70.417 313.446-763.46zM67.755 957.267V405.741h551.526v551.526zm474.18-621.227l31.403-76.39 510.191 209.306-209.306 510.191-186.846-76.698V336.04zM420.591 504.249c-23.161 8.081-39.48 29.736-39.48 55.203 0 32.217 26.117 58.334 58.334 58.334s58.334-26.117 58.334-58.334a58.24 58.24 0 00-3.243-19.226l.124.409c-8.028-23.19-29.68-39.545-55.152-39.545a58.142 58.142 0 00-19.326 3.284l.408-.125zm118.374 74.718l-25.122-24.474 21.47-27.785-34.133-8.602 4.949-34.714-33.724 9.591-13.244-32.734-24.474 25.122-27.75-21.47-8.602 34.133-34.714-4.949 9.591 33.724-32.734 13.21 25.122 24.474-21.504 27.75 34.133 8.602-4.949 34.714 33.724-9.591 13.244 32.734 24.439-25.122 27.785 21.504 8.602-34.133 34.714 4.949-9.591-33.724zm-80.35 35.704c-5.62 1.983-12.1 3.129-18.847 3.129-32.217 0-58.334-26.117-58.334-58.334s26.117-58.334 58.334-58.334c25.463 0 47.115 16.314 55.075 39.061l.125.409c1.961 5.6 3.093 12.057 3.093 18.778 0 25.479-16.278 47.156-39.002 55.199l-.41.126zM253.611 584.94L87.962 803.837v115.712h419.26zm348.194 142.848l-42.667-56.559-102.4 135.578 72.704 95.881 12.595 16.862h59.836zm283.614-205.994c-6.817-1.702-14.642-2.678-22.696-2.678-1.093 0-2.182.018-3.267.054l.158-.004c11.389-7.519 25.363-11.996 40.382-11.996a73.831 73.831 0 0125.599 4.549l-.513-.166c-2.124-9.965-6.521-18.676-12.632-25.89l.071.085c-12.878-13.099-30.787-21.216-50.592-21.216-19.14 0-36.509 7.581-49.269 19.904l.02-.02a90.302 90.302 0 00-12.105 12.705l-.149.197a77.084 77.084 0 00-10.135-10.494l-.105-.087c-15.09-14.226-35.484-22.969-57.921-22.969a84.515 84.515 0 00-24.598 3.635l.599-.156v43.964c15.915 3.705 29.741 11.095 41.046 21.239l-.086-.076a83.633 83.633 0 0113.477 14.959l.176.265C749.212 536.032 731.386 529 711.918 529c-1.381 0-2.753.035-4.116.105l.191-.008v67.106c10.072-5.13 21.966-8.135 34.561-8.135 12.074 0 23.503 2.762 33.69 7.688l-.462-.202v1.98c-18.258 48.099-41.102 89.686-68.826 127.468l1.038-1.482v118.374c40.004-40.687 66.458-120.354 89.6-238.387 23.87 15.325 39.46 41.735 39.46 71.785 0 29.78-15.31 55.984-38.488 71.171l-.324.199c7.851 2.591 16.887 4.085 26.273 4.085 3.794 0 7.53-.244 11.195-.718l-.433.046c41.891-5.891 73.771-41.496 73.771-84.546 0-38.404-25.37-70.883-60.264-81.592l-.605-.16a107.29 107.29 0 0123.524 2.805l-.723-.143c33.839 6.561 60.922 30.247 72.187 61.491l.21.666a68.594 68.594 0 0015.777-29.944l.095-.469c.428-3.232.673-6.969.673-10.764 0-43.533-32.174-79.551-74.039-85.574l-.464-.055z"/></svg>