<svg width="64" height="64" viewBox="0 0 889 889" xmlns="http://www.w3.org/2000/svg"><path d="M462.234 498.617c1.767 8.067 8.851 14.016 17.325 14.016a17.79 17.79 0 003.681-.383l-.116.02 284.092-61.781c4.772-1.021 8.725-3.924 11.119-7.877l.043-.076c1.751-2.749 2.791-6.099 2.791-9.693 0-1.404-.159-2.77-.459-4.083l.024.122c-77.346-263.202-233.199-460.8-427.895-542.72H351.174c-9.784 0-17.715 7.931-17.715 17.715 0 1.33.147 2.626.425 3.873l-.022-.118zm-274.705 77.619l224.393-48.538c4.697-1.023 8.615-3.793 11.121-7.58l.041-.066a15.976 15.976 0 002.868-9.176 16.1 16.1 0 00-.539-4.146l.025.112-71.475-329.079c-1.422-7.143-7.15-12.617-14.313-13.643l-.091-.011a9.163 9.163 0 00-2.326-.293c-.214 0-.427.007-.638.021l.029-.002h-.019c-6.49 0-12.163 3.504-15.228 8.723l-.045.083-4.983 8.533C249.891 294.087 192.24 391.743 166.162 556.436a17.461 17.461 0 00-.196 2.651c0 5.079 2.101 9.668 5.482 12.944l.005.005a19.684 19.684 0 0012.579 4.51c1.236 0 2.446-.113 3.62-.33l-.122.019zm-21.743 179.712a14.9 14.9 0 009.707-3.835l-.013.012 10.24-10.24c18.721-18.537 44.486-29.989 72.926-29.989s54.205 11.453 72.934 29.998l10.232 10.232a13.098 13.098 0 009.715 3.823l-.021.001a14.9 14.9 0 009.707-3.835l-.013.012 10.889-10.889c18.638-18.354 44.236-29.688 72.48-29.688 28.398 0 54.121 11.457 72.797 30.001l9.995 9.995a14.52 14.52 0 009.67 4.129l.024.001a14.835 14.835 0 009.707-3.834l-.013.012 10.001-10.001c18.721-18.537 44.486-29.989 72.926-29.989s54.205 11.453 72.934 29.998l10.232 10.232a13.064 13.064 0 009.716 3.822l-.022.001a14.9 14.9 0 009.707-3.835l-.013.012 10.24-10.24a101.726 101.726 0 0134.605-22.698l.689-.239c.887-1.775 2.048-3.209 2.935-4.983l106.155-216.439c1.207-2.499 1.912-5.434 1.912-8.533 0-4.502-1.487-8.656-3.997-11.998l.037.052c-3.633-4.571-9.192-7.475-15.429-7.475-1.414 0-2.792.149-4.121.433l.129-.023L111.653 633.45c-10.787 2.455-18.717 11.965-18.717 23.326 0 3.14.606 6.139 1.707 8.886l-.057-.161 24.098 61.167c14.744 6.205 27.336 14.747 37.926 25.296l-.004-.004c1.889 2.469 4.837 4.045 8.154 4.045.362 0 .72-.019 1.072-.055l-.044.004zm705.501 90.01c-14.489-14.36-34.437-23.232-56.457-23.232s-41.967 8.873-56.462 23.238l-10.234 10.234c-6.655 6.548-15.792 10.591-25.873 10.591s-19.218-4.043-25.878-10.596l-10.235-10.235c-14.489-14.36-34.437-23.232-56.457-23.232s-41.967 8.873-56.462 23.238l-9.995 9.995c-6.628 6.541-15.739 10.581-25.793 10.581h-.084.004-.159c-10.086 0-19.197-4.17-25.705-10.88l-10.01-10.01c-14.546-14.363-34.543-23.234-56.613-23.234-21.915 0-41.788 8.748-56.316 22.942l-10.874 10.874c-6.655 6.548-15.792 10.591-25.873 10.591s-19.218-4.043-25.878-10.596l-10.235-10.235c-14.495-14.361-34.448-23.235-56.474-23.235s-41.979 8.874-56.48 23.241l-10.234 10.234c-6.655 6.548-15.792 10.591-25.873 10.591s-19.218-4.043-25.878-10.596l.005.005c-17.167-16.909-40.747-27.351-66.765-27.351s-49.598 10.441-66.777 27.362l.012-.012C3.25 860.137.78 865.576.78 871.591s2.47 11.454 6.451 15.357l.004.003a21.845 21.845 0 0015.279 6.451h.013l.179.001a21.5 21.5 0 0015.116-6.182l-.003.003C47.082 877.972 59.873 872.25 74 872.25s26.918 5.722 36.182 14.974l-.001-.001c14.493 14.351 34.439 23.218 56.457 23.218s41.964-8.867 56.463-23.225l-.007.006 10.24-10.24c6.655-6.548 15.792-10.591 25.873-10.591s19.218 4.043 25.878 10.596l10.235 10.235c14.332 14.341 34.137 23.212 56.013 23.212l.467-.001h-.024.124c21.841 0 41.638-8.756 56.071-22.949l-.011.011 11.162-10.889c6.658-6.54 15.794-10.577 25.873-10.577s19.215 4.037 25.879 10.583l9.996 9.996c14.435 14.491 34.392 23.472 56.448 23.518h.009l.457.001c21.872 0 41.672-8.871 55.998-23.211l10.002-10.002c6.655-6.548 15.792-10.591 25.873-10.591s19.218 4.043 25.878 10.596l10.235 10.235c14.493 14.351 34.439 23.218 56.457 23.218s41.964-8.867 56.463-23.225l-.007.006 10.24-10.24c6.655-6.548 15.792-10.591 25.873-10.591s19.218 4.043 25.878 10.596l-.005-.005a21.531 21.531 0 0015.127 6.179l.174-.001h-.009l.281.002a20.626 20.626 0 0015.002-6.444l.008-.009a21.408 21.408 0 006.469-15.36 21.406 21.406 0 00-6.431-15.323l-.003-.003zM72.875 784.176h.173c14.075 0 26.812 5.729 36.006 14.982l.003.003c14.489 14.36 34.437 23.232 56.457 23.232s41.967-8.873 56.462-23.238l10.234-10.234c6.655-6.548 15.792-10.591 25.873-10.591s19.218 4.043 25.878 10.596l10.235 10.235c14.336 14.361 34.154 23.246 56.047 23.246l.432-.001h-.022.124c21.841 0 41.638-8.756 56.071-22.949l-.011.011 11.162-10.889c6.655-6.548 15.791-10.59 25.872-10.59 10.234 0 19.495 4.166 26.179 10.896l10.003 10.003c14.439 14.485 34.394 23.464 56.446 23.518h.01l.424.001c21.889 0 41.703-8.885 56.032-23.245l10.002-10.002c6.658-6.54 15.794-10.577 25.873-10.577s19.215 4.037 25.879 10.583l10.235 10.235c14.489 14.36 34.437 23.232 56.457 23.232s41.967-8.873 56.462-23.238l10.234-10.234c6.658-6.54 15.794-10.577 25.873-10.577s19.215 4.037 25.879 10.583l-.005-.005a21.502 21.502 0 0015.113 6.179l.188-.001h-.01l.281.002a20.626 20.626 0 0015.002-6.444l.008-.009c3.984-3.906 6.454-9.345 6.454-15.36s-2.47-11.454-6.451-15.357l-.004-.003c-14.489-14.36-34.437-23.232-56.457-23.232s-41.967 8.873-56.462 23.238l-10.234 10.234c-6.658 6.54-15.794 10.577-25.873 10.577s-19.215-4.037-25.879-10.583l-10.235-10.235c-14.489-14.36-34.437-23.232-56.457-23.232s-41.967 8.873-56.462 23.238l-9.995 9.995c-6.628 6.541-15.739 10.581-25.793 10.581h-.084.004-.174c-10.081 0-19.188-4.17-25.69-10.88l-10.01-10.01c-14.548-14.345-34.537-23.204-56.596-23.204-21.922 0-41.8 8.749-56.333 22.946l.016-.015-10.889 10.889c-6.658 6.54-15.794 10.577-25.873 10.577s-19.215-4.037-25.879-10.583l-10.235-10.235C300.35 743.874 280.397 735 258.371 735s-41.979 8.874-56.48 23.241l-10.234 10.234c-6.658 6.54-15.794 10.577-25.873 10.577s-19.215-4.037-25.879-10.583l.005.005c-17.167-16.909-40.747-27.351-66.765-27.351s-49.598 10.441-66.777 27.362l.012-.012c-3.993 3.902-6.469 9.342-6.469 15.36s2.476 11.458 6.465 15.356l.004.004a21.808 21.808 0 0015.278 6.485h.014l.179.001a21.5 21.5 0 0015.116-6.182l-.003.003c8.986-9.449 21.652-15.326 35.691-15.326l.229.001h-.012z"/></svg>