<svg width="64" height="64" viewBox="0 0 1140 1140" xmlns="http://www.w3.org/2000/svg"><path d="M975.189 622.47v-24.064c-.097-142.288-115.418-257.61-257.697-257.707H257.707C115.419 340.796.097 456.117 0 598.396v24.073c.097 142.288 115.418 257.61 257.697 257.707h459.785c142.288-.097 257.61-115.418 257.707-257.697v-.009zM277.265 822.901c-117.349 0-212.48-95.131-212.48-212.48s95.131-212.48 212.48-212.48h420.727c117.349 0 212.48 95.131 212.48 212.48s-95.131 212.48-212.48 212.48c-52.172-6.927-97.105-33.47-127.907-71.842l-.298-.384c-16.757-17.66-40.398-28.648-66.605-28.648-26.991 0-51.261 11.655-68.049 30.207l-.07.079c-38.842 43.421-95.042 70.622-157.595 70.622h-.251.013zm836.881-685.568h-80.35c-14.179.039-25.664 11.523-25.702 25.699v136.537c.011 13.353 10.284 24.302 23.357 25.389l.092.006V817.61c-.117 104.54-84.832 189.255-189.361 189.372h-250.55c-17.151-41.139-57.04-69.53-103.561-69.53-61.795 0-111.889 50.094-111.889 111.889s50.094 111.889 111.889 111.889h.072-.004.234c46.467 0 86.288-28.456 102.987-68.892l.271-.74H842.17c151.434-.136 274.159-122.861 274.295-274.282v-492.25c13.013-1.245 23.108-12.12 23.108-25.354v-.043.002-136.533l.002-.307c0-14.059-11.378-25.46-25.428-25.498h-.004z"/></svg>