<svg width="64" height="64" viewBox="0 0 1061 1061" xmlns="http://www.w3.org/2000/svg"><path d="M946.517 228.112H711.611v-61.44c-.097-59.84-48.57-108.325-108.396-108.442H458.718c-59.852.097-108.345 48.59-108.442 108.432v61.449H115.37C51.656 228.15.019 279.799-.001 343.514V909.276c0 63.642 51.592 115.234 115.234 115.234h33.963a55.927 55.927 0 00-.171 4.447c0 32.047 25.979 58.027 58.027 58.027s58.027-25.979 58.027-58.027a58.65 58.65 0 00-.184-4.65l.013.202h531.456c0 31.953 25.903 57.856 57.856 57.856s57.856-25.903 57.856-57.856h33.963c63.642 0 115.234-51.592 115.234-115.234v-.18.009-565.589c.002-.274.004-.598.004-.922 0-63.227-51.256-114.483-114.483-114.483h-.292.015zm-515.618-61.44c.019-15.356 12.463-27.799 27.817-27.819h144.488c15.356.019 27.799 12.463 27.819 27.817v61.442H431.206v-61.44zm-193.16 734.72h-.034c-51.86 0-93.901-42.041-93.901-93.901s42.041-93.901 93.901-93.901 93.901 42.041 93.901 93.901v.034c0 51.848-42.021 93.881-93.865 93.901h-.002zm152.712-378.88l61.44-165.001 165.001 61.44-61.44 165.035zm266.24 355.67l-40.789-141.005 310.135-89.463 40.789 141.005z"/></svg>