<svg width="64" height="64" viewBox="0 0 831 831" xmlns="http://www.w3.org/2000/svg"><path d="M729.975 223.734h-97.314v-29.389h-42.598v-316.348h53.726v-49.664H187.734v49.664h53.555v316.314h-42.564V223.7h-97.348C45.447 223.874.156 269.177.001 325.095v372.068c.174 55.918 45.458 101.202 101.359 101.376h29.406c0 29.681 24.062 53.743 53.743 53.743s53.743-24.062 53.743-53.743h353.86c0 29.681 24.062 53.743 53.743 53.743s53.743-24.062 53.743-53.743h30.413c55.918-.174 101.202-45.458 101.376-101.359V325.11c-.174-55.93-45.477-101.221-101.395-101.376h-.015zM258.526-122.003h314.3v316.314h-42.564V223.7H301.125v-29.389h-42.598zm-97.314 770.56l-75.878-84.173 224.051-201.762 76.049 84.139zM471.45 301.831h121.651v113.596H471.45zm154.112 398.438C562.844 700.269 512 649.426 512 586.707s50.843-113.562 113.562-113.562c62.718 0 113.562 50.843 113.562 113.562v.205c0 62.605-50.752 113.357-113.357 113.357h-.216.011z"/></svg>