<svg width="64" height="64" viewBox="0 0 1024 1024" xmlns="http://www.w3.org/2000/svg"><path d="M1024 633.958L894.293 507.46l111.275-142.848-175.514-44.851 24.917-179.371-174.421 48.708-68.267-167.765L485.785 151.04 342.937 39.765l-44.851 175.514-179.371-24.917 48.708 174.387L-.342 432.845l129.707 126.532L18.09 702.225l175.514 44.851-25.19 179.371 174.387-48.708 68.267 167.765 126.498-129.707 142.848 111.275 44.851-175.514 179.405 25.19-48.708-174.387zM609.314 817.493c-28.867 10.159-62.153 16.028-96.81 16.028-165.892 0-300.373-134.482-300.373-300.373s134.482-300.373 300.373-300.373c131.116 0 242.611 84.009 283.594 201.138l.642 2.106c10.228 28.959 16.137 62.354 16.137 97.129 0 131.235-84.162 242.813-201.456 283.705l-2.108.64z"/></svg>