<svg width="64" height="64" viewBox="0 0 1024 1024" xmlns="http://www.w3.org/2000/svg"><path d="M402.644 1022.851c-.937-1.61-2.206-3.265-3.713-4.772a24.751 24.751 0 00-.943-.895l.044.041c-13.308-13.079-34.092-13.965-48.404-2.67l-.134.11-41.897-41.897c11.405-14.446 10.519-35.229-2.548-48.526l-.012-.012c-13.308-13.079-34.092-13.965-48.404-2.67l-.134.11-41.897-41.897c11.405-14.446 10.519-35.229-2.548-48.526l-.012-.012c-13.308-13.079-34.092-13.965-48.404-2.67l-.134.11-41.897-41.897c11.405-14.446 10.519-35.229-2.548-48.526l-.012-.012c-13.308-13.079-34.092-13.965-48.404-2.67l-.134.11-41.897-41.897c11.405-14.446 10.519-35.229-2.548-48.526l-.012-.012c-1.014-1.014-2.536-1.521-3.574-2.56L616.229 48.934a9.142 9.142 0 001.997 2.966c.206.206.419.4.639.583l-.028-.024.241.244c13.977 13.977 36.637 13.977 50.614 0l.254-.257-.013.013c1.014-1.014 1.014-2.028 2.053-3.067l41.921 41.921a6.44 6.44 0 00-2.666 1.613 6.66 6.66 0 00-.418.459l.017-.02c-13.723 14.914-13.353 38.048 1.058 52.459a38.262 38.262 0 003.13 2.805l-.131-.109.241.244c13.977 13.977 36.637 13.977 50.614 0l.254-.257-.013.013c1.014-1.014 1.014-2.028 2.053-3.067l41.897 41.897a6.44 6.44 0 00-2.666 1.613 6.66 6.66 0 00-.418.459l.017-.02c-14.11 14.11-14.11 36.987 0 51.097s36.987 14.11 51.097 0c1.014-1.014 1.014-2.028 2.053-3.067l41.897 41.897a6.726 6.726 0 00-3.082 2.071l.016-.018c-14.11 14.11-14.11 36.987 0 51.097s36.987 14.11 51.097 0c1.014-1.014 1.014-2.028 2.053-3.067l41.897 41.897a6.44 6.44 0 00-2.666 1.613 6.66 6.66 0 00-.418.459l.017-.02-.244.241c-13.977 13.977-13.977 36.637 0 50.614l.231.229-.012-.012a25.009 25.009 0 005.775 4.708l-.149-.096zm395.085-464.583l5.119 5.119c4.234 4.234 11.1 4.234 15.334 0s4.234-11.1 0-15.334l-5.216-5.216c-4.234-4.234-11.1-4.234-15.334 0s-4.234 11.1 0 15.334zm-.507-202.868l89.927 89.927c4.234 4.234 11.1 4.234 15.334 0s4.234-11.1 0-15.334l-89.927-89.927c-4.234-4.234-11.1-4.234-15.334 0s-4.234 11.1 0 15.334zM564.628 189.455l289.196 289.196c4.234 4.234 11.1 4.234 15.334 0s4.234-11.1 0-15.334L579.962 174.121c-4.234-4.234-11.1-4.234-15.334 0s-4.234 11.1 0 15.334zm91.473 449.153h12.267c2.783-.24 5.523-1.434 7.671-3.582s3.343-4.888 3.585-7.695l-.002.024a10.465 10.465 0 00-3.053-6.679 10.5 10.5 0 00-8.679-3.008l-.028.004h-90.941c-2.766-.062-5.547.961-7.654 3.068s-3.13 4.887-3.068 7.648v.005a9.007 9.007 0 002.603 7.194 9.035 9.035 0 002.041 1.533l-.056-.034L463.98 743.893a9.19 9.19 0 00-1.436-1.846 9.403 9.403 0 00-7.244-2.743l-.013.001c-2.77-.071-5.556.948-7.665 3.057s-3.128 4.895-3.057 7.658v.006l-.024 90.917c-.062 2.766.961 5.547 3.068 7.654s4.887 3.13 7.648 3.068h.005c2.783-.24 5.523-1.434 7.671-3.582s3.343-4.888 3.585-7.695l-.002.024v-12.267zm105.768-116.007l5.119 5.119c4.234 4.234 11.1 4.234 15.334 0s4.234-11.1 0-15.334l-5.119-5.119c-4.234-4.234-11.1-4.234-15.334 0s-4.234 11.1 0 15.334zm-35.763-35.763l5.119 5.119c4.234 4.234 11.1 4.234 15.334 0s4.234-11.1 0-15.334l-5.119-5.119c-4.234-4.234-11.1-4.234-15.334 0s-4.234 11.1 0 15.334zm-35.763-35.763l5.119 5.119c4.234 4.234 11.1 4.234 15.334 0s4.234-11.1 0-15.334l-5.144-5.144c-4.234-4.234-11.1-4.234-15.334 0s-4.234 11.1 0 15.334zm-423.604 74.086l1.545 1.545c-20.879 28.627-18.421 68.511 7.12 94.053l.004.004 103.836 103.836c16.674 16.619 43.648 16.619 60.319.003L546.855 617.31c16.619-16.674 16.619-43.648.003-60.319L443.019 453.152l-.004-.004c-25.541-25.541-65.426-27.999-93.727-7.372l-.326.251-1.545-1.545c-4.29-4.08-11.02-4.08-15.3-.01l-65.379 65.379c-4.08 4.29-4.08 11.02-.01 15.3l.01.01zm387.72-109.729l5.119 5.119c4.234 4.234 11.1 4.234 15.334 0s4.234-11.1 0-15.334l-5.144-5.144c-4.234-4.234-11.1-4.234-15.334 0s-4.234 11.1 0 15.334zm-35.763-35.763l5.095 5.095c4.234 4.234 11.1 4.234 15.334 0s4.234-11.1 0-15.334l-5.071-5.071c-4.234-4.234-11.1-4.234-15.334 0s-4.234 11.1 0 15.334zm-35.788-35.787l5.119 5.119c4.234 4.234 11.1 4.234 15.334 0s4.234-11.1 0-15.334l-5.119-5.119c-4.234-4.234-11.1-4.234-15.334 0s-4.234 11.1 0 15.334zm71.527-127.743l25.549 25.549c4.234 4.234 11.1 4.234 15.334 0s4.234-11.1 0-15.334l-25.549-25.549c-4.234-4.234-11.1-4.234-15.334 0s-4.234 11.1 0 15.334zm-107.29 91.98l5.119 5.119c4.234 4.234 11.1 4.234 15.334 0s4.234-11.1 0-15.334l-5.119-5.119c-4.234-4.234-11.1-4.234-15.334 0s-4.234 11.1 0 15.334zm51.604-147.665l25.428 25.428c4.234 4.234 11.1 4.234 15.334 0s4.234-11.1 0-15.334l-25.428-25.428c-4.234-4.234-11.1-4.234-15.334 0s-4.234 11.1 0 15.334zm-87.367 111.901l5.119 5.119c4.234 4.234 11.1 4.234 15.334 0s4.234-11.1 0-15.334l-5.144-5.144c-4.234-4.234-11.1-4.234-15.334 0s-4.234 11.1 0 15.334zm-35.763-35.763l5.119 5.119c4.234 4.234 11.1 4.234 15.334 0s4.234-11.1 0-15.334l-5.144-5.144c-4.234-4.234-11.1-4.234-15.334 0s-4.234 11.1 0 15.334zm-9.08 560.91l-.507-26.056 133.345-133.345 26.056.507zm-42.428-88.406c-8.197 8.169-21.457 8.169-29.652.001l-47.5-47.5 136.943-136.943 47.499 47.499c8.169 8.197 8.169 21.457.001 29.652l-.001.001zm35.763-94.008c12.976 12.976 34.016 12.976 46.992 0s12.976-34.016 0-46.992c-12.976-12.976-34.016-12.976-46.992 0-12.768 13.065-12.768 33.927-.014 46.978l.014.014zM389.362 685.6l.048.048c12.95 12.95 33.946 12.95 46.895 0l.051-.051-.003.003c12.75-13.072 12.75-33.92.015-46.976l-.015-.016-.048-.048c-12.95-12.95-33.946-12.95-46.895 0l-.051.051.003-.003c-12.75 13.072-12.75 33.92-.015 46.976l.015.016zm85.339-86.353c-4.484-4.511-4.475-11.801.024-16.3 4.508-4.508 11.816-4.508 16.324 0 4.499 4.499 4.508 11.789.025 16.299l-.001.001-.121.123c-4.454 4.454-11.676 4.454-16.131 0a15.329 15.329 0 01-.127-.129l.006.007zm-70.512 70.512c-4.521-4.521-4.521-11.851 0-16.372s11.851-4.521 16.372 0c4.521 4.521 4.521 11.851 0 16.372l-.121.123c-4.454 4.454-11.676 4.454-16.131 0a15.329 15.329 0 01-.127-.129l.006.007zm-72.565-23.496l-40.883-40.883a49.587 49.587 0 01-.243-.241c-19.631-19.631-19.631-51.46 0-71.092l.231-.229 65.381-65.381.241-.243c19.631-19.631 51.46-19.631 71.092 0l.229.231 40.895 40.895z"/></svg>