<svg width="64" height="64" viewBox="0 0 1033 1033" xmlns="http://www.w3.org/2000/svg"><path d="M1006.763 603.363H493.329a101.472 101.472 0 00-8.073-.311c-54.773 0-99.747 41.955-104.538 95.481l-.029.403c5 54.009 50.09 95.966 104.98 95.966 3.201 0 6.369-.143 9.497-.422l-.404.029h512c.682.068 1.473.107 2.274.107 12.847 0 23.366-9.968 24.244-22.593l.004-.076V625.925c-1.756-12.81-12.629-22.573-25.782-22.573-.26 0-.52.004-.778.011l.038-.001zM493.329 758.568c-33.706 0-61.03-27.324-61.03-61.03s27.324-61.03 61.03-61.03 61.03 27.324 61.03 61.03v.171c0 33.612-27.248 60.86-60.86 60.86h-.18.009zM140.595 30.333V303.57h58.368V186.834c5.882 1.449 12.711 2.405 19.72 2.657l.18.005c43.914-.116 79.483-35.684 79.599-79.588v-.011a90.503 90.503 0 00-2.798-20.525l.136.625h319.659c-1.449 5.882-2.405 12.711-2.657 19.72l-.005.18c.116 43.914 35.684 79.483 79.588 79.599h.011c7.189-.257 14.018-1.213 20.599-2.805l-.699.143V303.57h59.767V30.333zm656.589 240.06h74.274c-11.48-32.905-39.414-57.311-73.685-63.569l-.589-.089zM489.438 571.517H998.81v-155.17c-4.358-44.973-41.962-79.844-87.711-79.844-2.311 0-4.6.089-6.866.264l.301-.019H95.574a4.088 4.088 0 00-2.646-1.33l-.016-.001c-11.235-5.351-19.045-16.264-19.894-29.08l-.006-.104c1.441-15.995 12.667-29.019 27.588-33.116l.265-.062v-67.618C45.091 208.099.001 287.664.001 387.163v587.605c4.378 44.953 41.972 79.802 87.707 79.802a89.06 89.06 0 006.764-.256l-.297.018h808.96c1.935.151 4.189.237 6.464.237 45.746 0 83.349-34.867 87.682-79.476l.028-.36v-155.17H490.77c-82.227 0-148.548-55.706-148.548-123.358 0-68.949 66.321-124.689 147.217-124.689z"/></svg>