<?xml version="1.0" standalone="no"?> 
<!DOCTYPE svg PUBLIC "-//W3C//DTD SVG 1.1//EN" "http://www.w3.org/Graphics/SVG/1.1/DTD/svg11.dtd" >
<svg xmlns="http://www.w3.org/2000/svg">
<defs>
  <font id="zondicons" horiz-adv-x="20">
    <font-face font-family="zondicons"
      units-per-em="128" ascent="128"
      descent="0" />
    <missing-glyph horiz-adv-x="0" />
    <glyph glyph-name="add-outline"
      unicode="&#xEA01;"
      horiz-adv-x="128" d=" M70.4 70.4V96H57.6V70.4H32V57.6H57.6V32H70.4V57.6H96V70.4H70.4zM64 0C99.3472 0 128 28.6528 128 64S99.3472 128 64 128S0 99.3472 0 64S28.6528 0 64 0zM64 12.8A51.20000000000001 51.20000000000001 0 1 1 64 115.2A51.20000000000001 51.20000000000001 0 0 1 64 12.8z" />
    <glyph glyph-name="add-solid"
      unicode="&#xEA02;"
      horiz-adv-x="128" d=" M70.4 70.4V96H57.6V70.4H32V57.6H57.6V32H70.4V57.6H96V70.4H70.4zM64 0C99.3472 0 128 28.6528 128 64S99.3472 128 64 128S0 99.3472 0 64S28.6528 0 64 0z" />
    <glyph glyph-name="adjust"
      unicode="&#xEA03;"
      horiz-adv-x="128" d=" M64 115.2A51.20000000000001 51.20000000000001 0 1 0 64 12.8V115.2zM64 0C99.3472 0 128 28.6528 128 64S99.3472 128 64 128S0 99.3472 0 64S28.6528 0 64 0z" />
    <glyph glyph-name="airplane"
      unicode="&#xEA04;"
      horiz-adv-x="128" d=" M53.76 51.2H17.92L6.4 32H0V96H6.4L17.92 76.8H53.76L38.4 128H51.2L81.92 76.8H115.232C122.2848 76.8 128 71.1168 128 64C128 56.928 122.2848 51.2 115.232 51.2H81.92L51.2 0H38.4L53.76 51.2z" />
    <glyph glyph-name="album"
      unicode="&#xEA05;"
      horiz-adv-x="128" d=" M0 128H128V0H0V128zM64 12.8A51.20000000000001 51.20000000000001 0 1 1 64 115.2A51.20000000000001 51.20000000000001 0 0 1 64 12.8zM64 44.8A19.200000000000003 19.200000000000003 0 1 1 64 83.2A19.200000000000003 19.200000000000003 0 0 1 64 44.8z" />
    <glyph glyph-name="align-center"
      unicode="&#xEA06;"
      horiz-adv-x="128" d=" M6.4 121.6H121.6V108.8H6.4V121.6zM6.4 70.4H121.6V57.6H6.4V70.4zM6.4 19.2H121.6V6.4H6.4V19.2zM25.6 96H102.4V83.2H25.6V96zM25.6 44.8H102.4V32H25.6V44.8z" />
    <glyph glyph-name="align-justified"
      unicode="&#xEA07;"
      horiz-adv-x="128" d=" M6.4 121.6H121.6V108.8H6.4V121.6zM6.4 70.4H121.6V57.6H6.4V70.4zM6.4 19.2H121.6V6.4H6.4V19.2zM6.4 96H121.6V83.2H6.4V96zM6.4 44.8H121.6V32H6.4V44.8z" />
    <glyph glyph-name="align-left"
      unicode="&#xEA08;"
      horiz-adv-x="128" d=" M6.4 121.6H121.6V108.8H6.4V121.6zM6.4 70.4H121.6V57.6H6.4V70.4zM6.4 19.2H121.6V6.4H6.4V19.2zM6.4 96H83.2V83.2H6.4V96zM6.4 44.8H83.2V32H6.4V44.8z" />
    <glyph glyph-name="align-right"
      unicode="&#xEA09;"
      horiz-adv-x="128" d=" M6.4 121.6H121.6V108.8H6.4V121.6zM6.4 70.4H121.6V57.6H6.4V70.4zM6.4 19.2H121.6V6.4H6.4V19.2zM44.8 96H121.6V83.2H44.8V96zM44.8 44.8H121.6V32H44.8V44.8z" />
    <glyph glyph-name="announcement"
      unicode="&#xEA0A;"
      horiz-adv-x="128" d=" M19.2 89.6V89.6128C19.2 96.672 24.9408 102.4 32.0384 102.4H83.2L108.8 128H121.6V25.6H108.8L83.2 51.2H32.0384A12.780800000000001 12.780800000000001 0 0 0 19.2 63.9872V64H6.4V89.6H19.2zM70.4 32H83.2V44.8H32V32H40.5312L51.2 0H70.4V32z" />
    <glyph glyph-name="arrow-outline-down"
      unicode="&#xEA0B;"
      horiz-adv-x="128" d=" M64 0C99.3472 0 128 28.6528 128 64S99.3472 128 64 128S0 99.3472 0 64S28.6528 0 64 0zM64 12.8A51.20000000000001 51.20000000000001 0 1 1 64 115.2A51.20000000000001 51.20000000000001 0 0 1 64 12.8zM51.2 64H76.8V96H51.2V64zM64 32L96 64H32L64 32z" />
    <glyph glyph-name="arrow-outline-left"
      unicode="&#xEA0C;"
      horiz-adv-x="128" d=" M0 64C0 28.6528 28.6528 0 64 0S128 28.6528 128 64S99.3472 128 64 128S0 99.3472 0 64zM12.8 64A51.20000000000001 51.20000000000001 0 1 1 115.2 64A51.20000000000001 51.20000000000001 0 0 1 12.8 64zM64 76.8V51.2H96V76.8H64zM32 64L64 32V96L32 64z" />
    <glyph glyph-name="arrow-outline-right"
      unicode="&#xEA0D;"
      horiz-adv-x="128" d=" M128 64C128 99.3472 99.3472 128 64 128S0 99.3472 0 64S28.6528 0 64 0S128 28.6528 128 64zM115.2 64A51.20000000000001 51.20000000000001 0 1 1 12.8 64A51.20000000000001 51.20000000000001 0 0 1 115.2 64zM64 51.2V76.8H32V51.2H64zM96 64L64 96V32L96 64z" />
    <glyph glyph-name="arrow-outline-up"
      unicode="&#xEA0E;"
      horiz-adv-x="128" d=" M64 128C28.6528 128 0 99.3472 0 64S28.6528 0 64 0S128 28.6528 128 64S99.3472 128 64 128zM64 115.2A51.20000000000001 51.20000000000001 0 1 1 64 12.8A51.20000000000001 51.20000000000001 0 0 1 64 115.2zM76.8 64H51.2V32H76.8V64zM64 96L32 64H96L64 96z" />
    <glyph glyph-name="arrow-thick-down"
      unicode="&#xEA0F;"
      horiz-adv-x="128" d=" M83.2 64V115.2H44.8V64H12.8L64 12.8L115.2 64H83.2z" />
    <glyph glyph-name="arrow-thick-left"
      unicode="&#xEA10;"
      horiz-adv-x="128" d=" M64 44.8H115.2V83.2H64V115.2L12.8 64L64 12.8V44.8z" />
    <glyph glyph-name="arrow-thick-right"
      unicode="&#xEA11;"
      horiz-adv-x="128" d=" M64 83.2H12.8V44.8H64V12.8L115.2 64L64 115.2V83.2z" />
    <glyph glyph-name="arrow-thick-up"
      unicode="&#xEA12;"
      horiz-adv-x="128" d=" M44.8 64V12.8H83.2V64H115.2L64 115.2L12.8 64H44.8z" />
    <glyph glyph-name="arrow-thin-down"
      unicode="&#xEA13;"
      horiz-adv-x="128" d=" M57.6 24.4992L18.7456 63.36L9.696 54.3104L64 0L68.5248 4.5248L118.304 54.304L109.2544 63.3536L70.4 24.512V128H57.6z" />
    <glyph glyph-name="arrow-thin-left"
      unicode="&#xEA14;"
      horiz-adv-x="128" d=" M24.4992 70.4L63.36 109.2544L54.304 118.304L0 64L4.5248 59.4752L54.304 9.696L63.36 18.7456L24.512 57.6H128V70.4H24.4992z" />
    <glyph glyph-name="arrow-thin-right"
      unicode="&#xEA15;"
      horiz-adv-x="128" d=" M103.5008 70.4L64.64 109.2544L73.6896 118.304L128 64L123.4752 59.4752L73.696 9.696L64.6464 18.7456L103.488 57.6H0V70.4z" />
    <glyph glyph-name="arrow-thin-up"
      unicode="&#xEA16;"
      horiz-adv-x="128" d=" M57.6 103.5008L18.7456 64.64L9.696 73.696L64 128L68.5248 123.4752L118.304 73.696L109.2544 64.64L70.4 103.488V0H57.6V103.5008z" />
    <glyph glyph-name="artist"
      unicode="&#xEA17;"
      horiz-adv-x="128" d=" M76.8512 100.8A25.600000000000005 25.600000000000005 0 1 0 100.8 76.8512L76.8512 100.8zM11.8912 29.9904L70.72 88.832L88.832 70.72L29.9968 11.8912L11.8976 29.9904zM2.8416 11.8912L16.416 25.4656L25.4656 16.416L11.8912 2.8416L2.8416 11.8912zM64 32L76.8 44.8V0H64V32z" />
    <glyph glyph-name="at-symbol"
      unicode="&#xEA18;"
      horiz-adv-x="128" d=" M87.0656 41.8176A22.400000000000006 22.400000000000006 0 0 1 128 54.4V64H126.9248H128C128 99.3472 99.3472 128 64 128S0 99.3472 0 64S28.6528 0 64 0C74.2912 0 84.0128 2.432 92.6272 6.7456L86.8992 18.1952A51.20000000000001 51.20000000000001 0 1 0 115.2 64V54.4C115.2 49.1008 110.9376 44.8 105.6 44.8C100.3008 44.8 96 49.1136 96 54.4V96H83.2V89.6A32.00000000000001 32.00000000000001 0 1 1 87.0656 41.8176zM64 44.8A19.200000000000003 19.200000000000003 0 1 1 64 83.2A19.200000000000003 19.200000000000003 0 0 1 64 44.8z" />
    <glyph glyph-name="attachment"
      unicode="&#xEA19;"
      horiz-adv-x="128" d=" M96 108.8H44.8A44.80000000000001 44.80000000000001 0 1 1 44.8 19.2H96V32H44.8A32.00000000000001 32.00000000000001 0 0 0 44.8 96H96A19.200000000000003 19.200000000000003 0 0 0 96 57.6H44.8A6.400000000000001 6.400000000000001 0 0 0 44.8 70.4H96V83.2H44.8A19.200000000000003 19.200000000000003 0 1 1 44.8 44.8H96A32.00000000000001 32.00000000000001 0 0 1 96 108.8z" />
    <glyph glyph-name="backspace"
      unicode="&#xEA1A;"
      horiz-adv-x="128" d=" M92.2496 64L105.8304 77.5744L96.7744 86.6304L83.2 73.0496L69.6256 86.6304L60.5696 77.568L74.1504 64L60.5696 50.4256L69.6256 41.3696L83.2 54.9504L96.7744 41.3696L105.8304 50.4256L92.2496 64zM0 64L44.8 108.8H128V19.2H44.8L0 64z" />
    <glyph glyph-name="backward-step"
      unicode="&#xEA1B;"
      horiz-adv-x="128" d=" M25.6 96H44.8V32H25.6V96zM102.4 96L44.8 64L102.4 32V96z" />
    <glyph glyph-name="backward"
      unicode="&#xEA1C;"
      horiz-adv-x="128" d=" M121.6 96L64 64L121.6 32V96zM64 96L6.4 64L64 32V96z" />
    <glyph glyph-name="badge"
      unicode="&#xEA1D;"
      horiz-adv-x="128" d=" M64 51.2A38.400000000000006 38.400000000000006 0 1 1 64 128A38.400000000000006 38.400000000000006 0 0 1 64 51.2zM64 70.4A19.200000000000003 19.200000000000003 0 1 1 64 108.8A19.200000000000003 19.200000000000003 0 0 1 64 70.4zM89.6 52.832V0L64 25.6L38.4 0V52.832A44.595200000000006 44.595200000000006 0 0 1 64 44.8A44.595200000000006 44.595200000000006 0 0 1 89.6 52.832z" />
    <glyph glyph-name="battery-full"
      unicode="&#xEA1E;"
      horiz-adv-x="128" d=" M0 89.5424C0 96.6464 5.7472 102.4 12.736 102.4H115.264C122.2912 102.4 128 96.6272 128 89.5424V38.4576C128 31.3536 122.2528 25.6 115.264 25.6H12.736C5.7088 25.6 0 31.3728 0 38.4576V89.536zM12.8 89.6H115.2V38.4H12.8V89.6zM19.2 83.2H44.8V44.8H19.2V83.2zM51.2 83.2H76.8V44.8H51.2V83.2zM83.2 83.2H108.8V44.8H83.2V83.2z" />
    <glyph glyph-name="battery-half"
      unicode="&#xEA1F;"
      horiz-adv-x="128" d=" M0 89.5424C0 96.6464 5.7472 102.4 12.736 102.4H115.264C122.2912 102.4 128 96.6272 128 89.5424V38.4576C128 31.3536 122.2528 25.6 115.264 25.6H12.736C5.7088 25.6 0 31.3728 0 38.4576V89.536zM12.8 89.6H115.2V38.4H12.8V89.6zM19.2 83.2H44.8V44.8H19.2V83.2zM51.2 83.2H76.8V44.8H51.2V83.2z" />
    <glyph glyph-name="battery-low"
      unicode="&#xEA20;"
      horiz-adv-x="128" d=" M0 89.5424C0 96.6464 5.7472 102.4 12.736 102.4H115.264C122.2912 102.4 128 96.6272 128 89.5424V38.4576C128 31.3536 122.2528 25.6 115.264 25.6H12.736C5.7088 25.6 0 31.3728 0 38.4576V89.536zM12.8 89.6H115.2V38.4H12.8V89.6zM19.2 83.2H44.8V44.8H19.2V83.2z" />
    <glyph glyph-name="beverage"
      unicode="&#xEA21;"
      horiz-adv-x="128" d=" M57.6 12.8V57.6L0 115.2V128H128V115.2L70.4 57.6V12.8L102.4 6.4V0H25.6V6.4L57.6 12.8zM70.4 76.8A12.800000000000002 12.800000000000002 0 1 1 70.4 102.4A12.800000000000002 12.800000000000002 0 0 1 70.4 76.8z" />
    <glyph glyph-name="block"
      unicode="&#xEA22;"
      horiz-adv-x="128" d=" M104.448 95.3984A51.20000000000001 51.20000000000001 0 0 0 32.6016 23.552L104.448 95.3984zM95.3984 104.448A51.20000000000001 51.20000000000001 0 0 1 23.552 32.6016L95.3984 104.448zM0 64C0 28.6528 28.6528 0 64 0S128 28.6528 128 64S99.3472 128 64 128S0 99.3472 0 64z" />
    <glyph glyph-name="bluetooth"
      unicode="&#xEA23;"
      horiz-adv-x="128" d=" M60.2496 128L91.8656 96.384L98.6496 89.6L91.8656 82.816L73.0496 64L91.8656 45.184L98.6496 38.4L91.8656 31.616L60.2496 0H57.6V48.5504L36.5248 27.4752L27.4752 36.5248L54.9504 64L27.4752 91.4752L36.5248 100.5248L57.6 79.4496V128H60.2496zM70.4 99.7504V79.4496L80.5504 89.6L70.4 99.7504zM80.5504 38.4L70.4 28.2496V48.5504L80.5504 38.4z" />
    <glyph glyph-name="bolt"
      unicode="&#xEA24;"
      horiz-adv-x="128" d=" M83.2 76.8V128L19.2 51.2H44.8V0L108.8 76.8H83.2z" />
    <glyph glyph-name="book-reference"
      unicode="&#xEA25;"
      horiz-adv-x="128" d=" M12.8 115.264C12.8 122.2912 18.5408 128 25.6384 128H95.9552C99.52 128 102.4 125.1584 102.4 121.6V115.2H32.0128A6.393600000000001 6.393600000000001 0 1 1 32.0448 102.4H108.7552C112.32 102.4 115.2 99.552 115.2 96V12.7616A12.768 12.768 0 0 0 102.4384 0H25.5616A12.780800000000001 12.780800000000001 0 0 0 12.8 12.736V115.264zM38.4 102.4H64V51.2L51.2 64L38.4 51.2V102.4z" />
    <glyph glyph-name="bookmark"
      unicode="&#xEA26;"
      horiz-adv-x="128" d=" M12.8 115.264C12.8 122.2912 18.528 128 25.5616 128H102.4384C109.4848 128 115.2 122.2528 115.2 115.264V0L64 25.6L12.8 0V115.264z" />
    <glyph glyph-name="border-all"
      unicode="&#xEA27;"
      horiz-adv-x="128" d=" M70.4 57.6V19.2H108.8V57.6H70.4zM70.4 70.4V108.8H108.8V70.4H70.4zM57.6 57.6V19.2H19.2V57.6H57.6zM57.6 70.4V108.8H19.2V70.4H57.6zM6.4 12.8V121.6H121.6V6.4H6.4V12.8z" />
    <glyph glyph-name="border-bottom"
      unicode="&#xEA28;"
      horiz-adv-x="128" d=" M6.4 121.6H19.2V108.8H6.4V121.6zM6.4 96H19.2V83.2H6.4V96zM6.4 70.4H19.2V57.6H6.4V70.4zM6.4 44.8H19.2V32H6.4V44.8zM6.4 19.2H121.6V6.4H6.4V19.2zM32 121.6H44.8V108.8H32V121.6zM32 70.4H44.8V57.6H32V70.4zM57.6 121.6H70.4V108.8H57.6V121.6zM57.6 96H70.4V83.2H57.6V96zM57.6 70.4H70.4V57.6H57.6V70.4zM57.6 44.8H70.4V32H57.6V44.8zM83.2 121.6H96V108.8H83.2V121.6zM83.2 70.4H96V57.6H83.2V70.4zM108.8 121.6H121.6V108.8H108.8V121.6zM108.8 96H121.6V83.2H108.8V96zM108.8 70.4H121.6V57.6H108.8V70.4zM108.8 44.8H121.6V32H108.8V44.8z" />
    <glyph glyph-name="border-horizontal"
      unicode="&#xEA29;"
      horiz-adv-x="128" d=" M6.4 121.6H19.2V108.8H6.4V121.6zM6.4 96H19.2V83.2H6.4V96zM6.4 70.4H121.6V57.6H6.4V70.4zM6.4 44.8H19.2V32H6.4V44.8zM6.4 19.2H19.2V6.4H6.4V19.2zM32 121.6H44.8V108.8H32V121.6zM32 19.2H44.8V6.4H32V19.2zM57.6 121.6H70.4V108.8H57.6V121.6zM57.6 96H70.4V83.2H57.6V96zM57.6 44.8H70.4V32H57.6V44.8zM57.6 19.2H70.4V6.4H57.6V19.2zM83.2 121.6H96V108.8H83.2V121.6zM83.2 19.2H96V6.4H83.2V19.2zM108.8 121.6H121.6V108.8H108.8V121.6zM108.8 96H121.6V83.2H108.8V96zM108.8 44.8H121.6V32H108.8V44.8zM108.8 19.2H121.6V6.4H108.8V19.2z" />
    <glyph glyph-name="border-inner"
      unicode="&#xEA2A;"
      horiz-adv-x="128" d=" M57.6 70.4H6.4V57.6H57.6V6.4H70.4V57.6H121.6V70.4H70.4V121.6H57.6V70.4zM6.4 121.6H19.2V108.8H6.4V121.6zM6.4 96H19.2V83.2H6.4V96zM6.4 44.8H19.2V32H6.4V44.8zM6.4 19.2H19.2V6.4H6.4V19.2zM32 121.6H44.8V108.8H32V121.6zM32 19.2H44.8V6.4H32V19.2zM83.2 121.6H96V108.8H83.2V121.6zM83.2 19.2H96V6.4H83.2V19.2zM108.8 121.6H121.6V108.8H108.8V121.6zM108.8 96H121.6V83.2H108.8V96zM108.8 44.8H121.6V32H108.8V44.8zM108.8 19.2H121.6V6.4H108.8V19.2z" />
    <glyph glyph-name="border-left"
      unicode="&#xEA2B;"
      horiz-adv-x="128" d=" M6.4 121.6H19.2V6.4H6.4V121.6zM32 121.6H44.8V108.8H32V121.6zM32 70.4H44.8V57.6H32V70.4zM32 19.2H44.8V6.4H32V19.2zM57.6 121.6H70.4V108.8H57.6V121.6zM57.6 96H70.4V83.2H57.6V96zM57.6 70.4H70.4V57.6H57.6V70.4zM57.6 44.8H70.4V32H57.6V44.8zM57.6 19.2H70.4V6.4H57.6V19.2zM83.2 121.6H96V108.8H83.2V121.6zM83.2 70.4H96V57.6H83.2V70.4zM83.2 19.2H96V6.4H83.2V19.2zM108.8 121.6H121.6V108.8H108.8V121.6zM108.8 96H121.6V83.2H108.8V96zM108.8 70.4H121.6V57.6H108.8V70.4zM108.8 44.8H121.6V32H108.8V44.8zM108.8 19.2H121.6V6.4H108.8V19.2z" />
    <glyph glyph-name="border-none"
      unicode="&#xEA2C;"
      horiz-adv-x="128" d=" M6.4 121.6H19.2V108.8H6.4V121.6zM6.4 96H19.2V83.2H6.4V96zM6.4 70.4H19.2V57.6H6.4V70.4zM6.4 44.8H19.2V32H6.4V44.8zM6.4 19.2H19.2V6.4H6.4V19.2zM32 121.6H44.8V108.8H32V121.6zM32 70.4H44.8V57.6H32V70.4zM32 19.2H44.8V6.4H32V19.2zM57.6 121.6H70.4V108.8H57.6V121.6zM57.6 96H70.4V83.2H57.6V96zM57.6 70.4H70.4V57.6H57.6V70.4zM57.6 44.8H70.4V32H57.6V44.8zM57.6 19.2H70.4V6.4H57.6V19.2zM83.2 121.6H96V108.8H83.2V121.6zM83.2 70.4H96V57.6H83.2V70.4zM83.2 19.2H96V6.4H83.2V19.2zM108.8 121.6H121.6V108.8H108.8V121.6zM108.8 96H121.6V83.2H108.8V96zM108.8 70.4H121.6V57.6H108.8V70.4zM108.8 44.8H121.6V32H108.8V44.8zM108.8 19.2H121.6V6.4H108.8V19.2z" />
    <glyph glyph-name="border-outer"
      unicode="&#xEA2D;"
      horiz-adv-x="128" d=" M12.8 6.4H6.4V121.6H121.6V6.4H12.8zM19.2 19.2V108.8H108.8V19.2H19.2zM83.2 70.4H96V57.6H83.2V70.4zM57.6 70.4H70.4V57.6H57.6V70.4zM32 70.4H44.8V57.6H32V70.4zM57.6 96H70.4V83.2H57.6V96zM57.6 44.8H70.4V32H57.6V44.8z" />
    <glyph glyph-name="border-right"
      unicode="&#xEA2E;"
      horiz-adv-x="128" d=" M32 121.6H44.8V108.8H32V121.6zM32 70.4H44.8V57.6H32V70.4zM32 19.2H44.8V6.4H32V19.2zM57.6 121.6H70.4V108.8H57.6V121.6zM57.6 96H70.4V83.2H57.6V96zM57.6 70.4H70.4V57.6H57.6V70.4zM57.6 44.8H70.4V32H57.6V44.8zM57.6 19.2H70.4V6.4H57.6V19.2zM83.2 121.6H96V108.8H83.2V121.6zM83.2 70.4H96V57.6H83.2V70.4zM83.2 19.2H96V6.4H83.2V19.2zM6.4 121.6H19.2V108.8H6.4V121.6zM6.4 96H19.2V83.2H6.4V96zM6.4 70.4H19.2V57.6H6.4V70.4zM6.4 44.8H19.2V32H6.4V44.8zM6.4 19.2H19.2V6.4H6.4V19.2zM108.8 121.6H121.6V6.4H108.8V121.6z" />
    <glyph glyph-name="border-top"
      unicode="&#xEA2F;"
      horiz-adv-x="128" d=" M6.4 121.6H121.6V108.8H6.4V121.6zM6.4 96H19.2V83.2H6.4V96zM6.4 70.4H19.2V57.6H6.4V70.4zM6.4 44.8H19.2V32H6.4V44.8zM6.4 19.2H19.2V6.4H6.4V19.2zM32 70.4H44.8V57.6H32V70.4zM32 19.2H44.8V6.4H32V19.2zM57.6 96H70.4V83.2H57.6V96zM57.6 70.4H70.4V57.6H57.6V70.4zM57.6 44.8H70.4V32H57.6V44.8zM57.6 19.2H70.4V6.4H57.6V19.2zM83.2 70.4H96V57.6H83.2V70.4zM83.2 19.2H96V6.4H83.2V19.2zM108.8 96H121.6V83.2H108.8V96zM108.8 70.4H121.6V57.6H108.8V70.4zM108.8 44.8H121.6V32H108.8V44.8zM108.8 19.2H121.6V6.4H108.8V19.2z" />
    <glyph glyph-name="border-vertical"
      unicode="&#xEA30;"
      horiz-adv-x="128" d=" M6.4 121.6H19.2V108.8H6.4V121.6zM6.4 96H19.2V83.2H6.4V96zM6.4 70.4H19.2V57.6H6.4V70.4zM6.4 44.8H19.2V32H6.4V44.8zM6.4 19.2H19.2V6.4H6.4V19.2zM32 121.6H44.8V108.8H32V121.6zM32 70.4H44.8V57.6H32V70.4zM32 19.2H44.8V6.4H32V19.2zM57.6 121.6H70.4V6.4H57.6V121.6zM83.2 121.6H96V108.8H83.2V121.6zM83.2 70.4H96V57.6H83.2V70.4zM83.2 19.2H96V6.4H83.2V19.2zM108.8 121.6H121.6V108.8H108.8V121.6zM108.8 96H121.6V83.2H108.8V96zM108.8 70.4H121.6V57.6H108.8V70.4zM108.8 44.8H121.6V32H108.8V44.8zM108.8 19.2H121.6V6.4H108.8V19.2z" />
    <glyph glyph-name="box"
      unicode="&#xEA31;"
      horiz-adv-x="128" d=" M0 115.2A12.800000000000002 12.800000000000002 0 0 0 12.736 128H115.264C122.2912 128 128 122.3168 128 115.2V102.4H0V115.2zM6.4 96H121.6V12.7488C121.6 5.7088 115.8848 0 108.832 0H19.168A12.768 12.768 0 0 0 6.4 12.7488V96zM44.8 83.2H83.2V70.4H44.8V83.2z" />
    <glyph glyph-name="brightness-down"
      unicode="&#xEA32;"
      horiz-adv-x="128" d=" M64 44.8A19.200000000000003 19.200000000000003 0 1 1 64 83.2A19.200000000000003 19.200000000000003 0 0 1 64 44.8zM57.6 102.4C57.6 105.9328 60.4416 108.8 64 108.8C67.5328 108.8 70.4 105.9584 70.4 102.4C70.4 98.8672 67.5584 96 64 96C60.4672 96 57.6 98.8416 57.6 102.4zM86.6304 95.68A6.387200000000001 6.387200000000001 0 0 0 95.68 95.68A6.387200000000001 6.387200000000001 0 0 0 95.68 86.6304A6.387200000000001 6.387200000000001 0 0 0 86.6304 86.6304A6.387200000000001 6.387200000000001 0 0 0 86.6304 95.68zM102.4 70.4C105.9328 70.4 108.8 67.5584 108.8 64C108.8 60.4672 105.9584 57.6 102.4 57.6C98.8672 57.6 96 60.4416 96 64C96 67.5328 98.8416 70.4 102.4 70.4zM95.68 41.3696A6.387200000000001 6.387200000000001 0 0 0 95.68 32.32A6.387200000000001 6.387200000000001 0 0 0 86.6304 32.32A6.387200000000001 6.387200000000001 0 0 0 86.6304 41.3696A6.387200000000001 6.387200000000001 0 0 0 95.68 41.3696zM70.4 25.6C70.4 22.0672 67.5584 19.2 64 19.2C60.4672 19.2 57.6 22.0416 57.6 25.6C57.6 29.1328 60.4416 32 64 32C67.5328 32 70.4 29.1584 70.4 25.6zM41.3696 32.32A6.387200000000001 6.387200000000001 0 0 0 32.32 32.32A6.387200000000001 6.387200000000001 0 0 0 32.32 41.3696A6.387200000000001 6.387200000000001 0 0 0 41.3696 41.3696A6.387200000000001 6.387200000000001 0 0 0 41.3696 32.32zM25.6 57.6C22.0672 57.6 19.2 60.4416 19.2 64C19.2 67.5328 22.0416 70.4 25.6 70.4C29.1328 70.4 32 67.5584 32 64C32 60.4672 29.1584 57.6 25.6 57.6zM32.32 86.6304A6.387200000000001 6.387200000000001 0 0 0 32.32 95.68A6.387200000000001 6.387200000000001 0 0 0 41.3696 95.68A6.387200000000001 6.387200000000001 0 0 0 41.3696 86.6304A6.387200000000001 6.387200000000001 0 0 0 32.32 86.6304z" />
    <glyph glyph-name="brightness-up"
      unicode="&#xEA33;"
      horiz-adv-x="128" d=" M64 38.4A25.600000000000005 25.600000000000005 0 1 1 64 89.6A25.600000000000005 25.600000000000005 0 0 1 64 38.4zM57.6 121.536A6.400000000000001 6.400000000000001 0 1 0 70.4 121.536V108.864A6.400000000000001 6.400000000000001 0 1 0 57.6 108.864V121.536zM100.16 109.2096A6.400000000000001 6.400000000000001 0 1 0 109.2096 100.16L100.2496 91.2A6.400000000000001 6.400000000000001 0 1 0 91.2 100.2496L100.16 109.2096zM121.536 70.4A6.400000000000001 6.400000000000001 0 1 0 121.536 57.6H108.864A6.400000000000001 6.400000000000001 0 1 0 108.864 70.4H121.536zM109.2096 27.84A6.400000000000001 6.400000000000001 0 1 0 100.16 18.7904L91.2 27.7504A6.400000000000001 6.400000000000001 0 1 0 100.2496 36.8L109.2096 27.84zM70.4 6.464A6.400000000000001 6.400000000000001 0 1 0 57.6 6.464V19.136A6.400000000000001 6.400000000000001 0 1 0 70.4 19.136V6.464zM27.84 18.7904A6.400000000000001 6.400000000000001 0 1 0 18.7904 27.84L27.7504 36.8A6.400000000000001 6.400000000000001 0 1 0 36.8 27.7504L27.84 18.7904zM6.464 57.6A6.400000000000001 6.400000000000001 0 1 0 6.464 70.4H19.136A6.400000000000001 6.400000000000001 0 1 0 19.136 57.6H6.464zM18.7904 100.16A6.400000000000001 6.400000000000001 0 1 0 27.84 109.2096L36.8 100.2496A6.400000000000001 6.400000000000001 0 1 0 27.7568 91.2L18.7968 100.16z" />
    <glyph glyph-name="bug"
      unicode="&#xEA34;"
      horiz-adv-x="128" d=" M97.952 32.704C99.9232 36.416 101.2992 40.4864 101.9584 44.8H121.5808A6.3616 6.3616 0 0 1 128 51.2C128 54.7584 125.1264 57.6 121.5808 57.6H102.4V74.1504L122.0608 93.8112A6.4192 6.4192 0 0 1 122.0608 102.8544A6.380800000000001 6.380800000000001 0 0 1 113.0112 102.8608L99.5904 89.44H28.4096L14.9888 102.8608A6.4192 6.4192 0 0 1 5.9456 102.8608A6.380800000000001 6.380800000000001 0 0 1 5.9392 93.8112L25.6 74.1504V57.6H6.4192A6.3616 6.3616 0 0 1 0 51.2C0 47.6416 2.8736 44.8 6.4192 44.8H26.0416C26.7008 40.4928 28.0832 36.416 30.0544 32.704L12.3392 14.9888A6.4192 6.4192 0 0 1 12.3392 5.9456A6.380800000000001 6.380800000000001 0 0 1 21.3888 5.9392L37.9328 22.4768A38.304 38.304 0 0 1 57.6 12.8V70.144A6.400000000000001 6.400000000000001 0 0 0 64 76.5888C67.5328 76.5888 70.4 73.6576 70.4 70.144V12.8A38.329600000000006 38.329600000000006 0 0 1 90.0736 22.4768L106.6112 5.9392C109.0816 3.4688 113.1584 3.4432 115.6544 5.9392A6.380800000000001 6.380800000000001 0 0 1 115.6608 14.9888L97.952 32.704zM96 96A32.00000000000001 32.00000000000001 0 0 1 32 96H96z" />
    <glyph glyph-name="buoy"
      unicode="&#xEA35;"
      horiz-adv-x="128" d=" M18.1952 41.1008A51.417600000000014 51.417600000000014 0 0 1 41.1008 18.1952L49.6832 35.3728A32.13440000000001 32.13440000000001 0 0 0 35.3728 49.6832L18.1952 41.1008zM18.1952 86.8992A51.417600000000014 51.417600000000014 0 0 0 41.1008 109.8048L49.6832 92.6272A32.13440000000001 32.13440000000001 0 0 1 35.3728 78.3168L18.1952 86.8992zM86.8992 18.1952A51.417600000000014 51.417600000000014 0 0 1 109.8048 41.1008L92.6272 49.6832A32.13440000000001 32.13440000000001 0 0 0 78.3168 35.3728L86.8992 18.1952zM109.8048 86.8992A51.417600000000014 51.417600000000014 0 0 1 86.8992 109.8048L78.3168 92.6272A32.13440000000001 32.13440000000001 0 0 0 92.6272 78.3168L109.8048 86.8992zM71.4688 95.1232zM64 0C99.3472 0 128 28.6528 128 64S99.3472 128 64 128S0 99.3472 0 64S28.6528 0 64 0zM64 44.8A19.200000000000003 19.200000000000003 0 1 1 64 83.2A19.200000000000003 19.200000000000003 0 0 1 64 44.8z" />
    <glyph glyph-name="calculator"
      unicode="&#xEA36;"
      horiz-adv-x="128" d=" M12.8 115.264C12.8 122.2912 18.528 128 25.5616 128H102.4384C109.4848 128 115.2 122.2528 115.2 115.264V12.736C115.2 5.7024 109.472 0 102.4384 0H25.5616A12.780800000000001 12.780800000000001 0 0 0 12.8 12.736V115.264zM32 108.8H96V96H32V108.8zM32 83.2H44.8V70.4H32V83.2zM57.6 83.2H70.4V70.4H57.6V83.2zM83.2 83.2H96V70.4H83.2V83.2zM32 57.6H44.8V44.8H32V57.6zM57.6 57.6H70.4V44.8H57.6V57.6zM83.2 57.6H96V19.2H83.2V57.6zM32 32H44.8V19.2H32V32zM57.6 32H70.4V19.2H57.6V32z" />
    <glyph glyph-name="calendar"
      unicode="&#xEA37;"
      horiz-adv-x="128" d=" M6.4 102.432C6.4 109.4848 12.1152 115.2 19.168 115.2H108.832C115.8848 115.2 121.6 109.4848 121.6 102.432V12.768A12.768 12.768 0 0 0 108.832 0H19.168A12.768 12.768 0 0 0 6.4 12.768V102.432zM19.2 89.6H108.8V12.8H19.2V89.6zM32 128H44.8V115.2H32V128zM83.2 128H96V115.2H83.2V128zM32 70.4H44.8V57.6H32V70.4zM32 44.8H44.8V32H32V44.8zM57.6 70.4H70.4V57.6H57.6V70.4zM57.6 44.8H70.4V32H57.6V44.8zM83.2 70.4H96V57.6H83.2V70.4zM83.2 44.8H96V32H83.2V44.8z" />
    <glyph glyph-name="camera"
      unicode="&#xEA38;"
      horiz-adv-x="128" d=" M0 89.5616C0 96.6528 5.7216 102.4 12.832 102.4H32L44.8 115.2H83.2L96 102.4H115.168C122.2528 102.4 128 96.6592 128 89.5616V25.6384A12.819200000000004 12.819200000000004 0 0 0 115.264 12.8H12.736C5.7088 12.8 0 18.5408 0 25.6384V89.5616zM64 25.6A32.00000000000001 32.00000000000001 0 1 1 64 89.6A32.00000000000001 32.00000000000001 0 0 1 64 25.6zM64 38.4A19.200000000000003 19.200000000000003 0 1 1 64 76.8A19.200000000000003 19.200000000000003 0 0 1 64 38.4z" />
    <glyph glyph-name="chart-bar"
      unicode="&#xEA39;"
      horiz-adv-x="128" d=" M6.4 64H25.6V0H6.4V64zM38.4 128H57.6V0H38.4V128zM70.4 76.8H89.6V0H70.4V76.8zM102.4 102.4H121.6V0H102.4V102.4z" />
    <glyph glyph-name="chart-pie"
      unicode="&#xEA3A;"
      horiz-adv-x="128" d=" M127.68 57.6C124.4736 25.2608 97.184 0 64 0C28.6528 0 0 28.6528 0 64C0 97.184 25.2608 124.4736 57.6 127.68V57.6H127.68zM127.1872 74.24A64.05120000000001 64.05120000000001 0 0 1 74.24 127.1872V74.24H127.1872z" />
    <glyph glyph-name="chat-bubble-dots"
      unicode="&#xEA3B;"
      horiz-adv-x="128" d=" M64 32H115.264C122.2528 32 128 37.7472 128 44.8384V108.7616A12.787200000000002 12.787200000000002 0 0 1 115.264 121.6H12.736C5.7536 121.6 0 115.8528 0 108.7616V44.8384C0 37.7408 5.7024 32 12.736 32H38.4V6.4L64 32zM32 83.2H44.8V70.4H32V83.2zM57.6 83.2H70.4V70.4H57.6V83.2zM83.2 83.2H96V70.4H83.2V83.2z" />
    <glyph glyph-name="checkmark-outline"
      unicode="&#xEA3C;"
      horiz-adv-x="128" d=" M18.7456 18.7456C43.7376 -6.2464 84.2624 -6.2464 109.2544 18.7456C134.2464 43.7376 134.2464 84.2624 109.2544 109.2544C84.2624 134.2464 43.7376 134.2464 18.7456 109.2544C-6.2464 84.2624 -6.2464 43.7376 18.7456 18.7456zM100.2048 27.7952A51.20000000000001 51.20000000000001 0 1 1 27.7952 100.2048A51.20000000000001 51.20000000000001 0 0 1 100.2048 27.7952zM25.6 64L38.4 76.8L57.6 57.6L89.6 89.6L102.4 76.8L57.6 32L25.6 64z" />
    <glyph glyph-name="checkmark"
      unicode="&#xEA3D;"
      horiz-adv-x="128" d=" M0 57.6L12.8 70.4L44.8 38.4L115.2 108.8L128 96L44.8 12.8z" />
    <glyph glyph-name="cheveron-down"
      unicode="&#xEA3E;"
      horiz-adv-x="128" d=" M59.4752 45.12L64 40.5952L100.2048 76.8L91.1552 85.8496L64 58.7008L36.8448 85.8496L27.7952 76.8z" />
    <glyph glyph-name="cheveron-left"
      unicode="&#xEA3F;"
      horiz-adv-x="128" d=" M45.12 68.5248L40.5952 64L76.8 27.7952L85.8496 36.8448L58.7008 64L85.8496 91.1552L76.8 100.2048z" />
    <glyph glyph-name="cheveron-outline-down"
      unicode="&#xEA40;"
      horiz-adv-x="128" d=" M59.4752 47.7696L36.8448 70.4L45.9008 79.4496L64 61.3504L82.0992 79.4496L91.1552 70.4L64 43.2448L59.4752 47.7696zM128 64C128 99.3472 99.3472 128 64 128S0 99.3472 0 64S28.6528 0 64 0S128 28.6528 128 64zM64 115.2A51.20000000000001 51.20000000000001 0 1 1 64 12.8A51.20000000000001 51.20000000000001 0 0 1 64 115.2z" />
    <glyph glyph-name="cheveron-outline-left"
      unicode="&#xEA41;"
      horiz-adv-x="128" d=" M47.7696 68.5248L70.4 91.1552L79.4496 82.0992L61.3504 64L79.4496 45.9008L70.4 36.8448L43.2448 64L47.7696 68.5248zM64 0C99.3472 0 128 28.6528 128 64S99.3472 128 64 128S0 99.3472 0 64S28.6528 0 64 0zM115.2 64A51.20000000000001 51.20000000000001 0 1 1 12.8 64A51.20000000000001 51.20000000000001 0 0 1 115.2 64z" />
    <glyph glyph-name="cheveron-outline-right"
      unicode="&#xEA42;"
      horiz-adv-x="128" d=" M80.2304 59.4752L57.6 36.8448L48.5504 45.9008L66.6496 64L48.5504 82.0992L57.6 91.1552L84.7552 64L80.2304 59.4752zM64 128C28.6528 128 0 99.3472 0 64S28.6528 0 64 0S128 28.6528 128 64S99.3472 128 64 128zM12.8 64A51.20000000000001 51.20000000000001 0 1 1 115.2 64A51.20000000000001 51.20000000000001 0 0 1 12.8 64z" />
    <glyph glyph-name="cheveron-outline-up"
      unicode="&#xEA43;"
      horiz-adv-x="128" d=" M68.5248 80.2304L91.1552 57.6L82.0992 48.5504L64 66.6496L45.9008 48.5504L36.8448 57.6L64 84.7552L68.5248 80.2304zM0 64C0 28.6528 28.6528 0 64 0S128 28.6528 128 64S99.3472 128 64 128S0 99.3472 0 64zM64 12.8A51.20000000000001 51.20000000000001 0 1 1 64 115.2A51.20000000000001 51.20000000000001 0 0 1 64 12.8z" />
    <glyph glyph-name="cheveron-right"
      unicode="&#xEA44;"
      horiz-adv-x="128" d=" M82.88 59.4752L87.4048 64L51.2 100.2048L42.1504 91.1552L69.2992 64L42.1504 36.8448L51.2 27.7952L82.88 59.4752z" />
    <glyph glyph-name="cheveron-up"
      unicode="&#xEA45;"
      horiz-adv-x="128" d=" M68.5248 82.88L64 87.4048L27.7952 51.2L36.8448 42.1504L64 69.2992L91.1552 42.1504L100.2048 51.2z" />
    <glyph glyph-name="clipboard"
      unicode="&#xEA46;"
      horiz-adv-x="128" d=" M83.0272 111.392A19.200000000000003 19.200000000000003 0 0 1 44.9728 111.392L32 108.8V102.4H25.5616C18.5216 102.4 12.8 96.6848 12.8 89.6384V12.7616C12.8 5.7216 18.5152 0 25.5616 0H102.4384C109.4784 0 115.2 5.7152 115.2 12.7616V89.6384C115.2 96.6784 109.4848 102.4 102.4384 102.4H96V108.8L83.0272 111.392zM32 89.6H25.6V12.8H102.4V89.6H96V83.2H32V89.6zM64 102.4A6.400000000000001 6.400000000000001 0 1 1 64 115.2A6.400000000000001 6.400000000000001 0 0 1 64 102.4z" />
    <glyph glyph-name="close-outline"
      unicode="&#xEA47;"
      horiz-adv-x="128" d=" M73.0496 64L91.1552 82.0992L82.0992 91.1552L64 73.0496L45.9008 91.1552L36.8448 82.0992L54.9504 64L36.8448 45.9008L45.9008 36.8448L64 54.9504L82.0992 36.8448L91.1552 45.9008L73.0496 64zM18.752 18.7456C43.744 -6.2464 84.2688 -6.2464 109.2608 18.7456C134.2528 43.7376 134.2528 84.2624 109.2608 109.2544C84.2688 134.2464 43.744 134.2464 18.752 109.2544C-6.24 84.2624 -6.24 43.7376 18.752 18.7456zM27.8016 27.7952A51.20000000000001 51.20000000000001 0 1 1 100.2048 100.2048A51.20000000000001 51.20000000000001 0 0 1 27.7952 27.7952z" />
    <glyph glyph-name="close-solid"
      unicode="&#xEA48;"
      horiz-adv-x="128" d=" M73.0496 64L91.1552 82.0992L82.0992 91.1552L64 73.0496L45.9008 91.1552L36.8448 82.0992L54.9504 64L36.8448 45.9008L45.9008 36.8448L64 54.9504L82.0992 36.8448L91.1552 45.9008L73.0496 64zM18.752 18.7456C43.744 -6.2464 84.2688 -6.2464 109.2608 18.7456C134.2528 43.7376 134.2528 84.2624 109.2608 109.2544C84.2688 134.2464 43.744 134.2464 18.752 109.2544C-6.24 84.2624 -6.24 43.7376 18.752 18.7456z" />
    <glyph glyph-name="cloud-upload"
      unicode="&#xEA49;"
      horiz-adv-x="128" d=" M108.032 69.7792A25.6128 25.6128 0 0 0 102.4 19.2H32A32.00000000000001 32.00000000000001 0 0 0 25.6128 82.56A19.200000000000003 19.200000000000003 0 0 0 54.5152 99.7632A32.00000000000001 32.00000000000001 0 0 0 108.0256 69.7792zM64 83.2L89.6 57.6H38.4L64 83.2zM57.6 57.6H70.4V38.4H57.6V57.6z" />
    <glyph glyph-name="cloud"
      unicode="&#xEA4A;"
      horiz-adv-x="128" d=" M108.032 69.7792A25.6128 25.6128 0 0 0 102.4 19.2H32A32.00000000000001 32.00000000000001 0 0 0 25.6128 82.56A19.200000000000003 19.200000000000003 0 0 0 54.5152 99.7632A32.00000000000001 32.00000000000001 0 0 0 108.0256 69.7792z" />
    <glyph glyph-name="code"
      unicode="&#xEA4B;"
      horiz-adv-x="128" d=" M4.5248 59.4752L0 64L35.104 99.104L44.16 90.0544L18.112 64L44.16 37.9456L35.1104 28.896L4.5312 59.4752zM123.4752 59.4752L128 64L92.896 99.104L83.84 90.0544L109.888 64L83.84 37.9456L92.8896 28.896L123.4688 59.4752z" />
    <glyph glyph-name="cog"
      unicode="&#xEA4C;"
      horiz-adv-x="128" d=" M19.6672 70.5152A45.171200000000006 45.171200000000006 0 0 1 19.6672 57.4848L2.176 43.0848L14.976 20.9152L36.1984 28.864C39.5904 26.176 43.3856 23.968 47.4752 22.3488L51.2 0H76.8L80.5248 22.3488A44.75520000000001 44.75520000000001 0 0 1 91.8016 28.864L113.024 20.9152L125.824 43.0848L108.3328 57.4848A45.171200000000006 45.171200000000006 0 0 1 108.3328 70.5152L125.824 84.9152L113.024 107.0848L91.8016 99.136A44.75520000000001 44.75520000000001 0 0 1 80.5248 105.6512L76.8 128H51.2L47.4752 105.6512A44.75520000000001 44.75520000000001 0 0 1 36.1984 99.136L14.976 107.0848L2.176 84.9152L19.6672 70.5152zM64 44.8A19.200000000000003 19.200000000000003 0 1 1 64 83.2A19.200000000000003 19.200000000000003 0 0 1 64 44.8z" />
    <glyph glyph-name="color-palette"
      unicode="&#xEA4D;"
      horiz-adv-x="128" d=" M57.6 0H115.264C122.2528 0 128 5.728 128 12.7872V38.4128A12.736000000000004 12.736000000000004 0 0 1 115.264 51.2H96.448L57.664 12.416C57.6576 11.904 57.6384 11.4048 57.5936 10.912V0zM57.6 21.3952L107.0976 70.8992A12.793600000000003 12.793600000000003 0 0 1 107.0656 88.9472L88.96 107.072A12.736000000000004 12.736000000000004 0 0 1 70.9056 107.104L57.6 93.8048V21.3952zM0 115.264C0 122.304 5.6768 128 12.7872 128H38.4128C45.472 128 51.2 122.2528 51.2 115.264V12.736C51.2 5.7088 45.5232 0 38.4128 0H12.7872A12.793600000000003 12.793600000000003 0 0 0 0 12.736V115.264zM25.6 19.2A6.400000000000001 6.400000000000001 0 1 1 25.6 32A6.400000000000001 6.400000000000001 0 0 1 25.6 19.2z" />
    <glyph glyph-name="compose"
      unicode="&#xEA4E;"
      horiz-adv-x="128" d=" M12.8 102.4V12.8H102.4V51.2L115.2 64V0H0V115.2H64L51.2 102.4H12.8zM78.6752 104.2752L25.6 51.2V25.6H51.2L104.2752 78.6752L78.6752 104.2752zM87.7248 113.3248L102.4 128L128 102.4L113.3248 87.7248L87.7248 113.3248z" />
    <glyph glyph-name="computer-desktop"
      unicode="&#xEA4F;"
      horiz-adv-x="128" d=" M19.2 6.4L44.8 19.2H83.2L108.8 6.4V0H19.2V6.4zM0 115.2A12.800000000000002 12.800000000000002 0 0 0 12.736 128H115.264C122.2912 128 128 122.304 128 115.2V32A12.800000000000002 12.800000000000002 0 0 0 115.264 19.2H12.736C5.7088 19.2 0 24.896 0 32V115.2zM12.8 115.2H115.2V44.8H12.8V115.2z" />
    <glyph glyph-name="computer-laptop"
      unicode="&#xEA50;"
      horiz-adv-x="128" d=" M115.2 25.6V102.4384C115.2 109.4784 109.4848 115.2 102.4384 115.2H25.5616C18.5216 115.2 12.8 109.4848 12.8 102.4384V25.6H0V19.2C0 15.6416 2.8416 12.8 6.3488 12.8H121.6512C125.088 12.8 128 15.6672 128 19.2V25.6H115.2zM25.6 102.4H102.4V44.8H25.6V102.4zM51.2 32H76.8V25.6H51.2V32z" />
    <glyph glyph-name="conversation"
      unicode="&#xEA51;"
      horiz-adv-x="128" d=" M89.6 57.6H51.2384A12.787200000000002 12.787200000000002 0 0 0 38.4 70.3488V115.2512C38.4 122.24 44.1472 128 51.2384 128H115.1616C122.2592 128 128 122.2912 128 115.2512V70.3488A12.825600000000001 12.825600000000001 0 0 0 115.1616 57.6H108.8V38.4L89.6 57.6zM89.6 44.8V31.9488C89.6 24.9088 83.8592 19.2 76.7616 19.2H38.4L19.2 0V19.2H12.8384C5.7472 19.2 0 24.96 0 31.9488V76.8512C0 83.8912 5.7408 89.6 12.8384 89.6H25.6V70.4448A25.606400000000004 25.606400000000004 0 0 1 51.1744 44.8H89.6z" />
    <glyph glyph-name="credit-card"
      unicode="&#xEA52;"
      horiz-adv-x="128" d=" M0 102.4384C0 109.4848 5.7472 115.2 12.736 115.2H115.264C122.2912 115.2 128 109.472 128 102.4384V25.5616A12.780800000000001 12.780800000000001 0 0 0 115.264 12.8H12.736C5.7088 12.8 0 18.528 0 25.5616V102.4384zM12.8 102.4H115.2V25.6H12.8V102.4zM12.8 89.6H115.2V64H12.8V89.6z" />
    <glyph glyph-name="dashboard"
      unicode="&#xEA53;"
      horiz-adv-x="128" d=" M76.3648 67.3152A12.800000000000002 12.800000000000002 0 1 0 67.3152 76.3648L86.6304 95.68L95.68 86.6304L76.3648 67.3152zM99.84 27.4304A51.20000000000001 51.20000000000001 0 1 1 28.16 27.4304A63.70560000000002 63.70560000000002 0 0 0 64 38.4C77.28 38.4 89.6128 34.3552 99.84 27.4304zM64 0C99.3472 0 128 28.6528 128 64S99.3472 128 64 128S0 99.3472 0 64S28.6528 0 64 0z" />
    <glyph glyph-name="date-add"
      unicode="&#xEA54;"
      horiz-adv-x="128" d=" M57.6 57.6H44.8V44.8H57.6V32H70.4V44.8H83.2V57.6H70.4V70.4H57.6V57.6zM6.4 102.432C6.4 109.4848 12.1152 115.2 19.168 115.2H108.832C115.8848 115.2 121.6 109.4848 121.6 102.432V12.768A12.768 12.768 0 0 0 108.832 0H19.168A12.768 12.768 0 0 0 6.4 12.768V102.432zM19.2 89.6H108.8V12.8H19.2V89.6zM32 128H44.8V115.2H32V128zM83.2 128H96V115.2H83.2V128z" />
    <glyph glyph-name="dial-pad"
      unicode="&#xEA55;"
      horiz-adv-x="128" d=" M32 102.4A12.800000000000002 12.800000000000002 0 1 1 32 128A12.800000000000002 12.800000000000002 0 0 1 32 102.4zM64 102.4A12.800000000000002 12.800000000000002 0 1 1 64 128A12.800000000000002 12.800000000000002 0 0 1 64 102.4zM96 102.4A12.800000000000002 12.800000000000002 0 1 1 96 128A12.800000000000002 12.800000000000002 0 0 1 96 102.4zM32 70.4A12.800000000000002 12.800000000000002 0 1 1 32 96A12.800000000000002 12.800000000000002 0 0 1 32 70.4zM64 70.4A12.800000000000002 12.800000000000002 0 1 1 64 96A12.800000000000002 12.800000000000002 0 0 1 64 70.4zM96 70.4A12.800000000000002 12.800000000000002 0 1 1 96 96A12.800000000000002 12.800000000000002 0 0 1 96 70.4zM32 38.4A12.800000000000002 12.800000000000002 0 1 1 32 64A12.800000000000002 12.800000000000002 0 0 1 32 38.4zM64 38.4A12.800000000000002 12.800000000000002 0 1 1 64 64A12.800000000000002 12.800000000000002 0 0 1 64 38.4zM64 0A12.800000000000002 12.800000000000002 0 1 1 64 25.6A12.800000000000002 12.800000000000002 0 0 1 64 0zM96 38.4A12.800000000000002 12.800000000000002 0 1 1 96 64A12.800000000000002 12.800000000000002 0 0 1 96 38.4z" />
    <glyph glyph-name="document-add"
      unicode="&#xEA56;"
      horiz-adv-x="128" d=" M57.6 64H44.8V51.2H57.6V38.4H70.4V51.2H83.2V64H70.4V76.8H57.6V64zM25.6 12.8V115.2H76.8V89.6H102.4V12.8H25.6zM12.8 6.4V128H89.6L115.2 102.4V0H12.8V6.4z" />
    <glyph glyph-name="document"
      unicode="&#xEA57;"
      horiz-adv-x="128" d=" M25.6 12.8V115.2H76.8V89.6H102.4V12.8H25.6zM12.8 6.4V128H89.6L115.2 102.4V0H12.8V6.4z" />
    <glyph glyph-name="dots-horizontal-double"
      unicode="&#xEA58;"
      horiz-adv-x="128" d=" M64 70.4A12.800000000000002 12.800000000000002 0 1 1 64 96A12.800000000000002 12.800000000000002 0 0 1 64 70.4zM64 32A12.800000000000002 12.800000000000002 0 1 1 64 57.6A12.800000000000002 12.800000000000002 0 0 1 64 32z" />
    <glyph glyph-name="dots-horizontal-triple"
      unicode="&#xEA59;"
      horiz-adv-x="128" d=" M64 51.2A12.800000000000002 12.800000000000002 0 1 1 64 76.8A12.800000000000002 12.800000000000002 0 0 1 64 51.2zM64 89.6A12.800000000000002 12.800000000000002 0 1 1 64 115.2A12.800000000000002 12.800000000000002 0 0 1 64 89.6zM64 12.8A12.800000000000002 12.800000000000002 0 1 1 64 38.4A12.800000000000002 12.800000000000002 0 0 1 64 12.8z" />
    <glyph glyph-name="download"
      unicode="&#xEA5A;"
      horiz-adv-x="128" d=" M83.2 76.8V115.2H44.8V76.8H12.8L64 25.6L115.2 76.8H83.2zM0 12.8H128V0H0V12.8z" />
    <glyph glyph-name="duplicate"
      unicode="&#xEA5B;"
      horiz-adv-x="128" d=" M38.4 89.6H12.8384A12.832000000000003 12.832000000000003 0 0 1 0 76.7616V12.8384C0 5.7408 5.7472 0 12.8384 0H76.7616A12.832000000000003 12.832000000000003 0 0 1 89.6 12.8384V38.4H96V51.2H115.2V115.2H51.2V96H38.4V89.6H76.7616C83.8528 89.6 89.6 83.8592 89.6 76.7616V38.4H115.1616A12.832000000000003 12.832000000000003 0 0 1 128 51.2384V115.1616A12.832000000000003 12.832000000000003 0 0 1 115.1616 128H51.2384A12.832000000000003 12.832000000000003 0 0 1 38.4 115.1616V89.6zM38.4 76.8H12.8V12.8H76.8V38.4H73.6192H76.8V76.8H38.4V73.6192V76.8zM38.4 51.2H25.6V38.4H38.4V25.6H51.2V38.4H64V51.2H51.2V64H38.4V51.2z" />
    <glyph glyph-name="edit-copy"
      unicode="&#xEA5C;"
      horiz-adv-x="128" d=" M0 76.7616C0 83.8528 5.7408 89.6 12.8384 89.6H76.7616C83.8528 89.6 89.6 83.8592 89.6 76.7616V12.8384A12.832000000000003 12.832000000000003 0 0 0 76.7616 0H12.8384A12.832000000000003 12.832000000000003 0 0 0 0 12.8384V76.7616zM38.4 76.8H12.8V12.8H76.8V38.4H96V51.2H115.2V115.2H51.2V96H38.4V76.8H76.8V38.4H115.1616A12.832000000000003 12.832000000000003 0 0 1 128 51.2384V115.1616A12.832000000000003 12.832000000000003 0 0 1 115.1616 128H51.2384A12.832000000000003 12.832000000000003 0 0 1 38.4 115.1616V76.8z" />
    <glyph glyph-name="edit-crop"
      unicode="&#xEA5D;"
      horiz-adv-x="128" d=" M89.6 25.6V0H102.4V25.6H128V38.4H38.4V128H25.6V102.4H0V89.6H25.6V38.3616C25.6 31.3216 31.3152 25.6 38.3616 25.6H89.6zM89.6 44.8V89.6H44.8V102.4H89.6384C96.6848 102.4 102.4 96.672 102.4 89.6384V44.8H89.6z" />
    <glyph glyph-name="edit-cut"
      unicode="&#xEA5E;"
      horiz-adv-x="128" d=" M49.4528 64L35.2256 74.432A22.400000000000006 22.400000000000006 0 1 0 44.0768 87.1424L128 25.6H108.16C104.6208 25.6 99.5264 27.2768 96.704 29.3504L62.5472 54.4L44.0768 40.8576A22.400000000000006 22.400000000000006 0 1 0 35.2256 53.568L49.4528 64zM22.4 83.2A9.600000000000001 9.600000000000001 0 1 1 22.4 102.4A9.600000000000001 9.600000000000001 0 0 1 22.4 83.2zM22.4 25.6A9.600000000000001 9.600000000000001 0 1 1 22.4 44.8A9.600000000000001 9.600000000000001 0 0 1 22.4 25.6zM96.6656 98.624C99.52 100.7104 104.6208 102.4 108.16 102.4H128L80 67.2L66.912 76.8L96.672 98.624z" />
    <glyph glyph-name="edit-pencil"
      unicode="&#xEA5F;"
      horiz-adv-x="128" d=" M78.6752 104.2752L0 25.6V0H25.6L104.2752 78.6752L78.6752 104.2752zM87.7248 113.3248L102.4 128L128 102.4L113.3248 87.7248L87.7248 113.3248z" />
    <glyph glyph-name="envelope"
      unicode="&#xEA60;"
      horiz-adv-x="128" d=" M95.2192 63.3728L128 38.4V25.6L87.2128 56.9728L64 38.4L40.7872 56.9728L0 25.6V38.4L32.7808 63.3728L0 89.6V102.4L64 51.2L128 102.4V89.6L95.2192 63.3728zM115.2576 115.2C122.304 115.2 128 109.472 128 102.4384V25.5616A12.780800000000001 12.780800000000001 0 0 0 115.264 12.8H12.736C5.7088 12.8 0 18.528 0 25.5616V102.4384C0 109.4848 5.7472 115.2 12.736 115.2H115.264z" />
    <glyph glyph-name="exclamation-outline"
      unicode="&#xEA61;"
      horiz-adv-x="128" d=" M18.7456 18.7456C43.7376 -6.2464 84.2624 -6.2464 109.2544 18.7456C134.2464 43.7376 134.2464 84.2624 109.2544 109.2544C84.2624 134.2464 43.7376 134.2464 18.7456 109.2544C-6.2464 84.2624 -6.2464 43.7376 18.7456 18.7456zM100.2048 27.7952A51.20000000000001 51.20000000000001 0 1 1 27.7952 100.2048A51.20000000000001 51.20000000000001 0 0 1 100.2048 27.7952zM57.6 96H70.4V57.6H57.6V96zM57.6 44.8H70.4V32H57.6V44.8z" />
    <glyph glyph-name="exclamation-solid"
      unicode="&#xEA62;"
      horiz-adv-x="128" d=" M18.7456 18.7456C43.7376 -6.2464 84.2624 -6.2464 109.2544 18.7456C134.2464 43.7376 134.2464 84.2624 109.2544 109.2544C84.2624 134.2464 43.7376 134.2464 18.7456 109.2544C-6.2464 84.2624 -6.2464 43.7376 18.7456 18.7456zM57.6 96H70.4V57.6H57.6V96zM57.6 44.8H70.4V32H57.6V44.8z" />
    <glyph glyph-name="explore"
      unicode="&#xEA63;"
      horiz-adv-x="128" d=" M64 0C99.3472 0 128 28.6528 128 64S99.3472 128 64 128S0 99.3472 0 64S28.6528 0 64 0zM50.4256 77.5744L100.2048 100.2048L77.5744 50.4256L27.7952 27.7952L50.432 77.5744zM64 57.6A6.400000000000001 6.400000000000001 0 1 1 64 70.4A6.400000000000001 6.400000000000001 0 0 1 64 57.6z" />
    <glyph glyph-name="factory"
      unicode="&#xEA64;"
      horiz-adv-x="128" d=" M67.2 0H0V83.2L32 61.8688V83.2L64 61.8688V83.2L96 61.8688V128H128V0H67.2z" />
    <glyph glyph-name="film"
      unicode="&#xEA65;"
      horiz-adv-x="128" d=" M0 102.4384C0 109.4848 5.7472 115.2 12.736 115.2H115.264C122.2912 115.2 128 109.472 128 102.4384V25.5616A12.780800000000001 12.780800000000001 0 0 0 115.264 12.8H12.736C5.7088 12.8 0 18.528 0 25.5616V102.4384zM38.4 102.4H89.6V25.6H38.4V102.4zM12.8 96H25.6V83.2H12.8V96zM12.8 70.4H25.6V57.6H12.8V70.4zM12.8 44.8H25.6V32H12.8V44.8zM102.4 96H115.2V83.2H102.4V96zM102.4 70.4H115.2V57.6H102.4V70.4zM102.4 44.8H115.2V32H102.4V44.8zM51.2 83.2L83.2 64L51.2 44.8V83.2z" />
    <glyph glyph-name="filter"
      unicode="&#xEA66;"
      horiz-adv-x="128" d=" M76.8 51.2L128 102.4V128H0V102.4L51.2 51.2V0L76.8 25.6V51.2z" />
    <glyph glyph-name="flashlight"
      unicode="&#xEA67;"
      horiz-adv-x="128" d=" M70.4 76.8A6.400000000000001 6.400000000000001 0 0 1 57.6 76.8V70.4A6.400000000000001 6.400000000000001 0 1 1 70.4 70.4V76.8zM83.2 83.2V12.8384A12.825600000000001 12.825600000000001 0 0 0 70.4128 0H57.5872A12.8064 12.8064 0 0 0 44.8 12.8384V83.2L32 96V108.8H96V96L83.2 83.2zM32 128H96V115.2H32V128z" />
    <glyph glyph-name="folder"
      unicode="&#xEA68;"
      horiz-adv-x="128" d=" M0 102.4384C0 109.4848 5.7344 115.2 12.7808 115.2H57.6L70.4 102.4H115.2192C122.2784 102.4 128 96.6592 128 89.5616V25.6384A12.819200000000004 12.819200000000004 0 0 0 115.264 12.8H12.736C5.7088 12.8 0 18.528 0 25.5616V102.4384z" />
    <glyph glyph-name="format-bold"
      unicode="&#xEA69;"
      horiz-adv-x="128" d=" M19.2 19.2V121.6H70.4A32.00000000000001 32.00000000000001 0 0 0 95.2128 69.3888A35.2 35.2 0 0 0 73.6 6.4H19.2V19.2zM67.2 57.6A16.000000000000004 16.000000000000004 0 1 0 67.2 25.6H44.8V57.6H67.2zM44.8 102.4H63.968A12.800000000000002 12.800000000000002 0 0 0 63.968 76.8H44.8V102.4z" />
    <glyph glyph-name="format-font-size"
      unicode="&#xEA6A;"
      horiz-adv-x="128" d=" M102.4 70.4H128V83.2H64V70.4H89.6V19.2H102.4V70.4zM51.2 96H96V108.8H0V96H38.4V19.2H51.2V96z" />
    <glyph glyph-name="format-italic"
      unicode="&#xEA6B;"
      horiz-adv-x="128" d=" M51.2 121.6H108.8V108.8H51.2V121.6zM70.4 108.8H89.6L51.2 19.2H32L70.4 108.8zM12.8 19.2H70.4V6.4H12.8V19.2z" />
    <glyph glyph-name="format-underline"
      unicode="&#xEA6C;"
      horiz-adv-x="128" d=" M102.4 70.4A38.400000000000006 38.400000000000006 0 1 0 25.6 70.4V121.6H44.8V70.4A19.200000000000003 19.200000000000003 0 0 1 83.2 70.4V121.6H102.4V70.4zM12.8 19.2H115.2V6.4H12.8V19.2z" />
    <glyph glyph-name="forward-step"
      unicode="&#xEA6D;"
      horiz-adv-x="128" d=" M83.2 96H102.4V32H83.2V96zM25.6 96L83.2 64L25.6 32V96z" />
    <glyph glyph-name="forward"
      unicode="&#xEA6E;"
      horiz-adv-x="128" d=" M6.4 96L64 64L6.4 32V96zM64 96L121.6 64L64 32V96z" />
    <glyph glyph-name="globe"
      unicode="&#xEA6F;"
      horiz-adv-x="128" d=" M107.6672 37.2544A51.21920000000001 51.21920000000001 0 0 1 83.2 111.4752V102.3872A12.761600000000001 12.761600000000001 0 0 0 70.4 89.6H64V83.1872C64 78.4448 61.44 74.304 57.6 72.096V64H70.4128A12.800000000000002 12.800000000000002 0 0 0 83.2 51.2128V44.8H95.9616C101.1712 44.8 105.6576 41.696 107.6736 37.2544zM13.1968 70.4A51.20000000000001 51.20000000000001 0 0 1 64 12.8V25.6H57.5872A12.800000000000002 12.800000000000002 0 0 0 44.8 38.3872V51.2C37.728 51.2 32 56.8768 32 63.9872V70.4H13.1968zM64 0C99.3472 0 128 28.6528 128 64S99.3472 128 64 128S0 99.3472 0 64S28.6528 0 64 0z" />
    <glyph glyph-name="hand-stop"
      unicode="&#xEA70;"
      horiz-adv-x="128" d=" M108.8 25.6C108.8 11.456 97.3632 0 83.2448 0H44.7552A25.580800000000004 25.580800000000004 0 0 0 19.2 25.664V102.432C19.2 105.952 22.0416 108.8 25.6 108.8C29.1328 108.8 32 105.8816 32 102.432V64H38.4V115.2256C38.4 118.7456 41.2416 121.6 44.8 121.6C48.3328 121.6 51.2 118.752 51.2 115.2256V64H57.6V121.5872A6.393600000000001 6.393600000000001 0 1 0 70.4 121.5872V64H76.8V115.2256C76.8 118.7456 79.6416 121.6 83.2 121.6C86.7328 121.6 89.6 118.752 89.6 115.2256V32H96V70.4192C96 73.9392 98.8416 76.8 102.4 76.8H108.8V25.6z" />
    <glyph glyph-name="hard-drive"
      unicode="&#xEA71;"
      horiz-adv-x="128" d=" M96 51.2A32.00000000000001 32.00000000000001 0 1 0 79.3088 79.3088L96 96V51.2zM12.8 115.264C12.8 122.2912 18.528 128 25.5616 128H102.4384C109.4848 128 115.2 122.2528 115.2 115.264V12.736C115.2 5.7024 109.472 0 102.4384 0H25.5616A12.780800000000001 12.780800000000001 0 0 0 12.8 12.736V115.264zM64 38.4A12.800000000000002 12.800000000000002 0 1 1 64 64A12.800000000000002 12.800000000000002 0 0 1 64 38.4zM38.4 108.8H64V96H38.4V108.8zM25.6 108.8A6.400000000000001 6.400000000000001 0 1 1 25.6 121.6A6.400000000000001 6.400000000000001 0 0 1 25.6 108.8zM25.6 6.4A6.400000000000001 6.400000000000001 0 1 1 25.6 19.2A6.400000000000001 6.400000000000001 0 0 1 25.6 6.4zM102.4 6.4A6.400000000000001 6.400000000000001 0 1 1 102.4 19.2A6.400000000000001 6.400000000000001 0 0 1 102.4 6.4zM102.4 108.8A6.400000000000001 6.400000000000001 0 1 1 102.4 121.6A6.400000000000001 6.400000000000001 0 0 1 102.4 108.8z" />
    <glyph glyph-name="headphones"
      unicode="&#xEA72;"
      horiz-adv-x="128" d=" M102.4 19.2V6.4H115.2C122.3168 6.4 128 12.128 128 19.1872V44.8128A12.761600000000001 12.761600000000001 0 0 1 115.2 57.6V41.6V76.8H102.4V19.2zM25.6 19.2V6.4H12.8C5.728 6.4 0 12.0768 0 19.1872V44.8128C0 51.872 5.6832 57.6 12.8 57.6V41.6V76.8H25.6V19.2zM115.2 76.8A51.20000000000001 51.20000000000001 0 1 1 12.8 76.8H25.6A38.400000000000006 38.400000000000006 0 1 0 102.4 76.8H115.2zM76.8 64H96V0H76.8V64zM32 64H51.2V0H32V64z" />
    <glyph glyph-name="home"
      unicode="&#xEA73;"
      horiz-adv-x="128" d=" M108.8 64H128L64 128L0 64H19.2V0H108.8V64zM51.2 38.4H76.8V0H51.2V38.4z" />
    <glyph glyph-name="hour-glass"
      unicode="&#xEA74;"
      horiz-adv-x="128" d=" M108.8 12.8A44.80000000000001 44.80000000000001 0 0 1 83.2 53.2864V74.7136A44.80000000000001 44.80000000000001 0 0 1 108.8 115.2H121.6V128H6.4V115.2H19.2A44.80000000000001 44.80000000000001 0 0 1 44.8 74.7136V53.2864A44.80000000000001 44.80000000000001 0 0 1 19.2 12.8H6.4V0H121.6V12.8H108.8zM96 115.2A32.012800000000006 32.012800000000006 0 0 0 70.4 83.84V64H57.6V83.84A32.012800000000006 32.012800000000006 0 0 0 32 115.2H96z" />
    <glyph glyph-name="inbox-check"
      unicode="&#xEA75;"
      horiz-adv-x="128" d=" M89.6 38.4H115.2V115.2H12.8V38.4H38.4V38.3872A12.800000000000002 12.800000000000002 0 0 1 51.1872 25.6H76.8128A12.755200000000004 12.755200000000004 0 0 1 89.6 38.3872V38.4zM0 115.264C0 122.2912 5.7472 128 12.736 128H115.264C122.2912 128 128 122.2528 128 115.264V12.736C128 5.7024 122.2528 0 115.264 0H12.736C5.7088 0 0 5.7472 0 12.736V115.264zM32 70.4L44.8 83.2L57.6 70.4L83.2 96L96 83.2L57.6 44.8L32 70.4z" />
    <glyph glyph-name="inbox-download"
      unicode="&#xEA76;"
      horiz-adv-x="128" d=" M89.6 38.4H115.2V115.2H12.8V38.4H38.4V38.3872A12.800000000000002 12.800000000000002 0 0 1 51.1872 25.6H76.8128A12.755200000000004 12.755200000000004 0 0 1 89.6 38.3872V38.4zM0 115.264C0 122.2912 5.7472 128 12.736 128H115.264C122.2912 128 128 122.2528 128 115.264V12.736C128 5.7024 122.2528 0 115.264 0H12.736C5.7088 0 0 5.7472 0 12.736V115.264zM64 51.2L89.6 76.8H38.4L64 51.2zM57.6 76.8H70.4V96H57.6V76.8z" />
    <glyph glyph-name="inbox"
      unicode="&#xEA77;"
      horiz-adv-x="128" d=" M89.6 38.4H115.2V115.2H12.8V38.4H38.4V38.3872A12.800000000000002 12.800000000000002 0 0 1 51.1872 25.6H76.8128A12.755200000000004 12.755200000000004 0 0 1 89.6 38.3872V38.4zM0 115.264C0 122.2912 5.7472 128 12.736 128H115.264C122.2912 128 128 122.2528 128 115.264V12.736C128 5.7024 122.2528 0 115.264 0H12.736C5.7088 0 0 5.7472 0 12.736V115.264z" />
    <glyph glyph-name="indent-decrease"
      unicode="&#xEA78;"
      horiz-adv-x="128" d=" M6.4 121.6H121.6V108.8H6.4V121.6zM44.8 70.4H121.6V57.6H44.8V70.4zM6.4 19.2H121.6V6.4H6.4V19.2zM44.8 96H121.6V83.2H44.8V96zM44.8 44.8H121.6V32H44.8V44.8zM32 89.6L6.4 64L32 38.4V89.6z" />
    <glyph glyph-name="indent-increase"
      unicode="&#xEA79;"
      horiz-adv-x="128" d=" M6.4 121.6H121.6V108.8H6.4V121.6zM44.8 70.4H121.6V57.6H44.8V70.4zM6.4 19.2H121.6V6.4H6.4V19.2zM44.8 96H121.6V83.2H44.8V96zM44.8 44.8H121.6V32H44.8V44.8zM6.4 89.6L32 64L6.4 38.4V89.6z" />
    <glyph glyph-name="information-outline"
      unicode="&#xEA7A;"
      horiz-adv-x="128" d=" M18.7456 18.7456C43.7376 -6.2464 84.2624 -6.2464 109.2544 18.7456C134.2464 43.7376 134.2464 84.2624 109.2544 109.2544C84.2624 134.2464 43.7376 134.2464 18.7456 109.2544C-6.2464 84.2624 -6.2464 43.7376 18.7456 18.7456zM100.2048 27.7952A51.20000000000001 51.20000000000001 0 1 1 27.7952 100.2048A51.20000000000001 51.20000000000001 0 0 1 100.2048 27.7952zM57.6 57.6V70.4H70.4V32H57.6V57.6zM57.6 96H70.4V83.2H57.6V96z" />
    <glyph glyph-name="information-solid"
      unicode="&#xEA7B;"
      horiz-adv-x="128" d=" M18.7456 18.7456C43.7376 -6.2464 84.2624 -6.2464 109.2544 18.7456C134.2464 43.7376 134.2464 84.2624 109.2544 109.2544C84.2624 134.2464 43.7376 134.2464 18.7456 109.2544C-6.2464 84.2624 -6.2464 43.7376 18.7456 18.7456zM57.6 57.6V70.4H70.4V32H57.6V57.6zM57.6 96H70.4V83.2H57.6V96z" />
    <glyph glyph-name="key"
      unicode="&#xEA7C;"
      horiz-adv-x="128" d=" M52.8448 78.4448A38.400000000000006 38.400000000000006 0 1 0 78.4448 52.8448L64 38.4H51.2V25.6H38.4V12.8L25.6 0H0V25.6L52.8448 78.4448zM109.5744 82.4256A19.200000000000003 19.200000000000003 0 0 1 82.4192 109.5808L109.5744 82.4256z" />
    <glyph glyph-name="keyboard"
      unicode="&#xEA7D;"
      horiz-adv-x="128" d=" M0 89.5424C0 96.6464 5.7472 102.4 12.736 102.4H115.264C122.2912 102.4 128 96.6272 128 89.5424V38.4576C128 31.3536 122.2528 25.6 115.264 25.6H12.736C5.7088 25.6 0 31.3728 0 38.4576V89.536zM12.8 89.6H25.6V76.8H12.8V89.6zM19.2 70.4H32V57.6H19.2V70.4zM12.8 51.2H25.6V38.4H12.8V51.2zM32 51.2H96V38.4H32V51.2zM102.4 51.2H115.2V38.4H102.4V51.2zM38.4 70.4H51.2V57.6H38.4V70.4zM57.6 70.4H70.4V57.6H57.6V70.4zM76.8 70.4H89.6V57.6H76.8V70.4zM96 70.4H108.8V57.6H96V70.4zM32 89.6H44.8V76.8H32V89.6zM51.2 89.6H64V76.8H51.2V89.6zM70.4 89.6H83.2V76.8H70.4V89.6zM89.6 89.6H115.2V76.8H89.6V89.6z" />
    <glyph glyph-name="library"
      unicode="&#xEA7E;"
      horiz-adv-x="128" d=" M0 89.6L64 128L128 89.6V76.8H0V89.6zM0 12.8H128V0H0V12.8zM12.8 25.6H115.2V12.8H12.8V25.6zM12.8 76.8H38.4V25.6H12.8V76.8zM51.2 76.8H76.8V25.6H51.2V76.8zM89.6 76.8H115.2V25.6H89.6V76.8z" />
    <glyph glyph-name="light-bulb"
      unicode="&#xEA7F;"
      horiz-adv-x="128" d=" M70.4 51.84A32.012800000000006 32.012800000000006 0 0 1 64 115.2A32.00000000000001 32.00000000000001 0 0 1 57.6 51.84V38.4H70.4V51.84zM83.2 42.7136A44.80000000000001 44.80000000000001 0 1 1 44.8 42.7136V25.6H83.2V42.7136zM44.8 19.2H83.2V9.6C83.2 4.3008 78.944 0 73.6064 0H54.4A9.5744 9.5744 0 0 0 44.8 9.6V19.2z" />
    <glyph glyph-name="link"
      unicode="&#xEA80;"
      horiz-adv-x="128" d=" M88.96 57.6A32.0064 32.0064 0 0 1 57.632 96H31.968A32.0064 32.0064 0 0 1 31.968 32H39.0464A44.8896 44.8896 0 0 0 29.856 44.9216A19.2192 19.2192 0 0 0 12.8 64C12.8 74.6048 21.4336 83.2 32 83.2H57.6A19.2128 19.2128 0 0 0 75.7056 57.6H88.96zM39.04 70.4A32.0064 32.0064 0 0 1 70.368 32H96.032A32.0064 32.0064 0 0 1 96.032 96H88.9664A44.8896 44.8896 0 0 0 98.1504 83.0784A19.2192 19.2192 0 0 0 115.2 64C115.2 53.3952 106.5664 44.8 96 44.8H70.4A19.2128 19.2128 0 0 0 52.2944 70.4H39.04z" />
    <glyph glyph-name="list-add"
      unicode="&#xEA81;"
      horiz-adv-x="128" d=" M96 70.4H76.8V57.6H96V38.4H108.8V57.6H128V70.4H108.8V89.6H96V70.4zM0 108.8H64V96H0V108.8zM0 57.6H64V44.8H0V57.6zM0 83.2H64V70.4H0V83.2zM0 32H64V19.2H0V32z" />
    <glyph glyph-name="list"
      unicode="&#xEA82;"
      horiz-adv-x="128" d=" M6.4 102.4H19.2V89.6H6.4V102.4zM32 102.4H121.6V89.6H32V102.4zM6.4 70.4H19.2V57.6H6.4V70.4zM32 70.4H121.6V57.6H32V70.4zM6.4 38.4H19.2V25.6H6.4V38.4zM32 38.4H121.6V25.6H32V38.4z" />
    <glyph glyph-name="location-current"
      unicode="&#xEA83;"
      horiz-adv-x="128" d=" M0 128L128 76.8L76.8 51.2L64 0z" />
    <glyph glyph-name="location"
      unicode="&#xEA84;"
      horiz-adv-x="128" d=" M64 0S108.8 58.4576 108.8 83.2A44.80000000000001 44.80000000000001 0 0 1 19.2 83.2C19.2 58.4576 64 0 64 0zM64 70.4A12.800000000000002 12.800000000000002 0 1 1 64 96A12.800000000000002 12.800000000000002 0 0 1 64 70.4z" />
    <glyph glyph-name="lock-closed"
      unicode="&#xEA85;"
      horiz-adv-x="128" d=" M70.4 33.7152A12.800000000000002 12.800000000000002 0 1 1 57.6 33.7152V19.2H70.4V33.7152zM83.2 89.6A19.200000000000003 19.200000000000003 0 0 1 44.8 89.6V76.8H83.2V89.6zM25.6 76.8V89.6A38.400000000000006 38.400000000000006 0 1 0 102.4 89.6V76.8H108.832C115.8848 76.8 121.6 71.0272 121.6 63.9424V12.8576C121.6 5.7536 115.8848 0 108.832 0H19.168A12.825600000000001 12.825600000000001 0 0 0 6.4 12.8576V63.936C6.4 71.0464 12.1152 76.8 19.168 76.8H25.6z" />
    <glyph glyph-name="lock-open"
      unicode="&#xEA86;"
      horiz-adv-x="128" d=" M70.4 33.7152A12.800000000000002 12.800000000000002 0 1 1 57.6 33.7152V19.2H70.4V33.7152zM83.2 89.6A19.200000000000003 19.200000000000003 0 0 1 44.8 89.6V76.8H83.2V89.6zM25.6 76.8V89.6A38.400000000000006 38.400000000000006 0 1 0 102.4 89.6H83.2V76.8H108.832C115.8848 76.8 121.6 71.0272 121.6 63.9424V12.8576C121.6 5.7536 115.8848 0 108.832 0H19.168A12.825600000000001 12.825600000000001 0 0 0 6.4 12.8576V63.936C6.4 71.0464 12.1152 76.8 19.168 76.8H25.6z" />
    <glyph glyph-name="menu"
      unicode="&#xEA87;"
      horiz-adv-x="128" d=" M0 108.8H128V96H0V108.8zM0 70.4H128V57.6H0V70.4zM0 32H128V19.2H0V32z" />
    <glyph glyph-name="mic"
      unicode="&#xEA88;"
      horiz-adv-x="128" d=" M70.4 13.1968C95.616 16.352 115.2 37.8944 115.2 64H102.4V63.9872A38.419200000000004 38.419200000000004 0 0 0 64 25.6C42.7904 25.6 25.6 42.7712 25.6 63.9872V64H12.8C12.8 37.9456 32.3456 16.352 57.6 13.1968V0H70.4V13.1968zM38.4 102.4448A25.600000000000005 25.600000000000005 0 0 0 64 128C78.144 128 89.6 116.5632 89.6 102.4448V63.9552A25.600000000000005 25.600000000000005 0 0 0 64 38.4C49.856 38.4 38.4 49.8368 38.4 63.9552V102.4448z" />
    <glyph glyph-name="minus-outline"
      unicode="&#xEA89;"
      horiz-adv-x="128" d=" M64 0C99.3472 0 128 28.6528 128 64S99.3472 128 64 128S0 99.3472 0 64S28.6528 0 64 0zM64 12.8A51.20000000000001 51.20000000000001 0 1 1 64 115.2A51.20000000000001 51.20000000000001 0 0 1 64 12.8zM96 70.4V57.6H32V70.4H96z" />
    <glyph glyph-name="minus-solid"
      unicode="&#xEA8A;"
      horiz-adv-x="128" d=" M64 0C99.3472 0 128 28.6528 128 64S99.3472 128 64 128S0 99.3472 0 64S28.6528 0 64 0zM96 70.4V57.6H32V70.4H96z" />
    <glyph glyph-name="mobile-devices"
      unicode="&#xEA8B;"
      horiz-adv-x="128" d=" M108.8 89.6V115.264C108.8 122.2464 103.0848 128 96.0384 128H19.1616C12.1216 128 6.4 122.2976 6.4 115.264V12.736C6.4 5.7536 12.1152 0 19.1616 0H73.6192H51.2V25.6H19.2V115.2H96V96H108.8V89.6C115.872 89.6 121.6 83.8592 121.6 76.7616V12.8384A12.787200000000002 12.787200000000002 0 0 0 108.8 0H70.4C63.328 0 57.6 5.7408 57.6 12.8384V76.7616C57.6 83.8528 63.2768 89.6 70.4 89.6H108.8zM70.4 76.8H108.8V25.6H70.4V76.8zM89.6 6.4A6.400000000000001 6.400000000000001 0 1 1 89.6 19.2A6.400000000000001 6.400000000000001 0 0 1 89.6 6.4z" />
    <glyph glyph-name="mood-happy"
      unicode="&#xEA8C;"
      horiz-adv-x="128" d=" M64 0C99.3472 0 128 28.6528 128 64S99.3472 128 64 128S0 99.3472 0 64S28.6528 0 64 0zM64 12.8A51.20000000000001 51.20000000000001 0 1 1 64 115.2A51.20000000000001 51.20000000000001 0 0 1 64 12.8zM41.6 70.4A9.600000000000001 9.600000000000001 0 1 1 41.6 89.6A9.600000000000001 9.600000000000001 0 0 1 41.6 70.4zM86.4 70.4A9.600000000000001 9.600000000000001 0 1 1 86.4 89.6A9.600000000000001 9.600000000000001 0 0 1 86.4 70.4zM100.2176 51.2A38.412800000000004 38.412800000000004 0 0 0 27.776 51.2H100.224z" />
    <glyph glyph-name="mood-sad"
      unicode="&#xEA8D;"
      horiz-adv-x="128" d=" M64 0C99.3472 0 128 28.6528 128 64S99.3472 128 64 128S0 99.3472 0 64S28.6528 0 64 0zM64 12.8A51.20000000000001 51.20000000000001 0 1 1 64 115.2A51.20000000000001 51.20000000000001 0 0 1 64 12.8zM41.6 70.4A9.600000000000001 9.600000000000001 0 1 1 41.6 89.6A9.600000000000001 9.600000000000001 0 0 1 41.6 70.4zM86.4 70.4A9.600000000000001 9.600000000000001 0 1 1 86.4 89.6A9.600000000000001 9.600000000000001 0 0 1 86.4 70.4zM100.2176 32A38.412800000000004 38.412800000000004 0 0 1 27.776 32H100.224z" />
    <glyph glyph-name="mouse"
      unicode="&#xEA8E;"
      horiz-adv-x="128" d=" M70.4 70.4V127.4688C88.5632 124.4352 102.4 108.6848 102.4 89.6V38.4128C102.4 17.1968 85.1648 0 64 0C42.7904 0 25.6 17.1328 25.6 38.4V89.6A38.44480000000001 38.44480000000001 0 0 0 57.6 127.4624V70.4H25.6V57.6H102.4V70.4H70.4z" />
    <glyph glyph-name="music-notes"
      unicode="&#xEA8F;"
      horiz-adv-x="128" d=" M115.2 100.5696L51.2 91.4304V19.2A19.200000000000003 19.200000000000003 0 0 0 32 0H19.2A19.200000000000003 19.200000000000003 0 0 0 19.2 38.4H32C34.24 38.4 36.3968 38.016 38.4 37.312V115.2L128 128V32A19.200000000000003 19.200000000000003 0 0 0 108.8 12.8H96A19.200000000000003 19.200000000000003 0 0 0 96 51.2H108.8C111.04 51.2 113.1968 50.816 115.2 50.112V100.5632z" />
    <glyph glyph-name="navigation-more"
      unicode="&#xEA90;"
      horiz-adv-x="128" d=" M25.6 51.2A12.800000000000002 12.800000000000002 0 1 1 25.6 76.8A12.800000000000002 12.800000000000002 0 0 1 25.6 51.2zM64 51.2A12.800000000000002 12.800000000000002 0 1 1 64 76.8A12.800000000000002 12.800000000000002 0 0 1 64 51.2zM102.4 51.2A12.800000000000002 12.800000000000002 0 1 1 102.4 76.8A12.800000000000002 12.800000000000002 0 0 1 102.4 51.2z" />
    <glyph glyph-name="network"
      unicode="&#xEA91;"
      horiz-adv-x="128" d=" M113.5872 51.2C114.6368 55.296 115.2 59.584 115.2 64S114.6368 72.704 113.5872 76.8H89.1648C89.4528 72.6656 89.6 68.384 89.6 64S89.4528 55.3344 89.1648 51.2H113.5872zM108.352 38.4A51.37280000000001 51.37280000000001 0 0 0 81.664 15.936C84.352 22.08 86.4064 29.7472 87.7504 38.4H108.352zM51.712 51.2A157.50400000000002 157.50400000000002 0 0 0 51.712 76.8H76.2752A157.50400000000002 157.50400000000002 0 0 0 76.2752 51.2H51.712zM53.3184 38.4C55.9616 23.0912 60.5312 12.8 63.9936 12.8C67.4496 12.8 72.0256 23.0912 74.6688 38.4H53.3248zM14.4064 51.2A51.2896 51.2896 0 0 0 12.8 64C12.8 68.416 13.3632 72.704 14.4128 76.8H38.8352A184.384 184.384 0 0 1 38.4 64C38.4 59.616 38.5472 55.3344 38.8352 51.2H14.4128zM19.6416 38.4A51.37280000000001 51.37280000000001 0 0 1 46.3296 15.936C43.6416 22.08 41.5872 29.7472 40.2432 38.4H19.648zM108.3456 89.6A51.37280000000001 51.37280000000001 0 0 1 81.6576 112.064C84.3456 105.92 86.4 98.2528 87.744 89.6H108.3456zM53.3248 89.6C55.968 104.9088 60.544 115.2 64 115.2C67.456 115.2 72.032 104.9088 74.6752 89.6H53.3248zM19.648 89.6A51.37280000000001 51.37280000000001 0 0 0 46.336 112.064C43.648 105.92 41.5936 98.2528 40.2496 89.6H19.648zM64 0C99.3472 0 128 28.6528 128 64S99.3472 128 64 128S0 99.3472 0 64S28.6528 0 64 0z" />
    <glyph glyph-name="news-paper"
      unicode="&#xEA92;"
      horiz-adv-x="128" d=" M25.6 64H76.8V51.2H25.6V64zM25.6 38.4H76.8V25.6H25.6V38.4zM25.6 102.4H76.8V76.8H25.6V102.4zM102.4 115.2V128H0V19.1616A19.193600000000004 19.193600000000004 0 0 1 19.2 0H108.8C119.3792 0 128 8.576 128 19.1552V115.2H102.4zM102.4 102.4V19.1552C102.4 15.648 105.2416 12.8 108.8 12.8C112.3328 12.8 115.2 15.648 115.2 19.2V102.4H102.4zM12.8 115.2H89.6V19.1616C89.6 16.9344 89.984 14.7904 90.688 12.8H19.2448A6.400000000000001 6.400000000000001 0 0 0 12.8 19.1552V115.2z" />
    <glyph glyph-name="notification"
      unicode="&#xEA93;"
      horiz-adv-x="128" d=" M51.3728 113.0752A38.419200000000004 38.419200000000004 0 0 1 25.6 76.8V38.4L6.4 25.6V19.2H121.6V25.6L102.4 38.4V76.8A38.419200000000004 38.419200000000004 0 0 1 76.6272 113.0752A12.800000000000002 12.800000000000002 0 1 1 51.3792 113.0752zM76.8 12.8A12.800000000000002 12.800000000000002 0 1 0 51.2 12.8H76.8z" />
    <glyph glyph-name="notifications-outline"
      unicode="&#xEA94;"
      horiz-adv-x="128" d=" M89.6 76.8A25.600000000000005 25.600000000000005 0 1 1 38.4 76.8V32H89.6V76.8zM51.3728 113.0752A38.419200000000004 38.419200000000004 0 0 1 25.6 76.8V38.4L6.4 25.6V19.2H121.6V25.6L102.4 38.4V76.8A38.419200000000004 38.419200000000004 0 0 1 76.6272 113.0752A12.800000000000002 12.800000000000002 0 1 1 51.3792 113.0752zM76.8 12.8A12.800000000000002 12.800000000000002 0 1 0 51.2 12.8H76.8z" />
    <glyph glyph-name="pause-outline"
      unicode="&#xEA95;"
      horiz-adv-x="128" d=" M18.7456 18.7456C43.7376 -6.2464 84.2624 -6.2464 109.2544 18.7456C134.2464 43.7376 134.2464 84.2624 109.2544 109.2544C84.2624 134.2464 43.7376 134.2464 18.7456 109.2544C-6.2464 84.2624 -6.2464 43.7376 18.7456 18.7456zM100.2048 27.7952A51.20000000000001 51.20000000000001 0 1 1 27.7952 100.2048A51.20000000000001 51.20000000000001 0 0 1 100.2048 27.7952zM44.8 89.6H57.6V38.4H44.8V89.6zM70.4 89.6H83.2V38.4H70.4V89.6z" />
    <glyph glyph-name="pause-solid"
      unicode="&#xEA96;"
      horiz-adv-x="128" d=" M18.7456 18.7456C43.7376 -6.2464 84.2624 -6.2464 109.2544 18.7456C134.2464 43.7376 134.2464 84.2624 109.2544 109.2544C84.2624 134.2464 43.7376 134.2464 18.7456 109.2544C-6.2464 84.2624 -6.2464 43.7376 18.7456 18.7456zM44.8 89.6H57.6V38.4H44.8V89.6zM70.4 89.6H83.2V38.4H70.4V89.6z" />
    <glyph glyph-name="pause"
      unicode="&#xEA97;"
      horiz-adv-x="128" d=" M32 102.4H51.2V25.6H32V102.4zM76.8 102.4H96V25.6H76.8V102.4z" />
    <glyph glyph-name="pen-tool"
      unicode="&#xEA98;"
      horiz-adv-x="128" d=" M70.4 68.6848V128H57.6V68.6848A12.800000000000002 12.800000000000002 0 1 1 70.4 68.6848zM19.2 57.6L57.6 128H70.4L108.8 57.6L83.2 19.2H44.8L19.2 57.6zM38.4 12.8H89.6V0H38.4V12.8z" />
    <glyph glyph-name="phone"
      unicode="&#xEA99;"
      horiz-adv-x="128" d=" M71.5136 20.3136A96.33920000000003 96.33920000000003 0 0 0 20.3136 71.5136L33.8816 85.0816C36.3904 87.5904 38.4 92.4416 38.4 95.9424V121.6576A6.400000000000001 6.400000000000001 0 0 1 32 128H6.4128A6.400000000000001 6.400000000000001 0 0 1 0 121.5936V108.8C0 48.7104 48.7104 0 108.8 0H121.5936A6.387200000000001 6.387200000000001 0 0 1 128 6.4128V32A6.400000000000001 6.400000000000001 0 0 1 121.664 38.4H95.936C92.4416 38.4 87.5904 36.3904 85.0816 33.8816L71.5136 20.3136z" />
    <glyph glyph-name="photo"
      unicode="&#xEA9A;"
      horiz-adv-x="128" d=" M70.4 44.8L51.2 64L12.8 25.6H115.2L83.2 57.6L70.4 44.8zM0 102.4384C0 109.4848 5.7472 115.2 12.736 115.2H115.264C122.2912 115.2 128 109.472 128 102.4384V25.5616A12.780800000000001 12.780800000000001 0 0 0 115.264 12.8H12.736C5.7088 12.8 0 18.528 0 25.5616V102.4384zM96 70.4A12.800000000000002 12.800000000000002 0 1 1 96 96A12.800000000000002 12.800000000000002 0 0 1 96 70.4z" />
    <glyph glyph-name="play-outline"
      unicode="&#xEA9B;"
      horiz-adv-x="128" d=" M18.7456 18.7456C43.7376 -6.2464 84.2624 -6.2464 109.2544 18.7456C134.2464 43.7376 134.2464 84.2624 109.2544 109.2544C84.2624 134.2464 43.7376 134.2464 18.7456 109.2544C-6.2464 84.2624 -6.2464 43.7376 18.7456 18.7456zM100.2048 27.7952A51.20000000000001 51.20000000000001 0 1 1 27.7952 100.2048A51.20000000000001 51.20000000000001 0 0 1 100.2048 27.7952zM44.8 89.6L96 64L44.8 38.4V89.6z" />
    <glyph glyph-name="play"
      unicode="&#xEA9C;"
      horiz-adv-x="128" d=" M25.6 102.4L102.4 64L25.6 25.6z" />
    <glyph glyph-name="playlist"
      unicode="&#xEA9D;"
      horiz-adv-x="128" d=" M89.6 37.312C87.5968 38.016 85.44 38.4 83.2 38.4H70.4A19.200000000000003 19.200000000000003 0 0 1 70.4 0H83.2A19.200000000000003 19.200000000000003 0 0 1 102.4 19.2V98.1312L128 102.4V128L89.6 121.6V37.312zM0 108.8H76.8V96H0V108.8zM0 83.2H76.8V70.4H0V83.2zM0 57.6H76.8V44.8H0V57.6zM0 32H38.4V19.2H0V32z" />
    <glyph glyph-name="plugin"
      unicode="&#xEA9E;"
      horiz-adv-x="128" d=" M128 38.4V12.7616A12.768 12.768 0 0 0 115.2384 0H89.6V12.8128A12.761600000000001 12.761600000000001 0 0 1 76.8 25.6C69.6832 25.6 64 19.872 64 12.8128V0H38.3616A12.768 12.768 0 0 0 25.6 12.7616V38.4H12.7872A12.761600000000001 12.761600000000001 0 0 0 0 51.2C0 58.272 5.6768 64 12.7872 64H25.6V89.6384C25.6 96.6848 31.328 102.4 38.3616 102.4H64V115.2128C64 122.272 69.6832 128 76.8 128C83.872 128 89.6 122.3232 89.6 115.2128V102.4H115.2384C122.2848 102.4 128 96.672 128 89.6384V64H115.1872A12.761600000000001 12.761600000000001 0 0 1 102.4 51.2C102.4 44.0832 108.128 38.4 115.1872 38.4H128z" />
    <glyph glyph-name="portfolio"
      unicode="&#xEA9F;"
      horiz-adv-x="128" d=" M57.6 51.2H6.4V12.7872C6.4 5.6768 12.1152 0 19.168 0H108.832A12.774400000000002 12.774400000000002 0 0 1 121.6 12.7872V51.2H70.4V38.4H57.6V51.2zM57.6 57.6H0V96.0128C0 103.072 5.7472 108.8 12.736 108.8H38.4V115.2C38.4 122.272 44.0768 128 51.1872 128H76.8128C83.872 128 89.6 122.3168 89.6 115.2V108.8H115.264C122.2912 108.8 128 103.1232 128 96.0128V57.6H70.4V70.4H57.6V57.6zM76.8 108.8V115.2H51.2V108.8H76.8z" />
    <glyph glyph-name="printer"
      unicode="&#xEAA0;"
      horiz-adv-x="128" d=" M102.4 25.6H128V76.8C128 83.9232 122.2976 89.6 115.264 89.6H12.736A12.800000000000002 12.800000000000002 0 0 1 0 76.8V25.6H25.6V64H102.4V25.6zM25.6 64H102.4V0H25.6V64zM38.4 51.2H89.6V12.8H38.4V51.2zM25.6 128H102.4V96H25.6V128zM12.8 76.8H25.6V64H12.8V76.8zM38.4 76.8H51.2V64H38.4V76.8z" />
    <glyph glyph-name="question"
      unicode="&#xEAA1;"
      horiz-adv-x="128" d=" M89.6 83.2C89.6 77.9904 86.88 71.424 83.1744 67.7248L73.0752 57.6256C71.7696 56.32 70.4 53.024 70.4 51.2V44.8H57.6V51.2C57.6 56.4288 60.3264 62.976 64.0256 66.6752L74.1248 76.7744C75.4304 78.08 76.8 81.3824 76.8 83.2A12.800000000000002 12.800000000000002 0 1 1 51.2 83.2H38.4A25.600000000000005 25.600000000000005 0 1 0 89.6 83.2zM64 0C99.3472 0 128 28.6528 128 64S99.3472 128 64 128S0 99.3472 0 64S28.6528 0 64 0zM57.6 32H70.4V19.2H57.6V32z" />
    <glyph glyph-name="queue"
      unicode="&#xEAA2;"
      horiz-adv-x="128" d=" M0 115.2H128V89.6H0V115.2zM0 64H128V51.2H0V64zM0 25.6H128V12.8H0V25.6z" />
    <glyph glyph-name="radar"
      unicode="&#xEAA3;"
      horiz-adv-x="128" d=" M70.4 75.0848A12.800000000000002 12.800000000000002 0 1 0 57.6 75.0848V88.7936A25.6128 25.6128 0 0 1 64 38.4A25.600000000000005 25.600000000000005 0 0 1 82.0992 82.0992L91.1552 91.1552A38.400000000000006 38.400000000000006 0 1 0 57.6 101.8688V114.8032A51.206399999999995 51.206399999999995 0 0 1 64 12.8A51.20000000000001 51.20000000000001 0 0 1 100.2048 100.2048L109.248 109.248A63.80160000000001 63.80160000000001 0 0 0 128 64C128 28.6528 99.3472 0 64 0S0 28.6528 0 64C0 98.2656 26.9312 126.24 60.7808 127.9232A65.06240000000001 65.06240000000001 0 0 0 70.4 127.68V75.0784z" />
    <glyph glyph-name="refresh"
      unicode="&#xEAA4;"
      horiz-adv-x="128" d=" M64 108.8A44.80000000000001 44.80000000000001 0 0 1 32.32 32.32L41.3696 41.3696A32.00000000000001 32.00000000000001 0 0 0 64 96V108.8zM95.68 95.68A44.80000000000001 44.80000000000001 0 0 0 64 19.2V32A32.00000000000001 32.00000000000001 0 0 1 86.6304 86.6304L95.68 95.68zM64 0L38.4 25.6L64 51.2V0zM64 76.8L89.6 102.4L64 128V76.8z" />
    <glyph glyph-name="reload"
      unicode="&#xEAA5;"
      horiz-adv-x="128" d=" M93.8048 27.7952A51.20000000000001 51.20000000000001 0 1 0 108.8 64H96A38.400000000000006 38.400000000000006 0 1 1 84.7552 36.8448L93.8048 27.7952zM76.8 64H128L102.4 38.4L76.8 64z" />
    <glyph glyph-name="reply-all"
      unicode="&#xEAA6;"
      horiz-adv-x="128" d=" M64 76.8C96.2432 76.8 122.9184 52.9536 127.3536 21.9328A83.01440000000001 83.01440000000001 0 0 1 64 51.2V25.6L25.6 64L64 102.4V76.8zM38.4 89.6V102.4L0 64L38.4 25.6V38.4L12.8 64L38.4 89.6z" />
    <glyph glyph-name="reply"
      unicode="&#xEAA7;"
      horiz-adv-x="128" d=" M51.2 76.8C83.4432 76.8 110.1184 52.9536 114.5536 21.9328A83.01440000000001 83.01440000000001 0 0 1 51.2 51.2V25.6L12.8 64L51.2 102.4V76.8z" />
    <glyph glyph-name="repost"
      unicode="&#xEAA8;"
      horiz-adv-x="128" d=" M31.9488 102.4A12.736000000000004 12.736000000000004 0 0 1 19.2 89.6128V51.2H0L25.6 25.6L51.2 51.2H32V89.6H76.8L89.6 102.4H31.9488zM96 76.8H76.8L102.4 102.4L128 76.8H108.8V38.3872A12.800000000000002 12.800000000000002 0 0 0 96.0512 25.6H38.4L51.2 38.4H96V76.8z" />
    <glyph glyph-name="save-disk"
      unicode="&#xEAA9;"
      horiz-adv-x="128" d=" M0 115.264C0 122.2912 5.728 128 12.7616 128H102.4L128 102.4V12.7616A12.780800000000001 12.780800000000001 0 0 0 115.264 0H12.736C5.7088 0 0 5.7472 0 12.736V115.264zM32 115.2H96V76.8H32V115.2zM70.4 108.8H89.6V83.2H70.4V108.8z" />
    <glyph glyph-name="screen-full"
      unicode="&#xEAAA;"
      horiz-adv-x="128" d=" M26.9248 17.8752L44.8 0H0V44.8L17.8752 26.9248L45.5744 54.6304L54.6304 45.5744L26.9248 17.8752zM101.0752 110.1248L83.2 128H128V83.2L110.1248 101.0752L82.4256 73.3696L73.3696 82.4256L101.0752 110.1248zM101.0752 17.8752L83.2 0H128V44.8L110.1248 26.9248L82.4256 54.6304L73.3696 45.5744L101.0752 17.8752zM26.9248 110.1248L44.8 128H0V83.2L17.8752 101.0752L45.568 73.3696L54.6304 82.432L26.9248 110.1248z" />
    <glyph glyph-name="search"
      unicode="&#xEAAB;"
      horiz-adv-x="128" d=" M71.6288 47.3216A44.80000000000001 44.80000000000001 0 1 0 80.6784 56.3712L89.7024 47.3472A12.742400000000004 12.742400000000004 0 0 0 102.0672 44.032L120.192 25.9136C125.184 20.9216 125.216 12.8576 120.1792 7.8208A12.761600000000001 12.761600000000001 0 0 0 102.0864 7.808L83.968 25.9328A12.761600000000001 12.761600000000001 0 0 0 80.6528 38.2976L71.6288 47.3216zM44.8 51.2A32.00000000000001 32.00000000000001 0 1 1 44.8 115.2A32.00000000000001 32.00000000000001 0 0 1 44.8 51.2z" />
    <glyph glyph-name="send"
      unicode="&#xEAAC;"
      horiz-adv-x="128" d=" M0 128L128 64L0 0V128zM0 76.8L64 64L0 51.2V76.8z" />
    <glyph glyph-name="share-01"
      unicode="&#xEAAD;"
      horiz-adv-x="128" d=" M57.6 103.5008V76.8H51.2V64H38.4V12.8H89.6V64H76.8V76.8H70.4V25.6H57.6V76.8H38.4576A12.864 12.864 0 0 1 25.6 63.9424V12.8576C25.6 5.7728 31.36 0 38.4576 0H89.5424A12.864 12.864 0 0 1 102.4 12.8576V63.936A12.864 12.864 0 0 1 89.5424 76.8H70.4V103.5008L90.0544 83.84L99.104 92.8896L68.5248 123.4752L64 128L28.896 92.896L37.9456 83.84L57.6 103.488z" />
    <glyph glyph-name="shield"
      unicode="&#xEAAE;"
      horiz-adv-x="128" d=" M121.6 57.6C121.6 43.456 111.5648 26.432 99.2448 19.584L64 0L28.7552 19.584C16.4032 26.432 6.4 43.4816 6.4 57.6V108.8C28.0064 108.8 47.9488 115.936 63.9936 127.9872C80.0384 115.9296 99.9872 108.7872 121.6 108.7872V57.6zM64 53.76L48.9536 43.2896L54.2656 60.8384L39.6544 71.9104L57.984 72.2816L64 89.6L70.016 72.2816L88.3456 71.9104L73.7408 60.8384L79.0528 43.2896L64 53.76z" />
    <glyph glyph-name="shopping-cart"
      unicode="&#xEAAF;"
      horiz-adv-x="128" d=" M19.2 96L27.7312 70.4H25.6A19.200000000000003 19.200000000000003 0 0 1 25.6 32H108.8V44.8H25.6448A6.4064000000000005 6.4064000000000005 0 1 0 25.5936 57.6H108.8L128 115.2H25.6V121.6192C25.6 125.1008 22.7072 128 19.136 128H0V115.2H12.8L19.2 96zM32 0A12.800000000000002 12.800000000000002 0 1 1 32 25.6A12.800000000000002 12.800000000000002 0 0 1 32 0zM96 0A12.800000000000002 12.800000000000002 0 1 1 96 25.6A12.800000000000002 12.800000000000002 0 0 1 96 0z" />
    <glyph glyph-name="show-sidebar"
      unicode="&#xEAB0;"
      horiz-adv-x="128" d=" M44.8 108.8H12.8V19.2H44.8V108.8zM57.6 108.8H115.2V19.2H57.6V108.8zM0 108.832C0 115.8848 5.7472 121.6 12.736 121.6H115.264C122.2912 121.6 128 115.8848 128 108.832V19.168A12.780800000000001 12.780800000000001 0 0 0 115.264 6.4H12.736C5.7088 6.4 0 12.1152 0 19.168V108.832zM19.2 102.4H38.4V89.6H19.2V102.4zM19.2 83.2H38.4V70.4H19.2V83.2zM19.2 64H38.4V51.2H19.2V64z" />
    <glyph glyph-name="shuffle"
      unicode="&#xEAB1;"
      horiz-adv-x="128" d=" M42.1504 45.9008L28.224 31.9744C24.512 28.2624 18.048 25.6 12.8064 25.6H0V38.4H12.8064C14.6624 38.4 17.8752 39.7248 19.1744 41.024L33.1008 54.9504L42.1504 45.9008zM102.4 89.6H89.6C87.744 89.6 84.5184 88.2624 83.2256 86.976L69.2992 73.0496L60.2496 82.0992L74.176 96.0256C77.8688 99.712 84.352 102.4 89.6 102.4H102.4V121.6L128 96L102.4 70.4V89.6zM102.4 25.6H89.6C84.352 25.6 77.8688 28.288 74.176 31.9744L19.1744 86.976C17.8752 88.2752 14.656 89.6 12.8064 89.6H0V102.4H12.8064C18.048 102.4 24.5184 99.7312 28.2304 96.0256L83.2256 41.024C84.5184 39.7376 87.744 38.4 89.6 38.4H102.4V57.6L128 32L102.4 6.4V25.6z" />
    <glyph glyph-name="star-full"
      unicode="&#xEAB2;"
      horiz-adv-x="128" d=" M64 32L26.3808 12.224L33.568 54.112L3.1296 83.776L45.1904 89.888L64 128L82.8096 89.888L124.8704 83.776L94.432 54.112L101.6192 12.224z" />
    <glyph glyph-name="station"
      unicode="&#xEAB3;"
      horiz-adv-x="128" d=" M70.4 52.9152A12.800000000000002 12.800000000000002 0 1 1 57.6 52.9152V0H70.4V52.9152zM91.1552 36.8512A38.400000000000006 38.400000000000006 0 1 1 36.8512 36.8512L45.9008 45.9008A25.600000000000005 25.600000000000005 0 1 0 82.1056 45.9008L91.1552 36.8448zM109.2544 18.7392A63.80160000000001 63.80160000000001 0 0 1 128 64C128 99.3472 99.3472 128 64 128S0 99.3472 0 64A63.80160000000001 63.80160000000001 0 0 1 18.7456 18.7456L27.7952 27.7952A51.20000000000001 51.20000000000001 0 1 0 100.2048 27.7952L109.2544 18.7456z" />
    <glyph glyph-name="store-front"
      unicode="&#xEAB4;"
      horiz-adv-x="128" d=" M115.2 64.832V0H12.8V64.832C14.7776 64.288 16.9152 64 19.2 64A27.20000000000001 27.20000000000001 0 0 1 32 67.2512V38.4H96V67.2448C99.8784 65.1776 104.256 64 108.8 64A24.192000000000004 24.192000000000004 0 0 1 115.2 64.832zM19.2 128L6.08 88.6272C2.7008 78.528 8.5888 70.4 19.2 70.4C29.7792 70.4 39.3472 78.912 40.512 89.4208L44.8 128H19.2zM51.2 128L46.72 87.68C45.664 78.1696 52.5888 70.4 62.208 70.4H65.792C75.4304 70.4 82.3424 78.1376 81.28 87.68L76.8 128H51.2zM83.2 128L87.488 89.4208C88.6528 78.8992 98.1952 70.4 108.8 70.4C119.3792 70.4 125.28 78.56 121.92 88.6272L108.8 128H83.2z" />
    <glyph glyph-name="stroke-width"
      unicode="&#xEAB5;"
      horiz-adv-x="128" d=" M0 128H128V96H0V128zM0 83.2H128V57.6H0V83.2zM0 44.8H128V25.6H0V44.8zM0 12.8H128V0H0V12.8z" />
    <glyph glyph-name="tablet"
      unicode="&#xEAB6;"
      horiz-adv-x="128" d=" M12.8 115.264C12.8 122.2912 18.528 128 25.5616 128H102.4384C109.4848 128 115.2 122.2528 115.2 115.264V12.736C115.2 5.7024 109.472 0 102.4384 0H25.5616A12.780800000000001 12.780800000000001 0 0 0 12.8 12.736V115.264zM25.6 115.2H102.4V25.6H25.6V115.2zM64 6.4A6.400000000000001 6.400000000000001 0 1 1 64 19.2A6.400000000000001 6.400000000000001 0 0 1 64 6.4z" />
    <glyph glyph-name="tag"
      unicode="&#xEAB7;"
      horiz-adv-x="128" d=" M0 64V115.2L12.8 128H64L128 64L64 0L0 64zM28.8 89.6A9.600000000000001 9.600000000000001 0 1 1 28.8 108.8A9.600000000000001 9.600000000000001 0 0 1 28.8 89.6z" />
    <glyph glyph-name="target"
      unicode="&#xEAB8;"
      horiz-adv-x="128" d=" M114.8032 70.4A51.2256 51.2256 0 0 1 70.4 114.8032V83.2H57.6V114.8032A51.2256 51.2256 0 0 1 13.1968 70.4H44.8V57.6H13.1968A51.2256 51.2256 0 0 1 57.6 13.1968V44.8H70.4V13.1968A51.2256 51.2256 0 0 1 114.8032 57.6H83.2V70.4H114.8032zM64 0C99.3472 0 128 28.6528 128 64S99.3472 128 64 128S0 99.3472 0 64S28.6528 0 64 0z" />
    <glyph glyph-name="text-box"
      unicode="&#xEAB9;"
      horiz-adv-x="128" d=" M0 128H38.4V89.6H0V128zM12.8 115.2H25.6V102.4H12.8V115.2zM89.6 128H128V89.6H89.6V128zM102.4 115.2H115.2V102.4H102.4V115.2zM89.6 38.4H128V0H89.6V38.4zM102.4 25.6H115.2V12.8H102.4V25.6zM0 38.4H38.4V0H0V38.4zM12.8 25.6H25.6V12.8H12.8V25.6zM38.4 115.2H89.6V102.4H38.4V115.2zM38.4 25.6H89.6V12.8H38.4V25.6zM102.4 89.6H115.2V38.4H102.4V89.6zM12.8 89.6H25.6V38.4H12.8V89.6zM44.8 83.2H83.2V70.4H44.8V83.2zM57.6 70.4H70.4V44.8H57.6V70.4z" />
    <glyph glyph-name="text-decoration"
      unicode="&#xEABA;"
      horiz-adv-x="128" d=" M76.8 96H64V19.2H51.2V108.8H102.4V96H89.6V19.2H76.8V96zM51.2 108.8A25.600000000000005 25.600000000000005 0 1 1 51.2 57.6V108.8z" />
    <glyph glyph-name="thumbs-down"
      unicode="&#xEABB;"
      horiz-adv-x="128" d=" M70.4064 0A12.768 12.768 0 0 0 57.6 12.7872V51.2H12.7808A12.761600000000001 12.761600000000001 0 0 0 0 64V76.8L14.7008 115.9936C17.184 122.624 24.9728 128 32.0576 128H83.1424A12.800000000000002 12.800000000000002 0 0 0 96 115.2V64L76.8 19.2V0H70.4064zM108.8 64H128V128H108.8V64z" />
    <glyph glyph-name="thumbs-up"
      unicode="&#xEABC;"
      horiz-adv-x="128" d=" M70.4064 128A12.768 12.768 0 0 1 57.6 115.2128V76.8H12.7808A12.761600000000001 12.761600000000001 0 0 1 0 64V51.2L14.7008 12.0064C17.184 5.376 24.9728 0 32.0576 0H83.1424A12.800000000000002 12.800000000000002 0 0 1 96 12.8V64L76.8 108.8V128H70.4064zM108.8 64H128V0H108.8V64z" />
    <glyph glyph-name="ticket"
      unicode="&#xEABD;"
      horiz-adv-x="128" d=" M128 51.2V19.2H0V51.2A12.800000000000002 12.800000000000002 0 1 1 0 76.8V108.8H128V76.8A12.800000000000002 12.800000000000002 0 1 1 128 51.2zM19.2 96H108.8V32H19.2V96zM64 53.76L48.9536 43.2896L54.2656 60.8384L39.6544 71.9104L57.984 72.2816L64 89.6L70.016 72.2816L88.3456 71.9104L73.7408 60.8384L79.0528 43.2896L64 53.76z" />
    <glyph glyph-name="time"
      unicode="&#xEABE;"
      horiz-adv-x="128" d=" M57.6 73.6V102.4H70.4V66.6496L95.68 41.3696L86.6304 32.32L57.6 61.3504V73.6zM64 0C99.3472 0 128 28.6528 128 64S99.3472 128 64 128S0 99.3472 0 64S28.6528 0 64 0zM64 12.8A51.20000000000001 51.20000000000001 0 1 1 64 115.2A51.20000000000001 51.20000000000001 0 0 1 64 12.8z" />
    <glyph glyph-name="timer"
      unicode="&#xEABF;"
      horiz-adv-x="128" d=" M95.3984 91.648A50.94400000000002 50.94400000000002 0 0 1 70.4 102.0032V115.2H57.6V102.0032A51.206399999999995 51.206399999999995 0 0 1 64 0A51.20000000000001 51.20000000000001 0 0 1 104.448 82.5984L113.7792 91.9296L104.7296 100.9792L95.3984 91.648zM64 12.8A38.400000000000006 38.400000000000006 0 1 1 64 89.6A38.400000000000006 38.400000000000006 0 0 1 64 12.8zM44.8 128H83.2V115.2H44.8V128zM77.5744 73.8304L86.6304 64.7744L64 42.1504L54.9504 51.2L77.5744 73.8304z" />
    <glyph glyph-name="tools"
      unicode="&#xEAC0;"
      horiz-adv-x="128" d=" M89.6 124.576A25.587200000000006 25.587200000000006 0 0 1 76.8 102.4C76.8 92.928 81.9456 84.6528 89.6 80.224V12.7488C89.6 5.7152 95.328 0 102.4 0C109.5168 0 115.2 5.7088 115.2 12.7488V80.224A25.587200000000006 25.587200000000006 0 0 1 128 102.4C128 111.872 122.8544 120.1472 115.2 124.576V102.4H89.6V124.576zM38.4 62.304V96H25.6V62.2976C21.76 60.0896 19.2 55.9488 19.2 51.2V12.8C19.2 5.6768 24.928 0 32 0C39.1168 0 44.8 5.728 44.8 12.8V51.2C44.8 55.9744 42.2272 60.096 38.4 62.2976zM44.8 108.8H51.2A6.400000000000001 6.400000000000001 0 0 1 57.6 102.4H64V128H57.6C54.0608 128 51.232 125.1392 51.2 121.6H44.8V121.6064C44.8 125.1648 41.9072 128 38.336 128H25.664C22.0352 128 17.1648 125.9648 14.6496 123.4496L0 108.8V96L13.8496 105.2352C16.8448 107.232 20.48 106.2336 22.0608 103.072L25.6 96H38.4L44.8 108.8z" />
    <glyph glyph-name="trash"
      unicode="&#xEAC1;"
      horiz-adv-x="128" d=" M12.8 115.2H115.2V102.4H12.8V115.2zM51.2 128H76.8L89.6 115.2H38.4L51.2 128zM19.2 89.6H108.8L102.4 0H25.6L19.2 89.6zM51.2 76.8H57.6V12.8H51.2V76.8zM70.4 76.8H76.8V12.8H70.4V76.8z" />
    <glyph glyph-name="travel"
      unicode="&#xEAC2;"
      horiz-adv-x="128" d=" M38.4 96H12.736C5.7536 96 0 90.2528 0 83.1616V19.2384C0 12.1408 5.7024 6.4 12.736 6.4H19.2V96H25.6V6.4H102.4V96H108.8V6.4H115.264C122.2528 6.4 128 12.1472 128 19.2384V83.1616A12.787200000000002 12.787200000000002 0 0 1 115.264 96H89.6V102.4C89.6 109.5168 83.872 115.2 76.8128 115.2H51.1872A12.761600000000001 12.761600000000001 0 0 1 38.4 102.4V96zM51.2 102.4H76.8V96H51.2V102.4z" />
    <glyph glyph-name="trophy"
      unicode="&#xEAC3;"
      horiz-adv-x="128" d=" M96 70.4A19.200000000000003 19.200000000000003 0 0 1 115.2 89.6H128A32.00000000000001 32.00000000000001 0 0 0 95.36 57.6064A32.03840000000001 32.03840000000001 0 0 0 70.4 32.64V19.2L102.4 6.4V0H25.6V6.4L57.6 19.2V32.64A32.03840000000001 32.03840000000001 0 0 0 32.64 57.6064L32 57.6A32.00000000000001 32.00000000000001 0 0 0 0 89.6H12.8A19.200000000000003 19.200000000000003 0 0 1 32 70.4V102.4H12.8V89.6H0V115.2H32V128H96V115.2H128V89.6H115.2V102.4H96V70.4z" />
    <glyph glyph-name="tuning"
      unicode="&#xEAC4;"
      horiz-adv-x="128" d=" M108.8 25.6H121.6V44.8H83.2V25.6H96V0H108.8V25.6zM6.4 70.4H44.8V51.2H6.4V70.4zM44.8 96H83.2V76.8H44.8V96zM19.2 128H32V76.8H19.2V128zM96 128H108.8V51.2H96V128zM57.6 128H70.4V102.4H57.6V128zM19.2 51.2H32V0H19.2V51.2zM57.6 76.8H70.4V0H57.6V76.8z" />
    <glyph glyph-name="upload"
      unicode="&#xEAC5;"
      horiz-adv-x="128" d=" M83.2 64V25.6H44.8V64H12.8L64 115.2L115.2 64H83.2zM0 12.8H128V0H0V12.8z" />
    <glyph glyph-name="usb"
      unicode="&#xEAC6;"
      horiz-adv-x="128" d=" M108.8 76.8V64.0384A12.793600000000003 12.793600000000003 0 0 0 95.9616 51.2H70.4V23.8848A12.800000000000002 12.800000000000002 0 1 0 57.6 23.8848V38.4H32.0384A12.793600000000003 12.793600000000003 0 0 0 19.2 51.2384V65.7152A12.800000000000002 12.800000000000002 0 1 0 32 65.7152V51.2H57.6V102.4H44.8L64 128L83.2 102.4H70.4V64H96V76.8H89.6V102.4H115.2V76.8H108.8z" />
    <glyph glyph-name="user-group"
      unicode="&#xEAC7;"
      horiz-adv-x="128" d=" M44.8 76.8A25.600000000000005 25.600000000000005 0 1 1 44.8 128A25.600000000000005 25.600000000000005 0 0 1 44.8 76.8zM44.8 70.4A114.75200000000002 114.75200000000002 0 0 1 5.7024 63.4496L12.8 25.6H20.8L25.6 0H64L68.8 25.6H76.8L83.8976 63.4496A114.75200000000002 114.75200000000002 0 0 1 44.8 70.4zM98.016 69.3056L87.424 12.8H79.424L77.024 0H102.4L107.2 25.6H115.2L122.2976 63.4496A116.55040000000002 116.55040000000002 0 0 1 98.016 69.3056zM83.2 128A25.536 25.536 0 0 1 74.6944 126.4448A38.1696 38.1696 0 0 0 83.2 102.4A38.1696 38.1696 0 0 0 74.6944 78.3552C77.3696 77.4144 80.1984 76.8 83.2 76.8A25.600000000000005 25.600000000000005 0 0 1 83.2 128z" />
    <glyph glyph-name="user"
      unicode="&#xEAC8;"
      horiz-adv-x="128" d=" M32 95.9872A32.032000000000004 32.032000000000004 0 0 0 64 128C81.6704 128 96 113.7344 96 95.9872V83.2128A32.032000000000004 32.032000000000004 0 0 0 64 51.2C46.3296 51.2 32 65.4656 32 83.2128V95.9872zM0 21.2736A127.41120000000004 127.41120000000004 0 0 0 64 38.4C87.3152 38.4 109.1712 32.1664 128 21.2736V0H0V21.2736z" />
    <glyph glyph-name="vector"
      unicode="&#xEAC9;"
      horiz-adv-x="128" d=" M76.8 102.4H104.1152A12.800000000000002 12.800000000000002 0 1 0 104.1152 89.6H90.4192A57.61920000000001 57.61920000000001 0 0 0 121.4016 43.2A12.800000000000002 12.800000000000002 0 1 0 108.5696 42.9504A44.83840000000001 44.83840000000001 0 0 1 76.8 81.3504V76.8H51.2V81.344A44.83840000000001 44.83840000000001 0 0 1 19.4304 42.9504A12.793600000000003 12.793600000000003 0 0 0 12.8 19.2A12.800000000000002 12.800000000000002 0 0 0 6.592 43.2A57.61920000000001 57.61920000000001 0 0 0 37.5936 89.6H23.8976A12.800000000000002 12.800000000000002 0 1 0 23.8976 102.4H51.2V108.8H76.8V102.4z" />
    <glyph glyph-name="video-camera"
      unicode="&#xEACA;"
      horiz-adv-x="128" d=" M0 102.4384C0 109.4848 5.728 115.2 12.7616 115.2H89.6384C96.6848 115.2 102.4 109.472 102.4 102.4384V25.5616A12.768 12.768 0 0 0 89.6384 12.8H12.7616A12.768 12.768 0 0 0 0 25.5616V102.4384zM51.2 38.4A25.600000000000005 25.600000000000005 0 1 1 51.2 89.6A25.600000000000005 25.600000000000005 0 0 1 51.2 38.4zM51.2 51.2A12.800000000000002 12.800000000000002 0 1 1 51.2 76.8A12.800000000000002 12.800000000000002 0 0 1 51.2 51.2zM102.4 83.2L128 108.8V19.2L102.4 44.8V83.2z" />
    <glyph glyph-name="view-carousel"
      unicode="&#xEACB;"
      horiz-adv-x="128" d=" M89.6 92.8V102.4H38.4V25.6H89.6V92.8zM102.4 89.6H115.2V38.4H102.4V89.6zM25.6 89.6H12.8V38.4H25.6V89.6zM102.4 25.6V12.8H25.6V25.6H0V102.4H25.6V115.2H102.4V102.4H128V25.6H102.4z" />
    <glyph glyph-name="view-column"
      unicode="&#xEACC;"
      horiz-adv-x="128" d=" M0 115.2H128V12.8H0V115.2zM12.8 102.4H115.2V25.6H12.8V102.4zM38.4 102.4H51.2V25.6H38.4V102.4zM76.8 102.4H89.6V25.6H76.8V102.4z" />
    <glyph glyph-name="view-hide"
      unicode="&#xEACD;"
      horiz-adv-x="128" d=" M106.3488 88.2432A70.71359999999999 70.71359999999999 0 0 0 126.72 64A70.4 70.4 0 0 0 64 25.6C57.7856 25.6 51.7568 26.4064 46.016 27.9168L57.3696 39.264A25.632 25.632 0 0 1 89.6 64C89.6 66.2912 89.2992 68.5184 88.736 70.6304L106.3488 88.2432zM81.984 100.0832A70.50880000000001 70.50880000000001 0 0 1 64 102.4A70.4 70.4 0 0 1 1.28 64A70.70720000000001 70.70720000000001 0 0 1 21.6512 39.7568L39.264 57.3696A25.632 25.632 0 0 0 64 89.6C66.2912 89.6 68.5184 89.2992 70.6304 88.736L81.984 100.0832zM104.7296 113.7792L113.7792 104.7296L23.2704 14.2208L14.2208 23.2704L104.7296 113.7792z" />
    <glyph glyph-name="view-list"
      unicode="&#xEACE;"
      horiz-adv-x="128" d=" M0 108.8H128V96H0V108.8zM0 83.2H128V70.4H0V83.2zM0 57.6H128V44.8H0V57.6zM0 32H128V19.2H0V32z" />
    <glyph glyph-name="view-show"
      unicode="&#xEACF;"
      horiz-adv-x="128" d=" M126.72 64A70.4 70.4 0 0 1 64 102.4A70.4 70.4 0 0 1 1.28 64A70.4 70.4 0 0 1 64 25.6A70.4 70.4 0 0 1 126.72 64zM64 38.4A25.600000000000005 25.600000000000005 0 1 1 64 89.6A25.600000000000005 25.600000000000005 0 0 1 64 38.4zM64 51.2A12.800000000000002 12.800000000000002 0 1 1 64 76.8A12.800000000000002 12.800000000000002 0 0 1 64 51.2z" />
    <glyph glyph-name="view-tile"
      unicode="&#xEAD0;"
      horiz-adv-x="128" d=" M0 128H57.6V70.4H0V128zM12.8 115.2H44.8V83.2H12.8V115.2zM0 57.6H57.6V0H0V57.6zM12.8 44.8H44.8V12.8H12.8V44.8zM70.4 128H128V70.4H70.4V128zM83.2 115.2H115.2V83.2H83.2V115.2zM70.4 57.6H128V0H70.4V57.6zM83.2 44.8H115.2V12.8H83.2V44.8z" />
    <glyph glyph-name="volume-down"
      unicode="&#xEAD1;"
      horiz-adv-x="128" d=" M44.8 83.2H19.2V44.8H44.8L76.8 12.8V115.2L44.8 83.2zM99.4304 41.3696A31.8976 31.8976 0 0 1 108.8 64C108.8 72.832 105.216 80.832 99.4304 86.6304L90.368 77.568A19.136000000000003 19.136000000000003 0 0 0 96 64A19.136000000000003 19.136000000000003 0 0 0 90.3744 50.4256L99.4304 41.3696z" />
    <glyph glyph-name="volume-mute"
      unicode="&#xEAD2;"
      horiz-adv-x="128" d=" M57.6 83.2H32V44.8H57.6L89.6 12.8V115.2L57.6 83.2z" />
    <glyph glyph-name="volume-off"
      unicode="&#xEAD3;"
      horiz-adv-x="128" d=" M96 73.0496L82.4256 86.6304L73.3696 77.5744L86.9504 64L73.3696 50.4256L82.4256 41.3696L96 54.9504L109.5744 41.3696L118.6304 50.4256L105.0496 64L118.6304 77.5744L109.5744 86.6304L96 73.0496zM25.6 83.2H0V44.8H25.6L57.6 12.8V115.2L25.6 83.2z" />
    <glyph glyph-name="volume-up"
      unicode="&#xEAD4;"
      horiz-adv-x="128" d=" M32 83.2H6.4V44.8H32L64 12.8V115.2L32 83.2zM104.7296 23.2704A57.4208 57.4208 0 0 1 121.6 64A57.4208 57.4208 0 0 1 104.7296 104.7296L95.68 95.68A44.659200000000006 44.659200000000006 0 0 0 108.8 64A44.659200000000006 44.659200000000006 0 0 0 95.68 32.32L104.7296 23.2704zM86.6304 41.3696A31.8976 31.8976 0 0 1 96 64C96 72.832 92.416 80.832 86.6304 86.6304L77.568 77.568A19.136000000000003 19.136000000000003 0 0 0 83.2 64A19.136000000000003 19.136000000000003 0 0 0 77.5744 50.4256L86.6304 41.3696z" />
    <glyph glyph-name="wallet"
      unicode="&#xEAD5;"
      horiz-adv-x="128" d=" M0 102.4384C0 109.4848 5.7152 115.2 12.768 115.2H108.8448C112.352 115.2 115.2 112.3584 115.2 108.8V102.4H12.8V96H121.6448C125.152 96 128 93.1392 128 89.6064V25.6192A12.8064 12.8064 0 0 0 115.264 12.8H12.736C5.7088 12.8 0 18.528 0 25.5616V102.4384zM105.6 44.8A9.600000000000001 9.600000000000001 0 1 1 105.6 64A9.600000000000001 9.600000000000001 0 0 1 105.6 44.8z" />
    <glyph glyph-name="watch"
      unicode="&#xEAD6;"
      horiz-adv-x="128" d=" M70.4 70.4V83.2H57.6V57.6H83.2V70.4H70.4zM94.848 31.52A44.67200000000001 44.67200000000001 0 0 1 108.8 64A44.67200000000001 44.67200000000001 0 0 1 94.848 96.48L89.6 128H38.4L33.152 96.48A44.67200000000001 44.67200000000001 0 0 1 19.2 64C19.2 51.2128 24.5568 39.68 33.152 31.52L38.4 0H89.6L94.848 31.52zM64 32A32.00000000000001 32.00000000000001 0 1 1 64 96A32.00000000000001 32.00000000000001 0 0 1 64 32z" />
    <glyph glyph-name="window-new"
      unicode="&#xEAD7;"
      horiz-adv-x="128" d=" M57.6 64H44.8V51.2H57.6V38.4H70.4V51.2H83.2V64H70.4V76.8H57.6V64zM0 108.832C0 115.8848 5.7472 121.6 12.736 121.6H115.264C122.2912 121.6 128 115.8848 128 108.832V19.168A12.780800000000001 12.780800000000001 0 0 0 115.264 6.4H12.736C5.7088 6.4 0 12.1152 0 19.168V108.832zM12.8 96H115.2V19.2H12.8V96z" />
    <glyph glyph-name="window-open"
      unicode="&#xEAD8;"
      horiz-adv-x="128" d=" M0 108.832C0 115.8848 5.7472 121.6 12.736 121.6H115.264C122.2912 121.6 128 115.8848 128 108.832V19.168A12.780800000000001 12.780800000000001 0 0 0 115.264 6.4H12.736C5.7088 6.4 0 12.1152 0 19.168V108.832zM12.8 96H115.2V19.2H12.8V96zM64 76.8L89.6 44.8H38.4L64 76.8z" />
    <glyph glyph-name="window"
      unicode="&#xEAD9;"
      horiz-adv-x="128" d=" M0 108.832C0 115.8848 5.7472 121.6 12.736 121.6H115.264C122.2912 121.6 128 115.8848 128 108.832V19.168A12.780800000000001 12.780800000000001 0 0 0 115.264 6.4H12.736C5.7088 6.4 0 12.1152 0 19.168V108.832zM12.8 96H115.2V19.2H12.8V96z" />
    <glyph glyph-name="wrench"
      unicode="&#xEADA;"
      horiz-adv-x="128" d=" M60.3008 82.5984A32.012800000000006 32.012800000000006 0 0 1 19.3664 125.408L44.6336 100.1344L26.5344 82.0352L1.2608 107.3024A32.0064 32.0064 0 0 1 41.3888 65.3184L106.2208 0.4864L124.32 18.5856L60.3008 82.5984z" />
    <glyph glyph-name="zoom-in"
      unicode="&#xEADB;"
      horiz-adv-x="128" d=" M38.4 89.6H25.6V76.8H38.4V64H51.2V76.8H64V89.6H51.2V102.4H38.4V89.6zM71.6288 47.3216A44.80000000000001 44.80000000000001 0 1 0 80.6784 56.3712L89.7024 47.3472A12.742400000000004 12.742400000000004 0 0 0 102.0672 44.032L120.192 25.9136C125.184 20.9216 125.216 12.8576 120.1792 7.8208A12.761600000000001 12.761600000000001 0 0 0 102.0864 7.808L83.968 25.9328A12.761600000000001 12.761600000000001 0 0 0 80.6528 38.2976L71.6288 47.3216zM44.8 51.2A32.00000000000001 32.00000000000001 0 1 1 44.8 115.2A32.00000000000001 32.00000000000001 0 0 1 44.8 51.2z" />
    <glyph glyph-name="zoom-out"
      unicode="&#xEADC;"
      horiz-adv-x="128" d=" M71.6288 47.3216A44.80000000000001 44.80000000000001 0 1 0 80.6784 56.3712L89.7024 47.3472A12.742400000000004 12.742400000000004 0 0 0 102.0672 44.032L120.192 25.9136C125.184 20.9216 125.216 12.8576 120.1792 7.8208A12.761600000000001 12.761600000000001 0 0 0 102.0864 7.808L83.968 25.9328A12.761600000000001 12.761600000000001 0 0 0 80.6528 38.2976L71.6288 47.3216zM44.8 51.2A32.00000000000001 32.00000000000001 0 1 1 44.8 115.2A32.00000000000001 32.00000000000001 0 0 1 44.8 51.2zM25.6 89.6H64V76.8H25.6V89.6z" />
  </font>
</defs>
</svg>
