<svg width="24" height="24" viewBox="0 0 24 24" xmlns="http://www.w3.org/2000/svg"><path d="M19.663 6H22a1 1 0 0 1 1 1v5a1 1 0 0 1-1 1h-1v9a1 1 0 0 1-1 1H4a1 1 0 0 1-1-1v-9H2a1 1 0 0 1-1-1V7a1 1 0 0 1 1-1h2.337A3.5 3.5 0 0 1 7.5 1c1.96 0 3.421 1.168 4.439 3.018l.061.113.061-.113C13.08 2.168 14.54 1 16.5 1a3.5 3.5 0 0 1 3.163 5zM13 8v3h8V8h-8zm-2 0H3v3h8V8zm2 13h6v-8h-6v8zm-2 0v-8H5v8h6zm-.814-16.018C9.485 3.707 8.602 3 7.5 3a1.5 1.5 0 0 0 0 3h3.154a8.154 8.154 0 0 0-.468-1.018zM16.5 6a1.5 1.5 0 0 0 0-3c-1.102 0-1.985.707-2.686 1.982A8.153 8.153 0 0 0 13.346 6H16.5z" fill-rule="nonzero"/></svg>