<svg width="24" height="24" viewBox="0 0 24 24" xmlns="http://www.w3.org/2000/svg"><path d="M18.323 16.908l.01.01 5.374 5.375a1 1 0 0 1-1.414 1.414l-4.653-4.653a21.29 21.29 0 0 1-5.173 3.83 1 1 0 0 1-.914.01 17.31 17.31 0 0 1-1.333-.765 22.465 22.465 0 0 1-2.879-2.126C4.646 17.643 3 14.969 3 12V5c0-.167.042-.328.117-.469L.293 1.707A1 1 0 1 1 1.707.293l3.715 3.715.031.03 12.87 12.87zM5 6.414V12c0 2.28 1.354 4.481 3.659 6.497a20.49 20.49 0 0 0 3.34 2.365 19.29 19.29 0 0 0 4.227-3.222L5 6.414zm7-3.346L9.19 4.117a1 1 0 0 1-.7-1.874l3.16-1.18a1 1 0 0 1 .701 0l8 3A1 1 0 0 1 21 5v7.007a7.9 7.9 0 0 1-.355 2.29 1 1 0 0 1-1.91-.593A5.89 5.89 0 0 0 19 12V5.693l-7-2.625z" fill-rule="nonzero"/></svg>