<svg width="24" height="24" xmlns="http://www.w3.org/2000/svg" xmlns:xlink="http://www.w3.org/1999/xlink"><defs><path id="b" d="M0 0h1517v2431H0z"/><filter x="-4.3%" y="-2.4%" width="108.5%" height="105.3%" filterUnits="objectBoundingBox" id="a"><feMorphology radius=".5" operator="dilate" in="SourceAlpha" result="shadowSpreadOuter1"/><feOffset dy="6" in="shadowSpreadOuter1" result="shadowOffsetOuter1"/><feGaussianBlur stdDeviation="20" in="shadowOffsetOuter1" result="shadowBlurOuter1"/><feColorMatrix values="0 0 0 0 0 0 0 0 0 0 0 0 0 0 0 0 0 0 0.1 0" in="shadowBlurOuter1"/></filter><path id="d" d="M-281-520h760V60h-760z"/><filter x="-8.5%" y="-10.1%" width="117%" height="122.2%" filterUnits="objectBoundingBox" id="c"><feMorphology radius=".5" operator="dilate" in="SourceAlpha" result="shadowSpreadOuter1"/><feOffset dy="6" in="shadowSpreadOuter1" result="shadowOffsetOuter1"/><feGaussianBlur stdDeviation="20" in="shadowOffsetOuter1" result="shadowBlurOuter1"/><feColorMatrix values="0 0 0 0 0 0 0 0 0 0 0 0 0 0 0 0 0 0 0.1 0" in="shadowBlurOuter1"/></filter></defs><g fill="none" fill-rule="evenodd"><g transform="translate(-647 -775)"><use fill="#000" filter="url(#a)" xlink:href="#b"/><use fill="#FFF" xlink:href="#b"/></g><path fill="#4AAAF2" d="M870-775v2431H-647z"/><use fill="#000" filter="url(#c)" xlink:href="#d"/><use fill="#FFF" xlink:href="#d"/><g fill-rule="nonzero" fill="#000"><path d="M11.103 1.557a1 1 0 0 1 1.794 0l2.857 5.783 6.39.933a.999.999 0 0 1 .554 1.704l-4.623 4.498 1.09 6.355a1 1 0 0 1-1.45 1.053L12 18.881l-5.715 3.002a1 1 0 0 1-1.45-1.053l1.09-6.355-4.623-4.498a.999.999 0 0 1 .553-1.704l6.39-.933 2.858-5.783z"/></g></g></svg>