<svg width="24" height="24" viewBox="0 0 24 24" xmlns="http://www.w3.org/2000/svg"><path d="M23.51 6.177l.015.065A29.97 29.97 0 0 1 24 11.746a29.99 29.99 0 0 1-.49 5.497 3.786 3.786 0 0 1-2.652 2.723c-.76.203-2.242.328-4.327.407a124.103 124.103 0 0 1-5.948.076c-1.061-.013-2.122-.038-3.115-.076-2.084-.08-3.567-.204-4.332-.408-1.276-.35-2.276-1.34-2.66-2.707A29.964 29.964 0 0 1 0 11.755C-.01 9.92.15 8.088.49 6.217a3.786 3.786 0 0 1 2.651-2.723c.76-.203 2.243-.328 4.327-.407a124.103 124.103 0 0 1 5.947-.077c1.06.012 2.121.034 3.113.069 2.078.072 3.557.186 4.344.379a3.78 3.78 0 0 1 2.638 2.72zm-1.947.457a1.767 1.767 0 0 0-1.2-1.243c-.564-.137-1.98-.246-3.904-.313a133.873 133.873 0 0 0-5.85-.067c-1.045.013-2.09.037-3.063.074-1.917.073-3.33.192-3.873.337-.614.174-1.088.662-1.228 1.215A28.036 28.036 0 0 0 2 11.757c-.011 1.725.137 3.447.421 5.05.17.598.642 1.064 1.237 1.227.557.149 1.97.268 3.887.34a122.166 122.166 0 0 0 5.846.075c1.045-.013 2.09-.037 3.063-.074 1.917-.073 3.33-.192 3.873-.337.614-.174 1.088-.662 1.228-1.215.302-1.673.45-3.37.445-5.08a28 28 0 0 0-.438-5.11zm-11.318 9.255a1 1 0 0 1-1.494-.869V8.48a1 1 0 0 1 1.494-.87l5.75 3.27a1 1 0 0 1 0 1.74l-5.75 3.27zm3.233-4.139L10.75 10.2v3.1l2.727-1.55z" fill-rule="nonzero"/></svg>