<svg xmlns="http://www.w3.org/2000/svg" viewBox="0 0 32 32"><path d="M27.197 3.735h-9.596c-.641 0-1.21.289-1.6.738a2.119 2.119 0 00-1.601-.738H4.804a2.132 2.132 0 00-2.132 2.132v18.134c0 1.178.955 2.133 2.132 2.133H14.4l.031-.003a1.064 1.064 0 011.038 1.038v1.098h1.066v-.591h.01v-.481c0-.576.46-1.045 1.033-1.063l.023.003h9.596a2.133 2.133 0 002.133-2.133V5.868a2.132 2.132 0 00-2.133-2.132zM3.737 24V5.866c0-.588.479-1.066 1.066-1.066h9.596c.588 0 1.066.479 1.066 1.066V24c0 .588-.478 1.066-1.066 1.066H4.803A1.068 1.068 0 013.737 24zm24.526 0c0 .588-.478 1.066-1.066 1.066h-9.596A1.068 1.068 0 0116.535 24V5.866c0-.588.479-1.066 1.066-1.066h9.596c.588 0 1.066.479 1.066 1.066V24z"/></svg>