<svg xmlns="http://www.w3.org/2000/svg" width="32" height="32" viewBox="0 0 32 32"><path d="M31.194 15.201h-.319a6.66 6.66 0 00-6.611-5.864 6.662 6.662 0 00-6.491 5.174l-1.526-.797a.536.536 0 00-.493 0l-1.526.797a6.662 6.662 0 00-6.491-5.174 6.662 6.662 0 00-6.612 5.864H.806a.8.8 0 100 1.599h.319a6.661 6.661 0 0013.276-.8c0-.124-.012-.245-.019-.368L16 14.787l1.618.845c-.007.122-.019.244-.019.368a6.661 6.661 0 0013.275.8h.319a.8.8 0 100-1.6zM7.737 21.598c-3.087 0-5.598-2.511-5.598-5.598s2.511-5.598 5.598-5.598c3.087 0 5.598 2.511 5.598 5.598s-2.511 5.598-5.598 5.598zm16.526 0c-3.087 0-5.598-2.511-5.598-5.598s2.511-5.597 5.598-5.597c3.087 0 5.598 2.511 5.598 5.597s-2.511 5.598-5.598 5.598z"/></svg>