<svg xmlns="http://www.w3.org/2000/svg" width="32" height="32"><path d="M6.937 21.865a3.2 3.2 0 1 0 0 6.398 3.2 3.2 0 0 0 0-6.398zm0 5.33a2.133 2.133 0 1 1 2.134-2.133 2.135 2.135 0 0 1-2.133 2.133zM6.937 3.738a3.2 3.2 0 1 0 0 6.398 3.2 3.2 0 0 0 0-6.398zm0 5.331a2.133 2.133 0 1 1 2.134-2.133 2.135 2.135 0 0 1-2.133 2.133zM6.937 12.779a3.2 3.2 0 1 0 0 6.398 3.2 3.2 0 0 0 0-6.398zm0 5.331c-1.176 0-2.132-.957-2.132-2.133a2.134 2.134 0 0 1 4.266 0 2.135 2.135 0 0 1-2.133 2.133zM16 21.865a3.198 3.198 0 1 0-.001 6.397A3.198 3.198 0 0 0 16 21.865zm0 5.33a2.133 2.133 0 1 1 2.133-2.133A2.135 2.135 0 0 1 16 27.195zM16 3.738a3.198 3.198 0 1 0-.001 6.397A3.198 3.198 0 0 0 16 3.738zm0 5.331a2.133 2.133 0 1 1 2.133-2.133A2.135 2.135 0 0 1 16 9.069zM16 12.779a3.198 3.198 0 1 0-.001 6.397A3.198 3.198 0 0 0 16 12.779zm0 5.331c-1.176 0-2.133-.957-2.133-2.133a2.134 2.134 0 0 1 4.266 0A2.135 2.135 0 0 1 16 18.11zM25.063 21.865a3.198 3.198 0 1 0-.001 6.397 3.198 3.198 0 0 0 .001-6.397zm0 5.33a2.133 2.133 0 1 1 2.133-2.133 2.135 2.135 0 0 1-2.133 2.133zM25.063 10.135a3.2 3.2 0 1 0 0-6.399 3.2 3.2 0 0 0 0 6.399zm0-5.33c1.176 0 2.133.956 2.133 2.132S26.24 9.07 25.063 9.07a2.133 2.133 0 0 1 0-4.265zM25.063 12.779a3.198 3.198 0 1 0-.001 6.397 3.198 3.198 0 0 0 .001-6.397zm0 5.331c-1.176 0-2.133-.957-2.133-2.133a2.134 2.134 0 0 1 4.266 0 2.135 2.135 0 0 1-2.133 2.133z"/></svg>