<svg xmlns="http://www.w3.org/2000/svg" width="32" height="32"><path d="M29.229 13.342L17.634 1.747c-.436-.436-1.016-.677-1.633-.677s-1.197.24-1.633.677L11.84 4.275H8.005v3.834L2.673 13.44v17.491h26.656V13.442l-.099-.099zm-1.104.405l-4.129 4.129V9.619l4.129 4.129zM15.121 2.5c.47-.47 1.289-.47 1.759 0l1.774 1.774h-5.307L15.121 2.5zm4.598 2.84l3.211 3.212v10.39l-2.469 2.469-2.829-2.829c-.436-.436-1.016-.677-1.633-.677s-1.197.241-1.633.677l-2.871 2.87-2.426-2.426V5.341h10.649zM4.38 13.24l3.624-3.624v8.343l-4.172-4.172.548-.548zm-.642 2.818v-.856l7.003 7.003-.079.08-.001-.001-6.923 6.923V16.058zm.851 13.806l.573-.573h.002l9.957-9.956c.47-.47 1.289-.47 1.759 0l10.531 10.529H4.589zM28.262 15.36v13.848l-7.046-7.043 7.046-7.046v.242z"/><path d="M12.268 8.539h7.464v1.066h-7.464V8.539zM12.268 14.937h7.464v1.066h-7.464v-1.066zM12.268 11.738h5.331v1.066h-5.331v-1.066z"/></svg>