<svg xmlns="http://www.w3.org/2000/svg" width="32" height="32" viewBox="0 0 32 32"><path d="M28.114 9.098c-.011-.004-.019-.012-.031-.015L5.46 3.752a.534.534 0 0 0-.244 1.038l18.159 4.279H4.168c-.825 0-1.495.669-1.495 1.495v16.204c0 .825.67 1.494 1.495 1.494h23.667c.826 0 1.495-.669 1.495-1.494V10.565c0-.729-.523-1.335-1.214-1.466zm.148 17.67a.428.428 0 0 1-.428.428H4.167a.43.43 0 0 1-.429-.428V10.564c0-.236.192-.428.429-.428h23.667c.236 0 .428.192.428.428v16.204z"/><path d="M12.264 17.599a.801.801 0 0 0-.801.8.8.8 0 1 0 .801-.8zM6.404 18.398a.8.8 0 1 0-1.6 0 .8.8 0 0 0 1.6 0zM18.933 17.599a.801.801 0 0 0 0 1.6.8.8 0 0 0 0-1.6zM9.335 19.154a.8.8 0 1 0 0 1.599.8.8 0 0 0 0-1.599zM16 19.998a.8.8 0 1 0-1.6.001.8.8 0 0 0 1.6-.001zM9.335 16a.8.8 0 1 0 .002 1.6.8.8 0 0 0-.002-1.6zM15.2 17.599a.8.8 0 1 0 0-1.6.8.8 0 0 0 0 1.6zM6.67 20.813a.8.8 0 1 0 0 1.6.8.8 0 0 0 0-1.6zM17.866 20.813a.8.8 0 1 0 0 1.6.8.8 0 0 0 0-1.6zM6.67 14.4a.8.8 0 1 0 0 0zM17.866 16a.8.8 0 1 0 0-1.599.8.8 0 0 0 0 1.599zM8.762 22.93c-.44 0-.8.358-.8.799s.36.8.8.8a.8.8 0 1 0 0-1.599zM15.713 22.93a.8.8 0 1 0 0 1.6.8.8 0 0 0 0-1.6zM8.803 13.867a.799.799 0 1 0 .002-1.598.799.799 0 0 0-.002 1.598zM15.713 12.268a.8.8 0 1 0 0 1.6.8.8 0 0 0 0-1.6zM12.264 20.813a.8.8 0 1 0 0 1.6.8.8 0 0 0 0-1.6zM12.264 23.996a.801.801 0 0 0 0 1.6.8.8 0 0 0 0-1.6zM12.264 14.4a.8.8 0 1 0 0 0zM12.264 11.202a.8.8 0 1 0 0 1.6.8.8 0 0 0 0-1.6zM24.531 12.268a1.6 1.6 0 1 0 0 3.2 1.6 1.6 0 0 0 0-3.2zm0 2.131a.534.534 0 1 1 0-1.067.534.534 0 0 1 0 1.067zM24.531 16.533a1.6 1.6 0 1 0 0 3.2 1.6 1.6 0 0 0 0-3.2zm0 2.132a.534.534 0 1 1 0-1.067.534.534 0 0 1 0 1.067z"/></svg>