<svg xmlns="http://www.w3.org/2000/svg" width="32" height="32" viewBox="0 0 32 32"><path d="M-.021 12.316v7.464h3.199v6.398h1.066V19.78h8.202l7.788 6.302V5.823l-7.837 6.493H-.021zm1.067 6.397v-5.331h4.265v5.331H1.046zm12.031-5.576l6.09-5.046v15.756l-6.344-5.133H6.376v-5.331h6.404l.296-.245zM27.613 6.793l-.767.767c2.495 1.953 4.108 4.985 4.108 8.392 0 3.498-1.701 6.599-4.311 8.544l.772.772a11.707 11.707 0 0 0 4.606-9.316c0-3.706-1.722-7.01-4.407-9.159z"/><path d="M24.187 10.22l-.775.775a5.86 5.86 0 0 1 2.745 4.957 5.863 5.863 0 0 1-2.966 5.091l.777.777a6.921 6.921 0 0 0 .22-11.6z"/></svg>