<svg xmlns="http://www.w3.org/2000/svg" width="32" height="32" viewBox="0 0 32 32"><path d="M16 8.01a7.997 7.997 0 1 0 0 15.995A7.997 7.997 0 0 0 16 8.01zm0 14.928c-3.821 0-6.931-3.109-6.931-6.93 0-3.822 3.109-6.932 6.931-6.932s6.931 3.11 6.931 6.932A6.938 6.938 0 0 1 16 22.938zM15.471.006h1.066v6.405h-1.066V.006zM15.471 25.604h1.066v6.39h-1.066v-6.39zM.006 15.467h6.397v1.066H.006v-1.066zM25.596 15.467h6.398v1.066h-6.398v-1.066zM26.936 4.28l.754.754-4.458 4.458-.754-.754 4.458-4.458zM5.072 27.653l-.754-.754 4.458-4.458.754.754-4.458 4.458zM5.073 4.281l4.458 4.458-.754.754-4.458-4.458.754-.754zM26.937 27.654l-4.458-4.458.754-.754 4.458 4.458-.754.754z"/></svg>