<svg xmlns="http://www.w3.org/2000/svg" width="24" height="24" viewBox="0 0 24 24"><path d="M13.594 12.777l-2.403.804-.777-2.32 2.403-.805z"/><path d="M13.594 12.777l-2.403.804-.777-2.32 2.403-.805z"/><path d="M20.254 9.528c-1.857-6.191-4.535-7.63-10.726-5.772C3.338 5.612 1.897 8.29 3.754 14.48c1.857 6.191 4.535 7.63 10.727 5.773 6.189-1.857 7.63-4.534 5.773-10.725zm-3.125 4.017l-1.165.388.403 1.209a.936.936 0 0 1-.591 1.181.81.81 0 0 1-.317.044.966.966 0 0 1-.864-.634l-.401-1.209-2.405.806.404 1.209a.935.935 0 0 1-.591 1.18.795.795 0 0 1-.317.043.962.962 0 0 1-.864-.634l-.402-1.209-1.166.389a.795.795 0 0 1-.317.043.96.96 0 0 1-.863-.633.935.935 0 0 1 .591-1.181l1.165-.389-.777-2.318-1.169.39a.786.786 0 0 1-.316.043.961.961 0 0 1-.864-.634.934.934 0 0 1 .59-1.18l1.168-.39-.405-1.207a.935.935 0 0 1 .59-1.181.935.935 0 0 1 1.181.59L9.83 9.47l2.405-.806-.403-1.209a.934.934 0 0 1 .589-1.181.935.935 0 0 1 1.181.59l.403 1.209 1.167-.389a.933.933 0 0 1 .591 1.771l-1.168.389.779 2.318 1.165-.39a.937.937 0 0 1 1.182.59.938.938 0 0 1-.592 1.183z"/></svg>