<svg xmlns="http://www.w3.org/2000/svg" width="24" height="24" viewBox="0 0 24 24"><path d="M18.75 21H5.25A2.25 2.25 0 0 1 3 18.75V5.25A2.25 2.25 0 0 1 5.25 3h13.5A2.25 2.25 0 0 1 21 5.25v13.5A2.25 2.25 0 0 1 18.75 21zm-8.838-4.428c4.243 0 6.566-3.52 6.566-6.565 0-.1 0-.198-.006-.297.45-.324.842-.733 1.152-1.197a4.674 4.674 0 0 1-1.327.365 2.324 2.324 0 0 0 1.017-1.279c-.445.266-.94.455-1.467.559a2.304 2.304 0 0 0-1.683-.729 2.312 2.312 0 0 0-2.25 2.835 6.551 6.551 0 0 1-4.757-2.412 2.316 2.316 0 0 0 .716 3.081 2.346 2.346 0 0 1-1.044-.288v.032c0 1.116.797 2.052 1.851 2.263a2.253 2.253 0 0 1-.608.081c-.148 0-.292-.013-.432-.041a2.307 2.307 0 0 0 2.155 1.602 4.629 4.629 0 0 1-3.416.959 6.565 6.565 0 0 0 3.533 1.031"/></svg>