<svg width="64" height="64" viewBox="0 0 1024 1024" xmlns="http://www.w3.org/2000/svg"><path d="M647.858 884.848c-26.018 0-47.11 21.092-47.11 47.11v66.339c-.012.393-.018.856-.018 1.32 0 26.018 21.092 47.11 47.11 47.11s47.11-21.092 47.11-47.11c0-.464-.007-.927-.02-1.387l.002.068v-66.339c0-26.005-21.071-47.089-47.071-47.11h-.002zm329.106-262.767h-66.339c-25.444.735-45.79 21.538-45.79 47.092s20.346 46.356 45.723 47.09l.068.002h66.339c25.444-.735 45.79-21.538 45.79-47.092s-20.346-46.356-45.723-47.09l-.068-.002zm-110.01 199.608a46.911 46.911 0 00-31.83-12.38c-26.018 0-47.11 21.092-47.11 47.11 0 12.288 4.704 23.477 12.411 31.864l-.031-.034 46.888 46.888c8.642 9.406 21 15.28 34.731 15.28 26.018 0 47.11-21.092 47.11-47.11 0-13.73-5.874-26.089-15.246-34.7l-.034-.031zM376.179 181.855c26.018 0 47.11-21.092 47.11-47.11V68.443c-.735-25.444-21.538-45.79-47.092-45.79s-46.356 20.346-47.09 45.723l-.002.068v66.302c0 26.005 21.071 47.089 47.071 47.11h.002zm-262.767 262.73c.393.012.856.018 1.32.018 26.018 0 47.11-21.092 47.11-47.11s-21.092-47.11-47.11-47.11c-.464 0-.927.007-1.387.02l.068-.002H47.111c-25.444.735-45.79 21.538-45.79 47.092s20.346 46.356 45.723 47.09l.068.002zm43.671-199.571c8.642 9.406 21 15.28 34.731 15.28 26.018 0 47.11-21.092 47.11-47.11 0-13.73-5.874-26.089-15.246-34.7l-.034-.031-46.888-46.888c-8.642-9.406-21-15.28-34.731-15.28-26.018 0-47.11 21.092-47.11 47.11 0 13.73 5.874 26.089 15.246 34.7l.034.031zm454.832 521.43a46.911 46.911 0 0012.38-31.83c0-26.018-21.092-47.11-47.11-47.11-12.288 0-23.477 4.704-31.864 12.411l.034-.031-133.121 133.121c-25.141 23.393-58.963 37.751-96.14 37.751-78.034 0-141.294-63.259-141.294-141.294 0-37.176 14.358-70.999 37.831-96.226l-.08.086 133.121-133.121c9.406-8.642 15.28-21 15.28-34.731 0-26.018-21.092-47.11-47.11-47.11-13.73 0-26.089 5.874-34.7 15.246l-.031.034L145.99 566.761c-42.616 42.614-68.975 101.485-68.975 166.513 0 130.015 105.37 235.42 235.371 235.477h.006l.544.001c64.82 0 123.482-26.364 165.848-68.955l.01-.01zm266.391-599.528c-42.376-42.601-101.038-68.965-165.858-68.965l-.573.001h.03l-.544-.001c-64.82 0-123.482 26.364-165.848 68.955L412.382 300.037c-9.406 8.642-15.28 21-15.28 34.731 0 26.018 21.092 47.11 47.11 47.11 13.73 0 26.089-5.874 34.7-15.246l.031-.034 133.121-133.121c25.877-27.812 62.685-45.154 103.543-45.154 78.034 0 141.294 63.259 141.294 141.294 0 40.858-17.342 77.666-45.068 103.463l-.086.08-133.121 133.121c-9.406 8.642-15.28 21-15.28 34.731 0 26.018 21.092 47.11 47.11 47.11 13.73 0 26.089-5.874 34.7-15.246l.031-.034 133.121-133.121c42.488-42.631 68.757-101.449 68.757-166.402s-26.269-123.771-68.764-166.408l.006.006z"/></svg>