<svg width="64" height="64" viewBox="0 0 1126 1126" xmlns="http://www.w3.org/2000/svg"><path d="M1075.176 1044.901H686.794l424.603-424.603c9.248-9.265 14.967-22.055 14.967-36.181s-5.719-26.916-14.967-36.182L701.79 138.328c-9.265-9.248-22.055-14.967-36.181-14.967s-26.916 5.719-36.182 14.967L14.996 752.679C5.748 761.944.029 774.734.029 788.86s5.719 26.916 14.967 36.182l307.215 307.336c9.259 9.262 22.05 14.992 36.18 14.995h716.785c.427.013.93.02 1.435.02 28.286 0 51.216-22.93 51.216-51.216s-22.93-51.216-51.216-51.216c-.505 0-1.007.007-1.508.022l.074-.002zm-409.568-797.99l337.206 337.206-296.241 296.241-337.206-337.206z"/></svg>