<svg width="64" height="64" viewBox="0 0 1139 1139" xmlns="http://www.w3.org/2000/svg"><path d="M1128.268 845.338c.439-.548.841-1.133 1.279-1.681s.987-1.279 1.425-1.974.841-1.352 1.243-2.047.767-1.206 1.096-1.864.694-1.425 1.023-2.12.658-1.316.914-2.01.512-1.389.767-2.12.548-1.462.767-2.193.365-1.425.548-2.12.402-1.535.548-2.302.256-1.608.365-2.449.219-1.352.292-2.047c0-1.498.219-3.033.219-4.532q0-2.266-.219-4.532c0-.694-.183-1.389-.292-2.047s-.219-1.645-.365-2.449-.365-1.535-.548-2.302-.329-1.389-.548-2.083-.512-1.462-.767-2.229-.475-1.389-.767-2.083-.621-1.352-.914-2.01-.658-1.425-1.023-2.12-.731-1.243-1.096-1.864-.804-1.389-1.243-2.047-.95-1.316-1.462-1.974-.804-1.133-1.279-1.681q-1.389-1.681-2.924-3.253l-116.62-116.584c-8.541-9.296-20.755-15.102-34.325-15.102-25.715 0-46.56 20.846-46.56 46.56 0 13.57 5.805 25.784 15.068 34.295l.034.03 36.912 36.912H837.832V525.44v-1.243-.019a46.114 46.114 0 00-10.624-29.515l.062.077-.183-.256a41.329 41.329 0 00-2.704-2.96l-.402-.402c-.402-.402-.804-.841-1.206-1.243L482.891 149.995c-.95-.95-1.937-1.827-2.96-2.704l-.987-.767a52.818 52.818 0 00-2.266-1.718l-1.169-.804c-.804-.548-1.645-1.023-2.485-1.498l-1.023-.585q-1.681-.914-3.435-1.645l-1.462-.585-2.339-.877-1.645-.512-2.704-.694-1.206-.292a48.793 48.793 0 00-3.947-.585H46.56c-25.573 0-46.331 20.617-46.559 46.137v930.901c0 25.715 20.846 46.56 46.56 46.56h744.711c25.715 0 46.56-20.846 46.56-46.56V862.436h142.057l-36.912 36.912c-9.296 8.541-15.102 20.755-15.102 34.325 0 25.715 20.846 46.56 46.56 46.56 13.57 0 25.784-5.805 34.295-15.068l.03-.034 116.401-116.145q1.681-1.864 3.106-3.655zm-631.782-550.1L678.89 477.642H496.486zm248.225 771.974H93.085V229.417h310.317v294.785c0 25.715 20.846 46.56 46.56 46.56h294.785v198.594H543.01a43.707 43.707 0 00-1.304-.018c-25.715 0-46.56 20.846-46.56 46.56s20.846 46.56 46.56 46.56c.459 0 .916-.007 1.371-.02l-.067.002h201.701z"/></svg>