<svg width="64" height="64" viewBox="0 0 838 838" xmlns="http://www.w3.org/2000/svg"><path d="M837.868 216.989v-.019a46.114 46.114 0 00-10.624-29.515l.062.077-.183-.256a41.329 41.329 0 00-2.704-2.96l-.402-.402c-.402-.402-.804-.841-1.206-1.243l-333.78-333.707a34.083 34.083 0 00-2.997-2.668l-.95-.841a95.328 95.328 0 00-2.302-1.718l-1.169-.767-2.485-1.535-1.023-.585a43.444 43.444 0 00-3.472-1.681l-1.389-.548-2.449-.877-1.572-.512-2.851-.731-1.096-.256a48.314 48.314 0 00-4.02-.621H46.561h-.001c-25.612 0-46.394 20.679-46.559 46.252v930.895c0 25.715 20.846 46.56 46.56 46.56h744.711c25.715 0 46.56-20.846 46.56-46.56V218.23c0-.402.037-.804.037-1.243zM502.662-5.945L678.89 170.466H502.662zM93.084 766.249V-71.582h316.603v288.718c0 25.715 20.846 46.56 46.56 46.56h288.718v502.553z"/></svg>