<svg width="64" height="64" viewBox="0 0 838 838" xmlns="http://www.w3.org/2000/svg"><path d="M837.868 216.989v-.01a46.05 46.05 0 00-8.106-26.168l.102.157a46.288 46.288 0 00-2.558-3.399l-.219-.256a51.361 51.361 0 00-2.668-2.96l-.439-.439c-.402-.402-.767-.841-1.206-1.243L489.03-151.036a34.083 34.083 0 00-2.997-2.668l-.95-.841-2.302-1.718-1.169-.804a55.832 55.832 0 00-2.485-1.498l-1.06-.621a59.423 59.423 0 00-3.435-1.645l-1.462-.585-2.302-.841-1.681-.512-2.595-.694-1.316-.292a45.677 45.677 0 00-3.91-.585H46.562h-.001c-25.599 0-46.373 20.659-46.559 46.214v930.897c0 25.715 20.846 46.56 46.56 46.56h744.711c25.715 0 46.56-20.846 46.56-46.56V218.194c0-.402.037-.767.037-1.206zM502.662-5.945L678.89 170.466H502.662zM93.084 766.249V-71.582h316.603v288.718c0 25.715 20.846 46.56 46.56 46.56h288.718v502.553zm480.954-186.205H263.721a43.707 43.707 0 00-1.304-.018c-25.715 0-46.56 20.846-46.56 46.56s20.846 46.56 46.56 46.56c.459 0 .916-.007 1.371-.02l-.067.002h310.317c.389.012.846.018 1.304.018 25.715 0 46.56-20.846 46.56-46.56s-20.846-46.56-46.56-46.56c-.459 0-.916.007-1.371.02l.067-.002zm0-186.169H263.721a43.707 43.707 0 00-1.304-.018c-25.715 0-46.56 20.846-46.56 46.56s20.846 46.56 46.56 46.56c.459 0 .916-.007 1.371-.02l-.067.002h310.317c.389.012.846.018 1.304.018 25.715 0 46.56-20.846 46.56-46.56s-20.846-46.56-46.56-46.56c-.459 0-.916.007-1.371.02l.067-.002z"/></svg>