<svg width="64" height="64" viewBox="0 0 1126 1126" xmlns="http://www.w3.org/2000/svg"><path d="M2.613 497.926l204.824 614.352c6.989 20.512 26.082 35.005 48.562 35.015h819.177a52.262 52.262 0 006-.387l-.251.025 1.528-.241c1.407-.201 2.814-.442 4.02-.764l1.608-.402a90.15 90.15 0 004.02-1.206l1.528-.563a80.226 80.226 0 004.02-1.729l1.246-.603a49.487 49.487 0 004.884-2.888l-.18.114a51.442 51.442 0 004.536-3.438l-.074.061 1.206-1.085a89.829 89.829 0 002.854-2.734l1.327-1.447c.884-.965 1.688-2.01 2.492-3.055l.724-.884.322-.523q1.447-2.05 2.693-4.261l.281-.482a47.201 47.201 0 002.367-4.888l.125-.338.281-.804q.884-2.211 1.528-4.503c0-.523.281-1.045.402-1.568.322-1.286.603-2.573.844-4.02 0-.643.201-1.286.281-1.93s.241-2.412.322-3.618 0-1.447 0-2.171V174.549v-.001c0-28.187-22.77-51.056-50.919-51.215H665.608c-28.286 0-51.216 22.93-51.216 51.216v51.216H256c-28.286 0-51.216 22.93-51.216 51.216v153.608H51.17c-28.264 0-51.176 22.912-51.176 51.176 0 5.781.959 11.338 2.725 16.521l-.107-.36zM1023.96 225.725v554.774L918.915 465.404c-6.978-20.517-26.075-35.015-48.557-35.015H307.176V328.118h358.392c28.286 0 51.216-22.93 51.216-51.216v-51.176zM122.251 532.941h711.236l170.653 512H292.904z"/></svg>