<svg width="64" height="64" viewBox="0 0 1024 1024" xmlns="http://www.w3.org/2000/svg"><path d="M943.195 21.333H80.869C36.206 21.333 0 57.539 0 102.202v210.107c-.02.675-.032 1.469-.032 2.265 0 44.663 36.206 80.869 80.869 80.869s80.869-36.206 80.869-80.869c0-.797-.012-1.591-.034-2.382l.003.116V183.007h269.457v700.652H306.338c-43.677 1.263-78.603 36.971-78.603 80.837s34.926 79.575 78.487 80.834l.116.003h411.39c43.677-1.263 78.603-36.971 78.603-80.837s-34.926-79.575-78.487-80.834l-.116-.003H592.87V183.007h269.457v129.301c1.263 43.677 36.971 78.603 80.837 78.603s79.575-34.926 80.834-78.487l.003-.116V102.201c0-44.64-36.17-80.833-80.802-80.869h-.004z"/></svg>