<svg width="64" height="64" viewBox="0 0 1024 1024" xmlns="http://www.w3.org/2000/svg"><path d="M977.44 654.357H837.832V410.445v-1.243-.019a46.114 46.114 0 00-10.624-29.515l.062.077-.146-.256a41.329 41.329 0 00-2.704-2.96l-.402-.402c-.402-.402-.804-.841-1.206-1.243L482.928 35a39.867 39.867 0 00-3.07-2.704l-1.096-.841a52.818 52.818 0 00-2.266-1.718l-1.096-.804a55.832 55.832 0 00-2.485-1.498l-1.023-.585q-1.681-.914-3.435-1.645l-1.462-.621-2.339-.841-1.645-.512-2.704-.694-1.243-.292a48.793 48.793 0 00-3.947-.585H46.562h-.001C20.962 21.66.188 42.319.002 67.874v930.897c0 25.715 20.846 46.56 46.56 46.56h744.711c25.715 0 46.56-20.846 46.56-46.56V747.44h139.645c.389.012.846.018 1.304.018 25.715 0 46.56-20.846 46.56-46.56s-20.846-46.56-46.56-46.56c-.459 0-.916.007-1.371.02l.067-.002zM496.486 180.238L678.89 362.679H496.486zm248.225 771.974H93.085V114.417h310.317v294.785c0 25.715 20.846 46.56 46.56 46.56h294.785v198.594H562.306l36.912-36.912a46.362 46.362 0 0012.235-31.459c0-25.715-20.846-46.56-46.56-46.56-12.144 0-23.203 4.65-31.492 12.266l.034-.03-116.84 116.913c-.877.914-1.754 1.827-2.558 2.814l-.841 1.096c-.658.841-1.316 1.681-1.9 2.558l-.585.95c-.621.987-1.243 1.937-1.791 2.96l-.329.694a41.757 41.757 0 00-1.608 3.435v.475a50.746 50.746 0 00-1.352 3.655v.512c-.365 1.279-.731 2.558-.987 3.874v1.169c-.183 1.096-.402 2.229-.512 3.362-.15 1.392-.235 3.007-.235 4.641s.085 3.249.252 4.84l-.017-.199c0 1.133.292 2.229.512 3.362v1.169c.256 1.352.621 2.631.987 3.947v.475a43.178 43.178 0 001.389 3.837v.439a60.473 60.473 0 001.645 3.472l.329.658c.548 1.023 1.169 2.01 1.791 2.997l.548.914a45.069 45.069 0 001.974 2.668l.767 1.023c.877 1.096 1.827 2.12 2.814 3.143l.219.256 116.364 116.364c8.541 9.296 20.755 15.102 34.325 15.102 25.715 0 46.56-20.846 46.56-46.56 0-13.57-5.805-25.784-15.068-34.295l-.034-.03-36.912-36.912h182.404z"/></svg>