<svg width="64" height="64" viewBox="0 0 1252 1252" xmlns="http://www.w3.org/2000/svg"><path d="M1194.629 1159.52H56.906c-30.735.888-55.312 26.016-55.312 56.884s24.577 55.995 55.23 56.882l.082.002h1137.723c30.735-.888 55.312-26.016 55.312-56.884s-24.577-55.995-55.23-56.882l-.082-.002zm0-227.535H625.79c-30.735.888-55.312 26.016-55.312 56.884s24.577 55.995 55.23 56.882l.082.002h568.884c.475.014 1.034.022 1.594.022 31.428 0 56.906-25.478 56.906-56.906s-25.478-56.906-56.906-56.906c-.561 0-1.119.008-1.676.024l.082-.002zm0-227.536H625.79c-30.735.888-55.312 26.016-55.312 56.884s24.577 55.995 55.23 56.882l.082.002h568.884c.475.014 1.034.022 1.594.022 31.428 0 56.906-25.478 56.906-56.906s-25.478-56.906-56.906-56.906c-.561 0-1.119.008-1.676.024l.082-.002zM56.906 363.101h1137.723c.475.014 1.034.022 1.594.022 31.428 0 56.906-25.478 56.906-56.906s-25.478-56.906-56.906-56.906c-.561 0-1.119.008-1.676.024l.082-.002H56.906c-30.735.888-55.312 26.016-55.312 56.884s24.577 55.995 55.23 56.882l.082.002zm1137.723 113.768H625.79a55.749 55.749 0 00-1.594-.022c-31.428 0-56.906 25.478-56.906 56.906s25.478 56.906 56.906 56.906c.561 0 1.119-.008 1.676-.024l-.082.002h568.884c.475.014 1.034.022 1.594.022 31.428 0 56.906-25.478 56.906-56.906s-25.478-56.906-56.906-56.906c-.561 0-1.119.008-1.676.024l.082-.002zM35.109 1041.42c6.435 2.743 13.922 4.337 21.78 4.337 15.707 0 29.927-6.369 40.218-16.665l227.536-227.536c10.275-10.294 16.629-24.505 16.629-40.201s-6.354-29.906-16.63-40.202L97.107 493.529C86.813 483.254 72.602 476.9 56.906 476.9 25.504 476.9.043 502.334 0 533.726v455.157c0 23.555 14.323 43.766 34.735 52.396l.373.14z"/></svg>