<svg width="64" height="64" viewBox="0 0 652 652" xmlns="http://www.w3.org/2000/svg"><path d="M605.103-350.667H232.729a43.707 43.707 0 00-1.304-.018c-25.715 0-46.56 20.846-46.56 46.56s20.846 46.56 46.56 46.56c.459 0 .916-.007 1.371-.02l-.067.002h129.412L194.575 580.248H46.561a43.707 43.707 0 00-1.304-.018c-25.715 0-46.56 20.846-46.56 46.56s20.846 46.56 46.56 46.56c.459 0 .916-.007 1.371-.02l-.067.002h372.337c25.147-.727 45.256-21.286 45.256-46.542s-20.109-45.815-45.189-46.541l-.067-.002H289.486l167.566-837.831h148.014c25.147-.727 45.256-21.286 45.256-46.542s-20.109-45.815-45.189-46.541l-.067-.002z"/></svg>