<svg width="64" height="64" viewBox="0 0 1252 1252" xmlns="http://www.w3.org/2000/svg"><path d="M56.906 363.101h1137.723c.475.014 1.034.022 1.594.022 31.428 0 56.906-25.478 56.906-56.906s-25.478-56.906-56.906-56.906c-.561 0-1.119.008-1.676.024l.082-.002H56.906c-30.735.888-55.312 26.016-55.312 56.884s24.577 55.995 55.23 56.882l.082.002zm1137.723 113.768H56.906c-30.735.888-55.312 26.016-55.312 56.884s24.577 55.995 55.23 56.882l.082.002h1137.723c.475.014 1.034.022 1.594.022 31.428 0 56.906-25.478 56.906-56.906s-25.478-56.906-56.906-56.906c-.561 0-1.119.008-1.676.024l.082-.002zm0 227.58H56.906c-30.735.888-55.312 26.016-55.312 56.884s24.577 55.995 55.23 56.882l.082.002h1137.723c30.735-.888 55.312-26.016 55.312-56.884s-24.577-55.995-55.23-56.882l-.082-.002zm0 455.071H56.906c-30.735.888-55.312 26.016-55.312 56.884s24.577 55.995 55.23 56.882l.082.002h1137.723c30.735-.888 55.312-26.016 55.312-56.884s-24.577-55.995-55.23-56.882l-.082-.002zm0-227.535H56.906c-30.735.888-55.312 26.016-55.312 56.884s24.577 55.995 55.23 56.882l.082.002h1137.723c30.735-.888 55.312-26.016 55.312-56.884s-24.577-55.995-55.23-56.882l-.082-.002z"/></svg>