<svg width="64" height="64" viewBox="0 0 1024 1024" xmlns="http://www.w3.org/2000/svg"><path d="M551.331 729.031L394.703 885.659c-29.58 27.524-69.375 44.417-113.116 44.417-91.814 0-166.243-74.43-166.243-166.243 0-43.741 16.893-83.536 44.511-113.218l-.094.102 156.628-156.628a55.197 55.197 0 0014.566-37.451c0-30.613-24.816-55.429-55.429-55.429-14.458 0-27.622 5.535-37.491 14.602l.04-.036L81.447 572.403C34.188 622.002 5.11 689.295 5.11 763.38c0 153.015 124.043 277.058 277.058 277.058 74.149 0 141.496-29.129 191.22-76.567l-.109.104 156.628-156.628a55.197 55.197 0 0014.566-37.451c0-30.613-24.816-55.429-55.429-55.429-14.458 0-27.622 5.535-37.491 14.602l.04-.036zm472.974-430.814c-.067-152.964-124.084-276.94-277.058-276.94-76.51 0-145.777 31.013-195.915 81.154L394.704 259.059c-11.067 10.168-17.978 24.708-17.978 40.863 0 30.613 24.816 55.429 55.429 55.429 16.155 0 30.696-6.911 40.827-17.938l.036-.04 156.628-156.628c29.58-27.524 69.375-44.417 113.116-44.417 91.814 0 166.243 74.43 166.243 166.243 0 43.741-16.893 83.536-44.511 113.218l.094-.102L707.96 572.315c-11.067 10.168-17.978 24.708-17.978 40.863 0 30.613 24.816 55.429 55.429 55.429 16.155 0 30.696-6.911 40.827-17.938l.036-.04 156.628-156.628c50.278-49.884 81.403-119.009 81.403-195.404v-.402.021zM316.258 729.249c10.022 10.019 23.866 16.216 39.157 16.216s29.135-6.197 39.157-16.216l313.256-313.256a55.197 55.197 0 0014.566-37.451c0-30.613-24.816-55.429-55.429-55.429-14.458 0-27.622 5.535-37.491 14.602l.04-.036-313.256 313.256c-10.009 10.027-16.198 23.869-16.198 39.157s6.189 29.13 16.198 39.158l-.001-.001z"/></svg>