<svg width="64" height="64" viewBox="0 0 1252 1252" xmlns="http://www.w3.org/2000/svg"><path d="M284.442 363.101h910.187c30.735-.888 55.312-26.016 55.312-56.884s-24.577-55.995-55.23-56.882l-.082-.002H284.442c-30.735.888-55.312 26.016-55.312 56.884s24.577 55.995 55.23 56.882l.082.002zm910.187 113.768H284.442a55.749 55.749 0 00-1.594-.022c-31.428 0-56.906 25.478-56.906 56.906s25.478 56.906 56.906 56.906c.561 0 1.119-.008 1.676-.024l-.082.002h910.187c30.735-.888 55.312-26.016 55.312-56.884s-24.577-55.995-55.23-56.882l-.082-.002zm0 227.58H284.442c-30.735.888-55.312 26.016-55.312 56.884s24.577 55.995 55.23 56.882l.082.002h910.187c30.735-.888 55.312-26.016 55.312-56.884s-24.577-55.995-55.23-56.882l-.082-.002zm0 455.071H284.442c-30.735.888-55.312 26.016-55.312 56.884s24.577 55.995 55.23 56.882l.082.002h910.187c30.735-.888 55.312-26.016 55.312-56.884s-24.577-55.995-55.23-56.882l-.082-.002zm0-227.535H284.442c-30.735.888-55.312 26.016-55.312 56.884s24.577 55.995 55.23 56.882l.082.002h910.187c30.735-.888 55.312-26.016 55.312-56.884s-24.577-55.995-55.23-56.882l-.082-.002zM56.906 249.333h-.076c-31.428 0-56.906 25.478-56.906 56.906s25.478 56.906 56.906 56.906c15.733 0 29.975-6.385 40.276-16.705l.001-.001c10.275-10.294 16.629-24.505 16.629-40.201 0-31.402-25.434-56.863-56.826-56.906h-.004zm0 227.536h-.076c-31.428 0-56.906 25.478-56.906 56.906s25.478 56.906 56.906 56.906c15.733 0 29.975-6.385 40.276-16.705l.001-.001c10.275-10.294 16.629-24.505 16.629-40.201 0-31.402-25.434-56.863-56.826-56.906h-.004zm0 227.58h-.076c-31.428 0-56.906 25.478-56.906 56.906s25.478 56.906 56.906 56.906c15.733 0 29.975-6.385 40.276-16.705l.001-.001c10.275-10.294 16.629-24.505 16.629-40.201 0-31.402-25.434-56.863-56.826-56.906h-.004zm0 455.071h-.076c-31.428 0-56.906 25.478-56.906 56.906s25.478 56.906 56.906 56.906c15.733 0 29.975-6.385 40.276-16.705l.001-.001c10.275-10.294 16.629-24.505 16.629-40.201 0-31.402-25.434-56.863-56.826-56.906h-.004zm0-227.535h-.076c-31.428 0-56.906 25.478-56.906 56.906s25.478 56.906 56.906 56.906c15.733 0 29.975-6.385 40.276-16.705l.001-.001c10.275-10.294 16.629-24.505 16.629-40.201 0-31.402-25.434-56.863-56.826-56.906h-.004z"/></svg>