<svg width="64" height="64" viewBox="0 0 1252 1252" xmlns="http://www.w3.org/2000/svg"><path d="M1194.629 1159.52H56.906c-30.735.888-55.312 26.016-55.312 56.884s24.577 55.995 55.23 56.882l.082.002h1137.723c30.735-.888 55.312-26.016 55.312-56.884s-24.577-55.995-55.23-56.882l-.082-.002zm0-227.535H625.79a55.749 55.749 0 00-1.594-.022c-31.428 0-56.906 25.478-56.906 56.906s25.478 56.906 56.906 56.906c.561 0 1.119-.008 1.676-.024l-.082.002h568.884c30.735-.888 55.312-26.016 55.312-56.884s-24.577-55.995-55.23-56.882l-.082-.002zm0-227.536H625.79a55.749 55.749 0 00-1.594-.022c-31.428 0-56.906 25.478-56.906 56.906s25.478 56.906 56.906 56.906c.561 0 1.119-.008 1.676-.024l-.082.002h568.884c30.735-.888 55.312-26.016 55.312-56.884s-24.577-55.995-55.23-56.882l-.082-.002zM56.906 363.101h1137.723c.475.014 1.034.022 1.594.022 31.428 0 56.906-25.478 56.906-56.906s-25.478-56.906-56.906-56.906c-.561 0-1.119.008-1.676.024l.082-.002H56.906c-30.735.888-55.312 26.016-55.312 56.884s24.577 55.995 55.23 56.882l.082.002zm1137.723 113.768H625.79a55.749 55.749 0 00-1.594-.022c-31.428 0-56.906 25.478-56.906 56.906s25.478 56.906 56.906 56.906c.561 0 1.119-.008 1.676-.024l-.082.002h568.884c.475.014 1.034.022 1.594.022 31.428 0 56.906-25.478 56.906-56.906s-25.478-56.906-56.906-56.906c-.561 0-1.119.008-1.676.024l.082-.002zM244.241 493.53L16.705 721.11C6.43 731.404.076 745.615.076 761.311s6.354 29.906 16.63 40.202l227.535 227.535c10.294 10.275 24.505 16.629 40.201 16.629 31.402 0 56.863-25.434 56.906-56.826V533.776c-.043-31.396-25.505-56.83-56.906-56.83-15.695 0-29.907 6.354-40.202 16.63l.001-.001z"/></svg>