<svg width="64" height="64" viewBox="0 0 652 652" xmlns="http://www.w3.org/2000/svg"><path d="M418.897-350.667c-128.533 0-232.729 104.196-232.729 232.729v418.897c0 77.124 62.521 139.645 139.645 139.645s139.645-62.521 139.645-139.645V59.24c-.727-25.147-21.286-45.256-46.542-45.256s-45.815 20.109-46.541 45.189l-.002.067v241.719c.012.389.018.846.018 1.304 0 25.715-20.846 46.56-46.56 46.56s-46.56-20.846-46.56-46.56c0-.459.007-.916.02-1.371l-.002.067v-418.897c0-77.124 62.521-139.645 139.645-139.645s139.645 62.521 139.645 139.645v465.312c0 128.533-104.196 232.729-232.729 232.729S93.121 475.907 93.121 347.374v-465.312c.012-.389.018-.846.018-1.304 0-25.715-20.846-46.56-46.56-46.56S.019-144.956.019-119.242c0 .459.007.916.02 1.371l-.002-.067v465.312c0 179.942 145.872 325.813 325.813 325.813s325.813-145.872 325.813-325.813v-465.312c-.146-128.487-104.276-232.604-232.753-232.729h-.012z"/></svg>