<svg width="64" height="64" viewBox="0 0 838 838" xmlns="http://www.w3.org/2000/svg"><path d="M791.271-164.667H263.757C118.088-164.667 0-46.579 0 99.09s118.088 263.757 263.757 263.757h108.617v449.926c-.012.389-.018.846-.018 1.304 0 25.715 20.846 46.56 46.56 46.56s46.56-20.846 46.56-46.56c0-.459-.007-.916-.02-1.371l.002.067V-71.582h93.084v884.428c-.012.389-.018.846-.018 1.304 0 25.715 20.846 46.56 46.56 46.56s46.56-20.846 46.56-46.56c0-.459-.007-.916-.02-1.371l.002.067V-71.582h139.645c.389.012.846.018 1.304.018 25.715 0 46.56-20.846 46.56-46.56s-20.846-46.56-46.56-46.56c-.459 0-.916.007-1.371.02l.067-.002zm-527.514 434.43c-94.26 0-170.673-76.413-170.673-170.673S169.497-71.583 263.757-71.583h108.617v341.346z"/></svg>