<svg width="64" height="64" viewBox="0 0 900 900" xmlns="http://www.w3.org/2000/svg"><path d="M899.924 533.464a46.116 46.116 0 00-10.66-29.533l.061.076v-.219q-1.279-1.572-2.741-2.997l-.365-.402c-.402-.402-.804-.841-1.243-1.243L713.828 327.998V-25.079c0-25.715-20.846-46.56-46.56-46.56H431.615c-6.575-18.227-23.721-31.023-43.855-31.028h-62.13c-20.135.005-37.281 12.801-43.754 30.704l-.102.324H46.56C20.845-71.639 0-50.793 0-25.079V750.66c0 25.715 20.846 46.56 46.56 46.56h139.645v77.588c0 25.715 20.846 46.56 46.56 46.56h620.562c25.715 0 46.56-20.846 46.56-46.56V534.669c0-.439.037-.804.037-1.206zM558.542 304.499l182.404 182.404H558.542zM93.084 704.1V21.592h95.789c6.575 18.227 23.721 31.023 43.855 31.028h248.225c20.135-.005 37.281-12.801 43.754-30.704l.102-.324h95.789v213.432l-75.688-75.798c-.95-.95-1.937-1.827-2.96-2.704l-.987-.767a52.818 52.818 0 00-2.266-1.718l-1.096-.877a28.983 28.983 0 00-2.522-1.535l-1.133-.548a42.886 42.886 0 00-3.435-1.681l-1.425-.585-2.449-.841-1.608-.512-2.741-.694-1.206-.292a48.793 48.793 0 00-3.947-.585H232.693c-25.715 0-46.56 20.846-46.56 46.56V704.1zm186.169 124.258v-589.68h186.169v294.785c.021 25.699 20.859 46.524 46.56 46.524h294.822v248.225z"/></svg>