<svg width="64" height="64" viewBox="0 0 1019 1019" xmlns="http://www.w3.org/2000/svg"><path d="M1006.455 966.127l-89.668-89.634c21.773-32.797 34.739-73.079 34.739-116.39 0-101.934-71.825-187.093-167.626-207.627l-1.394-.25v-172.51-1.126a43.073 43.073 0 00-9.956-27.583l.057.071v-.205a40.318 40.318 0 00-2.56-2.799l-.341-.375c-.375-.375-.751-.785-1.161-1.161l-317.44-317.44a48.345 48.345 0 00-2.765-2.526l-1.092-.785a35.326 35.326 0 00-2.15-1.604l-1.058-.751c-.751-.512-1.536-.956-2.321-1.434l-.99-.512q-1.468-.853-3.209-1.57l-1.365-.546-2.185-.785-1.536-.478-2.492-.649-1.195-.273a42.538 42.538 0 00-3.652-.546H43.314C19.478 16.735.172 35.993-.001 59.801v869.427c0 23.957 19.372 43.389 43.306 43.486h695.89c43.226 0 83.42-12.985 116.893-35.267l-.775.485 89.668 89.668a43.301 43.301 0 0029.381 11.427c24.017 0 43.486-19.469 43.486-43.486 0-11.342-4.343-21.671-11.456-29.413l.028.031zM864.597 760.201c0 69.354-56.223 125.577-125.577 125.577s-125.577-56.223-125.577-125.577 56.223-125.577 125.577-125.577c69.311.078 125.48 56.234 125.577 125.533v.009zM463.701 164.745L634.06 335.139H463.701zM86.938 103.271h289.826V378.59c0 24.017 19.469 43.486 43.486 43.486h275.319v130.15c-97.203 20.794-169.032 105.962-169.032 207.907 0 47.3 15.463 90.989 41.61 126.287l-.407-.575H86.938z"/></svg>