<svg width="64" height="64" viewBox="0 0 871 871" xmlns="http://www.w3.org/2000/svg"><path d="M743.598 148.735c-8.566-9.324-20.816-15.146-34.426-15.146-25.79 0-46.697 20.907-46.697 46.697 0 13.61 5.822 25.86 15.112 34.395l.034.031c62.073 61.973 100.472 147.64 100.472 242.277 0 189.073-153.274 342.347-342.347 342.347S93.399 646.062 93.399 456.989c0-104.78 47.073-198.566 121.224-261.364l.5-.412 21.992 110.328c4.422 21.56 23.24 37.546 45.792 37.546 16.105 0 30.306-8.153 38.701-20.557l.105-.165L474.34 93.938v-.183l.257-.44a54.428 54.428 0 002.089-3.482l.293-.586c.586-1.173 1.173-2.346 1.686-3.665l.22-.66c.477-1.21.916-2.383 1.283-3.665 0-.293 0-.586.22-.843.33-1.173.66-2.346.88-3.665 0-.55 0-1.136.257-1.686s.33-1.869.403-2.822c0-1.539.22-3.079.22-4.655v-.513c0-1.356 0-2.749-.22-4.105s-.293-2.126-.477-3.189c0-.44 0-.843-.183-1.283-.257-1.393-.623-2.712-1.026-4.069v-.403c-.44-1.393-.916-2.786-1.466-4.105v-.183a42.575 42.575 0 00-1.759-3.665l-.183-.367c-.586-1.1-1.246-2.163-1.906-3.226l-.44-.696a35.508 35.508 0 00-1.979-2.639l-.77-1.026c-.66-.806-1.393-1.576-2.126-2.346l-.916-1.026q-1.613-1.613-3.336-3.042l-.623-.477a44.171 44.171 0 00-3.042-2.273L232.902-123.784c-7.283-4.921-16.26-7.856-25.923-7.856-25.79 0-46.697 20.907-46.697 46.697 0 3.208.323 6.34.94 9.366l-.051-.3 33.758 169.708C76.865 172.978.191 305.895.191 456.719c0 240.512 194.973 435.485 435.485 435.485s435.485-194.973 435.485-435.485c0-120.242-48.732-229.103-127.524-307.908l.001.001z"/></svg>