<svg width="64" height="64" viewBox="0 0 1024 1024" xmlns="http://www.w3.org/2000/svg"><path d="M1010.368 284.067L761.266 34.965c-8.419-8.417-20.047-13.625-32.891-13.632H46.56C20.845 21.333 0 42.179 0 67.893v930.879c0 25.715 20.846 46.56 46.56 46.56h930.879c25.715 0 46.56-20.846 46.56-46.56V316.958c-.003-12.846-5.212-24.475-13.632-32.892zm-730.932-169.65h279.289v248.261H279.289zm0 837.795V703.987h465.275v248.225zm651.626 0h-93.23V657.463c0-25.715-20.846-46.56-46.56-46.56H232.73c-25.715 0-46.56 20.846-46.56 46.56v294.785H93.086V114.417h93.084v294.785c0 25.715 20.846 46.56 46.56 46.56h372.374c25.715 0 46.56-20.846 46.56-46.56V114.417h57.342l221.838 221.838z"/></svg>