<svg width="64" height="64" viewBox="0 0 1024 1024" xmlns="http://www.w3.org/2000/svg"><path d="M1010.368 284.067L761.266 34.965c-8.417-8.42-20.046-13.629-32.891-13.632H46.56C20.845 21.333 0 42.179 0 67.893v930.879c0 25.715 20.846 46.56 46.56 46.56h930.879c25.715 0 46.56-20.846 46.56-46.56V316.958c-.007-12.845-5.215-24.473-13.632-32.892zM279.436 114.454h279.289v248.225H279.289zm-186.169 0h92.902v294.785c0 25.715 20.846 46.56 46.56 46.56h372.374c25.715 0 46.56-20.846 46.56-46.56V114.417h57.342l221.838 221.838v163.327l-61.033-61.216c-8.423-8.407-20.05-13.606-32.892-13.606s-24.469 5.199-32.893 13.607L631.489 610.903h-398.76c-25.715 0-46.56 20.846-46.56 46.56v294.785H93.085zm186.022 589.533h258.969L417.033 825.358c-8.417 8.419-13.625 20.047-13.632 32.891v94.145H279.142zm217.197 248.225v-74.811l340.432-340.322 74.847 74.847-340.286 340.286zm294.785 0h-88.297l227.941-227.941v227.941z"/></svg>