<svg width="64" height="64" viewBox="0 0 1165 1165" xmlns="http://www.w3.org/2000/svg"><path d="M1112.248 621.372H467.855c-97.51 0-176.558-79.048-176.558-176.558s79.048-176.558 176.558-176.558h459.039c28.616-.827 51.498-24.222 51.498-52.961s-22.882-52.134-51.422-52.959l-.076-.002H467.855c-155.977.028-282.41 126.479-282.41 282.46 0 67.067 23.374 128.675 62.421 177.121l-.423-.542H52.982a51.878 51.878 0 00-1.484-.021c-29.261 0-52.982 23.721-52.982 52.982s23.721 52.982 52.982 52.982c.522 0 1.042-.008 1.56-.023l-.076.002h644.601c97.51 0 176.558 79.048 176.558 176.558s-79.048 176.558-176.558 176.558H238.336c-28.616.827-51.498 24.222-51.498 52.961s22.882 52.134 51.422 52.959l.076.002h459.423c155.883 0 282.252-126.368 282.252-282.252 0-67.17-23.463-128.86-62.641-177.321l.418.534h194.628c.442.013.962.021 1.484.021 29.261 0 52.982-23.721 52.982-52.982s-23.721-52.982-52.982-52.982c-.522 0-1.042.008-1.56.023l.076-.002z"/></svg>