<svg width="64" height="64" viewBox="0 0 1024 1024" xmlns="http://www.w3.org/2000/svg"><path d="M1001.651 997.205h-68.329v-.377c0-7.199 16.47-18.844 29.699-28.153 26.382-18.58 59.096-41.721 59.096-81.822.002-.169.002-.37.002-.57 0-36.572-29.647-66.219-66.219-66.219-.836 0-1.668.015-2.496.046l.12-.004a59.637 59.637 0 00-4.128-.138c-33.464 0-60.694 26.691-61.562 59.945l-.002.08a23.914 23.914 0 00-.301 3.843c0 13.613 11.035 24.648 24.648 24.648s24.648-11.035 24.648-24.648v-.078.004c0-7.085 1.809-15.075 15.98-15.075.409-.032.885-.051 1.366-.051 10.116 0 18.317 8.201 18.317 18.317 0 .203-.003.406-.01.608l.001-.029c0 15.075-19.787 29.473-38.895 43.267-23.631 17.035-50.427 36.332-50.427 66.181v25.628c.58 12.756 11.062 22.879 23.909 22.879l.302-.002h94.207c12.592-.89 22.47-11.323 22.47-24.064s-9.878-23.174-22.394-24.06l-.077-.004zM782.303 32.112c-8.195-6.714-18.782-10.783-30.319-10.783-14.973 0-28.346 6.854-37.152 17.596l-.067.085L399.99 425.356 85.215 39.01c-8.869-11.286-22.52-18.468-37.847-18.468-26.518 0-48.015 21.497-48.015 48.015a47.826 47.826 0 0011.483 31.16l-.055-.067 327.288 401.685L10.781 902.983c-6.027 7.938-9.655 17.984-9.655 28.879 0 26.518 21.497 48.015 48.015 48.015 14.351 0 27.231-6.296 36.03-16.276l.045-.052 314.775-386.346 314.813 386.346c8.862 10.382 21.961 16.922 36.588 16.922 26.518 0 48.015-21.497 48.015-48.015a47.81 47.81 0 00-10.246-29.651l.078.103-327.326-401.572L789.201 99.651c6.714-8.195 10.783-18.782 10.783-30.319 0-14.973-6.854-28.346-17.596-37.152l-.085-.067z"/></svg>