<svg width="64" height="64" viewBox="0 0 1024 1024" xmlns="http://www.w3.org/2000/svg"><path d="M1001.688 198.363h-68.332v-.377c0-7.199 16.471-18.845 29.7-28.154 26.383-18.581 59.098-41.723 59.098-81.825.002-.181.003-.394.003-.608 0-36.573-29.648-66.221-66.221-66.221-.836 0-1.668.015-2.497.046l.12-.004a59.637 59.637 0 00-4.128-.138c-33.465 0-60.696 26.692-61.564 59.947l-.002.081a23.914 23.914 0 00-.301 3.843c0 13.613 11.036 24.649 24.649 24.649s24.649-11.036 24.649-24.649v-.078.004c0-7.086 1.809-15.076 15.981-15.076.409-.032.885-.051 1.366-.051 10.116 0 18.317 8.201 18.317 18.317 0 .203-.003.406-.01.608l.001-.029c0 15.076-19.787 29.474-38.896 43.268-23.632 17.036-50.429 36.333-50.429 66.184v25.629c.58 12.757 11.063 22.88 23.91 22.88l.302-.002h94.21c12.593-.89 22.471-11.324 22.471-24.065s-9.879-23.175-22.394-24.061l-.077-.004zM782.332 96.11c-8.195-6.714-18.782-10.784-30.32-10.784-14.974 0-28.347 6.854-37.153 17.596l-.067.085-314.787 386.36-314.787-386.36c-8.863-10.382-21.962-16.923-36.589-16.923-26.519 0-48.017 21.498-48.017 48.017a47.807 47.807 0 0010.247 29.652l-.078-.103 327.3 401.7-327.3 401.7C4.619 975.042.906 985.197.906 996.219c0 26.519 21.498 48.017 48.017 48.017 14.469 0 27.443-6.4 36.246-16.523l.05-.058 314.787-386.323 314.825 386.323c8.87 11.286 22.52 18.468 37.848 18.468 26.519 0 48.017-21.498 48.017-48.017a47.829 47.829 0 00-11.483-31.161l.055.067L461.93 565.35l327.3-401.7c6.714-8.195 10.784-18.782 10.784-30.32 0-14.974-6.854-28.347-17.596-37.153l-.085-.067z"/></svg>