<svg width="64" height="64" viewBox="0 0 1252 1252" xmlns="http://www.w3.org/2000/svg"><path d="M1194.682 249.333H56.909C25.479 249.333 0 274.812 0 306.242v910.227c0 31.43 25.479 56.909 56.909 56.909h1137.773c31.43 0 56.909-25.479 56.909-56.909V306.242c0-31.43-25.479-56.909-56.909-56.909zM493.06 932.015V818.242h265.47v113.773zm265.47 113.772v113.773H493.06v-113.773zm0-455.136v113.773H493.06V590.696zm113.773 0h265.47v113.773h-265.47zm-493.06 0v113.773h-265.47V590.696zm-265.47 227.591h265.515v113.773H113.773zm758.53 0h265.47v113.773h-265.47zm-758.53 227.545h265.515v113.773H113.773zm758.53 113.773v-113.773h265.47v113.773z"/></svg>