<svg width="64" height="64" viewBox="0 0 590 590" xmlns="http://www.w3.org/2000/svg"><path d="M577.181 487.732l1.316-1.462a50.578 50.578 0 001.718-2.193l1.096-1.462c.585-.841 1.133-1.754 1.681-2.631l.767-1.243a56.095 56.095 0 001.645-3.326l.365-.804c.585-1.352 1.096-2.778 1.572-4.203 1.387-4.216 2.187-9.068 2.187-14.107s-.8-9.891-2.28-14.437l.093.33c-.439-1.425-.987-2.814-1.572-4.203l-.365-.804a46.944 46.944 0 00-1.645-3.326c-.219-.439-.512-.841-.767-1.243s-1.06-1.791-1.681-2.631-.731-.95-1.096-1.462-1.133-1.498-1.718-2.193l-1.316-1.462c-.621-.658-1.206-1.316-1.864-1.937l-.512-.548-116.364-108.617c-8.006-6.692-18.411-10.756-29.764-10.756-25.715 0-46.56 20.846-46.56 46.56 0 12.364 4.819 23.602 12.682 31.939l-.022-.023 30.041 28.031H164.533l30.041-28.031c8.579-8.45 13.894-20.193 13.894-33.178 0-25.715-20.846-46.56-46.56-46.56-11.857 0-22.679 4.432-30.899 11.73l.048-.042L14.108 422.749c-.585.585-1.133 1.169-1.718 1.754s-.987 1.06-1.462 1.608-1.06 1.352-1.572 2.01-.841 1.06-1.206 1.608-1.06 1.608-1.535 2.449-.585.95-.877 1.425-1.06 2.047-1.535 3.106l-.475 1.023c-.548 1.279-1.023 2.595-1.498 3.947v.402C.881 446.207.094 450.956.074 455.886v.266l-.002.414a46.19 46.19 0 003.772 18.343l-.115-.301.292.585a109.99 109.99 0 001.754 3.655l.658 1.06c.585.95 1.133 1.9 1.791 2.814l.987 1.316a57.418 57.418 0 001.827 2.339l1.206 1.352c.658.694 1.279 1.389 1.974 2.047l.475.475 116.364 108.617c8.172 7.256 18.994 11.688 30.851 11.688 25.715 0 46.56-20.846 46.56-46.56 0-12.984-5.315-24.727-13.888-33.172l-.006-.006-30.041-28.031h260.322l-30.041 28.031c-8.579 8.45-13.894 20.193-13.894 33.178 0 25.715 20.846 46.56 46.56 46.56 11.857 0 22.679-4.432 30.899-11.73l-.048.042 116.876-109.165c.731-.658 1.352-1.316 1.974-1.974zM46.56-198.577c25.715 0 46.56-20.846 46.56-46.56v-74.445h155.14V83.82h-71.887a43.707 43.707 0 00-1.304-.018c-25.715 0-46.56 20.846-46.56 46.56s20.846 46.56 46.56 46.56c.459 0 .916-.007 1.371-.02l-.067.002h236.859c.389.012.846.018 1.304.018 25.715 0 46.56-20.846 46.56-46.56s-20.846-46.56-46.56-46.56c-.459 0-.916.007-1.371.02l.067-.002h-71.924v-403.402h155.14v74.445c-.012.389-.018.846-.018 1.304 0 25.715 20.846 46.56 46.56 46.56s46.56-20.846 46.56-46.56c0-.459-.007-.916-.02-1.371l.002.067v-120.969c0-25.702-20.825-46.54-46.522-46.56H46.559c-25.715 0-46.56 20.846-46.56 46.56v120.969c0 25.715 20.846 46.56 46.56 46.56z"/></svg>