<svg width="64" height="64" viewBox="0 0 1024 1024" xmlns="http://www.w3.org/2000/svg"><path d="M943.411 621.056l-28.023 30.037V390.758l28.023 30.037c8.558 9.494 20.899 15.436 34.628 15.436 25.713 0 46.558-20.845 46.558-46.558 0-12.6-5.005-24.03-13.135-32.412l.011.012L902.315 240.4a33.349 33.349 0 00-1.946-1.877l-1.434-1.331c-.717-.614-1.468-1.161-2.185-1.741l-1.434-1.092a51.393 51.393 0 00-2.662-1.673l-1.229-.751a35.308 35.308 0 00-3.413-1.673l-.785-.375c-1.365-.58-2.765-1.126-4.198-1.57-4.218-1.388-9.072-2.189-14.114-2.189s-9.896.801-14.444 2.282l.33-.093a43.043 43.043 0 00-4.516 1.717l.283-.113-.751.341a44.656 44.656 0 00-3.413 1.673l-1.195.717a44.413 44.413 0 00-2.697 1.707l-1.434 1.058c-.751.58-1.502 1.126-2.219 1.741l-1.434 1.297c-.649.614-1.331 1.229-1.946 1.877l-.546.512-108.612 116.361a46.349 46.349 0 00-11.93 31.122c0 25.713 20.845 46.558 46.558 46.558 13.114 0 24.961-5.422 33.423-14.146l.011-.012 28.023-30.037v260.403l-28.023-30.037c-8.473-8.736-20.321-14.157-33.434-14.157-25.713 0-46.558 20.845-46.558 46.558 0 11.984 4.528 22.911 11.967 31.163l-.037-.042 109.193 116.941c.58.58 1.195 1.161 1.775 1.741l1.604 1.434a32.846 32.846 0 002.048 1.604l1.604 1.195c.785.546 1.638 1.058 2.458 1.536l1.434.853c1.024.58 2.048 1.058 3.14 1.536l.99.478c1.297.546 2.594 1.058 3.959 1.502h.41c4.126 1.357 8.877 2.154 13.809 2.184h.355a46.197 46.197 0 0018.73-3.94l-.296.117.512-.239c1.229-.546 2.458-1.126 3.618-1.809l1.024-.614c.99-.58 1.946-1.161 2.867-1.809l1.263-.956a64.457 64.457 0 002.389-1.877l1.297-1.161a38.638 38.638 0 002.082-2.014l.478-.478 108.612-116.361a46.349 46.349 0 0011.93-31.122c0-25.713-20.845-46.558-46.558-46.558-13.114 0-24.961 5.422-33.423 14.146l-.011.012zM543.027 226.133H46.558C20.845 226.133 0 246.978 0 272.691V393.66c-.011.375-.017.817-.017 1.261 0 25.713 20.845 46.558 46.558 46.558s46.558-20.845 46.558-46.558c0-.443-.006-.885-.018-1.325l.001.065v-74.445h155.17v403.388h-71.885c-25.165.703-45.297 21.271-45.297 46.541s20.132 45.838 45.233 46.539l.065.001h236.851c25.165-.703 45.297-21.271 45.297-46.541s-20.132-45.838-45.233-46.539l-.065-.001h-71.885V319.216h155.136v74.445c-.011.375-.017.817-.017 1.261 0 25.713 20.845 46.558 46.558 46.558s46.558-20.845 46.558-46.558c0-.443-.006-.885-.018-1.325l.001.065V272.693c0-25.701-20.825-46.538-46.522-46.558h-.002z"/></svg>