<svg width="64" height="64" viewBox="0 0 649 649" xmlns="http://www.w3.org/2000/svg"><path d="M597.347-353.667c-28.286 0-51.216 22.93-51.216 51.216v443.698c0 122.535-99.334 221.869-221.869 221.869s-221.869-99.334-221.869-221.869v-443.698c-.8-27.662-23.415-49.781-51.196-49.781S.801-330.112.003-302.524l-.002.074v443.698c0 179.085 145.177 324.261 324.261 324.261s324.261-145.177 324.261-324.261V-302.45c0-28.272-22.907-51.193-51.174-51.216h-.002zm0 921.608H51.216c-27.662.8-49.781 23.415-49.781 51.196s22.12 50.396 49.708 51.194l.074.002h546.131c27.662-.8 49.781-23.415 49.781-51.196s-22.12-50.396-49.708-51.194l-.074-.002z"/></svg>