<svg width="64" height="64" viewBox="0 0 871 871" xmlns="http://www.w3.org/2000/svg"><path d="M676.411 93.864l33.758-169.708c.581-2.764.914-5.94.914-9.193 0-25.79-20.907-46.697-46.697-46.697-9.72 0-18.746 2.97-26.221 8.051l.163-.104L409.681 28.986c-1.063.696-2.053 1.466-3.042 2.273l-.623.477q-1.759 1.43-3.336 3.042l-1.173 1.063a63.94 63.94 0 00-2.126 2.346l-.77 1.026c-.66.88-1.356 1.723-1.979 2.639l-.44.696a35.386 35.386 0 00-1.906 3.226l-.183.367a41.722 41.722 0 00-1.759 3.665v.183c-.55 1.356-1.063 2.712-1.466 4.105v.403a47.164 47.164 0 00-1.026 4.069c0 .44 0 .843-.183 1.283 0 1.063-.367 2.126-.477 3.189s-.183 2.749-.22 4.105v.513c0 1.539 0 3.116.22 4.655 0 .953.257 1.869.403 2.822s0 1.136.257 1.686a87.4 87.4 0 00.88 3.665c0 .293 0 .586.22.843.367 1.246.843 2.456 1.283 3.665l.22.66a77.654 77.654 0 001.686 3.665l.293.586c.623 1.21 1.356 2.346 2.089 3.482l.257.44v.183l152.627 228.427c8.5 12.568 22.7 20.721 38.806 20.721 22.551 0 41.369-15.986 45.74-37.244l.052-.302 21.992-110.328c74.49 63.16 121.453 156.81 121.453 261.429 0 188.932-153.159 342.091-342.091 342.091S93.268 645.643 93.268 456.711c0-94.483 38.304-180.019 100.23-241.928l.001-.001a46.5 46.5 0 0012.271-31.551c0-25.79-20.907-46.697-46.697-46.697-12.18 0-23.271 4.663-31.585 12.302l.034-.031C48.646 227.657-.142 336.603-.142 456.944c0 240.633 195.072 435.705 435.705 435.705s435.705-195.072 435.705-435.705c0-150.908-76.72-283.898-193.284-362.092l-1.569-.991z"/></svg>