<svg viewBox="0 0 24 24" xmlns="http://www.w3.org/2000/svg"><path d="M7.494 15.567l-.885.055v.387c0 1.051.608 1.272 1.106 1.272h.111l1.438-.111c.055-.166.055-.276.055-.276s-.166-9.012-.222-10.118c0-.276-.055-.442-.166-.608-.497-.055-.995-.055-1.326-.11h-.166c-.332 0-.608.111-.774.276-.277.277-.221.664-.221.664v.663c.718.055 1.216.055 1.216.055s.774.166.829.995c.055.885.055 5.861.055 5.861s.056.83-1.05.995zm-2.764.222l-1.382.111s-1.161.166-1.216-1.106c0-.94-.111-6.358-.111-6.358s-.056-.996 1.16-.941c.387 0 .885.055 1.493.111 0-.885-.055-1.659-.055-2.267-.829-.111-1.548-.166-2.046-.221C.97 4.952 1.025 6.279 1.025 6.279s.166 9.897.221 11.113c.055 1.438 1.603 1.216 1.603 1.216l1.935-.221c.001-.663.001-1.603-.054-2.598zm17.195-12.33c-.055-1.88-1.714-2.267-1.714-2.267S14.571.363 12.083.031 9.761 2.132 9.761 2.132s.553 17.527.608 19.683c.055 2.599 2.488 2.156 2.488 2.156l8.515-1.438c1.548-.332 1.603-2.267 1.603-2.267s-.995-14.761-1.05-16.807zm-1.88 14.873l-6.358.663s-1.825.276-1.88-1.99c-.056-1.659-.387-11.113-.387-11.113s-.111-1.714 1.769-1.603c1.935.166 6.579.553 6.579.553s1.216.276 1.272 1.714c.055 1.548.608 10.118.608 10.118s.111 1.381-1.603 1.658zm-6.414.332l2.433-.276c-.111-2.488-.553-12.164-.608-13.546a90.732 90.732 0 01-2.322-.166h-.166c-.387 0-.719.111-.94.332-.332.332-.332.94-.332.94v.166c.995.111 1.769.166 1.769.166s1.051.221 1.106 1.382c.055 1.272.332 8.128.332 8.128s.111 1.161-1.382 1.382l-1.438.111c.111 1.161.774 1.438 1.327 1.438.166-.057.221-.057.221-.057zm-3.704-1.217l-1.99.166s-1.603.221-1.603-1.603c0-1.327-.166-9.012-.166-9.012S6.056 5.56 7.715 5.671c.498.055 1.161.111 1.88.166-.055-1.438-.111-2.599-.111-3.207-.94-.111-1.88-.166-2.543-.276-2.156-.222-2.046 1.658-2.046 1.658s.221 14.099.276 15.813c.055 2.046 2.156 1.714 2.156 1.714l2.709-.332c-.054-.774-.054-2.101-.109-3.76z"/></svg>