<svg xmlns="http://www.w3.org/2000/svg" viewBox="0 0 24 24"><path d="M19.932 17.288c1.465 0 2.644 1.18 2.644 2.644s-1.18 2.644-2.644 2.644a2.639 2.639 0 01-2.644-2.644 2.639 2.639 0 012.644-2.644M12 7.322a4.679 4.679 0 11-.002 9.358A4.679 4.679 0 0112 7.322M6.691 20.664a3.36 3.36 0 01-3.356-3.356v-2.664H0v2.664A6.684 6.684 0 006.691 24h2.665v-3.336H6.691M3.336 6.691a3.36 3.36 0 013.356-3.356h2.664V0H6.691A6.684 6.684 0 000 6.691v2.665h3.336V6.691m13.973-3.356a3.36 3.36 0 013.355 3.356v2.665H24V6.691A6.684 6.684 0 0017.308 0h-2.664v3.336h2.664z"/></svg>