<svg aria-labelledby="simpleicons-readability-icon" viewBox="0 0 24 24" xmlns="http://www.w3.org/2000/svg"><path d="M18.126 12.123v.002l-.329 2.963c-1.392-1.137-3.658-1.985-5.809-1.985-2.14 0-4.396.854-5.787 1.979l-.327-2.955a2.786 2.786 0 0 0-1.11-2.205 7.264 7.264 0 0 1 7.225-6.494c3.765 0 6.85 2.865 7.228 6.525a2.799 2.799 0 0 0-1.09 2.203"/><path d="M17.395 18.471H6.604l-.367-2.887c1.33-1.285 3.408-2.042 5.751-2.042 2.354 0 4.443.762 5.771 2.063l-.365 2.864v.002zM5.524 20.572c-1.134 0-1.073-.021-1.073-1.156l-1.748-4.07a2.802 2.802 0 0 1 .102-5.602 2.802 2.802 0 0 1 2.801 2.797v.004l.747 6.721c0 1.125.306 1.303-.828 1.303m15.772-5.235L19.549 19.4c0 1.125.06 1.168-1.073 1.168-1.134 0-.828-.193-.828-1.318l.746-6.721a2.812 2.812 0 0 1 2.804-2.805 2.808 2.808 0 0 1 2.803 2.805 2.785 2.785 0 0 1-2.703 2.789"/></svg>