<svg width="2304" height="1792" xmlns="http://www.w3.org/2000/svg"><path d="M87.5 865q0-107 193-193t502-122q2-150 110.5-257.5T1151.5 185q151 0 259.5 107.5T1521.5 550q308 36 501.5 122t193.5 193q0 91-142.5 168.5T1686.5 1156t-535 45q-289 0-534-45T230 1033.5 87.5 865zm249 0q0 25 18 42.5t43 17.5 42-17.5 17-42.5-17-42.5-42-17.5-43 17.5-18 42.5zm378 0q0 25 17.5 42.5t42.5 17.5 42.5-17.5 17.5-42.5-17.5-42.5-42.5-17.5-42.5 17.5-17.5 42.5zm189-327q113-10 248-10 136 0 250 10-7-97-78.5-164t-171.5-67q-98 0-170 67t-78 164zm189 327q0 25 17 42.5t42 17.5 43-17.5 18-42.5-18-42.5-43-17.5-42 17.5-17 42.5zm377 0q0 25 17.5 42.5t42.5 17.5q24 0 42-17.5t18-42.5-18-42.5-42-17.5q-26 0-43 17.5t-17 42.5zm377 0q0 25 17.5 42.5t41.5 17.5q25 0 43-17.5t18-42.5-17.5-42.5-43.5-17.5q-24 0-41.5 17.5t-17.5 42.5z" fill="undefined"/></svg>