<?xml version="1.0" encoding="utf-8"?>
<svg width="2304" height="1792" xmlns="http://www.w3.org/2000/svg"><path d="M44 1006q0-184 115-328t292-185q50-219 225-359.5T1077-7q221 0 393.5 137T1695 481h35q144 0 266 69.5T2189 741t71 265q0 141-67.5 261t-185 192.5T1750 1536H556q-214-10-363-163T44 1006zm182 0q0 139 96.5 241.5T556 1357h1194q137-7 234-109.5t97-241.5q0-140-104-242.5T1730 661h-173q-18 0-18-19l-8-61q-18-173-149-290t-305-117q-175 0-304.5 117T626 581l-8 61q0 19-21 19h-56q-134 16-224.5 114T226 1006z" fill="undefined"/></svg>