<?xml version="1.0" encoding="utf-8"?>
<svg width="2304" height="1792" xmlns="http://www.w3.org/2000/svg"><path d="M46 1009q0 105 40 200.5t108.5 165 163 112.5 199.5 48q18 0 18-18v-142q0-20-18-20-139-10-234-110t-95-236q0-134 90.5-233.5T542 665l56-8q21 0 21-18l8-55q11-114 73.5-207.5t162-146T1077 178q175 0 305.5 115T1531 581l6 61q0 19 20 19h172q144 0 247 103t103 245q0 136-95 236t-234 110q-21 0-21 20v142q0 18 21 18 214-10 361.5-161.5T2259 1009q0-143-71.5-264.5T1994 552t-265-71h-34q-53-213-225.5-350T1077-6Q852-6 677 135.5T452 496q-177 42-291.5 185.5T46 1009zm664 135q0 119 59.5 220.5t161 161.5 219.5 60q184 0 315-130.5t131-311.5q0-37-27-64t-65-27-65.5 27-27.5 64q0 107-76.5 184t-184.5 77q-106 0-182.5-77T891 1144q0-96 57-171t140-82l-44 42q-24 24-24 61 0 40 24 70 22 24 56.5 25t74.5-25l194-199q27-27 27-62 0-40-27-65l-194-195q-30-28-66-28-37 0-63 27t-26 65 24 62l37 38q-160 27-265.5 149T710 1144z" fill="undefined"/></svg>