<?xml version="1.0" encoding="utf-8"?>
<svg width="2304" height="1792" xmlns="http://www.w3.org/2000/svg"><path d="M-33 1082q0-159 99-282.5T320 641q41-188 190-307.5T853 214q189 0 337.5 116.5T1383 629h29q188 0 321 132.5t133 320.5-133 321.5-321 133.5H422q-92 0-176.5-36T100 1404 3 1258.5-33 1082zm155 0q0 122 88 209.5t212 87.5h990q124 0 212-87.5t88-209.5-88-209-212-87h-148q-16 0-16-16l-7-52q-16-151-126.5-250.5T853 368 590.5 468 465 718l-7 45q0 16-17 16l-48 7q-115 10-193 95t-78 201zm944-930q-16 15 8 22 69 30 115 59 18 5 24-3 97-92 226-92t223.5 86.5T1768 438l10 68h151q104 0 179 74.5t75 177.5q0 96-66 167t-163 82q-16 0-16 17v121q0 17 16 17 161-10 272-127t111-277q0-169-119.5-288.5T1929 350h-16q-42-160-175.5-263.5T1439-17q-226 0-373 169z" fill="undefined"/></svg>