<svg width="64" height="64" viewBox="0 0 2211 2211" xmlns="http://www.w3.org/2000/svg"><path d="M0 1388q0 213 148.5 366T511 1917q18 0 18-18v-142q0-20-18-20-137-7-233-108.5T182 1388q0-132 90-230t224-114h56q21 0 21-19l6-61q17-173 147-290t305-117q173 0 303.5 117T1483 964l8 61q0 19 19 19h172q142 0 246 102.5t104 241.5q0 138-96.5 240T1703 1737q-21 0-21 20v142q0 18 21 18 139-4 256-76t184.5-192.5T2211 1388q0-107-42-204t-113-167-169-111.5-205-41.5h-34q-53-214-225-350.5T1031 377q-226 0-401 140.5T406 876q-177 41-291.5 184.5T0 1388zm741 67q0 40 26 68 24 24 65 24 39 0 66-24l118-122v424q0 38 25 65t63 27q37 0 64-27t27-65v-420l120 118q64 49 130 0 26-24 26-66 0-38-26-66l-276-274q-26-26-64-26-39 0-63 26l-275 274q-26 26-26 64z"/></svg>