<?xml version="1.0" encoding="utf-8"?>
<svg width="2304" height="1792" xmlns="http://www.w3.org/2000/svg"><path d="M-414 1451q0 37 27 62.5t67 25.5h1996q38 0 65-25.5t27-62.5q0-38-27-64.5t-65-26.5H-320q-40 0-67 26.5t-27 64.5zm280-334q0 37 27 62 27 29 64 29h1997q37 0 62.5-26.5t25.5-64.5q0-37-25-62.5t-63-25.5H-43q-38 0-64.5 25.5T-134 1117zm13-256q0 14 17 14H49q11 0 22-17 38-83 113.5-136T351 662l58-8q18 0 18-19l7-54q17-173 146.5-289T885 176q173 0 302.5 115T1335 577l8 62q0 18 20 18h172q103 0 187.5 55T1848 858q11 17 21 17h154q21 0 14-24l-21-59q121-150 121-353 0-113-44-216T1975 45 1797-74t-218-44q-247 0-408 179Q1036-6 885-6 661-6 486.5 134.5T263 494q-285 75-382 357-2 3-2 10zm173 918q0 38 29 64 25 28 63 28h1999q37 0 64-27t27-65q0-37-26.5-61.5T2143 1693H144q-38 0-65 24.5T52 1779zM753-298q0 38 25 63l69 68q27 29 62 29 36 0 63.5-26.5T1000-230q0-38-27-67l-68-65q-26-28-64-28-39 0-63.5 26.5T753-298zm567 467q108-108 259-108 157 0 267.5 111T1957 439q0 104-52 192-152-152-370-152h-36q-45-188-179-310zm171-558q0 37 25.5 62.5T1579-301q40 0 67-25.5t27-62.5v-218q0-37-28-64t-66-27q-37 0-62.5 26.5T1491-607v218zm586 243q0 36 26 64 59 57 131 0l152-153q26-28 26-68 0-37-26-63t-63-26q-38 0-64 26l-156 157q-26 28-26 63zm86 1258q0 38 28 64l68 69q26 26 62 26 33 0 65-26 26-28 26-68 0-36-26-60l-69-70q-28-26-64-26-38 0-64 26.5t-26 64.5zm158-673q0 39 28 64 24 27 63 27h219q37 0 62.5-26.5T2719 439t-25.5-64-62.5-26h-219q-38 0-64.5 26.5T2321 439z" fill="undefined"/></svg>