<svg width="2304" height="1792" xmlns="http://www.w3.org/2000/svg"><path d="M-282 1008q0 213 148.5 366T229 1537q18 0 18-18v-146q0-19-18-19-139-11-234-110.5t-95-235.5q0-134 90.5-233.5T214 664l56-8q21 0 21-18l6-54q17-173 146.5-289.5T749 178q174 0 303.5 116T1201 584l7 62q0 18 20 18h171q145 0 247.5 101t102.5 243q0 136-95 235.5T1420 1354q-21 0-21 19v146q0 18 21 18 213-7 360.5-161t147.5-368q0-108-50-221 127-151 127-349 0-114-44.5-217.5T1841 42 1662.5-77 1446-121q-247 0-414 185Q895-2 749-2 522-2 347.5 137T124 496q-176 41-291 184.5T-282 1008zm800 1202h32l567-837q6-7 2.5-14.5t-14.5-7.5H872l245-449q12-23-15-23H788q-13 0-23 15l-230 610q-4 22 15 22h231zm94-2515q0 40 26 66l70 69q67 51 129 0 26-29 26-68 0-37-26-63l-68-69q-30-27-66-27-37 0-64 27t-27 65zm570 472q109-109 264-109 156 0 266 111t110 269q0 97-54 193-156-150-369-150h-33q-43-182-184-314zm173-564q0 40 25.5 66t65.5 26q38 0 63-25.5t25-66.5v-218q0-38-25-63t-63-25-64.5 25-26.5 63v218zm588 247q0 37 29 64t59 27q26 0 66-27l154-153q27-29 27-67 0-39-26.5-65t-64.5-26q-35 0-62 27l-153 153q-29 31-29 67zm87 1261q0 37 26 65l69 70q26 26 62 26 38 0 64.5-27t26.5-67q0-36-27-61l-66-70q-30-25-66-25-37 0-63 26t-26 63zm155-673q0 35 28 61 27 27 64 27h218q38 0 65-25.5t27-62.5q0-38-27.5-65t-64.5-27h-218q-37 0-64.5 27t-27.5 65z" fill="undefined"/></svg>