<svg width="64" height="64" viewBox="0 0 842 842" xmlns="http://www.w3.org/2000/svg"><path d="M3-232v-2q-1-13 .5-39T14-359t26.5-123T95-626t87.5-154T316-928.5 501-1061q25-14 52.5-6t40.5 33q14 25 6.5 53T568-939Q358-824 245-614q86-40 174-40 172 0 295 122.5T837-237q0 13-.5 25.5t-4.5 55-12 82-25 99-40.5 113-62 117.5-86 119.5-115.5 112T343 588q-15 9-33 9-41 0-62-37-14-25-6-52.5t33-40.5q215-120 326-329-87 41-182 41-111 0-206.5-55T60.5-26 3-232zm181-5q0 98 69 167T419-1q91 0 158.5-60.5T655-212l1-24q0-4 1-5-1-96-70.5-162.5T419-470q-89 0-155.5 58T186-267l-2 27v3z"/></svg>