<svg width="1792" height="1792" xmlns="http://www.w3.org/2000/svg"><path d="M478 755v-2q-1-13 .5-39t10.5-86 26.5-123T570 361t87.5-154T791 58.5 976-74q25-14 52.5-6t40.5 33q14 25 6.5 53T1043 48Q833 163 720 373q86-40 174-40 172 0 295 122.5T1312 750q0 13-.5 25.5t-4.5 55-12 82-25 99-40.5 113-62 117.5-86 119.5-115.5 112T818 1575q-15 9-33 9-41 0-62-37-14-25-6-52.5t33-40.5q215-120 326-329-87 41-182 41-111 0-206.5-55t-152-150T478 755zm181-5q0 98 69 167t166 69q91 0 158.5-60.5T1130 775l1-24q0-4 1-5-1-96-70.5-162.5T894 517q-89 0-155.5 58T661 720l-2 27v3z" fill="undefined"/></svg>