<?xml version="1.0" encoding="utf-8"?>
<svg width="2304" height="1792" xmlns="http://www.w3.org/2000/svg"><path d="M-13 1005q0 178 106 317.5T368 1513l-70 180q-4 22 16 22h226l-104 374h31l417-527q6-8 1.5-15.5T870 1539H638l264-494q11-23-14-23H572q-14 0-24 15l-114 307q-115-29-190-124.5T169 1005q0-133 90.5-231.5T484 659l56-8q21 0 21-18l8-55q17-173 146.5-290T1020 171q173 0 304.5 117.5T1475 578l7 63q0 18 19 18h173q145 0 248 101.5t103 244.5q0 136-96 236t-235 111q-20 0-20 18v147q0 19 20 19 140-5 257.5-77t185-192.5T2204 1005q0-139-70-261 127-121 166-280l15-77q2-2 2-8 0-11-17-16l-60-19q-91-26-156-87.5T1991.5 125 1964-16q0-42 9-85l15-65q7-16-15-25-34-14-96.5-28T1754-233q-58 0-119 14t-126.5 43.5-127.5 85T1274 40Q1142-8 1020-8 794-8 619 132T394 490q-177 42-292 186t-115 329zm864 1048q0 26 15.5 49.5T914 2135q17 3 32 3 65 0 81-67l247-938q10-38-7.5-69.5T1213 1022q-37-11-69.5 6.5T1101 1081l-247 943q-3 14-3 29zm445-322q0 26 15.5 49t49.5 33q5 0 16.5 1.5t17.5 1.5q61 0 77-67l160-616q10-39-8-70t-54-41q-37-11-69 6t-42 53l-160 621q-3 17-3 29zm132-1593q53-91 141.5-139T1757-49q20 0 29 1v34q0 154 83.5 291T2101 487q-29 67-84 114-147-126-343-126h-34q-45-199-212-337z" fill="undefined"/></svg>