<svg width="64" height="64" viewBox="0 0 2296 2296" xmlns="http://www.w3.org/2000/svg"><path d="M-2 1474q0 213 148.5 366.5T510 2004q18 0 18-18v-146q0-20-18-20-140-10-235.5-110T179 1474q0-135 91-234.5T495 1129l56-7q20 0 20-20l7-53q17-173 147-290t306-117q175 0 305 116.5t149 290.5l6 61q0 19 20 19h171q145 0 248 101.5t103 243.5q0 136-95 236t-234 110q-22 0-22 20v146q0 18 22 18 213-7 361.5-161.5T2214 1474q0-118-46-214 126-153 126-358 0-151-75.5-280.5t-204.5-205-280-75.5q-244 0-419 187-132-67-284-67-226 0-401.5 140T405 960q-177 42-292 185.5T-2 1474zm633 94q0 60 45.5 104t108.5 44 106.5-43 43.5-105q0-41-37.5-109T827 1352q-3-4-19.5-21.5T785 1305l-38 43q-44 48-80 112.5T631 1568zm319 425q0 101 73.5 175t175.5 74q103 0 177-74t74-175q0-43-25-103t-60-111q-74-95-138-159-9-7-28-26l-62 62q-71 68-129 166.5T950 1993zm157-715q0 43 30 71.5t76 28.5q41 0 70-28.5t29-71.5q0-65-99-172l-27 28q-30 32-54.5 74.5T1107 1278zm362-644q107-106 265-106 156 0 266 109t110 265q0 101-54 197-160-154-374-154h-33q-45-188-180-311z"/></svg>