<?xml version="1.0" encoding="utf-8"?>
<svg width="2304" height="1792" xmlns="http://www.w3.org/2000/svg"><path d="M-12 1007q0 177 106 316.5T369 1514l-69 181q-7 22 15 22h226l-138 446h30l451-600q6-7 2-14.5t-15-7.5H639l264-495q11-23-14-23H573q-14 0-24 16l-114 307q-114-29-189.5-124.5T170 1007q0-133 90.5-231T485 662l56-8q21 0 21-19l8-54q17-173 146.5-290T1021 174q174 0 305 117.5T1475 581l8 61q0 20 18 20h173q145 0 248 101.5t103 243.5q0 136-96 236t-235 110q-20 0-20 20v145q0 19 20 19 213-7 361.5-161.5T2204 1007q0-139-70-261 122-118 161-280l20-73q1-1 1-7 0-13-16-17l-66-18q-92-27-156-89.5t-90.5-130T1962-3q0-44 11-91l12-65q4-16-15-25l-85-26q-75-15-132-15-59-1-120.5 12.5t-126.5 43-125.5 84T1275 43Q1139-6 1021-6 795-6 620 134.5T395 493q-177 42-292 185.5T-12 1007zm872 1052q0 25 16.5 50t48.5 35q25 5 29 5 15 0 39-11 33-16 45-56l30-112q10-35-8.5-67.5T1003 1859q-35-10-67.5 9t-43.5 57l-29 107q0 3-1 8.5t-1.5 10-.5 8.5zm143-507q0 69 65 80 22 5 29 5 60 0 82-67l32-109q10-35-9-67.5t-57-43.5q-36-11-68.5 7.5T1033 1414l-27 108q-3 14-3 30zm299 178q2 27 19 51.5t51 36.5q26 6 35 6 55 0 76-72l26-109q11-37-6.5-70t-53.5-44q-40-10-72.5 9t-39.5 57l-31 110q0 4-2 12.5t-2 12.5zm126-1589q53-89 143-137.5T1759-45h23v34q0 102 36 198t108.5 177T2098 493q-27 60-81 110-146-125-343-125h-35q-45-201-211-337zm21 1077q0 69 69 88 22 4 32 4 58 0 79-69l30-111q1-8 1-23 2-27-15-52.5t-52-35.5q-2 0-10.5-1.5t-13.5-1.5q-26 0-51 16.5t-35 50.5l-31 109q0 1-1.5 11t-1.5 15z" fill="undefined"/></svg>