<?xml version="1.0" encoding="utf-8"?>
<svg width="2304" height="1792" xmlns="http://www.w3.org/2000/svg"><path d="M8 1007q0 178 106 318t273 187l-68 179q-8 23 15 23h226l-111 447h30l423-600q6-7 1.5-15t-15.5-8H656l264-492q11-23-15-23H591q-14 0-24 15l-114 306q-114-28-188.5-122T190 1007q0-133 89.5-230.5T503 663l57-4q19 0 19-19l8-57q11-113 74-206.5T823.5 230t214.5-53q173 0 303 117t148 289l8 60q0 20 18 20h173q142 0 245.5 102t103.5 242q0 138-96 239.5T1709 1355q-21 0-21 19v143q0 18 21 18 139-4 256-76.5t184-192.5 67-259q0-117-45-214 125-148 125-353 0-113-44.5-216T2132 46 1954-73.5 1738-118q-247 0-412 185-129-69-288-69-225 0-400 139.5T414 495q-176 41-291 184.5T8 1007zm846 1054q0 26 15.5 49t48.5 33q3 0 8.5 1t10 1.5 8.5.5q67 0 85-64l259-948q10-37-7-68.5t-52-42.5q-37-11-69.5 6.5T1118 1083l-261 949q-3 27-3 29zm442-324q0 64 66 85 27 3 28 3 18 0 37-8 32-14 45-59l175-624q10-37-8-68.5t-54-42.5q-37-11-69 6.5t-42 53.5l-173 628q-5 23-5 26zm178-1568q108-102 264-102 155 0 265 109t110 264q0 101-54 197-154-154-371-154h-34q-45-183-180-314z" fill="undefined"/></svg>