<?xml version="1.0" encoding="utf-8"?>
<svg width="2304" height="1792" xmlns="http://www.w3.org/2000/svg"><path d="M-164 1437q0 36 27 61t66 25h1985q38 0 64.5-25t26.5-61q0-39-26-65.5t-65-26.5H-71q-38 0-65.5 27t-27.5 65zm278-332q0 38 28 63 22 29 63 29h1985q37 0 62-27t25-65q0-37-25-62t-62-25H205q-38 0-64.5 25t-26.5 62zm16-258v-5q-7 24 13 24h154q9 0 20-16 38-83 113.5-136T596 654l57-8q20 0 20-19l6-53q17-172 145.5-287.5T1127 171q172 0 301 114t147 285l7 61q0 19 22 19h169q103 0 187 55t125 145q11 16 23 16h151q19 0 16-24-35-89-49-113 116-104 160-274l18-70q4-10-1.5-17t-12.5-7l-66-23q-143-41-217.5-169T2067-104l14-62q8-15-14-25l-90-25q-175-43-343 28T1371 38q-127-49-244-49-222 0-395.5 140T508 486q-135 32-236.5 129T130 847zm169 915q0 38 28 63 27 29 63 29h1989q37 0 63-27t26-65q0-37-26-62t-63-25H390q-38 0-64.5 25t-26.5 62zM1526 133q56-92 150.5-142T1876-49q-11 167 75 312.5T2188 479q-24 56-80 114-147-121-335-121h-34q-51-210-213-339z" fill="undefined"/></svg>