<?xml version="1.0" encoding="utf-8"?>
<svg width="2304" height="1792" xmlns="http://www.w3.org/2000/svg"><path d="M-8 1009q0 213 148.5 366T503 1538q18 0 18-18v-146q0-19-18-19-139-11-234-110.5T174 1009q0-134 90.5-233.5T488 665l56-8q21 0 21-18l8-55q17-173 146-289.5T1023 178q174 0 304 116t148 290l8 62q0 19 19 19h172q145 0 247.5 101t102.5 243q0 136-95 235.5T1695 1355q-21 0-21 19v146q0 18 21 18 213-7 360.5-161t147.5-368q0-143-73-264 128-116 165-275l16-77q1-1 1-7 0-12-17-17l-62-18q-91-26-155-88t-91-131.5T1960-9q0-39 10-84l15-66q5-15-15-24l-84-26q-70-17-133-17-58 0-119 14t-127 43.5-128 85T1272 47Q1159-1 1023-1 797-1 622.5 138.5T398 496q-176 42-291 185.5T-8 1009zm818 496q-8 23 15 23h230l-140 442h32l445-596q6-7 3-14.5t-14-7.5h-235l246-449q11-23-15-23h-314q-13 0-23 15zm619-1360q53-91 141.5-139T1754-42q20 0 29 2v33q0 154 83 291t231 209q-25 59-80 114-147-126-343-126h-34q-45-200-211-336z" fill="undefined"/></svg>