<svg width="64" height="64" viewBox="0 0 2330 2330" xmlns="http://www.w3.org/2000/svg"><path d="M0 1506q0 178 106 317.5T381 2014l-70 180q-4 22 16 22h226l-104 374h31l417-527q6-8 1.5-15.5T883 2040H651l264-494q11-23-14-23H585q-14 0-24 15l-114 307q-115-29-190-124.5T182 1506q0-133 90.5-231.5T497 1160l56-8q21 0 21-18l8-55q17-173 146.5-290T1033 672q173 0 304.5 117.5T1488 1079l7 63q0 18 19 18h173q145 0 248 101.5t103 244.5q0 136-96 236t-235 111q-20 0-20 18v147q0 19 20 19 140-5 257.5-77t185-192.5T2217 1506q0-139-70-261 127-121 166-280l15-77q2-2 2-8 0-11-17-16l-60-19q-91-26-156-87.5T2004.5 626 1977 485q0-42 9-85l15-65q7-16-15-25-34-14-96.5-28T1767 268q-58 0-119 14t-126.5 43.5-127.5 85T1287 541q-132-48-254-48-226 0-401 140T407 991q-177 42-292 186T0 1506zm864 1048q0 26 15.5 49.5T927 2636q17 3 32 3 65 0 81-67l247-938q10-38-7.5-69.5T1226 1523q-37-11-69.5 6.5T1114 1582l-247 943q-3 14-3 29zm445-322q0 26 15.5 49t49.5 33q5 0 16.5 1.5t17.5 1.5q61 0 77-67l160-616q10-39-8-70t-54-41q-37-11-69 6t-42 53l-160 621q-3 17-3 29zm132-1593q53-91 141.5-139t187.5-48q20 0 29 1v34q0 154 83.5 291T2114 988q-29 67-84 114-147-126-343-126h-34q-45-199-212-337z"/></svg>