<svg width="2304" height="1792" xmlns="http://www.w3.org/2000/svg"><path d="M-12 1007q0 177 106 316.5T369 1514l-69 181q-7 22 15 22h226l-138 446h30l451-600q6-7 2-14.5t-15-7.5H639l264-495q11-23-14-23H573q-14 0-24 16l-114 307q-114-29-189.5-124.5T170 1007q0-133 90.5-231T485 662l56-8q21 0 21-19l8-54q17-173 146.5-290T1021 174q174 0 305 117.5T1475 581l8 61q0 20 18 20h173q145 0 248 101.5t103 243.5q0 136-96 236t-235 110q-20 0-20 20v145q0 19 20 19 213-7 361.5-161.5T2204 1007q0-139-70-261 122-118 161-280l20-73q1-1 1-7 0-13-16-17l-66-18q-92-27-156-89.5t-90.5-130T1962-3q0-44 11-91l12-65q4-16-15-25l-85-26q-75-15-132-15-59-1-120.5 12.5t-126.5 43-125.5 84T1275 43Q1139-6 1021-6 795-6 620 134.5T395 493q-177 42-292 185.5T-12 1007zm1023 647q0 39 26 63 26 26 62 26 38 0 65-26t27-63q0-38-27-65.5t-65-27.5q-35 0-61.5 27.5T1011 1654zm0-388q0 38 26 62 26 26 62 26 39 0 65.5-25t26.5-63q0-37-27-63.5t-65-26.5q-36 0-62 26.5t-26 63.5zm0 780q0 35 26 61 27 27 62 27 38 0 65-25.5t27-62.5q0-38-27-65.5t-65-27.5q-35 0-61.5 27.5T1011 2046zm345-599q0 38 26.5 64.5t63.5 26.5 62.5-26.5 25.5-64.5q0-36-25.5-62t-62.5-26-63.5 26-26.5 62zm0 388q0 36 26 62t64 26 63-25.5 25-62.5q0-38-25-63t-63-25-64 25-26 63zm72-1694q53-89 143-137.5T1759-45h23v34q0 102 36 198t108.5 177T2098 493q-27 60-81 110-146-125-343-125h-35q-45-201-211-337z" fill="undefined"/></svg>