<svg width="64" height="64" viewBox="0 0 2282 2282" xmlns="http://www.w3.org/2000/svg"><path d="M0 1460q0 143 70 264.5T261 1917t264 71h1153q143 0 264.5-71t192.5-192.5 71-264.5q0-102-45-213 121-148 121-352 0-152-74-280.5T2005.5 411 1725 336q-239 0-413 186-122-69-287-69-225 0-397.5 139T406 949q-179 40-292.5 183T0 1460zm182 0q0-133 89-230t224-113l73-3 7-77q22-173 150-289.5T1025 631q175 0 305 117t147 289l11 80h190q141 0 243 101.5t102 241.5q0 144-101.5 247T1678 1810H525q-139 0-241-104t-102-246zm1283-836q110-106 260-106 158 0 268.5 109.5T2104 895q0 99-55 196-153-153-371-153h-33q-44-178-180-314z"/></svg>