<svg width="64" height="64" viewBox="0 0 1755 1755" xmlns="http://www.w3.org/2000/svg"><path d="M0 1223q0 155 113.5 268.5T382 1605h731q155 0 265.5-112t110.5-270q0-77-22-131 133-85 210.5-226.5T1755 563q0-130-50.5-248.5t-136.5-204T1364-26t-247-51Q942-77 794.5 9t-232 233T478 563v36q-161 92-212 266-121 38-193.5 135T0 1223zm211 0q0-67 43-115t109-54l67-9q20 0 20-24l11-60q11-92 77.5-154T696 745q93 0 161.5 62T937 961l9 69q10 24 27 24h140q69 0 119.5 50t50.5 119q0 72-50.5 123t-119.5 51H382q-72 0-121.5-51T211 1223zm472-682q11-175 135.5-294T1117 128q178 0 302.5 127T1544 563q0 112-54 207.5T1343 925q-94-78-217-78-47-140-164.5-223T696 541h-13z"/></svg>