<?xml version="1.0" encoding="utf-8"?>
<svg width="2304" height="1792" xmlns="http://www.w3.org/2000/svg"><path d="M-290 1008q0-185 113.5-328T116 497q37-165 149.5-288.5T535 32Q634-2 741-2q130 0 251 51 45-75 105.5-130t125-84.5T1348-209t120-14q61 0 131 17l87 27q22 9 15 24l-15 64q-11 50-11 92 0 50 15.5 101t46.5 100 85 89 123 61l66 23q16 4 16 17 0 3-2 7l-19 72q-44 172-160 274 64 112 69 239 1 8 1 24 0 143-71 264.5T1652.5 1465t-264.5 71H235q-143 0-264-71t-191-192.5-70-264.5zm182 0q0 142 102 246t241 104h1153q142 0 243.5-103t101.5-247q0-140-102-241.5T1388 665h-190l-11-80q-16-162-134-276.5T772 181q-5 0-15.5-1t-15.5-1q-81 0-164 31v-2q-117 45-196.5 146T285 585l-7 77-73 3Q70 681-19 778t-89 230zm1253-865q170 145 210 339h34q199 0 338 126 53-50 81-114-146-69-230-210t-84-297v-26q-8-1-26-1-93-2-181 46.5T1145 143z" fill="undefined"/></svg>