<?xml version="1.0" encoding="utf-8"?>
<svg width="2048" height="1792" xmlns="http://www.w3.org/2000/svg"><path d="M116 536q0-150 94.5-268.5T450 117q41-180 184.5-295T963-293q180 0 322 112.5T1469 106h29q180 0 307 125.5T1932 536q0 96-39.5 181.5T1783 864v3q0 95-59.5 169.5T1574 1131q-23 100-97 169t-174 85q46 55 46 121 0 77-54.5 132t-131.5 55-131.5-55-54.5-132q0-31 11-61h-11q-93 0-160-67t-67-160q0-64 32-114-83-46-120-133H526v-1q-172-11-291-136T116 536zm149-26q0 128 90 218t217 90q79 0 146-36 19 119 111 198t216 79q139 0 237-98 66 76 164 76 91 0 155.5-64.5T1666 817q64-43 101-110.5t37-146.5q0-127-91-215.5T1494 256q-89 0-163 47 9-39 9-84 0-154-110-262T964-151q-150 0-259 104T591 206q-3 0-9-.5t-10-.5q-126 0-216.5 89.5T265 510z" fill="undefined"/></svg>