<svg width="64" height="64" viewBox="0 0 1609 1609" xmlns="http://www.w3.org/2000/svg"><path d="M0 522q0-31 21-53t51-22q31 0 52 22t21 53q0 30-21.5 51T72 594t-51-21.5T0 522zm211 0q0-31 21-53t51-22h344L384 204q-22-20-22-50.5t22-52.5 52-22 52 22l242 242V1q0-31 22-53t53-22q30 0 51 22t21 53v345l244-245q22-22 52-22t52 22q19 22 19 52.5t-19 50.5L982 447h344q29 0 50.5 22t21.5 53q0 29-21.5 50.5T1326 594H981l244 244q19 20 19 50t-19 52q-23 22-52.5 22t-51.5-22L877 695v346q0 31-21 52.5t-51 21.5q-31 0-53-21.5t-22-52.5V698L488 940q-22 22-52 22t-52-22-22-52 22-50l245-244H283q-30 0-51-21.5T211 522zm2 516.5q0-29.5 22-51.5 20-22 50.5-22t52.5 22 22 51.5-22 51.5-52.5 22-50.5-22q-22-22-22-51.5zm0-1036Q213-27 235-49q20-22 50.5-22T338-49t22 51.5T338 55q-22 22-52.5 22T235 55q-22-23-22-52.5zM730 1252q0-29 22-50.5t53-21.5q30 0 51 21.5t21 50.5q0 31-21 52.5t-51 21.5q-31 0-53-21.5t-22-52.5zm0-1463q0-31 22-52.5t53-21.5q30 0 51 21.5t21 52.5q0 29-21 50.5T805-139q-31 0-53-21.5T730-211zm519 1249.5q0-29.5 22-51.5 20-22 50.5-22t52.5 22 22 51.5-22 51.5-52.5 22-50.5-22q-22-22-22-51.5zm0-1036q0-29.5 22-51.5 20-22 50.5-22t52.5 22 22 51.5-22 52.5q-22 22-52.5 22T1271 55q-22-23-22-52.5zM1463 522q0-31 21.5-53t52.5-22q29 0 50.5 22t21.5 53q0 29-21.5 50.5T1537 594q-31 0-52.5-21.5T1463 522z"/></svg>