<?xml version="1.0" encoding="utf-8"?>
<svg width="2304" height="1792" xmlns="http://www.w3.org/2000/svg"><path d="M46.5 1013q0-185 113.5-328.5T452.5 497q50-218 224.5-358T1077.5-1q220 0 392.5 136.5T1694.5 486h34q143 0 265 70.5t193 192 71 264.5q0 212-148 365t-360 160q-21 0-21-18v-142q0-19 21-19 136-7 232.5-108.5t96.5-237.5q0-142-103-245t-247-103h-172q-19 0-19-18l-8-62q-18-173-148.5-290t-303.5-117q-176 0-305.5 118T625.5 589l-6 53q0 20-21 20l-56 7q-133 11-223.5 110.5T228.5 1013q0 136 96.5 237.5T557.5 1359q18 0 18 19v142q0 18-18 18-214-7-362.5-160T46.5 1013zm587 821q0-37 27-64 26-24 61-24 37 0 62.5 25t25.5 63-25.5 63-62.5 25-62.5-25-25.5-63zm92-387q0-36 25.5-62t62.5-26 62.5 26 25.5 62q0 38-25.5 64.5t-62.5 26.5-62.5-26.5-25.5-64.5zm203 596q0-36 27-65 26-26 61-26 38 0 65 27t27 64-27 62.5-65 25.5q-36 0-62-25.5t-26-62.5zm92-390q0-38 26-66 26-26 62-26 37 0 64 27t27 65q0 37-26.5 63.5t-64.5 26.5q-36 0-62-26.5t-26-63.5zm45-386q0-37 27-64 28-26 61-26 38 0 65 26.5t27 63.5-27 62.5-65 25.5q-36 0-62-25.5t-26-62.5zm253 567q0-36 26-64 26-24 64-24t63 25 25 63-25 63-63 25-64-25.5-26-62.5zm91-387q0-35 27-61.5t64-26.5 62.5 26 25.5 62q0 38-25.5 64.5t-62.5 26.5q-38 0-64.5-27t-26.5-64z" fill="undefined"/></svg>