<svg width="2304" height="1792" xmlns="http://www.w3.org/2000/svg"><path d="M125 931q104-5 176-80.5T373 671q0 104 72 179.5T621 931q-104 5-176 80.5T373 1191q0-104-72-179.5T125 931zm248-768Q575 153 715.5 6.5T856-343q0 203 141 349.5T1340 163q-133 6-244 75.5t-175.5 184T856 671q0-204-140.5-351T373 163zm354 1149q152-7 258-117.5T1091 931q0 153 105.5 263.5T1454 1312q-152 7-257.5 117.5T1091 1693q0-153-106-263.5T727 1312zm727-506q152-7 257-117t105-264q0 153 106 263.5T2180 806q-152 7-258 117t-106 263q0-153-105-263t-257-117z" fill="undefined"/></svg>