<svg width="64" height="64" viewBox="0 0 2054 2054" xmlns="http://www.w3.org/2000/svg"><path d="M0 1156q104-5 176-80.5T248 896q0 104 72 179.5t176 80.5q-104 5-176 80.5T248 1416q0-104-72-179.5T0 1156zm248-768q202-10 342.5-156.5T731-118q0 203 141 349.5T1215 388q-133 6-244 75.5t-175.5 184T731 896q0-204-140.5-351T248 388zm354 1149q152-7 258-117.5T966 1156q0 153 105.5 263.5T1329 1537q-152 7-257.5 117.5T966 1918q0-153-106-263.5T602 1537zm727-506q152-7 257-117t105-264q0 153 106 263.5t258 117.5q-152 7-258 117t-106 263q0-153-105-263t-257-117z"/></svg>