<svg width="2304" height="1792" xmlns="http://www.w3.org/2000/svg"><path d="M46 1009q0 177 105.5 317T425 1517l-69 179q-5 23 15 23h227l-111 403h30l423-557q6-7 2-14.5t-15-7.5H695l264-495q10-22-15-22H630q-15 0-24 15l-115 306q-114-29-188.5-124T228 1009q0-133 90-230.5T542 665l56-8q21 0 21-18l8-55q16-173 145.5-290T1077 177q174 0 304.5 117T1531 584l6 62q0 19 20 19h172q145 0 247.5 101t102.5 243q0 136-95 235.5T1750 1354q-21 0-21 20v146q0 18 21 18 104-3 198.5-47t162.5-114.5 108-167 40-200.5q0-144-71.5-265.5t-193.5-192-265-70.5h-34q-53-213-225-348T1077-2Q851-2 676 138T452 496q-176 41-291 184.5T46 1009zm870 1052q0 25 16.5 49.5T982 2145q22 5 27 5 14 0 40-11 34-15 45-56l30-112q10-35-8.5-67t-56.5-43q-35-10-67.5 8.5T948 1926l-29 107q-3 27-3 28zm143-509q0 23 16.5 46.5t48.5 35.5q36 12 68-5t43-56l32-111q10-35-9-67.5t-57-43.5q-36-10-69 8.5t-44 55.5l-26 108q-3 27-3 29zm301 176q0 27 17.5 54t50.5 37q4 0 12.5 2t12.5 2q21 0 40-8 30-11 44-61l27-108q11-37-6.5-70.5T1504 1531q-40-10-72.5 9t-39.5 57l-29 110q-3 9-3 21zm145-511q-1 25 16 50t52 40q12 6 28 6 17 0 36-9 33-16 47-61l31-110q3-21 3-23 0-27-17.5-52.5T1648 1022q-4 0-12-2t-12-2q-27 0-52 16.5t-35 51.5l-29 108q-3 12-3 23z" fill="undefined"/></svg>