<svg width="1792" height="1792" xmlns="http://www.w3.org/2000/svg"><path d="M553.5 1143q0-86 39.5-160.5T704.5 858V190q0-81 55.5-137T896.5-3t137 56 56 137v668q71 50 110.5 124.5t39.5 160.5q0 143-100 243t-243 100-243-100-100-243zm118 0q0 94 66 160.5t159 66.5q94 0 162-67.5t68-159.5q0-63-33-116.5t-89-83.5l-19-9q-10-4-10-20V190q0-32-22.5-54t-56.5-22q-33 0-56 22t-23 54v724q0 16-9 20l-20 9q-55 30-86 83t-31 117zm52 0q0 72 49 122t119 50 121-50.5 51-121.5q0-64-44-113t-106-57V478q0-6-7-13t-15-7-13.5 6-5.5 14v495q-62 8-105.5 57t-43.5 113z" fill="undefined"/></svg>