<svg width="64" height="64" viewBox="0 0 685 685" xmlns="http://www.w3.org/2000/svg"><path d="M0-1q0-86 39.5-160.5T151-286v-668q0-81 55.5-137t136.5-56 137 56 56 137v668q71 50 110.5 124.5T686-1q0 143-100 243T343 342 100 242 0-1zm118 0q0 94 66 160.5T343 226q94 0 162-67.5T573-1q0-63-33-116.5T451-201l-19-9q-10-4-10-20v-724q0-32-22.5-54t-56.5-22q-33 0-56 22t-23 54v724q0 16-9 20l-20 9q-55 30-86 83T118-1zm52 0q0 72 49 122t119 50 121-50.5T510-1q0-64-44-113t-106-57v-495q0-6-7-13t-15-7-13.5 6-5.5 14v495q-62 8-105.5 57T170-1z"/></svg>