<svg width="64" height="64" viewBox="0 0 1537 1537" xmlns="http://www.w3.org/2000/svg"><path d="M0 477Q0 268 103.5 90.5T384-190t385-103q156 0 298 61t245 164 164 245.5 61 299.5q0 156-61 298.5t-164 245-245 163-298 60.5q-157 0-299.5-61T224 1019 60.5 774.5 0 477zm169 0q0 243 177 422 177 177 423 177 162 0 300-80.5T1288 777t81-300-81-300.5-219-219T769-123 469-42.5t-219 219T169 477zm270 142.5q6-22.5 26-34.5l245-143V22q0-24 16.5-40.5T767-35t40.5 16.5T824 22v455q0 19-11.5 34T784 531L522 683q-12 8-28 8-33 0-49-29-12-20-6-42.5z"/></svg>