<?xml version="1.0" encoding="utf-8"?>
<svg width="1792" height="1792" xmlns="http://www.w3.org/2000/svg"><path d="M128 769q0-209 103.5-386.5T512 102 897-1q156 0 298 61t245 164 164 245.5 61 299.5q0 156-61 298.5t-164 245-245 163-298 60.5q-157 0-299.5-61T352 1311t-163.5-244.5T128 769zm169 0q0 243 177 422 177 177 423 177 162 0 300-80.5t219-218.5 81-300-81-300.5-219-219T897 169t-300 80.5-219 219T297 769zm384-289q6-23 26-34 20-12 43.5-6t34.5 26l53 89V314q0-24 16.5-40.5T895 257t40.5 16.5T952 314v455q0 24-16.5 40.5T895 826q-41 0-54-36L687 523q-12-20-6-43z" fill="undefined"/></svg>