<svg width="2304" height="1792" xmlns="http://www.w3.org/2000/svg"><path d="M79.5 799q0 49 37 82 34 34 83 34h802q53 0 93 39t40 94-40 94.5-93 39.5q-52 0-93-41-39-34-84-34-49 0-82 33t-33 82q0 48 34 81 106 108 258 108 150 0 256.5-106.5t106.5-256.5q0-151-106.5-258.5T1001.5 682h-802q-48 0-84 34.5t-36 82.5zm0-410q0 45 37 78 34 34 83 34h1496q151 0 258-107t107-257T1954-118.5 1695.5-224q-156 0-257 104-32 33-32 83t31.5 81 81.5 31q49 0 85-32 37-37 91-37t92.5 38 38.5 93-39 95-92 40h-1496q-48 0-84 34.5t-36 82.5zm1405 898q0 43 17 84t53 79.5 102.5 62 155.5 23.5q193 0 281-77t88-208q0-58-32.5-106t-84.5-54v-2q69-12 114.5-62t45.5-120q0-49-18-87t-46.5-62-68.5-39.5T2011 697t-85.5-6q-148 0-243 71.5t-117 214.5h217q7-49 40.5-76.5t83.5-27.5q46 0 72.5 19.5t26.5 53.5q0 75-135 75h-50l-31 149h47q109 0 109 75 0 50-36 77t-88 27q-61 0-89-36-27-34-22-95h-221q-5 30-5 69z" fill="undefined"/></svg>