<svg width="64" height="64" viewBox="0 0 2153 2153" xmlns="http://www.w3.org/2000/svg"><path d="M0 1127q0 49 37 82 34 35 83 35h802q53 0 93 38.5t40 92.5q0 55-40.5 95t-92.5 40-93-41q-37-33-84-33-49 0-82 32.5t-33 80.5q0 49 34 82 107 109 258 109 150 0 256.5-107.5T1285 1375t-106.5-257.5T922 1010H120q-48 0-84 34.5T0 1127zm0-411q0 46 37 79 34 34 83 34h1496q151 0 258-106.5T1981 465q0-150-106.5-255T1616 105q-156 0-257 102-32 35-32 84 0 50 31.5 81.5T1440 404q49 0 85-32 39-39 91-39 54 0 92.5 38.5T1747 465q0 56-38.5 95t-92.5 39H120q-48 0-84 34.5T0 716zm1395 911q0 117 91.5 177.5T1733 1865q95 0 168-19t114-47 66.5-66.5 33.5-70.5 8-65q0-66-38-113.5t-100-60.5l2-3v1q72-10 119-63.5t47-126.5q0-61-28-104.5t-76-65.5-98-31.5-108-9.5q-76 0-137 15t-99 39.5-63 57-35 64.5-10 66q0 55 29 96t80 57v3q-90 10-151.5 65.5T1395 1627zm226-24q0-56 45-82t108-26q65 0 94.5 29.5t29.5 63.5v14q0 45-40.5 68t-103.5 23l3-1q-22 0-43-3t-43.5-12-36-28-13.5-46zm81-328q0-51 39.5-74t95.5-23q48 0 81.5 21.5t33.5 67.5q0 12-5 25t-18 28.5-42 25.5-70 10q-64 0-89.5-24.5T1702 1275z"/></svg>