<svg width="64" height="64" viewBox="0 0 1990 1990" xmlns="http://www.w3.org/2000/svg"><path d="M0 966q0 49 37 82 35 35 83 35h807q53 0 93.5 39t40.5 94-40.5 95-93.5 40-94-41q-40-35-83-35-49 0-83 33.5t-34 82.5q0 48 34 82 109 109 260 109t257.5-107.5T1291 1216q0-152-106.5-260T927 848H120q-48 0-84 35T0 966zm0-413q0 46 37 79 34 34 83 34h1505q151 0 258.5-107.5T1991 300 1884 43 1625-63q-155 0-258 104-33 34-33 85 0 50 32 81.5t81 31.5q50 0 86-33 38-38 92-38t93.5 38.5T1758 300t-39.5 95-93.5 40H120q-48 0-84 35T0 553zm1384 1144h263l176-851h-263z"/></svg>