<svg width="64" height="64" viewBox="0 0 2155 2155" xmlns="http://www.w3.org/2000/svg"><path d="M6 1135q0 49 36 82 38 36 84 36h807q53 0 93 38t40 93q0 56-40 96t-93 40-94-41q-37-34-84-34-49 0-82.5 33t-33.5 81q0 49 34 82 109 109 260 109t257.5-107.5T1297 1384t-107-259-257-108H126q-48 0-84 35t-36 83zm0-414q0 48 36 80 34 34 84 34h1505q151 0 258.5-107.5T1997 469t-107-256.5T1631 107q-157 0-258 104-34 35-34 83 0 50 32.5 81.5T1453 407t85-32q38-38 93-38 54 0 93 38.5t39 93.5q0 56-39 96t-93 40H126q-48 0-84 34T6 721zm1389 981h381l-34 165h235l38-165h108l38-203h-107l96-463h-237l-472 444zm240-203l239-236h3l-52 236h-190z"/></svg>