<?xml version="1.0" encoding="utf-8"?>
<svg width="2304" height="1792" xmlns="http://www.w3.org/2000/svg"><path d="M68 803q0 50 37 83 34 34 83 34h802q53 0 93 39t40 94-40 94-93 39q-52 0-93-41-37-33-84-33-49 0-82 32.5t-33 81.5q0 48 34 81 107 109 258 109 150 0 256.5-106.5T1353 1053q0-151-106.5-258.5T990 687H188q-48 0-84 34t-36 82zm0-410q0 46 37 79 33 33 83 33h1496q151 0 258-106.5T2049 142t-106.5-255.5T1684-219q-156 0-257 104-32 33-32 83 0 49 31.5 80.5T1508 80q49 0 85-32 38-38 91-38 54 0 92.5 38.5T1815 142t-38.5 94-92.5 39H188q-48 0-84 35t-36 83zm1439 809q0 153 80 246t244 93q152 0 250.5-92.5T2180 1205q0-103-71-167.5T1933 973q-117 0-183 80h-2q53-186 176-186 39 0 62 15 20 14 25 44h225q-2-50-20.5-90t-47-66-67-43-79.5-24-85-7q-100 0-179 38.5t-124.5 95T1558 958t-40.5 131.5T1507 1202zm219 48q0-59 39-89.5t88-30.5q30 0 51.5 9t32 20.5 16.5 28.5 7 26.5 1 20.5q0 50-34 84t-91 34q-49 0-79.5-28.5T1726 1250z" fill="undefined"/></svg>