<svg width="64" height="64" viewBox="0 0 2133 2133" xmlns="http://www.w3.org/2000/svg"><path d="M0 1107q0 49 37 82 34 35 83 35h802q53 0 93 38.5t40 92.5q0 55-40.5 95t-92.5 40-93-41q-37-33-84-33-49 0-82 32.5t-33 80.5q0 49 34 82 107 109 258 109 150 0 256.5-107.5T1285 1355t-106.5-257.5T922 990H120q-48 0-84 34.5T0 1107zm0-411q0 46 37 79 34 34 83 34h1496q151 0 258-106.5T1981 445q0-150-106.5-255T1616 85q-156 0-257 102-32 35-32 84 0 50 31.5 81.5T1440 384q49 0 85-32 39-39 91-39 54 0 92.5 38.5T1747 445q0 56-38.5 95t-92.5 39H120q-48 0-84 34.5T0 696zm1406 921q3 63 30 109t71.5 71 95.5 36.5 111 11.5q91 0 165.5-34t120.5-86.5 77.5-120.5 44-131.5T2134 1350q0-169-86.5-259.5T1816 1000q-149 0-252 91t-103 239q0 106 67.5 173t173.5 67q57 0 111.5-23t76.5-58h3q-19 76-62 130t-113 54q-46 0-63-11-20-17-26-45h-223zm274-307q0-50 31-86.5t92-36.5q54 0 82.5 27.5t28.5 81.5q0 15-6 33t-19 38-39 33-60 13-57.5-12-34-30.5-14.5-33.5-4-27z"/></svg>