<?xml version="1.0" encoding="utf-8"?>
<svg width="2304" height="1792" xmlns="http://www.w3.org/2000/svg"><path d="M72.5 803q0 50 36 83 35 34 84 34h802q53 0 93.5 38t40.5 93-40.5 95-93.5 40q-52 0-93-41-38-33-83-33-49 0-82.5 32.5t-33.5 80.5q0 49 33 82 109 109 259 109 151 0 257-107t106-258q0-150-106.5-257.5T994.5 686h-802q-49 0-84.5 34.5T72.5 803zm0-411q0 47 36 80t84 33h1495q151 0 258-106.5t107-256.5q0-151-106.5-256t-258.5-105q-154 0-256 102-32 35-32 85 0 49 31.5 80.5t80.5 31.5q50 0 86-33 37-37 90-37 54 0 94 38.5t40 93.5-40 94-94 39h-1495q-49 0-84.5 34.5T72.5 392zm1428 829q0 83 26 146.5t70 100.5 97 55 112 18q82 0 150-27.5t111.5-74 75.5-101.5 48.5-115.5 24-110 7.5-91.5q0-155-85.5-240t-226.5-85q-79 0-152.5 37.5t-131 104-92 166.5-34.5 217zm219 6q0-24 4.5-61.5t17.5-89T1774 982t55-73.5 79.5-30.5 69 28 25 84q0 154-53 261.5t-131 107.5q-99 0-99-132z" fill="undefined"/></svg>