<?xml version="1.0" encoding="utf-8"?>
<svg width="2304" height="1792" xmlns="http://www.w3.org/2000/svg"><path d="M58.5 809q0 49 37 82 36 36 83 36h807q54 0 94 38.5t40 93.5-40.5 95-93.5 40-94-41q-37-33-83-33-50 0-83.5 32.5t-33.5 81.5q0 50 34 83 108 108 260 108 151 0 257.5-107.5t106.5-258.5-107-259.5-257-108.5h-807q-48 0-84 35t-36 83zm0-412q0 45 37 78 35 35 83 35h1505q151 0 258.5-107.5T2049.5 144t-107-257-259-106q-156 0-258 105-33 33-33 83t32 81.5 81 31.5q50 0 86-32 38-39 92-39t93.5 38.5 39.5 94.5q0 55-39.5 95t-93.5 40h-1505q-48 0-84 35t-36 83zm1504 1144h263q42-207 148.5-370.5T2204.5 910l41-199h-636l-44 202h372q-316 318-375 628z" fill="undefined"/></svg>