<svg width="2304" height="1792" xmlns="http://www.w3.org/2000/svg"><path d="M75.5 803q0 49 37 82 34 35 83 35h802q53 0 93 38.5t40 92.5q0 55-40.5 95t-92.5 40-93-41q-37-33-84-33-49 0-82 32.5t-33 80.5q0 49 34 82 107 109 258 109 150 0 256.5-107.5t106.5-257.5T1254 793.5 997.5 686h-802q-48 0-84 34.5t-36 82.5zm0-411q0 46 37 79 34 34 83 34h1496q151 0 258-106.5t107-257.5q0-150-106.5-255t-258.5-105q-156 0-257 102-32 35-32 84 0 50 31.5 81.5t81.5 31.5q49 0 85-32 39-39 91-39 54 0 92.5 38.5t38.5 93.5q0 56-38.5 95t-92.5 39h-1496q-48 0-84 34.5t-36 82.5zm1395 911q0 117 91.5 177.5t246.5 60.5q95 0 168-19t114-47 66.5-66.5 33.5-70.5 8-65q0-66-38-113.5t-100-60.5l2-3v1q72-10 119-63.5t47-126.5q0-61-28-104.5t-76-65.5-98-31.5-108-9.5q-76 0-137 15t-99 39.5-63 57-35 64.5-10 66q0 55 29 96t80 57v3q-90 10-151.5 65.5t-61.5 143.5zm226-24q0-56 45-82t108-26q65 0 94.5 29.5t29.5 63.5v14q0 45-40.5 68t-103.5 23l3-1q-22 0-43-3t-43.5-12-36-28-13.5-46zm81-328q0-51 39.5-74t95.5-23q48 0 81.5 21.5t33.5 67.5q0 12-5 25t-18 28.5-42 25.5-70 10q-64 0-89.5-24.5t-25.5-56.5z" fill="undefined"/></svg>