<svg width="64" height="64" viewBox="0 0 2563 2563" xmlns="http://www.w3.org/2000/svg"><path d="M0 1543q0 49 37 82 36 36 83 36h807q54 0 94 38.5t40 93.5-40.5 95-93.5 40-94-41q-37-33-83-33-50 0-83.5 32.5T633 1968q0 50 34 83 108 108 260 108 151 0 257.5-107.5T1291 1793t-107-259.5T927 1425H120q-48 0-84 35t-36 83zm0-412q0 45 37 78 35 35 83 35h1505q151 0 258.5-107.5T1991 878t-107-257-259-106q-156 0-258 105-33 33-33 83t32 81.5 81 31.5q50 0 86-32 38-39 92-39t93.5 38.5T1758 878q0 55-39.5 95t-93.5 40H120q-48 0-84 35t-36 83zm1384 1144h263l176-852h-263zm379 0h706l43-203h-391v-2q32-15 92-39t101-41 92-47 82-61.5 53-80 22-106.5q0-89-46-149t-115-85-155-25q-155 0-253 83.5T1877 1766h221q0-60 35-101t99-41q48 0 71.5 25.5t23.5 58.5q0 52-35 81t-133 77l-3 1.5-3 1-3 1.5q-142 68-176 88-127 76-176 186-26 58-35 131z"/></svg>