<?xml version="1.0" encoding="utf-8"?>
<svg width="2304" height="1792" xmlns="http://www.w3.org/2000/svg"><path d="M-120.5 803q0 49 37 82 34 35 83 35h802q53 0 93 38.5t40 92.5q0 55-40.5 95t-92.5 40-93-41q-37-33-84-33-49 0-82 32.5t-33 80.5q0 49 34 82 107 109 258 109 150 0 256.5-107.5t106.5-257.5T1058 793.5 801.5 686H-.5q-48 0-84 34.5t-36 82.5zm0-411q0 46 37 79 34 34 83 34h1496q151 0 258-106.5t107-257.5q0-150-106.5-255t-258.5-105q-156 0-257 102-32 35-32 84 0 50 31.5 81.5t81.5 31.5q49 0 85-32 39-39 91-39 54 0 92.5 38.5t38.5 93.5q0 56-38.5 95t-92.5 39H-.5q-48 0-84 34.5t-36 82.5zm1376 1138h262l175-847h-261zm447-311q0 83 26 147t70 101 96.5 55.5 111.5 18.5q98 0 175-40t121-99 73-133.5 39-135 10-112.5q0-155-85-240t-227-85q-165 0-287.5 146t-122.5 377zm219 10q0-25 4.5-62.5t17.5-89.5 32.5-95.5 55-74 79.5-30.5q43 0 69 29t26 84q0 154-53.5 261.5T2020.5 1359q-99 0-99-130z" fill="undefined"/></svg>