<?xml version="1.0" encoding="utf-8"?>
<svg width="2304" height="1792" xmlns="http://www.w3.org/2000/svg"><path d="M85.5 803q0 49 37 82 34 35 83 35h802q53 0 93 38.5t40 92.5q0 55-40.5 95t-92.5 40-93-41q-37-33-84-33-49 0-82 32.5t-33 80.5q0 49 34 82 107 109 258 109 150 0 256.5-107.5t106.5-257.5T1264 793.5 1007.5 686h-802q-48 0-84 34.5t-36 82.5zm0-411q0 46 37 79 34 34 83 34h1496q151 0 258-106.5t107-257.5q0-150-106.5-255t-258.5-105q-156 0-257 102-32 35-32 84 0 50 31.5 81.5t81.5 31.5q49 0 85-32 39-39 91-39 54 0 92.5 38.5t38.5 93.5q0 56-38.5 95t-92.5 39h-1496q-48 0-84 34.5t-36 82.5zm1406 921q3 63 30 109t71.5 71 95.5 36.5 111 11.5q91 0 165.5-34t120.5-86.5T2163 1300t44-131.5 12.5-122.5q0-169-86.5-259.5T1901.5 696q-149 0-252 91t-103 239q0 106 67.5 173t173.5 67q57 0 111.5-23t76.5-58h3q-19 76-62 130t-113 54q-46 0-63-11-20-17-26-45h-223zm274-307q0-50 31-86.5t92-36.5q54 0 82.5 27.5t28.5 81.5q0 15-6 33t-19 38-39 33-60 13-57.5-12-34-30.5-14.5-33.5-4-27z" fill="undefined"/></svg>