<svg width="64" height="64" viewBox="0 0 2545 2545" xmlns="http://www.w3.org/2000/svg"><path d="M0 1519q0 49 37 82 34 35 83 35h802q53 0 93 38.5t40 92.5q0 55-40.5 95t-92.5 40-93-41q-37-33-84-33-49 0-82 32.5t-33 80.5q0 49 34 82 107 109 258 109 150 0 256.5-107.5T1285 1767t-106.5-257.5T922 1402H120q-48 0-84 34.5T0 1519zm0-411q0 46 37 79 34 34 83 34h1496q151 0 258-106.5T1981 857q0-150-106.5-255T1616 497q-156 0-257 102-32 35-32 84 0 50 31.5 81.5T1440 796q49 0 85-32 39-39 91-39 54 0 92.5 38.5T1747 857q0 56-38.5 95t-92.5 39H120q-48 0-84 34.5T0 1108zm1376 1138h262l175-847h-261zm447-311q0 83 26 147t70 101 96.5 55.5T2127 2257q98 0 175-40t121-99 73-133.5 39-135 10-112.5q0-155-85-240t-227-85q-165 0-287.5 146T1823 1935zm219 10q0-25 4.5-62.5t17.5-89.5 32.5-95.5 55-74 79.5-30.5q43 0 69 29t26 84q0 154-53.5 261.5T2141 2075q-99 0-99-130z"/></svg>