<?xml version="1.0" encoding="utf-8"?>
<svg width="2304" height="1792" xmlns="http://www.w3.org/2000/svg"><path d="M73 805q0 48 37 81 34 35 83 35h802q53 0 93.5 39t40.5 93q0 55-40.5 94.5T995 1187q-52 0-93-41-36-33-83-33-49 0-82.5 32.5T703 1226q0 49 34 83 108 108 258 108 151 0 257.5-107t106.5-257-107-258-257-108H193q-48 0-84 35t-36 83zm0-412q0 46 37 79 34 34 83 34h1497q151 0 258-107t107-257-106.5-255.5T1690-219q-156 0-257 104-32 33-32 83t31.5 81 80.5 31q50 0 85-32 38-38 92-38 53 0 92.5 38.5T1822 142t-39.5 95-92.5 40H193q-48 0-84 34t-36 82zm1403 879q-4 51 12.5 97.5t53 86 104 63T1804 1542q92 0 163.5-24.5T2079 1457t65.5-84 34-87.5 8.5-78.5q0-107-68.5-172T1942 970q-111 0-155 46h-2l37-109h368l42-201h-559l-155 476h213q26-54 118-54 51 0 82 26.5t31 79.5q0 54-37 87t-107 33q-50 0-78-18-34-18-38-64h-226z" fill="undefined"/></svg>