<?xml version="1.0" encoding="utf-8"?>
<svg width="2304" height="1792" xmlns="http://www.w3.org/2000/svg"><path d="M69.5 805q0 49 37 82 35 35 83 35h807q53 0 93.5 39t40.5 94-40.5 95-93.5 40-94-41q-40-35-83-35-49 0-83 33.5t-34 82.5q0 48 34 82 109 109 260 109t257.5-107.5 106.5-258.5q0-152-106.5-260T996.5 687h-807q-48 0-84 35t-36 83zm0-413q0 46 37 79 34 34 83 34h1505q151 0 258.5-107.5T2060.5 139t-107-257-259-106q-155 0-258 104-33 34-33 85 0 50 32 81.5t81 31.5q50 0 86-33 38-38 92-38t93.5 38.5 39.5 93.5-39.5 95-93.5 40h-1505q-48 0-84 35t-36 83zm1366 1144h706l43-202h-392v-3q32-15 92-39t101.5-41 92.5-47 82-61 53-79.5 22-106.5q0-89-46-149.5t-115-86-155-25.5q-155 0-253.5 83.5T1548.5 1026h223q0-59 34.5-100t97.5-41q48 0 72 25.5t24 57.5q0 19-3.5 34.5t-16.5 30-22.5 23.5-36.5 24-42.5 23-56.5 27q-141 69-175 89-128 77-177 190-25 56-34 127z" fill="undefined"/></svg>