<svg width="64" height="64" viewBox="0 0 1000 1000" xmlns="http://www.w3.org/2000/svg"><path d="M847 154H153C69 154 0 223 0 308v384c0 85 69 154 153 154h694c84 0 153-69 153-154V308c0-85-69-154-153-154zM231 538h-60v-16l28-22c2-1 3-2 4-3 1 0 1-1 1-1 4-3 5-6 5-9 0-4-3-7-7-8h-1-2c-4 1-8 4-13 10l-14-12c4-6 9-10 14-13 1 0 2-1 3-1 4-1 8-2 13-2 17 0 28 10 28 24 0 12-6 19-17 27l-13 9h31v17zm57-1h-2c-3 1-7 2-12 2-21 0-39-16-39-39 0-22 17-39 40-39 3 0 6 0 9 1 10 2 18 7 23 15l-16 12c-4-5-8-8-13-9h-7s-1 1-2 1c-5 2-9 6-11 11v3l-1 2v3c0 11 7 20 18 20 4 0 7-1 10-3s4-3 7-6l3 2 12 9c-1 2-3 4-5 6l-1 1c-4 3-8 6-12 7l-1 1zm93 1h-21v-29h-26v29h-21v-76h21v29h26v-29h21v76zm71-58h-40v12h36v16h-36v12h40v18h-61v-76h61v18zm56 57c-4 1-8 2-12 2-22 0-39-16-39-39 0-22 17-39 39-39 5 0 9 1 13 2 8 2 14 7 19 14l-16 12c-3-4-6-7-10-8h-1l-1-1h-4c-2 0-4 0-6 1 0 0-1 0-1 1-2 1-4 2-5 3s-1 2-2 2c0 1-1 2-1 3-2 3-3 6-3 10 0 11 8 20 18 20 6 0 11-2 14-6l1-1 1-1 1-1 16 11c-5 7-12 13-21 15zm73 1l-18-28-8 8v20h-21v-76h21v31l26-31h25l-29 33 29 43h-25zm100-38c0 21-17 39-40 39s-40-17-40-39 17-39 40-39 40 17 40 39zm77 4c0 24-14 35-35 35s-35-11-35-34v-43h21v42c0 11 6 16 14 16s14-5 14-15v-43h21v42zm71-23h-23v57h-21v-57h-22v-19h66v19zm-169 19c0 11-7 20-19 20-11 0-19-9-19-20s8-20 19-20 19 9 19 20z"/></svg>