<svg width="64" height="64" viewBox="0 0 1000 1000" xmlns="http://www.w3.org/2000/svg"><path d="M559 724V214H441v511h30v-11c0-16 0-33 1-50 1-21 21-34 39-26 12 5 18 15 18 28v58h30zm-87-481h56v57h-56v-57zm56 326h-56v-57h56v57zm0-134h-56v-57h56v57zM296 725h113V352H296v373zm28-347h57v57h-57v-57zm0 134h57v57h-57v-57zm267-161v375h114v-8-3-357c0-2-1-4-1-7H591zm28 27h57v57h-57v-57zm57 191h-56v-57h56v57zM152 725h113V487H152v238zm28-213h57v57h-57v-57zm556 213h112V487H736v238zm27-213h58v57h-58v-57zM149 744v124h702V744H149zm249 102h-17v-38h-34v38h-17v-82h17v28h34v-28h17v82zm95-24c-1 2-2 5-4 7-5 7-12 13-20 16-5 2-11 3-17 3h-8c-6-2-12-4-16-7-2-1-5-3-7-5-4-4-7-9-9-14-3-5-4-11-4-17 0-1 0-3 1-4 0-7 3-14 7-20 3-5 7-9 12-12 7-5 15-7 24-7s18 2 25 7c5 3 9 7 12 12 5 7 7 15 7 24 0 6-1 11-3 17zm43-43v67h-17v-67h-21l3-15h52l4 15h-21zm79 0h-31v15h31v16h-31v20h31v16h-49v-82h49v15zm55 67h-45v-82h17v66h28v16zm-208-66c-3-1-6-2-10-2-3 0-6 1-10 2 0 0-1 1-2 1-1 1-2 1-3 2-1 0-2 1-3 3-2 1-3 2-4 4-1 1-2 3-2 5-1 3-2 6-2 10v3c0 4 2 8 4 12 3 4 7 8 12 10 4 1 7 2 10 2 5 0 10-1 15-5 7-5 11-12 11-22 0-4 0-7-2-10-2-7-7-12-14-15zM149 888h702v50H149v-50zm308-696l43-22 42 22-8-47 34-33-47-7-22-43-21 43-47 7 34 33-8 47zM317 331l36-19 35 19-6-40 29-29-40-6-18-36-18 36-40 6 29 29-7 40zm295 0l36-19 36 19-7-40 29-29-40-6-18-36-18 36-40 6 29 29-7 40zM172 462l36-19 36 19-7-40 29-28-40-6-18-36-18 36-40 6 29 28-7 40zm582 0l36-19 36 19-7-40 29-28-40-6-18-36-18 36-40 6 29 28-7 40z"/></svg>