<svg width="64" height="64" viewBox="0 0 1000 1000" xmlns="http://www.w3.org/2000/svg"><path d="M999 504c0-23-13-35-36-38-76-8-152-16-227-25-24-3-31 5-32 29-2 35-24 54-61 54h-63c20 11 40 15 61 17 70 7 140 14 211 23 54 6 63 18 63 72v248c32-31 79-53 82-97 6-94 2-188 2-283zm-857 60c47-4 94-8 141-15 46-7 95-5 140-21-6-3-11-4-16-3-56 7-100-6-117-67-6-20-22-17-37-15-67 7-133 17-199 21-40 3-52 21-52 59 2 68 7 136-1 204-8 73 34 114 86 166 0-96 1-181 0-265 0-38 15-60 55-64zm161-135V282c0-146-16-151 146-149 70 2 140 1 217 1-21-31-19-71-67-70-91 2-183 2-274 1-35-1-47 16-47 48v262c0 19 2 37 25 54zm336 79c35 1 50-16 50-51V199c0-32-16-49-48-49H366c-31 0-47 14-48 45v267c1 32 17 47 50 46 45-1 89 0 133 0 46 0 92-1 138 0zm-257-12c-33 0-51-19-51-53V218c0-36 18-54 54-54h237c34 0 52 16 52 50v230c1 35-19 52-51 52-80 2-161 2-241 0zm40 54c-91 10-182 20-273 29-32 3-47 18-46 51 1 86 0 172 0 258 0 36 15 51 51 47 92-10 185-18 277-28 28-3 42-18 42-47-1-43 0-86 0-129 0-44-1-89 0-133 0-36-16-52-51-48zm38 287c1 38-17 57-53 61-79 8-157 17-236 24-35 4-56-15-56-51-1-76-1-152 0-228 0-29 12-49 43-52 81-9 162-18 243-25 44-4 57 11 59 55 1 36 0 72 0 108s-1 72 0 109zm439-80c0-43-1-86 0-129 1-28-9-45-39-48l-285-30c-30-3-45 11-45 41v275c0 26 15 38 38 41 94 10 188 18 282 28 36 4 50-13 49-49-1-43 0-86 0-129zm-11 108c-2 45-24 61-68 56-70-8-140-15-210-21-55-5-69-19-69-73 0-66-1-133 0-199 0-50 17-66 66-62 78 7 157 16 235 24 33 4 45 25 46 55 1 37 0 74 0 112 0 36 1 72 0 108zM658 440V220c1-28-12-41-39-40H390c-29-1-43 10-43 41 1 72 1 144 0 216 0 31 13 44 42 44h229c27 0 40-13 40-41zm-49 20c-22 0-44 1-66-1-13 0-32 8-35-11-2-16-13-37 10-48 9-4 9-8 7-16-3-9-5-19-18-17-19 2-40-9-55 8-7 9-3 17 5 28 23 32 8 56-32 57-11 0-22 0-33-1-12 0-29 6-32-10-4-17-10-37 6-51 37-34 37-84 55-126 6-16-18-30-16-52 2-23 8-32 31-30 22 1 45 0 67 0h54c40 0 57 27 34 60-11 17-9 27-2 40 18 37 18 82 53 113 23 21 0 56-33 57zM403 581c-79 9-157 17-236 25-28 2-37 18-36 45v216c0 31 15 42 45 39 76-8 151-16 227-23 27-3 41-15 41-43 1-73 1-147 0-220 0-27-12-42-41-39zm37 203c-7 37-33 62-69 71-67 18-137 23-205 30-8 1-19 4-20-8-3-17-8-35 5-52 19-26 20-117 2-141-22-29-11-61 24-65 57-8 115-14 173-19 32-3 62 3 75 38 13 34-7 55-34 77 29 18 55 36 49 69zm390-179c-75-7-151-15-227-23-33-4-46 10-46 42 0 71 1 142 0 212 0 29 13 44 42 47 75 7 151 15 227 23 30 3 45-9 46-39V759c0-35-1-70 0-105 1-30-9-46-42-49zm12 229c-3 9-11 16-18 23-41 36-135 35-192-1-51-33-77-98-61-156 21-71 89-105 166-81 21 7 38 12 61 7 43-9 49 0 50 53-4 12 9 37-9 41-22 5-50 8-68-17-14-19-31-33-56-23-24 9-27 31-26 52 0 18 1 36 5 54 4 20 19 33 41 35 20 2 35-8 42-27 19-46 44-7 63-2 32 8 8 28 2 42zM465 330c16 2 36 10 39-4 4-18-3-39-19-56-7 20-13 38-20 60zM299 759c-20 0-37 4-34 22 2 20-1 36 19 32 20-5 45-4 45-33 0-18-14-22-30-21zm-14-47c17-4 38-3 38-31-1-19-16-16-30-16-16 0-30 2-27 24 1 13-1 27 19 23z"/></svg>