<svg width="64" height="64" viewBox="0 0 1000 1000" xmlns="http://www.w3.org/2000/svg"><path d="M678 162c-10-34-23-67-45-98 0 3-1 4-1 6 6 56-4 111-20 165-40 130-111 245-191 356-57 80-120 156-187 230-4 4-7 12-6 17 17 64 59 113 107 160 4-5 7-10 9-14 37-58 74-116 109-175 72-120 142-241 199-368 40-91 54-184 26-279zm88 657c-30-33-60-67-89-101-29-35-56-70-85-106-25 47-49 93-73 139-2 4-1 9 1 12 47 78 95 156 144 237 12-12 22-22 31-32 34-39 64-79 77-128 2-9 0-14-6-21zM407 569c2 0 4 0 7-1 22-35 44-70 67-104 6-8 5-14 1-22-27-54-55-108-78-163-28-68-43-139-37-216-3 5-4 6-5 7-55 94-72 194-39 297 22 69 56 135 84 202zm203-435c6-31 3-61-3-90-1-6-5-12-10-16C544-6 488-7 429 14c-23 8-42 20-39 48 0 1-1 3-1 5v68c75-53 147-52 221-1z"/></svg>