<svg width="64" height="64" viewBox="0 0 1000 1000" xmlns="http://www.w3.org/2000/svg"><path d="M921 316l-28-30c-46 44-120 43-164-4-44-46-42-119 5-164l-28-29c-23-24-62-25-86-2L81 599c-24 23-25 61-2 85l28 30c46-44 120-42 164 4s42 120-4 164l28 29c22 24 61 25 85 2l539-512c24-23 25-61 2-85zm-368-23c5-5 12-5 17 0l140 148c5 5 5 12 0 17-5 4-13 4-17-1L552 310c-4-5-4-13 1-17zM407 445h17c6 0 9 3 12 7l45 69 12 18c-11-4-22-7-32-11-15-5-31-11-46-16-3-1-4-2-4-5-3-18-7-36-10-54-1-5 1-8 6-8zm208 206c-2 5-6 7-12 7-10 1-21-2-31-5-32-11-64-23-97-35-3-1-5-1-8 0l-127 50c-4 2-8 2-13 0-5-3-11-6-17-9-5-2-6-6-1-10l69-60c2-1 4-2 5-4-14-7-28-14-41-22-20-11-41-23-61-35-4-3-9-6-12-10-4-5-7-10-4-16 3-7 8-9 15-9 2 0 3-1 3-3 0-14 0-28 1-42 0-6 2-7 7-5 20 8 15 4 25 23 5 11 10 22 16 33 0 1 1 3 3 3 36 9 72 21 107 34 39 13 78 27 117 41 20 7 36 19 47 38 1 1 3 2 2 3s-3 1-4 1c-7 0-14-2-20-4-4-1-5-1-6 3 0 5 2 9 7 11 9 3 18 6 27 5 2-1 3 0 3 2 1 5 1 10 0 15zm97-115c-4 5-12 5-17 0L474 303c-4-4-4-12 1-17 5-4 12-4 17 1l221 232c4 5 4 13-1 17z"/></svg>