<svg width="64" height="64" viewBox="0 0 1000 1000" xmlns="http://www.w3.org/2000/svg"><path d="M893 756c0-2-3-5-5-7-19-15-39-29-57-46-38-38-63-83-67-139-2-38-2-76-4-114-2-46-8-92-21-136-27-89-78-152-168-174-2-1-5-6-5-9-1-34-24-62-56-68-31-5-61 15-71 47-2 4-3 9-3 14-1 8-4 15-5 16-1 0-2 0-3 1-63 16-110 53-141 113-20 38-32 78-38 121-9 55-11 110-11 166 1 46-12 88-38 126-23 33-52 60-85 81-3 2-7 5-7 8-1 22-1 43-1 65h787c0-22 0-43-1-65zM625 863H376c-8 0-11 6-8 13l22 48c3 7 12 14 20 14h182c7 0 16-6 20-14l21-48c3-7-1-13-8-13z"/></svg>