<svg width="64" height="64" viewBox="0 0 1000 1000" xmlns="http://www.w3.org/2000/svg"><path d="M147 497c-1-2-2-4-4-6-6-8-9-16-8-26v-32c-1-14 0-27-1-40-1-10-4-20-12-27-9-9-20-13-32-15s-24-2-36 1c-11 2-21 6-30 12-10 8-15 19-18 31-2 6 2 8 6 9 9 1 17 1 26 3 4 0 7-3 7-6 1-5 4-10 8-13 7-5 14-6 21-5 9 1 16 8 17 17v15c0 2 0 2-2 2-11 2-23 3-34 5-10 1-20 4-30 10S7 447 3 460l-3 12v13c0 1 1 1 1 2 0 5 2 10 4 15 4 10 11 17 21 21 8 3 16 4 24 3 15 0 27-4 38-13 3-3 6-6 10-9 0 1 0 1 1 2 4 6 9 12 15 17 3 3 6 3 9 0l23-19c2-2 3-4 1-7zm-56-45c0 7 0 15-2 21-3 10-8 17-17 21-10 4-22 0-25-12-3-8-2-16 2-24 3-5 7-9 13-12 8-3 15-4 24-4h3c2-1 2 0 2 2v8zm86 72h30c1 0 2 0 4-1s2-3 2-6v-90c0-6 1-12 2-18 1-10 7-17 17-18 8-1 15 1 18 9 2 4 3 8 3 12 1 7 1 14 1 20v85c0 5 1 7 7 7h28c5 0 7-2 7-7v-90c0-5 1-11 1-16 1-7 4-13 11-17 7-5 18-4 23 2 4 3 5 8 5 13v108c0 5 2 7 7 7h29c5 0 7-2 7-7v-98-15c0-7-1-13-2-20-2-12-9-21-20-27-10-5-20-7-31-5s-21 8-27 17c-3 3-5 7-7 11-7-18-20-29-40-29-20 1-33 11-40 29h-1v-19c0-4-2-6-7-6h-27c-4 0-6 2-6 7v156c0 4 2 6 6 6zm255-1c8 3 15 3 23 3 15 0 27-4 38-13 4-3 7-6 10-9 1 1 1 1 1 2 4 6 9 12 15 17 3 3 7 3 10 0l23-19c2-2 2-4 1-6-1-3-3-5-4-7-6-8-9-16-9-26v-59c0-6-1-13-2-20-2-11-8-20-17-26-9-5-18-8-27-9-17-3-33-1-48 4-9 4-17 9-23 16s-10 15-12 24c-1 5 1 8 7 9 8 0 17 1 25 2 5 1 7-2 8-6 1-5 3-9 7-12 7-5 14-7 22-5 7 1 12 4 15 11s2 14 2 22l-1 1c-6 0-11 1-16 2-9 1-17 2-26 3-9 2-18 6-26 12-11 8-18 18-21 32-2 12-2 24 3 36 5 10 12 17 22 21zm22-64c3-6 8-10 14-13 7-3 15-4 23-4h1c5 0 5 0 5 5v5c0 7 0 14-2 22-3 8-8 16-16 19-13 6-26 0-28-16 0-6 0-12 3-18zm546-43c0-10 0-20-2-30s-6-19-15-26-20-10-32-8c-5 0-9 1-14 3-9 3-14 10-19 19-2 3-3 6-4 9h-1v-22c0-4-2-6-6-6h-28c-4 0-6 2-6 6v156c0 5 2 7 7 7h28c5 0 7-2 7-7v-83c0-5 1-11 1-16 1-7 3-14 7-20 5-7 13-10 22-7 5 2 8 6 10 11 2 6 2 12 3 18v97c0 5 1 7 7 7h28c5 0 7-2 7-8V416zm-164-32c-5-9-12-16-20-22-13-9-27-12-42-11-9 1-17 3-25 7-15 8-24 20-31 35-6 14-8 29-9 44 0 15 2 29 7 43 4 12 10 22 18 30 13 12 28 17 47 17 9 1 19-2 29-7s18-14 25-24c7-11 12-25 14-38 1-9 1-18 0-28-1-16-5-32-13-46zm-32 69c0 8-1 16-4 23-2 7-5 12-11 16-8 5-19 3-24-5-5-6-7-13-8-20-1-4-1-7-1-11-1-6-1-13-1-20h-1l3-27c1-6 3-11 6-16 5-9 14-11 23-9 8 3 12 8 14 16s3 15 4 23v30zM623 575c-3-2-5-3-8-2-4 1-8 2-13 4s-8 3-12 5c-5 1-9 2-13 4l-10 3c-3 2-7 2-10 4-4 1-8 2-13 3-3 1-6 2-10 3-3 0-7 2-10 2-4 1-8 2-11 2-7 2-14 3-21 4-2 1-3 2-5 2-4 0-7 0-11 1-10 0-20 1-30 2-6 1-13 1-20 1-20 1-41 1-62-1-8-1-16-2-25-3s-18-3-27-5c-4 0-7-1-11-1l-9-3-12-2c-1 0-1-1-2-1-1-1-2-1-4-2l-9-2c-4-1-8-2-13-3-2-1-5-2-8-3l-4-2c-3-1-7-2-10-3s-6-2-8-3l-11-5c-2 0-3 0-4-1-3-1-6-2-8-3s-3-1-4-2c-3-1-6-3-9-5-6-3-12-5-18-8-5-3-9-5-13-8-3-1-5-3-7-4-3-1-6 0-6 4 0 1 0 2 1 3 3 2 6 5 8 7l4 3c5 4 9 7 13 10 3 2 5 4 8 6s5 4 7 6c6 3 11 7 17 11 4 2 8 4 11 6 5 4 10 5 14 8 6 4 13 6 20 9 4 3 9 4 14 6 4 2 8 3 12 4l1 1c2 1 3 2 5 2 3 1 7 2 10 3s7 2 10 4c2 0 5 1 8 1 2 1 4 1 7 2 1 1 2 1 4 1s4 1 6 2c4 0 8 1 11 2 4 0 8 1 11 1 8 2 16 3 24 3 8 1 16 2 24 2h24c6 0 12-1 17-1 3-1 5 0 8-1 5 0 11-1 16-2l12-1c4-1 7-1 11-2 1 0 2-2 3-1 2 0 4-1 7-1 5-1 11-3 17-4 3-1 5-2 8-3 5-1 10-2 14-4 8-2 15-5 23-8 3-1 5-2 8-3 4-2 9-4 13-6l3-2c2-1 4-1 6-3 6-3 11-6 17-9 2-1 3-2 5-3 4-2 8-5 12-8 2-2 4-3 6-5s2-7 1-8zm66-94c-13-7-28-11-43-12h-14v-1s0-1 1-2l23-33c10-15 21-29 31-44 3-4 5-9 5-15-1-4 0-8 0-13s-3-7-8-7h-99c-5 0-7 2-7 7v20c0 4 2 7 7 7h52l-1 2-23 33c-11 16-22 32-34 48-4 5-7 11-7 18 1 7 0 14 0 20v6c1 4 5 6 9 4 8-4 16-7 24-9 11-3 21-4 32-3 8 0 16 1 24 3 9 2 17 5 25 9 4 2 8 0 8-5 1-8 1-16 0-24 0-4-1-7-5-9zm-22 57l-9-3c-10-2-20-3-31-2-3 0-6 0-10 1-5 1-10 1-15 3-5 1-9 3-14 5-1 0-2 1-1 2-2-1-3-1-5 0-2 2-5 4-8 6 0 1-1 2-1 4h11c10-1 20-3 29-2h20c6 1 11 2 14 7v2c0 4 1 8 0 13-2 7-3 15-6 22-1 2 0 4-1 6-2 2-3 6-4 9l-3 9c0 1-1 1-1 1-1 1-2 2-2 3 0 2 1 3 1 4 1 0 3 0 4-1 2-1 3-3 5-4 3-3 6-6 8-9l6-9c3-4 5-9 7-13s3-8 4-12c0-1 1-3 2-4 2-11 5-21 4-32-1-3-2-5-4-6zm-36-5h5-5z"/></svg>