<svg width="64" height="64" viewBox="0 0 1000 1000" xmlns="http://www.w3.org/2000/svg"><path d="M847 154H153C69 154 0 223 0 308v384c0 85 69 154 153 154h694c84 0 153-69 153-154V308c0-85-69-154-153-154zM440 478c2-8 6-15 14-20 5-4 11-6 17-8 5-1 11-1 16-2l10-1 1-1c0-5 1-9-1-14-2-4-5-6-10-7s-9 0-14 3c-2 2-4 5-4 8-1 3-3 4-6 4-5-1-10-1-16-2-3 0-5-2-4-6 2-5 4-10 8-15 4-4 9-8 14-10 10-4 21-4 31-3 6 1 12 3 17 6 6 4 11 10 12 17 0 4 1 8 1 13v38c0 6 2 11 5 16 1 1 2 3 3 4 1 2 1 3-1 4-5 4-9 9-14 13-2 2-5 2-6 0-4-3-7-7-10-11 0-1-1-1-1-2l-6 6c-7 6-15 9-25 9-5 0-10-1-14-3-7-2-12-7-14-13-4-7-4-15-3-23zm-147-71h17c3 0 4 1 4 4v12h1c4-12 13-18 26-19 13 0 21 7 26 19 1-3 2-5 4-7 4-6 10-10 17-11s14 0 20 3c8 4 12 10 13 18 1 4 1 8 1 12v73c0 3-1 4-4 4h-19c-3 0-4-1-4-4v-54-16c0-3-1-6-3-8-4-4-11-4-15-1-5 2-7 6-7 11-1 3-1 7-1 10v58c0 3-1 4-4 4h-19c-3 0-4-1-4-4v-55-13c-1-2-1-5-2-7-3-5-7-7-12-6-7 0-10 5-11 11-1 4-1 8-1 12v58c0 1 0 3-2 4h-21c-3 0-4-1-4-4V411c-1-3 1-4 4-4zm-41 108c-4-3-7-7-10-11v-1c-2 1-4 3-6 5-7 6-15 9-25 9-5 0-10 0-15-2-6-3-11-8-14-14l-3-9v-10c1-3 1-5 2-8 2-8 7-14 14-18 6-4 13-6 19-6 8-2 15-2 22-3 1 0 2-1 2-2 0-3 0-6-1-10 0-5-4-9-10-10-5-1-10 0-14 3-3 2-4 5-5 8 0 2-2 4-5 4-5-1-11-1-16-2-3 0-5-2-4-5 2-8 5-15 12-20 5-4 12-7 19-8 7-2 15-2 23-1 8 2 15 4 20 10 5 5 8 11 8 17v26c1 7 1 14 0 21 0 6 2 11 6 16 1 2 2 3 3 4 1 2 0 3-1 4l-15 13c-2 2-4 2-6 0zm326 38c-1 1-2 2-4 3-2 2-5 4-7 6l-3 1-11 6c-1 1-3 1-4 2l-2 1c-3 1-6 3-9 4-1 1-3 1-5 2-4 2-9 4-14 5l-9 3-5 2c-4 1-8 1-12 2-1 1-2 1-4 1-1 0-1 1-2 1l-7 1c-2 0-5 1-8 1s-7 1-10 1h-5c-3 1-7 1-11 1-5 1-10 0-15 0-6 0-11 0-16-1s-10-1-15-2c-2 0-5 0-7-1-2 0-5-1-7-1s-3-1-4-1-2 0-3-1c-1 0-3-1-4-1-2 0-4-1-5-1l-7-2s-4-1-6-2c-1-1-2-1-3-2h-1c-3-1-5-2-8-3l-9-3-12-6c-3-2-6-3-9-5-2-2-5-3-7-4-4-3-8-5-11-8-2-1-3-2-5-3l-5-4c-3-2-5-4-8-6l-3-2c-1-2-3-3-5-5 0-1-1-1-1-2 0-2 2-3 4-2s3 1 4 2c3 2 6 4 9 5 4 2 8 4 12 5 1 1 3 3 5 4h3c1 1 3 2 5 3h2l7 3c2 1 4 2 6 2 2 1 4 2 7 3l2 1c2 0 4 1 5 1l8 2c2 1 4 1 6 2 1 0 2 1 3 1h1c2 1 5 1 8 2 2 0 4 1 6 1 2 1 4 1 7 2 5 1 11 2 17 2 5 1 11 2 16 2 13 2 27 2 40 1h13c6-1 13-2 19-2 2 0 5 0 7-1 1 0 2 0 3-1 5 0 9-1 13-2 3 0 5-1 8-1l6-2c2-1 5-1 7-2 2 0 5-1 8-2 2-1 4-1 6-2s5-2 7-2c2-1 5-2 8-3 2-1 5-2 8-3s5-2 8-3c2 0 4 1 5 2s1 4-1 5zm29-4l-1 3c-1 2-2 5-3 7-1 3-3 6-4 8s-2 5-4 6c-1 2-3 4-5 6-1 1-2 2-4 3h-2s-1-1 0-2c0-1 0-1 1-2v-1c1-2 1-4 2-6s1-4 3-6v-3c2-5 3-10 4-15 1-2 0-5 1-8l-1-1c-2-3-5-4-8-4-5-1-9-1-13-1-6 0-13 1-19 2h-5c-1 0-2-1-2-1 0-1 0-2 1-2 1-1 3-2 5-4 1 0 2-1 3 0-1-1 0-1 1-1 3-1 6-3 9-4 3 0 6-1 10-1 2-1 4-1 6-1 7-1 13 0 20 1 2 1 3 2 5 2 2 1 2 3 2 4 1 7 0 14-2 21zm12-37c-5-2-10-5-16-6-5-1-10-1-15-2-7 0-14 1-21 2l-15 6c-3 2-5 1-6-2v-4-13c0-4 2-8 5-12 7-10 14-20 21-31l15-21s1 0 1-1h-33c-4 0-5-2-5-4v-13c0-3 1-5 5-5h63c3 0 5 2 5 5v8c0 4-1 7-3 10l-20 28c-5 7-10 14-15 22l-1 1h10c9 1 19 3 28 8 2 1 3 3 3 6v15c0 3-3 5-6 3zm105-39c-1 9-4 17-9 25-4 6-9 11-16 15-6 3-13 5-19 5-12 0-22-4-30-12-5-5-9-11-11-19-3-9-5-18-5-27 1-10 2-20 6-29s10-17 20-22c5-3 10-4 16-5 10 0 19 2 27 7 5 4 9 9 13 14 5 10 8 20 8 30 1 6 1 12 0 18zm92 43h-18c-3 0-4-2-4-5v-62c0-4-1-8-2-11-1-4-3-7-6-8-6-2-11 0-14 5-3 3-4 8-5 12v64c0 3-2 5-5 5h-18c-3 0-5-2-5-5V411c0-3 2-4 5-4h17c3 0 4 1 4 4v14h1c0-2 1-4 2-6 3-6 7-10 13-12 3-1 5-2 8-2 8-1 15 0 21 5 6 4 8 10 10 17 1 6 1 13 1 19v65c0 3-1 5-5 5zm-582-53c-5 0-10 1-15 3-4 1-7 3-9 7-2 5-3 10-1 16 2 7 9 9 16 7 6-2 9-7 11-13 1-5 1-9 1-14v-5c0-1 0-2-1-2-1 1-1 1-2 1zm252 33c6-3 9-8 11-13 1-5 1-9 1-14v-3c0-3 0-3-3-3h-1c-5 0-10 1-15 3-3 1-6 4-8 7s-3 8-2 12c1 10 9 14 17 11zm206-60c-1-5-3-9-8-10-6-2-12 0-15 5-2 3-4 7-4 10-1 6-1 12-2 18h1v13c0 2 1 4 1 7 1 4 2 9 5 13 4 5 11 6 16 3 4-2 5-6 7-10 1-5 2-10 2-15v-19c0-5-1-10-3-15zm-108 85h4-4z"/></svg>