<svg width="64" height="64" viewBox="0 0 1000 1000" xmlns="http://www.w3.org/2000/svg"><path d="M358 269c-2 0-4-3-5-5v-11h20c1-5 2-9 2-13 2-15 11-26 25-31 3-1 5-2 7-3h12c20 6 33 18 34 39l1 8h22v15c-1 0-2 1-2 1H358zm311 418c-13 41 9 86 50 101 6 3 13 4 20 6h18c4-1 8-2 11-3 34-9 60-41 61-76 1-36-24-70-58-80-43-12-88 11-102 52zm38 27c0-22 18-40 40-40s40 18 40 39-18 39-39 39c-22 0-41-18-41-38zm-518-1c0 37 24 69 61 79 2 0 4 1 6 2h31c15-6 30-11 42-23 26-25 32-65 13-98-18-32-55-47-92-38-35 9-61 42-61 78zm42 1c0-22 18-39 40-39s40 17 40 39c0 21-18 38-41 38-21 0-39-18-39-38zm706-222c-1-57-1-113-1-168 0-19-15-33-34-33H791l-546 1c-21 0-35 9-44 27-6 11-11 22-15 33-17 40-34 80-51 119-1 5-5 10-8 11-23 8-34 24-39 45-6 29-12 58-17 88l-9 54v20c6 12 15 22 30 23 21 1 41 1 61 2 7 0 10-3 11-11 4-52 51-94 103-95 57-2 104 38 111 95 2 11 2 11 14 11 79 0 158-1 237-1 8 0 11-3 11-11 5-49 49-90 97-94 62-5 105 38 115 82 2 7 3 15 5 25 19-1 37-2 56-3 9-1 15-6 19-14 2-2 4-5 5-7V501v-9zm-587-25c0 8-3 10-10 10-47-1-94-1-141-1h-24c2-4 2-6 2-7l56-137c2-5 6-7 11-7 32 0 64 1 96 0 7 0 10 2 9 10 0 44 0 88 1 132zm370 18h-77v86c-10 2-20 3-30 3s-20-1-29-3v-86h-78c-2-9-3-19-3-29 0-9 1-19 3-29h78v-85c9-2 19-3 29-3s20 1 30 3v85h77c2 10 3 20 3 29 0 10-1 20-3 29z"/></svg>