<svg width="64" height="64" viewBox="0 0 1000 1000" xmlns="http://www.w3.org/2000/svg"><path d="M923 458V339h-31v79c-13-23-27-44-39-66-6-11-12-15-24-14-9 1-19 0-29 0v107c-8-16-15-32-23-48-8-18-16-37-25-55 0-2-2-3-4-3-12-1-25-1-37-1 0 2-1 3-1 4-6 13-12 27-18 40-6 15-12 30-19 44 0 2-2 4-3 4-9 0-18 1-25-7-10-10-13-33-4-46 5-8 15-12 25-12h22v-27c-13 0-25 1-37 0-19 0-33 13-39 28-7 17-8 36-4 54 7 26 22 38 48 38h31c4 1 5-1 7-4 2-7 5-15 8-22h55c1 0 4 1 4 3 3 6 6 13 9 19 1 3 3 4 7 4h54v-84c16 26 31 50 46 75 4 7 7 11 15 9h31zm-210-53c6-14 12-28 18-43 7 15 13 29 20 43h-38zM511 542H410c-3 0-6 1-8 3l-30 33c-8-10-16-19-24-28-4-5-8-8-16-8H226v118c0 1 1 1 1 1h107c2 0 4-1 5-3 7-7 13-15 20-22 4-5 8-9 12-13 9 11 18 21 27 32 4 4 7 8 14 7h50v-42c18 0 35 1 52 0 12-1 22-7 26-20 4-9 4-18 3-28-1-18-13-30-32-30zm-186 92c-2 1-4 2-6 2-21 1-43 1-65 1v-26h65v-20h-65v-24h64c2 0 4 1 6 2 10 10 20 20 30 31-10 11-20 22-29 34zm108 16c-4-5-8-9-12-13-10-12-19-23-29-34-2-3-2-4 0-6 12-14 24-27 36-41 1-1 3-2 5-4v98zm71-54h-43v-28h44c6 1 10 8 10 14s-5 13-11 14zM239 455c6-13 11-25 17-37 7-15 14-29 20-44 1 0 1 1 1 1v82h30V338h-48c-12 26-23 51-35 78-2-5-4-9-6-13-7-17-15-33-22-49s-6-16-23-16h-31v110c-7-14-13-28-19-42-10-22-19-43-29-65-1-1-2-2-4-3H53c-18 40-35 79-53 119h33c3-8 6-16 10-23 1-2 3-3 5-3h50c2 0 4 1 5 3 3 6 5 12 8 19 1 3 3 4 6 4h56v-82c1 1 1 2 2 3 10 23 21 47 32 71 3 8 3 8 12 8h16c1 0 4-1 4-2zM54 405c6-14 12-28 19-43 6 15 12 29 18 43H54zm613 159c-4-15-16-22-30-22h-80v120h30v-42h37c6 0 12 6 13 12 0 4 1 9 1 13 0 6 1 11 1 17h29v-27c-1-4-1-8-2-13-2-7-7-13-15-15 1-1 1-2 2-3 14-8 18-26 14-40zm-41 31h-39v-28h41c6 1 11 8 11 15 0 8-4 12-13 13zm-78-170c0-9-6-20-18-24 1 0 2-1 4-1 15-8 18-26 14-40-3-14-17-21-29-22h-76c-2 0-3 0-5 1v118h31v-41h37c5 1 11 6 12 12 1 5 1 11 1 16 1 4 1 9 2 13h29v-6c-1-9-2-18-2-26zm-41-34h-39v-27h24c5 0 9 0 13-1 9 0 15 7 15 14 1 8-4 14-13 14zm-85 41h-65v-22h63v-25h-63v-20h65v-26h-96v118h96v-25zm261 228h96v-25h-67v-23h64v-23h-64v-21h67v-26h-97c1 40 1 79 1 118zm192-67c-6-2-12-4-19-5-8-1-16 0-24-1-5-1-10-1-12-7-2-7 2-12 10-12h55v-25c0-1-1-1-1-1-22 0-45-1-67 0-10 1-19 6-24 16-4 7-4 15-4 23 1 18 8 27 24 30 11 2 23 3 34 4 7 0 12 3 12 8 1 5-4 10-9 11-4 1-7 2-11 2h-48v25c1 1 1 1 2 1 23 0 45 0 68-1 11-1 20-8 26-18 5-10 5-21 3-32-2-8-6-15-15-18zm124 22c-2-16-11-23-27-26-10-1-20-1-30-2-3 0-5-1-8-2-4-1-6-4-5-9 0-5 4-8 10-8h55v-26c-23 0-45-1-67 0-9 0-17 4-23 12-5 8-6 17-6 26 0 16 9 28 24 31 12 2 23 2 35 3 9 1 14 7 10 14-2 4-6 6-10 6-17 0-33 1-50 1h-5v25c22 0 45 1 67 0 11 0 20-6 26-15 5-9 6-19 4-30zM594 339h-31v118h31V339z"/></svg>