<svg width="64" height="64" viewBox="0 0 1000 1000" xmlns="http://www.w3.org/2000/svg"><path d="M764 581h14c2 0 5-1 7-1v-29h15c0-2 1-4 1-6v-6c0-5 0-9-1-13h-15v-33c-2 0-5 0-7-1h-15c-2 1-4 1-7 1v33h-29l43-86c-4-3-8-5-13-7-4-1-9-2-13-3l-59 118 2 3h69v29c3 0 5 1 8 1zm65-69l3 3c4-2 7-4 11-4 4-1 8-2 12-2 10 0 17 2 22 6 4 4 7 9 7 17 0 3-1 6-2 9s-3 5-5 8-6 4-11 5c-4 1-9 2-15 2-5 0-9 0-14-1-4-1-9-3-13-4-2 4-4 8-5 12s-2 8-3 13c4 1 7 2 10 2 4 1 7 2 10 2 3 1 6 1 9 1 2 1 5 1 7 1 9 0 18-1 26-4 7-2 14-5 19-10 6-4 10-9 13-16 3-6 5-14 5-22 0-7-2-14-4-19s-5-10-9-13c-4-4-9-7-14-9-6-2-12-3-19-3-2 0-4 1-6 1-1 0-4 0-6 1l1-30h48c0-4 1-8 1-12 0-5-1-9-1-13h-74l-3 79zm118-41c2 3 6 5 10 6 3 2 7 3 12 3s8-1 12-3c4-1 7-3 10-6s5-6 7-10c1-4 2-8 2-12s-1-8-2-12c-2-4-4-7-7-10s-6-5-10-7c-4-1-8-2-12-2s-9 1-12 2c-4 2-8 4-10 7-3 3-5 6-7 10s-2 8-2 12 0 8 2 12 4 7 7 10zm13-32c2-2 5-4 9-4 3 0 6 2 9 4 3 3 4 6 4 10s-1 7-4 10c-3 2-6 4-9 4-4 0-7-2-9-4-3-3-4-6-4-10s1-7 4-10zm-418 66l341-380-159-27L0 902h1000V765H698c-26-102-81-192-156-260zM307 765l168-186c55 50 96 114 120 186H307z"/></svg>