<svg width="64" height="64" viewBox="0 0 1000 1000" xmlns="http://www.w3.org/2000/svg"><path d="M581 292c5 5 11 8 17 11 7 2 14 4 21 4 6 0 10-1 14-2s7-3 10-5 6-3 8-5c2-3 4-5 6-7-2 7-4 14-7 21-4 6-8 12-13 17s-12 9-19 12c-8 3-16 5-25 5-2 5-3 10-3 14 0 3 1 6 1 8 1 3 2 6 2 9 18-1 33-5 46-11 12-6 23-14 31-24s15-22 19-36 6-28 6-44c0-25-5-44-17-56-11-13-27-19-49-19-8 0-16 1-24 4s-15 7-21 12-11 12-14 20-6 17-6 27 2 19 5 26 7 14 12 19zm29-70c5-5 12-8 20-8s15 3 20 9c5 5 7 14 7 24s-3 18-8 23-12 8-20 8-14-3-19-8-8-13-8-24 3-19 8-24zm123 111c6 8 13 14 21 18s18 6 30 6 21-2 30-6 16-10 21-18 10-17 12-27 4-22 4-35-1-24-3-35c-3-10-7-19-13-27-5-8-12-14-20-18-9-5-19-7-30-7-12 0-22 2-30 7s-16 10-21 18c-6 8-10 17-13 27s-4 23-4 35c0 13 2 24 4 35 3 10 7 19 12 27zm30-104c6-9 12-13 21-13s16 4 21 13 7 23 7 42-2 33-7 42-12 14-21 14c-8 0-15-5-20-14-6-9-8-23-8-42s2-33 7-42zm119 5c3 3 7 6 12 8s10 3 15 3 10-1 15-3 9-5 13-8 6-8 8-13 3-9 3-14c0-6-1-11-3-16-2-4-5-9-8-12s-8-6-13-8-10-3-15-3-10 1-15 3-9 5-12 8-6 8-8 12c-2 5-3 10-3 16 0 5 1 10 3 14s4 9 8 13zm16-40c3-3 7-5 11-5s8 2 12 5 5 8 5 13-2 9-5 12c-4 3-7 4-12 4s-8-1-11-4-5-7-5-12 2-10 5-13zM678 823c-23-250-215-452-461-490V0H42v1000h916V823H678zm-461 0V448c183 36 325 187 347 375H217z"/></svg>