<svg width="64" height="64" viewBox="0 0 1000 1000" xmlns="http://www.w3.org/2000/svg"><path d="M873 693c-31-178-186-314-373-314S158 515 127 693H0v107h1000V693H873zm-679 0c30-142 156-248 306-248 151 0 276 106 307 248H194zm173-444l21-8v57h-24c0 2-1 4-1 5v10c0 1 1 3 1 5h69c1-2 1-4 1-5v-5-5c0-1 0-3-1-5h-23v-87h-4l-47 21 3 9c2 3 3 5 5 8zm96 63c4 3 9 5 14 6s10 2 15 2 10-1 15-2 9-3 13-6 7-6 9-10c3-4 4-9 4-15 0-4-1-8-2-12-1-3-3-6-4-8-2-3-4-5-7-7-2-2-5-3-7-4 4-3 8-6 11-11 2-4 4-9 4-14s-1-9-3-13c-2-3-4-7-8-9-3-3-7-5-11-6-4-2-9-2-14-2s-10 0-14 2c-5 1-9 3-12 6-3 2-6 6-7 9-2 4-3 8-3 13s1 10 4 14c3 5 6 8 10 11-2 1-4 2-7 4s-4 4-6 7c-2 2-4 5-5 9s-1 7-1 11c0 6 1 11 3 15s5 7 9 10zm18-90c2-2 6-3 11-3s8 1 11 3c2 3 3 6 3 9 0 5-1 9-4 11-2 3-6 5-10 6-4-1-8-3-11-6-2-2-4-6-4-11 0-3 2-6 4-9zm-2 50c3-3 7-6 13-7 5 1 9 4 12 7 4 3 6 8 6 13s-2 9-5 12-7 4-13 4-10-1-13-4-5-7-5-12 2-9 5-13zm79 32c3 5 7 9 13 12 5 2 11 4 19 4s13-2 19-4c5-3 10-7 13-12s6-10 8-17 3-14 3-22-1-15-3-22-4-13-8-17c-3-5-7-9-13-12s-11-4-19-4c-7 0-13 1-19 4-5 3-10 7-13 12s-6 10-8 17-2 14-2 22 0 15 2 22 4 12 8 17zm19-66c3-5 7-8 13-8s10 3 13 8c3 6 5 15 5 27s-2 21-5 27c-3 5-7 8-13 8s-10-3-13-8c-3-6-5-15-5-27s2-21 5-27zm75 3c2 2 4 4 7 5 3 2 7 2 10 2s7 0 10-2c3-1 5-3 8-5s4-5 5-7c1-3 2-7 2-10s-1-7-2-10-3-5-5-7c-3-3-5-4-8-6-3-1-7-2-10-2s-7 1-10 2c-3 2-5 3-7 6-2 2-4 4-5 7-2 3-2 7-2 10s0 7 2 10c1 2 3 5 5 7zm10-25c2-2 4-3 7-3s5 1 7 3 3 5 3 8-1 6-3 8-4 3-7 3-5-1-7-3-3-5-3-8 1-6 3-8z"/></svg>