<svg width="64" height="64" viewBox="0 0 1000 1000" xmlns="http://www.w3.org/2000/svg"><path d="M200 587c0 5 0 11 6 13s11-2 12-7c7-21 24-31 43-40-17 1-33 6-48 13-8 4-14 11-13 21zm-37-122c-3-6-10-7-16-4-6 2-8 8-8 14 0 11 6 18 15 23 28 13 57 24 88 24 7 0 15 2 21-9-44 4-81-4-100-48zm63 79c9 0 19 2 31-13-37 8-68 0-99 3-15 2-26 9-31 24-2 5-2 11 4 15 5 3 11 1 14-3 21-27 51-26 81-26zm639-351c6-30 15-60 5-91-5-18-14-33-33-38s-34 6-45 20c-20 22-29 49-31 78-10 114-18 228-27 342-5 52-11 104-17 155-1 17-8 22-25 16-29-12-59-25-92-20-24 3-48 4-72 4-17 0-34 1-51 0s-27-14-33-28c-6-11-1-21 8-29 55-50 82-112 79-186 0-9 2-14 11-16 35-11 51-49 49-83-4-52-59-80-109-58-7 4-12 8-21 1-50-37-146-38-197-2-9 7-17 8-28 8-43 0-73 27-74 68-1 44 25 75 69 78 19 1 33 9 40 27 6 12 11 25 20 34 35 37 35 77 12 120-17 33-4 54 34 57 21 1 42-4 62-13 4-1 11-7 16-1 4 5 1 11-2 16-1 4-2 9-5 12-18 19-21 41-18 66 2 22-2 43-17 61-15 20-21 41-10 66 10 23 6 33-18 44-9 4-20 7-26 18-3 6-5 11 4 13 22 4 70-27 76-49 2-9 3-19 14-21 10-1 14 9 18 17 2 4 4 9 6 14 11 30 36 40 65 44 5 0 13 2 15-5 3-8-4-11-9-15l-9-6c-27-15-37-39-35-69 2-20 13-32 33-35 19-2 37 3 54 8 31 9 62 17 93 8 19-5 24 6 33 18 9 13 1 21-7 28-6 7-14 10-21 16-11 9-14 20-3 32 10 12 45 16 60 7 17-10 10-24 7-39-3-18-5-33 15-47 21-13 18-26-3-37-5-3-11-4-8-10 2-5 2-12 10-14 6-1 12-3 19-5 15-4 26-14 27-30 2-18-5-32-21-37-16-6-10-15-8-25 40-162 87-323 121-487zm-360 99c25 0 53 24 52 45-1 17-19 33-38 34-24 0-48-23-47-46 0-21 13-33 33-33zm-222 47c-1 18-20 33-43 32-26 0-45-15-45-36s19-38 42-38c26 0 47 20 46 42zm121 281c-19 13-40 19-63 16-25-3-33-19-21-42 1-2 1-4 3-5 33-32 26-65 6-99-10-16-17-33-16-52 2-32 25-60 53-66 36-7 66 6 82 36 14 25 19 52 18 81-2 52-17 99-62 131zm284 147c15 12 12 22 5 38-10-16-21-11-36-7-41 12-81 6-117-19-17-12-32-25-48-38-20-16-19-31 3-42 28-13 57-31 88-18 28 13 54 12 82 8 14-2 26-1 25 18 0 7 9 9 12 15-26 7-33 29-14 45zM422 418c-3 4-6 8-11 5-4-1-3-6-3-9 3-20-7-30-26-29-20 2-25 15-21 33 0 3 1 6 1 9 0 4-1 9-7 10-4 1-6-3-8-6-2-4-2-10-7-9-6 2-7 8-7 13-2 21-2 42 10 60 23 34 31 66-8 94-1 1-1 2-1 2-4 6-8 12-1 17 6 4 16 10 20 4 10-14 16-27 30-4 3 5 10-4 14-7 39-37 47-84 50-136-1-12-2-26-4-40-3-14-8-23-21-7zm-165-93c-3-1-6-1-9-1-11 0-17 6-18 17 0 10 6 16 14 17 11 1 15-8 17-17 1-3 1-6 1-8-1-3-3-6-5-8zm256 32c6 3 12 0 16-5s6-10 3-18c-6-14-20-15-27-8-4 4-1 12-1 17-1 7 3 11 9 14z"/></svg>