<svg width="64" height="64" viewBox="0 0 1000 1000" xmlns="http://www.w3.org/2000/svg"><path d="M250 470c-2-33 12-58 41-76-8-7-14-15-21-20-28-18-57-20-88-8-34 12-26 13-61 0-32-13-61-7-86 15-24 21-34 48-35 79-2 59 19 111 57 155 20 23 37 27 63 16 25-11 48-11 73 0 16 7 32 9 48-2 13-9 21-21 30-33 12-17 22-36 28-56-29-15-47-37-49-70zm296-157c-22-17-47-22-73-22-27 0-54 3-81 4-5 1-7 3-7 9v310c0 3 0 5 1 8h36V488c23 3 46 3 68 0 44-7 84-37 89-89 3-34-5-64-33-86zm-3 80c-3 44-34 63-65 67-17 2-34 2-51-1-4-1-5-3-5-6V328c0-4 1-6 5-6l30-3c16 0 32 2 47 7 27 11 41 36 39 67zm224 90c0-11 0-22-2-33-3-25-14-47-37-59-16-8-34-10-51-10-23 1-45 6-65 17-2 2-4 5-3 6 2 7 4 14 7 22 27-13 37-16 60-16 29 0 47 12 52 37 2 6 2 13 3 19s-2 8-8 8c-25 0-49 2-72 11-26 9-48 23-57 51-10 31 0 61 24 79s69 16 95-3c7-6 14-13 21-19 1 9 2 19 3 29h33c-1-8-2-14-2-21 0-39-1-79-1-118zm-37 66c-1 26-27 48-55 50-11 0-21-1-30-8-25-18-23-58 4-76 18-11 38-14 58-15 8-1 15 0 24 0 0 17 0 33-1 49zm238-163c-5-1-8 2-10 7-19 61-39 121-60 182 0 1-1 2-2 4-4-13-7-24-11-36-18-48-36-97-53-146-5-11-5-11-17-11h-27c0 2 0 3 1 4 28 72 56 143 83 215 2 5 3 12 2 17-10 25-26 47-49 62-8 6-17 11-27 16 4 10 7 20 10 30 2-1 3-1 4-1 29-9 49-27 66-51 20-27 32-57 44-88 20-51 39-102 59-152 6-17 12-34 19-52h-32zM222 270c-48 4-79 53-72 83 40 6 79-45 72-83z"/></svg>