<svg width="64" height="64" viewBox="0 0 1000 1000" xmlns="http://www.w3.org/2000/svg"><path d="M321 764c96-11 192-27 290-22 8 0 19 4 19-12 0-13 0-22-17-25-74-14-148-30-222-44-11-2-18-7-24-16-31-44-62-87-92-130-16-22-37-34-63-35-25 0-50 0-75 1-44 1-74 31-74 74v300c0 13 3 17 17 17 59-1 118 0 178 0 25 0 25 0 19-25-11-48-23-96-35-145 1 0 2-1 3-1l46 52c8 9 16 13 30 11zm-94-302c90-1 168-68 168-164 3-88-69-168-163-170-91-2-167 72-169 163-2 94 71 172 164 171zm710 108V288c0-26-5-30-29-24-48 10-95 19-143 29l-264 57c-14 3-24 7-24 24 0 87 0 173-1 259 0 12 2 20 14 19s7-11 7-17V390c1-2 2-4 3-5v-1l381-72c7 1 9 5 9 16v367c0 14-4 18-18 19-66 2-132 5-198 8-9 0-17 0-17 13 0 15 10 12 18 12 55 0 111 0 166-1 15 0 18 7 15 18s-13 6-19 6c-134 4-269-8-403 9-42 5-84 9-126 14-11 1-15 4-12 16 9 39 9 39 48 43l12 2c54 6 107 16 161 17 133 2 266 0 399 1 16 0 22-4 21-21V570zm-60-258h4-4zM344 833c-8-4-23 5-21-13 1-20 19-9 29-12 11-3 13 4 13 14 0 18-13 8-21 11zm118 5c-8-2-15-1-23-1v-2h-24c-10 1-16-1-16-13s4-17 16-17c16 0 32 0 48-2 18-2 13 10 14 19 1 12-2 18-15 16zm127-300c0 1 0 1-1 2-7 1-14 2-22 3v19l21 4c1 0 2 1 2 2 2 4 3 8 5 12 1 1 1 2 0 3l-11 16c-1 1-1 1 0 2l11 11c1 1 2 1 3 1l16-11c1-1 2-1 3-1 3 3 7 4 12 5 1 0 1 1 2 3 1 6 2 13 3 20h19c2-7 3-14 4-20 0-2 1-3 2-3 4-1 8-2 11-5 2 0 3 0 4 1 5 3 10 7 15 10 2 1 2 2 4 0l10-10c1-2 1-2 0-4-3-5-7-10-11-15 0-1-1-2 0-3 2-4 4-8 5-12 0-1 1-2 2-2l19-3c2 0 2-1 2-3v-14c0-2-1-3-3-3l-18-3c-1 0-2-1-2-2-1-4-3-8-5-12-1-1-1-2 0-3 4-5 8-10 11-16 1-1 1-1 0-2-4-4-7-8-11-11-1-1-1-1-3 0l-15 11c-1 1-2 1-3 0-4-2-8-4-12-5-1 0-2-1-2-2l-3-19c0-1-1-2-3-2h-15c-1 0-2 1-2 2l-3 18c0 2-1 3-2 3-4 1-8 3-12 5-1 1-2 0-3 0-5-4-11-8-16-12-1 0-1 0-2 1-4 3-8 7-11 11-1 1-1 1-1 3 4 5 8 10 11 15 1 1 1 2 1 3-3 3-4 8-6 12zm54-12c15 0 27 12 27 27s-12 27-27 27c-15-1-27-13-27-27 0-15 13-27 27-27zm56-65l-12 7c-1 1-2 1-1 3 2 3 3 6 4 10 1 1 2 1 3 1l13-3c1 0 2 0 3 1 2 3 4 5 7 7 1 0 1 1 1 2-1 5-2 9-4 14 0 1 0 2 2 3 3 1 7 2 10 4 1 0 2 0 2-1l8-12c1-1 1-2 3-1h9c1 0 2 0 2 1l8 12c1 1 1 1 3 1 3-2 6-3 10-4 1-1 1-1 1-3l-3-13c-1-2 0-3 1-3 2-2 4-4 6-7 1-1 2-1 3-1 4 1 9 2 14 4 1 0 2-1 2-2 1-3 3-7 4-10 1-1 1-2-1-3-4-2-7-5-11-7-1-1-2-1-2-2 1-3 1-7 0-10 0-1 1-2 2-2 4-3 8-5 12-8 1-1 1-1 1-2-2-4-3-7-5-11 0-1-1-1-2-1l-14 3c-1 1-2 1-2-1-2-2-5-4-7-6-1-1-1-2-1-3l3-13c1-2 0-2-1-3-4-1-7-3-10-4-1-1-2-1-3 0l-7 12c-1 2-2 2-3 2-3-1-6-1-9 0-1 0-2 0-2-2-3-3-5-7-8-11-1-2-1-2-3-1-3 1-6 3-9 4-2 0-2 1-2 3 1 5 2 9 3 14 1 1 0 1-1 2l-6 6c-1 1-2 1-4 1-4-1-8-2-13-3-1-1-2 0-2 1-2 3-3 7-4 10-1 2-1 2 1 3 4 2 7 5 11 7 1 1 2 2 1 3v9c0 1 0 2-1 3zm44-28c11 1 20 10 20 21-1 11-9 20-21 20-11 0-20-9-20-20 0-12 9-21 21-21z"/></svg>