<svg width="64" height="64" viewBox="0 0 1000 1000" xmlns="http://www.w3.org/2000/svg"><path d="M255 622c-61 0-109 49-109 109s48 109 109 109 109-49 109-109c0-61-49-109-109-109zm0 145c-20 0-36-16-36-36s16-36 36-36 36 16 36 36-16 36-36 36zm661-139c3 0 6-2 6-5V470c0-3-1-8-3-10l-60-93c-2-2-6-4-9-4H631c-3 0-6 2-6 5v212c0 3 3 6 6 5 5 0 14-1 30-1 63 0 97 30 115 54 1 3 4 3 7 1 8-7 18-11 30-11h103zm-160-93c-3 0-6-3-6-6V415c0-3 3-5 6-5h82c3 0 7 2 9 4l25 41c2 2 3 7 3 10v64c0 3-2 6-5 6H756zm-167 58c2-1 5-4 5-7V337c0-3 2-6 5-6h264c3 0 7-2 9-4l39-54c2-2 1-4-2-4H568c-3 0-6 2-8 5l-38 84c-1 2-5 5-8 5H68c-3 0-5 2-5 5v52c0 3 2 5 5 5h36c3 0 5 3 5 6v82c0 4 2 6 5 7 37 8 248 56 285 166 1 3 4 5 7 5h107c3 0 6-2 7-5 4-18 22-73 69-93zm333 67H813c-8 0-14 5-15 12-1 1-1 2-1 3v32c0 8 7 15 16 15h109c9 0 16-7 16-15v-32c0-8-7-15-16-15zm-156 39c-14-45-56-77-105-77-60 0-109 49-109 109s49 109 109 109c61 0 110-49 110-109l-1-4c0-10-2-20-4-28zm-105 68c-20 0-36-16-36-36s16-36 36-36 36 16 36 36-16 36-36 36zM487 331c3 0 6-2 8-5l29-59c1-3 1-8 0-11l-12-29c-1-3-5-5-8-5h-35c-4 0-7-2-9-5l-35-53c-2-2-6-5-9-5h-49c-3 0-7 2-9 5l-58 69c-2 3-6 5-9 5h-38c-3 0-7 1-9 4l-37 39c-2 2-6 4-9 4h-23c-3 0-7 1-10 3l-44 40c-2 2-1 3 2 3h364z"/></svg>