<svg width="64" height="64" viewBox="0 0 1000 1000" xmlns="http://www.w3.org/2000/svg"><path d="M442 570c17 7 31 20 47 32 4 3 9 2 11-2 37-57 93-90 158-111 5-1 7-6 6-11-2-7-4-13-6-18-15-46-27-93-55-133-15-21-32-25-55-12-8 5-15 10-21 17-56 56-90 125-119 195-2 4-2 12 0 16 7 15 19 21 34 27zm-1 311c32 3 64 4 98 6 5 0 10-4 10-9 6-35 4-67-3-99-13-61-40-115-80-162-29-34-61-32-80 9-13 28-23 59-26 90-6 57 12 109 54 150 8 7 17 14 27 15zm129-116c2 5 5 6 8 2 42-58 87-108 154-130 4-2 8-7 9-12 1-11 3-20 3-30 2-19 5-39 3-58-2-26-11-33-38-32-41 3-77 20-112 41-30 18-57 41-76 72-6 11-7 19 0 31 14 28 27 57 39 86 4 9 7 19 10 30zm226-128c-40 0-77 11-109 35-44 32-78 74-106 121-2 3-3 8-3 12v67c0 5 3 9 8 8s10-1 14-2c6-2 11-3 17-5 73-25 129-72 180-127 19-19 27-44 32-70 5-27-5-39-33-39zM337 465c16 12 30 26 45 41 4 3 7 2 7-3 1-3 1-6 1-9l-6-36c-10-56-25-110-56-158-23-35-47-37-72-3-45 61-77 128-87 204-4 30-1 60 19 88 2 4 6 3 7-2s2-10 2-15c6-37 20-70 45-98 32-35 58-38 95-9zM236 666c28 23 56 44 85 66 1 1 3 2 5 4 3 2 5-1 5-5 0-61 16-113 60-155 3-3 4-9 2-13-21-32-45-59-74-81-21-15-37-13-53 6-40 46-54 100-43 159 1 7 7 15 13 19zm552-318c-20-45-44-87-80-121-14-13-28-14-43-4-25 17-40 42-50 70-1 4 1 9 3 13 8 17 19 33 26 50l45 117c2 5 7 8 12 9 7 0 13 0 19 1 5 0 10-1 11-1 0-1 0-1 1-2 18-39 37-79 55-118 2-4 2-10 1-14zm-437-84c-5 12-8 20 3 32 10 11 17 26 23 41 12 35 22 70 32 103 1 4 5 5 8 1 22-31 42-67 71-94 30-28 33-52 17-84-14-28-27-56-42-83-8-13-21-14-35-5-36 21-60 52-77 89zm514 102c-3-8-9-18-15-20-7-1-17 6-22 12-36 38-54 85-72 132-1 3-1 9 1 11 17 27 16 57 13 87l-3 27c0 4 3 8 8 8 17-2 34-3 50-4 5-1 11-4 13-9 33-62 47-180 27-244zM378 865c-5-8-10-14-14-21-10-18-17-38-28-55-31-44-71-80-117-105-28-15-58-25-88-35-6-2-17 0-21 4-3 4-1 15 2 21 56 107 147 165 262 196 5 1 7-2 4-5zm105-712c-3 4-3 10 0 14 29 37 44 79 57 122 2 5 7 8 11 7 9-1 18-2 26-5 5-1 11-6 14-11 13-19 25-39 39-58 5-8 8-13 2-21-13-20-26-42-42-61-30-35-58-35-91-3-6 5-11 11-16 16zM278 256c2 5 7 8 12 8h24c4 0 10-3 12-8s4-10 8-15c18-24 35-52 58-71 18-15 23-29 21-49 0-3 1-6 0-9-2-9-3-24-8-26-8-2-21 1-28 7-38 34-75 69-112 104-3 2-4 9-3 14 5 15 11 30 16 45zM130 630c19 4 39 8 61 13 5 1 7-2 6-6-3-8-4-15-9-18-41-31-51-73-46-120 3-32-14-54-31-77-7-9-17-8-20 4-5 17-10 33-10 50-1 53 18 101 42 147 1 3 4 6 7 7zm526 240c-5 2-8 3-12 5-39 13-76 30-119 26-40-3-80-2-120-4-15-1-29-4-43-6-5-1-10-1-11 0s-1 6 1 10c3 7 6 13 10 16 17 8 36 18 54 19 48 3 97 1 146 1 46 1 77-21 98-63 2-4 0-6-4-4zm1-681c3 4 11 9 16 8 18-3 34 2 47 14 15 14 28 30 40 47 9 10 16 22 23 34 3 4 6 7 7 7 0 0 0-4-1-9 0-2-1-5-2-7-16-59-52-105-95-147-14-14-28-28-44-40-6-4-18-6-24-3-10 4-10 31-3 41 12 18 23 37 36 55zM166 400c24-50 50-96 94-125 4-3 6-8 4-13-8-19-16-37-24-56-1-4-6-6-10-3-49 40-83 136-70 196 1 5 4 5 6 1zm745 80c-13 0-16 8-19 20-9 40-20 80-30 120-3 12-6 24-10 36-1 4-1 9 1 10s6-1 10-3c32-19 55-44 55-85 0-9 1-17 1-26v-62c0-5-3-10-8-10zM449 148c7-1 13-1 17-5 22-21 44-42 74-51 5-1 5-5 2-8-28-22-49-26-71-17-36 15-34 42-31 74 0 4 4 7 9 7z"/></svg>