<svg width="64" height="64" viewBox="0 0 1000 1000" xmlns="http://www.w3.org/2000/svg"><path d="M603 517c23-3 46 1 69 3 7 0 13 2 20 2 3 0 6-2 9-3-2-3-4-7-6-8-18-9-35-17-53-26-5-2-11-3-17-6 25-17 55-21 74-47v-4c-17 2-34 2-50 6-37 11-75 10-114 12-48 3-97 4-145 10-90 11-179 24-268 36-20 3-39 7-60 10l10 81 10-1c98-11 197-21 295-33 76-9 151-23 226-32zm158 60c-12-2-23-4-37-7 25-17 53-22 72-47-5 0-11-1-15 1-47 19-95 20-145 16-27-2-55 3-82 6-33 3-65 8-98 13-95 12-190 24-285 37-2 0-3 0-6 1 2 22 5 44 7 65 1 8 6 7 10 6 28-2 56-4 84-7 84-9 168-18 251-28 58-8 115-18 172-28 26-4 52-2 79 3 10 1 21 0 32 0 2 0 4-2 6-3-1-2-2-5-3-7-12-12-27-18-42-21zM193 460c48-6 97-13 145-18 62-7 124-11 185-16 25-2 49-1 74-3 12-1 25-4 38-8 41-11 82-10 124 0l9 3c1 0 1-1 4-1-8-7-15-14-22-17-14-7-28-11-42-17-3-1-5-2-7-4 2-2 3-4 5-5 17-6 34-12 51-19 9-3 17-10 25-15 1-1 2-4 3-6-2-1-4-3-5-3-19 1-38 3-56 4-26 3-51 7-77 9l-101 7c-62 5-124 9-187 17s-126 19-189 29c-9 1-17 3-27 4 3 22 5 43 8 64 14-2 28-3 42-5zm453 17c6 4 11 8 17 12 8 4 16 8 23 14 25 22 50 12 77 3-29-40-73-58-117-29zm113 87c16 8 35 14 49 26 15 12 28 15 46 8 8-3 18-5 29-8-28-19-54-34-86-40-16-3-27 7-38 14zm47-147c14-2 28-5 43-8-34-39-82-51-114-30 19 12 37 24 55 35 5 2 11 4 16 3zm-28 82c8 1 18-7 28-12 7-4 15-8 23-12 6-3 6-8-1-11-12-5-25-10-38-15-2-1-6-1-7 1-10 8-19 17-29 25 1 2 1 2 1 3 8 7 14 19 23 21zm100-101c2-1 5-1 7-3 11-5 22-11 35-17-15-8-28-15-42-22-2-1-7 1-9 3-9 6-17 14-26 21 6 16 19 22 35 18zm17 141c-2 0-4 1-6 2-7 7-15 14-22 21l1 1c28 24 33 24 70-4-13-12-28-16-43-20zm-35-191c-18-5-35-10-52-14-2-1-5 0-7 2-5 5-10 11-15 17 27 24 51 23 74-5zm-93 99c1-2-2-6-4-7-17-3-33-7-49-8-6 0-13 8-21 15 16 6 29 12 42 17 7 2 31-10 32-17zm111 85c-19-3-36-6-53-9-11-2-16 5-20 15 14 5 28 11 43 14s21-10 30-20z"/></svg>