<svg width="64" height="64" viewBox="0 0 1000 1000" xmlns="http://www.w3.org/2000/svg"><path d="M936 360c-5-55-20-103-42-142-23-39-52-70-87-94s-75-41-120-50-92-11-140-6c-92 9-169 31-233 68-64 36-115 80-154 131-38 52-65 108-80 168-16 61-21 120-15 177 6 61 20 113 44 155 24 43 54 77 90 103 36 27 77 45 123 54 46 10 93 13 143 8 21-2 41-5 62-8 21-4 40-8 59-13 18-4 35-10 51-16 15-7 29-13 40-20-6-15-12-29-18-44-7-15-14-29-21-42-22 11-47 20-75 27s-59 12-92 15c-36 4-71 2-103-5s-62-19-88-37c-26-19-47-44-64-76s-28-70-33-116c-5-51-1-101 13-150 13-49 34-93 65-133 30-40 69-72 116-99 47-26 102-42 165-48 82-8 147 5 196 40s77 90 84 164c3 26 2 53-2 81s-11 54-21 78c-11 23-24 43-42 59-17 16-38 25-61 28-15 1-26 0-33-5l30-333c-25-7-52-11-80-12-29-2-57-1-86 1-38 4-73 15-105 33-31 18-59 41-81 70-23 29-39 62-50 100s-15 78-11 122c3 28 9 51 19 70 10 20 23 35 37 47 15 12 32 20 51 24 18 5 38 6 58 4 33-3 59-9 79-19 21-9 40-20 59-31 27 22 64 31 111 26 41-4 77-18 109-40 32-23 58-51 79-84s36-70 46-110c9-40 12-80 8-120zM546 617c-11 5-21 8-30 11s-20 5-33 6c-21 2-38-3-52-14-14-12-22-32-25-61-2-23-1-45 3-66s11-41 22-58c10-17 22-31 38-42 15-11 34-18 55-20 7-1 14-1 20-1s13 1 20 2l-18 243z"/></svg>