<svg width="64" height="64" viewBox="0 0 1000 1000" xmlns="http://www.w3.org/2000/svg"><path d="M955 911c7-7 12-15 18-23 3-7 7-13 10-20 2-4 4-9 5-14 2-4 3-9 5-13 4-16 7-32 7-49 0-102-83-185-185-185-42 0-80 14-111 38l-79-96c8-19 13-39 13-61 0-48-23-90-58-117 0-3 1-6 2-9 11-31 22-62 30-94 2-7 5-12 8-15 10 2 21 4 31 4 65 0 118-52 118-117S716 23 651 23 534 75 534 140c0 43 23 80 57 100 0 4-1 8-4 13-16 29-31 58-45 88-1 3-2 5-4 7-15-6-31-9-49-9-82 0-149 67-149 149 0 12 2 23 5 34l-92 52c-23-42-67-71-118-71C60 503 0 563 0 637s60 134 135 134 134-60 134-134c0-8-1-15-2-22 1-1 2-1 3-2l102-34c17 22 39 38 65 48 41 18 88 14 132-13l92 76c-19 29-31 64-31 102 0 102 83 185 185 185 55 0 103-25 137-62 1-1 2-3 3-4z"/></svg>