<svg width="64" height="64" viewBox="0 0 1000 1000" xmlns="http://www.w3.org/2000/svg"><path d="M323 485c1 1 2 2 2 5-3 12-4 24-3 36 0 3-1 5-4 6-12 5-23 10-35 15l-21 9-2 1c-1 0-1 4 0 8 6 18 11 35 17 53 2 4 6 7 11 6 5-2 11-3 16-4 13-3 26-5 38-8 4-1 6 0 9 3 7 9 15 18 23 27 2 2 2 3 1 6-7 19-15 38-22 57-1 0-1 1-1 2s3 3 6 5c17 9 33 17 49 26 4 2 9 0 12-3 1-3 3-6 5-9 9-13 18-27 26-41 2-2 3-2 5-2 13 1 25 2 37 3 3 0 5 1 6 4 5 11 10 23 14 34 3 6 6 12 8 18 2 4 7 7 11 5 17-5 34-11 52-17 4-1 7-6 6-10l-4-20c-3-12-5-25-8-37-1-2 0-3 2-5 10-8 19-16 28-25 2-1 4-2 6-1 20 8 39 15 59 23h1c1 0 3-3 5-7 3-5 6-10 8-15 6-12 12-25 19-38 1-2 1-4-2-5-17-11-35-22-52-33-2-1-3-2-2-5 3-12 4-25 3-38 0-2 0-3 2-4 14-6 27-12 41-18l12-6c5-2 7-7 5-11-5-17-11-34-17-52-1-4-6-7-10-6-3 1-6 2-9 2l-46 11c-3 1-5 1-7-2-6-11-15-20-24-28-2-2-2-3-1-5l22-60c1-2 1-3-1-4-20-10-39-20-58-30h-1c-1-1-2 1-4 2l-2 4-31 49c-2 3-3 3-6 3-12-3-24-4-37-3-2 0-4-1-5-3-6-14-12-28-18-41l-6-12c-1-4-6-6-11-5-17 6-34 11-51 17-5 1-7 6-6 10 0 3 1 6 2 9 3 15 7 31 11 46 1 4 0 6-3 8-10 6-19 14-27 23-2 2-4 3-7 1-19-7-38-15-58-22 0-1-1-1-2-1s-2 0-2 1l-1 2c-10 19-19 38-29 56-1 3-1 4 2 5 18 12 36 23 54 35zm225 12c13 39-7 75-43 87-31 11-67-7-80-37-2-4-4-11-5-15-6-29 14-65 42-74 30-9 73 1 86 39zm346-252c14-4 27-9 40-13l3-1c1 0 1-4 0-9-2-11-5-22-7-34-1-4-5-8-9-7l-7 1c-11 1-22 2-33 4-3 0-4-2-5-3-5-8-10-15-15-22-1-2-1-4 0-6 6-13 13-26 19-38 2-3 2-5-1-6-12-8-24-16-37-23 0-1-1-1-1-1-1-1-3-1-3 0l-2 2c-9 11-17 23-26 34-2 2-3 2-5 2-9-2-18-4-26-5-3-1-4-1-5-4-4-14-8-28-12-43l-1-1s-4 0-8 1l-36 7c-4 1-7 6-7 10 1 6 2 11 2 17 1 7 2 14 2 22 0 1 0 3-2 4l-21 16c-2 1-3 1-5 0-13-6-26-13-39-20-3-1-4-1-5 2-8 12-16 25-24 37-1 2-1 4 1 5l33 27c2 2 3 3 2 6-1 8-3 16-3 24-1 3-2 5-5 6-14 4-28 8-43 12 0 0-1 0-1 1-1 0 0 4 0 8 3 12 5 24 8 36 1 4 5 7 8 7l7-1c12-1 23-2 34-4 2 0 4 1 5 3 4 7 9 14 14 20 2 3 2 4 1 6-7 13-13 26-20 39 0 0-1 1-1 2-1 0 1 3 3 4l5 3c11 7 21 13 32 20 2 2 3 1 5-1l28-34c2-2 3-2 5-2 8 2 17 3 25 5 2 0 3 1 4 3 5 14 9 28 14 42v2c1 1 5 1 9 0l34-8c5-1 8-5 7-10l-1-16c-1-8-2-15-3-22 0-2 0-3 2-5 8-5 15-10 23-15 2-1 3-1 5 0l36 19c1 1 2 1 3 2s4-2 7-5c6-11 13-21 20-31 2-4 3-8 3-8l-2-2c-12-9-23-18-35-27-2-2-2-3-2-5 2-9 4-17 6-25 0-2 1-3 3-4zm-109 42c-27 9-54-9-61-31-8-28 6-56 34-64 23-6 51 10 58 33 10 30-9 55-31 62zM563 826c-32 10-65 15-98 15-137 0-257-87-300-217-39-122-3-254 94-338l15-12c4-3 4-9 2-12l-44-56c-2-4-7-4-11-1l-17 14C79 326 32 495 83 651c54 166 208 277 382 277 43 0 85-6 125-20 38-12 74-30 106-52l18-14c4-2 5-7 2-11l-43-55c-3-4-8-5-12-2l-16 11c-25 17-53 31-82 41z"/></svg>