<svg width="64" height="64" viewBox="0 0 1000 1000" xmlns="http://www.w3.org/2000/svg"><path d="M909 598c9 6 18 7 28 6-5-28-23-43-46-55-22-11-46-16-70-11 0-11 7-14 16-16 22-3 22-3 22-26 0-19 0-19-16-25-4-15-6-31-10-45-20-62-54-116-90-168l-23-31c-16-23-39-31-65-31-73 1-146 0-219 1-65 0-129 0-194 2-34 1-68 9-98 27-42 24-65 60-65 112 1 39 0 79 0 119v11h254V274c0-18 6-23 23-23h128c18 0 24 7 24 25v347c0 7 0 13-1 19-3 13-8 17-21 17h-77c-16 0-27-12-28-28-1-15-2-30-4-44-3-21-7-43-23-58-12-12-22-24-22-42H79v39c-6 2-11 3-16 4v42c17 5 17 5 17 24v107h634c0-4 1-7 1-10 14-104 121-143 194-95zM666 432h-99c-13 0-21-8-23-20-1-7 0-14 0-21V274c0-17 5-23 22-23h84c13 0 24 6 25 23 4 44 9 88 14 132 1 17-7 26-23 26zm60-33c-8-42-16-84-23-126-2-10 7-21 17-20 2 0 5 2 6 4 32 44 59 90 81 140v4c-21 4-41 8-62 12-9 2-17-4-19-14zm115 197c-60-4-103 46-104 97-5 57 37 107 96 110 51 4 99-35 104-95 5-59-37-109-96-112zm-4 137c-18 1-33-14-33-33s14-34 32-34c18-1 33 15 33 33 0 19-14 34-32 34zm-629 21c-18 0-32-14-32-32h-65c2 42 49 81 95 82 47 1 94-38 99-82h-66c0 18-14 32-31 32z"/></svg>