<svg width="64" height="64" viewBox="0 0 1000 1000" xmlns="http://www.w3.org/2000/svg"><path d="M910 65c-7-38-36-55-78-50-15 2-20 0-17-15H184c2 12 2 18-15 16-49-7-78 16-83 67-7 62 2 123 29 179 30 64 68 79 141 57 18-5 25-1 34 14 28 45 65 83 115 106 9 4 9 8 5 16-21 45-29 94-36 142-1 11 2 13 12 13 73 0 147-1 221 0 15 0 13-9 12-18-6-45-14-89-33-131-5-11-5-16 7-22 52-23 89-62 119-110 7-12 13-17 28-11 14 6 29 7 43 10 36 6 64-7 83-36 46-69 59-146 44-227zM253 290c-15 2-29 6-45 9-25 4-42-9-55-28-24-33-33-71-39-110-2-15-3-30-4-38 0-23 2-40 8-55 9-24 52-34 71-16 3 3 3 7 3 11 14 74 33 146 67 214 3 7 3 11-6 13zm129 35c-11 9-18 0-25-9-47-70-76-148-97-228-1-2-1-4-1-6 1-8 3-14 12-16 9-1 15 2 18 12 6 23 13 46 21 68 18 54 40 105 73 152 7 9 10 19-1 27zm507-207c-2 46-8 92-30 133-31 59-57 54-115 38-9-3-5-7-3-11 33-69 53-142 67-217 0-4 0-7 4-10 25-20 67-5 73 26 3 14 6 27 4 41zM691 666c-1-25-16-39-41-40H350c-28 0-44 14-44 39-1 33 0 66 0 99h-99v236h585V764H690c0-33 1-65 1-98z"/></svg>