<svg width="64" height="64" viewBox="0 0 1000 1000" xmlns="http://www.w3.org/2000/svg"><path d="M272 944c-56 25-112 9-151-45-42-57-64-121-66-191 0-17 4-33 11-48 2-5 3-9 0-14-37-58-54-123-60-190-9-87-2-172 27-255 17-49 41-95 81-129 65-56 147-49 204 14 14 15 26 32 36 51 4 7 7 12 17 9 10-2 8-9 8-15 0-61 38-113 92-127 77-20 150 32 156 111 1 8 2 15 2 22-1 7 0 11 8 13s12 0 16-7c13-24 29-45 50-62 63-55 145-50 202 11 41 45 64 100 77 158 28 124 21 246-30 364-1 2-2 5-3 7-8 13-18 26-23 40-4 14 9 26 10 41 2 32-2 63-12 94-13 46-35 89-68 126-37 40-81 51-133 34-10-4-12-6-5-16 29-42 42-89 38-140-4-61-43-106-107-125-45-13-91-16-136-17-57-1-115-2-171 12-61 16-102 57-110 112s4 105 34 152c1 3 3 6 6 10zm523-582c4 16 8 33 11 50 13 63 18 125 11 189-2 15 1 18 16 16 4-1 7-4 9-7 6-9 12-18 17-28 29-59 39-121 41-185 1-66-8-130-36-191-9-20-21-39-38-53-18-16-35-16-54-3-16 12-26 27-36 44-4 6-4 10 1 15 7 9 13 20 17 31 23 61 0 125-58 163-42 27-89 39-138 45-7 1-8-2-8-7-1-15-5-27-17-37-15-12-31-16-50-9s-30 22-32 42c0 6 1 11-8 9-47-7-93-19-133-45-75-48-91-129-40-201 3-5 3-8 1-12-7-12-14-24-23-34-29-31-53-30-80 1-17 18-29 39-37 62-40 107-42 216-8 326 7 20 16 39 28 57 6 9 15 7 22 6 7-2 4-9 3-14-4-50-1-99 8-148 6-32 13-63 24-96 10 55 43 88 88 111s93 34 143 39c6 1 11 1 11 10 2 28 22 47 48 47 26 1 46-16 50-44 2-8 4-11 12-11 29-2 58-6 87-15 67-19 126-48 148-123zM504 133c14 0 28 1 42 1 4 0 8 1 8-6 2-22-14-47-37-52-33-9-63 15-64 50 0 6 4 7 9 7h42zm-15 867c-79-4-143-35-185-104-18-31-25-65-21-101 4-37 27-58 61-70 25-9 52-12 79-13 67-3 135-4 202 11 15 3 29 9 41 17 31 19 45 54 37 96-15 84-69 132-147 156-22 6-44 9-67 8z"/></svg>