<svg width="64" height="64" viewBox="0 0 1000 1000" xmlns="http://www.w3.org/2000/svg"><path d="M672 891c-83-113-167-226-250-339-24-32-34-67-12-103 30-47 92-45 129 4 72 97 143 194 215 291 8 10 12 24 26 28-16-39-46-70-69-104-54-77-112-152-164-231-35-52-27-80 18-112-1-1-2-3-3-3-50-32-114-42-150-97-8-12-17-1-23 4-49 36-97 72-146 107-13 10-13 16-4 28 24 30 30 67 34 103 3 24 2 49 14 71 40-38 72-39 110 9 99 123 194 248 283 379 15 22 25 47 13 74h15c41-12 82-26 112-59-82 25-96 20-148-50zm199-158c-83-115-166-229-250-344-6-8-14-16-22-23-13-11-27-23-45-10-14 10-11 27-6 43 7 20 18 38 30 55 76 104 151 209 227 313 14 19 31 36 48 52 7 8 18 17 31 9 11-6 15-17 14-28 0-27-13-48-27-67zM608 853c-74-98-149-197-224-294-15-19-37-43-63-25-28 19-6 46 7 65 88 123 177 245 271 363 12 15 27 29 48 32 29 3 39-12 26-43-15-36-41-66-65-98zM422 174c-14-18-24-41-45-53-18-12-34-2-50 9-47 36-95 70-142 106-52 37-52 50-13 100 11 14 18 19 34 7 67-51 135-100 202-151 6-4 14-7 14-18zm-249 48c48-35 89-66 135-100-59-24-111-46-134-108-8-20-37-17-55-1-19 17-25 39-3 58 21 18 41 37 46 66 4 26 7 52 11 85zm354 245c-32-43-75-47-101-9-21 30-8 58 10 83 88 120 176 239 264 358 10 14 22 26 38 34 37 16 79-9 80-53-1-14-9-30-20-45-20-28-40-55-60-83-71-95-140-190-211-285z"/></svg>