<svg width="64" height="64" viewBox="0 0 1000 1000" xmlns="http://www.w3.org/2000/svg"><path d="M995 280c-5-67-53-117-120-118H758c-37 1-37 1-37-35C721 52 672 3 596 2H394c-54 1-99 36-114 88-5 19-4 37-3 55 0 15-5 18-19 18-43-1-85 0-128 0C52 163 9 212 3 291c-4 55-4 105-1 163 3 48 15 81 51 107 3 2 6 4 8 7 105 82 227 118 358 131 16 1 21-3 21-19 3-37 27-64 57-65s53 22 60 60c1 3 2 6 2 9-1 14 4 16 18 16 51-5 102-14 152-28 94-27 180-68 249-140 9-10 16-19 18-34 8-74 3-147-1-218zM345 167c0-62 69-113 154-113 84 0 153 51 153 113H345zm155 472c-24-1-45 29-44 63 0 32 20 60 43 60 24 0 43-27 43-61s-19-61-42-62zm496-86h-1l-75 68c-61 41-163 90-325 114 0 0-22-2-37 7-15 10-16 39-57 43h-2c-42-4-42-33-58-43-15-9-36-7-36-7-163-24-265-73-325-114L4 553v298c-1 12 0 22 1 31 0 3 1 6 1 9 16 103 106 102 106 102s7 0 19 1c59 4 214 5 368 4h1c155 1 309 0 369-4 12-1 18-1 18-1s91 1 106-102c1-3 1-6 1-9 1-9 2-19 2-31V553zM500 998zm0 0h-1 1z"/></svg>