<svg width="64" height="64" viewBox="0 0 1000 1000" xmlns="http://www.w3.org/2000/svg"><path d="M397 333c52 0 95-61 95-135 0-75-43-136-95-136s-95 61-95 136 42 135 95 135zM220 524c95-21 82-135 79-159-4-39-49-106-111-100-77 6-88 118-88 118-10 51 25 161 120 141zm403-182c70 9 115-66 124-123S711 97 661 85c-50-11-112 69-117 121-7 63 9 127 79 136zm278 95c0-27-22-109-106-109s-95 77-95 132c0 52 4 125 108 122 105-2 93-117 93-145zM795 676s-109-84-172-175c-86-134-208-80-249-11-41 68-104 111-113 122s-131 77-104 198c27 120 122 118 122 118s70 7 152-11c81-19 151 4 151 4s190 64 242-59-29-186-29-186zM469 858H346c-54-10-75-47-78-53-2-7-17-36-9-86 23-75 88-80 88-80h66v-81l56 1v299zm88-1c-55-14-57-53-57-53V647l57-1v141c4 15 23 18 23 18h58V647h62v210H557zM321 721c-3 8-9 29-4 46 11 40 46 42 46 42h49V688h-53c-24 7-35 26-38 33z"/></svg>