<svg width="64" height="64" viewBox="0 0 1000 1000" xmlns="http://www.w3.org/2000/svg"><path d="M445 311c-7-5-18-4-23 3L302 470c-6 7-5 18 3 23l249 193c8 5 18 4 23-3l121-156c5-7 4-18-3-23L445 311zm129 209s-6 7-16 14c-8 5-19 9-24 10-4 2-7 3-9 3-27 5-46 9-59 11-9 2-16-3-16-12 0-13-1-33-4-60v-17c1-9 4-17 6-23 3-8 12-20 20-24 13-7 28-6 40 3 8 6 13 15 14 23 2 9 6 13 15 12s18 2 26 7c16 13 19 37 7 53zm321-411L776 17c-36-28-87-21-115 15L455 299l249 192 206-267c27-36 21-88-15-115zm-192 29c3-5 9-5 13-2s5 9 2 13-10 5-14 2-5-9-1-13zm-3 45c3-4 9-5 14-2 4 3 5 10 1 14-3 4-9 5-13 1-4-3-5-9-2-13zm-7 49c3-4 9-5 14-2 4 4 5 10 1 14-3 4-9 5-13 2s-5-10-2-14zm7 47c4 4 5 10 2 14-4 4-10 5-14 2-4-4-5-10-1-14 3-4 9-5 13-2zm-30-167c3-4 9-5 13-2s5 9 2 14c-3 4-9 5-14 1-4-3-5-9-1-13zm-6 44c4-5 10-5 14-2s5 9 2 13c-4 4-10 5-14 2s-5-9-2-13zm-8 47c3-4 9-5 13-1 5 3 5 9 2 13s-9 5-13 2-5-9-2-14zm-32-79c3-4 9-5 13-1 4 3 5 9 2 13s-9 5-13 2c-5-4-5-9-2-14zm-82 154c-3 4-9 4-13 1-5-3-5-9-2-13s9-5 13-2 5 9 2 14zm35 27c-3 4-9 5-13 1-5-3-5-9-2-13s9-5 13-2c5 3 5 9 2 14zm6-49c-3 4-9 5-14 1-4-3-4-9-1-13s9-5 13-2 5 10 2 14zm4-52c-4 4-10 5-14 2s-5-9-2-14c4-4 10-4 14-1s5 9 2 13zm25 128c-3 4-9 5-13 1-4-3-5-9-2-13s9-5 13-2c5 4 5 10 2 14zm8-48c-3 5-9 5-13 2s-5-9-2-13 9-5 14-2c4 3 4 9 1 13zm7-49c-3 5-9 5-13 2-5-3-5-9-2-13 3-5 9-5 13-2s5 9 2 13zm-5-46c-4-3-5-9-2-13s10-5 14-2 5 9 2 13c-4 5-10 5-14 2zm25 170c-3 4-9 5-13 2-4-4-5-10-2-14 4-4 9-5 14-2 4 4 5 10 1 14zm11-46c-4 4-10 5-14 2s-5-9-2-14c4-4 10-4 14-1s5 9 2 13zm-7-47c-4-3-5-9-2-14 3-4 9-5 14-1 4 3 5 9 1 13-3 4-9 5-13 2zm32 120c-4 4-10 5-14 2-4-4-5-10-2-14 4-4 10-5 14-2 4 4 5 10 2 14zm12-44c-3 4-9 5-14 2-4-3-4-10-1-14s9-5 13-1c4 3 5 9 2 13zm23 71c-4 4-10 5-14 2-4-4-5-9-2-14 4-4 10-5 14-1 4 3 5 9 2 13zm14-42c-3 4-9 5-13 1-4-3-5-9-2-13s9-5 13-2c5 4 5 10 2 14zm7-49c-3 4-9 5-13 1-5-3-5-9-2-13s9-5 13-2 5 9 2 14zm7-49c-3 4-9 5-14 1-4-3-5-9-1-13 3-4 9-5 13-2s5 9 2 14zm7-49c-4 4-10 4-14 1s-5-9-2-13c4-4 10-5 14-2s5 9 2 14zm4-44c-3 4-9 5-13 2-4-4-5-10-2-14s9-5 14-2c4 4 5 10 1 14zm3-44c-3 5-9 5-13 2s-5-9-2-13 9-5 14-2c4 3 5 9 1 13zm22 219c-4 4-10 5-14 1-4-3-5-9-2-13 4-4 10-5 14-2s5 9 2 14zm3-52c-3 4-10 4-14 1s-5-9-1-13 9-5 13-2 5 9 2 14zm7-49c-4 4-10 4-14 1s-5-9-2-13c4-4 10-5 14-2s5 9 2 14zm5-44c-4 4-10 5-14 2s-5-9-2-14c4-4 10-5 14-1s5 9 2 13zm2-44c-3 5-9 5-13 2s-5-9-2-13c3-5 9-5 13-2 5 3 5 9 2 13zm5-47c-3 4-9 5-13 1-4-3-5-9-2-13 4-4 9-5 14-2 4 4 5 10 1 14zm28 166c-3 4-9 5-13 2-5-4-5-10-2-14s9-5 13-2c5 4 5 10 2 14zm2-46c-3 4-9 5-14 2-4-4-4-10-1-14s9-5 13-2 5 10 2 14zM90 776c-28 36-21 88 15 115l119 92c36 28 87 21 115-15l206-267-249-192L90 776zm178-147c3-4 9-5 13-2 4 4 5 10 2 14s-9 5-14 2c-4-4-4-10-1-14zm-87 144c-3 4-9 5-13 2-4-4-5-10-2-14s9-5 13-2c5 4 5 10 2 14zm2-46c-3 4-9 5-13 2s-5-10-2-14 9-5 13-2c4 4 5 10 2 14zm28 166c-4 4-10 5-14 2-4-4-5-10-2-14 4-4 10-5 14-1 4 3 5 9 2 13zm5-48c-3 4-9 5-14 2-4-3-5-9-1-13 3-5 9-5 13-2s5 9 2 13zm2-43c-3 4-9 5-13 1-4-3-5-9-2-13s9-5 14-2c4 3 5 9 1 14zm6-44c-4 4-10 5-14 2s-5-9-2-14c4-4 10-5 14-1 4 3 5 9 2 13zm6-49c-3 4-9 5-13 2-4-4-5-10-2-14s9-5 14-2c4 4 5 10 1 14zm3-52c-3 4-9 5-13 2s-5-10-2-14 9-5 14-1c4 3 5 9 1 13zm22 218c-3 5-9 5-14 2-4-3-5-9-1-13 3-5 9-5 13-2s5 9 2 13zm3-43c-4 4-10 5-14 2-4-4-5-10-1-14 3-4 9-5 13-2 4 4 5 10 2 14zm4-44c-3 4-9 5-13 2-4-4-5-9-2-14 4-4 9-5 14-1 4 3 5 9 1 13zm7-49c-3 4-9 5-13 2-4-4-5-9-2-14 3-4 10-5 14-1 4 3 5 9 1 13zm7-49c-3 4-9 5-13 2-5-4-5-10-2-14s9-5 13-2c4 4 5 10 2 14zm21 172c-3 5-9 5-13 2s-5-9-2-13 10-5 14-2 5 9 1 13zm3-45c-3 4-9 5-14 2-4-4-5-10-1-14 3-4 9-5 13-2 4 4 5 10 2 14zm7-49c-4 4-10 5-14 2-4-4-5-10-2-14 4-4 10-5 14-2 4 4 5 10 2 14zm-9-61c3-4 9-5 14-2 4 3 5 10 1 14-3 4-9 5-13 1-4-3-5-9-2-13zm32 181c-3 4-9 5-13 2-4-4-5-10-2-14s9-5 14-2c4 4 5 10 1 14zm6-44c-4 5-10 5-14 2s-5-9-2-13c3-5 10-5 14-2s5 9 2 13zm8-48c-3 5-9 6-14 2-4-3-4-9-1-13s9-5 13-2 5 9 2 13zm32 80c-3 4-9 5-13 1-5-3-5-9-2-13s9-5 13-2c5 4 5 10 2 14zm82-154c3-4 9-4 13-1 5 3 5 9 2 13s-9 5-13 2c-5-3-5-9-2-14zm-35-27c3-4 9-5 13-1 4 3 5 9 2 13s-9 5-13 2-5-10-2-14zm-6 49c3-4 9-5 13-2 5 4 5 10 2 14s-9 5-13 2c-4-4-5-10-2-14zm-4 52c4-4 10-5 14-2s5 9 2 14c-4 4-10 5-14 1-4-3-5-9-2-13zm-25-128c3-4 9-5 13-2 4 4 5 10 2 14s-9 5-14 2c-4-4-5-10-1-14zm-8 48c3-5 9-5 13-2s5 9 2 13-9 5-14 2c-4-3-5-9-1-13zm-7 49c3-5 9-6 13-2 4 3 5 9 2 13s-9 5-13 2c-5-3-5-9-2-13zm5 46c4 3 5 9 2 13-4 4-10 5-14 2s-5-9-2-14c4-4 10-5 14-1zm-25-170c3-4 9-5 13-2 4 4 5 10 2 14s-10 5-14 2c-4-4-5-10-1-14zm-11 46c4-5 10-5 14-2s5 9 2 13c-4 5-10 5-14 2s-5-9-2-13zm7 47c4 3 5 9 2 14-4 4-10 4-14 1s-5-9-1-13c3-4 9-5 13-2zm-32-120c4-4 10-5 14-2 4 4 5 9 2 14-4 4-10 5-14 1-4-3-5-9-2-13zm-12 44c3-4 9-5 13-2 5 3 5 9 2 14-3 4-9 4-13 1s-5-9-2-13zm-8-59c-3 4-9 4-13 1s-5-9-2-13 9-5 14-2c4 3 5 9 1 14z"/></svg>