<svg width="64" height="64" viewBox="0 0 1000 1000" xmlns="http://www.w3.org/2000/svg"><path d="M625 510c-4 0-8 1-11 3-4 2-5 5-5 8s1 6 4 8 5 3 9 3c2 0 5-1 8-2 2-1 5-2 6-4 3-1 4-4 4-6v-8c-2-1-5-1-7-2h-8zm-83-33c2-1 3-5 3-9 0-3-1-6-3-8s-4-4-7-4h-27v24h26c3 0 5-1 8-3zm4 46c2-2 3-5 3-9s-1-7-3-9-4-4-8-4h-30v25h29c4 0 7-1 9-3zm301-369H153C69 154 0 223 0 308v384c0 85 69 154 153 154h694c84 0 153-69 153-154V308c0-85-69-154-153-154zM685 464h24v14c3-5 7-9 13-12 6-2 12-4 20-4 5 0 10 1 13 3s6 5 8 8 3 7 4 11 1 7 1 11v54h-26v-48c0-5-1-10-4-12s-4-4-8-4c-2 0-4 1-5 1l-6 3c-1 2-3 3-4 5-2 2-3 4-4 6v49h-25v-85zm-204-30h64c4 0 8 1 11 2 3 2 6 4 8 7 3 3 4 6 6 10 1 3 2 7 2 10 0 6-2 11-5 16-2 5-6 8-12 11 7 2 12 5 16 10s5 12 5 19c0 5-1 10-3 13s-5 7-8 10c-4 2-8 4-13 5s-9 2-15 2h-56V434zm-325-4c37-20 75-40 113-60 3-1 8-2 10-1l120 63s0 1 1 2H149c3-2 5-3 7-4zm246 201H151v-21h251v21zm0-26H151v-18h251v18zm-234-22V458h34v125h-34zm61-97v-27h34v124h-29c-6 0-5-4-5-8v-89zm63 97V459h31v124h-31zm60 0V459h31v124h-31zm50-129H149c0-2-1-4-1-6-1-7 2-9 9-9h245v15zm122 130h-17v44h-10v-44h-17v-9h44v9zm29 13c-3 0-6 1-8 2s-4 3-5 5v24h-10v-39h9v8c1-3 3-5 5-7 2-1 4-2 7-2h2v9zm41 31h-5c-2 0-3 0-4-1s-2-2-2-3v-3c-2 3-4 4-6 6s-6 1-8 1-4 0-6-1c-1 0-3-1-4-2s-2-3-3-4c0-2-1-3-1-5s1-3 2-5c0-2 2-3 3-4s3-2 5-3c2 0 4-1 7-1 2 0 3 1 5 1s3 1 4 1v-2c0-3 0-5-2-6-1-1-3-2-6-2-2 0-4 0-6 1s-4 2-7 3l-3-6c5-3 11-5 17-5 5 0 10 1 13 4s4 7 4 12v12c0 1 0 2 1 2s1 1 2 1v9zm43 0h-10v-22c0-3-1-6-2-7s-2-2-4-2h-3c-1 0-2 1-3 2l-3 3c0 1-1 2-1 3v23h-10v-39h9v7c1-2 3-4 6-6s6-2 9-2 5 1 6 1 3 3 4 4 1 3 1 5 1 4 1 5v25zm-6-81c-6 2-11 4-17 4-4 0-8-1-12-2l-9-6c-3-3-5-5-6-9-2-3-3-7-3-11s1-8 3-11 4-6 8-9 7-4 11-6 9-2 15-2c3 0 7 0 10 1 4 1 7 2 9 3v-4c0-10-6-15-17-15-5 0-9 1-13 2-4 2-9 4-14 8l-7-17c5-3 11-6 17-8s13-3 20-3c13 0 22 3 29 9s11 15 11 27v22c0 2 0 4 1 5s3 2 6 2v22c-3 0-5 1-7 1h-6c-5 0-8-1-11-3s-4-4-4-8l-1-3c-4 4-8 8-13 11zm45 74c-1 2-2 3-3 4s-4 2-6 3c-2 0-4 1-6 1s-3-1-5-1-3 0-5-1-3-1-5-1c-1-1-3-2-4-3l4-6c5 3 10 4 15 4 2 0 3 0 5-1s1-2 1-3 0-2-2-3-4-1-7-2c-2-1-5-1-6-2s-4-2-5-2c-1-1-2-2-2-3s-1-3-1-4c0-2 1-4 1-5 1-2 2-3 4-4s3-2 5-3 4-1 6-1c3 0 5 0 8 1s6 2 8 4l-4 6-6-3c-2-1-4-1-6-1s-3 0-5 1-1 2-1 3c0 2 0 3 1 3 1 1 3 2 6 2 3 1 6 2 8 2s3 2 4 3c2 1 3 2 3 3 1 1 1 3 1 4 0 2 0 4-1 5zm30-38c-1-1-2-1-3-1s-2-1-2-1c-4 0-6 2-6 7v5h10v8h-10v27h-10v-27h-5v-8h5v-4c0-5 2-9 4-12s5-4 9-4 7 1 10 2l-2 8zm44 27c0 1 0 1-1 1h-30c0 2 1 3 1 5s2 2 3 3c1 0 2 1 3 1s2 1 4 1 3 0 5-1 3-2 4-4l8 2c-1 3-3 6-7 8-3 2-6 3-11 3-3 0-6-1-8-2-3-1-5-3-7-4s-3-4-4-7c-1-2-1-5-1-7 0-3 0-6 1-8 1-3 2-5 4-7s4-3 7-4c2-1 5-2 8-2s6 1 9 2 4 3 6 4 3 4 4 7c1 2 2 5 2 7v2zm29-13c-3 0-6 1-8 2s-4 3-5 5v24h-10v-39h9v8c1-3 3-5 5-7 2-1 4-2 7-2h2v9zm63-48l-23-34-9 9v25h-26V431h26v68l29-35h28l-31 36 33 49h-27zm-269 60c-2 0-4 1-6 2-1 1-2 2-2 4s0 3 2 4 2 2 4 2 4 0 5-1 3-1 4-2 1-2 1-3v-4c-1-1-2-1-4-2h-4zm156-14c-1 0-2 1-4 1s-2 1-3 2-1 2-2 3-1 3-1 4h20c0-3-1-5-3-7s-4-3-7-3z"/></svg>