<svg width="64" height="64" viewBox="0 0 1000 1000" xmlns="http://www.w3.org/2000/svg"><path d="M898 175H102c-22 0-39 17-39 39v261c0 22 17 39 39 39h796c22 0 39-17 39-39V214c1-22-17-39-39-39zM145 457c-3 2-5 5-8 7-7 6-16 6-24 4-7-2-6-14-5-20-2-37 1-68 1-103 0-10 5-19 12-26 31-29 61-60 91-90 4-4 8-8 15-8h148l2 5c-49 48-98 97-147 146-29 28-54 59-85 85zm329-6c-12 12-24 18-42 18-43-1-87-1-131-1l-3-4c36-35 71-70 106-105 44-43 87-86 130-129 5-5 9-10 16-10 50 1 100 1 149 1l3 4c-29 29-59 57-88 86-47 46-94 93-140 140zm408-85c-32 31-63 63-94 94-5 5-10 8-17 8H624c-1-1-1-3-2-4 61-60 121-121 182-181 18-18 37-36 54-55 8-8 22-9 26-6 5 2 4 12 4 19 1 35 0 70 0 106 0 7-1 13-6 19zM268 778V530h-63v249H89v46h292v-46H269c-1 0-1-1-1-1zm525 0V530h-63v249H616v46h291v-46H794l-1-1z"/></svg>