<svg width="64" height="64" viewBox="0 0 1000 1000" xmlns="http://www.w3.org/2000/svg"><path d="M936 527c-1-13-4-26-8-39-9-29-23-56-39-81-13-19-27-36-42-53-17-19-36-36-56-52-3-2-6-4-9-7-2 3-3 6-5 9-10 19-23 38-38 54-17 18-37 33-62 41-15 5-31 7-48 5-23-2-44-9-63-20-2-1-3-2-4-5 0-8-2-16-4-24-1-1-1-2 0-3 11-15 15-32 14-50-1-5-2-11-3-16 0-1-1-1-2-1-2-1-4-1-7-1h-2c-5 0-11 1-16 3-8 4-15 9-22 16-1 1-3 3-5 4-1 0-3-1-6-1-8-1-17-1-26 1-2 1-3 0-4-1-6-6-13-12-21-17-5-2-11-4-17-5h-12c-1 0-2 1-2 2-3 9-4 17-4 26 1 15 5 29 15 40 2 3 3 6 2 10-2 6-3 13-4 19 0 1 0 2-1 2-14 11-29 18-47 22-11 3-23 4-35 2-18-1-35-7-50-16-15-8-28-19-40-31-20-18-36-40-51-63-2-2-2-2-3 0-21 18-39 39-56 60-19 24-36 50-50 77-16 30-28 61-36 94-2 7-3 15-4 23v2c26-12 54-20 82-25 20-4 40-6 61-5 23 1 46 5 67 16s38 26 50 47c3 5 6 11 8 17 1 1 1 1 3 0 12-12 26-20 43-24 19-4 36 0 51 11 13 9 23 21 31 35 11 17 19 36 26 56 4 11 7 22 10 34l1 1c1-4 2-7 3-10 6-23 13-44 23-65 7-15 15-28 25-40 10-11 21-20 36-25 14-4 28-3 42 2 14 4 26 12 37 22 1 1 1 1 1-1 7-12 15-24 25-35 10-10 23-19 36-25 15-7 30-11 46-13 15-2 30-2 45-1 29 2 57 8 85 17 12 4 25 8 36 13 1 1 1 1 2 1v-15c-1-5-1-10-2-14z"/></svg>