<svg width="64" height="64" viewBox="0 0 1000 1000" xmlns="http://www.w3.org/2000/svg"><path d="M608 355c30 0 54 25 54 55s-24 55-54 55-55-25-55-55 25-55 55-55zm-243-16c0-36 30-66 66-66s65 30 65 66-29 66-65 66-66-30-66-66zm22 0c0 24 20 44 44 44s43-20 43-44-19-44-43-44-44 20-44 44zm48-167c0-46 38-84 84-84s84 38 84 84-38 84-84 84-84-38-84-84zm23 0c0 34 27 61 61 61s61-27 61-61-28-61-61-61-61 28-61 61zm275 698c-14 1-31 2-26 23 6 18 12 39 36 42 17 2 28-10 25-28-3-17-8-39-35-37zM63 210c0-80 65-146 146-146s146 66 146 146-66 147-146 147S63 291 63 210zm26 0c0 67 54 121 120 121s119-54 119-121S275 90 209 90 89 144 89 210zm741 344c-13 5-26 10-39 14-201 71-407 79-616 54-25-3-55-11-41 31 29 91 97 202 235 193 42-3 84-1 126-1h126c162 0 254-81 275-241 10-76 6-79-66-50zm102-129c-14-26-37-14-57-3-236 122-487 130-743 93-25-4-56-17-61 22-6 38 29 37 53 42 81 15 163 17 227 20 204-1 384-31 551-119 22-11 47-25 30-55zM288 874c-25-5-29 18-34 34-4 16 9 27 24 28 25 1 34-23 38-42 5-21-18-18-28-20z"/></svg>