<svg width="64" height="64" viewBox="0 0 1000 1000" xmlns="http://www.w3.org/2000/svg"><path d="M888 467c8 17 10 33-8 46-22 17-37 7-52-10 4 23-8 25-25 17-17-7-28-39-19-56 7-12 19-20 33-19 18 2 8 17 9 27 1 3 1 6 1 9 2-17 12-30 30-34 15-3 25 8 31 20zm32-252c-5 9-8 19-11 28-7 18-18 29-40 25-15-3-32-4-49 7 6 2 10 2 14 3 12 3 33 0 33 14 0 17-20 21-35 23-73 8-102 66-134 118-15 23-4 48 12 69 15 21 35 38 54 55 27 24 42 55 44 92 1 36-13 52-49 59-36 6-70-9-73-40-4-43-31-62-62-83-54-35-72-90-74-160-26 54-19 105 21 146 24 24 18 38-6 50-37 17-51 40-45 83 6 40-11 80-37 112-20 25-12 33 13 42 15 4 28 13 38 25 12 14 9 25-10 27-38 3-76 3-114-5-30-6-48-61-28-84 24-29 45-59 58-94 21-58 3-118-51-160 82 136 5 221-88 305 20 10 42 13 58 28 8 7 16 15 14 26-4 12-17 10-26 10-26 1-52 2-77 1-63-3-99-47-85-108 9-39 8-73-20-105-11-13-18-30-23-46-8-26-15-48-48-54-20-3-23-29-3-40 32-16 44-43 55-74 8-23 24-40 45-52l63-39c52-32 97-68 118-129 28-81 86-129 173-142 22-3 43-12 65-17 21-5 40-6 33-39-5-25 21-29 41-30 22 0 43 7 39 33-4 25 8 30 26 34 16 4 32 9 48 13 20 5 31 16 36 37 8 31 34 38 60 17 7-5 13-11 22-5s9 14 5 24zm-232-43c-1-16-14-28-31-30-14-1-24 8-26 21-2 20 12 30 27 35 15 4 31-13 30-26zm103 36c-6-8-15-6-22-9-9-4-19-8-28 1-4 4-3 8 0 11 8 7 17 12 28 11 9-1 18-3 22-14zm83 324h-68c14 32 49 42 74 22 5-5 13-9 10-17-2-7-10-5-16-5zm-41-94h34c12-1 19-6 10-17-25-32-60-47-98-54-23-4-31 23-44 37-11 14-31 30-23 46 5 10 31 10 52 15 3 1 10 0 15-7 13-19 34-20 54-20z"/></svg>