<svg width="64" height="64" viewBox="0 0 1000 1000" xmlns="http://www.w3.org/2000/svg"><path d="M895 422c-67-56-144-87-232-85-79 3-134 76-114 150 9 30 13 59 19 89 7 40 14 80 29 119 13 35 38 57 75 67 25 7 49 10 75 9h16c57-1 94-27 112-81 5-14 10-28 14-42 15-52 29-104 29-159 0-25-2-50-23-67zm-568 2c-79 0-149 29-212 75-20 15-30 35-32 58-1 18-1 36 1 54 8 62 26 121 46 179 5 14 13 26 24 36 28 26 61 35 101 32 5 0 12 0 20-1 100-7 121-41 140-111 16-59 22-120 37-179 6-21 3-44-5-65-21-55-65-78-120-78zm101-1c24-20 29-70 10-95-15-19-35-18-48 2-10 14-14 30-14 46s4 31 15 43c12 12 25 14 37 4zm160-81c13 0 22-8 28-20 14-24 9-63-9-84-11-12-27-13-39-2-13 12-17 27-17 44 0 15 3 30 11 43 6 10 13 20 26 19zm-272 65c17 0 31-19 34-41v-5c0-14-7-34-16-44-12-12-26-13-37 0-13 15-19 33-14 53 5 23 18 38 33 37zm395-105c12-22 11-45-3-66s-32-20-46 0c-8 12-12 24-11 40-1 8 2 18 7 27 15 23 39 23 53-1zM152 430c15 12 32 8 40-10 5-12 6-24 6-36-1-9-2-17-3-26 0-3-1-7-2-11-5-13-14-17-27-12-19 9-29 27-31 47-3 18 2 35 17 48zm757-129c-14-8-26-3-30 13-3 11-4 22-5 33 0 11 1 22 4 32s8 19 19 21c11 3 20-2 28-10 22-24 14-73-16-89zm-153 26c15 2 25-7 31-20 12-23 9-46-2-68-10-17-27-18-39-3-11 13-15 29-16 48 1 4 2 10 3 16 3 14 7 26 23 27zM120 470c5-11 5-23 5-36-1-12 0-24-4-36-5-13-15-17-27-12-18 8-27 24-30 42-4 20-1 39 16 52 15 13 33 8 40-10zm733-131c22-25 14-74-16-89-14-7-24-3-30 12-4 11-3 22-4 34 1 11 0 22 3 33 9 23 30 28 47 10zm-628 70c16 10 32 6 39-11 4-9 4-19 5-28 0-18-3-34-15-48-9-12-21-13-32-5-18 14-25 73 3 92zm685-130c7-1 8-6 6-12-4-17-13-31-25-47 2 19 4 35 5 50 1 9 8 9 14 9zM90 365c7 1 14 0 15-9 1-14 2-29 4-47-13 15-21 28-25 43-2 6-2 12 6 13zm320-63c8-1 8-7 6-14-4-14-12-27-25-43 2 19 4 33 5 47 0 10 7 11 14 10zm358-94c9-1 8-9 6-15-5-14-13-27-25-42 2 18 3 32 4 46 1 10 8 12 15 11zm-178 7c8 2 13-1 14-10 2-15 4-29 6-48-13 16-21 28-26 43-1 6-3 13 6 15zm-357 80c8 1 13-3 13-12 1-14 3-28 5-42-11 11-20 23-24 38-2 6-4 15 6 16zm-69 23c7 1 13 0 14-10 1-14 3-28 4-42-12 11-20 23-24 37-2 7-4 13 6 15zm672-86c10-2 8-9 6-15-4-15-13-28-25-43 2 18 5 32 6 47 0 9 5 12 13 11zm-526 55c5 0 12 1 12-7 0-16-3-33-7-49-6 15-11 30-13 46-1 6 1 11 8 10zm380-87c7 0 10-4 9-10-4-15-7-31-14-48-5 18-6 34-6 49-1 9 5 9 11 9z"/></svg>