<svg width="64" height="64" viewBox="0 0 1000 1000" xmlns="http://www.w3.org/2000/svg"><path d="M772 423h-51V322c19-18 31-44 29-73-3-45-40-82-86-85-2 0-4-1-6-1-9 0-17 2-26 4-1 1-3 1-5 1-6 0-12-4-15-9-18-33-53-54-92-54-21 0-41 6-58 17-3 2-6 3-9 3-6 0-11-3-15-7-22-34-61-55-104-55-70 0-127 56-127 125v1c3 7-4 11-10 11h-4c-7-2-13-3-21-3h-5c-31 2-57 23-66 53-12 44 15 85 54 94v454c0 77 63 140 140 140h287c70 0 128-52 138-119 101-5 182-89 182-192v-74c0-72-58-130-130-130zM314 752c0 6-6 11-15 11s-16-5-16-11V546c0-6 7-11 16-11s15 5 15 11v206zm93 0c0 6-7 11-15 11s-16-5-16-11V546c0-6 7-11 16-11s15 5 15 11v206zm93 0c0 6-7 11-15 11s-16-5-16-11V546c0-6 7-11 16-11s15 5 15 11v206zm93 0c0 6-7 11-16 11s-15-5-15-11V546c0-6 7-11 15-11s16 5 16 11v206zm112-453c-12 13-29 20-47 20h-21l-242-1c-7 0-14 3-20 8-5 6-8 13-8 20v55c0 10-9 19-19 19h-9c-11 0-19-9-19-19v-55c0-15-13-28-28-28H166c-13-2-25-10-32-21-8-11-10-26-6-40 5-18 21-31 41-32 1-1 2-1 4-1 4 0 8 1 12 2s8 2 12 2c14 0 27-7 33-18 5-7 7-16 5-25 2-53 45-95 99-95 33 0 63 16 81 43 9 12 23 20 38 20 8 0 17-3 25-8 12-8 27-13 42-13 28 0 54 15 67 40 9 15 24 24 41 24 4 0 8-1 12-2 6-2 12-3 18-3h5c31 3 57 29 59 60 1 18-5 35-17 48zm169 328c0 86-67 158-153 164V451h51c56 0 102 45 102 102v74z"/></svg>