<svg width="64" height="64" viewBox="0 0 1000 1000" xmlns="http://www.w3.org/2000/svg"><path d="M853 305H633v-55h220v55zM488 528c14 22 21 49 21 80 0 32-8 61-24 87-11 17-24 31-39 43-17 13-38 22-61 27-24 5-50 7-77 7H63V228h262c67 1 114 20 141 58 17 23 25 51 25 83 0 33-8 60-25 80-9 11-23 22-41 31 27 10 49 26 63 48zm-300-86h115c24 0 43-4 58-13s22-25 22-48c0-25-10-42-29-50-17-6-38-9-64-9H188v120zm206 158c0-28-12-48-35-58-12-6-31-9-54-9H188v145h115c24 0 42-3 55-10 24-12 36-34 36-68zm540-88c3 17 4 43 3 77H654c1 39 15 67 40 82 16 10 35 15 57 15 23 0 42-6 56-18 8-6 15-15 21-27h104c-3 23-15 47-38 71-35 38-84 57-146 57-52 0-98-16-138-48-39-32-59-84-59-156 0-68 17-120 53-156s83-54 140-54c34 0 64 6 92 18 27 12 49 32 67 58 16 23 26 50 31 81zm-102 10c-2-27-11-48-28-62-16-14-36-21-60-21-26 0-46 8-61 22-14 15-23 35-27 61h176z"/></svg>