<svg width="64" height="64" viewBox="0 0 1000 1000" xmlns="http://www.w3.org/2000/svg"><path d="M689 74c21 0 54 6 86 18 6 3 7 1 7-5 2-27 12-50 34-66 29-23 61-27 94-12 35 17 53 46 51 85-1 48-36 82-87 86-7 1-8 2-5 8 27 73 23 145 1 218-23 72-61 136-114 189-51 51-75 113-90 181-7 31-13 61-24 91-13 34-39 50-74 53-42 4-82-6-120-21-62-25-116-63-166-106-66-57-125-119-173-191-29-45-54-92-65-144-6-25-8-49-4-74 5-38 27-60 63-70 35-11 71-16 107-24 29-6 57-13 84-24 27-12 49-29 70-49 37-37 79-68 126-93 58-31 120-50 199-50zm52 91c-20-7-39-9-58-10-52-1-96 19-136 51-41 33-77 71-116 106-42 39-87 73-139 97-41 19-84 33-130 32-9 0-11 2-10 11 6 33 25 57 51 77 9 6 19 9 30 7 12-3 24-5 36-9 61-20 109-58 149-107 49-60 99-119 157-170 48-41 98-79 166-85zM872 46c-25 0-45 19-45 44-1 25 20 46 45 46 24 0 44-21 45-45 0-25-20-45-45-45zM236 910c0-27 11-50 31-69 5-4 8-3 12 0 40 32 82 61 129 83 5 2 5 5 4 10-13 53-78 82-126 56-32-16-49-43-50-80z"/></svg>