<svg width="64" height="64" viewBox="0 0 1000 1000" xmlns="http://www.w3.org/2000/svg"><path d="M719 425c-27-12-55-17-84-12-25 5-47 16-67 32-6-5-11-10-17-15-29-21-60-36-97-39-50-4-91 16-126 49-13 13-25 31-32 48-18 42-18 87-15 132 3 46 5 92-1 138-5 44-1 86 27 123 22 31 50 54 90 56 59 4 104-22 133-72 3-4 5-8 8-12 7-10 10-9 16 1 11 19 26 36 44 49 45 33 128 35 162-32 30-59 47-120 49-185 1-32 4-63 4-95 0-26 0-52-6-76-11-46-46-72-88-90zM570 745c7-38 18-82 21-126 2-45-4-89-6-133 27 19 15 208-15 259zM281 493c14-48 43-81 92-98 5-2 9-4 14-6-2-2-2-4-3-5-20-18-59-38-97-23-16 6-34 9-51 10-44 1-77 23-93 63-16 39-16 79-11 120 8 64 28 126 51 187 17 43 46 78 82 110 1-2 2-4 2-5-11-31-3-62 3-93 8-42 11-84 4-127-6-45-6-88 7-133zm80-310c20-10 35-7 51 5 4 3 9 6 13 10 30 27 50 60 46 100-3 33-2 32-32 26-1 0-2 0-3 1-7 16-19 28-37 32v28c64-11 121-1 167 44 20-8 39-17 58-25-2-15-4-30-7-46-2-1-7-2-10-3-14-5-27-11-34-23-3-4-6-7-10-12-2-11-3-26-6-40-15-95-69-161-161-199-35-14-71-22-109-17-9 1-14 6-16 14-11 31-3 59 15 85 24 35 36 39 75 20zm-34-9c-1-39-23-70-48-99 21 2 52 69 48 99zm510 148c-29-36-68-48-113-32-33 12-59 34-85 56-12 10-15 22-12 36 1 7 4 13 7 20 53-3 104 1 147 33 44 33 57 80 63 131 1-2 2-4 3-7 12-38 21-77 24-117 2-43-6-84-34-120zm-255 9c9 12 22 17 39 19 2-1 7-4 10-7 14-12 28-26 43-38 22-18 45-34 75-36 4 0 9-3 13-4-1-4-2-10-5-13-19-20-44-31-72-34s-48 8-65 29-35 42-41 69c-1 5 0 12 3 15zm-346 28c7-2 15-5 22-7 46-11 88-10 125 24 2 2 5 3 9 5v-29c5-1 9-1 13-2 7-2 9-6 5-12-27-38-61-62-112-56-40 5-68 32-71 69-1 7 1 11 9 8zm207-42c12 5 17 1 19-11 6-36-8-66-32-92-2-2-6-4-8-3-30 11-56 28-77 51-5 6-3 8 3 12 12 6 25 14 35 23 13 11 23 25 37 40 3-5 6-9 8-13 2-9 6-10 15-7zm156-66c3-7 9-13 13-20 4-5 3-10-3-14-21-12-44-16-65-17 9 36 19 72 27 103 8-15 17-34 28-52z"/></svg>