<svg width="64" height="64" viewBox="0 0 1000 1000" xmlns="http://www.w3.org/2000/svg"><path d="M478 232c-7-39-15-76-23-106-11-42-35-57-53-61-58-15-135 53-159 77-4 4-4 10 0 14l15 14c3 4 10 4 14 0 30-29 88-74 120-66 4 1 17 4 25 33 7 27 14 60 20 95 1 6-2 10-8 10h-16c-5 0-10 4-9 10l41 664c0 5 5 10 10 10h2c6 0 10 2 10 6 0 3 5 6 10 6h210c5 0 10-3 10-6 0-4 4-6 10-6h2c5 0 10-5 10-10l41-664c0-6-4-10-10-10H490c-6 0-11-4-12-10zm-40 174l-8-129c0-6 3-10 6-10s8 4 9 10c7 44 14 89 19 129 1 5-3 10-8 10h-8c-5 0-10-5-10-10zm26 148c-5-10-1-22 9-27l60-29c10-5 22-1 27 9l29 59c5 10 1 22-9 27l-59 30c-10 5-22 1-27-10l-30-59zm123-13l-20-40c-1-3-4-6-6-8-4-3-8-9-8-15l2-22c1-12 11-20 23-19l69 5c12 1 21 11 20 23l-6 69c-1 12-11 21-22 20-1 0-24-2-38-3-5-1-12-5-14-10zm3 173h-66c-11 0-20-9-20-20l-1-51c0-5 2-9 4-9h4c4 0 8-1 12-2l41-21c5-2 13-4 17-4h9c11 0 20 9 20 20l1 66c0 12-9 21-21 21zm-30 167c-9 6-22 4-28-5l-38-55c-6-9-4-22 5-28l47-32c4-3 8-3 9 0v6c0 17 14 31 31 31h12c5 0 12 4 16 8l6 9c6 9 4 22-5 29l-55 37zm40-94h-14c-2 0-3-1-4-1-2 0-3 0-4-1-1 0-2-1-3-2-1 0-2-1-3-2l-2-2c-1-1-2-3-3-4-1-3-1-6-1-8l-1-15v-17c0-5 5-10 10-10h15c8 0 16-3 22-9s10-14 9-23v-6s5-7 10-7h21c11 0 20 9 20 20l1 66c0 11-9 21-21 21h-52zm-95-381c-5-39-12-84-19-130-1-5 3-9 8-9h230c5 0 10 4 9 10l-8 129c0 5-5 10-10 10H516c-5 0-10-5-11-10z"/></svg>