<svg width="64" height="64" viewBox="0 0 1000 1000" xmlns="http://www.w3.org/2000/svg"><path d="M499 427c-28 2-42 14-42 40v214c0 72 1 144 0 216 0 13 3 23 14 31 19 13 40 11 60 4 19-6 22-23 22-40 0-138-1-276 0-413 0-35-10-54-54-52zM322 581H211c-4 0-7 3-7 6v37c0 4 3 7 7 7h111c4 0 7-3 7-7v-37c0-3-3-6-7-6zm467 90H677c-4 0-7 3-7 7v36c0 4 4 7 7 7h112c4 0 7-3 7-7v-36c0-4-3-7-7-7zm-63-451c4 0 7-3 7-7V99c0-4-3-7-7-7H549c-4 0-7-2-7-4V69c0-4-3-7-7-7h-61c-4 0-7 3-7 7v19s-3 4-6 4H283c-4 0-7 1-7 1v120c0 4 3 6 7 6h54c4 0 7-2 7-6v-72c0-4 3-7 6-7h110c4 0 7 3 7 7v37c0 4-3 6-7 6h-38c-4 0-7 3-7 7v37c0 4 3 7 7 7h18c4 0 7 2 7 6v82c-1 3-3 6-6 8-24 24-49 47-73 70-4 4-7 11-7 16v248c0 3 4 6 7 6h49c4 0 7-3 7-6v-6-222c0-7 2-12 7-17 13-12 27-23 38-37 12-14 26-20 45-17 4 1 10 3 13 6 17 16 32 32 49 48 6 5 8 11 8 18-1 73 0 147 0 220v6s3 7 6 7h49c4 0 7-2 8-5v-4-247c0-5-3-10-7-14-23-23-47-45-70-68-3-3-6-6-6-10-1-27-1-54-1-82 0-4 3-7 7-7h17c4 0 7-3 7-6v-38c0-3-3-6-7-6h-38c-4 0-7-3-7-7v-36c0-4 3-7 7-7h109c4 0 7 3 7 7v72c0 4 3 6 7 6l54 1z"/></svg>