<svg width="64" height="64" viewBox="0 0 1000 1000" xmlns="http://www.w3.org/2000/svg"><path d="M929 669c5 0 9-4 9-9V174c0-5-4-9-9-9H792v-18c0-5-4-9-9-9h-20c-5 0-9 4-9 9v18H246v-18c0-5-4-9-9-9h-20c-5 0-9 4-9 9v18H72c-5 0-9 4-9 9v486c0 5 4 9 9 9h136v34H69c-4 0-6 3-6 6v11c0 3 2 6 6 6h139v127c0 5 4 9 9 9h20c5 0 9-4 9-9V726h508v127c0 5 4 9 9 9h20c5 0 9-4 9-9V726h139c4 0 6-3 6-6v-11c0-3-2-6-6-6H792v-34h137zm-175 34H246v-34h508v34zm-650-62c-5 0-9-4-9-9V202c0-5 4-9 9-9h792c5 0 9 4 9 9v430c0 5-4 9-9 9H104zm760-423H136c-7 0-13 6-13 14v371c0 7 6 13 13 13h728c7 0 13-6 13-13V232c0-8-6-14-13-14z"/></svg>