<svg width="64" height="64" viewBox="0 0 1000 1000" xmlns="http://www.w3.org/2000/svg"><path d="M305 167c-1-6-3-10-6-14-2-4-5-7-9-9s-9-3-14-3c-7 0-13 2-17 5-5 4-8 9-11 16-2 7-3 17-3 28 0 18 3 31 9 39 6 7 13 11 22 11 7 0 13-2 18-6s8-9 10-16c3-7 4-17 4-28 0-10-1-17-3-23zm-15 55c-4 5-8 8-14 8-5 0-10-3-13-8-4-6-6-16-6-32s2-27 6-33c3-4 8-7 13-7s10 3 14 8c4 6 5 16 5 32s-1 26-5 32zm74 16v-97h-7c-2 4-6 8-11 13-5 4-11 8-17 11v11c4-1 8-3 12-6 5-3 9-5 12-8v76h11zm92-71c-2-6-4-10-6-14-3-4-6-7-10-9s-8-3-14-3c-7 0-13 2-17 5-5 4-8 9-11 16-2 7-3 17-3 28 0 18 3 31 9 39 6 7 13 11 22 11 8 0 13-2 18-6s8-9 10-16c3-7 4-17 4-28 0-10-1-17-2-23zm-16 55c-4 5-8 8-14 8-5 0-10-3-13-8-4-6-6-16-6-32s2-27 6-33c4-4 8-7 13-7s10 3 14 8c4 6 6 16 6 32s-2 26-6 32zm91-55c-2-6-4-10-6-14-3-4-6-7-10-9s-9-3-14-3c-7 0-13 2-17 5-5 4-8 9-11 16-2 7-3 17-3 28 0 18 3 31 9 39 6 7 13 11 22 11 7 0 13-2 18-6 4-4 8-9 10-16s4-17 4-28c0-10-1-17-2-23zm-16 55c-4 5-8 8-14 8s-10-3-13-8c-4-6-6-16-6-32s2-27 6-33c3-4 8-7 13-7 6 0 10 3 14 8 4 6 6 16 6 32s-2 26-6 32zm91-55c-2-6-4-10-6-14-3-4-6-7-10-9s-9-3-14-3c-7 0-13 2-17 5-5 4-8 9-11 16-2 7-3 17-3 28 0 18 3 31 9 39 6 7 13 11 22 11 7 0 13-2 18-6s8-9 10-16c3-7 4-17 4-28 0-10-1-17-2-23zm-16 55c-4 5-8 8-14 8s-10-3-13-8c-4-6-6-16-6-32s2-27 6-33c4-4 8-7 13-7 6 0 11 3 14 8 4 6 6 16 6 32s-2 26-6 32zM295 399v-97h-7c-2 5-6 9-11 13-5 5-11 9-17 12v11c4-1 8-3 13-6 4-3 8-5 11-8v75h11zm92-70c-2-6-4-10-6-14-3-4-6-7-10-9s-8-3-14-3c-7 0-13 1-17 5-5 4-8 9-11 16-2 7-3 16-3 28 0 18 3 31 9 39 6 7 13 10 22 10 8 0 13-2 18-5 5-4 8-10 10-17 3-7 4-16 4-27 0-10-1-17-2-23zm-16 55c-4 5-8 8-14 8-5 0-10-3-13-8-4-6-6-16-6-32s2-27 6-33c4-4 8-7 13-7s11 3 14 8c4 5 6 16 6 32s-2 26-6 32zm74 15v-97h-7c-2 5-6 9-11 13-4 5-10 9-17 12v11c4-1 8-3 13-6 4-3 8-5 11-8v75h11zm65 1v-97h-7c-2 4-6 8-11 13-4 4-10 8-17 11v11c4-1 8-3 13-6 4-2 8-5 11-8v76h11zm63 1c7 0 13-2 17-5 5-4 8-10 11-17 2-7 3-16 3-27 0-10-1-17-2-23-2-6-4-10-6-14-3-4-6-7-10-9s-8-4-13-4c-8 0-13 2-18 6s-8 9-10 16c-3 7-4 16-4 28 0 18 3 31 10 39 5 7 12 10 22 10zm-14-82c4-4 8-7 13-7s11 3 14 8c4 5 6 16 6 32s-2 26-6 32c-3 5-8 8-14 8-5 0-10-3-13-8-4-6-6-16-6-32s2-27 6-33zm102 80v-97h-8c-2 5-5 9-10 13-5 5-11 9-18 12v11c4-1 8-3 13-6 4-3 8-5 11-8v75h12zm-356 92c-1-6-3-10-6-14-2-4-5-7-9-9s-9-4-14-4c-7 0-13 2-17 6-5 4-8 9-11 16-2 7-3 16-3 28 0 18 3 31 9 39 6 7 13 10 22 10 7 0 13-2 18-6 5-3 8-9 10-16 3-7 4-16 4-27 0-10-1-17-3-23zm-15 54c-4 6-8 8-14 8-5 0-10-2-13-8-4-5-6-15-6-31s2-27 6-33c3-4 8-7 13-7s10 3 14 8 5 16 5 32c1 16-1 26-5 31zm74 16v-97h-7c-2 5-6 9-11 13-5 5-11 9-17 12v11c4-1 8-3 12-6 5-3 9-5 12-8v76l11-1zm92-70c-2-6-4-10-6-14-3-4-6-7-10-9s-8-4-14-4c-7 0-13 2-17 6-5 4-8 9-11 16-2 7-3 16-3 28 0 18 3 31 9 39 6 7 13 10 22 10 8 0 13-2 18-6 5-3 8-9 10-16 3-7 4-16 4-27 0-10-1-17-2-23zm-16 54c-4 6-8 8-14 8-5 0-10-2-13-8-4-5-6-15-6-31s2-27 6-33c4-4 8-7 13-7s10 3 14 8 6 16 6 32-2 26-6 31zm89-4c3-7 4-16 4-27 0-10-1-17-2-23-2-6-4-10-6-14-3-4-6-7-10-9s-9-4-14-4c-7 0-13 2-17 6-5 4-8 9-11 16-2 7-3 16-3 28 0 18 3 31 9 39 6 7 13 10 22 10 7 0 13-2 18-6 4-3 8-9 10-16zm-28 12c-5 0-10-2-14-8-3-5-5-15-5-31s2-27 6-33c3-5 8-7 13-7 6 0 10 3 14 8s5 16 5 32-1 26-5 31c-4 6-8 8-14 8zm75 10c7 0 13-2 18-6 5-3 8-9 10-16 3-7 4-16 4-27 0-10-1-17-2-23-2-6-4-10-6-14-3-4-6-7-10-9s-9-3-14-3c-7 0-13 1-17 5-5 4-8 9-11 16-2 7-3 16-3 28 0 18 3 31 9 39 6 7 13 10 22 10zm-13-82c3-4 8-7 13-7 6 0 10 3 14 8 4 6 6 16 6 32s-2 26-6 32c-4 5-8 8-14 8s-10-3-13-8c-4-6-6-16-6-32s2-27 6-33zm102 80v-97h-8c-2 5-6 9-11 13-5 5-10 9-17 12v11c4-1 8-3 12-6 5-3 9-5 12-8v76l12-1zm65 0v-97h-8c-2 5-6 9-11 13s-10 9-17 12v11c4-1 8-3 13-6 4-3 8-5 11-8v76l12-1zM295 699v-96h-7c-2 4-6 8-11 13-5 4-11 8-17 11v11c4-1 8-3 13-6 4-2 8-5 11-8v75h11zm90-20c3-7 4-16 4-27 0-10-1-17-2-23-2-6-4-10-6-14-3-4-6-7-10-9s-8-3-14-3c-7 0-13 1-17 5-5 4-8 9-11 16-2 7-3 16-3 28 0 18 3 31 10 39 5 7 12 10 21 10 8 0 13-2 18-5 5-4 8-10 10-17zm-28 13c-5 0-10-3-13-8-4-6-6-16-6-32s2-27 6-33c4-4 8-7 13-7s10 3 14 8 6 16 6 32-2 26-6 32c-4 5-8 8-14 8zm88 7v-96h-7c-2 4-6 8-11 13-4 4-10 8-17 11v11c4-1 8-3 13-6 4-2 8-5 11-8v75h11zm65 1v-97h-7c-2 4-6 8-11 13-4 4-10 8-17 11v11c4-1 8-3 13-6 4-2 8-5 11-8v76h11zm-262 86c-2 7-3 16-3 28 0 18 3 31 9 39 5 7 13 10 22 10 7 0 13-1 18-5 4-4 8-10 10-17s4-16 4-27c0-10-1-17-3-23-1-5-3-10-6-14-2-4-5-7-9-9s-9-3-14-3c-7 0-13 2-17 5-5 4-8 9-11 16zm28-12c6 0 10 3 14 8s5 16 5 32-1 26-5 31c-4 6-8 8-14 8-5 0-10-2-14-8-3-5-5-15-5-31s2-27 6-33c3-4 8-7 13-7zm88 88v-98h-7c-2 5-6 9-11 13-5 5-11 9-17 12v11c4-1 8-3 12-6 5-3 9-5 12-8v76h11zm34-76c-2 7-3 16-3 28 0 18 3 31 9 39 6 7 13 10 22 10 7 0 13-1 18-5 4-4 8-10 10-17s4-16 4-27c0-10-1-17-3-23-1-5-3-10-6-14-2-4-5-7-9-9s-9-3-14-3c-7 0-13 2-17 5-5 4-8 9-11 16zm28-12c6 0 10 3 14 8s6 16 6 32-2 26-6 31c-4 6-8 8-14 8-5 0-10-2-13-8-4-5-6-15-6-31s2-27 6-33c3-4 8-7 13-7zm87 119H219c-18 0-32-14-32-32v-65c1 0 3-1 4-2 5-3 9-5 11-8v75h12v-96h-7c-2 4-6 8-11 12-3 3-6 4-9 7v-92c5 6 12 9 21 9 6 0 12-2 17-5 5-4 8-10 10-17 3-7 4-16 4-27 0-10-1-17-3-23-1-6-3-11-6-14s-5-7-9-9-9-3-14-3c-7 0-13 1-17 5-2 1-3 3-4 4V496c2 0 4-1 5-2 5-3 8-6 11-8v75h12v-97h-7c-2 5-6 9-11 13-3 3-7 5-10 7v-92c6 6 13 9 21 9 7 0 13-2 18-6 4-3 8-9 10-16s4-16 4-27c0-10-1-17-3-23-1-6-3-11-6-14-2-4-6-8-9-10-4-2-9-3-14-3-7 0-13 2-18 6l-3 4V173l5-3c5-3 8-5 11-8v75h12v-97h-7c-2 4-6 9-11 13-3 3-7 5-10 7v-21c0-18 14-32 32-32h371c18 0 41 11 53 24l12 14c-2 3-4 5-8 8-5 5-11 9-17 12v11c3-1 8-3 12-6 5-3 8-5 11-8v75h12v-80l13 14 45 52c11 13 20 39 20 56v32c-2-2-3-4-6-6-4-2-8-3-14-3s-12 2-17 6-8 9-10 16c-3 7-4 16-4 27 0 19 3 32 10 40 5 7 13 10 21 10s14-2 18-6c1-1 2-2 3-2v195c11 4 21 10 31 17V254c0-20-10-47-23-62l-50-58-39-45c-13-15-39-27-59-27H191c-20 0-36 16-36 36v804c0 20 16 35 36 35h374c-20-11-38-26-52-44zM194 619c3-4 8-7 13-7s10 3 14 8c4 6 6 16 6 32s-2 26-6 32c-4 5-8 8-14 8-5 0-10-3-13-8-4-6-6-16-6-32s2-27 6-33zm0-300c3-4 8-7 13-7s10 3 14 8c4 6 6 16 6 32s-2 26-6 32c-4 5-8 8-14 8-5 0-10-3-13-8-4-6-6-16-6-32s2-27 6-33zm542 65c-3 5-8 8-14 8s-10-3-13-8c-4-6-6-16-6-32s2-27 6-33c4-4 8-7 14-7s10 3 13 8c4 6 6 16 6 32s-2 26-6 32zm64 343h-2l-6-16v-1c20-44 18-45 15-49l-26-25c-1-1-2-2-4-2s-6 0-44 18h-2l-15-6-1-2c-18-44-20-44-24-44h-37c-4 0-6 0-23 44v2l-16 6h-2c-25-11-40-17-44-17-2 0-4 1-5 2l-26 26c-3 3-4 4 16 47l1 2-7 15-1 1c-46 17-46 19-46 23v36c0 5 1 7 44 22v5c0 11 1 19 4 26-14 32-13 33-10 36l26 25c1 1 3 2 5 2 1 0 6 0 44-17l1-1 16 6 1 2c17 45 19 45 24 45h36c5 0 7 0 23-45l1-2 16-6 1 1c26 11 41 16 45 16 2 0 3 0 5-2l25-25c4-3 5-5-15-48l-1-1 6-15 2-1c45-18 45-19 45-24v-36c0-5 0-7-45-23zm-127 99c-32 0-59-26-59-57s27-58 59-58c33 0 59 26 59 58s-26 57-59 57z"/></svg>