<svg width="64" height="64" viewBox="0 0 1000 1000" xmlns="http://www.w3.org/2000/svg"><path d="M886 462c-46-49-95-96-144-142-35-32-76-41-121-22-12 5-23 11-35 16-38 17-78 23-120 17-25-5-48-15-70-26-27-14-54-20-84-14-24 5-44 16-61 33-42 41-83 84-125 124-51 48-72 105-61 173 15 96 99 162 196 157 72-5 124-40 158-104 3-6 6-12 9-19 43 42 103 40 143 0 2 4 3 6 4 9 36 82 122 129 209 111 72-15 121-58 143-128 23-69 8-132-41-185zM250 739c-81 0-147-67-148-149 0-81 66-147 149-148 80 0 148 66 148 147 1 83-65 149-149 150zm233-356c0-9 7-17 17-17s18 8 18 17v64c0 10-8 18-18 18-9 0-17-8-17-18v-64zm16 252c-24-1-45-22-44-46s21-44 45-44 45 21 44 46c0 24-20 44-45 44zm247 104c-82-2-148-70-146-152 1-82 69-147 152-146 80 2 146 70 145 149-2 84-68 150-151 149zM600 277c23-11 46-19 72-16 8 1 15 2 23 3-13-32-51-50-86-41s-60 42-56 75c16-7 32-14 47-21zm-246-15c25 2 47 14 69 24 8 4 16 7 24 10 1-35-25-67-60-74-34-7-72 13-81 40 16 0 32-1 48 0zm483 247c43 43 42 108 14 145 3-47-9-86-40-118-32-32-71-44-116-42 35-26 99-28 142 15zm-676 8c-40 48-29 112-7 135-3-45 9-84 41-116 31-31 70-44 116-42-38-28-108-28-150 23z"/></svg>