<svg width="64" height="64" viewBox="0 0 1000 1000" xmlns="http://www.w3.org/2000/svg"><path d="M306 62c-43 61-71 128-88 200-6 22-8 44-6 67 3 22 14 41 28 58 24 28 51 53 78 79 67 68 132 137 197 207 35 37 73 73 110 109 6 5 5 8 0 13-44 46-88 93-132 139-5 5-7 5-12 0-44-42-88-85-132-127-4-4-3-6 0-9 26-24 52-48 77-72 4-3 6-3 9 0 12 11 23 22 35 32 4 3 3 5 0 9l-25 28c-4 3-4 5 0 9 12 10 24 21 35 31 4 3 6 4 9 0 14-16 28-31 43-47 4-4 3-6-1-10-19-21-39-42-59-62-40-41-79-81-121-119-45-41-92-79-139-117-20-17-41-34-60-53-7-7-14-15-20-24-7-11-10-22-7-35 20-103 70-190 141-267 6-7 14-14 21-21 7-6 13-12 19-18zm388 3c9 5 14 10 19 16 67 65 117 140 147 229 6 20 11 40 15 61 2 8 0 16-3 24-12 22-30 38-48 54-46 39-93 77-138 116-37 32-73 65-107 101-2 1-4 2-5 4-5 7-9 7-15 0-9-12-20-22-30-33-4-4-4-6 0-9 54-59 109-118 166-174 23-23 45-45 66-69 25-28 32-62 26-97-13-80-44-153-90-219-1-1-1-1-3-4zm-87 424c0-31-3-59-31-77 85-42 127-116 156-203 20 62 25 120-21 172-32 37-67 71-101 106 0 1-1 1-3 2zm-183-77c-28 18-31 47-32 78-5-5-8-9-12-13-28-29-56-57-84-87-42-44-51-96-36-153 2-9 5-17 7-25l2-2c28 85 70 160 155 202zm177-54c7-21 3-40-9-58-3-4-10-7-8-11 1-3 8-5 12-7 51-30 87-72 103-130 1-5 2-10 3-16 5 10 7 32 5 47-6 41-25 76-48 110-17 23-36 45-58 65zm-201 1c-15-12-27-26-39-41-25-29-45-60-58-96-10-26-13-53-8-80 0-1 0-3 1-4 0-1 1-2 2-4 2 13 5 24 9 35 19 52 55 89 102 116 6 3 8 5 3 11-16 17-19 37-14 59l2 4z"/></svg>