<svg width="64" height="64" viewBox="0 0 1000 1000" xmlns="http://www.w3.org/2000/svg"><path d="M645 636c-82-111-191-179-327-204-26-5-53-6-79-8-8-1-11 2-10 10 2 44 6 87 19 129 60 191 187 312 381 362 29 7 58 11 86 12 29 2 29 2 27-31-6-99-38-190-97-270zm125-15c-2-72-36-127-93-169-50-37-107-53-168-56-6 0-10 0-10-8 4-90 30-172 98-235 14-13 31-21 49-29-34-33-73-54-118-60-97-11-170 31-227 105-43 56-64 121-70 191-1 5-2 10 7 10 117 7 222 45 316 114 99 73 170 168 211 285 1 3 1 8 6 11 0-54 1-107-1-159zM479 149c0-15 13-28 28-28s28 13 27 27c0 15-12 27-27 27-15 1-27-12-28-26zm78 128c24-11 47-9 70-1 24 9 37 30 50 51 7-12 10-24 12-36 4-27 7-54-1-81-5-17-13-32-24-46-3-3-5-4-10-2-39 15-88 73-97 115z"/></svg>