<svg width="64" height="64" viewBox="0 0 1000 1000" xmlns="http://www.w3.org/2000/svg"><path d="M936 882c-10-33-17-59-33-90-15-29-27-59-45-86-14-21-24-44-35-66-7-12-12-24-26-29-12-5-25-9-37-13-6-3-12-5-18-7-5-2-9-3-14-5-24-9-48-20-69-35-14-9-27-20-40-30-6-5-8-9-5-17 2-5 1-11 2-17 0-6 1-13 2-19 1-3 4-6 7-7 6-3 13-5 19-9 11-5 16-4 25 4 2 1 5 3 7 3 7-3 8-10 8-16v-1c0-4-1-7-3-10l-4-4c-2-2-5-3-7-3-2-1-4-1-6-2h-4l-2-1h-4l-1-1c-1 0-2 0-3-1-4-2-8-5-11-11-2-3-5-7-9-8-18-8-37-8-54 2-9 6-16 13-24 20-15 13-30 15-43 6-11-9-22-17-31-27-14-16-28-33-38-52-18-30-33-62-49-93-2-4-4-8-7-10-16-10-31-21-47-29-23-12-48-21-71-34-25-14-53-21-80-30-17-6-35-8-52-15-22-8-43-19-65-29h-6c1 2 2 5 3 6l9 15c2 4 4 7 6 11 1 2 3 3 4 5 8 12 14 24 26 31 2 1 2 3 3 4 7 8 15 15 22 22 3 3 5 7 9 9 8 5 17 10 26 15 3 2 10 2 10 4 1 8 10 7 14 9 13 5 25 14 40 15 10 1 20 6 30 10 3 1 6 3 9 5 7 6 14 13 23 17 6 3 9 8 11 14l7 15c0 2 1 4 2 6 2 4 3 8 5 11 2 4 6 7 8 11 5 10 10 21 15 32l2 4c2 7 6 13 11 19l4 6c3 6 5 14 9 18 10 8 9 23 21 29 4 2 4 10 6 14 1 3 4 4 6 6 0 2 2 4 3 6 3 5 6 9 8 14l4 12c2 5 0 21-3 25-7 11-15 22-21 35-14 32-32 61-67 75-2 1-4 4-4 6 1 8 3 15 5 22-8 5-16 9-24 14 9 18 9 18 17 13 5 5 8 9 13 13 6-3 12-6 17-10l2-2c4-1 7-3 10-5 5-1 11-2 16-2 8-1 15-2 18-11 5-12 14-22 26-26 14-5 28-10 42-13 18-4 34-10 47-22 7-6 14-5 21-3 21 7 43 15 64 22 12 4 24 7 36 11 15 4 30 10 45 15 4 1 8 1 13 3 6 2 12 6 18 7 16 3 31 8 46 16 5 3 10 8 14 14 8 12 14 26 21 39s13 26 20 39c2 3 5 6 8 9l9 9c4 4 8 9 13 13 1 2 4 2 5 4 3 8 8 14 17 17 4 1 6 5 9 8s5 7 8 9c10 9 21 17 31 25 0 1 1-1 1-3 4 9 4-1 6-1 2 9 6 16 15 19 6 2 5-3 5-6-1 0-2-1-2-1z"/></svg>