<svg width="64" height="64" viewBox="0 0 1000 1000" xmlns="http://www.w3.org/2000/svg"><path d="M907 850H93c-17 0-30 13-30 29s13 29 30 29h814c17 0 31-13 31-29s-14-29-31-29zm-71-329c-6-4-11-8-16-13l-38-36c-13-12-35-12-48 0l-38 36c-18 17-42 27-67 27-13 0-25-3-36-7-12-5-22-11-31-20l-38-36c-13-12-35-12-48 0l-38 36c-18 17-41 27-67 27-12 0-25-3-36-7-11-5-22-11-31-20l-38-36c-12-12-35-12-48 0l-37 36c-5 5-11 9-17 13v175h672V521zM164 713h672v115H164V713zm24-258l15-15c9-9 18-18 30-25 19-11 43-15 65-9 12 3 24 9 33 17 4 3 7 7 11 10l25 24c9 8 22 11 33 6 6-3 10-7 14-11l27-26c17-16 41-25 65-23 21 2 39 11 54 25l28 26c6 5 11 9 19 11 10 1 19-2 26-9 10-8 19-17 28-26 4-4 9-8 14-12 11-7 24-12 37-14s26-1 38 3c4 1 8 3 12 5 3 1 7 3 10 6 2 2 4 3 6 4s3 3 4 4l7 7 9 8c5 5 10 9 15 14 6 6 14 10 23 10v-95c0-28-25-51-54-51H645v-51c0-12-11-22-24-22s-25 10-25 22v51h-72v-91c0-12-11-23-24-23s-24 11-24 23v91h-72v-51c0-12-11-22-24-22s-25 10-25 22v51H219c-11 0-22 3-31 9-15 10-24 26-24 42v95h3c8 0 15-5 21-10zm192-232c16 0 30-13 30-29l-30-62s-31 46-31 62 14 29 31 29zm120-40c17 0 30-13 30-29s-30-62-30-62-30 46-30 62 13 29 30 29zm121 40c16 0 30-13 30-29l-30-62s-31 46-31 62 14 29 31 29z"/></svg>