<svg width="64" height="64" viewBox="0 0 1000 1000" xmlns="http://www.w3.org/2000/svg"><path d="M153 62c-20 0-26 7-26 28v492c0 22 6 28 27 28h693c20 0 26-7 26-27V90c0-21-6-27-26-27-231-1-463-1-694-1zm762 584c-4-1-8-1-12-1H86c-9 2-15 9-15 19 0 9 5 17 14 19 5 1 10 1 14 1h375c-19 27-39 53-58 80-34 47-69 94-103 142-8 11-6 22 5 29 10 5 22 3 30-8 5-6 10-12 14-19 46-62 91-125 138-189 3 5 6 8 8 12 48 64 95 129 142 194 9 12 21 16 32 10 11-7 13-19 4-31-54-74-107-147-160-220h375c5 0 10 0 15-2 9-2 13-9 13-18 0-10-5-16-14-18z"/></svg>