<svg width="64" height="64" viewBox="0 0 1000 1000" xmlns="http://www.w3.org/2000/svg"><path d="M801 72H481c-4-19-11-37-23-51-13-14-29-21-48-21-24 0-45 9-59 27-10 12-16 28-20 45h-90c-14 0-26 11-26 26s12 26 26 26h87c0 8 1 16 1 22-86 1-156 72-156 158v446c0 87 71 158 158 158h23v48c0 6 4 13 10 15l32 14c5 2 14 2 20 0l36-13c6-2 10-9 10-15v-49h23c88 0 158-71 158-158V304c0-86-69-157-156-158v-22h288v850c0 14 12 26 26 26 15 0 26-12 26-26V98c0-15-12-26-26-26zM392 60c3-4 7-8 18-8 4 0 6 1 9 4 3 4 6 9 8 16h-41c1-5 3-9 6-12zm43 64c0 8 0 15-1 22h-52c-1-6-1-14-2-22h55zM221 368c-10 0-18-8-18-18 0-96 79-175 176-175 9 0 17 8 17 17 0 10-8 18-17 18-78 0-141 63-141 140 0 10-8 18-17 18zm358 137v216c0 68-51 124-115 124H352c-63 0-115-56-115-124V505h342z"/></svg>