<svg width="64" height="64" viewBox="0 0 1000 1000" xmlns="http://www.w3.org/2000/svg"><path d="M795 62H206c-14 0-26 13-26 27v115c0 15 12 27 26 27h588c15 0 27-13 27-27V89c0-14-12-27-26-27zM394 425c72-15 142-30 212-45V269H394v156zm190 2c-32 7-65 13-97 21-25 5-51 11-77 17-10 2-16 9-15 20s8 15 17 16h5c58-13 117-26 175-39 13-3 18-12 16-23-3-10-12-15-24-12zM420 573c36-8 73-16 109-24l66-15c10-3 16-11 12-21-2-7-9-12-14-17l-3 2-4 1c-58 12-116 25-175 38-12 3-18 12-15 24 2 10 12 14 24 12zm0 73c19-5 37-9 56-13 38-8 76-16 113-25 10-2 19-6 19-20 1-11-10-19-22-17-58 13-117 26-175 39-13 3-18 12-15 23 2 11 12 15 24 13zm163-1l-84 18c-29 7-58 13-87 20-12 2-18 10-17 21 2 11 9 15 18 15h3c59-13 118-25 176-39 13-3 19-12 15-23-2-10-11-15-24-12zM419 791l111-24c21-4 43-9 64-14 10-3 15-10 14-21-1-10-8-14-17-15h-5c-58 13-117 26-175 39-13 3-18 12-15 23 2 10 11 15 23 12zm167-1c-58 13-116 25-174 38-13 3-19 12-16 24 2 10 12 15 25 12 14-3 28-6 42-10l126-27c10-2 19-6 19-21 1-10-9-19-22-16zm0 73c-58 12-116 25-174 38-13 3-19 12-16 23 2 11 11 16 24 13 23-5 46-10 68-15 34-8 68-15 102-22 10-3 18-7 18-20 0-12-10-20-22-17z"/></svg>