<svg width="64" height="64" viewBox="0 0 1000 1000" xmlns="http://www.w3.org/2000/svg"><path d="M675 501c-31-5-63-9-93-16-3-1-7 0-9 1-21 14-41 30-49 44-1 2-4 3-6 2l-26-10c-2-1-3-4-2-6 7-15 22-30 38-43 2-1 2-3-1-4-10-4-20-9-30-15-2-1-6-1-8 0-25 16-50 34-59 50-1 2-4 3-6 2l-26-10c-2-1-3-4-2-6 10-22 36-43 61-59 3-2 3-4 1-6-7-6-13-14-19-23-2-2-5-3-7-2-30 17-62 39-72 57-2 2-4 4-7 3l-25-11c-3 0-4-3-3-5 15-31 59-59 90-76 2-1 3-4 2-7-12-30-21-71-22-127l-1-34c0-3-2-5-5-5H102c-2 0-4 2-4 5v313c0 2-1 6-1 9L64 670c-1 2-1 6-1 9v121c0 3 2 5 4 5h302c3 0 5-2 5-5v-34c0-3 2-5 4-5h111c2 0 5 2 7 4l23 36c2 2 5 4 8 4h398c2 0 5-2 5-5l4-30c13-102-10-172-71-215-50-35-117-45-188-54z"/></svg>