<svg width="64" height="64" viewBox="0 0 1000 1000" xmlns="http://www.w3.org/2000/svg"><path d="M211 442c-45 1-90 1-135 0-19-1-26 7-32 24-53 142-59 286-14 431 18 58 19 58 80 58h32c15 0 29-2 43 0 44 10 60-14 71-51 46-148 41-294-12-439-6-17-14-24-33-23zm-67-171c63 0 62-2 80-62 12-37 17-73 0-110-16-33-38-56-78-57-44 1-66 24-81 57-18 37-12 73-1 110 18 60 18 62 80 62zm67 53H74c-5 0-9 4-9 10l-4 28c-1 7 4 14 9 14h146c6 0 10-8 9-15l-5-28c-1-5-5-9-9-9zm359 118c-45 1-90 1-135 0-20-1-27 7-33 24-52 142-58 286-13 431 18 58 19 58 80 58h32c14 0 29-2 43 0 44 10 60-14 71-51 45-148 41-294-12-439-6-17-14-24-33-23zm-67-171c62 0 62-2 80-62 12-37 17-73 0-110-16-33-38-56-78-57-44 1-66 24-82 57-17 37-11 73 0 110 18 60 18 62 80 62zm67 53H432c-4 0-8 4-8 10l-4 28c-1 7 3 14 9 14h146c6 0 10-8 9-15l-5-28c-1-5-5-9-9-9zm387 141c-6-17-14-24-33-23-45 1-90 1-135 0-19-1-27 7-33 24-52 142-58 286-13 431 18 58 19 58 80 58h32c14 0 29-2 43 0 44 10 60-14 71-51 45-148 41-294-12-439zM857 271c62 0 62-2 80-62 12-37 17-73 0-110-16-33-38-56-78-57-44 1-66 24-82 57-17 37-11 73 0 110 18 60 18 62 80 62zm67 53H787c-5 0-9 4-9 10l-4 28c-1 7 3 14 9 14h146c6 0 10-8 9-15l-5-28c-1-5-5-9-9-9z"/></svg>