<svg width="64" height="64" viewBox="0 0 1000 1000" xmlns="http://www.w3.org/2000/svg"><path d="M86 832c12-46 46-73 82-97 52-36 110-60 170-79 5-2 9 1 13 4 32 24 67 41 106 49 58 11 112 0 162-29 11-7 22-13 32-21 3-3 7-4 11-3 67 22 132 49 188 92 22 16 42 35 55 60 4 8 5 16 9 24 0 54-1 108 0 162 0 5-1 6-6 6H92c-5 0-6-1-6-6V832zm612-135c-7-2-12-4-17-6-13-7-23-5-36 4-58 37-120 53-189 41-40-7-76-23-109-46-3-2-6-6-11-5-11 4-23 8-36 12 62 46 127 73 202 72 73-1 137-27 196-72zM375 37c-6 10-7 22-5 33 1 7 4 7 9 3 43-46 100-62 159-73h4c-14 13-26 25-33 44 77-23 150-14 221 22-10 3-20 3-29 7-8 4-17 9-24 17 50 14 96 33 132 74-20 1-36 2-54 9 17 12 33 23 48 36 6 5 6 9 1 15-14 20-30 39-52 52-4 3-5 6-5 11-2 20-5 41-9 62-1 3-2 7 2 10 25 17 28 43 24 70-7 35-24 63-55 81-5 3-6 8-8 12-25 67-71 114-138 139-57 20-111 13-163-17-49-29-84-70-103-125-2-5-5-8-10-11-37-20-62-80-50-120 4-11 9-21 19-27 7-4 7-9 6-16-8-46-10-92-3-137 6-46 18-90 48-127 18-22 45-40 68-44zm122 608c8 0 15 0 22-1 79-16 131-63 158-138 4-9 5-19 18-20 3 0 6-3 9-5 18-16 31-36 34-60 2-22-1-40-28-45-6-1-5-5-4-9 1-20 3-40 1-61-1-4-1-8-7-6-31 10-64 14-97 16-42 2-84-2-123-17-38-15-71-37-104-59-20-14-23-14-42 3-3 2-5 4-7 6-29 34-35 75-33 118 0 6-1 8-7 9-19 5-26 15-27 35-1 21 8 38 20 55 8 11 17 21 32 23 5 1 5 5 6 8 6 25 17 47 33 67 37 48 85 78 146 81zm3-85c-19-1-36-3-52-10-4-2-7-4-4-8s1-13 11-10c30 11 60 11 91 0 9-3 7 7 10 11 4 4 0 6-3 7-18 7-36 9-53 10z"/></svg>