<svg width="64" height="64" viewBox="0 0 1000 1000" xmlns="http://www.w3.org/2000/svg"><path d="M911 429c-2-4-3-8-3-13-8-84-49-149-120-195-6-5-10-10-13-16-24-40-53-75-90-103-62-46-117-48-174-3-11 8-18 7-29 1-68-39-132-32-190 22-29 26-54 55-73 89-3 4-6 8-11 10-53 29-89 74-114 129-11 25-20 52-13 81 1 5 0 10-2 15-13 34-17 70-16 106 0 11-1 21 0 32 3 35 10 70 31 99 8 11 11 22 14 35 15 62 46 113 101 146 14 8 27 17 39 27 43 34 90 47 144 30 5-2 10-2 16 0 27 7 54 5 79-9 9-6 16-5 25 1 28 18 57 27 90 15 5-2 10-1 15 0 61 11 116-13 147-66 5-8 11-13 18-17 44-25 81-58 101-104 14-31 29-61 38-92 23-74 24-148-10-220zM483 221c-3 23-2 48-1 72 1 11-2 16-14 19-42 11-78 33-105 67-13 15-13 27-2 36s23 7 35-7c18-22 40-38 67-48 19-7 19-7 19 13v110c0 37-1 75 0 113 1 14-4 14-15 9-38-14-61-37-53-81 1-10 0-19 1-29 0-15-8-24-20-25-13 0-23 8-24 22-2 26-4 52 1 77 2 9-1 13-7 17-18 12-35 25-50 40-13 13-15 25-5 35 10 11 23 9 37-4 13-13 28-24 43-35 6-4 10-4 16 0 20 14 42 24 64 33 8 3 12 7 12 16v145c0 19-34 43-52 37-6-2-7-5-7-10-1-25-3-49-11-73-1-5 1-9 4-12 6-7 12-14 17-21 7-11 6-22-4-30s-20-7-30 2c0 0-1 0-1 1-11 20-27 22-47 15-13-4-24 4-27 16-3 14 3 23 18 27 28 8 31 13 34 42 0 6 1 12 1 18 3 22-1 26-23 28-24 2-43-8-61-21-17-12-34-24-52-35-37-21-55-58-64-99-2-8 3-10 9-12 16-6 31-12 46-22 19-12 25-29 21-51-7-32-21-61-37-89-7-12-20-16-31-9s-14 18-7 31c11 22 22 44 30 68 3 9 0 14-8 18l-17 7c-26 11-32 9-40-18-15-51-15-102 2-152 4-15 13-20 28-22 30-5 51 5 69 28 13 16 25 32 34 50 7 13 20 18 31 13 12-6 16-20 9-34-14-27-33-51-54-74-25-25-55-33-88-27-25 3-27 2-18-21 14-34 35-62 63-86 8-7 13-9 17 4 5 13 12 24 21 35 14 16 31 19 50 10 15-7 27-18 38-29 22-22 44-43 65-65 12-12 13-23 3-33-9-10-22-10-33 1-25 23-48 47-72 70-19 18-19 17-31-6-7-14-5-27 3-40 19-31 43-58 72-82 23-20 49-22 77-11 7 3 14 7 20 10 23 12 37 28 34 58zm371 408c-7 22-10 22-30 14-32-13-33-14-20-46 7-15 15-30 22-46 7-14 4-28-7-34-12-6-24-1-32 12-15 29-30 58-35 91-3 18 2 32 16 44 15 11 32 18 48 24 7 3 11 6 7 13-14 38-42 63-76 82-6 3-9 0-13-4-9-13-19-25-32-34-8-6-9-12-7-20l6-30c1-13-6-21-18-23-13-2-22 4-26 16-3 10 0 25-8 31-8 5-21 1-31 2-5 0-10 2-15 3-14 4-21 13-18 26 2 13 12 21 27 17 40-9 67 11 89 41 6 8 5 14 0 22-20 29-51 39-83 23-13-7-22-9-33 3-6 8-15 7-25 3-26-11-33-23-33-51V627c0-20 2-22 22-19 19 3 36 10 50 22 13 11 26 12 35 2 10-11 8-23-6-35-24-22-52-33-83-33-15 0-17-5-19-18-3-36 1-63 42-76 17-6 28-9 40 4 6 6 12 11 18 16 12 11 24 11 33 1 9-9 9-22-2-33-11-12-23-21-36-30-6-4-9-9-8-17 1-17 1-33 0-50-1-16-10-24-24-23s-20 9-20 25c0 9-1 18 0 27 3 23-7 37-28 45-11 5-14 4-14-8V308 195c0-10 3-18 10-25 38-40 64-42 107-9 30 23 53 52 72 84 5 8 4 12-3 18-22 16-29 17-53 4-16-10-30-22-38-40-7-15-19-20-32-13-12 6-15 18-9 32 19 40 53 63 94 75 11 3 23 1 34-4 8-5 17-10 26-15 26-19 26-19 49 5s40 52 49 84c3 10 1 15-11 13-35-3-63 11-86 37-17 20-33 40-45 64-8 15-6 29 6 35 13 6 25 1 33-14 13-25 30-47 50-66 27-23 66-13 76 21 14 49 13 99-2 148z"/></svg>