<svg width="64" height="64" viewBox="0 0 1000 1000" xmlns="http://www.w3.org/2000/svg"><path d="M782 616c15 6 39 7 51-3 17-13 28-30 34-51 25-82-32-200-62-255-8-14-27-29-42-34-72-24-86-40-84-56 1-9 7-15 16-19 14-6 27-20 26-36-2-25-10-46-24-61-28-32-77-39-114-39-13 0-26 1-38 3-16 1-29 17-29 33v789c-1 1 4 14 14 26 14 16 32 24 54 24 34 0 72-18 99-35 14-8 13-22-1-30-25-16-54-37-70-60-8-14-4-28 4-29 7 0 16 12 27 24 15 17 40 34 64 47 14 8 37 7 51-2 69-45 105-88 103-125-2-45-58-71-59-71l-14-6s-14-7-13-7c0 0-11-6-26-12-33-13-72-22-97-12-6 2-11 6-15 11-7 8-14 16-22 14-7-2-10-17 0-30 6-9 15-16 26-20 42-17 104 4 141 22zM616 289c7 1 11 15 17 30 10 31 40 62 63 82 13 11 20 23 16 30-5 6-19 3-31-7-27-22-68-63-78-108-3-16 5-28 13-27zM484 857V98c0-16-13-32-29-33-12-2-25-3-38-3-36 0-86 7-114 39-14 15-22 36-24 61-1 16 12 30 26 36 8 4 15 10 16 19 2 16-12 32-83 56-16 5-35 20-43 35-30 54-87 172-63 254 7 21 18 38 35 51 12 10 36 9 51 3 37-17 99-39 140-22 11 4 20 11 27 20 10 13 7 28-1 30-7 2-14-5-21-13-4-5-9-9-15-12-25-10-64 0-97 12-15 6-26 12-26 12 1 1-5 4-13 7l-14 7c-1 0-57 26-59 70-2 38 34 81 105 127 14 9 37 10 51 2 24-14 50-32 66-48 11-12 20-25 27-24 8 0 13 14 4 28-16 24-47 46-72 61-14 8-15 22-1 31 27 16 64 34 97 34 22 0 40-8 53-24 11-13 16-26 15-27v-30zM288 431c-4-7 3-19 16-30 23-20 53-51 63-82 5-15 10-29 17-30 8-1 16 11 13 27-10 45-51 86-78 108-12 10-27 13-31 7z"/></svg>