<svg width="64" height="64" viewBox="0 0 1000 1000" xmlns="http://www.w3.org/2000/svg"><path d="M0 564v-17h14v-84H0v-18h55c25 0 41 12 41 32 0 13-8 22-18 26 14 4 24 14 24 27 0 22-17 34-44 34H0zm33-101v32h20c16 0 24-6 24-16 0-11-9-16-24-16H33zm0 84h23c18 0 27-6 27-18 0-11-9-17-28-17H33v35zm169-45c-2-7-7-11-14-11-16 0-31 12-31 33v23h31v17h-68v-17h19v-53h-15v-17h33v15c6-11 17-18 32-18 17 0 27 10 30 23l-17 5zm93 11v-4c0-13-10-18-21-18-10 0-19 4-26 11l-12-13c9-8 20-15 38-15 22 0 39 12 39 34v39h13v17h-31v-9c-5 8-18 12-30 12-19 0-34-9-34-27 0-22 21-30 40-30 10 0 18 2 24 3zm0 16c-6-2-15-4-23-4-11 0-22 4-22 15 0 7 7 11 16 11 13 0 28-7 28-19v-3zm140 18v17h-88v-17h37v-53h-28v-17h46v70h33zm-33-88h-21v-26h21v26zm55 88h14v-53h-13v-17h30v11c6-9 17-14 30-14 20 0 34 12 34 32v41h13v17h-45v-17h14v-36c0-15-9-19-18-19-14 0-27 10-27 26v29h14v17h-46v-17zm133-53h-23v-17h23v-32h18v32h43v17h-43v37c0 14 10 19 21 19 10 0 18-6 25-12l12 13c-8 8-20 16-37 16-22 0-39-12-39-35v-38zm174 8c-2-7-7-11-14-11-15 0-30 12-30 33v23h30v17h-68v-17h20v-53h-16v-17h33v15c6-11 17-18 32-18 17 0 28 10 31 23l-18 5zm122 49c-9 9-25 16-43 16-29 0-50-20-50-46s20-47 48-47c27 0 47 21 47 50v3h-76c3 15 15 23 31 23 13 0 25-5 31-12l12 13zm-73-39h54c-3-13-14-21-26-21-14 0-25 8-28 21zm185 39c-9 9-25 16-42 16-30 0-50-20-50-46s20-47 47-47c28 0 47 21 47 50v3h-75c3 15 15 23 31 23 13 0 24-5 30-12l12 13zm-73-39h54c-2-13-14-21-26-21-14 0-24 8-28 21z"/></svg>