<svg width="64" height="64" viewBox="0 0 1000 1000" xmlns="http://www.w3.org/2000/svg"><path d="M230 181c89-58 222-108 296-130 39-12 40-53 25-51-85 11-166 52-234 102-31 23-61 48-87 78-2 1-3 3 0 1zm598 549c-18 22-37 44-57 64l-3 4-11 11-5 4c-3 4-6 7-10 10-1 2-3 3-5 5-4 3-8 7-12 10l-2 3h-1c-18 16-36 31-54 44-73 53-156 100-245 110C7 1045 43 674 43 674c3 21 8 41 13 60 27 94 71 170 144 190 0 0-2-1-4-3h-1s-1-1-2-1h-1c0-1-1-1-2-2l-1-1c-1 0-2-1-3-1l-1-1c-1-1-3-2-4-2v-1c-2-1-3-2-5-3l-1-1-3-3-2-1-3-3-2-1-3-4-1-1c-2-1-3-3-5-5h-1c-1-2-2-3-4-5l-1-2c-1-1-2-2-3-4 0 0-1-1-1-2l-3-4-1-2c-1-2-3-4-4-6v-1c87 73 210 70 295 54 124-24 237-117 238-121h-1c-24 16-54 32-79 44-116 58-269 88-379 0-83-67-124-188-121-295 1-52 10-114 30-162-1 15-17 163 32 272 6 12 12 23 18 34v1l6 9c1 1 2 3 2 4l4 5c1 2 2 3 3 5l3 4 3 5c2 1 3 3 4 5 1 1 2 2 3 4 3 3 5 5 7 8l2 1c2 3 4 5 6 7l3 3 6 6 2 2c2 2 4 4 7 6l1 1c3 3 6 5 10 7v1l9 6 3 2c2 1 5 3 7 4 1 1 1 1 2 1 3 2 6 3 8 5l3 1c3 2 7 3 10 5 64 27 160 20 226 4 44-11 87-27 128-46 35-17 70-38 102-61 22-15 44-33 64-53-20 34-45 65-45 65 24-20 160-139 160-289h-1c2-64-29-126-73-165-105-94-263-85-375-17-66 40-117 109-131 186-1-23 1-43 2-55-23 55-36 211 99 272 59 30 135 27 195-1 45-21 94-69 124-109 34-45 58-102 45-157-1-4-2-7-3-10v-2h-1c0-3-1-6-2-8-1-1-1-2-2-2-20-45-66-69-114-74-70-8-150 21-185 87-37 68-9 136 57 154-33 22-96 25-128-8-56-59-15-160 34-207 73-72 196-94 285-47 119 64 115 188 55 298-17 30-39 58-64 83-3 4-7 8-11 11v1c-8 7-16 14-24 20l-1 1c-9 6-17 12-26 18h-1c-4 3-8 6-13 8v1c-4 2-9 5-14 7-4 3-9 5-13 7-1 0-1 0-2 1-9 4-18 7-27 11-1 0-2 0-3 1-4 1-8 3-13 4s-10 3-14 4c-1 0-2 0-3 1-4 0-8 1-12 2h-3c-4 1-9 2-13 3h-3c-4 0-8 1-12 1h-37c-4 0-7-1-11-1l-4-1c-5 0-9-1-14-2h-2c-4-1-8-1-12-2-1-1-3-1-5-1l-8-3c-2 0-4 0-5-1-4-1-8-2-12-4h-1l-1-1h-1c-120-44-178-170-149-300 14-64 50-127 95-172 48-47 111-83 174-102 120-37 257-22 347 72 135 142 62 336-19 460-11 17-23 33-36 50zm-30-380v1-1z"/></svg>