<svg width="64" height="64" viewBox="0 0 1000 1000" xmlns="http://www.w3.org/2000/svg"><path d="M675 367h-78c-5 0-10 4-11 9l-31 200c-1 3 2 7 6 7h40c4 0 7-3 8-6l9-57c0-5 5-9 10-9h25c51 0 81-25 88-74 4-21 0-38-10-50-11-13-30-20-56-20zm9 73c-4 28-26 28-46 28h-12l8-52c1-3 3-6 7-6h5c14 0 27 0 34 8 4 5 5 12 4 22zm-564-73H42c-5 0-10 4-10 9L0 576c-1 3 3 7 7 7h37c5 0 10-4 10-9l9-54c1-5 5-9 11-9h24c51 0 81-25 89-74 3-21 0-38-10-50-11-13-31-20-57-20zm9 73c-4 28-26 28-46 28H71l8-52c1-3 4-6 7-6h5c14 0 27 0 34 8 4 5 6 12 4 22zm224-1h-38c-3 0-6 2-6 5l-2 11-2-4c-8-12-26-16-44-16-41 0-77 32-83 75-4 22 1 43 13 58 12 13 28 18 47 18 34 0 52-21 52-21l-2 11c0 3 3 7 7 7h33c6 0 10-4 11-9l20-128c1-4-2-7-6-7zm-52 72c-4 22-21 36-42 36-11 0-20-4-25-10-6-7-8-16-6-26 3-21 20-36 42-36 10 0 19 3 24 10 6 7 8 16 7 26zm606-72h-37c-3 0-6 2-6 5l-2 11-2-4c-9-12-26-16-44-16-42 0-77 32-84 75-3 22 2 43 14 58 12 13 28 18 47 18 33 0 52-21 52-21l-2 11c-1 3 2 7 6 7h34c5 0 10-4 11-9l20-128c0-4-3-7-7-7zm-52 72c-3 22-20 36-42 36-10 0-19-4-25-10s-7-16-5-26c3-21 20-36 41-36 11 0 20 3 25 10 6 7 8 16 6 26zm-304-72h-37c-4 0-7 2-9 5l-52 76-22-73c-1-5-6-8-10-8h-37c-5 0-8 4-6 8l41 121-39 55c-3 4 0 10 5 10h38c3 0 7-1 9-4l124-180c3-4 0-10-5-10zm400-67l-32 204c0 3 3 7 7 7h32c5 0 10-4 11-9l31-200c1-3-2-7-6-7h-36c-4 0-6 2-7 5z"/></svg>