<svg width="64" height="64" viewBox="0 0 1000 1000" xmlns="http://www.w3.org/2000/svg"><path d="M925 373c0 51-41 92-92 92s-93-41-93-92 42-93 93-93 92 42 92 93zm-37 155l-112 96c1 7 2 15 2 23 0 81-66 147-148 147-70 0-129-49-144-114l-277-94c-22 17-49 27-79 27C58 613 0 554 0 483s58-130 130-130c62 0 114 43 127 100l268 91c26-26 62-43 102-44l40-121v-7c0-92 74-167 166-167s167 75 167 167c0 72-47 134-112 156zm-676-90c-15-28-45-47-79-47-51 0-92 41-92 91s41 91 92 91c9 0 18-1 26-4l-43-14c-35-19-48-62-29-97 18-35 62-48 97-29l28 9zm491-66c0 71 58 129 130 129s129-58 129-129-58-129-129-129-130 58-130 129zm3 288c0-55-44-98-99-98-7 0-15 0-22 2l55 19c35 18 48 62 30 97-19 34-63 47-98 29l-59-20c12 40 50 69 94 69 55 0 99-44 99-98z"/></svg>