<svg width="64" height="64" viewBox="0 0 1000 1000" xmlns="http://www.w3.org/2000/svg"><path d="M998 391c-3-5-7-9-24-10-5-1-20-1-44-1-66 0-110 20-133 59 6-39-32-59-115-59-97 0-158 39-182 118-9 29-10 53-3 71l-23 2c-18 1-42 3-56 3-36 0-58-6-67-18-7-11-6-31 3-60 14-48 51-70 110-70 30 0 60 3 60 3 4 0 6-4 6-8l-1-4-2-17c-1-10-9-17-24-19-13 0-23-1-37-1h-1c-77 0-131 25-161 76 11-51-24-76-107-76-46 0-79 1-99 4-15 2-24 8-28 19l-6 21c-1 3 1 5 5 5h1c3 0 17-1 41-3 31-3 55-4 70-4 46 0 65 11 58 34-2 5-5 8-11 9-43 7-77 12-102 16-71 9-112 31-123 66-15 48 23 72 114 72 45 0 83-2 114-7 18-3 27-8 31-19l16-54c-1 54 36 81 114 81 33 0 65-1 80-4 16-3 23-6 27-18l3-17c17 26 53 38 109 38 59 0 93-1 103-5 8-2 13-6 15-12 0-1 0-2 1-4l7-23c1-4-1-5-6-5l-37 2c-26 1-45 2-60 2-26 0-45-2-55-6-15-6-22-17-21-34l119-15c54-7 90-24 108-50l-41 141c-1 3 0 5 1 6 2 2 4 3 8 3h49c9 0 12-4 13-8l44-152c6-20 24-30 56-30 29 0 51 0 65 1h1c3 0 8-1 10-8l8-21c2-4 1-7-1-10zM202 574c-16 2-38 3-67 3-50 0-72-10-66-30 5-15 18-24 40-26l114-16-21 69zm528-124c-5 16-27 27-67 32l-95 14 2-8c8-26 19-43 34-52 14-10 38-14 70-14 43 0 62 9 56 28z"/></svg>