<svg width="64" height="64" viewBox="0 0 1000 1000" xmlns="http://www.w3.org/2000/svg"><path d="M315 333c-3-1-6-2-9-1-22 2-45 4-67 8-69 9-137 21-205 34-12 3-23 5-34 9 3 0 6 1 8 1 43 2 85 6 127 12 66 10 130 24 194 42 101 27 199 65 296 105l60 26c-1-1-2-2-3-2-122-78-245-156-367-234zm171 71c2 1 2 2 3 2l120 84c2 2 3 1 5 0 12-6 24-12 35-18 98-47 199-83 304-110 15-4 31-7 47-11-173 2-344 20-514 53zm-107 77c-1-1-1-1-2-1l-87-24c-2-1-4 0-5 0-44 14-87 31-128 51-53 27-101 60-148 95-1 1-2 1-1 3 46 8 92 16 139 24 3 0 5 0 8-3 10-11 21-21 32-31 53-44 113-79 176-107 5-3 10-5 16-7zm57 23c-43 19-85 43-124 70-26 19-52 38-73 62-2 2-5 4-6 7 1 0 1 1 1 1l142 24c2 1 4 0 5-2 3-4 6-7 9-11 32-37 70-68 110-95 13-8 26-16 39-25-33-11-64-22-96-33-3 0-5 1-7 2z"/></svg>