<svg width="64" height="64" viewBox="0 0 1000 1000" xmlns="http://www.w3.org/2000/svg"><path d="M512 399c-4-4-10-2-14-1v78c-7-8-14-16-23-21-18-12-42-15-63-10-20 4-38 18-49 35-13 21-16 48-7 71 6 14 15 27 27 36 19 15 45 20 68 14 19-5 35-17 47-32v31c4 1 10 1 14 0 1-63 0-125 0-187 0-4 1-9 0-14zm-54 183c-17 9-36 7-53 1-20-10-36-30-38-52-5-32 18-65 50-72 15-3 32-2 45 6 18 9 31 27 34 47 5 28-11 59-38 70zM307 458c-24-21-65-21-90 0-17 14-27 36-26 58v84c5 1 10 1 15 0 0-29-1-59 0-88 0-29 26-55 55-54 29-2 56 23 58 52v90c5 1 10 1 15 0v-86c0-21-10-42-27-56zm-159-13c-1 10 0 21-1 31-8-10-18-19-30-25-15-8-34-10-51-7-26 4-49 22-59 46-7 14-8 30-6 44 4 26 21 49 44 61 16 7 35 10 53 7 20-4 37-17 49-33v31c5 1 10 1 14 0 1-52 1-104 0-155-4-1-9-1-13 0zm-5 97c-7 21-25 38-45 44-18 5-39 1-54-9-23-15-34-46-26-72 6-23 26-41 49-46 18-4 37 0 52 11 22 16 33 46 24 72zm669-94c-5-1-12-3-16 1-1 49 0 98 0 147 0 0 2 2 3 2 4-1 13 2 13-4V448zm-10-49c-8 2-11 12-6 17s14 4 17-2c5-7-3-17-11-15zm184 0c-1 25 0 51-1 77-6-8-12-15-20-20-18-12-41-16-62-12s-40 18-52 36c-11 18-14 39-10 59 4 23 19 43 39 54 14 7 30 11 46 10 23-1 45-15 59-34v30c5 2 10 2 15 1V398c-5-1-10-3-14 1zm-13 161c-8 12-21 21-35 26-13 4-28 2-41-2-21-8-37-26-41-48-3-15-1-31 6-44 9-16 25-28 42-33 14-3 29-2 43 5 18 8 32 25 36 44 4 18 1 37-10 52zM609 443c-37-3-70 31-71 67v90c5 1 10 2 14-1 1-22 0-43 1-65 0-15-2-31 5-45 8-15 22-27 38-30 5-1 9 0 13-3 1-4 0-9 0-13zm119 10c-17-10-38-12-57-9-21 4-40 18-52 37-10 17-14 38-10 57 4 20 16 39 33 51 16 11 36 16 55 14 29-3 54-23 65-49 7-15 7-31 5-46-4-23-19-44-39-55zm8 113c-8 10-20 16-32 20-19 5-41 1-56-12-14-10-22-26-25-42-5-33 18-66 50-73 16-3 32-1 46 7 20 10 33 31 34 54 1 17-5 34-17 46z"/></svg>