<svg width="64" height="64" viewBox="0 0 1000 1000" xmlns="http://www.w3.org/2000/svg"><path d="M106 579H60c-18 0-35-8-38-31l72-8c17-1 25-11 21-26-6-24-27-40-53-40-36 0-62 25-62 61 0 43 27 64 59 64h58v-9c0-6-4-11-11-11zm-44-86c15 0 27 7 31 18 2 3 2 7 0 9s-6 3-12 4c-3 0-59 7-59 7 0-23 16-38 40-38zm157-9v116l22-1V474h-12c-9 0-10 5-10 10zm-31 97c-17 0-23-1-23-13v-74h19c7 0 12-3 12-10s-5-10-12-10h-19v-33h-14c-8 1-8 9-8 9v24h-5c-7 0-12 3-12 10s5 10 12 10h5v79c0 26 19 27 45 27h12v-9c0-6-4-10-12-10zm50-119c3-2 3-6 3-10v-11h-12c-9 0-10 5-10 9v15h8c6-1 8 0 11-3zm485 119c-17 0-23-1-23-13v-74h19c7 0 12-3 12-10s-5-10-12-10h-19v-33h-14c-9 1-8 9-8 9v24h-6c-6 0-11 3-11 10s5 10 11 10h6v79c0 26 19 26 44 26h13v-8c0-6-5-10-12-10zM611 474h-46c-7 0-12 3-12 10s5 10 12 10h42c15 0 20 4 20 14v3c-1 7-8 8-11 9-31 7-72 0-72 43 0 23 20 37 48 37 0 0 27 2 37-12v1c0 7 4 11 11 11h9v-82c0-22-6-44-38-44zm16 80c0 22-12 29-32 29-18 0-29-6-29-21 0-11 9-18 20-20s28-3 41-6v18zM516 440c-11 0-10 9-10 9v151h22V440h-12zm-175 89l-38-7c-6-1-12-2-15-5-2-1-3-3-3-5-1-6 0-17 11-18h50c7 0 12-3 12-10s-5-10-12-10h-50c-26 0-34 21-33 40 1 13 10 23 29 27l39 6c13 2 16 6 16 16s-5 16-25 16h-50c-7 0-12 4-12 10v11h64c27 0 45-11 45-39 0-18-8-29-28-32zm106-55h-46c-7 0-12 3-12 10s5 10 12 10h42c15 0 20 4 20 14v3c-1 7-8 8-12 9-30 7-71 0-71 43 0 23 20 37 47 37 1 0 28 2 38-12v1c0 7 4 11 11 11h9v-82c0-22-6-44-38-44zm-16 109c-19 0-29-6-29-21 0-11 9-18 20-20s28-3 41-6v18c0 22-12 29-32 29zm563-89c-5-9-11-16-18-23-9-9-18-17-29-24-8-6-16-11-25-17-17-9-35-18-54-25-12-4-24-8-37-11-10-2-21-3-31-2s-20 4-28 11c-1 1-1 2-2 2l-1 2c-4 5-6 11-7 16-2 12-1 23 2 34 3 17 8 33 14 50s12 34 18 52c5 14 9 28 12 42 1 7 3 8 9 5 9-3 19-7 28-10 14-5 29-9 44-13 19-6 37-11 56-18 13-4 25-10 36-18 7-5 12-10 16-18 1-2 1-3 2-5 0-1 1-3 1-5 1-9-2-17-6-25zm-82 38c-6 7-13 11-21 16s-17 9-26 12c-7 2-13 3-20 3-9 1-15-3-19-11-6-10-9-21-11-32-2-8-3-15-3-23 0-7 0-14 3-21 4-10 12-15 22-17 13-2 24 1 36 5 11 4 21 10 29 18 9 7 15 16 17 27 2 9-1 17-7 23z"/></svg>