<svg width="64" height="64" viewBox="0 0 1000 1000" xmlns="http://www.w3.org/2000/svg"><path d="M812 440c-13-8-21-7-32 3-102 85-213 155-337 205-105 42-212 72-329 47 14 23 27 44 43 62 66 74 152 101 247 105 56 1 112-9 166-24 64-19 124-45 180-81 24-15 47-33 69-51 36-29 66-62 84-105 14-34 7-65-13-95-20-29-49-47-78-66zM231 611c93-13 181-45 266-83 56-25 111-53 163-86 21-13 44-24 65-40-4-2-6-4-8-4-94-33-191-55-289-73l-4-1-20-4-219-41c-18-4-37-8-55-12-9-1-17-3-25-5-9-3-14-1-20 6-62 84-85 173-48 274 11 28 28 47 55 58 46 21 93 17 139 11zm337 263c-76 22-153 31-233 19-29-5-57-13-89-26 37 38 73 68 114 91 36 22 74 36 116 41 65 7 121-18 173-50 76-47 132-113 181-187 11-18 24-35 33-58-3 2-5 2-6 3-81 83-180 134-289 167zm243-696c-33 20-66 40-102 55-89 36-183 47-281 49 46 8 90 16 135 24 67 12 134 28 200 46 15 8 27 5 39-7 22-22 47-41 69-64 25-26 48-54 67-84 25-41 19-77-9-113-7-9-9-11-17-1-30 36-63 68-101 95zm163 43c-31 63-78 113-127 163 43 21 80 46 110 87 19-85 30-166 17-250zm-831-8l51 14s280 63 485-14l5-2c44-16 86-34 123-63 35-22 63-51 91-80 7-8 5-11-2-17-22-16-46-26-71-33C754-4 681-3 608 6 461 25 325 74 203 158c-23 15-44 32-65 54l5 1z"/></svg>