<svg width="64" height="64" viewBox="0 0 1000 1000" xmlns="http://www.w3.org/2000/svg"><path d="M511 179c82 1 173 16 259 51 55 23 106 53 149 95 34 34 60 72 73 117 17 61 7 119-26 173-27 45-64 79-108 108-59 38-123 63-192 79-67 15-136 21-204 17-94-5-184-25-269-67-46-23-88-52-123-90-31-33-55-71-65-116-13-59-1-113 30-164 29-46 68-81 113-109 59-37 122-61 190-76 53-12 107-18 173-18zM144 330c-2 1-2 1-3 1-27 22-51 46-69 76-28 47-36 96-18 148 14 42 41 74 74 102 41 35 88 59 139 77 46 17 94 28 143 34 5 1 11 1 17 1-2-3-3-6-5-8-1-3-2-5-3-8-29-59-41-123-46-188-2-28-1-57-2-86 0-3-1-5-4-5-23-5-46-10-68-16-38-10-74-24-107-47-27-20-49-43-48-81zm429 440c3-1 6-1 8-1 26-4 52-8 77-13 61-13 119-35 172-68 38-24 73-54 97-94 26-42 36-88 23-137-10-38-31-69-58-96-11-11-23-21-35-32 1 33-15 55-38 73-13 10-28 20-42 27-45 24-94 36-144 45-3 0-4 1-4 5 1 33 0 67-4 101-3 38-10 76-21 113-7 26-17 52-31 77zM412 481c-1 1-1 2-1 3-1 59 3 118 17 176 6 28 15 56 30 82 5 10 12 19 22 26 10 8 29 8 40 0 10-7 18-17 24-28 12-21 19-43 25-66 9-32 14-65 16-98 2-31 3-61 4-91 0-2-1-3-1-4-29 1-59 4-88 4-29-1-59-3-88-4zm159-250c35 62 48 129 55 197 2 0 3 1 3 0 13-2 25-4 37-6 34-8 67-17 98-33 14-8 28-17 38-30 13-17 13-35 0-52-11-15-26-25-43-32-45-19-91-32-139-39-16-2-32-4-49-5zm-142 0c-7 0-13 1-18 2l-18 2c-52 6-103 19-151 40-17 7-32 17-43 31-7 8-11 17-11 29 1 13 7 23 16 31 12 12 25 20 40 27 32 15 66 24 101 31 9 2 19 3 29 5 3-35 8-68 17-102 9-33 20-65 38-96zm156 203c1-1 1-1 1-2-3-30-7-60-14-90-6-27-14-54-28-79-7-10-14-20-24-28-12-9-26-10-39-1-5 5-11 10-15 15-11 15-19 31-25 48-13 36-20 73-24 111-1 9-2 17-3 26 58 5 115 6 171 0z"/></svg>