<svg width="64" height="64" viewBox="0 0 1000 1000" xmlns="http://www.w3.org/2000/svg"><path d="M585 112c45 9 8 30 10 46 14 4 32-42 42 3 0 1 4 2 5 1 15-20 27-1 41 3 34 10 66 6 91-20 27-29 28-63 15-98-12-33-38-44-71-46-24-1-70 10-88 21-6 3-10-1-14-2-9-3-16-13-28-9 5 19 39 39-3 58 39 14 21 28 0 43zm94-91c13-7 26-9 41-6 37 8 55 41 48 86-5 33-33 54-67 51-12-1-27-3-31-15-6-18 7-11 15-8 5 2 9 3 17 6-15-47 22-14 33-26-3-14-47-32 8-41-14-13-46 3-38-29 1-3-13 0-19 1-6 2-12 2-15-5-2-7 3-11 8-14zm-28 28c14-2 28 19 36 41 0 0-35 30-39 27-8-7-21-16-22-25-1-18 8-42 25-43zm26 684c23 2 34-11 34-32 1-32-19-50-49-64 5 23-8 40-10 59s2 35 25 37zm71-327c-10 0-17 7-16 18 1 9 8 14 17 13s13-8 15-16c-3-8-7-16-16-15zM585 69zM456 792c1 13-4 16-16 10-14-6-27 0-32 13-12 31-31 48-72 38 22 37 50 34 77 29 24-4 44-18 49-46 1-7-5-23 9-19 35 11 19-15 18-25 0-15-18-15-27-18-10-3-7 11-6 18zm217 58c-1 23 20 18 37 21 14-5 39 1 38-25-1-22-23-20-37-19-16 0-38-1-38 23zm259-582c-36 15-38 22-11 52 10 11 22 21 33 30 10 8 18 3 20-8 4-33 10-66 3-99-12-1-16 8-22 12-8 4-15 10-23 13zm-81-35c-4-15-8-38-24-37-33 2-67-13-101 2-14 6-12 12-9 22 10 29 43 50 81 50 11 1 24-2 37-8 12-5 19-15 16-29zm-100-14c26 5 48 9 71 14-25 23-54 17-71-14zm49-63c44 6 87 11 128-7 38-16 53-43 47-83-3-18-14-35-6-55 4-9-5-8-11-9-28-6-34 2-34 40-1 12 0 23-11 30-4 3-10 2-14-1-10-9-7-20-3-31 5-15 6-31-14-35-25-6-49-5-79 5 16 6 25 10 34 14 10 6 26 10 24 23-2 11-17 6-26 9-5 2-12 1-15 9 7 3 14 4 20 7 15 7 34 10 37 31 1 7-1 14-9 17-18 9-32-3-49-15 4 22-1 38-19 51zm136-81c1-5 5-8 9-7 3 1 6 5 8 8 6 17 2 32-13 42-15 11-33 14-53 12 22-14 46-26 49-55zM783 512c-19 2-42-2-51 23 17 14 45 20 41 49-5 31-37 28-56 37 8 18 21 31 41 37 0-4 1-8 1-12 0-20 5-46 26-42 21 3 12 29 8 46-2 8-10 21 10 17 5-1 12 8 27 18-14-22-9-32 15-34-18-11-29-18-37-29-5-9-13-19-3-27 9-8 19 0 27 7s14 16 21 24c14-14 18-29 11-48-20 3-46 18-53-1-9-25 24-21 38-29-8-21-23-29-44-31 0 13 6 25 1 37-3 7-4 17-14 16-11-1-13-12-13-20 0-13 8-25 4-38zm-528 84c5 9 11 17 13 27 4 16 0 26-20 20-4-1-7-9-12-2-4 5-2 11 1 17 7 14 19 17 33 14 18-5 25-19 22-37-2-22-18-37-30-54-27-40-55-79-42-137-38 33-57 67-55 112 1 22 2 48-36 40 4 16 13 21 25 18 15-2 21-13 22-28 3-25-6-53 10-77 2 30 18 54 19 83 0 10 4 23-12 26-5 1-10 0-9 7 1 5 4 10 9 11 21 5 29-7 28-25 0-17-6-33-12-49-9-23-14-47-5-73 10 40 30 74 51 107zm491 140c14 0 26-5 26-22 0-20-13-34-31-34s-4 23-14 30c-4 18 5 25 19 26zm217-515c8-13 12-26-5-42-8 37-34 48-64 54-8 2-19 1-16 13 1 9 12 11 19 10 26-3 51-10 66-35zm-30-37c-4-9-11-6-18-4-9 3-19 6-28 8-7 2-19-2-15 12 2 9 7 16 24 15 8-1 19-7 30-14 5-4 11-10 7-17zm-265 59c7 3 11-7 14-13 4-11 12-27 2-33-15-9-32-20-52-14-16 4-27 13-27 34 11-4 19-9 29-10 6 0 21-2 17 13-5 16 9 19 17 23zm-7 119c-11 0-19 6-20 18 0 13 7 20 20 22 12-2 20-9 19-22 0-11-8-18-19-18zm43-40c-14-1-23 8-23 22 0 13 7 21 21 21 14 1 22-7 22-21s-8-22-20-22zm-2 156c13 0 22-8 23-22 0-16-9-24-23-27-14 3-25 9-25 25 0 15 10 24 25 24zM597 250c-8 1-10 16-9 26 2 13 3 37 15 33 17-6 31-1 46-2 33-3 51-24 47-62-5 7-9 16-15 19-14 6-31 35-44-4-2-7-26-11-40-10zm25 489c9 1 15-4 16-13-1-12-8-21-20-22-13-1-7 12-9 18-3 10 2 17 13 17zm27-125c7 5 16 8 23 3 11-8 0-16-3-23-3-9-8-19 6-22 8-2 21-2 21 10 0 14 6 14 16 13 13-3 28-2 33-15 4-8-8-16-15-20-9-4-16-25-28-8-7 9-11 12-22 10-7-2-11-7-12-15 0-10 4-17 13-22 12-6 27-6 36-19-39-18-39-18-53 16-1 3-5 7-8 7-8 1-11-6-10-12 10-41-22-50-48-65-14 42-12 48 21 68 4 3 9 5 13 8 8 7 16 15 9 26-9 14-16 2-24-4-5-4-10-10-18-6s-6 12-6 19c0 13 2 27-7 43 23-2 33-13 43-24 5-6 10-16 19-10 8 6 0 13-3 19-4 9-5 16 4 23zm-56-211c-1 13 7 21 19 22 11 0 18-8 21-19-2-11-7-19-19-20s-19 5-21 17zM137 297c-2-18-13-35-37-34-40 0-73 32-71 71 2 26 29 16 43 18 27 4 68-31 65-55zm-62 40c-13-5-21-15-21-29-1-6 0-13 7-15 8-2 8 6 10 11 6 9 12 18 19 26-3 9-9 9-15 7zm36-24c-15-3-18-16-22-27 0-8 3-14 10-12 15 3 19 18 24 30 2 5-5 11-12 9zM78 711c-16-18-20-38-6-59 12 1 16 20 32 12-11-23-6-44 5-65 18-36 37-71 49-109 4-13 12-26 2-42-20 22-20 56-48 73-5-34 24-60 16-97-24 25-21 59-44 86-6-28 7-50 0-75-17 15-13 34-18 50-3 8-2 21-13 21-12 0-7-14-8-22-2-7 3-15-7-25-16 41-18 80-10 121 2 11 0 30 19 26 16-4 23-20 21-36 0-6-5-11-6-17-2-9-1-19 9-23s13 6 18 12c14 13 15 27 4 43-10 15-20 29-29 45-29 51-23 99 18 136 7 7 16 24 27 12 9-10 6-27-5-38-8-10-18-19-26-29zm214 150c11-35-7-84-38-102-21-13-43-18-64-3-16 11-20 28-17 45 5 26 21 43 47 50 16 4 33 1 40-16 9-19 2-36-15-47-7-6-18-10-24-1-6 11 4 15 12 20 7 3 17-2 20 10-10 17-24 14-39 7-15-8-21-21-18-37 1-14 11-21 24-23 28-3 58 27 59 60 1 28-16 44-48 44-38 0-62-18-75-54-5-15-1-31-6-48-23 16-28 37-23 61 12 49 65 82 118 75 24-4 40-18 47-41zM58 98c1-6-8-6-12-5-15 4-27 10-22 32 16-6 30-11 34-27zm4 151c-20-7-24-25-30-42-14 12-18 24-8 37 9 12 21 18 38 5zm13 164c-22 5-40 3-57-12 8 37 19 40 57 12zm624 340c-40 13-79 19-112-6-23-16-26 4-32 13-8 13 5 19 16 23 15 7 32 5 46-2 21-11 21 6 26 17 9 17-6 18-15 20-19 5-38 4-56-4-24-11-40-29-42-57-1-28 18-38 40-46 6-3 18-4 15-11-10-37 17-21 31-24 7-1 25-4 12-13-31-20 8-18 7-27-36-17-77-7-108 28s-36 87-11 128c24 40 70 59 117 47 37-9 63-43 66-86zm-79 127c-6-6 0-20-21-16-26 6-57 9-82-11-11-10-19-11-26 5-8 18-24 30-42 37-16 7-31 12-43 28-16 19-45 11-55-11-7-14-13-27-30-35-3 39-30 49-65 50 11 16 24 23 38 24 28 2 51 15 74 28 46 25 94 28 142 7 11-5 18-4 28 3 22 15 46 12 71-6-60-7-73-10-87-32-12-20-21-20-38-6-37 28-78 31-109 7 43 1 82-5 112-36 19-20 33-19 44 7 3 5 6 10 10 15 27 29 52 24 66-12 3-9 1-21 13-26 14-6 7-14 0-20zm-51 39c-11 1-16-7-16-17 1-9 7-14 16-14 10 0 13 7 15 16-2 8-6 15-15 15zm187-46c-24 15-49 21-77 16-23-4-41 15-44 46-2 24 11 37 39 37 32-3 65-12 92-38 12-12 21-26 19-45s-9-28-29-16zm-25 62c-11 7-23 14-36 9-7-2-3-8-3-13 1-15 40-39 53-32 2 1 4 5 4 7 1 14-8 23-18 29zm244-416c-9-4-15 1-21 7-8 7-13 18-28 21 3-25 16-40 29-55 39-50 32-90-21-122-7-4-15-7-19-15-25-52-68-68-124-58-6 1-12 0-18-2-20-6-19 6-17 19 12 70 73 104 142 77 23-9 41-8 57 10s19 40 7 61c-4 9-9 24-23 19-12-5-12-18-10-29 1-14 10-28 1-42-42 27-42 51-3 77 8 5 13 9 7 18-9 13-12 29-27 38-5 4-6 10-10 1-20-50-81-69-95-124 0-3-5-4-10-7-1 6-1 10-2 14-10 45-8 48 38 61 24 6 41 22 52 42 10 17 18 36 27 54 29-34 33-35 55-4 12-11 17-25 19-40 1-7 3-16-6-21zM858 384c-14-10 5-15 2-23-10-5-17 4-25 5-5 0-24 24-17-9 3-15-22 2-36-13 21-2 19-16 18-29 15 1 16 17 28 19 9-3 1-15 10-19 15-4 13 52 41 11 7 15 13 28 28 41-22 0-37 5-49 17zm-32 38c28 36 55 63 77 93-17-34-16-82-77-93zm37 287c-27-10-52-7-70 17-15 19-33 33-56 38-12 3-22 8-15 23 7 14 18 8 28 3 18-11 32-28 46-43 5-4 10-12 17-5 6 7 3 14-3 19-13 12-26 24-40 36-15 13-12 23 3 33 17 12 33 13 48-3 9-11 17-22 27-33 5-6 8-20 19-12 8 6 1 17-3 24-11 20-28 34-48 44-5 3-15 6-9 15 5 7 9 13 20 9 30-11 74-73 75-107-2-27-13-48-39-58zm2 46c-14 0-25-7-27-23-1-9 6-14 15-15 13 3 27 8 30 24 2 12-10 15-18 14zm61-153c-15 1-20 11-19 25 0 9 0 15-13 13-15-3-26 5-29 19-4 16 7 25 19 30 19 8 35 19 44 43 27-35 43-68 30-108-5-15-15-24-32-22zM96 392c5 12 15 14 29 7-10-10-9-24-12-38-18 6-22 17-17 31zm328 271c8 6 17 12 14 24-4 12-15 15-26 17-34 5-63-4-87-28-6 5-7 11-7 17-1 58 67 97 122 70 25-13 39-34 41-62 1-27-13-43-37-52-14-5-19-19-29-29-14 19-8 32 9 43zm29 39c8-3 9 6 9 13-3 16-15 28-30 33-11 3-9-7-10-14 0-21 17-26 31-32zM194 436c20-19 41-33 71-27-2 6-4 11-5 15-15 51-7 99 25 142 5 6 10 15 19 9 12-8 3-16-2-23-22-30-25-65-28-101-1-14 6-30 19-33 11-3 18 13 22 24 3 10 3 21 5 33 16-8 28-18 30-34 4-26-24-27-37-41 38-10 47-9 78 8 7-44-16-51-88-23 2-18 43-40 3-51-30-8-11 29-26 45-3-4-5-8-8-12-11-13-20-28-39-30-13-1-22 3-24 17-2 16 11 10 19 11 17 2 31 9 40 26-68 2-77 7-74 45zm54 291c35 6 55 25 58 61 0 7 4 14 7 19 12 19 31 25 52 22 9-1 16-7 14-16-4-21-18-38-39-40-24-1-30-13-35-32-7-24-20-44-51-44-9 1-23-1-26 12-3 14 11 16 20 18zM112 220c-1-24-14-44-30-43-15 1-23 10-24 26 0 18 21 37 40 37 16 0 12-12 14-20zm77 439c-8 1-13 1-18-5-11-12-31-14-33-3-4 25-40 33-29 62 3 8 10 12 19 13 6 0 13-1 17 2 16 11 37 17 42-2s25-26 25-48c-3-9-8-21-23-19zm-13 35c-1 9-7 15-16 14-9 0-14-7-14-16 1-9 7-14 16-14 9 2 15 7 14 16zm14-324c-1-19-23-47-36-43-16 6-18 22-18 37-1 20 8 35 28 36 18 1 26-13 26-30zM157 82c13 0 20-20 34-12 12 6 9 20 13 33 11-12 4-32 22-33 16 0 17 20 32 25-13-47-13-47 31-44-8-16-47-17-18-50-16 2-27-2-35 5-17 16-31 19-49 0-8-8-22-6-33-2 21 31-17 27-25 41 47-1 47-1 28 37zm223 364c1 20-9 32-24 42-45 30-45 40 1 70 3 2 5 4 8 5 6 5 15 9 10 19-5 7-14 5-19 1-24-18-28 2-32 17-11 42 23 78 77 80-27-24-25-48-5-74 11-15 19-33 1-48-22-18-18-33-2-53 19-24 14-41-15-59zm22-388c2-1 4-10 2-13-9-15-21-7-38-4 12 15 21 22 36 17zM21 72c17 1 31 2 44 3 8 1 18-2 22 7 5 9-3 16-9 23-14 17-29 33-43 50-4 4-9 9-3 15 4 4 9 2 14-1 15-8 31-17 47-25 8-3 16-11 25-5 10 5 5 16 5 24 0 5-2 10-3 15 0 6 0 12 5 16 7 5 12 0 16-3 31-18 31-19 36 18l1 15c1 6 1 15 11 15 8 0 9-9 11-16 3-12 5-25 8-38 4-13 11-23 24-7 13 15 18 6 20-7 5-25 17-20 31-8l30 24c6 4 11 12 18 7 6-5 3-14 1-20-4-13-10-24-14-37-2-9-13-19-6-27 8-10 20 0 31 2 18 4 44 21 54 3 9-15-17-30-30-43-36-38-36-39 10-59 4-2 11-2 11-11-13 0-25-1-37 1-17 2-39 1-45 18-6 15 15 24 23 36 5 9 20 17 13 27-9 14-21 0-32-3-2 0-4-1-6-2-7 0-14-10-21-1-6 6-2 15-1 23 2 15 19 26 14 44-20-5-28-27-49-29-8 9 3 28-11 31-12 4-11-17-24-19-13 10-3 31-19 42-12-14-2-34-13-47-13 4-16 16-24 24-3 2-6 5-10 2-2-1-3-5-3-7 0-13 12-29-1-36-11-6-24 10-37 14-3 0-6-1-12-1 7-18 21-25 31-37 9-11 10-19-8-21-7-1-14 0-21-2-17-4-19-12-6-24 4-4 10-7 15-10 4-4 11-7 10-13-2-7-9-8-15-9-24-3-48-5-74-1 7 12 16 10 23 13 7 4 18 2 20 11s-9 12-15 17c-10 7-24 12-32 29zm374 99c-16-14-31-28-56-39 9 27 23 44 37 60 5 7 10 22 22 12 11-10 9-23-3-33zm-4 67c-28-23-46 7-69 17-1-8-2-13-3-19-4-18-12-32-31-36s-36 1-50 15c-3 3-12 9-4 13 31 16 18 38 3 51-21 18-20-14-33-22-2 23-7 45 16 55 36 17 65-1 93-27 11 18 10 38 26 50 13 9 28 11 42 2 15-10 5-17-2-27-8-12-6-30 6-38 14-8 5 16 18 17 4-19 5-38-12-51zm-132 59c-1-30 3-58 26-80 1 30-3 58-26 80zm36-12c-9 2-11-7-9-14 3-11 3-26 17-28 11-2 7 11 9 15 0 15-5 24-17 27zm68 23c-2 5-5 12-13 9-5-2-5-8-4-12 3-18 4-37 22-55 7 23 2 41-5 58z"/></svg>