<svg width="64" height="64" viewBox="0 0 1000 1000" xmlns="http://www.w3.org/2000/svg"><path d="M942 707c-5-12-9-25-14-36-8-17-16-34-23-49l-1-1c-68-148-140-297-217-444l-2-6c-8-15-16-30-24-46-10-18-20-37-35-54-32-39-77-61-125-61-49 0-93 22-126 59-14 17-25 36-35 54-8 15-15 31-23 46l-3 6C238 322 165 471 97 618l-1 2c-7 16-15 33-22 50-5 11-10 23-15 35-13 37-17 71-12 106 11 74 60 136 128 163 25 11 52 16 79 16 8 0 18-1 26-2 32-4 65-15 98-33 40-23 78-55 121-102 43 47 82 79 122 102 32 18 65 29 98 33 8 1 17 2 25 2 28 0 55-5 80-16 68-27 117-90 127-163 8-34 4-68-9-104zm-442 51c-53-67-87-130-99-183-5-23-6-42-3-60 2-16 8-30 16-41 18-27 50-43 86-43s69 16 87 43c7 12 13 25 15 41 3 18 2 38-3 60-12 52-46 115-99 183zm392 46c-7 51-42 95-90 115-23 9-49 13-74 9-25-2-49-10-75-25-35-19-70-50-111-95 64-80 104-152 118-217 7-30 8-58 5-84-3-24-13-47-26-66-31-44-81-70-138-70s-108 27-138 70c-14 19-23 42-27 66-4 26-3 55 5 84 15 65 55 138 119 218-40 45-77 76-112 95-25 15-50 23-74 26-27 3-52-1-75-10-48-19-82-64-89-115-3-25-1-49 9-77 3-9 8-19 13-31 7-16 14-32 22-49l1-2c68-146 141-295 216-441l3-6 23-45c8-16 17-30 28-43 20-23 48-36 78-36 31 0 58 13 79 36 10 13 19 27 27 43l24 45 3 6c74 146 147 296 214 442v1l23 49c5 12 10 22 13 31 6 26 9 50 6 76z"/></svg>