<svg width="64" height="64" viewBox="0 0 1000 1000" xmlns="http://www.w3.org/2000/svg"><path d="M593 571c-6 0-11-2-16-5-16-10-27-24-37-39-15-23-28-48-43-72-12-19-25-37-43-51-34-27-74-27-108-2-14 10-25 23-35 37-17 25-30 51-46 77-10 16-21 32-36 45-19 14-39 15-58 0-10-8-18-17-25-27-15-21-26-43-39-65-14-22-28-44-47-62-16-14-34-22-55-23-4-1-5 0-5 4v34c0 3 1 5 4 5 11 1 21 7 29 14 7 6 13 14 18 21 17 23 29 48 44 72 13 22 27 42 47 59 33 28 77 29 112 2 15-11 27-26 38-42 14-21 26-43 38-64 11-17 21-34 35-47 21-20 45-21 66-1 12 10 20 22 28 35 16 24 29 50 44 73 12 18 24 34 41 47 14 11 30 17 48 19 6 1 6 0 6-6v-16-16c1-4-1-5-5-6zm292-187c-65 0-116 52-116 117 0 63 52 115 116 115 63 0 115-52 115-116s-51-116-115-116zm-1 189c-40 0-73-33-73-74 0-39 34-72 74-72 39 0 72 33 72 73s-32 73-73 73zM690 388c-3-4-4-4-8-1-15 13-22 30-23 50v175c0 3 1 4 4 4h35c3 0 5-1 5-4v-15l-1-153c0-9 1-17 7-23 2-2 0-4-1-5-6-9-12-19-18-28zM399 508c-18 0-32 14-32 32s14 32 32 32c17 0 32-14 32-32 0-17-14-32-32-32z"/></svg>