<svg width="64" height="64" viewBox="0 0 1000 1000" xmlns="http://www.w3.org/2000/svg"><path d="M506 907c-71-2-135-4-199-7-47-2-94-8-140-21-62-17-103-56-123-118-12-37-19-74-25-112C5 552-2 454 1 356c0-37 1-73 10-109 17-67 60-107 125-126 35-10 71-15 107-18 106-10 212-12 319-10 75 1 150 4 225 13 31 4 62 9 91 20 63 22 100 66 113 131 8 40 8 80 9 121 1 87-5 173-17 259-6 42-14 83-26 122-22 67-67 108-134 123-35 7-71 14-107 16-72 5-145 7-210 9zm0-34c61-2 128-4 195-9 33-2 66-7 98-14 52-12 89-43 107-94 8-26 16-53 21-80 16-91 23-183 22-276 0-46-1-92-10-137-11-56-44-93-99-110-20-6-41-10-61-13-75-11-150-14-225-15-97-2-194 0-291 10-31 3-61 8-92 15-61 15-100 53-110 116-6 36-8 73-10 109-3 84 3 167 14 249 5 40 12 80 24 119 19 59 58 96 119 108 37 7 75 13 113 15 59 4 119 5 185 7zm-260-33c-15-226-31-449-46-674 17-1 32-3 48-4 22-1 22-1 27 21 22 97 45 195 69 292 5 21 13 42 22 61 17 37 47 57 86 60 31 2 62 2 93 0 46-3 79-28 94-71 13-38 24-77 34-116 19-80 37-160 55-241 1-5 3-7 9-7 18 2 36 3 54 4 3 1 5 1 9 2-15 224-30 447-46 671-9 1-16 3-23 3l-71 4c-5 0-8-1-9-7-10-37-21-74-31-110-3-10-7-19-11-28-11-24-29-37-56-41-37-5-74-5-110 1-24 4-42 16-50 38-11 30-21 61-31 91-5 17-8 34-13 50-1 3-4 6-6 6-31-2-63-3-97-5z"/></svg>