<svg width="64" height="64" viewBox="0 0 1000 1000" xmlns="http://www.w3.org/2000/svg"><path d="M149 580c-76 66-30 187 124 187 89 0 179-57 249-149-100-49-185-83-276-74-25 2-71 13-97 36zM837 7H164C76 7 5 78 5 165v672c0 87 71 158 159 158h673c87 0 158-71 158-158v-7S738 723 608 661c-88 107-200 172-317 172-198 0-265-173-171-286 20-25 55-49 109-62 84-21 218 13 344 54 23-41 42-87 56-136H241v-39h200v-70H199v-39h242V155s0-17 17-17h98v117h239v39H556v70h195c-19 77-47 147-83 209 60 21 113 41 153 54 142 48 175 50 175 50V165C996 78 925 7 837 7z"/></svg>