<svg width="64" height="64" viewBox="0 0 1000 1000" xmlns="http://www.w3.org/2000/svg"><path d="M558 246c99 6 194 24 285 66 39 18 76 41 107 73 23 24 40 51 47 84 8 36 0 70-19 102s-47 57-78 78c-53 36-112 59-174 76-41 11-82 18-125 23-46 5-92 7-139 5-93-3-183-17-270-51-42-17-82-38-117-66-29-24-54-51-66-87-17-45-9-88 17-128 23-34 54-60 89-81 53-33 111-54 171-69 40-10 80-17 121-21 18-2 36-4 53-4h98zM397 411c-1 33 11 49 35 55 9 2 18 3 28 2 20-1 41-4 61-10 85-25 164-63 240-109 3-2 7-5 9-8 5-6 4-11-1-15-3-3-7-4-11-6-18-8-37-12-56-17-64-16-130-24-196-22-27 2-50 11-69 32-26 30-37 66-40 98zm79 305c11 1 21 0 32-1 14-1 27-5 39-14 16-14 29-30 40-49 12-23 21-47 19-74-1-9-4-18-10-25-11-13-25-17-41-18-22-2-44 2-65 6-96 20-182 59-258 120-6 5-6 10 1 14s16 7 24 9c38 11 77 18 116 24 34 4 69 8 103 8zM42 500c0 14 3 27 9 41 11 25 28 46 47 64 9 9 19 17 32 22 10 3 17 2 23-8 5-7 8-14 11-22 30-82 74-155 126-225 14-19 30-36 43-57 5-7 3-11-6-11-10-1-21 0-31 3-46 13-91 28-134 51-33 17-64 38-89 67-18 21-31 46-31 75zm914-1c0-4 1-8 0-12-9-52-38-90-85-113-10-5-16-3-21 8-4 7-8 14-11 21-22 47-44 93-70 137-21 37-42 73-67 107l-28 37c-2 3-3 6-1 10 2 2 6 1 9 1 55-10 108-27 158-53 33-18 63-38 87-67 18-22 30-47 29-76z"/></svg>