<svg width="64" height="64" viewBox="0 0 1000 1000" xmlns="http://www.w3.org/2000/svg"><path d="M1000 500c-1 278-224 501-502 500C223 999 0 775 0 500 0 224 225 0 501 0s500 225 499 500zm-92 242c-5-2-7-4-9-5-129-52-258-105-388-156-8-3-19-2-27 2-109 44-217 89-326 134-21 9-41 17-64 27 94 145 225 226 396 229 181 4 319-78 418-231zM507 28c5 35 9 66 14 97 15 107 29 213 45 320 2 9 8 21 15 27 97 76 194 151 292 226 13 11 27 21 42 32 81-166 81-328-18-483C808 107 676 37 507 28zM87 733c5-3 6-4 8-5 108-88 217-175 325-263 6-5 11-15 12-23 16-102 31-203 47-305 5-35 10-71 16-109-169 9-302 78-391 218C4 403 4 566 87 733z"/></svg>