<svg width="64" height="64" viewBox="0 0 1000 1000" xmlns="http://www.w3.org/2000/svg"><path d="M741 294v-28c0-4 1-5 5-4 59 9 116 20 172 41 15 6 29 12 41 24 8 9 13 19 17 29 10 22 18 45 24 69 0 3 1 6-3 8-22 16-45 29-73 30-19 2-37-3-55-9-34-11-65-29-95-48-2-1-4-2-7-3 5 13 11 25 16 37 0 1 2 2 3 2 32 16 65 31 100 40 30 8 58 0 85-11l18-9c3-1 5-2 7-1 2 2 0 4 0 6-3 18-13 29-29 37-59 29-121 36-186 30-17-2-35-5-53-4-29 1-42 14-43 43-1 24 8 46 19 67 6 13 14 24 21 36-3 2-5 0-7-1l-67-32c-4-1-8-4-10-7-15-16-30-33-44-49-21-22-46-39-76-44-25-4-49-2-71 12-20 13-25 33-27 55-1 16-1 33 2 49 1 1 0 2 0 4-8-4-16-8-23-12-12-5-23-11-35-16-4-2-5-5-7-9-17-72-63-118-131-141-37-12-75-10-110 10-40 22-60 68-52 111 10 46 45 80 92 85 16 2 33 2 48-4 30-10 47-42 39-74s-38-53-69-48c-16 3-26 13-27 26-1 14 11 25 25 22 4-1 7-2 11-3 11-2 22 3 26 14 4 10 0 22-10 27-26 14-55 12-78-10-37-35-24-95 25-117 46-20 106 0 134 46 43 72 1 160-82 176-85 15-168-34-193-116-15-46-8-91 12-135 26-57 68-102 119-138 65-46 136-79 214-95 53-11 106-11 159-10 78 2 153 18 226 41l3 1zm154 26c-32 0-59 26-59 58 0 33 27 60 59 60 33 0 60-27 59-60 0-32-27-58-59-58zm0 17c23 0 42 19 42 42 0 22-19 41-42 41-22 0-41-19-41-42 0-22 18-41 41-41zm9 45c10 0 18-6 18-12-1-7-8-12-18-12h-1c-10 0-18 6-18 12 1 7 9 13 19 12z"/></svg>