<svg width="64" height="64" viewBox="0 0 1000 1000" xmlns="http://www.w3.org/2000/svg"><path d="M931 227c0-7-3-9-9-11-24-5-48-12-73-17-6-2-9-5-11-11-3-15-8-29-11-43-1-8-5-10-12-12-25-5-50-11-75-17-5-1-7-3-9-8-4-18-10-35-14-52-2-6-4-8-10-10-64-14-129-29-193-43-8-2-15-4-23-2-66 15-132 30-197 46-6 1-8 3-10 9-4 17-9 33-14 50-1 6-4 9-10 10l-75 18c-6 1-10 4-11 10-4 15-9 29-12 44-2 7-4 10-10 11l-73 17c-7 2-10 4-10 12 0 31 1 62 3 93 5 65 17 128 37 189 48 148 128 274 238 382 43 42 91 78 144 106 5 2 9 3 15 0 21-11 41-23 60-36 74-52 135-117 188-188 112-150 173-317 177-505 0-13-1-28 0-42zm-54 51c-1 1 0 3 0 5-4 125-38 241-99 350-51 91-114 173-192 243-24 21-50 40-78 56-6 3-10 2-15 0-44-24-81-57-116-92-74-77-135-164-181-260-38-80-61-165-69-253-2-18-3-35-4-53 0-6 2-9 9-10l61-14c6-1 8-4 9-9 4-16 9-31 13-47 2-6 5-9 11-11 26-5 52-12 78-18 6-1 8-3 9-9 4-17 9-34 13-51 2-6 5-9 10-10 52-12 104-24 155-36 5-1 10-1 14 0 53 12 106 24 158 36 7 1 11 4 12 11 4 17 9 34 13 51 1 4 3 6 8 7 26 7 53 13 80 19 6 2 9 5 11 11 3 16 7 31 11 46 1 5 4 9 10 10 19 4 38 9 57 13 9 2 14 5 12 15zm-149-62c-58-43-123-69-191-90-8-2-10-2-10 7v726c0 3-1 6 2 8 2-1 4-3 6-4 56-50 107-104 153-163 34-45 64-92 80-146 13-44 10-85-25-118 9-9 18-17 26-26 40-41 44-96 11-143-14-20-32-37-52-51zm-29 347c-25 58-61 108-106 152-1 1-2 1-4 2v-28-174c0-7 2-11 8-15 18-12 38-24 60-28 30-6 50 10 52 40 1 18-4 35-10 51zm17-194c-24 23-54 35-84 48-11 5-23 9-34 14-7 3-9 2-9-6V217c34 10 64 26 93 44 13 8 24 16 35 26 34 28 26 58-1 82zM465 124c-14 8-28 16-43 23-8 3-10 8-10 15 1 136 1 271 1 407 0 3-1 7-3 10-1 3-4 5-7 5-4 0-5-3-6-6-1-4-2-8-3-13-26-103-35-209-38-315-1-20 0-40 0-63-19 14-35 26-51 38-6 4-8 8-8 15 1 38 3 75 5 113 4 53 9 106 19 158 4 19 1 32-13 44-1 0-1 1-1 1-3 5-6 3-8-1-8-13-15-27-20-41-23-67-34-137-38-207-1-10-2-20-3-31-15 11-29 22-43 32-5 3-6 7-6 13 3 52 8 103 19 153 16 68 42 131 85 187 4 6 6 7 11 0 13-15 27-29 40-45 26 91 55 179 125 246l3-1V133v-5c1-7-2-6-7-4z"/></svg>