<svg width="64" height="64" viewBox="0 0 1000 1000" xmlns="http://www.w3.org/2000/svg"><path d="M999 466c-7-97-39-185-97-262-72-97-167-161-284-190-32-8-65-12-98-13-2 0-4-1-6-1h-28c-7 0-13 1-20 1-45 3-89 12-131 27C172 85 50 222 12 391 2 437-2 482 1 529c12 217 164 401 375 456 47 12 94 17 142 15 116-5 219-45 307-121 84-71 138-162 163-270 7-30 10-60 11-91 1-1 1-3 1-5v-26l-1-21zM500 932C261 932 68 738 68 500 68 261 261 68 500 68s432 193 432 432-194 432-432 432zm280-650c-22-27-46-51-75-71-5-4-11-8-17-12l-2 4c-44 93-87 186-130 279-2 3-3 4-6 4-30 0-60 0-89 1-4 0-6-1-8-5L315 203c0-2-1-3-2-5-2 1-3 2-5 3-35 23-65 50-90 83-2 3-2 5-1 8 57 121 113 242 169 363 1 3 2 6 4 9 1-2 1-4 2-5 19-49 38-98 58-147 1-3 2-4 6-4h95c4 0 5 1 6 4l27 66c11 26 22 53 33 79 1-1 1-2 2-3 54-121 108-243 162-364 1-3 1-5-1-8zm-54 492c28-23 51-50 71-80 20-31 35-63 45-98 9-35 14-71 12-107-1-37-12-95-20-105-67 148-134 296-201 445 21-6 65-32 93-55zM159 402c-26 99-16 193 37 281 42 70 102 119 177 149 0-1 0-1 1-1L160 402h-1zm250 441c65 17 130 16 194-3-34-81-67-161-101-242-31 82-62 163-93 245zm191-683c-64-19-128-19-193-2 33 75 65 149 98 225 32-75 63-149 95-223z"/></svg>