<svg width="64" height="64" viewBox="0 0 1000 1000" xmlns="http://www.w3.org/2000/svg"><path d="M999 566h-1c-47 20-94 39-143 56-46 16-93 29-141 39-29 6-59 10-89 13-12 1-23 3-35 1-14-2-19-10-14-23v-2c4-10 10-18 16-26 25-33 53-64 78-96 22-27 43-54 60-84 12-21 23-44 25-69 1-20-2-40-13-57-12-21-30-35-51-45-19-8-39-14-59-17-70-14-143 3-143 3-36 6-71 16-106 28-54 18-105 42-154 72-76 47-139 108-188 183-13 20-25 41-32 63-1 2-2 4-2 6 0 0-20 52 7 87l1 1c9 13 21 24 37 32 12 6 24 10 37 13 0 0 44 12 112 0 23-3 46-8 68-14 45-12 88-31 130-53 1 0 1-1 1-1h-2c-58 15-115 27-175 30-19 1-39 1-59-1h-1c-2 0-5-1-8-1-5-1-11-2-17-4h-2c-1 0-1-1-2-1-27-8-36-22-38-28-3-7-3-14-1-21 4-10 10-19 18-27 21-21 46-36 73-47 3-1 4-2 4-5-1-18 0-36 0-53 0-5 0-5 4-4 21 7 42 11 63 12 36 2 71-4 104-18 18-7 35-17 51-28 3-2 4-2 5 1s2 7 3 11c0 3-2 6 0 8 3 1 6 0 9 0 2 0 3-1 3-3 1-10-2-19-7-27-7-12-22-21-34-20 5 4 9 8 14 13 2 2 3 3-1 5-7 5-14 10-22 14-26 14-54 23-84 26-20 2-40 1-60-3-7-1-15-3-21-5 15-15 30-31 45-47 3-2 4-4 2-8-4-9-7-19-11-29-1-2 0-3 2-4 19-6 38-12 56-19 55-18 110-33 166-46 26-6 52-11 79-16 7-1 15-3 24-4-11-9-21-17-31-26 4-3 8-5 12-8 2-1 4-2 7-1 20 6 41 12 60 19 18 6 35 12 50 23 11 7 19 16 22 30 1 2 0 5 1 8 0 8-3 15-6 23-7 17-18 33-29 48-29 40-61 76-93 112-20 23-40 46-58 71-10 16-20 32-24 51-3 19 1 35 17 47 11 9 24 11 38 12 23 2 46-1 68-6 37-7 73-18 108-31 82-30 162-67 239-109 13-8 27-15 39-24h-1z"/></svg>