<svg width="64" height="64" viewBox="0 0 1000 1000" xmlns="http://www.w3.org/2000/svg"><path d="M202 498c-5 0-8 0-11 1h-53c-6 0-11 5-11 11s5 11 11 11h44v15c0 4-5 7-14 10-8 2-15 3-22 3H74c-28 0-42-5-42-14v-69c0-10 17-15 51-15 1 0 2 0 4 1h16c7 0 11-4 11-11s-4-10-11-10H74c-17 0-33 2-47 7-18 6-27 15-27 27v70c0 13 9 23 27 28 12 5 28 7 47 7h72c17 0 32-2 44-7 16-6 24-16 24-28v-28c0-6-4-9-12-9zm162-38h-50c-18 0-33 2-45 7-17 7-25 16-25 28v40c0 13 8 22 25 28 13 4 28 7 45 7h50c18 0 32-3 43-7 15-6 23-15 23-28v-40c0-23-22-35-66-35zm36 75c0 5-5 9-15 12-7 1-14 2-22 2h-49c-9 0-17 0-24-2-11-2-16-6-16-12v-40c0-5 5-9 15-12 8-2 16-3 25-3h49c25 0 37 5 37 13v42zm382-75c-22 0-39 1-50 5-18 5-27 14-27 29v66c0 7 3 10 10 10s12-1 13-1c5-1 7-4 7-9v-66c0-9 11-14 34-14h11c9 0 13-3 13-9 0-7-3-11-11-11zm152 0h-51c-17 0-32 2-44 7-17 7-25 16-25 28v40c0 13 8 22 25 28 13 4 28 7 45 7h50c18 0 32-3 43-7 15-6 23-15 23-28v-40c0-23-22-35-66-35zm36 75c0 5-5 9-15 12-7 1-14 2-22 2h-49c-9 0-17 0-24-2-11-2-16-6-16-12v-40c0-5 5-9 15-12 8-2 16-3 25-3h49c25 0 37 5 37 13v42zm-292-74c0-11-9-20-28-25-12-4-28-6-45-6H473c-8 0-12 3-12 9v121c0 6 4 9 12 9 7 0 12 0 13-1 5-1 7-4 7-8v-41h110c19 0 35-2 49-6 17-7 26-17 26-30v-22zm-32 21c0 11-14 17-41 17H493v-49h112c27 0 41 5 41 13v19z"/></svg>