<svg width="64" height="64" viewBox="0 0 1000 1000" xmlns="http://www.w3.org/2000/svg"><path d="M433 712c-17-42-34-81-50-119-32-77-65-153-97-230-28-67 11-137 83-149 68-11 130 52 120 120-18 121-35 242-52 362-1 5-2 9-4 16zm122-378c-10-8-21-5-32-4-11 0-13-3-13-14 1-65 65-115 128-100 73 17 102 87 76 147-46 110-92 219-139 328-1 3-2 5-3 7-2 2-4 5-6 5-4-1-3-4-3-7-15-99-29-198-44-297-4-24 1-48 29-59 2-1 6-2 7-6zM428 748c-18-13-36-25-54-38-81-56-163-112-244-169-47-33-61-92-33-140 22-37 55-55 97-53 42 3 73 24 90 61 20 43 38 86 56 129 28 65 57 129 85 194 2 5 5 9 3 16zm141-2c25-57 51-114 75-172 12-26 23-51 34-77 11-23 20-47 30-70 4-8 7-17 11-25 21-38 62-58 108-53 40 5 75 36 86 77 11 42-3 87-38 112-99 69-199 137-298 206-2 1-4 4-8 2zm-126 39c-5 3-10 1-15 1-107 1-214 1-321 0-46 0-86-28-101-70-15-43-1-92 33-119 37-29 87-33 126-7 91 62 181 125 271 188 3 1 7 3 7 7zm109 1c50-35 97-68 144-100 45-31 89-62 134-93 68-46 155-9 169 71 10 60-39 122-100 122-112 1-225 0-337 0h-10z"/></svg>