<svg width="64" height="64" viewBox="0 0 1000 1000" xmlns="http://www.w3.org/2000/svg"><path d="M346 95c-122 66-140 174-140 174-1 2-2 10 1 14 3 3 7 3 12 2 43-15 171-57 251-79 115-30 210-49 270-59 5-1 9-2 10-6 2-6-2-12-2-12s-38-63-169-77c-70-7-166 7-233 43zm162 819c-126 2-238-41-318-116l-48 20v-75c-53-71-84-161-84-264C58 216 259 9 540 9c46 0 87 8 118 15C610 8 562 0 509 0 208 0 5 244 5 496c0 274 216 504 498 504 270 0 416-190 462-305l-84-45c-69 154-200 262-373 264zm301-567c-38 7-114 40-114 144 0 84 61 111 116 104 40-4 67-20 82-35 14-13 17-32 17-46 1-20 0-84 0-84l-104 23v25c0 16 8 25 25 21 5 0 13-3 13-3v20c0-1 2 11-25 16-34 6-50-15-50-53 0-40 23-64 51-70 31-7 48 0 59 2 34 5 44-47 13-59-24-9-54-11-83-5zm-194 92v74s-42-53-69-80c-15-15-39-6-39-6l-36 11v247s32-11 35-12c26-9 35-24 35-51v-85l74 86c12 12 28 13 42 9s26-17 26-36V382s-19 4-35 9c-18 5-33 17-33 48zM370 720s21-7 40-14c28-11 38-25 38-54V443s-22 7-41 14c-23 8-37 22-37 58v205zm-84 8c13 14 36 21 57 4 19-15 16-42 6-53l-54-54s48-75 55-87c11-17 5-37-13-46-21-9-39 1-46 13l-64 108v-87l-75 31v246l53-22s10-3 16-13c6-9 6-24 6-24v-78l59 62zm304 112c201-48 243-190 248-210 1-4 2-11-2-15-3-3-8-3-14-2-139 33-371 104-505 161-5 3-8 4-10 8-3 6 4 12 4 12 27 35 148 78 279 46zM230 374c0-25-23-42-61-28-14 5-56 22-56 22v179l67-28c32-13 57-32 56-66 0-18-14-31-29-34 16-13 23-27 23-45zm-71 8c15-8 25-5 25 9 0 11-7 20-17 25-2 1-5 2-8 4v-38zm10 104l-10 5v-44c18-9 29-2 29 12 1 13-8 22-19 27zm135-12c34-10 57-30 58-79v-94c0-15-11-19-23-15-10 3-22 7-22 7v112c0 11-2 25-16 28-10 3-15-4-15-15v-91c0-16-11-20-24-16-14 5-22 8-22 8v111c0 37 25 55 64 44zm440-272v-19c-24 4-69 13-97 20v163s53-12 83-19c10-2 16-9 16-21v-19l-54 12v-32s26-5 34-7c9-2 14-7 14-17v-19l-48 10v-25s25-5 38-8c11-2 14-9 14-19zm-252 90c1-27-24-43-58-35-22 5-60 18-60 18v168l27-9c10-4 18-12 18-24v-44l39 40c13 13 28 7 34 1 10-9 10-25 1-34l-29-27c13-11 28-27 28-54zm-73 49v-47c9-3 26-7 27 11 0 22-27 36-27 36zm381-26v-40l37 45c7 7 19 11 31 4 13-8 13-24 5-33-7-7-29-33-29-33 12-8 27-22 27-46 0-26-22-45-56-41-12 2-59 10-59 10v161l24-4c13-3 20-12 20-23zm25-96c1 21-25 31-25 31l-1-43c9-2 26-5 26 12zm-243 39c10-2 19-1 26 0 17 3 27-6 27-20 1-15-13-25-42-24-63 2-95 48-95 102 0 55 36 79 80 71 25-5 37-13 46-20 9-8 12-19 12-29v-63l-67 15v19c0 8 6 14 15 12 6-1 10-2 10-2v18c0 8-11 13-22 12-16 0-25-13-26-36 1-31 16-50 36-55zm368 321c-24 0-45 17-45 43 0 27 21 44 45 44s45-17 45-44c0-26-21-43-45-43zm0 78c-18 0-33-15-33-35s15-34 33-34 33 14 33 34-15 35-33 35zm20-45c0-10-7-14-19-14h-18v49h9v-21h6l12 21h10l-13-21c8-1 13-5 13-14zm-28 6v-13h8c5 0 10 1 10 6 0 6-4 7-9 7h-9z"/></svg>