<svg width="64" height="64" viewBox="0 0 1000 1000" xmlns="http://www.w3.org/2000/svg"><path d="M0 600c0 34 15 64 40 85V516c-25 20-40 51-40 84zm82-106v213c10 3 20 4 31 4h11V490h-11c-11-1-21 1-31 4zm92 14c-3-2-5-4-9-5v208h42V432c-16 22-28 48-33 76zm75-115v318h42V372c-15 5-29 12-42 21zm84-29v347h42V365c-8-1-17-2-26-2-6 0-11 0-16 1zm107 24c-13-8-28-14-44-19v342h63V363c-7 8-13 16-19 25zm40-46v369h398c84-6 122-58 122-121 0-67-51-122-119-122-17 0-32 4-47 10-11-106-101-189-213-189-54 0-103 20-141 53z"/></svg>