<svg width="64" height="64" viewBox="0 0 1000 1000" xmlns="http://www.w3.org/2000/svg"><path d="M569 705s-2 2 0 4c0 0 2 1 4 0 44-21 225-114 301-187 0 0 47-38 50-100 4-85-80-164-80-164S685 449 568 705h1zm-451 28c29 13 58 14 58 14 5 1 181 0 228 0 2 0 3-3 3-3 2-2-1-4-1-4C273 650 14 511 14 511c-24 73 8 132 8 132 33 69 96 90 96 90zm8-211c76 73 258 167 301 188 0 0 3 0 4-1 0 0 2-1 1-4-116-254-275-447-275-447s-87 83-81 165c4 62 50 99 50 99zm400 159c0 3 3 3 3 3 2 1 4-2 4-2 29-42 160-237 187-356 0 0 15-58 0-97 0 0-19-73-100-93 0 0-23-6-48-9 0 0-90 116-47 554h1zm-60 1s2 3 4 2c0 0 3 0 3-3h1c43-438-47-554-47-554-24 3-48 9-48 9-81 20-99 93-99 93-15 39 0 97 0 97 26 119 157 314 186 356zm-67 87L95 779c33 59 88 105 146 91 40-10 131-73 160-95 3-2 2-4 2-4-1-2-4-2-4-2zm590-160c3-9 4-18 5-27 0-9 2-19 0-29 0-6-1-13-2-20-2-7-3-17-7-22-19 10-38 20-56 31-24 13-48 26-71 39-40 22-80 45-119 69-15 7-29 17-43 25-8 6-35 22-41 25-10 8-22 13-31 20-11 5-20 14-30 19-5 6 2 8 7 7h236c40-6 78-23 106-53 11-11 21-25 29-39s14-29 17-45zm-84 171l-305-11s-2 0-3 2c0 0 0 4 1 4 29 22 118 83 160 95 0 0 79 27 147-90z"/></svg>