<svg width="64" height="64" viewBox="0 0 1000 1000" xmlns="http://www.w3.org/2000/svg"><path d="M999 478c-13-125-155-192-261-130-7 4-15 7-23 11-2-1-5-2-7-4-53-36-121-40-177-12-10 5-19 10-28 16-4 1-7-1-11-4-53-35-117-40-173-14-11 5-22 11-33 18-3 1-6 0-9-3-30-21-63-31-96-32-15 0-30 2-45 5-21 5-40 14-58 26-59 38-84 96-77 167 13 124 155 192 261 129 8-3 15-7 23-10 3 0 5 2 8 3 52 37 120 41 176 12 10-4 19-10 28-16 4 0 7 1 11 4 53 36 118 40 173 14 11-5 22-11 33-18 3 0 6 1 9 3 30 21 64 31 96 32 15 1 30-1 46-5 20-5 40-14 57-26 59-37 84-95 77-166zM748 608c48-73 48-145 0-217 2-2 5-4 7-5 7-5 13-8 20-11 39-15 94-13 135 23 57 48 64 131 16 188-15 18-34 32-56 40-41 14-89 9-122-18zm-279 1c-14 10-30 17-47 21-37 8-80 0-107-23 50-66 47-152 0-216 16-12 35-20 55-23 35-5 73 3 99 24-49 73-49 145 0 217zM284 423c32 42 33 110 1 152-33-36-36-110-1-152zm215 0c34 38 35 107 2 153-34-37-34-106-2-153zm32 184c49-72 49-144 0-216h1c13-11 29-18 46-22 37-7 81 0 107 23-49 67-47 152 0 216-16 13-35 20-55 24-34 5-73-4-99-25zm184-183c34 36 36 110 1 152-32-41-33-110-1-152zM245 614c-7 4-13 8-20 10-39 16-93 13-135-22-56-48-64-132-16-189 15-18 35-31 56-39 41-14 89-9 122 18-48 73-48 144 0 216-2 2-5 4-7 6z"/></svg>