<svg width="64" height="64" viewBox="0 0 1000 1000" xmlns="http://www.w3.org/2000/svg"><path d="M436 494c-6-4-14-8-24-11-7-3-11-5-11-8s2-4 5-4c1 0 4 1 7 4 6 4 11 6 15 6 5 0 8-1 11-4 2-3 4-7 4-11 0-7-4-13-11-18s-15-7-25-7c-11 0-20 3-28 9-8 7-13 16-13 28 0 16 8 26 25 32 10 3 15 5 16 6 2 1 3 3 3 5 0 3-2 5-5 5-2 0-6-3-12-7-4-4-9-6-13-6-4 1-8 2-12 5-3 3-4 7-4 12 0 7 3 13 9 18 8 7 19 10 31 10 13 0 23-3 30-9 9-7 13-16 13-29 0-11-4-19-11-26zm-105 5l19-27c2-3 3-6 3-10 0-5-2-9-6-13-3-3-8-5-13-5-6 0-11 3-15 8l-20 30v-18c0-3-1-6-1-8s-2-4-4-6c-4-4-8-6-14-6-5 0-10 2-13 6s-5 8-5 14v71c0 6 2 11 5 15s8 6 14 6 11-3 15-8c2-3 3-7 3-13v-19l27 35c3 3 8 5 13 5s9-2 13-5c4-4 5-8 5-14 0-3-1-7-3-10l-23-28zm-127-21c7 0 12 3 16 7 5 5 7 8 9 8 2 2 5 2 8 2 4 0 7-1 10-3 6-3 8-8 8-15s-4-15-13-22c-11-9-24-14-37-14-16 1-29 6-40 16-13 12-19 26-19 43 0 11 3 22 9 31 6 10 14 17 24 22 8 3 17 5 26 5 14 0 27-4 38-14 8-7 12-14 12-21 0-5-2-9-5-12s-8-6-13-6c-4 0-8 2-11 4-2 3-5 5-8 8-4 3-9 5-14 5-6 0-11-2-15-7-4-4-6-9-6-15s2-11 6-15c4-5 9-7 15-7zm-83-34c-6 0-10 2-14 6-3 3-5 9-5 16v69c0 7 2 12 5 15 4 4 8 6 14 6 5 0 10-2 13-6s5-9 5-15v-69c0-7-2-13-5-16-3-4-8-6-13-6zm-52 55l19-27c2-3 3-6 3-10 0-5-2-9-6-13-3-3-8-5-13-5-6 0-11 3-15 8l-20 30v-18c0-3-1-6-1-8s-2-4-4-6c-4-4-8-6-14-6-5 0-10 2-13 6s-5 8-5 14v71c0 6 2 11 5 15s8 6 14 6 11-3 15-8c2-3 3-7 3-13v-19l27 35c3 3 8 5 13 5s9-2 13-5c4-4 5-8 5-14 0-3-1-7-3-10l-23-28zm927 27l-8-13c8-9 12-19 12-29 0-5-1-10-4-16-3-7-7-12-14-17-7-4-14-6-21-6h-24c-15 0-22 7-22 21v68c0 6 1 11 4 15 3 5 8 7 14 7s10-2 13-5c4-4 5-8 5-13v-15l16 25c3 5 8 8 15 8 5 0 9-2 13-5 3-3 5-8 5-13 0-4-1-8-4-12zm-108-47c6 0 11-2 15-4 3-3 5-8 5-14 0-5-2-9-6-13-3-2-6-3-10-3h-44c-4 1-7 3-10 5-2 3-3 6-4 9v71c0 6 0 11 1 14 2 4 5 8 10 10 2 1 7 1 14 1h28c7 0 12-1 15-4 4-3 6-7 6-13 0-5-2-9-6-13-3-3-8-4-15-4h-17v-8h13c11 0 16-5 16-14 0-4-1-7-4-9-3-3-6-4-10-4h-15v-7h18zm-71-33c-2-1-8-1-17-1h-37c-11 0-17 0-20 1-3 2-5 4-7 7-2 2-2 5-2 9 0 5 1 9 5 12s8 5 13 5h10v55c0 7 1 11 3 15 4 5 9 7 16 7s11-3 15-8c2-3 3-8 3-14v-55h8c7 0 11-2 14-4 4-4 6-8 6-14 0-3-1-6-3-9s-4-5-7-6zm-274 15c0-3-1-6-3-9s-4-5-7-6c-2-1-8-1-17-1h-37c-11 0-17 0-20 1-3 2-5 4-7 7s-2 6-2 9c0 5 1 9 5 12s8 5 13 5h10v55c0 7 1 11 3 15 4 5 9 7 16 7 6 0 11-3 15-8 2-3 3-8 3-14v-55h8c7 0 11-2 14-4 4-4 6-9 6-14zm176 52c8-9 12-19 12-29 0-5-2-10-4-16-3-7-8-12-14-17-7-4-14-6-22-6h-23c-15 0-22 7-22 21v68c0 6 1 11 4 15 3 5 8 7 14 7 5 0 10-2 13-5 3-4 5-8 5-13v-15l15 25c4 5 9 8 15 8s10-2 13-5c4-3 6-8 6-13 0-4-1-8-4-12l-8-13zm-118-58c-4-8-9-11-17-11s-14 3-17 11l-35 73c-1 4-2 7-2 10 0 4 1 7 3 10 4 6 9 8 15 8 5 0 10-2 13-6 2-2 4-5 6-9h34c2 5 4 9 7 11 3 3 7 4 12 4s10-2 14-6c2-4 4-8 4-12 0-3-1-6-2-9l-35-74z"/></svg>