<svg width="64" height="64" viewBox="0 0 1000 1000" xmlns="http://www.w3.org/2000/svg"><path d="M749 565c5 23 17 41 39 51 38 17 75 34 113 51l65 29c13 6 23 2 29-11 1-3 2-7 3-11 3-13 2-26 2-39V213c0-23 1-46-2-69-1-11-3-21-7-32-14-35-38-57-76-63-3 0-6 1-9-1h-4c-2-1-5-1-8-1H104c-1 0-2 1-4 1h-6c-2 0-4 0-6 1-18 2-34 8-48 20-1 1-1 1-2 1l-2 2-1 1-2 2-1 1-1 1-1 1-1 1-1 1-2 2-1 2-1 1c-5 7-10 15-13 23-9 21-11 43-11 65v411c0 8 0 16 1 23 5 63 45 109 103 127 25 7 50 13 75 20l93 24c139 37 279 73 418 108 54 14 107 27 161 40 28 7 56 13 84 20 12 2 24 5 36 7 16 1 31-11 29-27 0-4-1-7-2-11-5-11-12-18-23-23-85-38-169-76-253-114l-84-38-63-29-145-66c-33-15-65-30-98-44-24-10-45-24-61-45-14-18-22-38-21-61 1-15 1-31 1-47 0-2 1-4-1-5 1-2 0-4 0-6v-90c1-1 1-2 1-4 1-5 2-10 4-15 5-12 13-20 25-25 9-4 19-5 29-5h388c13 1 25 4 35 14 12 11 16 25 16 41v197c0 5 0 10 1 15zM29 78z"/></svg>