<svg width="64" height="64" viewBox="0 0 1000 1000" xmlns="http://www.w3.org/2000/svg"><path d="M592 279c-25 2-53 4-80 8-43 5-86 13-121 30-69 28-116 87-116 175 0 110 71 166 160 166 30 0 54-4 76-9 36-12 66-32 101-69 20 28 26 41 61 70 10 4 19 4 26-2 23-18 62-52 82-70 10-8 8-19 2-28-20-26-41-49-41-99V283c0-71 6-136-46-184-43-40-110-55-162-55h-22c-95 6-196 47-218 165-4 14 7 20 15 22l104 13c11-2 16-11 18-21 10-41 43-61 80-65h8c22 0 46 10 59 28 15 22 13 52 13 78l1 15zm0 109c0 42 1 76-21 113-13 26-35 43-60 49-3 0-9 2-14 2-41 0-66-32-66-79 0-59 36-88 80-101 25-5 53-7 80-7l1 23zm342 523c46-38 65-108 66-145v-6c0-8-2-14-4-17-9-11-76-22-133-4-17 5-31 12-44 21-10 7-8 16 2 15 11-2 25-3 42-5 35-3 76-4 87 9 14 17-17 93-30 125-4 10 5 14 14 7zM5 766c130 119 302 190 495 190 119 0 256-34 363-98 14-8 28-17 41-27 18-13 2-34-16-25l-26 10c-116 45-238 67-351 67-180 0-354-50-495-132-13-7-22 6-11 15z"/></svg>