<svg width="64" height="64" viewBox="0 0 1000 1000" xmlns="http://www.w3.org/2000/svg"><path d="M634 122c10 3 21 4 31 8 45 15 74 47 85 93 11 44 1 84-31 117-50 52-101 102-152 153-2 2-4 4-7 6 3 2 4 4 6 6l147 147c19 19 32 41 38 67 12 54-13 112-60 139-48 28-106 24-149-11-13-10-24-23-37-35-1-2-2-3-4-5-2 2-4 3-5 5-14 13-27 27-42 39-41 30-85 34-132 13-40-18-64-50-72-93-8-42 2-81 32-112 50-52 102-103 154-154 1-2 3-3 6-4-3-3-4-5-6-6L286 345c-21-21-34-47-38-78-5-50 17-98 62-126 16-10 34-15 53-17 1 0 3-1 4-2h20c2 1 3 2 5 2 23 2 44 10 61 24 15 12 29 27 43 40 1 1 3 3 5 4l30-30c15-15 33-27 54-33 10-3 20-4 30-7h19zM500 559l-3 3c-39 39-77 77-115 116-14 13-27 27-40 40-7 8-11 19-10 30 1 19 10 34 29 41 18 7 34 2 49-11l18-18c4-4 8-8 14-13l-48-48 60-60c15 16 31 32 47 48l47-47 60 60-47 47c12 12 24 25 37 36 17 13 42 11 57-3 19-19 19-47-1-67L505 563c-2-1-3-2-5-4zm0-247l-47 47-60-60c15-15 31-31 48-47-3-2-5-4-7-6-9-9-18-20-29-29-17-14-43-12-59 2-19 19-19 47 0 66 39 40 78 79 118 119 12 12 24 23 36 35 2-1 3-2 5-4l148-148 6-6c13-16 13-40 0-57-13-16-37-22-55-12-9 6-17 15-26 23-6 5-12 11-19 18 17 16 33 32 48 47l-59 59c-15-15-31-31-48-47zm500 199c-1 7-3 14-5 21-15 53-49 85-102 95-44 9-83-5-115-36-11-10-21-21-31-31l-48 47c-20-20-39-40-59-60l46-46c-16-17-32-32-47-48l60-60 47 47c10-9 19-18 27-27 20-21 43-35 71-40 47-10 98 7 129 48 15 19 23 40 26 63 0 1 1 2 1 3v24zm-193-11c12 11 23 23 34 34 8 8 19 11 29 11 29-1 46-24 45-47-1-19-10-32-27-40-16-7-32-5-46 7-12 10-23 23-35 35zm-554-59c17-17 32-33 48-48l60 60-47 47c16 16 31 31 46 47l-59 59-47-47c-11 10-21 20-30 30-19 20-42 33-70 38-47 8-88-5-121-42C6 556-4 521 1 482c6-40 26-71 61-93 51-31 115-24 157 17 12 11 22 23 34 35zm-59 60c-12-12-22-24-34-34-10-10-23-14-38-11-19 3-31 14-36 33-4 18 1 33 15 45 15 12 33 16 49 5 16-10 29-25 44-38z"/></svg>