<svg width="64" height="64" viewBox="0 0 1000 1000" xmlns="http://www.w3.org/2000/svg"><path d="M710 214h202c42 0 78 29 86 70 7 37-7 76-46 96-19 11-40 15-62 15H758c-4 0-9 0-13 1-12 3-18 11-20 24 0 5-1 11-1 16v264c0 41-32 78-73 83-45 6-87-24-95-68-1-5-2-11-2-17 0-85 1-170 0-256 0-10-2-19-4-29-1-4-3-7-5-10-6-11-17-13-28-8-11 4-18 13-26 20-35 35-70 70-105 104-51 51-101 102-152 152l-90 90c-13 13-27 22-46 25-14 2-28 0-41-7-27-13-45-33-54-63-8-27-1-52 16-73 11-14 24-26 37-39l88-88c52-52 104-104 157-156 35-35 70-69 106-103 15-15 32-28 52-35 18-6 36-8 54-8h197zm131 89c0 36 29 66 65 66 34 0 66-27 66-66 0-36-30-66-66-66s-65 30-65 66zm149 298v97c0 40-26 73-64 83-47 12-95-19-103-67-1-6-2-12-2-18V504c0-17 5-34 15-48 14-21 33-33 58-36 44-6 83 21 93 64 2 6 2 13 3 19v98zm-470-8c1 37-29 70-69 70-39-1-70-31-70-70 0-42 34-70 70-69 39 0 69 31 69 69z"/></svg>