<svg width="64" height="64" viewBox="0 0 1000 1000" xmlns="http://www.w3.org/2000/svg"><path d="M299 410l-77 181h62l12-33h90l12 33h63l-78-181h-84zm12 109l25-69h10l25 69h-60zm-148 1c-1 11-2 15-6 19-5 5-20 5-45 5s-43 0-48-5-5-13-5-39 0-35 5-40 24-5 48-5 40 0 45 5c3 3 3 7 4 16h59c1-25-3-40-16-54-15-14-37-16-92-16s-78 2-94 18-18 31-18 76c0 44 2 59 18 75 15 14 38 18 94 18 45 0 77 0 94-17 13-13 17-26 17-56h-60zm446-40l-69-3c-12-1-23 2-23-13s10-14 42-14c34 0 43-2 43 16h58c0-15-2-30-15-43-15-15-38-15-86-15-44 0-68 0-83 15-12 11-15 30-15 41 0 35 17 53 51 54l78 4c16 1 20 4 20 14 0 14-9 15-29 15h-33c-23 0-29-4-29-16h-58c0 11 0 30 11 40 14 14 23 19 92 19s76-4 91-19c12-12 13-27 13-38 0-42-18-55-59-57zm81-69h59v179h-59zm291 13c-17-17-48-18-93-18s-75 1-93 18c-16 16-19 32-19 76 0 45 3 60 19 76 18 17 49 18 93 18s76-1 93-18c16-16 19-31 19-76s-3-60-19-76zm-46 115c-5 5-23 5-47 5s-42 0-47-5-6-13-6-39 1-34 6-39 23-5 47-5 42 0 47 5 6 13 6 39-1 34-6 39z"/></svg>