<svg width="64" height="64" viewBox="0 0 1000 1000" xmlns="http://www.w3.org/2000/svg"><path d="M341 427c-45 0-82 34-82 81s37 82 82 82 82-35 82-82-37-81-82-81zm0 131c-25 0-46-21-46-50s21-49 46-49 46 20 46 49-22 50-46 50zM128 452v35h83c-2 19-9 33-19 43-12 12-31 25-64 25-50 0-90-41-90-92s40-92 90-92c28 0 48 11 63 25l24-24c-21-20-48-35-87-35C59 337 0 394 0 463s59 127 128 127c38 0 66-12 89-36 23-22 30-54 30-80 0-9-1-16-2-22H128zm669-107h35v240h-35zm134 213c-19 0-32-8-40-25l109-45-4-9c-6-18-27-52-69-52s-77 33-77 81c0 46 34 82 81 82 37 0 59-23 68-36l-28-19c-10 14-22 23-40 23zm-3-100c14 0 26 8 30 18l-73 30c-1-31 25-48 43-48zm-190-13h-1c-8-9-24-18-43-18-41 0-78 36-78 82 0 45 37 81 78 81 19 0 35-9 43-19h1v12c0 31-17 48-43 48-22 0-36-16-42-29l-31 13c9 22 33 48 73 48 41 0 77-25 77-85V432h-34v13zm-41 113c-25 0-45-21-45-49 0-29 20-50 45-50 24 0 43 21 43 50 0 28-19 49-43 49zM519 427c-45 0-82 34-82 81s37 82 82 82 82-35 82-82-37-81-82-81zm0 131c-25 0-46-21-46-50s21-49 46-49 46 20 46 49-21 50-46 50z"/></svg>