<svg width="64" height="64" viewBox="0 0 1000 1000" xmlns="http://www.w3.org/2000/svg"><path d="M1000 500C1000 224 776 0 500 0S0 224 0 500c0 277 224 500 500 500s500-223 500-500zm-24 0c0 263-213 476-476 476S24 763 24 500 237 23 500 23s476 215 476 477zm-30 0c0-158-81-322-254-374-36-11-66-18-101-18-80 0-83 45-120 45-21 0-35-15-35-33 0-31 38-56 97-56 56 0 99 14 107 18l1-4c-15-6-68-24-141-24-159 0-321 82-374 253-11 36-18 67-18 101 0 81 46 85 46 122 0 20-15 34-33 34-32 0-57-37-57-97 0-56 14-99 16-107l-4-1c-4 16-22 68-22 141 0 161 82 323 254 376 36 11 66 17 101 17 80 0 83-47 120-47 20 0 35 16 35 35 0 30-36 55-97 55-55 0-100-13-107-16l-1 4c15 7 68 22 141 22 160 0 323-80 374-254 11-34 18-66 18-99 0-82-46-85-46-122 0-21 14-35 34-35 32 0 57 38 57 99 0 54-14 97-17 106l4 2c5-17 22-68 22-143zM778 633c0 62-54 127-133 127-95 0-144-80-144-152 0-101 70-144 99-159-6-5-10-10-14-17-34 23-64 44-128 80-2 45-6 93-18 127-23 70-72 121-136 121-53 0-80-38-80-80 0-30 18-69 50-98 40-36 85-58 146-91 1-8 2-16 4-26-15 14-38 20-56 20-29 0-52-25-58-52-39-3-68-30-69-74 0-32 12-60 33-60 9 0 11 7 11 13 0 5-7 23-7 41s9 42 31 42c0-72 53-165 115-165 41 0 47 30 47 44 0 65-65 137-118 155 1 6 7 21 24 21 21 0 45-20 58-35 5-29 26-70 54-70 11 0 16 8 16 18 0 21-22 47-38 65-3 14-4 29-4 41 48-29 73-44 109-70-3-10-3-21-3-32 0-65 43-137 100-137 32 0 48 22 48 47 0 47-40 88-97 131 5 11 11 21 22 27 2-3 20-6 35-6 17 0 40 4 40 21 0 19-26 24-47 24-11 1-29-3-29-3-30 8-89 43-89 131 0 60 38 115 96 115 44 0 80-33 82-84 0-33-14-68-47-68-17 0-32 12-32 30-1 28 19 31 19 49 0 12-9 18-19 18-28 0-49-28-49-62 0-42 36-76 83-76 61-1 93 52 93 109zM676 284c0-7-1-16-10-16-21 0-54 45-54 102 42-36 64-67 64-86zm-245-6c0-7-4-10-10-10-29 0-70 77-70 122 45-25 80-81 80-112zm-17 259c-62 31-141 85-141 144 0 22 11 36 32 36 60 0 98-97 109-180z"/></svg>