<svg width="64" height="64" viewBox="0 0 1000 1000" xmlns="http://www.w3.org/2000/svg"><path d="M348 473c-4 4-6 9-10 13v-24h-42v144h45v-69c-1-12 4-24 14-31 9-7 21-7 32-6v-38c-14-4-29 1-39 11zm-52-11zm-10 84c0-21-4-43-16-61-21-29-65-35-95-18-20 10-33 31-35 53-3 20 0 42 12 59 10 16 28 27 47 30 18 3 37 1 54-8 15-8 26-21 31-38h-43c-7 17-29 19-43 11-10-6-15-17-16-28h104zm-104-28c2-11 7-21 17-26 10-4 24-4 32 4 6 6 9 14 10 22h-59zM0 462zm103 0c-10 31-18 62-29 93-9-31-19-62-28-93H0c18 48 33 96 51 144h46c17-48 33-96 50-144-15 0-29-1-44 0zm467 40c2-2 4-4 5-7l1-33H455v35c23-1 45 0 67-1 1 2-1 3-2 4-22 24-43 49-65 73v33h124v-35h-71c21-23 41-46 62-69zm-171-40v144h44V462h-44zm578-72c-17 39-36 77-54 116-6-15-14-29-20-44-8-1-15 0-23 0 11 24 23 48 34 72h18c23-48 45-97 68-145-8 0-15 0-23 1zm-99 100c-5-13-14-23-26-28-17-7-38-6-52 5-6 4-10 10-14 15v-20h-43v144h44v-80c0-9 3-18 9-25 8-8 22-9 32-3 6 5 9 13 9 21v87h44v-76c0-14 1-27-3-40zm-479-80v40h44v-40h-44zm311 67c-19-17-45-22-69-18s-45 21-54 44c-6 13-7 28-6 42 3 25 18 48 41 58 30 14 68 9 91-15 29-30 28-84-3-111zm-30 91c-11 13-35 14-45 0-10-13-11-30-9-46 2-12 7-26 20-30 9-3 20-2 28 3 10 8 14 21 15 33 1 14 0 29-9 40z"/></svg>