<svg width="64" height="64" viewBox="0 0 1000 1000" xmlns="http://www.w3.org/2000/svg"><path d="M666 391c12-8 24-9 37 0 5 3 9 8 14 12 3 3 6 5 10 6 13 3 26 6 37 14 2 1 4 3 6 4 5 6 12 8 19 9 8 1 16 4 22 9 11 9 22 15 36 17 18 3 32 12 46 21 7 5 15 10 22 14 9 4 19 6 29 3 11-3 16-14 13-24s-10-16-16-23c-6-6-13-12-18-19-8-9-6-20 3-27 8-6 16-10 26-12 7-1 14-3 19-10 2 5 3 10 2 14-1 17-11 25-29 27h-3c-4 1-5 4-3 7l6 6c9 8 17 16 23 26 15 29-8 53-32 53-6 0-11-1-17-2-5-1-6 1-5 6 4 11 3 23-2 34-3 8 4 14 10 15h10c4 0 6 2 8 6 1 5 3 9 4 14 1 4 3 7 5 9 5 4 9 8 13 13 3 3 6 7 11 8 1 0 2 1 3 2 1 4 2 9 4 14 0 2-1 3-2 3-11 1-21 1-27-10-4-6-6-6-13-3-6 3-12 1-17-3-6-4-12-8-18-11-10-5-20-6-31-3-4 1-9 0-13-2-4-3-10-5-14-9-3-2-5-5-7-9-2-6-3-13-5-20 0-1 1-3 2-4 0 1 2 2 2 3 4 8 9 17 17 22 11 7 22 9 34 7 14-3 27 2 39 11 2 1 4 3 6 5h3v-2c-13-15-27-24-48-22-16 2-29-3-38-17-6-9-9-19-10-29-1-7-3-12-5-18 0-3-1-4-4-4-3 1-2 3-2 5 1 5 3 11 3 16 2 15-4 23-20 23-2 1-5 1-8 0-15-1-30 1-45 2-6 1-12 1-19 1 1-3 2-6 3-8 0-2-1-5-2-5-3-2-4 0-5 3-3 10-10 16-20 19-1 1-2 1-3 2l-13 13c-2 2-2 5 0 8s5 5 8 7c4 2 9 3 13 4s8-1 10-5c1-3 2-6 4-9 2-4 5-6 10-6h14c5 0 5 2 3 6-2 3-3 6-5 8-2 3-4 6-9 6-3 0-5 2-5 5-1 4-2 8-6 11-5 4-10 5-15 3-10-3-20-6-29-9-3-1-5-2-7-4-3-3-6-4-10-4-5 1-6 1-9-5-41 56-95 88-165 88-70-1-125-32-165-88-3 2-6 5-9 6s-6 1-8 1-5 1-7 2c-11 4-23 9-35 13-7 2-13 0-17-6-3-2-4-5-6-9-2-3-5-5-8-4-4 1-7 0-8-4-3-4-5-8-8-12-1-3 0-6 3-6 6-1 11-2 17-2 4 0 7 2 9 5 3 4 5 9 8 12 5 8 9 9 18 7 4-2 9-4 13-6 4-3 5-7 3-11-2-8-7-14-14-18-4-2-7-4-10-6-7-5-12-11-14-19-1-3-1-5-4-4s-2 3-2 5c3 8 0 12-9 12-12 0-25-1-38-1-5 0-10 1-15 2-4 0-7 0-10-1-8-1-12-7-11-18 1-6 2-12 3-19 0-2 0-4-2-4-3 0-4 0-5 3-1 8-3 16-4 25-2 13-10 22-21 28-10 5-20 7-31 7s-23 2-33 8c-4 3-8 7-12 11-2 1-2 3-3 5v4c1-1 3-1 3-2 9-9 20-15 32-17 4 0 9 0 13-1 8 0 16 0 24-1 9-1 16-5 21-12 4-4 7-9 10-13 1-1 2-2 4-3l3 6s0 1-1 2c-3 6-6 12-10 18-1 2-4 4-7 5-4 3-7 4-11 7-7 4-14 5-22 4-6-1-11-2-17-2-6-1-11 1-15 6-5 5-11 7-16 10-4 2-7 2-11 1-8-2-10-1-14 5-7 14-14 15-27 12-1-1-3-1-5-1 1-5 2-10 4-15 1-3 3-5 6-6s6-4 8-7c3-3 6-6 9-8 8-4 14-9 16-18 0-2 1-4 2-5 2-5 5-7 10-7 8 1 15-3 22-8 4-2 5-5 3-9l-6-24c-1-4 0-8 0-11 0-5-1-6-6-5-8 3-17 4-26 2-32-6-39-35-29-55 4-7 11-13 18-19 3-4 8-7 12-11 2-2 4-4 3-7s-3-3-6-3c-3-1-6-1-9-1-15 0-29-16-26-31 0-2 1-5 2-8 2 1 3 2 4 3 9 7 19 10 29 12 6 1 11 3 16 5 10 6 13 20 6 29-5 6-11 11-17 16-5 5-10 9-14 14-14 15-7 37 12 42 8 2 16 0 22-4 10-4 19-9 27-15 14-11 28-19 46-20 13-1 23-7 32-16 8-8 17-13 29-14h2c7 2 12-1 16-5 10-12 23-17 37-21 10-3 19-7 28-13 10-8 22-10 34-8 3 1 3-1 4-2 21-29 47-51 80-66 79-36 173-15 230 51 6 6 11 13 16 20zm-23 198c1 3 1 6 2 8 1 9-7 15-15 13-3-1-6-2-10-4-8-3-17-6-27-4-6 2-11-1-15-5-1-1-2-1-3-2-2-3-4-3-7 0-6 5-13 11-20 15-3 2-9 3-13 4-1 0-3-1-3-2 0 0 1-2 1-3 1 0 2-1 2-1 5-5 9-11 13-16 3-4 5-9 8-13l3-6v-3s-2 0-2 1c-1 0-2 1-3 2-5 7-10 13-14 20-5 6-11 9-18 9-2 1-5 0-6-1-1-3 2-3 3-5l2-1c13-9 21-22 26-37 6-19 11-39 16-58 6-19 14-37 29-49 14-12 28-24 42-35 9-6 17-12 26-19-45-61-104-91-180-84-56 6-100 34-133 79 4 3 8 5 11 8 6 4 11 9 16 13 23 18 42 39 58 63 3 6 6 13 7 20 2 20 7 40 15 59 0 2 2 4 3 5 3 5 7 9 10 13 6 9 11 18 21 22 1 0 2 1 2 2-1 0-2 1-2 1-2 1-5 1-7 1-10-2-16-9-22-17-3-5-7-10-12-15-1-1-4-2-5-3l-1 1c0 1 1 2 2 3 3 6 7 12 10 18 3 8 7 13 14 17l8 5c1 0 2 2 2 3-1 0-2 1-3 1-13 0-24-4-33-13-5-6-7-6-13-1-5 4-10 8-17 7-10-2-19 0-28 3-5 2-11 3-17 4-4 1-8-2-9-5-2-7-2-14 3-19 1-1 1-2 1-3-1 0-2-1-3 0-4 0-5-1-4-4 2-4 5-7 8-10s5-6 6-10c1-3 3-6 5-9 1-1 1-2 2-3-1 0-1-1-2-1-7 1-15 3-23 4-3 1-7 2-11 2-6 0-6-2-3-7 5-8 7-18 6-28 0-1-2-3-3-4-1 1-2 2-3 4-1 4-1 8-2 12-2 11-7 20-20 20-1 0-2 1-3 1-3 1-4 3-3 6 0 1 1 2 2 4 4 7 7 14 12 21 3 6 3 11 2 16-1 2-2 4-2 6 0 1-1 2-1 4 2-1 2-1 3-1 9-8 11-17 5-27v-1l-11-21c6-4 12-2 15 4s6 12 9 17c3 6 4 11 1 17-1 2-1 4 0 5 4 6 7 11 11 16 47 54 105 79 176 68 57-8 100-38 131-86 1-1 1-3 1-5-1-5-1-9 1-13 4-6 7-12 10-18 5-8 5-9 15-3-1 2-1 3-2 4-4 6-7 11-11 16-3 5-1 19 4 21v-2c-1-8 1-14 5-20 4-5 7-10 10-14 2-4 2-8 0-10-1-2-3-4-5-5-10-5-15-13-16-23-1-7-1-14-2-21 0-3-1-6-4-6-2 0-3 2-4 5v16c1 9 5 18 9 27 2 4 1 5-4 5-14 1-27-2-38-13l-1-1c-1 0-2 0-3-1v4c3 4 6 7 8 11 3 4 5 7 8 10 2 4 4 8 6 11 1 3 3 6 4 9 2 4 0 6-4 6-1-1-2-1-5-1zm-66-43c1 0 1 2 2 3 1-1 2-2 3-4 2-3 3-7 5-10 3-3 7-6 10-8 4-3 6-2 9 1 1 2 3 2 4 3 1-2 2-4 1-5-2-5-4-9-7-13-2-3-4-3-7 0l-13 15c-4 5-6 10-7 18zm-172-20c1 1 1 1 2 1l3-4c4-5 7-5 12 0 5 4 8 10 8 17 0 1 1 2 1 3l2-2c1-3 2-7 2-10-2-10-10-16-15-24l-1-1c-3-2-5-1-6 2l-6 12c-1 2-1 4-2 6zm250-62c5-12 15-20 24-29 0 0 1-1 1-2 2-2 3-4 1-6s-4-1-6 0c-8 7-15 14-19 23-2 5-3 9-1 14zm-309 8l1-1c3-8 3-17-1-25-1-3-3-5-5-7-1-1-3-1-4 0-1 0-1 2-1 3 0 2 1 3 1 4 3 5 5 10 7 16 1 3 2 6 2 10zm58 113c9 0 12-2 12-8 0-3-1-4-4-4-4 1-7 4-9 8-1 1-2 2-1 3 0 1 2 1 2 1zm201 3c1 0 4 0 3-3 0-4-5-9-10-8-1 0-2 2-2 3 0 5 3 8 9 8zm-324 19c-4 0-6-2-7-4-2-5-3-10-8-13-2-2 0-3 2-4h16c1 0 3 1 4 3 1 3 2 7 3 10 1 1 0 3-1 3-3 2-6 4-9 5zm708 6c3 0 7 4 7 8 1 5 1 9 3 13 2 2 1 4-1 4-10 5-10 5-13-6-1-3-2-7-3-11-1-3 3-8 7-8zM12 640c-4-1-8-2-11-3-1 0-1-3-1-4 4-3 4-8 4-13 0-3 2-6 5-8h3c4 2 6 6 5 11-2 5-3 11-5 17zm706-51l8-1c2 0 3 1 3 4-1 4-3 8-4 12 0 0 0 1-1 1-5 3-9 1-13-1-3-1-4-4-3-7 1-7 3-8 10-8zm256 24c-1 0-3 0-3-1-4-4-7-9-10-13 0-1 2-4 3-5s4-1 5 0c4 2 7 5 10 7 2 2 4 4 2 7l-6 6-1-1zm-947-1c-4 0-7-1-8-4s0-6 3-8l9-6c2-2 4-2 6 0s3 4 1 6l-6 9c-2 1-4 2-5 3z"/></svg>