<svg width="64" height="64" viewBox="0 0 1000 1000" xmlns="http://www.w3.org/2000/svg"><path d="M335 381c-64-52-161-90-261-88-18 1-59 3-73 29-2 5-2 13 4 15 5 1 25 6 27-1s-17-6-17-10c1-4 17-7 28-8 66-3 127 9 183 34 57 26 127 66 144 132 3 24-3 46-23 62-41 30-97 35-149 26-2 0-4-2-5-4-5-27-2-58-2-86 0-4 4-5 7-4 30 3 79 9 88 19 7 7-15 15-16 20 0 5 12 5 19 5 10-1 21-8 24-17s1-25-10-34c-30-22-69-23-108-25-9-21 1-50-19-66-3-2-7-1-9 2-7 20-7 43-9 65-2 0-1 3-3 2-32 6-64 15-89 35-4 5-7 12-5 18 17 34 52 61 84 74 17 7 8 27 19 38 4 3 11 5 16 3 8-3 11-12 13-19 39 9 86 10 124-1 38-10 84-43 91-86 5-54-39-102-73-130zM153 555c-16-2-33-11-46-19-13-7-26-18-36-31-4-6 2-11 7-13 24-9 51-12 76-12 2 1 0 2 2 3 0 25 0 48-3 72zm840-84c-3-6-12-14-21-13-35 11-59 48-83 74-1 1-2 0-4-1 0-33 31-52 32-84-1-2-3-3-4-3-15 13-28 28-36 44-12 23-20 53-6 78-6 16-14 35-16 43s-26 70 3 94c5 1 11 8 14 0 6-39 16-76 30-111 35 4 65-18 83-40 17-22 20-56 8-81zm-39 73c-9 4-19 11-30 10 8-23 25-42 42-61 4-2 6-7 10-7 1 3 5 6 5 9 1 20-9 38-27 49zm-513-96c-3-2-7 1-9 5-7 24-7 53-8 79 1 16-2 35 7 48 2 4 10 5 15 4 4-2 10-3 10-8 1-37-1-70-4-105-1-10-2-18-11-23zm164 22c4-1 8-8 8-13-1-4-4-5-7-6-44-8-96-11-130 20-7 7-7 19-4 28 1 4 8 8 13 9 27 2 55 2 80 9 9 3 22 6 23 17 0 4-5 7-8 8-29 8-61 17-90 5-4-2-2-9 2-11 23-11 42 20 68 5 4-2 12-2 10-9-23-14-56-20-82-9-7 3-11 11-11 20 1 12 11 21 22 27 27 16 69 17 96 0 11-8 16-22 15-33-1-15-6-32-21-36-27-7-57-8-86-12-2-1-7-2-6-6 33-11 73-8 108-13zm89-44c-6 4-3 14-3 20 6 22 13 45 16 69 0 6 4 16-4 19-9-10-15-23-23-34-10-15-20-36-37-43-12 9-15 25-19 38-3 26-12 54-3 80 2 7 9 10 15 9 17-20 7-53 12-79 2-1 2-4 4-3 15 25 25 54 50 73 6 5 17-1 23-8 21-27 11-73 0-102-8-14-15-31-31-39zm-167-54c4-8 2-20-5-26-6-5-12-7-19-7-28-29-79-7-97 13-11 13-20 29-13 46 2 3 5 3 6 5 5 8-3 20 7 28 7 4 11-6 17-10 11 5 27 5 39 1 21-5 52-23 65-50zm-117 14c-3-7 0-14 7-21 6-7 17-11 27-13 2 1 0 2 0 3-15 9-21 21-34 31zm94-7c-18 17-41 24-66 22-4-4 2-7 3-10 18-19 38-38 63-36 3 2 5 4 6 6 3 7-1 13-6 18zm336 169c-14-3-29 1-43 3-7 1-14 5-20 1 3-9 2-21 11-27 7-3 31 0 45-1 6-1 7-13 6-16-8-11-26-5-37-6-2 0-4-1-6-2-2-7 3-14 7-19 20-2 42 1 58-6 4-2 3-7 0-10-3-5-9-14-13-15-22-2-47 0-69 5-9 1-19 0-28 4-2 15 16 15 23 23-6 7-4 22-16 22-4 1-7 6-6 11 7 12-5 22-7 33-4 16 1 34 13 39 32 14 62-5 85-24 3-5-1-11-3-15z"/></svg>