<svg width="64" height="64" viewBox="0 0 1000 1000" xmlns="http://www.w3.org/2000/svg"><path d="M0 761h523v-66h-33v33H33V272h457v268h33V239H0zm115-205h33v123h-33zm117 57l-33-57h-35v123h32v-64l38 64h30V556h-31v57zm49-57v123h41c39 0 58-10 58-62 0-51-19-61-58-61h-41zm65 62c0 31-9 33-21 33h-11v-65h10c14 0 22 1 22 32zm45-62h33v123h-33zm306-2c-46 0-54 30-54 64 0 33 8 63 54 63s54-30 54-63c0-34-8-64-54-64zm0 98c-18 0-21-13-21-33s3-33 21-33 20 13 20 33-2 33-20 33zm231-98c-46 0-54 30-54 64 0 33 8 63 54 63s54-30 54-63c0-34-8-64-54-64zm0 98c-18 0-21-13-21-33s3-33 21-33 20 13 20 33-2 33-20 33zm65 8c-6 0-8 4-8 9s2 9 8 9 7-4 7-9-1-9-7-9zm0 17c-5 0-7-3-7-8 0-4 2-8 7-8 4 0 6 4 6 8s-2 8-6 8zm4-10c0-2-1-4-4-4h-4v12h2v-4h2l1 4h3l-2-5c1 0 2-1 2-3zm-4 2h-2v-4h2c1 0 1 1 1 2s0 2-1 2zm-413-37h21v2c0 13 0 19-16 19-15 0-20-7-20-34 0-29 8-33 21-33 10 0 17 3 22 6l18-28c-9-6-23-10-38-10-43 0-57 21-57 64 0 37 10 63 51 63 7 0 13-1 19-2h30v-74h-48l-3 27zm231 0h21v2c0 13 0 19-16 19-15 0-20-7-20-34 0-29 9-33 21-33 10 0 17 3 23 6l17-28c-9-6-23-10-38-10-43 0-56 21-56 64 0 37 10 63 50 63 7 0 13-1 19-2h30v-74h-48l-3 27zm-288-46v-30h-82v123h82v-29h-50v-19h33l4-29h-37v-16z"/></svg>