<svg width="64" height="64" viewBox="0 0 1000 1000" xmlns="http://www.w3.org/2000/svg"><path d="M3 574v-30c17 5 32 8 45 8 18 0 27-5 27-14 0-4-2-7-4-9-3-3-10-6-21-11-19-8-32-15-38-20-8-8-12-17-12-29 0-15 6-26 17-34s26-12 44-12c10 0 24 2 43 6v28c-14-5-27-8-39-8-17 0-25 5-25 14 0 3 1 6 5 8 2 2 10 6 23 12 18 8 30 15 36 21 8 7 11 16 11 27 0 17-7 29-21 38-11 7-26 10-44 10-16 0-31-2-47-5zm134-148h42v150h-42V426zm81 150V426h107v27h-67v34h58v25h-58v35h69v29H218zm143 0V424h55l38 97 39-97h53v152h-40V468l-45 110h-26l-44-110v108h-30zm224 0V424h109v27h-68v35h59v25h-59v36h70v29H585zm139 0V424h49l53 102V424h30v152h-48l-54-103v103h-30zm162-2v-31c17 6 32 9 45 9 19 0 28-5 28-15 0-3-2-6-4-9-3-3-10-6-21-11-20-8-33-15-39-21-8-7-12-17-12-29 0-15 6-27 17-34 11-8 26-12 45-12 10 0 23 1 39 5h4v29c-14-5-27-8-39-8-17 0-26 5-26 14 0 4 2 6 5 9 3 1 11 5 24 11 18 8 31 15 37 22 7 7 11 16 11 27v1c0 17-7 29-21 37-12 7-27 11-46 11-15 0-31-2-47-5z"/></svg>