<svg width="64" height="64" viewBox="0 0 1000 1000" xmlns="http://www.w3.org/2000/svg"><path d="M353 602c-14-3-30-4-47-4-14-1-29 0-56 6s-65 18-91 24-38 8-51 8c-6 0-12 0-18-1s-10-3-14-5c-4-1-7-3-11-6-3-2-5-4-7-7-3-2-4-5-6-8s-3-6-4-10c0-3-1-7-1-11-1-4-1-8 0-13 0-6 2-13 5-22 2-9 7-20 13-34 6-13 15-29 25-45s21-32 32-45c10-13 20-24 29-32 8-9 16-15 22-20 7-4 12-8 17-10 4-2 9-4 12-5 4-1 7-1 11-1 2 0 3 0 5 1 2 2 2 4 2 6v4c-5 3-11 6-15 10l-4 4c-3 4-5 7-5 10-1 3 2 7 4 8 6 5 13 2 20-6 2-2 3-4 5-6 1-2 2-5 3-7 4-9 6-19 0-28-1-1-2-3-4-4-2-2-5-3-7-4-3 0-6-1-10-1-5 0-11 1-18 3-7 1-14 4-23 7-8 4-18 9-28 16s-22 16-34 27-24 23-36 36c-23 27-41 56-51 79-5 12-9 22-12 31-2 9-4 17-4 25-1 10-1 20 1 29 1 4 2 8 3 11s3 7 5 10 4 6 7 9c2 2 5 5 9 7 3 2 7 4 12 6s10 3 17 4c7 2 16 2 24 2 13 1 26 0 48-5 23-5 54-14 76-19 22-4 36-5 49-5 8 0 16 1 23 2s12 2 16 4c5 2 9 5 14 9s10 9 14 14c15-10 30-15 41-17 6-1 11-2 16-2 2 0 4 0 6 1 3 0 6 1 14 3 8 3 21 8 34 13-13-13-27-23-40-31-12-7-24-12-37-15zm167-176h-31l-15 28h29l17-28zm441-49c-13 7-24 12-37 16-13 3-27 5-41 4l-27 32c3 0 5 1 6 1h13c9 0 19-1 29-4 20-5 42-16 60-31 9-8 16-16 22-23 6-8 11-16 14-24-13 11-27 22-39 29zm-35 199c-5 8-11 15-15 20-5 6-8 9-11 12s-5 5-7 6c-1 1-3 2-4 3-2 1-4 2-6 1-2 0-2-2-2-4 0 0 0 1 3-5 2-5 6-13 11-21l52-89h-26l-8 8c-4-3-7-5-9-6-3-1-4-1-6-2h-5c-9 0-17 3-26 8-3 2-6 4-9 7-4 2-8 6-12 10-5 4-10 9-19 21-10 12-23 30-33 42-9 13-14 20-18 24s-6 6-8 7c-1 1-3 2-4 2-1 1-2 1-4 1s-5-4-5-6c-1-5-1-7 1-14 1-4 3-10 5-18 3-8 6-17 10-27 19-13 39-27 53-39 15-12 26-23 36-35 11-13 22-27 32-43l-12 2c-8 10-16 21-26 32s-21 22-33 33-26 21-39 31c8-17 18-33 27-49 10-16 20-31 31-45 10-15 20-28 29-38 9-11 17-20 23-26 7-6 12-10 16-13s7-4 9-5 3-2 5-2c1 0 1 1 2 1 3 3 2 4 2 7 0 0 0 1-2 4-1 3-3 9-5 14l10-1c2-4 4-7 5-9s2-3 2-5c0-1 1-3 1-4 0-5-1-10-6-15-1-1-2-2-4-2-6-2-10-1-17 1-4 1-9 3-15 6s-13 8-22 15c-8 7-18 15-29 27s-24 26-37 43-26 37-38 57c-12 19-23 40-34 61h-14c3-6 6-12 7-16 2-5 3-7 3-10 2-7 2-15 0-21-1-2-2-4-3-5-5-6-9-7-15-7-2 0-5 1-8 1-3 1-6 2-10 4-5 2-9 5-14 8-5 4-11 9-17 15-6 5-13 12-19 20-12 15-22 32-28 44-3 7-5 13-6 18s-2 9-2 13c-1 3-1 7 0 10 0 2 1 5 2 7s3 5 5 6c1 2 3 3 6 4 2 1 5 1 7 1 6 0 11-1 18-4 3-2 7-5 11-8 5-3 10-7 15-13 6-6 12-13 20-23 7-10 15-22 23-34h14c-5 12-9 24-12 32-2 8-3 11-3 14-1 6-2 12-2 17 1 2 1 4 2 6 0 2 1 4 2 6 1 1 3 2 4 4 2 1 4 2 6 2 2 1 4 1 6 1 8 0 15-2 24-9 4-2 8-5 13-10 4-4 10-10 15-16v18c1 2 1 4 2 5 0 2 1 3 1 4 1 2 3 3 4 5 3 1 5 2 9 2 2 0 4 0 6-1 4 0 7-2 12-5 3-1 5-3 9-6 4-4 9-8 13-13v9c0 3 0 5 1 6 0 2 0 3 1 4 1 3 4 6 6 6 8 3 14 1 23-3 3-2 7-4 11-8 4-3 9-7 14-13 5-5 11-12 17-21 7-9 13-19 19-30l-7 1zm-230 9l-12 15c-4 4-7 8-10 11s-6 5-8 7c-2 1-4 2-5 2-2 1-2 1-3 1-3 0-6-1-9-5 0-1-1-2-2-3-1-3-1-6-1-10 1-3 1-6 2-9s2-7 4-10c5-12 14-25 27-36 2 2 3 5 6 8l4 4c2 1 4 2 7 4 3 1 7 3 11 4-4 6-7 11-11 17zm24-54c0 2 0 3-1 5 0 2 0 4-2 8-2 3-4 9-7 15-4-1-7-3-9-4s-3-2-5-3l-2-2c-2-2-3-4-3-6-3-9-2-19 10-27 3-2 6-3 9-3s5 1 8 3c2 2 2 5 3 8 0 2-1 4-1 6zm138 61c-3 5-7 11-10 15l-8 8c-2 2-4 3-6 4-3 1-7 1-9-1s-2-4-2-8c0-1 0-3 1-6 1-2 1-5 2-8 2-3 3-7 5-11s5-8 8-13 7-11 11-17c5-6 10-12 15-17s9-10 13-13 7-6 10-7c2-2 4-3 5-3s3-1 4-1 3 0 4 1c2 2 1 4 0 6 0 2-1 4-2 6s-3 5-4 8l-37 57zm-231-50c1-7 2-13 3-19 0-4 0-9-1-12-1-2-1-3-2-4-2-3-4-4-7-6-1 0-3-1-5-1-2-1-4-1-7-1-2 0-5 1-8 1-12 2-24 9-37 23-4 4-7 8-10 13-4 5-7 10-10 16s-5 13-8 20l-6 21c7-6 14-11 19-15 5-3 8-5 12-7s9-5 14-7c2-8 4-16 8-23 1-3 3-6 4-9 2-2 3-4 5-6 4-5 8-7 11-9 6-2 11-3 15 2 2 2 3 4 3 7 0 9-2 18-6 28-2 4-4 9-6 14-3 5-6 10-10 15-7 10-17 21-29 30-10 9-22 15-29 18-4 1-7 1-10 1-2 0-5 0-7-1-5-1-10-5-14-9-2-3-3-5-5-8-2-6-3-12-2-17 1-7 2-13 6-24 5-11 11-27 20-45 10-17 21-37 32-54s22-31 31-43c10-12 18-21 26-28 8-8 14-14 20-18 7-5 12-8 17-11s9-5 13-6c11-5 21-5 31-5-8 5-16 11-24 17-14 11-25 23-32 33-4 6-6 10-9 15-2 4-3 9-4 13-2 4-2 7-3 10v7c1 2 1 4 2 5 0 2 1 3 2 4s2 2 4 3c1 1 2 1 4 2h6c5 0 9-1 15-3 3-2 6-3 9-6 4-2 7-5 11-9s8-8 12-13 7-11 10-16c6-10 10-20 12-29 1-5 2-8 2-12v-4-7-5c10 0 20 1 29 4 8 2 17 6 29 13 11 8 27 19 42 32l28-30c-9-8-19-15-28-21-8-5-15-9-22-12-6-3-12-4-18-6-8-1-14-2-23-1-4 1-7 1-13 3s-16 5-25 8c-5-3-10-6-14-8s-6-2-9-3c-9-1-18 0-29 3-9 3-19 7-31 13-11 6-25 15-39 25s-28 23-41 36c-14 13-26 27-36 40s-18 26-25 38-13 23-17 34-7 20-10 29c-2 10-3 18-4 25s0 12 0 17c1 5 2 10 4 14s4 9 7 13c4 4 7 7 11 10 5 3 9 5 14 6 10 3 20 3 31 0 6-2 13-5 20-9 15-8 32-21 45-36 13-14 22-30 28-44 4-6 6-13 8-19zm77-170c-1 6-2 11-4 18-1 6-4 14-7 21s-6 13-9 18c-3 6-5 10-8 13-7 9-13 14-19 17s-12 3-17 0c-1-1-3-3-3-5-1-6 0-12 3-19 1-3 3-6 5-9s4-7 8-11c3-4 7-9 12-14s12-11 18-15c7-5 14-10 21-14zM425 527c-5 6-7 8-9 10s-3 3-4 3c-2 2-5 2-7 2-1 0-3-1-3-3 1-1 0-1 1-4 1-1 2-4 5-10s8-15 13-25l44-75h-28l-5 7c-4-2-8-4-11-6-3-1-4-1-6-1-2-1-4-1-6-1-7 0-13 2-21 7-3 2-7 4-11 7-4 4-9 8-19 19s-25 29-36 43c-12 15-22 26-29 33-6 7-10 10-14 13-3 2-5 4-8 5-2 1-4 2-6 2-5 1-10 1-13-2-2-1-3-3-3-5-1-5 0-10 1-15 0-3 2-6 3-10 2-4 4-9 6-14 3-5 6-11 11-17 8-13 20-27 29-36 5-5 9-8 12-10s5-3 7-4c1 0 2-1 3-1 2 0 3 1 5 2 1 1 1 2 2 4v5c-3 0-6 1-8 1-2 1-3 2-5 2-1 1-2 2-3 2-6 5-7 11-7 15 0 2 2 4 3 5 5 5 12 2 18-6 1-1 3-3 4-5 3-5 6-11 7-15 1-8 1-17-8-23-3-2-6-3-10-3-2 0-5 0-8 1-3 0-6 1-9 3-4 1-7 3-14 8-7 6-18 15-26 22s-14 11-19 15c-5 3-9 5-14 7l-12 3c3-5 5-10 6-15 2-5 3-9 4-12s1-5 1-7c1-4 0-8-1-12-1-1-1-3-2-4-2-3-5-5-7-6-7-3-12-2-19 0-4 0-8 2-13 4-4 3-10 6-15 10-6 4-12 9-18 15-7 6-13 13-18 20-11 14-20 29-25 41-2 6-4 11-6 16-1 5-2 10-2 13v9c0 3 1 5 2 7s1 4 2 5c1 2 3 3 4 4 2 2 4 2 6 3s5 1 7 1 6 0 9-1 6-2 10-4c3-1 7-3 11-6s9-7 14-12c5-6 12-12 19-22 8-10 17-23 26-36l21-5c-6 11-12 23-15 30-4 8-5 11-6 15-2 11-3 22 2 30 2 3 4 5 6 7 3 2 5 4 9 5 3 1 7 1 10 1 10 0 19-2 30-9 4-3 9-6 15-11 6-6 13-14 21-22-1 7-1 14-1 19v8c1 2 1 3 1 4 1 1 1 2 2 3 2 3 4 4 6 5 8 2 14 1 22-3 3-1 6-3 10-6s9-7 14-12v12c1 2 1 3 2 5 3 3 6 4 10 4 1 1 3 1 5 1 7 0 15-3 24-9 5-3 10-7 15-13 6-5 12-12 18-21 7-8 13-19 19-30l-5-1c-8 11-16 21-22 27zm-248-1c-5 7-8 10-10 12s-4 3-5 4-3 2-4 2c-6 3-12 3-16-3-1-2-2-5-1-8 0-2 0-5 1-8s3-7 6-13c3-5 6-11 11-19 5-7 11-14 17-22 3 4 6 8 9 10 2 3 4 4 6 6s7 3 11 4c-10 14-19 27-25 35zm39-70c0 2 0 4-1 6 0 2-1 3-2 7-2 3-4 8-6 12l-9-3c-2-1-3-2-5-3l-3-3c-1-1-1-2-2-3-4-7-4-15 4-22 1-1 2-2 4-3 1-1 3-2 4-3 5-1 9-3 13 0 4 5 3 10 3 15zm160 63c-3 4-5 8-8 11-2 3-4 5-6 7-1 2-3 3-4 4-2 2-4 3-6 3-2 1-6 1-8-2s-2-5-2-8c0-1 0-3 1-5 1-3 2-6 3-10 2-3 4-8 8-14 3-5 7-12 13-19 5-7 11-15 16-21l15-15c3-4 6-6 9-7 2-2 3-2 4-3 3-1 5-1 7 0 3 2 2 6 1 9 0 0 0 1-2 4-1 3-4 7-7 12l-34 54z"/></svg>