<svg width="64" height="64" viewBox="0 0 1000 1000" xmlns="http://www.w3.org/2000/svg"><path d="M161 393c20 16 39 32 60 49 21-17 41-34 62-51 54-45 107-91 161-136 36-30 74-53 123-52 31 0 59 10 82 29 104 83 206 168 309 252 3 3 7 8 7 12 1 16 1 32 1 53-15-11-25-19-36-28-77-64-155-128-233-192-60-49-118-49-177 1L324 494c-6 5-12 11-17 16 24 29 51 32 80 9 48-40 95-81 143-121 49-41 89-41 138-1 93 76 187 152 280 228 7 6 13 12 22 19-14 12-27 24-40 35-103 86-206 173-309 259-13 11-27 21-41 31-65 42-117 42-180-4-44-33-85-68-127-103-73-59-146-120-219-179-13-10-20-21-18-38 1-17 0-35 0-57 8 6 13 9 17 13 98 78 196 157 294 235 72 59 131 60 203 0 78-65 155-132 233-198 18-15 36-31 56-48-20-17-39-33-58-49-66 54-130 109-195 163-29 23-57 47-87 69-39 28-81 28-119-1-63-48-125-98-187-148-44-35-87-72-132-106-19-15-29-30-25-54 1-6 0-14 0-23 6 3 10 5 13 7 82 66 163 132 245 197 16 13 33 26 50 37 39 25 78 23 113-7 70-58 139-116 209-173 10-9 20-17 29-25-24-31-51-34-80-10-50 41-100 83-150 124-49 41-76 41-126 1-98-80-195-159-293-239-5-4-10-8-16-14 38-31 74-62 110-92 76-64 152-127 228-190 44-36 92-60 150-57 50 3 93 26 131 57 102 84 203 167 304 252 7 6 12 18 13 27 2 19 0 39 0 64-19-15-33-26-47-38-89-73-177-145-266-218-27-22-56-40-92-42-39-2-72 14-100 38-99 81-197 164-295 246-1 1-2 3-5 7z"/></svg>