<svg width="64" height="64" viewBox="0 0 1000 1000" xmlns="http://www.w3.org/2000/svg"><path d="M516 427v-34c0-6-2-8-7-11-14-7-29-8-45-3-10 3-19 7-28 13-34 21-62 48-89 77-42 45-80 95-119 143-16 19-33 38-54 53-30 21-64 30-100 23-40-7-64-32-71-72-8-38 1-72 24-103 26-35 58-63 94-87 66-45 138-78 217-96 29-7 59-11 89-13 23-2 47 0 71 2 11 2 25-9 27-20 5-25 11-49 21-71 21-49 51-92 95-121 50-33 104-56 163-65 19-2 39-4 58-3 28 1 56 4 83 14 12 5 23 11 33 19 30 26 29 54 0 79-15 13-34 22-52 30-44 19-91 31-137 43-49 13-98 22-146 37-21 6-42 13-62 21-6 3-10 7-12 13-4 11-8 22-11 33-1 5-1 7 4 9 40 16 73 42 106 69 25 21 49 42 71 67 59 66 109 138 141 222 18 45 27 93 25 142-1 30-7 59-24 85-16 26-40 38-70 39-33 0-62-12-89-29-36-22-65-53-90-87-31-42-52-89-70-138-18-47-29-95-36-145-4-30-7-59-9-89-1-16-1-31-1-46z"/></svg>