<svg width="64" height="64" viewBox="0 0 1000 1000" xmlns="http://www.w3.org/2000/svg"><path d="M0 494v64h46l-1-43h72v-23H43v-21h80v-30H40c-41 5-40 53-40 53zm276-16c-2-28-37-36-37-36h-67c-31 3-39 32-39 32v47c4 31 33 37 33 37h78c30-10 32-33 32-33v-47zm-41 50h-61l1-56h60v56zm426-86h-67c-31 3-39 32-39 32v47c4 31 34 37 34 37h77c30-10 33-33 33-33v-47c-3-28-38-36-38-36zm-4 86h-61l1-56h60v56zm-232-86h-50l-24 24-25-25h-52l47 59-47 58h53l23-24 25 25 52-3-47-57 45-57zm0 36c-1 7-3 26 2 48v1c6 21 39 31 39 31h80v-31h-80v-52h81v-34h-80c-36 4-42 37-42 37zm390-37H709v118h43v-85h55l1 84 43-1v-79c-3-28-36-37-36-37zm149 0H858v118h43v-85h55l1 84 43-1v-79c-2-28-36-37-36-37z"/></svg>