<svg width="64" height="64" viewBox="0 0 1000 1000" xmlns="http://www.w3.org/2000/svg"><path d="M486 525c-46-38-91-78-113-136-19-52 10-88 45-120 31-28 65-54 98-81 59-48 104-104 90-188 29 36 27 75 12 115-20 52-57 91-99 126-29 24-60 48-81 81-24 38-21 75-4 115 14 31 42 54 52 88zM246 852c-14 9-30 11-43 22-13 10-12 16 2 22 36 16 73 19 111 22 130 11 259 8 388-9 28-3 55-11 82-18 15-5 30-12 30-33 16 14 15 23-2 34-25 16-54 25-83 31-189 41-378 36-566 3-15-3-33-4-36-20-5-18 14-25 26-32 28-16 58-28 91-22zm299-285c28-35 27-65 1-96-15-18-28-36-36-57-18-49-4-95 42-134 28-24 61-40 94-55 8-4 15-1 28-1-33 25-63 46-88 73-30 32-34 66-10 103 7 9 14 19 20 28 29 42 26 76-10 112-11 10-20 23-41 27zm111 253c-89 37-180 43-273 24-13-3-26-9-38-15-12-5-27-11-26-26 1-18 19-20 31-27 3-2 9-4 9 2-1 23 18 19 29 20 57 9 114 10 171 1 50-8 50-7 97 21zm36-228c-26 20-57 25-87 29-116 15-232 19-349 2-13-2-27-5-39-13-10-6-11-15 0-21 46-27 97-39 150-42-21 12-47 12-67 26-7 5-18 7-17 17 2 9 13 9 21 11 47 9 94 7 141 6 70-1 140-6 210-16 12-1 24-3 37 1zm-356 73c-8 23-4 29 24 32 83 11 167 9 249-7 27-5 43 7 64 22-22 9-43 12-64 15-88 16-176 22-264 3-15-3-29-6-42-14-19-13-19-21-2-36 10-8 21-16 35-15zm-36 319c191 3 381 11 564-65-2 16-13 22-24 29-45 24-95 34-146 40-120 15-240 17-360 1-11-1-23-3-34-5zm442-433c30-26 84-20 113 11 24 26 23 73-6 101-30 29-65 52-107 60-7 2-13 4-19 6 13-9 25-20 40-28 15-9 27-19 39-33 22-27 40-54 21-88-17-30-47-37-81-29zM336 665v-1 1z"/></svg>