<svg width="64" height="64" viewBox="0 0 1000 1000" xmlns="http://www.w3.org/2000/svg"><path d="M55 978H5c-1 0-4 2-5-1-1-2 0-5 2-7 9-9 18-20 28-30 52-58 105-116 158-174l157-171c18-20 35-40 53-59 3-3 5-4 9-4h56c4 0 5 0 5 4v47c0 3-1 5-3 7-38 42-76 83-113 124L201 879c-29 32-59 64-88 96-2 3-4 3-8 3H55zm511-511h-30c-2 0-3 0-3-3v-48c0-3 1-5 3-7 21-23 43-47 65-71l90-99c35-38 70-75 105-113 30-34 60-67 90-100 3-3 6-5 10-5 33 1 66 1 98 1 2 0 5-2 6 1 1 2-1 4-2 6-21 23-43 47-64 70l-99 108-99 109-98 107c-12 14-25 28-37 42-2 2-4 2-6 2h-29zM56 21h50c3 0 5 1 7 3 42 46 84 92 126 137l112 123 114 125c2 2 3 5 3 9v45c0 3 0 5-4 5-19-1-39-1-58 0-3 0-5-1-7-3-35-39-71-78-107-118s-73-80-110-120c-45-50-90-99-135-149C34 63 20 49 7 34c-2-2-4-4-6-7-1-1-1-3 0-5 0-2 2-1 4-1h51zm889 957h-50c-3 0-5-1-7-3-90-98-179-196-268-294-28-30-56-61-84-91-2-3-3-5-3-8v-45c0-3 0-5 4-5h57c3 0 5 1 6 3 59 64 117 128 176 193l179 196c14 15 28 31 42 47 2 1 4 3 3 5-2 3-4 2-6 2h-49z"/></svg>