<svg width="64" height="64" viewBox="0 0 1000 1000" xmlns="http://www.w3.org/2000/svg"><path d="M892 515v-35h-36l-37-1v38h28l1 7c1 8-1 9-12 9s-21-5-28-15c-4-6-5-9-5-18 0-14 5-24 16-31 8-5 9-5 21-4 9 0 15 2 22 5l9 4v-58l-26 1c-31 1-42 3-57 13-17 11-30 29-35 50-3 14-1 38 5 52 11 27 35 46 64 51 17 3 43-1 60-10 14-8 15-10 13-17-1-4-3-20-3-41zM1 417v23l-1 23h16l15-1v56c0 31-1 59-2 61-2 3 0 5 25 5h25V416l-39 1H1zm169 3v64h-30v-22l9 1 9 1v-44H88v164h31c26 0 28-2 27-5-1-2-2-15-2-30l-1-26h27v22c0 14 1 30 0 32l-1 7h53V420h-52zm60 0l2 5c4 10 3 151 0 155-3 3 1 4 47 4h49v-53l-3 2c-2 0-13 1-23 2l-20 1 1-10 1-9 6-1c4 0 9 1 13 2l7 1v-40l-14 1h-14l1-10 1-10h13c8-1 18 0 23 2l8 2v-44h-98zm252 0l-17 44c-9 25-17 44-18 43s-17-45-17-47c0 0 6-1 13-1l13-1 8-20c4-10 7-18 7-19 0 0-26 1-58 1h-58l4 3c4 4 45 97 68 154l3 7h35l26-64c15-34 27-63 28-63 2 0 0 121-2 123-1 2 8 4 49 4h47v-28c0-14 1-24 1-24s-3 2-7 3c-5 2-13 4-22 4h-16l1-11v-10l7-1c3-1 8 0 12 1l6 1v-40l-14 1h-14v-18l21 1c12 1 21 1 23 2 3 1 2 0 2-24v-21H482zm255 92l-7-6 4-6c14-19 12-51-5-67-13-14-28-17-75-17h-31l1 4c2 5 2 153 0 157-2 3 0 3 28 3 29 0 29 0 28-4-1-1-2-12-2-24 0-21 0-21 4-20 7 3 17 10 21 17 5 8 7 23 4 29l-2 6h30c17 0 29-3 28-4 0-1-2-11-4-21-4-23-11-39-22-47zm-43-25c-4 3-7 6-11 6h-10v-18c0-12 3-16 6-16 2 0 6 2 9 3 10 5 14 17 6 25zm301 45c-5 2-38 4-41 3-1-1-1-4-1-10l1-9 12 1c6 0 11 1 12 2 3 1 2-1 2-20v-20l-16 1h-15v-21h16c12 0 21 1 30 4l5 2v-24l-1-24h-49l-50-1 1 4c2 5 2 155 0 159-1 3 2 5 49 5h48v-53l-3 1z"/></svg>