<svg width="64" height="64" viewBox="0 0 1000 1000" xmlns="http://www.w3.org/2000/svg"><path d="M683 699v-3h19v3c-1 0-2 1-4 1 1 4 4 8 6 12 1-2 2-5 3-7s1-3 1-5c-1-1-2-1-4-1v-3h16v3c-2 0-4 1-5 2-2 1-3 3-4 5l-5 9c-1 2-1 4-1 6 1 2 0 4 1 6 2 2 5 1 7 2v3h-23v-3c3-1 7 0 7-4 0-3 1-7-1-10-1-3-3-6-5-10 0-1-1-3-3-4-1-1-3-2-5-2zm108 0c5-5 13-4 18-1v10h-3c-1-3-1-7-5-8-2-2-5 0-6 3-1 2 1 4 3 5 3 3 8 4 11 8 3 3 3 10-1 13-3 3-8 4-12 4-3-1-7-1-10-3 0-4-1-8-1-11 1 0 2 0 3-1 1 4 2 7 6 9 2 2 5 2 7 1 3-2 3-5 1-7-4-4-10-5-13-9s-2-10 2-13zm-313-3h17v2c-1 1-3 1-4 2s0 2 0 3c2 5 3 10 5 15 1-5 3-10 5-15 0-3-3-4-5-5v-2h17v2c-1 1-3 1-4 2 0 2 1 3 1 5 1 5 3 9 4 13 2-5 4-11 5-17 0-2-3-2-4-3v-2h15v2c-3 1-5 2-6 5l-11 29h-3c-2-8-4-16-7-23-3 7-6 15-8 23h-4c-2-9-5-17-7-26l-3-6c0-1-2-1-4-2l1-2zm-100-1h17c4 0 8 1 11 3 4 2 4 8 2 11-1 2-3 3-5 4 4 7 9 14 17 16v3c-5-1-11 0-15-3s-6-8-9-12c0-2-2-2-3-2 0 3-1 7 0 10s5 3 7 3v3h-22v-3c2 0 4 0 5-1s1-3 1-5l1-18c-1-2 0-4-1-5-2-1-4-1-6-1v-3m15 4v12c2 0 4 0 5-1 3-2 3-7 1-9s-4-2-6-2zm-101-4h21v3c-2 1-5 0-6 2-1 4-1 7-1 11v14c1 3 5 2 7 3v2c-8 1-15 0-22 0v-2c2-1 4-1 6-2 1-1 1-3 1-4v-18c0-2 0-3-1-5-2-1-4-1-6-1l1-3zm309 3c2-1 4-3 6-4h1l12 29c0 2 1 3 2 4s2 1 4 2v2h-19v-2c2-1 3-1 5-2l-3-9h-10c-1 3-3 6-2 9 2 1 4 1 6 2v2h-17v-2c1-1 4-1 5-3 3-8 7-17 10-25 1-1 0-2 0-3m-1 15h7l-3-8c-2 3-3 6-4 8zm-391-20h2l11 29c0 1 1 3 2 4s2 1 4 2v2c-6 1-12 0-19 0v-2c2-1 4-1 5-2l-3-9h-10c-1 3-3 6-1 9 1 1 3 1 5 2v2h-17v-2c2-1 4-1 5-3l10-25c1-1 1-2 1-3 2-1 3-2 5-4m-3 12c-1 2-2 5-3 7 2 1 4 1 6 0-1-2-2-5-3-7zm359-72l90-93c6 7 12 13 18 20-25 27-51 53-77 79l5 1v6c-16 0-32 0-48-1l12-12zm221-115h102c14 0 28 0 43 2 11 2 22 5 32 10 9 5 17 11 24 19s11 18 13 28c1 11-1 22-6 31s-12 15-20 21c-11 7-23 12-35 14-13 3-27 3-40 3h-94v-5c2-1 6-2 5-5v-93h32v82h56c12 0 25-1 36-4 9-3 18-8 24-16 9-10 11-25 5-37-4-10-13-17-22-22-12-5-25-6-37-6-38 0-76 0-113-1v-13l-5-3v-5zm-128 19c6-7 13-13 19-20l122 129h-48v-6h5c-12-14-25-27-37-40-1-1-1-2-3-2h-58c-3 0-5 2-8 3-2-1-3-2-5-3l15-16 5-5h32l-24-24c-5-6-10-11-15-16zm-237-20h43v5c-2 2-4 2-5 4-1 19 0 38 0 57 5-7 10-14 16-20 12-1 24 0 36 0h47c-1-12 0-25 0-37l-6-3v-5h43v5c-2 1-4 2-5 3s0 2 0 3v70c-11 11-22 23-33 34l1-48c-12-1-24 0-36-1-17 1-34 0-51 0-4 1-7 4-10 5-1 0-2 0-2-1v49l5 4v5c-14 0-29 0-43-1v-4c2-2 5-3 5-6V525c-1-1-3-2-5-3v-5zm-52 0h43v5c-2 2-6 2-5 6v109l5 3v5h-43v-5c2-1 4-2 5-4 1-16 0-32 1-48v-62c-2-2-4-3-6-4v-5zm-220 24c7-8 13-16 20-24h194c-7 8-14 17-21 25-1 2-4 1-6 1v-4c-15-1-29 0-44 0h-22v98c2 1 3 2 5 3v5h-43v-5c2-1 4-2 6-4v-6-91l-71-1c-5 0-8 4-12 5-2-1-4-1-6-2zm-82-22c11-3 22-2 34-3l58 1-22 25h-5v-3c-1-1-3-1-4-1h-28c-7 1-13 0-20 1-13 2-26 6-35 15-8 8-13 19-11 30 5-6 9-14 14-20h135l-21 26h-6l1-4c-3-1-6-1-9-1H34c1 9 5 18 12 23 9 8 21 12 32 13 16 3 32 2 49 2h65c4 0 6-3 10-4h8c-8 8-15 17-22 26h-72c-16 0-31 0-47-2-12-2-25-6-36-12-9-5-18-11-24-19-12-17-12-42 0-59 6-9 14-16 23-22 11-6 22-11 35-12zm167-208c4 3 8 8 11 12 4 3 7 8 12 9 1 3 1 5-1 7s-5 3-6 5-1 5-1 7h103c3 0 7 0 10 3 3 2 4 6 4 10 0 2-1 4-1 6v60c0 2 1 4-1 6-4 9-13 14-22 15-9 2-18 1-26-4-4-2-7-6-9-11v-3-14h-72v-20h84c1 9 0 17 1 26 2 5 6 8 11 9 3 0 7 0 10-2s4-6 4-9v-47c0-5-5-7-9-7H234v-58zm326-11l14-14c5 5 10 9 15 15-5 4-10 9-15 14-5-4-9-9-14-13 0-1-1-2 0-2zm-18-14c1-1 2 0 2 1 4 4 9 9 14 13l-6 6-9 9h-1c-5-5-9-10-14-15 5-4 10-9 14-14zm67-13c1 0 2-1 3 0 5 7 11 14 17 19 2 2 5 3 5 6 1 3-3 5-5 7-4 2-4 7-4 10v70c7 7 14 14 21 22l21-21v-3c0-21 1-43 0-64 0-4 1-8-1-12-2-3-6-3-7-7 0-2-1-4 1-5 3-2 6-5 9-8 4-5 8-9 12-14h2v120c-5 6-11 12-17 18-2 3-5 6-8 9 7 7 14 13 21 20l-33 33-33-33c7-7 14-13 21-20-8-9-17-16-25-25V273m23 167c5 5 10 10 14 15l15-15-15-14c-5 4-9 9-14 14zm79-173c4 7 9 12 14 16s9 8 15 11c2 1 1 4 1 5-2 4-6 4-9 7-2 3-2 8-2 12v101h-19V267zm-317 18c6-5 12-10 16-17v132h112v-9c0-4-3-8-7-10-5-3-12-3-19-3h-34c-2 0-5 0-7-1-5-1-7-6-8-10s-1-8 1-11c1-2 3-3 4-4 3 5 9 6 14 7 14 1 29 0 44 0 9 0 18 3 24 10 7 8 9 20 8 31h30c0-13 0-27-1-40 0-3-1-6-3-8-3-1-6-2-7-5 0-2-1-5 2-5 4-2 7-5 11-8 6-6 12-12 16-19v104h-49c0 5 1 11 3 16 1 2 3 4 4 5-4 3-9 5-14 4-4-1-8-3-10-7-3-6-3-12-2-18H392c-1-35 0-70-1-105 0-3-1-6-3-8s-6-2-8-5c0-2-1-6 2-6 4-3 8-6 12-10z"/></svg>