<svg width="64" height="64" viewBox="0 0 1000 1000" xmlns="http://www.w3.org/2000/svg"><path d="M257 128c-6 15-5 31-5 47 1 209-1 419 1 628 56-65 110-131 164-198 13-14 26-34 49-34 53-4 107 2 161-2 12 0 23-7 26-19 11-37 17-75 24-112 3-16 3-41-18-41-64-6-129 3-192-4-34-6-36-47-32-74 2-22 23-34 43-33 65-2 130 1 195-1 13-1 30 0 37-15 10-24 12-52 18-78 4-22 11-44 7-66-10-17-32-14-49-16-128 1-255 1-383 0-16 1-38 1-46 18zM209 3c10-2 20-3 30-3 175 0 349 1 524 0 29 0 64 2 82 29 22 34 11 78 4 115-31 149-58 299-89 448-6 24-12 50-30 68-13 13-32 18-51 19-54 3-108-2-162 1-14-1-24 10-32 19-75 89-153 175-228 264-10 11-21 24-34 31-23 12-55 6-70-15-10-13-11-30-11-46V162c0-31-3-64 3-95 5-32 32-59 64-64z"/></svg>