<svg width="64" height="64" viewBox="0 0 1000 1000" xmlns="http://www.w3.org/2000/svg"><path d="M819 576c70-36 74-170 10-315-13-32-24-48-41-61-16-12-23-15-37-15-24 0-40 10-51 31-13 24-14 44-8 107 3 32 6 90 8 130 4 91 8 105 32 118 16 10 31 13 54 12 17-1 23-2 33-7zm-408 81c7-4 14-11 19-19 10-16 16-48 14-71-1-16-15-93-25-143-11-50-11-52-7-67 6-22 14-36 24-39 7-2 9-2 15 3 14 12 15 20 14 99-1 108 4 133 34 170 25 29 53 43 79 40 29-4 60-29 68-55 9-31 9-55-4-135-2-11-8-51-14-89-13-88-16-98-27-128-14-36-33-56-57-56-13 0-26 9-47 33-28 30-53 44-81 44-8 0-27-3-42-7-42-10-53-10-72 0-7 3-20 13-30 22-26 24-49 41-61 43-6 2-33 4-60 4-46 2-51 2-67 8-14 6-18 9-26 19-8 13-8 15-9 48-3 92 22 173 63 206 18 15 36 22 56 22s30-4 42-18c10-10 22-33 22-42 0-7-11-50-26-102-13-45-14-59-5-72 17-25 46-21 55 8 4 14 12 106 12 142 0 84 48 142 114 139 14-1 20-2 29-7zm390 159c72-12 121-33 140-59 8-12 7-39-2-52-8-13-29-27-51-35-25-10-61-18-81-20-40-3-100 9-112 23-3 4-6 7-7 7-10 6-14 54-7 79 11 36 44 61 82 61 7 0 24-2 38-4zm-670 56c-31-9-51-23-66-47-10-15-12-26-41-240-2-11-7-50-13-87-12-84-14-110-7-137 4-19 16-47 24-54 5-5 34-26 41-30 11-6 33-9 61-8 37 2 66-3 88-17 17-10 28-19 37-29 14-15 35-30 50-33 16-4 33-2 68 10 13 4 29 8 36 9 13 1 37-2 37-6 0-1 2-2 4-2 4 0 9-6 13-14 1-3 3-4 5-4s3-1 3-3c0-4 31-40 35-40 2 0 5-1 7-3 3-5 24-13 32-13 4 0 14 2 21 4 25 6 46 28 60 64 10 23 16 34 21 34 2 0 4-3 4-6 0-8 18-31 34-43 19-15 23-17 44-25 15-5 19-6 35-4 37 3 71 30 96 75l8 15 16-1c40-2 53 16 66 93 4 26 14 88 23 138 27 162 33 232 22 270-9 34-38 69-75 90-42 23-90 35-146 35-33 1-37 0-55-6-11-4-29-12-40-19l-20-12-29 3c-16 1-47 4-68 7-21 2-63 7-95 10-68 7-173 18-229 24-62 7-90 7-107 2z"/></svg>