<svg width="64" height="64" viewBox="0 0 1000 1000" xmlns="http://www.w3.org/2000/svg"><path d="M500 335h270c8 0 8 0 8 7v392c0 38-29 68-67 69-13 1-26 0-39 0-7 0-7 0-7 7v127c0 32-24 59-56 63-31 3-60-18-67-50-1-4-1-9-1-14V810c0-7 0-7-6-7-24 0-48 1-71 0-5 0-6 2-6 6v129c0 25-15 48-38 57-24 10-51 4-68-14-12-12-17-26-17-43-1-43-1-86 0-129 0-4-2-6-6-6-16 0-32 1-49 0-32-4-58-33-58-65V342c0-7 0-7 7-7h271zm-1-21H227c-4 0-6-1-5-6 1-28 6-56 17-82 15-38 38-70 69-97 16-14 33-26 51-36 4-2 4-3 2-6-13-23-25-46-38-69l-2-4c-3-6-1-11 3-13 5-2 10-1 12 5l13 22c9 17 18 33 27 50 2 5 4 5 9 3 42-17 85-24 129-22 36 1 70 9 103 23 3 2 4 0 6-2l39-72c2-3 3-7 7-7 3-1 7-1 9 2 3 3 3 7 1 11-7 12-14 25-21 38-7 12-13 23-19 35-2 3-2 5 2 7 44 23 79 56 104 99 20 34 31 71 33 110 0 11 0 11-11 11H499zM374 166c-14 0-24 11-24 24s11 23 23 23c13 0 24-10 24-23s-11-24-23-24zm229 23c0 13 10 24 23 24s24-10 24-23-10-23-23-24c-13 0-24 10-24 23zM200 515v128c0 31-22 57-51 62-32 4-61-14-70-44-2-7-2-13-2-20V387c0-31 18-55 47-62 39-10 76 20 76 59v131zm723-1v133c-1 35-34 62-68 58s-56-29-56-63V385c0-35 29-63 63-62s61 28 61 63v128z"/></svg>