<svg width="64" height="64" viewBox="0 0 1000 1000" xmlns="http://www.w3.org/2000/svg"><path d="M690 225c-44-28-86-39-128-66-27-18-63-60-93-97-6 59-23 82-44 99-42 34-69 44-106 64-31 16-200 117-200 335s182 378 385 378c202 0 378-148 378-371S717 242 690 225zM181 394s-15-14 15-55c0 0 11-14 14-18 0 0 9-10 11-11l24-24s21-19 49-38c0 0 18-12 31-19 0 0 18-10 29-16 0 0 16-7 35-20 0 0 28-18 36-24 0 0 19-14 28-28 0 0 9-11 15-35 0 0 5-20 5-28 0 0 7 22 8 30 0 0 4 22 2 36 0 0-3 20-15 31 0 0-7 5-8 7 0 0-3 3-2 5l4 4s5 4 3 12c0 0 0 12-16 32 0 0-31 38-50 53 0 0-32 27-47 36 0 0-50 34-60 39 0 0-43 24-59 29 1 0-38 16-52 2zm514 464c-4 4-43 31-88 36-46 4-107 6-144-27-6-6-4-15 0-18 4-4 8-6 13-6s4 0 6 2c17 13 42 24 96 24s92-15 108-28c8-6 11-1 12 3 1 3 3 8-3 14zm-147-77c9-8 24-22 39-27 14-6 22-5 35-5s28 0 38 7 16 22 19 31c3 8 0 13-7 16-6 4-6 2-12-9s-11-22-41-22-38 10-52 22c-15 12-20 16-25 9-5-6-3-13 6-22zm222 7c-30-2-90-97-129-98-49-2-154 102-237 102-51 0-66-8-83-19-25-18-38-45-37-82 1-65 62-127 140-128 98-1 166 98 216 97 42-1 122-83 162-83 42 0 53 43 53 70 0 26-8 73-28 102-20 30-33 41-57 39z"/></svg>