<svg width="64" height="64" viewBox="0 0 1000 1000" xmlns="http://www.w3.org/2000/svg"><path d="M281 564c-16 35-38 38-63 38h-74c-25 0-37-10-37-31V457s54 0 73 2c14 1 23 5 27 24l6 26h21l-1-65 3-66h-22l-7 29c-4 19-7 22-26 25-22 2-74 2-74 2V300c0-5 1-8 9-8h114c20 0 31 17 39 49l6 25h19c4-72 7-103 7-103s-49 5-78 5H78l-78-2v21l26 5c19 3 23 7 25 24 0 0 1 50 1 132 0 81-1 131-1 131 0 14-6 20-25 23l-26 5v21l78-2h130c29 0 97 2 97 2 2-18 12-99 13-108h-18l-19 44zm176 38c-22 0-34-15-34-52V415l73 6 4-34-77 3v-76h-21c-7 31-14 55-39 70-14 10-30 14-35 14v19h44v153c0 42 28 63 66 63 29 0 59-12 70-38l-11-14c-4 9-20 21-40 21zm126-170c0-23 21-32 44-32 18 0 33 6 36 15l12 38 18-1c2-20 3-43 6-61-16-7-49-11-70-11-49 0-88 21-88 69 0 82 122 66 122 127 0 22-13 37-44 37-27 0-41-15-47-29l-14-36-18 1c1 11 1 25 1 38s0 25-1 31c0 0 37 14 76 14 51 0 92-24 92-73 0-84-125-71-125-127zm370-43l-51-3v17l13 4c13 4 19 9 19 18 0 5-2 9-4 16-6 16-40 99-58 138-22-54-51-133-55-147-1-3-2-6-2-8 0-8 5-15 17-17l17-4v-17l-68 2-54-2v17l9 3c12 4 15 8 22 25 41 92 60 143 85 208-25 53-54 68-81 68-14 0-20-6-22-16l-8-38-20 1c-4 23-8 48-14 69 13 9 34 14 50 14 34 0 86-4 134-117l80-188c6-16 9-17 27-25l11-4v-17l-47 3z"/></svg>