<svg width="64" height="64" viewBox="0 0 1000 1000" xmlns="http://www.w3.org/2000/svg"><path d="M96 508l-35-93H0v168h44V471l43 112h19l42-112v112h43V415h-60zm165-50c-19 0-40 5-56 19l15 26c10-8 22-13 34-13 15 0 24 8 24 18v12c-7-9-21-14-37-14-19 0-42 10-42 39 0 27 23 40 42 40 15 0 30-6 37-15v13h39v-77c0-38-27-48-56-48zm17 93c-4 6-13 9-21 9-10 0-20-5-20-14s9-14 20-14c8 0 17 2 21 8v11zm84-55c0-5 6-8 15-8 15 0 29 6 36 13l15-27c-13-10-31-16-51-16-34 0-52 18-52 40 0 49 70 33 70 48 0 6-4 9-16 9-14 0-34-8-43-16l-16 27c13 12 35 19 57 19 35 0 55-16 55-40 0-49-70-36-70-49zm156-38c-20 0-34 9-42 18v-61h-39v168h39v-79c5-6 12-12 23-12 12 0 20 5 20 20v71h39v-87c0-23-12-38-40-38zm107 0c-18 0-39 5-55 19l15 26c10-8 21-13 33-13 16 0 24 8 24 18v12c-6-9-21-14-37-14-18 0-41 10-41 39 0 27 22 40 41 40 16 0 31-6 37-15v13h39v-77c0-38-27-48-56-48zm17 93c-3 6-12 9-21 9-10 0-19-5-19-14s9-14 19-14c9 0 18 2 21 8v11zm128-93c-13 0-27 5-36 17v-60h-39v168h39v-15c9 12 23 17 36 17 30 0 54-22 54-64 0-39-23-63-54-63zm-12 93c-9 0-19-4-24-11v-37c5-7 15-11 24-11 15 0 26 11 26 29 0 19-11 30-26 30zm71-136h39v168h-39zm171 110c0-41-26-67-62-67-38 0-65 28-65 63 0 40 29 64 66 64 19 0 39-5 51-16l-17-25c-7 6-21 11-29 11-18 0-28-10-31-19h87v-11zm-87-17c1-9 8-19 25-19s24 11 25 19h-50z"/></svg>