<svg width="64" height="64" viewBox="0 0 1000 1000" xmlns="http://www.w3.org/2000/svg"><path d="M584 999zM473 822c-31 0-40 25-45 39 0-17 1-74 3-104-21 10-34 12-47 13 12 5 12 27 12 96v79c0 23 0 37-4 48 13 4 30 7 49 7 13 0 49 0 69-40 9-18 13-44 13-63 0-11-2-36-11-52s-24-23-39-23zm-27 158c-6 0-12-1-16-2-1-12-1-32-1-55 0-28 3-42 5-49 7-23 22-23 25-23 24 0 29 34 29 59 0 30-5 70-42 70zm88-206l26 27 27-27-27-27zm44 89c0-23 0-30 3-43-12 5-20 7-46 10 4 3 7 5 9 17 2 16 2 93 1 121-1 22-2 24-6 31 8-2 15-3 25-3 9 0 14 1 20 3-7-14-7-26-6-136zm141 73v-66c0-25-7-48-55-48-32 0-51 9-60 14 4 7 7 13 10 27 12-11 29-17 45-17 27 0 27 18 27 43-6 0-11-1-19-1-42 0-69 16-69 59h1c0 20 6 41 24 49 8 3 16 3 19 3 29 0 39-21 45-35 0 15 0 23 1 35 6-1 12-2 22-2 5 0 10 1 16 2-4-6-6-9-7-22v-41zm-38 17c-7 14-18 19-27 19-19 0-23-16-23-32 0-30 27-33 39-33h17c0 21-1 35-6 46zM508 3c7-3 18-1 25-3-10 1-19 1-29 2l4 1zM265 145c8-17-3-5-3-11 2 15-11 21 3 11zm-14 613c-11 5-21 9-43 11 8 10 8 14 8 57-6-2-13-4-27-4-57 0-66 50-66 87 0 90 48 90 55 90 20 0 33-10 38-30l1 30c6-1 12-2 22-2 3 0 6 0 9 1 2 0 5 0 8 1-5-11-9-34-9-84 0-49 0-132 4-157zm-36 179c-1 10-2 34-25 34-24 0-30-27-31-39-3-13-3-24-3-29 0-15 1-59 38-59 11 0 17 3 22 6v21c0 1 0 52-1 66zm114-116c-66 0-66 73-66 88 0 65 29 91 79 91 22 0 32-3 38-5-1-11 1-19 3-28-7 4-15 9-35 9-50 0-50-45-50-61h85l1-19c0-38-8-75-55-75zm23 71h-55c1-26 6-50 28-50 26 0 28 28 27 50zM246 203c3-10 3-16 5-22-9 12-4 14-5 22zm203 141c-4-4-6-9-9-13 3 8 7 15 12 23l-3-10zm277-120c0-10 3-5 4-8-2-1-7-8-10-22 2-3 6 8 9 9-2-11-6-20-6-28-8-18-2 2-9-8-10-29 7-7 8-20 14 20 22 52 26 64-3-15-8-31-13-45 4 2-7-33 5-10-12-48-55-93-95-114 5 4 11 10 9 10-20-11-16-12-19-17-16-7-17 1-28 0-30-16-36-14-64-24l2 5c-20-6-24 3-45 0-2-1 7-3 13-4-19 2-18-4-37 0 5-3 10-5 15-8-16 1-38 9-31 2-26 11-72 28-97 52l-1-6c-12 14-51 42-55 61h-3c-6 11-10 22-15 33-8 14-11 5-10 7-16 32-24 59-30 81 4 7 0 43 2 72-8 143 100 281 218 313 17 6 43 6 65 7-26-8-30-4-55-13-18-9-22-18-35-29l5 9c-25-9-14-12-35-18l6-7c-9-1-22-14-26-21l-9 1c-10-13-16-23-16-30l-2 5c-4-6-40-50-21-40-4-3-8-5-13-14l4-4c-9-12-17-27-17-32 5 7 9 8 12 9-23-57-24-3-41-58h3c-3-5-4-9-7-14l2-16c-16-19-5-80-2-114 2-14 14-29 23-52l-6-1c11-18 61-75 85-72 11-14-3 0-5-3 25-26 33-19 50-23 18-11-16 4-7-4 31-8 22-18 63-22 4 2-10 3-14 7 26-13 82-10 119 7 42 19 90 78 92 133l2 1c-1 22 3 47-4 71l5-11c1 16-5 25-10 39l-9 4c-7 15 1 9-4 21-12 10-35 32-43 34-5 0 4-7 5-9-15 10-12 15-35 22l-1-2c-58 28-138-26-137-100-1 5-2 4-3 5-3-37 17-75 52-91 33-17 73-10 97 13-13-18-40-36-71-34-31 0-59 20-69 41-16 10-17 38-24 43-9 68 17 97 62 132 4 2 4 3 4 5 53 19 108 15 153-22 12-9 25-25 28-25-5 8 2 4-3 11 12-18-5-7 12-32l7 9c-3-16 19-35 17-59 1-2 2-3 3-1v-12c2 5 5 11 6 17-4-19 5-32 7-42-1-2-6 7-8-14zM431 352c7 9 12 19 21 27-6-13-11-18-19-34l-2 7zm170-35c6-9 11-18 13-28-2 7-6 13-9 19-20 12-2-7 0-14-21 26-3 15-4 23zm272 650v-97c-1-20-1-49-41-49-33 0-40 22-45 33v-35c-7 4-16 8-42 10 4 3 7 6 8 18 3 21 2 108 2 125-1 18-2 21-4 27 6-2 11-2 18-2 10 0 17 1 22 2-3-12-3-16-3-57 0-47 0-60 2-71 3-11 9-24 27-24 19 0 20 14 21 20 1 7 1 30 1 44v35c0 9 0 34-2 41 0 5-1 7-3 12 7-2 11-3 18-3 14 0 18 2 25 3-4-10-4-22-4-32zM561 338c4-3 7-6 10-9-8 2-17 2-25 2-11 0 2 5 15 7zm153 6c10-19 17-40 20-62l-2 4c-3 20-8 39-18 58zm-92-81c1-18-4-13-5-5 1 1 3 13 5 5zm100 21c-1 5-2 11-4 17 3-7 3-12 4-17zM503 397c-15-6-29-17-40-30 6 9 13 17 21 24-14-5-33-34-39-35 25 43 99 76 138 59-18 1-41 1-61-7-9-4-20-13-18-15-1 2-1 3-1 4zm218-123c0 4 1 7 1 10 0-5 0-8-1-10zM504 393zm13-382l-4 1h4zm-11-3c6 1 12 2 11 3 6-1 8-2-11-3z"/></svg>