<svg width="64" height="64" viewBox="0 0 1000 1000" xmlns="http://www.w3.org/2000/svg"><path d="M35 464c4 0 10 0 17 1h15c40 0 59-24 59-48 0-25-22-41-40-47 12-9 22-20 22-38 0-12-7-33-47-33-7 0-16 1-26 1-5 0-19-1-30-1-4 0-5 0-5 2s1 2 4 2 6 0 8 1c7 1 9 5 10 12v85c0 20 0 38-1 47-1 6-2 11-7 12-2 0-4 1-7 1s-4 0-4 2c0 1 2 2 4 2 5 0 11-1 16-1h12zm64-37c0 23-17 28-27 28-5 0-10 0-16-2-7-3-8-7-8-21v-52c0-1 1-2 2-2 3 0 5 0 9 1 9 0 14 2 18 5 17 11 22 30 22 43zM48 312c0-2 1-3 2-4h8c18 0 27 19 27 34 0 11-3 19-9 23-4 3-8 4-16 4H50c-1-1-2-1-2-3v-54zm240 12h-22-23c-3 0-4 0-4 1 0 2 1 2 3 2s6 1 7 1c6 2 8 4 8 10s1 11 1 40v23c0 19-1 35-12 45-7 8-17 10-25 10-7 0-16 0-25-7-9-8-14-18-14-45v-26-40c0-6 2-9 7-10 2 0 4-1 6-1s3 0 3-2-1-1-4-1h-54c-3 0-4 0-4 1 0 2 1 2 3 2 3 0 6 1 7 1 7 2 8 4 9 10v67c0 27 8 41 17 49 14 13 34 13 44 13 13 0 28-2 41-13 16-14 19-36 19-57v-19-40c0-6 2-9 7-10 2 0 3-1 6-1s3 0 3-2c0-1-1-1-4-1zm54 143c10 0 23-1 32-8 14-10 19-21 19-35 0-16-8-31-33-45l-8-4c-17-10-21-16-21-25 0-12 13-19 27-19 12 0 18 5 21 8 4 5 5 11 5 13s1 3 2 3c2 0 3-2 3-6v-22c0-2-1-2-2-3-5-1-15-3-28-3-26 0-48 15-48 38 0 16 7 29 30 42l11 7c17 10 19 18 19 26 0 13-10 24-26 24-12 0-27-5-31-19-1-3-2-7-2-9s0-3-2-3c-1 0-2 2-2 4-1 3-1 15-1 25 0 4 0 5 3 7 9 3 20 4 32 4zm127-2c2 0 4-1 4-2s-1-2-3-2c-3 0-8-1-10-1-6-1-7-4-8-9-1-8-1-23-1-41v-33c0-28 0-33 1-39 0-7 2-9 7-10 2 0 3-1 5-1s4 0 4-2c0-1-2-1-4-1h-51c-3 0-5 0-5 1 0 2 2 2 4 2s4 0 7 1c4 1 6 4 6 10v72c0 18 0 33-1 41 0 5-1 8-5 9-2 0-4 1-7 1-2 0-3 1-3 2s1 2 4 2c7 0 20-1 25-1s18 1 31 1zm68-2c0-2-1-2-3-2-3 0-7-1-10-2-4-1-6-5-7-20l-2-76h1c4 3 24 26 45 46 20 20 44 43 56 54 2 2 5 4 8 4 2 0 3-2 3-6l2-118c1-10 2-13 7-15 3-1 4-1 6-1 3 0 4-1 4-2s-2-1-5-1h-43c-3 0-5 0-5 1s1 2 3 2c3 0 7 0 10 1 5 2 7 5 7 17l2 83h-1c-3-3-28-29-42-42-28-28-57-57-59-60-3-3-6-6-8-6s-4 3-4 7l-1 110c-1 16-1 21-6 23-3 0-6 1-9 1-2 0-3 1-3 2s2 2 4 2c10 0 19-1 21-1 4 0 13 1 25 1 3 0 4-1 4-2zm223-3c1-4 3-16 3-20 0-2 0-5-2-5-1 0-2 1-2 3-2 8-4 12-9 14s-13 2-18 2c-19 0-25-3-26-15v-43c0-1 0-2 1-2 5 0 27 0 30 1 8 1 10 3 11 7 1 3 1 5 1 7 0 1 0 1 2 1 1 0 2-2 2-4 0-1 0-9 1-12 1-10 1-13 1-14s-1-2-1-2c-1 0-2 1-4 3-1 2-4 2-9 2-4 1-29 1-33 1-2 0-2-1-2-2v-46c0-1 1-2 2-2 3 0 26 0 30 1 9 1 11 3 12 7 2 2 2 5 2 6 0 2 0 3 1 3 2 0 2-2 2-3 1-2 1-11 2-13 0-8 1-10 1-12 0 0 0-1-1-1s-2 0-3 1c-2 0-5 0-8 1h-53c-6 0-18-1-28-1-3 0-4 1-4 2s1 2 3 2c3 0 6 0 8 1 6 2 8 3 8 10v72c0 17 0 32-1 40 0 5-1 9-5 10h-7c-3 0-3 2-3 2 0 2 1 2 3 2h47c10 1 21 1 36 1 7 0 9 0 10-5zm110-36c0-16-8-31-34-45l-7-4c-18-10-21-16-21-25 0-12 13-19 26-19s19 5 22 8c4 5 5 11 5 13s1 3 2 3 2-2 2-6c0-15 1-20 1-22s-1-2-3-3c-5-1-14-3-27-3-27 0-49 15-49 38 0 16 8 29 31 42l11 7c17 10 19 18 19 26 0 13-10 24-27 24-12 0-26-5-30-19-2-3-2-7-2-9s0-3-2-3-3 2-3 4c0 3-1 15-1 25 0 4 1 5 4 7 8 3 20 4 31 4s23-1 32-7c14-11 20-22 20-36zm26 38c8 4 20 5 31 5s23-1 32-8c14-10 20-21 20-35 0-16-8-31-34-45l-7-4c-18-10-21-16-21-25 0-12 13-19 26-19s19 5 22 8c4 5 5 11 5 13s1 3 2 3 2-2 2-6c0-15 1-20 1-22s-1-2-3-3c-5-1-14-3-27-3-27 0-49 15-49 38 0 16 8 29 31 42l11 7c17 10 19 18 19 26 0 13-10 24-27 24-12 0-26-5-30-19-2-3-2-7-2-9s0-3-2-3-3 2-3 4c0 3-1 15-1 25 0 4 1 5 4 6zM79 695c-3 0-8-1-11-1-7-1-8-5-9-11-1-9-1-27-1-48v-39c0-33 0-39 1-46 0-8 2-11 8-12 2-1 4-1 6-1 3 0 4-1 4-2 0-2-2-2-5-2-8 0-21 1-26 1-7 0-21-1-29-1-3 0-5 0-5 2 0 1 1 2 3 2 3 0 6 0 8 1 5 1 7 5 8 12v85c0 21 0 39-1 48-1 6-2 10-7 11-2 0-4 1-7 1s-4 0-4 2c0 1 2 2 4 2 9 0 23-1 28-1 6 0 20 1 34 1 3 0 4-1 4-2 1-2 0-2-3-2zm189-137h-44c-3 0-5 0-5 1 0 2 1 2 4 2 2 0 7 0 10 2 4 1 6 5 6 16l2 83h-1c-2-3-28-29-41-42-28-27-57-57-60-59-3-4-6-7-8-7s-3 3-3 7l-2 110c0 16-1 21-6 23-3 1-6 1-9 1-2 0-3 1-3 2 0 2 2 2 5 2 9 0 19-1 20-1 4 0 13 1 25 1 3 0 5-1 5-2s-1-2-4-2-6 0-10-2c-3-1-6-5-6-20l-2-76c4 4 24 26 45 46s45 43 57 54c2 2 4 4 8 4 1 0 3-2 3-6l2-117c0-11 2-14 7-16h6c2 0 3-1 3-2 0-2-2-2-4-2zm95 55l-8-4c-17-10-20-16-20-25 0-12 12-19 26-19 13 0 19 5 22 8 4 5 5 11 5 13s0 3 2 3c1 0 2-2 2-6 0-15 1-20 1-22s-1-2-3-3c-5-1-15-3-27-3-27 0-49 15-49 38 0 16 7 29 30 42l11 7c18 10 20 18 20 26 0 13-11 24-27 24-12 0-27-5-31-19-1-3-2-7-2-9s0-3-2-3c-1 0-2 2-2 4 0 3-1 15-1 25 0 4 1 5 4 7 8 3 20 4 31 4 10 0 23-1 32-7 14-10 19-21 19-35 0-17-8-32-33-46zm128 82c-2 0-7-1-10-1-5-1-7-4-7-9-1-8-1-23-1-41v-32-40c1-6 2-9 7-10 3 0 4-1 6-1s3 0 3-2c0-1-1-1-4-1h-50c-3 0-5 0-5 1 0 2 1 2 3 2 3 0 5 1 7 1 4 2 6 4 7 10v72c0 18 0 33-1 41-1 5-2 8-6 9-1 0-3 1-6 1s-3 1-3 2 1 2 3 2c8 0 21-1 25-1 6 0 19 1 32 1 2 0 3-1 3-2s0-2-3-2zm99-137h-60c-2 0-4 0-4 1 0 2 1 2 3 2 3 0 6 1 8 1 6 2 8 4 8 10 1 6 1 11 1 40v33c0 17 0 31-1 39-1 6-2 9-6 10-2 1-4 1-7 1-2 0-3 1-3 2s1 2 4 2c4 0 9 0 13-1h11c5 0 12 1 20 1 7 1 16 1 23 1 35 0 56-13 64-21 11-11 21-29 21-52 0-22-8-38-18-48-21-21-53-21-77-21zm51 120c-11 9-24 12-42 12-15 0-23-3-25-7-2-2-2-8-2-13 0-4-1-18-1-38v-23c0-15 0-30 1-37 0-2 0-3 2-3 1-1 8-2 12-2 15 0 36 2 54 18 8 8 18 23 18 47 0 19-4 35-17 46zm174-9c-1 0-2 1-2 3-1 8-4 12-8 14-5 2-13 2-19 2-19 0-25-3-26-15v-43c0-1 1-2 1-2 5 0 27 1 31 1 7 1 9 4 10 7s1 5 1 7c0 1 0 2 2 2s2-3 2-5c0-1 0-8 1-12 1-10 1-13 1-14s0-2-1-2-2 1-3 3c-2 2-5 2-10 2-4 1-29 1-33 1-1 0-2-1-2-2v-46c0-1 1-2 2-2 4 0 27 0 30 1 10 1 11 3 13 7 1 2 1 5 1 7 0 1 0 2 1 2 2 0 2-2 3-3 0-2 1-10 1-12 0-9 1-11 1-12s0-2-1-2-2 0-3 1c-2 0-5 1-8 1h-53c-5 0-18-1-28-1-2 0-4 1-4 2s1 2 3 2c3 0 6 0 8 1 6 2 8 4 8 10v112c-1 5-2 9-6 10h-7c-2 0-3 2-3 2 0 2 1 2 4 2h46c10 1 21 1 36 1 7 0 9 0 10-5 1-4 3-16 3-20 0-2 0-5-2-5zm183 26c-2 0-3 0-5-1-3 0-10-1-21-12-11-12-25-29-42-50 19-15 27-27 27-41 0-12-8-22-14-25-10-7-24-8-36-8h-57c-2 0-4 0-4 2 0 1 1 2 3 2h8c6 2 8 4 8 10v112c-1 6-2 9-6 10-2 1-4 1-7 1-2 0-3 1-3 2s1 2 4 2c7 0 20-1 23-1s19 1 30 1c3 0 4-1 4-2s-1-2-2-2c-3 0-7 0-10-1-5-1-6-4-7-10-1-8-1-22-1-39v-3c0-1 1-1 1-1h18c1 0 2 0 3 1 3 3 11 16 18 26 11 14 18 23 27 27 5 3 10 4 21 4h18c3 0 4-1 4-2s-1-2-2-2zm-78-67c-3 2-6 3-14 3-4 0-10 0-14-2-2 0-2-1-2-3v-55c0-2 0-3 2-3s6-1 11-1c12 0 30 7 30 33 0 16-7 24-13 28z"/></svg>