<svg width="64" height="64" viewBox="0 0 1000 1000" xmlns="http://www.w3.org/2000/svg"><path d="M0 327v345h1000V327H0zm500 336C228 663 7 590 7 500s221-164 493-164 493 74 493 164-221 163-493 163zM230 439c1-1 0-2-2-2h-84c-2 0-3 1-2 2 1 2 3 9 3 17v93c0 8-2 15-3 16-1 2 0 3 2 3h84c2 0 3-1 2-3-1-1-2-8-2-16v-93c0-8 1-15 2-17zm206 53c-2-2-2-4-1-6l34-48c1 0 1-1 0-1h-83v1s0 3-1 4l-31 42v-28c0-8 2-16 3-17s0-2-2-2h-81c-3 0-4 1-2 2 1 1 2 9 2 17v93c0 8-2 15-2 16-2 2-1 2 2 2h81c2 0 3 0 2-2-1-1-3-8-3-16v-32l27 40c1 2-1 8-1 9s0 1 1 1h101c1 0 1 0 0-1l-46-74zm73-52c1 1 3 8 3 16v92c0 8-2 15-3 16s0 2 2 2h146v-38c0-2-1-3-2-2-2 1-9 3-17 3h-46c-2 0-2-2-2-3v-7s0-2 2-2h32c3 0 15-1 16 0s3 1 3-1v-32c0-2-2-2-3-1s-13 0-16 0h-32c-2 0-2-1-2-2v-6c0-1 0-2 2-2h46c8 0 15 1 17 2 1 1 2 0 2-2v-36H511c-2 0-3 1-2 3zm330 1c1-3 0-3-2-3H723c-2 0-3 0-2 3 2 3 1 7 0 8l-43 118h69c2 0 2-1 2-2-1-1-1-4 0-6l4-12c1-4 3-4 6-4h31c3 0 4 0 5 4l4 12c1 2 1 5 0 6 0 1 0 2 2 2h87s-48-116-49-118-1-5 0-8zm-59 76h-16c-1 0-1-1 0-2l7-18 1-1 1 1 8 18c0 1 0 2-1 2z"/></svg>