<svg width="64" height="64" viewBox="0 0 1000 1000" xmlns="http://www.w3.org/2000/svg"><path d="M1000 528c-2-126-42-237-128-330-25-26-52-44-88-45-56-1-112-2-168 0-30 1-59 9-88 14 78-48 163-66 254-73-52-26-103-54-157-66-117-27-91-39-176 56-22 25-40 53-60 79l-7-3c12-50 23-100 35-151-65 8-130 21-190 66 44 16 68 44 76 85 5 22 2 38-25 43-20 5-40 11-59 19-11 5-26 17-26 26-1 36-25 46-52 59-48 23-94 49-141 74l4 9c22 3 44 6 75 10-68 44-23 78 1 113 4 6 9 12 15 19 99-55 204-63 312-36l3-11c-48-23-96-46-147-70h159c-30-18-55-33-81-48 46-12 78-40 86-89 100 61 117 175 41 256-14 15-19 29-18 50 3 94-26 177-88 249-19 22-37 43-52 61 76-30 149-76 211-140 83-85 126-187 131-305 33 148 18 284-92 402 44-12 85-26 126-42 79-32 154-70 217-129 18-17 24-33 17-58-42-135-117-246-234-326-10-6-19-12-28-18 142 46 254 131 342 250zM230 293l73-47c-16 55-16 55-73 47zm172 261c-40 14-75 25-113 38 49 62 55 111 17 151-15 17-40 35-60 35-34 0-68-13-108-22-54 50-81 147-61 236 53-42 107-86 161-128 61-47 115-99 148-170 19-43 29-87 16-140zm-60-25c-73-10-141-4-204 34-9 5-17 17-18 27-2 23-1 48-1 72l7 8c67-55 124-126 216-141z"/></svg>