<svg width="64" height="64" viewBox="0 0 1000 1000" xmlns="http://www.w3.org/2000/svg"><path d="M831 507c-1 9-2 16-3 23-5 32-15 61-31 89-25 42-59 75-102 97-47 26-97 34-151 28-26-3-52-10-76-22-7-3-9-1-12 4-17 30-35 60-52 89-9 15-17 30-27 47 19 8 37 16 56 23 46 18 94 26 143 24 28-1 56-6 84-9 5 0 6-3 7-8 0-7 1-14 2-21 11-46 39-79 83-97 20-9 41-12 63-11 21 2 41 8 60 18 89-89 120-213 118-274H831zM419 695c-16-17-34-31-48-49-29-37-46-80-51-127-3-36-1-72 10-106 14-43 37-81 70-111 7-6 13-11 19-17-4-7-8-14-13-21-23-37-47-75-71-113-2-3-4-6-8-3-14 11-27 22-40 33-30 27-54 59-75 93-18 31-33 63-42 99 3 2 6 3 8 5 13 11 27 22 38 35 22 26 29 57 28 91-2 48-24 85-64 112-4 3-5 5-4 10 6 13 11 27 17 39 16 37 38 70 65 101 24 28 52 51 83 72l1-1c27-45 53-90 80-135 1-1-1-6-3-7zm279-431c79 43 122 112 133 202h162c-5-99-43-183-107-257-49 33-100 39-152 12-57-30-78-80-73-143-104-22-201-6-295 45 31 48 60 94 88 139 83-39 164-40 244 2zM106 399c-56 0-100 45-99 99 0 56 45 98 98 98 54 1 99-45 99-98 1-54-44-99-98-99zm695-202c54 0 96-45 98-97 1-54-46-101-98-100-56-1-101 45-100 98 0 57 44 100 100 99zm4 607c-53 0-99 45-99 98 0 52 46 98 99 98 49 1 97-41 98-98 1-52-45-98-98-98z"/></svg>