<svg width="64" height="64" viewBox="0 0 1000 1000" xmlns="http://www.w3.org/2000/svg"><path d="M436 298c6 2 12 3 18 4 16 4 30 12 43 23 1 0 2 1 3 1l-1 1H220v-29h216zm-242 0v29H0v-29h194zm806 0v29H833c4-10 7-19 11-29h156zm-289 0l9 25c0 2 0 3 1 4H556v-28l155-1zm67 187c2-8 5-16 8-23 0-2 1-3 3-3h156v28h-82v-19h-1l-1 4c-2 5-4 9-5 14 0 1-1 2-3 2H704c-2 0-4-1-5-4-1-5-3-10-6-16v20h-82v-29h154c2 0 3 1 4 3 2 8 5 15 8 23h1zM220 381v-29h298c3 0 4 1 5 3l7 22v4H220zm311 239c-2 8-3 17-8 25-2 2-3 3-6 3H220v-28h311zm-311 82v-29h281v1c-3 3-7 6-11 9-17 12-36 18-57 19H220zm56-161v-28h213c1 0 3 0 4 1 9 8 17 16 23 26 1 0 1 0 1 1H276zm0-53v-29h240l-2 3c-5 9-12 17-20 24-1 1-3 1-4 2H276zM0 381v-29h194v29H0zm194 292v29H0v-29h194zm0-53v28H0v-28h194zm621-239c0-1 0-3 1-4 2-7 5-15 8-22 0-2 1-3 3-3h173v29H815zm-75 0H556v-29h171c2 0 3 1 4 3 3 9 6 17 9 26zm205 25v29H795c4-9 7-19 10-28 0 0 1 0 2-1h138zm-334 29v-29h134c3 0 4 1 5 4 3 8 6 16 9 25H611zm389 267H863v-29h137v29zm-307-29v29H556v-29h137zm170-25v-29h137v29H863zm-170-28v28H556v-28h137zm17-107h136c-2 7-4 14-7 21s-3 7-10 7c-35 0-71 0-106 1-3 0-4-1-4-4-3-8-6-16-9-25zm18 54h99c-1 5-3 10-5 15-1 4-3 7-4 11 0 2-1 2-3 2h-74c-1 0-3 0-3-1-3-9-6-18-10-27zm-193 28h-90v-28h3c26 0 52 0 78-1 3 0 4 1 5 4 1 8 3 16 4 25zm-92-160v-29h89c0 10-1 19-3 28-1 0-1 1-2 1h-84zm-82 132v28h-84v-28h84zm-223 28H55v-28h83v28zm555-28v28h-82v-28h82zM360 406v29h-84v-29h84zM54 487v-28h84v28H54zm1-81h83v29H55v-29zm83 135H55v-28h83v28zm807 26v28h-82v-28h82zm-334-26v-28h82v28h-82zm252 0v-28h82v28h-82zm-64 107h-41l-1-1c-3-9-7-18-10-27h62c-4 9-7 18-10 28zm-33 25h24l-6 18c-1 3-2 6-4 9 0 1-1 2-2 2s-2-1-2-2c-4-9-7-18-10-27z"/></svg>