<svg width="64" height="64" viewBox="0 0 1000 1000" xmlns="http://www.w3.org/2000/svg"><path d="M849 563c-364-29-665 61-733 93-38 18-41 40-36 52 5 10 22 15 42 4 145-78 438-141 726-123 14 1 21-25 1-26zm91-110c-16 18-38 31-46 24-7-7 1-27 1-27 35-22 105-82 105-128 0-43-37-56-78-17-28 27-53 76-68 125-21 21-53 48-82 48-16 0-20-11-19-26 26-1 95-21 95-79-1-25-21-35-39-35-31 0-71 33-91 78-5-1-10-2-15-6 6-14 10-26 12-35 3-23-6-39-26-38-12 0-27 11-30 38-3 18 6 38 6 38-8 27-42 61-54 61-11-1 2-50 13-86 8-7 14-16 15-23 3-12-1-18-5-20-9-7-32-5-46 19-3 6-8 16-12 28-10 11-25 27-29 25-8-5 14-34 12-51-3-16-15-24-28-22-19 3-44 42-44 42s5-12 5-22c-1-14-28-21-41 6-4 9-12 43-19 76-7 12-27 47-44 49-14 1 3-63 5-66 7-12 17-37 16-48-1-15-11-18-21-16-14 2-21 17-21 17s-8-12-26-10c-57 6-95 106-90 156 2 25 16 41 37 39 25-3 45-41 45-41s6 30 33 26c18-3 37-19 52-36-1 3-1 6-2 7-3 25 38 23 41 2 13-96 46-136 55-136 8 0-21 45-4 64 14 15 35 2 53-13-3 12-5 25-5 38-1 27 9 49 36 48 35-2 72-45 96-86 5 4 12 7 20 9-1 10-2 20-2 30 2 32 24 44 49 43 30 0 64-23 88-44v4c-2 15 0 43 22 45 25 3 69-23 90-51 16-20-3-38-15-23zm22-132c3 0 4 1 4 5 0 27-67 85-67 85s44-90 63-90zm-162 58c6 0 9 3 9 8 0 15-20 27-43 28 10-19 24-36 34-36zm-451 42c-2 16-30 89-45 90-20 0 10-105 41-104 6 0 6 5 4 14zm-246 20c19 0-14 98-10 140 3 43 51 31 48 6-5-42 23-173 51-173 20 0-22 90-14 148 6 39 56 25 51 2-17-75 35-147 29-198-3-23-16-34-30-34-47 0-84 97-84 97s4-55-33-57C54 368-2 509 0 635c1 40 51 33 48 1-5-59 28-196 55-195z"/></svg>