<svg width="64" height="64" viewBox="0 0 1000 1000" xmlns="http://www.w3.org/2000/svg"><path d="M0 603h66l92-142-62-6L0 603zm492-207H305c-26 2-37 14-45 22-9 9-14 29-14 29v-51h-99c-8 0-15 3-20 11-6 7-28 44-28 44h393v-55zm308 0c-25 2-36 14-45 22-9 9-14 29-14 29v4h259v-55H800zm-298 0h55v55h-55v-55zm183 0h56v55h-56v-55zm1 135s0 19-18 19h-95s-16-1-16-18v-73l-55-4v77c-2-9-17-45-52-48-20-2-201-16-201-16 3 18 11 27 17 32 12 12 32 16 32 16 5 0 140 11 140 11 5 0 13 1 13 12 0 1-2 10-12 10H244v-82l-55-3v140h262c45-9 50-50 50-50 1-4 1-7 1-10v9c9 47 52 50 52 50s4 1 5 1h127s55-5 55-56v-77l-55-3v63zm261-47c-20-2-202-13-202-13 5 19 12 24 18 29 12 12 31 15 31 15 5 1 141 12 141 12 5 0 14 1 14 11 0 3-2 7-4 9 0 0-5 2-9 2H741v55h200c50-3 57-50 57-50 2-12 1-22 1-22-2-12-18-45-52-48z"/></svg>