<svg width="64" height="64" viewBox="0 0 1000 1000" xmlns="http://www.w3.org/2000/svg"><path d="M997 426c-10-112-57-209-132-292-3-3-5-9-10-7-6 2 2 7-2 11-14-11-31-22-37-38-8-23-27-31-45-37-13-5-25-10-36-17-9-6-17-11-27-14-8-3-15-2-23 2-3 1-6 3-6 7 0 3 4 3 7 4 8 4 17 7 24 13-10 14-31 15-41 3-17-19-35-23-56-10-20 12-41 15-64 16-9 0-18 0-17-13 0-3-2-7-5-8-17-3-33-1-47 6-10 6-5 16-5 24s-2 13-11 13c-12 0-23 2-35 3-7 0-11 2-11 9-1 13-4 26-2 39 4 28 23 45 49 24 4-4 10-7 16-5 3 2 8 3 7 8 0 4-5 3-8 3-19 2-37 7-54 15-8 3-17 5-25 8-5 1-10 2-11-7 0-10-7-15-18-13-8 0-17 2-25 6-7 3-11 7-6 16 2 3 4 7-2 9-19 8-39 15-60 13-6-1-8-2-7-8 0-10-7-16-12-22-6-8-14-11-26-7 6-8 9-14 13-19 12-14 22-29 28-47 1-5 3-9 0-14-7-11-2-14 9-15 19 0 27-15 36-28 6-9 0-20-7-28 0-10-5-12-13-8-21 11-43 21-62 34-36 23-66 53-96 82-4 5-11 10-7 16 5 7 12 2 17 0 1 0 1 1 3 2-8 7-19 13-26 8-9-6-13-1-17 3-18 14-29 34-40 53-16 27-32 54-39 85 8 1 12-3 15-11 6-15 13-30 23-43 2-3 4-8 7-6 9 8 10-5 16-5-6 7-5 23-21 17-1-1-4 2-5 4-7 14-13 28-19 42-3 7-3 14 5 17 8 4 14 1 19-5 4-5 3-11 3-17 1-17 14-30 32-29 6 0 14 1 17 8 3 6-1 11-5 16l-5 8c-6 7-5 12 5 14 14 3 27 4 40 0 14-3 26 1 28 15 5 21 4 41-10 59-9 11-20 12-31 6-16-7-20-5-23 13-1 4-1 9-1 13 0 22 3 23 21 14 14-7 27-5 31 6 8 21 15 42 10 64-2 10 1 12 10 10 4-1 8-1 12-2 25-4 50-7 75 1 14 5 17 11 12 24-2 5-4 9-7 13-8 11-2 15 8 16 15 1 30 1 45-4 8-3 21-2 23-11s-10-12-15-17c-9-9-9-17 1-24 4-3 9-5 13-7 38-14 76-23 116-27 21-2 26-8 22-30-1-6-3-12-4-17-10-45-33-44-60-18-12 11-27 11-37 1-7-9-13-19-14-31-2-24 11-49 44-42 5 1 10 1 15 2 16 3 24-3 25-19 2-17-6-30-13-44-6-11-14-14-26-15-29-1-54 10-81 19-20 7-21 13-6 28 11 10 11 15-2 21-26 13-53 21-82 14-8-2-10-7-5-14 4-6 9-11 13-17 3-4 8-8 6-14s-9-4-14-5c-16-1-32 2-47 5-14 4-17 1-12-13 2-8 5-16 8-25-10 10-13 24-14 37-1 6-4 10-10 10-7 0-9-5-9-11 1-24 12-45 24-65 4-6 11-6 18-4 20 6 24 4 32-16 2-7 4-15 6-23 9 6 16 13 12 25-9 26-12 29-29 27-21-2-25 0-30 21 9-14 20-21 38-16 9 2 16-6 19-15 2-10 8-12 17-11 19 1 37-4 54-12 8-3 15-6 9-16-3-5-2-8 3-9 8-4 17-8 26-8 7 0 12 3 11 10-2 10 4 11 12 11 10 0 19-4 29-8 7-2 14-8 22-7-10 14-12 54-3 68 3 4 7 7 13 7 27-2 54-2 80-12 8-2 18-5 20-13 1-8-10-10-16-14-12-9-13-16 0-25 19-13 40-17 62-16 16 0 21 8 17 24-1 6-2 13 6 13 28 0 55-2 80-13 6-3 7-7 1-12-13-9-21-23-27-37-3-9-11-17-5-26 7-9 16-3 24-2 4 1 8 2 10-2 1-3-2-5-3-8-6-9-14-15-23-21-7-6-13-6-18 3-6 10-14 9-23 4-16-8-27-20-37-34-1-2-1-4 2-5 11 11 20 25 34 33 6 3 12 7 18-1 8-13 18-11 29-3 6 6 13 10 19 16s14 14 8 23c-5 8-15 3-22 0-11-5-13 0-10 9 6 16 14 32 26 45 6 6 11 8 18 2 11-8 23-12 36-16 23-7 34 0 40 23l1 4c2 8 9 9 14 8 8-1 18-2 22-11 4-8-4-10-9-13-19-15-19-22 0-39 7-6 11-7 16 1-12 1-21 9-23 19-3 10 8 13 14 18 4 4 11 6 9 14-1 9-16 20-28 21-13 0-20-6-22-19-4-20-17-27-37-19l-23 11c-12 5-11 9-2 17 14 12 27 25 31 44 3 17-5 27-22 27-5 0-11 0-17-2-12-2-14 4-14 14-1 14 8 23 15 33 7 9 14 11 22 1 5-6 10-13 17-17 8-4 16-7 21 2 13 19 32 36 35 61 1 8 5 7 10 4 9-6 18-13 28-18 11-6 23-14 34-6 11 7 6 20 6 31 0 3-2 9 2 10 11 1 18-7 25-13 5-5 8-11 2-18-17-20-13-34 5-52 13-12 16-23 10-38-6-9-10-17-16-26-2-4-5-10-10-9-6 1-4 8-6 12v5c0 4-2 5-5 3-1-1-4-3-2-4 9-5 3-13 4-19 1-4 2-7 6-9 6-2 8 2 11 6 8 12 15 26 19 40 33 66 49 137 49 211 0 4-1 6-5 9-12 8-17 29-11 42 3 9 5 17-2 25s-15 16-23 24c-5 5-11 5-17 1-5-4-6-9-4-16 2-5 6-11 2-18-7 1-13 5-19 9-12 10-25 20-37 30-7 5-9 9-5 17 19 38 5 65-34 74-18 4-31 26-25 45 3 11 9 12 17 3s18-17 28-25c6-4 10-3 12 5 4 13 5 26 1 40 21-14 36-34 62-46-4 13-7 22-11 31-1 4 0 13-8 10-6-2 1-8 0-12 0-1-1-2-2-4-24 21-50 40-59 74 10-2 14-9 20-14 6-4 9-12 17-14 2 6 2 11-1 16-5 8-11 16-16 24l-24 18c-12 9-24 19-27 35 19-16 39-31 52-52 5-2 7-6 10-10 87-109 124-234 110-372zM89 220c-3-20 16-10 20-17 1 14-15 7-20 17zm58-8c-3 9-7 18-17 22-2 1-6 0-8-1-4-2 0-5 0-7 0-8 14-14 2-23 3-1 5-3 7-3 4 0 4 4 3 6-2 6-5 12-7 17-1 3-3 6 1 8 2 1 4-1 6-3 5-6 8-13 9-21 1-7 5-10 13-8-7 2-7 8-9 13zm120 191c14-16 49-24 70-15s24 31 5 46c-4 3-11 3-13 11 8 0 15 0 21-5 2-2 4-7 7-2 2 4 2 9-3 10-11 2-22 3-33 4-2 1-5 0-6-3 0-4 1-7 5-9 11-6 18-14 18-26 0-5 0-9-3-13-7-11-24-14-42-7-13 5-21 17-19 29 2 11 9 18 19 20 5 1 8 4 7 9s-5 5-9 6l-21 3c-3 0-7 1-9-2-1-2-1-6 0-7 3-5 6-1 8 0 6 2 11 1 17-1-2-6-7-5-10-6-18-8-23-27-9-42zm-88-257c-4-10 11-14 16-24-6-3-10-1-15 0 1-3 3-4 5-5 6-2 14-7 18-2 4 6-5 10-9 15-2 3-8 5-6 10 1 5 7 3 11 4 3 0 5 0 6 3 0 0 0 2-1 2-9 0-21 6-25-3zm37 50c-7 2-14 1-10-10 6-19 16-37 29-52s21-32 27-51c-11 0-16 9-24 11 3-16 20-32 35-32 10-1 15-8 20-13s9-10 13-15c-6-4-12 4-18 0 8-4 14-14 24-6v3c12 21-1 33-15 45-4 3-7 5-13 5-14-1-18 6-14 20 4 16-5 30-15 42-10 13-21 25-26 42-1 6-7 9-13 11zm271-9c-8 1-15 0-22-2l-15-3c11-8 24-6 37-9 4-1 6 2 6 6 1 4-2 7-6 8zm11-14c-10-20-19-23-35-13-26 16-40 8-43-26 6 7 9 14 17 15s14-3 20-8c8-6 16-13 28-6 11 8 17 22 13 38zm43-3c-2 3-3 7-8 5s-4-6-2-10c4-7 8-13 12-20 6-12 8-25 7-38 0-9-4-10-11-6-10 4-21 9-18 24 1 3 1 8-3 9-6 0-4-6-5-9-2-12 1-21 14-25 1-1 2-2 4-2 25-14 25-13 25 17 2 20-6 38-15 55zm65-37c-5 2-6-4-8-7s-3-6-4-9c-5-8-9-17-16-1-1 2-2 6-6 4-2-1-3-3-2-5 9-11 12-25 20-38-6 19 8 31 15 45 2 3 8 8 1 11zm148-18c3 7 9 13 9 23-12-8-17-21-19-32-3-13-10-17-20-20-8-1-16-3-24-7 17-12 37-14 49-3-6 2-12-1-18 4 7 11 21 8 32 13-9 5-12 12-9 22zm132 155c-5 3-5-7-9-7s-8 2-4 8c3 4-1 9-3 6-5-10-17-7-23-13-5-5-8-10-5-17 14 16 24 17 35 4 3-3 6-7 4-11-1-5-6-3-10-3-9 0-13-5-15-12-1-7 5-9 10-11 2-1 5-2 7 1 1 2-1 4-4 5s-8 2-6 7 6 4 10 4c13 1 18 9 13 21l-3 6c-2 5 10 7 3 12zm59 373c-4-5 5-17-10-15 1-1 1-5 1-5 8-1 5-13 13-13 5 0 2 4 4 6 7 12-1 19-8 27zm24-31c-1 1-4 0-7 0 5-10 14-24 5-29-8-6-14 10-21 16-6 5-7 12-17 18 10-21 24-34 38-47 2-2 5-3 7 0 7 7 4 36-5 42zm-471-82c0 27 26 42 50 29 10-6 20-15 31-18 10-3 21-6 30 3 12 12 13 53 1 66-5 4-10 5-16 5h-39c-11 0-20 5-23 17-5 15-6 31-4 47 1 15 8 21 24 20 11 0 22-1 33-3 27-3 55-6 79-21 16-9 16-13 1-22-18-11-18-17-1-29 23-16 48-25 76-30 10-1 22-7 28 0 6 8-4 17-8 25-4 9-3 15 8 13 30-5 58-12 82-30 5-4 8-7 4-14-11-22-7-46-3-69 2-15 14-25 29-26 17-2 19-4 18-21-1-8-2-15-6-22-8-12-11-13-20-1l-13 13c-13 13-21 12-31-3-3-4-5-9-7-14-5-15-6-30-6-48-4 2-7 3-8 5-29 23-63 28-99 30-14 0-19-9-15-22 1-5 4-9 5-14 2-4 2-9-5-9-27-2-54 1-77 18-8 6-7 13 2 19 6 3 11 8 17 12 7 5 7 11 0 16-5 4-10 8-16 11-33 17-69 21-105 19-9-1-12 1-14 10-1 13-2 26-2 38zm172-21c-8 8-9 41-2 47 3 2 5 0 7-2 13-16 26-32 38-48 5-6 2-8-8-8 15-6 26-10 38-14-15 17-1 33 0 49 0 8 4 10 12 12-11 4-22 8-36 14 12-13 12-28 0-49-14 18-29 36-43 54-5 7 5 3 5 7-12 4-24 8-40 13 24-18 4-36 5-53 0-10-9-6-19-9 17-5 30-9 43-13zm186 305c9-6 16-12 23-26-8 7-13 11-17 14s-7 7-12 3c-4-3-4-7-4-12 0-4 7-8 3-14-25 16-52 26-80 34-4 1-11 5-14-1-3-5 2-10 5-14 3-5 9-9 9-18-28 6-54 15-77 32-8 6-3 9 3 12 4 2 10 1 10 7-1 4-6 7-9 9-5 2-10 5-15 7-28 13-58 18-88 22-10 1-17 13-17 27 1 13 10 10 17 10 10 0 18-3 26-7 13-7 27-10 41-12 9-2 11 3 9 10-3 13-16 25-29 27-13 3-27 1-40 7-7 3-13 9-11 17 3 9 11 8 19 7 22-5 43-13 64-21 5-2 23 1 10-15-1-2 2-6 6-7 20-9 38-21 60-25 3-1 7 0 10-1 0 15 11 2 17 7-12 4-23 16-34 13-15-6-24 5-37 6-2 1-6 3-4 7 4 9-4 11-9 13-29 15-61 23-94 27-5 0-13 3-17-4-3-9 0-17 6-23 3-5 8-7 13-8 12-4 24-5 36-6 7-1 12-3 15-9 2-4 2-7-1-9-6-4-12-3-18 0-2 0-5 1-7 2-10 4-21 9-31 11-21 6-32-8-27-28 2-4 5-8 4-14-38 2-74 10-113 18 6 7 11 7 16 10 3 1 8 2 7 7 0 4-5 5-8 5-29 7-59 7-89 3-9-1-15-5-6-15 4-5 5-9-4-10-25-4-50-5-75-6-10 0-11 4-7 11 7 15 24 25 43 24 18-1 34 3 50 13 3 2 7 4 5 9-1 4-5 5-9 5-6 0-8-1-10-8-6-16-23-16-38-14-26 3-44-10-57-31-4-7-8-9-14-10-15-3-30-7-43-16 8 2 15 4 22 7 7 2 15 5 23 5 3-1 7 1 9-3 3-4 0-7-2-10l-24-28c-6-8-14-12-24-9-18 4-29-4-38-17-3-4-5-9-10-11-1 4-2 7-4 11-1 2-4 4-6 2-3-1-2-3-2-5 0-26-15-44-43-51 6 12 12 24 17 35-6-16-26-18-35-32 5-4 8 4 12-1 0-5-7-9-3-17 17 10 34 17 47 31 5 5 8 18 20 6 2-4 11-1 16 1 7 3 13 7 20 9 4 2 9 5 11-1 4-11-1-21-7-29-7-9-8-23-24-24h-1c-30 2-56-10-80-25-9-5-12-12-7-22 2-3 5-8 1-10-11-8-23-18-41-16 6 9 10 17 15 25 2 4 7 8 3 13-5 5-10 0-15-2-3-2-6-4-7-7 5-1 10 4 13-1 3-4-2-8-4-12-3-4-6-7-8-11-2-3-5-7-2-10 2-3 6-3 9-2 16 4 30 11 43 21 7 5 10 11 5 20-4 6-2 10 4 13 20 11 40 21 64 20 7 0 11-2 5-9-15-17-12-38-11-58 0-10 6-14 16-15 11-1 22 2 32 7 5 2 10 5 14-1 7-9 2-36-8-48-10-11-19-3-27 2-22 16-45 0-49-25-1-11-1-21 0-32 1-23 3-19-18-15-20 3-37-3-54-10-12-5-15-15-9-27 8-18 2-26-17-26-11 0-14 5-11 15 2 6 5 12 5 19 0 6-1 11-7 13-5 3-10 4-16 0-5-3-8-15-15-10-6 5-2 15-2 22 0 2 0 4 1 6 2 11-2 26 16 28 3 0 5 6 7 9 5 14 6 29 7 43 0 2 1 5-2 6-3 2-4 0-6-2-1-2-5-5-3-8 11-11 1-23 0-34 0-4-1-8-6-7-10 2-10-6-12-12-7-19-5-39-6-59 0-7 0-14-8-19-2 37 2 73 11 108 5 21 7 44 21 63-2 5 0 9 3 14 7 16 17 33 24 49 15 32 34 60 56 86 131 149 296 204 490 167 77-14 146-48 207-98 2-2 8-5 6-7-8-8 0-13 3-17 8-14 20-24 34-33zM74 600c5 1 10 2 8-6-2-9 4-12 11-10 11 2 21 7 28 17-7-4-15-7-22-10-4-2-8-4-11 2-2 4 0 8 4 9 8 3 4 8 5 13 1 12 4 23 6 35-11-9-9-21-12-33-1-5-2-12-9-10s-3 8-2 12c1 9 5 18 4 27-4-9-10-13-19-16-7-3-17-10-12-20 6-9 12 3 18 4 2-10 2-10-7-13-5-3-12-3-18-9 12 0 19 6 28 8zm108 234c14 5 10 26 19 26-14-2-24-13-19-26zm148 109c-2-2-4-4-3-6 1-3 4-3 6-3 6 3 15-3 15 10 1 9 15 9 26 15-19-2-33-5-44-16zm-67-423c-26-3-52-4-78 2-6 1-9 4-10 10-2 14-4 29-2 44 2 25 13 32 35 22 14-7 28-9 42 3 12 11 16 31 10 48-5 14-12 18-27 13-8-2-16-6-24-8-5-1-13-4-13 6-1 17-3 35 5 52 4 10 10 14 21 13 32-2 64-5 96 3 24 6 27 11 19 34-3 9 0 10 7 11 14 2 28 1 42-2 8-2 19-1 22-9 2-8-10-9-16-13-11-8-10-16 2-22 6-3 14-5 20-7 35-9 71-16 108-21-10-20-7-40-4-60 2-16 12-24 25-29 11-4 22-4 33-2 24 3 36-11 29-34s-22-29-42-16c-6 4-12 7-17 11-32 24-59-5-59-32-1-13-1-26 2-40s-1-17-16-15c-34 5-67 13-99 24-7 2-16 2-17 9-1 9 8 11 15 15 2 1 4 3 7 4 9 8 10 16-1 21-29 13-59 25-92 20-28-3-31-10-16-35 8-12 7-18-7-20zm81 78c13-1 26-3 38-5 8-1 11 1 12 8 2 10 4 19 5 29 2 13 2 28 26 22-11 9-70 16-89 12 11-2 11-7 9-16-4-13-6-27-9-41-1-6 0-9 8-9zm-41 22c-2-3-6-1-9-1-4 0-7 1-11-1 3-5 8-5 10-10 1-7 8-7 11 0 0 2 1 4 1 4 24 0 5 12 5 19 7 3 9-7 17-6-5 6 2 25-17 12-3 7 0 13 1 19 1 4 5 10-1 12-8 2-6-5-8-9 0-2-1-3-1-5-3-15-3-15-19-12 6-5 12-8 16-12 3-2 7-5 5-10zm137-267c-8-1-16-2-23-4-12-4-18 2-21 13-2 7-3 14-1 22 6 23 20 29 40 16 9-5 17-11 27-13 16-5 30 0 35 14 8 22 17 44 13 68-1 5 0 7 5 7 33 0 65-2 95-17 23-10 23-14 2-29l-6-4c-10-6-9-14-1-21 4-4 8-7 13-10 22-14 48-18 74-20 21-2 25 4 17 23-8 20-8 20 21 20 19-1 44-6 67-18 20-11 24-26 14-46-4-8-9-16-15-23-19-23-19-32-41-3-7 9-16 11-24 5-17-12-28-28-28-49 0-16 8-23 24-22 6 0 12 1 19 2 10 1 12-3 12-13-2-19-16-29-27-42-6-7-12-9-21-3-23 16-50 17-76 18-20 0-25-6-20-26 1-7 0-11-8-11-17 0-35 0-51 7-5 2-12 3-12 9-1 7 5 9 9 12 3 2 7 4 11 7 7 5 9 10 1 16-13 11-26 21-44 23-15 2-30 5-45 5-14 1-15 2-7 15 5 9 10 18 12 28 5 26-14 47-40 44zm139-56c-7 8-3 12 2 16 7 6 13 12 21 17 4 3 7 12 13 4 5-7 11-16 1-23-8-7-15-13-27-16 7-5 14-5 20-8 2 0 5-2 4 3 0 10 9 15 14 12 6-3 9-13-1-20 9-3 15-5 23-7-24 36-19 35 4 48 10-19 13-45 4-50 6-4 13-6 20-8-10 19-11 39-16 59-5 17-5 17-19 6-15-11-15-11-21 6l-2 4c-7 16-7 16-21 4-10-9-19-17-29-26-7-5-13-10-23-9 9-7 20-8 33-12zm269 370c15-2 22-10 25-24 2-8 1-16-1-24-6-18-9-19-25-8-25 17-53 29-83 35-7 2-15 3-20-4-4-6 0-13 3-19 2-3 4-6 6-10 3-9 2-15-10-13-21 4-41 10-60 21-25 13-25 16-2 32 10 6 10 12 1 18-13 11-29 18-45 22-24 7-49 10-73 12-4 0-10-2-12 3-2 4 4 7 6 11 3 5 7 10 10 15 14 25 2 48-27 48-13 0-26-1-39-1-16 0-22 11-15 26 6 14 21 20 36 14 12-5 24-11 38-12 15-2 24 4 29 18 4 12 5 23 1 37 34-4 66-8 95-24 5-3 11-5 1-11-13-8-13-12 0-21 27-18 57-27 88-35 9-2 9 3 7 9-4 7-8 14-13 23 29-7 55-18 77-35 19-16 26-35 20-59-2-11-6-9-12-3-7 6-12 15-18 22-10 12-23 10-29-4-2-6-4-12-2-19 5-24 18-38 43-40zm-73 78c-6 0-3-11-3-16-2-23-1-23-23-15-18 7-36 15-56 20-4 1-9 2-13-2-2-1-1-5 1-6 4-3 5-10 14-7s16-3 24-6c14-4 26-9 39-14 17-6 20-4 22 12 0 5 0 10 1 15v3c-2 5 4 16-6 16zM454 885c38-9 76-16 114-19 6-1 10-2 13-7 8-13 5-26-1-38-6-10-17-6-27-5l-9 3c-11 4-22 10-34 13s-23 3-31-8c-8-9-13-19-8-32s17-16 30-17c13 0 27 0 40 1s18-6 20-17c6-23-25-56-48-53-30 5-58 11-87 18-8 3-21 2-22 9-1 10 13 11 20 16 4 3 10 3 10 10-1 5-7 6-11 8-28 12-58 13-87 14-11 0-22-2-29-12-5-9 5-14 8-20 2-7 6-15-4-16-31-6-62-5-95-1 11 15 21 27 26 41 2 6 5 13-1 18s-13 9-21 6c-9-4-17-8-25-11-5-2-10-7-14-3s1 9 4 14c5 6 10 13 15 19 3 4 7 7 13 6 39-6 58 21 75 49 4 6 8 7 14 8 29 1 58 2 86 9 9 3 18 4 5 14-5 4-3 8 3 9 20 2 41 4 61-5l-4-3c-5-2-14-2-13-9 0-8 9-7 14-9zm-43-49c-9-2-18-1-27 2-14 4-29 4-42-2-5-2-8-5-7-10s6-4 9-5c8-2 15 0 22 2 2 1 4 3 3 5-1 3-4 2-6 1-6-5-12-5-20-2 8 11 19 8 27 6 18-5 36-5 55-3 10 1 26 1 27-9 2-11-15-11-24-15-14-4-27 0-41 0-17 1-34 1-52 1-5 0-12 3-10-9 0-5-12 1-17-8 10 1 19-6 25 7 2 4 7 3 10 3 28 0 55-2 82-4 3-1 7-1 9-5 1-3-7-7 1-7 3 0 6 0 8 3 2 4 0 7-2 9s-4 4-8 7c9 4 18 5 24 11 9 7 8 12-1 18-14 8-30 7-45 4zM29 309C11 359 1 411 0 464c0 9 4 14 12 20 3-17 3-34 3-50 0-2 1-6-2-6-8-1-7-6-6-11 1-3 3-3 6-2 5 2 5 6 5 11 0 4 1 9 0 13 0 17 0 34-2 51 0 10 5 16 13 20 4 3 9 3 13-1 6-6 1-13-1-20-1-3-2-6-2-10-2-6 1-11 7-14 9-6 32-1 42 9s5 18 0 27c-4 6-6 13 3 17 17 6 35 12 54 10 14-2 23-8 25-23 3-16-2-32-6-47-5-20-5-20-24-10-16 9-27 3-29-15 0-9-1-19 0-28 4-25 18-33 40-22 10 5 14 2 19-6 8-14 5-28 5-43 1-10-3-14-14-10s-22 4-33 3c-30-3-34-10-17-36 1-1 2-3 3-5 1-3 1-5-3-7-10-6-25 2-26 14-1 5-1 10-2 16-3 15-16 25-31 20-9-3-10 1-11 8-5 18-7 36-19 53-3-5-5-9-7-13 0-3 0-8 5-6 6 1 7 1 8-3 4-21 19-41 5-64-3 1-3 3-4 5zm32 55c4-7 11-8 18-4 6 3 9 10 13 16l-15-9c-3-2-7-2-10 0-4 3-2 6 1 8 2 2 3 3 0 5-2 1-5 0-6-1-5-5-4-10-1-15zm11 20c11 2 2 10 3 15-8-7-9-7-19 1-1-13 6-17 16-16zm3 24c21-2 16 7 13 18-2 6-2 12-4 20-6-3-12-5-17-8-5-2-17 4-15-8 2-19 8-20 23-22zM33 304h-1 1zm843 49c-10 4-20 10-29 17-8 6-21 11-22 22-3 23-1 46 14 66 6 8 11 7 16 0 7-9 14-18 23-25 9-9 16-7 20 5 5 12 9 25 7 38-1 18-4 22-21 25-21 2-25 7-25 27v15h-2c1 9 1 17 2 26 2 17 6 19 19 9 14-11 27-22 41-32 7-5 15-15 23-10 7 6 2 17 0 25s0 11 8 10c12-2 29-23 24-34-9-20 0-36 8-52 4-6 7-12 8-20 2-56-15-108-34-159-1-4-3-8-9-6-15 7-23 37-12 50 4 4 9 8 6 15-5 14-12 27-28 32-12 5-18 0-19-13 0-6 1-12 1-18 0-13-7-18-19-13zm93 93c-8-18-10-37-13-55 8 17 12 35 13 55zm-41-26c0-1 1-2 2-3 6-5 10-15 18-8 8 6 4 15-3 21l-1 1c-3 7-8 12-15 7-8-4-4-11-1-18zm25 13c-10 10-2 22-4 35-5-21-14-16-25-4l-2-5c11-9 21-17 31-26zm-7-18c-2-2-4-2-6-1-6 3-9 7-9 13 0 15 8 4 13 4l1-1c0-5 6-10 1-15zM365 640c-5 1-11 0-10 10 2 8 6 10 13 9 6-1 12-2 17-2 6-1 10-2 8-9-1-5-1-11-9-10-6 1-13 1-19 2zm-3-19c-5 0-11-1-10 7 0 9 6 8 11 8 6-1 12-3 19-3 5 0 6-3 6-7 0-6-3-8-8-7-6 0-12 1-18 2zm-3-5c4 0 6 0 8-1 6-1 17 2 17-8-1-12-12-4-19-6-1-1-4 0-5 0-5 3-14-1-12 9 1 9 8 6 11 6zM63 429c6 3 11 6 18 9 2-18-3-24-16-21-3 1-5 3-6 6-1 4 1 5 4 6z"/></svg>