<svg width="64" height="64" viewBox="0 0 1000 1000" xmlns="http://www.w3.org/2000/svg"><path d="M259 446c1-17 2-33 12-46 12-16 29-21 47-23h372c8 0 16 1 23 3 20 4 32 20 32 40 0 8-1 16-2 23 0 1-1 2-2 3H259zm145 111c2-9 3-18 4-28h-6c-34 0-69 1-104 0-5 0-11 0-16-1-16-5-26-17-27-34-1-7-1-14-1-22h181c13 0 24 2 35 9 13 8 19 20 18 35 0 13-2 26-3 38l-3 21c-4 23-18 37-40 44-9 3-19 4-29 4-56 1-113 0-169 0h-7v-4c2-19 4-37 6-56 1-4 2-6 7-6 50 1 100 0 149 0h5zm-176 0c-1 8-2 14-2 21-2 14-4 27-5 41-1 3-2 4-5 4H0c1-10 2-19 3-28 5-36 9-71 14-106 0-5 1-9 1-14 0-2 1-3 4-3h217c-3 19-5 38-7 57H94c-1 10-2 19-3 28h137zm358-28c-4 32-8 63-12 94h-82c6-50 13-100 19-151h230c-3 11-4 22-7 32-6 15-19 22-34 25h-13c-32 1-64 0-95 0h-6zm174-83c3-24 5-46 8-69h5c58 0 117-1 175 0 8 0 17 1 25 4 17 6 26 19 27 37 0 8-1 17-2 25 0 1-2 2-3 3H760zm-509-69l-9 69H22c3-24 6-46 9-69h220zm487 245c6-49 12-99 18-150h83c-1 5-1 10-2 14l-12 98c-2 12-3 24-5 36 0 1-2 3-3 3h-78l-1-1zm238 1h-82l18-151h83l-19 151z"/></svg>