<svg width="64" height="64" viewBox="0 0 1000 1000" xmlns="http://www.w3.org/2000/svg"><path d="M24 432H0v146h133v-21H24V432zm72 53h18l27-50h-25l-20 50zm200-62c-15-7-32-12-49-12s-34 5-49 12-28 20-36 33c-9 14-14 29-14 45s5 32 14 45c8 14 21 25 36 33s32 12 49 12 34-4 49-12 27-19 36-33c8-14 13-29 13-45s-5-31-13-45c-9-14-21-25-36-33zm15 114c-6 10-16 19-27 26s-24 9-37 9c-12 0-25-3-36-9-11-7-21-16-27-26-7-11-10-23-10-35 0-13 3-25 10-36 6-10 16-19 27-25 11-7 24-10 36-10 13 0 26 3 37 10 11 6 21 15 27 25s10 23 10 36c0 12-3 24-10 35zm182-24c7-3 15-8 19-18 4-9 5-23 1-33s-11-18-19-23c-9-5-19-7-29-7h-95v146h24v-58h58l45 58h27l-47-60c5 0 10-1 16-5zm-99-14v-46h73c6 0 12 1 17 5s9 11 9 18-3 14-8 18-12 4-18 4h-73zm151 79h133v-21H569v-43h81v-19h-81v-42h109v-21H545v146zm71-169l-15 19 51-19h-36zm141 23l-75 146h24l19-37h87l19 37h24l-74-146h-24zm-22 90l34-66 34 66h-68zm156 35V432h-24v146h133v-21H891z"/></svg>