<svg width="64" height="64" viewBox="0 0 1000 1000" xmlns="http://www.w3.org/2000/svg"><path d="M658 456c-1 42-2 75-3 109-2 29-4 59-6 88-1 23-3 46-5 68-2 25-5 49-7 74-2 18-4 36-7 55-3 25-11 50-28 70-11 13-25 21-40 27-26 10-52 15-80 15-39 0-77 2-115 1-27 0-54-4-80-12-28-9-48-25-61-52-11-24-19-50-24-76-5-31-8-62-7-94 0-2 1-4 3-6 45-51 91-101 137-152 9-11 19-21 26-33 14-23 14-45 3-69-6-12-15-21-24-31-35-40-70-80-105-121l-42-48c-2-3-3-6-3-9 0-13-1-26 0-40 1-18 2-35 5-53 2-20 7-40 15-60 10-25 28-42 53-52 15-6 30-9 45-10 13-1 27-3 40-4 19-2 38-3 57-4 31-1 61 2 92 5 10 1 19 1 29 2 23 2 45 7 65 21 15 10 24 25 32 41 11 24 18 49 20 75 3 26 6 53 8 79 1 26 3 51 4 77 2 42 3 85 3 119zm81 46c1-61 7-113 22-163 2-7 4-15 7-21 9-22 27-30 49-25 11 3 19 8 27 16 23 22 46 43 68 65 26 26 50 52 71 82 6 9 11 18 15 27 5 14 0 27-4 40-6 16-16 29-27 41-26 28-51 57-78 84-21 22-43 42-67 59-1 0-1 1-2 1-14 11-25 10-39-2-12-10-18-23-22-38-8-36-15-73-17-110-2-22-2-43-3-56zM0 502c1-61 7-113 22-163 2-7 4-15 7-21 9-22 27-30 49-25 11 3 20 8 28 16 22 22 45 43 67 65 26 26 50 52 71 82 6 9 11 18 15 27 5 14 1 27-4 40-6 16-15 29-27 41-26 28-51 57-78 84-21 22-43 42-67 59-1 0-1 1-2 1-14 11-25 10-39-2-12-10-18-23-21-38-9-36-16-73-18-110-2-22-2-43-3-56z"/></svg>