<svg width="64" height="64" viewBox="0 0 1000 1000" xmlns="http://www.w3.org/2000/svg"><path d="M189 464c-41 0-55 14-54 39h36c1-9 9-13 15-13 4 0 13 1 13 8 0 23-70 2-70 49 0 22 22 31 34 30 15 0 27-3 39-14l4 11h36c-2-4-2-66-2-66 0-25-3-44-51-44zm-8 90c-8 0-12-6-12-11 0-8 18-8 32-15 1 14-6 26-20 26zm780-23c-1 8-5 18-16 18-13 0-20-12-20-28 0-12 5-28 20-28 5 0 8 1 11 4 2 2 4 6 4 10h39c-3-30-27-42-54-42-34 0-59 20-59 56 0 34 26 56 59 56 28 0 51-15 55-46h-39zm-119-62h40v105h-40V469zm0-43h40v27h-40v-27zm-185 38c-35 0-59 21-59 57 0 35 26 56 59 56s59-21 59-58c0-32-23-55-59-55zm0 85c-10 0-18-11-18-30 0-12 5-26 18-26 11-1 19 11 19 26 0 20-8 30-19 30zm-130-55c0-5 5-7 12-7 4 0 8 1 10 2 1 1 4 4 4 8h37c-1-27-28-33-52-33-21 0-49 8-49 35 0 43 66 27 66 43 0 8-6 10-15 10-4 0-8-2-11-4s-4-5-4-10h-37c1 29 27 40 51 40 43 0 56-19 56-40 0-42-68-29-68-44zm-97-30c-40 0-54 14-53 39h36c1-9 9-13 15-13 4 0 13 1 13 8 0 23-70 2-70 49 0 22 22 31 34 30 15 0 27-3 38-14l5 11h36c-2-4-2-66-2-66 0-25-3-44-52-44zm-8 90c-8 0-11-6-11-11 0-8 18-8 31-15 1 14-5 26-20 26zM70 422H0v152h45v-47h27c40 0 60-22 60-52 0-29-21-53-62-53zm-2 72H45v-35h17c10 0 25 3 25 16 0 12-8 19-19 19zm727-30c-15 0-22 3-36 16v-12h-37v106h37v-55c0-14 7-22 19-22s15 7 15 17v60h40v-65c0-28-11-45-38-45zm-469 0c-15 0-22 3-36 16v-12h-38v106h40v-55c0-14 5-23 17-23s14 8 14 18v60h41v-65c0-28-11-45-38-45z"/></svg>