<svg width="64" height="64" viewBox="0 0 1000 1000" xmlns="http://www.w3.org/2000/svg"><path d="M940 259C920 144 862 63 743 33 582-8 421-13 260 31 157 60 90 127 67 232c-26 113-27 228-7 342 19 107 76 186 184 221 17 5 21 14 21 30-1 57-1 115-1 172l6 3c6-7 11-13 17-19 43-47 86-94 130-140 6-6 16-13 24-12 101 5 199-7 297-31 105-25 170-88 194-191 27-115 29-232 8-348zM522 142c135 4 243 118 246 258-1 13 2 30-16 30-18 1-17-17-17-29-5-83-36-150-109-194-33-20-71-25-108-31-12-2-27-1-26-17 1-18 17-17 30-17zm19 100c-13-2-30-2-27-21 3-18 19-13 32-11 93 14 156 82 156 168-1 12 1 26-16 27-15 0-15-13-16-24-11-86-46-123-129-139zm96 125c-1 8-4 14-12 16-11 2-18-4-19-13-3-38-23-59-61-63-10-2-15-10-12-20s11-11 26-11c39-1 84 48 78 91zm3 325c-195-80-332-217-407-414-20-52 31-126 86-127 14 0 26 5 36 15 28 29 52 61 72 96 15 27 11 49-14 69-34 27-37 41-17 81 27 57 72 97 130 123 24 9 41 6 57-15 31-38 48-40 90-15 29 18 55 39 81 61 10 9 18 19 17 29 1 59-80 118-131 97z"/></svg>