<svg width="64" height="64" viewBox="0 0 1000 1000" xmlns="http://www.w3.org/2000/svg"><path d="M863 561c-74-326-364-253-364-253l-9 3c-133 40-265 81-398 120-31 9-40 31-25 56 25 39 55 74 83 110 13 16 29 30 36 48 35 91 117 146 209 134 40-6 80-17 126-27-12 61-24 116-35 170-14 65-4 78 57 78 219 1 375-214 320-439zM422 706c-60 15-137-7-165-70 44-14 86-27 129-39 62-18 124-39 187-48 70-11 138 36 155 88-42 6-87 9-130 19-67 16-109 34-176 50zm320 134c-47 63-112 96-196 93 14-65 21-129 43-186 9-22 53-39 81-39 26 0 63 20 75 42 12 23 12 70-3 90zm47-230c-56-102-166-150-274-119-75 21-148 45-223 67-66 19-125-9-154-74 121-37 237-78 356-108 157-39 303 85 318 270-10-16-17-26-23-36zm2-610c-82 0-149 67-149 149s66 149 149 149 149-67 149-149S873 0 791 0zm0 246c-54 0-97-44-97-97s43-97 97-97 97 44 97 97c0 54-44 97-97 97z"/></svg>