<svg width="64" height="64" viewBox="0 0 1000 1000" xmlns="http://www.w3.org/2000/svg"><path d="M750 513l-1-1 43-72 1-3 1-1h-27l-2 3-26 43-12 20c0 1-1 2-1 3h-1v2h-1v2c-1 0-1 0-1 1v4c1 1 1 3 2 4h1v2l45 78h26l-46-83-1-2zm-53-144v229h23V367h-23zm298 69c-1-1-3-1-5-2h-1l-2-1h-1c-3-1-6-1-9-1h-5-2l-2 1h-2-1l-2 1h-3v1c-1 0-2 0-3 1l-3 1-1 1s-1 0-2 1c-1 0-1 1-2 1 0 0-1 0-1 1l-1 1-2 1-2 2h-1c0 1 0 1-1 2-1 0-1 1-1 1s-1 0-1 1l-2 2c0 1-1 1-1 1v1l-2 2v2h-1v1l-1 1v1l-1 1v2c-1 0-1 1-1 1v1c-1 0-1 1-1 2l-1 2v4c-1 1-1 1-1 2v122h24V483c0-7 3-14 7-19 1 0 1 0 2-1l1-1c3-2 6-4 9-4h29v-12-2c1 0 1-1 1-2v-2c-2-1-3-2-5-2zm-96 40v-2l-1-1v-1-1-2l-1-1v-1-1-1h-1v-2c-1-1-1-1-1-2v-1l-1-1c0-1-1-2-1-2v-1l-2-2v-1s-1-1-1-2h-1l-1-2-1-1c0-1-1-1-2-2l-2-2-1-1s-1-1-2-1v-1c-1 0-2-1-2-1l-1-1c-1 0-1-1-2-1h-1c-1-1-1-1-2-1v-1h-1-1l-1-1h-1s-1-1-2-1h-1c-1 0-1-1-2-1h-4v-1h-7-3-2l-1 1h-2-1-1l-1 1h-2c-1 0-1 0-1 1h-2-1c0 1 0 1-1 1h-1l-1 1h-1s0 1-1 1h-1s0 1-1 1h-1s0 1-1 1h-1v1h-1v1h-1l-1 1-1 1h-1c0 1 0 1-1 1v1c-1 0-1 1-1 1l-1 1v1h-1v1h-1v1h-1v1l-1 1v1c-1 0-1 0-1 1v1h-1v1l-1 1v1l-1 1v1l-1 1v2c0 1-1 1-1 1v3c-1 0-1 1-1 1v4l-1 1v82c0 1 1 1 1 2v4l1 2v1c0 1 0 2 1 2v1l1 2v1c0 1 1 2 1 2v1c1 0 1 1 1 2h1v1s0 1 1 1v1s1 1 1 2h1l1 2v1c1 0 1 0 1 1h1c0 1 1 2 2 2l1 2h1c0 1 1 1 1 2h1l2 1 2 2 2 1h1l2 1 2 1h1c1 0 1 1 2 1h3c1 1 2 1 3 1h3c2 0 5 0 7-1l29-4v-2c-1 0-1-1-1-1v-1-2-1-2c0-2 0-4-1-6v-3h-30v-1h-3-2c-1-1-1-1-2-1-1-1-1-1-2-1-1-1-1-1-2-1 0-1-1-1-1-2h-1l-1-1-1-2h-1s0-1-1-1v-1l-1-1-1-2v-1s0-1-1-1v-1-2l-1-2v-28h57c3 0 6-1 9-3 2-2 3-5 3-8v-37-2-1zm-23 3v25h-46v-25c0-10 7-19 16-22 2-1 4-1 7-1h5l2 1s1 0 2 1l1 1h1s1 0 1 1h1l1 1s1 0 1 1l1 1c1 0 1 1 1 1l1 1s0 1 1 1v1l1 1v1l1 1v1c0 1 1 1 1 1v3l1 1v3zm-206-2v-2-1-2l-1-1v-1-2-1l-1-1v-1-1s0-1-1-1v-1-1h-1v-2c-1-1-1-2-2-3 0-1-1-1-1-2v-1h-1l-1-2c-1-1-1-2-2-3l-2-2h-1c0-1-1-2-2-2v-1l-2-1v-1h-1s-1-1-2-1v-1c-1 0-2-1-3-1-1-1-2-1-3-2-1 0-1 0-2-1h-1c-1-1-2-1-3-1-1-1-2-1-3-1h-1s-1-1-2-1h-4c-1-1-2-1-3-1s-1 0-2 1h-6-1l-1 1h-1-1-1v1h-2l-1 1h-2v1h-2c-1 1-1 1-2 1v1h-2v1h-1l-1 1h-1l-1 1-1 1h-1l-1 1s0 1-1 1l-1 1-1 1-1 1-1 2s-1 0-1 1c0 0 0 1-1 1v1l-1 1-1 1-1 1v1c0 1-1 2-1 2v1h-1v2l-1 1v2c-1 1-1 2-1 3-1 3-2 7-2 11v74l1 3v6l1 3 1 3 1 2v1c0 1 0 1 1 2 0 1 1 2 1 3l2 2v1s1 1 1 2h1c0 1 1 1 1 2 1 0 1 1 1 1l1 1 1 1 2 2s1 1 2 1v1l2 1 1 1s1 1 2 1c1 1 1 1 2 1 0 1 1 1 1 1s1 0 2 1c1 0 2 1 3 1l3 1c1 0 2 0 3 1h6s0 1 1 1h5v-1h6c1 0 1-1 1-1h3l1-1h2c1-1 1-1 2-1l2-1c1 0 1-1 2-1l1-1h1c1 0 1-1 1-1h1l1-1h1c0-1 0-1 1-1v-1h1l1-1 1-1 1-1 1-1 1-1v-1c1 0 1 0 1-1h1c0-1 0-1 1-1v-1l1-1v-1l1-1c1-2 2-3 2-4l1-1v-1c0-1 1-1 1-1v-1-1l1-1v-1-1l1-1v-2-2-1l1-1v-3h-11c-2 0-4-1-6-1h-6l-1 1v1c0 2 0 3-1 5-3 9-12 15-22 15h-2c-1-1-1-1-2-1h-2-1l-1-1h-1l-1-1h-1l-1-1c-1-1-1-1-2-1l-2-2-1-1v-1c-1 0-1-1-1-1h-1v-1-1h-1v-2h-1v-2c-1-1-1-2-1-2v-3-76c0-7 3-13 8-18 4-3 9-5 14-5h3c0 1 1 1 1 1h3s1 1 2 1l2 1 2 1s1 1 2 1v1s1 0 1 1h1s0 1 1 1l1 2 1 2h1v2h1v3l1 1v8c1 1 1 1 2 1s1 0 1-1h21v-3c0-1-1-1-1-2l1 1zm-124 2v-1-1h-1v-3-1-1-1h-1v-1-2c-1 0-1-1-1-1v-1l-1-1v-2c0-1-1-1-1-1v-1-1h-1c0-1 0-2-1-2v-1c0-1-1-2-1-3h-1c0-1 0-1-1-2v-1c-1 0-1-1-2-2l-2-2c0-1-1-1-1-1l-1-1c0-1-1-1-1-1l-2-2c-1-1-2-1-2-2h-1c-1-1-2-1-2-1v-1h-1s-1-1-2-1h-1c-1-1-1-1-2-1v-1h-1c-1 0-2 0-3-1h-1s-1 0-2-1h-1c-1 0-2 0-3-1h-4-1-12v1h-4l-3 1h-1c-2 1-4 1-5 1v1h-3c-1 1-2 1-2 1h-1c0 1-1 1-1 1h-1v6l1 2v9l1 1h8l8-1h8c0-1 1-1 2-1h13c0 1 1 1 2 1s1 1 2 1l2 1c1 0 1 1 1 1 1 0 1 1 2 1l1 2 1 1c1 1 1 1 1 2l1 1v1c0 1 1 3 1 4v4c1 1 1 2 1 2v19h-1l-1-1h-1-1-1c0-1 0-1-1-1h-1-2-1v-1h-1-4-2l-2-1h-1-6l-1 1h-3-2-1l-1 1h-3-1l-1 1h-2v1h-1-2c0 1 0 1-1 1h-1l-1 1h-1s0 1-1 1-1 1-1 1h-1c-1 1-1 1-2 1v1c-1 0-1 0-1 1h-1c0 1-1 1-1 1s-1 0-1 1l-1 1-1 1-1 1-1 1-1 2h-1v1c0 1-1 1-1 1v1l-1 1v1l-1 1v1l-1 1v2c-1 0-1 1-1 2l-1 1v3h-1v4c0 1 0 1-1 1v26l1 1v3l1 3v2l1 1v2s1 0 1 1v1c1 0 1 1 1 1 0 1 1 1 1 2l1 2 1 1c0 1 1 1 1 2h1c0 1 1 2 1 3h1c0 1 1 1 1 2h1c0 1 1 1 1 2h1c0 1 1 1 2 2l2 2h1l2 2c1 0 2 1 2 1h1l2 1 1 1 2 1h1s1 0 2 1h3v1h6l1 1h3c9 0 19-3 26-9 6-4 11-9 14-16 3-6 5-14 5-22v-70-1c2-1 2-1 2-2zm-23 36v37c0 2-1 5-2 7-2 8-10 15-19 16h-4l-1-1h-4v-1h-2c-1-1-1-1-2-1-1-1-1-1-2-1v-1c-1 0-1 0-2-1l-1-1h-1l-1-2s-1-1-1-2h-1v-1l-1-2v-1c-1 0-1-1-1-1v-1l-1-2v-2-20c0-6 2-12 6-16s10-6 17-6h22v3zm-151-82zm0 0h-1 1zm53 47l-1-2v-1-2-3c0-1 0-1-1-2v-1-2l-1-3-1-2v-1l-1-2c-1-1-1-2-1-2s0-1-1-1l-1-2v-1c-1 0-1-1-1-1 0-1 0-1-1-1-1-1-1-2-2-3l-2-2-2-2-2-2-1-1s-1-1-2-1l-3-2c0-1-1-1-2-1l-1-1-2-1c-1 0-2-1-3-1h-1s-1-1-2-1l-3-1h-13-2-1l-2 1h-2-1-3c0 1 0 1-1 1h-2l-2 1h-2v-70h-23v231h23V460h26l1 1h3c1 1 1 1 2 1l2 1c1 0 1 1 2 1 1 1 1 1 2 1v1s1 0 1 1h1c0 1 0 1 1 1v1l1 1 1 1v1l1 1v1l1 1v2l1 1v121h24V483c-1 0-1-1-1-1zm-121-4v-1-5-1h-1v-1-3h-1v-1-1l-1-1v-2l-1-1v-1-1h-1v-1s0-1-1-2l-1-2c-1-1-1-1-1-2h-1v-1c-1-1-1-2-2-3h-1l-1-1v-1h-1c0-1 0-1-1-1v-1l-1-1h-1c0-1 0-1-1-1v-1l-2-1v-1l-2-1-2-1-1-1h-1l-1-1h-1c-1-1-2-1-2-1h-1v-1h-2c-1-1-1-1-2-1s-2-1-2-1h-3v-1h-7v-1h-1-1-1-4l-1 1h-5l-1 1h-2l-1 1h-1l-1 1h-3v1h-1l-1 1h-1l-1 1h-1l-1 1h-2v1h-2v1h-1l-1 1-1 1h-1v1s-1 0-1 1h-1c0 1-1 1-1 1v1h-1v1h-1c0 1-1 1-1 2h-1v1l-1 1-1 1c0 1-1 2-1 3h-1v1c-1 1-1 1-1 2l-1 1v1c-1 0-1 1-1 1v2l-1 2s-1 0-1 1l-1 3c-1 4-1 8-1 12v77c0 1 1 2 1 3v3l1 1v2l1 1v2l1 1 1 3 1 2v1h1c0 1 0 1 1 2v1c1 0 1 1 2 2 0 1 1 2 1 2l1 1 1 1 1 1 1 1v1c1 1 2 1 2 2h1c1 1 1 1 2 1v1l2 1 1 1s1 1 2 1c1 1 1 1 2 1l1 1h2l1 1h2v1h3l1 1h6c1 1 2 1 3 1s2-1 4-1h4l30-5h3l-1-18v-13h-36-1l-1-1h-2-1l-1-1h-1l-1-1-1-1c-1 0-1-1-1-1l-1-1v-1c-1 0-1 0-1-1l-1-1v-1l-1-1v-2-17h47c10 0 18-8 18-19v-35-2zm-36 19h-28v-17c0-7 6-14 14-14 1 0 1 0 1 1h3l1 1h2v1h1v1h1v1h1l1 1v1s1 0 1 1v1h1v4h1v18zM146 370zm-5 4zm48-7l-1-1h-2v-1h-3v-1h-3s0-1-1-1h-2-1-1v-1h-8l-2 1h-1-3l-1 1h-3s-1 1-2 1l-2 1h-1c-1 0-1 1-1 1h-1s-1 1-2 1l-2 2h-2c0 1 0 1-1 1v1c-1 0-2 1-2 1h-1v1l-1 1h-1c0 1-1 1-2 2l-1 1-1 1v1c-1 0-1 1-2 1v1l-1 1-1 1v1l-1 1c-1 0-1 1-1 1s0 1-1 2c0 1-1 1-1 2s-1 1-1 1c0 1 0 1-1 2v1c0 1-1 1-1 2v1l-1 1v1l-1 2v1c0 1 0 2-1 3v7c-1 0-1 1-1 2v222h2l35-2V502h28v-37h-27v-49c0-8 6-14 14-14h17l1-32v-3zM0 368v230h37V371l-35-2zm99 32v-2-1l-1-1v-1-1c-1 0-1-1-1-1v-1h-1v-1c-1-1-1-1-1-2h-1l-1-1v-1h-1v-1h-1l-1-1h-1v-1h-1-1c0-1 0-1-1-1h-2c0-1-1-1-1-1h-1-9l-1 1h-2l-1 1h-1v1h-1c-1 0-1 1-1 1h-1l-1 1v1h-1c0 1-1 1-1 1v1h-1v1h-1v1c0 1 0 1-1 1v2c-1 0-1 1-1 1v2h-1v9h1v2c0 1 1 1 1 2s0 1 1 2v1h1v1l1 1 1 1 1 1 1 1c1 0 1 1 1 1h1c0 1 1 1 1 1h1c0 1 1 1 1 1l2 1h2l2 1h5s1-1 2-1h2c0-1 1-1 1-1h1l1-1h1s0-1 1-1 1-1 1-1h1c0-1 0-1 1-1v-1c1 0 1 0 1-1h1v-1l1-1v-1l1-1v-1l1-1v-2l1-1v-1-2-1-3zm-39 33v165h37V434l-37-2z"/></svg>