<svg width="64" height="64" viewBox="0 0 1000 1000" xmlns="http://www.w3.org/2000/svg"><path d="M867 795c-13 44-55 70-92 58-38-11-58-55-45-99s54-70 92-58c38 11 58 56 45 99zM707 998c-93-10-162-89-178-179-11-56 1-98-36-112-65-24-150 19-233 9-75-9-131-66-134-161-2-87 62-206-26-246 37 8 68 16 85 49 35 71-21 208 40 246 30 19 83 10 120 5 43-6 72-19 112-18-23-32-60-39-85-58-30-23-74-64-94-103-35-69-29-193-80-238-39-34-104-35-170-22 46-39 162-45 206-13 58 42 46 161 98 223 24 28 59 39 85 50 30 12 62 23 107 27 34-148-81-169-152-233-53-48-88-105-80-224 11 62 23 113 67 148 29 23 70 31 102 49 78 44 149 116 170 224 17-10 29-33 45-54 15-21 35-38 36-67 1-41-28-74-54-94-62-49-176-37-152-170 11 33 14 70 40 89 39 28 99 28 143 54 40 23 99 75 99 143-1 78-78 108-45 197 77 21 116 23 156 58 159 139 43 448-192 421zm215-184c30-102-17-207-106-233s-185 34-215 136c-31 102 17 207 105 233 89 27 185-34 216-136z"/></svg>