<svg width="64" height="64" viewBox="0 0 1000 1000" xmlns="http://www.w3.org/2000/svg"><path d="M0 412c28 0 56-1 85 0 21 0 38 15 42 35 4 23-8 42-26 48 0 0-1 0-2 1 18 5 28 16 31 33 5 29-11 52-40 55-7 1-14 1-20 1H0V412zm38 140l1 1h35c12-1 19-8 20-19 0-11-7-19-19-21-7-1-15 0-22 0H38v39zm-1-72h38c7-2 12-5 14-13 3-12-4-22-17-23H37v36zm634 108c-4 0-9-1-13-2-34-8-51-38-48-70 2-27 16-47 42-56 36-13 78 5 85 53 0 6 0 13 1 20h-94c2 12 8 20 19 24 17 8 33 4 48-6 1 0 1-1 2-2h1c5 7 9 14 15 22-5 3-9 6-14 9-9 4-19 7-29 8h-15zm34-78c1-16-14-28-33-27-15 1-29 14-28 27h61zm101 78c-5-1-11-1-16-3-26-7-43-28-45-55-3-24 5-45 24-61 31-24 90-18 101 38 1 4 2 8 2 12v14h-93c1 7 3 12 8 17 10 11 23 13 37 10 9-1 17-5 24-11 5 7 10 14 15 22-4 3-7 5-11 8-10 5-20 8-31 9h-15zm-27-78h61c1-15-14-27-32-27-16 0-30 13-29 27zm-590 78c-4 0-8-1-12-2-25-6-39-24-39-49v-77h33v73c0 10 3 19 13 24 11 5 21 4 31-3 8-5 10-13 10-21v-73h32v76c0 29-18 49-46 52-2 0-3 0-5 1-5-1-11-1-17-1zm313-3V412h120v27c1 4-1 5-4 5h-79v36h58c4 0 5 1 5 5v27h-63v73h-37zm378 0V464c0-5 0-5 6-5 18 0 36-1 54 1 26 2 46 13 56 39 9 26 2 55-18 71-11 10-25 14-40 15-18 1-37 0-56 0h-2zm32-27h18c22 0 35-12 37-33 2-15-6-31-19-36-12-5-24-2-36-3v72zm-588-70h-56v-28h102c0 5-1 10 0 16 0 5-1 9-4 12-17 21-34 43-51 64-1 1-1 2-3 4h58v29H268v-24c0-1 1-3 2-4 18-22 35-43 52-65 0-1 1-2 2-4zm55 0v-25c0-1 1-2 1-3h101v22c0 1-1 3-2 4l-52 66c-1 1-2 2-3 4h54c3 0 4 1 4 4v25H380c0-8-1-16 0-24 0-1 1-2 1-3l51-64c1-2 2-4 4-6h-57z"/></svg>