<svg width="64" height="64" viewBox="0 0 1000 1000" xmlns="http://www.w3.org/2000/svg"><path d="M429 517c-8-4-23-12-30-15-10-5-12-17-6-23 11-11 40-8 50 12 2 4 2 6 2 6h1v-1l11-38s-1-1-6-4c0 0-14-10-40-10s-62 13-64 52c-1 27 18 43 30 49 16 8 34 14 41 24 5 8 2 26-23 26-34 0-41-31-41-31h-1l-9 42s2 3 8 6 26 11 46 11c18-1 64-4 67-56 0-11-4-35-36-50zm315 85c-2-6-4-12-16-50-29-87-35-103-35-103h-57v1c8 1 8 12 6 17 0 0-43 136-47 151h43v-1s-7-4-6-14c1-8 6-25 6-25h46c3 10 4 15 6 19 6 17 10 20 10 20h56c-6-1-10-10-12-15zm-69-51h-31l1-1 15-53v-1 1c2 5 8 28 16 53v1h-1zm290-130c16-10 20-27 18-43s-19 17-101 48c0 0 63 6 83-5zM599 578c-1 2-10 18-37 13-17-3-43-18-42-69 2-36 25-48 38-50 11-1 30 4 36 24h1l14-36s-1-2-4-4c0 0-15-14-49-12-34 1-84 24-83 91 1 66 49 88 76 88 28 0 42-11 51-45h-1zm-287 10c-17 3-38 1-42 0v-46h36c9 0 9 5 9 5h1l6-34h-52v1-37c5 0 25 1 37 1 15 0 17 9 18 12v1-1l6-41H210v1c14 1 12 58 12 58v89c0 11 2 20 3 21h103l11-44-1-1c-1 1-5 10-26 15zm687-15c0 1-4 10-25 15-17 3-38 1-42 0v-46h36c8 0 9 5 9 5h1l5-34h-51v1-37c4 0 25 1 37 1 14 0 16 9 17 12v1h1v-1l6-41H872v1c13 1 11 58 11 58v89c0 11 2 20 3 21h104l10-44-1-1zM748 450c13 2 11 58 11 58v91s0 14 3 18h55c0-1-10-2-10-22v-53h35c8 0 9 5 9 5h1s3-23 5-34h-49l-1 1v-37h1c4 0 23 1 35 1 14 0 16 9 17 12v1h1v-1c2-12 6-41 6-41H748v1zm-555-26h650s21-1 37-33l-2-1c0 2-2 2-9 2H143v1s10 7 10 51c0 37 1 77 1 77v12c0-1-1-2-1-2-3-5-47-77-54-88 0 0-20-30-30-41-9-10-17-10-21-10H0v2c1 0 12 6 12 55v111c0 51-12 57-12 57h44c8 0 8-5 8-7v-50c0-40-1-76-1-82v-1c0 1 1 1 1 1 0 1 8 9 48 71 33 52 30 47 34 53s8 15 20 15h42s-3-10-3-43V424z"/></svg>