<svg width="64" height="64" viewBox="0 0 1000 1000" xmlns="http://www.w3.org/2000/svg"><path d="M819 281c-1-1-2-2-2-3-18-28-40-54-64-78-37-36-79-64-127-84-47-20-95-30-146-32-2 0-4-1-6-1h-23c-24 1-47 4-71 9-46 9-89 25-129 50-53 31-96 72-131 122-36 52-59 109-68 171-5 29-7 58-5 87 2 21 4 42 8 63 2 6 1 6-4 9-16 8-32 17-48 26-1 0-2 1-3 2 5 3 9 2 13 0 9-6 18-11 28-15 5-3 11-6 17-9 10 39 24 76 44 111 20 34 45 65 74 93-2 1-3 2-4 3-18 17-36 33-54 49-5 4-4 9-4 14 22-21 44-41 67-61l3 3c32 29 67 52 106 70 46 20 93 33 143 36l16 1h27c8 0 17-1 25-2 38-3 74-11 110-24 85-33 153-88 203-165 52-80 72-168 64-263-3-42-13-82-29-121-1-4-4-7-3-10 1-2 4-4 7-7 33-29 65-60 91-96 22-28 40-59 53-92 1-1 1-3 2-4 0-2 0-3 1-5-50 64-114 111-181 153zm46 175c4 42 3 84-5 126-16 79-53 146-110 203-45 45-97 78-157 98-30 10-61 17-93 19-31 2-63 2-95-2-67-10-128-34-182-75-10-8-19-16-29-24l-3-3 15-12c48-40 98-78 149-114 52-37 106-73 160-107 36-23 72-46 107-69 1 0 2-1 3-2-3-4-5-7-7-12-3 2-5 3-7 4-28 18-56 35-84 53-29 18-58 37-86 56-35 24-70 47-105 71-35 26-70 53-103 82-16 14-32 29-48 43-2-1-4-3-6-5-37-36-67-77-87-125-9-21-16-43-21-65-1-3 0-4 2-5 11-4 22-9 32-13 2 0 4-1 5-3l13-13c2-2 3-4 2-7-18 9-37 18-57 28 0-2-1-3-1-5-7-39-9-78-5-118 7-84 39-159 94-223 27-31 57-58 92-80 39-25 82-42 128-52 40-9 81-11 123-7 73 5 139 29 199 72 42 30 78 68 107 112 1 1 1 3 2 5-76 44-156 79-238 111 5 6 10 13 16 20 0 0 1 1 3 1 5 1 11 3 17 4 1 0 3 0 4-1l12-8c3-2 4-2 4 2v14c61-23 119-51 173-87l1 1c-1 2-2 3-3 4-16 14-32 28-49 41-23 18-46 35-70 53-16 11-33 22-49 33-1 1-2 1-3 2 3 4 5 8 8 12 70-46 139-94 203-149 3 8 6 15 8 22 11 31 18 62 21 94zM263 564c-3-3-4-5-4-8 1-36 1-72 0-108 0-6 1-12 7-16l7-7s1-1 1-2h-51l14 14c1 1 2 3 2 4v75c0 1-1 1-1 3-2-3-4-6-5-8-17-28-34-57-50-85-2-2-3-3-6-3h-64s0 1-1 1c5 4 9 9 14 13 1 1 2 3 2 4v117c0 1-1 3-2 4l-13 13-3 3h54c-5-6-9-11-13-16-1-1-2-3-2-4v-76c0-1 0-2 1-3 0 1 1 1 1 2 19 31 37 63 56 94 1 2 2 3 5 3h65l-3-3c-4-4-7-8-11-11zm207-6c-4-10-8-19-12-29-13-34-27-68-40-102-1-3-3-4-6-4h-71c4 5 8 9 12 13 2 2 3 4 2 6-10 34-20 69-30 103-2 11-7 20-16 27-2 1-3 3-5 5 0 0 0 1 1 1h49c-2-2-2-3-3-4-3-3-5-6-8-9-1-2-1-4-1-5 1-5 3-9 4-14 1-2 1-3 4-3h49c1 0 3 2 3 3 2 3 3 7 5 11 1 2 0 4-1 5-4 4-8 9-13 13 0 1-1 2-2 3h65c9 1 15-6 22-10l-1-1c-2-3-6-6-7-9zm-82-39h-31c-2 0-3 0-2-3 5-17 9-33 14-50 0 0 1 0 1-1 7 18 14 36 22 54h-4zm431 39c-10-23-19-46-28-69-8-21-17-42-25-63-1-2-2-3-4-3h-26c-2 0-4 1-5 2-9 6-17 12-26 18-1 1-2 2-3 4-1 5-3 10-4 15l-28 96c0 1 0 2-1 3l-13 13-4 4h51c-4-5-8-9-11-13-1-2-1-4-1-5 1-5 3-10 4-15 1-1 2-2 3-2h50c2 0 3 1 3 2 2 4 3 8 5 12 1 2 1 4-1 5l-8 8c-3 2-5 5-8 8h97l1-1-15-15c-2-1-3-2-3-4zm-116-39l15-54h1c7 18 14 36 22 54h-38zm-145-54c-7-3-8-11-3-17 6-5 13-7 20-7 18 0 33 7 47 18 1 0 1 1 3 2 0-16-1-31-1-47-2 1-3 2-4 2-4 3-7 5-11 7-1 1-3 1-4 1-13-4-27-6-41-4-23 2-41 12-53 31-10 16-7 37 5 50 9 10 21 14 33 20 2 1 3 0 5-1l32-20c7-4 14-9 22-14-5-2-9-4-14-6-12-5-24-9-36-15zm69 34c-2-1-3-2-5 0-15 10-30 19-45 29-1 1-2 1-3 2 5 3 9 5 13 8 4 4 4 10 0 14-7 6-15 8-23 8-9-1-18-3-27-4-1-1-3 0-4 0-8 5-16 10-23 15-1 1-2 2-2 3 0 4 0 8 1 14 5-5 10-8 16-12 1-1 3-1 4-1 15 5 30 8 46 7 15-1 29-4 42-12 27-17 31-49 10-71zM273 396c10 29 23 56 38 82 4 6 4 6 9 3h1l-2-4c-9-19-19-37-27-56-12-27-21-54-26-82-4-20-5-40 0-60 6-28 25-44 55-44 16-1 31 3 46 9 26 10 50 24 73 41 30 21 57 46 82 73 17 18 34 37 50 56 3 4 6 5 11 4l-9-12-9-11c-27-32-56-63-88-90s-67-51-106-67c-18-7-36-12-55-11-24 1-42 11-52 34-8 17-9 36-8 55 1 27 8 54 17 80zm285 23c5-1 9-1 14-2-4-4-8-8-11-13-2-2-3-2-6-1-32 11-65 23-98 35-9 3-19 6-29 10 5 12 10 25 15 37 0 0 2 1 3 1 18-5 37-10 55-15 1-1 2-2 2-3 2-11 6-20 13-27 12-12 26-20 42-22zm-294 83c-1 0-3 1-3 2v28h1c23-6 46-11 69-17 1 0 2-1 2-2 3-12 7-25 11-38-6 2-12 4-17 6l-63 21zm208 157c-9-6-17-13-25-19-7-5-13-10-19-16-4 2-7 5-10 7 4 5 8 11 11 16 8 9 16 19 26 26 4 3 8 6 14 6 7-1 11-8 8-14-2-2-3-4-5-6zm203-76c-2-4-3-5-7-3 7 20 13 40 15 61 3 18 3 36-2 53-6 22-21 36-44 40-11 1-21 1-31-1-8-2-17-4-25-6v1c4 1 7 2 10 3 17 4 33 8 51 6 21-3 36-15 43-35 5-15 6-31 5-47-2-25-8-49-15-72zm-311-38c-1 0-2-1-3-1h-7l-1 1c18 24 36 47 54 71 3-2 6-4 8-6v-1c-17-21-34-42-51-64zm302 12c-10-24-23-47-36-69-7-13-16-24-24-37-1-2-6-4-9-4 27 37 48 76 66 119 5-4 5-4 3-9zm-488-24c-9 3-17 7-26 10 0 1-1 2-1 2v13c0 2 1 5 4 4 12-4 23-7 36-11-4-6-7-12-11-17 0-1-2-1-2-1zm177-256c0 2 0 3-1 5 0 1 0 2-1 3-3 2-7 4-9 5 2 2 5 4 7 5 5 2 2 6 5 9 0-8 4-13 12-14-8 0-12-5-13-13zm429 348c-3-3-3-6-5-10 0 9-6 11-11 13 5 3 11 6 12 14 0-8 4-12 12-13-3-2-6-2-8-4zM545 179c1-8 6-12 13-13-8-1-11-6-13-13 0 8-5 12-13 13 10 2 11 4 13 13zM310 791c0 8-5 12-13 13 9 1 13 5 13 13 2-3 1-6 4-9s6-3 9-4c-8-1-11-6-13-13zm432-84c0 8-6 11-13 13 8 1 12 6 13 14 1-9 5-13 13-14-8 0-12-5-13-13zM554 455c10-4 21-7 31-11-14-4-30 2-31 11zM345 723c0-2-1-4-4-4-2 0-4 2-4 4 0 3 2 4 4 4s5-2 4-4zm328-84c2 0 4-2 4-4s-2-5-4-4c-2 0-4 1-4 4 0 2 2 4 4 4zm118 14c-2 0-4 2-4 5 0 2 2 3 4 3s4-2 4-4-1-4-4-4zm-586 28c-2 0-4 2-4 4 0 3 2 4 4 4 3 0 4-1 4-4 1-2-1-4-4-4zm11 36c-2 1-4 2-4 5 0 2 2 4 4 4 3 0 4-2 4-4 1-3-1-5-4-5zm222-545c3 0 4-1 5-4-1-2-2-4-4-4-3 0-4 1-5 4 0 2 2 4 4 4zm105 85c0 3 1 4 4 4 2 0 4 0 4-3s-1-4-4-5c-2 0-4 2-4 4zm-57-79c3 0 4-2 4-4 0-3-2-4-4-4s-4 1-4 4c0 2 2 4 4 4zm182 486c0 2 2 4 4 4 3 0 5-2 5-5-1-2-2-3-4-3-3 0-5 2-5 4zm-354-3c-2 0-3 1-3 4-1 2 1 4 4 4 2 0 4-2 4-4s-2-5-5-4zm419-24c2 0 4-2 4-4 0-3-1-4-4-4-2-1-4 1-4 4 0 2 1 4 4 4zm-227-87c3-2 5-4 8-5-3-3-6-5-9-7 1 4 1 7 1 12zM384 205c1-1 3-2 3-3s-1-3-2-4h-2c-1 1-2 2-2 4 0 1 2 3 3 3zm260 453v-1c-1-1-2-3-4-3-1 0-2 2-3 4 0 1 2 2 4 3l3-3zM464 126c1-1 3-2 3-3 0-2-2-4-3-4-1 1-3 2-3 3-1 2 1 3 2 4h1zM200 705c-1 0-3 2-3 4 0 0 2 2 3 2s3-1 4-2v-2c-2 0-3-2-4-2zm126-408h-2c-1 1-2 3-2 4s1 3 3 3c1 1 3-1 3-3 0-1-2-3-2-4zm78-79c1 0 2-1 4-2v-2c-2-1-3-2-4-2s-3 2-3 3 2 3 3 3zm83 1c-2 0-3 1-4 2v1c1 1 2 3 3 3 2 0 3-2 4-3 0-1-2-3-3-3zm-92-7c1-1 2-3 2-4s-2-3-3-3-3 2-3 3 1 3 2 4h2zm124 509c-1 1-2 3-2 4s2 3 2 3c2 0 4-2 4-3s-2-3-2-4h-2zm250-60c-1 2-2 3-2 4s2 3 3 3 3-2 3-3-1-2-2-4h-2zm-36 43c1 0 2-2 3-3v-1c-1-1-2-3-4-3s-3 2-3 4c1 1 3 3 4 3zm-93 3c1 0 3-1 4-2v-1c-1-1-2-3-3-3s-4 2-3 3c0 1 1 3 2 3zm-294 52c-1 1-2 3-2 4-1 2 1 4 3 3 1 0 3-2 3-3 0-2-2-3-3-4h-1zm-46-2c1 0 2-1 4-2v-2c-2-1-3-2-4-2s-3 2-3 3 2 3 3 3zm462-41c0 1-2 3-2 4s2 3 3 3 3-2 3-3c0-2-1-3-2-4h-2zM313 589c1 0 3-2 3-3s-1-2-2-4h-1c-1 2-3 3-3 4s2 3 3 3zm343 202c-1 1-3 3-3 4s2 3 3 3 3-2 4-3v-1c-1-1-3-3-4-3zm-218-41c0 1-2 2-2 4 0 1 2 3 3 3 1-1 3-2 3-4 1-1-1-2-2-3h-2zm12-544c2-1 3-2 3-3 0-2-1-3-2-4h-2c0 1-2 2-2 4s1 3 3 3zm279 405c-1 0-3-2-4-2s-3 2-3 3 2 3 3 3 3-1 4-2v-2zm-458 91c-1 0-3 2-3 3s1 3 2 4h2c0-1 2-3 2-4s-2-3-3-3zm36-419c0 1 2 3 3 3s3-1 4-2v-2c-1 0-3-2-4-2s-3 2-3 3zM160 686c-1 0-3 2-3 3-1 2 1 4 3 3 1 0 2-1 4-2v-2c-2-1-3-2-4-2zm226-458c-1 2 1 4 3 3 1 0 2-1 4-2v-2c-2-1-3-2-4-2-2 0-3 2-3 3zm314 195h-10c1 2 2 3 4 5 2-2 3-3 6-5zm-341 85l24-6c-4-11-8-22-13-33-4 13-7 26-11 39z"/></svg>