<svg width="64" height="64" viewBox="0 0 1000 1000" xmlns="http://www.w3.org/2000/svg"><path d="M473 571c-1 6-3 11-6 15-5 4-10 6-16 6h-46c-6 0-11-2-15-6s-6-9-6-15V438h-79v140c0 18 3 34 11 47 7 13 18 23 31 30 14 6 29 10 48 10h78v-1c16 0 31-4 42-11 12-7 21-17 28-30 6-13 9-29 9-45V438h-79v133zM203 446c-14-6-29-9-46-8h-51l-20 2c-4 2-7 3-7 3V335H0v330h79V531c1-5 3-11 7-14 4-4 9-6 15-6h46c6 0 11 2 15 6 4 3 6 9 7 14v134h79V521c0-20-4-36-12-48-9-12-19-21-33-27zm410-111h79v330h-79zm387 103h-80v133c0 6-2 11-6 15-3 4-8 6-14 6h-47c-6 0-11-2-15-6s-6-9-6-15V438h-80v140c1 18 4 34 12 47s18 23 31 30c14 6 30 10 48 10h77v-1c17 0 31-4 44-11 11-7 20-17 26-30 7-13 10-29 10-45V438z"/></svg>