<svg width="64" height="64" viewBox="0 0 1000 1000" xmlns="http://www.w3.org/2000/svg"><path d="M422 489c-8-4-21-6-41-6-15-1-26-1-26-14s12-13 13-13c4-1 16-1 19 0 3 0 12 3 12 12v5h40v-10c0-26-14-39-50-40-23 0-32-1-48 4-16 4-28 17-28 39 0 20 4 38 24 45 10 3 31 4 37 5 9 0 26-1 26 14 0 14-10 14-22 14-8 0-25 1-25-14v-5h-40v8c0 9-1 39 36 43 34 3 58 0 70-4 17-6 24-22 24-42 0-26-7-34-21-41zm-204-66c-30 1-67 0-70 51-1 6-1 16-1 26s0 20 1 26c3 50 38 51 70 51s66-2 69-51c1-6 1-16 1-26s-1-20-1-26c-3-50-36-50-69-51zm27 92c0 16-3 29-27 28-24 1-28-12-28-28 0-6-1-11-1-15s1-8 1-14c0-17 5-29 28-28 24-1 27 11 27 28 0 6 1 10 1 14s-1 9-1 15zM0 463h46v112h44V463h44v-37H0v37zm635-37h42v149h-42V426zm318 0h-60l-46 149h44l8-28h49l8 29h44l-47-150zm-45 88l15-51 14 51h-29zm-95-17h1c4-1 22-7 23-28s-5-44-45-43h-81v149h77c40 0 51-14 52-40 0-21-11-34-27-38zm-60-37h26c12 0 15 4 15 12 0 9-5 13-13 13h-28v-25zm28 81h-28v-27h31c8 0 12 3 12 12 0 12-6 15-15 15zm-221-60h-48v-55h-43v149h43v-57h48v57h42V426h-42v55z"/></svg>