<svg width="64" height="64" viewBox="0 0 1000 1000" xmlns="http://www.w3.org/2000/svg"><path d="M836 271c-44 0-83 12-115 38-26-27-65-39-117-39-40 0-74 9-104 27-21-17-47-28-87-28-36 0-88 2-126 35-9-18-27-32-77-32-46 0-84 21-109 62C68 387-2 539 0 622c1 62 48 105 116 107 41 1 76-8 102-25 24 17 55 26 89 26 41 0 77-11 105-30 24 20 57 30 93 30 48 0 92-16 128-47 24 31 66 47 116 47 95 0 144-58 181-134 14-29 40-99 45-138 5-46 11-91-21-135-22-31-60-52-118-52zm116 147c-1 36-13 78-21 103-38 112-83 183-186 183-47 0-90-18-107-65-31 40-79 65-132 65-42 1-74-14-94-39-24 27-65 39-106 39-36 0-67-13-87-35-22 23-57 35-102 34-57-1-89-36-90-84-2-73 68-226 97-272 20-33 48-49 85-49 20 0 41 4 54 17 11 11 12 21 13 40 33-52 87-59 137-59 39 0 70 14 84 36 26-22 63-36 107-36 45 0 79 11 100 35 5 5 8 9 13 18 25-30 64-52 119-52 95 0 120 63 116 121zm23-148c-14 0-25 11-25 25s10 24 24 24 26-10 26-25c0-14-11-24-25-24zm-1 46c-11 0-20-9-20-21s9-20 20-20 21 9 21 20c0 12-9 21-21 21zm-139-11c-47 0-85 16-113 49l-7 9-5-10c-4-9-7-12-11-17-19-22-51-33-95-33-40 0-77 13-103 34l-6 6-5-7c-12-20-42-33-77-33-50 0-100 7-131 56l-13 20-1-24c0-18-2-26-11-35-9-10-25-15-48-15-34 0-60 15-79 46-28 46-98 196-96 268 1 47 32 75 83 76 42 1 75-9 97-31l5-5 5 5c19 21 48 32 82 32 43 0 79-13 100-36l6-6 5 6c20 25 51 37 88 37 50 0 96-23 127-62l8-10 4 12c19 52 71 60 101 60 99 0 142-68 179-178 9-27 19-68 21-101 1-25-2-59-26-84-18-20-46-29-84-29zM150 579c53-10 67 10 65 28-5 53-54 65-97 64-31-1-58-15-59-51-1-62 63-208 93-256 14-23 30-34 57-34 26 0 32 13 32 29-1 42-69 170-91 220zm173-49c-3 9-10 29-15 50 17-4 30-7 53-7 26 1 42 12 42 33 0 51-57 66-96 66-43 0-81-24-81-72 0-55 30-139 58-195 35-69 70-78 131-78 26 0 57 12 57 37 0 35-29 48-59 50-12 1-32 1-43 1 0 0-10 15-21 41 55-8 78 5 69 36-12 43-49 46-95 38zm329 5c-15 76-70 137-147 137-52 0-85-29-85-82 0-39 19-99 34-134 32-75 66-127 151-127 52 0 92 18 86 66-4 35-22 56-54 59-9 0-46-1-33-35 4-12 6-22-12-22-15 0-25 9-32 19-16 23-50 112-55 148-4 25 7 30 19 30 19 0 40-20 47-53 0 0-36-1-26-33 10-31 28-38 58-39 60-2 54 42 49 66zm263-75c-9 45-29 99-52 138-36 65-79 74-118 74-38-1-81-15-81-74-1-42 18-102 33-141 27-71 55-129 142-128 102 1 84 92 76 131zm63-163c4 0 7-3 7-7s-2-6-8-6h-13v25h7v-11c2 0 3 0 4 1s3 4 3 6l3 4h4l-2-6c-3-4-1-5-5-6zm-3-3h-4v-7h3c4 0 6 1 6 3s-1 4-5 4zM829 399c-9 0-17 1-24 12-15 20-60 143-59 167 0 9 5 17 16 17 12 0 19-9 25-19 14-24 54-133 55-160 1-8-1-17-13-17z"/></svg>