<svg width="64" height="64" viewBox="0 0 1000 1000" xmlns="http://www.w3.org/2000/svg"><path d="M942 495c-31 0-57 25-57 57s26 57 57 57 58-25 58-57-26-57-58-57zm-463-56h-1v-1c0-29-23-53-51-53-29 0-52 24-52 53v260c1 29 24 52 52 52s51-23 51-52h1V439zM305 668l-95-127 68-67h-1c9-10 14-22 14-36 0-29-23-53-52-53-15 0-29 7-38 18v-1l-97 95V305h-1v-3c0-29-22-52-51-52-28 0-51 23-51 52v2H0v393h1v1c0 29 23 52 51 52 27 0 49-22 51-49h1v-68l26-24 86 115c9 15 26 26 45 26 28 0 51-24 51-53 0-10-3-20-8-28l1-1zm551 0l-94-127 67-67c9-10 14-22 14-36 0-29-23-53-52-53-15 0-29 7-38 18v-1l-97 95V305h-1v-3c0-29-23-52-51-52s-51 23-51 52v2h-1v393h1v1c0 29 23 52 51 52 27 0 49-22 51-49h1v-68l26-24 86 115c9 15 25 26 44 26 29 0 52-24 52-53 0-10-3-20-8-28v-1z"/></svg>