<svg width="64" height="64" viewBox="0 0 1000 1000" xmlns="http://www.w3.org/2000/svg"><path d="M1000 273H0v4c6 12 7 26 10 39 28 133 57 266 85 400 1 7 2 9 9 5 129-64 259-57 388-1 7 3 12 3 19 0 63-28 129-43 198-43 67 0 130 14 188 49 1 1 2 1 4 1 9-41 18-83 27-124l72-328v-2zM263 546c-5 7-18 2-28 2-34 0-68 0-102 1-7 0-10-2-9-10v-65-66c-1-7 2-9 8-9 14 1 27 1 41 0 6 0 7 3 7 9v94c0 7 2 9 9 9 22-1 45 0 67-1 7 0 10 1 9 8-1 10 4 22-2 28zm175-71c-1 7-3 8-9 8h-92c-6 0-8 1-7 7 2 13 10 23 21 26 16 4 31-1 38-12 2-3 4-5 8-5 11 1 23 1 34 0 6 0 7 2 5 7-5 20-17 34-36 40-28 10-56 10-84 1-34-12-53-44-48-83 5-42 31-66 75-69 13-1 26 0 39 3 35 10 57 41 56 77zm171-67c-21 44-43 88-63 133-3 6-7 8-13 8-13-1-28 4-37-2-8-7-11-21-17-32-19-38-37-76-57-117 21 0 41 1 60 0 6 0 6 4 8 8 12 26 24 52 36 79 3-4 5-8 6-11 11-23 21-45 31-68 3-6 6-8 12-8 12 1 24 0 36 0 1 5-1 7-2 10zm69 133c0 6-1 7-7 7h-42c-6 0-8-2-7-7v-68-68c-1-5 1-7 7-7h42c5 0 7 2 7 7v136zm51-135c0 9-17 27-26 27 1-4 2-8 3-11 4-12 4-12-8-14-3-1-5-1-5-5v-3c1-8-4-21 2-25 8-4 20-1 31-1 4 0 3 3 3 6 1 8 1 17 0 26zm134 132c-18 11-38 13-59 13-14 0-29-1-42-7-17-7-27-18-29-37-1-5 0-7 6-7 11 1 23 1 34 0 4 0 6 1 7 5 5 14 27 20 38 12 4-3 5-6 5-10-1-4-4-6-8-7-11-4-23-5-34-8-7-1-15-3-21-6-32-15-36-55-8-76 26-19 79-20 106-3 9 6 16 14 19 26 2 6 1 8-6 8-6-1-13 0-19 0-8 0-16 1-22-8-5-8-27-9-36-3-2 1-5 3-4 7 0 4 3 6 6 8 9 4 19 4 28 6 10 2 21 4 31 8 15 6 26 16 28 33 2 19-4 35-20 46zM359 428c0-1-1-1-1-1-12-2-21 3-25 16 0 2-1 4-1 5v3c-1 0-1 1 0 1 0 4 3 4 11 4l10 1h16c3 0 5-1 5-5v-2c0-10-6-20-15-22z"/></svg>