<svg width="64" height="64" viewBox="0 0 1000 1000" xmlns="http://www.w3.org/2000/svg"><path d="M223 502c-4-24-16-46-24-70-9-25-21-51-24-77-6-70 34-112 97-143-78-52-156-90-242-111-24-5-32 1-30 24 1 10 2 21 3 32 9 78 17 157 26 236 9 82 18 164 29 246 1 9 14 22 22 22 82 3 156-78 143-159zm755 130c-19-18-40-33-59-51-16-15-31-15-51-5-69 38-144 59-224 55h-35c-65-1-81 15-85 80-3 58-3 116-35 168-3 5-3 15 0 19 3 3 13 4 18 2 13-5 26-11 39-17 141-66 282-132 424-198 38-18 39-23 8-53zm-388-31c12 0 23 2 35 3 85 2 164-15 242-63-123-72-247-118-385-118-53-58-105-117-158-175-7-7-22-10-32-8-60 13-98 77-80 136 8 28 22 55 32 83 23 65 16 125-37 175-2 2-4 6-4 7 72 24 113-12 152-67 36-51 81-97 122-146-28 82-56 163-84 245-3 10-7 25-3 33 25 46 52 91 80 140 4-12 10-22 12-33 5-41 10-82 13-123 4-63 32-90 95-89z"/></svg>