<svg width="64" height="64" viewBox="0 0 1000 1000" xmlns="http://www.w3.org/2000/svg"><path d="M980 122c0-63-35-104-98-108C762 7 642 0 522 0 389 0 256 8 123 14 63 16 18 51 20 120c5 154 9 309 15 463 1 28 7 57 13 86 16 76 67 127 132 163 101 56 203 109 304 164 13 7 22 4 33-2 98-52 196-103 292-156 63-35 120-79 138-153 12-51 19-104 22-156 6-87 6-174 9-261h2V122zm-42 4c-4 156-11 311-16 467-3 99-50 168-137 213-90 47-178 96-267 143-9 4-24 5-33 1-92-48-184-97-275-146-85-45-129-114-133-209-5-159-11-317-16-475-1-45 12-59 56-66 29-4 60-3 90-5 98-4 196-8 290-12 127 5 250 9 372 15 53 3 71 21 69 74zM699 413c-4-24 7-43 28-45 20-2 33 13 33 38 0 5-1 10-2 15-5 35-12 70-17 106-1 8 0 21 4 23 8 4 20 2 27-2 10-6 20-15 25-25 18-37 33-74 50-111 2-6 6-13 9-19 4-7 12-14 12-20-2-47-18-88-64-107-49-20-94-9-134 25-40 35-64 81-80 134 25 7 26 23 21 45s-13 36-36 42c-22 7-27 21-22 52 11-8 23-16 37-26 4 27-3 42-26 49-8 3-18 15-19 23-6 37-10 75-14 118-20 14-45 12-72-6 18-40-1-79-5-117-1-7-12-16-19-18-25-7-29-23-28-50 16 11 28 20 42 30-5-23 3-47-28-57-39-13-46-60-12-87-17-50-39-95-77-130-39-34-85-47-134-28-47 19-65 61-69 109 0 6 3 17 5 17 21 0 18 18 21 29 13 46 29 89 64 121 8 8 23 8 35 11 1-11 5-21 4-31-3-19-9-37-12-55-3-22-7-44-6-65 1-25 16-37 36-33 17 4 29 24 25 44-10 53-3 69 45 89 17 8 25 19 29 36 9 34 14 71 31 102 19 36 38 71 44 112 1 9 9 23 18 26 45 19 78-1 87-49 3-16 5-34 14-46 32-44 46-94 55-147 3-17 11-26 27-33 48-20 58-39 48-89zm-375-8l8-2c11 26 22 52 36 83-47-13-56-35-44-81zm317 79l-6-5 35-77c19 48 8 71-29 82zm221-59c-10 51-23 101-54 144-11 16-26 31-42 39-33 18-61-4-57-41 1-4 1-8 2-11-2-1-4-2-5-2-3 8-6 16-8 24-13 55 20 91 74 81 41-7 65-35 81-71 23-51 30-106 30-161 0-8-4-15-6-23-5 7-13 13-15 21zM296 556c-3 33-8 48-25 55-20 8-44 1-63-21-9-9-19-19-23-31-17-45-32-92-48-137-2-7-8-13-13-19l-8 4c0 72 5 143 45 206 20 32 50 50 90 47 33-2 56-27 54-60-1-15-6-30-9-44zm100-326c32 30 56 68 87 106 2-15 11-34 5-45-35-71-86-124-171-129-60-4-109 17-144 66 3 0 5-1 8-3 69-54 150-54 215 5zm249-28c63-29 122-19 176 23-19-32-54-54-94-61-83-14-154 23-205 104-16 25-13 45 1 71 31-57 63-110 122-137z"/></svg>