<svg width="64" height="64" viewBox="0 0 1000 1000" xmlns="http://www.w3.org/2000/svg"><path d="M983 309c-1 68-17 133-44 196-39 92-96 171-166 242-64 65-135 122-211 172-43 28-87 53-135 68-28 9-56 14-85 13-36-1-62-19-81-49-20-30-24-64-16-98 16-66 43-125 91-174 24-24 53-40 88-42 24-2 46 2 66 16 4 3 7 6 10 10 10 11 14 24 9 39-7 26-23 46-41 66-31 33-62 66-92 101-16 18-28 38-33 63-3 19 7 32 26 34 11 1 21-1 31-5 59-23 111-56 161-95 66-52 127-109 180-174 45-54 79-114 97-182 12-44 15-89 1-133-5-16-13-31-24-45-15-22-38-31-64-33-32-2-62 8-92 21-44 19-86 44-126 71-69 46-136 93-201 145-29 23-58 48-90 67-24 15-48 27-76 32-54 8-95-14-126-57-23-32-26-68-19-106 7-44 28-83 53-119 48-73 110-132 180-184 83-62 174-111 274-144C576 9 626-2 677 0c65 2 126 18 181 54 66 43 103 106 118 182 4 24 7 47 7 73z"/></svg>