<svg width="64" height="64" viewBox="0 0 1000 1000" xmlns="http://www.w3.org/2000/svg"><path d="M500 851c-18 0-37 8-51 21-13 13-21 32-21 51 0 18 8 37 21 51 13 13 31 21 51 21 19 0 37-8 51-21 14-14 22-32 22-51s-8-37-22-51c-14-13-32-21-51-21zm0-424c-18 0-37 8-51 22-13 13-21 32-21 51 0 18 8 37 21 51 13 13 31 20 51 21 19 0 37-8 51-21 14-14 22-32 22-51s-8-37-22-51-32-22-51-22zm0-422c-18 0-37 7-51 20-13 14-21 32-21 51s8 37 21 51c13 12 31 20 51 21 19 0 37-8 51-21s22-32 22-51c0-18-8-37-22-51-14-12-32-20-51-20zm3 211c-19-1-38 6-51 19-14 12-22 30-23 49 0 20 7 38 19 52 12 13 30 22 50 23 19 0 38-7 51-19 15-13 23-31 24-50 0-19-7-38-20-51-13-14-31-22-50-23zm-3 423c-18 0-37 8-51 21-13 14-21 32-21 51s8 37 21 51c13 13 31 21 51 21 19 0 37-8 51-21 14-14 22-32 22-51 0-18-8-37-22-51s-32-21-51-21zm212-212c-19 0-37 8-51 22-14 13-22 32-22 51 0 18 8 37 22 51 13 13 32 20 51 21 18 0 36-8 50-21 14-14 22-32 22-51s-8-37-22-51-32-22-50-22zm0-211c-19 0-37 7-51 21-14 13-22 32-22 50 0 19 8 37 22 51 13 14 32 22 51 22 18 0 36-8 50-22 14-13 22-32 22-51 0-18-8-36-22-50-14-13-32-21-50-21zm0 423c-19 0-37 8-51 21-14 14-22 32-22 51s8 37 22 51c13 13 32 21 51 21 18 0 36-8 50-21 14-14 22-32 22-51 0-18-8-37-22-51s-32-21-50-21zm211-212c-18 0-37 8-51 22-13 13-21 32-21 51 0 18 8 37 21 51 13 13 31 20 51 21 19 0 37-8 51-21 13-14 21-32 21-51s-7-37-21-51c-13-14-32-22-51-22zm-635 0c-18 0-37 8-51 22-13 13-21 32-21 51 0 18 8 37 21 51 14 13 32 20 51 21 18 0 37-8 51-21 13-14 21-32 21-51s-8-37-21-51c-14-14-33-22-51-22zm0-211c-18 0-37 7-51 21-13 13-21 32-21 50 0 19 8 37 21 51 14 14 32 22 51 22 18 0 37-8 51-22 13-13 21-32 21-51 0-18-8-36-21-50-14-13-33-21-51-21zm0 423c-18 0-37 8-51 21-12 14-20 32-20 51s7 37 20 51c14 13 32 21 51 21 18 0 37-8 51-21 13-14 21-32 21-51 0-18-8-37-21-51-14-14-33-21-51-21zM77 427c-18 0-37 8-51 22-13 13-21 32-21 50 0 19 8 37 21 51 13 13 31 20 51 21 19 0 37-8 51-21s22-32 22-51c0-18-8-37-22-51-14-13-32-21-51-21z"/></svg>