<svg width="64" height="64" viewBox="0 0 1000 1000" xmlns="http://www.w3.org/2000/svg"><path d="M498 62C260 62 63 258 63 498c0 241 202 440 440 440 239 0 435-201 435-441 0-241-201-435-440-435zM136 636s-57-145 8-299l186 512s-126-51-194-213zm255 236l116-341 121 335s-115 48-237 6zm163-560s21 0 38-2c0 0 25 2 20-23 0 0-2-12-28-8 0 0-74 6-180 0 0 0-34-7-32 15 0 0-6 20 57 18l59 168-85 257-141-423s44-2 49-6c0 0 14-4 8-22 0 0-1-10-35-7l-109 2s101-174 326-177c0 0 147-5 263 104 0 0-82-4-68 89 0 0 3 23 32 66 0 0 34 58 32 83 0 0 12 52-23 143l-42 143-141-420zm142 524l126-370c34-79 20-156 20-156 90 170 23 326 23 326-54 139-169 200-169 200z"/></svg>