<svg width="64" height="64" viewBox="0 0 1000 1000" xmlns="http://www.w3.org/2000/svg"><path d="M969 678c0-1 0-1 0 0zm0 0v0zm-12-154c-17-5-33-13-49-20-19-9-37-18-59-19-2 0-5-2-6-4-4-8-7-16-11-25 5-1 8-2 10-2 21-4 38 3 56 12 14 8 28 16 43 22 19 8 37 7 54-5 2-2 5-6 5-9-1-10-2-21-3-32-8-68-28-132-62-192-47-80-112-141-191-187C662 14 571-3 476 0c-82 4-158 26-229 68-95 56-163 136-206 237C18 357 5 412 0 469c-1 9 3 14 12 18 21 8 41 4 60-5 15-7 30-15 45-22 13-6 26-9 41-8 9 1 11 5 7 14-1 2-3 4-4 7-2 11-10 12-19 13-8 2-17 4-25 7-17 7-32 16-49 24-18 7-36 11-56 7-4-1-7-2-11-3 1 12 3 22 2 33 0 9 5 11 13 12 18 2 34-3 50-11 14-7 29-14 44-20 9-3 19-3 32-5-3 11-4 20-7 28 0 2-4 5-7 6-15 6-31 10-45 17-23 11-44 26-72 25 3 10 6 20 8 29 1 5 3 7 7 6 10-2 21-4 30-8 12-5 23-13 34-18 11-4 22-6 33-8 1-1 6 2 6 4 0 7 0 14-1 20 0 2-3 4-5 5-11 4-22 7-32 12-19 11-36 24-59 27v8c3 26 13 31 36 18 11-6 21-14 33-19 6-4 14-6 22-7 2 0 8 3 9 6 1 7 2 15 2 23 0 1-3 1-4 2-11 4-22 7-32 12-12 7-24 15-36 23 2 6 4 12 8 18 5 9 9 10 18 5 18-10 34-23 56-24-2-10-3-20-4-30 22 1 29 0 42-8 10-7 21-15 31-23 2-2 3-4 3-7 5-13 7-27 14-39 10-20 21-40 33-59 13-20 15-41 12-63-4-19-8-39-12-59-8-40 2-76 25-109 5-7 12-13 22-15-1 1-1 3-2 3-18 25-25 52-25 82 0 29 6 56 16 83 9 23 8 45-4 66-9 16-20 31-29 47-8 15-17 30-21 46-8 26 0 51 12 75l12 21c-16 13-31 25-48 36-8 6-18 11-28 14-23 7-27 5-35-18-3-10-5-11-16-10-18 3-32 14-47 23 7 8 12 15 18 22 3 4 5 4 9 2 7-4 13-9 21-11 6-2 14-2 21-1 6 1 13 11 12 17-1 8-8 7-13 9-6 1-13 2-18 5-9 3-10 6-4 13 2 3 5 5 7 7 13 13 13 12 29 5 4-1 7-3 10-3 4 1 8 2 11 4 4 3 6 8 8 11 3 4 3 7-2 10-5 2-10 6-15 9 15 15 30 27 48 35 7-13 13-25 20-37s15-23 22-35c8-13 14-27 15-42 0-8 2-15 3-22 4 2 5 4 6 6 9 19 8 37-2 54-9 15-18 28-27 43-8 12-16 25-17 41 0 3 1 6 3 8 7 4 15 9 24 14 0-26 11-46 23-65 10-15 20-31 29-47 10-19 9-39-2-58-6-12-13-22-21-33-10-14-21-26-30-40-15-24-17-50-5-76 10-18 22-36 35-52 20-24 27-51 18-81-6-18-12-37-18-55-7-20-11-40-6-61 5-17 11-35 19-51 6-12 17-21 26-32 3-3 7-4 11-6-1 3-2 6-4 8-26 36-38 77-29 122 4 20 15 38 23 57 15 33 14 63-9 92-11 14-22 30-31 45-22 38-19 72 8 105 10 13 20 25 30 37 11 15 17 30 17 48 0 21-6 41-17 58-10 16-20 32-29 48-7 13-9 27-7 42 0 3 1 8 3 8 10 4 20 7 32 11-8-30 0-55 14-79 8-13 16-26 23-39 21-39 19-75-10-109-10-12-20-24-29-37-20-29-22-59-4-89 9-16 20-31 31-45 14-20 20-42 14-65-5-20-13-39-21-58-10-25-18-50-15-78 3-35 16-65 45-87 3-2 6-3 9-5-4 8-9 14-13 21-7 13-14 25-18 39-10 31-3 62 9 91 8 22 18 44 27 67 8 20 7 39-2 58-5 10-10 19-16 28-7 12-15 23-22 35-16 30-16 59 6 86l24 30c30 37 35 77 12 119-8 14-16 29-24 44-8 16-14 32-12 50 4 35 0 37 38 38 0 0 1-1 2-1-18-36-7-69 9-102 9-19 19-37 27-57 11-26 8-51-7-74-4-6-9-12-13-18-12-16-24-32-35-49-11-16-12-35-3-53 7-12 15-24 22-36 7-11 15-23 20-35 8-19 14-23 32-16s36 7 54 1c6-2 13-3 20-3 6 0 11 3 14 9 6 11 12 23 19 33 8 13 18 24 25 36 12 19 13 39 4 58-8 15-18 29-28 44-10 13-21 26-29 41-12 21-12 43-1 65 9 16 18 33 26 50 17 34 28 69 11 108 11-3 21-5 30-7 3-1 5-4 6-7 5-16 6-32 2-48-5-23-17-42-28-63-6-12-14-24-18-38-9-24-2-48 12-69 11-18 25-34 37-52 6-9 12-18 15-28 6-22-1-43-13-62-9-16-21-30-30-46-5-8-9-17-12-27-5-22 2-42 11-62 9-19 19-38 25-57 18-51 9-98-26-139l-4-5c4 0 7 1 9 3 41 33 57 74 46 125-5 23-15 45-22 68-3 11-6 21-10 32-7 22-3 43 10 62 10 14 20 26 30 40 9 12 16 26 17 42 3 22-5 41-18 58-11 16-23 31-35 47-20 26-23 54-9 84 8 17 19 33 28 49 9 17 18 33 19 52 1 9 1 19 1 29 7-3 16-6 24-8 5-2 6-4 7-9 2-20-4-38-13-54-10-16-20-31-29-46-9-14-13-29-12-45 1-18 8-35 19-50 11-17 24-33 36-50 5-9 9-18 12-28 6-25-3-47-15-68-12-19-24-38-37-57-8-12-12-26-9-40 2-14 6-27 11-40 4-13 12-24 16-37 14-51 5-98-25-141l-4-6 2-3c8 7 17 13 23 21 26 34 39 71 29 114-6 26-14 52-22 78-4 16-3 31 3 46 5 11 11 21 17 30 9 14 20 28 29 42 17 28 17 56 0 84-12 19-24 37-38 54-25 30-28 53-9 87 8 15 17 28 25 42 11 18 21 37 22 60 7-3 13-5 19-8s9-8 6-15c-4-9-6-19-11-28-8-14-17-27-26-40-13-17-15-36-13-56 1-6 4-12 6-18 1 0 3 0 4 1 0 2 0 4 1 7 3 14 3 29 9 41 16 30 34 59 51 89 16-10 33-19 47-34-6-3-10-6-15-9-7-4-8-7-4-14l6-8c3-5 7-5 12-3 6 3 13 5 20 7 2 1 5 1 6 0 9-7 18-14 24-26-12-5-22-9-32-13-2-1-5-3-6-4-2-9 9-21 18-19 12 3 24 8 37 12 2 1 7 2 8 0 7-7 13-15 19-24-17-9-33-16-48-24-7-3-12-1-15 6l-6 18c-3 7-7 11-15 8-11-4-24-6-34-12-17-11-33-25-49-37-2-2-3-7-2-9l12-24c9-15 12-32 11-49-2-22-11-41-23-59l-31-50c-7-11-11-24-9-37 3-18 8-36 12-54 6-23 11-47 9-71-3-24-12-45-22-66-1-3-3-6-5-11 13 8 24 15 30 27 21 45 27 92 9 140-10 27-9 53 6 78 8 15 19 28 27 43 8 14 16 29 19 44s10 25 21 33c2 1 3 2 4 3 15 13 31 23 53 18-1 11-3 21-4 32 17 0 31 8 46 16 5 3 11 6 17 9 2 0 6 0 7-1 4-7 9-14 12-21 1-2-1-6-2-7-25-10-44-32-73-34 1-6 2-11 3-16 3-12 3-13 15-10 6 1 12 3 18 6 9 4 18 9 26 14 30 15 32 19 44-19-16-8-30-14-44-21-17-8-34-15-50-23-2-1-4-3-4-4-1-6-1-12 0-17 0-6 3-9 9-7 13 4 26 8 38 13 17 8 33 16 50 23 9 4 14 1 16-9 2-8 2-17 3-23-15-6-29-10-43-15-10-4-19-10-28-16-14-8-29-15-46-16-2-1-5-2-5-4-2-8-4-17-5-26 16-3 30 0 43 6 14 6 27 13 40 19 15 7 31 11 47 8 3-1 7-4 7-7 2-12 3-25 3-35-15-1-30 2-43-1zM271 331c-30 20-53 46-75 75-2 3-5 6-8 5-29-4-56 6-82 18-12 5-23 12-35 16-17 6-35 7-52-4 8-13 16-25 23-37 19-28 37-55 48-87 7-22 10-44 8-67-1-4 1-8 1-13 5 2 11 2 15 5 23 17 37 41 43 70 1 5 2 10 3 17 8-3 16-6 23-9 22-8 43-15 66-14 13 0 26 3 38 12-6 5-11 10-16 13zm147 25c14-2 28 1 38 11 2 2 3 6 5 8l-2 2-23-5c-7-2-14 0-20 5-5 5-9 3-11-4-2-11 2-16 13-17zm178-26c1 2 0 5 1 8h-47c-5 0-9 2-13 3-16 5-24 14-25 31-1 11 0 22 2 32 0 3 3 7 6 8 2 1 6-3 8-5 5-10 11-11 21-8 11 3 23 4 34-1 6-3 10 1 11 6 2 6 4 13 3 19-5 31-15 61-36 85-6 7-12 12-19 17-26 20-61 20-87 0-36-28-55-65-55-111 0-5 2-9 5-13 2-5 8-7 13-4 8 5 17 5 25 3 9-2 19-4 28 1 1 1 6 0 6-2 3-5 5-11 5-17 0-8-1-17-3-26 0-3-2-6-5-8-8-8-18-11-28-11-9-1-18-1-28 0-9 0-13-5-8-14 8-17 21-29 39-37 24-9 48-10 73-7 15 2 30 7 43 13 17 7 26 21 31 38zm-3 47c0 1-6 1-9 0-14-5-28-9-43 0-2-7-3-12 3-14 13-5 27-9 41-5 3 1 7 3 8 6 2 4 1 9 0 13zm113-130c-8 17-13 35-20 54-57-24-118-44-184-43s-128 18-187 46c-6-19-12-37-20-54s-18-33-29-51c29-3 52 12 78 21 2-25-12-44-21-68 7 1 14 0 19 2 18 7 35 15 53 24 12 7 24 15 38 23 4-7 8-13 11-21 5-11 8-23 11-35 1-2-1-7-3-9-12-11-25-22-37-34-2-2-4-4-7-9 13-1 23-1 33-2s22 2 30-3c7-5 9-18 14-27 4-10 9-20 13-30h4c5 12 12 24 16 37 4 16 12 23 29 21 14-1 27 2 43 3-3 4-4 8-7 10-12 11-24 23-36 34-4 4-5 6-2 11l21 51c28-16 54-35 86-44 6-1 12-2 19-3h4c-4 23-19 42-18 66 26-7 48-22 77-21-10 18-20 34-28 51zm109 166c-3 0-7-2-8-4-24-35-52-65-89-86l-1-1c1-9 8-11 15-13 26-6 52-2 76 8 11 4 21 9 32 14 3-11 5-22 9-32 7-26 23-46 46-59 3-1 8-2 9-1 3 2 5 7 4 10-8 44 5 82 27 118l39 60c2 4 5 8 8 13-13 10-28 12-43 8-13-4-26-9-37-16-27-15-56-22-87-19zM495 178c-15 11-29 22-43 32 2 8 6 9 12 9 25-1 50-1 75-2 3 0 5-2 8-3v-3c-15-11-31-22-47-33-1-1-4-1-5 0zm-3 322c18 3 35-8 47-29h-79c1 7 22 27 32 29zm-8-66c-4 1-8 3-13 5 18 12 33 13 51 0-6-2-10-4-15-5h-23z"/></svg>