<svg width="64" height="64" viewBox="0 0 1000 1000" xmlns="http://www.w3.org/2000/svg"><path d="M139 696V298h135c8 61 17 122 26 183h1c7-61 15-122 23-183h136v398h-91V433h-1c-12 88-23 176-35 263h-65l-38-260v260h-91zm356-398h104c22 0 44 1 66 6 16 3 31 9 42 22 12 11 19 26 20 42 2 18 3 36 3 54v165c0 18-1 36-3 53-4 28-20 44-46 51-13 4-26 5-39 5-26 1-52 1-79 1h-68V298zm104 330c5-1 11-1 16-2 8-2 12-7 13-14 1-9 3-19 3-28V419c0-11-1-22-1-33 0-7-2-13-9-17-7-3-15-3-23-3l1 262zm266-330v128l1 1c1-2 3-4 4-5 13-13 29-20 47-22 16-2 31-1 46 4 20 8 32 21 35 41 2 10 2 20 2 29v146c0 12-2 24-4 36-6 22-21 36-43 42-32 9-61 3-85-23-1-1-2-2-3-4-2 8-4 15-5 22-1 3-2 4-5 4h-90V298h100zm0 256v56c1 8 1 16 3 24 1 6 5 9 10 9 3 1 7 0 11-1 5-1 9-5 9-11 1-9 2-18 2-27V501c0-9-1-18-1-27-1-11-5-15-15-17-9 0-16 1-17 13-1 7-2 14-2 21v63zM0 298h103v398H0V298z"/></svg>