<svg width="64" height="64" viewBox="0 0 1000 1000" xmlns="http://www.w3.org/2000/svg"><path d="M178 428c-4 0-8 2-10 4-3 3-4 8-4 13v110c0 5 1 9 4 12 2 3 6 5 10 5s8-2 10-5c3-2 4-7 4-13V445c0-5-1-10-4-13s-6-4-10-4zm750 0c-39 0-71 32-71 72s32 72 71 72c40 0 72-33 72-72s-32-72-72-72zm0 115c-23 0-42-20-42-43 0-24 19-43 42-43s43 19 43 43-19 43-43 43zM606 428c-39 0-71 32-71 72s32 72 71 72c40 0 72-33 72-72s-32-72-72-72zm0 115c-23 0-42-20-42-43 0-24 19-43 42-43 24 0 43 19 43 43s-19 43-43 43zm158-115h-38c-6 0-11 2-13 4-3 3-4 8-4 14v108c0 6 1 11 4 13 2 3 7 5 13 5h38c23-1 43-12 56-30 9-12 14-26 14-42s-5-31-14-42c-13-18-33-29-56-30zm41 72c0 9-3 17-8 24-7 10-17 17-30 18-3 1-7 1-11 1h-19v-86h19c4 0 8 1 11 1 12 1 23 8 30 18 5 7 8 15 8 24zm-311-71c-5-2-11 0-14 5l-43 66-43-66c-3-5-9-7-14-5-5 1-9 6-9 12v117c0 7 6 13 12 13 7 0 13-6 13-13v-75l30 47h1v1h1v1h1l1 1 1 1h1c1 1 2 1 4 1h2c1 0 3 0 4-1h1s0-1 1-1l1-1h1v-1l1-1v-1l31-46v75c0 7 5 13 12 13s13-6 13-13V441c0-6-4-11-9-12zM329 542h-66l74-86c4-5 5-15 1-19-5-5-10-6-15-6h-84c-7 0-13 5-13 12s6 13 13 13h62l-76 89c-4 5-4 11-2 16s8 8 13 8h93c7 0 12-6 12-14 0-7-5-13-12-13zm-212-54H83c-8 0-14 7-14 14s6 14 14 14h20v20c-6 4-16 8-31 8-27 0-41-23-41-43 0-34 24-46 41-46 19 0 33 10 34 10 6 4 14 2 18-4s3-15-3-19c-1 0-21-14-49-14S0 448 0 501c0 17 7 35 19 48 13 15 32 23 52 23 26 0 46-11 55-20 3-2 4-6 4-9v-41c0-7-6-14-13-14z"/></svg>