<svg width="64" height="64" viewBox="0 0 1000 1000" xmlns="http://www.w3.org/2000/svg"><path d="M1000 487c0 269-220 487-491 487-86 0-167-22-237-60L0 1000l89-261c-45-74-71-160-71-252C18 218 238 0 509 0s491 218 491 487zM509 77C282 77 96 261 96 487c0 90 30 173 79 240l-52 152 159-50c65 43 143 68 227 68 228 0 413-184 413-410S737 77 509 77zm248 522c-3-5-11-8-23-14s-71-35-82-38c-11-4-19-6-27 6s-31 38-38 46-14 9-27 3c-12-6-50-18-96-59-36-32-60-71-67-83s-1-18 5-24c5-5 12-14 18-21s8-12 12-20 2-15-1-21-27-64-37-88-20-20-27-20-15-1-23-1-21 3-32 15-42 41-42 99c0 59 43 116 49 124s83 132 205 180 123 32 145 30 71-29 81-57 10-52 7-57z"/></svg>