<svg width="64" height="64" viewBox="0 0 1000 1000" xmlns="http://www.w3.org/2000/svg"><path d="M955 725c-82 144-238 242-416 242-263 0-477-214-477-477 0-88 24-169 65-240h-1 1c0-1-1-2-2-2 0 0 0 1-1 1-53 77-82 170-82 271 0 265 215 480 481 480 193 0 357-110 434-274v-1s0-1-1-1l-1 1zM552 572l13-84h-8l9-83h-9l12-84h-11l9-83c33 43 54 128 60 193 28-50 18-165-10-212 50 28 105 103 137 181 18-73-38-177-98-222 58 11 134 56 207 143-24-116-138-186-206-200 75-8 148 16 214 48C799 86 691 57 620 65c12-13 23-20 41-25-30-14-77-7-95 14 0 0-4-39-26-54v581l12-9zM423 121c-68 14-182 84-206 200 73-87 149-132 208-143-60 45-116 149-99 222 32-78 87-153 138-181-29 47-38 162-11 212 7-65 28-150 60-193l10 83h-11l11 84h-9l10 83h-8l12 84 5 3-5-3-39 20v3h103v-3l-40-20-12 9V0c-22 15-25 54-25 54-19-21-66-28-96-14 18 5 30 12 42 25-72-8-180 21-251 104 66-32 138-56 213-48zm535 463c-90-94-266-5-395 72-8 5-15 10-23 14-7-4-15-9-22-14-129-77-306-166-396-72 103-41 256 35 381 110-36 24-69 48-99 68-48-46-66-39-70-38-5 2-8 7-9 12 0 7 6 13 12 13 7 0 13-5 13-12v-3c13 8 26 19 57 51 50 53 61 52 71 52 7-1 12-6 12-13s-5-13-12-13-13 6-13 13v1c-9-6-18-18-36-38 30-18 68-43 111-70 43 27 82 52 112 70-19 20-28 32-37 38v-1c0-7-6-13-12-13-7 0-13 6-13 13s6 12 13 13c10 0 20 1 71-52 31-32 43-43 56-51v2c0 8 6 13 13 13 6 0 12-6 12-13 0-5-4-10-8-12-5-1-23-8-70 38-30-21-64-44-100-68 126-75 279-151 381-110zM274 814c-4-2-8-3-10-1s-1 6 2 10c16 18 51 28 140-22l-23-26c-48 31-86 49-109 39zm532 0c-23 10-61-8-108-38l-24 25c90 50 124 40 140 22 4-4 5-7 3-10-3-2-6-1-11 1z"/></svg>