<svg width="64" height="64" viewBox="0 0 1000 1000" xmlns="http://www.w3.org/2000/svg"><path d="M1000 750c-3-12-12-15-23-18-90-19-147-78-189-156-21-40-14-57 30-73 22-8 46-14 64-30 23-20 20-46-6-62-16-9-33-10-50-4-10 3-20 8-30 10-19 4-29-1-27-23 3-29 4-58 6-87 0-30-1-61-10-91-29-95-95-155-191-176-110-25-209-4-289 82-62 68-64 152-58 236 4 68 5 68-60 50-25-8-54 2-62 23-11 27 7 42 28 52 21 11 44 18 66 27 21 10 31 27 20 49-39 83-95 146-186 171-13 4-31 2-33 22-1 18 11 28 25 36 25 16 55 22 84 27 19 3 28 9 32 29 8 40 14 45 55 36 63-13 117-1 167 40 31 25 67 41 106 48 65 10 120-12 169-50 38-28 79-48 128-42 17 2 34 4 51 7 21 4 37-3 38-24 3-34 22-43 52-47 28-4 56-13 79-32 9-7 16-17 14-30zm-20 6c-30 26-62 33-93 37-29 4-48 15-50 47-1 18-9 24-28 19-66-14-126-2-182 39-91 68-164 68-255 1-57-42-117-55-184-39-15 4-24 1-25-16-2-35-23-48-56-52-30-3-60-11-87-36 100-22 164-82 209-166 30-57 18-87-44-109-15-5-29-10-43-17-9-5-24-11-17-25 7-12 20-17 35-11 14 5 29 11 44 13 35 5 48-10 47-44-2-41-2-81-3-121-3-94 70-177 148-206 123-46 260-6 324 97 20 31 31 65 31 103 0 43 1 86-4 129-4 31 13 46 44 41 15-2 29-8 44-13 17-6 33-1 39 14 5 13-11 20-22 25-18 8-38 14-56 22-41 18-53 48-33 89 45 90 110 156 217 179z"/></svg>