<svg width="64" height="64" viewBox="0 0 1000 1000" xmlns="http://www.w3.org/2000/svg"><path d="M504 0c280 2 506 235 496 518-9 267-233 487-509 482C221 995-8 774 0 485 8 215 229-1 504 0zm46 182c20-51 1-90-52-105-27-7-55-9-82-4-89 16-167 53-234 113-47 43-83 93-97 155-11 47 14 91 59 107 26 12 53 16 82 11 40-6 75-24 109-46 68-44 127-100 176-165 16-21 30-42 39-66zM141 543c-34-17-63-40-87-70-6 22-3 65 3 101 30 177 211 371 476 332 69-10 132-35 188-75 102-71 156-168 159-292 3-75-34-132-99-169-20-13-43-18-66-19-42-2-80 11-116 31-31 16-59 36-88 55-54 36-109 71-169 96-66 27-133 38-201 10z"/></svg>