<svg width="64" height="64" viewBox="0 0 1000 1000" xmlns="http://www.w3.org/2000/svg"><path d="M807 625c-2 0-5 0-8 1-7 3-15 1-24-1-8-1-15-4-21-10s-10-14-12-23c-3-15-8-30-17-43s-22-23-35-31l-34-19 187-108-21-35-206 119-38-21v-43l207-119-21-36-186 107v-38c0-16-2-32-9-46-6-14-17-26-29-37-7-5-12-13-14-22-2-8-1-15 2-23 2-8 5-17 11-21 3-1 4-4 5-6 1-3 1-6 0-9L508 28c-1-2-2-3-3-4-2-1-3-2-5-2s-4 1-5 2c-2 1-3 2-3 4l-36 133c-1 3-2 6-1 9 1 2 2 5 5 6 6 4 9 13 12 21 2 8 3 15 1 23-2 9-7 17-14 22-12 10-22 23-29 37-7 15-9 30-9 46v38L235 256l-21 35 208 119v44l-38 21-206-120-20 36 186 108-33 19c-14 8-26 17-35 30s-15 29-18 44c-1 8-5 16-11 23-7 6-13 9-22 10-8 1-17 4-24 0-2 0-5-1-8 0-3 0-5 1-7 4l-97 98c-1 2-2 4-2 5 0 2 0 3 1 5 1 1 2 3 4 4 1 1 3 1 5 0l134-35c2-1 5-2 7-4s2-5 3-7c0-8 7-15 12-21 6-7 12-11 20-13 9-2 18-2 26 1 14 5 31 8 46 7 16-2 30-8 44-16l33-19v215h42V610l37-21 37 21v239h42V634l33 19c14 8 28 14 44 16 15 1 32-2 46-7 8-3 18-3 26-1s14 6 19 13c6 6 12 13 13 20 0 3 1 5 3 7s4 4 7 5l134 35c1 0 3 0 5-1 1-1 3-2 4-3 1-2 1-4 1-5-1-2-1-4-2-5l-97-98c-3-2-6-4-9-4zm-385-38l-60 35c-9 4-19 6-29 3-9-2-18-9-22-17-5-9-7-19-4-28 2-10 9-18 17-23l60-35 38 21v44zm115-67l-36 22-38-22v-43l38-22 36 21v44zm0-133l-37 21-37-22v-69c0-10 3-20 11-27 7-7 16-11 26-11s19 4 27 11c7 7 10 17 10 27v70zm153 221c-5 9-14 15-23 17-10 3-20 2-28-3l-61-35v-43l38-22 60 35c8 5 14 13 17 23 3 9 2 20-3 28zM500 5C227 5 5 227 5 500s222 495 495 495 495-222 495-495S773 5 500 5zm416 718c2 2 3 5 4 8 0 3-1 6-2 9-2 2-4 4-7 5-3 2-5 2-9 1l-59-15c-74 110-200 183-343 183s-269-73-344-183l-58 16h-1c-3 0-6 0-9-2-2-1-5-3-6-5-2-3-2-6-2-9s1-6 3-8l42-43c-25-55-39-116-39-180 0-219 169-398 384-414l16-59v-1c1-3 3-5 6-7 2-2 5-2 8-2s6 1 8 2c2 2 4 4 6 7l16 60c215 16 385 195 385 414 0 64-15 125-42 180l43 43z"/></svg>