<svg width="64" height="64" viewBox="0 0 1000 1000" xmlns="http://www.w3.org/2000/svg"><path d="M924 849s-1 1-1 2c0 4-2 8-5 12-6 7-13 12-22 16-4 1-9 4-14 6s-10 5-15 7c-20 9-38 21-55 35-16 14-33 28-49 42-9 8-19 16-30 22-11 7-23 9-35 9-7 0-14-1-21-2-17-3-32-10-44-23-5-4-8-10-11-15-2-2-3-3-5-3l-27-3-33-3c-27-2-54-4-81-3-19 1-37 3-55 9-7 2-15 5-22 8-2 0-3 2-3 3-9 9-19 17-31 22-11 4-23 5-35 4-21-3-41-9-61-16-33-12-66-22-100-30-11-2-21-4-32-6-14-2-27-5-40-10-3-2-7-3-10-5-10-7-13-14-11-26 1-6 5-12 8-17 4-7 8-14 11-21 6-10 6-21 4-33-2-15-4-30-6-46-1-8 0-16 2-25 3-10 9-17 17-23 5-3 9-4 14-4h33c6 0 11-2 17-5 1-1 2-2 2-3 2-6 5-12 7-17 2-6 4-11 8-16-5-7-4-14-3-22 1-15 6-29 13-43 7-12 13-25 20-37 15-27 26-55 33-84 3-10 5-20 9-29 6-19 17-35 30-50 14-17 28-33 41-50 7-9 13-18 18-27 10-18 13-37 12-57-2-21-5-43-7-64-2-30-4-60-3-90 0-20 3-40 9-59 7-21 19-38 35-52 12-11 26-17 41-21 13-3 25-5 38-5 2 0 3-1 5-1h27l18 3c1 1 1 0 1 0 4 1 8 1 11 2 19 4 36 12 52 22 8 6 15 12 22 20 8 10 15 21 21 32 1 0 1 1 1 1 6 17 11 34 14 52 2 14 4 29 6 44 1 9 2 18 3 26 1 18 2 35 5 53l1 5c2 9 3 18 5 28s4 19 9 29c3 6 7 12 10 18l12 21c12 16 23 33 35 50l12 15c23 28 43 57 56 91 2 3 3 7 5 10 7 15 12 30 16 46 4 18 7 35 8 53 2 22 1 43-3 64-2 8-4 15-5 23 0 0 1 1 2 1 4 0 8 3 10 6 2 4 3 7 5 10 4 13 6 26 8 39 1 10 5 17 13 24 3 2 6 5 10 7 5 4 10 7 15 10 5 2 10 5 15 7 10 5 17 12 20 23v14zM396 335c-1 5-1 10-3 14s-2 9-4 13c-3 9-7 17-12 25-7 14-15 28-20 43-3 10-6 19-8 28 0 5-1 9-3 13-9 19-18 37-28 55-11 23-21 46-28 70-7 25-11 51-7 78v2h-1-1c-8-6-14-14-17-23-2-7-3-14-3-22 0-10 1-20 4-29 4-22 13-43 22-64 6-12 12-24 21-36 1-2 3-5 5-7s2-3 0-4c-3-1-5-2-7-3-2 2-4 4-5 6-4 5-7 10-10 16-8 18-17 37-25 56-4 8-7 17-9 26-5 16-8 32-6 49 2 14 6 27 16 37 6 6 12 11 18 17 16 14 34 26 53 38 3 2 7 4 11 7 14 13 29 25 41 40 5 6 9 12 12 18 3 3 3 7 3 11 0 5-2 10-6 14s-8 8-13 12c-4 3-10 6-16 6 0 0-1 0-2 1 0 1 0 3 1 4 2 4 5 8 7 13s6 10 11 14 11 7 18 9c12 5 25 8 38 9 24 2 47 0 70-5 50-12 89-41 119-82 0-1 1-3 1-4 0-9 1-19-3-29v-2c0-13 0-27 3-41 2-10 6-19 13-26 5-5 11-7 17-7s11 2 16 4c1 1 2 2 4 3 1-10 2-20 2-29 1-20 1-39 1-59 0-26-4-52-11-77-4-14-10-28-19-40-11-16-20-32-29-49 0-1-1-1-1-2-3-12-6-23-6-36 0-1-1-3-1-5-9-15-17-31-25-47-1-1-1-2-2-4l-16-38c-1-1-2-3-2-4-9 7-18 13-26 20-15 11-31 20-48 27-19 9-39 11-60 7-9-2-16-5-23-12-3-3-6-6-9-8-4-4-8-7-12-11zm-4 601c0-12-1-21-5-33-6-20-16-38-28-55-10-15-20-29-31-43-10-13-20-27-28-41s-16-27-24-40c-9-14-21-24-36-32-8-4-16-4-25-1-14 5-21 15-23 29-1 4-1 7-3 11-1 3-3 5-6 6-6 2-12 4-18 4-7 1-13 0-19 1-8 0-16 1-23 2-5 1-9 4-12 8-7 11-10 23-7 36 1 10 3 20 5 29 4 21 1 40-10 58-3 5-5 9-8 14-2 5-3 10-4 14-2 5 0 9 3 12 3 4 7 6 12 8 10 5 22 8 33 10s23 3 34 5c28 6 56 15 83 24l63 21c6 2 13 4 20 3 16-1 30-7 42-18 13-12 15-14 15-32zm437-217c-6-1-10 1-14 5l-12 12c-5 4-8 9-13 13-4 4-9 8-13 12-7 5-15 8-23 10-7 2-15 1-22 1-19-3-33-12-40-30-3-8-5-16-8-25-1-2-2-4-4-5l-3-3c-9-6-20-4-25 5-2 3-4 7-5 12-3 9-3 18-3 27 0 31-1 61 0 92 0 12-2 24-4 36-2 10-3 20-3 31v7l-6 30c0 2-1 4 1 6 12 21 30 33 54 35 10 1 19 0 29-3 6-2 13-4 19-9 2-1 4-3 7-5s7-4 11-7c9-8 19-16 28-24 10-9 21-18 31-27 14-11 29-19 45-27 10-6 20-11 31-14 6-2 11-5 16-9 1-1 2-1 3-2 8-13 8-25-3-37-7-6-15-11-23-15-3-1-6-2-8-3-12-8-22-18-27-31-3-8-6-16-7-24-1-9-4-18-6-27-1-3-2-5-3-7zM555 284c-2 1-3 2-4 2-6 4-12 9-19 13-17 10-34 19-53 24-14 4-28 5-42 3-17-3-32-11-45-21-2-1-3-2-4-2 1 5 4 10 7 14 8 8 16 16 25 23 16 15 36 20 58 15 13-3 26-9 38-16 19-13 38-25 57-38 6-4 11-10 13-18 2-4 3-9-2-13s-9-8-13-10c-7-3-14-7-21-9-14-5-27-10-40-15-8-3-17-6-26-9-14-4-28-3-40 3-9 5-18 9-26 13-10 6-19 12-26 21-3 3-5 7-7 11-3 4-4 9 1 13 1 1 1 3 2 4s2 3 3 3c9 8 18 14 28 19 13 5 25 8 39 6 12-1 24-5 35-10 19-9 37-20 54-33 1-1 2-1 4-3v6l4 4zm16-30l3-15c3-17 5-33 3-50-1-8-3-16-7-23-2-3-3-5-5-7-16-14-42-14-59-1-1 0-1 0-1 1-5 6-9 12-10 20-1 16 2 31 8 45 2 4 6 6 10 6-1-3-1-6-2-9v-18c1-5 2-11 5-16 6-7 13-12 22-12 10 0 17 7 23 13 0 1 0 1 1 2 1 4 3 8 4 13 2 7 2 14 1 21-2 9-7 16-16 19l-2 2c1 2 3 2 5 3 5 0 8 1 12 4 1 0 3 1 5 2zm116 215c-3 3-3 3-3 7 2 0 3 1 5 2 17 8 30 21 38 39 12 26 14 53 12 81-2 21-7 41-15 61 0 2-2 4-4 5-15 7-25 20-33 34-1 2-1 4 1 5 2 2 3 0 4-2 5-6 11-12 16-18 6-7 15-11 24-13 7-1 14 0 21 0 14 1 28 5 40 11 6 2 11 6 14 11 3 6 8 10 10 16 0 2 2 3 3 2 1 0 2-2 2-3 0-6-2-12-6-17-6-9-14-16-24-20-14-6-28-8-42-9-4 0-9 0-14-1 1-2 1-4 2-6 10-32 14-65 10-99-2-24-11-45-26-63-9-11-20-20-35-23zM436 224h2c1-3 4-6 4-10-1-9 0-18-1-27-1-11-7-20-16-27-11-9-30-6-38 9-8 16-11 33-8 50 1 13 8 23 17 32l9-6-4-3c-5-4-8-8-10-14-3-10-3-19-1-29 1-7 5-13 11-17 12-9 22-2 28 7 2 7 4 15 6 22 1 4 1 9 1 13zm102-35c1 2 3 5 5 6 4 1 7 4 8 8 2 3 2 5 3 8h5c0-3-1-6-1-9 0-8-5-12-10-16-2-1-4-1-5 0-2 1-3 2-5 3zm-113 22c0-8-1-14-5-20-3-4-6-6-11-6l1 1-3 4-1-1v6h9c1 5 3 11 4 16h6z"/></svg>