<svg width="64" height="64" viewBox="0 0 1000 1000" xmlns="http://www.w3.org/2000/svg"><path d="M713 949c-10 0-20 0-29-2-68-7-93-34-99-102-2-14-5-28-5-41 0-243 1-487 0-730 0-30 11-36 38-33 112 14 187 75 224 181 15 41 23 86 34 132 13-2 27-5 32-6V32c1-24-8-32-32-32-247 1-494 1-741 0-27 0-35 9-35 34-2 93-4 186-8 279-2 36 16 41 46 38 3-20 6-38 9-56C170 156 248 68 368 45c59-11 62-9 62 50 1 229 1 457 0 686 0 32-4 64-9 96-6 34-29 55-61 63-19 5-40 5-59 9-17 4-44-6-44 26 0 33 26 24 44 24 139 1 278 1 417 0 10 0 19-1 29-2 12-34-1-48-34-48zM289 640c2-52 1-104 0-156 0-7-11-19-16-19-60-2-119-1-179-1v196c59 0 117 1 175 0 7-1 20-13 20-20zm444-175c-7 0-20 12-20 19-1 52-1 104 0 156 1 7 11 19 17 20 59 1 118 0 178 0V464c-59 0-117-1-175 1z"/></svg>