<svg width="64" height="64" viewBox="0 0 1000 1000" xmlns="http://www.w3.org/2000/svg"><path d="M690 351v298h310V351H690zm242 230c-22 12-47 18-75 18-23 0-42-4-59-13-15-10-28-23-38-38-9-18-14-35-14-53 0-31 11-56 33-76 21-20 47-31 78-31 23 0 47 6 73 17l-1 32c-24-14-47-21-70-21-24 0-43 7-59 23-15 14-24 33-24 56 0 21 8 40 24 55s35 22 59 22c25 0 49-8 73-23v32zm-586 68h309V351H346v298zm95-253h53c18 0 31 2 40 6 10 5 17 12 22 19 5 8 7 17 7 28 0 20-10 35-31 43 15 3 27 9 36 19 8 9 12 21 13 34 0 10-3 20-8 28-6 8-13 15-24 20s-23 8-39 8h-69V396zm82 79c6-7 10-15 10-24 0-20-13-30-38-30h-25v62h19c16 0 27-3 34-8zm23 84c3-5 5-10 5-16-1-6-2-12-6-17-3-6-8-10-15-12-7-3-18-5-33-4h-27v65h29c14 0 25-1 32-3 7-4 12-8 15-13zM0 649h310V351H0v298zm94-253h54c18 0 30 2 40 6s17 12 22 20c5 7 7 16 8 27-1 20-11 34-32 44 16 2 27 8 36 18 9 9 13 21 13 34 0 11-2 20-8 28-5 9-13 15-23 20-11 5-24 8-40 8H94V396zm83 79c6-6 10-15 10-24 0-19-13-30-38-30h-25v62h20c15 0 26-3 33-8zm23 85c3-5 4-11 5-17-1-7-3-13-6-17-4-6-9-10-15-12-7-3-19-4-33-4h-27v65h29c15 0 26-1 33-3 6-3 10-7 14-12z"/></svg>