<svg width="64" height="64" viewBox="0 0 1000 1000" xmlns="http://www.w3.org/2000/svg"><path d="M883 880C781 772 737 638 712 495c-5-32 0-71-17-97-14-23-43-14-69-12h-54c2-74 15-145 42-213-36 66-56 137-62 213h-13c-6-37-37-104-55-117 21 37 34 75 39 117H413l-48 50 58 25-41 56 65 37-44 30 45 47-56 70 46 82-14 8-51-92 53-67-49-51 39-26-58-34 39-54-61-26 54-55H230c-39 0-79-1-118-1-36-1-50 7-49 46 2 152 2 305-1 457 0 36 11 44 46 44 262-1 523 0 785-1 11 0 13 1 44-1-15-14-39-35-54-50zM610 148c-23-8-44-10-63 3-20 13-27 31-25 56 26-28 57-44 94-50 2 0 7 2 9 4 12 20 21 41 23 65 2 16 0 32 0 49 15-10 21-23 23-38 4-28-8-51-28-70 37 20 66 49 93 83-7-50-45-85-100-95 44-2 85 5 125 18-35-34-75-49-123-29 17-32 0-73-30-77 16 37 20 59 14 85-1-2-1-4-2-5-11-40-46-64-87-61-21 2-43 19-48 37 56-8 97 0 125 25zM455 268c-14 23-14 46 2 61 2-25 7-49 19-71 23 19 48 33 79 35-12-18-28-28-49-35 14-5 26-11 34-23-19-4-23-4-53 9 4-12 9-25 14-40-14 4-22 11-24 21-3 10-3 20-4 29-23-10-42-7-56 9 6 2 12 4 19 4 6 1 13 1 19 1z"/></svg>