<svg width="64" height="64" viewBox="0 0 1000 1000" xmlns="http://www.w3.org/2000/svg"><path d="M937 454v-40c0-61 0-61-57-83-149-57-298-114-448-171-10-5-21-7-33-4-106 29-214 57-321 85-11 4-15 8-15 21v175c1 9 5 14 15 17l18 7c159 60 317 120 475 181l3 1c8 3 16 4 25 1l5-1c100-26 200-53 300-80l16-4c11-3 16-7 17-16v-7c-1-28 0-54 0-82zM765 344c-47 22-95 29-141-6 48-21 96-30 141 6zm-318-33c18 2 34 8 51 20 1 0 2 0 2 1-47 25-95 26-142-5 30-12 60-20 89-16zm177 70c-47 27-94 21-140-5 28-13 57-21 85-18 16 2 33 8 49 18 2 2 4 3 6 5zm15-85c-47 22-95 28-141-5 48-23 96-29 141 5zm-125-49c-62 26-91 25-143-4 55-26 79-26 143 4zm-138 37c-69 25-87 24-142-4 53-26 78-25 142 4zm177 314c-106-40-212-80-318-121-40-15-81-31-121-46-13-4-19-9-18-24v-25c1-31 0-63 0-99 38 15 73 28 108 42l45 17 123 47c20 7 39 15 59 22l67 25c20 8 39 15 58 22l3 1c9 4 13 10 12 21v24c0 13-1 26-1 40s1 27 1 42c1 16-2 19-18 12zm339-67l-273 73c-11 3-15 1-15-11 1-19 0-38 0-57v-22-34c0-10 1-15 12-18 45-11 89-23 134-35 48-13 96-26 143-39 10-3 11 1 11 8-1 30-1 60 0 90v32c0 9-5 12-12 13zm46 177c0 17-4 25-18 29-107 35-214 71-321 107-9 3-17 2-25-2-166-79-331-158-496-237-11-5-15-12-15-27V400c1 12 5 18 15 22l18 9c1 40 1 78 0 115-1 19 5 25 18 31 40 18 81 38 121 57 106 51 212 101 318 153 16 7 19 3 18-17 0-30-1-61 0-91h33v29c0 24 1 48 0 71 0 15 4 18 15 15 91-31 182-62 273-92 7-2 12-5 12-17V559l16-5c12-4 16-10 17-20v71c0 35-1 69 1 103zm-334-82v53h-33v-57l3 3c8 11 16 14 25 5 2 0 4-3 5-4z"/></svg>