<svg width="64" height="64" viewBox="0 0 1000 1000" xmlns="http://www.w3.org/2000/svg"><path d="M496 561c43 0 70 24 90 83 113-14 216-46 309-112 30-22 46-45 42-85-4-34-1-70-1-105 0-87-57-145-145-147-33-1-66 1-98-1-10-1-25-9-28-17-25-68-75-96-145-95-23 0-46-1-68 1-60 3-102 33-122 88-7 20-16 24-34 24-31-1-61-1-92 0-83 2-140 61-141 143 0 47-1 94 0 140 1 12 4 27 11 33 96 83 210 118 332 133 21-59 47-82 90-83zm-39-410c48 2 103-19 142 42H397c10-31 33-44 60-42zm389 501c0 41-6 81-11 122-5 45-36 76-81 76-170 1-339 1-509 0-45 0-76-31-81-75-5-46-8-91-14-136-1-12-11-25-20-34-14-11-31-19-51-31 4 59 8 111 12 163l6 54c8 65 67 125 133 125 180 3 359 2 539 1 64-1 125-59 132-123 9-73 14-147 20-225-15 9-25 18-38 23-27 11-37 30-37 60zm-393 6c-1 43 11 61 41 62s45-16 45-55c1-39-15-61-43-61-26 0-43 21-43 54z"/></svg>