<svg width="64" height="64" viewBox="0 0 1000 1000" xmlns="http://www.w3.org/2000/svg"><path d="M399 818c-10 8-20 16-30 25l-45 36c-14 12-24 11-37-2-28-25-24-30-7-58 9-17 19-33 26-51-18 13-36 26-54 38-4 3-8 6-13 7-21 5-28-14-40-24-8-7-8-18-4-27 7-15 14-29 21-43 2-3 4-6 4-12-14 7-27 13-41 20-26 13-30 13-50-8-8-8-17-16-24-24-10-10-10-22-2-33 14-18 28-35 41-54-17 8-34 17-50 26-33 17-33 17-59-9-9-9-19-18-28-28-12-13-8-32 9-37 43-15 81-41 119-66 54-38 106-79 156-122 21-17 28-17 47 2 89 88 177 177 266 265 9 10 18 19 27 28 13 13 14 24 2 38-31 37-63 74-94 112-36 44-67 91-92 143-2 6-5 12-7 18-7 23-25 27-43 10l-36-36c-13-13-15-21-7-37 15-30 29-59 43-89 2-2 2-4 3-7l-1-1zm601-672c0 37-11 67-31 93-6 9-13 15-22 21-76 47-151 94-226 142-17 11-31 25-40 44-4 9-4 18 5 26 14 12 27 25 39 40 22 28 23 68-7 94-6 5-11 11-16 16-12 11-24 12-36 0L561 517 386 342l-3-3c-20-20-20-29 0-49 12-12 23-26 41-30 27-7 50 2 70 20 12 10 23 22 34 34 12 11 17 12 31 4 18-9 31-23 42-40 44-71 89-141 132-212 24-40 60-59 104-64 87-9 163 60 163 144zm-112 3c1-20-16-37-36-37s-37 18-37 37c0 20 17 36 36 36 22 0 37-14 37-36z"/></svg>