<svg width="64" height="64" viewBox="0 0 1000 1000" xmlns="http://www.w3.org/2000/svg"><path d="M196 462c23 154 45 307 67 460 2 12 6 16 17 16 35-1 69-1 104-1h334c12 0 19 0 21-15 3-28 9-55 13-83 4-26 8-53 12-80-27-1-52 0-77-4-79-14-139-58-182-125-6-10-12-18-25-21-20-5-31-28-27-52 3-21 20-34 41-35 32 0 50 25 43 59-1 6 0 14 3 19 51 80 121 123 219 113 11-1 14-5 15-15 10-61 20-122 29-184l9-63H196v11zm32-141c13-8 14-18 3-38-8-16-13-33-2-50 12-17 31-20 50-18 21 2 36 12 47 29 4 6 6 15 11 20 7 7 17 14 25 14 6 0 14-10 19-16 4-6 4-14 7-21 20-56 74-91 130-85 72 7 117 57 121 135 1 12 0 26 14 29 9 1 22-2 31-8 31-23 61-18 81 15 3 5 10 12 14 11 5-1 11-8 13-13 14-36-7-73-46-76-20-2-40 1-62 2-13-77-57-130-136-144-85-15-150 21-192 90-26-9-49-23-73-26-39-5-74 7-96 42-22 34-12 66 7 98 9 14 21 18 34 10zm598 67c-2-15-11-24-26-26-7-1-15-1-22-1H228c-7 0-14 0-22 1-16 2-25 12-26 28-2 15 6 26 21 31 7 2 14 3 20 3h563c7 0 14-1 21-3 15-5 22-17 21-33zm-94-168c40 0 72-32 72-72 0-41-33-74-72-74-39 1-72 34-73 73 0 40 33 73 73 73zm1-115c22 0 41 19 42 42 0 23-21 44-43 43-23 0-42-20-42-42 0-24 18-43 43-43zm-400 62c29 0 54-25 54-53s-24-52-53-52c-29 1-52 24-52 52s23 52 51 53zm1-75c13 0 21 8 22 22-1 13-7 21-21 22-13 1-24-9-23-22s9-22 22-22z"/></svg>