<svg width="64" height="64" viewBox="0 0 1000 1000" xmlns="http://www.w3.org/2000/svg"><path d="M899 567c-62-30-123-60-185-91-5-3-9-7-13-12-9-13-19-26-29-40 23-15 46-31 69-46 19-13 38-25 56-38 11-7 17-17 14-30-2-12-10-21-23-22-7 0-16 3-23 7-42 28-84 56-127 85-3 1-5 3-9 6 5-14 11-27 13-40 8-43-6-80-32-114-4-6-5-10-2-17 10-29 23-55 46-77 13-12 29-19 48-19 18 0 30-12 30-28 0-15-14-29-31-28-45 1-80 20-106 56-15 21-27 44-41 67-17-7-35-11-54-11s-37 4-54 11c-14-23-26-46-41-67-26-36-61-55-106-56-17-1-31 13-31 28-1 16 12 28 30 28 19 0 34 7 48 19 22 21 36 48 46 77 3 7 2 11-2 17-26 33-40 71-32 113 2 14 8 26 13 41-4-3-7-5-10-7l-126-84c-7-4-16-7-23-7-13 1-21 10-23 22-3 13 3 23 13 30 19 12 38 25 57 37 23 16 46 32 69 47-10 14-20 27-30 40-3 5-7 9-12 12-62 31-123 61-185 91-31 15-24 11-25 41-1 7 3 12 8 15 9 6 19 6 28 1 6-3 11-6 17-9 43-22 86-43 128-64-4 30-10 59-12 89-1 15-5 26-14 38l-93 126c-11 14-9 32 4 41 13 10 31 7 41-7 9-11 18-23 27-35 15-19 30-39 46-60 4 12 7 23 11 33 24 64 62 117 121 153 21 12 21 12 38-5 29-30 43-65 43-107V486c0-19 11-29 28-29h5c18 0 28 10 28 29v331c0 42 14 77 43 107 17 17 17 17 38 5 59-36 97-89 121-153 4-10 7-21 11-33 16 21 31 41 46 60 9 12 18 24 27 35 11 14 28 17 41 7 13-9 15-27 5-41-31-42-62-85-94-126-9-12-13-23-14-38-2-30-7-59-11-89 41 21 84 42 127 64 6 3 11 6 17 9 10 5 19 5 28-1 6-3 9-8 9-15-1-30 6-26-25-41zM528 342c0 13-11 24-24 24h-8c-13 0-24-11-24-24v-52c0-13 11-24 24-24h8c13 0 24 11 24 24v52z"/></svg>