<svg width="64" height="64" viewBox="0 0 1000 1000" xmlns="http://www.w3.org/2000/svg"><path d="M757 125c-11-60-14-63-76-63H559c-50 1-58 8-64 62-103 25-133 59-135 164-2 0-3-1-4-1H254c-34 0-39 27-42 53-74 24-97 55-97 134v403c0 48 12 60 59 61h217v-3c7 2 16 2 26 3h432c11 0 21-1 35-2V299c0-110-27-147-127-174zM308 783c-45 0-59 11-61 52v33h-64c-1-4-3-8-3-13 0-132-1-264 0-396 0-35 14-49 49-49h130v97c-23 3-27 22-26 42 0 24 2 43 26 46v31c-22 3-28 20-26 43-1 24 3 41 26 44v90c-7-15-22-20-51-20zm511 85H705c0-23 1-45 0-67-1-41-13-54-51-54-23 0-46-1-69 0-32 1-45 14-47 48v73H426c-1-12-2-23-2-34V280c0-60 24-86 82-87 78 0 156 0 234 1 55 0 80 27 80 84v561c0 9-1 18-1 29zM247 596c32 1 34-20 32-44 2-25-1-45-31-45-32 0-34 21-34 46-1 24 3 43 33 43zm1 29c-31 0-35 20-35 46 0 25 4 42 34 43 32 1 34-20 32-45 3-25-2-44-31-44zm282-341c-42 0-47 6-47 57 0 49 5 55 49 55 40-1 44-6 44-56 0-51-4-57-46-56zm-2 293c-40 0-45 6-45 58 0 47 6 54 46 54 43 0 47-5 47-57s-3-55-48-55zm48-88c0-56-1-57-44-58-47 0-49 3-49 54 0 54 2 56 47 56 44 0 46-2 46-52zm138-205c-41 0-46 6-46 57 0 49 5 55 48 55 41-1 45-6 45-56 0-51-5-57-47-56zm-1 293c-40 0-45 6-45 58 0 47 5 54 46 54 43 0 47-5 47-57s-3-55-48-55zm48-88c0-56-2-57-45-58-46 0-48 3-48 54 0 54 1 56 46 56s47-2 47-52z"/></svg>