<svg width="64" height="64" viewBox="0 0 1000 1000" xmlns="http://www.w3.org/2000/svg"><path d="M500 152c10 0 18-8 18-18V80c0-10-8-18-18-18s-18 8-18 18v54c0 10 8 18 18 18zm-188 38c4 5 10 9 16 9 3 0 6-1 9-3 8-5 11-16 6-24l-26-47c-5-8-16-11-25-6-8 4-11 15-6 24l26 47zM211 293l-46-27c-9-5-20-2-25 7-4 8-1 19 7 24l46 27c3 2 6 2 9 2 6 0 12-3 15-9 5-8 2-19-6-24zm-56 172h-52c-10 0-18 8-18 18s8 18 18 18h52c10 0 18-8 18-18s-8-18-18-18zm743 0h-53c-10 0-18 8-18 18s8 18 18 18h53c9 0 17-8 17-18s-8-18-17-18zm-38-192c-5-9-16-12-24-7l-46 27c-9 5-12 16-7 24 3 6 9 9 16 9 3 0 6-1 8-2l46-27c9-5 12-16 7-24zm-196-77c2 2 6 3 8 3 7 0 12-4 16-9l26-47c5-8 2-19-6-24-9-5-19-2-24 6l-27 47c-5 8-2 19 7 24zM480 556c2 12 8 16 20 16s19-4 21-16l14-96c1-6 2-13 2-19v-47c0-21-14-32-37-32s-36 11-36 32v47c0 6 1 13 2 19l14 96zm20 42c-21 0-38 18-38 40s17 39 38 39 38-18 38-39-17-40-38-40zm-66-361c-114 32-184 109-202 225-19 113 21 207 113 277 15 12 32 26 37 43 15 45 44 61 89 56 10-2 20-1 30-1h42c43 0 53-8 72-46 8-17 18-36 33-46 88-64 129-149 125-257-8-169-176-295-339-251zm189 459c-19 15-36 34-50 54-29 46-112 48-143 4-17-23-37-46-60-63-77-61-108-165-75-259 32-93 118-152 217-149 113 3 207 106 207 234-1 70-33 132-96 179zm-64 176c-19-1-39 0-58 0s-39-1-58 0c-7 1-17 4-20 10-3 5 1 15 5 21 32 46 114 46 146 0 4-5 8-16 5-21-2-6-13-9-20-10z"/></svg>