<svg width="64" height="64" viewBox="0 0 1000 1000" xmlns="http://www.w3.org/2000/svg"><path d="M323 303c-17 6-33 15-51 17-35 5-71 6-106 9l-48 4c-11 1-14 4-13 15 0 2 0 5 1 7-12 1-21 2-31 3s-13 4-12 14c3 50 7 99 11 149 0 10 4 13 14 12 10 0 20-1 31-2v9c1 10 3 11 13 10l48-3c14-1 14-1 21 12l27 57 105 215c7 13 10 15 24 13 19-1 38-2 57-4 10-1 13-4 8-14-5-11-11-23-17-35-34-69-68-139-103-208-4-10-5-19 2-28 7-8 16-10 26-7 110 27 219 54 328 81 14 3 28 7 42 10-12-158-23-316-35-474-3 0-5 1-8 2-111 45-223 91-334 136zm430-140c-3-3-7-8-10-8-18 0-37 2-56 3 12 162 24 322 36 483 17-1 33-2 49-3 13-1 16-4 15-18l-33-450c-1-2 0-5-1-7zm102 296c-12-7-26-3-33 9-5 10-3 22 7 29 19 15 39 29 59 43 2 1 4 2 5 2 12 4 23-1 28-12 5-8 2-22-6-28-20-15-40-29-60-43zm-38-138c9 6 20 5 29-3 17-16 34-32 50-49 3-3 5-7 6-8 3-13-1-23-9-28-10-6-21-5-29 2-17 17-34 33-50 50-3 2-5 5-6 9-4 10 0 21 9 27zm98 38c-25 1-51 3-76 6-11 1-18 11-18 22s6 20 18 23c0 0 2 1 3 1 26-2 52-4 77-6 12-2 19-13 19-24-1-12-11-22-23-22z"/></svg>