<svg width="64" height="64" viewBox="0 0 1000 1000" xmlns="http://www.w3.org/2000/svg"><path d="M506 572h262c26 0 48-21 48-47V244c0-27-22-48-48-48H553c-26 0-52 21-57 47l-28 104c-6 26-10 68-10 94v84c0 26 22 47 48 47zm-12-210l25-102c4-20 23-35 43-35h188c20 0 36 16 36 35v101c0 20-16 36-36 36H545l18-42c3-7-1-15-8-18s-16 0-19 7l-21 52c-15-4-24-18-21-34zm-63 137c-5-8-18-13-27-7-33 25-66 50-99 74v-42c0-19-11-23-24-10L70 779c-13 13-8 24 10 24h191c19 0 34-15 34-34V616c40-30 79-60 119-89 9-7 13-17 7-28zm63 205c0 25-20 45-44 45s-45-20-45-45 20-45 45-45 44 20 44 45zm187 0c0 25-20 45-44 45s-45-20-45-45 20-45 45-45 44 20 44 45zm187 0c0 25-20 45-44 45s-45-20-45-45 20-45 45-45 44 20 44 45zm36-97c-22-16-47-16-73-16H421c-46 0-85 35-85 82v48c0 28 14 52 36 68 21 16 47 15 71 15h409c46 0 83-35 85-81v-1c0-42 5-87-33-115zm7 115c-1 30-25 54-56 55H428c-7 0-14 0-20-1-27-5-45-29-45-56v-47c0-31 25-55 55-56h396c17 0 35-2 52 1 27 5 45 30 45 57v47z"/></svg>