<svg width="64" height="64" viewBox="0 0 1000 1000" xmlns="http://www.w3.org/2000/svg"><path d="M890 256c-14-1-29-1-43-2-5 0-9-1-11-8-1-5-7-10-11-17 10-27 21-56 33-86l-2-2c-8 5-15 10-22 15-18 11-35 22-52 34-4 3-8 7-10 12-9 21-17 42-25 64-1 3-4 7-6 8-17 11-33 22-50 33-64-84-148-132-253-141-92-8-175 18-247 76C49 358 23 559 122 706c105 156 309 196 463 106 161-94 204-283 150-420-20 12-39 24-58 37-2 2-2 8-1 11 7 29 11 58 9 88-5 76-36 140-93 190-58 52-127 75-205 69-138-12-245-123-252-262-9-163 130-300 293-288 79 6 144 40 195 100l6 9-73 47c-40-47-91-71-154-69-44 1-83 17-116 47-71 62-85 163-34 243 48 76 146 107 230 72 87-36 128-126 113-204-7 5-15 9-22 14-13 9-27 17-40 26-4 3-7 8-8 13-14 57-58 93-116 94-63 0-118-56-116-119 3-76 72-129 145-111 22 5 41 16 58 34-18 12-35 23-53 34-1 1-6 0-8-2-21-10-45-7-62 9-16 16-20 40-11 61 10 21 35 34 58 29 24-5 41-24 42-48 1-6 3-10 8-13 98-63 195-126 293-189 4-3 9-5 14-4 23 0 46 2 68 3 4 1 8 1 11-1 26-17 53-34 81-53-17-1-32-2-47-3z"/></svg>