<svg width="64" height="64" viewBox="0 0 1000 1000" xmlns="http://www.w3.org/2000/svg"><path d="M799 397c-3 57-5 114-8 171-3 43-15 81-40 115-5 8-17 19-6 28 10 9 18-5 25-11 26-22 26-23 54-4 29 19 58 39 86 58 32 22 42 55 43 91 0 6-2 11-8 12-87 23-167 64-251 96-67 26-135 45-206 47-53 1-105-5-157-16-88-19-172-49-258-72-25-7-25-7-25-33 0-35 13-64 39-88 43-40 92-70 143-99 6-3 10-3 15 3 10 13 20 25 31 38 3 4 7 9 13 7 6-3 5-9 5-15-1-11-6-21-12-30-35-57-50-119-51-186-1-54-6-107-1-161 7-68 10-136 36-201 16-40 42-71 80-93 47-26 94-49 149-53 44-4 85 7 127 21 110 40 153 129 171 235 8 47 7 93 6 140zm-156 62c52 0 86-32 91-84 4-44-18-86-64-98-33-9-63 2-91 16-44 22-84 18-126-5-17-9-35-19-55-20-40-4-72 15-86 48-17 39-10 86 18 112 31 30 81 33 116 6 12-10 23-22 35-32 27-24 56-22 80 4 8 8 15 16 22 24 17 19 38 31 60 29zm-141 95c-15 0-30 1-45 3-38 7-60 34-64 85-2 23 21 51 50 61 3 1 5 1 8 2 40 9 80 8 120 0 32-7 51-27 59-58 8-36-2-74-46-83-27-6-54-9-82-10z"/></svg>