<svg width="64" height="64" viewBox="0 0 1000 1000" xmlns="http://www.w3.org/2000/svg"><path d="M914 800c-3-42-14-77-53-97-11-6-23-12-34-16-46-19-92-37-137-55-22-9-23-8-29 15l-87 324c-1 6-2 12-7 18-1-5-2-9-2-12-7-55-14-109-19-163-5-46-19-93 1-139 4-8-2-8-8-8-24 0-48 1-72 0-12-1-17 2-12 15 9 25 12 51 7 78-5 22-6 44-9 66-7 54-13 108-20 162h-3c-1-3-2-5-3-7-29-111-58-222-88-332-6-24-9-25-32-16-44 18-89 35-134 53-20 8-39 19-55 33s-27 31-29 53c-6 59-12 118-17 177-3 35 12 51 48 51h764c30 0 48-19 45-48-6-50-12-101-15-152zM321 427c2 1 3 3 3 5 9 30 22 58 39 84 35 50 82 78 145 78 31-1 59-13 85-30 30-21 50-51 66-83 7-16 14-32 19-49 0-2 0-4 3-5 13-4 21-13 25-26 5-13 13-26 15-41 2-19-1-37-15-52-2-2-2-3-2-5 3-42 6-84 3-125-1-24-5-46-17-67-7-12-18-22-28-32-13-13-27-26-44-36-2-2-2-4-2-7 2-7 2-7-6-7-6 0-12-1-19-1-4 0-5-1-3-5 1-3 1-6 2-10-9 2-16 5-25 7 2-7 5-13 7-20h-1c-13 7-25 12-39 16-8 2-18 0-27 0-38 2-73 13-106 33-8 5-16 11-24 18-9 7-21 10-31 15-8 4-6 4-2 9 4 7 5 7-3 10s-16 6-24 10c3 3 7 5 11 7 6 4 6 4 1 8-6 5-13 10-19 15-1 1-2 1-2 3 4 1 8-1 12-1 4-1 4 0 4 4-5 14-8 29-10 45-6 33-8 66-9 100v3c2 5 0 8-4 10-12 7-16 19-18 32 0 2 0 3-1 4v18c2 14 9 26 13 39 5 14 13 25 28 29zm-19-100c1-2 2-4 5-5 2 10 4 20 5 30 0 7 3 10 10 12 11 2 11 2 10-8-1-15 1-30 1-45 1-13 1-27 1-41-1-38 6-75 15-111 2-10 8-17 15-21-3 7-5 15-6 23 6-5 10-10 13-15 6-7 13-10 21-11 14-1 29 1 42-3 8-2 15-3 22-7 13-7 27-4 41-6 4 0 3 3 3 5 1 8-2 15-6 22-3 7-7 13-11 19 21-8 40-19 55-36 5 7 5 14 3 22-2 7-6 13-10 21 11-3 21-8 30-13 13-8 24-17 35-28 2-2 4-2 6 1 5 8 8 16 7 26 0 1-1 4 2 5 2 1 3-1 5-3 5-6 10-13 14-20 1-1 1-2 2-3 4 11 8 22 2 34 0 1-2 2-1 4 1 1 3 1 5 1 4-1 9-3 13-4l6-3c3 11-3 20-24 37 13 1 25-1 36-10-2 14-3 26-3 38-1 8-1 15 1 23 8 32 9 64 6 96v4c-2 11-2 11 10 11 9-1 9-1 11-10s4-18 7-28c3 9 4 17 3 25 0 3-1 6-2 9-4 11-8 23-12 33-4 9-10 16-21 14-4-1-4 2-4 4-7 27-17 52-30 75-22 40-54 68-98 82-36 10-69 4-102-13-29-15-50-38-66-66-14-25-25-51-31-78-1-3-1-5-5-4-9 2-16-3-19-10-6-14-13-28-16-44-2-10-1-20 4-30z"/></svg>