<svg width="64" height="64" viewBox="0 0 1000 1000" xmlns="http://www.w3.org/2000/svg"><path d="M330 460h170c-62 0-113-51-113-114v-46c0-6 5-11 10-11 103-7 103-113 103-113s0 106 103 113c6 0 11 5 11 11v46c0 63-51 114-114 114h171c24 0 44-15 53-36 4-11-6-21-17-25-21-8-36-29-36-53V233c0-94-77-171-171-171s-170 77-170 171v113c0 24-15 45-36 53-11 4-21 14-17 25 8 21 29 36 53 36zm341 80h-93c-11 0-14 7-6 15l27 27c8 8 10 23 3 32l-90 136c-6 9-17 9-23 0l-90-136c-7-9-5-24 3-32l27-27c8-8 5-15-6-15h-93c-63 0-113 51-113 114v227c0 31 25 57 56 57h454c32 0 57-26 57-57V654c0-63-51-114-113-114z"/></svg>