<svg width="64" height="64" viewBox="0 0 1000 1000" xmlns="http://www.w3.org/2000/svg"><path d="M926 949c-5-58-12-117-17-175-2-22-13-39-29-53s-35-25-55-33c-44-18-89-35-133-53-23-9-26-7-32 16-29 110-58 220-88 330 0 2-1 5-2 7h-3l-20-161c-3-22-4-44-9-65-5-27-2-53 7-78 5-13 0-15-12-15h-65c-13 0-18 2-13 15 9 25 12 51 7 78-4 21-6 43-9 65l-20 161h-3c0-2-1-5-2-7-29-110-59-220-88-330-6-23-9-25-32-16-44 18-88 35-133 53-20 8-39 19-55 33s-27 31-29 53c-5 58-12 117-17 175-3 35 13 51 48 51h756c35 0 51-16 48-51zM313 445c20 40 43 78 77 108 41 36 88 50 143 40 36-7 65-27 90-53 34-35 56-77 76-120 2-4 3-8 6-10 15-14 23-31 29-50 5-18 7-36 1-55-4-9-9-17-20-17-6-1-6-3-5-8 4-28 7-56 6-84 0-34-5-68-23-98-30-52-78-79-135-92-11-3-23-4-34-6h-48c-3 2-6 2-8 2-36 4-69 14-100 33-42 26-70 63-79 112-6 29-6 59-4 89 1 15 3 30 5 45 0 2 2 6-2 6-20 2-25 17-26 32-3 30 5 57 23 80 12 14 19 30 28 46zm-22-123c0-4 2-8 4-12 6-11 16-12 24-1 3 4 6 10 9 15 2 5 4 11 8 16l-9-45c-4-24-7-47-6-71 0-7 1-13 4-18 15-28 34-52 65-63 12-5 21-4 30 6 47 47 105 71 170 82 26 4 53 7 80 7 8 1 10 3 9 11-3 28-8 56-14 83l-1 7c6-10 10-21 17-30 8-12 18-11 25 2 1 4 3 7 3 11 0 25-6 48-25 67-5 4-8 9-11 15-11 26-23 52-38 77-4 8-10 16-15 24-55 82-186 84-243-4-20-31-36-64-51-97-2-6-5-11-9-15-20-18-26-41-26-67z"/></svg>