<svg width="64" height="64" viewBox="0 0 1000 1000" xmlns="http://www.w3.org/2000/svg"><path d="M293 384c2 16 9 31 16 45 4 10 11 17 21 19 4 1 4 4 4 7 4 20 10 39 21 56 14 24 33 44 56 59 17 12 33 24 52 31 8 3 16 4 24 7h28c7-3 15-3 23-6 19-6 36-19 52-30 25-17 46-37 61-63 8-14 13-29 14-45 1-2 1-4 1-6 0-6 3-9 9-12 12-5 17-17 21-29 4-11 10-22 12-34v-16c-1-6-2-11-4-16-3-9-8-16-17-21-3-1-2-3-3-6 0-15 3-30 4-45 5-40-1-78-18-115-4-10-10-19-11-29 0-3-2-4-5-5-7 0-11-5-14-11-1-3-2-5 1-7s1-3-1-4c-7-2-13-2-19-1-4 1-5 0-5-3-1-6-3-11-5-17-1-2-2-3-6-3-11 3-21 2-32-2-6-3-9-8-11-14-4-11-11-19-23-20-3 0-4-2-3-5V23c-7 3-11 7-16 9-8 2-10 1-10-7-1-9 2-17 6-25-17 2-27 10-33 25-4-9 1-15 4-23-15 5-26 14-36 26-6 7-11 14-16 21-2 2-2 4-5 4-2 0-2-3-3-5s-1-4-2-7c-5 2-7 6-9 10-5 8-8 16-12 25-5 10-9 10-18 4 0-1-1-1-1-2-7-6-7-6-13 1-11 12-19 27-27 42-4 8-9 15-16 22-6 5-12 11-18 16 3 3 6 2 9 2 6 1 7 3 5 8-5 11-11 22-16 32l-3 6c3 0 4-2 6-2s4-1 5 0c1 2 0 3 0 5-6 14-11 28-16 42 1 1 2 0 3 0 8-3 8-3 8 5-2 24-2 47-1 70 1 2 0 4-1 5-17 14-20 32-17 52zm21-32h1c2 8 3 16 5 24 1 6 10 11 15 9 3-1 2-3 1-5-1-14-1-27-1-40-1-20 3-40 7-59 6-27 11-54 19-80 3-6 5-13 8-19 7-16 20-22 36-23s32 1 47 5c20 5 39 4 59-2 16-5 32-7 49-7 19 0 32 8 42 22 12 16 19 34 26 52 5 14 10 29 18 42 1 2 1 4 3 5 11 12 12 26 13 41 1 18 1 37 0 56 0 3-1 6 4 6 4-1 9 2 10-5 0-8 1-15 2-23 1-2 0-4 2-5 2 0 3 2 4 3 7 10 9 21 7 31-2 16-9 29-16 43-3 7-8 12-17 10-4-1-4 2-4 3-2 8-4 16-4 24-2 22-11 40-24 57-24 30-55 53-90 68-29 12-59 10-87-8-18-12-36-24-52-39-26-24-42-54-48-89 0-2-1-5-1-8-1-5-2-10-10-8-5 1-10-2-12-6-8-18-18-35-18-55 0-7 2-14 6-20zm585 455c-2-40-13-74-51-94-11-5-22-11-33-16-44-18-88-35-132-52-21-9-23-8-28 14-28 104-56 209-84 313-1 5-2 11-6 17-2-5-3-8-3-12-6-52-13-104-18-156-5-45-18-90 1-135 4-7-2-8-8-8-23 0-46 1-69 0-12 0-16 2-12 15 9 24 12 49 7 75-5 21-6 43-9 64-6 52-12 104-19 156h-3c-1-2-2-4-2-7-29-106-57-213-86-320-6-23-8-24-31-15l-129 51c-19 8-38 18-54 32-15 14-26 30-27 51-6 57-12 114-17 171-3 34 12 49 46 49h738c30 0 47-19 44-46-6-49-12-98-15-147z"/></svg>