<svg width="64" height="64" viewBox="0 0 1000 1000" xmlns="http://www.w3.org/2000/svg"><path d="M908 803c-2-41-13-76-52-96-11-6-23-12-34-16-45-19-90-36-135-54-22-9-23-8-29 14l-85 320c-2 6-2 12-7 18-1-5-2-9-3-12-6-54-13-107-18-160-5-46-18-92 1-138 4-7-2-8-8-8-23 0-47 1-70 0-13 0-18 2-13 15 9 25 12 51 7 77-4 21-6 43-9 65-6 53-13 107-19 160h-3c-1-3-2-5-3-7-29-109-58-219-87-328-7-23-9-25-32-16-44 18-88 35-132 53-20 8-38 18-55 32-16 14-26 31-28 53-6 58-12 116-17 174-3 35 13 51 47 51h754c31 0 48-19 45-48-6-49-12-99-15-149zM285 409c6 10 13 19 24 22 4 0 4 3 5 5 8 30 21 58 40 83 28 37 63 65 109 76 8 2 16 3 23 4h28c9-2 19-3 28-5 36-10 66-31 91-59 26-28 43-61 53-98 1-4 3-6 7-7 13-5 21-16 25-29 5-14 12-28 15-43v-17c-1-6-3-12-5-18-3-9-8-17-17-22-2-1-2-3-1-5 16-35 13-72 9-109-3-25-9-50-17-74-6-21-19-38-35-52-25-20-54-35-85-43-15-4-29-1-42 7l-12 9c-5-21-23-25-39-29-9-2-19-3-28-5h-28c-5 2-11 2-16 3-16 3-30 10-43 21-32 27-58 59-75 98-12 29-16 60-20 91-3 28 1 55 10 81 1 4 1 6-3 8-11 8-16 20-18 33-4 18 0 34 7 50 4 7 5 16 10 24zm6-86c4-7 6-7 9 0 6 11 16 18 26 25-6-54 2-106 6-158 6 8 11 17 19 26-4-16-8-31-6-47 5 8 7 15 14 22-2-8-3-15-2-22 2-23 15-37 36-45 21-7 42-9 63-2 28 9 54 7 81-2 12-4 24-7 36-5 21 4 35 17 44 35 6 10 9 21 16 30 5 9 12 15 21 19 10 4 11 6 11 17-1 5-1 10-2 15-2 11-1 22 5 32 4 9 7 17 12 25 4 8 5 17 4 25-1 12-2 24-2 38 7-11 12-21 17-31 2-4 4-4 7-1 4 5 6 11 8 17 2 14 1 28-6 41-3 6-5 12-7 19-2 4-4 8-7 12-4 4-9 7-15 5-4-1-5 2-6 5-7 28-17 54-33 78-27 43-64 73-115 83-39 7-75-2-108-24-45-31-71-74-86-125-1-2-1-4-2-6-1-3-1-7-3-10s-6 0-9 0c-6-1-11-4-13-9-8-17-17-34-19-53-1-11 1-21 6-29z"/></svg>