<svg width="64" height="64" viewBox="0 0 1000 1000" xmlns="http://www.w3.org/2000/svg"><path d="M891 451c25-1 47-24 46-49 0-26-21-47-48-47-15 0-31-1-46 0-9 0-13-3-16-11-13-31-26-61-40-91-12-27-33-40-62-40-149-1-298 0-447-1-33 0-55 15-68 45-12 30-25 59-38 89-3 7-6 9-14 9-15-1-30 0-46 0-28 0-49 20-50 47 0 27 22 49 51 49h18c-3 8-5 14-7 21-7 28-18 56-19 85-3 90-3 180-3 270 0 32 21 57 52 61 19 2 39 2 58-1 29-3 53-22 50-59-1-12 0-24 0-36h475v39c0 30 15 50 45 55 15 3 31 2 47 2 44 1 68-23 68-68 0-73 1-147 0-221 0-39-4-79-19-116-3-10-6-20-10-32h23zM213 649c-28 1-50-21-50-49s21-49 49-49c28-1 49 21 49 49 0 27-21 49-48 49zm7-199c4-16 9-30 13-44 12-40 24-79 35-119 3-8 6-12 16-12 144 1 288 0 433 0 6 0 11 0 14 9l48 162c1 1 0 2 0 4H220zm568 199c-27 0-49-22-49-50 0-27 21-49 48-49 28 0 50 22 50 49 0 28-21 50-49 50zM659 190h-21l-1-27h-29v27h-28v-27h-29v27h-27v-27h-34v27h-27v-27h-29v27h-28v-27h-29c0 9 0 18-1 27h-20c-1 7-1 15-1 22h304v-22zm-282-56h29v29h28v-29h30v29h26v-29h34v29h27v-29h29v29h28v-29h30v29h21c0-4 0-8-1-12-3-24-21-39-46-39-69-1-139-1-209 0-21 0-41 15-44 35-1 5-1 11-2 16h20v-29z"/></svg>