<svg width="64" height="64" viewBox="0 0 1000 1000" xmlns="http://www.w3.org/2000/svg"><path d="M782 62H218c-8 0-15 7-15 16v844c0 8 7 16 15 16h564c8 0 15-8 15-16V78c0-9-7-16-15-16zm-510 86c0-9 7-16 16-16h423c9 0 16 7 16 16v178c0 8-7 16-16 16H288c-9 0-16-8-16-16V148zm280 281v72c0 9-7 16-16 16h-72c-9 0-16-7-16-16v-72c0-9 7-16 16-16h72c9 0 16 7 16 16zM377 852c0 8-7 15-16 15h-72c-9 0-16-7-16-15v-73c0-9 7-16 16-16h72c9 0 16 7 16 16v73zm0-176c0 9-7 16-16 16h-72c-9 0-16-7-16-16v-72c0-9 7-16 16-16h72c9 0 16 7 16 16v72zm0-175c0 9-7 16-16 16h-72c-9 0-16-7-16-16v-72c0-9 7-16 16-16h72c9 0 16 7 16 16v72zm175 350c0 9-7 16-16 16h-72c-9 0-16-7-16-16v-72c0-9 7-16 16-16h72c9 0 16 7 16 16v72zm0-175c0 9-7 16-16 16h-72c-9 0-16-7-16-16v-72c0-9 7-16 16-16h72c9 0 16 7 16 16v72zm175 175c0 9-7 16-16 16h-72c-9 0-16-7-16-16V604c0-9 7-16 16-16h72c9 0 16 7 16 16v247zm1-350c0 9-8 16-16 16h-73c-9 0-16-7-16-16v-72c0-9 7-16 16-16h73c8 0 16 7 16 16v72z"/></svg>