<svg width="64" height="64" viewBox="0 0 1000 1000" xmlns="http://www.w3.org/2000/svg"><path d="M857 753c-2-12-4-23-14-33C635 513 428 305 221 98c-9-9-13-10-23 0-44 45-90 90-135 135v3c6 2 9 8 14 12 205 206 411 412 616 617 7 7 15 13 25 15 51 10 102 21 154 32 11 2 15 1 12-13-9-48-18-97-27-146zm-110 71c-5 6-11 8-18 4-4-2-6-5-9-8-191-191-382-381-572-572-3-3-6-6-8-9-6-10 1-22 13-23 8 1 12 7 17 12l386 386c60 60 121 121 181 182 4 3 8 7 11 11 4 6 4 12-1 17zm51-51c-5 3-11 3-16 0-4-3-7-7-10-10L205 196l-7-7c-7-7-8-14-1-21 7-8 15-7 22 0l7 7 566 566c6 6 13 11 14 20-1 5-3 10-8 12zm135-541L794 93c-7-8-11-6-18 1L546 324c-6 6-8 9-1 16 15 14 30 29 44 44 6 6 9 6 15 0 5-6 9-10 1-16-4-4-7-8-11-11-7-6-9-10-2-18 8-8 12-6 18 1l12 12c5 6 9 4 14-1 5-4 9-9 1-15-4-3-8-8-12-12-5-5-9-9-2-16 8-7 12-7 18 0l11 11c6 8 10 6 16 0s7-10 0-15c-4-3-7-7-11-11-6-5-10-9-2-17 9-9 13-6 19 1 3 4 8 7 11 11 5 7 9 5 15 0 5-6 8-10 0-16l-10-10c-9-7-9-12 0-21 29-28 58-56 86-85 7-8 11-8 19 0 23 24 47 49 72 72 10 9 9 14 0 23-64 64-128 127-191 191-5 5-15 9-11 16 7 10 18 19 27 28 3-2 6-4 8-7 78-77 155-155 233-232 6-6 6-9 0-15zM420 698c-48 49-97 97-145 145-4 3-7 7-11 10-2-1-4-2-5-4-28-27-55-55-83-82-2-3-4-5-2-9 8-17 22-20 35-7 2 2 4 3 5 5 5 7 10 8 17 1s5-11-1-16c-3-3-6-7-10-10-8-6-8-11-1-19 9-9 13-3 18 2 4 5 8 8 12 13 6 6 10 2 14-2 4-5 8-9 1-14-3-4-7-8-10-11-6-6-13-9-4-19 10-10 15-3 21 3 2 3 6 5 8 8 6 8 10 7 16 1 7-7 6-11 0-16-4-4-7-8-11-11-8-6-8-10-1-17s11-6 16 1c3 3 8 7 11 11 5 5 9 8 16 1s7-12 0-17c-4-3-7-7-10-10-6-5-10-9-2-17 8-9 13-7 19 1 3 4 7 7 10 11 6 7 10 4 16-1 6-6 6-10 0-15-15-14-29-28-42-43-8-9-12-6-19 1-59 60-119 120-179 179-8 8-8 12 0 20 45 44 89 89 133 134 9 9 14 10 24 0 55-57 112-113 168-169 19-19 18-18 0-38-9-9-15-11-24 0zm401-457c0-21-16-38-36-38s-36 16-37 36c-1 21 16 39 37 38 19 0 35-16 36-36z"/></svg>