<svg width="64" height="64" viewBox="0 0 1000 1000" xmlns="http://www.w3.org/2000/svg"><path d="M62 390v-6c17-16 38-24 60-29 38-9 66-30 89-59 18-23 30-50 50-73 4-4 5-10 7-15 6-18 6-37 8-56 2-17 5-35 16-49 6-8 14-11 23-14 25-7 40-3 57 1 22 6 36 17 37 37v19c2 17 11 25 30 26 17 1 28-7 36-19l21-40c10-18 27-29 49-33 25-4 32-4 51 8 28 7 40 28 38 54 0 9-6 17-4 25 7 46 20 90 47 129 5 8 10 16 20 22 0-7 0-13-2-19-6-22 0-41 14-59 29-36 69-56 116-64 35-6 48 15 37 39-3 5-1 7 5 9 11 3 23 7 34 12 12 6 24 13 31 24 8 14 7 27-3 36-11 10-28 12-42 4-6-4-8-1-10 3-5 10-4 20-5 31-2 30-5 59-4 89 1 47-8 91-34 132-20 30-45 53-84 60-30 5-58-3-71-31-1-1-2-2-4-2 0 16-10 27-24 35-26 14-37 34-35 61 0 11-3 20-12 28-11 10-15 23-16 37-1 28 1 57 5 85 3 25 16 44 41 56 9 4 17 12 24 19s8 13 0 20h-25c-12-5-24-1-37-3-28-3-35-9-29-31 1-5 0-6-6-6-9 1-19 4-28 1-9-2-13-6-10-14 2-7 4-14 5-21 2-28 4-57 18-83 11-21 13-43 6-66-4-13-10-25-9-38s-5-21-16-27c-16-9-25-22-29-38-5-16-7-32-6-48 0-6-1-9-8-10-41-6-81-16-117-38-7 32-20 61-29 92-7 25-12 51-7 77 8 46 23 89 56 126 15 16 35 28 54 40 7 5 16 11 13 21-4 10-15 10-25 10-17 0-34-1-51-2-10-1-13-7-11-15 4-14-1-26-9-38-21-30-34-63-48-96-9-21-13-43-26-62-12-18-13-35-4-54 7-15 9-31 9-48 0-21-3-42-5-63-2-10-1-20-5-30-4 2-4 4-5 6-10 29-21 57-28 86-6 25-17 49-16 75 1 18 0 36-5 54-3 10-2 21-2 31 1 22 3 43 4 64 0 2-1 5 2 7 16 6 17 20 19 32 2 11 7 20 18 26 5 3 10 6 14 11 8 10 5 18-9 21-13 4-27 2-40-1s-18-8-18-20c-1-10 1-20-3-29-6-18-7-36-4-54 4-24 5-48-5-71-11-28-11-58-9-87 2-22 1-43-2-64-4-35-10-70-9-105 1-18 3-36 3-54 1-10 1-21 1-32-18 13-35 23-57 22-5-1-10 3-14 7-6 5-11 10-17 16-4 5-9 9-15 11-4 2-9 2-9-3 1-9-6-13-11-18z"/></svg>