<svg width="64" height="64" viewBox="0 0 1000 1000" xmlns="http://www.w3.org/2000/svg"><path d="M920 598c-22-11-34-38-29-63 6-27 8-55 1-82-1-8-4-14-6-19-3 27-5 56-8 84-3 27 1 51 18 73 4 6 8 13 13 18 24 25 27 56 24 88-3 31-4 61-6 92 0 14 0 28 8 41 7 11 0 24-13 26-18 2-36 1-54 0-9 0-11-7-6-14 3-3 5-7 8-9 21-10 26-29 27-49 2-34 1-68 1-102 0-15-8-28-20-37-7-5-13-11-21-15-24-14-46-31-59-57-1-3-3-5-5-8-15 15-20 32-13 51 1 5 2 10 5 14 10 20 10 39-9 55-3 2-5 6-6 9-11 38-32 72-37 111-2 12-4 25-18 29-17 6-34 4-50-5-7-5-5-11 0-15 6-5 13-10 20-14 17-13 29-28 35-49 7-24 17-47 25-70 5-17 3-35-8-50-19-25-25-53-21-84 1 0 1-1 1-1 2-30-2-33-31-27-28 6-56 12-85 15-14 2-30 0-45-3-31-6-40 8-38 36v40c-2 39-5 79-6 118 0 24 2 48 3 72 0 28-21 43-48 36-9-3-13-9-9-19 2-4 4-9 8-13 18-20 21-44 17-69-5-35-9-70-14-104-1-11-4-21-5-32h-4c-2 12-3 24-5 35-7 34-15 67-22 101-5 28-9 56-13 84-2 20-8 26-29 28-8 0-17 0-26-1-15-2-19-10-9-22 3-4 9-8 14-10 27-12 34-34 34-60v-84c1-17 6-33 5-50 0-21-3-43-5-64-2-32-16-45-47-44-33 1-64-2-89-27-35-36-62-78-75-127-8-27-11-56-17-84-2-9-8-19-15-24-20-14-43-21-69-18-20 3-32-8-29-25 1-4 4-9 7-11 45-17 80-37 125-44 4 0 10 0 14-2 16-5 29-6 38 11 1 3 7 4 11 6s9 3 10 6-2 9-5 10c-9 5-7 12-5 21 8 30 15 61 22 91 7 27 19 49 43 65 18 13 31 13 48-2 33-30 65-60 98-89 30-27 70-72 110-82 53-13 102 8 127 60 31 37 69 66 113 84 28 12 47 31 60 58 7 15 14 30 22 45 11 22 13 45 9 69-2 20-3 39 5 58 4 11 3 25 5 40z"/></svg>