<svg width="64" height="64" viewBox="0 0 1000 1000" xmlns="http://www.w3.org/2000/svg"><path d="M331 689c-6 0-14-2-13 9 0 13-1 26 0 38 0 8-2 12-10 13-29 7-58 7-88 0-7-2-10-5-10-13 1-12 0-25 1-37 0-10-6-10-13-10-8 0-13 1-12 11 0 16 1 32-1 49-1 13 6 18 17 21 30 10 61 11 92 8 45-5 50-11 49-51 0-9-1-19 0-29 0-9-5-10-12-9zm482 39c0-9-1-19 0-29 0-8-3-11-11-10-7 1-16-2-15 10s0 24 0 36c1 9-3 13-11 15-29 6-58 6-87-1-7-1-10-5-9-13 0-12-1-24 0-37 1-11-6-10-13-10-8 0-13 0-13 10 1 18 1 36 0 54 0 9 3 12 11 15 38 14 78 15 117 6 31-7 31-8 31-41v-5zM370 566c0-9-1-18 0-28 0-9-4-11-13-11-8 0-13 1-13 11 1 13 0 26 0 39 1 6-2 9-8 11-30 7-60 7-89 0-7-2-10-5-10-12 1-12 0-25 0-37 0-8-1-13-11-12-8 0-14 0-14 11 1 18 1 35 0 52 0 10 3 14 12 17 43 15 85 15 128 3 14-4 20-10 18-25-1-6 0-12 0-19zm394 44c22-6 22-6 22-29v-15c0-8-1-17 0-25 1-11-3-14-14-14-12 0-12 5-11 13 0 11-1 23 0 34 0 8-3 12-12 14-28 7-57 6-85 0-8-1-11-5-11-13 1-13 0-25 0-37 1-8-1-12-10-11-6 1-16-4-15 10v58c0 8 4 10 10 12 41 15 84 15 126 3zm148-121c-37-39-46-90-48-141-3-48 5-94 14-140 5-23-8-43-31-48-12-3-24-5-36-8-59-16-117-35-164-76-14-13-29-16-47-10-13 4-27 9-42 12-53 11-106 7-157-12-19-7-35-3-49 10-19 18-41 31-65 42-42 19-86 32-131 41-28 6-39 25-34 53 11 54 19 108 12 163-6 47-20 89-54 123-13 12-18 26-18 44 1 49 0 98 0 147h2c0 50 1 100 0 150 0 19 8 32 24 40 14 7 29 13 44 19 47 17 97 25 147 31 44 6 88 8 132 8 20 1 34-8 42-27 5-11 3-28 15-34 11-5 26-2 39-1 28 0 28 0 36 27 9 26 22 36 49 35 56-1 111-4 166-13 52-8 102-20 149-43 19-9 29-23 29-45 0-93 0-186 1-278 1-27-5-49-25-69zM400 725c-3 35-6 70-8 105l-1 4c-2 22-2 23-24 22-69-3-138-11-204-32-20-6-20-7-20-27V681 558c0-7 1-12 6-17 44-51 62-111 66-176 2-42 0-84-7-125-1-7 1-11 8-13 39-10 78-23 114-42 6-3 9-2 9 6 2 67 23 130 52 190 14 28 16 58 16 88 3 85 0 170-7 256zm151-18c1 24 3 49 5 74 1 10-1 15-13 14-15-1-29 0-44 0-14 0-28 0-42 1-10 0-15-2-14-14 3-31 4-63 7-95 4-60 5-121 5-182 0-35-2-71-8-107-5-24-17-44-26-66-18-43-32-87-35-134 0-14 1-28 5-41 1-7 4-8 11-7 43 13 87 16 131 12 20-1 39-5 58-10 17-4 19-3 21 15 3 29 0 57-6 84-9 37-21 72-38 105-15 31-20 64-22 98-6 84-1 168 5 253zm305 98c0 9-2 13-10 16-46 16-93 25-141 30-25 2-50 4-76 5-18 1-19 1-21-18-3-27-6-54-7-81-5-65-9-130-10-195 0-49-1-98 6-147 2-11 5-21 10-31 24-48 42-98 50-152 2-13 3-27 4-41 0-7 2-9 9-5 36 17 72 31 111 40 8 2 12 6 10 16-8 49-10 99-4 149 7 55 25 105 61 147 6 7 9 14 9 23-1 82-1 163-1 244z"/></svg>