<svg width="64" height="64" viewBox="0 0 1000 1000" xmlns="http://www.w3.org/2000/svg"><path d="M561 233c-169 1-334 167-333 336 1 110 72 182 181 185 174 5 341-158 342-332 0-119-71-190-190-189zm7 434c-33 23-50-8-71-22-62-45-114-101-164-158-30-35-32-63 1-95 14-12 26-26 38-40 40-45 77-52 126-5 53 51 106 103 151 161 10 13 17 28 25 42-23 51-62 86-106 117zm430-392c-9-73-38-92-111-74-15 4-29 9-36-7-9-23 14-24 26-34 11-8 37-4 32-28-4-19-18-33-37-38-25-7-29 17-41 29-9 11-20 24-34 15-14-10-8-25 0-37 16-26 41-54-5-72-40-17-83-53-126-6-49 53-33 165 27 205 31 21 61 46 72 82 15 50 46 64 79 57 31-2 47-3 63-5 50-8 100-19 91-87zM310 770c-35-11-62-39-83-71-18-29-24-71-76-63-38 6-79 0-114 21-61 36-28 82-13 127 17 47 43 39 74 15 11-8 26-16 37-4 15 18-2 30-15 38-30 20-36 41-7 66 36 32 39-6 50-25 7-12 11-29 29-23 21 8 13 24 8 40-6 23-33 48-8 70 31 27 71 45 114 37 36-7 47-41 54-73 4-20 4-41 8-77 6-32-7-63-58-78z"/></svg>