<svg width="64" height="64" viewBox="0 0 1000 1000" xmlns="http://www.w3.org/2000/svg"><path d="M833 387c-3-45-5-90-7-134-1-13-5-16-17-15-114 3-229 5-344 7-64 0-129 3-194 4-51 1-103 2-155 3-8 1-12 2-12 13 4 61 8 123 11 185 0 10 3 13 13 12 19-2 39-4 59-6 6 0 9-3 9-10-1-13 0-26 0-39-1-8 2-11 10-10h69c7 0 12-2 18-6 84-64 190-64 273-1 6 5 11 7 18 7 28-1 56 0 84 0 7 0 17-4 17 10-1 5 4 3 7 2 44-4 87-8 131-12 8 0 11-2 10-10zm-403-30c-113 0-207 94-207 207 0 114 94 206 210 205 112 0 203-93 203-208-1-111-94-204-206-204zm128 104c19 23 29 50 34 78 2 9 0 15-12 13-19-2-38-2-54-3-17 0-27-9-30-24 0-4 1-5 3-7 16-19 33-38 49-57 5-5 7-4 10 0zm-109-61c30 4 57 15 81 34 6 4 8 7 1 13-18 15-35 30-53 45-8 8-31 0-32-11-2-25-3-50-5-75 0-7 4-6 8-6zm-121 35c24-19 52-30 83-35 7-1 10 1 7 10-1 21-2 44-4 67 0 5 1 11-7 12-9 1-15 13-26 3-17-16-35-31-53-46-5-4-6-7 0-11zm-62 111c4-32 16-60 36-86 4-4 6-3 9 1 16 18 33 37 49 56 5 6-5 30-13 31-25 2-50 3-73 5-7 1-9-2-8-7zm34 118c-19-24-30-51-33-81-2-16 12-3 16-8 22 2 43 3 64 5 11 1 19 24 12 32-15 18-30 34-45 52-6 6-9 7-14 0zm108 62c-32-4-61-17-87-39 22-19 42-37 63-55 6-5 30 6 30 14 2 25 3 49 5 74 1 10-7 7-11 6zm21-100c-34 0-60-28-61-63-1-33 32-65 62-61 31-3 62 27 62 62 0 34-29 63-63 62zm25 100c-9 2-14 1-13-11 2-21 3-43 4-64 1-7 0-13 10-14 8-1 15-12 25-1 18 18 38 34 58 51-25 22-53 34-84 39zm104-60c-4 6-6 5-10 0-16-18-32-36-47-54-7-8 1-31 12-32 21-2 42-3 60-5 22 0 22 0 18 20-5 26-16 50-33 71zM38 648c-12 5-28 7-34 16-8 10-1 27-3 40-1 10 3 13 13 12h243c3 0 7 1 11-2-35-39-54-84-59-136-58 24-114 47-171 70zm631-97V422c0-5 2-11-6-11h-72c79 102 80 203 0 305 21 0 42-1 61 1 13 0 17-3 17-16-1-50 0-100 0-150zm175-177c2 33 2 33 35 31 25-2 25-2 24-28v-4c-1-21-2-40-3-60-2-27-4-55-5-82-1-4 0-8-7-8-14 2-29 2-44 3-7 0-9 3-8 10 3 46 5 92 8 138zm109 306c-27 0-49 20-50 47 0 26 22 49 49 49 27 1 48-20 48-48 0-27-20-48-47-48zm-113 0c-28 0-49 21-49 48s22 48 48 48c27 1 49-22 49-49-1-27-21-47-48-47zm104-49c0-28-21-49-49-49-26 0-47 21-48 48 0 27 22 49 49 48 27 0 48-20 48-47zM47 367c11 4 10 12 12 20 5 18 12 34 23 48 6 8 12 15 22 20-4-65-7-129-11-195-24 23-34 50-37 80-1 6 0 11-8 14-6 3-6 12-1 13zm224 44c-20 0-36 0-51-1-9 0-11 4-11 12 1 35 0 71 0 107 10-43 29-83 62-118zm160 127c-13 0-26 13-27 26 0 13 12 25 27 25 13-1 24-12 24-26 0-13-12-25-24-25z"/></svg>