<svg width="64" height="64" viewBox="0 0 1000 1000" xmlns="http://www.w3.org/2000/svg"><path d="M220 741c8 3 13-3 19-9 30-31 61-61 92-92 6-5 6-8 0-14C221 513 129 386 57 246c-23-44-42-89-52-137-5-21-7-42-2-64C10 19 27 4 55 1c38-4 74 6 109 19 84 31 160 77 234 126 82 55 159 116 229 185 5 5 8 5 13 0l88-88c3-3 5-7 4-13-2-13 1-26 6-38 24-67 64-123 119-168 24-20 43-19 68 0 16 11 30 25 42 42 16 23 16 40-1 63-15 20-33 38-52 54-39 31-81 58-129 71-8 2-17 4-25 3-7-1-11 1-15 6L616 392C496 512 376 632 256 751c-6 6-9 12-8 21 1 18-6 36-13 52-25 56-59 104-105 144-6 5-12 10-20 14-14 8-29 8-43 0-25-15-44-34-59-58-11-17-9-35 2-51 14-20 31-37 49-53 38-32 79-59 127-74 10-4 21-6 34-5zm121-362c0 6 1 14 4 22 15 52 44 96 79 137 4 6 6 2 10-1l103-103c5-5 5-8 0-12-29-25-61-46-95-62-20-10-41-18-64-20-25-1-38 12-37 39zm320 241c-1-18-9-40-19-61-14-27-30-53-49-77-4-6-4-9 1-13 26-26 52-53 78-79 5-4 7-6 12 0 111 126 209 261 280 415 18 38 33 79 36 122 1 10 0 19-2 29-7 31-32 47-70 44-43-4-84-19-123-36-101-45-193-106-281-172-46-33-90-69-132-107-6-5-7-8-1-14l78-78c5-5 8-5 13-1 37 28 75 53 120 65 8 2 15 4 24 4 24 0 35-11 35-41z"/></svg>