<svg width="64" height="64" viewBox="0 0 1000 1000" xmlns="http://www.w3.org/2000/svg"><path d="M936 478c-1-40-24-72-63-86-12-4-18-11-22-21-20-55-42-109-63-164-20-53-50-73-107-73H318c-56 0-86 20-106 72l-66 168c-2 6-7 13-13 15-49 20-70 52-70 105v222c0 2 1 4 3 4 18 0 34 1 51 0 13-1 18 3 17 17 0 25-1 51 1 76 3 36 39 60 73 52 32-8 50-31 50-66 1-25 0-49 0-74 0-2 2-4 4-4h476c2 0 3 2 3 4 0 24 0 48 1 73 1 50 38 79 82 65 24-7 40-27 41-52 1-28 0-57 0-87 0-2 2-4 4-4h64c2 0 4-1 4-3 0-81 2-160-1-239zM198 584c-37 0-67-31-66-68 1-36 31-66 66-66 36 0 65 30 64 68 0 37-28 66-64 66zm15-198c-2 0-3-2-3-4s1-4 1-6c18-49 36-97 55-146 11-29 21-35 51-35h156v8c0 2 1 4 3 4h48c2 0 3-2 3-4v-8h156c23-1 40 7 49 29l57 156c1 1 1 2 1 3 0 2-2 3-4 3h-36c-12-38-47-65-88-65s-77 27-89 65H213zm449-56c36 0 67 23 78 56H584c11-33 42-56 78-56zm141 254c-36 0-65-28-66-65 0-38 28-69 64-69 36-1 67 31 67 67 0 37-30 67-65 67z"/></svg>