<svg width="64" height="64" viewBox="0 0 1000 1000" xmlns="http://www.w3.org/2000/svg"><path d="M925 568c-31-78-93-121-170-142-29-7-47-21-63-45-132-202-417-178-528-57-73 80-97 178-101 283-2 32 20 48 52 49 27-87 67-121 138-120 68 1 108 36 132 119h205c18-75 57-114 117-119 76-6 114 24 151 119 78 9 95-15 67-87zM274 443c-25-1-49 0-74-1-32-1-46-17-30-48 39-72 102-111 182-124 10-1 26 16 36 27 4 5 2 17 2 25 0 133 11 121-116 121zm378-2c-32 2-64 1-95 1s-61 1-91 0c-28 0-43-15-43-43 0-30-1-61 0-91 1-28 17-43 45-38 87 16 154 63 201 137 14 20 7 33-17 34zM250 559c-63 0-107 43-107 105 1 57 48 104 105 104 59 1 107-47 106-107-1-61-43-102-104-102zm-1 157c-30 0-53-23-53-52 0-30 23-54 53-54 29 0 53 24 53 54 0 29-24 52-53 52zm471-157c-61-1-105 42-106 101-1 60 46 108 106 109 56 0 109-52 107-108 0-56-49-102-107-102zm1 157c-29 0-53-23-53-52 0-30 24-54 53-54s53 24 53 54c0 29-24 52-53 52z"/></svg>