<svg width="64" height="64" viewBox="0 0 1000 1000" xmlns="http://www.w3.org/2000/svg"><path d="M930 547l-2-1c-1-1-1-5 0-11 3-10 6-20 8-30 4-15-3-29-17-35-5-2-10-3-15-4-61-6-122-13-183-19-6-1-11-3-16-7-24-26-49-52-72-78-12-15-27-21-45-21-85 1-169 1-253 2-26 0-48 9-65 31-14 21-33 38-48 58-10 13-23 17-39 19-31 3-61 9-92 13-13 2-19 9-20 22 0 13-3 25 7 37 4 4 2 8-3 11-8 4-14 10-12 19 1 9 8 14 16 17l10 2c3 1 5 2 7 4 6 4 13 11 20 12 19 3 39 5 58 5s25-6 29-25c7-32 34-54 66-55 43 0 69 33 70 63 1 19 8 25 28 25h330c32 0 41-6 50-37 8-28 32-48 61-51 28-2 55 14 68 40l15 24c4 5 10 8 14 2 5-8 12-8 20-8 6 0 10-3 12-9 1-7-1-12-7-15zM468 437c0 5-4 9-10 9H304c-5 0-7-3-4-8 14-21 27-41 41-61 5-5 14-10 21-11 34-1 68-1 103-1h1c1 1 2 5 2 10v62zm192 9H503c-5 0-10-4-10-9v-62c0-6 4-10 10-10h70c3 0 6 1 9 1 15-3 26 4 35 16 15 19 30 37 46 57 4 4 2 7-3 7zm-390 81c-36 0-65 29-65 65-1 36 28 66 64 66 37 1 67-29 67-66 0-36-30-65-66-65zm0 108c-23 0-43-19-42-42 0-24 16-43 42-43 25 0 43 21 42 43 0 23-18 41-42 42zm545-108c-37 0-66 29-66 66 0 36 30 65 66 65s65-29 65-65-29-66-65-66zm-1 107c-24 0-42-18-42-43 1-24 20-42 43-41 29 1 43 24 42 44-1 23-20 41-43 40z"/></svg>