<svg width="64" height="64" viewBox="0 0 1000 1000" xmlns="http://www.w3.org/2000/svg"><path d="M937 370c0-15-7-23-23-23-13 0-25 1-37 0-18-1-30 5-38 22-2 6-9 11-15 19-2-7-4-10-4-14-15-48-34-95-60-140-10-19-26-32-47-38-11-4-21-8-33-9-50-4-100-9-151-10-70-2-140-1-210 10-40 6-71 23-87 62-13 30-27 61-40 91-6 15-10 30-15 44l-3 2c-5-7-11-14-16-22-5-10-13-17-25-17H84c-13 1-20 8-21 20-1 9-1 17 0 26 1 13 8 21 22 21h79l-6 6c-25 23-43 50-51 82-18 64-9 127 15 189 7 17 20 29 38 36 6 2 8 6 8 13v52c0 20 11 30 32 30h8c61 2 66-1 64-61v-13c77 2 152 6 227 6 76 0 152-4 229-6v45c1 18 12 29 30 29h43c20 0 31-11 31-30 0-18 0-36 1-53 0-4 2-9 5-10 28-12 43-35 49-63 7-30 12-60 15-91 5-61-16-113-61-156-1-1-2-3-4-5h76c17-1 24-8 25-24 0-6 0-13-1-20zm-689-21c12-30 27-60 41-89 2-5 8-9 13-10 38-12 78-18 117-18 63-1 126-1 188 2 31 1 61 10 92 16 4 1 9 5 11 8 27 42 45 88 55 136v4c-177-23-353-23-532 1 5-18 8-35 15-50zm-28 272c-30 0-55-23-55-53-1-29 25-54 55-54s55 24 55 54c0 29-25 53-55 53zm436-84c-7 24-15 47-22 70-2 9-7 13-16 13-79-1-157-1-236 0-8 0-13-4-16-12l-23-73c-4-12 1-19 15-19h282c17 0 21 6 16 21zm124 84c-30 0-55-25-55-54 1-29 26-53 56-53 29 0 55 25 54 54 0 30-25 54-55 53z"/></svg>