<svg width="64" height="64" viewBox="0 0 1000 1000" xmlns="http://www.w3.org/2000/svg"><path d="M879 416c10-1 20 0 31 0 19 0 27-9 27-32 1-23-7-33-27-34h-31c-29 0-46 18-48 49 14 12 30 18 48 17zm-48-17v-1c-2-4-4-7-6-12-17-47-35-95-51-143-9-26-26-42-52-44-64-4-128-9-192-11-84-3-167 2-251 11-25 3-43 16-52 42-7 20-14 41-21 61-11 31-23 61-35 94-2-5-3-9-4-13-10-25-21-33-46-33H98c-29 0-39 12-35 43 2 14 10 23 24 23 28-1 57 7 83-15-8 12-17 23-26 33-11 11-25 19-34 31-8 10-16 23-17 36-2 35-2 71-2 107v43h-2c-4 27 6 48 29 56 8 3 9 7 9 15v62c1 20 6 28 22 28 26 1 52 0 78-1 9 0 15-5 16-15 1-12 3-23 3-35 0-11 4-14 15-14h481c10 0 14 3 14 14 0 8 1 17 1 25 1 19 6 25 23 25 23 1 45 1 68 1 21 0 26-6 27-30v-61c0-7 1-11 8-14 24-9 35-31 30-57h-3c1-3 2-6 2-9-1-35 0-71-3-107-3-45-22-82-60-107-8-5-12-19-19-29h1v1zm-615-58c10-24 21-47 32-71 5-13 14-20 27-21 42-3 85-5 127-8 92-5 183-2 275 6l51 3c12 1 20 6 26 19 17 41 35 82 52 122 2 5 4 9 6 14H188c10-22 18-43 28-64zm-81 199c0-15 8-24 22-24 38-1 77-1 115 0 13 0 22 9 23 23 1 13 1 25 0 37-1 15-10 24-23 24H159c-16 0-24-9-24-27 0-11-1-22 0-33zm731 1c0 11 0 22-1 32 0 15-8 25-22 25-38 0-77 1-116 0-15 0-22-10-22-26v-32c0-17 9-27 25-27h109c17 0 26 10 27 28z"/></svg>