<svg width="64" height="64" viewBox="0 0 1000 1000" xmlns="http://www.w3.org/2000/svg"><path d="M635 365c-17-13-37-16-58-9 11 26 21 52 31 77 3 7 5 15 7 22 0 5-1 10-2 15-4-3-9-4-12-8-9-13-18-26-26-40-9-16-17-33-26-51l-118 83c13 35 31 67 36 104-1 1-2 2-3 2-3-2-8-5-10-8-12-19-24-38-35-58-5-7-9-15-13-23-18 12-36 25-54 37-43 30-87 61-131 91-5 4-7 7-4 13 5 13 9 25 13 38 1 4 1 8 0 12-16-12-23-30-34-46-19 14-38 27-56 40-21 14-42 29-62 43-14 10-19 24-13 38 5 15 19 23 35 20s32-8 48-12c-4-13-7-25-10-37l4-2c5 6 10 13 15 19 10 15 10 15 26 10 62-17 123-35 185-52 2-1 4-1 6-2-7-23-19-43-18-68 21 16 30 40 43 61 58-16 116-33 176-50-2-5-4-9-5-13-9-24-18-47-27-71-1-6-1-12-2-18l4-1c4 3 8 6 11 10 14 25 29 49 42 73 5 9 9 11 19 8 15-5 30-9 45-14 35-10 56-33 55-70-1-67-27-123-82-163zm288-7c-53 42-112 72-177 90 78-45 142-103 176-190-15-5-30-10-45-16-30 73-84 123-151 160 35-30 60-67 68-114-2-1-2-1-3-1-6-1-13-2-20-3-10 48-37 84-75 110 12 28 24 55 37 83 74-19 142-52 205-100-6-7-10-12-15-19z"/></svg>