<svg width="64" height="64" viewBox="0 0 1000 1000" xmlns="http://www.w3.org/2000/svg"><path d="M847 154H153C69 154 0 223 0 308v384c0 85 69 154 153 154h694c84 0 153-69 153-154V308c0-85-69-154-153-154zM262 361c2-3 3-3 6-1 19 17 38 33 57 49 4 3 3 4 0 7-32 39-65 78-97 117-2 2-3 3-6 1-16-14-32-28-49-42l1-1c8 3 16 5 24 8 10 2 20-2 23-11 4-9 0-18-8-24-7-3-13-7-20-11-5-2-5-4-2-8 15-17 30-35 45-53l26-31zM109 475c0 3-1 5-5 5-3 0-5 0-5-5-2-20-4-41-6-62 0-4 1-5 4-5h6c5-1 6 1 6 6v61zm39-6c-5-6-10-7-16-5-4 2-9 3-14 4v-49c0-2-1-4 3-4 13-2 25-7 38-11 14-4 27 0 41 2 3 1 7 2 11 2-8 11-16 20-24 30-2 2-5 1-8 1-4 0-7 1-8 5-2 4 1 7 4 9l32 18c6 3 9 7 7 13s-7 9-14 7c-14-4-27-9-41-14-5-1-8-4-11-8zm131 129c-14 0-28-1-41 0-14 0-25-5-35-13l-30-27c-6-5-7-12-3-17s10-5 16-1c10 6 20 13 30 20 6 4 13 7 21 7h40c3 0 6 0 6-3 0-4-3-4-6-4h-25c-6-1-10-5-10-10 0-6 4-11 10-11 21 0 42-1 62 1 14 1 22 9 28 19 8 14 13 29 19 44-20 2-38 3-57 5-2 0-4 1-5-2-5-7-12-8-20-8zm78 29h-56c-3 0-4-1-4-4s-1-6 4-6c21-2 43-4 64-6 3 0 3 1 3 3 2 12 1 13-11 13zm39-184c0-3 1-6 2-9s2-6 5-8c2-3 4-5 7-6s7-3 11-3 8 1 12 3c3 3 6 5 7 9l-6 4c-1-2-2-3-3-4l-3-3c-1 0-2-1-4-1h-3c-3 0-5 0-7 1s-4 3-5 5c-2 2-3 4-4 6 0 2-1 4-1 7 0 2 1 4 2 7s2 4 3 6c2 2 3 3 5 4s4 2 7 2c1 0 2-1 4-1s2-1 3-1c2-1 3-2 4-3s2-2 2-4l7 4c-1 2-2 4-3 5s-4 3-5 4c-2 1-4 2-6 2s-4 1-6 1c-4 0-7-1-10-2-3-2-6-4-8-6s-4-6-5-9-2-6-2-10zm81 122c-2 5-5 10-9 14-3 4-8 7-14 9s-11 3-18 3h-33v-90h33c7 0 14 1 19 3s11 6 14 10c4 4 7 9 9 14 2 6 3 12 3 18 0 7-1 13-4 19zm4-95h-2-2c-1 0-2-1-3-1s-1-2-2-3v-3c-1 3-4 4-6 6s-5 1-8 1h-5c-1 0-3-2-4-3-2-1-2-2-3-4s-1-3-1-4c0-2 0-4 1-5s2-3 3-4c2-1 3-2 5-3s5-1 7-1 4 1 5 1c2 0 4 1 5 1v-2c0-3-1-5-2-7s-4-2-7-2c-2 0-4 0-6 1l-6 3-3-5c5-3 10-5 16-5 5 0 9 1 12 4s4 6 4 12v13c0 1 0 2 1 2s1 1 2 1v7zm28-14c-2-1-4-2-8-3-2 0-4-1-6-2s-3-1-4-2c-1 0-2-1-3-2v-4c0-2 0-4 1-5s2-3 3-4 3-2 5-3h6c3 0 5 0 8 1 2 1 5 2 7 4l-4 4c-3-2-7-4-11-4-2 0-4 1-6 2-1 0-2 2-2 4 0 1 0 1 1 2l1 1c1 1 2 1 3 1 1 1 2 1 4 1 2 1 5 2 6 2s4 2 5 2l3 3c0 2 1 3 1 5 0 1-1 3-1 4s-2 3-3 4-3 2-5 3h-11c-2 0-4-1-5-1s-3-1-5-2c-1-1-2-1-3-2l3-5c5 3 9 4 14 4 3 0 5 0 6-1s2-2 2-4-1-3-2-3zm50 105v2h-52c0 3 1 5 2 7s2 4 4 6c1 1 3 2 5 3s5 1 7 1c3 0 6-1 9-2 3-2 6-4 7-7l14 4c-2 5-6 9-11 13s-12 5-20 5c-5 0-10-1-14-3-5-2-9-4-12-8-3-3-5-6-7-11s-2-8-2-13 1-9 2-13 4-8 7-11c3-4 7-6 11-8s10-3 15-3 11 1 15 3 8 4 11 7c3 4 5 7 7 11s2 9 2 13v4zm1-91h-8v-22c0-3-1-6-2-8s-3-2-5-2-3 0-4 1c-1 0-2 1-3 1s-2 2-3 3c0 1-1 3-1 4v23h-8v-54h8v23c1-3 3-5 6-6s5-2 8-2c2 0 4 0 6 1l3 3c1 1 2 3 2 5 1 2 1 4 1 6v24zm35 122h-9c-5 0-9-1-12-4s-4-7-4-12v-78h17v71c0 5 2 8 7 8 1 0 2 0 3-1 1 0 2 0 3-1l3 14c-3 1-5 2-8 3zm1-123c-2-1-4-3-6-5s-3-4-4-6-1-5-1-8c0-2 0-5 1-7s2-5 4-6c2-2 4-4 6-5s5-1 8-1 6 0 8 1 5 3 7 5c1 1 3 3 4 6s1 5 1 7c0 3-1 6-1 8s-3 5-4 6c-2 2-4 4-7 5s-5 1-8 1-6 0-8-1zm31 122h-17v-67h17v67zm0-76h-17v-17h17v17zm4-84h7v8c2-3 4-5 7-6s5-2 9-2c2 0 4 0 5 1s3 2 4 3c1 2 1 3 2 5s0 4 0 6v24h-8v-22c0-3 0-6-2-8-1-1-2-2-5-2-1 0-2 0-3 1-1 0-2 1-3 2s-2 1-3 2c-1 2-1 3-2 4v23h-8v-39zm48 160h-19l-24-67h17l17 53 17-53h17l-25 67zm99-30v2h-52c0 3 1 5 2 7s2 4 4 6l6 3c2 1 4 1 6 1 3 0 7-1 10-2 3-2 5-4 6-7l15 4c-3 5-7 9-12 13s-12 5-20 5c-5 0-10-1-14-3-5-2-8-4-11-8-3-3-6-6-7-11s-3-8-3-13 1-9 2-13 4-8 7-11c4-4 7-6 12-8s9-3 14-3 11 1 15 3 8 4 11 7c3 4 5 7 7 11s2 9 2 13v4zm51-22c-5 0-10 1-14 3s-7 5-9 9v40h-17v-67h16v15c2-5 5-9 9-11s7-5 11-5h2c1 0 1 1 2 1v15zm42 66c-2 5-5 9-9 12-4 2-9 4-14 4-3 0-6-1-9-2v-14h4c1 0 3 1 4 1s2 0 3-1l2-2c1-1 2-2 2-4 1-2 2-4 3-7l-27-67h18l18 52 17-52h16l-28 80zM462 451c-3 0-5 0-7 2-2 1-3 3-3 5s1 3 3 4 3 2 5 2 4 0 5-1 4-1 5-3c1-1 1-2 1-3v-5c-1 0-3 0-4-1h-5zm153 5c0-2 1-4 1-6s-1-3-1-5c-1-1-2-3-3-4s-2-2-3-2c-2-1-3-1-5-1s-3 0-4 1c-2 0-3 1-4 2s-2 3-2 4c-1 2-1 4-1 6 0 1 0 3 1 5 0 1 1 3 2 4s2 2 4 2 3 1 4 1 3 0 5-1 2-1 3-2 2-3 3-4zm-159 68c-3-2-5-4-9-6-3-1-7-2-11-2h-16v60h16c4 0 8-1 11-2s7-4 9-7c2-2 4-6 5-9 1-4 2-8 2-12s-1-8-2-12-3-7-5-10zm68 12c-2 0-5 0-7 1s-3 2-5 3-3 3-4 5-1 5-1 7h34c0-5-2-9-5-12s-7-4-12-4zm219 0c-2 0-4 0-6 1l-6 3c-2 1-2 3-3 5s-2 5-2 7h35c-1-5-3-9-6-12s-7-4-12-4zm-497-62c15 0 26-11 26-25 0-16-13-30-29-30-14 0-26 11-26 26 0 16 13 29 29 29zm-15-42c4 4 9-6 12 2 1 2-1 2-2 3-2 2-5 4-4 6 2 3 5 0 7-1 9-5 16-1 15 9 0 2-1 3 1 5 2 1 2 3 0 5-1 2-3 2-4 0-3-1-4 1-5 2-3 2-4 1-6-1-3-3 0-4 2-5l3-3c1-1 3-2 1-4s-3-1-4 0c-4 2-6 3-10 3s-7-2-8-6 2-8-2-12c0 0 3-4 4-3z"/></svg>