<svg width="64" height="64" viewBox="0 0 1000 1000" xmlns="http://www.w3.org/2000/svg"><path d="M627 570c-33-16-59-39-76-71-12-21-21-44-23-68-3-41-2-82 11-121 5-16 11-32 22-45 5-6 8-8 13 1 14 22 29 43 42 65 6 8 10 9 20 7 23-6 47-11 72-4 9 3 19 2 28 6 6 2 10-4 14-8 18-19 36-38 55-57 3-3 5-10 11-7 5 2 3 8 4 12 5 43 10 86 8 128-2 47-13 92-47 126-20 19-42 33-68 39-17 5-19 9-22 26-4 24-10 47-16 70-6 26-13 52-19 79-5 24-13 48-18 73s-12 49-21 73c-5 13-10 26-20 36-13 12-24 8-30-9-4-12-4-24-4-37-2-42 4-83 4-125 1-15-2-30-8-44-5-9-12-15-24-15-11 0-17 5-23 14-10 18-14 37-18 57-9 45-15 91-26 136-2 8-6 15-10 22-2 4-7 8-13 7-5 0-9-4-11-9-8-16-11-32-13-49-4-33-10-66-13-99-3-29-5-58-9-87-2-14-5-29-12-42-6-11-14-18-26-17-13 1-17 12-20 22-10 29-13 59-15 90-2 41-5 81-7 122-1 20 0 42-12 60-8 13-19 14-28 2s-14-26-18-41c-5-21-11-43-16-64-5-18-10-36-14-54-5-25-11-50-16-75-3-13-6-27-8-40-4-23-9-46-12-69-8-54-15-108-1-162 4-17 10-34 19-50 2-4 3-6-1-11-30-30-39-69-40-111-3-80 45-139 108-168 45-21 93-25 141-18 40 6 72 28 97 60 9 11 18 21 17 36-1 10-2 18-12 23s-16-1-22-5c-14-10-26-23-41-31-27-17-58-19-88-16-47 4-77 33-95 74-12 26-12 53 0 80 5 13 9 14 20 6 32-23 68-34 107-29 20 2 40 6 58 13 7 2 9 7 7 13-11 39-12 79-10 119 4 61 31 109 86 139 22 13 46 19 71 24 3 1 7 2 11-2z"/></svg>