<svg width="64" height="64" viewBox="0 0 1000 1000" xmlns="http://www.w3.org/2000/svg"><path d="M671 728c10 16 13 36 11 56-1 11-5 19-17 21-6 1-12 4-17-1-5-6 0-12 3-17 13-26 6-49-21-60-22-10-44-20-58-42-3-5-8-9-13-8-7 2-7 9-8 14-1 8-1 17-1 26-1 32-18 57-39 79-5 5-12 8-19 8-9-1-14-6-8-15 5-7 10-14 16-20 19-19 10-39 2-59-7-19-21-26-40-24-11 1-22 0-33 3-26 8-32 21-20 45 8 16 17 33 17 52 0 16-14 25-30 20-7-3-10-9-3-14 11-8 10-18 4-27-12-17-25-35-37-52-5-6-13-8-20-8-26 0-51 3-76 11-17 6-28 17-29 36 0 4 0 8-3 12-3 3-6 7-10 6-7-1-5-6-5-10-2-32 12-54 40-71 28-16 37-43 26-71-5-12-12-20-27-17-8 2-17 2-25 1-16-3-22-16-16-30 6-15 10-31 29-36 11-2 2-14 8-21 13 3 20 14 30 22 8 7 15 15 24 22 29 22 59 26 92 7 44-26 92-39 140-21 30 11 53 15 82-2 26-15 53 2 76 17s45 32 69 46c33 19 65 6 76-30 6-18 3-35-10-48-15-13-33-18-53-14-10 3-17 10-19 21 2 0 3 1 4 1 12 2 24 4 22 20-1 11-21 19-33 16-28-8-37-45-18-68 17-20 62-26 96-13 31 12 49 37 48 67 0 59-61 99-116 79-27-10-50-26-72-43-10-8-20-16-32-21-13-6-26-8-39-2-20 9-21 19-12 38 19 41 39 81 64 119zM236 491c1-6 7 0 10 2 23 12 41 29 59 46 32 27 56 33 96 11 54-31 112-35 170-8 8 5 14 3 22-2 25-16 52-20 80-8 13 5 25 12 40 20-8-40 10-65 45-78-18-27-41-46-69-60-59-30-122-36-185-28-79 10-152 3-212-53-31-28-62-57-70-102-3-14-11-27-20-38h-4c-7 13-13 26-13 41 0 11-5 14-14 17-20 5-39 14-44 35-3 14-12 20-22 26-10 5-20 10-30 13-16 4-15 12-7 22 15 19 36 26 59 26 13-1 21 4 27 15 21 37 45 71 72 104 2 2 6 15 10-1zm551 93c8 5 18 18 30 7 12-12 16-28 10-44-7-16-23-18-38-19 12 14 16 28 5 44-2 4-14 7-7 12zm26 82c-4-5-7-8-14-8-29 0-56-10-79-26-21-14-40-28-60-42-10-7-20-12-33-7-10 4-14 8-7 20 15 27 37 45 63 59 25 13 36 34 36 61-1 14-1 29-19 34-6 2-6 29-1 32 10 5 43-9 46-21 9-33 17-66 6-106 30 24 53 48 70 77 9 17 6 23-12 30-9 3-13 9-12 16 1 9 8 8 14 8 14 1 27 0 40-3 22-4 28-16 16-35-17-30-36-59-54-89zm115-89c-9-3-17-7-25-10-6-2-11-3-12 6-1 13-6 24-13 36 21 2 45-17 60-28l-10-4z"/></svg>