<svg width="64" height="64" viewBox="0 0 1000 1000" xmlns="http://www.w3.org/2000/svg"><path d="M917 435c-21-109-46-217-74-325-2-9-6-16-16-18-10-3-17 2-23 11-11 15-23 30-34 44-36 49-72 97-107 146-4 5-7 7-13 4-7-4-14-6-20-8-54-16-109-19-164-16-39 2-78 8-115 23-7 3-11 2-15-4L195 103c-6-8-13-13-23-11-9 2-14 9-16 18-15 60-30 121-43 181-20 87-39 175-49 264-6 59 6 114 38 164 5 7 8 7 15 3 46-24 92-48 139-72 7-4 15-4 22 1 6 5 9 12 7 20-1 8-7 12-14 16-43 22-86 45-130 67-8 4-7 7-1 12 8 7 15 15 23 23 5 6 9 5 16 2 38-21 77-41 115-61 12-6 24-3 29 8 6 10 2 21-10 27-6 4-13 7-19 10-29 15-58 30-88 46 171 119 424 116 591-2-10-5-20-10-29-15l-75-39c-12-6-15-17-10-28 5-9 17-12 28-7 1 0 3 1 4 2 36 19 72 37 108 56 7 4 12 4 17-2l21-21c8-9 8-9-2-14-42-22-84-43-125-65-10-5-14-13-13-22 2-14 16-21 31-13 45 23 90 46 134 70 5 2 8 3 11-2 27-44 43-90 40-141-3-49-11-96-20-143zm-700 31c-4-33 6-37 33-41 78-12 164 45 180 130 3 12-2 20-13 25-18 8-42 13-61 13-73-1-130-54-139-127zm400 198c-33 58-67 115-100 173-10 17-27 17-37-1L380 664c-10-18-2-33 19-33h199c21 0 30 14 19 33zm54-73c-8 1-15 1-22 2-21-1-41-5-60-13-13-5-17-13-14-26 17-78 87-133 167-130 11 0 21 2 31 5 11 3 16 9 16 21-2 63-40 128-118 141zm-235 79c-6 0-6 2-3 6l34 60c10 18 21 35 32 54 23-40 45-79 69-120H436zm-67-157c-27-32-61-51-104-50-4 0-8 0-7 7 9 48 51 83 102 83 6 0 14-1 22-3 4-1 6-2 4-7-5-11-10-21-17-30zm369-50c-49-1-100 33-118 79-3 5-2 7 4 8 8 2 15 3 20 3 51 0 90-32 102-80 3-9 0-10-8-10z"/></svg>