<svg width="64" height="64" viewBox="0 0 1000 1000" xmlns="http://www.w3.org/2000/svg"><path d="M913 728c-20-1-40-2-60-4-46-4-92-8-142-22 9-7 16-11 21-16 35-46 45-85-8-125-2-1-4-3-6-4-20-20-16-38 10-47 13-5 27-8 41-12 18-6 27-21 31-37 4-18-16-15-25-22-6-4-12-7-16-12-18-24-43-31-71-31-14 0-25-4-37-12-16-12-38-31-55-19-18 12-6 39-1 59 2 9 8 17 2 28-11 18-8 37-1 56 4 11 9 22 15 32 11 17-7 20-13 29-8 12-12 2-19-1-40-15-75-40-115-54-49-16-95-18-143 1-28 12-45 34-58 56-20 34-27 74-26 114 1 17-5 20-20 19-53-5-93-39-98-86-6-57 30-112 79-128 53-18 107-24 163-25 44-1 89-4 130-24 66-33 88-105 47-159-42-58-145-62-192-8-17 19-27 42-26 69 0 10-2 24 12 26 13 3 15-10 19-19 3-7 5-13 7-19 11-25 30-41 55-49 53-18 104 20 95 71-5 28-33 52-69 58-60 10-122 5-183 15-85 15-157 47-186 138-26 80 17 156 100 175 21 4 41 6 63 5 7 0 15-2 20 6 8 12 21 13 34 13 62 0 124 1 187-1 12 0 35 7 31-22 0-1 7-5 10-6 28-5 55-8 83-1 7 2 13 3 17 10 8 16 23 18 38 19 87 3 175 3 262 0 8-1 23 3 22-13-1-13-10-20-24-21z"/></svg>