<svg width="64" height="64" viewBox="0 0 1000 1000" xmlns="http://www.w3.org/2000/svg"><path d="M737 517c-46-2-88 10-114 52-22 36-22 74-2 112 18 33 63 58 95 53 8-1 18-2 21-12 3-11-7-15-15-19-12-7-25-12-37-20-23-15-30-37-24-63s25-40 51-43c46-5 86 23 99 72 17 64-15 134-80 179-107 74-272 64-397-5 11-8 23-3 35-4l114-3c8-1 19 0 21-12 1-9-2-17-8-24-7-10-18-11-29-12-20-2-40-3-64-5 13-23 24-42 36-62 18-29 28-61 16-93-10-28 2-34 22-38 7 76 35 142 69 207 17 34 43 44 77 41 11-1 30 5 30-15 0-17-9-29-28-30-24-1-34-14-38-37-2-19-7-38-11-57-16-69-4-126 57-170 26-19 38-50 48-80 12-35 9-67-18-94-9-10-17-20-25-30-24-31-17-49 21-58 11-3 23-3 35-7 24-7 38-26 44-48 5-23-21-21-32-30-7-5-15-10-20-17-14-20-34-32-58-32-44-1-81-15-117-40-10-6-24-16-36-7s-9 26-7 40c5 22 19 48 12 66-21 56-2 100 28 142-36 34-64 14-94-4-29-18-61-29-96-32-80-6-149 47-181 137-61 174 27 390 193 470 98 48 202 63 309 46 113-19 196-79 233-190 37-112-28-218-135-224z"/></svg>