<svg width="64" height="64" viewBox="0 0 1000 1000" xmlns="http://www.w3.org/2000/svg"><path d="M98 516c3-2 6-6 7-5 10 6 19-6 29-3-5-17-5-18-19-19-7 0-15 2-22 2-2 0-5-2-7-3 2-2 4-5 6-6 10-1 20-1 32-2 8 10 14 21 16 36 3 15 19 24 31 33v-22c0-6 1-12 2-17 2-9-6-9-9-12s-5-6-7-8c-6-7-13-14-19-21-4-4-9-7-13-10 24 5 33 26 49 40 2-4 4-7 6-11-3-4-6-10-10-10-10-1-13-8-15-17-1-4-2-8-3-10-10 0-20 1-30 0-6-1-12-4-19-5-9-2-19-3-29-3-6 0-8 3-7 9 3 26 18 45 31 64zm-12-64c15 7 28 16 38 28-15-10-28-19-42-28 2-1 3-1 4 0zm130 323c1 2 9 3 12 1 14-7 26-15 41-23-7-10-14-21-22-31-6-7-13 0-19 2-5 2-6 6-4 12 4 9 2 18-7 24-6 5-2 11-1 15zm95-28c-7-10-14-20-21-29-1-1-2-1-4-2-4-2-9-4-12-7-12-11-24-22-35-34-4-5-7-6-12-5-5 2-10 2-15 2l-1-4c5-2 11-5 17-8-5-4-8-11-13-13-9-4-18-5-27-7 3 24 15 41 36 53 23 13 44 31 52 59 12-2 24-3 35-5zm612-76c1-16-1-32-13-46-8 25-26 39-45 52 6 6 12 11 16 18 3 5 6 7 11 8 6 0 12 1 15 9h-5c-11-7-16 0-21 8-3 4-6 7-10 12-5-12 5-16 9-26-23-2-30 19-44 30 0-16 14-20 19-32-4 1-7 2-10 2s-6-2-8-3c-1 1-3 1-4 2-14 19-29 37-43 56 5 4 13 4 21 2 19-7 38-14 58-21 5-2 11-3 17-4 17-3 34-6 52-9-13-19-16-38-15-58zm-23 29c-9-9-6-22 8-37-1 14-16 22-8 37zm-59-159h-15s4 25-4 26c0 0 25 22 28 40l9-13-18-53zm65-34c-4 5-4 12-5 18h18l1 4c-5 1-9 4-14 5s-7 3-9 9c-4 16-10 31-15 46-2 5-6 8-9 12 0 2-2 3-2 4-2 11 0 37-2 49 11-3 18-21 30-25-6-29 5-54 20-77 13-20 16-40 9-63-8 6-16 11-22 18zm-45 34c-1 6-9 13-6 20s9 12 12 19c2 5 3 9 4 13 6-14 12-29 17-44 2-6 0-14-1-21-2-7-5-13-7-20l4-1 8 15h3l3-60h4c1 12 1 24 3 37 8-5 11-18 22-10-4-17-7-34-12-50-3-9-7-9-14-2-1 1-2 2-2 4-5 13-12 23-25 29-1 1-2 6-1 9 4 15 4 16-9 25-2 1-4 4-4 6 0 11 2 21 1 31zm-65 158c-2 1-5 3-6 5-7 10-13 20-20 29-4 6-8 10-14 17 9-2 16-5 20-3 5 2 7 1 9-2 6-4 11-8 15-13 12-14 22-29 33-44 1-1 1-3 2-5 2-6 3-12 6-17 3-7 7-14 10-22 6-13 6-26-7-36-6-5-8-14-17-16-2-1-4-6-5-9-2-3-3-7-5-12-4 7-6 14-11 18-7 5-7 12-8 19-1 6-1 12-3 17-2 10-5 18-13 23-7 5-14 11-20 17-3 3-8 7-9 11-2 9-5 16-17 14 0 7-1 13-1 19-1 14-5 25-17 33-6 4-9 10-13 16-1 1-1 3-1 5l12 36c2-4 6-8 8-14 5-11 7-25 22-29 1-1 1-2 2-3 8-11 16-23 25-34 16-20 16-29 4-51-1-2 0-5-1-8 3 1 7 1 8 3 4 5 6 11 10 18 13-26 12-54 26-78l3 1c-3 13-7 26-10 40 8-3 13-5 19-8l2 4c-5 3-9 7-14 10-3 3-9 5-10 8-5 11-8 22-12 33 11-6 21-11 32-17l3 5c-3 1-6 3-9 4-9 5-18 10-28 16zm-516-28c0-7-6-9-9-14-6-9-9-19-14-28-1-2-4-4-6-4-16-2-17-3-19-18 0-3-3-8-5-8-14 1-26-5-35-15-1-1-3-1-4-2-9-3-13-1-11 8 2 17 7 33 10 50h1c6-12 15-2 24-2-4-11-9-22-13-34l2-1c10 17 20 34 30 52l2-2 2-17h4c1 7 1 14 2 20 2 7 4 15 9 20 11 11 23 21 34 31 0-3-1-8-2-12 0-8-1-16-2-24zm-16-18c0 10 1 19 2 30-12-6-12-24-2-30zm560-222c-4 1-9 1-15 2 6 10 12 20 17 29 2 3 3 7 3 11l-3 21c0 2-1 6 1 6 6 4 4 10 4 15v10c5-2 9-3 12-5 3-3 7-7 8-10 1-7 0-15 0-22 0-4-1-8 5-11 3-1 6-6 1-11-2-2-4-7-2-9 6-7 3-12-2-15v-16c1-5 2-10 1-15 0-2-2-3-4-5-2-1-4-3-6-4 6-12 6-12 1-16-1 3-1 6-2 9-4 10-9 21-14 32-1 2-3 3-5 4zm-37 342c-7-10-15-15-26-14-12 1-22 5-26 17 4 3 8 5 11 8 5 4 9 4 14 1 4-2 9-2 14-3l1 4c-6 2-12 4-19 6 9 9 18 17 26 25-6 5-11 4-19-4-5-5-10-11-16-18-4 11-7 21-11 30l-3-1c2-7 4-14 7-20 4-12 4-12-6-21-5 7-9 13-14 19-6 7-12 14-17 20 10 9 18 12 30 10 3-1 7 1 10 3 15 10 29 7 44 0 8-5 14-15 12-24-2-13-4-26-12-38zm-68-102c1-1 3-3 4-3 12 0 13-9 15-18 1-3 3-5 5-7 2 3 5 6 4 8-2 6-5 13-9 19-2 4-4 8-7 13h12c8-19 12-24 27-37 3-3 9-5 11-9 10-12 8-28 10-43 1-3 3-9 5-9 7 0 9-6 11-11 2-7 4-15 7-22s8-14 11-21c1-2 0-4 0-6 0-3-1-7 0-10 2-7 2-11-8-9 2-5 4-8 6-13-6 0-8-2-6-7 2-4 4-8 4-13 0-2-3-7-3-7-9 1-7-4-8-8 0-5 0-12-3-15-8-6-8-13-5-21h12c4-4 7-6 10-9 2-2 5-5 5-6-5-6 0-8 4-12 1-1 1-3 2-4-3-2-5-4-8-6 3-2 5-4 7-6 1-2 3-4 4-6-1-1-3-3-5-4-5-1-6-3-4-8 4-12 3-14-9-19 0-4-1-9-1-13h-9c-1-5-2-9-2-13-9 1-12-7-18-10s-13-6-20-9l1-4c4 2 8 3 12 4 8-6 10-13 6-23-1-2 1-5 1-8h3c2 5 4 9 6 14 7-5 14-10 22-15 1-1 4 1 6 1-1 2-1 5-3 5-7 3-8 9-9 16 0 0 0 1-1 1-2-1-3-3-4-4-3 1-5 3-7 5 8 3 14 6 21 9l-1 3c-6-1-11-2-16-4-11-3-11-3-14 1 5 12 24 8 24 23 4 2 8 4 11 6 11-11 12-24 9-38-3-10-4-19-5-27-18-2-36-4-55-5-1 3-1 6-2 10-5-7-10-13-15-19 0-1 2-2 2-3l3-21-2-8c0-9-3-12-13-12-1 1-3 0-4-1 1-14 0-15-13-9-1 0-5-2-6-4-3-4-3-8-5-13-11 7-11 6-15-5-1-2-6-5-7-4-7 3-9 0-11-6-2-7-6-8-11-2-4 3-7 3-9-2-3-9-9-8-16-4-2 2-7 3-8 2-9-9-15-3-23 1-6 4-13 5-19 7 0-1 0-1-1-2 2-3 3-6 6-11-5 0-8-1-11 0-5 3-7 1-10-4-1-2-5-4-6-4-10 5-18-2-26-4l7-2c1-1 1-2 1-3-3-1-7-4-10-4-5 2-9 0-12-4-3-5-8-7-14-3-4 3-7 1-10-4-1-3-7-4-11-5-3 0-7 1-11 2-2-9-8-8-15-6-4 1-8 1-11 1-7-1-12 2-14 8s0 11 8 12c-12 6-12 6-16-7-6-3-11-4-15-7-8-4-15-4-23 1-8 4-15 9-24 11-8 2-10 8-15 14-4 5-16 5-18 10-4 11-14 16-22 23-3 2-5 4-8 5-1-3 0-6 1-8 1-3 3-6 5-10-7 0-13-1-19 0-11 0-18 9-22 20-4 12-9 25-26 27-7 1-14 7-21 11-1 1-4 4-3 6 2 7-3 8-8 9-8 2-12 8-14 16-1 4-3 8-6 12-2 6-6 11-8 17-4 11-7 23-10 34 0 1 0 1-1 2-14 8-12 20-10 33 2 7 6 12 14 9-1-9-2-17 7-23 1-1 1-3 2-4 1-9 6-14 13-18 4-2 8-6 10-10 10-15 39-24 56-15-5 1-8 2-11 2-13 1-24 4-34 12-2 2-5 5-4 7 2 6-2 6-6 7-12 3-15 8-17 21 0 2-1 4-2 5-10 2-7 8-6 15 1 4 0 7-6 6-16-2-28 11-27 28 1 2 0 5-1 7-6 7-9 15-5 20-2 9-5 15-6 21 0 6 4 12 5 19 1 6 2 11 11 10 2 0 6 1 7 3 5 10 15 14 25 9 8-4 14-7 21-3 5-4 8-7 12-10l2 2c-2 5-4 9-6 13-2 2-7 4-8 3-7-5-13-4-20 0-3 2-6 3-9 3-13 3-21 14-16 25 2 7 1 11-2 17-2 6-2 11 6 12 5 2 7 4 4 9-2 5 1 8 5 10 6 3 11 6 15 13 3 6 10 12 17 14 12 2 15 10 17 20 0 3 4 6 7 6 10-1 14 3 16 12 1 2 2 4 4 9 0-8-1-14-1-19-14-5-20-14-18-28 1-2 0-4 0-7v-19c0-4 2-7 1-10-2-10 4-18 13-20-11 10-11 11-5 25 1 2 0 6-1 9-3 4-4 8 1 11s3 6 1 9c-5 8-1 18 7 20 3 1 7 1 12 1-8 14-2 26 7 38-1 0-1 1-2 2-3-1-5-2-11-3 5 6 11 9 13 14 3 10 6 21 5 31-1 16 9 25 21 33 5 3 12 6 17 5 7-1 9 1 10 6 0 6 3 7 8 7 6 0 12-1 17 1 8 4 13 3 18-4 12 10 12 10 23-2 1-1 2-3 4-3 1-1 24 10 24 12 4 11 9 15 20 13 5-1 7 0 10 4 2 3 7 5 10 8 2-4 6-6 7-10 5-14 14-22 29-24 19-2 38-3 57-5 17-1 34 0 49 10 12 7 26 8 39 1 3-1 6-2 9-2 9 1 17 2 15-11 8-7 12-16 17-25 3-7 5-13 5-20l1-2c-3 0-6 0-9-1l-2-2c4-2 10-6 11-4 8 6 13 4 17-4zm26-66c-5-2-7-4-10-5 2-3 3-5 6-8s6-6 11-9c6 19-3 34-9 49-3 6-9 9-16 8-1 0-3-2-4-3 0-1 1-4 2-4 15-4 11-20 20-28zM641 241c10 3 20 7 29 13 8 4 13 37 8 45 0 0-1 1-3 2-2-12-3-22-6-33-1-6-3-12-12-10-1 0-4-2-5-3-10-11-10-11-24-7 1-7 5-10 13-7zm-73 64h-17v1c2 1 3 2 4 5 1 4-2 10-7 10 0 1-1 1-1 1h-1c-1 0-2 1-2 1 0 1-1 1-1 2l-1 1c-1 1-1 2-2 3l-2 4c-3 4-8 6-12 3-5-2-6-8-4-12 4-5 7-12 12-16-8 0-17-2-26-2-5-1-9-4-9-9s4-10 9-9c12 1 24 3 36 3 4 0 6 2 7 4h17c6 0 6 10 0 10zm-28 189c-2-2 0-8 0-12h3c-3 11 16 21 1 33 2-8 3-15-4-21zm-31-53c-11 12-27 18-43 21-6 1-8-9-2-10 3 0 6-1 9-1-1-1-1-1-1-2v-7c0-3 3-5 5-5 3 0 5 3 5 5v6c7-3 13-7 18-12 10-10 12-23 8-37-1-6 8-8 10-2 4 15 1 31-9 44zm7 153c-11 7-25 6-32-3 10 1 20 2 32 3zm-98-267c5-7 10-6 15-2s9 7 13 11c2 2 4 4 4 6 1 9 6 14 16 15l-19 9c1-20-8-33-29-39zm51 239c-11 3-19-4-19-18 7 7 13 13 19 18zM345 240c7-7 17-7 26-7 3 0 6 1 7-1 8-8 19-11 28-16 10-5 20-4 32 0-15-13-14-25 0-37 3-3 3-7 6-10 1-2 3-2 5-4 1 2 2 5 1 6-2 7-2 14-11 17-6 2-5 11 0 19 6-1 11-3 15-2 11 3 19-1 28-5 14-5 28-11 42-15 6-2 14 1 21 2 2 0 3 2 5 2 9 0 12 6 14 13 2 10 3 21 4 31 1 2-1 4-3 7-2-2-4-2-4-4-1-9-3-18-4-27-1-6 0-13-10-12 0 0-2 0-2-1-11-10-19-5-26 2-20-1-36 6-50 18-6-7-15-5-23-4-3 1-4 8-7 15-2-1-7-2-11-3-4 0-10-3-12-1-10 10-27 5-35 19 0 1-5 1-7 1-14-1-24 1-29 17-4 9-11 3-17 2 6-8 11-15 17-22zm9 94v9c-1 6-10 6-10 0 1-18 2-43 24-49 6-1 8 8 2 9-9 3-13 11-15 21 8 5 15 10 19 19 1 2-2 5-4 5-2 1-5 0-6-3-1-4-5-8-10-11zm4 23c-7 7-10 16-10 26 0 6-10 6-10 0 0-12 5-23 14-32 4-5 11 2 6 6zm-39 120c-1-3-3-6-5-10 4-4 6-6 11 1 4 7 5 13 2 20 0 5 0 10 1 16l9 9-1 1c-5-1-11-3-16-3s-10 4-17 4c5-4 10-8 13-11 4-6 7-11 10-16-2-4-4-7-7-11zm-22-106c-3 7-5 14-7 21-1 2-2 6-4 6-9 0-7 7-7 13 0 3-1 6-2 9-2 8 1 14 8 19-11 4-19-3-17-17 0-8 2-15 4-23 0-1 0-1 1-2 5-11 11-21 17-31 3-6 4-12 7-17h3c3 8 1 15-3 22zm3-138c4 10 7 17 10 25-8 0-12-9-10-25zm22 412c-15 9-15 9-20 6 6-4 13-8 20-12 4 3 10 8 16 11s13 4 17-5c12 6 21 1 29-8 3-2 7-4 10-4 10 1 17-3 21-12 2-3 5-4 7-6 1 3 2 7 1 9-5 11-13 18-26 18-3 0-6 1-9 3-8 6-16 11-28 8-3 0-6 3-10 3-11 2-21-2-28-11zm232 34l-15-24c9-2 17 10 17 23l-2 1zm28 36c-6 2-13 1-15-9 4 1 7 2 10 2 3-1 6-3 9-4 5-1 10-3 15-4 1 1 1 2 1 3-7 4-13 9-20 12zm101-252c-2-1-5-1-5-2-5-10-10-4-15-2s-10 5-14 7c-2 2-6 6-5 7 2 7-3 8-7 11-6 3-13 7-6 16 0 1 0 5-1 6-7 5-3 8 2 11 3 2 7 4 10 6 0 1-1 2-1 3-4 0-9 1-12-1-11-4-22-2-30 6-1 2-2 4-2 6 0 12 1 24 1 36-1 5-3 11-6 13-7 5-6 9-4 15l3 15-2 1-7-7c-11 9-23 14-37 15-3 0-6 4-7 6-2 5-2 9-3 14-4 10-9 14-20 13-10-1-23 7-26 17-1 2-1 4-1 5v16c3 3 10 7 1 13 3 4 5 8 9 10 3 3 8 5 12 8-17 4-28-6-27-22 0-6 1-12-1-18-3-11 3-19 9-27-4-2-8-4-11-6-3 10-6 20-10 29 0 1-2 3-3 3-15 6-27 17-45 14-10-1-21 4-31 6-4 1-9 3-13 2-9-2-18-5-26-8-8-2-11-7-12-17 3 3 6 5 8 6l15 6c4 1 9 2 13 2 4 1 9 2 10 0 6-6 12-8 20-3 1 0 4-1 7-1-3-10-19-18-5-32-2 10 1 16 8 19 3 2 6 4 7 6 3 11 12 10 21 9-2-16 15-7 19-16-6-4-7-6 2-10 3-1 5-6 6-10 1-3-3-7-5-8-7-5-15-8-23-12-10-6-16-12-15-26 1-6-3-15-8-19-10-10-6-20-1-30-11-5-18-12-16-24 0-2 6-4 11-8-7 18 8 19 14 25-3 9-6 17-9 27 13-1 13 5 12 13 0 2 1 6 3 8 3 5 8 8 6 16s14 13 24 8c2 16 12 17 24 13 3 9 15 13 20 7 6-7 10-5 17 1 2-8 5-14 5-20 1-10 5-13 15-13 7 0 14 0 19-3 6-3 11-9 15-14 2-3-1-9-2-16 5-3 18 0 15-14-1-3-4-5-7-10 1-6 20-17-5-23 2-3 4-5 6-6 11-1 12-8 12-17-1-8-4-14-13-14 0-4 1-9-1-12-2-4-5-9-9-11-7-4-7-5 0-11 12 17 28 32 30 55 4-1 9-3 13-4 1-12-1-24 7-34 5-5 12-7 13-16 1-6 31-20 37-18 3 2 6 6 9 10 1 0-1 2-1 4zm-31-37c-2-4-3-6-8-4s-7 0-8-5c-1-4-4-7-6-10 0 0 1-1 2-1 8 6 17 12 25 18 2 1 4 3 6 4 2 3 4 6 4 9 0 2-2 5-4 8l-2-2v-3c-3-6-7-9-9-14zm49 6c-9-5-13 1-16 7l-6 6c0-5-1-9 1-10 7-6 7-16 15-21 3-2 3-8 6-12 3-5 2-8-1-13-1-1 0-5 0-8 1-3 4-6 3-8-6-13-5-27-6-40 0-2-3-5-5-6-3-1-8-1-11-3-9-7-19-4-27 0-9 3-16 11-24 17l-6 6-3-2c4-6 6-12 11-16 11-10 25-16 40-15 3 0 7 0 9 2 4 8 9 5 13 0 4-4 6-11 15-7 2 0 6-5 9-7-1 7 0 17-12 15-2 0-4 3-5 3 8 31 13 61 7 93 6-2 10-4 15-5 3-1 6 0 8 0 0 2 0 5-1 7-3 8-7 11-15 6-1 0-6 4-8 6s-6 5-6 5zm-90 407c5-17 23-18 34-29-3-2-4-3-6-3-2-1-4-2-6-2l-55 1h-14v-4c17-8 36-3 52-5-6-9-13-19-19-29-7 5-15 12-23 18-7 5-14 8-15 18 0 2-3 5-5 7-5 4-10 8-14 12 8 4 16 7 22 12 21 16 44 20 71 17 26-4 43-20 60-38 2-3 3-8 4-11-15 3-32 5-46 10-14 6-26 17-40 26zm-139-58c-6-5-10-10-15-13-2-2-4-2-6-2-12 1-21-4-24-17-6-1-14-4-16-2-15 14-32 5-48 6-4 6-8 13-12 20-11 17-5 47 12 53 16 6 33 7 50 10-7-18-14-33-20-49l-20 21-2-2c2-4 4-9 7-12 8-10 19-17 20-31 0-2 2-4 4-6 0 5-1 10-1 16-1 20 8 37 17 54 2 4 3 8 5 15 16 7 34 11 51 5 1-12 2-23 2-33 0-1 0-3-1-4-7-9-6-20-3-29zm-69 2c22 7 37 15 40 22-18 0-32-7-40-22zm9 26c13 4 24 6 36 10-13 6-27 3-36-10zm245-55c-17 4-34 2-49-6-7-4-15-6-23-8-13-2-25-1-32 13l15 9-2 3c-3-1-7-1-10-3-10-4-11-4-15 5 4 4 7 8 11 12l-2 2c-5-3-9-5-15-9l-22 39c-6-10 2-19 4-28-6 1-12 1-18 2l-1-4c6-1 13-2 19-5 5-3 9-8 14-12l-1-2-28 6-2-3c2-2 4-5 6-5 8-2 17-3 25-5 3 0 6-1 8-2 3-3 6-6 11-10-10 0-17 0-25 1s-16 2-24 6c-6 3-13 7-9 17 1 1 0 5-1 5-10 5-10 13-10 21s1 15 2 22c0 8 0 17 1 25 2 10 3 10 12 4 4-3 9-5 14-5 9 0 14-4 13-12 0-6 2-8 7-9l9-6c8-6 16-11 17-22 0-1 2-1 3-2 11-11 23-22 35-33 1-2 5-3 6-2 2 1 2 4 2 6 0 3-1 6-1 8 8 16 19 28 37 31v-24h2c4 10 9 20 14 32 15-4 29-8 45-12-1-8 1-18-3-24-10-18-19-20-39-16zM166 594l2-3-5-5c-5-4-11-6-15-10-17-15-33-31-49-46-13-13-15-13-28 1-2 3-4 5-5 8-5 7-5 15 3 19 23 11 46 22 69 31 9 4 19 3 28 5zm3 17c-1-2-4-7-6-7-14 0-29 0-43 1-4 1-11 6-13 10-9 19 1 41 20 48 14 6 27 12 41 16 8 3 17 4 26 7-4-10-8-16-10-23-6-17-10-35-15-52zm-13 39c-14-10-27-20-47-15 12-16 48-5 60 18-5-1-10 0-13-3zm25-88c-6-6-11-11-20-8-5 1-10 3-14-4 4-1 8-1 12-2-5-6-9-11-12-15-7 2-13 4-19 4-1 1-4-3-6-5 3-1 5-3 7-3 4-1 9-1 13-1-3-5-5-10-7-14-11 3-22 5-34 7 20 16 38 32 57 48 4 3 11 5 15 4 10-3 19 0 29 3-4-2-7-4-10-6-4-3-8-5-11-8zm244 293c-8-8-17-15-29-13h-11c-18-1-34-9-42-26-9-18-7-35 4-51 3-5 6-9 10-14-12-3-16-3-17 3-4 12-8 24-11 37-3 16-1 31 14 42 8 7 16 15 24 23 2 1 3 4 5 5 9 9 18 19 28 27 2 2 6 3 9 3 24-1 39-21 60-30-12-2-24-2-36-3-3 0-6-1-8-3zM321 754c-13 2-28-1-39 4-27 12-52 28-78 42l3 4c1 1 2 2 4 3 31 20 64 25 99 13 13-4 16-24 7-34-3-3-4-8-6-12l3-2c3 3 6 6 9 10l9-30c-4 1-8 2-11 2zm-20 49h-3c-1-3-3-6-4-9-12 1-7 15-13 20v-3c-5-1-10-3-15-3-11 1-22 3-33 4-3 1-7 0-12 0 8-12 20-7 30-10-3-3-5-4-8-6l1-2c14 1 29 13 42-3-1-1-3-2-7-4 9-2 17-3 24-5-1 6-1 13-2 21z"/></svg>