<svg width="64" height="64" viewBox="0 0 1000 1000" xmlns="http://www.w3.org/2000/svg"><path d="M993 819c-24 47-62 68-110 68H116c-9 0-19-1-28-3-25-6-33-19-23-43 6-15 15-29 23-43 4-8 9-14 4-24-9-18-17-36-27-59-18 31-34 58-49 86-39 73-5 136 78 146 9 1 18 1 28 1h756c13 0 26-1 38-3 68-9 99-58 77-126zM344 354c39-69 79-138 119-207 26-43 49-44 75-1 31 54 62 108 93 163 7 11 15 19 28 24 47 20 74 60 72 108-1 36 12 61 27 88 20 34 40 68 59 102 24 40 24 40 48 1 7-10 15-16 6-31-95-164-189-329-286-493-43-74-124-74-168-1-62 104-121 209-186 321 25-11 42-20 60-26 25-8 41-25 53-48zm341 88c-2-34-23-58-60-68 2 6 4 9 5 12 13 31 13 31-18 44-121 54-242 107-364 160-18 8-35 11-54 3-17-7-35-12-53-18-12-4-22 0-31 7-10 9-2 18 1 26 9 21 19 42 27 63 6 16 13 15 27 9 39-16 77-36 117-51 17-7 25-11 32 9 4 13 14 6 21 3 30-13 59-27 89-39 21-9 43-29 60-22 18 7 20 38 28 58 8 23 14 43 43 22 7-5 17-1 24-8-11-27-21-55-33-81-7-16-3-22 12-28 28-11 55-23 83-36 31-14 47-37 44-65zM299 547c98-47 198-88 298-131 19-8 19-16 11-31-18-35-51-47-89-30-95 41-190 83-284 124-45 19-89 39-138 60 20 7 36 11 50 18 53 27 101 15 152-10zm360 161c0 13 4 25 1 35-6 22 5 22 22 22 62-1 125 1 187-1 28-1 40 6 35 34-2 14 2 23 19 24 17 0 19-10 19-23V680c0-13 2-28-19-28-22 0-21 15-19 28 4 25-8 29-30 28-72-1-143 0-215 0zm-121 27c-1 23 17 43 40 44s43-18 43-41c0-24-18-43-41-43-22 0-41 18-42 40zm-414-19c10-3 8-13 5-22-15-32-28-64-43-96-4-9-9-20-26-18 18 42 35 82 53 122 2 6 3 17 11 14z"/></svg>