<svg width="64" height="64" viewBox="0 0 1000 1000" xmlns="http://www.w3.org/2000/svg"><path d="M63 204c3 0 5-3 8-4 39-25 79-50 118-76 5-3 8-3 11 3 1 3 3 5 5 8 5 6 10 13-2 18-4 1-1 4 0 7 7 11 14 22 22 33 3 4 3 8 2 13-4 17-7 35-12 52-1 4 0 7 2 11 25 42 51 83 76 125 3 6 5 6 10 3 18-13 37-25 56-37 3-2 6-4 9 0 23 37 45 75 58 117 6 17 4 34-1 52-6 20-13 39-22 58-2 5-5 6-9 6-26 1-52-1-77-6-16-3-28-12-39-22-31-29-54-63-77-97-3-5 0-7 3-9l57-36c6-3 5-6 2-11-25-41-49-82-74-123-3-5-6-7-12-9-16-3-33-7-49-10-5-1-9-3-11-8-7-11-14-21-21-32-3-5-5-7-10-3-5 5-8 3-11-2-4-6-7-13-12-18v-3zm141 2c1-3 0-4-1-6-7-10-13-20-19-29-2-4-4-4-8-2-20 13-40 26-61 39-3 3-4 5-1 8 6 9 12 19 18 28 1 3 4 5 7 5l48 11c3 0 5 1 6-3 4-17 7-34 11-51zm734 654c-8 0-14 3-21 6-11 4-21-1-30-7-2-1-3-3-2-5l6-24c1-2 2-3 4-3 9-3 19-10 27-8 7 2 6 15 10 23 2 5 2 10 6 15v3zm-121 18H186c-10 0-10 0-9-10 2-11 4-22 5-34 1-5 4-7 7-9 19-10 38-21 58-31 5-3 7-5 6-12-4-22-6-44-9-66-1-7 0-10 8-10 25-2 51-5 77-7 6 0 8-2 9-8 0-10 2-20 3-30 0-4 1-6 6-6 32-3 63-6 95-8 7-1 8-3 9-9 1-22 3-44 5-66 1-8 8-13 12-19 4-8 10-10 19-7 6 2 14 4 21 5 9 0 11 5 12 12 0 8 2 16 2 23 0 6 3 8 9 8l53-4c7-1 9 1 10 8 0 21 2 42 3 62 0 6 2 9 7 11 22 8 43 17 65 25 5 2 7 4 7 10l3 48c1 7 5 9 10 8 8 0 17-2 25-3 10-1 11 1 12 10 0 11 5 18 14 24 8 5 17 8 26 10 3 1 7 1 7 5 4 28 23 45 40 65 1 1 2 2 4 5zm27-200c21 0 35 10 46 26 10 16 17 34 23 51 2 6 1 12-3 18-6 11-16 19-29 23l-42 15c-2 0-4 2-7-1-11-13-24-24-37-35-8-7-11-14-9-24 4-24 15-45 31-63 7-9 18-8 27-10zm-31-104c-1 9-2 16-4 22-2 7-6 12-14 15-5 2-9 4-14 6-20 9-29 3-38-15-8-17-8-36-2-54 4-13 10-15 23-11 10 3 21 8 33 7 5-1 8 3 10 7 4 8 5 16 6 23zm-148-87c6 0 12 2 17 6 7 5 11 11 9 20-3 10-10 18-19 19-7 1-14 2-22 3-5 1-9 0-8-7 0-6 0-12-1-17-1-16 7-24 24-24zm225 159c-9-1-17-4-24-8-3-2-2-5-2-7l6-21c1-2 1-4 3-4l27-9c3-1 4 1 5 3 3 11 7 22 11 33 0 2 1 4-2 5-8 3-17 6-24 8zm-140 54c-4-1-6-2-9-3-17-4-18-6-13-22 1-6 1-13 6-16 8-4 18-6 27-9 3-1 3 2 4 4l11 31c0 3 2 5-1 6-9 3-18 6-25 9zm-98-115c1-8 6-13 12-18 1-1 2-1 4 0 9 3 19 6 29 10 5 2 7 9 7 15s-4 9-9 11l-8 3c-18 6-22 5-33-12-2-3-2-6-2-9z"/></svg>