<svg width="64" height="64" viewBox="0 0 1000 1000" xmlns="http://www.w3.org/2000/svg"><path d="M937 530c0-78-51-136-128-148-14-3-19 1-19 16 1 36 0 72 1 108 0 10-2 15-14 15-16 1-24-4-21-21 1-8 0-16 0-24 0-57 0-57-57-55-16 0-15 9-16 19-2 12 4 14 14 13 11-1 16 2 16 14-1 49-1 98 0 147 0 12-4 15-16 15H218c-13 0-16-4-16-16V470c-1-14 4-18 17-17 8 1 17 1 14-11-3-8 2-20-15-21-58-3-58-4-58 53v6c0 44 0 43-43 41-10 0-14-4-14-14 1-23 1-45 0-68 0-13-7-22-21-22-13 1-19 10-19 22 0 67-1 134 0 200 0 14 6 23 20 23s20-10 21-23v-47c0-33 0-32 33-34 19-1 24 5 24 24-1 88-1 175-1 263 0 16 0 26 22 26 21 0 20-10 20-25V689c0-14 4-18 18-18h451c39 0 40-1 41 37 1 10 4 12 12 10 5-1 10-1 14 0 15 4 19-3 18-17-1-42 0-84 0-126 0-13 3-16 16-17 15-1 21 5 19 20-1 7 0 15-1 22 0 11 4 14 15 14h118c12 1 15-4 14-15v-69zm-74-33c-12 0-20-8-20-21 0-14 9-20 21-22 14 2 22 9 22 23-1 13-10 21-23 20zm-617-96c3 11 9 19 18 25 57 44 123 62 215 62 28 0 74-10 118-29 47-19 81-49 84-103 0-2 1-3 1-4 15-68-2-126-56-170-88-73-254-71-341 3-40 34-59 77-56 130 2 29 9 57 17 86zm83-232c84-47 172-47 257 0 56 31 55 84 0 118-40 24-84 31-129 32-35-1-70-6-103-20-9-4-18-8-25-13-54-34-55-86 0-117zm-69 297c17 74 109 130 206 126 95-5 179-60 188-125-131 72-262 72-394-1zm472 267c-37 1-66 32-65 70 0 37 31 68 68 67 36 0 68-32 67-68 0-40-31-69-70-69zm1 104c-19 0-34-16-34-36 0-19 16-35 35-36 19 0 36 17 36 37-1 20-18 36-37 35zM572 254c30-28 27-54-10-74-32-17-67-22-94-21-52-1-94 8-119 23-31 19-34 44-8 70 56 55 173 56 231 2z"/></svg>