<svg width="64" height="64" viewBox="0 0 1000 1000" xmlns="http://www.w3.org/2000/svg"><path d="M773 254v147c-8-2-17-5-26-7V275c0-17-10-43-22-57-15-17-30-35-45-52-12-14-23-28-36-42-11-13-35-24-53-24H213c-17 0-32 15-32 32v736c0 18 15 32 32 32h333v38H190c-20 0-36-16-36-36V98c0-20 16-36 36-36h413c19 0 45 13 58 27 13 16 27 31 40 45 16 20 32 39 49 58 13 15 23 43 23 62zm68 341c6-7 6-15 0-22-4-5-9-10-14-15-6-7-9-14-6-23 2-6 4-12 6-19 3-11 1-16-10-21-5-3-11-5-17-7-9-3-15-10-16-19-1-7-2-14-3-20-2-10-7-14-17-14-7 0-14 0-20 1-10 1-17-3-23-11-3-5-6-10-10-15-7-9-13-11-24-5-4 2-8 4-11 7-12 8-23 8-34-1-4-2-9-5-13-7-9-4-16-3-22 5-4 5-7 11-11 17-5 8-12 11-22 10-7-1-14-1-22-1s-13 4-15 12c-2 7-3 14-4 21-1 10-6 16-15 20-6 2-12 4-18 7-10 5-13 10-10 21 1 5 3 11 5 16 4 11 2 20-6 27-4 4-7 8-11 12-8 9-8 17 0 26 3 4 7 8 10 11 9 8 11 17 7 28-2 5-4 10-5 16-3 11 0 17 10 21 6 3 12 5 18 7 9 4 14 10 15 20 1 4 1 8 2 12 2 18 8 23 25 21 3 0 5 0 8-1 15-3 24 4 32 16 13 23 18 24 40 10 13-9 24-9 37-1 22 15 27 13 40-8 8-13 17-20 32-16 4 1 8 0 12 1 12 0 17-3 20-15 1-5 2-9 2-13 1-15 7-24 21-28 5-1 10-3 14-5 9-4 12-10 9-20-1-6-3-12-5-17-4-11-2-19 6-27 5-4 9-9 13-14zm-98 174v168c-20-10-40-18-58-29-17-12-32-12-50 0-17 10-35 18-54 27l-3 2V769c4 4 9 6 11 10l13 18c8 10 17 12 28 6 5-2 10-4 15-8 9-7 18-6 28 1 3 3 8 5 13 7 12 6 22 3 30-8 5-6 8-12 13-18 3-3 8-5 14-8z"/></svg>