<svg width="64" height="64" viewBox="0 0 1000 1000" xmlns="http://www.w3.org/2000/svg"><path d="M630 564H369c-9 0-14 4-15 12-2 12 4 18 17 18h259c7 0 13-1 15-8 5-13-2-22-15-22zm212-66c15 0 25-7 29-19 2-6 1-13 1-19 0-20-10-31-30-31H159c-7 0-14 2-21 6-10 8-9 19-10 31-1 22 14 32 32 32h682zM553 648h79c10 0 14-5 14-15 0-11-4-15-16-15-23-1-46-1-69-1-63 0-127 0-190 1-12 0-17 4-17 15 0 10 5 15 16 15h183zM249 380c84-1 168 0 251 0v-1h252c22 0 32-10 32-31v-7c0-19-11-30-31-30H245c-13 0-23 7-27 18-2 6-1 12-1 18-3 23 14 33 32 33zm751-245c0-15 2-14-14-14H12c-10 0-12 3-12 13v679c0 6 0 11 9 11 65-1 130 0 195 0h424c21 0 20 0 21-21 0-10-3-11-12-11H43c-9 0-11-2-11-11V639 162c0-8 2-9 10-9h916c8 0 10 2 10 10v619c0 8-2 10-10 10H850c-22 0-22 0-22 22-1 8 2 10 10 10 50 0 101-1 152 0 8 0 10-3 10-11V135zM841 777h102c8 0 10-2 10-10V184c0-17 0-16-17-16H58c-9 0-11 2-11 11v328c0 86 1 173 0 259 0 9 3 11 12 11 19-1 39 0 58 0h523c5 0 9 0 9-7-1-6 0-10-8-10-18 1-35 0-52 0H301c-75 0-150 0-226 1-10 0-12-3-12-13 1-35 0-69 0-104V193c0-8 3-9 10-9h853c9 0 11 1 11 10v557c0 7-2 10-9 10-29-1-58-1-87 0-6 0-14-4-14 8 1 12 9 8 14 8zm-106 66c-16-1-30-6-43-16-2-1-3-1-4 2-4 12-8 24-13 36l-7 23h3c8-2 16-3 24-4 2-1 3 0 4 1 6 6 12 11 18 17 6-19 13-37 19-56 1-2 0-3-1-3zm54-15c0-1-1-3-3-1-13 10-27 15-43 16-2 0-2 1-2 3 7 18 13 36 20 54 0 2 1 2 2 1 4-4 8-7 11-11 4-6 9-8 16-6s13 3 20 4c-2-7-5-14-7-21-4-12-9-26-14-39zm-95-121c-2 0-4 1-5 3s-2 4-2 6c-1 2 0 2 1 3 3 0 6 2 9 4 2 1 4 4 6 3 2 0 4-3 6-4v-1c1 0 1-1 0-2-3-4-7-7-11-10-1-1-2-2-4-2zm-9 91c1 1 2 1 2 0 3-5 7-8 11-12 1-1 1-1 1-2l-3-6c-1 0-1-1-2-1-5 3-11 5-15 10-2 2-1 4 0 6 2 3 4 4 6 5zm14-93v1c5 3 9 7 12 11 1 1 1 2 3 1 1-1 3-2 5-3 1-1 2-1 1-2-2-5-4-9-8-13-1-2-3-3-5-3-3 1-8 6-8 8zm47-7c-1-10-6-11-14-7l-1 1c-1 0-1 1 0 2 3 4 4 9 5 15 0 1 0 2 1 1 2 0 4 1 7 1 1 0 1-1 2-2v-7-4zm-74 46v3c1 2 1 3 3 2h16c1 0 1 0 1-1 1-2 2-4 2-6 1-2 0-2-1-2-4-2-9-3-13-4-6-1-9 2-8 8zm7-11c4 0 7 1 10 2s5 3 7 2 3-4 4-6c1-1 1-2 0-3-3-2-6-4-10-5-8-5-12-2-12 8 0 1-1 2 1 2zm-2 50c1 1 1 0 2 0 3-3 7-5 10-7 4-2 4-2 4-7-1-1-1-2-1-3s-1-1-1-1c-6 1-12 2-17 5-1 1-2 2-2 5s3 6 5 8zm-5-17c1 1 1 1 3 0 3-2 7-3 12-3 4-1 4-1 4-7v-2c0-1 0-2-1-2-4 0-8-1-11 0-10 1-12 6-7 14zm51-75c-4 0-6 2-8 5-1 1-1 1 0 2 3 3 4 6 6 10 1 1 1 4 3 4 1 1 3 0 5 0 4-1 4-1 3-5s-2-8-4-12c-1-2-2-4-5-4zm-9 126c0-4 1-9 3-13 1-2 1-3-2-4l-3-3c-2-1-2 0-3 1-2 3-4 6-6 10-4 8-1 12 8 12 2 1 3 0 3-3zm57 3c3-1 8-6 9-8 0-1-1-1-1-1-5-3-9-8-12-12-1-1-1-1-2 0l-6 3c-1 0-2 0-1 2 3 5 5 10 9 14 1 1 2 2 4 2zm28-36c-5 0-11-2-16-4-1-1-1 0-2 1s-2 3-3 5c-1 1-1 2 0 2 3 2 7 5 10 6 9 4 12 2 13-8 0-1 0-2-2-2zm9-29c-1-2-2-3-2-4-1-2-1-1-2-1-4 2-7 3-11 4-2 0-4 0-5 1-2 2-1 4-1 6-1 4-1 4 3 4h11c7-1 9-4 7-10zm-61 68c-2-4-3-8-4-12-1-5-1-5-5-5h-4s-1 0-1 1c0 6-1 12 1 18 1 2 3 3 5 3 3 0 5-1 8-3 1-1 1-1 0-2zm59-48c1-2 0-5-1-7 0-1 0-1-1-1-6 2-11 1-16 1-1 0-2 0-2 1-1 2-1 4-2 6 0 1 0 2 1 2 4 2 9 3 13 4 6 0 8-2 8-6zm-56 46c1 3 2 5 6 5 3-1 5-3 7-5 1-1 2-1 0-2-2-3-4-6-6-10-1-1-1-4-3-5-1 0-4 1-6 1s-3 2-2 4c1 4 2 8 4 12zm39-15c1-2 2-3 3-5 0-2 0-2-1-3-5-1-8-3-12-6-3-2-3-2-6 1-1 1-2 1-3 2s-1 2 0 3c2 2 4 5 7 7 2 2 4 4 7 4s4-1 5-3zm-1-54c5-1 11-2 16-5 1-1 3-3 3-5-1-4-3-6-6-9-1 0-1 0-2 1-3 3-6 5-10 7s-4 2-3 7v3s1 1 2 1zm-38-60c-2 0-2 1-2 2 1 3 1 6 1 10 0 2-1 5 0 7s4 1 7 2c1 1 2 1 2-1 1-3 2-6 3-10 2-9-2-13-11-10zm24 6c-3-1-5-1-8-1-1 0-1 0-2 1 0 4 0 7-1 11-1 2-3 4-2 6 0 2 3 3 5 4h1c1 1 1 1 2 0 3-4 5-7 7-11 0-2 1-3 1-5s-1-4-3-5zm-45 127c1 0 2-1 1-2-1-3-1-7 0-10 0-2 1-5 0-7-2-2-5-2-7-3-2 0-2 0-3 2-1 3-2 6-3 10-2 10 3 12 12 10zm52-67c0-22-19-41-41-41-24-1-42 18-42 41-1 23 18 42 41 42s42-18 42-42zm-84 53h1s1 0 1-1c2-5 5-10 8-15 1 0 1-1 0-1-2-2-3-4-5-5l-1-1s-1 0-1 1c-3 2-5 4-8 7-7 8-4 12 5 15zm90-103c-2-1-4-1-5-2-2-1-3 0-3 1-1 4-3 6-4 9-2 2-4 4-4 6 1 2 3 4 5 6 1 1 1 1 2 0 4-3 7-6 9-9 2-2 3-4 3-6s-1-4-3-5zm5 10l-1 1c-3 5-7 8-11 12-1 0-1 1 0 2l3 6s0 1 1 0c5-2 10-4 14-8 1-1 2-2 2-4v-1c0-3-5-7-8-8z"/></svg>