<svg width="64" height="64" viewBox="0 0 1000 1000" xmlns="http://www.w3.org/2000/svg"><path d="M359 700h281c6 0 9 2 11 9 5 25 24 41 50 41h145c32 0 53-20 54-51v-48c-1-30-20-51-50-51-50-1-100-1-150 0-27 0-44 16-49 42-2 6-4 8-10 8H359c-6 0-9-1-9-8 1-61 1-122 0-183 0-6 2-9 9-9 94 1 188 1 282 0 6 0 9 2 10 9 4 25 24 41 49 41h150c26 0 47-18 49-44 2-21 2-41 0-62-2-25-23-44-49-44H701c-26 0-45 16-50 42-1 6-4 8-10 8H359c-7 0-8-3-8-9 0-26 0-53-1-79 0-9 3-11 12-11h89c56-2 99-45 99-102 0-31-1-61 0-92C553 53 511-1 445 0c-24 1-49 0-74 0-59 0-119-1-179 1-52 2-91 47-92 99v94c0 7 0 15 2 23 9 50 49 83 100 84h86c10-1 12 2 12 12v526c0 9-2 11-11 11-12-1-24-1-36-1-31 1-52 21-53 52v44c0 35 20 55 55 55h140c31 0 48-14 55-44 1-6 5-6 10-6h181c6 0 9 1 10 8 4 25 21 41 46 41 52 1 104 1 156 0 26 0 45-20 47-46 1-18 1-37 0-56-2-27-23-47-50-47-50-1-100-1-150 0-25 0-45 17-49 41-1 7-3 9-10 9-60-1-120 0-180 0-7 0-10-2-12-9-4-25-24-41-49-42-14 0-27 0-40 1-8 0-9-3-9-10V709c-1-7 1-9 8-9z"/></svg>