<svg width="64" height="64" viewBox="0 0 1000 1000" xmlns="http://www.w3.org/2000/svg"><path d="M1000 937H448c-125 0-250 0-375 1-2 0-3-1-4-1V813h58v-63H69V625h58v-63H69V438h58v-63H69V251h58v-63h-6c-1-1-3-1-4-1-16 1-31 0-47 1h-1V63h58V0H0v991c0 5 4 9 9 9h986c4 1 5-1 5-5v-58zM209 508c6 5 8 4 13-1 19-24 39-47 58-71 6-7 9-7 17-2 171 114 342 228 514 343 7 5 10 4 14-4 21-39 43-78 64-117 3-6 5-7 12-3 15 8 30 16 47 25-1-63-3-125-4-188-54 33-107 65-161 98 17 9 32 18 48 26 5 3 6 5 3 11-11 18-21 37-31 56-6 10-6 10-16 4L283 349c-4-3-8-7-13 0-33 40-66 79-99 118-3 4-3 6 1 10 13 10 25 20 37 31zm267-67c5 3 7 2 10-2 6-8 13-15 19-23 4-6 7-5 13-2 59 40 118 79 177 119 6 4 8 4 12-2 19-35 39-70 59-105 39-68 79-137 118-206 4-7 6-8 13-4 12 8 24 14 36 21 10 6 10 6 10-5 0-56-1-113-1-170 0-2 1-4-2-7-53 31-106 62-161 94 17 10 32 19 47 27 6 3 7 6 3 12-48 84-95 167-143 251-4 7-6 8-13 3-56-37-112-74-167-112-4-2-7-6-12 0-20 25-41 50-61 74-4 4-4 6 1 9 14 9 28 18 42 28zM211 759c1 1 3 2 5 4 2-2 4-4 5-6 59-71 118-141 176-211 4-5 4-7-1-10-14-9-28-18-41-28-5-3-8-2-11 2-15 18-29 35-44 53-42 51-85 102-128 153-3 4-6 6 0 10l39 33z"/></svg>