<svg width="64" height="64" viewBox="0 0 1000 1000" xmlns="http://www.w3.org/2000/svg"><path d="M974 208L740 4c-6-5-4-6-11 0L507 198l-14 13v1h126c4 0 6 0 5 5-4 22-9 44-16 65-50 167-181 306-350 358-58 18-116 25-176 21-16-1-31-3-46-5-8-1-14 5-13 12 2 5 5 7 10 8 104 36 211 45 320 28 93-15 180-47 259-100 138-94 224-222 253-387 1-4 3-5 7-5h100c1 0 3 0 5-1 0-2-2-2-3-3zm-79 413V245c0-1 0-2-1-2s-2 1-2 2-1 1-1 2c-20 93-59 176-118 250-2 3-2 5-2 8v490c0 4 1 5 5 5h113c7 0 6 1 6-7V621zm-186-53c-2 1-3 2-4 3-36 32-75 61-118 84-3 2-3 4-3 7v333c0 4 1 5 5 5h113c6 0 7-2 7-7-1-139-1-279-1-418v-7h1zM522 694c0-6 0-6-6-4-37 16-75 28-114 36-4 1-5 3-5 7v261c0 5 1 6 6 6h113c5 0 6-1 6-6V694zm-379 41c-39-6-77-15-115-28-4-1-5 0-5 4v283c0 5 2 6 7 6h113c4 0 5-1 5-5V741c0-4-1-6-5-6zm192 8c0-4-1-5-5-5-38 5-76 6-115 4-4 0-5 1-5 6v247c0 4 1 5 6 5h113c5 0 6-2 6-6V869 743z"/></svg>