<svg width="64" height="64" viewBox="0 0 1000 1000" xmlns="http://www.w3.org/2000/svg"><path d="M992 852c-38-30-76-59-114-89-3-2-6-5-10-3-5 2-5 6-5 11 0 15-1 31 0 46 0 9-3 11-12 11H150c-11 0-13-3-13-13V570 180c0-7 2-9 9-8h48c5 0 9 0 11-5 3-4 0-7-3-11-30-38-60-77-90-115-6-9-12-9-18-1L4 156c-3 3-5 6-3 11 2 4 6 5 11 5h43c14 0 14 0 14 14v670c0 27 13 41 39 41h745c7 0 10 1 10 9-1 15 0 31 0 46 0 5 0 10 5 13s8-1 12-4c37-29 75-59 112-88 11-9 11-12 0-21zM827 484c-5 3-9 6-13 9-50 36-100 72-151 109-6 4-11 5-18 3-34-9-69-18-104-27-7-2-12 0-17 7-34 43-68 86-102 130-6 8-9 9-16 1-41-51-82-101-123-152-6-7-9-8-15-1-29 29-59 57-88 86-6 4-8 9-8 16 1 36 1 71 1 106 0 22 0 22 21 22h622c10 0 12-2 12-12-1-38 0-76 0-114-1-60-1-121-1-183zm-655-63c1 41 0 82 0 123v39c6-2 8-5 11-8 28-28 56-55 83-84 8-8 12-7 18 1l123 148c6 7 8 6 14-1 29-37 59-74 87-112 7-8 13-10 23-7 38 9 76 17 114 26 7 1 12 1 18-4 52-39 105-78 158-116 5-4 7-8 7-15-1-42-1-84-1-126v-41c-5 1-7 4-10 6-51 41-103 83-154 124-6 5-10 5-17 4-39-11-79-20-119-31-7-1-12 0-16 6-5 8-11 15-16 23-25 33-51 66-75 100-5 5-8 7-12 0-2-2-4-5-6-7L282 319c-4-6-7-8-13-1-30 30-61 60-91 90-4 4-6 8-6 13z"/></svg>