<svg width="64" height="64" viewBox="0 0 1000 1000" xmlns="http://www.w3.org/2000/svg"><path d="M63 618c0-69-1-139 0-209 0-12 4-26 9-38 48-118 133-197 254-238 4-1 10 0 15 2 133 58 265 117 398 175 64 28 127 56 191 84 6 3 8 6 8 12-1 29-1 58 0 88 0 6-2 9-8 11-17 5-32 14-44 27-22 22-23 52-2 75 13 13 28 22 46 28 5 2 8 5 8 11-1 40 0 80-1 120 0 22-14 36-36 38l-214 17-162 12c-61 5-123 11-185 15l-186 15c-18 1-37 2-55 4-22 2-36-11-36-33V618zm296-417c-8-3-16-7-24-10-4-2-8-1-11 0-74 29-132 76-174 143-1 1-2 3-2 4-2 3 39 5 90 5h349c51 0 88-2 82-5-4-2-7-3-11-5-53-23-107-47-160-70-3-2-8-3-10-1-14 12-31 16-49 18-25 3-49 0-70-15-17-13-17-30-1-43 3-2 5-3 8-5 4-3-4-10-17-16zm121 532c0 46 36 83 82 83 45 0 82-36 82-82s-37-83-82-83c-45-1-82 36-82 82zM296 598c4 0 8-1 12-2 56-15 78-78 40-120-32-35-91-36-125-3-18 17-26 38-21 63 3 19 14 35 29 46 25 19 58 17 65 16zm316-200h-48c-21 0-24 2-25 24v2c-1 38 30 69 71 70 49 2 86-43 72-87-2-7-4-10-12-10-19 1-39 1-58 1zm149 211c-28 0-51 21-51 47s23 47 51 47c27 0 50-22 50-47-1-26-23-47-50-47zm-259-32c0-26-23-47-50-47-28 0-50 21-50 47s22 48 50 48 50-21 50-48zm-281 99c-28-1-50 19-51 46 0 26 22 47 49 47 29 1 52-20 52-47-1-25-23-46-50-46z"/></svg>