<svg width="64" height="64" viewBox="0 0 1000 1000" xmlns="http://www.w3.org/2000/svg"><path d="M578 643l-71-46c-2 28-4 53-5 78-3 99-6 199-10 298 0 10 6 25-16 27-22 1-27-8-30-27-19-129-39-258-58-388-2-14-6-20-20-19-13 2-12-5-8-14 15-36 31-71 46-107 3-6 7-14 6-20-5-37-12-74-18-111-1-6-6-9-11-12-34-22-68-43-102-66-11-8-17-6-20 6-4 18-14 24-31 18-19-7-30 9-42 17-8 5-13 6-18-1-9-16-23-18-40-14-15 4-26 0-28-18-2-17-17-19-29-24-13-5-21-11-14-26 9-17-3-28-12-39-9-10-12-19 1-28 15-11 12-26 9-42-2-9-3-19 10-20 20-3 29-16 34-33 3-11 8-20 22-12 18 9 30-2 41-13 10-8 19-11 28 1 11 15 26 14 41 10 13-4 22-2 23 14 2 18 16 24 30 28 14 5 20 12 14 27-8 16 3 27 12 37 9 11 11 18-1 30-19 18-18 24 7 36l45 24c10 6 13 5 16-7 9-35 17-70 25-106 8-43 28-59 71-61 48-3 73 11 87 53 14 41 18 84 28 126 1 3 1 5 3 10 33-18 66-35 99-53 10-5 5-10 0-15-15-15-14-27 3-40 11-9 5-21 3-32-3-14 0-25 17-26 19-2 21-19 27-32 4-11 9-18 23-11 17 9 29-3 41-13 10-9 19-10 27 2 10 14 25 13 39 9 15-4 24-1 26 16 1 18 16 22 29 26 14 5 21 11 13 27-7 15 3 27 12 37 10 11 14 20 0 30-12 8-14 19-10 33 5 17 2 30-18 32-19 2-19 19-25 30-4 8-7 18-18 13-23-12-36 4-52 15-4 3-8 10-13 2-13-18-30-22-50-17-14 3-21-1-23-16-4-26-20-26-38-14-33 23-67 45-101 67-10 7-15 15-17 27-4 24-8 47-12 71-3 18-4 34 6 51 9 16 16 33 22 50 15 49 41 90 81 121 12 10 10 17 1 28-46 56-92 113-138 169-4 6-8 18-16 13s-17-16-13-26c15-45 21-91 40-134 4-10 11-17 20-26zM260 135c-23-8-11-32-23-38-16-7-23-34-48-23-1 1-2-1-3-2-20-14-32 15-50 9-2 18-32 24-22 48 2 7-15 13-6 20 13 12 3 41 30 43 1 0 2 4 3 6 4 5 43 18 47 14 13-13 41-5 44-31 28-6 2-37 28-46zm564 82c11-13 25-15 39-17 1 0 2-3 3-5 6-16 30-24 20-47l3-3c3-5-6-47-10-48-18-4-24-33-49-23-1 1-3-2-5-3-5-2-47 7-48 12-5 17-33 23-23 48 2 5-13 11-6 18 14 12 4 41 31 43 5 29 37 2 45 25zm-280 37c-7-3-9-4-11-6-21-12-24-26-10-45 11-15 17-32 17-51 0-8-2-13-12-13h-85c-8 0-12 3-12 10 1 17 1 33 10 48 18 31 18 32-14 54 44 7 51 44 63 77 21-23 16-61 54-74z"/></svg>