<svg width="64" height="64" viewBox="0 0 1000 1000" xmlns="http://www.w3.org/2000/svg"><path d="M933 398c-7-29-20-55-38-77-16-41-43-71-83-89-7-3-9-7-10-15-5-79-66-143-145-153-8-1-16-1-24-1l-36 4-14 6c-30 10-55 28-74 53-43 0-86 14-122 44-30 24-52 54-69 90-47-15-92-16-137 3-45 18-78 50-99 94-36 73-19 165 41 220 30 28 65 45 106 50 58 7 109-10 152-48 4 3 7 5 10 7 71 53 155 57 229 10 7-5 12-6 20 0 42 28 89 38 140 30 104-18 176-125 153-228zM622 636c-79 40-156 37-232-8-6-4-10-4-15 0-27 18-57 29-88 33-10 1-12 4-12 13 1 41 1 82 0 122v78h471V664c-40-1-77-10-111-29-3-2-9-1-13 1zM275 887h471v51H275v-51z"/></svg>