<svg width="64" height="64" viewBox="0 0 1000 1000" xmlns="http://www.w3.org/2000/svg"><path d="M161 376c18-13 34-26 52-38 41-27 83-46 132-50 58-6 112 5 162 35 24 14 45 30 67 47 26 19 55 31 88 31h265c-7-31-18-62-32-91h-3c-49 0-99 1-148 0-37-1-70-12-100-32-23-16-44-34-67-50-55-38-113-66-181-69-48-2-95 2-140 20-40 16-76 39-110 64-34 47-59 100-72 158 32 2 61-5 87-25zm361-220c41 19 78 45 113 72 16 12 32 25 51 34 25 11 52 13 79 13 37 1 73 0 109 0h2C799 148 660 63 500 63c-97 0-186 31-258 84 38-15 78-22 119-23 56-2 110 8 161 32zm-22 781c85 0 164-24 231-66H270c66 42 146 66 230 66zM100 483c12 0 23-1 35-4 30-7 56-23 81-41 20-16 40-32 63-45 38-22 78-29 122-23 27 4 52 16 76 30 22 14 41 31 62 45 36 26 76 40 121 39 43-2 85-1 128-1h150c-1-16-2-31-5-46-1-1-2-1-3-1-87 1-174 0-261 1-41 0-77-12-110-35-19-13-36-28-55-40-37-24-76-39-121-40-45-2-87 7-126 30-23 13-45 30-66 46-23 18-49 32-79 37-15 2-30 1-45 1-2 16-4 31-4 47h37zm548 35c-14 0-28-1-41-4-35-7-65-23-93-43-21-15-42-32-64-46-35-22-72-26-111-19-25 5-46 19-67 33-23 17-44 35-69 49-28 16-58 27-90 30-17 1-33 0-49 0h-1c1 16 2 31 4 46 1 1 3 1 5 1 22-1 44-1 66 4 35 7 65 24 94 44 19 15 38 30 59 43 32 21 66 27 103 23 25-3 46-14 66-27s39-29 59-43c43-30 90-46 143-45 41 1 82 1 123 1h60c29 0 58-1 87 0h1c3-15 4-31 5-46h-3c-96-1-192-1-287-1zM372 638c-54 0-98-43-98-97 0-53 44-97 98-97s97 44 97 97c0 54-43 97-97 97zm271-38c-7 0-13 1-20 2-30 4-56 17-81 34-21 14-40 30-61 44-71 47-143 48-215 2-19-12-36-26-54-39-41-31-86-47-138-43 4 16 8 32 14 47 8 0 16-1 23 0 24 3 45 13 64 27 19 13 37 27 55 40 43 30 89 50 141 47 41 2 78-8 112-28 26-14 50-32 73-51 31-24 66-36 106-36 83 1 166 1 249 1h2c5-15 10-31 13-47H643zm16 81c-29 0-55 8-78 27-21 16-42 32-65 47-68 42-142 53-219 31-41-11-76-34-109-59-17-13-33-26-52-36-11-5-22-9-34-9 28 60 68 112 118 154h560c50-42 91-94 118-154h-4c-78 0-157 0-235-1zm3 124c-26 0-46-21-46-47 0-25 21-46 47-46s47 21 47 47-21 46-48 46zm113-40c-14 0-27-13-27-27 1-14 13-26 27-26 15 0 26 12 26 27 0 14-12 26-26 26z"/></svg>