<svg width="64" height="64" viewBox="0 0 1000 1000" xmlns="http://www.w3.org/2000/svg"><path d="M253 335c101-60 212-79 330-60 42 7 82 20 120 37 3 1 8 1 10-1 5-5 10-12 14-18-136-71-341-80-508 30-88 57-151 134-188 229C10 606 0 661 0 717h27c4-30 6-60 12-88 28-127 99-225 214-294zm616 60l-18 23c78 86 118 186 120 299h29c-2-123-45-229-131-322zm8-139c-99 126-198 252-296 378l-13-8c15-19 29-37 43-55 85-108 169-216 253-323l13 8zm14 491c0-14-1-28-4-42-14-92-59-169-132-230-4-3-7-5-11-8-3 3-5 6-7 8-16 22-32 45-48 66-7 8-7 14 0 22 22 24 35 53 38 85 1 15 0 15-15 15H293c-29 0-25 3-21-24 6-42 29-77 63-103 81-61 170-69 265-36 9 3 18 8 27 12 20-27 40-54 61-82-129-61-256-64-381 3-131 70-196 182-202 326h774c13 0 13 0 12-12zm-663-23c0 7-6 13-13 13s-14-6-14-13v-23c0-8 6-13 14-13s13 5 13 13v23zm57 0c0 7-6 13-13 13s-14-6-14-13v-23c0-8 6-13 14-13s13 5 13 13v23zm57 0c0 7-6 13-13 13s-14-6-14-13v-23c0-8 6-13 14-13s13 5 13 13v23zm58 0c0 7-7 13-14 13s-14-6-14-13v-23c0-8 6-13 14-13s14 5 14 13v23zm57 0c0 7-7 13-14 13s-14-6-14-13v-23c0-8 6-13 14-13s14 5 14 13v23zm57 0c0 7-6 13-14 13s-14-6-14-13v-23c0-8 7-13 14-13s14 5 14 13v23zm57 0c0 7-6 13-14 13s-14-6-14-13v-23c0-8 7-13 14-13s14 5 14 13v23zm57 0c0 7-6 13-14 13s-13-6-13-13v-23c0-8 6-13 13-13s14 5 14 13v23zm57 0c0 7-6 13-14 13s-13-6-13-13v-23c0-8 6-13 13-13s14 5 14 13v23zm57 0c0 7-6 13-14 13s-13-6-13-13v-23c0-8 6-13 13-13s14 5 14 13v23zm57 0c0 7-6 13-13 13s-14-6-14-13v-23c0-8 6-13 14-13s13 5 13 13v23z"/></svg>