<svg width="64" height="64" viewBox="0 0 1000 1000" xmlns="http://www.w3.org/2000/svg"><path d="M210 296l81-61-101 18c0 4 1 12 6 23 4 10 10 18 14 20zm178 38c-22-25-43-49-64-69l-6-9-7 53-6 44c3 2 9 3 16 3 21 0 51-10 67-22zm-99 17h4l14-113-89 69c5 15 47 44 71 44zm352 184c5-25 33-76 71-129s85-108 127-150c5-6 7-13 4-20-3-6-9-11-16-11H346c-8 0-14 5-17 11-3 7-1 14 4 20 42 41 89 97 127 150 37 53 66 104 71 129 10 45 13 123 13 188v111c0 97-217 64-177 103h438c40-39-177-6-177-103V727c0-64 3-141 13-192zm-45 187v145c0 5 2 9 6 13 1 1 11 10 30 22h-92c19-12 30-21 30-22 4-4 6-8 6-13V722c0-66 1-143-10-194-8-37-39-88-77-143-31-42-67-86-102-124l-19-20h435l-18 20c-35 38-71 82-102 124-39 55-69 106-77 143-11 56-10 130-10 194zM182 219c0 11 2 18 5 21l107-19-99-44c-8 8-13 24-13 42zm491 159c20-28 43-57 66-85H433c23 27 46 57 66 85 30 42 51 77 65 106 7 3 15 4 22 4 8 0 15-1 22-3 13-29 34-64 65-107zm-87 92c-2 0-4 0-5-1-4-7-10-17-17-27-5-8-11-15-17-22h79l-18 21c-7 12-13 20-16 28-2 1-4 1-6 1zM261 106c-10 2-39 23-54 44-4 6-7 12-7 16l104 45-43-105zm178 79l-73 27h80c0-11-3-21-7-27zm-43 159c-20 15-52 25-75 25-10 0-18-2-24-6-2 1-5 1-8 1-28 0-78-31-84-55-12-7-22-27-25-40-3-8-3-15-2-20-6-6-9-17-9-30 0-19 6-41 19-52-1-6 2-15 8-24 15-22 50-50 66-50h1c10-12 31-16 48-16 13 0 29 3 39 10 3-2 6-3 10-3 11 0 27 9 36 24 15 1 30 19 34 24 10 12 19 29 18 43 6 9 10 22 11 37h18c-2-31-13-61-32-86-27-34-64-56-107-62s-85 5-119 31c-71 54-84 155-31 226 26 34 64 56 107 62 7 1 14 1 22 1 32 0 63-9 89-27-3-4-7-9-10-13zm24-204c-10-12-19-18-25-19l-62 90 102-38c0-9-6-21-15-33zm-60-43c-2 0-3 0-4 1l-12 47-12 45 52-76c-6-10-17-17-24-17zm-17 0c-6-4-19-7-32-7-17 0-32 4-38 11l35 86 7 16 15-56 13-50z"/></svg>