<svg width="64" height="64" viewBox="0 0 1000 1000" xmlns="http://www.w3.org/2000/svg"><path d="M521 432c15 0 30-1 45 0 7 0 11-3 14-9l94-189c3-6 6-10 12-13l165-111c-2-1-31-47-31-47-60 40-120 80-179 119-5 3-8 7-11 12-19 39-38 77-57 116-19 37-38 75-57 113-4 9-4 9 5 9zm186-123c-5-3-8-3-10 3-6 13-13 26-20 39-2 4-2 7 3 9 8 5 16 12 23 20 12 14 12 31 0 46-11 14-27 23-44 31-33 14-68 21-104 26-6 1-13 1-20 1-5 1-8 3-11 7v1l-46 78v-80c0-2-1-3-5-4-6-1-7 3-8 7-17 52-33 104-50 156-1 3-1 5-4 8V495c0-14 0-13-14-16-29-4-58-12-86-24-13-7-25-14-35-24-17-18-17-38 0-56 16-16 36-25 57-33 53-18 108-24 164-22 7 0 10-2 13-9 7-14 14-27 21-41 2-3 3-6-3-6-69-4-138-1-205 21-59 19-108 53-139 108-10 18-17 36-22 55-1 4-42 130 25 274 31 73 81 133 155 177 37 21 77 34 120 37 2 0 4 0 5 2h39c16-4 32-4 48-8 82-21 146-68 194-136 43-61 67-128 74-202 6-54 4-108-14-161s-52-94-101-122z"/></svg>