<svg width="64" height="64" viewBox="0 0 1000 1000" xmlns="http://www.w3.org/2000/svg"><path d="M598 353c0-148-120-268-268-268S63 205 63 353s120 267 267 267 268-120 268-267zm-459 0c0-106 86-191 191-191s191 85 191 191c0 105-85 191-191 191s-191-86-191-191zm202 146v-22c52-3 87-27 87-73 0-54-41-67-87-77v-66c39 1 39 38 61 38 12 0 22-8 22-22 0-34-56-51-83-52v-18c0-6-4-12-10-12s-10 6-10 12v18c-44 2-83 26-83 74 0 38 31 61 83 70v73c-58-3-28-51-67-51-13 0-21 8-21 22 0 28 29 63 88 64v22c0 6 4 12 10 12s10-6 10-12zm0-126c19 4 43 11 43 35 0 23-22 32-43 34v-69zm-21-50c-26-5-39-15-39-33 0-15 16-28 39-29v62zm563 69H644c-5 39-17 76-36 109h275c30 0 55-24 55-54s-25-55-55-55zm0 138H591c-33 47-78 85-131 109h423c30 0 54-24 54-55 1-30-24-54-54-54zm0-275H633c9 29 14 61 14 94v15h236c30 0 54-25 54-55 1-30-24-54-54-54zm0 412H313c-31 0-55 25-55 55s24 55 55 55h570c30 0 55-25 55-55s-25-55-55-55zm0 138H313c-31 0-55 25-55 55s24 54 55 54h570c30 0 55-24 55-54s-25-55-55-55zm0-579c30 0 55-24 55-54s-25-55-55-55H546c32 31 59 68 76 109h261z"/></svg>