<svg width="64" height="64" viewBox="0 0 1000 1000" xmlns="http://www.w3.org/2000/svg"><path d="M387 561c-29 9-42-6-42-30 0-22 9-43 21-58 10-11 24-20 38-24 13-4 23-5 28-3l7-23c-4-2-16-2-32 3-21 6-39 17-55 33-21 23-34 52-34 83 0 38 24 54 62 43 18-5 31-12 39-18l-3-20c-8 6-18 11-29 14zm189-70c0 21 12 32 31 27 14-4 28-15 38-38h1c-1 9-2 18-2 24l23-7c0-12 2-32 5-49l11-59c-9 0-21 2-32 5-50 15-75 61-75 97zm73-48c-5 29-20 48-32 51-11 3-15-4-15-16 0-24 18-55 42-62 4-2 8-2 10-2l-5 29zm-162 0c-36 10-61 49-61 85 0 25 17 38 43 31 36-11 62-50 62-86 0-23-15-39-44-30zm-14 95c-13 4-21-4-21-19 0-19 12-50 32-56 16-4 20 8 20 19 0 20-12 50-31 56zm264 303V216c0-19-31-73-46-99v-13c6-4 9-11 9-18 0-11-8-20-20-21-4 0-45-3-182-3-134 0-168 3-173 3-11 1-20 10-20 21 0 5 1 9 4 12v19c-15 26-46 80-46 99v630l1 2v3c1 0 1 0 1 1v1l1 1 1 1 1 1 1 1s1 0 1 1h1c2 1 11 5 28 11-2 2-2 4-2 7v22c0 6 4 12 10 13 6 2 99 27 206 27 63 0 131-9 188-36 5-2 8-7 8-12v-17c0-3-1-5-2-7 8-2 15-5 22-8 7-2 10-10 8-17zm-28-249c-12-3-25-6-39-8-22-2-48-3-73 1-7 1-14 2-20 3-7 2-13 4-19 6-13 3-26 9-39 15l-18 9c-6 4-11 7-17 11-5 4-11 9-17 13l-8 7-6 6c-8 7-16 15-25 23l-11 11-12 10-11 9-12 9c-5 3-9 6-13 9l-12 8-13 8-12 6c-5 3-9 5-13 7-5 2-9 4-13 6l-13 5c-1 0-2 1-3 1V397l15-2c6-1 11-2 16-3 6-1 11-2 17-4l16-5c6-2 11-4 17-6 5-2 11-4 16-7 6-2 12-4 17-7s11-6 16-10c6-3 11-6 16-9l15-11 15-11 15-12 25-25 6-5 5-5c3-3 7-5 11-8s8-6 11-8 8-6 12-8 8-5 13-7c3-2 8-4 12-5 4-2 9-4 13-6l6-2 7-2c35-10 73-12 106-10h1v373zM560 375l-29 163 25-7 30-164-26 8z"/></svg>