<svg width="64" height="64" viewBox="0 0 1000 1000" xmlns="http://www.w3.org/2000/svg"><path d="M504 196c32 0 59-30 59-67s-27-67-59-67-58 30-58 67 26 67 58 67zm-32-85c4 11 17 18 32 18s42-1 42 9c0 23-19 41-42 41s-42-18-42-41c0-11 4-20 10-27zm-51 219h167c9 0 16-8 16-17v-50c0-28-22-50-50-50h-38l4 3c2 2 2 5 0 7l-8 7c-2 2-3 6-2 8l15 37c1 3 1 6-1 8l-17 26c-2 2-4 2-5 0l-18-26c-1-2-2-6-1-8l16-37c1-3 0-6-2-8l-8-7c-2-2-2-5 0-7l3-3h-38c-27 0-50 22-50 50v50c0 9 7 17 17 17zm25 407c0 37 26 67 58 67s58-30 58-67-26-67-58-67-58 30-58 67zm100 8c0 23-19 42-42 42s-42-19-42-42c0-10 4-19 10-26 4 10 17 18 32 18s42-2 42 8zm8 75h-38l4 4c2 2 2 5 0 7l-8 7c-2 2-3 5-2 7l15 38c1 2 1 6-1 8l-17 26c-2 2-4 2-5 0l-18-26c-1-2-2-6-1-8l16-38c1-2 0-5-2-7l-8-7c-2-2-2-5 0-7l3-3h-38c-27 0-50 22-50 50v50c0 9 7 17 17 17h167c9 0 17-8 17-17v-50c-1-28-23-51-51-51zm214-83c0 37 26 67 59 67s58-30 58-67-26-67-58-67c-33 0-59 30-59 67zm100 8c0 23-18 42-41 42s-42-19-42-42c0-10 4-19 10-26 4 10 16 18 32 18 15 0 41-2 41 8zm9 75h-39l4 4c2 2 2 5 0 7l-8 7c-2 2-3 5-2 7l16 38c1 2 0 6-1 8l-18 26c-1 2-3 2-5 0l-17-26c-2-2-2-6-1-8l15-38c1-2 0-5-2-7l-8-7c-2-2-2-5 0-7l4-4h-39c-27 0-50 23-50 51v50c0 9 8 16 17 16h167c9 0 17-7 17-16v-50c0-28-23-51-50-51zm-704-16c32 0 58-30 58-67s-26-67-58-67-59 30-59 67 27 67 59 67zm-32-85c4 10 17 18 32 18s42-2 42 8c0 23-19 42-42 42s-42-19-42-42c0-10 4-19 10-26zm82 101h-38l3 4c2 2 2 5 0 7l-8 7c-1 2-2 5-1 7l15 38c1 2 1 6-1 8l-18 26c-1 2-3 2-5 0l-17-26c-2-2-2-6-1-8l15-38c1-2 0-5-2-7l-8-8c-2-1-2-4 0-6l4-4h-38c-28 0-50 23-50 51v50c0 9 7 16 16 16h167c10 0 17-7 17-16v-50c0-28-22-51-50-51zm-48-197c12 0 22-10 22-22v-88h285v88c0 12 10 22 22 22s22-10 22-22v-88h285v88c0 12 10 22 22 22s22-10 22-22V491c0-12-10-22-22-22H526v-66c0-12-10-21-22-21s-22 9-22 21v66H175c-12 0-22 10-22 22v110c0 12 10 22 22 22z"/></svg>