<svg width="64" height="64" viewBox="0 0 1000 1000" xmlns="http://www.w3.org/2000/svg"><path d="M486 63C259 69 65 252 63 497c-3 242 196 440 436 440s439-196 439-435C937 260 743 56 486 63zm21 804c-208 0-373-161-374-366-1-202 162-366 365-368 203-1 368 163 369 367 1 197-165 366-360 367zm84-406c-29-6-43-21-49-50-11-57-26-112-39-168-17 55-31 110-42 165-7 31-22 47-54 53-56 11-110 25-166 38 1 1 1 2 1 4 59 14 119 29 178 42 22 5 32 17 37 37 7 32 14 63 21 94 7 29 14 57 20 85 18-62 33-123 48-184 4-17 14-27 30-31 34-8 68-15 102-23 28-7 55-14 88-22-62-14-118-29-175-40zm-90 66c-15 0-26-11-26-25-1-15 12-27 27-26 14 0 25 12 25 26s-11 25-26 25zm-101 58c-7-6-10-4-14 2-14 23-28 45-45 73 22-14 39-24 57-35 29-18 29-19 2-40zm17-184c5-6 6-9-1-13-23-14-46-28-68-42l-2 2c10 17 21 34 31 51 17 28 18 28 40 2zm163 207s0 1-1 3c25 15 50 31 81 50-13-21-22-36-32-51-22-35-22-35-48-2zm37-195c12-21 25-42 38-62l-3-3c-17 10-34 20-50 31-26 16-29 10-4 36 9 8 13 8 19-2z"/></svg>