<svg width="64" height="64" viewBox="0 0 1000 1000" xmlns="http://www.w3.org/2000/svg"><path d="M241 777c0-42 14-79 27-116 9-23 18-45 23-69 3-20-1-37-15-52-9-10-18-19-27-29-7-8-7-13 1-20 34-29 68-57 101-86 7-6 8-1 11 3 23 49 59 83 113 95 44 10 82-4 116-32 21-17 37-38 47-64 3-7 5-7 11-2 33 28 66 57 100 85 10 8 10 13 1 22-9 10-18 19-27 29-13 15-17 32-14 51 6 33 21 63 32 94 11 33 20 66 18 102-5 63-37 109-92 139-23 13-48 21-74 27-31 7-59 19-83 41-5 5-12 8-18 1-28-27-64-37-101-46-44-11-84-31-113-67-26-31-37-68-37-106zm182 11c0 8 7 12 15 7 19-11 37-23 55-34 5-3 9-3 14 0 17 11 34 21 51 32 5 2 10 7 16 3 5-5 2-11 1-16-5-19-9-39-14-58-2-6-1-9 4-13 15-13 31-26 46-40 4-3 10-6 8-12-3-7-9-6-15-7-20-1-40-3-60-4-5-1-8-3-11-8-7-19-16-39-24-58-2-5-3-9-9-10-6 0-7 5-9 10-8 19-17 38-24 57-3 6-6 8-13 9-20 1-40 3-60 4-5 1-11 0-13 7-2 5 3 8 7 11 14 13 28 26 43 37 8 6 10 12 7 21-5 21-10 42-15 62zm-99-520c1-15 1-30 14-40 3-2 2-7 2-10 0-20 0-20 19-14 43 16 88 24 135 26 53 1 105-9 154-28 12-5 12-5 12 8 0 9-1 18 8 25 5 3 6 10 7 17 6 43-9 79-37 111-5 5-9 12-11 19-7 23-20 44-36 61-54 59-133 57-186-3-14-18-26-37-32-59-3-7-6-12-11-18-24-27-38-58-38-95zM502 0c65 4 122 28 168 77 13 14 22 31 24 51 1 2 1 4 1 7 0 20-3 22-21 14-62-28-127-42-195-39-55 4-108 18-159 42-11 5-11 4-14-8-3-16 1-30 8-43 6-13 15-24 25-33C384 25 439 3 502 0zm-2 91c24 0 42-19 42-42S523 7 500 7c-22-1-42 19-42 41 0 23 19 43 42 43zm181 76c-121 58-240 58-362 0 59-28 118-43 181-44 63 0 122 17 181 44z"/></svg>