<svg width="64" height="64" viewBox="0 0 1000 1000" xmlns="http://www.w3.org/2000/svg"><path d="M803 311c54 0 98-44 98-99 0-54-44-98-98-98s-99 44-99 98c0 55 45 99 99 99zm60-142v-6c2-1 9 0 15 1 2 1 4 1 5 1 7 11 11 24 12 38l-4 4c-4 4-9 9-11 10-1-2-3-4-4-6-4-5-9-11-13-15-1-2-2-3-2-3 0-4 1-16 2-24zm-2 86c3-1 6-2 7-2 0 2 1 9 3 15 0 2 0 4 1 5-9 10-20 18-33 24-1-1-3-2-5-3-5-3-12-6-13-7 2-2 3-4 5-7 4-7 11-18 12-19 0 0 14-4 23-6zm-81-130c1-2 2-4 3-5 6-1 13-2 19-2 7 0 14 1 20 2 1 1 2 3 3 5 3 5 6 12 7 13-3 1-5 2-8 3-6 3-15 6-19 7-1 1-2 1-2 1s-1 0-2-1c-4-1-13-5-20-7-2-1-5-2-6-3 0-1 3-8 5-13zm21 57c1-1 2-1 2-2 0 1 1 1 2 2 7 5 26 18 27 19-1 5-11 33-12 35h-35c-1-2-10-30-11-34 1-2 20-15 27-20zm-31 82c3 4 7 12 10 17 2 2 3 4 4 5-1 2-7 5-13 8-1 1-3 2-5 3-12-5-23-13-32-22 1-2 1-4 1-6 1-6 2-12 3-15 1-1 3 0 6 1 7 2 21 5 23 6 1 0 2 2 3 3zm-45-47l-11-11-4-4c1-13 5-26 11-37l6-1c6-1 14-2 16-2v6c1 8 1 21 2 24 0 1-1 2-3 4-3 4-9 11-13 16-2 3-3 5-4 5zM972 5H27C-9 5-9 62 27 62h481c3 74 27 150 62 214 77 141 218 210 374 222v469c0 36 56 36 56 0V34c0-16-13-29-28-29zm-28 436c-144-11-268-77-333-209-26-52-44-112-47-170h380v379z"/></svg>