<svg width="64" height="64" viewBox="0 0 1000 1000" xmlns="http://www.w3.org/2000/svg"><path d="M532 815h-25c-364-61-43-684-205-740 59 14 96 58 120 118 2-5 3-10 5-14h11c-3 12-5 25-7 37 3 10 6 19 8 29 1-4 2-8 3-13h59v51h-53c1 5 2 9 2 14h51v44h-44c0 5 1 9 1 13h43v38h-39l1 14h38v46h-35c1 4 1 9 1 13h34v38h-32v14h32v44h-30c1 5 1 9 1 13h29v52h-26c0 4 0 9 1 13h25v40h-22c0 5 1 9 2 14h20v42h-13c1 4 2 9 3 13h10v31c5 11 11 20 17 26 5-5 9-11 12-18-5 4-10 7-16 8v-47h28c1-4 1-9 2-13h-30v-43h35c0-4 0-8 1-13h-36v-40h38v-13h-38v-52h41l1-13h-42v-44h46c1-5 1-9 2-14h-48v-38h54c1-4 2-9 3-13h-57v-46h70c2-5 4-9 6-13h-76v-38h73c1 13 2 25 3 37 3-7 7-15 11-22 0-5-1-10-1-15h13c3-5 8-10 12-14h-26c-2-14-3-29-6-44h25c3 14 5 29 8 44 16-16 37-27 62-32-128 38 124 457-156 506zm-12 123h-9c-9 0-18-8-20-18l-11-73c-2-10 5-17 14-17h51c9 0 15 7 13 16l-17 74c-2 10-11 18-21 18zm199-379c-35 89 42 257-123 266 133-58 69-197 123-266zm-438-56c65 84-11 252 146 322-195-11-104-214-146-322zm151-338c5-15 11-29 17-42h2c-4 14-7 28-10 42h-9zm142 14h15c4 12 8 26 12 40h-19c-3-14-5-27-8-40zm-30-70h-30V62c11 3 21 11 31 24l-7 2 6 21zm-71-21l-3-1c10-14 20-22 31-25v47h-33c2-7 3-14 5-21zm83 15c1 2 3 4 4 6h-2c-1-2-1-4-2-6zm5 20h6c6 13 11 27 17 42h-13c-3-14-6-28-10-42zm23 109h20l12 51h-24c-2-17-5-34-8-51zm-6 51h-64v-51h56c3 17 6 34 8 51zm-64-118v-42h34l9 42h-43zm66 132c2 15 4 30 6 44h-72v-44h66zM464 123h37v42h-46l9-42zm-12 56h49v40h-57c2-14 5-27 8-40zm62 40v-40h46c3 13 6 26 8 40h-54zm-13 122h13v13h-13v-13zm0 162h13v13h-13v-13z"/></svg>