<svg width="64" height="64" viewBox="0 0 1000 1000" xmlns="http://www.w3.org/2000/svg"><path d="M224 908c-54 0-107-1-161 0-43 1-60 17-59 51 0 15 5 20 19 20 38-1 75-1 112-1 33 0 67-1 101 1 16 1 22-5 26-20 12-51 13-50-38-51zm30-90c-50 0-99 0-148 1-31 1-44 18-43 46 1 13 6 17 17 16h94v1c28 0 57-1 85 0 17 1 24-5 28-22 10-42 11-42-33-42zM32 287c22 6 45 6 67 6h399c74 0 148 1 223 0 70 0 141 1 212-1 19 0 48 4 53-20 6-24-21-34-38-43C821 158 693 87 565 17c-44-24-88-23-133 2C310 87 187 153 65 221c-15 8-30 16-43 29-16 17-13 31 10 37zm640 548c-3-13-9-17-22-17-100 1-200 1-300 0-12 0-18 4-21 17-11 43-23 87-34 130-7 29-2 35 29 35h176c61 0 121-1 181 0 23 0 31-9 25-30-11-45-24-90-34-135zM127 321c-17 1-22 7-25 22-23 128-25 257-6 386 9 57 8 57 64 57h23c14 2 18-5 21-17 12-70 18-140 20-211-2-55-4-109-12-163-10-75-10-74-85-74zm230 0c-17 1-22 7-24 22-23 128-25 257-6 386 8 57 8 57 64 57h23c13 2 18-5 20-17 13-70 19-140 20-211-1-55-3-109-11-163-10-75-10-74-86-74zm286 0c-75 0-75-1-86 74-7 54-9 109-11 163 2 71 7 141 20 211 2 12 7 19 20 18 8-1 16-1 23-1 56 0 56 0 64-56 20-130 17-258-5-387-3-15-8-21-25-22zm231 0c-76 0-76-1-86 74-8 54-10 109-11 163 1 71 7 141 20 211 2 12 7 19 20 18 8-1 15-1 23-1 56 0 56 0 64-56 19-130 17-258-6-387-2-15-7-21-24-22zm63 588c-54-1-107 0-161 0-50 0-50 0-37 50 4 15 9 21 26 20 33-1 67 0 101 0 37 0 74-1 111 0 15 0 19-5 19-19 1-35-16-51-59-51zm-110-27c31 0 62-1 93 0 12 0 17-4 17-16 1-29-12-46-43-47-49-1-98 0-147 0-45 0-44-1-34 42 4 16 12 22 28 21 29-1 57 0 86 0z"/></svg>