<svg width="64" height="64" viewBox="0 0 1000 1000" xmlns="http://www.w3.org/2000/svg"><path d="M276 365c4-20 7-36 34-33 14 2 26-9 33-21 9-15 11-28-14-27h-50c28-49 29-61 12-83-24 60-31 63-85 66-51 3-75-23-88-69-13 33-5 59 19 86-18 0-31-1-43 0-10 2-28-8-31 9-3 16 10 27 23 34 8 5 18 7 27 7 9-1 15 0 18 12 7 37 23 73 23 112 0 27 10 37 36 39 15 0 31 0 46-3 14-2 20-9 20-23-1-37 14-70 20-106zm-36 105c-6 8-10 0-15-2-13-3-27-5-39 2-6 3-10 8-15-1-4-6-2-12 2-17 27-38 23-77 4-117-15-31-6-46 27-47 37 0 46 15 31 47-18 39-23 78 3 115 4 7 7 13 2 20zm661 274c0-24 5-48-18-66-9-5-6-15-3-23 7-18 14-36 22-58 20 25 36 47 34 78-1 36 1 71 0 106-1 9-1 16 1 20h-45c9-7 9-23 9-57zm-413 57h-42c1-3 0-8-1-13-7-43-19-86-15-130 0-10-7-29 15-24 15 4 41-6 40 26-1 41 0 83 0 124-1 8 0 13 3 17zm330-19c-4 9-5 15-3 19h-45c12-31 32-63 27-96-4-34-20-65-31-98-4-14-11-12-19-3l-3 2c-51 47-130 41-155 37-50-8-100-17-150-26-13-2-25-6-24 15v159c0 4 1 8 2 10h-43c2-3 2-8 1-16-12-86-24-172-78-246-32-44-23-98-10-146 12-42 47-63 91-64 152-1 303-1 455 0 57 0 100 39 103 96 3 60 1 120 1 180-3 0-6 0-9 1-13-29-1-61-7-90-8-1-8 6-9 9-32 86-62 172-94 257z"/></svg>