<svg width="64" height="64" viewBox="0 0 1000 1000" xmlns="http://www.w3.org/2000/svg"><path d="M628 105c89 27 144 93 189 169 6 10 8 16-6 21-12 4-23 13-34 21-8 6-12 5-18-3-10-13-22-24-32-37-14-18-33-26-56-29-25-2-49-8-72-17-29-12-43-33-40-63 14 13 27 27 42 37 13 7 25 14 39 17 15 3 29 2 38-11s5-27-3-39c-16-25-41-40-68-52-7-4-17-4-21-14h42zm-216 0c-2 8-9 8-14 11-22 9-42 20-59 36-8 7-14 15-19 25-5 11-7 22 1 33s19 14 32 12c27-4 47-19 66-36 7-5 13-12 19-18 6 20-3 41-24 54-20 13-42 18-64 22-7 1-15 3-22 3-24 1-43 11-58 30-7 10-16 19-24 28-17 20-10 20-35 4-6-4-12-10-19-12-20-6-16-16-7-30 38-62 83-118 152-149 11-5 22-8 34-12l41-1zm32 187c14 8 17 19 20 29 4 13 6 27 9 41 2 9 5 15 16 7 4-3 10-5 14-2 15 10 18 0 21-11 6-18 12-37 23-52 3-5 7-10 12-6 6 5-2 7-4 11-9 14-11 30-12 46 0 10 7 11 14 13 42 16 83 34 119 62 22 16 35 36 28 65-14 67-40 128-96 170-76 55-184 39-249-35-30-35-48-74-58-119-9-38 6-63 37-83s64-34 99-46c11-4 14-9 14-20 0-22-3-44-7-70zm-267 6c3 1 5 3 7 4 43 28 84 58 123 91 10 8 13 13 1 23-28 25-27 26-58 2-26-20-52-41-74-65-16-18-17-34-5-50 2-2 2-5 6-5zm659 26c-2 12-6 21-13 29-29 30-61 56-95 80-10 7-17 5-24-3-2-3-5-5-7-8-19-19-19-19 3-37 34-27 69-53 106-78 6-3 12-12 17-8 8 6 12 16 13 25zm102 87c-25 61-57 112-109 150-21 15-42 30-66 41-20 8-40 10-61 4-6-2-10-5-6-13 5-8 8-17 13-26 1-4 3-7 9-5 20 11 38 1 56-6 66-25 115-70 151-130 2-3 5-7 8-11 0-1 1-1 5-4zm-874 0c14 23 29 45 45 65 36 43 82 69 133 87 9 3 19 5 29 3 5-1 12-9 17-2 7 11 11 24 16 36 1 3-5 4-8 5-21 7-41 5-60-4-83-38-140-100-173-185-1-1 0-2 1-5zm9 168c71 44 149 51 229 44 16-2 16 9 20 16 15 24 14 29-13 27-82-4-160-22-226-74-4-3-10-6-10-13zm849 4c-15 20-36 32-59 43-51 23-105 36-161 41-12 1-31 2-34-7-4-12 11-24 17-36 3-5 8-1 13 0 62 6 123-1 182-21 15-5 28-13 42-20zM251 874c-14-42-2-79 20-115 19-32 47-57 71-85 3-5 6-5 9-2 4 3 8 5 12 7 24 16 24 16 1 34-19 15-39 29-58 45-34 31-58 67-55 116zm497 0c3-59-31-97-72-130-18-14-35-27-53-40-7-6-10-11 1-18 27-17 27-18 49 6 30 32 60 65 74 108 8 25 10 50 1 74zm-140 21c3-47-11-90-31-131-4-7-8-14-11-22-4-10-16-22-9-31 7-10 23-3 36-4 5-1 6 2 8 7 10 42 22 85 19 129-1 18-2 36-12 52zm-218 0c-13-29-14-60-11-90s11-59 18-88c2-8 4-11 12-10 37 1 44-8 23 35-24 49-46 97-42 153z"/></svg>