<svg width="64" height="64" viewBox="0 0 1000 1000" xmlns="http://www.w3.org/2000/svg"><path d="M893 360c-34-36-95-50-133-32 17 17 33 33 50 51-1 2-2 7-4 12 6 1 11 1 18 2-5 6-8 10-12 14 8 4 15 7 23 11l-21 9c6 6 10 11 17 18-8-1-12-2-19-3v15c-4-5-7-8-10-11l-14 19c-5-7-9-13-14-20l-13 21c-5-8-9-14-14-21-5 7-9 13-13 20l-15-19c-5 7-9 13-14 19-5-7-8-13-13-20l-14 21c-5-8-9-14-14-21l-13 20-15-20c-4 7-8 13-13 20l-14-19c-5 7-9 13-14 19l-14-20-14 20c-5-8-9-13-14-20-4 7-8 13-12 20-6-7-11-13-16-19l-13 19c-4-7-9-13-14-21-6 10-10 17-14 22-42-3-81-10-128-8 1 0 2 1 3 1h5c12 0 22 5 22 12s-10 12-22 12c-6 0-11-2-15-4h-6c-12 0-21-5-21-12s9-12 21-12c3 0 5 1 7 1-8-4-20-6-32 7-5 5-12 11-18 12-36 7-72 14-109 18-25 2-53 5-75-4-32-13-41-5-49 19-12 37-2 76 47 69 88-12 171 17 259 28v48c1 17 9 27 27 27 18-1 24-12 24-29v-32l6 1c0 11 0 23 1 34 0 17 8 26 25 26s25-10 25-26c1-12 1-24 1-36h278v33c1 16 6 28 24 29s27-8 28-28c1-11 1-23 1-34h5c0 12-1 24 0 36 1 16 8 26 25 26s26-10 27-25c0-15-1-30 0-45 1-8 4-17 10-22 71-61 77-160 13-228zM310 555c-77 1-155 0-232 0-2 0-3-1-5-3 95-2 191 12 285-13-11 15-31 16-48 16zm30-90c0 3-3 5-7 5s-8-2-8-5 4-6 8-6 7 3 7 6zm29 5c0 3-3 6-7 6s-8-3-8-6 4-5 8-5 7 2 7 5z"/></svg>