<svg width="64" height="64" viewBox="0 0 1000 1000" xmlns="http://www.w3.org/2000/svg"><path d="M778 357c-54-43-75-43-129 0-16 13-33 26-46 42-34 43-68 88-100 133-13 19-29 26-50 21-21-6-36-18-37-41-1-32-6-64-1-95 8-52 23-103 36-155h-28c-48-1-80 19-97 65-29 76-38 152-23 231 5 26 20 46 49 53 86 20 172 40 258 59 12 3 32 2 40-6 69-67 126-143 151-236 7-27 1-53-23-71zM428 513c3 11 18 25 31 29 8 3 26-6 33-15 59-87 116-174 223-221-11-10-18-18-26-23-61-35-126-41-193-27-13 2-27 14-33 25-37 74-49 151-35 232zm388-100c-23 103-86 183-156 262 25 10 48 18 70 29 25 12 48 8 66-11 26-28 54-57 74-90 45-71 23-144-54-190zM332 286c-31 9-59 11-82 23-19 10-41 27-48 46-23 62-27 127-13 192 5 23 19 43 47 46 21 1 43 0 66 0-32-105-18-204 30-307zm-154 88c-28 21-52 45-73 71-27 32-44 68-42 109 1 31 17 44 49 38 24-5 48-10 76-15-27-67-18-133-10-203zm731 192c-36 49-72 99-110 150 19 9 41 21 63 31 26 10 47 1 61-22 26-41 15-128-14-159z"/></svg>