<svg width="64" height="64" viewBox="0 0 1000 1000" xmlns="http://www.w3.org/2000/svg"><path d="M913 193c18-16 32-46 20-54-10-7-39 30-45 49-2 6-5 14-1 16 5 1 21-7 26-11zm-52 51c12-24 20-64 8-69-16-6-35 29-37 59 0 7 4 29 8 32 0 1 0 0 1 1-10 12-20 25-30 36v-1c11-21 16-78 1-80-17-3-30 34-26 64 1 7 7 26 12 30-11 12-23 23-35 33l3-6c10-23 12-79-3-81-16-2-28 36-23 65 1 7 9 26 14 30-11 9-22 17-33 26 1-4 3-8 4-11 8-23 5-80-10-80-17-1-25 38-17 67 2 7 11 25 16 28-12 9-24 17-36 25l-3 2c1-3 2-6 4-9 9-23 10-79-5-81-17-2-27 37-22 66 2 7 9 25 15 29-7 4-13 7-20 11-7 5-15 9-23 13 1-2 3-4 4-7 12-21 18-77 3-80-16-4-31 33-28 63 1 7 6 25 11 30-1 1-3 1-4 2-12 6-25 13-37 19 1-2 2-4 3-5 13-21 23-76 9-81-17-4-33 32-33 62 1 6 5 24 9 30-10 5-21 10-32 16-3 2-7 4-11 6 2-2 3-4 5-6 14-19 28-74 14-79-16-6-35 29-37 59 0 7 3 27 8 31-14 8-28 15-42 23 0-1 1-2 2-4 15-19 29-74 15-79-16-6-35 29-37 59 0 7 3 25 7 31l-6 3c-11 7-24 14-35 20 15-19 32-70 18-76-15-7-36 26-40 56-1 6 1 24 4 31-9 5-18 11-27 16-26 17-53 32-76 50s-47 34-67 53c-10 9-20 17-29 26-5 4-10 8-14 12-4 5-9 9-13 13-4 5-8 9-12 13l2-3c2-5 4-10 6-14 2-5 4-10 6-14 1-5 3-10 4-15 3-9 4-18 6-27 1-8 3-17 3-24 1-8 2-15 2-21s1-12 1-16v-14s-1 5-2 13c-2 9-3 22-6 37-1 7-3 15-5 24-2 8-5 17-8 26-1 4-3 9-4 13-2 5-4 9-6 14s-4 9-6 13l-4 7v1c0 1-1 1-1 2l-2 3-8 13-9 12-12 15h1c-17 19-34 39-50 60-1 1-2 2-1 3s0 2 1 3c2 2 5 1 6-1 48-57 136-109 149-116s28-13 43-20c5-2 9-4 15-6 10-4 20-8 31-11 8-3 16-5 24-8l32-7c1 0 3-1 3-1h3l13-2c8-1 16-3 25-3 8-1 17-1 25-2h24c17 0 32 1 47 2 15 2 29 3 42 6 25 3 47 7 62 10s23 5 23 5-8-3-22-8c-8-2-17-5-27-8s-22-6-35-9-27-5-42-8c-15-2-30-5-47-5-8-1-17-1-25-1l-26 1c-9 0-18 2-26 3l-14 2h-3c-2 0-2 1-4 1l-6 1-25 7c-9 2-17 5-26 8-6 2-13 4-19 7l-5 2c-8 4-16 7-23 10-15 8-30 15-42 23-14 8-26 15-37 23-11 7-20 14-29 21-4 2-7 5-10 7 12-11 25-23 39-37 5-3 9-8 14-12 4-4 9-8 14-12 9-7 19-16 30-24 20-17 43-34 67-51 22-18 48-33 74-51 4-3 8-6 13-8 4 6 16 17 21 20 25 14 65 16 68-1 3-15-49-31-73-30 13-8 26-16 40-24 2 6 16 20 22 23 26 14 65 16 68-1 4-14-49-31-73-29-2 0-4 0-6 1 15-9 30-18 46-27 2 7 14 21 20 24 23 17 63 23 68 7 4-15-47-37-71-37h-6c8-4 15-8 22-12 5-3 10-6 15-8 1 6 16 20 23 24 25 14 64 16 68 0 3-15-50-33-73-31l-7 1c14-8 28-15 42-23 2 6 16 20 23 24 25 15 64 17 68 0 3-15-50-32-74-30h-5c12-7 25-14 37-22 4-2 8-4 11-7h1l42-27c0 6 14 22 20 26 24 17 63 23 68 6 4-14-47-36-71-37-3 0-8 0-11 1 10-8 21-15 31-23 3 6 17 18 22 21 26 14 65 15 69-2 3-15-51-31-75-28-2 0-4 1-6 1 8-7 17-14 25-22v1c3 5 22 14 29 16 29 6 67-4 65-22-1-15-57-15-79-5l-7 3c11-10 21-21 32-32-1 1-1 3 0 4 3 4 24 9 31 9 29-1 64-19 59-35-5-15-59-3-79 11-2 2-5 4-7 6 9-10 18-21 26-32 8 2 25-1 31-3 27-9 55-38 45-52-8-11-44 9-63 28zM679 430c-7 0-18-1-18 4 0 6 15 22 21 26 24 17 63 23 68 7 4-15-47-37-71-37z"/></svg>