<svg width="64" height="64" viewBox="0 0 1000 1000" xmlns="http://www.w3.org/2000/svg"><path d="M544 419v18c0 107 0 214 1 322 0 10-3 12-13 12h-95c-4 0-10-2-10 5 0 8 5 6 10 6h97c3 0 9-1 9 2 1 6-5 5-8 6l-98 27c-2 0-5 0-7 1-4 2-3 6-3 9 1 5 5 3 7 2 18-9 34-2 50 5 17 7 35 14 53 21 6 2 8 5 7 11-1 7-6 4-10 4h-97c-4 0-10-2-10 6s5 6 9 6c13 0 26 0 40 2l-42 24c-7 4-9 8-5 16 16-9 34-17 49-28 18-13 37-16 58-14 6 0 8 1 9 7 1 28 1 28-25 33l-81 15c-7 1-12 1-13 11-4 31-31 54-61 52-33-2-57-27-57-61V745v-49c1-5-1-7-6-8-37-9-53-30-53-67V353c0-9 0-19 3-28 7-25 29-43 56-43h102c9 0 11 3 11 11-1 106-1 213 0 319v10c0 4 2 6 5 6 4 0 6-2 6-5v-11-318c0-10 3-12 13-12 32 1 65 0 97 0 16 0 29 5 41 15 36 29 71 58 107 87 17 14 25 31 24 52v8c0 8-2 17 1 24 4 7 15 1 23 2 7 1 11 5 11 12 0 41 2 83-1 124-1 20-12 37-24 54-14 21-30 42-45 63-8 11-12 23-12 38 1 72 0 145 0 218 0 3 1 7 0 10-1 7-6 11-13 11-6-1-10-5-10-12-1-7-1-13-1-20 0-69 0-138 1-207 0-14-4-26-12-37l-45-63c-12-17-22-35-25-56-1-5-1-9-1-14V488c0-14 3-18 17-18 2 0 5 1 7 0 4-1 9 3 11-3 1-5-1-9-5-12-15-11-29-23-47-36zm112 296c17-25 37-48 52-73 9-15 17-29 18-46 1-32 0-63 0-95 0-5-1-7-6-7s-5 3-5 7v18c0 20 0 40-1 60 0 31-26 56-58 57-29 0-57-23-58-53-2-26-1-53-1-79 0-5 1-10-7-10-7 1-4 6-4 10-1 30 0 60 0 89 0 10 2 19 6 28 16 35 42 62 64 94zM427 0c65 0 118 54 117 119 0 64-54 117-118 117-66 0-118-54-118-121C309 52 363 0 427 0zm46 998c14-21 28-41 43-61 6-8 17-6 26-7 3 0 2 3 2 5 5 39-33 72-71 63zm29-61c-14 20-26 37-38 54-3 4-5 3-9 1-13-8-21-20-27-34-2-6 1-8 6-9 22-4 43-8 68-12zm-28-119c23-6 44-12 64-17 5-2 6 0 6 4v35c0 4-1 5-5 4-21-8-42-17-65-26z"/></svg>