<svg width="64" height="64" viewBox="0 0 1000 1000" xmlns="http://www.w3.org/2000/svg"><path d="M705 589c0-2-1-2-2-2 0 0-1 0-1 1-64 37-129 74-193 111-3 2-4 4-4 7v224c0 1 1 2 2 2l1-1c65-37 129-75 193-112 4-2 4-4 4-7V591v-2zM490 698c-59-33-117-67-175-101-4-2-7-4-10-5-6-4-10-5-10-4v225c0 4 2 5 5 7l186 107c1 1 3 2 5 3s4 1 4-1v-3-218c0-5-1-7-5-10zm187-113c13-7 22-13 22-14-1 0-1 0-2-1-64-37-129-74-193-111-3-2-5-2-8 0l-147 84-24 15c-14 8-24 15-22 16 1 1 2 1 3 2 63 36 126 72 189 109 4 2 6 2 10 0 49-29 99-58 149-86 8-5 15-9 23-14zm260-383v-2c0-1-1-2-2-2l-1 1c-64 37-129 74-193 111-3 2-4 4-4 7v224c0 1 1 2 2 2 1-1 1-1 2-1 64-37 128-75 193-112 3-1 3-3 3-7V202zM722 309c-58-33-117-67-175-101-3-2-7-3-10-5-5-3-10-5-10-4v225c0 4 2 5 5 7l186 107c2 1 3 2 5 3s4 1 4-1v-3c0-73 0-146 1-218-1-5-2-7-6-10zm187-112c13-8 23-14 22-15h-1c-65-38-129-75-194-112-3-2-5-2-8 0-49 28-98 56-146 85l-25 14c-14 8-23 15-22 16s2 1 3 2c63 36 126 73 189 109 4 2 6 2 10 0 50-29 99-57 149-86 8-4 16-9 23-13zM473 423V202v-2c0-1-1-2-2-2 0 1-1 1-1 1-65 37-129 74-193 111-3 2-4 4-4 7v224c0 1 1 2 2 2 0-1 1-1 1-1 65-37 129-74 193-112 3-1 4-3 4-7zM258 309c-59-33-117-67-176-101l-9-5c-6-3-10-5-10-4v225c0 4 2 5 4 7l187 107c1 1 3 2 4 3 3 1 5 1 5-1v-3-218c0-5-1-7-5-10zm187-112c13-8 22-14 22-15h-2c-64-38-129-75-193-112-3-2-5-2-8 0-49 28-98 56-147 85l-25 14c-13 8-23 15-21 16 1 1 2 1 3 2 63 36 126 73 189 109 3 2 6 2 9 0 50-29 100-57 150-86 8-4 15-9 23-13z"/></svg>