<svg width="64" height="64" viewBox="0 0 1000 1000" xmlns="http://www.w3.org/2000/svg"><path d="M838 215c-43-40-91-71-140-100-90-52-183-64-282-32-64 20-124 48-182 81-72 41-117 102-141 180-20 63-28 127-30 193-4 97 26 180 99 247 51 45 107 84 169 115 72 37 148 46 227 24 75-21 146-53 213-94 65-40 111-97 134-171 23-71 33-144 33-219-1-89-34-164-100-224zm36 426c-22 69-66 121-128 158s-128 67-197 87c-71 22-140 15-206-16-62-29-119-66-169-112-57-52-84-118-84-196 1-65 11-130 30-193 21-72 64-127 129-166 64-38 133-69 205-90 63-17 126-13 186 12 67 29 127 69 181 117 61 55 87 124 85 205-1 66-12 131-32 194zM513 396c4 0 8-1 12-4 27-16 44-41 61-65-1-1-1-2-2-3-16 7-32 12-47 19-13 7-26 16-39 24-5 4-10 9-6 17s11 14 21 12zm11 120c11-11 11-27 2-36-13-13-34-11-48 3-11 12-12 27-2 37 13 11 36 10 48-4zm-134 22c-23-17-50-26-78-34-1 1-2 2-2 3 16 19 33 38 50 55 7 6 15 10 23 15 7 3 11 1 15-5 8-12 6-24-8-34zm244-172c-10 25-20 50-29 76-2 6-3 12-3 18 0 11 4 15 15 15 12 1 20-6 23-21 7-29 2-58-2-87l-4-1zM508 632c-7-9-15-17-24-25-10-9-19-6-24 6-5 10-2 19 8 30 21 20 46 32 74 45-4-7-6-12-9-17-8-13-15-26-25-39zM405 405c-31 2-57 17-84 30 0 2 0 3 1 4 25 2 50 3 75 4 8 0 15-1 23-4 11-3 13-9 10-20-4-10-11-15-25-14zm212 140c-11-1-21 4-23 15-2 6-2 13-2 20 2 26 11 51 23 75 2-8 5-15 6-23 3-24 6-47 7-71 1-7-1-15-11-16zm174-292c-40-35-83-63-129-87-65-35-133-47-205-27-68 19-132 48-192 85-56 34-96 83-116 146-21 64-32 130-30 198 2 72 31 131 85 179 42 37 89 67 139 92 68 35 138 42 211 19 61-19 120-45 175-78 54-33 94-77 115-137 25-71 37-144 33-219-3-69-34-125-86-171zM481 359c11-10 23-19 36-26 32-18 68-29 105-38 1-1 2-1 7-1-15 23-29 44-43 64-13 19-29 37-49 49-22 14-45 10-58-9-10-14-10-28 2-39zm-16 111c21-21 54-23 74-4 17 17 16 45-1 63-21 22-56 23-76 3-16-16-15-43 3-62zm-53 114c-8 12-19 17-32 11s-26-14-36-23c-30-27-53-60-75-94 0-1 0-2 1-3 21 5 42 10 63 16 24 7 47 16 68 32 22 16 27 40 11 61zm-25-122c-39 1-76-7-113-15-1-1-2-1-4-3 41-25 81-51 129-57 28-4 48 11 51 37 1 14-4 25-17 29-15 5-31 9-46 9zm190 259c-45-16-89-32-123-67-7-7-12-18-15-28-3-15 8-33 21-40 15-7 27 0 38 8 24 20 40 47 55 73 9 18 17 35 26 52l-2 2zm51-43c-3 9-7 18-11 30-21-42-40-83-43-129-1-10 1-20 4-30 10-24 46-32 61-12 5 8 8 19 8 29 3 39-8 76-19 112zm29-217c-5 25-24 36-48 32-14-2-22-11-24-24-1-8-1-16 0-23 9-47 34-88 59-131 9 31 16 61 17 91 1 18 0 37-4 55z"/></svg>