<svg width="64" height="64" viewBox="0 0 1000 1000" xmlns="http://www.w3.org/2000/svg"><path d="M724 598c-36 34-73 24-111 0-32 29-67 25-103 6-5-2-14-4-19-2-37 21-73 26-107-5-39 27-76 33-107 5-23 9-42 21-60 21s-37-12-54-18v3l4 11c33 94 66 189 101 283 5 12 21 20 33 29 4 4 11 5 17 7h362c36-8 51-32 62-66 20-65 45-128 68-192 6-19 13-38 20-58 2-8 5-16 8-24-49 35-63 34-114 0zM374 866c0 2-2 3-4 3h-18c-3 0-5-1-5-3V727c0-2 2-3 5-3h18c2 0 4 1 4 3v139zm96 0c0 2-2 3-4 3h-18c-3 0-5-1-5-3V727c0-2 2-3 5-3h18c2 0 4 1 4 3v139zm91 0c0 2-2 3-4 3h-18c-2 0-4-1-4-3V727c0-2 2-3 4-3h18c2 0 4 1 4 3v139zm92 0c0 2-2 3-5 3h-18c-2 0-4-1-4-3V727c0-2 2-3 4-3h18c3 0 5 1 5 3v139zm75-562c-7 0-14 0-20 1-5 1-10-2-11-7-18-66-68-119-133-141-13 22-36 37-64 37s-51-15-64-37c-65 22-115 75-133 141-1 5-6 8-11 7-6-1-13-1-20-1-90 0-162 73-162 163 0 46 19 88 50 117 4 4 11 7 15 7 11 2 30 3 42 3 16 0 32-9 52-17 4-2 11-1 14 2 28 20 60 16 94-5 4-3 10-2 14 1 32 24 66 18 100-1 5-2 14-1 19 2 34 17 66 22 97-1 3-3 10-4 14-1 32 19 65 26 97 2 4-3 10-4 14-1 37 22 72 19 89 18 5 0 11-2 15-5 33-30 54-73 54-121 0-90-72-163-162-163zM500 176c21 0 39-11 49-28 5-8 8-18 8-29 0-31-26-57-57-57s-56 26-56 57c0 11 3 21 8 29 9 17 27 28 48 28z"/></svg>