<svg width="64" height="64" viewBox="0 0 1000 1000" xmlns="http://www.w3.org/2000/svg"><path d="M165 788c67-17 112-89 95-156-6-23-2-30 21-37 113-39 226-77 339-116 107-36 215-73 322-110 19-6 38-14 58-18v-4c-13-28-37-42-65-51-39-12-80-14-121-10-46 4-88 23-129 42-79 36-154 80-229 122-69 38-139 73-214 95-19 6-37 5-55-3-35-17-72-19-108-3-52 23-83 77-78 132 5 52 38 95 86 112 34 12 72 6 78 5zm256-288c1-12 11-23 23-22 12 0 22 10 22 23 0 12-11 22-23 22-12-1-22-11-22-23zM130 736c-43-1-76-37-74-79s37-75 78-74c42 2 76 38 74 78-2 44-36 77-78 75zm375-201c-15 5-31 10-48 16 2 2 3 2 4 3 80 44 160 89 243 127 67 31 136 44 209 29 36-8 70-20 87-56v-4c-4 1-8-2-11-3-35-12-70-24-104-35-98-34-196-67-294-100-6-3-12-3-18 0-23 8-45 15-68 23zm-88-82c-5-2-8-3-11-4-43-15-87-30-131-45-15-5-20-15-16-30 24-92-52-177-145-164-52 8-87 37-105 85s-9 94 25 133c33 39 91 60 152 31 19-9 37-10 56-4 31 10 61 21 91 34 3 1 6 3 11 1 23-12 48-23 73-37zM56 340c0-42 34-76 76-76s77 36 76 77c0 42-35 77-76 76-42 0-76-35-76-77z"/></svg>