<svg width="64" height="64" viewBox="0 0 1000 1000" xmlns="http://www.w3.org/2000/svg"><path d="M587 0c8 6 17 13 26 19 35 29 51 65 33 110-17 43-50 65-96 61-47-3-76-33-85-77-10-47 13-80 53-103 6-4 14-7 21-10h48zM328 436c7 5 11 9 15 10 109 23 159 100 186 200 7 29 22 56 33 85 10 26 17 56-15 70-34 15-50-13-62-37-26-50-49-101-72-152-11-27-29-43-58-51-50-14-101-31-149-50-60-25-77-74-42-128 49-73 107-139 168-203 24-25 52-28 83-14 108 48 216 95 324 143 21 10 36 25 27 49-10 25-30 30-55 22-77-26-155-50-232-77-21-7-36-6-51 11-33 41-66 81-100 122zM193 617c104 0 192 89 191 193s-90 192-195 190C87 998 1 911 1 809 0 704 88 616 193 617zm115 192c1-63-51-116-114-117-64-1-117 50-118 113-1 66 51 120 117 120 63-1 115-52 115-116zm692-157c1 104-86 193-191 194-104 1-193-87-193-192 0-102 86-189 188-191 105-2 194 85 196 189zm-76 2c1-62-52-115-115-116-63 0-116 51-117 114-1 66 52 119 117 118 64 0 115-52 115-116zM39 286c4-29 17-54 38-75 47-50 102-81 173-75 22 1 35 9 16 32-49 60-98 121-148 181-8 10-16 20-31 10-27-18-47-39-48-73z"/></svg>