<svg width="64" height="64" viewBox="0 0 1000 1000" xmlns="http://www.w3.org/2000/svg"><path d="M276 406c2 2 4 6 8 5 2-1 1-5 2-8l3-30c1-23 5-46-4-69-1-2-1-4-2-6 0-3 0-6 2-7 3-2 6 1 7 3 3 4 5 7 7 10 6 15 6 30 5 46 0 20-2 41-4 62-2 36-2 72-15 106-8 21 7 67 34 81 14 7 28 12 43 19 20 8 36 21 41 44 2 7 6 11 12 14 50 17 99 20 149 2 10-4 17-9 20-20 3-14 12-24 24-31 8-4 15-8 23-11 17-7 34-13 49-21 10-6 19-13 22-24 5-16 9-33 6-50-2-13-4-26-5-39-3-24-4-48-6-73-2-26-4-51-3-77 0-10 2-20 8-28 2-3 4-8 9-6 3 2 2 7 1 10-1 6-3 12-4 19-4 31 2 62 5 94 20-16 30-35 35-58 6-27 7-54 4-82-6-47-26-87-61-119-37-34-82-51-131-59-15-3-29-4-43-6h-38c-3 2-6 2-8 2-39 2-76 10-111 26-31 14-59 34-79 62-41 59-46 123-25 190 4 11 11 21 20 29zm269 14h11c25 2 50 4 75 9 23 5 39 22 38 43-2 25-15 44-38 54s-44 4-61-12c-18-17-35-35-47-56-13-24 3-36 22-38zm-42 102c19 24 37 45 43 74 2 10 0 19-9 26-9 8-17 7-22-5-4-11-7-22-8-34-2-18-3-36-4-54v-7zm-16 3c0 31 0 61-10 90-2 6-5 12-14 12-8 0-17-9-18-17-2-8-1-16 2-24 9-23 24-42 40-61zm-159-67c6-17 20-25 36-29 25-6 51-7 76-10 6 0 12 1 19 3 14 3 22 16 16 29-16 30-36 57-66 73-28 15-58 3-74-25-7-13-12-26-7-41zm574 319c-17-7-35-8-52-6-29 3-55-1-80-14-30-16-61-30-91-46-6-2-8-2-9 5-2 13-5 25-11 37-2 6 0 8 5 11 25 11 49 25 74 36 29 12 50 32 65 58 11 19 26 35 46 43 5 2 13 3 22-1 11-5 14-13 12-25l-3-14c-2-15 2-24 16-31 5-2 10-5 15-7 8-5 11-11 11-20-2-13-8-21-20-26zm-575-59c-1-9-4-8-10-5-30 15-61 30-91 45-23 12-47 16-73 13-13-1-25-1-38 1-10 1-19 4-26 10-17 12-15 34 4 43 4 2 8 4 13 6 11 6 15 15 13 28l-3 15c-2 13 1 20 11 25 4 3 14 6 26 1 18-9 31-23 42-40l8-13c12-19 29-33 50-43 27-13 53-27 80-40 5-2 7-4 4-10-4-11-8-23-10-36zM142 534c28-2 53 4 78 17 15 9 30 16 47 24-2-7-4-12-6-17-4-13-6-25-4-38 1-7-1-10-7-13-17-8-33-15-46-29-10-11-18-25-27-37-11-16-23-30-42-37-9-3-19-2-27 5s-8 15-6 24c1 4 1 8 2 13 3 13-1 22-13 28l-12 6c-7 3-13 8-16 15v10c5 18 18 25 34 28 15 3 30 2 45 1zm488 107c-1-2-2-4-6-4 0 18-1 37-5 54-6 32-20 59-48 77-16 10-33 15-51 17-26 2-51 2-76-5-45-14-65-44-71-89-2-17-4-35-4-52-8 8-12 18-13 29-2 33 3 64 14 95 13 32 37 53 70 62 36 10 72 11 108 2 35-8 62-28 77-62 13-29 16-60 16-91 0-12-5-23-11-33zM520 763c1 3 2 5 5 5 5 0 11 2 14-5 3-4 1-23-2-24-1-1-2-1-4-1-11 0-14 1-13 16v9zm-31 7c10 3 14-1 14-14 0-16-1-17-11-16-6 0-10 3-9 8 2 7-6 18 6 22zm8-71c-4 0-11-3-13 3-2 7-1 14 0 21 1 3 3 4 6 5 10 2 13-2 13-15v-8c0-4-2-7-6-6zm-39 69c8 1 8-4 8-9v-8c0-11-2-13-12-13-10-1-7 7-7 12-1 3 0 6 0 8-1 9 5 10 11 10zm8-56v-2c0-11-2-13-11-13-10 0-8 7-8 13v7c0 5 2 8 7 9 11 1 13-1 12-14zm61 14c6 0 13 0 12-9v-15c0-3-2-4-6-5-10-2-13 2-13 15v5c0 5 0 9 7 9zm48-30c-2-5-8-3-11-2-9 1-8 8-8 15 1 3-1 9 4 11 5 1 11-1 14-5 4-5 3-12 1-19zm-153 36c-3-1-7-4-11 0-3 3 0 8 1 11 0 3 2 6 4 9 2 4 5 9 10 8 6-1 2-8 3-11v-8c0-5-2-8-7-9zm-4-38c-9 0-7 7-7 12-1 9 4 14 13 14s4-8 6-11c0-12-2-15-12-15zm141 66c4 2 6-1 8-3 5-6 8-12 9-20 1-5-1-7-6-6-11 1-13 3-12 17 0 2-1 4 0 5 0 3-1 6 1 7zm38-55c8-13 13-32 11-49-12 7-16 30-11 49zm-218-47c1 14 3 28 11 42 5-17 0-39-11-42zm10 61c0 7 2 11 6 16 1-6-1-11-6-16zm546-227c-3-5-8-9-14-11-5-2-9-4-13-7-11-5-16-15-13-27l3-18c2-9-1-16-8-21-10-7-21-6-31-2-16 8-28 21-37 36-9 12-17 25-28 37-13 14-32 22-49 31-8 4-14 8-12 19 1 4 0 10 0 14-1 12-5 23-8 36l62-31c20-11 41-15 63-14 14 1 28 1 42 0 18-1 34-5 42-23 7-12 1-19 1-19z"/></svg>