<svg width="64" height="64" viewBox="0 0 1000 1000" xmlns="http://www.w3.org/2000/svg"><path d="M933 159c-9-20-26-28-48-28H118c-38 0-55 18-55 56v630c0 15 3 28 14 38 11 11 25 14 39 14h770c32 0 51-19 51-50 1-213 1-425 0-638 0-7-1-15-4-22zm-629 30c15 0 23 8 23 23 0 16-7 23-22 23-16 0-23-7-23-22-1-17 6-24 22-24zm-80 0c15 0 22 7 22 23 0 17-6 23-22 23s-23-7-23-23c0-15 7-23 23-23zm-81 0c15 0 23 8 23 23 1 15-7 23-22 23-17 0-24-7-24-22 0-16 7-24 23-24zm772 625c0 24-8 31-31 31H115c-22 0-30-8-30-30V293h829l1 521zm-444-48c34-8 49-43 34-74-1-1-1-5 0-6 13-18 26-36 39-53 1-1 4-2 5-2 14 4 27 1 40-6 1 1 2 1 4 2l51 39c2 1 2 4 2 6 0 6-1 12 0 18 2 21 18 38 39 42 20 5 42-5 52-22 12-19 11-42-3-58-2-3-2-5-1-8 18-36 36-72 54-107 2-4 3-5 8-5 27 1 51-22 51-50s-24-51-51-50c-21 1-37 10-45 29-8 18-6 36 6 52 2 3 3 5 1 8l-54 108c-1 2-4 4-6 4-9 0-18 2-27 6-2 2-4 2-6 0-17-13-33-25-50-38-4-2-5-5-4-9 8-35-25-67-59-59s-50 43-34 74c1 2 1 5 0 6-13 18-26 35-39 52-1 2-4 3-6 3-7 0-14-2-21-1-27 4-45 32-40 59 6 28 34 46 60 40zM241 639c54 18 105-2 132-31 0-1 0-1-1-1l-32-29c-20-17-41-35-61-52-2-2-4-5-4-7-10-29-19-58-28-87-4-11-8-22-11-33-44 16-82 61-82 120 0 53 36 103 87 120zm52-120c6 5 11 10 17 15 18 15 35 30 53 46 7 5 13 11 20 16 52-67 22-155-33-186-1 0-1 0-1 1-19 34-38 69-57 104-1 2 0 3 1 4zm44-116c-22-13-63-16-88-8 12 35 23 70 35 106 18-33 35-66 53-98z"/></svg>