<svg width="64" height="64" viewBox="0 0 1000 1000" xmlns="http://www.w3.org/2000/svg"><path d="M757 718c-9 0-18 7-19 17v23h38v-1-20c0-11-8-19-19-19zm92-48c-23-23-53-37-87-39h-5c-36 0-68 15-91 39-24 23-38 55-38 91 0 18 3 36 10 52 7 15 16 28 28 40 23 23 55 38 91 38 72 0 130-59 130-130 0-36-15-68-38-91zm-46 146c0 5-2 6-6 6h-80c-4 0-6-1-6-6v-52c0-3 2-5 6-5h4v-23c0-18 14-33 31-35 19-3 36 10 40 28v30h5c4 0 6 2 6 6v51zM474 433c199 0 360-59 360-131V194c0-73-161-132-360-132s-360 59-360 132v108c0 72 161 131 360 131zm0 251c44 0 87-3 126-9 30-53 87-89 152-89 22 0 42 4 61 11 14-14 21-29 21-45 0 0 1-175 0-178-13 68-170 122-360 122s-347-54-360-122c-1 3 0 178 0 178 0 73 161 132 360 132zm103 78c0-6 0-12 1-18-33 4-68 6-104 6-190 0-347-54-360-122v178c0 73 161 131 360 131 72 0 139-7 195-21-55-29-92-88-92-154z"/></svg>