<svg width="64" height="64" viewBox="0 0 1000 1000" xmlns="http://www.w3.org/2000/svg"><path d="M608 611c9-8 16-14 24-20 17-14 35-27 59-27 10 0 21-3 30-8 10-5 10-1 9 8-4 31-22 54-46 72-16 12-33 20-51 25-9 3-14 7-18 15-24 50-37 102-40 157-1 27-6 55-23 78-25 36-80 36-105 0-16-23-21-49-22-76-3-55-16-108-40-158-4-8-9-13-18-16-30-9-57-24-77-49-12-15-19-32-21-51-1-6 1-9 7-6 15 7 32 8 49 12 22 4 38 20 55 34 4 3 7 6 11 10 2-25-11-39-28-52-26-19-55-35-84-49-55-27-91-70-116-125-23-52-43-105-48-162 0-8-1-15 1-23 1-3 1-6 4-6 4-1 5 2 7 5 9 16 14 35 18 53 3 12 6 24 12 34 2 3 4 6 7 6 4-1 5-5 5-9 1-17 0-34-1-52-4-48-6-97 4-146 1-5 2-9 4-14 2-4 3-10 9-8 5 1 7 6 8 11 1 9-1 19-1 28 0 13-4 29 10 35 13 6 23-6 32-15 15-14 29-28 48-37 6-4 13-6 20-9 3-1 5-1 7 2 3 3 1 6-1 8l-18 18c-10 8-20 15-30 23-38 29-61 67-64 115-3 50 2 99 26 144 13 25 30 46 55 60 5 3 11 8 17 4 5-4 2-11 1-16-6-29-7-59-8-88-1-41-9-82-12-123-2-14-3-28 1-43 0-2 0-4 2-5 4-1 5 2 6 4 2 5 4 10 5 15 2 11 9 11 17 7 10-6 15-15 20-24 4-9 9-17 18-22 3-2 7-3 11-1 4 3 3 8 1 11-3 7-7 13-11 19-8 13-17 26-26 39-3 6-7 13-8 19-2 7-4 15 5 18 8 4 11-3 15-9 7-11 13-23 20-34 5-10 11-19 19-26 7-6 15-11 25-8-2 10-10 15-14 23-2 3-5 7-3 11 3 3 7 3 11 2 11-2 21-7 32-6 3 0 6-1 8 2 2 5-2 7-5 9-16 13-34 25-50 38-44 36-60 83-53 138 3 23 6 46 14 69 5 12 11 23 23 29 17 9 34 1 47-20 6-10 10-20 14-31 7-19 14-39 28-55 3-4 8-11 15-6 6 4 5 11 2 17-13 26-20 54-29 81-9 30 0 49 28 63 31 14 60 11 87-9 17-13 22-29 16-49-10-29-17-59-31-86-3-6-4-14 3-18 7-3 11 3 15 8 13 16 20 35 27 54 5 14 11 27 20 39 16 21 39 21 55-1 11-15 14-32 18-49 5-32 10-64 3-96-10-42-38-70-71-94-10-8-20-15-31-23-2-1-5-3-4-7s5-3 8-3c9 0 18 2 27 5 5 2 12 4 16-2 4-5-2-9-5-14-2-3-5-6-8-10-2-2-6-6-3-9 2-1 7-1 10 0 11 3 19 11 25 20 10 16 19 32 28 48 4 6 8 13 16 9s7-13 4-20c-6-17-17-31-27-45-5-8-10-15-15-23-3-6-7-13-1-18 7-4 13 2 17 6 6 5 10 12 13 18 4 9 9 17 17 22 10 6 15 4 19-7 2-6 3-18 9-17 7 1 6 13 6 20 0 28-4 56-8 83-4 30-6 60-7 91-1 21-3 43-7 64-1 5-4 12 2 16 5 3 11-1 16-3 29-16 48-42 61-71 23-53 28-108 16-164-10-44-41-74-77-99-10-8-20-15-29-25-2-2-6-6-3-10 2-4 6-2 10-1 24 7 42 22 59 39 7 7 14 14 22 19 13 8 24 3 26-13 2-11 1-23 0-35 0-2-1-3-1-5 1-7-1-18 9-19 8-2 9 8 11 15 8 30 9 62 8 94 0 31-3 62-4 93 0 9-5 23 6 25 8 2 10-13 13-21 7-20 10-41 18-61 3-6 5-16 12-14 6 2 6 12 5 19-1 25-5 50-12 75-12 40-26 78-45 115-25 50-63 85-113 110-26 13-51 27-75 44-17 13-32 27-31 54z"/></svg>