<svg width="64" height="64" viewBox="0 0 1000 1000" xmlns="http://www.w3.org/2000/svg"><path d="M476 418c0-96-2-193 0-289 1-31-9-53-35-67H116c-20 15-34 32-34 60 1 99 0 198 1 297 0 37 18 55 53 55h286c36 0 54-18 54-56zm-95-297c22-1 39 17 39 40 1 23-15 40-37 40-21 0-38-17-39-39 0-21 17-40 37-41zM214 379c0 21-18 38-39 38-20-1-37-19-37-41 0-21 20-40 41-40 19 1 36 21 35 43zm-37-178c-21 0-39-17-39-38-1-22 17-42 39-42 20 0 37 18 37 40 1 22-16 40-37 40zm102 108c-20 0-38-19-38-39-1-22 19-42 40-41 20 0 36 18 36 41 0 22-16 39-38 39zm141 71c0 21-18 37-39 37-20-1-37-20-37-42 1-20 20-39 40-39 20 1 37 21 36 44zm478 246c-68-71-135-141-203-212-22-23-50-24-73 0-69 72-138 145-207 218-9 10-14 21-13 39-2 12 6 24 16 35l112 117c30 31 60 63 91 95 26 27 51 26 77-1 67-70 133-139 200-208 26-27 26-56 0-83zm-384 81c-22 0-39-18-39-43 1-20 18-38 38-38 21 0 39 18 39 41 0 21-17 40-38 40zm145 0c-22 0-39-19-38-42 0-22 17-39 38-39 22 0 38 17 39 40 0 23-17 41-39 41zm-38-195c0-21 18-38 39-38 22 0 38 18 38 42-1 21-19 39-39 39-21-1-39-21-38-43zm77 308c-1 22-18 39-39 39-22 0-38-18-38-41 0-21 20-40 40-39 21 1 37 20 37 41zm108-113c-22 0-40-18-39-41 0-22 17-40 37-40 22 0 39 18 39 41 0 22-16 40-37 40z"/></svg>