<svg width="64" height="64" viewBox="0 0 1000 1000" xmlns="http://www.w3.org/2000/svg"><path d="M277 397c-22-16-47-25-75-27-13-1-26 0-37 0h-33c-16 0-31 2-45 7-29 10-52 28-68 54-11 18-17 37-19 58-2 32 6 61 25 87 26 36 62 54 107 54 20 1 41 0 62 0 6 0 13 0 19-1 25-4 47-14 66-29 30-24 48-55 50-93 1-20-2-39-10-57-9-22-23-39-42-53zM131 619c-65 0-118-54-118-119 0-66 53-120 119-120s119 54 119 119c0 66-53 120-120 120zm229-205h4c3 1 5 3 6 6 1 2 1 5 1 7v63c0 9-1 11-11 12-2 0-1 1-2 3 0 1 1 1 2 1h38c8 0 15-1 23-3 28-9 41-41 26-67-7-14-19-21-34-24-10-2-20-2-31-1-6 0-14 0-21-1-1 0-3 0-2 2-1 1-1 2 1 2zm26 1h7c14 0 25 3 34 13 6 7 9 14 10 23 2 10 1 20-3 29-6 15-18 21-34 22h-4c-8-1-12-5-12-12v-70c0-1 1-2 0-3 0-1 1-2 2-2zm547-3c5 1 6 2 6 7v64c0 7-1 13-2 20 0 1 0 2 1 3 2 1 3 0 4-1s3-1 5 0c6 3 13 4 19 3 13-1 22-9 27-21 5-11 5-23-3-34-7-10-20-12-30-6-4 1-7 4-10 6v-49c0-3 0-3-3-2-4 3-9 5-14 6 0 1-1 1-1 2s1 1 1 2zm19 44c9-7 17-7 25 2 10 10 11 29 1 40-4 5-10 7-16 6-7-1-12-7-12-13v-32c0-1 1-2 2-3zm-184 46c19 10 38 7 58 0 0-1 1-1 1-2l3-18c0-1-1-1-2-2-2-1-2 1-2 2-4 15-16 23-30 22-11-2-20-7-27-16-11-14-13-30-9-46 4-17 17-28 35-29 13-1 28 4 31 21 0 2 2 1 3 1s1-1 1-1c-1-6-1-12-1-17 0-1-1-2-2-2l-9-3c-15-4-29-5-43 0-19 8-31 25-31 45 0 3 0 6 1 9 2 16 9 28 23 36zm-274 4h25c1 0 2 0 2-2s-1-2-2-2h-4c-2 0-3-1-3-4v-39c0-1 0-2 1-2 3-3 7-5 12-6 9-2 15 3 15 12v34c0 4-1 5-5 5h-2c-1 0-2 0-2 2s1 2 2 2h25c2 0 2 0 2-2s0-2-2-2h-2c-4 0-5-1-5-5v-32-8c-1-9-7-14-16-14-4 0-8 1-11 3-5 2-8 4-12 7v-8c0-1-1-2-3-1-5 2-10 4-15 5-2 1-2 2-1 3 0 1 1 1 1 1 5 2 7 5 7 10-1 11-1 22-1 34 0 4 0 5-5 5h-1c-1 0-3 0-3 2 0 3 1 2 3 2zm372-57c5 1 6 3 6 8v8c0 10 0 20 1 30 0 8 6 13 14 13 5 0 9-1 13-3s8-5 12-8v9c0 2 0 2 1 2 6-2 12-3 18-4 1 0 1-1 1-1 0-2 0-2-1-2h-4c-4 0-4 0-4-4v-49c0-2-1-3-3-2-6 0-12 1-18 1-1 1-2 0-2 2 0 1 0 1 2 2 2 0 5 1 7 2s3 2 3 4v34c0 1 0 2-1 2-4 3-8 6-13 7-6 2-12-1-14-7-1-3-1-5-1-8v-36c0-3 0-4-3-3h-14c-1 1-2 0-2 2 0 1 1 1 2 1zm-275 59c9-2 14-8 20-14 0-1 0-2-1-2-1-1-1-1-2 0s-3 2-4 3c-12 9-25 5-31-8-2-5-2-11-2-17 0-1 0-2 2-2h35c1 0 3 0 3-2 0-6-2-11-6-16-10-10-27-9-37 2-10 13-11 27-5 41 5 12 16 17 28 15zm-20-45c1-8 7-14 14-15 8-1 15 6 14 13-1 2-2 3-4 3h-22c-1 0-2 0-2-1zm25 122c-3 0-4-2-6-4-3-5-6-10-10-15 0-1-2-2-2-3s3-2 4-2l1-2c5-4 6-8 5-14-2-5-5-7-10-8-2-1-5-1-8-1h-23c-1 0-1 0-1 1s0 2 1 2c5 0 6 1 6 6v35c0 4-1 5-5 6-2 0-2 0-2 1 0 2 1 2 2 2 4 0 8-1 13 0h7c1 0 2 0 2-2 0-1 0-1-2-1-4 0-5-1-5-6v-13c0-3 0-3 3-3 2 1 2 2 2 3 4 7 9 14 14 20 0 1 1 2 2 2 4-1 8-1 12 0 1 0 2 0 2-1s0-2-2-3zm-21-28c-1 2-3 3-5 4h-5c-2 0-2 0-2-2v-9-9c0-1 0-2 2-2 4 0 8 0 11 5 2 4 2 9-1 13zm262-51h25c2 0 2 0 2-2s-1-1-2-1c-7-1-7-1-7-8v-88-4c0-1-1-2-2-1-5 3-10 5-15 6-1 1-1 1-1 2s1 1 1 1c4 1 6 4 6 8v77c0 6-1 6-6 7h-1c-1-1-2 0-2 2 0 1 1 1 2 1zm-177 31c0-1 0-1-1-1h-18c-1 0-2 0-2 1s1 2 2 2c5 0 7 2 7 8v23c0 1 0 2-1 2 0 0-1-1-1-2-10-11-20-21-29-32-1-1-2-2-3-2h-14c-1 0-1 0-1 1s0 2 1 2c5 0 7 3 7 7v34c-1 4-2 5-7 6-1 0-1 1-1 2s1 1 1 1c6-1 12-1 18 0 1 0 1 0 2-1 0-2-1-2-2-2-5 0-6-2-6-5-1-11 0-22 0-33 1 1 1 2 2 2l30 34 5 5c1 1 2 1 3 1s0-1 0-2v-40-3c1-4 3-6 7-6 1 0 1-1 1-2zm-217-1h-18c-1 0-1 0-1 1s0 2 1 2c6 0 7 2 7 7v26c-1 0-1-1-2-2l-29-33c-1 0-2-2-3-1h-13c-1 0-1 0-1 1s0 2 1 2c4 0 6 2 6 7v35c-1 3-2 4-6 5-1 0-1 0-1 1 0 2 1 2 2 2 5-1 11-1 16 0 1 0 2 0 2-2s-1-1-2-1c-4 0-6-2-6-6v-32c10 10 19 21 28 31 3 3 6 6 9 10 1 1 2 1 4 1 1-1 0-2 0-3v-42c0-4 2-6 6-6 1 0 1-1 1-2s0-1-1-1zm461 1c0-1-1-2-2-1h-17c-1 0-2 0-2 1 0 2 1 2 2 2 4 0 6 2 6 6v28c-1-2-1-2-2-3-10-11-19-22-29-32-1-1-2-3-3-2h-13s-2-1-2 1 1 2 2 2c4 0 6 2 6 5v35c0 4-2 6-6 6-2 1-2 1-2 2s1 2 2 1h17c2 1 2 0 2-1s0-2-2-2c-5 1-6-2-6-7v-30s1 0 1 1l27 30c3 3 6 6 9 10 1 1 2 0 3 0s1 0 1-1c-1-12 0-24-1-36 0-3 0-5 1-8 0-4 2-5 6-5 1 0 2-1 2-2zm-92-2c-18 0-30 16-27 34 3 12 14 21 29 21 1 0 3-1 5-1 19-3 29-26 19-42-7-10-16-13-26-12zm18 30c0 3 0 6-1 9-2 7-6 11-12 11-7 1-13-1-16-7-4-5-5-11-5-18 0-3 0-7 2-11 5-12 19-14 27-4 4 6 6 13 5 20zm-165-72v9c0 1 1 2 2 2 8 4 16 5 24 3s14-8 15-15c1-8-2-14-11-18l-12-6c-3-1-5-3-7-5-4-5-2-12 4-14 7-3 16-1 19 9v2c1 2 2 1 3 1 1 1 1 0 1-1 0-4-1-7-1-11 0-1 0-2-1-2-7-3-13-4-20-3-8 1-14 7-16 14-1 8 2 15 10 19 3 2 7 4 10 5 3 2 6 3 8 5 5 6 2 15-6 17-6 1-13-2-17-8-1-2-2-5-3-7 0-1 0-2-1-2-1 1-2 1-2 2s0 3 1 4zm-50 13h33c1 0 1 0 1-2s0-2-1-2c-3 1-6 1-9 0-3 0-4-1-4-4v-33c0-4 2-7 6-9 4-3 7-1 10 1s7 0 9-3c2-5-1-9-5-10-5-1-9 1-12 4-3 2-5 6-8 10v-13c0-2-1-2-3-1l-14 7c-1 0-1 0-1 1s0 2 1 2h2c3 2 4 4 4 7v37c0 3-1 4-4 4-2 1-3 1-5 1s-1 0-1 1c0 2 0 2 1 2zm-73 70c-1-1-2 0-2 1-1 3-3 6-7 7s-8 1-12 0c-3 0-4-2-4-4v-16c0-1 0-1 1-1h6c5 0 6 1 7 5 0 1-1 2 1 2s2-1 2-2v-13c0-1 1-3-1-3s-2 1-2 2c-1 3-2 4-6 4h-6c-2 0-2 0-2-1v-16c0-1 0-1 1-1 3 0 7-1 10 0 5 0 7 1 7 6 1 1 0 2 2 2 1 0 2-1 2-2-1-3-1-6-1-9 0-1 0-2-2-2-11 1-22 1-34 0-1 0-2 0-2 2 0 1 1 1 2 1 4 1 5 2 5 5v38c0 3-2 4-5 4-1 0-2 0-2 2s1 1 2 1h36c2 0 3 0 3-2 1-3 1-5 2-8 0-1 1-2-1-2zm412 9c-3 0-4-1-5-4l-6-18c-3-9-7-18-10-27 0-2-1-3-3-1-1 0-3 1-4 2-1 0-2 1-2 2l-15 42c-1 2-2 4-5 4-2 1-2 1-2 2 0 2 1 2 2 2 5-1 10-1 15 0 1 0 1 0 1-2 0-1 1-2-1-1h-1c-4-1-5-2-4-5l3-9c1-1 1-2 3-2h13c1 0 1 0 2 2l3 10c1 2 0 3-2 4h-2c-1 0-1 0-1 1s0 2 1 2c7-1 13-1 20 0 1 0 1-1 1-2s0-2-1-2zm-34-20c2-6 4-13 6-20 2 7 4 14 6 20h-12zm-210 20c-2 0-3-1-4-3-2-5-4-10-5-15-4-10-8-21-11-31-1-2-2-3-4-2-1 1-3 2-4 3-1 0-1 1-2 1l-14 43c-1 2-3 4-6 4-1 0-1 1-1 2s0 1 1 1h15c1 0 2 0 2-1s0-2-2-2h-1c-3 0-4-1-3-4l3-9c0-2 1-2 2-2h13c1 0 2 0 2 1 1 4 2 7 3 10s1 4-3 4c-1 0-2 1-2 2 0 2 1 1 2 1h19c1 0 2 0 2-1s0-2-2-2zm-34-20c2-6 4-13 6-20 3 7 5 14 7 20h-13zm81-31s-1-1-2 0c0 2-2 2-3 2h-39c-2 0-3 0-4-2 0-1-1-1-2 0s-1 0-1 1c0 3 0 7-1 10 0 1 0 2 1 2s2 0 2-1v-1c1-4 2-5 6-5h11c1 0 2 0 2 2v37c0 6-1 6-7 6-1 0-1 1-1 2s0 2 2 2c7-1 14-1 22 0 1 0 1-1 1-2s0-1-1-2c-5 0-6-1-6-6v-37c0-2 0-2 2-2h9c4 0 5 1 6 5 0 1-1 2 1 2 0 0 2 0 2-2 0-3 0-7 1-10 0 0 0-1-1-1zm-259 0c-1 0-2-1-2 0-1 2-2 2-4 2h-39c-1 0-3 0-3-2-1-1-2 0-2 0-1 0-1 0-1 1 0 4-1 7-1 10 0 1-1 2 1 2 1 0 2 1 2-1v-1c1-4 2-5 6-5h10c2 0 2 1 2 3v36c0 6-1 6-6 6-1 0-1 1-1 2s0 2 1 2c5-1 9-1 13-1s7 0 10 1c1 0 1-1 1-2s0-2-1-1c-6 0-7-3-7-7v-37c0-1 1-2 2-2h9c5 0 6 1 6 6 1 0 0 1 1 1s3 0 3-2c-1-3 0-7 0-10 0-1 1-1 0-1zm-38-28h26c1 0 2-1 1-3 0-1-2 0-3 0-5-1-6-1-6-7v-50c0-3 0-3-3-2-4 2-8 3-13 5 0 0-2 0-2 1s1 2 2 2c4 2 5 5 5 10v34c0 6 0 7-7 7-1 0-2 0-2 2 0 1 1 1 2 1zm539 69s-2 0-2 1 0 1-1 2c-1 4-4 6-8 6-3 1-6 1-9 1-4-1-5-2-5-6v-35c0-5 0-5 5-5 1 0 2 0 2-2s-1-1-2-1h-20c-2-1-2 0-2 1 0 2 1 2 2 2 4 0 5 1 5 4v38c0 3-1 4-5 4-1 0-2 0-2 2s1 1 2 1h37c1 0 2 0 2-1l2-10c0-1 1-2-1-2zm-620 10c-3 0-4-1-4-4v-37c0-4 1-5 5-5 1 0 1-1 1-2s0-1-1-1h-21c-1 0-1 0-1 1s0 2 1 2c5 0 5 1 5 5v37c0 3-1 4-4 4-2 0-2 1-2 2 0 2 1 2 2 1h19c1 1 2 1 2-1 1-2 0-1-2-2zm402-46c1 0 2 0 2-2s-1-1-2-1c-6 0-12 1-17 0h-2c-1 0-2-1-2 1s1 2 2 2c3 0 4 1 4 4v38c0 4-1 4-5 5-1 0-1 0-1 1 0 2 1 2 2 2 6-1 13-1 19 0 1 0 2 0 2-2s-1-1-2-1c-3-1-4-2-4-5v-38c0-3 1-4 4-4zM473 422c3 1 6-2 6-6 1-4-2-7-6-7-3 0-7 3-7 6 0 4 3 7 7 7zm-311 8c-3-1-3-1-3 2v136c0 2 0 2 2 1 17-7 29-18 37-33 22-40 5-88-36-106zm-60 0c-4 2-9 5-14 8-24 16-37 48-30 77 3 17 12 31 25 42 6 5 12 9 19 12 3 1 3 1 3-1v-68-68c0-3-1-3-3-2z"/></svg>