<svg width="64" height="64" viewBox="0 0 1000 1000" xmlns="http://www.w3.org/2000/svg"><path d="M847 154H153C69 154 0 223 0 308v384c0 85 69 154 153 154h694c84 0 153-69 153-154V308c0-85-69-154-153-154zm-5 293c3-1 7-2 10-4 2-1 2-1 2 1v37c3-2 5-4 8-5 8-4 17-2 23 5 5 8 6 17 2 26s-10 14-20 16c-5 0-10-1-15-3-1-1-3-1-4 0s-1 2-3 1c-1-1 0-2 0-3 1-5 1-9 1-14v-49c0-3-1-4-4-6-1 0-1 0-1-1s0-1 1-1zm-51 29l10-1c3 0 3 0 3 3v33c2 5 6 7 11 6 4-1 7-3 10-6v-27c0-2 0-2-1-3-2-1-4-1-6-2-1 0-1-1-1-1 0-1 0-1 1-1 5-1 9-1 14-2 1 0 2 1 2 2v38c0 2 0 2 3 3h3c1-1 1 0 1 1 0 0 0 1-1 1-5 0-9 1-13 3-2 0-2 0-2-1v-8c-3 3-5 5-8 6-3 2-7 3-10 3-6 0-11-4-11-10-1-8 0-16 0-23v-6c-1-4-2-5-5-6-1 0-2 0-2-1s1-1 2-1zm-22 43c4 0 5-1 5-5v-55-4c0-3-2-5-4-5-1 0-2 0-2-1s1-1 1-2c4-1 8-2 11-5 2 0 2 0 2 1v70c0 5 1 5 6 6 1 0 1-1 1 1 0 1 0 1-1 1h-20s-1 1-1-1c0-1 0-2 2-1zm-110-12c-1-2-3-3-5-4-3-1-6-2-8-4-6-3-8-8-7-14s6-10 12-11c5-1 10 0 14 2 1 1 2 1 2 2v8c0 1 0 2-1 2s-1 0-2-1v-2c-2-7-9-9-14-7s-6 7-3 10c1 2 3 4 5 5 3 1 6 2 9 4 7 3 9 8 8 14 0 5-5 9-11 11s-12 1-18-2c-1 0-1-1-1-2l-1-7v-3c0-1 0-1 1-1s1 0 1 1c0 2 1 4 2 5 3 5 8 7 13 6 6-1 8-7 4-12zm-58 12h3c3-1 3-1 3-4v-21-7c1-2-1-4-3-5h-1c-1 0-1-1-1-1 0-1 0-1 1-2l11-5c1 0 2 0 2 2v9c2-3 3-6 5-8 3-2 6-4 10-3 3 1 5 4 4 8-2 3-5 4-7 2-3-2-5-2-8-1-3 2-4 4-4 8v24c0 2 0 3 3 3 2 1 4 1 6 1 1 0 2 0 2 1s-1 1-2 1h-24c-1 0-1 0-1-1s0-1 1-1zm-36-38c7-9 21-9 28-2 3 3 4 8 4 12 0 2-1 2-2 2h-26c-2 0-2 0-2 1 0 5 0 9 2 13 5 10 14 13 23 6 1-1 3-2 4-3h1c0 1 1 1 0 2-4 5-8 9-14 11-10 2-18-2-22-11-4-11-3-22 4-31zm-56 38h1c3-1 4-1 4-5v-25c0-4-1-6-5-8h-1c0-1 0-2 1-3 4-1 8-2 12-4 1 0 1 0 1 1v6c4-2 6-4 10-5 2-1 5-2 8-2 7 0 11 4 12 10v31c0 3 1 3 4 4h2c1 0 1 0 2 1 0 1-1 1-2 1h-19c-1 0-2 0-2-1s1-1 2-1h1c3-1 4-1 4-4v-26c0-7-5-11-12-9-3 1-6 2-9 4-1 0-1 1-1 2v29c0 2 1 3 3 3 1 1 2 1 3 1s1 0 1 1 0 1-1 1h-19c-1 0-2 1-2-1s1-1 2-1zm-16-71c3 0 5 2 5 5s-2 5-5 5-5-3-5-5c0-3 3-5 5-5zm-10 71c5 0 6-1 6-6v-25c0-4-1-6-4-7-1-1-2-1-2-2s1-1 2-1c3-1 7-2 10-4 2-1 2 0 2 2v38c0 4 1 5 5 5 1 0 2-1 2 0 1 1 0 2-1 2h-20c-1 0-1 0-1-1s0-1 1-1zm-75-70h16c9 0 16-1 24 1 11 2 20 8 26 18 11 20 1 44-20 51-6 2-12 2-18 2h-28c-1 0-2 1-2-1 1-1 0-1 2-2 7 0 8-2 8-9v-48-5c-1-2-3-4-6-4h-2c-1 0-1-1-1-2-1-1 0-1 1-1zm-61 143c-15 12-32 19-50 22-5 1-10 1-15 1-16 0-31 1-47 0-34 0-61-14-81-41-15-19-20-41-18-65 1-16 5-31 14-45 12-19 29-33 51-40 11-4 22-6 34-6h53c21 2 40 8 57 21 14 10 25 24 32 40 6 13 8 28 7 43-2 29-15 52-37 70zm75-8c-5-1-10-1-14 0-1 0-2 0-2-1 0-2 1-2 2-2 2 0 3 0 3-3v-28c0-3-1-4-4-4-1 0-1 0-1-1s1-1 1-1h16s1 0 1 1 0 1-1 1c-3 0-4 1-4 4v28c0 3 1 3 3 4 1 0 2-1 2 1 0 1-1 1-2 1zm48-38c-3 0-4 1-4 5v32s1 1 0 1c-1 1-2 1-3 0-2-3-5-5-7-8-7-8-14-15-21-23v24c0 3 1 4 4 4 1 0 2 0 2 2s-1 1-2 1c-4-1-8-1-12 0-1 0-1 0-1-2 0-1 0-1 1-1 2 0 4-1 4-3 0-1 1-3 1-4v-23c0-3-2-5-5-5-1 0-1-1-1-1 0-1 0-1 1-1h10c1-1 1 0 2 1l22 25s1 1 2 1v-19c0-5-2-6-6-6-1 0-1-1-1-1 0-1 1-2 1-2 5 1 9 1 14 0l1 1c-1 1-1 2-2 2zm42 5c0 1-1 1-2 1-1 1-1 0-1-1 0-3-1-4-5-4h-6c-1 0-2 0-2 2v27c0 4 1 6 5 5 1 0 1 1 1 2s0 1-1 1c-2 0-5-1-7-1-3 0-7 1-10 1-1 0-1 0-1-1s0-2 1-2c4 0 5 0 5-4v-28c0-2-1-2-2-2h-8c-3 0-3 0-4 4 0 1-1 1-2 1s-1-1-1-1c1-3 1-5 1-8 0 0 0-1 1-1h1c1 2 2 2 3 2h30c1 0 2 0 2-2h2v9zm34 25l-1 6c-1 1-1 2-2 2h-28c-1 0-1 0-1-1 0-2 0-2 1-2 3 0 4 0 4-3v-28c0-3-1-4-4-4-1 0-1 0-1-1s0-1 1-1h26c1 0 2 0 2 1-1 2 0 5 0 7 0 1-1 1-2 1-1 1 0 0-1-1 0-4-2-5-6-5h-7s-1 0-1 1v12c0 1 1 1 2 1h5c2 0 3-1 4-3 0-1 0-2 1-2 2 0 1 2 1 2v10c0 1 0 2-1 2-2 0-1-1-1-1-1-4-1-4-5-4h-5c-1 0-1 0-1 1v11c0 2 1 3 3 4 3 0 6 0 10-1 3 0 4-2 5-5 0-1 0-1 1-1 2 0 1 1 1 2zm40 8c-3-1-6-1-9 0-1 0-1-1-2-2-3-5-7-10-10-15 0-1 0-2-2-2s-2 0-2 2v10s1 4 4 4c1 0 2 0 2 2 0 1-1 1-2 1h-6c-3-1-6-1-9 0-1 0-2-1-2-2s1-1 2-1c3 0 3-1 3-4v-26c0-4 0-5-4-5-1 0-1-1-1-1 0-1 0-2 1-1h24c3 1 6 3 7 7s0 7-3 10c-1 1-1 1-2 1-1 1-2 1-2 2s1 2 1 3l8 11c1 2 2 3 4 3s1 1 1 2c1 1 0 1-1 1zm43-33v2c0 10-1 20 0 30v2c-1 0-2 0-3-1l-3-4-23-25-2-2v24c0 3 1 4 5 4 1 0 1 1 1 2s0 1-1 1c-4-1-9-1-13 0-1 0-2 0-2-1s0-1 1-2c4 0 5-1 5-4v-25c0-4-1-6-5-6 0 0-1 0-1-1s1-1 1-1h11c1 0 1 1 2 1l22 25s0 1 1 1v-19c0-5-1-6-5-6-1 0-1-1-1-1 0-1 0-1 1-1h14s1 0 1 1c0 0 0 1-1 1-3 0-5 2-5 5zm44 33l-6-1c-3 0-6 0-9 1 0 0-1 0-1-1s0-2 1-2c3 0 3 0 3-3-1-2-2-5-3-7 0-1-1-1-1-1h-10c-2 0-2 0-2 1-1 2-1 5-2 7s0 3 2 3c1 0 1 1 1 0 1 0 1 1 1 2s0 1-1 1c-4-1-7-1-11 0-1 0-1 0-1-1s0-1 1-2c2 0 3-1 4-3 4-11 7-21 11-32 0-1 1-1 1-1 2-1 3-1 4-2s2-1 2 1l9 24 3 11c1 1 2 3 4 3 1 0 1 0 1 1 0 0 0 1-1 1zm35-33c0 1-1 1-2 1-1 1 0 0 0-1-1-3-2-4-5-4h-7c-1 0-1 0-1 2v28c0 3 1 4 4 4 1 0 2 1 2 2s-1 1-2 1c-5-1-11-1-16 0-1 0-2 0-2-1s1-2 1-2c4 0 5 0 5-4v-29c0-1 0-1-1-1h-8c-3 0-4 1-5 3v2c0 1-1 0-2 0v-1c0-3 1-5 1-8v-1h2c0 2 1 2 3 2h29c1 0 2 0 3-2h1c1 0 1 1 1 1-1 3-1 5-1 8zm-9-60c0-2-1-5-1-7 0-15 10-28 24-34 11-4 21-3 32 0l7 2c1 1 1 1 1 2l1 12c0 1 0 2-1 2 0 0-1 0-2-1-2-13-13-17-23-16-13 1-23 9-26 22-3 12-2 24 6 34 5 7 12 11 21 12 11 1 20-5 23-16 0 0 0-2 1-1 1 0 1 0 1 1 0 5-1 9-2 13 0 1 0 2-1 2-14 6-29 7-43 0-11-6-16-15-18-27zm28 90s1 0 1 2c0 1-1 1-1 1-5-1-10-1-15 0-1 0-2 0-2-1s1-2 1-2c3 0 4 0 4-3v-28c0-3-1-4-3-4-1 0-2 0-2-1 0-2 1-1 2-1h14c1 0 2 0 2 1s-1 1-1 1c-3 0-4 1-4 4v28c0 3 1 3 4 3zm28 3c-1 0-3 1-4 0-11 0-19-6-21-15-3-13 6-26 19-26 8 0 16 2 20 9 8 12 0 30-14 32zm58-34v34s1 1 0 1-2 0-3-1c-2-3-4-5-6-7l-21-23c0-1 0-1-1-1v23c0 4 1 6 6 5 1 0 1 1 1 2s-1 1-1 1c-5-1-9-1-14 0-1 0-1-1-1-1 0-1 0-1 1-2 4 0 5-1 5-5v-26c0-2-2-4-4-4-1 0-2 0-2-1 0-2 1-1 2-1h9c1 0 2 0 2 1 8 8 15 17 22 25 1 0 1 1 2 2v-21c0-3-2-5-5-5-1 0-1 0-1-1s0-1 1-1h13c1 0 1 0 1 1s0 1-1 1c-3 0-4 1-5 4zm44 34c-5-1-10-1-14 0-1 0-2-1-2-1 0-1 0-2 1-2h2c1 0 2 0 1-2-1-3-2-5-2-8-1-1-1-1-2-1h-10c-1 0-1 0-2 1 0 2-1 5-2 7 0 2 0 3 3 3h1c1 0 1 1 1 2s-1 1-2 1c-3-1-7-1-11 0 0 0-1 0-1-1s0-2 1-2c2 0 4-1 4-3 4-11 8-21 11-32l2-2c1 0 2 0 3-1s2-1 3 1c2 7 4 13 7 20 1 5 3 10 5 14 0 2 1 3 3 3 1 0 1 1 1 1 0 1 0 2-1 2zm35-9l-2 8c0 1-1 1-1 1h-28c-1 0-1 0-1-1 0-2 0-2 1-2 3 0 4-1 4-3v-29c0-2-1-3-4-3-1 0-1 0-1-1s0-1 1-1h15c1 0 2 0 2 1s-1 1-2 1c-3 0-4 0-4 4v27c0 3 1 3 4 4h7c3-1 5-2 6-5l1-2c0-1 1 0 1 0 2 0 1 0 1 1zM235 426c-50 0-90 41-90 90 0 50 40 90 89 91 51 0 91-41 91-91 0-49-40-90-90-90zm-21 91v51c0 2 0 2-1 1-6-2-10-5-15-9-10-9-16-19-19-32-5-22 5-46 23-58 3-3 7-5 11-6 1-1 1-1 1 1v52zm71 27c-6 12-16 20-28 25-1 1-2 1-2-1V465c0-2 0-2 2-1 31 13 44 50 28 80zm141-35c0 6 3 8 9 9h3c12 0 21-5 26-16 3-7 3-15 2-22s-3-13-8-18c-6-7-15-10-25-10-1 0-3 1-6 1-1 0-1 0-1 1v55zm428 1c1 4 4 9 9 10s10-1 13-5c7-8 6-22-1-30-7-7-13-7-20-1 0 0-1 1-1 2v24zm-285-21h17c1 0 2 0 2-2 1-5-4-11-10-10-5 1-10 6-10 11-1 1 0 1 1 1zm-7 57c-1 0-1 1-1 2v13c0 2 1 2 2 2h3c2-1 4-1 5-3 1-3 2-7 0-10s-5-4-9-4zm177 8c-1 3-1 6-1 8 0 6 1 10 3 14 3 4 7 6 12 5 5 0 8-3 10-9 0-2 0-4 1-6 0-6-1-11-5-15-6-8-16-6-20 3zm92 12h10c-2-5-3-10-5-15-2 5-3 10-5 15zm-184 0h9c-1-5-3-10-4-15-2 5-4 10-5 15z"/></svg>