<svg width="64" height="64" viewBox="0 0 1000 1000" xmlns="http://www.w3.org/2000/svg"><path d="M847 154H153C69 154 0 223 0 308v384c0 85 69 154 153 154h694c84 0 153-69 153-154V308c0-85-69-154-153-154zM663 641c-27 22-59 36-94 42-9 1-18 2-27 2h-89c-63-1-114-27-151-77-28-37-38-78-35-123 3-30 11-58 27-83 23-37 55-62 96-77 20-7 42-10 63-10h47c16 0 34-1 53 0 39 3 75 16 106 39 27 20 47 44 60 74 11 26 16 53 14 81-3 55-28 98-70 132zM453 330c-94 1-169 77-169 169 0 94 76 169 169 170 94 0 170-76 170-170 0-93-76-169-170-169zm-38 170v96c0 4 0 4-3 2-10-4-19-10-27-17-20-16-31-36-37-60-9-41 10-86 44-109 6-4 13-8 20-11 2-1 3-2 3 2v97zm133 51c-12 22-30 37-53 47-2 2-3 1-3-2V403c0-4 0-4 4-2 58 25 82 94 52 150z"/></svg>