<svg width="64" height="64" viewBox="0 0 1000 1000" xmlns="http://www.w3.org/2000/svg"><path d="M872 84H128c-36 0-65 29-65 66v700c0 36 29 66 65 66h744c36 0 66-30 66-66V150c0-37-30-66-66-66zM610 711c-30 49-72 81-128 94-115 29-230-49-248-166-13-82 24-163 95-206 2-1 4-2 7-4 2 19 3 37 4 56 0 2-2 5-4 7-45 40-63 91-50 149 13 57 50 95 107 113 79 24 166-25 188-105 1-2 1-4 2-8 10 22 20 43 29 63 0 2-1 5-2 7zm59 39c-3-9-7-17-11-24-24-54-48-107-72-160-2-6-5-8-11-8H381l-3-36-10-192v-10c-1-12-2-22-14-31-26-19-27-56-6-80 23-25 60-27 86-5 23 21 25 58 3 82-4 4-9 8-14 11-4 2-5 4-5 9 2 36 4 72 6 110h139v51H427c1 13 1 25 3 36 0 2 4 3 7 3 25 1 50 1 75 1 31 0 63 0 94-1 8 0 11 3 15 10 23 53 47 105 70 158 2 2 3 4 4 8 18-8 35-16 53-24 7 16 14 31 21 47-33 15-66 29-100 45z"/></svg>