<svg width="64" height="64" viewBox="0 0 1000 1000" xmlns="http://www.w3.org/2000/svg"><path d="M538 806c-96 1-173-76-173-171s77-172 171-172c94-1 172 76 172 169 1 98-74 174-170 174zM411 636c1 68 57 124 126 125 69 0 125-56 126-126 0-70-57-127-127-126-69 0-125 57-125 127zM211 363c48 40 106 55 251 64-51 53-114 68-187 80 39 17 73 16 109 16-8 18-16 33-23 48-2 4-5 6-9 7-28 5-55 9-84 0 23-4 44-10 62-29-17-3-32-5-46-7-22-5-41-16-56-33-16-20-33-40-66-43 22-13 39-11 57-5 49 18 95 4 141-17-14-1-28-3-42-5-31-6-62-15-87-34-43-33-91-33-140-21-10 2-18 4-28 7 42-55 106-77 172-58 38 11 76 21 115 16 12-1 24-2 33-11-51-26-60-33-75-68 39 19 79 12 118 9 66-5 130 2 189 35 5 2 11 4 13 11-73-13-145-27-222-13 15 12 32 6 49 16-75 62-158 52-244 35zm477 161c-25-31-52-53-87-64-9-4-12-8-6-17 16-28 32-58 48-86 16-26 47-35 74-25 27 11 43 38 37 66-4 17 2 19 15 19 31 0 62 2 94 2 18 1 32 7 31 27-1 18-15 23-32 22-39-1-79-1-118-3-17-1-27 3-34 20-6 12-14 24-22 39zm142-265c0 36-30 66-65 66-36-1-66-32-65-67s30-64 65-64c36-1 66 29 65 65zm19 547c-51 1-90-38-89-88 0-50 38-88 86-89 50-1 91 38 92 87s-40 90-89 90zm67-89c0-38-31-68-69-68-37 1-68 32-68 70 1 37 32 67 70 67s68-31 67-69zM694 539h58l80 80s-37 2-53 29l-39-37-22 1s0-31-24-73z"/></svg>