<svg width="64" height="64" viewBox="0 0 1000 1000" xmlns="http://www.w3.org/2000/svg"><path d="M847 154H153C69 154 0 223 0 308v384c0 85 69 154 153 154h694c84 0 153-69 153-154V308c0-85-69-154-153-154zm-48 256h36c14 0 25 3 33 10s11 15 11 27c0 19-9 31-28 35l39 52h-30l-33-49h-4v49h-24V410zm-85 0h69v21h-44v28h43v21h-43v33h44v21h-69V410zm-104 0l33 84 34-84h27l-54 128h-13l-53-128h26zm-131 17c13-14 29-20 48-20s34 6 47 20c14 13 20 29 20 47s-6 35-20 48c-13 13-29 20-47 20s-35-7-48-20-20-29-20-48c0-18 7-34 20-47zm-105-1c13-12 29-19 47-19 10 0 20 3 30 8v28c-10-9-20-14-30-14-12 0-21 4-29 13s-12 18-12 30c0 13 4 23 12 31s18 12 30 12c10 0 20-5 29-14v29c-10 5-20 7-30 7-19 0-34-6-47-19s-19-28-19-46 6-33 19-46zm-59 59c-2-2-8-4-17-7-11-4-19-9-24-14s-6-12-6-20c0-10 3-19 11-26s16-10 27-10c15 0 27 5 37 14l-13 16c-6-6-12-10-20-10-5 0-9 1-12 4s-5 6-5 10c0 3 1 6 3 9 3 2 8 4 15 7 14 5 23 10 28 15s8 14 8 23c0 13-4 23-12 30-8 8-18 12-31 12-18 0-32-8-43-24l16-15c6 11 15 16 26 16 6 0 10-2 14-5 3-3 5-7 5-12 0-6-2-10-7-13zm-121 35c-11 10-26 14-44 14h-36V410h36c19 0 35 6 48 17 12 12 18 27 18 45 0 19-7 35-22 48zm34-110h24v124h-24V410zm738 251c0 85-69 154-154 154H240c628-25 726-291 726-291v137zM145 431h-7v82h7c15 0 26-3 33-9 9-9 13-19 13-32s-4-23-13-31c-7-6-18-10-33-10zm709 17c0-12-7-18-23-18h-8v37h8c15 0 23-6 23-19z"/></svg>