<svg width="64" height="64" viewBox="0 0 1000 1000" xmlns="http://www.w3.org/2000/svg"><path d="M108 439c-16-15-37-22-62-22H0v160h46c23 0 43-6 57-18 19-17 29-37 29-62 0-24-8-43-24-58zm-26 99c-9 8-23 12-42 12h-9V444h9c19 0 33 5 42 13 12 10 18 24 18 40 0 17-6 30-18 41zm64-121h32v160h-32V417zm108 61c-9-3-16-6-19-9s-5-6-5-11 2-9 6-12c5-4 10-6 17-6 9 0 18 5 26 13l16-21c-13-12-29-18-47-18-14 0-26 5-36 14s-14 19-14 32c0 11 3 20 9 27s16 12 30 17c12 5 19 8 22 10 6 3 9 9 9 16 0 6-2 12-7 16s-10 7-17 7c-15 0-27-7-34-22l-20 20c14 20 32 30 55 30 16 0 30-5 40-14 10-10 15-23 15-39 0-12-3-22-10-29-6-7-18-14-36-21zm81-40c-16 16-25 36-25 59s8 43 25 60c16 16 36 24 60 24 13 0 26-3 39-9v-37c-12 12-25 18-38 18-15 0-28-6-38-16s-16-24-16-40c0-15 6-28 16-39s22-16 37-16c14 0 27 6 39 18v-37c-13-6-26-9-39-9-23-1-43 8-60 24zm196-25c-24 0-44 8-61 25s-26 38-26 62 9 45 26 62 37 25 61 25 45-8 62-25 26-38 26-62-9-45-26-62-37-25-62-25zm46 133c-12 12-28 19-46 19-17 0-33-7-45-19s-19-28-19-46 6-33 19-46 28-19 45-19c18 0 34 7 46 19s19 28 19 46-6 33-19 46zm-46-101c-15 0-28 6-38 16s-16 24-16 39 5 28 16 39c10 10 23 16 38 16s28-6 39-16c11-11 16-24 16-39s-5-28-16-39c-11-10-23-16-39-16zm28 83c-7 7-17 11-27 11s-21-4-28-11c-8-8-12-17-12-28s4-20 12-28 17-11 28-11 20 3 27 11c8 8 12 17 12 28s-4 20-12 28zm-28-57c-7 0-14 3-20 9-5 5-8 12-8 20s3 14 8 20c6 6 13 8 20 8s15-3 21-8c5-6 8-12 8-20s-3-15-8-20-13-9-21-9zm151 54l-43-108h-34l68 164h17l70-164h-35zm91 52h89v-27h-57v-43h55v-27h-55v-36h57v-27h-89zm177-67c24-5 36-21 36-46 0-15-5-26-15-35s-24-12-42-12h-46v160h31v-64h4l44 64h38l-50-67zm-27-19h-9v-49h10c20 0 30 8 30 24 0 17-10 25-31 25z"/></svg>