<svg width="64" height="64" viewBox="0 0 1000 1000" xmlns="http://www.w3.org/2000/svg"><path d="M63 443c3-15 6-31 14-46 16-32 42-54 76-66 45-16 90-26 137-33 82-12 164-15 247-13 89 2 177 9 264 32 27 7 54 14 77 31 32 22 52 52 58 91 0 1 1 3 2 4v120c-3 5-3 12-4 17-20 71-64 116-136 133-8 2-16 2-24 2H590c-16 0-21-4-23-20-5-28-12-55-33-77-25-25-59-24-83 2-17 21-25 45-29 71-1 2-1 5-2 8-2 11-8 16-19 16-59 0-118 1-176 0-57 0-101-26-132-72-16-22-25-47-28-74-1-2-1-4-2-6V443zm632 235h72c75 1 130-63 133-124 2-32 1-65 1-98-1-30-14-54-37-73-14-12-31-18-49-24-83-25-170-34-257-37-85-3-171 0-256 12-47 7-93 15-138 32-37 13-63 47-64 86-1 33 0 66 0 98 0 17 3 34 11 49 21 46 56 77 108 79 54 2 108 0 162 0 5 0 6-2 7-6 5-26 15-50 31-71 40-50 106-51 147-3 17 21 27 45 33 72 1 6 3 8 10 8h86zM485 357c95 0 189 5 282 27 18 4 35 9 52 15 30 11 46 33 46 65 0 29 1 59-1 89-3 46-44 87-90 89-45 1-89 0-134 0-10 0-16-5-20-15-11-28-26-54-51-73-55-44-131-34-175 24-12 15-21 32-28 51-3 8-9 13-18 13-43 0-86 1-128 0-35-1-58-22-74-52-6-12-10-26-10-40-1-33-2-65 0-98 2-25 15-43 39-52 38-14 77-22 117-28 64-10 128-14 193-15zm12 37c-54 1-110 3-166 10-47 6-93 13-138 29-15 5-21 13-21 29v71c0 8 0 16 2 24 5 31 27 49 59 49h95c6 0 9-2 12-7 8-18 18-35 31-50 54-66 148-78 217-28 27 20 46 47 59 77 3 6 6 8 13 8 35 0 70-1 104 0 36 1 65-32 64-64v-77c0-17-6-26-22-32-26-9-53-15-80-20-75-14-151-18-229-19zM334 538c-10 0-18-6-19-16s5-19 15-20c13-2 26-4 38-5 10-1 19 6 20 16s-5 19-15 21c-13 1-26 2-39 4zm-54-6c0 9-5 15-14 18-11 4-23 7-35 10-9 3-18-2-22-11-3-9 1-19 10-23 13-5 27-9 41-12 10-2 20 8 20 18z"/></svg>