<svg width="64" height="64" viewBox="0 0 1000 1000" xmlns="http://www.w3.org/2000/svg"><path d="M850 956c-4-39-5-77-9-116-5-57-14-115-31-170-9-30-23-56-51-72-26-16-55-25-85-34-10-3-8 4-7 9 2 25 0 50-5 75-2 7 1 11 8 15 28 16 45 41 47 74 1 34-6 68-8 102-1 23-4 46-13 68-12 26-32 36-60 31-10-2-17-7-16-19 2-11 10-15 21-13 13 3 20-3 26-14 4-8 6-16 6-24 4-39 8-77 12-115 2-35-16-61-47-68-32-8-59 7-72 39-11 26-19 53-29 79-6 15-11 30-14 45-4 20 0 28 19 36 9 4 13 11 10 20-3 10-10 12-20 11-27-6-43-25-43-53 0-12 2-23 5-34 12-41 28-80 43-120 15-35 43-55 81-57 8-1 11-3 13-10 4-25 5-49 3-73-1-12-6-18-18-20-10-2-19-5-29-9-9-4-13-2-16 8-11 38-27 74-45 109-9 17-19 33-31 53-4-25-8-46-12-67-2-10-2-18 2-27 3-5 9-11 3-17-10-9-21-16-31-24 0-1-2 0-2 1-10 8-22 16-30 26-4 6 5 14 7 21 0 2 1 4 1 5-4 26-9 52-13 80-4-4-5-5-6-7-27-43-48-87-64-135-4-10-3-25-12-28-7-3-19 5-29 8-5 1-10 3-12 9-4 12-9 23-12 35-18 77-14 153 10 228 4 11 8 17 21 20 25 5 38 32 30 56-9 25-36 37-60 26s-34-40-20-62c5-8 4-14 2-22-26-72-33-147-21-223 3-18 9-35 13-53-35 10-69 18-99 36-22 13-39 30-49 54-12 30-19 60-24 91-14 72-18 146-24 218-1 20 8 33 23 42h739c19-9 26-23 24-44zM291 340c7 2 10 6 13 12 15 36 34 71 62 99 22 23 48 40 81 43 41 5 73-14 100-41 29-29 48-63 64-100 2-5 2-11 10-12 27-2 49-45 44-72-1-7-4-14-12-15-10 0-9-6-7-12 5-23 8-46 9-65 0-21-1-37-5-53-7-24-19-45-42-57-13-7-23-14-28-29-2-6-7-10-12-14-17-14-38-20-59-23-65-6-124 8-177 45-37 26-62 60-67 106-3 30-2 60 4 90 1 6 4 13-7 13-6 0-9 4-11 9-9 27 13 69 40 76z"/></svg>