<svg width="64" height="64" viewBox="0 0 1000 1000" xmlns="http://www.w3.org/2000/svg"><path d="M467 664c-35 75-56 154-57 239-24-18-53-87-66-153-60 39-108 91-159 144 4-76 25-143 65-205-30-3-117-3-187 32 36-84 81-158 161-208-28-6-55-6-81-3-27 4-53 8-80 13 45-56 99-100 169-128-22-18-42-36-65-50-22-14-47-24-71-35 11-1 22-3 33-4 49-4 98-1 146 7 5 1 8 3 10 9 5 20 12 40 23 60 10-6 20-11 30-16-25-46-29-96-24-146 5-44 19-85 44-123 25 55 50 109 74 160 25-1 50-3 74-3 44 1 88 9 128 29 18 10 35 9 54 7 76-9 151-18 228-15 7 0 14 0 21 1-4 22-8 42-13 63 0 2-1 3-2 5-14 18-28 36-43 55-5-16-9-32-15-49-15 18-29 36-44 55-4-16-8-31-12-48-15 18-28 35-43 54-5-17-9-33-14-51-15 20-29 38-44 57-5-17-9-33-14-51-7 14-13 26-20 37-16 25-25 51-23 81 1 11 0 21 0 34 15-19 28-37 43-56 5 17 10 33 14 51 15-19 29-38 44-57l14 47c14-18 27-35 41-53 5 17 9 33 14 50 15-19 30-37 45-56 4 15 7 28 10 41 1 3 0 6-2 9-9 18-18 35-28 53-2 3-6 5-9 5-105 5-209 21-309 50-30 9-58 23-87 35-3 2-7 4-13 7 9-39 17-75 25-112-27-6-54-6-83 2 17-36 34-70 51-105-10-5-20-9-30-15-30 60-59 119-89 180 37-12 70-30 109-32-11 50-22 99-33 151 30-18 59-34 88-51l2 2zm158-349c-35-12-69-25-107-17 12 28 32 45 59 54 1 0 3 1 4 1 20-1 38-17 44-38z"/></svg>