<svg width="64" height="64" viewBox="0 0 1000 1000" xmlns="http://www.w3.org/2000/svg"><path d="M901 627c12 6 23 10 37 11-1-1-1-2-1-2-57-28-105-67-146-114-5-6-9-12-8-20 0-8-1-16-2-24-6-45-28-76-73-90-24-8-49-11-74-12h-90c-37 0-75-1-112-10-38-9-72-26-97-58-2-3-5-6-7-9-12 18-27 33-42 48-12 11-25 22-36 34-24 26-29 54-17 87 7 18 17 35 28 51 2 3 4 7 4 11 2 65 3 130 0 195-2 32-4 63-11 94-1 5 0 5 4 5h41c6 0 7-2 8-6 1-15 4-29 7-42 3-8 5-17 11-24 1 1 1 2 1 2 0 22-2 44-10 65-2 5-1 5 4 5h31c3 0 4-1 6-4 4-14 7-28 10-42 5-30 5-61 8-91 4-30 13-57 37-77 11-9 23-17 36-23 39-16 79-27 119-37 22-6 41-1 57 15 4 5 9 9 14 14 19 21 38 42 56 63s35 43 46 68c9 20 13 41 7 63-4 15-12 28-23 40-2 3-3 5-2 8 1 4 4 3 7 3h39c4 0 6-1 7-5 3-9 5-19 6-28 3-23 3-45 4-68 1-8 1-16 3-24 1-3 2-5 6-2 22 23 31 50 26 82-2 14-6 27-9 40-1 4-1 5 4 5h33c4 0 6-1 6-5 4-40 3-81 1-121 0-3-1-4-3-6-26-21-45-49-58-80-9-22-15-45-16-71l7 7c35 32 73 60 116 79zM310 282c2-3 2-5 0-8-12-18-24-37-36-55-10-14-21-26-36-35-24-12-48-10-73-3-1 0-3 1-3 2-7 17-21 25-37 31s-33 9-50 13c-10 3-12 5-12 16 0 15 11 38 24 47 21 13 44 14 67 6 2-1 5-2 8-1 27 7 49 20 59 47 2 4 4 4 8 3 36-9 62-31 81-63z"/></svg>