<svg width="64" height="64" viewBox="0 0 1000 1000" xmlns="http://www.w3.org/2000/svg"><path d="M522 735c0-45 18-87 48-116 16-17 37-30 60-38-2-8-4-16-6-22-8-22-18-40-32-55-14-14-30-27-50-37s-41-20-65-29l-57-22c-10-4-19-8-29-12-9-4-18-9-25-15-8-6-14-14-18-22-5-9-7-20-7-32 0-16 3-29 9-39 5-10 13-17 21-22 9-5 19-9 30-10 11-2 22-3 33-3 18 0 34 0 48 2 13 2 26 4 37 6 11 3 22 6 31 10s20 7 29 11c17-35 27-71 31-108-31-11-61-19-89-25-16-3-32-5-49-7V62H343v97l-9 3c-28 8-53 21-73 38s-36 37-47 62-17 53-17 85c0 27 4 50 10 69 7 19 16 35 28 49 12 13 27 25 44 35s37 19 58 27l58 22c11 4 22 9 33 13 11 5 21 11 29 18 9 7 16 16 21 26s8 22 8 38c0 30-11 53-34 68-23 14-54 22-94 22-27 0-52-3-75-8-24-6-49-14-75-24-7 20-13 40-18 60s-9 39-11 57c16 7 31 12 46 17 15 4 29 8 44 10 15 3 31 5 47 7 9 0 18 1 27 1v84h129v-96c4-1 8-2 13-4 21-7 40-15 57-26-3-4-5-8-7-12-9-20-13-42-13-65zm262-90c-22-22-52-36-85-38h-5c-35 0-67 15-90 38-24 23-38 55-38 90 0 18 4 35 11 51 6 15 15 28 27 40 23 23 55 37 90 37 71 0 128-57 128-128 0-35-15-67-38-90zm-24 60l-78 79c-2 2-5 2-7 0l-48-48c-2-2-2-6 0-8l12-11c2-2 5-2 7 0l33 32 62-62c3-3 6-3 8 0l11 11c2 2 2 5 0 7z"/></svg>