<svg width="64" height="64" viewBox="0 0 1000 1000" xmlns="http://www.w3.org/2000/svg"><path d="M937 871c-2 5-5 5-8-1-6-10-16-15-25-22-12-7-25-14-37-20-3-1-5-2-7-2-15 1-26-5-36-15-8-8-14-8-20 1-9 15-22 24-38 29-19 5-33 15-45 31-2 3-6 5-9 8-6 3-7 3-8-4-2-13 1-27 6-39 15-43 37-81 60-120 2-3 2-5 0-9-19-34-42-65-68-94-23-26-48-51-74-73-29-26-60-49-91-72-49-35-100-66-153-96-9-5-19-10-28-14-4-2-5-5-3-9 6-8 13-16 21-23 5-5 3-9 0-13-3-5-7-2-10 0-6 3-10 8-14 14-15 21-23 46-32 70-7 21-13 42-18 64-11-8-17-18-22-30-10-25-13-52-15-79-1-10-1-20-1-29 0-4-1-7-5-9-25-14-53-22-81-30-25-7-51-12-77-14-16-1-32-6-36-22 0-4-1-7 0-10 3-8 10-13 18-17 15-8 31-13 47-16 5-1 9-4 12-8 24-40 59-63 103-73 29-7 58-8 87-5 51 4 100 18 147 38 4 1 6 1 9-1 26-20 54-33 86-38 28-4 54 0 79 12 2 2 5 4 5 7s-3 4-6 5c-7 2-15 5-21 9-23 16-34 39-39 65-2 6 0 9 5 13 28 22 54 46 78 73 41 45 72 96 96 152 12 28 22 58 29 88 12 50 15 101 13 153 0 4 1 7 5 9 21 13 40 28 57 46 20 21 37 43 50 69 6 12 11 25 14 38 0 5 1 9 0 13zM563 715c-38-25-81-32-125-29-37 3-71 15-105 31-46 21-95 30-146 30-25 0-50-3-75-8-2-1-4-2-6 0-1 2 0 4 1 6 3 6 9 10 14 14 19 15 42 23 65 28 48 10 95 3 141-15 25-9 49-21 75-28 49-14 100-17 150-10 9 2 18 3 27 5 6 0 4-3 3-6-5-8-11-14-19-18zm-14-123c-53-25-107-26-163-10-22 6-42 17-64 25-66 27-135 32-206 19-3-1-8-4-10 0-1 3 3 7 5 10 0 1 1 1 2 2 9 10 21 17 34 22 60 25 119 22 178-1 19-7 37-16 55-23 57-20 116-25 176-15 8 1 16 2 24 4 6-1 2-5 1-7-8-12-20-20-32-26z"/></svg>