<svg width="64" height="64" viewBox="0 0 1000 1000" xmlns="http://www.w3.org/2000/svg"><path d="M742 143h-64V67c-10-2-21-3-31-4-11 0-21-1-31-1s-20 1-31 1c-10 1-20 2-31 4v76H409c-2 12-3 23-3 36 0 11 1 23 3 34h145v131c-11-3-21-5-33-6-11 0-22-1-33-1-35 0-67 7-96 19-29 13-54 31-74 53s-36 49-47 79c-11 31-16 63-16 97 0 43 6 80 19 110s30 55 51 74c22 19 47 32 76 41 28 9 58 13 89 13 41 0 76-2 104-7 29-4 57-11 84-19V213h64c1-11 2-23 2-35s0-23-2-35zM554 710c-10 3-19 5-27 6-9 1-18 2-28 2-16 0-31-3-45-7-15-5-27-12-37-22s-19-24-24-41c-6-17-9-38-9-63 0-20 2-39 6-57 5-18 12-34 21-48 10-13 21-24 36-32 14-8 31-13 51-13 11 0 20 1 27 2 8 1 17 3 29 6v267zm43 158H324c-1 11-2 23-2 35s1 23 2 35h334c1-12 2-23 2-35s-1-24-2-35h-61z"/></svg>