<svg width="64" height="64" viewBox="0 0 1000 1000" xmlns="http://www.w3.org/2000/svg"><path d="M500 62C258 62 63 258 63 500s195 438 437 438 438-196 438-438S742 62 500 62zm268 227c43 54 70 122 73 195-49-11-96-16-140-16-35 0-68 3-99 9-7-19-15-36-23-53 69-30 135-74 189-135zM500 159c81 0 154 28 213 75-45 53-104 92-168 119-45-86-88-148-118-186 24-5 48-8 73-8zm-151 35c24 28 71 90 122 186-103 31-207 38-270 38h-5c-11 0-20 0-27-1 24-98 92-179 180-223zM159 500v-5c10 0 22 1 37 1 69-1 189-6 310-45 7 15 13 30 20 45-81 28-145 71-192 114-46 41-76 82-94 110-51-60-81-136-81-220zm341 341c-76 0-146-25-203-67 12-20 38-58 79-97 43-41 101-83 178-108 26 73 49 156 67 250-38 14-78 22-121 22zm193-60c-17-85-39-161-63-230 22-3 46-5 70-5h1c41 0 86 5 134 16-17 91-69 168-142 219z"/></svg>