<svg width="64" height="64" viewBox="0 0 1000 1000" xmlns="http://www.w3.org/2000/svg"><path d="M304 161c61 0 122 1 182 0 12 0 21 3 28 13 3 5 3 11 3 16v183c0 18-10 28-29 28-43 1-85 1-128 0-6 0-9 2-10 8-7 25-3 51-3 76-1 26 0 51 0 76 0 12-7 18-19 19-9 0-22-5-28 1s-7 18-9 28c-5 14-9 29-13 44-2 5 0 6 4 6 8-1 15-1 23 0 14 0 25 11 26 26 0 42 0 85-1 128 0 14-11 25-26 25-43 1-86 1-129 1-28 0-55 0-83-1-18 0-29-11-29-29V690c0-20 8-29 27-31 4-1 5-3 6-6 17-57 33-114 50-170 7-25 14-49 22-74 2-6 1-8-6-8-14 1-28 0-43 1-18 0-30-12-30-30V191c0-19 11-29 31-29 61-1 123-1 184-1zm5 110c52-1 104-1 156 0 7 0 9-2 8-9v-27c1-7-2-9-9-9-48 1-97 1-146 1-55 0-110 0-166-1-7 0-9 3-8 10v26c-1 7 1 9 9 9 52-1 104 0 156 0zm399 54c-20 0-39 1-57 0-9 0-12 3-10 11v6c-1 14-10 24-24 24-18 1-36 0-53 0-15 0-24-9-24-24V214c0-14 8-23 22-24 18-1 37-1 55 0 15 0 23 10 24 25v9c0 13 0 13 13 15 3 1 4 2 5 4 16 27 32 54 49 82zM436 488v39c0 11-5 17-16 17h-33c-10 0-16-5-16-15v-84c0-11 6-16 17-16h32c10 0 16 6 16 16v43zm400-163h-76c-3 0-5 0-7-3-15-27-31-54-47-83h40c6 0 13 1 20 0 14-2 23 3 30 16 12 24 26 46 40 70zm-3-86h77c4 0 5 2 7 5 6 11 12 22 19 32 2 4 2 6 0 10-7 11-14 23-21 34-2 4-4 6-8 5h-2c-17 3-27-3-35-19-10-23-24-44-37-67z"/></svg>