<svg width="64" height="64" viewBox="0 0 1000 1000" xmlns="http://www.w3.org/2000/svg"><path d="M928 489c-27 95-97 145-180 183 0-2-1-5-1-7 6-93 1-185-9-277-1-9-2-21-12-21-11-1-9 13-11 21v6c-1 45 3 90 6 134 2 43 4 85-9 126-7 21-9 22-25 7-33-30-68-58-98-91-15-16-29-32-42-49 4 47 23 88 55 122 35 36 79 63 121 92 9 6 20 6 26-3 20-32 55-47 84-69 32-26 65-50 89-84 17-24 21-64 6-90zm-615 67c-15 14-18 13-25-7-7-23-8-47-9-70-2-47 4-93 6-139 1-22 3-45-1-67-1-6-2-13-9-12-8 0-9 7-11 12-1 3-1 7-1 11-9 79-14 158-11 237 0 15 9 38-1 43-12 7-26-13-40-20-67-30-109-83-136-149-2-4-2-8-8-8-9 34-5 65 16 93 21 27 48 47 73 68 32 27 72 43 97 78 6 8 16 9 26 2 16-11 32-22 47-33 54-38 105-78 124-146 3-11 8-22 4-38-41 59-92 101-141 145zm-74-11c-3-85-8-167 6-251-49 43-87 99-167 89 48 65 85 132 161 162zm522 106c77-31 114-97 161-162-79 9-118-46-167-89 14 84 10 166 6 251zM298 542c51-36 93-76 127-123 8-11 6-15-6-19-46-16-82-42-104-86-4-9-9-17-21-22 10 83 6 165 4 250zm317 31c26 27 54 52 89 75-5-85-6-167 2-252-14 10-20 21-25 31-18 36-47 58-84 73-6 2-11 5-18 7-12 3-10 8-4 17 12 17 26 33 40 49z"/></svg>