<svg width="64" height="64" viewBox="0 0 1000 1000" xmlns="http://www.w3.org/2000/svg"><path d="M252 502h40c9 0 16-7 16-17V277c0-9-7-16-16-16h-40c-9 0-17 7-17 16v208c0 10 8 17 17 17zm642-251h-40c-9 0-16 7-16 16v67c0 9-8 17-17 17H414c-9 0-17-8-17-17v-57c0-9-7-16-16-16h-40c-9 0-16 7-16 16v208c0 10 7 17 16 17h40c9 0 16-7 16-17v-76c0-9 8-17 17-17h407c9 0 17 8 17 17v67c0 9 7 16 16 16h40c9 0 17-7 17-16V267c0-9-8-16-17-16zm90 0h-40c-9 0-17 7-17 16v209c0 9 8 16 17 16h40c9 0 16-7 16-16V267c0-9-7-16-16-16zM56 508H16c-9 0-16 7-16 17l2 208c0 9 7 16 17 16h39c10 0 17-7 17-17l-2-208c0-9-8-16-17-16zm603-15h-40c-9 0-17 7-17 17l1 67c0 9-7 16-16 16l-408 4c-9 0-16-7-16-16l-1-58c0-9-7-16-16-16h-40c-9 0-17 8-16 17l1 208c0 9 8 17 17 17l40-1c9 0 16-7 16-16l-1-77c0-9 8-16 17-17l407-3c9 0 17 7 17 16v67c0 9 8 16 17 16h40c9 0 16-7 16-17l-2-208c0-9-7-16-16-16zm89-1h-40c-9 0-16 8-16 17l2 208c0 9 7 17 16 17l40-1c9 0 17-7 17-16l-2-209c0-9-8-16-17-16z"/></svg>