<svg width="64" height="64" viewBox="0 0 1000 1000" xmlns="http://www.w3.org/2000/svg"><path d="M492 275l1 2h4c4-11-6-11-14-13l-4 1 1 3 12 7zm98 15h2c4-2 9 3 11-4-6 0-9-1-14 0 0 0 0 4 1 4zm-37-4h6c-1-5-13-8-13-1-2 1 4 1 7 1zm-121-97c-4 5-4-3-7-1l-2 1c-5 7-19 8-17 20 12-1 19-10 26-20zm42 63c-9-4-9 5-10 12l3 3c7-1 11-10 7-15zm-37-68c0 1-1 3-2 5 1-1 4 0 4 2l-11 8c2 0 4 0 2 2l-7 3h7c-1 3-4 3-6 4-3 1-5 2-4 6 2-1 4-2 7-3 7-2 15-1 22-5l-4-2c4-1 7-3 5-8l-3 2c3-7-3-16 3-20l2-3h-7l5-3c-8 0-12 8-18 12 1 3 5-2 5 0zm-4 7l2-2c-1 0-1 1-2 2zm397 200l-4-1-1 2-1 6 1 2 2-1 2-1 1 2 2 5 3 6h1l-1-9h2v-2l-1-5-4-11-1-1v8h-1zm-2 61l3 1 3-1 1-3 1-4-1-1c-3 1-7 2-10 3l-3 3v11l-1 6-2 6v5l1 5 1 5-1 6 1 4h2l1-5-1-11 1-3 2 3v5l2 2 3-3v-6l-3-7v-2l1-2 3-6-1-3-2 2-2 3-2-2-1-5 2-5 2-1zm5 56h-2l-6 3-4-1-2 2v4l1 2 6-2 7-6v-2zm-12-5h-11l-3 3 3 4 6 1 2-1 3-5v-2zm20-72l-1-3v27l1 1v-9l1-2 1-2v-3l-1-5-1-4zm-6 82l-4 5-2 3-1 5 1 3 2-1 4-7 8-10h-4l-4 2zm20-54l-1 1v4l-1 6-1 2v-2l-1-5 1-7-1-4-1-2h-1l-1 1h-3v5l1 5v1h1v2l1 1h2v2l-1 1-1 1v10h1v-4l1-1v-1l1 1v5h1l1 2v3l-1 7v10l-1 1-1 2v6l1-2v-1 1l-1 4v2c3-17 5-33 6-50l-1-7zm-46-109l2 7v6l2 3 1 3 1-1v-8h3l3 2 1-3-2-5h-3l-4-3-2-7-2-9-3-6-3-4-2-1v2l1 3 1 3 1 6 1 6 4 6zm11 19l-1 1v1l1 5 1 1 1-1h1v-3l-1-1-1-3h-1zm5 0l2 10 1 2 1-1-1-3v-2l-1-3v-5l-2-2-1-1h-1v2l1 2 1 1zm-17 112l4-3 1-7v-5l1-3 1-4 1-3 1-6 2-4 1-4-1-3-3-6-2-3 1-7 2-5-1-5-8-7-3 3-1 10v1c2 20 2 40 2 60l2 1zm-75 109l-3-6-6-1-4 3-2 4-15 20-17 9-3 3-2 3-1 4 1 22-8 20v4l-1 7 1 3 6 7 9 2 10-7 5-16 21-43 6-27 1-3 1-3h1v-5 1-1zM549 148h5-5zm-49-86C258 62 63 258 63 500s195 438 437 438 438-196 438-438S742 62 500 62zm0 798c-76 0-147-24-205-65h1l-1-1c-1-1-2-1-3-2 0 0-1 0-2-1 0 0-1 0-2-1-19-14-37-29-53-47l-1-1c0-1-1-2-2-2l-6-7c1 0 1-1 1-2-1-1-2-3-3-5 1 0 5 0 6-4 2-10-3-17-7-25 2 0 4 1 6 3 3-5 4-10 5-16 0-2 1-5 1-8-1-15-13-29-10-43 6-20 17-39 21-60 0-2 2-4 3-6 2-4 4-8 4-13 1-2 2-7 1-10 0-3-1-7-1-8-1-1-2-3-2-4-1-1-6-5-11-8-5-4-10-6-10-6v-1c0-1-1-1-1-2h-1s-1 0-1-1h-1s-1 0-1-1h-2l-1-1h-13v2c0 1-1 2-1 2h-1-1c2-9-5-19-14-16v5c-7-1 2-8-4-10-7-2-3 7-9 9 7-16 6-29-3-43-6-12-20-17-20-33l-2-4c-1 0-2 0-3 1l-2 2v-1-6-1c37-160 180-279 351-279 19 0 37 2 55 5-3 0-6 1-9 3-1 0-3 1-4 1-1 1-2 1-3 1 3 1 6-1 8-2h-2 3c2-1 4-1 7-2 1 0 3 1 5 1-2 0-3 1-4 2-3 1-5 2-8 4h5l-3 3h1c-5 2-8 2-13 2l10-3c-15 0-29 3-44 7-3 1-5 2-7 3-3 1-5 2-8 4-6 3-16 8-13 11 4 4 7 5 11 6 1 1 3 1 5 3 1 2 3 3 5 5 10 2 19-10 10-19 3-1 5-4 7-6 2-3 5-5 8-6-5 2-5 9-3 11 3 2 7 1 11-1s9-4 13-3c-1 2-4 2-6 3-3 1-5 2-8 2-5 0-7 7-3 11-2-2-5-2-7-2-2 17-22 19-34 12 2 0 5 2 7-2 0-3-2-3-5-1v-6c-7-1-7 7-7 12l-7-1c-14 10-27 15-42 20-3 1-6 3-9 4 8 3 8 18 0 17-22-7-48-12-52 15 0 4-5 9-1 12 13 10 32 10 48 4 5-2 8-11 14-12 3-1 6-3 8-4 2-2 4-4 6-7 3-2 6-4 9-4 4-1 8-1 12-2 2 0 5 0 8-1 11 11 30 24 37 39 1-5 6-12 13-5-7-12-32-23-34-40 17 12 34 20 46 41 2 1 7 3 11 1 5-3 3-6 2-8-2-3-4-5-1-9 2-3 3-2 5 0 11 24 43 12 55 23 17 13-10 30-31 27-12-3-22-5-31-9-3 0-5-1-7-1-2-1-5 0-6 0-2 1-3 3-4 4s-1 4-1 5-1 2-2 3-4 0-7-1-6-3-7-3c0 0-4-2-7-4-2-1-4-2-6-2-12-1-26-9-19-23-11-4-23-5-35-4-3 1-6 1-9 2-16 5-31 5-48 5-12 0-21 14-26 25-2 2-3 4-5 6-5 6-13 12-20 15-4 2-7 4-9 6-22 16-29 44-36 71 0 1-1 3-1 3-1 1-1 4-1 5 1 2 0 5 0 7s0 4-1 5c0 1 1 2 1 3s2 1 2 1c3 2 5 5 6 7 2 3 3 6 5 9 13 44 62 41 97 27l9-2c2 0 5-1 7-2 6 1 12 2 12 3s0 2 1 2c0 1 1 1 1 2l1 1c0 1 1 1 1 2l2 2c1 1 5 1 10 1 7 0 10 3 13 8 7 16-5 33 10 44 1 1 2 3 4 5l6 9c4 7 8 16 8 22s3 10 4 12 1 6 0 9c0 2-1 4-1 6-8 11-13 25-12 37 7 20 21 39 25 60v3c1 1 2 3 2 4l2 2c1 0 1 1 1 1 1 0 1 1 1 1s1 2 3 4c1 2 3 6 4 7 2 2 3 6 4 8s1 5 0 5 0 2 0 2c-1 1 0 2 0 3s1 3 3 4c1 2 3 3 3 4 1 0 4 1 6 1h6c1 0 3-1 3-2 1 0 2-2 3-2 0-1 9-2 18-2l28-14c4-5 9-10 10-12 0-2 4-5 6-7 3-2 6-6 7-10 0-3 2-6 3-8 4-5 12-5 12-10 4-18 11-34 23-50 2-3 3-5 5-8 9-16 14-34 13-53-1-2-1-4-2-6-10-36 20-59 54-74l3-6c3-8 6-15 8-23 1-2 2-5 3-7 5-5 3-12 3-17-10 5-21 3-30 5-3 0-5 1-7 1-2-1-4-1-4-2-1 0-6-3-11-5s-6-5-9-7c-2-1-5-8-7-10-2-1-5-6-6-7-6-9-12-16-17-26-7-11-15-21-21-33-2-2-3-4-5-7-2-2-4-4-5-6-5-4-6-6-9-9-2-1-1-3 1-3 10-6 7 10 15 9l6 6 6 6c2 3 4 5 7 8 9 12 17 24 26 35 1 2 3 4 4 6s3 5 4 8c6 31 40 15 59 9 10-5 22-11 23-23 6-23-13-37-29-51-1 14-17 14-22 4l-3-6-2 6c-3-9-10-18-15-24 8 0 15 5 24 9l9 4c17 7 34 14 55 12 5-1 7 3 9 8 0 2 1 5 1 8 1 3 1 6 1 8 2-2 3-5 5-8 1-3 3-6 4-9 6-17 5-37 0-55 42 59 67 131 67 209 0 199-161 360-360 360zm51-714c-1 1-2 1-3 1 1 0 2-1 3-1zm-4 2h1-1z"/></svg>