<svg width="64" height="64" viewBox="0 0 1000 1000" xmlns="http://www.w3.org/2000/svg"><path d="M221 638c-44-14-84-8-122-14-32-6-40-18-35-47 19-100 81-171 158-231 34-27 71-48 110-67 47-22 55-16 56 33 2 45 5 89 7 134 1 15 2 22 22 19 56-6 57-5 53-60-1-18-4-39 18-41 24-2 20 22 22 38 1 12 0 25 5 35 6 12 19 4 28 2 17-5 7-17 7-29-2-18-29-43 1-54 33-11 28 25 36 43 6 13 7 31 31 25 21-6 28-16 18-37-8-16 2-26 15-30 15-4 18 10 24 20 7 11-1 33 23 31 17-2 26-15 34-29 27-51 54-101 82-152 19-34 28-34 48-2 32 49 31 56-5 103-38 49-38 49 9 91 16 14 32 28 48 41 21 18 35 34 11 62-36 42-51 46-83 21-37-29-74-58-111-88-8-6-14-12-24-7-10 6-3 14-3 21 0 10 5 22-9 26-15 4-26-2-30-17-5-21-16-22-35-17-18 6-25 11-15 29 6 12-4 20-14 25-12 5-21-1-24-13-6-27-25-25-45-19-25 6-17 25-16 41 1 15 8 36-13 39-24 3-22-20-27-36-4-10 9-37-18-27-22 8-64-11-62 39 4 59 5 118 9 176 2 35-13 54-45 64-58 19-117 30-176 7-41-16-46-36-20-72 9-13 19-25 29-38 8-11 17-23 28-38zm34-158c-1-23-8-31-22-32-16 0-26 8-25 24 1 14 11 24 26 23 14-1 21-10 21-15z"/></svg>