<svg width="64" height="64" viewBox="0 0 1000 1000" xmlns="http://www.w3.org/2000/svg"><path d="M794 62H206c-19 0-34 16-34 36v804c0 20 15 35 34 35h588c19 0 34-15 34-35V98c0-20-15-36-34-36zM499 918c-11 0-19-8-19-19s8-20 19-20 19 9 19 20-8 19-19 19zm262-55H234V137h296v221c0 4 2 5 5 2l79-81c3-3 7-3 10 0l79 81c3 3 5 2 5-2V137h53v726zm-57-393H296c-3 0-5 3-5 6v33c0 3 2 5 5 5h408c3 0 5-2 5-5v-33c0-3-2-6-5-6zm0 83H296c-3 0-5 2-5 5v33c0 4 2 6 5 6h408c3 0 5-2 5-6v-33c0-3-2-5-5-5zm0 85H296c-3 0-5 3-5 6v33c0 3 2 5 5 5h408c3 0 5-2 5-5v-33c0-3-2-6-5-6zm0 83H296c-3 0-5 2-5 5v33c0 3 2 6 5 6h408c3 0 5-3 5-6v-33c0-3-2-5-5-5z"/></svg>