<svg width="64" height="64" viewBox="0 0 1000 1000" xmlns="http://www.w3.org/2000/svg"><path d="M868 483c-1-8-3-16-6-25-34-109-104-187-209-235 9 19 13 39 32 52 68 43 115 103 142 179 47 134 0 292-113 379-61 47-130 73-207 73-47 0-79-26-66-83 5-20 13-39 21-58 4-7 9-12 15-16 134-92 194-222 188-382-3-85-30-162-86-227-29-34-79-64-122-76-5-3 0-1-2 6-1 6-3 13-5 19-11 35-29 66-48 97-80 135-110 279-72 434 13 53 29 105 49 159 82-128 143-258 125-414 6 29 12 58 12 87-1 104-32 200-78 292-15 30-28 61-31 95-3 48 23 84 69 95 25 6 51 4 76 1 125-16 234-97 288-209 23-49 31-113 32-125 6-55 1-95-4-118zM222 739c-11 1-14-1-18-9-17-30-29-61-36-95-31-139 31-288 154-361 23-14 28-32 36-56-95 43-161 109-200 199 0 1-63 115-12 260 8 25 19 48 32 71 4 8 3 13-2 20-22 29-22 65-2 95 4 6 8 10 14 4 12-12 19-6 25 6 2 4 5 8 7 12 4 9 9 11 19 5 13-7 16-14 5-26-2-2-3-6-6-9-9-11-7-17 5-24 11-7 19-9 25 5 1 4 4 7 6 11 5 10 10 15 23 6 11-7 13-13 4-23-1-2-2-5-4-7-12-13-11-23 6-30 10-3 10-8 4-17-20-31-49-44-85-37zm36 46c-21 14-43 27-66 42-4-42 30-69 64-55 3 1 8 2 9 6 0 4-5 5-7 7z"/></svg>