<svg width="64" height="64" viewBox="0 0 1000 1000" xmlns="http://www.w3.org/2000/svg"><path d="M769 525c-3-7-8-14-15-19-9-6-19-13-29-19l-109-73c-20-13-41-27-62-41-2-2-5-4-9-2-2 1-3 0-4-3-1-10-6-18-15-25-2-2-2-3 1-5s3-5 3-9c-1-9-1-19-2-29l-4-65c-2-25-3-50-5-75-1-23-3-45-4-68-1-9-4-18-9-25-4-5-8-6-11-1-5 7-9 15-9 23-3 30-5 60-6 91l-6 87-4 54v10c-1 5 4 6 5 10l-4 4c-6 6-10 13-13 21v3c-1 2-1 3-3 2-5-2-9 2-13 4-41 28-83 56-125 84-23 15-47 31-70 47-7 5-13 12-16 20-3 5-1 9 6 9 8 1 16 0 24-4 34-16 67-33 101-50 38-18 75-37 112-55 4-2 8-4 8-8h1c0 16-1 33-2 49-1 29-3 57-4 85-2 30-3 61-5 91-1 23-2 45-3 68l-3 60-3 59c-1 19-2 38-2 56-1 4-2 5-5 6-6 2-11 3-17 4l-52 14c-5 2-5 2-5 7v16c0 4 1 5 5 5h226c3 0 4-1 4-4v-18c0-4-1-5-4-5-13-4-26-7-39-11-10-3-20-5-31-8-3-1-4-2-4-5 0-5 0-9-1-13l-4-87c-1-25-3-49-4-74l-4-89-5-95c-1-24-2-48-3-73-1-11-1-23-2-34 0-2-1-4 2-6 0 7 4 8 8 10 1 1 2 1 3 1l104 52s69 34 104 51c8 5 17 6 26 5 7 0 9-4 6-10zM510 397c-7 3-13 3-20 0-1 0-2-1-2-3 2-3 2-7 4-11 6 4 11 4 16 0 3 3 3 7 4 11 0 1 0 3-2 3zm10-19c-3 1-6 2-10 2 0-4 0-9-4-11-2-2-4-3-6-3-6 0-9 4-10 14-4 0-7-2-11-3-2 0-3-2-2-4 1-7 4-13 11-17 1-1 3-1 4 0l1 1c2 2 4 6 7 6s5-3 7-6c2-1 4-2 6 0 5 4 9 9 10 16 0 2 0 4-3 5zm222 301c2-38-36-64-71-50-4 2-4 2-7-2-11-18-30-27-52-23-30 5-47 35-40 64 2 5 2 5-3 8-27 21-27 62 1 82 3 2 4 4 4 8 4 33 34 51 62 45 3-1 6-2 9-2 1 1 1 3 1 4-1 13-2 26-2 40l-3 42c0 12-1 25-1 38 0 4 0 4 4 4 6 1 11 0 17 1 6 0 6-1 6-6l-3-48-3-64c0-6 0-6 6-5 6 2 12 2 19 0 21-5 34-18 39-38 1-4 3-6 6-8 28-15 35-52 15-76-3-5-5-9-4-14zM359 854c15 3 34-5 40-25 1-4 3-5 6-7 17-11 22-35 9-51-3-3-4-6-3-11 0-25-23-42-47-34-5 2-5 2-7-2-10-13-27-18-42-12s-24 22-21 38c1 5 0 8-4 11-16 14-15 40 2 53 3 2 4 4 5 8 2 20 20 32 40 29 2 0 4-2 8-1v5l-3 54c0 8 0 17-1 25 0 2 1 3 4 3h10c4 1 4-1 4-4 0-10-1-19-1-29-1-15-2-31-3-47 0-2 1-4 4-3z"/></svg>