<svg width="64" height="64" viewBox="0 0 1000 1000" xmlns="http://www.w3.org/2000/svg"><path d="M469 462c3-14 3-22-15-25-69-10-139-16-209-13-78 4-155 13-232 23-14 2-14 10-12 22 10 74 20 149 31 224 6 45 12 91 18 136 2 8 2 19 15 19 49 2 96 17 142 31 51 16 101 35 140 74 5 5 7 15 15 13 9-3 7-13 9-20 17-87 34-174 51-260 16-75 31-150 47-224zm456 170c-42-25-83-51-125-76-80-47-166-83-256-108-12-4-20-5-25 12-21 78-42 156-62 235-21 87-44 173-66 259-1 4-2 9 2 12 3 2 7-1 10-2 33-17 70-18 106-22 13-1 27 3 40 4 52 4 104 11 153 28 16 6 24 4 32-11 63-104 129-205 196-306 8-12 7-18-5-25zm63-123c-15-4-28-11-42-16-89-32-182-49-276-57-36-4-73-9-110-1l10 2c61 11 121 25 178 51 59 27 114 59 165 99 10 7 15 8 24-3 17-21 35-40 53-61 6-6 10-10-2-14zM30 400c3 11 9 12 18 9 32-10 65-14 98-18 62-8 124-11 185 1 25 5 49 8 74 12l1-6c-20-7-41-14-61-22-105-40-215-60-327-67-11-1-14 3-11 13 8 26 16 52 23 78zm951-21c-72-14-145-13-218-10-68 2-137 10-203 32 10-1 20-3 30-3 118-2 236 5 351 39 43 13 42 11 57-32 6-20-1-23-17-26zM63 258c98 10 191 40 281 79 25 10 50 21 80 33-8-14-17-19-26-25-90-59-186-110-288-146-53-19-60-15-63 41 0 12 3 17 16 18zm375 12c-56-41-113-82-170-123-4 5-7 10-11 15 57 41 114 82 170 123 4-5 7-10 11-15zm180-1c49-51 97-101 146-151l-14-14c-49 51-97 101-146 151l14 14zm28 60c69-16 137-32 205-48-2-6-3-12-5-18l-204 48c1 6 3 12 4 18zM602 27c-6-2-12-3-18-4-14 69-27 137-41 206 6 1 12 3 18 4 14-69 28-137 41-206zM488 236c6-2 6-4 4-9-20-50-39-100-59-150l-14-35c-1-3-2-4-5-3-5 2-9 3-14 5 26 66 52 131 77 196 4-2 8-4 11-4zm-85-33l38 49c2 2 5 5 7 8l15-12c-20-25-39-49-58-74-5 4-8 7-12 10-3 2-2 4-1 6 4 5 7 9 11 13zm101-13c1 13 2 26 4 40 6-1 12-1 18-2-2-31-5-62-8-93-6 0-10 1-15 1-4 0-5 2-4 5 2 17 3 33 5 49zm199 46c-13 8-27 15-41 23-12 7-23 14-35 21 3 5 6 11 9 16 27-15 54-30 81-46-3-4-6-8-7-12-2-4-3-4-7-2zm-112 10c14-27 29-55 43-83-6-3-11-5-17-8-14 28-28 55-43 82 6 3 11 6 17 9z"/></svg>