<svg width="64" height="64" viewBox="0 0 1000 1000" xmlns="http://www.w3.org/2000/svg"><path d="M933 525c-6-42-26-77-60-104-24-19-52-32-79-45-29-15-58-30-80-54-13-14-24-29-35-45-41-58-89-105-154-135-96-43-191-42-282 9-94 52-151 134-172 239-16 77-8 153 12 230 4 11 8 23 12 35 15 40 36 78 67 109 37 36 79 61 133 56 36-3 70-12 106-19 26-4 52-7 79-1 23 5 42 17 62 29 30 18 61 37 95 49 42 15 84 15 125-5 28-13 52-32 73-55 76-83 116-179 98-293zm-34 96c-16 81-55 149-120 201-34 27-72 39-115 28-26-7-50-19-73-32-19-11-38-23-57-34-36-21-76-26-118-20-32 5-63 12-95 18-51 12-95-3-132-40-26-27-45-59-59-94-29-74-39-151-28-230 15-112 73-197 176-246 82-39 164-32 245 8 53 26 93 68 126 116 20 27 39 55 67 74 25 15 50 29 75 43 18 10 35 19 52 29 27 17 44 42 50 65 12 43 13 78 6 114zM450 347c-94 25-148 118-123 212 24 91 120 145 212 120 91-25 145-120 120-211S540 322 450 347zm16 75c-48 14-70 64-66 103 0 5 1 10 2 15 1 10-4 19-13 20-10 2-18-4-21-14-12-55 13-132 86-156 11-3 21 1 24 10 4 9-1 19-12 22z"/></svg>