<svg width="64" height="64" viewBox="0 0 1000 1000" xmlns="http://www.w3.org/2000/svg"><path d="M937 435c-1-3-3-4-5-3-1 2-2 3-3 3-9 1-21-9-20-18 0-12 2-24 1-35-2-20-4-39-8-58-1-6-4-11-7-16-6-8-16-4-20 7-9 22-17 44-25 65-6 14-8 20-5 25 6 10 12 14 9 14h-7c-25 1-32-8-27-33 6-30 8-61 3-92-3-19-8-21-24-11-27 17-50 39-69 63-12 15-25 16-38 2-3-2-5-5-7-8-3-4-5-7-3-6 2 0 3 1 4 1 16 8 18 7 27-9l31-59c3-5 5-9 8-14 4-8-2-17-13-16-11 2-21 7-31 13-18 13-36 28-53 44-8 7-16 5-24 4-3 0-7-4-9-7-1-3-1-5-3-4-3 2-1 7 5 12 6 4 11 8 10 8 0 0 0 1-1 1-68 43-91 84-223 73-15-2-31 1-45 3-61 10-113 39-161 75-43 33-80 71-103 120-21 45-57 100-26 141 17 23 43 63 64 82 105 93 250 81 379 27 67-28 124-72 177-121 84-78 153-168 213-266 1-1 2-2 2-3 1-2 9-2 16-1 8 2 13 0 11-3zM639 294c3-1 6-3 9-6 18-15 36-33 57-46 13-8 30-12 45-14 20-2 22 4 14 21-15 28-31 56-46 86-6 10-7 16-3 13 2-1 4-3 6-5 13-13 24-27 37-39s28-22 43-31c16-9 26-5 30 14 3 13 4 27 3 41-1 22-4 43-6 65-1 3-2 6-1 9 1 4 6 1 7-4l3-9c6-18 13-36 20-54l18-42c4-9 9-9 16-3 3 3 5 5 7 8 14 17 19 37 20 58 1 20 0 40 0 61v8c2 5 8-3 9-10 0-5 1-9 1-14 3-17 7-33 7-50 1-43-11-81-46-110-3-2-5-6-5-10 1-25 4-50 15-72 6-10 5-24-5-28-19-7-40 1-50 20-3 8-7 15-11 21-10 18-20 30-46 26-42-7-78 11-108 41-13 12-24 25-36 39-7 8-9 19-4 16z"/></svg>