<svg width="64" height="64" viewBox="0 0 1000 1000" xmlns="http://www.w3.org/2000/svg"><path d="M964 250c-28-48-87-74-171-74-24 0-51 3-79 7C671 71 606 0 531 0c-22 0-43 7-64 19-12-8-25-12-40-12-42 0-77 34-77 76 0 20 8 37 20 51-8 15-16 31-22 49-28-4-55-7-79-7-84 0-143 26-171 74-38 65-9 157 67 250-23 28-41 56-55 83-4-1-9-2-14-2-42 0-77 34-77 77 0 40 32 73 72 76 2 5 4 11 7 16 28 49 87 74 171 74 24 0 51-2 79-7 43 112 108 183 183 183s141-71 183-183c28 4 55 7 80 7 5 0 9 0 14-1 14 21 38 35 65 35 42 0 76-34 76-76 0-4 0-7-1-11 6-6 12-13 16-21 38-65 9-157-66-250 75-93 104-185 66-250zm-250 87c-21-14-42-28-65-41s-46-25-69-36c37-14 73-25 108-32 11 33 19 70 26 109zm-39-146c-46 10-95 26-144 47-49-21-97-37-144-47 5-13 10-24 16-35 7 2 15 4 24 4 42 0 76-34 76-77 0-12-3-24-9-35 12-5 25-9 37-9 56 0 108 59 144 152zm-301 37c35 8 71 18 108 32-23 11-46 23-69 36-22 13-44 27-65 41 7-39 16-75 26-109zm-242 42c20-35 69-55 137-55 20 0 43 2 66 6-14 44-24 94-31 148-43 32-81 66-113 100-62-77-87-151-59-199zm167 307c-31-25-58-51-82-77 24-26 51-52 82-77-2 25-3 51-3 77s1 52 3 77zm-30 208c-68 0-117-20-137-55-1-1-1-3-2-4 25-13 43-38 43-68 0-24-11-44-27-58 11-23 26-46 45-70 32 35 70 69 113 101 7 54 17 104 31 148-23 4-46 6-66 6zm79-122c21 14 43 28 65 41 23 13 46 25 69 36-37 14-73 24-108 32-10-33-19-70-26-109zm183 298c-56 0-107-59-144-152 46-10 95-26 144-47 49 21 98 37 144 47-36 93-88 152-144 152zm157-189c-35-8-71-18-108-32 23-11 46-23 69-36s44-27 65-41c-7 39-15 76-26 109zm33-162c-29 21-59 41-92 60-32 19-65 35-98 50-33-15-65-31-98-50s-63-39-92-60c-4-36-6-72-6-110s2-74 6-110c29-21 59-41 92-60s65-35 98-50c33 15 66 31 98 50 33 19 63 39 92 60 4 36 6 72 6 110s-2 74-6 110zm73-395c67 0 116 19 136 55 28 48 3 122-59 199-32-34-70-68-113-100-6-54-17-104-31-148 23-3 46-6 67-6zm-31 208c31 25 58 51 82 77-24 26-51 52-82 77 2-25 3-51 3-77s-1-52-3-77zm167 307v1c-14-16-35-26-57-26-43 0-77 34-77 77v3h-2c-21 0-43-2-66-6 13-44 24-94 30-148 43-32 81-66 113-100 62 77 87 151 59 199zM531 407c-51 0-93 41-93 93s42 93 93 93 93-41 93-93c0-51-42-93-93-93z"/></svg>