<svg width="64" height="64" viewBox="0 0 1000 1000" xmlns="http://www.w3.org/2000/svg"><path d="M553 362c-12 6-16 17-18 29-4 33 1 65 7 97v5c-7-3-15-5-22-7-28-9-56-5-78 13-16 13-34 22-49 36-37 32-51 87-32 132 4 10 4 18-2 26-11 19-22 37-36 54-4 6-7 7-12 1-37-44-54-95-60-152-8-76 9-148 39-217 25-60 51-119 70-182 11-37 35-62 71-75 62-23 123-46 188-56 55-9 107-2 148 40 31 32 48 71 57 114 19 89-9 167-57 240-23 36-53 67-90 89-18 11-36 17-58 12-21-5-33-17-32-40 0-19-11-35-18-51-11-25-19-51-22-78-1-11 1-21 6-30zm-163 1c-9 0-18-1-27 2-7 2-13 5-13 14s5 15 12 17c8 3 16 4 24-7-5 2-6 3-7 3-9 2-17 1-19-9-2-9 7-10 13-13 6-2 12-1 17-7zm5 29c-10 10-12 13-32 12 12 10 23 7 32-12zm-8-40c-12 0-24-3-34 4 11-2 23 3 34-4zM170 937c16-14 31-28 46-41 73-65 127-144 169-232 23-49 44-98 57-150 2-6 6-10 11-13 16-9 34-12 52-9 14 1 21 13 16 28-10 36-25 69-43 102-39 72-92 135-145 197-43 48-94 85-151 114-3 2-6 3-8 4-1 1-2 0-4 0zm366-201c-3 23-20 32-46 27-27-5-44-36-34-62 8-18 25-23 42-26 38-7 87 22 92 63 4 30-9 51-32 69-22 16-48 22-75 22-38 0-74-10-107-29-7-4-8-6-3-13 13-16 24-32 36-49 6-7 14-6 21 4 6 9 12 18 20 24 23 17 53 19 74 4 13-9 18-20 12-34z"/></svg>