<svg width="64" height="64" viewBox="0 0 1000 1000" xmlns="http://www.w3.org/2000/svg"><path d="M918 423c-3-11-13-8-22-6-11 3-7 10-5 17 7 22 13 45 12 68 0 31-18 49-49 51-50 2-104-31-126-76-22-47-21-98-24-148-5-86-46-135-126-146-76-9-152-6-227 13-104 25-180 83-208 190-8 29-24 46-49 58-7 4-16 7-24 9-8 3-8 9-7 16 2 9 7 11 15 8 16-5 31-11 48-17-9 117 5 230 17 343 1 12 6 15 17 17 26 4 51 0 77-1 28-2 29-1 29-30 0-44 1-88 4-131 2-38 21-62 56-73 22-7 45-8 67-5 63 9 102 35 115 100 7 36 13 72 18 107 4 32 3 32 36 34 20 1 41 0 61-2 11-1 16-5 17-17 11-67 17-135 23-202 3-27 2-27 28-19 55 16 110 31 168 27 37-2 61-19 72-51 16-47 1-91-13-134zM494 312c-5 33-3 66 6 99-17-29-18-61-13-93 2-18 7-36 18-51 11-16 24-26 44-21-31 3-49 26-55 66zm157 38c-12-1-10-11-11-20 0-6 1-12 9-13 8 4 12 10 12 18 0 7-1 15-10 15z"/></svg>