<svg width="64" height="64" viewBox="0 0 1000 1000" xmlns="http://www.w3.org/2000/svg"><path d="M197 242c-8-16-15-30-28-40-14-12-29-13-41-5s-13 16-2 25c10 9 14 19 8 31-7 14-19 16-32 12-16-5-33-12-38-31s3-35 17-49c11-11 18-19 32-24 7-3 24-4 33 1 36 20 47 42 51 80zm50-40c9-5 17-3 25 3 8 7 3 12-1 18-4 8-2 15 5 20 12 7 25 5 36-2 12-7 15-17 11-29-9-34-56-47-81-22-14 13-20 31-25 53 6-11 10-18 14-26 4-6 9-11 16-15zm689 539c-2 5-6 10-12 7-8-3-15 0-22 1-15 3-31 4-44-3-16-8-22 0-27 12-9 19-15 40-17 61-1 11-3 19-10 20-22 5-90 0-90 0 2-9 3-12 3-17-1-6-1-13-9-14-9 0-10 7-11 13 0 6 1 12 2 18h-91c-12-49-29-94-49-138-17-37-42-65-76-86-30-17-57-39-85-58-8-5-11-9-2-17 8-6 22-14 10-26-11-10-22 0-29 8-8 10-14 9-23 1-59-51-112-105-141-179-6-16-11-32-14-49-1-4-5-12 5-13 8-1 14-4 17 8 14 47 40 88 73 125 18 20 39 38 67 45 17 4 33 1 46-11 25-23 52-26 83-16 6 2 13 3 18 6 43 19 88 19 134 14 65-9 130-3 190 29 48 26 75 65 74 121 0 27-12 51-24 74-6 12-13 24-19 37-6 15 0 25 15 27 14 1 30 7 42-6 5-5 11 1 16 1 3 0 1 3 0 5zM455 472c0-5-3-8-8-8s-8 2-9 8c0 5 3 9 8 9 6 0 9-3 9-9zm220-2c-30-8-60-3-87 11 22-4 43-8 66-6 29 3 39 15 30 44-14 40-37 74-68 103-31 28-45 26-70-7 5 28 31 42 55 26 48-32 83-76 96-134 5-19-3-32-22-37zm-41 370z"/></svg>