<svg width="64" height="64" viewBox="0 0 1000 1000" xmlns="http://www.w3.org/2000/svg"><path d="M894 635c-13 0-26 0-40 1 17-6 35-10 53-8 3 0 3-1 3-3 0-14-1-28-3-42-1-3-2-3-4-3-13-1-25 0-37 4l-20 5c11-7 23-14 36-16 7-1 13-1 19-2 2 0 4 0 3-3-2-13-5-26-9-38-1-3-3-4-6-5-10-2-21-2-32 0-14 2-28 5-41 10 5-4 11-6 16-8 17-9 35-15 54-13 4 0 4-2 3-4-4-14-10-27-15-39-1-3-2-3-4-4-31-5-59 1-86 15-3 2-5 4-9 5 13-12 28-20 43-26 16-7 32-9 50-7-6-10-11-18-15-27-3-7-8-10-15-11-5 0-10-2-15-2-30 0-58 9-84 23-1 1-2 2-3 2s-2 2-4 0c32-24 65-43 107-36-4-7-8-14-12-20-2-2-4-4-6-5-6-4-13-6-21-8-29-7-55 4-80 15-9 4-18 10-26 16-1 1-2 3-4 1l12-12c5-5 12-8 17-12 18-14 39-22 63-23 9 0 19 1 28 5-3-6-7-10-7-15-1-16 0-32 5-47 4-11 7-23 7-35 0-34-16-63-34-90-5-8-12-15-18-22-13-16-29-29-45-39s-32-20-51-26c-13-4-27-9-41-13-20-6-41-7-61-9-12-1-23-2-35-1-6 0-11-2-16 1-2-2-4-1-6-1-25 0-49 3-74 5-10 0-20 3-30 4 20 10 41 16 59 28h-2c-19-6-39-10-59-13-26-4-52-3-78 2-19 4-37 12-56 18-18 6-35 15-51 25-18 10-34 23-48 37-10 10-20 21-28 32-14 19-25 39-33 62-9 27-17 54-18 82-1 24-2 47 2 70 4 20 12 39 20 58 4 8 9 16 17 23 2-35 7-69 24-100 1 2 0 3 0 4-10 35-15 69-12 105 0 3 1 5 3 7 14 13 30 24 45 36l18 12c2-57 4-112 23-165v2c-4 18-7 35-8 53-4 37-4 73 0 110 0 6 0 12 8 14 1 0 3 1 4 2 19 12 40 21 60 30 5 3 5 1 5-4-2-24-3-48-4-72 0-23 0-45 1-67 2-26 3-52 9-77 1-3 1-6 3-8-4 35-5 84-3 122s7 75 14 112c0 3 2 4 4 5 15 5 29 11 44 15 29 8 58 17 86 27 6 1 4-3 4-5 0-20-6-39-14-58-7-19-17-38-29-55-10-13-20-26-26-41-10-25-18-52-25-79 0-2-1-4 0-7 5 22 13 42 22 61 9 20 21 39 35 57 11 12 22 24 36 34 17 12 35 23 55 29 22 7 45 12 68 13 24 1 48 0 71-4 13-2 27-5 40-9-25-23-43-51-53-83 1 1 2 2 3 4 6 11 13 22 21 32 9 11 19 22 31 31 7 4 13 11 21 14 12 4 21 12 27 23 10 16 17 34 19 53 6 47 3 93-16 138-9 23-24 41-45 52-5 3-15 5-20 5 2-1 3-1 4-2 9-3 17-10 23-18 3-2 4-5 0-8-6-5-9-12-11-20-10-26-3-50 6-74 7-19 18-35 27-52 4-7 8-14 10-21 0-4 3-9 0-12-4-3-9-1-13 0-11 5-23 6-35 5-11 0-23-2-34-4-14-2-18 2-16 16 2 16 0 31-5 46-5 16-13 31-17 47-6 25-9 50-8 76 1 14 3 27 9 39 10 18 25 31 43 41 36 18 73 18 110 5 24-10 45-25 64-44 5-5 9-11 14-16 7-9 14-19 20-29 3-6 2-8-4-9v-1s1-1 2 0c5 2 7-1 9-5 5-7 8-15 11-23 4-13 4-13-9-17l-2-1h12c3 1 5-1 5-4 3-11 5-21 8-32 1-4 0-5-4-6-10-1-19-4-29-6 10-1 21 0 31 2 3 0 4 0 5-4 2-12 4-24 5-36 1-5-1-8-6-9-12-2-24-4-37-4 1-1 2-1 3-1 12-2 24-3 36-1 4 0 5-1 5-5 0-8 1-16 1-25 0-16 0-16-17-17zM500 307c-4 2-8 3-11 3-14-2-23-10-30-20-1-2 0-3 1-3 15-5 33-6 43 11 2 5 2 7-3 9zm23-237c2-1 4-3 7-6-3 3-5 5-7 6z"/></svg>