<svg width="64" height="64" viewBox="0 0 1000 1000" xmlns="http://www.w3.org/2000/svg"><path d="M920 245c-8-15-18-29-28-41-46-52-102-90-159-129 27 52 75 86 113 137-76-14-149-5-220-55 29 49 53 66 105 79 32 7 65 10 97 20 23 6 46 22 42 49-3 26-32 21-50 22-90 2-176 16-247 87-6-56 15-101 23-160-73 82-83 171-79 263 1 24 11 48 41 50 29 1 38-21 43-46 13-73 60-113 129-129 43-10 87-13 131-22 75-14 95-58 59-125zM401 535c3 21 20 35 43 31 21-3 35-18 36-40 1-32 3-64-1-95-7-62-22-122-74-172 5 55 25 101 22 159-53-59-117-79-185-87-29-4-58-3-87-7-33-6-38-23-16-48 21-23 50-28 79-31 41-4 79-15 113-37 16-10 32-21 33-47-64 48-137 35-211 51 38-55 92-88 115-145-42 33-84 65-125 100-36 31-68 66-78 114-9 42 4 67 44 82 24 9 50 12 76 15 102 11 197 31 216 157zm380 94c9 19-8 25-21 30-33 13-67 12-101 3-27-7-53-18-58 26-1 9-12 18-28 11 7-12 14-24 22-36-77 56-25 146-62 215-21-22-45-32-66 2-42-67 12-157-56-219-5 19 18 24 12 39-19 2-29-12-31-26-3-27-16-20-34-16-30 7-62 16-93 8-23-5-49-8-52-40-28 22-1 33 11 42 35 28 76 19 116 15 11-1 21-11 29 8 24 64 63 123 70 193 4 34 29 48 58 49 30 1 57-13 62-44 9-65 37-121 63-178 12-27 20-34 48-28 39 8 81 11 113-22 16-15 15-19-2-32zm-1-1l1 1v-2l-1 1zm-564-4l-3 1v1h1l2-2zm119 9c26 12 51-3 63-36-28 9-53 11-78 3-40-13-74-3-104 24 40-9 79-10 119 9zm355-36c-30 7-59 11-93-2 19 38 46 50 77 34 36-18 70-16 105-3-22-31-55-37-89-29zm90 31l1-1c-1-1-2-1-2-1 0 1 1 1 1 2z"/></svg>