<svg width="64" height="64" viewBox="0 0 1000 1000" xmlns="http://www.w3.org/2000/svg"><path d="M520 354c-6 1-11 3-16 6s-9 7-12 13-5 10-6 17c-1 6-2 13-1 20 1 8 3 14 8 18 4 3 9 5 15 4 4 0 7-1 10-1s6-2 9-4l6-73h-13zM69 292c139 139 278 277 416 416 12 12 17 11 29 0l393-394c10-9 23-17 28-29s1-27 1-41c1-28-13-41-41-41H103c-27 0-40 14-40 40v33c-1 7 2 11 6 16zm318 81c5-19 13-35 24-51 12-15 27-28 46-39 20-11 43-18 70-21 15-1 29 0 42 2 14 3 26 8 36 15 11 7 19 17 26 28 7 12 11 26 13 43 1 12 0 24-2 36-3 12-8 23-14 33s-14 18-24 25c-9 7-20 11-33 12-14 2-25-1-33-8-5 4-11 7-17 10-7 3-14 4-24 5-6 1-12 1-18-1-5-1-10-3-15-7-4-4-8-8-11-14s-5-13-6-21c-1-13 0-25 4-37 3-11 8-21 15-30 6-8 15-15 24-21 10-5 20-8 31-10 9 0 18-1 26 0 9 0 17 2 24 4l-9 100c2 1 6 1 10 1 7-1 13-3 19-8 5-5 9-11 12-18s5-15 6-23c2-9 2-17 1-25-2-22-11-38-25-49-15-10-34-14-59-12-19 2-35 7-50 14-14 8-25 18-34 30s-16 25-20 40-5 30-4 45c1 14 5 25 10 35 5 9 11 17 19 22 8 6 17 10 26 12 10 2 21 2 31 1s20-2 28-4 16-5 23-9c2 5 4 9 6 13 2 5 4 9 5 13-3 2-7 4-12 6s-10 4-15 5c-6 2-12 3-18 4s-12 2-18 2c-15 2-30 1-43-2-14-3-26-8-37-16s-20-18-27-31-12-28-13-47c-2-17 0-34 4-52zm352 186c-2-2-5-4-9-8-2 3-4 6-6 8L544 739c-28 28-61 28-88 1L276 560c-3-3-5-6-7-9-3 2-4 3-5 4L68 751c-6 6-6 12-4 19 4 18 18 27 38 27h802c13-2 23-8 29-20 5-12 6-18-5-30-63-62-126-125-189-188zM63 692l170-170c-56-58-113-115-170-172v342zm873-1V350L766 520l170 171z"/></svg>