<svg width="64" height="64" viewBox="0 0 1000 1000" xmlns="http://www.w3.org/2000/svg"><path d="M937 242c-1-4-6-2-9-2H736c-6 0-10 2-14 6-66 67-132 134-197 201-3 2-7 4-6 8 2 4 7 2 10 2h106c6 0 13-2 16 4 2 7-5 9-9 13-58 54-116 109-174 163l-8 8c-4 4-3 6 2 7h97c4 0 8-1 10 3s-1 7-3 10c-2 2-3 3-4 5-52 60-103 120-154 181-9 10-18 20-26 31l3 3c130-104 260-209 390-314-6-4-11-3-15-3h-66c-4 0-10 2-12-3-3-6 3-9 7-12 58-54 116-108 175-161 4-4 9-7 13-15h-65c-4 0-11 1-13-4-2-6 4-9 8-12l124-111c3-2 8-4 6-8zM63 287c0 6 2 9 8 8 12-1 25-2 37-4 52-8 100-27 139-63 5-4 7-4 12 0 44 40 97 60 155 65 80 7 152-12 213-64 5-4 7-5 12-1 9 8 19 14 28 22 5 4 9 4 14-1 12-13 24-24 36-36 5-5 6-7-1-11-6-4-12-8-18-13-25-21-47-45-64-74-90 142-284 158-381 0-12 33-34 56-62 73-36 23-74 38-117 40-8 1-12 3-11 12 1 16 0 32 0 47zm15 183c63-4 120-23 167-65 7-5 10-5 16 0 50 44 109 63 174 65 10 0 16-3 23-10 13-15 28-29 42-44 7-8 14-15 23-24-131 27-211-3-270-102-10 23-24 42-43 57-40 33-86 53-138 57-7 1-10 3-9 11 0 13 1 27 0 41-1 13 4 15 15 14zm319 164c15-16 31-31 46-46 2-2 6-3 5-7-85-3-154-34-195-115-7 18-15 33-28 45-43 41-94 62-152 68-7 1-11 2-10 11v45c-1 8 2 10 10 10 65-2 123-22 172-65 7-6 10-4 15 1 35 30 75 48 120 58 7 2 12 0 17-5z"/></svg>