<svg width="64" height="64" viewBox="0 0 1000 1000" xmlns="http://www.w3.org/2000/svg"><path d="M311 449zm185-52c-1-1-1-2-2-4-12-41-40-71-76-93-61-37-144-27-197 20-68 61-71 160-29 219 25 36 56 60 97 72h2V444c0-25 21-47 47-47h158zm-356 20c14-90 88-160 183-166 81-4 162 43 194 126 2 6 3 14 5 20h37c-8-7-16-15-24-22-6-5-8-11-8-18 1-30 0-61 1-91 0-10-4-13-14-13-30 1-60 0-90 1-7 0-12-2-17-8-22-22-45-44-67-66-5-6-8-6-13 0l-65 66c-6 6-12 8-20 8-30-1-61 0-91-1-9 0-12 3-11 12v91c0 8-3 14-8 19-22 21-43 43-64 64-6 6-8 9-1 16 22 21 43 43 65 65 6 5 8 10 8 18v93c0 8 2 10 10 10h90c9 0 16 1 22 8 9 11 19 21 28 31v-42c-101-24-166-119-150-221zm751 5H360c-25 0-47 21-47 47v308c0 25 22 47 47 47h531c25 0 47-22 47-47V469c0-26-22-47-47-47zm-54 81c0-20 1-21 27-21 17 1 18 3 18 29 0 17-2 19-24 19-21-1-21-1-21-27zm45 65c0 18-2 20-23 20s-22-1-22-24 0-23 27-23c18 0 18 1 18 27zm-131-86c21 0 22 2 22 24 0 23-1 24-24 24-21 0-22-2-22-25 0-21 2-23 24-23zm22 82c0 22-1 24-22 24-23 0-24-1-24-24 0-22 1-23 22-23 23 0 24 1 24 23zm-21 34c19 0 21 2 21 24s-1 24-24 24c-21 0-22-2-22-26 0-20 2-22 25-22zM572 482c20 0 21 2 22 25 0 19-1 24-25 23-20-1-21-1-21-25 0-22 1-23 24-23zm-94 22c0-20 2-22 25-22 19 0 21 3 21 24 0 23-1 24-22 24-24 0-24 0-24-26zm0 53c0-15 3-16 26-16 19 0 20 1 20 24 0 19-3 23-17 23-29 0-29 0-29-31zm-26-75c14 1 17 4 17 18v7c0 8 3 18-6 21-11 4-23 3-34 0-3-1-5-5-5-9v-9c0-28 0-28 28-28zm17 84c0 21-1 22-25 22-18 0-20-2-20-25 0-21 1-22 21-22 24 0 24 0 24 25zm-100-63c0-20 1-21 29-21 15 0 17 3 16 23 0 25 0 25-26 25-18 0-19-1-19-27zm45 61c0 23-1 24-21 24-23 0-24-1-24-24s0-23 24-23c16 0 23 0 21 23zm-45 57c1-23 0-23 25-23 20 0 20 1 20 25 0 22 0 22-23 23-19 0-23-2-22-25zm45 62c0 19 0 20-23 20-22 0-22 0-22-24 0-23 1-23 26-23 19 0 19 1 19 27zm-33 78c-16-1-11-14-12-24 1-7-3-18 6-21 11-4 23-3 34 0 3 1 5 4 5 8v9c2 34-6 29-33 28zm88-23c0 21-1 23-20 23-24 0-25-1-25-21 0-26 0-25 24-26 16 0 23 1 21 24zm-45-57c0-24 1-25 22-25 22 0 23 1 23 24 0 22-1 23-20 23-25 0-25 0-25-22zm45-56c0 20-1 20-23 21-19 0-23-3-22-24-1-21 1-24 23-24 20 0 23 2 22 27zm36 136c-26 0-27-1-27-21 0-25 1-26 19-26 27 0 27 0 27 24 0 21-2 23-19 23zm-27-79c0-25 1-26 22-26 23 0 24 1 24 23 0 24 0 24-24 24-21 0-22-1-22-21zm46-59c-1 23 0 23-27 23-17 0-19-2-19-25-1-18 1-23 26-23 16 1 21 2 20 25zm44 138c-18 0-20-1-20-24 0-22 1-23 22-23 23 0 23 0 23 26 0 21-1 21-25 21zm-20-86c0-18 3-20 30-19 13 0 16 4 15 24 0 23 0 23-27 23-18 0-18-1-18-28zm23-29c-20 0-23-3-23-23 0-24 1-25 27-24 17 0 18 1 18 23s-1 24-22 24zm-3-58c-18-1-20-2-20-24 0-23 0-23 23-23 22 0 22 0 23 25 0 17-1 23-26 22zm60-106c19 1 20 2 20 23 0 25 0 25-26 25-18 0-19-2-19-24-2-19 2-25 25-24zm-5 106c-18 0-20-2-20-24s0-23 23-23c22 0 22 1 22 24 0 22-1 23-25 23zm25 34c0 22-1 24-19 24-25 0-26-1-26-21 0-26 0-27 20-27 25 0 25 1 25 24zm-20 139c-23 1-26-4-26-22 1-25 1-25 25-25 20 0 21 1 21 24 0 22-1 23-20 23zm13-59c-11 2-23 3-34-2-3-1-5-5-4-9v-22c0-3 0-6 3-8 10-10 22-5 34-4 9 1 8 11 8 18v6c0 8 2 18-7 21zm42 59c-24 0-26-1-26-21 0-25 1-26 23-26s23 1 23 24c0 22-1 23-20 23zm0-58c-24 0-26-1-26-19 0-27 1-28 21-28 24 0 25 0 25 24 0 22-1 23-20 23zm-5-57c-20 0-21-2-21-27 0-20 1-20 28-20 17 0 18 2 18 23 0 23-1 24-25 24zm-21-84c0-21 1-21 27-21 18 0 19 2 19 23 0 23-1 24-25 24-19 0-21-2-21-26zm24-32c-23 0-23-1-24-24-1-20 4-25 24-24 21 1 22 2 22 24 0 23-1 24-22 24zm72 126c18 0 20 3 20 23 0 24 0 24-26 24-20 0-20-1-20-27 0-19 2-20 26-20zm-9 105c-15 0-17-3-17-23 0-22 1-24 21-24 23 0 25 2 25 18 0 29 0 29-29 29zm37-257c1-20 2-22 26-22 19 0 21 2 21 27 0 19-2 21-24 21-18 1-24-2-23-26zm0 171c0-17 3-19 28-19 17 0 19 3 19 24 0 23 0 23-30 23-15 0-17-3-17-28zm0-53c0-21 2-23 21-23 25 0 26 0 26 22 0 23-2 25-22 25-23 0-25-1-25-24zm23 139c-21 0-23-1-23-23 0-23 1-24 25-24 20 0 22 2 22 23 0 23-2 24-24 24zm-1-173c-20-1-22-2-22-27 0-18 2-20 24-20s23 1 23 23c1 21-4 25-25 24zm53 173c-18 0-19-2-19-24 0-23 0-23 26-23 18 0 19 2 19 24 0 23 0 23-26 23zm26-78c0 18-1 20-20 20-25 0-25 0-25-24 0-22 1-23 20-23 22-1 26 2 25 27zm-29-37c-14 0-16-4-16-25s1-22 18-23c24 0 27 3 28 18 0 29-1 30-30 30z"/></svg>