<svg width="64" height="64" viewBox="0 0 1000 1000" xmlns="http://www.w3.org/2000/svg"><path d="M891 252H699c-7 0-11 3-15 8L442 506c-3 3-8 5-7 12h113c5 0 12-1 15 5 2 6-5 8-8 11-37 35-73 69-110 103l-72 68 2 3h13c27 0 54 0 81 1 5 0 11-2 14 3 3 6-3 9-6 12-50 59-99 117-148 175l-29 35 3 3c127-102 254-204 381-307-6-5-10-3-15-3h-65c-4 0-10 1-11-4-2-5 3-7 6-10l58-54 77-71c17-15 33-30 50-45l-2-3h-58c-5-1-13 3-16-4-2-7 6-10 10-14 57-53 114-105 171-158 3-3 7-5 8-11-3 0-4-1-6-1zm-433-30c-52 1-104 0-156 1-52 0-104 0-157-1-8 0-11 2-11 12v117c0 10 2 13 12 13 104-1 208-1 313 0 8 0 12-3 11-12V235c1-10-2-13-12-13zm-42 257c-4-1-6-1-7-1H145c-10 0-11 3-11 12v116c0 10 3 13 13 13h255c4 0 8 1 11-2 19-17 37-34 55-51 4-4 3-9 2-13-2-5-6-3-10-3h-42c-12-1-22-8-27-20s-2-23 7-32c5-6 11-12 18-19zM134 195c56-2 112-1 168-1h170c22 0 29-7 29-29s-7-29-29-29H130c-12-1-22 3-25 15-6 24-1 44 29 44zm0 255h254c19 0 39 5 55-2s28-25 41-38c3-4 11-7 9-13-3-5-10-5-16-6H133c-22 0-30 8-30 29 0 22 8 30 31 30zm528-223c0-28-1-56 0-84 0-10-4-12-13-12H533c-8 0-10 1-8 10 8 29 7 56-22 75-7 4-4 12-4 17 1 7 7 4 11 4 23 1 46 1 69 1 24 0 48-1 72 0 8 0 11-3 11-11zM324 701l54-51c-2-1-2-2-3-2H125c-15 0-22 10-22 28 1 20 7 29 24 29h184c5 0 10 0 13-4zm72-598h270c15 0 20-5 20-20s-5-21-20-21H396c-16 0-20 5-20 21s4 20 20 20zm194 200c11-12 24-23 38-37H528c-29 0-29 1-29 30 0 8 2 11 10 11 23-1 46-1 69 0 5 0 8-1 12-4zm-91 56v5c3 18 15 14 20 11l45-41h-41c-25 0-25 0-24 25z"/></svg>