<svg width="64" height="64" viewBox="0 0 1000 1000" xmlns="http://www.w3.org/2000/svg"><path d="M363 447c6 12 13 23 22 33 38 44 87 66 146 53 61-14 97-56 119-111 2-7 2-15 10-19 44-28 41-73 42-116 0-6-3-10-8-9-14 1-13-7-14-17-6-61-31-113-81-150-12-9-26-14-31-30-1-5-6-9-14-10-3 34-6 67-9 101-1 11-2 22-17 21-14-1-11-13-11-23 1-30 1-60 3-90 2-24-15-16-26-17-17-3-13 8-13 18 1 32 2 63 3 95 0 6 0 13-8 16-5 2-11 1-15-3-4-5-5-11-5-16-3-30-5-59-8-88 0-5 2-12-4-14-6-1-9 6-12 10-5 6-5 15-13 19-60 35-90 89-98 157-2 10 2 23-17 21-3 0-5 4-5 8-2 36-3 74 24 100 19 19 28 40 40 61zm188-158c7-50 13-99 20-154 47 37 72 80 73 137 0 7-4 9-10 11-24 8-48 11-73 14-7 1-11 0-10-8zm-194-26c5-48 24-88 62-119 5-4 11-11 13 3 5 45 11 90 17 134 2 14-2 19-16 16-20-4-41-6-61-12-12-3-18-9-15-22zm-13 77c3-11 17-6 25-3 76 33 154 25 233 12 8-1 16-4 23-9 2-2 5-4 8-4 9-1 21-6 26 6 5 9-6 23-19 24-16 2-18 15-21 26-7 22-16 43-31 62-24 29-52 42-96 45-30-3-59-20-82-48-13-18-23-38-28-60-4-14-9-23-25-25-13-2-17-16-13-26zm-20 375c1 0 4-2 4-3 2-12 2-25 0-37 0-9-8-5-13-6-7-1-6-7-6-11v-47-50c0-6-1-9-9-6-34 16-70 30-78 74-2 9-7 18-10 27-34 87-66 176-97 264-5 14-1 17 12 16 23-1 46-1 70 0 11 1 16-3 21-14 26-61 53-122 81-183 5-11 6-27 25-24zm560 205c-30-89-63-177-96-264-4-9-9-18-11-27-7-44-43-59-78-74-7-3-9 0-9 6v97c0 4 2 10-5 11-5 1-13-3-14 6-1 12-2 25 1 37 0 1 2 3 4 3 18-3 20 13 25 24 27 61 54 122 80 183 5 11 11 15 22 14 23-1 46-1 69 0 14 1 17-2 12-16zm-237-28c3-17-4-21-20-21-74 1-149 0-224 1-16 0-36-7-46 2-10 10-2 31-3 47-1 11 2 15 14 15 44-1 88-1 132-1h51c17 0 34 1 51 1 14-1 33 6 42-4 9-8 1-27 3-40zM387 770c-1-19-18-35-37-35-20 1-37 18-36 37 1 20 18 36 38 36 18-1 35-19 35-38zm264-35c-20 0-36 16-36 36s16 37 36 37c19 0 36-18 36-37s-17-35-36-36zm-9-158c0-9 0-19-1-28 0-4 1-9-4-12-9-5-31 1-37 10-22 34-45 69-66 103-5 8-11 13-22 12-7-1-14-1-20 0-13 2-20-4-27-15-21-34-43-68-65-102-2-4-5-6-8-8-8-4-18-1-27 0-4 0-6 3-6 6l-5 148c0 3-1 7-1 10v4c1 8 5 11 15 11 44-1 88-1 132-1h133c10 1 14-2 14-14v-6l-5-118z"/></svg>