<svg width="64" height="64" viewBox="0 0 1000 1000" xmlns="http://www.w3.org/2000/svg"><path d="M847 154H153C69 154 0 223 0 308v384c0 85 69 154 153 154h694c84 0 153-69 153-154V308c0-85-69-154-153-154zM622 449c17-7 34-11 52-7 10 1 19 5 26 13 5 5 7 12 7 19v92c0 3 1 4 4 4h5c3-1 3 1 3 3s0 3-2 3c-10-1-20-1-30 0-3 0-3-1-3-3v-19c-3 6-7 11-12 16-14 13-40 13-55 1-7-6-11-13-12-23s1-20 8-28c6-6 14-9 22-11 12-3 25-5 37-8s12-3 12-16c0-8 1-15 0-22-2-10-8-15-17-17-14-1-22 3-28 15-5 9-8 18-11 27-1 3-3 4-6 3-1 0-1-1-1-1v-39c0-1 0-2 1-2zm225 212c-23-3-46-7-69-10-19-3-37-5-56-8-20-2-40-4-60-5-38-2-76-3-114-3h-74c-23 0-45 0-68 1-29 1-58 2-86 4-22 1-43 3-65 5-40 4-79 9-118 19-1 0-3 1-5 1 48-23 99-36 151-46-9-1-18-2-26-5-55-18-89-55-100-111-9-47 4-89 37-125 23-23 51-38 84-42 46-6 86 8 119 40 19 19 32 42 38 68 1 2 2 3 4 3h41c2 0 3 1 3 3s-1 3-3 3h-11c-2 0-2 1-2 3 7 17 12 34 18 51 5 14 10 28 15 43 0 0 0 1 1 1l6-15c4-13 9-27 13-40 1-2 1-4 0-6-3-11-7-23-11-34-1-2-2-3-4-3h-10c-2 0-2-1-2-3s-1-3 2-3h60c2 0 2 1 2 3s0 3-3 3h-18c-3 0-3 0-2 3 9 28 19 56 28 84 2 4 3 8 5 12 1-2 1-4 2-6 10-30 21-60 32-90 1-3 1-3-3-3h-15c-2 0-2-1-2-3s0-3 2-3h30c3 0 3 1 3 3s0 4-3 3c-2 0-3 1-4 3l-43 120c-1 3-2 4-5 4-1-1-1 0-2 0-8 0-8 0-10-8-8-22-15-44-23-66 0-1 0-2-1-2-2 5-4 10-5 15-7 19-14 38-21 58 0 2-1 3-3 2-4 0-8 2-10 0-3-2-3-6-4-9l-39-114c-1-1-1-3-3-3s-2 0-2 2c2 12 2 23 1 35-3 28-12 52-29 74-15 19-33 33-54 43-1 1-2 1-3 2 123-13 245-13 367 10-3-1-3-3-3-6v-34c0-1-1-3 2-3 2 0 4-1 5 3 2 9 5 18 8 27 0 2 1 4 2 6 3 6 9 7 14 3 4-3 7-8 9-13 4-7 7-15 9-23v-3c-17-41-34-81-50-121-1-1-2-2-4-2h-4c-3 0-3-1-3-3s0-3 2-3h51c2 0 2 1 2 3 1 2 0 3-2 3h-17c13 30 25 59 38 90 10-31 20-60 30-90h-19c-2 0-3-1-3-3s0-3 3-3h36c2 0 3 1 3 3s0 3-3 3h-1c-8 0-8 0-11 8l-47 134c-2 6-4 11-7 16-5 8-12 12-21 12 44 11 88 23 129 42-7-1-14-3-21-4zM392 519c1-2 1-3-2-3-17 0-34-1-51-1-2 0-3 1-3 3-4 8-10 14-19 17-9 2-18 2-27 0-16-2-34-16-33-40 0-3 1-4 4-4h131c2 0 3 0 3-3v-11c0-17-3-32-9-47-8-19-20-34-38-42-31-14-62-14-93-2-20 7-35 20-43 40-15 32-15 65-3 99 9 23 25 39 50 46 26 8 52 9 79 1s44-27 54-53zm-102-99c16-3 34 5 43 19 3 5 4 10 5 16 0 2-1 3-3 3h-73c-2 0-3-1-3-3 0-17 13-31 31-35zm391 84c-5 3-11 5-17 6s-12 2-17 5c-7 3-12 7-14 14-2 10-2 19 0 28 1 6 5 10 11 12 5 2 9 2 13 1 11-3 18-10 22-20 5-11 6-22 5-32v-12c0-3-1-3-3-2z"/></svg>