<svg width="64" height="64" viewBox="0 0 1000 1000" xmlns="http://www.w3.org/2000/svg"><path d="M824 667c13 0 22-5 28-16 5-7 8-14 11-22l64-183c3-10 3-10 14-10h2c3 0 3-2 3-4 0-3 0-4-3-4h-50c-3 0-3 1-3 4s0 4 3 4h27c-14 40-28 80-42 122-17-42-34-82-51-122h23c3 0 4-1 4-4-1-3-1-4-4-4h-69c-2 0-3 1-3 3 0 4 0 5 4 5 2-1 4 0 6 0 3-1 4 1 4 3 23 54 46 109 68 163 1 2 2 4 1 5-3 11-7 22-12 32-3 6-7 13-12 17-7 5-15 4-19-4-2-2-3-5-4-8-4-12-7-24-10-37-2-5-5-3-7-3-4 0-2 3-2 4v46c0 3 0 6 3 8-166-31-332-31-499-14 1-1 3-2 4-3 29-13 54-32 74-58 23-30 36-63 39-101 2-16 1-31-1-47-1-3 0-3 2-3 4 0 4 2 4 4l54 155c1 4 2 9 5 12s9 0 13 1c3 0 4-1 5-4 9-26 19-52 28-79 2-7 5-13 7-20 2 1 2 2 2 3 10 30 20 60 30 89 4 11 4 11 15 11h3c4 1 5-1 6-5 20-54 39-108 59-163 1-3 2-5 6-4 3 1 3-2 3-4s0-4-3-4h-41c-3 0-3 1-3 4 0 2-1 4 3 4h21c4 0 4 0 3 4-15 41-29 82-44 123 0 2-1 5-2 8-3-6-4-12-6-17l-39-114c-2-4-1-4 3-4h25c3 0 3-2 3-4s0-4-3-4h-81c-3 0-3 2-3 4s0 4 3 4h14c3 0 4 1 5 4 5 15 10 31 16 46 1 3 1 6 0 9-7 18-13 36-19 54-2 7-5 14-7 21-1-1-1-2-2-3-6-19-13-38-20-57l-24-70c-1-3-1-4 2-4h15c3 0 4-1 4-4 0-4-1-4-4-4h-56c-3 0-4-1-5-4-9-36-26-67-52-93-45-43-100-62-162-54-45 6-83 25-114 58-45 47-63 104-50 169 15 76 61 126 135 151 12 3 24 5 36 7-70 14-140 31-205 62 2 0 4 0 7-1 52-13 106-20 160-25 29-3 58-6 88-8 39-2 78-4 117-5 31-1 62-1 93-2 33 0 66 0 100 1 51 0 103 1 155 4 27 2 54 4 81 7 26 3 52 6 77 10 31 4 62 9 93 14l29 5c-56-26-116-42-176-57zm-652-70c-33-10-55-32-67-64-18-45-17-90 3-134 12-27 32-45 59-55 43-15 85-15 126 3 25 11 41 32 52 57 8 21 12 42 12 64 1 6 0 11 1 16 0 3-1 4-4 4H175c-4 0-5 1-5 5-1 32 23 51 44 55 13 2 26 2 38-1s20-12 25-23c1-3 2-4 5-4 23 1 46 1 69 1 3 0 4 1 3 5-14 35-37 61-74 71-37 11-72 10-108 0zm494-108c4 0 6-1 8-5 4-12 8-25 15-37 8-17 19-22 38-20 13 2 21 10 23 22 1 10 0 20 0 30 1 18 1 18-16 22-17 5-34 7-50 11-11 2-22 6-30 15-10 11-12 25-11 39 1 12 6 23 16 31 21 16 55 15 75-2 7-6 12-14 16-22 0 9 1 17 0 26 0 3 1 4 4 4h41c2 0 3-1 3-4s0-5-4-4h-7c-5 0-6-1-6-5V464c0-9-3-18-9-25-10-11-22-16-35-19-25-4-48 1-71 10-1 1-2 2-2 3v53c0 1 0 2 2 3zm84 36c1 13 0 29-6 43-6 13-15 24-30 27-6 1-12 1-18-1-8-2-13-8-15-16-4-13-4-25 0-38 2-10 9-16 18-20 8-3 15-5 23-6 9-2 17-5 24-8 3-1 5-2 4 3v16zm-574-82h50c16 0 33-1 49 0 4 0 5-1 4-4 0-8-2-15-6-22-12-19-37-30-59-25-24 4-41 24-42 47 0 3 1 4 4 4z"/></svg>