<svg width="64" height="64" viewBox="0 0 1000 1000" xmlns="http://www.w3.org/2000/svg"><path d="M937 401c-12 0-22-1-33 0-8 1-12-2-15-9-44-87-88-173-132-259-11-23-23-46-36-70-16 11-32 23-48 34-7 4-8 7-5 14 6 16 11 32 17 48-3 2-6 4-8 5-93 50-186 99-278 150-19 11-34 14-52 0-3-3-9-4-12-2-17 8-33 18-50 27 5 15 10 29 14 43 1 4 1 10-1 14-24 58-49 116-73 175-3 7-7 9-15 9-30 0-59 1-89 0-29 0-46 23-45 45 2 34 0 68 1 103 0 23 12 35 35 36h116c-17 17-20 37-16 57 5 21 16 30 37 30h137c19 0 35-6 43-24 9-19 5-41-9-57-1-1-3-3-5-6h14c46 0 91 0 136-1 23 0 32-9 32-32V591c0-6-2-12-5-17-19-30-38-60-57-89-4-6-8-8-15-8H387c-1 5-1 8-1 10v91c0 3-4 9-6 9-31 1-62 1-95 1 2-4 3-7 4-10 33-62 65-125 98-187 3-5 10-9 16-10 80-24 159-47 239-70l84-24c28 41 54 81 84 119 25 31 37 64 32 104-1 15-2 27-14 38-6 6-10 14-16 20-7 9-5 17 0 27 4 7 7 16 9 24s3 15 4 24c2-1 4-2 5-4 27-27 52-56 80-81 21-19 30-40 27-68-2-29 0-59 0-89zM419 511c3 0 6-1 8-1h76c5 1 11 4 13 8 17 25 33 50 48 77 5 9 3 20 5 32H419V511zm201 316H441c-3 0-7 2-9 5-9 18-25 24-44 24H242c-15 0-27-7-33-21-3-6-6-8-12-8h-84c-32 1-53 21-50 51v13c0 28 19 46 47 46h509c25 0 44-15 47-40 1-10 1-21-1-31-4-25-20-39-45-39z"/></svg>