<svg width="64" height="64" viewBox="0 0 1000 1000" xmlns="http://www.w3.org/2000/svg"><path d="M934 850c-2-20-5-40-7-60-3-21-5-42-8-62l-8-69c-1-4-1-7-2-12 0-2-2-3-4-3h-78c-2 0-4 1-4 3 1 28 2 57 3 87 0 2-1 3-2 2-1 0-2-1-2-1L689 633l-5-4c-2-1-3-2-4-2s-1 0-3 1l-39 21c-7 4-15 8-22 12-2 1-2 3-1 4 23 19 45 38 67 57l66 57c2 1 3 2 2 2 0 1-2 1-4 1-47-4-94-7-141-10-2 0-4 1-5 3 0 1 0 2-1 3l-18 67v1c-1 0-1 0-1 1h4l25 2 61 5 55 4c18 2 35 3 53 5l44 3c20 2 40 3 59 5 11 1 22 1 33 2 3 0 6 0 9 1h11c2 0 4-1 4-2s-1-3-1-5c-1-6-2-11-3-17zm-515-5l-18-67c-1-1-1-2-1-3-1-2-3-4-5-3-47 3-94 6-141 10-2 0-4 0-4-1 0 0 1-1 2-3l66-56c23-19 45-38 67-57 1-1 1-3-1-4-7-4-15-8-22-12l-39-21c-1-1-3-1-3-1s-2 1-3 2l-6 4-133 101c0 1-1 1-2 2s-2 0-2-2c1-30 2-59 3-87 0-2-2-4-4-4H95c-2 0-4 2-4 4 0 4-1 8-1 12l-9 69c-2 20-5 41-7 62-3 20-6 40-8 60-1 6-2 11-3 16v6s1 1 3 1h12c3 0 5 0 8-1 11 0 22-1 33-2 20-1 39-3 59-4 14-1 29-2 44-4l53-4c19-2 37-3 55-4l61-5c9-1 17-1 26-2 1 0 3-1 3-1v-1h-1zm162-690l18 67c1 1 1 2 1 3 1 2 3 4 5 3 47-3 94-6 141-10 2 0 4 0 4 1s-1 1-2 3l-66 56c-22 19-44 38-67 57-1 1-1 3 1 4 7 4 15 8 22 12l39 21c2 1 3 1 3 1l4-2 5-4 133-101c0-1 1-1 2-2s2 0 2 2c-1 30-2 59-3 87 0 2 2 4 4 4h78c2 0 4-2 4-4 1-4 1-8 2-12l8-69c3-20 5-41 8-62 2-20 5-40 7-60 1-5 2-11 3-16 0-2 1-5 1-5 0-1-2-2-4-2h-12c-2 0-5 1-8 1-11 0-22 1-33 2-19 1-39 3-59 4-14 1-29 2-44 4l-53 4c-18 2-37 3-55 4l-61 5c-8 1-17 1-25 2-2 0-4 1-4 1v1h1zm-190-4l-61-5-55-4c-18-1-35-3-53-5l-44-3c-20-2-40-3-59-5-11 0-22-1-33-1-3-1-6-1-8-1H66c-2 0-3 0-3 1v5c1 6 2 11 3 17 2 20 5 40 8 60 2 21 4 42 7 62l9 69c0 4 1 7 1 12 0 2 2 3 4 3h78c2 0 4-1 4-3-1-28-2-57-3-87 0-2 1-3 2-2 1 0 2 1 2 1l133 102 6 4c1 1 3 2 3 2s2 0 3-1l39-21c7-4 15-8 22-12 2-1 2-3 1-4-23-19-45-38-67-57l-66-57-2-2c0-1 2-1 4-1 47 4 94 7 141 10 2 0 4-1 5-3 0-1 0-2 1-3l18-67 1-1v-1h-4c-8-1-17-2-25-2z"/></svg>