<svg width="64" height="64" viewBox="0 0 1000 1000" xmlns="http://www.w3.org/2000/svg"><path d="M462 200c0-15-1-30 0-46 0-24 17-41 39-41 23 0 40 18 41 41 0 31 0 62-1 93 0 8 1 12 11 13 8 0 16 3 24 5 6 2 9 0 10-6 9-29 19-57 28-86 7-22 27-34 48-28 22 6 35 27 28 50-9 30-19 60-29 90-2 7-2 10 5 13 8 3 15 8 23 12 12 7 12 7 19-5 16-25 31-49 47-74 17-25 54-23 68 4 7 14 6 28-3 41-16 26-32 53-49 79-4 5-4 9 2 13 8 6 16 12 24 20 4 4 7 4 11-1 19-22 38-44 58-65 17-19 41-22 58-6 18 16 18 40 1 58-19 23-39 45-59 67-6 6-6 10 0 18 24 27 45 56 60 90 8 16 8 32 1 49-19 42-48 77-79 110-51 55-109 101-176 135-59 29-121 47-187 44-56-2-108-17-157-43-100-51-181-126-243-220-6-9-12-19-17-29-7-15-7-30 0-45 18-36 41-67 67-97 6-7 6-10 0-16-20-22-40-44-59-67-12-14-12-32-2-47 10-14 28-21 44-16 9 3 16 9 23 16 16 20 34 38 50 58 6 7 9 6 16 0 6-6 14-12 22-18 5-4 6-7 2-12-16-25-31-50-47-75-16-26-3-56 26-62 15-4 31 4 41 18 15 24 30 49 45 73 4 7 7 7 14 3 9-5 18-10 28-15 5-2 6-4 4-10-9-29-18-57-27-86-7-22 3-45 25-52 21-7 42 4 50 27 9 28 19 56 27 84 2 7 5 8 12 7 8-3 17-4 25-5 6-1 8-3 8-9-1-16 0-32 0-49zM269 570c0 126 101 229 224 229 131 1 233-100 233-230 0-123-103-226-226-226-128 0-230 100-231 227zm100 1c2-75 59-130 134-128 68 1 124 61 122 131-1 69-60 130-137 125-65-4-119-59-119-128z"/></svg>