<svg width="64" height="64" viewBox="0 0 1000 1000" xmlns="http://www.w3.org/2000/svg"><path d="M686 309h-1c-7-12-16-23-27-31v103l45 70c13 18 12 59 0 86l-2-58-59-93V267c-6-4-14-7-21-10v65h-73v-65c-8 3-15 6-22 10v119l-58 92-3 414c0 25 20 45 44 45s44-20 44-45c0 0 20-294 31-294s31 294 31 294c0 25 20 45 44 45s44-20 44-45V599c14 7 31 6 43-9 56-75-12-214-60-281zM563 433c-8 0-14-6-14-14s7-14 14-14 14 6 14 14-6 14-14 14zm43 0c-8 0-14-6-14-14s6-14 14-14c7 0 13 6 13 14s-6 14-13 14zm-95-155c-13 10-119 159-123 167-18 6-37 10-55 14v-82c46-5 82-44 82-93v-74h-16v74c0 29-15 53-37 67V210h-16v148c-11 4-31 4-43 0V210h-16v142c-23-14-38-39-38-68v-74h-16v74c0 49 37 89 83 93v86c-34 7-27 53 0 61v414h17V525c29-6 59-13 88-23 17-5 29-25 90-120V278zm45 36h57v-59c-9-2-19-4-29-4s-19 2-29 4l1 59zm-34-128c4 34 30 60 62 60s59-26 62-60c36-5 59-31 59-32 6-7 6-17-1-24-7-6-17-5-23 2 0 0-16 18-39 21-2-4-4-8-6-11 0-1-8-75-8-75 0-2-3-5-6-5h-80c-4 0-7 3-7 5 0 0-5 77-4 77-2 3-3 6-4 9-23-3-39-21-39-21-6-7-17-8-23-2-7 6-8 17-2 24 1 1 24 27 59 32zm17-40h91c1 2 2 5 3 8h-98c1-3 2-6 4-8zm99 41c-4 29-26 51-54 51-27 0-50-22-54-51h108z"/></svg>