<svg width="64" height="64" viewBox="0 0 1000 1000" xmlns="http://www.w3.org/2000/svg"><path d="M911 316h-79c-4 0-7-4-7-8V70c0-4-4-8-8-8H455c-4 0-7 4-7 8v238c0 4-4 8-8 8H308c-4 0-8 3-8 7v574c0 4 4 7 8 7h603c5 0 8-3 8-7V323c0-4-3-7-8-7zM506 115c0-4 3-7 7-7h254c4 0 7 3 7 7v11c0 4-3 7-7 7H514c-5 0-8-3-8-7v-11zm0 67c0-4 3-8 7-8h254c4 0 7 4 7 8v10c0 4-3 7-7 7H514c-5 0-8-3-8-7v-10zm0 62c0-4 3-8 7-8h254c4 0 7 3 7 8v10c0 4-3 7-7 7H514c-5 0-8-3-8-7v-10zM400 789c0 4-4 7-8 7h-26c-4 0-7-3-7-7V465c0-4 3-7 7-7h26c5 0 8 3 8 7v324zm148 3c0 4-4 7-8 7h-66c-4 0-7-3-7-7v-65c0-4 3-8 7-8h66c4 0 8 3 8 8v65zm0-133c0 4-4 8-8 8h-66c-4 0-7-3-7-8v-65c0-4 3-7 7-7h66c4 0 8 3 8 7v65zm0-126c0 4-4 8-8 8h-66c-4 0-7-4-7-8v-65c0-4 3-7 7-7h66c4 0 8 3 8 7v65zm150 259c0 4-4 7-8 7h-66c-4 0-8-3-8-7v-65c0-4 4-8 8-8h66c4 0 8 3 8 8v65zm0-133c0 4-4 8-8 8h-66c-4 0-8-3-8-8v-65c0-4 4-7 8-7h66c4 0 8 3 8 7v65zm0-126c0 4-4 8-8 8h-66c-4 0-8-4-8-8v-65c0-4 4-7 8-7h66c4 0 8 3 8 7v65zm150 259c0 4-4 7-8 7h-66c-4 0-8-3-8-7v-65c0-4 4-8 8-8h66c4 0 8 3 8 8v65zm0-133c0 4-4 8-8 8h-66c-4 0-8-3-8-8v-65c0-4 4-7 8-7h66c4 0 8 3 8 7v65zm0-126c0 4-4 8-8 8h-66c-4 0-8-4-8-8v-65c0-4 4-7 8-7h66c4 0 8 3 8 7v65zm24-124c0 4-3 7-7 7H407c-4 0-7-3-7-7v-49c0-4 3-7 7-7h33c4 0 8 3 8 7v17c0 4 3 7 7 7h362c4 0 7-3 7-7v-17c0-4 4-7 8-7h33c4 0 7 3 7 7v49zM252 250H99c-10 0-18 8-18 19v650c0 10 8 19 18 19h153c11 0 19-9 19-19V269c0-11-8-19-19-19z"/></svg>