<svg width="64" height="64" viewBox="0 0 1000 1000" xmlns="http://www.w3.org/2000/svg"><path d="M486 834c-1-62 0-124 0-186 0-13-3-18-16-22-63-17-100-66-100-126 1-61 39-110 101-126 10-3 15-6 15-18 0-63-1-127 0-190 0-14-5-18-18-17H245c-74 0-148 1-222-1-19 0-23 6-23 24 1 37 2 75 0 112-1 18 6 22 22 22 36-2 72 0 108-1 13 0 17 4 17 17v357c0 14-5 17-17 17-38-1-75 0-113-1-13 0-17 5-17 17 1 42 1 83 0 124 0 16 8 16 19 16 149-1 299-1 449 0 14 0 18-4 18-18zm272-685H534c-14-1-19 3-19 17 1 62 1 124 0 186 0 13 4 19 19 23 57 14 98 68 98 126 0 57-42 111-99 125-14 3-18 8-18 21 1 62 1 124 0 185 0 15 4 20 20 20 37-1 75-2 112-1 111 0 222 0 332 1 16 0 22-3 21-20-1-39-1-78 0-117 1-17-6-20-21-20-35 1-70 0-105 1-15 0-21-3-21-19 1-118 1-236 0-355 0-15 7-17 19-17 36 1 72 0 108 0 14 1 20-2 20-18-1-40-1-80 0-119 0-16-4-20-19-20-75 1-149 1-223 1zM118 651V349c0-12-3-16-15-16-28 1-55 1-83 0-17-1-20 6-20 21 1 49 1 98 1 147s0 99-1 148c0 14 4 19 18 19 28-1 55-1 83 0 12 0 17-4 17-17zm781-318c-12 0-15 4-15 16v303c0 14 6 16 18 15 27 0 53-1 80 1 15 0 18-5 18-19-1-49 0-99 0-149 0-49-1-99 0-149 0-13-4-18-18-18-28 1-55 1-83 0zm-413 83c0-14-4-15-16-12-40 13-71 53-71 97 0 42 31 82 71 95 15 5 16-1 16-13-1-28 0-55 0-83v-84zm43 181c40-10 72-51 72-95 0-46-30-87-71-98-11-4-15-2-15 11 1 28 1 56 1 84v87c0 10 1 14 13 11z"/></svg>