<svg width="64" height="64" viewBox="0 0 1000 1000" xmlns="http://www.w3.org/2000/svg"><path d="M500 281c-121 0-219 98-219 219s98 219 219 219c120 0 219-98 219-219s-99-219-219-219zm-1 309c-50 0-89-40-89-91 0-50 40-89 90-89 51 0 90 40 90 91-1 50-41 89-91 89zm1-152c-35 0-62 27-62 61 0 35 27 63 61 63 35 0 63-27 63-61 0-35-27-63-62-63zM842 0H176c-44 0-79 36-79 80v840c0 44 35 80 79 80h647c44 0 80-36 80-80V61c0-34-27-61-61-61zm-7 556v364c0 7-5 12-12 12H176c-6 0-11-5-11-12V80c0-7 5-12 11-12h489c14 0 36 10 45 21l16 18c10 12 20 24 30 35 14 16 28 32 41 48l18 21c10 11 20 37 20 52v293z"/></svg>