<svg width="64" height="64" viewBox="0 0 1000 1000" xmlns="http://www.w3.org/2000/svg"><path d="M277 262c2 18 5 35 6 52 6 58 11 115 16 172 4 47 8 95 12 143 2 23 4 45 6 68 0 7 4 8 9 10 53 14 105 29 158 43 4 1 8 3 12 4h8c24-7 49-14 74-21 31-9 63-18 94-26 7-2 10-5 11-13 4-57 10-114 15-171 5-55 9-110 14-164 3-31 6-62 8-92 1-2 2-3 2-5v-12H277v12zm404 26c-2 19-3 37-5 55l-11 123c-4 48-8 96-13 145-1 18-3 36-4 55-1 6-2 10-9 11-44 12-89 25-133 37-4 1-8 1-12 0-44-12-88-25-132-36-7-2-9-6-9-12-4-40-7-79-11-119-4-49-9-97-13-146-3-38-6-75-10-113h362zM549 599c-16 4-32 9-48 13-4 1-8 1-12 0-15-4-29-8-44-12-8-1-10-6-10-12v-6l-3-27h-52c0 6 0 12 1 18 1 19 4 38 5 56 0 8 3 10 9 12 32 8 64 17 95 26 4 1 9 1 13 0l45-12c19-6 38-11 58-17l14-164H438c0-2-1-4-1-6 3-25 5-50 8-75 0-1 3-4 5-4 37 0 74 1 112 2 2 19 3 38 5 56h53c-3-38-6-76-10-114H405c-7 0-8 3-9 9-1 18-3 35-4 53-2 19-4 39-6 58-1 14-2 28-4 41-1 11-1 22-2 33h182c-2 22-4 43-6 65 0 5-3 6-7 7zM842 0H176c-44 0-79 36-79 80v840c0 44 35 80 79 80h647c44 0 80-36 80-80V61c0-34-27-61-61-61zm-7 556v364c0 7-5 12-12 12H176c-6 0-11-5-11-12V80c0-7 5-12 11-12h489c14 0 36 10 45 21l16 18c10 12 20 24 30 35 14 16 28 32 41 48l18 21c10 11 20 37 20 52v293z"/></svg>