<svg width="64" height="64" viewBox="0 0 1000 1000" xmlns="http://www.w3.org/2000/svg"><path d="M713 602c1-15 1-30 2-45l3-59 2-48 2-59 2-35c0-16 1-32 2-48 0-4 0-9 1-13v-2c0-1-1 0-1-1-2 1-5 1-7 1-18 2-37 3-56 5l-55 4-47 3-47 4-47 3-30 3c-2 0-2 0-2 2l-2 46c-1 15-1 29-2 43l-2 55-2 43-2 55c0 10 0 20-1 30 0 1 0 1-2 1-11-6-24-8-36-8-24 1-45 8-62 25-8 8-14 17-16 28 0 1 0 2-1 3v10c1 3 2 7 3 10 3 12 11 21 21 28 12 8 26 13 41 13 0 0 1 0 1 1h7c1-1 1-1 2-1 4 0 9 0 13-1 19-4 35-13 47-27 7-8 12-18 13-29 1-8 1-16 2-24 0-13 1-26 1-40l2-52c1-13 2-27 2-40 1-19 2-39 3-58l1-34c0-2 1-2 2-2 7-1 14-2 22-3l26-2c11-1 21-2 32-3l27-3c10-1 21-2 32-3l26-3c11-1 21-2 32-3l27-3c2 0 3 0 3 2-1 10-2 20-2 30l-2 35c-1 12-1 23-2 34-1 12-1 24-2 36l-2 44c-1 5-1 10-1 15l-2-1c-11-6-23-9-35-9-7 0-15 1-22 2-20 4-36 13-48 29-13 16-16 35-6 54 6 12 16 19 28 25 14 7 29 9 44 7 18-2 34-8 48-19 9-8 16-16 19-27 3-8 3-16 3-24zm-414-63c6-1 10-6 8-12-1-6-6-9-12-8-7 1-14 3-21 6-15 7-26 19-30 34 0 3-1 6 0 8 5 11 17 9 20 1 6-17 17-27 35-29zm449 108c-8-1-11 3-13 10-3 15-12 24-26 28-13 4-18 16-5 22 2 1 6 1 8 0 4-2 7-3 10-5 18-8 30-21 33-41 2-7 0-13-7-14zm-378-92c-2-8-8-10-16-8-5 1-11 2-16 3-35 10-58 33-68 68-3 9 1 15 7 15 8 0 11-4 12-9 3-11 8-20 15-29 14-17 32-26 53-28 8-1 14-4 13-12zM842 0H176c-44 0-79 36-79 80v840c0 44 35 80 79 80h647c44 0 80-36 80-80V61c0-34-27-61-61-61zm-7 556v364c0 7-5 12-12 12H176c-6 0-11-5-11-12V80c0-7 5-12 11-12h489c14 0 36 10 45 21l16 18c10 12 20 24 30 35 14 16 28 32 41 48l18 21c10 11 20 37 20 52v293z"/></svg>