<svg width="64" height="64" viewBox="0 0 1000 1000" xmlns="http://www.w3.org/2000/svg"><path d="M705 469v-50c0-3-3-6-7-6H435c-4 0-7-1-7-1s3-1 7-2l264-69c4-1 6-4 5-8-6-18-11-37-16-55-1-4-3-6-4-6-2 0-2 1-3 1l-150 39-233 60c-3 1-4 2-4 6v343c0 4 3 7 7 7h398c3 0 7-3 7-7V483c0-4 0-7-1-7v-7zM598 309l57-15c4-1 7 1 9 5 2 9 5 18 7 28 1 3-1 7-5 8-7 2-14 4-21 5-9 3-17 5-25 7-2 0-4 0-5-1-7-10-13-20-20-30-2-3-1-6 3-7zm-99 26l21-6c8-2 16-4 25-6 1 0 4 0 5 1 6 10 13 20 20 30 2 3 1 6-3 7-14 4-29 8-43 11-4 1-8 0-11-4-5-8-12-17-17-26-3-3-1-6 3-7zM345 441c-12 0-22-10-22-21 0-12 10-22 23-22 12 0 22 11 22 22-1 11-11 21-23 21zm48-78s3-1 7-2c15-4 31-8 46-12 2 0 4 0 4 1 7 10 14 19 21 29 2 4 1 7-3 8-9 2-17 4-26 7-7 1-14 3-21 5-1 0-4 0-4-1-8-11-16-23-24-34v-1zm6 100l5-15c2-6 4-12 7-18 0-2 2-3 3-3h49c4 0 6 3 5 6-3 10-7 20-10 30-1 3-6 6-9 6h-45c-4 0-6-3-5-6zm151 140c-32 16-62 31-93 47-5 3-11-1-11-6v-95c0-6 6-9 11-7 31 16 61 32 93 48 5 3 5 10 0 13zm22-173l-12 36c-1 2-1 3-4 3h-55c-1 0 0-3 1-7 3-7 5-14 8-21 1-5 2-11 6-14 3-2 10 0 15 0h35c4 0 7 0 7 1-1 1-1 2-1 2zm104 32c0 4-3 7-7 7h-59c-4 0-6-3-5-6 4-10 7-20 10-30 2-3 6-6 10-6h44c4 0 7 3 7 7v28zM842 0H176c-44 0-79 36-79 80v840c0 44 35 80 79 80h647c44 0 80-36 80-80V61c0-34-27-61-61-61zm-7 556v364c0 7-5 12-12 12H176c-6 0-11-5-11-12V80c0-7 5-12 11-12h489c14 0 36 10 45 21l16 18c10 12 20 24 30 35 14 16 28 32 41 48l18 21c10 11 20 37 20 52v293z"/></svg>