<svg width="64" height="64" viewBox="0 0 1000 1000" xmlns="http://www.w3.org/2000/svg"><path d="M842 0H176c-44 0-79 36-79 80v840c0 44 35 80 79 80h647c44 0 80-36 80-80V61c0-34-27-61-61-61zm-7 556v364c0 7-5 12-12 12H176c-6 0-11-5-11-12V80c0-7 5-12 11-12h489c14 0 36 10 45 21l16 18c10 12 20 24 30 35 14 16 28 32 41 48l18 21c10 11 20 37 20 52v293zM579 327c-23-11-48-16-77-16H351v378h91V561h58c46 0 83-11 109-33 26-23 40-52 40-89 0-25-7-47-19-67-12-19-29-34-51-45zm-37 150c-9 9-22 13-40 13h-60V381h61c16 1 29 6 39 16s14 25 14 43c0 16-5 28-14 37z"/></svg>