<svg width="64" height="64" viewBox="0 0 1000 1000" xmlns="http://www.w3.org/2000/svg"><path d="M714 292c-6 2-13 6-19 7-24 1-40 15-52 33-10 16-9 32 1 48 10 15 24 22 41 20 20-1 33-12 39-30 8-27 7-53-7-78h-3zm-81 82c-4 10-8 17-11 25-1 3 0 7 2 8 15 10 29 18 44 26 4 2 11 0 14-3 8-7 13-16 21-27-33 8-55-1-70-29zm-52 124c-5 12-1 26 6 30 7 5 20 1 30-9v-1c15-20 30-40 46-61-10-5-19-7-28-13-8-4-16-11-25-17-10 24-21 47-29 71zm83-19c-15 18-30 36-46 54-8 10-19 15-32 11-12-4-17-14-20-26-3-14 1-27 7-40 16-35 32-70 47-105 1-3 0-10-3-11-16-11-31-25-48-32-85-36-205-14-263 77-34 52-44 110-27 170 16 57 55 95 107 120 39 19 75 12 105-20 14-15 26-33 37-50 9-15 20-20 37-20 34 3 63-7 84-35 23-30 27-65 23-104-4 5-6 8-8 11zm-290-55c21 0 36 15 36 36 0 20-15 36-36 36-20 0-35-16-35-36s14-35 35-36zm-20 166c-20 0-36-16-36-36 0-21 15-36 36-36 20 0 35 15 35 36 0 19-15 35-35 36zm71 72c-20 0-37-17-36-37 0-19 17-35 37-35 19 1 34 17 34 36 0 20-16 36-35 36zm29-229c-20 0-36-16-36-37 1-20 16-35 37-34 20 0 36 16 35 36-1 19-16 35-36 35zM842 0H176c-44 0-79 36-79 80v840c0 44 35 80 79 80h647c44 0 80-36 80-80V61c0-34-27-61-61-61zm-7 556v364c0 7-5 12-12 12H176c-6 0-11-5-11-12V80c0-7 5-12 11-12h489c14 0 36 10 45 21l16 18c10 12 20 24 30 35 14 16 28 32 41 48l18 21c10 11 20 37 20 52v293z"/></svg>