<svg width="64" height="64" viewBox="0 0 1000 1000" xmlns="http://www.w3.org/2000/svg"><path d="M735 246H265c-4 0-6 2-6 6v49c0 3 2 6 6 6h26c4 0 7 2 7 6v291c0 3 2 6 6 6h158c4 0 6 2 6 5v95c0 4-2 6-6 6h-40c-3 0-6 3-6 7v26c0 2 3 5 6 5h156c3 0 6-3 6-5v-26c0-4-3-7-6-7h-40c-4 0-6-2-6-6v-95c0-3 2-6 6-6h158c4 0 7-2 7-6V312c0-3 2-6 5-6h27c4 0 6-3 6-6v-48c0-4-3-6-6-6zM365 367c0-2 3-5 6-5h83c4 0 6 3 6 5v86c0 4-2 6-6 6h-83c-3 0-6-2-6-6v-86zm269 150c0 3-3 6-6 6H371c-3 0-6-3-6-6v-22c0-3 3-6 6-6h257c3 0 6 3 6 6v22zm0-64c0 4-3 6-6 6H501c-3 0-6-2-6-6v-21c0-3 3-6 6-6h127c3 0 6 3 6 6v21zm0-63c0 3-3 6-6 6H501c-3 0-6-3-6-6v-22c0-3 3-6 6-6h127c3 0 6 3 6 6v22zM842 0H176c-44 0-79 36-79 80v840c0 44 35 80 79 80h647c44 0 80-36 80-80V61c0-34-27-61-61-61zm-7 556v364c0 7-5 12-12 12H176c-6 0-11-5-11-12V80c0-7 5-12 11-12h489c14 0 36 10 45 21l16 18c10 12 20 24 30 35 14 16 28 32 41 48l18 21c10 11 20 37 20 52v293z"/></svg>