<svg width="64" height="64" viewBox="0 0 1000 1000" xmlns="http://www.w3.org/2000/svg"><path d="M594 457c-1-4-5-4-8-1L455 592c-3 3-2 6 1 8 84 36 167 72 252 109 4 1 5 0 4-4-40-84-79-166-118-248zM442 614c-3-1-8 0-11 3-35 36-69 72-105 109-3 3-2 5 2 5 125 0 249-1 372-1 4 0 7 0 7-1 0 0-3-2-6-3L442 614zm278-290c0-4-1-6-3-4l-3 3c-35 36-69 72-104 107-4 5-4 8-2 13 35 73 69 145 103 218 6 12 12 24 18 37 2 3 3 6 3 6 1 0 1-4 1-7-5-124-9-248-13-373zm-312 85c-4 0-6 2-6 6l36 159c0 4 3 4 6 2 42-44 83-87 126-131 2-3 1-5-2-6-54-10-107-20-160-30zm3 192c-47-20-92-40-139-60-4-2-6 0-5 4 12 56 25 112 37 168 1 3 4 4 6 1l102-106c3-2 2-6-1-7zm182-190c2 4 5 4 8 2 34-36 68-71 102-106 3-3 2-6-2-7-56-10-112-20-169-31-3 0-5 2-4 5 23 47 44 92 65 137zm-22 9c4 1 5-1 4-4-22-46-43-91-65-136-1-4-5-4-7-1-34 35-67 69-101 104-3 3-2 6 2 7 56 10 111 20 167 30zM414 582c4 1 6-1 5-4-12-56-24-111-36-167-1-3-4-4-7-1-34 35-67 69-101 104-2 3-2 7 2 8 45 20 91 40 137 60zM842 0H176c-44 0-79 36-79 80v840c0 44 35 80 79 80h647c44 0 80-36 80-80V61c0-34-27-61-61-61zm-7 556v364c0 7-5 12-12 12H176c-6 0-11-5-11-12V80c0-7 5-12 11-12h489c14 0 36 10 45 21l16 18c10 12 20 24 30 35 14 16 28 32 41 48l18 21c10 11 20 37 20 52v293z"/></svg>