<svg width="64" height="64" viewBox="0 0 1000 1000" xmlns="http://www.w3.org/2000/svg"><path d="M313 573c-14-36-18-74-10-113 15-83 84-148 168-160 3 0 5-1 5-5-1-11-1-23-1-34s0-11-10-9c-59 8-109 34-149 78-28 30-47 65-58 104-4 17-17 78 6 147 2 5 4 11 6 16 2 4 3 5 7 3 11-7 22-14 34-20 3-2 4-3 2-7zm363-250c-12-12-59-54-129-69l-18-3c-4-1-5 0-5 5v39c0 3 0 5 4 6 39 5 73 21 103 47 64 55 86 148 54 226-2 3-1 5 2 7 10 5 20 11 30 17 9 5 9 5 13-4 22-55 25-112 8-168-12-40-33-74-62-103zm-12 300c-3-2-5-2-8 1-24 31-55 53-92 66-80 27-171 0-223-67-2-3-3-4-7-2-9 6-20 11-30 17-9 5-9 5-2 13 36 48 83 78 141 92 41 9 81 8 120-2 17-5 76-24 124-77 4-4 8-9 12-14 3-3 3-5-1-7-12-6-23-13-34-20zM342 499c0 91 76 156 158 155 80 1 157-63 157-155 0-91-75-154-155-156-83-1-160 64-160 156zm113-81c45 28 90 55 135 83-45 27-89 55-135 83V418zM842 0H176c-44 0-79 36-79 80v840c0 44 35 80 79 80h647c44 0 80-36 80-80V61c0-34-27-61-61-61zm-7 556v364c0 7-5 12-12 12H176c-6 0-11-5-11-12V80c0-7 5-12 11-12h489c14 0 36 10 45 21l16 18c10 12 20 24 30 35 14 16 28 32 41 48l18 21c10 11 20 37 20 52v293z"/></svg>