<svg width="64" height="64" viewBox="0 0 1000 1000" xmlns="http://www.w3.org/2000/svg"><path d="M495 465v-92c0-12-7-17-18-11-38 21-76 43-115 64-3 2-4 4-4 8v133c0 3 0 4 2 5 40 21 79 42 118 63 9 6 17 1 17-10v-90c0-3 0-5 2-8 14-15 14-38 1-53-3-3-3-6-3-9zm160-142c-2-2-3-3-5-1-8 9-17 18-26 27-2 1-2 2 0 4 6 4 11 9 15 14 45 46 63 101 53 164-7 47-30 85-66 116-3 2-3 3-1 5 9 8 17 16 26 25 2 3 3 2 5 0 10-8 20-18 28-28 35-43 53-93 54-149 0-30-6-60-18-89-15-35-36-64-65-88zm6 148c-7-39-26-71-56-97-3-2-4-2-7 0-8 8-16 17-24 24-2 3-3 4 1 7 38 31 52 72 44 120-6 28-21 52-44 70-3 2-3 4 0 6 8 8 16 15 23 23 3 4 6 4 9 1 37-34 56-75 57-125 0-10-1-19-3-29zm-327-39h-52c-12 0-20 8-20 21v95c0 11 8 20 20 20h52c4 0 5-1 5-4-1-21-1-42-1-64 0-21 0-42 1-64 0-3-1-4-5-4zm218-5c-2-2-3-3-6-1-9 10-18 18-27 27-2 2-1 3 1 4 34 20 33 67 1 86-3 1-2 2 0 4 8 9 17 17 25 26 3 2 4 2 7 0 23-19 34-43 35-73 0-29-12-54-36-73zM842 0H176c-44 0-79 36-79 80v840c0 44 35 80 79 80h647c44 0 80-36 80-80V61c0-34-27-61-61-61zm-7 556v364c0 7-5 12-12 12H176c-6 0-11-5-11-12V80c0-7 5-12 11-12h489c14 0 36 10 45 21l16 18c10 12 20 24 30 35 14 16 28 32 41 48l18 21c10 11 20 37 20 52v293z"/></svg>