<svg width="64" height="64" viewBox="0 0 1000 1000" xmlns="http://www.w3.org/2000/svg"><path d="M255 724h490V276H255v448zm337-416h120v71H592v-71zm0 104h120v71H592v-71zM440 308h120v71H440v-71zm0 104h120v71H440v-71zm0 104h272v176h-18V570h-66v122h-19v-87h-66v87h-19v-53h-66v53h-18V516zM287 308h120v71H287v-71zm0 104h120v71H287v-71zm0 104h120v72H287v-72zm0 104h120v72H287v-72zM842 0H176c-44 0-79 36-79 80v840c0 44 35 80 79 80h647c44 0 80-36 80-80V61c0-34-27-61-61-61zm-7 556v364c0 7-5 12-12 12H176c-6 0-11-5-11-12V80c0-7 5-12 11-12h489c14 0 36 10 45 21l16 18c10 12 20 24 30 35 14 16 28 32 41 48l18 21c10 11 20 37 20 52v293z"/></svg>