<svg width="64" height="64" viewBox="0 0 1000 1000" xmlns="http://www.w3.org/2000/svg"><path d="M380 462c69 1 139 1 208 1 6 0 7-1 5-7-3-15-16-24-33-24-31-1-63 0-95 0-60 0-121 0-182-1-11 0-21 4-28 14-3 3-5 7-5 11v230c5 15 16 22 32 22h281c17 0 31-13 31-30V498c0-4-1-5-6-5H379c-3 0-5-1-4-5v-20c-1-5 1-6 5-6zm108 78c33 0 61 27 62 58 2 36-27 63-60 64-36 1-63-27-64-58-2-34 26-64 62-64zM343 647c-17 0-31-14-31-31 1-17 15-31 32-31 17 1 31 15 30 31 0 17-14 31-31 31zm383-228l-2 1c-25 18-50 36-74 55-16 12-25 29-25 49v90c0 22 9 39 27 53 23 18 47 35 71 53 3 2 6 4 9 5 8 2 14 1 17-6 0-1 1-2 1-4V425c0-11-13-14-24-6zm-233-19c34-1 63-29 62-66-1-32-30-60-64-60-38 0-66 31-65 66 2 32 30 62 67 60zm-155 0c27-1 51-23 50-52-1-26-24-48-52-48-29 0-52 24-51 52 1 26 24 49 53 48zM842 0H176c-44 0-79 36-79 80v840c0 44 35 80 79 80h647c44 0 80-36 80-80V61c0-34-27-61-61-61zm-7 556v364c0 7-5 12-12 12H176c-6 0-11-5-11-12V80c0-7 5-12 11-12h489c14 0 36 10 45 21l16 18c10 12 20 24 30 35 14 16 28 32 41 48l18 21c10 11 20 37 20 52v293z"/></svg>