<svg width="64" height="64" viewBox="0 0 1000 1000" xmlns="http://www.w3.org/2000/svg"><path d="M311 363h378c24 0 44-20 44-45 0-26-20-46-44-46H311c-24 0-44 20-44 46 0 25 20 45 44 45zm378 89H311c-25 0-45 20-45 45s20 46 45 46h378c24 0 44-21 44-46s-20-45-44-45zm-1 187H311c-24 0-44 20-44 44s20 45 44 45h377c25 0 45-20 45-45s-20-44-45-44zM842 0H176c-44 0-79 36-79 80v840c0 44 35 80 79 80h647c44 0 80-36 80-80V61c0-34-27-61-61-61zm-7 556v364c0 7-5 12-12 12H176c-6 0-11-5-11-12V80c0-7 5-12 11-12h489c14 0 36 10 45 21l16 18c10 12 20 24 30 35 14 16 28 32 41 48l18 21c10 11 20 37 20 52v293z"/></svg>