<svg width="64" height="64" viewBox="0 0 1000 1000" xmlns="http://www.w3.org/2000/svg"><path d="M623 278h-95v22h-22v22h22v22h-22v22h22v22h-22v22h22v22h-22v23h22v22h-22v22h22v22h-22v44c24 7 44 29 44 56 0 31-25 55-55 55-32 0-56-24-56-55 0-29 20-51 44-56v-22h-22v-22h22v-22h-22v-22h22v-22h-22v-23h22v-22h-22v-22h22v-22h-22v-22h22v-22h-22v-22h22v-22H376c-55 0-99 44-99 99v246c0 55 44 99 99 99h247c55 0 100-44 100-99V377c0-55-45-99-100-99zM476 593c-2 2-4 3-5 5-1 1-3 2-4 4v1c-2 1-3 3-3 5-1 2-2 4-2 6-1 2-1 5-1 7s0 4 1 6v2c0 1 1 3 2 4 0 2 1 4 3 6 1 2 2 3 4 4 3 4 7 7 11 8 2 1 4 2 5 2h1c2 1 4 1 6 1s5 0 7-1h1c1 0 3-1 4-2 5-1 9-4 12-8l4-4 3-6c2-4 3-8 3-12 0-3 0-5-1-7 0-2-1-4-2-6s-2-3-3-5v-1l-4-4c-2-2-3-3-5-4s-3-2-4-3c-2-1-3-1-5-2-1 0-3-1-5-1h-10c-2 0-3 1-4 1-2 1-3 1-5 2-1 1-3 1-4 2zM842 0H176c-44 0-79 36-79 80v840c0 44 35 80 79 80h647c44 0 80-36 80-80V61c0-34-27-61-61-61zm-7 556v364c0 7-5 12-12 12H176c-6 0-11-5-11-12V80c0-7 5-12 11-12h489c14 0 36 10 45 21l16 18c10 12 20 24 30 35 14 16 28 32 41 48l18 21c10 11 20 37 20 52v293z"/></svg>