<svg width="64" height="64" viewBox="0 0 1000 1000" xmlns="http://www.w3.org/2000/svg"><path d="M369 586c51 19 104 21 157 9 46-10 87-30 117-67 31-37 39-79 18-124-14-30-37-51-65-67-41-24-86-34-140-34-19-1-43 3-68 9-42 12-79 32-108 66-34 42-36 95-6 139 23 34 56 56 95 69zm144-28c-13 14-31 19-50 20-19-1-36-5-50-19-15-15-15-36 1-51 24-24 75-23 99 1 14 15 14 34 0 49zm-66-106c0-6 7-11 16-11 8 1 15 5 15 11 0 7-7 12-16 12-8-1-15-6-15-12zm177-27c17 15 18 37 2 53-13 13-31 18-49 18-17 0-32-4-45-14-22-16-22-42 0-59 25-20 68-19 92 2zm-204-85c23-17 63-17 86 1 24 17 23 46-2 62-12 8-26 12-42 12-14 0-28-4-40-11-26-17-27-46-2-64zm-117 84c25-21 71-20 94 2 18 17 17 41-3 56-13 10-28 14-45 14-16 0-31-4-44-13-22-17-23-42-2-59zm432 150c-22-3-44-2-66 2-37 6-73 13-110 21-27 6-53 13-81 15-45 1-88-5-129-23-31-14-59-33-79-61-6-8-11-17-17-26v41c-1 15 2 30 7 44 13 33 37 57 67 75 65 37 134 43 207 26 12-3 25-9 38-12 22-5 45-10 68-13 26-4 53-6 80-4 9 0 17 1 27 2v-74c0-12 0-12-12-13zm-143 7c2 1 3 1 4 0l69-12c5 0 6-2 6-7 1-12 1-25 1-37 1-8 0-15 0-23-17 36-46 60-80 79zM842 0H176c-44 0-79 36-79 80v840c0 44 35 80 79 80h647c44 0 80-36 80-80V61c0-34-27-61-61-61zm-7 556v364c0 7-5 12-12 12H176c-6 0-11-5-11-12V80c0-7 5-12 11-12h489c14 0 36 10 45 21l16 18c10 12 20 24 30 35 14 16 28 32 41 48l18 21c10 11 20 37 20 52v293z"/></svg>