<svg width="64" height="64" viewBox="0 0 1000 1000" xmlns="http://www.w3.org/2000/svg"><path d="M278 260c2 18 4 35 6 52l15 171c4 48 8 96 12 143 2 23 5 46 6 69 1 6 5 7 9 9 53 14 105 29 158 43 4 2 8 3 12 5h8c24-8 49-15 74-22 31-9 62-17 94-26 7-2 10-5 10-12 5-57 11-114 16-171 4-55 9-110 14-164 3-31 5-62 8-92 0-2 1-3 2-5v-12H278v12zm403 26c-2 19-3 37-5 55l-11 122c-4 49-9 97-13 145-2 18-4 37-5 55 0 6-2 10-8 12-45 12-89 24-134 36-3 1-7 1-11 0l-132-36c-7-2-9-6-9-12-4-39-7-79-11-118-4-49-8-98-13-147-3-37-6-74-10-112h362zM568 509c-2 23-4 45-6 66-1 3-3 6-6 7-17 5-35 10-53 14-3 1-6 1-9 0-17-4-33-9-49-13-6-2-8-4-8-10-1-9-1-19-2-29-1-3-3-7-5-7h-52c2 28 5 55 8 82 0 3 3 6 6 7 34 10 68 19 102 28 4 1 8 1 11 0 34-9 67-19 101-27 6-2 8-5 8-11 4-41 8-82 11-123 1-13 3-26 4-40H427c-2-18-4-36-5-56h198c3 0 6 1 8 0 3-1 6-3 6-6 2-16 3-32 5-49H360c5 56 10 111 15 168 65-1 128-1 193-1zM842 0H176c-44 0-79 36-79 80v840c0 44 35 80 79 80h647c44 0 80-36 80-80V61c0-34-27-61-61-61zm-7 556v364c0 7-5 12-12 12H176c-6 0-11-5-11-12V80c0-7 5-12 11-12h489c14 0 36 10 45 21l16 18c10 12 20 24 30 35 14 16 28 32 41 48l18 21c10 11 20 37 20 52v293z"/></svg>