<svg width="64" height="64" viewBox="0 0 1000 1000" xmlns="http://www.w3.org/2000/svg"><path d="M715 274H285c-6 0-11 5-11 11v430c0 6 5 11 11 11h430c6 0 11-5 11-11V285c0-6-5-11-11-11zm-148 31c0-7 5-12 11-12h24c6 0 11 5 11 12v40c0 6-5 11-11 11h-24c-6 0-11-5-11-11v-40zm-90-1c0-6 5-11 11-11h24c6 0 11 5 11 11v42c0 6-5 11-11 11h-24c-6 0-11-5-11-11v-42zm-89 0c0-6 5-11 11-11h25c6 0 11 5 11 11v41c0 6-5 11-11 11h-25c-6 0-11-5-11-11v-41zm-95 0c0-6 5-11 12-11h29c6 0 11 5 11 11v41c0 6-5 11-11 11h-29c-7 0-12-5-12-11v-41zm52 391c0 7-5 12-11 12h-30c-6 0-11-5-11-12v-40c0-6 5-11 11-11h30c6 0 11 5 11 11v40zm90 0c0 6-5 11-12 11h-24c-6 0-11-5-11-11v-40c0-7 5-12 11-12h24c7 0 12 5 12 12v40zm88 1c0 6-5 11-11 11h-24c-6 0-11-5-11-11v-41c0-7 5-12 11-12h24c6 0 11 5 11 12v41zm90-1c0 6-5 11-11 11h-24c-6 0-11-5-11-11v-40c0-7 5-12 11-12h24c6 0 11 5 11 12v40zm93 1c0 6-5 11-11 11h-28c-6 0-11-5-11-11v-41c0-6 5-11 11-11h28c6 0 11 5 11 11v41zm0-84c0 7-5 12-11 12H304c-6 0-11-5-11-12V387c0-6 5-11 11-11h391c6 0 11 5 11 11v225zm0-267c0 6-5 11-11 11h-27c-6 0-11-5-11-11v-41c0-6 5-11 11-11h27c6 0 11 5 11 11v41zM472 445c-5-3-12 1-12 7v106c0 6 7 9 12 7 33-18 66-35 99-53 6-3 6-11 0-14-34-18-66-35-99-53zM842 0H176c-44 0-79 36-79 80v840c0 44 35 80 79 80h647c44 0 80-36 80-80V61c0-34-27-61-61-61zm-7 556v364c0 7-5 12-12 12H176c-6 0-11-5-11-12V80c0-7 5-12 11-12h489c14 0 36 10 45 21l16 18c10 12 20 24 30 35 14 16 28 32 41 48l18 21c10 11 20 37 20 52v293z"/></svg>