<svg width="64" height="64" viewBox="0 0 1000 1000" xmlns="http://www.w3.org/2000/svg"><path d="M827 210C772 154 717 98 660 45c-13-13-28-25-45-34-14-7-28-11-44-11H273c-81 0-142 52-156 132-1 2-2 3-2 5v726c4 5 2 11 4 17 15 62 63 108 127 118 2 0 4 1 6 2h495c16-5 32-7 47-14 49-24 79-63 88-117 1-2 0-5 3-6V301c-8-38-33-65-58-91zm-19 151c-1 159-1 318-1 478 0 34-12 60-43 76-13 7-26 8-41 8H275c-51 0-83-32-83-84V499 159c0-33 14-59 44-74 12-7 25-8 38-8h267c15 0 25 6 30 21 5 11 5 23 5 36 1 42 1 85 1 128 0 31 14 45 45 45l127 1h9c48 4 50 21 50 53zm-92 103H283c-11 0-15 1-14 4 0 10 1 19 0 29-1 5 4 5 17 5h430c11 0 14 0 14-4-1-10-1-20 0-30 0-3-4-4-14-4zm-438-45h236c6 0 8-1 8-8v-51c0-7-2-8-8-8H276c-6 0-8 1-7 8 0 16 0 33-1 49 0 9 3 10 10 10zm438 111H283c-11 0-15 1-14 5 0 9 1 19 0 28-1 5 4 6 17 6h430c11 0 14-1 14-5-1-10-1-19 0-29 0-4-4-5-14-5zm0 69H283c-11 0-15 1-14 5 0 9 1 19 0 28-1 5 4 6 17 6 71-1 142 0 213 0 72 0 145-1 217 0 11 0 14-1 14-5-1-10-1-20 0-29 0-4-4-5-14-5zm-128 99H338c-7 0-9 1-9 4 1 10 1 19 0 29 0 5 3 5 11 5h248c6 0 8 0 8-4v-30c0-3-2-4-8-4zm-283 0h-35c-1 0-1 1-1 4v29c0 5 0 5 1 5h35s1 0 1-4v-30c0-3-1-4-1-4zm283 73H338c-7 0-9 1-9 5 1 9 1 18 0 28 0 5 3 6 11 6 41-1 81-1 122-1 42 0 84 0 126 1 6 0 8-1 8-5v-30c0-3-2-4-8-4zm-283 0h-35c-1 0-1 1-1 5v28c0 5 0 6 1 6 6-1 11-1 17-1s12 0 18 1c0 0 1-1 1-5v-30c0-3-1-4-1-4z"/></svg>