<svg width="64" height="64" viewBox="0 0 1000 1000" xmlns="http://www.w3.org/2000/svg"><path d="M485 533l17 13-10-19c-1 0-32-61-31-105 0-15 22-32 45-50 20-17 44-36 58-58 30-48-4-96-4-97l-13-18 5 22s6 32-12 65c-7 13-24 25-43 38-28 19-59 40-75 76-29 62 59 130 63 133zm-37 64h28c103-4 141-35 142-37l16-13-20 5c-24 7-63 10-100 12l14-9c2-2 46-32 38-69-3-14-10-25-16-34-10-14-17-24-6-43 12-22 68-63 68-64l27-20-31 12c-5 2-114 43-114 94 0 34 15 53 26 66 4 5 8 10 9 14 3 11-5 31-8 38l-8 15c-18 1-35 1-50 1-53 0-80-3-86-6 3-5 24-13 50-18l-1-9c-15 0-91 1-99 24-1 6-1 11 3 16 12 17 54 25 118 25zm224-73c-21 0-41 10-42 11l-17 9h19c1 0 46 0 50 25 4 22-42 58-61 69l-21 14 25-5c4-1 105-23 94-81-6-35-29-42-47-42zm-62 109l-35-24h-2s-25 7-62 11c-14 2-31 2-47 2-37 0-61-4-64-7-1-1 0-1 0-2s4-3 6-4l-3-9c-24 5-36 13-35 23 2 18 44 28 79 30h17c59 0 135-18 136-18l10-2zm-174 28h-17c-3 0-32 2-34 19 0 6 1 10 5 15 10 12 37 19 84 22h17c59 0 99-18 100-19l8-4-39-24-2 1s-20 4-49 8c-5 0-12 1-20 1-30 0-62-5-68-8 0-1 0-1 1-2l14-9zm249 72c5-5 6-10 5-13-1-8-8-13-9-14l-28-18 22 25c0 1 2 3-1 6-6 5-62 20-157 25-13 1-26 1-40 1-87 0-149-12-154-17 1-5 24-12 48-16l-1-10c-1 0-3 0-5 1-39 2-83 7-85 26-1 6 1 12 5 16 10 12 40 27 178 27 136 0 208-24 222-39zm-60 39c-24 5-68 7-131 7-64 0-124-2-125-2l-1 9c1 0 64 15 150 15 42 0 82-3 120-10 72-12 76-47 77-49l1-14-9 11c-1 0-21 21-82 33zM842 0H176c-44 0-79 36-79 80v840c0 44 35 80 79 80h647c44 0 80-36 80-80V61c0-34-27-61-61-61zm-7 556v364c0 7-5 12-12 12H176c-6 0-11-5-11-12V80c0-7 5-12 11-12h489c14 0 36 10 45 21l16 18c10 12 20 24 30 35 14 16 28 32 41 48l18 21c10 11 20 37 20 52v293z"/></svg>