<svg width="64" height="64" viewBox="0 0 1000 1000" xmlns="http://www.w3.org/2000/svg"><path d="M842 0H176c-44 0-79 36-79 80v840c0 44 35 80 79 80h647c44 0 80-36 80-80V61c0-34-27-61-61-61zm-7 556v364c0 7-5 12-12 12H176c-6 0-11-5-11-12V80c0-7 5-12 11-12h489c14 0 36 10 45 21l16 18c10 12 20 24 30 35 14 16 28 32 41 48l18 21c10 11 20 37 20 52v293zm-295 21c-2-1-2-2-2-4v-16c0-2 1-3 2-4 3-2 7-4 11-6 7-5 15-9 23-14-3-9-6-17-9-26-1-3-2-3-5-3-12 1-23 2-35 4-2 0-3-1-5-3l-9-12c-1-2-2-3-1-5 2-3 4-7 5-11 4-8 7-16 11-25-8-5-16-11-23-16-2-1-3-1-5 1l-27 23c-1 2-3 2-5 1-5-2-10-3-15-5-2 0-3-1-4-4-2-12-5-24-8-37h-31c-3 13-6 25-9 37 0 3-1 4-3 4-5 2-11 3-15 5-3 1-4 0-6-1l-27-24s-3-1-3 0c-8 5-16 11-24 16 5 13 10 24 15 36 1 2 1 3 0 5-3 3-6 7-8 11-2 3-5 4-9 3l-33-3c-2 0-3 1-4 1-3 10-6 19-9 28 1 1 2 1 3 2 10 6 21 12 31 17 2 2 2 3 2 5v15c1 3 0 4-2 5-10 6-20 12-30 17-1 1-3 2-4 3 3 8 6 17 9 25 1 3 2 4 5 3 12-1 23-2 35-3 2 0 3 0 5 2 2 4 5 8 8 12 2 2 2 4 1 6-5 12-10 23-15 35 8 5 16 11 24 16 1 1 3 0 4 0l27-24c1-1 3-1 5-1 5 2 9 4 14 5 3 1 4 2 5 4 2 12 5 25 8 37h31c3-13 6-25 9-37 0-2 1-3 4-4 5-1 10-3 14-5 3 0 4 0 6 1l27 24c0 1 2 1 3 1 8-6 16-11 24-17-5-12-10-24-16-35-1-3 0-4 1-6 3-3 6-7 8-10 2-4 5-4 9-4l33 3c1 0 3-1 4-2 3-9 6-17 9-26-2-2-3-2-4-3-10-5-20-11-30-17zm-119 37c-27-1-49-24-48-50 1-28 24-49 53-48 26 0 48 24 48 50-1 28-24 49-53 48zm181-158c2 8 3 16 5 24h21c2-8 4-16 5-24 1-2 1-2 3-3 3-1 6-2 10-3 1 0 2 0 3 1l18 15c0 1 1 1 2 1 5-4 11-8 16-11-4-8-7-16-10-23-1-2-1-2 0-4 2-2 4-4 5-7 2-2 3-2 6-2 7 1 15 1 22 2 1 0 2-1 2-1l6-18c-1 0-2-1-2-1-7-4-13-8-20-12-1 0-2-1-2-2v-11c1-1 1-2 2-2 2-2 5-3 7-4l15-9c-2-6-4-11-6-17 0-2-1-2-3-2-8 1-15 1-23 2-1 0-2 0-3-1l-6-9c-1-1-1-1 0-2 1-3 2-5 3-8 2-5 5-10 7-16-5-3-10-7-15-10-2-1-2-1-3 0l-18 15c-1 1-2 1-3 1-3-1-7-2-10-3-1-1-2-1-2-3l-6-24h-20c-2 9-4 17-6 24 0 2-1 3-2 3-4 1-7 2-10 3-1 0-2 0-3-1l-18-15c-1 0-2-1-3 0-5 3-10 7-15 10 3 8 7 16 10 23 1 2 0 3 0 4-2 2-4 4-6 7-1 2-3 2-5 2-7-1-15-2-22-2-1 0-2 0-2 1-2 6-5 12-7 18 2 0 2 1 3 1l20 11c1 1 1 2 1 3v10c0 2 0 3-1 3-7 4-13 8-20 12-1 0-1 1-3 1 2 6 4 11 6 17 1 2 2 2 4 2 7-1 15-2 22-2 2-1 3 0 3 1 2 3 4 5 6 8 1 1 1 2 1 4-4 7-7 15-11 23 6 3 11 7 16 11 1 0 2 0 3-1 6-5 11-10 17-15 1-1 2-1 4-1l9 3c2 1 3 1 3 3zm-17-74c1-18 15-32 34-31 18 0 32 15 31 33 0 18-15 31-34 31-17-1-32-16-31-33zm126 183c2-1 4-2 5-3 4-2 7-4 11-6-1-4-3-8-4-11 0-2-1-2-3-2-5 1-10 1-15 2-1 0-2 0-3-1-1-2-2-4-4-6 0-1-1-1 0-2 1-2 1-3 2-5 2-4 3-7 5-11-4-3-7-5-11-8 0-1-1 0-2 0l-12 11c-1 1-1 1-2 0-2 0-5-1-7-2-1 0-1 0-2-1-1-6-2-12-3-17h-15c-1 5-2 11-4 17 0 1 0 1-1 1-3 1-5 2-7 2-1 1-2 1-3 0-4-4-8-7-12-11h-1c-4 3-8 5-11 8 2 5 4 10 7 16 0 1 0 1-1 2-1 2-2 3-3 5s-2 2-4 2c-5-1-10-1-15-2-1 0-2 0-2 1-1 4-3 8-4 12l1 1 14 8c1 1 1 1 1 2v7c1 1 0 2-1 2-4 3-9 6-13 8-1 0-1 1-2 1 1 4 3 8 4 12 0 1 1 1 2 1l16-1c1 0 2 0 2 1 2 2 3 3 4 5 1 1 1 2 1 3-3 5-5 10-7 16l11 7h1c4-4 9-7 13-11 0 0 1-1 2 0 2 1 4 1 7 2 1 0 1 1 2 2 1 5 2 11 3 17h15c1-6 2-12 3-17 1-1 1-2 2-2 2-1 5-1 7-2 1-1 2 0 2 0 4 4 8 7 13 11h1c4-2 7-5 11-7-2-6-5-11-7-17v-2c2-2 3-3 4-5s2-2 4-1c5 0 10 1 15 1 1 0 1 0 2-1 1-4 2-8 4-12-1-1-1-1-2-1-4-3-9-6-13-8-1-1-2-1-2-2 1-2 0-5 1-7-1-1 0-1 0-2zm-54 28c-12 0-22-11-21-23 0-13 10-22 24-22 12 1 22 11 21 23 0 13-11 22-24 22z"/></svg>