<svg width="64" height="64" viewBox="0 0 1000 1000" xmlns="http://www.w3.org/2000/svg"><path d="M110 95v810c0 18 15 33 33 33h714c18 0 33-15 33-33V95c0-18-15-33-33-33H143c-18 0-33 15-33 33zm98 775c-18 0-33-15-33-33v-1c0-18 15-33 33-33s32 15 32 33v1c0 18-14 33-32 33zm0-135c-18 0-33-14-33-32v-2c0-18 15-33 33-33s32 15 32 33v2c0 18-14 32-32 32zm0-134c-18 0-33-15-33-33v-2c0-18 15-33 33-33s32 15 32 33v2c0 18-14 33-32 33zm0-135c-18 0-33-14-33-33v-1c0-18 15-33 33-33s32 15 32 33v1c0 19-14 33-32 33zm0-134c-18 0-33-15-33-33v-2c0-18 15-33 33-33s32 15 32 33v2c0 18-14 33-32 33zm0-135c-18 0-33-15-33-33v-1c0-18 15-33 33-33s32 14 32 33v1c0 18-14 33-32 33zm454 673H338c-18 0-33-15-33-33V566c0-18 15-33 33-33h324c18 0 33 15 33 33v271c0 18-15 33-33 33zm0-404H338c-18 0-33-14-33-33V163c0-18 15-33 33-33h324c18 0 33 15 33 33v271c0 18-15 32-33 32zm130 404c-18 0-32-15-32-33v-1c0-18 14-33 32-33s33 15 33 33v1c0 18-15 33-33 33zm0-135c-18 0-32-14-32-32v-2c0-18 14-33 32-33s33 15 33 33v2c0 18-15 32-33 32zm0-134c-18 0-32-15-32-33v-2c0-18 14-33 32-33s33 15 33 33v2c0 18-15 33-33 33zm0-135c-18 0-32-14-32-33v-1c0-18 14-33 32-33s33 15 33 33v1c0 19-15 33-33 33zm0-134c-18 0-32-15-32-33v-2c0-18 14-33 32-33s33 15 33 33v2c0 18-15 33-33 33zm0-135c-18 0-32-15-32-33v-1c0-18 14-33 32-33s33 14 33 33v1c0 18-15 33-33 33z"/></svg>