<svg width="64" height="64" viewBox="0 0 1000 1000" xmlns="http://www.w3.org/2000/svg"><path d="M531 0c18 4 36 4 53 8 123 23 221 84 297 183 46 61 75 130 86 206 10 64 9 130 7 195-1 56-8 112-18 168-4 25-25 41-49 37-24-5-38-26-33-52 18-98 19-197 14-297-2-49-13-96-35-141-59-119-154-194-285-216-153-27-278 27-376 145-13 14-27 22-46 17-30-7-42-42-22-68 29-36 61-67 98-94 68-49 144-79 227-89 5 0 11 1 16-2h66zm273 523c2 112-12 221-49 327-12 32-25 63-40 93-11 23-35 31-57 21s-29-35-18-58c34-68 57-140 69-215 10-57 12-115 11-173-1-32 1-65-7-97-23-86-79-139-164-161-50-12-98-5-144 16-24 12-49 4-59-19-10-22-1-45 23-56 176-87 392 21 428 213 7 36 5 73 7 109zm-421-2c1-27-2-55 4-82 13-58 65-99 125-97s113 46 121 104c6 45 7 91 6 136-1 24-21 41-45 40-22-1-40-19-39-43 1-38-2-77-4-115-1-19-18-36-38-38-22-2-39 10-44 31-1 6-2 12-2 18v86c-3 145-70 250-201 314-13 6-26 11-39 16-22 8-46-3-54-25s2-45 25-53c44-17 84-39 117-74 39-40 59-89 66-144 3-24 1-49 2-74zm62 479c-9 0-22-8-29-23-8-16-7-31 4-45 28-34 51-70 70-109 16-33 29-67 38-102 5-20 20-32 39-33 18-1 35 10 42 28 3 9 2 18 0 27-24 88-64 168-121 239-9 11-20 19-43 18zM25 486c-1-66 10-130 34-192 7-19 23-29 43-28 17 1 32 14 37 32 2 8 2 16-1 24-25 61-31 125-29 190v29c0 25-17 42-41 43-24 0-42-18-43-43v-55zm254 79c-1 50-13 95-53 129-24 20-51 32-80 41-15 5-30 9-46 14-24 6-46-6-52-30-7-22 6-44 29-51 21-6 42-12 63-20 39-15 54-36 55-79 0-8-1-16 1-23 6-20 25-35 45-33 22 3 38 20 38 42v10zm36-313c14 0 27 9 34 25s4 33-9 46c-20 21-36 45-46 73-7 16-11 33-13 51-3 23-24 41-46 38-25-4-41-25-38-49 9-65 36-121 80-169 11-11 20-15 38-15z"/></svg>