<svg width="64" height="64" viewBox="0 0 1000 1000" xmlns="http://www.w3.org/2000/svg"><path d="M236 778h138c13 0 24-11 24-24v-33c0-13 11-24 24-24h182v56c0 14 11 25 24 25h139c13 0 24-11 24-25V287c0-13-11-24-24-24H663l19-175c1-13-3-25-11-26-7 0-14 10-16 23l-1 9c-1 0-2-1-3-1H364c-6 0-11 3-15 6l-2-14c-2-13-9-23-16-23-7 1-12 13-10 26l19 175H236c-14 0-24 11-24 24v467c0 13 10 24 24 24zm105-81c-30 0-54-24-54-54s24-53 54-53c29 0 53 24 53 53 0 30-24 54-53 54zm328 4c-30 0-54-24-54-53 0-30 24-54 54-54 29 0 53 24 53 54 0 29-24 53-53 53zm87-357v98c0 13-11 24-24 24H536c-13 0-24-11-24-24v-98c0-13 11-24 24-24h196c13 0 24 11 24 24zM364 137h285l-4 42c-2 0-5-1-7-1H364c-2 0-4 1-7 1l-5-45c4 2 8 3 12 3zm1 114l-3-30c1 0 2 1 2 1h274c1 0 1-1 2-1l-3 30c-1 4-3 9-5 12H370c-2-3-4-7-5-12zm-119 93c0-13 11-24 24-24h196c13 0 24 11 24 24v98c0 13-11 24-24 24H270c-13 0-24-11-24-24v-98zm554 463H628c-13 0-24 11-24 24v3c0 13-11 24-24 24H422c-13 0-24-11-24-24v-3c0-13-11-24-24-24H202c-13 0-24 11-24 24v18c0 13 11 24 24 24h10v40c0 14 10 25 24 25h45c13 0 24-11 24-25v-40h393c0 1-1 1-1 2v38c0 14 11 25 24 25h46c13 0 24-11 24-25v-38l-1-2h10c13 0 24-11 24-24v-18c0-13-11-24-24-24zm-378-29c-13 0-24 6-24 14s11 15 24 15h158c13 0 24-6 24-15 0-8-11-14-24-14H422zm437-385h-29c-13 0-24 11-24 24v96c0 13 11 24 24 24h29c14 0 24-11 24-24v-96c0-13-10-24-24-24zM194 513v-96c0-13-11-24-24-24h-30c-13 0-24 11-24 24v96c0 13 11 24 24 24h30c13 0 24-11 24-24z"/></svg>