<svg width="64" height="64" viewBox="0 0 1000 1000" xmlns="http://www.w3.org/2000/svg"><path d="M684 663c-44-1-94-14-144-31-63-21-123-50-187-71-31-10-63-19-96-17-21 1-39 9-55 22-17 15-34 29-52 43-25 20-57 18-76-6-18-23-14-55 10-75 6-5 12-10 17-15 14-11 14-16 0-27-6-5-12-10-18-16-24-21-27-53-8-76 20-22 51-24 76-4 14 12 29 23 42 36 29 28 64 33 101 27 53-9 102-31 152-50 57-23 114-46 174-59 61-12 121-13 178 17 37 18 66 47 90 80 3 5 4 8-3 11-20 9-35 25-50 42-5 5-3 8 1 12 14 16 29 32 50 42 7 3 5 6 2 10-48 67-111 105-204 105zM151 500c-6 4-12 7-17 11-13 11-17 28-11 43 5 13 21 22 36 21 5 0 8 0 8-6 0-4-3-6-7-6h-5c-14-2-22-9-24-22-1-11 6-22 18-27 13-5 27-5 40-5h474c16 0 32-2 45 11 2 2 7 3 10 4 25 7 52-1 69-21 16-21 18-49 6-71-12-23-39-37-63-34-40 5-66 44-54 83 2 9 0 11-8 11-28-1-56-1-84-1H192c-15 0-31 0-45-7-11-5-17-14-15-26 1-11 9-18 21-20 3 0 6-1 10-1s4-3 4-6-1-4-4-5c-18-5-40 10-42 29-4 23 10 36 30 45zm510 181c-40 27-81 47-131 43-57-5-75-51-70-94 1-11 8-5 12-3 39 15 79 30 119 40 23 6 46 10 70 14zm2-362c-69 7-131 29-192 54-10 4-11-1-11-9-5-62 41-95 97-88 28 3 54 13 79 27 8 5 18 6 27 16zm275 182c0 6-2 13-5 20-6 15-19 21-35 17-20-6-34-20-48-34-2-3-3-6 0-9 13-13 26-27 44-33 25-9 43 7 44 39zm-245-39c0-23 20-43 43-43 24 0 44 19 44 43s-20 45-44 44c-24 0-43-20-43-44z"/></svg>