<svg width="64" height="64" viewBox="0 0 1000 1000" xmlns="http://www.w3.org/2000/svg"><path d="M111 536c-34-11-51-34-48-65 4-43 52-67 89-45 4 2 8 5 12 8 56 52 121 62 193 41 51-16 99-39 149-58 44-16 89-29 136-31 77-3 143 24 205 68 31 22 59 48 86 75 4 4 8 7 2 13-46 47-95 89-155 117-76 35-154 35-233 10-52-16-102-40-154-59-30-11-61-20-93-22-51-3-95 14-133 47-15 14-31 23-53 19-27-4-47-23-51-50s11-52 36-63c3-2 7-3 12-5zm715 1c0-54-42-97-96-97s-97 43-97 97c0 52 43 95 95 96 54 0 98-43 98-96zM658 368c-44 2-86 10-127 24-9 2-17 5-26 9-8 3-9-1-9-8-2-30 14-59 41-71 28-14 61-9 84 12 12 11 23 23 37 34zm72 120c26 0 48 22 48 48 0 27-22 49-49 48-26 0-47-21-48-48 0-27 22-48 49-48z"/></svg>