<svg width="64" height="64" viewBox="0 0 1000 1000" xmlns="http://www.w3.org/2000/svg"><path d="M937 504v-95c0-17-1-18-17-11-30 13-61 25-91 39-17 8-27 8-41-7-51-53-107-100-174-134-2-1-7-1-6-6s4-8 8-8c17 1 33-7 51-6 29 1 58 0 87 0 4 0 11 3 14-4 2-6-4-11-8-14-17-15-37-26-56-38-41-25-85-40-133-39-55 2-105 21-149 55-19 15-37 31-63 36-23 5-25 12-18 30 8 22 12 45 16 68 6 36 11 73 13 109 2 44 1 88-7 131-6 35-16 69-33 101-4 6-3 10 4 13 26 9 53 19 81 21 9 1 18 2 25 8 28 24 60 40 95 52 20 8 42 12 63 13 11 1 24 1 30-10 7-11-1-20-7-28-10-15-19-30-29-45-5-8-7-13 5-19 22-10 43-21 63-34 55-36 103-79 146-127 8-8 14-10 25-4 31 19 63 37 95 56 6 3 12 5 12-6-1-32-1-65-1-97zM312 299c-1-8-6-13-16-7-14 9-30 14-45 24-71 45-133 102-185 169-4 5-6 10 0 15 35 29 71 54 119 50 5-1 12-2 12 6 0 6-6 8-12 9-21 1-41-2-62-10-13-5-24-14-38-17l-2 4c12 13 25 27 37 40 49 49 102 92 164 125 12 6 17 3 21-7 18-39 30-80 34-123 8-95-5-187-27-278zm-97 201c-26 0-43-20-44-47s25-44 45-44c26 1 46 20 46 47 0 23-23 44-47 44zm1-71c-13 0-24 10-25 23 0 14 12 27 26 26 11 0 24-13 25-25 0-13-12-24-26-24z"/></svg>