<svg width="64" height="64" viewBox="0 0 1000 1000" xmlns="http://www.w3.org/2000/svg"><path d="M624 319c-6 6-20 4-31 4-4 10-4 23-9 31 19 15 58 12 75 30 37-14 8-42 31-65 35-4 43 18 53 39-8 8-29 3-44 4-8 7-11 19-18 27 8 18 30 22 35 43 46-12 93-22 142-30 13-14 10-43 31-48 34 6 45 36 48 74-18 32-65 18-79-9-46 7-90 16-133 26-3 10 3 39-4 56 29 20 40-15 66-13 15 16 16 75-18 70-18-2-21-20-22-39-13 3-16-5-26-5-20 12-31 34-53 44 3 38 46 12 66 30-2 32-25 42-57 44-2-26 6-47-22-61-30 4-43 24-71 30-1 14 5 21 9 31 7 5 36-7 44 8 0 34-46 57-71 39-2-19 12-23 18-34-9-9-13-23-18-35-27 11-52 24-88 26 0 10-8 13-5 26-1 16 22 8 22 22 8 39-55 45-66 17-1-27 32-20 22-56-22-9-60-2-79-13-12 4-12 20-22 26 2 12 15 13 13 30-29 11-72 2-66-35 16-19 46-2 57-30-17-20-36-39-44-69-67 14-120 41-181 60-6 15-7 35-18 44-19 4-20 1-40 0-17-27-8-85 27-87 19-4 12 16 26 17 63-15 118-37 181-52-13-77 100-132-26-122-13-38 11-67 35-65 40 4 9 54 40 70 28-16 48-40 84-48 3-14-3-20-4-30-3-11-28 0-31-9v-31c14-13 52-11 61 5 4 19-7 24-22 26 2 13 10 19 14 30 28-11 70-8 110-9 6-5 8-15 9-26 3-16-24-3-18-21 5-46 67-20 67 13zm35 196c20-12 12-53 13-83-54-45-90 84-13 83zm-194 47c40 6 97-38 92-78-4-38-79-73-123-52-57 27-14 124 31 130z"/></svg>