<svg width="64" height="64" viewBox="0 0 1000 1000" xmlns="http://www.w3.org/2000/svg"><path d="M90 888c24-63 47-126 70-189 71-190 143-380 213-570 3-8 7-11 16-11h139c8 0 11 2 14 10 67 181 135 361 202 542 2 4 2 8 6 11 10-26 20-52 30-77 6-18 13-35 19-52 2-6 5-8 12-8 17 0 35 1 53 0 8 0 11 3 13 10 39 106 79 212 119 317 1 4 3 7 4 10 0 4 1 7-5 7-20-1-40 0-60 0l-24-72c-2-6-5-9-12-9-31 1-62 1-94 0-8 0-9 3-6 10 9 23 17 47 26 71H615c-14-44-29-87-43-130-2-7-6-9-13-9H311c-8 0-11 3-14 10l-45 129H90zm346-558c-2 4-2 5-3 5-28 86-55 171-83 257-3 9 2 8 8 8h152c9 0 11-2 8-11-20-59-38-119-57-179-8-26-16-52-25-80zm402 276c-1 0-1 0-2 1-18 49-36 99-53 149-3 7 1 7 6 7 32 0 63-1 95 0 7 0 8-2 6-8-8-22-15-44-23-65-9-28-19-56-29-84zM21 888c-22-11-25-20-16-44 88-236 176-472 265-708 0-2 1-4 2-6 6-14 19-21 32-16 14 5 21 19 15 34-11 31-23 62-35 93-77 206-154 412-231 619-5 13-11 24-26 28h-6z"/></svg>