<svg width="64" height="64" viewBox="0 0 1000 1000" xmlns="http://www.w3.org/2000/svg"><path d="M579 669c6 0 11-5 11-11s-5-11-11-11-11 5-11 11 5 11 11 11zm-77 0c7 0 11-5 11-11s-4-11-11-11c-5 0-11 5-11 11s6 11 11 11zm119 31c6 0 11-5 11-11s-5-10-11-10-11 4-11 10 5 11 11 11zm-77 0c7 0 11-5 11-11s-4-10-11-10c-5 0-11 4-11 10s6 11 11 11zm-160 0c6 0 11-5 11-11s-5-10-11-10-11 4-11 10 5 11 11 11zm42-31c6 0 11-5 11-11s-5-11-11-11-11 5-11 11 5 11 11 11zm34 31c7 0 11-5 11-11s-4-10-11-10-11 4-11 10 5 11 11 11zM884 62H116c-16 0-29 13-29 29v79c0 37 31 68 69 68 26 0 49-15 60-36 10-16 8-16 17 0 12 21 35 36 61 36s49-15 60-36c9-16 8-16 17 0 12 21 34 36 61 36s48-15 60-36c9-16 8-16 17 0 12 21 34 36 60 36s49-15 61-36c9-16 8-16 17 0 11 21 34 36 60 36s49-15 61-36c9-16 7-16 16 0 12 21 35 36 61 36 38 0 69-31 69-68V91c0-16-14-29-30-29zm12 817h-28V562c0-33-27-59-60-59h-3V256c-11-5-21-11-29-20-8 8-17 14-26 19v248H251V255c-10-5-19-11-26-19-8 9-18 15-29 20v246h-4c-33 0-60 27-60 60v317h-28c-9 0-17 7-17 17v24c0 10 8 17 17 17h792c10 0 18-7 18-17v-24c0-9-8-17-18-17zM392 626c27-21 65-31 108-31s82 10 109 31c30 22 45 55 45 94 0 2-2 4-4 4H350c-2 0-4-1-4-4 0-39 16-72 46-94zm262 223c0 13-11 23-24 23H371c-14 0-24-10-24-23v-23c0-2 2-3 4-3h299c2 0 4 1 4 3v23zm-3-38H350c-13 0-23-11-23-25s10-25 23-25h301c12 0 22 11 22 25s-10 25-22 25zm14-57H335c-4 0-8-4-8-8s4-9 8-9h330c5 0 9 4 9 9s-4 8-9 8z"/></svg>