<svg width="64" height="64" viewBox="0 0 1000 1000" xmlns="http://www.w3.org/2000/svg"><path d="M500 0C224 0 0 224 0 500s224 500 500 500 500-224 500-500S776 0 500 0zM386 58c5-10 10-19 13-26 32-7 65-11 98-11 34 0 67 4 99 11 4 7 9 16 14 26 15 27 33 59 37 66-2 0-4 1-7 3-8 3-19 7-32 12-33 13-77 30-97 38-7 2-11 4-11 4-1 0-5-2-12-4-20-8-65-26-98-39-14-5-26-9-32-12-3-1-5-2-6-2 4-7 20-40 34-66zM126 500c-10 13-18 22-20 25-9-9-36-35-58-56-8-8-16-15-21-20 6-67 27-131 59-187 7-1 18-3 29-5 31-5 70-12 78-13 1 4 2 17 3 33 3 42 7 106 8 121v3c0 1-5 7-12 16-17 21-46 58-66 83zm214 416c-10 6-19 10-26 14-62-26-117-65-162-113 1-7 3-17 5-29 4-28 10-62 12-76 0-2 1-4 1-5 3 1 14 4 29 8 40 11 107 29 121 33 1 0 2 1 2 1 1 1 5 7 11 16 13 21 36 57 53 84 7 12 14 22 17 28 2 3 3 4 4 6-7 3-39 20-67 33zm247-295H408c-3-9-49-152-57-174v-2c7-5 104-74 137-98 6-4 10-7 12-8 1 1 5 4 11 8 34 24 131 93 138 98-1 0-1 1-1 1-7 23-54 166-57 175h-4zm98 308c-8-4-17-9-27-14-28-14-59-29-66-32 1-2 3-4 5-7 4-7 10-17 18-29 24-39 60-95 62-98 4-1 74-20 118-32 16-5 29-8 34-9 2 7 9 44 14 75 2 10 4 20 5 28-45 50-101 90-163 118zm208-404c0-1-1-2-2-3-5-6-13-15-22-27-19-25-46-58-62-78-7-9-11-15-12-16v-3c1-15 5-74 8-115 1-15 2-27 2-34 1-2 1-4 1-5 8 1 43 7 74 12 11 2 21 4 29 5 32 58 53 123 59 192-5 5-13 12-21 20-22 21-48 47-54 52z"/></svg>