<svg width="64" height="64" viewBox="0 0 1000 1000" xmlns="http://www.w3.org/2000/svg"><path d="M396 607c6-3 9-6 8-13 0-54 1-107 0-160 0-42-6-83-22-121-17-42-42-73-82-82-25-5-52-5-78-3-44 4-77 29-94 77-9 23-11 47-12 72-1 50 7 98 22 145l48 141c12-3 22-5 33-8 59-16 119-26 177-48zm484-434c-7-55-38-94-85-106-27-6-54-5-82-3-26 3-48 16-66 36-30 34-43 77-48 123-4 40-3 80-5 121h1v88c0 4 0 8 5 10 18 5 35 13 52 17 51 13 101 25 151 38 8 2 11 0 14-7 15-47 32-93 47-139 18-58 24-117 16-178zM422 692c-3-7-5-12-11-11-39 7-79 16-118 29-26 9-52 16-80 25 12 43 23 84 40 123 20 45 51 71 94 78 38 6 64-3 89-47 19-34 18-71 14-108-4-32-17-60-28-89zm186-168c-9-1-19-6-25-3-6 4-8 16-12 25-17 38-25 79-23 122 1 31 13 58 32 80 8 9 19 18 30 21 47 13 91-3 122-49 30-43 40-97 55-149-7-2-13-4-19-6-53-16-105-35-160-41z"/></svg>