<svg width="64" height="64" viewBox="0 0 1000 1000" xmlns="http://www.w3.org/2000/svg"><path d="M314 786c2 6 6 9 13 9 41-1 81 1 122-3 72-6 141-26 204-63 71-41 130-95 181-160 5-6 6-11 2-18l-75-168-75-168c-3-7-7-11-14-10-36 0-73-2-109 1-77 6-150 26-217 64-71 42-130 97-181 161-4 6-5 10-2 17 50 112 101 225 151 338zm49-279c5 10 9 20 14 31 14-6 27-12 42-19l-14-31c9-4 17-7 26-11 5 10 9 20 14 31 14-7 27-13 42-19-5-10-9-20-14-31 9-4 17-8 27-12 4 10 9 21 14 31 14-6 27-12 41-18-5-10-9-20-14-31 9-4 17-8 27-12 4 10 9 20 14 31 14-7 27-13 42-19-5-10-10-20-14-31 9-4 17-8 26-12 13 30 26 60 40 90-8 4-16 7-25 12l-14-31c-15 6-28 12-42 19 4 10 9 20 13 31-9 4-17 7-26 11-5-10-9-20-14-31-14 7-27 13-42 19l14 31-26 12c-5-11-9-21-14-31l-42 18c5 11 9 21 14 31l-26 12c-5-10-9-20-14-31-14 7-28 13-42 19 4 10 9 20 14 31-10 4-18 8-27 12-13-30-26-60-40-90 8-4 17-8 26-12zm572-140c9-45-6-80-46-102-25-14-52-25-79-35-14-6-29-8-46-13 41 93 81 183 122 275 23-41 41-81 49-125zM87 716c16 13 33 24 51 34 30 16 63 25 98 32-41-92-82-182-123-275-8 17-16 31-23 46-15 34-27 69-27 107-1 22 6 42 24 56z"/></svg>