<svg width="64" height="64" viewBox="0 0 1000 1000" xmlns="http://www.w3.org/2000/svg"><path d="M556 544s-38-361-181-361H147v333H89c-59 0 0 206 0 206h36c2-51 45-92 97-92s94 41 96 92h119v-1c0-57 46-103 103-103s103 46 103 103c0 6-1 13-2 19h37l-61-191c-56 31-61-5-61-5zm-184 12l-54-94H201V237h165c48 0 74 67 88 124 9 36 37 166 39 195H372zm168 73c-49 0-89 40-89 90s40 90 89 90 90-40 90-90c0-49-40-90-90-90zm0 142c-28 0-52-23-52-52s24-52 52-52 52 24 52 52-23 52-52 52zM219 646c-47 0-85 38-85 85s38 85 85 85 85-38 85-85-38-85-85-85zm0 135c-27 0-49-23-49-50s22-49 49-49 49 22 49 49-22 50-49 50zm718-147c-4-10-15-16-25-12l-187 61-161-485c-4-10-14-16-25-12-10 3-15 14-12 24l168 504c3 8 10 13 18 13 2 0 4-1 6-1l205-68c10-3 16-14 13-24z"/></svg>