<svg width="64" height="64" viewBox="0 0 1000 1000" xmlns="http://www.w3.org/2000/svg"><path d="M992 408c-37-2-74-5-111-7-2 0-5 0-7-1 1-4 0-11 1-13 4-17 2-37 3-54 1-6-7-11-12-8-10 8-20 15-30 22-12 8-28 13-23 19-15-13-28-53-36-68-5-8-15-4-16 4l-4 63c-1 10 16 10 17 0 1-12 1-23 2-34l27 48c2 4 7 6 11 3 16-10 31-21 46-32-1 19-2 39-3 59-1 4 4 8 8 8 30 2 59 4 89 6l-82 32c-6 3-8 9-4 14 14 17 28 33 42 49-24-1-48-3-71-4-5-1-8 4-8 8-1 16-2 32-2 48l-17-35c-5-9-19-1-14 9l31 65c3 8 15 3 15-4l2-42c0-14 6-34-1-34 20-6 66 6 84 7 8 1 10-9 6-14-16-19-31-37-47-55 35-14 71-28 106-42 9-4 8-16-2-17zm-178 37c-1-14-11-24-25-25-44-2-88-4-133-6-54-2-109-4-163-6-12-1-21-7-25-18-5-11-3-23 7-31 18-17 37-32 55-49 5-5 9-13 11-20 3-11-2-21-11-27-10-7-20-7-29-1-15 8-29 17-43 25-56 33-112 65-168 98-21 12-31 29-31 54v124c0 40 18 60 57 65 50 6 99 13 149 20 26 4 49-9 60-34 16-38 32-75 48-112 3-8 8-11 16-12 61-4 122-9 183-13 7-1 15-1 22-3 14-3 22-16 20-29zm-599-72H0v364c18 4 33 5 45 5s27-1 45-5V594h99c3-15 4-28 4-40 0-11-1-24-4-40H90v-62h125c3-15 4-29 4-40 0-6 0-12-1-18l-3-21zm-16 293c-3-4-8-7-13-9s-11-3-18-3-13 1-18 3-9 5-13 9c-3 4-6 8-8 14-1 5-2 11-2 18 0 6 1 12 2 17 2 6 5 10 8 14 4 4 8 7 13 9s11 3 18 3 13-1 18-3 10-5 13-9c4-4 6-8 8-14 2-5 3-11 3-17 0-7-1-13-3-18-2-6-4-10-8-14zm-20 47c-3 4-6 6-11 6s-8-2-10-6c-3-3-4-8-4-15s1-12 4-16c2-4 5-5 10-5s8 1 11 5c2 4 3 9 3 16s-1 12-3 15zm104-59c-2 0-4 1-7 1-2 0-4 0-7 1v61h-6c-4 0-8-1-10-3s-3-7-3-13v-45c-2-1-5-1-7-1s-5-1-7-1-4 1-6 1c-3 0-5 0-7 1v47c0 8 1 15 3 20s5 9 9 11c4 3 8 5 14 5 5 1 10 2 15 2 3 0 6 0 9-1 3 0 6 0 9-1s5-1 8-2c2-1 5-1 6-2v-79c-2-1-4-1-6-1-3 0-5-1-7-1zm89 62h-30v-60c-2-1-5-1-7-1s-5-1-7-1-4 1-6 1c-3 0-5 0-7 1l-1 83h58c1-2 1-4 1-6v-5-6c0-2 0-4-1-6z"/></svg>