<svg width="64" height="64" viewBox="0 0 1000 1000" xmlns="http://www.w3.org/2000/svg"><path d="M936 562c-7-38-25-70-45-102-13-21-25-44-37-66-4-7-3-11 4-16 20-15 35-34 44-57 22-59 24-119 13-179-4-17-11-34-19-49-7-14-20-24-37-22-12 1-25 5-36 11-61 29-112 71-160 118-6 6-10 9-20 8-22-4-45-6-68-6-72 1-145 3-218 5-6 0-14-3-18-6-20-17-38-35-58-52-36-29-72-56-115-73-36-14-54-2-69 27-5 9-7 19-10 28-11 44-11 88-5 131s20 84 55 112c11 8 12 15 6 25-14 25-28 49-43 73-20 33-36 68-38 101 0 41 10 58 41 72 18 9 37 16 57 22 67 23 134 49 189 97 5 5 10 13 11 20 7 38 22 73 48 103 46 54 119 57 169 8 31-29 47-66 56-106 1-7 4-15 8-18 31-22 62-46 95-62 50-23 102-40 153-60 41-16 54-43 47-87zM242 303c-29-7-52-23-69-47-27-37-33-79-32-124 42 41 83 84 115 133 3 4 5 8 6 12 2 8 2 16 3 25-8 0-16 2-23 1zm155 281c-12 6-26 11-40 13-21 2-44-6-66-7-2 0-7-2-7-4-3-16-6-32-6-48-1-8 6-13 16-12 36 5 71 14 103 33 15 9 15 18 0 25zm155 263c-2 26-15 47-39 59-14 7-28 4-40-5-19-13-29-33-32-56-1-14 4-25 20-28 12-3 24-3 37-5v1c9 0 19 0 28 1 21 3 28 12 26 33zm163-291c-3 32-6 26-35 35-14 4-31 7-45 6-14-2-28-7-41-14-14-7-13-17 2-25 17-8 34-15 52-21 16-5 32-8 48-11 13-2 18 5 19 16v14zm60-264c-12 6-25 10-38 12-15 2-20-5-14-18 9-17 18-34 30-49 30-36 61-71 92-107 8 58-15 135-70 162z"/></svg>