<svg width="64" height="64" viewBox="0 0 1000 1000" xmlns="http://www.w3.org/2000/svg"><path d="M789 683c-23-23-53-37-87-38h-4c-36 0-68 14-91 38-24 23-38 55-38 90 0 19 4 36 11 51 6 15 16 29 27 40 23 24 55 38 91 38 71 0 128-58 128-129 0-35-14-67-37-90zm-38 122l-22 21-31-32-32 32-21-21 31-32-31-32 21-21 32 32 31-32 22 21-32 32 32 32zM436 200v188h231c4 24 6 47 6 69 0 24-2 47-6 70H436v130h113c-25 28-40 64-40 105 0 11 1 22 4 32h-77v137c-29 4-55 7-80 7-28 0-55-3-83-7V794h-99V657h99V62h454c4 23 6 45 6 68 0 25-2 48-6 70H436z"/></svg>