<svg width="64" height="64" viewBox="0 0 1000 1000" xmlns="http://www.w3.org/2000/svg"><path d="M228 306h55c2 0 4 1 6 1l-11-103-45 7c-6 1-12 5-15 9-4 5-6 11-4 17l14 69zm107 24c8 8 14 18 16 30 5 34 24 64 51 85V125h-4l-59 5c-6 0-12 3-17 8-4 4-6 10-5 16l18 176zm437-24l15-69c2-12-7-24-20-26l-45-7-11 103c2 0 4-1 6-1h55zm-123 54c2-12 8-22 16-30l18-176c2-12-9-23-22-24l-59-5h-4v320c28-21 47-51 51-85zm-95 108V84c0-12-11-22-25-22h-58c-14 0-25 10-25 22v384c17 6 35 9 54 9s37-3 54-9zM243 891h515l-4 27c-1 11-12 20-24 20H271c-13 0-24-9-25-20l-3-27zm578-521l-61 502H240l-61-502c-1-7 2-13 6-18 5-4 12-7 19-7h79c13 0 23 8 24 20 12 85 94 151 193 151s181-66 193-151c1-11 12-20 24-20h79c7 0 14 3 19 7 4 5 7 11 6 18z"/></svg>