<svg width="64" height="64" viewBox="0 0 1000 1000" xmlns="http://www.w3.org/2000/svg"><path d="M929 320c-11-11-22-11-34-2-8 7-14 15-18 24-14 30-40 44-67 57-14 7-23 2-27-11-15-45-16-91 4-134 9-20 15-39 9-61-4-12-6-26-22-28-18-1-31 8-38 24-8 16-3 32 2 48 7 21 14 42 9 68 0 9 1 21 0 33-2 13-4 26-7 38-8 27-29 34-51 15-21-18-40-38-43-69 0-8-4-13-11-17-13-6-35 0-42 11-9 15-4 34 10 45s28 23 41 34c28 23 30 52 20 84-4 15-14 24-31 25-24 1-48-2-68-20-10-9-22-15-36-18-13-3-24-2-32 10-8 14-12 30-4 45 8 13 20 11 33 8 14-3 29-7 42 1 45 28 95 50 133 88 14 14 30 23 48 28 15 4 32 7 42-7 23-32 45-64 32-106-4-11-5-23-8-34-5-17-4-35 8-48 29-31 51-69 93-84 5-2 10-6 14-10 11-13 9-25-1-37zM462 655c-9 3-17 7-24 13-22 20-47 23-74 21-11 0-18-5-23-13-16-24-14-65 6-86 15-15 29-31 47-41 17-9 20-24 16-40-5-19-21-19-36-19-12 1-20 5-21 17-2 34-23 56-48 74-16 13-37 6-43-13-5-13-7-27-8-40-3-38-4-75 9-112 12-33 0-56-27-64-12-3-20 0-25 10-11 21-17 45-4 66 16 26 20 54 20 84 0 22 2 44-11 64-5 8-10 15-20 11-28-10-54-24-69-51-5-10-11-19-18-26-16-15-27-16-38-2-13 15-11 26 5 40 12 11 30 10 41 23l55 60c15 16 19 35 12 57-12 42-16 82 13 120 18 24 27 32 56 23 14-4 28-10 37-20 36-36 80-57 122-84 21-13 41-17 65-12 24 6 35-5 33-29-2-30-20-42-48-31z"/></svg>