<svg width="64" height="64" viewBox="0 0 1000 1000" xmlns="http://www.w3.org/2000/svg"><path d="M884 650c-6-1-12-1-18 1-13 5-26 9-39 13-18 5-36 11-54 15-4 1-8 1-11-2-4-4-1-8 1-12 7-13 17-23 31-30 8-3 16-7 23-11 10-4 12-11 9-21-4-10-11-14-21-13-6 0-12 4-17 8-19 15-35 32-49 51-24 32-57 33-91 31-7 0-11-5-10-13 3-20 5-39 9-58 8-48 20-93 53-131 13-15 25-24 46-22 15 2 27-7 34-21 6-11 4-21 1-32-4-17-2-32 6-47 4-8 8-16 10-25 3-15-2-27-16-33-6-3-13-5-20-4-28 0-55-5-81-15-22-9-42-3-53 18-3 8-10 14-17 18-13 8-27 12-39 20-13 8-26 8-40 5-43-8-85-16-127-24-26-6-27-6-18-32 6-17 12-36 30-45 23-13 45-26 72-31 8-1 17-2 25-8 8-7 13-16 10-27-2-11-10-17-21-20-10-2-17 3-25 9-10 7-16 17-23 27-5 7-13 9-19 6-7-4-2-12 0-18 10-18 24-32 41-44 9-6 17-13 21-24 5-12 1-21-11-26-13-4-24 1-31 17-10 22-26 42-40 62-3 3-5 8-11 6-5-1-7-5-7-10-4-16-2-31 5-46 4-8 8-16 9-25 3-15-2-22-15-24-15-3-21 2-23 18-1 8 0 17 0 26 1 9 1 17 1 26 0 41-10 80-20 119-5 25-10 50-10 75 0 14 6 22 18 27 15 5 30 8 46 12 12 3 25 6 36 11 6 3 8 7 7 13 0 5-5 4-8 4-8 2-15 4-23 5-35 7-66 22-89 51-10 13-18 27-26 41-1-23-2-46-5-69-3-14-5-27-13-38-3-5-7-9-13-8-12 3-22 9-29 18-19 23-38 47-57 71-3 4-6 8-12 8-1-21-3-42 1-63 5-29 20-42 50-46 21-2 42-7 62-17 10-4 18-21 15-33-3-11-12-16-26-14-16 2-30 10-43 19-8 6-16 12-24 16-7 4-12 1-11-7 2-9 5-16 11-23 10-13 20-27 27-42 7-17 1-33-15-42-15-8-26-6-36 7-8 10-12 21-12 33 0 16-3 31-7 46-1 5-3 11-7 16-9-18-13-59-7-77 2-5 1-10-2-14-6-7-13-11-21-13-18-6-30 2-34 20-3 18 4 33 13 47 18 30 24 64 27 98 4 29-5 56-4 84 1 44 0 89 5 133 1 8 0 18 10 20 8 2 13-6 17-12 21-26 42-52 56-82 4-11 11-19 22-27-1 5-1 8-1 12-3 39-11 77-18 115-5 21 2 38 19 51 12 10 26 9 40 11 30 5 60 6 85 25 8 6 17 8 25 12-7 4-10 4-17 4-36 2-70 10-103 24-14 6-15 16-5 27 4 4 8 8 13 10 28 13 56 23 86 29 19 4 39 7 57 15 37 16 69 40 101 63 13 9 27 14 37 26 7 9 16 12 26 13s19-5 20-11c1-8-7-19-15-21-23-6-42-19-60-33-10-7-9-13 2-16 25-7 50-17 76-4 3 2 8 2 13 2s11 0 14-6 2-12-2-18c-7-11-17-13-29-12-30 2-59 6-89 7-8 0-10-3-6-9 9-18 22-31 41-36 6-2 13-4 12-11-1-11-6-21-16-27-8-5-15 2-20 7-18 15-34 31-46 50-5 7-11 14-20 13-27-1-50-15-74-28 15-3 27-5 40-8s26-7 39-10c17-5 33-13 49-22 14-9 13-21-1-29-5-3-10-5-16-7-15-5-31-8-46-14s-31-12-47-25c7-1 11-2 15-2 17-2 34-4 50-5 27-2 48-14 66-33 11-13 20-26 31-39 3-4 7-10 13-6 6 3 8 10 6 16-8 32-7 65-4 97 1 14 5 17 19 21 15 3 30 2 45 0 31-4 62-5 94 6 30 10 57 24 80 47 5 5 10 9 16 12 15 6 28-1 32-16 1-9 0-16-10-19-7-2-15-4-22-6-17-6-34-9-50-18-12-7-14-19-1-23 27-11 54-24 84-9 13 6 27-2 31-17 4-11-4-21-18-25z"/></svg>