<svg width="64" height="64" viewBox="0 0 1000 1000" xmlns="http://www.w3.org/2000/svg"><path d="M103 541c0-50 9-99 28-146 2-4 1-6-2-10-43-45-61-99-53-160 5-39 22-72 48-101 32-34 71-55 117-60 69-7 126 17 171 71 3 4 7 8 10 13 1 3 3 4 6 3 32-6 65-8 98-6 15 1 30 3 45 6 3 1 5 0 7-3 18-27 42-49 71-64 22-11 44-18 69-21 29-2 58 1 86 12 46 18 81 50 103 95 34 71 21 153-32 211-7 7-7 12-4 20 9 23 15 47 19 72 4 24 7 48 6 73-1 66-17 128-49 186s-75 105-131 142c-46 30-97 50-153 59-17 3-35 4-52 4-29 1-57-1-85-6-38-7-75-20-110-38-43-22-80-51-112-87-27-30-49-64-66-100-18-40-29-82-33-126-1-13-2-26-2-39zm397 97H182c-4 0-5 2-4 5 7 20 16 40 26 59 19 32 42 60 70 85 21 19 44 35 69 48 29 15 59 26 92 32 24 5 48 7 73 7 29-1 56-6 84-13 22-6 44-15 65-26 27-14 52-32 75-53 12-12 24-25 35-39 14-18 26-36 36-57 7-14 13-28 18-42 2-5 1-6-4-6H500zM263 127c-68-1-125 55-125 124s55 126 124 126c69 1 126-55 127-123 1-70-57-128-126-127zm473 0c-69 0-125 56-125 126 0 68 57 125 126 124 72-1 125-60 124-127 0-68-56-124-125-123zM268 319c-1-21 15-38 36-40 25-2 42 17 43 37 1 21-16 40-36 42-23 2-44-17-43-39zm495 39c-22 0-40-18-39-41 1-19 16-39 41-38 22 0 39 18 39 41-1 22-19 39-41 38z"/></svg>