<svg width="64" height="64" viewBox="0 0 1000 1000" xmlns="http://www.w3.org/2000/svg"><path d="M467 367c10 12 20 23 33 32 10 6 20 8 31 5 6-2 11-3 16-6 30-14 54-35 73-61 16-20 26-42 27-68 0-12 0-24-4-35-7-18-21-28-38-34-18-8-37-12-57-14l-4-1c-21-2-41-4-62-1-23 4-40 15-48 38-10 24-11 49-4 74 8 26 21 50 37 71zm35 11h-1c-2-2-4-4-5-7 0 0 2-2 3-2s3 2 4 4 0 5-1 5zm38 6c-1-1-3-2-3-3 1-1 2-3 4-4 3-1 5-1 5 0 1 0 1 1 1 1-1 3-5 6-7 6zm85-114c1-1 2-1 2 0 1 0 1 1 1 1 0 4-1 9-2 13l-1 1s-1 0-2-1v-1-3-6c1-1 1-2 2-3v-1zm-10-42c0-1 1-3 3-3 1 0 2 1 3 2 2 2 3 4 3 7 1 2 0 5-1 7 0 1-1 1-1 1-2 1-4-1-5-2-3-3-3-8-2-12zm-7 80c1-1 3-1 3-1 1 1 1 1 1 2s0 3-1 6c-2 3-3 5-6 7-1 1-3 1-3 1-1-1-2-3-1-4 1-4 3-8 7-11zm-12-43c2-2 5-2 6 1 0 1 0 2 1 4 0 2 0 6-1 8-1 1-1 2-2 3-2 3-5 3-6 0-2-4-1-13 2-16zm-14-48c2-2 5-2 7 0 2 3 2 6 3 9 0 2-1 6-1 8-1 1-1 2-2 3-2 2-4 2-7 0-3-5-3-15 0-20zm-2 131c-2 4-5 8-9 10h-3c0-2 1-5 2-7s4-4 7-6c0 0 2 0 2 1 1 0 1 1 1 2zm-9-46c1-1 3-2 4-2 2 1 3 3 3 5v2c0 1 0 2 1 3s-1 2-2 4c-2 2-3 4-4 6-3 3-6 2-7-2-1-6 1-11 5-16zm-15-44c3-4 7-3 8 1 1 1 1 3 1 5 1 3 0 7-1 10-1 1-2 3-3 4-2 4-6 3-7-1-3-5-2-15 2-19zm-10 95c-1 2-3 3-4 2-2 0-3-2-3-3-1-1-1-2-1-3 0-2 1-5 2-7 1-1 1-2 2-3 2-2 6-1 7 2 1 5 0 9-3 12zm-6-142c3-3 6-3 7 2 1 1 1 3 1 4 1 3 0 7-1 10-1 1-2 3-3 4-2 3-5 3-7-1-2-5-1-14 3-19zm-12 85c3-3 6-3 8 1v4c1 3 0 7-1 9 0 2-1 3-2 4-2 3-5 3-7-1s-1-13 2-17zm-5 71c2 1 4 4 3 8 0 2-1 4-2 5 0 1-2 2-3 2s-2-1-2-3c-1 0-1-1-1-2 0-2 0-5 1-7s3-3 4-3zm-14-111c1-2 2-3 3-5 2-3 5-2 7 1 3 6 2 16-2 20-3 3-6 3-8 0 0-2-1-4-1-6 0-3 0-7 1-10zm1 79c1 1 1 2 2 4 0 2 0 6-1 9-1 2-3 3-4 3-3-1-5-4-5-8 0-3 1-6 2-9 2-2 5-2 6 1zm-16-123c1-2 3-5 4-6 3-4 7-3 7 2 2 6 0 12-5 16-1 1-3 2-4 2-2-1-3-3-3-4v-3c0-1-1-3-1-3l2-4zm-8 79c2-4 5-4 7 0 1 2 2 4 2 7 1 2 0 6-1 9-1 1-2 3-4 3-2 1-5-2-5-7 0-4 0-8 1-12zm-6 54c-1 1-1 1-3 0-3-3-5-8-5-12 0-3 2-3 3-2 3 2 4 4 5 7 1 2 1 6 0 7zm-6-97c2-2 4-2 5 1 1 1 1 3 1 4 1 2 0 6-1 8-1 1-1 2-2 4-2 2-4 1-6-1-2-4-1-13 3-16zm-11-42c1-1 4-2 5-2 1 1 1 2 2 3 0 2 0 5-2 7-1 2-3 4-5 5-2 3-5 1-5-2 0-5 2-8 5-11zm-11 80s1 0 1-1c1 0 2 1 3 2 3 4 4 8 4 13 0 1-1 3-2 3s-2-1-3-2c-2-2-3-5-4-8 0-3 0-6 1-7zm-5-40c0-1 1-2 2-2 0 1 1 2 1 2 1 1 1 2 1 4 0 1-1 4-2 6 0 1 0 2-1 3 0 1-1 2-2 2 0 0-1-1-1-2-1-5 0-9 2-13zm50-100c3 3 7 6 11 10 2 2 1 3-1 3s-3 0-5 1c-1 0-2 0-3 1s-2 3 0 4c0 1 1 2 2 2 8 3 17 6 25 8s16 3 23 4c11 1 22 2 33 2 6 1 12-1 19-2 1 0 1-1 2-1 1-1 1-3 0-4-1 0-1-1-2-1-1-1-3-1-4-2-2-1-2-2 0-3 3-2 5-3 7-4 5-3 11-7 15-11 4-3 3-6-2-7h-3c-6 1-12 1-17 3-6 1-11 3-17 5-2 0-4 0-3-1v-1c3-5 5-10 7-16 0-2 0-5-2-6-1-1-4 0-6 1-4 3-7 6-11 9l-3 3c-1 2-2 1-1-2 3-16 9-31 20-44 2-2 2-6-1-7-2-2-5-3-9-3-6 0-9 5-11 10-4 8-7 18-10 27-1 5-2 9-3 15 0 2-1 3-2 0-1-1-2-2-2-4l-9-12c-3-3-6-1-7 3 0 2-1 5 0 7 0 3 0 6 1 9 0 3-1 4-4 2-4-3-9-6-13-9-5-2-11-4-16-6-2-1-5 0-6 1s0 4 1 6c2 3 4 7 7 10zm-71 481c1 2 2 4 3 7 0 3 1 6 2 9h17c-1-6-3-11-4-16-1-2-1-5-1-7-1-2-1-5-2-7-2-14-3-28-2-42-11 10-25 17-40 20 10 8 18 17 24 29 1 2 2 5 3 7zm-12 9c-1-3-2-5-3-8-7-16-21-28-38-34-2-1-5-2-7-2v2c-1 5-3 11-5 16-6 13-15 24-27 33h82c-1-3-1-5-2-7zm37-118v-1c1-2 0-4 0-6s1-4 1-6c-2-19-11-35-25-46-12 11-28 18-45 20h-8c-9 0-18-1-26-4 0 14-3 27-10 39 13 11 23 27 27 45 1 3 2 7 2 11v6h1c2 0 4 1 7 1 5 1 10 1 16 1 23-2 42-16 53-35 1-5 2-10 4-15l1-2c0-3 1-5 2-8zM271 642s1 1 2 1h26c27-6 48-27 53-53 0-1 0-3 1-4v-3-7-5-1c-2-18-11-33-23-44-3 3-5 6-8 8-2 2-4 4-6 5s-4 3-6 4c-10 7-22 11-35 12-3 1-5 1-8 1-2 0-4-1-6-1 0 2 1 4 1 5 2 25-7 48-23 65 9 8 20 14 32 17zm71-200c1 2 2 5 3 7 0 3 1 5 2 7v3c10 5 22 7 33 6 13-1 25-6 35-14 2-1 4-3 5-5 2-2 4-3 6-5 11-13 17-31 15-49-3-35-32-61-67-61h-6c-36 4-64 36-60 73 15 8 27 22 34 38zM187 635c12-1 23-6 32-12 2-2 4-3 6-5 2-1 3-3 5-5 12-13 19-32 17-51 0-3-1-6-1-9-1-3-2-6-3-8-1-4-2-7-4-10-1-1-1-2-2-3-1-2-2-4-4-6-1-2-3-4-5-5-5-6-12-10-19-14l-9-3c-3-1-6-2-9-2-3-1-7-1-10-1h-6c-18 2-34 10-46 24-11 14-17 31-15 49 3 37 35 64 73 61zM75 332c52 16 103 41 132 88 1 2 2 4 4 6 1 3 2 5 4 7-11 13-16 30-14 47 0 4 1 6 1 9 14 4 27 12 37 22 2 2 4 4 5 6 2 1 3 3 4 5 4 6 7 12 9 18 6 1 11 2 16 1 12-1 23-5 33-12 2-2 4-3 6-5l6-6 1-1c1-1 2-3 3-5 2-2 3-4 4-6 6-11 9-24 8-37v-1c0-3-1-6-2-9 0-3-1-5-2-8-1-1-1-3-2-5-4-8-8-14-14-20-4-3-7-6-11-9-3-1-5-2-8-4-9-3-18-6-28-6-2 0-4 0-6 1-7 0-13 2-19 5l-4-6c-1-2-3-5-4-7-35-53-91-82-153-101-20-7-26 26-6 33zm97 61c-69-70-106 87-106 87 45 25 175-17 106-87zm749-166c-58 5-114 17-159 51-3 2-6 5-10 7l-9 9c-7-2-15-3-22-3-41 0-79 28-93 72-1 2-2 4-2 6-4 11-14 32-41 46-38 19-58 37-58 37-22 17-41 40-53 66-1 2-2 4-2 7l-3 6-1 4c-8 24-9 50-5 75 0 2 0 5 1 7 0 2 1 5 1 7l6 18h370c7-30 6-61-4-90s-4-27-24-64c-15-30-10-55-7-64 1-2 1-3 2-4 1-3 2-7 2-10-19-13-34-29-40-48-3-11-5-30 10-49l-3-3 9-6c3-3 6-5 9-7l5-2c2-1 3-3 4-3 11-7 21-12 31-13 27-10 56-15 85-17 22-2 24-37 1-35zm-77 65c-9 0-20 4-32 12-2 1-5 3-7 5-3 2-5 4-8 7-3 2-5 5-7 8-18 25-3 51 22 70 4 3 7 5 11 7 3 2 6 4 10 6 17 8 36 13 53 13 6 0 11 0 16-2 0 0-2-126-58-126zM136 657c0 206 167 255 374 255 206 0 373-49 373-255H136z"/></svg>