<svg width="64" height="64" viewBox="0 0 1000 1000" xmlns="http://www.w3.org/2000/svg"><path d="M662 631c-12 5-17 5-22-8-42-104-139-161-248-148-101 11-180 91-198 198-2 7-1 15-9 18-17 8-31 18-43 31s-84 80-2 172c3 2 5 5 7 7l1 2v-1c20 20 46 31 77 34 33 3 65 0 97 1h279c42 0 81 1 119-1 67-2 116-34 143-96 26-59 13-127-32-172-48-47-106-60-169-37zM314 376c-4 10-6 19-8 28 151-24 294 25 396 133 3-8 6-15 9-23 38-110-20-229-130-267s-230 20-267 129zm550-28c-32 5-64 11-95 18-13 3-21 15-21 27-1 13 8 25 20 30 4 2 9 2 13 1 31-6 62-11 93-18 16-3 25-18 22-34-3-15-17-27-32-24zM595 224c16 5 33-3 39-19 5-14 9-28 14-42l14-41 1-2c5-16-3-32-19-38-16-5-33 3-38 19-10 28-20 56-29 84-6 17 2 34 18 39zM162 357c14 5 28 10 43 15l41 14c16 5 32-2 38-17 6-16 0-33-16-39-30-11-59-21-88-30-16-5-33 4-38 19-5 16 4 32 20 38zm703 178c-30-11-59-21-88-30-16-6-33 4-38 19-4 16 4 32 20 38 14 5 28 9 42 14l42 15c16 5 32-2 38-17 6-16 0-33-16-39zM708 304c10 3 19 2 27-5 24-20 48-40 71-61 12-11 12-29 2-41s-28-15-40-5c-25 20-49 41-72 63-16 15-9 41 12 49zm-257-95c22 7 43-10 39-34-5-29-11-59-17-88-4-18-19-27-36-24-16 3-27 18-23 35 5 30 11 59 17 88 2 11 9 19 20 23zm-140 53c4 4 8 7 12 8 14 5 28 1 36-10s7-26-2-37c-19-23-39-45-59-68-12-13-30-14-43-3s-14 29-2 43c19 22 39 45 58 67z"/></svg>