<svg width="64" height="64" viewBox="0 0 1000 1000" xmlns="http://www.w3.org/2000/svg"><path d="M578 670c-11 4-15 4-20-8-36-90-121-140-217-129-87 10-157 79-173 173-1 6 0 13-7 16-15 7-28 16-38 27s-74 70-1 150c2 3 3 5 6 7l1 1c17 17 40 27 67 29 28 3 57 0 85 1h244c37 0 70 1 104 0 59-2 101-31 125-85 23-51 12-111-28-150-42-41-92-53-148-32zm128-202c-49 11-95 3-137-25-35-23-59-56-70-96-18-63-5-119 34-171-43 8-78 30-107 61-45 47-67 105-64 170 2 26 7 50 15 72 86 23 162 74 220 147 9 0 17-1 26-2 136-18 208-144 197-238-28 44-65 72-114 82zM315 151l25 7c3 0 5 2 6 4l9 25c2 6 10 7 14 2l14-22c1-3 4-4 6-4l26-1c7 0 10-8 6-13l-17-20c-1-2-2-5-1-7l7-26c2-6-4-11-10-9l-25 10c-2 1-5 0-7-1l-22-15c-5-4-12 0-12 7l2 26c0 3-1 5-3 7l-21 16c-5 4-4 12 3 14zm593 198l-17-20c-1-2-2-4-1-7l7-25c2-7-4-12-10-10l-25 10c-2 1-5 0-7-1l-22-15c-5-3-12 1-12 7l2 27c0 2-1 5-3 6l-21 16c-5 4-4 13 3 14l25 7c3 1 5 2 6 5l9 25c2 6 10 7 14 1l14-22c1-2 4-3 6-4h27c6-1 9-9 5-14zm-299-28c2 0 3 1 4 3l6 16c1 4 7 5 9 1l10-14c1-2 2-3 4-3h17c4-1 7-6 4-9l-11-13c-1-2-2-4-1-5l5-17c1-4-3-8-7-6l-16 6c-2 1-4 1-5 0l-15-10c-3-3-8 0-8 4l1 18c1 2 0 3-2 4l-13 11c-4 3-3 8 2 9l16 5zm159-77c1 1 2 2 2 3l4 11c1 3 5 3 6 0l7-10c0-1 2-1 3-1l12-1c3 0 4-3 2-5l-7-10c-1-1-1-2-1-3l3-11c1-3-2-6-5-5l-11 5c-1 0-2 0-3-1l-10-6c-2-2-5 0-5 3l1 12c0 1-1 2-2 3l-9 7c-2 2-2 5 1 6l12 3zM542 106c1 0 2 1 3 3l5 13c1 4 6 4 8 1l8-12c0-1 2-2 3-2l15-1c4 0 6-4 3-7l-9-11c-1-1-1-3-1-4l4-14c1-4-3-7-6-6l-14 6c-1 0-3 0-4-1l-12-8c-3-2-7 0-7 4l1 15c0 1 0 3-2 4l-11 9c-3 2-2 6 1 7l15 4zM311 285c-2 2-1 5 1 5l10 3c1 0 2 1 2 2l3 9c1 3 4 3 6 1l5-9c1-1 2-1 3-1h10c2-1 4-3 2-5l-6-8c-1-1-1-2-1-3l3-10c1-2-2-4-4-3l-10 3c-1 1-2 1-2 0l-9-6c-2-1-5 1-4 3v10c0 1 0 2-1 3l-8 6z"/></svg>