<svg width="64" height="64" viewBox="0 0 1000 1000" xmlns="http://www.w3.org/2000/svg"><path d="M353 228c28 0 56-1 84 0 9 0 16-3 21-11s13-12 23-12c13 1 25 1 38 0 10 0 18 3 23 12 5 8 13 11 22 11 54-1 109-1 163-1 85 1 164 69 182 154 5 28 4 55 1 83-3 18-1 37 1 55l23 190c2 20 5 41 2 60-5 43-182 27-208-24-20-38-38-77-59-116-4-8-12-15-20-19-26-13-50-28-70-50-5-6-15-10-22-10-38-1-76 0-114 0-9 0-16 3-22 10-19 21-41 38-68 48-11 5-19 13-24 24-18 37-29 77-54 109-52 65-212 70-212 16 0-32 5-64 9-95 6-59 14-118 20-177 1-10-1-21-3-31-15-102 50-204 156-223 27-5 55-3 82-3 9-1 17 0 26 0zM214 394c-30 0-30 0-30 31v2c-1 10 4 14 12 13 10 0 20 0 29 1 18 2 26-12 35-23 1-1 1-6 0-7-8-8-15-19-29-18-5 1-11 1-17 1zm131 0c-6 0-12 0-18-1-14-1-20 11-29 18-1 2 0 8 2 10 10 13 22 23 40 20 5-1 11 0 17-1 16 0 17-1 17-17 0-29 0-29-29-29zm-87-76v12c0 14-2 29 1 42 2 9 12 16 18 24 1 1 3 1 4 0 7-9 18-16 21-27 4-13 2-28 1-42 0-4-5-9-8-9-12-1-23 0-37 0zm0 163c0 8 1 16 0 23 0 6 2 8 8 8h27c7 0 10-3 10-10 0-10-1-20 0-29 3-19-9-28-20-39-1-1-6-1-7 0-9 9-20 16-18 32 1 5 0 10 0 15zm432 10c0 17 14 31 31 31s30-15 30-32-14-32-31-31c-17 0-30 14-30 32zm-42-44c17 1 31-14 31-31s-14-32-31-32c-16 0-30 14-30 32 0 17 13 31 30 31zm175-31c0-18-14-32-30-32-17 0-31 15-31 32 1 17 14 31 31 31s30-14 30-31zm-133-75c0 18 13 32 30 32s31-14 31-31c0-18-13-32-30-32s-31 13-31 31zm-190-28c12 0 24 0 37 1 8 0 15-3 15-13s-7-12-16-12h-74c-9 0-16 2-15 13 0 10 6 11 14 11h39z"/></svg>