<svg width="64" height="64" viewBox="0 0 1000 1000" xmlns="http://www.w3.org/2000/svg"><path d="M809 122h-61c-8 0-15-7-15-16V79c0-44-36-79-79-79H347c-44 0-79 35-79 79v27c0 9-7 16-16 16h-61c-43 0-78 35-78 79v59c0 8 7 15 15 15h744c9 0 16-7 16-15v-59c0-44-35-79-79-79zm-139-16c0 9-7 16-16 16H347c-9 0-16-7-16-16V79c0-9 7-16 16-16h307c9 0 16 7 16 16v27zm187 218H144c-17 0-30 14-28 31l62 614c2 17 17 31 35 31h574c18 0 33-14 35-31l63-614c2-17-11-31-28-31zM493 793c0 9-7 16-16 16h-78c-9 0-20-6-26-12l-47-56c-5-7-7-19-4-27l6-15c3-8-1-17-9-21l-17-7c-8-3-8-7 1-9l63-11c9-2 20 2 25 9 10 15 27 38 38 53 5 7 2 10-6 7l-16-7c-8-3-15-3-17-1-1 3 3 10 9 17l4 5c5 6 17 12 25 12h49c9 0 16 7 16 15v32zm11-207l16-9c7-4 12-9 11-12-1-2-9-4-18-4h-6c-9 0-20 5-26 12l-31 38c-6 6-16 7-22 2l-24-21c-7-5-8-15-2-22l50-60c6-7 17-12 26-12h73c8 0 19 6 23 14l8 14c4 8 13 11 21 7 5-3 11-6 16-9 8-4 11-1 7 6l-32 56c-4 8-15 14-23 13-18-1-47-3-65-4-9-1-9-5-2-9zm180 152l-39 62c-5 7-15 13-24 12l-16-1c-9 0-16 6-17 15 0 6-1 12-1 18-1 9-5 10-9 2l-31-57c-4-7-3-19 2-26 10-15 27-38 38-52 5-7 9-6 8 3l-1 17c0 9 1 16 4 16 3 1 9-5 14-13l3-4c5-8 6-20 3-29l-15-46c-2-9 2-17 11-20l30-10c8-2 17 2 19 10l24 75c3 8 2 21-3 28z"/></svg>