<svg width="64" height="64" viewBox="0 0 1000 1000" xmlns="http://www.w3.org/2000/svg"><path d="M937 408c-23 14-45 26-67 39-11 6-22 12-32 19-3 2-6 6-6 10-1 16 0 31-1 46 0 7 2 10 7 13 30 16 59 33 88 50 3 2 6 4 12 7-10 26-18 52-28 77-1 3-6 6-9 6-33-3-66-6-98-10-11-1-19 0-25 10-6 12-15 22-23 32-4 4-5 8-2 14 15 34 30 67 45 103-23 16-47 32-70 48-2 1-8-1-10-2-26-23-53-45-79-68-5-4-8-5-15-3-14 5-28 10-43 13-7 2-10 5-11 12-8 36-16 71-24 107h-92c-8-36-17-71-24-106-2-8-5-11-12-13-14-3-28-8-42-13-7-2-10-2-15 3-26 22-53 45-79 67-3 2-8 4-10 2-24-15-47-31-71-47 16-35 30-68 45-100 4-8 3-13-2-19-9-11-18-22-25-33-4-6-8-8-15-7-33 3-67 6-100 10-8 0-13 0-16-9-8-25-17-49-25-74 4-3 7-5 11-7 29-17 58-33 87-50 6-3 8-6 8-13-1-15-1-30 0-44 0-7-2-10-8-14-29-16-59-33-88-50-3-2-6-3-11-6 10-26 19-53 29-79 0-2 6-4 9-4 33 3 65 6 98 9 11 2 18 0 24-10 6-11 15-21 23-31 4-5 5-9 2-15-15-33-30-67-46-102 24-16 47-32 71-48 2-1 8 0 10 2 27 23 53 45 79 68 5 4 9 5 15 3 14-6 29-10 43-14 6-2 9-4 11-11 8-35 16-70 24-107h92c8 36 16 71 24 106 1 7 4 10 11 12 15 4 29 8 43 14 6 2 10 1 15-3l78-68c4-3 8-5 13-1 22 15 45 31 68 47-11 25-21 48-32 71-4 11-9 22-14 32-3 5-1 9 2 13 9 12 19 24 27 37 4 5 8 7 14 6 34-3 67-6 100-10 9-1 14 0 17 9 8 25 17 49 25 74zm-291 96c2-77-62-144-139-146-84-2-150 58-152 139-3 76 61 142 138 144 83 3 150-58 153-137z"/></svg>