<svg width="64" height="64" viewBox="0 0 1000 1000" xmlns="http://www.w3.org/2000/svg"><path d="M578 649c-4-2-5-5-5-9v-31c0-2 2-5 4-7l21-12c15-9 29-17 45-26-6-17-11-33-17-50-2-6-5-6-11-6-22 3-44 5-66 7-4 0-7-1-9-4-6-9-12-17-19-25-2-3-3-5-1-8 4-7 7-14 10-22 7-15 14-31 21-47-15-11-31-21-45-32-4-2-6-1-9 1-17 15-35 30-52 46-3 2-6 3-9 1-10-3-19-6-29-9-5-1-7-3-8-8-5-23-10-47-16-71h-60c-6 25-11 48-17 72 0 4-3 6-7 7-9 3-19 6-28 9-5 2-7 1-10-2-18-15-35-30-53-45-1-1-5-2-7-1-15 10-31 21-46 32 10 23 20 46 30 68 2 4 2 7-1 10-6 7-11 13-15 20s-9 8-16 8c-22-3-44-5-66-7-2 0-5 1-6 3-6 17-12 35-18 53 3 2 5 3 7 4 19 11 39 22 58 33 4 2 5 5 5 9v30c0 4-1 7-5 9-19 11-39 22-58 33-2 1-4 3-7 5 6 16 11 33 17 49 2 6 5 6 10 6l67-7c4 0 7 1 10 5 5 7 10 15 16 22 4 4 4 8 2 13-10 21-20 43-30 66 16 11 31 22 47 32 1 1 5 0 7-1 17-15 35-30 52-45 3-3 6-4 10-2 9 3 18 6 28 9 4 1 7 3 8 8 5 24 10 47 16 71h60c6-24 11-48 17-71 1-5 2-7 7-8 10-3 19-6 29-9 4-2 6-1 10 2 17 15 34 30 52 45 1 1 5 2 6 1 16-10 32-21 47-32-10-23-20-46-30-68-2-4-1-7 1-10 6-7 12-13 16-21 4-7 9-7 16-7 22 3 43 5 65 7 2 0 6-2 6-4 7-17 13-34 19-52l-8-4c-20-11-39-22-58-33zm-230 71c-51-2-93-46-92-97 2-54 46-94 102-92 51 1 93 45 92 97-2 53-47 93-102 92zm349-304c3 15 7 30 10 46h40c3-16 7-31 10-47 1-3 2-4 5-5 6-1 13-3 19-6 3-1 4 0 6 2 12 10 23 19 34 29 1 1 4 1 5 1l30-21c-7-15-13-30-20-44-1-3-1-5 1-7 4-4 8-8 10-13 3-5 6-5 11-5 14 2 28 3 42 4 2 0 4-1 4-2 4-11 8-23 12-34-2-1-3-2-5-3-12-7-25-14-38-22-2-1-3-2-3-5 1-7 0-14 1-20 0-2 1-4 2-5 5-3 9-5 14-8 10-5 19-11 29-17-3-11-7-21-11-32-1-4-3-4-7-4-14 2-29 3-43 4-3 1-5 0-6-2-4-6-8-11-12-16-2-2-2-4-1-6 2-4 4-9 6-14 5-10 9-20 14-31-10-7-20-14-29-20-3-2-4-1-6 0l-34 30c-2 2-4 2-6 1-6-2-12-4-19-6-3-1-4-2-5-5-3-16-7-31-10-47h-40c-3 16-7 32-10 47-1 3-2 4-5 5-6 1-12 3-19 6-2 1-4 0-6-2-11-9-23-19-34-29-1-1-4-1-5-1l-30 21c7 15 13 30 20 44 1 3 1 5-1 7-4 4-8 8-10 13-3 5-6 6-11 5-14-2-28-3-42-4-1 0-4 1-4 2-4 11-8 22-12 34 2 1 3 2 4 3l39 21c2 2 3 3 3 6-1 7-1 13 0 20 0 2-1 4-3 5-13 7-26 15-38 22-2 1-3 2-5 3 4 11 8 22 11 32 1 4 3 4 7 4 14-2 29-3 43-4 3-1 5 0 7 3 3 5 6 10 10 14 3 3 3 5 1 9-6 14-12 28-19 43l30 21c1 0 4 0 5-1 11-10 23-20 34-29 2-2 4-3 6-2 6 3 13 5 19 6 3 1 4 2 5 6zm-33-143c1-35 30-61 66-60 34 0 61 29 60 63s-30 61-66 60c-33-1-61-30-60-63zm270 389c-9-5-17-10-26-15-2-1-3-2-2-4 0-5-1-10 0-14 0-1 1-3 1-3 4-3 7-4 10-6 7-4 13-8 20-12-2-8-5-15-7-22-1-3-3-3-5-3l-30 3c-2 0-3 0-5-2-2-4-5-8-8-11-1-1-1-3 0-4 1-3 3-7 4-10 3-7 6-14 10-22-7-4-14-9-21-14-2-1-3 0-4 1l-24 20c-1 2-2 2-4 1-4-2-9-3-13-4-2-1-3-2-3-4-3-10-5-21-8-32h-27c-3 11-5 22-7 33-1 2-2 2-4 3-4 1-8 2-13 4-2 1-3 0-4-1-8-7-16-14-24-20-1-1-2-1-3-1-7 5-14 10-21 14 5 11 9 21 14 31 0 2 0 4-1 5-3 3-5 6-7 9-2 4-4 4-7 4-10-2-20-2-30-3-1 0-2 0-3 1-3 8-5 16-8 24 1 1 2 1 3 2l27 15c1 1 2 2 2 4v13c0 2-1 4-2 4-9 5-18 10-27 16-1 0-2 1-3 2 2 7 5 15 8 22 0 3 2 3 4 3 10-1 21-2 31-3 2-1 3 0 4 2 2 3 5 7 7 10 2 2 2 3 1 6-4 9-9 19-13 30 7 5 14 10 21 14 1 1 2 0 3 0l24-21c1-1 2-1 4-1 4 2 9 3 13 5 2 0 3 1 4 3 2 11 4 22 7 33h28c2-11 5-22 7-33 0-2 1-3 3-3 5-2 9-3 13-4 2-1 3-1 5 0 8 7 16 14 23 21 1 1 3 1 3 1 8-5 15-10 22-15-5-11-10-21-14-31-1-2-1-3 0-5 3-3 6-6 8-9 1-3 4-3 7-3 10 1 20 2 29 3 1 0 3-1 3-2 3-8 6-16 9-23-2-1-3-2-4-2zm-130 17c-24-1-43-21-42-44 0-24 20-43 46-42 23 1 42 21 42 44-1 24-21 43-46 42z"/></svg>