<svg width="64" height="64" viewBox="0 0 1000 1000" xmlns="http://www.w3.org/2000/svg"><path d="M851 195c-5 1-10 2-14 5-3 3-6 3-8 0-17-16-38-17-60-17-23-1-42 2-59 20-34 35-71 69-102 108-26 31-51 63-76 96-10 13-14 27-5 43l6 15c6 18 8 34-4 52-10 13-13 31-17 47-9 40-19 81-22 123-1 34-4 69-1 103 1 19 4 38 8 56 3 14 10 27 21 37 5 5 14 13 11 18-4 6-15 5-23 5-4-1-7-2-10-2-4-1-6-3-5-7 3-18-3-34-12-49-2-3-2-5-2-8-2-43-8-86-13-128-1-3-1-5-5-9v121c0 10 1 20 1 30 0 27 15 45 36 60 6 4 13 11 11 18-3 6-13 6-21 5-3 0-7 0-10-1-10-2-17-6-21-16-3-10-6-22-17-27-4-1-3-5-2-8 5-41 3-83-5-124-8-43-14-86-18-130-1-12-4-24-7-36-1-4-3-6-8-5-20 3-40 4-59 0-4-1-6 0-7 4-5 30-20 56-37 80-7 10-12 22-14 35-5 31-4 62 2 93 3 14 7 28 11 42 4 18 14 32 28 44 6 4 3 7-1 9-6 5-27 3-32-2-1-1-1-3-1-4 0-12-6-23-11-33-6-11-6-24-7-36-2-15-4-31-8-47-5-20-6-41-8-62 0-10 4-19 8-28 5-12 4-23 0-37-8 15-13 27-16 41-3 13-4 25-3 38 0 2 0 5-1 7-9 16-8 33-9 50 0 24 0 49-1 73 0 2 0 6-1 7-9 6-4 11 0 16 6 8 4 16 4 25 0 2-2 3-4 4-14 7-27 0-27-16 0-20 3-41 5-61 6-43 10-86 7-129-1-12 1-24 3-35 4-34 2-68-6-102-20 23-24 51-34 78-2-3-3-5-5-9-19 30-23 64-26 100-11-42-10-79 12-114 14-22 31-44 42-68 8-20 14-39 21-59 11-31 28-56 59-70 29-13 58-25 87-37 13-6 26-13 32-26 11-20 28-33 46-44 31-22 61-44 91-67 43-33 79-73 122-105 15-11 29-24 48-31 5-2 2-4 1-7-5-9-8-19-7-29s3-11 11-6 12 12 16 19c2 4 14 5 16 1 2-2 0-5-1-6-7-7-7-16-11-23 19-2 35 8 42 27 2 5 4 8 10 11 11 6 23 12 27 27 4 10 16 16 25 23 10 9 17 19 21 31 3 7-1 11-7 13z"/></svg>