<svg width="64" height="64" viewBox="0 0 1000 1000" xmlns="http://www.w3.org/2000/svg"><path d="M808 310c9-31 0-61-11-90-4-8-7-16-9-23-1-3-3-7 0-9s5 1 8 3c40 29 71 66 95 109 3 4 5 8 7 12 4 11 11 19 4 33s-6 32-9 48c-4 20-13 39-28 54 31-21 36-58 50-92 10 23 14 44 18 65 6 35 6 71 2 107-1 5-1 10-6 14-3 2-5 7-6 10-8 19-16 38-31 54 17-10 23-28 36-43-1 11-4 20-7 28-13 45-35 84-68 117-3 3-6 8-12 4-1-1-4 1-6 1-20 10-41 21-64 22 19 5 37-6 57-8-7 10-16 13-24 18-47 27-99 37-153 35-1 0-3 1-4 0-7-11-19-9-29-11-11-3-21-6-31-11 9 11 24 12 35 19-17 1-33-3-49-8-31-9-58-25-81-48-9-10-18-19-18-35-1-17-6-34-2-52-8 14-4 30-7 46-5-2-6-7-8-10-22-51-19-101 4-151 3-8 14-7 18-15 1-3 3-4 5-6-5-3-7 2-11 2 1-8 7-12 11-18 24-31 54-55 95-60 29-4 79 10 89 48 2 9 4 18 3 28-5 31-31 30-49 21-5-2-10-5-13-9-18-19-43-13-56 13-11 25-12 50 4 73s39 30 66 28c23-2 44-10 63-23 27-18 37-45 33-77-8-68-50-111-118-124-17-3-33-4-50 0-6 1-12 1-18-1-49-15-87-45-111-91-17-35-12-69 11-99 26-35 63-51 103-60 4-1 7-1 8 4 2 7 8 10 13 14 17 12 34 23 49 38 19 18 32 41 40 67 0-14-5-27-10-40-11-25-30-46-49-66-3-4-7-8-11-13-5-7-2-11 6-11 23-1 46-1 69 2 35 4 69 12 102 25 6 2 10 3 8 12-1 7 5 13 9 19 12 19 24 37 31 58 6 18 7 35 7 53zm-394-90c-5 14-10 26-10 39-2 32 10 59 31 83 24 29 53 51 89 63 10 3 20 5 31 2 7-2 14 0 22 4-94 15-183 150-125 269-25 1-48 6-71 10-13 2-15 4-13 18 3 24 8 48 6 72-2 33-17 60-45 80 5-61-13-103-51-117 30 23 34 53 26 88-1-7-2-12-4-17-9-35-35-53-66-66-2-1-6-1-9 0-34 4-64-5-91-24-11-8-19-17-24-29-6-14-18-24-28-34-18-20-21-43-19-67 1-9 5-16 12-22 58-58 119-114 184-165 17-14 34-30 47-48 7-10 13-21 16-33 9-42 37-70 71-93 5-4 12-8 21-13zm-96 211c71-17 86-45 73-104-19 12-33 29-44 49-10 18-16 38-29 55z"/></svg>