<svg width="64" height="64" viewBox="0 0 1000 1000" xmlns="http://www.w3.org/2000/svg"><path d="M599 873c-18-7-17-21-29-27-3 27 5 54-14 77-10-7-13-22-24-31-6 6 1 13-4 19-11 4-15-10-24-12-7 10-7 20-10 30-1 4-3 7-6 8-4 2-8-2-8-5-3-26-32-41-28-69-12-1-5 13-15 14-2-7-3-14-5-21-2-5 2-13-6-15-6-1-5 9-11 11-6-6-2-13-1-18 6-15 2-27-5-39-15-26-22-54-21-85 1-27-6-52-16-77-24-59-44-119-44-184 0-39-19-66-57-78-58-19-67-68-70-116-1-15 11-12 18-9 17 6 32 16 47 26 24 17 48 35 71 53 11 8 20 9 30-1 2-2 7-2 5-5-8-19 8-27 16-39 9-12 6-29 2-43-15-64-52-115-101-156-6-5-11-9-18-14 31-3 81 19 111 48 29 29 47 65 61 102 8 19 13 39 25 55 22 34 51 34 73 1 7-11 11-23 16-35 13-30 24-61 42-89 33-50 80-76 144-86-47 36-82 74-106 121-11 22-20 45-20 70 0 13-4 29 14 36 6 3 4 9 2 14-7 12-2 18 9 26 12 9 18 2 26-4 33-26 65-54 102-76 7-4 16-11 23-7 10 6 5 18 4 26-5 47-21 87-71 105-37 14-47 48-47 83 1 60-18 116-37 171-12 33-19 66-21 101v2c-9 46-33 89-22 142zm35-434c13 0 23-5 24-17 1-8-7-17-16-17-14 1-20 15-23 26-3 10 10 6 15 8zm-268 0c5-2 17 3 14-9-3-11-9-23-21-25-10-1-19 8-18 18 2 13 13 16 25 16zm113 295c-8-27-29-46-40-70-2 32 18 52 40 70zm37 5c34-25 49-53 42-82-8 33-31 50-42 82zm17 53c-23 13-45 10-68 1 29 22 45 22 68-1z"/></svg>