<svg width="64" height="64" viewBox="0 0 1000 1000" xmlns="http://www.w3.org/2000/svg"><path d="M999 979c1-46-1-92-8-138-10-62-38-110-99-133-2-1-5-2-7-3-44-20-90-33-136-46-27-8-54-16-82-24v3l1 7c2 30 4 61-8 89-32 77-80 143-149 192-8 6-14 6-22 0-69-49-116-115-149-192-6-14-8-30-9-46 0-18 0-36 2-53h-3c-54 16-107 32-160 49-39 12-77 28-111 53-13 11-23 23-30 39-10 25-18 51-22 78-2 17-4 35-6 52v84c-1 8 1 10 9 10h989v-21zM259 520c33 1 66-1 99-3 20-1 39-2 59-5 0-3-2-4-3-6-44-52-64-113-69-180-1-6 1-8 7-9 9 0 17-2 24-4 73-23 130-64 164-136 3 10 7 19 11 28 20 40 52 65 96 76 7 1 9 4 9 11-1 17 0 33-2 49-7 62-27 118-68 165-1 2-3 3-2 6 11 1 22 3 33 4 43 2 86 5 130 3 6 0 9-2 11-8 17-34 27-71 30-109 8-77-5-152-35-223-28-66-72-120-134-158-29-18-60-24-94-14-4 1-8 0-12-1-37-10-74-8-110 7-56 24-98 64-129 115-41 67-61 140-64 218-2 55 6 109 29 160 4 10 10 14 20 14zm289 127c-18 17-39 21-62 17-13-2-25-8-34-17-5-6-13-6-18-1s-5 12 0 18c1 2 3 3 5 5 17 16 38 22 61 22 4 0 9 0 13-1 21-3 39-10 53-26 5-6 5-13 0-18s-13-5-18 1z"/></svg>