<svg width="64" height="64" viewBox="0 0 1000 1000" xmlns="http://www.w3.org/2000/svg"><path d="M809 195c-40-39-87-70-139-92-54-23-111-34-170-34s-116 11-170 34c-52 22-99 53-139 92-41 40-72 86-94 137-23 53-34 110-34 168s11 115 34 168c22 51 54 97 94 137 40 39 87 70 139 92 54 23 111 34 170 34s116-11 171-34c52-22 98-53 139-92 40-40 71-86 93-137 23-53 35-110 35-168s-12-115-35-168c-22-51-53-97-94-137zm42 270h-94c-7 0-13-6-14-13-3-45-10-88-20-127-2-8 2-15 9-17 17-6 33-12 49-19 6-3 15-1 20 5 32 46 54 100 62 158 1 7-5 13-12 13zM548 168c4 2 7 5 11 8 21 16 41 40 57 70 2 3 3 5 4 8 2 4-2 9-9 10-20 3-41 5-62 6-7 1-13-5-13-12v-83c0-8 5-11 12-7zm-107 8c4-3 7-6 11-8 7-4 12-1 12 7v83c0 7-6 13-13 12-21-1-42-3-62-6-7-1-12-6-9-10 1-3 2-5 4-8 16-30 36-54 57-70zm-94 165c2-7 9-11 16-10 29 5 58 8 88 10 7 0 13 6 13 14v97c0 7-6 13-13 13H341c-7 0-13-6-12-13 2-32 6-64 13-93 2-6 3-12 5-18zm117 208v96c0 8-6 14-13 14-30 2-59 5-87 10-7 1-15-3-17-10s-3-13-5-19c-6-29-11-60-13-92-1-7 5-13 12-13h110c7 0 13 6 13 14zm0 193v82c0 7-5 11-12 7-3-2-7-5-11-8-21-16-41-41-57-71-2-2-3-4-4-7-2-3 2-8 10-9 20-3 40-5 61-6 7-1 13 5 13 12zm95 81c-4 3-7 5-11 8-7 4-12 0-12-7v-82c0-7 6-13 13-12 21 1 41 3 61 6 8 1 12 5 10 9-1 2-2 5-4 7-16 31-36 55-57 71zm94-164c-2 7-10 11-17 10-28-5-57-8-87-10-7 0-13-6-13-14v-97c0-7 6-13 13-13h110c7 0 13 6 12 13-2 32-7 62-13 92-2 6-3 12-5 19zM536 452v-97c0-8 6-14 13-14 30-2 59-5 88-10 7-1 15 3 16 10 2 6 3 12 5 18 7 29 11 61 14 93 0 7-6 13-13 13H549c-7 0-13-6-13-13zm193-218c-7 3-14 5-21 7-7 3-15-1-18-8-4-7-7-13-11-20-5-10-11-20-18-30-4-6-2-8 5-5 23 12 45 26 65 42 6 5 5 11-2 14zm-390-50c-6 9-12 19-18 29-4 7-7 13-11 20-3 7-11 11-18 8-7-2-14-4-21-7s-8-9-2-14c20-16 42-30 65-42 7-3 9-1 5 6zM220 289c15 7 31 13 48 19 7 2 11 9 9 16-10 40-17 83-20 127 0 8-7 14-14 14h-94c-7 0-13-6-12-13 8-58 30-112 63-158 4-6 13-8 20-5zm-71 246h94c7 0 14 6 14 14 3 44 10 87 21 126 2 8-3 15-10 17-17 6-33 12-48 19-7 3-16 1-21-5-32-46-54-100-62-158-1-7 5-13 12-13zm122 231c7-3 14-5 22-8 7-2 15 2 18 9 3 6 6 12 10 19 6 11 13 21 19 31 5 6 3 9-4 5-24-11-46-26-67-42-6-5-5-11 2-14zm389 51c6-9 13-20 19-31 4-7 7-13 10-19 3-7 11-11 18-9 8 3 15 5 22 8s8 9 2 14c-20 16-43 31-67 43-7 3-9 1-4-6zm120-106c-15-7-31-13-48-19-8-2-12-10-10-17 11-39 18-82 21-127 0-7 7-13 14-13h94c7 0 13 6 12 13-8 58-30 112-62 158-5 6-14 8-21 5z"/></svg>