<svg width="64" height="64" viewBox="0 0 1000 1000" xmlns="http://www.w3.org/2000/svg"><path d="M948 413v49c-2 11-3 23-5 34-36 221-238 367-458 326-152-28-256-119-303-266-47-149-14-285 97-396C482-44 824 34 924 304c13 35 18 72 24 109zM280 234c20 0 20 0 20 19 1 18-1 37 8 54 9 18 18 37 26 55 5 12 13 19 27 17 12-1 22 4 26 16 18 41 50 68 87 91 14 10 28 18 46 16 13-1 19 5 18 19-1 18 0 37 0 55 0 13 4 19 17 18 12 0 18 4 18 17 1 13-4 20-17 19-14-1-19 6-18 19v75c0 54-7 47 48 47 8 0 17 2 19-8 1-12-9-10-16-11-4 0-8 1-9-4-1-4 3-6 5-8 9-9 18-17 27-25 44-38 85-78 104-136 8-25 6-35-17-48-6-2-12-5-17-8-48-31-98-46-156-41-35 2-58-26-75-51-20-29 0-55 35-52 10 1 14 5 14 15v31c0 9 4 15 14 15 8 0 11-6 11-14 0-14 2-28 0-42-3-25 7-42 28-54 10-6 19-10 31-10h43c6 0 15 1 15-7 0-10-9-9-16-10h-6c-12 1-17-5-17-16v-18c0-24 0-24-24-28-9-1-11-4-5-11l20-20c5-6 12-13 9-21-3-10-13-6-21-7-37-3-57-24-57-62v-12c2-10-3-12-13-11-31 5-61 12-90 25-57 25-104 61-142 112zm338-102v22c-1 10 4 15 14 16 24 4 24 4 24 29v16c0 10 7 14 16 14 8-1 15-3 21-8 20-16 39-32 59-47 10-8 7-12-1-18-32-21-65-37-101-48-32-9-32-9-32 24zM52 406c7-46 13-92 28-137C118 161 184 75 277 10c22-15 43-13 55 4 13 18 7 38-15 53-110 77-175 183-192 316-27 219 117 428 331 482 119 30 231 13 336-48 5-3 10-7 15-9 17-7 37 0 45 16 8 17 3 36-15 47-35 23-74 40-114 53-5 2-12 1-16 8 33 17 69 30 85 68H299c10-30 36-44 61-57 14-7 28-12 43-18-4-7-10-7-15-9-142-55-242-154-300-295-21-51-30-105-36-159v-56z"/></svg>