<svg width="64" height="64" viewBox="0 0 1000 1000" xmlns="http://www.w3.org/2000/svg"><path d="M821 410c-1 39-17 67-54 82-37 14-74 30-111 46-16 7-33 7-49 3-8-1-14-1-20 2-21 9-43 17-64 26-20 9-40 11-62 5-7-3-13-1-19 4l-35 26c-28 23-56 23-86 4-29-18-51-43-58-78-3-15 0-29 8-41 11-16 23-32 35-47 5-6 6-11 4-19-6-21-5-41 4-62s17-43 27-64c2-7 3-13 1-20-3-17-3-34 4-50 14-35 29-69 43-105 20-53 62-67 113-56 49 10 91 35 129 65 67 51 124 112 164 188 15 29 25 59 26 91zM485 547c25 1 37-15 33-39-6-30-21-55-40-77-28-32-60-58-104-66-22-4-37 9-38 32 0 18 7 33 15 47 3 5 3 9-1 14-11 13-21 28-31 42-4 5-6 8 3 11 23 10 41 27 50 51 3 7 6 7 11 3 13-10 26-19 39-29 7-6 12-7 21-2 12 9 27 13 42 13zm131-108c0-7-1-14-2-20-21-73-69-121-138-146-39-14-79-7-95 44-3 7-2 9 6 11 15 3 29 9 43 16 61 36 108 84 126 155 1 4 2 6 7 5 33-6 53-31 53-65zM396 825c-2 60-30 96-76 108-51 14-101-5-126-46-15-26-19-55-10-84 8-29 24-55 40-80 20-31 43-60 65-88 5-7 8-9 14-1 31 47 61 94 81 146 7 17 12 35 12 45zm-174-28c-9-1-13 5-15 12-7 27 0 51 14 73 2 4 6 6 9 8 13 8 25 3 29-11 3-13 0-25-8-35s-14-20-13-33c0-10-7-14-16-14z"/></svg>