<svg width="64" height="64" viewBox="0 0 1000 1000" xmlns="http://www.w3.org/2000/svg"><path d="M997 317c7-7 0-17-8-18l-91-5c18-45 36-89 55-134 4-11-8-21-17-12-35 31-70 63-104 95-2 2-5 3-7 5-4-5-10-10-12-12-11-18-31-35-46-51-5-5-17-2-18 5l-7 46c-2 19-12 39 0 39-24 2-74-22-96-28-11-3-17 11-10 18l54 59c9 10 24-5 15-15-10-11-19-21-29-32 22 6 45 12 67 18 6 2 12-2 13-8l11-71c17 19 33 37 50 55 4 5 11 4 15 0 28-25 56-51 84-76-14 34-29 69-43 103-3 8 1 16 10 16l81 5-66 60c-5 4-4 12 0 15 14 15 28 30 43 45l-47-16c-13-4-18 17-5 21 29 9 58 19 87 28 10 4 16-11 9-18-12-12-24-25-36-37-13-14-27-40-33-28 10-23 63-56 81-72zm-76 508c-21 1-41 0-62 1-10 0-14-2-14-14 1-138 1-277 1-415 0-33-8-41-41-41H205c-28 0-56 0-83 1-20 0-30 11-31 31v64c0 120 0 239 1 359 0 11-3 15-15 15-21-1-42 0-63-1-14-1-13 6-14 16-1 13 5 15 15 15h453c151 0 302-1 453 0 14 0 16-4 16-17 1-14-6-14-16-14zM788 432c-7-6-13-12-18-17 20-4 20-4 18 17zm-16 4c7 8 19 13 16 26 3 13-8 18-15 25-17 18-17 17-34 1-8-9-21-16-23-26-1-10 14-17 22-25 17-19 17-19 34-1zm17 54v46c-30-28-30-20 0-46zm-45-77c-14 14-25 26-37 37-3 3-5 0-7-2-11-10-22-21-36-35h80zm-91 8c2 1 4 2 5 3l34 34c4 4 1 7-2 10-10 10-21 20-31 31-4 4-7 5-11 0l-32-32c-4-3-5-6-1-10l33-33c1-1 3-2 5-3zm-12-7c-13 13-24 24-35 36-3 2-6 1-8-1-11-11-23-22-37-35h80zm-88 7c1 1 2 3 4 5 6 5 12 11 18 17 18 19 18 19-1 38-23 24-23 24-46 0-19-19-19-19 0-38 5-6 11-12 16-17 2-2 4-5 9-5zm-89-7h70l2 3c-11 10-22 20-33 31-4 4-7 2-10-1-10-10-21-20-31-30l2-3zm-102-1h71c-10 14-22 24-33 35-2 3-5 3-7 0-12-10-23-20-34-31l3-4zm-12 10l35 35s1 1 2 3c-2 2-4 4-5 6-11 10-21 21-31 31-4 4-7 5-11 0-10-10-20-20-31-30-4-5-5-8 0-12 11-11 21-22 32-32 3-3 5-5 9-1zm-90-9h74c-13 13-24 24-36 35-3 3-5 2-8-1-11-10-22-20-33-31l3-3zm-6 15c6 7 13 12 19 18 13 14 13 14 0 28-7 7-15 15-23 22-2 2-4 4-7 6-3-3-6-6-9-8-10-11-28-21-29-33s19-21 28-33c8-9 14-10 21 0zm-26-15l3 4c-11 10-22 20-34 30-3 3-5 3-8 0-11-10-23-20-34-34h73zm-79 16c2 1 3 1 4 2 34 31 34 33-4 63v-65zm-1 307l4-4 27 30c4 5 2 7-2 11-9 8-17 18-29 30v-67zm78 88c-25 1-51 0-80 0 16-16 29-30 42-44 5-4 7-1 10 2 11 10 21 21 32 32 6 6 3 10-4 10zm17-15c-2-1-3-2-4-4-2-1-3-2-5-4-10-11-31-22-29-33 3-14 21-24 33-37 4-4 7-5 12 0 10 11 20 21 30 31 3 3 7 6 2 10-11 12-23 23-35 35-1 1-3 1-4 2zm92 12c-1 2-4 3-7 3h-65c-3 0-7 0-8-4-2-3 1-5 3-7 10-10 21-20 31-31 4-4 6-5 11 0 10 11 21 21 32 32 2 2 5 3 3 7zm-25-47c-3-2-7-5-3-9 12-13 25-25 38-37 0-1 2 0 4 0 10 11 20 22 32 33 7 6 6 11-1 16l-1 1c-11 10-22 21-32 31-14-10-25-23-37-35zm126 47c-1 4-4 3-7 3h-65c-3 0-6 0-7-3-2-3 1-5 3-7l32-33c3-3 6-3 9 1 11 11 22 21 32 32 2 2 5 4 3 7zm103 0c-2 3-5 3-8 3h-65c-4 0-7 0-8-3s2-5 4-6c11-11 22-22 32-34 4-3 6-3 10 1 10 11 21 21 32 32 2 2 4 4 3 7zm5-17c-11-13-33-23-31-37 1-13 21-25 33-37 3-3 6-5 9-1 12 11 24 23 36 35 1 1 1 2 2 4l-5 5c-10 10-21 20-31 31-5 5-8 5-13 0zm98 16c-1 4-6 4-10 4h-62c-4 0-7-1-8-4-1-4 2-5 4-7 10-10 20-20 29-30 5-6 9-6 14 0 9 10 19 19 29 29 2 2 6 4 4 8zm6-15l-31-31c-5-5-5-9 0-13 10-10 20-19 29-29 5-5 9-6 14 0 9 10 19 19 29 28 2 2 4 5 5 7 0 1 0 2-1 3-13 13-25 26-38 38-3 2-5-1-7-3zm96 15c-1 4-4 4-8 4h-64c-4 0-7-1-8-3-2-4 2-6 3-7 11-11 21-21 31-32 4-4 8-5 12 0 10 10 21 20 31 31 2 2 5 4 3 7zm45-7c-1 10-10 15-20 10-4-3-4-5 0-9l4-4c4-4 8-9 12-14l4 2v15zm-19-18c-16 17-12 18-29 0-9-9-26-17-24-29 1-10 16-18 25-27 13-14 14-14 27 0 8 8 20 14 20 30 1 13-11 18-19 26zm9-111c-6 6-11 13-7 22 6-1 8-8 15-11 3 14 1 28 1 43-8-3-11-9-16-14-11-10-22-10-32 0-9 8-18 16-26 25-7 8-12 10-19 1s-16-17-25-25c-11-12-22-12-34 0-9 9-18 17-26 27-6 6-10 6-16 0-8-10-18-19-27-28-10-9-22-10-31-1l-27 27c-7 8-13 8-19-1-3-3-7-7-11-10-4-4-8 0-11 2-4 4 1 6 3 8 18 21 18 21-1 40-22 22-22 22-45-1l-1-1c-17-17-17-17-3-37-7-2-13-3-18 3-5 7-9 6-13 0-11-13-27-19-41-26-7-9-13-10-21-1-11 11-21 31-34 30-11-1-22-19-33-30-13-13-24-13-38 1-8 8-16 16-24 25-5 5-9 6-14 0-10-11-20-21-30-30-5-5-5-8 0-12l24-24c5-4 4-8 0-12-5-4-7 1-9 4-6 6-13 13-21 23v-67c9 2 11 12 19 16 0-17 0-17-11-27-6-6-9-11 0-17 12-8 16-22 18-38l-22 29-5-3v-61l5-4c8 9 16 19 24 28 2 3 4 7 9 3 4-4 3-8-1-11-10-10-19-20-29-29-4-5-7-8-1-13 11-10 21-21 31-31 5-6 8-4 13 1 8 9 16 18 26 26 8 7 9 12-1 19-4 3-8 5-10 11 16-4 30-13 48-9-12-10-7-17 2-24 5-4 9-9 13-14 18-18 18-18 36 0 1 2 2 3 4 4 19 20 19 20 1 40-3 2-8 4-2 9 4 3 6 4 10-1 21-20 42-40 62-61 7-7 10-7 17-1 9 9 15 22 35 16-10-10-19-18-28-26-6-4-6-8 0-13 10-10 20-20 29-30 5-4 8-5 12 0 10 11 21 21 31 31 6 5 5 8 0 12-11 9-21 19-32 29 10 8 16 7 22 0 9-8 16-24 27-22 9 1 17 15 25 23 1 0 2 1 2 2 14 14 14 14 0 28-2 3-4 5-7 7-3 4-2 6 1 9 2 3 5 2 7 0 1 0 1-1 1-1 10-13 22-22 41-13-9-18-10-18 4-31 9-9 17-25 27-24 9 0 18 15 27 23 0 1 1 1 2 2 10 8 17 16 1 28 15-2 28-2 45 1-18-13-12-21-1-29 7-6 13-12 18-19 8-10 14-8 21 0 3 4 6 7 10 11 22 22 22 22-1 45-12 12-12 12-7 28 10-12 21-23 31-35 5-6 9-7 15-1 6 8 15 14 21 22 7 8 7 18 1 27 0 1-1 2-2 2-10 8-17 25-27 24-9 0-18-15-27-23-5-4-8-10-15-13-4 8-1 14 4 19 6 6 12 12 18 19 2 1 5 3 5 5 2 21 19 11 30 14-2 10 1 17 8 24 14 13 14 24 0 37zm9-49c-8-1-10-10-17-12-5-6-7-11 1-17 5-4 8-10 13-14 5 15 3 29 3 43zM424 533c-50-1-91 39-92 88s39 91 89 92c49 0 91-40 91-89 1-49-40-91-88-91zm2 13c1-5 5-3 8-3 17 3 31 10 45 23-20 1-35-3-49-14-2-1-5-2-4-6zm11 48c6 11 14 22 17 34 3 11-17 24-34 24-15 0-32-15-32-27 0-11 20-34 31-34 6 1 14-3 18 3zm-25-51c2-1 6-1 7 3s-2 5-5 6c-14 7-27 14-46 12 13-13 28-18 44-21zm-31 26c12-2 23 10 19 22-4 10-12 20-18 30-2 4-8 2-14 3-5 2-7-3-10-8-12-24-4-42 23-47zm-35 81c-5-15-4-30-2-48 11 16 15 30 14 46-1 3-1 7-5 8-5 1-5-3-7-6zm10 18c-1-2-4-4-1-6s5-3 8-1c15 8 28 17 34 37-19-5-31-16-41-30zm35 5c0-8 6-14 14-16h17c5 1 13-2 19 3 5 4 13 9 11 15-4 10-11 19-22 23-16 6-39-8-39-25zm95-1c-11 14-25 23-46 29 11-18 24-28 39-37 3-2 6-3 9 0s0 5-2 8zm11-19c-2 2-2 6-6 6-4-1-4-4-5-8-1-16 4-31 14-49 3 20 3 36-3 51zm-13-29c-2 5-7 2-10 2-9 1-15-2-18-9-4-8-10-15-13-23-5-13 5-23 18-23 18-1 25 10 31 23 5 12-5 20-8 30zm-197-6c-5 0-10 1-15 0-10-1-11 5-11 13 1 12 11 5 16 7 4 1 10-3 11 4 1 6 1 11-6 15-22 13-47 4-52-22-3-10-2-21 1-31 3-12 11-18 23-20 11-3 23-1 30 10 7 12 17 7 23 2 7-4-1-12-4-17-21-27-78-20-92 13-11 23-10 48 5 70 15 21 37 22 59 20 29-4 37-13 37-39 0-25 0-25-25-25zm307-40c-3-8-5-16-16-13-5 2-13-3-16 6-13 34-27 67-40 101-1 4-2 8 3 8 9 0 21 4 23-10 2-13 10-16 22-16 17 1 33-3 38 21 2 9 16 6 22 4 7-2 0-9-1-13-11-30-23-59-35-88zm-5 55c-7 4-16 3-24 1-5-1-2-5-1-8 3-10 7-20 12-33 4 11 8 18 10 26 2 5 7 12 3 14zm136 28h-37c-10 1-14-2-13-13 0-24-1-48 0-73 0-8-3-10-11-10s-13 0-13 10c1 16 0 32 0 47v48c0 7 2 10 9 10h65c8 0 8-5 8-10 0-6-2-9-8-9z"/></svg>