<svg width="64" height="64" viewBox="0 0 1000 1000" xmlns="http://www.w3.org/2000/svg"><path d="M983 423c-21-24-41-19-62 0-17 16-34 29-51 44-25 21-33 11-32-17 0-65 0-130 2-196 1-23 6-47-26-51-33-4-37 18-42 45-8 41 0 84-22 137-10-60-19-105-16-152 1-30-14-45-44-42-30 2-27 22-26 44 1 41 15 82 1 133-14-40-24-71-36-101-7-16-10-39-38-29-27 11-32 28-22 54 15 35 28 72 45 117-26-19-30-40-40-57-10-18-19-32-44-18-23 13-27 27-14 50 23 39 36 83 39 127 4 54 15 106 38 154 8 15 7 24-5 40-23 30-9 51 28 52 33 1 66 0 98-1 41-1 96 16 86-59-1-4 4-10 8-13 74-50 93-149 174-194 27-15 20-44 1-67zM745 658c-14 3-28 3-41 4-49 7-75-16-86-61-2-10-7-19-9-29-21-103 35-161 139-145 11 2 26 3 25 14-3 46 34 73 52 108 16 34-34 100-80 109zm28 114c-48-1-97-1-145 0-11 0-26-2-25 16 1 13 8 24 23 24 24 1 48 0 72 0 26 0 51 1 77-1 14 0 21-11 20-25 0-15-12-14-22-14zM415 417c-11 10-23 21-35 30-13 9-24 31-43 22-15-8-7-28-7-43V235c0-23-12-34-35-36-25-1-24 16-29 33-11 44-1 91-23 140-22-53-12-102-21-149-5-23-10-39-39-35s-32 21-30 44c5 42 8 84 12 126-19-23-27-48-38-72-11-22-7-64-50-49-40 14-18 44-9 69l27 75-10 4c-5-8-10-17-15-26-10-20-17-44-49-29s-21 37-10 60c19 35 29 73 33 113 5 55 13 109 40 159 7 13 10 23-4 39-23 28-10 49 28 50s76 0 113 0 82 11 69-53c-1-5 4-14 9-18 74-51 93-149 174-194 28-16 18-45 0-67-19-23-38-20-58-2zM260 769c-22-1-45 0-67 0h-72c-11 1-26-3-27 15 0 14 9 25 21 26 50 1 100 1 149-1 13 0 22-12 22-24 1-19-15-16-26-16z"/></svg>