<svg width="64" height="64" viewBox="0 0 1000 1000" xmlns="http://www.w3.org/2000/svg"><path d="M233 466c11-78 41-113 114-126 48-8 86-27 112-69 8-14 19-19 34-10 4 3 9 6 14 2 20-14 33-3 43 14 24 39 61 56 105 63 59 8 99 41 112 101 1 6 2 12 3 23-31-28-60-48-98-55-52-9-92 22-91 75 1 30-3 58-18 85-12 23-14 50 3 73 4 6 6 11 3 18-8 17-50 47-67 47-19 0-61-30-69-49-3-5-1-8 2-12 23-29 16-58 1-86-10-21-15-40-13-64 6-68-44-103-113-81-29 9-52 27-77 51zm268-9c22-44 16-89 1-133-16 45-20 89-1 133zM63 173c87-69 202-68 290-1 33 25 62 55 100 75 6 3 8 6 4 12-23 30-44 60-86 64-9 1-15 3-18-9-36-121-141-176-272-145-6 2-11 2-18 4zm875-3c-28-2-53-9-78-9-102-1-175 49-207 147-5 15-11 17-25 15-40-6-59-37-81-64-4-4-3-8 3-11 45-24 80-62 121-91 76-51 170-49 267 13zM459 824c-16-20-18-40-15-60 1-11 7-14 16-8 28 21 54 22 82 1 12-9 18-1 19 11 1 17 0 33-13 51-3-13-2-28-18-25s-17 18-17 31c1 17 9 32 14 49-15-1-16-22-27-19-9 2-12 18-25 24 6-22 17-41 14-63-2-13-5-25-22-21-14 3-7 15-8 29zm115-145c-5 47-42 88-75 85-34-3-69-45-67-81 11 2 22 9 26 16 12 25 34 22 55 22 11 1 19-2 24-12 9-14 23-20 37-30zm-7-59c-2-34 13-58 21-83 6-17 6-36 31-36 7 0 12-8 14-15 2-6 3-12-2-16-6-5-10 1-15 4-4 4-6 13-14 9-3-2-5-7-5-10-1-10 9-8 14-10 15-7 22-22 32-37 17 30 9 57-5 82-21 36-45 72-71 112zM360 429c11 15 20 31 40 36 10 3 8 10 4 15-4 7-8 5-13-1s-11-18-19-7c-9 11 0 23 10 27 53 23 37 76 54 115-30-60-101-104-76-185z"/></svg>