<svg width="64" height="64" viewBox="0 0 1000 1000" xmlns="http://www.w3.org/2000/svg"><path d="M404 0h22c16 9 34 10 51 14 43 10 54 21 55 65 4 94 8 187 10 281 1 22 7 23 25 18 11-4 12-12 15-20 19-50 37-100 56-150 12-30 29-43 54-40 20 2 40 5 60 6 20 0 32 8 42 23v27c-21 34-30 37-70 27-12-4-24-5-35-10-13-6-19-2-24 12-10 29-21 59-33 88-6 16-11 28 12 33 9 2 15 10 19 19 3 9 10 10 19 11 25 3 35 15 36 40v74c-1 24-9 35-34 39-11 2-15 6-14 17 0 28 1 55-1 83-1 18 6 25 23 22h16c30 2 42 13 42 43v177c0 30-13 42-43 42-6 0-13 1-20 0-11-1-17 2-19 15-4 28-22 43-51 44H402c-31-1-50-19-52-50-1-14-2-28-1-42 3-24-4-42-22-57-11-10-19-22-26-34-45-81-54-167-35-256 7-35 23-68 54-89 17-11 34-20 44-39 5-9 17-15 28-15 17-1 18-7 13-21-20-51-39-102-58-153-18-49-18-49-69-35-41 11-49 8-71-25v-27c8-17 22-24 41-25 15-1 30-2 44-4 42-5 57 3 72 43 25 68 51 137 76 205 11 29 11 29 42 22 3-1 6-2 8-3 11 0 14-6 13-16-3-92-7-183-10-275 0-12-6-15-16-15-19-1-38-2-56-4-26-2-42-22-39-48 1-16 12-26 22-37zm-57 788V519c-53 29-48 209 0 269z"/></svg>