<svg width="64" height="64" viewBox="0 0 1000 1000" xmlns="http://www.w3.org/2000/svg"><path d="M773 592c37 1 74 0 111 0 9-1 18-5 27-7-3-10-3-21-9-29-29-46-70-79-120-102-9-4-20-15-21-24-8-58-14-117-20-176-1-5 1-10 1-18 16 0 30-1 44 0 22 2 25-9 21-27-7-34-31-49-60-61H203c-51 22-67 44-60 88 26 0 53-1 80 1 7 0 19 11 19 17 1 81 1 163 0 245 0 2-1 3-3 6-3 1-7 3-10 2-83-9-123 41-152 107-5 10-10 21-15 31v35c11 8 21 15 32 23 51-91 105-124 175-110 71 15 112 66 123 158 49 0 98 1 148 0 38-1 82 10 111-7 27-16 38-61 56-93 5-9 11-19 15-28 10-22 27-32 51-31zm-81-95c-34-33-62-59-91-86 9-10 19-17 22-26s4-25-1-30c-6-6-25-8-30-3-29 28-57 57-82 87-5 6-4 24 1 28 7 5 22 7 30 4 10-4 16-17 25-27 32 30 62 57 91 86 4 3 5 14 3 19-17 37-34 73-53 108-3 6-12 12-19 12-40 2-80 1-124 1V564c-1-44-13-56-56-56-34-1-68 0-105 0V238c8 0 16-2 25-2h327c18 0 27 5 28 24 6 60 13 120 18 180 2 16-5 33-9 57zm131 128c-63 1-112 51-111 115 0 63 50 113 114 112 63 0 112-51 112-114-1-63-52-114-115-113zm0 150c-20 0-37-18-35-38 2-21 14-34 36-34 21-1 37 15 37 36 0 20-18 37-38 36zM243 625c-62-1-114 51-115 113 0 62 50 114 113 114 63 1 113-49 114-113 0-63-50-113-112-114zm0 150c-20 1-39-16-38-36s11-35 34-36c24-2 37 12 40 34 3 19-16 37-36 38z"/></svg>