<svg width="64" height="64" viewBox="0 0 1000 1000" xmlns="http://www.w3.org/2000/svg"><path d="M331 440v-3c0-1 0-2-1-3l-1-9-1-3-2-8c-1-1-1-2-1-3-1-3-2-6-2-9 0-1-1-2-1-3l-2-7-2-3c0-3-1-5-2-8l-1-2c-1-3-2-6-3-8l-1-3c-1-2-2-5-3-7 0-1-1-2-1-2-1-3-2-5-3-7l-1-3-3-6c-1-1-1-2-2-3l-4-6c-1-1-2-2-2-3l-6-4s-1-1-2-1c-5-3-10-4-15-6h-11c-1 1-3 1-4 1-12 3-20 10-26 20l-2 5c-1 4-2 8-2 12v3l2 9 1 3 3 7c1 0 1 1 1 1 2 3 3 6 4 8l1 3c1 2 2 5 3 7l1 3c1 3 2 5 3 8v2c2 2 2 5 3 8l1 3c1 3 1 6 2 8v2c2 3 2 6 2 10 2 4 3 8 3 13 9 54 2 107-20 158-1 1-2 2-2 4h-1c0 2-1 3-2 5-2 5-4 10-5 15v4l1 9 1 3 4 7 1 2 5 6 1 1c9 7 19 10 30 9 7 0 14-3 20-7h1c2-3 5-5 8-8v-1c4-7 7-13 11-20v-1c1-3 2-5 3-7l6-15 1-6 5-15c1-2 1-4 2-6l3-12 1-5c7-32 9-65 8-97-1-13-2-26-5-39zM24 411zm106 81c0-5-1-10-2-15-2-3-5-5-7-8-1-1-2-2-2-3-2-1-4-3-5-5-1 0-2-1-2-2l-5-5-3-2c-2-1-4-3-5-5l-2-1c-2-2-4-3-6-5 0-1-1-1-1-1l-6-5c-1-1-2-1-3-2l-5-4-3-2-6-3-2-2-7-4s-1-1-2-1c-2-1-5-3-7-4l-2-1c-3-1-6-2-8-2h-4l-11 1h-1l-4 2h-1l-1 1c-7 5-12 11-15 19-1 2-1 4-2 6v10c2 6 4 11 7 16l2 2c2 2 4 3 6 5 0 0 1 1 2 1 2 2 4 3 6 4l3 2c2 1 4 2 6 4l2 1c2 1 4 3 6 5 1 0 2 1 2 1 2 2 4 3 6 5l1 2c3 1 4 3 6 5l2 2c2 1 4 3 5 5l2 2c2 2 3 4 4 6l2 2c1 2 3 4 4 6 0 0 1 1 1 2 2 2 4 4 5 7 0 1 1 1 1 2 2 2 3 4 4 6l1 3c1 2 3 5 3 7l2 3 2 6 1 4c1 2 2 5 3 7v4c1 2 2 5 3 8v3c1 3 2 6 2 9v2c0 1 0 1 1 1 2-7 7-14 10-21 14-27 19-55 17-86zm96 100v3c1 3 1 6 1 10 1 0 1 1 0 2l1 11c1-2 2-3 2-4 22-51 29-104 21-158l-7-10-4-5c-1-1-1-2-2-2-2-2-3-4-5-6 0 0-1-1-1-2-2-1-4-3-5-5-1-1-1-2-2-3-2-1-4-3-5-5l-2-2-5-5-2-2-5-5-2-2-6-5-2-1c-2-2-4-3-6-5l-1-1c-2-2-5-3-6-5-1 0-2-1-2-2-3-1-4-2-6-4h-2c13 20 22 42 29 65 6 24 9 49 7 75 0 4 0 8-1 12l3 6 1 2c1 3 2 5 2 8l2 3c0 2 2 5 2 7 0 1 1 2 1 3 1 3 1 6 2 9 0 1 1 2 1 3l1 8c1 1 1 2 1 3 1 3 1 6 2 9zm-31-13zm-25-200l-1-1c-2-1-3-3-5-5-1 0-2-1-2-2l-7-3-3-1-9-2h-3c-4 0-8 1-12 2 0 1-1 1-2 1l-5 3h-1l-1 1-6 6v1l-1 1s-1 0-1 1l-3 7c-2 4-3 8-3 12v4l1 8 1 3 4 7c1 0 1 1 1 2 2 2 3 4 4 7 1 1 1 1 1 2 2 2 3 5 3 7l2 3c1 2 2 5 2 8 1 0 1 1 1 2l3 8v3c2 4 2 9 3 13 1 5 2 10 2 15 3 30-3 59-16 87-4 7-8 13-11 21-1 3-1 7-2 11 1 1 1 2 1 3l2 9v1c2 3 3 5 5 8l2 2 5 5c1 0 1 0 2 1l6 3 3 1 9 2h4l12-3 8-4 6-6c2-3 3-6 5-8l1-2c3-6 7-13 10-20 1-2 2-5 3-7l6-15v-2c0-1 1-3 2-4 1-5 2-9 3-14 1-2 1-3 1-5l3-13c0-1 0-2 1-4 0-3 0-5 1-8 0-4 0-8 1-12 1-26-2-51-8-75-6-23-16-45-28-65zm807 125c7 1 15 1 23 1v-16h-22c-6 1-8-2-8-8v-45c-17 4-17 4-17 19v20c1 10-1 16-13 14-7-1-7 3-7 8s1 7 7 8c13 0 13 1 13 14v91c0 16 7 25 20 27 9 1 18 1 27-2v-15c-4-3-7 0-10 0-15 2-20-2-20-16v-66-26c0-6 1-8 7-8zm-363-41c10-7 10-18 1-26l-7-5c-2-3-2-5 0-8 1-1 3-2 4-4 7-6 8-16 1-23 0-1-1-1-1-3 4 1 8 0 11-4-8 0-16 0-24 1-5 0-10 1-14 4-6 5-9 11-8 18 2 7 6 11 12 13 2 0 4 1 6 0 2 0 2 1 2 2-1 3 0 6 2 9h-3c-6 1-13 2-19 7-8 6-7 17 2 22 10 5 27 4 35-3zm-22-43c-3-4-5-9-6-15 0-7 4-11 11-11 3 0 5 2 7 5 3 4 5 9 5 15-1 4-3 7-7 9-3 1-7 0-10-3zm-5 23c3-2 7-3 12-3 6 0 14 7 15 12s-1 9-6 11c-7 3-15 3-22-2s-6-14 1-18zm-153-3c8-1 15-2 23-4 3-1 3-2 3-4 1-6-2-12 4-18-6 0-12 1-18 0-4 0-6 3-10 4 4 1 8 0 11 0s3 1 3 3v10c0 2-1 3-3 3-5 2-9 2-14 1-19-3-30-18-29-37 1-11 5-19 15-23s20-4 28 3c4 3 4 3 2 7 5 0 6-4 9-6s2-3 0-4c-12-6-24-8-36-5-19 4-31 22-28 40 3 20 19 32 40 30zm114-51c-15 0-27 11-27 25 1 14 11 25 26 25s26-11 26-26c0-13-11-24-25-24zm4 46c-6 2-13-2-16-10-4-6-5-13-4-21 1-6 4-9 10-11s10 0 14 5c5 6 6 13 7 19 0 11-4 16-11 18zm10 54c-6-4-16 1-18 9-7 34-13 67-20 101-1 4-1 10-6 14-8-38-17-76-24-113-2-9-5-12-14-11-8 0-13 0-15 10-8 38-17 75-25 113h-2l-10-43c-5-24-10-49-15-74-2-11-10-6-15-6-8 0-4 6-3 9 10 43 20 86 29 130 2 6 5 9 11 8 7-1 15 3 17-9 3-19 8-38 13-58 4-19 9-37 13-56 3 3 4 6 5 10 7 33 15 67 22 100 2 11 6 14 15 13 6-1 11 1 13-8 10-44 20-88 30-133 1-2 2-4-1-6zm-70-50c15 0 26-11 26-25s-10-25-24-25c-15 0-27 11-27 25s10 25 25 25zm-14-36c1-6 5-9 11-10s10 1 13 6c4 6 6 13 6 20 0 2 0 4-1 7-3 10-15 13-22 5s-9-18-7-28zm185 35c8 2 19 1 26-7h-1c-15 7-27-1-31-16-1-2 0-2 2-2 2-1 4 0 6-1 7-3 14-6 22-9 1 0 1-1 1-3-2-5-7-9-12-10-16-4-30 9-29 26 0 10 7 19 16 22zm1-44c5-2 10 0 13 4 1 3 1 5-2 6l-16 7c-3 1-3 1-3-2v-1c0-8 3-12 8-14zm-37-26c2 0 3 1 3 3-1 18-1 36-1 54 0 4 1 9-3 12 7-1 15 2 21-1v-1c-1 0-3-1-4-1-3 0-4-1-4-4 0-19-1-38 0-57 1-3 1-6 5-8-11-2-18-1-21 3h4zm61 254c1-5 0-11 0-16v-76c-1-23-11-38-33-43-10-2-22-3-33 0-15 4-26 13-32 28-5 11-4 11 7 13 5 0 7-1 8-5 1-6 4-10 9-14 12-10 26-10 41-5 12 5 15 16 15 27v11c1 5-1 6-6 5-12-4-25-5-37-4-24 3-42 19-43 41-2 30 12 49 37 54 18 3 34-2 49-16-1 14 7 16 15 14 10-3 2-10 3-14zm-17-45c-1 2-1 4-1 6 0 28-24 47-50 38-13-5-20-17-19-34 1-14 10-25 24-27 11-3 22-1 34 1 9 2 13 6 12 16zm169-11h38c13 0 25-1 38 0 5 0 7-2 7-7-1-16-2-31-9-45-9-20-25-29-45-29-21 1-37 10-45 30-12 30-12 61-1 91 9 25 30 36 57 32 22-2 38-20 42-45 0-4 0-6-5-7-8-2-13-1-15 9-3 17-14 26-28 27-17 1-29-7-36-23-3-9-4-18-5-27 0-5 2-7 7-6zm24-64c20-2 34 9 39 33 2 15 2 15-12 15h-51c-2 0-5 1-6-3-4-16 13-43 30-45zm-75 30v-97c1-6-1-9-8-9-6 0-9 1-9 9v192c0 8 3 9 9 9 7 0 8-2 8-9v-95zm-52-1v-96c0-6-2-9-8-9-7 0-9 2-9 9 1 64 0 128 0 192 0 7 2 9 9 9 6 0 8-2 8-9v-96z"/></svg>