<svg width="64" height="64" viewBox="0 0 1000 1000" xmlns="http://www.w3.org/2000/svg"><path d="M847 154H153C69 154 0 223 0 308v384c0 85 69 154 153 154h694c84 0 153-69 153-154V308c0-85-69-154-153-154zM614 419c4 1 7 4 8 8 1 1 1 2 0 2l-16 6c-2 1-3 1-5 1-1 0-2 1-1 2 3 10 12 16 22 11h1c-5 7-13 7-19 5s-11-9-11-16c-1-12 9-21 21-19zm-23-18c-3 2-4 4-4 6-1 14 0 28 0 42 0 2 1 3 3 3h3v1c-5 3-10 0-15 1 2-2 1-6 1-8 0-14 0-27 1-41 0-1 0-1-2-1h-3c3-3 7-4 16-3zm-110 18c10 0 18 8 18 18s-9 18-20 18c-10 0-18-8-18-18s9-18 20-18zm-53-14c9-2 18-1 26 4 2 1 2 1 1 2-2 2-4 5-7 5 1-3 1-3-1-5-7-5-14-6-21-2-7 3-10 9-11 16-1 14 8 26 21 28 4 0 7 0 11-1 1 0 2-1 2-2v-8c0-1 0-2-2-2-3 1-6 1-8 1 2-2 4-4 7-4 4 1 8 0 13 0-5 4-2 9-3 13 0 2 0 3-2 3-6 1-12 2-17 3-15 1-27-7-29-22-3-13 6-26 20-29zM194 572v-2c0-2 0-4-1-6v-2c-1-3-1-5-2-7l-1-2c0-2 0-4-1-5l-1-3-2-5s-1-1-1-2c-1-2-2-3-3-5 0-1 0-1-1-2 0-2-1-3-2-5l-1-1c-1-2-2-4-3-5l-1-2c-1-1-2-3-3-4l-1-1c-1-2-2-3-4-4 0-1-1-1-1-2-1-2-2-3-4-4l-1-2c-2-1-3-2-4-3l-1-1c-2-2-3-3-5-4l-1-1c-1-1-3-3-5-4l-1-1c-2-1-3-2-5-3l-1-1-5-2-2-1-4-4s-1-1-1-2c-3-3-4-7-5-11v-8c1-1 1-3 1-4 2-6 6-10 11-14l1-1v1l1-1 3-1v-1h11l6 1 1 1 6 3s1 0 1 1l5 3 2 1c1 1 3 2 4 3 1 0 1 1 2 1l4 3 2 1c1 1 3 2 4 3l1 1c2 2 3 3 5 4l1 1c1 1 3 2 4 3l2 2 3 3 2 2c1 1 2 2 3 4 1 0 1 1 2 2l5 5c1 4 1 8 2 12 1 22-3 43-13 63-2 5-5 10-7 15h-1zm75-49v6c-1 1-1 2-1 3 0 3-1 6-2 9v4c-1 3-2 6-3 10-1 1-1 2-1 3l-1 1-4 11c-1 2-1 4-2 5l-8 15h1l-1 1c-1 2-3 4-4 6l-4 4-6 4c-3 1-6 2-9 2h-3l-6-1-2-1-5-2c0-1-1-1-1-1l-4-4-1-2-4-5v-1c-1-2-1-4-2-6v-3l1-8c2-6 6-10 8-16 10-20 14-41 12-63 0-4 0-7-1-11-1-3-1-6-2-9l-1-2c0-2-1-4-1-6 0-1-1-2-1-2 0-2-1-4-2-6l-1-2c-1-2-1-3-2-5l-1-1-3-6s0-1-1-1c-1-2-2-4-3-5v-3l-2-5v-3c1-3 2-6 2-9l3-5v-1c1 0 1 0 1-1h1l4-4 1-1 4-3h1c3-1 6-1 9-2h3l6 2h2l5 3c0 1 1 1 2 1 1 1 2 3 4 4v1c9 14 16 30 21 47 4 18 6 36 5 55l-1 9zm14 35l-1-6-1-2c0-2-1-4-1-6 0-1 0-1-1-2 0-2-1-4-2-6l-1-2c0-2-1-4-2-5v-2c-1-1-1-3-2-4 0-3 1-6 1-9 1-19-1-37-6-55-5-17-12-33-21-47h1c2 1 3 2 5 3 0 0 0 1 1 1 1 1 3 2 5 4 0 0 1 0 1 1 1 1 3 2 4 3 1 0 1 1 1 1l4 4 2 1 4 4 1 1 4 4 1 1c1 2 3 3 4 4l1 2 4 4 1 1c1 2 2 3 4 4l1 2 3 4 5 7c6 40 1 78-15 115 0 1-1 2-1 3l-1-7v-2c0-3-1-5-1-8v-2c-1-2-1-4-1-6 0-1-1-2-1-3zm77-2l-1 3-2 9-1 5-4 11-1 4c-1 4-3 7-4 11-1 2-2 3-2 5-1 0-1 0-1 1-2 5-4 10-7 14v1h-1l-6 6c-5 3-10 5-15 5-8 1-15-2-22-6l-1-1c-1-2-2-3-3-4l-1-2-3-5v-2l-1-7v-3c1-3 2-7 4-10 0-2 1-3 1-4v-1l2-3c16-37 21-75 15-115-1-3-1-6-2-9 0-3-1-5-2-7v-2l-2-6v-2c-1-2-1-4-2-6 0-1-1-1-1-2s-1-3-2-5v-2l-3-6v-2c-1-2-2-4-3-5 0-1 0-1-1-2l-2-5-1-2-1-6v-3c0-3 0-6 1-8l1-4c5-7 11-13 20-15h11c3 1 7 2 11 4l1 1c2 1 3 2 4 3l2 2c1 1 2 3 3 4 0 1 1 2 1 2 1 2 1 3 2 5 1 0 1 1 1 2l3 5v1l3 6v2l2 5 1 2 2 6c0 1 0 1 1 2 0 2 1 4 1 6l1 2c0 2 1 4 2 6v2c1 2 1 4 2 6v2l1 7 1 2v2c2 9 3 19 3 28 2 24 0 48-5 72zm172-59c-8 32-15 64-22 97-2 6-6 5-10 5-7 1-10-1-11-9-5-24-11-49-16-73-1-3-2-5-4-8-3 14-6 28-9 41-4 15-7 29-10 43-1 9-7 6-12 6-5 1-7-1-8-6l-21-94c-1-2-4-7 2-7 3 0 9-3 11 4 3 19 7 37 11 55l7 31h2c6-28 12-55 17-83 2-7 6-7 11-7 7-1 9 2 11 8 5 27 12 55 18 83 3-3 3-7 3-11 6-24 11-49 16-73 1-6 8-10 13-7 2 1 1 3 1 5zm-13-42c-10 0-18-8-18-18s9-18 20-18c10 0 18 8 18 18s-9 18-20 18zm23 4c4-4 9-4 14-5h2c-2-2-3-5-2-7 0-1 0-1-1-1h-5c-4-2-7-5-8-10s1-9 5-13c3-2 7-3 10-3h18c-2 2-5 3-8 3 0 1 1 1 1 1 5 6 4 13-1 18l-3 3c-2 1-1 3 0 5 2 1 4 3 5 4 7 6 7 14 0 19s-19 6-26 2c-6-4-7-11-1-16zm79 140c-6 1-12 1-11-10-11 11-23 14-36 12-19-4-28-18-27-39 1-17 13-29 31-30 9-1 18-1 27 2 4 1 5 0 5-4v-7c-1-9-2-17-11-20-11-3-21-4-31 4-3 2-5 6-6 9 0 4-2 4-5 4-9-1-9-1-6-9 4-11 13-18 24-21 8-2 16-1 24 1 15 3 23 14 23 31 1 19 0 37 1 56v11c-1 3 5 8-2 10zm31 0c-5 0-6-1-6-6V452c0-4 2-6 6-6s7 2 7 7c-1 23 0 46 0 70 0 23-1 47 0 70 0 5-2 6-7 6zm39 0c-5 0-7 0-7-6V452c0-5 2-6 7-6s6 2 6 6v141c0 5-1 6-6 6zm42-27c4 12 13 18 26 17 10 0 18-7 21-19 1-8 4-8 10-7 4 1 4 2 4 5-3 18-15 31-31 33-20 3-35-5-42-23-8-22-8-45 1-67 6-15 17-22 33-22 15 0 26 7 33 21 5 10 6 22 6 33 0 4-1 5-5 5h-55c-4 0-5 1-5 4 1 7 2 14 4 20zm118-69h-17c-4 0-5 1-5 5v68c0 10 3 13 14 12 3 0 5-3 8 0v10c-7 3-13 2-20 2-9-1-14-8-14-20-1-22-1-44-1-66 0-10 0-10-9-11-5 0-5-2-5-5 0-4 0-7 5-6 9 1 10-3 10-10-1-5-1-10-1-15 0-11 0-11 13-14v33c0 5 1 6 6 6h16v11zm-286-66c0-4-1-8-4-11-1-2-3-3-5-3-5-1-8 2-8 8 0 4 2 8 4 10s5 3 8 2 5-3 5-6zm4 28c-1-4-7-9-11-9s-7 1-9 2c-5 3-6 10-1 13s11 4 16 2c4-2 5-5 5-8zm-53-43c-4 1-7 4-7 8-1 5 0 11 2 15 3 6 8 9 13 8 4-2 7-6 7-13 0-5-1-10-5-15-2-3-6-4-10-3zm-26 24c1-2 1-4 1-6 0-5-1-10-4-14-2-3-5-5-10-4-4 0-7 3-8 7-1 8 0 15 5 21 5 5 14 3 16-4zm123-16c2-1 3-2 1-4-1-4-5-5-9-4-4 2-6 5-6 10v1c0 3 0 3 3 2 3-2 7-3 11-5zm-12 115c-8-2-16-3-25-1-10 2-16 9-17 20 0 12 5 21 14 24 19 7 37-7 37-27v-5c1-7-2-10-9-11zm133-9h37c11 0 11 0 9-10-4-18-14-26-28-24-13 1-26 20-23 32 1 3 3 2 5 2z"/></svg>