<svg width="64" height="64" viewBox="0 0 1000 1000" xmlns="http://www.w3.org/2000/svg"><path d="M870 371c-14-72-45-136-96-190-21-22-44-42-71-59-48-31-101-50-159-57-7-1-14-1-21-3h-49c-1 2-2 1-3 1-13 1-26 3-38 5-92 18-168 63-227 136-48 60-74 129-80 206-3 37 0 74 8 111 6 27 15 53 27 78l3 6c20 40 46 75 78 105 17 16 36 31 55 43 60 38 126 58 198 59 4 0 5 1 5 6v120c1-1 2-1 3-2 72-33 138-76 196-129 12-11 23-22 34-34l14-15c7-7 13-16 20-24 8-9 14-19 21-29 16-22 29-45 41-69 5-12 11-24 16-37v-1c13-34 22-70 26-106 2-13 3-26 4-39 1-27 0-55-5-82zM468 494c-1 33-13 60-37 82-1 2-3 3-4 4-12 9-26 17-41 21-6 2-13 3-19 4-5 0-9-2-11-7v-42c1-5-1-9 2-13 2-2 4-3 6-3 8-2 15-4 22-8 12-7 20-18 23-32l2-6c-30-1-60-1-89-1h-8c-8-2-13-9-13-17V341c-1-8 0-14 6-19 3-3 7-5 11-5h131c12 0 22 12 18 23 1 2 1 5 1 7v147zm231-154c1 3 1 5 1 7v148c0 43-28 85-69 101-1 1-2 1-3 2 1 1 2 1 3 1-1 0-2 0-3-1h-1l-1 1c-9 2-17 4-26 6-7 1-12-3-12-10v-14-31c0-6 3-9 11-11 10-2 20-6 27-13 10-9 15-20 17-32l-83-1h-9c-11 0-18-7-18-19V341v-1c-1-9 1-16 8-20 3-2 6-3 10-3h130c12 0 22 12 18 23z"/></svg>