<svg width="64" height="64" viewBox="0 0 1000 1000" xmlns="http://www.w3.org/2000/svg"><path d="M542 854c29 31 19 68-20 82-3 1-3 0-8 1 0 0-55 2-73 0-19-2-37-9-56-12-12-3-17-8-19-21-9-79 5-156 17-232 7-41 17-81 25-121-5 4-9 9-11 15-6 13-12 26-16 40-5 13-4 32-12 38-12 8-26-9-40-9-1 0-1 0-3 1 4 6 7 12 12 17 15 16 17 33 8 54-16 34-28 69-44 103-5 12-4 18 8 25 31 16 36 27 30 61-1 10-6 15-15 17-39 7-77 7-116 3-15-2-21-9-25-22-26-78-46-158-60-239-1-6-2-12-3-17-21-142-6-267-6-267 5-20 11-39 27-54 28-28 63-45 99-59 11-5 15-1 16 10 1 13-6 30 13 38 3 1 1 5-2 7-17 14-10 21 8 25 5 1 12 3 15 10-17-3-33-5-49-8-13-2-17 3-13 15 8 21 19 40 37 55 7 6 15 10 25 8 40-7 59-40 46-78-1-2-3-5 0-9h6c25 14 46 1 67-9 7-4 14-10 8-18-9-13-3-24 1-36 10-27 4-35-24-34-12 1-24 2-36 4-27 6-53 5-79-8-19-8-17-17-6-28 4-5 10-10 16-12 10-5 15-11 18-22 10-40 29-75 60-103 0 0 9-7 28 4 55 24 104 57 146 101 18 19 36 39 50 63-14 9-28 14-36 27 3 2 6 1 9 0 62-37 117-6 141 55 24 63 23 127-10 188-24 44-55 84-89 121-8 10-13 19-9 31 16 49 7 91-28 129-10 11-17 24-28 34-15 13-12 22 0 36zm98-135c-10 3-24 0-28 12-12 38-38 66-65 93-4 4-8 8-4 14 9 15 23 28 23 48 1 7 9 4 14 4 26 0 30-3 38-29 4-11 7-23 10-35 3-8 3-17-4-23-14-13-9-23 3-33 7-5 12-12 18-18 8-7 11-14 6-24-2-5-3-11-11-9zm247 70c-8-25-19-48-36-69-24-30-42-64-25-105 4-9 4-20 5-30 3-67-28-99-95-99-14 0-20 5-26 17-25 46-49 94-92 127-4 3-5 6-4 11 4 23 4 46 2 70 9-2 18-3 25-6 10-4 14-1 18 8 22 44 45 88 67 132 5 10 5 16-7 19-15 3-16 16-15 27 1 14 14 12 23 13 31 1 61-1 92 1 32 2 58-3 68-33 7-44 0-83 0-83zM305 280c15-7 26-1 37 9 10 10 19 11 30 1 8-7 17-12 25-19 3-3 8-6 4-12-2-4-6-4-10-3-41 3-82 8-122-7-3 8 3 10 4 14 3 20 14 26 32 17z"/></svg>