<svg width="64" height="64" viewBox="0 0 1000 1000" xmlns="http://www.w3.org/2000/svg"><path d="M246 805c-52 0-98-30-122-74-19 22-30 51-30 82 0 69 53 125 119 125 45 0 85-27 105-67-20-18-35-42-42-70-10 2-20 4-30 4zM136 704c1 4 3 8 4 11 20 40 60 67 106 67 9 0 18-1 26-3-1-6-1-12-1-17 0-18 3-35 9-51 1-4 2-7 4-11 2-3 3-7 5-10 8-16 20-30 33-41-60-3-110-45-128-103-40 20-67 63-67 112 0 12 2 24 5 35 1 4 2 8 4 11zm375 49c-54 0-101-33-125-80-4-9-8-19-11-29-3 1-7 2-11 4-24 11-45 31-58 56-1 4-3 7-4 11-2 4-3 8-4 12-3 11-5 23-5 35v10c1 4 1 8 2 12 0 3 1 7 2 11 6 20 16 39 30 53 3 4 6 6 9 9s6 5 9 7c19 14 42 22 67 22 65 0 119-56 119-124 0-4 0-7-1-10-6 0-12 1-19 1zM212 527c1 4 2 7 3 11 15 51 60 88 114 88 11 0 21-2 31-4 3-1 7-3 10-4h1c0-4-1-8-1-12 0-5 1-10 1-15 4-36 19-67 42-91-14-20-23-45-25-72-18 8-38 13-59 13-31 0-60-10-83-28-22 23-36 54-36 89v14c1 3 1 7 2 11zm341 44c0-4 0-7 1-11-9 2-17 2-26 2-23 0-45-6-65-16l-9-6c-4-2-7-4-10-7-6-4-12-9-17-15-21 23-35 54-35 88v1c1 3 1 6 1 9v4c1 2 1 5 1 7l1 5c0 2 1 4 2 7 14 52 60 91 114 91 6 0 10 0 15-1 4-1 8-1 11-2s7-2 11-3c22-7 41-21 56-40-31-27-51-68-51-113zM254 391c3 3 7 5 10 7 19 13 41 20 65 20 21 0 41-5 59-16 0-2 0-5 1-7 0-4 1-8 2-12s1-8 3-12c9-31 29-58 54-76v-1c0-68-54-124-119-124s-119 56-119 124c0 35 14 67 36 89 3 3 5 6 8 8zm160-10c0 1-1 2-1 3-1 4-2 8-2 13-1 1-1 2-1 3 0 4 0 7-1 11v4c0 27 8 51 21 71 2 3 4 6 7 9 2 3 5 6 7 8 1 1 3 2 4 3 3 4 7 7 10 9 4 3 7 5 10 7 18 11 38 17 60 17 10 0 20-1 29-4 4-13 8-25 15-36 1-4 3-7 5-10s5-6 7-9c16-21 37-38 62-47 1-6 1-12 1-18 0-33-12-63-33-85 2-4 3-8 5-12 1-4 3-7 5-11 43-90 127-145 216-183 35-15 20-74-15-59-105 46-199 107-251 211-2 4-4 7-5 11-2 3-4 7-5 10-11-4-23-6-36-6-21 0-41 6-59 17-4 2-8 5-12 8-5 4-9 8-14 13-14 14-24 32-29 52zm280 66c-10 0-20 2-29 4-4 1-8 2-12 4-5 2-10 4-14 6-15 8-27 19-37 32-2 3-5 6-7 9s-4 7-5 10c-3 4-5 9-6 13-2 5-4 10-5 15-1 4-2 9-2 13-1 6-2 12-2 18 0 37 16 71 41 93 3 3 6 5 9 8l9 6c18 11 38 17 60 17 66 0 119-56 119-124s-53-124-119-124zm12-198C598 388 830 444 906 390c0 0-91-279-200-141z"/></svg>