<svg width="64" height="64" viewBox="0 0 1000 1000" xmlns="http://www.w3.org/2000/svg"><path d="M998 897v-6c-2-57-6-114-12-171-5-44-11-87-19-130-5-28-20-46-45-56-15-6-31-12-46-18-9-3-13-1-16 7-13 28-30 52-54 72-20 16-42 31-64 44-12 6-16 14-16 27 1 76 1 152 1 228v2h-27v-2-234c0-8-2-13-9-17-14-8-28-17-41-26-21-14-41-30-57-50-12-15-20-31-29-47-2-4-4-8-10-6-23 9-47 16-68 30-12 7-20 17-23 30-16 66-23 132-29 199-3 41-6 82-6 123-1 5-1 10-1 16-1 17 7 25 24 25h525c17 0 25-8 24-25 0-5-1-10-2-15zM575 352c9 6 13 13 17 22 13 33 28 65 54 90 38 37 88 38 127 3 30-28 49-63 65-100 2-6 5-11 11-15 23-15 27-38 10-60-3-4 0-6 1-9 4-14 8-28 8-42 1-38-15-69-39-96-7-7-7-12-4-19 5-9 10-17 15-26-15 1-26 6-37 12-7 4-9 2-12-4-7-14-9-29-13-45-8 7-12 15-15 23-4 9-7 8-13 3-8-7-15-16-26-22 0 3-1 4-1 5-3 7 6 17-2 21-6 4-15 2-22 2l-1 1c-62 7-106 40-133 94-14 29-11 59-3 90 2 4 5 8 1 13-18 23-7 48 12 59zm31-65c31 2 62-1 92-8 32-8 60-23 85-47 8 27 21 48 41 65 3 3 4 6 3 10-14 48-32 95-67 132-10 10-21 19-35 23-27 7-47-6-64-24-24-27-37-60-48-94-5-16-9-32-14-48-2-8 0-9 7-9zm190 209c-3 0-6-1-8 3-13 34-43 51-70 70-3 2-5 4-9 1-27-19-57-36-71-69-1-3-2-7-6-5-14 3-27 5-40 8-6 1-5 4-3 7 11 17 20 34 34 49 24 27 56 44 86 64 4 3 7 1 10-1 16-11 32-22 49-33 30-19 51-48 68-79 3-4 3-7-4-8-12-2-24-4-36-7zM394 912v-16h1c0-41 3-82 6-123l3-33c-22 6-44 11-67 15-25 5-51 11-77 10-25-2-50-7-75-12-46-10-92-22-138-36-7-2-9 0-10 7-7 58-14 116-16 175 0 6 0 10-1 13v7c-1 12 6 18 21 18l227-1h147c-15 0-22-8-21-24zM66 477c7-1 9-2 9-9-2-33 0-65 7-96 5-18 11-34 27-48 4 26 15 48 34 65 5 4 8 10 12 16 14 25 31 48 54 66 34 27 75 28 110 2 25-18 42-43 57-69 3-4 5-8 8-11 17-17 27-37 33-59 1-3 0-8 3-9 5-1 7 4 10 7 13 18 19 38 22 60 4 25 5 50 4 75 0 5-1 9 6 10 40 4 70-23 69-62-1-54-46-109-99-120-8-2-10-6-9-13 1-20 0-41-7-60-22-63-67-100-133-108-67-7-120 21-156 79-16 27-22 56-20 87 1 9-1 13-11 15-30 7-53 25-71 50-15 20-24 43-25 68-1 39 21 66 66 64zm91-163c17-5 25-20 33-34 3-6 6-13 10-22 5 16 4 30 1 44-2 7 0 9 6 10 9 0 16-2 23-8 13-15 20-33 26-51 1-3 1-6 4-9 5 17 3 35 2 52 0 6 2 8 7 9 33 4 65 6 98-1 13-3 13-3 11 9-8 46-27 87-58 122-34 39-77 38-111-1-2-2-3-4-5-6-25-31-41-66-50-105 0-4-3-8 3-9zm8 266c2-22 5-44 7-67-26 8-50 18-73 31-17 10-28 25-33 44-8 27-14 55-20 83-2 9 1 11 9 13 57 18 114 32 173 42 16 3 33 8 50 5 44-7 87-16 130-27 5-43 11-87 22-129 2-10 7-18 14-24-3-2-5-4-8-6-21-13-43-22-66-30-9-3-9 2-8 8 5 23 7 46 8 69 2 19 1 38 1 58-32-19-64-38-96-58-5-3-9-4-15 0-31 19-61 37-91 56-6 3-8 2-7-4 1-22 1-43 3-64z"/></svg>