<svg width="64" height="64" viewBox="0 0 1000 1000" xmlns="http://www.w3.org/2000/svg"><path d="M606 453c35 58 31 106-9 148-35 36-68 75-102 112-6 7-8 14-7 24 16 118-54 224-169 255-134 37-273-60-285-199-12-128 76-236 203-251 2-1 5-1 8-1 30 7 50-8 68-31 26-33 55-63 83-93 39-43 78-51 132-29 10 4 12 7 4 15-67 74-134 148-200 223-3 2-5 5-8 8-10 13-20 20-38 21-40 1-73 42-69 81 4 45 42 78 84 75 43-4 76-40 73-82-1-13 2-21 11-30l210-234c3-4 7-7 11-12zM229 731c1-38 32-68 69-66 10 1 15-1 22-8 105-118 211-236 317-354 40-44 80-88 119-132 4-5 9-9 6-17-7-18-2-35 10-49 8-9 4-13-5-14-11-1-17-6-16-17 0-8 5-14 13-15 11-1 17 4 19 15 1 4 3 9 8 8 5-2 10-7 11-14 1-5-4-6-9-6-11-1-16-7-16-18 1-8 6-13 14-14 10-1 16 3 18 14 1 5 3 10 9 8 4-2 9-8 11-13 1-5-5-6-10-6-9-2-16-7-16-17 0-9 6-15 15-16s16 4 18 14c2 11 7 11 17 7 26-12 49-3 69 15 19 17 30 40 21 66-4 12-1 16 10 17 9 1 15 6 15 16-1 8-5 14-13 15-10 2-17-3-19-12-2-5-2-12-9-10-5 2-10 7-11 13s5 6 10 7c9 2 16 6 15 17-1 9-6 14-14 15-10 1-16-4-18-13-1-5-3-11-8-10-6 2-11 8-12 14-1 5 6 6 11 7 9 1 15 6 15 16-1 8-6 14-14 16-10 1-16-4-18-13-3-12-7-14-15-5-12 13-28 17-45 15-8-1-13 1-19 7-145 162-291 325-437 486-7 8-7 16-5 25 4 38-25 73-64 74-38 2-70-30-69-68z"/></svg>