<svg width="64" height="64" viewBox="0 0 1000 1000" xmlns="http://www.w3.org/2000/svg"><path d="M605 783c-27 26-53 53-80 80-5 5-6 13-2 20 3 7 9 11 20 11 3 0 7-2 11-6 26-26 52-52 78-79 8-8 8-17 0-26-9-8-19-8-27 0zm100 39c-2 1-4 1-5 2-19 11-34 27-46 45-4 7 0 15 5 20 6 5 14 7 21 3 16-12 31-26 42-43 7-11-3-27-17-27zm107-382c-44-43-97-55-155-34-11 4-15 4-20-8-38-95-127-147-228-136-91 11-164 84-181 182-1 6 0 14-7 17-17 7-29 16-40 28s-77 73-2 157c2 3 4 5 7 7 0 1 0 1 1 1 18 18 42 28 70 31 30 3 59 0 89 1h255c39 0 74 1 109-1 62-2 107-32 132-88 24-54 12-116-30-157zM571 145c-25 20-40 47-42 79-1 12 0 25 3 36 40 17 74 46 98 86h13c68 0 110-57 111-104-16 20-36 31-61 33-24 3-46-5-65-21-16-13-26-31-29-51-4-32 5-59 28-82-22 2-40 10-56 24zm-37-45c1 1 2 2 2 3l3 13c1 3 5 4 7 2l8-10c1-1 2-2 3-2l13 1c3 1 5-3 4-6l-7-10c-1-1-1-3 0-4l5-12c1-3-2-6-5-5l-12 3c-1 0-3 0-4-1l-9-9c-3-2-7 0-7 3l-1 13c0 1-1 2-2 3l-11 7c-3 1-2 6 1 7l12 4zm213 124l12 5c1 0 2 1 3 2l2 13c1 3 5 4 7 2l8-10c1-1 3-2 4-2l13 2c3 0 5-4 3-6l-6-11c-1-1-1-3-1-4l5-12c2-3-1-6-4-5l-13 3c-1 0-2 0-3-1l-10-8c-2-2-6-1-6 2l-1 13c0 1-1 3-2 3l-11 7c-3 2-3 6 0 7zm-92-27c1 0 1 1 2 2l2 8c0 2 3 3 4 1l6-6c0-1 1-1 2-1l8 1c2 0 4-3 3-4l-5-8v-2l3-8c1-2-1-4-3-3l-8 2c-1 0-2 0-2-1l-7-6c-1-1-4 0-4 2l-1 9c0 1 0 1-1 2l-7 4c-2 1-2 4 0 5l8 3zm82-27c1 0 1 0 1 1l2 6c0 1 2 1 3 0l3-4c1-1 1-1 2-1l6 1c1 0 2-2 1-3l-3-5v-2l3-5c0-1-1-3-2-2l-6 1h-2l-4-4c-1-1-3 0-3 1v6c0 1-1 1-1 2l-5 3c-2 0-1 2 0 3l5 2zm-221-4c1 0 1 0 1 1l1 4c0 2 2 2 3 1l3-4h6c1 0 2-1 2-2l-3-4v-2l2-4c0-1-1-3-2-2l-5 1h-1l-4-4c-1 0-2 0-2 1v5c0 1-1 1-1 2l-4 2c-1 1-1 2 0 3l4 2zM323 782c0 24-19 43-43 43s-44-19-44-43 20-44 44-44 43 20 43 44zm198 7c0 20-16 36-36 36s-37-16-37-36c0-21 16-37 37-37s36 16 36 37zm-101 96c0 15-12 28-28 28s-28-13-28-28 13-28 28-28 28 12 28 28zm88 31c0 12-10 22-22 22-11 0-21-10-21-22 0-11 10-21 21-21 12 0 22 10 22 21zM401 799c0 8-6 14-14 14s-14-6-14-14 6-14 14-14 14 6 14 14z"/></svg>