<svg width="64" height="64" viewBox="0 0 1000 1000" xmlns="http://www.w3.org/2000/svg"><path d="M808 440c-43-43-95-55-153-34-11 4-15 5-20-8-38-94-125-145-225-134-91 11-162 83-179 180-1 6 0 13-8 16-16 7-28 17-39 29v-1s-76 73-2 156c2 2 4 5 7 7 0 0 0 1 1 1 18 17 41 28 70 30 29 3 58 1 88 1 11 1 12-5 15-14l41-151c3-10 7-15 19-15 39 1 79 1 118 0 13 0 14 4 11 15-8 28-16 56-24 87h127c-19 27-36 51-55 78 38 0 73 1 108 0 61-2 105-32 130-88 24-53 12-115-30-155zM509 631c-12 1-17-1-13-15 8-24 14-49 21-74 3-9 0-12-9-12-23 1-45 1-68 0-7 0-11 2-13 10-14 49-27 98-41 147-2 8 0 12 9 11 17 0 34 1 52 0 13-1 19 0 14 17-14 54-25 109-38 163l3 3c58-83 117-165 177-250h-94zM312 777c0 24-19 44-44 44-24 0-44-20-44-44 0-25 20-45 44-45 25 0 44 20 44 45zm317 7c0 20-17 37-38 37-20 0-37-17-37-37 0-21 17-38 37-38 21 0 38 17 38 38zM383 909c0 16-13 28-29 28-15 0-28-12-28-28s13-28 28-28c16 0 29 12 29 28zm171 4c0 12-10 21-21 21-12 0-22-9-22-21s10-21 22-21c11 0 21 9 21 21zM391 794c0 8-6 14-14 14s-14-6-14-14 6-14 14-14 14 6 14 14zm340-33c0 16-13 28-29 28s-28-13-28-28 13-28 28-28 29 12 29 28zM580 146c-26 20-40 47-42 80-1 13 0 25 3 37 40 17 75 46 99 87h13c69 0 112-58 113-106-17 21-37 32-62 34-25 3-47-5-66-21-16-14-26-31-29-52-5-32 5-59 28-83-22 2-41 10-57 24zm-38-45c1 0 2 1 3 3l3 13c0 3 4 4 6 1l9-10c1-1 2-1 3-1l13 1c3 0 6-3 4-6l-7-11c-1-1-1-3 0-4l5-12c1-3-2-6-5-5l-12 3c-2 0-3 0-4-1l-10-9c-2-2-6 0-6 3l-1 13c0 1-1 3-2 3l-11 7c-3 2-3 6 0 7l12 5zm217 125l12 5c1 1 2 2 2 3l3 13c1 3 5 4 7 1l8-10c1-1 3-1 4-1l13 1c3 0 5-3 4-6l-7-11c-1-1-1-2-1-4l5-12c2-3-1-6-4-5l-13 3c-1 0-2 0-3-1l-10-9c-3-2-7 0-7 3l-1 13c0 2-1 3-2 3l-11 7c-3 2-2 6 1 7zm-94-27c1 0 2 1 2 2l2 8c0 2 3 3 4 1l6-6c0-1 1-1 2-1h9c2 1 4-2 2-4l-4-7c-1-1-1-2 0-2l3-8c1-2-1-4-3-4l-9 2h-2l-7-6c-1-2-4 0-4 2l-1 8c0 1 0 2-1 2l-7 5c-2 1-2 4 0 4l8 4zm84-28l1 1 1 6c0 2 2 2 3 1l4-5h7c2 1 3-1 2-2l-3-5c-1-1-1-1 0-2l2-5c1-2 0-3-2-3l-6 2s-1 0-1-1l-5-4c-1-1-3 0-3 2v5c0 1-1 2-1 2l-5 3c-1 1-1 2 0 3l6 2zm-224-4l1 1 1 5c0 1 1 1 2 0l3-3c1-1 1-1 2-1h5c1 1 2-1 1-2l-3-4v-2l2-4c1-1 0-3-1-2l-5 1h-2l-3-4c-1 0-3 0-3 1v5c0 1-1 1-1 2l-4 2c-1 1-1 2 0 3l5 2z"/></svg>