<svg width="64" height="64" viewBox="0 0 1000 1000" xmlns="http://www.w3.org/2000/svg"><path d="M820 420c-45-44-99-56-159-35-11 4-15 5-21-8-39-97-129-151-232-139-94 11-169 86-186 187-1 6 0 13-8 17-16 7-29 17-40 29v-1s-79 75-2 161c2 3 4 6 7 8 0 0 0 1 1 1 18 18 42 29 72 31 30 3 61 0 91 1h261c40 0 76 1 112 0 63-3 109-33 134-91 25-55 13-119-30-161zM443 207c-2 4-4 8-5 12 74-1 141 32 183 91 2-4 4-7 6-11 26-50 5-112-45-138-52-25-113-5-139 46zm210 36c-1 6 2 13 8 16 2 1 4 2 6 1 16 0 31-1 46-2 8-1 14-8 13-15 0-8-6-15-14-14-16 0-31 1-47 2-6 1-11 6-12 12zm-63-92c7 4 16 1 20-7 3-6 6-13 9-19l10-19v-1c4-7 1-16-6-20-8-3-16-1-20 7-7 13-13 26-20 39-4 8-1 16 7 20zm-219 36l19 10 20 10c7 4 15 1 19-6s2-16-5-20c-14-7-27-14-41-20-7-4-16 0-19 7-4 7-1 15 7 19zm288 112c-7-3-16 0-19 7s0 16 7 20l20 10 19 9c8 4 16 2 20-6 4-7 2-16-6-20-13-7-27-13-41-20zm-20-102c5 2 10 2 14 0 13-9 26-17 39-26 6-4 7-13 3-19-4-7-13-9-19-5-14 8-27 16-39 25-9 7-8 20 2 25zm-118-63c10 5 21-2 21-13l-3-45c0-8-7-14-15-13-9 0-15 7-14 15 0 15 1 29 2 44 1 5 3 10 9 12zm-72 17c2 2 4 4 6 5 6 3 13 2 18-3 4-5 5-12 1-18-8-12-16-25-24-37-5-7-14-9-21-4s-8 13-3 21c7 12 15 24 23 36zm-61 621c0 25-21 46-46 46s-47-20-47-46 21-46 47-46 46 20 46 46zm210 7c0 22-17 39-39 39s-39-17-39-39 18-39 39-39c22 0 39 18 39 39zM491 881c0 17-13 30-30 30s-29-13-29-30 13-29 29-29 30 13 30 29zm93 34c0 12-10 23-23 23s-22-11-22-23 10-22 22-22 23 10 23 22zM471 790c0 8-7 15-15 15-9 0-15-7-15-15s6-15 15-15c8 0 15 7 15 15zm234-35c0 17-13 30-29 30s-30-13-30-30 13-29 30-29c16 0 29 13 29 29z"/></svg>