<svg width="64" height="64" viewBox="0 0 1000 1000" xmlns="http://www.w3.org/2000/svg"><path d="M821 451c-45-44-99-57-159-35-12 4-16 5-21-8-40-98-131-152-234-140-95 11-170 86-187 188-1 6 0 13-8 17-16 7-30 17-40 29h-1s-79 75-1 162c2 2 4 5 6 7 1 0 1 1 1 1 19 18 43 29 73 31 30 3 61 1 92 1h262c40 0 76 1 112 0 64-2 110-33 136-91 24-56 12-120-31-162zM573 147c-26 21-41 48-43 82-1 13 0 25 3 37 41 17 76 47 101 88 4 0 8 1 13 1 70-1 114-60 114-108-17 21-37 32-62 35-26 2-48-5-67-22-17-14-27-32-30-53-5-32 5-60 28-84-22 2-41 10-57 24zm-38-45c1 0 2 1 2 2l3 13c1 4 5 5 7 2l8-10c1-1 2-2 4-2l13 2c3 0 6-4 4-6l-7-12c-1-1-1-2-1-3l6-13c1-3-2-6-5-5l-13 3c-1 0-2 0-3-1l-11-9c-2-2-6 0-6 3l-1 13c0 2-1 3-2 4l-11 6c-3 2-3 6 0 8l13 5zm219 127l13 5c1 0 2 1 2 3l3 13c1 3 5 4 7 1l8-10c1-1 2-2 4-1l13 1c3 0 6-3 4-6l-7-12c-1-1-1-2-1-3l6-12c1-4-2-7-5-6l-13 3c-1 1-2 0-3-1l-10-8c-3-3-7-1-7 2l-1 14c0 1-1 2-2 3l-11 7c-3 1-3 5 0 7zm-94-51v8c0 1-1 2-2 2l-7 5c-2 1-2 4 0 5l8 3c1 0 2 1 2 2l2 8c0 3 3 3 4 2l6-7c1-1 2-1 2-1l9 1c2 0 4-3 3-4l-5-8c0-1-1-2 0-2l3-8c1-2-1-5-3-4l-8 2h-3l-6-6c-2-2-4-1-5 2zm84-5c1 0 1 1 1 1l1 6c1 2 3 2 3 1l4-5h8c1 0 2-1 1-3l-3-5v-1l3-6c0-1-1-3-2-2l-6 1h-2l-5-4c-1-1-2 0-3 1v6c0 1 0 1-1 2l-5 3c-1 0-1 2 0 3l6 2zM639 89c1 0 2 1 2 1l1 8c1 1 3 2 4 1l5-6c0-1 1-1 2-1l7 1c2 0 3-2 2-4l-4-6v-2l3-7c1-2-1-3-2-3l-8 2s-1 0-2-1l-5-5c-2-1-4 0-4 2v7c-1 1-1 2-1 2l-7 4c-1 1-1 3 0 4l7 3zm-123 80c1 0 1 0 1 1l2 5c0 1 1 1 2 0l4-4h6c1 0 2-1 1-2l-2-5c-1 0-1-1 0-1l2-5c0-1-1-2-2-2l-5 1h-2l-3-3c-1-1-3-1-3 1v5l-1 1-4 3c-1 0-1 2 0 2l4 3zM379 803c0 25-20 45-44 45s-45-20-45-45 20-45 45-45 44 20 44 45zm204 7c0 21-17 38-38 38s-37-17-37-38 17-38 37-38 38 17 38 38zm-104 99c0 16-13 29-28 29s-29-13-29-29 13-29 29-29 28 13 28 29zm-19-88c0 8-7 14-15 14s-14-7-14-14 6-15 14-15 15 7 15 15zm227-34c0 16-13 29-29 29s-29-13-29-29 13-29 29-29 29 13 29 29z"/></svg>