<svg width="64" height="64" viewBox="0 0 1000 1000" xmlns="http://www.w3.org/2000/svg"><path d="M822 423c-45-44-100-57-160-35-11 4-16 5-21-8-39-98-131-152-235-140-95 11-169 86-187 188-1 6 0 14-8 17-17 7-30 17-41 29s-79 75-1 162c2 3 4 5 6 8 0 0 1 0 1 1 19 18 43 29 73 31 31 3 61 1 92 1h264c40 0 76 1 112 0 64-3 110-33 136-92 24-55 12-120-31-162zM635 749c-29 29-57 57-85 86-6 6-7 14-3 22 4 7 10 12 21 12 3 0 8-3 12-6 28-28 56-56 84-85 8-8 8-19-1-28s-19-9-28-1zm107 43c-2 0-4 1-6 2-20 12-36 29-49 48-5 8 0 16 6 21 6 6 15 8 22 4 17-13 33-28 45-46 8-12-4-29-18-29zM442 208c-2 4-4 8-5 13 75-2 142 31 185 91 2-4 4-7 6-11 25-51 5-113-46-139-52-26-114-5-140 46zm212 37c-1 6 2 13 8 16 2 1 4 1 6 1 16-1 31-1 47-3 8 0 13-7 13-15s-7-14-15-14c-16 1-31 2-47 3-6 0-11 6-12 12zm-64-93c8 3 16 0 20-7s7-13 10-20l10-19v-1c4-7 1-16-7-20-7-3-16-1-20 7-6 13-13 26-19 39-4 8-1 17 6 21zm-221 36c7 4 13 7 20 10l20 10c7 4 15 1 19-6s2-16-5-20c-14-7-28-14-41-20-8-4-17 0-20 7s0 16 7 19zm291 113c-7-3-16 0-19 7-3 8 0 16 7 20 7 3 13 7 20 10s13 7 20 10c7 4 15 1 19-6s2-16-5-20l-42-21zm-20-103c4 3 9 3 14 0 13-8 26-17 39-26 6-4 7-13 3-19-4-7-13-9-19-5-14 8-27 16-40 25-8 7-7 20 3 25zm-120-63c11 5 22-2 22-14l-3-45c-1-8-7-14-16-13s-14 7-14 15l3 45c0 5 3 9 8 12zm-72 17c2 2 4 4 6 5 6 3 13 2 18-3s5-12 2-18c-8-13-17-25-25-37-5-8-14-9-21-5-7 5-8 13-4 21 8 12 16 24 24 37zM287 771c0 25-20 46-46 46s-47-21-47-46 21-47 47-47 46 21 46 47zm213 7c0 22-18 39-40 39s-39-17-39-39 18-40 39-40 40 18 40 40zM392 881c0 16-14 30-30 30s-30-14-30-30c0-17 13-30 30-30s30 13 30 30zm93 34c0 12-10 23-23 23s-22-11-22-23 10-23 22-23 23 10 23 23zM371 789c0 8-7 15-15 15s-15-7-15-15 7-15 15-15 15 7 15 15z"/></svg>