<svg width="64" height="64" viewBox="0 0 1000 1000" xmlns="http://www.w3.org/2000/svg"><path d="M630 727c-33 32-66 65-98 98-7 7-8 17-4 25 5 9 12 14 25 14 3 0 9-3 13-7 33-32 65-65 97-97 10-10 10-22 0-33-11-10-23-10-33 0zm123 49c-2 0-4 0-6 1-23 15-42 34-57 57-5 8 0 17 7 24s17 9 25 3c20-14 38-31 52-52 9-14-4-33-21-33zm133-473c-55-53-120-68-192-42-13 5-19 5-25-10C622 134 512 69 388 84 274 97 185 187 164 308c-1 8 0 17-9 21-20 8-36 20-49 35s-96 90-3 194c3 3 6 6 8 9 1 0 1 1 2 1 22 22 51 35 87 38s73 0 110 1h315c48 0 92 1 135-1 76-2 132-39 163-109 29-66 14-144-37-194zM282 726c0 29-25 53-54 53-30 0-54-24-54-53 0-30 24-54 54-54 29 0 54 24 54 54zm244 8c0 25-20 45-45 45s-46-20-46-45 21-46 46-46 45 21 45 46zM402 853c0 19-16 34-35 34s-35-15-35-34 16-35 35-35 35 15 35 35zm107 39c0 14-11 26-26 26s-26-12-26-26c0-15 12-26 26-26s26 11 26 26zM378 747c0 9-8 17-18 17s-17-8-17-17c0-10 8-18 17-18s18 8 18 18z"/></svg>