<svg width="64" height="64" viewBox="0 0 1000 1000" xmlns="http://www.w3.org/2000/svg"><path d="M820 422c-45-44-99-57-159-35-11 4-16 5-21-8-39-97-129-151-233-139-94 11-168 86-186 187-1 6 0 13-7 16-17 8-30 18-41 30v-1s-79 75-2 162c3 2 5 5 7 7l1 1c19 18 43 29 72 31 31 3 61 1 92 1 11 1 13-6 15-15 14-52 29-104 43-156 3-11 7-16 20-16 40 1 81 1 122 1 13-1 15 3 11 15-8 29-16 58-24 90h131c-20 28-37 53-57 81 40 0 76 1 112 0 63-2 109-33 135-91 24-55 12-119-31-161zM509 620c-12 1-17-1-13-16 9-25 14-50 22-76 3-10 0-13-10-12h-69c-8 0-12 2-14 9-14 51-29 102-43 153-2 8 0 12 9 12 18-1 36 0 54-1 14 0 20 1 15 18-14 56-27 113-40 169l3 3c61-86 121-171 184-259h-98zM306 771c0 25-20 46-46 46s-46-21-46-46 21-46 46-46 46 21 46 46zm328 7c0 21-18 39-39 39s-39-18-39-39 18-39 39-39 39 18 39 39zM379 908c0 16-13 30-30 30s-29-14-29-30 13-29 29-29 30 13 30 29zm177 4c0 12-10 22-22 22s-22-10-22-22 10-22 22-22 22 10 22 22zM388 789c0 8-7 14-15 14s-15-6-15-14 7-15 15-15 15 7 15 15zm351-35c0 17-13 30-29 30s-30-13-30-30 14-29 30-29 29 13 29 29zM455 205c-3 4-4 8-6 13 74-2 140 30 181 89 2-4 4-7 6-11 25-50 5-110-45-136-50-25-111-5-136 45zm207 36c-1 6 2 12 7 15 2 1 4 2 7 2l45-3c8 0 13-7 13-15 0-7-6-14-14-14-15 1-31 2-46 3-7 1-11 6-12 12zm-63-91c8 3 16 1 20-7 3-6 6-13 10-19l9-19c4-8 1-16-6-20s-16-1-20 7c-6 12-13 25-19 38-4 8-1 16 6 20zm-216 36c7 3 13 6 19 9l20 10c7 4 15 1 19-6s2-16-6-20c-13-7-26-13-40-20-7-3-16 0-19 7-3 8 0 16 7 20zm285 110c-7-3-16 0-19 7s0 16 7 19c7 4 13 7 20 10l19 9c7 4 15 2 19-5s2-16-6-20c-13-7-26-14-40-20zm-20-101c5 3 9 3 14 0 12-8 25-16 38-25 6-4 7-13 3-19-4-7-12-9-19-5-13 8-26 16-38 25-9 6-7 20 2 24zm-117-62c10 5 21-2 21-13-1-15-2-29-3-44 0-8-7-14-15-14-8 1-14 7-14 16 1 14 2 29 3 43 0 6 3 10 8 12zm-70 17c1 2 3 4 5 4 6 4 13 2 18-2 4-5 5-12 1-18l-24-36c-5-8-14-9-20-5-7 5-9 13-4 21l24 36z"/></svg>