<svg width="64" height="64" viewBox="0 0 1000 1000" xmlns="http://www.w3.org/2000/svg"><path d="M389 95c7-18 31-25 51-10 15 11 28 25 40 40 9 10 25 21 19 37-6 17-25 16-39 19-34 1-83-55-71-86zm544 492c-19 143-90 242-206 308-34 19-70 24-107 26-38 2-77 0-116 0-63 2-126 7-188-11C173 869 79 738 65 562c-7-81-1-161 32-236 39-90 108-125 196-134 81-8 161 3 245-18 232-61 431 155 395 413zM594 348l114 147 90-147H594zM459 604h153l-11-26c-1-2-2-5-4-8l-56-123-82 157zM252 348l106 152 98-152H252zm580 272c-37 17-68 49-109 53-7 0-10 6-12 13-8 40-23 33-46 11-15-15-99-3-108 11-19 32-66 34-83 2-7-14-15-17-25-15-31 4-66-21-95 15-5 6-28 10-30-15-1-10-2-21-14-22-44-5-76-36-113-58 2 90 60 170 144 202 22 9 39 13 52-18 12-27 34-27 41 5 6 27 21 29 40 29 26 1 53 0 79 1 23 0 40-4 48-34s26-24 38-1c9 14 13 28 34 25 79-12 161-113 159-204z"/></svg>