<svg width="64" height="64" viewBox="0 0 1000 1000" xmlns="http://www.w3.org/2000/svg"><path d="M856 841c-20-32-40-64-60-97-67-108-135-216-202-324-5-7-8-16-15-22-26-22-52-44-77-66-4-3-7-3-11 0-21 13-41 26-62 39-5 3-7 7-6 12 6 31 12 62 17 93 2 10 5 18 11 26 24 39 48 78 73 117 45 73 91 147 137 220 20 33 40 66 61 98h5c2-1 4-4 7-5 40-25 79-49 119-74 10-6 10-6 3-17zM483 272l-27-42c-10-16-10-28 2-43 20-25 44-43 75-50 23-6 46-7 69-7 18 1 26-11 21-28-4-14-14-21-28-25-3-2-7-3-11-4h1C469 42 391 89 391 89c-39 19-74 45-111 67-4 2-3 5-1 9 3 5 6 11 9 16 4 5 2 7-2 10-11 6-21 13-32 19-15 10-15 11-25-5-1-2-2-3-3-5-3-6-7-6-12-3-23 15-47 29-70 43-6 4-6 7-3 13 10 14 19 29 28 44 14 22 28 44 42 67 2 3 4 8 10 4 24-16 49-31 74-46 4-3 4-5 2-9-3-5-6-10-10-15-4-6-2-9 3-12 14-8 27-16 40-25 5-3 7-2 11 3 14 23 28 46 43 69 3 5 6 7 11 3 28-18 57-35 85-53 6-3 6-6 3-11z"/></svg>