<svg width="64" height="64" viewBox="0 0 1000 1000" xmlns="http://www.w3.org/2000/svg"><path d="M220 202c6 0 12 4 15 8l265 265 266-267c6-5 15-7 22-4s12 10 12 18v280c0 6-2 11-6 14L514 797h-27L206 516c-4-3-6-8-6-13V221c0-10 9-19 20-19zm-14 19l1 1-1 1v280c0 3 1 7 4 9l279 280h22l279-280c3-2 4-6 4-9V222c0-5-3-10-8-12-6-2-12-1-16 3L502 481l-2 2-269-269c-3-4-7-6-11-6-8 0-13 6-14 13zm28 35l256 256c1 1 3 2 5 3l1 1h7l2-1c2-1 4-2 5-3l63-64 5 4-69 97-5-3c9-18 8-19 8-21-1-2-3-4-5-4h-1l-2-1-3 2-1 1-14 16c-10 12-22 25-33 38l-16 19 39-76c2-3 0-8-3-10-1 0-2-1-3-1s-3 2-7 6h-1c-6 6-16 18-34 37l-15 18 38-75c1-1 1-2 1-3 0-2-1-4-3-6-3-2-7-1-9 1l-60 63 10-19c7-14 14-27 20-37 15-29 15-29 14-32-1-2-2-3-4-4-1-1-2-1-3-1s-4 1-7 5c-4 5-10 12-18 22l-5-3 17-33c1-2 1-3 0-5 0-2-2-4-3-4-2-1-2-1-3-1s-4 1-7 5h-2v1c-1 1-2 2-2 4-3 4-6 10-18 18l-5 3v-6c8-18 13-28 16-33 3-6 3-7 3-8-1-3-3-4-4-5-3 0-6 1-7 2l-59 62 10-19c32-61 34-64 32-68 0-3-2-4-5-5-2-1-5 0-7 2-10 12-22 26-33 39l-17 19 12-22c26-51 27-54 26-57s-3-5-5-5c-3-1-5 0-7 2l-36 36-13 13 8-17c26-50 27-53 26-56 0-2-2-4-3-4-2-1-4-1-6-1l-37 12 3-6c10-19 13-25 14-28l-7 2-8-2c-4 7-14 27-21 40l-4 8 3 4c2 2 5 2 8 2l38-13-3 6c-11 22-29 56-42 82l-4 7 3 4c1 1 2 1 2 2h3c4 0 16-11 43-38l13-13-8 17c-12 23-26 49-37 70-1 1-1 3 0 5 0 2 2 3 3 4s2 1 3 1 3-1 7-5l1-1c6-5 15-15 32-34l16-19-11 22c-27 52-28 53-27 57 1 2 3 4 5 4 3 1 5 0 7-2l59-62-9 18c-11 21-22 43-32 62l-1 3c-2 3-1 7 2 9s7 1 10-2c7-9 15-20 24-30l18-23-33 66c-2 3-1 8 3 10 1 0 2 1 3 1s3-2 7-5v-1c4-4 9-10 15-18l5 3c-16 31-15 32-14 35 0 1 2 3 3 4 3 1 7 1 9-2l57-60-9 18c-30 59-33 65-32 68 0 1 2 3 3 4 2 0 2 1 3 1s4-2 8-6c2-2 6-7 12-13s13-14 22-25l15-17-38 75c-2 3-1 8 3 10h2c2 0 4-1 8-5 8-7 19-20 44-49l17-19-12 22c-12 24-25 48-35 68-1 2-1 4-1 5 1 2 2 3 4 4 3 2 7 1 9-2l94-132 5 3c-23 45-53 103-80 153-1 3-1 4-1 6 1 2 2 3 4 4 1 1 2 1 3 1 0 0 2-1 6-5l1-2h1l1-2c14-17 42-62 110-172l5 3-9 18-18 34c-44 88-63 124-70 140l-2 2h1l-1 3c-2 3-2 4-2 5l15 9-3-6 90-152 5 3c-58 114-75 148-80 162v1l-4 5h-1l-9 9-266-265V256zm5 87c9-17 16-30 17-32l1-2 11 3 11-3-40-39v73zm31-3l24-7c3-1 6-1 9 0l-23-23v1c2 5 2 7-10 29zm22 46l23-23c4-4 8-5 13-4l1 1-19-20v1c2 5 2 6-18 45zm29 22c7-7 13-14 18-20 3-4 8-5 13-4h2l-17-17v1c1 4 2 6-16 40zm-77-32c-2 0-3-1-5-1v56c11-21 24-46 34-64l-25 8c-1 0-3 1-4 1zm94 71l30-31c3-4 8-5 12-4 1 0 1 0 2 1l-21-22v1c2 6 2 6-23 55zm37 8c4-4 5-7 7-10 1-2 2-3 3-5l1-1 2-2c7-6 11-6 15-4l-15-15c0 1 0 2 1 3 1 3 0 4-4 12-2 4-5 11-10 22zm-132 9c-1 0-3 0-4-1v31l261 261 5-5-22-14-1-1v-1c-1-2-1-3 0-7h-1l5-8c7-15 24-49 65-129-42 67-62 99-73 112l-3 7h-2c-4 3-6 5-9 5-2 0-4-1-5-2-3-1-6-4-7-7-1-4 0-7 1-10 20-38 41-79 61-117l-70 99c-4 5-12 7-18 3-3-1-5-5-6-8 0-3 0-6 2-9 7-13 15-29 23-45-14 16-22 25-28 30v1c-5 4-8 6-12 6-2 0-3-1-5-1-6-4-9-11-5-18l16-33c-2 2-4 5-5 7-7 6-10 10-13 13-6 6-9 8-12 8-2 0-4-1-5-2-4-2-6-5-7-8-1-4-2-5 23-54l-29 31c-4 4-10 5-15 3-3-2-6-4-7-8-1-3-1-5 3-15-4 4-7 5-10 5-2 0-4 0-6-1-3-2-5-5-6-8s-1-7 1-10l7-14c-2 2-4 5-6 7-4 6-12 7-17 3-6-3-8-10-5-16l2-4c6-13 14-28 22-43l-31 33c-3 3-8 5-13 4-4-1-8-5-9-9-2-5-2-6 16-40-7 8-12 13-16 17l-2 3-1-1c-4 4-7 6-10 6-2 0-3-1-5-2-3-2-5-4-6-8-1-3-1-7 0-10 9-15 19-35 28-54-24 25-29 28-34 28zm162-4v-1l1-2h1c7-7 11-7 15-5l-12-12v1c1 3 1 7-1 10l-4 9zm0 56l31-33c3-3 9-5 14-3l-21-20 1 1c1 5 1 5-15 36-3 5-6 12-10 19zm108 1c2 2 4 4 5 7v3l35-50-39 39c0 1-1 1-1 1zm-73 14c8-9 14-15 18-19l2-3c5-4 8-5 10-5s3 0 5 1l-18-18c1 2 1 4 1 5 0 2 0 4-1 6l-17 33zm25 24c6-7 12-14 17-20l12-14h-2c-2-1-4-3-6-5l-4-4c1 3 1 7-1 11l-16 32zm41 181l4 6c4-10 14-31 36-74l-40 68zm258-478L657 440l-5-3c28-55 40-79 45-90 1-4 2-6 2-7v-1c0-2-2-3-3-4l-2-1-4-1 74-75zm-64 73c2 1 4 4 5 6v3c0 2-1 4-3 9-1 3-3 7-5 11l38-65-35 36zm67-47v29l-3 5c-9 13-25 39-63 104l-5-3c21-39 38-73 51-97 6-11 10-20 14-28l6-10zm-18 47c4-7 7-12 10-16l2-2v-5c-3 5-6 10-9 17l-3 6zm18 14v41l-1 1s0 1-1 3c-6 7-13 20-26 40l-49 79-6-3 83-161zm-47 104l14-22c13-21 21-33 26-40l1-2v-15l-41 79zm-51-96l5 3c-15 23-41 63-92 146l-5-3c15-30 24-49 29-60v-2c2-5 2-6 2-7-1-2-2-3-4-4l-6-1 71-72zm-60 69c2 1 4 4 5 6 0 2 0 3-1 7h2l-3 4c-1 3-3 7-5 12 21-33 35-56 46-74l-44 45zm158-4v31l-4 5c-11 17-24 36-37 54l-5-3 19-35c9-17 16-31 21-41l6-11zm-17 45c3-4 5-8 8-12l3-4v-5c-4 6-7 13-11 21zm17 17v17l-17 17 9-18c1-2 1-3 2-4l6-12zM651 598l5 2-6 13-23 23 14-22c3-5 7-11 10-16zm-45 19l5 3-34 66-26 26 11-19c14-25 29-50 44-76z"/></svg>