<svg width="64" height="64" viewBox="0 0 1000 1000" xmlns="http://www.w3.org/2000/svg"><path d="M876 264c-63-34-142-37-187-107-5-8-34-11-46-4-39 20-60-5-87-24-89-63-146-57-238-2-103 62-98 204-205 260-5 3-7 16-6 23 8 50-23 80-52 114-78 92-71 227 11 315 79 86 213 102 308 39 102-67 141-196 88-304-31-64-97-111-87-196 2-18-23-29-42-34-44-11-42-46-26-70 23-33 55-63 89-84 27-16 62-11 92 11 36 26 13 42-1 66-13 21-12 49 5 69 27 33 34 68 24 102-7 140 66 245 185 272s243-41 285-156c39-108-6-235-110-290zM244 396c19 0 35 16 35 35s-16 35-35 35-35-15-35-35c0-19 15-35 35-35zm162 275c2 94-73 170-165 169-89-1-161-74-161-165 1-92 69-162 161-162 92-1 163 68 165 158zm168-401c0-19 16-35 35-35s35 16 35 35c0 20-16 35-35 35s-35-15-35-35zm185 365c-93 1-163-66-165-158-1-93 65-165 157-167 92-3 172 72 172 163 0 87-74 160-164 162z"/></svg>