<svg width="64" height="64" viewBox="0 0 1000 1000" xmlns="http://www.w3.org/2000/svg"><path d="M217 202c-9 0-17 8-17 17v284c0 4 2 8 5 12l283 282h24l283-282c3-4 5-8 5-12V220c0-7-4-13-10-16-7-3-14-1-19 4L500 479 231 210c-3-5-8-8-14-8zm456 151c-15 23-42 66-93 148 19-38 27-55 30-64 3-6 2-7 2-9-1-2-3-4-5-6h-2l68-69zm79-78l-96 163c29-57 41-80 45-91 3-5 3-7 3-9v-1c-1-3-3-5-5-6-1 0-2-1-2-1l55-55zm13 40c-10 13-28 42-64 105 20-40 38-74 51-98 6-12 10-21 14-28v18l-1 3zm-2 184l3-6v3l-3 3zm-37 8c5-10 10-20 15-29 11-21 19-37 25-49v18l-40 60zm-37 1l77-152v29s0 1-1 2c-6 9-15 23-30 46l-46 75zm-182 40c9-19 9-20 8-23-1-4-4-6-8-7 1-1 3-2 5-3l64-65-69 98zm138 69c3-6 7-11 10-17-2 5-4 9-6 13l-4 4zm-80 80c14-25 29-51 44-77l-34 67-10 10zm-55 54l-7-13 89-152c-58 113-76 151-81 165h-1zM234 458c1 0 2 1 3 2 6 3 7 3 49-39-12 24-26 51-36 71-2 2-2 5-1 8s3 5 5 6c3 2 5 3 13-5l1 1v-2c7-5 16-16 33-35-29 55-29 55-27 60 1 3 4 6 7 6 4 1 7 0 10-2l45-49c-11 22-23 47-33 66-3 4-1 10 3 13 5 3 11 2 14-3 7-9 16-20 24-30l-20 40c-3 5-1 11 4 14 4 2 6 3 13-5l1 1v-1c4-4 8-10 15-19-16 33-16 34-15 38 1 2 3 4 6 6 4 2 8 1 12-3l43-46c-34 67-33 67-32 71 0 2 2 4 5 6 4 2 6 3 14-5 3-3 7-8 12-14 6-6 13-14 22-25l-28 55c-2 5 0 11 5 14 3 1 5 2 13-5l1-1c7-7 20-21 44-49-12 23-25 48-35 68-3 5-1 11 3 14 5 2 11 1 14-3l95-134c-26 50-56 108-81 155-1 2-1 5 0 8 0 2 2 4 5 5 3 2 5 3 12-4h1l3-5c13-17 42-63 111-173l-10 18c-58 114-80 157-88 175l-4 5 1 1c-2 5-2 6-1 8l25 15-10 10-266-266v-37zm10-87l32-10c-11 21-29 56-42 82v-75c3 3 7 4 10 3zm-10-110l254 254 6 3c2 1 4 1 7 1-1 1-3 1-3 2-14 16-31 36-47 55l28-54c2-5 0-11-5-14-4-2-5-3-13 5h-1v1c-6 6-17 17-34 37 9-18 19-38 28-54 0-2 1-3 1-5 0-3-2-6-5-8-4-3-9-2-13 1l-45 48c7-14 14-28 20-38 15-30 15-30 14-34-1-3-3-5-5-6-4-2-6-3-14 5v1c-4 4-10 11-18 21l17-33c2-5 0-11-5-13-3-2-5-3-13 4h-1l-1 2c-4 4-3 11-20 22 17-38 20-40 19-43s-3-6-7-7-7 0-9 3l-45 47c35-67 35-67 33-72-1-3-4-6-8-7-3 0-7 1-9 4-10 11-22 25-34 39 28-55 28-56 26-60-1-4-3-6-7-7-3-1-7 0-9 2l-37 37c28-54 28-55 26-60-1-2-2-4-5-5-2-2-5-2-8-1l-30 10c15-29 15-29 13-34l-9 3-10-3c-1 3-12 24-22 43v-92z"/></svg>