<svg width="64" height="64" viewBox="0 0 1000 1000" xmlns="http://www.w3.org/2000/svg"><path d="M231 790l269-269 271 271c5 5 12 7 19 4 6-3 10-9 10-16V497c0-4-2-9-5-12L512 202h-24L205 485c-3 4-5 8-5 12v284c0 9 8 16 17 16 6 0 11-2 14-7zm419-167l-46-45h3c2-2 4-4 5-6 0-2 1-3-2-9-3-9-11-26-30-64 51 82 78 125 93 148l-23-24zm76 76l-29-29s1 0 2-1c2-1 4-3 5-6v-1c0-2 0-4-3-9-4-10-16-34-45-90l96 162-26-26zm40-11v18c-4-7-8-16-14-28-13-24-31-58-51-98 36 63 54 92 63 105l2 3zm0-184v3l-3-6 3 3zm0 49v18c-6-13-14-28-25-49-5-9-10-19-15-29l40 60zm-31 14c15 23 24 37 30 46 1 1 1 2 1 2v29l-77-152 46 75zm-158-17l-65-65c-2-1-3-2-5-3 4-1 7-4 8-7s1-4-8-23l70 98zm72-163c2 4 4 8 6 13l-10-17 4 4zm-74-74l34 67c-15-26-30-52-44-77l10 10zm-65-64c6 14 24 51 82 165l-89-152 7-14v1zM234 504l266-266 10 10-26 16c0 2-1 2 2 8h-1l3 6c8 17 31 60 89 175l9 18c-69-111-97-156-111-174 0-1-1-3-2-5l-1 1c-7-8-9-7-13-5-2 1-4 3-5 6s0 5 1 8c24 47 55 105 81 155l-95-134c-3-4-9-6-14-3s-7 9-4 14c11 19 24 44 36 68-24-28-37-43-45-50-8-8-10-7-14-5-5 3-7 9-4 14l28 54c-9-10-16-18-22-24-5-6-10-11-13-14-8-8-10-7-14-5-2 1-4 3-5 6s-1 4 33 71l-44-47c-3-3-8-4-12-2-2 1-4 4-5 6-1 4-2 5 15 37-7-8-12-14-15-18l-1-1c-7-7-9-6-13-4-5 2-7 8-5 13l21 41c-9-11-17-22-24-31-4-4-10-5-14-2s-6 8-3 13c9 19 22 43 33 65l-46-48c-2-2-6-4-9-3-4 1-7 4-8 7-1 5-1 5 27 60-16-19-26-30-32-36l-1-1c-8-7-10-6-13-4-3 1-4 3-5 6-1 2-1 5 0 8 11 20 25 47 37 70-42-42-44-41-50-38-1 1-2 1-2 2v-38zm0 128v-75c13 26 31 60 42 82l-32-10c-3-1-7 0-10 3zm0 14c10 20 21 41 22 44l10-4 9 3c2-4 2-5-13-33l31 10c2 1 5 1 7-1 3-1 5-3 5-6 2-4 2-5-26-59 13 13 26 26 37 36 2 3 6 4 9 3s6-3 8-7c1-4 1-5-27-60 12 14 24 28 34 39 2 3 6 4 9 4 4-1 7-4 8-7 2-5 2-5-33-72l45 47c2 3 6 4 9 3 4-1 6-3 7-7 1-3-2-4-19-43 17 11 16 18 20 23l1 1h1c8 7 10 6 13 5 5-3 7-9 5-14l-17-33c8 10 14 17 18 22 8 8 10 7 14 5 2-1 4-3 5-6 1-4 1-4-14-34-6-10-13-24-20-38l45 48c4 4 9 4 13 1 3-2 5-5 5-8 0-2-1-3-1-5-9-16-19-36-28-54 17 20 28 31 34 38v1l1-1c8 8 9 7 13 5 5-3 7-9 5-14l-28-54c16 19 33 39 47 55 0 1 2 1 3 2-3 0-5 0-7 1s-4 2-6 4L234 740v-94z"/></svg>