<svg width="64" height="64" viewBox="0 0 1000 1000" xmlns="http://www.w3.org/2000/svg"><path d="M503 800H223c-8 0-16-5-19-12-3-8-1-16 5-22l266-266-265-265c-4-3-7-9-7-15 0-11 8-20 19-20h281c5 0 10 2 14 6l281 281v26l-1 1-280 280c-4 4-9 6-14 6zM221 206c-7 0-13 6-13 14 0 4 3 8 6 11l269 269-2 2-268 268c-4 4-5 10-3 16 2 5 7 8 13 8h280c3 0 7-1 9-4l280-279v-22L512 210c-2-3-6-4-9-4H221zm276 560h-17l12-5 5-3 17-9-17 17zm-48 0h-31l11-5c9-5 20-10 34-18l42-22 3 5c-20 14-41 28-59 40zm-7-5h5c5-4 11-8 16-11-8 4-15 7-21 11zm-56 5h-41l161-82 3 6-77 48c-21 13-34 21-42 26-1 1-2 2-3 2h-1zm-16-5h15l2-2c8-5 20-13 42-26l20-13-79 41zm-56 5h-30l10-5c8-4 17-8 28-15 24-12 58-29 97-50l3 5c-65 38-91 54-104 63l-4 2zm-6-5h5l2-2c4-3 9-6 16-11-2 2-4 3-6 4-6 3-12 6-17 9zm-49 3l74-74 1 4c1 0 1 1 1 1 1 2 2 3 4 4 2 0 5-1 8-2 11-5 35-17 90-45l3 5-181 107zm72-64l-36 35 65-38-10 5c-6 2-8 3-10 3h-2c-3-1-6-3-7-5zm26-26l-4-5 72-71 1 5v1c1 2 2 3 4 4h1c1 0 3-1 6-2h1c9-4 29-13 61-29l3 5c-79 49-123 76-145 92zm65-65l-45 44c18-11 42-26 74-46-5 2-8 4-11 5l-5 4v-3c-4 1-6 1-7 1-2-1-5-3-6-5zm179 47l-3-5c5-3 11-7 16-10l22-14-23 23-12 6zm19-45l-3-6c26-14 51-29 76-43l19-11-26 26-66 34zm-34-17l-3-5 153-90 5 3-9-15c-1 0-2 0-5 2l-3 1v-1l-2 2c-16 7-52 26-140 71l-34 17-18 9-3-5c110-68 155-96 172-110 1 0 2-1 2-1v-1l2-1c6-5 5-6 4-9-1-2-2-3-4-4-2 0-3 0-6 1-47 25-104 55-153 80l-3-5 133-94c3-2 3-7 2-10-2-3-7-4-10-2-20 10-44 23-67 35l-23 11 19-16c29-25 43-37 49-44h1c5-7 5-8 4-10-2-4-7-5-10-3l-75 38 18-16c10-9 18-16 24-21 7-6 11-10 14-13 6-6 6-7 4-10-1-2-2-3-4-3l-1-1c-3 0-19 8-67 33l-18 9 61-57c2-3 3-6 1-9-1-1-2-3-4-3-1-1-1-1-2-1-3 0-11 4-33 15l-3-5c9-7 14-11 18-15h1c6-6 5-7 4-10-2-3-6-5-10-3l-66 33 53-42c3-2 4-6 2-9s-6-4-9-3h-1c-19 10-42 22-64 33l-18 10 63-60c1-1 2-4 2-6-1-3-3-5-5-6h-2c-3 0-15 6-55 27l-22 11 19-16c20-17 29-26 35-32l1-1c5-6 5-7 4-10-1-1-3-3-5-3-1-1-4 0-5 0-21 11-47 25-70 37l-17 8 13-13c40-40 40-42 38-46-1 0-1-1-2-1l-3-4-8 4c-26 13-60 31-82 42l-6 3 13-38c0-3 0-5-2-7l-4-4-8 4c-15 8-33 18-40 21l3 8-3 7c3-1 10-4 28-13l7-4-13 38c0 1 0 3 1 5s2 3 4 3c1 1 1 1 2 1 3 0 14-5 54-26l17-9-13 13c-13 13-25 26-36 36-2 2-3 5-2 7 1 3 2 5 5 5l1 1c4 0 17-7 56-27l22-11-18 16c-14 12-28 24-39 33-2 2-3 5-3 7 1 3 3 5 5 6h2c4 0 16-6 67-33l18-10-61 59c-2 2-3 4-2 7 0 1 1 3 5 4 1 0 3-1 7-3 6-3 16-8 33-15l1-1h6l-3 5c-8 12-14 15-19 18-2 1-3 1-4 2v1l-1 1c-6 6-6 7-4 10 1 3 6 5 9 3l33-17 3 5c-10 8-17 14-21 18h-1c-6 6-6 7-4 10 1 2 3 3 4 4h2c2 0 9-3 30-14 10-5 24-13 38-20l18-10-62 60c-3 2-3 6-1 9s5 4 9 2l74-38-17 16c-20 17-31 27-37 33l-1 1c-6 6-6 7-4 10 1 3 6 5 9 3l76-39-19 16c-13 12-27 24-40 35l-14 12-1 1-1 3v3c1 2 2 4 5 5h1c2 0 8-2 19-7l3 5-97 68-4-4 64-64c1-1 2-3 3-5l1-2v-3c0-2 0-3-1-5v-1c-1-1-2-3-3-4L256 233h241l1 1 265 266-9 9v1l-5 4h-1c-14 5-48 22-162 80zm-69-81v1l-40 39 50-35c-1 0-2 0-3-1-3 0-5-2-7-4zm192-40v1l-3 2c-1 1-3 1-4 2-13 11-45 31-112 73 80-41 114-59 129-66l8-4v1c4-1 6-1 7-1l1 1 1 1 14 22 5-5-260-261h-31c2 6 0 11-27 38 19-9 38-19 54-28 3-1 7-2 10-1 3 2 6 4 8 7 2 4 2 7-4 15v1l-3 2-16 16c27-15 32-17 36-17 1 0 2 0 3 1 5 1 8 5 9 9 1 5 0 9-4 13l-32 31c16-8 32-17 46-24h1c5-3 12-1 16 5 3 5 2 13-3 17l-8 6 14-7c7-4 15-1 18 5 3 5 3 9-4 16 7-3 10-4 12-4s3 1 4 1c3 1 6 4 7 7 3 5 2 11-2 15l-31 29c42-22 47-24 51-24 1 0 2 1 3 1 3 1 6 3 7 6 3 6 3 9-5 18-3 3-7 6-14 12-2 2-4 4-7 6l33-17c7-3 15 0 18 6 3 5 2 8-5 17h-1c-5 6-13 14-30 28 16-8 32-17 45-24 2-1 4-1 6-1 5 0 9 2 11 6 4 6 2 14-3 17l-99 70c40-20 81-42 117-60 4-2 7-2 10-1s6 3 7 6c3 5 3 9-3 15zm27 33l-68 40c43-22 64-32 75-36l-7-4zm-215-12l12-10c7-6 14-13 22-19l-32 16c-3 2-7 2-11 1l4 4c2 2 4 4 5 6v2zm-33-37l17 17c-2-4-1-7 4-14l3-2c4-4 10-10 19-18l-33 17c-3 1-7 1-10 0zm-28-28l20 21c-2-5 0-11 4-15l32-30c-7 4-14 7-19 10-25 13-29 15-33 15-1 0-2 0-3-1h-1zm-20-19l13 12c-3-5-3-8 4-15v-1l2-1h1l-9 4c-3 2-7 2-11 1zm-22-22l15 15c-2-5-1-8 5-15h-1l2-2 1-1c2-1 3-2 5-3 3-2 6-3 10-7-11 5-18 8-22 10-8 4-9 5-12 4-1-1-2-1-3-1zm-27-27l22 21c-1-1-1-1-1-2-1-4 0-9 4-12l31-30c-40 21-47 24-51 24-2 0-3 0-4-1h-1zm-24-25l17 18v-3c-1-4 0-9 4-12 6-5 13-11 20-18-26 14-33 16-37 16h-3s-1 0-1-1zm-27-26l20 19s0-1-1-2c-1-4 1-8 4-12l23-23c-32 17-37 19-41 19-2 0-3-1-4-1h-1zm-29-30l22 23c-1-3-1-6 0-9l7-24c-17 9-21 11-25 11-1 0-2 0-4-1zm-41-41l39 39 3-10-3-11 2-1c3-1 16-8 32-17h-73zm105 0c1 3 1 6 0 9l-8 24c18-9 43-22 64-33h-56z"/></svg>