<svg width="64" height="64" viewBox="0 0 1000 1000" xmlns="http://www.w3.org/2000/svg"><path d="M775 298c-7-9-9-23-12-36-6-21-11-42-16-64-3-12-8-18-22-18-86 1-173 1-260 0-12 0-18 4-21 16-10 40-21 79-33 117-3 10-9 21-17 28-58 51-117 101-175 151-17 15-27 32-21 55 5 23 18 37 40 44 19 6 36 0 51-13 27-22 53-45 79-67 3-2 6-4 9-5 5-2 11 1 12 6 2 3 2 6 2 10v353c0 38 20 62 52 62 30 1 53-24 53-61V640c0-4 1-8 1-11 1-7 3-12 5-12 2-1 5 3 6 8 1 3 1 6 1 9 1 37 0 74 1 110 0 29 17 50 43 51 25 1 45-16 47-44 2-41 1-81 2-122v-11c1-3 1-5 2-7 1-4 5-5 7-3 1 2 2 4 2 5 1 4 2 6 2 10v93c0 27 15 44 40 45 24 1 46-19 46-45 1-43 0-87 1-130 0-3 0-6 1-9 1-5 4-10 6-10s4 5 5 10c0 3 1 6 1 9v92c0 24 13 39 36 43 20 3 42-9 48-29 3-10 4-20 4-30 1-92 1-184 1-276-1-32-7-62-29-88zM470 155h256c15 0 27-12 27-28V90c0-15-12-27-27-27H470c-15 0-27 12-27 27v37c0 16 12 28 27 28z"/></svg>