<svg width="64" height="64" viewBox="0 0 1000 1000" xmlns="http://www.w3.org/2000/svg"><path d="M803 273c0 16 0 33 1 50 0 9-6 23 5 27 12 5 23-5 32-13s14-20 15-31c7-65-10-122-65-161-38-28-82-47-129-59-31-9-56 3-78 27 58 21 113 39 164 68 36 20 53 51 55 92zm-626 77c11 4 17 2 17-12 0-20 2-41 2-62 0-46 21-79 62-100 49-25 101-43 153-62-17-26-45-37-77-28-37 10-72 26-105 45-65 36-99 103-87 176 4 20 15 35 35 43zm450-172c3-18-8-28-25-31-34-7-68-10-102-10s-68 3-102 9c-19 3-29 13-26 33 3 18 17 23 34 20 62-10 125-10 187 0 18 3 30-4 34-21zm-346 80c-4 3-8 5-7 12 6 40 12 43 50 29 10-4 21-7 31-11 27-13 49-31 65-63-20 3-36 3-50-6-2-1-7-1-9 0-22 22-53 26-80 39zm438 20c9-11 8-16-6-22-26-10-53-15-74-35-4-5-9-3-14-1-13 8-28 8-47 4 22 44 55 62 93 74 12 4 24 14 35 13 16-2 2-22 12-30 0-1 0-2 1-3zm178 201c-14-10-21-20-19-39 0-10-3-19-8-27-7-12-19-20-35-21-53-1-53-1-54-55 0-15 1-30 0-45-1-13-10-21-24-20-13 1-19 9-20 21v45c-1 55-1 55-55 54-22 0-35 11-39 32-2 11-5 23-4 34 2 20-6 30-21 41-110 88-114 250-10 344 28 27 67 37 94 65 3 4 11 4 16 5 110 19 221-42 264-146 43-103 8-224-85-288zm-140-43c0-5 3-8 7-8h38c4 0 9-3 12-5 5-5 10-7 17-7 14 0 26 12 26 26s-12 26-26 26c-7 0-12-2-17-6-3-3-8-6-12-6h-38c-4 0-7-3-7-7v-13zm-43 453c-9 0-16-8-16-17s7-17 16-17c10 0 17 8 17 17s-7 17-17 17zm27-51c-95 0-172-77-172-172 0-94 77-171 172-171s171 77 171 171c0 95-77 172-171 172zM382 499c-14-11-23-21-21-41 1-11-2-23-4-34-4-21-17-32-39-32-54 1-54 1-55-54v-45c-1-12-7-20-20-21-14-1-23 7-24 20-1 15 0 30 0 45-1 54-1 54-54 55-15 1-28 9-35 21-5 8-8 17-7 27 1 19-6 29-20 39-93 64-128 185-85 288 43 104 154 165 264 146 5-1 13-1 17-5 26-28 65-38 93-65 104-94 100-256-10-344zm-213-83c7 0 12 2 17 7 3 2 8 5 12 5h38c4 0 8 3 8 8v13c0 4-4 7-8 7h-38c-4 0-9 3-12 6-5 4-10 6-17 6-14 0-26-12-26-26s12-26 26-26zm117 473c-10 0-17-8-17-17s7-17 17-17c9 0 17 8 17 17s-8 17-17 17zm-27-51c-94 0-171-77-171-172 0-94 77-171 171-171s172 77 172 171c0 95-77 172-172 172z"/></svg>