<svg width="64" height="64" viewBox="0 0 1000 1000" xmlns="http://www.w3.org/2000/svg"><path d="M200 483h-98c-22 0-39 17-39 38v371c0 22 17 39 39 39h98c22 0 40-17 40-39V522c-1-22-18-39-40-39zm232 117h-97c-22 0-40 17-40 39v253c0 22 18 39 40 39h98c22 0 39-17 39-39V639c0-22-18-39-40-39zm233 0h-97c-22 0-40 17-40 39v253c0 22 18 39 40 39h97c22 0 40-17 40-39V639c0-22-18-39-40-39zm233-117h-98c-22 0-39 17-39 38v371c0 22 17 39 39 39h98c22 0 40-17 40-39V522c0-22-18-39-40-39zM605 147c-2-1-4-2-5-3l-114-35c-46-14-75 11-83 19-5 4-9 9-11 13l-50 117c-3 7-2 16 2 25 7 13 19 22 33 25 15 4 32-1 44-14 4-3 6-7 8-10l17-31c3-5 7-10 11-14 15-15 22-8 25-5 26 24 159 156 159 156 5 4 4 13-2 19s-15 7-20 2l-37-37c-5-5-13-5-18 0-4 5-4 12 0 17l38 37c5 5 4 14-2 19-6 6-15 7-20 3l-37-37c-5-5-13-5-18 0-5 4-5 12 0 17l38 37c4 5 3 13-3 19s-15 7-19 2l-38-36c-5-5-13-5-17 0-5 4-5 12 0 17l37 37c5 4 4 13-2 19s-15 7-20 2l-46-45c7-10 5-24-5-33-10-11-27-12-37-2 10-10 9-26-2-37s-28-11-37-2c9-10 8-26-3-36-10-11-27-12-37-3 10-9 9-26-2-36-10-10-25-12-35-4l-74-73c-5-4-13-4-18 0-5 5-5 13 0 17l74 73-22 21c-10 10-9 26 2 37s28 12 38 2c-10 10-9 26 2 37 11 10 27 11 37 2-10 9-9 26 2 36 11 11 28 12 38 3-10 9-9 25 2 36s27 12 37 2l23-22 46 44c14 14 39 13 54-2 8-8 12-17 13-27 9 0 19-4 27-12 8-7 12-17 12-26 10-1 20-5 27-12 8-8 12-17 13-27 9-1 19-5 27-12 15-16 16-40 2-54l-19-19 78-77c5-4 5-12 0-17L605 147zm186 28L691 76c-10-9-25-9-35 0l-35 35c-10 9-10 25 0 34l100 98c10 10 25 10 35 0l35-34c10-9 10-25 0-34zm-53 50c-11 0-20-9-20-20s9-20 20-20 21 9 21 20-9 20-21 20z"/></svg>