<svg width="64" height="64" viewBox="0 0 1000 1000" xmlns="http://www.w3.org/2000/svg"><path d="M775 702c-7 9-9 23-12 35-6 22-11 43-16 65-3 12-8 18-22 18-86-1-173-1-260 0-12 0-18-4-21-17-10-39-21-78-33-116-3-10-9-21-17-28-58-51-117-101-175-151-17-15-26-32-21-56 5-22 18-36 40-43 19-6 36 0 51 12 27 23 53 46 80 68 2 2 5 4 8 5 5 1 11-1 13-6 1-3 1-7 1-10 1-104 1-208 1-312v-41c0-38 19-62 51-63 30 0 53 25 53 62v236c0 4 1 7 1 11 1 7 3 12 5 12 2 1 5-3 6-8 1-3 1-6 1-9 1-37 0-74 1-111 0-28 17-49 43-50 25-1 45 16 47 44 2 40 1 81 2 122 0 3 0 7 1 11 0 3 0 5 1 7 1 4 6 5 7 2 1-1 2-3 2-5 1-3 2-6 2-9v-93c0-27 15-44 40-45 24-1 46 19 46 45 1 43 0 86 1 129 0 4 0 7 1 10 1 5 4 10 6 10 2-1 4-5 5-10 0-3 1-6 1-9v-92c0-24 13-39 36-43 20-3 42 9 48 29 3 10 4 20 4 30 1 92 1 184 0 275 0 33-6 63-28 89zM470 845h256c15 0 27 12 27 28v37c0 15-12 28-27 28H470c-15 0-27-13-27-28v-37c0-16 12-28 27-28z"/></svg>