<svg width="64" height="64" viewBox="0 0 1000 1000" xmlns="http://www.w3.org/2000/svg"><path d="M760 938H342V723c0-10-4-15-11-20-44-33-88-66-133-99-10-7-15-15-14-28 1-49 0-99 0-148 1-73 48-121 120-122 50 0 101 1 151 0 14-1 16 5 15 18-6 52-54 95-110 97-16 1-32 1-47 0-8 0-16 1-13 11 3 17-12 43 8 48 50 14 102 19 152 30 25 5 51 9 73 23 42 28 65 67 67 117 1 12 4 16 15 16 14 0 14-7 14-17-1-45-19-82-49-115-38-42-91-50-143-59-35-7-106 19-111-21-1-14 23-4 32-4 44-1 81-18 108-52 16-21 29-42 55-50 5-2 10-7 13-11 7-11 12-8 19 0 36 36 89 36 124 0 9-9 12-8 20 0 29 30 69 35 105 15 4-2 7-7 14-4v306c0 9-3 11-11 13-28 7-45 26-45 53-1 72-1 145 0 218zm-87-736c0 24 0 48-1 73 0 34-25 59-57 60-32 0-57-25-57-59-1-51-1-102 0-152 0-22 11-33 32-33 17-1 34-1 51 0 20 0 31 11 32 32v79zM502 325c-4 2-2-4-2-5-1-42-1-42-44-42-42 0-42 0-42-42 0-45-1-90 0-136 0-28 9-37 37-37 15-1 31-1 47 0 20 1 31 10 31 30v186c0 19-7 40-27 46zm314-96c0 16 1 32 0 49-1 32-26 56-56 57-30 0-56-22-58-53-2-35-1-69 0-104 0-19 11-29 29-29 19-1 37-1 55 0 20 0 29 11 30 31v49zm-546-21v-56c1-21 12-32 32-32h53c18 0 30 10 30 29 1 39 0 78 1 116 0 11-5 13-14 13-30 0-60 0-91 1-10 0-11-5-11-13 1-19 0-39 0-58z"/></svg>