<svg width="64" height="64" viewBox="0 0 1000 1000" xmlns="http://www.w3.org/2000/svg"><path d="M800 214c0-9-8-17-17-17H497c-4 0-9 2-12 5L200 488v24l285 285c3 3 8 5 12 5h286c7 0 13-4 15-10 3-7 2-14-3-19L521 500l272-272c4-3 7-8 7-14zM648 675c-23-16-67-43-149-94 38 19 55 27 64 30 6 2 8 2 9 2 3-1 5-3 6-5v-3l70 70zm79 79l-164-97c57 29 81 41 91 46 6 2 8 3 9 3s1 0 2-1c2 0 4-2 6-5v-2l56 56zm-40 13c-14-10-43-28-106-65 40 21 75 39 98 52 12 6 21 10 29 14h-18l-3-1zm-186-2l6 3h-3l-3-3zm-8-37c10 5 20 10 29 15 21 11 37 19 49 25h-18l-60-40zm-1-38l153 78h-29s-1 0-2-1c-9-6-23-15-47-30l-75-47zm-40-183c18 9 20 9 23 8s6-4 7-8c0 2 2 3 3 5l65 65-98-70zm-70 139c6 3 11 7 17 10l-13-6-4-4zm-80-80c25 14 51 29 77 44l-67-35-10-9zm-56-56l14-7 154 90c-115-59-153-77-167-82l-1-1zm297-278c-1 0-2 1-2 2-3 6-4 8 38 50-24-12-50-26-71-37-2-1-6-1-8 0-3 0-5 2-6 5-2 3-3 5 4 13l1 1c6 6 17 16 36 33-55-29-55-29-60-28-4 2-6 4-7 8-1 3 0 7 3 10l48 46c-22-12-46-24-65-34-5-2-11-1-13 3-3 5-2 11 2 14 9 7 20 16 31 25l-41-21c-5-3-11-1-14 4-2 4-3 6 5 14l1 1c3 3 9 8 18 15-33-17-34-16-38-15-2 1-4 3-6 5-2 4-1 9 2 12l47 44c-67-34-68-34-71-33s-5 3-6 5c-2 4-3 6 5 14 3 4 7 8 14 13 6 6 14 13 25 22l-55-28c-5-3-12-1-14 4-2 4-3 6 5 14v1c7 7 22 20 50 44-24-12-49-25-69-35-4-3-11-1-13 3-3 5-2 11 2 14l136 96c-51-26-110-57-157-82-3-1-5-1-8 0-2 1-4 2-6 5-1 3-3 6 5 13v1c1 0 3 1 4 2 18 14 64 42 175 112-6-3-12-6-18-10-115-58-159-81-176-89l-6-3v1c-6-3-7-2-8-2l-16 26-10-10 268-268h39zm87 10l10 32c-22-11-57-29-82-42h75c-3 2-4 6-3 10zm111-10L485 488c-2 2-3 4-4 6 0 2-1 4-1 6 0-1-1-2-2-3-16-13-36-30-55-47l55 28c5 3 11 1 13-4 2-4 3-6-4-14h-1c-6-7-18-17-38-35 18 10 38 20 55 28 1 1 3 1 4 1 4 0 7-1 9-4 3-4 2-10-2-14l-48-45c14 7 28 14 38 20 31 16 31 16 35 14 3-1 5-2 6-5 2-4 3-6-5-14-5-4-12-10-22-18l33 17c5 2 11 0 14-5 2-3 3-5-5-13v-1l-1-1c-5-4-12-3-23-20 39 17 40 20 44 19 3-1 6-3 7-7 0-4-1-7-3-10l-48-45c67 35 68 35 72 34s7-4 7-8c1-4 0-7-3-10-12-10-26-22-40-34 56 29 57 28 61 27s6-4 7-7c1-4 0-8-3-10-10-11-24-24-36-37 54 28 55 28 60 26 2 0 4-2 6-5 1-2 1-5 0-7l-10-31c29 15 30 15 34 13l-3-9 3-10c-3-1-24-12-43-22h93z"/></svg>