<svg width="64" height="64" viewBox="0 0 1000 1000" xmlns="http://www.w3.org/2000/svg"><path d="M702 775c9-7 23-9 35-12 22-6 43-11 65-16 12-3 18-8 18-22-1-86-1-173 0-260 0-12-4-18-17-21-39-10-78-21-116-33-10-3-21-9-28-17-51-58-101-117-151-175-15-17-32-27-55-21-23 5-37 18-44 40-6 19 0 36 13 51 22 27 45 53 67 80 2 2 4 5 5 8 2 5-1 11-6 13-3 1-6 1-10 1-104 1-208 1-312 1h-41c-38 0-62 19-62 51-1 31 24 53 61 53h236c4 0 8 1 12 1 6 1 11 3 12 5 0 2-4 5-9 6-3 1-6 1-9 1-37 1-73 0-110 1-29 0-49 17-51 43-1 25 16 45 44 47 41 2 81 1 122 2 4 0 8 0 12 1 2 0 4 0 6 1 4 1 5 5 3 7-2 1-3 2-5 2-3 1-6 2-9 2h-93c-28 0-44 15-45 40-1 24 19 46 45 46 43 1 86 0 129 1 3 0 7 0 10 1 5 1 9 4 9 6s-4 4-9 5c-3 0-7 1-10 1h-91c-24 0-39 13-43 36-3 20 9 42 29 48 9 3 20 4 30 4 91 1 183 1 275 1 32-1 62-7 88-29zm143-305v256c0 15 12 27 28 27h37c15 0 28-12 28-27V470c0-15-13-27-28-27h-37c-16 0-28 12-28 27z"/></svg>