<svg width="64" height="64" viewBox="0 0 1000 1000" xmlns="http://www.w3.org/2000/svg"><path d="M778 800H497c-5 0-10-2-13-6L203 513v-27l280-280c4-4 9-6 14-6h281c11 0 20 9 20 20 0 6-4 12-9 16L525 500l267 266c5 6 7 14 4 22-3 7-11 12-18 12zM208 511l280 279c2 3 6 4 9 4h281c5 0 10-3 12-8 2-6 1-12-3-16L517 500l2-2 266-267c4-3 7-7 7-11 0-8-6-14-13-14H497c-3 0-7 1-9 4L208 489v22zm508 255h-31l-3-1c-13-10-39-26-104-64l3-5c39 20 73 38 97 50 11 7 20 11 28 15l10 5zm-29-5h5c-5-3-10-6-17-9-2-1-4-2-6-4 7 5 12 9 16 11l2 2zm-32 5h-42s-1-1-3-1c-8-6-21-14-42-27l-77-49 3-5 161 82zm-40-5h15l-79-41 20 13c21 13 34 21 42 27 1 0 2 0 2 1zm-33 5h-31c-18-12-39-26-59-40l3-5 42 22c14 8 25 13 35 18l10 5zm-29-5h5c-6-4-13-7-21-11 6 3 11 7 16 11zm-33 5h-17l-17-17 17 9c2 1 4 2 5 3l12 5zm221-2L560 657l3-5c55 28 79 40 90 45 4 1 6 2 7 2h1c2-1 3-2 4-4l1-1 1-4 4 3 70 71zm-101-67l65 38-36-35c-1 2-4 4-6 5-2 0-3 1-12-3-3-1-6-3-11-5zm4-23c-23-16-67-43-146-92l3-5c33 16 53 26 62 29 3 1 5 2 6 2h1c2-1 3-2 4-4v-2l2-5 71 72-3 5zm-95-67c32 20 56 35 74 46l-45-44c-1 2-4 4-6 4-1 1-3 1-7 0v2l-5-3c-2-1-6-3-11-5zm-149 49l-14-6-22-23 22 14c5 3 11 7 16 10l-2 5zm-20-45l-67-35-25-25 19 11c25 14 50 29 76 43l-3 6zm34-17c-114-58-148-75-162-80h-1l-2-2-3-3-9-9 2-2 264-264h241l-5 5-251 251c-2 1-2 3-3 4v1l-1 1v7l1 2c1 2 1 3 3 5l63 64-3 4-97-68 3-5c11 5 17 7 19 7h1c3-1 4-3 5-5v-3l-1-2c0-1-1-2-1-2l-14-12c-13-11-27-23-40-34l-19-16 76 38c3 2 8 0 9-3 2-3 2-4-4-10l-1-1c-6-6-17-16-37-33l-17-16 74 38c4 2 8 1 10-2s1-7-1-9l-63-60 18 10c14 7 28 15 38 20 21 11 28 14 30 14h2c2-1 3-2 4-4 2-3 2-4-4-10l-2-1c-4-4-11-9-20-17l3-5 33 17c3 2 8 0 9-3 2-3 2-4-4-10l-1-1v-1c-1-1-2-1-4-2-4-2-10-6-18-18l-3-5 6 1c18 7 27 12 33 15 4 2 7 3 7 3 4-1 5-3 6-4 0-3-1-5-2-7l-62-58 18 9c51 27 64 33 67 33h2c3-1 4-3 5-6 0-2 0-5-2-6-12-10-26-22-39-34l-19-16 22 11c39 20 52 27 56 27l1-1c3 0 4-2 5-5 0-2 0-5-2-7l-36-36-13-13 17 9c40 21 51 26 54 26 1 0 1 0 2-1 2 0 3-1 4-3s1-4 1-6l-13-37 7 4c18 9 25 12 28 13l-3-7 3-8c-7-3-25-13-40-21l-8-4-4 3c-2 2-3 5-2 8l13 38-6-3c-22-11-56-29-82-42l-8-4-3 3c-1 1-1 2-2 2-2 4-2 6 38 46l13 13-17-8c-23-12-49-26-70-37-1-1-3-1-5 0s-4 2-4 3c-2 3-2 4 4 10v1c6 6 16 15 35 32l19 16-22-11c-40-21-52-27-55-27h-2c-2 1-4 3-4 6-1 2 0 5 2 6l62 60-18-10c-21-11-45-23-64-32v-1c-4-1-8 0-10 3s-1 7 2 9l53 43-66-34c-3-2-8-1-10 3-1 3-2 4 4 9l1 2c5 3 10 8 18 14l-3 5c-22-11-30-15-33-15h-2c-2 1-3 2-4 4-1 3-1 6 1 9l61 57-18-9c-48-25-64-33-67-33h-1c-2 1-3 2-4 4-2 3-2 4 4 10 3 3 7 7 14 13 6 5 14 12 24 21l18 16-75-39c-3-1-8 0-10 3-1 3-1 4 5 10v1c7 7 20 19 49 44l19 16-22-12c-24-11-48-24-68-34-4-3-7-1-9 2s-2 7 2 10l132 94-3 5c-49-25-106-55-153-80-3-1-4-1-6-1-2 1-3 2-4 4-1 3-2 4 4 9l2 1v1l2 1c17 14 62 42 171 110l-2 5-18-9-34-17c-88-45-124-64-139-71l-3-2v1l-3-1c-3-2-4-2-5-2l-9 15 5-3 2 1 151 89-3 5zm59-76l50 35-39-39c-1 0-1-1-1-1-2 2-4 4-7 5h-3zm-200-36l3 1 5 3c15 6 49 24 129 65-67-42-99-62-112-73-1 0-2-1-4-2l-3-2 1-1c-7-6-7-10-4-15 1-3 4-5 7-6 4-1 6-1 10 1 36 18 77 40 117 60l-99-69c-5-4-7-12-4-18 4-6 12-8 18-4 13 7 29 15 45 23-17-14-25-22-30-28h-1c-7-8-7-12-5-17 3-6 11-9 18-6l33 17c-2-2-5-4-7-6-7-6-11-10-14-12-8-9-8-12-5-18 2-3 4-5 8-6 0 0 1-1 2-1 4 0 9 3 52 24l-31-29c-5-4-6-10-3-15 1-4 4-6 8-7 1 0 2-1 3-1 2 0 5 1 12 4v-1c-7-7-6-10-4-15 3-6 12-9 18-5l14 7-8-6c-5-5-6-12-3-18 4-5 11-7 17-4 14 7 30 15 47 24l-33-31c-4-4-5-8-4-13 1-4 4-8 9-9 1-1 2-1 3-1 4 0 9 2 37 17-9-8-14-13-17-16l-2-2v-1c-7-7-7-11-4-15 1-3 4-6 7-7 4-1 7 0 10 1 16 9 35 19 54 28-26-27-29-32-26-38h-31L245 500l5 5 15-23 1-1c1 0 3 0 7 1zm-15 28c10 4 31 14 74 36l-68-40-6 4zm187-45c8 6 15 13 22 19l12 10v-2c1-2 3-4 4-6l5-4c-4 1-8 1-11-1l-32-16zm46-5c6 7 6 10 4 15l17-18c-3 1-7 1-10 0l-33-17c9 8 15 14 19 18l3 1v1zm-7-55l33 30c4 4 5 10 3 15l20-21h-1c-1 1-2 1-3 1-4 0-8-2-33-15-5-3-12-6-19-10zm59 2c7 7 7 10 5 15l12-13c-3 2-8 2-11 0l-9-4h1l2 1v1zm20-19c6 7 6 10 4 15l15-15c-1 0-2 0-3 1-3 1-4 0-12-4-4-2-11-6-22-11 4 4 7 6 10 7 2 1 3 2 5 4l3 2v1zm-10-50l31 30c4 3 5 7 4 12 0 1 0 1-1 2l22-21h-1c-1 0-2 1-4 1-4 0-11-3-51-24zm39-17c7 7 14 13 20 18 4 3 5 8 4 12v3l17-18c0 1-1 1-1 1h-3c-4 0-10-2-37-16zm22-29c9 8 16 16 23 23 4 4 5 8 4 12 0 1-1 2-1 2l20-19h-1c-1 0-2 1-3 1-4 0-10-2-42-19zm46-22l7 24c1 3 1 6 0 9l23-23h-1c-2 1-3 1-4 1-4 0-8-2-25-11zm28-2l3 10 39-39h-73c16 9 30 16 32 17l2 1-3 11zm-119-29c21 11 46 24 64 33l-8-24c-1-3-1-6 0-9h-56z"/></svg>