<svg width="64" height="64" viewBox="0 0 1000 1000" xmlns="http://www.w3.org/2000/svg"><path d="M807 489c0-10-1-19-4-28-6-19-27-30-46-27-22 4-34 18-34 40-1 28 0 57-1 85 0 3 0 6-1 9 0 5-2 9-4 9s-5-4-6-9c0-3-1-6-1-9V439c-1-24-21-43-44-42-24 0-38 16-38 42v86c0 3-1 6-2 9 0 2-1 3-2 4-2 3-6 1-7-2-1-2-1-4-1-6 0-4-1-7-1-11 0-38 1-76-2-113-1-27-21-43-45-41-24 1-40 20-41 47 0 34 1 68 0 102 0 3 0 6-1 9-1 5-4 8-6 8s-4-5-4-11c-1-4-1-8-1-11V328v-39c0-34-22-57-51-57-30 0-49 22-49 58v329c0 3-1 6-2 9-1 5-6 8-11 6-3-1-6-3-9-4-25-21-50-43-75-64-14-11-30-17-49-11-20 6-33 19-38 40-5 22 4 38 20 52 55 47 111 93 166 141 8 6 14 16 17 25 11 36 22 73 31 109 3 12 9 15 20 15 83 0 165 0 247 1 13 0 19-6 21-17l15-60c3-11 5-25 12-33 20-24 27-52 27-82V489zM466 177c88 0 159 71 159 158h26c0-102-83-184-185-184s-185 82-185 184c0 44 15 84 40 116l20-18c-21-27-34-61-34-98 0-87 71-158 159-158zM269 479c4-1 7-2 10-2-30-39-47-88-47-141 0-130 105-235 234-235s234 105 234 235v2h1l38 5v-8c0-150-122-273-273-273S193 185 193 336c0 59 19 113 51 158 6-7 15-12 25-15z"/></svg>