<svg width="64" height="64" viewBox="0 0 1000 1000" xmlns="http://www.w3.org/2000/svg"><path d="M815 464c-6-18-25-28-43-26-20 4-32 17-32 38v79c0 3 0 6-1 8-1 5-3 8-4 9-2 0-4-4-5-9-1-2-1-5-1-8-1-37 0-75-1-112 0-23-19-40-41-39-22 0-35 15-35 39v81c0 2-1 5-2 7 0 2-1 4-2 5-1 2-5 1-6-2-1-2-1-4-1-6-1-4-1-7-1-10-1-36 0-71-2-106-1-24-19-39-42-38-22 1-38 19-38 44v95c0 3-1 6-1 8-1 5-4 8-6 8s-3-5-4-11c0-3 0-7-1-10V340v-37c0-32-20-53-47-53-28 0-45 21-45 54v307c0 3-1 5-2 8-2 5-6 7-11 5-3-1-5-2-8-4-23-19-47-39-70-58-13-11-28-16-45-11-19 6-31 18-36 38-4 20 4 35 19 48 51 43 104 87 155 131 7 6 13 15 15 24 11 33 21 67 29 101 3 11 9 14 19 14h230c12 1 17-4 20-15 4-19 8-37 13-56 3-10 5-23 11-31 20-22 26-48 26-76V490c0-9-1-18-4-26zM501 199c82 0 148 66 148 148h24c0-95-77-172-172-172s-172 77-172 172c0 40 14 78 38 107l18-16c-20-25-32-57-32-91 0-82 67-148 148-148zm435 37L862 96c-3-5-7-5-10 0l-14 27c-2 5-2 13 0 18l41 77H720C676 143 595 93 501 93s-176 51-220 127v-2H121l41-77c2-5 2-13 0-18l-14-27c-3-5-7-5-10 0L65 236c-3 5-3 13 0 18l73 140c3 5 7 5 10 0l14-27c3-5 3-13 0-18l-41-78h138c-8 24-12 49-12 76 0 55 17 106 47 148 6-7 14-12 24-14 3-1 6-2 9-2-28-37-44-83-44-132 0-121 98-219 218-219s218 98 218 219v2h1l35 5v-7c0-27-4-52-11-76h135l-41 78c-2 5-2 13 0 18l14 27c3 5 7 5 10 0l74-140c2-5 2-13 0-18z"/></svg>