<svg width="64" height="64" viewBox="0 0 1000 1000" xmlns="http://www.w3.org/2000/svg"><path d="M107 638c6-2 13-2 19-2h748c7 0 13 0 19 2 6 1 7-1 3-6l-49-54c-5-4-13-8-19-8H172c-6 0-14 4-18 8l-50 54c-4 5-3 7 3 6zm-1-423c6-1 13-2 20-2h748c7 0 14 1 20 2 6 2 8 0 4-5L778 80c-10-11-25-17-39-17H262c-15 0-29 6-39 17L103 210c-4 5-3 7 3 5zm768 51H126c-19 0-35 16-35 35v181c0 19 16 35 35 35h748c20 0 35-16 35-35V301c0-19-16-35-35-35zM622 444c-29 0-53-23-53-52s24-53 53-53 53 23 53 53-24 52-53 52zm153 0c-29 0-53-23-53-52s24-53 53-53 53 23 53 53-23 52-53 52zm99 242H126c-19 0-35 16-35 35v181c0 20 16 36 35 36h748c20 0 35-16 35-36V721c0-19-16-35-35-35zM622 865c-29 0-53-24-53-53s24-53 53-53 53 24 53 53-24 53-53 53zm153 0c-29 0-53-24-53-53s24-53 53-53 53 24 53 53-23 53-53 53z"/></svg>