<svg width="64" height="64" viewBox="0 0 1000 1000" xmlns="http://www.w3.org/2000/svg"><path d="M787 503c-1-78 2-157-21-233C723 128 621 59 472 72c-127 11-206 74-239 206-29 120-33 243 6 362 28 88 83 158 170 197 18 8 30 11 43-9 26-39 77-52 120-37 48 18 72 56 70 112-2 44-34 82-79 94-45 11-94-7-116-47-12-22-27-32-49-40-117-43-186-133-227-246-7-19-14-29-34-35-40-11-75-33-101-66-63-80-42-194 52-241 49-24 70-54 84-105C208 83 316 5 459 1c58-2 115-2 172 15 122 35 184 123 210 241 5 24 12 38 38 47 81 30 123 92 120 172-1 34-14 64-36 89-39 46-89 69-148 76-20 2-31-2-29-26 2-37 0-75 1-112z"/></svg>