<svg width="64" height="64" viewBox="0 0 1000 1000" xmlns="http://www.w3.org/2000/svg"><path d="M154 937c-21-7-28-22-27-44v-83c0-28 13-41 41-41h130c3 0 7 2 9-2 1-2-2-5-3-7-68-115-136-230-204-344-1-3-3-5-4-8 81 57 157 54 228-16 24 41 49 83 73 125 48 82 96 163 143 245 3 5 7 7 13 7h138c29 0 41 13 41 42 0 28 0 56 1 84 0 21-7 35-28 42H154zm780-601c-3 14-12 23-24 30-52 30-103 61-155 92-21 13-37 10-53-9-20-26-41-52-62-78-3-5-7-6-12-6h-62c-19 0-31-9-35-28-1-6-5-5-8-5H364c-7 0-8-1-6-8 11-28 14-57 10-87-2-11-5-22-9-31-3-7-2-9 5-9l155 1c7 0 12-1 14-10 3-15 16-24 32-24 21-1 41-1 62 0 7 0 10-2 14-7 20-25 40-49 59-74 7-9 15-16 26-20h14c6 3 12 6 19 10 50 30 99 60 150 90 12 7 22 15 25 30v10c-3 6-4 12-9 17-13 12-29 14-46 3-43-26-87-52-131-78-5-4-9-4-13 2-22 27-43 54-65 81-3 4-4 7-4 12v49c0 4 1 8 4 12 22 27 44 54 65 81 4 6 7 6 13 2 44-26 87-52 131-78 9-6 19-9 30-6 15 3 22 14 26 27-1 3-1 6-1 9zm-740 56c-71 1-128-56-128-127s57-129 128-129 128 58 128 128c1 71-57 128-128 128zm0-202c-41 0-75 34-74 75 0 40 34 74 74 74 41-1 74-34 74-75s-33-74-74-74zm0 110c-20 0-36-16-35-36 0-20 16-36 35-36 20 1 36 17 36 36 0 20-16 36-36 36z"/></svg>