<svg width="64" height="64" viewBox="0 0 1000 1000" xmlns="http://www.w3.org/2000/svg"><path d="M407 514c-6 2-11 7-14 13-8 10-18 19-29 25-17 10-31 24-45 38-9 9-17 25-30 22-15-4-16-23-22-36v-6c-8-50-15-101-22-152-2-12-6-18-18-16-13 2-12 11-12 20 1 9 3 17 3 25 5 46 19 91 17 149-4 52-6 51-56 27-34-15-66-36-105-36-4 0-9-3-11 3s1 11 7 13c38 13 70 40 110 49 22 5 41 12 57 30 20 21 45 14 57-12 6-14 12-28 24-37 39-29 65-71 100-103 4-4 11-9 6-15-4-4-11-2-17-1zm530-68c-2-5-6-4-10-4-19 4-39 6-57 15-24 12-50 24-75 34-19 8-24 5-27-16-7-39-2-77 5-116 4-26 8-52 11-74 0-13 3-24-11-26s-18 6-19 18c-3 43-17 85-17 129-1 17-6 34-14 49-10 18-14 19-29 5-13-12-25-27-40-38-18-14-38-26-52-44-4-6-10-9-17-8-4 0-8-2-10 2s1 8 3 10c35 30 57 71 95 99 14 10 25 24 30 40 12 36 46 35 66 12 6-7 10-15 20-17 50-7 90-37 135-55 3-1 6-2 8-4 6-2 6-6 5-11zM276 728c-7 2-11 4-7 13 6 13 12 26 23 38 0-17 1-31 0-45-1-12-9-8-16-6zm437-144c-6 0-6 6-6 11-1 13 0 26 0 38 1 1 2 1 3 1 6-11 13-21 19-32 3-4 7-10 3-14-5-3-12-4-19-4zm-286-84c0 3 10 9 12 8 9-6 4-18 7-27-7 7-20 8-19 19zm127-161c4 8-3 20 8 25 3 1 12-6 12-8-2-10-13-12-20-17zm-330 22c-3 12-4 19-7 28 8-1 14-2 22-3-5-9-9-15-15-25zm550-140c-5 7-9 14-14 23h24c-6-8-2-17-10-23z"/></svg>