<svg width="64" height="64" viewBox="0 0 1000 1000" xmlns="http://www.w3.org/2000/svg"><path d="M937 505c-2-7-6-12-9-18-28-59-73-98-136-114-31-8-62-17-92-26-35-10-64-28-83-60-12-20-29-36-47-51-7-6-15-12-23-14-7-1-13-1-19 0-25 5-39 28-52 49-23 39-52 75-76 114-10 15-22 29-38 39-13 8-22 7-33-3-7-7-13-16-18-24-6-7-11-14-17-19-12-11-25-10-37 1-5 5-10 12-14 19-25 37-46 77-73 113-21 29-50 49-78 71-9 8-23 12-29 23-1 2-1 5 0 6 8 9 23 3 33 8 14 5 23 15 26 29 3 12 7 15 19 17 4 0 9 1 14 1 15 0 23 9 27 22 2 7 3 14 4 20 0 2 1 4 3 5 2 0 3-1 4-3 11-19 25-36 36-55 4-8 3-14-1-21-8-13-20-22-31-32-2-3-5-4-8-9 15 8 31 11 45 17 16 7 20 17 10 33-12 20-25 39-38 58-2 3-4 6-6 10-2 3-6 6-4 9 2 5 8 4 12 4 18-1 33-9 44-24 13-17 19-38 21-60 1-4-1-8 3-10 2-2 5 2 8 4 4 3 1 6 0 9-8 27-13 55-22 82-2 5-2 11-2 16 2 10 8 12 16 7 15-10 22-24 23-42 1-22 3-43-3-66 19 7 28 26 23 46-6 21-17 41-24 62-1 3-5 7-1 10s7-2 10-4c8-7 17-14 25-20 23-20 44-40 51-73 6 22 1 39-13 54-10 10-21 21-31 32-4 4-9 9-12 15-4 6-5 14 3 16 4 1 9 1 13 0 15-3 24-17 33-29 20-29 40-58 61-86 5-7 3-10-4-13-10-4-17-10-20-20-4-11-12-16-22-19-7-2-15-3-22-4-26-3-49-9-66-32-10-15-25-25-40-34-12-6-22-13-30-23-5-5-12-10-8-18 3-7 11-6 18-7 15-1 31 3 46 2 13 0 17-5 14-18-4-16-9-31-13-46-1-5-8-14-2-16 4-2 5 4 7 7 22 29 49 52 82 67 13 6 27 10 41 10 4 0 9 0 10-4s-2-6-5-9c-4-3-8-5-11-8 13 2 25 6 37 9 29 8 57 18 88 19 11 0 22 0 32 2 13 3 25 6 35 15-6 3-11 2-16 2-13 1-27 2-40 2-3 1-7 0-8 4 0 4 3 5 6 5 10 3 21 5 31 6 25 2 49 1 73 1 4 0 10-3 11 3 0 4-6 5-10 6l-23 7c-2 1-5 2-5 6 1 3 4 3 7 3 28-2 55-4 83-5 2 0 6 0 7-3 0-4-3-5-4-7-13-12-27-21-42-28-35-16-72-27-110-35-18-4-36-6-56-6 4-5 7-9 9-13 6-13 15-18 30-17 16 1 32-3 44-15 7-8 16-10 26-10 10 1 19 2 28 4 29 6 57 18 85 29 4 1 9 4 12 0s0-8-2-12c-7-13-16-25-19-40-1-4-4-7-7-10l-24-21c-7-6-12-4-17 2s-11 13-18 18c-8 6-16 6-24 0-9-6-12-15-16-23-11-25-21-51-32-75-3-8-7-15-13-21-7-6-15-5-20 2-2 4-3 7-4 11-13 38-23 76-34 114-6 24-2 54-21 71-5 5-12 0-17-4-17-11-32-25-47-39-9-9-13-10-23-1-9 8-18 13-29 15-5 1-8 0-10-3-2-4 2-6 5-7 14-5 26-13 37-22 5-3 10 0 14 1 9 3 16 10 23 18 9 11 18 22 29 32 5 4 16 12 17 9 2-2 8-16 8-19 11-45 13-78 24-123 5-21 9-42 17-61 9-23 22-25 39-8 12 12 20 26 26 42 9 25 21 50 26 77 1 4 3 9 8 10 6 1 10-2 13-6 5-5 7-11 9-17 10-24 17-26 35-7 11 11 21 21 36 24 5 1 8 4 9 10 1 8 3 16 5 25 0 2 0 6 3 6 5 1 5-3 6-6 3-5 6-11 9-18 1 2 2 4 2 5 2 17 5 33 5 50 0 5 0 11 1 16s5 9 10 9c5 1 7-3 9-7 1-3 3-7 3-10 3-19 5-38 8-58 1-2-1-8 5-7 4 1 4 5 4 9-2 38-1 76-3 115-1 6 0 12 1 18 1 4 2 9 7 10 4 1 7-4 9-8 4-8 5-18 6-27l9-96c0-2 0-6 4-6 3 0 4 3 4 6v11c-1 22-2 43-2 65 0 6 1 12 9 13 7 1 8-6 9-11 3-14 5-27 8-41 0-2 1-5 3-5 3 0 3 3 3 5 0 11-1 22-3 32-6 22-12 43-17 65-3 15-6 29-3 44 1 5 2 10 8 11 4 1 7-4 9-8 6-10 10-20 13-31 4-17 7-34 12-51 6-18 17-23 34-15 4 1 8 5 10 1 1-1 0-3 0-5zm-404 56c5-1 8-2 11-2 3-1 7-1 6-6 0-3-4-4-7-4h-8c-13 3-24-2-33-12 4-3 13-2 13-9-1-7-8-9-14-11-14-6-39-25-45-11-5 14 24 18 38 29-7 1-12 1-17 1-20 0-39 2-58 5-3 0-8 0-8 4 0 3 4 3 7 4 4 1 8 2 12 2 27 3 54 2 81 1 5 0 16 0 13 6-1 3-4 2-6 2l-75 6c-15 1-31 2-46 6-2 0-4 1-4 3-1 2 2 3 4 4 6 1 13 2 19 2 44 0 88 0 131-1 3 0 10 3 9-2 0-9-14-11-23-17z"/></svg>