<svg width="64" height="64" viewBox="0 0 1000 1000" xmlns="http://www.w3.org/2000/svg"><path d="M933 720L782 539c-7-9-19-10-28-4l-29 21c-10 7-24 4-30-6L583 367c-9-14-30-13-37 2l-24 55c-7 16-29 17-37 2l-54-102c-8-14-27-15-36-2L135 722c-9 14 1 32 17 32h765c17 0 27-20 16-34zM329 371c-17-24-46-41-78-41-56-2-102 42-103 97-1 47 32 88 76 99l105-155zM148 484c-4-7-12-9-19-6-2 1-4 2-6 4-10 5-21 11-32 17-6 4-8 10-7 17 2 6 8 10 14 10 2 0 5 0 6-1 13-7 27-14 39-22 7-4 9-12 5-19zm106-167c8 0 14-6 14-14v-21l1-21v-1c0-8-6-14-14-14s-15 6-15 14l-1 42c0 8 7 15 15 15zM119 441c8 0 15-6 15-13 1-8-5-15-13-15-15-1-30-1-44-1-8 0-15 6-14 14 0 8 6 14 14 14l21 1h21zm197-104c5 0 9-2 12-6 8-13 16-26 23-39 4-6 1-14-5-18s-15-3-19 4c-8 12-16 25-23 38-6 9 2 20 12 21zm-142-13c2 5 6 7 12 7 11 0 18-11 13-21-7-12-14-25-21-37-4-7-12-10-19-6s-10 13-6 20c7 12 14 24 21 37zm-80 30c12 7 25 14 37 21 2 2 4 2 6 2 7 1 13-3 15-9 2-7 0-13-6-17-12-7-25-15-37-22-7-4-16-2-20 5s-2 15 5 20zm77 181c-8 12-15 24-22 35-1 3-2 5-2 8 0 7 4 12 10 14s13 0 16-6c8-12 15-24 22-36 5-7 3-16-4-20-7-5-16-2-20 5z"/></svg>