<svg width="64" height="64" viewBox="0 0 1000 1000" xmlns="http://www.w3.org/2000/svg"><path d="M709 504c61 21 118-16 134-58-21 13-43 16-65 10-23-6-40-19-52-40-10-17-13-36-9-55 6-30 24-51 51-65-19-5-39-4-57 3-30 10-51 29-64 58-26 58 2 125 62 147zm-18-257c1 1 2 2 2 3l-2 13c0 3 3 5 6 3l10-6c1-1 3-1 4 0l11 5c3 1 6-1 5-4l-3-12c0-1 1-3 1-3l9-9c2-3 1-6-2-7l-13-1c-1 0-2-1-3-2l-6-11c-1-2-5-2-6 1l-5 11c-1 1-2 2-3 2l-12 2c-3 1-4 5-2 7l9 8zm161 189c1 1 2 2 1 3l-1 12c0 3 3 6 5 4l11-6c1-1 2-1 3 0l12 5c2 1 6-1 5-4l-3-12c0-1 0-3 1-4l9-9c2-2 0-5-3-6l-12-1c-1 0-2-1-3-2l-6-11c-1-2-5-2-6 1l-5 11c-1 1-2 2-3 2l-12 2c-3 1-4 5-2 7l9 8zm-89-68l6 6c1 0 1 1 1 2l-1 8c-1 2 2 3 3 2l7-4h3l7 4c2 0 4-1 4-3l-2-8v-2l6-6c1-2 0-4-2-4l-8-1c-1 0-1-1-2-1l-4-8c-1-1-3-1-4 1l-3 7c-1 1-1 1-2 1l-8 2c-2 0-3 3-1 4zm89 8v7c-1 1 1 2 2 1l5-2c0-1 1-1 1 0l5 2c2 1 3-1 3-2l-1-5v-2l4-4c1-1 0-2-1-3h-6s-1 0-1-1l-3-5c0-1-2-1-3 0l-2 5c0 1-1 1-1 1l-6 1c-1 1-1 2 0 3l4 4zm-65-107c1 0 1 1 1 2l-1 7c0 1 1 3 3 2l6-4h2l6 3c2 1 3 0 3-2l-2-7c0-1 1-1 1-2l5-5c1-1 0-3-2-3l-7-1s-1 0-1-1l-3-6c-1-1-3-1-4 0l-3 7-1 1-7 1c-2 0-3 2-1 4l5 4zm-132 31v1l-1 5c0 1 1 2 2 1l5-2h1l4 2c1 0 2-1 2-2l-1-4c0-1 0-1 1-2l3-3c1-1 0-3-1-3h-5s-1 0-1-1l-2-4c-1-1-2-1-3 0l-2 4c0 1 0 1-1 1l-4 1c-1 0-2 2-1 3l4 3zm277 448L768 551c-7-9-20-11-30-4l-31 23c-11 8-26 5-33-7L553 365c-9-15-33-14-40 3l-26 59c-8 18-32 18-41 2l-58-110c-8-15-30-16-39-2L66 751c-10 15 1 34 19 34h830c19 0 29-22 17-37z"/></svg>