<svg width="64" height="64" viewBox="0 0 1000 1000" xmlns="http://www.w3.org/2000/svg"><path d="M749 653c-2-18-3-19-21-21-36-4-69-14-92-45-7-9-15-19-21-29-26-46-52-90-78-136-25-43-51-86-74-131-21-39-45-76-68-114-2-3-4-6-8-6h-39c20 36 40 69 58 103 17 30 35 60 53 90 36 60 71 122 106 183 14 24 29 48 41 73 21 46 53 79 103 93 14 4 29 7 43 10 7 2 7-1 6-6-3-22-6-43-9-64zM474 480c17-29 16-28-1-57-5-8-7-6-10 1-6 9-11 19-17 28-24 41-47 82-71 122-21 32-50 52-89 56-9 1-17 3-26 4-4 1-7 2-7 7l-12 78c-2 8 3 6 8 5 21-5 43-9 64-18 29-13 52-31 67-60 6-12 12-24 19-36 25-43 50-87 75-130zM161 640c-27 2-55 0-83-2-10 0-21 1-32 2-24 4-34 13-40 36-2 7-4 15-5 23-4 28 4 40 32 44 38 4 77 1 115-3 5-1 7-4 7-9l3-27c3-18 7-36 10-54 2-6 1-10-7-10zm834 39c-5-26-16-35-42-39-29-4-57 1-86 1h-24c-12-2-13 3-11 13 5 25 10 50 14 75 1 6 5 9 11 10 23 5 47 3 70 6 18 2 36 0 54-5 13-5 18-13 19-27 1-11-2-23-5-34zm-402 78c-16 1-33-1-49 0-27 1-53-1-79 0-9 0-17 2-25 1-13-2-25-1-37 0-9 2-14 6-14 15v40c1 12 5 16 17 16 31 1 62-2 88 0h100c14 0 19-5 19-18v-36c0-13-6-19-20-18zm-175 18c-1 6 0 12 0 18 0 5-1 9 0 14 0 6 0 12-9 11-9 0-12-3-12-11 1-11 0-22 0-32 0-6 3-10 9-9 5 1 13 0 12 9zm115-396c40-70 79-138 119-208h-38c-5 0-7 2-9 6-30 52-60 105-91 157-2 4-3 7-1 12 6 10 12 20 20 33zM226 637c-9 0-19 1-28 2-5 1-6 4-6 7-5 28-9 55-14 83-1 5 1 7 7 7 27-2 29-4 33-31 1-1 1-3 1-4 5-19 8-39 11-60 0-2 1-5-4-4zm585 22c-3-20-4-20-24-21-17-1-17-1-15 17 3 21 11 41 11 63-1 9 3 15 14 15 5-1 12 1 17 2 8 2 10-1 8-8-7-22-8-45-11-68z"/></svg>