<svg width="64" height="64" viewBox="0 0 1000 1000" xmlns="http://www.w3.org/2000/svg"><path d="M212 465c-37 38-74 75-109 112-9 9-15 12-22 1-2-3-5-6-8-8-4-7-9-9-16-3-5 3-10 4-15 6-12 2-23 3-31-7s-9-23-2-32c12-16 10-27-6-38-5-4-3-7 1-11l52-52c5-6 8-3 12 1 14 13 29 26 43 40 7 7 10 3 15-2s7-8 0-14c-14-12-28-26-42-39-4-3-8-6-3-12 5-5 8-2 12 2 13 12 26 23 39 35 6 6 9 10 18 1 8-9 2-12-4-17-12-12-25-23-37-35-4-3-8-5-2-11 4-4 7-4 12 1 12 12 25 23 37 35 6 6 10 7 17 0 6-7 4-11-2-16-12-11-24-23-36-34-6-5-6-8-1-12 46-43 89-89 139-126 10-7 20-13 31-20 7-4 9-3 12 6 7 29 23 52 50 67 50 27 107 9 134-42 2-5 5-10 6-15 7-16 7-16 21-7 37 22 67 54 99 83 18 16 35 34 53 51 8 7 8 11 0 18-12 10-23 22-35 32-7 6-5 9 0 15 5 5 8 8 15 2 12-13 25-24 38-36 4-4 8-8 13-1 6 6 0 8-3 11-14 13-27 26-41 38-7 6-2 9 2 13 3 4 6 10 13 3 13-13 28-26 41-39 4-4 8-8 13-1 6 6 0 8-3 11-14 13-27 27-41 39-7 6-6 9 0 15 4 4 7 8 14 1 14-14 30-26 44-40 7-8 11-2 15 3 4 4 14 7 5 16-28 28-54 56-81 84-5 6-8 5-13 0-24-23-49-45-72-67-5 12-9 25 7 39 16 15 29 33 44 49 5 5 6 9 1 14-39 40-77 79-114 119-7 8-10 3-14-2-37-38-73-75-109-114-8-8-12-8-19 0-83 88-166 175-249 262-8 8-12 8-19 0-7-10-17-18-25-28-6-6-10-8-17 0-9 10-21 16-35 18-25 4-39-13-30-37 4-11 10-21 20-27 10-7 8-11 0-17-6-6-12-14-18-20-7-5-5-9 0-15 60-67 119-134 180-200 13-15 14-28 6-46zm48 60c-6 6-11 13-17 18s-4 9 1 13c20 18 39 37 59 55 19 17 19 17 35-2 5-5 6-8 0-13-24-21-47-44-71-65-2-2-4-4-7-6zm235 102c4-3 7-5 9-7 20-18 39-36 58-54 18-17 18-16 1-34-6-7-9-5-15 0-22 21-44 41-66 61-3 3-11 6-7 11 5 9 13 15 20 23zM303 247c-2 1-3 1-4 1l-30 18c-17 10-17 10-7 27 4 8 7 9 13 5 12-8 25-15 37-23 3-2 8-3 4-9s-7-14-13-19zm211 0c-6 3-7 10-11 15-6 7-4 11 3 14 10 6 21 12 30 19 10 7 15 5 21-5s7-16-5-21c-11-5-20-12-30-18-2-2-5-3-8-4zM380 57v69c0 6-1 12 8 12 10 0 8-6 8-12 0-22 1-45 0-67 0-8 3-10 10-11 23-1 23-1 23 22v57c0 6-1 10 8 11 9 0 8-5 8-11V69c0-15 2-16 15-8 43 24 61 76 43 122-4 8-6 16-7 24-7 41-44 74-84 73-41 0-77-33-83-74-1-8-3-16-7-24-19-46 3-103 48-124 3-1 6-3 10-1zm450 415c-35 37-68 71-100 105-115 120-230 239-344 359-16 17-33 17-52 15-4-1-6-3-7-6-8-16-15-32-23-48-4-8 0-9 6-8 16 1 32 1 47 3 9 1 15-3 21-9 130-136 261-272 391-409 8-8 15-13 28-9 10 4 20 5 33 7zm-61 356c-16 0-30-6-40-18-8-9-13-7-19 1-9 10-19 19-28 29-4 5-7 5-12 0-26-28-52-55-78-82-6-5-7-9-1-15 37-38 74-76 110-115 7-6 10-6 16 1l75 84c5 5 4 9 0 13-7 7-13 14-20 20s-8 10 0 16c13 10 22 22 23 39s-9 27-26 27zm72-428c42-44 82-86 122-127 9-10 21-10 30-2 9 9 10 21 0 31-32 34-65 68-97 102-3 3-6 6-11 5-14-3-27-6-44-9zM215 945c-11 0-23 1-34-2-13-4-19-14-18-29 1-20 6-28 21-31 10-2 20 1 30 1 4 0 5 3 7 6 7 16 15 33 23 49 3 7 1 9-6 8-8-1-15-1-23-2zm546-379c15-13 29-25 43-38 9 13 10 28 1 38s-26 11-44 0zM268 888c11-4 16 0 20 9 6 14 13 28 19 42 2 4 6 8 1 11-4 2-10 1-13-5-9-19-17-38-27-57zm11 59c-10 3-15 0-19-8-6-15-13-29-20-44-1-3-5-7-1-9 4-3 10-3 13 3 9 19 18 38 27 58zm540-522c5-10 11-13 19-10 9 2 18 3 27 5 3 1 10-1 9 5-1 5-6 10-12 8-14-3-28-5-43-8zm34 24c-20 18-38-1-58 2 9-15 28-15 58-2z"/></svg>