<svg width="64" height="64" viewBox="0 0 1000 1000" xmlns="http://www.w3.org/2000/svg"><path d="M937 801l-77-670c0-4-1-8-2-12-2-6-5-9-12-8-21 4-26-2-23 28 3 35 2 70-8 103-9 33-25 62-47 87-17 20-36 37-58 49-19 11-37 22-56 31s-39 17-59 24-40 13-61 17c-34 8-68 17-103 22-71 11-143 21-215 30-24 3-49 3-74 2-13-1-27-6-39-10-5-1-9-7-13-11s-8-9-13-10c-10-3-15 2-14 13 6 57 12 113 19 170 1 4 6 10 8 10 6 0 12-3 16-7 5-6 6-15 11-20 11-11 23-17 38-21 15-3 31-8 46-11 2-1 5-1 7-1 5 9-1 15-5 21-24 43-29 88-10 135 11 27 29 48 50 66 28 23 59 38 94 47 16 4 32 7 48 10 41 7 82 4 122-5 27-6 56-13 81-29 19-12 40-22 58-36 43-36 75-80 78-141 1-24-5-47-15-68l-6-15 2-3c10 3 21 5 30 8 17 7 33 14 48 23 43 23 75 58 95 105 11 27 17 55 21 84 2 17 5 19 20 17 18-2 20-4 18-24zm-294-81c-21 32-51 51-84 66-16 7-33 13-50 16-39 9-78 16-119 9-17-3-33-6-50-9-25-6-46-18-65-35-24-21-34-56-25-88 7-24 22-41 40-56 20-17 43-28 68-36 19-5 39-7 59-11v2c14-2 29-5 43-5 14-1 29 0 43-1 25-1 49 2 73 8 18 4 35 11 49 22 36 27 45 78 18 118z"/></svg>