<svg width="64" height="64" viewBox="0 0 1000 1000" xmlns="http://www.w3.org/2000/svg"><path d="M228 176c0-8 0-18-9-22-7-2-12 6-17 10-53 40-89 91-105 156-16 60-36 120-34 183 1 51 50 85 97 68 46-15 63-51 68-95 6-55 3-111 0-167V176zm60-11c-6-4-11-14-19-11-8 4-8 14-9 23-4 46-2 93-2 139 0 42-1 83 0 125 1 31 3 63 21 91 19 32 62 52 94 42 31-9 54-44 53-82 0-47-13-91-24-136-18-76-48-144-114-191zm452 118c0-8-2-16-9-20-7-5-11 4-15 7-60 43-95 101-113 173-13 57-32 113-29 173 3 46 50 78 94 64 39-12 60-38 67-76 11-63 7-127 4-190 0-43 0-87 1-131zm161 141c-17-65-54-115-107-155-14-10-19-9-23 9-1 9-1 18-1 27-1 41-1 82-1 123 0 43-1 86 0 129 1 32 6 65 26 92s59 41 89 32c32-10 54-41 53-78-1-62-20-120-36-179zm-82 331c-6 2-12 5-17 8-20 10-26 23-20 45 5 22 26 41 41 38 24-5 47-34 47-58 0-37-17-48-51-33zM158 640c-19-1-28 11-28 38-1 27 26 59 51 60 17 0 38-28 38-51 1-21-34-47-61-47zm512 109c-20-1-29 10-29 38-1 26 26 58 50 59 17 1 39-27 40-50 0-21-31-46-61-47zM308 647c-6 3-11 6-17 8-21 7-24 24-20 43 4 22 26 42 42 39 23-5 46-32 46-56 4-40-24-49-51-34z"/></svg>