<svg width="64" height="64" viewBox="0 0 1000 1000" xmlns="http://www.w3.org/2000/svg"><path d="M925 575c-12 28-24 55-34 83-9 28-16 56-24 86-53-2-108-8-161-17-8-21-14-42-23-61-29-64-88-96-158-86-9 1-17 3-27 4 2 12 4 23 7 34 27-5 53-8 79 0-3 11-7 21-9 31-7 31 2 59 21 83s40 47 59 71c31 38 51 81 64 128 1 2 1 4 1 7H290c-5-29-11-58-15-86-8-55-12-109-11-164 1-68 10-134 33-197 39-105 111-176 219-208 30-9 62-13 93-18 2-1 6 2 8 5 45 49 88 100 133 149 51 55 107 104 167 149 3 3 6 5 8 7zM598 398c1-25-19-46-43-47-28-1-49 18-50 45-1 24 20 47 44 48 27 0 48-19 49-46zm-207-95c-26 26-50 50-75 74-51-44-103-90-156-135 35-57 80-102 138-135 32 67 63 132 93 196zM330 93c39-22 133-37 180-28-2 14-4 28-6 43-8 48-16 96-24 143 0 4-4 9-7 10-17 9-34 16-52 25-30-64-61-128-91-193zm187 152c9-59 18-117 28-176 74 13 140 42 204 81-2 2-4 4-6 5-37 23-75 46-113 69-6 4-15 5-23 6-28 5-55 10-83 15h-7zM262 482c-55-19-110-39-165-59-2-1-5-5-5-7 10-49 26-96 49-141 0-1 1-1 2-2 52 44 103 89 155 134-12 25-24 49-36 75zm-10 33c-7 32-13 64-19 98-52-10-104-20-158-31l8-127c58 21 114 40 169 60zM77 618c53 10 103 20 152 29v72c-3 1-6 1-9 1-41-1-82-2-124-3-2 0-7-2-8-4-4-31-7-62-11-95zm153 136c3 27 5 53 7 79-14 2-28 3-42 5-22 2-45 4-67 7-9 1-13-1-15-9-5-28-12-55-19-82h136zm12 114c4 23 8 45 12 69h-9c-30 0-61-1-92 0-6 0-9-1-11-8-5-16-11-32-16-49 39-4 78-8 116-12z"/></svg>