<svg width="64" height="64" viewBox="0 0 1000 1000" xmlns="http://www.w3.org/2000/svg"><path d="M469 857h-14c-8 0-15 6-15 14v20c0 8 7 15 15 15h14c8 0 14-7 14-15v-20c0-8-6-14-14-14zm76 0h-14c-8 0-14 6-14 14v20c0 8 6 15 14 15h14c8 0 15-7 15-15v-20c0-8-7-14-15-14zM946 8H54C22 8-2 34 0 66l56 868c2 32 30 58 61 58h271l-15-157c-3-31 20-57 51-57h156c31 0 54 26 51 57l-15 157h267c32 0 59-26 61-58l56-868c2-32-22-58-54-58zM721 345c0-12 9-21 20-21h64c12 0 21 9 21 21v89c0 12-9 21-21 21h-64c-11 0-20-9-20-21v-89zm0 220c0-11 9-20 20-20h64c12 0 21 9 21 20v90c0 11-9 21-21 21h-64c-11 0-20-10-20-21v-90zM280 890c0 12-10 21-21 21h-64c-12 0-21-9-21-21v-89c0-12 9-21 21-21h64c11 0 21 9 21 21v89zm0-235c0 11-10 21-21 21h-64c-12 0-21-10-21-21v-90c0-11 9-20 21-20h64c11 0 21 9 21 20v90zm0-221c0 12-10 21-21 21h-64c-12 0-21-9-21-21v-89c0-12 9-21 21-21h64c11 0 21 9 21 21v89zm182 221c0 11-9 21-21 21h-64c-12 0-21-10-21-21v-90c0-11 9-20 21-20h64c12 0 21 9 21 20v90zm0-221c0 12-9 21-21 21h-64c-12 0-21-9-21-21v-89c0-12 9-21 21-21h64c12 0 21 9 21 21v89zm67-242v54c0 4-3 6-6 6h-46c-3 0-6-2-6-6v-54c0-4-3-7-7-7h-54c-4 0-7-3-7-6v-46c0-3 3-6 7-6h54c4 0 7-3 7-7V66c0-4 3-7 6-7h46c3 0 6 3 6 7v54c0 4 3 7 7 7h54c4 0 7 2 7 6v46c0 3-3 6-7 6h-54c-4 0-7 3-7 7zm115 463c0 11-9 21-21 21h-64c-12 0-21-10-21-21v-90c0-11 9-20 21-20h64c12 0 21 9 21 20v90zm0-221c0 12-9 21-21 21h-64c-12 0-21-9-21-21v-89c0-12 9-21 21-21h64c12 0 21 9 21 21v89zm182 456c0 12-9 21-20 21h-65c-11 0-20-9-20-21v-89c0-12 9-21 20-21h65c11 0 20 9 20 21v89z"/></svg>