<svg width="64" height="64" viewBox="0 0 1000 1000" xmlns="http://www.w3.org/2000/svg"><path d="M915 610L156 245c-25-13-62 11-81 51-20 41-15 84 10 96l759 366c25 12 62-11 81-52 20-41 15-84-10-96zm-41 95c-3 5-7 9-11 11s-9 2-13 0c-26-12-33-32-39-48-5-14-9-24-24-31s-25-4-39 1c-16 5-36 12-62-1-25-12-33-32-39-48-5-13-8-23-23-30s-25-4-39 0c-16 5-36 12-62 0-26-13-33-33-39-48-5-14-9-24-24-31s-25-4-39 0c-16 6-36 12-62 0-25-12-33-32-39-48-5-14-8-24-23-31-10-5-18-5-26-3-4 1-9 2-13 4-16 5-36 12-62-1-26-12-33-32-39-48-5-13-9-23-24-31-8-4-11-15-6-25 4-10 15-14 23-10 26 12 33 32 39 48 5 13 9 23 24 30 15 8 25 4 39 0 16-6 36-12 62 0 5 3 9 5 12 8 16 12 22 27 27 40 5 14 9 24 24 31s25 4 39-1c16-5 36-11 61 1 26 12 33 32 39 48 5 14 9 24 24 31s25 4 39-1c16-5 36-12 62 1 26 12 33 32 39 48 5 13 9 23 24 30 15 8 25 4 39 0 16-5 36-12 61 0 26 13 33 33 39 48 5 14 9 24 24 31 9 4 11 16 7 25zM191 216l725 348c4 2 9 0 11-5 19-49 3-101-38-121L307 157c-41-19-92 1-119 46-3 5-1 11 3 13zm619 568L86 435c-4-2-10 0-12 6-6 16-8 33-7 49 2 31 18 59 45 72l583 280c41 20 92-1 118-46 3-4 2-10-3-12z"/></svg>