<svg width="64" height="64" viewBox="0 0 1000 1000" xmlns="http://www.w3.org/2000/svg"><path d="M305 168c14-6 28-11 43-16 79-25 159-34 241-19 42 7 82 18 121 34 8 3 9 2 9-7-1-13 0-27 0-40V80c-1-23-13-40-35-48-15-6-32-11-48-15C534-11 433-3 334 31c-22 8-36 25-36 47v84c0 6 1 8 7 6zm16 281c5 2 7 5 9 10 16 46 46 82 88 106 45 26 91 33 140 15 57-21 97-61 119-119 1-4 2-8 6-10 27-16 42-40 47-70 4-23 2-45-20-60-3-3-3-6-2-9 2-9 3-17 5-26v-1c1-9 2-17 3-26v-2c2-24 4-56 1-72-38-11-74-25-113-32-87-15-172-6-255 21-15 5-37 10-52 16v1c-6 39-4 79 3 118 1 6 0 10-6 14-8 5-13 14-15 23-11 34 10 86 42 103zm1-113c5-1 6-3 5-8-1-37 3-72 28-101l6-6c16-14 19-14 37-2 28 19 56 38 88 50 35 13 70 17 107 15 28-1 56-5 83-14 5-1 5 2 6 5 1 18 0 36-2 53 0 3-1 6 4 7 24 4 26 21 24 39-3 21-13 38-29 52-2 2-5 4-8 4-11 1-12 9-15 17-23 65-68 105-136 118-5 1-11 1-19 2-52-3-93-29-125-70-14-17-23-37-29-58 0-2 0-6-5-6-12-2-20-11-27-21-10-14-18-29-17-47 1-17 7-25 24-29zm606 477c-1-26-12-48-32-64-10-9-21-15-33-20-30-14-63-22-95-31-36-9-73-18-106-36-6-3-8-6-8-13 1-16 0-32 0-48-3 0-5 2-6 3-23 20-48 36-76 45-15 5-21 12-20 28 1 25-20 46-45 49s-49-12-56-37c-3-9-2-18-2-26 0-4-1-7-5-8-36-11-67-29-97-56 0 13-2 23 0 32 5 24-7 33-27 40-36 15-74 24-112 34-31 8-61 17-88 33-32 18-48 46-47 83v57c-1 10 3 18 11 25 12 10 26 18 40 24 90 41 186 59 283 69 69 6 138 5 207-2 81-9 160-25 236-55 23-9 46-19 65-35 7-6 13-12 13-22 0-23 1-46 0-69zM504 933c-20 0-36-16-36-36s16-36 36-36 36 16 36 36-16 36-36 36zm0-97c-20 0-36-17-36-36s16-36 36-36 36 16 36 36-16 36-36 36zm81-453c19 1 35-14 35-33s-14-34-33-34c-19-1-35 14-35 33s15 34 33 34zm-170 0c18 0 33-15 34-33 0-19-15-34-34-34-18-1-33 14-34 32-1 19 15 35 34 35zm28 99c-1 2 0 5 1 7 15 17 33 30 57 31 22-1 38-13 53-28 2-3 6-6 4-10-3-5-8-2-11-1-19 5-38 7-58 5-13-1-26-3-38-6-3-1-6-1-8 2z"/></svg>