<svg width="64" height="64" viewBox="0 0 1000 1000" xmlns="http://www.w3.org/2000/svg"><path d="M319 442c4 2 7 5 8 9 17 48 47 83 90 109 45 26 92 32 141 14 58-21 98-62 121-120 1-4 2-8 6-10 27-16 43-41 48-71 4-24 1-46-20-61-4-3-3-6-3-9 4-18 6-36 8-54 0-4 2-7 5-9 19-11 33-28 45-45 4-6 4-9-1-13-13-11-27-21-42-31 16-6 30-8 47-8-31-36-71-53-115-65 7-7 14-11 22-14 7-4 16-4 25-6-62-32-126-39-193-20 6-16 17-27 29-38h-3c-52 9-101 24-139 63-4 4-6 4-7-2-2-10-1-20 4-29-20 4-44 19-59 39-26 32-37 70-42 110-6 40-4 79 3 119 1 6 0 10-6 14-8 6-13 14-16 24-11 34 11 86 44 104zm0-115c5-1 6-3 6-8-2-37 3-73 28-102l6-6c17-14 19-15 37-2 29 19 57 38 90 51 35 13 71 17 108 15 28-2 57-5 84-14 5-2 5 1 6 5 1 18 0 36-1 53-1 4-2 7 3 8 24 4 27 20 24 39-2 21-13 38-29 52-2 2-5 5-8 5-11 1-12 9-15 17-23 66-69 106-137 120-6 1-12 1-20 1-53-3-94-29-127-71-14-17-23-37-29-58 0-3 0-6-5-7-12-2-21-10-28-20-10-14-17-30-17-48 1-17 7-25 24-30zm614 483c-1-26-11-48-32-65-10-8-21-14-33-20-31-14-64-22-97-30-37-10-73-19-107-37-6-3-8-7-8-14v-48c-4 0-5 2-7 3-22 21-48 36-76 46-16 5-21 11-21 28 1 26-20 46-46 50-25 3-49-13-56-38-3-9-2-18-2-27 0-4-1-6-5-7-36-12-68-30-99-57 0 13-1 23 1 33 5 23-8 33-27 40-38 15-76 24-114 34-31 9-62 17-89 34-32 18-49 46-48 84v57c-1 11 4 19 12 26 12 10 26 18 40 24 91 42 188 60 287 70 70 6 139 5 209-2 82-9 162-25 239-56 24-9 46-19 66-35 7-5 14-12 14-22-1-24 0-47-1-71zM500 931c-20 0-36-16-36-36s16-37 36-37 36 17 36 37-16 36-36 36zm0-98c-20 0-36-16-36-36s16-36 36-36 36 16 36 36-16 36-36 36zm86-458c19 1 35-15 35-33 1-20-14-35-33-35-19-1-35 14-35 33-1 19 14 35 33 35zm-173 0c19 0 34-15 35-33 0-19-15-35-34-35-19-1-34 14-35 33 0 19 15 35 34 35zm29 100c-1 2 0 5 1 7 16 17 33 31 57 32 23-1 39-13 54-29 3-3 6-6 4-10-3-5-7-2-11-1-19 5-39 7-59 6-13-1-26-4-38-7-3-1-6-1-8 2z"/></svg>