<svg width="64" height="64" viewBox="0 0 1000 1000" xmlns="http://www.w3.org/2000/svg"><path d="M776 302c0-41-28-76-69-86-2-1-4-1-6-2l-6-1h-4l-1-4c-21-86-99-147-190-147s-169 61-190 147l-1 4h-4c-2 1-4 1-6 1-3 1-5 1-7 2-40 10-68 45-68 86 0 30 15 57 39 73l236 563 236-562c25-16 41-43 41-74zM487 131c4-13 17-18 31-16 57 7 102 46 119 101 8 29-39 42-48 12-12-39-43-61-85-67-13-2-20-18-17-30zM303 333c2-1 4-2 6-2 2-1 5-1 7-2 7-2 13-2 20-2h328c7 0 13 0 20 2 2 0 4 1 6 2 3 0 5 1 7 2 16 7 23 19 26 25 1 3 3 8 3 14h-13c-8-18-32-32-61-32H346c-29 0-53 14-61 32h-11c0-6 2-11 3-14 3-6 10-18 26-25zm188 80l42 42-60 59-49-50 52-51 8-8 7 8zm-1-13l2-3h101l-17 16-37 37-36-37-13-13zm-30 13l-44 43-42-43-8-8 9-8h100l1 1-16 15zm-42 57l49 50-58 56-49-50 58-56zm56 57l47 48-58 57-47-48 58-57zm54 56l48 49-58 57-48-50 58-56zm-1-14l-47-47 60-59 47 48-60 58zm19-112l62-60 47 48-62 60-47-48zm-186-60l-1 1-1-1h2zm-60 4l-1-4h48l6 6-10 10-27 26-16-38zm48 113l-27-64 37-37 2-2 3 2 47 49-58 57-4-5zm8 21l47 47-19 19-28-66zm33 76l21-21 47 47-41 40-27-66zm57 138l-25-61 43-43 48 49-61 60-5-5zm9 20l48 49-19 19-29-68zm44 105l-11-26 22-22 7 6-18 42zm21-50l-4-4 10-9-6 13zm16-38l-27 27-50-51 61-60 36 37-20 47zm23-55l-33-35 58-56 9 10-34 81zm38-90l-7-7 17-17-10 24zm21-49l-36 34-48-49 60-59 38 40-14 34zm18-43l-36-36 62-61 10 11-36 86zm39-95l-7-8 18-18-11 26zm23-53l-1 2-37 36-25-26-16-16h81l-2 4z"/></svg>