<svg width="64" height="64" viewBox="0 0 1000 1000" xmlns="http://www.w3.org/2000/svg"><path d="M922 571c0-6-2-12-5-16-43-58-87-116-130-174-3-3-9-6-14-6-29-1-58-1-88-1l-48 47h110c7 0 12 1 16 7 32 43 64 86 97 128 1 2 1 3 3 6H595c-3 31-14 57-39 75-18 14-39 20-62 19-37-3-83-29-88-93H136c3-5 5-7 7-10 31-41 61-82 92-123 5-6 9-9 18-9h109l-47-47c-30 0-59 0-88 1-5 0-11 3-14 6-43 58-87 116-130 174-3 4-5 11-5 17-1 113-1 226-1 339 0 21 6 27 28 27h792c19 0 26-6 26-25 0-114 0-228-1-342zm-434-69c7 7 18 7 24 0l206-199c7-7 7-18 0-24l-41-40c-7-6-18-6-25 0l-97 95V79c0-9-7-17-17-17h-69c-9 0-17 8-17 17v262L347 239c-6-6-17-6-24 0l-41 40c-7 7-7 17 0 24l206 199z"/></svg>