<svg width="64" height="64" viewBox="0 0 1000 1000" xmlns="http://www.w3.org/2000/svg"><path d="M642 878c-13-44-26-87-38-131-3-12-8-16-20-16-50 1-100 1-150 1-93 0-187 0-281-1-15 0-20 5-24 19-8 34-17 69-28 103-7 22-10 44-10 67 0 14 4 17 18 17h524c5 0 11 0 10-7 0-17 4-35-1-52zM195 526h346c7 0 17 4 15-11-10-62-17-124-7-186 2-17-6-19-20-19H205c-15-1-19 4-20 19-1 28 10 54 6 82-5 32-6 66-12 99-2 16 4 17 16 16zm529-91c-23 1-46 0-68 0-24 0-47 1-71 0-9 0-14 1-12 13 5 50 12 99 22 148 2 9 4 13 14 13h124c9 0 12-3 11-12-9-49-13-98-6-148 1-10-3-14-14-14zM510 239c36 7 71 17 107 26 90 22 144-52 147-130-2 2-4 4-5 6-1 3-3 6-4 8-23 34-53 51-94 47-26-2-50-10-74-17-31-11-62-19-95-18-70 4-116 48-126 118 12-10 21-21 34-28 35-20 72-20 110-12zm267 537c-16-13-45-2-64-3-24 0-43 0-62-1-12 0-15 2-12 15 11 47 35 90 30 140-1 9 5 10 12 10h120c10 1 12-2 13-13 3-30-10-56-17-84-6-22-6-51-20-64zm131-477c-30 43-56 53-107 40-26-6-51-17-77-21-67-12-125 27-132 91 44-34 65-40 120-29 29 5 57 14 86 20 60 12 119-43 110-101zM571 144c23 7 46 17 69 22 33 8 65 4 89-25 19-22 27-49 27-79-3 5-7 9-10 13-35 39-61 46-110 27-20-7-39-13-60-17-53-11-93 11-115 66 37-27 74-20 110-7zm98 161c32-14 48-15 80-4 17 5 34 11 51 17 70 23 104-32 105-82-3 4-5 6-8 9-29 34-48 39-91 24-9-4-18-7-28-9-47-12-84-11-109 45z"/></svg>