<svg width="64" height="64" viewBox="0 0 1000 1000" xmlns="http://www.w3.org/2000/svg"><path d="M904 655V390c0-11-2-15-14-15-128 1-256 1-385 0-11 0-14 4-13 15 0 49-1 99 0 148 0 14-4 18-17 17H111c-11 0-16 2-16 14 1 118 1 235 0 353 0 11 3 16 15 16 178-1 356-1 533 0 13 0 15-4 15-16-1-33 0-66-1-99 0-12 4-15 15-14 17 1 33 1 49 0 12-1 16 2 16 15-1 33 0 65-1 97 0 14 4 17 17 17 45-1 90-1 135 0 14 0 16-5 16-17V655zm-460-14c32 0 32 0 32 32 0 29 0 29-31 29-32 0-32 0-32-31 0-30 0-30 31-30zm3 75c29 0 29 0 29 32s0 32-31 32c-32 0-32 0-32-31 0-33 0-33 34-33zm-290-47c0-28 0-28 31-28 32 0 32 0 32 31 0 30 0 30-30 30-33 0-33 0-33-33zm0 79c0-32 0-32 31-32 32 0 32 0 32 32s0 32-32 32c-31 0-31 0-31-32zm63 79c0 33 0 33-32 33-31 0-31 0-31-32 0-34 0-34 33-34 30 0 30 0 30 30v3zm45 33c-30 0-30 0-30-31 0-35 0-35 35-35 28 0 28 0 28 32 0 34 0 34-33 34zm0-80c-30 0-30 0-30-30 0-34 0-34 34-34 29 0 29 0 29 31 0 33 0 33-33 33zm1-78c-31 0-31 0-31-31 0-30 0-30 33-30 30 0 30 0 30 30 0 31 0 31-32 31zm100-61c32 0 32 0 32 32 0 29 0 29-31 29-32 0-32 0-32-31 0-30 0-30 31-30zm32 107c0 32 0 32-33 32-30 0-30 0-30-30 0-34 0-34 33-34 30 0 30 0 30 32zm0 77c0 35 0 35-34 35-29 0-29 0-29-33s0-33 32-33c31 0 31 0 31 31zm46 35c-31 0-31 0-31-31 0-35 0-35 35-35 28 0 28 0 28 33s0 33-32 33zm100-415c0-6 3-6 8-6h62c7 0 9 3 9 9v56c0 20 0 20-19 19-16 0-32-1-48 0-9 1-13-3-13-11 0-22 1-45 1-67zm79 290c0 8-3 11-11 11-19 0-39-1-58 0-8 0-11-4-11-11 1-11 1-21 1-32 0-10 0-21-1-31 0-8 4-11 11-10h58c9-1 11 2 11 10v63zm0-172v31c0 40 0 40-39 40-8 0-16-1-24 0-12 1-18-2-17-16 1-18 1-37 1-55-1-10 2-14 13-13h53c10-1 14 2 13 13zm34-50v-65c0-7 3-9 11-9h59c8 0 10 3 10 10-1 11 0 22 0 33h-1c0 9 0 19 1 28 1 10-2 14-13 13-18-1-37-1-56 0-8 0-11-2-11-10zm13 37h55c8-1 12 2 12 11-1 20-1 41 0 61 0 8-2 12-11 12-20-1-39-1-58 0-9 0-11-4-10-11v-31c0-10 0-20-1-30 0-10 4-13 13-12zm64 193c-9 9-26 2-39 3-37 0-37 0-37-38 0-12 0-24-1-36 0-8 3-11 11-11 20 1 40 1 59 1 7-1 10 2 10 9-1 10-1 21-1 35-1 11 6 28-2 37zm37-296c0-7 3-8 9-8h60c7 0 10 2 10 9-1 11-1 22-1 33h1c0 11-1 21 0 31 0 7-2 10-10 10-19 0-39 1-59 1-7 0-11-2-11-10 1-22 1-44 1-66zm79 288c0 9-3 11-11 11-20-1-39-1-58 0-7 0-10-3-10-10v-33-30c-1-10 3-12 12-12 18 1 37 1 55 0 8 0 12 2 12 12-1 20-1 41 0 62zm-4-104c-8 9-27 2-42 3-33 0-33 0-33-34v-12c2-10-6-28 4-36 8-6 25-2 38-2 37 0 37 0 36 38 0 14 7 34-3 43zM173 269c12 0 9 9 9 16v120c0 41 1 82 0 122 0 12 2 16 15 15 19-1 39-1 59 1 15 1 17-5 17-18-1-80 0-160 0-240 0-5-4-13 4-15 14-2 8-12 8-19 1-8 4-23-1-25-16-6-11-17-11-26 0-10-3-13-13-12h-64c-11-1-14 2-14 14 0 8 6 20-10 22-1 0-2 5-2 7-1 10 0 20 0 30 0 3-1 8 3 8zm392 94c83-1 166-1 249-1 36 0 36 0 36-36 0-11-4-13-15-13H575c-30 0-29 0-30 30-1 17 5 20 20 20zM273 132c14-1 29 0 43-3 32-7 56-36 52-67-19 24-31 30-64 35-14 2-28 4-42 7-31 6-47 36-35 69 6-28 19-39 46-41zm82 395c0 7-3 16 11 15h79c14 1 11-9 10-15-1-7 7-19-9-18h-81c-16-1-9 11-10 18z"/></svg>