<svg width="64" height="64" viewBox="0 0 1000 1000" xmlns="http://www.w3.org/2000/svg"><path d="M842 469c0-5 0-10-1-16-74 43-146 86-220 131V452c-9 5-16 9-22 13-64 37-128 73-192 111-10 5-14 6-14-8 1-13 1-27 1-41v-75c-39 22-74 42-112 64 0-14-1-26-2-39-2-79-4-159-5-239 0-11-4-14-14-13h-73c-10-1-14 2-14 13 0 34-2 69-2 104l-14 575c0 20 0 20 20 20 216 0 431 0 647 1 14 0 17-3 17-17V469zM373 771c0 8-2 10-9 10H255c-7 0-10-2-10-10 1-18 1-36 0-54 0-7 3-9 10-9h108c9-1 11 3 11 11-1 17-1 35-1 52zm0-269c-64 36-127 73-192 110-5-16 1-24 14-31 59-34 118-68 176-102l12-6c3 13 3 22-10 29zm199 271c0 9-5 8-11 8H456c-9 0-12-3-12-11 1-17 0-34 0-51-1-8 2-12 10-11h110c6 0 10 0 9 8 0 19-1 38-1 57zm32-279c-64 36-127 73-190 110-2 1-4 1-6 2-2-10-2-17 7-22 63-36 127-73 190-110 2-1 4-1 6-2 1 9 3 16-7 22zm168 275c0 8-2 12-11 12H654c-8 0-11-3-11-11v-53c0-7 3-10 10-9h54v-1h53c9 0 13 3 13 12-1 17-1 33-1 50zm54-274c-63 36-125 73-188 109-2 1-4 2-7 3-2-10-2-17 8-22 63-36 125-73 188-109 2-1 4-2 7-3 2 9 3 16-8 22zM258 164c13-5 26-7 39-9 23-3 47-3 71-9 38-10 53-56 41-84-13 37-19 42-59 48-15 2-30 1-45 1-44-2-95 37-88 90 9-20 23-31 41-37z"/></svg>