<svg width="64" height="64" viewBox="0 0 1000 1000" xmlns="http://www.w3.org/2000/svg"><path d="M844 626c0-14-5-16-17-16H172c-14 0-17 4-17 17 1 98 1 195 0 293 0 15 5 17 18 17h654c13 1 18-2 17-16V626zM263 737h-5c-42 0-42 0-38-42 0-7 3-10 10-10 22 0 44 1 65 0 8 0 12 3 11 11v1c2 40 2 40-43 40zm126 0h-9c-42 0-42 0-39-42 1-7 2-10 10-10 22 1 44 1 67 0 7 0 9 3 9 10 3 42 3 42-38 42zm116 0h-6c-41 0-42-1-37-43 0-7 3-9 9-9h68c7 0 10 3 9 9v2c3 41 3 41-43 41zm119 0h-3c-41 0-41 0-38-42 0-6 1-10 9-10 22 1 45 0 67 0 7 0 11 3 10 10v1c1 41 1 41-45 41zm128 0h-38c-8 1-11-3-11-11-1-41-1-41 45-41 10 0 20 1 30 0 10 0 12 4 12 13 1 39 1 39-38 39zM555 369c1 69 1 139 0 208 0 11 4 13 14 13 39-1 77-1 115-1 39 0 77 0 116 1 11 0 14-3 14-14-1-69-1-137 0-206 0-10-3-14-14-14H568c-10 0-13 3-13 13zm181 41c31 0 31 0 31 31v1c0 31 0 31-30 31-32 0-32 0-32-32 0-31 0-31 31-31zm-3 94h11c24 0 24 0 23 24-1 12 5 28-3 36s-24 3-37 3c-21 0-21 0-22-32-2-31-2-31 28-31zm-98-94c31 0 31 0 31 32v1c0 29 0 29-30 29-32 0-32 0-32-32 0-30 0-30 31-30zm0 94h8c25 1 26 1 24 27 0 2-1 4-1 6-2 30-2 30-33 30-29 0-29 0-29-32 0-31 0-31 31-31zM453 221c-1-9-4-13-14-13-17 1-34 1-51 0-10 0-12 4-13 13-1 51-3 102-5 154-2 67-5 134-7 201-1 10 2 14 13 13h70c23 0 21 5 20-22-1-51-3-102-5-152-3-65-6-129-8-194zM228 590c28-1 55-1 82 0 10 0 13-3 12-13l-9-216h1c-2-47-4-93-6-140 0-9-2-13-12-13-18 1-35 1-53 1-9-1-11 2-12 11-4 119-9 239-14 358 0 9 2 12 11 12zm96-442c11-2 22-3 34-4 46-4 67-33 58-82-2 5-3 7-4 10-6 22-19 33-42 35h-29c-44 0-75 33-74 78 20-27 26-31 57-37zm136 2c15-3 30-5 45-6 44-4 67-38 54-81-8 34-20 44-52 44h-23c-42 0-74 33-71 81 10-25 27-34 47-38z"/></svg>