<svg width="64" height="64" viewBox="0 0 1000 1000" xmlns="http://www.w3.org/2000/svg"><path d="M818 555c-29-1-28-1-29-30 0-2 0-4 1-6 1-11-3-14-14-14-55 0-110 1-165-1-14 0-18 4-18 18 1 31 1 30-29 31-11 0-16-2-14-14 2-11-3-14-14-14-27 1-54 1-81 0-11 0-17 3-15 15s-5 12-14 13c-10 0-13-4-13-14 1-20 0-40 0-62-99 29-195 57-292 84-11 3-9 10-9 16v345c-1 13 4 15 16 15h685c8 0 17 2 17-12-1-120-1-239 0-358 0-8-2-12-12-12zM250 871c0 4-3 7-6 7h-75c-4 0-7-3-7-7v-67c0-3 3-6 7-6h75c3 0 6 3 6 6v67zm0-92c0 4-3 7-6 7h-75c-4 0-7-3-7-7v-67c0-3 3-6 7-6h75c3 0 6 3 6 6v67zm0-91c0 3-3 6-6 6h-75c-4 0-7-3-7-6v-67c0-4 3-7 7-7h75c3 0 6 3 6 7v67zm101 183c0 4-3 7-7 7h-74c-4 0-7-3-7-7v-67c0-3 3-6 7-6h74c4 0 7 3 7 6v67zm0-92c0 4-3 7-7 7h-74c-4 0-7-3-7-7v-67c0-3 3-6 7-6h74c4 0 7 3 7 6v67zm0-91c0 3-3 6-7 6h-74c-4 0-7-3-7-6v-67c0-4 3-7 7-7h74c4 0 7 3 7 7v67zm194 183c0 4-3 7-7 7h-83c-4 0-7-3-7-7v-23c0-3 3-6 7-6h83c4 0 7 3 7 6v23zm0-57c0 4-3 7-7 7h-83c-4 0-7-3-7-7v-22c0-4 3-7 7-7h83c4 0 7 3 7 7v22zm0-57c0 4-3 7-7 7h-83c-4 0-7-3-7-7v-22c0-4 3-7 7-7h83c4 0 7 3 7 7v22zm0-57c0 4-3 7-7 7h-83c-4 0-7-3-7-7v-22c0-4 3-7 7-7h83c4 0 7 3 7 7v22zm0-57c0 4-3 7-7 7h-83c-4 0-7-3-7-7v-22c0-4 3-7 7-7h83c4 0 7 3 7 7v22zm139 228c0 4-3 7-6 7h-68c-4 0-7-3-7-7v-67c0-3 3-6 7-6h68c3 0 6 3 6 6v67zm0-92c0 4-3 7-6 7h-68c-4 0-7-3-7-7v-67c0-3 3-6 7-6h68c3 0 6 3 6 6v67zm0-91c0 3-3 6-6 6h-68c-4 0-7-3-7-6v-67c0-4 3-7 7-7h68c3 0 6 3 6 7v67zm94 183c0 4-3 7-7 7h-68c-4 0-7-3-7-7v-67c0-3 3-6 7-6h68c4 0 7 3 7 6v67zm0-92c0 4-3 7-7 7h-68c-4 0-7-3-7-7v-67c0-3 3-6 7-6h68c4 0 7 3 7 6v67zm0-91c0 3-3 6-7 6h-68c-4 0-7-3-7-6v-67c0-4 3-7 7-7h68c4 0 7 3 7 7v67zM312 487c8-2 7-7 7-13l-5-80c-4-63-8-126-11-189-1-10-4-13-13-13-13 1-26 1-39 1-28 0-28 0-30 28l-12 207c-1 30-5 59-3 90 36-11 71-21 106-31zm334-2h44c13 0 26-1 39 1 16 2 18-5 17-19-6-86-11-172-15-257-1-9-3-12-12-12-19 1-37 1-56 0-11-1-13 4-13 13-1 29-3 58-5 87-3 58-7 117-11 175 0 10 3 13 12 12zm144-383c-14-4-28-7-42-6-37 2-65 37-59 73 17-36 35-45 73-37 9 1 17 4 26 6 54 13 97-16 100-70-29 42-46 48-98 34zm-448 25c10 3 20 6 30 8 46 8 85-23 87-73-12 34-35 43-66 40-16-2-32-6-47-9-56-14-88 26-85 70 20-37 38-45 81-36z"/></svg>