<svg width="64" height="64" viewBox="0 0 1000 1000" xmlns="http://www.w3.org/2000/svg"><path d="M556 655c-32-25-62-16-71 22-6 26 18 33 30 46 26 28 46 57 33 96-11 35-38 51-73 55-80 10-228-71-262-143-14-30-15-61 4-89 20-30 51-35 84-30 15 2 30 7 45 11 21 5 31-7 38-25 6-15 14-30-6-44-66-49-199-27-241 44-48 80-54 164 0 245 68 101 167 150 271 157 110 0 196-62 226-148 22-63-10-143-78-197zm128-175c28 1 32-6 28-33-13-89 14-162 90-215 52-37 67-84 49-138-20-58-72-95-133-94-66 1-115 39-119 104-8 102-54 171-152 203-17 6-19 12-9 27 58 89 136 142 246 146zm189 36c-37-6-74-12-111-11-158 1-284-55-366-197-21-37-52-68-79-101-7-8-16-22-27-15-15 9-3 24 3 33 32 52 64 104 104 151 20 24 36 50 21 81-10 21 7 22 16 27 41 24 82 46 123 69 24 13 45 30 67-5 9-14 30-11 48-11 46 1 93 13 130 10h70c11 0 28-1 29-12 2-16-17-18-28-19zM616 637c11-20-1-33-17-42-71-39-142-78-213-118-18-10-36-14-47 8-11 21 5 31 20 40 32 19 63 38 95 56-10 2-20 1-29 4-28 11-42 30-33 60 10 30 34 39 61 29 29-9 36-33 27-62-3-7-7-15-10-23l102 54c16 9 33 14 44-6z"/></svg>