<svg width="64" height="64" viewBox="0 0 1000 1000" xmlns="http://www.w3.org/2000/svg"><path d="M500 753c6 0 12-1 17-1 5-56 8-109 15-161s17-104 30-154c13-51 31-100 47-149-78 145-121 299-131 464 9 0 16 1 22 1zM275 618c4-53 16-102 40-148 51 38 103 68 169 73-26-38-61-60-105-75 31-10 55-24 74-50-24-6-42-3-61 1-19 3-36 13-52 19 8-25 18-52 27-82-45 10-61 46-54 106-55-23-97-17-125 20 29 3 56 6 82 9-29 52-28 103 5 127zm322-387c-84-12-100-11-130 9-41 25-63 78-51 118 53-58 119-93 197-104 6-1 16 3 19 8 26 42 45 88 50 137 3 35 0 69 0 106 30-21 45-49 49-82 7-60-17-107-61-147 79 42 141 103 199 176-16-106-95-181-213-203 94-5 181 10 266 39-33-37-73-62-121-74-48-13-94-8-141 14 36-71 1-158-64-166 35 78 43 125 31 181-2-5-4-8-5-12-24-84-97-134-184-128-46 4-93 40-102 79 117-17 205-1 261 49zM409 775C303 787 109 878 78 938c29-8 57-15 84-26 12-5 19-7 31-1 60 32 121 33 181 0 12-6 20-5 31 1 61 32 122 31 183-2 9-5 16-5 25 0 61 33 123 34 185 1 11-6 18-6 29 0 26 15 55 23 86 21-145-128-313-178-504-157zm45-22c-20-99-60-184-120-261 46 82 75 170 83 265 13-1 24-3 37-4z"/></svg>