<svg width="64" height="64" viewBox="0 0 1000 1000" xmlns="http://www.w3.org/2000/svg"><path d="M928 472c-17-93-73-147-165-168-127-30-225 58-209 188 11 84 86 135 157 107-86-46-107-79-90-138 16-51 56-80 107-77 57 4 105 47 112 110-27-28-53-49-96-53 54 45 85 94 76 168-17-23-23-47-46-58 7 61-59 152-119 166-6 1-13 0-19-1-8-2-16-4-23-5l-347-78c-1-6-10-12-12-20-2-6-4-15-15-12-16 5-32 4-48 1-4 0-7-2-9 4-1 2-2 5-2 8l-34-8c-3 0-8-1-13-3-18-6-23 2-22 19 0 42 1 83-1 124-1 26 7 33 33 33 237-1 474-1 711 0 27 1 40-10 49-33 35-89 43-180 25-274zM208 353c9-1 10-7 14-12 9-15 23-20 38-12 11 5 20 6 32 5 18-2 31 13 32 32 0 7-2 13 5 18 31 25 62 51 92 85-1-30-7-54-20-75-7-13-18-22-33-25-4-1-11 1-11-6 1-7 8-6 13-6 35-2 69-2 99 22-7-34-31-50-60-58-22-6-44-10-66-9-5 0-13 1-15-5-2-8 7-9 12-11 30-15 61-22 96-13-28-34-70-43-105-23-11 6-21 15-31 23-7 5-10 6-14-4-16-44-56-65-107-57 25 15 43 33 59 54 2 4 7 7 3 12-4 4-8 1-11 0-30-10-61-15-92-12-37 2-68 22-75 50 38-24 79-31 122-23 5 1 9 2 10 6 2 4-3 6-6 9-13 8-27 16-39 25-30 23-55 50-63 88 3-2 6-6 8-8 31-35 65-64 113-70zm-13 185c-19 3-11 29-11 43 0 21 22 13 35 13 24 1 25-1 23-27-2-31-2-34-47-29zm25-52c-5 0-10-1-14-2-4 0-7-1-8 3-3 12-8 24-6 35 1 10 16 6 24 8 11-3 26 3 27-18 1-25 2-25-23-26zm34-42c1-21-16-3-20-9-20-1-29 9-31 30-2 15 10 10 16 11 24 3 34-6 35-32zm16-80c0 15 8 23 22 24 13 0 22-9 22-22 1-13-7-21-21-22s-21 7-23 20zm-1 29c-2-14-11-1-16-4-17 1-36 17-33 29 3 13 17 6 26 7 11 0 25-19 23-32zm-21-13c21-2 9-23 16-34 5-7-8-9-15-11-13 1-21 8-22 21-1 14 8 24 21 24z"/></svg>