<svg width="64" height="64" viewBox="0 0 1000 1000" xmlns="http://www.w3.org/2000/svg"><path d="M847 154H153C69 154 0 223 0 308v384c0 85 69 154 153 154h694c84 0 153-69 153-154V308c0-85-69-154-153-154zM410 616c0 14-3 26-11 36-11 14-25 22-42 24h-90c-1 0-2 0-1-1V555c0-2 0-3 2-2 22 5 44 7 66 6 4 0 8 0 12-1 6-1 11-1 16-3 6-1 11-3 16-6 13-8 19-19 20-34v-70c0-1 0-2-2-2-16 1-32 1-48 1v67c0 4-1 7-2 11-2 6-7 11-13 15-7 4-15 4-24 3-15-1-29-6-42-12-1 0-2-1-2-2V382c1-23 12-40 32-52 8-3 15-6 24-6h87c2 0 2 0 2 2v290zm162 0c0 29-18 52-45 58-4 1-7 2-10 2h-88c-1 0-1-1-1-2V541c17 14 38 17 59 18 6 0 11 1 17 0 17 0 34-3 50-6 1-1 2 0 2-2v-23c-2 0-3 1-4 1-16 8-33 12-51 11h-6c-17-2-31-13-34-32-1-8 0-16 2-23 5-13 14-21 28-24 0 0 1 0 2-1h2c5-1 10-1 15-1 15 1 29 5 42 11 1 1 2 2 4 2v-23c0-1 0-1-1-2-10-2-20-4-30-5-13-2-26-2-39-1s-26 2-38 7c-7 2-13 6-19 11h-1v-2-73c0-24 11-42 32-54 7-3 15-5 23-6h87c2 0 2 1 2 2v290zm163 0c0 15-5 28-15 40-11 13-26 20-43 20h-85c-2 0-2-1-2-2V558c0-1 0-2 2-2h92c10 0 20-3 27-11 11-12 9-29-4-39-6-4-13-6-21-7h-1l-1-1c3 0 4-1 6-1 10-3 17-9 20-19 4-12-2-24-14-30-7-4-15-4-23-4h-81c-2 0-2-1-2-3v-58c0-28 18-50 44-57 5-2 11-2 16-2h82c2 0 3 0 3 2v290zM620 507h34c7 0 13 6 14 14 1 7-3 14-11 16-1 1-3 1-5 1h-32c-1 0-2 0-2-2 1-9 1-18 0-27 1-2 1-2 2-2zm-1-19v-25c0-1 0-2 1-2h32c7 1 12 7 13 14s-6 14-13 15h-32c-1 0-1-1-1-2z"/></svg>