<svg width="64" height="64" viewBox="0 0 1000 1000" xmlns="http://www.w3.org/2000/svg"><path d="M995 125H819c-11 0-22 1-33 4-56 15-94 63-94 122-1 41 0 82-1 124 0 4 2 5 6 5h172c17 0 34 2 50 9 25 13 37 38 29 65-6 21-22 33-42 39-4 1-8 2-13 3 1 1 1 1 1 2h3c16 2 32 6 45 16 27 20 31 57 9 81-16 18-37 25-59 25H696c-3 0-5 1-5 5v246c0 3 1 4 5 4 60 0 120 1 181 0 37 0 68-15 92-43 21-24 31-52 31-84V130c0-4-1-5-5-5zm-345 0H473c-3 0-6 0-9 1-18 0-34 4-49 12-46 25-69 63-69 115v160c1-1 2-1 2-2 13-10 27-17 42-22 26-10 52-14 80-16 28-1 56 0 83 3 22 3 43 7 64 12 2 0 2 1 2 3v50c-3 0-6-3-9-4-28-14-57-22-88-24-11 0-21 0-32 2h-2c-1 0-2 0-3 1-1 0-3 0-5 1-28 7-49 22-58 50-6 16-6 33-4 49 5 41 35 64 72 69 4 1 8 1 12 1 38 2 74-7 109-23 3-2 5-4 8-4v50c0 3-1 3-3 3-35 8-71 14-107 15h-36c-46-4-90-11-127-40v285c0 2 0 3 3 3h187c7 0 14-1 21-3 59-14 97-64 97-125V130c0-4 0-5-4-5zm-346 0H127c-3 0-6 0-9 1-17 0-34 4-49 13-44 24-68 61-68 110-1 102-1 204-1 306 0 3 1 4 4 5 29 14 58 24 90 26 18 1 35 1 51-8 13-7 22-17 27-31 2-8 3-15 3-23 0-48 0-96 1-144-1 0-2-1-2-1s1 1 2 1h103c4 0 4 1 4 4v56c0 31 0 62-1 93s-15 55-42 71c-10 6-21 11-33 14-11 3-23 5-34 7v2-2c-9 1-18 2-27 2-48 1-95-3-141-14-4-1-5-1-5 4v256c0 2 1 2 3 2h192c37-4 66-21 89-50 17-23 24-48 24-77V130c0-4 0-5-4-5zM173 377c0 1 1 1 1 1s-1 0-1-1zm584 204h68c3 0 7 0 11-1 15-4 25-19 23-35-2-17-15-29-31-30h-71c-3 0-4 1-4 4v58c0 4 1 4 4 4zm0-103h33c10 0 22 1 34 0 16-2 27-15 27-31 0-15-12-28-28-29-22-2-45-1-67-1-3 0-3 1-3 4v54c0 3 1 3 4 3z"/></svg>