<svg width="64" height="64" viewBox="0 0 1000 1000" xmlns="http://www.w3.org/2000/svg"><path d="M803 385c-6-57-34-100-84-128-24-13-36-33-46-57-11-27-19-56-33-82-15-26-31-49-63-53-53-8-101 5-135 49-14 18-29 35-45 51-7 7-13 9-23 6-56-13-110 29-110 87 0 13-4 19-15 25-18 11-32 26-43 45-20 34-6 97 45 106 39 7 79 10 118 13 10 1 14 4 15 14 5 46-11 86-37 122-16 21-32 43-43 67-13 26-15 52-1 78 7 15 9 29 2 44-8 17-15 34-22 51-10 20-18 41-22 64-2 18 7 38 22 42 18 6 27-7 35-20 2-2 4-5 5-8 20-54 32-108 21-165-9-43-7-83 24-119 38-44 66-93 67-154 7 3 7 7 7 11 2 28 1 56-10 83-14 37-27 75-15 114 13 46 6 91-4 136-3 14-4 28 0 42 5 16 20 32 32 30 17-3 21-17 24-32 9-48 4-95-7-142-5-24-7-47-1-70 10-50 26-100 14-152-2-8-2-17-3-25-2-9 1-14 11-13h13c22 0 21 0 16 21-13 55-16 108 14 159 8 14 14 28 20 42 16 39 21 78 1 119-14 30-28 61-36 94-3 12-4 25-2 37 2 9 6 17 16 20 9 3 14-4 20-9 3-4 6-8 8-12 12-19 19-39 25-60 12-43 23-87 12-132-6-27-16-53-25-79-8-24-18-48-24-74-9-39 6-74 13-111 3-12 15-16 32-12 13 3 8 11 7 18-5 45 2 85 39 117 32 29 38 59 21 99-11 28-22 56-23 86-1 39 0 78 12 116 5 12 12 25 27 22 17-4 16-20 18-32 0-2-1-4-1-5-3-20-7-40-10-59-8-38-10-75 3-112 11-30 21-60 9-92-8-21-22-37-34-55-16-27-30-53-23-86 2-11 6-18 20-17 21 1 43 1 64 0 16-1 31 0 46-2 25-3 44-34 42-61zM493 137c60 0 109 49 109 110 1 59-49 111-110 109-63 0-110-46-110-109s48-110 111-110zm-139 53c19 0 22 4 17 22-8 30-6 59 7 87 9 20 6 25-16 27h-9c-37 0-67-31-67-68 1-37 32-68 68-68zm136 124c33 0 59-25 59-58 1-34-24-60-58-60-34-1-60 25-60 58 0 34 26 60 59 60zm-7-85c1-13 13-23 26-22s23 14 21 27c-1 12-13 21-25 20-13 0-24-13-22-25zm-141 53c11 0 18-7 18-18-1-10-7-15-18-16-9 1-16 6-16 16-1 11 6 18 16 18z"/></svg>