<svg width="64" height="64" viewBox="0 0 1000 1000" xmlns="http://www.w3.org/2000/svg"><path d="M988 328c-70-58-140-118-210-177-7-6-15-15-24-17-37-6-74-10-112-14 0 22 12 28 30 30 28 5 59-2 82 17 66 54 130 110 195 165 5 4 15 8 7 17-8 8-13-2-18-7-48-40-97-79-144-121-36-32-73-58-124-55-7 1-19-9-21 5-1 14 12 10 21 12 22 5 48-1 68 15 63 52 126 105 190 157 10 9 12 15 2 26-26 30-52 60-76 91-12 15-20 13-33 2-25-23-51-44-80-69 0 11-1 16-1 22v348c-1 51-1 51-52 62-90 20-182 19-273 14-43-2-86-7-128-20-19-6-27-15-27-37 1-118 1-236 0-354 0-10 3-20-3-32-27 22-53 44-79 66-12 10-19 14-31-2-23-30-48-59-74-87-13-14-9-21 4-32 59-49 117-98 176-148 12-10 25-18 42-18 15 0 31-4 46-6 6 0 8-3 9-8 0-6-3-9-9-8-34 6-71 1-101 28-57 51-116 99-175 148-6 5-11 17-20 8-11-12 5-16 10-20 50-44 103-84 151-130 36-33 75-49 122-49 19 0 29-8 30-31-31 5-60 8-89 13-11 2-23-1-34 8C160 204 85 268 9 331c-13 10-10 18-1 29l138 165c7 9 12 11 22 2 18-17 38-32 62-52v315c0 58 7 65 62 80 54 14 109 17 164 19 89 3 177 0 264-23 44-11 50-21 50-66V510c0-10 1-20 2-34 20 17 38 30 53 45 14 13 21 14 34-2 43-53 87-106 132-157 13-15 12-22-3-34zM383 182c11-10 17-7 26 4 52 68 130 68 183 0 9-11 13-15 25-4 13 13 15 4 16-9 2-28-4-50-33-62-24 75-54 104-103 102-48-1-80-34-96-103-31 21-36 31-35 62 0 14 2 24 17 10zm205 138c1 18 20 45 33 45 12 0 32-26 32-44 3-16-2-28-23-23-15 4-44-17-42 22z"/></svg>