<svg width="64" height="64" viewBox="0 0 1000 1000" xmlns="http://www.w3.org/2000/svg"><path d="M953 364c-52-43-106-84-155-131-40-38-84-62-139-62-9 0-17 0-25-3-18-5-28 1-38 17-44 63-135 72-181 11-24-31-47-30-77-25-20 4-40 6-61 9-8 1-15 3-22 9-70 59-140 118-211 177-10 8-10 14-1 24 28 33 56 66 84 100 9 11 15 12 26 2 25-23 53-45 84-71v34c0 118 1 237 1 356 0 41 1 44 42 54 101 25 203 25 306 19 46-2 91-7 135-19 38-10 41-14 41-53V587 420c31 26 58 47 83 70 12 11 19 12 30-2 26-34 54-66 82-98 11-12 6-18-4-26zm-281-41c-2 18-20 47-34 47-12 0-31-29-34-45-4-31 16-27 35-26 16 1 37-7 33 24zM25 334c70-58 139-116 209-175 8-7 17-12 29-13 33-3 67-7 100-12 7-1 17 1 19-10-2-11-8-8-15-8-39 5-79 10-118 14-9 1-16 6-22 11L14 321c-5 4-21 9-11 20 10 12 16-2 22-7zm960-13c-70-60-141-120-212-179-5-5-12-10-18-11-43-5-85-10-127-15-5-1-9-1-10 5-1 8 4 10 10 11 26 3 53 6 79 10 21 3 42 2 60 17 68 59 137 116 206 174 6 5 13 20 24 8 10-11-6-15-12-20zm-16 22c-68-58-136-115-204-172-5-5-11-11-18-12-39-7-79-12-116-17-8 0-17-2-17 8 0 8 9 7 15 7 27 4 54 9 80 10 23 1 40 11 57 26 64 55 128 109 193 163 5 4 10 17 20 7 11-12-4-16-10-20zM41 356c63-52 126-105 189-159 19-17 38-30 66-30 24-1 49-6 74-9 6-1 13 0 16-8-1-8-6-9-12-8-17 2-34 2-50 6-28 8-60-1-85 19-70 58-140 118-210 177-5 5-18 8-8 19s15-2 20-7zm459-131c52 0 98-39 105-90 1-8 7-19-8-22-16-2-12 9-14 18-10 42-43 70-82 71-40 0-73-28-83-71-2-9 0-21-15-18-14 3-9 15-8 23 6 49 54 89 105 89z"/></svg>