<svg width="64" height="64" viewBox="0 0 1000 1000" xmlns="http://www.w3.org/2000/svg"><path d="M552 4c50 10 97 34 137 67 34 28 58 63 83 102 13-19 25-36 44-46 33-16 75-10 101 16 28 26 35 68 16 103-8 14-14 22 1 38 45 46 35 107-21 139-13 8-22 12-20 31 6 50-11 80-47 96-37 17-74 8-108-28-3-3-5-8-8-12-105 101-221 132-355 78-33-13-61-33-86-57-13-13-20-14-33 1-32 35-68 40-105 22-36-18-54-52-47-97 2-14 1-19-12-26-64-35-72-88-24-147 6-7 9-11 5-22-26-61-18-100 22-126 43-27 82-17 130 35C271 79 346 18 443 4c36-5 73-6 109 0zm-56 593c64-1 109-14 153-44 134-91 131-275-8-358-93-55-190-56-284-3-139 79-149 260-21 355 47 34 100 53 160 50zm377-210c26 0 42-13 43-39 2-28-14-45-41-45-26-1-44 15-43 43 0 26 15 40 41 41zm-18-141c29 0 44-16 44-43 0-24-17-42-42-41-26 0-43 16-42 44 0 26 15 39 40 40zM191 519c25-3 41-18 41-42 1-28-17-44-44-44-25 0-41 16-41 42 1 28 16 42 44 44zm-91-313c1 29 15 46 42 47 25 0 42-16 43-41 1-27-15-43-42-44s-41 13-43 38zM82 353c4 26 18 42 46 40 26-2 40-19 38-44-1-26-17-43-45-41-26 2-38 19-39 45zm686 117c1 28 14 43 41 43 28 1 44-17 43-44-1-26-18-40-44-39-26 0-40 15-40 40zm83 372c-3-83-62-152-143-172-24-6-37-2-50 21-32 60-67 118-101 178-2 0-5-1-8-1 0-52 1-103 0-154-1-38-17-57-49-56h-1c-31-1-48 18-48 56-1 51-1 102-1 154-2 0-5 1-8 1-34-60-69-118-101-178-12-23-26-27-50-21-81 20-140 89-143 172-1 43 1 86-1 128 0 21 4 30 28 30 108 0 216-1 324-1s217 1 325 1c24 0 28-9 28-30-1-42 1-85-1-128zM442 338c0 20-16 36-35 36s-36-16-36-36 16-36 36-36 35 16 35 36zm190 0c0 20-16 36-36 36s-35-16-35-36 16-36 35-36 36 16 36 36zm12 66c-3 1-4-1-4-4-5-29-27-50-56-53-28-3-53 14-64 41 0 1-1 3-1 4-6-5-12-7-17-7-6 0-12 2-17 7-1-1-2-3-2-4-10-27-36-44-64-41-29 3-51 24-55 53-1 3-1 5-5 4-3 0-3 2-3 4s0 4 3 4c4 0 4 2 5 5 2 17 10 31 24 41 9 6 18 10 28 12 6 1 12 1 18 0 13-2 24-8 33-18 13-12 19-27 19-44 1-8 7-15 15-15h1c8 0 14 6 15 15 0 17 6 32 18 44 10 10 21 16 34 18 6 1 12 1 18 0 10-2 19-6 28-12 13-10 22-24 24-41 1-3 1-5 5-5 3 0 3-2 3-4s0-4-3-4zm-220 58c-30 0-53-24-53-54s24-54 55-54c29 1 53 25 53 55-1 30-25 53-55 53zm155 0c-30 0-54-24-54-53-1-30 23-54 53-55 30 0 55 24 55 54s-24 54-54 54zm-1 13c-3 0-7 0-10-1-13-2-25-8-36-18-12-13-19-29-20-48 0-6-4-10-10-10s-11 4-11 10c-1 19-7 35-20 48-10 10-23 16-36 18-6 1-13 1-20 0-10-1-20-6-29-12-15-12-24-26-27-45-3 0-7-1-8-9 0-1 0-4 3-6 1-1 2-2 5-2v-1c5-31 29-54 60-57 29-3 56 15 68 43 10-6 20-6 30 0 11-29 38-46 68-43 31 3 55 26 60 57v1c2 0 4 1 5 2 2 2 2 5 2 6 0 8-4 9-7 9v-1s0 1-1 1c-2 19-11 34-26 45-9 7-19 11-30 12-3 1-6 1-10 1zm0-121v5c-13 0-25 5-34 15-10 9-15 22-15 35 1 26 23 48 50 48s49-22 49-49-22-49-50-49v-5zm-153 0v5c-28 0-50 22-50 49s22 49 49 49c28 0 50-21 50-48 0-13-5-26-14-35-9-10-21-15-35-15v-5z"/></svg>