<svg width="64" height="64" viewBox="0 0 1000 1000" xmlns="http://www.w3.org/2000/svg"><path d="M681 646l28 86c1 4-1 8-5 9l-19 6c-4 1-8-1-9-4l-31-97c-1-4-2-7-1-7h-1c-1 0-3 3-4 7l-29 91c-1 4-5 6-8 4l-20-6c-4-1-6-5-4-9l25-81c1-3-1-6-5-6H291c-3 0-7 3-8 7l-76 284c-1 4 1 7 5 7h576c3 0 6-3 5-6l-76-285c-1-4-5-7-9-7h-22c-4 0-6 3-5 7zM632 63H368c-4 0-9 1-12 4L150 227c-3 2-6 7-6 11L90 592c0 4 2 7 6 7h131c4 0 7-3 7-7V334c0-4 0-8 1-9s2 2 3 6l45 251c1 4 4 7 8 7h418c4 0 7-3 8-7l45-250c1-4 2-7 3-6 0 0 1 4 1 8v259c0 3 3 7 7 7h130c4 0 7-3 6-7l-53-355c-1-4-4-9-7-11L645 67c-3-3-9-4-13-4zM496 299L377 124c-2-3-1-5 3-5h239c4 0 5 2 3 5L504 299c-3 3-6 3-8 0z"/></svg>