<svg width="64" height="64" viewBox="0 0 1000 1000" xmlns="http://www.w3.org/2000/svg"><path d="M858 577H754c-5 0-9 4-9 9v57c-1 6 4 10 9 10h104c5 0 9-5 9-10v-57c0-5-4-9-9-9zm-142 0H282c-5 0-9 4-9 9v57c0 5 4 10 9 10h434c5 0 10-4 10-10v-57c0-5-5-9-10-9zm-470 0H142c-5 0-9 4-9 9v57c0 6 4 10 9 10h104c5 0 9-5 9-10v-57c0-5-4-9-9-9zM142 423h95c5 0 9-4 9-9v-57c0-5-4-10-9-10h-95c-5 0-9 5-9 10v57c0 5 4 9 9 9zm602 0h113c5 0 10-4 10-9v-57c0-5-5-10-10-10H744c-5 0-9 5-9 10v57c1 5 5 9 9 9zm-470 0h56c6 0 10-4 10-9v-57c0-5-4-10-10-10h-56c-6 0-10 5-10 10v57c0 5 4 9 10 9zm93 0h57c5 0 10-4 10-9v-57c0-5-5-10-10-10h-57c-5 0-9 5-9 10v57c0 5 4 9 9 9zm95 0h56c6 0 10-4 10-9v-57c0-5-4-10-10-10h-56c-5 0-10 5-10 10v57c0 5 5 9 10 9zm94 0h57c5 0 9-4 9-9v-57c0-5-4-10-9-10h-57c-5 0-9 5-9 10v57c0 5 5 9 9 9zm94 0h57c5 0 9-4 9-9v-57c0-5-4-10-9-10h-57c-5 0-10 5-10 10v57c1 5 5 9 10 9zM142 538h57c5 0 10-4 10-9v-57c0-5-5-10-10-10h-57c-5 0-9 5-9 10v57c0 5 4 9 9 9zm94-76c-5 0-10 5-10 10v57c1 5 5 9 10 9h57c5 0 9-4 9-9v-57c0-5-4-10-9-10h-57zm94 0c-5 0-9 5-9 10v57c0 5 4 9 9 9h57c5 0 10-4 10-9v-57c0-5-5-10-10-10h-57zm95 0c-5 0-10 5-10 10v57c0 5 4 9 10 9h57c5 0 9-4 9-9v-57c0-5-4-10-9-10h-57zm93 0c-5 0-9 5-9 10v57c1 5 4 9 9 9h57c5 0 10-4 10-9v-57c0-5-5-10-10-10h-57zm95 0c-5 0-10 5-10 10v57c0 5 4 9 10 9h57c5 0 9-4 9-9v-57c0-5-4-10-9-10h-57zm94 0c-6 0-10 5-10 10v57c1 5 4 9 10 9h56c5 0 10-4 10-9v-57c0-5-5-10-10-10h-56zm151 0h-57c-5 0-10 5-10 10v57c0 5 5 9 10 9h57c5 0 9-4 9-9v-57c0-5-4-10-9-10zm125-233H17c-10 0-17 8-17 18v506c0 10 7 18 17 18h966c10 0 17-8 17-18V247c0-10-7-18-17-18zm-3 504c0 11-7 19-17 19H37c-9 0-17-8-17-19V267c0-10 8-19 17-19h926c10 0 17 9 17 19v466z"/></svg>