<svg width="64" height="64" viewBox="0 0 1000 1000" xmlns="http://www.w3.org/2000/svg"><path d="M937 500L703 117c-2-4-7-5-10-3L391 298c-4-2-12-8-14-17-3-12 5-29 23-48 24-26 34-51 31-75-5-33-33-50-34-51l-15 25c0 1 17 11 20 30 2 15-6 32-24 51-25 27-35 52-30 75 3 12 10 20 16 27L66 497c-1 1-3 2-3 4-1 2 0 4 1 6l233 383c2 2 4 3 7 3 1 0 2 0 4-1l626-382c4-2 5-7 3-10zM775 381l-66 39-39-65 65-40 40 66zM668 206l40 65-65 40-40-65 65-40zm-2 241l-66 40-40-65 66-40 40 65zM559 273l40 65-65 39-40-65 65-39zm-8 244l-65 40-40-66 66-40 39 66zm-66-110l-65 40-40-65 65-40 40 65zm-44 177l-65 40-40-65 65-40 40 65zM334 410l40 65-65 39-40-65 65-39zM159 517l65-40 40 65-65 40-40-65zm67 109l65-40 40 65-65 40-40-65zm101 171l-39-64 293-178 39 63-293 179zm337-206l-40-65 65-40 40 65-65 40zm109-66l-40-66 65-39 40 65-65 40z"/></svg>