<svg width="64" height="64" viewBox="0 0 1000 1000" xmlns="http://www.w3.org/2000/svg"><path d="M67 483c-6-6-12-9-14-7l-32 33c-2 2 0 8 6 13l24 24-7 35 35-6 17 17-6 35 35-6 190 189-6 35 35-6 23 23-7 35 35-6 15 15-6 35 35-7 12 12c5 6 11 9 14 7l32-33c2-2-1-8-6-14L67 483zm319 116l24 24-130 37 29 29 85-21 25 25-84 22 29 28 41-11 22 22-41 12 133 133s78-7 38-74c0 0-151-187-128-363 0 0 3-46-27-7L568 0H388L271 309c-2-4-5-6-8-9-10-5-28-5-56 23L75 455l179 179 132-35zm385 211c115 0 209-93 209-208s-94-209-209-209-208 94-208 209 93 208 208 208zM607 622l9-11c2 27 10 52 24 73l-12-3c-11-18-18-38-21-59zm98 154c-5 2-8 4-11 5-26-11-49-27-68-47 1-3 1-7 2-12 2-12 4-26 5-32v-2c2 1 6 2 13 4 16 4 44 12 50 13 1 1 3 3 5 7 6 9 15 24 23 35 3 5 5 9 7 12 1 1 1 2 1 2-3 2-16 9-27 15zm66-241s2 1 5 3c14 10 54 39 57 41-3 10-23 70-24 74h-76c-1-4-21-64-24-73 3-3 43-32 57-42 3-1 4-3 5-3zm-5-4v-57l5 2 5-2v57l-5-4-5 4zm75 169l-6 8-35-49h12l29 41zm-112-41h12l-35 49-5-8 28-41zm41 105c-10 0-21-1-31-3l-7-11c12 3 25 5 38 5 14 0 27-2 40-6l-7 12c-11 2-22 3-33 3zm78 17c-3-2-7-4-11-6-12-6-25-12-27-14 0 0 0-1 1-2 2-3 5-7 8-12 10-16 25-40 26-41s31-9 49-14c7-1 12-3 14-3 1 3 4 18 6 31 1 4 2 8 2 12-18 20-42 37-68 49zm65-100l-13 3c14-21 23-47 25-75l8 11c-3 22-10 42-20 61zm-19-122c1-6 2-30 4-48 0-6 0-11 1-14v-2c3 1 18 3 31 5 4 1 8 2 12 2 13 24 22 51 24 80-2 3-5 6-8 9-10 9-20 19-23 21-3-3-6-7-10-12-8-10-19-24-26-32-3-4-5-7-5-9zm-57 29l3-11 48-14 6 7-57 18zm56-98l-1 14c-17-22-40-39-67-49l13-5c21 9 39 23 55 40zm-169-72c2-5 4-8 5-11 13-3 27-5 41-5s28 2 41 5c2 3 4 6 6 11 6 11 14 24 15 27 0 0-1 1-3 1-3 1-8 3-13 5-14 6-32 13-40 16-3 1-5 2-5 2s-2-1-5-2c-8-3-27-11-41-16-6-2-10-4-13-5-1-1-2-1-3-1 2-3 9-16 15-27zm-21 31l13 5c-26 10-49 27-66 48l-1-13c15-17 34-30 54-40zm-49 113l48 15 3 11-56-18 5-8zm-44-61c14-3 30-5 33-6 0 2 1 7 1 14 1 17 3 44 4 50 0 2-2 5-5 8-7 9-20 24-28 35-4 5-7 9-8 10-4-3-15-14-24-23-4-3-7-6-9-8 3-29 11-55 24-78 4-1 8-1 12-2zm239 384c-30 21-61 44-97 58-36 15-75 25-114 32-39 8-80 11-120 12l-1 5c41 7 82 9 123 8 42-2 84-8 125-19 40-12 83-26 116-58 32-31 54-73 56-117l-5-1c-27 32-53 59-83 80z"/></svg>