<svg width="64" height="64" viewBox="0 0 1000 1000" xmlns="http://www.w3.org/2000/svg"><path d="M666 685h-62c-6 0-12 4-15 9l-1 1c-7 12-65 113-88 114-23-1-81-102-88-114l-1-1c-3-5-9-9-15-9h-62c-58 0-136 54-136 123v110h604V808c0-69-78-123-136-123zm271-124c-21-92 26-206-47-297-65-82-121 4-137-1-17-41-44-79-76-109-51-46-113-72-177-72s-126 26-177 72c-32 30-58 68-76 109-16 5-72-81-137 1-73 91-26 205-47 297v5c0 11 8 20 18 21h2c110 6 157-47 170-86l1 1c24 42 58 80 98 108 46 33 97 51 148 52 51-1 102-19 149-52 39-28 74-66 97-108l1-1c13 39 60 92 170 86h2c10-1 19-10 19-21 0-1-1-3-1-5zm-197-97c-1 0-2 0-3-1l-13-1-6 12c-36 71-119 147-218 150-99-3-182-79-218-150l-6-12-13 1c-1 1-2 1-3 1-28 0-43-20-43-58 0-13 3-56 35-65 0 0 129 3 227-27 21-7 28-4 46 1 98 28 223 26 223 26 32 9 35 52 35 65 0 38-15 58-43 58z"/></svg>