<svg width="64" height="64" viewBox="0 0 1000 1000" xmlns="http://www.w3.org/2000/svg"><path d="M183 744c-31 9-44-5-48-47-14 5-19 17-21 30-1 5 0 10 0 15-1 4 3 10-1 12-5 1-8-3-12-6-10-10-11-23-8-36 3-10 9-18 14-27-14-6-17-5-43 17-3-12 1-22 9-30 16-16 37-22 58-27 12-2 17-7 20-19 18-56 59-86 115-98 18-4 36-6 55-6 7 0 10 0 7-8-18-61-42-121-70-178-4-6-9-5-14-5-19 1-38-3-52-18-15-14-17-33-6-53 9-18 27-26 46-22 17 3 31 9 42 23 3 5 6 4 11 2 56-20 114-35 173-45 75-12 150-17 224 1 8 2 11-2 16-7 22-24 54-22 72 5 12 20 7 43-16 58-8 5-9 10-8 18 13 64 4 125-16 186-3 10-6 20-11 30-4 10 1 10 7 12 30 6 57 18 81 35 38 27 58 64 60 111 1 8 4 12 11 15 17 8 34 18 47 32 10 11 17 24 10 41-5-1-6-6-8-9-4-6-8-12-15-16-4-3-10-5-13-2-6 3 0 8 1 11 9 30 1 49-28 57 7-22 16-44-5-63-19 43-31 50-59 35l18-9c11-8 19-18 18-34 0-10-4-19-14-23-11-4-20-1-28 7-4 4-7 10-11 14-15-18-8-38 15-45 11-3 22-3 34-2 7 0 9-2 9-9 2-33-14-57-38-76-31-23-67-34-104-42-5-1-6 1-8 4-43 84-103 155-171 219-4 3-7 5-2 11 13 20 14 29 5 54 19-5 37-11 56-13 20-3 39-3 58 5 20 8 33 22 41 42 3 6 3 10-6 10-61-1-123-1-185 0-9 0-10-4-9-12 2-11 6-21 13-30 9-12 15-26 14-42-1-11-5-17-16-20-32-9-65-13-99-13-36 0-73 46-50 85 17 28 14 32-18 32-53 0-107-1-160 0-11 0-12-3-8-12 15-34 54-52 95-45 15 2 30 5 44 11 7 2 9 2 10-6 4-34 19-61 54-73 5-1 6-4 6-9-4-63-14-124-29-185-1-4-3-7-8-8-39-1-77 2-113 18-26 12-45 29-53 57-4 14-3 16 11 19 8 2 16 5 24 8 24 12 27 31 7 50-2-5-3-9-5-13-7-14-18-20-30-17-12 4-21 19-19 32s10 22 19 29c2 2 5 4 8 7zm252-213c6-1 13-1 19-1 46-4 90-13 134-25 32-8 63-17 91-34 27-17 33-40 15-66-5-7-11-13-17-18-3-3-6-5-5-10 3-20-7-36-25-42-17-5-33 1-44 20-2 5-5 5-10 5-23 0-45 2-67 7-9 3-13 1-17-8-16-41-63-59-103-41s-59 65-39 103c9 17 10 30 4 48-12 33 3 53 37 59 9 2 18 3 27 3zm26-412c9 11 17 22 26 32 8-7 16-14 23-22 4-3 6-4 9 1 8 16 16 32 25 47 3 7 0 8-5 8-47 1-93 9-140 22 3-23 6-45 9-68 8 5 16 9 22 14 8 6 13 6 17-4 3-10 9-19 14-30zm35 269c5 35-33 59-55 59-34 0-63-29-65-62-2-28 34-56 68-56 17 0 32 6 41 20 7 11 10 25 11 39zm-103 0c0 21 20 41 41 41 20 0 47-21 47-36 0-27-20-47-47-47-24 0-40 17-41 42zm51 98c63-21 128-33 194-38-9 3-18 2-20 16-2 7-9 4-12-1-8-13-17-2-26-3-7-1-6 5-7 10 0 3-1 5-4 7-4 1-6-2-8-4-3-6-6-11-13-7-8 4-22-3-23 13-1 3-3 6-6 7-4 1-7-2-8-5-6-12-15-2-23-3-6 0-10 2-10 10 0 5-7 11-10 6-6-12-14-9-24-8zm195-140c12 0 22 11 22 24 0 12-12 24-25 24-12 0-25-13-24-24 1-13 13-25 27-24zm-2 41c10 0 17-7 17-15 0-10-8-19-18-19-9 0-17 8-16 17 0 10 8 18 17 17z"/></svg>