<svg width="64" height="64" viewBox="0 0 1000 1000" xmlns="http://www.w3.org/2000/svg"><path d="M452 88L63 317l146 487 420 108 309-221V187L452 88zm428 136L579 452l-56-16-16-102c8 15 23 32 38 30 25-3 30-55 30-55 7-60-34-57-43-56-5 1-25 4-34 21l-21-129 403 79zM545 582l-19-124 46 13 13 120-40-9zm-13 54c-3 0-15-1-10-19 0 0 4-15 12-15 8 1 12 17 12 17 3 18-12 18-14 17zm23-350c0 2-1 13-7 15-9 3-13-4-13-4-12-20 9-24 6-23 2-1 14-3 14 12zm-97-136l43 280-355-97 312-183zM131 350l374 102 19 129v-1c-12 0-22 12-29 24L252 753 131 350zm140 415l211-129c-12 54 28 57 37 57 7 0 54 0 41-59 1 0-3-16-10-30l37 8 26 241-342-88zm363 83l-26-232 16 3c1 7 2 11 2 11 17 58 55 38 63 33 3-2 17-11 21-26l170 35-246 176zm32-260c5-4 16 6 16 6 11 11 1 18-1 19s-11 6-16-9c0 0-5-13 1-16zm228 64l-185-36c-2-7-8-16-17-25 1 0-37-38-59-26-10 6-12 20-12 33l-15-3-14-127 302-231v415zM397 517c-1 0 52-13 52-38s-53-39-52-39c-59-14-61 28-61 37 0 7 2 55 61 40zm8-65s16 4 16 11-16 12-16 12c-18 4-18-10-18-12 0-3 0-16 18-11zm0 95c-55 26-30 60-24 67 4 5 35 41 72-7 0 1 30-45 14-64-15-20-63 4-62 4zm41 25c-12 15-22 4-23 2-2-3-11-14 8-22-1 0 15-8 20-2 5 7-5 22-5 22zm281-80s-54 0-60 24 42 51 42 51c53 27 65-13 67-22 2-7 11-53-49-53zm33 30c-1 2-4 14-20 6 0 0-14-8-12-15 1-7 17-7 17-7 18 0 15 14 15 16zm-30-51c59-10 44-50 41-58-3-7-23-49-72-13 1 0-43 32-33 55s64 16 64 16zm-2-64c14-10 19 1 20 3 1 3 5 14-11 16 0 0-15 2-18-4s9-15 9-15zm-126-28c22 12 59-20 62-24 42-45 6-67-3-71-5-4-48-25-64 33 0 0-16 50 5 62zm33-77c5-16 17-8 19-7s11 7 0 18c-1 1-11 8-16 5-8-5-3-15-3-16zm-174 28c-41-44-66-10-71-2-4 6-28 46 29 66-1 0 48 21 62 0 13-21-12-55-20-64zm-7 21c-4 6-18 0-18 0-17-6-9-18-8-19 1-3 9-13 21 0 2 3 9 13 5 19z"/></svg>