<svg width="64" height="64" viewBox="0 0 1000 1000" xmlns="http://www.w3.org/2000/svg"><path d="M634 384c39 7 69-8 85-42-33-14-76 7-85 42zm-3 79c24 30 57 37 96 21-28-33-67-41-96-21zm21-232c-36 2-63 35-61 72 37-6 59-33 61-72zM398 719c34-24 44-58 28-92-31 19-42 52-28 92zm170-161c15 46 42 67 74 62-9-41-36-64-74-62zm298-333C797 104 678 47 544 70 307 110 109 303 69 540 47 664 79 772 190 848c143 98 297 106 457 60 128-38 200-122 254-251 24-56 37-113 37-180-4-91-28-174-72-252zm-18 153c-7 131-90 250-211 347-76 60-162 96-260 107-169 19-299-112-275-280 22-161 113-277 242-367 79-55 167-86 265-84 143 2 243 104 239 277zm-334-67c-86-2-184 88-192 173-6 71 36 116 108 115 81-2 171-79 185-160 13-78-26-127-101-128zm85 104c-5 81-91 164-172 165-59 0-92-38-84-98 10-78 97-153 176-152 50 2 82 35 80 85zM495 607c-14 39-5 73 24 95 20-30 10-68-24-95zm-195-76c-30-16-69 1-90 39 37 10 70-6 90-39zm125-229c17-35 9-69-22-93-20 32-11 70 22 93zM308 440c-21-31-55-39-94-22 26 32 62 40 94 22zm-28 232c39-6 67-43 57-77-38 14-59 42-57 77zm249-483c-29 26-36 57-30 96 37-19 49-58 30-96zM351 371c-6-38-28-60-70-66 6 42 33 67 70 66z"/></svg>