<svg width="64" height="64" viewBox="0 0 1000 1000" xmlns="http://www.w3.org/2000/svg"><path d="M983 560c22-22 23-42 1-64-85-86-171-173-257-259-18-18-18-17 0-36l2-1c24-25 25-54 1-79-22-23-44-44-66-66-28-29-56-29-84-1-43 42-85 84-127 127-6 6-10 7-17 0-21-22-42-44-64-65-18-19-41-19-60-1l-58 58c-18 19-18 41 1 60 23 23 46 47 69 70 6 5 6 8 1 15-27 41-22 94 14 130 33 34 88 39 129 12 6-4 9-3 14 2 21 22 43 44 65 65 18 18 40 18 58 0 20-20 40-39 59-59 18-18 18-40 1-58l-57-57c-17-17-17-17 0-33 1-2 3-3 4-4 6-10 11-7 17 0 68 68 136 137 204 205 6 6 4 9-1 14-103 102-206 204-309 307-4 4-9 6-16 6-23 0-46-1-68 0-24 0-39 15-41 38-1 11 0 23 0 34 0 31 15 46 45 46h108c62 1 124 1 186 1 26 0 42-17 42-43 0-10-1-21 0-31 3-23-15-46-43-45-13 1-27 0-42 0l10-10c93-93 186-186 279-278zm-712 2c-20-14-37-32-51-51-4-6-6-6-11-1l-97 97c-8 8-13 18-13 28 0 19 11 37 28 44s33 4 47-9c33-32 65-65 98-97 5-5 4-7-1-11zm-81-109c-6-18-11-38-12-57-2-22-2-22-23-17-41 11-83 22-125 34-21 6-33 26-29 46 3 24 20 40 43 40 3 0 7 0 10-1 44-12 88-23 132-35 6-1 6-4 4-10zm138 141c-6-3-7 1-9 6-11 43-23 86-35 129-6 23 6 46 29 53 26 8 49-4 56-29 3-10 6-21 9-32 10-37 20-74 30-112-28-1-54-5-80-15z"/></svg>