<svg width="64" height="64" viewBox="0 0 1000 1000" xmlns="http://www.w3.org/2000/svg"><path d="M976 610c-5 0-10-1-13-7-41-81-83-162-125-243l-3-6c18-3 35-9 51-16 22-10 31-32 22-53-9-22-32-32-54-22-38 17-74 17-110-4-3-1-5-2-8-4-55-27-113-40-174-43-11-1-23-2-34-2 30-11 51-40 51-74 0-44-35-80-79-80s-79 36-79 80c0 34 21 62 51 74-9 0-18 1-27 1-69 4-135 19-196 52-34 17-67 16-100 1-23-10-47-2-57 19-9 21 0 44 23 56 15 7 32 12 50 15-2 4-4 8-6 11-40 78-80 156-120 233-4 9-9 14-18 12-10-2-16 2-21 10v6c16 57 58 86 111 103 70 23 140 20 207-11 26-12 47-29 64-52 8-11 14-24 17-38 2-11-4-19-14-18-15 2-21-5-27-17-39-76-78-151-117-226-6-12-6-12 8-14 29-4 57-13 85-24 28-10 56-22 86-25 13-1 13-2 13 12 0 161 0 322 1 482 0 8-1 11-10 12-30 4-54 29-57 59-1 7-4 8-9 8-19-1-38-1-57-1-39 0-67 27-68 67h534c-1-37-30-65-68-66-19-1-38-1-57 0-6 0-8-1-9-8-3-31-28-56-58-59-6-1-8-2-8-8V311c-1-8 3-8 9-7 26 2 51 10 75 19 35 14 70 27 107 31 10 1 4 6 3 10-28 54-57 108-85 163-13 25-26 50-39 76-3 5-6 8-12 7-3-1-6 0-9 0-11 0-17 7-14 18 5 29 23 51 46 69 32 24 69 37 108 43 56 8 111 2 162-22 28-14 52-32 69-59 6-10 9-22 13-33v-6c-5-10-14-11-24-10zm-677-1H101c33-62 65-123 99-186 34 62 66 124 99 186zm402 0c33-62 65-123 99-186 34 63 66 124 100 186H701z"/></svg>