<svg width="64" height="64" viewBox="0 0 1000 1000" xmlns="http://www.w3.org/2000/svg"><path d="M639 901c-20-11-41-22-62-32-9-4-12-9-11-18V581 307c0-10-2-13-12-11-32 5-62 12-93 18-7 2-10 4-10 12 1 18 0 35 0 53v473c0 8-2 12-9 15-22 11-45 23-67 36-22 12-37 31-36 58 0 17 4 22 21 22h295c19 0 23-5 23-24 0-28-15-46-39-58zm212-666c21-1 41-8 59-21 18-15 30-33 31-57 1-21-11-31-31-26-8 2-16 5-24 8-17 5-33 12-51 11-28-1-57-3-85-4-75-3-150 0-224 12 25-12 42-37 42-67 0-40-33-74-74-74s-74 34-74 74c0 38 27 68 63 73-1 1-3 1-5 1-99 21-192 57-282 101-20 10-40 14-62 15-12 0-23-1-35 2-15 5-21 16-16 32 6 15 16 26 29 34 34 21 69 16 104 3 40-16 80-31 121-44 141-45 285-69 432-73 28 0 55 1 82 0zm-343 0c-13-1-26-13-26-26s12-25 26-25c13 0 25 12 25 25 0 14-12 26-25 26zm469 407c-7-1-10-3-12-10-13-42-26-85-39-128-22-71-45-142-67-213-5-15-15-24-28-24-12 1-23 10-28 25-3 11-7 22-10 33-32 102-64 205-95 307-2 6-4 9-12 10-17 0-24 8-23 25 2 39 20 69 53 89 36 21 75 27 115 26 35 1 69-4 102-19 40-19 64-50 67-95 1-18-6-26-23-26zm-271 39h84c4 0 6 1 7 6 4 21 13 40 32 55-65 3-117-23-123-61zm191-40H764c-5 0-11 1-8-8 24-79 49-159 75-243 12 36 22 69 32 102 14 46 28 92 43 137 3 10 1 12-9 12zM316 770c-9-1-12-4-14-12l-72-231c-11-36-22-73-34-110-6-19-23-27-39-19-10 5-14 13-18 23-34 113-69 225-104 338-2 7-5 10-14 11-15 0-21 7-21 22 1 42 20 73 56 93 35 20 73 25 112 25 29 0 58-3 86-13 49-16 80-53 83-102 1-16-5-25-21-25zM67 845c-10-7-18-17-23-28-2-6-1-8 5-8h77c4 0 8 0 8 6 3 21 13 39 30 55-35-1-68-4-97-25zm167-76H100c-7 0-10 0-7-8 24-78 48-156 73-235 0-1 1-2 3-6 14 45 27 88 41 131 11 35 21 71 33 106 4 11 0 12-9 12z"/></svg>