<svg width="64" height="64" viewBox="0 0 1000 1000" xmlns="http://www.w3.org/2000/svg"><path d="M639 625c2 35 0 71 1 106 0 13-4 22-14 31-42 39-102 42-146 3-15-14-26-13-43-7-130 46-260 91-390 137-17 6-21 3-21-15V108c0-18 6-22 23-22 189 1 378 1 568 0 19 0 23 7 23 25-1 103-1 206-1 310v29c22-10 27-23 26-41 0-108-1-216 0-323 1-21-6-26-26-26-204 1-409 1-613 0C5 60 0 66 0 86c1 277 1 555 0 832 0 20 5 24 25 20 159-33 318-65 476-104 45-12 91-20 130-46 15-9 32-20 33-38 2-54 0-108 0-163-19 8-26 19-25 38zM161 888c0-1-1-3-2-4 59-21 119-43 178-65 33-12 67-24 100-37 15-6 26-7 39 6 8 8 19 12 33 20-118 27-233 53-348 80zm834-634c-7-14-11-28-26-34-14-6-26 1-37 11-62 54-125 108-187 163-23 20-49 38-69 63 23 9 35 27 44 49 35-30 69-59 103-89 4-3 10-12 13-6 8 22 15 4 20 0 39-32 76-65 114-99 17-15 41-26 25-58zm-443-51H113c-11 0-24-4-23 16 0 18 12 14 22 14h439c11 0 24 5 24-15 1-19-12-15-23-15zm3 120H111c-11 0-21-1-21 16 0 18 12 15 22 15h441c10 0 22 3 22-15 1-16-9-16-20-16zm20 138c1-19-12-16-23-16H113c-11 0-24-3-23 16 1 20 14 15 25 15h436c10 0 24 5 24-15zm100-4c-44 32-83 71-125 107-39 32-38 32-3 70 9 10 14 12 25 3 49-44 98-87 148-131-21-4-41-27-45-49zm45 49c0 1 0 1 1 1l-1-1zm-45-50l1 1-1-1v1h1l-1-1zM455 709c-17-3-24 13-37 16-5 6-9 12-14 17 38-16 87-10 106-59 2-3 6-7 9-8 19-10 18-20 3-33-4-3-8-8-11-13-8-11-15-16-26-2-8 11-21 19-36 20-6 0-10 3-13 9-13 25-26 51-41 80 10-6 16-9 22-12 5-12 22-16 19-34-2-7 7-12 15-11 9 0 14 5 15 14 1 8-4 17-11 16zm-321-11c39-13 78-26 117-38 36-12 36-12 25-47-52 16-104 33-155 48-13 4-20 10-15 25 5 17 15 17 28 12zm142-85zm-188 0c-5 1-10 3-17 5 9 10 15 19 23 26 5 5 1 17 12 16 12-2 10-13 12-20 12-42 45-65 88-59 18 2 32 10 45 23 3 4 7 8 12 5 4-2 9-3 7-9-6-14 3-29-4-46-34 25-58 14-70-26-5 5-6 7-8 9-20 32-20 33-56 21-19-6-14 7-13 14 6 26-5 39-31 41zm210 90c6-1 11-3 19-6-8-9-14-18-22-25-6-4-2-17-13-16-12 2-11 13-13 22-11 38-42 59-82 57-20-1-36-10-50-24-3-3-7-7-13-3-3 2-7 3-5 9 5 13-4 28 4 45 35-29 56-10 70 26 5-8 8-11 10-15 10-24 25-33 50-18 17 11 17-1 15-13-4-24 4-38 30-39zm-22-90zm16 32c9-9 18-16 23-28-14-3-26-9-39-4 14 5 10 20 16 32zm259 7c-14-18-28-35-45-50l-5 5 45 50 5-5z"/></svg>