<svg width="64" height="64" viewBox="0 0 1000 1000" xmlns="http://www.w3.org/2000/svg"><path d="M37 515c1-8 2-16 5-23 1-1 1-2 2-4 6 6 11 12 15 19 10 14 19 29 21 47 2 12 1 23-5 35-5-15-11-29-16-43h-1c3 12 6 24 10 36 1 4 0 8-2 13-6-9-12-18-17-27-6-12-11-23-12-36 0-1 0-1-1-1l1-16zm801-347c19 4 37 8 55 12 9 2 18 3 27 5 2 1 5 6 4 8s-3 1-4 1c-5 0-5 0-4 5 12 41 23 82 35 123 1 5 3 6 7 5 6 0 6 1 4 6-3 9-9 15-16 20-15 10-31 13-49 12-14 0-28-4-40-12-7-5-13-12-15-21-1-4-1-5 4-5 4 1 5-1 6-4 14-42 28-83 41-124 2-5 2-5-3-5H772c-5 0-5 0-3 5l36 126c1 4 2 6 6 5 3-1 3 1 3 4-3 10-10 17-19 23-14 9-31 12-48 11-13-1-26-4-38-12-7-5-13-11-16-20-1-6-1-6 4-6s6-1 8-5c10-33 21-66 32-99v-2c-2-1-2 0-3 1-14 13-30 24-47 32-7 4-12 4-19 2-28-6-56-15-84-23-3-1-7-2-10-3 5 13 0 25-3 37-5 17-5 34-3 52 0 5-2 9-3 14-1 6-1 12-3 18-2 5-4 9-10 10-2 0-2 1-2 3 2 5 3 10 7 15 10 15 15 32 18 50 7 35 7 70 6 106-2 38-7 77-12 115-6 39-12 79-18 118-2 12-4 24-5 36-1 5 2 10 3 16 2 15 6 30 5 45 0 4 0 7-1 11-1 1-1 2 0 3l3 3c2 5 2 8-2 12-3 3-7 5-12 5-11 0-22-2-32-6-1 0-3-1-4-1-20-2-40-1-58 10-7 4-16 7-25 8-5 0-8-1-10-7-1-1-2-1-3-2-2-1-4-2-5-4-5-3-6-6-2-11 4-6 4-12 5-19 0-9 1-17 1-26 0-3 0-6-2-8L264 571c-8-16-17-31-25-46-1-3-2-3-5-2-12 6-24 12-37 17-1 1-3 3-5 1-1-2-2-3 0-5 12-12 23-24 34-35 3-3 3-5 1-7-1-1-1-2-1-3-1-3-3-4-6-1-1 1-2 1-4 1-9-1-19-9-22-18v-4c4-6 2-12 1-17 0-3 0-5 2-6 3-2 3-5 1-8-3-5-5-10-8-15-1-4-4-6-8-7-8-1-7 0-6-8 4-18 16-22 32-18 2 1 2 2 2 3-2 12 5 21 10 31 1 1 2 1 3 0l18-9c3-2 4-5 6-8 1-1 2-3 3-5 14-36 39-66 60-98 5-7 7-16 11-24 16-34 34-68 54-100 8-12 20-17 33-18s23-5 31-15c5-5 6-11 8-18 0-1 0-2-2-2-4-1-9-2-13-3-3-2-5-3-7-6l-1-1c-11-3-11-13-12-22-1-6 1-12 1-19 1-10 2-20-1-30-1-2 0-4 1-6 4-6 7-12 11-17 8-7 16-16 26-21 7-3 13-1 20 2 2 1 3 1 6 0 15-7 28-4 40 8 4 5 9 11 13 16 6 8 8 17 5 27-1 0-1 1-1 1-4 7-4 14 2 20 2 1 2 3 1 5-1 9-1 19-6 28-1 5-2 9-6 11-6 3-11 4-17 4-7 0-8 1-6 8 1 4 4 7 7 10 8 10 19 13 31 15 13 3 26 7 39 10 5 1 9 3 13 7 5 4 11 8 16 12 7 7 17 8 25 12 13 5 27 10 40 15 2 1 4 1 7 0 23-13 46-26 68-41 3-3 6-6 9-10 4-5 8-10 13-15 6-6 13-11 22-12 3-1 7-2 10-3 3-2 5-1 7 1 2 1 4 2 5 3 8 8 17 15 26 21l3 3c4 4 4 6-4 8zM299 465c3 6 1 10-3 14-9 7-17 15-25 23-2 1-2 2-1 5 11 20 21 41 32 61 17 35 35 69 53 104l50 97c0 1 0 2 2 2-1-7-3-14-4-21-6-33-12-67-17-101-4-33-7-66-9-98-2-34-2-67 1-100 1-7 1-14 5-21 10-20 20-39 30-59 1-3 2-4-2-5-12-2-15-8-13-19 1-7 3-13 1-20-3-11-6-22-8-33l-6-21c-2 2-4 4-5 6-17 21-31 43-46 66-1 0-2 1-2 3-2 12-9 23-17 33-12 16-26 30-39 44-8 10-15 20-16 33-1 5-3 11-4 16-1 3-2 5-4 5-1 0-3 0-2 1 0 2 1 4 3 5 1 2 2 0 3 0 6-3 12-5 18-8 9-4 17-8 25-12zm455-135h38c6 0 6 0 4-5l-27-96c-3-9-5-17-7-26-1 0-1-3-3-1-3 3-8 6-10 11-12 38-25 76-38 113-1 3 0 4 3 4h40zm148-3h38c4 0 4-1 3-4l-36-126c0-1 0-3-2-3-3 0-3 2-3 3-14 42-28 84-41 127-2 3-1 3 2 3h39zM445 845l45-5c3 0 3-2 4-4 12-29 21-60 28-91s12-62 15-93c3-22 5-44 7-66 1-20 2-40 4-60 2-30 1-59 0-88-1 2-1 4-1 6-1 24-2 49-3 73-1 27-3 54-5 81-3 28-6 56-11 84-5 30-12 59-23 87-13 31-29 59-60 76zm35-798h-5c-19-1-37 2-55 9-2 1-4 1-4 3-1 4-1 8-2 12 0 2 1 3 3 2 9-2 18-3 27-4 26-1 51-1 76 2 1 0 2 1 3 0 0-3 1-5 1-8 0-2-2-2-4-2-12-5-25-7-38-9 13 0 26 1 38 6 5 2 5 2 6-4 2-4 0-4-3-5-5-2-10-3-15-5-30-10-60-8-89 5-2 0-4 1-3 3s3 0 4 0c18-6 36-8 55-7 2 1 3 0 5 2zm-63 276v2c0 8 3 16 3 24 0 1 1 1 2 1 11 2 21 6 31 8 5 1 10 2 15 0 28-14 50-35 66-62 13-24 22-50 29-77 1-7 3-15 5-22-1 1-2 3-2 4-10 32-21 63-41 91-17 24-38 44-67 54-3 2-6 1-9 0-12-6-22-13-32-23zm-6 507c0-9-4-17-8-24-36-76-72-151-108-226-10-22-21-44-31-66-1-1-1-2-2-2-3-1-6 4-5 7 17 34 33 67 50 101 29 59 59 118 88 177 5 11 11 22 16 33zm142-646l-6 4c-29 18-60 27-95 22-22-3-42-12-57-28-2-2-3-6-5-6-2-1-5 2-7 4-6 3-6 3-1 9 18 22 43 31 71 31 27 1 52-5 75-18 9-5 18-10 25-18zm-76 586c-3-1-5-1-8 0-8 1-16 3-24 5-3 0-5 0-7-3-4-8-8-16-11-25-10-25-15-52-20-79l-7-34c-1 2-1 3-1 4 3 24 6 48 11 72 6 30 15 59 28 87 1 2 2 3 4 2 14-7 26-17 35-29zm-72-370c7 12 13 25 21 36 6 9 14 17 23 24 3 1 4 1 6-1 8-7 16-13 24-20 9-7 16-17 23-26-1 1-2 1-3 2-9 8-18 15-26 23-4 4-6 4-10 1-17-12-35-22-52-35l-6-4zm138 463c0-2-1-4-2-6l-6-12c-5-6-5-13-4-21 5-27 12-54 16-81 1-8 2-15 2-22-2 7-4 14-5 21-7 35-17 69-33 101-1 4 0 5 3 5 11 2 21 5 28 15h1zm8-571c-5 33-28 49-55 61 6 1 12 1 18 2 5 0 8-2 12-5 14-13 21-29 24-47 0-3 2-7 1-11zm236-115l11-3c-4 0-8-1-11 3zM606 902c-7 8-15 16-22 25-4 4-9 8-15 6 2-8 6-16 10-24 7-15 16-29 30-39 10-7 22-10 34-12 2 0 4-1 3 3-4 19-10 38-22 54-9 12-21 21-36 25 6 1 12 3 18 5 15 5 29 13 41 22 3 2 2 3 0 4-16 13-35 20-56 18-15-1-28-6-42-12-5-2-10-5-15-7-1 1 0 2 0 4v11c0 8-6 12-13 8-3-1-3-5-3-8v-39-13c0-8 6-11 13-8 3 1 3 5 3 8v36c6-9 15-6 22-6 9 1 19 2 28 2h4c-17-3-34-7-51-10 10-9 21-14 34-15 7 0 11-2 14-8 7-10 15-20 22-30h-1zm-232 63c11 0 21-1 31-2 5 0 10 0 15-1 2 0 3 2 6 3v-17-12c0-9 3-11 12-10 3 1 4 4 4 6 1 4 0 7 0 11v44c0 6-1 8-6 8-8 0-10-1-10-8v-16c-4 2-8 3-11 5-13 5-25 10-39 12-19 3-36-1-53-12-2-1-5-4-8-6-2-1-2-2 0-3 17-13 35-23 57-26 1-1 2 0 3-2-26-6-39-26-49-48-5-9-7-19-10-29-1-4 1-5 4-4 20 3 37 11 49 27 11 15 18 31 25 48-6 1-10 0-14-5-8-10-16-18-24-27-1 1 0 2 1 3 8 11 16 22 23 33 2 2 3 2 6 3 12 0 24 3 34 11 2 1 3 2 5 4-17 3-34 6-51 10zm493-320c11-24 29-41 50-55 1-1 2-2 4-2 1 1 0 3 1 5 4 35-11 62-35 86-5 5-10 11-16 16-2-6-1-11 2-17 6-11 12-23 18-34l-13 18c-5 7-9 14-14 20-3 3-6 8-9 12-3-15-5-29-8-43h-1c1 7 1 15 2 22 0 5 0 10 1 15s-2 8-4 11c-1 1-2 1-2 0-11-24-21-49-13-76 3-9 7-17 12-25 2-3 3-2 4 0 10 14 17 28 20 44 0 1 0 1 1 3zm-749 56c-3-4-4-8-4-14 1-12 1-24 2-36l-8 43c-1 0-2-1-2-1-11-14-20-29-30-44-1-1-2-2-4-3l4 7c5 10 10 20 16 30 2 4 0 7 0 12-2-1-4-3-5-5-12-11-23-22-32-35-13-20-17-42-14-65 0-3 2-2 3-1 21 14 39 31 50 54 1 0 1 1 2 2 3-19 11-34 22-49 22 21 22 69 0 105zm749-197l9 24c2 6 2 7-1 13-27-27-35-52-24-87 8 5 15 12 22 21-8-30-1-57 9-84 10 11 17 23 21 37 4 16 3 33 1 50-2 8-3 15-5 24-3-4-7-7-7-12-1-13-2-26-4-39v47c-2 0-2-2-4-2 4 12 4 25-1 38l-15-31-1 1zM87 542c-2-6-2-10 0-15 3-8 5-16 7-24l-15 30c-3-7-4-14-4-21 0-3 1-6 1-9 0-2 2-4-1-6-1-1 0-5 0-7v-39c-3 5-2 9-2 13-1 8-2 16-2 24 0 5-3 9-7 13-2-8-4-16-5-24-2-14-3-28-1-42 3-17 10-31 22-44 11 27 17 54 10 82 2 0 2-1 3-2 4-5 8-9 13-13s5-4 7 2c7 24 3 46-13 66-4 5-8 10-13 16zm664 341c-18 4-36 8-55 12 6-11 15-20 25-26 14-9 29-13 45-15 15-1 31 0 47 3 3 0 3 1 1 3-15 27-38 43-69 48-14 2-29 3-44 3-3 0-4-1-2-3 2-5 5-8 11-10 14-5 27-10 41-15zm-486 12c-18-4-35-9-53-12l32 12 9 3c5 1 8 5 10 10 2 2 1 3-1 3-8 0-15 0-23-1-17-1-34-3-50-11-18-8-31-22-41-39-1-2-1-3 1-3 31-6 61-6 89 10 11 6 20 14 26 25 1 1 1 2 1 3zm-38 33c15-8 30-13 46-16 15-3 30-3 44 3 9 4 17 10 23 18-18 1-35 1-52 2 14 2 27 3 41 4 7 1 10 4 14 9-13 4-25 7-38 9-15 2-30 2-44-4-14-5-24-14-34-25zm393 20c3-5 7-8 13-9 14 0 27-2 41-4-17-1-34-1-52-2 7-9 16-15 26-18 19-7 38-5 58 1 9 2 18 6 26 11 3 1 3 2 1 4-12 13-26 23-44 26-15 3-30 1-45-2-8-2-16-4-24-7zM195 828c-16-7-31-13-46-19l-1 1c3 1 5 3 7 4 9 4 17 9 25 13 6 3 10 7 11 14-4 1-8-1-12-1-20-4-41-8-58-21-16-10-26-26-34-44 34 0 65 4 91 27 8 7 13 16 17 26zm576 13c1-6 4-11 10-14 11-5 22-11 32-18-15 6-29 12-45 19 3-9 7-17 13-23 14-14 31-22 49-26 15-3 29-5 45-4-4 10-9 19-15 27-14 18-34 28-56 34-10 2-20 4-30 5-1 1-2 0-3 0zm-117 64l27-42c-4 4-9 9-12 14-4 5-9 9-12 14-4 6-9 8-16 8 5-13 10-26 16-39 6-11 13-21 22-30 12-11 27-16 43-19 1 0 2 0 2 2-5 27-13 52-31 72-9 11-21 17-34 20h-5zm-333-6c-6 0-11-1-15-6-8-11-17-22-26-32 9 15 18 29 28 44-9-1-17-3-24-7-15-9-24-23-32-38-7-15-11-30-14-46 0-2 0-3 3-3 26 4 46 18 59 41 9 15 15 31 21 47zm-87-50c-5-3-9-6-10-12-5-14-10-27-14-41 3 18 7 35 11 54-6-3-11-6-15-10-11-11-17-25-20-40-4-22-2-43 2-65 7 4 14 9 19 14 16 15 23 33 26 54 2 14 2 29 1 43 1 1 1 2 0 3zm508 0c3-17 7-34 11-51l-1-1-4 14-10 27c-2 6-3 7-10 10-1-11-1-22 0-33 1-13 3-25 7-37 7-18 20-31 36-42 1 0 3-2 3 1 5 25 6 50-1 74-5 16-14 29-29 37 0 1-1 2-2 1zm-610-85c-13-12-24-23-36-33h-1l16 18c3 4 7 8 11 12s4 9 4 14c-25-14-49-28-63-54-6-11-9-23-10-36 0-2 1-3 3-2 25 9 48 22 64 44 7 11 12 22 12 37zm698 0c0-17 7-30 16-42 13-16 42-34 63-39-1 13-4 25-9 37-9 17-23 30-39 40-8 6-16 11-25 16 0-6 1-11 5-16 8-8 15-16 22-24 1-2 2-3 3-5l-36 33zm-26 9c3-13 6-27 9-40h-1c-2 7-5 13-7 20-1 4-3 7-4 11s-4 6-6 8c-2 0-3 1-3-1 0-23-1-46 10-67 7-11 16-20 27-27 2-2 3-2 4 1 4 25 5 49-6 73-4 8-10 15-18 20-1 1-3 2-5 2zm-646 1c-12-7-19-16-24-28-7-17-8-35-6-53 0-5 1-10 2-15 0-3 1-3 3-1 21 12 32 31 36 54 2 13 1 26 1 38 0 4-1 4-3 2-3-2-5-4-6-7-4-12-8-23-12-34 3 14 6 28 9 44zm760-286c4 9 6 17 7 26 3 23-6 43-17 63l-12 18c-2-5-3-9-1-14 3-12 6-24 8-36-5 14-10 29-16 44-3-6-4-12-5-17-2-19 3-35 12-51 6-12 14-23 24-33zm-817 85l-16 33c-5-15-5-29 1-43 6-15 16-26 29-35 2-2 3-1 4 1 8 28 3 52-16 73-3 4-5 7-8 11h-1c-3-4-3-9-1-14 3-8 6-17 9-26h-1zm776 32c-6-11-11-21-16-32v1l9 27c1 4 1 7-1 11 0 1-1 1-2 0-23-26-34-48-23-83 0-2 1-3 3-1 17 12 29 27 33 47 2 9 0 22-3 30zM488 965v26c-1 7-8 11-14 8-2-1-3-4-3-6v-56c0-5 2-7 7-7 7 0 9 1 9 7 1 9 0 18 0 28h1zm-38 0v-26c0-8 4-11 12-9 2 1 3 2 4 4v61c-1 3-2 5-6 4h-3c-5 0-7-1-7-6v-28zm60-3v27c-1 7-7 10-13 7-3-1-3-4-3-7v-52c0-9 3-11 12-10 2 1 3 2 3 4 1 2 1 4 1 6v25z"/></svg>