<svg width="64" height="64" viewBox="0 0 1000 1000" xmlns="http://www.w3.org/2000/svg"><path d="M250 214c71 14 142 30 214 38 10 1 17 2 17 16-1 37 0 74 0 111v243c0 4-2 12 4 13 11 1 23 2 33-1 8-3 4-15 4-22V275c0-12-2-21 15-23 70-7 139-22 208-36 19-3 26-10 23-32-3-24-18-14-27-15H255c-10 0-21-3-20 15 1 12-7 26 15 30zm740 334c-3-4-4-9-6-14-32-83-64-166-97-249-3-8-4-18-18-25 40 103 78 201 117 303-40 0-76-1-113 0-18 1-24-4-23-24 1-82 0-164 0-246 0-8 2-17-4-26-7 8-5 17-5 24 0 84 0 168 1 251 0 16-4 22-20 21-31-1-63-1-95 0-18 1-22-3-14-22 34-84 66-169 99-254 3-7 9-14 6-25-10 6-10 15-13 22-34 86-68 172-101 258-3 6-4 15-8 17-12 7-6 14-1 21 17 25 40 43 70 47 53 6 105 5 157 1 21-2 39-12 55-26s36-29 13-54zm-678 15c-10-5-11-15-14-24-34-85-67-170-100-256-3-7-2-17-14-19-1 9 4 16 7 23 32 83 65 167 97 250 11 26 10 26-15 26-30 0-60-1-90 0-17 1-23-4-23-23 1-82 1-164 1-246v-24h-8v271c0 10 4 22-13 22-40-1-80 0-123 0 20-53 39-102 58-152 18-49 41-96 58-152-12 9-13 17-16 24-34 86-67 172-101 258-2 6-4 15-8 18-14 7-7 14-1 22 22 31 53 48 89 49 41 1 82 1 123 0 38-1 68-19 90-52 3-4 11-10 3-15zm330 295h-28c-46 0-46 0-47-50 0-7 0-14-1-20-6-37-33-61-68-59-34 1-59 28-61 66-1 15-1 30 0 45 0 13-4 19-18 18-18-1-37 0-55 0-10-1-18 0-18 15 0 14 7 15 18 15h277c11 1 15-3 15-15 0-11-3-16-14-15zM156 253c36 0 67-30 68-68 2-39-29-73-66-74-36 0-66 32-67 70s28 71 65 72zm689 0c37 0 66-31 66-70 1-40-29-72-66-71-36 0-65 31-65 68-1 41 28 73 65 73zM472 657c-26 20-22 48-19 79 33-25 65-23 99 1 2-35 4-66-26-84-18-11-37-10-54 4z"/></svg>