<svg width="64" height="64" viewBox="0 0 1000 1000" xmlns="http://www.w3.org/2000/svg"><path d="M276 584h90c-15-28-30-56-45-83-15 28-30 55-45 83zm270 0h90c-15-28-30-55-45-83-15 28-30 55-45 83zM742 70H170C99 70 41 128 41 198v674c0 71 58 128 129 128h572c72 0 129-57 129-128V198c0-70-58-128-129-128zm-61 522c-2 5-3 10-6 14-8 13-18 21-31 27-23 11-48 14-73 10-18-2-34-8-49-19-10-8-18-18-21-31 0-5 2-8 7-8 2 0 3-1 4 0 3 0 4-1 6-4 5-11 11-22 17-34l38-73c1-2 4-4-1-5-17-1-32-7-48-13-11-4-22-8-34-9-3 0-4 0-4 3v221c0 3 1 3 3 4 14 1 25 12 26 26 1 3 2 4 5 4 8-1 17-1 25 0 17 0 30 13 31 29H336c0-17 13-30 31-30 8 0 16 0 25 1 3 0 4-1 4-4 2-14 12-25 26-26 4-1 4-2 4-5V453c0-6 0-6-6-6-14 2-26 6-39 12-12 4-25 8-38 10-6 1-6 1-3 7 17 33 35 67 52 101 3 5 5 8 12 8 5-1 7 3 7 8-2 6-4 12-8 17-7 10-17 18-28 23-31 14-62 15-94 5-23-8-42-21-50-46v-3c2-4 5-6 9-5 5 1 7-1 9-5 18-35 36-70 54-104l3-5c-8-2-16-4-23-8-10-4-15-15-10-25 4-9 15-13 25-8 15 7 30 7 45-1 28-14 57-22 88-23 5 0 8 0 13-1-14-5-23-18-23-33 0-19 15-35 35-35s36 16 36 35c0 15-10 29-23 33 5 1 10 1 15 1 27 2 54 8 78 20 1 1 3 1 3 2 17 9 33 9 50 1 10-4 21 0 25 10 3 10 0 20-10 24-8 3-15 6-23 8l1 2 56 109c2 3 3 3 6 3 5 0 9 0 11 5v3zM831 0H258c-45 0-85 24-108 59 17-8 35-12 54-12h572c72 0 129 58 129 128v673c0 26-8 50-21 70 45-19 75-64 75-116V129C959 58 902 0 831 0z"/></svg>