<svg width="64" height="64" viewBox="0 0 1000 1000" xmlns="http://www.w3.org/2000/svg"><path d="M790 972c-1-5-1-10 0-15 1-16-5-25-22-21-18 3-23-7-22-23v-25c1-9-1-16-11-14-24 4-24-11-24-27 1-132 1-264 1-396 0-37 0-37 35-42 13-2 21-8 21-21s-8-20-20-21H268c-6 0-13 0-20 1-10 2-16 8-16 19-1 11 5 18 15 21 7 2 15 2 22 1 14-1 19 3 19 18v429c0 15-6 19-19 18-12-2-17 4-16 16 1 5-1 11 0 17 3 20-1 33-26 29-12-3-17 3-16 15 0 8 1 15 0 23-4 21 6 26 26 26 87-1 174 0 260 0 89 0 177-1 265 0 23 0 31-7 28-28zM631 793c-30 0-46 16-48 47 0 18-8 20-22 20-41 0-81-1-121 0-15 0-22-2-23-20-2-32-18-46-51-47-15 0-18-6-17-19 0-88 0-175-1-263 0-14 5-18 19-19 35-3 48-16 50-50 1-13 4-18 17-18 44 1 88 1 132 0 13 0 16 4 17 17 3 37 14 48 52 51 14 1 16 7 16 19v260c1 15-2 22-20 22zM329 329h15c116 0 232 0 348-1 8 0 24 7 20-12-8-32-16-64-36-91-17-23-40-32-68-27-12 3-23 3-35 1-23-5-43 0-60 16 7 13 19 13 32 8-3 22 5 40 7 60 2 25-15 30-35 32-46 4-67-3-69-24-1-8 0-17 2-24 4-14 5-28 6-45 13 8 23 4 33-8-17-8-30-20-48-17-19 4-38 4-58 1-26-5-47 9-62 31-11 16-18 35-24 54-13 46-14 46 32 46zm171-142c51 1 95-43 94-94 0-51-42-93-93-93-53 0-96 43-95 94s42 93 94 93zm115 324c-27-5-44-23-51-50-2-12-9-16-21-16-29 0-58 1-88 0-11 0-16 3-19 14-6 29-24 47-53 53-11 2-14 7-14 17 1 76 1 151 0 227 0 10 3 15 14 17 28 5 46 23 53 51 3 12 8 16 20 16 29-1 57-2 86 0 15 0 20-5 23-19 7-26 24-43 50-47 14-3 16-9 16-21V643c0-37-1-73 0-109 0-12-2-20-16-23z"/></svg>