<svg width="64" height="64" viewBox="0 0 1000 1000" xmlns="http://www.w3.org/2000/svg"><path d="M1000 947c-1-11-3-19-17-17-26 5-29-10-28-31 1-8 7-21-5-22-16-3-13-12-13-21-1-96 0-191-1-286 0-20-4-41 29-35 7 1 12-4 12-12-1-8-7-8-13-8H45c-8 0-21-3-22 8-2 15 12 13 22 12 14-1 20 4 19 19v303c0 6 2 15-3 16-26 4-16 23-16 36-1 15-3 24-20 21-32-5-22 18-24 34-4 22 9 21 24 21h939c37 0 37 0 36-38zM312 711v84c0 11-1 18-15 17-16 0-27 11-29 26-1 19-12 22-27 23-26 1-52-5-78-1-8 1-11-3-11-10 1-24-11-37-35-38-10 0-12-5-12-14V621c0-12 6-15 16-15 19-1 30-12 31-29 1-15 7-17 20-17 26 1 52 1 78 0 11 0 17 2 17 15 0 19 11 31 31 31 12 0 14 6 14 17v88zm291-84v163c0 13 1 22-18 23-15 1-26 14-27 31-1 13-9 18-20 16-23-4-47 1-71 1-15 0-24-4-26-21s-12-28-29-28c-14 0-17-6-16-18v-86-81c-1-14 2-21 18-22 17 0 28-12 28-28 1-17 10-17 22-17 19 1 38 1 57 0 19 0 39-5 39 26 0 11 13 20 25 20 17-1 18 8 18 21zm291 84c0 28-1 56 0 84 0 11-1 18-16 18-18 0-29 11-29 30 0 13-5 16-17 16-20 0-41 0-61 1-21 2-38 2-41-26-1-16-17-20-29-21-12-2-15-6-15-17 1-58 1-115 0-173 0-10 2-17 15-17 20 0 32-12 33-32 0-13 7-14 17-14 27 1 54 1 81 0 11 0 16 3 16 15 1 19 12 31 31 31 13 0 15 7 15 17-1 29 0 59 0 88zM119 474c97-1 194 0 290 0 12 0 19-3 18-17 0-31 1-62 0-93-1-22-12-39-32-49-24-13-42-8-56 16-15 26-30 51-47 80-11-24-27-43 1-61 3-2 6-7 2-10-9-10-18-23-30-28-8-4-15 10-22 17-5 5-20 12-8 21 28 20 12 38 2 63-18-31-33-57-49-83-13-23-25-27-49-18-25 10-38 29-38 55-1 30 0 59-1 89 0 14 6 18 19 18zm454-111c-1 32 0 63-1 94 0 13 5 17 17 17h293c11 0 17-3 17-15-1-33 0-66-1-98-1-25-16-42-38-49-20-7-38-7-49 17-13 28-30 53-47 82-16-34-16-34 2-61 8-12-3-15-7-19-22-22-42-19-55 8-3 7 0 10 4 12 28 20 11 39 0 61-17-29-35-55-48-83-11-25-29-23-48-17-25 8-38 26-39 51zm163-64c59 1 107-46 108-104 0-60-47-107-108-108-59 0-108 47-109 105s49 107 109 107zm-471 0c59 0 107-47 107-105 0-60-48-107-109-107-59 1-107 48-108 106 0 58 50 107 110 106zm235-117c47 0 86-37 86-83 0-45-39-83-86-84-46 0-85 38-85 84-1 46 37 83 85 83zm-98 92c49 19 67 57 66 107-1 13 3 20 17 18 7-1 14-1 20 0 22 3 30-5 28-28-2-45 19-77 60-95 15-6 13-12 8-23-8-14-10-29-13-45-2-6 3-15-8-17-10-2-14 5-19 12-12 22-25 43-40 70-3-19-21-30-4-45 4-3 14-8 6-15-7-7-14-21-23-19-9 1-16 12-24 20-4 4-1 8 2 10 21 15 9 29 0 47-15-26-29-49-42-71-3-7-8-10-15-9-9 0-8 7-9 12-2 20-6 39-16 56-4 8-2 12 6 15zM284 618c-16-4-26-16-31-32-1-4 0-11-7-11-24 0-48-1-71 0-14 1-9 18-17 25-4 4-7 11-12 12-31 6-27 30-27 52 1 15 0 30 0 45 0 19 1 39 0 59 0 16-1 32 22 35 7 1 14 8 18 16 6 16 14 28 35 25 17-3 41 6 50-3 17-16 27-40 52-47 2-1 2-8 2-12V637c0-10-2-16-14-19zm580-1c-13-3-24-12-27-26s-11-18-24-16c-11 1-21 0-32 0-19-2-36-1-40 23-1 7-8 14-15 15-30 4-26 26-25 46v91c-1 23-6 49 27 58 6 1 12 9 14 15 9 26 29 24 48 21 18-2 42 8 50-22 3-11 13-18 25-21s15-10 15-21c-1-47-1-94 0-140 0-12-3-19-16-23zm-275 92c0-21-1-43 0-64 0-14 0-25-18-29-12-2-22-12-25-25-3-17-13-17-26-16h-30c-19-2-35-1-40 23-2 11-14 18-26 21-11 2-14 7-14 18v145c0 7-1 14 9 16 20 5 31 18 38 36 1 5 4 10 10 10 22 0 44 0 66-1 13-1 10-17 18-24 4-4 6-10 10-11 32-7 29-31 28-55-1-15 0-29 0-44z"/></svg>