<svg width="64" height="64" viewBox="0 0 1000 1000" xmlns="http://www.w3.org/2000/svg"><path d="M612 263c24 5 48 11 72 16 12 2 17 9 18 21 2 26 7 52 9 78 3 30 25 17 40 19 18 2 13-12 13-21-3-38-7-76-9-115-1-15-7-24-22-29-57-21-113-43-169-66-11-5-14-2-17 9-7 21-13 43-30 59-12-16-12-30 6-40-15-19-30-20-46 0 18 11 17 25 5 41-15-20-23-40-29-62-3-9-6-12-17-8-56 23-113 46-171 67-11 5-18 11-19 24-3 36-6 71-10 107-3 35-3 35 32 34 13 0 19-4 20-17 2-20 7-41 7-61 1-26 8-43 37-44 15-1 29-6 44-10 30-6 31-6 32 24 6 139 10 277 17 415 4 91 2 183 14 274 1 15 7 22 21 22 15 0 19-8 22-23 9-49 8-99 9-149 3-69 5-138 7-207 6 53 5 106 9 159 4 67-3 135 12 202 3 13 9 17 21 18 10 0 18-4 20-16 2-15 6-30 6-45 3-61 4-122 7-183 6-159 13-318 18-477 1-16 7-19 21-16zM501 157c42-1 76-36 77-79 0-42-34-77-77-78s-80 36-80 78c0 43 37 79 80 79zm355 498l-94-174c4-3 7-8 7-13v-40c0-10-8-18-18-18h-24c-10 0-18 8-18 18v40c0 5 3 10 7 13l-94 174h-27c0 60 65 109 144 109s144-48 144-109h-27zm-218 0l92-169h18l92 169H638zM284 482c4-4 7-9 7-14v-40c0-10-9-18-19-18h-23c-11 0-19 8-19 18v40c0 5 3 10 7 14l-94 173h-26c0 61 64 109 144 109s144-48 144-109h-27l-94-173zM160 655l91-169h19l91 169H160z"/></svg>