<svg width="64" height="64" viewBox="0 0 1000 1000" xmlns="http://www.w3.org/2000/svg"><path d="M846 542h-18v-95c0-52-41-95-91-95h-18v-57c0-52-41-95-91-95h-3v-28c0-30-23-55-52-55H427c-29 0-52 25-52 55v28h-3c-50 0-91 43-91 95v57h-18c-50 0-91 43-91 95v95h-18c-51 0-92 42-92 95v227c0 11 9 19 19 19h838c10 0 18-8 18-19V637c1-53-40-95-91-95zM396 185h2c8 0 15-6 15-13 0-3 2-5 5-5s5 2 5 5c0 7 7 13 15 13s16-6 16-13c0-3 2-5 5-5s5 2 5 5c0 7 7 13 15 13s15-6 15-13c0-3 3-5 5-5s5 2 5 5c0 7 7 13 16 13s15-6 15-13c0-3 2-5 5-5s5 2 5 5c0 7 7 13 15 13 9 0 16-6 16-13 0-3 2-5 5-5s5 2 5 5c0 7 7 13 15 13h3v15H395l1-15zm-78 110c0-31 24-57 54-57h256c30 0 54 26 54 57v6c-1 1-3 2-6 2-4 0-8-3-8-8 0-13-13-23-27-23s-27 10-27 23c0 4-4 8-9 8s-9-3-9-8c0-13-11-23-26-23s-27 10-27 23c0 4-4 8-9 8s-9-3-9-8c0-13-12-23-26-23-15 0-27 10-27 23 0 4-4 8-9 8s-9-3-9-8c0-13-12-23-26-23-15 0-27 10-27 23 0 4-4 8-9 8s-9-3-9-8c0-13-12-23-26-23-15 0-27 10-27 23 0 4-4 8-9 8-1 0-3 0-4-1v-7h1zm0 23c1 0 2 1 4 1 14 0 26-11 26-24 0-4 4-8 9-8s9 4 9 8c0 13 12 24 27 24s26-11 26-24c0-4 4-8 9-8s9 4 9 8c0 13 12 24 27 24 14 0 26-11 26-24 0-4 4-8 9-8s9 4 9 8c0 13 12 24 27 24 14 0 26-11 26-24 0-4 5-8 9-8 5 0 9 4 9 8 0 13 12 24 27 24s27-11 27-24c0-4 4-8 8-8 5 0 9 4 9 8 0 13 12 24 27 24 2 0 4-1 6-1v34H318v-34zM208 499c6 3 13 5 20 5 22 0 41-17 41-38 0-7 6-13 14-13 7 0 13 6 13 13 0 21 19 38 42 38 22 0 41-17 41-38 0-7 6-13 13-13s14 6 14 13c0 21 19 38 41 38s42-17 42-38c0-7 6-13 13-13 8 0 14 6 14 13 0 21 19 38 41 38 23 0 42-17 42-38 0-7 6-13 13-13s14 6 14 13c0 21 19 38 41 38 23 0 42-17 42-38 0-7 6-13 13-13 8 0 14 6 14 13 0 21 19 38 41 38 5 0 10-1 15-3v41H208v-43zm693 346H99v-61c6 3 13 4 21 4 31 0 57-25 57-57 0-10 8-19 19-19 10 0 19 9 19 19 0 32 25 57 57 57 31 0 57-25 57-57 0-10 8-19 19-19 10 0 19 9 19 19 0 32 25 57 57 57s57-25 57-57c0-10 8-19 19-19s19 9 19 19c0 32 26 57 57 57s57-25 57-57c0-10 9-19 19-19s19 9 19 19c0 32 26 57 57 57s57-25 57-57c0-10 9-19 19-19s19 9 19 19c0 32 26 57 57 57 8 0 15-1 22-4v61h-1zm0-123c-1 3-2 6-2 9 0 11-9 19-19 19-11 0-19-8-19-19 0-31-26-56-57-56-32 0-58 25-58 56 0 11-8 19-19 19s-19-8-19-19c0-31-25-56-57-56-31 0-57 25-57 56 0 11-8 19-19 19-10 0-19-8-19-19 0-31-25-56-57-56-31 0-57 25-57 56 0 11-8 19-19 19-10 0-19-8-19-19 0-31-25-56-57-56-31 0-57 25-57 56 0 11-8 19-19 19s-19-8-19-19c0-31-26-56-57-56-32 0-57 25-57 56 0 11-9 19-19 19s-19-8-19-19c0-2-1-5-2-7v-87c0-32 25-57 55-57h693c30 0 54 25 54 57v85h1z"/></svg>