<svg width="64" height="64" viewBox="0 0 1000 1000" xmlns="http://www.w3.org/2000/svg"><path d="M770 392l-287 35c-9 1-12 8-5 14l189 189c7 7 17 6 23-1 54-65 87-142 95-222 1-10-6-16-15-15zm-342 91l-36 287c-1 9 6 16 15 15 80-8 158-42 222-95 7-6 8-17 1-23L442 479c-7-7-13-5-14 4zm270-324L494 363c-7 6-5 11 5 10l271-34c9-1 16-9 15-19-8-59-30-114-65-160-5-7-16-8-22-1zM364 493L159 698c-7 6-6 17 1 22 46 35 101 57 161 65 9 1 18-6 19-15l34-272c1-9-4-12-10-5zM789 67l-31 31c-6 6-7 17-1 25 59 73 88 166 82 266-6 114-56 224-141 309-90 90-211 142-332 142-91 0-176-29-243-83-7-6-18-5-25 1l-31 31c-6 6-6 17 1 23 95 81 215 125 342 125 141 0 273-54 373-154s155-232 155-373c0-127-45-247-126-342-6-7-16-7-23-1z"/></svg>