<svg width="64" height="64" viewBox="0 0 1000 1000" xmlns="http://www.w3.org/2000/svg"><path d="M281 243c-26-1-50-5-72 11 22-12 52 40 72-11zM142 366c-7 8-17 15-12 28 5 15 19 13 31 15 15 0 52-47 46-61-4-9-11-16-23-9-15 8-31 13-42 27zm147-66c19-5 27-19 30-36 1-6-1-15-6-13-16 6-25 21-34 35-4 6 2 12 10 14zm-60 87c-12 0-18 10-18 20-1 10 9 16 18 15 10-1 19-6 21-17-2-13-10-19-21-18zm-89-79c14-10 36-18 36-35 0-13-17-30-35-30-21 0-21 21-23 34-2 14 8 25 22 31zm160 79c7-4 11-11 11-20 0-7-47-46-54-44-3 2-6 4-7 7-16 26 14 35 20 54 5 13 20 7 30 3zm443 102c14-14 26-31 17-54-18-52-45-98-93-124-61-34-126-63-190-90-35-15-73-10-109 0-21 5-37 11-30 38 4 12-2 25-10 34-12 15-14 28-1 42 12 15 10 29-1 43-25 34-63 58-100 57-43 0-95 7-129-37 5 32 5 61-2 90-2 12-8 23-4 36 14 49 13 100 14 150 0 37-25 72-34 78-37 26 66 28 69 6 8-65 49-117 69-177 4-14 11-27 28-40 11 55 6 107 8 158 2 27 4 54-29 66-7 3-17 11-8 21 11 10 81-12 83-27 6-52 38-90 62-133 14-27 31-56 64-52 31 4 41 38 51 65 3 7 3 13 4 20 2 21 9 40 20 56 12 18 24 34-11 38-6 1-11 7-12 14-2 8 6 8 11 10 38 13 84-8 99-46 14-35 24-74 51-101 41-44 70-98 113-141zm165 200c-9 1-70 34-70 39 2 16 52 58 69 54 27-7 24-34 31-51-1-24-14-42-30-42zm-65-100c6-3 14-5 12-16-11-9-15-35-36-29-28 7-48 29-57 57-5 17 9 31 21 38 12 8 14-9 20-16 11-14 25-25 40-34zm65 60c-4-28-37-45-61-31-18 10-30 28-39 45-9 16 5 24 16 33 25-20 54-28 82-39 2 0 2-5 2-8zm-285 40c-5 9-8 18-12 28-7 17 1 19 15 15 33-8 36-21 11-59-11 3-11 11-14 16zm169-161c7-4 15-8 9-18-5-8-12-20-23-16-22 6-30 28-42 45-9 13-3 24 10 32 14-15 27-33 46-43z"/></svg>