<svg width="64" height="64" viewBox="0 0 1000 1000" xmlns="http://www.w3.org/2000/svg"><path d="M351 141c-3 8-11 17-18 21-4 2-9 4-13 6-31 17-60 39-87 65-26 26-48 56-65 87-2 4-4 8-6 13-4 7-13 14-21 18-46 22-79 80-79 149s33 127 79 149c8 3 18 11 21 18 2 4 4 9 6 13 17 31 39 60 65 87s56 47 87 64c4 3 9 5 13 7 7 3 15 13 18 21 22 46 80 79 149 79s127-33 149-79c3-8 11-18 18-21 5-2 9-4 13-7 31-16 61-38 87-64 26-27 48-56 65-87 2-4 4-9 6-13 4-7 13-15 21-18 46-22 79-80 79-149s-33-127-79-149c-8-4-17-11-21-18-2-5-4-9-6-13-17-31-39-61-65-87s-56-48-87-65c-4-2-8-4-13-6-7-4-15-13-18-21-22-46-80-79-149-79s-127 33-149 79zm177 226c7 1 7 7-2 11-7 3-16 5-26 5s-19-2-26-5c-8-4-9-10-2-11 4-1 8-2 12-2 11-2 21-2 32 0 4 0 8 1 12 2zm20 21c7-5 19-7 26-3 8 6 15 12 22 19 7 6 13 14 18 22 5 7 3 19-2 26-9 13-15 29-15 48s6 35 15 48c5 7 7 18 2 26s-11 15-18 22-14 13-22 18c-7 5-19 3-26-2-13-9-30-14-48-14-19 0-35 5-48 14-7 5-19 7-26 2-8-5-15-11-22-18s-13-14-18-22c-5-7-3-19 2-26 9-13 14-30 14-48s-5-35-14-48c-5-7-7-19-3-26 6-8 12-15 19-22 6-7 14-13 22-18 7-5 19-3 26 2 13 9 29 15 48 15 19-1 35-6 48-15zm85 84c1 4 2 8 2 12 2 11 2 21 0 32 0 4-1 8-2 12-1 7-8 6-11-2s-5-17-5-26c0-10 2-19 5-27s10-8 11-1zM472 633c-7-1-6-8 2-11 7-3 16-5 26-5s19 2 26 5c8 3 9 10 2 11-4 1-8 2-12 2-11 1-22 1-32 0-4 0-8-1-12-2zM367 528c-1-4-2-8-2-12-1-10-1-21 0-32 0-4 1-8 2-12 1-7 8-6 11 2s5 16 5 26-2 19-5 26c-3 8-10 9-11 2zm-42-34v12c0 9-4 21-10 27L209 640c-6 6-15 5-18-3-38-87-38-187 0-274 3-8 12-9 18-3l106 106c6 7 10 19 10 28zm466 146L685 533c-6-6-10-18-10-27v-12c0-9 4-21 10-27l106-107c7-6 15-5 18 3 39 87 39 187 0 274-3 8-11 9-18 3zM133 379c6-5 10-2 8 7-24 74-24 154 0 228 2 9-2 12-9 7-30-24-50-69-50-121s20-97 51-121zm246 489c-5-7-2-11 7-9 74 24 154 24 228 0 9-2 12 2 7 9-24 30-69 50-121 50s-97-20-121-50zm258-59c-87 39-187 39-274 0-8-3-9-11-3-18l107-106c6-6 18-10 27-10h12c9 0 21 4 27 10l107 106c6 7 5 15-3 18zm231-188c-7 5-11 2-9-7 24-74 24-154 0-228-2-9 2-12 9-7 30 24 50 69 50 121s-20 97-50 121zM506 325h-12c-9 0-21-4-27-10L360 209c-6-7-5-15 3-18 87-39 187-39 274 0 8 3 9 11 3 18L533 315c-6 6-18 10-27 10zm108-184c-74-24-154-24-228 0-9 2-12-2-7-9 24-30 69-50 121-50s97 20 121 50c5 7 2 11-7 9z"/></svg>