<svg width="64" height="64" viewBox="0 0 1000 1000" xmlns="http://www.w3.org/2000/svg"><path d="M998 278c-5-49-29-89-63-122-74-73-186-88-277-38l-121 65c-28 16-56 30-83 47-19 12-27 31-23 53 4 23 18 38 41 44 17 5 31 0 45-8 62-33 123-68 185-100 52-26 111-14 150 30 15 17 27 38 24 62-6 49-26 89-72 114-40 21-80 43-119 64-23 13-46 25-68 38-19 12-28 35-23 55 9 39 47 56 83 37 65-35 130-71 195-106 60-33 99-83 117-149 5-17 7-35 11-53v-29c0-1-1-3-2-4zM581 658c-24-11-47-5-66 16-46 50-92 101-138 151-39 43-94 55-146 32-24-11-47-26-53-53-13-49-7-95 30-134l90-99c18-20 37-39 54-60 19-24 11-61-15-78-23-15-52-11-73 12-50 55-100 109-150 164-23 25-40 54-50 86-14 42-14 84-7 127 4 28 13 54 31 76 47 60 109 90 180 92 68-1 124-22 168-68 52-54 101-109 151-164 5-6 11-13 16-19 20-28 9-67-22-81zm-259-58c-21 24-25 53-12 77 22 43 75 49 109 13 83-88 164-176 246-265 13-13 20-29 20-46 0-37-30-68-66-67-22 1-39 10-53 26-63 67-125 135-188 202-19 20-38 40-56 60zm-59-224h15c18 0 28-17 22-33-4-7-10-12-17-15L58 217c-18-9-20-8-29 10-1 2-2 4-3 7-11 24-17 50-22 76-3 13-5 26-4 39 1 8 4 11 12 12 22 1 45 2 67 4 61 4 123 7 184 11zm72-185c4 21 9 42 14 63 3 12 10 19 21 18 11 0 18-7 21-19 0-1 0-2 1-3 13-74 26-147 40-221 2-9-1-13-10-15-17-4-34-4-51-4-20 0-41 1-60 6-12 3-13 6-10 17 11 53 22 105 34 158zm-235-77c42 29 84 59 126 88 9 7 18 14 28 19 11 6 22 0 23-12-1-4-3-8-6-12-33-49-67-97-100-146-4-6-8-8-15-4-24 12-43 29-59 51-5 7-4 11 3 16z"/></svg>