<svg width="64" height="64" viewBox="0 0 1000 1000" xmlns="http://www.w3.org/2000/svg"><path d="M633 472c53 4 107 3 160 4 39 0 77 2 115 11v-1c-7-11-14-23-21-34-12-18-26-35-43-50-16-14-34-21-55-24-37-4-73-2-110 0-45 2-90 6-134 12-2 0-3 0-5-1 119-36 239-38 361-15-15-43-39-78-78-101-40-22-82-27-126-22 7-6 16-8 24-9 26-3 51-2 76 1 5 1 9 0 13-2 11-6 22-12 34-19-57-50-124-62-196-59 4-4 11-7 24-8 12-2 24-3 36-4 8 0 14-3 20-6 9-6 19-11 29-18-55-21-110-17-165-6 2-5 6-6 10-7 9-4 18-6 28-8 11-2 20-7 29-17-15-5-30-5-45-6-25 0-50 4-75 9-1 0-3 2-4 0-2-1 0-3 0-5 4-6 8-11 12-16 2-3 5-5 6-9h-16c-10 3-21 4-32 8-22 8-41 19-59 36-2-9 0-17-1-25-12 4-23 11-32 19-39 30-62 70-73 117-2 8-4 10-12 10-12-1-24-1-36-1-3 0-6 1-9 3-18 16-37 32-55 48-2 2-4 4-4 6-1 8-7 12-13 15-33 15-65 30-97 47-10 6-16 14-19 24-1 3-1 5-2 7v20l33 63c3 5 5 7 11 8 29 2 58 5 88 8 4 0 5 3 6 7 3 14 3 14-12 14-22 0-44-1-66-1-6-1-7 1-5 6 4 12 11 24 11 35 0 12-7 24-11 35-2 4-2 6 4 6 8 0 15 1 23 1 5 0 7 2 8 7 3 10 7 21 11 31 5-2 8-6 12-10 3-3 5-3 8 1 4 7 10 14 15 22 2 3 3 3 6 0 11-12 21-24 32-36 1-1 2-2 2-3-1-10 6-8 11-7 6 0 10-2 15-6 22-23 44-46 67-69 3-3 4-6 2-11-3-12-6-24-8-35-1-4-1-7 3-8h2c18-3 24-15 29-31 6-20 7-37-3-55-7-11-11-24-17-36 0-2-3-4 1-6 9-6 19-11 30-17-3 8-4 15-6 22-2 5-1 9 1 14 8 17 15 34 22 50 2 4 2 8 1 12-6 15-12 29-17 45-2 8-6 12-15 14-9 3-9 4-7 14l6 24c1 5 1 8-3 12-29 31-57 62-86 94-3 2-5 4-9 3-7-2-11 1-15 6-34 40-61 83-76 134-16 60-14 119 14 175 2 3 3 7 6 9 3-11 6-23 10-34 14-37 35-70 64-97 4-3 5-6 2-10-22-35-25-73-19-113 1 0 1-1 2-2 4 16 7 32 13 47 11 29 25 55 44 79 3 4 5 4 8 0 13-15 26-31 40-46 3-4 2-6 0-10-18-23-29-48-35-76-2-12-4-23-1-35l3 8c17 40 37 77 66 109 14 14 29 26 47 35 4 2 6 1 8-3 6-16 11-31 18-46 2-5 1-8-3-11-27-24-51-50-68-82-7-13-12-27-14-42-1-2-1-5-1-9 3 3 4 6 5 8 33 64 82 108 148 135 15 6 31 10 46 13 5 1 8 1 9-6 1-19 4-38 6-57 1-7-1-10-7-13-32-17-63-36-91-59-21-18-40-39-55-63-2-4-3-8-5-12 75 74 160 127 265 145-8-29-8-58-8-86 0-7-2-9-8-10-39-8-76-19-112-34-39-17-76-38-105-69-5-5-9-11-13-16-1-2-2-3-3-6 7 5 14 11 21 16 63 47 134 73 212 83 39 5 79 7 119 10 26 3 51 6 76 15 2 1 4 2 6 2v-3c-18-37-48-62-78-88-2-2-5-2-7-2-43 0-86-2-129-6-54-6-107-15-158-33-9-4-18-8-25-14 9 2 17 6 26 9 32 9 64 13 97 14zm-489-86c-5 12-10 24-15 38l-15-31c-1-2-2-4 2-5l25-7c5-1 4 2 3 5zm99-40c-2 2-3 2-4 0-6-8-12-16-19-25l60-18v1c-12 14-25 28-37 42zm217-73c-8 19-12 22-33 19 15-27 16-56 19-86-7 4-12 7-17 11-11 7-22 15-33 22-2 2-5 3-7 1s-1-4 0-6c3-8 9-14 14-20 13-15 28-29 44-39 15-10 19-8 22 8 6 31 4 61-9 90z"/></svg>