<svg width="64" height="64" viewBox="0 0 1000 1000" xmlns="http://www.w3.org/2000/svg"><path d="M580 368c3 13 6 27 8 41 11 57 3 111-21 163-17 37-39 70-64 102-18 22-35 44-48 69-17 34-24 70-22 108v3c-2-1-2-3-2-4-10-23-15-47-17-72-2-32 2-64 13-95 2-7 4-13 7-19s7-11 10-17c-6 3-12 8-18 13-23 21-35 47-41 77-7 33-5 66 1 98 6 35 16 69 32 101v1c-9-5-16-10-24-16-30-25-46-57-52-95-3-17-5-33-5-50 0-33 9-65 25-94s38-52 62-73c24-20 49-37 74-55 14-10 28-21 40-34 3-4 7-9 9-14-6 7-14 14-22 20-22 17-47 32-70 49-28 19-55 40-77 66-24 29-41 61-47 99v1c-4-8-7-16-8-24-4-25-1-48 5-72 8-31 20-60 36-88 14-25 36-45 59-62 15-11 30-22 44-34 17-14 30-31 35-53 5-20 2-39-4-58-1 2 0 3 0 4l1 5c4 35-7 65-32 90-15 14-31 25-47 36-17 12-35 24-49 40-2 3-4 6-7 8 3-6 3-12 3-19-1-4-1-8-3-12-2-5-5-7-10-5-8 2-14 6-18 13s-9 15-11 24c0 2-2 3-4 4-11 5-22 11-33 16-10 4-14 3-19-7-5-9-10-19-15-29l-3-9c-2-10-1-12 8-17 2-1 3-2 1-3-2-2-4-5-5-7-5-8-4-15-1-23 2-5 5-6 9-2 3 3 6 6 8 9 5 6 10 11 18 13h4c9-5 18-11 27-18 11-9 13-22 11-35-1-7-3-14-7-21-8-12-20-17-34-13-8 3-15 6-22 10-4 3-4 7-5 12-1 6 0 13 0 19 0 8-2 10-10 6-7-4-11-9-12-17 0-1 0-3-2-4-1 0-3 1-4 2-5 4-9 3-13 1-14-7-23-18-30-31-1-3-2-4-4-5-3-2-5-4-7-6-8-8-8-17-1-26 4-5 10-9 17-12 33-15 66-28 98-45 9-5 18-11 25-20 17-18 38-30 61-40 2-1 3-2 5-3-10 3-20 7-29 12l-15 9c-2 1-3 1-4-1-15-39-11-78 20-109 17-17 49-36 71-42-15 16-27 34-36 54-8 19-13 40-16 61 9-44 26-84 61-114 23-20 60-37 87-40-1 4-2 7-4 11-4 10-9 19-15 28-1 0-1 1-2 2-28 20-47 48-62 79-3 6-5 13-8 19 0 0 0 1 1 2 1-4 3-7 4-11 16-31 35-58 63-79 25-18 52-28 82-32 13-2 26-2 39-2v2c-7 13-13 25-22 37-1 2-3 3-5 4-15 5-28 11-40 20 1 1 1 0 2 0 41-25 85-28 130-13 48 16 85 47 107 93l3 6c-9 1-18 1-27 1-15-1-30-2-44-3-3 0-5-1-8-2-14-6-30-11-46-13-3-1-4-1-5-5-2-9-7-15-15-20-14-8-28-10-44-9-34 2-64 15-88 40-9 10-17 20-19 34v2c0 3-1 7 2 9 2 1 5-3 7-5 13-11 25-23 40-33 19-14 41-20 65-18 6 1 13 2 19 6 9 6 13 15 10 25-8 22-23 37-44 45-30 10-58 6-84-14 2 3 4 4 6 6 11 9 23 14 37 16 26 4 49-3 70-20 10-8 19-17 27-27 6-9 11-18 12-29 0-3 1-3 3-2 28 5 53 17 74 35 42 34 67 79 76 132 3 19 3 38-2 57-1 0-1-1-1-2-3-7-8-13-14-18s-13-9-20-13c-5-3-10-6-14-9-6-3-11-8-14-15-16-35-41-63-73-85l-3-3c-1 1 0 2 1 2 38 28 61 66 73 111 16 57 11 114-7 170-7 19-15 38-26 55 0 1 0 2-1 2 0-17-2-32-6-48-3-11-7-22-12-32-2-3 0-5 0-8 8-54 4-107-18-157-11-25-26-47-46-64-1-1-2-2-4-3 6 6 12 12 17 19 22 29 36 63 44 99 7 34 7 69 1 104-5 23-16 43-32 61-17 20-38 36-59 51-23 17-48 33-70 52-15 14-29 29-41 47 0 1 0 1-1 2 1-9 4-18 8-26 11-23 25-45 39-67 10-16 22-33 28-51s16-34 21-51c12-34 16-69 12-104-3-29-10-57-20-84-1-2-2-3-2-4zm-68 61c-10 19-24 35-40 49-9 9-19 18-30 27-21 19-42 39-59 62-26 35-41 75-44 119 2-5 3-10 4-15 10-35 29-65 53-93 19-23 40-43 61-64 15-16 30-32 42-51 7-10 12-21 13-34zm1-235c2 0 3-1 4-2 40-33 86-46 138-36 28 5 54 16 79 31 1 1 2 2 4 3 0-2-1-2-1-3-32-39-73-54-123-47-28 4-53 15-75 32-9 6-18 14-26 22zm-192 98c4 2 7 2 11 2 2 0 3 0 2 3 0 5 1 11 2 17 1 5 1 5 6 3 12-4 21-10 30-18 4-3 7-5 12-5 2 0 4 0 7-1 22-4 40-16 58-31-2 1-4 1-5 2-19 5-37 10-57 11-12 0-25 0-37 1s-22 6-29 16zm286 319c16-23 30-48 38-75 14-42 16-84-1-126 0-1 0-3-1-3 0 1-1 2 0 3 1 28 1 56-2 84-3 26-8 51-16 76-5 14-11 28-18 41zm58-356c65 25 106 74 137 135-9-42-30-74-62-100-22-18-46-31-75-35z"/></svg>