<svg width="64" height="64" viewBox="0 0 1000 1000" xmlns="http://www.w3.org/2000/svg"><path d="M931 347c-13-4-26-9-38-15-3-1-7-2-7-6s-3-6-6-9c-6-5-13-10-20-14-2-2-3-3-2-6 6-17 1-28-14-37-22-12-46-17-70-17-10 0-19 0-28 3 5 1 11 2 16 3 15 2 30 5 43 11 6 3 10 6 13 13-26-11-53-15-81-15s-55 5-79 19h9c8 0 15 0 23 3 7 3 8 7 2 12-5 4-11 6-17 7-18 3-35-1-51-8-2 4 0 8 2 12 4 11 12 19 23 24 1 1 4 2 4 4 0 3-3 3-5 4-4 0-8 1-12 2-18 3-35 6-51 16-9 5-16 12-21 22 14-4 27-7 41-6 9 1 18 4 22 13s0 16-5 23l-7 7c-13 11-28 17-45 22-4 1-8 3-14 2 32-11 54-27 59-44-19 11-39 21-60 27-29 9-57 12-86 4-37-11-75-12-113-4-23 4-45 12-58 33-8 14-20 20-34 26l-6 3c-34 15-68 30-106 34-31 4-57-6-69-38-6-17-5-33 8-46 12-13 28-19 45-18 21 1 36 11 39 28 5 23 1 28-21 26-1 0-2 0-2-1-14-2-19-7-13-23 3-8 8-14 15-19-18-1-33 7-42 23-6 11-8 23 0 34 4-6 7-12 15-14-2 5-2 9-1 13 0 12 7 23 16 26 3 0 7 3 6-4-2-8 1-16 7-22 11 15 31 21 42 13-12-9-15-18-10-28 10-19 6-38-11-51-24-18-63-19-88 0-15 11-25 25-26 44 0 30 14 52 41 65 25 13 52 12 79 9 31-3 62-12 91-23 4-1 9-4 13-3s3 8 5 11l3 6c5 13 13 25 20 37-15-12-25-29-35-48v12c5 22 16 40 29 57 2 4 4 7 2 11-5 15-12 29-25 39-3 2-4 4-4 8 0 3 2 7 4 10 4 9 10 18 13 28 2 6 1 10-1 15-4 12-12 21-24 27 9 2 16-2 22-6-1 6-5 10-7 16-2 7 0 12 8 13h17c12 0 24-1 35 5 6 4 12 0 16-4 5-4 9-9 8-16-2-8-6-14-16-15-1 0-3 0-3-1-4-8-10-6-16-4-4 2-6 1-8-3-3-5-4-12-5-18-2-22-1-42 20-55 8-4 16-9 9-22 6 4 6 5 7 8 4 15 3 29-4 43-5 12-5 12 5 20s20 15 28 24c8 10 12 20 6 33-4 8-1 13 9 14 17 2 35 2 53-1 10-1 11-3 5-13v-3c-1-4-3-6-7-7-2 0-5 0-6-2-4-5-10-5-15-4-7 1-11-2-14-7-3-4-5-7-6-12-6-15-7-32-5-48 1-5 3-8 6-11 32-26 46-61 49-101 1-16-1-32-4-49 15 25 16 51 11 79-5 29-22 50-41 69 28-12 52-28 64-57 2-4 3-5 7-4 12 6 24 11 36 15 24 9 47 14 72 7 2 0 3 0 5 1 12 6 21 16 25 30 1 3 0 6 2 9 3-6 4-12 3-19-2-10-6-19-11-28-2-3-3-11-2-17 15 21 22 43 16 68-1 3-1 6-1 10 2 8 4 16 4 24 1 9 2 18-2 27-4 8-9 15-19 18 4 3 9 3 13 4-1 4-3 8-4 11-1 6-2 11 6 13 18 5 37 5 55-2 5-2 9-10 5-14-4-5-10-10-16-11-8 0-11-4-12-11s-2-14 0-21c11-25 11-52 21-78 1-2 1-5 2-8 3-10 4-20 5-32 3 9 5 17 8 24 6 14 5 14 19 9 3-1 5-2 8-3 9-3 19-7 29-8 8-1 16 7 14 15-3 13-9 26-24 32 10 4 17-2 25-7-2 8-5 15-11 19-14 11-13 35-6 49 4 6 9 7 15 3 2-2 3-4 6-5 14-5 20-16 16-29-5-14-1-27 5-39 4-10 9-19 11-30 2-6 2-12-5-16-4-2-7-6-11-10-13-14-26-29-42-40-3-2-2-3 1-5 20-13 25-35 18-59-3-8-7-16-11-24 9 5 17 16 21 28 8 23 0 43-12 62 20 0 37-5 52-17 15-11 27-27 17-50v-1c13 15 13 30 2 48 8-7 14-13 16-21 4-12 0-23-6-33-7-11-16-20-25-30-9-9-17-20-21-33-6-19-2-33 14-45-1 3-3 5-4 7-3 9-6 17-4 26 8 30 29 43 59 33 5-1 10-1 15 0 8 1 12 7 17 13 2-9 4-17 5-25 1-3 2-6-3-7-6-1-9-6-11-10-1-3-3-7 0-9 4-4 10-5 14-4s3 6 2 9c0 0 0 1 1 1 3-3 6-6 7-10 0-2 0-3 2-4 10-5 10-15 11-24 0-5-2-8-7-9z"/></svg>