<svg width="64" height="64" viewBox="0 0 1000 1000" xmlns="http://www.w3.org/2000/svg"><path d="M890 467c-13-65-47-115-106-148-29-17-60-26-91-37-37-12-74-24-106-46-44-30-72-71-83-123-1-6-1-12-4-17-1 1-1 1-1 2-1 2-1 5-2 8-11 63-46 110-102 141-26 14-55 24-84 34-33 11-67 21-98 39-47 28-80 67-97 120-4 12-5 25-9 38v10c2 1 3 0 4-2 25-41 60-71 101-95 31-18 64-30 97-44 7-4 15-7 23-11 0 15-2 13 12 9h1c6-2 7-4 2-8-3-4-8-7-10-12h24c5 1 6-1 4-6s-4-9-5-15h12c15-1 15-1 13-16-1-10-1-10 8-6l7 2c4 2 7 2 9-4 2-7 6-13 11-20 7-10 7-10 17-2 2 2 4 3 6 5 4 3 6 2 8-2 3-7 6-14 9-20 5 3 6 7 9 10 7 10 16 19 26 26 4 2 6 2 9 0 11-7 20-15 27-26 2-3 4-7 8-10 4 6 7 13 10 20 2 4 4 5 8 2 3-3 6-5 9-8 4-4 8-3 11 2 6 7 11 14 14 23 2 5 4 6 9 4 4-2 7-3 11-4 3-1 5-1 4 3 0 4-1 8-2 12-1 6 1 9 7 9 7-1 13 0 20 1-2 5-3 9-5 13-3 6-1 8 5 7h23c-1 3-3 5-5 7l-6 6c-1 1-4 2-2 5 1 1 15 6 16 5 4-3 1-7 1-10 1 0 1-1 2-1 7 3 15 7 23 10 32 14 65 26 96 44 41 24 75 54 101 95 1 2 2 3 4 2v-10c-2-3-2-7-3-11zM591 650c-1-2-2-5-5-1-5 8-12 16-8 28 10 30 18 61 22 92 5 43 8 86 7 129 0 13 0 26-2 39h3c23-26 36-57 41-91 4-39 1-76-14-113-11-29-28-56-44-83zm-183 1l-24 40c-26 48-40 99-33 155 5 35 18 66 42 92h3c-1-2-1-4-2-6-3-52-1-103 5-154 4-33 11-65 21-96 4-12 2-21-4-30-3-5-5-7-8-1zm162-516c12-24 30-43 49-62 3-3 7-6 9-10h-7c-3 2-7 2-11 3-36 10-67 36-63 83 1 10 3 20 8 31 3-17 7-32 15-45zM379 71c15 16 31 31 43 50 12 17 19 36 22 57 3 0 3-2 3-3 7-20 9-41 1-62-10-26-32-40-59-47-3-1-7-1-10-3h-7c1 3 4 5 7 8zm388 466c-28-28-60-52-90-77-3-4-5-3-7 2-2 6-4 13-8 19-3 7-2 11 4 16 26 20 48 43 67 70 29 43 44 89 42 141 0 0 0 1-2 1-1-4-1-8-2-13-9-59-34-112-76-155-12-13-25-24-40-33-5-4-9-4-12 3-4 7-7 15-11 22-3 5-2 9 2 13 8 10 17 21 26 31 58 63 87 138 89 224 1 9 0 19 0 30 5-2 6-4 7-6 10-17 19-34 27-51 22-46 34-94 27-146-4-35-18-65-43-91zm-401 10c4-5 5-9 2-15-3-5-5-10-8-16-7-14-8-14-21-5l-1 1c-56 43-91 99-106 168-2 10-4 20-5 29-2-19-2-39 3-58 9-43 31-81 61-114 13-15 28-29 44-41 5-4 7-7 3-13-3-6-5-13-7-20-2-6-4-7-10-3-24 21-49 41-73 62-14 13-26 26-36 43-25 41-29 86-21 132 8 42 25 80 46 116 3 6 7 12 11 18 2-3 1-6 2-9 1-26 1-53 7-79 10-53 31-101 64-143 14-19 30-36 45-53zm435-120c-35-26-74-45-111-66-6-2-6 1-7 5-4 11-9 21-16 30-4 4-5 9-3 14 2 7 6 14 11 20 7 8 16 15 25 22 33 27 68 53 97 85 29 35 52 72 61 118 0 1 0 3 2 4 3 0 3-3 3-4 6-26 10-52 10-78 0-11-1-21-2-32-6-50-29-89-70-118zm-562 75c25-22 52-42 78-64 9-7 15-16 19-28 1-3 2-7 0-11-9-11-16-22-19-35-2-4-4-4-7-2-6 3-11 6-17 9-34 17-67 35-97 58-25 19-45 42-56 71-9 24-14 50-13 76 0 26 4 52 10 78 0 2 0 5 3 5 2-1 2-3 2-5 2-9 4-18 7-26 17-51 50-91 90-126zm389 62c-1-1-2-3-4-3-2 1-2 4-2 5 0 20-9 36-26 46-6 3-5 5-2 9 26 37 50 75 66 118 18 47 28 96 18 147-1 6-3 12-3 20 2-1 3-2 3-3 2-1 3-2 4-3 9-13 15-27 20-41 15-50 13-101 3-151-12-56-39-103-77-144zm-222 58c3-5 3-8-2-11-2 0-3-2-4-3-12-8-20-19-21-35 0-4 0-8-3-12-5 3-8 8-11 12-28 30-48 64-61 103-14 39-18 80-17 122 1 30 8 59 21 86 4 8 9 15 16 22 1-4 0-6 0-9-3-11-5-22-5-33-4-43 6-84 20-123 16-43 40-82 67-119zm161-9c-19 9-35 2-50-9-10-7-14-16-14-29 1-11 5-17 15-21 13-6 26-11 38-18 8-5 11-14 12-23-3-1-4 1-6 2-7 5-15 8-24 7-5 0-10 1-15 4-15 6-31 6-46 0-5-3-10-4-16-4-9 1-16-1-23-7-1-1-3-3-5-3-1 3-1 5 0 8 3 9 9 15 17 20 14 6 27 11 40 18 4 2 6 5 6 10 0 6 0 12 1 18 0 4-1 7-4 10-6 4-11 9-17 13-12 8-25 11-39 5-10-4-14 0-13 11 1 4 2 8 4 11 5 10 8 10 16 3 33-31 78-31 111-1 9 8 13 8 18-3 3-6 4-11 2-17-1-5-3-7-8-5zm-51 73c-10 0-21 1-32 0-6 0-8 2-8 8 1 36 3 72 8 107 2 17 8 32 16 49 7-14 12-27 14-40 6-39 8-78 9-117 1-5-1-7-7-7zm-67 94c-3-31-3-62-2-93 0-3 1-5-1-8-3 2-3 4-4 6-9 25-13 52-15 78-3 25-3 50 2 75 6 22 16 41 36 55 1 1 4 3 6 1 2-1 0-4-1-5-11-36-19-72-21-109zm105-100c0 23 0 46-1 69-1 48-9 95-23 140-1 2-3 4-1 6 2 1 5-1 6-2 12-9 22-19 28-33 8-17 11-35 12-53 1-32-3-63-9-94-3-12-6-23-12-33zM409 354c-4-3-8-8-13-4l-32 20c-4 2-2 4 1 6 4 4 8 1 11 0 5-2 7-1 8 3 0 4 3 7 6 9 9 5 18 8 29 7 6 0 8 3 7 10-1 3-2 6-1 9 12-3 12-3 11 11s-5 28-9 41c-3 9-6 17-7 26 2-2 4-5 5-8 5-13 11-27 15-40 7-21 11-42 7-64-2-8-6-14-15-16-5-2-13-1-16-8-1-2-3 1-4 2-4 2-7 4-10 7l-1-2c2-2 4-3 6-6 2-1 4-2 2-3zm176 2c-4 8-13 6-19 9-4 2-8 4-10 8-3 9-5 19-4 28 1 20 5 39 13 57 5 11 9 23 16 36 0-8-3-12-4-17-6-19-13-38-12-59 0-5 0-8 7-5 2 1 4 3 4-2-1-15-1-15 13-16h5c8-3 19-4 22-13 3-8 6-8 12-5 1 1 2 1 3 1 4 0 7-1 8-4 2-3-2-4-4-5-9-6-19-12-29-18-3-2-12-1-14 3s3 4 5 7c1 1 3 1 3 4-5-1-7-5-11-7-1-1-3-3-4-2zM390 533c-1-1-3-3-4-2-3 1-1 4 0 5 2 5 5 11 8 16 10 13 23 20 40 18 13-1 27-4 41-1 1-1 3 1 4-1s-1-3-3-4c-9-6-18-7-28-6-17 3-34 4-47-11-4-5-8-9-11-14zm55 17c-20-2-36-12-50-25 1 19 29 33 50 25zm127 34c-10 2-19 0-29-2-2 0-4-1-4 2-1 1 1 2 2 3 7 3 13 6 20 6 8 0 15-3 21-6 1-1 2-2 2-4-1-1-3-1-4 0-3 0-5 1-8 1zM158 318c48-31 100-48 156-58 35-7 68-19 97-41 11-9 20-19 29-33-3 1-3 1-4 1-1 1-2 1-3 2-18 15-40 21-64 23-31 2-63-1-94-1-26 0-51 4-72 19-29 21-43 51-51 84 0 2-2 5 0 7 2 1 4-1 6-3zm485-106c-29 0-56-5-79-25 0 0-1 0-3-1 4 9 17 25 28 33 29 23 62 34 98 41 47 9 93 23 135 47 8 4 14 8 22 13 1 0 2 2 4 1 1-1 0-3 0-4-2-7-3-14-5-20-17-56-53-84-111-86-30 0-59 1-89 1zm-392-14c26-9 53-13 81-6 30 8 59 6 88-7 1-1 4-1 4-4-10-2-21-3-31-6-19-5-36-15-54-23-9-5-19-7-30-6-19 2-36 10-51 22-14 12-26 25-38 40 0 0 1 1 1 2l30-12zm401-42c-13 7-26 13-40 18-12 3-24 5-36 7 1 4 4 4 6 4 29 14 59 14 89 7 7-2 15-4 22-4 26-1 49 7 73 17 4 1 8 4 13 4 1-3-2-5-3-6-11-13-22-25-35-36-26-20-57-29-89-11zm-299-14c21 7 40 18 60 28-11-21-24-40-45-52-25-14-64-5-81 19 23-5 44-2 66 5zm234 28c39-21 78-42 126-34-11-9-21-17-34-22-9-3-18-5-28-3-33 7-50 32-64 59z"/></svg>