<svg width="64" height="64" viewBox="0 0 1000 1000" xmlns="http://www.w3.org/2000/svg"><path d="M858 693c-21-22-52-36-85-37h-4c-35 0-67 14-90 37s-37 54-37 89c0 18 4 35 10 51 7 15 16 28 27 39 23 23 55 37 90 37 70 0 127-57 127-127 0-35-14-66-38-89zm-29 108h-42v42h-37v-42h-41v-37h41v-42h37v42h42v37zM398 296c-4 17-6 32-6 48v10h174c3 13 4 25 5 35 1 11 1 21 1 32s0 21-1 31c-1 9-2 20-5 31H407l10 64h149c3 13 4 24 5 35 1 10 1 21 1 32 0 10 0 20-1 30-1 9-2 20-5 32H425c-1 10-2 20-4 30-4 24-13 50-27 78h208v10c0 65 39 120 95 144H143l-5-17 16-14c17-14 32-32 44-53 12-22 21-43 29-66 7-23 13-45 16-67 3-17 5-32 6-45H111c-3-12-4-23-5-32-1-10-2-20-2-30 0-11 1-22 2-32 1-11 2-22 5-35h125l-10-64H111c-3-11-4-22-5-31-1-10-2-20-2-31 0-10 1-21 2-32 1-10 2-22 5-35h101c-1-8-2-16-2-24 0-33 7-66 18-98 12-32 31-60 55-85 25-25 56-46 93-61 37-16 82-24 134-24 45 0 83 4 114 10 31 7 61 16 89 27-2 19-6 40-11 65-6 25-15 50-29 76-23-9-45-16-66-23-22-6-49-10-81-10-26 0-47 5-64 13-17 9-31 19-42 33-10 12-17 27-22 43z"/></svg>