<svg width="64" height="64" viewBox="0 0 1000 1000" xmlns="http://www.w3.org/2000/svg"><path d="M805 824c-1-13-2-26-5-40H483c14-28 23-54 27-78 2-10 3-20 4-30h141c2-12 4-23 5-32 1-10 1-20 1-30 0-11 0-22-1-33-1-10-2-22-5-34H506l-10-64h159c2-11 4-22 5-32 1-9 1-19 1-30s0-22-1-32-3-22-5-35H481c-1-3-1-7-1-10 0-16 3-32 7-48s12-31 22-44 24-23 41-32c17-8 39-13 64-13 33 0 60 3 82 10 21 6 43 14 66 23 13-26 23-51 28-76 6-25 10-46 11-65-28-11-57-20-88-27-31-6-70-9-115-9-51 0-96 7-133 23-38 15-69 35-93 61-25 25-43 53-55 85s-18 65-18 98c0 8 1 16 1 25H200c-3 12-4 24-5 34-1 11-2 21-2 32s1 21 2 31c1 9 2 20 5 32h115l10 63H200c-3 13-4 25-5 35s-2 21-2 32 1 21 2 30 2 20 5 32h137c0 13-2 28-5 46-4 21-9 43-17 66-7 23-17 45-29 66s-26 39-43 53l-16 14 5 17h568c3-14 4-27 5-40 1-12 1-25 1-38 0-12 0-24-1-36z"/></svg>