<svg width="64" height="64" viewBox="0 0 1000 1000" xmlns="http://www.w3.org/2000/svg"><path d="M864 693c-22-22-52-36-85-37h-5c-35 0-66 14-89 37s-37 54-37 89c0 18 3 35 10 51 6 15 16 28 27 39 23 23 54 37 89 37 71 0 127-57 127-127 0-35-14-66-37-89zm-31 106H716v-33h117v33zM393 296c-5 17-7 32-7 48v10h175c2 13 3 25 4 35 1 11 2 21 2 32s-1 21-2 31c-1 9-2 20-4 31H401l11 64h149c2 13 3 24 4 35 1 10 2 21 2 32 0 10-1 20-2 30-1 9-2 20-4 32H419l-3 30c-5 24-14 50-27 78h207v10c0 65 39 120 95 144H137l-5-17 16-14c18-14 32-33 44-53 12-22 22-43 29-66s13-45 17-67c3-17 4-32 5-45H105c-3-12-4-23-5-32-1-10-1-20-1-30 0-11 0-22 1-32 1-11 2-22 5-35h126l-10-64H105c-3-11-4-22-5-31-1-10-1-20-1-31 0-10 0-21 1-32 1-10 2-22 5-35h101c0-8-1-16-1-24 0-33 6-66 18-98s30-60 54-85c25-25 56-46 94-61 37-16 81-24 133-24 45 0 83 4 114 10 32 7 61 16 89 27-2 19-5 40-11 65s-15 50-28 76c-23-9-45-16-67-23-21-6-48-10-81-10-25 0-47 5-64 13-17 9-31 19-41 33-10 12-18 27-22 43z"/></svg>