<svg width="64" height="64" viewBox="0 0 1000 1000" xmlns="http://www.w3.org/2000/svg"><path d="M386 651l-6 3c-24 13-24 13-12 39 2 5 4 10 6 16 8 31-3 59-28 73s-55 8-77-15c-14-15-23-33-28-53-14-57-44-105-85-146-36-37-61-80-74-130-25-92 11-177 90-216 82-40 175 6 188 95 3 21 1 42-2 63-2 17-19 36-8 48s33 13 49 21c14 6 18 0 21-12 6-20 11-40 14-60 15-92-22-175-96-216-78-42-157-21-173-16C70 178 3 267 0 370c-2 99 37 180 103 250 30 32 53 66 64 109 6 20 14 39 24 57 24 40 56 70 103 77 52 8 96-9 128-51 35-43 36-92 16-143-15-39-16-39-52-18zm558-128c-28-2-57 2-71 31-12-29-25-58-37-88-5-11-10-23-26-23s-19 13-24 25l-26 66-42-159c-5-21-9-42-14-63s-22-29-36-18c-9 6-9 17-11 26-1 9-3 18-4 27v-1l-40 224-4-10-36-135c-4-13-7-26-24-27-18 0-21 14-25 26-9 28-18 56-25 83-3 12-9 18-22 17-20-1-40 0-60-1-17 0-13 12-13 22 0 9-6 23 13 23 30-1 60 0 90 0 13 0 20-7 24-19 4-14 9-28 14-47 3 10 6 16 7 21 14 56 28 111 42 167 3 13 5 28 24 28 21 0 22-16 24-30l18-111c7-39 13-79 20-118l3-22 35 141c3 12 6 24 9 35 3 13 5 25 21 27 17 2 22-11 27-23 12-30 24-60 37-94 12 29 23 55 35 81 11 25 29 27 45 6 8-11 16-21 23-32 5-7 10-11 19-10 22 0 44 0 66 1v-46c-19 0-37 2-56 0zM237 414c-10 12-20 25-27 39-21 46-5 103 36 128 38 23 80 4 87-39 6-35-10-66-44-83-12-6-12-9-5-19 19-23 32-50 32-81 0-46-24-78-67-90-49-13-96 15-119 70-16 38-15 37 25 45 11 2 17 0 20-12 4-17 12-33 26-44 13-10 28-12 43-5s19 21 19 36c-1 22-12 39-26 55z"/></svg>