<svg width="64" height="64" viewBox="0 0 1000 1000" xmlns="http://www.w3.org/2000/svg"><path d="M968 537H220c-15 1-28 16-28 35v72c0 9 2 16 7 22 7 10 15 13 26 13h747c7 0 12-3 17-8 6-5 9-13 11-21v-84h-1c-5-20-14-29-31-29zm19-419c-4-4-9-5-14-7H219c-1 1-1 1-2 1-15 4-25 18-25 37v76c3 14 15 29 30 29 249-1 498 0 747 0h3c6 0 12-3 17-8 6-6 9-13 11-21v-84c-2-10-6-18-13-23zm-19 202H224c-2 0-3 0-5 1-15 1-27 16-27 35v71c0 2 0 5 1 7 3 17 14 28 29 28h749c7 0 13-3 19-8 5-6 8-13 10-21v-84h-1c-5-20-14-29-31-29zm-4 426H221c-16 0-29 16-29 36v70c0 10 3 18 8 25 7 9 15 11 25 11h748c8-1 15-5 20-13 4-4 5-10 7-16v-84c-7-23-15-29-36-29zM23 175c3-2 6-3 9-5 2-1 4-3 6-5v41H8v35h96v-35H77v-82H38l-6 6-9 6c-4 2-7 4-11 5-3 2-6 2-8 2v36c3 0 6 0 9-1 4-1 7-2 10-3zm54 234c4-2 7-4 11-7 3-2 5-4 8-6s5-4 7-7 3-6 4-9 2-7 2-11c0-12-4-21-13-28-8-6-20-9-35-9-6 0-12 0-18 1s-11 2-16 4-9 4-13 6-8 5-10 8l24 29c5-5 9-9 13-11 4-3 8-4 13-4 4 0 7 1 9 3 2 1 3 4 3 7 0 2 0 3-1 4 0 1-2 2-4 4s-5 3-10 5-10 6-17 10c-6 3-11 6-15 10s-7 7-9 11-5 9-6 14-1 11-1 18h108v-35H66c3-2 7-5 11-7zM48 647c-6 0-11-1-15-2-5-2-9-4-13-7L0 666c7 6 14 10 22 13s17 4 28 4c9 0 17-1 25-3 7-2 13-5 18-8 5-4 9-8 12-14s4-11 4-17c0-5-1-9-2-13s-4-8-6-12-6-6-9-8-8-3-12-4c4-1 7-2 10-4 4-2 7-5 9-8s4-6 5-10 2-8 2-12c0-5-1-10-3-15-3-4-6-8-11-11-4-3-9-6-16-7-6-2-13-3-20-3-6 0-12 1-17 1s-10 3-15 4-9 4-13 6-7 5-9 8l25 29c3-5 6-9 11-11s8-4 13-4c4 0 8 1 10 3s4 4 4 8-2 8-6 10-10 4-16 4h-8v27h7c9 0 16 1 20 3 4 3 6 6 6 12 0 4-1 8-5 10-3 2-8 3-15 3zm44 98H65L0 828v35h53v26h39v-26h18v-35H92v-83zm-35 83H39l18-25v25z"/></svg>