<svg width="64" height="64" viewBox="0 0 1000 1000" xmlns="http://www.w3.org/2000/svg"><path d="M829 915c-1 0-2-1-3-1L530 790c-2-1-4-3-4-5-1-3 0-6 2-7 34-33 53-78 53-125 0-20-4-40-10-58-1-1-1-2-1-3L354 302c-43 38-84 94-80 149 1 4-2 8-7 8-4 0-8-3-8-7-5-65 46-131 96-171 61-47 127-68 172-53 4 1 6 6 5 10s-6 6-10 5c-40-13-101 6-156 50l221 295c57 35 133 34 188-4 3-2 5-2 8-1 2 1 4 3 4 6l50 317c0 2-1 5-3 7-1 1-3 2-5 2zM547 780l272 114-45-291c-55 32-127 35-183 5 3 15 5 30 5 45 0 48-17 93-49 127zM208 376c-4 0-7-4-8-7-5-66 46-131 97-171 60-48 126-68 171-53 4 1 6 5 5 9-2 4-6 7-10 5-40-13-101 7-157 51-47 37-95 98-90 157 0 5-3 8-7 9h-1zm520 488c11-38 43-68 83-76l18 119-101-43zM383 93c-100 0-256 142-200 242l331 440 315 132-54-345-331-438c-14-22-36-31-61-31zm0-31c37 0 67 16 86 44l331 438c3 4 5 9 6 14l54 344c1 11-3 22-12 29-5 4-12 7-19 7-4 0-8-1-12-3L503 804c-5-3-10-6-13-10L158 353c0-1-1-2-2-3-24-43-20-95 10-147 45-77 143-141 217-141z"/></svg>