<svg width="64" height="64" viewBox="0 0 1000 1000" xmlns="http://www.w3.org/2000/svg"><path d="M875 922c1-35 0-69-6-104-7-47-28-82-74-100l-5-3c-33-15-68-24-103-34-20-6-41-12-61-18v8c2 22 3 45-6 67-24 58-60 107-111 143-7 5-11 5-17 0-52-36-88-85-112-143-5-11-6-23-7-35 0-14 0-27 2-40h-3c-40 12-80 24-120 37-30 9-58 21-83 40-10 8-18 17-23 29-8 19-13 38-16 59-2 13-3 26-5 39v63c0 6 1 8 7 8 248-1 496-1 744-1 0-5-1-10-1-15zM201 458v13c1 22 18 41 43 45 17 2 34 2 51 1 4 0 10-5 13-9 3-3 2-8 2-12v-31c17 42 48 74 87 97 12 8 25 14 40 18-77-71-70-191-46-239 3 1 4 4 5 6 40 59 97 91 168 97 25 3 51 0 75-7 6-1 8 1 7 6-1 6-1 12-2 18-7 45-24 84-58 116l-3 1c-18 4-28 18-26 33s17 27 37 27c17 1 34 1 51 0 10 0 20-2 26-9 6-6 12-6 20-7 26-1 51-5 75-14 55-20 88-54 93-105 3-28 1-57 1-86 0-22-9-32-36-38 0-4 1-10 0-14-2-5-5-11-9-13-8-2-9-6-8-12 0-15-3-30-17-37-18-9-21-21-21-35v-2c-7-55-33-101-80-139-61-51-135-72-220-62-95 11-164 55-207 129-17 29-24 60-25 92 0 4-2 6-6 8-16 8-26 19-28 34-1 5-1 11-2 16 0 2-1 5-2 6-13 3-15 11-15 21v64c0 14 2 17 17 23zm605 16c1-10 2-19 15-23h2c0 15-1 30 0 45 0 25-12 46-33 62-31 24-69 31-109 33-2 0-5-2-7-3-8-8-18-12-30-12-16 1-33 0-50 1 28-12 53-28 74-49 12-11 22-24 30-38v9c0 12 7 18 22 18h30c32 0 54-16 56-43zm-69-153h16c11 1 16 7 16 18v122c2 25-10 26-32 24V321zM389 121c85-41 171-37 250 11 62 38 93 91 95 157h-10c-9-1-16 1-20 5-6-11-13-21-21-31-41-50-94-76-159-80-64-4-122 15-168 61-20 20-35 42-46 64v-4c-2-10-8-14-19-15h-17c4-74 40-131 115-168zM240 341c0-16 5-20 23-20h9v164h-2c-26 1-30-2-30-24V341z"/></svg>