<svg width="64" height="64" viewBox="0 0 1000 1000" xmlns="http://www.w3.org/2000/svg"><path d="M713 515c-11 9-22 19-32 29-4 5-6 8-4 10 3 6 17-1 26-12 6-6 11-13 17-19 1-1 1-3 1-5 1-2-1-4-4-4-1 0-3 0-4 1zm-77 140c2 4 12-1 24-11 11-10 17-22 16-23s-12 3-23 12c-11 8-19 18-17 22zm18-86c-9 6-15 14-12 17s13 1 22-6 16-14 13-17c-3-2-14 0-23 6zM302 211c24 7 46 19 68 30l15 9c7 5-8-2-33-15-26-14-49-21-50-20l-1 1c-9 20-7 41-5 63 0 2 4 4 6 5 24 9 50 12 76 9 8 0 15-3 20-10 1-2 3-5 6-7 4-4 18 8 31 27 14 19 29 33 34 31 4-2-5-19-21-39s-24-36-19-37c3-1 6-1 9-2 6-2 12-4 18-7 48-25 90-58 111-111 4-10 7-21 9-32 2-7-3-9-9-6-7 4-15 8-21 13l-79 62c-23 17-45 34-68 50-3 2-7 4-10 5-6 3-11 4-12 3 0-1 3-6 7-12 3-3 5-7 8-10 34-35 72-65 115-88 24-12 47-25 69-39 3-1 4-3 6-5 3-3 0-8-5-9-5-2-10-4-12-4h-3c-15-1-30-4-44-3-44 4-85 18-122 43-33 22-58 51-78 85-5 7-8 11-18 9-13-3-26-3-39-3-21 0-40 6-56 21l-7 7c-3 4-6 8-5 9 0 0 20-20 51-27 19-4 39-2 58 4zm481 182c-7-12-17-19-30-23-15-4-30-7-45-9-8-1-15-2-23-3-13-2-22-4-20-4h3c22 1 44 2 65 3 6 1 10 0 11-7 6-33 7-65-1-97-12-54-34-103-79-139-5-4-11-8-17-11-8-4-11-1-10 7 1 5 2 10 4 15 13 40 32 78 37 120 3 25 5 50 7 76 0 2-1 4-1 7-1 3-3 6-4 6s-4-7-7-16c-1-6-3-12-4-17-11-50-22-99-33-148-2-7-4-13-6-20-3-11-7-19-8-19s-3 2-4 4c-1 1-1 2-2 3-14 25-19 52-20 80-1 27 0 54 5 80 8 44 13 73-10 73-23 1-41 8-39 12 1 5 19 3 39 1 12-1 25 0 37 0 7 0 8 3 9 9s1 15 6 19c18 17 38 31 62 39 13 4 14 3 23-8 5-7 9-15 12-23 5-14 29-15 44 9 15 25 22 45 22 43 1-2 1-4 1-6-1-21-13-39-24-56zM473 551c-12 0-24-2-36-7s-21-12-29-21c-14-15-24-27-26-25-1 1-3 3-3 4-8 13-15 25-21 37-14 31-26 63-30 97 0 2 1 6 2 8 30 39 70 52 117 48 3-1 8-4 9-6 11-21 22-42 32-63 6-12 11-25 14-38 6-22-9-35-29-34zm49-172c-9 12-15 11-13-2s3-24 2-25c-1 0-9 8-17 19s-14 16-14 11c1-3 1-6 1-8-1-9-1-19-3-27 0-2-2-4-4-6-3-2-7-1-10 2-2 2-3 4-5 6-1 3-1 8 0 12 0 7 2 13 3 19 0 3-1 7-3 8-27 17-44 44-63 69-5 7-6 16-3 25 14 53 71 64 105 53 10-4 17-10 21-20 5-18 9-36 11-54 2-30 2-60 10-71 8-12-10-24-18-11zM333 844c-3-1-7 3-9 6-3 4-6 8-9 13-4 7-8 13-9 13s1-7 3-16c1-5 2-10 3-16 1-4-2-9-5-12-2-2-9-1-12 1-18 15-36 30-54 46-2 1-3 3-5 5-3 4-5 7-4 8v1c2 2 4 3 6 5 30 24 66 37 105 39 8 1 12-2 11-10-4-25-8-51-13-76 0-3-5-7-8-7zm309-342c25-9 43-25 58-47 1-2 0-7-2-8-9-6-19-12-29-18-16-9-36-6-49 4s-20 21-11 35c6 9 11 18 16 27 4 6 10 9 17 7zM381 689c-35-15-57-33-58-25-1 6-2 11-3 15-1 10 3 18 9 24 25 26 55 35 90 32 2 0 5-1 7-2 5-5 9-10 13-15 6-10-23-14-58-29zm-96 137c2-1 2-5 2-7l-3-9c-2-5-18-6-34-4-11 2-21 3-31 4-11 1-14 6-15 16-1 11-1 22 3 32 6 17 32 13 48-3 10-9 20-19 30-29zm76-498c3-15-3-22-23-24-21-1-44 9-42 30 3 22 25 33 41 29 17-5 21-20 24-35zm1 516c-6 3-8 23-5 45 1 13 3 26 5 39 0 6 3 7 8 7 20-1 34-12 44-28 1-2 1-5 0-7-5-11-11-22-18-32-12-18-28-28-34-24zm43-77c3-4 6-8 8-12 5-7-19-8-50-20-31-11-48-30-49-24-1 4-2 7-3 11-1 6 0 11 5 16 23 19 49 30 79 32 3 0 8-1 10-3zm-12 20c4-6-17-9-43-20-27-10-45-23-46-16 0 4-1 7-1 11s1 9 4 12c17 22 40 31 68 29 4-1 9-3 11-6 3-3 5-7 7-10zm-92 20c2 10 6 18 12 24 8 8 17 11 28 9 15-4 26-14 35-26 1-1 1-1 1-2s-20 2-42-7c-22-8-38-12-34 2zm299-160c-11-1-21-3-31-4-7-1-11-1-13 2-4 6 2 14 7 16 3 1 6 2 9 2 15 1 30 3 44 3 4 0 8-1 10-3 4-5-10-13-26-16zM216 504c0 3 2 6 3 9 7 9 16 16 26 22 15 10 32 12 35 6 2-3 2-6-3-9-9-6-19-12-28-18-16-10-32-15-33-10zm134 35c1-2 1-3 2-4 5-7 3-12-4-16-9-6-17-13-26-19-3-2-5-4-8-6-4-3-10-1-13 5s7 18 21 27 27 15 28 13zm196 50c-8-1-16-1-24-2-15-1-15-1-18 13 0 0 0 1 1 2 0 1 13 4 29 6 17 2 31-1 33-7s-2-11-9-12h-12zm-22 38c-13-6-25-9-27-5l-3 6c-3 4-1 8 3 10 8 5 16 8 25 11 15 5 27 3 28-2 0-4 0-7-2-7-8-5-16-9-24-13zm-188-59c2-2 3-4 4-7 2-4-9-10-23-14-9-3-17-5-26-7-2 0-6 5-8 9-1 1 0 5 1 6 15 6 30 12 45 17 2 1 6-1 7-4zm-38-81c0-5-2-9-8-15-4-6-9-11-13-16-8-9-20-12-22-5-1 4 0 8 4 13 4 6 9 13 14 19 9 10 24 13 25 4zm298 101c-18 3-18 3-22 21v1c1 1 10 0 21-2 7-1 13-2 20-3 7-2 14-6 19-12 5-5 2-10-6-10-11 1-21 3-32 5zm-224-92c4-4 1-15-8-24-5-5-10-11-16-16-1-1-3-1-5-2-3 0-6 2-6 5v5c5 7 9 13 14 20 7 10 17 15 21 12zm194 47c-2-1-3-2-5-2-8 0-15 1-22 2-13 1-22 7-21 12s11 8 23 6c7-2 15-4 22-6 2 0 3-2 4-4 2-2 2-6-1-8zM247 334l-4-4c-1 1-3 2-4 4 0 2-1 3-1 4 0 17 0 33 1 49 0 2 4 5 6 4 3 0 7-3 8-5 3-16 2-32-4-48-1-1-2-3-2-4zm86 67c-4-3-11 10-10 26 1 15 9 25 13 24 4-2 6-6 5-10 0-3-1-5-1-8-2-8-2-16-4-24 0-3-1-6-3-8zm253 126c-8 6-13 15-11 20 2 4 13-2 24-12 10-10 16-24 11-25-3 0-6 1-9 4-5 4-10 8-15 13zm-373-33c4-2 6-13 4-23-1-7-3-13-4-20 0-1-1-3-3-4-2-3-4-2-6 0-1 2-1 3-1 5 0 8 1 15 1 23 2 13 6 21 9 19zm31-96c-4 0-6 7-4 14 1 5 1 9 3 13 2 8 3 11 6 13 7 4 11-11 8-21-3-11-9-19-13-19zm292-52c6-8-3-15-9-7s3 14 9 7zm-36-32c-1 0-2 8-2 17-1 10 4 16 7 11 2-3 3-6 3-10 0-3 0-6-1-10-1-5-6-8-7-8zm56-13c-1 1 0 2 0 4 1 2 5 2 9 0s8-5 7-7-1-4-2-4c-4-3-13 1-14 7zm-58-33c-1 0-4 4-4 10 0 4 2 8 5 9 2 0 5-1 6-3 3-6 0-13-7-16zm88 23c2-1 4-2 5-5 1-2-1-6-3-6-3-1-6-1-7 1-3 3 0 10 5 10zm-97-37c2 5 12 0 10-5s-13 0-10 5z"/></svg>