<svg width="64" height="64" viewBox="0 0 1000 1000" xmlns="http://www.w3.org/2000/svg"><path d="M847 154H153C69 154 0 223 0 308v384c0 85 69 154 153 154h694c84 0 153-69 153-154V308c0-85-69-154-153-154zM736 680c-39 21-81 29-125 24-42-6-79-23-111-50-13 11-28 22-44 30-35 17-71 24-109 20-77-7-133-46-168-114-17-34-23-71-20-109 5-56 30-103 73-139 38-32 83-48 133-47 50 0 94 16 132 49 1 0 3 1 4 2 42-37 92-54 148-51 93 5 174 76 190 168 15 88-25 173-103 217zM525 373h-1c-3-5-6-8-9-12h-23c-7 0-13 4-16 12h45c2 0 3-1 4 0zm13 24h3c-2-4-5-8-7-11h-61c-8 0-11 3-13 11h78zm8 25c5 0 7 0 8 1-1-4-3-8-6-13-29 0-58 1-88 0-6 0-10 2-12 8-1 4-1 4 3 4h95zm-217 15h-40c-3 0-4 1-5 4-9 22-19 44-28 66 0 1 0 3-2 3-1-23-3-46-4-69 0-3-1-4-4-4h-39c-3 0-4 1-4 4l-21 120c-1 3 0 4 3 3h19c3 1 4-1 5-4 4-25 8-50 13-76 1-5 1-9 3-15 2 31 4 61 5 91 1 3 2 5 6 4h21c3 1 4-1 5-3 6-14 12-29 18-43l20-48h1l-4 23c-4 23-8 45-12 67-1 3 0 5 3 4h20c2 0 3 0 3-3 7-40 14-80 22-120 0-3 0-4-4-4zm93 45c-3-11-11-17-21-21-10-3-21-2-32-2-6 0-13 1-20 3-1 1-3 1-3 3-2 7-4 14-7 22 14-4 27-6 40-5 8 0 13 5 13 11 0 3-1 5-4 5-9-1-17 0-25 1-17 2-31 8-37 25-8 21 2 43 30 42 10-1 19-5 27-10l1-1c1 0 0 1 0 1v3c-1 5 0 6 4 5h16c3 1 4-1 5-4l12-64c1-5 2-9 1-14zm-35 40c-2 14-7 19-21 21-4 0-9 0-11-4s-1-11 2-14c4-5 9-7 14-8 4-1 7-1 11-2 7 0 7 1 5 7zm66 56h-5c0 2 2 4 2 5 1 6 5 7 10 7 25-1 50 0 75 0h13c2-4 4-9 6-13-2 1-4 1-7 1h-94zm18 26h-11c2 2 3 4 4 6 2 4 5 5 10 5h49c4 0 8-1 10 1v1l9-15c-1 2-3 2-6 2h-65zm47 25c-11-1-23 0-34 0-3 0-5-1-7 0 7 10 8 11 19 11h11c2 0 4-1 6 1 4-4 9-9 13-14h-1c-1 1-4 2-7 2zm-69-68h2l9 3h3c8 2 19 3 29 0 2 0 3-1 5-2h1s1 0 2-1c2 0 3-1 4-2 0-1 1-2 1-2 0-1 1-3 1-4l1-10 1-2v-2s0-2 1-4c-1 1-2 1-2 1-3 1-5 2-7 3s-4 1-5 2h-3c-3 1-6 2-9 2h-8c-2 0-5-1-7-1s-4-1-5-1c-1-1-1-1-2-1-2-1-4-3-5-4s-2-2-3-4h-1c0-1-1-2-1-3-1-1-1-1-1-2s-1-2-1-2c0-2 0-3 1-4s4-1 7-1h54l1-1v-1h1l2-12c1-7 1-14-1-20 0-3-1-5-2-7 0-1-1-3-2-4s-2-3-3-4c-1-2-2-3-3-4s-3-1-4-2l-1-1c-2-1-3-1-4-2-2-1-4-1-6-2-1 0-2-1-3-1h-20-2c-4 1-7 2-10 3-1 0-2 1-3 1l-4 2s-2 1-3 1l-2 2-3 3c-5 4-9 10-12 16-1 1-1 3-2 5l-1 2-1 3c0 2-1 4-1 5 0 3-1 6-1 9-2 19 3 35 20 46l1 1h2v1h2l1 1h1c1 0 1 1 1 1zm27-80c8 1 13 10 12 17-1 2-2 2-3 2h-29c-2 0-3 0-3-3 2-11 12-18 23-16zm75-35c9 0 11 0 12 4h1l-6-18c0 2-1 3-4 3-35-1-70 0-105 0-7 0-7 0-9 7-2 4-1 4 3 4h108zm42 13c-4 0-9-1-14-1h-14c-5 0-9 1-14 1-8 2-16 4-22 11-4 8-7 16-6 24v5c1 2 1 4 2 7l3 3c3 4 6 6 10 8l8 3 8 4c2 1 4 2 5 3s1 3 1 5c0 4-2 7-4 8-2 2-4 2-8 2-9 1-19 0-29-3h-4l-1 1v1c-1 0-1 1-1 2l-2 10c0 4-1 6 0 7h1v1h3c0 1 0 1 1 1h1c2 1 5 1 8 2h5c6 1 13 1 13 1v-1h15c5-1 12-3 16-5 15-7 18-20 17-35-1-13-10-18-21-21 0-1 0-1-1-1l-3-1h-1c-3-1-5-2-7-4h-1c-3-3-4-7-3-9 0-1 1-2 2-3l1-1c1 0 2-1 2-1l3-1 2-1h10c5 0 10 0 15 1 3 1 4 0 4-3l3-15c1-3 0-4-3-5zm43 23h11c3 1 3 0 4-2 1-6 2-11 3-17 0-2 0-3-3-3-3 1-7 0-11 0-2 1-3 0-2-3l3-16c1-3 0-5-4-4h-19c-3-1-4 1-5 3-2 13-4 25-6 38-4 23-8 46-11 69-2 9 2 13 11 16s17 2 26 0c8-1 9-2 10-11 1-2 1-4 1-7 1-2 1-4-3-3-4 2-8 1-12 0s-5-3-5-6l9-51c0-2 1-3 3-3zm80 3c2-9 5-17 10-25-15-3-25 4-34 15 1-4 1-8 2-12 1-2 0-3-2-3h-22c-3 0-4 1-4 4 0 4-1 9-2 14-5 27-10 55-15 83 0 3 1 4 4 3h12c12 0 12 0 14-12 2-16 5-32 8-48 3-10 9-15 19-17h8c1 0 2-1 2-2zm84-17c-18-13-50-12-67 2-15 11-20 27-21 45-1 27 14 46 40 50 20 3 38 0 53-16 10-11 14-25 14-40 0-17-5-31-19-41zm-20 60c-3 4-6 8-12 9-12 4-21-2-22-15-1-11 1-21 7-30 3-5 8-8 13-9 13-3 20 5 20 21 0 8-2 16-6 24z"/></svg>