<svg width="64" height="64" viewBox="0 0 1000 1000" xmlns="http://www.w3.org/2000/svg"><path d="M995 445c-23-134-141-238-277-245-82-4-155 20-217 74 6 8 15 14 21 22-6-8-15-14-21-22-2-1-3-2-5-3-56-47-120-71-194-71-73-1-138 22-194 69C45 322 9 390 2 472c-6 56 3 110 29 159 51 100 133 157 245 168 56 6 109-5 159-30 24-12 45-27 66-44 46 41 100 65 161 73 65 8 126-3 183-35 114-64 173-188 150-318zM489 297h32c5 5 10 11 15 17 1 0 1 0 2 1 4 6 9 11 12 18-3-7-8-12-12-18-2-2-4-1-6-1h-67c5-12 13-17 24-17zm-28 36h88c4 5 8 11 11 16 1 0 2 1 2 2 3 6 7 11 9 18-2-7-6-12-9-18-1-3-4-2-7-2H441c3-12 8-16 20-16zm-37 47c3-9 9-11 18-11h129c3 6 6 13 9 19 1 2 2 4 4 9 0 1 1 2 1 3 0 0-1-2-1-3-4-11-4-12-17-12-46 0-93 0-139 1-5 0-6-1-4-6zm-20 77s0-1-1-1c1 0 1 0 1 1zm2 0h-1 1zm-3-2v-1 1zM219 594h-29c-5 0-6-1-5-6 6-32 12-65 18-98 2-11 4-23 5-34h-1l-29 71c-8 21-17 41-25 62-2 4-4 6-9 5h-31c-5 1-7-1-7-7-2-43-5-87-8-132-3 8-3 15-4 22-7 37-14 74-20 111-1 5-2 6-7 6H39c-4 0-5 0-4-5 10-58 20-117 30-176 1-4 3-6 7-6 19 1 37 1 56 0 5 0 6 2 6 7 2 33 4 67 6 100 3 0 3-2 4-4 13-32 26-64 40-97 1-4 3-6 8-6 19 1 39 1 58 0 5 0 6 2 5 7-10 58-20 117-31 176 0 3-2 4-5 4zm140 0h-22c-6 1-8-1-7-7v-5c1 0 1-1 1-1h-1c-13 9-26 14-41 15-40 3-55-30-44-60 10-25 30-35 55-37 12-1 24-2 36-2 5 1 6-2 6-7 1-9-7-16-19-17-19 0-38 2-58 8 3-12 6-22 10-32 0-3 3-3 5-4 9-4 19-4 29-5 16 0 31-2 47 4 14 5 26 13 30 30 2 6 0 13-1 20-6 31-12 63-18 94-1 5-3 7-8 6zm68 28c-1-3-3-4-3-7 2-2 5-1 7-1h138c4 0 8 0 10-2-3 7-5 13-8 19H442c-8 0-13-1-15-9zm90-94v-1 1zm0-1l1-1c-1 0-1 1-1 1zm-70 133c-1-2-3-5-5-8h110c4 0 7-1 10-3-5 8-9 15-14 23v-2c-3-4-9-1-14-1-24-1-48-1-72 0-7 0-12-2-15-9zm55 63c6-6 12-10 17-17-3-3-6-1-9-1-5-1-11-1-16-1-16 0-18 0-27-15 3-2 6-1 9-1h51c6 0 11-1 14-7 1-1 2-3 3-4-12 16-26 32-42 46zm128-249c-8-2-15-2-22-2h-8v1c1 7 1 14 1 21 0-7-1-15-1-22h-7c-1 1-2 1-3 1s-2 1-3 2c-2 0-3 1-4 2 0 0-1 0-1 1-1 1-2 2-3 4-2 4-1 9 4 13 0 0 1 0 1 1 4 2 7 4 11 5 0 0 1 0 2 1l4 1v-7 7h2c16 5 29 13 30 32 2 22-4 40-24 51-7 4-16 6-24 7-2 0-3 1-5 1h-6-12s-9 0-19-1h-6c-4-1-9-1-12-2 0-1-1-1-2-1h-2l-1-1h-1-1v-1h-1c-2-2-1-5 0-10l3-15v-4l1-1 1-1c2-1 4 0 7 0 13 4 28 6 42 5 5 0 8-1 11-3 4-3 5-7 6-12 1-4 0-6-2-8-1-2-4-3-6-4-4-2-8-3-12-5l-12-5c-6-3-11-6-15-11-1-2-3-3-4-5-1-4-2-7-3-11 0-2 0-4-1-6 0-12 3-24 10-35 8-10 20-14 32-17h-96c1 0 3 1 4 1l9 3 6 3s1 1 2 1c2 1 3 3 5 4s4 3 5 5c2 2 3 4 4 6l3 6c1 3 2 6 3 10 2 9 2 20 1 30l-3 16v1l-1 1v1h-1 1-1c-1 1-2 1-2 1-1 0-1 0-1-1h-76c-5 0-8 1-10 2s-2 3-2 6c1 1 1 2 1 3 1 1 1 2 2 4 1 1 1 2 2 3l1 1c1 2 2 4 4 5 2 3 5 4 8 6 1 0 2 1 3 1 2 1 4 2 6 2 4 0 8 1 11 1h11c5 0 10 0 15-1l3-1c3-1 5-2 7-3 4-1 7-3 10-5h3v5c0 1-1 2-1 3v3l-3 14c0 2 0 4-1 6 0 1-1 2-1 3-2 1-3 3-6 4-1 0-2 1-4 1h-1c-2 1-5 2-7 2-15 4-31 3-43 1h-1l-3-1c-4-1-9-2-13-4h-2l-2-1c-1 0-1-1-2-1h-2v-1h-1c-1 0-1 0-1-1s-1 0-1 0l-1-1h-1c-1 0-1-1-2-1-25-16-32-40-29-67 0-5 1-9 1-13 1-2 1-5 2-7 0-2 1-3 1-5 1-1 1-2 2-4s2-5 3-7c4-9 10-17 17-24h-2 2c1-1 3-2 4-3s3-2 4-3c2 0 3-1 5-2 1-1 3-2 4-2s3-2 5-2c4-2 9-3 14-4l4-1h8c7 0 14 0 20 1h97l20-2c-3-17-3-17-20-17-53 0-106-1-159 0-5 0-6-1-5-6 4-11 3-11 15-11h152c6 0 7-1 7-4v1c3 9 6 18 8 27v1c1 3 2 6 2 9h21c7 1 13 1 20 2 5 1 6 2 5 6-2 8-4 15-5 23-1 4-2 6-6 5zm-223-17l1-1-1 1zm308 17h-16c-3 0-5 1-5 5-4 24-8 49-13 73 0 6 2 9 7 10 6 2 12 2 18 0 5-2 5 0 5 4-1 4-2 7-2 11-1 12-2 13-14 15-13 3-27 3-39 0-13-4-18-10-16-23 5-34 11-68 16-101 3-18 7-37 10-55 0-4 2-6 6-6 5 1 10 1 14 1s10 0 15-1c6 0 6 2 5 7-2 8-3 16-4 24-1 4 0 4 3 4h16c3 0 4 1 4 5-2 8-3 15-5 23 0 3-1 5-5 4zm59 32c-5 23-9 47-13 70-3 18-2 18-20 18h-18c-4 0-6 0-5-5 7-41 14-81 21-121 2-7 3-14 4-21 0-4 2-5 6-5h31c4 0 5 1 4 5l-3 17c12-17 28-26 50-23-8 12-12 24-15 37 0 2-1 2-3 2-4 1-8 1-12 1-15 3-24 10-27 25zm172 66c-22 23-49 28-78 23-38-6-60-34-58-73 1-26 8-49 30-66 26-20 72-22 99-3 20 15 27 36 27 61 0 21-5 41-20 58zM616 439c-7 0-14-1-21-1 7 0 14 1 21 1zm-289 83l-15 3c-8 2-16 5-21 11s-6 15-3 21 10 6 16 6c20-2 28-10 31-31 2-9 2-9-8-10zm138-50c-16-3-31 7-33 24-1 3 0 4 3 4h43c2 0 3 0 4-3 2-11-6-23-17-25zm-42 29c-4 1-3 5-4 8-1 4-2 8-3 13-1 3 0 4 4 4s6 0 7-5c0-4 1-8 2-12 0-2 2-5 0-7-1-2-4-1-6-1zm466-26c-8 1-15 6-19 13-10 13-11 28-10 44 1 19 14 28 32 23 8-2 13-8 17-14 6-12 9-24 9-35 1-24-10-35-29-31z"/></svg>