<svg width="64" height="64" viewBox="0 0 1000 1000" xmlns="http://www.w3.org/2000/svg"><path d="M926 794c-2-43-14-79-54-100-12-6-23-12-36-17-46-19-94-38-141-56-22-9-24-8-30 15-29 111-59 223-89 334-1 6-2 12-7 18-1-5-2-8-3-12-6-56-14-112-19-167-5-48-19-96 2-144 3-8-3-8-9-8h-74c-13-1-18 2-12 16 9 26 12 52 6 80-4 22-6 45-9 68l-20 166h-3c-1-2-2-4-3-7-30-114-61-228-91-342-7-24-9-26-33-16l-138 54c-21 9-40 20-57 35-17 14-28 31-30 54-6 61-12 122-18 182-3 37 13 53 50 53h787c32 0 50-20 47-50-6-52-13-104-16-156zM297 392c11 3 14 9 18 17 21 52 48 100 92 136 33 27 70 41 114 34 31-4 57-19 80-40 40-38 67-84 87-135 1-3 1-10 6-10 18 0 25-14 36-24 19-15 19-35 16-56-2-10-7-15-18-14-8 1-9-2-7-10 6-27 8-56 10-87-1-7-1-17-2-28-4-22-10-42-31-54-5-2-6-6-9-10-21-40-50-72-92-91-26-12-55-18-84-20-77-4-141 20-183 89-3 5-7 6-12 8-17 7-29 19-37 36-11 21-16 43-17 67-2 31 3 61 9 92 1 5 2 8-6 8-6 0-10 5-12 10-10 31 11 74 42 82zm48-67c0-10 1-19 11-23 5-2 10-4 13 2 4 5 9 5 15 5 7-1 9 1 8 9-1 13 8 22 20 22 12-1 19-11 17-24-1-6 1-7 6-7 6 0 12 1 18-3 3-2 4 1 6 3 11 13 11 31-1 44-21 22-48 30-79 25-17-4-30-22-33-46 0-3 0-5-1-7zm288 112c-18 33-39 63-69 85-45 33-92 31-136-6-36-31-59-72-78-116v-4c31 14 62 11 92-2 27-13 48-32 48-65 0-8 5-6 10-6 4 0 10-2 11 6 8 46 43 75 92 76 8 0 17 0 25-1 8-2 15-6 24-8-5 16-12 28-19 41zm-26-57c-20-1-39-6-56-19-10-8-17-17-17-31 0-8 3-14 8-21 2-3 4-3 8-3 13 2 23 4 23 22 0 9 13 13 22 11 10-3 16-11 13-20-2-11 3-11 10-10 4 0 9 0 12-3 10-8 20-5 25 7 9 28-18 67-48 67zM354 160c4-3 5-4 8 0 42 52 100 66 162 69 26 1 51-1 76-9 13-3 18-10 14-18-4-11-12-9-21-7-47 13-94 11-140-4-1 0-3-2-5-2 25 4 48 6 72 5 42-1 80-13 113-39 9-7 12-4 16 4 13 21 19 45 22 70 3 22 4 44 3 70-15-23-36-20-57-20h-64c-13 0-23 6-29 17-4 5-8 7-14 6h-11c-12 2-20-1-27-12-5-8-14-11-24-11h-79c-23 0-27 2-42 17-16-41-3-107 27-136z"/></svg>