<svg width="64" height="64" viewBox="0 0 1000 1000" xmlns="http://www.w3.org/2000/svg"><path d="M847 154H153C69 154 0 223 0 308v384c0 85 69 154 153 154h694c84 0 153-69 153-154V308c0-85-69-154-153-154zM724 599c-62 64-157 62-215 13 21-20 37-44 45-73h-11c-1 0-2 1-2 2-7 18-15 34-27 48-4 5-9 10-14 16-9-9-17-18-23-28-7-11-12-23-17-34-1-3-2-4-6-4h-8c8 29 23 53 44 73-56 48-148 51-209-9-64-61-65-161-4-224 61-62 154-61 213-12-21 21-36 45-44 73 4 0 7 1 11 0 1 0 2-1 2-3 7-19 17-36 31-51 3-4 6-7 10-11 10 9 18 19 25 31 6 10 10 21 15 31 1 2 2 4 5 3h9c-8-28-24-52-45-73 52-45 143-53 207 6 66 60 69 162 8 226zM312 456c-3 0-5 1-6 4-5 11-10 23-16 34 0 1 0 2-1 4-1-15-2-28-3-42h-26c-5 24-9 47-14 71h16l9-48h1c1 16 3 32 4 48h12c3 0 4-1 5-3 5-12 11-25 16-37 1-2 2-3 3-5-1 7-2 15-4 22-1 8-2 15-4 23h17c4-24 9-47 13-71h-22zm71 35c0-13-4-21-15-22-9-1-18 0-28 0-1 0-2 2-2 3-1 3-1 7-2 10 8 0 15-1 22-1 2 0 4 0 6 1 1 1 1 3 2 5 0 1-3 2-4 2h-9c-13 1-22 8-24 19-3 9 3 18 12 19 6 0 12-1 18-2 5 4 11 1 16 2 3-12 5-23 7-34 0-1 1-2 1-2zm-33 23c-5 0-7-4-4-9s10-6 17-4c0 11-7 14-13 13zm60-24c-2-1-5-2-5-6 1-4 5-3 7-3h13c1-3 2-7 3-11-9-3-18-3-26-1-11 3-16 9-15 20 0 5 2 8 6 10l12 6c2 1 4 3 3 6 0 3-3 3-5 3-7 0-13 0-20-1-1 4-2 8-2 12 10 2 19 3 29 1 3-1 6-2 9-4 9-7 8-21-1-27-3-2-5-3-8-5zm50-17c0-1 0-2 1-4h-9c1-6 2-10 3-16h-6c-9 0-10 0-11 10-4 16-7 32-10 48-1 7 2 14 9 15 4 1 9 0 13-1 1 0 3-1 3-2 1-4 1-7 1-10h-5c-2-1-5-2-4-5 1-9 3-17 5-26 8-1 8-1 10-9zm23 40c-7 0-11-6-9-12h36c0-6 0-11-1-16 0-6-3-12-9-14-10-5-20-5-30 1-9 7-15 22-13 34 2 10 7 17 17 20 9 2 18 1 27-1 1 0 3-1 3-2 1-4 2-7 2-11h-2c-7 1-14 1-21 1zm6-34c4 1 6 4 5 11h-19c2-8 7-12 14-11zm45-5c1-6-3-5-7-5-2 0-3-1-5 0-1 0-3 1-3 2-3 19-7 37-10 56h6c10 0 10 0 12-10v-1c2-8 3-16 6-23 1-5 5-9 11-9 1 0 2-1 2-2 1-4 3-8 4-13-6-1-11 1-16 5zm61-2c1 0 2 0 3-1 3-2 6-5 9-8-1-1-1-2-1-2-9-9-24-11-37-4-17 9-22 24-22 42 1 11 6 20 16 25s21 3 32-1c-2-5-3-9-5-14-1 0-3 0-4 1-9 2-18-2-20-9-3-10-1-18 6-25 6-7 14-8 23-4zm40-4c-8 0-17 1-25 1-1 0-2 2-2 2-1 4-2 8-2 12 1-1 2-1 3-1 7 0 14-1 21-1 5 0 6 3 4 8h-11c-13 0-22 7-25 18-2 10 3 19 13 20 6 0 12-1 18-2 4 4 10 1 16 2 3-13 6-25 7-38s-4-19-17-21zm-15 46c-2 0-5-1-5-3-1-1 0-4 1-6 3-5 10-7 16-4 0 11-6 14-12 13zm73-46c-6 0-11 2-15 5-1-2-2-4-3-5h-13l-11 59h14c1 0 2-2 3-3 0-3 1-6 1-9 2-8 4-15 6-23 2-5 5-8 11-9 1 0 2-1 3-1 1-5 2-9 4-14zm-4 30c-1 7-1 13 3 20 6 8 13 11 22 7 2 0 4-1 6-2 1 1 2 4 4 4h16l13-74h-17c-1 7-2 14-4 21-3-2-5-5-8-5-8-2-19-2-26 7-5 6-8 14-9 22zm25-15c7-4 12-1 13 7v2c1 7-2 12-6 16-6 5-14 3-15-5-2-6 2-16 8-20z"/></svg>