<svg width="64" height="64" viewBox="0 0 1000 1000" xmlns="http://www.w3.org/2000/svg"><path d="M848 492v-47l-7-3c-2-1-58-22-133-22-41 0-79 6-114 19l-12-52c29-4 50-9 50-9v-53s-27 6-62 10l-17-71h13V145h-44V52h-46v93h-43v119h12l-16 71c-35-4-63-10-63-10v53s22 5 51 9l-11 49c-33-11-68-16-106-16-75 0-131 21-133 22l-7 3v44c-22 4-36 12-36 24v453h333c12 10 29 17 48 17s36-7 47-17h326V513c0-10-12-17-30-21zm-267-48c-9 4-19 9-27 13l-16-65 30-3 13 55zm-25-107c-10 1-20 2-30 2l-18-75h31l17 73zm-44 3h-25l12-53 13 53zm-66-181h106v91H446v-91zm13 105h32l-18 75c-10 0-20-1-30-2l16-73zm-28 125c9 1 19 2 30 3l-15 61c-9-4-18-8-28-12l13-52zm69 541c-27-11-123-48-218-48-38 0-72 6-100 18V460c16-6 62-19 118-19 73 0 136 22 188 66v262l12-14v175zm4-438c-14-13-29-23-45-32l15-68c9 1 18 1 26 1h24l17 72c-13 8-25 17-37 27zm322 408c-31-13-66-19-105-19-95 0-186 37-213 49V755l12 14V507c52-44 115-66 188-66 56 0 101 13 118 19v440zM0 122l11 440 35-42 10-12L435 46 0 122zm358-14l-9 12-7 8-7 9-7 8-10 12-7 8-7 9-7 8-9 12-14 17-7 8-10 12-6 9-8 8-6 9-9 11-1-1-5 7-5 9-8 8-7 9-9 12-7 8-8 9-6 8-10 12-7 8-7 9-7 8-10 13-7 8-7 9-7 8-9 11-7 8-7 9-7 8-10 13-6 8-8 9-6 8-22 25-9-374 367-63-21 25-7 9zM82 367l180-218-185 32 5 186zm133-191L99 316l-2-120 118-20zM670 17l-87 83 330 345 87-84L670 17zm226 380l-10-11-22-23-48-50-15-16-32-33-16-17-10-10-12-12-10-11-14-15-22-23-11-11-15-16-11-11-11-12-10-10-14-15 56-54 301 314-56 54-18-18z"/></svg>