<svg width="64" height="64" viewBox="0 0 1000 1000" xmlns="http://www.w3.org/2000/svg"><path d="M856 114H144c-45 0-81 37-81 82v608c0 45 36 82 81 82h712c45 0 82-37 82-82V196c0-45-37-82-82-82zm0 690H429c-8-23-30-39-55-39H239c-25 0-47 16-55 39h-40V196h712v608zM571 298c-8 0-14 1-20 2l-49 119-48-119c-7-1-15-2-22-2s-15 1-22 2l-8 207c6 1 12 2 19 2 5 0 11-1 18-2l4-143 39 100c3 0 5 1 8 1h16c3 0 5-1 8-1l42-98 5 141c7 1 13 2 20 2 6 0 13-1 21-2l-10-207c-7-1-14-2-21-2zM295 657v-29h32c0-3 1-6 1-9s-1-7-1-10h-32v-23h40c1-3 1-7 1-10s0-6-1-9h-62v109h63c1-3 1-7 1-10s0-6-1-9h-41zm73-28c-1 3-1 6-1 10 0 3 0 6 1 9h63c1-3 1-6 1-10 0-3 0-6-1-9h-63zm0-31c-1 3-1 6-1 10 0 3 0 6 1 9h63c1-3 1-7 1-10s0-6-1-9h-63zm186-2c-5 0-10 1-14 4-3 3-6 6-8 9-4-9-11-13-24-13-2 0-5 0-7 1-3 0-5 1-6 3-2 1-4 2-5 4-1 1-2 3-3 4 0-1 0-1-1-2v-3l-1-3c0-1 0-2-1-3h-4c-1-1-3-1-4-1-2 0-4 1-5 1h-4v78c3 1 7 1 11 1 3 0 7 0 10-1v-41c0-4 1-7 1-10 1-2 2-4 4-6 1-1 3-2 4-3 2 0 4-1 5-1 4 0 7 2 9 5 1 3 2 7 2 12v44c3 1 7 1 10 1 4 0 7 0 11-1v-42c0-4 0-7 1-9s2-5 4-6c1-1 2-2 4-3 2 0 3-1 5-1 4 0 7 2 8 5 2 3 2 7 2 12v44c4 1 8 1 11 1 4 0 7 0 11-1v-49c0-11-2-18-7-23-3-5-10-7-19-7zm109 61c-1 1-3 1-4 2-1 0-3 0-4 1h-8c-6 0-10-2-14-6-3-3-5-9-5-17s2-14 5-18 8-6 14-6c3 0 6 0 8 1 2 0 5 1 8 2l3-9c0-3 1-5 1-7-2-1-4-2-6-2-2-1-4-1-5-2h-12c-6 0-11 1-16 3s-9 5-12 9c-3 3-6 8-7 13-2 5-2 10-2 16 0 5 0 11 2 16s4 9 7 13c3 3 7 6 12 8s11 3 17 3h11c3 0 8-2 12-3 0-4-1-7-2-10s-2-5-3-7zm47-43l5-6c2-2 3-4 5-6 1-2 3-4 4-6s1-4 2-6 1-4 1-6c0-3-1-6-2-8s-2-4-4-5-4-2-7-3c-2-1-5-1-8-1h-5c-1 0-3 0-4 1-1 0-2 0-3 1-2 0-3 1-4 1 0 2 0 4 1 5 0 2 1 4 2 5 1 0 1 0 2-1l3-1h6c3 0 6 0 7 2 2 1 3 3 3 5s0 3-1 5c0 1-1 3-2 4-1 2-3 4-4 6s-4 4-6 7l-13 17 1 1h40c0-2 1-4 1-6 0-1-1-3-1-5h-19z"/></svg>