<svg width="64" height="64" viewBox="0 0 1000 1000" xmlns="http://www.w3.org/2000/svg"><path d="M1000 133c-1 3-1 5-2 8-3 15-8 29-16 42-8 14-18 26-33 35-10 5-21 9-32 11-18 2-35 0-52-3-26-6-51-16-75-27-27-13-52-28-76-43-13-7-25-15-38-21-9-4-18-7-27-8-16-2-30 2-41 15-8 8-13 18-17 30-2 6-4 13-6 20-1 4-3 8-5 12-5 8-12 12-22 13h-6c0-2 1-2 2-2 8-3 13-9 16-17s3-16 3-24v-20c0-9 0-19 2-29 2-8 6-14 12-20 11-8 23-13 36-15 16-3 32-1 48 2 24 5 46 13 68 23 13 6 25 12 38 18 24 11 49 18 75 22 18 2 36 3 54 2 29-1 57-7 83-20 4-2 8-4 11-6v2zM538 567c4-1 8-1 13-2 11-3 22-7 32-12 3-1 3-1 4 2 3 11 5 23 4 34-1 18-8 33-20 46-11 12-25 20-41 26-4 2-8 3-13 4-1 1-2 1-2 3 0 10-1 20-2 31h1c7-3 12-8 14-15 1-6-1-11-6-14-1 0-1 0-2-1 1-1 2-1 3-1 7-2 15-5 22-8 3-2 7-4 11-7 2-1 2-1 3 2 7 14 7 28-1 41-5 11-13 18-23 24-6 4-13 7-20 9-3 1-3 1-3 4 0 8 0 16-1 25 0 0 0 1 1 2 7-2 11-12 7-18-1-3-2-5-4-6-1-1-2-2-2-3 1-1 2-1 3-1 7-2 13-5 19-8 2-2 2-2 4 0 11 11 13 23 8 37s-14 23-27 30c-3 2-6 3-9 4-1 0-1 0-1 2 0 10-1 20-1 30 0 1 0 1 1 2 5-4 7-9 7-15s-2-12-7-16c9-3 16-6 22-12 3 5 5 10 6 16 0 9-2 18-7 26s-12 15-21 22c-1 1-2 2-2 4v15c3-1 4-3 4-5 1-4 0-7-1-9s-1-2 0-3c4-2 6-5 9-8h2c3 4 5 8 6 13 0 7-2 14-6 20-2 4-4 7-7 10-7 8-10 17-11 27-1 11-3 23-3 35 0 2 0 4-1 5 0-2-1-5-1-7 0-14-2-28-4-42-1-10-1-20-2-30-1-6-1-13-1-19v-2c-3 0-4 2-4 4-1 3-1 5 1 7 1 2 2 4 2 6 1 10 1 20 2 30-1 0-1-1-2-2-3-5-7-11-10-16-4-7-7-15-8-23-1-6 0-12 3-17 3-4 7-7 13-8 2-1 2-1 2-3v-31c0-1 0-2-1-2s-1 0-2 1c-5 6-6 12-4 20 2 4 4 8 6 11-2 2-3 2-5 2l-6 3c-1 1-2 1-3 0-6-6-11-13-14-22-3-13 1-25 10-35 4-5 9-9 15-12 2-1 2-2 2-4 0-8 0-16-1-25v-1c-3 2-8 7-9 11-1 3 0 5 1 7 1 3 3 5 5 6 1 1 2 2 3 2-1 1-2 1-2 2-5 3-9 6-13 9-2 2-2 2-6 1-8-5-13-13-15-22-2-14 2-25 11-35 6-6 13-10 21-14h2c1-1 2-2 2-3-1-10-1-20-2-30 0-2 0-3-2-2-3 0-5 1-8 3s-4 5-4 9c1 6 4 11 8 14 2 2 4 3 5 4 0 1-1 1-2 2-8 3-16 8-22 14-2 1-3 1-4 0-8-6-14-13-17-23-7-18-3-34 9-49 8-11 20-17 32-22 4-1 4-1 4-5-1-16-1-33-2-49 0-3 0-3-3-3-4 0-9 0-13 2-12 3-17 13-15 25 2 13 10 22 22 26 1 1 2 1 2 1 0 1-1 1-2 2-10 5-19 11-27 20-3 2-3 3-6 1-13-7-23-17-30-31-5-10-8-20-7-32 1-5 2-10 5-15 10-18 24-31 42-39 9-4 18-7 28-7 2 0 3-1 2-4 0-14-1-29-1-44-1-12-1-25-1-37-1-5-1-5-6-5-11 0-22 1-32 4-6 2-11 5-16 9-7 7-10 16-9 26 1 13 7 23 16 30 9 8 20 13 31 16l5 1 1 1c-2 0-3 1-5 1-18 5-34 15-47 29-3 3-3 3-7 1-25-15-44-35-53-63-5-15-5-31 1-46 5-14 15-25 28-34 12-7 25-12 38-15 12-3 24-4 36-3 5 0 10-1 15-1 2 0 2 0 2-2 0-14-1-29-1-43 0-8-1-16-1-25 0-2-1-4-3-5-8-6-18-11-28-14-16-5-32-7-48-5h-8v-1c5-9 9-19 12-28 3-7 5-14 8-20 2-4 5-8 8-11 5-5 11-8 18-9 11-1 21 1 32 5 3 1 6 3 9 4 0-3-1-6-2-9-1-5-3-9-6-13l-5-9c-5-9-6-18-3-27 0-2 1-4 2-6 1-4 1-4-2-7-7-6-13-13-17-22-17-37 6-81 47-89 34-6 67 16 73 51 5 24-3 45-22 61l-1 1c-1 1-1 1-1 2 2 3 3 6 4 9 2 10 1 18-3 27-3 3-5 7-7 11-4 6-6 12-7 18v2c2 0 3-1 4-1 9-4 18-7 28-8 6 0 12 0 17 2 4 2 8 4 11 8 3 3 6 7 8 12l9 24c3 8 6 15 10 22v1h-9c-24-2-47 2-68 14-3 2-5 4-7 5-2 2-3 3-3 5 0 12-1 23-1 35 0 10-1 21-1 32v1c0 2 1 2 2 2 7 0 13 1 20 1 12 0 25 0 38-1s26-3 38-7c3-1 6-3 9-4 1-1 3-2 4-3 7-5 10-11 9-18-2-9-8-15-17-17-6-1-13 0-19 1-11 1-21 3-32 4-10 1-20 1-30-3-1 0-2 0-2-1 0-2 1-2 2-3 2-1 4-1 6-1h19c1 0 3 0 3-1 0-2-2-2-3-3-3 0-6-1-10-1-3 0-6 0-10-1-1 0-3-1-5-2l3-3c7-4 14-7 21-8 13-3 26-4 39-2 13 1 26 3 38 9 7 2 13 6 19 10 19 14 20 36 13 52-4 8-10 15-17 21s-14 10-22 14c-5 2-10 3-15 4-29 6-57 9-86 8-5 0-9 0-13-1-3 0-3 0-3 3-1 12-1 25-1 38-1 15-1 30-2 45 0 3 0 3 3 3 13-3 26-7 38-14 6-3 12-8 16-14 7-9 9-18 8-29s-7-19-16-24l-4-2c1-1 1-1 2-1 23 0 45-4 67-10 2-1 3-1 3 1 6 9 9 18 10 28 2 18-3 35-12 50-11 20-26 36-47 46-15 7-31 12-47 15-7 1-13 2-20 2-3 0-3 0-3 3 0 16-1 33-1 49v2c0 1 0 1 1 1 3 0 5 0 8-1 14-5 22-14 24-29 1-8-2-15-9-20-1-1-2-1-2-2zM0 132c1 0 2 0 3 1 21 11 45 19 69 22 20 3 40 3 61 2 34-4 66-13 97-28 20-9 41-19 63-27 14-5 28-9 43-11 15-3 30-3 45-1 11 3 21 7 30 14s13 15 15 26 1 21 1 32v19c1 5 1 11 3 16 3 8 8 15 17 18 0 0 1 0 1 1-9 3-20-2-26-9l-6-12c-2-7-4-14-6-20-3-10-7-20-14-28-6-9-14-16-25-19-9-2-18-2-27 0-10 3-20 7-30 12-12 6-23 13-35 20-24 15-48 29-74 41-21 10-42 18-64 23-14 4-29 6-43 6-18-1-35-4-50-14-14-9-24-21-31-35-9-15-14-32-17-49zm609 21c9-13 20-20 36-19 9 1 18 4 26 7 11 5 22 11 32 17 22 14 44 27 66 39 23 12 47 22 72 30 14 4 27 8 41 9 15 2 31 2 46-2h2c0 3-1 5-3 8-5 14-15 25-28 33s-27 13-43 16c-8 2-16 3-24 3-12-1-23-4-34-8-15-6-29-15-42-25-11-9-22-20-32-30-14-13-27-27-41-39-11-11-23-21-37-28-11-6-23-9-36-10-1 0-1 0-1-1zM70 234c4 0 8 1 12 2 10 2 21 2 32 1 28-3 55-12 81-23 27-12 53-26 78-41 12-7 23-14 34-21 11-6 22-12 35-15 6-2 13-3 20-3 9 1 16 4 23 11 2 2 5 5 7 9h-6c-13 2-26 6-38 13-12 8-24 18-35 28-12 11-24 23-36 35-11 11-22 22-35 32-10 8-21 16-34 21-16 8-32 12-50 10-22-2-42-8-60-21-13-8-22-20-27-34 0-1-1-3-1-4zm523-43c3-10 6-19 9-27 1-2 2-3 5-3 12 0 24 4 35 10 12 6 22 13 32 22s20 18 29 28c15 15 30 30 46 43 14 12 30 22 47 29 13 5 27 8 42 8 3 0 7-1 10-1h2v1c-7 10-16 19-26 26-9 5-18 9-28 8-8 0-15-2-21-5-12-6-21-13-31-21-14-12-27-26-40-40-13-15-27-29-42-43-10-8-20-16-32-23-9-5-19-10-30-11-1-1-2-1-3-1h-4zM150 300h5c18 2 35-1 52-8 15-6 29-16 43-26 15-13 29-27 43-41 13-13 25-26 39-37 10-8 21-15 32-21 10-4 20-6 30-6 2 0 3 1 4 3 3 8 6 16 8 25 1 2 1 2-2 2-7 1-14 3-21 6-13 5-24 12-34 21-15 11-28 25-41 39-14 14-27 28-40 41-10 9-20 19-32 26-7 4-15 8-23 10-12 2-23 1-33-5-9-5-16-12-23-19-2-3-5-6-7-10zm269-85c-4 0-7 0-10 1-12 3-21 9-29 17-8 7-14 16-20 24-7 11-14 23-21 34-5 9-11 18-17 26-4 5-9 9-13 13-13 10-26 13-41 8-7-2-17-7-22-11-1-1 0-1 0-1 15-11 28-23 40-36 16-16 30-33 47-48 10-11 21-20 34-29 10-6 21-11 32-14 3 0 6-1 9-1 1 0 2 0 2 2 2 5 5 10 9 15zm336 111l-1 1c-8 6-17 11-27 13-12 2-22 0-31-7-6-4-12-9-16-15-7-8-13-18-19-27-7-12-14-24-22-35-6-9-13-18-21-26-9-7-18-12-30-14-2-1-4-1-7-2 3-3 5-6 7-9 0-1 1-3 2-5 0-2 2-2 3-2 6 1 12 2 17 4 12 4 23 11 33 18 13 10 24 21 35 32 13 13 25 27 38 40 12 12 24 24 38 34h1zm-300-3c-3 2-6 2-9 2-4 1-8 1-13 2-1 0-3 0-5 1l-1 1c1 1 1 1 1 2h17c3-1 5-1 8 0 1 1 3 1 4 2s1 2-1 3c-4 1-7 2-11 3-9 1-18 1-27-1-10-1-20-3-30-4-6 0-11-1-17 1-9 3-16 14-13 23 1 4 3 7 6 10 4 3 9 5 14 7 9 3 18 5 28 6 4 1 9 1 14 2h2c-2 1-5 2-7 2-12 3-23 8-33 14-7 5-13 10-17 16-1 1-2 1-3 1-13-6-24-13-32-24-6-7-10-15-11-24-2-13 1-25 11-35 7-7 16-11 25-15 12-5 24-7 37-8 13-2 26-1 39 2 8 1 15 4 22 9l1 1s1 0 1 1zm-45-99c-9 10-13 23-17 36l-9 21c-2 4-5 8-8 11-6 6-13 8-21 7-3 0-7-1-10-2-1-1 0-1 0-1 8-13 15-26 24-38 5-8 11-16 19-22 6-6 13-10 21-12h1zm180 0c6 1 11 3 15 6 9 6 16 14 22 22 7 9 13 19 20 29 3 5 6 10 9 16-1 1-2 1-2 1-5 1-10 2-15 1-7 0-13-4-17-10-4-4-6-9-8-14-4-8-7-16-10-25-2-6-5-13-9-19-1-2-3-5-5-7z"/></svg>