<svg width="64" height="64" viewBox="0 0 1000 1000" xmlns="http://www.w3.org/2000/svg"><path d="M905 208H94c-17 0-31 18-31 37v510c0 19 14 37 31 37h811c18 0 33-18 33-37V245c0-19-15-37-33-37zm25 505H77V358h853v355zm-763-99c4-1 9-2 13-4 9-2 14-7 12-17-2-8-2-16-3-25 6 7 10 14 14 21 9 17 20 27 41 22 10-2 14-5 15-14 1-13 1-27 2-40 1-11 2-23 3-37 9 31 18 59 28 86 6 19 11 21 30 13l6-3c-11-48-23-95-34-142-4-20-8-24-28-26h-7c-6 0-10 2-13 8-12 28-21 56-25 87-10-19-20-39-31-58-5-9-35-11-42-2-1 1-1 3-1 4 2 39 3 78 5 116 0 9 6 12 15 11zm563-12c3 5 6 11 7 16l10 65c1 3 5 7 7 7 9 1 17 1 26 1 0-4-1-6-1-8-3-21-6-42-8-62 0-4 3-11 6-11 22-7 37-23 53-39 20-19 25-44 21-70-2-15-9-27-25-31-5-1-9-4-13-4-8-1-18-2-25 1-15 8-27 20-32 36-7 21-11 43-16 64-2 8 1 16-10 20-7 3-4 10 0 15zm81-112c13 33-3 69-37 88 6-33 11-65 37-88zM352 615c18 11 70 7 82-6-11-10-20-12-34-6-15 5-25 3-31-11-5-11-5-23-7-37 15 1 27 3 38 3 8 0 16 2 16-11-1-20 0-41-1-61-1-16-30-32-44-23-21 12-38 28-42 54-2 15-1 31-3 46-2 23 7 39 26 52zm22-114h2v34c0-1-8-1-14-2 4-11 8-22 12-32zm81 109c23 11 47 13 71 1 3-2 8-6 7-8-1-3-5-8-8-9-3-2-8 0-11 2-9 8-27 11-37 6-12-8-19-24-15-38h45c2-22 3-36 5-52 1-12 3-24 4-37 0-4-3-10-6-11-8-5-18-8-27-10-4-1-9 1-12 4-6 4-12 10-17 16-20 27-27 58-27 91 0 21 10 37 28 45zm24-109h3v43c-7 0-10-1-17-2 5-14 9-27 14-41zm56 53c7 1 15 1 23 2 1 12 2 23 3 34 1 12 3 23 4 37 8-2 17-3 24-5v-67c14-3 25-5 41-8l-18-18c-12-12-15-11-23 3-1-3-1-7-1-10 0-4 1-9 1-13-1-28-3-55-2-83 0-17-2-23-18-28-14-4-19 0-21 13-1 5-2 10-1 14 1 25 4 50 6 74 1 12 2 23 3 36-8 0-15-2-21-1-4 1-9 6-10 10-2 6 3 10 10 10zm107 48c7 19 43 22 55 5 10-12 22-24 28-37 6-14 9-29 9-44 0-5-13-11-20-15-4-2-11-3-13 0-3 3-4 9-4 14 2 27-1 53-26 75-1-21-3-40-3-58-1-25-1-26-24-35-10-3-15-1-15 10 0 10 0 19 1 28 3 19 6 39 12 57z"/></svg>