<svg width="64" height="64" viewBox="0 0 1000 1000" xmlns="http://www.w3.org/2000/svg"><path d="M580 520c-25-62-51-125-77-187-3-7-7-14-15-16-14-6-24-1-34 8-106 93-213 187-320 280-3 3-7 5-11 7-30 16-64 21-97 28-23 5-31 19-22 41 13 33 27 66 40 99 11 24 26 29 48 14 25-17 50-35 80-45 7-2 10-2 13 5 13 35 28 68 42 102 6 16 18 24 30 22 7-1 13-4 19-7 19-8 25-22 16-42-11-27-22-54-34-81-3-7-3-9 6-10 116-7 233-15 350-23 30-2 40-17 29-45l-63-150zM120 723c-13 10-26 21-41 32-10-25-19-49-29-72-2-5 0-6 4-7 14-1 29-3 43-5 4-1 6 1 8 5 5 13 10 26 16 39 1 3 3 5-1 8zm601-461c-14-13-29-24-46-34-11-4-21-1-30 6-10 9-10 18 2 25 65 44 113 100 138 175 19 58 19 117 7 176-2 14 4 21 18 19 16-3 24-11 28-32 23-134-14-246-117-335zm124-96c-18-16-37-30-57-42-15-6-27-2-38 8-13 11-12 21 2 31 82 54 143 125 173 220 24 72 25 146 10 220-4 19 4 27 22 24 20-3 30-13 35-40 29-168-17-309-147-421zM624 339c-12-6-28 0-35 9-7 11 0 17 8 24 58 53 84 120 80 199-1 13 6 19 20 17 15-2 23-11 24-26 4-80-21-148-77-206-7-7-14-13-20-17z"/></svg>