<svg width="64" height="64" viewBox="0 0 1000 1000" xmlns="http://www.w3.org/2000/svg"><path d="M413 713c-1-6-4-12-6-20 0 9 0 17 1 25 1 6-1 9-8 11s-15 4-25 7c10-1 17-1 24-1 7-1 12 1 13 9 1 7 4 15 7 25-1-9-1-17-1-24-1-9 2-13 10-15 7-1 13-3 22-6-9 0-16 0-23 1-9 2-12-3-14-12zM117 475c0 11 2 21 4 35 0-7 1-9 1-12 3-35 3-35 37-41 1 0 1-1 2-3-2 0-4-1-7-1-26-2-26-2-30-28-1-7-2-13-4-22-4 55 1 46-38 51 0 0-1 1-2 3 8 1 14 1 21 2 10 1 16 5 16 16zm-1 171c-1-8-2-16-4-27-6 66 0 56-46 62-1 0-1 1-3 3 9 1 17 2 25 3 12 1 20 5 20 20 0 12 3 25 5 41 0-7 1-10 1-14 4-42 4-42 45-49 1-1 1-2 2-4-3 0-5-1-8-1-32-2-32-2-37-34zm161-224c2-12 1-25 6-34 5-7 18-9 28-14-31-5-27 6-34-47-3 24 4 53-36 47 32 12 32 12 36 48zm136 153c-2-71-65-131-137-130-76 1-136 64-134 141 1 72 64 132 137 130 77-2 135-63 134-141zm-217-34c-16 16-19 31-9 52 3 5 4 10-2 14-5 3-8 1-11-2-17-24-11-60 11-77 5-3 10-6 14-1 5 6 2 10-3 14zm277 32c-9 4-21 11-27-3-6-13 7-15 15-20 79-42 158-84 236-127 36-19 72-39 108-58 0-1-1-2-1-3l-9 3-245 81c-37 12-74 24-112 36-5 1-11-3-17-5 3-6 5-11 9-16 1-2 5-3 9-5 119-53 239-106 359-159l140-62-2-4c-204 66-409 132-618 199 47 22 79 52 98 96 18 43 18 87 3 133 137-75 273-150 410-225-71 25-140 52-209 80-49 20-98 40-147 59z"/></svg>