<svg width="64" height="64" viewBox="0 0 1000 1000" xmlns="http://www.w3.org/2000/svg"><path d="M346 532c0 11 1 20 4 30 2 5 6 6 9 1l261-395c3-5 5-13 2-19-25-58-88-94-151-85-68 9-124 69-126 138-1 55 0 110 0 165s-2 110 1 165zm185 131c64-20 105-78 105-151V382c0-6-2-7-5-2L451 652c-3 5-2 11 4 12 24 6 50 6 76-1zm-246 11l43-65c3-4 4-12 1-17-9-22-14-45-14-70V373c0-4-5-7-11-7h-69c-5 0-10 5-10 10 0 54-2 107 1 160 2 52 18 98 48 138 3 5 8 5 11 0zm471-304v-2c-1-1-6-2-11-2h-69c-6 0-10 3-10 6v144c-1 11-1 23-3 34-11 80-85 146-165 148-21 1-41-2-60-8-5-2-12 0-15 5l-39 59c-3 5-2 11 4 13 15 6 31 12 49 16 3 0 8 4 8 6 1 16 1 32 1 49 0 6-5 10-11 10h-79c-6 0-11 5-11 10v69c0 6 5 10 11 10h269c6 0 11-4 11-10v-69c0-6-5-10-11-10h-80c-5 0-10-5-10-11v-45c0-7 3-8 9-10 117-26 202-121 210-240 4-57 2-115 2-172zm15-278l-35-24c-5-3-11-2-14 3L230 815c-3 4-2 11 3 14l35 23c5 4 11 2 15-3l491-742c3-5 2-11-3-15z"/></svg>