<svg width="64" height="64" viewBox="0 0 1000 1000" xmlns="http://www.w3.org/2000/svg"><path d="M828 801c-37-54-81-101-141-130-77-37-165-33-228 38-27 30-50 63-75 94-19 23-38 46-59 67-21 20-45 21-71 6-12-8-24-16-34-26-27-26-33-53-18-81 7-13 19-20 23-19 2 1 5 2 7 3 15 3 30 7 43-4 64-53 128-106 191-160 47-38 93-76 139-115 5-5 11-9 16-14 9-8 5-18-9-24-54-23-93-59-114-114-6-14-9-25-11-24-1 1-1 2-2 2-59 70-117 139-176 209-38 45-76 91-114 136-12 15-17 31-13 49 2 10 0 16-6 23-42 49-46 104-9 150 15 19 34 36 54 49 50 33 102 28 146-13 13-13 25-26 37-41 27-35 53-71 81-106 21-26 46-47 81-53 45-9 86 4 124 30 51 34 88 82 119 135 9 17 23 22 37 14 14-7 17-22 8-39-8-14-17-29-26-42zm14-492c9-25 12-54 9-84-9-93-92-173-190-161-20 2-38 8-56 17-13 7-16 25-7 38 55 82 125 148 209 200 12 8 30 4 35-10zm-50 71c5-4-2-13-15-21-84-55-156-123-212-206-9-13-17-20-19-17-1 2-3 4-4 6-44 73-28 172 36 231 59 55 144 60 207 14l7-7z"/></svg>