<svg width="64" height="64" viewBox="0 0 1000 1000" xmlns="http://www.w3.org/2000/svg"><path d="M359 1000H131c-21 0-32-11-32-32v-48c1-20 11-31 32-31h96c8 0 11-2 10-10v-5c2-10-1-14-12-13-16 1-31 1-47 0-15 0-23-8-23-23-1-11 0-23 0-34 0-18 7-25 25-25 53-1 107-1 161-1 76 0 152 0 228 1 22 0 28 6 28 28v45c0 6 1 7 7 6 93-16 162-101 158-195-4-95-69-169-162-186-6-1-11 0-16 4-33 22-68 24-103 4-46-27-92-53-138-80-15-9-17-17-8-32 41-71 82-143 124-214 8-15 16-17 31-9 43 24 86 49 129 74 14 8 16 17 8 31-12 20-23 40-35 60-2 3-8 8-4 12 4 5 8 11 17 12 69 7 130 34 182 80 62 54 100 122 110 204 15 115-21 213-106 291-52 48-113 76-184 83-48 5-96 2-144 3H359zm198-597c0-16-12-28-27-28s-27 12-27 28c0 15 12 27 27 27s27-12 27-27zm-87 119c0 3-2 6-4 10-11 20-23 40-34 61-8 13-17 15-30 8-44-25-87-51-131-76-12-7-14-16-7-28 11-20 22-41 34-61 7-13 17-15 30-8 43 25 86 50 130 75 7 4 12 9 12 19zM716 99c-5 11-11 24-21 33-4 4-10 3-15 0-9-5-18-10-26-15-6-5-10-4-13 3l-33 57c-3 5-5 7-11 3-19-11-39-23-58-34-6-3-6-6-3-11 11-18 20-37 32-54 5-9 3-13-5-17s-15-8-23-13c-10-6-12-12-6-23l12-21c5-7 12-9 21-5 46 27 92 54 139 81 5 3 10 7 10 16z"/></svg>