<svg width="64" height="64" viewBox="0 0 1000 1000" xmlns="http://www.w3.org/2000/svg"><path d="M835 336h96c4 0 7-3 7-6v-63c0-4-3-7-7-7h-96c-3 0-6-3-6-6v-78c0-3-3-6-6-6h-79c-4 0-7-3-7-6V71c0-3-3-6-6-6h-63c-4 0-7 3-7 6v93c0 3-2 6-6 6h-44c-4 0-6-3-6-6V71c0-3-3-6-7-6h-63c-3 0-6 3-6 6v93c0 3-3 6-7 6h-44c-3 0-6-3-6-6V71c0-3-3-6-6-6h-64c-3 0-6 3-6 6v93c0 3-3 6-7 6h-44c-3 0-6-3-6-6V71c0-3-3-6-7-6h-63c-3 0-6 3-6 6v93c0 3-3 6-6 6h-79c-4 0-7 3-7 6v78c0 3-3 6-6 6H69c-4 0-6 3-6 6v64c0 3 2 6 6 6h96c3 0 6 3 6 6v45c0 3-3 6-6 6H69c-4 0-6 3-6 6v63c0 4 2 7 6 7h96c3 0 6 2 6 6v44c0 4-3 7-6 7H69c-4 0-6 2-6 6v63c0 4 2 6 6 6h96c3 0 6 3 6 7v44c0 3-3 6-6 6H69c-4 0-6 3-6 7v63c0 3 2 6 6 6h96c3 0 6 3 6 6v81c0 3 3 6 7 6h79c3 0 6 3 6 7v94c0 4 3 6 6 6h63c4 0 7-2 7-6v-94c0-4 3-7 6-7h44c4 0 7 3 7 7v94c0 4 2 6 6 6h63c4 0 6-2 6-6v-94c0-4 3-7 7-7h44c4 0 6 3 6 7v94c0 4 3 6 7 6h63c4 0 6-2 6-6v-94c0-4 3-7 7-7h44c3 0 6 3 6 7v94c0 4 3 6 7 6h63c3 0 6-2 6-6v-94c0-4 3-7 6-7h79c4 0 7-3 7-6v-81c0-3 3-6 6-6h96c4 0 6-3 6-6v-63c0-4-2-6-6-6h-96c-3 0-6-3-6-7v-44c0-4 3-6 6-6h96c4 0 6-3 6-7v-63c0-3-2-6-6-6h-96c-3 0-6-3-6-6v-45c0-3 3-6 6-6h96c4 0 6-3 6-6v-64c0-3-2-6-6-6h-96c-3 0-6-3-6-6v-44c0-4 3-7 6-7zM618 611c0 3-3 6-6 6H388c-3 0-6-3-6-6V387c0-3 3-6 6-6h224c3 0 6 3 6 6v224zm-60-182H442c-7 0-13 6-13 13v116c0 7 6 13 13 13h116c7 0 13-6 13-13V442c0-7-6-13-13-13z"/></svg>