<svg width="64" height="64" viewBox="0 0 1000 1000" xmlns="http://www.w3.org/2000/svg"><path d="M729 261c25-17 50-33 75-50 4-2 7-4 11-7-2-1-2-2-3-2-2 0-5 0-7 1-39 7-71-2-95-35-22-33-51-58-86-77-69-37-140-35-212-9-48 18-93 43-125 85-57 74-61 154-23 236 16 35 40 66 62 97 11 17 18 32 9 52 0 0 1 1 2 3 15-5 31-10 47-16-1 19-7 36-18 55-20 35-48 62-76 91-45 46-80 97-97 160-9 31-9 62-8 93h512c-1-38-10-72-31-102-21-29-40-59-62-87-26-34-34-71-27-111 3-15 7-28 20-40 13 60 43 110 79 158 5-4 10-8 14-12 2 0 2-2 4-3-35-47-65-96-76-156 4-1 8-3 12-3 22 1 43 2 65 1 11 0 23-2 32-7 16-9 15-24 10-39-3-12-3-23 6-32 11-10 11-11 1-21 13-13 13-13 5-31 0-1-1-2-1-3-5-8-2-12 5-14 7-3 14-5 21-8 11-5 12-8 5-18-13-21-27-41-41-62-9-13-12-26-4-41 2-4 1-10 0-14-2-5-5-11-8-15-4-8-3-12 3-17z"/></svg>