<svg width="64" height="64" viewBox="0 0 1000 1000" xmlns="http://www.w3.org/2000/svg"><path d="M272 922c120 5 238 10 357 15V251H272v671zm233-397h16l-1 37h1l4-11 11-26h17l-18 36 17 46h-17l-11-34-4 6v27h-16l1-81zm-46-1l16 1-1 68h21v13h-37l1-82zm-30 0h16l-1 81h-16l1-81zm-74-1h17l6 30c2 10 4 19 5 28 2-9 4-18 6-28l7-29h16l4 81h-14l-1-28v-27c-2 8-4 18-6 25l-7 29-12-1-6-28c-1-7-4-17-5-26 0 9-1 19-2 27l-1 29-14-1 7-81zm375-252c-1-2-3-5-4-5-29-5-57-10-86-15v683c28-17 54-34 81-50 7-4 10-8 10-17-1-196-1-392-1-589 0-2 1-5 0-7zm-53-133H513c-8 7-13 15-20 19-23 15-48 19-75 15-24-4-28-15-13-35-26 0-51 0-75 1-3 0-6 3-7 6-16 28-32 56-47 84-2 4-4 7-7 12 3 0 5 1 7 1h348c6 0 9-3 11-8 13-29 26-59 39-88 1-2 2-5 3-7zm-153 59c-13 8-27 16-42 21-23 8-48 11-72 4-14-4-18-9-18-24v-31c36 25 105 7 122-23 5 13 12 24 15 37 2 4-2 13-5 16zm-107-70c5 0 11-1 17-2 21-6 42-9 63-1 5 2 10 3 16 3 53 1 107 1 161 1h9c1-2 2-3 2-3V87c0-21-3-25-24-25H354c-3 0-7 0-11 1-8 1-13 6-13 13-1 17 0 34 0 51h11c25 1 50 1 76 0zm225 115c29 5 58 10 89 15-15-39-29-78-44-118-15 34-30 66-44 99-1 1-1 2-1 4z"/></svg>