<svg width="64" height="64" viewBox="0 0 1000 1000" xmlns="http://www.w3.org/2000/svg"><path d="M894 318v-34c-9 4-14 6-18 8-69 44-108 105-110 188 0 14 0 22-20 20-40-6-76 6-111 25-15 8-17 16-10 32 44 92-20 193-122 189-44-2-74 16-101 44-11 11-21 15-35 15-83 0-145 38-190 106-15 23-13 26 14 26 225 0 450-1 675 0 26 1 29-9 28-30V318zM505 904c-21 1-37-15-38-35 0-22 14-37 35-38 22 0 37 14 38 36 0 20-15 37-35 37zm218-57c-24 1-42-17-42-40-1-25 18-44 42-43 24 0 41 18 41 42 0 23-18 41-41 41zm44-195c-17 1-29-7-31-25 1-19 12-30 28-31 17-2 28 9 29 28 0 17-10 27-26 28zm74-226c-11-1-17-8-17-18 0-12 7-19 19-19 11 0 18 7 18 19-2 12-9 19-20 18zm-187-81l5 1c37-67 74-133 111-200 33-59 32-59-34-81-14-5-20-3-23 12-11 53-23 105-35 158-8 36-16 73-24 110zM545 611c-54-12-108-25-163-37-43-10-42-9-44 36-1 12 3 17 15 16 64-4 128-8 191-12l1-3zm-39 78c-24 1-48 2-71 3-19 1-19 1-14 20 1 5 3 6 8 5 25-9 51-18 77-27v-1zm-62-312c-17-11-33-22-49-35-5-5-10-4-15 3-53 60-106 120-158 180-36 41-71 82-107 122-10 11-13 19 1 29 11 8 21 18 31 27 4 3 7 7 12 6 6-1 8-5 11-9l236-268 38-43c4-4 7-8 0-12zm205 20c-53-47-112-85-172-122-57-34-117-59-181-79-19-5-31-2-42 13-7 9-8 11 2 17 67 34 130 74 191 118 51 37 102 75 148 118 6 6 10 7 16 0 13-16 27-31 40-47 3-2 5-5 7-8-1-5-6-7-9-10zM482 245c16 9 33 18 48 29 11 8 14 0 20-6 6-7 7-13-1-20-13-11-25-22-38-33-3-2-5-5-11-4-9 3-14 13-21 20-6 6-5 10 3 14zm366 18c15-13-3-18-9-24-4-6-11-18-20-3-22 32-45 64-67 97l4 4c31-24 62-49 92-74z"/></svg>