<svg width="64" height="64" viewBox="0 0 1000 1000" xmlns="http://www.w3.org/2000/svg"><path d="M813 798c8-25 12-53 12-87 0-184-125-323-228-387-15-9-18-26-7-39 118-142 76-225 9-166-73 64-123-22-259-54-104-25 8 142 66 221 11 14 6 32-9 42-102 65-222 202-222 383 0 36 5 66 13 91 6 17 5 42-2 58-6 19-6 34 3 42 8 8 23 8 40 3s41-5 58 2c57 25 131 31 213 31 83 0 158-6 216-32 16-7 40-7 57-2 19 7 35 6 43-2 10-9 9-26 1-47-7-16-9-41-4-57zm-239-61c-12 15-29 25-52 30v44c-5 2-11 2-16 2-6 0-12 0-17-2v-40h-4c-8 0-16-1-22-1-7-1-13-2-19-3s-12-2-18-4-12-4-18-7c0-7 2-15 4-22 2-8 4-16 7-24 11 5 21 7 31 9 9 2 19 2 30 2 16 0 29-2 37-8 9-5 14-14 14-26 0-6-1-12-4-15-2-5-5-8-9-10-4-3-8-5-12-7-5-2-10-4-14-6l-20-8c-9-4-16-8-23-12s-13-9-18-14-9-12-12-19c-2-8-4-17-4-28 0-23 7-41 20-54 13-14 31-21 54-24v-41c5-2 11-2 16-2 6 0 11 0 17 2v40c10 0 20 2 30 4 9 2 19 5 30 9-2 15-6 29-13 43-4-1-7-3-11-4-4-2-8-3-13-4l-15-3c-6 0-12-1-19-1-5 0-9 1-14 1-4 1-8 2-12 5-3 2-6 4-8 8-3 4-4 9-4 15 0 5 1 9 3 13 1 3 4 6 7 9s6 4 10 6l12 5 23 10c10 4 18 8 26 12s15 9 20 15 10 13 13 21 5 19 5 31c0 21-6 39-18 53z"/></svg>