<svg width="64" height="64" viewBox="0 0 1000 1000" xmlns="http://www.w3.org/2000/svg"><path d="M926 426c-13-30-33-53-61-68-39-23-80-25-120-11-17-26-32-51-48-76 15-4 32-8 50-11l-1-2c-37-12-74-25-112-37 12-18 23-34 36-52-26 4-50 9-74 12-20 3-41 9-62 6-14-1-28-2-42-1-21 1-43 4-64 7-11-28-22-57-34-88-10 28-19 54-29 80-29-10-57-20-85-30l-1 1c23 26 45 52 68 79-41 29-70 67-89 113-86-29-153 17-179 66-30 57-18 127 27 171 42 41 122 61 191 7l45 32c-2 2-3 4-5 6-19 28-31 60-34 94-1 7 1 11 6 15 17 14 36 24 57 31 85 28 171 29 257 4 23-7 45-17 64-32 8-5 12-12 10-21-4-15-5-30-11-43-7-19-17-37-26-56 14-9 28-19 43-29 65 51 142 35 184-2 48-41 64-108 39-165zM138 564c-42-34-52-93-23-140 26-42 84-59 130-38-2 10-3 19-5 30-22-11-44-13-66-3-17 7-30 19-38 36-15 30-7 69 20 91 26 21 65 26 100-4l15 26c-34 32-95 33-133 2zm179-87c0-39 28-69 69-71 37 0 69 32 69 70s-32 70-69 70c-38-1-70-31-69-69zm147 156c-11-3-21-6-33-10 6-21 12-43 18-65 12 3 22 6 33 9-6 22-12 43-18 66zm72 0c-6-22-12-43-18-65 11-4 21-6 33-10 6 22 11 43 18 65-12 3-22 6-33 10zm81-87c-36 0-67-31-67-67s30-67 66-67 67 31 67 67-30 67-66 67zm249 15c-39 34-100 35-137 1 5-9 10-17 15-26 37 32 79 23 103 1 27-24 32-65 12-97-15-23-52-46-99-24l-5-30c40-22 99-5 127 35 31 44 24 105-16 140zM307 783s0 2 1 4c12 45 43 74 86 90 66 23 133 24 201 4 48-15 83-44 97-94 1-2 1-4 1-4-129 58-258 58-386 0z"/></svg>