<svg width="64" height="64" viewBox="0 0 1000 1000" xmlns="http://www.w3.org/2000/svg"><path d="M852 463c-9-62-46-110-79-161-21-33-58-51-84-80-6-7-20-9-12-23 1-1-1-5-3-7-3-4-7-8-11-12 4-2 9 1 13-2-4-8-12-11-19-15 5-2 8-3 13-5-13-13-29-15-45-17 10-9 10-11-2-15-8-3-17-5-26-6-14-1-23-6-31-19-14-21-33-38-60-39-31 0-58 11-76 38-1 2-2 5-4 5-14 1-10 13-8 18 8 21-3 35-15 49-8 7-16 14-16 25 0 10 1 19 11 26 8 8 16 12 27 9 3-1 7-6 11 0 3 5 5 10 2 16-7 11-6 11-3 21 2 4 0 9 0 14 6-1 7-7 12-5 0 10 2 21-1 31-8 28-17 56-25 83-5 14-10 17-24 11-13-6-28-9-42-7-20 2-39-1-57-7-27-10-56-7-84-9-7 0-12 3-16 8-14 17-31 31-43 50-10 16-11 17 2 31 4 6 7 14 16 13 11-1 21-1 32 0 8 0 9-4 7-9s-5-9-9-12c-6-4-12-6-17-10-4-3-10-9-3-13 15-6 24-18 36-28 3-3 6-4 12-1-13 10-24 18-35 28-3 2-6 6-3 9s6 1 9 0c18-6 37-9 52-22 2-2 4 0 6 0l53 12c26 6 51 18 79 16 4 0 8 0 10 4-6 8-14 10-22 14-13 7-24 15-30 29-8 21-16 41-29 59-7 10-8 22-9 34-1 5-1 11 3 13 5 2 6-5 10-8h2c4 4 5 8 5 13 0 11-3 22 13 28 18 7 28 9 41-7 4-5 7-10 4-16-1-2-2-4-4-4-7 1-8 7-10 12 0 2 0 4-3 4s-4-3-4-5c-1-9 0-19 3-28 7-21 17-42 17-65 0-9 5-13 13-18 14-7 27 10 39-1 27 4 52-2 78-6 12-2 24-3 37-4-3 5-7 6-11 6-8 1-10 4-4 10 7 7 11 16 20 22 2 2 4 3 3 6 0 4-3 4-6 4-23 5-45 9-69 10-15 1-29 2-41 14-3 4-9 7-14 9-13 5-11 15-12 25 0 9 4 16 12 20 8 3 17 6 26 9 3 1 5 1 7-2 1-3 1-6-1-8-2-1-7-1-3-5 8-11 20-17 36-20-6 6-9 10-13 14-2 2-5 6-2 10s7 2 10 0c14-9 28-17 41-26 5-4 10-5 16-5 20 2 40-1 59-8 5-2 10-3 15-1 18 8 34 19 49 35-24 5-47 12-71 8-22-4-43-12-66-6-13 3-32 14-36 24 13-1 23-15 40-9-4 2-5 3-7 4-22 8-38 23-50 43-5 7-2 24 4 24 14-1 28-5 42-7 0 0 1-1 1-2 15-17 34-24 55-22 10 1 18-1 27-2 21-2 39-12 59-17 20-4 38-11 57-16 15-5 19-17 10-31-6-8-13-17-19-26-4-5-12-11-8-16 3-4 13-2 20-1 3 1 6 2 8 3 14 12 29 10 44 4 7-2 15-3 22-5 4-1 6 0 6 5 7 71-2 138-40 200-34 53-77 95-139 114-46 14-93 18-140 15-21-1-41-5-58-17-8-6-16-12-25-15-11-3-15-13-22-20-9-7-22-8-27-20-1-2-3-3-6-1-9 5-14 10-11 21 3 10 7 19 13 26 28 30 61 50 101 57 41 6 82 3 122-3 47-8 92-20 130-49 89-68 136-159 141-271 2-36 1-72 0-109 1-13 3-26 1-39zM510 144c15 14 34 12 54 19-8 1-12 2-17 3 1 7 9 7 12 13-19 3-37 6-48 22s-15 34-16 54c-6-5-5-11-5-16-1-5 0-11 0-16-10-1-9 10-17 13-3-10 1-18 7-25 15-15 15-15 0-29 34-6 37-16 30-38zm-65-21c-4 2-7 4-11 0-1-1-1-4 0-7 0-5 6-5 8-4 13 6 27-3 40 1 5 2 9 2 13 6-6 4-11 6-19 3-10-5-20-3-31 1zm117 302c-12 3-24 5-37 6-17 3-35 6-54 10 1-20 13-34 20-50 6-13 13-27 11-42 0-8 2-10 9-7 6 3 11 6 16 10 11 10 10 14 1 25-12 12-17 26-14 43 1 6 3 9 10 5 6-3 14-4 21-5 17-1 19-4 17-20-1-3-1-6-2-9 7 3 9 8 11 13 6 12 4 17-9 21zm152-17c-9-7-19-11-30-15-5-2-10-3-9 7 1 18 8 35 6 54-1 8-11 19-19 20-3 0-7 0-8-3 0-3 3-4 5-6 17-11 17-11 11-30-2-10-6-21-6-30 0-25-22-41-25-64 0-1 0-2 1-6 7 16 12 30 22 42 2 3 4 5 9 6 15 1 27 11 40 18 2 1 4 3 3 7z"/></svg>