<svg width="64" height="64" viewBox="0 0 1000 1000" xmlns="http://www.w3.org/2000/svg"><path d="M440 545c17 9 46 8 60-6 19 15 38 15 59 7 5-2 11-6 9-12-1-5-5-11-10-13-20-8-40-8-58 6-17-14-39-13-58-6-4 2-8 8-9 12s4 9 7 12zm177-62c28 4 53-23 52-50-1-30-21-51-51-51-28 0-50 20-51 51-2 27 25 53 50 50zm134 138c-13-7-26-5-37 3-23 17-49 29-76 38-46 16-93 21-142 22-7 0-14-1-21-2-15-1-30 0-44-3-28-7-56-13-83-23-21-7-40-20-60-32-9-5-19-9-31-6s-20 10-24 22c-4 13-2 26 9 34 13 11 27 21 41 29 36 19 75 32 115 39 34 7 68 10 102 11 14-1 29-2 43-3 13 0 26-1 38-3 22-5 44-9 65-15 39-11 75-27 106-51 9-7 17-15 17-28 1-14-6-25-18-32zm172-300c-29-57-87-80-145-71C717 135 621 79 493 81c-121 2-212 59-270 168-30-3-60-1-88 14-29 15-51 38-62 70-3 9-7 18-9 28-1 11-3 24 0 44 2 13 8 25 13 37 12 27 31 47 57 60 8 4 16 7 24 11-6 13-12 27-16 41-10 29-13 59-11 89 4 53 24 99 57 140 26 34 59 60 96 82 33 19 68 33 105 42 13 3 28 6 43 8 20 3 106 12 222-21 18-7 35-15 51-24 24-13 46-28 67-46s39-39 55-62c21-32 36-67 41-105 6-49-2-96-24-140-1-1-1-2-2-4 44-15 75-44 88-88 12-35 10-71-7-104zM198 449c-20-1-38-8-51-24-19-24-20-56-2-82 11-17 38-29 57-26-2 17-5 34-4 50 1 24 5 47 8 71 1 7-1 12-8 11zm600 201c-5 30-16 57-34 81-21 29-48 53-79 71-37 22-76 36-118 44-30 5-59 7-89 5-54-4-105-16-153-43-32-18-60-41-83-71-18-22-30-47-37-75-9-39-7-78 9-116 12-28 28-53 50-74 10-9 12-16 9-28-7-26-8-52-6-78 4-48 18-92 49-128 18-21 39-38 66-46 24-7 46-1 67 10 28 14 43 39 49 70 1 5 1 11 1 17h3c-1-18 4-35 12-50 16-28 40-44 72-49 34-6 60 10 83 31 33 29 51 67 59 110 6 29 8 58 4 87-2 12-5 24-7 36-1 4-1 8 3 11 26 21 43 47 57 76 10 23 15 48 16 73 1 12-1 24-3 36zm15-202c-5 1-12 4-17-2-1-2-2-5-2-7 3-18 7-36 8-55 1-22-1-44-1-67 26-3 57 16 65 48 10 38-12 77-53 83zm-430 35c27 3 51-23 51-48 0-33-24-53-51-53-30 0-50 22-51 52-1 26 24 52 51 49zm78 436h1-1z"/></svg>