<svg width="64" height="64" viewBox="0 0 1000 1000" xmlns="http://www.w3.org/2000/svg"><path d="M217 567c-71-6-134 41-150 110-2 7-3 13-4 19v28c1 4 2 9 3 14 14 74 85 125 159 114 80-11 135-83 123-163-12-73-67-117-131-122zm-11 237c-51 0-93-41-94-94 0-51 41-93 94-94 51-1 93 41 94 92 0 54-41 95-94 96zm263-559c-18 2-36 5-55 7v50c15-4 32 0 43-13 2-2 4-3 6-5 20-14 41-23 65-19 11 2 22 7 34 10 16-24 19-50 7-78-9-24-25-42-52-48l-21-3h-9c-1 0-3 1-4 1-21 5-40 12-54 29-9 11-14 24-16 39 19-3 38-6 56-9v39zm171 437c7-57 37-97 92-117 36-13 73-15 111-14 2 0 6-1 8-2 12-12 13-34 4-47-3-5-6-7-11-6H711c-9-29-31-47-45-72-3 2-4 3-5 4-27 21-55 42-82 64-4 3-8 5-14 5-25-1-50 0-74-1h-46c-19-1-30 7-35 25-1 2-2 4-2 7-31-12-58-28-74-59 48-36 94-72 141-108l90 126c32-24 63-47 94-70-11-16-22-31-34-46-20-26-40-53-62-78-19-22-61-24-84-6-47 35-93 70-140 105-6 5-12 9-19 14-1-9-2-16-2-26-33 13-63 25-94 38-8 4-14 9-21 13-22 17-34 39-31 67 2 18 8 34 16 50 1 2 5 3 7 3 11 2 22 2 33 4 41 6 75 25 101 58 20 26 32 56 38 88 3 16 13 26 26 34 6 3 13 6 19 9 31 12 63 14 96 15 38 2 76 2 113 2h20c0-2 1-4 0-6-3-24-4-48-1-73zm155-115c-78 0-142 58-144 139-2 82 62 147 143 148 78 0 143-65 144-144 0-78-65-143-143-143zm-1 237c-52 0-94-42-94-94s42-94 94-94c52 1 94 42 94 94s-42 94-94 94z"/></svg>