<svg width="64" height="64" viewBox="0 0 1000 1000" xmlns="http://www.w3.org/2000/svg"><path d="M797 505c-11 0-21 1-31 4l-18-52c55-28 100-27 100-27l16 9 56 4c-33-39-166-32-166-32l28-5s-1-30-18-68c-18-37-37-59-37-59-2 2-3 4-4 6 1-26 1-51 3-77v-1c0-3 0-6-4-7-10-5-20-10-32-10-3 0-6 2-7 5-4 14-5 28-3 41-1-2-2-4-4-6-2-4-5-5-8-3-3-1-7 0-8 4-3 7-8 11-8 18-1 12 13 20 22 25 1 0 3 1 4 0 5 17 6 35 5 53-26 17-16 33-16 33l-5 8s-25-35-106 17-145 19-198 0c-54-19-251-24-251-24 97 15 140 94 140 94l-76-47c-34 4-25 39-25 39l140 86c28-10 59 20 59 20l29 52-40 11c-21-51-71-88-130-88-78 0-141 63-141 141s63 141 141 141c77 0 140-63 140-141v-15l56-10s2-2 16 12c6 6 14 7 22 6 13 4 43 13 77 13 27 0 56-5 83-22 40-25 64-70 71-135 18-19 36-35 54-47l16 47c-49 22-83 71-83 128 0 78 63 141 141 141 77 0 141-63 141-141s-64-141-141-141zM203 767c-53 0-97-44-97-98s44-98 97-98c40 0 74 24 89 57l-106 31 4 22 111-19v7c0 54-44 98-98 98zm380-138c-43 26-99 16-126 8 3-39 17-129 86-150 67-20 90 10 97 26-6 56-25 95-57 116zm125-314c-4 2-7 3-10 4 0-19-2-38-8-56 3 1 5 0 7-1 4-4 8-7 12-11 0 21 0 43-1 64zm89 428c-54 0-98-43-98-97 0-38 22-71 53-87l31 91c2 6 8 10 14 10h4c8-3 12-11 9-19l-30-91c5-1 11-2 17-2 54 0 97 44 97 98s-44 97-97 97zM475 628c128 23 148-90 148-90H496l-21 90z"/></svg>