<svg width="64" height="64" viewBox="0 0 1000 1000" xmlns="http://www.w3.org/2000/svg"><path d="M461 499v-2c0-7-5-13-12-13h-68c-7 0-13 6-13 13 0 1 1 2 1 3h-1c0 11-6 10-13 10H109c-12 0-16-4-16-16V340c0-13 5-17 16-16h90c10 0 19 0 19-16 0-14-9-13-18-13-61 0-121 0-181-1-16 0-19 6-19 20 1 142 1 283 0 424 0 16 5 20 20 19h424c13 0 18-2 17-16 0-76 1-159 0-235v-7zm-30 11c10 1 16 6 16 16 0 9-6 14-15 15s-19 1-28 0c-10 0-19-4-18-16s9-16 20-16h10c5 0 10 0 15 1zM30 324c10-1 19 0 28 0 11 0 20 5 19 16 0 11-8 16-19 16H45c-5 0-10 1-15 0-9-2-14-7-14-16s5-15 14-16zm31 403H35c-11 0-19-3-19-15-1-13 8-17 20-16h26c9 0 15 6 15 15s-6 15-16 16zm-4-61c-3-1-7 0-10 0v-1c-6 0-12 1-18 0-9-1-14-7-13-16 0-8 4-14 13-14 10-1 20-1 30-1 11 0 19 5 18 16s-9 16-20 16zm6-63c-6 2-12 1-18 1-5 0-10 1-15 0-9-2-16-8-14-18 3-17 17-15 29-15 13 0 28-3 32 14 3 11-5 16-14 18zm-1-62c-9 1-18 0-26 1-12 0-21-4-20-17 0-11 8-16 19-16h11c5 0 10 0 15 1 10 1 16 6 16 16s-7 14-15 15zm2-93c8 2 13 7 13 15 0 9-5 15-14 16H35c-11 1-19-3-19-15 0-13 8-17 20-16h28zm-1-31c-10 1-19 0-28 1-12 0-19-5-19-16-1-11 7-16 18-15h28c10 0 15 6 15 15 0 8-6 15-14 15zm291 310c-42-1-83 0-124 0-40 0-80-1-120 0-13 0-18-3-17-17V556c0-12 4-16 16-16h246c11 0 15 3 15 15-1 52-1 104 0 156 0 13-4 16-16 16zm75 0h-26c-10 0-17-5-17-15 0-11 6-16 17-16h26c11 0 19 5 18 16 0 10-8 15-18 15zm-1-61h-21c-12 0-21-4-21-17s10-15 20-15h24c10 0 18 4 17 15 0 11-8 16-19 17zm6-63c-6 2-11 1-17 1s-12 1-17-1c-9-2-14-7-14-16s6-14 13-15c12-1 23-1 35 0 8 1 14 7 14 16-1 9-7 13-14 15zm101-159h-17c-76 0-153-1-229 0-13 0-19-3-19-18 1-82 1-164 0-246 0-13 5-17 18-17 133 1 267 1 400 0 14 0 17 5 17 18v63-2 101c8-1 19-3 28-3v-1h2v-11c-1-59-1-118 0-176 0-16-5-18-19-18H262c-15 0-20 3-20 19v302c0 16 5 19 20 19 77-1 153-1 230 0 9 0 16 1 22 0 6-10 14-21 21-30zM379 291c25 1 48-23 47-47-1-25-22-45-47-44-26 0-45 19-44 45 0 25 20 46 44 46zm189 118c18-16 38-30 60-41l-75-114c-2-3-6-3-8-1l-58 82c-1 2-3 2-5 1l-53-26c-2-1-4 0-5 1l-85 90c-3 3-1 8 3 8h226zm188-39c-139-1-250 109-251 247-1 134 112 248 247 249 135 0 248-112 248-248 1-135-110-248-244-248zM596 647v-4c4-8 8-15 16-19 4-2 8-3 12-3 3-1 6 0 6 4 1 3-1 6-4 6-10 2-16 7-19 16-2 5-7 4-11 0zm25 31c-1 2-3 4-7 4-3 1-5-3-4-7 5-19 18-32 37-38 3 0 6-1 9-1 4-1 8 0 8 4 1 5-2 6-6 7-12 1-22 6-29 15-4 5-7 10-8 16zm192 26c-8 1-17 0-24-4-7-3-12-7-15-14-6-10-4-20 3-29s15-14 26-16c4-1 8-1 12-1 7 0 13 2 19 5h1c0-2 1-5 1-8l1-24c1-6 1-13 1-19 1-6 1-13 1-19 1-6 1-13 1-19 1-6 1-11 1-16 0-1 0-2-1-2-5 1-10 1-15 2l-17 2c-5 0-10 1-15 1-6 1-11 1-17 2l-15 1c-5 1-11 2-17 2l-14 2c-4 0-8 0-12 1-1 0-1 0-1 1 0 6-1 12-1 19 0 10-1 21-1 32-1 7-1 14-1 21l-1 29c-1 7-1 14-1 21-1 5-1 9-1 14-1 6-3 11-7 15-7 8-16 13-26 15-2 0-5 1-7 1h-5-1c-8 0-15-3-22-8-5-3-9-8-12-15 0-1 0-3-1-5v-6c1 0 1-1 1-1 1-6 4-11 8-16 10-9 21-13 34-13 7 0 14 1 20 4 1 0 1 0 1-1 0-5 0-10 1-16l1-30 1-23 1-30c0-8 0-16 1-24 0-8 0-17 1-25 0-1 0-1 1-1 5-1 11-1 17-1 8-1 17-2 25-2 9-1 17-2 26-2 8-1 17-2 25-2l30-3c11 0 21-1 31-2h4v8c-1 9-1 18-2 26v20c-1 10-1 21-2 32 0 9-1 17-1 26 0 11-1 21-1 32-1 8-1 17-1 25-1 4-1 9-2 13-2 6-6 10-11 14-7 7-16 10-26 11zm43 17c-1 0-4 0-5 2h-4c-6-6-5-9 2-12 8-2 13-7 15-15 0-4 2-6 6-6 5 1 5 4 5 8-3 11-9 18-19 23z"/></svg>