<svg width="64" height="64" viewBox="0 0 1000 1000" xmlns="http://www.w3.org/2000/svg"><path d="M911 746c5-15 5-30 5-46 2-30 3-59 5-89 1-38 3-76 4-114 2-32 3-63 5-94 1-39 3-78 5-116 1-23 1-46 2-70 2-31 3-62 5-93 0-8-1-17 1-26v-4c0-1-1 0-2 0-4 1-9 1-13 1-36 3-72 6-109 8-36 3-72 6-107 9-31 2-62 4-92 7-31 2-61 4-92 7l-92 7c-20 1-40 3-60 4-2 0-3 1-3 4-1 30-3 61-4 91-1 28-2 57-3 85-2 35-3 71-4 107-1 28-3 56-4 84-1 35-2 71-4 107-1 19-1 39-2 58 0 3-1 4-4 2-22-11-46-16-71-15-46 2-88 15-121 49-16 16-27 33-31 55 0 2 0 4-1 6v20c1 6 2 13 4 19 7 23 22 40 41 54 24 17 51 26 81 27 0 0 1 0 2 1h14c1-1 2-1 3-1 9 0 18-2 27-4 36-7 67-24 91-52 14-16 23-35 26-56 2-16 2-32 2-48 2-26 3-51 4-77 1-34 2-69 4-103 1-26 2-51 3-77l5-114c1-23 2-45 3-67 0-3 1-4 4-5 14-1 28-2 42-4 17-2 34-3 51-5l63-6 52-6c20-2 41-4 62-6l52-5c20-2 41-4 61-6l54-6c4 0 5 1 5 4-2 20-3 39-4 59-1 23-2 46-3 68-2 23-3 45-4 68-1 22-3 45-4 68-1 29-3 58-5 87 0 10-1 19-1 29-2 0-3-1-4-2-22-10-44-16-68-17-15 0-29 1-44 4-38 8-70 25-93 56-26 33-31 69-12 106 11 24 31 38 54 49 28 13 57 17 87 14 35-3 66-15 93-38 17-14 31-31 39-52zM109 576c11-1 17-11 15-23-2-13-11-17-24-16-14 2-27 6-40 12-30 14-52 37-59 67-1 6-2 11 0 16 9 21 33 18 39 1 11-34 33-53 69-57zm875 211c-15-2-21 7-24 21-6 28-24 46-51 55-27 8-36 31-10 42 5 2 11 2 15 0 8-3 14-6 21-9 34-16 57-42 64-81 3-13 0-25-15-28zM246 607c-3-16-16-18-30-15-11 1-21 3-32 6-69 20-113 65-133 133-5 17 3 28 15 28 15 0 21-7 23-17 6-21 16-40 29-56 27-33 62-50 104-55 14-2 27-7 24-24z"/></svg>