<svg width="64" height="64" viewBox="0 0 1000 1000" xmlns="http://www.w3.org/2000/svg"><path d="M525 727c-1-11-2-21-13-28-5-3-7-1-8 5-1 12 4 20 12 28 2 2 4 6 7 5 3-2 2-6 2-10zm412-81c-5-16-4-32-2-48 1-15-1-29-3-44-1-13-5-25-9-37-2-8-4-16-7-23-11-24-24-48-39-70-16-24-32-47-53-66-10-11-21-21-32-32-16-15-33-30-50-45-1 0-3-1-2-3 0-1 1-1 3-1l33-9c-6-22-12-43-18-65-2-4-3-4-6-2-10 7-20 13-30 20-3 2-4 2-4-2 0-9-1-19 0-28 0-6-2-7-7-7-21 0-43 1-64 1-3 0-5 0-7-2-6-6-12-11-19-17-10-9-19-19-30-27-15-13-31-23-50-30-16-6-33-8-50-10-7-1-13 2-19 3-10 2-21 2-31 3-7 1-14 1-21 1-9 0-17-2-26-3h-38c-8 1-16 1-23 5-13 6-26 13-35 26-7 10-10 20-12 32-1 8 1 16 2 24 0 2 0 3-2 5-7 5-13 11-21 16-17 11-32 24-48 37-17 15-35 29-51 45-14 14-29 27-37 46-3 7-6 13-3 21 4 10 4 21 2 31-6 22-18 40-30 58-10 16-21 31-29 49-8 16-11 36 7 52 6 5 13 10 20 11 11 2 12 2 8 13l-1 3c-3 15-3 30 1 44 1 4 1 6-1 8-4 6-6 13-3 21 2 7 5 13 8 20s2 14-1 21c-4 8-8 16-8 25 0 13 5 24 11 34 5 9 12 15 20 20 14 6 28 9 42 10 12 0 23 0 34-2 11-1 21-1 31-3 3 0 4 0 4 3 0 9 1 17 4 24 3 10 4 22 10 31 9 14 15 31 21 48 4 14 16 22 29 20 19-3 36-12 55-18 22-8 43-19 65-29 18-9 37-18 54-29 7-4 13-7 22-4 18 6 36 7 55 7 12-1 25-1 38 1 8 1 15 1 22 6 4 2 8 4 12 5 3 1 7 3 10-1 3-3 6-6 8-10 10-16 18-33 25-51 10-25 14-50 17-77 1-15 2-31 1-46 0-1 0-2 2-3v1c7 13 14 25 20 38 13 22 25 44 30 69 0 2 1 4 4 2 8-6 17-11 23-20 16-20 25-43 32-68 3-11 5-23 6-34 3-20 3-39 0-61 10 12 20 23 29 34 13 18 30 30 51 36 15 4 30 5 46 5 6-1 6-1 5-8zM723 240c8-6 15-11 23-17 3-2 5-2 6 3l7 28c0 2 1 3-2 4-9 2-18 5-27 7-3 1-3-1-3-2-2-5-4-11-6-16-1-3 0-5 2-7zm-36 53c-14 0-22-11-22-24s12-26 23-24c10-2 22 11 23 24 0 13-11 24-24 24zm68 407c-7-10-13-20-20-29-1-2-2-4 0-7l10-17c1-2 2-2 3-1l17 17c1 1 2 2 1 4-4 11-7 22-11 33zm-37-69c-3-7-5-13-8-20-1-2-2-3-1-5 7-8 13-15 20-24 3 12 6 24 9 35 0 3 1 6 2 9 3 9 1 16-3 23-3 3-4 7-6 12-6-10-9-20-13-30zm-21-90l22-22c2 10 3 18 5 27 1 8 2 16 4 24 0 3 0 6-2 8-6 7-12 14-18 22-2-7-4-14-5-21-3-11-5-21-8-32 0-2 0-4 2-6zm-3-4c-1-9-3-18-4-26-1-7-1-14-3-21 0-3 0-5 2-7 7-7 14-14 22-21 2 11 3 22 5 33 0 3 0 7 1 10 2 5 0 8-3 11-7 7-13 14-20 21zm71 118c-7-8-16-13-20-24-4-10-6-20-7-31-1-6-3-12-2-19 12 7 23 14 35 21 1 1 2 3 2 4-1 16-1 32-5 48-1 3-1 3-3 1zm7-59c-1 1-3-1-4-1l-30-16c-3-2-5-4-6-8-2-17-5-33-7-52 14 9 28 16 41 24 4 3 2 9 3 13 2 12 2 23 3 35 1 2 1 4 0 5zm-7-60c-1 0-2-1-3-1l-36-23c-3-1-3-4-3-6-3-14-5-28-7-42 7 2 13 7 20 11 6 2 11 7 16 9 3 2 5 4 5 8l8 41c0 1 1 2 0 3zm-11-57c-13-7-25-14-37-21-3-1-3-5-3-7-3-15-4-30-7-45-2-20-6-40-9-60v-1c1-3-2-8 2-9s5 3 6 5c7 14 12 29 17 44 5 16 13 32 17 49 4 15 9 29 14 45zm-52-81l6 42c0 3 0 6 1 9 1 5-1 8-4 11-6 7-12 13-19 21-2-10-1-18-2-26-2-35 0-69-1-104 0-5 0-12 5-12s6 7 7 12c2 15 5 31 7 47zm-1-204c3 0 4 1 4 5v31c0 3-1 4-4 4-11 2-19-3-25-13-6-9-14-17-21-27 16 1 31 1 46 0zM470 806c-13 6-25 15-38 22-26 14-53 25-80 35-12 4-23 8-35 11-4 2-9 2-13 1-5-1-9-3-12-10-4-12-10-24-16-36-9-16-14-34-15-53-1-11-2-11 9-14 18-4 35-10 51-19 17-10 33-21 40-41 1-3 2-5 1-8-6 3-7 9-11 13-11 13-25 21-40 27-16 7-32 13-49 17-15 3-30 6-45 6-9 0-18 2-28 2-15 0-30-3-45-8-22-8-26-34-20-50 6-14 6-30-2-45-6-10-5-18 1-28 1-2 3-3 6-2 21 2 41 1 62-6 8-3 17 0 18 11v2c2 3 2 8 7 7 4-1 4-6 4-10-1-7-1-14-8-19-4-3-8-8-8-15 1-9-4-13-13-13-4 0-9-1-13 0-4 0-8 0-8 5 0 4 3 6 7 6 2 0 5 1 8 2 1 0 3 0 3 2 1 2-1 3-2 4-6 4-12 4-18 6-13 5-27 3-41 3-5 0-8-5-8-10-1-14 2-28 5-41 3-10 8-14 18-14 12-1 23-3 34-4 12 0 24 2 34 8 4 2 7 7 9 11s5 7 7 11c1 2 2 4 4 3 2 0 3-3 3-5-1-7-3-14-7-19-6-7-14-13-21-18-3-2-4-4-4-7 2-26-24-40-41-39-8 0-12 5-13 14-1 8 2 14 9 16 4 1 8 5 12 2 2-1 5-1 4-4-1-2-2-4-5-4-2 0-5 1-8-1-2-2-5-5-4-8 0-3 3-5 6-6 5-1 10-1 14 2 6 3 11 8 14 13 7 12-1 21-12 22-21 1-41 5-61 7-8 0-16 1-24-3-6-4-9-10-10-17-1-12 4-22 10-32 14-27 31-52 46-79 7-14 13-29 8-46-7-21 3-36 17-49 10-10 21-19 31-29 16-15 33-28 50-42 16-13 33-25 49-38 3-2 5-2 8 1 8 7 18 13 27 19 8 7 15 14 20 24 6 15 15 29 18 45 3 17 4 33 2 50-1 6 0 13 0 19-1 15-4 30-6 44-1 11-3 22-4 33-1 12-2 24-2 36 0 25 4 49 11 73 7 25 18 48 29 71 3 5 6 8 13 8 23 0 35 24 30 43-2 11-3 21-7 31-1 2 0 3 0 5 14 30 27 60 40 90 2 4 4 6-2 9zm77-50c-4 1-7 0-11 0s-6 2-7 6c-5 13-16 21-27 19-12-3-21-11-24-24-6-22-10-44-10-67-1-15-4-31-12-44-8-14-18-27-27-40-16-22-29-46-38-72-3-8-4-17-4-25-1-13-1-27 0-40 1-19 2-37 5-55 4-24 8-48 10-72 1-8 3-17 3-25 0-20-3-39-12-57-8-17-15-34-22-51-4-10-5-22-5-33 0-7 7-16 15-18 16-6 29 0 42 9 12 7 23 14 36 18 17 5 32 2 47-9 7-6 15-11 25-11 9-1 18 2 23 10 8 12 12 25 16 39 3 7 6 14 10 21 2 5 7 7 13 8 9 0 19 1 28-5 2-1 5-1 6 1 1 3 0 5-3 7-13 8-26 8-40 2-10-3-14-13-19-22-6-15-9-32-19-44-8-11-15-12-26-5-9 6-18 13-29 18-10 4-21 3-32 0-18-5-32-16-48-25-7-5-15-8-24-4s-13 11-12 21c3 15 9 29 15 43s13 27 18 42c2 6 3 13 4 20 0 4 1 4 4 4 19-2 37-6 56-8 17-2 34-4 51-5 15-1 29-3 44-3 9 0 19 1 29 1 3 0 5 1 5 3 1 3-2 3-4 4-3 1-7 1-10 1h-51c-12 1-23 3-35 4-9 0-18 1-27 2-20 3-39 6-58 10-3 1-3 2-3 4 1 11 0 22-1 32-2 18-4 35-8 52-2 12-3 24-5 36-2 15-3 31-4 47s1 32 3 48c4 24 17 42 29 62 10 15 20 29 30 45 11 18 19 38 20 60 1 13 1 26 3 39 3 12 7 24 13 35 2 5 10 8 17 6 5-1 8-5 10-12 4-8-1-13-7-17-10-7-15-18-17-31-1-6 1-14 4-20 2-3 5-4 9-3 13 5 24 20 24 34v18c0 4-1 7 3 9 5 1 9 1 12-3 4-6 7-12 8-19 1-11-4-19-9-27-9-18-21-34-35-48-21-22-42-44-57-71-5-8-8-18-12-27-6-18-9-37-8-56l3-66c2-24 5-48 12-71 3-7 7-12 15-14 7-1 12 4 16 9 5 7 9 14 14 20 0 1 0 3 2 3 1-1 2-2 2-3 1-9 2-17 3-25 1-7 3-13 5-20 2-6 4-12 11-13 6 0 12 2 16 8 5 6 10 13 15 19 4-3 4-8 5-13 1-6 2-12 4-17 1-3 3-6 6-5 2 1 4 4 3 8-3 9-4 18-8 27-4 11-10 14-18 4-5-6-11-11-15-18-2-3-4-4-6-3-3 0-4 2-4 4-3 10-4 21-4 31-1 7-4 14-7 20-3 5-8 5-13 2s-9-9-12-14c-3-3-6-7-8-10-4-5-9-5-11 1-4 10-7 21-9 32-2 16-3 33-4 49-2 15-4 29-5 44 0 12 0 24 3 36 2 9 3 19 5 28 2 13 10 23 17 34 12 18 27 34 41 51 13 14 26 28 37 44 9 12 17 26 19 43 2 11-8 29-18 33zm18-195c-16 17-34 32-50 49-5 5-9 4-12-2-13-24-25-48-35-73 0-3 0-4 1-6 8-19 18-37 27-57 12-27 29-52 46-77 12-17 24-35 39-51 11-11 20-25 31-35 13-13 25-26 39-37 1-1 3-2 4-3 5 10 1 16-4 22-9 11-13 24-18 36l-9 24c-8 20-12 41-18 61-7 25-15 49-20 74-4 19-6 38-11 57-2 7-4 13-10 18zm117 127c-2 19-6 38-9 56-6 26-17 50-28 73-2 5-6 9-11 9-6 0-9-4-11-9-10-20-20-40-27-61-5-15-6-30-8-45-4-26-6-53-6-83-1-15 1-34 2-53 4-50 13-99 26-147 6-20 10-41 16-61 8-23 18-46 30-68 1-2 1-4 2-5 2-2 2-6 5-4 2 1 5 3 4 8-6 21-5 42-5 63 1 8 1 17 1 25 0 22 1 43 2 65 1 18 1 36 2 54 1 19 2 38 4 57 2 14 2 28 4 43 2 16 5 31 6 48 1 11 2 23 1 35zm116-66c-1 21-5 41-11 60-4 14-8 28-15 40-7 9-14 18-22 26-3 3-4 2-5-1-4-23-17-41-27-61-8-17-16-33-26-49-4-5-4-11-4-17-1-14-4-27-5-41-1-13-3-27-5-40-4-35-5-71-6-107s0-73 0-110c0-6 1-12 2-18 0-4 2-4 5-4 4 0 3 3 3 6-4 39-4 79-3 119 1 22 2 44 4 66 2 36 10 71 18 105 7 31 19 60 35 86 6 11 13 21 21 30 6-13 9-27 14-41 8-23 8-47 8-71-1-14-2-28-4-42s-3-28-7-43c-1-3-1-7-2-11 2 0 2 2 3 3 8 18 17 36 26 54 2 4 2 9 2 13 1 16 2 32 1 48zm123 23c-25-1-47-8-66-25-9-8-17-16-26-24-12-12-22-28-31-43-10-18-20-36-30-55-7-14-12-29-15-45-1-5-4-10-5-16-9-27-19-54-30-80-5-12-8-26-14-38-3-5-6-10-8-16 0-2 0-4 2-4 4-1 7-4 11-6l24 66c9 23 17 48 27 71 12 28 23 56 38 83 5 9 9 18 14 27 13 27 30 51 53 69 8 6 18 9 28 11 4 1 7 0 10 2 4 1 4 0 5-4 0-19-1-38-4-57-5-32-17-62-32-90-7-13-15-24-22-36-6-11-15-21-23-31-9-11-17-23-27-33-17-16-32-33-48-49-11-10-21-22-32-32-4-4-5-8-3-14 0-1 1-3 1-5 3 2 5 4 7 6 15 16 33 30 49 46 15 15 31 31 47 46 26 24 47 52 64 83 12 21 24 43 31 67 5 18 10 36 10 55v64c0 5-1 7-5 7zM797 481c4-8 6-16 8-24 1-2 1-3 2-3 2-1 2 1 2 2 12 21 24 41 36 62l2 5c4 7 3 14 0 21-4 8-6 17-9 27-15-22-28-45-40-69-3-6-5-13-1-21zm-5 3h-2c-4-9-9-17-12-26-6-12-10-25-16-37-4-10-2-20-1-30 1-3 2-7 3-11 7 13 14 25 21 37 5 8 10 17 15 25 3 4 4 9 2 14-3 9-8 18-10 28zm50 89l10-35 2-2c6 10 11 21 17 31 1 2 1 5 4 4 4-2 1-4 0-6-5-11-10-21-16-31 0-1-1-2-1-3 11 2 21 4 31 6 5 1 7 4 8 9 3 15 5 30 5 46 0 7 1 13 1 20 0 4-1 5-4 3-4-2-9-3-14-4-20-4-32-18-43-35-1-1 0-2 0-3zm40-42l-22-4c-6-1-8-6-11-10-11-20-23-40-34-59l-3-6c17 5 34 9 50 14 1 0 3 2 4 3 9 16 17 33 22 52v1c3 10 3 10-6 9zm-44-78c-8-2-16-5-25-7-6-2-8-7-11-11-11-19-22-37-33-55-1-1-1-2-2-4 13 2 25 3 35 8 6 3 10 11 15 16 8 10 15 20 22 30 7 9 13 19 20 29-8-2-15-4-21-6zm-40-75c-13-4-23-6-34-9-3-1-4-4-5-6-4-10-12-19-17-28-1-2-2-4-3-3-2 2-2 4-1 5 4 6 6 11 10 16l11 18c2 2 2 5 1 8-2 6-2 13-4 22-17-33-26-66-36-100 28 23 51 51 78 77zM687 253c-6 1-14 9-14 16s8 17 15 16c6 0 15-9 15-16s-9-16-16-16zM325 512c-9 8-15 19-18 30-5 13-5 26 2 38s17 19 29 22c-10-14-15-31-14-49s7-35 22-48c-9-1-16 2-21 7zm308-207l7-14-2-1c-13 19-29 34-43 52-11 13-21 26-31 40-11 16-22 33-33 49-12 18-23 36-32 56-6 11-11 24-17 36-4 7-5 14-1 21 4 9 8 18 13 26 4 9 7 18 12 27 2 3 4 5 8 1 5-4 9-8 13-12 12-11 23-22 34-33 5-4 8-8 8-15 1-6 2-11 3-17 3-19 8-37 12-55 6-27 12-53 20-78 9-28 17-57 29-83zM496 501c6-9 11-18 15-28 4-12 13-18 24-23 5-2 11-4 16-6-1 8-5 16-8 23-3 8-5 17-8 25-1 3-3 5-6 7-12 6-25 10-37 17 0-6 2-11 4-15zm53 58c-8 10-19 19-29 28-7 8-9 7-14-2-5-12-12-24-17-37-2-4-3-8-4-12-1-9 0-10 7-13 6-3 13-6 18-8l20-10c-4 16-8 29-12 43l-6 18c-1 2-2 5 1 6 3 2 4-1 4-4 6-17 12-35 18-53 6 9 11 18 16 26 6 10 6 9-2 18zm14-14c-10-12-19-23-22-38-1-3-1-6 0-8 5-15 10-29 16-45 6 10 10 18 15 27 4-1 2-5 5-7-7 23-9 47-14 71zm14-73c-5-10-10-19-15-27-1-1-1-3-1-4 8-17 12-36 22-53 3-4 6-9 7-15 1-1 1-3 0-4-2-1-2 1-3 2-6 7-9 15-13 22-6 10-11 20-15 31-1 5-4 8-9 10-8 4-16 8-23 12 28-46 59-89 95-128-19 49-33 101-45 154zm-368-50c4 0 8-1 11-2 13-2 26-5 38-9 3 0 7-2 7-5s-2-7-5-9c-15-9-30-17-44-27-7-4-8-7-3-18 3-6 6-7 13-4 12 6 24 13 36 18 13 5 25 4 37-4 3-2 6-5 5-9-1-3-5-4-9-4-22 1-41-8-58-22-10-7-21-14-33-12h-4c-10 0-20 2-27 10-3 3-4 6-2 10 2 3 3 6 5 8 3 4 2 6 0 9-3 3-5 7-8 9-4 4-2 6 1 8 5 3 9 5 14 7 2 1 4 1 3 5-3 8-3 18-1 27 1 2 0 3-3 4-5 0-10 1-16 2-3 0-6 1-6 4 0 4 3 4 6 4 5 1 10 1 14 0 3 0 4 1 4 5v13c0 2 1 4 3 5s3-1 5-2c5-4 8-10 10-16 2-4 4-5 7-5zm0-36c14 6 27 11 40 17-11 5-22 10-34 9-3 0-6 3-8 0s-2-7-2-11c1-4 2-8 2-12 0-2 0-3 2-3zm-10-25c-5-3-11-4-16-7-2-2-2-4 0-6 7-2 14-4 20-6 4 0 5 2 4 5-1 4-3 8-5 12 0 2-1 3-3 2zm225 288c-6-10-17-12-27-6-10 8-15 19-17 31-3 10-4 19-1 29 2 5 4 10 8 14 9 7 21 5 29-5 8-12 14-25 13-41 2-8-1-15-5-22zm-19 54c-3 3-6 4-10 2s-7-6-7-11c-1-3 0-5 0-6-1-14 4-23 13-31 7-7 17-2 18 8 2 15-2 28-14 38zm-97-244c-1-8-6-15-13-16-8 0-15 3-20 7-14 11-30 14-46 16-3 0-4-2-4-5 0-4 3-6 6-6 5 0 9-3 14-4 7-2 14-5 18-13 3-6 2-8-4-9-3-1-6-1-9 0-11 3-22 9-33 14-6 4-10 9-13 15-2 5-1 9 2 12s6 6 8 9c2 2 2 4 0 6-2 3-5 5-4 10 0 11 8 20 19 20 8 0 17 0 25-1 9-1 18-5 25-10 4-2 6-5 5-10-2-4-5-6-9-6-8-1-14 3-21 6-7 2-14 4-22 1-2-1-5-2-5-5s3-3 5-4c14-6 28-9 43-7 9-2 18 2 27-4 6-5 8-9 6-16zm-29-167c5 5 11 9 16 14 3 3 4 1 4-2 1-7-2-11-6-15-8-7-15-14-22-22-1-1-5-2-1-4 3-2 4-6 8-3 5 4 9 8 13 13 14 15 31 27 43 44 1 2 4 4 6 2 3-2 3-5 1-8-1-1-1-2-3-4-4-5-9-10-13-15-11-15-24-27-36-38-4-3-4-5 0-7 2-2 4-1 6 1 11 7 19 16 28 25 2 2 3 3 5 4 4 2 5-1 6-3 0-3-1-4-2-5-9-12-20-21-31-31-4-3-9-6-14-3-11 8-20 16-30 24-4 3-4 7 0 10 7 8 14 15 22 23zm-73 377c-1-1-3-2-5-2-10-4-21-8-29-15-4-2-7-3-11-1-3 2-7 5-11 5-3 0-3 2-3 5l-2 44c1 3 2 6 4 8 4 3 8 3 13 3 4-1 5-4 7-8 2 6 5 11 9 15 4 3 7 6 12 3 6-3 11-7 12-14 0-8-5-14-8-22 5 1 8-1 12-3 7-5 7-12 0-18zm458-74c-2-14-3-27-4-41-2-23-3-46-4-68 0-38 0-76-1-114 0-15-2-31-1-46 0-1-1-1-1-3-1 1-1 2-1 2-8 20-17 40-23 61-3 8-7 16-9 25-5 20-10 40-13 60-2 11-5 22-7 34-2 13-3 26-5 39-1 17-4 35-4 52-1 33 0 66 5 99 1 10 2 20 4 31 2 12 5 24 9 36 6 15 13 30 22 44 3-6 6-11 8-16 5-13 11-26 16-39 6-14 10-29 12-44 2-9 2-18 3-26 2-12 3-23 1-34-4-17-5-35-7-52zm-7-36c0 15 3 30 5 44 1 8 0 16 2 24-8-6-14-12-21-16s-12-9-16-15c-1-2-2-3-2-5-1-21 2-43 1-66 11 8 20 15 29 23 2 2 2 7 2 11zm-13-170c3-1 8 3 8 7v20c-1 25 0 51 1 76 1 14 0 28 2 41v7c-8-3-13-9-19-13l-1-1c-9-5-9-13-7-22 2-8 2-16 3-24 1-16 3-32 5-48 2-12 5-24 5-37 0-2 0-5 3-6zm-40 109c5-32 15-63 22-94 1-4 3-7 4-11 1-3 5-4 8-3s1 4 1 5c-4 21-6 42-9 63-2 16-4 33-5 49 0 4-1 7-3 9-6 7-13 12-20 17l-2-1c1-11 3-23 4-34zm-7 58c0-9 3-15 10-21 5-4 10-9 16-14l1 1c-2 19 0 37-3 56v12c1 5 0 9-4 11-7 4-11 11-19 14-2 1-3 2-4-2 0-19 2-38 3-57zm2 134c0-5-2-9-2-14 0-14-2-28-1-42-4-11 2-16 10-20 5-3 10-7 16-11 1 6 1 12 2 17 0 14 0 27 1 41v3c2 15 3 13-10 22-4 2-7 4-11 6-3 2-5 2-5-2zm64 23l-3 18c-4 10-13 14-22 5-3-3-5-8-8-12-2 11-6 15-15 15-4 0-7-3-8-6-5-9-6-19-7-30 0-2 1-3 3-4l22-13c2-1 3-1 5 0 10 6 20 13 30 19 3 2 4 5 3 8zm3-19v2c-2 7-2 6-8 4-9-4-17-11-25-17-3-2-5-5-5-8l-2-67v-4c11 10 21 19 32 26 7 4 8 9 9 16 1 16 0 32-1 48z"/></svg>