<svg width="64" height="64" viewBox="0 0 1000 1000" xmlns="http://www.w3.org/2000/svg"><path d="M764 62l-38 38c78 70 119 158 119 262 0 105-42 192-118 261l37 38c177-158 182-435 0-599zM156 361c0-105 42-191 118-261l-37-37C53 229 62 506 236 660c12-13 25-25 37-38-76-69-118-156-117-261zm583 0c0 76-32 138-88 187l38 37c142-122 134-335 0-446-12 12-24 24-37 36 55 50 87 111 87 186zM312 585l37-37c-55-49-87-111-87-187s32-137 87-186c-12-13-24-25-37-38-143 126-133 335 0 448zm76-74l36-38c-33-29-56-64-56-111s23-83 58-113c-7-7-13-13-20-19-6-6-12-12-18-19-98 81-98 220 0 300zm245-150c0 48-23 83-56 112 13 13 24 25 36 38 100-82 95-222 1-298l-38 37c34 29 57 64 57 111zm118 572C609 803 544 637 524 450c39-10 68-46 68-88 0-51-41-92-92-92s-91 41-91 92c0 42 28 77 67 88-5 36-9 71-17 106-31 147-97 275-210 378-1 1-2 2-3 4h510c-2-3-3-4-5-5z"/></svg>