<svg width="64" height="64" viewBox="0 0 1000 1000" xmlns="http://www.w3.org/2000/svg"><path d="M804 422c0-6-5-11-11-11H656c-6 0-11 5-11 11s-6 11-12 11H367c-7 0-12-5-12-11s-5-11-11-11H207c-6 0-11 5-11 11s-6 11-12 11H86c-7 0-12 5-12 11v3c0 7 5 12 12 12h98c6 0 11 4 11 10s6 10 12 10h44c7 0 12 5 12 11v87c0 6 5 12 11 12 7 0 12-6 12-12v-87c0-6 5-11 11-11h46c7 0 12-5 12-10s5-10 11-10h267c7 0 12 4 12 10s5 10 11 10h46c7 0 12 5 12 11v87c0 6 5 12 11 12s12-6 12-12v-87c0-6 5-11 11-11h44c7 0 12-5 12-10s5-10 12-10h98c6 0 12-5 12-12v-3c0-6-6-11-12-11h-98c-7 0-12-5-12-11zm-368-63h-31c-7 0-12 4-12 9s5 9 12 9h190c7 0 12-4 12-9s-6-9-12-9h-32c-7 0-12-6-12-12v-28c0-6 5-11 12-11h111c7 0 12-6 12-12V74c0-6-6-11-12-11H326c-7 0-12 5-12 11v222c0 6 5 11 12 11h110c6 0 11 6 11 12v28c0 6-5 12-11 12zm-84-101V112c0-7 5-12 12-12h272c7 0 12 6 12 12v146c0 7-5 12-12 12H364c-7 0-12-5-12-12zm197 610h110c7 0 12 6 12 12v28c0 6-5 11-12 11h-31c-6 0-11 4-11 9s5 9 11 9h191c6 0 11-4 11-9s-5-9-11-9h-33c-6 0-11-5-11-11v-28c0-6 5-12 11-12h112c6 0 11-5 11-11V635c0-7-5-12-11-12H549c-6 0-11 5-11 12v222c0 6 5 11 11 11zm38-207h273c6 0 11 5 11 12v146c0 6-5 11-11 11H587c-6 0-11-5-11-11V673c0-7 5-12 11-12zM102 868h112c6 0 11 6 11 12v28c0 6-5 11-11 11h-33c-6 0-12 4-12 9s6 9 12 9h191c6 0 11-4 11-9s-5-9-11-9h-31c-7 0-12-5-12-11v-28c0-6 5-12 12-12h110c6 0 11-5 11-11V635c0-7-5-12-11-12H102c-6 0-12 5-12 12v222c0 6 6 11 12 11zm38-207h273c6 0 11 5 11 12v146c0 6-5 11-11 11H140c-7 0-12-5-12-11V673c0-7 5-12 12-12z"/></svg>