<svg width="64" height="64" viewBox="0 0 1000 1000" xmlns="http://www.w3.org/2000/svg"><path d="M531 627l104-75c10 6 21 9 33 9 35 0 62-28 62-62s-27-62-62-62-62 28-62 62c0 3 1 5 1 8l-76 55V390l105-77c10 6 21 9 32 9 35 0 62-28 62-62s-27-62-62-62-62 28-62 62c0 3 1 6 1 9l-76 55V62h-61v139l-77-56c1-4 1-8 1-12 0-34-27-61-62-61s-62 27-62 61 28 62 62 62c11 0 21-2 30-7l108 78v172l-77-55c1-4 1-7 1-11 0-34-27-62-62-62s-61 28-61 62c0 35 27 62 61 62 12 0 22-3 31-8l107 78v184l-77-56c1-3 1-7 1-10 0-34-28-62-62-62s-62 28-62 62 28 62 62 62c12 0 22-3 31-8l107 77v185h60v-61l105-76c10 6 21 10 33 10 34 0 62-28 62-62s-27-62-62-62-62 28-62 62c0 2 0 5 1 7l-77 55 1-184z"/></svg>