<svg width="64" height="64" viewBox="0 0 1000 1000" xmlns="http://www.w3.org/2000/svg"><path d="M891 377C838 211 683 90 501 90c-184 0-339 120-392 287H63v246h46c53 166 208 287 392 287 182 0 337-121 390-287h47V377h-47zm-53 0H724c-4-26-10-52-18-77 24-10 47-20 71-30 27 33 47 68 61 107zm-98-145c-17 7-34 14-50 20-16-28-31-55-47-82 35 15 67 35 97 62zm-214-89c59 22 88 71 115 125-40 6-77 11-115 17V143zm0 191c15-2 31-3 46-5 26-4 52-9 77-14 5-1 9-1 10 5 6 19 10 37 14 57H526v-43zM357 170c-16 27-31 54-47 82-16-6-32-13-50-20 30-27 62-47 97-62zM223 270c24 10 47 20 71 30-8 25-13 51-18 77H162c14-39 34-74 61-107zm-74 150c4-1 9-1 13-1s9 0 14 1l61 102V420c6-1 11-1 16-1 4 0 9 0 13 1v160c-5 1-9 1-13 1s-9 0-14-1l-62-102v102c-5 1-9 1-14 1s-10 0-14-1V420zm13 203h114c5 26 10 52 18 77-24 10-47 20-71 30-27-33-47-68-61-107zm98 145c18-7 34-14 50-20 16 28 31 55 47 82-35-14-67-35-97-62zm215 87c-43-8-91-64-113-121 21-8 94-18 113-15v136zm0-189c-21 2-42 4-63 7s-41 8-62 12c-5 1-8 1-9-5-6-19-10-38-14-57h148v43zm-55-184c1 5 1 10 1 14 0 5 0 10-1 14h-46v42h60c0 5 1 9 1 14s-1 9-1 14h-93V420h91c1 5 1 9 1 14s0 9-1 14h-58v34h46zm55-105H329l11-55c2-7 4-8 11-7 39 10 79 16 120 18h4v44zm0-95c-39 0-76-6-114-15 20-57 75-117 114-122v137zm17 138c5-1 11-1 18-1h8c3 0 5 1 8 1l23 120 28-120c3 0 5-1 8-1h8c4 0 9 0 14 1l29 123 23-123c4-1 9-1 14-1h9c2 1 5 1 8 1l-39 160c-5 1-11 1-16 1-6 0-12 0-19-1l-25-106-28 106c-4 0-7 0-9 1h-9c-5 0-10 0-15-1l-38-160zm180 203c-4 19-9 37-12 56-2 5-3 7-9 6-42-7-83-14-126-21v-41h147zM525 855V715c39 6 76 11 114 16-18 54-70 117-114 124zm118-24c16-28 31-54 47-83 16 6 32 13 50 20-30 27-62 47-97 63zm134-101c-23-10-47-20-71-30 8-25 14-51 18-77h114c-14 38-34 74-61 107zm71-178c-3 6-7 12-12 16-6 5-12 8-20 11-7 2-16 3-26 3h-13c-4 0-8-1-11-2-3 0-7-1-10-2-4-1-7-2-11-4 0-4 1-9 2-13 1-5 3-10 5-14 6 2 12 4 17 5 6 2 12 2 18 2 9 0 16-1 22-5 5-3 8-9 8-16 0-3-1-6-2-9-1-2-3-4-5-6-2-1-4-3-7-4-2-1-5-2-8-3l-13-5c-5-2-10-4-14-7-4-2-7-5-10-8s-5-7-7-11c-1-5-2-10-2-16 0-8 1-14 4-20 2-6 6-11 11-15s10-7 17-9 14-3 22-3 15 1 22 2c6 2 13 4 20 6-1 9-3 17-7 25-2 0-4-1-6-2-3-1-5-2-8-3-2 0-5-1-9-1-3 0-6-1-10-1-3 0-6 1-8 1-3 1-5 1-7 2-2 2-4 3-5 6-2 2-2 5-2 9 0 3 0 5 1 7s3 4 5 5c1 2 3 3 5 4 3 1 5 2 7 2l14 6c5 2 10 4 15 7 5 2 8 5 12 8 3 4 5 8 7 13s3 11 3 18c0 8-2 15-4 21z"/></svg>