<svg width="64" height="64" viewBox="0 0 1000 1000" xmlns="http://www.w3.org/2000/svg"><path d="M533 779c-67-18-119-58-153-119-29-52-38-107-26-165 17-89 70-151 151-190-58-17-115-12-171 7-87 30-151 87-188 171-78 173 7 373 184 436 181 64 351-47 398-170-63 37-127 47-195 30zM278 159c2 3 4 6 3 10l-4 36c-1 9 8 16 16 11l32-19c3-1 7-2 10 0l33 16c8 4 18-4 16-13l-8-35c-1-4 0-8 3-10l25-27c6-7 2-17-7-18l-37-4c-3-1-6-3-8-6l-18-32c-4-8-16-7-19 1l-15 34c-2 3-5 5-8 6l-36 7c-9 1-12 13-6 19l28 24zm602 529c6-7 2-18-7-19l-36-4c-4 0-7-2-9-5l-17-33c-5-8-16-7-20 1l-15 34c-1 3-4 6-8 6l-36 7c-9 2-12 13-5 19l27 25c3 2 4 6 4 9l-5 37c-1 9 9 15 17 10l31-18c3-2 7-2 10 0l34 15c8 4 17-3 15-12l-8-36c0-3 1-7 3-10l25-26zM489 517l18 16c2 2 3 4 3 7l-3 24c-1 6 5 10 11 7l21-12c2-1 4-1 6 0l23 10c5 3 11-2 10-8l-5-24c-1-2 0-5 1-6l17-18c4-5 1-12-5-12l-24-3c-2 0-4-2-5-4l-12-21c-3-5-11-5-13 0l-10 23c-1 2-3 4-5 4l-24 5c-6 1-8 8-4 12zm264 23c1 1 2 3 1 4l-2 17c0 4 4 7 8 5l14-9c1 0 3-1 5 0l15 7c3 2 7-1 6-5l-3-16c0-2 0-4 1-5l11-12c3-3 1-8-3-8l-16-2c-2 0-3-1-4-2l-8-15c-2-4-7-3-9 0l-7 16c0 1-2 2-3 2l-16 4c-4 0-6 5-3 8l13 11zM561 224c1 1 2 3 2 5l-3 21c0 5 5 8 9 6l18-11c2-1 4-1 6 0l19 9c4 2 9-2 8-7l-4-20c0-2 0-4 2-5l14-15c3-4 1-10-4-11l-21-2c-2 0-3-1-4-3l-10-18c-3-4-9-4-11 0l-9 19c0 2-2 3-4 4l-20 4c-5 1-7 7-3 10l15 14zm-393 91c2 1 2 3 2 4l-2 14c0 4 3 6 6 4l13-7c1-1 2-1 3 0l13 6c3 1 7-1 6-5l-3-13c0-2 0-3 1-4l10-10c2-3 1-7-3-8l-14-1c-1 0-2-1-3-2l-7-12c-1-4-6-3-7 0l-6 13c0 1-2 2-3 2l-14 3c-3 1-4 5-2 7l10 9z"/></svg>