<svg width="64" height="64" viewBox="0 0 1000 1000" xmlns="http://www.w3.org/2000/svg"><path d="M247 441c-10 0-18 8-18 18v84c0 10 8 18 18 18h207L333 441h-86zm403 101V441H549l101 101zm94-101h-70v120h70c10 0 17-8 17-18v-84c0-10-7-18-17-18zm65-250c-40-41-87-72-139-94-54-23-111-35-170-35S384 74 330 97c-52 22-99 53-139 94-41 40-72 87-94 139-23 54-34 111-34 170s11 116 34 170c22 52 53 99 94 139 40 41 87 72 139 94 54 23 111 35 170 35s116-12 170-35c52-22 99-53 139-94 41-40 72-87 94-139 23-54 35-111 35-170s-12-116-35-170c-22-52-53-99-94-139zM500 848c-93 0-180-36-246-102-65-66-102-153-102-246 0-78 26-152 72-212l488 487c-60 47-134 73-212 73zm276-136L288 224c61-46 134-72 212-72 93 0 180 36 246 102s102 153 102 246c0 78-26 151-72 212zm-77-307c8 5 15 10 23 16 3 2 7 1 8-2 0-1 0-2 1-2 6-23-4-49-20-67-15-18-36-30-58-39-12-5-23-10-35-14-11-4-23-8-33-14-3-2-7 0-8 4v4c0 20 13 40 27 55 14 14 31 25 49 35 1 1 3 1 4 2 14 7 28 14 42 22z"/></svg>