<svg width="64" height="64" viewBox="0 0 1000 1000" xmlns="http://www.w3.org/2000/svg"><path d="M715 642H71c-5 0-9 4-8 9 0 5 1 10 2 15s6 9 11 9h634c5 0 10-4 11-9l3-15c0-5-4-9-9-9zm-10 54H81c-5 0-8 4-7 9 14 47 38 89 69 124 4 4 11 7 16 7h468c5 0 13-3 16-7 31-35 55-77 69-124 2-5-1-9-7-9zm-99 161H180c-5 0-6 3-2 6 9 8 19 15 29 22 5 3 12 5 18 5h337c5 0 13-2 18-5 10-7 19-14 28-22 4-3 3-6-2-6zM345 359c3 25 4 50 1 75-3 28-5 56 1 84 6 31 4 62-3 92h-33c1-7 1-14 1-21 1-25 2-50 2-75 0-29 0-58 1-87 0-18 4-38 0-55-10-48 2-94 2-142h33c0 15 0 29-2 43-5 29-6 57-3 86zm151 252c-10 0-18-1-26 0-7 0-11-3-11-10 0-29-3-58 0-87 2-29 3-57-1-86-3-20-4-41-1-61 5-31 6-62 0-93-2-12-2-24-1-36 0-3 4-8 6-9 8-1 16 0 24 0 1 13 1 25 3 35 4 33 8 66 3 99-4 23-5 46-2 69 4 29 5 58 1 88-3 21-1 42 0 63 0 9 3 17 5 28zM392 456c-1 13-1 25 0 37 1 26 4 52 5 78 0 13-3 26-5 40h-34c0-7 0-13 1-18 7-28 5-55 3-84-3-26 0-53 0-80 1-21 1-42 1-62-1-22-4-44-4-66s3-43 6-64c0-2 4-7 6-7 8-1 16 0 25 0 3 52-10 102-1 153 5 23-2 49-3 73zM263 587c1-24 1-48 1-71 0-20-5-40-1-58 6-34 4-66-2-99-2-9-2-19-1-28 6-33 12-66 1-101h31c1 15 2 28 2 41 1 32 1 64 1 96 1 21 0 42 0 63v94c1 22 2 45 2 67v19h-37c1-9 3-16 3-23zm271-151c0 24 4 49 1 73-4 30-6 59 2 89 1 4 1 7 1 12h-26c-8-36-9-71-3-107 3-14 3-30 2-44-3-33-10-66-3-99 6-30 4-58-1-87-3-14-2-28-2-43h24c2 19 2 37 6 54 4 26 3 51 0 77-2 25-1 50-1 75zm-89 174h-27c-7-32-10-63-4-95 6-28 4-55 0-83-2-24-2-48 1-71 4-30 3-60-2-90-2-13-1-27-1-41h24c1 14 1 26 3 38 4 31 7 61 3 93-4 24-5 49-2 73 4 29 6 57 0 86-5 23-4 47 2 71 1 6 2 12 3 19zM73 237v17c0 5 3 9 8 9l137 2v-37H81c-5 0-8 4-8 9zm856-9H568v43l361 6c5 0 8-4 8-9v-31c0-5-3-9-8-9zM82 199l848-40c4 0 8-4 8-9l-2-31c0-5-4-9-9-9L80 163c-4 1-8 5-8 10l1 17c1 5 4 9 9 9z"/></svg>