<svg width="64" height="64" viewBox="0 0 1000 1000" xmlns="http://www.w3.org/2000/svg"><path d="M834 724c-62-8-123-20-185-23-82-5-164-8-245-4-80 5-159 20-239 30-4 0-12-4-14-8C100 631 50 543 1 454c-3-6 2-20 7-25 23-18 47-36 72-50 80-44 166-75 255-93 169-33 333-15 491 50 50 21 97 51 145 77 8 4 14 11 20 16 11 9 11 18 5 30-50 86-98 172-148 258-2 5-8 8-12 13-1-2-1-4-2-6zM540 337h-83v96c-29 0-55-1-82 0-5 0-14 6-14 9-1 24-1 48-1 74h98v96h81c0-3 1-5 1-6v-57c0-34 0-34 35-34h62v-83h-97v-95zM181 696c-3-6-4-10-7-15-28-53-57-106-86-159-14-26-29-51-45-76-2-3-9-3-13-5-2 5-4 10-4 16 0 2 3 5 4 8 28 49 55 98 83 147 15 28 30 57 46 85 2 4 9 7 14 8 2 0 5-6 8-9z"/></svg>