<svg width="64" height="64" viewBox="0 0 1000 1000" xmlns="http://www.w3.org/2000/svg"><path d="M326 279c6 14 14 26 16 40 8 40 26 75 53 105 17 18 16 38 10 57-5 17-3 29 8 42 15 17 29 34 50 45 24 13 57 10 84-11 21-17 38-39 53-62 3-4 2-7 1-11-1-5-2-9-3-14-4-19 1-34 14-49 26-29 43-64 51-103 3-14 11-25 18-38v15c-8 49-2 98 7 147 3 19 10 39 18 58 5 11 16 11 24 14 32 13 62 27 90 44 26 16 39 40 49 68 14 42 27 85 35 130 10 48 13 97 10 147-1 21-14 34-33 41-42 16-87 28-132 38-26 5-53 9-79 14-20 4-40 4-60 4-52 0-105-1-157 0-50 1-100-4-149-13-52-10-102-21-151-38-14-4-28-9-41-15-21-9-24-28-26-47-2-29 3-58 6-87 4-39 11-77 21-115 9-36 20-71 39-103 16-25 41-38 69-48 22-9 45-17 68-25 5-2 9-5 11-11 14-35 21-71 25-108 3-33 4-65-1-97 0-4-1-9 2-14zm147 578v25c0 8 1 10 10 10h36c8 0 10-3 10-11-1-14 0-28-1-43 0-8 3-12 12-12 14 1 29 0 43 1 8 0 11-3 11-11 0-12-1-24 0-36 0-8-4-10-11-10h-41c-10 1-14-3-14-14 1-14 0-28 1-42 0-6-2-9-9-9h-38c-7 0-10 2-10 10 1 14 0 29 1 43 0 9-4 12-12 12h-31c-23 1-23 1-23 23 0 33 0 33 33 34 11 0 24-5 30 2 7 6 2 19 3 28zM368 233c-14 0-27 0-41 1-9 0-13-4-13-13-1-23-2-47 1-69 7-55 36-116 108-138 32-10 65-17 98-13 63 8 118 31 148 91 20 38 20 81 18 123 0 4 1 8-6 6-6-1-7 7-8 11-1 6-3 7-9 4-28-14-46-37-57-65-3-7-4-9-12-3-49 34-105 54-165 62-21 3-41 4-62 3z"/></svg>