<svg width="64" height="64" viewBox="0 0 1000 1000" xmlns="http://www.w3.org/2000/svg"><path d="M937 643c-6-27-23-46-49-55-25-8-48-4-69 13-14 12-24 28-32 44s-16 33-25 48c-12 21-35 32-54 27-21-6-32-22-35-43-4-27-7-54-11-82-1-10 4-16 14-20 15-5 28-13 39-23 23-21 34-49 48-75 12-25 30-44 55-56 19-9 36-7 50 7 14 13 20 29 13 47-2 7-6 13-10 17 4-5 6-11 6-18 0-16-13-28-28-28s-29 13-29 28c0 16 13 29 29 29 11 1 21-2 29-11 16-16 19-34 11-53-8-22-24-37-48-40-23-2-42 6-60 18-18 13-32 28-46 45-24 26-50 48-88 57 7-11 17-15 23-24 19-27 23-59 26-90 3-28 6-55 25-77s50-18 63 7c-5-5-12-9-21-9-15 0-28 13-28 28 0 16 13 29 28 29s29-13 29-29c0-1-1-3-1-4-3-36-31-56-62-45-15 6-26 17-34 31-13 19-19 42-24 64s-13 43-29 60c-11 10-23 16-40 14 18-40 37-78 48-120 20-74 8-140-48-194-29-28-63-45-102-44-39-1-73 16-102 44-56 54-68 120-48 194 11 42 29 80 48 120-17 2-29-4-40-14-16-17-24-38-29-60s-11-45-24-64c-8-14-19-25-34-31-31-11-59 9-62 45-1 1-1 3-1 4 0 16 13 29 29 29s28-13 28-29c0-15-13-28-28-28-9 0-16 3-21 9 13-25 44-29 63-7s22 49 25 77c3 31 7 63 26 90 6 9 16 13 22 24-37-9-64-31-87-57-14-17-28-32-46-45-18-12-38-20-60-18-25 3-40 18-48 40-8 19-5 37 11 53 8 9 18 12 29 11 16 0 29-13 29-29s-13-28-29-28-28 13-28 28c0 7 2 13 6 18-4-4-8-10-10-17-7-18-1-34 12-47 15-14 32-16 51-7 25 12 43 31 55 56 14 26 25 54 47 75 12 11 25 18 40 23 10 4 15 10 14 20-4 28-7 55-11 82-4 21-14 37-35 43-19 5-42-6-54-26-9-16-17-33-25-49-9-16-18-32-32-44-21-17-44-21-69-13-26 9-43 28-49 55-7 36 31 72 63 61 12-3 21-14 21-28 0-15-12-28-28-28s-29 13-29 28c0 5 2 10 4 14-21-17-23-43-7-63 20-24 51-29 73-11 12 10 19 23 25 37 9 21 15 43 26 62 36 60 114 61 150 1 8-13 14-29 18-44 2-8 5-15 7-24 6 5 4 10 3 15-5 43 0 86 10 128 11 45-34 87-78 73-17-5-30-22-32-39 4 10 14 18 26 18 15 0 28-13 28-29v-3c-2-14-14-25-28-25-4 0-7 1-10 2-19 6-30 26-25 47 8 36 43 56 81 47 40-10 66-43 71-88 4-28-3-56 3-84 1-7 2-13 3-20 9-37 27-53 62-53 34 0 53 16 61 53 2 7 2 13 3 20 6 28 0 56 3 84 5 45 32 78 71 88 38 9 73-11 81-47 5-21-6-41-24-47-4-1-7-2-10-2-15 0-27 11-29 25v3c0 16 13 29 29 29 11 0 22-8 26-18-3 17-16 34-33 39-44 14-89-28-78-73 10-42 15-85 10-128-1-5-2-10 3-15 3 9 5 16 7 24 4 16 10 31 18 44 37 60 115 59 150-1 11-19 17-41 26-62 6-14 13-27 25-37 22-18 54-13 73 11 17 20 14 46-7 63 3-4 4-9 4-14 0-15-13-28-29-28s-28 13-28 28c0 14 9 25 21 28h1c32 11 70-25 63-61zM417 394c-9-10-15-21-20-37 15 17 30 28 50 31-10 17-18 19-30 6zm166 0c-11 13-20 11-29-6 19-3 34-14 49-31-5 16-11 27-20 37z"/></svg>