<svg width="64" height="64" viewBox="0 0 1000 1000" xmlns="http://www.w3.org/2000/svg"><path d="M934 533c-13-42-58-71-101-46-20 13-34 29-32 55 1 15 11 27 26 29 12 2 21-6 21-18 0-8-1-15-2-22 0-6 3-9 9-9 9-1 17 1 25 4 18 7 25 21 20 40-7 21-21 36-39 48-38 28-81 36-127 26-56-12-92-56-96-113-3-42 10-79 30-115 14-23 33-43 48-65 31-42 41-88 21-139-14-37-41-65-75-85-29-17-60-26-94-24-15 0-29 2-44 4-28 4-55 10-81 24-27 15-45 37-52 68-4 23-2 46 3 68 1 5 0 8-4 11-22 20-30 54-19 81 10 27 29 43 57 49 3 1 8-1 7 6-1 8-4 9-11 5-20-14-42-23-66-27-12-2-23-5-33-9-37-15-56-41-54-81 1-32 12-61 31-87 12-16 27-29 37-47 14-25 17-51 5-78-7-17-21-25-40-24-17 2-30 11-36 27-5 13 0 37 11 47 8 7 19 6 24-4 3-5 3-10 3-15 0-6 3-8 9-4 2 1 4 3 6 6 6 10 5 21-4 31-19 21-38 41-54 65-22 32-37 66-34 106 2 25 8 49 17 72 10 27 28 46 53 60 11 6 22 10 35 15-8 8-14 14-19 21-19 25-46 34-76 25-21-6-38-18-53-33-17-17-36-31-59-37-27-8-50 5-62 26-5 9-2 17 8 20 7 2 13 2 20 2 11-1 22-4 32-7 15-5 27 0 37 12 5 6 10 13 15 19 19 26 43 44 75 52 28 7 55 8 81-9 11-7 21-17 30-27 8-9 17-13 29-12 3 1 7 0 8 3 2 3-1 6-4 8-7 9-16 16-24 23-19 15-32 32-33 57 0 16 3 32 7 48 7 24 16 48 21 73 5 23-7 41-30 46-26 4-56-11-69-35-11-22-25-40-44-56-20-16-42-30-69-35-23-5-44 7-49 28-3 13 6 23 20 21 7-1 13-4 18-8 16-9 32-9 47 1 8 5 14 11 20 18 16 19 28 40 40 62 14 27 37 40 66 41 34 0 63-11 87-34 26-24 34-54 12-86-9-14-11-30-8-46 6-35 26-63 51-86 8-7 17-13 27-15 8-1 14 1 19 6 4 6 0 11-3 15-3 7-8 13-11 20-9 16-17 32-13 51 3 14 10 25 19 35 27 29 61 44 99 51 26 5 50 13 71 31 11 10 16 24 11 36-3 8-9 14-16 19-17 12-35 24-49 40-15 17-16 35-3 52 7 10 16 19 26 25 12 7 23 11 37 7 13-3 23-13 24-27 2-9-8-30-16-34-3-2-4-1-5 2l-3 9c-3 8-8 11-17 9-3-1-6-2-8-3-9-4-11-9-6-17 6-10 15-16 23-23 22-17 44-33 62-55 25-29 22-60-10-82-14-9-30-16-46-23-23-10-46-19-66-33-24-16-33-39-36-66-1-4-2-9 3-11 4-3 9 0 13 2 9 7 17 14 25 23 12 14 23 29 36 42 34 35 76 47 124 43 57-5 104-29 141-71 23-25 32-55 23-88zM462 383c-4 1-7 2-11 3-3 0-6 0-11 1-21-1-38-11-49-31-11-22-9-43 6-61 14-19 33-25 55-22 9 1 9 2 6 11-10 30-8 60 8 88 4 7 2 9-4 11zm95 30c-52 0-93-42-92-94 0-51 42-93 93-93 51 1 93 43 93 94s-42 93-94 93zm-1-137c-27 0-49 23-50 50 0 28 22 50 50 51 27 0 50-22 50-50 1-28-22-51-50-51zm14 51c-11 0-20-9-20-20 0-12 8-21 20-21 11 0 20 9 20 20 1 11-9 20-20 21zm-139-6c-8 0-14 6-14 14s6 14 14 14c9 0 15-6 15-14s-7-14-15-14z"/></svg>