<svg width="64" height="64" viewBox="0 0 1000 1000" xmlns="http://www.w3.org/2000/svg"><path d="M657 591H91c-16 0-28 13-28 29v2c0 14 8 25 20 28 10-25 35-43 64-43s54 18 63 44h328c10-26 35-44 64-44s54 18 63 43c12-3 21-14 21-28v-2c0-16-13-29-29-29zm-53 26c-27 0-50 23-50 51s23 50 50 50c28 0 51-23 51-50s-23-51-51-51zm0 86c-19 0-35-16-35-35s16-35 35-35 35 15 35 35-15 35-35 35zm-460-86c-27 0-50 23-50 51s23 50 50 50c28 0 51-23 51-50s-23-51-51-51zm0 86c-19 0-35-16-35-35s16-35 35-35 35 15 35 35-15 35-35 35zm722-295c-6-8-14-10-19-10H720c-5 0-9 5-9 10v229c0 5 4 9 9 9h34c11-23 34-39 62-39s51 16 62 39h50c5 0 10-4 10-9V523l-72-115zm17 99H748c-5 0-9-4-9-9v-72c0-5 4-10 9-10h79c15 0 19 4 22 10l44 72c0 5-5 9-10 9zm47 117c0 5-4 9-9 9s-9-4-9-9v-17c0-5 4-9 9-9s9 4 9 9v17zm-117-7c-27 0-50 23-50 51s23 50 50 50c28 0 51-23 51-50 0-28-23-51-51-51zm1 86c-20 0-35-16-35-35s15-35 35-35 35 15 35 35-16 35-35 35zM622 301H127v273h495V301zM417 473c-4 22-25 35-43 35-16 0-36-11-41-32l-2-6v-10c2-9 6-18 11-26 4-8 8-15 13-23 8-14 15-29 19-45h1v2c4 14 10 27 17 40 7 12 14 25 21 37 5 9 5 18 4 28zM111 574V301c-26 0-47 21-47 47v178c0 26 21 48 47 48zm574-48V348c0-26-21-47-48-47v273c27 0 48-22 48-48zM250 295h75c4 0 8-3 8-6 0-4-4-7-8-7h-75c-5 0-8 3-8 7 0 3 3 6 8 6zm174 0h75c4 0 8-3 8-6 0-4-4-7-8-7h-75c-5 0-8 3-8 7 0 3 3 6 8 6z"/></svg>