<svg width="64" height="64" viewBox="0 0 1000 1000" xmlns="http://www.w3.org/2000/svg"><path d="M850 274c8 1 16 1 24 3 49 11 86 38 109 83 40 79 7 173-73 211-89 42-196-10-217-106-1-3-2-6-2-9 0-1 0-2 2-2 10 3 20 6 30 10 1 1 2 2 2 4 13 39 39 65 77 79 69 26 147-16 164-87 14-60-16-120-72-144-73-32-154 11-172 86 0 3-1 6-1 8 0 4-2 3-4 2-7-2-14-3-22-4-5-1-5-1-4-6 7-34 23-64 49-87 25-23 55-36 89-40 3 0 5 0 8-1h13zm-692 0c8 1 15 1 23 2 36 6 67 23 91 51 28 32 42 69 39 111-4 64-37 109-95 136-4 1-5 0-4-3 0-9 1-19 3-28 1-2 1-4 3-5 34-20 55-49 61-87 12-69-35-133-101-144S52 335 35 399c-16 63 19 128 80 149 16 5 31 7 47 7 3-1 4 0 4 3-1 8-1 16 0 23 0 4-1 5-4 5-15 0-31-1-45-5-51-15-87-47-107-96-24-62-3-136 49-177 25-19 52-30 82-33 4 0 9 0 13-1h4zm344 0c7 1 15 1 23 2 62 10 113 58 127 118 16 72-18 144-84 176-3 2-6 3-9 4-2 1-3 1-3-2 0-10 1-20 3-30 1-2 2-3 4-4 34-20 54-50 61-89 10-62-29-122-90-139-72-20-143 25-157 97-1 6-1 6-7 5-7-2-14-3-21-4-3 0-3-1-3-3 4-25 14-47 29-67 26-35 60-56 103-62 7-1 13-1 20-2h4zm165 452c-8-1-16-1-23-3-65-15-106-54-123-118-18-73 23-151 93-179 1 0 2 0 3-1 1 8-1 15-1 22-1 9-5 15-12 20-32 20-50 50-55 87-9 65 36 126 100 139 69 13 136-33 147-103 1-3 1-3 4-2 8 2 16 3 24 4 2 1 3 1 3 4-10 49-36 87-81 111-19 11-40 17-62 18-1 1-3 1-4 1h-13zm-344 0c-8-1-16-1-23-3-62-14-103-51-121-111-22-75 18-156 90-185 1-1 2-2 4-1 0 11-1 22-4 33 0 2-2 2-3 3-31 19-51 46-59 82-13 58 19 119 74 142 73 29 152-12 170-89 0-1 0-2 1-4 1-6 1-6 7-4 6 1 13 3 20 3 3 1 4 2 3 5-3 19-10 37-20 54-26 41-63 65-111 73-5 1-10 1-14 2h-14zm173-141c-65-4-113-35-140-96-4-10-7-20-9-31-1-3 0-3 3-3 9 2 17 5 26 8 3 1 4 2 5 5 12 35 35 61 68 76 18 8 37 12 57 11 3-1 4 0 4 4-2 7-1 15 0 23 0 2 0 3-3 3h-11zm167-170c29-2 55 3 80 16 45 24 72 60 83 109 1 6 1 6-5 5-8-2-17-5-25-8-2-1-3-2-4-4-15-44-45-73-90-84-12-3-24-4-35-3-3 0-4 0-4-4 2-9 2-18 0-27zm-330 0c70 1 130 50 147 116 1 4 1 8 2 12 1 2 0 3-2 2-10-2-20-5-29-8-2-1-3-3-3-4-12-37-36-63-72-78-17-7-34-10-52-9-5 0-5 0-5-5 1-7 2-15 0-22 0-3 0-4 4-4h10z"/></svg>