<svg width="64" height="64" viewBox="0 0 1000 1000" xmlns="http://www.w3.org/2000/svg"><path d="M331 596c10 8 21 11 33 11 17 0 32-4 47-11 37-18 65-46 87-80 4-7 7-14 11-21 29-49 39-101 26-156-8-37-27-70-51-99-4-5-9-11-14-16v5c9 32 9 64-2 96-12 35-36 61-67 80-25 15-48 33-68 54-14 14-26 29-34 47-8 20-8 39 2 58 8 13 18 23 30 32zm-36 49c4 8 7 16 11 24 23 43 56 75 101 95 3 1 6 2 10 2h162c2 0 4 0 5-1 52-20 90-54 112-105 2-6 4-11 6-17-136 0-271 0-407 2zm184-456c22 25 41 53 55 83 19 39 30 79 32 122 2 47-8 92-29 134-2 5-4 9-7 15 2-1 4-2 5-3 9-5 18-10 26-17 25-22 40-50 48-81 12-40 10-80 6-121-2-22-9-43-19-63-13-29-31-55-51-79-14-17-25-36-30-58-6-27-5-55-3-83 2-13 3-25 5-38-1 0-2 1-2 1-21 13-39 29-53 50-15 22-21 47-16 74 5 25 17 45 33 64zm225 180c-2 1-3 2-4 3-29 30-56 63-79 98-17 27-32 55-40 86-2 10-4 21-1 31s10 14 20 11c2-1 3-1 5-2 40-20 68-51 85-92 11-25 16-52 17-80 0-18-1-36-3-55zm-209 631c18-55 34-109 51-165H446c17 56 33 110 49 165zm77-220H424c-8 0-15 3-19 11-7 13 3 28 18 28 25 1 50 0 74 0 25 0 49 1 73 0 4 0 9-1 13-3 7-5 10-14 8-22-3-9-10-14-19-14zM388 381c13 4 25 0 30-11 2-6 3-12 2-18-4-17-14-30-26-42-10 13-19 26-22 42-3 14 3 24 16 29z"/></svg>