<svg width="64" height="64" viewBox="0 0 1000 1000" xmlns="http://www.w3.org/2000/svg"><path d="M294 690c-35 0-63 27-63 62 0 34 28 62 63 62 34 0 62-28 62-62 0-35-28-62-62-62zm284 0c-35 0-63 27-63 62 0 34 28 62 63 62 34 0 62-28 62-62 0-35-28-62-62-62zm359-317c0-25-48-36-48-36-41-12-117-14-117-14-32-2-153-2-153-2-23 1-164-4-164-4-80-2-152-13-152-13-91-14-129-35-129-35-43-19-81-54-81-54-2-1-31-29-31-29 11 17 28 46 28 46 13 21 34 43 34 43 46 48 121 72 121 72 64 23 170 31 170 31 39 6 191 4 191 4 5 0 56 1 56 1 58 1 105 11 105 11 57 11 58 37 58 37 3 33-45 78-45 78-10 11-60 63-60 63-4 4-22 25-22 25-19 23-30 43-30 43 6-6 84-73 84-73 4-3 66-56 66-56 21-18 70-64 70-64 55-46 49-74 49-74z"/></svg>