<svg width="64" height="64" viewBox="0 0 1000 1000" xmlns="http://www.w3.org/2000/svg"><path d="M928 360c-17-8-33-17-49-25-107-50-217-83-335-77-57 3-111 17-159 48-24 15-44 35-58 61-4 8-3 10 6 12 41 11 83 15 126 17 39 2 79 1 118-2 31-3 61-9 92-15 7-2 7-5 4-11-11-22-27-39-46-54-2-1-5-2-7-2-24 0-49-2-76 4 29 10 54 19 78 34-75 31-192 26-243-1 50-29 103-42 159-47 105-10 205 10 302 52 13 5 17 11 15 25-16 148-125 272-269 308-7 2-14 6-23 2 49-103 107-195 222-239-15-9-29-3-45-4 22-12 46-16 67-32-22-3-40 1-63 2 29-16 57-24 80-45-31 8-61 17-92 25-11 3-15 7-13 18 2 9-2 17-5 24-15 38-55 68-89 67-19-1-32-11-36-27-3-8-1-13 7-15 5-1 11-10 18 1 6 11 17 13 29 11 27-4 54-33 57-60 0-6-1-9-8-7-40 15-80 26-119 43-9 4-14 9-16 19-20 86-27 173-31 261 0 10 4 12 12 11 22-2 43-5 64-10 171-40 305-181 335-353 2-9-1-14-9-19zM470 662c-6-65-12-130-28-193-1-8-5-13-12-17-39-18-82-28-122-44-7-2-8 1-7 7 2 28 30 57 58 61 11 1 21-2 28-12 1-3 2-6 8-5 16 3 21 12 13 27-6 12-16 17-29 19-45 4-102-49-99-94 1-10-2-12-9-13-8-2-14-5-21-7-25-7-50-13-74-20 22 21 50 29 75 45-19-3-37-3-55-1 18 15 41 19 64 31-17 1-30-5-45 4 115 44 173 136 222 242-6-1-8-1-11-2-62-13-117-41-164-83-68-62-107-139-117-230-1-8-4-16 8-20 57-23 115-44 176-52 14-2 31 0 42-6 29-16 59-29 91-39-26-3-53-4-80-1-110 12-213 48-310 101-9 5-11 10-9 20 25 127 92 225 200 295 60 39 125 61 197 67 11 1 14-2 13-13-1-22-2-45-3-67z"/></svg>