<svg width="64" height="64" viewBox="0 0 1000 1000" xmlns="http://www.w3.org/2000/svg"><path d="M282 743c-78-64-106-142-100-234 3-56 24-107 69-144 11-9 7-17 2-26-28-47-24-93-1-140 20-41 23-86 24-135 150 114 298 114 450-2-7 68 17 123 37 179 12 34 1 65-15 95-4 10-13 18 0 28 81 62 89 194 45 287-16 35-40 64-74 91 22-69 37-133 15-200-1 40-2 80-13 119-4 12-6 24-12 34-24 43-48 84-40 138 5 29-16 49-49 54-42 6-86 8-115 48-5 6-10 0-14-5-21-26-51-34-82-39-72-9-88-29-79-102 1-9 6-17-1-26-50-66-67-141-62-223-24 67-8 132 15 203zm329-380c48 0 84-35 85-82 1-46-37-84-83-85-45-1-85 38-85 83 0 47 36 84 83 84zm-307-83c0 47 37 84 83 84 47 0 85-38 85-84 1-44-39-84-84-84-46 0-84 37-84 84zm195 57c-17 1-31 10-29 28 1 19 13 35 30 45 6 4 33-34 31-46-2-17-13-26-32-27zm76 170c-1 27 14 38 35 40 23 1 38-12 43-45-28 31-52 30-78 5zm-225 3c4 25 18 39 42 36 20-2 33-13 33-40-26 27-50 25-75 4zm126 80c-29 32-54 30-82 4 5 28 17 40 39 41 23 1 36-13 43-45zm51 4c3 29 17 41 39 41 23 0 36-14 40-43-27 29-52 29-79 2zm9-85c-24 25-48 21-74-4 5 28 18 41 38 41 21 1 33-14 36-37zm82 243c12-9 14-21 11-34-1-8-5-21-14-19-15 4-3 15-2 22 1 10 3 20 5 31zm-236 0c2-13 4-22 5-30s12-19-1-22c-10-3-13 10-15 18-5 13 0 23 11 34zm209-2c12-14 10-27 5-40-1-6-3-13-11-11-9 3-6 9-4 15 3 11 6 22 10 36zm-234-45c-24 22-23 37 1 55-6-23-6-23-1-55zm296-428c1 21-17 40-39 41-21 1-40-17-39-39 0-24 14-37 36-39s41 15 42 37zm-267-37c22-1 40 16 40 38s-19 41-40 40c-23-2-37-15-39-38-2-21 16-40 39-40z"/></svg>