<svg width="64" height="64" viewBox="0 0 1000 1000" xmlns="http://www.w3.org/2000/svg"><path d="M854 137H585v176c0 8-4 13-7 10l-36-38c-1-1-3-1-4 0l-34 35c-1 3-2 4-4 4s-3-1-4-4l-33-35c-2-1-3-1-5 0l-36 38c-3 4-7-2-7-10V137H146c-46 0-83 39-83 87v553c0 47 37 86 83 86h708c46 0 84-39 84-86V224c0-48-38-87-84-87zM426 739c0 19-15 35-34 35H197c-18 0-33-16-33-35V621c0-19 15-35 33-35h195c19 0 34 16 34 35v118zM264 601c-8 0-15 0-16 1-1 0-2 0-2 1-1 1-2 3-3 4v143c0 2 0 5 2 6 1 1 2 1 2 2 2 0 9 1 17 1s17-1 19-2c1-1 1-3 2-5V611c0-3 0-5-1-7-2-3-12-3-20-3zm-62 0c-5 0-10 0-12 2-1 1-2 2-2 4v144c0 2 0 4 1 5 3 2 9 3 13 3s9-1 11-2c1-1 2-2 2-4 0-1 1-2 1-2V609c0-2-1-4-2-5-2-2-8-3-12-3zm97 0h-2c-3 1-5 3-5 6v143c0 5 1 7 5 8v1h2s2 0 4-2c1-1 2-2 2-4 1-1 1-2 1-2V609c0-2-1-4-2-5-2-2-5-3-5-3zm-70 0h-1c-3 1-5 3-5 6-1 2-1 3-1 5v138c0 3 1 4 2 6 2 3 5 3 5 3 1 0 3 0 5-2 1-1 2-2 2-4V609c0-2 0-4-1-5-2-2-5-3-6-3zm139 0c-4 0-10 0-11 2-1 1-2 2-3 4v144c0 2 1 4 2 5 2 2 8 3 12 3s10-1 12-2c1-1 1-2 2-4V609c0-2 0-4-2-5-2-2-8-3-12-3zm28 0h-2c-3 1-5 3-5 6v143c0 3 0 4 1 6 2 3 6 3 6 3s2 0 4-2c1-1 2-2 3-4V609c0-2-1-4-2-5-2-2-5-3-5-3zm-76 0h-2c-3 1-5 3-5 6v143c0 3 0 4 1 6 2 3 5 3 5 3 1 0 3 0 5-2 1-1 2-2 2-4V609c0-2 0-4-1-5-2-2-5-3-5-3zm20 0s-1 0-2 1c-1 0-2 0-2 1-1 1-2 3-2 4-1 1-1 2-1 3v140c0 2 0 5 2 6 1 1 2 1 3 2 1 0 2 1 2 1s3 0 5-2 2-19 2-39v-77c0-19 0-36-2-38s-4-2-5-2z"/></svg>