<svg width="64" height="64" viewBox="0 0 1000 1000" xmlns="http://www.w3.org/2000/svg"><path d="M828 62H172c-30 0-55 25-55 55v766c0 30 25 55 55 55h656c30 0 55-25 55-55V117c0-30-25-55-55-55zM309 227h218c15 0 28 12 28 27s-13 27-28 27H309c-15 0-28-12-28-27s13-27 28-27zm383 546H309c-15 0-28-12-28-27s13-27 28-27h382c16 0 28 12 28 27s-13 27-27 27zm0-164H309c-15 0-28-12-28-27s13-27 28-27h382c16 0 28 12 28 27s-13 27-27 27zm0-164H309c-15 0-28-12-28-27s13-27 28-27h382c16 0 28 12 28 27s-13 27-27 27z"/></svg>