<svg width="64" height="64" viewBox="0 0 1000 1000" xmlns="http://www.w3.org/2000/svg"><path d="M920 168c-2-4-6-7-10-8s-9 1-11 5c-16 22-36 29-59 37-19 7-38 14-59 29-30 21-44 50-37 78l-1 1c-12-18-26-35-40-50-67-69-160-111-256-115h-13c-107 0-209 48-281 131-71 83-102 191-86 297 1 9 3 18 5 26 26 116 93 204 184 242 23 10 45 14 67 14 56 0 104-29 132-81 11-19 18-39 21-60 2-12 1-24 0-35-1-12-3-23-1-35 4-26 23-41 49-41 7 0 15 1 23 3-9 17-17 32-24 47-16 31-26 56-31 76-4 12-13 44 9 59 7 5 16 6 25 5 8-2 33-7 104-87 19-22 39-47 61-75 55-18 98-64 109-117 3-14 4-28 4-43 20-31 38-61 57-93 0-1 0-1 1-2 26-7 49-28 62-57 19-42 18-95-4-151zM622 366c-9 15-26 24-44 24-9 0-19-2-27-8-12-7-20-19-23-32-3-14-1-27 7-39 9-15 26-24 44-24 9 0 19 2 27 8 12 7 20 19 23 32 3 14 1 27-7 39zm68 94c26-39 54-77 80-111 4 4 9 8 14 11 9 6 18 11 27 14-22 38-46 75-75 118-48 70-97 135-139 183-24 27-45 48-60 61 6-20 17-47 34-79 29-57 71-127 119-197zm-460 0c-10 0-20-3-28-8-12-8-20-19-23-33-3-13-1-27 7-39 9-15 26-24 44-24 10 0 19 3 27 8 25 15 32 47 17 72-10 15-26 24-44 24zm-55 114c10-15 26-24 44-24 10 0 20 2 28 8 12 7 20 19 23 32 3 14 0 27-7 39-9 15-26 24-44 24-10 0-19-2-27-8-12-7-20-19-23-32s-1-27 6-39zm166-308c10-15 26-24 44-24 10 0 20 3 28 8 24 15 31 47 16 71-10 16-26 25-44 25-10 0-19-3-27-8-12-8-20-19-23-33-3-13-1-27 6-39z"/></svg>