<svg width="64" height="64" viewBox="0 0 1000 1000" xmlns="http://www.w3.org/2000/svg"><path d="M589 675c69-69 112-148 109-249-2-76-30-136-88-183-5-4-10-7-18-8 1 11 5 19 8 27 5 10 10 20 8 32-3 28-15 50-36 67-27 23-58 34-91 41-11 2-15 6-18 16-4 14-10 27-23 34-39 22-85 26-118-16-13-15-27-21-45-21h-2c-30-5-56-15-73-42-17-29-43-39-74-36-54 5-81 55-57 103 8 15 19 28 34 38 43 28 88 51 139 61 28 5 56 7 84 11 20 2 40 5 58 15 22 11 26 28 10 48-9 11-21 20-34 28-22 12-45 22-68 33-14 6-28 13-39 24-14 12-25 26-21 46s21 29 38 33c70 18 138 14 202-19 43-21 82-49 115-83zm246-21c-25-33-64-45-98-29-38 19-62 48-64 91-3 40-23 61-63 65-16 2-32 0-48-4-18-5-37-6-57-4-37 3-56 32-44 67 10 34 42 57 80 60 39 2 77 4 116 9 28 4 56 13 86 10 14 1 28 0 42-1 55-4 85-37 86-93 1-43-6-85-16-127-3-16-10-30-20-44zM244 213c42-12 67-43 85-81 8-16 0-31-15-41-10-7-22-10-31-10-45 0-83 33-94 79-8 37 18 64 55 53zm669 349c-51-110-132-193-228-265-4-3-8-5-13-8 2 5 4 9 7 12 24 29 53 54 79 81 52 53 96 112 128 180 27 56 33 115 18 175-7 33-13 66-21 101 4-4 5-6 7-8 49-85 66-174 23-268zM510 174c13 2 20 12 28 21 17 19 41 15 51-9 5-11 5-24 5-34-1-46-13-63-50-70-10-2-21-2-31 0-28 4-43 21-44 45-1 23 16 42 41 47zm-194 85c-33 7-65 46-65 82 0 3 0 7 1 12 3 12 9 22 22 26 13 3 28 4 37-8 16-22 33-44 42-70 10-27-9-47-37-42zm3 44c-9-1-13-7-13-15-1-9 5-14 13-14 9 0 14 6 15 15-1 8-5 14-15 14zm138-50c-20-3-32 9-32 29 1 10 4 18 8 27 10 19 26 35 32 56 2 5 6 7 12 5 15-5 37-36 37-53 0-30-27-61-57-64zm0 46c-9-1-13-7-13-16s6-12 14-13c9 1 14 6 14 15s-6 14-15 14zm-78 159c2 1 3 1 5 1 11-4 32-28 33-39s-4-19-14-17c-12 2-24 5-33-1-13 1-18 7-18 17 0 12 16 35 27 39zM160 333c1-43 14-81 46-113-10-1-16 1-20 6-16 19-23 31-29 45-8 17-8 34-7 52 1 4 2 8 10 10zm189-189c34-15 67-19 102-2 4 2 9 5 15 2-4-8-11-12-18-14-35-13-70-11-103 5-5 3-15 6-12 12 3 7 11 0 16-3z"/></svg>