<svg width="64" height="64" viewBox="0 0 1000 1000" xmlns="http://www.w3.org/2000/svg"><path d="M596 626c-14-7-17 6-21 16-10 20-33 27-50 16-11-7-16-14-3-24 12-9 23-19 34-30 10-9 8-16-5-21-17-8-35-12-54-13-19 1-37 5-54 12-15 6-18 13-6 24 11 10 21 20 32 28 13 10 8 18-2 24-19 12-40 5-51-18-4-9-8-19-19-14-12 4-10 15-7 25 11 32 44 49 78 37 20-6 37-6 56 1 33 11 64-4 76-35 4-9 9-21-4-28zM472 465c1-71-47-111-98-91-50 20-82 82-69 135 14 56 63 77 112 47 37-23 53-58 55-91zm102-91c-32 11-46 39-48 72-3 31 7 58 24 82 22 33 61 49 91 39 33-10 53-41 53-87-1-27-11-55-31-78-24-26-54-40-89-28zm363-84c-3-30-12-60-33-84-43-47-113-62-181-34-36 15-69 15-106 1-79-32-160-31-239-2-37 14-70 15-106 1-57-22-113-20-162 19-51 40-62 114-29 178 13 25 29 48 51 65 13 10 16 21 15 37-13 178 100 330 274 371 193 46 397-95 421-292 0-4 1-8 2-11 4-28-5-58 4-83 8-25 38-38 54-61 18-28 31-54 35-87 1-3 0-14 0-18zM797 519c-4 154-148 288-304 284-173-5-304-142-300-314 5-162 147-297 307-291 177 6 303 142 297 321z"/></svg>