<svg width="64" height="64" viewBox="0 0 1000 1000" xmlns="http://www.w3.org/2000/svg"><path d="M528 910c7-44 9-85 6-126-3-56-13-111-52-156-6-7-14-12-22-21 78 7 147 33 218 57-85-58-180-89-285-99 26-17 44-36 59-59 2-4 9-4 14-6 62-23 108-63 126-129 1-4 1-7 2-11 0-3 0-6-1-10-13 37-35 66-65 90-15 12-31 21-50 27-10 4-15 4-16-10-2-27-15-49-39-68 5 13 10 22 13 31 12 39 6 73-26 100-27 24-54 49-81 73-21 19-21 32 0 51 2 3 5 5 9 8-16 1-28-4-41-9-38-14-72-34-98-65-5-6-10-12-7-20 2-8 10-4 16-5 46-8 87-25 119-59 22-24 22-49 1-76-10-13-22-24-32-36 27 11 45 35 69 52-7-19-22-32-37-44-37-31-77-56-127-59-29-2-55 4-77 23-9 9-14 6-18-5-1-3-2-7-1-10 7-22-8-32-23-40-13-8-20-18-20-33 1-4-2-12 7-11 5 0 10 2 11 10 0 9 3 19 13 25 0-5-1-9-1-13-1-11 1-18 16-15 10 3 21 3 32 4-1-5-6-5-9-6-18-8-36-17-53-27-16-10-17-19 2-26 19-6 36-20 58-18 11 1 22-5 32-10 35-17 72-29 99-60 26-31 61-31 97-26 61 8 119 24 175 47 9 4 17 5 27 2 55-13 109-7 162 13 8 3 15 8 23 12 8 5 8 11 1 18-22 23-48 38-81 42 1 7 7 8 11 11 71 48 140 98 202 158 13 12 24 26 37 38 15 15 16 32 12 52-13 64-48 117-90 166-88 103-195 182-309 254l-8 4zm-47-686c-46-12-94-12-141-6-26 3-51 14-77 2-14-6-24 2-35 12 38 3 69 16 92 45 24 30 27 64 25 100 9-25 7-50 4-76 37 7 69 23 101 39-28-21-58-37-91-47-12-4-17-11-22-21-2-7-1-9 5-9 17 1 34 0 50 2 26 3 52 9 77 15-41-17-84-28-129-26-14 0-22-5-30-16 14-6 28-9 42-11 43-7 86-6 129-3zm108-10c20-16 40-26 61-33 21-8 43-9 66-11-51-14-128 14-152 54 32 8 71 5 90-7-21 3-42 6-65-3zm-218-47c-22 6-42 1-63-2-17-3-33 12-34 29 13-4 24-10 35-17 2-1 5-5 8-2 3 2 2 5 1 8-2 7-4 13-6 20 25-5 44-15 59-36zm-140 17c-38 18-76 34-121 39 8 5 13 11 22 8 35-11 68-26 99-47zm58 217c-25-24-50-39-82-42-15-2-20 3-22 18-1 18 5 34 14 49-20-3-57-41-60-60-1-10 8-12 14-15 34-16 84-8 113 19 9 8 17 16 23 31zm-65 56c17 57 41 68 104 17-6 13-13 20-22 27-19 16-42 25-66 33-11 4-17-3-19-12-7-22-6-43 3-65z"/></svg>