<svg width="64" height="64" viewBox="0 0 1000 1000" xmlns="http://www.w3.org/2000/svg"><path d="M662 79l297 9c31 1 44 15 41 47-5 43-9 86-14 129-9 79-20 157-35 235-18 92-39 183-74 270-13 34-29 66-50 96-31 44-71 66-126 64-117-3-234-3-350-5-49 0-97-2-146-3-59-2-105-30-141-75-31-39-51-83-63-132-6-24 10-44 35-43 85 1 169 4 254 6 88 2 176 3 264 5 4 0 7 1 10 1 21-2 34 9 43 28 14 31 31 61 51 89 12 17 25 33 41 46 22 17 39 17 59-2 23-23 36-51 48-80 31-74 50-151 67-229 16-78 29-158 40-238 5-44 9-88 14-132 1-8-1-10-9-10-65-2-130-3-194-5-108-3-216-7-324-10-9 0-11 2-12 11-13 133-32 265-71 393-8 24-17 47-25 70-2 5-4 7-9 7-20-1-40-1-60-1-8 0-8-3-5-9 42-93 62-193 80-293 12-71 19-143 26-214 2-22 15-34 37-34l235 7c22 1 44 0 66 0v2zm-47 780c-26-34-45-68-63-103-2-4-5-6-10-5-10 0-20-1-30-1-85-2-169-4-254-6-52-1-105-2-158-3-19-1-19-1-11 16 29 56 67 97 137 97 118 0 235 3 353 5h36zm24-548c-49-1-97-3-145-4-5-1-9-1-14-2-11-1-18-9-17-20 0-11 7-18 18-20h13c99 4 198 8 297 11 14 1 22 9 22 21-1 12-9 20-23 19-50-1-101-3-151-4v-1zm73 144c-83-3-166-6-248-9-14 0-23-6-24-17-2-10 3-17 12-22 4-2 9-1 14-1l125 4c52 2 103 4 154 5 7 1 14 1 19 7 6 6 7 13 5 21-4 9-11 13-21 14-12 0-36-1-36-2zM573 594c-52-3-104-6-155-9-9 0-14-6-15-17-1-10 2-17 8-22 2-2 5-1 8-1l78 4c33 2 65 4 97 5 4 1 8 1 11 7 4 6 5 14 3 21-2 9-7 13-12 14-8 0-23-1-23-2z"/></svg>