<svg width="64" height="64" viewBox="0 0 1000 1000" xmlns="http://www.w3.org/2000/svg"><path d="M329 214c24 15 47 26 72 34 87 26 171 61 249 108 3 2 6 5 11 4-8-19-9-40-4-59 3-10 0-15-9-19-113-62-233-100-359-120 8 37 40 52 40 52zm309 294c42 34 40 61-6 80 20 14 43 23 64 34 5 2 7-2 9-4 29-30 39-89 17-122-12-16-17-37-13-56 4-20-4-30-18-43-20-19-41-36-65-50-36-20-73-37-111-54-58-26-122-37-181-70 1 28 14 46 33 62 23 21 51 35 79 47 63 27 125 56 184 91 9 5 18 11 26 17 13 10 17 24 11 40-5 14-16 22-29 28zm3 181c-23-26-45-52-59-84-5-11-9-23-8-36 1-9 4-13 14-7 9 6 18 12 28 16 15 8 33 1 43-14 9-15 6-31-9-42-16-10-32-20-49-29-23-13-48-7-65 13-11 14-19 29-24 46-10 40-6 80 7 120 2 6 6 8 10 10 27 16 53 34 78 53 38 29 71 61 100 103 7-23 2-43-6-62-14-33-36-61-60-87zm228-231c5 14 8 27 10 39 2 13 2 27 1 40-2 37-23 60-55 62-16 1-32-4-46-12-19-11-40-7-54 10-7 9-13 18-20 28 5 2 9 4 13 6 27 12 53 25 76 43 23 17 37 39 33 69-2 12-7 23-12 36 101-40 188-191 54-321zm8 162c-7-6-5-13 0-19 6-7 12-4 19 1 1-12-4-20-10-27-3-5-4-9 1-12 4-4 8-2 12 2 9 10 9 44 0 54-7 7-15 7-22 1zM319 520c89-66 185-70 286-30 8 3 16 7 24 8 14 1 24-8 29-23 4-13 0-22-12-29-51-28-105-42-163-42-106 1-191 44-257 126-10 12-19 26-23 41-7 23 1 39 23 47 9 4 14 2 18-7 18-36 43-67 75-91zm-70 46c-9 11-14 24-16 42-4-19 3-32 11-44 66-94 156-135 270-124 38 4 73 16 105 35-22-7-43-15-66-20-123-22-224 15-304 111zm237-169c43-1 84 9 125 23l-11-6c-45-26-92-49-140-69-12-5-23-6-35-4-70 12-134 36-187 84-34 29-65 61-88 100-9 15-16 30-17 48s7 29 24 35c10 3 14 2 19-9 62-130 165-198 310-202zM181 548c-11 16-14 26-18 48-4-21 4-37 14-53 50-85 124-139 220-162 31-7 63-9 96-7 5 0 11 2 17 2-47 1-93 8-138 24-80 28-143 78-191 148zm515-159c12 10 24 19 36 29 29 22 55 47 65 83 5 22 7 43-9 61-12 13-12 13 5 21 5 2 11 4 17 5 30 6 51-8 58-38 2-9 2-19 2-27 0-45-15-86-46-116-45-42-96-76-148-110-6-4-8-2-9 4-8 35 0 65 29 88zm-435 8c51-34 107-55 171-64-26-14-49-26-69-44-4-4-8-1-12 0-113 35-201 103-263 205-13 21-23 44-25 69-2 21 7 37 24 42 9 2 14 1 18-9 30-83 82-150 156-199zM113 534c-11 18-20 35-19 56-7-13-2-26 3-38 12-32 30-62 52-89 57-72 130-118 219-140 2-1 5-1 8 0-3 2-6 3-9 4-60 21-114 51-161 94-37 33-68 71-93 113zm390-2c5 1 8 1 10-4 10-19 22-36 43-47-15-5-28-7-41-8-90-9-166 17-225 88-7 9-13 19-17 29-7 21 1 37 21 46 7 3 11 3 15-5 45-71 110-105 194-99zm-204 95c-4-16 3-29 11-41 27-36 62-58 104-71 31-10 63-11 95-4-36 0-70 5-104 18-29 12-55 28-78 49-14 14-26 29-28 49zm200-38c0-9 2-18 3-27 0-8 9-17 3-22-5-4-16-2-24-2-29 0-56 6-82 19-24 12-44 29-55 53-10 21-4 39 14 50 7 5 10 4 14-3 29-40 68-59 117-59 7 0 10-1 10-9zm-136 65c-3-12 1-23 9-34 22-30 55-42 91-46h25c-52 13-105 21-125 80zm248-67c-8-5-17-9-27-15 0 18 7 32 15 45 19 32 43 61 71 86 20 18 39 36 60 55 4-20-2-37-11-52-26-48-64-86-108-119zm-121 18c-22-1-42 3-61 12-17 7-29 18-31 38-1 19 10 31 25 40-6-41 26-64 73-51-33 4-68 7-73 51 5 1 7-3 9-6 7-8 15-14 24-18 17-8 35-7 54-1-5-21-10-40-11-60 0-6-6-5-9-5zm299-65c1-5 3-9-5-13-17-5-24-28-12-41 8-9 1-14-3-18-6-7-11 1-14 4-8 7-10 17-11 25 0 27 13 46 34 50 6 1 9 0 11-7zm-50 2c0 16-5 29-8 43 11-8 23-8 36-11-10-10-19-20-28-32z"/></svg>