<svg width="64" height="64" viewBox="0 0 1000 1000" xmlns="http://www.w3.org/2000/svg"><path d="M894 458c-17-101-66-184-138-255-3-2-7-4-10-5-18-1-36-2-54-2-50 1-86 25-106 70-16 36-29 73-43 110-19 50-42 97-82 133-14 14-30 25-45 38 2 0 5 1 7 2 50 13 98 29 143 53 40 22 76 49 101 88 34 54 38 112 24 173-5 25-14 49-21 74 52-38 98-80 135-132 77-103 111-219 89-347zm-543 74c3 1 7 0 10-1 26-11 50-26 71-45 38-34 59-78 77-125 15-38 28-76 45-113 17-38 45-67 86-80 19-6 39-8 58-12-2-1-4-3-6-4-41-28-85-50-132-65-62-20-126-30-191-22-67 8-126 31-176 77-66 62-101 136-92 228 6 70 59 128 128 141 41 7 81 14 122 21zm25-252c46 0 84 38 84 85-1 45-36 83-85 83-46 1-84-38-84-84s39-85 85-84zm201 482l-2-5c-17-37-24-76-16-117l-34-17c-2 10-4 19-5 28-4 38 2 76 18 114-62-37-100-88-114-157-4-22-3-23-26-27-50-10-100-19-149-29-25-5-50-12-74-18 0 1-1 3-1 5-2 45 8 87 29 126 72 133 229 197 373 152 16-5 32-13 51-20-4-2-5-3-7-3-22 0-35-12-43-32z"/></svg>