<svg width="64" height="64" viewBox="0 0 1000 1000" xmlns="http://www.w3.org/2000/svg"><path d="M267 780c79-4 97-9 198-9h39c3 0 6 1 8 1h18c12-1 28-4 45-12 31-15 28-46 61-92 50-69 71-89 72-158 0-37 2-60 0-79l200 1c16 0 29-13 29-29V220c0-16-12-29-28-29l-315-1c-16 0-29 13-29 29v109c3 3 6 7 8 9v1c1-1 2-1 3-2 4-1 7-3 11-4v-27l329 1v97c0 4-4 7-7 7H675c-1 3-3 7-5 10-2 4-5 8-8 11-8 11-19 23-34 34l-4 26c0 8-2 18-5 28l-2 6c-2 2-27 26-52 43-3 2-6 3-9 5s-6 3-8 5c-5 1-10 1-14 1-16 0-31-6-32-29 0 0 8-27 93-79 22-14 38-27 49-40 3-3 6-7 8-11 3-3 5-7 7-10 14-25 10-43 10-43s2-35-31-35c-10 0-23 3-40 11 0 0-5 2-11 5-4 1-8 3-11 4-2 0-4 1-6 1s-3-1-5-2c-6-7-15-25-35-25-4 0-9 1-14 3-37 12-13 47-13 47s-51-16-83-16c-14 0-24 3-26 11-5 27 1 38 1 38s-74 3-69 33c6 31 16 35 47 35 30 0-143 36-230 113 0 0-37 29-72 37-35 9 51 183 51 183s60-25 145-30zm320-534v-27c0-4 3-7 7-7h315c4 0 7 4 7 7v27H587z"/></svg>