<svg width="64" height="64" viewBox="0 0 1000 1000" xmlns="http://www.w3.org/2000/svg"><path d="M603 364c6-1 13-2 20-4s8-6 3-12c-2-4-6-7-10-10h-1c-5-5-11-7-17-9-12-4-29-5-54 1h-1l-2 1-4 1-2 1c-2 0-3 1-4 1-2 1-5 2-7 3l-2 1-3 1c-2 1-3 1-5 2l-2 1c-1 1-3 1-4 2l-5 3h-1c-1 0-2 1-3 2-12 6-23 13-34 21-72 50-131 114-178 188-19 30-35 62-43 98-1 4 0 8 1 12 1 3 3 6 6 6 5 1 4-3 6-5 7-16 14-32 23-47 29-49 65-91 103-133 60-65 132-109 220-125zm-466 93c-4-19-19-28-37-32-21-4-42-3-63 1-5 0-7 3-7 7-1 7-3 14-4 21-9 44-17 88-26 132-1 6 1 7 6 7 6 0 13-1 20 0s9-3 10-8c2-12 4-24 6-35 4-17 4-17 21-17 21-1 41-5 57-20s22-34 17-56zm-47 41c-8 5-16 7-24 6h-7c-6 0-8-1-7-8 3-13 5-26 8-39 0-3 1-6 5-6 7 0 14-1 21 0 8 2 15 7 17 16 2 12-3 24-13 31zm155 89c0-11 1-22 3-33 4-24 9-49 14-73 1-5 0-8-6-9-10-3-21-4-31-4-46-2-80 24-89 68-3 10-3 19-1 29 6 30 40 41 64 20 5-4 9-9 14-15 2 7 1 12 0 17 0 5 1 6 6 6h20c5 0 7-2 6-6zm-24-78c-3 13-4 26-10 38-4 7-7 13-14 17-11 8-23 3-26-11v-9c1-15 7-29 19-40 4-5 9-7 15-9 15-3 18 0 16 14zm242-41c-3 0-9 0-14 2-34 8-57 38-57 74 0 31 20 52 51 52 42 0 73-30 75-73 1-33-19-55-55-55zm6 90c-8 10-17 13-27 10-8-3-14-12-14-23 1-14 4-27 13-39 4-6 10-11 18-11 14-2 22 8 22 29 0 10-4 23-12 34zm161-89c-12-2-24-1-35 6-7 4-11 9-17 14-5-6 4-15-3-18-5-2-13 0-20-1 0 0-1 1-1 0-6 0-7 2-8 7-7 37-13 73-20 110-1 5 0 6 5 6h21c6 0 9-1 10-8 3-19 7-38 11-57 3-12 9-22 19-29 6-3 11-4 17-1 5 3 6 8 6 13-1 6-1 11-2 16-4 20-7 40-11 60-1 5 0 6 5 6h24c3 0 6 0 6-4 5-29 12-56 15-85 2-18-8-33-22-35zm127 2c-11-4-23-4-34-1-34 8-56 38-56 74 0 30 13 46 42 51 15 3 29 0 43-3 14-4 14-4 12-18v-6c0-6-2-6-7-4-10 4-21 5-33 4-8 0-14-3-20-9-2-4-4-8-3-12 2-3 7-1 10-2 17 0 35-1 51-10 15-7 21-19 19-36-2-15-11-24-24-28zm-19 45c-9 4-19 3-29 4-4 1-5-2-4-5 4-12 17-22 31-22 5 1 11 2 12 10 1 7-4 11-10 13zm116-48c-22 1-41 13-55 34-10 16-13 34-11 52 3 19 12 33 31 39 21 6 42 3 63-4 3-2 5-4 4-7v-13c-1-5-3-7-8-5-11 5-22 5-34 4-9 0-16-4-20-13-4-8-3-10 6-10 16 0 32-1 47-6 26-10 34-39 17-58-10-10-22-13-40-13zm5 49c-9 3-19 2-29 3-3 1-4-1-4-5 3-11 17-22 30-22 6 0 12 2 13 10s-4 11-10 14zm136-49c-11 0-20 4-28 12-4 4-8 9-12 15-2-3-1-5-1-7 3-18 3-18-15-18-2 0-4 1-6 0-6-1-9 3-9 9-2 35-11 70-18 104-1 9 1 11 9 10s18 3 24-2 4-15 6-23c4-16 5-32 13-47 5-8 11-17 21-17 16 0 17-10 19-21 0-3 1-6 1-9 2-5 0-6-4-6zm-708-2c2 9 3 18 7 26 4 6 7 6 11 1 2-3 3-6 4-9 4-14 6-28 6-41 1-35-11-63-32-87-4-5-9-11-15-8-4 3-2 10-1 15 5 35 13 69 20 103z"/></svg>