<svg width="64" height="64" viewBox="0 0 1000 1000" xmlns="http://www.w3.org/2000/svg"><path d="M847 154H153C69 154 0 223 0 308v384c0 85 69 154 153 154h694c84 0 153-69 153-154V308c0-85-69-154-153-154zM324 385c5-3 8 2 11 6 17 18 25 39 25 66 0 10-2 20-5 31-1 2-2 5-3 6-3 5-5 5-8 0-4-6-4-13-5-20-6-26-12-52-16-78 0-4-2-9 1-11zM168 525c-13 0-13 0-15 13-2 9-4 18-5 26-1 5-3 7-8 7-5-1-10-1-15 0-4 0-5-1-4-5 6-34 13-67 19-101l3-15c1-4 2-6 5-6 16-3 32-4 48-1 14 3 25 10 29 25 4 16-1 31-13 42-12 12-28 15-44 15zm119 46c-4 0-5-1-5-5 1-4 1-8 0-13-4 5-7 9-10 12-18 16-45 7-49-16-1-7-1-14 0-22 7-33 33-53 68-51 8 0 16 1 24 2 4 1 5 3 4 8-4 18-7 36-10 55-2 8-3 16-2 25 0 3-1 5-5 4-5 0-10 0-15 1zm46 22c-7 11-12 23-18 35-1 2 0 5-4 4-2 0-4-2-5-4-1-3-1-6 0-10 6-27 18-51 33-74 36-56 80-104 134-143 9-6 17-11 26-16 1 0 2-1 3-1 1-1 3-2 4-2s2-1 3-2l2-1c1 0 2-1 3-1 1-1 2-1 3-1l2-1 4-2c1 0 2 0 4-1h1c1-1 2-1 3-1l2-1h1c18-5 32-4 40-1 5 2 10 3 14 7 3 3 6 5 8 8 3 4 3 7-3 9l-15 3c-67 12-121 45-166 95-30 31-57 64-79 101zm124-20c-24 0-39-16-39-39 0-28 17-51 43-57 4-1 9-1 11-1 27 0 43 16 42 41-2 33-25 56-57 56zm147-6c0 3-2 4-5 4-6 0-12-1-18 0-3 0-4-1-3-5 3-15 5-31 8-46 1-4 1-8 1-12s0-8-4-10c-5-2-9-1-13 1-8 5-12 13-14 22-4 15-7 29-9 43-1 5-3 7-8 7-5-1-10-1-16-1-3 1-4 0-4-4 6-28 11-56 16-84 0-3 2-5 6-5 0 1 0 0 1 0 5 0 11-1 15 1 5 2-1 9 2 14 4-4 8-8 13-11 8-5 17-6 26-5 11 2 19 13 18 27-2 21-8 43-12 64zm95-40c-12 6-25 7-39 8-2 0-6-2-7 1s0 6 2 9c4 4 9 7 15 7 9 0 17 0 26-4 3-1 5-1 5 3-1 2 0 3 0 5 1 10 1 11-10 13-11 3-21 5-32 3-22-4-32-16-32-39 0-27 17-50 42-56 9-2 17-2 26 1 10 3 17 10 18 21 2 13-3 22-14 28zm87 2c-11 5-24 5-36 6-6 0-7 1-4 7 3 7 8 9 15 10 9 1 18 0 26-3 4-2 5-1 6 3v10c0 3-1 4-3 5-16 6-32 8-48 3-14-4-21-14-23-29-2-14 1-27 8-39 11-17 25-26 42-26 13 0 23 2 30 9 13 15 7 37-13 44zm92-42c-1 9-2 16-14 16-8 0-12 7-16 13-7 11-7 24-10 36-1 6 0 14-4 17-5 4-13 1-19 2-6 0-8-1-6-8 5-26 11-52 13-79 0-5 2-8 7-7 2 1 3 0 5 0 13 0 13 0 11 14 0 1-1 3 1 5 3-4 6-8 9-11 6-6 13-10 21-9 3 0 5 0 3 4 0 2-1 4-1 7zm-693-24c-5-1-10 0-15 0-3 0-4 2-4 5-2 9-4 19-6 29-1 5 1 6 5 6h5c7 1 13-1 19-5 7-5 11-14 9-23-1-7-6-10-13-12zm91 33c-4 1-8 4-11 7-9 9-14 19-15 31 0 3 0 5 1 6 2 11 10 15 19 9 5-3 8-8 10-13 5-9 6-19 8-29 2-11-1-13-12-11zm193 0c-6 0-11 4-14 9-7 8-9 18-9 29-1 9 4 15 10 17 7 3 15 0 20-7 7-8 9-18 10-26 0-16-6-23-17-22zm210-1c-11 0-20 7-23 16-1 2 0 5 3 4 7-1 15 0 22-3 5-1 8-4 7-10s-5-7-9-7zm91 0c-10 0-20 8-22 16-1 3 0 5 3 4 7-1 14 0 21-2 5-2 9-5 8-11s-5-7-10-7z"/></svg>