<svg width="64" height="64" viewBox="0 0 1000 1000" xmlns="http://www.w3.org/2000/svg"><path d="M748 411c-1-15-8-28-21-37-12-8-26-11-40-12-15-2-30-1-40-1h-44c-8 0-14 5-16 12-1 4-2 9-3 14l-26 114-13 54c-1 8 2 12 11 12h27c8 0 14-5 16-12 3-15 7-29 10-44 2-6 8-11 14-11h22c22-2 43-5 62-16 29-16 43-40 41-73zm-57 17c-3 17-13 26-28 30-8 2-16 3-24 3-3 0-6 0-10-1s-7-5-6-10c3-13 6-26 9-40 2-6 7-11 14-11 9 0 17 0 26 2 15 3 21 13 19 27zm-488-20c-2-17-11-30-26-38-13-6-27-8-41-9-13-1-26-1-36-1H58c-8 0-14 5-16 13l-17 77c-9 35-17 70-25 105-1 7 3 12 10 12h29c7 0 13-5 15-12 3-14 6-28 10-42 2-9 7-14 16-14 11 0 21 0 32-1 17-2 34-6 50-15 15-8 28-20 35-36 6-12 7-25 6-39zm-57 17c-1 18-13 28-28 32-10 3-21 4-31 3-6 0-10-5-9-12 3-12 6-25 9-38 2-7 8-12 15-12h7c8 0 14 1 21 3 12 3 17 12 16 24zm399-16h-32c-10 0-17 5-22 13-3 3-4 7-6 10l-41 69c0 1-1 3-3 3s-2-2-2-4c-4-25-8-49-12-74-2-12-8-17-20-17h-24c-7 0-11 5-9 12l14 80c3 22 8 45 11 68 0 5 1 10-2 14l-18 33c-3 5-7 10-9 16-2 4 1 7 6 7h30c4 1 8-1 11-3 5-2 8-6 11-11 9-16 19-32 29-49l44-74c10-17 20-35 30-52 4-7 8-14 13-21 2-4 5-8 6-13 1-4 1-7-5-7zm334 4c-9-3-18-5-27-5-22-2-44 0-66 4-7 1-14 4-16 12-2 6-4 13-5 19s2 9 7 7c10-4 21-6 32-8 12-2 24-2 37 2 9 2 13 8 12 16 0 4-1 5-5 5-11 1-23 2-35 4-14 2-29 4-42 10-22 8-36 22-39 47-3 22 10 41 32 45 20 3 39-1 56-12 4-3 8-6 12-8v3c-2 9 2 13 10 13h23c8 0 14-5 16-13 5-22 11-44 16-67 2-11 6-23 7-35 2-19-6-33-25-39zm-34 84l-6 27c-1 3-4 5-7 6-8 5-16 9-26 9-5 0-10-1-14-2-6-2-8-6-8-12-1-11 5-19 16-23 7-3 15-5 23-6l19-2c3 0 4 1 3 3zm-507-82c-12-6-25-7-38-8-21-1-42 1-62 5-7 2-12 6-14 12-2 7-3 13-4 19s1 9 7 7c11-4 22-7 34-8 12-2 23-1 35 2 8 2 13 7 12 16 0 4-1 5-5 5-12 1-24 2-36 4s-24 4-36 8c-10 3-20 8-28 15-11 10-15 22-16 37-2 21 13 39 34 42 20 2 39-2 56-13 3-3 6-5 10-7v3c-2 8 2 13 10 13h24c7 0 13-5 15-12 5-22 10-45 15-67 3-13 7-26 8-39 1-16-6-28-21-34zm-38 82c-2 9-4 17-6 26-1 3-3 5-5 6-8 5-18 10-28 10-5 0-9-1-13-2-7-2-9-6-9-13 0-11 5-19 17-23 8-3 17-4 26-5l15-2c3 0 3 0 3 3zm690-135h-26c-7 0-13 5-15 12-3 15-6 30-10 45l-22 101-8 35c-1 7 3 12 11 12h25c7 0 13-5 15-12l8-37 23-103 9-42c1-6-3-11-10-11z"/></svg>