<svg width="64" height="64" viewBox="0 0 1000 1000" xmlns="http://www.w3.org/2000/svg"><path d="M934 213s4-7 3-9c-4-10-19-12-29-13-51-6-102-10-154-14-96-8-191-16-287-25-10-1-22-5-27-12-34-44-90-63-146-48-50 13-83 50-90 108-6 48-8 96-11 145-2 17-2 34-3 56 59-20 112-11 166 6 52 16 105 30 154 53-8 4-15 4-21 2-40-11-80-23-120-33-31-8-62-17-93-19-100-3-209 104-213 208-1 36 0 71 0 106v103c12-9 16-14 21-16 23-10 45-24 69-28 31-4 64-2 97 1 50 4 55 2 52 57 0 6 0 11 1 16 0 22-6 36-31 37-9 1-23 4-25 13 0 2 4 6 4 6h288c-5-36-23-48-64-42-38 5-75 10-112 16-18 3-27-3-26-22 1-12 1-24 2-37 1-30 2-31 33-31 57 0 113 0 169 1 47 0 88-15 122-50 44-47 88-95 138-136 61-52 48-167-49-192-104-27-207-65-309-98-7-3-14-7-20-11l3-6c7 1 15 2 22 4l333 96c42 12 63 2 83-36 18-32 37-64 54-97 5-8 7-17 12-29-159-14-315-20-469-35v-12l473 17zm-554-18c-10 0-19-9-19-19 0-11 9-20 19-20s20 9 20 20c0 10-9 19-20 19z"/></svg>