<svg width="64" height="64" viewBox="0 0 1000 1000" xmlns="http://www.w3.org/2000/svg"><path d="M690 423l145-257L656 66 502 340l148 83h40zm-95-114c-3 1-7 0-10-1l-9-6c-6-3-9-11-5-17l82-146c2-3 4-5 8-6 3-1 6-1 9 1l10 6c6 3 8 11 5 17l-82 146c-2 3-5 5-8 6zm-4 114H455l33-58 103 58zm326-222L792 423h-72l162-288 20 12c19 11 26 35 15 54zm-93-73L674 44c23-42 76-56 117-33s56 76 33 117zM171 423h42l-13-49c-1-3 0-5 1-8 2-2 4-4 7-5l10-3c6-1 13 2 14 8l15 57h111l-56-212-174 45 43 167zm16-142l10-3c6-1 12 2 14 8l5 21c1 2 1 6-1 8-1 3-4 5-7 5l-10 3c-3 1-6 0-9-1-2-2-4-4-5-7l-5-20c-2-6 2-12 8-14zm-77-90l175-46 12 48-174 45c0 1-13-47-13-47zm-4-18l174-45-17-65c-6-21-27-34-48-28l-99 26c-10 2-18 9-23 18-6 9-7 19-4 29l17 65zM228 68l8 34-105 28-9-34 106-28zM97 471H78l116 490v1c0 21 113 38 252 38 131 0 239-15 251-35h1l115-494H97zm173 450c-3 1-6 1-8 1-16 0-31-11-35-27l-77-305c-5-19 7-38 26-43 19-4 38 7 43 26l77 305c5 19-7 38-26 43z"/></svg>