<svg width="64" height="64" viewBox="0 0 1000 1000" xmlns="http://www.w3.org/2000/svg"><path d="M812 738c-9-18-21-20-21 1 0 22 13 37 40 52 9 5 20 8 20 20 1 10-8 15-17 18-46 16-88 41-128 69-30 21-63 5-64-28-1-50 2-100-6-150-2-9-1-21 11-25 11-3 15 8 19 15 15 26 37 31 64 23 36-11 75-68 71-106-8-71-29-138-78-192-13-15-26-31-37-49-3-5-6-10-8-15-13-24-27-59-30-84-3-19-3-85-15-122-11-32-33-64-64-81-22-12-47-20-72-21-14-1-29 1-43 4-49 12-80 52-86 114-2 18-2 36 1 53 10 83 1 156-60 222-43 46-52 115-78 173-9 20-8 45 28 42 12-1 21 8 28 17 40 44 72 93 98 146 9 19 16 41 0 60-15 18-37 16-56 11-50-11-100-23-150-35-22-6-29-18-19-40 6-12 9-26 2-39-14-29-5-42 27-46 15-2 27-7 34-19 11-18-4-22-21-10-13 7-27 11-42 12-22 2-29 17-24 39 4 21 8 42-1 65-13 35-4 50 33 58 18 4 176 45 179 46 28 13 87-65 109-65h4c39 0 82 12 119 12 14 0 25 12 35 23 35 35 77 40 115 8 27-23 55-40 87-55 1 0 3-1 4-1 3-1 19-11 34-26 17-18 23-34 6-45-20-13-37-28-48-49zm-378 87c-5-3-35-11-24-23 17-20 11-39-7-56-12-11-43-39-64-63-14-15-29-47-33-67-7-40-1-86-1-86 0-5 2-7 4-8 4-2 3 19 5 40v6c3 21 12 20 18 0 9-31 21-61 37-90 14-24 10-58 26-85 9-15 14-21 27-4 18 25 40 24 64 7 17-12 35-22 53-34 7-5 19-9 13-19s-16-3-24 1c-14 6-27 14-43 19-20 7-22-2-2-10 22-9 42-16 62-24 7-3 17-8 12-16-5-11-13-1-20 2-28 13-57 23-89 23-20-1-36-11-41-29-5-17 15-21 25-30 4-4 7-7 11-9 6-5 12-8 11-10v-3c2-12 2-21 0-28-3-15-33-21-42-10-9 10-9 25-9 25 1 6-1 9-3 11-4 3-11-18-5-38 7-22 20-25 33-25 50 0 46 69 44 70-1 0 5 2 10 6 6 3 12 0 13-11 0-6 0-12 1-18 0-40 23-50 40-47 51 7 45 69 43 70-6 5-9 6-12 6-8 0-5-14-5-18 1-2 1-4 1-7v-13c-1-7-5-16-10-19s-24-6-34 7c-9 12-9 34-8 42 1 6 2 12 6 15 8 5 17 10 27 13 19 6 27 16 22 37-4 17 0 33 9 48 29 52 63 146 77 213 5 20 12 32 16 25s9-31 11-52c1-24-1-57-13-85-8-19-6-22 6-5 14 20 26 51 22 99-2 21 1 44 10 52 8 8 1 7-16 9-18 3-29 19-30 24-1 4-3 7-5 9-43 25-37 63-34 102 1 11-23 27-27 31-46 47-99 56-158 30zm13-595c5 10 1 12-4 2-4-10-1-13 4-2zm101-5c-6-9-2-13 6-4 7 9 1 12-6 4z"/></svg>