<svg width="64" height="64" viewBox="0 0 1000 1000" xmlns="http://www.w3.org/2000/svg"><path d="M692 340c-24-20-48-40-71-61-11-11-22-23-31-36-13-22-5-39 20-43 15-3 31-3 46-4l81-3c-5-29-16-39-56-42-42-4-75-16-100-55-22-33-61-40-99-28-35 10-52 38-56 73-2 16-3 32-1 48 3 31-7 57-29 78-27 26-57 49-84 75-14 14-30 31-37 50-15 39-16 80-5 121 3 10 9 19 13 29l6 12c4-13 9-40 14-53 10-26 21-52 34-76 3-7 18-16 26-11 9 4 4 19 5 29 0 3-3 7-4 10-14 41-30 82-42 123-31 101-25 197 47 282 12 14 7 27-9 35-9 5-20 8-29 13-12 6-24 12-35 19l-17 9c30 0 81-1 112 0 15 0 25-5 35-17 7-9 20-17 31-19 23-3 47-4 70 0 15 2 29 13 43 21 8 5 15 17 23 17 33 2 74 1 107 1h16l-20-11c-17-8-32-17-49-23-33-13-38-24-15-51 46-55 61-120 57-190-4-64-19-126-42-186-4-10-9-20-10-31 0-8-2-22 6-26 8-5 21 2 27 8 10 11 18 24 23 38 7 20 9 42 14 62 2 6 5 22 8 28 5-5 14-21 14-26 4-39 8-78 7-117-1-30-21-53-44-72zM542 108c10 0 18 8 18 17s-8 18-18 18-17-8-17-18 7-17 17-17zm84 650c-11 52-50 76-101 79-24 1-49-1-72-6-54-13-85-55-92-120-2-10-2-20-2-30 2-46 14-87 26-129 17-56 35-112 53-167 6-17 13-33 20-49 9-19 25-32 47-31 21 1 38 13 45 33 21 63 42 126 60 189 11 40 22 82 25 123 3 35-2 72-9 108z"/></svg>