<svg width="64" height="64" viewBox="0 0 1000 1000" xmlns="http://www.w3.org/2000/svg"><path d="M713 601c0-63 0-126-1-188 0-38-24-63-62-63-100-1-200-1-300 0-38 0-62 25-62 63-1 66-1 132 0 198 0 39 24 63 63 65 11 1 23 0 38 0 0 58-1 113 0 167 1 48 24 71 72 72 23 1 45 1 68 0 61 0 82-21 82-82V679c12-1 20-2 27-2 53-2 75-24 75-76zm-463 44c-5-88-2-176-2-269-41 0-90-2-139 0-30 2-45 24-46 54-1 53-1 107 0 160 1 34 19 52 52 57l30 3c1 5 3 8 3 11 1 36 1 71 1 106 0 66 14 78 80 81 103 4 113-22 105-115-44-14-82-40-84-88zm687-217c0-25-13-48-38-50-50-4-101-1-150-1 3 24 6 44 7 64v164c0 75-17 100-89 130-8 101 3 112 102 112h3c66 0 79-14 79-81V650c16-2 27-2 39-4 29-5 46-23 47-54 1-54 1-109 0-164zM501 308c61 0 109-48 110-110 0-63-49-114-111-114s-112 52-111 115c1 62 50 109 112 109zm-258 32c51 0 93-43 92-94 0-51-43-94-94-93-52 0-92 42-92 94 1 52 43 94 94 93zm516 0c52 0 92-42 92-94s-42-94-93-93-94 44-93 94c0 51 44 94 94 93z"/></svg>