<svg width="64" height="64" viewBox="0 0 1000 1000" xmlns="http://www.w3.org/2000/svg"><path d="M673 235c-50-33-106-48-168-48-61 0-117 16-167 48-1-1-3 0-4 0H218v-53H116v53H63v525h258c53 36 115 58 184 58 70 0 132-22 185-58h248V235H673zm-525-21h37v21h-37v-21zm-36 497V284h167c-58 61-88 134-88 218 0 81 26 152 78 209H112zm555 3c-47 36-100 53-162 53-61 0-114-17-161-53-10-9-18-16-25-24l-1-1c-53-52-78-113-78-188 0-74 25-136 78-188 12-13 26-24 41-35 43-28 92-43 146-43 55 0 104 15 146 43h1c15 10 28 22 41 34 53 53 78 115 78 189s-25 136-78 188c-9 9-17 18-26 25zm222-3H742c52-57 78-128 78-209 0-84-29-157-88-218h157v427zM649 343c-45-45-100-68-164-68-14 0-25 11-25 25s11 24 25 24c51 0 93 18 129 53s54 79 54 130c0 13 10 24 24 24s24-11 24-24c0-64-22-119-67-164z"/></svg>