<svg width="64" height="64" viewBox="0 0 1000 1000" xmlns="http://www.w3.org/2000/svg"><path d="M156 210c8 7 22 13 32 13h632c11 0 24-6 31-13l54-61c7-7 4-13-6-13H98c-10 0-12 5-5 12l63 62zm693 580c-7-7-21-13-31-13H187c-10 0-24 6-31 13l-62 62c-7 7-4 13 6 13h801c10 0 12-6 5-14l-57-61zm76-620l-48 54c-7 8-12 22-12 32v490c0 10 5 24 12 32l48 51c7 7 13 5 13-5V175c0-10-6-12-13-5zM150 737V263c0-10-6-24-13-31l-61-60c-8-7-13-5-13 5v647c0 10 5 13 12 5l62-61c7-7 13-21 13-31zm47-485c-10 0-18 8-18 18v460c0 10 8 18 18 18h620c10 0 18-8 18-18V270c0-10-8-18-18-18H197zm493 288c0 10-9 18-19 18h-22c-10 0-18-8-18-18v-36c0-10 8-18 18-18h22c10 0 19 8 19 18v36zm116 179h-29V504c0-10-6-24-13-32l-91-93c-7-7-18-7-25 0l-91 93c-7 8-13 22-13 32v215H369V535c4-3 8-6 11-10 11 12 26 20 44 20 29 0 54-22 57-51 4 3 10 5 15 5 15 0 27-12 27-27 0-10-5-18-13-23 3-6 5-13 5-21 0-26-22-47-48-47-10 0-19 3-27 9-11-39-47-69-89-69-16 0-31 5-45 12-8-7-17-10-28-10-27 0-48 21-48 47 0 15 7 28 18 37-7 4-12 12-12 21 0 7 2 12 6 17-16 7-26 23-26 42 0 26 21 47 47 47 11 0 21-4 29-10 10 13 26 21 44 21h4v174H208V281h598v438z"/></svg>