<svg width="64" height="64" viewBox="0 0 1000 1000" xmlns="http://www.w3.org/2000/svg"><path d="M922 527c-29-10-42-35-56-65-32-74-89-127-165-165-7-4-14 0-13 9 1 12 2 22-2 31-2 7-7 13-12 19-9 9-23 10-33 1-7-6-13-13-14-20-5-18-3-36-2-56 0-9-7-17-15-19-21-4-42-7-64-11-8-2-15 4-15 13 1 17 2 32-1 46-2 6-7 12-13 17-8 8-23 8-32 0-7-5-12-11-14-18-5-13-3-28-2-46 0-9-7-14-15-13-23 5-44 9-65 13-8 2-15 10-15 19 1 23 2 43-2 63-2 11-19 24-30 26-8 1-23-15-27-26s-4-24-4-38c0-9-7-13-14-9-74 38-131 90-163 164-14 30-27 55-56 65-9 3-16 11-16 20v8c0 8 6 20 14 23 26 12 53 5 77-10 29-18 55-18 84-1 40 25 82 24 122 0 28-17 52-17 80 0 40 24 82 24 122 0 28-16 52-18 80-1 41 25 84 25 126 0 26-16 50-16 76 0 26 15 53 25 81 12 8-4 13-15 13-23v-8c1-9-6-17-15-20zm-158 72c-41 23-88 20-130-4-22-12-39-15-62-2-47 28-95 24-145 2-16-8-41-7-57 0-45 21-92 28-135 3-31-18-55-15-79 1-7 5-10 16-7 24 14 37 27 75 41 112 3 8 12 15 21 15h578c9 0 18-7 21-15 14-37 27-75 41-112 3-8 0-20-7-25-25-16-49-17-80 1z"/></svg>