<svg width="64" height="64" viewBox="0 0 1000 1000" xmlns="http://www.w3.org/2000/svg"><path d="M937 234c-3-5-8-3-12-3-5 0-9 1-13 1-27 0-52-8-76-16-30-10-60-12-90 1-24 10-40 29-54 50-3 6-6 7-12 4-22-8-44-16-67-22-48-13-97-20-147-15-46 5-90 17-134 33-6 2-13 7-18 6-6-1-8-10-13-15l-15-18c-17-18-37-29-63-31-22-2-43 1-63 8-28 10-57 17-87 14-10-1-13 3-8 13 15 26 28 52 40 78 6 13 10 27 18 39 17 28 40 45 75 40 5 0 10-1 16-1-3 7-6 13-8 18-19 53-18 107-5 160 22 92 76 157 165 191 61 22 125 28 189 19 50-6 96-22 138-50 96-61 129-194 111-285-4-18-10-35-18-53 5 1 8 1 11 1 10 0 20 2 30 0 28-7 45-27 56-51 6-13 11-25 17-38 10-23 22-45 34-67 2-3 5-7 3-11zM311 434c-2-1-3-3-5-5-3-4-6-8-12-2-3 2-7 1-10-2s-3-6-2-10c19-53 75-69 121-30 3 3 4 6 3 10-3 5-7 7-11 6-8-2-6 5-6 7-10 35-50 48-78 26zm227 250c-13 3-25 4-37 3-19 1-37-1-54-7-39-14-62-47-64-91-3-55 34-98 92-105 26-3 51-2 76 6 45 16 69 54 66 102s-31 81-79 92zm177-259c-3 3-8 4-12 1-3-3-4-3-6 0-13 16-30 22-50 17-21-5-33-20-37-41 0 0 0-1-1-2-2 1-4 1-7 1-4 0-7-2-8-6-2-4 0-7 3-10 35-31 83-31 110 10 4 6 7 12 10 19 2 4 3 8-2 11zM442 547c-12 1-19 10-19 24 1 13 2 26 4 39 2 12 12 19 23 18 11-2 18-11 17-23s-2-25-4-37c-1-14-9-21-21-21zm117 1c-13-1-21 6-22 20-2 12-3 25-4 37s5 21 16 23c12 2 22-6 24-18 1-13 2-26 4-39 0-13-7-23-18-23zM365 386c2 19-4 30-18 34-14 3-25-4-31-23-10 9-10 11-3 21 9 11 24 16 37 13 15-4 25-16 27-31 1-10 0-12-12-14zm319 11c-8 19-17 26-32 22-5-1-9-4-13-8-6-8-6-17-4-26-13 4-14 5-12 16 2 15 13 27 27 30 15 3 27-2 37-14 7-9 7-11-3-20z"/></svg>