<svg width="64" height="64" viewBox="0 0 1000 1000" xmlns="http://www.w3.org/2000/svg"><path d="M522 149c17 3 22 19 32 28 9 8 8 7 32 7 19 0 30-4 44 12 11 11 27 21 39 33 9 10 22 7 31-4 12-16 23-32 35-48 16-23 35-43 63-53 14-6 25-17 32-31 4-9 5-25 20-23s18 17 21 29c9 41 18 83 26 124 7 41 11 82 1 124-9 36-30 66-50 96-8 12-21 15-34 13-10-2-18-5-27-7-24-5-32 0-33 25-1 34 4 66 18 97 24 54 41 111 35 172-8 80-51 134-124 163-77 32-158 35-240 29-33-2-65-6-96-15-126-36-186-146-151-273 14-49 36-96 41-147 1-12 2-24-1-36-4-15-11-18-28-15-72 16-108-7-112-81-1-26 1-52 8-76 15-53 14-106 5-159-4-23 2-44 17-62 8-11 20-12 26 1 18 36 48 60 79 84 21 16 36 38 52 59 19 26 30 24 52 1 12-12 24-34 50-24 2 1 6 0 7-1 15-24 32-7 49-3 5 1 11 5 14 3 6-4 3-11 1-16-3-7-7-17 0-22 8-5 16 2 23 7 10 6 19 13 30 19 5 4 12 9 18 3 8-6-1-12-3-17s-10-14-2-16zm-18 634c13-1 27-1 40-4 26-7 47-20 53-49 12-56-23-111-80-125-48-11-100 24-114 78-11 46 11 87 55 96 15 3 30 3 46 4zM370 442c-10 1-24 0-23 13 2 22 23 18 37 22 6 2 14 2 12-7-3-14-5-30-26-28zm262 0c-18-1-24 9-25 24-1 8 1 14 10 11 15-4 36 0 38-22 1-11-13-13-23-13zM476 696c2 11-6 18-18 17-8-1-16-4-14-14s9-18 20-19c10-1 11 9 12 16zm61-17c10-1 18 9 20 20 1 9-6 13-14 14-11 1-16-5-18-14-2-10 3-19 12-20z"/></svg>