<svg width="64" height="64" viewBox="0 0 1000 1000" xmlns="http://www.w3.org/2000/svg"><path d="M908 593c-1-4-3-7-5-10-17-32-42-41-76-27-21 9-39 23-55 39-10 9-19 19-29 28-4-3-4-7-5-11-13-45-29-88-49-130-24-50-51-96-90-135-12-12-22-24-31-38-33-49-41-103-35-161 1-13 2-25 3-40-42 26-78 56-105 96-34 48-47 104-47 163 0 4 0 9-3 13-23 31-24 65-17 101 13 59 43 110 79 157 13 17 28 31 44 47-5 3-9 4-13 4-14 2-28 1-42-2-76-14-145-44-211-83-41-24-78-52-102-94-2-3-4-6-7-8-6-5-12-5-15 4-3 8-4 17-4 27-1 38 4 75 18 112-8-1-15-1-21-1-20 0-29 10-27 29 1 14 6 27 12 39 12 26 28 50 48 71-28 11-33 24-21 50 9 21 24 37 39 55 4 6 8 6 14 1 40-34 86-57 137-68 70-15 137-3 203 24 47 18 94 35 143 43 38 6 74 3 108-15 36-20 67-43 83-83 10-28 16-57 22-86 7-36 28-55 65-58 6-1 12-1 21-2-17-15-23-33-29-51zm-12 24c-4 4-7 4-11 0-4-3-3-7 0-11 3-3 7-3 10 0 4 3 4 7 1 11zM646 374c35 46 60 97 82 151 7 20 15 40 22 61 2-5 1-9 1-13-6-49-9-99 1-148 10-54 34-100 81-131 15-10 31-16 50-23-32-12-63-19-94-21-71-4-128 20-167 81-4 5-5 9 1 14 8 9 16 19 23 29z"/></svg>