<svg width="64" height="64" viewBox="0 0 1000 1000" xmlns="http://www.w3.org/2000/svg"><path d="M134 611c-1 1-3 2-6 3 11-16 22-29 35-41 43-42 96-67 153-84 19-6 38-11 59-16-3 20-2 39 5 57 2 4-3 3-5 4-15 2-30 4-45 7-69 14-134 38-196 70zm233-143c4-1 6-3 7-7 5-16 11-32 17-48 0-2 2-3 0-5-66 16-126 42-165 105 3 0 3 0 4-1 43-22 90-35 137-44zm570-260c0 4-1 5-3 8-5-4-10-8-16-8s-11-1-15 2c-9 6-19 8-30 7-8 0-13 4-17 10-10 17-16 35-20 54-6 25-9 49-2 74 1 4 0 4-3 4-4 0-8-2-13-3 7 19 15 37 18 58-8-8-16-16-27-21 5 13 11 24 11 37-7-11-14-22-22-32-34-44-79-73-130-93-9-4-18-7-27-9-7-2-8-4-4-10 10-17 22-33 34-49 17-21 35-42 54-63 6-7 6-7-3-10-1 0-1-1-3-1 8-5 16-9 25-13-6-3-11-1-19-2 28-11 53-24 81-27 5-1 15-1 20 0 1 0 2 1 3 1 15 2 29 6 40 17 1 2 3 2 5 2 31 5 55 18 63 52 0 0 1 11 0 15zm-97-49c1-4-3-5-7-5-3 0-7 1-7 5s4 6 8 6c3 0 6-2 6-6zM392 465c5-1 11-2 17-2-6 3-12 5-18 6-3 1-6 3-6 6-1 18-1 36 5 54 1 5 4 5 8 5 7-2 15-2 22-3-6 3-13 5-19 6s-6 4-3 9c10 14 25 23 42 28 43 12 86 8 128 1-41-7-78-21-110-49-21-19-36-42-35-72 1-24 12-43 27-62 10-13 22-24 34-35-19 8-38 19-56 31-25 18-33 45-40 73-1 3 0 4 4 4zm57-65c-27 38-27 78 2 112 30 36 110 71 165 53 45-14 90-29 128-58 17-12 30-26 36-46 11-35-2-60-38-70-12-3-25-5-37-6-24-1-46-5-67-18-24-14-30-31-23-56-2-1-4 0-6 0-27 6-53 15-79 25-9 4-19 7-28 12-20 15-38 31-53 52zm3 193c10-1 19-1 29-6h-11c-21-1-41-3-60-14-12-6-22-15-26-29-1-5-3-5-7-4l-39 9c-58 13-115 31-167 61-44 26-82 59-106 105-1 1-1 3-2 3v1c3-1 6-3 8-5 27-18 55-34 84-48 94-45 194-66 297-73zm-13 86c1-6-1-7-6-6-10 1-21 1-31 4-13 3-26 8-37 17-4 4-7 8-4 15 3 5 2 10 1 16-3 13-11 21-21 31 21-2 40-7 57-17 23-13 37-33 41-60zm168 34c6 13 18 21 32 20 2 0 4 0 5-3 4-17 12-22 28-19 5 1 7-1 9-4 18-32 25-68 34-104-12 7-23 10-35 13-19 6-38 10-57 17-13 5-21 13-20 28 0 1-1 3-1 5-1 16-1 32 5 47zm33-412c-11-3-19 2-22 12-4 16 2 30 14 40 19 17 42 23 67 25 21 2 43 3 63 12 14 7 26 17 29 33 4 23-1 45-14 64-18 26-44 41-71 54-64 30-133 43-202 53-43 7-87 12-131 18-69 9-134 30-197 61-34 17-67 36-99 56 0 2 1 2 2 2 33 9 67 9 101 8 3 0 3-2 3-4 1-15 8-27 18-38 5-5 11-10 19-11-7 18-7 36-9 54 0 4 1 6 6 6 22 1 44-2 66-5 3 0 4-2 4-5-2-9-3-18-3-27 0-10 0-21 6-32 6 18 12 34 18 51 2 5 4 6 9 5 9-2 19-3 28-5 3-1 5-2 4-6-2-12 2-22 9-31 7-7 16-12 26-16 17-6 34-7 52-8 9-1 10 1 10 10-2 12-5 24-7 36-2 10-4 20-1 30 3 14 21 18 28 8l6-6c8-7 15-7 24-1 3 2 5 5 8 7 9 5 14 4 19-5 4-7 7-15 9-24 10-41 36-70 74-88 25-12 51-17 77-25 73-22 121-66 135-143 2-12 4-25-4-37-44-62-101-106-174-128zm110 498c-1 0-2-1-3-2-4-9-12-11-21-10s-19 1-29 0c-21-2-28-12-24-33 2-8 5-17 5-26 0-6-3-10-8-12-6-3-11-2-15 2-5 4-5 9-3 14 4 11 8 23 9 35 0 14-4 22-15 25-8 2-16 3-25 0-11-4-20 1-23 12-1 3-3 3-5 4-5 3-8 7-7 14 6-6 11-9 19-7 14 5 14 5 24-7 2-4 5-8 10-6 5 1 7 5 8 9 2 5-1 8-4 10-5 6-4 13 2 15 9 1 13 6 13 15 6-5 6-11 8-16 6-12 7-11-3-19-3-2-6-4-5-7 1-5 4-6 8-7s7 0 10 2c6 3 9 7 12 13 3 8 12 14 19 12 6-2 9 2 12 6 2 2 2 6 5 7 1-7 1-14-3-20-2-3-3-6-4-9-1-8-6-13-14-15-7-2-14-2-21-3-1 0-4 1-4-2s3-3 5-3c15 3 32 1 38 21 2 6 7 9 13 10 5 2 7-3 9-5 8-6 13-5 18 3 0 1 1 2 2 5 3-16 0-20-13-25zm-189 12c-9-1-18 1-25-5-2-2-5-1-8 0l-11 4c-15 6-26-2-25-18 0-3 1-7 2-11 1-7 4-15 4-22 1-7-2-12-8-14-5-3-10-1-15 3s-5 9-3 14c5 12 9 25 9 38-1 12-5 18-17 21-9 3-19 3-28 1s-19-3-27 4c-6 6-12 13-17 21-1 3-2 6-1 8 9-10 9-11 22-6 10 3 16 1 21-8 3-5 8-8 13-10 8-2 14-1 18 5 5 6 2 10-2 15-5 6-3 13 4 15 10 2 11 3 11 14h1c6-6 7-14 11-21 4-5-1-10-6-13-3-2-7-5-6-9 2-5 7-7 12-7 1 0 3 1 4 2 7 2 11 8 14 15 4 8 12 13 19 11 6-1 10 2 14 5 2 2 2 5 5 5 1-7-1-12-5-17-2-3-3-5-3-8 0-12-5-17-17-17h-10c-4 0-7 0-10-1-2-1-3-1-3-3s2-3 3-3h6c10 1 20 3 29 9 5 3 9 2 11-3s5-5 9-5c6 0 11 0 18 1-2-8-8-9-13-10z"/></svg>