<svg width="64" height="64" viewBox="0 0 1000 1000" xmlns="http://www.w3.org/2000/svg"><path d="M929 618c-3-1-7-3-11-3-13-2-20-9-25-21-11-23-26-42-53-46-33-6-57 7-77 32-3 5-8 13-15 7-7-5-2-12 2-17 19-26 45-40 78-38 10 0 15-4 18-13 7-22 13-44 17-66 6-46 8-92 22-136 8-26 15-52 23-78 2-6 5-12-1-17-5-5-12-2-18 1-8 3-15 9-21 15-10 10-18 22-25 35-3 5-5 10-11 11-20 7-31 23-41 41-7 14-12 29-29 34-6 3-10 11-14 17-6 10-10 21-13 32-2 5-4 11-10 12-20 5-27 21-33 39-3 9-6 18-14 25-7 6-7 12-2 20 13 23 22 48 29 73 8 32-1 59-24 81-4 4-8 6-13 8-3 2-7 1-10-3-1-3-1-6 2-8 2-3 4-5 7-7 20-17 27-38 23-64-7-50-33-91-70-123-32-27-59-57-85-90l-1-2c-39-39-75-82-105-129-10-15-20-31-30-46-3-5-6-10-13-9-6 1-8 7-10 12-3 7-4 13-4 20 0 38 14 71 30 104 4 7 7 14 4 22-11 29-4 54 12 78 4 5 7 10 6 15-5 29 6 52 23 73 4 4 7 9 6 16-2 19 4 35 16 48 6 7 7 14 1 21-9 12-11 24-5 38 2 4 4 10-2 13-7 3-10-3-13-8-6-12-8-26-2-39 5-10 1-15-7-21-10-6-20-14-30-21-71-53-132-118-185-188-4-6-8-15-17-12-8 3-7 13-7 21 0 23 8 44 19 64 18 32 44 59 71 84 4 4 10 8 11 15 2 15 8 27 18 37 3 3 7 9 2 11-12 4-23 15-38 11-27-7-54-10-85-10-19-1-40 2-61 6-24 5-48 12-69 25-4 3-9 6-7 12 1 5 6 6 11 7l27 3c114 17 223 53 331 90 7 3 12 7 15 15 5 14 15 23 30 27 6 1 11 4 15 9 19 32 32 37 68 27 6-1 11-3 16 0 15 8 30 4 44-3 5-3 11-5 17-3 35 12 70 9 104 0 59-16 110-43 139-98 15-27 24-55 52-71 9-5 6-13-3-17zm-104 21c-10 1-16-5-16-14-1-11 5-16 15-17 10 0 15 6 16 15 0 10-5 16-15 16z"/></svg>