<svg width="64" height="64" viewBox="0 0 1000 1000" xmlns="http://www.w3.org/2000/svg"><path d="M740 355c-61 20-110 56-152 102-24 27-38 59-44 95-6 42-31 71-69 90-66 33-151 19-200-33-22-24-35-52-36-84-2-45-2-90-2-134 0-10-3-13-12-13-68 1-135 0-203 1-18 0-22-4-22-22V223c0-14 5-18 19-19 17 0 17 0 17-18v-26c0-10 5-17 14-21s18-3 26 4c20 17 40 35 60 53 7 6 15 9 24 9 126-1 252 0 378-1 30 0 51 11 63 39 2 6 5 6 11 4 41-16 83-17 125-8 3 1 5 2 8 3 11 4 17 13 16 23-2 11-10 18-22 18-18 1-35 3-50 12-10 7-21 15-20 26 0 8 14 11 22 15 15 9 32 13 49 19zM361 476v1c-15 0-30-1-46 0-16 0-27 10-28 25-1 34 8 65 37 85 41 29 85 30 130 11 32-14 45-40 44-73 0-16-8-28-22-37-6-4-9-4-11 5-5 17-14 33-26 47-13 14-29 26-48 32-7 2-13 2-18-3-5-6 0-11 3-16 4-6 8-12 12-17 11-16 20-32 26-50 3-8 1-10-7-10-15 1-30 0-46 0zm50-150c19 0 39 1 59 0 12 0 19-8 19-19s-8-18-22-19H354c-14 1-22 9-22 20 1 11 9 18 22 18h57zm0 81v-1h57c13 0 21-6 21-18 0-11-7-19-20-19-39-1-78-1-117 0-12 0-20 8-19 19 0 11 8 18 21 19h57zm449 456c-36 0-72 2-108-5-41-8-59-25-68-66-9-42-10-84-12-127-1-17-2-35-4-52-3-30-15-41-45-44-7-1-13-1-20-2-12-2-17-8-15-21 2-14 7-28 16-40 36-50 82-87 140-108 42-14 73 5 84 47 3 11 5 21 4 32-1 16 5 28 16 39 25 25 54 47 79 73 41 43 63 94 70 151 2 20 3 39 3 58 0 36-19 57-54 63-14 2-29 2-43 2h-43zm-81-339c0-21-16-38-36-38-21 0-38 17-38 37-1 21 17 38 38 38 19 0 36-17 36-37z"/></svg>