<svg width="64" height="64" viewBox="0 0 1000 1000" xmlns="http://www.w3.org/2000/svg"><path d="M542 158c-58-9-115-4-167 13l109 294 203-245c-42-31-91-52-145-62zm-88 81c-6 4-9-6-10-10-3-9-4-19-5-28 0-4 0-15 6-16 7-1 9 10 9 15 1 6 1 13 3 20 2 5 2 15-3 19zm48 143c-13-2-21-14-19-27s14-21 27-19c12 2 21 14 19 27s-14 21-27 19zm43-117c-3 19-21 32-40 29-19-4-32-22-29-41 4-19 22-32 41-28 19 3 32 21 28 40zm11-66c-4 20-14-5-12-14 3-20 13 5 12 14zm53 65c-13-2-21-14-19-27s14-21 27-19c12 2 21 14 19 27-2 12-14 21-27 19zm232 277l61 11c19-144-37-282-140-372l-39 47c86 77 134 193 118 314zm36 69c-26 120-109 214-216 258l22 58c126-52 225-164 254-306l-60-10zM127 452l-61-11c-18 142 36 278 135 368l40-48c-83-76-129-190-114-309zm297 400c-60-11-115-36-160-71l-39 48c53 42 117 71 189 83 69 12 137 6 199-14l-21-58c-53 17-110 21-168 12zm120-711c58 10 111 34 155 67l39-48c-52-40-114-68-183-79-72-12-142-6-206 16l21 58c55-18 114-24 174-14zm-203 25l-21-58C196 161 100 271 71 411l61 10c25-117 106-210 209-255zm370 74L508 485l316 53c15-115-31-226-113-298zm-27 102c3-19 21-32 40-28s32 21 29 40-21 32-40 29-32-22-29-41zm-61 119c-13-2-22-14-19-26 2-13 14-22 26-19 13 2 22 14 19 26-2 13-14 22-26 19zm95-7c-4 10-11 18-21 23-13 8-19-22-8-29 6-3 10-8 13-14s10-6 14-1c5 6 6 14 2 21zm43 42c-13-2-21-14-19-27s14-21 27-19c12 2 21 14 19 27-3 12-14 21-27 19zM585 824L474 526 274 767c43 34 95 58 153 67 55 10 108 5 158-10zm-63-33c3-20 12 6 11 14-4 20-13-6-11-14zm-63-169c13 2 21 14 19 26-2 13-14 22-27 20-12-3-21-15-19-27 2-13 14-21 27-19zm9 90c-3 14-10-15-9-21 3-15 10 15 9 21zm-122 51c-13-2-22-14-19-27 2-12 14-21 27-19 12 2 21 15 19 27-3 13-15 21-27 19zm64-63c-3 20-18-3-16-14 4-20 18 2 16 14zm5 63c4-19 22-31 41-28s32 21 29 40c-4 19-22 32-41 29s-32-22-29-41zM149 424l306 52-109-293c-97 43-173 130-197 241zm46-30c-3 20-15-4-13-14 3-20 15 4 13 14zm127-68c4-20 19 2 17 14-4 20-19-2-17-14zm60 82c-2 13-14 21-27 19-12-2-21-14-19-27 3-12 15-21 27-19 13 2 21 14 19 27zm-52-180c13 3 21 15 19 27-2 13-14 21-27 19-12-2-21-14-19-26 2-13 14-22 27-20zm-53 80c20 4 32 22 29 41s-21 32-40 28c-19-3-32-21-29-40s21-32 40-29zm-26 439l199-241-306-52c-14 113 29 221 107 293zm-23-156c-2 14-9-15-8-21 2-14 9 15 8 21zm49-47c3-19 21-32 40-29s32 21 28 40c-3 19-21 32-40 29s-32-21-28-40zm-21 98c13 2 22 14 19 27-2 12-14 21-26 19-13-2-22-14-19-27 2-13 14-21 26-19zm-45-149c12 2 21 14 19 27s-15 21-27 19c-13-2-21-14-19-27s14-21 27-19zm649 114l-317-54 111 299c102-42 181-131 206-245zm-48 21c3-20 19 1 17 14-3 20-19-2-17-14zm-160 55c3-20 20 1 18 14-4 20-20-1-18-14zm-11-23c-19-3-32-21-29-40s22-32 41-28c19 3 32 21 28 40-3 19-21 32-40 28zm46 140c-2 14-9-15-8-21 2-15 9 15 8 21zm8-37c-13-2-22-14-19-27 2-12 14-21 26-19 13 2 22 15 19 27-2 13-14 21-26 19zm48-119c-5 12-9 24-18 33-6 5-13 1-16-4-4-7-3-16 2-22 5-5 8-13 11-21 2-6 8-11 15-6 6 4 8 13 6 20zm10 35c2-12 15-21 27-19s21 15 19 27c-2 13-14 22-27 19-12-2-21-14-19-27z"/></svg>