<svg width="64" height="64" viewBox="0 0 1000 1000" xmlns="http://www.w3.org/2000/svg"><path d="M513 678c-1-43-2-86-3-128 0-13 0-15-10-14-9-1-9 1-10 14 0 42-1 85-3 128-26-77-70-134-144-160 84 125 141 261 141 420h32c1-159 57-295 142-420-74 26-119 83-145 160zM394 475c10 21 23 38 41 51 11 7 22 12 34 8 30-9 41-42 23-71-10-17-24-30-41-40-25-15-53-24-83-31 5 19 9 35 14 50 3 11 8 22 12 33zm103-53c-14 26-1 50 19 61 16 10 30 3 44-7 18-13 30-30 40-51 11-25 19-51 24-79-28 3-74 22-95 39-13 10-24 22-32 37zm-22-199c18 0 29-10 34-29 4-18 4-35 0-52-7-29-20-54-35-80-16 27-29 54-36 85-3 16-3 32 2 48 5 19 16 28 35 28zm23 97c-5 8-8 18-6 28 6 24 28 36 48 25 9-4 17-11 24-19 23-26 31-61 40-97-25 6-48 14-69 26-15 8-28 20-37 37zm-41 102c13 8 25 2 35-10 10-11 13-24 6-38-3-8-8-16-14-22-25-29-59-37-95-48 8 37 17 70 39 97 8 9 18 16 29 21zm1-95c12 7 25 4 35-8 10-11 12-24 4-37-5-9-12-19-20-26-22-18-47-25-74-32 6 29 13 57 29 79 7 9 17 17 26 24zm37-91c-6 13-5 24 4 34 10 12 20 16 33 10 17-7 29-20 37-38 9-20 15-41 23-62l-3-3c-29 8-57 15-79 38-6 6-11 14-15 21z"/></svg>