<svg width="64" height="64" viewBox="0 0 1000 1000" xmlns="http://www.w3.org/2000/svg"><path d="M401 815c7-32 13-59 21-85 3-12 9-28 19-43l4-7c4-7 8-13 12-19 2-3 5-6 8-8 2-3 4-6 7-8 3-3 7-5 11-7 27-11 56-12 83-1 5 2 10 5 14 10h26c2-2 4-3 5-4V404l-380-80-56-5v672h219c-7-15-9-29-9-42 0-15 1-30 2-47 4-31 9-61 14-87zM231 928c-1 0-1-1-2-1-6-1-11-3-17-5-1 0-1 0-1 1v4l-3-1v-4c0-1 0-1-1-1h-2v-5h3v-25-2c1-1 2-1 3 0l1 2 14 24c2 3 4 6 5 9 1 1 1 2 1 2 0 1 0 2-1 2zm1-22c-1-1-1-1-2-1l-1-1v-13-1c0-1-1-2-3-3h-1l-13-4c-2-1-4-2-5-4s-2-3-2-4v-16c0-1 1-1 1 0h2v14c0 3 2 4 5 5l12 4c2 0 3 1 5 2 1 2 2 4 2 5v17zm0-37c0 3-2 4-6 4-2-1-3-1-5-2-2-2-3-4-3-6v-21c0-2-2-3-4-4l-2-1-6-1-1-1v-4s0-1 1 0c2 0 5 1 8 2 4 1 6 4 6 8v20c0 2 1 3 4 4 1 0 2 1 2 1 2 0 3-1 3-3v-25c0-1 0-1 1 0h2v29zm660-119c0 11 8 19 18 19s18-8 18-19-8-19-18-19-18 9-18 19zm30 0c0 7-5 12-12 12s-12-5-12-12 5-12 12-12 12 5 12 12zm49 149c-3-29-8-57-13-85-6-27-12-55-20-82-4-12-8-24-15-34-5-9-10-17-16-25-1-2-3-3-4-4-2-1-3-1-3-3 0-1 0-2-1-2-1-1-3-2-4-2-19-9-39-9-59-1-1 0-2 1-2 3 0 3-1 5-4 5-5 3-10 3-15 3h-43v64c0 9-7 16-16 16H636c-8 0-16-7-16-16l1-64h-44c-5 0-10-1-15-3h-1c-2 0-3-2-3-5 0-2-1-3-3-3-19-8-39-8-58 1-2 0-3 1-4 2-1 0-2 1-2 2 0 2-1 2-2 3-2 1-3 2-4 4-6 8-11 16-17 25-6 10-11 22-14 34-8 27-14 55-20 82-5 28-10 56-13 85-2 14-3 28-3 42 1 19 5 32 22 46 31 25 72 9 81-4 9-14 16-34 22-52 5-15 10-30 15-44 1-5 5-7 9-9 0 0 1 1 2 1 21 16 48 15 68-1 1-1 3-2 4-2h109c1 0 3 1 4 2 21 16 48 17 69 1 0 0 1-1 2-1 4 2 7 4 9 9 5 14 9 29 14 44 6 18 14 38 22 52 9 13 51 29 81 4 18-14 22-27 22-46 0-14 0-28-2-42zM591 692c0-7 5-12 11-12s11 5 11 12v24c0 6-5 11-11 11s-11-5-11-11v-24zm-68 124c-34 0-63-29-63-65 0-35 29-64 63-64s63 29 63 64c0 36-28 65-63 65zm81 64c-18 0-33-15-33-33 0-19 15-34 33-34s32 15 32 34c0 18-14 33-32 33zm72-33c-2 0-3 2-3 4v7h-4-1v-7c1-3 3-6 6-6h19c2 0 3-1 3-3v-2c0-2-1-2-3-2h-24s-1 0-1-1v-2h28c2 0 5 3 5 6 0 1 0 2-1 4-1 1-2 2-4 2-1 1-1 1-2 1-6-1-12-1-18-1zm55-10l-1 1h-12-1c-1 0-2 1-2 2v12c0 2-1 4-3 5-1 1-2 1-3 1h-16v-2s0-1 1 0h12c3 0 4-2 4-4v-11c0-1 0-3 1-4s3-2 4-2h16v2zm48-145c0-7 5-12 11-12s11 5 11 12v24c0 6-5 11-11 11s-11-5-11-11v-24zm9 188c-18 0-33-15-33-33 0-19 15-34 33-34s33 15 33 34c0 18-15 33-33 33zm81-64c-35 0-63-29-63-65 0-35 28-64 63-64 34 0 62 29 62 64 0 36-28 65-62 65zM92 931l-65 60h128V319H92v612zm120-36h-1v22l15 4c1 1 1 1 1 0-5-9-10-17-15-26zm399-510V127L240 0h-66v296l59 5 378 84zm25 362h120c6 0 10-5 10-11v-64c0-6-4-11-10-11H636c-6 0-10 5-10 11v64c0 6 4 11 10 11zM92 296h63V0H92v296zm433 462c-1-1-3-1-4 0l-11 13c-2 2-4 5-4 8v23c0 5 4 8 8 8h17c5 0 8-3 8-8v-23c0-3-1-5-2-7l-12-14zm335-42h18l-9-15-9 15zm9 56c-10 0-18 8-18 19s8 19 18 19 18-9 18-19-8-19-18-19zm11 28l-2 2-8-9-9 9-2-2 9-9-9-9 2-2 9 9 8-9 2 2-8 9 8 9zm-58-58h15v16h-15v-16zm-301 5c1 1 3 1 4 0l12-14c1-2 2-4 2-7v-23c0-5-3-9-7-9h-18c-4 0-8 4-8 9v23c0 3 2 6 4 8l11 13zm348-56c-10 0-18 8-18 19s8 18 18 18 18-8 18-18-8-19-18-19zm-13 28l13-23 13 23h-26zm-339 30l-13-12c-2-2-5-3-7-3h-23c-5 0-8 4-8 8v18c0 5 3 8 8 8h23c3 0 6-1 8-3l12-12c1-1 1-3 0-4zm313-18c-11 0-19 9-19 19s8 19 19 19 18-8 18-19-8-19-18-19zm10 29h-20v-20h20v20zm-269-26h-23c-3 0-5 1-7 3l-13 12c-1 1-1 3 0 4l12 12c2 2 5 3 8 3h23c4 0 8-3 8-8v-18c0-4-4-8-8-8zm329 16c0 5 5 10 10 10s10-5 10-10-5-10-10-10-10 4-10 10z"/></svg>