<svg width="64" height="64" viewBox="0 0 1000 1000" xmlns="http://www.w3.org/2000/svg"><path d="M415 550c-5 3-7 8-5 14 5 13 15 21 27 27 20 10 42 13 64 13 24 0 47-3 68-16 9-5 17-13 21-23 3-6 2-11-4-15-5-4-10-2-14 3-14 17-34 24-55 26-33 3-64-1-88-27-4-5-9-6-14-2zm182-64c16 0 29-13 29-29s-13-29-29-29c-15 0-29 13-29 29s13 29 29 29zM489 706zM207 219c12 11 26 21 40 30 5 3 10 5 16 5 31 2 62 4 93 5 58 3 116 6 174 4 65-2 130-5 194-9 4 0 8 0 11-2 16-10 32-20 46-33 7-7 9-14 5-24-8-22-18-42-29-62-14-25-33-43-61-55-51-20-102-45-153-67-34-15-66-14-100 0-57 23-112 49-168 74-10 5-18 11-25 20-20 28-36 58-49 89-4 11-2 18 6 25zm208-92v-2c0-18 0-19 18-17 20 1 34-5 42-23 4-8 7-18 18-18 10 1 14 10 18 18 12 21 21 26 49 21 8-1 10 1 11 8 3 20 1 38-8 55-12 24-30 41-53 54-11 6-23 6-35 1-40-20-59-52-60-97zm-22 359c16 0 29-13 28-29 0-16-13-29-29-29-15 0-29 14-28 29 0 16 13 29 29 29zm260 233zm-57 42c12 4 25 7 40 12-8-12-14-21-20-31-4-6-7-15-14-19s-15 4-22 7c-55 17-110 15-164-4-3-2-7-5-11-1-13 15-25 30-40 47 16-3 28-6 39-10 11-3 20 0 27 8 21 21 43 41 63 62 5 5 8 6 13 0 19-21 38-41 57-62 9-10 19-13 32-9zm297 114c-16-35-30-70-49-103-4-8-10-13-19-15-56-15-113-26-172-38 17 26 33 51 49 75 7 12 8 21 2 29-7 9-16 11-29 7-25-7-51-15-76-22-6-2-10-1-14 4-20 21-40 43-60 65-3 3-5 7-5 12 1 34 1 68 0 102 0 8 3 9 10 9 86-3 170-21 250-54 38-16 74-35 107-60 4-2 8-4 6-11zm-176 67c-7 2-13 0-18-3-22-12-33-30-33-55 0-8 1-15 10-11 12 1 20-3 25-13 8-14 14-14 21 0 6 11 14 15 25 12 8-1 10 3 11 10 2 24-18 53-41 60zM354 718zm116 153c-19-19-39-38-57-57-5-5-10-6-16-4-29 7-58 14-86 21-10 3-18 0-24-8-5-8-5-18 1-26 3-4 5-7 8-10 19-22 37-45 58-69-13 2-22 4-32 5-47 9-94 18-141 30-14 4-24 11-31 25-15 32-29 66-42 99-2 5-1 8 3 11 19 14 38 27 59 38 94 48 193 70 298 74 7 0 8-3 8-9V884c0-5-2-9-6-13zM250 486c5 1 7 4 8 9 5 21 12 41 20 60 43 96 114 149 211 151 90-1 154-31 199-99 23-34 36-72 44-111 1-7 4-9 9-12 28-11 46-31 54-60 4-14 4-28 3-43-3-31-13-59-39-79-10-8-22-13-36-12-17 2-35 2-52 3-63 3-126 8-190 7-68-1-137-4-205-10-35-2-56 13-74 40-4 7-7 15-9 23-4 16-5 31-4 47 3 41 22 71 61 86zm-23-128c2-8 6-15 12-21 4-4 8-10 12-8 5 1 3 8 3 13 3 22 5 44 12 65 2 6 5 13 9 18 3 4 7 7 13 6s8-5 9-10c2-11 4-23 6-35 4-26 4-26 28-16 51 21 103 36 158 38 57 3 111-12 163-36 5-2 11-4 15-7 6-4 8-2 10 4 4 15 8 31 12 46 2 6 3 16 12 16s11-9 13-16c9-27 10-55 12-82 1-3 1-6 1-10 14 5 23 14 28 27 10 21 13 44 6 67-7 24-23 37-47 40-8 1-11 4-12 13-4 32-13 62-27 92-32 66-84 104-158 109-66 5-124-14-169-65-29-34-46-73-57-116-2-9-1-20-6-28-5-9-17-5-26-8-17-8-28-19-34-37-5-20-5-40 2-59z"/></svg>