<svg width="64" height="64" viewBox="0 0 1000 1000" xmlns="http://www.w3.org/2000/svg"><path d="M826 232c17 47 35 92 52 138 13 35 27 70 40 105 2 6 5 9 12 8h36c30 1 36 23 34 45-1 6-6 4-9 4H62c-16 0-14 2-14-14V231c0-20 5-26 25-26h759c3 0 6 0 9 1 7 1 11 6 11 13 0 8-5 12-12 13h-14zm-87 251h98c19 0 25-7 18-25-23-64-46-128-70-192-4-12-8-15-22-15-42-1-84-1-126-1-13 0-18 5-18 17v197c0 15 5 19 20 19h100zm-465-10c21-11 39-21 58-31 6-4 12-4 19 0 16 9 32 18 48 26 3 1 5 4 9 2-3-14-4-29-8-43-6-21-2-36 15-49 12-9 22-22 33-34-19-2-37-5-55-7-13-2-21-5-26-18-7-18-17-34-26-53-8 17-17 31-23 46-6 17-16 26-34 25-5 0-9 1-14 2-12 3-24 2-35 6 10 11 19 23 30 31 18 14 24 30 17 52-5 13-5 28-8 45zm250 86h464c10 0 12 3 12 12-1 28 0 55 0 83 0 12-5 22-15 29-6 4-9 5-12-4-13-43-42-70-86-80-57-12-115 24-130 81-2 6-4 9-11 9-107-1-214-1-320 0-7 0-10-2-12-9-13-52-57-87-110-87-55 1-98 35-112 88-1 5-3 8-10 8-56-1-113-1-170 0-8 0-12-3-12-11v-38c0-8 4-11 12-11s17-1 25 0c9 1 11-3 11-11-1-16 0-32-1-48 0-8 2-11 10-11h467zm342 72c44 1 81 37 81 82s-37 81-82 81c-44 0-81-37-81-81 0-45 37-82 82-82zm0 112c16-1 30-15 29-31 0-16-14-30-30-29-16 0-30 14-30 30 1 16 15 30 31 30zm-644-33c2-45 39-81 84-79 45 3 81 40 79 84-2 45-40 81-84 79-45-2-81-39-79-84zm111 3c0-17-14-31-30-30-16 0-29 13-30 29 0 16 14 31 30 31s30-14 30-30z"/></svg>