<svg width="64" height="64" viewBox="0 0 1000 1000" xmlns="http://www.w3.org/2000/svg"><path d="M967 444c-37-14-73-29-110-44-39-15-78-30-117-47-39-15-78-26-119-27H381c-24 0-47 5-71 10-27 6-52 19-78 29-66 26-131 53-197 78-26 10-44 42-31 70 16 35 30 70 45 105 17 39 47 56 88 56h442c98 0 196 1 294 0 32 0 58-17 72-45 19-39 36-79 52-120 10-26-4-54-30-65zm-329-45c-16 18-25 37-17 62 4 11 8 23 9 35 3 30-9 56-28 80-21 27-50 43-78 61-18 11-32 10-48 0-29-18-57-34-78-61-17-20-27-43-28-63-2-23 4-38 9-53 8-24-1-43-16-60-4-4-3-6 0-9 11-10 22-21 32-32 3-3 5-4 8 1 18 23 34 27 60 14 11-6 22-12 31-19 5-4 7-4 11-1 11 9 22 15 34 21 24 11 42 7 57-14 4-6 6-5 10-1 10 11 21 21 31 32 3 2 4 4 1 7zm-54 74c-16-2-34-5-51-7-5-1-7-3-9-8-8-15-16-31-24-48-5 11-11 20-15 31-6 18-16 29-37 27 0 0-1 0-2 1-10 1-21 3-30 4 11 12 20 24 32 34 8 7 8 14 6 23-3 14-5 29-8 46 10-5 18-9 26-14 9-4 18-13 28-13 9 0 19 8 28 13 8 4 16 9 26 14-4-20-6-37-10-54-1-4 1-7 4-11 12-12 24-25 36-38z"/></svg>