<svg width="64" height="64" viewBox="0 0 1000 1000" xmlns="http://www.w3.org/2000/svg"><path d="M994 616c-5-34-24-60-57-73-28-11-57-21-87-30-27-9-56-14-83-24-52-21-103-45-155-67-35-14-71-28-109-30-9 0-18 0-26-1 0-3-3-6-7-6h-80c-4 0-7 3-7 6v1c-30 2-61 4-92 7-15 2-31 4-44 10-73 35-145 70-217 106-8 3-12 7-13 16 0 10-3 20-5 29-5 35-15 68-11 103 1 14 2 28 3 41h55c1-12 2-23 3-35 6-42 43-76 83-79 55-4 91 35 98 70 3 14 4 29 6 44h487c0-15-2-29 0-43 9-49 50-78 102-73 46 5 81 43 83 89 0 9 1 17 2 28 23-1 46-2 68-3 6-1 10-4 9-11-2-25-3-50-6-75zM259 511c12-24 25-45 42-64 11-11 26-14 40-16 31-3 61-5 92-7 2 34 3 66 4 99-59-4-118-8-178-12zm465 23c-75-2-151-5-226-9-9 0-18-1-29-1-1-33-3-65-5-98 32-2 61 3 90 10 61 16 118 41 172 73 1 1 3 2 5 4 5 5 10 11 15 17-8 2-15 5-22 4zm103 72c-42 0-76 34-76 76 0 43 34 77 76 77 42 1 78-35 78-77-1-42-35-76-78-76zm1 108c-18 1-32-13-33-31 0-18 14-32 32-33 18 0 33 15 33 33 0 17-15 31-32 31zM155 606c-43 0-78 34-78 77 0 41 34 76 76 76 42 1 77-34 77-76 1-42-33-77-75-77zm-1 109c-18-1-32-15-32-32-1-18 14-33 32-32 18 0 32 13 32 32-1 18-14 32-32 32zm239-334h75v-34c-1-9-4-17-11-23-11-12-25-15-40-10-15 6-23 17-24 33-1 8 0 15 0 22v12zm69-36c1 10 1 21 1 32h-12v-24c0-17-7-29-23-35 0-1-1-1-1-1 17-3 34 11 35 28zm24-7c0 4 3 5 6 5h30c4 0 6-1 6-5s-3-5-6-5h-30c-4 0-6 1-6 5zm-8-40l10-10c4-4 7-8 11-12 2-2 3-5 0-7-3-3-5-2-7 0-7 8-14 15-21 23-3 2-4 5-1 7 3 3 6 2 8-1zm-140 45h30c4 0 6-1 6-5 1-4-2-5-5-5h-31c-3 0-6 1-6 5s3 5 6 5zm34-55c4 3 7 7 10 10 3 2 5 4 8 1 3-2 2-5 0-7-7-8-14-15-21-23-3-2-5-3-8 0-2 2-2 5 1 7 3 4 7 8 10 12zm58-5c4 0 5-3 5-6v-31c0-3-1-5-5-6-3 0-5 3-5 6v30c0 4 1 6 5 7z"/></svg>