<svg width="64" height="64" viewBox="0 0 1000 1000" xmlns="http://www.w3.org/2000/svg"><path d="M562 145c0-35-27-63-62-63-36 0-63 26-63 63v49c0 11 4 14 14 14h96c11 0 15-4 15-15v-48zm-44-29c-19 1-32 14-32 33-1 12 0 24 0 36h-27c1-18-1-35 2-51 5-26 37-38 59-24l5 5c-4 0-6 0-7 1zm-89-23c8-8 16-15 24-22-11-10-21-21-32-32-6-5-16-4-21 2-6 5-7 15-1 21 10 11 20 21 30 31zm156 66c15 0 29 1 43 0 9 0 15-7 15-16 0-8-6-16-14-16-15-1-30 0-45 0 0 11 1 21 1 32zm17-95c5-6 4-16-2-22-6-5-15-6-21 0-11 10-21 20-29 29 7 8 14 15 21 23 10-9 21-19 31-30zm-86-5c0-14 1-29 0-43 0-8-7-15-15-15s-16 6-17 13v45h32zm-147 99c15 1 29 1 45 1v-32h-34c-4 0-8 0-12 1-7 2-11 8-11 15 0 8 5 15 12 15zm520 790c0 14-4 26-14 36s-22 15-36 15-26-5-36-15-15-22-15-36v-84h101v84zm-677 0c0 14-5 26-15 36-9 10-21 15-36 15s-26-5-36-15c-9-10-14-22-14-36v-84h101v84zm608-353c-19 0-35 6-48 19-13 14-20 30-20 49 0 18 7 34 20 47 13 14 29 20 48 20s35-6 48-20c13-13 19-29 19-47 0-19-6-36-19-49s-29-19-48-19zm-63-273c-4-12-8-21-13-26s-12-8-21-8H517v34h17c5 0 9 1 12 5 3 3 5 7 5 12s-2 9-5 12-7 5-12 5h-68c-5 0-9-2-12-5s-5-7-5-12 2-9 5-12c3-4 7-5 12-5h17v-34H277c-9 0-16 2-21 6-4 4-9 13-13 28-2 7-7 21-14 44-7 22-14 45-22 68-7 24-14 45-20 63-6 19-9 28-9 28h389c0-23 8-44 25-62 16-19 36-28 59-28s43 9 59 28c17 18 25 39 25 62h87s-3-10-9-29-13-40-20-64c-8-24-15-47-22-69s-12-36-14-41zM113 660c0 19 6 35 19 48s29 20 48 20 35-7 48-20 20-29 20-48-7-34-20-47c-13-14-29-20-48-20s-35 6-48 20c-13 13-19 29-19 47zm167-33h440v-34H280v34zm0 67h440v-34H280v34zm440-169c0-18-7-35-20-50s-29-22-48-22-34 7-47 22c-14 15-20 32-20 50 0 1 22 1 67 1s68 0 68-1zM280 762h440v-34H280v34zm609 68H111c-19 0-35-7-48-20-13-14-20-30-20-48V593c0-19 7-35 20-48s29-20 48-20h34s2-8 7-24c6-17 12-36 19-58 8-22 15-45 22-68s12-40 16-53c8-26 16-43 26-53 9-10 23-15 42-15h446c19 0 32 4 41 12 8 8 17 27 27 56 9 29 22 70 39 123 17 54 26 80 26 80h34c18 0 34 7 47 20 14 14 20 30 20 48v169c0 18-6 34-20 48-13 13-29 20-48 20z"/></svg>