<svg width="64" height="64" viewBox="0 0 1000 1000" xmlns="http://www.w3.org/2000/svg"><path d="M893 579c0-4 2-9-3-13-72 44-144 88-219 133V564c-75 46-147 89-221 135V564c-63 39-123 76-185 115-1-5-2-7-2-9l-15-285c-1-9-2-13-12-13-31 1-61 1-91 0-8 0-12 2-12 11-4 66-7 132-11 197-6 114-12 228-19 342-1 12 2 16 15 16 68-1 137-1 206-1h554c13 0 15-3 15-15V579zM405 848c-28-1-56 0-83 0-8 0-11-3-11-11v-84c0-8 3-10 10-10 28 0 55 1 83 0 9 0 11 3 10 11v42c0 13 0 27 1 41 0 8-1 11-10 11zm213-11c0 7-2 11-10 11-29-1-57-1-85 0-7 0-10-3-10-10 0-29 1-58 0-86 0-7 3-9 9-9h43c14 0 28 1 42 0 8 0 11 2 11 11-1 27 0 55 0 83zm199 8c-10 10-31 2-48 3h-43c-7 0-10-3-10-10 1-28 1-57 0-85 0-8 4-10 11-10h83c8 0 10 3 10 10v46c-1 14 8 36-3 46zm56-534c-1 5-2 9-4 14-27-25-63-40-102-40-58 0-108 33-134 80-16-18-28-40-36-66-5 18-5 33 0 47 4 10 1 16-5 22-30 40-81 55-130 39-42-14-69-42-80-85-1-9-1-12 8-15 14-4 26-12 34-28-45 20-87 21-130-2 0 10 5 16 10 20 7 5 6 10 2 15-13 21-28 36-56 33-24-2-48-1-72 0-10 0-18-3-25-10-32-30-41-67-27-108 14-40 44-62 85-66 30-3 60-2 89 16-4-13-10-24-21-29-13-6-9-13-3-21 25-36 67-52 113-41 40 9 67 41 74 85 3 18-1 35-5 55 19-10 29-23 30-43 0-10 3-12 12-12 11 1 22 2 32 6 8 3 10 0 9-8-3-50 35-91 76-103 45-13 101 7 130 45 14 18 19 39 18 62 7 1 11-3 12-7 3-16 12-10 20-6 58 25 90 89 76 151zm-8 108c-1-4-2-9-3-13-4-15-12-29-23-40-6-7-14-13-22-18-1-1-1-1-1 0l-17 30c-6 9-11 19-17 28 0 1-1 1 0 1 10 6 14 15 15 26h69c0-5-1-9-1-14zm-128 14v-6c2-9 7-15 14-20 1 0 1 0 1-1-12-19-23-39-35-58h-1c-11 7-21 16-29 26-13 18-19 37-19 58v1h69zm45 26h-1c-5 3-10 4-16 4-4 0-8-1-11-3-1 0-2-1-2-1-1 0-1 1-1 2l-33 57c-1 0-1 1 0 1 11 6 23 10 36 12 4 1 8 1 13 1h5c3-1 6-1 9-1 5-1 10-2 15-4 7-2 14-5 20-8v-1l-8-14c-9-15-17-30-26-45zm-15-6c11 0 19-9 20-20-1-11-9-20-20-20s-20 9-20 20 9 20 20 20zm96-112c-24-26-58-42-96-42-54 0-101 33-120 79-7 16-11 34-11 52 0 72 59 131 131 131s131-59 131-131c0-35-14-65-35-89zm-96 205c-64 0-116-52-116-116 0-15 3-29 8-42 17-44 59-74 108-74 35 0 66 16 88 40 17 21 28 47 28 76 0 64-52 116-116 116z"/></svg>