<svg width="64" height="64" viewBox="0 0 1000 1000" xmlns="http://www.w3.org/2000/svg"><path d="M245 562h145c-25-42-48-83-73-125-24 43-47 83-72 125zm510 1c-25-43-48-83-73-126-24 42-48 83-72 126h145zM336 427c25 43 48 84 73 126 25-43 48-83 73-126H336zm255 126l73-126H519c24 43 48 84 72 126zm255 168c-24-42-47-83-72-126-26 44-49 84-73 126h145zm-692 0h145c-24-43-48-83-73-126-25 43-48 84-72 126zm419-452H427c25 43 48 83 73 126 25-43 49-84 73-126zM427 879h146c-25-42-48-82-73-126-25 43-49 84-73 126zm-364 0h145c-25-43-48-83-73-126-25 43-48 83-72 126zm547 0h145c-25-43-48-83-73-126-25 43-48 84-72 126zm255-126c-25 43-49 84-73 126h146c-25-43-49-84-73-126zM500 121c-25 43-48 83-73 125h145c-24-42-47-82-72-125zM227 869c24-43 48-83 72-125H154c25 42 48 82 73 125zm292-125c24 42 47 82 72 125 25-43 48-83 73-125H519zm182 0c25 42 48 83 73 125 25-43 48-83 72-125H701zm-37-339c-25-43-48-83-73-126-25 43-48 84-72 126h145zM409 279c-25 43-48 83-73 125h145c-24-42-48-82-72-125zm-91 432c25-43 48-83 72-125H245c25 42 48 82 73 125zm364 0c25-43 48-83 73-125H610c25 43 48 83 72 125z"/></svg>