<svg width="64" height="64" viewBox="0 0 1000 1000" xmlns="http://www.w3.org/2000/svg"><path d="M513 600c-10 0-20 5-28 12-15 12-25 35-25 61s11 49 27 62c7 6 16 10 26 10s19-4 27-10c16-13 26-36 26-63 0-24-9-45-22-59-9-8-19-13-31-13zm226-240c-6-11-18-17-31-16 2-19-12-37-33-42 18-16 17-44-4-59 25-23 20-61-11-77s-70-2-79 29c-5-1-10-2-15-2 12-10 14-26 5-38 23-10 32-36 18-57-13-20-42-25-62-11-18-28-60-33-85-10s-20 61 11 77c-8 10-10 22-7 33-7 0-14 2-20 6-11-22-39-30-61-18s-28 39-13 58c-20 11-31 33-25 54-29-8-59 7-68 34-8 26 9 54 38 61-1 3-1 5-2 8h-6l75 547h298l75-547c7-9 8-21 2-30zM578 202l8 2 2-7c8-27 42-40 68-26s32 48 10 68l-6 5c3 2 5 3 7 5 19 14 18 40-3 53-7 0-14 2-21 5-10 0-20-4-26-11l-6-6-5 6c-8 8-21 10-31 5-10-6-15-17-11-27l3-8-8-1c-21-4-34-23-29-42 7-19 29-29 48-21zm-119-43l5-6-7-4c-27-14-31-48-10-68s58-15 74 9l4 7 6-5c17-11 41-7 52 10s4 38-15 47c-3 1-5 2-8 3l5 6c7 10 5 22-4 30-8 7-21 7-30 1l-7-4c-1 2-3 5-4 7-8 16-28 23-45 17-3-10-11-17-21-20-4-10-2-22 5-30zm-103 80l7-4-5-6c-13-16-8-38 11-48 18-10 42-3 51 14 1 3 2 5 3 7l7-4c10-6 23-5 31 2 9 8 10 20 3 29l-5 6 8 4c19 8 26 30 16 46-11 17-36 22-53 10l-6-4-4 6c-1 1-2 2-2 3-17-21-51-21-69-1-4-4-8-7-14-9-7-19 2-41 21-51zm54 152l-107-1c0-2 1-3 1-5l3-7-8-2c-29-7-43-38-28-63s52-29 74-9c1 2 3 4 5 6l5-6c13-15 38-17 53-3 16 13 15 36-1 48-3 2-5 4-7 5l7 6c10 7 11 21 3 31zm1-37c15-11 20-31 11-48 2-1 3-3 4-5 21 14 50 8 63-12s4-46-19-56c4-5 6-11 6-17 20 6 42-3 51-21 4 3 8 4 14 5-15 9-22 25-18 41 4 15 18 27 35 30-5 13 0 28 14 35s30 4 40-6c6 6 14 11 23 13-9 8-14 21-12 33-23 0-42 12-51 31-4-5-9-9-15-12 15-19 10-46-12-58s-51-4-61 17c-13-8-30-6-41 4s-12 25-3 37c-8 3-13 7-18 13 1-9-3-18-11-24zm32 17l7-4-4-6c-7-9-6-21 2-29 9-7 22-8 32-2l7 4c1-2 2-4 3-7 9-17 33-24 51-14s23 32 10 48l-4 6 7 4c6 3 12 8 16 14-1 2-1 4-1 6h1l-7 1h-93l-46-1c3-9 10-16 19-20zm109 391l-4 135h-71l-2-135c-23-18-38-51-38-89 0-37 14-70 35-88l-2-188h93l-6 191c20 18 33 49 33 85-1 38-16 71-38 89zm175-372l-151 1c2-22 22-39 47-39h8c-1-2-1-5-1-7-3-19 14-37 35-37s38 17 36 36v8c2-1 5-1 8-1 11-1 21 5 25 14s1 19-7 25z"/></svg>