<svg width="64" height="64" viewBox="0 0 1000 1000" xmlns="http://www.w3.org/2000/svg"><path d="M920 490c-30-38-59-77-87-117-14-18-27-36-47-43-25-10-51-18-78-27 2 14 4 25 5 36s3 22 3 33c1 11 0 22 0 33h-3c-1-7-2-13-2-20-2-26-8-50-17-73-5-11-12-17-22-20-105-33-211-45-318-22-20 4-40 10-60 16 10 35 17 69 16 104-2-6-3-11-5-17-7-23-13-46-20-69-4-11-11-18-21-15-59 13-100 55-131 114 17 23 21 50 16 79-1-8-2-16-4-23-5-12-10-24-16-35-4-7-10-7-15 0-12 17-27 34-37 53-24 45-18 91 20 120 32 25 68 45 103 65 12 7 26 9 40 10 49 4 99 6 149 10 29 3 58 10 85 27 48 32 101 39 154 29 40-8 80-20 120-30 19-5 38-11 57-15 63-13 102-58 127-125 10-29 7-55-12-78zm-453-9c-24 10-50 4-57-14-8-19 5-42 29-52 23-11 49-4 57 14s-5 41-29 52zm117 116c-10 19-24 33-43 37-15 3-23-8-21-25 3-24 33-52 52-49 12 1 17 8 16 24 0 2-1 8-4 13zm136-1c-5 12-13 23-25 26-5 1-13 0-16-4s-3-14-1-19c6-14 17-22 28-25 11 1 18 11 14 22z"/></svg>