<svg width="64" height="64" viewBox="0 0 1000 1000" xmlns="http://www.w3.org/2000/svg"><path d="M837 686c-23-22-53-36-86-38h-5c-36 0-68 15-91 38-24 23-38 56-38 91 0 18 4 36 11 51 6 15 16 29 27 40 23 23 55 38 91 38 71 0 128-58 128-129 0-35-14-68-37-91zm-24 61l-79 79c-2 2-6 2-8 0l-47-48c-3-2-3-6 0-8l11-11c2-2 6-2 8 0l32 32 64-63c2-2 5-2 7 0l12 12c2 2 2 5 0 7zM396 296c-5 16-7 32-7 47 0 24 1 44 3 61s5 34 8 51h190c2 13 4 25 5 36 0 10 1 21 1 32s-1 21-1 31c-1 10-3 21-5 33H421c0 6 1 13 2 20 1 8 1 15 1 21 0 28-2 53-6 77s-13 51-27 79h185v14c0 63 39 117 94 140H143l-5-18 16-13c17-15 32-32 43-53 12-22 21-44 29-66 7-23 13-45 16-67 4-21 6-39 6-54 0-13-1-26-2-39-1-14-3-27-4-41H132c-2-13-4-25-5-35-1-11-1-22-1-33s0-21 1-31c1-9 3-20 5-33h89c-3-21-6-42-8-62-2-21-3-42-3-63 0-33 6-66 18-98 11-32 30-61 54-86s55-45 92-61c37-15 81-23 132-23 44 0 82 4 113 10 31 7 60 16 88 27-2 19-6 40-12 65-5 25-15 50-28 76-22-9-44-17-65-23-21-7-48-10-81-10-25 0-46 5-63 13-17 9-31 19-41 32s-17 28-21 44z"/></svg>