<svg width="64" height="64" viewBox="0 0 1000 1000" xmlns="http://www.w3.org/2000/svg"><path d="M932 201H711c-7 0-11 3-16 8-73 74-146 148-219 223-3 2-8 5-6 9 1 5 7 3 10 3h126c4 0 9-1 11 5 2 5-3 7-6 9L471 590c-24 22-48 45-73 68 7 4 12 3 17 3h99c4 0 9 0 11 4 3 5-1 8-4 11-17 21-35 44-54 65-49 55-96 112-144 169-2 3-9 6-5 10s7-2 11-4l5-5c89-71 178-143 266-215 49-39 98-79 147-118 3-2 8-4 5-8-1-3-5-2-8-2h-80c-5 0-10 1-13-4-3-6 3-9 6-12 68-62 135-124 203-186 3-3 8-5 8-10-4-4-9-2-13-2l-58-1c-5 0-12 2-14-4-3-6 4-9 8-12 46-42 92-83 138-124 4-3 10-5 8-12h-5zM411 713c15-1 30-5 45-8 8-1 13-9 13-15s-9-3-14-3c-14-1-28 0-48 0-25 1-57 0-89-7C169 649 73 504 92 363c15-120 83-200 193-244 34-14 70-18 107-16 51 3 99 17 142 44 35 21 64 49 88 83 1 2 2 8 8 6 12-4 16-18 9-28-64-85-148-128-254-130-49-1-97 10-141 30C109 170 35 327 72 471c40 155 180 255 339 242zM257 180c-5-9-9-10-17-5-76 52-116 124-120 216 0 9 3 10 10 10h143c7 0 11 0 11-10 2-30 14-56 39-73 9-6 8-11 4-18-24-40-47-80-70-120zm6 449c29 14 60 23 95 26 3 1 7-2 11-5 32-31 65-62 98-93 4-4 4-7 1-12l-33-57c-3-7-6-7-13-4-25 11-51 12-77 1-5-2-8-1-11 4-25 43-49 86-74 128-4 6-3 9 3 12zm219-242c39-40 79-81 119-121 4-4 4-7 1-12-21-31-47-58-78-78-5-4-8-3-11 2-24 44-49 87-75 131-2 4-2 6 2 9 24 17 35 41 39 70 1-1 2-1 3-1zm-101 78c39 1 70-30 70-70 0-39-31-70-70-70-38 1-69 31-70 70 0 38 32 70 70 70z"/></svg>