<svg width="64" height="64" viewBox="0 0 1000 1000" xmlns="http://www.w3.org/2000/svg"><path d="M734 70H601V47c0-26-21-47-47-47H446c-26 0-48 21-48 47v23H265c-60 0-109 49-109 109v712c0 60 49 109 109 109h469c61 0 110-49 110-109V179c0-60-49-109-110-109zM500 21c13 0 24 11 24 24s-11 24-24 24-24-11-24-24 11-24 24-24zM372 137h256v100H372V137zm362 800H265c-25 0-46-21-46-46V179c0-25 21-47 46-47h45v112c0 30 25 55 55 55h270c30 0 55-25 55-55V132h44c26 0 47 22 47 47v712c0 25-21 46-47 46zM392 404l-11 13c-4-10-13-16-24-16h-72c-14 0-26 11-26 25v80c0 14 12 26 26 26h72c14 0 26-12 26-26v-43l33-39c5-7 5-17-2-22s-16-5-22 2zm-26 102c0 5-4 9-8 9h-73c-5 0-9-4-9-9v-80c0-5 4-8 9-8h73c4 0 8 3 8 8v9l-21 25c-6 7-15 7-22 1l-13-12c-6-6-16-5-22 1s-5 16 1 22l37 34c3 3 6 4 10 4h1c5 0 8-2 11-5l18-22v23zm26 68l-12 14c-4-8-13-13-22-13h-73c-14 0-25 11-25 25v80c0 14 11 25 25 25h73c13 0 25-11 25-25v-47l33-39c5-7 5-17-2-22-7-6-16-5-22 2zm-26 106c0 5-4 8-8 8h-73c-5 0-9-3-9-8v-80c0-5 4-9 9-9h73c4 0 8 4 8 9v5l-21 25c-6 7-15 7-22 1l-13-12c-6-6-16-5-22 1s-5 16 1 22l37 34c3 3 6 4 10 4h1c5 0 8-2 11-5l18-21v26zm26 65l-13 15c-4-8-12-13-21-13h-73c-14 0-25 11-25 25v80c0 14 11 26 25 26h73c13 0 25-12 25-26v-48l33-39c5-7 5-17-2-22-7-6-16-5-22 2zm-26 107c0 5-4 9-8 9h-73c-5 0-9-4-9-9v-80c0-5 4-8 9-8h73c4 0 8 3 8 8v4l-21 25c-6 6-15 7-22 1l-13-12c-6-6-16-5-22 1s-5 16 1 22l37 34c3 3 6 4 10 4h1c5 0 8-2 11-6l18-21v28zm364-397H477c-9 0-16 7-16 16s7 16 16 16h253c8 0 15-7 15-16s-7-16-15-16zm0 154H477c-9 0-16 7-16 15 0 9 7 16 16 16h253c8 0 15-7 15-16 0-8-7-15-15-15zm0 153H477c-9 0-16 7-16 15s7 16 16 16h253c8 0 15-7 15-16 0-8-7-15-15-15z"/></svg>