<svg width="64" height="64" viewBox="0 0 1000 1000" xmlns="http://www.w3.org/2000/svg"><path d="M506 263h448c12 0 23 0 33 6 8 6 13 12 13 23v366c0 16 0 16-16 16-35 0-70 0-105 1-12 0-15-3-15-15V470c0-14-2-16-16-16H165h-2c-10 0-14 3-14 14 1 47 0 93 0 140 0 18 0 35 1 53 0 10-4 13-14 13H12c-9 1-12-3-12-12V314c1-31 22-51 53-51h453zm59 96c103 0 206 0 309-1 37 0 31 6 32-31 0-15-2-16-17-16H254c-30 0-30-1-31 29 0 19 0 19 18 19h324zm-425-54c-22 0-38 17-38 39 1 23 17 39 39 39 27-2 39-19 39-41 0-18-13-38-40-37zM506 40h267c16 0 17 1 17 16v133c0 11-3 15-14 15H237c-11 0-14-3-14-14 1-45 0-90 0-135 0-11 2-16 14-16 90 1 180 1 269 1zm3 920c-78 0-156 1-234 0-39 0-59-21-60-58-1-125 0-250 0-376 0-11 4-14 14-14 15 1 30 2 45 1 11-1 13 3 13 13-1 117 0 235-1 353 0 11 3 14 15 14h408c15 0 15 0 15-16l1-349c0-15 0-15 15-15h47c7 0 10 2 10 10v378c0 11-3 21-6 30-7 19-21 29-45 29H509zm-2-203h168c9 0 13 2 12 12-1 13 0 26 0 40 0 7-3 10-10 10H345c-19 0-19 0-19-19 0-10 1-20 0-29-1-13 4-14 14-14h167zm-4-141h163c20 0 16-1 17 17 0 11-1 21 0 31 1 12-4 15-15 15-29-1-59 0-88 0H339c-16 0-17-1-17-16 0-12 1-24 0-35-1-10 3-12 12-12 57 1 113 0 169 0z"/></svg>