<svg width="64" height="64" viewBox="0 0 1000 1000" xmlns="http://www.w3.org/2000/svg"><path d="M937 445c-1-93-76-157-203-173-22-3-43-5-65-4-10 0-20-2-33 3 96 35 115 99 124 166 11 88 15 175-10 262-13 47-36 90-75 129-7 7-13 15-30 20 21-32 38-63 48-95 26-88 31-177 25-266-2-41-1-82-20-121-25-51-66-89-143-103-10-2-21-4-31-4 115 446-38 595-38 595-81-185-5-572 0-595-67 6-129 37-156 83-32 53-45 110-50 168-8 109-1 216 60 318 1 2 0 4-1 9-42-38-66-80-79-125-33-108-28-217-2-326 12-48 44-89 112-112-102-16-275 27-302 133-1 4-4 8-5 11v123c7 36 13 72 23 108 16 60 42 118 91 169 59 61 139 95 244 95 14-1 28 1 39 8h57c16-9 34-10 53-9 108 3 190-30 250-93 57-59 83-126 99-196 15-59 20-118 18-178zM379 254c14 0 27 5 41-1 50-21 103-24 154-8 36 12 69 1 104 0-38-26-79-43-124-45-16 0-24-5-27-25-6-32-3-64 2-95h-63c-3 32-17 61-23 92-4 19-13 27-33 30-40 7-79 18-116 52h85z"/></svg>