<svg width="64" height="64" viewBox="0 0 1000 1000" xmlns="http://www.w3.org/2000/svg"><path d="M788 354c-2-1-3-3-5-5-2-3 3-8 12-11 7-3 15-5 22-8 48-18 72-60 67-113-4-42-43-83-86-89-51-7-94 17-114 62-4 8-7 17-11 25-3 9-8 15-9 14-2-1-3-2-4-3-52-52-104-103-156-155-1-1-2-3-2-4-2-3-5-5-6-5-2 0-6 4-9 8-2 2-4 5-6 7-52 51-103 103-155 154-4 5-9 10-13 16-14 17-11 34 9 45 14 7 30 11 44 19 28 15 37 48 22 75s-51 37-77 20c-11-8-18-22-25-34-6-10-8-23-13-33-10-19-25-22-43-10-6 5-12 11-17 16L69 489c-6 6-6 17 0 24l417 416c6 7 14 10 17 8 1-2 3-3 5-5l137-137c3-3 6-7 9-10 21-24 17-44-13-57l-39-15c-31-13-49-44-44-75 5-32 30-56 60-60 36-3 63 13 75 46l13 36c13 34 34 38 61 12 35-33 68-68 102-101 18-18 36-35 55-52 6-7 12-14 12-16 0-1-2-4-5-6-2-1-3-2-4-4-47-46-93-93-139-139z"/></svg>