<svg width="64" height="64" viewBox="0 0 1000 1000" xmlns="http://www.w3.org/2000/svg"><path d="M437 605h1c1 0 0 0 0 0h-1zm42 167v1s1-1 0-1zm-83-167zm251-84h-1 1zm-48-41h-70c-3 0-6 2-6 5v115c0 3 3 5 6 5h69c3 0 5 3 5 6v29c0 3-2 5-5 5H442c-3 0-5-2-5-5v-30c0-3-2-5-5-5h-30c-3 0-6 2-6 5v114c0 2 3 5 6 5h29c3 0 6-3 6-5l1-29c0-3 3-5 6-5h155c3 0 5 2 5 5 1 10 2 20 2 29 0 3 3 5 6 5 10 1 19 1 28 2 3 0 5 3 5 5v32c0 3-2 5-5 5h-29c-3 0-5 3-5 5-1 11-1 20-2 29 0 3-2 5-5 5H484c-3 0-5-2-5-5v-29c0-3-2-6-5-6h-31c-3 0-5 3-5 6v72c0 3 2 5 5 5h32c3 0 5 2 5 5v32c0 3 2 5 5 5l31 1c3 0 5 2 5 5v29c0 3 2 5 5 5h240c3 0 6-2 6-5v-29c0-3-3-5-6-5h-31c-3 0-5-3-5-6v-31c0-3-2-5-5-5h-30c-3 0-5 2-5 5l-2 30c0 3-3 5-6 5h-29c-3 0-5-2-5-5v-72c0-3 2-5 5-5h29c3 0 6-2 6-5v-32c0-3 2-6 5-6h32c3 0 5-2 5-5v-73c0-3-2-5-5-5h-31c-3 0-6-2-6-5v-72c0-3-2-5-5-5-11-1-21-2-31-2-3-1-6-3-6-6v-71c0-3-2-6-5-6l-31-1c-3 0-6-2-6-5l1-30c-1-3-3-5-6-5zm-43 417h-29c-3 0-5-2-5-5v-29c0-3 2-5 5-5h29c3 0 5 2 5 5v29c0 3-2 5-5 5zm9-340v-31c0-3 2-5 5-5h28c3 0 5 2 5 5v31c0 2-2 5-5 5h-28c-3 0-5-3-5-5zm373 83V528c0-3-2-6-5-6l-31-2c-3 0-5-3-5-5v-73c0-3-3-5-6-5h-71c-3 0-5-2-6-5 0-10 0-20-1-29 0-3-3-5-5-5h-71c-3 0-5 2-5 5v28c0 3 2 5 5 6 10 0 19 1 28 1 3 0 5 3 5 6v72c0 3-2 5-5 5h-71c-3 0-5 3-5 6v32c0 3 2 5 5 5h197c3 0 5 2 5 5v31c0 3-2 5-5 5H738c-3 0-6 2-6 5v32c0 3 3 5 6 5h28c3 0 5 2 5 5 1 11 2 21 2 31 1 3 3 5 6 5h29c3 0 5 3 5 6v32c0 3 3 5 6 5h32c3 0 6 2 6 5v29c0 3 2 5 5 5h70c3 0 5-2 5-5v-29c0-3-2-5-5-5-10-1-19-1-28-2-3 0-5-2-5-5v-71c0-3 2-6 5-6 10-1 20-1 29-2 3 0 5-2 5-5zm-89-121h-28c-3 0-5-2-5-5v-28c0-3 2-5 5-5h28c3 0 6 2 6 5v28c0 3-3 5-6 5zm0 169h-30c-2 0-5-2-5-5v-29c0-3 3-6 5-6h30c3 0 5 3 5 6v29c0 3-2 5-5 5zM689 522v-1c-1 0-1 1 0 1zM68 937h279c3 0 5-2 5-5V653c0-3-2-5-5-5H68c-2 0-5 2-5 5v279c0 3 3 5 5 5zm42-248h196c3 0 5 3 5 6v195c0 3-2 5-5 5H110c-3 0-5-2-5-5V695c0-3 2-6 5-6zM347 63H68c-3 0-5 2-5 5v279c0 3 2 5 5 5h279c3 0 5-2 5-5V68c0-3-3-5-5-5zm-41 247H110c-3 0-5-2-5-5V109c0-3 2-5 5-5h196c3 0 5 2 5 5v196c0 3-2 5-5 5zM933 62H654c-3 0-5 3-5 6v278c0 3 2 6 5 6h279c3 0 5-3 5-6V68c0-3-2-6-5-6zm-42 250H696c-3 0-5-3-5-6V110c0-3 2-5 5-5h195c3 0 5 2 5 5v196c0 3-2 6-5 6zM145 521zm0-41v-1c0-1 0 0 0 0v1zm293 35v-29c0-3 3-6 6-6 10-1 19-1 28-2 3 0 5-3 5-5v-31c0-3-2-5-5-5h-71c-2 0-5-2-5-5v-29c0-3-2-5-5-5H275c-3 0-5 2-5 5v29c0 3-3 6-6 6h-71c-3 0-5 2-5 5-1 11-2 21-2 31 0 3-3 6-6 6h-29c-3 0-6 2-6 5v30c0 3 3 5 6 5h71c3 0 6-2 6-5l1-29c1-3 3-5 6-5h32c3 0 5 2 5 5v72c0 3 2 5 5 5l30-2c3 0 6-2 6-5v-31c0-2 2-5 5-5h115c3 0 5-2 5-5zm-119-77h71c3 0 5 2 5 5v29c0 3-2 6-5 6h-71c-3 0-5-3-5-6v-29c0-3 2-5 5-5zm251-252h28c3 0 5-2 5-5V68c0-3-2-5-5-5h-72c-3 0-5 2-5 5v29c0 3-2 6-5 6h-31c-3 0-5 2-5 5v115c0 3 2 5 5 5h72c3 0 5-2 5-5 1-12 1-21 2-32 0-3 3-5 6-5zm-14-43h-29c-3 0-5-2-5-5v-29c0-3 2-6 5-6h29c3 0 5 3 5 6v29c0 3-2 5-5 5zm-77 85h0zm376 628h1c1 0 0 0 0 0h-1zm1 41h-1s0 1 1 0zm-84 0v1c0 1 0 0 0 0v-1zm-41-41h-1v-1s1 0 1 1zm0-84h-1 1zm41 89v31c0 3 3 5 6 5h72c3 0 5-2 5-5v-31c0-2-2-5-5-5h-32c-3 0-5-2-5-5v-73c0-3-2-6-5-6h-72c-3 0-5 3-5 6v72c0 3 2 5 5 5h31c3 0 5 3 5 6zM438 312s-1 0 0 0zm5-1h32c2 0 5-3 5-6l-1-71c0-3-2-5-5-5h-30c-3 0-6-3-6-5l-1-31c-1-3-3-5-6-5h-28c-3 0-6 2-6 5v71c0 3 3 5 6 5 10 1 20 2 30 2 3 0 5 3 5 6v29c0 3 2 5 5 5zm36-83s0 1 1 1 0-1 0-1h-1zm-41 628v-1s-1 0-1 1c1 0 0 0 0 0h1zm-6 0h-29c-3 0-5 2-5 5v71c0 3 2 5 5 5h71c3 0 5-2 5-5v-29c0-3-2-5-5-5h-32c-3 0-5-2-5-5v-32c0-3-2-5-5-5zm48 41c0 1 0 1-1 1s0 0 0-1 1 0 1 0zM145 521zm-76 82h28c3 0 5-2 5-5 1-10 1-20 2-30 0-3 3-6 6-6h29c3 0 5-2 5-5l1-30c0-3-3-6-6-6H69c-3 0-6 3-6 6v71c0 3 3 5 6 5zm76-41l-1 1h1v-1zm544-41h-1 1zm-84-42v1s-1 0-1-1 1 0 1 0zm0-34v29c0 3 3 5 5 5h32c3 0 5 2 5 5v31c0 3 2 6 5 6h31c3 0 5-3 5-6v-71c0-2-2-5-5-5h-73c-2 0-5 3-5 6zM63 403v28c0 3 2 5 5 6 10 0 19 1 29 1 3 1 5 3 5 6l2 30c0 3 3 5 6 5h29c3 0 6-2 6-5v-71c0-3-3-5-6-5H68c-3 0-5 2-5 5zm82 76s0 1 0 0zm424-126h29c3 0 5-2 5-5v-71c0-3-2-5-5-5h-71c-3 0-5 2-5 5v29c0 3 2 6 5 6h31c3 0 5 2 5 5v31c0 3 3 5 6 5zM226 598v-30c0-2-2-5-5-5h-71c-2 0-5 3-5 5v30c0 3 3 5 5 5h71c3 0 5-2 5-5zm-81-35zm168-1v-1 1zm0 6v31c0 3 3 5 6 5h71c3 0 6-2 6-5v-31c0-3-3-6-6-6h-71c-3 0-6 3-6 6zm83 37v-1 1zm460 251v-1s-1 1 0 1zm76-40h-71c-3 0-5 2-5 5v29c0 3 2 5 5 5h71c3 0 5-2 5-5v-29c1-3-2-5-5-5zM563 354v-1 1zm-36 81h30c3 0 6-2 6-5v-71c0-2-3-5-6-5h-30c-3 0-5 3-5 5v71c0 3 2 5 5 5zm29 297h-71c-3 0-5 2-5 5v29c0 3 2 6 5 6h71c3 0 5-3 5-6v-29c0-3-2-5-5-5zm-77 40h0c-1 0 0 0 0 0zm377 125c-1 1-1 1 0 1s0 0 0-1zm40 35v-29c0-3-3-5-6-5h-29c-3 0-5 2-5 5v29c0 3 2 6 5 6h29c3 0 6-3 6-6zM472 565h-29c-3 0-5 2-5 5v29c0 3 2 5 5 5h29c3 0 6-2 6-5v-29c0-3-3-5-6-5zm-34 40v-1s-1 1 0 1zm83-293h0s1 0 0 0zm-40-1h-1 1zm41 43h-1v-1l1 1zm-1-6v-30c0-3-2-6-5-6h-30c-3-1-5 2-5 5v31c0 3 2 5 5 5h30c3 0 5-2 5-5zm-118 4h29c3 0 5-2 5-5v-29c0-3-2-6-5-6h-29c-3 0-5 3-5 6v29c0 3 2 5 5 5zm35-40h-1 1c1 0 0 0 0 0zM152 854h112c3 0 5-3 5-6V737c0-3-2-5-5-5H152c-3 0-5 2-5 5v111c0 3 2 6 5 6zm111-708H152c-3 0-6 2-6 5v112c0 3 3 5 6 5h111c3 0 5-2 5-5V151c0-3-2-5-5-5zm586 1H737c-3 0-5 2-5 5v112c0 2 2 5 5 5h112c3 0 5-3 5-5V152c0-3-2-5-5-5z"/></svg>