<svg width="64" height="64" viewBox="0 0 1000 1000" xmlns="http://www.w3.org/2000/svg"><path d="M500 62C258 62 63 258 63 500s195 438 437 438 438-196 438-438S742 62 500 62zm50 742c-21 3-42 5-62 5-21 0-42-2-63-5-3-21-5-42-5-63s2-41 5-63c21-3 42-5 62-5 21 0 42 2 63 5 4 22 5 43 5 63 0 21-1 42-5 63zm114-370c-10 20-23 36-38 49-14 14-29 24-44 32-15 9-28 15-37 19v77c-20 3-39 5-58 5s-36-2-53-5V465c13-2 26-6 41-10 14-4 27-10 39-18 12-7 22-16 29-27 8-11 12-25 12-42 0-24-9-42-27-55-17-13-41-19-70-19-12 0-22 0-32 1-9 1-18 2-26 4-7 2-16 4-24 7s-17 5-26 9c-8-15-14-30-20-46-5-16-8-33-9-50 15-5 29-9 41-13s25-6 37-9c11-2 23-4 35-4 12-1 25-2 38-2 69 0 120 16 155 47 34 31 52 73 52 127 0 27-5 50-15 69z"/></svg>