<svg width="64" height="64" viewBox="0 0 1000 1000" xmlns="http://www.w3.org/2000/svg"><path d="M677 159c-5 1-11 3-17 3-4 0-10 3-12-1s3-7 6-10c10-10 21-19 31-29 6-4 8-10 8-17V71c-1-18 2-38-4-56-5-17-12-19-26-9-8 6-14 13-20 21-74 88-129 189-174 294-6 14-9 29-6 44 2 15 6 29 11 43 2 8 1 14-1 20-3 7-5 6-9 2-8-8-16-17-22-27-1-2-2-6-5-5-3 0-3 4-4 6l-12 30c-18 45-34 91-50 136-8 26-4 49 12 70 9 12 18 24 29 34 6 6 7 11 5 18-5 16-8 32-13 47-2 9 0 11 9 11 8-1 16-1 24-1 5 1 8-1 10-7 3-14 8-29 10-43s10-21 22-25c17-7 35-14 51-23 20-10 35-26 43-47 6-15 2-22-13-25-13-2-27-4-41-6-3 0-7-1-8-5 0-3 4-5 6-6 14-7 29-12 44-16 21-5 32-16 38-38 24-77 52-153 71-232 9-35 16-71 19-108 1-10-1-11-12-9zM469 867c-20 0-41 0-61-1-11 0-17-5-17-15-1-11 5-17 17-18h26c23 0 23 0 26-24 1-6 1-10-8-10-30 1-59 0-89 0-8 0-8 4-7 10 2 11 4 22 6 34 1 4 0 8-3 11-37 38-51 85-53 136 0 8 3 10 10 10h193c4 0 9 2 9-6 1-44-9-85-36-122-4-4-8-5-13-5z"/></svg>