<svg width="64" height="64" viewBox="0 0 1000 1000" xmlns="http://www.w3.org/2000/svg"><path d="M343 358c35 4 67 15 94 37 23 18 40 41 52 69 47 115 89 232 133 348 3 10 9 15 19 18 31 6 61 13 92 20 25 7 42 25 43 47 1 9-1 13-11 12-67-10-134-20-201-29-10-2-18-8-24-16-67-82-134-163-200-245-10-12-20-18-35-19-72-6-128-39-164-103-22-38-30-79-23-123 1-8-1-11-9-13l-39-9c-4-1-8-2-7-7 1-19 4-38 24-48 46-26 92-53 140-76 77-36 151-26 218 28 71 57 141 116 211 174 8 7 13 7 19-2 4-8 12-13 21-19-10-7-19-13-28-20-98-70-157-166-191-279-1-4-4-8 0-11s8 1 12 2c140 50 245 138 307 275 4 9 9 13 18 16 49 16 83 47 95 99 9 37 18 74 28 112 2 7 1 12-6 17 0 0-1 0-1 1-40 34-41 36-93 25s-96 0-136 34c-9 8-20 15-29 23-11 10-24 14-38 16-11 2-15-1-19-11-23-60-46-120-69-179-9-23-17-46-26-68-27-67-91-107-163-99-5 1-9 2-14 3zm518 193c12-1 23-12 22-24 0-13-11-23-23-23-13 1-24 12-24 24 1 12 12 23 25 23zM357 781c-21-4-43-6-64-11s-35-27-36-47c0-9 3-11 11-9 18 3 36 4 54 8 15 2 30 4 44-5 5-3 9-1 12 4 11 12 22 25 33 38 3 3 7 7-1 9-17 5-35 9-53 13z"/></svg>