<svg width="64" height="64" viewBox="0 0 1000 1000" xmlns="http://www.w3.org/2000/svg"><path d="M604 595c45-27 76-66 95-115 26-63 39-128 40-195 1-26-1-51-7-75-18-75-56-132-131-160-40-15-82-17-124-15-132 7-197 95-210 203-8 74 4 145 27 215 19 57 48 108 102 140 25 15 50 30 77 43 19 9 38 10 58 0 25-13 49-27 73-41zm-81-126c-6 32-12 64-18 95 0 3-1 5-2 8h-3c-6-35-13-69-19-103-2-11-6-15-17-17-57-8-107-35-156-65-5-4-6-8-7-14-7-35-10-71-9-107 1-22 1-22 23-24 52-3 104-4 155-4 72 0 143 0 214 4 26 2 26 1 27 28 1 34-2 68-8 102-2 8-5 14-13 18-48 29-98 56-155 63-10 2-11 9-12 16zm443 248c-24-24-53-37-85-46-47-13-96-24-144-37-16-4-33-8-45-19-18-17-24-18-44-4-33 23-68 45-106 61-11 4-15 10-15 22v256c-1 11 2 15 14 15 76 1 151-2 226-13 60-10 120-21 174-53 68-39 79-125 25-182zM841 818c0 10-3 12-13 12h-94c-30 0-60-1-91 0-12 0-15-4-15-15 1-20 1-40 0-60 0-9 4-12 13-12h187c10 0 14 3 14 14-1 20-2 40-1 61zm-368 4V694c0-12-4-18-15-22-38-16-73-38-106-61-20-14-25-13-43 4-13 11-30 15-46 19-48 13-96 24-144 37-32 9-61 22-85 46-54 57-43 143 25 182 54 32 114 43 175 53 74 11 150 14 225 13 12 0 15-4 15-15-1-43-1-85-1-128zm-116 8c-30-1-61 0-91 0h-94c-10 0-13-2-13-12 1-21 0-41-1-61 0-11 4-14 14-14h187c9 0 13 3 13 12-1 20-1 40 0 60 0 11-3 15-15 15zm211-427c9-4 19-8 29-11 8-2 10-7 10-15v-56c0-42 0-42-41-41-11 0-13 4-12 13v99c-1 11 1 17 14 11zM404 280c-13 0-16 4-15 16 1 25 1 51 0 76 0 10 3 15 12 18 8 2 14 7 24 8v-98c0-20 0-19-21-20zm231 92c11-6 26-6 27-20 1-20 0-41 0-61 0-12-10-7-16-8-6-2-11 0-11 8 1 27 0 53 0 81zm-282-89c-7 0-14-2-14 9 1 15 2 31 1 45-2 18 6 27 24 32 0-26 0-52 1-77 0-10-6-10-12-9z"/></svg>