<svg width="64" height="64" viewBox="0 0 1000 1000" xmlns="http://www.w3.org/2000/svg"><path d="M939 613c34-51 69-100 59-167-2-18-8-25-23-33-51-28-105-29-162-28-26 0-50 3-68 24-18 19-32 21-43-6-17-46-50-60-98-55-25 3-40 7-35 35 8 50-34 58-64 72-27 12-57 13-79-15-6-9-14-14-26-14-41 1-82 0-127 0 79 52 91 80 76 173-4 20 1 29 24 29 99-1 197 0 296 0 34-1 40-9 30-42-14-52 3-105 46-137s90-35 137-11c48 24 72 74 67 128-1 16-9 31-10 47zm-354-49c-61-1-122-1-184 0-32 0-20-25-21-41-1-15-8-37 22-35 31 1 63 0 94 0 30 0 60 1 90 0 32-2 24 21 24 38s6 39-25 38zm240-115c-55-2-101 41-103 97-3 57 39 103 96 106 55 3 104-42 106-98 2-55-43-103-99-105zm-2 174c-40 1-73-32-73-72-1-40 32-73 72-73s73 33 73 72c1 40-32 73-72 73zM232 449c-55-1-100 42-103 97-2 58 41 104 97 106 55 2 104-43 105-99 2-55-43-102-99-104zm-1 174c-41 1-73-31-74-71 0-41 31-73 72-74 39-1 73 32 74 72 1 39-32 73-72 73zm-97-159c-44 18-69 44-96 67-19 15-43 68-37 88 1 3 4 7 5 7 30 1 60 7 89-4 10-3 19-13 14-28-15-44-6-85 25-130zm388 31c-24-1-21 16-20 31-2 14-4 29 17 30 18 0 22-11 20-28-2-13 6-31-17-33zm299 38c-11 1-16 9-15 19s7 18 18 16c10-1 16-8 16-19-2-10-9-17-19-16zm-593 0c-10 1-16 8-15 19 1 10 7 18 18 16 10-1 16-8 17-19-3-10-9-17-20-16z"/></svg>