<svg width="64" height="64" viewBox="0 0 1000 1000" xmlns="http://www.w3.org/2000/svg"><path d="M803 603c32 3 63 14 92 28 36 18 66 46 105 78-42-114-127-158-234-185 127-42 191-91 208-155-86 65-192 84-265 48 146-76 209-147 215-247-10 11-18 21-26 30-97 109-216 139-354 99-66-19-133-32-206 6 81 33 138 83 173 157 35 75 36 152 6 237 135-58 252 18 375 18-41-20-80-39-111-71-9-10-27-20-21-34 8-17 28-10 43-9zM244 340C109 340 2 447 0 582c-2 136 107 247 243 248s245-107 245-245c1-137-108-245-244-245zm-2 438c-105-1-190-88-190-193s86-193 190-194c106-1 195 88 195 194s-90 195-195 193zm113-311c-11 1-71 83-70 98 0 12 77 46 104 46 24 0 21-17 22-33 0-45-33-111-56-111zm-65 13c31-46 27-55-28-62-6 0-11-1-19-1-24 3-57-1-71 24-13 23 15 39 28 56 50 64 40 58 90-17zm-92 79c-6-18-67-86-75-81-35 21-40 58-45 95v6c2 13-6 39 22 33 32-6 62-19 92-31 9-3 9-12 6-22zm148 80c-13-4-27-7-40-13-33-15-44-2-41 30 1 9 0 17 0 28 6 18-12 49 13 59s47-12 68-26c5-3 9-7 13-10 39-36 36-52-13-68zm-121 49c-1-75-1-75-67-52-6 2-11 4-16 6-46 16-49 29-15 62 7 7 14 14 23 19 20 12 43 32 65 20 21-11 6-39 10-55zm22-127c-16-2-27 7-27 24-1 14 8 23 23 24s24-7 25-22c1-14-5-25-21-26z"/></svg>