<svg width="64" height="64" viewBox="0 0 1000 1000" xmlns="http://www.w3.org/2000/svg"><path d="M739 915c-50-6-96-21-132-56-39-38-63-85-74-139-6-29 2-52 28-72 85-63 118-174 74-271-41-91-124-132-228-104-12 4-24 8-37 11-17-77-27-156-76-222-3 3-6 4-8 6l-5 5c30 51 44 106 56 165-18-42-36-81-54-120-7-16-11-16-26-4 18 41 36 83 54 124l-5 3c-31-54-63-107-94-161-6 6-16 9-9 22 19 35 38 70 56 105 10 19 20 38 31 59-5-5-9-8-12-13-22-33-45-66-66-101-7-11-13-11-24-4 30 63 67 120 116 167-22 19-44 35-62 54-75 77-82 182-14 259 51 59 119 82 200 74 44-4 61 6 77 46 10 23 19 48 32 70 37 64 93 106 172 113 32 3 64 4 95 6 48 3-42-19-65-22z"/></svg>