<svg width="64" height="64" viewBox="0 0 1000 1000" xmlns="http://www.w3.org/2000/svg"><path d="M836 469c-47-46-104-59-167-36-12 4-16 5-22-9-41-102-136-158-245-146-99 12-177 90-196 197-1 6 0 14-8 17-17 8-31 18-42 31h-1s-83 78-1 169c2 3 4 6 7 8 0 0 0 1 1 1 19 19 45 30 76 33 32 3 64 0 96 1h275c42 0 80 1 118 0 66-3 114-35 141-96 26-58 14-126-32-170zM576 151c-27 22-43 51-45 86-1 13 0 26 3 38 44 19 80 50 106 93 5 0 9 1 14 1 73-1 119-63 120-113-18 21-39 34-66 36-26 3-50-5-70-23-17-14-28-33-31-55-5-34 5-63 29-88-23 2-42 11-60 25zm-40-48l3 3 3 14c1 3 5 5 7 2l9-11c1-1 2-2 4-2l13 2c4 0 6-4 4-7l-7-11c-1-2-1-3 0-4l5-13c2-3-1-7-5-6l-13 4c-2 0-3 0-4-1l-11-10c-2-2-6 0-7 3l-1 14c0 2 0 3-2 3l-12 8c-3 1-2 6 1 7l13 5zm231 134l12 5c2 0 3 2 3 3l3 14c1 3 5 4 7 1l9-11c1-1 2-1 4-1l14 1c3 1 6-3 4-6l-8-12c0-1-1-3 0-4l5-13c2-3-1-6-4-5l-14 3c-1 0-3 0-4-1l-10-9c-3-2-7-1-7 3l-1 14c0 1-1 2-2 3l-12 7c-3 2-3 6 1 8zm-99-54l-1 9c0 1 0 2-1 3l-8 4c-2 1-2 4 0 5l9 4c1 0 2 1 2 2l2 9c0 2 3 3 5 1l5-7c1-1 2-1 3-1l9 1c2 0 4-3 3-5l-5-7c-1-1-1-2 0-3l3-8c1-3-1-5-3-4l-9 2c-1 0-2 0-2-1l-7-6c-2-1-5 0-5 2zm88-5l1 1 1 7c1 1 3 2 3 0l4-4c1-1 1-1 2-1h6c2 1 3-1 2-2l-3-6v-1l2-6c1-2-1-3-2-3l-6 2c-1 0-1 0-2-1l-5-4c-1-1-3 0-3 2v6s0 1-1 1l-5 4c-2 0-2 2 0 3l6 2zM646 90c1 0 1 1 1 2l2 7c0 2 3 3 4 1l5-6c1 0 1-1 2-1l8 1c2 0 3-2 2-4l-4-6v-2l3-8c1-1-1-3-3-3l-7 2h-3l-5-6c-2-1-4 0-4 2l-1 8c0 1 0 1-1 2l-7 4c-1 1-1 3 1 4l7 3zm-129 84c1 0 1 0 1 1l1 5c1 1 2 2 3 1l4-4c0-1 0-1 1-1l5 1c2 0 2-2 2-3l-3-4v-2l2-5c0-1-1-2-2-2l-5 1h-2l-4-4c-1 0-2 0-2 2l-1 5v1l-5 3c-1 1-1 2 0 3l5 2zM256 804c-10-5-18 0-25 7-29 28-57 57-85 85-11 11-18 22-5 35 13 12 25 6 36-5l82-82c5-5 10-11 10-18 1-11-4-18-13-22zm262 4c-8-4-15-1-21 5-22 23-45 45-67 68-9 8-14 18-4 28 10 9 20 5 28-4l66-66c4-4 8-8 8-14 1-9-3-14-10-17zm123 2c-30 30-60 60-89 90-7 6-7 15-3 23 4 7 10 12 22 12 3 0 8-2 12-6 29-30 59-59 88-89 8-8 9-19-1-29-9-9-20-9-29-1zm111 45c-1 0-4 1-5 2-21 13-38 30-52 51-5 7 0 16 6 22 7 6 16 8 23 3 18-13 35-29 47-47 9-13-3-31-19-31zm-408-1c-16 13-32 27-44 44-9 14 2 32 19 32 1 0 4-1 5-2 21-12 37-29 50-49 5-8 2-17-5-24-8-6-17-8-25-1z"/></svg>