<svg width="64" height="64" viewBox="0 0 1000 1000" xmlns="http://www.w3.org/2000/svg"><path d="M849 452c-49-47-108-61-173-37-13 4-17 5-23-9-43-106-142-165-254-152-103 12-184 94-203 204-1 6 0 15-8 18-18 8-33 19-44 32s-87 81-2 175c2 3 4 6 7 8l1 1c21 20 47 32 79 35 33 3 66 0 99 1l285-1c44 0 83 1 122 0 69-2 119-36 147-99 27-60 14-130-33-176zM248 799c-11-5-19 0-27 7-29 30-58 59-88 88-11 11-18 24-5 37 13 12 26 6 37-5 28-29 57-57 85-85 6-6 11-11 11-19 1-11-4-19-13-23zm271 4c-9-4-15 0-21 6-24 23-47 46-71 70-9 9-14 18-3 29 10 10 20 5 29-4 22-23 45-45 68-68 4-4 8-9 8-15 1-9-3-15-10-18zm128 3c-32 30-63 61-93 93-7 6-7 15-3 23s11 13 23 13c3 0 8-3 12-7 31-30 62-60 91-91 9-9 10-21 0-30-10-10-21-10-30-1zm115 46c-2 0-4 1-6 2-22 13-39 31-53 52-6 8-1 17 6 23s16 9 23 4c19-14 36-30 49-49 9-13-3-32-19-32zm-423-1c-17 13-33 28-46 46-9 14 3 33 20 33 1-1 4-1 5-2 21-13 38-31 52-51 5-8 2-18-6-25-8-6-17-8-25-1zm99-631c-3 4-5 9-6 14 81-2 154 34 200 98 2-3 4-7 6-11 28-56 6-123-49-151-56-28-123-6-151 50zm229 40c-2 6 2 14 8 17 2 1 5 2 7 1 17 0 34-1 51-2 8-1 14-9 14-17-1-8-7-16-16-15-17 0-34 2-51 3-7 0-12 6-13 13zm-69-101c8 4 17 1 21-8 4-7 8-14 11-21l10-20 1-1c4-8 1-18-7-22s-18-1-22 8l-21 42c-4 8-1 18 7 22zm-239 40c7 3 14 7 21 10l21 11c8 4 17 1 22-6 4-8 1-18-7-22-14-8-29-15-44-22-8-4-18 0-21 7-4 8 0 17 8 22zm315 122c-8-4-18 0-21 7-4 8-1 18 8 22 7 3 14 7 21 10l21 11c8 4 17 1 21-6 5-8 2-18-6-22-14-8-29-15-44-22zm-22-112c5 3 10 3 15 0 14-9 28-18 42-28 7-4 8-14 4-21-5-7-14-10-21-5-15 9-29 18-43 28-10 6-8 21 3 26zm-130-68c11 5 24-3 23-15 0-16-1-32-3-49 0-9-8-15-17-15-8 1-15 8-15 17l3 48c1 6 4 11 9 14zm-78 18c2 2 4 4 6 5 7 4 15 2 20-3s6-13 2-19c-9-14-18-27-27-41-5-7-15-9-22-4-8 5-10 14-5 22 9 14 18 27 26 40z"/></svg>