<svg width="64" height="64" viewBox="0 0 1000 1000" xmlns="http://www.w3.org/2000/svg"><path d="M886 335c-55-53-120-68-192-42-13 5-19 6-25-10-47-117-156-181-281-167-114 13-203 103-224 225-1 7 0 16-9 20-20 9-36 21-49 35s-96 90-3 194c3 3 6 7 8 9l2 2v-1c22 22 51 35 87 39 36 3 73 0 110 1 14 0 16-8 19-18 17-63 35-126 52-189 3-13 8-19 23-19 49 1 98 1 147 0 16 0 19 5 14 19-10 35-19 70-30 109h159c-24 33-45 63-69 97 48 0 92 1 135 0 77-3 132-40 163-110 29-66 14-143-37-194zM511 575c-15 0-21-2-16-20 10-30 17-61 26-92 4-11 1-15-11-15-28 1-56 1-84 0-9 0-15 3-17 12-17 61-34 123-51 184-3 10-1 14 10 14 22 0 44 1 66 0 16-1 23 0 18 21-18 67-32 136-48 204l3 3c73-103 146-206 222-312-43 0-81 0-118 1zM221 719c-12-6-21-1-29 7l-98 98c-12 12-20 25-5 40 14 14 28 7 40-6 32-31 63-62 94-94 7-6 13-12 12-21 1-12-4-20-14-24zm441 7c-35 34-69 68-103 102-7 8-8 17-3 27 5 8 12 14 26 14 3 0 9-3 13-8 34-33 68-67 101-101 10-10 10-23-1-33-10-11-23-11-33-1zm127 51c-2 0-4 0-6 2-24 15-44 35-59 58-6 9 0 18 7 25 8 7 18 10 26 4 21-15 40-33 54-54 10-15-4-35-22-35zm-467-2c-19 15-37 32-51 51-10 16 3 37 22 37 1-1 4-1 6-2 23-15 42-34 57-57 6-9 2-20-6-27-9-7-19-9-28-2z"/></svg>