<svg width="64" height="64" viewBox="0 0 1000 1000" xmlns="http://www.w3.org/2000/svg"><path d="M926 543c-5-6-10-12-16-16-67-45-138-53-213-23-12 6-24 13-34 23-15 16-13 35 5 48 2 1 4 3 7 4 33 16 69 20 105 13 21-5 39-13 54-28 10-11 7-25-6-30-24-8-47-6-69 5-6 3-10 6-12 14 19-18 40-17 62-15 6 0 11 2 16 5 6 3 7 7 2 12-5 6-12 11-19 14-30 15-62 15-95 7-13-3-26-6-36-15-10-7-10-14-1-22 9-10 21-15 34-20 60-22 118-14 173 17 11 6 19 13 26 23 7 12 7 21-2 31-7 7-15 12-24 16-22 10-45 15-68 20-59 11-114 2-164-31-15-9-28-20-40-34 9-1 17 0 24-5-14-9-23-20-25-36-1-4-3-8 1-10 3-2 5 2 8 3 2 1 3 2 5 2-5-20-12-40-21-58-9-19-21-36-36-53 5 0 8 0 14-1-29-25-62-36-98-46 5-2 8-4 11-5-2-3-4-3-6-3-36-9-72-8-107 4-3 1-6 3-9 2-4-2 1-6-1-9-28 6-52 21-74 39-2-4 1-6-1-9-12 6-20 14-29 23-13 11-24 24-37 34-6 4-13 9-21 11v-9c-1-6-2-13-8-15s-9 4-13 7c-9 9-14 19-20 30-2 5-5 4-7 0-1-4-2-7-4-11-1-2-1-5-4-6-2 0-3 3-4 5-4 7-7 14-7 22-1 12-9 17-18 21 0-3 0-6-1-11-3 5-4 9-6 13s-4 4-7 1-5-6-8-9c-1 3-1 5 0 7 1 4 5 8 4 10-2 3-7 0-10 2-1 0-1 0-1 1 9 5 9 5 3 13-10 13-21 26-32 38-3 3-6 7-1 10 7 5 14 8 23 13 0-3-1-4-1-5 0-3-2-6 1-8 1-2 4-1 5 0 3 2 5 5 2 9-2 3 1 3 3 4 3 2 6 1 10 0 23-8 46-6 70-4 3 0 6 0 8 2-5-1-8 1-8 7 0 9-5 14-13 17-12 4-23 7-34 10-3 1-7 1-10 5h14c-4 3-8 3-11 7 5-1 10-1 15-2 4-1 9 2 12 2 8 1 17-2 25-5 5-2 4-10 7-14 3-5 5-11 8-16 2-2 3-4 2-6 12 9 20 22 23 36 2 7 0 11-6 14s-12 7-17 10c-1 0-1 1-1 2 2 0 4-2 6 0-4 4-10 6-13 14 7-4 11-9 18-9 0 4-4 6-2 10 4-3 7-8 13-7-1 2-2 3-2 5 14-5 20-14 19-27-1-9 1-11 10-11 7 1 14 2 21-1-7-4-13-8-19-12 22-19 30-41 18-70 2 1 3 2 3 2 1 2 2 4 3 5 8 21 5 40-9 58-1 2-5 3-2 6 9 8 19 13 31 16-1-5-6-7-5-12 8 3 16 7 25 8-1-2-1-3-1-4-3-7-1-8 5-6 6 1 12 1 19 0-5-3-5-5-1-6 12-2 23-8 33-15 7-3 14-9 22-1 3 2 9 3 8 6-1 5-6 4-10 4-10 2-20 3-30 6-4 2-9 3-9 9 5-1 8-5 14-4-2 5-8 6-11 11 7 1 12-3 18-5 1 2-3 5 0 7 3-3 7-5 11-8 2 3 0 6 3 8 6-7 12-14 21-17 6-2 18 2 20 7s-2 10-11 13c-4 1-8 2-12 2-7 2-15 2-21 5-4 2-7 4-8 9 5 0 8-5 13-4-4 6-10 7-14 12 7 0 13-4 18-6 3 2-1 5 1 7 4-2 7-5 11-8 3 2 0 6 3 7 5-9 14-14 23-16 11-2 17-7 21-17 5-12 15-19 28-23 8-2 17-3 26-4 11 0 23-1 35-4 5-2 9-1 14 2 52 33 108 58 170 70 45 8 91 3 135-9 25-7 49-15 68-32 22-19 25-46 7-69zm-796-10c-6-6-11-3-18 2 3-8 6-11 12-11 4 0 6 3 6 9zm54-50c-8-3-10-8-8-15 2-10 5-20 11-28-5 14-7 28-3 43zm230-13c-3 9-9 16-14 24-7 10-14 20-19 30-10 22-7 37 12 52 1 1 3 2 4 3-23-4-36-28-27-49 5-11 12-20 19-29 5-6 9-13 13-19 9-15 10-21 3-37 10 7 12 14 9 25z"/></svg>