<svg width="64" height="64" viewBox="0 0 1000 1000" xmlns="http://www.w3.org/2000/svg"><path d="M874 178v215c0 4 1 8-6 6-26-7-48 1-66 22-2-5-1-9-1-13 0-46-1-93 0-140 0-8-2-11-11-10-83 9-165 22-241 61-10 6-14 12-14 25 1 107 0 214 0 321v13c2 2 4 1 6 0 78-29 158-43 240-51 7 0 9 1 9 8-1 20 1 39 8 58 3 9-3 8-7 8-38 3-74 8-111 15-46 9-91 20-133 40-33 15-64 14-96 0-62-28-128-41-195-50-16-2-33-3-49-5-7 0-7-3-5-8 6-18 9-36 8-55-1-8 1-11 11-10 82 8 162 22 240 51 2-3 1-7 1-10 0-110 0-220 1-330 0-8-3-13-10-17-52-29-109-44-167-54-26-4-52-7-78-10-10-1-11 3-11 11v150c-22-22-45-27-73-18 0-3-1-5-1-7V186c0-3 1-5 1-8h17c2 3 5 2 8 2 50 2 100 7 150 16 67 11 133 29 193 64 6 3 9 2 14-1 23-13 46-24 71-32 71-26 145-37 221-44 19-2 39 0 58-5h18zM111 442c-6 48-14 94-25 140-1 7-3 14 6 16 8 2 9-5 11-11 9-35 13-71 19-107 1-8 1-16 3-24 3-16 13-25 26-24 14 1 23 12 24 27v31c0 48-1 96 0 145 0 27-6 53-21 76-20 31-34 65-40 102-2 8-5 9-13 6-31-11-62-22-93-32-7-2-10-4-6-13 23-46 23-95 16-144-2-18-4-36-4-54-1-24 7-44 22-62 22-25 47-47 70-69 1-1 3-2 5-3zm777-1c11 7 18 16 26 24 12 10 22 22 34 32 36 30 43 69 36 113-6 43-11 87 1 130 4 12 8 24 13 35 3 6 3 9-3 11-33 11-66 23-99 34-5 2-8 1-9-5-7-42-26-80-48-117-10-16-14-34-14-52V461c0-11 4-21 14-26 9-5 18-4 26 2s10 15 11 24c5 40 11 80 19 119 1 3 2 5 2 8 2 5 4 12 11 10 8-1 8-8 6-14-4-21-9-41-13-62-4-26-8-53-13-81zm-474-45c0 26 0 26-25 19-38-12-76-22-116-29-7-2-9-5-9-11 1-10 1-21 0-31 0-9 3-11 11-9 39 8 77 16 114 28 25 7 25 7 25 33zm0 87c0 27 0 27-25 19-38-12-77-21-116-29-6-1-9-2-9-9 1-11 1-23 0-35 0-8 4-8 9-7 46 9 90 20 134 34 5 1 7 4 7 9v18zm169-88c0-25 0-25 25-32 38-12 76-20 115-28 7-2 11-1 10 8-1 13 4 28-2 38-5 10-23 7-35 10-34 8-68 17-101 28-10 4-13 2-12-8 1-5 0-10 0-16zm0 88c0-25 0-25 25-32 37-12 76-21 115-29 8-1 11 1 10 9 0 8-1 17 0 25 2 12-3 17-15 19-42 7-83 18-123 32-11 4-13 0-12-9 1-5 0-10 0-15zm-169 90c0 26 0 26-25 18-37-11-75-21-114-28-7-2-11-4-11-13 1-11 1-22 0-33 0-5 2-7 8-6 45 8 90 20 135 33 5 2 8 5 7 11v18z"/></svg>