<svg width="64" height="64" viewBox="0 0 1000 1000" xmlns="http://www.w3.org/2000/svg"><path d="M849 927V461c0-2 0-5-1-8h-13c-15 3-31 2-46 4-81 6-161 18-236 49-17 6-32 14-47 23-4 2-6 3-10 1-54-32-113-49-173-60-49-8-97-13-146-15-4 0-8 1-11-2h-13c-1 4-1 7-1 11v457c0 14-2 12 13 13 87 3 172 13 254 41 15 4 29 10 43 17 10 4 20 5 29 8h19c50-15 99-38 151-47 47-8 94-14 141-17 13-1 27-2 40-2 5-1 7-2 7-7zM467 774v136c0 10 0 10-9 6-54-20-110-32-167-39-22-3-43-6-65-7-7-1-7-4-7-10V534c0-5-1-10 8-9 72 7 143 19 209 49l23 12c7 3 8 7 8 14v174zm305 96c-79 6-156 19-230 47-7 3-8 1-8-6V598c0-7 3-9 8-12 39-23 82-36 126-45 34-8 69-12 104-16 8-1 10 2 10 9v325c0 8-2 10-10 11zM339 336c11 8 18 16 24 28 29 51 69 86 130 89 71 3 117-35 149-95 3-8 7-14 15-19 26-14 40-38 46-66 4-19 5-41-13-55-13-9-16-21-17-35-9-71-43-122-115-145-30-10-59-22-88-35-14-6-18-3-17 11 1 16-6 15-16 8-3-2-5-4-13-9 7 24-7 28-21 33-34 14-57 38-69 74-7 21-11 44-11 67 1 13 0 24-13 32-9 4-12 14-13 24-4 39 10 71 42 93zm-16-86c2-10 9-16 20-17 10-1 17 2 20 12 2 7 5 16 15 14s9-11 10-19c4-17 3-35 3-53 1-25 13-43 37-52 48-18 96-18 144 1 20 9 33 22 33 46 1 21 4 42 6 63 0 6 1 13 9 14s12-4 14-10c4-16 15-19 28-15 13 3 16 15 14 27-4 25-13 48-40 56-10 4-12 11-15 19-20 46-52 80-104 89-5 1-10 1-15 2-61-4-97-39-122-90-5-11-9-17-21-21-21-6-40-44-36-66z"/></svg>