<svg width="64" height="64" viewBox="0 0 1000 1000" xmlns="http://www.w3.org/2000/svg"><path d="M75 359l39 31c4 3 6 10 3 15l-47 90c-26 45 19 90 47 105 26 14 64 17 101 17 6 0 12-4 15-9l63-102c2-4 8-6 13-3l38 20c5 3 6 1 4-4l-86-159c-3-5-9-8-14-8l-174 1c-6 0-7 3-2 6zm5 245l108 200c3 5 7 12 11 16 25 24 66 30 108 29h114c6 0 10-5 10-10V652c0-5-4-9-10-9l-225-2c-34 2-79-4-114-39-4-4-5-3-2 2zm726-406l-46 20c-5 2-11 0-14-4l-56-85c-28-45-88-28-115-10-25 15-46 48-64 80-2 5-2 13 0 17l59 104c3 5 1 11-3 14l-36 23c-5 3-4 5 1 5l181 2c5 1 12-3 14-8l83-153c3-5 1-7-4-5zM590 84l-228-2c-5 0-14 1-19 2-33 10-58 43-77 81l-56 100c-3 4-1 10 4 13l163 90c5 3 11 1 13-4l111-196c15-31 42-67 89-81 5-2 5-3 0-3zm21 829l6-50c0-5 5-9 10-10l102-8c52-2 66-63 64-95-1-29-20-63-39-95-3-5-10-8-15-8l-120 1c-5 0-10-4-10-10l-3-42c0-6-3-6-5-2l-90 158c-2 4-2 12 1 16l93 147c3 4 6 4 6-2zm205-133l112-199c3-4 7-12 8-17 7-34-10-72-33-107l-60-97c-3-5-9-6-14-3l-158 99c-4 2-6 8-3 13l118 192c20 28 38 69 28 117-2 6-1 6 2 2z"/></svg>