<svg width="64" height="64" viewBox="0 0 1000 1000" xmlns="http://www.w3.org/2000/svg"><path d="M639 469c2 4 2 10 10 9 54-1 107-1 161-2 5 0 7-2 7-7-1-24 1-48-5-71-15-55-31-110-45-165-3-13-8-16-20-15-64 3-127 5-191 8-67 3-133 5-200 8-4 0-8 1-11 2-6 1-10 5-11 11-1 7 2 12 7 16 4 2 9 4 14 5 68 15 136 30 204 44 19 4 30 14 37 32 13 42 28 83 43 125zm183 441l-3-379c0-7-1-10-9-10-52-1-103-3-155-4-7-1-10 2-11 9-3 25-7 50-10 75-11 75-22 150-32 225-4 28-8 57-12 85-1 3-3 7 1 8s7 0 9-4l4-6c16-30 33-60 50-89 24-42 48-84 73-128 2 7 4 11 6 16 25 67 50 134 75 202 1 4 2 10 9 9 7 0 5-6 5-9zM710 185c33-1 61-28 61-61 0-34-27-62-61-62s-61 27-61 61 27 62 61 62zM258 523c22 33 13 30 50 14 31-13 53-36 74-62 12-16 23-33 42-42 4-2 3-6 3-9-4-22-11-44-26-62-14-17-22-18-41-6-21 14-34 34-49 53-16 22-36 38-62 46-8 2-11 6-10 13 1 21 7 39 19 55zm6-54c29-11 49-31 67-55 11-16 23-31 39-43 7-5 12-5 17 3 4 6 9 12 12 19 10 22 9 23-7 41-13 15-26 32-40 47-16 19-36 35-60 44-3 1-7 4-10 0-12-14-21-30-25-51 0-2 3-4 7-5zm211 109c-47 1-94 0-141 0-48 0-96 1-144 0-9 0-14 1-11 12s4 23 6 35c17 100 34 201 50 301 1 10 5 12 13 11 56 0 111 0 166 1 12 0 16-4 18-15l54-333c2-12-2-12-11-12zM235 804h-4c-2-9-4-19-5-29-1 0-1-1-1-2h10v31zm0-57h-14c-2-9-3-18-5-27v-4h19v31zm0-57h-24c-1-1-1-3-1-5 0-3 0-6-1-9-1-8-2-13-1-16h27v30zm0-60c0 2 0 3-1 4h-32c-1-12-6-23-4-35h37v31zm44 283h-25v-26h25v26zm0-53v1h-25v-31h25v30zm0-56h-25v-31h25v31zm0-57h-25v-31h25v31zm0-57h-25v-30h25v30zm0-56h-25v-35h25v35zm44 279h-25v-26h25v26zm0-52h-25v-31h25v31zm0-57h-25v-31h25v31zm0-57h-25v-31h25v31zm0-57h-25v-30h25v30zm0-56h-25v-33s0-1 1-2h24v35zm45 279h-26v-26h25l1 1v25zm0-55c-1 1-1 2-1 3h-25v-31h25l1 1v27zm0-54h-26v-31h26v31zm0-57h-26v-31h26v31zm0-58l-1 1h-25v-30h25c1 1 1 1 1 2v27zm0-55h-26v-35h26v35zm44 279h-26v-21c1-2 2-3 3-5h23v26zm0-52h-26v-31h26v31zm0-57h-26v-27c1-2 1-3 1-4h25v31zm0-57h-26v-31h26v31zm0-57h-26v-30h26v30zm0-56h-26v-35h26v35zm28 142c-2 10-4 19-5 28h-5v-31h10v3zm8-52c-1 7-2 13-3 20v3h-15v-31h20c0 3-1 6-2 8zm10-62l-3 24c-1 2-1 3-2 4h-23v-25c1-1 1-3 2-5h26v2zm9-49c-1 3-1 7-2 10-1 5-1 9-2 12h-33v-33c0-1 1-2 1-3h37c1 3 0 7-1 14z"/></svg>