<svg width="64" height="64" viewBox="0 0 1000 1000" xmlns="http://www.w3.org/2000/svg"><path d="M688 533c2 5 3 11 3 17 0 12-4 24-11 33-6 10-16 17-27 20h-1c-5 2-11 3-16 3-13 0-25-5-35-12-10-8-18-19-20-33-1-3-1-7-1-10 0-12 4-23 10-32 7-9 16-16 26-20h1c6-2 12-3 18-3 12 0 23 4 32 10 10 6 17 15 21 27zm-35 141c-4-3-10-5-15-5-4 0-9 1-13 4-39 23-84 36-129 36-34 0-68-7-98-22l-1-1c-4-2-10-6-15-9-3-2-6-4-10-5-3-2-7-3-11-3-3 0-6 1-10 2v1c-6 2-10 5-13 10-2 4-4 10-4 15s1 9 4 14c2 4 5 7 10 10 43 29 95 42 146 42 47 0 93-10 135-30 6-3 13-6 20-11 3-2 7-4 10-7 2-4 5-8 6-12 1-3 1-5 1-7 0-3-1-7-3-10-2-5-5-9-10-12zm-306-71c6 2 12 3 17 3 15 0 28-6 39-15 10-10 17-23 17-38v-2-2c0-15-7-29-17-38-10-10-24-16-38-16-4 0-8 1-12 2-19 4-35 18-41 37-2 5-3 11-3 16 0 12 4 23 11 33 6 9 16 16 27 20zm590-137c0 2 1 3 1 5 0 22-7 42-19 59-10 17-25 30-42 39 1 9 2 17 2 26 0 46-16 91-43 127-51 67-129 107-208 127-42 11-85 16-129 16-64 0-129-12-189-36-62-26-122-67-158-127-20-32-31-69-31-107 0-8 1-17 2-25-16-10-31-23-41-38-11-17-19-37-19-58 0-29 12-57 32-77s47-34 75-34h11c14 0 29 2 42 7l1 1c11 5 23 10 34 19 3-2 7-4 11-6 63-37 136-51 208-56 1-35 5-72 22-105 15-27 40-48 69-55h1c11-2 23-3 34-3 30 0 60 7 88 18 12-19 30-33 51-41v-1c12-3 25-6 38-6 14 0 27 3 40 9 19 7 34 20 46 36 11 17 17 36 17 56v12c-3 26-16 49-34 65-19 16-44 26-69 26h-12c-24-2-48-14-65-32s-28-42-28-67c0-2 1-3 1-4-24-11-48-19-73-19-3 0-7 0-11 1-18 1-35 13-43 30-13 24-15 53-16 81 71 5 142 22 204 57l1 1c1 1 3 2 5 3 4-4 9-7 14-10 19-13 41-19 63-19 10 0 20 1 30 4h1c22 6 43 19 58 36 16 18 26 40 28 65zM730 235v3c0 12 6 24 15 32 9 9 20 14 32 14h3c12 0 24-5 33-14 9-8 15-19 15-32 1-1 1-2 1-3 0-13-6-25-16-34-9-9-21-14-34-14-4 0-8 0-11 2h-1c-10 2-19 8-26 17-7 8-11 18-11 29zM210 424c-10-5-20-8-29-8-2 0-3 0-5 1-14 0-28 6-39 16-10 9-17 22-18 37v3c0 9 3 18 8 26 3 5 8 11 13 15 16-35 41-65 70-90zm614 173c0-32-12-63-30-89-37-51-94-84-153-103h-1c-11-3-23-7-34-9-35-8-70-12-106-12-47 0-95 7-141 21-59 19-116 52-153 103-18 26-29 58-29 89 0 12 1 24 4 35 7 25 20 48 37 68s38 37 59 50l15 9c63 35 136 51 208 51 13 0 25-1 37-2 73-6 146-27 205-71 19-14 36-31 50-50s24-40 29-64c2-8 3-17 3-26zm57-126c0-7-2-15-6-22-5-11-13-19-23-24s-21-8-32-8c-10 0-21 2-30 6 29 26 55 56 71 91 5-4 10-10 13-16 5-8 7-18 7-27z"/></svg>