<svg width="64" height="64" viewBox="0 0 1000 1000" xmlns="http://www.w3.org/2000/svg"><path d="M850 879c-4-66-9-131-15-196-2-32-9-64-39-85-37-26-79-33-121-41-9-2-9 5-9 11v42c-1 24-9 28-29 16-4-3-9-6-13-9-17-13-28-9-33 11-1 6 0 13 0 19 0 102-1 204 0 306 0 32-22 18-36 22-19 4-16-10-16-22V670c-41 12-41 12-80-2v288c0 12 0 23-16 19-13-4-36 9-35-20v-63c0-84-1-169 0-253 0-12-1-25-12-30-10-6-17 7-25 12-4 2-7 5-10 7-16 10-27 4-28-14-1-14-1-28 0-42 1-12 0-18-15-14-18 5-37 6-55 12-51 15-92 41-99 101-8 69-11 138-14 207-1 41 10 56 46 72 50 22 103 32 156 39 96 15 193 15 290 1 56-8 111-19 163-41 35-15 47-32 45-70zm-654 42c-15-4-23-13-22-27 0-77 6-152 15-228 0-4 1-10 7-12v267zm132-149v171c0 15-2 18-19 16-28-3-33-14-33-40 1-103 0-205 0-308 0-17 32-36 47-28 8 4 5 12 5 19v170zm395 159c0 16-35 37-48 29-6-4-4-12-4-18V770c1-56 2-113 1-169 0-16 4-20 21-18 23 3 31 12 31 37-2 104-1 207-1 311zm80-8c0-47 1-91 0-136-2-44 0-89 3-134 14 55 18 112 19 168 0 22 0 44 1 66 1 15-3 27-23 36zM618 518c-12-6-17-9-19 7-7 54-39 90-85 116-10 6-18 5-28-1-44-27-80-62-87-117-2-14-6-12-16-6-42 24-41 62-37 104 15-4 24-14 34-22 12-8 18-10 28 4 18 25 43 44 70 60 15 8 28 9 43 0 29-16 54-34 73-61 9-13 15-10 25-3 11 8 20 18 35 21 4-41 6-79-36-102zM320 335c1 14 8 26 13 39 4 8 10 14 19 16 3 1 3 4 4 6 3 17 8 33 16 48 13 22 31 39 51 53 13 9 25 18 40 24 29 12 58 11 86-4 25-14 49-30 68-53 14-18 26-38 27-62l1-6c0-3 2-5 5-7 11-4 16-12 20-22 3-11 9-22 11-33v-15c-1-4-2-9-4-14-2-7-7-13-14-17-3-1-3-3-3-6 0-13 2-26 4-39 4-35-2-68-16-101-4-8-9-15-10-24 0-3-2-4-4-4-7-1-10-5-12-11-1-1-2-3 0-4 4-4 1-4-2-5-5-1-10-1-15 0-3 0-4-1-4-3-1-5-3-10-5-15-1-2-2-3-5-2-9 2-19 1-28-3-4-2-8-6-9-11-4-9-9-17-21-18-3 0-2-2-2-4V20c-6 3-9 6-14 8-7 2-9 1-9-6 0-8 2-15 6-22h-4c-9 3-16 6-21 14-1 2-2 5-4 8-4-8 1-13 4-20-13 4-23 12-32 22-5 6-9 13-14 20-3 4-4 4-6-1-1-1-1-2-2-3 0-2 1-3-1-4-4 2-6 5-8 9-3 7-6 14-10 21-4 9-7 9-14 4-1 0-2-1-3-2-5-5-5-5-11 1-9 11-16 23-23 36-3 7-9 14-15 20-5 4-9 9-14 14 2 2 5 1 7 1 5 1 6 3 4 8-4 9-9 18-14 27l-2 5c2 1 3-1 5-1s3-2 5 0c1 1-1 3-1 4-4 12-9 24-13 36 1 1 2 0 3 0 6-2 6-2 6 4-1 21-2 41 0 62 0 2 0 3-2 4-15 12-17 28-14 46zm18-30c3 8 4 15 5 23 1 4 9 9 14 7 2-1 1-2 1-3-1-6-1-12-1-18-3-28 2-55 8-82 5-19 8-38 14-57 2-5 5-11 7-17 6-13 17-19 32-20 13 0 27 1 40 5 18 5 35 3 52-2 14-4 28-6 42-6 16 0 28 7 37 19 11 14 16 30 22 45 5 13 9 25 16 37 1 2 2 3 3 5 10 9 10 22 11 35 1 16 1 32 0 48 0 3-1 6 4 6 4 0 8 1 8-5l3-24c5 2 7 6 8 10 4 11 4 22-1 32-2 7-5 14-8 21-1 4-4 8-8 11-2 1-4 3-6 2-7-2-7 2-8 7-1 8-2 16-4 24-2 16-10 29-19 41-21 27-48 48-79 60-25 11-51 9-75-7-16-11-32-21-46-34-23-21-36-47-41-77 0-2-1-4-1-6-1-5-2-10-9-8-6 1-10-4-12-9-5-12-11-23-14-36-1-9 0-18 5-27zm170 116c-6 2-12 2-18 0-4-1-8-2-12-2-11 1-21 4-32 4 8 6 16 9 26 8 5 0 9 0 13 1 10 4 19 4 28 1 5-2 10-2 15 0 8 1 15 1 23-1 1 0 2-1 3-2 0-1-1-1-2-1-9 2-15-3-23-7-7-3-14-4-21-1zm26-114c3 2 4-1 5-3 3-5 8-8 15-10-4 10-3 15 3 19 5 4 10 4 15 0 6-4 6-10 3-19 7 3 12 6 15 13 1 2 2 4 4 3 3-1 2-4 1-6-1-4-3-7-6-9-12-9-31-11-45-4-4 3-8 6-10 10-1 2-3 5 0 6zm-76-14c-10-6-20-7-31-5-10 2-19 6-23 17-1 2-1 4 1 5 3 1 4-1 4-2 3-8 9-11 17-14-4 9-3 14 2 19 4 3 10 4 14 2 8-5 9-12 6-20 6 2 11 5 14 10 0 2 2 4 4 2 2-1 2-3 1-5-2-4-5-7-9-9zm-55-21c5-2 10-3 15-4 11-1 22 2 32 6 7 3 13 2 15-2 1-4-1-7-9-10-12-5-23-7-36-6-9 1-18 5-26 12-4 4-6 8-4 16 3-7 8-10 13-12zm136 4c3 0 5 0 7-1 3-1 6-3 10-4 19-7 41-2 52 12 2-7 0-11-5-15-8-8-18-12-30-12s-25 2-36 8c-3 2-5 4-4 7s4 4 6 5zm-62 102c9 6 18 7 28 3 9-5 14-12 15-23 0-2-1-5-2-7 0-3-2-6-5-5-4 1-3 4-2 7 2 7 0 12-5 17-7 7-17 7-25 0-2-2-4-3-6-1-2 3-1 5 0 6s2 2 2 3zm-4 71c11 15 37 16 48 2-16 2-32 3-48-2z"/></svg>