<svg width="64" height="64" viewBox="0 0 1000 1000" xmlns="http://www.w3.org/2000/svg"><path d="M493 561c17 16 34 32 48 45 18-17 36-33 54-50 2-2 2-6 2-9 2-13 3-26 6-38 12-38 51-64 91-61 3 0 7-2 9-5 63-65 127-130 190-195 15-16 30-31 45-47l-2-2c-32-33-63-66-95-99-12-12-23-25-35-37h-3c-1 0-2 1-3 2-76 79-153 159-230 238-3 3-5 9-5 13 3 48-34 93-82 97-17 1-29 6-38 19-2 3-4 4-6 7l-31 31c16 17 32 33 48 50-78 81-157 162-235 243l-9-8c-26 20-51 41-67 71-16 31-36 61-55 91 7 7 14 14 20 21 2-1 3-2 4-3 31-20 62-40 92-60 9-5 19-10 25-17 13-15 25-30 37-46l-9-9c79-82 157-162 234-242zm-191-99c3-1 7 1 9 3 11 10 20 21 31 31 18 18 38 35 55 51 8-7 20-17 34-29-19-16-36-31-53-46 3-3 3-4 4-5 24-24 47-48 70-72 2-2 6-3 9-3 9-1 18 0 27 0-18-22-36-41-54-60-2-2-4-6-3-9 12-56 4-108-27-155-43-63-103-91-180-83-8 1-15 3-25 5 15 15 28 28 40 42 21 21 42 42 62 64 2 2 3 7 3 10-8 31-16 63-25 94 0 3-4 7-7 8-30 9-61 17-91 25-5 2-7 1-10-3-27-28-55-56-82-84-6-7-13-13-20-20-2 10-4 19-6 28v46c0 1 1 3 1 4 14 111 122 192 238 158zm452 201c-32-33-65-67-97-100-12-13-25-24-38-36 0 2-2 5-1 7 5 21-6 35-21 48-19 17-38 36-56 52-14-13-31-28-46-42-10 9-21 19-32 29 23 24 44 46 66 69 58 60 117 120 175 181 16 16 30 32 47 46 35 30 86 25 117-8 33-34 34-91 3-124-39-41-78-81-117-122zm81 214c-1 2-3 3-5 4-11 3-23 6-34 9-3 0-7-1-9-2-9-10-19-20-28-30-2-2-3-6-2-9 2-11 5-23 9-34 0-3 3-6 6-7 11-3 23-6 34-9 2-1 6 1 8 2 10 10 19 20 29 29l3 6c-4 14-7 28-11 41z"/></svg>