<svg width="64" height="64" viewBox="0 0 1000 1000" xmlns="http://www.w3.org/2000/svg"><path d="M921 859c2-15 2-30 2-45 0-221-174-402-396-416 1-2 1-3 1-5 0-16-13-28-28-28s-28 12-28 28c0 2 0 3 1 5C252 412 77 593 77 814c0 15 1 30 2 45h842zM163 709c13-76 51-135 89-148l6 32c-37 18-70 74-83 145-3 17-5 33-5 49l-12-4c-1-23 0-48 5-74zm766 172H71c-5 0-8 4-8 9v26c0 5 4 9 8 9h858c5 0 9-4 9-9v-26c0-5-4-9-9-9zM488 206c-22 22-21 59 2 77 6 5 13 7 19 1 6-7 5-13-1-19-14-16-14-28 2-43 25-25 24-55-2-81-5-5-9-14-9-21s6-13 9-21c2-4 4-10 3-14s-6-6-10-10c-5 3-9 5-12 8-23 20-23 53 0 76 18 19 18 29-1 47zm-83 47c-2 6-7 11-11 15-20 21-22 51-3 72 4 4 9 7 15 11 4-3 10-6 11-9 0-5-1-12-4-16-12-14-12-29 1-41 27-26 27-55 0-82-8-7-12-16-9-26 1-6 5-11 9-16 6-7 6-14 0-18-4-3-11-1-17-1-2 1-5 4-6 6-19 22-18 52 5 73 9 10 15 20 9 32zm178 14c-10 10-16 23-16 38s5 28 16 39c7 6 14 8 20 1 6-6 5-13-1-19-13-15-13-28 1-42 26-26 26-54 0-81-14-13-14-27-2-40 6-7 8-14 2-21-5-5-13-4-21 3-21 20-21 54 1 76 18 17 18 29 0 46z"/></svg>