<svg width="64" height="64" viewBox="0 0 1000 1000" xmlns="http://www.w3.org/2000/svg"><path d="M787 747c7-4 13-12 13-21V427h11v95c0 10 8 18 18 18 9 0 17-8 17-18V420c-4-46-57-45-57-45h-83c-60 1-58 45-58 45v102c0 11 8 19 18 19s17-8 17-18v-95h11v298c0 9 6 17 13 21h-86V514H369v177h-83c8-4 14-12 14-22V370h11v96c0 10 8 17 18 17s18-7 18-17V363c-4-46-57-45-57-45h-84c-59 1-57 45-57 45v103c0 10 8 18 17 18 10 0 18-8 18-18v-95h11v298c0 10 5 18 14 22h-79v309h740V747h-83zm-545-78V477h11v192c0 10 6 18 14 22h-39c8-4 14-12 14-22zm119 311H150V711h211v269zm240 0H390V534h211v446zm141-254V534h10v192c1 9 6 17 13 21h-36c7-4 13-12 13-21zm108 254H639V767h211v213zM550 784h-36V625h-19c0 5-1 9-4 12-2 3-5 5-8 7s-7 3-13 4-11 1-16 1v16h37v119h-37v18h96v-18zM319 911h-95c8-7 16-14 25-22l27-24c5-6 11-11 15-16s7-9 11-14c3-6 5-11 7-17s3-12 3-19c0-15-5-26-16-35-10-9-24-13-42-13-9 0-18 1-28 3-9 2-17 5-22 8v25c9-6 17-9 26-12 8-2 16-4 23-4 11 0 19 3 25 8s9 12 9 22-2 19-8 28c-6 8-16 20-31 35-7 7-15 14-24 21-8 7-16 14-25 22v24h120v-20zm422 52c10 0 19-2 27-4s15-7 21-13c5-5 9-10 12-17s4-14 4-22-1-15-3-20c-3-6-6-10-10-13-3-3-7-6-12-8s-9-3-13-4c9-3 17-8 24-15 7-8 11-16 11-26 0-7-2-13-5-19-3-5-7-10-13-14-5-3-11-6-17-7-7-2-15-3-23-3-9 0-18 2-27 4-10 2-17 5-23 7v25c9-5 17-8 25-11 9-3 17-4 24-4 5 0 10 0 13 1 4 1 8 2 11 4 4 2 6 5 8 8s3 7 3 11c0 10-4 17-11 22-7 6-17 8-29 8h-8v20h10c6 0 12 0 17 1s9 3 13 5c3 3 6 6 8 10s3 9 3 16-1 11-3 16c-1 4-4 8-8 11-3 3-8 6-13 7-6 2-11 3-16 3-9 0-17-2-27-4-9-3-17-7-23-11-2 0-2 24-2 24 6 3 14 6 23 8 10 3 20 4 29 4zM496 91c25 0 45-21 45-46S521 0 496 0s-45 20-45 45 20 46 45 46zm-9 397V278h12v210c0 15 12 26 26 26s25-11 25-26V175L662 60c7-7 7-19 0-27s-20-7-27 0l-72 72H424l-72-72c-8-7-20-7-27 0-8 8-8 20 0 27l111 114-1 314c0 14 12 26 26 26 15 0 26-11 26-26zM250 305c23 0 42-19 42-42s-19-42-42-42-42 19-42 42 19 42 42 42zm500 57c23 0 41-19 41-42s-18-42-41-42-42 19-42 42 19 42 42 42z"/></svg>