<svg width="64" height="64" viewBox="0 0 1000 1000" xmlns="http://www.w3.org/2000/svg"><path d="M500 528c18 0 27-10 29-28-1-17-11-28-28-28-18 1-28 11-28 29 0 17 11 26 27 27zm0-528C224 0 0 224 0 500s224 500 500 500 500-224 500-500S776 0 500 0zM267 359c22-44 56-77 102-98 6-3 14-3 19 4 5 9 2 17-6 21-39 24-68 58-96 93-4 5-9 8-15 6-6-3-6-9-6-16 0-2 0-6 2-10zm-90-18c-4 7-9 13-13 19s-9 11-16 8-7-10-7-16c-1-10 3-19 7-27 42-77 102-135 179-175 0-1 1-1 2-1 13-3 29-17 38 0 10 19-12 23-23 28-72 39-128 93-167 164zm325 18c79 0 141 63 140 142 0 79-62 141-142 140-80 0-141-63-140-142 0-79 63-141 142-140zm122 362c8-7 15-14 23-20 27-20 47-45 68-70 5-7 12-18 22-10 9 6 6 17 2 26-12 26-31 45-52 64-15 13-31 27-50 29-8 0-14 0-17-6-2-5 1-9 4-13zm16 124c7-6 15-12 23-17 68-38 121-90 160-158 4-7 9-15 14-22 4-5 9-9 16-6 7 2 7 9 8 14-1 12-5 22-10 31-39 71-94 126-165 166-11 7-24 12-38 12-5 0-11-1-13-8-2-5 1-9 5-12z"/></svg>