<svg width="64" height="64" viewBox="0 0 1000 1000" xmlns="http://www.w3.org/2000/svg"><path d="M805 598c-4 3-4 5 0 9 14 11 18 26 15 43-4 18-12 35-21 51-2 5-4 9 3 11 4 1 6 3 9 7s6 10 4 15c-2 4-8 2-12 2h-55c-19 0-39-1-59 0-9 0-9-4-5-10 5-10 14-15 26-16 6 0 9-2 11-7 6-15 12-30 17-46 1-5 0-7-4-10-61-36-88-90-88-160 0-53 14-102 46-146 9-13 21-24 34-33s26-11 41-6c43 13 70 43 87 83 27 64 15 125-23 181-8 11-17 22-26 32zM514 326c-2-4-5-7-9-10-29-20-60-37-93-51-4-2-7-2-11 0-15 9-29 20-44 31 10 7 18 14 25 22 11 13 16 21 18 28-26-24-56-41-86-58-7-3-10-2-13 4-17 25-33 51-47 78-2 5-2 7 2 11 40 33 64 77 77 127 3 13 5 27 7 41 82-34 125-27 169 26l1-1c1-3 2-5 3-8 26-80 22-160 1-240zM257 604c-10 2-21 4-31 6-27 6-49 20-66 42-3 3-5 6-10 3-6-3-2-7-1-10 4-12 11-24 18-35-21 9-38 24-51 45-54-80-63-167-45-259 5 48 18 94 39 138-2-24-1-48 5-74 5 15 14 26 25 36 4 3 7 3 11-1 28-29 56-60 82-91 5-5 3-7-2-9-12-4-24-6-36-5-4 0-7 0-7-4-1-15-4-29-8-43 3-2 4 0 6 0 76 39 120 100 133 185 2 15 2 31 2 46 0 6-2 10-7 13-18 11-37 14-57 17zm-59-101c-11 5-18 12-24 19-10 10-10 12 4 15 3 1 8 5 9-2 1-11 5-20 11-32zm435 48c-7-22-9-45-7-69 4-60 25-114 64-160 4-6 3-7-2-10-12-6-24-11-36-16-4-1-6 0-9 3-13 13-29 20-46 23-25 5-49 1-75-6 3 7 5 13 6 18 27 82 26 165 1 247-3 8-2 10 6 10 33-1 64-9 93-26 6-4 8-7 5-14zm-174 1c-38-15-75-10-110 12-5 3-6 7-4 13 9 27 22 53 46 70 22 15 21 31 13 52 0 1-1 1-1 2-1 6-4 9-10 9-11 1-20 8-24 18-2 6-1 8 6 8h105c5 0 11 3 13-2s-2-11-6-16c-1-1-3-3-6-4-6-3-6-6-3-12 12-25 20-50 22-78 3-34-12-61-41-72zm195 157c16-19 29-38 40-60 2-5 2-8-2-11-18-15-33-32-44-52-2-4-4-6-8-3-13 7-27 12-41 16-6 1-6 4-4 9 4 11 9 22 16 32 3 4 4 7 2 12-5 17-13 33-22 49-3 6-7 9-15 9-13 1-22 10-25 20-1 5 0 6 5 6h109c5 0 6-1 5-6-1-10-6-17-16-21zm-304 5c-4-4-3-6 1-8 13-8 23-19 33-32 1-2 4-4 0-8-21-17-37-38-49-65-9 38-25 71-47 100-4 6-9 9-16 9-11 1-20 7-25 17-5 7-4 9 5 9h90c4 0 11 2 13-3 3-5 0-11-3-16-1-1-2-2-2-3zm579-124c-1-8-5-11-13-11-12 0-19-6-23-18-7-19-14-39-19-60-3 9-4 16-7 23-3 6-2 10 1 15 8 10 15 20 23 30 13 17 28 31 47 46-4-10-7-17-9-25z"/></svg>