<svg width="64" height="64" viewBox="0 0 1000 1000" xmlns="http://www.w3.org/2000/svg"><path d="M875 557c-131-97-262-194-396-293 6-4 12-7 16-11 27-23 32-54 25-86-5-19-25-12-39-11-34 1-59 16-68 51-2 5-3 10-2 15 4 26-9 29-32 32-40 4-76 20-107 48-34 32-70 63-106 94-61 51-63 52-22 122 151 258 353 325 624 315 41-1 83-9 121-35-27-21-59-20-98-31 39-10 66-15 95-7 24 7 35-3 42-26 22-65 3-135-53-177zM444 242c17-19 34-38 53-60-3 51-12 60-53 60zm120 309c-26 1-39-10-39-30 0-13 8-33 23-28 19 7 47 13 49 39 0 21-24 16-33 19zm218-109c56-63 88-137 110-227 50 117 55 229 33 351-50-36-96-71-142-105-8-6-7-13-1-19zm-115-91c36-40 56-88 71-145 32 75 34 147 21 224-32-23-62-45-92-67-4-4-4-8 0-12zM463 818c-10 27-27 34-54 23-157-63-267-174-340-324-10-19-10-35 10-48 15-9 20-8 27 8 72 162 189 278 357 341zm-133 3c-6 18-17 23-35 16-104-40-177-112-226-210-7-13-7-23 6-32 10-6 13-5 18 5 49 106 127 181 237 221z"/></svg>