<svg width="64" height="64" viewBox="0 0 1000 1000" xmlns="http://www.w3.org/2000/svg"><path d="M791 578c-13 2-18-3-22-14-12-36-25-72-38-108-2-4-8-10-12-10-19-2-37-1-56-1-2 0-5 2-5 5v27c0 3 3 6 5 5 11 0 22-2 30 2 7 3 11 14 17 25 1 2 0 4-3 4H511c-4 0-7-3-10-5s-4-5-4-6c1-2 4-3 7-3h32c3 0 5-2 5-5v-26c0-2-2-5-5-5h-85c-3 0-5 3-5 5-1 15-3 28 10 40 5 5 8 20 4 27-24 49-50 97-76 145-2 4-7 9-11 10-14 1-28 0-41 0-3 0-6-2-7-5-21-86-90-113-148-106-66 8-115 63-114 128 0 67 48 120 117 128 56 7 125-23 145-105 0-3 3-5 6-5 2-1 4-1 6-1 73 0 145 0 217 1 14 0 24-4 34-13 46-44 92-86 139-130 3-2 6-2 7 1 5 8 3 13-5 19-45 32-62 76-53 129 12 73 87 119 161 102 73-17 116-91 96-162-14-47-63-100-142-93zM282 730c-7 40-48 70-91 68-47-2-88-40-90-85-2-53 34-92 88-98 42-4 84 27 95 70 0 3-2 5-5 5h-84c-3 0-6 3-6 6v24c0 2 3 5 6 5h83c3 0 5 2 4 5zm144-45c19-37 38-72 58-109 1-3 3-3 4 0 18 37 35 72 52 109 1 2 0 4-3 4H429c-3 0-5-2-3-4zm150-17c-18-38-36-76-55-116-1-2 0-4 3-4h175c3 0 4 1 2 3-40 40-79 79-119 118-2 2-5 2-6-1zm146 80c-20-39-8-89 26-111 2-2 5-1 6 2 7 18 13 36 20 55 1 3 4 4 7 3 9-3 17-5 26-8 3-1 4-4 3-7-7-20-13-39-19-58-1-3 0-6 3-6 37-10 82 15 98 56 18 43-3 96-46 115-47 22-100 4-124-41zM177 404c3 1 5-1 5-4-1-20-2-38-3-60 0-2 1-3 3-1 25 30 47 57 70 85 2 2 5 2 7 0 53-80 104-157 156-236 2-2 1-4-2-5-59-7-114-13-170-19-6-1-14 1-19 4-33 23-65 46-97 69-4 3-7 9-8 13v131c1 4 5 11 8 12 16 4 32 7 50 11zm97-148h56c3 0 4 2 3 4-20 33-40 65-61 101-2 2-3 2-3-1v-99c0-3 2-5 5-5zm-34 2v108c0 3-1 4-3 1-18-22-34-43-51-64-2-3-1-6 1-8 15-14 22-38 48-41 3-1 5 2 5 4zm29 227c-4-34-23-49-58-53-29-3-57-11-87-18-3 0-5 1-5 4 0 33 0 65 1 96 0 4 5 10 9 11 84 32 169 63 254 94 3 1 6 0 7-3 2-11-3-17-13-22-13-6-24-16-38-21-41-16-64-46-70-88z"/></svg>