<svg width="64" height="64" viewBox="0 0 1000 1000" xmlns="http://www.w3.org/2000/svg"><path d="M320 662c0-35-15-67-38-90-22-23-53-37-86-38h-5c-36 0-67 14-91 38-23 23-37 55-37 90 0 19 3 36 10 51s16 29 27 40c24 23 55 38 91 38 71 0 129-58 129-129zm-68 19h-42v42h-38v-42h-42v-38h42v-41h38v41h42v38zm561 85c43 0 75-20 96-56 19-32 28-64 28-95s-14-78-38-130h-4c-17 22-31 44-44 66 21 41 37 79 41 110-13 12-32 18-58 18-23 0-44-6-59-16-30-23-47-57-47-143l-1-115c30-18 61-30 92-30 39 0 70 16 75 60l9 2c10-29 16-58 16-83 0-46-34-69-78-69-34 0-73 16-113 44h-2c0-100-4-189-15-259l-6-2c-15 19-29 38-42 60 9 98 15 173 18 233-26 20-51 44-77 70h-3l-8-158 45-43c-34-44-55-85-55-117 0-9 0-16 2-25l-8-4c-24 26-52 73-52 97 0 18 10 45 16 72 6 57 12 135 17 220-53 59-99 98-140 98-14 0-35-4-49-27-7-12-12-31-12-57 0-42 22-94 63-157l-18-12c-54 75-84 149-84 222 0 8 1 16 2 23 5 33 19 60 39 77 15 13 32 19 51 19 47 0 81-29 133-88 9-10 14-17 20-24l2 2c4 48 6 98 6 149-4 18-20 38-50 62-36 28-76 48-130 48-35 0-64-14-84-36-12 18-38 37-62 36 22 62 73 95 146 95 75 0 149-44 194-111 16-53 25-109 25-167 0-43-1-83-3-121 23-25 48-50 75-73l3 2c2 55 5 107 5 156 0 120 52 177 123 177zm49 38l-43 60c26 18 52 38 76 60 16-18 31-36 43-60-24-23-49-43-76-60zm-120 10l-45 61c26 17 53 35 78 58 18-18 34-39 46-61-24-23-50-42-79-58z"/></svg>