<svg width="64" height="64" viewBox="0 0 1000 1000" xmlns="http://www.w3.org/2000/svg"><path d="M727 700l4-8c7-12 12-23 17-36h-87c-33 57-93 95-161 95s-128-38-161-95h-87c5 13 10 24 17 36l4 8-44 60c-2 2-2 6 0 8l65 68c1 1 5 2 7 0l57-47 8 5c20 12 42 21 65 28l9 2 8 76c1 2 3 5 6 5h91c3 0 6-2 6-5l9-76 9-2c22-7 44-16 64-28l8-5 57 47c2 2 6 1 8 0l65-68c1-2 2-6 0-8l-44-60zM359 454c-22 0-40 19-40 43s18 42 40 42 41-19 41-42c0-24-18-43-41-43zM234 251l-104-94c11-15 10-37-4-51-14-15-38-15-52 0-15 16-15 40 0 55 13 14 33 15 48 4l90 109 22-23zm407 203c-23 0-41 19-41 43s18 42 41 42c22 0 40-19 40-42 0-24-18-43-40-43zm193 30l-63-8c-6-25-15-49-28-71l40-52c6-8 5-20-2-27l-65-68c-6-7-18-8-26-2l-50 41c-21-12-43-22-67-29l-8-65c-1-10-10-19-19-19h-92c-9 0-18 9-19 19l-8 65c-24 7-46 17-67 29l-50-40c-8-7-19-6-26 1l-65 68c-7 7-8 19-2 27l39 53c-12 21-21 45-28 70l-62 8c-10 1-18 11-18 21v95c0 10 8 20 18 21l63 8h542l63-8c10-2 18-11 18-21v-96c0-10-8-19-18-20zm-393 24c0 2-2 4-4 5l-15 1c-1 6-4 12-6 17l9 12c1 1 1 4-1 6l-15 16c-1 1-4 1-6 0l-11-9c-5 3-10 5-16 6l-2 16c0 2-2 4-4 4h-21c-2 0-4-2-5-4l-1-16c-6-1-11-3-16-6l-11 9c-2 1-5 1-6 0l-15-16c-2-2-2-5-1-6l9-12c-2-6-5-11-6-17l-15-2c-2 0-4-2-4-4v-22c0-3 2-5 4-5l15-2c1-6 4-11 6-16l-9-12c-1-2-1-5 1-6l15-16c1-2 4-2 6 0l11 9c5-3 10-5 16-7l2-15c0-2 2-4 4-4h21c2 0 4 2 5 4l1 15c6 2 11 4 16 7l11-9c2-2 5-1 6 0l15 16c2 1 2 4 1 6l-9 12c2 5 5 10 6 16l15 2c2 0 4 2 4 5v22zm281 0c0 2-2 4-4 5l-14 1c-2 6-4 12-7 17l9 12c1 1 1 4 0 6l-15 16c-2 1-5 1-6 0l-12-9c-5 3-10 5-15 6l-2 16c0 2-2 4-5 4h-21c-2 0-4-2-4-4l-2-16c-5-1-11-3-15-6l-12 9c-2 1-4 1-6 0l-15-16c-1-2-2-5 0-6l9-12c-3-5-5-11-7-17l-14-1c-2-1-4-3-4-5v-22c0-3 2-5 4-5l14-2c2-6 4-11 7-16l-9-12c-1-2-1-5 0-6l15-16c2-2 5-2 6 0l12 9c4-3 10-5 15-7l2-15c0-2 2-4 4-4h21c3 0 5 2 5 4l2 15c5 2 10 4 15 7l12-9c1-2 4-1 6 0l15 16c1 1 1 4 0 6l-9 12c3 5 5 10 7 16l14 2c2 0 4 2 4 5v22zm205-402c-15-15-39-15-53 0-13 14-15 36-4 51l-104 94 22 23 90-109c15 12 35 11 49-3 14-16 14-41 0-56z"/></svg>