<svg width="64" height="64" viewBox="0 0 1000 1000" xmlns="http://www.w3.org/2000/svg"><path d="M418 740c-32 32-49 8-68-11l-83-83c-18-19-49-34-11-70l-10-2c-8 2-16 3-23 7-28 17-57 32-84 51-32 22-41-10-57-23-17-13-1-24 7-33 39-45 78-90 119-133 8-9 22-14 34-16 21-3 42-6 63-4 36 3 55-16 74-43 75-104 164-192 280-252 65-34 65-34 116 17 36 37 71 74 109 108 13 13 14 22 8 38-40 97-101 179-180 248-37 33-79 61-117 93-9 8-17 23-19 36-4 30-3 60-7 90-1 10-7 22-15 30-45 40-92 80-138 120-11 10-22 17-32 2s-42-20-24-49c18-31 36-61 54-92 4-6 6-13 9-20-2-3-3-6-5-9zm253-478c-36 0-67 30-67 66 0 33 30 64 64 65s67-32 67-66c0-33-31-64-64-65zM62 927c19-12 36-23 51-36 8-6 16-16 19-25s2-22-3-28c-4-4-18-1-27 0-4 1-9 5-15 9-6-42 18-66 45-89 2-3 7-3 9-6 9-11 18-23 27-34-12-4-23-7-42-12 11-11 21-24 33-31 36-21 88-14 120 13 42 35 55 78 40 127-16 52-51 83-101 100 0-2-1-4-1-5l-2-43c-13 7-27 11-39 20-15 11-28 26-43 37-26 18-36 18-71 3zm848-683c-53-53-101-102-153-156 54-9 107-19 161-26 21-2 21 16 18 31-8 50-17 99-26 151z"/></svg>