<svg width="64" height="64" viewBox="0 0 1000 1000" xmlns="http://www.w3.org/2000/svg"><path d="M930 340c-14-49-44-86-87-113-2-2-4-3-5-5-6-8-11-15-18-22-30-33-67-53-111-58-48-5-91 10-127 41-34 29-55 65-66 107-5 18-8 37-8 56 0 17 0 33-3 50-4 17-9 34-23 46-17 17-39 19-62 16-23-4-43-14-62-28-16-12-29-27-42-43-16-20-33-39-57-51-4-2-8-5-15-6 2 1 2 1 3 2 37 25 36 77-1 102-3 2-3 3-2 6 3 9 4 19 4 30-1 14-5 28-9 42-7 22-4 43 8 63 28 44 92 63 140 40 8-4 16-9 23-14-46 42-96 41-148 11v1c1 0 1 0 2 1 39 37 86 49 138 36 38-10 66-33 76-74 0-3 2-3 3-5 8-4 14-9 19-15 21-24 19-56-3-77-1-1-2-1-1-3 13 10 23 22 24 39 0 1 1 3 2 4l-3 15c-6 18-18 31-33 41-2 2-4 3-5 6-6 31-25 52-52 67-30 17-64 21-98 15s-64-21-87-49c-17-21-24-45-19-72 0-3 1-5 2-8 0-2 1-5 2-7-13 14-28 24-47 28-19 3-37-1-54-12 1 1 1 1 1 2l9 16c18 32 42 57 71 78 20 14 41 28 61 44 1 0 2 1 3 2l2 2 2 1c14 12 21 28 23 47 1 15-4 31-11 45-1 3-3 4-7 3-7-2-15-4-22-7-8-2-15 0-21 5 10 6 20 5 31 10-11 2-21 0-31 0-9 0-16 4-21 13 18-3 34 0 51 3-5 2-9 3-13 4-4 2-8 5-10 9-1 2-3 5-1 6 1 2 4 1 6 0 9-4 19-7 29-9 6-2 13-2 18-6 3-4 7-5 11-6l33-8-19-5h-2c-7-1-10-9-7-16 1-2 2-1 3 0 3 2 6 3 9 2-11-12-10-31 3-42 2 10 12 14 16 23 1 3 3 6 2 9 0 9-1 18-2 28-1 6-2 10-2 13 0 1-1 1-1 2-2 4-6 6-10 5l-14-4c-9-3-17-1-26 4 9 11 23 3 32 9-2 2-4 3-7 3-9 1-18 1-26 2-6 1-12 2-16 7-2 2-5 6-4 8 2 3 6 1 9 0 13-4 27-4 41-3-8 5-16 7-20 15-1 2-3 4-2 6 2 3 5 1 7 0 12-5 24-10 37-15 6-3 13-5 17-11 1-1 2-2 4-2 16 3 30-6 46-5-5-5-9-8-15-9-5 0-10 0-16 1-10 1-13-2-13-12 0-3 0-5 1-8 4 2 7 5 12 2-11-5-12-14-10-23 2-7 0-14 6-19 9-8 12-21 20-30 2-3 1-7 5-10 4-2 7-5 9-10 10-3 19-7 28-13 30-23 58-49 83-77 5-5 9-11 14-17 1 3 1 6 1 9v24c0 1 0 3 1 3 1 1 2-1 3-1 6-6 10-14 13-23 9-29 2-55-14-80-2-2-4-3-4-5 2 0 3 2 4 3 21 22 28 49 33 77 1 10 2 21 3 33 6-8 10-17 12-26 1-10 2-19 2-29 4 21 3 43 4 65 23-27 26-58 21-90-5-33-21-60-46-83 1 0 2 1 3 1 2 1 4 2 5 4 24 17 37 40 44 67 5 22 6 44 5 66 0 3-1 5 2 8 26-32 28-67 18-104-3-10-7-19-12-28s-12-17-19-25c-7-7-15-13-24-18-9-6-18-10-28-12-10-3-20-3-30-4 23-1 45 3 64 16 38 24 57 59 59 104 1 9 5 18 10 27 15-36 3-68-16-99 17 17 28 38 40 60 5-13 5-25 2-36-5-27-19-49-40-66-33-28-71-39-114-29-4 1-8 3-12 4-3 1-7 3-10 5 15-11 33-15 52-16 68-4 121 45 132 96 1 4 3 6 7 9 3-12 2-29-4-43-16-36-43-60-80-72-15-5-30-7-45-7 15-2 29-1 43 2 29 8 53 23 70 48 2 3 5 5 8 7 32 19 56 46 75 77 5 10 11 20 16 30-6-49-16-97-60-129h3c22 6 42 18 61 32 11 8 22 16 34 22 2 1 4 2 5 1s0-3-1-5c-16-26-36-47-62-62-51-30-105-42-163-38-15 1-29 3-45 6 4-3 8-3 12-4 37-11 75-13 113-5 30 7 58 19 84 35 34 21 64 48 89 79l13 16c1-1 0-2 0-2-9-19-19-37-30-54-19-29-41-55-68-76s-57-35-92-38c-6-1-12 0-20-1 33-17 63-18 94 0 21 12 37 29 55 44 5 4 9 8 14 11-15-35-34-67-64-91 1 0 2 0 3 1 23 16 41 36 56 59 10 15 19 31 27 48 2 2 3 4 5 6l1-1v-5c0-20-4-39-12-58-9-27-24-50-45-69-28-25-62-31-97-31s-67 11-96 29c-9 6-17 12-26 18v-1c8-6 15-13 23-18 40-29 84-45 135-41 32 3 64 12 93 27 4 3 7 6 9 10 21 34 30 72 31 111 1 11 0 23 0 34 12-41 13-81 2-123 30 27 65 86 54 175 1-1 1-2 2-2 14-41 17-82 5-124zM616 213c40-31 83-35 129-20-45-4-88 2-129 20zM211 524c24-25 30-55 23-88-1-3-1-5 3-8 20-12 32-39 27-60-4-15-13-27-25-37l-8-6c22 2 41 11 59 25-3-6-4-10-6-15-9-27-24-50-46-69-14-13-28-25-39-40-1-2-3-3-4-3-11-2-21-6-32-11-6-3-13-5-20-6-17-2-30 5-36 18-2 4-2 6 2 8 3 1 4 3 6 6 5 6 8 13 12 21 4 9 10 18 17 25 10 10 22 10 31-1s12-24 9-37c0-3-2-6-3-10 5 4 7 8 8 14 2 11 1 22-4 32-7 13-17 21-34 15 0 17-5 32-13 45s-17 24-34 25c-2 0-2 2-2 4-9 32-13 65-9 99 2 19 8 37 22 52 27 30 69 31 96 2zm-74-279c-7 0-13-5-13-12s6-12 13-12 12 5 12 12-5 12-12 12zm-66-34c-1-5 1-8 5-10 6-1 6-2 3-7-3-4-4-9-3-15 0-2 0-4 2-4 3-1 3 2 4 4 1 4 4 8 8 11 1 0 3 1 5 0 1-1-1-3-1-4-5-9-7-18-4-28 0-1 0-1 1-1 1-2 1-5 4-5s3 3 3 5c1 5 3 9 5 13 1 2 2 4 4 6s3 2 4-1c2-9 5-17 11-24 4-4 8-8 13-10 2 0 4-1 5 1 1 1 0 3 0 4-3 5-5 11-6 16-1 7 2 9 8 6 16-6 30-15 39-30 2-3 5-3 7 1 3 7 3 14 0 22-3 9-9 15-19 19 16 2 29-3 43-11 7-5 13-10 19-15 4-3 6-3 7 2 3 11-3 24-13 31-1 1-2 1-5 3 4 1 8 2 11 3 3 0 4 2 4 5-1 7-5 12-11 15-10 5-21 5-32 3-11-3-22-7-32-12-9-4-19-5-29-4-14 2-23 10-26 24-1 3-2 4-5 3-9-1-18-3-24-10-2-1-4-3-5-6zm15 141c-10-8-15-20-15-34 0-20 11-35 24-47 6-6 13-10 20-14 3-2 5-2 6 2 4 7 7 15 12 22 3 5 7 10 11 13 2 2 3 3 2 6-1 19-8 36-22 50-11 12-26 12-38 2zm-20-95h-4c6-10 15-15 24-20 15-8 24-5 31 11 1 2 0 3-2 5-5 3-10 5-16 3-11-3-22-1-33 1zm79-25c0 5-3 9-8 9-4 0-8-3-8-8 0-4 3-8 8-8 4 0 8 3 8 7z"/></svg>