<svg width="64" height="64" viewBox="0 0 1000 1000" xmlns="http://www.w3.org/2000/svg"><path d="M398 541c-19-20-19-32 0-51 81-82 173-147 293-168-33-25-61-53-96-71-33-16-69-22-106-12-44 13-85 36-137 29 11 17 23 26 39 30 21 6 42 2 63-1 17-3 32 5 36 19 4 13-3 27-18 35-18 9-37 9-55 1s-36-17-54-26c-32-15-61-9-86 16-17 17-34 33-64 36 16 9 27 10 40 8 16-4 32-8 48-2 16 7 22 25 12 39-9 13-24 18-41 13-11-3-21-7-31-12-36-17-71-14-106 4-19 11-38 21-57 32-13 9-27 9-41 3-12-6-23-14-37-23 9 33 26 55 57 63 22 5 43-2 62-13 11-6 22-13 35-12 11 1 19 6 18 18-1 13-9 17-20 16-5 0-11-3-17-4 12 24 39 33 62 19 10-6 21-14 34-14 12 0 23 1 29 13 6 11 5 22-2 32-8 11-19 14-32 11-16-4-30-12-44-19-24-13-48-10-70 12 40-2 66 20 90 44 3 2 5 4 7 6 20 12 40 14 61 4 10-5 20-12 30-17 11-7 23-10 36-6 23 6 36 23 30 41-5 17-21 22-45 15-21-7-42-7-63 1-19 7-33 19-40 38 5 3 8 0 11-1 22-6 42-6 62 8 9 7 20 11 31 16 42 17 66 12 97-22l19-19c9-8 20-9 30-3 8 4 13 10 12 20-2 12-11 16-21 19-12 4-24 6-35 10-17 5-24 16-22 34 28-14 56-12 84 1 38 16 76 21 116 8 32-10 59-27 85-51-17-4-32-7-47-11-96-29-173-86-242-156zm475-125c0-9-2-14-10-18-91-46-182-46-273 0-7 4-10 9-9 17v202c-1 8 2 11 9 15 91 47 181 47 272 1 8-5 11-9 11-18V416zm-38 98c-1 9 2 21-13 19-12-2-17 3-15 15 1 7-3 10-10 10s-9-4-9-10c0-5 3-13-3-14-7-2-15-2-22-1-6 2-3 8-3 13-1 6 0 12-10 12s-10-6-9-12c2-13-4-14-14-13-10 0-17 0-15 13 1 6 0 12-8 12-10 1-11-5-10-12 2-13-5-13-15-13-10-1-16 1-14 13 1 6 0 12-9 12-10 0-10-6-9-13 1-9-2-13-12-12-16 0-16-1-16-19-3-12 2-18 16-16 10 2 12-3 12-12 0-6-2-13 8-14 11 0 11 7 10 14-2 13 6 12 15 12 9 1 16 0 14-13-1-6-1-13 9-13 9 0 10 6 9 13-2 12 4 14 14 13 9 0 17 0 15-13-1-7 0-13 9-13 10 0 10 7 9 13-1 12 5 13 15 13s16-2 14-14c-1-7 1-12 10-12 9 1 10 6 9 12-2 12 4 15 15 14 13-2 13 7 13 16zm157-20c-21-22-45-42-72-61v164c27-18 50-38 72-60 11-12 11-31 0-43zm-532 40c21 24 46 44 74 64V433c-27 19-51 38-72 61-11 11-12 28-2 40zm-329 87c-26-15-52-8-80 10 27 4 48 12 68 23 27 15 66 6 81-16-25 2-47-4-69-17zm-2-267c19-11 38-17 60-17-19-15-40-25-63-15-20 10-39 20-64 23 24 15 46 20 67 9z"/></svg>