<svg width="64" height="64" viewBox="0 0 1000 1000" xmlns="http://www.w3.org/2000/svg"><path d="M640 170c-12-12-21-16-37-8-52 26-53 26-19 71 2 2 4 4 5 6 5 5 6 12 1 17-6 7-14 8-21 2-12-10-24-20-34-32s-19-11-32-3c-40 26-40 25-7 59 6 6 12 11 16 17 6 7 7 15 0 21-7 7-15 4-21-1-10-10-21-19-30-30-28-34-43 0-59 12-24 17 4 24 10 35 8 15 42 25 24 44-19 20-31-12-43-23-18-18-31-27-53-4-24 25 1 32 10 46 9 15 43 25 24 44-20 19-30-14-44-24-15-9-22-33-46-8-22 23-14 36 5 52 9 8 17 17 25 25 5 6 5 12 0 18-6 6-13 8-20 2s-13-13-20-19c-32-32-36-31-60 7-17 27 13 31 21 46s42 25 23 44c-20 20-29-16-44-23-11-6-15-25-30-20-24 7-37 70-20 88 101 101 202 203 303 304 7 7 12 17 25 16 6-2 12-4 18-7 208-84 347-235 433-439 8-17 4-28-9-41-98-97-196-196-294-294zM115 581c1 1 3 1 7 3 4-6 8-11 11-17 15-28 49-56 1-86-8-5-7-13 1-20 9-7 16-1 23 5 10 6 13 25 31 14 26-16 29-45 9-67-7-9-25-17-10-32 14-13 21 3 29 10 13 10 21 30 42 6 16-18 24-31 1-48-9-6-23-15-11-28 15-17 24 0 31 8 17 22 28 15 46 0 29-25 2-33-9-47-7-8-15-16-4-26 10-9 16-2 23 5 5 4 10 8 14 13 27 31 36-5 52-13 21-11 9-22-1-33-9-9-28-19-12-34 15-14 22 6 31 12 3 2 6 6 9 8 28 29 40-7 56-16 22-11-1-20-7-29-7-12-30-22-13-37s26 8 36 17c15 13 24 27 48 11 50-32 52-30 9-73-9-8-17-16-25-25-12-14-23-15-41-8-181 71-323 186-407 364-55 115-53 76 30 163zM61 941c70 71 164 61 253 55C211 891 109 787 4 681c-6 93-13 188 57 260zM934 55C863-11 771-3 685 5c104 105 206 209 312 316 3-97 14-195-63-266z"/></svg>