<svg width="64" height="64" viewBox="0 0 1000 1000" xmlns="http://www.w3.org/2000/svg"><path d="M947 503s-40 8-90 14l-24-103h18V243h-62V108h-67v135h-62v171h18l-24 103c-50-6-90-14-90-14v76s31 7 73 12l-72 314 20 5-6 27 13 3-2 12 7 1 2-12 16 4 6-27 23 5 76-323c12 0 25 1 37 1 11 0 23-1 35-1l76 323 23-5 6 29 15-4 3 12 7-1-2-12 12-3-6-29 21-5-73-314c42-5 73-12 73-12v-76zM679 263h153v132H679V263zm-50 637l-41-10 69-296c14 2 28 3 43 4l-71 302zm89-377c-15-1-30-2-44-4l24-105h45l-25 109zm39 1h-19l18-77 18 77h-17zm11-110h45l24 105c-14 2-29 3-43 4l-26-109zm155 476l-41 10-71-301c15-2 30-3 44-5l68 296zM52 327l231 673 33-82 10-24L684 0 52 327zm544-195l-10 23-43-17-6 15 43 18-7 17-29-12-7 16 30 12-9 24-44-18-6 16 43 18-7 17-29-12-7 16 30 12-9 21-43-17-6 16 43 17-7 18-29-12-7 16 30 12-9 23-44-17-6 16 43 17-6 18-30-12-7 16 30 11-8 22-1-1-4 12-33-13-6 16 34 14-7 17-20-8-7 16 21 8-10 24-34-14-6 16 34 13-7 18-20-9-7 16 21 8-10 24-38-16-6 16 38 15-7 18-24-10-7 16 25 10-10 23-38-15-6 16 38 15-7 17-24-10-7 16 25 10-9 22-38-15-6 16 38 15-7 17-24-10-7 16 24 10-9 23-38-15-6 16 37 15-6 17-24-9-7 16 24 9-20 50L89 342 622 66l-20 50-25-10-7 16 26 10zM297 666l170-424-267 138 97 286zm3-87l-63-184 172-89-109 273z"/></svg>