<svg width="64" height="64" viewBox="0 0 1000 1000" xmlns="http://www.w3.org/2000/svg"><path d="M95 230c5 4 5 9 0 13-4 5-9 9-13 13 10 11 18 19 28 29 5-6 9-11 14-16 4-5 8-4 12 0s5 8 1 13c-5 5-10 9-15 14 10 10 19 19 29 28 4-5 9-11 13-16 5-5 9-4 14 1 4 4 4 8-1 12-4 5-9 10-14 15 10 10 19 18 29 27l13-15c4-4 8-5 13-1 5 5 5 9 0 14-5 4-9 9-13 13l29 29c3-4 5-8 8-12 5-5 9-12 17-5 8 8 1 13-4 18-3 3-7 6-11 9 11 11 20 19 31 29 3-5 7-10 11-15 5-5 9-6 14-1s4 9 0 13c-5 5-10 9-14 13l20 20c52-56 103-112 155-168 0 1 0 0-1-1-72-68-143-136-214-205-30-28-59-57-89-86l-2 1c-6 6-12 13-19 20C93 80 50 126 7 173c-2 2-5 4-7 6v2c9 8 18 17 28 26 4-5 8-10 12-14 4-5 8-8 14-2 6 5 4 10-1 14-4 5-9 9-13 12l29 29c4-5 9-10 13-15s8-5 13-1zm591 290c-2 1-3 3-4 4-43 46-86 92-128 138-8 8-14 18-21 27 9 8 18 17 27 27 5-6 9-11 13-16 4-4 9-5 14 0 4 4 4 9 0 13-5 5-10 9-14 13l30 30c4-5 8-10 13-15 4-5 8-5 13-1 4 5 5 9 0 13-5 5-9 10-14 15 10 10 19 18 29 28 5-6 9-11 13-16s9-4 13 0c5 4 5 8 1 13-5 5-10 9-14 14 9 10 18 18 29 28l12-15c4-6 8-5 13-1s5 9 0 13c-4 5-9 9-14 13 10 11 19 19 30 30 4-6 8-11 12-17 5-5 9-4 14 1 4 4 4 8 0 12l-15 15c11 9 20 18 31 29 4-6 8-11 13-16 4-5 8-5 12-1 5 5 5 9 1 14-5 4-10 9-14 13 10 10 19 18 29 28 4-4 8-8 11-13 4-5 9-8 15-2 5 5 4 10-1 15-5 4-9 8-14 12 9 9 17 16 23 23l156-168c-104-99-209-199-314-300zm220-383l2-1-76-80-4 4C635 268 443 475 250 682c-3 4-5 10-5 14 1 18 2 37 2 55 1 4 1 9 2 14 22 0 44-1 65-2 8 1 13-2 18-8 192-206 383-412 574-618zm21 65c1-13 0-25-1-40l-6 6-579 624c-2 2-5 4-5 6-5 19-8 37-12 56 4-2 6-4 8-6 37-40 73-79 110-118 159-172 319-344 479-517 3-3 6-7 6-11zM159 689c16-3 29-5 42-9 7-2 14-6 19-11C411 464 601 259 792 53c2-2 5-4 7-6l-1-3c-11 0-23 0-34 1-4 1-10 3-13 6-196 210-391 420-586 630-2 2-3 4-6 8zm-32 167c18-50 35-99 54-150-11 2-19 5-28 6-6 1-8 3-10 9-23 73-47 146-70 219-1 4-2 11 1 12 3 2 9 2 13 1 69-27 139-54 208-81 3-1 6-3 6-5 2-11 4-21 6-33-48 21-94 40-141 60-6-19-20-31-39-38z"/></svg>