<svg width="64" height="64" viewBox="0 0 1000 1000" xmlns="http://www.w3.org/2000/svg"><path d="M1000 756H241V625 416 186 22c0-3 0-6-1-10H0v976h1000V756zm-808-93h-47v46h47v46h-11c-25 0-50 0-76 1-3 0-9 2-9 4v43h96v46h-47v47h47v45H61c-13 0-13 0-13-13V555 60h144v46h-47v46h47v46H97v47h95v46h-47v47h47v46h-13c-25 0-50-1-75 0-3 0-8 3-8 5v42h96v47h-47v46h47v45h-87c-4 0-9-1-9 6v42h96v46zm758 278H241v-43-96h35v46h49v-45h48v92c15 0 30 1 44 0 2 0 5-6 5-9v-74c0-3 0-6 1-9h46v45h49v-45h47v92h49v-92h48v45h48v-45h48v92h49v-92h48v45h48v-45h47v138z"/></svg>