<svg width="64" height="64" viewBox="0 0 1000 1000" xmlns="http://www.w3.org/2000/svg"><path d="M0 793l6-12c5-7 12-11 21-11h50c6 1 9-1 10-8 8-91 47-167 113-230 52-49 113-79 183-91 84-14 164 0 238 43 83 48 137 120 165 211 6 21 9 43 12 65 1 8 3 11 11 11 15-1 30 0 44-1 23-2 29 13 29 29v169c1 15-2 28-19 32H22c-9-4-17-8-22-18V793zm629 160h52c0-11-1-22 0-32 0-13 12-21 21-14 5 3 7 10 8 16 1 10 0 20 0 30h126V816c-3-1-5-1-7-1-18 0-36 0-54-1-13-1-18-7-19-20-1-9-1-18-2-27-1-12-3-25-5-37-12-1-26 9-31-6-6-19 12-19 23-24-4-12-8-22-12-33-6-15-7-15-21-8-7 4-15 1-19-6s-2-14 4-18c4-3 8-6 14-9-11-14-21-28-32-42-8 7-14 14-20 20-10 9-16 10-23 3-7-6-6-15 3-23 6-6 14-11 20-17l-2-4c-13-11-26-21-40-31-8 9-12 26-27 17-16-9-3-21 0-33-11-4-22-9-33-14-14-5-14-5-19 9-3 8-10 12-18 9-7-2-11-9-9-18 1-4 2-7 4-13-16-3-32-5-47-6-1 0-4 4-4 6v23c0 10-5 16-14 16-8 1-15-5-15-16-1-7-1-15 0-23 0-5-2-7-7-7-11 2-22 2-32 4-14 2-14 2-12 16 2 13-4 20-16 19-9-1-11-9-13-16-1-4-2-9-8-7-14 5-29 12-44 18 4 6 6 11 8 15 2 8 1 14-6 18s-13 3-18-3c-2-3-4-6-5-9-3-5-6-6-10-2-10 8-20 15-30 23-6 4-5 7-1 12 6 5 13 11 18 18 8 8 5 21-7 23-4 1-11-3-15-6-8-6-14-14-23-22-11 15-21 29-32 42 11 8 27 12 19 28-10 18-21 1-34-1-6 16-13 31-20 48 8 2 13 4 19 6 8 3 9 11 6 18-2 7-8 10-15 8-5-1-11-2-18-3-2 22-4 42-6 63-2 16-7 22-24 22-15 1-29 1-44 0-8 0-11 2-11 11v120c0 3 0 6 1 8h126c0-11-1-22 0-33 0-11 9-18 20-14 7 3 9 9 9 16v31h52c2-11-3-28 15-28 20-1 13 18 16 28h55c2-11-3-27 14-28 21-1 14 17 17 28h56v-30c0-12 5-18 14-18 10 0 15 6 15 18v30h52c2-11-4-27 14-28 20-1 15 16 17 28h55c2-11-4-29 16-28 18 1 13 16 15 28zm371-56c-4 10-11 12-21 12-16-1-32-1-48-1 0-8-1-16 0-23 0-2 5-5 8-5 9-1 19 0 30 0v-89h-26c-7 0-10-2-11-9 0-6-3-12-4-19h41c0-19 1-36 0-54 0-1-4-4-7-4-6-1-13 0-20 0-8 0-13-5-13-13-1-8 4-15 13-15 8-1 17 0 28 0 0-19 0-36-1-54 0-1-4-4-7-4-6-1-13 0-19 0-10 0-14-5-14-14-1-9 4-14 14-14 7-1 13-1 20 0 5 0 7-2 7-7 0-15-1-29 0-44 0-7-4-7-9-7h-39c-10-1-16-6-16-14-1-7 7-14 16-14 13 0 26-1 39 0 6 0 9-1 9-8-1-14-1-28 0-42 0-6-2-8-8-8-7 0-14 0-21-1-8 0-12-4-12-12 0-9 3-14 12-15 7-1 15 0 22-1 3 0 6-3 6-6 1-15 1-30 0-45 0-2-3-5-6-6-7-1-14 0-20 0-10-1-14-5-14-14s5-14 14-14h20c5 0 7-2 7-7-1-15-1-29 0-44 0-6-3-7-8-7h-40c-10-1-16-6-17-13 0-8 7-15 17-15 13-1 26-1 39 0 7 0 9-3 9-9-1-14-1-28 0-41 0-6-2-9-8-8h-20c-9-1-13-6-13-14 0-10 4-14 13-14h20c5 0 8-2 8-7 0-32 0-63-1-94 0-1 0-2-1-5-84 91-166 181-249 271l-1-1c5-18 9-35 15-52 0-3 2-6 5-8 77-84 154-168 232-252 13-15 18-15 30 1v883zM625 0c9 5 13 13 15 22 14 65 28 129 43 193 4 15 0 28-4 42-15 56-30 111-45 167-1 3-2 6-3 10-8-3-16-6-22-10-2-2-2-7-1-11 8-33 17-67 26-100 7-25 15-51 20-76 2-11-1-24-3-35-6-28-13-56-19-84-2-8-5-13-14-14-13-3-25-7-38-10-4-1-10 1-13 4-26 26-51 53-75 81-4 4-6 10-8 15-17 62-33 125-50 187-2 8-7 9-13 9-20 0-19 0-14-18 18-65 35-130 53-195 1-4 3-9 6-12 48-53 97-105 145-157 3-3 7-5 10-8h4zm201 417c-29 32-59 65-88 97l-20-20c1-1 3-4 5-6l108-117c4-4 12-8 17-7 8 1 11 10 11 18v331c0 5 1 11-7 11-8 1-10-3-11-9 0-4-1-7-2-10-14-30-10-62-10-93V428v-10l-3-1zm-323-24c-8-1-17-2-26-3 0-3 0-6 1-8l42-156c3-11 9-15 18-12 8 2 12 10 10 19-14 52-29 105-43 158l-2 2zm61 14c-8-2-17-5-26-7 5-19 10-37 15-56 9-33 17-66 26-99 1-1 1-2 1-3 3-10 10-15 18-13s13 11 10 20c-14 51-28 103-42 154 0 1-1 2-2 4zM370 815h-89c-16 0-25-10-25-25 1-81 58-162 154-179s189 42 213 138c3 14 4 30 5 44 1 12-7 20-19 21-20 1-40 1-60 1H370zm211-45c-5-59-65-123-150-118-70 4-122 61-127 118h277z"/></svg>