<svg width="64" height="64" viewBox="0 0 1000 1000" xmlns="http://www.w3.org/2000/svg"><path d="M15 1000C339 666 661 333 985 0v1000H15zm458-195h323V472L473 805zm425-471c-4-7-7-13-10-16-26-27-52-53-77-80-10-9-19-10-27-2s-7 18 2 28c14 14 28 29 42 43 12 13 24 25 36 37 6 6 13 9 20 5 5-4 9-10 14-15zM432 603c-5 4-11 7-14 13-5 7-2 15 4 22l79 80c8 9 18 9 26 2 7-8 7-19-2-27l-78-81c-3-4-8-5-15-9zm-98 311c5-4 12-7 14-13 5-7 2-15-4-21-26-27-52-54-79-81-8-9-19-9-26-1-7 7-7 18 1 26 27 28 53 55 80 82 3 3 8 5 14 8zm379-397c-1-2-2-7-4-10-27-28-55-56-82-84-4-3-12-5-17-4-13 3-17 19-8 29 27 29 54 56 82 84 1 2 2 3 4 3 12 7 26-2 25-18zm-156 91c-3-6-4-11-6-13-15-17-30-33-46-48-7-7-17-6-23 1-7 6-8 17-1 24 15 16 30 33 46 47 4 4 13 4 18 2s8-9 12-13zm181-187c-2-6-3-10-5-12-15-17-31-34-48-50-6-6-16-4-22 2s-8 16-2 23c16 17 32 33 49 49 3 3 12 3 17 1s8-9 11-13zM617 545c-3-6-4-11-7-14-14-15-29-31-44-46-7-6-17-6-24 0-6 6-8 17-1 25 15 16 30 32 46 47 4 3 13 4 18 2s8-9 12-14zM435 733c-1-6-2-9-4-11-16-18-32-35-50-52-6-6-15-3-21 3-6 7-8 16-1 22 15 18 31 34 48 50 3 3 12 3 17 1s8-9 11-13zm-60 62c-2-6-3-10-6-13-15-16-30-33-46-48-7-7-17-6-23 1-6 6-8 17-2 23 16 17 31 34 48 49 4 3 13 3 18 1s7-9 11-13zm360-504c-5 4-11 7-14 12-5 8-3 15 3 22 14 14 28 28 42 43 8 8 18 8 26 1 7-7 7-18-1-26-14-15-28-29-42-43-3-4-8-5-14-9z"/></svg>