<svg width="64" height="64" viewBox="0 0 1000 1000" xmlns="http://www.w3.org/2000/svg"><path d="M456 571c-18-43-36-85-53-128-4-9-7-3-10 0l-122 95c-34 27-71 24-98-10-50-64-101-128-150-192-32-41-11-95 39-105 26-5 46 6 62 26 36 45 72 91 108 137 4 5 7 6 13 1 39-31 79-61 117-93 21-16 43-28 67-36 70-22 138-45 207-67 40-13 74 3 87 42 26 78 51 156 77 234 9 29 0 57-24 73-22 17-52 17-74 1-13-9-21-21-25-35-18-55-37-110-54-164-3-8-5-10-12-7-30 10-59 20-89 29-6 2-8 4-5 11 49 119 98 238 158 352 6 10 11 21 16 31 2 5 5 7 10 7 36-3 72-5 108-8 40-2 81-5 121-6 34-1 61 25 63 59s-22 64-55 68c-34 3-68 5-102 7l-173 11c-33 2-55-13-69-41-26-55-53-108-79-163-4-6-7-7-13-6-56 13-111 25-166 37-7 2-10 5-12 11-25 70-50 140-76 211-11 30-33 47-62 47-42 0-74-40-62-80 12-39 27-77 40-115 18-49 35-97 53-146 9-24 25-39 51-45 61-13 121-27 181-40 2-1 5-2 7-3zm1-443c-3 72-60 128-130 125-74-3-126-65-123-135C208 51 268-3 338 0c66 3 121 62 119 128z"/></svg>