<svg width="64" height="64" viewBox="0 0 1000 1000" xmlns="http://www.w3.org/2000/svg"><path d="M910 549c-26-28-57-44-93-55-10-3-12-8-10-17 6-21 4-42-2-62-23-70-66-102-142-70-17 7-32 19-49 27 17-31 40-55 74-67 13-5 11-8 3-17-141-153-376-147-508-4-47 51-72 110-80 178-1 8-2 16 8 21 95 53 190 108 292 147 50 19 101 35 156 32 11 0 16-4 16-16 2-59 1-118-13-176-24-97-76-172-170-212-4-1-7-3-9-5-5-3-6-7-4-12 1-7 6-5 11-4 13 0 23 9 34 15 74 37 127 93 158 170 27 67 38 137 39 209 0 14 3 17 17 12 50-20 93-50 130-89 3-3 5-11 12-7 5 4 6 9 6 15-2 10-7 18-12 25-32 38-73 64-115 90-30 19-63 24-97 22-79-7-154-29-224-66-75-39-145-88-218-131-31-19-32-19-51 14 0 1-1 2-1 3-9 18-7 29 10 40 13 9 28 16 43 21 114 37 221 89 322 154 45 29 92 55 143 72 63 22 126 29 189-2 61-31 110-76 146-135 25-42 22-84-11-120zm-143-41c-15 19-38 20-55 2-27-29-27-96 0-125 16-18 41-17 56 2 14 18 19 38 18 60 1 23-4 44-19 61z"/></svg>