<svg width="64" height="64" viewBox="0 0 1000 1000" xmlns="http://www.w3.org/2000/svg"><path d="M536 786c0-24 0-49-6-71-6-19 1-30 13-43 56-54 111-110 166-165 5-4 6-7 2-13-39-67-39-134-1-202 1-1 2-2 3-5-10 5-19 10-28 14-81 38-185 9-235-65-3-5-3-7 1-12 53-53 105-106 159-158 66-63 144-81 230-54 83 26 136 85 154 171 17 78-3 148-59 205-127 129-255 256-382 383-5 5-10 11-15 16l-2-1zm234-478c43 0 78-34 79-78 0-43-36-78-79-78-42-1-78 34-78 77 0 44 34 79 78 79zM244 542c48 4 92 20 129 51 57 46 86 106 85 179-1 132-110 234-241 228-111-6-204-94-215-204-8-74 16-138 68-190l289-289c23-23 57-16 66 13 4 15 0 29-11 40L258 525c-5 5-10 10-16 14l2 3zM76 771c2 87 71 154 156 153 85-2 152-72 151-158-2-84-73-150-158-148-82 1-150 71-149 153z"/></svg>