<svg width="64" height="64" viewBox="0 0 1000 1000" xmlns="http://www.w3.org/2000/svg"><path d="M913 561c-27-33-62-51-101-64-9-4-13-7-15-17-32-132-105-232-234-282-113-43-224-29-325 39-80 54-126 131-135 228-1 10 1 15 10 20 93 52 185 105 284 144 48 19 97 33 148 35 28 2 31-1 32-29 1-32 0-64-3-96-6-56-18-111-47-160-32-55-76-98-136-122-7-3-16-5-12-14 4-10 12-4 19-3 2 1 3 2 5 2 85 37 146 97 181 183 26 65 36 132 38 201 1 25 1 25 24 15 46-19 86-47 120-83 4-4 7-13 15-9 8 5 7 14 5 22-5 12-13 23-22 32-29 28-63 50-97 72-38 25-79 29-122 24-78-9-150-34-219-71-74-40-143-87-215-131-16-9-24-8-33 7-24 34-21 47 17 66 6 3 12 6 18 8 76 28 152 54 223 94 56 32 111 66 167 98s115 56 190 56c27 1 60-6 91-24 55-30 100-71 135-125 26-41 26-78-6-116z"/></svg>