<svg width="64" height="64" viewBox="0 0 1000 1000" xmlns="http://www.w3.org/2000/svg"><path d="M998 403c-7-44-30-77-69-97-27-15-56-19-86-16-29 2-55 12-78 30-1 2-3 2-6 4v-32h-68v32c-28-26-60-37-96-35s-68 15-91 44c-26-26-41-34-77-40-28-5-56-5-85-2-25 3-48 10-67 26-3 2-4 2-7 1-10-5-19-10-29-14-40-15-81-18-123-13-20 3-39 9-56 20-41 26-51 81-21 117 16 20 39 29 64 33 22 3 44 4 66 6 12 1 24 3 35 5 11 3 18 10 20 21 2 12-2 21-11 28-7 5-14 9-22 11-33 8-66 5-99-7-16-6-31-15-45-27-15 13-31 27-47 40l3 3c20 16 43 28 67 37 34 12 70 15 106 12 25-2 49-8 71-20 6-3 12-7 18-11 18 14 30 21 47 26 28 8 56 8 85 4 19-2 37-9 50-26 0-1 1 0 2-1v30h69v-29c59 40 116 38 173-5v35c-1 22-12 38-30 48-21 11-44 14-67 9-19-3-34-12-49-25-18 13-36 25-53 37l4 4c56 47 118 57 186 32 36-14 61-39 72-77 6-18 6-38 6-57v-8c71 59 183 39 232-16l-45-33c-1 0-2 1-2 2-32 23-67 32-106 25-29-5-47-22-52-50-1-4 0-9-1-15h212c0-1 1-3 1-4 0-20 3-41-1-62zM446 512c-4 14-14 21-28 24-27 4-54 5-80-1-8-2-16-6-22-11-16-14-13-38 5-49 12-7 25-9 39-10h85c1 0 2 1 4 1 0 15 2 31-3 46zm-3-98c-29-1-58 0-88-1-23 0-46 3-67 14-7 4-12 8-19 12-24-22-55-26-86-28-21-1-41-3-62-5-5 0-9-2-14-4-24-10-19-37-4-47 8-6 17-8 27-10 39-5 75 4 108 24 1 1 3 1 4 2 10-10 19-20 29-29 10 10 20 19 29 27 12-6 23-13 35-18 18-7 38-8 57-6 11 1 22 2 32 5 18 5 25 15 25 33v24c0 5-1 7-6 7zm248 25h-1v41c-1 19-12 32-27 42-29 17-71 14-97-7-13-11-18-26-18-42-1-24-1-48 0-72 0-15 6-27 18-36 28-20 57-24 88-11 24 10 37 28 37 55v30zm255-22H787c0-27 9-49 32-64 32-20 78-16 105 8 15 13 25 38 22 56z"/></svg>