<svg width="64" height="64" viewBox="0 0 1000 1000" xmlns="http://www.w3.org/2000/svg"><path d="M926 477l-107-81 39-128c3-9 1-18-4-25s-14-12-22-12l-135-2-44-127c-2-9-9-15-18-18-8-3-18-1-25 4l-110 77-110-77c-7-5-17-7-25-4-9 3-15 9-18 18l-44 127-134 2c-9 0-18 5-23 12s-7 16-4 25l39 128-107 81c-7 6-11 14-11 23s4 18 11 23l107 81-39 128c-3 9-1 18 4 25 5 8 14 12 23 12l134 3 44 127c3 8 9 15 18 17 8 3 18 2 25-3l110-77 110 77c5 3 11 5 16 5 3 0 6-1 9-2 9-2 15-9 18-17l44-127 134-3c9 0 18-4 23-12 5-7 7-16 4-25l-39-128 107-81c7-5 12-14 12-23s-5-17-12-23zm-601 43c-11-6-21-13-28-23-7-9-13-19-16-31-4-12-6-24-6-37s2-25 6-37c3-12 9-23 16-32 7-10 17-17 28-23 12-5 25-8 41-8 15 0 28 3 40 8s21 13 28 23c8 9 13 19 17 32 3 12 5 24 5 37s-2 25-5 37c-4 12-9 22-17 31-7 10-17 17-28 23s-25 8-40 8c-16 0-29-3-41-8zm94 145c-11 2-21 3-31 3-11 0-22-1-34-3l227-331c10-2 21-3 33-3 9 0 20 1 32 3L419 665zm300-56c-3 12-9 23-16 32-8 9-17 16-29 22-11 6-24 8-40 8-15 0-29-2-40-8-12-6-21-13-28-22-8-9-13-20-17-32-3-12-5-24-5-37s2-25 5-37c4-12 9-23 17-32 7-9 16-17 28-22 11-6 25-9 40-9 16 0 29 3 40 9 12 5 21 13 29 22 7 9 13 20 16 32 4 12 6 24 6 37s-2 25-6 37zM391 469c5-10 8-24 8-40 0-17-3-31-8-40s-14-15-25-15c-12 0-20 5-25 15-5 9-8 23-8 40 0 16 3 29 8 40 5 10 13 15 25 15s19-5 25-15zm243 48c-11 0-19 5-25 15-5 10-8 23-8 40s3 30 8 40 14 15 25 15c12 0 20-5 25-15 6-10 8-23 8-40s-2-30-8-40c-5-10-13-15-25-15z"/></svg>