<svg width="64" height="64" viewBox="0 0 1000 1000" xmlns="http://www.w3.org/2000/svg"><path d="M341 75C238 45 117 107 80 208c-26 72-21 147 2 216 43 126 62 256 89 385 19 86 80 132 166 122 82-10 132-70 120-160-17-131-4-260 4-391 0-45 1-91 0-137-4-83-51-147-120-168zm71 501c-4 19-17 39-41 30-19-7-21-26-12-42 61-103 17-192-39-278-15-23-31-60-55-57-23 3-30 43-41 68-31 72-54 146-46 225 3 34 16 59 52 67 17 3 30 11 21 31-7 17-22 24-41 15-31-15-45-45-55-75-11-33-14-68-11-99 0-68 12-130 37-190 9-23 21-45 37-65 39-48 55-52 97-5 95 107 127 234 97 375zm508-368C884 107 762 45 659 75c-69 21-116 85-120 168-1 46 0 92 0 137 8 131 21 260 4 391-12 90 38 150 120 160 86 10 147-36 166-122 27-129 46-259 89-385 23-69 28-144 2-216zm-75 352c-10 30-24 60-55 75-18 9-33 2-41-15-9-20 4-28 21-31 36-8 49-33 52-67 8-80-15-153-46-225-10-25-18-65-41-68-24-3-40 34-54 57-56 86-100 175-40 278 9 16 8 35-12 42-24 9-36-11-40-30-30-141 1-268 97-375 41-47 57-43 97 5 16 20 27 42 37 65 24 60 37 122 36 190 3 31 0 66-11 99z"/></svg>