<svg width="64" height="64" viewBox="0 0 1000 1000" xmlns="http://www.w3.org/2000/svg"><path d="M906 400c-13-8-19-16-17-31 2-22-8-35-30-42-92-33-185-67-277-100-13-4-31-4-44 0-77 27-154 55-231 83-25 10-50 16-77 15-18 0-38 3-56 7-47 11-85 32-80 98 1 9-5 20-11 27-26 27-28 66-1 91 16 15 21 30 21 51 0 41 13 64 53 77 31 9 64 10 96 16 7 2 16 5 18 10 10 25 29 42 54 49 37 10 76 17 113 25 38-7 74-12 109-21 25-7 46-22 60-45 5-9 14-18 23-21 72-27 144-53 216-79 52-18 52-18 51-74 0-12 3-21 14-30 38-30 37-79-4-106zm-757-23c31-18 66-19 101-20 14 0 28-1 40-5 86-30 170-62 256-92 7-3 17-4 24-1 92 32 185 66 277 99 1 1 2 2 6 5-56 21-110 40-164 60l-102 36c-9 3-15 6-16 18-2 20-18 32-35 36-29 8-59 17-89 18-33 1-66-6-99-10-10-1-20-7-29-12-29-15-33-33-18-58-30 0-61 2-92-1-20-2-41-8-60-17-28-14-27-40 0-56zm734 106c-28 11-59 16-88 21-12 2-23 2-31 13-4 5-10 9-16 11-17 5-29 14-36 32-9 20-23 17-40-6-31 17-62 34-94 51-2 1-6 2-8 5-15 33-47 36-77 41-11 2-19 5-25 15-17 25-39 24-57-1-5-8-15-14-23-17-29-10-59-19-88-28-5-2-11-4-14-8-16-21-40-19-62-25-21-5-42-12-55-32-2-5-11-6-17-8-13-6-28-11-41-18-12-7-18-18-13-36 38 48 90 53 143 53 12 0 17 5 24 15 11 15 25 32 41 40 83 36 167 36 250 0 18-7 29-28 44-42 6-5 12-12 20-14 75-28 151-55 227-83 16-6 31-17 47-26 15 16 14 36-11 47z"/></svg>