<svg width="64" height="64" viewBox="0 0 1000 1000" xmlns="http://www.w3.org/2000/svg"><path d="M834 751c-67-66-133-133-199-199-5-5-10-8-16-8-5 0-10-1-15-1 35-46 25-106-8-139-32-32-92-44-138-8 0-1-1-2-1-3-1-6-1-12-2-17 0-3-2-5-3-6-68-68-135-136-203-204-1-1-2-1-4-3-1 1-1 3-2 4-59 59-118 117-177 176l-3 3v2c1 0 2 1 3 2 67 68 135 135 202 202 2 3 5 4 8 4 6 1 13 2 20 2-19 25-26 52-22 82 4 23 14 42 30 57 19 19 41 29 67 30s50-7 71-23c0 7 1 13 2 20 0 3 1 6 4 8 67 68 134 135 202 202 1 1 1 2 2 4h2c1-2 2-3 3-4l177-177c1-1 2-1 3-2v-2c-1 0-2-1-3-2zM404 449c-18 19-37 38-55 56-1 1-3 2-5 1-14-1-29-3-44-5-2 0-4-2-5-3-39-38-77-77-115-115-11-11-22-22-34-33-1-1-2-2-3-2l104-104c0 1 1 2 2 3l148 149c2 1 3 4 3 6 2 15 4 29 6 44 0 1-1 2-2 3zm249 407c-1 0-1-1-2-2-50-50-100-99-149-149-2-2-3-4-3-6-2-14-4-28-5-42-1-3 0-5 2-6l54-54c2-2 3-3 6-3l43 6c1 0 3 1 4 2l150 150c1 0 2 1 2 2L653 856zm284-406c-2-28-6-56-14-83-20-73-57-136-112-189-70-68-155-105-252-114-5-1-10-1-14-2h-20v57c98 2 182 36 251 105s103 154 105 251h57v-20c-1-1-1-3-1-5zm-185 25h57c1-61-22-150-98-215-54-46-116-68-186-69v57c63 1 117 23 161 67s65 98 66 160z"/></svg>