<svg width="64" height="64" viewBox="0 0 1000 1000" xmlns="http://www.w3.org/2000/svg"><path d="M779 441c-28 0-57 7-85 24-15 9-32 17-50 24 2 9 4 18 7 27 4 14 9 29 13 43 2 7 0 13-4 17-5 6-13 9-21 9-9 0-17-3-20-12-7-23-15-46-20-69-30 8-62 14-94 16-12 25-18 52-20 79 0 12-13 19-25 19-9 0-17-3-21-10-1-2-2-5-2-9 1-17 4-34 8-50 2-10 5-20 9-29-30-2-60-7-88-15-15 20-24 43-33 65-4 10-14 14-23 14-7 0-14-2-19-6s-8-10-5-17l12-30c2-3 3-6 4-9 2-4 4-7 6-11 4-8 9-15 14-23-12-5-23-11-33-18-24-15-52-22-80-22-48 0-96 19-122 50-21 24-28 51-23 77 2 15 8 29 17 42 11 16 26 31 45 43l3 2c101 63 222 91 344 91 147 0 295-41 410-109h1c16-10 28-20 37-31 8-11 13-23 15-34 13-66-66-138-157-138zm-370-36c18-16 24-35 19-58-6-26-27-48 1-68 17-12 0-41-17-28-21 15-36 34-31 61 5 24 27 49 4 70-16 14 8 38 24 23zm84 0c18-16 24-35 19-58-5-26-27-48 1-68 18-12 1-41-17-28-21 15-36 34-31 61 5 24 27 49 5 70-17 14 7 38 23 23zm85 0c18-16 24-35 19-58-6-26-27-48 1-68 17-12 0-41-17-28-21 15-36 34-31 61 5 24 27 49 4 70-16 14 8 38 24 23z"/></svg>