<svg width="64" height="64" viewBox="0 0 1000 1000" xmlns="http://www.w3.org/2000/svg"><path d="M2 502V92C2 25 23 3 93 3c31 0 62 2 93 0 25-2 30 8 29 30-1 75 1 149 0 223-1 25 6 33 32 33 169-1 338-2 507 0 26 0 32-10 31-34-1-68-1-136 0-204 0-16-9-40 8-45 22-6 51-13 72 6 42 39 82 81 124 122 11 11 9 24 9 37v752c0 50-27 76-77 77H85c-59 0-84-27-84-85V502h1zm493 426v1c109 0 217-1 325 0 24 0 37-1 37-32-2-144-1-288-1-431 1-26-6-37-34-36-215 1-429 1-644 0-28-1-35 10-35 36 1 143 1 287 0 431 0 25 7 32 33 32 106-2 213-1 319-1zm218-816c0 108 0 107-109 105-23-1-35-4-34-31 2-52 2-104 1-156-1-21 7-27 27-28 115-5 115-5 115 110zM495 572c-81 0-162 0-244 1-24 0-39-2-37-33 1-25 3-40 35-40 169 2 338 2 507 1 29 0 29 13 29 35 0 23-1 38-32 37-86-2-172-1-258-1zm10 72h240c23 0 43-3 41 32 0 31-9 41-40 40-166-1-332-2-497 0-29 0-36-9-34-35 1-24 1-38 32-38 86 2 172 1 258 1zm0 142c80 0 159 1 239 0 29-1 41 4 42 37 1 39-19 35-44 35-161-1-322-1-484 0-25 0-44 3-44-35 0-34 14-38 42-37 83 1 166 0 249 0z"/></svg>