<svg width="64" height="64" viewBox="0 0 1000 1000" xmlns="http://www.w3.org/2000/svg"><path d="M1000 627c0-24 0-24-24-24-8 0-10-3-10-10 0-26 1-52-1-77-1-16-9-27-24-33-3-2-6-2-8-6-4-8-9-16-12-25-23-76-46-151-69-227-3-10-8-15-18-17-42-9-84-16-127-16-208-1-416 0-623 0-19 0-36 3-51 14-19 16-26 38-26 62v298c0 16-2 14 13 14 222 1 445 1 667 1 8 0 12 2 11 11-1 7 1 14-11 14l-357-3h-75l-2 2c2 2 4 3 6 4 24 21 39 46 44 78 1 8 5 7 10 7h336c6 0 9-1 10-8 13-79 95-127 169-98 44 17 70 50 79 96 1 6 1 11 9 10 19 0 38 0 56-1 18 0 27-11 28-28v-38zM174 359c0 26-1 51 0 77 0 9-3 14-13 13h-11c-15 2-25 0-29-18-4-14-16-23-32-23s-26 10-33 24c-2 3-3 6-4 10s-1 7-6 7c-6-1-9-3-9-8v-23-137c0-9 3-12 12-12h113c9 0 12 4 12 13-1 26 0 51 0 77zm155 93c-15 0-30 0-46 1-4 0-7-1-8-6-1-1-2-2-2-3-6-11-15-19-27-19-13 0-21 8-27 18-2 3-1 10-8 8-6-2-5-7-5-12-1-51 0-102-1-154 0-9 4-14 13-14 37 1 74 1 111 1 9-1 13 3 13 12v156c0 9-4 12-13 12zm178-15c0 3 0 6-1 8-2 4-7 4-10 5-5 0-5-4-6-6-1-9-5-16-11-22-13-15-32-15-45 0-3 4-7 8-8 13-1 15-11 16-23 15-7-1-14 0-21 0-9 0-12-4-12-13v-78-77c0-9 3-13 13-13 37 1 74 0 112 0 8 0 12 3 12 12v156zm157 14c-12-1-24-1-35 0-7 0-8-3-9-8-2-9-6-18-13-24-12-13-27-13-39 0-7 6-11 15-13 24 0 3 0 8-6 8-5-1-9-3-9-9-1-2 0-5 0-7 0-50-1-99 0-149 0-14 2-16 16-16h105c14 0 16 2 16 15v152c0 10-4 14-13 14zm187 1h-90c-16 0-21-5-21-20V284c0-17 4-21 21-21h29c14 1 23 8 28 21l51 138c0 2 1 3 1 5 4 17-2 25-19 25zM178 603c-56 0-102 46-102 103s45 102 102 102 103-46 103-103c0-51-50-102-103-102zm-1 147c-28 0-43-15-43-43s15-42 43-43c28 0 43 15 43 43s-15 43-43 43zm606-147c-57 1-102 46-102 103s46 103 103 102c57 0 101-44 102-102 1-54-51-104-103-103zm-1 147c-28 0-43-15-43-43s15-43 43-43 43 15 43 44c0 27-15 42-43 42zM104 603H8c-6 0-8 1-8 7v41c0 32 14 44 45 43 6 0 8-1 9-8 3-23 13-45 29-63 6-7 13-13 21-20zm156-278c-26 0-48 23-48 49s22 48 48 48 48-22 48-48c1-26-22-49-48-49zm342-20c-27-1-48 21-48 47s21 48 47 49c26 0 49-23 49-49s-22-47-48-47zm-160 6c-26 0-49 22-49 49 0 26 22 47 48 47 26 1 49-22 49-48-1-25-22-47-48-48zm-343-8c-26 0-48 21-48 47-1 27 21 49 48 49 26 0 47-21 47-47 1-27-21-49-47-49z"/></svg>