<svg width="64" height="64" viewBox="0 0 1000 1000" xmlns="http://www.w3.org/2000/svg"><path d="M768 336H505v50h293l-30-50zM158 569c-48 0-87 39-87 88s39 88 87 88 88-39 88-88-39-88-88-88zm0 126c-20 0-37-17-37-38s17-38 37-38c21 0 38 17 38 38s-17 38-38 38zm347-293s183 201 0 201h-33s-272-24-107-291l27-27h49v-16s-74-31-80 0c-7 31-164 220-164 220-55-13-98 20-134 80 66-20 131-45 183 14 53 59 28 69 405 69 0 0-69-4-24-49h62c-12 15-20 33-20 54 0 49 40 88 88 88 49 0 88-39 88-88 0-21-7-39-19-54h46c100 0-67-201-67-201H505zm252 293c-21 0-38-17-38-38s17-38 38-38 38 17 38 38-17 38-38 38zm156-149h25v47h-25v-47zM345 266l-36-11v47h25l11-36z"/></svg>