<svg width="64" height="64" viewBox="0 0 1000 1000" xmlns="http://www.w3.org/2000/svg"><path d="M873 62c21 22 42 43 62 64 2 3 3 10 1 13-28 56-57 112-86 168-2 4-8 7-12 8-29 7-58 13-87 20-7 1-13 5-18 9-35 35-70 71-105 105-8 8-7 12-1 20 11 17 22 34 32 52 6 10 4 18-5 26-18 17-35 34-51 52-11 12-23 14-36 6-9-6-15-5-23 3-9 10-19 19-29 28 7 14 14 27 20 39 5 12 4 22-7 31-74 74-147 147-220 222-11 10-21 13-33 6-24-15-50-30-72-48-48-39-90-83-123-135-24-38-24-41 8-73 69-68 137-136 205-205 11-11 20-14 33-7 8 4 17 7 24 12 10 8 16 5 23-3l9-9c14-11 23-23 10-42-5-7-2-15 5-22 19-18 38-37 57-56 7-8 14-10 23-5 20 12 40 24 59 36 3 2 5 4 9 7l9-9c35-34 70-69 104-104 5-5 9-12 10-19 7-28 12-56 19-84 2-6 6-13 11-16 58-30 115-59 175-90zM128 729c2 17 10 29 25 35 16 7 30 3 41-9 51-50 101-101 152-152 17-17 17-38 2-53s-38-15-54 1c-51 51-102 101-152 152-6 7-9 17-14 26zm101 100c2 16 11 30 24 36 16 6 30 2 42-10 51-50 102-101 152-151 16-16 16-39 2-53-15-15-38-16-54 0-51 51-102 102-152 153-7 7-10 16-14 25z"/></svg>