<svg width="64" height="64" viewBox="0 0 1000 1000" xmlns="http://www.w3.org/2000/svg"><path d="M936 592c-1-10-11-7-18-7H734c-5 0-12 3-15-6-9-24-18-49-28-74 17-3 32-6 47-8 42-4 75-21 94-61 11-22 26-41 40-61l3 2v106c0 8 0 15 9 15 10 0 10-8 10-15v-10-93c0-8 0-13 10-14 9 0 16-6 16-17 0-10-5-16-15-17s-11-7-11-15c1-33 1-66 0-98 0-7 0-15-10-15s-9 8-9 15v100c0 8-1 13-11 11-63-7-128-9-183-47-18-13-38-14-59-10-78 16-157 28-230 63-51 24-102 31-157 29-20-1-32-7-40-25-14-30-29-60-42-90-6-14-15-19-29-19-16 0-32-1-47-3-13-1-17 2-13 15 14 53 27 107 41 160 11 42 29 57 72 63 83 12 167 25 250 38 9 1 10 4 7 12-8 18-15 37-21 55-3 11-8 15-20 15-63-1-126-1-189 0-18 0-23 6-19 22 2 10 10 11 18 13 38 11 76 20 114 31 8 2 15 1 22-2 38-16 77-16 115 0 30 12 58 12 87 0 39-17 78-16 116 0 29 12 58 12 87 0 34-15 69-15 104-4 6 2 11 5 17 3 21-8 43-16 63-28 12-7 10-18 8-29zM632 292c12 0 22 1 33 7 15 8 30 16 46 24 11 6 12 12 7 23-10 19-22 34-46 26-21 7-30-3-34-22-3-16-9-30-15-45-4-10-1-12 9-13zm-205 71c-2-10 2-18 13-22 34-15 70-24 107-31h1c16-3 30-10 46-9 8 22 16 44 22 66 3 8-5 6-9 6H445c-7 0-17 2-18-10zm48 223c-14-1-32 6-40-4-5-5 7-24 11-37 15-39 15-39 57-39 50 0 99 0 149-1 11 0 17 3 21 14 7 22 16 43 24 67H475zm414 134c-9-1-19-3-28-7-40-17-79-16-120 1-26 11-54 11-81 0-41-17-81-18-122 0-27 11-55 9-83 0-14-5-28-11-43-13-26-3-50 3-73 12-29 11-58 11-88 0-14-5-28-10-44-12-30-4-56 7-84 16-10 4-25-1-29 8-5 9-1 22-1 33h-1c0 10 1 19 0 29 0 8 3 10 10 9 17-3 32-7 47-13 30-11 59-12 88 0 39 16 78 16 117 0 28-12 56-12 84 0 40 16 80 16 120-1 27-11 54-11 81 0 41 17 82 17 123 0 26-11 52-9 78-1 16 5 32 11 49 14 12 2 14-2 14-13-1-15-1-31 0-47 1-11-4-14-14-15z"/></svg>