<svg width="64" height="64" viewBox="0 0 1000 1000" xmlns="http://www.w3.org/2000/svg"><path d="M732 632c-11-28-28-52-45-75-24-33-23-69 3-100 5-5 6-11 2-17-6-8-12-17-17-26-3-5-6-11 0-15 11-8 7-15 3-23-4-6-8-12-11-18-9-17-6-25 12-32 16-7 18-11 6-25-9-11-8-15 1-25 8-8 8-15-1-23-11-9-22-18-32-27-15-12-18-22-9-39 5-10 2-15-7-19-10-4-20-7-30-10-25-9-29-19-17-42 2-4 5-8 2-12s-8-4-12-3c-14 1-27 4-41 3-15-1-26-9-29-23-1-7-1-15-8-18-9-3-14 4-20 9-6 6-11 12-17 18-6 5-12 10-19 14-9 5-17 4-24-4-9-10-13-9-16 3-3 11-5 23-9 34-4 13-9 14-21 9-3-2-7-5-11-1-2 2-1 7 0 11 2 10 7 19 7 30-1 5-1 11-7 12-13 4-11 11-5 19 2 3 4 6 6 8 4 7 4 11-4 15-36 15-42 59-11 83 8 6 5 9 0 14-15 14-32 24-51 30-7 2-13 3-21 1-17-4-26 4-26 22 0 20 7 36 19 51 9 10 19 21 34 18s17-17 21-29v-1c4-23 16-41 32-56s34-25 56-20c30 7 60 0 89 4 13-6 27-11 39-20-10 41 4 80 6 119 1 23 2 46 6 68 5 23 13 43 25 63 21 35 48 66 71 99 13 21 26 42 32 66 3 12 2 23-1 35 3-12 0-27-3-39-7-24-18-41-32-61-23-33-49-63-70-97-12-20-21-41-26-64-5-22-5-47-6-70-2-39-16-72-6-113-12 9-22 8-34 14 17 13 20 31 17 51l-13 77c-6 42-3 83 16 122 16 33 41 59 71 81 21 17 43 31 61 51 10 11 19 22 20 38h1-1c1 3 2 18-4 31l-1 3c-8 21-19 40-34 56-14 17-32 27-55 23-35-7-59-35-64-75-3-28 15-57 39-64 23-6 56 13 66 37 6 16 2 25-13 32-15 6-20 4-27-14-4-9-9-10-16-4-10 10-13 22-11 35 2 12 10 20 22 23 17 6 32 3 46-8 25-21 32-66 15-94-17-26-43-34-73-33-59 1-102 61-95 115 5 34 26 55 51 74 51 38 117 29 158-18 32-36 49-79 60-125 12-47 9-94-9-139zM399 315c-6 3-12 5-17 6-20 0-36-14-38-33-2-16 11-34 27-38 5-1 9-1 9 7 0 18 7 33 21 45 7 7 5 10-2 13zm49-3c-33 0-59-26-60-58 0-32 27-59 59-59 33 0 60 27 60 59-1 33-27 58-59 58zm0-86c-18 0-31 14-31 31-1 19 13 33 31 33s32-14 32-32-14-32-32-32zm3 30c-7-1-11-6-11-14s5-11 12-11c8 0 13 5 13 12 0 8-6 13-14 13zm-76 25c-6 0-9 4-9 10 1 5 4 8 9 8 6 0 9-3 10-9-1-5-4-9-10-9z"/></svg>