<svg width="64" height="64" viewBox="0 0 1000 1000" xmlns="http://www.w3.org/2000/svg"><path d="M938 792v3c-3-1-6 1-8 2-16 5-30 13-46 14-18 1-37 2-55-3-14-5-29-6-44-3-15 4-31 6-46 5-26-1-51-7-75-13-3 0-6-2-7-4-6-10-15-10-24-8-5 1-10 1-14 2-4 0-7 1-9 4-6 6-14 10-23 11-18 3-37 2-56 3-46 1-91 2-136 3-7 0-14 0-20-2-12-4-24-8-37-8-2 0-4 1-4-2 0-2 2-2 4-2 6-2 13-4 20-4 25-2 51-3 76-7 32-4 62-13 93-19 4-1 7-2 10-5-4-3-8-4-12-4-55-4-108-10-161-24-28-7-57-15-79-36-3-3-4 1-5 3-5 12-11 24-15 36-5 14-14 20-29 21-43 3-86 8-128 12-15 1-30 4-45 3v-4c10-4 19-10 29-15 22-12 43-24 65-36 10-6 17-14 21-26 8-34 18-68 25-102 3-16 0-31-3-47-7-36-16-71-22-107-3-20-8-39-7-60 1-17 7-33 9-49 1-8 2-15 4-22 2-12-2-20-9-28l-40-43c-4-5-7-11-9-18-2-12 4-20 17-18 9 1 18 3 28 3 13 0 26-1 39-5 18-6 36-6 54 0 13 5 27 7 40 15 9 6 16 14 20 24 8 23 16 45 23 69 5 18 16 34 27 50 24 33 46 67 65 103 13 25 32 43 57 54 56 24 104 60 145 104 16 18 33 36 45 57 10 17 18 36 23 55 3 8 3 16 1 25-2 5 0 7 4 9 16 7 33 11 50 14 23 6 46 12 70 16 21 3 43 5 65 2 13-2 26-1 39 2z"/></svg>