<svg width="64" height="64" viewBox="0 0 1000 1000" xmlns="http://www.w3.org/2000/svg"><path d="M801 704c-8-7-9-20-3-29 44-68 70-148 70-235C868 201 673 6 434 6S0 201 0 440s195 434 434 434c93 0 179-30 250-80 8-6 21-5 28 2l155 155 3 3c2 1 10 8 17 16l18 17c7 8 19 8 27 0l62-62c8-8 8-20 0-27L801 704zm-105-62c-14 19-30 36-48 51-58 49-133 79-214 79-183 0-332-149-332-332s149-331 332-331 331 148 331 331c0 76-26 146-69 202zM539 366c5-5 8-14 9-25 1-7 1-13-1-18-2-9-6-22-5-33 4-35-9-54-21-64-8-7-21-17-28-25-17-16-52-36-104-5-10 6-25 18-34 29-12 13-21 33-24 62-2 11-11 23-15 33-2 5-2 12-2 21 1 12 5 21 11 26 7 8 19 17 24 26 19 34 49 59 83 59 35 0 65-25 83-59 5-9 18-19 24-27zm-190-48v-10c0-6 9-10 19-10 45-2 76-18 97-35 8-6 20-7 26 2 8 11 14 22 19 33 4 10 6 27 4 37-7 49-41 98-82 98-46 0-83-63-83-115zm62 171c0-1 1-2 1-3 1-2 2-3 2-4h-1l-33-28c-8-7-21-10-29-9l-15 4c-49 11-84 53-84 101v63c0 12 11 22 24 22h104c11 0 21-8 23-19l12-70c2-10-3-18-7-23-2-3-3-7-2-11l5-23zm101-44c-8-1-21 2-29 9l-33 28h-1c0 1 1 2 2 4 0 1 1 2 1 3l5 23c1 4 0 8-2 11-4 5-9 13-7 24l12 69c2 11 12 19 23 19h104c13 0 23-10 23-22v-63c0-48-34-90-84-101 0 0-6-2-14-4z"/></svg>