<svg width="64" height="64" viewBox="0 0 1000 1000" xmlns="http://www.w3.org/2000/svg"><path d="M800 704c-7-8-8-20-3-29 45-68 70-148 70-235C867 201 673 6 434 6S0 201 0 440s195 434 434 434c93 0 179-30 250-80 8-6 21-6 28 2l155 155 3 3c2 1 9 8 17 15l18 19c7 7 19 7 26 0l64-64c7-7 7-19 0-26L800 704zm-104-62c-14 19-30 36-48 51-58 49-133 79-214 79-183 0-332-149-332-332s149-332 332-332 331 149 331 332c0 76-26 146-69 202zM541 385c-3-3 1-11 8-18l69-69c7-7 11-14 9-17s-10 2-17 10l-69 69c-8 7-16 11-18 8s1-10 9-17l69-69c7-8 11-16 8-18s-10 2-17 9l-69 69c-7 7-16 11-19 8s1-11 8-18l72-67c7-7 11-15 9-17s-10 1-19 7l-76 59-4 4c-8 8-13 17-15 27s-1 27-4 37c-1 5-3 9-4 13-4 10-16 11-23 4-110-105-173-130-201-135-10-1-19 1-21 2s3 9 11 16c29 30 102 103 157 158 8 7 8 19 0 26-39 39-130 131-130 131-9 8-9 22 0 31 8 8 22 8 30 0l131-131c7-7 18-8 25-1l11 11c11 11 116 115 116 115 8 9 22 9 31 1 4-5 6-10 6-16 0-9-12-21-19-28-20-20-56-57-76-77-7-7-21-16-29-22-7-4-13-10-18-17-5-9 0-24 8-31 13-10 30-18 51-18 14 0 28-5 39-14l1-1c1-1 7-8 13-16l52-66c7-8 10-16 7-19s-10 2-17 9l-66 70c-8 8-16 12-19 9z"/></svg>