<svg width="64" height="64" viewBox="0 0 1000 1000" xmlns="http://www.w3.org/2000/svg"><path d="M887 684c-5-5-6-14-2-20 25-39 39-84 39-134 0-138-112-250-250-250S423 392 423 530c0 139 113 251 251 251 53 0 102-17 142-45 6-4 15-4 20 2l88 87c1 1 1 2 2 2l11 11 7 7c6 5 14 5 19 0l33-33c5-5 5-14 0-19L887 684zm-62-37c-8 11-17 21-27 30-34 28-77 45-124 45-106 0-192-86-192-192s86-191 192-191c105 0 191 86 191 191 0 44-15 85-40 117zM188 333h-61c-8 0-13 6-13 13v343c0 7 5 13 13 13h61c8 0 14-6 14-13V346c0-7-6-13-14-13zm141-144h-62c-7 0-13 6-13 13v490c0 7 6 13 13 13h62c7 0 13-6 13-13V202c0-7-6-13-13-13zm275 0h-62c-7 0-13 6-13 13v65c0 7 5 10 12 7 20-9 41-16 63-21 7-1 13-8 13-15v-36c0-7-6-13-13-13zM464 313c-16-1-45-1-61-1-8 0-13 6-13 13v94c0 7 2 7 5 1 17-38 42-71 72-98 6-5 4-9-3-9zM47 743V165c0-8-6-14-13-14H13c-7 0-13 6-13 14v625c0 7 6 13 13 13h498c7 0 8-3 1-6-15-10-29-20-43-32-5-5-15-9-23-9H60c-7 0-13-6-13-13z"/></svg>