<svg width="64" height="64" viewBox="0 0 1000 1000" xmlns="http://www.w3.org/2000/svg"><path d="M173 512c5 0 10 1 15 1h625c5 0 11-1 16-1 16-3 28-15 28-31V336c-1-16-12-28-29-30-5-1-10-1-14-1H187c-5 0-10 0-14 1-17 2-29 14-29 31v143c0 17 12 29 29 32zm598-133c16 0 29 13 30 29 0 16-13 30-30 30-16 0-28-13-29-29 0-16 13-29 29-30zm-554-1h407v61H217v-61zm-44-109c5 1 11 1 16 1h623c5 0 10 0 15-1 18-2 29-14 30-31V95c0-18-12-30-29-32-5 0-10-1-15-1H187c-5 0-10 1-15 1-16 2-28 15-28 31v145c0 16 12 28 29 30zm599-132c16 0 29 14 28 30 0 16-13 29-30 28-16-1-28-14-28-30 1-16 14-29 30-28zm-555-1h407v61H217v-61zm627 737H540v-8c0-4-3-7-6-7h-8V750h295c22 0 35-13 36-32V575c-1-17-11-28-27-32-5-1-11-1-16-1H187c-5 0-10 0-14 1-18 3-29 15-29 33-1 47 0 94 0 141 0 16 10 29 25 32 5 1 11 1 17 1h288v108h-7c-4 0-7 3-7 7v8H157c-7 0-13 5-13 13v24c0 7 6 13 13 13h304v8c0 4 2 6 6 6h67c3 0 6-2 6-6v-8h304c7 0 13-6 13-13v-24c0-7-6-13-13-13zm-73-256c16-1 30 13 30 29-1 17-13 29-30 29-16 0-29-12-29-28 0-17 13-30 29-30zm-554-2h408v62H217v-62z"/></svg>