<svg width="64" height="64" viewBox="0 0 1000 1000" xmlns="http://www.w3.org/2000/svg"><path d="M628 612c-22-3-45-7-68-11-5-1-8-3-9-8-4-16-10-30-19-44-2-5-2-8 1-12l42-60c4-4 3-7-1-10-13-14-27-27-40-41-4-4-7-4-12-1l-58 42c-4 3-7 4-12 1-14-8-29-14-45-18-5-2-7-4-7-9-4-23-8-46-12-70-1-6-3-9-11-9-18 1-37 1-55 0-7 0-9 2-10 9-3 22-7 45-10 67-1 6-3 10-9 12-16 3-31 10-45 18-4 2-7 2-10-1-20-14-40-28-60-43-4-3-6-2-10 1-14 14-27 28-41 42-4 3-4 6-1 10 14 20 27 40 41 60 3 3 4 6 1 10-8 15-15 31-19 47-1 3-2 5-6 6-27 4-54 9-80 13v72c25 5 51 10 77 14 5 1 8 3 9 9 4 15 11 30 19 44 3 5 2 8-1 12-14 19-28 39-42 59-3 4-3 6 1 9 14 14 28 28 42 43 3 3 5 3 9 0 20-14 40-27 59-42 5-3 8-3 13 0 13 8 28 14 44 18 5 1 7 3 8 9 4 26 9 51 13 77h72c5-26 10-51 14-77 1-6 3-8 8-9 15-4 29-10 43-18 5-3 9-3 14 0l58 41c4 4 7 4 12 0 13-14 26-28 40-41 4-4 4-7 0-12-14-19-27-38-41-58-4-4-4-7-2-12 9-13 15-28 19-44 1-5 4-7 9-8 24-4 48-8 71-12 6-1 8-4 8-9-1-18-1-37 0-55 0-8-3-10-11-11zM350 751c-55-1-100-46-100-101s46-101 101-100c56 0 100 45 100 100 0 56-46 101-101 101zm538-447c-4-3-6-5-5-10 2-11 1-23 0-34 0-5 1-8 5-11l45-28c5-2 5-5 3-9-5-13-11-26-16-39-1-5-4-6-9-5l-51 12c-5 1-8 1-11-3-7-10-15-18-24-25-4-3-5-5-4-10 4-17 8-34 12-52 1-4 1-7-5-9-13-5-26-11-38-17-5-1-7-1-9 3-9 15-19 30-28 45-3 5-6 6-11 5-11-1-23-2-34 0-5 1-7-1-10-5-9-14-18-29-27-44-3-5-6-6-11-3-12 5-23 10-35 14-7 2-9 5-7 13 4 17 8 34 12 54 1 2-3 3-5 5-9 7-17 15-24 24-3 5-7 5-12 4-17-4-34-8-50-12-6-2-7 0-9 4-5 13-10 26-16 38-3 6-1 8 4 11 14 9 29 19 43 28 4 3 5 5 5 10-1 11-2 23 0 34 0 5-1 9-6 11-14 9-28 18-43 27-5 3-6 5-4 11 6 12 11 24 15 37 3 6 6 7 11 5 16-4 33-7 49-11 5-1 9 0 12 4 7 10 16 18 25 25 3 2 4 5 3 9l-12 51c-2 6-1 9 5 11 13 5 25 10 37 15 6 3 8 1 11-3 9-15 19-29 28-44 2-4 5-6 10-5 12 2 23 2 34 0 5-1 8 0 10 4l28 45c3 5 6 6 11 4 12-6 25-11 38-16 4-2 6-3 5-9-5-17-8-34-13-51-1-5 0-8 4-11 9-7 18-15 25-25 2-4 5-4 10-3 17 4 35 7 52 12 5 1 7-1 9-5 5-13 10-25 16-37 2-6 1-8-4-11-15-10-29-19-44-28zm-164 49c-42 0-77-36-76-77 0-43 36-77 78-76 42 0 76 35 75 77-1 43-34 76-77 76z"/></svg>