<svg width="64" height="64" viewBox="0 0 1000 1000" xmlns="http://www.w3.org/2000/svg"><path d="M934 485c-6-16-19-23-35-23-23-1-45-1-68-1-5 0-8-1-8-7-8-55-29-105-63-150-4-5-3-8 2-12 15-15 30-30 45-46 17-17 18-40 3-55-16-16-39-16-56 1l-45 45c-5 6-9 6-15 1-44-33-93-53-147-61-7-1-9-3-9-9 0-24 1-48 0-72-1-16-14-30-30-33-25-5-45 12-46 39v66c0 6-1 8-7 9-56 8-106 28-150 62-5 4-8 4-12 0-16-17-32-32-48-48s-39-16-54-1c-16 16-15 39 0 55 16 15 31 30 46 45 6 6 7 9 2 16-33 43-53 92-61 146-1 8-4 9-11 9-24 0-48 0-71 1-20 2-34 19-34 39 1 21 17 36 38 37h70c4 0 7 1 7 6 8 56 29 107 63 152 4 5 3 7-1 11-15 15-30 30-46 45-3 4-7 8-10 13-8 17-3 36 12 48 14 11 35 10 48-3 17-16 34-33 50-49 4-5 7-5 12-1 44 33 94 54 149 62 6 1 8 3 8 9v67c0 15 6 27 20 34 25 14 54-2 56-30 1-24 0-48 0-72 0-5 1-7 7-8 56-8 106-28 151-62 4-4 7-4 11 0 16 16 31 32 47 48 10 9 21 14 35 12 15-3 25-12 30-26 5-16 0-29-10-40-16-16-32-31-48-47-4-4-5-7-1-12 34-44 54-94 63-149 1-7 4-9 10-8 22 0 44-1 66 0 12 0 22-5 30-14 10-12 11-25 5-39zm-270 13c0 14-2 27-5 40 26-1 52 0 78-1 9 0 9 4 8 11-7 33-20 63-38 91-4 7-6 8-12 2-18-19-36-37-55-56-13 22-32 41-54 54 18 19 36 37 55 55 6 6 5 8-1 12-28 18-58 31-91 38-9 2-11-1-11-10v-75c-12 2-25 4-38 4s-26-2-38-5v79c0 4 1 9-6 8-38-7-72-22-103-45 21-21 41-41 62-61-22-14-41-32-55-54-18 19-37 38-56 56-3 4-5 6-9 0-20-29-34-62-40-97-2-8 2-7 7-7h78c-2-11-4-23-4-36 0-14 2-27 5-40h-78c-7 0-10-1-8-9 7-33 20-64 38-92 4-6 7-8 13-1 18 19 36 37 55 55 13-22 32-40 54-54-19-18-37-38-57-56-5-5-4-7 1-11 29-19 60-32 94-39 7-1 9 0 9 8v79c13-3 27-5 41-5 12 0 24 2 35 4v-77c0-8 2-10 10-8 33 7 64 19 92 38 7 5 6 7 1 12-18 17-35 35-52 52-1 1-2 2-4 3 22 13 41 32 55 54 15-16 31-31 46-47 16-16 16-16 28 4 15 25 25 51 31 79 2 11 2 11-9 11-26 0-51 1-77 0 3 12 5 25 5 37zM502 394c-60-1-108 46-108 107-1 57 48 105 106 105 60 0 107-47 107-107 0-57-48-105-105-105zm47 65c-25-7-48-4-70 11-21 15-31 37-32 65-12-15-13-30-11-46 6-28 23-46 50-52 25-6 46 2 63 22z"/></svg>