<svg width="64" height="64" viewBox="0 0 1000 1000" xmlns="http://www.w3.org/2000/svg"><path d="M634 168l-27 8c-11-35-27-59-47-73-15-11-31-15-49-14-4-5-8-9-12-13-20-15-45-18-75-7-89 33-127 149-141 207l-78 24s-19 6-23 11c-5 5-6 21-6 21l-66 512 498 93 39-770c-6-1-11 0-13 1zm-127 39l-86 26c12-44 34-90 76-108 8 23 11 54 10 82zM435 97c18-6 32-6 43 1-57 26-81 91-92 146l-69 22c15-56 50-144 118-169zm48 378c-4-2-8-4-14-6-5-2-11-4-17-6-6-1-13-2-20-3s-15-1-22-1c-7 1-14 2-19 4-6 2-11 5-15 8-4 4-7 8-9 12-2 5-4 10-4 16 0 4 1 8 2 12 2 4 4 8 7 12s8 8 13 12 10 8 17 12c10 6 20 13 29 21s18 17 26 27c7 11 14 23 18 36 5 13 7 27 6 43-1 27-7 49-16 68-10 19-23 33-38 44-15 10-33 16-52 19-19 2-39 1-60-3h-1v-1h-1c-9-2-19-5-27-9s-17-7-25-11c-7-5-13-9-19-14-6-4-11-9-14-14l22-76c4 3 9 7 14 11 6 4 12 8 18 11s14 7 21 10c8 3 15 5 22 6s13 1 18 0 10-3 13-6c4-3 7-7 9-11 2-5 3-10 3-15 1-5 0-10-1-15-2-4-4-9-7-14s-7-9-12-14c-5-4-11-9-18-14-9-7-17-14-24-22-7-7-14-15-19-24s-9-18-12-29c-3-10-4-21-3-33 1-21 5-39 11-56 7-17 17-32 29-45 13-14 28-25 45-34 18-9 39-15 61-18 11-1 21-2 30-2 10 0 19 0 28 2 8 1 16 2 23 4s13 4 18 7l-34 99zm54-278v-10c-1-27-4-49-11-68 7 1 13 3 19 7 16 11 27 34 35 58l-43 13zm258 37s-1-4-3-6-5-1-5-1l-70-6-52-51c-2-2-4-2-7-3l-38 771 270-59-95-645z"/></svg>