<svg width="64" height="64" viewBox="0 0 1000 1000" xmlns="http://www.w3.org/2000/svg"><path d="M830 349c5-8 9-17 12-26 6-15 7-28 1-29-4-1-7-2-9-3-99-28-197-55-295-84-59-18-119-21-180-12-51 8-44-3-42 52 9 183 185 282 326 251 86-19 146-73 187-149zm-169-64c15 4 26 22 22 37s-22 25-37 21-25-21-21-37c4-15 21-25 36-21zM430 520c-15-16-21-26-7-30s9-16-8-30c-67-53-106-123-113-211-2-22-3-39-5-38-2 0-3 0-4 1-65 26-119 68-162 123-3 5-4 12-3 18 5 93 47 166 122 219 8 6 17 11 25 15 14 7 34 1 43-14 6-9 11-18 17-27 3-3 10-6 15-5 28 4 49 29 48 58 0 4 0 9-1 14-1 7 7 4 12-10 3-9 4-18 3-27-2-15-8-26-17-35-16-15-31-26-22-27 5-1 10 0 16 4 25 15 38 37 38 67 1 11-2 22-7 31-7 16 0 21 14 4 9-10 14-23 16-38 3-26-4-46-20-62zM314 721c-10-21-15-43-16-67-1-21-13-45-33-56-77-41-124-106-145-192-5-21-10-35-12-31-2 3-3 5-5 8-20 39-33 80-38 124-11 100 13 190 76 269 4 5 12 9 19 10 31 6 62 5 94-1 15-3 30-7 45-12 20-8 24-33 15-52zm220 79c-2 1-3 1-4 1-65 26-125 16-179-30-3-2-10-2-14-1-16 7-32 15-49 21-26 10-54 14-81 13-22 0-40-2-40-1v1c1 1 2 3 3 4 75 75 166 106 270 104 3 0 8-2 11-4 27-23 54-47 72-78 3-5 5-10 7-15 5-9 6-15 4-15zm118-162c-3-11-6-21-10-31s-10-20-17-28c-11-14-23-18-21-15l4 7c35 66 26 137-25 190-15 16-28 32-36 53-10 24-24 46-43 65-14 16-26 28-24 28s3 0 3-1c78-20 141-62 183-132 14-23 24-49 38-71 38-59 96-85 164-90 2 0 5-1 7-1 4 0-9-7-30-13-60-14-111 2-156 42-16 15-31 14-37-3zm225-398c29 27 28 53-3 78-2 2-4 4-6 5-9 4-14 11-18 18-7 13-6 24-1 23 3 0 6 0 9-1 27-7 50-22 66-45 17-24 18-49 3-73-8-12-18-23-29-32-30-25-65-41-101-55-72-26-146-45-222-57-91-15-183-19-274-3-79 14-153 41-216 93-5 3-9 7-14 11-7 7 3 3 21-8 16-10 31-19 47-26 109-50 223-64 341-54 103 8 201 35 298 71 35 13 70 29 99 55zm-79 337l45-18c20-8 19-20-3-20-44 1-96 21-126 47-16 15-8 22 12 12 21-11 43-18 67-20 2 0 4 0 5-1z"/></svg>