<svg width="64" height="64" viewBox="0 0 1000 1000" xmlns="http://www.w3.org/2000/svg"><path d="M500 0C224 0 0 224 0 500s224 500 500 500 500-224 500-500S776 0 500 0zm0 933C262 933 67 738 67 500S262 67 500 67s433 194 433 433-194 433-433 433zm251-467c-19 0-34 15-34 34 0 120-97 217-217 217s-217-97-217-217c0-19-15-34-34-34s-34 15-34 34c0 157 128 285 285 285s285-128 285-285c0-19-15-34-34-34zM448 346c0 27-22 49-49 49s-49-22-49-49 22-49 49-49 49 22 49 49zm177-42c24 13 32 43 19 66s-43 32-67 19c-23-13-32-43-18-67s43-32 66-18z"/></svg>