<svg width="64" height="64" viewBox="0 0 1000 1000" xmlns="http://www.w3.org/2000/svg"><path d="M847 154H153C69 154 0 223 0 308v384c0 85 69 154 153 154h694c84 0 153-69 153-154V308c0-85-69-154-153-154zM362 543c-2 20-13 33-30 42-12 5-24 8-36 8-22 1-43-1-64-6-1 0-1 0-2-1v-40c4 1 8 3 12 4 13 4 27 6 41 6 7-1 14-2 21-6 5-3 7-9 5-15-1-5-6-8-11-9-6 0-11-1-16-1-13-2-25-6-36-13-13-10-20-23-19-40 0-22 12-40 33-49 14-5 29-7 44-6 15 0 29 2 44 7 2 0 5 1 7 2 0 0 1 1 1 2v38c-7-3-13-5-20-7-13-3-26-6-39-5-5 0-10 1-14 3-5 3-7 7-7 12 1 5 3 9 8 11 4 2 9 2 14 2 17 2 33 5 46 16 15 11 21 27 18 45zm138-77c-7 21-17 40-30 57-2 2-2 3-1 5 10 17 19 35 26 53l3 9v1h-54c-2 0-2 0-3-2-4-16-9-30-17-44 0-1-1-2-1-3l-1-1v50h-47V426c15-3 31-6 46-9v90l1 1c0-1 0-1 1-2 10-12 18-26 24-41 0-1 1-1 2-1h52c0 1-1 2-1 2zm83 34c-3 0-7 0-10 1-12 2-18 8-19 21 0 8-1 16-1 24v45h-45v-1-76c0-13 4-25 13-34 8-8 17-13 28-15 10-3 21-3 31-3 1 0 2 1 3 1v37zm59 91h-43c-2 0-2 0-2-2V466v-2h45v127zm-23-142c-11 0-21-8-22-20v-2c0-2 0-4 1-6v-2l1-1c0-2 1-3 2-5 4-5 11-9 18-9 13 0 23 10 23 23 0 12-10 22-23 22zm88 142h-43c-2 0-2 0-2-2V427c0-2 1-2 2-2l42-8h1v174zm66 0h-45V428c0-2 1-3 3-3 14-3 28-5 41-8h1v174z"/></svg>