<svg width="64" height="64" viewBox="0 0 1000 1000" xmlns="http://www.w3.org/2000/svg"><path d="M710 662c15 8 30 15 46 19 23 6 44-8 48-30 4-23-12-45-36-47h-15c3-3 5-6 7-9 9-14 9-29 0-43-9-15-23-20-39-18-18 3-26 15-32 30-4 13-6 28-8 42-1 5-3 9-8 11-124 63-248 127-371 191-5 2-8 2-12 0-13-6-25-13-38-17-9-3-18-5-28-3-15 3-27 18-28 34-2 19 8 35 25 41 7 3 15 3 24 3-2 3-4 5-6 7-10 14-11 32-2 46s25 21 42 18c17-4 25-17 30-32 4-13 6-27 8-41 1-5 3-8 8-10 124-64 248-128 372-191 5-3 9-3 13-1zM347 463c12 4 25 6 39 8 3 0 5 1 5 5l6 79c0 10 0 10 10 11 31 2 63 4 97 4 12 1 28 0 43-1 16-1 32-3 48-3 7-1 9-3 10-11 1-26 3-52 4-78 0-4 2-6 6-6 10-1 20-3 30-6 23-6 44-17 56-40 17-32 12-74-12-102-2-2-4-5-4-9 2-17 3-33 4-50 1-20 1-40-3-59-20-85-104-146-194-142-44 1-84 17-118 46-40 34-63 77-64 131 0 23 3 46 4 69 1 6 0 11-4 15-34 38-31 117 37 139zm243-171c42 0 75 33 75 75 1 41-33 75-74 75-42 1-76-33-76-75 0-41 34-75 75-75zm-81 207c3-5 8-5 11 0 4 6 4 13 4 20 0 6 0 12-4 18-3 6-8 6-11 0-6-12-6-25 0-38zm-19 0c4 6 5 13 5 20 0 6-1 12-4 18-4 6-8 5-11 0-6-8-6-29 0-38 3-5 7-5 10 0zm-79-207c41 0 74 35 74 76s-35 75-77 74c-41 0-74-34-73-75 0-43 34-76 76-75zM249 680c15-5 28-12 42-18 3-2 6-2 11 0 43 22 86 44 129 67 3 1 5 3 8 1l54-27c-2-3-5-3-7-4-53-28-106-55-159-82-5-2-7-6-8-11-2-16-4-31-10-46-4-11-10-20-22-24-15-6-34-1-44 11-12 14-13 33-3 47 2 3 4 6 7 11-4-1-7-1-9-1-28-2-48 24-41 50 7 24 27 34 52 26zm509 108c-17 4-32 12-48 20-4 2-7 2-11 0-44-23-87-45-130-67-3-1-5-4-9-2-17 9-35 18-53 28l4 3c53 27 105 54 158 80 10 5 14 11 15 21 2 16 5 32 13 47 9 16 27 23 45 17s29-23 27-41c-1-11-7-20-14-29 7 0 12 1 18 0 21-5 35-26 31-47-5-22-24-35-46-30zM403 588c0 10 5 16 14 16 8 0 13-6 13-16 0-15 0-15-16-16-12-1-11-3-11 10v6zm47-14c-13 0-13 0-13 13v2c0 13 4 19 13 19s13-6 13-19c0-14 0-14-13-15zm136-2h-3c-13 2-15 4-13 18 2 6 6 10 12 10 10 1 15-5 15-19-1-11 2-10-11-9zm-116 29c0 7 6 12 12 12 7 1 13-4 14-11 1-4 1-8 1-12 0-14 0-14-14-14-3 0-6 0-9-1-3 0-4 2-4 5v21zm53-25h-15c-3 0-5 0-5 3 0 8 0 16 1 24 1 7 7 11 14 10 6 0 11-5 12-12v-21c0-4-2-5-7-4zm28-2c-14 1-14 1-14 15v7c1 8 7 13 14 12 6 0 12-5 12-12v-10c0-12 0-12-12-12z"/></svg>