<svg width="64" height="64" viewBox="0 0 1000 1000" xmlns="http://www.w3.org/2000/svg"><path d="M937 524l-1-3c-10-30-39-51-72-50-9 0-17 1-25 4l-86 29-56-166c81-28 83-28 83-28 35-12 64-48 52-89l-1-3c-11-31-39-51-73-51-7 0-15 1-23 3l-85 29-29-84c-6-20-20-36-38-45-11-5-23-8-35-8-8 0-16 2-24 4-38 13-60 55-49 94l1 3 29 85-164 55-29-84c-10-32-40-53-73-52-8 0-16 1-24 4-39 13-60 54-49 93 0 1 1 2 1 4l28 83-83 28c-39 13-60 54-49 93 0 1 1 2 1 4 10 30 38 50 71 50 8-1 17-2 25-5 29-10 57-19 83-28l55 164-82 28c-39 13-61 55-50 94 1 2 1 3 2 4 10 30 38 49 71 49 9 0 18-2 26-4l81-28 29 85c11 32 40 53 73 53 9-1 17-2 24-4 39-14 61-55 49-94 0-1 0-2-1-4l-29-86 164-56 29 87c11 32 40 53 74 52 8 0 16-1 23-4 39-13 61-54 49-95v-2l-30-87 91-31s28-13 37-26c12-19 15-43 9-64zm-493 84l-56-164c65-23 119-41 164-56l55 165-163 55z"/></svg>