<svg width="64" height="64" viewBox="0 0 1000 1000" xmlns="http://www.w3.org/2000/svg"><path d="M500 0C224 0 0 224 0 500s224 500 500 500 500-224 500-500S776 0 500 0zm0 933C262 933 67 738 67 500S262 67 500 67s433 194 433 433-194 433-433 433zm142-280c-79 69-204 69-284 0-14-12-36-11-48 3s-10 36 4 48c53 46 119 69 186 69s133-23 186-69c14-12 16-34 4-48s-34-15-48-3zM448 391c0 27-22 49-49 49s-49-22-49-49 22-49 49-49 49 22 49 49zm177-42c24 13 32 43 19 66s-43 32-67 19c-23-13-32-43-18-67s43-32 66-18z"/></svg>