<svg width="64" height="64" viewBox="0 0 1000 1000" xmlns="http://www.w3.org/2000/svg"><path d="M7 327c0-43-2-96-7-160 57 2 154 3 290 3 137 0 233-1 290-3-5 64-7 117-7 160 0 27 1 51 3 72h-21c-11-53-24-94-39-124-14-31-32-53-53-66s-47-20-77-20h-21v537c0 26 2 45 8 57 5 11 15 20 28 24 14 4 35 6 64 7v18c-79-1-138-2-178-2s-97 1-172 2v-18c29-1 51-3 64-7 14-4 23-13 28-24 6-12 8-31 8-57V189h-20c-31 0-56 7-77 20s-39 35-54 65-28 72-39 125H4c2-21 3-45 3-72zm617 174c0-28-1-63-4-105 37 1 101 2 190 2 90 0 153-1 190-2-3 42-4 77-4 105 0 17 0 33 2 47h-14c-7-35-16-62-25-82s-22-34-36-43c-14-8-30-13-50-13h-14v352c0 17 2 30 5 38 4 7 10 13 19 16 9 2 23 4 42 4v13c-52-2-91-2-117-2s-64 0-113 2v-13c19 0 33-2 42-4 9-3 15-9 19-16s5-21 5-38V410h-14c-20 0-36 5-50 13-14 9-26 23-36 43-9 20-18 47-25 82h-14c1-14 2-30 2-47z"/></svg>