<svg width="64" height="64" viewBox="0 0 1000 1000" xmlns="http://www.w3.org/2000/svg"><path d="M831 569c1-149-122-263-260-261-141-2-263 116-262 261 1 146 121 258 260 259 137 0 261-109 262-259zM584 760c-120 0-218-98-214-217 3-125 105-215 224-210 110 5 203 93 204 211 1 128-102 216-214 216zM328 430c2-3 4-7 7-10 23-38 54-68 92-92-49-32-97-63-151-81-9-3-13-7-13-16-2-28-2-55 0-83 0-9 2-17 10-24s7-16 0-24c-8-8-17-9-26-1-8 6-11 16-3 23 10 9 9 20 10 31 1 24 0 49 0 73 0 11-2 15-14 15-20-1-28 7-30 27 0 6-2 8-8 9-33 3-65 2-97-1-5 0-7-2-10-6-7-9-19-10-27-3-7 7-7 20-1 27 8 8 19 8 28-1 3-3 4-6 9-6 26-1 51-2 77-2 22 0 31 9 43 30 1 3 2 6 4 9 20 39 46 74 73 109 15 19 15 19 27-3zm603 419c-23-59-63-107-103-158-27 53-65 93-116 122 43 29 84 56 129 75 22 10 44 19 69 18 19 0 29-12 27-31-1-9-3-17-6-26zM639 376c-88 0-148 62-150 147-2 81 69 149 149 148 80 0 146-67 146-148 4-81-67-148-145-147z"/></svg>