<svg width="64" height="64" viewBox="0 0 1000 1000" xmlns="http://www.w3.org/2000/svg"><path d="M680 178c-2-10-6-21-4-32 3-16 9-29 21-38 2-2 30-22 66-1 17 12 27 39 21 57-6 16-15 29-30 37-5 3-5 9-3 13 5 16 8 33 15 49 3 6 4 9-4 10s-17 7-25 10c-4 1-5 1-8-3-11-18-22-36-31-55-8-15-13-31-18-47zm141 86c10 1 19 1 28 3 9 3 9 0 10-7 0-18 6-36 9-53 1-5 3-10 10-10 17-1 32-8 45-21 15-13 19-43 9-63-23-38-59-33-62-32-16 3-28 12-38 25-7 10-9 21-12 33-4 17-7 34-7 52 0 22 1 44 3 67 0 5 1 6 5 6zm111 184c-10 31-29 57-60 72-3 1-4 4-4 7-1 20-3 41-3 61 0 33-8 65-16 96-8 34-22 66-42 94-17 25-37 47-61 66-21 17-44 30-67 40-11 5-22 9-34 12-113 41-333 16-333 16-27-2-53-5-80-8-31-4-62-9-93-16-26-7-62-7-73-32-2-4-3-13 0-16 2-5 8-6 13-7 19-6 38-9 57-9 13 0 25-3 38-3-10-7-18-16-26-24-13-13-25-27-35-43-6-9-11-18-16-27-56-114-27-220-27-220 5-18 13-37 21-53 13-24 28-47 46-68 16-17 33-33 52-46 23-16 48-30 76-39s56-14 85-15c24-1 48 0 71 5 27 5 54 14 79 28 31 17 59 38 83 64 29 33 52 70 64 113 4 13 9 26 10 41 2 16 3 32 5 48 0-2 2-3 2-4 4-22 11-43 15-65 7-36 10-71 12-107 1-28 9-51 25-73 22-28 50-44 85-48 38-4 71 8 99 35 18 17 30 39 35 64 4 21 4 42-3 61zm-353 93c-5-21-12-41-22-60-15-27-34-51-59-70-34-26-72-42-115-45-19-2-38-2-57 1-23 3-45 11-66 22-43 23-76 55-97 99-20 40-27 82-21 126 4 29 12 57 27 81 18 32 43 58 75 78 18 12 37 19 58 26 19 7 36 2 53-6 11-5 20-12 29-19 25-21 43-47 55-77 8-20 7-40 7-59-2-35-13-65-41-86-22-15-45-21-72-13-16 5-23 25-22 37 3 14 16 24 32 25 12 1 23 4 30 15s10 23 5 35-14 21-28 22c-21 2-41-2-60-13-22-12-38-30-46-54-6-18-6-37-3-55 3-23 14-43 30-58 15-15 33-24 54-28 18-3 36-3 55 0 18 2 34 8 50 17 20 10 37 25 51 43 13 18 23 38 29 60 4 15 8 31 10 47 3 49-9 94-34 137l9-7c22-17 40-36 54-59 16-26 26-53 31-83 5-27 5-53-1-79z"/></svg>