<svg width="64" height="64" viewBox="0 0 1000 1000" xmlns="http://www.w3.org/2000/svg"><path d="M68 702c24-40 56-72 96-96 11-6 18-8 29 2 56 48 155 37 199-21 11-14 17-13 31-4 59 37 121 61 193 45 15-3 27 6 40 11 19 8 30 2 38-15l6-12c22-43 44-55 92-46 15 2 18-1 21-14 4-17 9-34 14-51 2-10 7-19-2-30-7-8-1-17 7-22 7-4 16-3 22 4 7 8 6 16-1 24-17 21-30 56-33 97 0 3 3 4 5 2 28-33 65-51 77-92 3-9 8-16 19-15 10 1 16 7 17 17 0 11-7 16-16 18-36 16-62 45-87 74-7 6 1 11 5 15 22 28 26 58 11 89-15 33-44 48-79 48H93c-9 0-26-2-30-10-2-5 5-18 5-18zm700-69c9-3 16-8 16-18-1-11-9-18-20-16-10 1-16 8-15 18 2 10 8 16 19 16zM329 445c46 14 60 32 62 72 2 44-18 79-55 94-63 26-131 1-163-60-58-112 2-249 120-276 87-20 193 27 242 107 41 66 57 138 62 214 1 15-4 20-19 20-53 0-100-19-144-47-7-4-6-11-7-18-3-30-11-59-29-83-17-23-37-33-69-23z"/></svg>