<svg width="64" height="64" viewBox="0 0 1000 1000" xmlns="http://www.w3.org/2000/svg"><path d="M913 404c-52-111-179-169-296-143-153 34-284 263-128 407-11 17 3 25 13 34 86 84 227 93 326 22 103-73 138-206 85-320zM749 712c-85 45-202 25-258-43 39 16 76 37 119 45 124 21 247-112 210-228-19-58-74-97-133-93-48 3-86 36-95 83-8 44 14 73 51 89 29 13 55 2 72-23 13-20 14-40-2-59-13-13-28-17-45-9-13 6-22 18-16 35 4 11 12 15 23 13 22-4 13-20 11-34 18 8 22 19 12 34-8 11-18 20-33 16-16-6-29-15-30-34-1-29 13-48 41-51 37-5 60 14 67 49 8 34-6 61-35 78-32 20-66 18-97-2-64-41-64-136-2-187 82-67 210-22 247 85 30 88-16 188-107 236zM154 330h1v-1l-1 1zm232 150c-7-38-14-76-31-112-30-63-88-87-153-62-16 7-32 16-47 24-106 149-30 371 151 422 77 22 155 24 246 7-114-65-147-168-166-279zM67 238c-9 12-4 26 6 28 38 7 54 42 81 62-3-41-52-55-58-96-1-7-20-5-29 6zm87 92l1-1c0-1-1-1-1-1v2z"/></svg>