<svg width="64" height="64" viewBox="0 0 1000 1000" xmlns="http://www.w3.org/2000/svg"><path d="M936 267c0-16-1-31-4-47-4-19-9-37-18-54-9-19-21-35-36-49-23-22-49-37-80-45-27-8-55-9-84-9H286c-17 0-33 0-49 2-17 2-35 5-51 11-26 10-49 25-68 45-22 23-38 49-46 80-7 27-9 55-9 83v431c0 19 1 39 4 58 3 20 8 40 18 59 13 25 30 46 52 64 16 12 34 22 53 28 28 9 57 13 86 13h55c134 0 267 1 400-1 18 0 35-2 53-5 33-6 63-20 88-43 29-26 49-58 58-97 5-25 7-51 7-76v-5c0-2-1-437-1-443zM828 668c0 2-1 5-2 7-3 7-10 13-22 19-14 6-36 12-64 16-1 3-3 10-4 15s-2 10-4 15c-2 8-8 13-17 13-4 0-9-1-15-2-10-2-21-4-35-4-8 0-16 1-24 2-17 3-30 13-46 24-24 16-50 35-91 35h-8c-41 0-67-19-91-35-16-12-30-21-46-24-8-1-16-2-24-2-15 0-26 2-35 4-6 1-10 2-15 2-11 0-16-7-17-13-2-5-3-10-4-15s-3-12-4-14c-28-5-50-10-64-17-12-6-19-12-23-19 0-2-1-5-1-7-1-8 5-15 13-16 19-3 38-11 56-22 14-9 27-21 40-35 21-25 32-49 33-51v-1c4-9 5-17 3-23-5-11-23-17-35-21-4-1-7-2-10-3-10-4-19-9-24-14-10-9-10-18-10-23 2-7 7-13 14-18 6-3 13-5 20-5 4 0 8 1 11 2 11 5 21 8 29 8 5 0 9-1 11-2l-1-15c-3-44-6-100 9-133 10-22 23-41 40-57 13-13 29-24 47-32 32-14 61-15 75-15h13c15 0 44 2 75 15 18 8 34 19 48 32 17 16 30 35 40 57 15 33 12 89 9 133v2c-1 5-1 9-1 13 2 1 5 2 9 2 8-1 17-3 27-8 5-2 10-3 13-3 5 0 10 1 15 3 13 5 21 14 21 25 0 4-1 11-8 18-6 5-14 10-26 15-3 1-7 2-10 3-12 4-31 10-35 21-3 6-2 14 3 23v1c2 3 41 93 129 108 8 1 13 8 13 16z"/></svg>