<svg width="64" height="64" viewBox="0 0 1000 1000" xmlns="http://www.w3.org/2000/svg"><path d="M422 297c9-2 18-3 27-3s18 2 27 3V197l92-93-37-37-55 54V62h-54v59l-54-54-38 37 92 93v100zm175 97h-24c2 9 3 18 3 27s-1 18-3 27h24v-54zM476 645V545c-9 2-18 3-27 3s-18-1-27-3v100l-92 93 38 37 54-54v59h54v-59l40 39c-1-5-1-11-1-16 0-20 2-37 6-53l-45-46zM325 448c-2-9-3-18-3-27s1-18 3-27H225l-93-92-37 38 55 54H91v54h59l-55 55 37 37 93-92h100zM140 283l131-1 71 71c10-15 23-28 38-38l-71-71-1-130h-53v77l-42-41-37 38 42 41h-78v54zm416 70l41-41V206c0-41 19-69 46-83l1-9-54-1v131l-72 71c15 10 28 23 38 38zm41 229v-52l-41-41c-10 15-23 28-38 38l66 66c4-4 8-7 13-11zm-255-93l-71 71-131-1v54h77l-41 42 37 37 42-41v77l53 1 1-131 71-71c-15-10-28-23-38-38zm107-165c-53 0-97 44-97 97 0 54 44 97 97 97 54 0 97-43 97-97 0-53-44-97-97-97zm305-66c0-13-2-22-4-29-6-15-18-15-24-15s-17 0-23 15c-3 7-5 16-5 29v195h56V258zm65 343V223c0-44-31-82-73-91-6-2-13-3-21-3-35 0-66 20-82 49-7 13-12 29-12 45v381c-15 10-29 22-41 36-19 23-33 50-39 80-3 12-4 24-4 36v3c1 99 82 178 181 178 12 0 25-1 37-3 82-17 144-90 144-178 0-66-36-124-90-155zm-91 267c-63 0-114-50-114-113 0-3 1-6 1-9 0-6 1-12 3-17 4-18 13-34 25-46 6-6 12-10 18-14 7-4 15-8 23-10V258c0-11 1-20 3-29 1-4 3-7 4-11 4-6 9-12 16-15 6-3 12-4 19-4 33 0 43 26 43 59v399c45 11 68 50 72 89v9c0 62-51 113-113 113zm45-128c3 26-5 50-24 71-15 17 20 33 35 16 22-25 32-56 29-87-2-20-42-20-40 0z"/></svg>