<svg width="64" height="64" viewBox="0 0 1000 1000" xmlns="http://www.w3.org/2000/svg"><path d="M898 552c-5-20-26-32-46-26l-159 42-61-35v-67l61-34 159 42c4 1 7 2 10 2 16 0 31-11 36-28 5-20-7-40-26-45l-88-24 81-46c18-10 24-33 14-51-11-18-33-24-51-14l-81 47 23-88c6-20-6-40-26-46-20-5-40 7-45 27l-43 159-61 35-58-34v-70l117-117c15-14 15-38 0-52s-38-15-53 0l-64 64v-93c0-21-17-38-37-38-21 0-37 17-37 38v93l-64-64c-15-15-38-15-53 0-14 14-14 38 0 52l117 117v71l-58 33-61-35-42-159c-6-20-26-32-46-27-20 6-32 26-26 46l23 88-81-47c-18-10-40-4-50 14-11 18-4 41 13 51l81 46-87 24c-20 5-32 25-27 45 5 17 20 28 36 28 3 0 7-1 10-2l160-42 60 34v67l-61 35-159-42c-20-6-40 6-46 26-5 20 7 40 27 45l87 24-81 46c-17 11-24 33-13 51 7 12 19 19 32 19 6 0 13-2 19-5l80-47-23 88c-5 20 6 40 26 45 3 1 7 2 10 2 16 0 31-11 36-28l42-160 61-35 58 33v72L346 819c-14 14-14 38 0 52 8 8 17 11 27 11 9 0 19-3 26-11l64-64v93c0 21 16 38 37 38s37-17 37-38v-93l65 64c7 8 16 11 26 11s19-3 26-11c15-14 15-38 0-52L537 702v-71l58-34 61 35 43 160c4 17 19 28 36 28 3 0 6-1 9-2 20-5 32-25 26-45l-23-88 81 47c6 3 12 5 18 5 13 0 26-7 33-19 10-18 4-40-14-51l-80-46 87-24c19-5 31-25 26-45zm-340-19l-58 33-58-33v-67l58-33 57 33v67z"/></svg>