<svg width="64" height="64" viewBox="0 0 1000 1000" xmlns="http://www.w3.org/2000/svg"><path d="M816 416c-44-43-97-56-157-34-11 4-15 4-20-8-39-96-128-149-230-137-94 10-167 84-184 184-1 6 0 13-8 16-16 7-29 17-40 29s-78 74-2 159c2 3 5 5 7 8l1 1v-1c18 18 42 29 71 32 30 2 60 0 90 1l259-1c39 0 75 1 110 0 63-2 108-32 134-90 24-54 12-118-31-159zM444 205c-2 4-4 9-6 13 74-2 140 31 182 89 2-3 4-7 6-10 25-50 5-111-45-137-51-25-112-5-137 45zm207 36c-1 6 3 13 8 16 2 1 4 1 7 1 15 0 30-1 45-2 8-1 13-8 13-15 0-8-6-14-14-14-16 0-31 1-47 3-6 0-11 5-12 11zm-62-91c7 4 16 1 20-7l9-19 10-19c4-8 1-16-6-20-8-4-16-1-20 7-7 12-13 25-19 38-4 8-1 16 6 20zm-217 36l20 10 19 9c7 4 15 2 19-5s2-16-5-20c-14-7-27-14-41-20-7-4-16 0-19 7s0 15 7 19zm286 111c-7-4-16 0-19 7-4 7-1 15 7 19l19 10 19 9c8 4 16 2 20-5s1-16-6-20c-13-7-26-14-40-20zm-20-101c4 2 9 2 13-1 13-8 26-16 39-25 6-4 7-13 3-19-4-7-13-9-19-5-13 8-26 16-39 25-8 6-7 20 3 25zm-118-63c11 5 22-2 21-13 0-15-1-29-2-44-1-8-7-14-16-13-8 0-14 7-13 15 0 14 1 29 2 43 1 6 3 10 8 12zm-70 17c1 2 3 4 5 5 7 3 14 2 18-3 5-5 5-12 2-18l-24-36c-5-7-14-9-21-5-7 5-8 13-4 21l24 36zm50 758c0 16-13 30-29 30s-30-14-30-30 14-29 30-29 29 13 29 29zm-20-95c0 8-6 15-15 15s-14-7-14-15 6-15 14-15 15 7 15 15zm233-29c0 16-14 29-30 29s-29-13-29-29 13-30 29-30 30 13 30 30zm-166-35v6l-6-5-4 4 10 9v10h5v-10l10-9-4-4-6 5v-6h-5zm5 50h-3-2v10l-10 10 4 4 6-6v6h5v-6l6 6 4-4-10-10v-10zm-15-10c-1-1-1-2-1-3s0-2 1-2h-11l-9-10-4 4 6 5h-6v6h6l-6 6 4 3 9-9h11zm-19-17h13l7 7 4-4-7-7v-13h-6v8l-4-5-4 4 5 4h-8v6zm20 21l-7 7h-13v6h8l-5 4 4 4 4-4v8h6v-14l7-7c-1-1-3-2-4-4zm44-19l-9 9h-11c1 1 1 2 1 3s0 2-1 3h11l9 9 4-4-6-5h6v-6h-6l6-5-4-4zm-18-19v13l-7 7 4 4 7-7h13v-6h-8l5-4-4-4-4 5v-8h-6zm6 55l4 4 4-4-5-4h8v-6l-13 1-7-8c-1 2-3 3-4 4l7 7v14h6v-8zm-21-34c-5 0-9 5-9 10 0 6 4 10 9 10 6 0 10-4 10-10s-4-10-10-10zm-224-81v13l-13-12-9 8 22 22v23c2-1 4-1 6-1s4 0 6 1v-23l21-22-9-8-12 12v-13h-12zm12 111c-2 0-4 1-6 1s-4-1-6-1v23l-21 22 8 8 13-12v13h12v-13l13 12 9-8-22-22v-23zm-35-23v-6-6h-23l-21-21-9 9 13 12h-14v13h14l-13 12 9 9 21-21h23zm-42-38h30l16 17c3-4 6-7 9-9l-16-17-1-30h-12v18l-9-9-9 8 10 10h-18v12zm46 48l-16 16h-30v13h17l-9 9 8 9 10-10v18h12v-30l17-16c-3-2-6-5-9-9zm107-34l-8-9-22 21h-23c1 2 1 4 1 6s0 4-1 6h23l22 22 8-9-12-13h13v-12h-13l12-12zm-49-53v30l-16 17c3 2 6 5 8 9l17-17h30v-12h-18l10-10-9-8-9 9v-18h-13zm39 103h-30l-17-16c-2 4-5 7-8 9l16 16v30h12v-18l10 10 9-9-10-9h18v-13zm-72-54c-12 0-22 10-22 22s10 23 22 23 22-10 22-23c0-12-10-22-22-22zm249 91v2l-2-2-2 1 4 4v4h2v-4l4-4-2-1-2 2v-2h-2zm3 19l-1 1c-1 0-1 0-1-1v5l-4 3 1 2 3-2v2h2v-2l2 2 2-2-4-3v-5zm-7-4v-1-1h-4l-4-3-1 1 2 3h-2v2h2l-2 2 1 2 4-4 4-1zm-7-6h5l3 3c0-1 1-1 1-2l-2-3v-5h-3v3l-1-2-2 2 2 2h-3v2zm8 8l-3 3h-5v2h3l-2 2 2 2 1-2v3h3v-5l3-3c-1-1-2-1-2-2zm19-6l-2-2-3 4h-5l1 1c0 1 0 1-1 1h5l3 4 2-2-2-2h2v-2h-2l2-2zm-9-9v5l-3 3c1 0 1 1 2 2l3-3h5v-2h-3l2-2-2-2-2 2v-3h-2zm7 18h-5l-3-3c0 1-1 1-2 2l3 3v5h2v-3l2 2 2-2-2-2h3v-2zm-9-6c0 3-1 4-4 4s-3-1-3-4 1-4 3-4c3 0 4 2 4 4z"/></svg>