<svg width="64" height="64" viewBox="0 0 1000 1000" xmlns="http://www.w3.org/2000/svg"><path d="M522 439c-30-30-66-38-107-23-7 3-10 3-14-6-26-65-87-101-157-93-63 7-113 57-125 125 0 4 0 9-5 11-11 5-20 12-27 20s-54 50-1 108c1 2 2 4 4 5l1 1c12 12 29 19 48 21 21 2 41 0 62 1h251c43-2 74-23 91-62 16-36 8-80-21-108zm-108-81c-3-2-7-2-10 1-6 5-5 13 2 17l24 12c7 3 9 3 15-2l2-3v-1c0-5-2-9-6-11-9-4-18-9-27-13zm-146-63l-3 9c50-1 95 21 123 61 2-2 3-5 4-7 18-34 4-76-30-93-35-18-77-4-94 30zm142 25c-1 4 1 8 5 10 1 1 3 2 4 2 11-1 21-1 31-2 6-1 9-5 9-10 0-6-4-10-9-10-11 0-22 1-32 2-4 0-8 4-8 8zm-43-62c5 2 11 0 14-5 2-4 4-9 6-13l6-13h1c2-5 0-11-5-14-5-2-11 0-13 5-5 9-9 17-13 26-3 5-1 11 4 14zm-148 24c5 2 9 5 14 7 4 2 8 4 13 6 5 3 10 1 13-3 3-5 1-11-4-14-9-5-18-9-27-14-5-2-11 0-13 5-3 5-1 11 4 13zm181 7c4 1 7 2 10 0 9-6 17-12 26-17 4-3 5-9 2-14-3-4-9-6-13-3-9 6-18 11-26 17-6 4-5 14 1 17zm-79-43c6 4 14-1 14-9-1-10-1-20-2-30 0-5-5-9-10-9-6 1-10 5-10 11 1 10 1 19 2 29 0 4 2 7 6 8zm-49 12c1 1 3 2 4 3 4 2 9 1 12-2s4-8 1-12c-5-8-11-17-16-25-3-5-9-6-14-3-5 4-6 9-3 14l16 25zm414 298H568c-9 20-22 35-37 45 52 0 105 0 158 1 55 0 96 44 90 97-4 39-47 67-82 55-28-11-41-44-25-66 13-18 37-19 51-2 9 10 21 11 31 4 9-7 11-20 5-30-14-25-48-37-78-29-60 16-79 83-44 132 17 23 39 34 66 39h25c10-3 20-5 30-9 60-26 85-96 55-157-25-54-69-80-127-80zm-97-127c13 1 24-7 24-20 1-21 18-35 31-35 22-2 42 12 48 32 10 34-17 75-53 78-23 2-46 1-68 1 4 14 6 30 4 45h59c57 0 107-51 106-108-1-54-39-92-92-94-42-2-78 35-79 77 0 13 8 23 20 24zm331-15c-18-21-41-29-68-23-24 5-39 21-46 45-2 5-2 11-2 16 1 12 9 20 21 21 11 1 20-5 23-17 4-18 10-23 22-21 15 3 24 17 22 31-3 21-19 34-42 34h-87c-13 0-21 6-24 16-4 15 5 28 20 29h54c23-1 46 3 69-5 53-17 74-85 38-126zM343 665v4l-4-4-2 3 6 7v7c1-1 1-1 2-1s1 0 2 1v-7l7-7-3-3-4 4v-4h-4zm4 34h-4v7l-6 6 2 3 4-4v4h4v-4l4 4 2-3-6-6v-7zm-11-7v-2-2h-7l-6-6-3 2 4 4h-4v4h4l-4 4 3 2 6-6h7zm-13-11h10l5 5c0-2 1-2 2-3l-5-5v-9h-3v5l-3-3-3 3 3 3h-5l-1 4zm8 31h4v-9l5-5c-1-1-2-2-2-3l-5 5h-10v4h6l-3 3 2 2 3-3v6zm39-28l-3-2-6 6h-7v4h7l6 7 3-3-4-4h4v-3h-4l4-5zm-15-15v9l-5 5c1 0 2 1 3 2l5-5h9v-3h-5l2-3-2-3-3 3v-5h-4zm12 31h-9l-5-5-3 3 5 4v10h4v-6l3 3 2-3-3-3h6v-3zm-15-10c0 4-3 7-7 7s-7-3-7-7 3-7 7-7 7 3 7 7zm-160-62v9l-9-9-5 6 14 15v16c1-1 3-1 4-1s3 0 4 1v-16l15-15-6-6-9 9v-9h-8zm8 76h-8v16l-14 14 5 6 9-9v10h8v-10l9 9 6-6-15-14v-16zm-23-16c-1-1-1-2-1-4 0-1 0-3 1-4h-16l-15-15-5 6 8 9h-9v8h9l-8 9 5 6 15-15h16zm-29-26h20l11 11 6-6-11-11v-20h-8v12l-7-7-6 6 7 7h-12v8zm31 33l-11 11h-20v8h12l-7 7 6 6 7-7v12h8v-20l11-11-6-6zm73-24l-5-6-15 15h-16c0 1 1 3 1 4 0 2-1 3-1 4h16l14 15 6-6-8-9h9v-8h-9l8-9zm-33-35v20l-11 11 6 6 11-11h20v-8h-12l7-7-6-6-7 7v-12h-8zm26 70h-20l-12-11c-1 2-3 4-5 6l11 11v21h8v-13l7 7 6-6-7-7h12v-8zm-49-37c-8 0-15 7-15 15 0 9 7 15 15 15 9 0 15-6 15-15 0-8-6-15-15-15zm83 72v-3h-3v3l-3-3-2 2 5 5v5h3v-5l5-5-2-2-3 3zm0 23h-3v5l-5 5 2 2 3-3v3h3v-3l3 3 2-2-5-5v-5zm-8-6v-1-1h-5l-5-5-2 2 3 3h-4v2h4l-3 3 2 2 5-5h5zm-10-8h7l4 3 2-2-4-3v-7h-3v4l-2-2-2 2 2 2h-4v3zm11 11l-4 3h-7v3h4l-2 2 2 2 2-2v4h3v-7l4-3-2-2zm25-8l-2-2-5 5h-6c1 0 1 0 1 1 0 0 0 1-1 1h6l5 5 2-2-3-3h3v-2h-3l3-3zm-12-12v7l-3 3c0 1 1 2 2 2l3-3h7v-3h-4l2-2-2-2-2 2v-4h-3zm9 23h-7l-3-3c-1 0-2 1-2 2l3 3v7h3v-4l2 3 2-2-2-3h4v-3zm-11-7c0 3-2 5-5 5s-6-2-6-5 3-5 6-5 5 2 5 5zm138-104v3l-3-3-2 2 5 5v5h3v-5l5-5-2-2-3 3v-3h-3zm3 26h-3v6l-5 5 2 2 3-3v3h3v-3l3 3 2-2-5-5v-6zm-9-5v-2-1h-5l-5-5-2 2 3 3h-3v3h3l-3 3 2 2 5-5h5zm-10-9h7l4 4c1-1 1-2 2-2l-4-4v-7h-3v4l-2-3-2 3 2 2h-4v3zm11 11l-4 4h-7v3h5l-3 2 2 2 3-2v4h2v-7l4-4-2-2zm26-8l-2-2-6 5h-5v3h6l5 5 2-2-3-3h3v-3h-3l3-3zm-12-13v8l-4 3c1 1 2 2 2 3l4-4h7v-3h-4l2-3-2-2-2 3v-5h-3zm9 25h-7l-4-4c0 1-1 1-2 2l4 4v7h3v-4l2 2 2-2-2-2h4v-3zm-12-8c0 3-2 6-5 6s-5-3-5-6 2-5 5-5 5 2 5 5zm-83 94v2l-2-2-2 2 4 3v4h2v-4l3-3-1-2-2 2v-2h-2zm2 19h-1-1v3l-3 4 1 1 2-2v2h2v-2l2 2 2-1-4-4v-3zm-6-4v-1-1h-4l-3-4-1 2 2 2h-3v2h3l-2 2 1 1 3-3h4zm-7-7h5l3 3 1-1-2-3v-5h-2v3l-2-2-1 2 1 1h-3v2zm8 8l-3 3h-5v2h3l-1 2 1 1 2-2v3h2v-5l2-2c0-1-1-1-1-2zm18-5l-2-2-3 4h-4v2h4l3 3 2-1-2-2h2v-2h-2l2-2zm-5-8l-1 2v-3h-2v5l-3 3 1 1 3-3h5v-2h-3l2-1-2-2zm3 16h-5l-3-3c0 1-1 1-1 2l3 3v5h2v-3l1 1 2-1-2-2h3v-2zm-8-5c0 2-2 3-4 3s-4-1-4-3 2-4 4-4 4 2 4 4zm-76-94v1l-1-1-1 1 2 2v3h2v-3l2-2-1-1-1 1v-1h-2zm0 18v2h2v-2l1 2 1-1-3-3v-3h-1v3l-3 3 1 1 2-2zm-9-8h1l-1 2 1 1 3-3h2v-1h-2l-3-3-1 1 1 2h-1v1zm1-4h4l2 2c0-1 0-1 1-1l-2-2v-4h-2v2l-1-1-1 1 1 1h-2v2zm5 12v-3l2-2-1-1-2 2h-4v1h2l-1 1 1 1 1-1v2h2zm13-12l-3 3h-3v1h3l3 3 1-1-2-2h2v-1h-2l2-2-1-1zm-5-5v4l-2 2s1 0 1 1l2-2h3v-2h-2l1-1-1-1-1 1v-2h-1zm4 13h-3l-2-2s-1 0-1 1l2 2v3h1v-2l2 1 1-1-2-1h3l-1-1zm-6-4c0 1-1 2-2 2s-3-1-3-2 1-3 3-3 2 1 2 3z"/></svg>