<svg width="64" height="64" viewBox="0 0 1000 1000" xmlns="http://www.w3.org/2000/svg"><path d="M812 412c-44-43-97-55-155-34-11 4-15 4-21-8-38-95-126-147-227-136-92 11-165 84-182 182-1 6 0 14-7 17-16 7-29 16-40 28s-77 73-1 157c2 3 4 5 6 7l1 2v-1c18 18 42 29 71 31 29 3 59 0 89 1h255c39 0 74 1 109 0 62-2 107-32 132-89 24-54 12-116-30-157zM558 839c-8-4-14 0-19 5l-63 63c-8 8-13 16-4 26 10 8 19 4 27-4 20-20 40-40 60-61 4-4 8-8 8-13 1-8-3-13-9-16zm11-111c-28 27-56 55-83 83-6 6-7 14-3 21s10 11 21 11c3 1 7-2 11-5 27-28 55-55 81-82 8-8 9-19 0-27-9-9-19-9-27-1zm103 41c-2 1-4 1-5 2-20 12-35 28-48 47-4 7 0 15 6 20 6 6 14 8 21 3 16-12 32-26 43-43 8-12-3-29-17-29zM444 203c-2 4-4 9-5 13 73-2 138 30 179 88 2-3 4-6 6-10 25-50 5-110-45-135s-110-5-135 44zm205 36c-1 6 2 12 7 15 2 1 5 2 7 2l45-3c7 0 13-7 12-15 0-7-6-14-13-13-16 0-31 1-47 2-6 1-10 6-11 12zm-62-90c7 3 16 1 20-7l9-19 9-18 1-1c3-8 1-16-6-19-8-4-16-1-20 6-6 13-13 25-19 38-4 8-1 16 6 20zm68 145c-7-4-15 0-18 7-4 7-1 15 6 19 7 3 13 6 20 9 6 4 12 7 19 10s15 1 19-6 2-16-6-19c-13-7-26-14-40-20zM371 183c6 3 13 6 19 9 7 3 13 7 19 10 8 3 16 1 19-6 4-7 2-16-5-19-13-7-26-14-40-20-7-4-16 0-19 6-3 8 0 16 7 20zm264 11c5 2 10 2 14 0 13-8 25-17 38-25 6-4 7-13 3-19-4-7-12-9-19-5-13 8-25 16-38 25-9 6-7 19 2 24zm-115-61c10 4 21-3 20-14 0-14-1-29-2-43-1-8-7-14-15-14-8 1-14 7-14 16 1 14 2 28 3 43 0 5 3 9 8 12zm-70 16c1 2 3 4 5 4 7 4 13 2 18-2 4-5 5-12 1-18-7-12-15-24-23-36-5-7-14-8-21-4-6 5-8 13-3 20 7 12 15 24 23 36zM310 677v14l-12-13-9 9 21 21v23c2 0 4-1 6-1 3 0 5 1 6 1v-23l22-21-9-8-13 12v-13l-12-1zm12 111h-12v23l-21 21 9 8 12-12v13h12v-13l13 12 9-8-22-21v-23zm-34-23c0-2-1-4-1-6s1-4 1-6h-23l-21-21-8 9 12 12h-13v12h13l-12 13 8 9 21-22h23zm-42-37h30l16 16c2-4 5-7 9-9l-17-16v-30h-12v18l-9-10-9 9 9 10h-17v12zm46 47l-16 16h-30v12h18l-10 9 9 9 9-9v17h12l1-29 16-16c-4-3-7-6-9-9zm106-34l-9-9-21 21h-23c1 2 1 4 1 6s0 4-1 6h23l21 21 9-8-13-13h14v-12h-14l13-12zm-49-52v30l-16 16c3 2 6 5 8 9l17-16h29l1-12h-18l9-10-8-9-10 10v-18h-12zm38 102h-29l-17-16c-2 3-5 6-8 9l16 16v30l12-1v-17l10 9 8-8-9-10h18l-1-12zm-71-54c-12 0-22 10-22 22 0 13 10 22 22 22 13 0 22-9 22-22 0-12-9-22-22-22zm120 105v-5h-4v5l-4-4-3 2 7 8v8c1-1 2-1 3-1s1 0 2 1v-8l7-8-3-2-5 4zm0 33h-4v8l-7 7 3 3 4-5v5h4v-5l5 5 2-3-7-7v-8zm-11-8v-2-2h-8l-7-7-3 3 4 4h-4v4h4l-4 4 3 3 7-7h8zm-15-13h11l5 6 3-3-5-6-1-10h-4v6l-3-3-3 3 3 3h-6v4zm16 16l-5 6h-11v4h6l-3 3 3 3 3-3v6h4l1-10 5-6-3-3zm36-11l-3-3-7 7h-8v4h8l7 7 3-2-4-5h4v-4h-4l4-4zm-16-18l-1 10-5 6 3 3 5-6 11 1v-5h-6l3-3-3-3-3 3v-6h-4zm13 35h-11l-5-6-3 3 5 6 1 10h4v-6l3 3 3-3-3-3h6v-4zm-17-11c0 4-3 8-8 8s-7-4-7-8 3-7 7-7c5-1 8 3 8 7zm-14-103v2l-2-2-2 1 4 4v4h2v-4l4-4-2-1-2 2v-2h-2zm0 26v2h2v-2l2 2 2-1-4-4v-4h-1-1v4l-4 4 1 1 3-2zm-14-11h3l-2 2 1 2 4-4h4v-1-1h-4l-4-4-1 2 2 2h-3v2zm2-6h6l3 2s0-1 1-1l-3-3v-5h-2v3l-2-2-1 2 1 1h-3v3zm7 17v-5l3-3c-1 0-1-1-2-1l-2 3h-6v2h3l-1 2 1 1 2-2v4l2-1zm19-17l-4 4h-4v2h4l4 4 1-1-2-3h2v-2h-2l2-2-1-2zm-7-7v5l-3 3 1 1 3-3h5v-2h-3l2-1-2-2-1 2v-3h-2zm6 18h-5l-3-3-1 1 3 3v5h2v-3l1 2 2-2-2-1h3v-2zm-8-6c0 2-2 4-4 4s-4-2-4-4 2-4 4-4 4 2 4 4z"/></svg>