<svg width="64" height="64" viewBox="0 0 1000 1000" xmlns="http://www.w3.org/2000/svg"><path d="M822 422c-46-44-100-57-160-35-11 4-16 5-21-8-39-98-130-152-234-140-95 11-169 86-187 188-1 6 0 13-7 17-17 7-30 17-41 29s-80 75-2 162c2 2 4 5 6 7 1 0 1 1 2 1 19 18 43 29 72 32 31 3 61 0 92 1l263-1c40 0 76 2 112 0 64-2 110-33 136-91 24-55 12-120-31-162zM443 207c-3 5-4 9-6 13 75-2 142 32 185 91 2-3 4-7 6-10 25-51 5-113-46-139s-114-6-139 45zm211 37c-2 6 2 13 7 16 2 1 5 2 7 2 16-1 31-2 46-3 8-1 14-8 13-15 0-8-6-15-14-14-16 0-31 1-47 2-7 1-11 6-12 12zm-64-93c8 4 16 1 20-7 4-6 7-13 10-19l9-19 1-1c3-7 1-16-7-20-7-3-16-1-20 7-6 13-13 26-19 39-4 8-1 17 6 20zm-220 37l20 10c6 3 13 7 19 10 8 3 16 1 20-6s2-16-6-20c-13-8-27-14-41-21-7-3-16 0-19 7-4 8-1 16 7 20zm290 112c-7-3-16 1-19 8s0 15 7 19l20 10c6 3 13 7 19 10 8 4 16 1 20-6s2-16-6-20c-13-7-27-14-41-21zm-20-102c4 2 9 2 14-1 13-8 26-16 39-25 6-4 7-13 3-20-4-6-13-9-19-5-14 9-27 17-40 26-8 6-7 20 3 25zm-119-63c10 5 21-3 21-14l-3-45c0-8-7-14-15-13-9 0-15 7-14 15 1 15 2 30 2 44 1 6 3 10 9 13zm-72 16c1 3 3 4 5 5 7 3 14 2 18-3 5-5 6-12 2-17-8-13-16-25-24-38-5-7-14-9-21-4s-9 13-4 21l24 36zm105 595v6l-5-6-4 4 9 10v10h6v-10l10-10-4-4-6 6v-6h-6zm6 50c-1 1-2 1-3 1s-2 0-3-1v11l-9 9 4 4 5-5v6h6v-6l6 5 4-4-10-9v-11zm-16-10v-3-3h-10l-10-9-4 4 6 5h-6v6h6l-6 6 4 4 10-10h10zm-19-17h14l7 7 4-4-7-7v-14h-6v8l-4-4-4 4 4 4h-8v6zm12 46h6v-13l7-8c-2-1-3-2-4-4l-7 8h-14v5h8l-4 5 4 4 4-5v8zm58-40l-4-4-10 10h-10v5h10l10 10 4-4-6-6h6v-5h-6l6-6zm-23-24v14l-7 7 4 4 7-7h14v-6h-8l4-4-4-4-4 4v-8h-6zm18 47h-14l-7-8c-1 2-3 3-4 4l7 8v13h6v-8l4 5 4-4-4-5h8v-5zm-33-25c-5 0-10 5-10 10 0 6 5 10 10 10 6 0 10-4 10-10s-4-10-10-10zm-228-83v14l-13-13-9 9 22 22v23c2 0 4-1 6-1s4 1 6 1v-23l22-22-9-9-13 13v-14h-12zm12 114h-12v23l-22 22 9 9 13-13v14h12v-14l13 13 9-9-22-22v-23zm-35-23c0-2-1-5-1-7s1-4 1-6h-23l-22-22-9 9 13 13h-14v13h14l-13 12 9 9 21-21h24zm-43-39h30l17 16c2-3 5-6 9-9l-17-16v-31h-12v18l-10-9-9 9 10 9h-18v13zm47 48l-17 17h-30l-1 12h19l-10 10 9 9 9-10v18h13v-30l17-17c-4-2-7-5-9-9zm109-35l-9-9-22 22h-23c0 2 1 4 1 6s-1 4-1 6h23l22 22 9-9-13-13h14v-12h-14l13-13zm-50-53v31l-17 16c4 3 7 6 9 9l17-16h30v-13h-18l10-9-9-9-10 9 1-18h-13zm39 105h-30l-17-17c-2 4-5 7-9 9l17 17v31l12-1v-18l10 10 9-9-10-10h18v-12zm-73-55c-12 0-23 10-23 22s11 23 23 23 23-10 23-23c0-12-10-22-23-22zm124 107v-4h-5v4l-4-4-3 3 7 7v8h5v-8l7-7-3-3-4 4zm0 34h-2-2v8l-8 7 3 3 5-4v5h4v-5l4 4 3-3-7-7v-8zm-12-8s-1-1-1-2 1-1 1-2h-8l-8-7-3 3 5 4h-5v4h5l-5 5 3 3 8-8h8zm-15-13h10l6 6c1-2 2-3 3-3l-6-6v-10h-4v6l-3-4-3 4 3 3h-6v4zm16 17l-6 5h-10v4h6l-3 4 3 3 3-3v6h4l1-11 5-5-3-3zm37-12l-3-3-7 7h-8v4h8l7 8 3-3-4-5h4v-4h-4l4-4zm-17-18v10l-6 6c2 0 3 1 3 3l6-6h10v-4h-6l4-3-3-3-4 3v-6h-4zm14 35h-11l-6-5c0 1-1 2-3 3l6 5v11h5v-6l3 3 3-3-3-4h6v-4zm-25-19c-5 0-8 4-8 8s3 8 8 8c4 0 7-4 7-8s-3-8-7-8zm213-148v5l-4-4-3 3 7 7v8h4v-8l8-7-3-3-5 4v-5h-4zm4 40h-4v8l-7 7 3 3 4-4v5h5v-5l4 4 3-3-7-7v-8zm-12-8v-2-3h-8l-7-7-4 3 5 4h-5v5h5l-5 4 3 3 8-7h8zm-15-14h11l6 6c0-1 1-2 3-3l-6-6v-11h-5v7l-3-4-3 3 3 4h-6v4zm17 17l-6 6h-11v4h6l-3 4 3 3 3-4v7h5v-11l6-6c-2-1-3-2-3-3zm37-12l-3-3-7 7h-8v5h8l7 7 3-3-4-4h5v-5h-5l4-4zm-17-18v10l-6 6 3 3 6-6h11v-4h-6l3-3-3-4-4 4v-6h-4zm14 36h-11l-6-6-3 3 6 6v11h4v-7l4 4 3-3-4-4h7v-4zm-18-11c0 4-3 7-8 7s-8-3-8-7 4-8 8-8 8 3 8 8zM556 897v3l-4-3-2 2 6 5v6h3v-6l5-5-2-2-4 3v-3h-2zm3 27h-3v6l-6 5 3 2 3-3v4h3v-4l3 3 2-2-5-5v-6zm-9-5v-2-1h-6l-5-6-2 3 3 3h-3v3h3l-3 3 2 2 5-5h6zm-10-10h7l4 4 2-2-4-4v-7h-3v4l-2-2-2 2 2 2h-5l1 3zm11 12l-4 4h-7v3h4l-2 2 2 3 2-3v5h3v-8l4-4c-1 0-1-1-2-2zm27-9l-3-2-5 6h-6l1 1s-1 1-1 2h6l5 5 3-2-4-4h4v-3h-4l4-3zm-7-10l-3 2v-4h-3v7l-4 4c1 0 2 1 2 2l4-4h8v-3h-5l3-2-2-2zm4 23h-8l-4-4c0 1-1 2-2 2l4 4v8h3v-5l3 3 2-3-2-2h4v-3zm-12-8c0 3-3 6-6 6s-5-3-5-6 2-5 5-5 6 2 6 5zM450 777v2l-3-2-1 1 4 4v5c0-1 0-1 1-1 0 0 1 0 1 1v-5l4-4-2-1-2 2v-2h-2zm0 27v2h2v-2l2 2 2-1-4-4v-4h-2v4l-4 4 1 1 3-2zm-14-11h3l-3 2 2 1 4-3h4v-2-1h-4l-4-4-2 2 3 2h-3v3zm2-7h5l3 3 2-2-3-3v-5h-2v3l-2-2-2 2 2 2h-3v2zm7 18v-5l3-3c-1 0-1-1-2-2l-3 3h-5v2h3l-2 2 2 2 2-2v3h2zm19-17l-4 3h-4v3h4l4 4 2-2-3-2h3v-3h-3l3-2-2-1zm-7-8v5l-3 3s1 1 1 2l3-3h6v-2h-3l1-2-1-2-2 2v-3h-2zm7 18h-6l-3-3c0 1-1 1-1 2l3 3v5h2v-3l2 2 1-2-1-2h3v-2zm-9-5c0 2-2 4-4 4s-4-2-4-4 2-4 4-4 4 1 4 4z"/></svg>