<svg width="64" height="64" viewBox="0 0 1000 1000" xmlns="http://www.w3.org/2000/svg"><path d="M886 286c-55-53-120-68-192-42-13 5-19 5-25-10C622 117 512 52 388 67 274 80 185 170 164 291c-1 8 0 17-9 21-20 8-36 20-49 35s-96 90-3 194c3 3 6 6 8 9 1 0 1 1 2 1 22 22 51 35 87 38s73 0 110 1h315c48 0 92 1 135-1 76-2 132-39 163-109 29-66 14-144-37-194zM571 813c-9-4-16 0-23 7-26 25-52 51-78 77-9 10-16 21-4 32s23 6 33-4l75-75c5-5 9-10 9-17 1-10-3-16-12-20zm14-137c-34 34-68 69-102 103-8 7-8 17-4 26 5 9 12 14 26 14 4 0 9-3 14-7 33-34 67-67 100-101 10-10 10-23 0-34-11-10-23-11-34-1zm128 51c-2 1-5 1-7 2-24 15-43 35-59 59-5 8 0 18 7 25 8 7 18 9 26 4 21-16 40-33 54-55 10-14-4-35-21-35zM266 614v17l-15-16-11 11 26 26v28c2 0 5-1 7-1 3 0 6 1 8 1v-28l26-26-11-11-15 16v-17h-15zm15 136c-2 1-5 1-8 1-2 0-5 0-7-1v28l-26 26 11 11 15-15v16h15v-16l15 15 11-11-26-26v-28zm-42-27c-1-3-1-5-1-8s0-5 1-7h-29l-26-26-10 10 15 16h-16v15h16l-15 15 10 11 26-27 29 1zm-53-47h37l20 20c3-5 7-8 11-11l-20-20v-37h-15v22l-12-11-11 10 12 12h-22v15zm57 58l-20 20h-36l-1 15h22l-12 12 11 10 12-11v22h15v-37l20-20c-4-3-8-7-11-11zm131-42l-10-11-26 26h-29c1 3 1 5 1 8s0 5-1 7h29l26 27 10-11-15-16h16v-15h-16l15-15zm-60-64v37l-20 20c4 3 8 7 10 11l20-20h37v-15h-21l11-12-10-10-12 11v-21l-15-1zm47 126h-36l-21-20c-2 5-6 8-10 11l20 20v37h15v-22l12 11 10-10-11-12h21v-15zm-88-66c-15 0-27 12-27 27s12 27 27 27 28-12 28-27-13-27-28-27zm149 129v-6h-5v6l-6-5-3 3 9 9v10c0-1 1-1 2-1s2 0 3 1v-10l9-9-4-3-5 5zm0 41h-5v9l-9 9 3 4 6-6v6h5v-6l5 6 4-4-9-9v-9zm-15-10v-2-3h-9l-9-9-4 4 6 5h-6v5h6l-6 5 4 4 9-9h9zm-17-16h12l7 7c1-1 2-3 4-4l-7-6v-13h-5v8l-4-4-4 3 4 4h-7v5zm19 20l-7 7h-12v5h7l-4 4 4 4 4-4v7h5v-13l7-6c-2-1-3-2-4-4zm44-14l-3-4-9 9h-10c1 1 1 2 1 3 0 0 0 1-1 2h10l9 9 3-4-5-5h6v-5h-6l5-5zm-20-22v13l-7 6c2 1 3 3 4 4l7-7h12v-5h-7l4-4-4-3-4 4v-8h-5zm16 43h-12l-7-7c-1 2-2 3-4 4l7 7v12h5v-7l4 4 4-4-4-4h7v-5zm-30-23c-5 0-9 4-9 10s4 9 9 9 9-4 9-9-4-10-9-10zm-8-118v3l-3-3-2 2 5 5v5h3v-5l4-5-2-2-2 3v-3h-3zm0 33v3h3v-3l2 2 2-2-4-4v-5h-2-1v5l-5 4 2 2 3-2zm-17-14h3l-2 3 2 2 4-5h5v-1-2h-5l-4-4-2 2 2 2h-3v3zm3-8h6l4 3c1 0 1-1 2-2l-4-3v-7h-2v4l-2-2-2 2 2 2h-4v3zm8 22v-6l4-4c-1 0-2-1-2-2l-4 4h-6v2h4l-2 2 2 2 2-2v4h2zm23-21l-4 4h-5v3h5l4 5 2-2-3-3h3v-3h-3l3-2-2-2zm-9-10v7l-3 3c1 1 1 2 2 2l3-3h7v-3h-4l2-2-2-2-2 2v-4h-3zm9 23h-7l-3-4c-1 1-1 2-2 2l3 4v6h3v-4l2 2 2-2-2-2h4v-2zm-11-7c0 2-2 5-5 5s-4-3-4-5c0-3 2-5 4-5s5 2 5 5z"/></svg>