<svg width="64" height="64" viewBox="0 0 1000 1000" xmlns="http://www.w3.org/2000/svg"><path d="M814 446c-45-43-97-56-156-34-11 4-15 4-20-9-39-95-128-147-229-136-92 11-165 84-182 183-1 6 0 14-8 17-16 7-29 16-39 28h-1s-77 73-1 158c2 2 4 5 6 7l1 1c19 18 42 28 71 31 30 3 60 0 90 1 11 0 13-6 15-14 14-52 28-103 42-154 3-10 7-15 19-15 40 1 80 1 120 0 13 0 15 4 12 15-9 29-16 57-25 89h129c-19 27-36 51-56 79 39 0 75 1 110 0 62-3 107-33 132-89 24-54 12-117-30-158zM509 640c-12 1-17-1-13-15 9-25 14-50 21-75 3-10 1-13-9-12h-68c-7 0-12 2-14 9l-42 150c-2 8 0 12 9 11 18 0 36 1 53 0 14 0 19 1 15 17-14 55-26 111-39 166l3 3c59-84 119-168 180-254h-96zm73-493c-26 21-41 49-44 82-1 13 1 25 3 37 42 17 77 48 102 88 4 1 8 1 13 1 69-1 114-60 114-107-17 20-37 32-62 34-26 2-48-5-68-22-16-14-26-32-29-53-5-32 5-60 28-84-22 2-41 10-57 24zm-39-45c2 0 2 1 3 2l3 13c0 4 4 5 7 2l8-10c1-1 2-2 4-1l13 1c3 0 5-4 4-6l-7-12c-1-1-1-2-1-3l5-13c2-3-1-6-4-5l-13 3c-1 1-3 0-4-1l-10-8c-2-3-6-1-6 2l-1 14c0 1-1 2-2 3l-12 6c-2 2-2 6 1 8l12 5zm220 127l13 5c1 0 2 1 2 3l3 13c1 3 5 4 7 1l8-10c1-1 3-2 4-1l13 1c3 0 6-3 4-6l-7-11c-1-2-1-3-1-4l6-12c1-3-2-7-5-6l-13 3c-1 1-2 0-3 0l-10-9c-3-2-7-1-7 2l-1 14c0 1-1 2-2 3l-11 7c-3 1-3 6 0 7zm-95-28c1 0 2 1 2 2l2 9c0 2 3 2 4 1l6-7c1-1 1-1 2-1l9 1c2 0 4-3 3-4l-5-8c-1-1-1-2 0-2l3-8c1-2-1-5-3-4l-9 2h-2l-7-6c-1-2-4-1-4 2l-1 8c0 1 0 2-1 2l-7 5c-2 1-2 4 0 5l8 3zm85-28l1 1 1 6c0 2 2 2 3 1l4-5h8c1 0 2-1 1-2l-3-6v-1l2-6c1-1 0-3-2-2l-6 1c0 1-1 0-1 0l-5-4c-1-1-3 0-3 1v6c0 1-1 1-1 2l-5 3c-2 1-1 2 0 3l6 2zm-228-4c1 0 1 0 1 1l1 5c1 1 2 1 3 0l3-4h7c1 0 2-1 1-2l-2-5c-1 0-1-1-1-1l2-5c1-1 0-2-1-2l-5 1h-2l-3-3c-1-1-3-1-3 1v5l-1 1-4 3c-2 0-1 2 0 2l4 3zm57 607v6l-5-6-4 4 9 9v10h6v-10l9-9-4-4-5 6v-6h-6zm6 48h-6v10l-9 10 4 3 5-5v6h6v-6l5 5 4-3-9-10v-10zm-15-10c-1-1-1-1-1-2s0-2 1-3h-10l-10-9-4 3 6 6h-6v5h6l-6 6 4 3 9-9h11zm-19-16h13l7 7c1-2 3-3 4-4l-7-7v-13h-5v8l-5-5-3 4 4 4h-8v6zm20 20l-7 8-13-1v6h8l-4 4 4 4 4-4v7h5v-13l7-7c-1-1-3-2-4-4zm47-15l-4-3-9 9h-10v5h10l9 10 4-4-5-6h6v-5h-6l5-6zm-21-22v13l-8 7c2 1 3 2 4 4l7-7h13v-6h-7l4-4-4-4-4 5v-8h-5zm16 44l-13 1-7-8c-1 2-2 3-4 4l8 7v13h5v-7l4 4 4-4-4-4h8l-1-6zm-31-4c5 0 10-4 10-9 0-6-5-10-10-10s-10 4-10 10c0 5 5 9 10 9zm-318-75v10l-9-9-7 6 16 16v17h9v-17l16-16-6-6-10 9v-10h-9zm10 83c-2 0-3 1-5 1s-3-1-4-1v17l-16 16 6 7 10-10v10h9v-10l9 10 7-7-16-16v-17zm-26-17c-1-1-1-3-1-4 0-2 0-3 1-5h-17l-16-16-7 7 10 9h-10v9h10l-10 10 7 6 16-15 17-1zm-32-28h22l13 12c1-3 3-5 6-6l-12-13v-22h-9v13l-7-7-7 7 7 7h-13v9zm35 35l-13 13-22-1v10h13l-7 7 7 6 7-7v14h9v-23l12-12c-2-2-5-4-6-7zm79-25l-6-7-16 16h-17v9h17l16 16 6-7-9-9h10v-9h-10l9-9zm-36-39v22l-13 12c3 2 5 4 7 7l12-12h22v-9h-13l7-7-6-7-7 7v-13h-9zm28 76h-22l-12-12c-2 3-4 5-7 7l13 12v22h9v-13l7 7 6-6-7-7 13-1v-9zm-53-40c-9 0-17 8-17 17s8 16 17 16 16-7 16-16c1-9-7-17-16-17zm422-45v5l-4-4-3 3 7 7v8h4v-8l8-7-3-3-5 4v-5h-4zm4 38h-4v8l-7 7 3 3 4-4v5h4v-5l5 4 3-3-8-7v-8zm-12-8v-2-2h-7l-8-7-3 3 5 4h-5v4h5l-5 5 3 3 8-8h7zm-14-12l10-1 6 6c0-1 1-2 3-3l-6-6v-10h-4v6l-4-3-3 3 4 3h-6v5zm16 16l-6 5h-10v4h6l-3 4 3 3 3-4v7h4v-11l6-5-3-3zm36-12l-3-3-7 7h-8v5h8l7 7 3-3-4-4h5v-5h-5l4-4zm-17-18v11l-5 5 3 3 5-5h11v-5h-7l4-3-3-3-4 3v-6h-4zm14 35h-11l-5-5-3 3 5 5 1 11h4v-7l3 4 3-3-3-4h6v-4zm-17-11c0 5-4 8-8 8s-7-3-7-8 3-7 7-7 8 3 8 7zM518 898v3l-3-3-2 2 5 5v6h3v-6l5-5-2-2-3 3v-3h-3zm3 27h-3v5l-5 5 2 2 3-3v4h3v-4l3 3 2-2-5-5v-5zm-8-6v-1-2h-6l-5-5-2 2 3 3h-3v3h3l-3 3 2 2 5-5h6zm-10-9h7l4 4c0-1 1-2 2-2l-4-4v-7h-3v4l-2-2-2 2 2 2h-4v3zm11 11l-4 4h-7v3h4l-2 2 2 3 2-3v5h3v-8l4-3c-1-1-2-2-2-3zm25-8l-2-2-5 5h-6c1 1 1 1 1 2s0 1-1 1h6l5 5 2-2-3-3h3v-3h-3l3-3zm-10-3h8v-3h-5l3-2-2-2-3 2v-4h-3v7l-4 4c1 0 2 1 3 2l3-4zm8 15h-8l-3-3c-1 0-2 1-3 2l4 3v8h3v-5l3 3 2-2-3-3h5v-3zm-12-7c0 3-3 5-5 5-3 0-6-2-6-5s3-6 6-6c2 0 5 3 5 6zM384 814v2l-3-2-1 1 4 4v4h2v-4l3-4-1-1-2 2v-2h-2zm2 19h-2v4l-4 4 2 1 2-2v3h2v-3l2 2 2-1-4-4v-4zm-6-4v-1-1h-4l-4-4-2 2 3 2h-3v2h3l-3 2 2 2 4-4h4zm-8-6h6l2 2c1 0 1-1 2-1l-3-3v-5h-2v3l-2-2-1 2 1 2h-3v2zm8 8l-3 3h-5v2h3l-1 1 1 2 2-2v3h2v-5l3-3c-1 0-1-1-2-1zm19-6l-2-2-3 4h-4v2h4l3 4 2-2-2-2h2v-2h-2l2-2zm-9-9v5l-3 3c1 0 2 1 2 1l3-2h5v-3h-3l2-1-2-2-1 2v-3h-3zm7 18h-5l-3-3s-1 1-2 1l3 3v5h2v-3l2 2 2-2-2-1h3v-2zm-8-6c0 2-2 4-4 4s-4-2-4-4 2-4 4-4 4 2 4 4z"/></svg>