<svg width="64" height="64" viewBox="0 0 1000 1000" xmlns="http://www.w3.org/2000/svg"><path d="M886 299c-55-53-120-68-192-41-13 5-19 5-25-11C622 130 512 66 388 80 274 93 185 183 164 305c-1 7 0 16-9 20-20 9-36 21-49 35s-96 90-3 194c3 3 6 7 8 9l2 2v-1c22 22 51 35 87 39 36 3 73 0 110 1l315-1c48 0 92 1 135 0 76-3 132-40 163-110 29-66 14-143-37-194zM570 691v8l-7-7-4 5 11 11v13c1 0 2-1 3-1s3 0 4 1v-13l11-11-4-5-7 7v-8h-7zm7 61h-7v12l-11 12 4 5 7-7v7h7v-7l7 7 5-5-12-11v-13zm-19-12v-4-3h-13l-11-12-5 5 7 7h-7v7h7l-7 7 5 4 11-11h13zm-23-21h16l9 9c1-2 3-4 5-5l-9-9v-16h-7v9l-5-5-5 5 5 5h-9v7zm14 56h7v-17l9-9c-2-1-4-2-5-4l-9 9-16-1v7h9l-5 5 5 5 5-5v10zm69-49l-4-5-12 12h-13c1 1 1 2 1 3s0 3-1 4h13l12 11 4-5-7-6h8v-7h-8l7-7zm-26-28l-1 16-8 9c1 1 3 3 4 5l9-9h17v-7h-10l5-5-4-5-6 6v-10h-6zm21 56h-17l-9-9c-1 2-3 3-5 5l9 8v17h7v-10l5 5 5-4-5-6h9l1-6zm-40-30c-6 0-12 6-12 12 0 7 6 12 12 12 7 0 13-5 13-12 0-6-6-12-13-12zM299 624v17l-15-15-11 10 26 26v29c3-1 5-1 8-1s5 0 7 1v-29l26-26-10-10-16 15v-17h-15zm15 137h-15v28l-26 26 11 10 15-15v17h15v-17l16 15 10-10-26-26v-28zm-42-28c0-2-1-5-1-8 0-2 1-5 1-7h-28l-26-26-11 11 16 15h-17v15h17l-16 15 11 11 26-26h28zm-52-47h37l20 20c3-4 6-8 10-11l-20-19v-37h-15v22l-12-12-10 11 12 11h-22v15zm57 59l-20 20-37-1v15h22l-12 12 11 11 11-12v22h15v-37l21-20c-5-2-8-6-11-10zm131-43l-11-10-26 26h-28c0 2 1 5 1 7 0 3-1 5-1 8h28l26 26 11-11-16-15h17v-15h-17l16-16zm-60-63l-1 37-20 20c4 2 8 6 11 10l20-20 37 1v-15l-22-1 12-11-11-11-12 12 1-22h-15zm47 125l-37 1-20-20c-3 4-6 8-11 10l20 20 1 37h15v-22l11 12 11-11-12-12h22v-15zm-88-66c-15 0-27 12-27 27s12 28 27 28 27-13 27-28-12-27-27-27zm148 129v-5h-5v5l-5-5-4 4 9 8v10h5v-10l9-8-3-4-6 5zm0 41h-5v10l-9 8 4 4 5-5v5h5v-5l5 5 4-4-9-8v-10zm-14-9v-3-3h-10l-8-8-4 3 5 5h-5v6h5l-5 5 4 3 8-8h10zm-18-16h13l7 6c0-1 2-2 3-3l-7-7v-12h-5v7l-4-4-3 4 4 4h-8v5zm20 20l-7 6h-13v5h8l-4 4 3 4 4-4v7h5v-12l7-7-3-3zm44-15l-4-3-8 8h-10v6h10l8 8 4-3-5-5h5v-6h-5l5-5zm-20-21l-1 12-6 7 3 3 7-6h13v-5h-8l4-4-3-4-4 4v-7h-5zm16 42h-13l-7-6-3 3 7 7v12h5v-7l4 4 3-4-4-4h8v-5zm-30-22c-5 0-9 4-9 9s4 9 9 9 9-4 9-9-4-9-9-9zm256-178v6l-5-5-4 3 9 9v10h5v-10l9-9-4-3-5 5v-6h-5zm5 47c-1 1-2 1-2 1-1 0-2 0-3-1v10l-9 9 4 4 5-6v6h5v-6l6 6 3-4-9-9v-10zm-15-9v-3-2h-9l-9-9-4 3 5 6h-5v5h5l-5 5 4 4 9-9h9zm-18-16h13l7 6c1-1 2-2 4-3l-7-7v-13h-5v8l-5-4-3 3 4 4h-8v6zm20 20l-7 7h-13v5h8l-4 4 4 4 4-4v7h5v-13l7-7c-2 0-3-2-4-3zm46-15l-4-3-9 9h-10v5h10l9 9 4-4-6-5h6v-5h-6l6-6zm-21-22v13l-7 7 3 3 7-6h13v-6h-8l5-4-4-3-4 4v-8h-5zm16 44h-13l-7-7c-1 1-2 3-3 4l7 6v13h5v-7l4 4 4-4-4-4h7v-5zm-30-23c-6 0-10 4-10 9s4 10 10 10c5 0 9-4 9-10s-4-9-9-9zM572 872v4l-4-4-3 3 7 6v7h3v-7l6-6-2-3-4 4v-4h-3zm3 33s-1 1-2 1l-1-1v7l-7 7 3 2 4-4v4h3v-4l4 4 3-2-7-7v-7zm-10-6v-2-2h-7l-6-6-3 2 4 4h-4v4h4l-4 4 3 2 6-6h7zm-13-12h9l5 5c1-1 2-2 3-2l-5-5v-9h-4v5l-3-3-2 3 3 3h-6v3zm14 14l-5 5h-9v4h5l-2 3 2 2 3-2v5h4v-9l5-5-3-3zm32-10l-3-2-6 6h-7v4h7l6 6 3-3-4-4h4v-3h-4l4-4zm-8-13l-3 3v-5h-4v9l-5 5c1 0 2 1 3 2l5-5h9v-3h-5l2-3-2-3zm5 28h-9l-5-5-3 3 5 5v9h4v-6l3 3 2-2-3-3h6v-4zm-15-9c0 3-3 6-7 6s-6-3-6-6c0-4 3-7 6-7s7 3 7 7zM445 728v3l-3-2-2 1 5 5v5h2v-5l5-5-2-1-3 2v-3h-2zm0 33v3h2v-3l3 3 2-2-5-5v-5h-2v5l-5 5 2 2 3-3zm-17-14h3l-3 3 2 2 5-5h5v-1-1h-5l-5-5-2 2 3 3h-3v2zm2-8h7l4 4c0-1 1-2 1-2l-3-4v-6h-3v4l-2-2-2 2 2 2h-3l-1 2zm9 22v-6l3-4s-1-1-2-1l-3 3h-7v3h4l-2 2 2 2 2-2v4l3-1zm23-21l-5 5h-5v2h5l5 5 2-2-3-3h3v-2h-3l3-3-2-2zm-9-9v6l-3 4s1 1 1 2l4-4h7v-2h-4l2-2-2-2-2 2v-4h-3zm8 22h-6l-4-3s-1 1-2 1l4 4v6h2v-3l3 2 1-2-2-2h4v-3zm-10-7c0 3-3 5-5 5s-5-2-5-5 2-5 5-5 5 2 5 5z"/></svg>