<svg width="64" height="64" viewBox="0 0 1000 1000" xmlns="http://www.w3.org/2000/svg"><path d="M530 381c-31-30-68-39-109-24-8 3-11 3-14-6-27-66-89-103-160-95-64 8-115 59-127 128-1 4 0 9-5 11-12 5-21 12-28 20s-54 51-1 110c1 2 3 4 4 5l1 1c13 12 29 20 49 22 21 2 42 0 63 0h179c27 0 52 1 76 0 44-2 75-22 92-62 17-38 9-82-20-110zm161 123H575c-8 19-20 34-36 44h155c54 1 94 44 88 96-3 38-46 66-80 53-27-10-40-43-25-64 13-18 37-19 51-2 8 9 20 11 30 3 9-6 11-19 5-29-14-24-47-36-77-28-58 15-77 81-42 129 16 22 38 33 64 38h25c9-3 19-5 29-9 58-25 83-93 54-154-25-52-67-77-125-77zm-95-125c13 1 24-6 24-19 1-21 17-34 31-35 20-1 40 12 46 32 10 34-17 73-52 76-22 2-44 2-67 1 5 14 7 29 5 44h57c56 0 106-50 104-106-1-52-38-89-90-91-41-2-77 33-77 75 0 13 8 22 19 23zm324-15c-17-19-40-27-66-22-24 6-39 21-46 45-1 5-1 10-1 15 0 12 8 20 20 21 11 1 20-6 23-17 4-17 10-22 21-20 14 2 24 16 22 30-3 20-19 33-42 34h-84c-13 0-21 5-24 15-4 14 5 27 20 28 17 1 35 0 52 0 23-1 46 3 68-4 52-18 72-84 37-125zM362 611v4l-4-4-2 2 6 7v7c1-1 1-1 2-1 0 0 1 0 2 1v-7l6-7-3-2-3 4v-4h-4zm4 33h-4v7l-6 6 2 2 4-3v4h4v-4l4 3 2-2-6-6v-7zm-11-7v-2-2h-6l-7-6-2 2 3 4h-4v4h4l-3 4 2 2 7-6h6zm-12-11h9l5 4c0-1 1-2 2-2l-5-5v-9h-4v5l-3-3-2 3 3 3h-5v4zm8 30h3v-9l5-5c-1 0-2-1-2-2l-5 5h-9v3h5l-3 3 3 3 3-3v5zm37-26l-2-3-7 6h-6v4h6l7 6 2-2-3-4h4v-4h-4l3-3zm-14-16v9l-5 5c1 0 2 1 2 2l5-4h9v-4h-5l3-3-3-2-3 2v-5h-3zm11 31h-9l-5-5c0 1-1 2-2 2l5 5v9h4v-5l3 3 2-3-3-3h5v-3zm-14-10c0 4-3 7-7 7s-7-3-7-7 3-6 7-6c4-1 7 2 7 6zm-157-61v9l-8-8-6 5 14 15v15h8v-15l15-15-6-5-8 8v-9h-9zm8 74c-1 1-2 1-4 1-1 0-3 0-4-1v16l-14 14 6 6 8-8v9h8v-9l9 8 5-6-14-14v-16zm-23-15v-4-4h-15l-15-14-5 6 8 8h-9v8h9l-8 9 5 5 15-14h15zm-28-25h20l11 11c1-3 3-5 6-6l-11-11-1-20h-8v12l-6-7-6 6 7 7h-12v8zm31 32l-11 10h-20v9h12l-7 6 6 6 6-7v12h8l1-20 11-11c-3-1-5-3-6-5zm71-23l-6-6-14 14h-15v8h15l14 15 6-6-8-9h9v-8h-9l8-8zm-33-35v20l-11 11c3 1 5 3 6 6l11-11h20v-8h-12l7-7-6-6-7 7 1-12h-9zm26 68l-20 1-11-11c-1 2-3 4-6 6l11 10v21h9v-12l6 6 6-6-7-6h12v-9zm-48-36c-8 0-15 7-15 15s7 15 15 15 15-7 15-15-7-15-15-15zm81 71v-3h-3v3l-2-3-2 2 4 5v5h3v-5l5-5-2-2-3 3zm0 22h-3v5l-4 5 2 2 2-3v3h3v-3l3 3 2-2-5-5v-5zm-8-5v-2-1h-5l-5-5-2 2 3 3h-3v3h3l-3 3 2 2 5-5h5zm-9-9h7l3 4c1-1 1-2 2-2l-4-4v-7h-2v4l-3-2-1 2 2 2h-4v3zm10 11l-3 4h-7v3h4l-2 2 1 2 3-2v4h2v-7l4-4c-1 0-1-1-2-2zm25-8l-2-2-5 5h-5v3h5l5 5 2-2-3-3h3v-3h-3l3-3zm-12-12v7l-3 4 2 2 3-4h7v-3h-4l2-2-2-2-2 2v-4h-3zm9 24h-7l-3-4c-1 1-1 2-2 2l4 4v7h2v-4l3 2 1-2-2-2h4v-3zm-11-8c0 3-2 6-5 6s-5-3-5-6 2-5 5-5 5 3 5 5zm135-102v3l-3-2-2 2 5 4v6h3v-6l5-4-2-2-3 2v-3h-3zm3 26h-2-1v5l-5 5 2 2 3-3v4h3v-4l3 3 2-2-5-5v-5zm-8-5l-1-1c0-1 1-1 1-2h-6l-5-5-2 2 3 3h-3v3h3l-3 3 2 2 5-5h6zm-10-9h7l4 4c0-1 1-2 2-2l-4-4v-7h-3v4l-2-2-2 2 2 2h-4v3zm11 11l-4 4h-7v3h4l-2 2 2 2 2-2v4h3v-7l4-4c-1 0-2-1-2-2zm24-8l-2-2-5 5h-5v3h5l5 5 2-2-3-3h4v-3h-4l3-3zm-11-12v7l-4 4c1 0 2 1 2 2l4-4h7v-3h-4l2-2-2-2-2 2v-4h-3zm9 24h-7l-4-4c0 1-1 2-2 2l4 4v7h3v-4l2 2 2-2-2-2h4v-3zm-12-7c0 2-2 5-5 5s-5-3-5-5c0-3 2-6 5-6s5 3 5 6zm-81 91v3l-2-2-2 1 4 3v4h2v-4l3-3-1-1-2 2v-3h-2zm2 18l-1 1c-1 0-1 0-1-1v4l-4 4 2 1 2-2v2h2v-2l2 2 1-1-3-4v-4zm-6-3v-1-1h-4l-3-4-2 2 2 2h-2v2h3l-2 2 1 1 3-3h4zm-7-6h5l3 2 1-1-2-3v-5h-2v3l-2-1-1 1 1 2h-3v2zm8 7l-3 3h-5v2h3l-2 2 2 1 1-2v3h2v-5l3-2c0-1-1-1-1-2zm17-5l-1-2-4 4h-3v2h3l4 3 1-1-2-2h2v-2h-2l2-2zm-4-7l-2 1v-3h-2v5l-3 3c1 0 1 1 2 1l3-2h4v-2h-2l1-2-1-1zm2 15h-4l-3-3c0 1-1 1-2 2l3 2v5h2v-3l2 2 1-1-1-2h2v-2zm-8-5c0 2-1 3-3 3s-4-1-4-3 2-4 4-4 3 2 3 4zm-74-92v1l-1-1-1 1 2 2v3h2v-3l2-2-1-1-1 1v-1h-2zm0 18v1h2v-1l1 1 1-1-2-2v-3h-1-1v3l-2 2 1 1 1-1zm-9-8h2l-2 2 1 1 3-3h3v-1h-3l-2-3-1 1 1 2h-2v1zm2-4h3l2 2c0-1 1-1 1-1l-2-2v-4h-1v2l-1-1-1 1 1 1h-2v2zm4 12v-4l2-2s-1 0-1-1l-2 2h-3v2h2l-1 1 1 1 1-1v2h1zm13-12l-3 3h-2v1h2l3 3 1-1-2-2h2v-1h-2l2-2-1-1zm-5-5v4l-2 2c1 0 1 0 1 1l2-2h4v-2h-2l1-1-1-1-1 1v-2h-2zm5 12h-4l-2-2c0 1-1 1-1 1l2 2v4h1v-2l2 1 1-1-2-1h3v-2zm-6-4c0 2-1 3-3 3-1 0-2-1-2-3 0-1 1-2 2-2 2 0 3 1 3 2z"/></svg>