<svg width="64" height="64" viewBox="0 0 1000 1000" xmlns="http://www.w3.org/2000/svg"><path d="M821 427c-45-44-99-57-159-35-12 4-16 5-21-8-40-98-131-152-234-139-95 11-170 85-187 187-1 6 0 13-8 17-16 7-30 17-40 29h-1s-79 75-1 162c2 2 4 5 6 7 1 0 1 1 1 1 19 18 43 29 73 32 30 2 61 0 92 1l262-1c40 0 76 1 112 0 64-2 110-33 136-91 24-55 12-120-31-162zM573 123c-26 21-41 49-43 82-1 13 0 25 3 37 41 17 76 47 101 88 4 1 8 1 13 1 70-1 114-60 114-108-17 21-37 32-62 35-26 2-48-5-67-22-17-14-27-32-30-53-5-32 5-60 28-84-22 2-41 11-57 24zm-38-21c1 0 2 1 2 2l3 13c1 4 5 5 7 2l9-10c0-1 2-2 3-2l13 2c4 0 6-4 4-6l-7-12c-1-1-1-2 0-3l5-13c1-3-2-6-5-5l-13 3c-1 0-2 0-3-1l-10-9c-3-2-7 0-7 3l-1 13c0 2-1 3-2 4l-11 6c-3 2-3 6 0 8l13 5zm219 103l13 5c1 0 2 1 2 3l3 13c1 3 5 4 7 1l8-10c1-1 2-1 4-1l13 1c3 0 6-3 4-6l-7-11c-1-2-1-3-1-4l6-12c1-3-2-7-5-6l-13 3c-1 1-2 0-3 0l-10-9c-3-2-7-1-7 2l-1 14c0 1-1 2-2 3l-11 7c-3 1-3 6 0 7zm-94-51v8c0 1-1 2-2 3l-7 4c-2 1-2 4 0 5l8 3c1 0 2 1 2 2l2 9c0 2 3 2 4 1l6-7c1-1 2-1 2-1l9 1c2 0 4-3 3-4l-5-8c0-1-1-2 0-2l3-8c1-2-1-4-3-4l-8 2h-3l-6-6c-2-2-4-1-5 2zm84-5c1 0 1 1 1 1l1 6c1 2 3 2 3 1l4-5h8c1 0 2-1 1-2l-3-6v-1l3-6c0-1-1-3-2-2l-6 1c-1 1-1 0-2 0l-5-4c-1-1-2 0-3 1v6c0 1 0 1-1 2l-5 3c-1 1-1 2 0 3l6 2zM640 89l1 1 2 8c0 1 2 2 3 1l5-6c1-1 1-1 2-1l7 1c2 0 4-2 3-4l-4-6c-1-1-1-1-1-2l3-7c1-2 0-3-2-3l-7 2c-1 0-2 0-2-1l-6-5c-1-1-4 0-4 2v7c0 1-1 2-1 2l-7 4c-1 1-1 3 1 4l7 3zm-124 56c1 0 1 0 1 1l2 5c0 1 1 1 2 0l4-4h6c1 0 2-1 1-2l-2-5c-1 0-1-1 0-1l2-5c0-1-1-2-2-2l-5 1c-1 1-1 0-2 0l-3-3c-1-1-3-1-3 1v5l-1 1-4 3c-1 0-1 2 0 2l4 3zm18 764c0 16-13 29-29 29s-28-13-28-29 12-29 28-29 29 13 29 29zm-20-93c0 8-6 14-14 14s-14-6-14-14 6-15 14-15 14 7 14 15zm228-29c0 16-13 29-29 29s-29-13-29-29 13-29 29-29 29 13 29 29zm-163-34v6l-5-5-4 4 9 9v10h6v-10l9-9-4-4-5 5v-6h-6zm6 49h-6v10l-9 9 4 4 5-5v6h6v-6l5 5 4-4-9-9v-10zm-15-10c-1-1-1-2-1-3s0-1 1-2h-10l-10-10-4 4 6 6h-6v5h6l-6 5 4 4 10-9h10zm-19-16l13-1 7 8c1-2 3-3 4-4l-7-7v-13h-5v7l-5-4-3 4 4 4h-8v6zm20 20l-7 7h-13v6h8l-4 4 4 4 4-5v8h5v-13l7-7c-1-1-3-2-4-4zm43-19l-9 10h-10v5h10l9 9 4-3-5-6h6v-5h-6l5-6-4-4zm-17-19v14l-8 7c2 1 3 2 4 3l7-7h13v-5h-7l4-4-4-4-4 4v-7l-5-1zm5 55l4 4 4-4-4-4h8v-6l-14 1-7-8c-1 2-2 3-4 4l8 7v13h5v-7zm-20-33c-5 0-10 4-10 9 0 6 5 10 10 10s10-4 10-10c0-5-4-9-10-9zm-220-80v13l-12-12-8 8 20 21v23c2-1 4-1 6-1s5 0 6 1v-23l21-21-8-8-12 12v-13h-13zm12 109c-2 0-4 1-6 1s-4-1-6-1v23l-21 21 9 8 12-12v13h12v-13l13 12 8-8-21-21v-23zm-34-22v-6-6h-22l-21-21-9 8 13 13h-14v12h14l-13 12 9 9 21-21h22zm-41-38h29l16 16c3-3 5-6 9-8l-16-16v-30h-13l1 18-10-10-8 9 9 9h-17v12zm45 47l-16 16h-29l-1 12h18l-9 10 8 8 9-9v17h12l1-29 16-16c-4-2-7-5-9-9zm105-34l-8-8-21 21h-23c0 2 1 4 1 6s-1 4-1 6h23l21 21 8-9-12-12h13v-12h-13l12-13zm-48-51v30l-16 16c3 2 6 5 8 8l16-16 30 1v-12l-18-1 10-9-9-9-9 10v-18h-12zm38 101h-30l-16-16c-2 4-5 6-8 9l16 16v29h12v-17l9 9 9-8-10-10h18v-12zm-71-53c-12 0-21 10-21 22s9 22 21 22c13 0 22-10 22-22s-10-22-22-22zm244 89v2l-2-2-1 1 3 4v4h2v-4l4-4-1-1-3 2v-2h-2zm2 19h-1-1v4l-3 4 1 1 2-2v2h3v-2l2 2 1-1-3-4v-4zm-5-4c-1 0-1-1-1-1s0-1 1-1h-4l-4-4-2 2 3 2h-3v2h3l-3 2 2 2 4-4h4zm-8-6h5l3 2s1-1 2-1l-3-3v-5h-2v3l-2-2-2 2 2 1h-3v3zm8 8l-3 3h-5v2h3l-2 1 2 2 2-2v3h2v-5l3-3c-1 0-1-1-2-1zm19-6l-2-2-4 4h-4c1 0 1 1 1 1s0 1-1 1h4l4 4 2-2-3-2h3v-2h-3l3-2zm-9-9v5l-3 3c1 0 1 1 2 1l3-3h5v-2h-3l2-1-2-2-2 2v-3h-2zm7 18h-5l-3-3c-1 0-1 1-2 1l3 3v5h2v-3l2 2 1-2-1-1h3v-2zm-9-6c0 2-1 4-4 4s-3-2-3-4 1-4 3-4 4 2 4 4z"/></svg>