<svg width="64" height="64" viewBox="0 0 1000 1000" xmlns="http://www.w3.org/2000/svg"><path d="M842 448c-48-47-106-61-170-37-12 4-17 4-22-9-42-105-139-162-250-149-101 12-181 92-199 200-1 6 0 15-8 18-18 7-32 18-44 31s-85 80-2 173l7 7 1 2v-1c21 20 46 31 78 34s65 1 98 1c12 1 14-6 17-16l46-168c3-11 7-16 20-16 44 1 88 1 132 0 14 0 16 4 12 17-9 31-17 62-27 96h141c-21 30-40 57-61 87 43 0 81 1 120 0 68-3 117-36 144-98 26-58 14-127-33-172zM509 661c-13 0-19-2-13-17 8-27 14-55 23-82 3-11 0-14-10-14-25 1-50 1-75 0-8 0-13 3-15 11-15 54-30 109-46 164-2 8 0 12 10 12 19-1 39 0 58 0 15-1 21 0 16 18-16 60-29 121-43 182l3 2c65-91 130-182 197-277-38 0-72 0-105 1zm171-348c-6-3-11-2-17 2-8 7-6 21 4 26 12 7 25 13 37 19 11 5 15 5 25-3 0-1 1-3 2-4v-2c1-8-2-14-9-17l-42-21zm-229-98c-3 5-4 9-6 14 79-2 149 33 194 95 2-3 5-7 7-11 27-53 5-119-49-146s-119-6-146 48zm222 39c-1 6 2 13 8 16 2 1 5 2 7 2 16-1 32-2 49-3 8 0 14-8 13-16 0-8-6-15-15-15-16 1-33 2-50 3-6 1-11 6-12 13zm-67-98c8 4 17 1 21-7 4-7 7-14 10-21l10-20h1c3-8 0-18-7-21-8-4-17-1-21 7-7 13-14 27-21 41-4 8-1 17 7 21zm-232 39l21 10c7 3 14 7 20 10 8 4 17 2 21-6 4-7 2-17-6-21-14-8-28-15-43-22-8-3-17 0-20 8-4 8-1 17 7 21zm284 10c5 2 10 3 15 0 14-9 27-18 41-27 7-5 8-14 3-21-4-7-13-9-20-5-14 9-28 18-41 27-10 6-8 21 2 26zm-125-67c11 6 23-2 22-14 0-16-2-31-3-47 0-9-7-15-16-14-9 0-15 7-15 16 1 15 2 31 3 46 1 6 3 11 9 13zm-76 18c2 2 4 4 6 5 7 4 14 2 19-3s6-13 2-19c-9-13-17-26-26-39-5-7-15-9-22-4s-9 14-4 22c8 12 17 25 25 38zm107 653v6l-6-6-4 4 10 10v11h6v-11l10-10-4-4-6 6v-6h-6zm6 53h-6v11l-10 10 4 4 6-6v6h6v-6l6 6 4-4-10-10v-11zm-17-11v-3-3h-11l-10-10-4 4 6 6h-7v6h7l-6 6 4 4 10-10h11zm-20-18h14l8 7 4-4-8-8v-14h-6v9l-4-5-4 4 4 5h-8v6zm22 23l-8 7h-14v6h8l-4 5 4 4 5-5v9h5l1-14 7-8-4-4zm51-17l-4-4-10 10h-11v6h11l10 10 4-4-6-6h7v-6h-7l6-6zm-19-6h14v-6h-8l4-5-4-4-5 5v-9h-5l-1 15-7 7c1 1 3 3 4 5l8-8zm14 30h-14l-8-7c-1 1-2 3-4 4l8 8v14h6v-9l4 5 4-4-4-5h8v-6zm-34-4c6 0 10-5 10-11s-4-11-10-11-11 5-11 11 5 11 11 11zm-348-83v11l-10-10-7 7 17 18v18h10v-18l18-18-7-7-11 10v-11h-10zm10 91c-1 1-3 1-5 1s-3-1-5-1v19l-17 17 7 7 10-10v11h10v-11l11 10 7-7-18-17v-19zm-28-18v-5-5h-19l-17-18-7 7 10 11h-11v10h11l-10 10 7 7 17-17h19zm-35-31h25l13 13c2-3 5-5 7-7l-13-13v-25h-10v15l-8-8-7 7 8 8h-14l-1 10zm38 39l-13 13h-24v10h14l-8 8 7 7 8-8v14h10v-24l13-13-7-7zm87-29l-7-7-17 18h-19c1 1 1 3 1 5s0 3-1 5h19l17 17 7-7-10-10h11v-10h-11l10-11zm-40-42v25l-13 13c3 2 5 4 7 7l13-13h25v-10h-15l8-8-7-7-8 7v-14h-10zm32 84h-25l-13-13c-2 2-4 5-7 7l13 13v24h10v-14l8 8 7-7-8-8h15v-10zm-59-44c-10 0-18 8-18 18s8 18 18 18 18-8 18-18-8-18-18-18zm462-49v5l-5-5-3 3 8 8v9c1 0 2-1 2-1 1 0 2 1 3 1v-9l8-8-4-3-4 5v-5h-5zm5 41h-5v9l-8 8 3 3 5-5v5h4v-5l5 5 3-3-8-8 1-9zm-13-8c-1-1-1-2-1-3s0-1 1-2h-9l-8-8-3 3 5 5h-6v4h6l-5 5 3 3 8-8 9 1zm-16-15h11l6 6 3-3-6-6v-11h-4v7l-4-4-3 3 3 4h-6v4zm17 18l-6 6h-11v5h6l-3 3 3 3 4-3v6h4v-11l6-6c-1 0-2-2-3-3zm40-13l-3-3-8 8h-9v5h9l8 8 3-3-5-5h5v-5h-5l5-5zm-18-19v11l-7 6c2 1 3 2 4 3l6-6h11v-4h-7l4-4-3-3-4 4v-7h-4zm14 38h-11l-6-6c-1 2-2 3-4 3l7 6v12h4v-7l4 4 3-4-4-3h7v-5zm-18-12c0 5-4 9-9 9s-8-4-8-9c0-4 4-8 8-8s9 4 9 8zm-351 43v3l-2-2-2 1 4 4v5h3v-5l4-4-2-1-3 2v-3h-2zm3 22h-2v4l-4 4 1 2 3-3v3h2v-3l3 3 1-2-4-4v-4zm-7-5v-1-1h-4l-4-4-2 2 3 2h-3v3h3l-3 2 2 2 4-4 4-1zm-8-7h6l3 3c0-1 1-1 2-2l-3-3v-5h-3v3l-2-2-1 2 2 2h-4v2zm9 9l-3 3h-6v3h4l-2 1 1 2 2-2v4h3v-6l3-3c-1-1-2-1-2-2zm20-6l-2-2-4 4h-4v2h4l4 4 2-2-2-2h2v-2h-2l2-2zm-9-10v5l-3 3c0 1 1 1 1 2l4-3h5v-2h-3l2-2-2-2-2 2v-3h-2zm7 19h-5l-4-3c0 1-1 1-1 2l3 3v5h2v-3l2 2 2-2-2-2h3v-2zm-9-6c0 2-2 4-4 4-3 0-5-2-5-4s2-4 5-4c2 0 4 2 4 4z"/></svg>