<svg width="64" height="64" viewBox="0 0 1000 1000" xmlns="http://www.w3.org/2000/svg"><path d="M812 417c-44-43-97-55-155-34-11 4-15 4-21-8-38-95-126-147-227-136-92 11-164 84-181 182-1 6-1 14-8 17-16 7-29 17-39 28s-78 73-2 157c2 3 4 5 6 8 1 0 1 0 1 1v-1c19 18 42 29 71 31 29 3 59 0 89 1h255c39 0 74 1 109 0 62-2 107-32 132-89 23-54 12-116-30-157zM571 121c-26 21-40 47-42 80-1 12 0 24 3 36 40 17 74 46 98 86h12c68 0 111-58 112-104-17 20-36 31-61 33-25 3-46-5-65-21-16-13-26-31-29-51-5-32 5-59 27-82-21 2-39 10-55 23zm-37-21c1 1 2 2 2 3l3 13c1 3 5 4 7 2l8-10c1-1 2-2 3-2l13 1c3 1 5-3 4-6l-7-10c-1-1-1-3 0-4l5-12c1-3-2-6-5-5l-12 3c-2 0-3 0-4-1l-10-9c-2-2-6 0-6 3l-1 13c0 1 0 2-2 3l-11 7c-3 1-2 6 1 7l12 4zm213 101l12 5c1 0 2 1 3 2l2 13c1 3 5 4 7 2l8-10c1-1 2-2 4-2l13 2c3 0 5-4 3-6l-7-11v-4l5-12c2-3-1-6-4-5l-13 3c-1 0-2 0-3-1l-10-8c-2-2-6-1-6 2l-1 13c0 1-1 3-2 3l-11 7c-3 2-3 6 0 7zm-91-50l-1 9c0 1 0 1-1 2l-7 4c-2 1-2 4 0 5l8 3c1 0 1 1 1 2l2 8c1 2 3 3 5 1l5-6c1-1 2-1 3-1h8c2 1 4-2 3-3l-5-8v-2l3-8c1-2-1-4-3-4l-8 3c-1 0-2 0-2-1l-7-6c-2-1-4 0-4 2zm81-4c1 0 1 0 1 1l1 5c1 2 3 2 4 1l3-4c1-1 1-1 2-1l6 1c1 0 2-2 1-3l-3-5v-2l2-5c1-1 0-3-2-2l-5 1h-2l-4-4c-1-1-3 0-3 1l-1 6v1l-5 3c-2 1-2 3 0 3l5 3zM636 88l1 1 1 8c1 1 3 2 4 0l5-5c0-1 1-1 2-1l7 1c2 0 3-2 2-4l-4-6v-2l3-6c1-2-1-4-3-3l-7 1c0 1-1 0-2 0l-5-5c-1-1-3 0-4 2v7c0 1 0 1-1 2l-6 3c-2 1-2 4 0 4l7 3zm-120 54c0 1 1 1 1 1l1 5c0 1 2 2 2 1l4-4s0-1 1 0h5c1 0 2-1 1-2l-2-5c-1 0-1-1 0-1l2-4c0-2-1-3-2-2l-5 1s-1 0-1-1l-4-3c-1-1-2 0-2 1l-1 5v1l-5 3c-1 0-1 2 0 2l5 2zm74 700c-8-3-13 0-18 5-21 20-41 41-61 61-8 7-13 16-3 25 9 8 17 4 25-4 19-19 39-38 58-58 4-4 8-8 8-13 0-8-3-13-9-16zm10-106c-27 26-53 53-80 80-5 5-6 13-2 20 3 7 9 11 20 11 3 0 7-2 11-6 26-26 52-52 78-79 8-8 8-17 0-26-9-8-19-8-27 0zm100 39c-2 1-4 1-5 2-19 12-34 27-46 46-5 6 0 14 5 19 6 5 14 8 20 3 17-12 31-26 43-42 7-12-3-27-17-28zm-348-88v13l-12-12-9 8 21 21v22c2-1 3-1 6-1s3 0 5 1v-22l21-21-9-8-12 12v-13h-11zm11 106c-2 1-4 1-6 1s-4 0-6-1v22l-20 21 8 8 13-12v13h11v-13l12 12 9-8-21-21v-22zm-33-21v-6-6h-22l-20-20-8 8 12 12h-13v12h13l-12 12 8 8 20-20h22zm-40-37h28l16 16c2-3 5-6 8-8l-16-16v-29l-11 1v17l-10-9-8 8 9 9h-17l1 11zm44 46l-16 15h-28v12h17l-10 9 9 8 9-9v17l11 1 1-29 15-16c-3-2-6-5-8-8zm102-33l-8-8-21 20h-22c1 2 1 4 1 6s0 4-1 6h22l21 20 8-8-12-12h13v-12h-13l12-12zm-47-50v29l-16 15c3 3 6 5 8 9l16-16h29v-11l-17-1 9-9-8-8-9 9v-17h-12zm37 98h-29l-15-15c-3 3-5 6-9 8l16 16v28h12v-17l9 9 8-8-9-9h17v-12zm-69-51c-11 0-21 9-21 21s10 21 21 21 22-9 22-21-10-21-22-21zm116 100v-4h-4v4l-4-4-3 3 7 7v7h4v-7l7-7-3-3-4 4zm0 32h-4v7l-7 7 3 3 4-4v4h4v-4l4 4 3-3-7-7v-7zm-11-7v-2-2h-8l-6-7-3 3 4 4h-5v4h5l-4 4 3 2 6-6h8zm-14-13h10l5 6c1-2 2-3 3-3l-5-5-1-10h-3v6l-4-4-2 3 3 3h-6v4zm15 16l-5 5h-10v4h6l-3 3 3 3 3-3v5h4v-9l5-5-3-3zm35-11l-3-3-7 7h-7v4h7l7 7 3-3-4-4h4v-4h-4l4-4zm-16-17v9l-6 6c2 0 3 1 3 2l6-5h9v-4h-6l4-3-3-3-3 4v-6h-4zm12 33h-9l-6-5c0 1-1 2-2 3l5 5v9h4v-5l3 3 3-3-3-3h5v-4zm-16-10c0 4-3 7-7 7s-7-3-7-7 3-8 7-8c4 1 7 4 7 8zm-13-100v2l-2-2-2 2 4 3v4h2v-4l3-3-1-2-2 2v-2h-2zm0 26v2h2v-2l2 2 1-2-3-3v-4h-1-1v4l-4 3 2 2 2-2zm-13-11h2l-2 2 2 2 3-4h4v-1-1h-4l-4-4-1 2 2 2h-2v2zm2-6h5l3 2 1-1-3-3v-5h-2v3l-1-2-2 2 2 2h-3v2zm6 17v-5l3-3c-1 0-1-1-1-1l-3 2h-5v2h3l-2 2 1 2 2-2v3h2zm18-17l-4 4h-3v2h3l4 4 2-2-3-2h3v-2h-3l3-2-2-2zm-7-7v5l-3 3c1 0 1 1 2 1l3-2h5v-2h-3l2-2-2-2-2 2v-3h-2zm7 17h-5l-3-2s-1 1-2 1l3 3v5h2v-3l2 2 1-2-1-2h3v-2zm-9-5c0 2-1 4-3 4s-4-2-4-4 1-4 4-4 3 2 3 4z"/></svg>