<svg width="64" height="64" viewBox="0 0 1000 1000" xmlns="http://www.w3.org/2000/svg"><path d="M530 430c-31-30-68-39-109-24-8 3-11 3-14-6-27-66-89-103-160-95-64 8-115 59-127 128-1 4 0 9-5 12-12 4-21 11-28 19s-54 52-1 111c1 1 3 3 4 5h1c13 13 29 20 50 22 20 2 41 0 62 1l179-1c27 0 52 1 76 0 44-1 75-22 93-62 16-38 8-82-21-110zM333 304c28 11 52 32 69 60h9c47 0 77-40 78-73-12 14-26 22-43 23-17 2-32-3-46-14-11-10-17-22-20-36-3-23 4-42 20-58-15 2-28 7-40 17-17 14-27 33-29 55-1 9 0 18 2 26zm151-26l9 4s1 1 1 2l2 9c1 2 4 2 5 1l6-7c0-1 1-1 2-1h9c2 1 4-2 3-4l-5-7c-1-1-1-2 0-3l3-8c1-2-1-5-3-4l-9 2h-2l-7-6c-2-2-4-1-4 2l-1 9c0 1-1 1-1 2l-8 4c-2 2-2 5 0 5zm-64-19c0 1 1 1 1 2l1 6c0 1 2 2 3 0l4-4c0-1 1-1 2-1l6 1c1 0 2-2 1-3l-3-5v-2l2-5c1-2 0-3-2-3l-6 2s-1 0-1-1l-5-4c-1-1-3 0-3 2v6l-1 1-5 3c-2 1-1 3 0 3l6 2zm57-19c1 0 1 1 1 1l1 4c0 1 1 2 2 1l3-3c0-1 0-1 1-1l4 1c1 0 1-1 1-2l-2-4v-1l1-4c1-1 0-2-1-1l-4 1c-1 0-1 0-1-1l-3-2c-1-1-2-1-2 0l-1 5v1l-4 2c-1 0-1 1 0 2l4 1zm-155-3l1 1 1 3c0 1 1 2 1 1l3-3h4c1 0 1-1 1-2l-2-3v-1l1-3c1-1 0-1-1-1l-3 1h-1l-3-3s-1 0-1 1l-1 3v1l-3 2c-1 0-1 2 0 2l3 1zm369 316H575c-8 19-20 34-36 44h155c54 1 94 44 89 96-4 38-47 66-81 53-27-10-40-43-25-64 13-17 37-18 51-2 8 10 20 11 30 4 9-7 11-19 5-30-14-24-47-36-77-28-58 15-77 81-42 130 16 22 38 33 64 38h25c9-3 19-5 29-9 58-26 83-94 54-154-25-53-67-78-125-78zm-95-125c13 1 24-6 24-19 1-21 17-34 31-35 21-1 40 13 46 32 10 34-17 73-52 76-22 2-44 2-67 1 5 14 6 29 4 44h58c56 0 105-50 104-106-1-52-38-89-90-91-41-2-77 34-77 75 0 13 8 22 19 23zm324-14c-17-20-40-28-66-23-24 6-39 21-46 45-1 5-1 10-1 15 0 12 8 20 20 21 11 1 20-6 23-17 4-17 10-22 22-20 14 2 23 16 21 30-3 20-19 33-42 33-28 1-56 0-84 0-13 1-21 6-24 16-3 14 5 27 20 28 17 1 35 0 52 0 23-1 46 3 68-4 52-18 72-84 37-124zM362 660v4l-4-4-2 2 6 7v7c1 0 1-1 2-1 0 0 1 1 2 1v-7l6-7-3-2-4 4v-4h-3zm4 33h-4v7l-6 6 2 3 4-4v4h4v-4l4 4 2-3-6-6v-7zm-11-7v-2-2h-7l-6-6-2 3 3 4h-4v3h4l-3 4 2 3 6-7h7zm-12-11h9l5 5c0-1 1-2 2-3l-5-5v-9h-3v5l-3-2-3 2 3 3h-5v4zm8 30h3v-9l5-5c-1 0-2-1-3-2l-4 5h-9v3h5l-3 3 3 3 2-3 1 5zm37-26l-2-3-7 6h-6v4h6l7 6 2-2-3-4h4v-4h-4l3-3zm-14-16v9l-5 5c1 1 2 2 2 3l5-5h9v-4h-5l3-3-3-2-3 3v-6h-3zm11 31h-9l-5-5c0 1-1 2-2 2l5 5v9h3v-5l3 3 3-3-3-3h5v-3zm-15-10c0 4-3 7-6 7-4 0-7-3-7-7 0-3 3-6 7-6s6 3 6 6zm-156-61v9l-8-8-6 6 14 14v15h8v-15l14-14-5-6-9 8v-9h-8zm8 75h-8v15l-14 14 6 6 8-8v9h8v-9l9 8 6-6-15-14v-15zm-23-16v-4-4h-15l-15-14-5 6 8 8h-9v8h9l-8 9 5 6 15-15h15zm-28-25h20l11 11c1-2 3-4 6-6l-11-11-1-20h-8v12l-6-6-6 5 7 7h-12v8zm31 32l-11 11h-20v8h12l-7 6 6 6 6-6v11h8l1-20 11-11c-3-1-5-3-6-5zm71-23l-6-6-14 14h-15v8h15l14 15 6-6-8-9h9v-8h-9l8-8zm-33-35v20l-11 11c3 1 5 3 6 6l11-11h20v-8h-12l7-7-6-6-7 7 1-12h-9zm26 69h-20l-11-11c-1 2-3 4-6 6l11 10v21h9v-12l6 6 6-6-7-6h12v-8zm-48-37c-8 0-15 7-15 15s7 15 15 15 15-6 15-15c0-8-7-15-15-15zm81 71v-3h-3v3l-2-3-2 2 4 5v5h3v-5l5-5-2-2-3 3zm0 22h-3v5l-4 5 2 2 3-3v3h2v-3l3 3 2-2-5-5v-5zm-8-5v-1-2h-5l-5-5-2 2 3 3h-3v3h3l-3 3 2 2 5-5h5zm-9-9h7l3 4 2-2-3-4v-6h-3v4l-2-2-2 2 2 2h-4v2zm10 11l-3 4h-7v3h4l-2 2 2 2 2-2v4h3v-7l3-4c-1 0-1-1-2-2zm25-8l-2-2-5 5h-6c1 1 1 1 1 2l-1 1h6l5 5 2-2-3-3h3v-3h-3l3-3zm-12-11v6l-3 4 2 2 3-4h7v-2h-4l2-3-2-2-2 3v-5l-3 1zm9 23h-7l-3-4-2 2 3 4v7h3v-4l2 2 2-2-2-2h4v-3zm-11-7c0 2-2 5-5 5s-5-3-5-5 2-5 5-5 5 2 5 5zm135-102v3l-3-3-2 2 5 5v5h3v-5l5-5-2-2-3 3v-3h-3zm3 25c-1 0-1 1-2 1s-1-1-1-1v6l-5 5 2 2 3-3v3h3v-3l3 3 2-2-5-5v-6zm-8-5v-1-2h-6l-5-5-2 2 3 3h-3v3h3l-3 3 2 2 5-5h6zm-10-9h7l4 4c0-1 1-1 2-2l-4-4v-7h-3v4l-2-2-2 2 2 2h-4v3zm11 11l-4 4h-7v3h4l-2 2 2 2 2-2v4h3v-7l4-4c-1 0-2-1-2-2zm24-8l-2-2-4 5h-6v3h6l4 5 2-2-2-3h3v-3h-3l2-3zm-11-12v7l-4 4c1 1 2 1 2 2l4-4h7v-3h-4l2-2-2-2-2 2v-4h-3zm9 24h-7l-4-4c0 1-1 2-2 2l4 4v7h3v-4l2 2 2-2-2-2h4v-3zm-12-7c0 3-2 5-5 5s-5-2-5-5 2-6 5-6 5 3 5 6zm-81 91v3l-2-2-2 1 4 3v4h2v-4l3-3-1-1-2 2v-3h-2zm2 19h-2v3l-4 4 2 1 2-2v2h2v-2l2 2 1-1-3-4v-3zm-6-4v-1-1h-4l-3-4-2 2 2 2h-2v2h2l-2 2 2 1 3-3h4zm-7-6h5l3 2 1-1-2-3v-5h-2v3l-2-1-1 1 1 2h-3v2zm8 7l-3 3h-5v2h3l-1 2 1 1 2-2v3h2v-5l2-2s-1-1-1-2zm17-5l-1-2-4 4h-4c1 0 1 1 1 1s0 1-1 1h4l4 3 1-1-2-2h2v-2h-2l2-2zm-4-7l-2 1v-3h-2v5l-3 3c1 0 1 1 2 1l3-2h4v-2h-2l1-2-1-1zm2 15h-4l-3-3-2 2 3 2v5h2v-3l2 2 1-1-1-2h2v-2zm-8-5c0 2-1 4-3 4s-4-2-4-4 2-4 4-4 3 2 3 4zm-74-92v1l-1-1-1 1 2 2v3h2v-3l2-2-1-1-1 1v-1h-2zm0 18v1h2v-1l1 1 1-1-2-2v-3h-1-1v3l-2 2 1 1 1-1zm-9-8h2l-2 2 1 1 3-3h3v-1h-3l-2-3-1 1 1 2h-2v1zm2-4h3l2 2 1-1-2-2v-4h-1v2l-1-1-1 1 1 1h-2v2zm4 12v-4l2-2s-1 0-1-1l-2 2h-3v2h2l-1 1 1 1 1-1v2h1zm13-12l-3 3h-2v1c0 1 0 0 0 0h2l3 3 1-1-2-2h2v-1h-2l2-2-1-1zm-5-5v4l-2 2c1 0 1 0 1 1l2-2h4v-2h-2l1-1-1-1-1 1v-2h-2zm5 12h-4l-2-2c0 1-1 1-1 1l2 2v4h1v-2l1 1 1-1-1-1h2l1-2zm-6-3c0 1-1 2-3 2s-2-1-2-2c0-2 1-3 2-3s3 1 3 3z"/></svg>