<svg width="64" height="64" viewBox="0 0 1000 1000" xmlns="http://www.w3.org/2000/svg"><path d="M883 679c-4-17-16-28-35-32-31-6-62-13-93-19-3-1-7 0-7-5s4-6 8-8c15-3 31-7 46-12 26-7 39-30 32-58-6-22-32-38-56-32-20 6-39 11-59 17-6 2-10 1-9-6 0-16 1-33-1-49 0-6 3-8 8-6 19 8 39 10 58 16 24 8 52-6 58-29 8-28-5-53-31-60l-47-12c-5-1-8-3-8-7 0-6 6-4 9-5 32-7 65-13 97-20 16-3 30-22 32-38 2-27-7-43-28-53-21-9-39-5-58 14-20 22-40 45-60 67-4 4-7 6-14 11 6-21 9-39 15-57 8-22-4-52-24-59-30-10-55 1-63 28-6 20-13 41-18 62-2 7-5 8-11 5-12-8-23-16-36-22-11-5-8-10-2-16 13-13 24-25 37-37 27-25 22-67-15-81-17-7-32-1-45 10s-25 24-37 36c-3 3-7 6-13 8 12-35 22-69 35-103 9-23-10-59-34-63-5-1-9-1-14-1-4 0-9 0-13 1-25 4-43 40-34 63 12 34 23 68 35 103-7-2-10-5-14-8-12-12-24-25-37-36s-27-17-45-10c-36 14-42 56-15 81 13 12 25 24 37 37 6 6 9 11-2 16-12 6-23 14-35 22-6 3-9 2-11-5-6-21-12-42-19-62-8-27-33-38-62-28-21 7-32 37-25 59 6 18 10 36 15 57-6-5-10-7-13-11-20-22-40-45-61-67-18-19-36-23-57-14-22 10-30 26-28 53 1 16 16 35 31 38 33 7 65 13 97 20 4 1 10-1 10 5 0 4-4 6-8 7l-48 12c-25 7-39 32-31 60 6 23 35 37 58 29 19-6 40-8 58-16 5-2 9 0 8 6-2 16-1 33 0 49 0 7-3 8-10 6-19-6-39-11-59-17-23-6-50 10-55 32-7 28 6 51 32 58 15 4 30 9 46 12 4 1 7 3 8 8 0 5-4 4-8 5-31 6-62 13-93 19-18 4-31 15-35 32-4 18-4 38 14 52 15 11 31 17 50 8 23-10 34-31 50-48 14-14 26-30 43-42-5 10-2 21-7 29-5 9-4 20-8 29-9 24 8 50 37 59 17 6 45-10 51-30 6-21 13-42 19-63 2-8 6-8 11-4 11 8 22 15 34 20 11 5 10 10 3 17-13 13-26 25-38 38-8 9-15 19-16 31-1 20 7 35 24 45 19 12 36 9 53-6 11-9 20-20 30-29 4-3 8-5 13-3 3 2 2 7 1 10-10 25-16 52-27 77-6 16-4 29 3 43 7 17 25 26 43 26s36-9 44-26c6-14 9-27 2-43-10-25-16-52-27-77-1-3-2-8 2-10s9-1 12 3c10 9 20 20 30 29 17 15 34 18 54 6 17-10 25-25 23-45-1-12-7-22-15-31-13-13-26-25-38-38-8-7-9-12 2-17 12-5 24-12 35-20 5-4 9-4 11 4 5 21 12 42 19 63 6 20 33 36 50 30 29-9 47-35 37-59-4-9-2-20-8-29-4-8-2-19-7-29 18 12 30 28 43 42 16 17 28 38 50 48 19 9 35 3 51-8 18-14 18-34 13-52zm-383-63c-64 1-121-59-116-116-5-57 53-117 115-116h3c62-1 119 59 114 116 5 57-52 117-116 116z"/></svg>