<svg width="64" height="64" viewBox="0 0 1000 1000" xmlns="http://www.w3.org/2000/svg"><path d="M496 63h17c233 6 424 196 425 434 1 247-195 442-443 440-239-2-433-197-432-438C65 254 260 65 496 63zM272 463h-44c-6 0-10 2-14 7-25 34-42 72-54 113-2 6-2 13 0 19 14 59 45 107 87 150 4 4 10 7 15 9 43 14 88 11 132 5 2 0 5-2 6-5 23-42 47-85 70-128 3-6 2-10-1-15-33-44-62-89-80-142 0-2-4-5-7-5-37-3-75-5-110-8zm-83-122c4 38 15 74 29 109 1 2 6 4 9 4 47 3 94 4 140 7 16 2 28 0 34-16 2-4 5-7 8-10 25-34 54-64 85-92 3-2 5-7 5-10-4-45-14-89-30-132-2-5-5-8-11-10-41-13-82-14-124-9-6 1-13 2-18 5-19 14-39 27-57 43-27 24-46 55-64 85-2 3-3 6-5 9-1 4-2 12-1 17zm356 521c44 2 87-9 129-29 11-4 19-11 26-20 23-32 44-66 54-105 2-7 1-12-4-18-28-34-59-65-93-93-5-4-9-6-16-4-49 17-100 26-152 34-3 0-8 3-9 6-20 45-44 88-70 130-4 5-3 9 0 14 18 25 38 46 61 64 15 11 30 22 51 21 7-1 14 0 23 0zm245-548c-3-39-16-73-31-106-1-2-4-4-5-6-41-38-89-63-144-73-19-4-37-5-55 5-26 15-53 29-74 51-4 5-5 9-3 15 16 41 26 84 30 128 0 6 3 9 8 11 52 14 99 35 144 64 5 4 9 3 14 0 34-19 67-39 102-58 7-4 13-8 15-14 2-4 0-12-1-17zm107 184c-1-13-1-26-3-39-1-10 0-23-6-31-23-32-51-60-85-81-6-3-10-2-15 1-36 21-72 42-109 62-5 3-8 7-8 14 0 51-4 103-14 154-1 3 1 8 4 10 36 29 68 61 97 97 4 5 7 6 13 4 37-10 66-32 92-58 2-1 3-4 4-6 14-36 26-71 30-110v-17zM85 564c19 109 71 198 157 266 4 3 7 2 6-3-1-19-2-37-3-56 0-5-2-10-5-13-43-45-75-96-90-156-1-4-3-7-6-9-17-11-35-22-53-33-4-2-7-1-6 4zm25-207l4-3c18-15 37-27 59-34 7-2 11-6 15-12 31-52 69-97 122-128 3-2 5-7 6-10 5-16 9-32 14-48v-3c1-2-3-1-7 1-102 49-174 126-213 232-2 4-2 7 0 5zm327 557c104 16 201-5 292-62 4-2 4-6-1-7-9-2-17-4-25-7-7-3-13-2-19 1-32 14-63 28-98 30-26 1-52 0-78 1-5 0-10 1-14 4-17 14-36 26-58 35-4 2-4 4 1 5zm353-718C719 131 638 94 544 83c-5-1-6 1-2 4 12 9 23 18 35 26 3 2 6 3 10 4 65 6 122 32 170 76 2 3 6 4 9 5 7 1 14 2 22 3 4 1 5-2 2-5zm115 214c-2 12-7 24-3 37 2 9 2 19 3 29 4 50-7 97-26 142-7 17-1 33 0 49 1 5 3 5 4 1 37-83 46-169 26-258-1-5-3-4-4 0z"/></svg>