<svg width="64" height="64" viewBox="0 0 1000 1000" xmlns="http://www.w3.org/2000/svg"><path d="M992 329l-7-8c-15 0-23 7-19 18 11 21 10 40-5 59-5 5-3 13 3 17 7 5 14 3 19-3 5-8 10-16 13-25 8-20 3-39-4-58zM653 858c0-3 1-7 0-10-6-13-22-11-26-1-7 23-22 35-45 38-8 1-12 7-10 15 1 9 7 12 15 11 10-2 18-4 27-8 20-9 34-25 39-45zM72 532c7-1 11-7 10-15-2-9-8-12-16-11-9 2-18 4-27 8-19 9-34 24-38 44-1 4-2 7 0 11 5 13 21 11 25 0 8-22 22-34 46-37zm594 341c-10 29-29 46-60 49-9 2-15 9-13 20s10 15 21 14c12-2 24-5 35-10 26-12 45-33 50-59 1-4 2-9 0-13-7-18-28-15-33-1zM539 415c-12 5-15 2-18-8-5-19-11-38-16-56-3-7-2-13 3-19 40-50 46-106 25-166-20-57-79-100-135-98 1 5 1 9 3 13 18 69 37 137 57 206 2 10 1 16-6 24-46 51-85 106-102 174-16 70-4 131 51 181 42 38 93 54 149 55 28 1 28 1 35 30 4 18 6 36-1 54s-23 28-44 27c-16-1-29-7-35-23-1-6-5-13 8-13 17 2 28-9 30-24 2-18-5-29-23-34-21-6-42 5-50 27-16 40 7 83 51 97 45 15 86-7 98-52 7-28 3-55-5-82-3-10-3-15 8-19 36-14 63-39 81-73 33-60 33-120-5-178-32-47-102-66-159-43zm-23 85c10 34 18 65 27 97-34-13-46-56-27-97zm-84-396c-1-3-3-7 0-10s7 0 10 2c10 4 19 10 26 18 32 39 43 85 33 135-2 11-7 20-18 28-17-59-34-116-51-173zm-19 459c-13-76 13-140 66-198 7 25 13 47 19 70 2 7-4 10-8 14-50 59-32 147 35 177l27 9c1 0 2 2 3 4 3 12 6 25 10 38-68 9-140-43-152-114zm171 40c-12 0-15-18-17-25-4-10-3-15-1-28 3-13 8-24 24-25 16 0 23 9 27 22 1 4 2 9 2 11 1 14-3 25-12 34-6 6-15 12-23 11zm35 63c-17 8-18 14-26-11-1-4-2-7-3-11-2-9-2-11 7-14 29-11 46-33 50-63 4-25-4-47-27-61-23-13-45-9-67 8-2-6-4-11-5-16-9-30-7-33 23-42 44-14 93 12 110 59 19 54-9 126-62 151zM259 285c-9-2-12 5-13 12-1 2-1 3-2 5-12 83-26 167-38 250-2 12-3 14-14 7-39-24-80-26-119-4-43 24-42 71 0 96 18 11 38 16 59 15 18 1 36-3 52-11 19-11 33-25 36-49 6-50 15-99 23-148 8-52 16-105 24-157 1-8 0-14-8-16zm639 22c-41-15-80-9-116 18-14-90-28-178-42-266-1-9-3-17-13-15-11 2-10 11-9 19 15 94 30 188 44 281 4 25 7 49 31 65 34 21 92 21 125-3 16-12 28-27 25-49-3-28-22-42-45-50z"/></svg>