<svg width="64" height="64" viewBox="0 0 1000 1000" xmlns="http://www.w3.org/2000/svg"><path d="M439 768c-1-5-1-10-1-15V250c0-18 0-18 18-18 34 0 34 0 34 34v484c0 6 0 12-1 18h-50zm561-242h-41c-8 1-11-3-11-11 2-50-8-39 39-41 4 0 9 1 13 1v51zm-635-26c0-52 1-104 0-156 0-11 3-16 15-15 9 1 18 0 27 0 7 0 11 4 10 11v315c0 17 0 17-16 17-8 0-15-1-22 0-11 1-14-4-14-14 1-53 0-105 0-158zm198 1v156c0 11-3 16-14 15-10-1-19-1-28 0-7 0-11-4-10-11V346c0-16 0-17 16-17 36 0 36 0 36 36v136zm-293 1v107c0 11-3 15-13 14h-26c-10 1-13-4-13-13v-61-156c0-12 4-16 16-16 36 1 36 0 36 37v88zm365 0c0 28 0 56 1 84 0 10-3 14-13 13h-27c-10 1-13-4-13-13V451v-38c0-8 3-11 11-11h29c10-1 13 3 13 13-1 29-1 58-1 87zm168-2v-82c0-16 0-16 17-16h24c8-1 11 3 11 11v174c0 8-3 12-11 12h-29c-9 1-12-3-12-12v-87zm-605 0c0 21-1 41 0 62 0 9-3 13-13 13-9-1-19 0-29 0-6 0-10-3-10-10V436c0-7 3-10 10-10h31c8 0 11 4 11 12-1 21 0 41 0 62zm147 1c0 21-1 41 0 62 0 8-3 12-12 12-10-1-19-1-28 0-10 0-13-4-12-13V439c-1-9 2-14 12-13 9 0 18 1 27 0 10-1 13 4 13 14-1 20 0 41 0 61zm363-1v63c0 9-3 12-12 12-10-1-20 0-30 0-7 0-10-3-10-10V435c0-6 3-9 9-9h33c8 0 10 4 10 11v63zm168 0v-50c0-9 3-12 11-12h30c7 0 11 2 11 10v105c0 7-4 10-11 10-10 0-20-1-30 0-8 0-11-4-11-12v-51zm-751 1v39c0 8-3 11-10 11-11-1-21-1-32 0-7 0-10-3-10-10v-81c0-7 3-10 9-10h33c7 0 10 4 10 11v40zm657-1c0 13 0 25 1 38 0 9-3 13-12 13-10-1-20-1-30 0-8 0-10-4-10-11v-79c0-8 3-11 11-11h30c7 0 11 4 11 11-1 13-1 26-1 39zm-730 1c0 28 4 25-26 25-29 0-26 3-26-25 0-30-3-26 27-26 29-1 25-3 25 26z"/></svg>