<svg width="64" height="64" viewBox="0 0 1000 1000" xmlns="http://www.w3.org/2000/svg"><path d="M892 535c-17 0-29-6-37-21-9-15-15-31-22-47-6-12-12-24-21-34-25-26-60-23-79 7-15 23-20 49-26 74-5 23-10 46-19 67-2 4-4 9-9 9-6 0-6-6-7-10-10-35-14-72-18-108-8-58-11-117-32-173-4-12-10-24-19-34-20-28-42-23-56-15-1 0-2 1-3 1-2 2-4 3-6 4 0 1-1 1-1 1l-1 1-2 2c-3 3-6 6-8 9-5 7-10 15-13 24-6 15-11 30-14 46-17 79-18 160-27 240-3 34-7 68-15 101-1 4-1 9-7 9-4 0-5-5-6-8-7-17-12-35-15-53-11-49-17-100-30-148-6-23-12-45-27-64-20-25-52-25-73-1-7 7-12 16-16 25-16 38-21 79-29 118-4 23-8 46-16 68-1 4-2 7-7 7-5 1-6-3-7-6-3-8-6-15-9-23-9-27-17-55-33-79-17-24-40-36-70-36H14c-5 0-9-1-14 2v48c5 2 9 2 14 2 31 0 62 0 93-1 17 0 28 8 36 22 10 18 15 37 22 56 6 18 12 35 23 50 24 35 67 33 88-3 18-29 23-61 29-94 6-31 10-62 19-93 1-4 3-8 4-11 2-4 3-8 7-7 4 0 5 4 6 7 7 18 11 37 15 57 10 51 17 103 32 153 3 10 6 20 10 30 10 23 24 43 50 50h10c22-6 33-22 41-42 15-37 19-77 24-117 8-74 10-149 22-223 3-19 7-38 13-56 1-4 2-10 7-10 7-1 7 6 9 10 11 28 15 57 20 87 8 57 10 116 24 173 3 16 8 31 16 45 20 39 59 31 79 12 17-17 26-38 32-61 9-28 15-57 23-85 1-5 1-12 8-12 6-1 7 7 9 11 8 19 16 38 27 55 18 29 43 45 78 44 37-2 73-1 110-1v-50c-36-1-72-2-108-1z"/></svg>