<svg width="64" height="64" viewBox="0 0 1000 1000" xmlns="http://www.w3.org/2000/svg"><path d="M829 63c27-1 53 3 79 8 11 1 16 6 18 17 25 158-15 291-147 388-134 98-276 184-417 272-10 6-17 6-25-3-29-29-58-57-87-85-8-8-10-14-3-24 91-144 178-291 280-428C602 108 706 65 829 63zM634 277c0 48 38 86 86 86 48-1 86-39 86-87-1-47-40-87-87-86-47 0-85 39-85 87zm-212-13c-42 66-82 128-121 189-6 10-11 10-21 6-52-25-105-23-158-4-12 5-25 9-34-4-10-14-3-26 7-36 37-37 74-75 112-112 29-28 65-39 105-39 35 1 71 0 110 0zm310 380v42c-1 42-13 78-43 108-35 34-70 69-104 105-12 11-25 18-40 9-14-10-8-24-3-36 19-53 20-105-5-157-4-9-3-14 6-20 59-37 117-75 175-113 12-8 14-3 14 8v54zm-502 71c-29 17-48 39-44 74 2 18 14 29 31 30 35 5 56-16 72-44 38 31 40 29 21 77-13 36-44 54-81 63-46 13-94 11-141 19-6 1-12 2-20 4 12-56 8-112 23-166 10-35 29-62 62-77 38-18 48-15 77 20z"/></svg>