<svg width="64" height="64" viewBox="0 0 1000 1000" xmlns="http://www.w3.org/2000/svg"><path d="M257 397c-3 6-3 10 2 15 18 17 35 35 54 51 62 52 131 95 203 132 59 31 119 57 184 72 6 1 10 0 14-5 48-66 65-139 48-218-27-121-133-208-263-209-11 1-25 1-39 3-95 18-163 71-203 159zm657 272c-21-34-49-63-79-91-16-15-32-29-49-43-3-3-5-2-6 1-4 19-7 36-12 54-1 5 0 9 3 14 8 13 16 27 21 42 5 17-4 30-22 35-10 3-21 4-31 3-23-3-46-6-69-12-73-20-141-53-206-90-77-44-149-92-211-156-18-20-35-40-44-66-7-22 1-36 24-41 12-3 26-1 39-2 5 0 11 0 14-3 14-12 28-25 42-38 2-2 3-4 3-4-1-1-1-1-2-1-43-13-86-27-130-38-31-8-62-11-94-5-35 7-50 30-39 64 6 16 14 32 24 46 40 57 92 102 146 145 97 76 202 140 312 193 80 39 163 73 250 91 32 7 65 11 97 5 36-6 50-30 39-64-5-14-12-27-20-39zm-282 65c3-2 3-4 0-5-141-60-270-134-391-226-3-1-5 0-5 3 0 86 49 184 144 231 84 43 167 40 252-3z"/></svg>