<svg width="64" height="64" viewBox="0 0 1000 1000" xmlns="http://www.w3.org/2000/svg"><path d="M882 767c30 1 54 25 55 56 2 29-21 55-51 57-23 1-46 1-69 1-48-1-95 0-143-2-28 0-50-25-50-53-1-69-1-137 0-205 0-31 26-55 57-55 30 1 55 25 55 56v72c0 2 0 5 1 9 34-42 57-87 67-138 7-33 35-52 67-46 30 6 49 36 43 67-8 40-22 78-41 113-13 23-28 45-42 68h51zm-32-309c-13 0-31-5-39-22-13-27-25-56-31-85-6-25 15-50 39-56 27-8 55 3 66 28 10 23 19 47 24 71 8 32-20 64-59 64zm-92-197c-22 11-44 7-64-7-12-10-25-19-38-28-27-17-35-51-20-77 16-26 50-35 77-19 19 12 38 26 56 40 12 10 18 25 19 43-1 20-10 38-30 48zm-236-79h-49c-28-1-52-24-55-53-2-26 17-54 45-57 21-3 43-2 65 0 29 2 51 29 49 56-2 31-25 54-55 54zM203 365c-16 21-46 25-68 12-23-13-37-40-27-64 8-20 19-39 33-55 14-18 40-22 60-13 22 11 33 28 34 54-1 4 0 10-3 14-9 18-17 36-29 52zm94-125c-2 1-5 0-7 0-24 0-44-14-52-36-8-23-1-49 18-63 13-9 28-18 43-25 22-10 49-3 64 14 17 19 20 47 6 66-18 24-44 37-72 44zM171 457c7 17 6 35 3 53-3 21-15 36-35 44-21 8-40 4-56-10-17-14-22-32-20-51v-15c1-27 19-48 46-54 24-4 51 10 62 33zm133 308c31 0 60 27 60 58 1 32-24 58-55 58-32 1-61-27-61-58-1-30 25-57 56-58zM168 629c31 0 58 28 58 60 0 31-25 56-55 56-32 0-60-29-60-62 1-31 25-55 57-54zm323 188c32 0 58 25 58 57-1 32-25 54-58 56-26 1-56-19-57-56-1-31 25-57 57-57z"/></svg>