<svg width="64" height="64" viewBox="0 0 1000 1000" xmlns="http://www.w3.org/2000/svg"><path d="M906 469c-52 0-104 0-157 1-19 0-31 12-31 31 1 19 13 31 32 31h157c12 0 20-6 26-15 2-2 1-5 4-7v-17c-5-14-14-23-31-24zM531 828v-77c0-19-12-31-31-32-18 0-31 12-31 31v157c0 18 13 31 31 31s31-13 31-32v-78zm87-513c14 4 27-1 35-14 27-45 54-90 80-135 9-15 5-33-10-42-16-10-34-6-43 9-27 45-54 90-80 135-3 5-5 11-5 16 0 15 10 28 23 31zM501 62c-18 0-32 12-32 31v156c0 6 1 12 4 17 7 12 22 18 36 15 14-4 23-15 23-31V93c0-17-13-30-31-31zm182 318c5 14 16 23 31 23 6 0 12-3 17-6l87-52c15-10 31-19 47-29 15-10 18-27 9-42s-26-20-40-12c-47 28-93 56-139 84-12 7-16 21-12 34zm184 295c-19-12-39-23-59-34-26-15-52-30-78-44-15-9-32-3-41 13-8 15-4 32 11 41 45 26 91 52 137 78 21 12 46-2 47-29-1-10-6-19-17-25zm-217 26c-9-15-26-20-41-11-16 9-21 26-12 42 26 46 52 92 78 137 8 13 21 18 35 14s23-17 23-31c0-5-2-10-4-14-27-46-53-92-79-137zM282 502c0-20-11-32-31-32H94c-16 0-25 9-31 23v18c3 1 3 4 4 6 6 10 15 16 27 16h157c19-1 31-13 31-31zm65-201c8 13 21 18 35 14 14-3 24-16 24-31 0-5-2-10-5-16-27-45-53-90-80-135-10-15-27-19-43-9-15 9-20 27-11 42 27 45 54 90 80 135zm-212 15c16 10 32 19 48 29 28 17 57 34 86 52 6 3 11 6 18 6 14 0 26-9 30-23 4-13 0-27-12-34-46-28-92-56-138-83-15-9-32-4-41 11s-5 32 9 42zm176 294c-8-16-25-22-41-13-26 14-51 29-77 43-20 12-40 23-60 35-11 6-16 15-16 24 1 27 25 42 46 30 46-26 92-52 138-79 14-8 19-25 10-40zm81 80c-16-9-33-4-42 11-26 45-52 91-78 137-3 4-5 9-5 14 0 14 10 26 23 31 14 4 28-1 35-14 26-46 53-92 79-138 9-15 4-32-12-41z"/></svg>