<svg width="64" height="64" viewBox="0 0 1000 1000" xmlns="http://www.w3.org/2000/svg"><path d="M500 131c-204 0-369 165-369 369 0 147 86 273 210 332l12-223s-22-7-27-9c-46-20-79-80-79-158 0-84 65-157 129-158 64 1 129 74 129 158 0 78-33 138-79 158-1 0-27 10-27 10l13 248c28 7 58 11 88 11 41 0 81-7 117-20l12-221c-30-6-56-26-72-50-20-29 15-294 15-294h23v248h23V284h25v248h23V284h25v248h23V284h18s35 265 15 295c-16 23-41 42-71 49l-1 1 10 190c110-64 184-183 184-319 0-204-165-369-369-369zM301 405c1-6 3-11 3-11 0-2-1-4-3-5s-4-1-6 1c0 0-2 4-6 10-3 5-7 13-10 24-3 8-6 20-7 34-1 7-1 13-1 19 1 8 2 14 4 21 7 21 13 41 33 60 6 7 13 11 18 15l1 1c1 0 2 1 3 2 4 2 7 3 7 3 2 0 4-1 5-2 1-2 0-4-1-6 0 0-3-2-6-5-2-3-4-6-6-10-2-2-4-5-6-8-10-15-16-36-23-57-2-5-3-11-4-16 0-6-1-12-1-17 0-12 1-23 2-31 1-10 2-17 4-22zM500 62C259 62 63 259 63 500s196 438 437 438 438-197 438-438S741 62 500 62zm0 843C277 905 95 723 95 500S277 95 500 95s405 182 405 405-182 405-405 405z"/></svg>