<svg width="64" height="64" viewBox="0 0 1000 1000" xmlns="http://www.w3.org/2000/svg"><path d="M837 747c0 35-28 63-62 63s-63-28-63-63v-6c7 4 14 6 22 6 23 0 42-19 42-42 0-7-2-14-5-20h4c34 0 62 28 62 62zm63 51c-10 25-25 48-44 70-35 37-77 62-127 68-12 2-37 2-50 0-32-5-62-18-86-41-37-34-63-73-67-123-4-59-45-97-104-93-43 2-85 12-128 8-66-6-116-43-123-117-3-44 1-86 11-127 11-45 8-84-35-113 42 1 78 36 80 74 1 32 0 65 0 98 0 19 3 38 9 56 9 23 24 36 50 37 46 2 91-6 135-14 12-2 25-4 38-7-5-10-14-14-22-19l-51-33c-66-45-101-108-114-186-2-17-6-35-11-52-18-58-51-83-112-84-20-1-40 1-64 5 15-13 28-16 41-20 31-8 63-11 95-6 32 6 52 24 67 52 16 31 24 65 34 99 15 47 41 82 90 99 33 13 66 26 102 29 9 1 11 0 10-10-3-15-1-31-2-46-4-39-17-73-52-94-34-21-65-45-95-71-55-48-67-107-58-175 3 34 12 67 32 95 13 17 28 33 49 42 40 18 79 40 113 67 50 38 88 85 101 148 0 4 1 8 2 12 1 1 2 1 3 4 20-25 41-49 57-75 18-29 12-59-8-86-18-24-42-41-69-53-12-6-24-11-36-17-48-20-64-49-56-103 8 6 6 14 7 21 7 32 25 51 57 60 36 10 71 22 102 43 31 20 59 45 74 80 19 46 1 87-22 127-9 17-18 35-17 55 0 27 9 37 36 40 41 4 77 18 109 45s49 62 59 100c1 5 15 64-10 131zm-40-142c-14-35-42-57-74-70-40-16-83-7-118 19-57 43-82 102-73 176 8 63 64 117 129 114 34-1 73-15 100-47 48-57 65-120 36-192z"/></svg>