<svg width="64" height="64" viewBox="0 0 1000 1000" xmlns="http://www.w3.org/2000/svg"><path d="M883 850c-16-3-33-6-49-11-31-10-43-25-46-58-5-57-4-115 2-173 3-21 6-41 19-59 12-17 30-20 48-8 7 4 14 9 23 11 19 7 36-4 37-25 1-12-3-23-9-33-10-16-24-30-37-43s-28-24-39-37c-25-28-19-65 12-85 11-7 23-12 35-16 13-6 27-11 39-19 18-12 24-30 16-51-5-13-13-23-23-33-32-33-71-56-113-71-17-7-26-16-31-32-2-9-5-18-11-26-8-11-19-12-29-1-4 6-7 12-9 19-4 9-5 20-8 32-3-6-5-11-8-16-6-12-14-25-26-34-15-12-33-6-38 12-2 7-3 14-3 20-2 31 3 60 7 90 3 29 6 58-2 87-10 37-29 69-50 100-32 47-69 91-102 139-42 62-73 128-73 205 0 6-3 4-6 3-20-8-36-21-43-41-9-22-7-44-2-66 11-47 28-91 44-135 18-51 32-102 31-156-2-81-37-141-111-176-76-35-163-19-218 37-51 52-71 159-8 222 49 50 127 65 188 31 13-7 24-16 35-25-1 3-3 5-5 8-18 23-40 43-63 62-29 24-62 45-90 71-51 46-84 100-81 172 3 69 31 123 91 159 42 25 88 27 135 18 53-10 91-38 114-87 1-2 1-4 3-4 5 10 9 20 15 29 31 49 79 70 133 71 102 2 204 0 306 1 10 0 21-2 30-8 19-11 24-32 10-49-10-13-24-18-40-21zM776 215c0-12 9-21 21-21 12-1 21 9 22 21 0 12-9 21-22 21-12 0-21-9-21-21z"/></svg>