<svg width="64" height="64" viewBox="0 0 1000 1000" xmlns="http://www.w3.org/2000/svg"><path d="M936 487c2 0 2 0 0 0-113-7-225-15-339-44-2 0-2-1-1-3 34-53 66-104 99-156 1-2 1-2 0-1-44 45-87 88-137 125-1 1-3 1-3-1-32-113-42-228-51-342 0-2 0-2 0 0-8 113-19 226-48 337-1 2-2 2-4 1-50-36-93-79-137-121-1-1-1-1 0 0 36 50 71 99 101 154 1 2 1 3-1 4-116 31-233 41-351 49-2 0-2 0 0 0 118 10 236 20 355 55 1 0 2 2 1 3-39 48-76 94-113 140-1 1 0 1 1 0 44-37 88-74 138-106 1 0 3 0 3 2 36 116 49 234 59 352 0 2 0 2 1 0 6-119 14-238 45-356 0-2 2-2 3-1 28 17 55 33 81 50 26 16 51 34 76 52 1 1 1 1 0-1-42-42-84-85-122-135-1-2-1-3 1-3 40-9 77-19 114-26 39-7 78-12 117-17 37-5 75-7 112-11z"/></svg>