<svg width="64" height="64" viewBox="0 0 1000 1000" xmlns="http://www.w3.org/2000/svg"><path d="M978 425c-35-28-102-4-153 53-48-13-91-10-127 10-70 40-96 130-106 199-2 10-3 21-5 32-15 119-30 231-171 231h-7c-40-1-69-13-88-38-35-45-29-119-25-150 14-6 24-20 25-37l2-60 74-23c10-2 17-8 22-16 14 3 30 3 42-5 21-13 51-37 89-84 41-52 51-93 52-120 0-19-13-38-23-44-10-5-12 5-10 24 3 29-1 72-38 119-1 1-2 2-2 3v-2c9-14 16-28 22-44 60-159-69-344-75-352l-4-4c3-8 2-16-4-20-10-6-25-25-34-42l-15-30c-9-17-27-20-41-7l-39 38c-14 13-11 31 6 40l27 14c17 9 36 25 42 36 4 8 15 9 25 3 11 16 118 179 69 308-2 6-5 10-8 16-3-1-6-2-9-2-8 0-15 2-21 6l9 9c-5 6-9 15-9 24 0 2 1 4 1 7-17 18-39 35-65 49-9-5-21-7-32-3l-91 27-98-31c-11-4-22-2-32 3-46-27-78-62-94-105-51-136 69-307 70-309v-1s3 3 7 6c3 3 11-3 17-14s24-27 41-36l27-14c17-9 20-26 6-40l-39-37c-13-14-32-11-41 6l-15 30c-9 17-24 36-34 42-10 7-14 15-10 19l8 8c-2 1-3 2-5 4-5 8-135 193-75 352 20 54 59 97 116 130 1 16 12 30 28 35l80 25-2 60c-1 12 4 23 13 31-6 37-13 127 34 187 27 35 69 54 123 55 3 1 6 1 8 1 182 0 201-151 217-272 2-10 3-21 5-32 11-82 41-141 82-164 21-12 46-15 75-10-36 59-40 121-8 147 38 30 112 0 164-66 53-67 65-145 27-175zM522 527c-3 3-6 7-9 11l9-12v1zm362 18c-20 25-48 36-62 24-10-8-10-26-2-44 7 2 15 5 23 8 12 5 25-1 30-12 5-12-1-26-12-31-4-1-7-2-11-3 16-12 33-16 43-8 15 12 10 41-9 66z"/></svg>