<svg width="64" height="64" viewBox="0 0 1000 1000" xmlns="http://www.w3.org/2000/svg"><path d="M225 56c0 35-1 67 1 100 2 46 4 91 9 136 7 58 20 114 57 161 25 31 57 52 95 65 5 2 13 0 18-3 18-9 34-8 51 3 4 3 12 4 18 2 74-20 118-71 142-141 21-59 22-120 26-181 3-41 2-82 4-122V56H545c-4 0-9 6-14 8-15 7-29 4-40-8s-11-30-2-42c9-13 26-17 42-11 9 3 19 6 29 6 33 1 67 0 100 1 24 1 32 9 32 32 1 99-2 198-18 295-13 84-49 154-123 200-21 13-44 20-67 29-13 5-33 28-33 42 2 70 2 141 4 212 2 61 38 110 89 128 65 22 132-12 159-81 5-11 8-24 11-36 5-21 9-40-19-54-30-15-38-55-26-87 13-34 42-53 79-52 33 2 62 25 70 57 9 34-4 70-34 87-12 8-19 14-21 31-3 41-15 81-40 115-42 56-97 80-165 70-66-10-113-48-134-111-11-36-16-75-18-113-3-55-1-110-1-165 0-14-21-42-34-47-98-35-149-110-170-208-23-104-23-210-23-316 0-17 9-27 25-27 36-1 71-1 106-2 11-1 21-3 31-7 15-5 33-1 42 12 8 11 7 31-2 42-10 11-28 14-43 7-9-4-19-7-28-7-27-1-54 0-84 0zm517 618c-24 0-42 19-43 43 0 22 21 42 43 42 23 1 43-19 43-42 0-24-19-43-43-43z"/></svg>