<svg width="64" height="64" viewBox="0 0 1000 1000" xmlns="http://www.w3.org/2000/svg"><path d="M799 522c-3-32-9-64-25-93-25-44-66-65-113-77-52-14-105-16-158-16h-13c-56 0-111 3-165 20-61 18-102 56-117 119-16 69-10 137 19 202 31 67 74 125 126 176 30 29 63 55 101 73 28 13 56 16 85 3 14-7 28-13 40-22 75-49 131-115 174-192 34-60 54-123 46-193zm-535 40l-3 9c0 2-2 4-4 4-1 0-4-2-4-4-5-12-5-24 0-36 1-2 3-5 4-4 2 1 5 3 5 5 1 2 2 5 2 8 1 5 1 13 0 18zm8-109c-2-12 2-23 10-31 3-4 10-7 13-6 2 1 4 3 5 7 2 4 1 13-2 19s-6 11-10 16c-7 8-14 4-16-5zm33 231c-3 1-7-1-9-3-7-6-11-13-14-22-2-7-2-14-1-16s2-3 3-4c2-1 6 1 8 3 10 9 15 21 16 34 0 3-2 8-3 8zm40-120c-1 4-3 8-5 11-4 7-10 6-15 0-8-11-8-33 0-44 6-6 13-7 17 1 1 3 2 7 3 11 2 6 2 15 0 21zm261-155c5-9 11-10 18-3 6 6 9 13 11 21 1 7 1 17 0 22-1 3-2 6-3 8-4 9-11 9-18 3-11-11-15-38-8-51zm-239 17c2-6 5-12 8-18 7-10 17-8 21 4 5 16 2 31-8 45-2 4-8 7-12 6-4 0-7-6-9-10-1-2-2-4-2-7s-1-7-2-7c0 0 2-6 4-13zm12 364c-1 2-4 2-7 0-11-7-17-18-19-31-1-6 3-9 8-5 7 4 12 10 15 16 4 7 6 17 3 20zm24-108c-2 4-4 8-10 10-6 3-14-5-17-17-2-11-3-23 0-34 2-10 12-12 18-2 3 5 6 11 8 17 2 7 4 19 1 26zm21-117c-2-7-2-18 0-25 2-5 3-10 5-14 5-10 14-10 21-1 10 14 10 42 0 55-6 9-15 10-20 1-2-5-4-10-6-16zm27 305c-2 1-3 1-4 1-6-5-11-11-15-17-1 0 3-6 6-6 4-1 8 3 12 8 4 6 3 13 1 14zm12-85c-3 6-6 9-10 10-7 0-15-9-16-20 0-7 1-16 3-23 3-8 11-9 16-2 2 3 4 7 6 11 2 6 4 17 1 24zm48 83c-1 3-5 6-8 6-2 1-6-3-8-6-1-2-2-5-2-7-1-4-2-13 1-19 2-5 5-8 9-9 6 0 11 9 11 21 0 4-1 9-3 14zm3-193c-1 4-2 8-4 12-5 9-14 9-20 1-8-12-8-37 0-49 6-10 15-10 20 0 2 4 3 8 4 12 2 7 2 18 0 24zm0-228c-1 4-2 8-4 12-5 9-14 9-20 0-9-13-9-38-1-51 7-10 16-10 22 1 2 4 3 8 4 12 2 7 2 19-1 26zm25 338c-1-2-2-5-2-7-1-5 0-13 2-18 1-3 3-6 5-9 5-8 14-6 18 3 4 11 4 23-3 34-3 3-8 7-11 6-4 0-7-5-9-9zm14 86c-2 0-6-3-6-6-1-3 3-9 8-13 6-4 13-4 15-2 0 1 1 3 1 4-1 7-11 17-18 17zm25-305c-2 5-3 9-6 14-5 10-14 10-21 0-9-14-9-40 1-54 6-9 15-10 20 0 3 4 4 9 6 14 2 7 2 19 0 26zm22 118c-5-15-3-30 6-43 3-4 9-8 13-7 3 1 7 6 9 11 1 2 1 4 1 6 1 3 1 6 2 6 0 1-1 7-4 13-2 6-5 13-9 18-5 8-14 6-18-4zm28 106c-3 2-6 2-7 1-3-4 0-13 3-20 4-6 8-12 15-17 2-1 5-1 7 0s2 4 2 6c-3 13-9 23-20 30zm53-227c-1 4-2 7-3 10-4 8-12 9-17 2-8-10-8-34 0-44 4-6 11-7 15 0 2 4 3 7 4 11 2 6 3 15 1 21zm38 97c-2 9-7 16-13 22-3 2-7 4-9 3-2-2-4-6-4-9 2-13 6-25 17-34 2-2 6-3 8-2 1 0 2 1 3 3s1 10-2 17zm6-205c-1 3-3 5-5 6-3 1-9-2-12-5-9-9-12-19-11-30 0-4 3-9 6-11 3-1 8 1 11 4 5 5 9 10 11 17s1 16 0 19zm22 118c-1 1-4 1-5 0s-2-2-2-3c-1-3-2-6-2-8-1-5-1-13 0-18 0-3 1-6 2-9 0-1 1-2 2-2 1-2 4-2 5-1s2 2 2 3c0 12 1 24 0 35 0 1-1 2-2 3zM350 247c10 9 21 16 32 24 6 4 6 8-1 9-4 1-7 2-11 3-3 1-6 3-8 5-4 2-5 8-1 11 3 2 5 4 8 5 23 5 46 10 70 12 21 3 43 2 64 1 30-1 59-1 88-5 17-1 34-8 51-13 2-1 3-2 5-4 2-3 2-8-1-10-2-1-4-3-6-3-4-2-8-3-12-3-6-2-6-6 0-10s11-7 16-11c13-12 27-23 38-36 8-9 4-17-9-18h-8c-15 5-31 8-45 14-15 6-29 13-43 20-7 3-11 3-10 1s1-4 2-5c3-15 8-29 10-44 1-5-2-15-6-16-4-2-12 1-17 5-9 8-17 18-25 28l-6 9c-3 5-6 3-5-4 2-45 12-88 37-127 4-6 3-15-4-18-8-4-16-5-25-4-17 2-24 16-27 29-7 25-12 51-16 77-2 13-2 27-3 41 0 8-3 9-7 3-2-3-4-7-7-10-8-10-17-20-28-28-9-7-16-3-17 8 0 7 0 14 1 20 2 8 4 16 7 23 2 7-2 11-8 8-14-7-27-13-41-18-14-6-29-9-44-12-5-1-13 2-15 5-2 4 0 12 4 15 7 9 15 17 23 23z"/></svg>