<svg width="64" height="64" viewBox="0 0 1000 1000" xmlns="http://www.w3.org/2000/svg"><path d="M760 720c-42-43-97-60-153-73-7-1-16 7-17 14 0 8 8 5 12 8h2c34 9 67 22 95 45 45 37 46 87 2 124-16 13-34 25-53 32-49 19-98 28-148 28s-99-9-148-28c-19-8-37-19-53-33-45-36-43-86 2-123 28-23 61-36 95-45 1 0 2 0 2-1 4-2 12 1 12-8-1-6-10-15-17-13-56 12-111 30-153 73-43 43-41 96 3 138 34 31 74 48 116 61 50 14 101 19 135 18h11c35 1 86-4 135-18 43-13 83-30 117-61 44-41 46-95 3-138zM355 438c1 18 13 31 29 31 18 1 31-12 31-31 0-48 0-95 1-143 0-4 2-8 4-12 1 4 3 8 3 12 1 130 1 260 1 390h-5c-25 9-48 20-64 43-11 16-10 37 2 53 14 19 33 30 54 37 29 11 59 16 89 16h1c29 0 59-5 89-16 21-7 40-18 54-37 11-16 12-37 2-53-16-23-39-34-64-43h-4V517 296c0-4 3-8 4-13 1 5 4 9 4 13v138c0 11 3 21 12 28 10 7 20 9 31 3 13-6 17-17 17-30 1-54 1-107 0-160-1-48-34-80-82-80H435c-46 1-79 34-79 80v68c-1 32-1 63-1 95zm92 334c24 8 47-8 47-34V516c0-5-2-14 6-14 9 0 7 9 7 14v218c0 8 2 17 6 24 7 14 24 19 41 14 15-4 24-17 24-33v-31c4 2 9 4 13 6 13 8 25 17 25 34s-12 26-25 33c-26 15-55 19-82 19h-18c-27 0-56-4-82-19-13-7-25-16-25-33s12-26 25-34c5-2 10-5 15-7v35c0 14 9 26 23 30zm53-585c35 0 62-27 62-62 1-35-27-63-61-63-35 0-64 29-63 63 0 34 28 62 62 62z"/></svg>