<svg width="64" height="64" viewBox="0 0 1000 1000" xmlns="http://www.w3.org/2000/svg"><path d="M987 396c-11-6-23-4-35-4-98-1-195 0-293-1-10 0-28 6-29-10 0-17 18-11 28-12h179c19 0 37-3 38-26 1-27-17-30-39-30-41 1-82 0-134 0 40-36 70-64 102-92 15-14 24-29 10-46-16-20-34-10-49 4-37 33-74 66-112 100-8 7-15 14-30 14-98-2-197-1-296-2-25 0-51-2-65 26-14 26-3 47 19 72-13 1-18 2-24 2-24 2-43 5-24-32 13-25 3-54-27-68-23-12-46-9-65 9-20 19-24 43-11 65 14 25 5 28-18 27-22-1-45-1-67 0-21 0-45-2-45 27 0 30 25 30 47 29 28 0 57 1 85 0 19-1 25 5 25 24-1 83 0 166 0 249 0 11-2 20-10 29-24 26-25 52-6 72 19 18 50 19 68 0 20-20 19-47-5-72-13-13-14-27-10-42 5-18 22-9 34-9 179-1 359-1 538 0 13 0 32-8 39 8s3 32-13 47c-23 20-21 51-1 69 21 19 44 17 65 0s22-47 1-69c-11-11-15-22-15-37 1-81 1-162 1-243 0-20 6-27 27-26 33 2 66 1 100 0 13 0 25-6 29-21 3-13-1-24-12-31zM193 788c-1 12-7 18-18 18-12 0-17-8-17-18 0-11 7-18 18-18 11 1 16 9 17 18zm566-146H499c-90 0-181-1-271 1-29 0-36-8-35-36 3-45 2-90 1-135-1-20 6-24 24-24 188 1 375 1 563 0 19 0 27 3 26 26-2 39 2 78 2 117 0 52 0 51-50 51zm83 145c-1 11-6 18-17 19s-18-5-19-16c0-11 6-19 17-20 10-1 17 6 19 17z"/></svg>