<svg width="64" height="64" viewBox="0 0 1000 1000" xmlns="http://www.w3.org/2000/svg"><path d="M847 154H153C69 154 0 223 0 308v384c0 85 69 154 153 154h694c84 0 153-69 153-154V308c0-85-69-154-153-154zM269 571c-9 7-24 11-41 11-21 0-42-6-53-13l6-35c13 7 33 13 45 13 10 0 15-4 15-10s-5-11-22-17c-26-9-42-20-42-46 0-15 5-26 15-35 10-8 23-12 39-12 23 0 40 7 48 10l-6 36c-10-5-25-11-39-11-8 0-13 4-13 9 0 6 8 10 22 15 26 10 43 21 43 48 0 16-6 28-17 37zm99-27c5 0 11-2 14-3v38c-1 0-2 0-2 1-5 1-13 2-23 2h-14c0-1-1-1-1-1h-2-1l-2-1h-2l-1-1h-2v-1h-1-1l-1-1h-1-1c-1 0 0-1 0-1h-1l-1-1c-1 0-2-1-2-1l-1-1-1-1-1-1h-1c0-1 0-1-1-2l-1-1-1-1c0-1-1-1-1-2v-1h-1v-1s-1 0-1-1v-1-1h-1v-1-1h-1v-2l-1-2v-1-1l-1-2v-3c-1-4-1-8-1-12v-69h-20l5-33h2l13-3 5-33h1v-3l41-7v43h30l-6 36h-24v62c0 11 4 16 13 16zm112-71h-9c-11 0-20 2-26 10v97h-47V430h41l3 18c5-13 15-20 29-20 2 0 4 0 6 1s1 0 1 0h2v44zm59 107h-48V430h48v150zm-24-165c-14 0-25-11-25-25s11-25 25-25 25 11 25 25-11 25-25 25zm171 112v4c-1 1-1 2-1 3v1l-1 2v2c-1 0-1 1-1 1 0 1 0 1-1 2 0 1-1 2-1 4l-1 1-1 3v1l-2 3c-1 2-2 4-3 5s-2 2-2 3-2 2-3 3l-1 1-1 1-3 3c-1 0-1 0-1 1-1 0-2 1-3 2l-6 3s-1 0-1 1h-2l-1 1h-1c-1 1-1 1-2 1s-2 1-4 1-3 1-4 1c-4 1-9 1-12 1-7 0-15-1-22-3v48l-47 8V430h41l3 15 4-4c1-1 2-1 2-2s2-1 3-2l1-1h1v-1h1c1 0 1-1 1-1h1l1-1h1l1-1h1s0-1 1-1h1l1-1 3-1h2s1 0 2-1h18s1 0 1 1c2 0 3 0 4 1h2l2 1h1l1 1h2v1h1c5 3 8 6 12 11s7 11 9 18c1 1 1 2 1 3 1 2 1 4 2 6v2c1 3 1 6 2 9v36l-1 2v4c0 1-1 2-1 3zm138-7h-78c0 2 0 5 1 7v2l1 1v2c2 4 4 7 6 9 1 0 2 1 2 1 3 2 7 4 11 4h1v1h11c2 0 5-1 7-1h4c1 0 2-1 3-1h2s1 0 2-1h2l2-1h1l2-1h2s0-1 1-1c0 0 1 0 2-1h1l2-1 1-1 2-1 6 33c-3 1-5 3-8 4-1 1-2 1-3 1-1 1-3 2-5 2l-2 1h-2v1h-3c-2 1-3 1-5 1-1 1-2 1-3 1h-2-2-1v1h-4c-4 0-7 1-11 1-2 0-3 0-5-1h-6-5l-2-1h-1l-3-1h-3c-2-1-3-1-5-2-1 0-2 0-3-1h-1c-1-1-2-1-3-2-1 0-1 0-2-1-1 0-1-1-2-1s-1-1-2-1-2-1-2-2l-2-1c-1-1-3-2-4-4-14-12-20-33-20-59v-6c0-5 0-9 1-14 0-1 0-2 1-2v-3c0-1 1-3 1-4l1-5c1-1 1-2 1-2l3-6v-1c0-1 1-1 1-2l1-2c1-1 1-1 1-2l2-3 2-2v-1h1v-1-1h1c0-1 0-1 1-1 0 0 0-1 1-1 0-1 1-1 1-2l2-1s1-1 1-2c1 0 1-1 2-1l1-1c1-1 1-1 2-1v-1c1 0 2 0 2-1l2-1c1 0 1-1 2-1l2-1 2-1c1 0 2-1 3-1l2-1c1-1 3-1 5-2h3c2-1 3-1 5-1h5c1-1 2-1 2-1h5c1 0 1 0 2 1h8c1 1 2 0 3 1h2l2 1h2v1h2l2 1c3 1 6 3 8 4 0 1 1 1 1 1 1 0 1 0 1 1l1 1s1 1 2 1l1 1 1 1 1 1 2 2c1 1 1 2 2 3 10 13 15 32 15 55 0 4 0 15-1 17zm-183-18c0 15-2 26-6 34-4 7-10 11-17 11-5 0-9-1-13-3v-71c8-8 15-9 18-9 12 0 18 13 18 38zm139-11h-35c2-21 7-31 18-31s17 10 17 31z"/></svg>