<svg width="64" height="64" viewBox="0 0 1000 1000" xmlns="http://www.w3.org/2000/svg"><path d="M500 0C224 0 0 224 0 500s224 500 500 500 500-224 500-500S776 0 500 0zm0 933C262 933 67 738 67 500S262 67 500 67s433 194 433 433-194 433-433 433zm-59-617c0 27-22 49-49 49s-49-22-49-49 22-49 49-49 49 22 49 49zm177-43c24 13 32 43 19 67s-43 31-67 18c-23-13-32-43-18-66s43-32 66-19zm115 273H255c58 45 122 67 188 75 14 1 19 7 21 24 3 27 7 53 12 80 7 37 20 68 50 83 55 27 110-3 133-73 16-48 16-95 0-142 26-16 51-28 76-43-1-2-1-4-2-4z"/></svg>