<svg width="64" height="64" viewBox="0 0 1000 1000" xmlns="http://www.w3.org/2000/svg"><path d="M781 743c-1-9-3-12-13-9-60 17-120 34-181 46-31 6-62 13-93 11s-62-7-92-14c-56-13-112-27-167-44-9-2-11 0-12 8-10 71-17 142-20 214 0 7-1 11-1 15v8c-1 15 7 22 26 22h551c19 0 27-7 26-22 0-3 0-5-1-8-3-76-12-152-23-227zM258 441c9 0 11-2 10-10-2-40 0-79 10-117 5-21 13-41 32-58 5 32 19 58 41 79 6 5 10 12 15 19 17 31 37 59 65 81 42 33 91 34 134 3 30-23 52-53 70-85 2-5 5-10 9-14 20-19 33-44 41-71 1-4-1-10 3-11 6-1 8 5 11 9 17 21 24 47 28 73 5 30 6 61 5 91 0 6-1 11 7 12 48 5 85-27 84-75-2-66-56-133-120-146-11-3-12-7-12-16 2-24 1-49-8-72C656 56 601 11 522 1c-82-9-146 25-190 96-20 32-26 68-24 106 1 10-2 16-13 18-37 8-66 30-87 60-19 25-30 53-30 83-1 47 24 80 80 77zm110-198c21-5 30-23 40-40 4-8 7-16 13-28 5 21 5 38 0 54-2 8 0 12 8 12 11 0 20-2 27-10 17-17 25-39 32-61 2-4 2-8 5-11 6 21 5 42 3 63 0 7 3 10 9 10 39 6 79 8 118-1 16-3 16-3 14 12-10 56-33 106-70 148-42 47-95 46-135-1l-7-7c-30-39-50-81-60-129-1-4-5-9 3-11zm10 323c2-26 6-53 9-80-32 9-62 21-89 38-21 12-34 29-41 52-10 34-17 67-24 101-2 11 1 13 11 16 69 22 139 39 210 51 20 4 40 10 61 6 82-13 164-31 244-56 11-4 13-8 11-18-7-33-13-66-23-98-6-23-20-41-40-53-25-16-53-27-80-37-11-3-11 2-10 9 6 28 8 56 10 85 2 23 1 46 1 70-39-23-78-47-116-70-7-5-12-5-19-1-37 23-74 45-111 68-6 4-9 3-8-5 1-26 2-52 4-78z"/></svg>