<svg width="64" height="64" viewBox="0 0 1000 1000" xmlns="http://www.w3.org/2000/svg"><path d="M828 971c0-5-1-11-1-17-1-1-1-3-1-6-2-65-6-131-13-196-6-50-14-100-23-149-6-32-22-52-51-64-18-7-35-14-52-21-11-3-15-1-19 8-14 32-35 60-62 82-23 20-48 36-74 51-13 7-17 16-17 31 1 87 0 174 0 261v2h-30v-2-268c0-9-2-15-10-19l-48-30c-24-17-47-34-65-57-13-17-23-36-33-54-2-5-4-9-11-7-27 10-54 19-78 34-13 9-23 20-26 35-19 75-27 151-33 228-4 46-8 93-8 140 0 6-1 12-1 18-1 20 8 29 28 29h600c20 0 29-9 28-29zM342 331c10 6 15 15 19 25 15 38 33 75 62 104 44 42 101 43 145 2 35-31 57-71 74-114 3-7 7-12 13-17 27-18 31-44 12-69-3-4-1-7 0-10 5-16 10-32 10-49 1-43-17-79-45-109-7-8-8-14-4-22 5-10 11-19 17-30-17 1-30 7-42 14-8 5-10 2-14-4-8-16-10-34-15-52-9 8-13 17-17 27-4 9-8 8-15 3-9-8-17-18-29-25-1 3-1 4-2 6-3 8 7 19-2 24-6 4-17 2-25 2h-1c-71 9-121 46-152 109-17 33-13 67-4 102 2 5 6 9 1 15-21 26-8 55 14 68zm36-74c35 1 70-1 105-10 36-9 69-26 97-54 9 31 24 55 47 75 3 3 4 7 3 11-16 55-36 109-77 151-11 12-24 22-40 26-30 8-53-6-73-27-28-31-42-68-55-107-6-18-10-37-16-55-3-9 0-11 9-10zm217 239c-4-1-7-1-9 3-15 39-50 58-81 81-3 2-5 4-10 1-31-23-65-42-81-80-2-3-3-7-7-6-16 4-31 6-46 9-6 1-5 5-3 8 12 20 23 40 39 57 27 31 64 50 98 73 5 3 8 1 11-1 19-13 38-25 56-37 35-23 59-55 78-91 3-5 4-8-3-9-14-2-28-5-42-8z"/></svg>