<svg width="64" height="64" viewBox="0 0 1000 1000" xmlns="http://www.w3.org/2000/svg"><path d="M980 527H529h-2c-9 0-17 16-17 35v72c0 9 1 16 4 23 4 10 9 13 16 13h453c4-1 8-4 11-9s5-12 6-20v-85-1c-4-20-9-28-20-28zm7-416c-4-3-9-5-14-6H215l-1 1c-16 3-25 17-25 37v76c2 14 14 29 30 29h752c7 0 13-3 18-8 6-6 9-13 11-22v-83c-2-10-6-18-13-24zm-6 207H526c-9 1-16 16-16 35v78c2 18 9 29 18 29h454c5 0 8-3 12-9 3-5 5-13 6-21v-83-1c-4-20-9-28-19-28zm-3 435H527c-10 0-17 16-17 36v70c0 10 1 18 5 25 4 9 9 11 15 11h453c5 0 9-5 13-12 2-5 3-11 4-17v-84c-5-23-9-29-22-29zM73 117H33c0 2-2 4-5 6s-6 5-10 7c-3 2-6 3-10 5-3 1-6 2-8 2v36c3 0 6 0 9-1s7-2 10-4c3-1 6-2 9-4s4-3 5-5v41H4v35h96v-35H73v-83zm270 260c-5-1-10-1-15-1-6 0-13 1-18 2s-11 4-15 7-7 7-9 11c-3 5-4 10-4 15s1 9 3 13 4 8 8 11 7 6 12 7c4 2 9 3 14 3 8 0 15-2 22-5s13-8 18-14l1 6c0 3 2 6 5 9s6 3 12 3h6c2 0 4-1 7-1v-24c-3 0-5 0-6-2s-2-3-2-6v-34c0-14-4-25-12-33-9-8-21-11-37-11s-31 4-45 13l9 18c6-4 11-7 17-9s11-3 17-3c8 0 14 2 18 6s6 9 6 16v6l-12-3zm12 31c0 3-2 5-5 8-2 2-5 5-10 6s-8 3-13 3-10-2-13-5c-4-3-5-7-5-12s2-9 6-12 11-5 18-5c3 0 7 1 11 1 4 1 8 2 11 3v13zm34 171c-5-5-10-9-15-12s-13-4-20-4c-8 0-15 1-22 5-6 4-11 9-15 15v-61h-28v151h25v-19c3 6 9 12 15 15 6 4 14 6 22 6 7 0 14-2 20-4s12-7 16-12c5-5 8-11 11-18s4-14 4-22-1-15-4-22c-2-7-5-13-9-18zm-18 53c-1 4-3 7-6 10s-6 5-9 7c-4 1-8 2-13 2-2 0-5 0-8-1s-5-2-7-4c-3-1-5-3-7-5-1-3-3-5-4-8v-26c3-6 7-11 11-15 5-4 11-6 17-6 4 0 8 1 11 3s7 4 9 7c3 3 5 7 6 11 2 4 2 8 2 12s0 9-2 13zm-18 221c-4 2-8 4-13 4-4 0-8-1-11-3-4-1-7-4-9-7s-5-6-6-10c-2-4-3-8-3-13s1-9 3-13 3-8 6-11c2-2 5-5 9-6s7-3 11-3 9 2 13 4 7 5 9 9l27-8c-4-9-10-15-19-20s-18-8-30-8c-9 0-17 1-24 4s-13 8-18 13-9 11-11 17c-3 7-4 14-4 22 0 7 1 15 4 21s6 13 11 18c5 6 11 10 18 13s15 4 24 4c12 0 22-2 31-8s15-12 18-20l-27-8c-1 3-4 6-9 9z"/></svg>