<svg width="64" height="64" viewBox="0 0 1000 1000" xmlns="http://www.w3.org/2000/svg"><path d="M607 320zm-249 18h0zm579 157c-7-19-23-30-47-32-18-2-33 1-34 1-3 1-6 2-10 4v-1l-57 11c-3-5-7-8-11-11 29-1 50-2 58-2 1 1 1 1 2 1h2l3-1h2l-1-1 17-6v-3c6-107-6-127-7-129 0 0-1 0-1-1l-3-2c-39-15-95-20-166-14-32 3-59 7-77 10 3 0 12-1 14-2 31 7 66 18 110 38 3 1 3 7 2 10 0 1-1 1-1 1 1-3-1-6-4-7-41-19-83-32-121-40-2 1-5 1-7 2-66-11-123-8-165-1-31 4-56 11-76 17 3 0 10-2 12-3 6 1 11 1 16 2 2 0 7 1 9 1 34 4 61 15 85 28 3 1 3 4 2 6 0 0-1 0-1 1 1-2 0-4-2-5-24-13-53-21-87-26h-6c-8-1-20-3-29-3-5 2-10 3-15 5-7 0-15 0-22 1-54 3-96 13-96 13-46 13-79 38-98 58-21 20-31 38-31 39-1 1-1 2 0 3 0 1 0 3 2 4 5 3 15 5 30 7-11 3-24 8-29 16-3 5-4 10-1 16-7 3-24 12-28 26-2 5-1 11 2 16-1 0-2 1-4 2v1c-1 0-8 13-4 23 1 3 4 5 8 7 0 3 0 7 1 11 1 10 4 23 13 37 16 22 44 37 84 43l50 1h2c1 1 3 2 5 4 8 5 17 7 26 7s19-2 27-5h1v-1-1l562 21 1 1 1-1c1 0 2 0 3-1 5-3 11-13 12-68 1-19 0-37 0-49 18 7 25 14 25 15l1 1 1-1c8-1 14-5 18-11 8-15 0-36 0-37 10-1 16-3 17-3 20-3 15-41 15-43zm-87-156c2 13 6 44 2 113l-9 3c-6-50 2-96 7-116zm-17 136c-15 9-31 21-40 28 2-7 2-15-1-21l41-7zm-66-94c6-6 14-6 18-2 5 5 4 13-1 19-6 5-14 6-18 1-5-4-4-13 1-18zm-27 88c10-1 19-1 27-1 6 2 13 6 18 12l-1 1c1 1 2 2 3 2 3 6 4 14 1 23s0 1-1 2c0 1 0 1-1 1v3c-2 4-5 10-11 18l-4 2v1c-4 1-7 4-8 4v1c0 2-1 3-1 3h-2l-2 1c-1 0-3 0-4-1-7-4-14-5-20-3h-1c-18 3-37-3-37-3l-40-11c3-1 7-2 11-3 10 3 41 12 62 14 1 0 5 1 11 1 10 0 22-2 34-11 1-1 10-13 12-26-1-1-2-21-18-27-1-1-31-8-62 16-28 21-54 41-104 32l-17-2 4-2c6 1 58 5 77-8 0 0 42-29 74-39zm-102 81c-8-2-14-1-17 3 0 1-1 2-1 2l-22-2h-1c-16 8-44-9-44-9h-2c-13 1-18-11-18-12v-1h-1l4-15 97 13h2l38 5h1l21 6s12 4 27 4h5l-2 2c-6 0-10 1-12 5l-28 6-28-2c-5-3-13-4-19-5zm13 8c-3-1-6-1-9 0-7 1-12 5-17 10v-11s-1-1 0-1c1-1 3-3 12-2 6 1 11 2 14 4zm-32 17c-1 3-2 4-3 5v1c-3 3-7 4-8 5-7-3-17-18-21-26 4 0 8 0 12-2l21 2c1 6 1 11-1 15zm-119-44c-1-1-2-1-2-2 3-1 7-1 10-2v2c11 19-6 33-8 34-3-1-5-3-6-5 0-3 3-7 4-8 4-9 4-15 2-19zm-28 0h-2c-1 0-1-1-2-1 19-5 30-12 37-19h1c6-2 56-18 61-34v-3l8-1c0 1 0 3-1 4-3 10-21 30-102 54zm60-16l-4 12c-4-3-9-4-15-4 7-3 13-6 19-8zm-19 12c6 0 12 2 16 7 2 6 9 15 22 14 1 1 5 3 9 5l-53 10c6-6 15-20 6-36zm205 26c1-2 5-3 9-2h1l1-2s2-4 6-6l3-1h1c3-1 8 1 12 3l-33 15c-1-3-1-5 0-7zm34-67c-1 0-3 0-3 1-3 5-34 15-70 25 10-6 20-13 30-21 28-20 55-15 58-15 12 5 14 21 14 23-1 10-9 21-10 23-18 14-41 9-41 9l-1-1c-7 0-15-2-24-4l42-2c2 0 3-1 3-2s-2-2-3-2l-56 2h-1c-5-1-10-3-14-4 4-1 9-3 14-4 58-17 61-22 63-24 0-1 0-3-1-4zm-76-73c5-4 11-3 14 1 3 5 1 11-4 14-5 4-11 3-14-1-3-5-1-11 4-14zm-39 59c20-1 39-1 57-2l-58 8c0-2 1-4 1-6zm-3 11l86-11c-28 12-55 31-57 32-14 10-48 9-65 8 2-1 4-2 5-2 15-7 25-16 31-27zm-2-11c-6 34-62 43-62 43h-1l-17-2c6-1 14-2 22-4 27-7 44-20 51-37h7zm-52 1c13 0 26 0 39-1-12 28-57 36-76 37 24-12 33-22 36-30 1-2 1-4 1-6zm-19-104c7-2 14 2 15 8 2 6-3 12-11 14-7 1-14-2-15-8-2-7 3-13 11-14zm1 105v2c-1 3-6 10-30 20-9 4-17 7-22 9 4-6 4-11 4-12 1-10-2-14-5-16 0-1-1-2-1-2 18 0 36-1 54-1zm-59 1v1c1 2 2 3 3 4 2 2 4 4 3 13 0 0 0 6-5 12-6 7-16 15-38 21h-1c-2-2-3-4-4-6 19 3 34-11 34-12h1c5-10 6-18 3-25-2-3-4-6-6-8h10zm-41 1c7 0 14 0 21-1 3 1 9 4 11 10 3 5 2 12-2 20-2 2-16 14-33 10-7-5-13-8-20-7-5 0-9 3-11 4h-1l-24 1c11-5 22-12 32-20v-1s8-6 17-12c3-1 6-3 10-4zm-43 48h-41c5-1 10-3 14-6l30-1c-2 3-3 5-3 7zm12 19c-3 4-4 7-5 9-48 9-70 4-76 3 0-4-2-6-4-9v-11c3-1 8-2 13-4h61c3 6 8 10 11 12zm1-54c-35 28-80 40-90 42 0-3-1-6-2-8v-2c8-1 37-7 66-25 1 0 22-12 32-20h12c-10 5-17 12-18 13zm-98-12h8c2 6 6 27-7 38-3-1-5-2-5-2v-1h-1l-1 1c3-5 6-9 7-15 1-1 2-5 2-9 0-3-1-8-3-12zm7 59v6c0-1-1-1-2-2 1-1 1-2 2-4zm87-130c7-2 14 2 16 9s-4 13-12 14c-7 2-15-2-16-9-1-6 4-12 12-14zm2 70c-11 7-26 16-26 16-27 16-54 22-64 24 3-2 5-5 6-9 5-1 51-14 68-31h16zm-23 0c-17 13-49 23-60 26 1-4 2-8 2-12-1-5-1-10-2-13 19 0 39 0 60-1zm-73-96c7 0 14 5 14 12 0 6-7 11-14 11s-14-5-14-11c0-7 7-12 14-12zm-111 25c12 0 20 8 20 17s-9 17-20 17-19-8-19-17c-1-9 8-17 19-17zm-116 51l-1-1c5-7 22-33 52-56-30 24-46 49-51 57zm-33 71c4-14 28-23 28-23l2-1-1-3c-3-5-3-9-1-13 4-6 13-11 28-14 6-1 12-2 17-2 15 1 33 2 54 3-8 10-13 18-13 18-21 25-51 32-52 32-1 1-2 2-1 3 0 1 1 2 2 2 2 0 33-8 55-34 0-1 6-9 15-21 33 2 74 3 121 3 7 9 3 18 3 19h-1c-5 22-29 30-32 31-25-3-33-10-33-10l-1-1c-8-2-19-3-29-2 1-2 1-4 1-6-1-4-6-8-9-10 11-7 35-20 61-15 1 1 2 0 3-1 0-2-1-3-2-3-37-9-71 19-72 21-7 7-15 13-24 17l-1 1c-6 3-12 5-17 6 2-1 5-2 7-4 19-12 32-27 36-42 1-1 0-3-1-3-2 0-3 0-3 2-10 32-54 49-60 52-18 2-32 3-33 4h-3c-5-2-10 5-12 8-4 2-8 5-12 9-2-3-6-8-12-9-2-1-4-1-6 0-3-5-3-9-2-14zm202 13c0-1-2-1-3-1s-2 2-1 3c0 0 4 14 1 29v1c-5 12-26 7-26 7-2-1-3 0-3 1s0 3 2 3c0 0 5 1 11 1h1c-9 17-22 20-27 20-2-22-8-36-16-41l31-9 1-1c9-11 10-20 10-24 7 0 28 3 35 24 0 3 0 6 1 7-4 12-13 21-20 28 11-22 3-47 3-48zm-40 12l-31 9-12-14 43 5zm-47-11h-2c-2 0-3 2-5 3 0 0 0-1-1-2l-1-1v-1c-2 1-6 7-10 16-16-1-28 1-35 4l-11 2v-25c4 0 15-2 29-3h2c7-1 16-2 24-3 50-4 67-2 73 0-1 6-5 14-8 18 0 0-1 0-1-1l-54-7zm20 25c1 0 2 0 3 1 4 2 10 9 14 32-9 0-15-1-18-6-7-9 1-27 1-27zm45-42l-2 1v1c-12-3-40-2-67 0 3-1 7-3 10-4 7-1 48-7 67-2 2 2 12 9 36 11 1 0 9-2 18-8-2 3-3 6-3 8-9 2-15 6-18 12 0 0-1 1-1 2-11-22-39-21-40-21zm-48-8c5-4 10-8 14-13 0 0 1 0 2-1 3 1 9 4 9 7 1 2-1 4-3 5-8 0-16 1-22 2zM68 566c-2-6 1-15 3-18 4-2 7-3 10-2 5 1 8 5 10 7-8 7-15 15-17 18-3-1-5-3-6-5zm59 5H80c6-7 18-20 29-25l1-1c3-4 6-8 7-8 0 0 1 1 2 7v22c0 1 1 2 2 2h1l6-1c-1 2-1 3-1 4zm5 0s0-1 1-3c1 0 3 0 4 1 1 0 2 1 2 2h-7zm6 5h1c1 0 2 0 2-1 2 3 5 6 10 9-5-1-9-4-13-8zm24-1c-1 4-2 6-4 8-5-2-11-7-14-12-1-3-2-5-4-6l-1-1c5-2 14-4 29-4l-6 15zm48 85c-2-3-3-6-3-6h-1v-1c0-2-5-6-9-9-11-3-23-15-24-16-9-21 0-31 3-34-1-17 1-28 2-35 3-7 7-12 9-13v1l1 1c1 1 1 3 0 6-1 1-6 11-5 43-4 3-12 13-4 32l1 1s12 12 23 15c5 2 10 6 10 8v1s1 3 3 7l-6-1zm66 9c-44 15-57-13-59-17 0-5-10-11-12-12-9-2-20-12-21-14-9-19 2-26 2-26l2-1v-1c-2-33 4-42 4-42v-1c1 0 1-1 1-1l11 13c-2 5-6 20 1 29 3 5 10 8 19 8h3v4h4c2 0 7 0 12-2 6-2 15-8 21-22 3-1 5-2 7-3-2 6-6 12-12 17-21 14-30 25-29 34 2 8 11 10 11 10h1c3-1 4 0 4 0v2c-2 4-3 8-2 11 2 4 9 5 9 5 16 1 21 5 23 7v2zm43-61l-1-1s-8-3-11-12c-1-6 0-12 4-19 0-1 1-1 1-1 0-1 1-1 1-1s4-3 7-9h1v-1h1c1-1 1-2 1-3v-1c1-1 1-3 2-6 1 0 1 1 2 1 1 1 3 2 4 3 0 0-1 0-1 1-3 13-12 18-12 19 0 0-1 0-1 1 0 0-1 0-1 1-4 6-5 13-4 18 2 5 5 8 8 10h-1zm14 30h-1v-1c-1-1-10-11-10-20 0-3 1-5 4-7h-1c4 0 5 1 5 1v1c-2 2-3 4-3 7 0 8 9 18 10 19h1c5 3 10 5 14 5-5 0-12-1-19-5zm112-86v2s-1 0-1 1h1c-1 0-1 1-1 1v1c-1 1-4 4-5 9-1 3-2 8 1 12 0 1 1 2 0 5l-3 6c-2 2-4 3-8 6l-5-20c0-1-2-2-3-1-1 0-2 1-2 3l6 21c0 1 1 1 1 1-1 2-2 3-5 5-2 0-6 2-9 6l-10-25c-1-1-2-2-3-2-1 1-2 2-1 4l12 30s0 1 1 1v1s-1 3-3 6c-3 3-9 6-23 5-2 0-10 0-15 1l13-30c0-1 0-2-2-3-1 0-2 0-3 1l-14 34v1c0 1-1 3-3 4-3 1-9 2-21-4-3-3-8-10-8-15 0-2 1-3 2-4h1v-1s1-3-1-5c-1-3-5-4-9-4-2-1-6-3-8-8-1-4 0-9 3-15h1s10-7 14-22v-1l1-1v-1-1l-1-1c-1-1-3-2-4-3-4-3-6-6-6-9-1-7 5-14 7-16l1-1c1-1 1-3 0-4-1 0-3 0-3 1l-1 1c-3 2-10 10-9 20 0 1 1 3 1 4 0 0-1 0-1 1-3-2-4-2-4-2 0 1 0 3 1 5-1 2-1 4 0 7h-1v1c-19 15-26 28-30 35-3 8-2 13-2 13v1l-7 53c-5-3-12-6-23-7-1 0-5 0-6-2 0-2 0-4 2-7l1-1s0-4-2-7c-2-1-4-2-8-1-1 0-6-2-6-6-1-4 2-12 27-29 1-1 27-16 36-41v-1s-3-8 1-15c3-5 8-8 16-10h2v-2c1-4 5-15 12-16 1 1 5 3 7 7 2 5 1 10-2 16l-1 2 2 1s10 6 11 14v2h1c1 0 23 9 81-2h1l1-2c2-5 8-16 13-16l2 2c1 2 1 5 0 11zm52 73c-4-4-4-10-4-12-10-9-16-17-16-24 0-5 2-9 4-10-1-6-3-11-6-15 3 3 9 10 9 18-1 2-3 5-3 10 0 7 5 15 15 23 0 2 0 8 4 11 2 1 3 1 5 2-3-1-6-1-8-3zm38 5h-1l-1-1c-2-4-3-7-5-9 1 0 1-1 2-1 1 2 4 6 6 11l1 1-2-1zm39-8c3-5 7-12 7-21 0 0 1-4 3-7 1-1 3-1 5-1 1 1 3 3 6 5-6 12-14 20-21 24zm70-56h-1c-1 0-2 1-3 1s-2 1-3 1c-11 5-15 15-15 16 0 4-5 9-7 10-15 8-23-4-23-5l-1-1h-1c-4 0-7 1-9 3-4 3-4 9-4 10-2 13-11 24-11 24v1c-12 4-23 2-26 1-4-7-7-11-7-11l-1-1h-1c-6-2-14 6-16 8-4 1-9 2-12 0-3-3-2-9-2-9v-2h-1c-12-9-14-16-15-20 0-4 3-7 3-7h1v-2c0-13-11-24-13-25-3-4-10-6-17-6h-9c1-6 1-10-1-13-2-4-5-5-5-5h-1c-3 0-7 3-9 6-4-3-11-8-11-14 0-3 2-5 6-8s4-5 11-5c5-1 10 1 16 6 0 3 4 13 12 16 1 1 2 1 4 2 3 0 6 0 9-2h1s3-2 9-4v1s3 0 5 2c1 3 1 7-2 13-1 1-5 6-4 11 0 5 4 8 10 11h1l68-12c4 1 8 2 13 3v1c1 2 14 26 25 30h1s7-1 13-7l3-6c3-5 10-14 19-15 6-1 11 0 17 4-6-2-11-2-16-1zm17 22v1l-4 1 2-5c3-5 3-9 2-12 2 2 4 7 0 15zm20-27c-4 4-7 6-10 6-5-1-7-6-8-7l18 1zm16 43c-9 0-15-15-17-20l-1-3-12 4c3-9-2-15-3-16 2 1 4 2 6 2 5 1 11-2 17-10l25-5c0 8 7 18 9 21-2 23-22 26-24 27zm28-32v2c-2-2-3-5-5-7 1 0 1-1 2-1 1 2 2 3 2 5h1v1zm49-14c-1 0-2 1-2 2-3-1-8-3-14-3h-1c-5-1-12-1-20 1h-1l23-11c2 0 3 0 4-1 2-1 4-3 4-6 2-1 5-3 8-3 1 0 2 1 4 3 0 2 1 10-5 18zm67 127c0-1 0-2-1-4 1 1 1 3 1 4zm6-6c-4-20-14-71-10-111 2 0 5 1 7 2-2 34 2 75 5 99 0 4-1 7-2 10zm-68-121c7-10 4-19 4-20-2-2-3-4-5-5h1l90 7h1l1 19h-16l-76-1zm121 17c-3 5-7 8-13 9-3-2-11-9-28-15v-5h17l-1-23c6 0 11 1 16 1h9v1s7 20 0 32zm21-42v1s-21 5-46 2v-1l-93-7c6-8 8-13 10-17 9-7 46-38 65-42 1 0 60-13 75 27 1 10 2 36-11 37zm-23-60c-7-2-13-2-20-2-26 0-40 11-41 12l-53 45 123 4h1c23-10 20-28 19-31-1-18-28-28-29-28zm8 54l-109-4 18-16 1 1v-1c24-6 63-13 70-2 0 1 2 2 3 1s1-2 1-3c-9-15-48-7-67-2l17-14c0-1 14-12 38-12 6 0 12 1 19 2 1 1 25 10 25 25 1 1 5 17-16 25z"/></svg>