<svg width="64" height="64" viewBox="0 0 1000 1000" xmlns="http://www.w3.org/2000/svg"><path d="M296 312c37-60 74-120 110-179 4-8 9-10 17-10h146c9 0 11 2 11 11-1 29-1 59 0 89 0 8-3 10-11 10h-63c-5 0-9 1-12 6-37 54-74 109-112 163-3 4-2 7 1 11 41 60 83 121 124 181 3 5 7 7 13 6 18 0 36 1 54 0 7 0 9 2 9 9-1 31-1 61 0 91 0 7-1 10-9 10-49-1-97-1-146 0-5 0-8-2-11-6-41-67-84-131-124-200-5 10-9 20-15 29-35 57-70 113-105 170-3 5-7 7-13 7-50-1-99-1-149 0-9 0-11-3-11-11 1-29 1-59 0-88 0-8 2-11 11-11 21 1 43 0 65 0 6 1 9-1 13-6 39-59 79-118 119-177 4-6 3-9 0-14-38-54-75-109-111-163-4-6-8-7-14-7H12c-8 0-10-2-10-10 1-30 1-60 0-91 0-7 2-9 9-9h164c6 0 9 2 12 6 36 61 74 121 109 183zm536 565c-52 0-105-1-157 0-9 0-12-3-13-11-8-58 2-111 42-156 21-23 48-41 74-59 18-13 38-25 57-37 15-11 29-22 40-37 27-39 8-84-39-91-37-6-65 10-89 36-2 2-5 5-7 8-3 4-5 4-9 1-20-18-40-35-60-53-3-2-3-5 0-8 34-44 77-73 133-79 42-6 83-1 121 20 80 46 80 145 43 199-23 35-57 58-91 79-26 16-54 31-77 51-13 12-25 24-31 42-3 8-3 12 8 12h129c9 0 12-2 11-11 0-10 1-21 0-32 0-7 2-10 10-9h63c8-1 10 2 10 9v116c0 8-2 10-10 10-53-1-105 0-158 0z"/></svg>