<svg width="64" height="64" viewBox="0 0 1000 1000" xmlns="http://www.w3.org/2000/svg"><path d="M501 335c-104 0-187 83-188 186 0 9 1 18 2 27h369c1-8 2-17 2-26 0-103-83-186-185-187zm181 75c4 11 14 19 26 19 4 0 8-1 11-3 25-14 49-27 73-42 12-7 15-23 8-35-6-12-21-18-34-11-25 14-50 28-74 43-10 6-13 18-10 29zm-176-98c14 0 26-12 26-28v-78c0-15-12-27-26-27-15 0-27 11-27 27v79c0 15 12 27 27 27zM181 548h79c15 0 26-11 27-25 0-15-11-27-26-28h-82c-15 1-26 13-26 27 1 15 12 26 28 26zm532-26c1 15 12 26 27 26h79c15 0 27-11 27-25 1-15-10-27-25-28h-82c-15 0-26 13-26 27zm-90-176c9 0 17-3 22-11 14-24 28-48 42-73 6-12 1-27-11-34s-28-4-35 8c-15 24-29 48-42 73-9 17 4 37 24 37zm-266-18c5 8 13 13 23 13 21 0 33-21 23-40-13-23-26-46-40-69-8-13-24-17-36-10-13 8-18 23-10 37 13 23 26 46 40 69zm-147 58c23 13 46 26 68 40 5 2 9 3 13 3 13 0 24-8 27-19 3-12-1-24-12-30-23-14-46-27-69-40-14-8-30-3-37 10-8 13-4 28 10 36zm684 347c-40-3-67-25-87-57-10-14-21-26-38-31h-14c-17 5-28 16-36 32-5 9-12 16-20 24-20 21-43 31-67 32-18 0-36-6-52-18-4-3-7-6-11-9 18-4 28-21 18-34l-60-77c-12-16-42-16-55 0l-59 77c-11 13-1 30 18 34-3 3-7 6-11 9-16 12-34 18-52 18-23-1-47-11-67-32-7-8-15-15-19-24-9-16-20-27-37-32h-13c-18 5-29 17-38 31-21 32-48 54-88 57-35 2-53 34-39 63 10 19 29 27 56 24 40-5 75-21 105-49 8-8 12-7 20 0 74 66 167 67 242 1 4-4 7-6 10-6s6 2 11 6c74 66 168 65 241-1 8-6 12-8 21 0 29 28 64 44 104 49 28 3 47-5 56-24 14-29-4-61-39-63z"/></svg>