<svg width="64" height="64" viewBox="0 0 1000 1000" xmlns="http://www.w3.org/2000/svg"><path d="M501 311c-104 0-187 83-188 185 0 10 1 19 2 28h369c1-9 2-18 2-27 0-103-83-186-185-186zm181 74c4 11 14 19 26 19 4 0 8-1 11-3 25-13 49-27 73-41 12-8 15-23 8-35-6-12-21-18-34-11-25 13-50 28-74 42-10 6-13 18-10 29zm-176-98c14 0 26-12 26-27v-79c0-15-12-27-26-27-15 0-27 12-27 27v79c0 16 12 27 27 27zM181 524h79c15 0 26-11 27-26 0-14-11-27-26-27-27-1-55-1-82 0-15 0-26 13-26 27 1 14 12 26 28 26zm532-26c1 14 12 26 27 26h79c15 0 27-11 27-26 1-14-10-27-25-27-28-1-55-1-82 0-15 0-26 13-26 27zm-90-176c9 0 17-4 22-12l42-72c6-12 1-28-11-35s-28-4-35 8c-15 24-29 48-42 73-9 17 4 38 24 38zm-266-19c5 9 13 13 23 13 21 0 33-21 23-39-13-24-26-47-40-70-8-13-24-17-36-9-13 7-18 23-10 36 13 23 26 46 40 69zm-147 59c23 13 46 26 68 39 5 3 9 4 13 4 13 0 24-8 27-19 3-12-1-24-12-31-23-13-46-26-69-40-14-7-30-3-37 10-8 13-4 29 10 37zm723 254c-10-19-29-27-56-24-40 5-75 21-104 49-9 8-13 7-21 0-73-66-167-67-242-1-4 4-7 6-10 6s-6-2-10-6c-75-66-168-65-242 1-8 7-12 8-20 0-30-28-65-44-105-49-27-3-46 5-56 24-14 29 4 61 39 63 40 3 67 25 87 57 10 14 21 26 38 31h14c17-5 28-16 36-31 5-10 13-17 20-25 20-20 43-31 67-32 18 0 36 6 52 18 9 7 18 15 26 24h-5c-25 0-40 20-28 36l60 76c12 16 42 16 55 0l59-76c12-16-3-36-27-36h-6c8-9 17-17 26-24 16-12 34-18 52-18 24 1 47 11 67 32 8 8 15 15 20 25 8 15 19 26 36 31h14c17-5 28-17 38-31 20-32 47-54 87-57 35-2 53-34 39-63z"/></svg>