<svg width="64" height="64" viewBox="0 0 1000 1000" xmlns="http://www.w3.org/2000/svg"><path d="M655 591V338c-41-44-100-71-165-71-127 0-230 102-230 229 0 126 102 229 228 230 31 0 60-6 86-17v-1c7-30 20-58 40-81 12-14 26-26 41-36zm-393 36c-9-15-28-20-44-12-4 2-8 5-13 7-24 15-49 28-73 43-14 8-19 23-15 38 4 14 17 23 33 23 4 0 9-1 14-4 29-16 59-33 88-51 16-9 19-29 10-44zm235-389c18 0 32-15 32-34v-97c0-18-14-33-32-33-19 0-33 15-33 34-1 32-1 64 0 97 0 19 14 33 33 33zm0 524c-19 0-33 14-33 33-1 32-1 65 0 97 0 19 14 34 33 34 18 0 32-15 32-34v-97c0-19-14-33-32-33zM194 529c18 0 32-13 33-31s-13-34-31-34c-34-1-68-1-102 0-18 0-32 16-31 33 0 19 15 32 33 32 17 1 33 0 49 0s32 1 49 0zm119-271c7 10 16 16 29 16 25 0 41-26 28-49-16-28-32-57-49-85-10-17-29-21-45-12s-21 28-12 45c16 28 33 56 49 85zm-180 72c27 16 56 32 84 48 5 3 10 5 15 5 16 0 29-10 33-24s-1-29-15-37c-28-17-56-33-85-49-17-10-36-4-45 12-10 16-4 35 13 45zm230 400c-17-10-36-4-47 14-16 27-32 54-47 82-3 5-6 11-5 17-1 15 9 28 23 32 15 4 29-1 38-15 16-28 32-55 48-83 10-18 6-37-10-47zm432-439c0-12-2-20-4-26-6-14-16-14-22-14-5 0-15 0-21 14-3 6-4 14-4 26v180h51V291zm60 316V260c0-41-29-76-67-85-6-1-13-2-19-2-33 0-61 18-76 45-7 12-11 26-11 42v350c-14 9-27 21-38 34-18 21-30 46-36 74-2 10-4 21-4 33v2c2 91 76 165 167 165 11 0 23-1 34-4 76-15 133-83 133-163 0-61-34-115-83-144zm-84 247c-58 0-105-47-105-105 0-3 0-5 1-8 0-6 1-11 2-16 5-17 13-31 24-42 5-5 11-9 17-13s13-7 20-9V291c0-9 1-18 3-26 2-4 3-7 4-10 4-6 9-11 15-14 5-3 11-4 17-4 30 0 40 24 40 54v368c41 11 63 46 66 82v8c0 58-46 105-104 105zm42-118c2 24-5 46-22 65-14 16 18 31 31 15 21-23 30-52 27-80-1-19-38-19-36 0z"/></svg>