<svg width="64" height="64" viewBox="0 0 1000 1000" xmlns="http://www.w3.org/2000/svg"><path d="M574 806h-54c-6 0-9-2-13-7-41-60-83-120-124-180-3-4-4-7-1-12 38-54 75-108 112-162 4-5 7-7 12-7 21 1 42 0 63 1 9 0 11-2 11-11v-89c0-9-2-11-11-11-48 1-97 1-146 0-8 0-12 3-17 10-36 60-73 119-110 180-34-63-73-123-109-184-3-4-6-5-11-5-55 0-110 0-165-1-7 0-9 3-9 10 1 30 1 60 0 91 0 7 2 10 10 10 23-1 47 0 71-1 6 0 10 2 14 7 36 55 73 109 111 164 3 4 4 8 0 13-40 59-80 118-119 177-4 5-7 7-13 7H11c-9-1-11 2-11 10 1 30 1 59 0 88 0 9 2 11 11 11h149c6 0 10-1 13-7 35-56 70-113 105-169 6-10 10-19 15-29 40 68 83 133 124 199 3 5 6 6 11 6h146c8 0 9-2 9-9-1-30-1-61 0-91 0-7-2-10-9-9zm426-359c0-7-2-10-10-9h-63c-8-1-10 2-10 9 1 11 0 22 0 32 1 9-2 11-11 11H777c-11 0-11-4-8-13 6-17 18-29 31-41 23-20 51-35 77-51 35-22 68-44 92-79 36-54 36-154-44-199-38-21-79-26-121-21-56 7-99 36-133 80-3 3-3 5 0 8 21 18 41 35 61 53 3 3 5 3 8-1 2-3 5-6 7-9 25-25 52-41 89-35 47 7 66 52 39 90-11 16-25 27-40 37-19 13-39 25-57 38-26 18-52 36-74 59-40 45-50 97-42 155 1 9 4 11 13 11h315c8 0 10-2 10-10V447z"/></svg>