<svg width="64" height="64" viewBox="0 0 1000 1000" xmlns="http://www.w3.org/2000/svg"><path d="M807 176C725 109 616 73 500 73s-225 36-307 103C109 244 63 335 63 432c0 93 42 180 119 247l158 235c6 9 15 13 25 13 11 0 20-5 25-14l75-123c11 1 23 1 35 1 116 0 225-36 307-103 84-68 131-159 131-256s-47-188-131-256zM490 550c0 2-1 3-3 3H245c-2 0-3-1-3-3v-35c0-2 1-3 3-3h242c2 0 3 1 3 3v35zm0-80c0 2-1 3-3 3H245c-2 0-3-1-3-3v-36c0-1 1-3 3-3h242c2 0 3 2 3 3v36zm0-81c0 2-1 3-3 3H245c-2 0-3-1-3-3v-35c0-2 1-3 3-3h242c2 0 3 1 3 3v35zm196 215c-13 2-24 3-36 3s-24-1-35-3c-2-12-3-24-3-35 0-12 1-24 3-36 11-2 23-3 35-3 11 0 23 1 36 3 1 12 2 24 2 35 0 12-1 24-2 36zm64-210c-6 11-13 21-21 28-8 8-17 14-26 19-8 4-15 8-21 10v44c-11 2-22 3-32 3-11 0-21-1-31-3v-83c8-1 15-3 23-6 8-2 16-5 23-10 6-4 12-9 16-15 5-7 7-14 7-24 0-14-5-24-15-31s-23-11-40-11h-18l-15 3c-4 1-9 2-13 4-5 1-10 3-15 5-5-9-8-17-11-26s-5-19-6-28c9-3 17-6 24-8s14-4 20-5l21-3h21c39 0 68 8 88 26 19 18 29 42 29 72 1 15-2 28-8 39z"/></svg>