<svg width="64" height="64" viewBox="0 0 1000 1000" xmlns="http://www.w3.org/2000/svg"><path d="M504 669c22-31 44-61 64-93 7-10 14-15 27-14 22 2 45-2 68 4l3 1c15 4 15 4 14 20-4 52-8 104-11 156-4 48-8 97-13 146-5 40 3 78 29 111H315c13-17 21-34 26-52 7-24 5-48 2-72-8-53-10-107-14-160-3-45-6-91-9-136 0-6 1-9 7-11 12-4 23-6 35-6 17 0 34 0 51-1 6 0 9 2 13 7 23 31 47 62 71 93 2 2 3 5 7 7zm-9-440H312c-4 0-8 1-10-6-6-38-8-76 4-113 14-49 48-80 96-94 64-20 128-21 193-3 60 17 94 60 100 123 3 28-1 55-5 83-1 7-4 9-11 9H495v1zm0 20h182c25-1 41 11 51 32 10 22 7 43-8 61-9 10-19 18-32 19-8 1-10 5-12 12-10 37-25 72-50 102-28 33-61 57-105 63-50 7-91-11-126-45-34-34-55-76-67-122-1-7-4-8-11-9-41 0-66-39-51-76 4-8 8-15 13-22 8-10 18-15 32-15h184zm1 27H313c-15 0-17 2-21 16-8 25 10 41 28 39 5-1 10 0 15 0 11-2 16 2 16 12 1 14 8 20 23 21 30 3 60 10 91 12 59 4 118-3 177-13 5-1 7-2 8-7 2-8 2-18 7-23 5-6 16-1 25-2 13-2 23-15 23-29-1-16-10-26-25-26H496zm-60 212c42 32 102 27 131 0H436zm166-36c17-18 28-38 36-62-11 2-21 3-31 4-4 1-5 3-5 7v51zm-238-63c9 24 19 44 35 62 1-18 1-35 1-53 0-3-2-4-5-4-10-2-19-3-31-5zm513 211l-3 75c0 2-2 7 3 7 3 0 3-4 3-7l3-49c1-13 6-20 17-20 10-1 16 6 17 18 2 19 3 38 5 56 1 11-2 19-10 27-10 9-19 19-30 28-20 15-28 36-30 60-1 11-4 22-5 33-1 7-3 8-9 8l-108-6c-8 0-16-1-24-1-5 0-7-2-7-7 3-40 4-80 7-119 4-49 9-98 13-147v-6c2-9 8-15 16-14s13 7 13 17l-3 54c0 8 0 17-1 25 0 2-1 6 2 6 4 1 3-3 3-5 2-17 4-34 5-51 3-21 5-43 7-64 1-10 7-16 15-15 8 0 13 7 13 17-2 35-3 71-5 106v5c0 2-1 5 2 5 3 1 2-2 3-4 2-21 4-41 6-62 2-25 4-50 7-75 1-12 8-18 19-17 9 1 15 9 15 20-2 45-5 89-7 134v3c0 3-1 6 3 6s2-3 3-5l3-33 9-80c1-11 7-17 17-17s16 7 16 19l-3 75zm-754-1l-3-72c0-12 5-20 15-21 11-1 18 5 19 18 4 36 7 71 11 107v6c1 2 1 4 4 4 2-1 2-2 2-4v-12c-2-41-4-83-5-124-1-15 4-22 15-23 11 0 17 7 18 22 4 43 8 87 12 131 0 2 0 6 4 6 3-1 2-5 2-7-2-34-4-69-5-103-1-16 3-24 14-24 9 0 14 7 15 23 3 35 6 71 10 106 0 2-1 7 2 6 5 0 3-4 3-7-1-25-2-50-3-76 0-11 4-18 13-18 9-1 14 5 15 17 9 88 16 176 18 265 1 8-1 11-10 11-42 1-85 4-127 6-7 0-10-2-10-9-3-18-6-37-9-55-1-9-4-16-11-23l-44-43c-8-7-12-15-10-26 2-19 4-39 5-58 1-11 9-18 18-17 9 0 16 7 16 18 1 16 2 32 3 49 0 3-1 10 3 10 6 0 3-6 3-10v-73h-3zm117 250c11 0 32-1 52-3 7 0 10 2 11 9 5 28 9 57 3 85-7 34-24 52-53 57-33 6-64-8-80-36-18-32-20-66-18-102 0-6 4-6 9-6 22-1 44-2 76-4zm528 0c23 2 46 3 69 4 5 0 7 2 7 8 0 29-3 58-14 85-16 40-49 58-88 50-23-5-37-21-44-43-9-28-8-56-4-85 3-23 4-23 27-21 8 0 16 1 24 1s15 1 23 1zM424 299c15 0 27 11 27 26s-12 27-27 27c-14 0-26-12-26-27 0-14 12-26 26-26zm129 26c0-14 11-26 26-26 15-1 27 12 27 26 0 15-13 27-27 27s-26-12-26-27z"/></svg>