<svg width="64" height="64" viewBox="0 0 1000 1000" xmlns="http://www.w3.org/2000/svg"><path d="M761 830c-9-15-16-32-25-47-49-76-117-128-203-158-56-20-114-29-173-16-74 15-127 59-164 123-3 5-7 12-1 17s12 2 18 0c11-4 23-8 35-11v8c-3 25-2 49 2 73 5 25 22 41 46 44 35 5 70 8 105 14 49 8 98 21 144 39 28 11 57 20 88 21 21 1 39-5 49-24 6-12 13-15 26-13 29 4 55-9 84-12-2-3-3-5-5-7-9-17-18-34-26-51zm-47-58c1 0 2 1 2 1 6 8 11 15 16 23-61-40-125-40-192-16 14-11 30-18 47-23 44-12 86-5 127 15zm-61-67c2 0 4 1 5 2 6 5 12 10 19 17-69-26-133-15-194 21 21-21 45-34 74-41 32-8 64-7 96 1zm-88-53c14 2 25 8 37 15-71-14-132 4-183 56l-1-1c6-8 11-16 18-23 35-36 79-50 129-47zm-44-22c-72 0-128 27-170 84 7-21 19-38 35-52 25-22 55-33 87-39 16-3 31 1 48 7zm-157-7c23-12 32-17 70-11-63 12-106 49-141 98v-2c15-35 37-66 71-85zm-121 94c6-34 39-80 75-87-13 12-29 25-42 40s-23 32-33 47zm390 208c-29-2-56-10-83-20-48-19-97-32-147-40-35-6-71-10-106-14-17-2-30-14-34-32-6-27-6-55-1-83 54-8 106-4 156 15 52 20 98 48 141 82 35 28 73 50 117 62h1c-7 21-23 32-44 30zm44-95c-30-8-61-10-92-6v-2c12-3 25-6 37-7 43-5 84 4 122 23 7 3 10 9 14 15l6 10c-28-14-57-26-87-33zm193-713c-12-11-14-11-28 0L387 472c-49 39-98 77-147 116 6 14 12 16 25 7 199-144 399-288 599-432 5-4 10-8 13-13 8-12 5-23-7-33zm-214-17c5-6 6-11 2-19-14-23-33-25-51-4-27 32-55 64-83 96L125 636c-10 11-9 17 6 26 2-3 4-6 7-9 127-136 254-272 381-407 45-49 91-98 137-146z"/></svg>