<svg width="64" height="64" viewBox="0 0 1000 1000" xmlns="http://www.w3.org/2000/svg"><path d="M166 670c81 31 164 40 249 33 57-6 112-18 164-43 16-7 31-16 46-25 7-3 12-7 12-8-1-1-2-2-4-3-1-1-2-1-3-2-76-35-151-71-227-106-109-52-218-103-327-155-6-3-10-2-15 2-7 9-16 16-23 25-21 26-35 55-37 89-3 47 17 86 49 119 33 34 73 57 116 74zm93-259c133 63 267 126 400 189 5 2 8 2 11-2 6-6 12-12 17-19 45-56 46-128 3-185-32-41-74-68-121-89-54-23-111-35-170-38-84-6-165 5-243 38-15 6-30 14-45 22-7 4-12 7-12 8s6 3 13 7l147 69zm456 166c-6 11-12 22-19 33-24 35-59 57-97 76-61 29-127 42-195 46-58 4-117 1-174-12-55-12-107-31-153-64-30-22-56-48-70-82-1-3-2-5-3-7-1-4-3-7-3-7s-1 6-1 12c1 4 1 8 1 12 0 43 18 79 47 109 33 37 75 61 121 78 102 38 206 43 312 22 65-14 126-39 177-83 31-27 55-60 62-102 1-10 2-20 2-30v-14s-4 6-7 13zm159-33c13-7 27-14 40-22 6-4 10-7 10-7 0-1-2-3-3-3-1-1-2-1-3-2-58-27-117-55-175-82 17 33 26 70 26 107 0 15-1 28-3 42 37-7 73-17 108-33zM714 381c77 37 153 73 230 109 5 3 7 3 10-1 5-6 10-11 15-17 40-49 41-113 2-164-28-36-65-60-106-78-49-21-99-31-151-34-74-5-146 5-215 34-8 3-17 7-25 12 102 21 188 72 240 139zm286 78c-1 0-4 5-7 11-5 10-10 20-16 29-22 31-52 51-86 67-42 20-87 32-132 38-7 23-18 45-31 66 19-2 39-5 58-9 59-12 112-34 157-73 28-24 48-53 55-90 1-9 1-18 2-27v-12z"/></svg>