<svg width="64" height="64" viewBox="0 0 1000 1000" xmlns="http://www.w3.org/2000/svg"><path d="M0 61v878h1000V61H0zm961 39v49H39v-49h922zM413 529V369h165v160H413zm165 29v163H413V558h165zm-193-29H223V369h162v160zm221-160h162v160H606V369zm0-28V178h162v163H606zm-28 0H413V178h165v163zm-193 0H223V178h162v163zm-191 0H39V178h155v163zm0 28v160H39V369h155zm0 189v163H39V558h155zm29 0h162v163H223V558zm162 191v151H223V749h162zm28 0h165v151H413V749zm193 0h162v151H606V749zm0-28V558h162v163H606zm191-163h164v163H797V558zm0-29V369h164v160H797zm0-188V178h164v163H797zM39 749h155v151H39V749zm758 151V749h164v151H797z"/></svg>