<svg width="64" height="64" viewBox="0 0 1000 1000" xmlns="http://www.w3.org/2000/svg"><path d="M815 535C706 426 597 316 487 207l-72-72c-6-7-13-12-20-15-15-8-31-9-49-5-66 15-131 29-197 44-24 5-35 21-40 43-14 62-28 124-42 187-3 12-6 26-4 39 2 11 10 21 15 32l6 6 399 399c14 14 30 23 53 22 11 0 22-4 32-11 3-2 6-5 8-8 80-80 161-160 240-240 29-28 28-64-1-93zM263 331c-10 7-22 11-35 11-35 0-64-27-65-61-1-1-1-2-1-3 1-11 3-21 8-30 11-21 32-34 57-34 13 0 26 4 36 10 17 12 29 31 29 54 0 22-12 41-29 53zm653 204C806 426 697 316 588 207c-24-24-49-48-72-72-20-20-43-26-70-20-7 1-15 3-22 5 7 3 13 8 20 15 23 24 48 48 72 72l328 328c29 29 29 65 1 93L605 868c-3 3-6 6-9 8 11 7 24 12 40 11 15 0 29-7 41-19l240-240c28-28 27-64-1-93z"/></svg>