<svg width="64" height="64" viewBox="0 0 1000 1000" xmlns="http://www.w3.org/2000/svg"><path d="M901 717c-22-22-51-35-83-36h-5c-34 0-66 14-88 36-23 23-37 54-37 88 0 18 4 35 11 50 6 14 15 28 26 39 22 22 54 36 88 36 69 0 125-56 125-125 0-34-14-65-37-88zm-31 105H755v-33h115v33zM757 638c-70 11-123 72-123 145 0 19 3 36 9 52-38 36-84 64-140 82-97 31-178 6-243-72-19-22-30-46-29-77 2-79 1-159 1-238v-20c-26 0-50 1-74-1-7 0-16-3-21-8-24-24-48-50-74-77h169V260c-1-24-9-42-23-54-5-4-12-6-12-6-1-1-7-2-10-2l-10-2-62-1c-4-21-6-41-6-62s2-42 6-62h87c6 0 13 0 19 1 24 3 43 15 58 34 22 26 34 56 40 88 1 10 2 20 2 29 2 60 1 120 1 180v19c5 0 7 1 9 1 32-7 54 8 73 31 15 19 33 35 53 56H322v234c0 53 28 82 80 85 26 2 50-2 71-14 69-40 123-93 145-172 2-9 3-18 5-29h-28c-65-1-104-36-108-101-1-16-1-33 2-48 11-48 46-76 95-79 80-4 141 40 167 123 13 43 15 87 6 129z"/></svg>