<svg width="64" height="64" viewBox="0 0 1000 1000" xmlns="http://www.w3.org/2000/svg"><path d="M901 717c-21-22-51-35-84-36h-4c-35 0-66 13-88 36-23 23-37 54-37 88 0 18 4 35 10 50 7 14 16 27 27 39 22 22 53 36 88 36 69 0 125-56 125-125 0-34-14-65-37-88zm-29 106h-41v41h-36v-41h-41v-36h41v-41h36v41h41v36zM757 638c-70 11-123 72-123 145 0 18 3 36 9 51-38 37-85 65-140 83-96 31-178 5-243-72-19-22-30-47-29-78 2-79 1-158 1-237v-20c-26 0-49 0-73-1-8 0-16-3-22-9-24-24-48-49-74-77h169V260c0-24-9-42-23-54-5-4-12-6-12-7-1 0-7-1-10-1l-10-2-62-2c-4-20-6-40-6-61s2-42 6-63h87c6 0 13 1 20 2 23 3 42 15 57 34 22 26 35 56 40 88 1 10 2 19 3 29 1 60 0 120 0 179v20c5 0 7 1 9 1 32-7 54 8 73 31 15 19 34 35 54 56H322v234c0 53 28 82 80 85 26 2 50-2 71-14 69-40 123-93 145-172 2-9 3-18 5-29h-28c-65-1-104-37-108-101-1-16-1-33 2-49 11-47 46-75 94-78 81-4 142 40 168 123 13 43 15 87 6 129z"/></svg>