<svg width="64" height="64" viewBox="0 0 1000 1000" xmlns="http://www.w3.org/2000/svg"><path d="M500 689v-32c0-4-2-4-5-5-50-19-97-44-140-77-45-34-83-74-107-126-20-42-27-86-22-133 0-1 1-2 1-5 4 12 8 22 13 31 13 30 32 56 53 80 50 57 111 97 179 128l29 13c3 2 6 1 6-3v-19c0-4-2-4-5-5-47-21-90-48-130-80-46-37-85-79-110-133-20-40-29-82-27-127 1-28 6-56 15-84 3 10 5 20 8 29 11 40 30 77 53 112 49 72 114 128 188 173 28 18 58 34 88 48 4 2 5 4 4 8-12 32-21 65-26 99-5 37-6 74-2 111 4 39 13 77 28 114 1 4-1 6-4 8-36 31-74 61-112 91-12 10-25 20-38 31-3 3-5 2-5-2l-9-48c-1-3 1-5 3-7 23-24 46-48 70-73 5-5 5-5-2-8-63-32-119-72-167-124-40-43-70-92-83-150-3-14-5-28-6-43 61 104 155 165 262 208zM334 62c6 16 12 31 19 45 21 45 49 85 82 122 44 48 97 87 156 115 17 8 35 16 53 22s33 17 48 29c29 22 55 48 73 80 5 7 8 15 9 23 1 4 1 8 1 12-1 4-3 5-7 2-9-8-19-15-32-16-5-1-9 0-13 3-29 24-45 54-47 92s26 128 22 132c-28 25-57 49-86 74-4 4-6 3-7-2-11-25-18-51-22-77-4-24-4-49-4-73 1-56 13-109 31-162 4-10 4-11-5-18-17-15-36-27-54-40-39-29-77-59-111-94-35-36-66-75-87-122-18-39-26-80-23-122 0-8 2-15 3-23 0 0 1-1 1-2z"/></svg>