<svg width="64" height="64" viewBox="0 0 1000 1000" xmlns="http://www.w3.org/2000/svg"><path d="M936 543c-1-41-24-72-63-86-12-5-18-11-22-22-20-54-42-109-63-163-20-53-50-73-107-73h-38c0-2 1-4 1-6v-91c0-21-12-33-33-33H402c-22 0-34 12-34 33v90c0 3 1 4 1 7h-51c-56 0-86 20-106 72l-66 168c-2 6-7 13-13 15-49 20-70 51-70 104v223c0 2 1 4 3 4 18 0 34 0 51-1 13 0 18 4 17 18 0 25 0 51 1 76 3 35 39 60 73 51 32-8 50-30 50-66 1-24 1-49 1-74 0-2 1-4 3-4h476c2 0 4 2 4 4 0 25-1 49 0 73 1 50 38 79 82 66 24-8 40-28 41-53 1-28 0-57 0-87 0-2 2-3 4-3h64c2 0 4-2 4-4 0-81 2-159-1-238zM604 187h-39v-39h39v39zm-78-74c0-1 3-4 5-4 11-1 22 0 34 0v39h-39v-35zm-1 74h-38v-39h38v39zm-78-78h39v39l-40-1 1-26v-12zm-39 38h38v40h-38v-40zM198 649c-37 0-67-31-66-68 1-36 31-67 66-67 36 0 65 31 64 69 0 37-28 66-64 66zm15-198c-2 0-3-2-3-4s1-4 1-6c18-49 36-97 55-146 11-29 21-35 51-35h156v8c0 2 1 3 3 3h48c2 0 3-1 3-3v-8c52 0 104 0 156-1 24 0 40 8 49 30l57 156c1 1 1 2 1 3s-2 3-4 3h-36c-12-38-47-66-88-66s-77 28-88 66H213zm449-56c36 0 67 23 78 56H584c11-33 42-56 78-56zm141 254c-37 0-65-29-66-65 0-39 28-69 64-70 36 0 67 32 67 68 0 37-30 66-65 67z"/></svg>