<svg width="64" height="64" viewBox="0 0 1000 1000" xmlns="http://www.w3.org/2000/svg"><path d="M575 230c-5-24-26-42-51-42s-46 18-51 42c-64 14-118 55-151 110h404c-32-55-87-96-151-110zm-51 13c-10 0-18-9-18-19s8-18 18-18c11 0 19 8 19 18s-8 19-19 19zm400 163c-11-28-29-46-55-54-40-12-87 6-118 21-2-2-5-5-8-7H303c-53 41-86 98-90 160-2-6-3-12-4-18-3-10-4-20-5-31l-1-8-1-9c-1-7-2-14-5-21-4-14-11-28-22-38-10-11-23-18-34-20-54-10-64 37-64 37s66-11 64 35c1 3 1 7 0 10l-1 16c0 12 0 25 1 38 2 25 6 52 18 77 11 25 29 47 50 61 20 14 40 20 55 23 3 1 7 1 10 2 31 33 71 59 110 73h276c52-19 95-50 126-88 119-90 180-154 138-259zM819 608c9-23 14-46 14-71 0-55-23-106-62-146 26-13 63-24 92-15 18 5 30 18 39 39 30 74 3 122-83 193zM647 767H401c-8 0-14 7-14 15v15c0 8 6 15 14 15h246c8 0 15-7 15-15v-15c0-8-7-15-15-15zM81 344c0-4 2-6 6-10s10-10 9-20c-1-11-8-15-13-19-5-3-7-4-7-8-1-4 1-6 5-10 4-5 10-10 9-21-1-3-4-6-7-5-4 0-6 3-6 7s-2 6-5 10c-5 4-10 10-9 20s8 15 13 18c4 3 7 5 7 9s-2 6-5 10c-5 4-10 10-9 20 0 4 3 6 7 6 3 0 6-4 5-7zm37-42c5 3 7 4 8 8 0 4-2 6-6 10-4 5-10 11-9 21 1 3 4 6 8 6 3-1 6-4 5-7 0-4 2-6 6-10 4-5 10-11 9-21-2-10-8-15-13-18s-7-5-8-9c0-3 2-6 6-10s10-10 9-20c-1-3-4-6-7-6-4 1-7 4-6 7 0 4-2 6-5 10-5 5-10 11-9 21s7 14 12 18z"/></svg>