<svg width="64" height="64" viewBox="0 0 1000 1000" xmlns="http://www.w3.org/2000/svg"><path d="M894 952c-1-22-4-44-6-66-7-57-17-113-31-169-6-21-13-41-20-62-13-41-43-64-81-79-31-12-63-19-94-30-7-3-9-1-10 5-6 24-12 48-19 71-18 67-37 133-66 195-1 4-2 8-6 9l-1-1c-7-36-15-72-21-107-5-31-18-62-6-94 4-11-2-16-11-22-16-11-28-11-43 0-13 9-13 8-10 24 2 12 6 24 3 37-8 41-15 82-23 123-3 14-6 27-9 43-10-18-16-34-22-50-27-69-46-140-65-211-2-8-1-20-7-23-6-2-16 4-24 7-32 10-64 17-95 32-29 14-49 35-61 65-14 37-24 74-32 112-14 68-25 136-27 205-1 23 9 34 33 34h717c15 0 27-3 34-15 3-9 3-23 3-32v-1zM319 350c10 3 13 8 16 16 19 46 43 89 82 121 30 24 63 37 102 31 28-4 51-18 72-37 36-33 60-74 77-120 2-3 2-9 6-9 16 0 22-13 32-21 17-13 18-31 14-50-1-9-6-14-15-13-8 1-9-2-7-8 5-25 8-50 9-78-1-7-1-16-2-25-3-20-8-38-28-49-4-2-5-5-7-9-19-36-45-64-82-81-25-11-50-16-76-18-69-3-126 18-164 79-2 5-6 6-10 8-15 6-27 17-34 31-9 19-14 40-15 60-1 28 3 55 9 83 1 4 1 7-5 7s-10 4-11 9c-10 28 9 66 37 73zm43-60c-1-8 1-16 10-20 4-2 8-3 12 2 3 5 8 5 12 4 6 0 9 1 8 8-1 12 7 20 17 20 11-1 18-10 16-22-1-5 1-6 5-6 5 0 11 1 16-2 3-2 4 0 5 2 10 12 10 28 0 39-19 20-44 28-71 23-16-3-27-20-30-41v-7zm257 101c-16 29-34 56-61 76-40 29-82 28-122-6-32-28-53-64-70-103v-4c28 13 56 10 82-2 25-12 43-28 43-58 1-7 5-6 9-6 4 1 9-1 10 6 7 41 39 67 82 68 8 0 15 0 23-1 7-2 13-5 21-7-4 14-11 25-17 37zm-23-52c-18 0-35-5-50-16-9-7-15-16-16-28 0-7 4-13 7-19 2-2 4-3 8-2 12 1 21 3 21 19-1 8 11 12 19 10 9-3 14-10 12-18-2-9 2-9 8-9 4 0 8 0 12-3 8-7 18-4 21 7 9 25-15 60-42 59zM370 143c3-3 5-3 7 0 37 47 89 59 145 62 23 1 45-1 67-8 12-3 16-9 13-17-4-9-11-8-19-6-42 12-83 10-124-3-2-1-3-2-5-2 22 3 43 5 65 4 37-1 71-12 100-35 8-6 11-4 15 3 12 20 17 41 20 63 2 20 3 40 2 63-13-21-32-18-51-18h-57c-12 0-20 5-26 15-4 5-7 7-13 6-3-1-6-1-9 0-11 1-19-1-25-11-4-7-12-10-21-10h-71c-20 0-23 2-37 15-15-36-3-95 24-121z"/></svg>