<svg width="64" height="64" viewBox="0 0 1000 1000" xmlns="http://www.w3.org/2000/svg"><path d="M799 843h-2l-9-138c-3-53-21-78-73-92-35-9-71-16-106-23-10-2-18 0-26 8-51 49-114 49-167-1-6-5-10-9-18-7-38 8-77 14-114 24-43 10-69 36-72 83-4 81-10 162-12 243 0 12 5 17 15 20 33 11 68 19 102 24 95 16 191 21 287 10 60-7 119-16 177-33 13-4 19-10 18-25-1-31 0-62 0-93zm-88-76c-7 17-20 35-36 33-19-2-34-19-40-40-10-38-5-43 42-43h4c37 0 47 16 30 50zm-519-73c2-33 14-62 43-81 19-12 40-20 62-24 28-6 57-13 86-18 9-2 12-6 8-15-4-6-1-20-16-14-42 16-88 18-131 32-50 16-82 46-87 103-4 48-7 97-13 145v76c0 13 3 24 12 33 5 4 11 12 18 10 9-3 4-12 5-19 5-76 9-152 13-228zm653-3c-3-49-19-91-69-109-19-7-38-12-57-17-30-8-61-8-90-21-10-4-15-6-19 7-3 11-5 17 10 20 30 5 59 12 89 17 51 9 93 47 98 91 3 25 4 51 6 76 3 62 6 123 10 189 22-12 33-25 33-48 0-69-7-137-11-205zM316 341c2 15 8 27 14 40 4 8 10 15 19 17 4 1 3 4 4 6 3 17 8 33 17 49 13 22 31 39 52 54 13 9 25 19 40 25 30 12 60 11 89-5 25-14 49-31 68-54 15-18 27-38 28-63l1-6c0-3 2-5 5-7 11-4 17-13 20-23 4-11 9-22 12-34v-14c-1-5-2-10-4-14-3-8-7-15-15-18-2-2-2-4-2-6-1-13 2-26 3-40 4-36-1-70-16-103-4-8-9-16-10-25 0-3-2-4-4-4-7-1-10-5-13-11 0-1-1-3 0-5 4-3 1-4-2-4-5-2-10-1-15-1-3 1-4 0-4-3-1-5-3-9-5-14-1-3-2-3-5-3-10 2-19 2-28-2-5-3-8-7-10-12-4-10-9-17-21-18-3-1-3-3-3-5V20c-5 3-9 6-14 8-6 3-9 1-9-6 0-8 3-15 6-22h-4c-8 3-16 6-21 14-1 3-3 5-4 8-4-7 1-13 4-20-14 4-24 12-32 23-6 6-10 13-15 19-4 4-5 4-7 0 0-1 0-3-1-4 0-1 0-2-1-3-4 2-6 5-8 9-4 7-7 14-11 22s-6 9-14 4l-2-2c-6-6-6-6-12 0-10 11-17 24-23 37-4 8-9 15-16 21-5 4-9 9-14 14 2 2 5 1 7 1 5 1 6 3 4 8-4 9-9 19-14 28-1 1-1 3-2 5 2 0 3-1 5-2 2 0 3-1 5 0 1 2-1 3-1 5-5 12-9 24-14 37 2 1 3 0 4-1 6-2 6-2 6 5-2 21-2 42 0 63 0 1 0 3-2 4-15 12-17 29-15 46zm19-30c3 8 4 16 5 23 1 5 9 10 14 8 2-1 1-2 1-4 0-6-1-12-1-18-3-28 3-55 9-83 4-19 8-39 14-58 2-6 5-12 7-18 6-13 17-19 32-20 14-1 28 1 41 5 18 4 35 3 53-2 14-4 29-6 43-7 17 0 29 8 38 20 10 14 16 30 22 46 5 13 10 26 16 37 1 2 2 4 3 5 10 10 11 23 12 36 0 17 1 33 0 50 0 2-1 6 4 5 4 0 8 1 8-5l3-24c5 2 7 6 9 10 3 11 3 22-1 33l-9 21c-1 4-4 8-8 11-2 1-4 3-6 2-7-2-8 3-8 7-2 9-3 17-4 25-3 16-10 30-20 42-21 28-49 48-80 62-26 10-53 8-77-8-16-11-32-21-46-34-24-22-37-48-42-79-1-2-1-4-2-6-1-5-1-10-9-9-6 1-10-3-12-8-5-12-11-24-14-37-2-9 0-18 5-28zm173 119c-6 2-12 2-18 0-4-2-8-3-13-3-10 1-21 5-32 5 8 5 17 9 26 8 5-1 10-1 14 1 10 4 19 4 28 1 5-2 10-2 15-1 8 2 16 1 24 0 1-1 3-1 3-2s-1-2-2-1c-9 1-16-4-23-7-8-4-15-4-22-1zm27-116c2 1 4-2 5-3 3-6 8-9 15-11-4 10-3 15 3 20 5 4 11 3 16-1s6-10 2-19c8 3 13 6 16 13 1 2 2 5 4 3 3-1 2-3 2-6-2-4-4-7-7-9-12-10-32-11-46-4-4 3-8 6-10 10-2 2-3 5 0 7zm-78-15c-10-6-20-8-31-6s-20 7-24 18c-1 2-1 4 1 5 3 1 4 0 4-2 3-8 9-11 17-14-3 9-3 14 2 19 5 4 10 5 15 2 8-5 9-12 5-20 7 2 12 5 15 10 0 2 2 4 4 3 2-2 2-4 1-6-2-4-5-7-9-9zm-56-21c5-2 10-3 15-4 12-2 23 1 34 6 6 3 12 1 14-3s-1-7-9-10c-12-5-24-7-36-5-10 0-19 4-27 11-4 4-6 9-4 17 3-7 7-10 13-12zm139 3c2 1 5 0 7-1 3-1 6-2 10-3 19-7 42-3 53 11 2-6 1-11-5-15-8-8-19-12-30-12-13 0-26 2-37 8-3 2-5 4-4 8 0 3 3 4 6 4zm-63 104c9 6 18 8 28 3 9-4 14-12 15-22 0-3 0-6-1-8-1-3-2-6-6-5s-3 4-2 7c3 7 0 13-5 17-7 7-17 7-25 0-3-1-5-2-7 0s-1 4 1 6c1 1 1 2 2 2zm-4 73c11 15 38 16 48 2-16 2-32 3-48-2z"/></svg>