<svg width="64" height="64" viewBox="0 0 1000 1000" xmlns="http://www.w3.org/2000/svg"><path d="M535 313c2 2 4-1 5-3 3-5 8-8 14-10-4 10-3 15 3 19s11 4 16 0c6-4 7-10 3-19 7 3 13 6 15 13 1 2 2 4 5 3s2-4 1-6c-1-4-4-7-7-9-11-10-31-11-45-4-4 2-8 5-11 10-1 2-2 5 1 6zm-27 116c-6 3-12 2-18 0-4-1-8-2-13-2-10 1-21 4-32 4 8 6 16 10 26 9 5-1 10-1 14 1 9 3 19 4 28 0 5-1 10-1 15 0 8 1 16 1 24-1 1 0 2 0 2-1 1-1-1-2-1-2-9 2-16-3-23-6-8-4-15-5-22-2zm-31-44c9 6 18 7 28 3 9-4 14-12 15-23 0-2 0-5-1-7-1-3-2-6-6-5s-3 4-2 7c3 7 0 12-5 17-7 7-17 7-25 0-3-2-5-3-7 0-2 2-1 4 1 6l2 2zm-4 72c11 16 37 17 48 3-16 2-32 3-48-3zm67-176c2 0 5 0 7-1 3-1 6-2 10-4 19-7 41-2 53 12 2-7 1-11-5-15-8-8-19-12-30-12-13 0-26 2-37 8-3 2-5 4-4 7 0 4 3 5 6 5zm318 601c-2-74-7-147-15-221-2-19-8-35-18-49-10-15-23-26-40-35-54-27-113-30-170-42-10-2-9 4-11 11-5 30-19 55-44 73-19 12-40 18-60 19-20-1-41-7-60-19-25-18-39-43-44-73-1-7-1-13-11-11-57 12-116 15-170 42-17 9-30 20-40 35-10 14-16 30-18 49-8 74-13 147-15 221 0 32 14 51 41 63 52 24 108 35 165 43 50 7 101 13 152 12 51 1 102-5 152-12 57-8 113-19 165-43 27-12 41-31 41-63zm-678-8c0 12 1 24-5 36-10-9-8-19-8-28-1-61 5-122 10-183 7-80 28-103 107-121 26-5 51-10 77-14 5-1 12-7 14 2 2 8-6 7-11 8-30 7-61 11-91 20-54 15-78 45-83 102-5 59-10 118-10 178zm595 62c-59 21-172 38-275 40-103-2-215-19-275-40-18-6-27-13-25-34 4-65 7-129 10-193 2-49 22-84 72-96 31-7 62-12 93-19 9-2 12 4 17 10 29 38 69 57 108 57s79-19 108-57c5-6 8-12 17-10 31 7 62 12 93 19 50 12 70 47 72 96 3 64 6 128 11 193 1 21-7 28-26 34zm50-26c-6-12-5-24-5-36 0-60-5-119-10-178-5-57-29-87-83-102-30-9-60-13-91-20-4-1-13 0-11-8 3-9 9-3 14-2 26 4 51 9 77 14 79 18 100 41 107 121 5 61 11 122 10 183 0 9 3 19-8 28zM678 702h-2c-8 6-16 11-25 15-5 3-11 5-16 7v1c0 5 1 10 2 15 0 7 2 15 4 23 3 9 8 17 15 24 3 3 6 6 9 8l12 9c0-1 0-1 1-1 6-4 12-9 18-14s10-11 13-18c5-8 6-18 8-27l1-15 1-5c-5-1-10-3-15-6-9-5-18-10-26-16zM457 298c-10-5-20-7-31-5s-20 7-24 18c-1 2-1 4 1 5 3 1 4 0 5-2 2-8 9-12 17-14-4 9-4 14 1 19 5 4 10 4 15 2 8-5 9-12 5-20 7 2 12 5 15 10 0 2 2 4 4 2 2-1 2-3 1-5-2-4-5-7-9-10zm-126-3c-15 12-17 28-15 46 2 14 9 27 14 40 4 8 10 14 19 17 4 1 3 3 4 6 3 17 8 33 17 48 13 22 31 40 52 54 13 9 25 19 40 25 30 13 60 12 88-4 26-15 50-31 69-54 15-18 27-39 28-63l1-6c0-4 1-6 5-7 11-4 16-13 20-23 4-12 9-22 12-34v-15c-2-4-3-9-4-14-3-7-7-14-15-18-2-1-2-3-2-5-1-14 2-27 3-40 4-36-2-70-16-103-4-8-9-16-10-25 0-3-2-4-5-4-6-1-9-5-12-11 0-1-1-3 0-5 4-3 1-4-2-4-5-2-10-1-15-1-3 1-4 0-5-3 0-5-2-10-4-14-1-3-2-4-5-3-10 2-19 2-28-2-5-3-8-7-10-12-4-10-9-17-21-18-3-1-3-3-3-5V20c-5 3-9 6-14 8-7 3-9 1-9-6 0-8 3-15 6-22h-4c-8 3-16 6-21 14-1 3-3 5-4 8-4-7 1-13 4-20-14 4-24 12-32 23-6 6-10 13-15 19-3 4-4 4-6 0-1-1-1-3-2-4 0-1 0-2-1-3-4 2-6 5-8 9-4 7-7 14-10 22-4 8-7 9-15 3-1 0-2-1-2-2-6-5-6-5-12 1-10 11-16 24-23 37-4 8-9 14-16 20-4 5-9 10-14 14 3 2 5 2 7 2 6 1 7 2 5 7-4 10-10 19-15 29l-2 5c2 0 4-2 5-2 2 0 4-1 5 0 1 2 0 3-1 4-4 13-9 25-13 37 1 2 2 0 3 0 6-2 6-2 6 4-1 21-2 42 0 63 0 2 0 3-2 5zm4 16c3 8 4 16 5 23 1 5 9 9 14 8 2-1 1-3 1-4 0-6-1-12-1-18-3-28 3-56 9-83 4-20 8-39 14-58 2-6 4-12 7-18 6-14 17-19 32-20 14-1 28 1 41 4 18 5 35 4 53-1 14-5 28-6 43-7 17 0 28 8 38 20 10 14 16 30 22 46 5 13 10 25 16 37 1 2 2 4 3 5 10 10 11 23 11 36 1 16 1 33 1 49 0 3-1 6 4 6 4 0 8 1 8-5l3-24c5 2 7 6 8 10 4 11 4 22 0 33l-9 21c-1 4-4 8-8 11-2 1-4 3-6 2-7-2-8 2-8 7-2 8-3 17-4 25-3 16-10 30-20 42-21 27-49 48-80 61-26 11-53 8-77-8-16-10-32-21-46-34-24-21-37-48-42-78-1-3-1-5-2-7-1-5-1-10-9-8-5 1-10-4-12-9-5-12-11-23-14-36-2-10 0-19 5-28zm66-34c5-2 10-3 15-3 12-2 23 1 33 6 7 2 13 1 15-3s-1-7-9-10c-12-5-24-7-36-6-10 1-19 5-27 12-4 4-6 9-5 16 4-6 8-10 14-12z"/></svg>