<svg width="64" height="64" viewBox="0 0 1000 1000" xmlns="http://www.w3.org/2000/svg"><path d="M771 616c-29 0-58-1-87 0-74 3-133 35-177 94-5 7-7 7-12 0-48-63-112-95-192-95-54 0-109 1-164 0-49 0-86-29-97-75-14-56 29-114 86-116 40-1 79 0 118 0 12 0 12 0 7-11-8-20-14-40-17-61-1-8-5-10-12-13-71-21-113-69-125-141-12-68 22-137 81-173 68-41 155-30 211 26 6 6 11 7 18 4 61-22 122-22 182 0 8 3 13 2 19-4C659 4 717-12 782 9c65 20 106 66 119 133 17 89-37 174-125 198-7 2-10 5-11 12-3 22-10 43-19 63-3 7-1 9 6 9 37-1 74-1 111 0 57 0 98 41 98 95s-42 96-98 96c-30 1-61 0-92 0v1zM502 243c-44 1-83 14-116 42-58 51-62 136-7 191 60 61 163 67 230 13 65-53 70-141 11-198-33-33-74-47-118-48zm-329-67c2 36 20 65 53 83 7 4 10 3 11-5 13-60 42-110 88-150 6-5 4-7-1-10-32-21-66-23-100-5-33 17-50 47-51 87zm557-99c-17-1-34 5-50 15-11 6-11 6-1 15 44 39 72 88 84 146 2 9 5 10 12 6 40-21 60-65 50-108s-48-73-95-74zM309 693c84 0 153 69 153 152 0 86-69 155-154 155-84 0-153-70-153-154 0-85 68-153 154-153zm384 0c87 1 155 70 154 156-2 83-73 152-154 151-88-1-155-71-154-159 1-81 72-149 154-148zM500 410c-31-1-59-10-80-35-21-26-21-58 0-84 36-43 118-46 156-4 29 31 27 73-7 100-20 16-43 23-69 23z"/></svg>