<svg width="64" height="64" viewBox="0 0 1000 1000" xmlns="http://www.w3.org/2000/svg"><path d="M857 560c-112-33-203-93-203-207 0-18-11-32-28-32s-30 13-30 29-15 28-33 28H436c-18 0-33-13-33-28s-13-29-30-29-26 14-26 32c3 57-16 170-199 209-18 4-33 7-35 7-1 1-2 16-2 34v192c0 18 15 33 33 33h712c18 0 33-15 33-33V571v-2s-14-4-32-9zm-310-29l36-37c5-6 14-6 20 0s6 15 0 21l-36 38c-5 6-14 6-20 0-5-6-5-16 0-22zm-62-68c0-8 6-15 14-15h1c8 0 14 7 14 15v54c0 8-6 15-14 15h-1c-8 0-14-7-14-15v-54zM353 603c0-8 6-15 14-15h51c7 0 14 7 14 15 0 9-7 16-14 16h-51c-8 0-14-7-14-16zm99 73l-36 37c-6 6-14 6-20 0s-6-15 0-21l35-38c6-6 15-6 21 0 5 6 5 16 0 22zm0-123c-6 6-15 6-21 0l-35-38c-6-6-6-15 0-21s14-6 20 0l36 37c5 6 5 16 0 22zm62 191c0 8-6 15-14 15h-1c-8 0-14-7-14-15v-54c0-8 6-15 14-15h1c8 0 14 7 14 15v54zm-14-105h-1c-19 0-34-16-34-36 0-19 15-35 34-35h1c19 0 33 16 33 35 1 20-14 36-33 36zm103 74c-6 6-15 6-20 0l-36-37c-5-6-5-16 0-22s15-6 20 0l36 38c5 6 5 15 0 21zm29-94h-51c-7 0-14-7-14-16 0-8 6-15 14-15h51c7 0 14 7 14 15 0 9-7 16-14 16zM422 291c51-4 114-5 176 0 44 4 95 3 95 32h243c-5-33-73-147-425-151-371-3-449 118-448 151h242c0-27 40-26 117-32zM281 424c15 0 24-13 24-25v-50H63v53c0 13 9 22 27 22h-3 194zm657-75H695v50c0 12 9 25 24 25h194-3c18 0 27-9 27-22l1-53z"/></svg>