<svg width="64" height="64" viewBox="0 0 1000 1000" xmlns="http://www.w3.org/2000/svg"><path d="M935 347c-34-81-68-162-103-243-6-13-21-20-34-14-82 35-162 69-244 103-13 6-19 21-13 34l14 34-20 18-6-15c-6-14-22-20-36-14-65 27-130 55-196 83-14 6-20 22-14 36 4 10 9 21 13 32h-28c-7-9-19-12-29-8-46 20-91 39-137 59-13 5-20 20-14 34 4 9 8 19 12 28-10 5-20 9-30 13-6 3-9 10-7 16 10 22 19 43 28 65 2 6 10 9 16 6l30-13c3 7 6 15 9 22 6 13 21 19 34 13 46-19 92-38 137-58 14-5 20-21 14-34l-3-7h26c4 9 8 18 12 28 3 8 10 13 18 15v2c5 11 10 22 14 33 2 5 7 7 12 5 10-4 20-8 31-13 5-2 7 0 5 5-39 98-77 194-115 292-2 4 0 8 5 8h22c7 1 10-2 13-9 43-103 87-206 130-310 3-9 8-15 16-18 4-2 9-1 11 2 1 2 1 3 2 5 15 33 30 67 46 100l99 219c2 3 6 8 9 8 8 1 17 1 26 1 5 0 7-4 5-8-49-114-98-227-146-340-2-4 0-9 4-11 17-7 34-15 51-22 5-2 7-7 5-11-5-11-10-22-14-34-1-1-2-1-3-2 3-7 4-15 1-22l-1-2 19-18 13 31c6 13 21 19 34 13 81-34 162-68 244-103 13-5 19-21 13-34z"/></svg>