<svg width="64" height="64" viewBox="0 0 1000 1000" xmlns="http://www.w3.org/2000/svg"><path d="M638 170c47 0 85-38 85-85S685 0 638 0s-85 38-85 85 38 85 85 85zm197 119c-8-93-116-92-116-92H549c-122 2-118 92-118 92v8l-1 5c-3-3-5-4-7-5-11-14-22-36-26-69 2-11 2-22 1-33-2-18-8-35-17-52-1 1-17-43-89-71-18-6-29-6-44-5-22 2-42 11-57 26-41 41-33 114 17 164 28 28 65 44 99 44 1 0 45-1 87 32 1 1 2 1 2 2l35 33v14c0 21 16 37 36 37 5 0 10-1 15-3-12 13-18 29-12 44 7 19 31 27 55 22v46l-38 221 38 202c0 27 22 49 48 49 27 0 49-22 49-49l-39-208 39-223h22l77 432c0 27 22 48 48 48 27 0 48-22 48-48l-66-554 47-17c22-8 36-26 37-43v-49zm-310 15v88l-22-22v-66h22zm-304-60c-44-43-53-106-20-140 33-33 95-25 140 18 44 44 53 107 20 140-33 34-96 26-140-18zm174 58c-4 4-6 10-6 16-18-12-36-19-51-22 13-4 25-12 35-21 8-8 14-17 18-28 4 21 12 36 19 48-5 0-11 2-15 7zm346 12l-1-10h23l3 1-25 9z"/></svg>