<svg width="64" height="64" viewBox="0 0 1000 1000" xmlns="http://www.w3.org/2000/svg"><path d="M348 105c-164 0-279-1-348-4 6 77 8 140 8 192 0 32-1 60-4 85h26c13-63 28-112 46-149 18-36 40-62 65-78s56-24 92-24h25v643c0 31-3 54-10 68-6 15-17 24-33 29-17 6-42 8-78 9v22c90-2 159-3 206-3 48 0 120 1 214 3v-22c-35-1-60-3-77-9-16-5-27-14-34-29-6-14-9-37-9-68V127h26c35 0 66 8 91 24s47 42 65 79c18 36 33 86 45 148h26c-3-25-4-53-4-85 0-52 3-115 8-192-67 3-183 4-346 4zm625 682c-17 17-33 34-49 51-2 1-4 4-5 6l-2-2v-7-308c-5 2-10 4-16 4s-11-2-16-4v180c1 42 0 84 0 126v11c-2-3-4-4-6-6-17-17-33-34-50-51-6-6-12-7-19-4-6 4-9 9-8 16 1 4 3 7 5 10 28 28 55 56 83 84 6 7 16 7 23 0 27-28 54-56 82-84 7-7 7-17 0-23-6-6-15-6-22 1zM810 216c7 4 13 2 19-4 17-16 33-33 50-50 2-2 3-4 6-6v317c5-3 10-5 16-5s11 2 16 5V293 157l2-1c1 2 3 4 5 6 16 17 32 34 49 50 7 7 16 8 22 1 7-6 7-15 0-23-28-28-55-55-82-83-7-7-17-7-23-1-28 29-55 57-83 85-2 2-4 5-5 9-1 7 2 13 8 16zm110 284c0 10-9 19-19 19s-19-9-19-19c0-11 9-19 19-19s19 8 19 19z"/></svg>