<svg width="64" height="64" viewBox="0 0 1000 1000" xmlns="http://www.w3.org/2000/svg"><path d="M175 263h25c12-60 26-107 43-142 17-34 38-59 62-74 23-15 53-23 87-23h23v610c0 30-3 51-9 65-5 13-16 22-32 27-15 5-39 8-73 8v21c86-2 151-3 196-3s113 1 202 3v-21c-33 0-57-3-72-8-16-5-27-14-33-27-6-14-9-35-9-65V24h25c34 0 63 8 86 23 24 15 45 40 62 75s31 81 43 141h24c-2-24-3-51-3-82 0-48 2-109 7-181-64 2-173 3-328 3S236 2 171 0c5 72 8 133 8 181 0 31-1 58-4 82zm570 554c-7-6-15-7-21-1-7 7-6 15 1 22 15 16 31 31 47 47 2 1 4 3 6 4l-1 2H526c3 5 4 10 4 15s-1 11-4 15h252c-2 3-4 4-6 6-16 16-32 31-47 47-6 6-7 12-4 18s8 8 15 8c4-1 6-2 9-5 27-26 53-52 80-78 6-6 6-16 0-22-27-26-53-52-80-78zm-270 74H353c-41 1-81 0-122 0h-7l-1-2c2-1 4-3 6-4 15-16 31-31 47-47 7-7 7-15 1-21s-15-6-22 0c-26 26-53 52-79 78-7 7-7 16 0 22 26 26 53 52 80 78 2 3 5 5 9 5 6 1 12-2 15-8s2-12-4-18l-48-47-6-6h253c-3-4-4-9-4-15 0-5 1-10 4-15zm43 15c0 10-8 18-18 18s-18-8-18-18 8-18 18-18 18 8 18 18z"/></svg>