<svg width="64" height="64" viewBox="0 0 1000 1000" xmlns="http://www.w3.org/2000/svg"><path d="M38 899c-24 26-25 64-2 86s61 19 86-6l30-32-84-79-30 31zm561-517L165 837c-3 4-2 9 1 12s8 3 11-1l433-455c3-3 3-9 0-12s-8-2-11 1zM932 52l-9-8c-64-61-165-58-225 5L286 482c-48 51-56 124-25 183L84 851l83 80 177-186c60 27 134 15 182-35l411-433c61-64 58-164-5-225zm-9 170c-4 5-12 5-17 0l-53-50-78 82 53 51c5 4 5 12 0 17-4 5-12 5-17 0l-53-50-78 82 53 51c4 4 5 12 0 17s-12 5-17 0l-53-50-79 82 53 51c5 5 5 12 1 17-5 5-12 5-17 0l-53-50-79 83 53 50c5 5 5 12 1 17-5 5-12 5-17 0l-53-50-279 293c-12 13-32 13-45 1s-13-32-1-45l279-293-43-41c-5-5-5-12 0-17 4-5 12-5 16-1l44 41 78-82-43-41c-5-5-5-12 0-17s12-5 17-1l43 41 78-82-43-41c-4-5-5-12 0-17s12-5 17-1l43 41 79-82-43-41c-5-5-5-12-1-17 5-5 12-5 17-1l43 41 79-82-43-41c-5-5-5-12-1-17 5-5 12-5 17-1l43 41 10-10c12-13 33-13 45-1s14 32 2 45l-10 10 53 51c4 4 4 12-1 17z"/></svg>