<svg width="64" height="64" viewBox="0 0 1000 1000" xmlns="http://www.w3.org/2000/svg"><path d="M896 316c2-22-6-29-26-26h-16c-17 2-22-4-24-21-4-47-20-89-47-128C722 55 616 5 507 1V0h-14v1C384 5 278 55 217 141c-27 39-43 81-47 128-1 17-7 23-24 21h-16c-20-3-28 4-26 26 2 28 1 57 0 85-1 16 3 23 21 23 35-1 35 1 32 36-13 136 13 263 87 379 49 77 114 135 206 155 15 3 29 4 43 5v1h14v-1c14-1 28-2 43-5 92-20 158-78 206-155 74-116 100-243 87-379-3-35-2-37 32-36 18 0 22-7 21-23-1-28-1-57 0-85zM500 958c-82-1-145-44-200-110 78 6 147-6 200-64v-1 1c53 58 122 70 200 64-55 66-118 109-200 110zm220-137c-10 15-17 17-34 11-53-21-102-48-151-76-10-6-19-9-28-10v-3c-2 0-5 1-7 1s-4-1-7-1v3c-9 1-18 4-28 10-49 28-98 55-151 76-16 6-24 3-34-11-36-57-61-118-73-189 123 67 251 43 293-27 43 70 171 94 294 27-13 71-37 132-74 189zm80-354c-54-27-109-30-165-18-56 13-105 38-135 91-30-53-79-78-135-91-56-12-111-9-165 18-1-44-1-44 38-44h524c40 0 40 0 38 44z"/></svg>