<svg width="64" height="64" viewBox="0 0 1000 1000" xmlns="http://www.w3.org/2000/svg"><path d="M892 115c-64-33-129-45-197-15-3 1-6 3-8 3C645 41 573 0 492 0c-92 0-171 52-210 128-3 6-6 9-6 13-2 9 8 13 30 25 18 9 32 12 52 4 35-13 71-9 104 7 20 10 40 10 59 1 35-18 72-21 107-7 19 7 32 5 47-4 6-3 12-5 18-8 7-6 14-8 20-8 9 1 17 7 26 17 31 39 65 77 98 115 4 4 8 13 14 10 8-4 6-13 4-19-1-12-4-24-8-36-11-36-29-69-55-99 34-10 69-7 100-20v-4zM352 449c84 61 200 59 285-4 79-58 118-167 88-255-16 24-32 45-46 67-8 13-17 24-30 30-41 21-84 24-126 2-22-11-41-11-62 1-46 26-139 16-162-42-8-21-25-37-40-58-30 90 11 200 93 259zm111-182c20-15 21-49 2-65-32-28-99-27-130 1-20 18-21 42 0 60 18 17 40 22 67 22 21 1 42-4 61-18zm-108-16c-17-10-17-24 0-35 14-9 30-12 47-12 14-1 27 2 40 9 17 10 18 31 0 40-29 15-59 14-87-2zm230 34c22 1 43-4 61-18 25-19 26-46 1-66-31-26-95-26-127 0-23 19-23 46 0 65 19 15 41 20 65 19zm-50-67c14-11 31-14 47-14 18 0 35 3 49 13 13 10 14 20 1 32-22 19-75 18-97-1-12-10-12-20 0-30zM205 579c87 41 178 62 273 65 108 4 212-16 314-54 13-5 11-10 5-19-35-46-80-78-135-97-11-4-18 0-27 7-92 69-194 69-287-1-9-7-16-8-27-5-48 16-87 43-121 81-10 12-9 16 5 23zm627 280c-62 17-126 29-191 37-54 6-108 9-162 7-54 2-108-1-162-7-65-8-129-20-192-37-14-4-17-2-16 12 1 11 0 22 0 32 0 31 0 41 14 50 86 29 208 47 343 47h26c135 0 257-18 343-47 14-9 14-19 14-50 0-10-1-21 0-32 1-14-3-16-17-12zm-8-192c-29 10-59 21-89 30-84 23-170 35-256 32-87 3-172-9-256-32-31-9-60-20-89-30-11-4-16-4-19 9-6 27-6 54-6 81 0 9 5 11 12 13 117 35 236 52 358 48 121 4 240-13 357-48 8-2 13-4 13-13 0-27 0-54-7-81-3-13-7-13-18-9z"/></svg>