<svg width="64" height="64" viewBox="0 0 1000 1000" xmlns="http://www.w3.org/2000/svg"><path d="M937 580l-40-124c-1-6-7-9-13-9-40 1-64-13-74-43-5-14-6-29-1-44 6-18 18-30 34-39 5-3 7-9 6-15l-40-125c-2-5-8-8-13-6l-177 56 4 12-15 6c-6 2-11 3-16 4l-4-12L70 406c-6 2-9 8-7 13l40 125c2 5 8 9 13 9 40-1 64 14 74 45 11 32 1 57-34 81-4 3-7 10-5 15l40 125c1 5 7 8 13 6l518-165-4-12c4-2 9-4 15-6 5-2 10-3 16-4l3 12 178-57c6-2 9-7 7-13zM599 276c5-3 10-5 15-6 5-2 10-3 16-4l16 51-15 6c-5 2-10 3-16 4l-16-51zm24 74c4-2 9-4 15-6 5-2 10-3 16-4l16 51c-5 3-10 5-15 7-5 1-11 3-16 3l-16-51zm24 75c4-3 9-5 14-6 6-2 11-3 16-4l17 51-15 6c-6 2-11 3-16 4l-16-51zm23 74l15-6c6-2 11-3 16-4l17 51c-5 3-10 5-15 7-6 1-11 3-16 3l-17-51zm56 122c-5 2-10 3-16 4l-16-51c5-3 10-5 15-7 5-1 11-3 16-3l16 51-15 6z"/></svg>