<svg width="64" height="64" viewBox="0 0 1000 1000" xmlns="http://www.w3.org/2000/svg"><path d="M231 425c-8 17-12 35-16 54-4 20-6 41-11 61-6 23-15 44-30 62-26 31-70 30-94 9-9-8-15-19-17-32-1-5 0-9 2-13 1-3 4-4 7-4 3 1 4 3 5 6l1 6c6 24 33 35 55 23 13-6 19-18 24-30 12-24 15-51 19-77 4-31 7-62 15-92 10-35 31-62 65-77 22-9 43-20 67-24 15-2 31 0 46 1 28 2 54 11 81 16 18 3 36 3 54 5 22 1 43 5 64 9 9 2 17 3 25 4 12 1 22-3 31-8 15-8 30-13 46-13 6 0 13 1 19 3 12 3 23 1 35-3 13-6 27-10 41-16 13-6 27-5 40-8 7-1 14-3 22-2 2 0 3-1 4-3 1-3 2-6 4-8 5-9 14-10 21-3 5 4 8 8 10 15 1 6 4 10 9 13 14 9 24 22 33 35 6 8 8 17 8 26 0 7 2 13 7 19 7 9 11 19 14 30 2 5-2 10-6 13-5 3-7 9-12 12 0 0-1 2-1 3-2 8-6 13-14 14-10 2-18 0-25-8l-11-11c-6-4-9-4-15 0-7 5-15 7-24 9-13 2-27 2-38 12-7 6-12 12-15 21-9 24-13 50-22 74-9 26-16 52-20 79-3 18-1 36 11 52 7 9 16 11 26 12 9 1 17 1 25 6 5 3 8 7 10 12s-1 10-6 12c-12 6-25 7-38 8-10 1-19-1-28-6-10-4-18-11-28-15-8-2-12-9-14-16-5-27-15-53-23-79-2-7-4-13-6-21-5 15-16 25-22 37-6 13-5 27-3 40 1 6 7 7 13 8 5 0 11 1 15 4 7 3 8 7 3 13-1 4-2 9-8 10-9 1-19 5-29 2l-9-3c-13-2-18-6-19-19-1-10-3-18-7-26s-5-16 0-24c8-12 9-26 10-39 0-9 0-18-1-26-1-4-2-7-6-7-11 0-20-4-28-9-15-9-31-10-47-6-27 7-53 3-79-5-9-4-20-6-30-7s-16 2-21 11l-17 38c-7 15-17 28-25 41-4 7-7 13-9 20-4 11 0 20 7 29 10 12 23 21 39 24 9 1 16 6 21 13 6 6 5 11-3 14-1 0-2 1-2 1-6 7-13 6-20 5h-3c-9 5-19 3-29 0-1 0-3-1-4-2-11-12-25-20-34-33-7-9-14-19-22-28-5-5-7-13-5-21 4-16 7-33 4-51-1-4-2-4-5-2-26 12-40 33-42 61-1 14 3 18 15 23 7 3 14 7 19 14 5 9 3 13-6 15-1 1-1 1-2 1-4 7-10 5-16 5-8-1-15-1-22-2-5-1-10-4-13-8-2-5-6-10-9-14-7-8-7-18-6-27 2-14 1-29 1-43-1-9 4-18 11-24 9-9 15-19 20-30 6-15 8-30 9-46 1-24-4-48-11-71-3-7-3-15-5-23z"/></svg>