<svg width="64" height="64" viewBox="0 0 1000 1000" xmlns="http://www.w3.org/2000/svg"><path d="M902 536c-19-12-31-31-43-50 15-3 30-5 41-18-28-1-41-17-50-40 17-1 33-1 44-19-24 0-42-9-55-28-11-17-18-34-20-54-1-8-2-17-5-25-1-5 0-9 2-15 21-43 34-88 31-137-3-29-16-44-45-47-38-4-73 6-106 25-5 4-8 4-11-2-4-9-12-13-20-16-8-2-15-3-23-5 7-3 13-3 20-5-24-10-47-20-75-18 7-6 14-7 21-10-9-7-20-10-30-9-27 0-50 10-70 27-6 6-9 6-15 1-20-19-44-29-71-28-10 0-20 2-29 10 7 2 14 3 22 10-29-3-52 7-75 17 6 2 13 2 20 6-6 1-11 1-16 2-11 3-22 6-27 17-4 7-6 7-13 3-32-19-68-29-106-25-27 4-41 19-43 47-4 49 9 94 30 138 2 3 5 5 3 9-5 16-4 34-9 49-9 26-20 49-47 60-8 3-16 3-25 4 11 17 27 17 45 18-10 23-23 39-50 40 11 14 26 15 40 19-13 21-26 40-47 53 13 17 30 15 48 11 5-2 8-2 6 5-6 29-18 55-40 76-1 1-3 2-2 4 22 5 41 1 57-16 4-5 7-4 9 1 6 14 11 27 14 42 4 22 4 45 0 69 22-10 35-27 46-46 13 23 18 45-3 66 15 3 29 7 43 2 16-6 19-20 23-36 7 15 5 28 1 40-7 21-8 41-6 62 1 11 3 21 10 31 4-24 11-45 28-62-3 17-6 35-4 52 2 18 9 34 25 46 2-27 8-42 18-48 0 34 8 63 42 80 0-6-3-11-1-17 11 15 21 29 40 35-3-11-3-21 2-34 11 21 28 34 49 34 22 1 39-13 51-33 5 12 5 22 2 34 19-7 29-21 40-36 2 6-2 11-1 17 16-7 27-19 34-34s8-31 9-49c12 16 17 33 17 52 32-29 27-64 21-99 17 17 23 38 27 62 8-11 10-21 11-31 2-21 0-42-6-62-4-13-7-26 0-39 8 36 28 45 65 32-16-24-17-46-1-64 11 19 24 35 44 44 1-1 1-1 1-2v-5c-5-34-1-67 13-99 3-8 6-11 14-3 15 16 33 19 55 14-24-22-36-48-43-77-2-9-1-11 8-8 14 4 29 6 41-6 4-3 6-5 0-9zm-52-3c-12-5-12-5-11 8 1 28 9 55 28 79-13-3-20-11-28-19-6-5-9-6-14 2-19 29-29 61-26 97-15-11-21-26-27-43-15 21-27 41-28 65-1 5 1 9 2 13 0 3 5 5 2 8s-7 2-11 1c-13-4-15-16-17-27-2-10-1-20-4-32-24 21-33 45-24 75 4 12 9 24 8 40-8-15-16-25-29-30-4-1-7-2-11-3-6-1-8 0-6 7 4 14 9 28 11 42 1 12 1 23-3 37-5-19-16-29-32-33-12-3-13-2-11 10 3 11 5 23 2 36-1 5-3 9-5 13-3 4-5 8-9 8-5 0-2-6-4-9-2-2-3-5-5-8-3-4-6-10-11-8-6 2-1 8-1 12 1 15-5 27-18 36-3-8-4-16-10-23-6-5-9-7-13 2-5 10-11 20-21 27-1 1-3 3-5 2-3-1-1-3-2-5v-4c-1-12-10-26-16-26-7 0-16 15-17 27v10c-14-7-21-19-27-31-4-9-8-7-13-1s-8 14-9 23c-15-11-21-24-19-41 1-3 3-6 0-8s-6 1-8 3c-7 6-10 14-12 23-11-7-15-17-16-29-1-11 1-23 4-34 1-6-1-7-7-6-18 4-31 13-37 34-4-16-4-30-1-43 2-12 6-24 9-36 2-7 0-8-7-7-17 4-29 15-38 33-2-13 1-22 4-31 4-14 9-29 5-45-3-15-13-27-25-40-4 12-3 22-4 32-2 17-10 27-22 28-5 1-9 1-5-7 3-6 3-13 2-20-3-22-14-41-28-60-5 17-12 32-26 43-1-14 0-26-2-39-4-23-15-43-27-62-3-4-4-3-7-1-6 5-11 10-16 14-4 3-9 7-16 8 19-25 26-51 28-80 1-11 1-12-10-8-10 5-20 9-33 6 21-23 35-49 49-77-12 4-19 13-32 11 19-17 27-40 36-64-9 3-15 8-26 6 15-10 24-23 32-37 11-18 14-37 17-57 0-5 0-10 2-13 6-10 3-17-2-26-20-39-32-80-30-125 1-30 13-41 44-41s61 7 87 25c15 10 29 11 44 0 5-3 11-6 18-9-10-6-19-4-29-2 5-6 11-7 18-8 16-3 33-3 50-5 2 0 6 1 7-2s-3-5-5-6c-8-7-18-7-28-9 17-6 34-5 51 0 5 1 10 3 14 4 5 1 11 6 14 1 4-5-1-10-5-15s-9-9-15-12c24 2 44 12 59 30 8 9 12 8 19 0 16-18 36-28 59-31-7 5-14 10-18 18-2 3-4 7-2 10 2 4 7 2 10 1 12-4 23-9 36-10 11-1 23 0 37 4-13 2-23 2-32 9-2 1-5 3-4 5 0 4 4 3 7 3 16 2 33 2 50 5 6 1 13 2 20 8-12-1-21-4-32 2 12 6 22 12 33 16 9 4 17 0 25-5 25-16 53-24 82-27 39-3 57 14 54 53-3 43-12 85-36 122-1 2-3 4-1 6 7 11 7 24 9 36 5 33 19 60 46 82-9 2-15-3-25-6 9 24 17 46 35 63-7 1-7 1-30-10 12 28 27 54 48 76-11 4-21 0-31-4zM617 669c-19-1-36-4-53-12 1 7 8 11 11 17-12 2-21-1-30-6-17-9-28-23-38-39-5-9-3-16 3-22 1-3 4-4 6-7h-31c3 3 6 6 8 9 3 4 7 9 4 15-9 16-19 30-34 40-11 8-23 12-37 10 4-6 10-10 11-16-35 13-70 16-106-3 9 12 19 19 32 22 4 2 7 3 9 8 13 24 19 49 9 75-3 9-4 18-2 27 2 14 5 15 17 7 6-4 11-12 18-8 7 5 5 14 5 21 0 3-1 6-2 8-5 19 3 31 23 33 11 1 22 0 32-4 19-6 38-5 58 1 13 3 27 5 40 1 14-5 19-14 15-28-2-9-4-17-1-26 2-7 6-9 12-5 4 2 7 5 10 8 11 7 15 6 17-8 1-8 1-17-2-25-9-25-5-49 6-73 3-6 6-10 13-12 12-3 22-10 31-23-19 12-36 15-54 15zm-192 88c-14-17-20-37-22-58-1-1 0-4 1-4 10-1 17-10 29-10-11 24-8 48-8 72zm26 68c-5 2-9-1-10-6-4-13-5-25-1-39 5 11 11 22 17 33 2 5-1 10-6 12zm20 2c-5 0-8-2-9-6 0-4 3-6 6-6 5 1 7 4 8 8 0 3-3 4-5 4zm7-119c-5 1-6-3-7-8-2 2-3 3-3 4-4 3-8 9-14 7s-3-10-3-15c0-9 7-11 16-5 3 2 4 6 8 6s8 1 7 6c0 2-1 5-4 5zm20-5c-1 3-3 6-6 6s-5-2-5-5c0-4 2-5 5-5s6 0 6 4zm12 6c-4 0-5-2-6-5-1-4 2-5 5-5s6 1 6 4c0 4-2 6-5 6zm21 118c-3 0-5-1-5-4 1-5 3-8 8-8 3 0 5 2 6 5-2 5-5 7-9 7zm1-126c-3 1-2 4-3 5-2 2-3 3-6 2-2-1-4-3-4-5 0-3 1-5 3-5 6-1 10-5 15-8 4-2 10-6 13 0 2 6 3 14-2 20-2 2-5 1-7-1-3-2-6-5-9-8zm28 119c-1 4-5 7-10 5-4-2-8-6-5-11 5-11 12-22 17-34 4 14 2 27-2 40zm39-120c-3 20-8 40-22 57-1-24 4-48-8-71 12-1 19 8 29 10 1 0 1 2 1 4zm-83-100l1 1h-1v-1zm-16-453c6 8 10 15 16 21 17 20 41 25 66 27 19 2 38 4 57 9 16 5 31 12 43 25-22-9-45-16-70-17 22 11 43 24 59 44-38-22-78-32-122-30 17-8 35-8 53-5 0-5-4-4-6-5-23-9-47-12-71-6-9 2-20 7-20 16 0 11 11 14 20 16 19 4 37 4 56 4 13 0 26-1 38 5-14 0-27-1-41 7 30 16 61 29 73 63-10-10-21-19-34-25 0 6 5 10 3 16-27-32-62-40-102-37 34 13 64 27 89 56-15-6-28-11-42-16 2 7 7 12 4 19-9-7-18-16-28-21-13-6-26-12-38 0-3 2-4 0-6-1-10-9-20-7-31-2-13 5-23 15-34 24-3-7 1-12 4-18-15 3-27 10-43 15 25-29 56-43 89-55-32-7-65 4-102 35 0-5 3-9 5-15-15 6-26 14-35 25 2-13 11-25 29-38 13-10 27-17 44-25-15-8-28-7-44-6 10-5 19-6 27-6 23-1 45 1 67-4 7-2 15-4 20-9s5-9 0-14c-5-6-13-9-20-11-25-4-48 0-71 9-1 0-2 2-5 4 20-2 38-3 55 5-22 0-42 1-63 6s-40 13-59 24c16-20 37-32 58-44-25 2-49 8-72 19 15-15 34-24 56-29 14-3 30-5 45-6 36-3 66-14 83-49zm260 278c-4 14-4 28 0 42 3 8 5 17 5 27-10-8-14-3-19 4-4 8-9 16-12 25-4 10-10 13-20 10-9-3-16-8-22-14-8-8-11-7-16 2-5 10-7 20-10 31-4-17 0-44 9-58 6-9 14-8 21-3 8 5 12 2 17-4 10-13 17-26 15-44-2-13-1-27 2-40 2-11-1-20-6-30-9-15-17-32-19-50 0-5-1-10 2-15 4 8 8 17 12 25 6 12 15 21 29 26 17 5 22 14 19 31-1 12-4 23-7 35zm-519 44c4-16 4-31-1-47-3-12-6-25-7-38 0-11 4-20 15-23 25-7 36-27 44-49 1-2 1-3 3-6 3 14 0 26-3 37-4 12-10 23-16 34-4 7-6 14-5 22 3 19 3 38 3 56-1 11 12 34 21 38 3 1 6-1 9-3 14-7 22-3 27 12 6 15 8 31 5 48-3-9-5-18-9-27-6-12-8-13-18-4-7 6-13 11-22 14-10 3-16 0-19-11-2-11-11-19-17-29-4-6-9-4-14 3-1-11 1-19 4-27zm570-15l6 31c0 2 3 6-4 5-6-2-6 6-6 10-4 18-10 35-22 49 7-19 2-39 4-58 0-5-1-10-4-14-11-21-10-44-5-66l3-18c4-26-4-47-23-65-3-3-6-5-5-10 2-30-2-60-22-87 16 9 37 40 60 91-3 3-6-2-10 0 11 18 20 36 26 55 2 5 3 11 5 16 0 1 1 4-1 4-13 0-8 10-7 15 2 9 6 18 9 27 1 2 7 7-2 7-4 0-2 5-2 8zm-627 30c2-9 5-18 6-28 0-3 6-11-5-10-2 0 0-4 0-6 4-9 8-18 10-27 1-6 7-15-6-17-4 0-1-4-1-7 7-24 17-47 31-68-4-1-7 3-12 1 18-31 31-66 59-90-18 26-22 55-20 86 1 4-1 7-4 9-22 20-28 44-22 72 1 9 3 17 4 26 2 13 3 27-4 40-11 25-8 51-5 76 1 3 3 5 1 8-11-14-18-31-21-48-1-5 2-14-9-11-3 1-2-4-2-6zm236-93c-3-4-4-9-4-13 0-16-8-28-19-38-11-12-22-14-35-6-20 11-40 22-66 19 9 11 17 19 22 33 1-5 1-7 2-9 1-4 2-9 7-9 6-1 7 4 10 8 5 8 3 13-2 19-13 17-21 36-20 58 7-11 13-23 22-33 8-8 17-15 29-13 8 1 14 1 21-1 3-2 6-3 9 1 2 3 1 6-1 9-5 7-11 13-18 18-6 5-13 9-21 16 22-2 37-12 52-25-4 26-15 51 4 73-1-19 5-37 11-54 8-18 7-36-3-53zm-24 4c-5 3-10 4-17 4-12 0-23-5-31-16-7-12-2-26 11-30 17-5 41 5 49 20 3 7-2 18-12 22zm279-27c7 2 6 9 7 14 1 0 1 1 2 2 4-12 13-20 20-30-20 0-38-4-54-14-24-17-39-13-56 11-5 8-8 16-9 25 0 5 0 10-3 14-12 19-11 38-2 59 6 16 12 33 9 51 19-23 9-48 5-73 38 22 38 22 50 21l-9-6c-10-7-19-15-27-25-3-3-5-6-2-10s6-2 9-1c5 1 9 3 13 2 19-6 31 4 42 18 6 9 11 18 17 29 1-26-8-46-23-63-7-9 1-13 2-19 1-4 5-6 9-5zm-32 26c-15 9-35 7-45-5-6-7-7-14 1-21 9-8 19-17 30-17 15 0 25 7 28 16s-3 20-14 27zm174 143c-13 20-3 41-6 62-4-8-7-15-18-14-13 2-24 7-32 18-4 6 1 11 4 16 4 8 10 14 11 24-23-10-23-10-28 10-5-11-11-7-20-6-16 2-28 9-42 14 2-2 4-3 5-5 7-7 6-13-3-17-7-4-16-4-26-5 12-6 21-4 31-2 15 5 30 6 44-2 4-3 11-5 11-11s-5-8-9-11c-10-6-21-12-30-18-14-10-23-22-21-40 4 2 4 7 6 11 9 14 28 24 46 21 11-2 13-5 12-16-3-16-2-27 3-41 3 8 3 15 4 22 6 30 13 33 37 14 8-7 15-15 21-24zm-480 97c-5 0-10 1-15 2-7 1-14 2-16 10-2 7 5 10 10 15-7-1-10-4-14-6-8-4-15-9-24-7-2 1-4 0-5-1-9-7-15-5-19 6-4-6-1-16-10-17-7-1-12 4-19 7 1-9 6-16 11-23 8-13 7-18-6-26-5-3-9-5-14-7-14-5-19-2-24 11-4-5-6-7-4-12 5-15 4-29-2-43-1-2-1-4-2-5 10 14 21 24 36 32 9 5 13 4 17-6 5-12 6-25 8-41 7 15 6 28 5 41-2 13 1 17 14 18 20 2 38-9 46-29 1-1 1-2 3-3 1 13-3 23-11 32-7 7-15 12-24 17-6 4-13 7-19 12-8 6-8 11 1 16 12 8 25 12 39 8 9-3 18-5 27-4 4-1 8-1 11 3zm143-282c-12-7-16-7-34 0 8-17 35-29 52-22 2 0 3 1 5 1 20-6 41 2 54 22-12-6-23-10-35-1 28 11 32 14 36 29-12-8-24-12-37-12-7 1-11 3-11 11-2 16-3 32-9 48-5-5-5-11-5-17-2-10-4-21-5-32 0-7-3-9-10-9-13-1-26 2-37 10 5-19 20-23 36-28zm5 248v1-1zm0 0c-17-5-33-11-48-21-18-11-21-25-9-44 3-5 6-11 9-16 3 2 2 4 2 5 0 15 2 22 18 22 14 0 26 3 38 11 4 2 7 2 11 0 12-8 25-10 38-12 17-2 17-2 18-20 1-1 0-3 3-4 5 8 12 16 14 26 4 12-2 24-14 32-15 9-31 16-48 21-4-14 6-22 15-30 6-6 13-7 21-8 3-1 7 0 7-4 1-3-2-6-5-8s-7-2-11-2c-12 2-23 6-34 11-6 3-11 3-18 0-11-5-22-10-34-11-7 0-15 0-16 8s8 6 12 6c20 4 33 20 31 38zm31 0h1v1l-1-1zM301 207c13-20 31-33 50-44 24-13 50-22 76-28 12-3 20-8 25-21 11 15 25 23 44 13-6 16-17 22-32 24-27 2-53 7-79 14-30 10-58 23-84 42zm204-79c20 7 28 5 45-13 4 13 14 18 27 21 31 7 61 18 88 36 14 9 26 20 37 37-4-3-6-4-8-6-42-30-89-44-140-50-6-1-13-2-20-3-13-2-23-8-29-22zm-322 67v6c-8-12-7-53 0-67 3-4 7-6 12-7 29-7 85 16 102 41 3 5 5 9 5 17-16-16-33-27-53-33-37-12-61 4-66 43zm525-17c-2 2-5 4-8 6 0-10 5-16 11-22 25-24 55-36 90-36 14 0 18 4 21 18 5 20 4 39-1 61-2-10-2-18-4-25-7-25-28-36-55-31-21 5-38 15-54 29zM581 595c20-20 22-43 9-68 10 2 13 8 15 15 3 8 5 17 7 25 2 7 6 11 14 9 9-2 13-7 10-16-4-15-6-31-6-47-1-17 8-35 23-42-5 10-11 19-12 30-1 15 3 29 7 43 1 7 4 13 5 20 3 12-4 22-16 21-19-1-37 4-56 10zm-159 0c-5-1-7-1-10-2-14-5-29-9-45-7-15 1-22-10-18-25 2-11 6-22 9-33 5-20 3-39-9-56 8 2 13 6 16 15 10 23 8 45 1 69-3 12-1 17 9 20 7 2 11-1 14-8 2-8 4-17 7-25 2-6 5-13 14-16-10 25-10 48 12 68zm389-378c0 23-8 43-21 63-11-26-26-45-42-65 14 9 27 20 39 32 14-20 13-48-2-65 15 3 25 16 26 35zm-599 63c-14-22-23-43-21-67 2-17 11-27 27-32-10 9-14 20-13 32 0 12 2 23 9 34 12-12 25-23 40-32-16 20-32 40-42 65zm114 284c6 12 13 25 24 33 8 6 17 12 27 2 2-1 3-1 4 1 10 12 25 15 39 18-13 6-27 4-41 2-11-2-22-5-32-10-18-10-22-28-21-46zm311 52c-18 5-37 9-56 3 15-4 29-7 39-19 2-2 3-2 5 0 7 8 15 4 23-1 13-8 21-21 28-38 1 32-10 47-39 55zm-54 27c25 0 47-8 69-21-7 20-15 26-34 25-12-1-24 3-35-4zm-235-21c23 13 45 21 73 19-7 6-12 6-17 6-10 0-19 1-29 1-11-1-17-6-27-26zm40-247c0 7-7 19-10 18-5 0-11-13-10-19 1-5 3-10 6-13 1-2 3-4 5-3 3 2 0 3-1 5-1 3 0 6 3 5 9-4 5 5 7 7zm247 3c-1 6-3 12-10 15-3 2-10-10-10-18 0-5 3-10 6-14 1-1 3-4 5-3 3 2 0 4-1 5-1 4 0 6 3 5 9-1 7 6 7 10z"/></svg>