<svg width="64" height="64" viewBox="0 0 1000 1000" xmlns="http://www.w3.org/2000/svg"><path d="M925 458c-30-106-101-177-196-228-3-1-6-2-9-2-37 1-74 1-111 3-13 0-26 2-37 12 1 2 3 4 4 6 15 24 32 47 46 72 8 14 14 30 18 46 4 17-4 24-21 23-3 0-5-1-8-2-26-6-46-22-66-38-25-21-48-42-73-63-15-13-20-13-37-2-13 10-25 22-38 33-24 19-47 40-72 58-8 7-21 7-32 10-7 2-9-2-11-8-5-29 3-54 16-79 11-21 26-39 49-53-6 1-8 1-11 1-29 6-59 11-89 7-10-1-18 1-26 7-34 24-64 51-89 84-72 98-90 204-44 318 38 94 110 158 201 201 58 27 119 42 180 45 2 5 15 8 31 8 17 0 31-4 31-8 24-2 48-5 73-10 100-21 187-66 254-146 72-86 98-186 67-295zM381 814c-38 2-71-11-103-31-70-46-81-124-74-171 4 10 8 19 12 28 13 31 28 60 49 86 27 33 62 53 102 62 26 7 51 8 77 6h4c-21 12-43 18-67 20zm-16-588c11-1 13 4 8 13-7 10-15 20-23 29-17 22-35 44-44 71-3 7-3 15-5 23 7-4 11-7 16-11 31-25 61-51 92-75 13-9 28-14 42-21 6-3 12-1 18 4 37 35 75 68 120 93 10 6 20 10 30 15 1-5 0-8-1-11-9-23-24-41-41-58-10-11-21-23-23-38-4-29-3-33 22-40 19-5 39-7 58-9 19-1 39 0 58 0-55-28-115-33-175-34-1-20-2-40-6-60-1-9-6-18-10-27-5-8-13-8-22-5-8 3-13 6-12 17 2 25-5 48-21 68-5 6-14 10-22 12-13 3-27 4-41 6-49 5-89 29-131 53 18-1 36-3 53-6l60-9z"/></svg>