<svg width="64" height="64" viewBox="0 0 1000 1000" xmlns="http://www.w3.org/2000/svg"><path d="M520 892c-62 2-123-2-185-8-65-6-129-16-192-32-7-2-10-6-13-12-37-66-59-137-65-212-8-89 3-175 36-258 9-21 20-41 30-61 4-6 8-8 14-10 40-10 80-18 120-23 10-1 15-4 13-14v-10c-2-11 2-17 13-18 10-1 13-8 15-16 0-4 1-8 2-11 14-48 18-53 67-62 9-2 14-5 18-14 6-15 15-24 34-23 50 2 100 1 151 0 17-1 27 7 32 21 4 12 12 16 22 18 5 1 10 3 16 4 21 1 31 14 36 33 3 9 6 16 8 25 3 13 6 26 24 27 6 1 6 6 6 12 1 26 1 26 26 30 36 5 71 13 106 21 8 2 12 5 16 12 52 93 72 192 67 297-5 82-26 159-67 231-4 7-8 11-17 13-64 16-130 26-196 33-46 4-91 6-137 7zm10-76c91-2 182-11 272-29 8-2 14-6 18-14 23-52 37-107 40-164 6-81-7-157-41-230-3-8-8-12-16-14-46-10-93-17-140-22-79-8-159-10-238-6-77 4-153 12-228 28-9 2-13 6-16 14-22 45-34 93-40 142-9 87 3 170 38 250 4 9 10 14 20 16 109 23 220 30 331 29zm74-554c5-2 16 7 15-6-1-15 5-22 19-24 4-1 8-2 6-8-2-7-3-14-7-21-5-10-27-11-34-2-5 7-10 10-19 10H419c-8 0-14-2-17-9-5-10-13-8-22-7-15 2-19 12-23 24-3 8-2 13 7 14 12 2 19 7 16 20-1 8 2 11 10 10 14-1 28-2 42-2 57-2 114-2 172 1zm150 288h-41c-7 0-9 2-9 9v51c0 9 3 13 12 12h79c8 0 10 1 6 10-18 36-45 59-87 61-28 1-55 2-80-16-13-9-25-20-32-35-3-6-7-9-15-9H412c-7 0-11 3-14 8-20 35-50 52-91 52-35 1-67-5-91-33-8-9-13-19-19-30-2-6-1-8 6-8h81c9 1 12-2 12-11-1-17-1-34 0-50 0-9-4-11-11-11h-80c-9 0-10-2-6-10 15-37 53-62 93-61 15 0 30-1 44 3 27 7 48 23 61 48 4 7 9 10 17 10 58-1 115-1 173-1 7 0 11-1 14-7 22-40 56-54 100-53 39 0 69 13 91 45 5 7 13 16 9 24-2 5-14 2-22 2-8 1-17 0-25 0z"/></svg>