<svg width="64" height="64" viewBox="0 0 1000 1000" xmlns="http://www.w3.org/2000/svg"><path d="M922 279c-19-19-43-30-67-39-64-27-132-38-201-43-2 0-5-1-5 3s-1 7 4 7c7 1 14 3 20 4 46 6 91 17 133 38 16 7 32 16 44 29 9 10 16 22 14 37-5 25-24 36-45 47 2-26-10-43-29-56-35-24-75-34-116-35-6 0-13 0-19 2 20 12 42 20 62 30 15 7 30 15 41 27 10 11 11 23 1 33-17 18-38 27-62 32 0-3 2-5 3-7 7-14 5-26-5-36-5-4-9-7-15-10-14-8-30-12-47-16-11-2-22-4-35-6 3 5 6 6 9 8 8 4 16 7 25 10s18 6 26 12c13 10 14 28 1 39-6 5-13 9-21 13-27 11-56 14-85 17-33 3-65 4-98 0-26-2-53-7-79-15-12-5-24-10-34-19-15-12-16-29-2-42 5-5 11-10 17-14 4-3 8-5 13-9-23-2-41 2-57 14-17 13-24 30-20 52-5-3-8-4-12-6-14-8-28-17-38-31-8-12-8-22 1-33 6-8 14-14 23-19 20-12 41-22 61-34 6-3 12-7 16-12-2-2-4-1-6-1-24 4-46 8-69 15-18 5-35 13-51 24-22 15-36 35-37 64-17-14-33-27-40-47-4-12-2-24 4-35s14-20 25-27c35-26 76-40 117-52 9-2 17-4 26-6 6-2 12-5 17-12-4 0-8 0-11 1-29 3-58 7-87 14-45 11-87 26-126 51-16 10-30 22-39 40-10 20-4 46 15 65 20 21 45 32 71 42 78 30 159 45 242 50 60 3 120 4 179 1 42-2 84-6 125-13 54-9 107-23 160-40 22-8 43-19 60-35 24-22 25-48 3-71zM697 466c-71 20-143 33-217 36-33 2-66 2-99-1-46-4-90-12-134-25-20-6-39-15-60-22v1c0 4 2 8 4 12 12 23 33 36 57 44 42 15 86 17 130 22 31 3 62 3 93 1 29-1 58-4 87-8 34-5 67-12 100-20 53-13 105-28 155-50 26-13 51-28 67-53 3-6 8-12 8-20-13 4-25 11-37 18-48 30-100 49-154 65zm190-83h1-1zm-40 76c-16 4-32 10-47 18-47 26-97 43-149 57-53 14-107 24-162 28-37 3-75 3-112-2-39-5-77-15-112-32-2-2-5-3-8-4v5c5 24 20 39 42 47 23 10 48 12 74 13 50 0 101 0 152-3 48-3 96-9 143-20 49-12 95-28 136-57 19-14 37-30 50-50-2-1-5 0-7 0zm-366 6c39-3 78-8 117-13-21-9-44-8-66-6-33 2-66 7-99 5-56-3-113-7-168-17-66-12-129-34-185-71-2-2-5-3-8-5 3 17 10 29 20 41 20 23 47 34 75 43 63 18 128 25 193 27 41 1 81-1 121-4zm60 149c-41 7-82 4-123 1-17-1-34-2-53-2 12 10 23 17 36 22 32 13 65 17 100 16 50-2 99-13 144-35 18-9 35-20 50-36-26-1-49 5-73 12-27 8-53 18-81 22zM429 399c26 5 52 8 79 9 21 0 42-1 62-7 13-4 25-10 32-22 4-4 4-7-3-10-32-10-66-12-92-13-25 0-42 2-60 3-14 2-27 4-39 10-11 6-12 14-2 22 6 5 15 7 23 8zm228 229c-3 1-6 3-9 4-48 23-99 31-152 32-27 1-54 0-84 0 11 12 23 19 35 24 31 13 64 15 96 12 26-3 51-9 73-22 17-10 33-20 44-36 4-5 7-11 6-19-3 2-6 3-9 5zm-23 56c-23 12-47 20-72 23-22 2-43 2-64 3-12 0-24 1-38 2 5 7 10 11 16 15 29 20 62 23 96 15 23-5 43-17 60-34 8-7 13-16 11-29-3 2-6 4-9 5zm-141 75c4 8 9 13 14 18 14 13 30 26 33 48 31-20 56-44 71-80-40 12-78 19-118 14zm395-376v-1 1zm-701 70c-1 0-1 1 0 1v-1zm668 5h-1 1zm-1 0v1-1z"/></svg>