<svg width="64" height="64" viewBox="0 0 1000 1000" xmlns="http://www.w3.org/2000/svg"><path d="M246 385h166c9 0 12-2 12-11-1-95-1-191 0-286 0-9-3-11-11-11H162c-7 0-9 2-9 9 1 70 0 140 1 210 0 9-2 13-12 12-19-1-38-1-56 0-7 0-9-2-9-8V133c0-17 1-34 0-51-2-41 30-82 83-82 74 1 148 0 223 0 16 0 33-1 49 1 39 5 68 37 68 77v295c0 10 2 12 12 12 31-1 63-1 94 0 8 0 10-2 10-10v-56c-1-8 1-11 10-11h186c7 0 9 2 9 9l-1 59c0 7 1 10 10 11 89 8 162 85 169 174 4 46-8 88-34 125-4 6-5 9 3 13 24 12 36 37 31 63-5 24-25 42-51 45l-5 1c-8 1-17-3-22 2-5 4-5 14-7 21-26 95-107 161-204 168-85 6-153-27-204-95-6-7-7-5-12 1-39 53-92 85-157 93-76 9-142-14-195-69-31-32-51-70-60-114-1-6-4-7-9-7-11 0-22 1-33-3-23-9-37-26-39-51-2-23 8-41 28-53 9-4 10-10 10-18V428c0-28 15-43 43-43h164zm175 366c10 0 20-1 30 0 8 0 10-2 8-10-16-85-96-139-181-123-82 16-137 97-122 178 13 68 65 117 133 126 65 9 129-26 158-88 3-5 6-7 11-7 26 0 51 1 77 0 10 0 17 1 20 12 2 6 6 10 9 15 41 63 120 86 190 57 67-28 105-102 89-174-16-73-80-123-154-121-73 1-135 54-148 126-1 7 0 9 7 9 19-1 38-1 57 0 9 0 14-2 17-11 15-38 57-56 96-43 37 12 58 52 49 90-8 34-36 56-71 59-32 2-63-19-75-50-2-4-3-8-9-8-74 1-148 1-222 0-6 0-8 3-10 8-15 37-51 57-89 48-37-8-61-41-59-80 1-32 26-61 56-69 34-8 71 5 84 35 9 19 20 23 38 21 4-1 8 0 11 0zm297-481c-31 0-61-1-92 0-8 0-10-3-10-10 0-29 0-29 28-29 55 0 110 1 166 0 8 0 12 2 10 11-1 9 4 20-1 25-5 6-17 2-25 2-25 1-51 0-76 0v1z"/></svg>