<svg width="64" height="64" viewBox="0 0 1000 1000" xmlns="http://www.w3.org/2000/svg"><path d="M500 0c280 1 500 227 500 500 0 279-226 501-502 500C221 999-2 773 0 497S225 1 500 0zm145 452c0-8 0-16 1-25 0-5-2-7-8-8-39-5-72-22-98-52-4-5-7-4-12-1-31 18-60 37-89 57-84 58-164 121-235 195-24 26-47 53-63 85-5 8-4 15 1 23 38 58 87 106 147 141 55 32 114 49 177 56 28 3 48-4 65-28 26-37 45-78 60-121 34-105 49-212 54-322zM167 241c8-4 16-8 24-11 58-25 118-26 179-20 48 5 93 17 138 33 6 2 9 0 12-5 8-17 21-31 38-41 15-10 32-16 50-18 4 0 10 1 7-6-9-29-21-57-40-80-7-9-15-13-27-14-7 0-13-1-20-2-93-4-179 17-257 67-40 26-75 58-104 97zm734 394c1-4 3-8 4-13 16-53 22-108 16-164-7-75-33-143-77-204-5-8-12-11-21-11-19 0-38 4-57 9-8 2-11 5-7 14 16 37 15 73-9 107-3 5-2 7 2 10 20 18 40 37 57 57 48 57 86 118 92 195zM721 307c0-2-1-6-1-11-10-49-65-84-114-71-35 8-53 39-43 74 13 47 71 78 117 63 25-8 41-28 41-55z"/></svg>