<svg width="64" height="64" viewBox="0 0 1000 1000" xmlns="http://www.w3.org/2000/svg"><path d="M388 278c-94 43-129 136-81 230 66 127 183 174 317 188 40-5 79-10 114-27 87-41 121-126 86-215-58-151-288-244-436-176zm191 277c-33-1-67-13-77-49-7-23 19-26 34-33 33 9 69 15 79 52 7 26-19 31-36 30zm69 174c6-27-15-19-26-19-59 2-113-14-166-38-17-8-30-12-35 13-11 56-46 100-73 148-16 29-33 57-38 82-4 47 23 63 52 75 34 12 48-11 59-38 14-36 26-76 78-71 51 4 53 41 60 79 7 39 35 48 69 34 32-13 30-43 26-69-8-65-20-130-6-196zM297 625c-19-31-40-61-59-93-19-34-34-70-44-108-48-172 42-307 216-322 9-1 17 0 25-3 17-7 32-17 35-39 3-24-8-40-28-50-23-10-48-11-73-9-106 9-221 129-233 247-16 155 55 275 161 377zm97 11c-12-9-21-15-38-6-83 39-112 164-51 240 37-62 74-117 98-178 7-19 11-40-9-56zm452-340c-22-16-50-8-76 0-27 8-36 18-11 39 32 27 55 61 77 96 21-18 18-38 23-55 9-28 15-60-13-80zm-441-44c24-7 38-7 46-15 27-25 52-57 80-1 3 4 21 4 29 0 13-5 6-16 3-26-19-70-61-81-113-29-18 18-35 37-45 71z"/></svg>