<svg width="64" height="64" viewBox="0 0 1000 1000" xmlns="http://www.w3.org/2000/svg"><path d="M293 349c0 33 20 54 53 55h115c33 0 53-21 53-53 1-19 1-38 1-58v-54c-13 6-25 12-37 16-29 9-59 9-89 8-29-1-58-4-87-4-7 0-9 2-9 9v81zm456-80c10-1 15-4 18-14 5-14 13-27 26-36 6-4 10-3 13 4 3 10 4 21 6 31 4 24 5 48 13 71 9 21 23 24 39 9 4-3 7-8 10-12 9-14 8-30 13-46 3-14 17-26 26-37 8-10 9-24 10-36 1-14 16-17 28-21 7-2 8-7 4-14-17-25-34-48-60-65-37-24-80-27-120-29-20 1-37 2-55 4-61 8-110 36-145 87-4 6-4 10-1 16 35 61 105 96 175 88zm247 440c-15-14-29-29-43-43-15-14-15-14-30 0-2 1-4 3-6 5-5 7-8 6-13-1-51-81-102-162-153-242-4-5-5-10-5-16 0-41 3-81 11-120 2-8 0-9-8-8-41 5-79-4-115-25-31-17-54-41-73-72-8 11-14 22-23 30-7 7-9 14-9 23v107c0 45-26 72-71 72-37 0-74-1-111 0-40 0-68-28-69-69 0-27 0-54 1-81 0-6-1-8-8-6-18 4-34 10-48 22-7 6-11 5-18-1-33-28-73-32-109-11-59 35-81 125-43 182 26 39 64 65 106 85 7 3 8 5 4 11L94 659c-12 20-12 20-29 4l-6-6c-4-5-7-5-12 0-17 18-25 26-42 43-6 5-6 25 0 30 36 36 67 59 110 86 161 99 334 131 520 95 139-26 259-91 361-190 5-5 4-8 0-12zM141 415c-6-13-7-27-8-38 1-16 3-29 10-41 9-15 26-22 43-17 3 1 6 2 5 7-12 40-5 80 0 120 1 10-1 12-10 9-22-5-33-21-40-40zm690 323c-74 45-153 75-238 89-32 5-64 7-98 8-109-1-214-28-311-83-6-4-13-8-19-12-11-7-12-7-5-18 26-40 52-81 78-122 14-22 28-45 43-67 7-12 18-18 33-16 75 11 150 18 225 17 37-1 73-3 108-16 12-4 23-9 34-16 5-3 8-3 12 2 46 75 93 149 141 223 3 5 2 7-3 11zM561 187z"/></svg>