<svg width="64" height="64" viewBox="0 0 1000 1000" xmlns="http://www.w3.org/2000/svg"><path d="M664 477v352c0 4 0 4 1 1 2-11 6-21 11-30 6-11 14-21 23-29 9-9 20-15 32-20s25-7 38-7c27 0 51 9 71 26 18 16 30 36 34 59 1 4 1 4 1 0V544c0-4 2-10 4-13l38-55c2-3 1-6-3-6H671c-4 0-7 3-7 7zm170 199H705c-4 0-7-3-7-7V514c0-4 3-7 7-7h129c4 0 7 3 7 7v155c0 4-3 7-7 7zm-648 96L84 916c-2 4-2 9 0 12l3 4c3 3 7 5 11 5h92c4 0 7-3 7-7v-73c0-4 3-7 7-7h28c4 0 7-4 7-7V582c0-4-3-7-7-7h-34c-4 0-7 3-7 7v178c0 3-2 9-5 12zm647 11c-8-8-18-14-29-19-10-5-22-7-35-7-12 0-24 2-35 7s-20 11-29 19c-8 8-14 18-19 29-4 11-7 23-7 35 0 13 3 24 7 35 5 11 11 21 19 29s18 15 29 19c11 5 23 8 35 8 13 0 25-3 35-8s21-11 29-19 15-18 20-29c4-11 7-22 7-35 0-12-3-24-7-35-5-11-12-21-20-29zM642 608h-24c-3 0-7-3-7-7v-28c0-3-3-7-7-7h-80c-3 0-7 3-7 7v28c0 4-3 7-7 7h-24c-3 0-7-3-7-7v-28c0-3-3-7-7-7h-79c-4 0-7 3-7 7v28c0 4-4 7-7 7h-14c-4 0-7-3-7-7v-54c0-3-3-7-7-7h-89c-3 0-7 4-7 7v196c0 4 3 7 7 7h380c3 0 7-3 7-7V616c0-4-3-8-7-8zM259 850c2 0 4-2 6-4l3-3c8-8 19-13 31-13s23 5 31 13l3 3c2 2 6 4 10 4h16c4 0 8-2 9-4l3-3c9-8 19-13 32-13s23 5 32 13l3 3c1 2 5 4 9 4h16c4 0 8-2 10-4 1-1 1-2 3-3 8-8 19-13 31-13s23 5 31 13l3 3c2 2 6 4 10 4h10c4 0 8-2 10-4l3-3c8-8 19-13 31-13s23 5 31 13l3 3c2 2 4 4 6 4s3-3 3-7v-73c0-4-3-7-7-7H263c-4 0-7 3-7 7v73c-1 4 1 7 3 7zm378 12c-9-9-19-13-31-13-13 0-23 4-32 13-2 2-4 4-5 6-5 8-8 16-8 26 0 12 5 22 13 31 9 8 19 12 32 12 12 0 22-4 31-12 8-9 13-19 13-31 0-10-3-18-8-26-1-2-3-4-5-6zm-98 0c-9-9-19-13-31-13-13 0-24 4-32 13l-6 6c-5 8-7 16-7 26 0 12 4 22 13 31 9 8 19 12 32 12 12 0 22-4 31-12 8-9 12-19 12-31 0-10-2-18-7-26-2-2-3-4-5-6zm-209 0c-8-9-19-13-31-13s-23 4-31 13l-6 6c-5 8-7 16-7 26 0 12 4 22 13 31 8 8 19 12 31 12s23-4 31-12c9-9 13-19 13-31 0-10-2-18-7-26l-6-6zm105 0c-9-9-19-13-32-13s-23 4-32 13c-2 2-3 4-5 6-5 8-8 16-8 26 0 12 5 22 13 31 9 8 20 12 32 12s23-4 32-12c9-9 13-19 13-31 0-10-3-18-8-26-1-2-3-4-5-6zM255 407v110c0 4 4 7 7 7h89c3 0 7-3 7-7V407c0-4-3-7-7-7h-88c-4 0-8 3-8 7zm8-22h88c4 0 8-3 10-6l26-48c2-4 0-6-4-6h-44c-4 0-6-3-5-7 8-19 20-38 36-46 37-17 36 36 121-5 86-41 76-13 104 0 28 12 50 28 110-4 59-31 58 11 65 11s72 37 98-44-49-119-78-119c-27 0-52 38-89 11-36-29-51-23-105-13-54 11-60-5-84-17s-89-62-138 4c-49 64-9 82-32 96s-52 42-54 61c-1 16-12 38-8 65 0 4-2 7-6 7h-44c-4 0-5 3-4 6l26 48c2 3 7 6 11 6z"/></svg>