<svg width="64" height="64" viewBox="0 0 1000 1000" xmlns="http://www.w3.org/2000/svg"><path d="M845 425c-19 0-37-1-56 0-12 1-19-4-26-14-21-34-44-66-65-100-13-21-31-30-54-32-4-1-9-2-13-2-19-1-37-8-55-5-51 6-102 13-153 20-19 3-32 13-38 31-11 33-21 67-32 100-2 8-5 15-3 24 4 18 22 36 39 37 24 2 41-10 48-32l22-67c2-4 3-8 9-9 11-1 23-3 34-5 10-2 12 1 9 11-13 51-26 103-39 155-12 44-1 72 37 98 44 30 88 61 133 91 7 4 10 10 12 19 8 50 16 101 25 152 5 26 28 44 52 40 27-4 44-28 40-56-10-60-21-120-31-181-2-14-10-25-22-33-30-22-59-44-90-64-8-6-9-12-7-21 11-49 21-99 32-148 1-6 3-12 5-22 16 26 32 48 46 71 11 20 27 32 51 32 30-1 59 0 89-1 28 0 48-19 48-44 0-26-20-45-47-45zm-484 87c-12 1-18 10-21 20-7 25-14 49-20 74-2 10-6 10-15 8-25-6-48-15-67-16-42 0-72 22-82 56-16 58-31 116-47 174-6 23 7 45 30 51 15 4 31 8 46 12 7 2 9 0 10-7 6-52 57-84 106-65 8 3 11 2 13-6 8-34 17-67 26-100 15-57 30-114 45-172 4-17-7-30-24-29zm290-269c49 0 90-41 90-91 0-49-41-90-90-90s-90 41-90 89c0 51 39 91 90 92zM519 683c-25-17-53-30-70-60-23 88-45 172-68 257-2 7-2 14 0 21 5 22 23 36 45 36s39-14 45-38l54-200c2-7 0-11-6-16zM274 848c-24-1-45 20-45 44-1 24 19 45 44 45 24 1 45-20 45-44 1-24-20-45-44-45z"/></svg>