<svg width="64" height="64" viewBox="0 0 1000 1000" xmlns="http://www.w3.org/2000/svg"><path d="M421 938c30-30 56-61 62-105 3-21 2-41 1-62 0-7-3-12-10-16-33-18-64-39-105-35 30-23 64-18 99-17-14-45-32-87-57-125-15-23-41-29-69-24-34 7-68 10-101-1-9-4-19-7-30-16 43 10 78-1 111-18 19-10 38-20 61-19 10 0 9-7 9-14 0-36 3-73 20-106 2-2 3-5 4-7 17-28 16-28-3-54s-42-45-72-56c14-3 19-2 37 4 29 9 53 25 74 45 9 9 13 7 21-1 33-35 43-78 47-124 1-4 1-8 1-15 9 22 9 42 9 62 1 21-1 42-8 63-7 20-16 38-27 55-10 18-24 33-28 59 56-33 114-23 170-26 54-2 64-7 105-37-9 20-38 42-70 52-34 12-70 14-106 20-33 5-60 21-85 44-13 12-7 25 0 36 20 32 46 58 69 88 4 5 7 7 14 3 36-21 73-16 110-5 36 11 72 21 109 2-23 30-56 38-90 41-21 2-43 1-63 8-25 9-31 23-19 47 37 74 55 153 42 236-1 6-2 12-4 18H421zM315 259c-43 26-95 23-134-8 39-36 101-32 134 8zm309-139c0 39-24 74-56 83-6 2-13 5-17 1-5-4 0-10 1-15 6-33 20-62 49-81 6-4 12-7 18-9 3 0 5 8 5 21zm195 90c20 42-4 100-47 114-8 2-12 1-12-9 2-45 19-81 59-105zM710 397c39-20 78-19 117-2 14 6 5 12 0 17-33 32-86 25-117-15zm101 183c-12 2-14-3-9-16 14-34 37-57 74-66 7-1 13-2 12 9-1 38-37 73-77 73zM679 258c13 43-1 78-31 108-8 8-12 6-15-4-15-41 0-86 46-104zm-46 254c-30-17-42-44-41-78 0-8 3-9 10-6 31 15 48 49 31 84zm-361 68c-3 37-28 67-60 76-18 5-21 2-17-16 7-38 29-60 65-69 12-3 13 1 12 9zm540 114c-35 0-65-23-72-53-2-9-1-12 9-12 35 2 64 14 85 44 10 14 4 18-9 20-5 0-10 0-13 1zM300 493c1 7 0 18-6 21-5 4-13-4-19-8-27-16-42-39-43-71 0-9 1-13 12-11 32 7 56 35 56 69zm0-147c-13-1-32-2-37-15-4-10 13-19 24-26 20-14 43-19 68-14 8 1 12 4 7 13-15 25-31 41-62 42zM179 533c-35-2-62-25-67-58-2-9 0-11 9-11 33 0 57 16 72 45 11 22 9 24-14 24zm578-20c0 31-22 59-49 67-6 2-9 1-12-6-11-34 16-75 52-77 16 0 6 11 9 16zM295 792c-23 0-26-5-16-27 13-27 34-39 62-36 9 0 11 2 9 12-7 31-27 50-55 51zm102-579c0 15-2 32-15 36-11 4-18-13-26-21-1-1-1-2-2-3-12-17-12-48-2-61 3-4 6-3 10-2 21 8 35 28 35 51zm137-98c-1 14-1 31-13 36s-20-12-28-21c-15-18-14-39-7-60 3-9 8-9 15-5 20 11 33 26 33 50zM389 690c-16 1-30-5-42-17-7-8-19-20-14-28 6-9 22-12 34-11 18 2 32 11 40 27 12 22 8 29-18 29zm56-538c30 1 53 24 52 52 0 6 0 12-9 12-28 0-52-16-59-42-5-18-3-22 16-22zm-64 648c0-27 13-45 37-56 7-3 9-1 13 4 15 26 1 61-28 69-19 5-22 2-22-17z"/></svg>