<svg width="64" height="64" viewBox="0 0 1000 1000" xmlns="http://www.w3.org/2000/svg"><path d="M860 645c-45-34-110-31-153 8-5 4-9 6-16 6-15-1-31 2-46 5-3 1-6 3-10 1 17-14 34-24 52-33 50-23 104-33 158-36 6 0 12 0 18-1 3 0 7-1 7-4 1-4-2-6-5-7-4-3-8-5-12-7-41-22-83-43-124-64-117-59-235-119-353-179-25-13-39-5-41 24-1 17-2 34-3 52h-2c-3-13-7-25-10-37-10-45-30-84-61-118-34-38-73-68-116-94-13-8-25-16-39-23-13-5-30 0-38 13-7 12-4 21 10 32 37 26 74 51 109 81 46 41 79 89 91 151l21 108c9 47 19 95 39 139 28 64 75 92 144 88 25-1 50-6 75-12 34-7 68-16 103-20 9-1 11 1 10 11-7 60 31 115 88 131 57 15 115-12 142-65 25-52 10-114-38-150zm-24 143c-19 23-52 30-80 17-27-12-43-43-38-73 2-7 4-9 12-6 14 6 27 15 37 26 13 13 24 15 35 5 13-11 15-28 5-41-11-14-25-25-41-36 24-10 57 1 74 24 18 26 17 60-4 84zm78-264L497 311c-41-20-82-41-123-62-18-9-36-4-44 12-7 16-1 33 18 42l270 138 268 136c21 11 39 8 48-9 9-16 1-34-20-44z"/></svg>