<svg width="64" height="64" viewBox="0 0 1000 1000" xmlns="http://www.w3.org/2000/svg"><path d="M917 363h-8v-22c0-23-10-33-32-33h-50V62H172v246h-53c-17 0-28 11-28 29v26h-9c-10 0-18 8-18 18-1 43-1 85 0 127 0 10 7 18 18 19h45c10-1 18-8 18-18V381c0-10-8-17-18-18h-9v-27h54v300c-19 5-27 14-27 33 0 31 1 63 0 94 0 17 4 30 22 37-18 6-23 18-22 34 1 5 0 10 0 15 1 23 5 29 27 35 0 0 1 1 1 2v26c0 16 9 25 25 25h86c15 0 25-9 25-25v-29h381l1 1v29c0 15 10 24 24 24h87c16 0 25-9 25-25 1-9 0-19 0-26 8-5 16-8 21-13 10-9 10-53 1-63-4-4-10-7-14-10 15-8 20-15 20-33v-94c0-23-5-30-27-37V336h54v27h-9c-10 1-18 8-18 19v126c0 11 8 19 18 19h45c11-1 18-9 18-20 1-41 1-83 0-124 0-12-7-19-19-20zM200 226h107c7-20 16-28 30-28 14 1 23 9 27 27h26c6-19 15-27 29-27 13 1 22 9 27 28h25c6-19 15-28 29-28s22 8 28 28h25c6-19 14-27 29-28 14 0 23 9 28 27h25c5-18 14-27 28-27s24 9 29 28h107v82h-27v-14c0-24-17-41-41-41H267c-24 1-40 17-40 40v14h-27v-81zm600 110v300h-28V336h28zM312 554c3-15 18-27 35-27h304c17 0 31 9 37 24v3H312zm379 28v27H309v-27h382zM200 336h27v300h-27V336zm27 520c-14 0-27-13-27-27-1-15 12-28 27-29 14 0 27 13 27 27 1 15-12 28-27 29zm55-118c0 5-3 8-8 8h-67c-5 0-7-2-7-8v-38c0-6 2-9 8-9h66c5 0 8 3 8 8v39zm22-266c-14 0-22-8-23-22 0-39 0-79 1-118 0-16 7-24 23-24h167v164H304zm5 165h381v26H309v-26zm342 136c-23 1-47 0-70 0H349c-18 0-33-10-38-27h377c-2 16-18 27-37 27zm40-55H309v-26h382v26zm1-246H527V308h167c16 0 24 8 24 24v114c1 19-7 26-26 26zm81 384c-15 0-28-13-28-28s13-27 28-27c14-1 27 12 27 27 0 14-12 28-27 28zm18-110h-64c-6 0-9-3-9-9v-37c0-6 2-9 9-9h65c6 0 8 2 8 8v38c0 7-3 9-9 9z"/></svg>