<svg width="64" height="64" viewBox="0 0 1000 1000" xmlns="http://www.w3.org/2000/svg"><path d="M322 615c-43 0-77 34-77 77s34 77 77 77c42 0 77-34 77-77s-35-77-77-77zm0 115c-22 0-39-17-39-38s17-39 39-39c21 0 38 18 38 39s-17 38-38 38zm-67-115H83c-7 0-13 5-13 12v38c0 7 6 12 13 12h138c4-25 16-46 34-62zm470 0c-43 0-77 34-77 77s34 77 77 77 77-34 77-77c-1-43-35-77-77-77zm0 115c-22 0-39-17-39-38s17-39 39-39 38 18 38 39-17 38-38 38zm200-115h-30V447c0-20-6-39-17-56l-75-111c-19-27-49-44-82-44H604c-14 0-25 11-25 25v354H388c18 16 31 37 34 62h202c7-49 49-87 101-87s93 38 100 87h100c7 0 13-5 13-12v-38c0-7-6-12-13-12zM802 414H648c-7 0-13-6-13-13v-85c0-7 6-13 13-13h94c4 0 8 2 10 6l60 85c6 8 0 20-10 20zM520 590H87c-13 0-24-11-24-25V454c0-14 11-25 24-25h433c14 0 25 11 25 25v111c0 14-11 25-25 25zM261 392H87c-13 0-24-11-24-24V256c0-14 11-25 24-25h173c14 0 25 11 25 25v111c0 14-11 25-24 25zm259 0H347c-14 0-25-11-25-24V256c0-14 12-25 25-25h173c14 0 25 12 25 25v112c0 13-11 24-25 24z"/></svg>