<svg width="64" height="64" viewBox="0 0 1000 1000" xmlns="http://www.w3.org/2000/svg"><path d="M743 508c0 8-5 32-6 39-22 125-94 205-214 242-16 5-34 7-53 10v-9c0-93 0-187-1-281 0-1 1-1 1-2l211-65 22-136-233 72c0-14 0-27-1-39 0-7 1-12 5-15l236-73 21-136-261 80V67c-12-2-24-3-36-4-11 0-22-1-33-1s-22 1-34 1c-11 1-23 2-35 4v171l-152 47-27 138 179-55c0 2 1 2 1 3v32c0 9 0 14-2 17l-180 56-26 138 208-65v364c0 18 7 24 25 24 7 0 14 1 22 1 45-2 92 0 137-6 106-16 194-68 263-153 60-74 92-159 96-254l-133-17z"/></svg>