<svg width="64" height="64" viewBox="0 0 1000 1000" xmlns="http://www.w3.org/2000/svg"><path d="M518 286c82 0 153 38 209 104 48 54 79 117 104 184 2 5 2 7-4 9-18 8-37 16-56 24-3 1-6 1-9-2l-63-60c-3-3-5-7-5-11 2-28 0-56 0-85 0-6 2-10 7-14 7-6 13-12 19-18 4-3 9-6 3-12-6-7-9 1-12 3-5 4-11 9-15 14-6 6-11 7-18 0-26-21-53-43-79-64-6-4-6-9-6-15v-18c0-4-2-5-6-5-3 0-5 1-5 5v3c4 19-5 31-20 41-19 14-36 29-54 44-5 4-8 5-13 0-19-16-38-32-58-48-4-4-6-8-6-13 1-11 0-21 0-31 0-4 0-6-5-6s-6 3-6 6v32c0 5-1 9-6 12-25 19-49 39-74 58-5 5-8 3-12-1-10-13-22-26-32-38-3-4-6-6-11-2s0 6 2 9c13 16 27 31 40 47 4 4 6 8 6 14-1 21-1 42 0 63 0 5-2 9-6 12-12 10-24 21-36 32-4 4-7 3-11-1-27-25-54-51-81-76-3-3-6-5-3-10 19-31 35-65 65-89 51-43 110-71 174-88 26-6 51-9 83-9zm312 313c-11 37-22 73-33 109-2 4-4 6-9 6H679c-9 0-9-3-6-9 4-8 10-14 17-20 3-3 7-6 13-10-28 5-54 9-80 11-51 5-103 6-154 2-44-3-86-9-128-19-6-1-9 0-11 5-6 12-12 23-18 34-2 5-5 6-10 6h-88c-6 0-8-1-7-8 2-21 14-38 32-49 9-5 6-9 0-13-19-17-41-27-64-36-30-13-60-24-90-34-19-6-28-24-19-41 11-20 28-36 49-46 17-9 36-6 54 1 25 10 45 26 64 45 32 30 62 61 93 92 5 4 9 7 15 9 72 26 147 36 223 31 92-5 179-27 262-65 1-1 2-1 4-1zm-683-93c1-8-3-12-13-13-11-1-22 9-23 19-1 9 5 17 14 18s21-12 22-24zm366-19c0-16 1-33 0-49 0-5 2-9 6-13 20-18 41-35 61-54 5-4 8-3 12 1 28 22 56 45 84 68 4 3 5 7 5 12 0 27 0 53 1 79 0 6-2 11-7 15-26 21-51 41-77 62-5 4-8 4-13 0-22-20-44-39-66-58-4-3-5-6-5-11 0-17 0-34-1-52zm-16 4c1 12-1 29-1 45 1 5-1 9-5 12-16 13-33 26-49 39-4 4-7 4-11 0-27-23-54-45-81-68-3-3-3-6-3-9v-69c0-5 2-7 5-10 23-17 46-34 68-51 5-3 8-3 12 1 19 14 38 29 58 43 5 4 7 8 7 14-1 16 0 33 0 53zm29 156c-24 1-48 0-71-2-9 0-11-3-13-12-2-20 5-34 22-44 13-8 23-17 34-26 5-4 7-3 11 0l72 60c7 6 6 13 5 19-1 7-8 5-12 5h-48zm-96-23c0 19 0 19-19 15-10-2-21-5-32-6-36-6-56-33-80-55-3-4-1-6 2-8 12-11 24-22 36-34 3-3 5-2 8 1 27 22 54 45 80 67 8 6 3 14 5 20zm169 10c-1-6 2-10 7-15 25-19 50-39 74-59 6-4 9-5 14 0 17 17 34 33 51 48 6 6 4 7-2 10-44 16-90 24-137 27-10 0-6-6-7-11zm235-82c32 10 60 19 87 29 7 3 18 6 16 14-1 9-12 8-20 8-28 3-56 6-83 16 11-21 10-43 0-67z"/></svg>