<svg width="64" height="64" viewBox="0 0 1000 1000" xmlns="http://www.w3.org/2000/svg"><path d="M516 0c7 6 15 10 21 17 17 20 11 50-11 65-6 3-7 7-7 13v58c194 22 329 121 377 313 45 177-19 321-161 434 13 13 26 26 40 39 9 10 13 21 11 34-6 26-37 36-58 17-16-15-32-31-48-48-6-6-10-7-19-4-107 46-215 45-323 0-7-4-11-2-16 3-15 16-31 32-47 48-15 14-37 15-50 1-14-14-14-35 1-50 7-7 14-14 21-20 6-7 13-13 19-20C109 773 52 614 118 420c47-138 183-256 364-266 0-22 1-43 0-65 0-2-2-4-4-5-31-16-32-65 4-82 1 0 2-1 2-2h32zm299 563c0-172-142-315-314-314-173 0-314 140-315 313-1 172 141 314 314 315 173 0 314-141 315-314zM3 228c3-17 6-34 11-51C42 95 98 43 183 26c87-18 160 11 217 79l3 3c1 1 1 2 1 3-160 39-272 133-340 288-1-3-2-7-4-9-31-35-49-76-55-122 0-3-2-7-2-10v-30zm592-116c56-69 126-101 212-88 92 14 154 68 181 158 24 80 3 152-53 216-30-74-74-136-134-187-59-50-127-83-206-99zm-62 428h14c29 0 59-1 88 0 18 0 31 13 31 31s-13 32-32 32H501c-19 0-32-13-32-33V366c0-20 14-34 32-33 18 0 32 14 32 33v174z"/></svg>