<svg width="64" height="64" viewBox="0 0 1000 1000" xmlns="http://www.w3.org/2000/svg"><path d="M448 0l38 4c74 9 140 36 198 81 83 64 134 148 153 251 10 54 8 108-5 162-2 6-4 9-11 10-8 1-17 5-27 8-5-4-13-8-20-14-2-2-3-6-3-9 10-36 14-72 11-108-2-23-8-45-12-67 0-2-4-6-6-6h-84c2 14 3 28 4 42-10-4-20-8-30-10s-20-1-31-1c-1-8-3-16-3-24-1-5-3-8-9-8-32 1-64 0-97 1-3 0-7 3-8 5-9 14-19 24-33 32-2 2-5 6-5 8v143c4 0 7 1 11 1 24 0 49 0 73-1 8 0 10 3 10 10-1 14-1 28 0 41 0 9-3 11-11 11-23-1-47-1-70-1h-13c2 83-4 166 4 248-31 5-61 2-92-2-73-10-140-39-197-86-76-63-125-143-143-240-14-76-8-150 20-221C100 160 168 86 266 40c46-23 96-35 148-38 5 0 9-1 14-2h20zm-41 501V357c0-2-2-6-5-8-14-8-24-18-32-32-2-2-7-5-10-5-31-1-63 0-94-1-8 0-10 3-11 10-1 14-4 28-4 43-1 27 0 55 0 83 0 6 3 10 9 12 18 6 32 18 42 35 3 5 6 7 12 7 14-1 28 0 43 0h50zM194 312h-83c-2 0-6 4-6 7-16 58-16 116-1 174 1 6 4 8 10 8h42c6 0 8-2 12-7 5-8 11-15 18-22 5-4 6-8 5-14-1-25-2-49-1-73 0-24 3-48 4-73zm213 250h-97c-2 0-5 3-7 6-6 6-11 14-17 20-4 4-5 8-3 13 7 15 14 31 21 46 19 35 43 66 77 87 8 5 16 8 26 12V562zm63-495c-1 2-2 3-2 4 0 45 0 89 1 134 0 3 3 7 6 9 13 7 23 18 31 31 2 3 6 5 10 6h80c2 0 5-1 8-1v-4c-3-9-6-19-9-28-17-45-39-86-74-120-15-13-31-25-51-31zm-63 1c-51 8-127 111-135 182 1 0 3 1 4 1 29 0 57 0 85-1 3 0 7-3 9-5 7-13 17-24 30-30 6-4 7-8 7-14V68zm336 183c-7-38-103-139-133-140 3 6 7 12 10 17 20 36 35 74 46 114 1 3 4 8 7 8 23 1 47 1 70 1zM266 110l-3-1c-57 34-101 80-132 141 4 0 7 1 10 1 19 0 38-1 56 0 8 0 11-2 13-10 11-44 28-85 52-124 2-2 2-4 4-7zM130 562c32 61 76 108 136 143-1-4-1-5-2-6-13-29-27-58-41-87-2-3-6-5-9-6-21-7-37-19-47-38-2-3-5-6-7-6-9-1-18 0-30 0zm105 1c18 0 32-13 32-31 0-19-14-33-33-33-17 0-31 14-31 31 0 19 13 33 32 33zm171-282c0 19 13 32 32 32 18 0 32-14 32-31 0-19-14-33-32-33s-32 13-32 32zm210 719c-40-8-58-38-73-70-25-57-40-117-42-179 0-31 5-63 19-92 10-19 23-35 41-48 1 3 1 6 1 8v112c0 13 6 20 17 20 10-1 16-7 16-19V426c0-24 13-43 33-48 31-9 59 13 59 47v215c0 10 6 17 16 17s17-7 17-17v-90c0-14 4-18 18-17 37 3 43 8 43 46v67c0 13 6 20 16 21 10 0 17-8 17-20v-89c0-14 5-18 19-16 33 6 43 13 42 52-1 25 0 50 0 75 0 12 6 19 16 19 11 0 16-7 16-19 1-25 0-49 1-74 0-5 3-12 6-15 6-5 11 0 16 4 22 21 35 47 36 77 2 59 2 119 0 178-1 35-11 69-26 101-13 27-29 52-61 60H616z"/></svg>