<svg width="64" height="64" viewBox="0 0 1000 1000" xmlns="http://www.w3.org/2000/svg"><path d="M417 674c-37 0-67 30-67 67s30 67 67 67 67-30 67-67-30-67-67-67zm350 0c-37 0-67 30-67 67s30 67 67 67 67-30 67-67-30-67-67-67zm217-403H252l-50-79H36c-20 0-36 16-36 36v13c0 20 16 36 36 36h108c-2 4-2 9 2 15l188 314c7 12 24 22 38 22h445c13 0 29-10 35-23l146-312c6-12-1-22-14-22zm-248 86c0-14 11-25 25-25h10c13 0 25 11 25 25v5c0 14-12 25-25 25h-10c-14 0-25-11-25-25v-5zm-91 0c0-14 12-25 25-25h10c14 0 25 11 25 25v5c0 14-11 25-25 25h-10c-13 0-25-11-25-25v-5zm-91 0c0-14 12-25 25-25h10c14 0 25 11 25 25v5c0 14-11 25-25 25h-10c-13 0-25-11-25-25v-5zm-90 0c0-14 11-25 25-25h9c14 0 25 11 25 25v5c0 14-11 25-25 25h-9c-14 0-25-11-25-25v-5zm-91 0c0-14 11-25 25-25h9c14 0 25 11 25 25v5c0 14-11 25-25 25h-9c-14 0-25-11-25-25v-5zm-66 30c-14 0-25-11-25-25v-5c0-14 11-25 25-25h9c14 0 25 11 25 25v5c0 14-11 25-25 25h-9zm55 88h-9c-14 0-25-11-25-25v-5c0-14 11-25 25-25h9c14 0 25 11 25 25v5c0 14-11 25-25 25zm70 67c0 14-11 25-25 25h-9c-14 0-25-11-25-25v-5c0-14 11-25 25-25h9c14 0 25 11 25 25v5zm12-67c-14 0-25-11-25-25v-5c0-14 11-25 25-25h9c14 0 25 11 25 25v5c0 14-11 25-25 25h-9zm79 67c0 14-11 25-25 25h-9c-14 0-25-11-25-25v-5c0-14 11-25 25-25h9c14 0 25 11 25 25v5zm12-67c-14 0-25-11-25-25v-5c0-14 11-25 25-25h9c14 0 25 11 25 25v5c0 14-11 25-25 25h-9zm79 67c0 14-11 25-25 25h-10c-13 0-25-11-25-25v-5c0-14 12-25 25-25h10c14 0 25 11 25 25v5zm12-67c-14 0-25-11-25-25v-5c0-14 11-25 25-25h9c14 0 25 11 25 25v5c0 14-11 25-25 25h-9zm79 67c0 14-11 25-25 25h-10c-13 0-25-11-25-25v-5c0-14 12-25 25-25h10c14 0 25 11 25 25v5zm11-67c-13 0-25-11-25-25v-5c0-14 12-25 25-25h10c14 0 25 11 25 25v5c0 14-11 25-25 25h-10zm80 67c0 14-12 25-25 25h-10c-14 0-25-11-25-25v-5c0-14 11-25 25-25h10c13 0 25 11 25 25v5zm46-92c0 14-12 25-25 25h-10c-14 0-25-11-25-25v-5c0-14 11-25 25-25h10c13 0 25 11 25 25v5zm44-88c0 14-11 25-24 25h-10c-14 0-25-11-25-25v-5c0-14 11-25 25-25h10c13 0 24 11 24 25v5z"/></svg>