<svg width="64" height="64" viewBox="0 0 1000 1000" xmlns="http://www.w3.org/2000/svg"><path d="M895 743c-2 3-2 5 0 8 0 52 0 104-1 156 0 47-28 83-72 91-6 1-12 2-18 2H187c-3-2-7-1-11-2l-4-2-5 1c-4-4-9-4-13-7l-11-7c-4-4-8-7-12-10l-14-19c-2-5-4-9-6-14l-1-3v-2l-3-11-1-18v-2c2-2 1-5 1-7V728c0-3 0-5-1-7v-3c1-1 1-2 0-3v-9c2-2 1-5 1-8V465c0-3 0-5-1-8v-3c1-1 1-2 0-3v-3c1-4 2-7 0-11v-9c2-7 1-14 0-21v-8c0-3 1-5 1-8V165c0-3 1-6-1-8v-4c2-16 2-32 0-48v-4c2-3 2-6 0-9v-3c1-4 2-7 1-10 6-46 42-79 89-79h608c52 0 90 38 90 90 1 34 0 68 0 102-1 1-1 2 1 4 0 6-1 12-1 19v522c0 2 1 4 1 6zM669 424c-5-2-9 0-14 1h-3l-3 1-8 2c-7 2-13 4-19 8-43 20-67 77-51 123 18 52 70 82 121 71 60-14 96-73 79-132-8-26-23-46-47-59-3-3-6-6-11-6-4-4-10-5-15-5-4-3-9-3-13-4-6 0-11-1-16 0zM390 701c0-3-3-4-5-5-21-13-45-18-70-14-39 7-66 29-81 66-14 38-8 73 18 105 37 44 106 49 148 11 46-41 48-109 6-152-5-4-9-10-16-11zM503 85H277c-48 0-87 42-86 90v74c0 54 38 92 92 92h446c13 0 26-3 38-10 30-19 45-44 44-81 0-28 1-55 1-82-1-44-39-83-83-83H503zM227 527c0 58 46 105 104 105 56 1 105-46 105-103 0-58-46-105-102-105-59-1-106 45-107 103zm549 259c0-57-46-104-102-105-59-1-106 45-106 103-1 58 45 105 103 106 55 0 105-45 105-104zm-500-19c15 0 31-1 47-1l4 1h57c13 0 21 6 21 18s-8 19-22 19H278c-11 0-18-6-19-15-2-11 2-18 14-22h3zm94-184c-3 1-7-2-11-5-7-7-15-13-22-20-3-4-5-3-8 1-6 7-12 14-19 20-8 10-19 11-27 4-9-7-9-19-1-29 6-7 12-14 19-20 4-4 3-6-1-9-7-6-14-12-20-19-10-9-11-19-3-27 8-9 18-9 28 0 7 6 14 12 20 18 4 4 6 4 10 0 5-7 11-14 17-20 9-10 20-11 29-4 8 8 8 19-1 29-6 6-11 13-17 19-4 4-5 6 0 10 8 7 15 13 22 20 6 6 8 14 4 21-3 7-9 11-19 11zm363 160c11 7 14 13 12 22-3 10-10 15-22 15H620c-11 0-20-6-22-16-1-9 4-16 15-21 5 0 10 1 15-1h5c33 1 66 1 100 1zm-61 48h51c13 0 22 7 22 18s-8 19-21 19H619c-12 0-21-7-21-18s9-19 22-19h52zm9-335c6 6 8 13 8 22 0 10-2 21 2 31h35c11 0 18 8 18 18 0 11-7 19-18 19h-31c-4 0-6 1-6 6 1 10 1 19 0 29 0 12-8 20-18 20-11 0-19-8-19-20v-26c1-7-1-10-8-9-9 1-18 0-27 0-12 0-19-8-19-19s7-18 19-18h28c6 0 7-2 7-7v-32c2-8 7-13 14-17 5 1 10 1 15 3z"/></svg>