<svg width="64" height="64" viewBox="0 0 1000 1000" xmlns="http://www.w3.org/2000/svg"><path d="M881 126c-9-5-18-8-27-8-38-1-77-1-115-1-1 0-2 1-4 1v146c0 19-10 29-29 29H299c-24 0-34-9-34-33V126v-9H150c-34 1-61 27-61 61v766c0 30 24 54 54 55 4 1 8 1 12 1 229 0 458-1 687 0 34 0 58-12 69-45V168c-6-17-13-34-30-42zM724 506c-70 70-140 141-211 212-14 14-29 29-43 44-15 15-29 14-44 0-49-47-98-94-147-140-17-17-18-31-2-48 10-9 19-19 29-28 15-16 28-16 44-1l93 86c1 1 3 2 4 3 32-32 64-63 95-94 36-35 71-71 107-107 16-17 30-17 46 0 10 10 19 19 28 29 15 14 15 29 1 44zM346 234c9 2 19 1 28 1 89 1 179 1 268 0h10c16-3 24-13 25-28v-90c-1-29-15-50-38-56-9-2-18-2-27-2-17-1-35-1-52-1-1-5-1-8-2-12-1-23-9-41-34-46h-48c-32 7-34 33-35 58h-56c-36 0-60 23-61 59-1 30-1 61 0 91 0 14 8 24 22 26z"/></svg>