<svg width="64" height="64" viewBox="0 0 1000 1000" xmlns="http://www.w3.org/2000/svg"><path d="M930 174c0-50-28-75-78-74-17 1-20 7-20 22 1 25 1 51 0 76-2 41-26 66-67 69-21 2-43 2-64 0-43-3-68-29-69-73 0-24-1-48 0-72 1-16-4-22-20-22-75 1-150 1-225 0-17 0-20 8-19 22v76c-1 38-23 64-61 68-23 3-47 3-70 1-43-2-66-27-68-70-1-25-1-51 0-76 1-16-5-20-21-21-51-1-78 25-78 77v746c0 53 23 77 77 77h706c54 0 77-23 77-77V550 174zM168 351c0-13 6-18 19-18h164c12 0 17 5 17 16-1 45-1 90 0 135 0 14-8 16-20 16H186c-13 0-18-5-18-18V351zm200 531c0 14-5 20-19 20-53-1-106-1-159 0-16 0-22-6-22-21 1-43 0-86 0-129 0-13 5-18 18-18 27 1 54 0 81 0s54 1 81 0c15 0 20 4 20 19-1 43-1 86 0 129zm-23-181c-26-1-52 0-78 0-25 0-51-1-76 0-16 1-24-4-23-21 1-42 1-85 0-127 0-16 6-20 22-20 52 1 104 1 157 0 18-1 21 7 21 23-1 41-1 82 0 123 1 18-6 23-23 22zm75-368h159c15-1 20 5 20 19 0 43-1 86 0 129 0 16-6 19-20 19-27-1-54 0-81 0s-53-1-79 0c-13 0-18-5-18-18 1-44 1-88 0-132 0-14 6-17 19-17zm-19 220c0-15 4-20 19-20 53 1 107 1 160 0 15 0 19 5 19 20v129c0 14-5 20-19 19-27-1-54 0-81 0-26 0-51-1-76 0-15 1-22-2-22-20 1-42 1-85 0-128zm198 326c1 17-6 23-22 23-52-1-103-1-155 0-15 0-22-5-21-21 1-42 1-84 0-126 0-16 5-22 21-21 26 1 52 0 78 0s51 1 76 0c16-1 24 4 23 22-1 41-1 82 0 123zm33-527c0-14 5-20 19-19h160c15-1 22 4 22 20-1 43-1 86 0 129 0 13-5 18-19 18h-84c-25 0-50-1-75 0-16 1-24-4-23-22 1-42 1-84 0-126zm200 532c1 13-6 18-18 18-55-1-110-1-165 0-12 0-17-6-17-17V750c0-15 9-16 20-16h81c27 0 54 1 81 0 13 0 19 5 18 18v132zm-23-183c-26-1-52 0-78 0-27 0-54-1-81 0-13 0-18-5-18-18 0-44 1-88 0-131 0-16 6-19 20-19h159c16 0 22 5 22 21-1 42-1 84 0 125 0 19-8 23-24 22zM272 233c34-2 60-29 62-64 1-18 0-36 0-53s1-34 0-51c-2-35-27-62-61-65-34-2-64 21-69 56-5 40-5 81 0 120 4 36 35 59 68 57zm458 0c37 2 66-27 69-67 1-16 0-31 0-47 0-18 1-36-1-54-2-38-31-65-67-65-35 1-64 29-65 67-1 33-1 66 0 98 1 39 28 67 64 68z"/></svg>