<svg width="64" height="64" viewBox="0 0 1000 1000" xmlns="http://www.w3.org/2000/svg"><path d="M785 997c26-28 51-54 76-81 48-54 42-114-15-156-47-35-93-69-141-101-54-36-103-23-136 32-13 21-24 43-35 64-105-52-201-151-256-254 23-13 46-25 68-38 52-33 64-80 31-131-36-56-76-109-116-163-15-20-38-29-75-31 0-26-3-52 1-77 5-36 36-61 73-61h626c46 0 77 35 77 85v796c0 13 1 27 0 40-3 50-33 79-83 79h-90c-1 0-2-1-5-3zM602 556h185c14 0 29-2 28-19-1-15-16-19-30-18-10 0-20 2-30 2-50-1-100-2-150-2H419c-12 0-26 1-27 18s12 19 25 19h185zm41-344h147c12 0 24-3 24-18 0-16-13-18-26-18H499c-14 0-26 2-25 19 0 16 12 17 25 17h144zm-2 163c49 1 98 0 147 1 13 0 26-3 26-19s-14-18-27-18H499c-13 0-25 2-25 18-1 16 11 19 25 19 47-1 95-1 142-1zm15 622c-62-6-123-30-180-64-155-93-280-217-373-372-30-49-53-102-63-160-9-55 1-105 46-144 23-19 44-41 67-60 32-27 62-24 87 10 34 46 67 92 99 140 25 37 19 62-21 85-21 12-42 21-64 32-26 13-32 28-15 52 28 40 56 80 88 117 52 62 113 114 183 157 35 21 45 18 63-19 9-19 18-38 29-56 22-39 46-46 83-20 47 31 92 65 138 98 7 5 13 11 18 19 15 22 16 45-2 65-25 30-52 58-79 86-27 27-62 33-104 34zM184 733c99 108 204 199 335 265-8 1-13 2-17 2H268c-52 0-84-32-84-83V733z"/></svg>