<svg width="64" height="64" viewBox="0 0 1000 1000" xmlns="http://www.w3.org/2000/svg"><path d="M0 960c28-95 56-190 83-286 3-7 5-15 7-23 3-11 9-20 18-28 9-7 16-16 24-24 131-129 261-258 391-387 3-3 6-6 8-9l53 53c-2 1-6 3-9 6L170 667c-5 5-9 11-11 18-16 54-31 107-47 161-2 7-1 11 4 16 8 7 16 16 24 23 3 3 8 5 12 4 54-16 107-31 161-48 5-1 9-5 12-9 137-136 274-273 411-410 2-2 5-5 6-7 19 20 38 38 59 59-1 1-5 2-7 5-135 133-270 266-404 401-19 18-39 30-64 37-89 25-178 52-267 78-5 2-11 3-17 5h-8c-5-2-9-4-13-6-12-5-16-17-21-28v-6zm269-165c-3-17-5-32-7-47-1-8-4-10-11-12-17-3-34-7-50-11l425-425c22 22 46 45 68 68-140 141-282 283-425 427zM677 64c13-12 26-26 40-38 39-36 90-35 128 3 43 41 84 83 126 125 39 40 38 93-1 133l-35 35c-85-86-171-171-258-258zm-104 94c19-18 39-36 58-54 90 89 179 179 269 268-19 18-39 37-58 55L573 158z"/></svg>