<svg width="64" height="64" viewBox="0 0 1000 1000" xmlns="http://www.w3.org/2000/svg"><path d="M1000 391c-11 70-25 158-41 246-7 43-16 87-30 129-26 80-92 110-171 80-55-21-95-60-114-117-13-38-26-77-37-116-6-18-16-27-36-26-48 1-95 1-143 0-20 0-30 8-36 26-12 41-25 81-39 121-27 79-111 131-192 120-45-6-75-34-87-75-17-59-30-119-42-180-12-64-21-129-30-195-17-124 77-241 202-253 52-6 99 5 145 30 16 9 35 14 53 14 61 2 122 3 183 0 22 0 45-8 65-19 79-43 157-46 235-1 75 43 111 112 115 216zm-261-61c-11 1-19 1-28 1-8 1-17 0-26 1-27 2-43 18-42 42 0 23 16 38 43 39 17 1 34 0 53 0v30c0 9 0 19 1 28 4 26 20 41 43 40 23-2 38-18 39-44 1-17 1-34 1-52 11-1 19-1 28-1 9-1 19 0 28-1 24-2 42-21 41-42-1-22-17-37-41-39-18-1-36 0-57 0v-50c0-29-15-47-40-48-23-1-41 17-43 45-1 17 0 33 0 51zm-337 46c-1-31-27-55-58-54-29 1-54 27-53 56 1 32 26 56 57 55s55-26 54-57zM186 271c-1 31 23 57 52 57 31 1 58-25 59-56 1-30-26-55-57-55-30 0-54 24-54 54zm0 213c0 30 25 56 53 56 32-1 59-27 58-58-1-30-28-55-58-55-28 0-54 27-53 57zm-51-51c30 0 56-25 57-55 0-30-27-56-57-56s-55 25-56 54c-1 31 25 57 56 57z"/></svg>