<svg width="64" height="64" viewBox="0 0 1000 1000" xmlns="http://www.w3.org/2000/svg"><path d="M499 786H78c-49 0-78-30-78-79V293c0-49 29-79 78-79h847c44 0 75 31 75 75v423c0 43-31 74-75 74H499zm1-107h175c25 0 39-15 40-40 0-11 0-21-1-32 0-20-15-35-35-36-119 0-239 0-358 1-20 0-35 15-35 35-1 10 0 21 0 31 0 27 13 41 40 41h174zm429-268v-89c0-21-15-36-36-36-24-1-47-1-71 0-21 0-36 15-36 37v32c-1 14 5 25 17 33 13 8 19 20 19 35-1 26-1 52-1 77 1 20 16 35 36 36h34c23 0 38-15 38-38v-87zM161 679h53c20 0 36-15 36-35v-37c0-21-16-35-36-36H108c-21 1-36 16-37 37v34c0 22 15 37 37 37h53zm678 0h54c20-1 35-15 36-36v-36c-1-20-15-35-35-35-36-1-72-1-108-1-20 1-36 16-36 36v35c0 22 15 37 37 37h52zM143 429c-12 0-24-1-36 0-20 0-35 15-36 35v36c1 21 16 36 36 36h72c20 0 35-16 35-36 1-12 1-24 0-35 0-21-15-36-36-36-12-1-23 0-35 0zm268-143h-16c-23 0-38 14-38 37v17c-3 41 14 54 53 54s55-11 55-55c0-40-12-57-54-53zm142 107h18c21 0 36-15 36-36v-18c4-41-13-54-53-54-41 0-55 13-55 54 0 40 13 58 54 54zm144-107h-17c-22 0-37 15-37 37v34c0 20 15 35 35 36h19c39 3 54-12 54-53s-13-58-54-54zM268 393h17c21 0 36-15 37-36 0-6-1-12 0-18 3-41-14-54-54-54-41 0-55 13-55 54 0 40 12 58 55 54zm36 143h18c20-1 35-16 35-36 0-13 1-25 0-37 0-19-15-34-34-34-7-1-13 0-20-1-39-3-54 13-54 54s14 57 55 54zm196-54v-17c0-21-15-36-36-36-12-1-24-1-37 0-18 0-33 15-34 33-1 14-1 27 0 41 1 17 15 32 33 33 7 0 14-1 21 0 40 3 57-13 53-54zm90 54h17c20 0 36-15 36-35v-19c3-40-12-54-53-54-40 0-55 12-55 54 0 41 13 57 55 54zm142 0h18c21-1 36-16 36-36v-37c-1-19-16-34-34-34-7-1-14 0-20-1-40-3-54 13-54 54s14 57 54 54zM125 286h-12c-28 0-42 13-42 40 0 5 1 9 0 14-3 40 14 54 54 54 41 0 54-14 54-55s-13-57-54-53z"/></svg>