<svg width="64" height="64" viewBox="0 0 1000 1000" xmlns="http://www.w3.org/2000/svg"><path d="M0 882V89c107-8 215-15 324-23v782c-108 11-215 22-324 34zm501 1c-48-12-91-22-133-33-5-2-10-12-10-19V409 96 66c75 19 148 37 221 55 14 3 27 8 41 10 12 2 15 8 15 20v200c0 13-5 17-16 21-65 25-116 66-153 124-73 117-65 260 20 368 4 5 8 10 15 19zm232 51c-148-1-269-121-269-267 0-147 121-268 269-269 147-1 268 122 267 271-1 147-120 266-267 265zm195-291c-5-98-110-178-173-170-7 19-14 39-23 62-7-19-14-35-18-51-3-14-11-17-22-12-22 8-45 16-65 28-49 28-76 73-89 128-3 11-1 17 12 20 16 4 32 11 53 18-26 9-46 16-65 23 2 85 88 170 172 172 7-20 14-40 23-66 9 26 16 47 23 68 96-15 166-85 172-174-21-7-41-14-66-23 26-9 46-16 66-23zm-4-227c-78-58-162-76-256-59v-73c0-45 0-90 1-135 0-6 6-16 11-17 79-22 158-43 238-64h6v348zM663 594c8 6 16 11 25 17 14 10 23 7 29-9 5-13 9-27 15-45 7 18 12 32 18 48 37-23 73-45 109-67l2 2c-22 36-44 71-67 109l48 18c-17 6-29 10-42 14-19 7-22 15-11 31 5 8 9 15 12 25-8-5-16-10-24-16-14-9-23-6-28 9-5 14-10 28-16 45-7-18-12-32-18-48-36 23-72 46-108 68l-3-2c22-36 44-72 67-109-15-6-29-11-47-18 18-6 32-10 45-16 14-5 19-14 9-28-6-8-12-16-17-25l2-3z"/></svg>