<svg width="64" height="64" viewBox="0 0 1000 1000" xmlns="http://www.w3.org/2000/svg"><path d="M990 340c-1-12-3-24-5-36-3-11-7-20-10-27-1-1-1-2-2-4-32-52-79-87-130-119-37-23-75-43-114-62-17-8-27-20-28-40-1-40-3-41-42-50-7-4-12-2-18 0-21 13-28 31-28 56 1 174 1 348 1 522 0 8-1 15-1 23-139-66-269-55-386 40-118 94-96 242 42 301 115 49 272 19 361-69 40-41 62-88 61-147-2-148 0-297-1-445 0-17 5-22 22-19 100 17 180 64 238 148 10 15 18 30 28 45 12-49 15-88 12-117zm-15-63c3 7 7 16 10 27-2-9-5-18-10-27zM88 675c-18 0-26-13-21-33 19-80 93-147 177-161 6-1 11-2 17-3 17-3 32 1 35 20 2 18-11 24-27 27-12 2-25 3-37 7-61 19-100 59-119 119-4 14-9 24-25 24zM33 540c-16 1-26-13-23-30 11-49 67-95 118-96 13 0 24 7 25 21 2 17-9 25-24 27-36 5-61 23-72 58l-3 9c-5 8-12 11-21 11zm665 334c17 0 27 13 23 30-10 50-67 96-117 96-14 0-24-6-25-21-2-17 8-24 24-26 36-5 60-24 71-59 1-3 3-6 4-8 4-8 11-12 20-12z"/></svg>