<svg width="64" height="64" viewBox="0 0 1000 1000" xmlns="http://www.w3.org/2000/svg"><path d="M1000 409c-2 104-49 221-144 319-24 24-61 15-69-16-5-16 1-30 12-41 49-49 85-107 103-174 43-156 9-295-102-414-11-12-18-25-14-42 8-30 45-40 68-17 35 34 64 73 87 117 39 72 59 152 59 268zM0 336C2 233 49 115 144 17c24-24 61-15 70 17 4 16-2 29-13 40-49 50-85 107-103 174-43 156-9 295 102 414 12 13 18 26 14 42-8 31-45 40-68 18-35-35-64-74-87-117C20 532 0 453 0 336zM261 96c15 1 28 8 35 24s5 31-8 44c-20 21-37 43-51 68-62 113-44 257 45 350 10 10 19 21 18 36-1 17-10 30-25 36-16 6-31 4-44-9-23-22-42-48-59-76-42-71-59-148-50-231 9-88 45-164 107-228 9-9 19-14 32-14zm620 282c-2 102-38 191-110 265-21 22-54 17-67-9-7-16-4-34 11-48 35-37 62-80 74-130 27-109 3-206-75-289-12-13-17-27-11-44 9-29 45-36 66-15 44 44 75 96 94 155 12 37 17 75 18 115zM390 704c6-20 11-39 16-59 24-87 49-174 73-261 2-8 5-16 14-19 13-5 24 1 28 16 19 67 37 134 55 201 11 38 22 77 32 115 1 2 1 5 2 7H390zM240 375c1-69 25-130 74-180 17-18 42-19 58-3 17 16 17 40 0 58-69 74-69 177-1 252 14 15 17 31 10 47-7 15-23 24-39 23-11-1-20-5-28-13-49-51-74-112-74-184zm520-1c-1 73-25 134-74 184-11 12-25 17-41 13-15-5-25-15-28-30-4-16 1-28 12-39 24-25 41-55 47-89 12-62-4-116-47-162-11-11-16-23-13-38s13-26 28-30c15-5 29-2 40 10 51 51 75 112 76 181zM656 859c6 23 12 45 18 67 2 9 6 19 7 28s0 19-2 28c-3 10-11 15-23 15-104-1-208-1-311 0-13 0-16-9-22-18 111-40 221-80 333-120zm-214-31c59-26 119-51 180-77 7 26 14 52 22 79H442v-2zm90 45c-69 23-137 46-206 68 1-3 1-5 2-8 5-18 10-37 16-55 0-3 4-6 7-6 59-1 119-1 178-1 1 0 1 1 3 2zm-13-125c-53 23-106 46-160 69 6-24 12-45 19-67 0-2 3-4 5-4h136v2z"/></svg>