<svg width="64" height="64" viewBox="0 0 1000 1000" xmlns="http://www.w3.org/2000/svg"><path d="M277 678h446c34 0 62-28 62-62V350c0-34-28-62-62-62h-40v-83c0-34-28-62-62-62H379c-34 0-62 28-62 62v83h-40c-34 0-62 28-62 62v266c0 34 28 62 62 62zm101-421v-28c0-17 14-31 31-31h182c17 0 31 14 31 31v59H378v-31zM56 746c-31 0-56 25-56 56 0 30 25 55 56 55s55-25 55-55c0-31-25-56-55-56zm177 0c-30 0-55 25-55 56 0 30 25 55 55 55s56-25 56-55c0-31-25-56-56-56zm178 0c-31 0-56 25-56 56 0 30 25 55 56 55s56-25 56-55c0-31-25-56-56-56zm178 0c-31 0-56 25-56 56 0 30 25 55 56 55s56-25 56-55c0-31-25-56-56-56zm178 0c-31 0-56 25-56 56 0 30 25 55 56 55 30 0 55-25 55-55 0-31-25-56-55-56zm177 0c-30 0-55 25-55 56 0 30 25 55 55 55 31 0 56-25 56-55 0-31-25-56-56-56z"/></svg>