<svg width="64" height="64" viewBox="0 0 1000 1000" xmlns="http://www.w3.org/2000/svg"><path d="M480 463l2 1c-1 1-2 0-2-1zm320 446c-8-3-15-5-22-9-22-13-30-46-14-68 13-17 28-33 41-50 68-91 100-194 94-307s-48-210-125-294c-12-13-20-27-18-46 3-22 19-39 42-42 1-1 2-2 3-2h9c20 3 34 17 46 31 24 28 46 57 64 88 40 67 65 140 75 218 2 14 3 29 5 43v58c-1 3-1 7-2 10-3 24-4 48-9 72-19 95-60 180-123 255-15 18-28 37-53 43h-13zM681 797c-22 0-38-10-46-30-9-21-3-39 10-56 17-20 34-40 47-62 33-55 45-115 39-178-7-69-35-129-83-180-16-17-22-35-13-58 11-29 51-40 76-20 21 18 38 41 54 64 33 49 54 103 63 162 10 68 4 135-20 200-20 54-51 102-91 143-10 10-22 16-36 15zm-16-290c-1 61-25 118-75 165-16 15-34 19-55 10-19-8-29-23-30-43-1-17 7-31 19-42 23-23 37-51 40-83 4-42-9-79-39-109-12-12-21-26-19-45 1-19 11-33 28-41s35-7 50 5c28 21 47 49 61 80s20 62 20 103zm-262-6c0 85 1 170 0 255 0 12-5 29-14 34-8 5-26 0-35-7-67-48-134-97-198-150-13-10-16-36-17-55 0-63 2-125 5-188 1-10 9-23 17-30 63-49 126-97 190-144 10-7 29-12 38-8 9 5 15 23 15 36 2 86-1 172-1 257 0 0-2-1 0 0zm-322-1c0 31 0 63 1 95 0 15-5 22-21 24-56 6-61 3-61-54 0-51 1-103 0-154 0-22 7-31 31-31 50-1 50-2 50 48v72z"/></svg>