<svg width="64" height="64" viewBox="0 0 1000 1000" xmlns="http://www.w3.org/2000/svg"><path d="M775 832c-22 44-56 72-101 86-67 21-126 2-174-48-9-10-15-12-28-8-68 22-128 7-177-45-10-10-19-13-33-10-65 16-135-33-145-100-10-72 41-138 110-142 11-1 22 0 34 0 17-43 45-75 90-91 44-15 86-9 125 14 74-152 279-121 319 24 81-12 145 13 186 86 31 55 23 131-18 182-43 55-111 74-188 52zM108 422c1-138 101-226 202-237 119-13 224 66 249 179 2 11-1 16-10 23-25 19-48 41-73 61-5 5-15 9-20 7-77-27-159 3-201 75-6 11-12 13-22 14-18 2-36 6-52 13-12 4-18 2-25-7-31-42-46-88-48-128zm395-196c-15-11-27-20-41-31 24-19 46-37 69-55l4 2c-10 27-20 54-32 84zm-379 53c-21-26-38-50-56-73l2-3c27 12 55 24 85 36-11 14-21 26-31 40zm486-63c-19 23-37 46-58 70-9-13-18-25-29-41 29-11 57-22 85-33l2 4zm-435 4c-11-32-21-59-33-93 27 23 50 43 75 64-15 10-27 19-42 29zm264-37c-19-6-33-10-50-16 17-27 33-52 50-79v95zM147 573c-31 11-59 21-86 31l-3-3c19-22 38-45 59-70 10 14 19 26 30 42zM11 506c28-17 53-32 79-48 5 16 10 30 16 48H11zm280-341c-16 5-31 9-48 14V86c16 27 32 52 48 79zM110 304c-6 16-11 31-16 48l-74-51v-4c29 2 58 4 90 7zm201-144l23-86h4c7 28 15 56 23 86h-50zM86 379v50c-30-8-58-16-86-25v-4c28-6 56-13 86-21z"/></svg>