<svg width="64" height="64" viewBox="0 0 1000 1000" xmlns="http://www.w3.org/2000/svg"><path d="M937 910c-2-6-5-10-9-15-11-13-23-25-42-27-6 0-15 2-19-6-6-9-14-15-24-18-6-1-7-4-6-9 2-11-1-20-6-29-10-22-28-39-58-30-4 1-7-2-8-5-7-13-17-24-28-34-21-20-46-23-73-16-20 5-35 18-47 34-3 5-6 5-11 1-15-13-31-26-47-39-54-43-108-87-162-130-3-3-4-4-1-9 23-42 46-84 69-127 9-16 18-33 27-49 10-16 10-31 2-46-24-42-55-81-82-121-9-13-20-19-37-19-58 1-116 1-174 0-26 0-36 12-43 32-9 24-12 49-18 74-4 17-8 33-12 51-6-5-11-9-15-13-5-5-11-8-18-10-5-1-8 2-11 4-2 3-6 6-4 11 3 6 6 12 12 16 9 5 17 12 25 18 3 3 8 5 8 9 0 15 9 22 21 27l-29 29c-5 4-9 9-9 15 0 10-2 20-2 30 1 56 0 112 0 167v9c-14 54-28 109-41 163-4 16-4 32 5 47 11 22 43 25 61 11 12-9 18-22 22-36 14-53 27-106 40-160 4-12 9-25 9-37-1-41 0-81 1-123l10 12c29 36 58 72 86 108 3 3 5 5 3 10-28 56-54 112-81 168-8 17-11 33-1 50 11 18 35 23 52 16 14-6 22-19 30-31 13-20 23-43 35-65 22-41 42-84 64-125 9-16 8-38-1-49-8-8-15-17-23-25-2-3-2-4-1-7 3-3 5 0 6 1 6 4 11 9 17 13 59 48 119 95 178 142 5 4 6 6-1 9-15 6-28 16-36 31-5 10-10 19-24 16 0 0-2 2-3 2-16 7-25 19-27 36-1 4-3 6-7 7-5 0-11 1-17 1-24 2-43 15-57 33-3 3-6 7-5 11 2 4 7 2 11 2h516c2 0 4-1 6 0 5 0 5-2 4-6zM205 375c5-22 10-45 15-68 0-3 2-5 5-5 17 2 34-1 50 3l-70 70zm124 150c-2 4-5 4-8 1-13-10-25-20-38-30-5-4-3-6 1-7 24-10 47-20 70-30 5-2 9-6 16-5-14 24-27 47-41 71zm211-273c42 0 83-30 85-84-1-46-35-84-84-84-50-1-83 36-84 83-1 46 34 84 83 85z"/></svg>