<svg width="64" height="64" viewBox="0 0 1000 1000" xmlns="http://www.w3.org/2000/svg"><path d="M507 999c-51 0-103-2-155 1-31 2-37-9-32-37 9-57 5-115-5-172-4-24-14-40-36-53C75 607 23 347 164 157 258 31 392-11 543 2c127 11 235 67 318 166 12 15 23 30 30 48 7 20 7 38-14 49-16 7-11 19-9 30 6 27 12 54 19 81 6 24 9 47-10 67-8 8-2 17 0 25l36 120c5 17 4 29-16 33-19 5-20 18-17 34 7 33 9 65 7 98-2 40-23 59-64 62-37 2-75 5-113 6-18 0-24 7-22 25 3 42 3 83 7 125 2 22-4 29-27 29-54-2-107-1-161-1zM379 595c11-7 15 4 22 8 10 5 20 17 31 3 10-13 2-24-9-32-32-25-64-49-96-74-10-7-20-12-29-1-7 10-3 21 5 29 11 11 28 16 35 31-10 12-19-14-27 0-6 10-2 21 3 31 9 16 23 24 41 23 12 0 25-1 24-18zm113-404c-70 0-120 50-119 120 1 23 11 48 4 68-20 58 15 77 57 96 7 3 14 8 21 11 5 3 11 5 16-1 27-32 68-42 103-62 29-17 49-40 56-73 17-80-52-160-138-159zm-48 374c10 0 16-4 18-11 3-11-2-19-11-26-31-24-63-48-95-72-10-8-21-18-32-2-10 14 1 24 12 32 30 23 61 47 92 70 6 4 12 7 16 9zm189-445c0-10-8-11-14-15-6-5-12-4-16 4-7 13-15 26-23 39-5 8-1 13 6 16 6 2 12 11 18 4 11-16 19-32 29-48zm84 86c-9-8-8-27-26-16-11 7-22 13-34 19-9 6-11 12-5 22 6 9 11 13 20 6 15-11 34-14 45-31zM386 99c-5 6-15 6-18 15-2 5 24 50 30 52 9 3 15-3 20-8 8-8 0-15-4-21-8-13-12-29-28-38zm130 8c-2-11 4-23-4-31-6-7-20-7-23 0-8 20-7 41-1 61 3 8 18 7 24 1 9-8 2-21 4-31zm192 197h-21c-11 0-11 8-11 16 0 20 16 15 25 13 14-2 35 13 41-12 2-8 1-17-10-17h-24z"/></svg>