<svg width="64" height="64" viewBox="0 0 1000 1000" xmlns="http://www.w3.org/2000/svg"><path d="M191 183c-4-11 5-21 16-19 3 0 7 1 10 2 20 8 40 15 60 22 14 5 29 11 44 15 9 2 18 6 27 8 3 1 7 1 10-1 3-1 4-4 1-6-5-6-12-11-19-15-5-3-9-6-13-9-15-9-31-17-47-26l-21-11-8-5-13-7c-8-4-8-14-4-20 5-7 10-8 18-7 7 2 13 6 20 10 15 7 30 15 44 23 13 7 26 13 39 20 10 5 19 9 30 12 2 0 4 1 5-1s0-4-1-5c-6-6-11-12-16-17-4-3-7-6-11-9-8-7-15-15-24-21l-9-9c-7-6-15-12-21-19-6-6-7-14-4-20 3-5 10-7 15-5 4 1 7 3 10 6 7 5 14 11 21 16 9 6 17 12 25 19 11 8 22 16 32 26 7 7 15 13 24 19 11 7 23 10 36 14 10 2 20 6 30 10s18 9 27 14 16 12 24 19 16 15 19 27c1 5 1 9 0 14-2 9-5 16-10 23-8 9-9 20-12 31-2 8-2 16-3 24-2 13-8 23-17 31-9 9-19 15-29 22l-15 9c-7 4-15 5-23 5-11 1-21 3-32 8-7 3-13 8-19 12-6 5-13 8-20 9-9 1-17 6-24 11-5 4-10 7-15 10-6 2-13-3-14-10-1-10 4-18 10-25 6-9 15-13 24-16 5-1 9-4 12-7 9-7 18-14 27-20 2-1 5-2 8-3 10-5 8-11 4-19-2-3-5-5-9-7-8-3-16-8-24-13-10-7-21-11-33-11-9-1-18-3-27-4-13-2-26-1-40-2-13-1-27-2-41-4-12-1-24-2-36-4-9-1-15-6-14-16 1-7 8-14 17-13 13 0 27 0 43 1 21 0 46 2 70 2 7 1 14-1 19-5 6-3 6-9 1-14-2-2-5-3-8-5-11-4-22-9-34-13-17-5-32-13-48-18-8-3-16-7-24-10-7-3-15-5-22-9-5-2-10-4-14-8-2-1-4-3-4-6zm251 469c-2-5-6-10-9-15-6-7-11-15-12-24-1-7-4-14-9-20-4-6-9-12-12-20-5-10-6-20-7-31-1-8-2-16-6-23-2-5-6-10-9-15-6-10-13-21-22-30-8-9-18-15-30-16-10-1-19-2-28-4-10-2-20-4-28-11-6-5-13-8-20-10-10-2-19 0-27 5s-15 10-20 18c-5 7-11 13-16 20-4 9-10 17-13 26-4 11-9 22-12 33-2 8-3 17-7 24-7 13-16 25-26 36-15 16-27 34-40 50-1 2-2 4-3 5-7 7-12 15-18 22-2 3-3 6-5 10-1 4 1 10 4 13 6 4 15 4 20-1l15-15c6-9 13-16 20-24 8-10 18-20 26-30 5-5 10-9 15-14 1-1 3-3 5-1s1 3 1 5c-2 10-6 19-10 28-8 13-14 27-22 41s-15 29-23 44c-3 6-8 13-9 20-2 8-1 13 6 17 7 5 18 4 21-5 1-3 2-5 4-7 3-6 7-11 9-16 6-12 13-23 19-35 5-12 13-23 20-34 2-4 4-7 6-10 4-7 8-13 14-18 3-2 5-1 7 2 1 2 1 6 0 8-2 10-5 20-8 30-7 21-14 43-23 64-3 8-5 17-9 26-2 6-5 13-7 20-2 12 3 18 16 19 4 0 7-1 10-4 3-4 5-9 7-13 6-15 12-29 17-44 7-17 14-34 20-51 3-11 8-21 12-31 2-4 3-8 6-12 5-5 11-5 15 2 4 5 5 11 5 18-1 25-3 49-3 71-1 16-1 29-1 42-1 1 0 3 0 5 2 8 8 12 16 13 7 0 12-7 13-13 2-13 3-25 4-38 2-13 3-26 4-40 1-13 0-27 2-40 1-9 4-17 4-26 0-13 4-25 11-35 6-8 10-16 14-25 1-3 4-6 7-7 7-4 13-7 18 3l3 9c6 8 12 17 19 25 4 3 6 8 8 13 3 9 7 18 15 25 8 5 16 10 26 9 6 0 12-7 10-13zm364 159c-5-3-10-6-15-8-7-3-14-6-22-9s-16-7-24-10c-16-5-31-13-47-18-11-3-21-8-32-12-4-2-8-3-11-6-5-5-5-10 1-14 5-4 12-6 19-5 24 1 49 2 74 2 12 1 25 1 38 2 4 0 8-1 12-4 8-5 10-20-1-24-3-2-7-2-10-3-11-1-21-2-32-3-14-1-27-3-40-4-14-1-28 0-41-2-9-1-17-3-26-4-12 0-23-3-33-10-9-5-18-11-28-15-4-2-7-6-9-11-2-6-1-10 5-13 3-1 6-2 9-4 9-6 18-12 26-20 4-3 8-5 12-7 10-3 19-7 25-15s10-15 10-25c0-9-8-13-16-10-5 3-9 6-14 9-7 5-14 10-24 11-7 1-13 4-19 8-5 5-11 9-18 13-10 5-22 7-33 7-8 1-16 2-23 6-6 2-10 6-15 9-11 7-21 14-30 22s-14 18-16 30c-1 8-2 16-3 25-3 11-4 22-12 31-5 7-9 15-10 23-1 5-1 9 0 14 3 12 11 20 19 27s15 14 24 19c9 4 17 10 26 13 11 4 21 9 32 11 12 3 24 7 35 14 9 6 17 12 25 19 10 10 21 18 32 27 8 6 17 13 26 20 10 6 18 15 29 20 5 2 12-1 15-6 3-6 2-14-3-19-6-6-11-11-17-16-5-3-8-8-13-11-9-6-16-14-24-21s-17-15-24-23c-2-2-4-4-5-6-1-3-1-4 2-4h4c10 2 19 6 28 11 13 7 27 14 40 21 14 8 29 15 44 23 7 3 13 8 21 10 8 1 12 0 17-7s4-17-6-21c-2 0-3-1-4-2-11-8-24-13-35-20-18-10-35-19-52-29l-9-6c-7-4-13-9-19-15-3-3-2-5 1-7 3-1 6-1 9 0 10 2 20 5 30 8 21 7 43 15 64 23 9 3 17 5 26 9 7 3 14 6 21 7 5 1 10 1 13-4 4-4 6-10 4-16 0-2-2-4-3-5zm127-506c-7-4-16-4-21 2-6 6-11 11-16 17-3 5-8 8-11 13-6 9-14 16-21 24s-15 17-23 24c-2 2-4 4-6 5-3 1-4 0-4-3v-3c2-10 6-20 11-29l21-39c8-14 15-30 23-45 3-6 8-12 9-20 2-8 1-13-6-17-7-5-18-4-21 6l-3 6c-3 5-7 11-10 17-6 12-13 24-19 36-6 11-13 21-19 32-2 3-4 5-6 9-4 7-9 13-15 19-2 2-5 2-6-1-2-3-2-6-1-10 2-9 5-19 8-28 8-24 17-47 25-71l9-26c2-5 4-10 5-16 2-11-8-20-20-17-2 1-4 2-5 4-3 4-6 8-8 13-6 14-12 29-17 44-6 17-14 33-20 51-4 12-9 23-14 35-1 3-2 6-5 8-4 5-10 4-14-1-4-6-5-12-5-19 1-24 3-49 3-75 0-11 1-24 1-36v-7c-2-8-8-12-15-13-8 0-13 7-14 13-1 7-2 14-3 22-2 18-4 37-5 56-1 13 0 26-2 39-1 9-3 17-4 26 0 15-5 28-13 40-5 6-8 12-11 19-1 4-4 7-7 9-7 4-14 7-19-4-1-2-2-5-3-8-6-9-13-17-20-26-3-3-5-7-7-12-3-9-7-18-15-25-8-5-15-10-25-9-8 0-13 8-11 14 3 5 6 10 10 15 5 7 10 15 11 24 1 7 4 13 9 19 5 8 11 15 14 23 3 10 5 19 5 29 1 8 2 16 6 23 3 5 6 9 9 14 7 11 13 21 22 30 8 9 18 15 31 16 8 1 16 2 24 4 12 2 23 5 33 12 5 5 11 7 18 9 10 3 19 1 27-4 12-7 21-18 29-29s15-22 20-35c4-11 9-22 11-34 3-12 7-23 14-34 5-9 11-17 18-24 10-10 19-21 27-32 6-8 13-16 19-25 5-7 11-15 17-22 2-3 3-6 4-9 2-4 1-11-3-13z"/></svg>