<svg width="64" height="64" viewBox="0 0 1000 1000" xmlns="http://www.w3.org/2000/svg"><path d="M416 850c0-37 0-74 1-111 0-4-2-7-5-9-31-20-61-41-92-61-3-2-4-4-4-7-9-73-18-146-28-219-1-13-3-26-5-39 0-3 1-4 4-5 33-8 66-15 100-20 40-7 80-12 121-12 29-1 58 1 87 5 50 6 101 15 151 27 3 1 4 2 3 5-5 41-10 83-15 124-6 44-11 88-17 132 0 5-2 8-6 11l-90 60c-3 2-4 4-4 7v223c0 5-2 7-5 9-24 13-48 24-75 28-23 4-46 1-68-6-17-6-33-13-49-23-3-1-4-4-4-7 1-37 0-75 0-112zm-66-45v91c0 2 0 4-2 5-20 14-41 25-65 31-19 4-37 0-54-7-15-5-29-13-42-22-3-2-4-4-4-8V705c0-4-1-6-4-9l-60-60c-2-2-3-4-3-7-6-40-12-81-18-121-4-34-9-68-14-102-1-5 0-7 5-8 42-12 84-22 128-28 10-1 19-2 29-3 3 0 4 1 5 4 3 30 6 61 10 91l11 100c3 34 7 67 11 100 0 3 1 5 4 7 19 13 38 26 58 38 4 3 5 5 5 10v88zm0-638C350 74 424 0 517 0c92 0 166 75 166 167s-75 166-167 166-166-74-166-166zm300 650v-79c0-4 1-6 4-7 30-21 61-41 92-62 3-2 4-4 4-7 6-52 12-104 18-155 4-44 9-88 14-132 0-4 1-4 5-4 43 7 84 18 125 32 4 1 5 3 4 7-4 33-7 65-11 98-5 42-9 83-14 125 0 5-2 9-6 12-22 17-43 35-65 52-2 2-3 4-3 8v190c0 4-1 6-4 8-15 10-30 18-46 24-24 9-48 8-71-1-15-7-29-14-43-23-2-2-3-4-3-7v-79zM286 66c15 1 32 4 48 10 3 2 3 3 2 6-34 78-24 150 31 216 2 3 2 4-1 6-77 61-189 22-212-72-17-67 19-133 84-157 14-6 30-9 48-9zm597 137c0 67-53 124-123 130-35 2-66-8-93-29-3-2-3-3-1-6 38-44 55-95 49-152-2-23-8-44-18-64-1-3-1-4 2-6 78-32 168 18 182 101 2 7 2 15 2 26z"/></svg>