<svg width="64" height="64" viewBox="0 0 1000 1000" xmlns="http://www.w3.org/2000/svg"><path d="M523 946c-88 1-160-17-226-55-78-44-104-99-88-194 18-103 70-185 154-247 13-10 20-8 30 3 30 33 62 65 92 98 10 11 16 13 26 0 26-34 54-65 81-98 8-11 15-14 28-6 102 65 159 157 178 276 19 120-57 165-142 198-46 18-95 26-133 25zm-27-505c-87 1-161-74-161-163 0-86 73-159 160-160 88-2 164 72 164 159 1 91-72 164-163 164zm202-89c19 20 38 39 55 58 8 9 13 9 20 0 21-26 42-50 63-75 7-10 13-13 24-5 92 60 138 145 140 254 1 34-18 59-44 79-28 22-60 36-94 45-12 4-16 0-18-11-20-115-78-206-172-275-5-4-11-8-4-16 12-16 20-35 30-54zm-404-6c10 21 18 41 31 57 8 10-2 13-7 17-73 59-123 132-148 223-5 17-9 35-11 53-1 9-3 14-14 11-45-15-87-34-119-70S-2 559 6 518c14-76 53-138 115-185 12-9 20-9 30 3 22 25 47 49 69 74 9 10 14 9 21-1 16-21 34-40 53-63zM765 54c52 1 92 25 114 74s14 95-21 135c-35 39-79 52-130 38-13-4-19-8-19-23 1-53-18-99-52-138-8-9-8-15-2-24 25-40 61-61 110-62zM105 179c0-55 37-104 90-120s110 5 141 50c8 13 11 21-1 35-34 38-50 83-50 134 0 13-4 18-16 22-81 26-165-36-164-121z"/></svg>