<svg width="64" height="64" viewBox="0 0 1000 1000" xmlns="http://www.w3.org/2000/svg"><path d="M742 642c-28-19-60-31-91-45-5-2-11-4-17-7-28-13-39-40-27-69 8-19 15-38 19-58 0-4 1-7 7-6 10 0 16-6 19-15 5-16 10-33 15-49 2-7 2-13 1-20-1-6-5-12-12-13-7 0-9-4-8-10 1-11 1-22 3-33 10-76-42-145-117-156-2 0-4-1-7-2h-29c-4 4-9 2-14 3-73 17-118 83-108 159 1 10 3 21 2 32 0 4-1 6-5 7-11 1-15 9-15 19-1 13 5 25 9 37 1 7 4 14 6 21 3 11 8 20 22 20 4 0 5 2 6 5 4 21 10 42 19 61 7 17 4 33-3 48-4 10-13 14-22 17-29 14-59 25-88 40-9 5-18 10-26 16-14 10-24 22-29 39-9 32-13 64-6 97 4 22 17 36 39 43s44 9 66 11c30 3 60 4 91 5 3 0 6 1 9 2h121c26-2 51-3 76-5 29-1 58-4 86-11 31-7 45-24 47-55 2-30-1-59-9-88-4-18-15-30-30-40zm-457-28c17-9 33-17 50-24 3-2 7-2 10-6-13-6-25-10-36-16-22-10-30-29-22-51 6-16 12-32 15-48 1-4 2-6 6-6 9 0 13-5 15-12l12-39c2-5 2-10 0-15-1-7-7-12-13-10-12 5-11-2-10-9 2-14 4-28 4-43 0-63-58-111-120-100-49 9-85 52-84 102 0 14 1 29 3 43 1 4 3 10-5 9-15-2-20 2-18 17 2 17 8 33 14 49 2 5 6 8 11 8s8 2 9 7c3 16 8 31 14 46 9 23 0 42-22 53-23 10-45 19-67 30-30 13-46 36-49 68 0 3 0 7-2 10v33c2 1 2 3 2 5 3 18 13 31 31 36 10 4 21 6 32 7 49 7 98 6 148 8 6 0 8-2 8-9-2-15 0-30 1-45 6-43 23-78 63-98zm707 38c-3-14-12-24-24-32-22-13-46-21-68-32-20-9-27-27-19-48 3-5 5-8 11-9 18-3 36-7 53-14 13-6 26-13 35-26 3-5 4-9-4-12-10-4-18-10-24-19-14-18-18-40-20-61-3-22-4-43-11-64-21-59-93-89-149-61-40 20-58 56-67 98-5 26-6 53-17 78-6 15-16 26-33 28-8 2-7 5-4 10 5 10 13 17 22 22 21 12 45 17 69 21 3 1 7 1 9 4 9 17 9 44-14 52-8 3-16 7-24 11l3 3c5 2 10 5 15 7 29 15 55 34 64 69 6 23 9 46 9 70 0 10 3 12 13 11 17-1 35 0 53-1 31-1 63-2 93-8 19-4 32-13 35-33 0-1 1-2 2-2v-28c-3-11-5-22-8-34z"/></svg>