<svg width="64" height="64" viewBox="0 0 1000 1000" xmlns="http://www.w3.org/2000/svg"><path d="M624 549c-4-1-7-2-11-3-30 19-66 30-104 30-39 0-75-11-106-31-79 18-140 92-142 171-1 42-2 83-2 125 0 39-3 40 17 46 0 0 256 59 465 0 12-4 18-10 18-24-1-48 0-96-1-144-4-81-57-148-134-170zm-306-1c16-12 34-20 53-29-34-33-56-79-58-130h-4c-38 0-76-1-114 0-46 1-85 14-116 38-15 11-77 70-79 226v77c64 20 129 34 196 42 22 3 30-1 30-26-3-81 26-149 92-198zm680 15c-3-65-35-114-90-147-63-39-134-26-203-27-2 51-24 97-58 131 32 13 59 30 83 54 47 49 66 109 62 176-1 17 3 25 22 23 57-4 113-15 166-36 14-5 20-12 20-27-1-49 0-99-2-147zm-488-32c80-1 145-67 145-147s-64-145-144-146c-82 0-148 65-149 146 0 80 68 148 148 147zM257 380c3 0 10 0 17-2 14-3 28-6 39-12 4-62 37-116 85-149 0-3-1-7-1-11-15-73-86-127-157-119-79 10-138 76-134 150 4 81 67 142 151 143zm448-8c2 1 5 2 7 2 93 26 185-45 184-142 0-76-56-136-134-145-69-7-139 45-155 115 0 3-1 5-1 7 57 33 96 93 99 163z"/></svg>