<svg width="64" height="64" viewBox="0 0 1000 1000" xmlns="http://www.w3.org/2000/svg"><path d="M499 803c-100 0-199-1-299 0-11 0-12-4-13-13-4-63 33-97 82-124 32-17 67-27 100-41 13-6 26-11 37-20 14-11 17-25 8-40-7-12-16-23-24-35-41-61-56-128-39-200 18-72 79-121 154-118 62 1 109 32 133 90 34 78 19 153-25 224-7 11-16 22-24 33-14 21-11 37 11 50 25 16 53 25 80 35 39 14 75 31 104 61 26 26 31 58 28 92 0 8-5 5-9 5-36 1-71 1-107 1H499zm421-88h-68c-4 0-8 0-10-5-29-52-76-80-129-101-23-9-47-18-70-27-9-3-12-6-5-15 44-60 66-126 61-200-3-49-19-94-51-132-6-7-4-10 2-14 65-44 165-26 199 61 27 71 12 138-30 199-5 8-12 16-17 24-9 15-7 28 7 38 18 13 39 20 59 28 33 11 66 24 94 47 29 23 41 53 38 90-1 7-5 7-10 7h-70zM368 576c-17 10-36 15-53 22-26 10-52 21-76 33-34 18-60 44-79 77-3 5-6 7-11 7H8c-7 0-7-3-7-8-5-47 18-78 55-102 22-14 46-24 70-32 20-7 41-15 59-26 21-13 24-26 10-46-14-21-30-40-39-64-22-57-27-114 2-170 37-70 128-91 192-46 6 4 8 6 3 13-45 53-58 115-51 182 5 58 26 110 63 155 1 2 2 3 3 5z"/></svg>