<svg width="64" height="64" viewBox="0 0 1000 1000" xmlns="http://www.w3.org/2000/svg"><path d="M609 795c-3-64-45-119-108-136-3-1-5-2-8-2-25 15-53 24-84 24s-60-9-85-25c-64 14-113 73-114 137-1 34-2 67-2 101 0 31-2 32 14 36 0 0 206 48 374 1 9-4 14-9 14-19-1-39 0-78-1-117zM256 658c13-10 27-16 42-23-27-27-45-64-47-105h-3c-30 0-61-1-92 0-36 1-67 11-93 30-12 10-61 57-63 182v62c51 16 104 27 158 34 17 2 24-1 23-21-2-65 21-119 75-159zm474-106c-51-31-108-21-163-22-2 41-20 78-47 105 25 11 48 24 66 44 38 40 54 88 50 142-1 13 3 19 18 18 46-3 91-12 134-29 11-4 16-10 16-22-1-39 0-79-2-118-2-52-28-91-72-118zm-320 92c64-1 116-53 116-117 0-65-51-117-116-118-65 0-119 52-119 117 0 64 55 119 119 118zM206 523c3 0 9 0 15-1 11-3 22-5 30-10 4-50 30-93 69-120 0-3-1-6-1-9-12-59-69-102-126-95-64 8-111 60-108 120 4 65 54 114 121 115zm731-81c-26-19-57-29-93-30-31-1-62 0-92 0h-3c-2 41-20 78-47 105 15 7 30 13 42 23 54 39 77 94 75 159-1 20 6 23 24 21 53-7 106-18 157-34v-62c-2-125-51-172-63-182zm-188-48c9 5 19 7 31 9 5 2 11 2 14 2 67-1 117-50 121-115 3-60-44-113-108-120-57-7-114 36-126 95 0 3-1 6-1 9 39 27 65 70 69 120zm-261-14c0 2-1 4-1 6 46 26 78 74 80 131 1 0 3 1 5 1 75 21 149-36 149-114-1-61-46-110-109-116-55-6-111 35-124 92zm-21-4c3-21 12-39 23-60-59-5-115-4-176 0 16 22 23 43 26 64 21-10 44-15 69-15 20 0 40 4 58 11zm-65-71h1c41 0 82-21 106-57 10-15 17-31 20-48 1-8 2-16 2-24 0-62-45-114-104-126h-3c-7-1-15-2-22-2-71 0-128 57-128 128s57 129 128 129z"/></svg>