<svg width="64" height="64" viewBox="0 0 1000 1000" xmlns="http://www.w3.org/2000/svg"><path d="M201 552c-36 0-64 29-64 64 0 36 28 64 64 64s64-28 64-64c0-35-29-64-64-64zm0 100c-20 0-36-16-36-36 0-19 16-35 36-35 19 0 35 16 35 35 0 20-16 36-35 36zm602-100c-35 0-64 29-64 64 0 36 29 64 64 64s64-28 64-64c0-35-29-64-64-64zm0 100c-20 0-36-16-36-36 0-19 16-35 36-35s36 16 36 35c0 20-16 36-36 36zm-85-30H288c-5 0-9 4-9 9v4c0 5 4 9 9 9h430c5 0 9-4 9-9v-4c0-5-4-9-9-9zm219-180c0-14-1-29-4-43-5-20-12-41-20-61-5-12-14-19-29-19-167 1-333 1-499 1-10 0-21-1-31 0-7 1-15 2-21 6-19 13-39 26-56 42-28 28-54 59-81 88-2 2-5 3-7 4-30 6-59 15-87 27-24 11-36 30-38 55-3 22-1 45-1 67 0 5 2 7 7 7h57c4-43 36-69 66-72 46-5 82 29 84 72h443c7 0 9-2 10-8 7-39 31-58 59-63 43-8 82 20 88 63 0 3 3 8 6 8h54v-10c0-55 1-109 0-164zm-821 87h-15c-12 0-15-4-12-16 1-2 4-4 7-4 6-1 14 0 20 0 8 0 6 6 7 11 0 5 0 9-7 9zm323-104v8H261c0-2 0-4 1-5 22-24 42-50 70-68 9-6 19-10 30-9h67c8 0 11 1 10 9v65z"/></svg>