<svg width="64" height="64" viewBox="0 0 1000 1000" xmlns="http://www.w3.org/2000/svg"><path d="M196 557c2-19 3-37 4-56h19c8-41 16-81 24-122h-25V254c2 4 3 5 4 7 64 123 128 247 192 370 7 14 15 26 13 42 0 1 0 1 1 3h68v34h262v-35h104V345H602c-1 3-1 6-1 8v148c0 7 2 14 4 20 6 16 12 33 18 50h-29c-6 1-10-1-13-6l-51-72C427 350 324 206 221 63h-2c-3 1-5 3-7 5-24 14-48 28-72 43l21 36c2 4 3 9 3 13 1 69 1 138 1 207v12h-26c6 41 12 81 17 122 3 0 6 1 9 1v54c-41 9-67 44-62 85 4 34 34 63 68 66 37 2 70-20 80-55 5-17 4-34-3-51-10-23-28-37-52-44zm475-142h122v103H671V415zM538 554c-30 18-60 35-90 52l-2-1c16-36 33-71 50-108l42 57zm-73-89c-15 34-29 69-44 105-11-19-20-36-31-54 25-17 49-35 73-52l2 1zm-15-30c-23 15-46 30-68 45-1-1-1-1-2-1 12-30 23-60 36-91 12 16 23 31 34 47zm-60-72c-12 31-23 61-35 94-10-19-18-35-27-53l60-42c1 1 1 1 2 1zm-57-92c13 19 25 37 38 55-19 12-37 24-57 36 7-31 13-59 19-91zm-41 61c-11-20-21-38-31-57 16-11 33-21 51-33-7 31-13 60-20 90zm-36-183c11 20 22 39 33 58-17 11-35 22-54 35 7-32 14-62 21-93zm-24-36c-6 30-11 58-17 88-11-20-21-39-30-57 15-10 30-20 47-31zm-49 78c8 14 18 26 17 44-1 43 0 86 0 129v14h-17V191zm713 603c-2-26-19-42-44-47-6-1-13-1-19-1H477c-16 0-33 0-49 2-36 6-53 27-54 63v70c0 27 13 44 39 51l21 6h414c30-7 46-28 48-58 2-28 2-57 0-86zm-69 73H444v-51h383v51z"/></svg>