<svg width="64" height="64" viewBox="0 0 1000 1000" xmlns="http://www.w3.org/2000/svg"><path d="M936 390l-24-102-4-20c-5-20-10-40-14-60-3-12-10-22-25-19-13 3-16 13-13 25 3 14-6 12-14 10-87-15-173-30-260-45-13-3-23-1-34 8-19 15-101 91-142 130-11 8-14 16-9 29 18 58 35 116 53 174 1 5 1 10 7 13 4-6 2-13 2-19 1-34 0-69 1-104 0-32 27-51 58-43 22 6 32 21 33 47 0 42 0 85-1 127 0 10 3 16 12 18 2 1 3 1 4 1 24 3 48 6 72 11 14 3 24 0 35-9 70-55 140-109 210-164 7-5 13-11 17 3 3 12 10 20 23 16 15-3 16-16 13-27zM164 661h-63c-36 1-40 9-38 53 1 20 9 28 29 29h50c49 0 53-5 51-54-1-19-9-28-29-28zm658-62H565c-11 0-15 5-14 15v35c-2 27-21 44-48 43-26 0-43-18-44-44 0-10 0-21 1-31 0-13-4-20-18-19-11 1-22 1-33 1-27 0-27 0-27-26V398c0-15-4-21-20-21-44 1-88 1-131 0-11 0-19 4-25 13L71 561c-6 7-9 15-8 24v47c-1 12 3 18 16 17h64c30-1 57 0 62 38 7-2 9-6 11-9 23-39 57-57 101-52 43 5 72 29 86 70 4 12 10 16 22 16 42-1 84-1 125 0 14 0 21-4 26-18 15-41 46-65 89-68 46-4 83 16 100 59 10 25 23 27 46 28h10c10-1 16-6 16-16 0-28-1-55 0-83 0-11-4-15-15-15zm-507-49h-69c-24 0-48 1-71 0-14 0-18-7-10-17 26-33 52-65 78-98 3-3 7-4 12-4 21-1 41 0 62 0 9 0 12 4 12 13v93c1 10-4 14-14 13zm-10 89c-50 0-92 42-92 92-1 50 41 92 93 91 50 0 91-41 91-91 0-51-42-92-92-92zm0 123c-19 0-33-14-32-33 0-18 15-32 34-31 17 0 31 16 31 32 0 19-15 33-33 32zm368-122c-52 0-91 39-91 91s39 92 92 92c51-1 90-40 91-92 0-52-39-91-92-91zm1 124c-17 0-33-16-34-33-1-16 15-32 32-33s34 15 34 32c1 17-15 34-32 34zM471 642c0 26 12 38 35 38 21 0 33-12 33-37V415c0-25-12-37-34-37-21-1-34 12-34 36v228z"/></svg>