<svg width="64" height="64" viewBox="0 0 1000 1000" xmlns="http://www.w3.org/2000/svg"><path d="M406 479c0-74 0-148 1-222 0-13 1-27 5-40 7-22 20-32 43-32h417c13 0 23 8 23 19 1 12-8 21-22 21h-50c-14 0-22 8-22 22s8 21 23 21h83c5 0 10 1 15 2 9 2 16 12 16 20-1 10-9 18-20 19H728c-16 0-24 6-25 19-1 15 7 25 23 25h160c14 0 24 8 24 21-1 11-10 19-24 19h-46c-16 0-25 9-25 22 0 15 9 23 25 23h73c15 0 25 8 25 20s-11 20-26 20H768c-14 0-22 8-22 21-1 15 6 22 22 22 28 0 57 1 85 0 8 0 10 3 10 10v102c0 45-38 83-83 84-10 0-21 2-28-2-8-4-3-16-4-25-10-71-75-120-147-113-59 5-109 51-119 109-1 8-1 15-1 23 0 6-2 8-8 8-19 0-38-1-56 0-9 0-10-3-10-11V555c-1-26-1-51-1-76zm-32 143c-11-12-24-22-37-30-44-26-110-20-149 13-33 27-49 62-50 104 0 6-3 8-9 8-10-1-20 0-30 0-19-1-34-13-36-31-2-16 9-32 27-36 7-2 7-5 7-11V516c0-14 2-27 6-40 15-43 29-86 44-130 13-40 42-63 84-63 45-1 91 0 136 0 5 0 8 0 8 7v328s0 1-1 4zM244 457h82c7 0 10-1 10-10V333c0-7-2-10-10-9h-99c-20 0-34 9-41 29-10 31-21 63-31 94-3 8-1 10 7 10h82zm132 253c0 57-47 104-104 104-56 1-104-47-104-103 0-57 48-105 104-105 57 0 103 47 104 104zm-147 1c0 24 19 42 43 43 24 0 43-19 43-44 0-24-19-42-43-42-25 0-43 17-43 43zm385 103c-55 0-104-45-104-103 0-61 48-105 105-104 55 0 103 41 103 104 1 59-48 103-104 103zm-43-104c0 25 19 43 43 44 24 0 43-19 43-44 0-24-18-43-43-42-24 0-43 18-43 42z"/></svg>