<svg width="64" height="64" viewBox="0 0 1000 1000" xmlns="http://www.w3.org/2000/svg"><path d="M862 745H483c-52 0-79 25-79 61v74c0 38 26 58 79 58h384c39 0 61-26 61-75v-52c0-36-29-66-66-66zm-99 123h-79c7-7 12-16 12-27s-5-20-12-26h79c-7 6-12 16-12 26 0 11 5 20 12 27zm-203-53h79c-7 6-12 16-12 26s5 20 12 27h-79c7-7 12-16 12-27s-5-20-12-26zm-81 53c-3 0-5-3-5-5v-43c0-3 2-5 5-5h36c-7 6-12 16-12 26s5 20 12 27h-36zm379-5c0 2-2 5-5 5h-45c7-7 12-16 12-27s-5-20-12-26h45c3 0 5 2 5 5v43zM258 621c6-8 9-18 9-31 0-9-7-17-17-17s-18 8-18 17v7c-1 3-6 4-8 2-4-2-8-2-12 0l-3 4c-2 1-5 1-7 0-4-3-6-8-6-16 0-15 16-19 18-20 9-1 15-8 15-17v-45c0-2 2-5 5-5h10c3 0 5-1 5-4l23-112c0-3-2-6-5-6h-15c-3 0-5-2-5-5V272c0-6 7-7 9-3l200 385v16c0 3 3 5 5 5h60c3 0 5 2 5 5v25c0 3 2 5 5 5h253c2 0 5-2 5-5v-25c0-3 2-5 5-5h94c3 0 5-2 5-5V348c0-3-2-5-5-5H636c-3 0-5 2-5 5v162l20 54c1 3-1 6-5 6h-27c-2 0-4 0-5-2L253 65c-2-3-4-3-7-2l-72 44c-2 1-3 4-2 7l21 37c1 1 1 2 1 3v219c0 3-2 5-5 5h-15c-3 0-5 3-5 6l16 112c0 3 3 4 5 4h4v34c0 2-1 4-3 5-15 7-30 22-30 48 0 17 5 29 14 38 2 2 2 5-1 7l-80 69c-3 3-1 9 3 9h12c1 0 2 0 3-1l80-69c2-2 4-2 5-1 7 2 14 3 21 3s15-1 21-4c2-1 4-1 5 0l87 71c1 1 2 1 4 1h25l-101-82c-2-2-2-4-1-7zm443-203c0-3 2-5 5-5h112c3 0 5 2 5 5v95c0 3-2 5-5 5H706c-3 0-5-2-5-5v-95zm-170 85l34 46c2 2 1 6-1 7l-76 44c-4 2-9-2-7-7l42-89c1-4 6-4 8-1zm-42-25l-34 82c-2 4-7 4-9 0l-23-41c-2-2-1-5 1-6l58-41c4-3 9 1 7 6zm-38-84l29 40-58 38c-4 3-9-1-7-6l27-71c2-4 7-4 9-1zm-36-19l-26 70c-2 5-8 5-10 1l-20-39c-1-2 0-5 2-6l46-32c4-3 10 1 8 6zm-68-25l14-68c1-5 6-6 9-2l28 41c1 2 1 5-2 7l-42 27c-4 2-8-1-7-5zm-8-97l-14 65c-1 5-8 6-10 1l-22-41c-1-3-1-5 2-7l36-24c4-2 9 1 8 6zm-72-25l15-68c1-5 7-6 10-2l24 43c2 3 1 6-1 7l-40 26c-4 2-9-1-8-6zm-49-88l33-22c4-2 9 1 8 5l-12 63c-1 4-7 5-9 1l-22-41c-1-2 0-5 2-6zm-6 65c0-5 7-7 9-2l7 14c1 1 1 1 1 2v154c0 3-2 5-5 5h-7c-3 0-5-2-5-5V205zm134 523H77c-3 0-5 2-5 5v25c0 2 2 5 5 5h25c2 0 5 2 5 5v42c0 3-3 5-5 5H77c-3 0-5 2-5 5v25c0 3 2 5 5 5h269c3 0 5-2 5-5v-25c0-3-2-5-5-5h-24c-3 0-5-2-5-5v-42c0-3 2-5 5-5h24c3 0 5-3 5-5v-25c0-3-2-5-5-5z"/></svg>