<svg width="64" height="64" viewBox="0 0 1000 1000" xmlns="http://www.w3.org/2000/svg"><path d="M907 428c-10-2-20-3-31-3h-51c-6 0-14 1-14-8-1-13-5-29 1-38 17-25 7-52 10-78 1-17-8-23-24-22h-14c-20-2-27 8-26 26 3 25 0 49 10 75 10 27 3 60 1 91 0 8-7 13-16 13s-16-5-18-14c-1-9-1-18-1-26 2-15-3-20-18-19-22 1-45 0-68 0-10 1-14-2-14-13V160c0-7 1-12 10-14 20-3 16-19 15-32-1-14-11-16-22-16H225c-12 0-22 2-23 17 0 14-3 29 17 31 10 1 10 6 9 14l-27 237c-2 14-1 22 16 22 49 0 98 1 148-1 48-2 95-2 125 45 3 4 8 7 12 11 6 7 18 11 5 24s-17 1-22-5c-29-35-62-60-111-48H171c-7 0-12 3-16 7-22 27-50 49-74 74-2 3-7 5-6 10 3 10 34 28 47 26 18-4 7-18 8-27 3-37 26-52 61-37 4 2 9 3 12 6 11 9 15 6 21-6 19-41 53-47 77-11 14 21 24 18 42 10 34-14 55 0 58 37 1 4 1 7 0 11-1 13 1 20 17 16 4-1 8 0 12 1 37 5 53 30 34 62-12 20-9 28 10 38 17 9 29 24 22 46-3 9 1 11 9 11 25 0 51 2 71-20 6-6 8-8 4-16-19-36-7-57 33-62 9-1 13-2 15-13 5-44 22-53 64-35 7 3 10 3 14-4 26-37 47-37 73-1 5 7 8 9 16 5 40-19 58-8 64 36 0 4-2 9 3 11 6 1 8-3 9-7 13-28 26-55 40-86h-55c-13 0-23-3-24-17 0-16 10-20 23-20 21 0 42-1 62 0 11 1 15-4 18-13 8-24-3-44-28-49zm-506-39c-47 0-94 1-141 2-13 0-18-4-17-18 6-56 10-113 16-169 2-28 11-35 39-35 26-1 53-1 79 0 30 0 39 9 39 40v78c0 29 0 57 1 85 0 11-2 17-16 17zm200-1c0 25-7 32-33 33-18 0-37 0-55-1-40 0-57-16-57-56l1-140c0-27 6-33 32-33h83c21 1 29 9 29 30 1 28 0 57 0 85 0 27 1 54 0 82zM447 676c-18-5-23-19-22-34 1-9 9-17 14-25 11-21 7-28-17-29h-8c-30 1-40-8-39-38-1-9 5-21-6-28-11-6-20 4-30 8-1 0-2 1-4 2-22 13-38 8-49-16-4-10-7-22-19-22-13-1-17 12-22 21-15 28-27 32-53 15-8-5-16-13-26-8-11 5-8 16-8 26-1 35-7 41-43 40-9 0-21-2-26 8s3 18 7 26c1 2 3 5 5 7 12 18 6 36-13 46-10 5-25 8-25 22-1 15 15 17 25 23 1 1 2 1 3 2 16 8 21 28 11 43-4 7-9 13-13 21-6 12 0 18 12 20 6 1 12 1 18 1 30-1 38 8 38 38 0 11-4 24 8 30 10 5 19-4 28-9 25-16 39-12 52 14 5 9 9 21 20 21 14 1 17-13 22-22 13-25 28-29 52-13 3 2 7 4 10 6 17 8 24 4 26-14v-12c-1-32 7-40 39-39 10 0 22 3 28-7 8-11-3-21-8-30-15-24-12-38 14-51 9-5 22-9 22-22 0-12-13-18-23-21zM266 782c-45 0-83-38-84-84 0-45 37-84 83-85 46 0 85 38 85 84 0 45-39 85-84 85zm626-63c-22-12-24-21-11-44 1-2 2-5 4-7 8-14 2-20-12-22-4 0-9 0-13 1-20 0-28-8-28-28 0-9 4-21-6-27-10-5-18 4-25 8-18 11-30 8-40-11-2-4-4-7-6-11-8-12-16-12-23 0-3 4-5 8-7 13-9 16-23 20-39 9-8-5-16-13-26-7-9 5-5 16-5 24 0 23-7 31-30 30-9-1-21-4-26 7-4 8 3 16 8 23 12 17 8 31-10 40-8 5-20 7-19 19 0 11 11 13 20 18 17 9 20 23 9 40-4 7-13 15-8 24 5 10 17 6 26 6 22 0 30 8 29 31 0 17 1 22 6 24 10 5 17-2 24-7 19-12 31-8 42 12 4 8 7 18 18 17 10 0 12-10 16-17 12-21 22-24 42-12 8 5 15 13 24 7 10-5 6-16 6-24 0-23 7-31 32-31 8 0 17 3 22-5 6-9-1-17-6-24-12-20-9-31 12-42 7-4 18-7 18-18-1-9-11-12-18-16zm-148 84c-38 0-68-29-68-67-1-38 29-68 67-69 36 0 68 31 69 68 0 37-31 68-68 68zm25-546c2-1 3 1 4 2 8 7 17 9 26 5s14-14 12-24c0-3 0-4 3-5 10-3 15-10 14-21 0-2 0-3 1-4 4-4 6-8 7-13 0-1-1-3 1-3h3c8 0 14-6 14-14s-6-14-14-14c-7 0-13 6-14 13-1 0-2 0-3-1-11-3-19 1-23 13-1 2-2 3-5 2-10-4-21 1-24 12-1 2-1 5-1 8-11-1-19 1-25 10-5 8-5 16 0 24 5 9 14 12 24 10z"/></svg>