<svg width="64" height="64" viewBox="0 0 1000 1000" xmlns="http://www.w3.org/2000/svg"><path d="M935 186c-2-14-7-28-14-42-22-44-67-75-117-81-11-1-599-1-610 1-17 1-36 8-53 16-39 21-68 61-76 106-2 9-2 22-2 316v306l2 10c14 61 57 104 118 117l9 3h616l9-3c61-13 104-56 118-117l2-10V502c0-294 0-307-2-316zm-455 35c4-4 7-4 22-4 8 0 20 1 26 2 32 4 58 12 87 26 28 14 46 27 70 50 22 23 34 39 47 66 19 36 29 80 31 128 1 16 0 20-4 25-7 9-22 7-28-3-2-3-2-6-3-19 0-20-2-33-5-49-11-61-40-109-86-144-39-30-79-44-132-47-18-1-21-2-25-5-7-6-8-19 0-26zm111 121c-19-12-47-20-72-22-9-1-14-3-18-7-5-6-5-14-1-21 5-7 12-8 35-5 57 8 100 35 129 77 17 25 27 53 30 83 1 11 1 32 0 35s-5 8-9 9c-3 2-11 2-15 0-7-4-10-10-10-25 0-25-6-50-17-70-12-23-30-41-52-54zm32 124c-6 5-16 6-22 1-5-4-6-7-7-17-1-13-4-22-7-30-9-18-23-27-48-30-11-1-15-2-18-7-7-8-5-21 5-26 3-2 5-2 13-1 5 0 12 1 16 2 18 3 32 10 44 22 16 15 24 32 28 58 3 16 2 23-4 28zm139 246c-6 18-33 51-52 66-17 13-29 18-45 18-13 1-19 0-36-7-131-54-236-135-319-246-43-58-77-118-99-181-13-36-14-52-3-70 5-8 24-28 39-39 24-18 35-24 44-26 6-1 17 0 24 2 3 1 8 4 11 6 18 12 67 75 83 106 9 19 12 32 10 42-3 10-8 16-31 34-8 7-17 14-18 16-3 5-6 15-6 22 0 15 10 44 23 65 11 17 29 39 47 56 22 19 41 33 62 43 27 14 44 17 56 12 3-2 7-4 8-4 1-1 8-10 16-20 15-19 18-22 29-26 13-4 26-3 40 4 10 5 33 19 47 29 19 14 60 47 66 54 9 12 11 27 4 44z"/></svg>