<svg width="64" height="64" viewBox="0 0 1000 1000" xmlns="http://www.w3.org/2000/svg"><path d="M866 332H368s6-3 12-5c163-44 325-88 487-132 7-1 11-9 10-16-10-35-20-70-29-105-2-7-6-12-9-12-2 1-3 1-5 2l-276 75c-143 38-286 77-430 116-6 1-8 4-8 10v659c0 8 6 13 13 13h734c7 0 13-5 13-13V467v-13s-1-6-1-13v-95c0-8-5-14-13-14zm-136 28h82c7 0 13 5 13 13v55c0 7-6 13-13 13H703c-7 0-11-6-9-13 7-19 13-37 19-56 2-7 10-12 17-12zm-201 1c6-5 19-1 28-1h65c7 0 13 1 12 3v3c-8 23-16 46-23 69-2 4-3 6-8 6H502c-1-1 0-6 2-13 5-14 9-27 14-41 3-9 5-21 11-26zm-87 11l-19 56c-2 7-10 13-17 13h-82c-8 0-12-6-9-13l9-27c4-12 7-24 12-36 1-2 4-5 6-5 30-1 60-1 91-1 7 0 11 6 9 13zm360-258l15 53c2 7-2 14-9 16-14 4-27 8-40 11-16 4-31 9-46 12-3 1-7 0-8-2-13-18-25-37-38-56-4-6-2-13 5-14l106-29c7-2 14 2 15 9zm-219 46c3 0 8 1 9 3 13 18 25 37 38 56 4 6 2 12-5 14-27 7-53 14-80 22-7 1-15-2-19-8-11-16-22-33-33-49-4-6-2-13 5-15 13-3 26-7 39-10 15-4 31-9 46-13zm-174 52c12 18 25 37 38 57 4 5 1 12-6 14-16 4-31 8-47 13-13 3-26 7-39 10-2 1-7 0-8-2-14-22-29-43-43-65v-1c-1-1 5-3 12-5 29-8 57-16 86-23 2-1 6 0 7 2zm-193 93c22 0 41 19 40 42 0 21-19 40-41 40-22-1-40-20-40-41 0-23 18-41 41-41z"/></svg>