<svg width="64" height="64" viewBox="0 0 1000 1000" xmlns="http://www.w3.org/2000/svg"><path d="M883 602c-14 3-28 6-43 7-18 2-36 3-54 4-6 1-8 2-11 7-53 108-125 201-214 282-13 12-27 22-43 29-22 9-43 9-64-2-26-13-47-32-68-52-51-50-90-109-123-172-46-88-78-180-103-275-19-75-33-151-43-228 0-2 0-5-1-8h149c2 12 3 24 5 36 18 134 49 266 109 389 30 61 67 118 111 171 1 2 3 4 5 6 61-63 110-134 150-212l-2-2c-71-38-116-98-140-174-20-62-25-125-9-189 13-54 41-99 89-128 39-24 81-31 126-28 29 2 57 9 83 23 44 24 69 63 81 110 5 17 6 35 9 53 0 2 1 5 1 8v35c-1 12-2 24-4 36-4 32-12 62-24 92-2 4-3 6-8 6-16 1-33 3-49 1-27-3-50-15-68-37-4-4-4-7-3-12 10-34 16-69 14-105-1-19-4-37-13-53-18-31-58-35-82-8-9 11-14 23-17 36-9 36-7 72 2 108 12 52 38 94 85 122 53 31 109 33 168 19l-1 105z"/></svg>