<svg width="64" height="64" viewBox="0 0 1000 1000" xmlns="http://www.w3.org/2000/svg"><path d="M817 199l-2 1s-19 19-34 55c0 0-17 51-24 167 0 0-1 120-36 192 0 0 27 11 20 53 0 0-4 48-40 43 0 0-19-4-22-40l-89 59s20 50-19 83c0 0-32 26-52-17 0 0-18-46 21-77l-19 4s-17 17-20 39c0 0-1 12-4 17 0 0-6 6-62 6 0 0-76-2-104-10 0 0-11 33-34 31 0 0-33-1-28-59 0 0-15-14 4-38 0 0 23-27 92-57 0 0 42-18 51-24 0 0 18-7 25-34 0 0-62 7-90-3 0 0-29-6-52-23 0 0-16-5-38-91 0 0-23-81-13-110 0 0 23-80 221-124 0 0 11-68 82-86 0 0 25-1 28 2 0 0 2 2 2 7l203 3C708 102 609 62 500 62 258 62 63 258 63 500s195 438 437 438 438-196 438-438c0-117-46-223-121-301zm-259-31s-57 22-56 86c0 0 170 0 185 16 0 0-170-5-189 0 0 0-14 61-17 72 0 0 1 20-3-62 0 0 2-12-22-7 0 0-103 19-158 78 0 0-31 33 14 42 0 0 42 8 87 7l38 143-19-141 15-1 29 133-13-134 16-3 25 130-10-133 14-2 22 125-3-128 14-4 18 126 1-129 17-4 12 127 7-130 17-5 5 136 10-140 18-7 1 138 16-143 19-8-5 142 22-148 18-12-7 153 35-177s24-108 77-114c0 0-46 30-56 106 0 0-14 88-18 165 0 0-7 93-25 129 0 0-31 15-41 68l-86 57s1-8-18-10c0 0 64-38 95-66 0 0 20-23 23-59 0 0 4-33 9-40 0 0-85 31-208 35 0 0 6 46-30 64 0 0-111 55-122 66 0 0-15 12-14 17 0 0 1 20 72 26 0 0 67 5 104-8 0 0-5 3-8 22 0 0-75 7-140-4 0 0-51-6-59-24 0 0-6-16 41-43 0 0 14-12 88-47 0 0 27-12 37-36 0 0 6-30 10-36 0 0-107 21-147-22 0 0-20-22-41-132 0 0-11-47 8-65 0 0 41-63 207-95 0 0 8-84 69-90zm5 10s226 3 234 3c0 0-24 6-46 25 0 0-184-9-200-7 0 0-15-1-7-9 0 0 10-9 19-12zm-30 30s-4 4 34 4l179 8s-21 37-31 80h-10s-57 34-111 47c0 0-104 36-224 34 0 0-88 1-55-23 0 0 50-53 146-70l13 83 8-3 29-83s94-6 194 2c0 0 8-32-34-39 0 0-48-12-148-9 0 0 2-21 10-31zm-31 383s95 3 163-24c0 0 3 40-36 71 0 0-29 31-108 71 0 0-26 17-65 22 0 0-76 7-111-11 0 0-11-5 95-53 0 0 6 26 24 23 0 0 27-6 20-54 0 0 16-10 18-45zm73 146c-12-16-29-4-29-4-18 13-18 39-18 39 3 20 13 27 13 27 18 12 32-9 32-9 19-33 2-53 2-53zm-16 50s-12 2-13-9c0 0 11 1 12-14 0 0 1-11-10-13 0 0 24-20 27 9 1 0 2 26-16 27zm164-154c-16-17-29 10-29 10-10 32 3 47 3 47 13 16 26-4 26-4 19-32 0-53 0-53zm-4 49s-11 6-15-5c0 0 4-1 5-11 0 0 2-11-7-13 0 0 11-22 22-5 0 0 11 21-5 34z"/></svg>