<svg width="64" height="64" viewBox="0 0 1000 1000" xmlns="http://www.w3.org/2000/svg"><path d="M999 642l-18-87c-15-68-29-136-43-204-1-6-3-9-9-9-24 1-48 1-72 0-6 0-9 3-11 8-15 35-30 69-45 104-26 59-52 119-78 178-3 7-5 14-8 21 2 0 3 1 3 1h73c3 0 7-4 8-7 5-10 8-21 13-31 1-3 3-6 6-6h98c2 8 3 16 5 23 5 26 1 21 25 21h54c-1-5-1-8-1-12zm-162-93c14-37 28-74 42-110h3c7 36 14 73 22 110h-67zm-137-43c-10-11-23-20-35-28-16-9-32-17-48-27-9-5-16-13-13-24 2-12 10-19 21-21 22-6 43-7 64 2 8 4 16 8 26 12l3-9c3-17 5-33 9-50 2-7 0-10-7-12-42-14-84-17-126-5-25 8-46 21-61 43-19 28-18 73 2 100 15 19 36 30 57 41 11 6 23 12 32 20 16 15 11 37-10 44-25 8-50 6-75 0-13-3-25-7-39-12-4 20-9 40-13 60-1 6 3 8 7 9 22 8 44 13 67 14 53 3 98-15 134-55 27-29 32-71 5-102zM408 343c-5 0-7 2-7 7-4 23-8 46-11 69l-28 175c-3 19-6 39-9 59 4 1 7 1 10 1h63c8 0 11-2 11-10 1-7 3-14 4-21l39-241c2-13 4-25 6-38-3-1-4-1-5-1h-73zm-38 0h-80c-6-1-10 1-12 8-22 66-45 132-67 198l-3 9c-7-34-25-62-46-88-32-40-60-63-74-65v3c21 79 42 159 63 239 1 6 5 7 10 7h76c5 0 8-2 11-7 37-93 74-185 111-277 4-8 7-17 11-27zM194 506c-7-41-15-82-24-122-5-25-21-39-45-40-41-1-81 0-121 0-1 0-1 0-4 1 83 34 156 76 194 161z"/></svg>