<svg width="64" height="64" viewBox="0 0 1000 1000" xmlns="http://www.w3.org/2000/svg"><path d="M847 154H153C69 154 0 223 0 308v384c0 85 69 154 153 154h694c84 0 153-69 153-154V308c0-85-69-154-153-154zM219 411c23 0 46 0 68 1 14 0 23 8 26 22 5 23 10 46 14 70-22-49-63-73-110-92 1 0 2-1 2-1zm132 176h-43c-3 0-5 0-6-4-12-45-24-90-35-135-1-1 0-1 0-2 8 1 24 14 41 37 12 15 22 31 26 50l2-5c13-38 26-75 38-113 2-3 4-4 7-4h45c-2 6-4 11-6 15-21 53-42 105-63 157-1 3-3 4-6 4zm138-154l-22 137c-1 4-2 8-2 12-1 4-2 6-7 5h-41c1-12 3-23 5-34l15-99 7-39c0-3 1-4 4-4h44c-1 8-2 15-3 22zm45 159c-13 0-25-3-37-7-3-1-5-2-4-6 2-11 5-22 7-33 8 2 15 5 22 6 14 4 29 5 43 0 11-4 14-16 5-24-5-5-12-9-18-12-12-6-24-12-32-23-11-16-12-41-1-57 8-13 20-20 34-24 24-7 48-5 72 2 3 2 5 3 4 8-2 9-4 18-6 28 0 1-1 3-1 5-6-3-10-5-15-7-12-5-24-5-36-1-6 1-11 5-12 12s2 11 7 14c9 5 19 9 28 15 7 5 14 9 19 16 16 17 13 41-2 58-21 22-46 32-77 30zm219-5c-14 0-11 3-15-12 0-4-1-8-2-13h-56c-1 0-3 2-3 4-3 5-5 12-7 17-1 2-3 4-5 4-14 1-27 0-41 0h-2c1-4 3-8 5-12 14-34 29-67 44-101 8-20 17-39 25-59 1-3 3-4 6-4h41c4 0 5 1 6 5 7 38 15 77 23 116 4 16 7 32 11 49v7c-10-1-20 0-30-1zm-38-122l-24 63h38c-4-21-9-42-13-63h-1z"/></svg>