<svg width="64" height="64" viewBox="0 0 1000 1000" xmlns="http://www.w3.org/2000/svg"><path d="M715 474c2 0 3 1 3 1h73c3 0 7-4 8-7 5-10 8-21 13-31 1-3 4-6 6-6h98c2 9 3 16 5 23 5 26 1 21 25 21 18 1 35 0 54 0-1-5-1-8-1-12l-18-87c-15-68-29-136-43-204-1-6-3-8-9-8h-72c-6 0-9 2-11 7-15 35-30 69-45 104-26 59-52 119-78 178-3 7-5 14-8 21zm164-214h3c7 36 14 73 22 110h-67c14-37 28-74 42-110zM494 471c22 8 44 12 67 13 53 3 98-15 134-54 27-30 32-72 5-103-10-11-23-19-35-27-16-10-32-18-48-28-9-5-16-13-13-24 2-12 10-18 21-21 22-6 43-7 64 3 8 3 16 7 26 11l3-9c3-17 5-33 9-50 2-7 0-10-7-12-42-14-84-17-126-5-25 8-46 21-61 43-19 28-18 73 2 100 15 19 36 30 57 41 11 6 23 12 32 20 16 15 11 37-10 44-25 8-50 6-75 0-13-3-25-7-39-12-4 20-9 40-13 60-1 6 2 8 7 10zm-141 4h74c7 1 10-2 11-9 0-8 2-15 3-22l39-241c2-13 4-25 6-38-3-1-4-1-5-1h-73c-5 0-7 2-7 7-4 23-8 46-11 69l-28 175c-3 19-6 39-9 60zm-116 0c6 0 9-2 11-7 37-92 74-185 111-277 4-8 7-17 11-27h-80c-6-1-9 1-12 8-22 66-45 132-67 198l-3 9c-7-34-25-62-46-88-32-40-60-63-74-65v3c21 79 42 159 63 239 2 6 5 7 10 7h76zm-43-148c-7-41-15-82-24-122-5-25-21-39-45-40-41-1-81 0-121 0-1 0-1 0-4 1 83 34 156 76 194 161zm170 317c-2 1-4 2-6 4 0 0 0 1 1 1 2 0 4 0 6-1 36-14 73-26 110-36 45-11 90-17 136-19 61-3 122 3 182 15 6 2 7-1 7-6 1-9 1-19 2-28v-13c-155-18-300 15-438 83zm-113 47c-30 1-59 1-89 0-5 0-7 2-7 7v132c0 4 0 9 6 9 30-1 60 0 90-1 1 0 5-2 5-3v-29h-56c-3 0-6 0-6-4 1-7 0-14 0-22h56c5 0 7-1 7-6v-18c0-5-2-7-7-7-10 1-21 1-32 1h-23v-26c3 0 4-1 6-1 16 0 33 0 50 1 5 0 7-2 6-7v-19c1-5-1-7-6-7zm536 41c-16 6-26 18-30 33-13 42 13 77 62 77 18-1 39-8 49-31s8-45-8-65c-15-19-48-25-73-14zm44 71c-3 7-10 10-17 10-8 0-15-3-18-11-2-5-5-10-5-17 1-8 2-12 4-17 3-7 10-11 18-11 8-1 15 2 18 10 6 12 6 24 0 36zm126-75c-8 1-14 5-21 8-2 1-4 3-6 4 0-3 0-6-1-9-11 0-22-1-33 0-1 0-4 3-4 5v102c10 0 21 0 31 1 5 0 7-2 7-7v-55c0-9 8-16 18-16 9 0 12 3 12 14v57c0 5 1 7 6 7 9-1 18 0 27-1 2 0 5-3 5-5 0-24 1-48 0-72s-18-38-41-33zm-538 3c-23-9-50-3-66 16s-19 48-7 69c12 20 35 30 61 25 13-2 26-6 37-16l-12-21c-31 15-52 12-54-10h53c20 0 21 0 18-20s-11-36-30-43zm-40 39c2-11 11-19 22-18 9 0 14 6 14 18h-36zm269-39h-22c0-11 0-21-1-30 0-2-2-6-3-6h-33v36h-16c-1 5-1 10-1 15-1 13-1 13 11 13 2 1 3 1 4 1v10c0 16-1 33 1 50 1 12 8 19 20 21 15 3 30-1 43-8 2-1 3-3 3-4-2-8-5-16-7-24-3 1-5 2-6 3-12 5-18 2-18-11v-38c10 0 17 0 25 1 5 0 6-2 6-7v-15c1-6-1-8-6-7zm-131 29c9-3 17-3 26 0 2 1 5 0 6-1 4-7 7-14 12-23-9-3-17-7-26-8-48-7-80 26-71 72 9 48 68 50 96 30l-13-24c-5 1-10 3-15 5-13 3-26-5-30-17-4-15 2-29 15-34zm-199-81c-11 0-22 0-33 1-1 0-4 3-4 5-1 49 0 99-1 148 0 5 3 6 7 6 8 0 15-1 23 0 7 0 9-2 9-9V688c0-3 0-5-1-9zm426 50c-14-4-25 2-33 14-3-5 2-12-7-12-9-1-18-1-27 0-2 0-5 3-5 5-1 32-1 64-2 96 0 5 2 6 7 6h25c6 1 7-2 7-7 0-17 1-33 0-49 0-6 3-9 7-12 8-6 17-5 28-3 1-12 3-23 4-34 0-1-2-4-4-4z"/></svg>