<svg width="64" height="64" viewBox="0 0 1000 1000" xmlns="http://www.w3.org/2000/svg"><path d="M891 890C678 757 625 573 613 512c-2-12-13-21-25-21h-32c-1 4-2 8-3 11-2 5 0 5 4 5h32c-21 29-40 56-60 84l-1-1c4-18 8-37 13-55 2-5 0-6-5-5h-17c-3 0-4-1-3-4 3-12 6-23 10-35h-41c-4 14-7 27-11 41-3 8 0 8 7 8h52c-33 48-66 94-99 140l-1-2c7-30 13-61 21-91 2-9-1-10-8-9h-29c-5 0-6-2-5-6 7-27 15-54 22-81h-22c-12 0-23 9-25 21-12 61-65 245-278 378-22 14-12 48 13 48h756c26-1 35-34 13-48zM444 244l9 3c17 4 21 9 17 27-3 15-8 30-12 44-5 14 1 23 15 21 9-1 20-3 29-7 42-20 69-54 86-96 11-27 16-56 10-85-12-52-58-87-115-89-11 2-22 3-32 5-45 11-73 47-74 94-1 40 23 70 67 83zm102 130c-16 24-24 50-18 80 1 6 3 12 6 18 5 7 11 7 17 0 6-8 12-16 18-23 8-8 12-8 21-1l4 4c24 18 48 19 68 4 25-18 33-46 22-73-2-6-6-12-9-18-22-30-57-41-89-28-17 8-30 21-40 37zm-240 71c24 17 53 15 80-6 2-1 3-2 5-4 10-9 15-9 24 1 8 9 15 18 22 27 7 8 15 9 19 0 4-7 7-14 8-21 7-35-3-66-21-94-12-19-27-35-48-43-37-16-78-2-104 32-4 7-8 14-11 22-13 32-3 64 26 86zm0-189c9 7 18 8 27 1s14-5 19 4c4 7 9 6 12-1 11-22-11-57-35-57-16-1-30 10-34 25-3 10 2 22 11 28zm328 42c7-5 11-4 17 2 4 5 13 8 19 9 15 0 27-15 26-29-2-18-20-33-36-31-19 1-39 23-39 45 0 1 0 6 3 8 2 1 7-2 10-4z"/></svg>