<svg width="64" height="64" viewBox="0 0 1000 1000" xmlns="http://www.w3.org/2000/svg"><path d="M658 26C607 9 554 0 500 0 285 0 95 138 27 342-16 468-6 604 53 723c60 119 162 208 289 251 51 17 104 26 158 26 215 0 406-138 474-342 87-261-54-544-316-632zm141 199l5 1 4 4c22 25 41 53 57 83l9 18-20 1c-210 10-320 100-367 153l-5 6-8-2c-39-12-73-39-101-81l-5-7 5-7c30-40 147-169 399-169h27zm-503-80c62-36 133-55 204-55 44 0 88 7 130 21 13 4 26 9 39 15l39 18-42 6c-165 24-267 97-324 155l-14 14-6-19c-18-54-28-107-32-143l-1-8 7-4zM119 349c19-46 45-88 78-124l16-19 5 25c23 111 84 304 247 340l7 2 2 6c16 38 27 77 33 116l2 16-15-1c-42-4-105-18-174-69-82-60-149-155-201-282l-1-5 1-5zm391 457c-3 32-9 64-19 94l-3 10-10-1c-37-2-73-9-108-20-104-35-188-108-237-206-22-45-36-92-41-141l-5-54 28 46c133 214 297 254 383 258l13 1-1 13zm206 38l-1 5-5 3c-36 21-74 37-115 47l-20 5 5-20c18-77 27-197-30-336l-3-7 6-6c19-20 53-50 107-76l10-4 6 9c35 60 86 189 40 380zm173-214c-12 35-29 69-50 100l-25 36 2-43c5-128-29-223-59-280l-7-15 16-3c38-8 80-12 124-12h10l2 10c14 69 9 140-13 207z"/></svg>