<svg width="64" height="64" viewBox="0 0 1000 1000" xmlns="http://www.w3.org/2000/svg"><path d="M292 610v135c0 12 0 24-6 35-9 16-23 25-41 25-66 0-132 1-198 0-25 0-45-21-47-45-2-25 15-47 41-51 37-5 75-1 112-2 42 0 42 1 41-41 0-50 1-100 0-150 0-16 6-29 17-40l248-248c17-16 29-16 47 1 115 110 227 224 340 337 24 24 24 53 3 73s-49 19-72-4c-70-70-141-141-211-212-12-11-17-10-28 1-43 44-86 87-130 130-11 11-13 16 0 28l251 251c29 29 23 69-11 84-19 9-39 5-58-14-46-46-93-93-139-140-52-51-103-103-154-154l-5 1zM651 78c54 0 97 43 97 96s-44 98-97 98c-53 1-98-44-98-97 0-55 43-97 98-97zm243 233c59 0 107 48 106 108-1 58-49 105-107 105-59 0-107-48-107-107 0-60 47-107 108-106zm-68 157c2-1 3-2 5-3 36-37 73-73 109-110 3-3 6-7 2-9-9-6-18-15-29-3-16 17-33 33-49 49s-31 31-47 46c-7 7-4 14 0 20 2 4 3 10 9 10zm66-137c-49 0-90 42-83 83l83-83zm52 153c-1-1-1-2-2-3-15-16-30-32-46-46-7-6-10 5-15 9-5 3-9 7-2 13l37 37c6 8 12 3 18 0 4-3 9-4 10-10zm-19-89c-5 6-9 12-14 18-3 5 0 8 3 11l35 35c13 13 15 12 23-5 3-8 1-12-4-16l-33-33c-2-3-5-5-10-10zm-28 107c-11-10-19-18-27-25-4-4-7-13-14-8-6 4-12 10-13 15-2 7 7 9 12 11 12 5 23 10 42 7zm76-84c7-16 3-27-2-39-8-17-11-17-23-3-5 6-4 9 1 14 8 9 16 19 24 28z"/></svg>