<svg width="64" height="64" viewBox="0 0 1000 1000" xmlns="http://www.w3.org/2000/svg"><path d="M684 293c-173-1-318 140-321 313-3 174 141 322 316 324 174 2 322-145 321-319-1-173-142-316-316-318zm262 224c-43-58-88-114-147-158 74 30 123 82 147 158zM656 335c-47 49-78 104-95 167-9 31-45 23-70 34 0-106 78-203 165-201zm12 142c87 63 144 149 184 248 18 45 2 57-39 52-26 5-41-7-52-30-37-76-85-146-148-203-30-28-19-57-4-79 22-32 42 1 59 12zm-188-58c-36 47 3 129-81 164 9-71 36-122 81-164zm-79 241c-5-21-2-30 8-38 43-31 90-57 142-69 33-8 52 17 59 39 9 24-24 21-38 27-42 18-85 35-122 62-44 32-45 0-49-21zm39 100c-25-29 6-38 22-49 48-30 100-54 154-73 27-10 69 21 69 53-1 11-14 17-24 25-43 37-93 66-144 91-50 25-56-24-77-47zm82 84c58-33 111-62 158-99 9-8 23-28 35-12 14 18 34 38 20 64-30 62-145 91-213 47zm204 15c34-66 95-45 157-51-65 63-73 66-157 51zm179-98c-18-1-15-23-19-35-40-119-112-214-213-288-13-9-49-11-25-40 17-21 30-53 69-41 108 35 241 208 241 322-5 14-12 33-18 52-6 17-18 31-35 30zM401 402c33-44 55-77 5-120 46-20 83 60 128 1-100-86-250-47-353-157 15 77 45 125 94 162 13 10 40 17 29 40-12 25-37 10-54 3-27-10-53-25-78-41C91 237 41 159 3 70c-20 171 55 301 175 410 18 16 38 29 56 45 17 16 39 35 23 61-17 25-43 14-65 5-42-16-77-43-104-80-17-23-34-47-56-78 12 203 208 380 362 387-10-19-20-36-29-54-60-128-49-252 36-364z"/></svg>