<svg width="64" height="64" viewBox="0 0 1000 1000" xmlns="http://www.w3.org/2000/svg"><path d="M500 196c-81 0-145 65-146 145-2 75 59 148 146 149 80 0 147-66 147-147-1-82-66-147-147-147zm17 364c-9 4-24 6-31 2-21-15-46-18-71-26-2 7-3 13-4 19-3 22 3 43 9 64 2 7 6 9 12 6 13-6 26-10 39-17 6-3 11-10 16-15 1-1 2-4 4-4 6 0 12-1 18 0 3 1 4 6 7 8 3 4 6 8 10 10 14 6 29 12 44 19 5 2 8 0 9-6 3-12 7-24 9-36 3-15 4-31-4-46-24 3-46 10-67 22zM500 62C258 62 63 258 63 500c0 103 35 197 94 272 35 44 79 81 128 109 10 6 20 11 30 16 56 26 119 41 185 41 67 0 130-15 186-42l30-15c49-28 92-65 127-110 59-74 94-168 94-271 1-242-195-438-437-438zM285 858V739h30v135c-10-5-20-10-30-16zm402 15V738h29v119c-10 6-20 11-29 16zm155-181c-3-88-72-174-174-182-7 0-11 2-14 8-42 84-85 167-128 250-8 16-16 31-24 48-3-5-5-8-6-11-47-91-93-181-140-272-12-25-12-25-40-22l-5 1c-91 19-154 94-154 187v38c-47-67-74-149-74-237C83 270 270 83 500 83s417 187 417 417c0 88-27 170-74 237v-20c0-8 0-17-1-25z"/></svg>