<svg width="64" height="64" viewBox="0 0 1000 1000" xmlns="http://www.w3.org/2000/svg"><path d="M665 820h272V714H665v106zm122-239H515v104h272V581zm-302-1H214v105h271V580zm452-131H665v104h272V449zm-302-2H364v106h271V447zM63 553h272V448H63v105zm452-135h272V314H515v104zm422-237H665v104h272V181zm-302 0H365v105h270V181zm-301 0H63v104h271V181zm150 133H214v104h270V314zM63 819h272V716H63v103zm301 0h272V716H364v103zM183 581H63v104h120V581zm633 105h121V581H816v105zm0-371v103h122V315H816zm-752-1v105h120V314H64z"/></svg>