<svg width="64" height="64" viewBox="0 0 1000 1000" xmlns="http://www.w3.org/2000/svg"><path d="M767 563L513 75c-8-17-22-17-31 0L230 563c-8 17-20 45-23 63-27 176 144 312 292 312s328-133 293-312c-4-18-16-46-25-63zM484 875s-5-1-15-2c-2-1-5-1-8-2s-7-1-11-2c-8-2-18-5-26-8-5-2-9-4-14-6s-9-4-14-7c-5-2-10-5-15-8-8-5-21-14-28-20-5-4-9-7-14-12-9-8-16-17-24-26-7-10-14-19-20-30-3-4-5-9-8-15-3-8-9-22-11-30-2-5-4-10-5-15 0-2-1-4-1-7-1-3-2-9-3-13v-7c-2-8-2-16-2-22v-18c1-3 1-5 1-7 0-4 1-4 2 0 0 2 1 4 1 7 1 5 2 10 4 16 2 7 4 14 7 21l3 6c1 3 3 8 5 11l3 6c2 4 4 8 7 12 4 6 12 16 17 23 3 3 6 7 10 10 3 4 7 7 11 10 6 6 16 13 23 18s18 10 25 13 18 7 24 9c4 1 8 2 13 3 3 1 7 1 11 2 3 0 7 1 10 1 7 1 12 1 17 0h15c9-1 15-1 15-1 25-2 47 16 49 41 2 26-17 48-42 50-4 0-8 0-12-1z"/></svg>