<svg width="64" height="64" viewBox="0 0 1000 1000" xmlns="http://www.w3.org/2000/svg"><path d="M891 377C839 211 683 90 501 90c-184 0-340 120-392 287H63v246h46c52 166 208 287 392 287 182 0 337-121 390-287h47V377h-47zM740 232c-17 7-34 14-49 20-16-28-32-55-48-82 35 15 67 35 97 62zm-82 202h32l15 83 18-83h27l19 83 15-83h32l-28 132h-34l-18-75-17 75h-33l-28-132zm14 189c-4 19-9 37-12 56-1 5-3 7-9 6-41-7-83-14-126-21v-41h147zM526 143c59 22 88 71 115 125-39 6-77 11-115 17V143zm0 191c15-2 31-3 47-5 25-4 51-9 77-13 4-2 8-2 9 4 6 19 10 38 14 57H526v-43zm-51-189v137c-39 0-76-6-114-15 20-57 75-117 114-122zM329 377c4-19 8-37 11-55 2-7 4-8 11-7 39 10 79 16 120 18 1 0 2 0 4 1v43H329zm13 57l-28 132h-33l-18-75-17 76h-33l-28-133h31l15 83 19-83h27l18 83 16-83h31zm15-264c-16 27-31 54-47 82-16-7-32-13-50-20 30-27 62-47 97-62zM223 270c24 10 47 20 71 30-8 25-14 51-18 77H162c14-39 34-74 61-107zm-61 353h114c4 26 10 52 18 77-24 10-47 20-71 30-27-33-47-68-61-107zm98 145c18-7 34-13 50-19 16 27 31 54 47 81-35-14-67-35-97-62zm215 87c-43-8-91-64-113-121 21-8 94-18 113-15v136zm0-189c-21 2-42 4-63 7-20 3-41 8-62 12-5 1-7 1-9-5-6-19-10-38-14-57h148v43zm25-175l-18 76h-33l-28-133h32l15 83 18-83h27l19 83 15-83h32l-28 132h-33l-18-75zm25 364V716c39 5 76 10 114 15-18 54-70 118-114 124zm118-24c16-27 31-54 48-82 15 6 31 12 49 19-30 27-62 47-97 63zm134-101c-23-10-47-20-71-30 8-25 14-51 18-77h114c-14 39-34 74-61 107zm-53-353c-4-26-10-52-18-77 24-10 47-20 71-30 27 33 47 68 61 107H724z"/></svg>