<svg width="64" height="64" viewBox="0 0 1000 1000" xmlns="http://www.w3.org/2000/svg"><path d="M158 715c8-25 16-51 25-76 4-10 2-14-7-21-57-42-98-95-110-166-15-93 17-170 86-230 133-116 346-111 473 12 34 33 58 72 70 119 2 11 1 14-11 14-86-4-163 20-225 80-64 61-88 134-65 221 4 12 0 14-11 14-34-1-67-3-99-14-14-4-25-3-38 4-25 15-51 28-77 42-3 1-5 4-11 1zm157-400c1-23-19-44-43-44-24-1-44 19-45 43 0 23 20 44 43 45 25 1 45-18 45-44zm220 1c1-24-19-45-43-45-24-1-44 18-45 42s18 45 41 46c25 1 46-18 47-43zm149 66c75 2 152 31 209 101 67 84 57 203-23 277-5 4-9 9-14 13-21 17-21 17-13 43 3 11 7 21 11 32 1 4 2 9-2 13-4 3-7-2-10-3-18-10-37-19-55-30-11-7-22-6-35-3-96 24-186 11-266-50-113-86-113-244-1-331 53-41 114-62 199-62zm-97 119c-18 0-34 17-34 35 0 19 17 36 36 36 19-1 34-17 34-36s-16-35-36-35zm212 35c0-19-16-35-36-35-19 1-34 17-34 36s17 35 35 35c19 0 35-17 35-36z"/></svg>