<svg width="64" height="64" viewBox="0 0 1000 1000" xmlns="http://www.w3.org/2000/svg"><path d="M902 596c12-9 24-18 36-26l-32 2 2-7-15 12v-9l-19 9-3-7v1l-1-3-14 14-1-10-1-5-16 19-2-16-19 18-1-10-15 21-5-11-12 16-3-10-16 17c-1-4-2-6-3-7-5 4-10 8-15 13l-4-7-15 17-1-9c-5 6-10 11-15 16l-3-6-17 21c-1-4-2-6-3-10-6 8-11 14-17 21l-4-5c-6 7-11 13-17 20-1-3-2-4-3-8-6 7-11 13-15 19l-3-8-10 14-9 11-3-4c-25 32-54 61-89 83-1-1-1-2-1-3 11-22 73-86 117-119-1-2-3-3-5-4 6-4 11-8 17-11l19-12-14-1 33-18-4-2-10-4 26-20-8-4c10-8 20-14 31-22-5-2-8-4-11-5 9-7 18-13 28-20l-9-5 21-15-7-6c7-6 13-11 20-17-4-2-7-3-10-4 8-7 15-13 23-19l2-1-14-3c8-7 15-13 23-20l-10-4c6-5 12-10 19-17l-11-4c2-2 5-4 7-6l17-15h-3l-11-2 23-22-16-1c5-5 9-8 13-12l13-12h-19l17-22-11-3 4-5 18-21-12-1 26-60-43 32-2 2-4 3c-3-3-6-9-6-9l-14 29-3 6-8-9c-4 8-7 16-10 25l-11-14c-3 10-5 18-8 28l-10-10c-3 10-6 19-9 29-2-3-5-6-8-11-3 11-6 20-9 30l-8-8c-2 9-4 17-7 26l-4-9-4 1-6 28-2 3-4-10h-4l-7 27-8-7c-2 9-4 17-6 26l-7-4c-1 5-3 9-4 14 0 4 0 10-7 8-1 0-4 4-4 7-2 8-3 16-4 25-4-2-5-4-10-7-2 12-3 24-5 36l-8-3c-2 10-4 19-7 30l-7-5c-2 11-5 21-7 30l-9-6-2 38h-7c-6 55-22 108-49 158-1-1-2-1-3-1 5-56 18-109 38-161l14-24h-12l24-40-15 5 12-34h-11c4-11 9-22 13-33l-11-1c4-13 8-22 14-37h-10c5-11 9-22 14-33l-9-2c2-9 5-18 8-27h-8c3-10 5-18 8-28-5 1-8 1-12 2 4-11 7-21 11-32l-15 3 12-32c-6 2-10 3-14 4l10-28c-6 1-9 1-13 2l10-33-14 4 8-33c-5 2-10 4-16 7 4-12 7-21 10-31l1-4-20 8c2-10 4-19 6-29l-16 4c2-11 4-17 7-31l-13 3v-21l-7 10-9-51-8 51-8-10v21l-13-3c4 14 5 20 8 31l-16-4c2 10 3 19 5 29l-20-8 2 4c3 10 6 19 10 31-7-3-11-5-17-7l8 33-14-4 11 33c-5-1-8-1-14-2l11 28c-5-2-8-2-14-4l11 32-15-3c4 11 8 21 11 32-4-1-7-1-12-2 3 10 6 18 9 28h-8c2 9 5 18 8 27l-9 2c4 11 9 22 13 33h-10c6 15 10 24 14 37l-11 1c5 11 9 22 14 33h-12l13 34-16-5 24 40h-12l14 24c20 52 33 105 38 161-1 0-2 1-2 1-27-49-43-102-50-158h-7l-1-38-10 7c-2-10-4-20-7-31l-7 5c-2-10-4-20-7-30l-7 3c-2-12-4-23-6-36-4 3-6 5-9 7-2-9-3-17-4-25-1-2-3-7-4-6-8 1-7-4-8-9-1-4-2-9-4-13l-6 3c-2-8-4-17-7-25l-8 6-7-27h-3l-5 10-2-2-6-28-3-2-5 9c-2-9-4-17-7-25l-7 8c-3-11-6-20-9-31-4 5-6 8-9 11-3-10-5-19-8-29l-10 10c-3-10-6-18-8-28l-11 14c-4-9-7-16-10-25l-9 10c-1-3-2-5-3-7l-13-29s-3 6-6 9l-5-3c0-1-1-1-2-2l-42-32 25 60-11 1 18 21 4 6c-5 1-8 1-11 2l17 22h-20l13 12c4 4 8 8 13 12l-16 2 23 21-10 2-4 1 17 14c3 2 5 5 8 7l-12 4c7 6 13 11 20 16l-10 4c8 7 14 13 22 20l-13 3 2 2c7 6 14 11 22 18-3 1-6 3-9 4 6 6 13 12 20 18l-7 5 20 15-8 5c10 7 18 13 28 20-4 2-6 3-11 5 11 8 20 15 31 22l-8 4 26 20-11 4h1l-4 2 33 18-15 2 20 11c5 4 11 7 17 11-2 2-4 3-6 4 45 34 107 97 118 119-1 1-1 2-1 3-35-22-64-50-90-83l-3 5-9-12-9-13-3 7c-5-5-9-12-15-19-2 4-2 6-3 8-6-7-12-13-17-20l-4 5c-6-6-12-13-18-20-1 4-1 6-2 9l-18-21-3 6-15-15-1 8-14-16-5 6c-5-4-10-9-15-13-1 2-1 4-3 7l-16-16-3 9-12-16-4 11-16-21-1 11-19-19-2 17-16-20v5h-1v11l-15-15-1 3-3 6-19-8 1 8-16-11 2 7-31-3c11 9 23 18 35 27l-4 5c6 3 11 5 17 8l-5 6 17 7c-2 4-4 6-6 9l18 6-8 6 24 6c-1 3-3 4-5 7l22 5-5 6 18 4-3 7 17 4-4 9 21 1h4l-5 8 17 4-11 8 25-2-7 8c1 0 23 2 23 2l13 1-8 10 28-1-8 8c1 0 24 1 24 1l9 1-3 6c9 1 17 2 22 3l-4 4 9 1h1c2 1 4 1 6 1l-1 4 14-3-4 4h18c31 5 61 15 90 27-2 2-4 3-6 3-13-1-26-3-39-4-6-1-13-1-20-1l-15-1-12-3-5 4-11-4-6 6-9-4-4 7-9-6-2 6-8-4-3 8-12-3 2 9-15-7 3 10-12-5v9l-10-6-4 8s-9-1-11-2v7h-12l5 8-13-1 4 8-16 1 5 6h-9l-30 25 20-3 4 5 9-4 3 8 6-5 6 8 7-8v9l13-4-1 7 12-6-2 9 16-9 2 5 10-7 4 7 17-9 4 8 9-10 6 7 6-11 7 6 7-10 2 6 12-10v6l10-11 3 6 5-8 4 3 6-10h1c8-4 17-7 25-12 19-10 37-20 57-30h1c1 2 2 5 4 7-39 17-72 39-96 72-10 14-17 31-20 41-1 4-2 7-4 10 12-4 25-7 36-13 10-5 19-13 28-21 9-9 19-18 26-28 9-12 16-26 24-39 3-5 7-11 11-17 1 1 2 2 4 2-6 38-9 75 6 112 15-37 12-74 7-112 1 0 2-1 3-2 4 6 8 12 11 17 8 13 15 27 24 39 7 10 17 19 26 28 9 8 18 16 28 21 11 6 24 9 36 13-1-3-2-6-4-10-3-10-10-27-19-41-25-33-58-55-97-72 2-2 3-5 4-7h2c19 10 37 20 56 30 8 5 17 8 25 12h1l6 10 4-3 5 8 3-6 10 11 1-6 11 10 2-6 7 10 7-6 6 11 6-7 9 10 4-8 17 9 4-7 10 7 2-5 16 9-2-9 12 6-1-7 13 4v-9l7 8 6-8 7 5 2-8 9 4 4-5 20 3-30-25h-8l4-6-16-1 4-8-13 1 5-8h-12v-7c-2 1-11 2-11 2l-4-8-9 6v-9l-13 5 3-10-15 7 2-9-12 3-3-8-8 4-2-6-9 6-4-7-8 4-7-6-10 4-6-4-12 3c-5 0-10 1-15 1-7 0-14 0-20 1l-39 4c-2 0-4-1-6-3 29-12 59-22 90-27h18l-3-4 13 3-1-4c2 0 4-1 6-1h1l9-1-4-4c6-1 14-2 22-3l-3-6c3 0 6-1 9-1l24-1-8-8 29 1-10-10 13-1 23-2c1 0-7-8-7-8l26 2-11-8 17-4-5-8h4l21-1-4-9 16-4-3-7 19-4-6-6 23-5c-3-3-4-4-6-7 8-2 15-4 24-6l-8-6s18-6 19-6c-2-3-4-5-7-9l17-7-4-6c6-3 11-5 16-8l-3-6z"/></svg>