<svg width="64" height="64" viewBox="0 0 1000 1000" xmlns="http://www.w3.org/2000/svg"><path d="M120 384c-1 0-2 2-2 3-1 6-2 13-3 20l-6 42h-1c0-2 0-4-1-5-3-19-5-38-8-57-1-2-1-3-3-3H59c-3 0-3 1-4 3 0 4-1 8-1 13-2 10-3 21-5 31-1 7-2 13-3 19h-1l-1-10c-3-18-5-35-7-53-1-2-1-3-4-3H2s-1 1-2 1v1l14 63c2 12 5 25 8 37 0 3 1 3 3 3h39c3 0 3-1 4-3l3-24c1-10 3-20 4-30 1-3 1-7 2-10h1c3 22 7 45 10 67h42c1 0 2-1 3-2 1-3 1-6 2-9 6-27 11-53 17-79 1-5 2-10 3-14-1 0-1-1-1-1h-34zm374 127c-2 0-2 1-2 2v60h-1c-1-1-1-3-2-4-7-19-13-37-19-55-1-2-2-3-4-3h-44c-2 0-3 1-3 3v98c0 3 1 4 3 4 9-1 18-1 26 0 3 0 4-1 4-4v-54c0-2 0-4 1-6 2 3 3 7 4 10l18 51c0 2 2 3 4 3h46V512l-1-1h-30zm311-26v-55-4h1l2 4c6 19 13 38 19 56 1 2 2 3 4 3h46c0-1 1-2 1-3v-99c0-2-1-3-4-3h-29c-1 21 0 42-1 63-1-1-2-3-2-4-7-18-13-37-19-55-1-3-3-4-6-4h-45v105h29c3 0 4-1 4-4zm70 26h-31v62h-1c0-1-1-3-2-5-6-18-13-36-19-55-1-2-1-2-4-2h-46v101c0 3 1 3 3 3h26c3 0 4-1 4-3v-60h1c0 1 1 3 2 4 6 19 13 38 19 57 1 2 2 2 4 2h43c3 0 3-1 3-3v-98c1-3 0-3-2-3zm-136-41c-1-7-2-13-3-20-1-6-5-10-10-12-3-1-5-1-7-2 2-1 3-1 5-2s4-2 7-4c7-6 9-14 8-22 0-11-7-19-17-21-6-2-12-3-18-3h-59c-3 0-3 1-3 4v101h37c2 0 3-1 3-3v-32c0-1 0-2 1-3 7-2 14 2 15 9l4 26c1 2 2 3 4 3h36v-3c-1-5-2-11-3-16zm-44-44c-1 1-2 1-3 1-9 3-10 2-10-7v-13c4 1 8 1 11 2 4 0 6 3 7 7 0 4-2 8-5 10zm-313 85h-38v66c0 3 0 6-1 8-1 4-4 5-8 5-3 0-6-1-7-5-1-2-2-5-2-8v-66h-38c-2 0-3 1-3 2 0 23 0 46 1 69 0 14 7 25 20 31 19 7 38 7 56 0 14-4 22-15 23-30v-70c0-2-1-2-3-2zm322-1c-11-3-22-3-34 0s-22 9-29 20c-9 14-10 30-7 46 2 13 7 24 18 32 10 7 22 10 34 10 4 0 8 0 12-1 18-3 32-12 38-30 6-15 6-31 1-46-5-16-16-27-33-31zm-8 73c-2 6-5 8-10 8-3 0-7-1-8-5-1-5-2-9-3-14v-9c0-6 1-12 2-18 1-7 4-10 10-10 3 0 7 2 8 5 1 4 2 9 2 13 1 10 1 20-1 30zM367 429c-8-4-17-6-26-9-4-1-7-2-11-3-2-1-4-3-4-6s2-4 4-5c3-1 5-1 8-1 4 0 7 2 8 6 0 2 1 3 3 3 7-1 15 0 22 0h11c1-8-2-16-8-21-6-7-14-9-23-10-13-2-27-2-40 2-14 5-21 15-22 29-1 13 4 22 15 27 8 3 16 5 24 8 5 1 10 3 15 4 3 2 5 4 4 8 0 4-4 7-9 8-7 0-11-3-12-8 0-3-1-4-4-4h-26c-10 0-11 1-8 11 5 12 14 19 26 21 16 4 31 4 46-1 13-4 23-12 25-26 3-16-3-27-18-33zm-111 33h-34c-1 0-2 0-2-1-1-4-1-7-1-11h34c3 0 4-1 4-4-1-6-1-13 0-19 0-3-1-4-4-4h-33v-12h36c3 0 4 0 4-3 0-7-1-13 0-20 0-3-1-4-4-4h-72c-4 0-4 0-4 4v101h78c3 0 3-1 3-3v-19c0-5 0-5-5-5zm355 0h-32c-3 0-7 1-9 0-1-2 0-6-1-9 0-2 1-3 3-3h31c3 0 4-1 3-3v-20c1-3 0-4-4-4h-30c-1 0-3 0-3-2v-10h37c3 0 4 0 4-3v-20c0-3-1-4-4-4h-75v105h78c2 0 2-1 2-2v-25zm-176-46v73h37c3 0 4-1 4-4v-70c0-2 1-3 4-3h20c1 0 2 0 2-2v-26h-93v26c0 1 2 2 3 2h19c4 0 4 1 4 4zm163 95h-34c-3 0-4 0-4 3v98c0 3 1 3 3 3h38v-2-99c0-3-1-3-3-3zm316-128h15v230h-15V383zm58 0h28v230h-28V383z"/></svg>