<svg width="64" height="64" viewBox="0 0 1000 1000" xmlns="http://www.w3.org/2000/svg"><path d="M508 62C273 62 82 253 82 489c0 80 22 156 61 220L66 938l236-76c61 34 131 53 206 53 235 0 426-191 426-426S743 62 508 62zm209 574c-9 25-43 45-71 51-18 4-43 7-125-27-106-44-173-151-179-158-5-7-42-56-42-108s26-76 37-87c8-9 23-13 36-13 5 0 9 0 12 1 11 0 16 1 23 17 9 21 30 73 32 78 3 5 5 12 2 19-4 7-7 11-12 17s-10 10-16 17c-4 6-10 12-4 22 6 11 27 45 58 73 40 35 73 47 85 51 8 4 19 3 25-4 8-8 18-23 28-37 7-10 16-11 26-7 9 3 60 28 71 33 11 6 18 8 20 13 2 4 2 25-6 49z"/></svg>