<svg width="64" height="64" viewBox="0 0 1000 1000" xmlns="http://www.w3.org/2000/svg"><path d="M164 486c29 45 73 63 124 70 21 3 42 13 59 24 18 12 24 33 16 54s-25 30-48 29c-27-1-50-14-66-33-22-25-40-53-60-80-3-5-7-10-10-15-5-16-10-33-15-49zm43 138c27 46 70 64 121 71 21 3 42 12 60 23 21 12 27 37 20 57-8 20-29 34-53 27-22-6-45-16-61-31-23-23-40-52-60-79-3-5-7-10-10-15-6-18-11-36-17-53zM78 215c28 46 71 64 122 71 20 2 40 11 58 21 22 13 29 38 20 59-8 20-30 34-53 26-25-8-51-21-68-40-25-26-43-58-63-88l-16-49zm42 133c29 47 73 64 124 71 20 3 40 12 57 22 21 13 27 38 19 57-9 21-29 35-53 27-25-8-51-21-68-40-25-25-43-58-63-88-5-16-11-32-16-49zm86-286c27 36 54 72 79 109 10 13 15 30 19 47 6 24-3 41-22 50-24 11-49 8-59-14-12-27-21-57-24-86-3-34 1-69 3-104l4-2zm231 194c16 65 26 129 0 192-6 15-20 29-34 39-14 11-34 12-47-1-10-12-22-32-19-43 7-24 22-45 36-66 15-21 35-39 48-62 10-16 11-37 16-59zm-41-130c15 54 22 110 7 166-5 21-19 41-33 57-15 15-36 18-56 5-20-14-27-34-18-55 9-20 23-38 37-56 13-18 32-32 42-52 10-19 14-43 21-65zm363 651c-28 39-59 74-106 85-9 2-20 1-27-3-9-6-17-16-20-26-3-13 4-27 16-31 17-5 35-8 52-7 30 3 59 3 85-18zM578 650c-10 34 1 63 16 91 7 13 11 28 13 43 2 17-8 30-22 35-14 4-29-2-37-17-4-6-7-13-8-20-6-49 13-91 38-132zm-99-255c17 57 25 114 8 171-6 20-21 39-36 55-14 14-34 14-51 3-19-12-28-31-20-50 10-23 24-46 41-63 41-43 51-60 58-116zm208 88c-10 35 4 64 19 93 6 11 10 24 11 37 2 17-8 32-22 37-14 4-29-2-37-17-4-6-7-13-8-19-6-49 13-91 37-131zm-55 84c-8 32 2 59 17 87 6 13 11 27 14 42 3 17-8 32-22 37-14 4-30-1-37-17-5-10-9-21-9-32-1-43 14-81 37-117zm109-167c-10 30-2 56 11 82 7 14 14 28 17 42 5 22-5 39-23 44-16 5-35-5-40-26-4-16-5-34-2-50 4-33 17-64 37-92zM523 536c18 65 27 130 0 194-5 10-13 20-22 27-17 15-37 20-57 7-19-12-28-34-18-57 7-18 18-35 31-48 35-35 67-69 66-123zm398-10c-22 34-49 63-86 79-12 6-27 7-41 6-14-2-24-12-26-28-1-16 7-28 21-34 11-4 23-5 35-5 10-1 21 1 31 2 24 2 47-4 66-20zm-53 83c-26 37-55 68-98 82-17 6-35 5-47-11-5-7-7-22-5-31 7-19 25-24 42-25 10 0 19 1 28 2 29 4 55 1 80-17zm-54 83c-2 3-3 7-5 9-24 30-50 58-85 71-12 4-27 4-40 2-12-1-20-11-22-25s3-26 15-32c12-5 26-7 39-9 10-1 20 2 31 3 24 2 46-4 67-19zm60-295c-5 41-12 80-34 115-12 19-26 23-42 14-18-11-22-29-11-49 20-36 53-59 87-80zM401 812c24-7 43-13 65-20 4 14 8 29 11 43 6 27 13 53 17 80 1 7-6 21-12 22-9 2-26-1-29-7-19-38-34-77-52-118zm162 19c13 10 25 18 38 27-18 24-36 48-55 71-3 3-13 4-16 1-5-4-10-14-9-18 13-27 28-53 42-81z"/></svg>