<svg width="64" height="64" viewBox="0 0 1000 1000" xmlns="http://www.w3.org/2000/svg"><path d="M516 379c-30-30-65-38-105-23-8 2-11 3-14-6-26-65-86-100-155-92-63 7-112 57-124 124 0 4 0 9-5 11-11 5-20 11-27 19s-52 50-1 107c1 2 3 4 4 5l1 1c13 12 29 19 48 21 20 2 41 0 61 1l174-1c26 0 50 1 74 0 42-1 73-22 90-60 16-37 8-80-21-107zM229 613c0 17-14 31-31 31s-31-14-31-31 14-31 31-31 31 14 31 31zm140 5c0 14-12 26-26 26s-26-12-26-26c0-15 12-26 26-26s26 11 26 26zm-71 68c0 10-9 19-20 19s-20-9-20-19 9-20 20-20 20 9 20 20zm61 22c0 8-6 15-15 15s-15-7-15-15 7-15 15-15c9 0 15 7 15 15zm-75-83c0 5-4 10-10 10s-10-5-10-10 5-10 10-10 10 4 10 10zm156-23c0 11-9 20-20 20s-19-9-19-20 9-20 19-20 20 9 20 20zm249-102H572v1c-8 19-21 34-36 44h156c55 1 94 44 89 97-4 38-47 66-81 54-28-11-41-44-25-65 13-18 37-19 51-2 8 9 20 11 30 3 9-6 12-19 6-29-15-24-48-37-78-29-59 16-78 82-43 131 16 22 39 33 65 38h25c10-3 20-5 29-9 59-25 84-94 55-155-25-53-68-78-126-79zm-95-125c12 1 23-7 23-20 1-21 17-34 31-35 21-1 41 13 47 32 10 34-17 74-52 77-23 2-45 2-68 1 5 15 7 30 4 45h59c56-1 106-51 104-107-1-53-38-90-90-93-41-1-78 35-78 76-1 13 8 23 20 24zm326-15c-18-20-41-28-67-22-24 5-39 21-46 44-1 5-1 10-1 16 0 11 9 20 20 21 12 1 21-6 23-18 4-17 10-22 22-20 14 3 24 16 22 31-3 20-19 33-42 33-29 1-57 0-86 0-13 0-21 6-23 16-4 14 4 27 19 28 18 1 36 0 53 0 23 0 46 3 68-4 53-18 73-84 38-125z"/></svg>