<svg width="64" height="64" viewBox="0 0 1000 1000" xmlns="http://www.w3.org/2000/svg"><path d="M452 609c43-2 74-22 91-62 16-37 8-80-21-108-30-30-66-38-107-23-7 2-10 3-14-6-26-65-87-101-157-93-63 7-113 57-125 125 0 4 0 9-5 11-11 5-20 12-27 20s-54 50-1 108c1 2 2 4 4 5l1 1c12 12 29 19 48 21 21 2 41 0 62 1h176c27 0 51 1 75 0zM268 295l-3 9c50-1 95 21 123 61 2-2 3-5 4-7 18-34 4-76-30-93-35-18-77-4-94 30zm142 25c-1 4 1 8 5 10 1 1 3 2 4 2 11-1 21-1 31-2 6-1 9-5 9-10 0-6-4-10-9-10-11 0-22 1-32 2-4 0-8 4-8 8zm-43-62c5 2 11 0 14-5 2-4 4-9 6-13l6-13h1c2-5 0-11-5-14-5-2-11 0-13 5-5 9-9 17-13 26-3 5-1 11 4 14zm47 100c-5-3-11 0-13 4-2 5 0 11 5 14 4 2 9 4 13 6 5 2 9 5 13 7 5 2 11 1 13-4 3-5 2-11-3-14-9-4-19-9-28-13zm-190-84c4 2 9 4 13 7 4 2 9 4 13 6 5 3 11 1 13-4 3-4 1-10-4-13-9-5-18-10-27-14-5-2-11 0-13 5s0 11 5 13zm176 15c4 1 7 2 10 0 9-6 17-12 26-17 4-3 5-9 2-14-3-4-9-6-13-3-9 6-18 11-26 17-6 4-5 14 1 17zm-79-43c6 4 14-1 14-9-1-10-1-20-2-30 0-5-5-9-10-9-6 1-10 5-10 11 1 10 1 19 2 29 0 4 2 7 6 8zm-49 12c1 1 3 2 4 3 4 2 9 1 12-2s4-8 1-12c-5-8-11-17-16-25-3-5-9-6-14-3-5 4-6 9-3 14l16 25zm414 298H568c-9 20-22 35-37 45 52 0 105 0 158 1 55 0 96 44 90 97-4 39-47 67-82 55-28-11-41-44-25-66 13-18 37-19 51-2 9 10 21 11 31 4 9-7 11-20 5-30-14-25-48-37-78-29-60 16-79 83-44 132 17 23 39 34 66 39h25c10-3 20-5 30-9 60-26 85-96 55-157-25-54-69-80-127-80zm-97-127c13 1 24-7 24-20 1-21 18-35 31-35 22-2 42 12 48 32 10 34-17 75-53 78-23 2-46 1-68 1 4 14 6 30 4 45h59c57 0 107-51 106-108-1-54-39-92-92-94-42-2-78 35-79 77 0 13 8 23 20 24zm-38 200c-12-2-24-2-36-2H248c-16 0-26 8-27 22 0 12 6 20 18 23 12 2 26 1 39 1h257c7 0 15 1 16 10 1 10-6 12-14 14-13 3-21 12-19 24 1 12 11 20 24 20 27 0 52-23 55-50 3-30-17-56-46-62zm369-215c-18-21-41-29-68-23-24 5-39 21-46 45-2 5-2 11-2 16 1 12 9 20 21 21 11 1 20-5 23-17 4-18 10-23 22-21 15 3 24 17 22 31-3 21-19 34-42 34h-87c-13 0-21 6-24 16-4 15 5 28 20 29h54c23-1 46 3 69-5 53-17 74-85 38-126z"/></svg>