<svg width="64" height="64" viewBox="0 0 1000 1000" xmlns="http://www.w3.org/2000/svg"><path d="M454 550c43-1 74-22 91-61 17-37 8-81-21-109-30-30-66-38-107-24-8 3-11 3-14-5-27-66-88-102-158-94-64 7-114 58-126 126 0 4 0 9-5 11-11 5-20 12-27 20s-54 51-1 109c1 2 2 3 4 5l1 1c13 12 29 19 49 21s41 0 61 1l177-1c27 1 52 1 76 0zm231-53H566c-9 20-22 35-37 45 53 0 106 0 159 1 55 0 96 44 90 98-4 38-47 67-82 54-28-10-41-44-26-66 13-17 38-19 52-2 9 10 21 12 31 4 10-7 12-19 6-30-15-25-49-37-79-29-61 16-80 83-44 133 16 23 39 34 66 39h25c10-3 21-5 30-9 60-26 85-97 56-159-26-53-70-79-128-79zm-98-128c13 1 24-7 25-20 1-21 17-35 31-35 21-2 42 12 48 32 10 35-17 75-53 78-23 2-46 2-69 1 5 15 6 30 4 45 20 0 40 1 59 0 58 0 108-51 107-108-1-54-39-92-92-94-42-2-79 34-80 77 0 13 8 23 20 24zm-38 201c-12-2-24-1-36-1H389c-48 0-96-1-144 0-17 0-26 8-27 21-1 12 6 21 17 23 13 3 26 1 39 1 87 1 173 1 259 0 8 0 15 1 16 10 1 10-6 13-14 14-13 3-21 13-19 25 1 12 11 20 24 20 28-1 52-23 55-51 3-30-17-56-46-62zm370-216c-17-21-41-29-67-23-25 5-40 21-47 45-2 6-2 11-2 16 1 12 9 21 21 22s21-6 24-18c4-17 10-23 22-21 14 3 24 17 22 31-3 21-19 34-43 35-29 0-58-1-87 0-13 0-21 6-24 16-4 14 5 27 20 28 18 1 36 0 54 0 23 0 47 3 69-4 54-18 75-86 38-127z"/></svg>