<svg width="64" height="64" viewBox="0 0 1000 1000" xmlns="http://www.w3.org/2000/svg"><path d="M934 626c-4-6-9-8-16-8-22-1-40-10-53-29-7-11-20-11-28 1-16 22-37 31-63 27-18-2-34-8-42-25-8-16-18-18-31-6-12 11-25 20-41 23-26 6-43-6-47-33-1-7 0-14 0-21 2-12-8-19-19-15-4 1-8 4-11 7-8 6-15 13-23 19-27 22-58 31-92 24-64-14-114-77-115-144-1-41 21-85 54-109 41-31 99-21 128 21 19 26 15 60-9 81-19 18-59 15-76-4-7-8-8-19-2-27 5-8 13-11 24-7 2 1 3 1 5 2 8 2 15-1 18-8s0-15-7-19c-13-6-26-8-40-3-19 6-30 20-33 39-3 22 5 40 23 51 47 31 109 25 134-40 17-46 2-86-30-120-40-42-89-49-142-37-60 14-106 49-143 97-30 41-50 87-66 134-7 22-15 44-29 63-21 29-41 59-83 59-10 0-17 9-17 16 1 8 8 14 18 16 2 1 4 1 6 1 23 0 43-8 61-22 5-5 8-4 14-1 44 31 83 30 127-3 4-3 6-3 10 0 40 32 87 34 129 6 5-4 7-2 11 1 39 26 90 25 127-3 6-4 9-4 15 0 43 30 84 29 125-3 6-4 8-3 12 0 41 33 89 33 130 1 4-4 6-2 10 1 18 15 39 22 63 23 7 0 12-3 15-9 4-6 3-12-1-17zm-155 79c-21 0-38-9-51-27-9-14-21-13-31 1-12 17-29 26-51 27-23 0-42-10-57-28-11-12-20-13-31-1l-2 2c-31 32-63 35-99 9l-9-6c-12-11-18-11-30 0-15 14-31 24-53 24-11-1-19 6-19 16s8 17 20 17c22 0 42-8 59-21 6-5 10-5 17-1 43 30 83 29 125-3 5-4 8-3 12 0 39 33 90 33 129 2 4-3 6-4 10 0 18 15 38 22 58 23 10 1 17-2 21-10 4-6 2-12-2-17s-10-6-16-7z"/></svg>