<svg width="64" height="64" viewBox="0 0 1000 1000" xmlns="http://www.w3.org/2000/svg"><path d="M937 299c-3 40-8 80-23 119-8 24-16 48-28 71-23 41-53 77-91 105-37 26-77 45-121 55 2-17 2-34 1-50 34-9 65-26 93-48 29-23 53-52 72-85s32-68 41-105c6-27 7-55 7-82v-24c-2 4-11 13-13 15-24 22-52 37-82 49-28 11-57 18-86 26-36 10-74 18-108 35-4 2-8 4-11 5-12-14-26-26-40-37 33-16 68-27 103-39 48-16 96-30 142-52 42-20 79-44 112-76 5-5 12-11 17-19 6 16 9 33 11 48 5 30 5 59 4 89zM625 584c-2-24-7-47-16-70-9-24-23-46-37-67 0-1-1-3-2-4-16-22-35-41-56-58-28-22-60-38-93-51-13-5-25-10-38-14l-97-32c-27-9-53-19-79-31-41-20-79-44-112-76-5-5-11-12-17-20-6 17-8 34-11 49-4 30-5 59-4 89 3 40 9 80 23 119 9 24 16 48 28 71 23 41 53 77 92 105 36 26 76 45 120 55-3-17-3-34-2-51-34-8-64-25-91-47-30-23-54-52-73-85-19-32-32-68-40-105-7-28-8-56-8-84v-20l12 12c8 8 17 15 26 21 2 1 45 28 94 42 12 3 28 7 49 13 5 2 11 3 16 5 18 5 37 10 55 16 7 2 13 5 20 7l9 3 5 3 16 6 1 1c37 16 70 38 95 70 7 8 14 17 19 26 22 35 35 73 39 114s-2 82-18 121c-10 25-24 47-41 67-7 8-10 8-18 0-1-1-3-3-4-5-19-22-33-50-33-50-14-28-24-58-27-90-6-58 7-112 44-158-12-15-27-27-42-38-19 26-33 54-43 85-2 5-3 11-5 17-9 36-11 73-5 110 1 8 3 16 4 24 16 70 49 129 103 178 13 12 19 13 28 6 15-13 28-27 41-42 21-24 36-52 49-81 1-4 2-7 4-11 17-45 26-92 21-140 0-2 0-4-1-5zM419 216c0-46 38-83 83-83s84 37 84 83-38 83-84 83-83-37-83-83zm44 0c0 22 18 40 39 40 22 0 40-18 40-40s-18-40-40-40-39 18-39 40z"/></svg>