<svg width="64" height="64" viewBox="0 0 1000 1000" xmlns="http://www.w3.org/2000/svg"><path d="M909 605c-17-17-41-28-67-29h-3c-28 0-52 11-70 29s-29 43-29 70c0 14 3 27 8 39s12 22 21 31c18 18 42 29 70 29 54 0 98-44 98-99 1-27-10-52-28-70zm-19 47l-60 61c-2 1-5 1-6 0l-37-37c-2-2-2-5 0-6l9-9c1-2 4-2 6 0l25 25 49-49c1-1 4-1 6 0l8 9c2 2 2 5 0 6zm-27-190h-69l69-294c-11-2-22-3-33-4-12-1-23-2-35-2-20 0-39 2-58 6l-53 294h-89l-66-294c-21-4-41-6-59-6-10 0-21 0-31 1s-21 3-33 5l-66 294h-83l-55-294c-11-3-22-4-33-5s-22-1-33-1c-27 0-52 2-73 6l68 294H64c-1 10-1 19-1 30 0 10 0 19 1 29h80l9 38H64c-1 10-1 19-1 29s0 20 1 30h102l50 215c22 4 42 6 60 6 14 0 26-1 37-2s23-3 38-4l54-216h110l51 216c26 4 51 5 74 5s46-1 67-5l21-87c-16-21-25-47-25-75 0-49 28-91 69-112h-1l9-38h82c1-10 1-20 1-30 1-10 0-19 0-29zM294 668l-9-51h21l-12 51zm25-109h-45l-7-38h60l-8 38zm143-169l17 72h-35l18-72zm-42 169l9-38h64l9 38h-82zm225 122l-15-64h26l-11 64zm22-122h-50l-9-38h66l-7 38z"/></svg>