<svg width="64" height="64" viewBox="0 0 1000 1000" xmlns="http://www.w3.org/2000/svg"><path d="M838 263c-51 0-102 5-153 6-6 0-10-2-14-6-6-10-15-19-24-27-66-55-150-13-167 52-1 4-2 9-3 15-3-2-5-3-8-5C345 220 219 144 93 69c-4-2-8-3-10-7h-2c-1 22 3 42 10 62 23 68 60 127 107 181 25 30 54 56 88 77 11 6 22 11 35 12 9 0 18 2 27 3-17 1-34 0-51 2-48 4-84 25-106 68-16 33-19 69-18 105 1 45 10 88 20 131 20 80 50 156 80 233 0 0 0 2 2 1 0-1 1-3 1-5l18-111c1-6 1-12-1-18-5-15-10-31-14-46-4-14-7-29-9-43 11 24 20 48 32 73 5-15 7-30 12-43 8-18 5-33-6-48-7-10-12-21-15-33 10 15 21 28 33 41 3 4 5 4 7-1 6-13 13-26 23-38 3-5 2-7-2-10-10-8-20-17-30-25 13 5 25 12 37 18 3 1 5 3 8 0 13-13 27-25 43-36-41-7-81-10-119-27 1-1 1-1 2-1s2 0 4 1c37 10 74 15 112 8 92-18 166-104 170-199 1-21 10-38 26-51 14-13 31-21 49-27 65-21 132-31 200-39 21-3 42-5 63-7-27-7-54-8-81-7zm-232 26c-10 0-19-8-19-18 0-11 8-19 18-19 11 0 19 8 18 19 0 10-8 18-17 18zM308 187c49 31 98 62 147 92 2 2 5 3 7 5l2-2c-45-75-104-137-163-201-1 31 0 62-1 94 0 6 3 9 8 12z"/></svg>