<svg width="64" height="64" viewBox="0 0 1000 1000" xmlns="http://www.w3.org/2000/svg"><path d="M918 858c-29-74-57-148-85-223-3-7-8-12-14-16-41-22-83-39-127-51-29-8-39-2-56 23-17 28-37 54-52 82s-33 43-66 37c-13-2-20-4-27-15-24-39-49-76-73-114-6-10-13-15-25-15-39 0-71 19-106 31-19 8-39 16-58 32 21 7 34 20 36 41 2 16 14 26 19 40 2 6 7 6 12 5 22-7 41-1 60 10 90 54 180 108 271 161 11 7 21 16 26 29 3 7 7 8 14 7 82-9 163-22 242-46 10-3 13-7 9-18zM345 344c17-1 36-5 50 1 40 20 82 21 125 22 42 1 84 2 124-13 18-6 35-11 54-11 42 1 45-4 39-46v-2c-1-6-4-11-11-11-11 1-11-5-12-13-4-58-28-108-71-147-16-14-39-21-46-44-1-3-6-8-11-5-4 2-2 6-3 10-2 30-5 61-7 91-1 11-3 22-16 22-15 0-14-13-14-24 1-31 2-62 4-94 1-19-11-14-22-15s-18 0-18 15c2 34 2 68 3 102 0 8-2 15-12 16-9 1-15-5-15-15l-4-43c-2-22-4-44-6-68-15 9-15 9-20 20-2 5-5 9-10 12-63 38-94 96-99 167-1 8-2 14-11 13-9 0-12 6-12 14v24c-2 16 4 23 21 22zm237-47c7-52 13-103 20-158 50 36 71 82 76 137 0 9-4 12-12 14-24 8-49 12-75 14-6 1-9 0-9-7zM459 142c6 51 13 102 19 152 1 9-1 11-10 10-24-3-48-6-71-13-6-2-12-3-13-11-3-43 30-118 75-138zm153 778c-2-2-5-3-8-5-84-51-167-104-253-152-40-23-46-21-65 21-6 13-6 19 10 23 36 10 71 22 106 33 6 2 16 4 14 12-3 11-12 6-19 4-38-12-75-24-113-34-17-5-25-16-27-32-2-9-1-18-1-28 1-18-1-35-12-50-8-11-17-20-15-36 2-8-7-10-14-13l-83-29c-34-12-41-8-50 27-2 8-2 15-3 23-1 12 5 18 17 20 31 6 63 13 95 19 11 2 22 8 30-6 5-7 9 1 11 5 10 12 11 27 10 43-3 23 0 45 17 63 5 6 4 10 1 16-9 19-17 38-26 57-6 13-3 21 9 28 14 7 28 10 43 10h155v1h165c5 0 11 0 13-6s-2-11-7-14zM87 666c6-30 12-36 31-31-17 3-22 16-31 31zm276-298c-11 1-30-10-31 14-1 27 7 51 28 67 11 8 17 17 21 29 27 69 85 112 150 111 15 0 29-1 43-6 54-19 87-59 107-111 3-7 4-14 13-19 22-13 31-33 34-58 3-24-1-27-25-28-11 0-17 0-15 16 3 16 3 34-22 37-9 1-13 10-15 19-4 17-11 32-19 47-33 58-95 81-150 53-40-20-61-55-71-97-3-9-5-21-16-22-24-2-24-19-24-36 1-7 8-19-8-16zM205 773c0-8-3-12-11-12-6 0-13-5-17 5-11 32-23 64-35 95-2 6-3 10 4 12 15 5 30 9 41 13 16 1 37-40 31-53-9-19-14-39-13-60z"/></svg>