<svg width="64" height="64" viewBox="0 0 1000 1000" xmlns="http://www.w3.org/2000/svg"><path d="M641 682c-2-8-5-13-12-18-34-23-73-37-112-49-8-3-13-1-19 6-43 52-97 77-166 66-46-8-82-33-111-69-3-4-5-9-11-7-43 13-86 28-124 53-6 5-10 10-11 18-3 16-7 32-11 47-3 11-1 14 10 16 101 20 202 28 321 27 29-1 74-3 119-8 44-4 88-11 131-19 8-2 10-5 8-13-5-16-9-33-12-50zM222 442c13-1 28-4 38 1 31 15 63 16 95 17 33 0 65 1 96-10 13-5 26-9 41-9 32 1 35-3 30-35v-2c-1-4-3-8-8-8-9 1-9-4-9-10-4-45-22-83-55-113-12-11-29-16-35-34-1-2-5-5-8-4-4 2-2 5-3 8-2 23-4 47-5 70-1 9-3 17-12 17-12 0-11-10-11-18 1-24 1-48 3-72 1-15-9-11-17-12s-14 0-13 12c1 26 1 52 2 78 0 6-2 11-9 12-8 0-12-4-12-11-2-11-2-22-3-33-2-17-3-34-5-52-11 6-11 6-15 15-2 4-4 7-8 9-48 29-72 73-76 128-1 6-1 10-8 10s-10 4-9 10c0 6 0 13-1 19-1 12 4 17 17 17zm197-157c37 28 54 62 57 105 1 7-3 9-8 11-19 5-38 9-58 10-5 1-7 0-6-5 4-40 9-79 15-121zm-110 2c5 40 10 78 15 117 1 6-1 8-8 7-19-2-37-4-55-10-4-1-9-2-10-8-2-33 24-91 58-106zm-73 173c-9 1-23-7-24 11-1 20 5 39 21 51 9 6 13 13 17 22 20 53 64 86 114 86 11-1 22-1 33-5 42-15 67-45 82-85 3-5 4-11 10-15 17-9 24-25 26-44s0-21-18-22c-9 0-14 1-12 12 2 13 2 27-17 29-7 1-10 8-12 15-3 13-8 24-14 36-26 44-73 61-115 40-30-15-46-42-55-74-2-7-3-16-11-17-19-2-19-14-19-28 0-5 6-14-6-12zm693 172c-1-6-4-9-8-12-23-16-49-25-76-34-6-2-9 0-13 4-29 36-66 53-112 45-32-5-56-22-76-47-2-2-3-5-8-4-18 5-36 11-53 19 30 11 60 23 86 41 7 4 11 9 12 17 2 10 4 20 7 30 24 1 48 2 74 2 20-1 50-2 81-5 30-3 59-8 89-13 5-1 6-4 5-9-3-11-6-23-8-34zM645 469c8-1 18-3 26 1 20 10 42 11 64 11 22 1 44 1 65-7 9-3 18-6 28-5 22 0 23-2 20-25v-1c0-3-2-5-5-5-6 0-6-3-6-7-3-30-15-56-37-77-9-7-20-10-24-22-1-2-3-4-6-3-2 1-1 3-1 5-2 16-3 32-4 48-1 5-2 11-8 11-8 0-8-7-8-13 1-16 1-32 2-48 1-11-5-8-11-8-6-1-10 0-9 8 1 17 1 35 1 52 0 5-1 9-6 9s-8-3-8-8l-2-22c-1-12-2-23-3-35-8 4-8 4-10 10-2 3-3 4-6 6-32 20-49 50-51 87-1 4-1 7-6 7-5-1-6 2-6 7v12c-1 9 2 12 11 12zm133-107c26 19 37 43 39 72 1 4-2 6-5 7-13 4-26 6-39 7-4 1-5 0-5-4 3-26 7-53 10-82zm-74 2c3 27 6 53 10 79 0 4-1 6-5 5-13-1-26-3-38-7-3-1-6-1-6-6-2-22 16-61 39-71zm-50 117c-6 1-16-5-16 8-1 14 3 26 15 34 5 5 8 9 11 15 14 36 44 59 77 59 8-1 15-1 23-4 28-10 45-30 56-57 1-4 2-8 6-10 11-7 16-18 18-30 1-13 0-15-13-15-6 0-9 0-8 8 2 9 2 18-11 20-5 0-7 5-8 10-2 8-6 16-10 24-17 30-49 42-78 27-21-10-31-28-37-50-1-5-3-11-8-11-13-2-12-10-12-19-1-4 3-10-5-9z"/></svg>