<svg width="64" height="64" viewBox="0 0 1000 1000" xmlns="http://www.w3.org/2000/svg"><path d="M500 938c241 0 438-197 438-438 0-183-113-340-273-405-13-6-26-10-40-14-40-12-81-19-125-19C259 62 63 259 63 500s196 438 437 438zm199-781h4c74 43 132 110 166 190-4-3-8-5-13-5-2 0-4 0-5-1-6 0-9-3-11-8-1-3-1-5-2-7 0-1-1-2-1-3-1 1-1 1-2 1 0 1-1 2-2 3s-2 2-3 4c-3 3-5 3-8-1 0-1-1-2-1-3l-2-4c0-2-1-4-2-6-2-4-3-4-6-1l-1 2c-1 1-2 2-3 2-3 3-6 3-10 1l-1-2c-2-1-3-3-3-5v-8c0-2-1-4-1-5-1-1-2-2-3-1s-2 2-4 3c-1-1-2-1-4-2-6-3-12-5-18-8-2-1-3-2-5-4-3 11-4 21-5 32-1 0-3 0-4 1l-15 3c-8 3-15 1-21-4-5-4-9-8-12-13-3-7-7-14-11-20 0-1-1-2-1-3 2-2 4-2 6-4 9-5 18-8 28-7 2 0 3 0 4-1 0 0 1-1 2-1 4-2 8-4 11-7 4-4 6-8 9-11 1-2 3-3 4-5-2-3-3-7-4-10-2-2-2-4-1-7 0-3 1-6 1-10 0-1 1-2-1-3-4-1-10-2-15-2-2 0-4-1-5-3-1-3-3-6-4-9-2-2-3-2-5-3-3 0-6 0-9-1-2 0-4-1-5-2-3-3-4-6-5-9-1-5-2-9-2-14 0-6 0-12 1-19zm-19 45c-1-3-1-4 1-5 2-2 5-3 7-1 2 1 3 2 4 3 2 3 5 6 8 7 5 2 8 6 11 9 5 7 9 14 11 23v2c-3 3-7 5-10 7-2 1-3 2-4 2-9 2-14-2-16-9-1-5-2-11-3-16h-2c-4 2-7 3-10 5-3-4-4-7-6-11 3-3 7-5 10-8 1-3-1-5-1-8zm-4 166c3-1 5-2 7-4 4-5 9-11 13-16 1-2 3-3 5-4l21-6c6-2 12-3 18-3 11-1 23 1 33 5 2 1 4 1 5 1 7-1 13-1 20 0 6 1 11 3 16 7l27 21c5 4 5 4 11 3 9 0 18 0 26 2 14 40 21 82 21 126 0 135-68 255-171 327 1-1 1-2 1-4 1-2 2-4 3-7l9-21 11-23c2-5 2-10 1-15-1-6-2-12-3-17-1-6-2-12 1-18 3-11 9-21 17-29 3-2 5-5 7-8 3-4 6-8 7-12 3-6 3-12 2-18-1-4-2-9-4-13-1-4-3-7-4-11-2-6-2-13 0-19 1-4 2-7 4-11l4-12c2-5 3-11 3-16-1-4-1-8-2-12-1-3-3-4-7-3-1 1-2 1-4 2-4 2-7 1-9-2-2-2-4-4-7-4-2-1-4-2-7-2-8-1-16 0-24 0-6 1-12 1-18 1-1 0-3-1-5-1-5-1-9-2-14-5-8-3-15-8-22-14-11-9-21-19-31-29-2-1-2-3-3-4-1-3-1-5-1-7-1-11 0-21 2-31 2-11 5-22 8-32 2-6 3-12 3-19 0-2 0-5-2-7-1-2-1-4 0-6 1-3 3-7 5-10 6-10 16-17 27-20zm-80-210c-3 3-4 6-5 9 0 1-1 3-1 4-7-1-12-2-18-3-3-1-5-2-7-4-1 0-2-1-3-2-3-3-2-7 2-9 7-3 15-5 22-8 2-1 2-1 3 0 3 1 5 3 7 5 3 2 3 5 0 8zm-93-37c3-6 5-13 8-20 28 1 56 4 82 11-4 6-7 11-11 17-5 1-10 2-16 3-2 0-3 1-4 2l-17 20-15 18c0 1-1 1-2 2-4-1-6-4-9-6-5-4-8-10-10-15-4-8-6-16-6-25-1-2-1-4 0-7zM187 368c1-6 2-11 2-17-1-1-3-1-4-2-7-3-13-6-19-11-4-3-7-6-9-10-3-5-5-11-4-17 0-3 1-7 1-10 69-119 197-199 344-200l3 8c1 0 1 1 1 2-5 4-9 7-14 11-4 4-8 8-13 11-2-4-5-7-9-9-6-5-4-4-11-4-5 1-10 1-15 3-2 1-5 1-8 1-2 0-4-1-5-3-1 0-1-1-1-1-1-2-3-2-5-1-1 0-3 1-4 1-2 2-4 3-6 5s-5 4-7 6l-13 8c-1 1-2 2-2 4-1 3-2 5-2 8 0 4 0 8 1 12 2 5 6 7 11 5 6-2 11-5 16-9 3-3 6-6 7-10 1 0 1-1 1-2 1-1 2-1 4-1 1 1 2 1 4 2 3 1 6 1 9 0 1-1 3-2 4-3 2-1 3-3 4-4 2-2 4-3 7-5 4-1 8-1 11 4 2 3 4 6 8 8l3 3c2 2 3 4 2 6 0 3-2 6-3 8-2 2-3 4-4 6s-1 3-1 4 1 2 2 2c2 0 3-1 5-1 1 0 2-1 3-1 0 9-2 18-6 26-1 2-2 3-3 4-4 3-8 5-12 4s-7-2-9-5c-5-4-10-4-15 1-1 2-2 3-3 5s-3 3-5 4c-9 2-18 3-27 2h-4c-6 2-12 4-18 5l-6 3c-4 3-8 5-13 6-4 1-9 2-13-1-14 12-29 20-46 26-1 6-2 12-3 19l-4 22c0 2-1 3-3 3-2 1-4 0-5-1-2-2-3-4-4-5-2-5-4-10-4-16-1-7-5-12-11-15-9-4-18-6-27-4-15 2-28 9-38 21-9 9-9 9-12 22 0 5-1 10 1 14 1 5 5 8 9 9 3 1 6 1 8 0l9-1c0-1 1-1 2 0 2 0 4 2 6 4 1 2 2 4 1 7-1 2-3 4-4 6-3 2-5 3-7 5-1 1-2 1-3 2-4 4-4 8 0 11 1 1 2 1 3 2s2 1 3 2c-1 2-1 5-1 8-1 6-1 13 0 20 0 6 3 11 8 15 3 3 7 5 11 7 2 1 4 2 6 2 7 2 13 1 18-4 2-3 4-5 6-8 3-4 7-6 13-5 2 0 5 2 7 4 3 2 6 4 9 5l12 6c2 1 4 2 5 2 12 3 22 9 30 19 2 2 3 3 6 4 11 4 21 9 30 17 12 10 21 21 25 36 1 3 3 6 5 9 3 2 5 5 7 8 2 4 4 8 7 12 0 1 1 2 1 3 3 1 4 1 6 1 13 3 25 8 36 15 6 4 11 8 15 14 2 1 2 3 2 5 1 17-6 31-20 41-2 1-3 3-4 5-4 10-7 20-11 30-1 2-2 4-3 5l-15 22c-2 2-4 4-6 5l-6 3c-7 3-14 6-22 7-2 1-4 2-5 3-5 7-10 13-15 20-1 1-1 2-2 2-5 9-11 18-16 26-2 2-3 4-5 5-8 6-16 11-25 17-2 1-4 3-6 5l-12 12-3 3-11 25c-1 2-1 4-1 5 3 14 5 28 8 42v4h-3c-7-4-14-8-20-12-10-10-18-21-25-32-1-1-1-3-1-4-2-11-3-22-5-33 0-1 0-2-1-3-2-3-3-6-3-9-2-8-1-15 0-22l4-27c0-1 0-2-1-3-2-3-2-6-3-10 0-7 1-13 3-20 1-2 1-4 1-7l4-23c0-3 1-7 1-10-1 0-1-1-2-1-4-4-7-9-8-14-1-4-1-8 0-12 1-3 1-6 2-9l-4-2c-7-5-13-10-18-17-5-6-11-12-16-19-2-3-3-6-5-8-2-5-4-10-2-16 0-1 0-2-1-3-3-9-3-18-3-27 1-7 3-12 6-18 2-3 4-6 7-10 4-5 8-11 12-17 4-5 6-11 7-18 1-3 1-6 1-9 0-5-2-9-6-12-5-3-9-6-13-9-3-2-4-4-4-7-2-6-3-12-5-18 0-2-1-4-3-5-3-3-5-5-8-7l-3-3zm117-13c0-1 1-1 2-1l9-5 7-3c1 0 2 0 2-1 3 2 5 3 8 5 2 2 5 2 8 3-1 4-1 7-3 10-2 0-3 0-4-1-5-2-10-3-16-3h-13c-1 0-2 0-2-2-1-1 1-2 2-2zm-11-21c-9-1-18-3-27-5-3 0-5 0-7-3 2-6 6-9 12-10 5-1 9 0 12 3 5 5 12 7 18 7 4 0 8 1 11 2 1 0 3 1 4 2v2c0 1-1 2-1 2-3 0-5 1-8 1h-4c-3 0-7-1-10-1z"/></svg>