<svg width="64" height="64" viewBox="0 0 1000 1000" xmlns="http://www.w3.org/2000/svg"><path d="M812 119c21 9 39 21 54 36 64 62 87 138 61 223-25 86-86 137-173 154-30 6-61 3-92 8-46 8-91 22-132 46-11 6-20 13-29 23-76 81-151 162-228 243-55 59-143 52-190-13-35-50-24-124 24-160 129-98 258-196 388-293 9-7 12-12 9-24-5-19-7-39-5-59 0-9 4-13 14-13h119c40 0 80 0 120 1 6 0 12-2 16-7l2-2c13-13 31-24 39-40s2-37 2-56c1-22 0-44 1-67zM198 698c-33 0-60 26-60 58s26 60 58 60c35 0 60-26 60-61 0-32-26-57-58-57zm400-225c7 2 11-3 15-10 14-27 29-54 44-82 7-13 4-23-9-31-14-8-28-5-35 8-14 25-28 50-41 75-11 20 2 41 26 40zm78 1c7 1 11-3 15-10 15-29 31-57 46-86 2-4 4-7 3-11-4-12-14-19-25-21s-20 2-25 13c-13 25-27 49-40 74-11 20 1 41 26 41zm78-1c6 1 11-2 15-9 15-29 31-58 47-87 1-3 4-5 3-9-4-12-13-20-25-22-10-2-19 1-25 12-13 25-27 50-41 75-11 20 2 41 26 40zM582 245h-63c-6 0-9-1-6-8 26-62 70-105 133-128 8-3 9 0 9 7v119c0 9-4 10-11 10h-62z"/></svg>