<svg width="64" height="64" viewBox="0 0 1000 1000" xmlns="http://www.w3.org/2000/svg"><path d="M557 207c-2 0-3 0-4 1s-1 2-1 4c0 1 0 2 1 3s3 1 4 1 2 0 3-1 2-2 2-4c0-1 0-2-1-3s-2-1-4-1zm11-88c1 0 4-1 4-2 1-1 2-2 2-3v-7h-12v7c0 1 1 2 2 3 0 1 2 2 4 2zm0 107c-1-1-4-1-7-1s-5 0-6 1c-2 1-3 2-3 4 0 1 0 3 2 4 1 1 4 1 7 1s5 0 7-1 3-2 3-4-1-3-3-4zm52 416l17-612s-5-15-9-21-3-7-3-7l-86-1V0h-74v1l-86 1s-3 1-7 7-7 21-7 21l17 612-16 327s-8 26 6 28c10 2 56 3 93 3h37c37 0 101-1 111-3 14-2 22-28 22-28l-15-327zM547 97l10-6-10-7v-4l14 9 13-8v4l-9 6 9 6v4l-13-8-14 8v-4zm0 7h27v11c0 3-1 5-3 6-1 1-2 1-3 1-2 0-3 0-4-1 0 0-1-1-1-2-1 1-1 2-2 3s-2 2-4 2-4-1-6-2-4-4-4-7v-11zm-45 600c-28 0-51-23-51-51s23-50 51-50 50 22 50 50-22 51-50 51zm68-467c-2 1-5 1-8 1-4 0-6 0-8-1-3-2-5-4-5-7s1-5 4-6c2-2 5-2 8-2s5 0 7 1c4 1 5 4 5 7s-1 5-3 7zm-17-41c1 1 2 1 3 1 2 0 3 0 4-1 0-1 1-3 1-5v-1h2v2c0 1 0 2 1 2 0 2 1 2 3 2 1 0 2 0 3-1 0-1 1-2 1-3 0-2-3-3-4-4-1 0-5-1-5-1v-2c4 0 5 0 6 1 2 1 4 3 4 6 0 2 0 4-1 6-1 1-2 2-4 2s-3-1-4-2l-1-1c0 1-1 2-2 2-1 1-2 2-3 2-3 0-5-1-6-3-1-1-2-3-2-6s0-5 1-6c2-1 1-2 5-2v3c-4 0-2 1-2 1-2 1-2 2-2 4s1 3 2 4zm16 21c-2 1-3 2-7 2v-3c4 0 4-1 5-1 1-1 3-2 3-3 0-2-1-3-2-4-2-1-4-2-6-2 1 1 1 2 2 3 0 1 1 2 1 3 0 2-1 4-2 5-2 2-3 2-6 2-2 0-4 0-6-2-1-1-2-3-2-6 0-2 1-4 2-5 2-2 5-3 9-3 3 0 5 1 7 1 4 2 5 4 5 8 0 2-2 4-3 5zm5-61l-9 6 9 7v3l-13-8-14 9v-4l10-7-10-7v-4l14 9 13-8v4zm-4-9c-2 2-4 3-8 3-3 0-6-1-9-3s-4-5-4-9 1-7 4-9c2-2 5-3 9-3 3 0 6 1 8 2 3 3 5 6 5 10s-2 7-5 9zm-9-18c-2 0-5 1-6 2-2 2-3 4-3 7s1 5 3 6c2 2 4 2 7 2s5 0 7-2c2-1 3-3 3-6s-1-5-3-6c-2-2-4-3-8-3zm-7-10c0 1 2 1 3 1s3-1 4-2c0-1 1-2 1-4v-7h-11v8c0 2 1 4 3 4z"/></svg>