<svg width="64" height="64" viewBox="0 0 1000 1000" xmlns="http://www.w3.org/2000/svg"><path d="M598 94c0 52-42 94-94 94s-94-42-94-94 42-94 94-94 94 42 94 94zm111 112H290c-15 0-27 13-27 28v292c0 16 12 28 27 28h103v395c0 28 22 51 45 51s41-23 41-51V667h52v282c0 28 18 51 41 51s43-23 43-51V554h94c15 0 28-13 28-28V234c0-15-12-28-28-28zm-198 95h86c3 0 5 1 7 3s2 5 2 8l-2 16-82 8h-11v-35zm0 90c5 0 9 0 13-1l74-7-3 27-73 8h-11v-27zm11-14h-11v-27c4 0 9 0 12-1l80-8-4 27-77 9zm-25 117h-61c-7 0-13-6-14-13l-2-17 70 8c2 1 4 1 7 1v21zm0-35c-2 0-4 0-6-1l-73-8-3-26 70 7c4 1 8 1 12 1v27zm0-41h-10l-73-8-4-27 75 7c4 1 8 1 12 1v27zm0-41h-10l-78-9-4-26 80 7c3 1 8 1 12 1v27zm0-41h-11l-82-9-2-15c-1-3 0-6 2-8s4-3 7-3h86v35zm0-49h-86c-7 0-13 3-17 8-5 5-7 11-6 18l20 170c2 14 14 25 28 25h61v27H350c-3-2-5-5-5-9V281c0-6 5-12 11-12h141v18zm0-32H356c-14 0-25 12-25 26v245c0 4 0 7 2 9h-43c-5 0-9-4-9-9V234c0-5 4-9 9-9h207v30zm14 177c4 0 9 0 13-1l69-7-4 27-63 7c-4 1-10 1-15 1v-27zm0 41c6 0 12 0 17-1l60-7-2 16c-1 7-7 13-14 13h-61v-21zm147 62H511v-27h61c14 0 26-11 28-25l20-170c1-7-1-13-6-18-4-5-10-8-17-8h-86v-18h140c6 0 12 6 12 12v245c0 4-2 7-5 9zm61-9c0 5-5 9-10 9h-34c1-2 2-5 2-9V281c0-14-12-25-26-25H511v-31h198c5 0 10 4 10 9v292z"/></svg>