<svg width="64" height="64" viewBox="0 0 1000 1000" xmlns="http://www.w3.org/2000/svg"><path d="M333 256v135h49V257l29-94c16-52 30-95 31-97 1-3-4-4-25-4h-25l-4 13c-2 7-9 35-17 62s-13 50-14 50-8-27-17-60c-8-33-16-61-17-62-1-2-12-2-26-2l-24 1 30 96 30 96zm271 121c3 5 7 11 11 13 8 4 25 4 35 0 4-2 13-8 19-14l12-10v25h46V145h-46v189l-9 9c-10 10-18 14-24 9-3-3-3-18-3-105V145h-47l1 111c0 104 1 113 5 121zm-152-3c8 9 15 14 25 17 16 6 24 6 41 1s35-21 41-38c3-11 4-22 4-85 0-79-1-87-16-105-22-27-74-27-96-1-16 18-17 26-17 105 0 82 1 88 18 106zm30-179c6-13 27-13 33 0 2 4 3 29 3 75 0 71-1 79-11 83-2 1-6 1-9 1-18 0-19-5-19-85 0-45 1-70 3-74zm99 441c-6-2-9-2-18 3l-11 6v149l9 5c12 7 16 7 25 0l6-6 1-68c1-76 0-85-12-89zm282 26c-1-44-3-91-4-104-8-71-30-105-77-117-24-6-89-9-229-10-129-2-261 1-312 6-52 6-80 31-93 83-13 58-16 225-5 305 4 22 14 52 22 66 22 33 54 41 173 45 80 3 320 1 378-2 54-3 67-6 86-15 51-25 64-81 61-257zM323 561h-26v280h-49V561h-51v-46h153v46h-27zm149 159v121h-46v-25l-11 10c-6 5-14 12-18 14-11 5-32 5-40-2-13-9-14-19-14-135V598h46v99c0 88 1 101 4 104 6 6 11 4 22-7l11-11V598h46v122zm167 11c0 78 0 80-6 92-3 6-9 13-14 16-9 6-28 6-39 1-4-2-12-7-18-12l-10-9v22h-44V515h44v105l12-10c11-10 25-17 35-17 11 0 24 8 30 18 10 17 11 33 10 120zm163 46c-2 33-12 51-36 62-16 7-43 7-60-2-15-7-25-19-31-35-4-9-5-22-6-75-1-82 2-98 23-117 13-11 25-15 43-15 21-1 36 5 49 20 15 17 19 31 19 76v36h-88v28c0 23 1 31 4 38 6 11 17 14 27 8 8-5 11-13 11-30v-15h47l-2 21zm-45-87v-18c0-23-5-34-14-36-20-5-28 6-28 36v18h42z"/></svg>