<svg width="64" height="64" viewBox="0 0 1000 1000" xmlns="http://www.w3.org/2000/svg"><path d="M1000 429h-2v-29c0-10-1-19-2-29 0-12-2-24-3-36s-1-24-3-35c-4-18-9-35-14-52-4-15-11-30-22-42-23-27-53-41-88-45-19-2-38-3-56-4-17-1-34-2-52-3-25-1-51-2-77-2-25-1-51-2-76-2-49 0-99-1-149 0-50 0-100 1-150 2-22 1-43 1-64 2-7 0-13 1-20 1-22 1-44 2-66 4-15 1-30 3-44 6-32 8-57 25-74 53-13 20-20 42-24 66-4 19-6 38-8 57s-3 39-4 58c-1 16-2 32-2 48 0 45 0 90 1 135 0 12 1 23 2 34 1 16 2 32 4 48 1 12 1 24 3 36 3 20 9 40 16 59 13 36 39 59 74 71 23 8 47 10 70 12 19 2 38 2 57 3 16 1 32 2 48 2 24 1 49 1 74 2 23 0 46 1 68 1 41 0 81 1 121 1 50-1 101-2 151-3 21-1 42-1 62-2 7 0 14 0 21-1 22-1 45-2 68-4 14-1 28-2 42-5 44-10 76-35 92-78 11-29 17-59 19-90 2-17 3-35 4-52 1-23 2-45 3-68V429zM397 630V349c90 47 179 94 270 141-90 47-180 93-270 140z"/></svg>