<svg width="64" height="64" viewBox="0 0 1000 1000" xmlns="http://www.w3.org/2000/svg"><path d="M456 792c5 31 0 61-11 90-6 18-13 35-25 50-2 2-4 6-8 5-3 0-3-5-4-8-10-32-20-63-34-93-17-39-44-72-74-102-24-26-49-51-67-82-48-85-47-171-8-258 7-14 14-28 23-40 4-6 9-11 15-15 2-2 5-5 8-3 3 1 1 5 2 8-1 20-6 39-8 58-5 44-9 88 9 131 12 28 31 52 51 75 27 30 58 58 84 89 22 29 41 59 47 95zm11-231c-6-36-22-68-41-99-17-25-34-50-48-78-15-28-27-58-25-91 0-3 0-6-1-9 0-3 0-8-4-9s-7 3-9 6c-32 42-44 89-37 141 4 34 19 65 38 93 19 29 43 56 63 85 23 34 43 70 47 113 0 3-1 9 4 10 5 0 5-6 6-10 9-38 11-77 11-113-1-14-1-27-4-39zm0-243c-7-24-12-48-4-73 9-23 9-45 0-66l-2-4-1-2c-8-14-31-13-46-12 7 20 7 40-1 61-3 7-6 15-9 22-8 18-11 37-9 57 5 35 16 68 34 99 13 24 25 49 31 76 3 11 6 21 9 32 2 6 5 6 9 1 2-2 3-4 4-6 13-29 18-59 12-90-6-33-17-64-27-95zm-282-3c8 5 15 10 22 15 8 5 16 8 25 11 3 1 6 2 9 0 2-3 1-6 0-8-2-5-4-10-5-15-2-7-4-15 2-21 6-5 14-4 21-2 6 2 12 4 18 5 12 3 19-2 19-15 1-8 0-15 0-22 1-10 5-13 14-10 6 2 13 5 19 7 11 5 14 3 18-8 3-8 4-16 6-24 2-7 4-8 10-4 5 4 8 8 13 11 7 6 9 6 13-3 7-13 10-28 9-44 0-5 1-10 0-16 0-8-3-10-11-9-13 2-25 6-36 12-57 27-108 62-151 108-6 7-12 13-17 21-2 5-3 8 2 11zm11 72c-2-20-9-38-20-54-6-8-15-10-22-3-11 10-20 21-29 32-5 7-4 11 4 15 18 9 37 13 57 16 3-3 12 4 10-6zm657 30c-4-5-8-10-13-15-71-73-143-146-214-220-14-14-27-28-50-25-6 0-9-1-11-8-8-34-34-55-60-77-17-14-27-14-33 9-4 13-10 27-13 41-3 24 2 46 17 65 3 4 7 11 14 7 6-2 3-9 4-13 2-23 3-45 5-71 24 15 31 33 27 56-3 16-12 30-21 43-11 20-24 40-28 66 15-5 22-15 30-22 20-17 39-36 61-50 10-6 20-12 30-2 39 38 78 76 120 118-47 9-87 18-127 26-31 7-45 21-49 51s4 57 17 84c3 6 7 8 13 9 16 1 31 2 48 3-7-28-19-52-22-79-2-20 1-39 23-46 34-11 68-15 103-20 6 0 11 1 12 7 1 5-2 10-7 12-13 4-26 9-39 13-55 17-60 27-44 84 2 6 4 11 5 17 4 20 22 17 33 15 13-3 2-15 0-23-2-10-5-20-8-29-7-19-1-32 19-37 26-6 53-10 80-15 5-1 13-1 14 7 1 6-4 11-9 13-13 5-26 9-39 13-27 8-32 20-26 48 9 39 41 44 71 52 30 7 66-12 85-42 18-28-1-46-18-65zM657 292c1-17-10-24-26-25-16 1-29 7-29 25-1 15 9 23 24 23 16 0 30-5 31-23z"/></svg>