<svg width="64" height="64" viewBox="0 0 1000 1000" xmlns="http://www.w3.org/2000/svg"><path d="M153 847h694V153H153v694zm260-326s-22 25-25 79c0 0-2 37 11 121 0 0 9 52 12 60 0 0 11 39-20 31 0 0-30-5-55-40 0 0-56-70-40-178 0 0 3-88 64-139 0 0 50-53 127-44 0 0 44 3 25 34 0 0-18 15-28 22 0 0-55 33-71 54zm327 167s-28 51-101 66c0 0-59 13-125-37 0 0-54-39-62-93 0 0-7-59 29-104 0 0 43-54 51-5 0 0 3 58 9 75 0 0 19 53 87 57 0 0 43 4 82-12 0 0 33-11 45-1 0 0 18 6-15 54zM564 403s19-23 56-16c16 3 39 18 46 43 0 0 23 64-36 85 0 0-46 15-77-21 0 0-31-38 11-91zm-57-216s24-15 66-3c0 0 88 24 158 122 0 0 83 126 24 218 0 0-13 24-36 32 0 0-20 9-15-31 0 0 4-70-17-108 0 0-22-63-85-98 0 0-55-40-72-50 0 0-31-23-41-37 0 0-24-27 18-45zM183 493s22-77 101-133c0 0 70-47 159-51 0 0 48-4 86 16 0 0 43 17 13 37 0 0-51 18-79 23 0 0-60 14-115 53 0 0-44 35-64 65 0 0-32 50-45 57 0 0-23 29-52 6 0 0-24-23-4-73zm16-431l-7 50 404-1-397-49zm689 131l1 403 49-396-50-7zm-81 745l7-50H416l391 50zM63 802l49 6V406L63 802z"/></svg>