<svg width="20" height="20" viewBox="0 0 20 20" xmlns="http://www.w3.org/2000/svg"><path d="M3.073 8.982a7.058 7.058 0 0 0 0 2.036L.34 13.268l2 3.464 3.316-1.242c.53.42 1.123.765 1.762 1.018L8 20h4l.582-3.492a6.993 6.993 0 0 0 1.762-1.018l3.316 1.242 2-3.464-2.733-2.25a7.058 7.058 0 0 0 0-2.036l2.733-2.25-2-3.464-3.316 1.242a6.993 6.993 0 0 0-1.762-1.018L12 0H8l-.582 3.492A6.993 6.993 0 0 0 5.656 4.51L2.34 3.268l-2 3.464 2.733 2.25zM10 13a3 3 0 1 0 0-6 3 3 0 0 0 0 6z" fill="#000" fill-rule="evenodd"/></svg>