<svg width="20" height="20" viewBox="0 0 20 20" xmlns="http://www.w3.org/2000/svg"><path d="M17.748 12c.164-.64.252-1.31.252-2s-.088-1.36-.252-2h-3.816c.045.646.068 1.315.068 2s-.023 1.354-.068 2h3.816zm-.818 2a8.027 8.027 0 0 1-4.17 3.51c.42-.96.741-2.158.951-3.51h3.219zM8.08 12a24.61 24.61 0 0 1 0-4h3.838a24.61 24.61 0 0 1 0 4H8.08zm.251 2c.413 2.392 1.127 4 1.668 4 .54 0 1.255-1.608 1.668-4H8.332zm-6.08-2A8.014 8.014 0 0 1 2 10c0-.69.088-1.36.252-2h3.816A28.81 28.81 0 0 0 6 10c0 .685.023 1.354.068 2H2.252zm.818 2a8.027 8.027 0 0 0 4.17 3.51c-.42-.96-.741-2.158-.951-3.51H3.07zm13.86-8a8.027 8.027 0 0 0-4.17-3.51c.42.96.741 2.158.951 3.51h3.219zM8.332 6C8.745 3.608 9.46 2 10 2c.54 0 1.255 1.608 1.668 4H8.332zM3.07 6a8.027 8.027 0 0 1 4.17-3.51c-.42.96-.741 2.158-.951 3.51H3.07zM10 20c5.523 0 10-4.477 10-10S15.523 0 10 0 0 4.477 0 10s4.477 10 10 10z" fill="#000" fill-rule="evenodd"/></svg>