<svg width="20" height="20" viewBox="0 0 20 20" xmlns="http://www.w3.org/2000/svg"><path d="M14 .535A3.998 3.998 0 0 0 12 4c0 1.48.804 2.773 2 3.465v10.543c0 1.099.895 1.992 2 1.992 1.112 0 2-.892 2-1.992V7.465A3.998 3.998 0 0 0 20 4c0-1.48-.804-2.773-2-3.465V4h-4V.535zm-8 9.73V5H4v5.266c-.6.345-1 .992-1 1.734v6c0 1.113.895 2 2 2 1.112 0 2-.895 2-2v-6c0-.746-.402-1.39-1-1.734zM7 3h1a1 1 0 0 0 1 1h1V0H9c-.553 0-.995.447-1 1H7V.999C7 .443 6.548 0 5.99 0H4.01c-.567 0-1.328.318-1.721.711L0 3v2l2.164-1.443c.468-.312 1.036-.156 1.283.338L4 5h2l1-2z" fill="#000" fill-rule="evenodd"/></svg>