<svg width="20" height="20" viewBox="0 0 20 20" xmlns="http://www.w3.org/2000/svg"><path d="M16.617 6.212A11.049 11.049 0 0 1 19.8 10 11 11 0 0 1 10 16c-.971 0-1.913-.126-2.81-.362l1.774-1.773A4.005 4.005 0 0 0 14 10c0-.358-.047-.706-.135-1.036l2.752-2.752zm-3.807-1.85A11.017 11.017 0 0 0 10 4a11 11 0 0 0-9.8 6 11.048 11.048 0 0 0 3.183 3.788l2.752-2.752A4.005 4.005 0 0 1 10 6c.358 0 .706.047 1.036.135l1.774-1.773zm3.554-2.14l1.414 1.414L3.636 17.778l-1.414-1.414L16.364 2.222z" fill="#000" fill-rule="evenodd"/></svg>