<?xml version="1.0" standalone="no"?>
<!DOCTYPE svg PUBLIC "-//W3C//DTD SVG 1.1//EN" "http://www.w3.org/Graphics/SVG/1.1/DTD/svg11.dtd" >
<svg xmlns="http://www.w3.org/2000/svg">
<defs>
  <font id="icon-fonts" horiz-adv-x="136">
    <font-face font-family="icon-fonts"
      units-per-em="128" ascent="128"
      descent="0" />
    <missing-glyph horiz-adv-x="0" />
    <glyph glyph-name="Airbnb"
      unicode="&#xEA01;"
      horiz-adv-x="128" d="M118.144 38.016L117.632 39.656C117.12 40.752 116.864 41.848 116.352 42.664C115.84 43.76 115.584 44.856 115.072 45.672L113.528 48.952L113.272 49.232A1410.864 1410.864 0 0 1 87.384 105.848L87.128 106.664A42.336 42.336 0 0 0 84.312 112.68L83.8 113.232A30.696000000000005 30.696000000000005 0 0 1 79.696 119.792A19.84 19.84 0 0 1 63.808 128C57.656 128 52.016 125.264 47.92 120.072C46.12 117.608 44.84 115.144 43.56 112.952C42.536 111.04 41.768 108.856 40.744 106.944L40.488 106.12C30.48 85.608 21.776 67.008 14.344 49.504L14.088 49.232C13.576 48.136 13.064 47.04 12.808 45.952C12.296 44.856 12.04 44.032 11.528 42.944C11.008 41.576 10.248 39.928 9.728 38.288A34.312 34.312 0 0 1 8.192 24.072C9.472 14.224 15.632 6.016 24.336 2.192C27.416 0.824 30.744 0 34.336 0C35.36 0 36.64 0.272 37.664 0.272A30.416 30.416 0 0 1 49.968 4.648C54.584 7.384 58.936 11.208 64.064 16.96A69.2 69.2 0 0 1 78.16 4.64C82 2.184 86.104 0.816 90.464 0.264C91.232 0.264 92.512 -0.008 93.792 -0.008A23.52 23.52 0 0 1 103.792 2.184C112.248 5.736 118.4 14.216 119.936 24.064C120.192 28.16 119.68 32.816 118.144 38.008zM52.784 61.808C53.04 63.456 53.56 65.088 54.328 66.464C56.376 69.744 59.704 71.384 63.552 71.384C67.656 71.384 70.992 69.464 72.776 66.464C73.8 65.096 74.32 63.456 74.576 61.808C74.832 59.624 74.832 57.168 74.32 54.704C73.04 48.68 69.44 41.296 63.552 33.096C57.912 41.024 54.072 48.408 52.784 54.696A32.872 32.872 0 0 0 52.784 61.816zM84.312 51.968C85.08 55.792 85.336 59.352 84.824 63.176C84.312 66.456 83.288 69.736 81.496 72.208A20.56 20.56 0 0 1 63.808 81.776C56.632 81.776 50.224 78.224 46.128 72.208A22.431999999999995 22.431999999999995 0 0 1 42.792 63.176A33.36 33.36 0 0 1 43.304 51.968C45.096 43.76 49.712 34.464 57.144 24.344C52.784 19.144 48.688 15.592 44.84 13.128C42.024 11.488 39.2 10.392 36.384 10.12C33.568 9.848 30.744 10.12 27.928 11.216A17.52 17.52 0 0 0 17.928 24.896C17.672 28.448 17.928 31.176 19.208 34.464C19.472 35.28 19.728 36.104 20.24 36.92C20.496 37.472 20.496 37.744 20.752 38.288C21.52 40.208 22.544 42.392 23.312 44.584V44.856A1881.848 1881.848 0 0 0 49.2 101.2L49.456 102.016C49.968 102.84 50.48 103.936 50.992 105.024C51.504 106.12 52.016 106.944 52.528 108.032C53.56 110.224 54.584 111.864 55.608 113.232C57.912 115.968 60.728 117.336 64.064 117.336C67.4 117.336 70.216 115.968 72.52 113.232C73.544 111.864 74.576 110.224 75.6 108.032C76.112 107.216 76.624 106.12 76.88 105.024C77.392 103.928 77.904 103.104 78.16 102.288L78.416 101.472C87.384 82.872 95.848 64 104.048 45.4L104.304 44.856C104.816 43.76 105.072 42.936 105.584 41.848C106.096 40.752 106.608 39.656 106.864 38.84C107.12 38.288 107.12 38.016 107.376 37.472C107.888 36.648 108.144 35.832 108.4 35.008C109.432 31.728 109.68 28.72 109.176 25.984A17.52 17.52 0 0 0 99.176 12.304C96.616 11.216 93.792 10.664 90.976 11.216C88.16 11.488 85.336 12.576 82.52 14.224C78.68 16.408 74.832 19.968 70.216 25.432C77.904 34.464 82.52 43.76 84.312 51.968z" />
    <glyph glyph-name="Amazon"
      unicode="&#xEA02;"
      horiz-adv-x="128" d="M67.744 58.776A13.696 13.696 0 0 0 58.696 51.416C58.136 51.416 57.288 51.136 56.44 51.136C50.224 51.136 46.552 55.936 46.552 63.008C46.552 72.056 51.92 76.288 58.696 78.272C62.368 79.12 66.616 79.408 70.856 79.408V76C70.856 69.504 71.128 64.424 67.736 58.768zM70.848 92.392C67.176 92.112 62.928 91.832 58.688 91.272C52.2 90.424 45.704 89.288 40.344 86.744C29.896 82.504 22.824 73.464 22.824 60.184C22.824 43.504 33.56 35.032 47.128 35.032C51.64 35.032 55.312 35.608 58.696 36.44C64.072 38.144 68.584 41.256 73.952 46.912C77.056 42.672 77.912 40.68 83.272 36.16C84.688 35.6 86.104 35.6 87.224 36.44C90.616 39.272 96.56 44.36 99.656 47.184C101.072 48.32 100.792 50.016 99.936 51.424C96.832 55.376 93.72 58.776 93.72 66.4V91.84C93.72 102.576 94.576 112.464 86.664 119.808C80.176 125.728 70 128 62.088 128H58.696C44.296 127.168 29.048 120.944 25.648 103.136C25.088 100.872 26.784 100.032 27.912 99.752L43.736 97.768C45.424 98.056 46.28 99.472 46.552 100.872C47.96 107.088 53.048 110.2 58.696 110.776H59.832C63.224 110.776 66.896 109.36 68.872 106.528C71.128 103.136 70.848 98.608 70.848 94.656V92.392zM127.984 32.144A6.080000000000001 6.080000000000001 0 0 1 127.088 35.344L127.032 35.424L126.96 35.504C126.4 36.128 125.856 36.36 125.272 36.616C123.512 37.296 120.96 37.656 117.896 37.656C115.688 37.656 113.256 37.448 110.808 36.92V37.08L108.344 36.264L108.296 36.24L106.904 35.784V35.728C105.272 35.048 103.784 34.208 102.416 33.208C101.552 32.568 100.848 31.712 100.816 30.408A2.608 2.608 0 0 1 101.744 28.408A2.984 2.984 0 0 1 104.04 27.792H104.16L104.248 27.816C105.448 28.072 107.208 28.24 109.264 28.536A50.32 50.32 0 0 0 114.504 28.864C115.648 28.872 116.68 28.792 117.384 28.64A3.224 3.224 0 0 0 118.264 28.352C118.288 28.248 118.344 27.992 118.328 27.64C118.344 26.28 117.768 23.768 116.984 21.32C116.216 18.864 115.28 16.4 114.664 14.76A3.32 3.32 0 0 1 114.416 13.52A2.704 2.704 0 0 1 115.24 11.544C115.8 11.016 116.52 10.808 117.128 10.808H117.152A3.7840000000000003 3.7840000000000003 0 0 1 119.488 11.688C125.728 17.312 127.912 26.288 128 31.336L127.984 32.136zM109.464 24.36A4.384 4.384 0 0 1 107.56 23.928C106.872 23.656 106.176 23.344 105.512 23.064L104.544 22.656L103.28 22.152V22.136C89.544 16.568 75.12 13.296 61.76 13.016C61.28 12.992 60.776 12.992 60.304 12.992C39.304 12.984 22.176 22.72 4.896 32.32A3.952 3.952 0 0 1 3.072 32.8A3.192 3.192 0 0 1 0.912 31.968A2.96 2.96 0 0 1 0 29.824C0 28.784 0.56 27.816 1.344 27.184C17.568 13.104 35.344 0.016 59.248 0L60.664 0.024C75.872 0.36 93.072 5.504 106.424 13.888L106.504 13.944C108.256 14.984 110 16.184 111.648 17.496A4.104 4.104 0 0 1 113.376 20.68A3.816 3.816 0 0 1 109.464 24.36z" />
    <glyph glyph-name="Android"
      unicode="&#xEA03;"
      horiz-adv-x="128" d="M79.272 102.4A3.7680000000000002 3.7680000000000002 0 0 0 75.456 106.112A3.7600000000000002 3.7600000000000002 0 0 0 79.272 109.824A3.7600000000000002 3.7600000000000002 0 0 0 83.088 106.112A3.7680000000000002 3.7680000000000002 0 0 0 79.272 102.4zM48.728 102.4A3.7680000000000002 3.7680000000000002 0 0 0 44.912 106.112A3.7600000000000002 3.7600000000000002 0 0 0 48.728 109.824A3.7600000000000002 3.7600000000000002 0 0 0 52.544 106.112A3.7680000000000002 3.7680000000000002 0 0 0 48.728 102.4zM81.528 117.28L82.952 119.376L84.376 121.44L87.544 126.08A1.208 1.208 0 0 1 87.2 127.784A1.28 1.28 0 0 1 85.44 127.432L80.6 120.384L79.152 118.264A42.848 42.848 0 0 1 64 120.976A42.88 42.88 0 0 1 48.856 118.272L47.416 120.392L45.976 122.472L42.592 127.44A1.304 1.304 0 0 1 40.8 127.792A1.224 1.224 0 0 1 40.448 126.072L43.616 121.432L45.04 119.376L46.472 117.28C35.672 112.384 28.36 103.104 28.36 92.48H99.624C99.624 103.104 92.32 112.384 81.52 117.28zM28.92 87.536H28.368V33.032C28.368 28.704 31.976 25.184 36.432 25.184H42.248A6.976 6.976 0 0 1 41.936 23.12V7.432C41.936 3.328 45.368 0 49.576 0A7.5360000000000005 7.5360000000000005 0 0 1 57.216 7.432V23.12A7.239999999999999 7.239999999999999 0 0 1 56.912 25.184H71.088A7.232 7.232 0 0 1 70.792 23.12V7.432C70.792 3.328 74.208 0 78.424 0C82.64 0 86.072 3.328 86.072 7.432V23.12A6.983999999999999 6.983999999999999 0 0 1 85.752 25.184H91.576A7.960000000000001 7.960000000000001 0 0 1 99.632 33.024V87.544H28.912zM15.64 87.536A7.5360000000000005 7.5360000000000005 0 0 1 8 80.104V48.32C8 44.216 11.416 40.888 15.64 40.888A7.5360000000000005 7.5360000000000005 0 0 1 23.272 48.32V80.104A7.5360000000000005 7.5360000000000005 0 0 1 15.64 87.536zM112.368 87.536A7.5360000000000005 7.5360000000000005 0 0 1 104.728 80.104V48.32C104.728 44.216 108.144 40.888 112.368 40.888A7.5360000000000005 7.5360000000000005 0 0 1 120 48.32V80.104A7.5360000000000005 7.5360000000000005 0 0 1 112.368 87.536z" />
    <glyph glyph-name="Apple"
      unicode="&#xEA04;"
      horiz-adv-x="128" d="M82.24 107.224C86.512 112.608 89.752 120.224 88.576 128C81.592 127.52 73.424 123.16 68.656 117.472C64.312 112.312 60.736 104.648 62.128 97.2C69.776 96.968 77.656 101.44 82.232 107.224zM120 34.08C116.944 27.424 115.472 24.456 111.528 18.56C106.04 10.336 98.288 0.088 88.68 0.016C80.152 -0.072 77.952 5.472 66.368 5.408C54.792 5.344 52.376 -0.088 43.832 -0.008C34.232 0.072 26.888 9.32 21.392 17.544C6.016 40.536 4.4 67.52 13.88 81.872C20.624 92.064 31.264 98.024 41.256 98.024C51.424 98.024 57.824 92.544 66.248 92.544C74.416 92.544 79.392 98.04 91.152 98.04C100.056 98.04 109.496 93.272 116.208 85.056C94.2 73.216 97.76 42.344 120 34.088z" />
    <glyph glyph-name="Behance"
      unicode="&#xEA05;"
      horiz-adv-x="128" d="M81.792 90.648H115.688V100.36H81.792V90.648zM89.824 69.464C87.664 67.264 86.304 64.288 85.744 60.528H112.104C111.824 64.536 110.456 67.568 108.032 69.648C105.584 71.728 102.56 72.76 98.952 72.76C95.032 72.76 91.984 71.656 89.824 69.464zM112.704 82.504C116.784 80.704 120.144 77.848 122.8 73.96C125.216 70.528 126.768 66.552 127.472 62.032C127.888 59.392 128.056 55.552 127.984 50.576H85.368C85.624 44.792 87.64 40.728 91.496 38.4C93.824 36.96 96.632 36.232 99.928 36.232C103.4 36.232 106.232 37.112 108.408 38.872C109.608 39.832 110.664 41.152 111.56 42.84H127.184C126.768 39.432 124.864 35.944 121.512 32.416C116.272 26.808 108.936 24 99.512 24C91.72 24 84.848 26.36 78.912 31.096C72.944 35.824 69.976 43.536 69.976 54.192C69.976 64.192 72.664 71.872 78.032 77.208C83.408 82.528 90.368 85.208 98.944 85.208C104.04 85.208 108.624 84.304 112.704 82.496zM15.76 60.32V39.512H34.96C38.4 39.512 41.072 39.968 42.976 40.88C46.448 42.592 48.176 45.832 48.176 50.624C48.176 54.696 46.512 57.48 43.144 59C41.264 59.848 38.624 60.288 35.232 60.32H15.768zM15.76 90.448V73.232H34.992C38.416 73.232 41.208 73.872 43.36 75.168C45.504 76.464 46.576 78.752 46.576 82.016C46.576 85.664 45.16 88.056 42.336 89.232C39.88 90.04 36.76 90.448 32.976 90.448H15.768zM58.72 95.688C61.136 92.368 62.344 88.408 62.344 83.768C62.344 79.016 61.136 75.176 58.688 72.28C57.32 70.664 55.304 69.176 52.648 67.84C56.688 66.384 59.728 64.096 61.792 60.952C63.84 57.816 64.872 54 64.872 49.512C64.872 44.896 63.696 40.744 61.344 37.072A21.68 21.68 0 0 0 46.808 27.016A55.68000000000001 55.68000000000001 0 0 0 35.632 25.968H0V104H38.224C47.872 103.856 54.704 101.088 58.728 95.68z" />
    <glyph glyph-name="Behance-Square"
      unicode="&#xEA06;"
      horiz-adv-x="128" d="M104 128A23.119999999999997 23.119999999999997 0 0 0 120.96 120.96A23.119999999999997 23.119999999999997 0 0 0 128 104V24A23.119999999999997 23.119999999999997 0 0 0 120.96 7.04A23.119999999999997 23.119999999999997 0 0 0 104 0H24A23.119999999999997 23.119999999999997 0 0 0 7.04 7.04A23.119999999999997 23.119999999999997 0 0 0 0 24V104C0 110.608 2.344 116.264 7.04 120.96A23.119999999999997 23.119999999999997 0 0 0 24 128H104zM41.584 97.416H10.664V31.832H42.504C49 31.832 54.472 33.432 58.92 36.632C63.36 39.816 65.584 44.552 65.584 50.832C65.584 59.608 61.608 65.168 53.664 67.504C59.608 70.384 62.584 74.944 62.584 81.168C62.584 84.336 62.04 87.008 60.96 89.208A11.496 11.496 0 0 1 56.248 94.248A22.16 22.16 0 0 1 49.664 96.712A41.08 41.08 0 0 1 41.584 97.416zM39.744 70.92H25.088V86.24H38.672C45.288 86.24 48.592 83.744 48.592 78.744C48.592 73.52 45.648 70.904 39.76 70.904zM40.504 43H25.08V61.08H40.84C47.72 61.08 51.16 57.944 51.16 51.664C51.16 45.888 47.608 43 40.504 43zM94.664 40.336C90.888 40.336 88 41.392 86 43.504C84 45.608 83 48.584 83 52.416H117.248C117.304 52.976 117.328 53.808 117.328 54.92C117.328 62.248 115.264 68.376 111.128 73.288C106.984 78.208 101.336 80.664 94.168 80.664C87.048 80.664 81.224 78.28 76.664 73.504C72.104 68.72 69.832 62.72 69.832 55.504C69.832 48 72.024 41.976 76.416 37.424C80.808 32.864 86.72 30.584 94.168 30.584C105.552 30.584 112.968 35.888 116.416 46.504H104.92C104.304 44.608 102.984 43.112 100.96 42A12.928000000000003 12.928000000000003 0 0 0 94.664 40.336zM93.832 70.832C100.112 70.832 103.552 67.448 104.168 60.672H83C83.224 63.776 84.304 66.248 86.248 68.08C88.192 69.92 90.728 70.832 93.832 70.832zM80.336 86.584H106.92V93H80.336V86.584z" />
    <glyph glyph-name="Dribbble"
      unicode="&#xEA07;"
      horiz-adv-x="128" d="M85.336 13.664C83 27.056 79.112 40.888 73.664 55.168H73.504L73.336 55.088L69.752 53.712C68.248 53.128 65.448 51.76 61.336 49.632C57.224 47.488 53.416 45.208 49.92 42.792A72.32 72.32 0 0 1 39 33.248A44.648 44.648 0 0 1 30.416 20.92L29.168 21.832C39.392 13.504 51 9.336 64 9.336C71.336 9.336 78.448 10.776 85.336 13.664zM69.92 64.248C68.752 66.968 67.28 70.056 65.496 73.504C48.216 68.336 29.528 65.744 9.416 65.744C9.36 65.36 9.336 64.784 9.336 64A53.599999999999994 53.599999999999994 0 0 1 13 44.288A54.720000000000006 54.720000000000006 0 0 1 23.336 27.504A69.864 69.864 0 0 0 33.624 41.376A74.488 74.488 0 0 0 45.496 51.752C49.336 54.36 52.96 56.608 56.376 58.504A64.064 64.064 0 0 0 64.664 62.504L67.752 63.584L68.832 63.872A6.576 6.576 0 0 1 69.92 64.248zM61 81.92A286.744 286.744 0 0 1 40.664 113.416A53.936 53.936 0 0 1 21.168 97.92A54 54 0 0 1 10.496 75.248C27.28 75.248 44.112 77.472 61 81.92zM118 55.336C106.336 58.664 94.976 59.472 83.92 57.752A234.76 234.76 0 0 0 94.584 18.664A54.608 54.608 0 0 1 110 34.456A53.896 53.896 0 0 1 118 55.336zM50.92 117.08C50.864 117.08 50.808 117.056 50.752 117C50.808 117.056 50.864 117.08 50.912 117.08zM100.08 105C89.808 114.112 77.776 118.664 64 118.664A55.120000000000005 55.120000000000005 0 0 1 51.08 117.08A237.84000000000003 237.84000000000003 0 0 0 71.584 85.248C75.424 86.688 79.024 88.368 82.416 90.288C85.808 92.208 88.488 93.92 90.456 95.416A54.64 54.64 0 0 1 95.92 100.168A36.16 36.16 0 0 1 99.04 103.544L100.08 105zM118.664 64.584C118.504 77.472 114.36 88.864 106.248 98.744L106.168 98.664C105.664 98 105.136 97.32 104.584 96.624C104.024 95.928 102.824 94.696 100.96 92.92C99.096 91.136 97.12 89.456 95.04 87.88A84.8 84.8 0 0 0 86.712 82.456A86.48 86.48 0 0 0 75.752 77.08C77.136 74.136 78.36 71.504 79.416 69.16C79.528 68.84 79.712 68.344 79.96 67.712C80.208 67.072 80.416 66.608 80.584 66.336C82.584 66.608 84.656 66.808 86.792 66.92A118.25599999999999 118.25599999999999 0 0 0 98.664 66.96A137.216 137.216 0 0 0 112.712 65.624L115.752 65.128C116.584 64.984 117.272 64.864 117.832 64.752L118.664 64.584zM128 64C128 52.392 125.136 41.68 119.416 31.872A63.711999999999996 63.711999999999996 0 0 0 96.128 8.584A62.608 62.608 0 0 0 64 0A62.608 62.608 0 0 0 31.872 8.584A63.711999999999996 63.711999999999996 0 0 0 8.584 31.872A62.608 62.608 0 0 0 0 64C0 75.608 2.864 86.32 8.584 96.128A63.711999999999996 63.711999999999996 0 0 0 31.872 119.416A62.608 62.608 0 0 0 64 128C75.608 128 86.32 125.136 96.128 119.416A63.711999999999996 63.711999999999996 0 0 0 119.416 96.128A62.608 62.608 0 0 0 128 64z" />
    <glyph glyph-name="Dropbox"
      unicode="&#xEA08;"
      horiz-adv-x="128" d="M26 74.28L64 50.608L37.696 28.488L0 53.248L26 74.288zM101.84 31.2V22.824L64.16 0.08V0L64.08 0.08L64 0V0.08L26.384 22.824V31.2L37.696 23.752L64 45.792V45.952L64.08 45.872L64.16 45.952V45.792L90.536 23.752L101.848 31.2zM37.704 120L64 97.88L26 74.28L0 95.24L37.696 120zM102.008 74.28L128 53.24L90.384 28.488L64 50.608L102 74.288zM90.384 120L128 95.24L102 74.28L64 97.88L90.384 120z" />
    <glyph glyph-name="Evernote"
      unicode="&#xEA09;"
      horiz-adv-x="128" d="M85.464 67.456A24.304 24.304 0 0 1 80.664 67.16C81.08 70.68 82.504 75.008 87.504 74.832C93.048 74.632 93.824 69.232 93.848 65.584A22.232 22.232 0 0 1 85.464 67.456M109.168 105.728C108.24 110.84 105.288 113.352 102.616 114.344C99.744 115.416 93.912 116.52 86.584 117.416C80.68 118.128 73.752 118.072 69.568 117.936C69.064 121.48 66.656 124.72 63.952 125.84C56.752 128.824 45.632 128.104 42.784 127.28C40.512 126.624 38 125.28 36.6 123.224C35.664 121.848 35.056 120.08 35.056 117.624C35.056 116.224 35.096 112.936 35.128 110.024L35.2 104.448A4.672 4.672 0 0 0 30.6 99.72H18.936C16.448 99.72 14.536 99.288 13.096 98.608A8.32 8.32 0 0 1 9.816 95.928C8.264 93.768 7.992 91.112 8 88.408C8 88.408 8.024 86.184 8.544 81.896C8.976 78.576 12.464 55.376 15.792 48.328C17.072 45.584 17.936 44.44 20.464 43.232C26.104 40.744 38.976 37.976 45.016 37.184C51.04 36.392 54.816 34.728 57.072 39.592C57.072 39.6 57.52 40.8 58.128 42.56A49.52000000000001 49.52000000000001 0 0 1 60.36 58C60.36 58.4 60.92 58.408 60.92 58C60.92 55.232 60.416 45.44 67.6 42.808C70.432 41.776 76.32 40.856 82.288 40.128C87.688 39.488 91.616 37.304 91.616 23.024C91.616 14.344 89.84 13.152 80.576 13.152C73.072 13.152 70.208 12.952 70.208 19.088C70.208 24.056 74.984 23.536 78.512 23.536C80.096 23.536 78.944 24.744 78.944 27.808C78.944 30.856 80.8 32.616 79.048 32.656C66.824 33.008 59.64 32.672 59.64 16.936C59.64 2.648 64.944 0 82.288 0C95.888 0 100.688 0.456 106.288 18.4C107.408 21.936 110.096 32.744 111.72 50.888C112.744 62.36 110.752 96.992 109.16 105.728M18.384 103.208H30.064C30.728 103.208 31.264 103.768 31.264 104.448C31.264 104.448 31.128 114.752 31.128 117.616V117.648C31.128 120 31.608 122.048 32.44 123.768L32.84 124.536C32.792 124.536 32.76 124.512 32.704 124.464L10.04 101.32A0.272 0.272 0 0 1 9.96 101.184L11.16 101.784A16.96 16.96 0 0 0 18.384 103.208" />
    <glyph glyph-name="Facebook"
      unicode="&#xEA0A;"
      horiz-adv-x="128" d="M96 127.08V106.768H84.368C80.128 106.768 77.256 105.848 75.776 104C74.296 102.16 73.552 99.384 73.552 95.696V81.152H95.256L92.376 58.384H73.544V0H50.888V58.384H32V81.152H50.888V97.92C50.888 107.464 53.456 114.856 58.592 120.112C63.728 125.368 70.568 128 79.12 128C86.368 128 92 127.696 96 127.08z" />
    <glyph glyph-name="Facebook-Square"
      unicode="&#xEA0B;"
      horiz-adv-x="128" d="M104 128A23.119999999999997 23.119999999999997 0 0 0 120.96 120.96A23.119999999999997 23.119999999999997 0 0 0 128 104V24A23.119999999999997 23.119999999999997 0 0 0 120.96 7.04A23.119999999999997 23.119999999999997 0 0 0 104 0H88.336V49.584H104.92L107.416 68.92H88.336V81.248C88.336 84.368 88.984 86.688 90.288 88.248C91.6 89.808 94.136 90.584 97.92 90.584L108.08 90.664V107.92C104.584 108.416 99.64 108.664 93.248 108.664C85.696 108.664 79.648 106.448 75.128 102C70.6 97.552 68.328 91.28 68.328 83.168V68.92H51.672V49.584H68.344V0H24A23.119999999999997 23.119999999999997 0 0 0 7.04 7.04A23.119999999999997 23.119999999999997 0 0 0 0 24V104C0 110.608 2.344 116.264 7.04 120.96A23.119999999999997 23.119999999999997 0 0 0 24 128H104z" />
    <glyph glyph-name="Github"
      unicode="&#xEA0C;"
      horiz-adv-x="128" d="M64 128C28.656 128 0 98.624 0 62.376C0 33.384 18.336 8.792 43.768 0.112C46.968 -0.488 48.136 1.536 48.136 3.272C48.136 4.832 48.088 8.96 48.056 14.432C30.248 10.472 26.496 23.232 26.496 23.232C23.584 30.808 19.392 32.832 19.392 32.832C13.576 36.904 19.824 36.816 19.824 36.816C26.248 36.36 29.624 30.056 29.624 30.056C35.344 20.032 44.608 22.928 48.256 24.608C48.832 28.848 50.496 31.736 52.32 33.376C38.104 35.032 23.168 40.656 23.168 65.808C23.168 72.976 25.664 78.832 29.76 83.416C29.096 85.08 26.896 91.752 30.376 100.784C30.376 100.784 35.752 102.544 47.976 94.064A60.016000000000005 60.016000000000005 0 0 0 64.008 96.272A60.08 60.08 0 0 0 80.032 94.056C92.248 102.544 97.608 100.784 97.608 100.784C101.096 91.744 98.904 85.08 98.248 83.424C102.344 78.832 104.824 72.976 104.824 65.808C104.824 40.608 89.864 35.056 75.608 33.432C77.904 31.4 79.944 27.4 79.944 21.272C79.944 12.504 79.864 5.432 79.864 3.272C79.864 1.52 81.016 -0.52 84.264 0.12C109.68 8.816 128 33.4 128 62.376C128 98.616 99.344 128 64 128" />
    <glyph glyph-name="Google-Plus"
      unicode="&#xEA0D;"
      horiz-adv-x="128" d="M79.84 63.072C79.84 55.504 78.224 48.768 75 42.856A34.52 34.52 0 0 0 61.224 28.992C55.256 25.664 48.424 24 40.72 24C35.2 24 29.92 25.056 24.888 27.168A40.84 40.84 0 0 0 11.888 35.68A40.016 40.016 0 0 0 3.224 48.448A38.64 38.64 0 0 0 0 64C0 69.424 1.072 74.608 3.224 79.552C5.368 84.504 8.264 88.752 11.888 92.32C15.52 95.888 19.848 98.72 24.888 100.832A40.576 40.576 0 0 0 40.728 104C51.312 104 60.408 100.504 68 93.52L56.944 83.096C52.608 87.208 47.2 89.264 40.72 89.264C36.16 89.264 31.952 88.144 28.08 85.88A25.103999999999996 25.103999999999996 0 0 1 18.888 76.68A24.744 24.744 0 0 1 15.504 64A25.24 25.24 0 0 1 40.728 38.736A27.280000000000005 27.280000000000005 0 0 1 49.192 39.992A21.44 21.44 0 0 1 55.552 43.128A22.96 22.96 0 0 1 59.92 47.408C61.16 49.008 62.064 50.528 62.64 51.936C63.216 53.36 63.608 54.704 63.84 55.976H40.72V69.736H79.168C79.608 67.44 79.832 65.216 79.832 63.072zM128 69.728V58.272H116.392V46.864H104.72V58.272H93.12V69.728H104.728V81.136H116.4V69.728H128z" />
    <glyph glyph-name="Google-Square"
      unicode="&#xEA0E;"
      horiz-adv-x="128" d="M76.416 63.248C76.416 64.688 76.256 66.472 75.92 68.584H45.752V57.584H63.832A12.160000000000002 12.160000000000002 0 0 0 62.456 53.424A22 22 0 0 0 59.336 49A14.799999999999999 14.799999999999999 0 0 0 53.792 45.288A20.96 20.96 0 0 0 45.752 43.832A19.056 19.056 0 0 0 31.672 49.752A19.568 19.568 0 0 0 25.824 64C25.824 69.552 27.768 74.304 31.664 78.248A19.056 19.056 0 0 0 45.744 84.168C50.856 84.168 55.104 82.528 58.488 79.248L67.16 87.664C61.168 93.224 54.024 96 45.752 96C36.864 96 29.304 92.88 23.08 86.624C16.864 80.376 13.76 72.832 13.76 64C13.76 55.168 16.872 47.624 23.088 41.376C29.304 35.12 36.864 32 45.76 32C54.928 32 62.32 34.92 67.968 40.752C73.608 46.584 76.424 54.08 76.424 63.248zM105.168 59.416H114.248V68.584H105.168V77.752H96V68.584H86.832V59.416H96V50.248H105.168V59.416zM128 104V24A23.119999999999997 23.119999999999997 0 0 0 120.96 7.04A23.119999999999997 23.119999999999997 0 0 0 104 0H24A23.119999999999997 23.119999999999997 0 0 0 7.04 7.04A23.119999999999997 23.119999999999997 0 0 0 0 24V104C0 110.608 2.344 116.264 7.04 120.96A23.119999999999997 23.119999999999997 0 0 0 24 128H104A23.119999999999997 23.119999999999997 0 0 0 120.96 120.96A23.119999999999997 23.119999999999997 0 0 0 128 104z" />
    <glyph glyph-name="Instagram"
      unicode="&#xEA0F;"
      horiz-adv-x="128" d="M64 128C46.616 128 44.44 127.92 37.616 127.616C30.8 127.304 26.152 126.224 22.08 124.64A31.367999999999995 31.367999999999995 0 0 1 10.744 117.256A31.200000000000003 31.200000000000003 0 0 1 3.36 105.92C1.776 101.848 0.696 97.2 0.384 90.384C0.08 83.56 0 81.384 0 64S0.08 44.44 0.384 37.616C0.696 30.8 1.776 26.152 3.36 22.08C4.992 17.872 7.184 14.296 10.744 10.744A31.200000000000003 31.200000000000003 0 0 1 22.08 3.36C26.152 1.776 30.8 0.696 37.616 0.384C44.44 0.08 46.616 0 64 0S83.56 0.08 90.384 0.384C97.2 0.696 101.848 1.776 105.92 3.36A31.376 31.376 0 0 1 117.256 10.744A31.200000000000003 31.200000000000003 0 0 1 124.64 22.08C126.224 26.152 127.304 30.8 127.616 37.616C127.92 44.44 128 46.616 128 64S127.92 83.56 127.616 90.384C127.304 97.2 126.224 101.848 124.64 105.92A31.376 31.376 0 0 1 117.256 117.256A31.367999999999995 31.367999999999995 0 0 1 105.92 124.64C101.848 126.224 97.2 127.304 90.384 127.616C83.56 127.92 81.384 128 64 128zM64 116.472C81.088 116.472 83.12 116.4 89.864 116.096C96.104 115.808 99.488 114.768 101.744 113.888C104.736 112.728 106.864 111.344 109.104 109.104C111.344 106.864 112.728 104.736 113.888 101.744C114.768 99.488 115.808 96.104 116.096 89.864C116.4 83.112 116.472 81.088 116.472 64S116.4 44.88 116.096 38.136C115.808 31.896 114.768 28.512 113.888 26.256C112.728 23.264 111.344 21.136 109.104 18.896C106.864 16.656 104.736 15.272 101.744 14.112C99.488 13.232 96.104 12.192 89.864 11.904C83.112 11.6 81.088 11.528 64 11.528S44.88 11.6 38.136 11.904C31.896 12.192 28.512 13.232 26.256 14.112A19.824 19.824 0 0 0 18.896 18.896A19.832 19.832 0 0 0 14.112 26.256C13.232 28.512 12.192 31.896 11.904 38.136C11.6 44.888 11.528 46.912 11.528 64S11.6 83.12 11.904 89.864C12.192 96.104 13.232 99.488 14.112 101.744C15.272 104.736 16.656 106.864 18.896 109.104C21.136 111.344 23.264 112.728 26.256 113.888C28.512 114.768 31.896 115.808 38.136 116.096C44.888 116.4 46.912 116.472 64 116.472zM64 96.872A32.864 32.864 0 1 1 64 31.136A32.864 32.864 0 0 1 64 96.864zM64 42.664A21.336 21.336 0 1 0 64 85.336A21.336 21.336 0 0 0 64 42.664zM105.84 98.16A7.68 7.68 0 1 0 90.48 98.16A7.68 7.68 0 0 0 105.84 98.16z" />
    <glyph glyph-name="Invision"
      unicode="&#xEA10;"
      horiz-adv-x="128" d="M116.4 128C122.8 128 128 122.8 128 116.4V11.6C128 5.2 122.8 0 116.4 0H11.6A11.6 11.6 0 0 0 0 11.6V116.4C0 122.8 5.2 128 11.6 128H116.4zM42.776 87.728A7.728 7.728 0 0 1 50.6 95.432A7.728 7.728 0 0 1 42.776 103.136A7.728 7.728 0 0 1 34.96 95.432C34.96 91.064 38.52 87.728 42.776 87.728zM26.568 46.464A26.48 26.48 0 0 1 25.872 40.68C25.872 33.896 29.552 29.392 37.376 29.392C43.856 29.392 49.12 33.24 52.896 39.456L50.592 30.176H63.472L70.832 59.696C72.672 67.176 76.232 71.056 81.632 71.056C85.888 71.056 88.536 68.416 88.536 64.04C88.536 62.776 88.424 61.4 87.96 59.904L84.168 46.336A20.4 20.4 0 0 1 83.368 40.584C83.368 34.144 87.152 29.432 95.088 29.432C101.872 29.432 107.28 33.8 110.272 44.264L105.208 46.216C102.68 39.208 100.488 37.936 98.768 37.936C97.048 37.936 96.128 39.088 96.128 41.384C96.128 42.424 96.352 43.568 96.696 44.952L100.376 58.168C101.296 61.272 101.648 64.024 101.648 66.56C101.648 76.448 95.664 81.6 88.424 81.6C81.64 81.6 74.744 75.488 71.288 69.04L73.816 80.608H54.16L51.4 70.424H60.6L54.936 47.744C50.488 37.856 42.32 37.696 41.288 37.928C39.608 38.304 38.528 38.944 38.528 41.128C38.528 42.392 38.768 44.208 39.328 46.392L47.968 80.608H26.096L23.336 70.424H32.424L26.56 46.464z" />
    <glyph glyph-name="Linkedin"
      unicode="&#xEA11;"
      horiz-adv-x="128" d="M29.08 81.008V0H1.584V81.008H29.08zM30.84 106.024C30.888 102.04 29.48 98.72 26.624 96.048C23.76 93.376 20 92.048 15.336 92.048H15.168C10.608 92.048 6.944 93.376 4.168 96.048A13.272 13.272 0 0 0 0 106.024C0 110.056 1.432 113.392 4.288 116.032C7.152 118.672 10.888 120 15.496 120C20.112 120 23.808 118.68 26.584 116.032C29.36 113.392 30.776 110.056 30.832 106.024zM128 46.424V0H100.584V43.328C100.584 49.048 99.464 53.528 97.208 56.768C94.96 60.016 91.448 61.632 86.664 61.632C83.168 61.632 80.24 60.696 77.872 58.816A17.416 17.416 0 0 1 72.584 51.824C71.976 50.192 71.664 47.984 71.664 45.208V0H44.248C44.36 21.744 44.416 39.376 44.416 52.888C44.416 66.408 44.392 74.472 44.336 77.088L44.256 81.008H71.664V69.24H71.504C72.608 70.984 73.744 72.504 74.92 73.816A35.28 35.28 0 0 0 79.624 78.064C81.6 79.584 84.016 80.784 86.872 81.624A33.632 33.632 0 0 0 96.416 82.888C105.92 82.888 113.552 79.792 119.336 73.608C125.112 67.424 128 58.368 128 46.432z" />
    <glyph glyph-name="Linkedin-Square"
      unicode="&#xEA12;"
      horiz-adv-x="128" d="M19.752 20.832H39V78.672H19.752V20.832zM40.24 96.504A9.848 9.848 0 0 1 37.24 103.664C35.296 105.552 32.712 106.504 29.488 106.504C26.272 106.504 23.648 105.552 21.616 103.664C19.592 101.776 18.576 99.392 18.576 96.504C18.576 93.664 19.56 91.288 21.536 89.376C23.504 87.456 26.072 86.496 29.24 86.496H29.32C32.6 86.496 35.24 87.456 37.24 89.376S40.24 93.664 40.24 96.496zM88.992 20.832H108.24V54C108.24 62.56 106.216 69.024 102.16 73.416C98.112 77.808 92.752 80 86.08 80C78.52 80 72.72 76.752 68.656 70.248H68.824V78.664H49.584C49.744 75 49.744 55.72 49.584 20.832H68.832V53.168C68.832 55.28 69.024 56.832 69.416 57.832A12.8 12.8 0 0 0 73.168 62.792C74.832 64.152 76.888 64.832 79.328 64.832C85.776 64.832 89 60.472 89 51.752V20.832zM128 104V24A23.119999999999997 23.119999999999997 0 0 0 120.96 7.04A23.119999999999997 23.119999999999997 0 0 0 104 0H24A23.119999999999997 23.119999999999997 0 0 0 7.04 7.04A23.119999999999997 23.119999999999997 0 0 0 0 24V104C0 110.608 2.344 116.264 7.04 120.96A23.119999999999997 23.119999999999997 0 0 0 24 128H104A23.119999999999997 23.119999999999997 0 0 0 120.96 120.96A23.119999999999997 23.119999999999997 0 0 0 128 104z" />
    <glyph glyph-name="Medium"
      unicode="&#xEA13;"
      horiz-adv-x="128" d="M42.64 99.096V12.432A5.392 5.392 0 0 0 41.752 9.296A2.9679999999999995 2.9679999999999995 0 0 0 39.144 8A5.072 5.072 0 0 0 36.784 8.592L3.568 25.808A6.16 6.16 0 0 0 1.032 28.28A6.672 6.672 0 0 0 0 31.72V115.928C0 116.912 0.24 117.752 0.72 118.44A2.36 2.36 0 0 0 2.784 119.48C3.456 119.48 4.504 119.104 5.928 118.36L42.432 99.456C42.568 99.304 42.64 99.184 42.64 99.088zM47.216 91.632L85.36 27.648L47.216 47.304V91.624zM128 90.304V12.432A4.384 4.384 0 0 0 127 9.44A3.416 3.416 0 0 0 124.28 8.296A6.576 6.576 0 0 0 120.928 9.256L89.432 25.512L128 90.304zM127.784 99.168C127.784 99.016 121.68 88.688 109.464 68.176A26670.671999999995 26670.671999999995 0 0 0 88 32.16L60.144 79L83.28 117.92A4.016 4.016 0 0 0 87 120C87.664 120 88.28 119.856 88.856 119.56L127.496 99.608C127.688 99.512 127.784 99.368 127.784 99.168z" />
    <glyph glyph-name="Microsoft"
      unicode="&#xEA14;"
      horiz-adv-x="128" d="M52.464 60.464V10.384L0 17.616V60.464H52.464zM52.464 117.616V66.92H0V110.384L52.464 117.616zM128 60.464V0L58.232 9.616V60.464H128zM128 128V66.92H58.232V118.384L128 128z" />
    <glyph glyph-name="Paypal"
      unicode="&#xEA15;"
      horiz-adv-x="128" d="M96.56 118.352C90.88 125.104 80.6 128 67.456 128H29.32A5.544 5.544 0 0 1 23.92 123.2L8.04 18.152A3.376 3.376 0 0 1 11.28 14.2H34.824L40.744 53.32L40.552 52.096A5.52 5.52 0 0 0 45.928 56.896H57.12C79.104 56.896 96.312 66.216 101.336 93.152C101.496 93.952 101.736 95.48 101.736 95.48C103.16 105.448 101.72 112.216 96.56 118.352zM107.688 90.376C102.224 63.856 84.784 49.816 57.12 49.816H47.088L39.6 0H55.872A4.84 4.84 0 0 1 60.592 4.2L60.784 5.256L64.528 29.984L64.768 31.344A4.84 4.84 0 0 0 69.488 35.552H72.448C91.68 35.552 106.736 43.704 111.136 67.264C112.896 76.72 112.056 84.648 107.696 90.384z" />
    <glyph glyph-name="Pinterest"
      unicode="&#xEA16;"
      horiz-adv-x="128" d="M16 82.08C16 87.616 16.936 92.832 18.816 97.728A40.32 40.32 0 0 0 26.576 110.536A52.952 52.952 0 0 0 51.856 126A58 58 0 0 0 66.992 128C74.888 128 82.24 126.296 89.04 122.88A41.98400000000001 41.98400000000001 0 0 0 105.616 108C109.864 101.488 111.992 94.128 111.992 85.92C111.992 81 111.512 76.176 110.568 71.464A59.456 59.456 0 0 0 106.064 57.848A47.536 47.536 0 0 0 98.568 46.344A32.568 32.568 0 0 0 87.688 38.424A33.56 33.56 0 0 0 73.52 35.464C70.12 35.464 66.744 36.28 63.392 37.92C60.04 39.568 57.64 41.824 56.192 44.696C55.696 42.696 54.992 39.808 54.088 36.04C53.192 32.272 52.608 29.832 52.328 28.728C52.056 27.632 51.544 25.808 50.792 23.272A36.848 36.848 0 0 0 48.84 17.808L46.44 13A54.824 54.824 0 0 0 42.992 7.04C41.744 5.168 40.192 2.952 38.344 0.384L37.296 0L36.624 0.768C35.872 8.824 35.504 13.648 35.504 15.232C35.504 19.952 36.04 25.24 37.112 31.112C38.184 36.984 39.848 44.36 42.104 53.232C44.344 62.104 45.648 67.312 46 68.848C44.4 72.176 43.6 76.512 43.6 81.848C43.6 86.104 44.904 90.104 47.504 93.848C50.104 97.592 53.4 99.464 57.4 99.464C60.448 99.464 62.824 98.424 64.52 96.344C66.224 94.264 67.08 91.64 67.08 88.464C67.08 85.08 65.976 80.176 63.776 73.768C61.576 67.36 60.472 62.568 60.472 59.384C60.472 56.152 61.6 53.472 63.848 51.344C66.104 49.216 68.824 48.152 72.024 48.152C74.776 48.152 77.328 48.792 79.672 50.072C82.024 51.352 83.992 53.104 85.56 55.304A44.48 44.48 0 0 1 89.76 62.616A43.12 43.12 0 0 1 92.616 71.112C93.288 74.112 93.784 76.96 94.112 79.656C94.432 82.344 94.6 84.896 94.6 87.304C94.6 96.184 91.864 103.088 86.384 108.04C80.912 112.984 73.776 115.464 64.976 115.464C54.976 115.464 46.624 112.144 39.928 105.496C33.224 98.856 29.872 90.432 29.872 80.232C29.872 77.976 30.192 75.792 30.816 73.696C31.44 71.592 32.112 69.92 32.84 68.696C33.56 67.464 34.24 66.296 34.864 65.192C35.488 64.088 35.8 63.304 35.8 62.848C35.8 61.408 35.424 59.536 34.68 57.232C33.928 54.92 33 53.768 31.896 53.768C31.8 53.768 31.376 53.848 30.624 54A15.28 15.28 0 0 0 23.84 58.304A22.496 22.496 0 0 0 19.264 65.584A48.31199999999999 48.31199999999999 0 0 0 16.824 73.888A42.376 42.376 0 0 0 16 82.08z" />
    <glyph glyph-name="Pinterest-Square"
      unicode="&#xEA17;"
      horiz-adv-x="128" d="M104 128A23.119999999999997 23.119999999999997 0 0 0 120.96 120.96A23.119999999999997 23.119999999999997 0 0 0 128 104V24A23.119999999999997 23.119999999999997 0 0 0 120.96 7.04A23.119999999999997 23.119999999999997 0 0 0 104 0H43.584C48.304 6.776 51.304 12.608 52.584 17.504C53.08 19.392 54.552 25.192 57 34.92C58.168 32.752 60.208 30.888 63.128 29.336C66.04 27.776 69.168 27 72.496 27C82.552 27 90.76 31.096 97.128 39.288C103.488 47.488 106.664 57.864 106.664 70.416C106.664 75.08 105.696 79.6 103.752 83.96A37.576 37.576 0 0 1 95.712 95.544A38.096 38.096 0 0 1 83 103.624A43.688 43.688 0 0 1 66.584 106.664A53.68 53.68 0 0 1 50.376 104.288C45.344 102.712 41.096 100.584 37.624 97.92A44.928000000000004 44.928000000000004 0 0 1 28.664 88.792A37.656 37.656 0 0 1 23.128 78.128C21.928 74.432 21.336 70.752 21.336 67.088C21.336 61.416 22.432 56.416 24.624 52.08C26.816 47.752 30.056 44.696 34.336 42.92A2.4 2.4 0 0 1 36.288 42.92C36.872 43.192 37.28 43.72 37.496 44.504C38.056 46.944 38.472 48.64 38.752 49.584A3.616 3.616 0 0 1 37.832 53.08C35.056 56.528 33.672 60.696 33.672 65.584C33.672 73.92 36.544 81.04 42.288 86.96C48.048 92.88 55.552 95.84 64.832 95.84C73.112 95.84 79.568 93.584 84.208 89.08C88.848 84.584 91.168 78.752 91.168 71.584C91.168 62.248 89.288 54.304 85.544 47.744C81.792 41.192 76.976 37.92 71.08 37.92C67.752 37.92 65.056 39.12 63 41.544C60.944 43.96 60.304 46.832 61.08 50.168C61.528 52.056 62.264 54.624 63.288 57.872C64.32 61.128 65.136 63.952 65.752 66.376C66.36 68.792 66.664 70.856 66.664 72.584C66.664 75.304 65.928 77.568 64.456 79.376C62.984 81.184 60.888 82.08 58.168 82.08C54.776 82.08 51.904 80.512 49.544 77.376C47.184 74.24 46 70.36 46 65.752C46 61.752 46.664 58.392 48 55.672L39.84 21.168C38.496 15.608 38.304 8.552 39.248 0H24A23.119999999999997 23.119999999999997 0 0 0 7.04 7.04A23.119999999999997 23.119999999999997 0 0 0 0 24V104C0 110.608 2.344 116.264 7.04 120.96A23.119999999999997 23.119999999999997 0 0 0 24 128H104z" />
    <glyph glyph-name="Skype"
      unicode="&#xEA18;"
      horiz-adv-x="128" d="M124.32 50.416A59.52 59.52 0 0 1 125.728 63.336C125.728 96.576 98.4 123.528 64.68 123.528C61.128 123.528 57.64 123.224 54.24 122.648A35.576 35.576 0 0 1 35.408 128C15.848 128 0 112.376 0 93.088A34.4 34.4 0 0 1 4.864 75.432A59.839999999999996 59.839999999999996 0 0 1 3.624 63.336C3.624 30.088 30.96 3.136 64.68 3.136A62.8 62.8 0 0 1 75.864 4.144C80.848 1.504 86.536 0 92.6 0C112.152 0 128 15.632 128 34.904C128 40.48 126.672 45.736 124.32 50.416zM96 34.56C93.168 30.608 89 27.496 83.584 25.28C78.224 23.088 71.824 21.968 64.512 21.968C55.744 21.968 48.392 23.488 42.648 26.496A28.335999999999995 28.335999999999995 0 0 0 32.6 35.296C30.008 38.976 28.696 42.632 28.696 46.168A7.5200000000000005 7.5200000000000005 0 0 0 31.24 51.848C32.912 53.4 35.056 54.184 37.616 54.184C39.704 54.184 41.52 53.568 42.984 52.344C44.392 51.16 45.6 49.416 46.568 47.184C47.656 44.736 48.824 42.672 50.072 41.064C51.272 39.488 53 38.184 55.192 37.144C57.408 36.12 60.392 35.592 64.064 35.592C69.104 35.592 73.248 36.656 76.36 38.752C79.4 40.792 80.88 43.256 80.88 46.264A7.376000000000001 7.376000000000001 0 0 1 78.528 51.968A17.088 17.088 0 0 1 72 55.52A131.76 131.76 0 0 1 60.8 58.264C54.456 59.6 49.072 61.176 44.8 62.984C40.424 64.816 36.888 67.36 34.312 70.536C31.688 73.784 30.36 77.84 30.36 82.616C30.36 87.152 31.752 91.256 34.504 94.784C37.224 98.296 41.224 101.04 46.36 102.904C51.424 104.744 57.448 105.68 64.272 105.68C69.712 105.68 74.512 105.064 78.512 103.832C82.544 102.6 85.928 100.936 88.592 98.88C91.28 96.8 93.28 94.6 94.528 92.296C95.8 89.976 96.448 87.672 96.448 85.44C96.448 83.28 95.6 81.328 93.936 79.632A8.424 8.424 0 0 0 87.672 77.04C85.408 77.04 83.632 77.584 82.416 78.656C81.272 79.656 80.08 81.216 78.768 83.44A19.96 19.96 0 0 1 73.288 90.128C71.232 91.672 67.808 92.448 63.088 92.448C58.72 92.448 55.16 91.584 52.512 89.864C49.968 88.224 48.728 86.336 48.728 84.096C48.728 82.736 49.128 81.576 49.96 80.6C50.816 79.544 52.04 78.64 53.592 77.872C55.192 77.072 56.848 76.432 58.504 75.992C60.2 75.528 63.04 74.832 66.952 73.944C71.896 72.904 76.432 71.728 80.44 70.456C84.52 69.176 88.024 67.608 90.896 65.76C93.816 63.888 96.128 61.48 97.776 58.6C99.424 55.704 100.256 52.144 100.256 47.992C100.256 43.032 98.816 38.52 95.984 34.568z" />
    <glyph glyph-name="Spotify"
      unicode="&#xEA19;"
      horiz-adv-x="128" d="M101.76 71.04C81.28 83.2 47.04 84.48 27.52 78.4A6 6 0 0 0 20.16 82.24C19.2 85.44 21.12 88.64 24 89.6C46.72 96.32 84.16 95.04 107.84 80.96C110.72 79.36 111.68 75.52 110.08 72.64C108.48 70.4 104.64 69.44 101.76 71.04M101.12 53.12C99.52 50.88 96.64 49.92 94.4 51.52C77.12 62.08 50.88 65.28 30.72 58.88C28.16 58.24 25.28 59.52 24.64 62.08C24 64.64 25.28 67.52 27.84 68.16C51.2 75.2 80 71.68 99.84 59.52C101.76 58.56 102.72 55.36 101.12 53.12M93.44 35.52C92.16 33.6 89.92 32.96 88 34.24C72.96 43.52 54.08 45.44 31.68 40.32C29.44 39.68 27.52 41.28 26.88 43.2C26.24 45.44 27.84 47.36 29.76 48C54.08 53.44 75.2 51.2 91.84 40.96C94.08 40 94.4 37.44 93.44 35.52M64 128C28.8 128 0 99.2 0 64S28.8 0 64 0S128 28.8 128 64S99.52 128 64 128" />
    <glyph glyph-name="Tumblr"
      unicode="&#xEA1A;"
      horiz-adv-x="128" d="M89.976 25.776L96 7.552C94.848 5.752 92.056 4.064 87.64 2.472A40.528 40.528 0 0 0 74.312 0A42.784 42.784 0 0 0 59.96 2C55.616 3.44 52.04 5.336 49.232 7.696A35.384 35.384 0 0 0 42.072 15.848A33.408 33.408 0 0 0 36.656 34.152V76H24V92.552C27.616 93.88 30.856 95.672 33.712 97.896C36.576 100.128 38.864 102.432 40.568 104.816A40.64 40.64 0 0 1 44.936 112.656C46.136 115.512 46.992 118.048 47.496 120.28C48 122.512 48.376 124.776 48.624 127.08A1.256 1.256 0 0 0 48.968 127.736A0.784 0.784 0 0 0 49.52 128H67.896V95.384H92.976V76.008H67.84V36.168A15.151999999999997 15.151999999999997 0 0 1 70.024 27.816C70.824 26.456 72.072 25.392 73.752 24.624C75.432 23.856 77.48 23.496 79.888 23.544C83.808 23.648 87.168 24.392 89.984 25.784z" />
    <glyph glyph-name="Tumblr-Square"
      unicode="&#xEA1B;"
      horiz-adv-x="128" d="M94.664 16.92L89.504 32.168A18.96 18.96 0 0 0 80.92 30.328C78.92 30.28 77.192 30.568 75.752 31.208A6.960000000000001 6.960000000000001 0 0 0 72.544 33.832A11.52 11.52 0 0 0 71.08 37.208A15.256 15.256 0 0 0 70.664 40.832V74H92.08V90.16H70.752V117.344H55.08C54.64 117.344 54.392 117.064 54.336 116.504A43.544 43.544 0 0 0 52.872 109.256A45.992 45.992 0 0 0 49.624 101.336A25.856000000000005 25.856000000000005 0 0 0 43.208 93.424C40.408 91.032 37.112 89.144 33.336 87.76V74H44.16V39.168C44.16 36 44.752 32.808 45.952 29.584C47.152 26.36 48.952 23.28 51.368 20.336C53.784 17.392 57.144 15.016 61.448 13.208C65.752 11.4 70.656 10.552 76.16 10.664A35.28 35.28 0 0 1 87.536 12.744C91.28 14.08 93.656 15.472 94.656 16.92zM128 104V24A23.119999999999997 23.119999999999997 0 0 0 120.96 7.04A23.119999999999997 23.119999999999997 0 0 0 104 0H24A23.119999999999997 23.119999999999997 0 0 0 7.04 7.04A23.119999999999997 23.119999999999997 0 0 0 0 24V104C0 110.608 2.344 116.264 7.04 120.96A23.119999999999997 23.119999999999997 0 0 0 24 128H104A23.119999999999997 23.119999999999997 0 0 0 120.96 120.96A23.119999999999997 23.119999999999997 0 0 0 128 104z" />
    <glyph glyph-name="Twitter"
      unicode="&#xEA1C;"
      horiz-adv-x="128" d="M128 99.648A54.984 54.984 0 0 0 114.84 86.08A74.576 74.576 0 0 0 111.832 61.584A76.208 76.208 0 0 0 102.456 41.392A79.36 79.36 0 0 0 87.472 24.288C81.68 19.328 74.696 15.384 66.512 12.432A76.664 76.664 0 0 0 40.296 8A72.83200000000001 72.83200000000001 0 0 0 0 19.784C1.896 19.568 4 19.456 6.336 19.456C18.52 19.456 29.376 23.192 38.896 30.672A25.568 25.568 0 0 0 23.632 35.912A25.672 25.672 0 0 0 14.376 48.872C16.16 48.6 17.816 48.464 19.336 48.464C21.656 48.464 23.96 48.76 26.232 49.36A25.808 25.808 0 0 0 11.168 58.416A25.359999999999996 25.359999999999996 0 0 0 5.2 75.112V75.432C8.88 73.376 12.832 72.272 17.056 72.104A26.208 26.208 0 0 0 8.528 81.448A25.576 25.576 0 0 0 5.36 93.96C5.36 98.728 6.552 103.144 8.936 107.208A74.368 74.368 0 0 1 32.856 87.832A73.072 73.072 0 0 1 63.024 79.744A29.16 29.16 0 0 0 62.376 85.76C62.376 93.016 64.936 99.2 70.056 104.32A25.28 25.28 0 0 0 88.616 112A25.28 25.28 0 0 0 107.776 103.712A51.424 51.424 0 0 1 124.424 110.048A25.48 25.48 0 0 0 112.896 95.584A52.256 52.256 0 0 1 128 99.648z" />
    <glyph glyph-name="Twitter-Square"
      unicode="&#xEA1D;"
      horiz-adv-x="128" d="M106.664 87.84A37.072 37.072 0 0 0 96.584 85A17.04 17.04 0 0 1 104.336 94.752A34.8 34.8 0 0 0 93.168 90.504A16.688 16.688 0 0 1 80.416 96C75.584 96 71.456 94.288 68.04 90.88A16.88 16.88 0 0 1 62.92 78.504C62.92 76.888 63.056 75.552 63.336 74.504A49.544 49.544 0 0 0 43.168 79.92A49.608 49.608 0 0 0 27.168 92.832A17.336 17.336 0 0 1 24.752 84C24.752 77.664 27.28 72.8 32.336 69.416C29.72 69.472 26.944 70.192 24 71.576V71.416C24 67.256 25.392 63.544 28.16 60.296C30.944 57.04 34.36 55.024 38.416 54.248A16.256 16.256 0 0 0 34.168 53.584C33.448 53.584 32.36 53.696 30.92 53.92C32.08 50.416 34.152 47.528 37.128 45.248C40.096 42.976 43.472 41.808 47.248 41.752A34.576 34.576 0 0 0 25.504 34.248C24.056 34.248 22.664 34.328 21.336 34.504A49.088 49.088 0 0 1 48.168 26.664A51.040000000000006 51.040000000000006 0 0 1 65.664 29.624A45.08 45.08 0 0 1 79.664 37.544A52.56 52.56 0 0 1 95.96 62.456C97.32 67.152 98 71.832 98 76.504C98 77.504 97.976 78.248 97.92 78.744A34.016 34.016 0 0 1 106.664 87.832zM128 104V24A23.119999999999997 23.119999999999997 0 0 0 120.96 7.04A23.119999999999997 23.119999999999997 0 0 0 104 0H24A23.119999999999997 23.119999999999997 0 0 0 7.04 7.04A23.119999999999997 23.119999999999997 0 0 0 0 24V104C0 110.608 2.344 116.264 7.04 120.96A23.119999999999997 23.119999999999997 0 0 0 24 128H104A23.119999999999997 23.119999999999997 0 0 0 120.96 120.96A23.119999999999997 23.119999999999997 0 0 0 128 104z" />
    <glyph glyph-name="Youtube"
      unicode="&#xEA1E;"
      horiz-adv-x="128" d="M50.784 46.296V84.648L85.368 65.408L50.784 46.296zM126.72 91.288S125.472 100.696 121.632 104.84C116.76 110.28 111.312 110.304 108.808 110.616C90.896 112 64.024 112 64.024 112H63.976S37.104 112 19.192 110.616C16.688 110.296 11.24 110.28 6.368 104.84C2.528 100.696 1.28 91.28 1.28 91.28S0 80.248 0 69.208V58.848C0 47.8 1.28 36.752 1.28 36.752S2.528 27.352 6.36 23.208C11.24 17.768 17.632 17.944 20.48 17.368C30.72 16.336 64 16 64 16S90.896 16.04 108.808 17.424C111.312 17.744 116.76 17.768 121.632 23.208C125.472 27.352 126.72 36.752 126.72 36.752S128 47.792 128 58.848V69.2C128 80.24 126.72 91.288 126.72 91.288z" />
    <glyph glyph-name="add"
      unicode="&#xEA1F;"
      horiz-adv-x="128" d="M60 108V68H20A4 4 0 1 1 20 60H60V20A3.9920000000000004 3.9920000000000004 0 1 1 68 20V60H108A4 4 0 1 1 108 68H68V108A4 4 0 1 1 60 108z" />
    <glyph glyph-name="add-circle"
      unicode="&#xEA20;"
      horiz-adv-x="128" d="M0 64A64 64 0 0 1 64 0A64 64 0 0 1 128 64A64 64 0 0 1 64 128A64 64 0 0 1 0 64zM8 64A56 56 0 1 0 120 64A56 56 0 0 0 8 64zM60 84V68H44A4 4 0 1 1 44 60H60V44A4 4 0 1 1 68 44V60H84A4 4 0 1 1 84 68H68V84A4 4 0 1 1 60 84z" />
    <glyph glyph-name="add-circle-solid"
      unicode="&#xEA21;"
      horiz-adv-x="128" d="M68 68V84A4 4 0 0 1 60 84V68H44A4 4 0 0 1 44 60H60V44A4 4 0 1 1 68 44V60H84A4 4 0 1 1 84 68H68zM64 0A64 64 0 1 0 64 128A64 64 0 0 0 64 0z" />
    <glyph glyph-name="add-solid"
      unicode="&#xEA22;"
      horiz-adv-x="128" d="M72 72H104A8 8 0 0 0 104 56H72V24A8 8 0 0 0 56 24V56H24A8 8 0 1 0 24 72H56V104A8 8 0 1 0 72 104V72z" />
    <glyph glyph-name="alarm-clock"
      unicode="&#xEA23;"
      horiz-adv-x="128" d="M93.016 121.248L99.008 115.944A12 12 0 1 0 115.928 98.992L121.208 92.992A20 20 0 1 1 93.016 121.248zM20 120C23.496 120 26.712 118.496 28.992 115.896L35.008 121.176A19.872 19.872 0 0 1 20 128A20 20 0 0 1 6.824 92.96L12.096 98.976A12 12 0 0 0 20 120zM64 112A48 48 0 1 0 64 16A48 48 0 0 0 64 112zM64 120A56 56 0 0 1 8 64A55.864 55.864 0 0 1 29.952 19.608L17.168 6.832A4.016 4.016 0 0 1 22.832 1.168L36.752 15.096A55.736 55.736 0 0 1 64 8A55.736 55.736 0 0 1 91.248 15.096L105.168 1.176A4.016 4.016 0 0 1 110.832 6.832L98.048 19.608A55.84 55.84 0 0 1 120 64.008A56 56 0 0 1 64 120.008zM64 56V92A4 4 0 0 1 56 92V52A4 4 0 0 1 60 48H84A4 4 0 0 1 84 56H64z" />
    <glyph glyph-name="alarm-clock-solid"
      unicode="&#xEA24;"
      horiz-adv-x="128" d="M64 120A56 56 0 0 0 120 64A55.84 55.84 0 0 0 98.048 19.608L110.832 6.832A4.016 4.016 0 0 0 105.168 1.168L91.248 15.096A55.736 55.736 0 0 0 64 8A55.736 55.736 0 0 0 36.752 15.096L22.832 1.176A4.016 4.016 0 0 0 17.168 6.832L29.952 19.608A55.864 55.864 0 0 0 8 64.008A56 56 0 0 0 64 120.008zM64 56V92A4 4 0 0 1 56 92V52A4 4 0 0 1 60 48H84A4 4 0 0 1 84 56H64zM93.016 121.248A19.992 19.992 0 0 0 128 108C128 102.176 125.496 96.76 121.216 92.992L115.928 98.992A12 12 0 1 1 99.008 115.944L93.008 121.248zM20 120A12 12 0 0 1 12.096 98.976L6.816 92.96A20 20 0 0 0 20 128C25.84 128 31.24 125.48 35.016 121.168L29 115.896A11.888 11.888 0 0 1 20 120z" />
    <glyph glyph-name="analytic-graph"
      unicode="&#xEA25;"
      horiz-adv-x="128" d="M111.2 78.4A4 4 0 0 1 105.6 79.2L76.376 57.28L46.824 86.832A4 4 0 0 1 41.784 87.328L17.784 71.328A4 4 0 0 1 22.216 64.672L43.496 78.856L73.176 49.176A4 4 0 0 1 78.4 48.8L110.4 72.8A4 4 0 0 1 111.2 78.4M8 52V112H120V52A20 20 0 0 0 100 32H28A20 20 0 0 0 8 52M128 52V116A4 4 0 0 1 124 120H4A4 4 0 0 1 0 116V52A28 28 0 0 1 28 24H38.456L32.208 5.264A4 4 0 1 1 39.8 2.736L46.88 24H81.12L88.208 2.736A4 4 0 1 1 95.8 5.264L89.552 24H100A28 28 0 0 1 128 52" />
    <glyph glyph-name="analytic-graph-solid"
      unicode="&#xEA26;"
      horiz-adv-x="128" d="M111.2 78.4A4 4 0 0 1 105.6 79.2L76.376 57.28L46.824 86.832A4 4 0 0 1 41.784 87.328L17.784 71.328A4 4 0 0 1 22.216 64.672L43.496 78.856L73.176 49.176A4 4 0 0 1 78.4 48.8L110.4 72.8A4 4 0 0 1 111.2 78.4M128 52V116A4 4 0 0 1 124 120H4A4 4 0 0 1 0 116V52A28 28 0 0 1 28 24H38.456L32.208 5.264A4 4 0 1 1 39.8 2.736L46.88 24H81.12L88.208 2.736A4 4 0 1 1 95.8 5.264L89.552 24H100A28 28 0 0 1 128 52" />
    <glyph glyph-name="angle-circle-down"
      unicode="&#xEA27;"
      horiz-adv-x="128" d="M64 53.656L89.168 78.832A4 4 0 0 0 94.832 73.168L66.832 45.168A4 4 0 0 0 61.168 45.168L33.168 73.168A4 4 0 1 0 38.832 78.832L64 53.656zM64 0A64 64 0 1 0 64 128A64 64 0 0 0 64 0zM64 8A56 56 0 1 1 64 120A56 56 0 0 1 64 8z" />
    <glyph glyph-name="angle-circle-down-solid"
      unicode="&#xEA28;"
      horiz-adv-x="128" d="M64 0A64 64 0 1 0 64 128A64 64 0 0 0 64 0zM64 53.656L38.832 78.832A4 4 0 1 1 33.168 73.168L61.168 45.168A4 4 0 0 1 66.832 45.168L94.832 73.168A4 4 0 0 1 89.168 78.832L64 53.656z" />
    <glyph glyph-name="angle-circle-left"
      unicode="&#xEA29;"
      horiz-adv-x="128" d="M78.832 38.832A4 4 0 0 0 73.168 33.168L45.168 61.168A4 4 0 0 0 45.168 66.832L73.168 94.832A4 4 0 1 0 78.832 89.168L53.656 64L78.832 38.832zM64 0A64 64 0 1 0 64 128A64 64 0 0 0 64 0zM64 8A56 56 0 1 1 64 120A56 56 0 0 1 64 8z" />
    <glyph glyph-name="angle-circle-left-solid"
      unicode="&#xEA2A;"
      horiz-adv-x="128" d="M64 0A64 64 0 1 0 64 128A64 64 0 0 0 64 0zM78.832 38.832L53.656 64L78.832 89.168A4 4 0 0 1 73.168 94.832L45.168 66.832A4 4 0 0 1 45.168 61.168L73.168 33.168A4 4 0 0 1 78.832 38.832z" />
    <glyph glyph-name="angle-circle-right"
      unicode="&#xEA2B;"
      horiz-adv-x="128" d="M74.344 64L49.168 89.168A4 4 0 1 0 54.832 94.832L82.832 66.832A4 4 0 0 0 82.832 61.168L54.832 33.168A4 4 0 0 0 49.168 38.832L74.344 64zM64 0A64 64 0 1 0 64 128A64 64 0 0 0 64 0zM64 8A56 56 0 1 1 64 120A56 56 0 0 1 64 8z" />
    <glyph glyph-name="angle-circle-right-solid"
      unicode="&#xEA2C;"
      horiz-adv-x="128" d="M64 0A64 64 0 1 0 64 128A64 64 0 0 0 64 0zM74.344 64L49.168 38.832A4 4 0 0 1 54.832 33.168L82.832 61.168A4 4 0 0 1 82.832 66.832L54.832 94.832A4 4 0 1 1 49.168 89.168L74.344 64z" />
    <glyph glyph-name="angle-circle-up"
      unicode="&#xEA2D;"
      horiz-adv-x="128" d="M38.832 49.168A4 4 0 0 0 33.168 54.832L61.168 82.832A4 4 0 0 0 66.832 82.832L94.832 54.832A4 4 0 0 0 89.168 49.168L64 74.344L38.832 49.168zM64 0A64 64 0 1 0 64 128A64 64 0 0 0 64 0zM64 8A56 56 0 1 1 64 120A56 56 0 0 1 64 8z" />
    <glyph glyph-name="angle-circle-up-solid"
      unicode="&#xEA2E;"
      horiz-adv-x="128" d="M64 0A64 64 0 1 0 64 128A64 64 0 0 0 64 0zM38.832 49.168L64 74.344L89.168 49.168A4 4 0 0 1 94.832 54.832L66.832 82.832A4 4 0 0 1 61.168 82.832L33.168 54.832A4 4 0 1 1 38.832 49.168z" />
    <glyph glyph-name="angle-double-circle-down"
      unicode="&#xEA2F;"
      horiz-adv-x="128" d="M89.4 63.04A4 4 0 0 0 94.6 56.96L66.6 32.96A4 4 0 0 0 61.4 32.96L33.4 56.96A4 4 0 1 0 38.6 63.04L64 41.272L89.4 63.032zM89.4 87.04A4 4 0 0 0 94.6 80.96L66.6 56.96A4 4 0 0 0 61.4 56.96L33.4 80.96A4 4 0 1 0 38.6 87.04L64 65.272L89.4 87.032zM64 0A64 64 0 1 0 64 128A64 64 0 0 0 64 0zM64 8A56 56 0 1 1 64 120A56 56 0 0 1 64 8z" />
    <glyph glyph-name="angle-double-circle-down-solid"
      unicode="&#xEA30;"
      horiz-adv-x="128" d="M64 0A64 64 0 1 0 64 128A64 64 0 0 0 64 0zM89.4 63.04L64 41.272L38.6 63.032A4 4 0 1 1 33.4 56.96L61.4 32.96A4 4 0 0 1 66.6 32.96L94.6 56.96A4 4 0 1 1 89.4 63.04zM89.4 87.04L64 65.272L38.6 87.032A4 4 0 1 1 33.4 80.96L61.4 56.96A4 4 0 0 1 66.6 56.96L94.6 80.96A4 4 0 1 1 89.4 87.04z" />
    <glyph glyph-name="angle-double-circle-left"
      unicode="&#xEA31;"
      horiz-adv-x="128" d="M41.272 64L63.032 38.6A4 4 0 0 0 56.96 33.4L32.96 61.4A4 4 0 0 0 32.96 66.6L56.96 94.6A4 4 0 1 0 63.04 89.4L41.272 64zM87.032 38.6A4 4 0 0 0 80.96 33.4L56.96 61.4A4 4 0 0 0 56.96 66.6L80.96 94.6A4 4 0 0 0 87.04 89.4L65.272 64L87.032 38.6zM64 0A64 64 0 1 0 64 128A64 64 0 0 0 64 0zM64 8A56 56 0 1 1 64 120A56 56 0 0 1 64 8z" />
    <glyph glyph-name="angle-double-circle-left-solid"
      unicode="&#xEA32;"
      horiz-adv-x="128" d="M64 0A64 64 0 1 0 64 128A64 64 0 0 0 64 0zM41.272 64L63.032 89.4A4 4 0 1 1 56.96 94.6L32.96 66.6A4 4 0 0 1 32.96 61.4L56.96 33.4A4 4 0 1 1 63.04 38.6L41.272 64zM87.032 38.6L65.28 64L87.04 89.4A4 4 0 1 1 80.968 94.6L56.968 66.6A4 4 0 0 1 56.968 61.4L80.968 33.4A4 4 0 0 1 87.048 38.6z" />
    <glyph glyph-name="angle-double-circle-right"
      unicode="&#xEA33;"
      horiz-adv-x="128" d="M40.96 89.4A4 4 0 1 0 47.04 94.6L71.04 66.6A4 4 0 0 0 71.04 61.4L47.04 33.4A4 4 0 1 0 40.96 38.6L62.728 64L40.968 89.4zM64.96 89.4A4 4 0 1 0 71.04 94.6L95.04 66.6A4 4 0 0 0 95.04 61.4L71.04 33.4A4 4 0 1 0 64.96 38.6L86.728 64L64.968 89.4zM64 0A64 64 0 1 0 64 128A64 64 0 0 0 64 0zM64 8A56 56 0 1 1 64 120A56 56 0 0 1 64 8z" />
    <glyph glyph-name="angle-double-circle-right-solid"
      unicode="&#xEA34;"
      horiz-adv-x="128" d="M64 0A64 64 0 1 0 64 128A64 64 0 0 0 64 0zM40.96 89.4L62.728 64L40.968 38.6A4 4 0 0 1 47.04 33.4L71.04 61.4A4 4 0 0 1 71.04 66.6L47.04 94.6A4 4 0 1 1 40.96 89.4zM64.96 89.4L86.728 64L64.968 38.6A4 4 0 0 1 71.04 33.4L95.04 61.4A4 4 0 0 1 95.04 66.6L71.04 94.6A4 4 0 1 1 64.96 89.4z" />
    <glyph glyph-name="angle-double-circle-up"
      unicode="&#xEA35;"
      horiz-adv-x="128" d="M38.6 40.96A4 4 0 1 0 33.4 47.04L61.4 71.04A4 4 0 0 0 66.6 71.04L94.6 47.04A4 4 0 0 0 89.4 40.96L64 62.728L38.6 40.968zM38.6 64.96A4 4 0 1 0 33.4 71.04L61.4 95.04A4 4 0 0 0 66.6 95.04L94.6 71.04A4 4 0 1 0 89.4 64.96L64 86.728L38.6 64.968zM64 0A64 64 0 1 0 64 128A64 64 0 0 0 64 0zM64 8A56 56 0 1 1 64 120A56 56 0 0 1 64 8z" />
    <glyph glyph-name="angle-double-circle-up-solid"
      unicode="&#xEA36;"
      horiz-adv-x="128" d="M64 0A64 64 0 1 0 64 128A64 64 0 0 0 64 0zM38.6 40.96L64 62.728L89.4 40.968A4 4 0 0 1 94.6 47.04L66.6 71.04A4 4 0 0 1 61.4 71.04L33.4 47.04A4 4 0 0 1 38.6 40.96zM38.6 64.96L64 86.728L89.4 64.968A4 4 0 0 1 94.6 71.04L66.6 95.04A4 4 0 0 1 61.4 95.04L33.4 71.04A4 4 0 1 1 38.6 64.96z" />
    <glyph glyph-name="angle-double-down"
      unicode="&#xEA37;"
      horiz-adv-x="128" d="M121.272 70.928A4 4 0 1 0 126.728 65.072L66.728 9.072A4 4 0 0 0 61.272 9.072L1.272 65.072A4 4 0 1 0 6.728 70.928L64 17.472L121.272 70.928zM64 57.472L121.272 110.928A4 4 0 1 0 126.728 105.072L66.728 49.072A4 4 0 0 0 61.272 49.072L1.272 105.072A4 4 0 1 0 6.728 110.928L64 57.472z" />
    <glyph glyph-name="angle-double-down-mini"
      unicode="&#xEA38;"
      horiz-adv-x="128" d="M89.4 63.04A4 4 0 0 0 94.6 56.96L66.6 32.96A4 4 0 0 0 61.4 32.96L33.4 56.96A4 4 0 1 0 38.6 63.04L64 41.272L89.4 63.032zM89.4 87.04A4 4 0 0 0 94.6 80.96L66.6 56.96A4 4 0 0 0 61.4 56.96L33.4 80.96A4 4 0 1 0 38.6 87.04L64 65.272L89.4 87.032z" />
    <glyph glyph-name="angle-double-down-mini-solid"
      unicode="&#xEA39;"
      horiz-adv-x="128" d="M64 74L91.2 94.4A8 8 0 0 0 100.8 81.6L68.8 57.6A8 8 0 0 0 59.2 57.6L27.2 81.6A8 8 0 1 0 36.8 94.4L64 74zM64 42L91.2 62.4A8 8 0 0 0 100.8 49.6L68.8 25.6A8 8 0 0 0 59.2 25.6L27.2 49.6A8 8 0 1 0 36.8 62.4L64 42z" />
    <glyph glyph-name="angle-double-down-solid"
      unicode="&#xEA3A;"
      horiz-adv-x="128" d="M64 26.536L114.8 70.072A8 8 0 1 0 125.2 57.928L69.2 9.928A8 8 0 0 0 58.8 9.928L2.8 57.928A8 8 0 1 0 13.2 70.072L64 26.536zM13.2 110.08L64 66.536L114.8 110.072A8 8 0 1 0 125.2 97.928L69.2 49.928A8 8 0 0 0 58.8 49.928L2.8 97.928A8 8 0 1 0 13.2 110.072z" />
    <glyph glyph-name="angle-double-left"
      unicode="&#xEA3B;"
      horiz-adv-x="128" d="M17.472 64L70.928 6.728A4 4 0 1 0 65.072 1.272L9.072 61.272A4 4 0 0 0 9.072 66.728L65.072 126.728A4 4 0 1 0 70.928 121.272L17.472 64zM57.472 64L110.928 6.728A4 4 0 1 0 105.072 1.272L49.072 61.272A4 4 0 0 0 49.072 66.728L105.072 126.728A4 4 0 1 0 110.928 121.272L57.472 64z" />
    <glyph glyph-name="angle-double-left-mini"
      unicode="&#xEA3C;"
      horiz-adv-x="128" d="M87.04 38.6A4 4 0 0 0 80.96 33.4L56.96 61.4A4 4 0 0 0 56.96 66.6L80.96 94.6A4 4 0 0 0 87.04 89.4L65.272 64L87.032 38.6zM41.272 64L63.032 38.6A4 4 0 0 0 56.96 33.4L32.96 61.4A4 4 0 0 0 32.96 66.6L56.96 94.6A4 4 0 1 0 63.04 89.4L41.272 64z" />
    <glyph glyph-name="angle-double-left-mini-solid"
      unicode="&#xEA3D;"
      horiz-adv-x="128" d="M74 64L94.4 36.8A8 8 0 1 0 81.6 27.2L57.6 59.2A8 8 0 0 0 57.6 68.8L81.6 100.8A8 8 0 0 0 94.4 91.2L74 64zM42 64L62.4 36.8A8 8 0 1 0 49.6 27.2L25.6 59.2A8 8 0 0 0 25.6 68.8L49.6 100.8A8 8 0 1 0 62.4 91.2L42 64z" />
    <glyph glyph-name="angle-double-left-solid"
      unicode="&#xEA3E;"
      horiz-adv-x="128" d="M26.536 64L70.072 13.2A8 8 0 0 0 57.928 2.8L9.928 58.8A8 8 0 0 0 9.928 69.2L57.928 125.2A8 8 0 0 0 70.072 114.8L26.536 64zM110.08 114.8L66.536 64L110.072 13.2A8 8 0 0 0 97.928 2.8L49.928 58.8A8 8 0 0 0 49.928 69.2L97.928 125.2A8 8 0 1 0 110.072 114.8z" />
    <glyph glyph-name="angle-double-right"
      unicode="&#xEA3F;"
      horiz-adv-x="128" d="M57.072 121.272A4 4 0 1 0 62.928 126.72L118.928 66.72A4 4 0 0 0 118.928 61.264L62.928 1.264A4 4 0 1 0 57.072 6.72L110.528 64L57.072 121.272zM17.072 121.272A4 4 0 1 0 22.928 126.72L78.928 66.72A4 4 0 0 0 78.928 61.264L22.928 1.264A4 4 0 1 0 17.072 6.72L70.528 64L17.072 121.272z" />
    <glyph glyph-name="angle-double-right-mini"
      unicode="&#xEA40;"
      horiz-adv-x="128" d="M64.96 89.4A4 4 0 1 0 71.04 94.6L95.04 66.6A4 4 0 0 0 95.04 61.4L71.04 33.4A4 4 0 1 0 64.96 38.6L86.728 64L64.968 89.4zM40.96 89.4A4 4 0 1 0 47.04 94.6L71.04 66.6A4 4 0 0 0 71.04 61.4L47.04 33.4A4 4 0 1 0 40.96 38.6L62.728 64L40.968 89.4z" />
    <glyph glyph-name="angle-double-right-mini-solid"
      unicode="&#xEA41;"
      horiz-adv-x="128" d="M54 64L33.6 36.8A8 8 0 0 1 46.4 27.2L70.4 59.2A8 8 0 0 1 70.4 68.8L46.4 100.8A8 8 0 1 1 33.6 91.2L54 64zM86 64L65.6 36.8A8 8 0 0 1 78.4 27.2L102.4 59.2A8 8 0 0 1 102.4 68.8L78.4 100.8A8 8 0 1 1 65.6 91.2L86 64z" />
    <glyph glyph-name="angle-double-right-solid"
      unicode="&#xEA42;"
      horiz-adv-x="128" d="M101.464 64L57.92 13.2A8 8 0 1 1 70.064 2.8L118.064 58.8A8 8 0 0 1 118.064 69.2L70.064 125.2A8 8 0 1 1 57.92 114.8L101.464 64zM17.92 114.8L61.464 64L17.92 13.2A8 8 0 1 1 30.064 2.8L78.064 58.8A8 8 0 0 1 78.064 69.2L30.064 125.2A8 8 0 0 1 17.92 114.8z" />
    <glyph glyph-name="angle-double-up"
      unicode="&#xEA43;"
      horiz-adv-x="128" d="M64 110.528L6.728 57.072A4 4 0 1 0 1.272 62.928L61.272 118.928A4 4 0 0 0 66.728 118.928L126.728 62.928A4 4 0 1 0 121.272 57.072L64 110.528zM64 70.528L6.728 17.072A4 4 0 1 0 1.272 22.928L61.272 78.928A4 4 0 0 0 66.728 78.928L126.728 22.928A4 4 0 1 0 121.272 17.072L64 70.528z" />
    <glyph glyph-name="angle-double-up-mini"
      unicode="&#xEA44;"
      horiz-adv-x="128" d="M38.6 40.96A4 4 0 1 0 33.4 47.04L61.4 71.04A4 4 0 0 0 66.6 71.04L94.6 47.04A4 4 0 0 0 89.4 40.96L64 62.728L38.6 40.968zM38.6 64.96A4 4 0 1 0 33.4 71.04L61.4 95.04A4 4 0 0 0 66.6 95.04L94.6 71.04A4 4 0 1 0 89.4 64.96L64 86.728L38.6 64.968z" />
    <glyph glyph-name="angle-double-up-mini-solid"
      unicode="&#xEA45;"
      horiz-adv-x="128" d="M64 54L36.8 33.6A8 8 0 0 0 27.2 46.4L59.2 70.4A8 8 0 0 0 68.8 70.4L100.8 46.4A8 8 0 0 0 91.2 33.6L64 54zM64 86L36.8 65.6A8 8 0 1 0 27.2 78.4L59.2 102.4A8 8 0 0 0 68.8 102.4L100.8 78.4A8 8 0 0 0 91.2 65.6L64 86z" />
    <glyph glyph-name="angle-double-up-solid"
      unicode="&#xEA46;"
      horiz-adv-x="128" d="M64 101.464L13.2 57.92A8 8 0 1 0 2.8 70.064L58.8 118.064A8 8 0 0 0 69.2 118.064L125.2 70.064A8 8 0 1 0 114.8 57.92L64 101.464zM13.2 17.92A8 8 0 1 0 2.8 30.064L58.8 78.064A8 8 0 0 0 69.2 78.064L125.2 30.064A8 8 0 1 0 114.8 17.92L64 61.464L13.2 17.92z" />
    <glyph glyph-name="angle-down"
      unicode="&#xEA47;"
      horiz-adv-x="128" d="M121.272 94.928A4 4 0 1 0 126.728 89.072L66.728 33.072A4 4 0 0 0 61.272 33.072L1.272 89.072A4 4 0 1 0 6.728 94.928L64 41.472L121.272 94.928z" />
    <glyph glyph-name="angle-down-mini"
      unicode="&#xEA48;"
      horiz-adv-x="128" d="M64 57.272L89.4 79.032A4 4 0 0 0 94.6 72.96L66.6 48.96A4 4 0 0 0 61.4 48.96L33.4 72.96A4 4 0 1 0 38.6 79.04L64 57.272z" />
    <glyph glyph-name="angle-down-mini-solid"
      unicode="&#xEA49;"
      horiz-adv-x="128" d="M64 58L91.2 78.4A8 8 0 1 0 100.8 65.6L68.8 41.6A8 8 0 0 0 59.2 41.6L27.2 65.6A8 8 0 1 0 36.8 78.4L64 58z" />
    <glyph glyph-name="angle-down-solid"
      unicode="&#xEA4A;"
      horiz-adv-x="128" d="M64 50.536L114.8 94.072A8 8 0 1 0 125.2 81.928L69.2 33.928A8 8 0 0 0 58.8 33.928L2.8 81.928A8 8 0 1 0 13.2 94.072L64 50.536z" />
    <glyph glyph-name="angle-fillet-down"
      unicode="&#xEA4B;"
      horiz-adv-x="128" d="M8.816 73.008A15.68 15.68 0 0 0 9.168 94.832L9.64 95.272A14.832 14.832 0 0 0 30.6 94.36L61.04 61.136A4 4 0 0 1 66.944 61.136L97.4 94.36C97.616 94.6 97.616 94.6 97.848 94.832A14.832 14.832 0 0 0 118.824 94.832A15.68 15.68 0 0 0 119.176 73.008L72.744 23.488C72.48 23.208 72.48 23.208 72.2 22.944A12 12 0 0 0 55.24 23.488L8.808 73.008zM14.656 78.48L61.08 28.96A4 4 0 0 1 66.736 28.776L66.92 28.96L113.344 78.48A7.68 7.68 0 0 1 113.168 89.168A6.832 6.832 0 0 1 103.512 89.168L103.304 88.96L72.848 55.728A12 12 0 0 0 55.152 55.728L24.696 88.96A6.832 6.832 0 0 1 15.04 89.376L14.832 89.168A7.68 7.68 0 0 1 14.656 78.48z" />
    <glyph glyph-name="angle-fillet-down-solid"
      unicode="&#xEA4C;"
      horiz-adv-x="128" d="M8.816 73.008A15.68 15.68 0 0 0 9.168 94.832L9.64 95.272A14.832 14.832 0 0 0 30.6 94.36L61.04 61.136A4 4 0 0 1 66.944 61.136L97.4 94.36C97.616 94.6 97.616 94.6 97.848 94.832A14.832 14.832 0 0 0 118.824 94.832A15.68 15.68 0 0 0 119.176 73.008L72.744 23.488C72.48 23.208 72.48 23.208 72.2 22.944A12 12 0 0 0 55.24 23.488L8.808 73.008z" />
    <glyph glyph-name="angle-fillet-left"
      unicode="&#xEA4D;"
      horiz-adv-x="128" d="M28.776 66.736A4 4 0 0 1 28.96 61.08L78.48 14.656A7.68 7.68 0 0 1 89.168 14.832L89.376 15.04A6.832 6.832 0 0 1 88.96 24.696L55.728 55.152A12 12 0 0 0 55.728 72.848L88.96 103.304L89.168 103.512A6.832 6.832 0 0 1 89.168 113.168A7.68 7.68 0 0 1 78.48 113.344L28.96 66.92L28.776 66.736zM73.016 119.184A15.68 15.68 0 0 0 94.832 118.832A14.832 14.832 0 0 0 94.832 97.856L94.36 97.408L61.136 66.952A4 4 0 0 1 61.136 61.048L94.36 30.592C100.4 25.056 100.808 15.672 95.272 9.632L94.832 9.168A15.68 15.68 0 0 0 73.008 8.816L23.488 55.248A12 12 0 0 0 22.944 72.208C23.208 72.488 23.208 72.488 23.488 72.752L73.008 119.184z" />
    <glyph glyph-name="angle-fillet-left-solid"
      unicode="&#xEA4E;"
      horiz-adv-x="128" d="M73.008 119.184A15.68 15.68 0 0 0 94.832 118.832A14.832 14.832 0 0 0 94.832 97.856L94.36 97.408L61.136 66.952A4 4 0 0 1 61.136 61.048L94.36 30.592C100.4 25.056 100.808 15.672 95.272 9.632L94.832 9.168A15.68 15.68 0 0 0 73.008 8.816L23.488 55.248A12 12 0 0 0 22.944 72.208C23.208 72.488 23.208 72.488 23.488 72.752L73.008 119.184z" />
    <glyph glyph-name="angle-fillet-right"
      unicode="&#xEA4F;"
      horiz-adv-x="128" d="M73.008 72.112A12 12 0 0 0 72.272 55.152L39.04 24.696L38.832 24.488A6.832 6.832 0 0 1 38.832 14.832A7.68 7.68 0 0 1 49.52 14.656L99.04 61.08L99.224 61.264A4 4 0 0 1 99.04 66.92L49.52 113.344A7.68 7.68 0 0 1 38.832 113.168L38.624 112.96A6.832 6.832 0 0 1 39.04 103.304L72.272 72.848C72.528 72.608 72.768 72.368 73.008 72.112zM33.64 97.408A14.832 14.832 0 0 0 32.728 118.368L33.168 118.832A15.68 15.68 0 0 0 54.992 119.184L104.512 72.752A12 12 0 0 0 105.056 55.792C104.792 55.512 104.792 55.512 104.512 55.248L54.992 8.816A15.68 15.68 0 0 0 33.168 9.168A14.832 14.832 0 0 0 33.168 30.144L33.64 30.592L66.864 61.048A4 4 0 0 1 66.864 66.952L33.64 97.408z" />
    <glyph glyph-name="angle-fillet-right-solid"
      unicode="&#xEA50;"
      horiz-adv-x="128" d="M33.64 97.408A14.832 14.832 0 0 0 32.728 118.368L33.168 118.832A15.68 15.68 0 0 0 54.992 119.184L104.512 72.752A12 12 0 0 0 105.056 55.792C104.792 55.512 104.792 55.512 104.512 55.248L54.992 8.816A15.68 15.68 0 0 0 33.168 9.168A14.832 14.832 0 0 0 33.168 30.144L33.64 30.592L66.864 61.048A4 4 0 0 1 66.864 66.952L33.64 97.408z" />
    <glyph glyph-name="angle-fillet-up"
      unicode="&#xEA51;"
      horiz-adv-x="128" d="M55.248 104.512C55.512 104.792 55.512 104.792 55.792 105.056A12 12 0 0 0 72.752 104.512L119.184 54.992A15.68 15.68 0 0 0 118.832 33.168L118.36 32.728A14.832 14.832 0 0 0 97.4 33.64L66.96 66.864A4 4 0 0 1 61.056 66.864L30.6 33.64C30.384 33.4 30.384 33.4 30.152 33.168A14.832 14.832 0 0 0 9.176 33.168A15.68 15.68 0 0 0 8.824 54.992L55.256 104.512zM14.656 49.52A7.68 7.68 0 0 1 14.832 38.832A6.832 6.832 0 0 1 24.488 38.832L24.696 39.04L55.152 72.272A12 12 0 0 0 72.848 72.272L103.304 39.04A6.832 6.832 0 0 1 112.96 38.624L113.168 38.832A7.68 7.68 0 0 1 113.344 49.52L66.92 99.04A4 4 0 0 1 61.264 99.224L61.08 99.04L14.656 49.52z" />
    <glyph glyph-name="angle-fillet-up-solid"
      unicode="&#xEA52;"
      horiz-adv-x="128" d="M55.248 104.512C55.512 104.792 55.512 104.792 55.792 105.056A12 12 0 0 0 72.752 104.512L119.184 54.992A15.68 15.68 0 0 0 118.832 33.168L118.36 32.728A14.832 14.832 0 0 0 97.4 33.64L66.96 66.864A4 4 0 0 1 61.056 66.864L30.6 33.64C30.384 33.4 30.384 33.4 30.152 33.168A14.832 14.832 0 0 0 9.176 33.168A15.68 15.68 0 0 0 8.824 54.992L55.256 104.512z" />
    <glyph glyph-name="angle-left"
      unicode="&#xEA53;"
      horiz-adv-x="128" d="M41.472 64L94.928 6.728A4 4 0 1 0 89.072 1.272L33.072 61.272A4 4 0 0 0 33.072 66.728L89.072 126.728A4 4 0 0 0 94.928 121.272L41.472 64z" />
    <glyph glyph-name="angle-left-mini"
      unicode="&#xEA54;"
      horiz-adv-x="128" d="M79.04 38.6A4 4 0 0 0 72.96 33.4L48.96 61.4A4 4 0 0 0 48.96 66.6L72.96 94.6A4 4 0 1 0 79.04 89.4L57.272 64L79.032 38.6z" />
    <glyph glyph-name="angle-left-mini-solid"
      unicode="&#xEA55;"
      horiz-adv-x="128" d="M58 64L78.4 36.8A8 8 0 0 0 65.6 27.2L41.6 59.2A8 8 0 0 0 41.6 68.8L65.6 100.8A8 8 0 1 0 78.4 91.2L58 64z" />
    <glyph glyph-name="angle-left-solid"
      unicode="&#xEA56;"
      horiz-adv-x="128" d="M50.536 64L94.072 13.2A8 8 0 0 0 81.928 2.8L33.928 58.8A8 8 0 0 0 33.928 69.2L81.928 125.2A8 8 0 1 0 94.072 114.8L50.536 64z" />
    <glyph glyph-name="angle-right"
      unicode="&#xEA57;"
      horiz-adv-x="128" d="M86.528 64L33.072 121.272A4 4 0 0 0 38.928 126.72L94.928 66.72A4 4 0 0 0 94.928 61.264L38.928 1.264A4 4 0 1 0 33.072 6.72L86.528 64z" />
    <glyph glyph-name="angle-right-mini"
      unicode="&#xEA58;"
      horiz-adv-x="128" d="M70.728 64L48.968 89.4A4 4 0 1 0 55.04 94.6L79.04 66.6A4 4 0 0 0 79.04 61.4L55.04 33.4A4 4 0 1 0 48.96 38.6L70.728 64z" />
    <glyph glyph-name="angle-right-mini-solid"
      unicode="&#xEA59;"
      horiz-adv-x="128" d="M70 64L49.6 91.2A8 8 0 1 0 62.4 100.8L86.4 68.8A8 8 0 0 0 86.4 59.2L62.4 27.2A8 8 0 0 0 49.6 36.8L70 64z" />
    <glyph glyph-name="angle-right-solid"
      unicode="&#xEA5A;"
      horiz-adv-x="128" d="M77.464 64L33.92 13.2A8 8 0 1 1 46.064 2.8L94.064 58.8A8 8 0 0 1 94.064 69.2L46.064 125.2A8 8 0 0 1 33.92 114.8L77.464 64z" />
    <glyph glyph-name="angle-up"
      unicode="&#xEA5B;"
      horiz-adv-x="128" d="M64 86.528L6.728 33.072A4 4 0 0 0 1.272 38.928L61.272 94.928A4 4 0 0 0 66.728 94.928L126.728 38.928A4 4 0 0 0 121.272 33.072L64 86.528z" />
    <glyph glyph-name="angle-up-mini"
      unicode="&#xEA5C;"
      horiz-adv-x="128" d="M38.6 48.96A4 4 0 1 0 33.4 55.04L61.4 79.04A4 4 0 0 0 66.6 79.04L94.6 55.04A4 4 0 1 0 89.4 48.96L64 70.728L38.6 48.968z" />
    <glyph glyph-name="angle-up-mini-solid"
      unicode="&#xEA5D;"
      horiz-adv-x="128" d="M36.8 49.6A8 8 0 0 0 27.2 62.4L59.2 86.4A8 8 0 0 0 68.8 86.4L100.8 62.4A8 8 0 0 0 91.2 49.6L64 70L36.8 49.6z" />
    <glyph glyph-name="angle-up-solid"
      unicode="&#xEA5E;"
      horiz-adv-x="128" d="M64 77.464L13.2 33.92A8 8 0 1 0 2.8 46.064L58.8 94.064A8 8 0 0 0 69.2 94.064L125.2 46.064A8 8 0 0 0 114.8 33.92L64 77.464z" />
    <glyph glyph-name="arrow-circle-down"
      unicode="&#xEA5F;"
      horiz-adv-x="128" d="M64 0A64 64 0 1 0 64 128A64 64 0 0 0 64 0zM64 8A56 56 0 1 1 64 120A56 56 0 0 1 64 8zM56 96V60A4 4 0 0 0 52 56H37.656L64 29.656L90.344 56H76A4 4 0 0 0 72 60V96H56zM48 64V100A4 4 0 0 0 52 104H76A4 4 0 0 0 80 100V64H100A4 4 0 0 0 102.832 57.168L66.832 21.168A4 4 0 0 0 61.168 21.168L25.168 57.168A4 4 0 0 0 28 64H48z" />
    <glyph glyph-name="arrow-circle-down-solid"
      unicode="&#xEA60;"
      horiz-adv-x="128" d="M64 0A64 64 0 1 0 64 128A64 64 0 0 0 64 0zM48 64H28A4 4 0 0 1 25.168 57.168L61.168 21.168A4 4 0 0 1 66.832 21.168L102.832 57.168A4 4 0 0 1 100 64H80V100A4 4 0 0 1 76 104H52A4 4 0 0 1 48 100V64z" />
    <glyph glyph-name="arrow-circle-left"
      unicode="&#xEA61;"
      horiz-adv-x="128" d="M29.656 64L56 37.656V52A4 4 0 0 0 60 56H96V72H60A4 4 0 0 0 56 76V90.344L29.656 64zM64 48V28A4 4 0 0 0 57.168 25.168L21.168 61.168A4 4 0 0 0 21.168 66.832L57.168 102.832A4 4 0 0 0 64 100V80H100A4 4 0 0 0 104 76V52A4 4 0 0 0 100 48H64zM64 0A64 64 0 1 0 64 128A64 64 0 0 0 64 0zM64 8A56 56 0 1 1 64 120A56 56 0 0 1 64 8z" />
    <glyph glyph-name="arrow-circle-left-solid"
      unicode="&#xEA62;"
      horiz-adv-x="128" d="M64 0A64 64 0 1 0 64 128A64 64 0 0 0 64 0zM64 48H100A4 4 0 0 1 104 52V76A4 4 0 0 1 100 80H64V100A4 4 0 0 1 57.168 102.832L21.168 66.832A4 4 0 0 1 21.168 61.168L57.168 25.168A4 4 0 0 1 64 28V48z" />
    <glyph glyph-name="arrow-circle-right"
      unicode="&#xEA63;"
      horiz-adv-x="128" d="M64 0A64 64 0 1 0 64 128A64 64 0 0 0 64 0zM64 8A56 56 0 1 1 64 120A56 56 0 0 1 64 8zM64 80V100A4 4 0 0 0 70.832 102.832L106.832 66.832A4 4 0 0 0 106.832 61.168L70.832 25.168A4 4 0 0 0 64 28V48H28A4 4 0 0 0 24 52V76A4 4 0 0 0 28 80H64zM72 90.344V76A4 4 0 0 0 68 72H32V56H68A4 4 0 0 0 72 52V37.656L98.344 64L72 90.344z" />
    <glyph glyph-name="arrow-circle-right-solid"
      unicode="&#xEA64;"
      horiz-adv-x="128" d="M64 0A64 64 0 1 0 64 128A64 64 0 0 0 64 0zM64 80H28A4 4 0 0 1 24 76V52A4 4 0 0 1 28 48H64V28A4 4 0 0 1 70.832 25.168L106.832 61.168A4 4 0 0 1 106.832 66.832L70.832 102.832A4 4 0 0 1 64 100V80z" />
    <glyph glyph-name="arrow-circle-up"
      unicode="&#xEA65;"
      horiz-adv-x="128" d="M64 0A64 64 0 1 0 64 128A64 64 0 0 0 64 0zM64 8A56 56 0 1 1 64 120A56 56 0 0 1 64 8zM80 64V28A4 4 0 0 0 76 24H52A4 4 0 0 0 48 28V64H28A4 4 0 0 0 25.168 70.832L61.168 106.832A4 4 0 0 0 66.832 106.832L102.832 70.832A4 4 0 0 0 100 64H80zM72 32V68A4 4 0 0 0 76 72H90.344L64 98.344L37.656 72H52A4 4 0 0 0 56 68V32H72z" />
    <glyph glyph-name="arrow-circle-up-solid"
      unicode="&#xEA66;"
      horiz-adv-x="128" d="M64 0A64 64 0 1 0 64 128A64 64 0 0 0 64 0zM80 64H100A4 4 0 0 1 102.832 70.832L66.832 106.832A4 4 0 0 1 61.168 106.832L25.168 70.832A4 4 0 0 1 28 64H48V28A4 4 0 0 1 52 24H76A4 4 0 0 1 80 28V64z" />
    <glyph glyph-name="arrow-down"
      unicode="&#xEA67;"
      horiz-adv-x="128" d="M48.008 120V60A4 4 0 0 0 44.008 56H21.184L64 9.88L106.832 56H84.008A4 4 0 0 0 80.008 60V120H48.008zM40.008 64V124A4 4 0 0 0 44.008 128H84.008A4 4 0 0 0 88.008 124V64H116.008A4 4 0 0 0 118.936 57.28L66.936 1.28A4 4 0 0 0 61.08 1.28L9.08 57.28A4 4 0 0 0 12 64H40z" />
    <glyph glyph-name="arrow-down-solid"
      unicode="&#xEA68;"
      horiz-adv-x="128" d="M40.008 64V124A4 4 0 0 0 44.008 128H84.008A4 4 0 0 0 88.008 124V64H116.008A4 4 0 0 0 118.936 57.28L66.936 1.28A4 4 0 0 0 61.08 1.28L9.08 57.28A4 4 0 0 0 12 64H40z" />
    <glyph glyph-name="arrow-fillet-down"
      unicode="&#xEA69;"
      horiz-adv-x="128" d="M97.088 70.944A15.456 15.456 0 0 0 118.832 70.832L119.184 70.456A14.927999999999999 14.927999999999999 0 0 0 118.464 49.36L72.176 6.16A12 12 0 0 0 55.808 6.16L9.544 49.36L9.168 49.712A14.927999999999999 14.927999999999999 0 0 0 9.168 70.832A15.392 15.392 0 0 0 30.872 70.896A2564.48 2564.48 0 0 0 48 53.856V112A16 16 0 1 0 80 112V53.96C84.336 58.376 90.032 64.032 97.088 70.944zM61.272 12.016A4 4 0 0 1 66.728 12.016L113 55.208A6.927999999999999 6.927999999999999 0 0 1 113.336 65C110.28 68.064 105.6 68.088 102.68 65.224C90.952 53.736 83.024 45.744 78.952 41.304A4 4 0 0 0 72 44V112A8 8 0 1 1 56 112V44A4 4 0 0 0 49.048 41.296C46.488 44.096 38.52 52.096 25.256 65.2A7.392 7.392 0 0 1 14.832 65.168A6.927999999999999 6.927999999999999 0 0 1 14.832 55.368L61.272 12.016z" />
    <glyph glyph-name="arrow-fillet-down-solid"
      unicode="&#xEA6A;"
      horiz-adv-x="128" d="M97.088 70.944A15.456 15.456 0 0 0 118.832 70.832L119.184 70.456A14.927999999999999 14.927999999999999 0 0 0 118.464 49.36L72.176 6.16A12 12 0 0 0 55.808 6.16L9.544 49.36L9.168 49.712A14.927999999999999 14.927999999999999 0 0 0 9.168 70.832A15.392 15.392 0 0 0 30.872 70.896A2564.48 2564.48 0 0 0 48 53.856V112A16 16 0 1 0 80 112V53.96C84.336 58.376 90.032 64.032 97.088 70.944z" />
    <glyph glyph-name="arrow-fillet-left"
      unicode="&#xEA6B;"
      horiz-adv-x="128" d="M12.016 66.728A4 4 0 0 1 12.016 61.272L55.208 15C58.08 12.12 62.464 12.12 65.168 14.832A7.312 7.312 0 0 1 65.168 25.168L41.168 49.168A4 4 0 0 0 44 56H112A8 8 0 0 1 112 72H44A4 4 0 0 0 41.168 78.832L65.168 102.832A7.312 7.312 0 0 1 65.168 113.168C62.208 115.952 57.816 115.8 55.208 113L12.016 66.728zM53.656 48L70.832 30.832C76.808 24.848 76.808 15.152 70.832 9.168A14.927999999999999 14.927999999999999 0 0 0 49.712 9.168L49.36 9.544L6.16 55.816A12 12 0 0 0 6.16 72.184L49.36 118.456A14.927999999999999 14.927999999999999 0 0 0 70.456 119.184L70.832 118.832C76.808 112.848 76.808 103.152 70.832 97.168L53.656 80H112A16 16 0 1 0 112 48H53.656z" />
    <glyph glyph-name="arrow-fillet-left-solid"
      unicode="&#xEA6C;"
      horiz-adv-x="128" d="M53.656 48L70.832 30.832C76.808 24.848 76.808 15.152 70.832 9.168A14.927999999999999 14.927999999999999 0 0 0 49.712 9.168L49.36 9.544L6.16 55.816A12 12 0 0 0 6.16 72.184L49.36 118.456A14.927999999999999 14.927999999999999 0 0 0 70.456 119.184L70.832 118.832C76.808 112.848 76.808 103.152 70.832 97.168L53.656 80H112A16 16 0 1 0 112 48H53.656z" />
    <glyph glyph-name="arrow-fillet-right"
      unicode="&#xEA6D;"
      horiz-adv-x="128" d="M57.168 97.168A15.312000000000001 15.312000000000001 0 0 0 57.168 118.832L57.544 119.184A14.927999999999999 14.927999999999999 0 0 0 78.64 118.464L121.832 72.184A12 12 0 0 0 121.832 55.816L78.64 9.544L78.288 9.168A14.927999999999999 14.927999999999999 0 0 0 57.168 9.168A15.312000000000001 15.312000000000001 0 0 0 57.168 30.832L74.344 48H16A16 16 0 1 0 16 80H74.344L57.168 97.168zM115.984 66.728L72.792 113A6.927999999999999 6.927999999999999 0 0 1 63 113.336C59.976 110.312 59.976 105.688 62.832 102.832L86.832 78.832A4 4 0 0 0 84 72H16A8 8 0 1 1 16 56H84A4 4 0 0 0 86.832 49.168L62.832 25.168A7.312 7.312 0 0 1 62.832 14.832A6.927999999999999 6.927999999999999 0 0 1 72.632 14.832L115.984 61.272A4 4 0 0 1 115.984 66.728z" />
    <glyph glyph-name="arrow-fillet-right-solid"
      unicode="&#xEA6E;"
      horiz-adv-x="128" d="M57.168 97.168A15.312000000000001 15.312000000000001 0 0 0 57.168 118.832L57.544 119.184A14.927999999999999 14.927999999999999 0 0 0 78.64 118.464L121.832 72.184A12 12 0 0 0 121.832 55.816L78.64 9.544L78.288 9.168A14.927999999999999 14.927999999999999 0 0 0 57.168 9.168A15.312000000000001 15.312000000000001 0 0 0 57.168 30.832L74.344 48H16A16 16 0 1 0 16 80H74.344L57.168 97.168z" />
    <glyph glyph-name="arrow-fillet-up"
      unicode="&#xEA6F;"
      horiz-adv-x="128" d="M48 74.344L30.832 57.168A15.312000000000001 15.312000000000001 0 0 0 9.168 57.168L8.816 57.544A14.927999999999999 14.927999999999999 0 0 0 9.536 78.64L55.824 121.84A12 12 0 0 0 72.192 121.84L118.464 78.648L118.84 78.296C124.664 72.456 124.664 63.016 118.84 57.176A15.312000000000001 15.312000000000001 0 0 0 97.176 57.176L80 74.344V16A16 16 0 1 0 48 16V74.344zM61.272 115.984L15 72.792A6.927999999999999 6.927999999999999 0 0 1 14.664 63C17.688 59.976 22.312 59.976 25.168 62.832L49.168 86.832A4 4 0 0 0 56 84V16A8 8 0 0 1 72 16V84A4 4 0 0 0 78.832 86.832L102.832 62.832A7.312 7.312 0 0 1 113.168 62.832A6.927999999999999 6.927999999999999 0 0 1 113.168 72.632L66.728 115.984A4 4 0 0 1 61.272 115.984z" />
    <glyph glyph-name="arrow-fillet-up-solid"
      unicode="&#xEA70;"
      horiz-adv-x="128" d="M48 74.344L30.832 57.168A15.312000000000001 15.312000000000001 0 0 0 9.168 57.168L8.816 57.544A14.927999999999999 14.927999999999999 0 0 0 9.536 78.64L55.824 121.84A12 12 0 0 0 72.192 121.84L118.464 78.648L118.84 78.296C124.664 72.456 124.664 63.016 118.84 57.176A15.312000000000001 15.312000000000001 0 0 0 97.176 57.176L80 74.344V16A16 16 0 1 0 48 16V74.344z" />
    <glyph glyph-name="arrow-left"
      unicode="&#xEA71;"
      horiz-adv-x="128" d="M9.88 64L56 21.176V44A4 4 0 0 0 60 48H120V80H60A4 4 0 0 0 56 84V106.824L9.88 64zM64 40V12A4 4 0 0 0 57.28 9.072L1.28 61.072A4 4 0 0 0 1.28 66.928L57.28 118.928A4 4 0 0 0 64 116V88H124A4 4 0 0 0 128 84V44A4 4 0 0 0 124 40H64z" />
    <glyph glyph-name="arrow-left-solid"
      unicode="&#xEA72;"
      horiz-adv-x="128" d="M64 40V12A4 4 0 0 0 57.28 9.072L1.28 61.072A4 4 0 0 0 1.28 66.928L57.28 118.928A4 4 0 0 0 64 116V88H124A4 4 0 0 0 128 84V44A4 4 0 0 0 124 40H64z" />
    <glyph glyph-name="arrow-long-down"
      unicode="&#xEA73;"
      horiz-adv-x="128" d="M56 24V124.288C56 126.336 57.792 128 60 128S64 126.336 64 124.288V24H76A4 4 0 0 0 78.832 17.168L62.832 1.168A4 4 0 0 0 57.168 1.168L41.168 17.168A4 4 0 0 0 44 24H56z" />
    <glyph glyph-name="arrow-long-down-solid"
      unicode="&#xEA74;"
      horiz-adv-x="128" d="M72 32H84.008A4 4 0 0 0 87.08 25.44L67.08 1.44A4 4 0 0 0 60.936 1.44L40.936 25.44A4 4 0 0 0 44 32H56V120A8 8 0 1 0 72 120V32z" />
    <glyph glyph-name="arrow-long-left"
      unicode="&#xEA75;"
      horiz-adv-x="128" d="M24 72H124A4 4 0 1 0 124 64H24V52A4 4 0 0 0 17.168 49.168L1.168 65.168A4 4 0 0 0 1.168 70.832L17.168 86.832A4 4 0 0 0 24 84V72z" />
    <glyph glyph-name="arrow-long-left-solid"
      unicode="&#xEA76;"
      horiz-adv-x="128" d="M32 71.992H120A8 8 0 1 0 120 55.992H32V44.008A4 4 0 0 0 25.44 40.936L1.44 60.928A4 4 0 0 0 1.44 67.072L25.44 87.072A4 4 0 0 0 32 83.992V72z" />
    <glyph glyph-name="arrow-long-right"
      unicode="&#xEA77;"
      horiz-adv-x="128" d="M100 64H4A4 4 0 0 0 4 72H100V84A4 4 0 0 0 106.496 87.12L126.496 71.12A4 4 0 0 0 126.496 64.88L106.496 48.88A4 4 0 0 0 100 52V64z" />
    <glyph glyph-name="arrow-long-right-solid"
      unicode="&#xEA78;"
      horiz-adv-x="128" d="M96 71.984V84A4 4 0 0 0 102.56 87.072L126.56 67.072A4 4 0 0 0 126.56 60.928L102.56 40.928A4 4 0 0 0 96 44V56H8A8 8 0 1 0 8 72H96z" />
    <glyph glyph-name="arrow-long-up"
      unicode="&#xEA79;"
      horiz-adv-x="128" d="M64 104V3.712C64 1.664 62.208 0 60 0S56 1.664 56 3.712V104H44A4 4 0 0 0 41.168 110.832L57.168 126.832A4 4 0 0 0 62.832 126.832L78.832 110.832A4 4 0 0 0 76 104H64z" />
    <glyph glyph-name="arrow-long-up-solid"
      unicode="&#xEA7A;"
      horiz-adv-x="128" d="M72 96V8A8 8 0 0 0 56 8V96H44.008A4 4 0 0 0 40.936 102.56L60.936 126.56A4 4 0 0 0 67.08 126.56L87.08 102.56A4 4 0 0 0 84.008 96H72z" />
    <glyph glyph-name="arrow-right"
      unicode="&#xEA7B;"
      horiz-adv-x="128" d="M64 88V116A4 4 0 0 0 70.72 118.928L126.72 66.928A4 4 0 0 0 126.72 61.072L70.72 9.072A4 4 0 0 0 64 12V40H4A4 4 0 0 0 0 44V84A4 4 0 0 0 4 88H64zM118.12 64L72 106.824V84A4 4 0 0 0 68 80H8V48H68A4 4 0 0 0 72 44V21.176L118.12 64z" />
    <glyph glyph-name="arrow-right-solid"
      unicode="&#xEA7C;"
      horiz-adv-x="128" d="M64 88V116A4 4 0 0 0 70.72 118.928L126.72 66.928A4 4 0 0 0 126.72 61.072L70.72 9.072A4 4 0 0 0 64 12V40H4A4 4 0 0 0 0 44V84A4 4 0 0 0 4 88H64z" />
    <glyph glyph-name="arrow-slim-down"
      unicode="&#xEA7D;"
      horiz-adv-x="128" d="M64 13.656L105.168 54.832A4 4 0 0 0 110.832 49.168L62.832 1.168A4 4 0 0 0 57.168 1.168L9.168 49.168A4 4 0 1 0 14.832 54.832L56 13.656V124.248C56 126.328 57.792 128 60 128S64 126.32 64 124.248V13.656z" />
    <glyph glyph-name="arrow-slim-down-solid"
      unicode="&#xEA7E;"
      horiz-adv-x="128" d="M56 27.312V120A8 8 0 1 0 72 120V27.312L106.344 61.656A8 8 0 0 0 117.656 50.344L69.656 2.344A8 8 0 0 0 58.344 2.344L10.344 50.344A8 8 0 1 0 21.656 61.656L56 27.312z" />
    <glyph glyph-name="arrow-slim-left"
      unicode="&#xEA7F;"
      horiz-adv-x="128" d="M13.656 72H124.248C126.328 72 128 70.208 128 68S126.32 64 124.248 64H13.656L54.832 22.832A4 4 0 0 0 49.168 17.168L1.168 65.168A4 4 0 0 0 1.168 70.832L49.168 118.832A4 4 0 1 0 54.832 113.168L13.656 72z" />
    <glyph glyph-name="arrow-slim-left-solid"
      unicode="&#xEA80;"
      horiz-adv-x="128" d="M27.312 72H120A8 8 0 0 0 120 56H27.312L61.656 21.656A8 8 0 0 0 50.344 10.344L2.344 58.344A8 8 0 0 0 2.344 69.656L50.344 117.656A8 8 0 1 0 61.656 106.344L27.312 72z" />
    <glyph glyph-name="arrow-slim-right"
      unicode="&#xEA81;"
      horiz-adv-x="128" d="M114.344 64H4A4 4 0 0 0 4 72H114.344L73.168 113.168A4 4 0 1 0 78.832 118.832L126.832 70.832A4 4 0 0 0 126.832 65.168L78.832 17.168A4 4 0 0 0 73.168 22.832L114.344 64z" />
    <glyph glyph-name="arrow-slim-right-solid"
      unicode="&#xEA82;"
      horiz-adv-x="128" d="M100.688 56H8A8 8 0 1 0 8 72H100.688L66.344 106.344A8 8 0 0 0 77.656 117.656L125.656 69.656A8 8 0 0 0 125.656 58.344L77.656 10.344A8 8 0 1 0 66.344 21.656L100.688 56z" />
    <glyph glyph-name="arrow-slim-up"
      unicode="&#xEA83;"
      horiz-adv-x="128" d="M64 114.344V3.752C64 1.672 62.208 0 60 0S56 1.68 56 3.752V114.344L14.832 73.168A4 4 0 1 0 9.168 78.832L57.168 126.832A4 4 0 0 0 62.832 126.832L110.832 78.832A4 4 0 0 0 105.168 73.168L64 114.344z" />
    <glyph glyph-name="arrow-slim-up-solid"
      unicode="&#xEA84;"
      horiz-adv-x="128" d="M56 100.688L21.656 66.344A8 8 0 0 0 10.344 77.656L58.344 125.656A8 8 0 0 0 69.656 125.656L117.656 77.656A8 8 0 1 0 106.344 66.344L72 100.688V8A8 8 0 0 0 56 8V100.688z" />
    <glyph glyph-name="arrow-up"
      unicode="&#xEA85;"
      horiz-adv-x="128" d="M88 64V4A4 4 0 0 0 84 0H44A4 4 0 0 0 40 4V64H12A4 4 0 0 0 9.072 70.72L61.072 126.72A4 4 0 0 0 66.928 126.72L118.928 70.72A4 4 0 0 0 116 64H88zM48 8H80V68A4 4 0 0 0 84 72H106.824L64 118.12L21.176 72H44A4 4 0 0 0 48 68V8z" />
    <glyph glyph-name="arrow-up-solid"
      unicode="&#xEA86;"
      horiz-adv-x="128" d="M88 64V4A4 4 0 0 0 84 0H44A4 4 0 0 0 40 4V64H12A4 4 0 0 0 9.072 70.72L61.072 126.72A4 4 0 0 0 66.928 126.72L118.928 70.72A4 4 0 0 0 116 64H88z" />
    <glyph glyph-name="arrows-h"
      unicode="&#xEA87;"
      horiz-adv-x="128" d="M97.168 81.176L114.344 64H13.656L30.832 81.176A4 4 0 1 1 25.168 86.824L1.176 62.832A4 4 0 0 1 1.176 57.168L25.168 33.176A4 4 0 1 1 30.832 38.824L13.656 56H114.344L97.168 38.824A4 4 0 1 1 102.832 33.176L126.832 57.168A4.016 4.016 0 0 1 126.832 62.832L102.832 86.824A4 4 0 1 1 97.168 81.176z" />
    <glyph glyph-name="arrows-h-solid"
      unicode="&#xEA88;"
      horiz-adv-x="128" d="M96 72V84A4 4 0 0 0 102.56 87.072L126.56 67.072A4 4 0 0 0 126.56 60.928L102.56 40.928A4 4 0 0 0 96 44V56H32V44A4 4 0 0 0 25.44 40.928L1.44 60.928A4 4 0 0 0 1.44 67.072L25.44 87.072A4 4 0 0 0 32 84V72H96z" />
    <glyph glyph-name="arrows-v"
      unicode="&#xEA89;"
      horiz-adv-x="128" d="M64 13.656L81.168 30.832A4 4 0 0 0 86.832 25.168L62.832 1.168A4 4 0 0 0 57.168 1.168L33.168 25.168A4 4 0 0 0 38.832 30.832L56 13.656V114.344L38.832 97.168A4 4 0 1 0 33.168 102.832L57.168 126.832A4 4 0 0 0 62.832 126.832L86.832 102.832A4 4 0 0 0 81.168 97.168L64 114.344V13.656z" />
    <glyph glyph-name="arrows-v-solid"
      unicode="&#xEA8A;"
      horiz-adv-x="128" d="M72 32H84A4 4 0 0 0 87.072 25.44L67.072 1.44A4 4 0 0 0 60.928 1.44L40.928 25.44A4 4 0 0 0 44 32H56V96H44A4 4 0 0 0 40.928 102.56L60.928 126.56A4 4 0 0 0 67.072 126.56L87.072 102.56A4 4 0 0 0 84 96H72V32z" />
    <glyph glyph-name="binoculars"
      unicode="&#xEA8B;"
      horiz-adv-x="128" d="M32.656 95.368A8.688 8.688 0 0 0 46.592 97.32C48.232 95.608 49.096 93.304 48.992 90.944L48.408 63.056C48.184 63.288 48.024 63.568 47.8 63.792A28.024 28.024 0 0 1 28 72C25.016 72 22.192 71.4 19.496 70.536L32.656 95.368zM71.312 79.36L71.8 54.176A14.912 14.912 0 0 1 63.72 55.984A13.664 13.664 0 0 1 56.216 54.24L56.752 79.408C58.608 82.136 61.408 84 64.016 84C66.632 84 69.456 82.12 71.312 79.36zM87.744 100C90.936 100.016 93.864 98.304 95.408 95.536L108.464 70.696A27.928 27.928 0 0 1 79.624 63.2L79.088 90.848A8.712 8.712 0 0 0 87.744 100zM100 24A20 20 0 1 0 100 64A20 20 0 0 0 100 24zM8 44A20 20 0 1 0 48 44A20 20 0 0 0 8 44zM55.872 42.744C57.64 46.384 60.344 48.24 63.72 48.008C67.64 48.24 70.36 46.384 72.128 42.744A27.92 27.92 0 0 1 100 16A28 28 0 0 1 123.656 58.984L102.448 99.336A16.736 16.736 0 0 1 75.704 102.848A16.632 16.632 0 0 1 71.096 90.6L71.104 90.008C68.88 91.192 66.496 92 64.016 92C61.536 92 59.176 91.2 56.976 90.032L56.992 90.688A16.664 16.664 0 0 1 25.584 99.104L3.592 57.608A28.599999999999998 28.599999999999998 0 0 1 0 44A28 28 0 0 1 28 16C43.032 16 55.2 27.872 55.872 42.744z" />
    <glyph glyph-name="binoculars-solid"
      unicode="&#xEA8C;"
      horiz-adv-x="128" d="M100 24A20 20 0 1 0 100 64A20 20 0 0 0 100 24zM8 44A20 20 0 1 0 48 44A20 20 0 0 0 8 44zM55.872 42.744C57.64 46.384 60.344 48.24 63.72 48.008C67.64 48.24 70.36 46.384 72.128 42.744A27.92 27.92 0 0 1 100 16A28 28 0 0 1 123.656 58.984L102.448 99.336A16.736 16.736 0 0 1 75.704 102.848A16.632 16.632 0 0 1 71.096 90.6L71.104 90.008C68.88 91.192 66.496 92 64.016 92C61.536 92 59.176 91.2 56.976 90.032L56.992 90.688A16.664 16.664 0 0 1 25.584 99.104L3.592 57.608A28.599999999999998 28.599999999999998 0 0 1 0 44A28 28 0 0 1 28 16C43.032 16 55.2 27.872 55.872 42.744z" />
    <glyph glyph-name="book"
      unicode="&#xEA8D;"
      horiz-adv-x="128" d="M48 44A4 4 0 0 1 44 48H20A4 4 0 0 1 20 40H44A4 4 0 0 1 48 44M20 64H44A4 4 0 0 1 44 72H20A4 4 0 0 1 20 64M8 113.8C14.92 117.936 22.896 120 32 120S49.08 117.936 56 113.8V18.864C48.824 22.296 40.808 24 32 24S15.176 22.296 8 18.864V113.8zM112 113.8V18.864C104.824 22.296 96.808 24 88 24S71.176 22.296 64 18.864V113.8C70.92 117.936 78.896 120 88 120S105.08 117.936 112 113.8zM6.216 8.672C13.544 13.552 22.104 16 32 16C41.896 16 50.456 13.56 57.784 8.672C57.84 8.632 57.904 8.648 57.96 8.616C58.336 8.392 58.752 8.32 59.176 8.216C59.456 8.16 59.72 8.024 60 8.024C60.28 8.024 60.544 8.16 60.824 8.224C61.248 8.32 61.664 8.384 62.04 8.616C62.096 8.648 62.16 8.632 62.216 8.672C69.544 13.552 78.104 16 88 16C97.896 16 106.456 13.56 113.784 8.672A4 4 0 0 1 120 12V116A3.9760000000000004 3.9760000000000004 0 0 1 118.216 119.328C109.544 125.112 99.44 128 88 128C77.504 128 68.176 125.44 60 120.576C51.824 125.44 42.496 128 32 128C20.56 128 10.456 125.112 1.784 119.328A3.9760000000000004 3.9760000000000004 0 0 1 0 116V12A4 4 0 0 1 6.216 8.672zM20 88H44A4 4 0 0 1 44 96H20A4 4 0 0 1 20 88M76 64H100A4 4 0 0 1 100 72H76A4 4 0 0 1 76 64M76 40H100A4 4 0 0 1 100 48H76A4 4 0 0 1 76 40M76 88H100A4 4 0 0 1 100 96H76A4 4 0 0 1 76 88" />
    <glyph glyph-name="book-solid"
      unicode="&#xEA8E;"
      horiz-adv-x="128" d="M6.216 8.672A4 4 0 0 0 0 12V116C0 117.336 0.664 118.592 1.784 119.328C10.456 125.112 20.56 128 32 128C42.496 128 51.824 125.44 60 120.576C68.176 125.44 77.504 128 88 128C99.44 128 109.544 125.112 118.216 119.328C119.336 118.592 120 117.328 120 116V12A4 4 0 0 0 113.784 8.672C106.456 13.552 97.896 16 88 16C78.104 16 69.544 13.56 62.216 8.672C62.16 8.632 62.096 8.648 62.04 8.616C61.664 8.392 61.248 8.32 60.824 8.216C60.544 8.16 60.28 8.024 60 8.024C59.72 8.024 59.456 8.16 59.176 8.224C58.752 8.32 58.336 8.384 57.96 8.616C57.904 8.648 57.84 8.632 57.784 8.672C50.456 13.552 41.896 16 32 16C22.104 16 13.544 13.56 6.216 8.672zM48 44A4 4 0 0 1 44 48H20A4 4 0 0 1 20 40H44A4 4 0 0 1 48 44zM20 64H44A4 4 0 0 1 44 72H20A4 4 0 0 1 20 64zM20 88H44A4 4 0 0 1 44 96H20A4 4 0 0 1 20 88zM76 64H100A4 4 0 0 1 100 72H76A4 4 0 0 1 76 64zM76 40H100A4 4 0 0 1 100 48H76A4 4 0 0 1 76 40zM76 88H100A4 4 0 0 1 100 96H76A4 4 0 0 1 76 88z" />
    <glyph glyph-name="bookmark"
      unicode="&#xEA8F;"
      horiz-adv-x="128" d="M16 20V104H24V60A4 4 0 0 1 30.4 56.8L44 67L57.6 56.8A4 4 0 0 1 64 60V104H84A12 12 0 0 0 96 92V20A12 12 0 0 0 84 8H28A12 12 0 0 0 16 20zM32 104H56V68L46.4 75.2A4.008 4.008 0 0 1 41.6 75.2L32 68V104zM24 120H100A12 12 0 0 0 112 108V36A12 12 0 0 0 104 24.68V92A20 20 0 0 1 84 112H16A8 8 0 0 0 24 120zM84 0A20 20 0 0 1 103.664 16.336A20 20 0 0 1 120 36V108A20 20 0 0 1 100 128H24A16 16 0 0 1 8 112V20A20 20 0 0 1 28 0H84z" />
    <glyph glyph-name="bookmark-solid"
      unicode="&#xEA90;"
      horiz-adv-x="128" d="M24 128A16 16 0 0 1 8 112V20A20 20 0 0 1 28 0H84A20 20 0 0 1 103.664 16.336A20 20 0 0 1 120 36V108A20 20 0 0 1 100 128H24zM24 120H100A12 12 0 0 0 112 108V36C112 30.768 108.664 26.336 104 24.688V92A20 20 0 0 1 84 112H16A8 8 0 0 0 24 120zM24 60V104H64V60A4 4 0 0 0 57.6 56.8L44 67L30.4 56.8A4 4 0 0 0 24 60z" />
    <glyph glyph-name="briefcase"
      unicode="&#xEA91;"
      horiz-adv-x="128" d="M52 72H76A4 4 0 0 1 76 80H52A4 4 0 0 1 52 72M8 36V62.904C25.576 58.376 44.208 56 64 56S102.424 58.376 120 62.904V36A20 20 0 0 0 100 16H28A20 20 0 0 0 8 36zM36 96H120V71.136C102.52 66.432 83.88 64 64 64C44.12 64 25.48 66.432 8 71.136V96H36zM46.472 112H81.528L85.528 104H42.472L46.472 112zM100 8A28 28 0 0 1 128 36V100A4 4 0 0 1 124 104H94.472L87.576 117.792A4 4 0 0 1 84 120H44A4 4 0 0 1 40.424 117.792L33.528 104H4A4 4 0 0 1 0 100V36A28 28 0 0 1 28 8H100z" />
    <glyph glyph-name="briefcase-solid"
      unicode="&#xEA92;"
      horiz-adv-x="128" d="M44 120A4.024 4.024 0 0 1 40.416 117.792L33.528 104H4A4 4 0 0 1 0 100V73.544L5.096 71.848C23.4 66.616 43.032 64 64 64C84.976 64 104.6 66.616 122.736 71.792L127.456 73.36A0.8 0.8 0 0 1 128 74.12V100A4 4 0 0 1 124 104H94.472L87.576 117.792A3.9920000000000004 3.9920000000000004 0 0 1 84 120H44zM46.472 112H81.528L85.528 104H42.472L46.472 112zM48 76C48 78.216 49.784 80 52 80H76A4 4 0 1 0 76 72H52A4 4 0 0 0 48 76zM125.096 64.152C106.064 58.712 85.696 56 64 56C42.304 56 21.936 58.712 2.736 64.208L0 65.112V36A28 28 0 0 1 28 8H100A28 28 0 0 1 128 36V65.12L125.096 64.152z" />
    <glyph glyph-name="browser-tab"
      unicode="&#xEA93;"
      horiz-adv-x="128" d="M88 88H20A12 12 0 0 1 8 76V8H76A12 12 0 0 1 88 20V88zM20 96H96V20A20 20 0 0 0 76 0H0V76A20 20 0 0 0 20 96zM120 120H52A12 12 0 0 1 40 108V104H32V108A20 20 0 0 0 52 128H128V52A20 20 0 0 0 108 32H104V40H108A12 12 0 0 1 120 52V120z" />
    <glyph glyph-name="browser-tab-solid"
      unicode="&#xEA94;"
      horiz-adv-x="128" d="M20 96H96V20A20 20 0 0 0 76 0H0V76A20 20 0 0 0 20 96zM120 120H52A12 12 0 0 1 40 108V104H32V108A20 20 0 0 0 52 128H128V52A20 20 0 0 0 108 32H104V40H108A12 12 0 0 1 120 52V120z" />
    <glyph glyph-name="browser-windows"
      unicode="&#xEA95;"
      horiz-adv-x="128" d="M8 72H104V8H20A12 12 0 0 0 8 20V72zM8 104H92A12 12 0 0 0 104 92V80H8V104zM0 108V20A20 20 0 0 1 20 0H108A4 4 0 0 1 112 4V92A20 20 0 0 1 92 112H4A4 4 0 0 1 0 108zM128 44V100A28 28 0 0 1 100 128H44C32 128 28 124 24 120H100A20 20 0 0 0 120 100V24C124 28 128 32 128 44M20 96A4 4 0 1 1 20 88A4 4 0 0 1 20 96M36 96A4 4 0 1 1 36 88A4 4 0 0 1 36 96M52 96A4 4 0 1 1 52 88A4 4 0 0 1 52 96" />
    <glyph glyph-name="browser-windows-solid"
      unicode="&#xEA96;"
      horiz-adv-x="128" d="M8 88H96A8 8 0 0 0 104 80V8H20A12 12 0 0 0 8 20V88zM0 20A20 20 0 0 1 20 0H108A4 4 0 0 1 112 4V96A16 16 0 0 1 96 112H4A4 4 0 0 1 0 108V20zM104 128H44C32 128 28 124 24 120H102.4A17.6 17.6 0 0 0 120 102.4V24C124 28 128 32 128 44V104A24 24 0 0 1 104 128zM16 100A4 4 0 1 1 24 100A4 4 0 0 1 16 100zM32 100A4 4 0 1 1 40 100A4 4 0 0 1 32 100zM48 100A4 4 0 1 1 56 100A4 4 0 0 1 48 100z" />
    <glyph glyph-name="brush"
      unicode="&#xEA97;"
      horiz-adv-x="128" d="M72.072 65.56L65.56 72.072L111.936 118.44A4.6 4.6 0 1 0 118.44 111.928L72.072 65.56zM59.752 66.264L66.264 59.752L53.504 46.984A24.864000000000004 24.864000000000004 0 0 1 46.984 53.496L59.752 66.264zM33.632 29.672C31.032 35.344 25.648 38.592 17.896 39.632A16.512 16.512 0 0 0 49.56 33.032C49.56 29.688 48.952 26.68 47.744 23.992C39.76 24.048 35.296 26.056 33.632 29.672zM16.512 31.752C21.872 31.112 25.032 29.248 26.368 26.328C28.912 20.8 34.088 17.576 41.528 16.448C35.272 11.776 25.288 9.088 11.288 8.424C14.616 15.44 16.352 23.24 16.512 31.76zM106.112 124.256L38.912 57.04A24.56 24.56 0 0 1 33.04 57.816A24.768 24.768 0 0 1 8.272 33.04C8.272 22.824 5.744 13.984 0.704 6.432A4.128 4.128 0 0 1 4.136 0C39.144 0 57.808 10.88 57.808 33.032C57.808 35.072 57.488 37.016 57.04 38.904L124.24 106.12A12.816 12.816 0 1 1 106.128 124.24z" />
    <glyph glyph-name="brush-solid"
      unicode="&#xEA98;"
      horiz-adv-x="128" d="M124.36 106.688L66.576 48.688A3.9760000000000004 3.9760000000000004 0 0 0 60.944 48.688L48.984 60.688A4.008 4.008 0 0 0 48.984 66.344L106.768 124.344A12.4 12.4 0 0 0 124.36 124.344C129.216 119.464 129.216 111.56 124.36 106.688zM4.12 0A4.128 4.128 0 0 0 0.696 6.416C5.72 13.976 8.232 22.816 8.232 33.032A24.720000000000002 24.720000000000002 0 0 0 32.912 57.808A24.720000000000002 24.720000000000002 0 0 0 57.6 33.032C57.592 10.888 39 0 4.12 0z" />
    <glyph glyph-name="building"
      unicode="&#xEA99;"
      horiz-adv-x="128" d="M66.592 127.744L2.592 103.744A4 4 0 0 1 0 100V20A3.9920000000000004 3.9920000000000004 0 1 1 8 20V97.224L64 118.224V20A3.9920000000000004 3.9920000000000004 0 1 1 72 20V86.696L120 72.976V20A3.9920000000000004 3.9920000000000004 0 1 1 128 20V76A4.016 4.016 0 0 1 125.096 79.84L72 95.024V124A4 4 0 0 1 66.592 127.744M52 40H20A4 4 0 0 1 20 32H52A4 4 0 0 1 52 40M4 0H124A4 4 0 0 1 124 8H4A4 4 0 0 1 4 0M52 88H20A4 4 0 0 1 20 80H52A4 4 0 0 1 52 88M108 64H84A4 4 0 0 1 84 56H108A4 4 0 0 1 108 64M108 40H84A4 4 0 0 1 84 32H108A4 4 0 0 1 108 40M52 64H20A4 4 0 0 1 20 56H52A4 4 0 0 1 52 64" />
    <glyph glyph-name="building-solid"
      unicode="&#xEA9A;"
      horiz-adv-x="128" d="M8 8V100C8 101.6 8.96 103.04 10.424 103.672L66.424 127.672A4 4 0 0 0 72 123.992V94.872L117.264 79.792A4 4 0 0 0 120 75.992V8H124A4 4 0 0 0 124 0H4A4 4 0 1 0 4 8H8zM28 80H52A4 4 0 0 1 52 88H28A4 4 0 1 1 28 80zM28 56H52A4 4 0 0 1 52 64H28A4 4 0 1 1 28 56zM28 32H52A4 4 0 1 1 52 40H28A4 4 0 0 1 28 32zM76 32H100A4 4 0 1 1 100 40H76A4 4 0 0 1 76 32zM76 56H100A4 4 0 1 1 100 64H76A4 4 0 1 1 76 56z" />
    <glyph glyph-name="calendar"
      unicode="&#xEA9B;"
      horiz-adv-x="128" d="M88 112V108A4 4 0 0 1 96 108V112H108A12 12 0 0 0 120 100V20A12 12 0 0 0 108 8H28A12 12 0 0 0 16 20V100A12 12 0 0 0 28 112H40V108A4 4 0 0 1 48 108V112H88zM44 128A4 4 0 0 1 40 124V120H28A20 20 0 0 1 8 100V20A20 20 0 0 1 28 0H108A20 20 0 0 1 128 20V100A20 20 0 0 1 108 120H96V124A4 4 0 0 1 88 124V120H48V124A4 4 0 0 1 44 128zM60 72H64V44A4 4 0 0 1 72 44V76A4 4 0 0 1 68 80H60A4 4 0 0 1 60 72" />
    <glyph glyph-name="calendar-solid"
      unicode="&#xEA9C;"
      horiz-adv-x="128" d="M88 120H48V124A4 4 0 1 1 40 124V120H28A20 20 0 0 1 8 100V20A20 20 0 0 1 28 0H108A20 20 0 0 1 128 20V100A20 20 0 0 1 108 120H96V124A4 4 0 1 1 88 124V120zM16 20V88H120V20A12 12 0 0 0 108 8H28A12 12 0 0 0 16 20zM60 72A4 4 0 1 1 60 64H64V36A3.9920000000000004 3.9920000000000004 0 1 1 72 36V68A4 4 0 0 1 68 72H60z" />
    <glyph glyph-name="camera"
      unicode="&#xEA9D;"
      horiz-adv-x="128" d="M8 36V64H20A4 4 0 0 1 20 72H8V80H20A4 4 0 0 1 20 88H8V92A4 4 0 0 0 12 96H36A4 4 0 0 1 39.576 98.208L46.472 112H81.528L88.424 98.208A4 4 0 0 1 92 96H116A4 4 0 0 0 120 92V36A20 20 0 0 0 100 16H28A20 20 0 0 0 8 36zM100 8A28 28 0 0 1 128 36V92A12 12 0 0 1 116 104H94.472L87.576 117.792A4 4 0 0 1 84 120H44A4 4 0 0 1 40.424 117.792L33.528 104H12A12 12 0 0 1 0 92V36A28 28 0 0 1 28 8H100zM64 80A24 24 0 1 0 64 32A24 24 0 0 0 64 80M64 24A32 32 0 1 1 64 88A32 32 0 0 1 64 24" />
    <glyph glyph-name="camera-retro"
      unicode="&#xEA9E;"
      horiz-adv-x="128" d="M96 84A4 4 0 1 0 104 84V36A4 4 0 1 0 96 36V84zM29.656 112L22.832 105.168A4 4 0 0 0 20 104H12A4 4 0 0 1 8 100V36A20 20 0 0 1 28 16H100A20 20 0 0 1 120 36V100A4 4 0 0 1 116 104H68A4 4 0 0 0 65.168 105.168L58.344 112H29.656zM69.656 112H116A12 12 0 0 0 128 100V36A28 28 0 0 0 100 8H28A28 28 0 0 0 0 36V100A12 12 0 0 0 12 112H18.344L25.168 118.832A4 4 0 0 0 28 120H60A4 4 0 0 0 62.832 118.832L69.656 112zM44 32A28 28 0 1 0 44 88A28 28 0 0 0 44 32zM44 40A20 20 0 1 1 44 80A20 20 0 0 1 44 40z" />
    <glyph glyph-name="camera-retro-solid"
      unicode="&#xEA9F;"
      horiz-adv-x="128" d="M69.656 112H116A12 12 0 0 0 128 100V36A28 28 0 0 0 100 8H28A28 28 0 0 0 0 36V100A12 12 0 0 0 12 112H18.344L25.168 118.832A4 4 0 0 0 28 120H60A4 4 0 0 0 62.832 118.832L69.656 112zM96 84V36A4 4 0 1 1 104 36V84A4 4 0 1 1 96 84zM44 32A28 28 0 1 1 44 88A28 28 0 0 1 44 32zM44 40A20 20 0 1 1 44 80A20 20 0 0 1 44 40z" />
    <glyph glyph-name="camera-solid"
      unicode="&#xEAA0;"
      horiz-adv-x="128" d="M100 8A28 28 0 0 1 128 36V92A12 12 0 0 1 116 104H94.472L87.576 117.792A4 4 0 0 1 84 120H44A4 4 0 0 1 40.424 117.792L33.528 104H12A12 12 0 0 1 0 92V36A28 28 0 0 1 28 8H100zM64 80A24 24 0 1 0 64 32A24 24 0 0 0 64 80M64 24A32 32 0 1 1 64 88A32 32 0 0 1 64 24" />
    <glyph glyph-name="car"
      unicode="&#xEAA1;"
      horiz-adv-x="128" d="M32 12A4 4 0 0 0 24 12V16H32V12zM8 36V52A12 12 0 0 0 20 64H108A12 12 0 0 0 120 52V36A12 12 0 0 0 108 24H20A12 12 0 0 0 8 36zM16.608 72L21.016 102.832A20 20 0 0 0 40.816 120H87.184A20 20 0 0 0 106.984 102.832L111.392 72H16.608zM100 8A4 4 0 0 0 96 12V16H104V12A4 4 0 0 0 100 8zM100 0A12 12 0 0 1 112 12V16.4A20.016 20.016 0 0 1 128 36V52C128 58.496 124.856 64.208 120.064 67.856L114.904 103.96A28 28 0 0 1 87.184 128H40.816A28 28 0 0 1 13.096 103.96L7.936 67.856A19.888 19.888 0 0 1 0 52V36C0 26.328 6.872 18.256 16 16.4V12A12 12 0 1 1 40 12V16H88V12A12 12 0 0 1 100 0zM24 44A4 4 0 1 0 32 44A4 4 0 0 0 24 44M40 44A12 12 0 1 1 15.992 43.992A12 12 0 0 1 40 44M100 48A4 4 0 1 0 100 40A4 4 0 0 0 100 48M100 32A12 12 0 1 1 100 56A12 12 0 0 1 100 32" />
    <glyph glyph-name="chat-group"
      unicode="&#xEAA2;"
      horiz-adv-x="128" d="M8 68A12 12 0 0 0 20 80H60A12 12 0 0 0 72 68V44A12 12 0 0 0 60 32H30.424C28.056 32 25.736 31.296 23.768 29.984L8 19.472V68zM24 100A12 12 0 0 0 36 112H108A12 12 0 0 0 120 100V29.656L97.168 52.488A12 12 0 0 1 88.688 56.008H80V68A20 20 0 0 1 60 88H24V100zM6.216 8.672L28.2 23.328A4 4 0 0 0 30.424 24H60A20 20 0 0 1 80 44V48H88.688C89.744 48 90.768 47.576 91.512 46.832L121.168 17.168A4 4 0 0 1 128 20V100A20 20 0 0 1 108 120H36A20 20 0 0 1 16 100V87.6A20.016 20.016 0 0 1 0 68V12A4 4 0 0 1 6.216 8.672z" />
    <glyph glyph-name="chat-group-solid"
      unicode="&#xEAA3;"
      horiz-adv-x="128" d="M36 120A20 20 0 0 1 16 99.992V95.992H60A28 28 0 0 0 88 67.992V51.488A8 8 0 0 1 90.552 45.624L121.16 17.16A4.008 4.008 0 0 1 128 19.992V99.992A20 20 0 0 1 108 120H36zM20 87.992A20 20 0 0 1 0 67.992V12A4 4 0 0 1 6.216 8.664L28.208 23.32A3.952 3.952 0 0 0 30.424 23.992H60A20 20 0 0 1 80 43.992V67.992A20 20 0 0 1 60 87.992H20z" />
    <glyph glyph-name="check"
      unicode="&#xEAA4;"
      horiz-adv-x="128" d="M52 33.656L113.168 94.832A4 4 0 0 0 118.832 89.168L54.88 25.232C51.992 23.632 51.992 23.632 49.104 25.232L17.168 57.168A4 4 0 1 0 22.832 62.832L52 33.656z" />
    <glyph glyph-name="check-circle"
      unicode="&#xEAA5;"
      horiz-adv-x="128" d="M64 0A64 64 0 1 0 64 128A64 64 0 0 0 64 0zM64 8A56 56 0 1 1 64 120A56 56 0 0 1 64 8zM59.904 49.544L89.168 78.824A4 4 0 0 0 94.832 73.176L62.88 41.2C60.08 39.624 60.08 39.624 57.216 41.104L41.272 56A4 4 0 0 0 46.728 61.84L59.904 49.544z" />
    <glyph glyph-name="check-circle-solid"
      unicode="&#xEAA6;"
      horiz-adv-x="128" d="M64 4A60 60 0 1 0 64 124A60 60 0 0 0 64 4zM59.904 49.544L46.728 61.848A4 4 0 1 1 41.28 56L57.224 41.112C60.08 39.632 60.08 39.632 62.888 41.208L94.84 73.176A4 4 0 1 1 89.176 78.824L59.912 49.544z" />
    <glyph glyph-name="check-solid"
      unicode="&#xEAA7;"
      horiz-adv-x="128" d="M106.344 101.656A8 8 0 0 0 117.656 90.344L53.712 26.4C48 23.248 48 23.248 42.288 26.4L14.344 54.344A8 8 0 0 0 25.656 65.656L48 43.312L106.344 101.656z" />
    <glyph glyph-name="chevron-circle-down"
      unicode="&#xEAA8;"
      horiz-adv-x="128" d="M64 65.272L89.4 87.032A4 4 0 0 0 96 84V60A4 4 0 0 0 94.6 56.96L66.6 32.96A4 4 0 0 0 61.4 32.96L33.4 56.96A4 4 0 0 0 32 60V84A4 4 0 0 0 38.6 87.04L64 65.272zM64 41.272L88 61.84V75.304L66.6 56.96A4 4 0 0 0 61.4 56.96L40 75.304V61.84L64 41.272zM64 0A64 64 0 1 0 64 128A64 64 0 0 0 64 0zM64 8A56 56 0 1 1 64 120A56 56 0 0 1 64 8z" />
    <glyph glyph-name="chevron-circle-down-solid"
      unicode="&#xEAA9;"
      horiz-adv-x="128" d="M64 0A64 64 0 1 0 64 128A64 64 0 0 0 64 0zM89.4 87.032L64 65.264L38.6 87.024A4 4 0 0 1 32 84V60A4 4 0 0 1 33.4 56.96L61.4 32.96A4 4 0 0 1 66.6 32.96L94.6 56.96A4 4 0 0 1 96 60V84A4 4 0 0 1 89.4 87.04z" />
    <glyph glyph-name="chevron-circle-left"
      unicode="&#xEAAA;"
      horiz-adv-x="128" d="M41.272 64L61.84 40H75.304L56.96 61.4A4 4 0 0 0 56.96 66.6L75.304 88H61.84L41.272 64zM87.032 38.6A4 4 0 0 0 84 32H60A4 4 0 0 0 56.96 33.4L32.96 61.4A4 4 0 0 0 32.96 66.6L56.96 94.6A4 4 0 0 0 60 96H84A4 4 0 0 0 87.04 89.4L65.272 64L87.032 38.6zM64 0A64 64 0 1 0 64 128A64 64 0 0 0 64 0zM64 8A56 56 0 1 1 64 120A56 56 0 0 1 64 8z" />
    <glyph glyph-name="chevron-circle-left-solid"
      unicode="&#xEAAB;"
      horiz-adv-x="128" d="M64 0A64 64 0 1 0 64 128A64 64 0 0 0 64 0zM87.04 38.6L65.272 64L87.032 89.4A4 4 0 0 1 84 96H60A4 4 0 0 1 56.96 94.6L32.96 66.6A4 4 0 0 1 32.96 61.4L56.96 33.4A4 4 0 0 1 60 32H84A4 4 0 0 1 87.04 38.6z" />
    <glyph glyph-name="chevron-circle-right"
      unicode="&#xEAAC;"
      horiz-adv-x="128" d="M64 0A64 64 0 1 0 64 128A64 64 0 0 0 64 0zM64 8A56 56 0 1 1 64 120A56 56 0 0 1 64 8zM62.728 64L40.968 89.4A4 4 0 0 0 44 96H68A4 4 0 0 0 71.04 94.6L95.04 66.6A4 4 0 0 0 95.04 61.4L71.04 33.4A4 4 0 0 0 68 32H44A4 4 0 0 0 40.96 38.6L62.728 64zM66.16 88H52.696L71.04 66.6A4 4 0 0 0 71.04 61.4L52.696 40H66.16L86.728 64L66.16 88z" />
    <glyph glyph-name="chevron-circle-right-solid"
      unicode="&#xEAAD;"
      horiz-adv-x="128" d="M64 0A64 64 0 1 0 64 128A64 64 0 0 0 64 0zM62.728 64L40.968 38.6A4 4 0 0 1 44 32H68A4 4 0 0 1 71.04 33.4L95.04 61.4A4 4 0 0 1 95.04 66.6L71.04 94.6A4 4 0 0 1 68 96H44A4 4 0 0 1 40.96 89.4L62.728 64z" />
    <glyph glyph-name="chevron-circle-up"
      unicode="&#xEAAE;"
      horiz-adv-x="128" d="M64 0A64 64 0 1 0 64 128A64 64 0 0 0 64 0zM64 8A56 56 0 1 1 64 120A56 56 0 0 1 64 8zM38.6 40.96A4 4 0 0 0 32 44V68A4 4 0 0 0 33.4 71.04L61.4 95.04A4 4 0 0 0 66.6 95.04L94.6 71.04A4 4 0 0 0 96 68V44A4 4 0 0 0 89.4 40.96L64 62.728L38.6 40.968zM61.4 71.04A4 4 0 0 0 66.6 71.04L88 52.696V66.16L64 86.728L40 66.16V52.696L61.4 71.04z" />
    </font>
</defs>
</svg>
