<svg width="32" height="32" xmlns="http://www.w3.org/2000/svg"><path d="M25 25.665A12.456 12.456 0 0 1 16.5 29c-3.283 0-6.27-1.265-8.5-3.335a12.572 12.572 0 0 0 1.484-1.642l.736.534.587-.809-.753-.547c.497-.78.909-1.62 1.224-2.505l.93.303.31-.951-.942-.306c.235-.88.377-1.797.414-2.742H13v-1h-1.01a12.488 12.488 0 0 0-.414-2.742l.941-.306-.309-.95-.93.302a12.45 12.45 0 0 0-1.224-2.505l.753-.547-.587-.81-.736.535C9.038 8.387 8.54 7.837 8 7.335A12.456 12.456 0 0 1 16.5 4c3.283 0 6.27 1.265 8.5 3.335a12.572 12.572 0 0 0-1.484 1.642l-.736-.534-.587.809.753.547a12.45 12.45 0 0 0-1.224 2.505l-.93-.303-.31.951.942.306c-.235.88-.377 1.797-.414 2.742H20v1h1.01c.037.945.179 1.862.414 2.742l-.941.306.309.95.93-.302a12.45 12.45 0 0 0 1.224 2.505l-.753.547.587.81.736-.535c.446.59.943 1.14 1.484 1.642zm1.268-1.364A12.447 12.447 0 0 0 29 16.5c0-3.261-1.249-6.23-3.294-8.456-.504.465-.966.974-1.38 1.521l.881.641-.587.81-.863-.628c-.437.695-.802 1.44-1.083 2.225l.97.315-.308.951-.959-.311c-.205.781-.33 1.595-.366 2.432H23v1h-.99c.036.837.162 1.65.367 2.432l.959-.311.309.95-.971.316c.281.785.646 1.53 1.083 2.225l.863-.627.587.809-.882.64c.415.548.877 1.057 1.38 1.522-.013.015.37-.415.563-.655zm-19.623-.11A12.446 12.446 0 0 1 4 16.5c0-3.261 1.249-6.23 3.294-8.456.504.465.966.974 1.38 1.521l-.881.641.587.81.863-.628c.437.695.802 1.44 1.083 2.225l-.97.315.308.951.959-.311c.205.781.33 1.595.366 2.432H10v1h.99c-.036.837-.162 1.65-.367 2.432l-.959-.311-.309.95.971.316c-.281.785-.646 1.53-1.083 2.225l-.863-.627-.587.809.882.64a11.567 11.567 0 0 1-1.38 1.522c.013.015-.431-.486-.65-.766z" fill="#929292" fill-rule="evenodd"/></svg>