<svg width="32" height="32" xmlns="http://www.w3.org/2000/svg"><path d="M15.99 28.98V16.99h-4.01a12.465 12.465 0 0 1-3.99 8.665 12.453 12.453 0 0 0 8 3.325zM6.6 24.136A12.44 12.44 0 0 1 4 16.99h6.98a11.469 11.469 0 0 1-3.696 7.956c.014.015-.455-.514-.683-.81zm19.096.81a12.452 12.452 0 0 0 3.284-7.956H22a11.469 11.469 0 0 0 3.696 7.956zm-.706.71a12.453 12.453 0 0 1-8 3.324V16.99H21a12.465 12.465 0 0 0 3.99 8.665zm.706-17.622a12.452 12.452 0 0 1 3.284 7.956H22a11.469 11.469 0 0 1 3.696-7.956zm-.706-.709a12.453 12.453 0 0 0-8-3.325v11.99H21a12.465 12.465 0 0 1 3.99-8.665zm-17.706.71A12.452 12.452 0 0 0 4 15.99h6.98a11.469 11.469 0 0 0-3.696-7.956zm.706-.71a12.453 12.453 0 0 1 8-3.325v11.99h-4.01a12.465 12.465 0 0 0-3.99-8.665z" fill="#929292" fill-rule="evenodd"/></svg>