<svg width="32" height="32" viewBox="0 0 32 32" xmlns="http://www.w3.org/2000/svg"><path d="M18 13v-2h4v2h-4zm-.561 1C16.847 15.193 16 17.357 16 19.976 16 24 18 27 18 27h4s2-3.003 2-7.024c0-2.617-.847-4.783-1.439-5.976H17.44zm.474-4C17.67 8.62 17 7.727 17 6.5 17 5.388 18 4 20 4s3 1.395 3 2.5c0 1.227-.67 2.12-.913 3.5h-4.174zM6 13v-2h4v2H6zm-.561 1C4.847 15.193 4 17.357 4 19.976 4 24 6 27 6 27h4s2-3.003 2-7.024c0-2.617-.847-4.783-1.439-5.976H5.44zm.474-4C5.67 8.62 5 7.727 5 6.5 5 5.388 6 4 8 4s3 1.395 3 2.5c0 1.227-.67 2.12-.913 3.5H5.913z" fill="#929292" fill-rule="evenodd"/></svg>