<svg width="32" height="32" viewBox="0 0 32 32" xmlns="http://www.w3.org/2000/svg"><path d="M8 16c.008 3.511 3.084 3.881 3.836 6H25V11.994C25 8.684 22.306 6 18.995 6h-.99A6.002 6.002 0 0 0 12 11.997v.584c.483.24.849.419.885.432 1.545.561 3.269.996 4.654.996.914 0 1.863-.187 2.787-.5.325-.11.623-.229.887-.346.155-.07.263-.123.316-.15l.467.883a6.7 6.7 0 0 1-.376.18c-.29.13-.617.259-.973.38-1.019.345-2.072.553-3.108.553-1.534 0-3.348-.458-4.995-1.056-.095-.035-.418-.192-1.005-.484l-.671-.336C9.678 13.37 7.996 14.055 8 16zm4 7v2a2 2 0 0 0 2.003 2h8.994A1.996 1.996 0 0 0 25 25v-2H12zm2 1v1h4v-1h-4z" fill="#929292" fill-rule="evenodd"/></svg>