<svg width="32" height="32" viewBox="0 0 32 32" xmlns="http://www.w3.org/2000/svg"><path d="M16 20l-3.25 3.25-.75-.75 4.5-4.5 4.5 4.5-.75.75L17 20v11h-1V20zM14 5V3.998C14 2.898 14.898 2 16.005 2h.99C18.106 2 19 2.894 19 3.998V5h2.004c.551 0 .996.447.996.999v1.002a.994.994 0 0 1-.996.999h-9.008A.997.997 0 0 1 11 7.001V5.999c0-.556.446-.999.996-.999H14zm9 1h1.003C25.109 6 26 6.897 26 8.004v20.992A1.996 1.996 0 0 1 24.003 31H8.997A1.998 1.998 0 0 1 7 28.996V8.004C7 6.89 7.894 6 8.997 6H10v.995C10 8.102 10.894 9 12.003 9h8.994A2.001 2.001 0 0 0 23 6.995v-.99V6zm-6.5-1a.5.5 0 1 0 0-1 .5.5 0 0 0 0 1z" fill="#929292" fill-rule="evenodd"/></svg>