<svg width="32" height="32" viewBox="0 0 32 32" xmlns="http://www.w3.org/2000/svg"><path d="M26.443 13.15l-11.286 11.3-2.606-2.606 11.293-11.293 2.6 2.6zm.707-.707l1.73-1.731c.39-.39.386-1.025-.006-1.416l-1.18-1.177a1.001 1.001 0 0 0-1.416-.003L24.55 9.843l2.599 2.6zM11.904 22.61l-.64 3.113 3.135-.618-2.495-2.495zM22 11V8.004C22 6.897 21.11 6 20.003 6H19v.995A2.001 2.001 0 0 1 16.997 9H8.003A2.002 2.002 0 0 1 6 6.995v-.99V6H4.997C3.894 6 3 6.89 3 8.004v20.992C3 30.103 3.89 31 4.997 31h15.006C21.106 31 22 30.11 22 28.996V19l7.58-7.58a2.003 2.003 0 0 0 .01-2.83l-1.18-1.18a1.994 1.994 0 0 0-2.83.01L22 11zM10 5V3.998C10 2.898 10.898 2 12.005 2h.99C14.106 2 15 2.894 15 3.998V5h2.004c.551 0 .996.447.996.999v1.002a.994.994 0 0 1-.996.999H7.996A.997.997 0 0 1 7 7.001V5.999C7 5.443 7.446 5 7.996 5H10zm2.5 0a.5.5 0 1 0 0-1 .5.5 0 0 0 0 1z" fill="#929292" fill-rule="evenodd"/></svg>