<svg width="32" height="32" viewBox="0 0 32 32" xmlns="http://www.w3.org/2000/svg"><path d="M24 20.498V7.004C24 5.897 23.11 5 22.003 5H21v.995A2.001 2.001 0 0 1 18.997 8h-8.994A2.002 2.002 0 0 1 8 5.995v-.99V5H6.997C5.894 5 5 5.89 5 7.004v20.992C5 29.103 5.89 30 6.997 30h9.025A6.5 6.5 0 0 1 24 20.498zM12 4V2.998C12 1.898 12.898 1 14.005 1h.99C16.106 1 17 1.894 17 2.998V4h2.004c.551 0 .996.447.996.999v1.002a.994.994 0 0 1-.996.999H9.996A.997.997 0 0 1 9 6.001V4.999C9 4.443 9.446 4 9.996 4H12zm2.5 0a.5.5 0 1 0 0-1 .5.5 0 0 0 0 1zm7 28a5.5 5.5 0 1 0 0-11 5.5 5.5 0 0 0 0 11zM18 26v1h7v-1h-7z" fill="#929292" fill-rule="evenodd"/></svg>