<svg width="32" height="32" viewBox="0 0 32 32" xmlns="http://www.w3.org/2000/svg"><path d="M3.1 18c.071-.348.178-.682.317-1h26.168c.138.318.245.652.315 1H3.1zM3 19c0 .342.034.677.1 1h26.8c.065-.323.1-.658.1-1H3zM8.101 9c-.312.306-.596.64-.846 1h18.488a5.483 5.483 0 0 0 1.252-3.254 4.5 4.5 0 0 1-5.74-5.74 5.502 5.502 0 0 0-5.113 6.737A6.97 6.97 0 0 0 12.999 7c-1.32 0-2.554.365-3.608 1h7.864a4.502 4.502 0 0 1 2.75-5.746 5.5 5.5 0 0 0 5.74 5.74 4.506 4.506 0 0 1-1.269 1.88A5.474 5.474 0 0 0 21.5 9c-1.059 0-2.047.3-2.886.817A7.04 7.04 0 0 0 17.899 9H8.101zm-1.427 2c-.153.32-.281.655-.384 1H26.4a5.508 5.508 0 0 0-.657-1H6.673zm-.603 2A7.06 7.06 0 0 0 6 14h20.978a5.48 5.48 0 0 0-.185-1H6.071zM5 15a5.038 5.038 0 0 0-1 1h25.001A5.02 5.02 0 0 0 28 14.998V15H5.001zM4 22.003A4.992 4.992 0 0 1 3.415 21h26.168a5.003 5.003 0 0 1-.584 1H4v.003zm.997.997c.835.628 1.874 1 3.002 1h17.002a4.974 4.974 0 0 0 2.998-1H4.997z" fill="#929292" fill-rule="evenodd"/></svg>