<svg viewBox="0 0 32 32" xmlns="http://www.w3.org/2000/svg"><path d="M25.275 10.5a5.495 5.495 0 001.72-3.754 4.5 4.5 0 01-5.74-5.74 5.502 5.502 0 00-5.113 6.737 7 7 0 00-10.129 6.669A5.006 5.006 0 002.999 19c0 2.761 2.232 5 5 5h17c2.762 0 5-2.244 5-5a4.998 4.998 0 00-3-4.585 5.484 5.484 0 00-1.725-3.915zm-.798-.625a4.506 4.506 0 001.269-1.88 5.5 5.5 0 01-5.74-5.74A4.502 4.502 0 0017.573 8.7c.386.333.734.708 1.04 1.116A5.474 5.474 0 0121.5 9c1.097 0 2.119.321 2.977.875z" fill="#929292" fill-rule="evenodd"/></svg>