<svg width="32" height="32" viewBox="0 0 32 32" xmlns="http://www.w3.org/2000/svg"><path d="M24.953 10.22a5.5 5.5 0 0 0-10.435-3.054 7 7 0 0 0-8.507 7.246A5.006 5.006 0 0 0 3 19c0 2.761 2.232 5 5 5h17c2.762 0 5-2.244 5-5a4.998 4.998 0 0 0-3-4.585 5.49 5.49 0 0 0-2.047-4.196zM24 9.6L24 9.5a4.5 4.5 0 0 0-8.51-2.044 7.02 7.02 0 0 1 3.124 2.361A5.474 5.474 0 0 1 21.5 9c.9 0 1.75.216 2.499.6zM11 26.633v-1.136a.504.504 0 0 0-.5-.498c-.276 0-.5.215-.5.498v1.136l-.984-.568a.504.504 0 0 0-.681.184.494.494 0 0 0 .181.682l.984.568-.984.568a.504.504 0 0 0-.181.682c.138.24.436.326.681.184l.984-.568v1.136c0 .275.232.498.5.498.276 0 .5-.215.5-.498v-1.136l.984.568a.504.504 0 0 0 .681-.184.494.494 0 0 0-.181-.682L11.5 27.5l.984-.568a.504.504 0 0 0 .181-.682.494.494 0 0 0-.681-.184l-.984.568zm12 0v-1.136a.504.504 0 0 0-.5-.498c-.276 0-.5.215-.5.498v1.136l-.984-.568a.504.504 0 0 0-.681.184.494.494 0 0 0 .181.682l.984.568-.984.568a.504.504 0 0 0-.181.682c.138.24.436.326.681.184l.984-.568v1.136c0 .275.232.498.5.498.276 0 .5-.215.5-.498v-1.136l.984.568a.504.504 0 0 0 .681-.184.494.494 0 0 0-.181-.682L23.5 27.5l.984-.568a.504.504 0 0 0 .181-.682.494.494 0 0 0-.681-.184l-.984.568zm-6 1v-1.136a.504.504 0 0 0-.5-.498c-.276 0-.5.215-.5.498v1.136l-.984-.568a.504.504 0 0 0-.681.184.494.494 0 0 0 .181.682l.984.568-.984.568a.504.504 0 0 0-.181.682c.138.24.436.326.681.184l.984-.568v1.136c0 .275.232.498.5.498.276 0 .5-.215.5-.498v-1.136l.984.568a.504.504 0 0 0 .681-.184.494.494 0 0 0-.181-.682L17.5 28.5l.984-.568a.504.504 0 0 0 .181-.682.494.494 0 0 0-.681-.184l-.984.568zM19.5 0c-.276 0-.5.216-.5.495v2.01c0 .273.232.495.5.495.276 0 .5-.216.5-.495V.495A.503.503 0 0 0 19.5 0zm6.733 2.789a.494.494 0 0 0-.704-.003l-1.42 1.42a.503.503 0 0 0 .003.704.494.494 0 0 0 .704.004l1.42-1.421a.503.503 0 0 0-.003-.704zm2.789 6.733c0-.276-.216-.5-.495-.5h-2.01a.503.503 0 0 0-.495.5c0 .276.216.5.495.5h2.01a.503.503 0 0 0 .495-.5zM12.767 2.789a.494.494 0 0 0-.003.704l1.42 1.42a.503.503 0 0 0 .704-.003.494.494 0 0 0 .004-.704l-1.421-1.42a.503.503 0 0 0-.704.003z" fill="#929292" fill-rule="evenodd"/></svg>