<svg width="32" height="32" viewBox="0 0 32 32" xmlns="http://www.w3.org/2000/svg"><path d="M16 29c7.18 0 13-5.82 13-13S23.18 3 16 3 3 8.82 3 16s5.82 13 13 13zm0-1c6.627 0 12-5.373 12-12S22.627 4 16 4 4 9.373 4 16s5.373 12 12 12zm0-1c6.075 0 11-4.925 11-11S22.075 5 16 5 5 9.925 5 16s4.925 11 11 11zm2.121-8.879c-1.767 1.768-9.192 4.95-9.192 4.95s3.182-7.425 4.95-9.192c1.767-1.768 9.192-4.95 9.192-4.95s-3.182 7.425-4.95 9.192zm-3.5-3.521c-1.415 1.414-3.607 6.435-3.607 6.435s5.02-2.192 6.435-3.607L14.62 14.6z" fill="#929292" fill-rule="evenodd"/></svg>