<svg width="32" height="32" viewBox="0 0 32 32" xmlns="http://www.w3.org/2000/svg"><path d="M16 21h2v-3h-7v3h2c0 3.866 0 0 0 0a8 8 0 1 0 16 .004V4h-3v17.008A5 5 0 0 1 16 21s0 1.975 0 0zM27 9V5h1v4h-1zM4 11.5v.499A4.996 4.996 0 0 0 8.994 17h1.003c.554 0 1.255-.36 1.581-.826l1.776-2.537c.633-.904 1.66-.9 2.288 0l1.77 2.537c.317.456 1.014.826 1.58.826h1.005A5.002 5.002 0 0 0 25 11.999V11.5C25 8.462 22.53 6 19.51 6H9.49C6.458 6 4 8.469 4 11.5zM19.51 7C21.98 7 24 9.02 24 11.5v.499A4.002 4.002 0 0 1 19.997 16h-1.005c-.235 0-.627-.206-.76-.398l-1.77-2.537c-1.026-1.47-2.897-1.473-3.927-.001L10.759 15.6c-.137.195-.53.399-.762.399H8.994A3.996 3.996 0 0 1 5 11.999V11.5C5 9.018 7.013 7 9.49 7h10.02zm0 1C21.429 8 23 9.565 23 11.485v.497a2.996 2.996 0 0 1-3.003 2.988h-1.005c.093 0 .007-.045.06.03l-1.77-2.526c-1.423-2.032-4.137-2.036-5.566-.003l-1.777 2.526c.051-.072-.036-.027.058-.027H8.994A2.99 2.99 0 0 1 6 11.982v-.497A3.491 3.491 0 0 1 9.49 8h10.02z" fill="#929292" fill-rule="evenodd"/></svg>