<svg width="32" height="32" viewBox="0 0 32 32" xmlns="http://www.w3.org/2000/svg"><path d="M26.443 12.15l-11.286 11.3-2.606-2.606L23.844 9.551l2.6 2.6zm.707-.707l1.73-1.731c.39-.39.386-1.025-.006-1.416l-1.18-1.177a1.001 1.001 0 0 0-1.416-.003L24.55 8.843l2.599 2.6zM11.904 21.61l-.64 3.113 3.135-.618-2.495-2.495zM22 18v10.003A1.995 1.995 0 0 1 20.003 30H4.997A2 2 0 0 1 3 27.993V5.007C3 3.898 3.9 3 5.009 3H15v6.002c0 1.111.898 1.998 2.006 1.998H21l4.58-4.58a1.994 1.994 0 0 1 2.83-.01l1.18 1.18a2.003 2.003 0 0 1-.01 2.83L22 18zM16 3v5.997c0 .554.451 1.003.99 1.003H22l-6-7z" fill="#929292" fill-rule="evenodd"/></svg>