<svg width="32" height="32" viewBox="0 0 32 32" xmlns="http://www.w3.org/2000/svg"><path d="M19 26v2.003A1.995 1.995 0 0 1 17.003 30H1.997A2 2 0 0 1 0 27.993V5.007C0 3.898.9 3 2.009 3H12v6.002c0 1.111.898 1.998 2.006 1.998H19v2H8.007A3.003 3.003 0 0 0 5 15.999V23A2.996 2.996 0 0 0 8.007 26H19zM13 3v5.997c0 .554.451 1.003.99 1.003H19l-6-7zM8.004 14C6.897 14 6 14.9 6 15.992v7.016C6 24.108 6.89 25 8.004 25h20.992C30.103 25 31 24.1 31 23.008v-7.016c0-1.1-.89-1.992-2.004-1.992H8.004zM12 20H9v3H8v-5c0-1.112.898-2 2.005-2h.99A2 2 0 0 1 13 18v5h-1v-3zm-2.001-3A.997.997 0 0 0 9 18v1h3v-1c0-.552-.443-1-.999-1H9.999zM15 17v5h-1v1h3v-1h-1v-5h1v-1h-3v1h1zm4 2v-2h4v-1h-5v7h1v-3h3v-1h-3zm6 0v-2h4v-1h-5v7h1v-3h3v-1h-3z" fill="#929292" fill-rule="evenodd"/></svg>