<svg width="32" height="32" viewBox="0 0 32 32" xmlns="http://www.w3.org/2000/svg"><path d="M26 10h-4.994A1.997 1.997 0 0 1 19 8.002V2H9.009C7.899 2 7 2.898 7 4.007v22.986A2 2 0 0 0 8.997 29H19v-4.498c0-.654.417-1.209 1-1.416v-.583a4.506 4.506 0 0 1 6-4.246V10zm-6-2.003c0 .554.451 1.003.99 1.003H26l-6-7v5.997zm1 14.508A3.502 3.502 0 0 1 24.5 19c1.93 0 3.5 1.57 3.5 3.505V24a1 1 0 0 1 1 1.003v4.994A.993.993 0 0 1 28.002 31h-7.004A1 1 0 0 1 20 29.997v-4.994A.993.993 0 0 1 20.998 24L21 22.505zm1 .004C22 21.112 23.12 20 24.5 20c1.39 0 2.5 1.123 2.5 2.51V24h-5v-1.49z" fill="#929292" fill-rule="evenodd"/></svg>