<svg width="32" height="32" viewBox="0 0 32 32" xmlns="http://www.w3.org/2000/svg"><path d="M21 26v2.003A1.995 1.995 0 0119.003 30H3.997A2 2 0 012 27.993V5.007C2 3.898 2.9 3 4.009 3H14v6.002c0 1.111.898 1.998 2.006 1.998H21v2h-8.993A3.003 3.003 0 009 15.999V23A2.996 2.996 0 0012.007 26H21zM15 3v5.997c0 .554.451 1.003.99 1.003H21l-6-7zm-3.005 11C10.893 14 10 14.9 10 15.992v7.016A2 2 0 0011.995 25h17.01C30.107 25 31 24.1 31 23.008v-7.016A2 2 0 0029.005 14h-17.01zM17 21c-.003 1.117-.9 2-2.005 2h-.99A2.003 2.003 0 0112 20.994v-2.988c0-1.12.898-2.006 2.005-2.006h.99c1.11 0 2.002.895 2.005 2h-1c0-.552-.443-1-.999-1h-1.002A.997.997 0 0013 18v3c0 .552.443 1 .999 1h1.002A.997.997 0 0016 21h1zm1-3v5h1v-3h1.995a2 2 0 100-4H18v2zm1-1v2h2.001A.997.997 0 0022 18c0-.552-.443-1-.999-1H19zm5 1v5h1v-3h1.995a2 2 0 100-4H24v2zm1-1v2h2.001A.997.997 0 0028 18c0-.552-.443-1-.999-1H25z" fill="#929292" fill-rule="evenodd"/></svg>