<svg width="32" height="32" viewBox="0 0 32 32" xmlns="http://www.w3.org/2000/svg"><path d="M24.248 18.009a3.5 3.5 0 0 1 3.453 2.074A2.995 2.995 0 0 1 30 23c0 1.653-1.347 3-3.01 3h-9.98a2.998 2.998 0 0 1-.998-5.83 4.5 4.5 0 0 1 8.236-2.161zM24 27v1.003A1.995 1.995 0 0 1 22.003 30H6.997A2 2 0 0 1 5 27.993V5.007C5 3.898 5.9 3 7.009 3H17v6.002c0 1.111.898 1.998 2.006 1.998H24v5.257a5.502 5.502 0 0 0-8.906 3.225A4.003 4.003 0 0 0 13 23c0 2.21 1.789 4 3.996 4H24zM18 3v5.997c0 .554.451 1.003.99 1.003H24l-6-7z" fill="#929292" fill-rule="evenodd"/></svg>