<svg viewBox="0 0 32 32" xmlns="http://www.w3.org/2000/svg"><path d="M21 26v2.003A1.995 1.995 0 0119.003 30H3.997A2 2 0 012 27.993V5.007C2 3.898 2.9 3 4.009 3H14v6.002c0 1.111.898 1.998 2.006 1.998H21v2h-8.993A3.003 3.003 0 009 15.999V23A2.996 2.996 0 0012.007 26H21zM15 3v5.997c0 .554.451 1.003.99 1.003H21l-6-7zm-3.005 11C10.893 14 10 14.9 10 15.992v7.016A2 2 0 0011.995 25h17.01C30.107 25 31 24.1 31 23.008v-7.016A2 2 0 0029.005 14h-17.01zM12 16v7h2.995A1.998 1.998 0 0017 20.994v-2.988A2.003 2.003 0 0014.995 16H12zm1 1v5h2.001A.997.997 0 0016 21v-3c0-.552-.443-1-.999-1H13zm7.005-1A1.998 1.998 0 0018 18.006v2.988c0 1.108.894 2.006 2.005 2.006h.99A1.998 1.998 0 0023 20.994v-2.988A2.003 2.003 0 0020.995 16h-.99zm-.006 1A.997.997 0 0019 18v3c0 .552.443 1 .999 1h1.002A.997.997 0 0022 21v-3c0-.552-.443-1-.999-1h-1.002zM26 17v6h1v-6h2v-1h-5v1h2z" fill="#929292" fill-rule="evenodd"/></svg>