<svg width="32" height="32" viewBox="0 0 32 32" xmlns="http://www.w3.org/2000/svg"><path d="M21 26v2.003A1.995 1.995 0 0119.003 30H3.997A2 2 0 012 27.993V5.007C2 3.898 2.9 3 4.009 3H14v6.002c0 1.111.898 1.998 2.006 1.998H21v2H9.007A3.003 3.003 0 006 15.999V23A2.996 2.996 0 009.007 26H21zM15 3v5.997c0 .554.451 1.003.99 1.003H21l-6-7zM8.995 14C7.893 14 7 14.9 7 15.992v7.016A2 2 0 008.995 25h17.01C27.107 25 28 24.1 28 23.008v-7.016A2 2 0 0026.005 14H8.995zM12 18v5h1v-3h1.995a2 2 0 100-4H12v2zm1-1v2h2.001A.997.997 0 0016 18c0-.552-.443-1-.999-1H13zm8 3v3h-1v-3l-2-3v-1h1v1l1.5 2.25L22 17v-1h1v1l-2 3z" fill="#929292" fill-rule="evenodd"/></svg>