<svg width="32" height="32" viewBox="0 0 32 32" xmlns="http://www.w3.org/2000/svg"><path d="M16.5 10.707a3.783 3.783 0 0 1-.19-.035c-3.203-.802-7.718-.765-10.041-.409-.281.043-.325 1.215-.076 1.256.46.169.655.59.655.59s.138.374.536 1.894 1.347 1.702 1.347 1.702 1.162.262 2.502.262c1.34 0 2.142-.056 3-.446.858-.39 1.233-1.477 1.233-1.477s.433-.937.73-1.82c.045-.134.164-.226.304-.284.14.058.259.15.304.284.297.883.73 1.82.73 1.82s.375 1.087 1.233 1.477c.858.39 1.66.446 3 .446s2.502-.262 2.502-.262.95-.182 1.347-1.702c.398-1.52.536-1.894.536-1.894s.195-.421.655-.59c.249-.04.205-1.213-.076-1.256-2.323-.356-6.838-.393-10.04.409a3.783 3.783 0 0 1-.191.035zM16.5 29C23.404 29 29 23.404 29 16.5S23.404 4 16.5 4 4 9.596 4 16.5 9.596 29 16.5 29zm-.019-7C13 22 11 20 11 20v1s2 2 5.481 2C19.963 23 22 21 22 21v-1s-2.037 2-5.519 2z" fill="#929292" fill-rule="evenodd"/></svg>