<svg width="32" height="32" viewBox="0 0 32 32" xmlns="http://www.w3.org/2000/svg"><path d="M4.994 10A2.996 2.996 0 002 12.999V20A2.997 2.997 0 004.994 23h23.012A2.996 2.996 0 0031 20.001V13A2.997 2.997 0 0028.006 10H4.994zM19.5 18.25L21 13h1l-2 7h-1l-2-7h1l1.5 5.25zM5 17v.994C5 19.102 5.894 20 7.005 20h.99A1.998 1.998 0 0010 17.994V13H9v5.01a1 1 0 01-.999.99H6.999A.997.997 0 016 18v-1H5zm10 0h-3v3h-1v-5c0-1.112.898-2 2.005-2h.99A2 2 0 0116 15v5h-1v-3zm-2.001-3A.997.997 0 0012 15v1h3v-1c0-.552-.443-1-.999-1h-1.002zM27 17h-3v3h-1v-5c0-1.112.898-2 2.005-2h.99A2 2 0 0128 15v5h-1v-3zm-2.001-3A.997.997 0 0024 15v1h3v-1c0-.552-.443-1-.999-1h-1.002z" fill="#929292" fill-rule="evenodd"/></svg>