<svg width="32" height="32" xmlns="http://www.w3.org/2000/svg"><path d="M8.007 10A3.003 3.003 0 0 0 5 12.999V20A2.996 2.996 0 0 0 8.007 23h16.986A3.003 3.003 0 0 0 28 20.001V13A2.996 2.996 0 0 0 24.993 10H8.007zM21 16v-2h4v-1h-5v7h1v-3h3v-1h-3zM8 15v5h1v-3h1.995a2 2 0 0 0 0-4H8v2zm1-1v2h2.001A.997.997 0 0 0 12 15c0-.552-.443-1-.999-1H9zm5-1v7h2.995A1.998 1.998 0 0 0 19 17.994v-2.988A2.003 2.003 0 0 0 16.995 13H14zm1 1v5h2.001A.997.997 0 0 0 18 18v-3c0-.552-.443-1-.999-1H15z" fill="#929292" fill-rule="evenodd"/></svg>