<svg width="32" height="32" viewBox="0 0 32 32" xmlns="http://www.w3.org/2000/svg"><path d="M8.007 10A3.003 3.003 0 0 0 5 12.999V20A2.996 2.996 0 0 0 8.007 23h16.986A3.003 3.003 0 0 0 28 20.001V13A2.996 2.996 0 0 0 24.993 10H8.007zM8 17v.994C8 19.102 8.894 20 10.005 20h.99A1.998 1.998 0 0 0 13 17.994V13h-1v5.01a1 1 0 0 1-.999.99H9.999A.997.997 0 0 1 9 18v-1H8zm6-2v5h1v-3h1.995a2 2 0 0 0 0-4H14v2zm1-1v2h2.001A.997.997 0 0 0 18 15c0-.552-.443-1-.999-1H15zm9 3v2h-2c-.556 0-1-.448-1-1v-3c0-.556.448-1 1-1h3v-1h-2.995A1.998 1.998 0 0 0 20 15.006v2.988c0 1.108.894 2.006 2.005 2.006H25v-4h-3v1h2z" fill="#929292" fill-rule="evenodd"/></svg>