<svg viewBox="0 0 32 32" xmlns="http://www.w3.org/2000/svg"><path d="M8.007 10A3.003 3.003 0 005 12.999V20A2.996 2.996 0 008.007 23h16.986A3.003 3.003 0 0028 20.001V13A2.996 2.996 0 0024.993 10H8.007zM13 18c-.003 1.117-.9 2-2.005 2h-.99A2.003 2.003 0 018 17.994v-2.988C8 13.886 8.898 13 10.005 13h.99c1.11 0 2.002.895 2.005 2h-1c0-.552-.443-1-.999-1H9.999A.997.997 0 009 15v3c0 .552.443 1 .999 1h1.002A.997.997 0 0012 18h1zm3.005-5A1.998 1.998 0 0014 15c0 1.105.888 2 2 2h.99c.558 0 1.01.444 1.01 1 0 .552-.443 1-.999 1h-1.002c-.552 0-.999-.456-.999-.996v-.01h-1v.005A2 2 0 0016.005 20h.99A1.998 1.998 0 0019 18c0-1.105-.888-2-2-2h-.99c-.558 0-1.01-.444-1.01-1 0-.552.443-1 .999-1h1.002c.552 0 .999.453.999 1h1a2 2 0 00-2.005-2h-.99zm6 0A1.998 1.998 0 0020 15c0 1.105.888 2 2 2h.99c.558 0 1.01.444 1.01 1 0 .552-.443 1-.999 1h-1.002c-.552 0-.999-.456-.999-.996v-.01h-1v.005A2 2 0 0022.005 20h.99A1.998 1.998 0 0025 18c0-1.105-.888-2-2-2h-.99c-.558 0-1.01-.444-1.01-1 0-.552.443-1 .999-1h1.002c.552 0 .999.453.999 1h1a2 2 0 00-2.005-2h-.99z" fill="#929292" fill-rule="evenodd"/></svg>