<svg width="32" height="32" viewBox="0 0 32 32" xmlns="http://www.w3.org/2000/svg"><path d="M8.007 10A3.003 3.003 0 005 12.999V20A2.996 2.996 0 008.007 23h16.986A3.003 3.003 0 0028 20.001V13A2.996 2.996 0 0024.993 10H8.007zM14 13v7h2.995A1.998 1.998 0 0019 17.994v-2.988A2.003 2.003 0 0016.995 13H14zm1 1v5h2.001A.997.997 0 0018 18v-3c0-.552-.443-1-.999-1H15zm5 1v5h1v-3h1.995a2 2 0 100-4H20v2zm1-1v2h2.001A.997.997 0 0024 15c0-.552-.443-1-.999-1H21zm-10.995-1A1.998 1.998 0 008 15.006v2.988C8 19.102 8.894 20 10.005 20h.99A1.998 1.998 0 0013 17.994v-2.988A2.003 2.003 0 0010.995 13h-.99zm-.006 1A.997.997 0 009 15v3c0 .552.443 1 .999 1h1.002A.997.997 0 0012 18v-3c0-.552-.443-1-.999-1H9.999z" fill="#929292" fill-rule="evenodd"/></svg>