<svg viewBox="0 0 32 32" xmlns="http://www.w3.org/2000/svg"><path d="M4.994 10A2.996 2.996 0 002 12.999V20A2.997 2.997 0 004.994 23h23.012A2.996 2.996 0 0031 20.001V13A2.997 2.997 0 0028.006 10H4.994zM5 13v7h2.995A1.998 1.998 0 0010 17.994v-2.988A2.003 2.003 0 007.995 13H5zm1 1v5h2.001A.997.997 0 009 18v-3c0-.552-.443-1-.999-1H6zm7.005-1A1.998 1.998 0 0011 15.006v2.988c0 1.108.894 2.006 2.005 2.006h.99A1.998 1.998 0 0016 17.994v-2.988A2.003 2.003 0 0013.995 13h-.99zm-.006 1A.997.997 0 0012 15v3c0 .552.443 1 .999 1h1.002A.997.997 0 0015 18v-3c0-.552-.443-1-.999-1h-1.002zM19 14v6h1v-6h2v-1h-5v1h2zm6 2.5L23 13h1l1.5 2.625L27 13h1l-2 3.5 2 3.5h-1l-1.5-2.625L24 20h-1l2-3.5z" fill="#929292" fill-rule="evenodd"/></svg>