<svg width="32" height="32" viewBox="0 0 32 32" xmlns="http://www.w3.org/2000/svg"><path d="M17.676 19.883a2.017 2.017 0 0 1-.68.117h-.991A2.003 2.003 0 0 1 14 17.994v-2.988c0-1.12.898-2.006 2.005-2.006h.99c1.111 0 2.005.898 2.005 2.006v2.988c0 .505-.183.963-.485 1.313l.753.754-.707.707-.885-.885zM16.793 19h-.794A.996.996 0 0 1 15 18v-3c0-.556.447-1 .999-1h1.002c.556 0 .999.448.999 1v3c0 .225-.073.43-.196.597l-1.365-1.365-.707.707L16.792 19zm-8.786-9A3.003 3.003 0 0 0 5 12.999V20A2.996 2.996 0 0 0 8.007 23h16.986A3.003 3.003 0 0 0 28 20.001V13A2.996 2.996 0 0 0 24.993 10H8.007zm1.998 3A1.998 1.998 0 0 0 8 15c0 1.105.888 2 2 2h.99c.558 0 1.01.444 1.01 1 0 .552-.443 1-.999 1H9.999C9.447 19 9 18.544 9 18.004v-.01H8v.005A2 2 0 0 0 10.005 20h.99A1.998 1.998 0 0 0 13 18c0-1.105-.888-2-2-2h-.99C9.451 16 9 15.556 9 15c0-.552.443-1 .999-1h1.002c.552 0 .999.453.999 1h1a2 2 0 0 0-2.005-2h-.99zM25 19v1h-5v-7h1v6h4z" fill="#929292" fill-rule="evenodd"/></svg>