<svg width="32" height="32" xmlns="http://www.w3.org/2000/svg"><path d="M8.007 10A3.003 3.003 0 0 0 5 12.999V20A2.996 2.996 0 0 0 8.007 23h16.986A3.003 3.003 0 0 0 28 20.001V13A2.996 2.996 0 0 0 24.993 10H8.007zm2.493 6L9 13H8v7h1v-5l1 2h1l1-2v5h1v-7h-1l-1.5 3zm9.5-1c0-1.112.898-2 2.005-2h.99a2 2 0 0 1 1.329 3.5c.415.367.676.903.676 1.5 0 1.112-.898 2-2.005 2h-.99A2 2 0 0 1 20 18h1c0 .552.443 1 .999 1h1.002A.997.997 0 0 0 24 18c0-.552-.443-1-.999-1H22v-1h1.001A.997.997 0 0 0 24 15c0-.552-.443-1-.999-1h-1.002A.997.997 0 0 0 21 15h-1zm-6 0v5h1v-3h1.995a2 2 0 0 0 0-4H14v2zm1-1v2h2.001A.997.997 0 0 0 18 15c0-.552-.443-1-.999-1H15z" fill="#929292" fill-rule="evenodd"/></svg>