<svg width="32" height="32" viewBox="0 0 32 32" xmlns="http://www.w3.org/2000/svg"><path d="M4.994 10A2.996 2.996 0 0 0 2 12.999V20A2.997 2.997 0 0 0 4.994 23h23.012A2.996 2.996 0 0 0 31 20.001V13A2.997 2.997 0 0 0 28.006 10H4.994zM19.5 18.25L21 13h1l-2 7h-1l-2-7h1l1.5 5.25zM5 17v.994C5 19.102 5.894 20 7.005 20h.99A1.998 1.998 0 0 0 10 17.994V13H9v5.01a1 1 0 0 1-.999.99H6.999A.997.997 0 0 1 6 18v-1H5zm10 0h-3v3h-1v-5c0-1.112.898-2 2.005-2h.99A2 2 0 0 1 16 15v5h-1v-3zm-2.001-3A.997.997 0 0 0 12 15v1h3v-1c0-.552-.443-1-.999-1h-1.002zM27 17h-3v3h-1v-5c0-1.112.898-2 2.005-2h.99A2 2 0 0 1 28 15v5h-1v-3zm-2.001-3A.997.997 0 0 0 24 15v1h3v-1c0-.552-.443-1-.999-1h-1.002z" fill="#929292" fill-rule="evenodd"/></svg>