<svg width="32" height="32" viewBox="0 0 32 32" xmlns="http://www.w3.org/2000/svg"><path d="M8.007 10A3.003 3.003 0 0 0 5 12.999V20A2.996 2.996 0 0 0 8.007 23h16.986A3.003 3.003 0 0 0 28 20.001V13A2.996 2.996 0 0 0 24.993 10H8.007zm3.493 6L10 13H9v7h1v-5l1 2h1l1-2v5h1v-7h-1l-1.5 3zm4.5-2v5h-1v1h3v-1h-1v-5h1v-1h-3v1h1zm3-1v7h2.995A1.998 1.998 0 0 0 24 17.994v-2.988A2.003 2.003 0 0 0 21.995 13H19zm1 1v5h2.001A.997.997 0 0 0 23 18v-3c0-.552-.443-1-.999-1H20z" fill="#929292" fill-rule="evenodd"/></svg>