<svg width="32" height="32" xmlns="http://www.w3.org/2000/svg"><path d="M9.195 11.935a3.001 3.001 0 0 1 5.634.065h3.342a3.001 3.001 0 0 1 5.634-.065l3.333-2.002A12.492 12.492 0 0 0 16.5 4 12.492 12.492 0 0 0 5.862 9.933l3.333 2.002zM9 12.985V13a3 3 0 1 0 6 0h3a3 3 0 1 0 6-.015l3.63-2.181A12.447 12.447 0 0 1 29 16.5C29 23.404 23.404 29 16.5 29S4 23.404 4 16.5c0-2.052.494-3.988 1.37-5.696L9 12.984zM12 15a2 2 0 1 0 0-4 2 2 0 0 0 0 4zm9 0a2 2 0 1 0 0-4 2 2 0 0 0 0 4zm-9-1a1 1 0 1 0 0-2 1 1 0 0 0 0 2zm9 0a1 1 0 1 0 0-2 1 1 0 0 0 0 2zm-4.5 10a2.5 2.5 0 1 0 0-5 2.5 2.5 0 0 0 0 5z" fill="#929292" fill-rule="evenodd"/></svg>