<svg width="32" height="32" xmlns="http://www.w3.org/2000/svg"><path d="M21 10.077c-2.25.25-4 2.156-4 4.478V31.05h9V14.555a4.508 4.508 0 0 0-4-4.477V4l3.25 3.25.75-.75L21.5 2 17 6.5l.75.75L21 4v6.077zm-11 3c-2.25.249-4 2.154-4 4.469V31.05h9V17.546a4.502 4.502 0 0 0-4-4.468V7l3.25 3.25.75-.75L10.5 5 6 9.5l.75.75L10 7v6.077zm.5 1.973c-1.38 0-2.5 1.129-2.5 2.51v3.49h5v-3.49c0-1.386-1.11-2.51-2.5-2.51zm-2.5 9v1h5v-1H8zm0 2v1h5v-1H8zm13.5-14c-1.38 0-2.5 1.129-2.5 2.51v3.49h5v-3.49c0-1.386-1.11-2.51-2.5-2.51zm-2.5 9v1h5v-1h-5zm0 2v1h5v-1h-5z" fill="#929292" fill-rule="evenodd"/></svg>