<svg width="32" height="32" viewBox="0 0 32 32" xmlns="http://www.w3.org/2000/svg"><path d="M11.144 18.071l.59 1.929H7V7h19v13h-4.73l.588-1.933.032-.067H24V9H9v9h2.11c.01.024.022.047.034.071zM11.11 17H10v-7h13v7h-1.11c-.51-1.141-2.73-2-5.39-2-2.66 0-4.88.859-5.39 2zm1.905 7.185L12.04 21H6V6h21v15h-6.034l-.982 3.228h-.007C19.78 25.225 18.298 26 16.5 26c-1.824 0-3.322-.797-3.485-1.815zM16.5 19c2.485 0 4.5-.672 4.5-1.5S18.985 16 16.5 16s-4.5.672-4.5 1.5 2.015 1.5 4.5 1.5z" fill="#929292" fill-rule="evenodd"/></svg>