<svg width="32" height="32" xmlns="http://www.w3.org/2000/svg"><path d="M20.106 12.5l-1.044-.704.56-.829 1.378.93 1.378-.93.56.83-1.044.703 1.044.704-.56.829-1.378-.93-1.378.93-.56-.83 1.044-.703zm-9 0l-1.044-.704.56-.829 1.378.93 1.378-.93.56.83-1.044.703 1.044.704-.56.829-1.378-.93-1.378.93-.56-.83 1.044-.703zM16.5 29C23.404 29 29 23.404 29 16.5S23.404 4 16.5 4 4 9.596 4 16.5 9.596 29 16.5 29zm0-5c2.485 0 4.5-1.12 4.5-2.5S18.985 19 16.5 19 12 20.12 12 21.5s2.015 2.5 4.5 2.5z" fill="#929292" fill-rule="evenodd"/></svg>