<svg width="32" height="32" xmlns="http://www.w3.org/2000/svg"><path d="M6 11V4.997C6 3.896 6.894 3 7.997 3h15.006C24.109 3 25 3.894 25 4.997V11H6zM5 23H3.994A3 3 0 0 1 1 19.994v-4.988A3.002 3.002 0 0 1 3.994 12h23.012A3 3 0 0 1 30 15.006v4.988A3.002 3.002 0 0 1 27.006 23H26v-3H5v3zm19-6a1 1 0 1 0 0-2 1 1 0 0 0 0 2zM6 21v8h1v-8H6zm2 0v7h1v-7H8zm2 0v8h1v-8h-1zm2 0v6h1v-6h-1zm2 0v7h1v-7h-1zm2 0v6h1v-6h-1zm2 0v8h1v-8h-1zm4 0v7h1v-7h-1zm2 0v8h1v-8h-1zm-4 0v6h1v-6h-1z" fill="#929292" fill-rule="evenodd"/></svg>