<svg width="32" height="32" xmlns="http://www.w3.org/2000/svg"><path d="M21 26v2.003A1.995 1.995 0 0 1 19.003 30H3.997A2 2 0 0 1 2 27.993V5.007C2 3.898 2.9 3 4.009 3H14v6.002c0 1.111.898 1.998 2.006 1.998H21v2h-8.993A3.003 3.003 0 0 0 9 15.999V23A2.996 2.996 0 0 0 12.007 26H21zM15 3v5.997c0 .554.451 1.003.99 1.003H21l-6-7zm-3.005 11C10.893 14 10 14.9 10 15.992v7.016A2 2 0 0 0 11.995 25h17.01C30.107 25 31 24.1 31 23.008v-7.016A2 2 0 0 0 29.005 14h-17.01zm2.505 5L13 16h-1v7h1v-5l1 2h1l1-2v5h1v-7h-1l-1.5 3zm6.5 1v-2.5L19.2 20H21zm0 1v2h1v-2h1v-1h-1v-4h-1l-3 4v1h3zm5.5.25L28 16h1l-2 7h-1l-2-7h1l1.5 5.25z" fill="#929292" fill-rule="evenodd"/></svg>