<svg width="32" height="32" xmlns="http://www.w3.org/2000/svg"><path d="M13.612 20h-2.56a5.5 5.5 0 1 1 10.955 0h-2.561l-2.917-2.5-2.917 2.5zm2.917-10c-.276 0-.5.216-.5.495v2.01c0 .273.232.495.5.495.276 0 .5-.216.5-.495v-2.01a.503.503 0 0 0-.5-.495zm6.738 2.791a.494.494 0 0 0-.704-.003l-1.42 1.42a.503.503 0 0 0 .003.704.494.494 0 0 0 .704.004l1.42-1.421a.503.503 0 0 0-.003-.704zm2.791 6.738c0-.276-.216-.5-.495-.5h-2.01a.503.503 0 0 0-.495.5c0 .276.216.5.495.5h2.01a.503.503 0 0 0 .495-.5zM7 19.53c0 .276.216.5.495.5h2.01a.503.503 0 0 0 .495-.5c0-.276-.216-.5-.495-.5h-2.01a.503.503 0 0 0-.495.5zM7.566 22a.51.51 0 0 0-.508.5c0 .276.227.5.508.5h6.075l1.167-1 1.75-1.5 1.75 1.5 1.167 1h6.075a.51.51 0 0 0 .508-.5c0-.276-.227-.5-.508-.5h-5.492l-3.5-3-3.5 3H7.566zm2.225-9.209a.494.494 0 0 0-.003.704l1.42 1.42a.503.503 0 0 0 .704-.003.494.494 0 0 0 .004-.704l-1.421-1.42a.503.503 0 0 0-.704.003z" fill="#929292" fill-rule="evenodd"/></svg>