<svg width="32" height="32" viewBox="0 0 32 32" xmlns="http://www.w3.org/2000/svg"><path d="M3.518 3.097C4.56 1.387 9.114 0 16.018 0c6.902 0 11.368 1.647 12.499 3.097 1.562 2.002-.88 6.735-8.333 11.355-6.355 3.938-11.04 7.769-7.292 9.29C21.818 27.364 17.06 32 17.06 32s0-3.097-3.125-4.129c-5.282-1.745-7.291-3.097-9.374-5.161-1.576-1.562-3.272-6.491 2.083-11.355 2.665-2.42-5.123-4.977-3.125-8.258zM27 4.032c0-1.657-4.925-3-11-3s-11 1.343-11 3 4.925 3 11 3 11-1.343 11-3z" fill="#929292" fill-rule="evenodd"/></svg>