<svg width="32" height="32" xmlns="http://www.w3.org/2000/svg"><path d="M16 16.085v-5.584c0-.271.224-.501.5-.501.268 0 .5.224.5.501v5.584a1.5 1.5 0 0 1 0 2.83v1.584a.504.504 0 0 1-.5.501.506.506 0 0 1-.5-.501v-1.584a1.5 1.5 0 0 1 0-2.83zm8.27-7.063A11.456 11.456 0 0 0 17 6.011V4h1V3h-3v1h1v2.01C9.88 6.273 5 11.317 5 17.5 5 23.851 10.149 29 16.5 29S28 23.851 28 17.5c0-2.996-1.145-5.724-3.022-7.77l1.23-1.23.706.707.707-.707L25.5 6.379l-.707.707.707.707-1.23 1.23zM16.5 18a.5.5 0 1 0 0-1 .5.5 0 0 0 0 1z" fill="#929292" fill-rule="evenodd"/></svg>