<svg width="32" height="32" viewBox="0 0 32 32" xmlns="http://www.w3.org/2000/svg"><path d="M21.5 26.207l-2.121 2.121-.707-.707 2.12-2.121-2.12-2.121.707-.707 2.121 2.12 2.121-2.12.707.707-2.12 2.121 2.12 2.121-.707.707-2.121-2.12zM16.022 29H6.997A2 2 0 0 1 5 26.993V4.007C5 2.898 5.9 2 7.009 2H17v6.002C17 9.113 17.898 10 19.006 10H24v9.498A6.5 6.5 0 0 0 16.022 29zM18 2v5.997c0 .554.451 1.003.99 1.003H24l-6-7zm3.5 29a5.5 5.5 0 1 0 0-11 5.5 5.5 0 0 0 0 11z" fill="#929292" fill-rule="evenodd"/></svg>