<svg width="32" height="32" viewBox="0 0 32 32" xmlns="http://www.w3.org/2000/svg"><path d="M10 24H6V10.496a4.501 4.501 0 0 1 9 0V24h-4v5.05l3.25-3.25.75.75-4.5 4.5-4.5-4.5.75-.75L10 29.05V24zm11 0h-4V7.505A4.5 4.5 0 0 1 21.5 3C23.98 3 26 5.017 26 7.505V24h-4v5.05l3.25-3.25.75.75-4.5 4.5-4.5-4.5.75-.75L21 29.05V24zM10.5 8C9.12 8 8 9.129 8 10.51V14h5v-3.49C13 9.124 11.89 8 10.5 8zM8 17v1h5v-1H8zm0 2v1h5v-1H8zM21.5 5C20.12 5 19 6.129 19 7.51V11h5V7.51C24 6.124 22.89 5 21.5 5zM19 14v1h5v-1h-5zm0 2v1h5v-1h-5z" fill="#929292" fill-rule="evenodd"/></svg>