<svg width="32" height="32" xmlns="http://www.w3.org/2000/svg"><path d="M13.407 1v4h1V1h-1zm6.403 2.577L16.7 6.094l.63.777 3.108-2.517-.63-.777zm2.005 6.735l-3.898-.9-.225.975 3.898.9.225-.975zm-15.59.975l3.897-.9-.225-.974-3.897.9.225.974zm1.15-6.933l3.11 2.517.629-.777-3.11-2.517-.628.777zm12.032 9.137c0-.824-.665-1.491-1.5-1.491-.828 0-1.5.676-1.5 1.49V18h-1V8.509a1.5 1.5 0 1 0-3 0v10.29c-2.058-2.201-4.768-4.62-5.879-3.503-1.087 1.093 1.715 4.105 5.627 10.687C13.917 28.95 16.148 31 19.907 31a7.5 7.5 0 0 0 7.5-7.5v-7.993a1.5 1.5 0 1 0-3 0V18h-1V14.491c0-.823-.665-1.491-1.5-1.491-.828 0-1.5.663-1.5 1.491V17h-1v-3.509z" fill="#929292" fill-rule="evenodd"/></svg>