<svg width="32" height="32" xmlns="http://www.w3.org/2000/svg"><path d="M4.994 10A2.996 2.996 0 0 0 2 12.999V20A2.997 2.997 0 0 0 4.994 23h23.012A2.996 2.996 0 0 0 31 20.001V13A2.997 2.997 0 0 0 28.006 10H4.994zM7 16.5L5 13h1l1.5 2.625L9 13h1l-2 3.5 2 3.5H9l-1.5-2.625L6 20H5l2-3.5zm9 2.5v1h-5v-7h1v6h4zm3.005-6A1.998 1.998 0 0 0 17 15c0 1.105.888 2 2 2h.99c.558 0 1.01.444 1.01 1 0 .552-.443 1-.999 1h-1.002c-.552 0-.999-.456-.999-.996v-.01h-1v.005A2 2 0 0 0 19.005 20h.99A1.998 1.998 0 0 0 22 18c0-1.105-.888-2-2-2h-.99c-.558 0-1.01-.444-1.01-1 0-.552.443-1 .999-1h1.002c.552 0 .999.453.999 1h1a2 2 0 0 0-2.005-2h-.99zM25 16.5L23 13h1l1.5 2.625L27 13h1l-2 3.5 2 3.5h-1l-1.5-2.625L24 20h-1l2-3.5z" fill="#929292" fill-rule="evenodd"/></svg>