<svg width="32" height="32" xmlns="http://www.w3.org/2000/svg"><path d="M16 8.95a3.5 3.5 0 1 0-5 0V6.5A2.506 2.506 0 0 1 13.5 4C14.89 4 16 5.12 16 6.501v2.448zm3 2.54c0-.823-.666-1.49-1.5-1.49-.828 0-1.5.676-1.5 1.49V16h-1V6.509a1.5 1.5 0 1 0-3 0v10.29c-2.058-2.201-4.768-4.62-5.879-3.503-1.087 1.093 1.714 4.105 5.626 10.687C13.51 26.95 15.74 29 19.5 29a7.5 7.5 0 0 0 7.5-7.5v-7.993a1.5 1.5 0 1 0-3 0V16h-1V12.491c0-.823-.666-1.491-1.5-1.491-.828 0-1.5.663-1.5 1.491V15h-1v-3.509z" fill="#929292" fill-rule="evenodd"/></svg>