<svg width="32" height="32" xmlns="http://www.w3.org/2000/svg"><path d="M24.115 10.95A3.5 3.5 0 0 0 20.82 5.09a3.5 3.5 0 0 0-6.41 0 3.5 3.5 0 0 0-3.295 5.859V8.5A2.506 2.506 0 0 1 13.615 6a2.49 2.49 0 0 1 1.5.497V6.49A2.504 2.504 0 0 1 17.615 4a2.49 2.49 0 0 1 2.5 2.491v.011a2.486 2.486 0 0 1 1.5-.502 2.49 2.49 0 0 1 2.5 2.491v2.458zm0 1.292a4.5 4.5 0 0 0-2.753-8.235A4.496 4.496 0 0 0 17.615 2c-1.563 0-2.94.797-3.747 2.007a4.5 4.5 0 0 0-2.753 8.235V13.4a5.5 5.5 0 0 1 2.253-10.395A5.489 5.489 0 0 1 17.615 1c1.71 0 3.239.78 4.247 2.005A5.5 5.5 0 0 1 24.115 13.4v-1.158zm-5-5.751a1.501 1.501 0 0 0-3 0V18h-1V8.509a1.5 1.5 0 1 0-3 0v10.29c-2.058-2.201-4.768-4.62-5.879-3.503-1.087 1.093 1.715 4.105 5.627 10.687C13.625 28.95 15.855 31 19.615 31a7.5 7.5 0 0 0 7.5-7.5v-7.993a1.5 1.5 0 1 0-3 0V18h-1V8.491c0-.823-.666-1.491-1.5-1.491-.828 0-1.5.663-1.5 1.491V17h-1V6.491z" fill="#929292" fill-rule="evenodd"/></svg>