<svg width="32" height="32" viewBox="0 0 32 32" xmlns="http://www.w3.org/2000/svg"><path d="M8.007 10A3.003 3.003 0 0 0 5 12.999V20A2.996 2.996 0 0 0 8.007 23h16.986A3.003 3.003 0 0 0 28 20.001V13A2.996 2.996 0 0 0 24.993 10H8.007zM18.5 20H18l-1.5-3-1.5 3h-1v-7h1v5l1-2h1l1 2v-5h1v7h-.5zM8 13v7h2.995A1.998 1.998 0 0 0 13 17.994v-2.988A2.003 2.003 0 0 0 10.995 13H8zm1 1v5h2.001A.997.997 0 0 0 12 18v-3c0-.552-.443-1-.999-1H9zm15 3v2h-2c-.556 0-1-.448-1-1v-3c0-.556.448-1 1-1h3v-1h-2.995A1.998 1.998 0 0 0 20 15.006v2.988c0 1.108.894 2.006 2.005 2.006H25v-4h-3v1h2z" fill="#929292" fill-rule="evenodd"/></svg>