<svg width="32" height="32" xmlns="http://www.w3.org/2000/svg"><path d="M16.5 10a4.5 4.5 0 0 0-4.5 4.505V31h9V14.505A4.506 4.506 0 0 0 16.5 10zm0 2c-1.38 0-2.5 1.129-2.5 2.51V18h5v-3.49c0-1.386-1.11-2.51-2.5-2.51zM14 21v1h5v-1h-5zm0 2v1h5v-1h-5zm9-.253c2.436-1.923 4-4.902 4-8.247C27 8.701 22.299 4 16.5 4S6 8.701 6 14.5c0 3.345 1.564 6.324 4 8.247v-1.319a9.5 9.5 0 1 1 13 0v1.319zm0-4.503a7.5 7.5 0 1 0-13 0v-3.747A6.5 6.5 0 0 1 16.5 8c3.583 0 6.5 2.909 6.5 6.497v3.747z" fill="#929292" fill-rule="evenodd"/></svg>