<svg width="32" height="32" viewBox="0 0 32 32" xmlns="http://www.w3.org/2000/svg"><path d="M10.077 17a4.501 4.501 0 0 1 8.973.496V31h-9V18H4l3.25 3.25-.75.75L2 17.5 6.5 13l.75.75L4 17h6.077zm4.473-2c-1.38 0-2.5 1.129-2.5 2.51V21h5v-3.49c0-1.386-1.11-2.51-2.5-2.51zm-2.5 9v1h5v-1h-5zm0 2v1h5v-1h-5zm13.5-16a4.5 4.5 0 0 0-4.5 4.505V31h9V14.505A4.506 4.506 0 0 0 25.55 10zm0 2c-1.38 0-2.5 1.129-2.5 2.51V18h5v-3.49c0-1.386-1.11-2.51-2.5-2.51zm-2.5 9v1h5v-1h-5zm0 2v1h5v-1h-5z" fill="#929292" fill-rule="evenodd"/></svg>