<svg width="32" height="32" viewBox="0 0 32 32" xmlns="http://www.w3.org/2000/svg"><path d="M11.293 19L8 16.2V8.002A.998.998 0 0 1 9 7h15c.545 0 1 .449 1 1.002V16.2L21.667 19H11.293zm1.176 1l1.783 1.516h4.42L20.476 20H12.47zm9.716.127L20 22l5.923 5.077-.808.808-5.995-5.14-5.224.023-.021-.018-5.99 5.135-.808-.808L13 22l-2.185-1.873L7 16.9v-5.54L4 14v14.006C4 29.107 4.89 30 6.004 30h20.992A2 2 0 0 0 29 28.006V14l-3-2.64v5.54l-3.815 3.227zM19.91 6L16.5 3l-3.41 3h6.82zM10 10v1h13v-1H10zm0 3v1h13v-1H10zm0 3v1h13v-1H10z" fill="#929292" fill-rule="evenodd"/></svg>