<svg width="32" height="32" viewBox="0 0 32 32" xmlns="http://www.w3.org/2000/svg"><path d="M10 29H23.498a1.5 1.5 0 0 0 0-3H22v-1h3.507c.825 0 1.493-.666 1.493-1.5 0-.828-.664-1.5-1.493-1.5H23v-1h3.507c.825 0 1.493-.666 1.493-1.5 0-.828-.664-1.5-1.493-1.5H24v-1h3.507c.825 0 1.493-.666 1.493-1.5 0-.828-.664-1.5-1.493-1.5H20.3c1.2-5.5.851-11-2.3-11-2.87 0-1.063 4.326-2.629 7.301C13.805 13.276 10.5 14 10.5 14H10v15zM4.998 14A1.996 1.996 0 0 0 3 15.992v11.016C3 28.108 3.898 29 4.998 29H9V14H4.998zM6 27a1 1 0 1 0 0-2 1 1 0 0 0 0 2z" fill="#929292" fill-rule="evenodd"/></svg>