<svg width="32" height="32" xmlns="http://www.w3.org/2000/svg"><path d="M14.066 1l.707.707-4.113 4.114h3.227v1h-5v-5h1v3.358L14.067 1zM2.707 13.641L2 12.934 6.113 8.82H2.887v-1h5v5h-1V9.46l-4.18 4.18zm20.18-7.33c0-.823-.666-1.49-1.5-1.49-.829 0-1.5.676-1.5 1.49v11.51h-1V8.329a1.5 1.5 0 1 0-3 0v10.29c-2.059-2.2-4.769-4.62-5.88-3.503-1.087 1.093 1.715 4.105 5.627 10.688 1.763 2.965 3.993 5.016 7.753 5.017a7.5 7.5 0 0 0 7.5-7.5v-7.994a1.5 1.5 0 1 0-3 0v2.493h-1v-3.508c0-.824-.666-1.491-1.5-1.491-.829 0-1.5.662-1.5 1.49v2.51h-1V6.31z" fill="#929292" fill-rule="evenodd"/></svg>