<svg width="32" height="32" xmlns="http://www.w3.org/2000/svg"><path d="M24 10h-4.994A1.997 1.997 0 0 1 17 8.002V2H7.009C5.899 2 5 2.898 5 4.007v22.986A2 2 0 0 0 6.997 29H17v-4.002c0-.745.402-1.39 1-1.733v-1.773a4.5 4.5 0 0 1 6-4.236V10zm-6-2.003c0 .554.451 1.003.99 1.003H24l-6-7v5.997zM25.501 24h.501A1 1 0 0 1 27 25.003v4.994A.993.993 0 0 1 26.002 31h-7.004A1 1 0 0 1 18 29.997v-4.994A.994.994 0 0 1 19 24v-2.502A3.497 3.497 0 0 1 22.5 18c1.93 0 3.5 1.566 3.5 3.498V22h-1v-.49c0-1.387-1.11-2.51-2.5-2.51-1.38 0-2.5 1.112-2.5 2.51V24h5.501z" fill="#929292" fill-rule="evenodd"/></svg>