<svg width="32" height="32" xmlns="http://www.w3.org/2000/svg"><path d="M19.475 22.025V18.35l-8.302-8.375h3.302v-1h-5v5h1v-3.293l8 8v3.343a2.5 2.5 0 1 0 1 0zm-9-.843L8.707 22.95 8 22.243l1.768-1.768L8 18.707 8.707 18l1.768 1.768L12.243 18l.707.707-1.768 1.768 1.768 1.768-.707.707-1.768-1.768zm14-7l-1.768 1.768-.707-.707 1.768-1.768L22 11.707l.707-.707 1.768 1.768L26.243 11l.707.707-1.768 1.768 1.768 1.768-.707.707-1.768-1.768zm-5-7L17.707 8.95 17 8.243l1.768-1.768L17 4.707 17.707 4l1.768 1.768L21.243 4l.707.707-1.768 1.768 1.768 1.768-.707.707-1.768-1.768z" fill="#929292" fill-rule="evenodd"/></svg>