<svg width="32" height="32" viewBox="0 0 32 32" xmlns="http://www.w3.org/2000/svg"><path d="M27.782 24.266a4.502 4.502 0 0 0-4-4 4.5 4.5 0 0 1-4.95 4.95 4.502 4.502 0 0 0 4 4 4.5 4.5 0 0 1 4.95-4.95zm-.006 1.006a4.502 4.502 0 0 1-3.938 3.938 3.5 3.5 0 0 1 3.938-3.938zm-5-5a4.502 4.502 0 0 0-3.938 3.938 3.5 3.5 0 0 0 3.938-3.938zm-9.659-4.392l-7.39 8.375 2.286 2.285 8.374-7.39-3.27-3.27zm.663-.752l9.762-11.063c1.204-1.365 3.207-1.423 4.486-.145l.319.32c1.278 1.277 1.214 3.286-.145 4.485L17.14 18.487l-3.359-3.359zM7.328 27.27a1.502 1.502 0 0 1-.354 1.56c-.59.59-1.535.585-2.121 0l-1.414-1.414a1.502 1.502 0 0 1 1.557-2.478l2.332 2.332z" fill="#929292" fill-rule="evenodd"/></svg>