<svg width="32" height="32" xmlns="http://www.w3.org/2000/svg"><path d="M14 5V3.998C14 2.898 14.898 2 16.005 2h.99C18.106 2 19 2.894 19 3.998V5h2.004c.551 0 .996.447.996.999v1.002a.994.994 0 0 1-.996.999h-9.008A.997.997 0 0 1 11 7.001V5.999c0-.556.446-.999.996-.999H14zm9 1h1.003C25.109 6 26 6.897 26 8.004v20.992A1.996 1.996 0 0 1 24.003 31H8.997A1.998 1.998 0 0 1 7 28.996V8.004C7 6.89 7.894 6 8.997 6H10v.995C10 8.102 10.894 9 12.003 9h8.994A2.001 2.001 0 0 0 23 6.995v-.99V6zm-2 18.05v-2.675L12.698 13H16v-1h-5v5h1v-3.293l8 8v2.343a2.5 2.5 0 1 0 1 0zm-8-.843l-1.768 1.768-.707-.707 1.768-1.768-1.768-1.768.707-.707L13 21.793l1.768-1.768.707.707-1.768 1.768 1.768 1.768-.707.707L13 23.207zm8-8l-1.768 1.768-.707-.707 1.768-1.768-1.768-1.768.707-.707L21 13.793l1.768-1.768.707.707-1.768 1.768 1.768 1.768-.707.707L21 15.207zM20.5 28a1.5 1.5 0 1 0 0-3 1.5 1.5 0 0 0 0 3zm-4-23a.5.5 0 1 0 0-1 .5.5 0 0 0 0 1z" fill="#929292" fill-rule="evenodd"/></svg>