<svg width="32" height="32" xmlns="http://www.w3.org/2000/svg"><path d="M14.311 27.47c-.187.343-.311.53-.311.53h-4s-2-3-2-7.024c0-2.619.847-4.783 1.439-5.976h5.122c.233.47.507 1.092.752 1.834A6.498 6.498 0 0 0 12 22.5c0 1.994.898 3.778 2.311 4.97zM10 14v-2h4v2h-4zm-.087-3C9.67 9.62 9 8.727 9 7.5 9 6.388 10 5 12 5s3 1.395 3 2.5c0 1.227-.67 2.12-.913 3.5H9.913zM18.5 28a5.5 5.5 0 1 0 0-11 5.5 5.5 0 0 0 0 11zm0-8a.5.5 0 1 0 0-1 .5.5 0 0 0 0 1zm-1 2a.5.5 0 1 0 0-1 .5.5 0 0 0 0 1zm2 0a.5.5 0 1 0 0-1 .5.5 0 0 0 0 1z" fill="#929292" fill-rule="evenodd"/></svg>