<svg width="32" height="32" xmlns="http://www.w3.org/2000/svg"><path d="M3.1 18c.071-.348.178-.682.317-1h26.168c.138.318.245.652.315 1H3.1zM3 19c0 .342.034.677.1 1h26.8c.065-.323.1-.658.1-1H3zM8.101 9c-.312.306-.596.64-.846 1h17.723a5.5 5.5 0 0 0-10.459-2.835A7.025 7.025 0 0 0 9.392 8h7.216a6.971 6.971 0 0 0-1.118-.544 4.5 4.5 0 0 1 8.509 2.143C23.249 9.216 22.399 9 21.5 9c-1.059 0-2.047.3-2.886.817A7.04 7.04 0 0 0 17.899 9H8.101zm-1.427 2c-.153.32-.281.655-.384 1H26.4a5.508 5.508 0 0 0-.657-1H6.673zm-.603 2A7.06 7.06 0 0 0 6 14h20.978a5.48 5.48 0 0 0-.185-1H6.071zM5 15a5.038 5.038 0 0 0-1 1h25.001A5.02 5.02 0 0 0 28 14.998V15H5.001zM4 22.003A4.992 4.992 0 0 1 3.415 21h26.168a5.003 5.003 0 0 1-.584 1H4v.003zm.997.997c.835.628 1.874 1 3.002 1h17.002a4.974 4.974 0 0 0 2.998-1H4.997zM19.5 0c-.276 0-.5.216-.5.495v2.01c0 .273.232.495.5.495.276 0 .5-.216.5-.495V.495A.503.503 0 0 0 19.5 0zm6.733 2.789a.494.494 0 0 0-.704-.003l-1.42 1.42a.503.503 0 0 0 .003.704.494.494 0 0 0 .704.004l1.42-1.421a.503.503 0 0 0-.003-.704zm2.789 6.733c0-.276-.216-.5-.495-.5h-2.01a.503.503 0 0 0-.495.5c0 .276.216.5.495.5h2.01a.503.503 0 0 0 .495-.5zM12.767 2.789a.494.494 0 0 0-.003.704l1.42 1.42a.503.503 0 0 0 .704-.003.494.494 0 0 0 .004-.704l-1.421-1.42a.503.503 0 0 0-.704.003z" fill="#929292" fill-rule="evenodd"/></svg>