<svg width="32" height="32" viewBox="0 0 32 32" xmlns="http://www.w3.org/2000/svg"><path d="M18.442 10.139a5.5 5.5 0 1 0-7.327 2.262v-1.159a4.5 4.5 0 1 1 6.233-1.228 2.508 2.508 0 0 1 1.094.125zm-2.327-.19a3.5 3.5 0 1 0-5 0V7.501A2.506 2.506 0 0 1 13.615 5c1.39 0 2.5 1.12 2.5 2.501v2.448zm3 2.542a1.501 1.501 0 0 0-3 0V17h-1V7.509a1.5 1.5 0 1 0-3 0v10.29c-2.058-2.201-4.768-4.62-5.879-3.503-1.087 1.093 1.715 4.105 5.627 10.687C13.625 27.95 15.855 30 19.615 30a7.5 7.5 0 0 0 7.5-7.5v-7.993a1.5 1.5 0 1 0-3 0V17h-1V13.491c0-.823-.666-1.491-1.5-1.491-.828 0-1.5.663-1.5 1.491V16h-1v-3.509z" fill="#929292" fill-rule="evenodd"/></svg>