<svg width="32" height="32" viewBox="0 0 32 32" xmlns="http://www.w3.org/2000/svg"><path d="M25.275 10.495a5.495 5.495 0 0 0 1.72-3.755A4.5 4.5 0 0 1 21.255 1a5.502 5.502 0 0 0-5.113 6.737 7 7 0 0 0-10.129 6.669 5.006 5.006 0 0 0-3.013 4.589c0 2.761 2.232 5 5 5h17c2.762 0 5-2.245 5-5a4.998 4.998 0 0 0-3-4.586 5.484 5.484 0 0 0-1.725-3.914zm-.798-.626a4.506 4.506 0 0 0 1.269-1.88 5.5 5.5 0 0 1-5.74-5.74 4.502 4.502 0 0 0-2.432 6.447c.386.333.734.707 1.04 1.116a5.474 5.474 0 0 1 2.886-.817c1.097 0 2.119.32 2.977.874zM10 26c-.552 0-1 .444-1 1 0 .552.444 1 1 1 .552 0 1-.444 1-1 0-.552-.444-1-1-1zm3 3c-.552 0-1 .444-1 1 0 .552.444 1 1 1 .552 0 1-.444 1-1 0-.552-.444-1-1-1zm4-3c-.552 0-1 .444-1 1 0 .552.444 1 1 1 .552 0 1-.444 1-1 0-.552-.444-1-1-1zm3 3c-.552 0-1 .444-1 1 0 .552.444 1 1 1 .552 0 1-.444 1-1 0-.552-.444-1-1-1zm3-3c-.552 0-1 .444-1 1 0 .552.444 1 1 1 .552 0 1-.444 1-1 0-.552-.444-1-1-1z" fill="#929292" fill-rule="evenodd"/></svg>