<svg width="32" height="32" viewBox="0 0 32 32" xmlns="http://www.w3.org/2000/svg"><path d="M8.997 3c.007-1.106.905-2 2.012-2H21v6.002C21 8.113 21.898 9 23.006 9H28v17.003A1.995 1.995 0 0 1 26.003 28c-.007 1.106-.9 2-2 2-.007 1.106-.9 2-2 2H6.997A2 2 0 0 1 5 29.993V7.007C5 5.898 5.894 5 6.997 5c.003-1.102.897-2 2-2zM7 27.993A2 2 0 0 0 8.997 30L23 30.005c0 .54-.448.995-1 .995H7c-.545 0-1-.446-1-.995V6.995C6 6.455 6.448 6 7 6v21.993zM8 4.995v23.01c0 .55.455.995 1 .995h15c.552 0 1-.455 1-.995L10.997 28A2 2 0 0 1 9 25.993V4c-.552 0-1 .455-1 .995zM22 1v5.997c0 .554.451 1.003.99 1.003H28l-6-7z" fill="#929292" fill-rule="evenodd"/></svg>