<svg width="32" height="32" xmlns="http://www.w3.org/2000/svg"><path d="M16.987 23.166A3.001 3.001 0 0 1 16 29a3 3 0 0 1-.987-5.834 1.012 1.012 0 0 1-.013-.165V4c0-.56.448-.999 1-.999.556 0 1 .447 1 .999V23c0 .057-.005.112-.013.165zm1.013-.63a4 4 0 1 1-4 0V4.003C14 2.89 14.895 2 16 2c1.112 0 2 .897 2 2.004v18.531zm1.969-1.036a6 6 0 1 1-7.937 0 4.036 4.036 0 0 1-.032-.503V4.003A4.005 4.005 0 0 1 16 0c2.205 0 4 1.792 4 4.003v16.994c0 .17-.01.338-.031.503z" fill="#929292" fill-rule="evenodd"/></svg>