<svg width="32" height="32" xmlns="http://www.w3.org/2000/svg"><path d="M21 25.95V28h2.003C24.106 28 25 27.11 25 26.003V9h-4.994A1.997 1.997 0 0 1 18 7.002V1H8.009C6.899 1 6 1.898 6 3.007v22.986A2 2 0 0 0 7.997 28H16v-2.05a3.5 3.5 0 1 1 5 0zm-4 .713V31.6l1.5-1.5 1.5 1.5v-4.937a3.486 3.486 0 0 1-1.5.337c-.537 0-1.045-.12-1.5-.337zM19 1v5.997c0 .554.451 1.003.99 1.003H25l-6-7zM9 8v1h7V8H9zm0-3v1h7V5H9zm0 6v1h13v-1H9zm0 3v1h13v-1H9zm0 3v1h13v-1H9zm9.5 9a2.5 2.5 0 1 0 0-5 2.5 2.5 0 0 0 0 5z" fill="#929292" fill-rule="evenodd"/></svg>