<svg width="32" height="32" xmlns="http://www.w3.org/2000/svg"><path d="M27 14h5c0-1.105-1.12-2-2.5-2s-2.5.895-2.5 2zm0 0c0-1.105-1.12-2-2.5-2s-2.5.895-2.5 2c0-1.105-1.12-2-2.5-2s-2.5.895-2.5 2v14c0 1.112-.895 2-2 2-1.112 0-2-.896-2-2.001v-1.494c0-.291.224-.505.5-.505.268 0 .5.226.5.505v1.504c0 .547.444.991 1 .991a1 1 0 0 0 1-.99V14c0-1.105-1.12-2-2.5-2s-2.5.895-2.5 2c0-1.105-1.12-2-2.5-2S6 12.895 6 14c0-1.105-1.12-2-2.5-2S1 12.895 1 14c0-5.415 6.671-9.825 15-9.995V2.5c0-.283.224-.499.5-.499.268 0 .5.224.5.5v1.505c8.329.17 15 4.58 15 9.995h-5z" fill="#929292" fill-rule="evenodd"/></svg>