<svg width="32" height="32" xmlns="http://www.w3.org/2000/svg"><path d="M9.5 22.207l-2.121 2.121-.707-.707 2.12-2.121-2.12-2.121.707-.707 2.121 2.12 2.121-2.12.707.707-2.12 2.121 2.12 2.121-.707.707-2.121-2.12zm-3.487-6.194L4 14V6c0-1.113.895-2 2-2h8l13.38 13.38c.784.784.788 2.052.008 2.832l-7.176 7.176a2.003 2.003 0 0 1-2.831-.007l-2.394-2.394a6.5 6.5 0 0 0-8.973-8.973zM9.5 11a1.5 1.5 0 1 0 0-3 1.5 1.5 0 0 0 0 3zm0 16a5.5 5.5 0 1 0 0-11 5.5 5.5 0 0 0 0 11z" fill="#929292" fill-rule="evenodd"/></svg>