<svg width="32" height="32" xmlns="http://www.w3.org/2000/svg"><path d="M29.9 20c.065-.323.1-.658.1-1H3c0 .342.034.677.1 1h26.8zm-.317 1a5.003 5.003 0 0 1-.584 1H4v.003A4.992 4.992 0 0 1 3.415 21h26.168zM17.899 9c.259.253.498.527.715.817A5.474 5.474 0 0 1 21.5 9c1.177 0 2.268.37 3.163 1H7.255c.25-.36.534-.694.846-1h9.798zm-1.291-1A6.967 6.967 0 0 0 13 7c-1.32 0-2.554.365-3.608 1h7.216zm9.135 3c.253.307.474.642.657 1H6.29c.103-.345.231-.68.384-1h19.069zm1.05 2c.091.322.154.657.185 1H6c0-.34.024-.673.07-1h20.723zM28 14.998c.38.285.717.622 1.002 1.002h-25a5.038 5.038 0 0 1 1-1H28v-.002zM29.585 17c.138.318.245.652.315 1H3.1c.071-.348.178-.682.317-1h26.168zm-1.586 6c-.836.628-1.874 1-2.998 1H7.999a4.978 4.978 0 0 1-3.002-1h23.002z" fill="#929292" fill-rule="evenodd"/></svg>