<svg width="32" height="32" xmlns="http://www.w3.org/2000/svg"><path d="M13 5V3.998C13 2.898 13.898 2 15.005 2h.99C17.106 2 18 2.894 18 3.998V5h2.004c.551 0 .996.447.996.999v1.002a.994.994 0 0 1-.996.999h-9.008A.997.997 0 0 1 10 7.001V5.999c0-.556.446-.999.996-.999H13zm9 1h1.003C24.109 6 25 6.897 25 8.004v20.992A1.996 1.996 0 0 1 23.003 31H7.997A1.998 1.998 0 0 1 6 28.996V8.004C6 6.89 6.894 6 7.997 6H9v.995C9 8.102 9.894 9 11.003 9h8.994A2.001 2.001 0 0 0 22 6.995v-.99V6zm-6.5-1a.5.5 0 1 0 0-1 .5.5 0 0 0 0 1zM14 14v1h8v-1h-8zm-5-1v3h3v-3H9zm1 1v1h1v-1h-1zm-1 4v3h3v-3H9zm1 1v1h1v-1h-1zm4 0v1h8v-1h-8zm-5 4v3h3v-3H9zm1 1v1h1v-1h-1zm4 0v1h8v-1h-8z" fill="#929292" fill-rule="evenodd"/></svg>