<svg width="32" height="32" xmlns="http://www.w3.org/2000/svg"><path d="M16.147 18.146l3.118-3.118a.507.507 0 0 1 .71-.003c.19.19.194.513-.003.71l-3.118 3.118a1.5 1.5 0 0 1-2 2l-1.12 1.12a.507.507 0 0 1-.709.002.507.507 0 0 1 .003-.71l1.118-1.118a1.5 1.5 0 0 1 2-2zm7.83-6.417A11.459 11.459 0 0 1 27 19.5C27 25.851 21.851 31 15.5 31S4 25.851 4 19.5c0-2.996 1.145-5.724 3.022-7.77l-1.23-1.23-.706.707-.707-.707L6.5 8.379l.707.707-.707.707 1.23 1.23a11.466 11.466 0 0 1 5.558-2.81 3.5 3.5 0 1 1 4.424 0 11.466 11.466 0 0 1 5.559 2.81l1.229-1.23-.707-.707.707-.707 2.121 2.121-.707.707-.707-.707-1.23 1.23zM16 7.95a2.5 2.5 0 1 0-1 0V6h-1V5h3v1h-1v1.95zM8.016 19.998A7.501 7.501 0 0 0 15 26.984v-2.498c0-.275.224-.49.5-.49a.5.5 0 0 1 .5.49v2.498a7.501 7.501 0 0 0 6.984-6.986h-2.496a.492.492 0 0 1-.49-.5.5.5 0 0 1 .49-.5h2.495A7.501 7.501 0 0 0 16 12.016v2.494c0 .275-.224.49-.5.49a.5.5 0 0 1-.5-.49v-2.494a7.501 7.501 0 0 0-6.983 6.982h2.495c.275 0 .49.224.49.5a.5.5 0 0 1-.49.5H8.016zM15.5 28a8.5 8.5 0 1 0 0-17 8.5 8.5 0 0 0 0 17zm0-8a.5.5 0 1 0 0-1 .5.5 0 0 0 0 1z" fill="#929292" fill-rule="evenodd"/></svg>