<svg width="32" height="32" xmlns="http://www.w3.org/2000/svg"><path d="M19.856 22.672a17.913 17.913 0 0 0 3.365-5.246 16.534 16.534 0 0 1 4.991 3.452c.029-.077-.08.212-.17.43-2.515 1.578-5.268 2.18-8.186 1.364zm-1.075-.363a16.883 16.883 0 0 0 3.488-5.273 16.453 16.453 0 0 0-5.506-1.034 17.467 17.467 0 0 1-3.434 4.137c1.294.23 2.596.694 3.895 1.425.524.295 1.043.542 1.557.745zm-7.603-2.34A17.948 17.948 0 0 1 7.894 7.435c.035-.033-.43.42-.68.697A12.454 12.454 0 0 0 4 16.5c0 1.842.398 3.59 1.113 5.165 1.956-1.05 3.992-1.658 6.065-1.695zm17.623-5.7c-3.593-3.423-8.637-5.233-13.883-4.554a16.453 16.453 0 0 0 1.858 5.287 17.439 17.439 0 0 1 11.78 4.813c-.017.062.088-.328.146-.59a12.544 12.544 0 0 0 .218-4.145c-.057-.51-.16-1.044-.119-.811zm-.452-1.76a17.957 17.957 0 0 0-13.57-3.813c-.16-1.543-.1-3.092.17-4.6-.052.006.179-.023.347-.039C15.692 4.02 16.094 4 16.5 4c5.24 0 9.728 3.225 11.586 7.8.144.354.305.834.263.708zM9.078 6.44a16.937 16.937 0 0 0 3.199 13.283 16.454 16.454 0 0 0 3.626-4.233A17.424 17.424 0 0 1 13.905 4.27c.032-.007-.176.037-.31.07a12.432 12.432 0 0 0-3.923 1.688c-.284.185-.672.47-.594.413zM3 25.001c.432-.32.901-.635 1.404-.935 4.032-2.406 8.442-2.965 12.82-.502 4.021 2.262 7.786 1.761 11.12-.452a13.166 13.166 0 0 0 1.656-1.3v1.323c-.341.277-.709.549-1.102.81-3.622 2.405-7.779 2.957-12.164.49-4.022-2.262-8.065-1.75-11.817.49A15.997 15.997 0 0 0 3 26.266V25zm2.98 1.23c3.591-1.665 7.43-1.813 11.244.333 3.482 1.959 6.771 1.846 9.755.344v1.11c-3.143 1.433-6.615 1.46-10.245-.582-3.645-2.05-7.307-1.822-10.755-.094v-1.11z" fill="#929292" fill-rule="evenodd"/></svg>