<svg width="32" height="32" xmlns="http://www.w3.org/2000/svg"><path d="M10 22H8.003a4.008 4.008 0 0 1-3.469-2H13c1.41 0 2.804-.353 4.303-.656C19 19 22 19 22 19h7.015c.002.618-.01 1.008-.01 1.008C29.01 21.1 28.103 22 26.996 22H23v2h6v1H5.042C3.9 25 3 24.1 3 23h1c0 .547.448 1 1 1h5v-2zm1 0h11v2H11v-2zm3.074-9.47c-.128.09-.253.182-.377.275l1.035 1.59-.838.546-.994-1.526c-.14.11-.28.218-.417.323l.949 1.458-.838.545-.92-1.414c-.152.102-.3.195-.447.278l.905 1.39-.838.546-1.019-1.565A1.648 1.648 0 0 1 10 15H9v.5c0 .18.05.483.197.776.23.462.624.724 1.303.724H16c.634 0 1.084.3 1.322.776.092.184.141.362.163.52 1.962-.324 4.515-.26 4.515-.26h7.002c-.034-1.412-.149-3.316-.489-4.787l-.16.105a6.03 6.03 0 0 1-.496.43c-.392.308-.847.616-1.364.903A10.189 10.189 0 0 1 21.5 16c-2.901 0-4.792-1.576-5.84-3.557-.042-.08-.124-.305-.273-.732a9.349 9.349 0 0 0-.478.269l1.004 1.543-.838.546-1.001-1.539zM8 15h-.995A3.009 3.009 0 0 0 4 18.01c0 .341.043.673.125.99H13c1.138 0 2.27-.245 3.5-.508a.713.713 0 0 0-.072-.268C16.353 18.074 16.24 18 16 18h-5.5c-1.071 0-1.803-.488-2.197-1.276A2.803 2.803 0 0 1 8 15.5V15zm8.305-3.694A5.046 5.046 0 0 1 18 11c1.5 0 1 1.971 4 1.971S24.72 11 27 11c.534 0 .928.495 1.219 1.253l-.496.331a8.805 8.805 0 0 1-1.716 1.229A9.198 9.198 0 0 1 21.5 15c-2.46 0-4.063-1.337-4.955-3.024a22.89 22.89 0 0 1-.24-.67z" fill="#929292" fill-rule="evenodd"/></svg>