<svg width="32" height="32" xmlns="http://www.w3.org/2000/svg"><path d="M22 18v13h-9V14.505A4.5 4.5 0 0 1 17.5 10c2.48 0 4.5 2.017 4.5 4.505V17h6.05l-3.25-3.25.75-.75 4.5 4.5-4.5 4.5-.75-.75L28.05 18H22zM6.5 13A4.498 4.498 0 0 0 2 17.496V31h9V17.496A4.501 4.501 0 0 0 6.5 13zm0 2C5.12 15 4 16.129 4 17.51V21h5v-3.49C9 16.124 7.89 15 6.5 15zM4 24v1h5v-1H4zm0 2v1h5v-1H4zm13.5-14c-1.38 0-2.5 1.129-2.5 2.51V18h5v-3.49c0-1.386-1.11-2.51-2.5-2.51zM15 21v1h5v-1h-5zm0 2v1h5v-1h-5z" fill="#929292" fill-rule="evenodd"/></svg>