<svg width="32" height="32" viewBox="0 0 32 32" xmlns="http://www.w3.org/2000/svg"><path d="M10 3H23.498a1.5 1.5 0 0 1 0 3H22v1h3.507C26.332 7 27 7.666 27 8.5c0 .828-.664 1.5-1.493 1.5H23v1h3.507c.825 0 1.493.666 1.493 1.5 0 .828-.664 1.5-1.493 1.5H24v1h3.507c.825 0 1.493.666 1.493 1.5 0 .828-.664 1.5-1.493 1.5H20.3c1.2 5.5.851 11-2.3 11-2.87 0-1.063-4.326-2.629-7.301C13.805 18.724 10.5 18 10.5 18H10V3zM4.998 18A1.996 1.996 0 0 1 3 16.008V4.992C3 3.892 3.898 3 4.998 3H9v15H4.998zM6 5a1 1 0 1 1 0 2 1 1 0 0 1 0-2z" fill="#929292" fill-rule="evenodd"/></svg>