<svg width="32" height="32" xmlns="http://www.w3.org/2000/svg"><path d="M14.676 19.883a2.017 2.017 0 0 1-.68.117h-.991A2.003 2.003 0 0 1 11 17.994v-2.988c0-1.12.898-2.006 2.005-2.006h.99c1.111 0 2.005.898 2.005 2.006v2.988c0 .505-.183.963-.485 1.313l.753.754-.707.707-.885-.885zM13.793 19h-.794A.996.996 0 0 1 12 18v-3c0-.556.447-1 .999-1h1.002c.556 0 .999.448.999 1v3c0 .225-.073.43-.196.597l-1.365-1.365-.707.707L13.792 19zm-5.786-9A3.003 3.003 0 0 0 5 12.999V20A2.996 2.996 0 0 0 8.007 23h16.986A3.003 3.003 0 0 0 28 20.001V13A2.996 2.996 0 0 0 24.993 10H8.007zM19 14v6h1v-6h2v-1h-5v1h2z" fill="#929292" fill-rule="evenodd"/></svg>