<svg width="32" height="32" xmlns="http://www.w3.org/2000/svg"><path d="M16.5 29C23.404 29 29 23.404 29 16.5S23.404 4 16.5 4 4 9.596 4 16.5 9.596 29 16.5 29zm0-1C22.851 28 28 22.851 28 16.5S22.851 5 16.5 5 5 10.149 5 16.5 10.149 28 16.5 28zm0-1C22.299 27 27 22.299 27 16.5S22.299 6 16.5 6 6 10.701 6 16.5 10.701 27 16.5 27zm1.768-8.732c-1.768 1.768-8.486 4.95-8.486 4.95s3.182-6.718 4.95-8.486c1.768-1.768 8.486-4.95 8.486-4.95s-3.182 6.718-4.95 8.486zm-2.829-.707a1.5 1.5 0 1 0 2.122-2.122 1.5 1.5 0 0 0-2.122 2.122zM16.5 7c-.276 0-.5.215-.5.49v3.02a.5.5 0 0 0 .5.49c.276 0 .5-.215.5-.49V7.49a.5.5 0 0 0-.5-.49zm9.543 9.543c0-.276-.215-.5-.49-.5h-3.02a.5.5 0 0 0-.49.5c0 .276.215.5.49.5h3.02a.5.5 0 0 0 .49-.5zM16.5 26.087c.276 0 .5-.215.5-.49v-3.02a.5.5 0 0 0-.5-.49c-.276 0-.5.215-.5.49v3.02a.5.5 0 0 0 .5.49zm-9.543-9.544c0 .276.215.5.49.5h3.02a.5.5 0 0 0 .49-.5c0-.276-.215-.5-.49-.5h-3.02a.5.5 0 0 0-.49.5z" fill="#929292" fill-rule="evenodd"/></svg>