<svg width="32" height="32" viewBox="0 0 32 32" xmlns="http://www.w3.org/2000/svg"><path d="M15.837 23.023A2.5 2.5 0 0 1 15.493 28H7.507A2.502 2.502 0 0 1 5 25.5c0-1.216.859-2.218 2-2.45V23a3 3 0 0 1 5.306-1.92 3.001 3.001 0 0 1 3.532 1.943zm.717-.86A3.514 3.514 0 0 1 18.964 25h6.037C27.76 25 30 22.756 30 20a4.998 4.998 0 0 0-3-4.585 5.5 5.5 0 0 0-8.386-4.598 7 7 0 0 0-12.602 4.594 5.006 5.006 0 0 0-1.464 8.209c.365-.57.89-1.03 1.511-1.31a4.001 4.001 0 0 1 6.603-2.296 4 4 0 0 1 3.892 2.148zm10.87-9.34a2.5 2.5 0 0 0-.587-4.8 3.001 3.001 0 0 0-3.531-1.942A3 3 0 0 0 18 8.05a2.498 2.498 0 0 0-.656.231 8.04 8.04 0 0 1 1.518 1.275 6.501 6.501 0 0 1 8.562 3.266z" fill="#929292" fill-rule="evenodd"/></svg>