<svg width="32" height="32" viewBox="0 0 32 32" xmlns="http://www.w3.org/2000/svg"><path d="M9 15v5H8v-7h1l3 5v-5h1v7h-1l-3-5zm9-2h1v4.994c0 1.12-.898 2.006-2.005 2.006h-.99A2.003 2.003 0 0 1 14 17.994V13h1v4.997A.998.998 0 0 0 15.999 19h1.002A.994.994 0 0 0 18 17.997V13zm4.5 3L21 13h-1v7h1v-5l1 2h1l1-2v5h1v-7h-1l-1.5 3zM8.007 10A3.003 3.003 0 0 0 5 12.999V20A2.996 2.996 0 0 0 8.007 23h16.986A3.003 3.003 0 0 0 28 20.001V13A2.996 2.996 0 0 0 24.993 10H8.007z" fill="#929292" fill-rule="evenodd"/></svg>