<svg width="32" height="32" viewBox="0 0 32 32" xmlns="http://www.w3.org/2000/svg"><path d="M22.865 6h-.75V2.035a3.5 3.5 0 1 0 1 0V5h2v1h-2.25zm-7.75 4.95a3.5 3.5 0 1 0-5 0V8.5A2.506 2.506 0 0 1 12.615 6c1.39 0 2.5 1.12 2.5 2.501v2.448zm7.5-.95a4.5 4.5 0 1 0 0-9 4.5 4.5 0 0 0 0 9zm-4.5 3.49c0-.823-.666-1.49-1.5-1.49-.828 0-1.5.676-1.5 1.49V18h-1V8.509a1.5 1.5 0 1 0-3 0v10.29c-2.058-2.201-4.768-4.62-5.879-3.503-1.087 1.093 1.715 4.105 5.627 10.687C12.625 28.95 14.855 31 18.615 31a7.5 7.5 0 0 0 7.5-7.5v-7.993a1.5 1.5 0 1 0-3 0V18h-1V14.491c0-.823-.666-1.491-1.5-1.491-.828 0-1.5.663-1.5 1.491V17h-1v-3.509z" fill="#929292" fill-rule="evenodd"/></svg>