<svg width="32" height="32" xmlns="http://www.w3.org/2000/svg"><path d="M3 11.359l4.18-4.18.707.708L3.773 12H7v1H2V8h1v3.359zm10-8.718l-4.18 4.18-.707-.708L12.227 2H9V1h5v5h-1V2.641zm10 3.85a1.501 1.501 0 0 0-3 0V18h-1V8.509a1.5 1.5 0 1 0-3 0v10.29c-2.058-2.201-4.768-4.62-5.879-3.503-1.087 1.093 1.714 4.105 5.626 10.687C17.51 28.95 19.74 31 23.5 31a7.5 7.5 0 0 0 7.5-7.5v-7.993a1.5 1.5 0 1 0-3 0V18h-1V14.491c0-.823-.666-1.491-1.5-1.491-.828 0-1.5.663-1.5 1.491V17h-1V6.491z" fill="#929292" fill-rule="evenodd"/></svg>