<svg width="32" height="32" viewBox="0 0 32 32" xmlns="http://www.w3.org/2000/svg"><path d="M25 21h-3v-1h3v-3h1v3h3v1h-3v3h-1v-3zm-4.865-4.17L18 15l5.923-5.077-.808-.808L14.5 16.5 5.885 9.115l-.808.808L11 15l-5.923 5.077.808.808 5.99-5.135L14.5 18l2.625-2.25 2.441 2.093A6.477 6.477 0 0 0 19 20.5c0 .886.177 1.73.498 2.5H4.004A1.994 1.994 0 0 1 2 21.006V8.994A2 2 0 0 1 4.004 7h20.992C26.11 7 27 7.893 27 8.994v5.18A6.518 6.518 0 0 0 25.5 14a6.493 6.493 0 0 0-5.365 2.83zM25.5 26a5.5 5.5 0 1 0 0-11 5.5 5.5 0 0 0 0 11z" fill="#929292" fill-rule="evenodd"/></svg>