<svg width="32" height="32" xmlns="http://www.w3.org/2000/svg"><path d="M26 20c-.552 0-1 .444-1 1a2.999 2.999 0 0 1-3.002 3h-1.996A3.002 3.002 0 0 1 17 20.99v-9.98A2.999 2.999 0 0 1 20.002 8h1.996A3.002 3.002 0 0 1 25 11c0 .552.444 1 1 1 .552 0 1-.444 1-1 0-2.764-2.229-5-5.002-5h-1.996A4.998 4.998 0 0 0 15 10.995v10.01A4.992 4.992 0 0 0 20.002 26h1.996A4.998 4.998 0 0 0 27 21.005.999.999 0 0 0 26 20zM9 14a4 4 0 1 0 0-8 4 4 0 0 0 0 8zm0-2a2 2 0 1 0 0-4 2 2 0 0 0 0 4z" fill="#929292" fill-rule="evenodd"/></svg>