<svg width="32" height="32" xmlns="http://www.w3.org/2000/svg"><path d="M5.32 12.44A6.5 6.5 0 0 1 13.44 4.32l-2.613-2.612.708-.707 3.535 3.536-.707.707-.328.328v.064a5.494 5.494 0 0 0-.043-.021L11.536 8.07l-.708-.707 2.14-2.14a5.5 5.5 0 0 0-6.744 6.744l2.14-2.14.707.708-2.457 2.457.021.043h-.064L5.536 14.07l-.708-.707L2 10.536l.707-.708L5.32 12.44zm17.716-5.914c0-.823-.666-1.49-1.5-1.49-.829 0-1.5.676-1.5 1.49v11.51h-1V8.544a1.5 1.5 0 1 0-3 0v10.29c-2.059-2.2-4.769-4.62-5.88-3.503-1.087 1.093 1.715 4.105 5.627 10.688 1.763 2.965 3.993 5.016 7.753 5.017a7.5 7.5 0 0 0 7.5-7.5v-7.994a1.5 1.5 0 1 0-3 0v2.493h-1v-3.508c0-.824-.666-1.491-1.5-1.491-.829 0-1.5.662-1.5 1.49v2.51h-1V6.526z" fill="#929292" fill-rule="evenodd"/></svg>