<svg width="32" height="32" viewBox="0 0 32 32" xmlns="http://www.w3.org/2000/svg"><path d="M4.088 17.99C4.03 17.5 4 17.003 4 16.498c0-2.803.922-5.39 2.48-7.475a18.394 18.394 0 0 1 8.365 2.505A11.5 11.5 0 0 1 4.088 17.99zm.162 1.005c1.157 5.707 6.202 10.003 12.25 10.003.332 0 .66-.013.986-.039C17.169 27.86 17 26.7 17 25.498a12.46 12.46 0 0 1 3.564-8.741 18.603 18.603 0 0 0-4.866-4.698A12.5 12.5 0 0 1 4.25 18.995zM15.733 4.021a12.467 12.467 0 0 0-8.47 4.055 19.378 19.378 0 0 1 7.982 2.528c.488-1.276.755-2.66.755-4.106 0-.85-.092-1.68-.267-2.477zM16.75 4c5.593.11 10.285 3.893 11.764 9.036a12.447 12.447 0 0 0-7.216 3.028 19.607 19.607 0 0 0-5.186-4.93c.573-1.433.888-2.998.888-4.636 0-.856-.086-1.691-.25-2.498zm7.224 22.518a12.437 12.437 0 0 1-5.48 2.322A11.5 11.5 0 0 1 18 25.498a11.46 11.46 0 0 1 3.136-7.893 18.396 18.396 0 0 1 2.838 8.913zm.947-.783A12.467 12.467 0 0 0 29 16.498c0-.848-.084-1.676-.245-2.477a11.453 11.453 0 0 0-6.887 2.874 19.385 19.385 0 0 1 3.053 8.84z" fill="#929292" fill-rule="evenodd"/></svg>