<svg width="32" height="32" viewBox="0 0 32 32" xmlns="http://www.w3.org/2000/svg"><path d="M0 15V8.991C0 7.89.897 7 2.003 7H13l2 4h11.994A2 2 0 0 1 29 12.997V15H0zm0 1v11.009C0 28.109.89 29 1.991 29H22v-4.003c0-.738.402-1.384 1-1.73v-1.761a4.503 4.503 0 0 1 6-4.249V16H0zm24 5.505A3.502 3.502 0 0 1 27.5 18c1.93 0 3.5 1.57 3.5 3.505V24a1 1 0 0 1 1 1.003v4.994A.993.993 0 0 1 31.002 31h-7.004A1 1 0 0 1 23 29.997v-4.994A.993.993 0 0 1 23.998 24L24 21.505zm1 .004C25 20.112 26.12 19 27.5 19c1.39 0 2.5 1.123 2.5 2.51V24h-5v-2.49z" fill="#929292" fill-rule="evenodd"/></svg>