<svg width="32" height="32" xmlns="http://www.w3.org/2000/svg"><path d="M27.749 11.043c-.042-.087.182.378.317.707.602 1.464.934 3.068.934 4.75 0 1.957-.45 3.808-1.251 5.457A6.471 6.471 0 0 0 23.1 20c-1.456 0-3.06.868-4.1 1.4-.426.218-1.513.6-2.5.6a5.5 5.5 0 1 1 0-11c.987 0 1.658.179 2.5.6 1 .5 2.644 1.4 4.1 1.4a6.471 6.471 0 0 0 4.649-1.957zm-.502-.93c.062.104-.111-.19-.27-.434A12.49 12.49 0 0 0 16.5 4C9.596 4 4 9.596 4 16.5S9.596 29 16.5 29c4.57 0 8.567-2.452 10.747-6.113A5.477 5.477 0 0 0 23.1 21c-1.223 0-2.43.648-3.265 1.074C19 22.5 17.712 23 16.5 23a6.5 6.5 0 1 1 0-13c1.212 0 2.136.319 3.318.91C21 11.5 21.878 12 23.1 12a5.477 5.477 0 0 0 4.147-1.887z" fill="#929292" fill-rule="evenodd"/></svg>