<svg width="32" height="32" xmlns="http://www.w3.org/2000/svg"><path d="M20.978 17a5.5 5.5 0 1 0-10.955 0h10.955zM15.5 7c-.276 0-.5.216-.5.495v2.01c0 .273.232.495.5.495.276 0 .5-.216.5-.495v-2.01A.503.503 0 0 0 15.5 7zm6.738 2.791a.494.494 0 0 0-.704-.003l-1.42 1.42a.503.503 0 0 0 .003.704.494.494 0 0 0 .704.004l1.42-1.421a.503.503 0 0 0-.003-.704zm2.791 6.738c0-.276-.216-.5-.495-.5h-2.01a.503.503 0 0 0-.495.5c0 .276.216.5.495.5h2.01a.503.503 0 0 0 .495-.5zm-19.058 0c0 .276.216.5.495.5h2.01a.503.503 0 0 0 .495-.5c0-.276-.216-.5-.495-.5h-2.01a.503.503 0 0 0-.495.5zm2.79-6.738a.494.494 0 0 0-.002.704l1.42 1.42a.503.503 0 0 0 .704-.003.494.494 0 0 0 .004-.704l-1.421-1.42a.503.503 0 0 0-.704.003zM6.538 20a.51.51 0 0 1-.508-.5c0-.276.227-.5.508-.5h6.075l1.167 1 1.75 1.5 1.75-1.5 1.167-1h6.075a.51.51 0 0 1 .508.5c0 .276-.227.5-.508.5h-5.492l-3.5 3-3.5-3H6.537z" fill="#929292" fill-rule="evenodd"/></svg>