<svg width="32" height="32" xmlns="http://www.w3.org/2000/svg"><path d="M8.007 10A3.003 3.003 0 0 0 5 12.999V20A2.996 2.996 0 0 0 8.007 23h16.986A3.003 3.003 0 0 0 28 20.001V13A2.996 2.996 0 0 0 24.993 10H8.007zm1.998 3A1.998 1.998 0 0 0 8 15.006v2.988C8 19.102 8.894 20 10.005 20h.99A1.998 1.998 0 0 0 13 17.994v-2.988A2.003 2.003 0 0 0 10.995 13h-.99zm-.006 1A.997.997 0 0 0 9 15v3c0 .552.443 1 .999 1h1.002A.997.997 0 0 0 12 18v-3c0-.552-.443-1-.999-1H9.999zM14 13v7h2.995A1.998 1.998 0 0 0 19 17.994v-2.988A2.003 2.003 0 0 0 16.995 13H14zm1 1v5h2.001A.997.997 0 0 0 18 18v-3c0-.552-.443-1-.999-1H15zm7 0v6h1v-6h2v-1h-5v1h2z" fill="#929292" fill-rule="evenodd"/></svg>