<svg width="32" height="32" xmlns="http://www.w3.org/2000/svg"><path d="M21 26v2.003A1.995 1.995 0 0 1 19.003 30H3.997A2 2 0 0 1 2 27.993V5.007C2 3.898 2.9 3 4.009 3H14v6.002c0 1.111.898 1.998 2.006 1.998H21v2h-9.993A3.003 3.003 0 0 0 8 15.999V23A2.996 2.996 0 0 0 11.007 26H21zM15 3v5.997c0 .554.451 1.003.99 1.003H21l-6-7zm-4.005 11C9.893 14 9 14.9 9 15.992v7.016A2 2 0 0 0 10.995 25h17.01C29.107 25 30 24.1 30 23.008v-7.016A2 2 0 0 0 28.005 14h-17.01zm4.805 6H15v3h-1v-7h2.995A2 2 0 1 1 17 20l2 3h-1.2l-2-3zm-.8-3v2h2.001A.997.997 0 0 0 18 18c0-.552-.443-1-.999-1H15zm5 2.75V16h2.995a2 2 0 0 1 1.329 3.5c.415.367.676.903.676 1.5 0 1.112-.898 2-2.005 2H20v-3.25zM21 17v2h2.001A.997.997 0 0 0 24 18c0-.552-.443-1-.999-1H21zm0 3v2h2.001A.997.997 0 0 0 24 21c0-.552-.443-1-.999-1H21z" fill="#929292" fill-rule="evenodd"/></svg>