<svg width="32" height="32" xmlns="http://www.w3.org/2000/svg"><path d="M19 30h-2v-1h2v1zm1 0h2v-1h-2v1zm-7 0h-2v-1h2v1zm1 0h2v-1h-2v1zm-4 0H8.997A2 2 0 0 1 7 27.993V27h1v1.002c0 .551.455.998 1 .998h1v1zm16-7v-2h-1v2h1zm0 1v2h-1v-2h1zM7 23v-2h1v2H7zm0 1v2h1v-2H7zm20-5v-2h1v5h-1v-2H6v2H5v-5h1v2h21zm-1-1v-7h-4.994A1.997 1.997 0 0 1 19 9.002V3H9.009C7.899 3 7 3.898 7 5.007V18h19zm0 9v1.003A1.995 1.995 0 0 1 24.003 30H23v-1h1c.552 0 1-.446 1-.998V27h1zM20 3v5.997c0 .554.451 1.003.99 1.003H26l-6-7z" fill="#929292" fill-rule="evenodd"/></svg>