<svg width="32" height="32" xmlns="http://www.w3.org/2000/svg"><path d="M19 5.813a11.033 11.033 0 0 1-2.557-.791c-.872-.39-1.69-.641-2.443-.795V8.18c-2.772-.494-5 .233-5 .233v4.157s1.96-.994 5-.368V16.2c.804.141 1.654.385 2.509.777.887.407 1.723.668 2.491.825V13.798c2.888.52 5-.324 5-.324h.018V9.39L24 9.403s-1.976 1.009-5 .39v-3.98zm-11 6.18v17h1V17.54c1.377-.496 4.08-1.034 7.5.455 5.023 2.187 8.5 0 8.5 0v-14s-3.476 2.236-8.5 0-8.5 0-8.5 0v8zm6-3.792v3.978c.801.143 1.648.388 2.5.782.891.412 1.73.675 2.5.832V9.798a10.957 10.957 0 0 1-2.566-.799A11.642 11.642 0 0 0 14 8.201z" fill="#929292" fill-rule="evenodd"/></svg>