<svg width="32" height="32" viewBox="0 0 32 32" xmlns="http://www.w3.org/2000/svg"><path d="M16.5 29C23.404 29 29 23.404 29 16.5S23.404 4 16.5 4 4 9.596 4 16.5 9.596 29 16.5 29zm4.096-11.44l-4.948 4.949a4 4 0 1 1-5.653-5.66l7.413-7.414c.98-.98 2.559-.99 3.542-.006a2.502 2.502 0 0 1-.002 3.538l-7.418 7.417a1.001 1.001 0 1 1-1.421-1.407l4.952-4.952-.707-.707-4.952 4.952c-.78.78-.785 2.04.002 2.826a1.998 1.998 0 0 0 2.824.004l7.435-7.434a3.498 3.498 0 0 0-.006-4.944 3.504 3.504 0 0 0-4.955.005l-7.425 7.425a5 5 0 0 0 .005 7.066 4.994 4.994 0 0 0 7.073-.002l4.948-4.948-.707-.707z" fill="#929292" fill-rule="evenodd"/></svg>