<svg width="32" height="32" viewBox="0 0 32 32" xmlns="http://www.w3.org/2000/svg"><path d="M16 11c8.634 0 15.67 6.838 15.989 15.394A.502.502 0 0 1 31.5 27a.5.5 0 0 1-.5-.5C30.728 18.447 24.117 12 16 12S1.272 18.447 1.008 26.5A.512.512 0 0 1 .5 27a.5.5 0 0 1-.489-.606C.33 17.838 7.366 11 16 11zm0 2c7.526 0 13.665 5.938 13.987 13.385A.501.501 0 0 1 29.5 27a.5.5 0 0 1-.5-.5C28.728 19.552 23.012 14 16 14S3.272 19.552 3.01 26.5a.514.514 0 0 1-.51.5.5.5 0 0 1-.487-.615C2.335 18.938 8.474 13 16 13zm0 2c6.417 0 11.658 5.037 11.984 11.374A.5.5 0 1 1 27 26.5C26.727 20.657 21.908 16 16 16S5.273 20.657 5.011 26.5a.517.517 0 0 1-.511.5.5.5 0 0 1-.484-.626C4.342 20.037 9.583 15 16 15zM.503 28a.499.499 0 1 0 0 1h30.994a.499.499 0 1 0 0-1H.503zM28 12.5a5.5 5.5 0 0 0-10.436-2.429 16.938 16.938 0 0 1 10.033 4.499c.26-.639.403-1.338.403-2.07zm-6-9.005v2.01c0 .273.232.495.5.495.276 0 .5-.216.5-.495v-2.01A.503.503 0 0 0 22.5 3c-.276 0-.5.216-.5.495zm6.534 2.293l-1.42 1.42a.503.503 0 0 0 .003.704.494.494 0 0 0 .704.004l1.42-1.421a.503.503 0 0 0-.003-.704.494.494 0 0 0-.704-.003zm3 6.241h-2.01a.503.503 0 0 0-.495.5c0 .276.216.5.495.5h2.01a.503.503 0 0 0 .495-.5c0-.276-.216-.5-.495-.5zM15.759 6.495l1.42 1.42a.503.503 0 0 0 .704-.003.494.494 0 0 0 .004-.704l-1.421-1.42a.503.503 0 0 0-.704.003.494.494 0 0 0-.003.704z" fill="#929292" fill-rule="evenodd"/></svg>