<svg viewBox="0 0 32 32" xmlns="http://www.w3.org/2000/svg"><path d="M16.53 22a5.5 5.5 0 100-11 5.5 5.5 0 000 11zm0-15c-.277 0-.5.216-.5.495v2.01c0 .273.231.495.5.495.275 0 .5-.216.5-.495v-2.01a.503.503 0 00-.5-.495zm6.737 2.791a.494.494 0 00-.704-.003l-1.42 1.42a.503.503 0 00.003.704.494.494 0 00.704.004l1.42-1.421a.503.503 0 00-.003-.704zm2.791 6.738c0-.276-.216-.5-.495-.5h-2.01a.503.503 0 00-.495.5c0 .276.216.5.495.5h2.01a.503.503 0 00.495-.5zm-2.79 6.738a.494.494 0 00.002-.704l-1.42-1.42a.503.503 0 00-.704.003.494.494 0 00-.003.704l1.42 1.42a.503.503 0 00.704-.003zm-6.739 2.791c.276 0 .5-.216.5-.495v-2.01a.503.503 0 00-.5-.495c-.276 0-.5.216-.5.495v2.01c0 .273.232.495.5.495zm-6.738-2.79a.494.494 0 00.704.002l1.42-1.42a.503.503 0 00-.003-.704.494.494 0 00-.704-.003l-1.42 1.42a.503.503 0 00.003.704zM7 16.528c0 .276.216.5.495.5h2.01a.503.503 0 00.495-.5c0-.276-.216-.5-.495-.5h-2.01a.503.503 0 00-.495.5zm2.791-6.738a.494.494 0 00-.003.704l1.42 1.42a.503.503 0 00.704-.003.494.494 0 00.004-.704l-1.421-1.42a.503.503 0 00-.704.003z" fill="#929292" fill-rule="evenodd"/></svg>