<svg width="32" height="32" viewBox="0 0 32 32" xmlns="http://www.w3.org/2000/svg"><path d="M20.793 17a5.502 5.502 0 0 0-10.586 0h10.586zM15.5 9c-.276 0-.5.216-.5.495v2.01c0 .273.232.495.5.495.276 0 .5-.216.5-.495v-2.01A.503.503 0 0 0 15.5 9zm6.738 2.791a.494.494 0 0 0-.704-.003l-1.42 1.42a.503.503 0 0 0 .003.704.494.494 0 0 0 .704.004l1.42-1.421a.503.503 0 0 0-.003-.704zm-13.476 0a.494.494 0 0 0-.003.704l1.42 1.42a.503.503 0 0 0 .704-.003.494.494 0 0 0 .004-.704l-1.421-1.42a.503.503 0 0 0-.704.003zM6.508 19a.51.51 0 0 0-.508.5c0 .276.227.5.508.5h17.984a.51.51 0 0 0 .508-.5c0-.276-.227-.5-.508-.5H6.508z" fill="#929292" fill-rule="evenodd"/></svg>