<svg width="32" height="32" viewBox="0 0 32 32" xmlns="http://www.w3.org/2000/svg"><path d="M6.406 15a7.7 7.7 0 0 1-.39-2.977l.064-1.028C6.322 7.123 9.65 4 13.512 4h1.01c3.869 0 7.191 3.132 7.432 6.995l.065 1.028a7.703 7.703 0 0 1-.39 2.977H6.406zm.425 1c1.233 2.39 3.723 4 6.688 4h.996c2.967 0 5.456-1.61 6.689-4H6.83zm9.396 4.802l.29 4.2c.03.552-.442.998-1 .998h-3c-.566 0-1.029-.447-.998-.998l.233-4.188a7.892 7.892 0 0 0 1.714.186h.995a7.89 7.89 0 0 0 1.766-.198zm8.79-.302a2 2 0 1 0-4 0 2 2 0 0 0 4 0z" fill="#929292" fill-rule="evenodd"/></svg>