<svg width="32" height="32" viewBox="0 0 32 32" xmlns="http://www.w3.org/2000/svg"><path d="M10.765 6.024h5.239l13.38 13.381c.784.783.788 2.051.008 2.83l-7.177 7.178a2.003 2.003 0 0 1-2.83-.008L6.004 16.025V8.023c0-.95.653-1.736 1.532-1.945.197.318.352.71.445 1.176.81 4.08 1.617 5.547 3.445 5.775.006 0 .012-.002.018-.007l.06.001a1.5 1.5 0 0 0 .412-2.942.04.04 0 0 0 0-.013c-.271-.394-.607-1.455-.993-3.398a7.404 7.404 0 0 0-.158-.647zm-.822.842C9.076 2.498 4.387 1.884 2.58 4.758c-1.448 2.305-.015 6.266 2.424 6.266v-1c-1.552 0-2.648-3.03-1.577-4.734 1.343-2.136 4.85-1.676 5.535 1.77.809 4.077 1.419 4.964 3.042 4.964v-1c-.993 0-1.335-.496-2.061-4.158z" fill="#929292" fill-rule="evenodd"/></svg>