<svg viewBox="0 0 32 32" xmlns="http://www.w3.org/2000/svg"><path d="M25 7.335A12.456 12.456 0 0016.5 4C13.217 4 10.23 5.265 8 7.335c2.46 2.283 4 5.544 4 9.165 0 3.621-1.54 6.882-4 9.165A12.456 12.456 0 0016.5 29c3.283 0 6.27-1.265 8.5-3.335-2.46-2.283-4-5.544-4-9.165 0-3.621 1.54-6.882 4-9.165zm.706.709A12.455 12.455 0 0129 16.5c0 3.261-1.249 6.23-3.294 8.456A11.47 11.47 0 0122 16.5a11.47 11.47 0 013.706-8.456zm-18.412 0A12.455 12.455 0 004 16.5c0 3.261 1.249 6.23 3.294 8.456A11.47 11.47 0 0011 16.5a11.47 11.47 0 00-3.706-8.456z" fill="#929292" fill-rule="evenodd"/></svg>