<svg width="32" height="32" viewBox="0 0 32 32" xmlns="http://www.w3.org/2000/svg"><path d="M16.986 23.166A3.001 3.001 0 0 1 16 29a3 3 0 0 1-.986-5.834A1.014 1.014 0 0 1 15 23V8c0-.545.448-1 1-1 .556 0 1 .448 1 1v15a.988.988 0 0 1-.014.166zm1.014-.63a4 4 0 1 1-4 0V4.003C14 2.89 14.895 2 16 2c1.112 0 2 .897 2 2.004v18.531zm1.969-1.036a6 6 0 1 1-7.937 0 4.036 4.036 0 0 1-.032-.503V4.003A4.005 4.005 0 0 1 16 0c2.205 0 4 1.792 4 4.003v16.994c0 .17-.01.338-.031.503z" fill="#929292" fill-rule="evenodd"/></svg>