<svg width="32" height="32" viewBox="0 0 32 32" xmlns="http://www.w3.org/2000/svg"><path d="M20 19.95v9.04a7.5 7.5 0 0 0 7.115-7.49v-7.993a1.5 1.5 0 1 0-3 0V16h-1V6.491c0-.823-.666-1.491-1.5-1.491-.828 0-1.5.663-1.5 1.491V15h-1V4.491a1.501 1.501 0 0 0-3 0V16h-1V6.509a1.5 1.5 0 1 0-3 0v10.29c-2.058-2.201-4.768-4.62-5.879-3.503-1.087 1.093 1.715 4.105 5.627 10.687 1.664 2.8 3.745 4.785 7.137 4.998V19.95l-3.25 3.25-.75-.75 4.5-4.5 4.5 4.5-.75.75L20 19.95z" fill="#929292" fill-rule="evenodd"/></svg>