<svg width="32" height="32" viewBox="0 0 32 32" xmlns="http://www.w3.org/2000/svg"><path d="M11.985 14.352a4 4 0 1 0-4.224 3.64 35.36 35.36 0 0 1-.727-1.151 3.001 3.001 0 1 1 3.918-3.381c.348.275.695.577 1.033.892zM17 8.95a3.5 3.5 0 1 0-5 0V6.501A2.506 2.506 0 0 1 14.5 4C15.89 4 17 5.12 17 6.501v2.448zm3 2.542a1.501 1.501 0 0 0-3 0V16h-1V6.509a1.5 1.5 0 1 0-3 0v10.29c-2.058-2.201-4.768-4.62-5.879-3.503-1.087 1.093 1.714 4.105 5.626 10.687C14.51 26.95 16.74 29 20.5 29a7.5 7.5 0 0 0 7.5-7.5v-7.993a1.5 1.5 0 1 0-3 0V16h-1V12.491c0-.823-.666-1.491-1.5-1.491-.828 0-1.5.663-1.5 1.491V15h-1v-3.509z" fill="#929292" fill-rule="evenodd"/></svg>