<svg width="32" height="32" viewBox="0 0 32 32" xmlns="http://www.w3.org/2000/svg"><path d="M19 20h-2v1h2v-1zm1 0h.494c.658 0 1.214.417 1.42 1H20v-1zm-1 3h-2v-1h2v1zm1 0h.494c.656 0 1.215-.415 1.421-1H20v1zm-4-3h-2v1h2v-1zm0 3h-2v-1h2v1zm-3-3h-.494c-.656 0-1.215.415-1.421 1H13v-1zm0 3h-.494a1.504 1.504 0 0 1-1.42-1H13v1zm3.5 6C23.404 29 29 23.404 29 16.5S23.404 4 16.5 4 4 9.596 4 16.5 9.596 29 16.5 29zM12 15a1 1 0 1 0 0-2 1 1 0 0 0 0 2zm9 0a1 1 0 1 0 0-2 1 1 0 0 0 0 2zm-.378-5.033l-.56.83 3.316 2.236.56-.83-3.316-2.236zm-11.56 2.237l.56.829 3.316-2.237-.56-.829-3.316 2.237z" fill="#929292" fill-rule="evenodd"/></svg>