<svg width="16" height="16" viewBox="0 0 16 16" xmlns="http://www.w3.org/2000/svg"><path d="M14.768 11.248l-.064-.205c-.064-.137-.096-.274-.16-.376-.064-.137-.096-.274-.16-.376l-.193-.41-.032-.035a176.358 176.358 0 0 0-3.236-7.077l-.032-.102a5.292 5.292 0 0 1-.352-.752l-.064-.069a3.837 3.837 0 0 0-.513-.82A2.48 2.48 0 0 0 7.976 0C7.207 0 6.502.342 5.99.991c-.225.308-.385.616-.545.89-.128.239-.224.512-.352.751l-.032.103C3.81 5.299 2.722 7.624 1.793 9.812l-.032.034c-.064.137-.128.274-.16.41-.064.137-.096.24-.16.376-.065.171-.16.377-.225.582a4.289 4.289 0 0 0-.192 1.777c.16 1.231.93 2.257 2.018 2.735.385.171.801.274 1.25.274.128 0 .288-.034.416-.034a3.802 3.802 0 0 0 1.538-.547c.577-.342 1.121-.82 1.762-1.539a8.65 8.65 0 0 0 1.762 1.54c.48.307.993.478 1.538.547.096 0 .256.034.416.034a2.94 2.94 0 0 0 1.25-.274c1.057-.444 1.826-1.504 2.018-2.735.032-.512-.032-1.094-.224-1.743zm-8.17-2.974c.032-.206.097-.41.193-.582.256-.41.672-.615 1.153-.615.513 0 .93.24 1.153.615.128.171.193.376.225.582.032.273.032.58-.032.888-.16.753-.61 1.676-1.346 2.701-.705-.991-1.185-1.914-1.346-2.7a4.109 4.109 0 0 1 0-.89zm3.941 1.23c.096-.478.128-.923.064-1.401-.064-.41-.192-.82-.416-1.129a2.57 2.57 0 0 0-2.211-1.196c-.897 0-1.698.444-2.21 1.196a2.804 2.804 0 0 0-.417 1.129 4.17 4.17 0 0 0 .064 1.401c.224 1.026.801 2.188 1.73 3.453-.545.65-1.057 1.094-1.538 1.402-.352.205-.705.342-1.057.376-.352.034-.705 0-1.057-.137a2.19 2.19 0 0 1-1.25-1.71c-.032-.444 0-.785.16-1.196.033-.102.065-.205.129-.307.032-.069.032-.103.064-.171.096-.24.224-.513.32-.787v-.034A235.231 235.231 0 0 1 6.15 3.35l.032-.102c.064-.103.128-.24.192-.376.064-.137.128-.24.192-.376.129-.274.257-.479.385-.65.288-.342.64-.513 1.057-.513.417 0 .769.171 1.057.513.128.171.257.376.385.65.064.102.128.239.16.376.064.137.128.24.16.342l.032.102c1.121 2.325 2.179 4.684 3.204 7.009l.032.068c.064.137.096.24.16.376.064.137.128.274.16.376.032.069.032.103.064.171.064.103.096.205.128.308.129.41.16.786.097 1.128a2.19 2.19 0 0 1-1.25 1.71c-.32.136-.673.205-1.025.136-.352-.034-.705-.17-1.057-.376-.48-.273-.961-.718-1.538-1.401.961-1.129 1.538-2.291 1.762-3.317z" fill="#343538"/></svg>