<svg width="16" height="16" viewBox="0 0 16 16" xmlns="http://www.w3.org/2000/svg"><path d="M8 1a7 7 0 0 1 7 7 6.98 6.98 0 0 1-2.744 5.549l1.598 1.597a.502.502 0 0 1-.708.708l-1.74-1.741A6.967 6.967 0 0 1 8 15a6.967 6.967 0 0 1-3.406-.887l-1.74 1.74a.502.502 0 0 1-.708-.707l1.598-1.597A6.983 6.983 0 0 1 1 7.999a7 7 0 0 1 7-7zm0 8V4.5a.5.5 0 0 0-1 0v5a.5.5 0 0 0 .5.5h3a.5.5 0 0 0 0-1H8zM11.627.844A2.499 2.499 0 0 1 16 2.5c0 .728-.313 1.405-.848 1.876l-.661-.75a1.5 1.5 0 1 0-2.115-2.119l-.75-.663zM2.5 1a1.5 1.5 0 0 0-.988 2.628l-.66.752A2.5 2.5 0 0 1 2.5 0c.73 0 1.405.315 1.877.854l-.752.659A1.486 1.486 0 0 0 2.5 1z" fill-rule="evenodd"/></svg>