<svg width="16" height="16" viewBox="0 0 16 16" xmlns="http://www.w3.org/2000/svg"><path d="M11.627.844l.749.663a1.5 1.5 0 1 1 2.115 2.119l.66.75A2.5 2.5 0 1 0 11.627.844zM2.5 1c.437 0 .839.188 1.124.513l.752-.66A2.484 2.484 0 0 0 2.5 0 2.5 2.5 0 0 0 .853 4.38l.659-.752A1.5 1.5 0 0 1 2.5 1zM8 2a6 6 0 1 1 0 12A6 6 0 0 1 8 2zm0-1a7 7 0 0 0-7 7 6.983 6.983 0 0 0 2.744 5.549l-1.598 1.597a.502.502 0 0 0 .708.708l1.74-1.741A6.967 6.967 0 0 0 8 15a6.967 6.967 0 0 0 3.406-.887l1.74 1.74a.502.502 0 0 0 .708-.707l-1.598-1.597A6.98 6.98 0 0 0 15 7.999a7 7 0 0 0-7-7zm0 8V4.5a.5.5 0 0 0-1 0v5a.5.5 0 0 0 .5.5h3a.5.5 0 0 0 0-1H8z" fill-rule="evenodd"/></svg>