<svg width="16" height="16" viewBox="0 0 16 16" xmlns="http://www.w3.org/2000/svg"><path d="M8.468 8.653a1.712 1.712 0 0 1-1.131.92c-.07 0-.176.035-.282.035-.777 0-1.236-.6-1.236-1.484 0-1.131.671-1.66 1.518-1.908.459-.106.99-.142 1.52-.142V6.5c0 .812.034 1.447-.39 2.154zm.388-4.202c-.459.035-.99.07-1.52.14-.811.106-1.623.248-2.293.566-1.306.53-2.19 1.66-2.19 3.32 0 2.085 1.342 3.144 3.038 3.144.564 0 1.023-.072 1.446-.176.672-.213 1.236-.602 1.907-1.309.388.53.495.779 1.165 1.344.177.07.354.07.494-.035.424-.354 1.167-.99 1.554-1.343.177-.142.142-.354.035-.53-.388-.494-.777-.919-.777-1.872V4.52c0-1.342.107-2.578-.882-3.496C10.022.284 8.75 0 7.761 0h-.424c-1.8.104-3.706.882-4.131 3.108-.07.283.142.388.283.423l1.978.248c.211-.036.318-.213.352-.388.176-.777.812-1.166 1.518-1.238h.142c.424 0 .883.177 1.13.531.282.424.247.99.247 1.484v.283zm7.142 7.531a.76.76 0 0 0-.112-.4l-.007-.01-.009-.01c-.07-.078-.138-.107-.211-.139-.22-.085-.539-.13-.922-.13-.276 0-.58.026-.886.092v-.02l-.308.102-.006.003-.174.057v.007c-.204.085-.39.19-.561.315-.108.08-.196.187-.2.35a.326.326 0 0 0 .116.25.373.373 0 0 0 .287.077h.015l.011-.003c.15-.032.37-.053.627-.09a6.29 6.29 0 0 1 .655-.041c.143-.001.272.009.36.028a.403.403 0 0 1 .11.036c.003.013.01.045.008.089.002.17-.07.484-.168.79-.096.307-.213.615-.29.82a.415.415 0 0 0-.031.155.338.338 0 0 0 .103.247c.07.066.16.092.236.092h.003a.473.473 0 0 0 .292-.11c.78-.703 1.053-1.825 1.064-2.456l-.002-.1zm-2.315.973a.548.548 0 0 0-.238.054c-.086.034-.173.073-.256.108l-.121.051-.158.063v.002c-1.717.696-3.52 1.105-5.19 1.14-.06.003-.123.003-.182.003-2.625.001-4.766-1.216-6.926-2.416a.494.494 0 0 0-.228-.06.399.399 0 0 0-.27.104.37.37 0 0 0-.114.268c0 .13.07.251.168.33 2.028 1.76 4.25 3.396 7.238 3.398l.177-.003c1.901-.042 4.051-.685 5.72-1.733l.01-.007c.219-.13.437-.28.643-.444a.513.513 0 0 0 .216-.398.477.477 0 0 0-.489-.46z" fill="#333"/></svg>