<svg width="16" height="16" viewBox="0 0 16 16" xmlns="http://www.w3.org/2000/svg"><path d="M13.9 6.2a.5.5 0 0 0-.7-.1L9.547 8.84 5.853 5.146a.5.5 0 0 0-.63-.062l-3 2a.5.5 0 0 0 .554.832l2.66-1.773 3.71 3.71A.5.5 0 0 0 9.8 9.9l4-3a.5.5 0 0 0 .1-.7M1 9.5V2h14v7.5a2.5 2.5 0 0 1-2.5 2.5h-9A2.5 2.5 0 0 1 1 9.5m15 0v-8a.5.5 0 0 0-.5-.5H.5a.5.5 0 0 0-.5.5v8A3.5 3.5 0 0 0 3.5 13h1.307l-.781 2.342a.5.5 0 1 0 .949.316L5.86 13h4.28l.886 2.658a.5.5 0 1 0 .949-.316L11.194 13H12.5A3.5 3.5 0 0 0 16 9.5" fill-rule="evenodd"/></svg>