<svg width="16" height="16" viewBox="0 0 16 16" xmlns="http://www.w3.org/2000/svg"><path d="M9.909 3.2a.471.471 0 01-.477-.464.47.47 0 01.477-.464.47.47 0 01.477.464.471.471 0 01-.477.464zm-3.818 0a.471.471 0 01-.477-.464.47.47 0 01.477-.464.47.47 0 01.477.464.471.471 0 01-.477.464zm4.1-1.86l.178-.262.178-.258.396-.58A.151.151 0 0010.9.027a.16.16 0 00-.22.044l-.605.881-.181.265A5.356 5.356 0 008 .878a5.36 5.36 0 00-1.893.338l-.18-.265-.18-.26L5.324.07A.163.163 0 005.1.026a.153.153 0 00-.044.215l.396.58.178.257.179.262c-1.35.612-2.264 1.772-2.264 3.1h8.908c0-1.328-.913-2.488-2.263-3.1zM3.615 5.058h-.069v6.813c0 .541.451.981 1.008.981h.727a.872.872 0 00-.039.258v1.961c0 .513.429.929.955.929a.942.942 0 00.955-.929V13.11a.905.905 0 00-.038-.258h1.772a.904.904 0 00-.037.258v1.961c0 .513.427.929.954.929.527 0 .956-.416.956-.929V13.11a.873.873 0 00-.04-.258h.728a.995.995 0 001.007-.98V5.057h-8.84zm-1.66 0A.942.942 0 001 5.987V9.96c0 .513.427.929.955.929a.942.942 0 00.954-.929V5.987a.942.942 0 00-.954-.929zm12.091 0a.942.942 0 00-.955.929V9.96c0 .513.427.929.955.929A.942.942 0 0015 9.96V5.987a.942.942 0 00-.954-.929z" fill="#333"/></svg>