<svg width="16" height="16" viewBox="0 0 16 16" xmlns="http://www.w3.org/2000/svg"><path d="M9.126 6.986a1.5 1.5 0 0 1-.092 2.12L4.88 12.913l-.026.026a.854.854 0 0 0 0 1.207.96.96 0 0 0 1.336.022l6.19-5.803.023-.023a.5.5 0 0 0-.023-.707L6.19 1.832a.96.96 0 0 0-1.336.022l-.026.026a.854.854 0 0 0 .052 1.207l4.154 3.807c.032.03.062.06.092.092zM4.205 3.824a1.854 1.854 0 0 1-.114-2.62l.055-.058a1.96 1.96 0 0 1 2.728-.044l6.19 5.804a1.5 1.5 0 0 1 .068 2.12c-.033.035-.033.035-.068.068l-6.19 5.804a1.96 1.96 0 0 1-2.728-.044 1.854 1.854 0 0 1 0-2.622l.059-.056 4.153-3.807a.5.5 0 0 0 0-.738L4.205 3.824z"/></svg>