<svg width="16" height="16" viewBox="0 0 16 16" xmlns="http://www.w3.org/2000/svg"><path d="M3.597 7.658a.5.5 0 0 0 .023.707l6.19 5.803a.96.96 0 0 0 1.336-.022l.026-.026a.854.854 0 0 0-.052-1.207L6.966 9.106a1.5 1.5 0 0 1 0-2.212l4.154-3.807.026-.026a.854.854 0 0 0 0-1.207.96.96 0 0 0-1.336-.022L3.62 7.635l-.023.023zm5.53-6.556a1.96 1.96 0 0 1 2.727.044 1.854 1.854 0 0 1 0 2.622l-.059.056-4.153 3.807a.5.5 0 0 0 0 .738l4.153 3.807c.755.692.806 1.865.114 2.62l-.055.058a1.96 1.96 0 0 1-2.728.044l-6.19-5.804a1.5 1.5 0 0 1-.068-2.12c.033-.035.033-.035.068-.068l6.19-5.804z"/></svg>