<svg width="16" height="16" viewBox="0 0 16 16" xmlns="http://www.w3.org/2000/svg"><path d="M6.906 2.936c.033-.035.033-.035.068-.068a1.5 1.5 0 0 1 2.12.068l5.804 6.19a1.96 1.96 0 0 1-.044 2.728l-.059.055a1.854 1.854 0 0 1-2.62-.114L8.37 7.642a.5.5 0 0 0-.738 0l-3.807 4.153c-.027.03-.027.03-.056.059a1.854 1.854 0 0 1-2.622 0 1.96 1.96 0 0 1-.044-2.728l5.804-6.19zM1.832 9.81a.96.96 0 0 0 .022 1.336.854.854 0 0 0 1.207 0l.026-.026 3.807-4.154a1.5 1.5 0 0 1 2.212 0l3.807 4.154a.854.854 0 0 0 1.207.052l.026-.026a.96.96 0 0 0 .022-1.336L8.365 3.62a.5.5 0 0 0-.707-.023l-.023.023-5.803 6.19z"/></svg>