<svg width="16" height="16" viewBox="0 0 16 16" xmlns="http://www.w3.org/2000/svg"><path d="M10.28 2.597c.534-.673.939-1.625.792-2.597-.873.06-1.894.605-2.49 1.316-.543.645-.99 1.603-.816 2.534.956.029 1.941-.53 2.513-1.253zM15 11.74c-.382.832-.566 1.203-1.059 1.94-.686 1.028-1.655 2.309-2.856 2.318-1.066.011-1.341-.682-2.789-.674-1.447.008-1.749.687-2.817.677-1.2-.01-2.118-1.166-2.805-2.194C.752 10.933.55 7.56 1.735 5.766c.843-1.274 2.173-2.019 3.422-2.019 1.271 0 2.071.685 3.124.685 1.021 0 1.643-.687 3.113-.687 1.113 0 2.293.596 3.132 1.623-2.751 1.48-2.306 5.339.474 6.371z" fill="#333"/></svg>