<svg width="16" height="16" viewBox="0 0 16 16" xmlns="http://www.w3.org/2000/svg"><path d="M7.146 3.854a1.914 1.914 0 0 1 0-2.708l.047-.044a1.866 1.866 0 0 1 2.637.09l5.399 5.785a1.5 1.5 0 0 1 0 2.046L9.83 14.807l-.044.047a1.866 1.866 0 0 1-2.64 0 1.914 1.914 0 0 1 0-2.708L9.293 10H2a2 2 0 1 1 0-4h7.293L7.146 3.854zm7.352 3.805L9.099 1.875a.866.866 0 0 0-1.224-.042c-.378.378-.378.956-.021 1.313l3 3A.5.5 0 0 1 10.5 7H2a1 1 0 1 0 0 2h8.5a.5.5 0 0 1 .354.854l-3 3a.914.914 0 0 0 0 1.292.866.866 0 0 0 1.225 0l5.419-5.805a.5.5 0 0 0 0-.682z"/></svg>