<svg width="16" height="16" viewBox="0 0 16 16" xmlns="http://www.w3.org/2000/svg"><path d="M1.502 7.659a.5.5 0 0 0 0 .682l5.399 5.784c.359.36.907.36 1.245.021a.914.914 0 0 0 0-1.292l-3-3A.5.5 0 0 1 5.5 9H14a1 1 0 0 0 0-2H5.5a.5.5 0 0 1-.354-.854l3-3a.914.914 0 0 0 0-1.292c-.37-.348-.919-.329-1.245.021L1.502 7.659zM6.707 10l2.147 2.146c.747.748.747 1.96 0 2.708a1.866 1.866 0 0 1-2.64 0l-.044-.047-5.4-5.784a1.5 1.5 0 0 1 0-2.046l5.4-5.784a1.866 1.866 0 0 1 2.637-.091l.047.044c.747.748.747 1.96 0 2.708L6.707 6H14a2 2 0 1 1 0 4H6.707z"/></svg>