<svg width="16" height="16" viewBox="0 0 16 16" xmlns="http://www.w3.org/2000/svg"><path d="M6 6.707L3.854 8.854a1.914 1.914 0 0 1-2.708 0l-.044-.047a1.866 1.866 0 0 1 .09-2.637L6.978.77a1.5 1.5 0 0 1 2.046 0l5.784 5.399.047.044c.728.73.728 1.91 0 2.64a1.914 1.914 0 0 1-2.708 0L10 6.707V14a2 2 0 1 1-4 0V6.707zm1.659-5.205L1.875 6.901a.866.866 0 0 0-.042 1.224c.378.378.956.378 1.313.021l3-3A.5.5 0 0 1 7 5.5V14a1 1 0 0 0 2 0V5.5a.5.5 0 0 1 .854-.354l3 3a.914.914 0 0 0 1.292 0 .866.866 0 0 0 0-1.225L8.341 1.502a.5.5 0 0 0-.682 0z"/></svg>