<svg width="16" height="16" viewBox="0 0 16 16" xmlns="http://www.w3.org/2000/svg"><path d="M12.136 7.132a1.932 1.932 0 0 1 2.718.014l.044.047a1.866 1.866 0 0 1-.09 2.637l-5.786 5.4a1.5 1.5 0 0 1-2.046 0l-5.783-5.4-.047-.044a1.866 1.866 0 0 1 0-2.64 1.924 1.924 0 0 1 2.713-.008A320.56 320.56 0 0 1 6 9.268V2a2 2 0 1 1 4 0v7.255c.542-.552 1.254-1.259 2.136-2.123zm-4.477 7.366a.5.5 0 0 0 .682 0l5.784-5.399a.866.866 0 0 0 .042-1.224c-.382-.383-.967-.386-1.332-.028-1.466 1.436-2.457 2.435-2.966 2.99A.5.5 0 0 1 9 10.5V2a1 1 0 1 0-2 0v8.5a.5.5 0 0 1-.869.338c-.32-.35-1.316-1.35-2.974-2.988a.924.924 0 0 0-1.303.004.866.866 0 0 0 0 1.225l5.805 5.419z"/></svg>