<svg viewBox="0 0 24 24" xmlns="http://www.w3.org/2000/svg"><g fill="#00A1D6"><path d="M19.131 4.942h-2.257l1.922-2.562a.862.862 0 10-1.38-1.035l-2.695 3.597H9.15L6.454 1.345a.862.862 0 10-1.38 1.035l1.922 2.562H4.764A4.77 4.77 0 000 9.706v7.962a4.77 4.77 0 004.764 4.764h14.367a4.77 4.77 0 004.764-4.764V9.706a4.77 4.77 0 00-4.764-4.764zm3.04 12.726a3.04 3.04 0 01-3.04 3.04H4.764a3.04 3.04 0 01-3.04-3.04V9.706a3.04 3.04 0 013.04-3.04h14.367a3.04 3.04 0 013.04 3.04v7.962z"/><path d="M7.513 10.238a1.237 1.237 0 00-1.231 1.232v1.97a1.232 1.232 0 102.463 0v-1.97a1.237 1.237 0 00-1.232-1.232zm8.869 0a1.237 1.237 0 00-1.232 1.232v1.97a1.232 1.232 0 002.464 0v-1.97a1.237 1.237 0 00-1.232-1.232z"/></g></svg>