<svg width="16" height="16" viewBox="0 0 16 16" xmlns="http://www.w3.org/2000/svg"><path d="M12.5 13a2.5 2.5 0 1 1 0-5 2.5 2.5 0 0 1 0 5zM1 10.5a2.5 2.5 0 1 1 5 0 2.5 2.5 0 0 1-5 0zm5.984.157c.221-.455.559-.687.981-.658.49-.029.83.203 1.051.658A3.49 3.49 0 0 0 12.5 14a3.5 3.5 0 0 0 2.957-5.373l-2.651-5.044a2.092 2.092 0 0 0-3.343-.439 2.079 2.079 0 0 0-.576 1.531l.001.074c-.278-.148-.576-.249-.886-.249-.31 0-.605.1-.88.246l.002-.082a2.083 2.083 0 0 0-3.926-1.052L.449 8.799A3.575 3.575 0 0 0 0 10.5 3.5 3.5 0 0 0 3.5 14c1.879 0 3.4-1.484 3.484-3.343z" fill-rule="evenodd"/></svg>