<svg viewBox="0 0 16 16" xmlns="http://www.w3.org/2000/svg"><path d="M4.082 4.079a1.086 1.086 0 011.742-.244c.205.214.313.502.3.797l-.073 3.486c-.028-.029-.048-.064-.076-.092A3.503 3.503 0 003.5 7c-.373 0-.726.075-1.063.183l1.645-3.104zM8.914 6.08l.061 3.148a1.864 1.864 0 00-1.01-.226 1.708 1.708 0 00-.938.218l.067-3.146c.232-.341.582-.574.908-.574.327 0 .68.235.912.58zm2.054-2.58c.399-.002.765.212.958.558l1.632 3.105a3.491 3.491 0 00-3.605.937l-.067-3.456A1.089 1.089 0 0110.968 3.5zM12.5 13a2.5 2.5 0 110-5 2.5 2.5 0 010 5zM1 10.5a2.5 2.5 0 115 0 2.5 2.5 0 01-5 0zm5.984.157c.221-.455.559-.687.981-.658.49-.029.83.203 1.051.658A3.49 3.49 0 0012.5 14a3.5 3.5 0 002.957-5.373l-2.651-5.044a2.092 2.092 0 00-3.343-.439 2.079 2.079 0 00-.576 1.531l.001.074c-.278-.148-.576-.249-.886-.249-.31 0-.605.1-.88.246l.002-.082a2.083 2.083 0 00-3.926-1.052L.449 8.799A3.575 3.575 0 000 10.5 3.5 3.5 0 003.5 14c1.879 0 3.4-1.484 3.484-3.343z" fill-rule="evenodd"/></svg>