<svg width="16" height="16" viewBox="0 0 16 16" xmlns="http://www.w3.org/2000/svg"><path d="M.777 14.916A.5.5 0 0 1 0 14.5v-13c0-.167.083-.324.223-.416C1.307.361 2.57 0 4 0c1.312 0 2.478.32 3.5.928C8.522.32 9.688 0 11 0c1.43 0 2.693.361 3.777 1.084.14.092.223.25.223.416v13a.5.5 0 0 1-.777.416C13.307 14.306 12.237 14 11 14c-1.237 0-2.307.305-3.223.916-.007.005-.015.003-.022.007-.047.028-.099.037-.152.05-.035.007-.068.024-.103.024-.035 0-.068-.017-.103-.025-.053-.012-.105-.02-.152-.049-.007-.004-.015-.002-.022-.007C6.307 14.306 5.237 14 4 14c-1.237 0-2.307.305-3.223.916zM6 10.5a.5.5 0 0 0-.5-.5h-3a.5.5 0 0 0 0 1h3a.5.5 0 0 0 .5-.5zM2.5 8h3a.5.5 0 0 0 0-1h-3a.5.5 0 0 0 0 1zm0-3h3a.5.5 0 0 0 0-1h-3a.5.5 0 0 0 0 1zm7 3h3a.5.5 0 0 0 0-1h-3a.5.5 0 0 0 0 1zm0 3h3a.5.5 0 0 0 0-1h-3a.5.5 0 0 0 0 1zm0-6h3a.5.5 0 0 0 0-1h-3a.5.5 0 0 0 0 1z" fill-rule="evenodd"/></svg>