<svg width="16" height="16" viewBox="0 0 16 16" xmlns="http://www.w3.org/2000/svg"><path d="M6 10.5a.5.5 0 0 0-.5-.5h-3a.5.5 0 0 0 0 1h3a.5.5 0 0 0 .5-.5M2.5 8h3a.5.5 0 0 0 0-1h-3a.5.5 0 0 0 0 1M1 1.775C1.865 1.258 2.862 1 4 1s2.135.258 3 .775v11.867C6.103 13.213 5.101 13 4 13s-2.103.213-3 .642V1.775zm13 0v11.867c-.897-.429-1.899-.642-3-.642s-2.103.213-3 .642V1.775C8.865 1.258 9.862 1 11 1s2.135.258 3 .775zM.777 14.916C1.693 14.306 2.763 14 4 14c1.237 0 2.307.305 3.223.916.007.005.015.003.022.007.047.028.099.037.152.05.035.007.068.024.103.024.035 0 .068-.017.103-.025.053-.012.105-.02.152-.049.007-.004.015-.002.022-.007C8.693 14.306 9.763 14 11 14c1.237 0 2.307.305 3.223.916A.5.5 0 0 0 15 14.5v-13a.497.497 0 0 0-.223-.416C13.693.361 12.43 0 11 0 9.688 0 8.522.32 7.5.928 6.478.32 5.312 0 4 0 2.57 0 1.307.361.223 1.084A.497.497 0 0 0 0 1.5v13a.5.5 0 0 0 .777.416zM2.5 5h3a.5.5 0 0 0 0-1h-3a.5.5 0 0 0 0 1m7 3h3a.5.5 0 0 0 0-1h-3a.5.5 0 0 0 0 1m0 3h3a.5.5 0 0 0 0-1h-3a.5.5 0 0 0 0 1m0-6h3a.5.5 0 0 0 0-1h-3a.5.5 0 0 0 0 1" fill-rule="evenodd"/></svg>