<svg width="16" height="16" viewBox="0 0 16 16" xmlns="http://www.w3.org/2000/svg"><path d="M2 13.5V3h1v5.5a.5.5 0 0 0 .8.4l1.7-1.275L7.2 8.9a.5.5 0 0 0 .8-.4V3h2.5A1.5 1.5 0 0 1 12 4.5v9a1.5 1.5 0 0 1-1.5 1.5h-7A1.5 1.5 0 0 1 2 13.5zM4 3h3v4.5l-1.2-.9a.501.501 0 0 0-.6 0L4 7.5V3zM3 1h9.5A1.5 1.5 0 0 1 14 2.5v9a1.5 1.5 0 0 1-1 1.415V4.5A2.5 2.5 0 0 0 10.5 2H2a1 1 0 0 1 1-1zm7.5 15a2.5 2.5 0 0 0 2.458-2.042A2.5 2.5 0 0 0 15 11.5v-9A2.5 2.5 0 0 0 12.5 0H3a2 2 0 0 0-2 2v11.5A2.5 2.5 0 0 0 3.5 16h7z" fill-rule="evenodd"/></svg>