<svg width="16" height="16" viewBox="0 0 16 16" xmlns="http://www.w3.org/2000/svg"><path d="M9.009 7.805l-.814-.814 5.797-5.796a.575.575 0 1 1 .813.814L9.009 7.805zm-1.54-.088l.814.814-1.595 1.596a3.108 3.108 0 0 0-.815-.814l1.596-1.596zm-3.265 4.574c-.325-.709-.998-1.115-1.967-1.245a2.064 2.064 0 0 1 3.958.825c0 .418-.076.794-.227 1.13-.998-.007-1.556-.258-1.764-.71zm-2.14-.26c.67.08 1.065.313 1.232.678.318.691.965 1.094 1.895 1.235-.782.584-2.03.92-3.78 1.003.416-.877.633-1.852.653-2.917zM13.264.468l-8.4 8.402a3.07 3.07 0 0 0-.734-.097 3.096 3.096 0 0 0-3.096 3.097c0 1.277-.316 2.382-.946 3.326A.516.516 0 0 0 .517 16c4.376 0 6.709-1.36 6.709-4.129 0-.255-.04-.498-.096-.734l8.4-8.402A1.602 1.602 0 1 0 13.266.47z" fill="#060101" fill-rule="evenodd"/></svg>