<svg width="16" height="16" viewBox="0 0 16 16" xmlns="http://www.w3.org/2000/svg"><path d="M8.324.032l-8 3A.5.5 0 000 3.5v10a.499.499 0 101 0V3.847l7-2.625V13.5a.499.499 0 101 0V5.163l6 1.715V13.5a.499.499 0 101 0v-7a.502.502 0 00-.363-.48L9 4.122V.5a.5.5 0 00-.676-.468M6.5 11h-4a.5.5 0 000 1h4a.5.5 0 000-1m-6 5h15a.5.5 0 000-1H.5a.5.5 0 000 1m6-11h-4a.5.5 0 000 1h4a.5.5 0 000-1m7 3h-3a.5.5 0 000 1h3a.5.5 0 000-1m0 3h-3a.5.5 0 000 1h3a.5.5 0 000-1m-7-3h-4a.5.5 0 000 1h4a.5.5 0 000-1" fill-rule="evenodd"/></svg>