<svg width="16" height="16" viewBox="0 0 16 16" xmlns="http://www.w3.org/2000/svg"><path d="M11 2v.5a.5.5 0 0 0 1 0V2h1.5A1.5 1.5 0 0 1 15 3.5v10a1.5 1.5 0 0 1-1.5 1.5h-10A1.5 1.5 0 0 1 2 13.5v-10A1.5 1.5 0 0 1 3.5 2H5v.5a.5.5 0 0 0 1 0V2h5zM5.5 0a.5.5 0 0 0-.5.5V1H3.5A2.5 2.5 0 0 0 1 3.5v10A2.5 2.5 0 0 0 3.5 16h10a2.5 2.5 0 0 0 2.5-2.5v-10A2.5 2.5 0 0 0 13.5 1H12V.5a.5.5 0 0 0-1 0V1H6V.5a.5.5 0 0 0-.5-.5zm2 7H8v3.5a.5.5 0 0 0 1 0v-4a.5.5 0 0 0-.5-.5h-1a.5.5 0 0 0 0 1" fill="#060101" fill-rule="evenodd"/></svg>