<svg width="16" height="16" viewBox="0 0 16 16" xmlns="http://www.w3.org/2000/svg"><path d="M12 5.5a.5.5 0 1 1 1 0v6a.5.5 0 1 1-1 0v-6zM3.707 2l-.853.854A.5.5 0 0 1 2.5 3h-1a.5.5 0 0 0-.5.5v8A2.5 2.5 0 0 0 3.5 14h9a2.5 2.5 0 0 0 2.5-2.5v-8a.5.5 0 0 0-.5-.5h-6a.5.5 0 0 1-.354-.146L7.293 2H3.707zm5 0H14.5A1.5 1.5 0 0 1 16 3.5v8a3.5 3.5 0 0 1-3.5 3.5h-9A3.5 3.5 0 0 1 0 11.5v-8A1.5 1.5 0 0 1 1.5 2h.793l.853-.854A.5.5 0 0 1 3.5 1h4a.5.5 0 0 1 .354.146L8.707 2zM5.5 12a3.5 3.5 0 1 1 0-7 3.5 3.5 0 0 1 0 7zm0-1a2.5 2.5 0 1 0 0-5 2.5 2.5 0 0 0 0 5z"/></svg>