<svg width="16" height="16" viewBox="0 0 16 16" xmlns="http://www.w3.org/2000/svg"><path d="M1 11.5V8h1.5a.5.5 0 0 0 0-1H1V6h1.5a.5.5 0 0 0 0-1H1v-.5a.5.5 0 0 1 .5-.5h3a.5.5 0 0 0 .447-.276L5.809 2h4.382l.862 1.724A.5.5 0 0 0 11.5 4h3a.5.5 0 0 1 .5.5v7a2.5 2.5 0 0 1-2.5 2.5h-9A2.5 2.5 0 0 1 1 11.5zM12.5 15a3.5 3.5 0 0 0 3.5-3.5v-7A1.5 1.5 0 0 0 14.5 3h-2.691l-.862-1.724A.5.5 0 0 0 10.5 1h-5a.5.5 0 0 0-.447.276L4.191 3H1.5A1.5 1.5 0 0 0 0 4.5v7A3.5 3.5 0 0 0 3.5 15h9zM8 6a3 3 0 1 1 0 6 3 3 0 0 1 0-6m0 7a4 4 0 1 0 0-8 4 4 0 0 0 0 8" fill-rule="evenodd"/></svg>