<svg viewBox="0 0 16 16" xmlns="http://www.w3.org/2000/svg"><path d="M1 11.5V8h1.5a.5.5 0 000-1H1V6h1.5a.5.5 0 000-1H1v-.5a.5.5 0 01.5-.5h3a.5.5 0 00.447-.276L5.809 2h4.382l.862 1.724A.5.5 0 0011.5 4h3a.5.5 0 01.5.5v7a2.5 2.5 0 01-2.5 2.5h-9A2.5 2.5 0 011 11.5zM12.5 15a3.5 3.5 0 003.5-3.5v-7A1.5 1.5 0 0014.5 3h-2.691l-.862-1.724A.5.5 0 0010.5 1h-5a.5.5 0 00-.447.276L4.191 3H1.5A1.5 1.5 0 000 4.5v7A3.5 3.5 0 003.5 15h9zM8 6a3 3 0 110 6 3 3 0 010-6m0 7a4 4 0 100-8 4 4 0 000 8" fill-rule="evenodd"/></svg>