<svg width="16" height="16" viewBox="0 0 16 16" xmlns="http://www.w3.org/2000/svg"><path d="M4 14.5a.5.5 0 0 1-1 0V14h1v.5zm-3-3v-2A1.5 1.5 0 0 1 2.5 8h11A1.5 1.5 0 0 1 15 9.5v2a1.5 1.5 0 0 1-1.5 1.5h-11A1.5 1.5 0 0 1 1 11.5zM2.076 7l.551-3.854A2.5 2.5 0 0 1 5.102 1h5.796a2.5 2.5 0 0 1 2.475 2.146L13.924 7H2.076zM12.5 15a.5.5 0 0 1-.5-.5V14h1v.5a.5.5 0 0 1-.5.5zm0 1a1.5 1.5 0 0 0 1.5-1.5v-.55a2.502 2.502 0 0 0 2-2.45v-2c0-.812-.393-1.526-.992-1.982l-.645-4.513A3.5 3.5 0 0 0 10.898 0H5.102a3.5 3.5 0 0 0-3.465 3.005L.992 7.518A2.486 2.486 0 0 0 0 9.5v2c0 1.209.859 2.218 2 2.45v.55a1.5 1.5 0 1 0 3 0V14h6v.5a1.5 1.5 0 0 0 1.5 1.5zM3 10.5a.5.5 0 1 1 1 0 .5.5 0 0 1-1 0m2 0a1.5 1.5 0 1 0-3.001.001A1.5 1.5 0 0 0 5 10.5m7.5-.5a.5.5 0 1 1 0 1 .5.5 0 0 1 0-1m0 2a1.5 1.5 0 1 0 0-3 1.5 1.5 0 0 0 0 3" fill-rule="evenodd"/></svg>