<svg width="16" height="16" viewBox="0 0 16 16" xmlns="http://www.w3.org/2000/svg"><path d="M1 7.5A1.5 1.5 0 0 1 2.5 6h5A1.5 1.5 0 0 1 9 7.5v3A1.5 1.5 0 0 1 7.5 12H3.803c-.296 0-.586.088-.832.252L1 13.566V7.5zm2-4A1.5 1.5 0 0 1 4.5 2h9A1.5 1.5 0 0 1 15 3.5v8.793l-2.854-2.854a1.5 1.5 0 0 0-1.06-.44H10V7.5A2.5 2.5 0 0 0 7.5 5H3V3.5zM.777 14.916l2.748-1.832A.5.5 0 0 1 3.803 13H7.5a2.5 2.5 0 0 0 2.5-2.5V10h1.086c.132 0 .26.053.353.146l3.707 3.708A.5.5 0 0 0 16 13.5v-10A2.5 2.5 0 0 0 13.5 1h-9A2.5 2.5 0 0 0 2 3.5v1.55A2.502 2.502 0 0 0 0 7.5v7a.5.5 0 0 0 .777.416z" fill-rule="evenodd"/></svg>