<svg width="16" height="16" viewBox="0 0 16 16" xmlns="http://www.w3.org/2000/svg"><path d="M15.814 4.685c.133.242.187.51.177.775.001.014.01.026.004.061-.002.028-.014.053-.017.08-.007.032-.007.066-.02.095a1.47 1.47 0 0 1-.27.627l-7.293 9.482c-.2.26-.59.26-.79 0L.31 6.323a1.48 1.48 0 0 1-.268-.627C.03 5.667.03 5.633.021 5.601c-.003-.027-.014-.052-.016-.08 0-.008-.005-.013.004-.06-.01-.266.044-.534.176-.776l1.598-2.908A1.5 1.5 0 0 1 3.096 1h9.807a1.5 1.5 0 0 1 1.314.777l1.597 2.908zM3.5 6h9a.5.5 0 1 0 0-1h-9a.5.5 0 0 0 0 1z" fill-rule="evenodd"/></svg>