<svg width="16" height="16" viewBox="0 0 16 16" xmlns="http://www.w3.org/2000/svg"><path d="M2.66 2.26A.497.497 0 0 1 3.095 2h2.39L4.172 5h-3.02l1.506-2.74zM14.846 5h-3l-1.125-3h2.181c.183 0 .351.1.438.26L14.847 5zm-2.999 1h2.83l-5.429 7.057L11.85 6zM6.75 13.057L1.323 6h2.828l2.6 7.057zM10.783 6L8 13.553 5.217 6h5.566zm-1.13-4l1.125 3H5.264l1.313-3h3.076zm6.161 2.685l-1.597-2.908A1.5 1.5 0 0 0 12.903 1H3.096a1.5 1.5 0 0 0-1.313.777L.185 4.685c-.132.242-.186.51-.176.775-.009.048-.005.053-.004.061.002.028.013.053.016.08.008.032.008.066.022.095.044.223.124.44.268.627l7.293 9.482c.201.26.591.26.791 0l7.293-9.482a1.47 1.47 0 0 0 .27-.627c.013-.029.013-.063.02-.095.003-.027.015-.052.017-.08.005-.035-.003-.047-.004-.06a1.484 1.484 0 0 0-.177-.776z" fill-rule="evenodd"/></svg>