<svg width="16" height="16" viewBox="0 0 16 16" xmlns="http://www.w3.org/2000/svg"><path d="M4.5 4h7a.5.5 0 000-1h-7a.5.5 0 000 1M4 10v1.5a.5.5 0 00.5.5h7a.5.5 0 00.5-.5V10h2.91l-.625 3.747A1.5 1.5 0 0112.806 15H3.194a1.5 1.5 0 01-1.479-1.253L1.091 10H4zM2.901 1H13.1l1.777 8H11.5a.5.5 0 00-.5.5V11H5V9.5a.5.5 0 00-.5-.5H1.123l1.778-8zm.293 15h9.612a2.498 2.498 0 002.465-2.09l.719-4.31a.482.482 0 00-.002-.207l-2-9A.5.5 0 0013.5 0h-11a.5.5 0 00-.488.392l-2 9a.482.482 0 00-.002.207l.719 4.312A2.5 2.5 0 003.194 16zM13 6.5a.5.5 0 00-.5-.5h-9a.5.5 0 000 1h9a.5.5 0 00.5-.5" fill-rule="evenodd"/></svg>