<svg width="16" height="16" viewBox="0 0 16 16" xmlns="http://www.w3.org/2000/svg"><path d="M11.5 8h-7a.5.5 0 0 0 0 1h7a.5.5 0 0 0 0-1m2.773 4.749a2.499 2.499 0 0 1-2.487 2.25H4.215a2.5 2.5 0 0 1-2.487-2.25l-.675-6.75h13.895l-.675 6.75zM2 1.999h2.292l1.853 1.854A.5.5 0 0 0 6.5 4H14v1H2V2zm12.5 1H6.708L4.853 1.147A.503.503 0 0 0 4.5 1h-3a.5.5 0 0 0-.5.5V5H.5a.5.5 0 0 0-.497.55l.73 7.299a3.5 3.5 0 0 0 3.482 3.15h7.57a3.5 3.5 0 0 0 3.482-3.15l.73-7.3a.5.5 0 0 0-.496-.55H15V3.5a.5.5 0 0 0-.5-.5z" fill-rule="evenodd"/></svg>