<svg width="16" height="16" viewBox="0 0 16 16" xmlns="http://www.w3.org/2000/svg"><path d="M10.667 14.292c-.292-1.674-.778-3.403-1.459-5.188h-.02l-.021.01-.448.172c-.188.073-.538.244-1.052.51-.514.268-.99.553-1.427.855a9.04 9.04 0 0 0-1.365 1.193 5.581 5.581 0 0 0-1.073 1.541l-.156-.114C4.924 14.312 6.375 14.833 8 14.833c.917 0 1.806-.18 2.667-.541zM8.74 7.969c-.146-.34-.33-.726-.553-1.157-2.16.646-4.496.97-7.01.97-.007.048-.01.12-.01.218a6.7 6.7 0 0 0 .458 2.464 6.84 6.84 0 0 0 1.292 2.098 8.733 8.733 0 0 1 1.286-1.734 9.311 9.311 0 0 1 1.484-1.297c.48-.326.933-.607 1.36-.844a8.008 8.008 0 0 1 1.036-.5l.386-.135.135-.036a.822.822 0 0 0 .136-.047zM7.625 5.76a35.843 35.843 0 0 0-2.542-3.937A6.742 6.742 0 0 0 2.646 3.76a6.75 6.75 0 0 0-1.334 2.834c2.098 0 4.202-.278 6.313-.834zm7.125 3.323c-1.458-.416-2.878-.517-4.26-.302a29.345 29.345 0 0 1 1.333 4.886 6.826 6.826 0 0 0 1.927-1.974 6.737 6.737 0 0 0 1-2.61zM6.365 1.365c-.007 0-.014.003-.021.01.007-.007.014-.01.02-.01zm6.145 1.51C11.226 1.736 9.722 1.167 8 1.167a6.89 6.89 0 0 0-1.615.198 29.73 29.73 0 0 1 2.563 3.979c.48-.18.93-.39 1.354-.63.424-.24.759-.454 1.005-.641a6.83 6.83 0 0 0 .683-.594 4.52 4.52 0 0 0 .39-.422l.13-.182zm2.323 5.052c-.02-1.611-.538-3.035-1.552-4.27l-.01.01c-.063.083-.129.168-.198.255-.07.087-.22.241-.453.463-.233.223-.48.433-.74.63a10.6 10.6 0 0 1-1.041.678 10.81 10.81 0 0 1-1.37.672c.173.368.326.697.458.99.014.04.037.102.068.181.031.08.057.138.078.172.25-.034.509-.059.776-.073a14.782 14.782 0 0 1 1.484-.005 17.152 17.152 0 0 1 1.756.167l.38.062c.104.018.19.033.26.047l.104.021zM16 8c0 1.451-.358 2.79-1.073 4.016a7.964 7.964 0 0 1-2.911 2.911A7.826 7.826 0 0 1 8 16a7.826 7.826 0 0 1-4.016-1.073 7.964 7.964 0 0 1-2.911-2.911A7.826 7.826 0 0 1 0 8c0-1.451.358-2.79 1.073-4.016a7.964 7.964 0 0 1 2.911-2.911A7.826 7.826 0 0 1 8 0c1.451 0 2.79.358 4.016 1.073a7.964 7.964 0 0 1 2.911 2.911A7.826 7.826 0 0 1 16 8z" fill="#333"/></svg>