<svg width="16" height="16" viewBox="0 0 16 16" xmlns="http://www.w3.org/2000/svg"><path d="M10.683 7.568a3.038 3.038 0 0 0-.6.037c.052-.44.23-.981.855-.959.693.025.79.7.793 1.156a2.779 2.779 0 0 0-1.048-.234m2.963-4.784c-.116-.639-.485-.953-.819-1.077-.359-.134-1.088-.272-2.004-.384-.738-.089-1.604-.082-2.127-.065C8.633.815 8.332.41 7.994.27c-.9-.373-2.29-.283-2.646-.18-.284.082-.598.25-.773.507-.117.172-.193.393-.193.7 0 .175.005.586.009.95l.009.697a.584.584 0 0 1-.575.591H2.367c-.311 0-.55.054-.73.139a1.04 1.04 0 0 0-.41.335c-.194.27-.228.602-.227.94 0 0 .003.278.068.814.054.415.49 3.315.906 4.196.16.343.268.486.584.637.705.311 2.314.657 3.069.756.753.099 1.225.307 1.507-.301 0-.001.056-.151.132-.371a6.19 6.19 0 0 0 .279-1.93c0-.05.07-.051.07 0 0 .346-.063 1.57.835 1.899.354.129 1.09.244 1.836.335.675.08 1.166.353 1.166 2.138 0 1.085-.222 1.234-1.38 1.234-.938 0-1.296.025-1.296-.742 0-.621.597-.556 1.038-.556.198 0 .054-.151.054-.534 0-.381.232-.601.013-.606-1.528-.044-2.426-.002-2.426 1.965 0 1.786.663 2.117 2.831 2.117 1.7 0 2.3-.057 3-2.3.14-.442.476-1.793.679-4.061.128-1.434-.121-5.763-.32-6.855m-11.347.315h1.46c.083 0 .15-.07.15-.155 0 0-.017-1.288-.017-1.646v-.004c0-.294.06-.55.164-.765l.05-.096c-.006 0-.01.003-.017.009L1.255 3.335a.034.034 0 0 0-.01.017l.15-.075a2.12 2.12 0 0 1 .903-.178" fill="#333"/></svg>