<svg width="16" height="16" viewBox="0 0 16 16" xmlns="http://www.w3.org/2000/svg"><path d="M13 0a2.89 2.89 0 0 1 2.12.88A2.89 2.89 0 0 1 16 3v10a2.89 2.89 0 0 1-.88 2.12A2.89 2.89 0 0 1 13 16h-1.958V9.802h2.073l.312-2.417h-2.385V5.844c0-.39.081-.68.244-.875.164-.195.481-.292.954-.292l1.27-.01V2.51c-.437-.062-1.055-.093-1.854-.093-.944 0-1.7.277-2.265.833-.566.556-.85 1.34-.85 2.354v1.781H6.459v2.417h2.084V16H3a2.89 2.89 0 0 1-2.12-.88A2.89 2.89 0 0 1 0 13V3C0 2.174.293 1.467.88.88A2.89 2.89 0 0 1 3 0h10z" fill="#333"/></svg>