<svg width="16" height="16" viewBox="0 0 16 16" xmlns="http://www.w3.org/2000/svg"><path d="M13.348 7.308a96.34 96.34 0 0 0-2.977.709.5.5 0 0 0-.236.825c.066.069.44.445 1.15 1.15C9.347 11.76 6.84 12.74 3.76 12.949L14.823 1.884c-.308 2.239-.794 4.065-1.475 5.424M3.787 8.495l.36.359a.5.5 0 0 0 .707-.708s-.616-.585-.667-.643c.273-.601.578-1.14.946-1.67.006.006.007.015.014.02l1 1a.5.5 0 0 0 .707-.707S5.78 5.078 5.734 5.039c.204-.243.394-.46.62-.685 1.984-1.984 4.61-3.077 7.885-3.3L3.054 12.239c.093-1.361.336-2.61.733-3.744M15.5 0c-4.126 0-7.421 1.214-9.853 3.646-2.39 2.39-3.596 5.615-3.638 9.639l-1.862 1.86a.5.5 0 0 0 .707.708l1.862-1.861c4.023-.042 7.249-1.25 9.638-3.638a.501.501 0 0 0-.001-.71c-.355-.351-.648-.644-.88-.874.59-.142 1.365-.321 2.322-.538a.501.501 0 0 0 .332-.253c.95-1.788 1.57-4.264 1.87-7.432A.5.5 0 0 0 15.5 0" fill-rule="evenodd"/></svg>