<svg width="16" height="16" viewBox="0 0 16 16" xmlns="http://www.w3.org/2000/svg"><path d="M6.147 6.854a.5.5 0 0 0 .707-.707l-1.83-1.83c.198-.23.406-.454.623-.671C8.079 1.214 11.374 0 15.5 0c.295 0 .5.207.498.5a.503.503 0 0 1-.148.362L.854 15.854a.5.5 0 0 1-.707-.708l1.86-1.861c.023-2.072.354-3.932.996-5.576l1.144 1.145a.5.5 0 0 0 .707-.707l-1.42-1.42c.283-.567.605-1.106.97-1.616l1.743 1.743zm9.638-4.532c-.342 2.333-.893 4.218-1.658 5.657a.501.501 0 0 1-.332.253c-.957.217-1.731.396-2.321.538l.879.875a.501.501 0 0 1 0 .709c-2.09 2.09-4.822 3.276-8.167 3.568l11.599-11.6z" fill-rule="evenodd"/></svg>