<svg width="16" height="16" viewBox="0 0 16 16" xmlns="http://www.w3.org/2000/svg"><path d="M9.989 15.5c0 .276-.222.5-.495.5A.497.497 0 0 1 9 15.5V1.25C9 .56 9.553 0 10.236 0c.652 0 1.236.41 1.465 1.027l2.205 5.946c.062.169.094.347.094.527 0 .828-.664 1.5-1.483 1.5H9.989v6.5zM12.517 8a.497.497 0 0 0 .463-.676l-2.205-5.946a.576.576 0 0 0-.54-.378.249.249 0 0 0-.246.25V8h2.528zM5 7.95v7.55a.5.5 0 1 1-1 0V7.95A2.5 2.5 0 0 1 2 5.5v-5a.5.5 0 0 1 1 0v5a1.5 1.5 0 0 0 3 0v-5a.5.5 0 0 1 1 0v5a2.5 2.5 0 0 1-2 2.45zM4 .5a.5.5 0 0 1 1 0v5a.5.5 0 0 1-1 0v-5z"/></svg>