<svg width="16" height="16" viewBox="0 0 16 16" xmlns="http://www.w3.org/2000/svg"><path d="M9.98 8.116c0 .946-.202 1.788-.605 2.527a4.315 4.315 0 0 1-1.722 1.733c-.746.416-1.6.624-2.563.624-.69 0-1.35-.132-1.979-.396a5.105 5.105 0 0 1-1.625-1.064A5.002 5.002 0 0 1 .403 9.944 4.83 4.83 0 0 1 0 8c0-.678.134-1.326.403-1.944.268-.619.63-1.15 1.083-1.596.454-.446.995-.8 1.625-1.064A5.072 5.072 0 0 1 5.091 3c1.323 0 2.46.437 3.409 1.31L7.118 5.613c-.542-.514-1.218-.771-2.028-.771-.57 0-1.096.14-1.58.423a3.138 3.138 0 0 0-1.149 1.15A3.093 3.093 0 0 0 1.938 8a3.155 3.155 0 0 0 3.153 3.158 3.41 3.41 0 0 0 1.058-.157 2.68 2.68 0 0 0 .795-.392 2.87 2.87 0 0 0 .546-.535c.155-.2.268-.39.34-.566.072-.178.121-.346.15-.505H5.09v-1.72h4.806c.055.287.083.565.083.833zM16 7.284v1.432h-1.451v1.426H13.09V8.716h-1.45V7.284h1.451V5.858h1.459v1.426H16z" fill="#333"/></svg>