<svg width="16" height="16" viewBox="0 0 16 16" xmlns="http://www.w3.org/2000/svg"><path d="M9.552 8.094c0-.18-.02-.403-.062-.667H5.719v1.375h2.26a1.52 1.52 0 0 1-.172.52 2.75 2.75 0 0 1-.39.553 1.85 1.85 0 0 1-.693.464 2.62 2.62 0 0 1-1.005.182 2.382 2.382 0 0 1-1.76-.74A2.446 2.446 0 0 1 3.228 8c0-.694.243-1.288.73-1.781a2.382 2.382 0 0 1 1.76-.74c.639 0 1.17.205 1.593.615l1.084-1.052C7.646 4.347 6.753 4 5.719 4c-1.111 0-2.056.39-2.834 1.172C2.108 5.953 1.72 6.896 1.72 8c0 1.104.389 2.047 1.166 2.828C3.663 11.61 4.608 12 5.72 12c1.146 0 2.07-.365 2.776-1.094.705-.729 1.057-1.666 1.057-2.812zm3.594.479h1.135V7.427h-1.135V6.281H12v1.146h-1.146v1.146H12v1.146h1.146V8.573zM16 3v10a2.89 2.89 0 0 1-.88 2.12A2.89 2.89 0 0 1 13 16H3a2.89 2.89 0 0 1-2.12-.88A2.89 2.89 0 0 1 0 13V3C0 2.174.293 1.467.88.88A2.89 2.89 0 0 1 3 0h10a2.89 2.89 0 0 1 2.12.88A2.89 2.89 0 0 1 16 3z" fill="#333"/></svg>