<svg viewBox="0 0 16 16" xmlns="http://www.w3.org/2000/svg"><path d="M5.15 4.543l3.393-3.394a.503.503 0 01.71 0l.444.446-4.102 4.103-.446-.446a.5.5 0 010-.71zm9.7 2.914l-3.393 3.394a.5.5 0 01-.709 0l-.446-.446 4.102-4.103.446.447a.5.5 0 010 .708zM6.302 6.405l4.102-4.103 3.293 3.293-4.102 4.103-3.293-3.293zM.146 15.854a.5.5 0 00.707 0l6.74-6.74 2.446 2.446a1.505 1.505 0 002.127 0l3.393-3.394a1.502 1.502 0 000-2.126L9.96.44a1.505 1.505 0 00-2.126 0L4.44 3.835a1.502 1.502 0 000 2.125l2.446 2.447-6.74 6.74a.5.5 0 000 .707z" fill-rule="evenodd"/></svg>