<svg width="16" height="16" viewBox="0 0 16 16" xmlns="http://www.w3.org/2000/svg"><path d="M5.079 8.88a.75.75 0 0 1 .842 1.24l-4.307 2.923a.25.25 0 0 0 .14.457h12.498a.25.25 0 0 0 .136-.46L8.275 9.073A2.25 2.25 0 0 1 7.25 7.185V7c0-.787.347-1.245 1.153-1.923l.115-.096c.57-.477.732-.693.732-.981a1.25 1.25 0 1 0-2.5 0 .75.75 0 0 1-1.5 0 2.75 2.75 0 0 1 5.5 0c0 .884-.375 1.382-1.268 2.13l-.114.096c-.481.404-.618.585-.618.774v.185c0 .254.129.491.342.63l6.113 3.967A1.75 1.75 0 0 1 14.252 15H1.755a1.75 1.75 0 0 1-.983-3.198l4.307-2.923z"/></svg>