<svg width="16" height="16" viewBox="0 0 16 16" xmlns="http://www.w3.org/2000/svg"><path d="M1 6c0-2.207 1.784-4 4-4 .818 0 1.668.479 2.667 1.373.19.17.477.17.666 0C9.333 2.479 10.181 2 11 2c2.215 0 4 1.793 4 4 0 .338-.034.67-.1 1h-2.693l-1.353-1.353a.5.5 0 0 0-.76.063L7.99 8.654 6.9 7.2a.5.5 0 0 0-.4-.2h-2a.5.5 0 0 0 0 1h1.75L7.6 9.8a.5.5 0 0 0 .807-.01l2.157-3.02 1.082 1.084A.504.504 0 0 0 12 8h2.59c-.83 1.979-2.948 3.938-6.59 6.398C3.14 11.115 1 8.736 1 6zm7-3.661C6.966 1.476 6.023.999 5 .999a4.996 4.996 0 0 0-5 5c0 3.25 2.395 5.856 7.722 9.417a.502.502 0 0 0 .556 0C13.598 11.86 16 9.245 16 6c0-2.76-2.232-5-5-5-1.024 0-1.966.476-3 1.339z" fill-rule="evenodd"/></svg>