<svg width="16" height="16" viewBox="0 0 16 16" xmlns="http://www.w3.org/2000/svg"><path d="M8 2.339C6.966 1.477 6.023 1 4.999 1A4.996 4.996 0 0 0 0 6c0 3.25 2.394 5.854 7.722 9.416a.502.502 0 0 0 .556 0c4.188-2.8 6.568-5.017 7.391-7.416H12a.5.5 0 0 1-.354-.146l-1.082-1.083-2.158 3.02A.499.499 0 0 1 7.6 9.8L6.25 8H4.5a.5.5 0 0 1 0-1h2a.5.5 0 0 1 .4.201l1.091 1.452 2.102-2.944a.5.5 0 0 1 .76-.063L12.207 7h3.713c.053-.328.08-.66.08-1 0-2.759-2.231-5-5-5-1.024 0-1.966.476-3 1.339z" fill-rule="evenodd"/></svg>