<svg width="16" height="16" viewBox="0 0 16 16" xmlns="http://www.w3.org/2000/svg" xmlns:xlink="http://www.w3.org/1999/xlink"><defs><path d="M7.688.109L.188 6.11a.5.5 0 10.625.781L1 6.741V13.5A2.5 2.5 0 003.5 16h9a2.5 2.5 0 002.5-2.5V6.741l.187.15a.5.5 0 00.625-.781L8.312.109a.496.496 0 00-.624 0zM7 10.5A1.5 1.5 0 018.5 9h2a1.5 1.5 0 011.5 1.5V16H7v-5.5zm-4 1.001v-1A.5.5 0 013.5 10h1a.5.5 0 01.5.501v1a.5.5 0 01-.5.499h-1a.5.5 0 01-.5-.499zM8.5 10a.5.5 0 00-.5.5V16h3v-5.5a.5.5 0 00-.5-.5h-2z" id="a"/></defs><use xlink:href="#a" fill-rule="evenodd"/></svg>