<svg viewBox="0 0 16 16" xmlns="http://www.w3.org/2000/svg" xmlns:xlink="http://www.w3.org/1999/xlink"><defs><path d="M5.541 1a3.5 3.5 0 00-3.452 2.924l-.544 3.265A2.5 2.5 0 000 9.5v3A1.5 1.5 0 001.5 14H2v.5a1.5 1.5 0 103 0V14h6v.5a1.5 1.5 0 103 0V14h.5a1.5 1.5 0 001.5-1.5v-3a2.5 2.5 0 00-1.545-2.311l-.544-3.265A3.5 3.5 0 0010.459 1H5.541zM3.075 4.089A2.5 2.5 0 015.541 2h4.918a2.5 2.5 0 012.466 2.089L13.41 7H2.59l.485-2.911zM11 10.5a1.5 1.5 0 112.999-.001A1.5 1.5 0 0111 10.5zm-9 0a1.5 1.5 0 112.999-.001A1.5 1.5 0 012 10.5zm10 4V14h1v.5a.5.5 0 11-1 0zm-9 0V14h1v.5a.5.5 0 11-1 0z" id="svgicon-a"/></defs><use xlink:href="#svgicon-a" fill-rule="evenodd"/></svg>