<svg width="16" height="16" viewBox="0 0 16 16" xmlns="http://www.w3.org/2000/svg" xmlns:xlink="http://www.w3.org/1999/xlink"><defs><path d="M5.541 1a3.5 3.5 0 0 0-3.452 2.924l-.544 3.265A2.5 2.5 0 0 0 0 9.5v3A1.5 1.5 0 0 0 1.5 14H2v.5a1.5 1.5 0 1 0 3 0V14h6v.5a1.5 1.5 0 1 0 3 0V14h.5a1.5 1.5 0 0 0 1.5-1.5v-3a2.5 2.5 0 0 0-1.545-2.311l-.544-3.265A3.5 3.5 0 0 0 10.459 1H5.541zM3.075 4.089A2.5 2.5 0 0 1 5.541 2h4.918a2.5 2.5 0 0 1 2.466 2.089L13.41 7H2.59l.485-2.911zM11 10.5a1.5 1.5 0 1 1 2.999-.001A1.5 1.5 0 0 1 11 10.5zm-9 0a1.5 1.5 0 1 1 2.999-.001A1.5 1.5 0 0 1 2 10.5zm10 4V14h1v.5a.5.5 0 1 1-1 0zm-9 0V14h1v.5a.5.5 0 1 1-1 0z" id="a"/></defs><use xlink:href="#a" fill-rule="evenodd"/></svg>