<svg width="16" height="16" viewBox="0 0 16 16" xmlns="http://www.w3.org/2000/svg"><path d="M1 13.5v-2.913l2.674 2.292a.501.501 0 00.68-.025l6.666-6.667L15 9.725V13.5a1.5 1.5 0 01-1.5 1.5h-11A1.5 1.5 0 011 13.5zM2.5 1h11A1.5 1.5 0 0115 2.5v5.887l-3.668-3.261a.5.5 0 00-.686.02l-6.672 6.673L1 9.27V2.5A1.5 1.5 0 012.5 1zm11 15a2.5 2.5 0 002.5-2.5v-11A2.5 2.5 0 0013.5 0h-11A2.5 2.5 0 000 2.5v11A2.5 2.5 0 002.5 16h11zM5 4a1 1 0 110 2 1 1 0 010-2m0 3a2 2 0 100-4.001A2 2 0 005 7" fill-rule="evenodd"/></svg>