<svg width="16" height="16" viewBox="0 0 16 16" xmlns="http://www.w3.org/2000/svg"><path d="M6.36 14.8a6.984 6.984 0 0 1-3.552-2.105c.7-.26 1.577-.44 2.594-.555.231 1.082.556 1.994.958 2.66zM1 8h4c0 1.123.078 2.19.222 3.16-1.2.14-2.233.368-3.054.713A6.963 6.963 0 0 1 1 8zm4.222-3.16A20.58 20.58 0 0 0 5.023 7H1.07a6.98 6.98 0 0 1 1.098-2.873c.821.345 1.854.574 3.054.713zm.18-.98c-1.017-.115-1.894-.296-2.594-.555A6.998 6.998 0 0 1 6.36 1.199c-.402.666-.727 1.578-.958 2.66zM9.64 1.2a7.005 7.005 0 0 1 3.553 2.104c-.7.26-1.578.44-2.595.556-.23-1.083-.555-1.994-.958-2.66zM14.93 7h-3.953a20.58 20.58 0 0 0-.199-2.16c1.2-.14 2.233-.369 3.055-.713A6.979 6.979 0 0 1 14.93 7zm-4.152 4.16C10.922 10.19 11 9.122 11 8h4a6.97 6.97 0 0 1-1.168 3.873c-.822-.345-1.855-.573-3.055-.713zm-.18.98c1.017.114 1.894.294 2.595.555A6.99 6.99 0 0 1 9.64 14.8c.403-.666.727-1.578.958-2.66zm-.826-7.195c.098.637.168 1.327.202 2.054H6.026a19.58 19.58 0 0 1 .202-2.053A27.47 27.47 0 0 0 8 5a28.2 28.2 0 0 0 1.771-.054zm-.182-.99A26.52 26.52 0 0 1 8 3.998c-.56 0-1.09-.014-1.589-.045C6.802 2.168 7.417 1 8.001 1c.582 0 1.196 1.17 1.588 2.955zM10 7.998c0 1.099-.086 2.131-.229 3.056a26.733 26.733 0 0 0-1.77-.056c-.627 0-1.217.018-1.773.056A20.238 20.238 0 0 1 6 8h4zm-2 4c.561 0 1.09.016 1.59.046C9.196 13.832 8.582 15 8 15c-.583 0-1.198-1.168-1.589-2.954.498-.03 1.028-.046 1.59-.046zM8 0a8 8 0 0 0-8 8 8 8 0 0 0 8 8A8 8 0 1 0 8 0z" fill-rule="evenodd"/></svg>