<svg width="16" height="16" viewBox="0 0 16 16" xmlns="http://www.w3.org/2000/svg"><path d="M10.716 10H5.285a.2.2 0 0 1-.203-.181A19.908 19.908 0 0 1 5 7.999c0-.633.029-1.241.082-1.818A.2.2 0 0 1 5.285 6h5.43c.105 0 .194.077.204.18.053.578.08 1.186.08 1.82 0 .634-.027 1.242-.08 1.819a.202.202 0 0 1-.203.18zm-.185 1c.125 0 .22.119.2.242C10.219 14.152 9.064 16 8 16c-1.064 0-2.22-1.847-2.73-4.758a.207.207 0 0 1 .2-.242h5.06zm5.055-1h-3.462a.193.193 0 0 1-.196-.21A21.54 21.54 0 0 0 12 8c0-.616-.025-1.214-.073-1.79a.193.193 0 0 1 .196-.21h3.462c.095 0 .179.064.2.156a8.057 8.057 0 0 1 0 3.688.206.206 0 0 1-.2.156zm-.292 1.288a8.027 8.027 0 0 1-4.631 4.249c-.172.06-.332-.136-.24-.291.61-1.014 1.078-2.416 1.34-4.076a.2.2 0 0 1 .195-.17h3.147c.146 0 .25.155.189.288zM3.877 10H.414a.205.205 0 0 1-.2-.156A8.002 8.002 0 0 1 0 8c0-.635.074-1.252.214-1.844A.205.205 0 0 1 .414 6h3.463c.116 0 .206.095.196.21A21.577 21.577 0 0 0 4 8c0 .617.025 1.215.073 1.79.01.115-.08.21-.196.21zm.36 1.17c.263 1.66.729 3.062 1.339 4.076.094.155-.067.352-.238.29a8.032 8.032 0 0 1-4.632-4.248C.646 11.155.75 11 .895 11h3.148c.097 0 .179.073.194.17zM10.53 5H5.47a.207.207 0 0 1-.2-.241C5.78 1.847 6.936-.001 8-.001s2.219 1.848 2.73 4.76a.207.207 0 0 1-.2.24zm4.574 0h-3.147a.199.199 0 0 1-.195-.17c-.262-1.66-.73-3.062-1.34-4.076-.092-.155.068-.351.24-.291a8.027 8.027 0 0 1 4.63 4.249c.062.133-.042.288-.188.288zM.895 5c-.145 0-.25-.155-.19-.288A8.032 8.032 0 0 1 5.339.462c.17-.06.332.137.238.292C4.966 1.768 4.5 3.17 4.238 4.83a.2.2 0 0 1-.195.17H.895z" fill-rule="evenodd"/></svg>