<svg viewBox="0 0 24 24" xmlns="http://www.w3.org/2000/svg"><g fill="#FF5000"><path d="M10.621 13.138c.109-.006 7.7-.626 8.206-.545.505.08 2.527.02 2.628.808.099.778 0 1.536 0 1.536s-4.487.788-4.589.89c-.1.1-.464.464-.444 1.01.02.546.02 2.668.04 2.728.02.06.122.465.89.384.604-.063 1.208-.277 1.438-.365a.14.14 0 00.09-.142l-.041-.546a.141.141 0 00-.169-.128L17.513 19v-2.183l3.75-.68a.133.133 0 01.156.127l.125 3.696s.214.92-1.363 1.243c-1.576.323-5.356 1.273-5.72 1.293-.364.02-.97.02-1.597-.141-.442-.114-.985-.32-1.266-.43a.157.157 0 01-.069-.239l1.379-1.874a.4.4 0 00.078-.236v-2.068a.415.415 0 00-.115-.286L9.92 14.12a.372.372 0 01-.099-.313c.037-.245.193-.633.8-.669z"/><path d="M8.623 14.407a.332.332 0 00-.19-.098l-5.303-.777a.36.36 0 00-.22.026c-.23.107-.737.426-.9 1.213V21s.076 1.243 1.79 1.82c1.713.575 3.804 1.09 3.804 1.09s1.168.228 1.637-.727c.47-.955 2.714-3.684 2.714-3.684v-1.652l-3.332-3.441zM7.24 21.834c-.546-.015-2.77-.32-3.472-.955-.636-.576-.318-5.108-.318-5.108s.011-.525.318-.47l3.532.636s.44.258.44.622v4.896s.045.394-.5.38zM22.33 7.343c0-2.42-1.868-4.381-4.172-4.381-1.315 0-2.486.638-3.251 1.636-.61-2.64-2.8-4.593-5.408-4.593-3.081 0-5.578 2.725-5.578 6.087 0 3.361 2.497 6.086 5.578 6.086.162 0 .322-.01.481-.025l8.335-.434a4.21 4.21 0 00.11-.006l.116-.006-.003-.003c2.126-.202 3.792-2.077 3.792-4.361zM10.565 9.51c-1.56 0-2.823-1.454-2.823-3.249 0-1.794 1.264-3.249 2.823-3.249s2.823 1.455 2.823 3.25c0 1.794-1.264 3.248-2.823 3.248zm8.257-.151c-1.028 0-1.862-.96-1.862-2.143 0-1.183.834-2.142 1.862-2.142s1.861.959 1.861 2.142c0 1.183-.833 2.143-1.861 2.143z"/></g></svg>