<svg width="16" height="16" viewBox="0 0 16 16" xmlns="http://www.w3.org/2000/svg"><path d="M7.325 1c-1.4 0-2.222.17-3.014.594a4.201 4.201 0 0 0-1.717 1.717C2.17 4.103 2 4.924 2 6.325v1.35c0 1.4.17 2.223.594 3.016a4.216 4.216 0 0 0 1.728 1.722c.79.419 1.608.587 3.003.587h1.35c1.4 0 2.223-.17 3.015-.593a4.201 4.201 0 0 0 1.717-1.717c.423-.792.593-1.615.593-3.015v-1.35c0-1.394-.169-2.214-.587-3.003a4.216 4.216 0 0 0-1.722-1.728C10.898 1.17 10.075 1 8.675 1h-1.35zm0 13c-.884 0-1.585-.065-2.205-.218a.096.096 0 0 0-.12.095v.623A1.5 1.5 0 0 0 6.5 16h3a1.5 1.5 0 0 0 1.5-1.5v-.623a.097.097 0 0 0-.12-.095c-.62.153-1.323.218-2.205.218h-1.35z" fill-rule="evenodd"/></svg>