<svg width="16" height="16" viewBox="0 0 16 16" xmlns="http://www.w3.org/2000/svg"><path d="M3.635 5.874V16H.198V5.874h3.437zm.22-3.127c.006.498-.17.913-.527 1.247-.358.334-.828.5-1.411.5h-.021c-.57 0-1.028-.166-1.375-.5A1.659 1.659 0 0 1 0 2.747c0-.504.179-.921.536-1.251C.894 1.166 1.361 1 1.937 1c.577 0 1.039.165 1.386.496.347.33.524.747.531 1.251zM16 10.197V16h-3.427v-5.416c0-.715-.14-1.275-.422-1.68-.281-.406-.72-.608-1.318-.608-.437 0-.803.117-1.099.352a2.177 2.177 0 0 0-.661.874c-.076.204-.115.48-.115.827V16H5.531c.014-2.718.021-4.922.021-6.611 0-1.69-.003-2.698-.01-3.025l-.01-.49h3.426v1.471h-.02c.138-.218.28-.408.427-.572a4.41 4.41 0 0 1 .588-.531c.247-.19.549-.34.906-.445a4.204 4.204 0 0 1 1.193-.158c1.188 0 2.142.387 2.865 1.16.722.773 1.083 1.905 1.083 3.397z" fill="#333"/></svg>