<svg width="16" height="16" viewBox="0 0 16 16" xmlns="http://www.w3.org/2000/svg"><path d="M2.469 13.396h2.406v-7.23H2.469v7.23zM5.03 3.937a1.231 1.231 0 0 0-.375-.895c-.243-.236-.566-.355-.969-.355-.402 0-.73.119-.984.355-.253.236-.38.534-.38.895 0 .355.123.652.37.891.246.24.567.36.963.36h.01c.41 0 .74-.12.99-.36s.375-.536.375-.89zm6.094 9.459h2.406V9.25c0-1.07-.253-1.878-.76-2.427C12.264 6.274 11.594 6 10.76 6c-.945 0-1.67.406-2.178 1.219h.021V6.167H6.198c.02.458.02 2.868 0 7.229h2.406V9.354c0-.264.024-.458.073-.583a1.6 1.6 0 0 1 .469-.62c.208-.17.465-.255.77-.255.806 0 1.209.545 1.209 1.635v3.865zM16 3v10a2.89 2.89 0 0 1-.88 2.12A2.89 2.89 0 0 1 13 16H3a2.89 2.89 0 0 1-2.12-.88A2.89 2.89 0 0 1 0 13V3C0 2.174.293 1.467.88.88A2.89 2.89 0 0 1 3 0h10a2.89 2.89 0 0 1 2.12.88A2.89 2.89 0 0 1 16 3z" fill="#333"/></svg>