<svg width="16" height="16" viewBox="0 0 16 16" xmlns="http://www.w3.org/2000/svg"><path d="M12.28 4.78a.75.75 0 0 1-1.06-1.06l2.5-2.5a.75.75 0 0 1 1.06 1.06l-2.5 2.5zm-1.06 4.5a.75.75 0 0 1 1.06-1.06l2.5 2.5a.75.75 0 0 1-1.06 1.06l-2.5-2.5zM7.782 3.718a.75.75 0 1 1-1.06 1.06l-2.5-2.5a.75.75 0 0 1 1.06-1.06l2.5 2.5zM6.72 8.22a.75.75 0 1 1 1.062 1.06l-6.5 6.505a.75.75 0 1 1-1.062-1.06l6.5-6.505zm3.531-4.973a.75.75 0 0 1-1.5 0V.751a.75.75 0 0 1 1.5 0v2.496zm2.5 4.003a.75.75 0 1 1 0-1.5h2.499a.75.75 0 1 1 0 1.5h-2.5zm-4 2.498a.75.75 0 0 1 1.5 0v2.505a.75.75 0 0 1-1.5 0V9.748zM6.248 5.75a.75.75 0 1 1 0 1.5H3.755a.75.75 0 1 1 0-1.5h2.493z"/></svg>