<svg width="16" height="16" viewBox="0 0 16 16" xmlns="http://www.w3.org/2000/svg"><path d="M5.33 3.613v10.833a.674.674 0 0 1-.111.392.371.371 0 0 1-.326.162.634.634 0 0 1-.295-.074L.446 12.774a.77.77 0 0 1-.317-.309.834.834 0 0 1-.129-.43V1.509c0-.123.03-.228.09-.314a.295.295 0 0 1 .258-.13c.084 0 .215.047.393.14l4.563 2.363c.017.019.026.034.026.046zm.572.933l4.768 7.998-4.768-2.457v-5.54zM16 4.712v9.734a.548.548 0 0 1-.125.374.427.427 0 0 1-.34.143.822.822 0 0 1-.419-.12l-3.937-2.032L16 4.712zm-.027-1.108c0 .019-.763 1.31-2.29 3.874A3333.834 3333.834 0 0 1 11 11.98L7.518 6.125 10.41 1.26a.502.502 0 0 1 .465-.26c.083 0 .16.018.232.055l4.83 2.494c.024.012.036.03.036.055z" fill="#333"/></svg>