<svg width="16" height="16" viewBox="0 0 16 16" xmlns="http://www.w3.org/2000/svg"><path d="M14 8.999v-2a1 1 0 0 1 0 2zm-1 3.5a.5.5 0 0 1-.66.473L4 10.154v-4.31l8.34-2.817A.501.501 0 0 1 13 3.5v8.998zm-8.045 1.21A.5.5 0 0 1 4 13.5v-2.292l1.816.614-.861 1.886zM2.081 9.505a1.59 1.59 0 0 1 0-3.012L3 6.182v3.634l-.919-.311zM12.02 2.08L1.761 5.545a2.59 2.59 0 0 0 0 4.908L3 10.872V13.5a1.5 1.5 0 0 0 2.864.623l.905-1.98 5.251 1.775a1.5 1.5 0 0 0 1.98-1.42v-2.5a2 2 0 0 0 0-4V3.5a1.5 1.5 0 0 0-1.98-1.421z" fill-rule="evenodd"/></svg>