<svg width="16" height="16" viewBox="0 0 16 16" xmlns="http://www.w3.org/2000/svg"><path d="M8 1a7 7 0 1 1 0 14A7 7 0 0 1 8 1zm0-1a8 8 0 1 0 0 16A8 8 0 0 0 8 0zm-.437 7.285C6.483 6.79 6 6.187 6 5.5c0-.748.775-1.446 1.862-1.501l-.299 3.286zm.874 1.43C9.517 9.21 10 9.813 10 10.5c0 .745-.776 1.441-1.861 1.496l.298-3.281zm.095-1.047l.329-3.617c.589.089 1.002.293 1.192.672a.499.499 0 1 0 .894-.447c-.299-.597-.856-.957-1.575-1.138a4.225 4.225 0 0 0-.42-.085l.046-.508a.5.5 0 0 0-.996-.09l-.049.541C6.295 3.017 5 4.145 5 5.5c0 1.211.843 2.171 2.468 2.832l-.329 3.614c-.592-.087-1.002-.29-1.192-.67a.5.5 0 1 0-.894.447c.299.599.856.957 1.575 1.137.144.036.282.064.42.084l-.046.511a.5.5 0 0 0 .996.09L8.047 13C9.703 12.978 11 11.853 11 10.5c0-1.212-.843-2.171-2.468-2.832z" fill-rule="evenodd"/></svg>