<svg width="16" height="16" viewBox="0 0 16 16" xmlns="http://www.w3.org/2000/svg"><path d="M12.07 1.206C11.36.362 10.075 0 8.432 0H3.665a.693.693 0 0 0-.675.6L1.005 13.731a.422.422 0 0 0 .405.494h2.943l.74-4.89-.024.153a.69.69 0 0 1 .672-.6H7.14c2.748 0 4.899-1.165 5.527-4.532.02-.1.05-.291.05-.291.178-1.246-.002-2.092-.647-2.859zm1.391 3.497c-.683 3.315-2.863 5.07-6.321 5.07H5.886L4.95 16h2.034a.605.605 0 0 0 .59-.525l.024-.132.468-3.091.03-.17a.605.605 0 0 1 .59-.526h.37c2.404 0 4.286-1.019 4.836-3.964.22-1.182.115-2.173-.43-2.89z" fill="#333"/></svg>