<svg width="16" height="16" viewBox="0 0 16 16" xmlns="http://www.w3.org/2000/svg" xmlns:xlink="http://www.w3.org/1999/xlink"><defs><path d="M10.307 2.6l2.965 2.965a.5.5 0 0 0 .688.02l.213-.192c.048-.044.048-.044.095-.09a2.47 2.47 0 0 0 0-3.51A2.717 2.717 0 0 0 12.346 1a2.72 2.72 0 0 0-1.818.694l-.2.18a.5.5 0 0 0-.02.726zM2.16 9.186a.488.488 0 0 0-.15.247l-.994 3.952a.496.496 0 0 0 .603.6l3.974-.99a.487.487 0 0 0 .211-.11l6.663-5.965a.5.5 0 0 0 .02-.726L9.522 3.23a.5.5 0 0 0-.688-.02L2.16 9.187zM.5 15a.5.5 0 0 0 0 1h15a.5.5 0 0 0 0-1H.5z" id="a"/></defs><use xlink:href="#a" fill-rule="evenodd"/></svg>