<svg width="16" height="16" viewBox="0 0 16 16" xmlns="http://www.w3.org/2000/svg"><path d="M2.936 9.82l.06-.055 2.276 2.265-.042.038-3.05.758.756-3.007zm10.63-7.33a1.489 1.489 0 0 1 0 2.114l-.058.054-.697.625-2.277-2.265.659-.59a1.732 1.732 0 0 1 2.373.062zm-7.554 8.878L3.736 9.103 9.793 3.68l2.279 2.265-6.06 5.423zm-.42 1.628a.489.489 0 0 0 .212-.112l8.368-7.49c.05-.045.05-.045.096-.09a2.473 2.473 0 0 0 0-3.512 2.73 2.73 0 0 0-3.74-.098l-8.37 7.491a.491.491 0 0 0-.15.248l-.994 3.952a.496.496 0 0 0 .603.6l3.974-.989zM0 15.5a.5.5 0 0 0 .5.5h15a.5.5 0 0 0 0-1H.5a.5.5 0 0 0-.5.5" fill-rule="evenodd"/></svg>