<svg width="16" height="16" viewBox="0 0 16 16" xmlns="http://www.w3.org/2000/svg"><path d="M4.5 3h7A1.5 1.5 0 0 1 13 4.5v7a1.5 1.5 0 0 1-1.5 1.5h-7A1.5 1.5 0 0 1 3 11.5v-7A1.5 1.5 0 0 1 4.5 3zm-4 8a.5.5 0 0 0 0 1h1.55A2.505 2.505 0 0 0 4 13.95v1.55a.5.5 0 0 0 1 0V14h1v1.5a.5.5 0 0 0 1 0V14h2v1.5a.5.5 0 0 0 1 0V14h1v1.5a.5.5 0 0 0 1 0v-1.55A2.505 2.505 0 0 0 13.95 12h1.55a.5.5 0 0 0 0-1H14v-1h1.5a.5.5 0 0 0 0-1H14V7h1.5a.5.5 0 0 0 0-1H14V5h1.5a.5.5 0 0 0 0-1h-1.55A2.504 2.504 0 0 0 12 2.05V.5a.5.5 0 0 0-1 0V2h-1V.5a.5.5 0 0 0-1 0V2H7V.5a.5.5 0 0 0-1 0V2H5V.5a.5.5 0 0 0-1 0v1.55A2.504 2.504 0 0 0 2.05 4H.5a.5.5 0 0 0 0 1H2v1H.5a.5.5 0 0 0 0 1H2v2H.5a.5.5 0 0 0 0 1H2v1H.5zM6 6h2.793L10 7.207V10H6V6zm-.5 5h5a.5.5 0 0 0 .5-.5V7a.505.505 0 0 0-.146-.354l-1.5-1.5A.504.504 0 0 0 9 5H5.5a.5.5 0 0 0-.5.5v5a.5.5 0 0 0 .5.5z" fill-rule="evenodd"/></svg>