<svg width="16" height="16" viewBox="0 0 16 16" xmlns="http://www.w3.org/2000/svg"><path d="M11.184 9.896a1.499 1.499 0 0 1 1.61.097l2.587 1.879a1.5 1.5 0 0 1 .07 2.376l-1.725 1.412a1.499 1.499 0 0 1-1.451.254c-2.37-.841-4.744-2.35-7.126-4.521C2.715 9.174 1.022 6.612.074 3.71a1.502 1.502 0 0 1 .269-1.42L1.78.546a1.5 1.5 0 0 1 2.374.077l1.863 2.584c.342.475.377 1.106.09 1.615l-.833 1.479c.419.612 1.083 1.375 1.99 2.283.923.923 1.73 1.64 2.417 2.149l1.503-.837zM1.024 3.4c.893 2.733 2.49 5.15 4.798 7.253 2.289 2.087 4.552 3.524 6.787 4.318a.5.5 0 0 0 .484-.085l1.724-1.412a.5.5 0 0 0-.023-.792l-2.587-1.88a.5.5 0 0 0-.537-.032l-1.78.991a.5.5 0 0 1-.528-.026c-.795-.552-1.728-1.366-2.805-2.444C5.475 8.208 4.712 7.31 4.264 6.582a.5.5 0 0 1-.01-.508l.982-1.743a.5.5 0 0 0-.03-.538L3.343 1.208a.5.5 0 0 0-.791-.025L1.114 2.926a.5.5 0 0 0-.09.474z"/></svg>