<svg width="16" height="16" viewBox="0 0 16 16" xmlns="http://www.w3.org/2000/svg"><path d="M2 5.74c0-.692.117-1.344.352-1.956a5.04 5.04 0 0 1 .97-1.601A6.619 6.619 0 0 1 6.482.25 7.25 7.25 0 0 1 8.374 0c.987 0 1.906.213 2.756.64a5.248 5.248 0 0 1 2.072 1.86c.531.814.797 1.734.797 2.76 0 .615-.06 1.218-.178 1.807a7.432 7.432 0 0 1-.563 1.702 5.942 5.942 0 0 1-.937 1.438 4.071 4.071 0 0 1-1.36.99 4.195 4.195 0 0 1-1.771.37c-.425 0-.847-.102-1.266-.307-.419-.206-.719-.488-.9-.847-.062.25-.15.611-.263 1.082-.112.471-.185.776-.22.914-.034.137-.098.365-.192.682a4.606 4.606 0 0 1-.244.683l-.3.601a6.853 6.853 0 0 1-.431.745c-.156.234-.35.511-.581.832L4.662 16l-.084-.096c-.094-1.007-.14-1.61-.14-1.808 0-.59.067-1.251.201-1.985.134-.734.342-1.656.624-2.765.28-1.109.443-1.76.487-1.952-.2-.416-.3-.958-.3-1.625 0-.532.163-1.032.488-1.5.325-.468.737-.702 1.237-.702.381 0 .678.13.89.39.213.26.32.588.32.985 0 .423-.138 1.036-.413 1.837-.275.801-.413 1.4-.413 1.798 0 .404.141.739.422 1.005.282.266.622.399 1.022.399.344 0 .663-.08.956-.24.294-.16.54-.379.736-.654a5.56 5.56 0 0 0 .525-.914 5.39 5.39 0 0 0 .357-1.062c.084-.375.146-.731.187-1.068.04-.336.061-.655.061-.956 0-1.11-.342-1.973-1.027-2.592-.684-.618-1.576-.928-2.676-.928-1.25 0-2.294.415-3.131 1.246-.838.83-1.257 1.883-1.257 3.158 0 .282.04.555.118.817.078.263.162.472.253.625.09.154.175.3.253.438.078.138.117.236.117.293 0 .18-.047.414-.14.702-.094.289-.21.433-.348.433-.012 0-.065-.01-.159-.029a1.91 1.91 0 0 1-.848-.538 2.812 2.812 0 0 1-.572-.91 6.039 6.039 0 0 1-.305-1.038A5.297 5.297 0 0 1 2 5.74z" fill="#333"/></svg>