<svg width="16" height="16" viewBox="0 0 16 16" xmlns="http://www.w3.org/2000/svg"><path d="M13 0a2.89 2.89 0 0 1 2.12.88A2.89 2.89 0 0 1 16 3v10a2.89 2.89 0 0 1-.88 2.12A2.89 2.89 0 0 1 13 16H5.448c.59-.847.965-1.576 1.125-2.188.062-.236.246-.961.552-2.177.146.271.401.504.766.698.364.195.755.292 1.171.292 1.257 0 2.283-.512 3.079-1.536.795-1.025 1.192-2.322 1.192-3.891 0-.583-.121-1.148-.364-1.693a4.697 4.697 0 0 0-1.005-1.448 4.762 4.762 0 0 0-1.589-1.01 5.461 5.461 0 0 0-2.052-.38 6.71 6.71 0 0 0-2.026.297c-.629.197-1.16.463-1.594.796a5.616 5.616 0 0 0-1.12 1.141 4.707 4.707 0 0 0-.692 1.333c-.15.462-.224.922-.224 1.38 0 .709.137 1.334.411 1.876.274.541.679.923 1.214 1.145a.3.3 0 0 0 .244 0c.073-.034.124-.1.151-.198.07-.305.122-.517.157-.635a.452.452 0 0 0-.115-.437c-.347-.431-.52-.952-.52-1.563 0-1.042.359-1.932 1.077-2.672.72-.74 1.658-1.11 2.818-1.11 1.035 0 1.842.282 2.422.845.58.562.87 1.291.87 2.187 0 1.167-.235 2.16-.703 2.98-.469.819-1.071 1.228-1.808 1.228-.416 0-.753-.15-1.01-.453-.257-.302-.337-.661-.24-1.078.056-.236.148-.557.276-.963.129-.407.231-.76.308-1.063.076-.302.114-.56.114-.776 0-.34-.092-.623-.276-.849-.184-.226-.446-.338-.786-.338-.424 0-.783.196-1.078.588-.295.392-.443.877-.443 1.453 0 .5.083.92.25 1.26l-1.02 4.313c-.168.695-.192 1.577-.074 2.646H3a2.89 2.89 0 0 1-2.12-.88A2.89 2.89 0 0 1 0 13V3C0 2.174.293 1.467.88.88A2.89 2.89 0 0 1 3 0h10z" fill="#333"/></svg>