<svg width="16" height="16" viewBox="0 0 16 16" xmlns="http://www.w3.org/2000/svg"><path d="M1.163 5h.587L3.1 6.8a.5.5 0 0 0 .4.2h3a.5.5 0 0 0 .48-.644L5.671 2h.71a.5.5 0 0 1 .447.276l2.224 4.448A.5.5 0 0 0 9.5 7h2c2.07 0 3.5.629 3.5 1 0 .377-1.408 1-3.5 1h-2a.5.5 0 0 0-.447.276L6.83 13.724a.5.5 0 0 1-.447.276h-.71L6.98 9.644A.5.5 0 0 0 6.5 9h-3a.5.5 0 0 0-.4.2L1.75 11h-.587l.818-2.862a.495.495 0 0 0 0-.275L1.163 5zM2 12a.5.5 0 0 0 .4-.2L3.75 10h2.078l-1.307 4.356a.5.5 0 0 0 .48.644h1.381a1.5 1.5 0 0 0 1.342-.83L9.81 10h1.69c2.584 0 4.5-.847 4.5-2 0-1.148-1.939-2-4.5-2H9.81L7.723 1.829a1.5 1.5 0 0 0-1.342-.83H5a.5.5 0 0 0-.479.645L5.828 6H3.75L2.4 4.2A.5.5 0 0 0 2 4H.5a.501.501 0 0 0-.48.638L.98 8l-.96 3.363A.5.5 0 0 0 .5 12H2z" fill-rule="evenodd"/></svg>