<svg width="16" height="16" viewBox="0 0 16 16" xmlns="http://www.w3.org/2000/svg"><path d="M9.81 10H3.75L2.4 11.8a.5.5 0 0 1-.4.2H.5a.5.5 0 0 1-.48-.638L.98 8 .02 4.638A.5.5 0 0 1 .5 4H2a.5.5 0 0 1 .4.2L3.75 6h2.078L4.521 1.644A.5.5 0 0 1 5.001 1h1.381a1.5 1.5 0 0 1 1.343.83L9.81 6h1.69c2.561 0 4.5.852 4.5 2 0 1.153-1.916 2-4.5 2H9.81zm-.573 1.145L7.725 14.17c-.255.509-.774.83-1.343.83H5a.5.5 0 0 1-.479-.644l.986-3.285A.099.099 0 0 1 5.602 11h3.545a.1.1 0 0 1 .09.145z" fill-rule="evenodd"/></svg>