<svg viewBox="0 0 16 16" xmlns="http://www.w3.org/2000/svg"><path d="M15 5.5v5a1.5 1.5 0 01-1.5 1.5H12v-1h.5a.5.5 0 000-1h-9a.5.5 0 000 1H4v1H2.5A1.5 1.5 0 011 10.5v-5A1.5 1.5 0 012.5 4h11A1.5 1.5 0 0115 5.5zm-4 8A1.5 1.5 0 019.5 15h-3A1.5 1.5 0 015 13.5V11h6v2.5zM5 3h6V2H5v1zm6.5-2h-7a.5.5 0 00-.5.5V3H2.5A2.5 2.5 0 000 5.5v5A2.5 2.5 0 002.5 13H4v.5A2.5 2.5 0 006.5 16h3a2.5 2.5 0 002.5-2.5V13h1.5a2.5 2.5 0 002.5-2.5v-5A2.5 2.5 0 0013.5 3H12V1.5a.5.5 0 00-.5-.5zM7 5a1 1 0 100 2 1 1 0 000-2M4 5a1 1 0 100 2 1 1 0 000-2" fill-rule="evenodd"/></svg>