<svg width="16" height="16" viewBox="0 0 16 16" xmlns="http://www.w3.org/2000/svg"><path d="M1.5 12a.5.5 0 0 0 0 1h2a.5.5 0 0 0 0-1h-2zm11 0a.5.5 0 0 0 0 1h2a.5.5 0 0 0 0-1h-2zm-8-6a.5.5 0 0 0-.5.5v2a.5.5 0 0 0 1 0v-2a.5.5 0 0 0-.5-.5m2 0a.5.5 0 0 0-.5.5v2a.5.5 0 0 0 1 0v-2a.5.5 0 0 0-.5-.5m-4 0a.5.5 0 0 0-.5.5v2a.5.5 0 0 0 1 0v-2a.5.5 0 0 0-.5-.5M15 9.5a.5.5 0 0 1-.5.5h-13a.5.5 0 0 1-.5-.5v-4a.5.5 0 0 1 .5-.5h6.684A2.962 2.962 0 0 0 8 6a3 3 0 1 0 6 0c0-.353-.072-.686-.184-1h.684a.5.5 0 0 1 .5.5v4zM11 4a2 2 0 1 1-.001 4A2 2 0 0 1 11 4zm5 5.5v-4A1.5 1.5 0 0 0 14.5 4h-1.278c-.55-.61-1.337-1-2.222-1s-1.672.39-2.222 1H1.5A1.5 1.5 0 0 0 0 5.5v4A1.5 1.5 0 0 0 1.5 11h13A1.5 1.5 0 0 0 16 9.5z" fill-rule="evenodd"/></svg>