<svg width="16" height="16" viewBox="0 0 16 16" xmlns="http://www.w3.org/2000/svg"><path d="M8.497 12a6.49 6.49 0 0 1-2.821-.643L7.83 7.91a2.486 2.486 0 0 0 1.334 0l2.154 3.448c-.87.42-1.83.642-2.821.642m6.424 3.235l-4.863-7.781A2.502 2.502 0 0 0 8.997 3.05V1.6c0-.331-.224-.6-.5-.6s-.5.269-.5.6v1.45a2.502 2.502 0 0 0-1.061 4.404l-2.125 3.4a6.49 6.49 0 0 1-2.663-3.952.5.5 0 1 0-.976.215 7.487 7.487 0 0 0 3.109 4.586l-2.208 3.532a.5.5 0 0 0 .848.53l2.222-3.556a7.472 7.472 0 0 0 3.354.79 7.462 7.462 0 0 0 3.354-.79l2.222 3.556a.5.5 0 1 0 .848-.53" fill-rule="evenodd"/></svg>