<svg width="16" height="16" viewBox="0 0 16 16" xmlns="http://www.w3.org/2000/svg"><path d="M1.144 7.67a.5.5 0 0 0 .001.705l6.503 6.481a.5.5 0 0 0 .704 0l6.503-6.48a.5.5 0 0 0 .001-.707l-1.815-1.82a.5.5 0 0 1 .273-.846 1.997 1.997 0 1 0-2.293-2.3.5.5 0 0 1-.846.27L8.352 1.145a.5.5 0 0 0-.707 0L6.41 2.385a2.997 2.997 0 0 1-1.406 5.639c-1.13 0-2.131-.63-2.64-1.579L1.143 7.67zm9.166-5.975a2.995 2.995 0 1 1 4.01 4.023l1.243 1.247a1.497 1.497 0 0 1-.003 2.117l-6.503 6.481a1.498 1.498 0 0 1-2.114 0L.44 9.082a1.497 1.497 0 0 1-.003-2.117l1.77-1.777a.5.5 0 0 1 .842.25 1.998 1.998 0 1 0 2.357-2.365.5.5 0 0 1-.253-.841L6.938.44A1.498 1.498 0 0 1 9.056.437l1.254 1.258z"/></svg>