<svg width="16" height="16" viewBox="0 0 16 16" xmlns="http://www.w3.org/2000/svg"><path d="M15 8a2 2 0 1 1-4.001-.002A2 2 0 0 1 15 8zM1 4a2 2 0 1 1 4.001 0A2 2 0 0 1 1 4zm0 8a2 2 0 1 1 4.001 0A2 2 0 0 1 1 12zm-1 0a3 3 0 1 0 6 0c0-.058-.014-.113-.018-.17l4.586-2.084A2.993 2.993 0 0 0 16 8a3 3 0 0 0-3-3 2.99 2.99 0 0 0-2.541 1.42L5.981 4.183C5.985 4.12 6 4.062 6 4a3 3 0 1 0-.246 1.187l4.322 2.16A2.991 2.991 0 0 0 10 8c0 .295.056.575.135.844L5.764 10.83A3.002 3.002 0 0 0 0 12z" fill-rule="evenodd"/></svg>