<svg width="16" height="16" viewBox="0 0 16 16" xmlns="http://www.w3.org/2000/svg"><path d="M14 13.5a1.5 1.5 0 0 1-1.5 1.5H10v-2a2 2 0 0 0-4 0v2H3.5A1.5 1.5 0 0 1 2 13.5V9c.597 0 1.134-.262 1.5-.677.366.415.903.677 1.5.677s1.134-.262 1.5-.677C6.866 8.738 7.403 9 8 9s1.134-.262 1.5-.677c.366.415.903.677 1.5.677s1.134-.262 1.5-.677c.366.415.903.677 1.5.677v4.5zM12.5 16a2.5 2.5 0 0 0 2.5-2.5V8.732c.598-.345 1-.992 1-1.732l-1.618-6H1.618L0 7a2 2 0 0 0 1 1.732V13.5A2.5 2.5 0 0 0 3.5 16h9z" fill-rule="evenodd"/></svg>