<svg viewBox="0 0 16 16" xmlns="http://www.w3.org/2000/svg"><path d="M2.382 2h11.236l1.38 5.06A1 1 0 0113 7h-1a1 1 0 01-2 0H9a1 1 0 01-2 0H6a1 1 0 01-2 0H3a1 1 0 01-1.998.06L2.382 2zM14 13.5a1.5 1.5 0 01-1.5 1.5H10v-2a2 2 0 00-4 0v2H3.5A1.5 1.5 0 012 13.5V9c.597 0 1.134-.262 1.5-.677.366.415.903.677 1.5.677s1.134-.262 1.5-.677C6.866 8.738 7.403 9 8 9s1.134-.262 1.5-.677c.366.415.903.677 1.5.677s1.134-.262 1.5-.677c.366.415.903.677 1.5.677v4.5zM7 15v-2a1 1 0 012 0v2H7zm5.5 1a2.5 2.5 0 002.5-2.5V8.732c.598-.345 1-.992 1-1.732l-1.618-6H1.618L0 7a2 2 0 001 1.732V13.5A2.5 2.5 0 003.5 16h9z" fill-rule="evenodd"/></svg>