<svg width="16" height="16" viewBox="0 0 16 16" xmlns="http://www.w3.org/2000/svg"><path d="M5.5 15a.5.5 0 1 1 0-1 .5.5 0 0 1 0 1zm0 1a1.5 1.5 0 1 0 .001-3 1.5 1.5 0 0 0-.001 3zm6.5-1.5a.5.5 0 1 1 1 0 .5.5 0 0 1-1 0zm-1 0a1.5 1.5 0 1 0 2.999.001A1.5 1.5 0 0 0 11 14.5zM4.01 9.498c-.004-.02-.233-1.834-.687-5.445h11.511L14.02 6.86A2.867 2.867 0 0 1 11.464 9l-7.454.497zm11.97-5.806a.5.5 0 0 0-.48-.64H3.198l-.202-1.614A.5.5 0 0 0 2.5 1h-2a.5.5 0 1 0 0 1h1.558l.946 7.562C3.274 11.03 4.502 12 6 12h7.5a.5.5 0 0 0 0-1H6c-.57 0-1.074-.197-1.438-.536l6.971-.465a3.868 3.868 0 0 0 3.45-2.87l.997-3.437z" fill-rule="evenodd"/></svg>