<svg width="16" height="16" viewBox="0 0 16 16" xmlns="http://www.w3.org/2000/svg"><path d="M15.54 9.698a7.44 7.44 0 0 0 .176-1.615c0-4.155-3.416-7.524-7.631-7.524-.444 0-.88.038-1.305.11A4.447 4.447 0 0 0 4.426 0C1.981 0 0 1.953 0 4.364a4.3 4.3 0 0 0 .608 2.207 7.48 7.48 0 0 0-.155 1.512c0 4.156 3.417 7.525 7.632 7.525a7.85 7.85 0 0 0 1.398-.126c.623.33 1.334.518 2.092.518C14.019 16 16 14.046 16 11.637c0-.697-.166-1.354-.46-1.939zM12 11.68c-.354.494-.875.883-1.552 1.16-.67.274-1.47.414-2.384.414-1.096 0-2.015-.19-2.733-.566a3.542 3.542 0 0 1-1.256-1.1c-.324-.46-.488-.917-.488-1.359a.94.94 0 0 1 .318-.71c.209-.194.477-.292.797-.292.261 0 .488.077.671.23.176.148.327.366.448.645.136.306.282.564.438.765.15.197.366.36.64.49.277.128.65.194 1.109.194.63 0 1.148-.133 1.537-.395.38-.255.565-.563.565-.939a.922.922 0 0 0-.294-.713A2.136 2.136 0 0 0 9 9.06a16.47 16.47 0 0 0-1.4-.343c-.793-.167-1.466-.364-2-.59-.547-.229-.989-.547-1.311-.944-.328-.406-.494-.913-.494-1.51 0-.567.174-1.08.518-1.521.34-.439.84-.782 1.482-1.015.633-.23 1.386-.347 2.239-.347.68 0 1.28.077 1.78.231.504.154.927.362 1.26.619.336.26.586.535.742.823.159.29.24.578.24.857 0 .27-.106.514-.314.726a1.053 1.053 0 0 1-.783.324c-.283 0-.505-.068-.657-.202-.143-.125-.292-.32-.456-.598a2.495 2.495 0 0 0-.685-.836c-.257-.193-.685-.29-1.275-.29-.546 0-.991.108-1.322.323-.318.205-.473.441-.473.721 0 .17.05.315.154.437.107.132.26.245.454.341.2.1.407.18.614.235.212.058.567.145 1.056.256.618.13 1.185.277 1.686.436.51.16.948.356 1.307.587.365.234.654.535.86.895.206.362.31.807.31 1.326 0 .62-.18 1.184-.534 1.678z" fill="#333"/></svg>