<svg width="16" height="16" viewBox="0 0 16 16" xmlns="http://www.w3.org/2000/svg" xmlns:xlink="http://www.w3.org/1999/xlink"><defs><path d="M3.5 0A2.5 2.5 0 001 2.5V4h.5A1.5 1.5 0 013 5.5v3a.5.5 0 00.5.5h7a.5.5 0 00.5-.5v-3A1.5 1.5 0 0112.5 4h.5V2.5A2.5 2.5 0 0010.5 0h-7zm9 5a.5.5 0 00-.5.5v4a.5.5 0 01-.5.5h-9a.5.5 0 01-.5-.5v-4a.5.5 0 00-.5-.5h-1a.5.5 0 00-.5.5V11a2 2 0 002 2v.5a.5.5 0 001 0V13h8v.5a.5.5 0 001 0V13a2 2 0 002-2V5.5a.5.5 0 00-.5-.5h-1z" id="a"/></defs><use xlink:href="#a" transform="translate(1 1)" fill-rule="evenodd"/></svg>