<svg width="16" height="16" viewBox="0 0 16 16" xmlns="http://www.w3.org/2000/svg"><path d="M14 11.5a1.5 1.5 0 0 1-1.5 1.5h-9A1.5 1.5 0 0 1 2 11.5V6h1v4a1 1 0 0 0 1 1h8a1 1 0 0 0 1-1V6h1v5.5zM4 10h8V9H4v1zM3 3.5A1.5 1.5 0 0 1 4.5 2h7A1.5 1.5 0 0 1 13 3.5V5a1 1 0 0 0-1 1v2H4V6a1 1 0 0 0-1-1V3.5zM4.5 1A2.5 2.5 0 0 0 2 3.5V5a1 1 0 0 0-1 1v5.5c0 1.209.859 2.218 2 2.45v.55a.5.5 0 0 0 1 0V14h8v.5a.5.5 0 0 0 1 0v-.55a2.502 2.502 0 0 0 2-2.45V6a1 1 0 0 0-1-1V3.5A2.5 2.5 0 0 0 11.5 1h-7z" fill-rule="evenodd"/></svg>