<svg width="16" height="16" viewBox="0 0 16 16" xmlns="http://www.w3.org/2000/svg"><path d="M5.164 5.53L7.544.294a.5.5 0 0 1 .911 0l2.38 5.238L15.55 6a.5.5 0 0 1 .28.875l-3.765 3.293 1.418 5.198a.5.5 0 0 1-.74.56L8 13.082l-4.742 2.845a.5.5 0 0 1-.74-.56l1.418-5.198L.17 6.876a.5.5 0 0 1 .28-.874l4.713-.471zm.791.676a.5.5 0 0 1-.405.29l-3.853.386 3.133 2.74a.5.5 0 0 1 .153.509L3.81 14.43l3.933-2.36a.5.5 0 0 1 .514 0l3.933 2.36-1.173-4.3a.5.5 0 0 1 .153-.507l3.133-2.74-3.853-.386a.5.5 0 0 1-.405-.29L8 1.707 5.955 6.206z"/></svg>