<svg width="16" height="16" viewBox="0 0 16 16" xmlns="http://www.w3.org/2000/svg"><path d="M4.5 3A1.5 1.5 0 0 0 3 4.5v8A1.5 1.5 0 0 0 4.5 14h7a1.5 1.5 0 0 0 1.5-1.5v-8A1.5 1.5 0 0 0 11.5 3h-7zM10 15H6v.5a.5.5 0 1 1-1 0V15h-.5A2.5 2.5 0 0 1 2 12.5v-8A2.5 2.5 0 0 1 4.5 2h7A2.5 2.5 0 0 1 14 4.5v8a2.5 2.5 0 0 1-2.5 2.5H11v.5a.5.5 0 1 1-1 0V15zM6.5 1a.5.5 0 0 1 0-1h3a.5.5 0 0 1 0 1h-3zm-1 5a.5.5 0 0 1 0-1h5a.5.5 0 1 1 0 1h-5zm0 3a.5.5 0 0 1 0-1h5a.5.5 0 1 1 0 1h-5zm0 3a.5.5 0 1 1 0-1h5a.5.5 0 1 1 0 1h-5z"/></svg>