<svg viewBox="0 0 16 16" xmlns="http://www.w3.org/2000/svg"><path d="M15 5.5v7a1.5 1.5 0 01-1.5 1.5h-11A1.5 1.5 0 011 12.5v-7A1.5 1.5 0 012.5 4h11A1.5 1.5 0 0115 5.5m-15 0v7A2.5 2.5 0 002.5 15h11a2.5 2.5 0 002.5-2.5v-7A2.5 2.5 0 0013.5 3h-2.066L12.916.777a.5.5 0 10-.832-.554L10.232 3H5.768L3.916.223a.5.5 0 10-.832.554L4.566 3H2.5A2.5 2.5 0 000 5.5M12 8h1V6h-1v2zm0 1h1a1 1 0 001-1V6a1 1 0 00-1-1h-1a1 1 0 00-1 1v2a1 1 0 001 1zm-.5 4h2a.5.5 0 000-1h-2a.5.5 0 000 1M3 6.5a.5.5 0 01.5-.5h5a.5.5 0 01.5.5v5a.5.5 0 01-.5.5h-5a.5.5 0 01-.5-.5v-5zm-1 0v5A1.5 1.5 0 003.5 13h5a1.5 1.5 0 001.5-1.5v-5A1.5 1.5 0 008.5 5h-5A1.5 1.5 0 002 6.5zm9.5 4.5h2a.5.5 0 000-1h-2a.5.5 0 000 1" fill-rule="evenodd"/></svg>