<svg viewBox="0 0 16 16" xmlns="http://www.w3.org/2000/svg"><path d="M0 12.5A2.5 2.5 0 002.5 15h11a2.5 2.5 0 002.5-2.5v-7A2.5 2.5 0 0013.5 3h-2.066L12.916.777a.5.5 0 10-.832-.554L10.232 3H5.768L3.916.223a.5.5 0 10-.832.554L4.566 3H2.5A2.5 2.5 0 000 5.5v7zM13 8a1 1 0 001-1V6a1 1 0 00-1-1h-1a1 1 0 00-1 1v1a1 1 0 001 1h1zm.5 5a.5.5 0 000-1h-2a.5.5 0 000 1h2zM2 11.5A1.5 1.5 0 003.5 13h5a1.5 1.5 0 001.5-1.5v-5A1.5 1.5 0 008.5 5h-5A1.5 1.5 0 002 6.5v5zm11.5-.5a.5.5 0 000-1h-2a.5.5 0 000 1h2z" fill-rule="evenodd"/></svg>