<svg width="16" height="16" viewBox="0 0 16 16" xmlns="http://www.w3.org/2000/svg"><path d="M3.5 10a.5.5 0 0 0-.5.5v2a.5.5 0 0 0 .5.5h2a.5.5 0 0 0 .5-.5v-2a.5.5 0 0 0-.5-.5h-2zm0-1h2A1.5 1.5 0 0 1 7 10.5v2A1.5 1.5 0 0 1 5.5 14h-2A1.5 1.5 0 0 1 2 12.5v-2A1.5 1.5 0 0 1 3.5 9zm0-6a.5.5 0 0 0-.5.5v2a.5.5 0 0 0 .5.5h2a.5.5 0 0 0 .5-.5v-2a.5.5 0 0 0-.5-.5h-2zm0-1h2A1.5 1.5 0 0 1 7 3.5v2A1.5 1.5 0 0 1 5.5 7h-2A1.5 1.5 0 0 1 2 5.5v-2A1.5 1.5 0 0 1 3.5 2zm7 1a.5.5 0 0 0-.5.5v2a.5.5 0 0 0 .5.5h2a.5.5 0 0 0 .5-.5v-2a.5.5 0 0 0-.5-.5h-2zm0-1h2A1.5 1.5 0 0 1 14 3.5v2A1.5 1.5 0 0 1 12.5 7h-2A1.5 1.5 0 0 1 9 5.5v-2A1.5 1.5 0 0 1 10.5 2zm0 8a.5.5 0 0 0-.5.5v2a.5.5 0 0 0 .5.5h2a.5.5 0 0 0 .5-.5v-2a.5.5 0 0 0-.5-.5h-2zm0-1h2a1.5 1.5 0 0 1 1.5 1.5v2a1.5 1.5 0 0 1-1.5 1.5h-2A1.5 1.5 0 0 1 9 12.5v-2A1.5 1.5 0 0 1 10.5 9z"/></svg>