<svg viewBox="0 0 24 24" xmlns="http://www.w3.org/2000/svg"><path d="M23.984 3.607c.016.122.016.244.016.368v14.291L.02 19.607C0 19.485 0 19.363 0 19.24V4.858l23.984-1.25zM9.132 7.387l-1.719.095v4.961l-5.017.288v1.126l3.491-.198-1.545 2.036-1.899.108v1.127l3.185-.184v-.005l2.437-3.21 3.174-.18v-1.125l-2.107.12V7.387zm.984 6.36l-1.902.094 1.359 2.668 1.902-.098-1.359-2.664zm5.044.306l-1.719.098-1.144 2.218 1.719-.096 1.144-2.22zm2.412-2.165l-1.719.098v.566l-3.561.203v1.127l3.561-.2v2.482l1.719-.098v-2.484l3.563-.201v-1.13l-3.563.203v-.566zm2.636 1.876l-1.718.097 1.254 2.083 1.717-.097-1.253-2.083zM13.963 6.38l-1.752 2.782 1.453.528.935-1.486 4.686-.266v.273L16.67 9.499l-2.03-.748-.687 1.047 1.207.445-2.057 1.01-.813.046v1.127l1.225-.07v-.002l3.156-1.556 3.227 1.19v.005l1.239-.072v-1.126l-.825.047-2.13-.786 2.823-1.39V6.713l-1.718.098-3.952.225v-.002l-1.372-.654zM5.04 10.138l-1.895.107 1.387 1.748 1.897-.103-1.389-1.752zm0-2.183l-1.895.105L4.53 9.812l1.897-.108L5.04 7.955z" fill="#0A0A0A"/></svg>