<svg width="16" height="16" viewBox="0 0 16 16" xmlns="http://www.w3.org/2000/svg"><path d="M11.247 12.778L12 15.056c-.144.225-.493.436-1.045.635A5.066 5.066 0 0 1 9.289 16a5.348 5.348 0 0 1-1.794-.25c-.543-.18-.99-.417-1.341-.712a4.423 4.423 0 0 1-.895-1.019 4.176 4.176 0 0 1-.677-2.288V6.5H3V4.431c.452-.166.857-.39 1.214-.668.358-.279.644-.567.857-.865a5.08 5.08 0 0 0 .546-.98c.15-.357.257-.674.32-.953.063-.279.11-.562.141-.85a.157.157 0 0 1 .043-.082A.098.098 0 0 1 6.19 0h2.297v4.077h3.135v2.422H8.48v4.98a1.894 1.894 0 0 0 .273 1.044c.1.17.256.303.466.399.21.096.466.141.767.135.49-.013.91-.106 1.262-.28z" fill="#333"/></svg>