<svg width="16" height="16" viewBox="0 0 16 16" xmlns="http://www.w3.org/2000/svg"><path d="M13.333 5.02a4.634 4.634 0 0 1-1.26.355 2.13 2.13 0 0 0 .969-1.219 4.35 4.35 0 0 1-1.396.531A2.086 2.086 0 0 0 10.052 4c-.604 0-1.12.214-1.547.64a2.11 2.11 0 0 0-.64 1.547c0 .202.017.369.052.5a6.193 6.193 0 0 1-2.521-.677 6.201 6.201 0 0 1-2-1.614A2.167 2.167 0 0 0 3.094 5.5c0 .792.316 1.4.948 1.823-.327-.007-.674-.097-1.042-.27v.02c0 .52.174.984.52 1.39.348.407.775.659 1.282.756a2.032 2.032 0 0 1-.531.083c-.09 0-.226-.014-.406-.042.145.438.404.799.776 1.084.371.284.793.43 1.265.437a4.322 4.322 0 0 1-2.718.938c-.181 0-.355-.01-.521-.032a6.136 6.136 0 0 0 3.354.98 6.38 6.38 0 0 0 2.187-.37 5.635 5.635 0 0 0 1.75-.99 6.57 6.57 0 0 0 2.037-3.114c.17-.587.255-1.172.255-1.756 0-.125-.003-.218-.01-.28a4.252 4.252 0 0 0 1.093-1.136zM16 3v10a2.89 2.89 0 0 1-.88 2.12A2.89 2.89 0 0 1 13 16H3a2.89 2.89 0 0 1-2.12-.88A2.89 2.89 0 0 1 0 13V3C0 2.174.293 1.467.88.88A2.89 2.89 0 0 1 3 0h10a2.89 2.89 0 0 1 2.12.88A2.89 2.89 0 0 1 16 3z" fill="#333"/></svg>