<svg width="16" height="16" viewBox="0 0 16 16" xmlns="http://www.w3.org/2000/svg"><path d="M16 3.544a6.873 6.873 0 0 1-1.645 1.696 9.322 9.322 0 0 1-.376 3.062 9.526 9.526 0 0 1-1.172 2.524 9.92 9.92 0 0 1-1.873 2.138c-.724.62-1.597 1.113-2.62 1.482A9.583 9.583 0 0 1 5.037 15 9.104 9.104 0 0 1 0 13.527c.237.027.5.041.792.041 1.523 0 2.88-.467 4.07-1.402a3.196 3.196 0 0 1-1.908-.655 3.209 3.209 0 0 1-1.157-1.62c.223.034.43.051.62.051.29 0 .578-.037.862-.112a3.226 3.226 0 0 1-1.883-1.132A3.17 3.17 0 0 1 .65 6.611v-.04c.46.257.954.395 1.482.416a3.276 3.276 0 0 1-1.066-1.168A3.197 3.197 0 0 1 .67 4.255c0-.596.149-1.148.447-1.656a9.296 9.296 0 0 0 2.99 2.422 9.134 9.134 0 0 0 3.771 1.011 3.645 3.645 0 0 1-.081-.752c0-.907.32-1.68.96-2.32a3.16 3.16 0 0 1 2.32-.96 3.16 3.16 0 0 1 2.395 1.036 6.428 6.428 0 0 0 2.081-.792 3.185 3.185 0 0 1-1.441 1.808A6.532 6.532 0 0 0 16 3.544z" fill="#333"/></svg>