<svg width="16" height="16" viewBox="0 0 16 16" xmlns="http://www.w3.org/2000/svg" xmlns:xlink="http://www.w3.org/1999/xlink"><defs><path d="M10 6.488c0 .604-.222 1.47-.666 2.597a.5.5 0 0 0 .223.62l2.157 1.198A2.5 2.5 0 0 1 13 13.089V14h2a1 1 0 0 0 1-1v-.911c0-.545-.296-1.047-.772-1.312l-3.021-1.679a.5.5 0 0 1-.151-.691c.625-.978.944-1.949.944-2.919C13 2.248 12.479 1 10 1c-.73 0-1.357.25-1.811.551C9.495 2.265 10 3.761 10 6.488zM3 6.5c0 .961.319 1.932.959 2.935a.499.499 0 0 1-.194.679L.772 11.777A1.502 1.502 0 0 0 0 13.089V14a1 1 0 0 0 1 1h10a1 1 0 0 0 1-1v-.911c0-.545-.295-1.047-.771-1.312a3202.12 3202.12 0 0 1-3.022-1.679.5.5 0 0 1-.152-.69c.627-.98.945-1.95.945-2.92C9 3.248 8.478 2 6 2c-1.357 0-2.224.538-2.649 1.553C3.055 4.261 3 4.92 3 6.5z" id="a"/></defs><use xlink:href="#a" fill-rule="evenodd"/></svg>