<svg viewBox="0 0 24 24" xmlns="http://www.w3.org/2000/svg"><path d="M16.153 7.826c.274 0 .545.02.813.05-.73-3.367-4.368-5.869-8.52-5.869C3.803 2.007 0 5.14 0 9.114c0 2.295 1.266 4.18 3.38 5.641l-.845 2.515 2.952-1.465c1.057.206 1.904.42 2.959.42.265 0 .527-.014.788-.034a6.155 6.155 0 01-.261-1.75c0-3.652 3.168-6.615 7.18-6.615zm-4.54-2.266c.636 0 1.057.415 1.057 1.044 0 .626-.421 1.045-1.057 1.045-.634 0-1.268-.42-1.268-1.045 0-.63.634-1.044 1.268-1.044zm-5.91 2.09c-.634 0-1.273-.42-1.273-1.047 0-.628.639-1.043 1.272-1.043s1.055.415 1.055 1.043c0 .627-.422 1.046-1.055 1.046zm18.158 6.69c0-3.342-3.379-6.065-7.173-6.065-4.018 0-7.183 2.723-7.183 6.065 0 3.346 3.165 6.063 7.183 6.063.84 0 1.689-.208 2.533-.418l2.317 1.255-.635-2.088c1.695-1.259 2.958-2.928 2.958-4.812zm-9.502-1.046c-.42 0-.845-.414-.845-.836 0-.417.424-.836.845-.836.638 0 1.057.42 1.057.836 0 .422-.419.836-1.057.836zm4.645 0c-.417 0-.84-.414-.84-.836 0-.417.423-.836.84-.836.633 0 1.057.42 1.057.836 0 .422-.424.836-1.057.836z" fill="#7BB32E"/></svg>