<svg viewBox="0 0 16 16" xmlns="http://www.w3.org/2000/svg"><path d="M1.732 5.206l3.274 8.968A6.856 6.856 0 011.14 8c0-.997.213-1.939.593-2.794zm10.9 2.449c0-.849-.303-1.436-.564-1.894-.349-.564-.674-1.045-.674-1.61 0-.632.477-1.219 1.151-1.219a.71.71 0 01.09.007A6.84 6.84 0 008 1.135 6.858 6.858 0 002.265 4.23c.16.006.312.01.441.01.717 0 1.83-.087 1.83-.087.37-.023.412.522.045.564 0 0-.371.042-.784.065l2.5 7.432L7.8 7.71 6.732 4.78c-.37-.022-.72-.064-.72-.064-.37-.022-.325-.587.043-.564 0 0 1.132.087 1.806.087.716 0 1.83-.087 1.83-.087.37-.023.412.522.044.564 0 0-.37.042-.783.065l2.48 7.377.684-2.287c.29-.948.516-1.63.516-2.216zM8.12 8.6l-2.058 5.984a6.822 6.822 0 004.216-.11.514.514 0 01-.048-.093L8.119 8.6zm5.904-3.894c.029.22.045.452.045.707 0 .697-.13 1.477-.523 2.458l-2.097 6.061A6.857 6.857 0 0014.861 8a6.834 6.834 0 00-.838-3.294zM16 8c0 4.413-3.59 8-8 8-4.413 0-8-3.59-8-8 0-4.413 3.587-8 8-8 4.41 0 8 3.587 8 8zm-.368 0C15.632 3.79 12.206.368 8 .368A7.638 7.638 0 00.368 8c0 4.21 3.426 7.632 7.632 7.632A7.638 7.638 0 0015.632 8z"/></svg>