<svg width="16" height="16" viewBox="0 0 16 16" xmlns="http://www.w3.org/2000/svg"><path d="M1.274 13.426a.92.92 0 101.3 1.3 1049.63 1049.63 0 016.037-6.004.501.501 0 01.574-.092A4.022 4.022 0 0014.96 4.5l-2.147 1.91a.5.5 0 01-.454.11l-2.013-.503a.5.5 0 01-.369-.386l-.504-2.517a.5.5 0 01.151-.466l1.756-1.622a4.022 4.022 0 00-3.999 5.816.5.5 0 01-.092.583c-.902.892-2.907 2.893-6.016 6zm2.011 2.01a1.925 1.925 0 01-2.721-2.722A2794.01 2794.01 0 016.331 6.96 5.027 5.027 0 0112.59.266a.5.5 0 01.184.842l-2.053 1.896a.5.5 0 00-.15.466l.267 1.339a.5.5 0 00.37.387l.881.22a.5.5 0 00.454-.11l2.383-2.119a.5.5 0 01.805.212A5.027 5.027 0 019.07 9.681c-1.002.984-2.93 2.903-5.785 5.756z" fill-rule="evenodd"/></svg>