<svg width="16" height="16" viewBox="0 0 16 16" xmlns="http://www.w3.org/2000/svg"><path d="M6.348 10.213V5.419l4.323 2.405-4.323 2.389zm9.492-5.624s-.156-1.176-.636-1.694c-.609-.68-1.29-.683-1.603-.722C11.362 2 8.003 2 8.003 2h-.006s-3.359 0-5.598.173c-.313.04-.994.042-1.603.722C.316 3.413.16 4.59.16 4.59S0 5.969 0 7.349v1.295c0 1.381.16 2.762.16 2.762s.156 1.175.635 1.693c.61.68 1.409.658 1.765.73C3.84 13.958 8 14 8 14s3.362-.005 5.601-.178c.313-.04.994-.043 1.603-.723.48-.518.636-1.693.636-1.693s.16-1.38.16-2.762V7.35c0-1.38-.16-2.761-.16-2.761z" fill="#333"/></svg>