<svg width="64" height="64" viewBox="0 0 1149 1149" xmlns="http://www.w3.org/2000/svg"><path d="M280.781 418.171l.807-.002c47.855 0 91.802 16.734 126.308 44.671l-.377-.296c6.586 5.305 15.053 8.516 24.271 8.516 12.244 0 23.164-5.665 30.284-14.516l.059-.075c5.305-6.586 8.516-15.053 8.516-24.271 0-12.244-5.665-23.164-14.516-30.284l-.075-.059c-23.059-18.528-49.801-33.737-78.778-44.299l-1.948-.621c54.902-80.534 146.087-132.803 249.5-133.12h.049c165.352.208 299.469 133.642 300.782 298.712l.001.125c-35.048 6.179-65.852 21.139-91.035 42.518l.274-.227c-8.41 7.164-13.71 17.763-13.71 29.6a38.652 38.652 0 009.183 25.07l-.047-.057c7.17 8.402 17.769 13.696 29.604 13.696a38.69 38.69 0 0025.066-9.169l-.057.047c19.567-16.607 45.108-26.711 73.008-26.726h.003c62.475.058 113.108 50.679 113.186 113.144v.008c-.078 62.48-50.706 113.108-113.179 113.186H280.781c-112.035-.136-202.821-90.921-202.957-202.944v-.013c.31-111.896 91.034-202.5 202.946-202.615h.011zm0 483.601h677.274c105.354-.155 190.718-85.52 190.874-190.859v-.015c-.202-89.206-61.48-164.043-144.225-184.925l-1.32-.282v-.785c-.175-209.009-169.563-378.398-378.556-378.573h-.017c-141.518.266-264.864 77.813-330.11 192.678l-.984 1.882c-4.369-.205-8.704-.546-13.073-.546C125.731 340.522.194 466.047 0 620.938v.019c.175 154.932 125.715 280.484 280.625 280.678h.019z"/></svg>