<svg width="64" height="64" viewBox="0 0 1147 1147" xmlns="http://www.w3.org/2000/svg"><path d="M789.06 898.646c-21.453 0-38.844-17.391-38.844-38.844s17.391-38.844 38.844-38.844h167.253c62.33-.016 112.851-50.547 112.851-112.879 0-62.341-50.538-112.879-112.879-112.879-27.825 0-53.298 10.068-72.976 26.759l.163-.135c-6.724 5.719-15.508 9.198-25.105 9.198-21.462 0-38.86-17.398-38.86-38.86 0-11.865 5.318-22.488 13.7-29.616l.055-.046c24.854-21.108 55.586-36.041 89.405-42.053l1.151-.17c-1.087-164.915-135.027-298.185-300.094-298.185-103.306 0-194.42 52.198-248.406 131.659l-.671 1.047c30.846 11.137 57.522 26.3 81.065 45.206l-.545-.423c9.065 7.177 14.829 18.18 14.829 30.531 0 21.453-17.391 38.844-38.844 38.844a38.685 38.685 0 01-24.592-8.774l.069.055c-34.061-27.638-77.944-44.374-125.737-44.374l-.587.001h.03c-111.826 0-202.479 90.653-202.479 202.479s90.653 202.479 202.479 202.479h89.293c21.453 0 38.844 17.391 38.844 38.844s-17.391 38.844-38.844 38.844h-89.429C125.458 898.51.016 773.068.016 618.327s125.442-280.183 280.183-280.183c4.335 0 8.636.341 13.005.546 65.831-116.771 189.046-194.336 330.377-194.336 208.741 0 377.962 169.203 377.993 377.936v.754c83.979 21.067 145.181 95.887 145.181 185.003 0 105.19-85.274 190.464-190.464 190.464h-.013.001zm-254.532-38.844V681.148l-43.895 43.93c-7.029 7.025-16.737 11.369-27.46 11.369-21.454 0-38.847-17.392-38.847-38.847 0-10.731 4.352-20.447 11.386-27.477l110.217-110.251a39.507 39.507 0 018.097-6.042l.198-.102c.717-.41 1.434-.785 2.185-1.126 2.602-1.419 5.617-2.592 8.789-3.361l.257-.053h.444c2.045-.383 4.398-.602 6.802-.602 1.09 0 2.169.045 3.236.133l-.14-.009a8.893 8.893 0 012.553.251l-.061-.013c3.667.419 7.015 1.297 10.151 2.583l-.252-.092c2.28.977 4.22 2.028 6.051 3.23l-.146-.09c.58.341 1.058.751 1.604 1.126a39.798 39.798 0 014.184 3.432l-.02-.019c.273.273.649.478.922.751L711.068 670.12c7.035 7.031 11.386 16.746 11.386 27.477 0 21.454-17.392 38.847-38.847 38.847-10.723 0-20.431-4.345-27.46-11.37l-43.964-43.964V859.9c0 21.453-17.391 38.844-38.844 38.844s-38.844-17.391-38.844-38.844z"/></svg>