<svg width="64" height="64" viewBox="0 0 1498 1498" xmlns="http://www.w3.org/2000/svg"><path d="M864.239 1346.647c0-19.527 15.83-35.357 35.357-35.357s35.357 15.83 35.357 35.357c.071 56.289 45.683 101.901 101.964 101.971h.007c67.31-.088 121.857-54.613 121.98-121.906v-.012c-.088-79.996-64.914-144.821-144.901-144.91H255.051c-.837.01-1.825.016-2.815.016-140.862 0-255.052-114.191-255.052-255.052s114.191-255.052 255.052-255.052a266 266 0 012.965.017l-.15-.001c3.977 0 7.892.249 11.869.435 59.967-106.242 172.117-176.802 300.747-176.802 70.245 0 135.576 21.043 190.032 57.17l-1.273-.794c10.18 6.327 16.857 17.449 16.857 30.131 0 19.527-15.83 35.357-35.357 35.357a35.197 35.197 0 01-20.476-6.529l.109.073c-42.236-28.047-94.114-44.75-149.894-44.75-109.267 0-203.563 64.096-247.342 156.74l-.707 1.664c-.186.373-.466.652-.652.994-1.336 2.686-2.867 5.002-4.641 7.105l.043-.052c-.186.217-.342.497-.559.715a34.852 34.852 0 01-6.427 5.481l-.129.08c-.746.497-1.522.932-2.299 1.398-1.762 1.007-3.816 1.931-5.96 2.659l-.254.075c-.539.237-1.229.491-1.936.707l-.145.038c-2.444.674-5.262 1.09-8.167 1.149l-.036.001h-1.056c-.994 0-1.988-.249-3.107-.311s-1.429 0-2.175 0c-8.24-1.305-17.743-2.051-27.419-2.051-101.807 0-184.337 82.531-184.337 184.337s82.531 184.337 184.337 184.337h759.331c119.029.141 215.483 96.595 215.625 215.611v.014c-.159 106.324-86.309 192.474-192.618 192.633h-.015c-95.369-.053-172.673-77.324-172.779-172.676v-.01zm257.631-297.059c-19.527 0-35.357-15.83-35.357-35.357s15.83-35.357 35.357-35.357h189.526c64.131-.071 116.099-52.04 116.17-116.163v-.007c-.071-53.485-43.419-96.823-96.902-96.876h-.005c-44.198.053-80.014 35.869-80.067 80.062v.005c0 19.527-15.83 35.357-35.357 35.357s-35.357-15.83-35.357-35.357c.088-83.239 67.543-150.693 150.773-150.782h.009c92.595 0 167.671 75.01 167.777 167.581v.01c-.124 103.164-83.721 186.762-186.873 186.885h-.012zm-353.233-68.354c-19.527 0-35.357-15.83-35.357-35.357s15.83-35.357 35.357-35.357h189.526c64.147-.106 116.108-52.132 116.108-116.294-.018-53.508-43.372-96.885-96.871-96.938h-.005c-44.234.035-80.08 35.893-80.098 80.127v.002c0 19.527-15.83 35.357-35.357 35.357s-35.357-15.83-35.357-35.357c.106-83.243 67.568-150.694 150.805-150.782h.008c92.515.106 167.485 75.075 167.591 167.58v.01c-.124 103.164-83.721 186.762-186.873 186.885h-.012z"/></svg>