<svg width="64" height="64" viewBox="0 0 1147 1147" xmlns="http://www.w3.org/2000/svg"><path d="M397.961 859.119c.058-69.575 38.443-130.171 95.178-161.822l.941-.482-31.334-22.391c-10.139-7.108-16.686-18.742-16.686-31.904 0-21.453 17.391-38.844 38.844-38.844 8.67 0 16.676 2.84 23.139 7.641l-.104-.074 97.792 69.939c.683.478 1.229 1.126 1.877 1.673l1.126.922c.614.512 1.297.956 1.843 1.502.202.173.372.376.506.603l.006.011c.77.844 1.52 1.756 2.221 2.706l.066.093a37.754 37.754 0 012.271 2.977l.084.129a25.57 25.57 0 011.708 3.243l.067.171c.58 1.263.785 1.331 1.092 2.048l.273.478s.205.614.341.956c.356.9.718 2.038 1.013 3.204l.045.209c.307 1.161.683 1.911.887 2.901v.887c.185 1.024.331 2.267.405 3.53l.004.089c0 1.195.273 2.15.307 3.243v.683a36.989 36.989 0 01-.438 4.341l.028-.21a10.308 10.308 0 01-.252 2.765l.013-.069v.478l-19.422 100.83c-3.565 18.051-19.257 31.479-38.09 31.505h-.003a38.625 38.625 0 01-7.619-.758l.246.041c-18.026-3.603-31.419-19.301-31.419-38.128 0-2.596.255-5.132.74-7.585l-.041.247 8.294-43.042c-34.666 18.298-57.89 54.106-57.89 95.339 0 59.344 48.108 107.452 107.452 107.452 59.334 0 107.435-48.091 107.452-107.421v-.002c0-21.453 17.391-38.844 38.844-38.844s38.844 17.391 38.844 38.844c0 102.268-82.905 185.173-185.173 185.173s-185.173-82.905-185.173-185.173zm453.529 39.492c-21.453 0-38.844-17.391-38.844-38.844s17.391-38.844 38.844-38.844h105.028c62.33-.016 112.851-50.547 112.851-112.879 0-62.341-50.538-112.879-112.879-112.879-27.825 0-53.298 10.068-72.976 26.759l.163-.135c-6.723 5.722-15.508 9.202-25.105 9.202-21.455 0-38.847-17.392-38.847-38.847 0-11.857 5.312-22.474 13.687-29.599l.055-.046c24.852-21.111 55.586-36.045 89.406-42.054l1.15-.169c-1.105-164.901-135.038-298.152-300.094-298.152-103.263 0-194.344 52.155-248.339 131.56l-.67 1.045c30.846 11.141 57.522 26.304 81.067 45.207l-.546-.424c8.924 7.18 14.587 18.101 14.587 30.345 0 21.459-17.396 38.856-38.856 38.856a38.693 38.693 0 01-24.344-8.57l.075.058c-34.061-27.638-77.944-44.374-125.737-44.374l-.587.001h.03c-111.826 0-202.479 90.653-202.479 202.479s90.653 202.479 202.479 202.479h26.863c21.453 0 38.844 17.391 38.844 38.844s-17.391 38.844-38.844 38.844h-27.307C125.433 898.474-.001 773.039-.001 618.308s125.435-280.166 280.166-280.166c4.335 0 8.636.341 12.971.546 65.831-116.771 189.046-194.336 330.377-194.336 208.741 0 377.962 169.203 377.993 377.936v.72c83.979 21.067 145.181 95.887 145.181 185.003 0 105.19-85.274 190.464-190.464 190.464h-.013.001z"/></svg>