<svg width="64" height="64" viewBox="0 0 1147 1147" xmlns="http://www.w3.org/2000/svg"><path d="M851.081 898.611c-21.453 0-38.844-17.391-38.844-38.844s17.391-38.844 38.844-38.844h105.028c62.33-.016 112.851-50.547 112.851-112.879 0-62.341-50.538-112.879-112.879-112.879-27.825 0-53.298 10.068-72.976 26.759l.163-.135c-6.724 5.719-15.508 9.198-25.105 9.198-21.462 0-38.86-17.398-38.86-38.86 0-11.865 5.318-22.488 13.7-29.616l.055-.046c24.858-21.093 55.59-36.014 89.405-42.019l1.15-.169c-1.124-164.886-135.05-298.118-300.094-298.118-103.263 0-194.344 52.155-248.339 131.56l-.67 1.045c30.846 11.137 57.522 26.3 81.065 45.206l-.545-.423c9.065 7.177 14.829 18.18 14.829 30.531 0 21.453-17.391 38.844-38.844 38.844a38.685 38.685 0 01-24.592-8.774l.069.055c-34.053-27.638-77.928-44.374-125.713-44.374l-.612.001h.032c-111.826 0-202.479 90.653-202.479 202.479s90.653 202.479 202.479 202.479c21.453 0 38.844 17.391 38.844 38.844s-17.391 38.844-38.844 38.844C125.458 898.476.016 773.034.016 618.293S125.458 338.11 280.199 338.11c4.335 0 8.636.341 12.971.58 65.831-116.771 189.046-194.336 330.377-194.336 208.729 0 377.943 169.183 377.993 377.901v.721c83.979 21.067 145.181 95.887 145.181 185.003 0 105.19-85.274 190.464-190.464 190.464h-.013.001zm-275.013 0a39.029 39.029 0 01-7.726-.794l.251.043-.819-.239c-2.473-.528-4.619-1.198-6.677-2.04l.26.094c-.205 0-.375-.205-.614-.307a39.886 39.886 0 01-6.281-3.502l.137.089a39.485 39.485 0 01-6.008-4.916l-110.25-110.182c-7.035-7.031-11.386-16.746-11.386-27.477 0-21.454 17.392-38.847 38.847-38.847 10.723 0 20.431 4.345 27.46 11.37l43.93 43.759V595.678c0-21.453 17.391-38.844 38.844-38.844s38.844 17.391 38.844 38.844v170.325l43.93-43.964c7.029-7.025 16.737-11.369 27.46-11.369 21.454 0 38.847 17.392 38.847 38.847 0 10.731-4.352 20.447-11.386 27.477L603.48 887.211c-.273.273-.614.478-.887.751a38.57 38.57 0 01-4.11 3.331l-.123.082c-.512.341-1.024.751-1.57 1.092a38.505 38.505 0 01-5.65 3.041l-.256.099c-1.789.747-3.923 1.417-6.127 1.899l-.256.047-.887.273c-2.042.393-4.4.628-6.809.648h-.7z"/></svg>