<svg width="64" height="64" viewBox="0 0 1024 1024" xmlns="http://www.w3.org/2000/svg"><path d="M0 533.333c0-282.77 229.23-512 512-512s512 229.23 512 512-229.23 512-512 512-512-229.23-512-512zm86.077 0c0 235.231 190.692 425.923 425.923 425.923s425.923-190.692 425.923-425.923S747.231 107.41 512 107.41 86.077 298.102 86.077 533.333zm353.196-39.597a.68.68 0 01.263-.642l.002-.001c2.823-4.623 5.793-8.627 9.08-12.345l-.079.091a65.772 65.772 0 012.647-2.912 87.174 87.174 0 019.724-8.936l.185-.14c1.172-.908 2.383-1.588 3.555-2.42s3.215-2.307 4.917-3.328l276.612-161.905-161.414 275.817a.567.567 0 01-.299.604l-.003.001c-2.821 4.638-5.791 8.655-9.081 12.384l.08-.093c-.87 1.021-1.74 1.967-2.61 2.912a86.31 86.31 0 01-9.756 8.896l-.19.143c-1.135.908-2.345 1.626-3.555 2.42s-3.215 2.307-4.917 3.328L277.822 769.553z"/></svg>