<svg width="64" height="64" viewBox="0 0 1135 1135" xmlns="http://www.w3.org/2000/svg"><path d="M409.647 1156.333c-18.622 0-33.718-15.096-33.718-33.718s15.096-33.718 33.718-33.718h315.961c18.622 0 33.718 15.096 33.718 33.718s-15.096 33.718-33.718 33.718zm-306.094-144.025c-18.622 0-33.718-15.096-33.718-33.718s15.096-33.718 33.718-33.718h928.151c18.622 0 33.718 15.096 33.718 33.718s-15.096 33.718-33.718 33.718zM274.777 868.43c-18.622 0-33.718-15.096-33.718-33.718s15.096-33.718 33.718-33.718h585.702c18.622 0 33.718 15.096 33.718 33.718s-15.096 33.718-33.718 33.718zm527.896-134.633h-470.12c-18.622 0-33.718-15.096-33.718-33.718-.007-.713-.011-1.556-.011-2.4 0-148.439 120.334-268.773 268.773-268.773 147.596 0 267.404 118.97 268.762 266.245l.001.129a32.13 32.13 0 01.297 4.426v.176-.009l.001.207c0 18.622-15.096 33.718-33.718 33.718h-.001zm-433.558-67.554h397.026c-17.01-95.489-99.404-167.05-198.513-167.05s-181.503 71.56-198.332 165.83l-.181 1.22zm592.783 67.554c-18.622 0-33.718-15.096-33.718-33.718s15.096-33.718 33.718-33.718h139.611c18.622 0 33.718 15.096 33.718 33.718s-15.096 33.718-33.718 33.718zm-928.18 0C15.096 733.797 0 718.701 0 700.079s15.096-33.718 33.718-33.718h139.611c18.622 0 33.718 15.096 33.718 33.718s-15.096 33.718-33.718 33.718zm788.866-288.673c-6.106-6.098-9.882-14.526-9.882-23.836s3.777-17.739 9.882-23.836l98.693-98.723c6.215-7.121 15.308-11.594 25.445-11.594 18.622 0 33.718 15.096 33.718 33.718 0 10.13-4.467 19.217-11.539 25.397l-.04.034-98.693 98.723c-6.101 6.098-14.528 9.87-23.836 9.87s-17.735-3.772-23.836-9.87zm-557.614 0l-98.723-98.842c-6.104-6.104-9.879-14.537-9.879-23.851 0-18.629 15.102-33.731 33.731-33.731 9.314 0 17.747 3.775 23.851 9.879l98.723 98.723c6.412 6.148 10.396 14.784 10.396 24.351 0 18.622-15.096 33.718-33.718 33.718-9.567 0-18.203-3.984-24.34-10.384l-.011-.012zm268.911-139.255V166.051c0-18.622 15.096-33.718 33.718-33.718s33.718 15.096 33.718 33.718v139.64c0 18.622-15.096 33.718-33.718 33.718s-33.718-15.096-33.718-33.718z"/></svg>