<svg width="64" height="64" viewBox="0 0 1024 1024" xmlns="http://www.w3.org/2000/svg"><path d="M481.653 1014.919V888.987c0-16.797 13.617-30.414 30.414-30.414s30.414 13.617 30.414 30.414v125.932c0 16.797-13.617 30.414-30.414 30.414s-30.414-13.617-30.414-30.414zm349.44-119.652l-89.024-89.024c-5.783-5.546-9.377-13.336-9.377-21.965 0-16.797 13.617-30.414 30.414-30.414 8.629 0 16.419 3.594 21.955 9.367l.01.011 88.944 89.131a30.259 30.259 0 017.321 19.792c0 16.797-13.617 30.414-30.414 30.414a30.297 30.297 0 01-19.972-7.476l.036.031zm-681.054 0c-5.501-5.503-8.903-13.105-8.903-21.501s3.402-15.998 8.903-21.501l89.05-89.024c5.505-5.508 13.112-8.915 21.514-8.915 16.798 0 30.416 13.618 30.416 30.416 0 8.396-3.402 15.997-8.902 21.501l-89.05 89.024c-5.505 5.509-13.112 8.916-21.514 8.916s-16.01-3.408-21.514-8.916zm119.598-362.028c0-133.905 108.552-242.457 242.457-242.457s242.457 108.552 242.457 242.457c0 133.905-108.552 242.457-242.457 242.457-133.905 0-242.457-108.552-242.457-242.457zm60.828 0c0 100.37 81.366 181.736 181.736 181.736s181.736-81.366 181.736-181.736c0-100.37-81.366-181.736-181.736-181.736-100.37 0-181.736 81.366-181.736 181.736zm537.189 30.414c-16.797 0-30.414-13.617-30.414-30.414s13.617-30.414 30.414-30.414h125.932c16.797 0 30.414 13.617 30.414 30.414s-13.617 30.414-30.414 30.414zm-837.24 0C13.617 563.653 0 550.036 0 533.239s13.617-30.414 30.414-30.414h126.012c16.797 0 30.414 13.617 30.414 30.414s-13.617 30.414-30.414 30.414zm711.575-260.389c-5.509-5.505-8.916-13.112-8.916-21.514s3.408-16.01 8.916-21.514l89.024-89.05c5.506-5.506 13.112-8.912 21.514-8.912 16.804 0 30.426 13.622 30.426 30.426 0 8.402-3.406 16.008-8.912 21.514l-89.05 89.05c-5.508 5.502-13.114 8.905-21.514 8.905s-16.007-3.403-21.515-8.906zm-502.98 0l-88.97-88.944c-5.506-5.506-8.912-13.112-8.912-21.514 0-16.804 13.622-30.426 30.426-30.426 8.402 0 16.008 3.406 21.514 8.912l89.05 89.05c5.508 5.505 8.915 13.112 8.915 21.514 0 16.798-13.618 30.416-30.416 30.416-8.396 0-15.997-3.402-21.501-8.902zm242.564-125.612V51.747c0-16.797 13.617-30.414 30.414-30.414s30.414 13.617 30.414 30.414v125.959c0 16.797-13.617 30.414-30.414 30.414s-30.414-13.617-30.414-30.414z"/></svg>