<svg width="64" height="64" viewBox="0 0 1074 1074" xmlns="http://www.w3.org/2000/svg"><path d="M250.678 1071.007c0-13.435 10.891-24.326 24.326-24.326s24.326 10.891 24.326 24.326-10.891 24.326-24.326 24.326-24.326-10.891-24.326-24.326zm69.658-69.611c0-13.435 10.891-24.326 24.326-24.326s24.326 10.891 24.326 24.326-10.891 24.326-24.326 24.326-24.326-10.891-24.326-24.326zm196.492-31.743c.082-13.307 10.889-24.063 24.208-24.063 13.37 0 24.208 10.838 24.208 24.208s-10.838 24.208-24.208 24.208c-6.698 0-12.76-2.72-17.143-7.115l-.001-.001a24.13 24.13 0 01-7.065-17.092v-.153.008zm-374.263 0c.093-13.273 10.875-23.996 24.161-23.996 13.344 0 24.161 10.817 24.161 24.161s-10.817 24.161-24.161 24.161a24.087 24.087 0 01-17.096-7.088 24.087 24.087 0 01-7.065-17.073l.001-.174v.009zm247.263-37.867c.088-13.29 10.882-24.03 24.184-24.03 13.357 0 24.185 10.828 24.185 24.185s-10.828 24.185-24.185 24.185a24.105 24.105 0 01-17.119-7.102 24.106 24.106 0 01-7.065-17.083l.001-.163v.008zm196.61-31.744c0-13.435 10.891-24.326 24.326-24.326s24.326 10.891 24.326 24.326-10.891 24.326-24.326 24.326-24.326-10.891-24.326-24.326zm-374.427 0c0-13.435 10.891-24.326 24.326-24.326s24.326 10.891 24.326 24.326-10.891 24.326-24.326 24.326-24.326-10.891-24.326-24.326zm-18.698-69.069c-.634.008-1.383.012-2.134.012-106.764 0-193.313-86.549-193.313-193.313s86.549-193.313 193.313-193.313c.75 0 1.499.004 2.248.013l-.114-.001c2.991 0 5.981.235 8.972.377 45.411-80.564 130.415-134.08 227.919-134.08 41.092 0 79.963 9.505 114.536 26.436l-1.538-.68c34.476-37.269 83.637-60.525 138.229-60.525 103.889 0 188.109 84.219 188.109 188.109 0 71.098-39.445 132.984-97.644 164.967l-.975.491c12.747 19.876 20.319 44.13 20.319 70.152 0 72.494-58.768 131.262-131.262 131.262h-.22.011zM53.597 637.637c.08 77.135 62.582 139.645 139.707 139.739H659.613c43.01 0 77.876-34.866 77.876-77.876s-34.866-77.876-77.876-77.876c-19.209 0-36.794 6.955-50.374 18.484l.112-.093a26.697 26.697 0 01-17.782 6.742c-14.813 0-26.822-12.009-26.822-26.822 0-8.383 3.846-15.867 9.869-20.786l.048-.038a130.765 130.765 0 0161.704-29.036l.795-.117c-.756-113.771-93.16-205.709-207.038-205.709-71.257 0-134.106 35.997-171.354 90.799l-.463.722c21.279 7.7 39.681 18.16 55.932 31.191l-.38-.295c6.149 4.958 10.05 12.491 10.05 20.935 0 14.817-12.012 26.829-26.829 26.829a26.717 26.717 0 01-16.83-5.934l.051.04c-23.508-19.068-53.791-30.614-86.772-30.614l-.379.001h.02c-77.08.147-139.518 62.626-139.598 139.708v.008zM629.25 340.049c-15.081 6.555-28.015 15.158-39.161 25.639l.07-.065c61.618 48.077 100.869 122.338 100.883 205.768v.498c15.19 3.78 28.546 9.725 40.528 17.59l-.495-.305c50.169-20.298 84.917-68.616 84.917-125.051 0-71.758-56.18-130.395-126.956-134.325l-.348-.015q-3.65-.188-7.3-.188h-.321c-18.709 0-36.52 3.845-52.685 10.788l.869-.332zm416.65 170.73l-95.703-5.181c-14.167-.787-25.357-12.466-25.357-26.76 0-.527.015-1.051.045-1.571l-.003.072c.562-14.135 12.157-25.382 26.379-25.382.662 0 1.317.024 1.967.072l-.087-.005 95.703 5.181c14.104.859 25.217 12.508 25.217 26.752 0 14.749-11.916 26.716-26.646 26.798h-.008zM862.926 301.194a26.676 26.676 0 01-6.852-17.897c0-7.91 3.427-15.019 8.877-19.924l.024-.021 71.306-63.888a26.683 26.683 0 0117.909-6.86c14.805 0 26.806 12.002 26.806 26.806 0 7.909-3.425 15.018-8.873 19.925l-.024.021-71.33 64.006a26.676 26.676 0 01-17.897 6.852c-7.91 0-15.019-3.427-19.924-8.877l-.021-.024zm-382.27-20.723l-64.006-71.259a26.685 26.685 0 01-6.849-17.897c0-14.805 12.002-26.807 26.807-26.807 7.915 0 15.029 3.43 19.936 8.885l.022.024 63.935 71.377a26.685 26.685 0 016.849 17.897c0 14.805-12.002 26.807-26.807 26.807-7.915 0-15.029-3.43-19.936-8.885l-.022-.024zm188.957-82.209l-16.249-95.703a26.06 26.06 0 01-.475-5.021c0-14.8 11.998-26.799 26.799-26.799 13.44 0 24.569 9.893 26.501 22.794l.018.147 16.249 95.703c.242 1.353.381 2.911.381 4.501 0 13.213-9.562 24.192-22.144 26.396l-.161.023a26.9 26.9 0 01-4.52.377h-.001c-13.21-.012-24.181-9.581-26.375-22.164l-.023-.16z"/></svg>