<svg width="64" height="64" viewBox="0 0 1064 1064" xmlns="http://www.w3.org/2000/svg"><path d="M160.005 1077.578c-4.779-4.781-7.735-11.385-7.735-18.68s2.956-13.899 7.735-18.68l136.762-136.739c4.818-5.025 11.586-8.147 19.083-8.147 14.593 0 26.424 11.83 26.424 26.424 0 7.497-3.122 14.265-8.138 19.075l-136.771 136.748c-4.782 4.786-11.391 7.747-18.692 7.747s-13.909-2.96-18.691-7.746zm278.238-129.402c-4.779-4.781-7.735-11.385-7.735-18.68s2.956-13.899 7.735-18.68L538.69 810.369H259.592L121.785 948.176a26.342 26.342 0 01-18.692 7.746c-14.595 0-26.426-11.831-26.426-26.426a26.343 26.343 0 017.734-18.68l100.958-100.981C82.392 806.979.011 722.828.011 619.436c0-105.193 85.275-190.468 190.468-190.468 1.8 0 3.595.025 5.383.075l-.263-.006c2.972 0 5.898.232 8.847.372 44.954-79.294 128.692-131.98 224.755-132.211H429.611c40.402 0 78.614 9.375 112.579 26.07l-1.502-.667c17.618-19.029 39.01-34.288 63.019-44.63l1.206-.462c21.249-9.194 45.994-14.542 71.987-14.542 102.423 0 185.454 83.03 185.454 185.454 0 70.095-38.888 131.107-96.266 162.639l-.961.484c12.568 19.598 20.035 43.513 20.035 69.171 0 71.48-57.946 129.425-129.425 129.425h-42.372L475.558 947.971c-4.781 4.779-11.385 7.735-18.68 7.735s-13.899-2.956-18.68-7.735zM57.863 619.714c.079 76.048 61.693 137.678 137.727 137.784h459.903c42.408 0 76.787-34.379 76.787-76.787s-34.379-76.787-76.787-76.787c-18.941 0-36.28 6.858-49.669 18.226l.11-.091a26.288 26.288 0 01-17.078 6.26c-14.595 0-26.426-11.831-26.426-26.426 0-8.066 3.614-15.288 9.311-20.135l.037-.031a128.904 128.904 0 0160.841-28.63l.783-.116c-.765-112.165-91.869-202.797-204.141-202.797-70.245 0-132.204 35.479-168.934 89.495l-.456.711c20.973 7.591 39.11 17.904 55.125 30.754l-.374-.29c6.073 4.883 9.927 12.313 9.927 20.642 0 14.594-11.831 26.425-26.425 26.425-6.264 0-12.02-2.18-16.549-5.822l.051.04c-23.179-18.801-53.039-30.186-85.558-30.186l-.373.001h.019c-76.091.026-137.775 61.677-137.854 137.753v.007zM625.415 326.29c-14.869 6.466-27.622 14.948-38.614 25.281l.069-.065c60.753 47.407 99.455 120.628 99.472 202.889v.491c14.978 3.729 28.146 9.591 39.962 17.344l-.489-.301c49.423-20.042 83.645-67.667 83.645-123.284 0-70.73-55.346-128.532-125.092-132.463l-.348-.016q-3.622-.186-7.244-.186h-.341c-18.423 0-35.961 3.791-51.875 10.637l.854-.327zm273.038 409.033l-63.11-70.262a26.306 26.306 0 01-6.849-17.749c0-14.593 11.83-26.424 26.424-26.424 7.847 0 14.896 3.421 19.736 8.853l.023.026 63.087 70.332a26.306 26.306 0 016.849 17.749c0 14.593-11.83 26.424-26.424 26.424-7.847 0-14.896-3.421-19.736-8.853l-.023-.026zm137.784-240.692l-94.364-5.108c-13.968-.779-24.999-12.296-24.999-26.389 0-14.595 11.832-26.427 26.427-26.427.502 0 1.001.014 1.497.042l-.069-.003 94.341 5.108c13.907.847 24.864 12.333 24.864 26.378 0 14.543-11.749 26.342-26.273 26.423h-.008zM855.798 288.094a26.305 26.305 0 01-6.756-17.647c0-7.799 3.379-14.809 8.753-19.646l.024-.021 70.332-63.11a26.306 26.306 0 0117.749-6.849c14.593 0 26.424 11.83 26.424 26.424 0 7.847-3.421 14.896-8.853 19.736l-.026.023-70.332 63.11a26.305 26.305 0 01-17.647 6.756c-7.799 0-14.809-3.379-19.646-8.753l-.021-.024zm-376.921-20.433l-63.11-70.378a26.31 26.31 0 01-6.754-17.647c0-14.598 11.834-26.432 26.432-26.432 7.804 0 14.819 3.382 19.657 8.761l.021.024 63.041 70.378a26.355 26.355 0 016.739 17.647c0 14.622-11.853 26.475-26.475 26.475-7.831 0-14.867-3.4-19.715-8.804l-.022-.025zm210.949-59.094c-13.969-.776-25.002-12.292-25.002-26.385 0-.52.015-1.036.045-1.549l-.003.071 5.108-94.387c.779-13.968 12.296-24.999 26.389-24.999 14.595 0 26.427 11.832 26.427 26.427 0 .502-.014 1.001-.042 1.497l.003-.069-5.108 94.387c-.785 13.958-12.293 24.98-26.377 24.984z"/></svg>