<svg width="64" height="64" viewBox="0 0 1447 1447" xmlns="http://www.w3.org/2000/svg"><path d="M260.522 1468.27c-.855.01-1.864.016-2.875.016-143.883 0-260.522-116.64-260.522-260.522s116.64-260.522 260.522-260.522c1.011 0 2.021.006 3.029.017l-.154-.001c4.03 0 8.061.317 12.091.508C333.802 839.187 448.358 767.06 579.76 767.06c55.384 0 107.774 12.813 154.37 35.637l-2.073-.917c24.089-26.012 53.339-46.869 86.165-61l1.649-.632c29.159-12.674 63.125-20.048 98.813-20.048 140.027 0 253.54 113.514 253.54 253.54 0 96.009-53.365 179.555-132.051 222.592l-1.323.662c17.178 26.787 27.383 59.473 27.383 94.542 0 97.698-79.2 176.898-176.898 176.898h-.296.015zm-188.29-260.555c.126 103.939 84.352 188.164 188.279 188.291h628.547c57.952-.015 104.926-46.997 104.926-104.952 0-57.963-46.988-104.952-104.952-104.952-25.871 0-49.555 9.361-67.851 24.88l.152-.126a35.942 35.942 0 01-23.882 9.023c-19.946 0-36.116-16.17-36.116-36.116 0-11.284 5.175-21.359 13.281-27.982l.065-.051c23.11-19.623 51.683-33.507 83.126-39.1l1.071-.158c-1.045-153.306-125.566-277.181-279.019-277.181-96.011 0-180.696 48.492-230.898 122.321l-.623.972c28.679 10.365 53.48 24.462 75.375 42.033l-.509-.395c8.429 6.673 13.787 16.904 13.787 28.387 0 19.946-16.17 36.116-36.116 36.116a35.968 35.968 0 01-22.865-8.158l.064.051c-31.677-25.697-72.486-41.258-116.929-41.258l-.522.001h.027c-104.023.036-188.345 84.336-188.418 188.347v.007zm775.727-401.05c-20.342 8.864-37.783 20.5-52.802 34.675l.088-.083c83.037 64.796 135.934 164.874 135.958 277.307v.67c20.472 5.105 38.469 13.116 54.622 23.707l-.67-.412c67.612-27.355 114.44-92.473 114.44-168.527 0-96.707-75.713-175.73-171.096-181.026l-.47-.021q-5.078-.286-10.156-.286l-.427-.001c-25.055 0-48.907 5.147-70.558 14.441l1.165-.445zm373.186 559.033l-86.259-96.002a35.958 35.958 0 01-9.361-24.259c0-19.946 16.17-36.116 36.116-36.116 10.726 0 20.36 4.676 26.974 12.1l.032.036 86.259 96.129a35.958 35.958 0 019.361 24.259c0 19.946-16.17 36.116-36.116 36.116-10.726 0-20.36-4.676-26.974-12.1l-.032-.036zm188.323-328.977l-128.976-6.982c-19.091-1.065-34.169-16.806-34.169-36.068 0-19.949 16.172-36.121 36.121-36.121.687 0 1.369.019 2.046.057l-.094-.004 128.976 6.982c19.008 1.158 33.984 16.856 33.984 36.053 0 19.877-16.058 36.004-35.91 36.115h-.011zm-246.622-282.452a35.955 35.955 0 01-9.22-24.104c0-10.668 4.625-20.256 11.98-26.867l.033-.029 96.129-86.259a36.02 36.02 0 0124.12-9.21c19.985 0 36.186 16.201 36.186 36.186 0 10.703-4.647 20.321-12.033 26.946l-.034.03-96.161 86.386a35.952 35.952 0 01-24.119 9.235c-10.66 0-20.241-4.618-26.852-11.963l-.029-.033zm-515.174-27.928l-86.227-96.161a35.958 35.958 0 01-9.361-24.259c0-19.946 16.17-36.116 36.116-36.116 10.726 0 20.36 4.676 26.974 12.1l.032.036 86.164 96.319a35.958 35.958 0 019.361 24.259c0 19.946-16.17 36.116-36.116 36.116-10.726 0-20.36-4.676-26.974-12.1l-.032-.036zm288.292-80.737c-19.092-1.06-34.173-16.801-34.173-36.063 0-.711.021-1.416.061-2.117l-.004.097 6.982-129.008c1.065-19.091 16.806-34.169 36.068-34.169 19.949 0 36.121 16.172 36.121 36.121 0 .687-.019 1.369-.057 2.046l.004-.094-6.982 129.008c-1.056 19.092-16.792 34.174-36.052 34.18h-.001z"/></svg>