<svg width="64" height="64" viewBox="0 0 1076 1076" xmlns="http://www.w3.org/2000/svg"><path d="M234.92 1097.333c-24.023 0-43.498-19.475-43.498-43.498s19.475-43.498 43.498-43.498h293.249c24.023 0 43.498 19.475 43.498 43.498s-19.475 43.498-43.498 43.498zm139.209-234.27c-24.023 0-43.498-19.475-43.498-43.498s19.475-43.498 43.498-43.498h415.066c24.023 0 43.498 19.475 43.498 43.498s-19.475 43.498-43.498 43.498zm-87.034-234.232c-24.023 0-43.498-19.475-43.498-43.498s19.475-43.498 43.498-43.498H858.8c24.023 0 43.498 19.475 43.498 43.498s-19.475 43.498-43.498 43.498zM130.494 394.408c-24.023 0-43.498-19.475-43.498-43.498s19.475-43.498 43.498-43.498h658.701c24.023 0 43.498 19.475 43.498 43.498s-19.475 43.498-43.498 43.498zM43.498 160.329C19.475 160.329 0 140.854 0 116.831s19.475-43.498 43.498-43.498h989.293c24.023 0 43.498 19.475 43.498 43.498s-19.475 43.498-43.498 43.498z"/></svg>