<svg width="64" height="64" viewBox="0 0 1308 1308" xmlns="http://www.w3.org/2000/svg"><path d="M382.976 1012.951a38.463 38.463 0 01-9.555-1.431l.27.065a20.681 20.681 0 01-2.636-.799l.144.048c-3.336-1.093-6.227-2.469-8.901-4.158l.163.096-.922-.717a38.932 38.932 0 01-6.626-5.837l-.03-.034c-.58-.649-1.161-1.263-1.707-1.911a38.754 38.754 0 01-5.055-8.254l-.099-.245c0-.239-.273-.375-.375-.614-.375-.887-.512-1.775-.785-2.628a32.16 32.16 0 01-1.072-3.434l-.055-.253a36.362 36.362 0 01-.635-4.065l-.014-.167c0-.785-.307-1.468-.341-2.253s0-1.297 0-1.946v-.546a295.837 295.837 0 01-.375-14.609c0-171.01 138.631-309.641 309.641-309.641s309.641 138.631 309.641 309.641c0 4.847 0 9.591-.41 14.336v2.731c0 .512-.205 1.161-.273 1.741a41.362 41.362 0 01-.802 5.189l.051-.274a40.588 40.588 0 01-1.358 4.421l.095-.291c-.239.683-.341 1.365-.614 2.048l-.341.614a36.485 36.485 0 01-3.492 6.228l.078-.119v.205c-5.475 8.14-13.869 13.956-23.651 15.967l-.242.042h-.683c-1.42.252-3.112.435-4.833.509l-.082.003h-4.574a20.694 20.694 0 01-2.661-.4l.136.025a25.968 25.968 0 01-4.103-.651l.178.036a37.13 37.13 0 01-4.461-1.349l.262.086c-.717-.239-1.434-.375-2.15-.649-73.474-30.258-158.773-47.826-248.175-47.826-2.547 0-5.091.014-7.632.043l.387-.003a645.074 645.074 0 00-7.251-.039c-89.399 0-174.695 17.567-252.625 49.438l4.456-1.612c-.785.341-1.604.478-2.423.751s-2.458.853-3.755 1.161a39.496 39.496 0 01-4.31.699l-.196.017c-.717 0-1.399.273-2.116.341h-2.219zm42.906-95.198c67.171-21.013 144.407-33.118 224.47-33.118 1.257 0 2.513.003 3.768.009l-.194-.001c1.044-.005 2.279-.008 3.514-.008 80.07 0 157.315 12.092 230.01 34.55l-5.514-1.466C861.676 808.7 767.304 727.252 653.908 727.252S446.14 808.701 426.102 916.287l-.222 1.432zm682.257 80.487c-21.453 0-38.844-17.391-38.844-38.844s17.391-38.844 38.844-38.844h160.836c21.453 0 38.844 17.391 38.844 38.844s-17.391 38.844-38.844 38.844zm-1069.295 0C17.391 998.24 0 980.849 0 959.396s17.391-38.844 38.844-38.844H199.68c21.453 0 38.844 17.391 38.844 38.844s-17.391 38.844-38.844 38.844zM947.61 665.679c-7.017-7.032-11.357-16.74-11.357-27.46s4.339-20.428 11.357-27.461l113.731-113.731c7.16-8.203 17.635-13.357 29.313-13.357 21.453 0 38.844 17.391 38.844 38.844 0 11.67-5.146 22.138-13.293 29.258l-.046.039-113.732 113.732c-7.029 7.026-16.737 11.371-27.46 11.371s-20.432-4.345-27.46-11.371zm-642.39 0L191.522 551.81c-7.035-7.031-11.386-16.746-11.386-27.477 0-21.454 17.392-38.847 38.847-38.847 10.723 0 20.431 4.345 27.46 11.37l113.732 113.732c7.386 7.083 11.976 17.032 11.976 28.053 0 21.453-17.391 38.844-38.844 38.844-11.021 0-20.97-4.59-28.04-11.963l-.013-.014zm309.829-160.427V344.177c0-21.453 17.391-38.844 38.844-38.844s38.844 17.391 38.844 38.844v160.87c0 21.453-17.391 38.844-38.844 38.844s-38.844-17.391-38.844-38.844z"/></svg>