<svg width="64" height="64" viewBox="0 0 1308 1308" xmlns="http://www.w3.org/2000/svg"><path d="M412.092 1152.147c-42.003-52.375-67.41-119.632-67.41-192.824 0-170.925 138.562-309.487 309.487-309.487s309.487 138.562 309.487 309.487c0 76.484-27.745 146.489-73.719 200.497l.363-.437c-.205.273-.478.41-.717.683a36.904 36.904 0 01-4.028 3.804l-.068.053c-.683.546-1.297 1.195-2.014 1.707a37.14 37.14 0 01-4.936 2.973l-.218.099c-.649.341-1.263.751-1.911 1.058-2.035.931-4.428 1.741-6.914 2.307l-.254.049c-1.024.239-2.082.273-3.072.444-1.372.23-3.018.401-4.689.475l-.09.003h-.751a42.456 42.456 0 01-5.592-.473l.234.029h-.922c-2.765-.476-5.208-1.151-7.548-2.038l.277.092h-.205c-57.254-22.391-123.543-35.367-192.863-35.367-69.556 0-136.061 13.065-197.194 36.876l3.702-1.269-1.092.307-1.536.41c-3.355 1.142-7.221 1.825-11.239 1.877h-.025c-15.02-.035-28.03-8.605-34.441-21.115l-.102-.219zm9.967-192.853c.083 48.044 14.75 92.647 39.809 129.635l-.521-.816c57.537-19.418 123.801-30.625 192.683-30.625s135.146 11.206 197.069 31.895l-4.386-1.271c24.503-36.199 39.117-80.832 39.117-128.879 0-128.057-103.811-231.868-231.868-231.868S422.094 831.176 422.094 959.233v.063-.003zm686.08 38.809c-21.453 0-38.844-17.391-38.844-38.844s17.391-38.844 38.844-38.844h160.836c21.453 0 38.844 17.391 38.844 38.844s-17.391 38.844-38.844 38.844zm-1069.295 0C17.391 998.103 0 980.712 0 959.259s17.391-38.844 38.844-38.844h160.939c21.453 0 38.844 17.391 38.844 38.844s-17.391 38.844-38.844 38.844zM947.61 665.542c-7.036-7.03-11.388-16.746-11.388-27.477s4.352-20.447 11.387-27.477l113.733-113.733c7.032-7.032 16.747-11.381 27.477-11.381 21.461 0 38.859 17.398 38.859 38.859 0 10.731-4.349 20.445-11.381 27.477l-113.698 113.732c-7.034 7.027-16.748 11.374-27.477 11.374s-20.443-4.346-27.478-11.374zm-642.39 0L191.624 551.81c-7.035-7.031-11.386-16.746-11.386-27.477 0-21.454 17.392-38.847 38.847-38.847 10.723 0 20.431 4.345 27.46 11.37l113.732 113.732c7.386 7.083 11.976 17.032 11.976 28.053 0 21.453-17.391 38.844-38.844 38.844-11.021 0-20.97-4.59-28.04-11.963l-.013-.014zm309.829-160.427V344.176c0-21.453 17.391-38.844 38.844-38.844s38.844 17.391 38.844 38.844v160.87c0 21.453-17.391 38.844-38.844 38.844s-38.844-17.391-38.844-38.844z"/></svg>