<svg width="64" height="64" viewBox="0 0 1183 1183" xmlns="http://www.w3.org/2000/svg"><path d="M539.825 1195.549c-5.419-5.413-8.772-12.894-8.772-21.158s3.352-15.745 8.772-21.158l36.636-36.583h-11.966a30.438 30.438 0 01-6.035-.639l.197.034c-.92-.184-1.736-.526-2.63-.789a27.458 27.458 0 01-3.14-.986l.194.065a30.239 30.239 0 01-3.136-1.656l.138.078c-.71-.394-1.473-.71-2.157-1.157-3.31-2.244-6.076-5.018-8.242-8.229l-.068-.108c-.473-.684-.763-1.446-1.157-2.13a28.997 28.997 0 01-1.498-2.807l-.08-.191a25.65 25.65 0 01-.876-2.744l-.045-.201c-.263-.894-.605-1.736-.789-2.63-.366-1.763-.576-3.79-.576-5.865s.21-4.102.609-6.059l-.033.194c.263-1.078.534-1.956.847-2.813l-.059.183a18.154 18.154 0 012.541-6.039l-.042.069a20.33 20.33 0 011.208-2.216l-.051.086a30.719 30.719 0 013.787-4.602l84.159-84.159c5.457-5.691 13.123-9.228 21.615-9.228 16.529 0 29.929 13.4 29.929 29.929 0 8.492-3.537 16.158-9.217 21.605l-.011.01-33.137 33.137h11.966c2.077.003 4.103.213 6.06.612l-.196-.033c1.065.255 1.943.526 2.798.844l-.168-.055c1.201.295 2.184.602 3.143.959l-.197-.064a29.457 29.457 0 013.155 1.679l-.131-.075c.86.413 1.558.798 2.233 1.216l-.103-.059c3.325 2.228 6.1 4.995 8.269 8.205l.067.106c.351.571.728 1.269 1.07 1.987l.061.143a27.633 27.633 0 011.529 2.845l.075.18c.294.758.6 1.732.853 2.727l.041.192c.263.868.605 1.709.815 2.63.359 1.763.564 3.79.564 5.865s-.205 4.102-.597 6.061l.033-.196a22.88 22.88 0 01-.869 2.79l.054-.16a27.148 27.148 0 01-.957 3.111l.063-.191a29.865 29.865 0 01-1.68 3.158l.076-.133a23.413 23.413 0 01-1.216 2.233l.059-.102a30.597 30.597 0 01-3.787 4.602l-87.657 87.684c-5.413 5.419-12.894 8.772-21.158 8.772s-15.745-3.352-21.158-8.772zm-119.216-158.534c-5.419-5.413-8.772-12.894-8.772-21.158s3.352-15.745 8.772-21.158l93.968-93.995h-66.985a30.695 30.695 0 01-6.061-.612l.196.033c-.92-.184-1.762-.526-2.63-.789a27.88 27.88 0 01-3.144-.987l.199.066a30.239 30.239 0 01-3.136-1.656l.138.078c-.71-.394-1.473-.71-2.157-1.183-3.312-2.233-6.078-4.999-8.243-8.204l-.068-.107c-.447-.684-.789-1.446-1.183-2.157a27.562 27.562 0 01-1.502-2.816l-.076-.182a24.463 24.463 0 01-.878-2.754l-.042-.191a21.53 21.53 0 01-.73-2.465l-.033-.165c-.37-1.763-.582-3.789-.582-5.865s.212-4.102.616-6.058l-.033.193a24.82 24.82 0 01.819-2.81l-.056.18c.297-1.188.612-2.17.982-3.125l-.061.18a27.037 27.037 0 011.646-3.145l-.068.12c.394-.684.71-1.446 1.157-2.13a29.7 29.7 0 013.785-4.6l88.184-88.184H215.894C96.66 761.369.001 664.71.001 545.476S96.66 329.583 215.894 329.583c3.34 0 6.68.263 10.02.447 50.716-89.945 145.63-149.689 254.497-149.689 136.738 0 251.463 94.25 282.755 221.33l.416 1.998c36.352-33.048 84.868-53.282 138.11-53.282 111.137 0 201.682 88.165 205.51 198.369l.01.35c44.327 14.396 75.807 55.332 75.807 103.62 0 60.046-48.677 108.722-108.722 108.722H828.805l-24.406 24.406H816.389a29.9 29.9 0 016.033.612l-.192-.033c1.065.256 1.943.526 2.798.844l-.168-.055a27.74 27.74 0 013.143.959l-.198-.064a26.61 26.61 0 013.139 1.671l-.115-.067c.86.413 1.557.798 2.233 1.216l-.103-.059c3.323 2.23 6.097 4.997 8.269 8.205l.068.106c.364.584.741 1.282 1.078 2.004l.053.127a27.633 27.633 0 011.529 2.845l.075.18c.292.755.598 1.729.852 2.724l.042.195c.263.894.605 1.736.815 2.63.359 1.763.565 3.79.565 5.865s-.206 4.101-.597 6.061l.033-.196a21.468 21.468 0 01-.866 2.779l.051-.149a27.223 27.223 0 01-.957 3.111l.063-.192a30.6 30.6 0 01-1.683 3.163l.079-.139c-.413.86-.798 1.557-1.216 2.233l.059-.103a30.597 30.597 0 01-3.787 4.602l-87.71 87.736c-5.457 5.691-13.123 9.228-21.615 9.228-16.529 0-29.929-13.4-29.929-29.929 0-8.492 3.537-16.158 9.217-21.605l.011-.01 36.635-36.583h-11.966a29.831 29.831 0 01-6.032-.639l.193.034a25.854 25.854 0 01-2.815-.848l.185.059a27.458 27.458 0 01-3.14-.986l.194.065a30.35 30.35 0 01-3.137-1.656l.138.078c-.71-.394-1.446-.71-2.13-1.157-3.311-2.234-6.077-5-8.243-8.204l-.068-.107a22.421 22.421 0 01-1.094-2.011l-.063-.146a28.701 28.701 0 01-1.498-2.808l-.08-.19a25.65 25.65 0 01-.876-2.744l-.045-.201c-.263-.894-.605-1.709-.789-2.63-.363-1.763-.571-3.79-.571-5.865s.208-4.102.604-6.06l-.033.195c.184-.92.526-1.762.789-2.63a18.22 18.22 0 012.541-6.013l-.043.069c.394-.71.684-1.446 1.157-2.157a30.719 30.719 0 013.787-4.602l33.137-33.137H599.311l-79.477 79.451h67.038c2.073.012 4.089.222 6.04.612l-.201-.034c1.05.255 1.927.535 2.778.866l-.149-.051c1.201.295 2.184.602 3.143.959l-.197-.064a29.457 29.457 0 013.155 1.679l-.131-.075c.71.394 1.446.684 2.13 1.131 3.324 2.238 6.099 5.013 8.269 8.23l.068.107c.351.571.728 1.269 1.07 1.987l.061.143a26.347 26.347 0 011.533 2.853l.071.172c.292.755.598 1.729.852 2.724l.042.196c.264.69.535 1.568.755 2.466l.034.164c.367 1.763.577 3.789.577 5.865s-.21 4.102-.61 6.059l.033-.194a23.283 23.283 0 01-.842 2.793l.053-.164a27.491 27.491 0 01-.958 3.114l.064-.195a28.333 28.333 0 01-1.676 3.149l.072-.125c-.413.86-.798 1.557-1.216 2.233l.059-.103a30.597 30.597 0 01-3.787 4.602l-145.096 145.069c-5.413 5.419-12.894 8.772-21.158 8.772s-15.745-3.352-21.158-8.772zm359.91-562.574c60.182 19.133 103.021 74.519 103.021 139.91 0 32.855-10.815 63.185-29.078 87.623l.275-.384h219.496c26.967-.026 48.818-21.894 48.818-48.865 0-26.987-21.877-48.865-48.865-48.865a48.671 48.671 0 00-31.584 11.578l.071-.059a29.773 29.773 0 01-19.304 7.055c-16.533 0-29.936-13.403-29.936-29.936 0-9.157 4.111-17.354 10.589-22.845l.043-.036a107.737 107.737 0 0142.457-22.082l.754-.167c-4.734-76.802-68.18-137.298-145.755-137.298-50.146 0-94.387 25.278-120.677 63.787l-.324.503zM59.91 545.45c.105 86.134 69.902 155.931 156.025 156.035h520.752c48.034 0 86.973-38.939 86.973-86.973s-38.939-86.973-86.973-86.973c-21.453 0-41.092 7.767-56.258 20.643l.125-.103a29.77 29.77 0 01-19.343 7.09c-16.531 0-29.931-13.401-29.931-29.931 0-9.136 4.093-17.316 10.546-22.806l.042-.035c19.151-16.261 42.83-27.766 68.885-32.402l.888-.131c-.997-126.943-104.136-229.466-231.219-229.466-79.498 0-149.626 40.12-191.242 101.216l-.515.802c23.764 8.602 44.315 20.283 62.466 34.835l-.425-.329c6.876 5.533 11.239 13.947 11.239 23.38 0 16.534-13.404 29.938-29.938 29.938a29.812 29.812 0 01-18.757-6.603l.058.045c-26.25-21.295-60.068-34.19-96.898-34.19l-.433.001h.022c-86.194.03-156.066 69.874-156.141 156.055v.007z"/></svg>