<svg width="64" height="64" viewBox="0 0 1426 1426" xmlns="http://www.w3.org/2000/svg"><path d="M280.337 867.135l.497-.001c47.812 0 91.715 16.735 126.171 44.668l-.374-.294c6.59 5.305 15.061 8.516 24.282 8.516 12.233 0 23.147-5.65 30.273-14.483l.058-.074c5.305-6.586 8.516-15.053 8.516-24.271 0-12.244-5.665-23.164-14.516-30.284l-.075-.059c-23.001-18.473-49.676-33.635-78.577-44.164l-1.943-.619c54.82-80.261 145.784-132.33 248.926-132.608h.043c165.001.131 298.859 133.282 300.134 297.999l.001.121c-34.969 6.181-65.702 21.115-90.829 42.45l.274-.227c-8.383 7.175-13.662 17.767-13.662 29.591 0 9.558 3.449 18.31 9.17 25.079l-.047-.058c7.175 8.383 17.767 13.662 29.591 13.662 9.558 0 18.31-3.449 25.079-9.17l-.058.047c19.517-16.577 45.001-26.658 72.841-26.658 62.31.078 112.801 50.569 112.879 112.871v.008c-.058 62.325-50.557 112.835-112.871 112.913H280.273c-111.795-.136-202.382-90.747-202.479-202.538v-.009c.155-111.75 90.724-202.294 202.468-202.411h.011zm763.358-362.769c-3.701 11.987-6.933 26.523-9.063 41.416l-.187 1.592c-1.794 12.249-2.818 26.391-2.818 40.772 0 149.051 110.027 272.404 253.291 293.27l1.601.191c12.4 1.854 26.71 2.912 41.268 2.912.888 0 1.775-.004 2.661-.012l-.136.001c-42.007 86.848-126.877 147.052-226.383 153.288l-.774.039c-25.687-30.837-60.483-53.295-100.231-63.277l-1.315-.28v-.717c-.048-127.521-63.283-240.263-160.093-308.623l-1.187-.795c36.15-83.572 111.26-144.238 201.79-159.524l1.576-.22zm-763.358 845.448h675.84c105.212-.117 190.469-85.386 190.566-190.591v-.009c-.066-16.904-2.328-33.251-6.517-48.809l.305 1.329c140.103-22.76 250.886-126.596 283.569-260.994l.489-2.378c.637-2.636 1.003-5.662 1.003-8.773 0-10.213-3.938-19.506-10.378-26.443l.023.025c-7.111-7.675-17.245-12.462-28.496-12.462-2.074 0-4.11.163-6.096.476l.22-.029-15.428 2.389c-11.367 2.093-24.448 3.29-37.809 3.29a220.76 220.76 0 01-31.636-2.269l1.178.14c-106.864-15.438-188.058-106.402-188.058-216.328 0-10.658.763-21.138 2.238-31.388l-.138 1.171c3.996-28.074 12.756-53.396 25.485-76.202l-.568 1.108c3.491-5.521 5.628-12.205 5.802-19.375l.001-.047c.009-.32.015-.697.015-1.076 0-20.731-16.254-37.665-36.714-38.754l-.097-.004c-5.343-.295-11.597-.463-17.89-.463-139.238 0-259.266 82.243-314.157 200.801l-.889 2.141c-43.711-19.288-94.679-30.515-148.269-30.515h-.366.019c-141.253.346-264.338 77.796-329.429 192.475l-.982 1.88c-4.335-.205-8.67-.546-13.005-.546C125.507 789.759.176 915.089.002 1069.734v.017c.155 154.683 125.489 280.04 280.148 280.235h.019z"/></svg>