<svg width="64" height="64" viewBox="0 0 1024 1024" xmlns="http://www.w3.org/2000/svg"><path d="M833.042 649.417h.361c27.485 0 54.381-2.523 80.468-7.351l-2.708.416c-48.885 175.893-207.61 302.835-395.985 302.835-.824 0-1.648-.002-2.471-.007l.127.001c-227.968-.275-412.695-185.017-412.944-412.964v-.024c1.123-188.504 127.404-347.21 299.889-397.291l2.94-.731c-4.383 23.329-6.891 50.169-6.891 77.593v.278-.014c.2 241.395 195.822 437.034 437.193 437.258h.022zM512.263 41.39c-9.129-12.216-23.553-20.04-39.804-20.04-1.577 0-3.137.074-4.676.218l.197-.015C205.368 46.756 1.459 265.566.001 532.307l-.001.148c.349 283.099 229.739 512.503 512.798 512.878h.036c.758.004 1.655.006 2.552.006 266.353 0 485.011-204.209 507.95-464.603l.137-1.935c.126-1.332.198-2.881.198-4.446 0-15.565-7.12-29.467-18.281-38.626l-.087-.07c-8.519-7.016-19.541-11.271-31.557-11.271-5.102 0-10.024.767-14.659 2.192l.353-.093-22.339 6.671c-31.028 10.409-66.757 16.414-103.889 16.414h-.318.017c-186.147-.2-336.994-151.047-337.193-337.174v-.019l-.001-.772c0-43.943 8.443-85.915 23.796-124.38l-.798 2.265c2.187-5.416 3.456-11.696 3.456-18.272a49.811 49.811 0 00-10.087-30.131l.091.126z"/></svg>