<svg width="64" height="64" viewBox="0 0 972 972" xmlns="http://www.w3.org/2000/svg"><path d="M312.181 985.789c-4.793-4.795-7.757-11.418-7.757-18.733s2.964-13.938 7.757-18.733l32.459-32.459h-10.571a25.934 25.934 0 01-5.362-.566l.169.03c-.792-.14-1.537-.466-2.328-.675a20.733 20.733 0 01-2.75-.864l.142.049a26.853 26.853 0 01-2.777-1.466l.122.069a18.314 18.314 0 01-1.96-1.092l.074.045a26.842 26.842 0 01-7.321-7.264l-.06-.094c-.419-.652-.722-1.351-1.094-2.026a26.214 26.214 0 01-1.254-2.343l-.073-.172c-.349-.885-.582-1.816-.862-2.724a16.917 16.917 0 01-.63-2.207l-.022-.121c-.325-1.561-.511-3.355-.511-5.193s.186-3.631.54-5.364l-.029.172c.163-.792.442-1.514.675-2.328s.489-1.816.838-2.701a27.236 27.236 0 011.398-2.641l-.071.126c.373-.675.675-1.397 1.118-2.049a27.739 27.739 0 013.262-3.984l74.509-74.509a26.425 26.425 0 0118.744-7.764c14.64 0 26.509 11.868 26.509 26.509 0 7.32-2.967 13.947-7.764 18.744l-29.316 29.316h10.643c1.812 0 3.581.187 5.288.541l-.168-.029c.954.233 1.731.472 2.49.75l-.162-.052c1.037.258 1.892.529 2.724.846l-.162-.054c1.076.49 1.962.964 2.816 1.485l-.114-.065c.629.349 1.257.605 1.863 1.001a26.895 26.895 0 017.298 7.264l.06.094c.419.629.722 1.327 1.094 2.003.443.708.893 1.549 1.292 2.418l.059.143c.267.687.554 1.587.795 2.506l.043.195c.221.612.446 1.391.625 2.188l.027.141c.337 1.559.532 3.352.536 5.19v.003a26.242 26.242 0 01-.541 5.268l.029-.169c-.163.815-.489 1.607-.699 2.328a22 22 0 01-.843 2.69l.052-.152a23.694 23.694 0 01-1.481 2.806l.06-.105c-.349.629-.605 1.257-1.001 1.863a27.729 27.729 0 01-3.332 4.077l-77.63 77.63c-4.796 4.8-11.423 7.768-18.744 7.768s-13.948-2.969-18.744-7.768zM206.63 845.427c-4.794-4.799-7.759-11.425-7.759-18.744s2.965-13.946 7.759-18.745l83.22-83.197h-59.307a28.135 28.135 0 01-5.348-.542l.178.03c-.792-.163-1.537-.466-2.328-.675a19.029 19.029 0 01-2.783-.884l.129.046a25.199 25.199 0 01-2.701-1.416l.116.065a21.245 21.245 0 01-2.074-1.126l.095.054a26.758 26.758 0 01-7.298-7.241l-.06-.094c-.419-.605-.699-1.281-1.048-1.909a15.585 15.585 0 01-2.306-5.154l-.022-.108a20.58 20.58 0 01-.664-2.166l-.035-.163c-.324-1.558-.509-3.348-.509-5.181s.185-3.623.538-5.352l-.029.171c.23-.949.47-1.726.749-2.485l-.05.156c.263-1.051.542-1.921.869-2.767l-.054.159c.483-1.06.957-1.938 1.481-2.782l-.06.104c.366-.761.707-1.379 1.077-1.977l-.052.091a28.224 28.224 0 013.332-4.078l78.001-78.001h-98.542C85.578 601.516-.001 515.937-.001 410.37s85.579-191.146 191.146-191.146c2.98 0 5.914.256 8.872.396C245.095 140.115 329.06 87.29 425.382 87.059h.281c36.552 0 71.318 7.65 102.782 21.437l-1.648-.644C564.648 25.496 646.428-30.659 741.325-30.659c4.438 0 8.847.123 13.225.365l-.608-.027c14.012.758 25.087 12.305 25.087 26.439 0 .25-.003.5-.01.748l.001-.037a26.036 26.036 0 01-4.022 13.38l.063-.108c-11.656 20.753-18.521 45.551-18.521 71.952 0 82.303 66.72 149.023 149.023 149.023 9.137 0 18.082-.822 26.765-2.397l-.909.137 10.571-1.607a25.669 25.669 0 013.972-.299c14.635 0 26.498 11.864 26.498 26.498 0 2.13-.251 4.2-.726 6.185l.036-.18c-22.623 93.309-98.2 164.146-192.41 179.483l-1.367.184c2.695 9.865 4.243 21.191 4.243 32.879 0 71.527-57.984 129.511-129.511 129.511l-.496-.001h-84.312l-21.515 21.515h10.595c1.842.007 3.634.202 5.364.566l-.172-.03c.954.233 1.731.472 2.49.75l-.162-.052a25.87 25.87 0 012.77.877l-.185-.062c1.06.483 1.938.957 2.782 1.481l-.105-.06c.629.349 1.281.629 1.886 1.025a26.65 26.65 0 017.275 7.263l.06.095c.343.543.708 1.199 1.038 1.875l.056.128c.43.698.881 1.537 1.285 2.404l.066.158c.271.695.558 1.596.797 2.516l.041.185c.222.612.446 1.391.625 2.188l.027.141c.337 1.559.532 3.352.536 5.19v.003a26.242 26.242 0 01-.541 5.268l.029-.169a19.31 19.31 0 01-.767 2.462l.046-.134c-.233.722-.442 1.723-.768 2.538a26.47 26.47 0 01-1.488 2.821l.068-.12c-.349.629-.605 1.257-1.001 1.863a26.823 26.823 0 01-3.352 4.074l-77.633 77.633a26.418 26.418 0 01-18.744 7.768c-14.636 0-26.5-11.865-26.5-26.5a26.418 26.418 0 017.756-18.733l32.436-32.436h-10.595a25.686 25.686 0 01-5.337-.566l.168.03c-.815-.14-1.56-.466-2.328-.675a25.239 25.239 0 01-2.788-.875l.18.06a26.122 26.122 0 01-2.773-1.464l.119.067c-.629-.349-1.281-.629-1.909-1.048a26.589 26.589 0 01-7.298-7.264l-.06-.094c-.442-.652-.722-1.351-1.094-2.003a23.594 23.594 0 01-1.262-2.381l-.065-.157a23.735 23.735 0 01-.796-2.534l-.042-.191a18.638 18.638 0 01-.626-2.19l-.026-.139a25.788 25.788 0 01-.536-5.187v-.006c.007-1.808.193-3.569.542-5.271l-.029.171c.163-.815.489-1.583.699-2.328s.466-1.723.792-2.561a29.222 29.222 0 011.496-2.837l-.076.136c.349-.605.629-1.281 1.025-1.886a26.957 26.957 0 013.33-4.076l29.268-29.268H364.738l-70.274 70.274h59.33c1.839.003 3.633.19 5.366.542l-.174-.029c.792.163 1.537.466 2.328.675 1.074.273 1.959.56 2.82.895l-.166-.057c1.039.474 1.886.925 2.705 1.418l-.121-.067c.652.373 1.351.652 1.979 1.094a26.568 26.568 0 017.299 7.241l.059.093c.396.605.675 1.257 1.025 1.886a23.25 23.25 0 011.357 2.526l.063.152c.265.668.543 1.529.776 2.409l.039.175c.233.792.536 1.537.699 2.328.324 1.558.509 3.348.509 5.181s-.185 3.623-.538 5.352l.029-.171c-.163.815-.466 1.56-.699 2.328a24.518 24.518 0 01-.873 2.757l.058-.172a21.898 21.898 0 01-1.474 2.77l.054-.092c-.344.742-.686 1.36-1.064 1.953l.04-.067a28.738 28.738 0 01-3.317 4.202l.01-.011-128.416 128.416c-4.799 4.794-11.425 7.759-18.744 7.759s-13.946-2.965-18.745-7.759zM52.95 410.302c.079 76.262 61.867 138.067 138.116 138.173h461.261c42.52-.011 76.984-34.482 76.984-77.003 0-42.528-34.475-77.003-77.003-77.003-18.981 0-36.359 6.868-49.783 18.254l.111-.092a26.366 26.366 0 01-17.126 6.275c-14.641 0-26.509-11.869-26.509-26.509 0-8.094 3.628-15.341 9.346-20.203l.038-.031a129.122 129.122 0 0160.991-28.688l.784-.115c-.754-112.491-92.12-203.391-204.717-203.391-70.443 0-132.576 35.579-169.41 89.747l-.457.713c21.041 7.62 39.236 17.971 55.304 30.864l-.375-.291c5.524 4.88 8.989 11.98 8.989 19.889 0 14.635-11.864 26.498-26.498 26.498a26.382 26.382 0 01-15.676-5.132l.074.052c-23.241-18.854-53.183-30.271-85.791-30.271l-.383.001h.02c-76.342.027-138.219 61.92-138.219 138.266zm520.254-276.531c66.866 47.167 110.014 124.08 110.044 211.073v.494c28.01 7.008 51.745 22.327 69.103 43.147l.169.209c68.409-4.281 126.305-45.351 154.482-103.5l.479-1.096c-.464.004-1.012.006-1.561.006-111.701 0-202.253-90.552-202.253-202.253 0-20.345 3.004-39.988 8.592-58.51l-.371 1.432c-62.817 10.602-114.035 51.99-138.228 107.813l-.457 1.184z"/></svg>