<svg width="64" height="64" viewBox="0 0 1114 1114" xmlns="http://www.w3.org/2000/svg"><path d="M283.765 1107.768c0-15.224 12.341-27.565 27.565-27.565s27.565 12.341 27.565 27.565c0 15.224-12.341 27.565-27.565 27.565-15.224 0-27.565-12.341-27.565-27.565zm78.881-78.88c0-15.224 12.341-27.565 27.565-27.565s27.565 12.341 27.565 27.565c0 15.224-12.341 27.565-27.565 27.565-15.224 0-27.565-12.341-27.565-27.565zm222.657-35.971c0-15.224 12.341-27.565 27.565-27.565s27.565 12.341 27.565 27.565c0 15.224-12.341 27.565-27.565 27.565-15.224 0-27.565-12.341-27.565-27.565zm-424.127 0c0-15.224 12.341-27.565 27.565-27.565s27.565 12.341 27.565 27.565c0 15.224-12.341 27.565-27.565 27.565h-.028.001c-15.212-.015-27.539-12.351-27.539-27.565zm280.323-42.883c0-15.224 12.341-27.565 27.565-27.565s27.565 12.341 27.565 27.565c0 15.224-12.341 27.565-27.565 27.565-15.224 0-27.565-12.341-27.565-27.565zm222.657-35.971c0-15.224 12.341-27.565 27.565-27.565s27.565 12.341 27.565 27.565c0 15.224-12.341 27.565-27.565 27.565-15.224 0-27.565-12.341-27.565-27.565zm-424.047 0c0-15.224 12.341-27.565 27.565-27.565s27.565 12.341 27.565 27.565c0 15.224-12.341 27.565-27.565 27.565-15.224 0-27.565-12.341-27.565-27.565zm-21.054-78.266c-.719.009-1.568.013-2.418.013-120.981 0-219.055-98.074-219.055-219.055S95.656 397.7 216.637 397.7c.85 0 1.699.005 2.547.015l-.129-.001c3.416 0 6.778.267 10.167.427 51.452-91.287 147.769-151.927 258.25-151.927 42.017 0 81.985 8.771 118.174 24.581l-1.903-.741c43.408-94.364 137.134-158.701 245.887-158.701 5.036 0 10.039.138 15.007.41l-.691-.03c16.068.875 28.765 14.117 28.765 30.325a30.233 30.233 0 01-3.973 15.028l.078-.149c-13.742 24.056-21.844 52.866-21.844 83.57 0 94.32 76.462 170.782 170.782 170.782 10.454 0 20.688-.939 30.623-2.738l-1.041.156 12.088-1.841a29.441 29.441 0 014.545-.342c16.786 0 30.394 13.608 30.394 30.394 0 2.43-.285 4.794-.824 7.059l.041-.207c-25.92 106.937-112.534 188.12-220.504 205.689l-1.566.21c3.083 11.297 4.855 24.268 4.855 37.653 0 81.985-66.462 148.447-148.447 148.447l-.532-.001h.027zM60.761 616.715c.091 87.392 70.904 158.214 158.284 158.321h528.378c48.737 0 88.246-39.509 88.246-88.246s-39.509-88.246-88.246-88.246c-21.767 0-41.694 7.881-57.082 20.946l.127-.105a30.266 30.266 0 01-20.613 8.058c-16.786 0-30.394-13.608-30.394-30.394 0-9.766 4.606-18.457 11.765-24.018l.069-.051c19.438-16.505 43.474-28.18 69.922-32.877l.899-.132c-.879-128.905-105.579-233.062-234.607-233.062-80.729 0-151.934 40.774-194.146 102.851l-.524.817c24.104 8.729 44.948 20.59 63.35 35.369l-.427-.332c7.7 5.579 12.65 14.543 12.65 24.663 0 16.771-13.596 30.367-30.367 30.367a30.257 30.257 0 01-20.258-7.744l.029.025c-26.638-21.607-60.954-34.691-98.327-34.691l-.429.001h.022c-87.454.046-158.34 70.921-158.401 158.368v.006zm596.084-316.934c76.616 54.061 126.052 142.202 126.085 241.892V542.238c32.088 8.041 59.277 25.594 79.166 49.447l.194.24c78.398-4.906 144.747-51.972 177.038-118.612l.549-1.256c-.553.005-1.207.007-1.861.007-127.981 0-231.73-103.749-231.73-231.73 0-23.335 3.449-45.864 9.865-67.106l-.426 1.641c-71.973 12.152-130.653 59.585-158.358 123.554l-.523 1.357z"/></svg>