<svg width="64" height="64" viewBox="0 0 1424 1424" xmlns="http://www.w3.org/2000/svg"><path d="M1346.458 1133.423c0-350.371-284.032-634.402-634.402-634.402S77.654 783.053 77.654 1133.423c0 21.453-17.391 38.844-38.844 38.844s-38.844-17.391-38.844-38.844a678.317 678.317 0 01-.017-4.93c0-393.276 318.813-712.09 712.09-712.09s712.09 318.813 712.09 712.09a691.7 691.7 0 01-.019 5.196l.001-.266c0 21.453-17.391 38.844-38.844 38.844s-38.844-17.391-38.844-38.844zm-155.409 0c0-264.541-214.453-478.993-478.993-478.993s-478.993 214.453-478.993 478.993c0 21.453-17.391 38.844-38.844 38.844s-38.844-17.391-38.844-38.844c0-307.446 249.234-556.681 556.681-556.681s556.681 249.234 556.681 556.681c0 21.453-17.391 38.844-38.844 38.844s-38.844-17.391-38.844-38.844zm-155.41 0c0-178.72-144.881-323.601-323.601-323.601s-323.601 144.881-323.601 323.601c0 21.453-17.391 38.844-38.844 38.844s-38.844-17.391-38.844-38.844c0-221.626 179.663-401.289 401.289-401.289s401.289 179.663 401.289 401.289c0 21.453-17.391 38.844-38.844 38.844s-38.844-17.391-38.844-38.844zm-155.409 0c.011-.713.017-1.554.017-2.396 0-92.899-75.31-168.209-168.209-168.209s-168.209 75.31-168.209 168.209c0 .842.006 1.684.019 2.523l-.001-.127c0 21.453-17.391 38.844-38.844 38.844s-38.844-17.391-38.844-38.844c0-135.805 110.092-245.897 245.897-245.897s245.897 110.092 245.897 245.897c0 21.453-17.391 38.844-38.844 38.844s-38.844-17.391-38.844-38.844z"/></svg>