<svg width="64" height="64" viewBox="0 0 1392 1392" xmlns="http://www.w3.org/2000/svg"><path d="M491.685 1403.028c-6.378-6.374-10.324-15.181-10.324-24.911s3.946-18.537 10.324-24.91l182.266-182.235c6.421-6.696 15.441-10.858 25.433-10.858 19.449 0 35.215 15.766 35.215 35.215 0 9.992-4.161 19.012-10.845 25.421l-182.278 182.278c-6.372 6.369-15.174 10.309-24.895 10.309s-18.523-3.939-24.895-10.309zm362.891-146.4c-6.378-6.374-10.324-15.181-10.324-24.911s3.946-18.537 10.324-24.91l133.868-133.868H596.247l-183.658 183.689c-6.421 6.696-15.441 10.858-25.433 10.858-19.449 0-35.215-15.766-35.215-35.215 0-9.992 4.161-19.012 10.845-25.421l.012-.012 133.868-133.713h-242.64c-.833.01-1.818.015-2.804.015-140.295 0-254.027-113.732-254.027-254.027s113.732-254.027 254.027-254.027c.986 0 1.97.006 2.953.017l-.15-.001c3.93 0 7.86.309 11.79.495 59.658-105.895 171.37-176.242 299.512-176.242 160.797 0 295.723 110.769 332.635 260.163l.492 2.353c42.774-38.905 99.87-62.727 162.53-62.727 130.817 0 237.383 103.829 241.786 233.573l.011.403c52.412 16.786 89.691 65.079 89.691 122.079 0 70.652-57.275 127.927-127.927 127.927l-.536-.001h-175.956l-183.658 183.504c-6.372 6.369-15.174 10.309-24.895 10.309s-18.523-3.939-24.895-10.309zM70.431 818.911c.106 101.35 82.22 183.487 183.552 183.627h613.189c56.403-.152 102.068-45.911 102.068-102.335 0-56.518-45.817-102.335-102.335-102.335-25.242 0-48.35 9.139-66.195 24.289l.147-.122c-6.095 5.187-14.059 8.343-22.76 8.343-19.45 0-35.218-15.768-35.218-35.218 0-10.75 4.816-20.374 12.408-26.834l.05-.041c22.534-19.133 50.395-32.67 81.053-38.125l1.044-.154c-1.002-149.497-122.424-270.302-272.062-270.302-93.617 0-176.19 47.283-225.141 119.271l-.608.947c27.976 10.1 52.17 23.847 73.526 40.985l-.496-.385c8.218 6.506 13.444 16.482 13.444 27.679 0 19.449-15.766 35.215-35.215 35.215a35.064 35.064 0 01-22.294-7.955l.062.05c-30.887-25.057-70.679-40.229-114.014-40.229l-.509.001h.026c-101.419.035-183.632 82.216-183.72 183.619v.008zm847.892-83.551c70.809 22.503 121.214 87.664 121.214 164.599 0 38.616-12.699 74.267-34.149 103.003l.324-.454h258.267c31.731-.031 57.441-25.761 57.441-57.496 0-31.754-25.742-57.496-57.496-57.496-14.169 0-27.141 5.125-37.163 13.623l.083-.069a35.086 35.086 0 01-23.45 8.933c-19.466 0-35.246-15.78-35.246-35.246 0-11.109 5.139-21.018 13.17-27.478l.068-.053c14.159-12.028 31.231-21.088 49.987-25.983l.886-.196c-5.57-90.368-80.223-161.549-171.5-161.549-59.003 0-111.059 29.743-141.993 75.054l-.382.592z"/></svg>