<svg width="64" height="64" viewBox="0 0 1383 1383" xmlns="http://www.w3.org/2000/svg"><path d="M519.698 1372.587c0-17.533 14.213-31.746 31.746-31.746s31.746 14.213 31.746 31.746-14.213 31.746-31.746 31.746-31.746-14.213-31.746-31.746zm90.842-90.841c.018-17.519 14.224-31.715 31.745-31.715 17.533 0 31.746 14.213 31.746 31.746s-14.213 31.746-31.746 31.746-31.746-14.213-31.746-31.746v-.032.002zm256.423-41.426c0-17.533 14.213-31.746 31.746-31.746s31.746 14.213 31.746 31.746-14.213 31.746-31.746 31.746-31.746-14.213-31.746-31.746zm-488.445 0c0-17.533 14.213-31.746 31.746-31.746s31.746 14.213 31.746 31.746-14.213 31.746-31.746 31.746-31.746-14.213-31.746-31.746zm322.864-49.416c0-17.533 14.213-31.746 31.746-31.746s31.746 14.213 31.746 31.746-14.213 31.746-31.746 31.746-31.746-14.213-31.746-31.746zm256.423-41.426c.018-17.519 14.224-31.715 31.745-31.715 17.533 0 31.746 14.213 31.746 31.746s-14.213 31.746-31.746 31.746-31.746-14.213-31.746-31.746v-.032.002zm-488.414 0c0-17.533 14.213-31.746 31.746-31.746s31.746 14.213 31.746 31.746-14.213 31.746-31.746 31.746-31.746-14.213-31.746-31.746zm391.548-90.135H252.273c-139.327 0-252.274-112.947-252.274-252.274s112.947-252.274 252.274-252.274c3.903 0 7.806.307 11.709.522 59.254-105.133 170.179-174.97 297.414-174.97 159.734 0 293.76 110.068 330.371 258.497l.487 2.336c42.478-38.637 99.181-62.294 161.409-62.294 129.903 0 235.727 103.095 240.116 231.929l.011.402c52.102 16.639 89.172 64.624 89.172 121.267 0 70.164-56.879 127.043-127.043 127.043l-.637-.002h.033zm51.168-335.403c70.307 22.366 120.35 87.078 120.35 163.477 0 38.41-12.649 73.865-34.008 102.429l.321-.448h256.515c31.511-.031 57.045-25.583 57.045-57.099 0-31.535-25.564-57.099-57.099-57.099-14.071 0-26.953 5.09-36.906 13.529l.083-.068c-5.932 4.774-13.557 7.662-21.856 7.662-19.332 0-35.003-15.671-35.003-35.003 0-10.373 4.512-19.692 11.681-26.102l.034-.03c14.051-11.952 30.995-20.959 49.611-25.834l.881-.196c-5.506-89.75-79.64-160.454-170.288-160.454-58.599 0-110.298 29.547-141.01 74.555l-.379.589zM70.068 806.915c.122 100.648 81.681 182.207 182.317 182.329H860.89c56.128 0 101.629-45.501 101.629-101.629S917.018 785.986 860.89 785.986c-25.068 0-48.017 9.076-65.738 24.122l.146-.121a34.808 34.808 0 01-23.126 8.738c-19.315 0-34.972-15.658-34.972-34.972 0-10.927 5.011-20.683 12.86-27.096l.063-.05c22.384-19.01 50.065-32.456 80.526-37.862l1.035-.152C830.586 570.206 710.042 450.34 561.501 450.34c-92.972 0-174.976 46.958-223.589 118.45l-.603.94c27.771 10.036 51.787 23.688 72.988 40.702l-.493-.383c8.162 6.461 13.351 16.368 13.351 27.488 0 19.315-15.658 34.972-34.972 34.972a34.826 34.826 0 01-22.141-7.9l.062.049c-30.674-24.884-70.191-39.951-113.227-39.951l-.506.001h.026c-100.719.035-182.365 81.648-182.452 182.352v.008z"/></svg>