<svg width="64" height="64" viewBox="0 0 1032 1032" xmlns="http://www.w3.org/2000/svg"><path d="M283.796 1021.588c0-17.532 14.213-31.745 31.745-31.745s31.745 14.213 31.745 31.745c0 17.532-14.213 31.745-31.745 31.745-17.532 0-31.745-14.213-31.745-31.745zm90.839-90.839c0-17.532 14.213-31.745 31.745-31.745s31.745 14.213 31.745 31.745c0 17.532-14.213 31.745-31.745 31.745-17.532 0-31.745-14.213-31.745-31.745zm256.415-41.424c0-17.532 14.213-31.745 31.745-31.745s31.745 14.213 31.745 31.745c0 17.532-14.213 31.745-31.745 31.745-17.532 0-31.745-14.213-31.745-31.745zm-488.43 0c0-17.532 14.213-31.745 31.745-31.745s31.745 14.213 31.745 31.745c0 17.532-14.213 31.745-31.745 31.745-17.532 0-31.745-14.213-31.745-31.745zm322.854-49.415c0-17.532 14.213-31.745 31.745-31.745s31.745 14.213 31.745 31.745c0 17.532-14.213 31.745-31.745 31.745-17.532 0-31.745-14.213-31.745-31.745zm256.415-41.425c0-17.532 14.213-31.745 31.745-31.745s31.745 14.213 31.745 31.745c0 17.532-14.213 31.745-31.745 31.745-17.532 0-31.745-14.213-31.745-31.745zm-488.43 0c0-17.532 14.213-31.745 31.745-31.745s31.745 14.213 31.745 31.745c0 17.532-14.213 31.745-31.745 31.745-17.506-.035-31.683-14.234-31.683-31.744zm18.807-90.132c-.828.01-1.805.015-2.784.015-139.323 0-252.266-112.943-252.266-252.266s112.943-252.266 252.266-252.266c.979 0 1.957.006 2.933.017l-.149-.001c3.903 0 7.806.307 11.708.492C323.23 99.197 434.165 29.35 561.414 29.35c187.93 0 340.278 152.348 340.278 340.278v.016-.001.645c75.607 18.967 130.707 86.328 130.707 166.559 0 94.704-76.772 171.476-171.476 171.476h-.011.001zM69.943 456.056c.105 100.659 81.668 182.232 182.312 182.354H860.73c56.116-.014 101.601-45.508 101.601-101.626 0-56.126-45.499-101.626-101.626-101.626-25.051 0-47.985 9.064-65.701 24.091l.147-.122c-6.069 5.182-14.006 8.334-22.679 8.334-19.343 0-35.024-15.681-35.024-35.024 0-10.67 4.771-20.225 12.296-26.649l.049-.04c22.381-18.994 50.047-32.436 80.489-37.86l1.039-.153c-1.283-148.24-121.752-267.916-270.173-267.916-92.777 0-174.632 46.763-223.281 118.004l-.6.931c27.771 10.033 51.786 23.684 72.986 40.701l-.492-.382c8.161 6.461 13.35 16.368 13.35 27.487 0 19.314-15.657 34.971-34.971 34.971a34.828 34.828 0 01-22.14-7.899l.062.049c-30.677-24.883-70.196-39.95-113.234-39.95l-.494.001h.026c-100.716.035-182.359 81.646-182.447 182.346v.008z"/></svg>