<svg width="64" height="64" viewBox="0 0 1299 1299" xmlns="http://www.w3.org/2000/svg"><path d="M699.53 1020.556c.006-85.303 35.793-162.246 93.169-216.64l.134-.126V502.693c0-113.97 92.391-206.361 206.361-206.361s206.361 92.391 206.361 206.361v301.059c57.366 54.673 93.039 131.664 93.039 216.988 0 165.437-134.114 299.551-299.551 299.551s-299.551-134.114-299.551-299.551v-.195.01zm179.218-517.862v319.72a5.804 5.804 0 01-.237 2.001l.011-.041a40.612 40.612 0 01-.484 4.643l.031-.233c-.226 1.395-.452 2.714-.792 4.034a37.658 37.658 0 01-1.336 4.033l.092-.264a38.848 38.848 0 01-1.651 4.013l.105-.244c-.603 1.244-1.244 2.413-1.96 3.77a35.958 35.958 0 01-2.369 3.642l.07-.098a36.357 36.357 0 01-2.55 3.118l.024-.027a43.778 43.778 0 01-3.171 3.212l-.034.03c-.49.415-.867.942-1.357 1.357-47.694 39.528-77.847 98.778-77.847 165.072 0 118.155 95.783 213.938 213.938 213.938s213.938-95.783 213.938-213.938c0-66.294-30.153-125.545-77.492-164.786l-.355-.286a15.91 15.91 0 01-1.34-1.375l-.017-.02a38.735 38.735 0 01-2.943-2.976l-.035-.04a42.621 42.621 0 01-2.825-3.361l-.078-.107a39.839 39.839 0 01-1.847-2.827 38.877 38.877 0 01-2.345-4.275l-.105-.249a77.471 77.471 0 01-1.093-2.639c-.596-1.468-1.178-3.28-1.636-5.139l-.06-.289a17.032 17.032 0 00-.48-2.457l.028.12c-.348-1.877-.579-4.074-.64-6.312l-.001-.059V502.693c.072-1.558.113-3.386.113-5.222 0-66.625-54.01-120.635-120.635-120.635s-120.635 54.01-120.635 120.635c0 1.837.041 3.664.122 5.48l-.009-.258zM0 1020.556c.03-85.343 35.857-162.313 93.281-216.713l.136-.127V502.695c0-113.959 92.382-206.342 206.342-206.342s206.342 92.382 206.342 206.342v301.059c57.344 54.67 93.002 131.647 93.002 216.952 0 165.437-134.114 299.551-299.551 299.551S.001 1186.143.001 1020.706v-.157.008zm179.256-517.862v319.72a5.804 5.804 0 01-.237 2.001l.011-.041a34.636 34.636 0 01-.442 4.609l.027-.199c-.403 2.917-1.102 5.548-2.08 8.04l.082-.237c-.452 1.131-.98 2.639-1.546 3.77s-1.282 2.413-1.998 3.77a35.768 35.768 0 01-2.369 3.641l.069-.098a34.598 34.598 0 01-2.581 3.111l.018-.019a44.59 44.59 0 01-3.171 3.212l-.034.03c-.49.415-.867.942-1.357 1.357-47.672 39.52-77.809 98.752-77.809 165.023 0 118.134 95.766 213.9 213.9 213.9s213.9-95.766 213.9-213.9c0-66.271-30.138-125.503-77.455-164.738l-.354-.285c-.452-.377-.792-.829-1.206-1.244a45.658 45.658 0 01-3.279-3.311l-.039-.044c-.905-1.018-1.81-2.073-2.639-3.167s-1.395-2.073-2.073-3.167a40.422 40.422 0 01-2.187-3.929l-.112-.255c-.452-.98-.829-1.998-1.206-2.978-.531-1.332-1.073-3.016-1.516-4.741l-.068-.311c-.226-.905-.377-1.81-.528-2.752-.337-1.763-.554-3.816-.602-5.912l-.001-.044V502.693c.072-1.558.113-3.386.113-5.222 0-66.625-54.01-120.635-120.635-120.635s-120.635 54.01-120.635 120.635c0 1.837.041 3.664.122 5.48l-.009-.258zm677.175 517.862c.186-63.467 41.616-117.207 98.887-135.843l1.013-.285V708.829c0-23.693 19.207-42.901 42.901-42.901s42.901 19.207 42.901 42.901v175.599c58.414 18.808 99.938 72.677 99.938 136.244 0 78.888-63.951 142.839-142.839 142.839s-142.839-63.951-142.839-142.839v-.003zm-699.493 0c.186-63.467 41.616-117.207 98.887-135.843l1.013-.285V497.04c0-23.693 19.207-42.901 42.901-42.901s42.901 19.207 42.901 42.901v387.388c58.414 18.808 99.938 72.677 99.938 136.244 0 78.888-63.951 142.839-142.839 142.839S156.9 1099.56 156.9 1020.672v-.003z"/></svg>