<svg width="64" height="64" viewBox="0 0 1118 1118" xmlns="http://www.w3.org/2000/svg"><path d="M359.112 936.501c0-23.691 19.205-42.896 42.896-42.896s42.896 19.205 42.896 42.896c.086 64.647 52.469 117.03 117.108 117.116h.008c77.533-.086 140.363-62.915 140.448-140.44v-.008c-.107-92.29-74.915-167.072-167.205-167.136H42.895c-23.691 0-42.896-19.205-42.896-42.896s19.205-42.896 42.896-42.896h492.361c139.619.172 252.756 113.309 252.928 252.911v.017c-.193 124.83-101.335 225.972-226.147 226.165h-.018c-111.985-.129-202.736-90.854-202.908-202.816v-.016zm243.279-341.962c-23.691 0-42.896-19.205-42.896-42.896s19.205-42.896 42.896-42.896h262.653c92.311-.107 167.109-74.932 167.174-167.243v-.006c-.086-77.533-62.915-140.363-140.44-140.448h-.008c-64.647.086-117.03 52.469-117.116 117.108v.008c0 23.691-19.205 42.896-42.896 42.896s-42.896-19.205-42.896-42.896c.171-111.979 90.923-202.704 202.896-202.832h.012c124.83.193 225.972 101.335 226.165 226.147v.018c-.172 139.64-113.326 252.794-252.949 252.966h-.017zm-559.495 0C19.205 594.539 0 575.334 0 551.643s19.205-42.896 42.896-42.896h262.728c92.303-.107 167.093-74.937 167.136-167.245v-.004c-.15-77.505-62.972-140.288-140.478-140.373h-.008c-64.647.086-117.03 52.469-117.116 117.108v.008c0 23.691-19.205 42.896-42.896 42.896s-42.896-19.205-42.896-42.896c.129-112.011 90.897-202.779 202.896-202.908h.012c124.83.193 225.972 101.335 226.165 226.147v.018c-.15 139.702-113.403 252.901-253.11 252.966h-.006z"/></svg>