<svg width="64" height="64" viewBox="0 0 1000 1000" xmlns="http://www.w3.org/2000/svg"><path d="M1000 684.593V192.296C1000 86.074 913.926 0 807.704 0H192.296C86.074 0 0 86.074 0 192.296v615.408C0 913.926 86.074 1000 192.296 1000h615.408c94.666 0 173.333-68.444 189.333-158.37-50.963-21.926-272-117.334-387.111-172.445-87.704 106.074-179.407 169.778-317.778 169.778-138.37 0-230.667-85.185-219.407-189.482C80 581.037 126.963 469.185 330.815 488.444c107.407 10.075 156.592 30.223 244.296 59.112 22.519-41.482 41.482-87.26 55.704-136H242.37v-38.519H434.52v-69.185H200v-42.37h234.519v-99.704s2.222-15.704 19.407-15.704h96.148v115.407h250.074v42.37H550.074v69.186h203.852c-18.667 76.444-47.111 146.37-82.667 207.704C730.37 602.222 1000 684.593 1000 684.593zm-723.111 88.444c-146.222 0-169.185-92.296-161.482-130.815 7.704-38.518 50.074-88.444 131.26-88.444 93.481 0 177.037 23.852 277.333 72.74-70.37 91.852-157.185 146.519-247.111 146.519z"/></svg>