<svg width="64" height="64" viewBox="0 0 1000 1000" xmlns="http://www.w3.org/2000/svg"><path d="M961.454 328.59c-24.64-57.542-60.137-109.319-105.148-153.647-45.01-44.328-97.584-79.166-156.013-103.552C639.79 46.163 575.506 33.429 509.27 33.429c-55.379 0-109.539 8.89-161.259 26.67C209.563-4.653 45.011-.088 37.814.152 10.734.994-7.197 28.023 2.805 52.77l86.363 213.833c-46.353 75.322-70.75 161.335-70.75 250.112 0 65.23 12.93 128.54 38.547 188.124 24.64 57.543 60.136 109.319 105.147 153.647 45.011 44.328 97.585 79.166 156.014 103.553C378.63 987.266 442.913 1000 509.148 1000c66.236 0 130.52-12.734 191.145-37.961 58.429-24.267 111.002-59.225 156.013-103.553 45.011-44.328 80.386-96.104 105.148-153.647C987.07 645.254 1000 581.946 1000 516.715s-12.93-128.54-38.546-188.125zm-429.13 92.741c0 22.104-18.174 40.003-40.619 40.003-22.444 0-40.62-17.899-40.62-40.003v-72.679c0-22.104 18.176-40.004 40.62-40.004 22.445 0 40.62 17.9 40.62 40.004v72.679zm236.034 0c0 22.104-18.175 40.003-40.62 40.003-22.444 0-40.62-17.899-40.62-40.003v-72.679c0-22.104 18.176-40.004 40.62-40.004 22.445 0 40.62 17.9 40.62 40.004v72.679z"/></svg>