<svg width="64" height="64" viewBox="0 0 1000 1000" xmlns="http://www.w3.org/2000/svg"><path d="M203.699 322.257c-8.173 0-14.799 6.387-14.799 14.265v299.262c0 7.879 6.626 14.265 14.799 14.265 8.173 0 14.799-6.386 14.799-14.265V336.522c0-7.878-6.626-14.265-14.799-14.265zm4.451-65.888c45.923 0 83.15 35.886 83.15 80.153v299.262c0 44.267-37.227 80.153-83.15 80.153-45.922 0-83.15-35.886-83.15-80.153V336.522c0-44.267 37.228-80.153 83.15-80.153zm86.955 75.04V737.9h410.11V331.41h-410.11zm-68.352-65.887h546.813v494.34c0 24.26-20.401 43.926-45.568 43.926H272.321c-25.167 0-45.568-19.666-45.568-43.925V265.522zm568.614 55.931c-8.173 0-14.799 6.387-14.799 14.265V634.98c0 7.878 6.626 14.265 14.799 14.265 8.173 0 14.798-9.427 14.798-14.265V335.718c0-7.878-6.625-14.265-14.798-14.265zM450.883 760.246c18.875 0 34.176 14.749 34.176 32.943v116.023c0 55.43-29.833 90.788-82.982 90.788-52.322 0-83.102-34.213-86.216-90.788V793.189c0-18.194 15.301-32.943 34.176-32.943s34.176 14.749 34.176 32.943l-.05 114.25c1.248 22.323 5.161 26.673 17.914 26.673 11.926 0 14.63-3.205 14.63-24.9V793.189c0-18.194 15.301-32.943 34.176-32.943zm227.049 0c18.875 0 34.176 14.749 34.176 32.943v116.023c0 55.43-29.833 90.788-82.982 90.788-52.322 0-83.102-34.213-86.216-90.788V793.189c0-18.194 15.301-32.943 34.176-32.943s34.176 14.749 34.176 32.943l-.05 114.25c1.248 22.323 5.162 26.673 17.914 26.673 11.926 0 14.63-3.205 14.63-24.9V793.189c0-18.194 15.301-32.943 34.176-32.943zM633.197 13.558c11.108-14.71 32.484-17.954 47.744-7.246 15.26 10.707 18.625 31.312 7.517 46.022l-34.045 45.13c57.782 36.663 101.127 93.154 119.157 160.097 5.826-1.319 11.97-1.996 18.28-1.996 45.922 0 83.15 35.886 83.15 80.153V634.98c0 44.267-37.228 80.153-83.15 80.153-45.923 0-83.15-35.886-83.15-80.153V335.718c0-15.934 4.823-30.783 13.14-43.263l-10.128 1.586C695.239 193.377 604.795 118.205 497.92 118.205c-110.589 0-203.087 80.367-215.127 185.442l-67.938-7.233c9.341-81.528 55.42-151.722 121.468-195.635l-36.593-48.445c-11.108-14.71-7.742-35.315 7.518-46.022 15.26-10.708 36.636-7.464 47.744 7.246l42.541 56.33c31.287-11.368 65.137-17.57 100.387-17.57 32.95 0 64.71 5.427 94.31 15.444zm-201.39 153.313c12.584 0 22.785 9.833 22.785 21.963s-10.2 21.962-22.784 21.962c-12.583 0-22.784-9.833-22.784-21.962 0-12.13 10.2-21.963 22.784-21.963zm136.704 0c12.583 0 22.784 9.833 22.784 21.963s-10.2 21.962-22.784 21.962c-12.583 0-22.784-9.833-22.784-21.962 0-12.13 10.2-21.963 22.784-21.963z"/></svg>