<svg width="64" height="64" viewBox="0 0 1000 1000" xmlns="http://www.w3.org/2000/svg"><path d="M706.113 234.111c67.515 0 139.035 37.162 190.012 101.4C729.129 428.071 756.26 669.182 925 733.657c-23.226 52.012-34.363 75.262-64.264 121.274-41.718 64.237-100.532 144.212-173.424 144.912-64.771.612-81.397-42.625-169.307-42.138-87.899.5-106.23 42.888-171.014 42.288-72.892-.688-128.64-72.912-170.383-137.137-116.711-179.611-128.9-390.385-56.922-502.41 51.15-79.661 131.83-126.273 207.713-126.273 77.256 0 125.822 42.85 189.69 42.85 61.966 0 99.704-42.913 189.024-42.913zM686.509 0c8.949 60.775-15.699 120.25-48.146 162.349-34.747 45.1-94.623 80.062-152.484 78.25-10.557-58.163 16.575-118 49.43-158.35C571.504 37.787 633.506 3.7 686.51 0z"/></svg>