<svg width="64" height="64" viewBox="0 0 1000 1000" xmlns="http://www.w3.org/2000/svg"><path d="M101.01 75.758c-13.946 0-25.252 11.306-25.252 25.252v252.525c0 13.947 11.306 25.253 25.252 25.253h252.525c13.947 0 25.253-11.306 25.253-25.253V101.01c0-13.946-11.306-25.252-25.253-25.252H101.01zm252.525 469.697c55.787 0 101.01 45.223 101.01 101.01V898.99c0 55.786-45.223 101.01-101.01 101.01H101.01C45.224 1000 0 954.776 0 898.99V646.465c0-55.787 45.224-101.01 101.01-101.01h252.525zm545.455 0c55.786 0 101.01 45.223 101.01 101.01V898.99c0 55.786-45.224 101.01-101.01 101.01H646.465c-55.787 0-101.01-45.224-101.01-101.01V646.465c0-55.787 45.223-101.01 101.01-101.01H898.99zm-545.455 75.757H101.01c-13.946 0-25.252 11.306-25.252 25.253V898.99c0 13.946 11.306 25.252 25.252 25.252h252.525c13.947 0 25.253-11.306 25.253-25.252V646.465c0-13.947-11.306-25.253-25.253-25.253zm545.455 0H646.465c-13.947 0-25.253 11.306-25.253 25.253V898.99c0 13.946 11.306 25.252 25.253 25.252H898.99c13.946 0 25.252-11.306 25.252-25.252V646.465c0-13.947-11.306-25.253-25.252-25.253zM353.535 0c55.787 0 101.01 45.224 101.01 101.01v252.525c0 55.787-45.223 101.01-101.01 101.01H101.01C45.224 454.545 0 409.322 0 353.535V101.01C0 45.224 45.224 0 101.01 0h252.525zM898.99 0C954.776 0 1000 45.224 1000 101.01v252.525c0 55.787-45.224 101.01-101.01 101.01H646.465c-55.787 0-101.01-45.223-101.01-101.01V101.01C545.455 45.224 590.678 0 646.465 0H898.99zm0 75.758H646.465c-13.947 0-25.253 11.306-25.253 25.252v252.525c0 13.947 11.306 25.253 25.253 25.253H898.99c13.946 0 25.252-11.306 25.252-25.253V101.01c0-13.946-11.306-25.252-25.252-25.252z"/></svg>