<svg width="64" height="64" viewBox="0 0 1000 1000" xmlns="http://www.w3.org/2000/svg"><path d="M353.535 545.455c55.787 0 101.01 45.223 101.01 101.01V898.99c0 55.786-45.223 101.01-101.01 101.01H101.01C45.224 1000 0 954.776 0 898.99V646.465c0-55.787 45.224-101.01 101.01-101.01h252.525zm545.455 0c55.786 0 101.01 45.223 101.01 101.01V898.99c0 55.786-45.224 101.01-101.01 101.01H646.465c-55.787 0-101.01-45.224-101.01-101.01V646.465c0-55.787 45.223-101.01 101.01-101.01H898.99zM353.535 0c55.787 0 101.01 45.224 101.01 101.01v252.525c0 55.787-45.223 101.01-101.01 101.01H101.01C45.224 454.545 0 409.322 0 353.535V101.01C0 45.224 45.224 0 101.01 0h252.525zM898.99 0C954.776 0 1000 45.224 1000 101.01v252.525c0 55.787-45.224 101.01-101.01 101.01H646.465c-55.787 0-101.01-45.223-101.01-101.01V101.01C545.455 45.224 590.678 0 646.465 0H898.99z"/></svg>