<svg width="64" height="64" viewBox="0 0 1000 1000" xmlns="http://www.w3.org/2000/svg"><path d="M458.137 538.109c13.784 13.552 13.971 35.712.42 49.495L121.698 930.293l213.301-.05c19.33 0 35 15.67 35 35s-15.67 35-35 35H35c-19.33 0-35-15.67-35-35v-300c0-19.33 15.67-35 35-35s35 15.67 35 35l.049 217.7 338.593-344.415c13.552-13.784 35.712-13.971 49.495-.42zM965.095 0c19.33 0 35 15.67 35 35v300c0 19.33-15.67 35-35 35s-35-15.67-35-35l-.05-217.7-338.592 344.415c-13.552 13.784-35.712 13.971-49.496.42-13.783-13.553-13.97-35.713-.418-49.497L878.396 69.95 665.095 70c-19.33 0-35-15.67-35-35s15.67-35 35-35h300z"/></svg>