<svg width="64" height="64" viewBox="0 0 1000 1000" xmlns="http://www.w3.org/2000/svg"><path d="M186.165 526.96c106.576-23.41 91.876-153.452 88.854-181.86-5.227-43.736-55.779-120.296-124.297-114.13-86.16 7.747-98.736 134.957-98.736 134.957-11.72 58.731 27.848 184.358 134.18 160.99m197.838-218.264c58.8 0 106.33-69.145 106.33-154.535C490.335 69.145 442.969 0 384.168 0c-58.8 0-106.616 68.77-106.616 154.16s47.775 154.535 106.575 154.535M637.581 318.9c78.808 10.83 129.115-74.977 139.324-139.956 10.208-64.563-40.834-139.956-96.367-152.869-55.942-13.162-124.951 78.059-131.893 137.457-7.35 72.894 10.208 145.371 88.609 155.66m312.01 109.215c0-31.073-25.032-124.67-118.826-124.67-93.713 0-106.576 88.307-106.576 150.787 0 59.565 4.818 142.455 121.888 139.956 116.58-2.916 103.84-134.958 103.84-166.198M830.846 700.655s-121.888-96.22-192.98-199.937c-96.367-153.16-233.364-90.805-279.056-13.163C313.076 565.99 242.025 615.098 232.02 628.22c-10.208 12.913-147 88.306-116.539 225.763 30.625 137.457 137.201 134.957 137.201 134.957s78.4 7.915 169.868-12.912c91.467-20.827 169.868 4.998 169.868 4.998s212.62 72.894 271.461-67.062c58.147-140.373-33.075-212.85-33.075-212.85"/></svg>