<svg width="64" height="64" viewBox="0 0 1000 1000" xmlns="http://www.w3.org/2000/svg"><path d="M150 300c27.614 0 50 22.386 50 50v600c0 27.614-22.386 50-50 50H50c-27.614 0-50-22.386-50-50V350c0-27.614 22.386-50 50-50h100zm268.256 300c27.614 0 50 22.386 50 50v300c0 27.614-22.386 50-50 50h-100c-27.614 0-50-22.386-50-50V650c0-27.614 22.386-50 50-50h100zM684.846 0c27.615 0 50 22.386 50 50v900c0 27.614-22.385 50-50 50h-100c-27.614 0-50-22.386-50-50V50c0-27.614 22.386-50 50-50h100zM950 0c27.614 0 50 22.386 50 50v900c0 27.614-22.386 50-50 50H850c-27.614 0-50-22.386-50-50V50c0-27.614 22.386-50 50-50h100z"/></svg>