<svg width="64" height="64" viewBox="0 0 1000 1000" xmlns="http://www.w3.org/2000/svg"><path d="M421.92 125h44.412v636.475H421.92V125zm-111.032 0h66.62v636.475h-66.62V125zm-44.412 0h22.206v636.475h-22.206V125zm-155.444 0h22.206v636.475h-22.206V125zm44.412 0h66.619v636.475h-66.619V125zm622.493 0h66.619v636.475h-66.619V125zm-133.238 0h66.62v636.475h-66.62V125zm88.825 0h22.207v636.475h-22.207V125zM644.7 806.885h244.27V875h-244.27v-68.115zM0 125h66.619v750H0V125zm533.668 681.885h66.619V875h-66.62v-68.115zM866.762 125h22.206v636.475h-22.206V125zm66.62 0H1000v750h-66.619V125zm-355.302 0h44.413v636.475H578.08V125zM111.032 806.885h66.618V875h-66.618v-68.115zm111.031 0h266.476V875H222.063v-68.115zM511.461 125h22.207v636.475H511.46V125z"/></svg>