<svg width="64" height="64" viewBox="0 0 1000 1000" xmlns="http://www.w3.org/2000/svg"><path d="M499.273 0c54.418 0 98.532 44.898 98.532 100.282l-.434 8.147c43.4 17.597 85.312 46.832 122.54 85.475 43.08 44.715 68.306 103.904 76.061 179.835v273.912l59.53 104.896c19.974 33.29 26.384 61.203 10.788 85.338-14.272 22.085-39.816 29.743-74.535 29.176l-133.491.027C642.747 942.98 576.661 1000 497.49 1000s-145.257-57.02-160.774-132.912l-147.834-.027-2.764-.118c-31.348-2.695-54.707-17.865-59.957-47.04-3.56-19.78 1.114-41.12 13.412-66.524l61.239-109.023.128-273.614c5.35-60.481 27.98-116.865 67.398-168.559 33.356-43.744 81.001-75.924 132.701-94.482a87.575 87.575 0 01-.298-7.419C400.741 44.898 444.855 0 499.273 0zm90.854 867.11H404.854c13.751 38.521 50.037 66.035 92.636 66.035 42.6 0 78.885-27.514 92.637-66.034zM504.077 156.2c-67.67 0-142.137 32.275-183.845 86.973-31.883 41.812-49.674 86.136-53.736 130.567v279.505c0 5.819-1.493 11.538-4.33 16.59L197.583 784.67c-3.042 6.322-4.954 11.532-5.981 15.537l600.674.004c6.082.098 10.655-.137 13.827-.282-1.63-3.63-3.957-8.036-7.072-13.24l-64.343-113.357a33.885 33.885 0 01-4.405-16.72l.185-279.335c-6.075-58.082-25.295-103.181-57.46-136.567C620.963 186.69 559.88 156.2 504.077 156.2zm-4.804-89.344c-15.227 0-28.034 10.546-31.754 24.853a286.704 286.704 0 0136.558-2.364c8.898 0 17.827.542 26.762 1.61-3.946-13.89-16.584-24.1-31.566-24.1z"/></svg>