<svg width="64" height="64" viewBox="0 0 1000 1000" xmlns="http://www.w3.org/2000/svg"><path d="M909.09 0C959.3 0 1000 40.701 1000 90.91v818.18c0 50.209-40.701 90.91-90.91 90.91H90.91C40.7 1000 0 959.299 0 909.09V90.91C0 40.7 40.701 0 90.91 0h818.18zM746.086 328.177c-14.032-12.553-35.584-11.353-48.137 2.68L477.351 577.46l-141.58-151.513c-12.855-13.757-34.427-14.488-48.184-1.633-13.757 12.855-14.488 34.427-1.633 48.184L452.99 651.255c13.676 14.635 36.963 14.382 50.317-.547l245.457-274.394c12.553-14.032 11.353-35.584-2.68-48.137z"/></svg>