<svg width="64" height="64" viewBox="0 0 1000 1000" xmlns="http://www.w3.org/2000/svg"><path d="M269.496 595.882C322.503 700.216 434.653 763.818 550.71 742.06L422.378 993.69C183.01 956.864 0 749.871 0 499.918c0-100.986 30.13-195.277 81.463-273.946l188.033 369.91zM749.9 66.963c87.6 50.773 154 123.861 196.403 207.552l-414.008-21.761c-117.17-6.697-228.763 59.141-267.263 169.612L111.034 185.802C207.004 66.404 350.958.568 498.259.01c85.37-.557 172.41 21.202 251.64 66.953zm-81.46 432.956c0 93.173-75.325 168.495-168.506 168.495-93.177 0-168.503-75.322-168.503-168.495 0-93.176 75.326-168.496 168.503-168.496 93.18 0 168.505 75.32 168.505 168.496zm81.46 432.956c-87.6 50.772-184.126 71.413-277.863 66.392l225.973-347.59c64.167-98.756 63.049-227.638-13.392-316.907l281.77-14.508c87.601 225.407.002 487.635-216.488 612.613z"/></svg>