<svg width="64" height="64" viewBox="0 0 1000 1000" xmlns="http://www.w3.org/2000/svg"><path d="M500 0c276.142 0 500 223.858 500 500s-223.858 500-500 500S0 776.142 0 500 223.858 0 500 0zm110.331 341.828L500.5 451.5 390.748 341.828c-11.987-11.977-30.67-13.166-43.988-3.575l-4.224 3.597c-13.307 13.32-13.297 34.905.023 48.212L452.3 499.7 342.559 609.353c-13.32 13.308-13.33 34.893-.023 48.212 13.308 13.32 34.893 13.33 48.212.022L500.5 547.85l109.831 109.737c11.988 11.977 30.67 13.166 43.988 3.575l4.224-3.597c13.307-13.32 13.297-34.904-.022-48.212L548.75 499.7l109.77-109.638c13.32-13.307 13.33-34.893.023-48.212-13.307-13.32-34.892-13.33-48.212-.022z"/></svg>