<svg width="64" height="64" viewBox="0 0 1000 1000" xmlns="http://www.w3.org/2000/svg"><path d="M888.909 111.091c14.85 14.85 14.85 38.925 0 53.775L553.775 499.965l335.134 335.17c14.85 14.849 14.85 38.924 0 53.774-14.85 14.85-38.925 14.85-53.775 0L500 553.74 164.866 888.91c-14.85 14.85-38.925 14.85-53.775 0-14.85-14.85-14.85-38.925 0-53.775l335.134-335.17L111.09 164.867c-14.85-14.85-14.85-38.925 0-53.775 14.85-14.85 38.925-14.85 53.775 0L500 446.19l335.134-335.098c14.85-14.85 38.925-14.85 53.775 0z"/></svg>