<svg width="64" height="64" viewBox="0 0 1000 1000" xmlns="http://www.w3.org/2000/svg"><path d="M283.402 433.404c.498 18.709-12.774 34.71-30.567 36.853-64.09 7.72-110.047 27.586-139.03 58.466-28.747 30.63-43.662 70.514-44.89 117.482 4.455 50.407 21.096 88.151 49.83 115.144 28.598 26.863 71.571 41.09 130.135 41.475l533.48.074c49.82-3.344 86.503-22.19 112.612-56.942 32.917-43.814 39.838-83.27 34.102-127.369-4.303-33.084-24.79-75.096-57.88-103.655-25.225-21.77-65.035-35.043-120.059-38.476-18.666-1.165-33.054-17.643-32.459-37.173 1.708-56.028-13.363-106.155-45.631-151.662-43.59-61.474-111.168-92.86-177.556-90.3-64.915 2.504-125.101 33.126-168.54 91.07-30.58 40.792-45.046 88.632-43.547 145.013zM728.54 244.651c34.903 49.222 54.503 103.767 58.548 162.873 53.41 7.275 96.23 24.263 128.088 51.757 47.234 40.764 75.806 99.36 82.338 149.586 8.04 61.815-2.25 120.477-48.214 181.658-38.702 51.514-93.727 79.783-164.726 84.475h-535.91c-74.448-.49-133.624-20.08-176.094-59.975C30.238 775.26 6.124 720.562 0 648.72c1.468-68.797 22.968-126.292 64.494-170.535 35.876-38.224 86.275-62.99 150.439-75.04 3.811-59.733 23.056-113.127 57.644-159.264 56.279-75.073 135.573-115.416 220.364-118.687 88.43-3.41 177.961 38.173 235.599 119.457zM484.006 356.77l-98.98 102.072c-13.665 14.093-13.81 36.793-.324 50.7 13.487 13.909 35.498 13.759 49.165-.334L473.2 468.65l.041 211.938c0 18.27 12.992 33.37 29.849 35.759l4.686.33c19.073 0 34.535-16.158 34.535-36.089L542.3 467.9l39.06 40.303c13.487 13.908 35.499 13.758 49.165-.335 13.666-14.094 13.812-36.793.325-50.701l-97.68-100.732c-13.486-13.909-35.498-13.759-49.164.335z"/></svg>