<svg width="64" height="64" viewBox="0 0 1000 1000" xmlns="http://www.w3.org/2000/svg"><path d="M575 150c124.264 0 225 100.688 225 224.892 0 4.567-.136 9.103-.405 13.603l.405-.007-.05 61.362c107.16.006 194.604 84.164 199.805 189.933l.245 9.977c0 107.058-84.198 194.46-190.018 199.66l-9.982.244h-.05l.05.336H549.95l.033-196.158 123.18-.022L500 450.192 327.283 653.958l122.7-.066L449.95 850H200C89.516 849.637 0 760.147 0 649.76c0-96.684 68.67-177.336 159.92-195.889-6.414-16.636-9.92-34.736-9.92-53.655 0-82.803 67.157-149.928 150-149.928 27.566 0 53.395 7.432 75.59 20.401C413.133 198.962 488.346 150 575 150z"/></svg>