<svg width="64" height="64" viewBox="0 0 1000 1000" xmlns="http://www.w3.org/2000/svg"><path d="M69.099 425.234V678.16c0 139.657 113.2 252.876 252.839 252.876h183.885c139.639 0 252.837-113.216 252.837-252.872V425.285l-689.561-.05zM594.359 8.056c14.593 12.234 16.507 33.983 4.275 48.578-32.09 38.29-39.166 64.35-29.263 81.863 3.073 5.434 29.646 47.426 35.727 60.33 13.792 29.262 15.607 57.64 3.68 91.121-8.297 23.286-20.85 45.412-37.533 66.38l194.061-.008c21.844.81 37.69 6.4 47.536 16.77 5.433 5.721 9.369 12.919 11.805 21.592l2.964-.08c95.208 0 172.389 77.192 172.389 172.413 0 95.22-77.181 172.412-172.39 172.412l-5.782-.188C793.298 887.777 662.664 1000 505.824 1000H321.936C144.216 1000 .144 855.904.144 678.159V416.837c-.984-21.643 3.092-36.967 12.226-45.97 9.133-9.003 22.608-13.852 40.423-14.547l147.664.015a34.444 34.444 0 017.187-8.452c30.439-25.922 50.334-52.953 60.355-81.082 5.684-15.954 5.074-25.475-1.097-38.57-3.907-8.29-28.448-47.07-33.376-55.785-26.918-47.605-12.093-102.204 36.439-160.113 12.232-14.596 33.978-16.51 48.57-4.277 14.594 12.234 16.508 33.983 4.276 48.578-32.09 38.29-39.165 64.35-29.262 81.863 3.072 5.434 29.645 47.426 35.727 60.33 13.791 29.262 15.607 57.64 3.679 91.121-8.296 23.286-20.85 45.412-37.533 66.38l42.946.007a34.444 34.444 0 017.187-8.452c30.44-25.922 50.334-52.953 60.355-81.082 5.684-15.954 5.075-25.475-1.096-38.57-3.908-8.29-28.449-47.07-33.376-55.785-26.919-47.605-12.094-102.204 36.438-160.113 12.232-14.596 33.978-16.51 48.571-4.277 14.593 12.234 16.508 33.983 4.276 48.578-32.09 38.29-39.166 64.35-29.263 81.863 3.072 5.434 29.646 47.426 35.727 60.33 13.791 29.262 15.607 57.64 3.679 91.121-8.296 23.286-20.85 45.412-37.533 66.38l42.946.007a34.444 34.444 0 017.187-8.452c30.44-25.922 50.334-52.953 60.356-81.082 5.683-15.954 5.074-25.475-1.097-38.57-3.907-8.29-28.448-47.07-33.376-55.785-26.919-47.605-12.094-102.204 36.438-160.113 12.232-14.596 33.978-16.51 48.571-4.277zm233.252 455.51v206.896c57.125 0 103.433-46.315 103.433-103.447 0-57.133-46.308-103.448-103.433-103.448z"/></svg>