<svg width="64" height="64" viewBox="0 0 1000 1000" xmlns="http://www.w3.org/2000/svg"><path d="M931.034 172.414H758.621C758.62 77.192 681.428 0 586.207 0c-95.222 0-172.414 77.192-172.414 172.414H241.38c-38.088 0-68.965 30.877-68.965 68.965v172.414C77.192 413.793 0 490.985 0 586.207 0 681.428 77.192 758.62 172.414 758.62v172.413c0 38.09 30.877 68.966 68.965 68.966h241.38v-68.966c0-57.132 46.315-103.448 103.448-103.448 57.133 0 103.448 46.316 103.448 103.448V1000h241.38c38.088 0 68.965-30.877 68.965-68.966V689.655h-68.966c-57.132 0-103.448-46.315-103.448-103.448 0-57.133 46.316-103.448 103.448-103.448H1000v-241.38c0-38.088-30.877-68.965-68.966-68.965zM758.621 586.207c0 95.221 77.192 172.414 172.413 172.414v172.413H758.621c0-61.597-32.862-118.515-86.207-149.314-53.345-30.799-119.069-30.799-172.414 0-53.345 30.799-86.207 87.717-86.207 149.314H241.38V689.655h-68.965c-57.133 0-103.448-46.315-103.448-103.448 0-57.133 46.315-103.448 103.448-103.448h68.965v-241.38h241.38v-68.965c0-57.133 46.315-103.448 103.448-103.448 57.133 0 103.448 46.315 103.448 103.448v68.965h241.38v172.414c-95.222 0-172.414 77.192-172.414 172.414z"/></svg>