<svg width="64" height="64" viewBox="0 0 1000 1000" xmlns="http://www.w3.org/2000/svg"><path d="M500 0c276.142 0 500 223.858 500 500s-223.858 500-500 500S0 776.142 0 500 223.858 0 500 0zm0 69.767C262.39 69.767 69.767 262.39 69.767 500c0 237.61 192.622 430.233 430.233 430.233 237.61 0 430.233-192.622 430.233-430.233C930.233 262.39 737.61 69.767 500 69.767zm8.041 162.791c53.998 0 105.787 15.144 150.13 43.167 16.286 10.293 21.145 31.839 10.852 48.125-10.292 16.286-31.838 21.145-48.124 10.852-33.243-21.009-72.12-32.376-112.858-32.376-113.874 0-205.715 88.772-205.715 197.674s91.841 197.674 205.715 197.674c40.069 0 78.34-10.995 111.233-31.36 16.38-10.141 37.88-5.083 48.022 11.297 10.142 16.38 5.084 37.88-11.297 48.022-43.873 27.162-94.851 41.809-147.958 41.809-151.884 0-275.483-119.468-275.483-267.442s123.599-267.442 275.483-267.442z"/></svg>