<svg width="64" height="64" viewBox="0 0 1000 1000" xmlns="http://www.w3.org/2000/svg"><path d="M419.864 110.539c13.807-13.826 36.453-14.081 50.582-.57 14.128 13.511 14.389 35.672.582 49.498L136.083 494.872l353.422 345.356c13.979 13.66 13.995 35.823.037 49.502-13.96 13.68-36.607 13.695-50.586.036L60.495 519.942c-13.872-13.555-14.01-35.512-.308-49.233zm450 0c13.807-13.826 36.453-14.081 50.582-.57 14.128 13.511 14.389 35.672.582 49.498L586.083 494.872l353.422 345.356c13.979 13.66 13.995 35.823.037 49.502-13.96 13.68-36.607 13.695-50.586.036L510.495 519.942c-13.872-13.555-14.01-35.512-.308-49.233z"/></svg>