<svg width="64" height="64" viewBox="0 0 1000 1000" xmlns="http://www.w3.org/2000/svg"><path d="M500 0c276.142 0 500 223.858 500 500s-223.858 500-500 500S0 776.142 0 500 223.858 0 500 0zm33.34 67.93l-.007 51.755c0 18.41-14.924 33.333-33.333 33.333-18.41 0-33.333-14.924-33.333-33.333l-.008-51.755c-67.022 5.1-129.782 25.446-184.82 57.577l26.1 29.216c12.259 13.735 11.062 34.806-2.672 47.065-13.735 12.259-34.806 11.062-47.065-2.672l-31.532-35.39a435.711 435.711 0 00-88.767 98.145l42.125 25.262c15.79 9.465 20.919 29.938 11.454 45.728-9.464 15.79-29.937 20.918-45.728 11.454l-40.163-24.067A430.348 430.348 0 0070.149 444.8l45.342.014c18.41 0 33.333 14.924 33.333 33.333 0 18.41-14.923 33.333-33.333 33.333l-48.641-.03.008 1.558c1.709 57.96 14.8 113.064 37.113 163.152l41.784-27.941c15.305-10.231 36.005-6.118 46.236 9.187 10.23 15.305 6.117 36.006-9.188 46.237l-46.933 31.371c77.18 119.339 211.432 198.32 364.13 198.32 158.264 0 296.712-84.844 372.341-211.53l-56.603-37.807c-15.305-10.231-19.418-30.932-9.188-46.237 10.231-15.305 30.932-19.418 46.237-9.187l49.41 33.03c18.736-46.588 29.613-97.182 30.988-150.14l-54.177.017c-18.41 0-33.333-14.923-33.333-33.333 0-18.41 14.923-33.333 33.333-33.333l50.843-.014a430.417 430.417 0 00-28.468-108.411l-47.508 24.594c-16.35 8.462-36.463 2.067-44.925-14.283-8.46-16.35-2.066-36.463 14.284-44.924l48.273-24.972c-24.59-40.843-55.725-77.298-91.953-107.916l-30.104 39.439c-11.166 14.636-32.083 17.449-46.72 6.283-14.636-11.166-17.45-32.084-6.283-46.72l29.028-38.016C668.71 95.22 603.351 73.257 533.341 67.93zm162.412 273.04c11.5 14.375 9.168 35.351-5.208 46.851L588.55 469.35l.339 5.953c0 34.654-26.44 63.131-60.246 66.362l-6.42.305c-36.82 0-66.667-29.848-66.667-66.667s29.847-66.666 66.666-66.666c9.951 0 19.393 2.18 27.874 6.089l98.804-78.964c14.375-11.5 35.352-9.169 46.852 5.207z"/></svg>