<svg width="64" height="64" viewBox="0 0 1000 1000" xmlns="http://www.w3.org/2000/svg"><path d="M283.663 0c19.33 0 35 15.662 35 34.982l-.013 65.468H694.5l.007-65.043c0-19.32 15.67-34.982 35-34.982s35 15.662 35 34.982l-.007 65.043H900c55.228 0 100 44.75 100 99.95v699.65c0 55.2-44.772 99.95-100 99.95H100c-55.228 0-100-44.75-100-99.95V200.4c0-55.2 44.772-99.95 100-99.95h148.65l.013-65.468c0-19.32 15.67-34.982 35-34.982zM70 387.1v512.95c0 16.56 13.431 29.985 30 29.985h800c16.569 0 30-13.425 30-29.985V387.8l-860-.7zm263.333 343.832v83.307H250v-83.307h83.333zm208.334 0v83.307h-83.334v-83.307h83.334zm208.333 0v83.307h-83.333v-83.307H750zM333.333 532.088v83.307H250v-83.307h83.333zm208.334 0v83.307h-83.334v-83.307h83.334zm208.333 0v83.307h-83.333v-83.307H750zM248.65 170.4l-148.65.016c-16.569 0-30 13.425-30 29.985V317.15l860 .7V200.4c0-16.56-13.431-29.984-30-29.984l-135.5-.016.007 46.449c0 19.32-15.67 34.982-35 34.982s-35-15.662-35-34.982L694.5 170.4H318.65l.013 46.024c0 19.32-15.67 34.983-35 34.983s-35-15.663-35-34.983l-.013-46.024z"/></svg>