<svg width="64" height="64" viewBox="0 0 1000 1000" xmlns="http://www.w3.org/2000/svg"><path d="M456.428 0l98.712.244c38.91 4.685 72.997 23.005 101.128 53.914 22.916 25.178 34.967 54.478 35.704 86.41l273.744.01c18.934 0 34.284 15.49 34.284 34.599 0 19.109-15.35 34.6-34.284 34.6l-91.816-.027.015 581.372C873.915 918.27 826.46 1000 721.828 1000h-450.89c-104.587 0-151.28-81.312-151.28-208.878l-.008-581.372-85.366.026C15.35 209.776 0 194.286 0 175.176c0-19.108 15.35-34.599 34.284-34.599l273.507-.013c.733-25.677 10.238-51.705 27.7-77.454C361.506 24.749 402.103 3.692 456.428 0zM805.3 209.75H188.2l.027 581.372c0 94.395 26.004 139.68 82.71 139.68h450.891c56.97 0 83.518-45.722 83.518-139.68L805.3 209.75zM335.76 317.006c18.935 0 34.285 15.49 34.285 34.6v402.499c0 19.109-15.35 34.6-34.284 34.6-18.935 0-34.285-15.491-34.285-34.6v-402.5c0-19.109 15.35-34.6 34.285-34.6zm136.364 0c18.935 0 34.285 15.49 34.285 34.6v402.499c0 19.109-15.35 34.6-34.285 34.6-18.935 0-34.284-15.491-34.284-34.6v-402.5c0-19.109 15.35-34.6 34.284-34.6zm136.364 0c18.935 0 34.284 15.49 34.284 34.6v402.499c0 19.109-15.35 34.6-34.284 34.6-18.935 0-34.285-15.491-34.285-34.6v-402.5c0-19.109 15.35-34.6 34.285-34.6zM458.783 69.117c-32.066 2.228-53.232 13.206-66.707 33.076-9.888 14.58-14.832 27.18-15.617 38.404l246.91-.054c-.718-14.563-6.457-27.331-17.6-39.575-17.304-19.012-36.51-29.335-54.69-31.77l-92.296-.08z"/></svg>