<svg width="64" height="64" viewBox="0 0 1000 1000" xmlns="http://www.w3.org/2000/svg"><path d="M873.31 373.737c-1.702 7.367-5.746 17.97-11.385 30.917h.106l-.638 1.228c-33.304 74.893-120.235 221.664-120.235 221.664s-.107-.335-.426-.893l-25.43 46.431h122.47L603.791 1000l53.095-222.334h-96.401l33.517-146.995c-27.133 6.92-59.16 16.296-97.04 29.131 0 0-51.286 31.587-147.793-60.717 0 0-65.119-60.272-27.346-75.228 16.067-6.362 77.887-14.51 126.62-21.43 65.756-9.375 106.19-14.286 106.19-14.286s-202.804 3.237-250.898-4.8c-48.095-7.924-109.17-92.304-122.151-166.415 0 0-20.11-40.739 43.2-21.43 63.31 19.31 325.486 75.004 325.486 75.004S209.25 260.673 186.586 233.886c-22.664-26.788-66.821-146.214-61.075-219.655 0 0 2.447-18.305 20.323-13.394 0 0 252.068 120.989 424.44 187.287 172.48 66.187 322.401 99.894 303.036 185.613z"/></svg>