<svg width="64" height="64" viewBox="0 0 1000 1000" xmlns="http://www.w3.org/2000/svg"><path d="M93.043 525.27V167.39h151.42l7.685-.886c140.668-32.826 233.83-56.44 280.313-71.102 61.674-19.453 84.694-24.184 126.552-27.015 31.307-2.117 66.837 9.937 83.054 26.426 8.917 9.067 15.646 27.77 18.28 56.777 1.127 12.417 8.921 23.224 20.32 28.177 12.425 5.398 22.76 14.17 31.433 26.954 7.958 11.732 13.191 33.506 14.131 65.077.352 11.807 6.77 22.588 16.961 28.492 29.096 16.856 43.544 35.861 46.524 58.15 3.296 24.655-4.738 52.426-25.685 83.997-10.23 15.418-6.314 36.216 8.816 46.822 20.064 14.067 31.051 33.696 33.817 61.484 4.408 44.291-23.85 77.081-87.796 83.63-55.746 5.71-112.253 1.003-169.704-14.194-27.91-7.383-51.68 21.355-39.32 47.539 24.973 52.902 38.917 96.555 42.14 130.331 4.281 44.87-6.078 77.375-30.29 104.16-18.333 20.282-47.694 31.91-58.692 29.525-14.522-3.148-23.95-11.576-36.242-40.948-7.275-17.385-10.761-32.198-16.774-66.72-5.712-32.8-8.888-47.602-15.432-67.05-19.767-58.745-68.188-119.701-133.273-161.79-45.236-29.252-94.202-52.072-146.814-68.438a33.82 33.82 0 00-10.047-1.527l-111.377.008zM90.89 99.256c-16.12-.438-30.656 3.13-42.773 11.637-15.495 10.881-22.82 27.946-22.955 47.652l.13 366.149c-1.71 19.518 4.074 37.424 17.652 50.718 12.736 12.468 29.388 18.402 47.028 17.993h109.233c44.925 14.423 86.672 34.12 125.315 59.108 52.38 33.873 90.96 82.44 105.722 126.31 5.078 15.092 7.752 27.556 12.877 56.98 6.867 39.43 11.189 57.793 21.057 81.375 20.558 49.126 47.403 73.124 84.497 81.165 36.51 7.914 89.658-13.134 123.291-50.342 37.243-41.2 53.672-92.748 47.593-156.45-2.613-27.386-10.205-58.06-22.694-92.187 43.25 6.23 86.233 7.171 128.895 2.802 100.356-10.279 156.67-75.625 148.452-158.198-3.544-35.614-16.467-65.856-38.4-89.607 18.433-35.58 25.77-70.695 21.185-104.986-5.28-39.498-27.304-72.41-63.915-97.965-2.828-34.66-10.793-62.292-24.872-83.047-11.72-17.277-25.964-31.247-42.556-41.648-5.4-34.228-16.769-60.958-35.279-79.779C759.605 15.652 704.634-2.998 654.45.397c-47.627 3.22-75.832 9.017-142.337 29.994C468.225 44.234 377.44 67.27 240.566 99.245l-149.676.012zm85.084 441.567c0 18.818 15.196 34.072 33.942 34.072 18.745 0 33.94-15.254 33.94-34.072v-383.92c0-18.818-15.195-34.073-33.94-34.073-18.746 0-33.942 15.255-33.942 34.073v383.92z"/></svg>