<svg width="64" height="64" viewBox="0 0 1000 1000" xmlns="http://www.w3.org/2000/svg"><path d="M861.286 0C910.28 0 950 40.701 950 90.91v818.18c0 50.209-39.719 90.91-88.714 90.91H227.112c-48.996 0-88.714-40.701-88.714-90.91l-.048-84.29-55.082.033C64.895 824.833 50 809.57 50 790.743c0-18.828 14.895-34.091 33.268-34.091l55.082-.002V635.7l-55.082.016c-18.373 0-33.268-15.263-33.268-34.09 0-18.828 14.895-34.091 33.268-34.091l55.082-.035V445.95l-55.082.026c-18.373 0-33.268-15.263-33.268-34.09 0-18.829 14.895-34.092 33.268-34.092l55.082-.044V256.1l-55.082.018c-18.373 0-33.268-15.263-33.268-34.09 0-18.829 14.895-34.092 33.268-34.092l55.082-.036.048-96.99C138.398 40.7 178.116 0 227.112 0h634.174zM698.902 68.2H223.307c-4.605.127-8.705 2.089-12.302 5.886-3.596 3.798-5.592 8.273-5.989 13.426L205 187.9l42.199.036c15.311 0 28.206 10.6 32.08 25.029.248.84.435 1.684.584 2.543.395 2.112.604 4.29.604 6.52 0 18.827-14.895 34.09-33.268 34.09L205 256.1l.016 121.562h43.638c.758.099 1.5.21 2.227.333l-3.682-.2c5.663 0 10.995 1.449 15.663 4.006.314.216.631.392.943.572.989.55 1.941 1.183 2.858 1.862a26.652 26.652 0 013.393 3.18l-2.736-2.68c6.446 5.023 11.05 12.403 12.587 20.887.289 1.6.446 3.126.446 4.576l-.341-3.965c.299 1.838.455 3.727.455 5.652 0 17.79-13.299 32.398-30.265 33.954l-1.548.07-.748.06c-.235.005-.47.007-.707.007L205 445.95V567.5l42.199.035c5.56 0 10.803 1.398 15.41 3.87 3.078 1.466 5.55 3.312 7.447 5.566l-1.46-1.45c7.258 6.253 11.87 15.627 11.87 26.105 0 1.872-.146 3.708-.43 5.499a25.925 25.925 0 01-.618 3.195c-.164.475-.303.97-.453 1.463a19.57 19.57 0 01-.754 2.24c-2.658 6.94-7.458 12.774-13.57 16.638-.177.087-.355.193-.535.297a32.223 32.223 0 01-16.907 4.758L205 635.7l.016 120.93h43.638c.388.064.772.13 1.152.2l-2.607-.178c18.373 0 33.268 15.263 33.268 34.09 0 11.126-5.201 21.007-13.247 27.23-.22.115-.436.282-.656.446a26.186 26.186 0 01-3.102 2.071c-.158.015-.294.088-.431.161-4.102 2.368-8.765 3.798-13.722 4.116l-.655.007-.748.053c-.235.005-.47.007-.707.007L205 824.8l.016 88.215c.265 3.33 1.454 6.487 3.568 9.474l2.421 2.93c3.64 3.83 8.148 5.991 13.524 6.481h474.373V68.2zm163.214-.086h-96.902v863.692h98.691c4.547.034 8.816-2.128 12.806-6.487 3.991-4.359 6.227-8.822 6.707-13.39V89.697c-.527-5.78-2.763-10.752-6.707-14.916-3.943-4.165-8.808-6.387-14.595-6.667z"/></svg>