<svg width="64" height="64" viewBox="0 0 1000 1000" xmlns="http://www.w3.org/2000/svg"><path d="M700.976 699.848c27.636 0 50.038 22.403 50.038 50.038v100.076c0 27.635-22.402 50.038-50.038 50.038H50.038C22.403 900 0 877.597 0 849.962V749.886c0-27.635 22.403-50.038 50.038-50.038h650.938zm248.986-299.46c27.635 0 50.038 22.404 50.038 50.039v100.076c0 27.635-22.403 50.038-50.038 50.038H50.038C22.403 600.54 0 578.138 0 550.503V450.427c0-27.635 22.403-50.038 50.038-50.038h899.924zM551.554 100c27.635 0 50.038 22.403 50.038 50.038v100.076c0 27.635-22.403 50.038-50.038 50.038h-501.5c-27.635 0-50.038-22.403-50.038-50.038V150.038C.016 122.403 22.419 100 50.054 100h501.5z"/></svg>