<svg width="64" height="64" viewBox="0 0 1000 1000" xmlns="http://www.w3.org/2000/svg"><path d="M909.09 0C959.3 0 1000 40.701 1000 90.91v818.18c0 50.209-40.701 90.91-90.91 90.91H90.91C40.7 1000 0 959.299 0 909.09V90.91C0 40.7 40.701 0 90.91 0h818.18zM722.992 381.245c-13.14-13.484-34.723-13.763-48.208-.623l-174.55 170.095-170.954-169.863c-13.356-13.27-34.94-13.201-48.212.155-13.27 13.356-13.201 34.94.155 48.211l194.75 193.507c13.203 13.12 34.49 13.223 47.82.233l198.576-193.507c13.484-13.14 13.763-34.724.623-48.208z"/></svg>