<svg width="64" height="64" viewBox="0 0 1000 1000" xmlns="http://www.w3.org/2000/svg"><path d="M500 0c276.142 0 500 223.858 500 500s-223.858 500-500 500S0 776.142 0 500 223.858 0 500 0zm0 69.767C262.39 69.767 69.767 262.39 69.767 500c0 237.61 192.622 430.233 430.233 430.233 237.61 0 430.233-192.622 430.233-430.233C930.233 262.39 737.61 69.767 500 69.767zm-170.72 312.04L500.232 551.67l174.55-170.096c13.485-13.14 35.068-12.86 48.208.624s12.861 35.067-.623 48.207L523.792 623.912c-13.33 12.991-34.617 12.888-47.82-.232l-194.75-193.507c-13.356-13.27-13.425-34.856-.155-48.212 13.271-13.356 34.856-13.425 48.212-.154z"/></svg>