<svg width="64" height="64" viewBox="0 0 1000 1000" xmlns="http://www.w3.org/2000/svg"><path d="M668.547 40.255c56.933 28.712 108.576 77.568 156.268 147.706 30.117 50.526 46.744 106.415 49.788 167.146 3.068 61.219-11.664 125.849-43.64 193.707l-2.876 4.973-301.16 432.102c-13.11 18.811-40.227 18.815-53.343.009L180.699 565.863c-23.568-37.84-39.826-76.41-48.612-115.648-19.326-86.317.035-205.325 68.42-298.714C267.284 60.311 360.452 15.752 454.683 3.428c71.9-9.403 140.44-.201 213.865 36.827zM501.56 131.34c-134.062 0-241.896 108.042-241.896 240.206 0 132.165 107.834 240.206 241.896 240.206 134.062 0 241.895-108.041 241.895-240.206 0-132.164-107.833-240.206-241.895-240.206zm0 129.018c62.055 0 111.97 50.01 111.97 111.188 0 61.178-49.915 111.189-111.97 111.189-62.056 0-111.97-50.011-111.97-111.189 0-61.177 49.914-111.188 111.97-111.188z"/></svg>