<svg width="64" height="64" viewBox="0 0 1000 1000" xmlns="http://www.w3.org/2000/svg"><path d="M668.547 40.255c56.933 28.712 108.576 77.568 156.268 147.706 30.117 50.526 46.744 106.415 49.788 167.146 3.068 61.219-11.664 125.849-43.64 193.707l-2.876 4.973-301.16 432.102c-13.11 18.811-40.227 18.815-53.343.009L180.699 565.863c-23.568-37.84-39.826-76.41-48.612-115.648-19.326-86.317.035-205.325 68.42-298.714C267.284 60.311 360.452 15.752 454.683 3.428c71.9-9.403 140.44-.201 213.865 36.827zM462.943 70.734c-78.216 10.23-155.443 47.165-210.007 121.678-55.957 76.416-71.97 174.84-56.815 242.525 7.024 31.369 20.256 62.76 38.888 92.76l265.235 380.31 272.823-391.446c26.53-57.105 38.32-109.696 35.902-157.95-2.48-49.465-15.824-94.323-39.023-133.364-40.597-59.61-84.091-100.757-130.248-124.033-61.127-30.827-116.874-38.312-176.755-30.48zm38.618 121.78c97.92 0 177.692 79.925 177.692 179.032 0 99.107-79.771 179.033-177.692 179.033-97.92 0-177.692-79.926-177.692-179.033 0-99.107 79.771-179.032 177.692-179.032zm0 67.844c-62.056 0-111.97 50.01-111.97 111.188 0 61.178 49.914 111.189 111.97 111.189 62.055 0 111.97-50.011 111.97-111.189 0-61.177-49.915-111.188-111.97-111.188z"/></svg>