<svg width="64" height="64" viewBox="0 0 1000 1000" xmlns="http://www.w3.org/2000/svg"><path d="M254.463 739.063c87.482 68.384 160.964 90.3 245.491 90.3 73.604 0 169.6-30.652 261.94-95.946 66.627-47.112 121.647-115.762 165.005-206.545-47.014-81.55-101.404-148.355-163.139-200.605-85.537-72.395-179.102-105.63-265.621-105.63-89.481 0-192.527 39.923-280.401 123.704-63.269 60.322-111.217 121.002-144.01 181.923 53.29 89.434 113.564 160.292 180.735 212.799zM499.954 900c-98.647 0-186.684-26.258-287.023-104.693C134.106 733.69 64.741 650.25 4.737 545.255c-5.923-10.364-6.316-23.116-1.041-33.844 36.694-74.638 92.56-147.546 167.379-218.881C271.893 196.407 391.673 150 498.139 150c102.154 0 211.183 38.729 309.235 121.716 72.42 61.293 135.123 140.064 188.146 236.088 5.47 9.908 5.959 21.922 1.312 32.265C947.426 650.041 882.097 734.13 800.78 791.631 696.994 865.018 587.439 900 499.954 900zm11.744-180c-102.173 0-185-82.827-185-185s82.827-185 185-185c102.172 0 185 82.827 185 185s-82.828 185-185 185zm0-70c63.512 0 115-51.487 115-115s-51.488-115-115-115c-63.513 0-115 51.487-115 115s51.487 115 115 115z"/></svg>