<svg width="64" height="64" viewBox="0 0 1000 1000" xmlns="http://www.w3.org/2000/svg"><path d="M498.139 125c102.154 0 211.183 38.729 309.235 121.716 72.42 61.293 135.123 140.064 188.146 236.088 5.47 9.908 5.959 21.922 1.312 32.265C947.426 625.041 882.097 709.13 800.78 766.631 696.994 840.018 587.439 875 499.954 875c-98.647 0-186.684-26.258-287.023-104.693C134.106 708.69 64.741 625.25 4.737 520.255c-5.923-10.364-6.316-23.116-1.041-33.844 36.694-74.638 92.56-147.546 167.379-218.881C271.893 171.407 391.673 125 498.139 125zm1.815 170.302c-107.428 0-194.516 89.603-194.516 200.135s87.088 200.136 194.516 200.136c107.429 0 194.516-89.604 194.516-200.136s-87.087-200.135-194.516-200.135zm0 70.636c69.513 0 125.864 57.979 125.864 129.5 0 71.52-56.351 129.499-125.864 129.499-69.512 0-125.863-57.98-125.863-129.5 0-71.52 56.35-129.5 125.863-129.5z"/></svg>