<svg width="64" height="64" viewBox="0 0 1000 1000" xmlns="http://www.w3.org/2000/svg"><path d="M944.806 0H55.194C24.708 0 0 24.708 0 55.194V944.82C0 975.292 24.708 1000 55.194 1000h478.931V612.75h-130.32V461.833h130.32V350.528c0-129.167 78.889-199.486 194.111-199.486 55.195 0 102.625 4.097 116.458 5.944v134.986l-79.916.042c-62.667 0-74.792 29.778-74.792 73.472v96.361h149.445l-19.459 150.917H689.986V1000H944.82c30.473 0 55.181-24.708 55.181-55.194V55.194C1000 24.708 975.292 0 944.806 0z"/></svg>