<svg width="64" height="64" viewBox="0 0 1000 1000" xmlns="http://www.w3.org/2000/svg"><path d="M841.942 750.035H698.69V597.713c0-9.77-3.213-18.07-9.638-24.903-6.426-6.832-14.232-10.248-23.42-10.248-9.188 0-16.994 3.416-23.42 10.248-6.425 6.833-9.638 15.133-9.638 24.903v152.322H496.669c-9.188 0-16.995 3.416-23.42 10.249-6.426 6.832-9.639 15.133-9.639 24.903 0 9.769 3.213 18.07 9.639 24.902 6.425 6.833 14.232 10.249 23.42 10.249h135.905v144.51c0 9.77 3.213 18.071 9.638 24.903 6.426 6.833 14.232 10.249 23.42 10.249 9.188 0 16.994-3.416 23.42-10.249 6.425-6.832 9.638-15.133 9.638-24.902V820.338h143.252c9.188 0 16.994-3.416 23.42-10.249 6.425-6.832 9.638-15.133 9.638-24.902 0-9.77-3.213-18.07-9.638-24.903-6.426-6.833-14.232-10.249-23.42-10.249zm25.82-498.663L666.516 24.035 644.481.11H189.008c-8.539 0-17.967-.55-26.326.815-9.63 1.574-18.056 5.581-25.578 14.09-14.053 15.895-11.97 35.858-11.97 55.397v859.254c0 19.54-2.278 40.696 11.97 55.5 14.247 14.803 23.79 14.803 42.166 14.803h251.253c9.188 0 16.994-3.416 23.42-10.249 6.425-6.832 9.638-15.133 9.638-24.903 0-9.769-3.213-18.07-9.638-24.902-6.426-6.833-14.232-10.249-23.42-10.249H192.248l-.307-861.451h363.738v179.654c0 19.538 7.617 37.155 19.584 49.805 11.967 12.65 28.464 20.497 46.84 20.497h186.751V527.38c0 9.77 3.213 18.07 9.639 24.903 6.425 6.832 14.232 10.248 23.42 10.248 9.187 0 16.994-3.416 23.42-10.248 6.425-6.833 9.638-15.133 9.638-24.903V273.77c.008-2.474.018-7.126.029-13.958l-7.237-8.439zm-241.84-8.635c-2.074-2.645-3.337-7.31-3.79-13.995V76.07l152.96 171.83H637.995c-5.975-.797-10-2.518-12.074-5.162z"/></svg>