<svg width="64" height="64" viewBox="0 0 1000 1000" xmlns="http://www.w3.org/2000/svg"><path d="M776.685 68.04L715.46 0H233.082c-34.788 0-48.21 25.812-48.21 45.947v181.548h67.64V82.615c0-7.733 6.474-14.2 13.994-14.2h345.129c7.608 0 11.401 1.353 11.401 7.56v241.012h245.68c9.655 0 13.394 4.968 13.394 12.338v588.432c0 12.335-4.972 14.2-12.492 14.2H266.506c-7.585 0-13.995-6.602-13.995-14.2v-53.77h-67.218v84.746c-.878 29.97 15.122 51.267 47.79 51.267H903.04c34.997 0 46.96-25.355 46.96-48.447V259.334l-17.475-18.974-155.84-172.32zm-84.879 7.936l19.325 21.7L840.937 240.36l7.151 8.642H715.46c-10.016 0-16.353-1.654-19.011-4.96-2.658-3.308-4.205-8.533-4.643-15.678V75.976zm-54.548 457.393h228.886v66.671H637.258v-66.67zm0-133.342h228.886v66.67H637.258v-66.67zm0 266.685h228.886v66.67H637.258v-66.67zM50 281.287v533.369h523.237v-533.37H50zm261.65 310.22l-32.045 48.869h32.046v59.606H150.776l116.798-175.414-103.456-157.877h86.389l61.21 91.807 61.146-91.807h86.322L355.597 524.503l116.864 175.479h-89.658L311.65 591.507z"/></svg>