<svg width="64" height="64" viewBox="0 0 1000 1000" xmlns="http://www.w3.org/2000/svg"><path d="M644.455 0L875 259.59v694.955c0 25.104-19.752 45.455-44.118 45.455H169.118C144.752 1000 125 979.65 125 954.545V45.455C125 20.35 144.752 0 169.118 0h475.337zm-29.147 68.182H191.176v863.636h617.648l.002-614.695-141.455-.025c-35.283 1.402-62.561-4.303-82.048-19.69-22.663-17.893-30.988-48.39-29.89-89.077V68.37l60.067-.02-.192-.168zM546.2 727.272c18.274 0 33.089 15.264 33.089 34.092s-14.815 34.09-33.089 34.09H290.441c-18.274 0-33.088-15.262-33.088-34.09 0-18.828 14.814-34.091 33.088-34.091H546.2zm152.746-181.817c18.274 0 33.088 15.263 33.088 34.09 0 18.828-14.814 34.091-33.088 34.091H290.441c-18.274 0-33.088-15.263-33.088-34.09 0-18.828 14.814-34.091 33.088-34.091h408.504zM546.2 363.636c18.274 0 33.089 15.263 33.089 34.091 0 18.828-14.815 34.091-33.089 34.091H290.441c-18.274 0-33.088-15.263-33.088-34.09 0-18.829 14.814-34.092 33.088-34.092H546.2zM619.2 72.5l2.408 2.938-.012 133.83c-.584 21.908 2.378 32.758 3.98 34.023 4.778 3.772 17.93 6.523 40.52 5.65h109.676l18.75 21.199 14.302 15.936L619.2 72.5z"/></svg>