<svg width="64" height="64" viewBox="0 0 1000 1000" xmlns="http://www.w3.org/2000/svg"><path d="M644.455 0L875 259.59v694.955c0 25.104-19.752 45.455-44.118 45.455H169.118C144.752 1000 125 979.65 125 954.545V45.455C125 20.35 144.752 0 169.118 0h475.337zm-29.147 68.182H191.176v863.636h617.648l.002-614.695-141.455-.025c-35.283 1.402-62.561-4.303-82.048-19.69-22.663-17.893-30.988-48.39-29.89-89.077V68.37l60.067-.02-.192-.168zM450.755 748.959c19.492 0 35.294 15.654 35.294 34.965 0 19.31-15.802 34.965-35.294 34.965-19.493 0-35.294-15.655-35.294-34.965 0-19.31 15.801-34.965 35.294-34.965zm108.38-324.85c28.848 28.897 38.645 63.862 34.956 99.892-2.765 27.007-20.192 53.548-44.352 78.527-5.664 5.856-11.136 11.24-23.023 22.766-14.494 14.055-20.074 19.569-25.198 25.051-10.197 10.91-13.388 15.51-15.091 20.565-1.697 5.038-3.944 16.06-6.313 32.047-2.757 18.612-19.637 31.398-37.702 28.557-18.064-2.841-30.474-20.232-27.716-38.845 2.933-19.802 5.862-34.167 9.213-44.116 5.491-16.299 13.684-28.108 29.94-45.501 6.197-6.63 12.08-12.444 27.371-27.271 11.482-11.134 16.664-16.233 21.644-21.38 14.124-14.604 24.718-30.739 25.416-37.553 1.702-16.62-2.282-30.838-15.274-43.852-17.263-17.292-38.384-25.414-59.751-23.746-24.51 1.913-43.916 10.997-59.784 28.953-11.558 13.08-19.375 28.604-23.602 47.107-4.187 18.326-22.002 29.686-39.79 25.372s-28.813-22.669-24.626-40.995c6.774-29.648 19.853-55.621 39.084-77.385 27.707-31.355 62.966-47.858 103.718-51.039 40.509-3.162 80.177 12.091 110.88 42.847zM619.2 72.5l2.408 2.938-.012 133.83c-.584 21.908 2.378 32.758 3.98 34.023 4.778 3.772 17.93 6.523 40.52 5.65h109.676l18.75 21.199 14.302 15.936L619.2 72.5z"/></svg>