<svg width="64" height="64" viewBox="0 0 1000 1000" xmlns="http://www.w3.org/2000/svg"><path d="M446.384 454.863c-12.91 0-21.67 1.304-26.263 2.617v86.442c5.43 1.303 12.101 1.745 21.266 1.745 33.781 0 54.643-17.824 54.643-47.785 0-26.94-17.945-43.02-49.646-43.02zm449.82-97.167h-25.722l1.363-94.526c-.166-6.842-3.117-11.352-6.03-14.882L645.08 6.706c-1.577-1.77-3.26-3.135-5.128-4.177a19.124 19.124 0 00-3.717-1.627c-2.42-.703-3.87-.89-5.326-.902H168.942c-20.768 0-39.369 17.598-39.369 39.216v318.47h-25.778c-14.267 0-27.95 5.905-38.039 16.417C55.668 384.613 50 398.87 50 413.735v291.47c0 30.954 24.087 56.044 53.795 56.05h25.778v199.53c0 21.617 18.601 39.215 39.369 39.215h663.9c20.75 0 39.003-17.598 39.003-39.216v-199.52h24.36C925.913 761.26 950 736.169 950 705.217v-291.47c0-14.866-5.668-29.122-15.756-39.634-10.089-10.51-23.772-16.416-38.04-16.416zM197.51 68.908h347.802v228.85c0 5.2 1.983 10.188 5.513 13.865 3.529 3.677 8.316 5.743 13.307 5.743h237.961v40.34H197.51V68.908zm361.461 427.23c0 28.666-9.165 53-25.839 69.519-21.699 21.284-53.805 30.833-91.312 30.833-8.346 0-15.865-.421-21.699-1.294v104.696h-58.497V411c19.61-3.49 42.66-6.088 81.438-6.088 39.192 0 67.13 7.813 85.911 23.46 17.916 14.765 29.998 39.099 29.998 67.765zM169.392 644.283c8.76 3.04 20.005 5.226 32.51 5.226 26.706 0 43.37-12.618 43.37-58.226V407.078h63.375v185.07c0 83.41-38.373 112.509-100.073 112.509-14.585.01-33.771-2.579-46.286-6.941l7.104-53.432zm28.118 286.81v-169.83h604.583v169.83H197.51zm636.696-244.672c-19.591 6.95-56.694 16.51-93.834 16.51-51.264 0-88.395-13.471-114.234-39.53-25.858-25.196-40.048-63.422-39.615-106.441.405-97.314 68.371-152.922 160.53-152.922 36.284 0 64.231 7.373 77.988 14.334l-13.352 53c-15.432-6.951-34.619-12.598-65.473-12.598-52.949 0-92.969 31.284-92.969 94.715 0 60.383 36.266 96.01 88.396 96.01 14.594 0 26.272-1.745 31.268-4.363v-61.245h-43.37v-51.696h104.665v154.226zM614.571 75.976l19.21 21.7L762.823 240.36l7.109 8.642H638.085c-9.957 0-16.257-1.654-18.9-4.96-2.641-3.308-4.18-8.533-4.614-15.678V75.976z"/></svg>