<svg width="64" height="64" viewBox="0 0 1000 1000" xmlns="http://www.w3.org/2000/svg"><path d="M896.205 357.696h-25.723l1.363-94.526c-.166-6.842-3.117-11.352-6.03-14.882L645.08 6.706c-1.577-1.77-3.26-3.135-5.128-4.177a19.124 19.124 0 00-3.717-1.627c-2.42-.703-3.87-.89-5.326-.902H168.942c-20.768 0-39.369 17.598-39.369 39.216v318.47h-25.778c-14.267 0-27.95 5.905-38.039 16.417C55.668 384.613 50 398.87 50 413.735v291.47c0 30.954 24.087 56.044 53.795 56.05h25.778v199.53c0 21.617 18.601 39.215 39.369 39.215h663.9c20.75 0 39.003-17.598 39.003-39.216v-199.52h24.36C925.913 761.26 950 736.169 950 705.217v-291.47c0-14.866-5.668-29.122-15.756-39.634-10.089-10.51-23.772-16.416-38.04-16.416zM197.51 68.908h347.802v228.85c0 5.2 1.983 10.188 5.513 13.865 3.529 3.677 8.316 5.743 13.307 5.743h237.961v40.34H197.51V68.908zm0 862.186v-169.83h604.583v169.83H197.51zM614.57 75.976l19.211 21.7L762.823 240.36l7.109 8.642H638.085c-9.957 0-16.257-1.654-18.9-4.96-2.641-3.308-4.18-8.533-4.614-15.678V75.976zM150 711.609v-300h95.883c36.335 0 60.02 1.501 71.054 4.502 16.957 4.502 31.154 14.29 42.593 29.366 11.438 15.075 17.158 34.55 17.158 58.424 0 18.418-3.297 33.902-9.892 46.453-6.594 12.551-14.97 22.408-25.131 29.57-10.16 7.163-20.489 11.904-30.985 14.223-14.265 2.865-34.922 4.297-61.971 4.297H209.75V711.61H150zm59.75-249.25v85.13h32.701c23.55 0 39.296-1.569 47.235-4.706 7.94-3.138 14.164-8.05 18.672-14.734 4.509-6.685 6.763-14.461 6.763-23.33 0-10.913-3.163-19.917-9.488-27.011-6.325-7.095-14.332-11.528-24.021-13.302-7.132-1.364-21.464-2.046-42.996-2.046H209.75zm202.007-50.75h109.206c24.627 0 43.4 1.91 56.318 5.73 17.36 5.184 32.23 14.393 44.611 27.626 12.381 13.234 21.801 29.434 28.26 48.602 6.46 19.168 9.69 42.803 9.69 70.907 0 24.693-3.028 45.976-9.084 63.847-7.401 21.829-17.965 39.496-31.692 53.002-10.362 10.232-24.357 18.213-41.986 23.943-13.189 4.229-30.817 6.343-52.887 6.343H411.757v-300zm59.75 50.75v198.705h44.611c16.687 0 28.731-.955 36.133-2.865 9.69-2.456 17.73-6.617 24.122-12.483 6.392-5.867 11.607-15.519 15.644-28.957 4.037-13.438 6.056-31.753 6.056-54.945s-2.019-40.996-6.056-53.41c-4.037-12.415-9.689-22.102-16.956-29.06-7.267-6.957-16.485-11.664-27.655-14.12-8.343-1.91-24.694-2.864-49.051-2.864h-26.848zm225.625 249.25v-300H900v50.75H756.882v71.01H880.42v50.75H756.882v127.49h-59.75z"/></svg>