<svg width="64" height="64" viewBox="0 0 1000 1000" xmlns="http://www.w3.org/2000/svg"><path d="M419.88 730.229l66.155 57.178c14.51 12.541 16.186 34.564 3.743 49.189-12.443 14.624-34.293 16.314-48.803 3.772l-78.236-67.619c-7.668-6.627-12.08-16.3-12.08-26.48V396.914L58.54 57.752C39.091 35.168 55.006 0 84.677 0h830.646c29.681 0 45.593 35.188 26.122 57.768L648.974 396.926v568.19c0 19.266-15.496 34.884-34.61 34.884-19.115 0-34.61-15.618-34.61-34.884V383.885c0-8.41 3.014-16.536 8.487-22.884L839.385 69.767h-678.83l250.85 291.25a35.045 35.045 0 018.474 22.868v346.344z"/></svg>