<svg width="64" height="64" viewBox="0 0 1000 1000" xmlns="http://www.w3.org/2000/svg"><path d="M998.56 333.788l-11.58 71.104s-16.56-131.643-36.839-180.85c-31.1-75.411-44.939-74.799-45.019-74.684 20.84 50.663 17.06 77.88 17.06 77.88s-36.9-96.254-134.478-126.877C679.606 66.445 621.128 75.728 614.388 77.47h-2.96c.8.057 1.58.133 2.36.19-.04.02-.08.04-.08.058.44.517 119.437 19.906 140.537 47.658 0 0-50.539 0-100.858 13.876-2.28.632 185.076 22.394 223.376 201.56 0 0-20.54-40.997-45.94-47.964 16.7 48.634 12.42 140.907-3.5 186.765-2.04 5.895-4.14-25.494-35.479-39.025 10.04 68.826-.6 177.999-50.499 208.067-3.88 2.335 31.28-107.756 7.08-65.19-139.357 204.489-304.094 94.36-378.172 45.897 37.959 7.905 110.017-1.225 141.897-23.943.04-.02.08-.058.12-.077 34.64-22.661 55.139-39.217 73.558-35.294 18.44 3.943 30.7-13.76 16.38-29.475-14.34-15.732-49.139-37.36-96.218-25.57-33.2 8.326-74.339 43.485-137.157 7.885-48.2-27.331-52.74-50.05-53.18-65.764 1.18-5.57 2.68-10.775 4.46-15.541 5.54-14.833 22.38-19.312 31.74-22.834 15.88 2.603 29.56 7.35 43.92 14.393.18-4.574.24-10.641-.02-17.532 1.38-2.622.52-10.507-1.68-20.173-1.28-9.627-3.34-19.599-6.6-28.69.02 0 .02 0 .02-.02.06-.019.1-.038.16-.057a.56.56 0 00.2-.172c.02-.02.02-.038.04-.057.08-.115.16-.25.2-.44 1-4.307 11.739-12.633 25.119-21.59 11.98-8.02 26.08-16.537 37.179-23.14 9.82-5.838 17.3-10.163 18.9-11.312.6-.44 1.32-.938 2.12-1.53.14-.116.3-.211.44-.326.1-.077.18-.134.28-.21 5.28-4.02 13.16-11.638 14.82-27.639 0-.038 0-.076.02-.114l.12-1.436c.02-.344.04-.67.08-1.033.02-.268.04-.536.04-.804l.06-1.933v-.115c.02-1.55 0-3.158-.1-4.862-.06-.957-.12-1.799-.3-2.584 0-.038-.02-.076-.02-.133l-.06-.23-.12-.402c0-.02 0-.038-.02-.038-.06-.153-.1-.287-.16-.44v-.02c-1.72-3.847-8.12-5.282-34.62-5.723h-.08c-10.8-.172-24.94-.172-43.46-.114-32.478.134-50.418-30.375-56.138-42.184 7.86-41.552 30.54-71.162 67.819-91.24.7-.382.56-.688-.26-.918 7.28-4.21-88.139-.115-132.018 53.304-38.959-9.263-72.898-8.632-102.158-2.067-5.62-.153-12.62-.823-20.94-2.469-19.459-16.881-47.318-48.04-48.798-85.248 0 0-.08.077-.24.191-.02-.363-.06-.708-.08-1.071 0 0-59.3 43.619-50.42 162.495-.02 1.895-.06 3.733-.12 5.494-16.039 20.824-23.999 38.336-24.599 42.203C26.16 326.458 11.74 368.163 0 431.458c0 0 8.22-24.92 24.7-53.15C12.58 413.85 3.06 469.105 8.64 552c0 0 1.48-18.374 6.72-44.845 4.08 51.41 22 114.877 67.238 189.522 86.859 143.28 220.376 215.647 367.953 226.728 26.2 2.067 52.779 2.125 79.518.173 2.46-.173 4.92-.345 7.38-.536 30.24-2.03 60.68-6.412 91.058-13.417C1043.7 813.563 998.56 333.75 998.56 333.75v.038z"/></svg>