<svg width="64" height="64" viewBox="0 0 1000 1000" xmlns="http://www.w3.org/2000/svg"><path d="M478.295 291.885c-33.597 0-62.187-24.088-67.367-56.759l-11.75-74.101c-1.726-10.89-11.256-18.92-22.455-18.92H90.909c-12.552 0-22.727 10.015-22.727 22.369v671.052c0 12.354 10.175 22.369 22.727 22.369h818.182c12.552 0 22.727-10.015 22.727-22.369V314.253c0-12.354-10.175-22.368-22.727-22.368H478.295zm0-67.106H909.09c50.208 0 90.909 40.06 90.909 89.474v521.273c0 49.415-40.701 89.474-90.91 89.474H90.91C40.7 925 0 884.941 0 835.526V164.474C0 115.059 40.701 75 90.91 75h285.813c44.796 0 82.915 32.117 89.822 75.678l11.75 74.101z"/></svg>