<svg width="64" height="64" viewBox="0 0 1000 1000" xmlns="http://www.w3.org/2000/svg"><path d="M114.104 191.391c-17.534 3.14-28.316 9.436-34.556 18.703-8.247 12.248-11.933 25.461-11.227 42.062v585.91L.11 790.996l.032-537.405c-1.29-28.984 6.23-55.943 22.356-79.89 17.84-26.495 46.45-42.517 83.291-48.28l5.413-.421 177.98.045c37.127 1.873 67.777 17.475 89.187 45.79 19.323 25.557 23.596 45.52 24.203 81.954.073 4.39.149 7.537.265 10.068 2.29-.016 5.444-.14 9.663-.471h281.805l5.048.365c29.304 4.27 54.485 16.428 74.427 36.196 21.755 21.566 31.607 51.405 30.726 86.728v89.924h-68.212l.01-90.721c.48-19.451-3.639-31.925-11.196-39.417-8.885-8.808-19.757-14.29-33.567-16.686l-275.793-.149c-42.717 3.978-75.207-12.561-80.053-50.852-.903-7.13-1.135-12.445-1.326-23.91-.395-23.754-2.18-32.094-10.939-43.677-9.104-12.04-20.775-17.982-36.014-18.796H114.104zM902.71 466.616c41.547.677 72.957 15.195 88.466 45.407 14.717 28.668 10.545 61.262-8.942 95.454l-2.714 4.04-142.175 181.278c-16.98 22.408-36.52 40.903-58.58 55.318-24.152 15.783-54.407 24.524-92.567 26.887H100.811c-31.643 0-56.532-7.07-73.62-23.87C6.164 830.46-2.248 808.66.63 781.46c1.79-16.926 8.472-33.426 20.764-51.11l172.244-191.668c26.93-27.897 50.975-46.988 73.255-57.309 20.189-9.352 44.404-14.113 72.217-14.743l563.6-.014zm-552.111 66.38c-23.816-.441-41.95 2.561-54.392 8.325-13.236 6.131-31.23 20.418-50.667 40.314L76.75 769.09c-5.12 7.415-7.695 13.774-8.267 19.172-.732 6.924.172 9.268 7.182 16.159 1.94 1.907 9.973 4.189 25.147 4.189l583.157.07c24.703-1.575 43.485-7.001 56.776-15.686 15.384-10.054 29.274-23.2 42.044-40.045l140.92-179.686c8.515-15.564 9.613-25.401 6.45-31.565-2.506-4.88-10.115-8.398-28.02-8.694l-551.54-.006z"/></svg>