<svg width="64" height="64" viewBox="0 0 1000 1000" xmlns="http://www.w3.org/2000/svg"><path d="M189.317 987.2C167.687 1012.493 125 997.79 125 965.05l.056-889.22c1.557-27.041 11.658-48.77 32.59-61.575C174.342 4.042 196.56 0 225.513 0h579.295c27.067-.103 49.524 9.381 61.529 30.744 9.354 16.646 10.819 35.65 5.908 54.283l-32.384 145.68c-8.168 27.675-20.463 47.934-39.445 59.842-17.672 11.086-41.19 15.184-70.676 14.529H460.5c-9.701 0-14.54 1.104-14.385.988 2.298-1.726 2.38-1.93 2.29 1.363l-.022 62.064c.198 5.465.304 5.74-3.34 3.207-.84-.583 8.05.917 23.387.917l237.489.014c30.331-.84 55.58 7.716 72.47 27.382 16.027 18.66 21.33 42.519 16.866 71.11l-30.234 141.14c-6.216 24.884-18.12 43.837-37.607 54.665-15.178 8.434-33.824 12.75-57.842 13.87l-192.6-.065c-10.852-.636-18.379.108-22.229 1.503-3.475 1.259-9.166 5.295-14.594 10.666L189.317 987.201zm8.256-119.472l188.224-219.986c14.067-14.251 28.261-24.319 43.353-29.786 14.716-5.332 32.011-7.041 50.03-5.921l188.568.044c11.619-.563 19.428-2.37 23.35-4.55-.387.215 1.363-2.571 3.1-9.441L723.82 459.98c1.297-8.414.395-12.47-1.394-14.552-.924-1.077-4.637-2.335-15.46-2.05H468.431c-29.75 0-50.63-3.523-65.917-14.15-18.093-12.58-25.76-32.475-26.68-58.522l.009-64.095c.565-23.187 8.42-42.627 25.6-55.525 15.035-11.29 34.677-15.772 59.058-15.772l270.065.01c17 .372 27.378-1.436 30.187-3.199 1.5-.94 5.45-7.449 8.71-18.211L801.45 69.763H225.51c-15.09 0-24.798 1.55-28.176 2.984.87-.25.51 1.102.239 5.009l-.001 789.972z"/></svg>