<svg width="64" height="64" viewBox="0 0 1000 1000" xmlns="http://www.w3.org/2000/svg"><path d="M500 0c276.142 0 500 223.858 500 500s-223.858 500-500 500S0 776.142 0 500 223.858 0 500 0zm0 69.767C262.39 69.767 69.767 262.39 69.767 500c0 237.61 192.622 430.233 430.233 430.233 237.61 0 430.233-192.622 430.233-430.233C930.233 262.39 737.61 69.767 500 69.767zm0 500.161c91.83 0 168.922 68.435 180.369 158.779 2.366 18.679-10.857 35.739-29.536 38.106-18.679 2.366-35.739-10.857-38.105-29.536-7.143-56.378-55.346-99.167-112.728-99.167-57.664 0-106.02 43.2-112.82 99.923-2.242 18.694-19.214 32.032-37.908 29.79-18.694-2.241-32.031-19.213-29.79-37.907C330.381 639.021 407.72 569.928 500 569.928zM290.698 313.953c38.531 0 69.767 31.236 69.767 69.768 0 38.531-31.236 69.767-69.767 69.767-38.532 0-69.768-31.236-69.768-69.767 0-38.532 31.236-69.768 69.768-69.768zm418.604 0c38.532 0 69.768 31.236 69.768 69.768 0 38.531-31.236 69.767-69.768 69.767-38.531 0-69.767-31.236-69.767-69.767 0-38.532 31.236-69.768 69.767-69.768z"/></svg>