<svg width="64" height="64" viewBox="0 0 1000 1000" xmlns="http://www.w3.org/2000/svg"><path d="M1000 512.523c0 111.669-31.793 212.105-95.378 301.307-63.585 89.202-145.724 150.931-246.419 185.189-11.719 2.224-20.29.667-25.716-4.672-5.425-5.339-8.138-12.012-8.138-20.02v-140.81c0-43.156-11.285-74.743-33.854-94.764 24.74-2.67 46.983-6.673 66.732-12.012 19.748-5.339 40.147-14.014 61.197-26.027 21.05-12.012 38.629-26.805 52.735-44.378 14.106-17.574 25.607-40.93 34.505-70.072 8.898-29.14 13.346-62.619 13.346-100.435 0-53.833-17.144-99.657-51.432-137.474 16.06-40.486 14.323-85.865-5.208-136.139-12.153-4.004-29.731-1.557-52.735 7.341-23.003 8.898-42.968 18.686-59.895 29.363L625 264.937c-40.365-11.568-82.031-17.351-125-17.351-42.969 0-84.635 5.783-125 17.35-6.944-4.893-16.168-10.9-27.67-18.018-11.501-7.118-29.622-15.682-54.361-25.692-24.74-10.01-43.403-13.014-55.99-9.01-19.097 50.274-20.616 95.653-4.557 136.14-34.288 37.816-51.432 83.64-51.432 137.473 0 37.816 4.448 71.183 13.346 100.102 8.898 28.918 20.29 52.275 34.18 70.071 13.889 17.796 31.358 32.7 52.408 44.712 21.05 12.013 41.45 20.688 61.198 26.027 19.749 5.339 41.993 9.343 66.732 12.012-17.36 16.017-27.995 38.929-31.9 68.737-9.115 4.449-18.881 7.786-29.298 10.01-10.416 2.225-22.786 3.337-37.11 3.337-14.322 0-28.536-4.783-42.642-14.348-14.106-9.565-26.15-23.468-36.133-41.71-8.247-14.236-18.772-25.803-31.576-34.701-12.804-8.898-23.546-14.237-32.226-16.017l-13.021-2.002c-9.115 0-15.408 1.001-18.88 3.003-3.473 2.002-4.558 4.56-3.255 7.675 1.302 3.114 3.255 6.228 5.859 9.343 2.604 3.114 5.425 5.783 8.463 8.008l4.558 3.337c9.548 4.449 18.988 12.902 28.32 25.359 9.332 12.457 16.168 23.802 20.508 34.035l6.51 15.349c5.643 16.906 15.191 30.586 28.646 41.041 13.455 10.455 27.995 17.129 43.62 20.02 15.625 2.893 30.707 4.45 45.247 4.672 14.54.223 26.584-.556 36.133-2.335l14.974-2.67c0 16.906.109 36.704.326 59.394.217 22.69.325 34.702.325 36.037 0 8.008-2.821 14.681-8.463 20.02-5.643 5.339-14.323 6.896-26.042 4.672-100.695-34.258-182.834-95.987-246.42-185.19C31.794 724.629 0 624.193 0 512.524c0-92.984 22.352-178.738 67.057-257.263 44.705-78.524 105.36-140.699 181.966-186.523C325.63 22.912 409.288 0 500 0c90.712 0 174.37 22.912 250.977 68.737 76.605 45.824 137.26 107.999 181.966 186.523C977.648 333.785 1000 419.54 1000 512.523z"/></svg>