<svg width="64" height="64" viewBox="0 0 1000 1000" xmlns="http://www.w3.org/2000/svg"><path d="M500 0c276.142 0 500 223.858 500 500s-223.858 500-500 500S0 776.142 0 500 223.858 0 500 0zm0 69.767C262.39 69.767 69.767 262.39 69.767 500c0 237.61 192.622 430.233 430.233 430.233 237.61 0 430.233-192.622 430.233-430.233C930.233 262.39 737.61 69.767 500 69.767zM602.42 174.42c32.3 12.24 62.256 29.226 89.096 50.425.36.134.68.336 1.007.737a253.96 253.96 0 0118.13 15.381c1.072.937 2.05 1.94 3.09 2.943 16.407 15.18 31.29 32.235 44.546 50.56 1.82 2.541 3.772 4.88 5.46 7.356 3.217 4.681 6.204 9.564 9.196 14.443 2.372 3.881 4.745 7.826 6.952 11.839 2.533 4.48 4.972 8.963 7.312 13.643 2.632 5.083 5.037 10.5 7.439 15.783 1.659 3.677 3.478 7.422 5.004 11.303a376.152 376.152 0 019.846 27.621c.945 3.075 1.691 6.42 2.6 9.495 1.984 7.024 3.804 14.247 5.297 21.27.813 3.676 1.494 7.353 2.174 11.03a423.13 423.13 0 013.285 22.072c.355 3.278.845 6.756 1.105 10.03 1.007 10.769 1.622 21.605 1.622 32.504 0 10.7-.614 21.402-1.56 31.97-.32 3.275-.712 6.82-1.134 10.03a328.43 328.43 0 01-3.152 21.469c-.685 3.677-1.267 7.355-2.013 10.9a367.075 367.075 0 01-6.99 28.02c-25.409-11.702-55.335-28.822-63.134-47.684-14.198-34.038-51.99-51.026-67.388-94.83-25.38-72.495 8.285-70.555 13.026-115.565 2.18-21.133-13.026-25.481-33.107-16.92-46.758 19.663-62.614 12.104-72.071-23.14-9.458-35.178 0-44.942 0-44.942-31.907 3.477-33.112-35.378-16.57-45.142 11.532-6.622 21.282-26.885 30.933-42.601zm-133.71 215.41c29.505-13.44 56.733-18.323 53.16-41.528-3.545-22.943-11.83-40.061-57.906-40.061-46.105 0-25.994 63.266-63.815 25.547-37.79-37.52 8.252-27.821 27.163-36.382 18.915-8.628 37.824-43.871 4.745-46.347-33.08-2.34-25.994 14.58-51.989 4.949-25.994-9.764-37.82 33.974-54.395 27.889-10.917-4.08-40.192-26.617-59.589-48.755-39.09 33.84-70.61 76.841-91.665 125.464 5.624 65.405 40.196 99.714 40.196 99.714s17.738 42.534 124.122 94.835c0 0 20.048 1.2-3.573-23.074-23.623-24.343-49.65-54.708-20.116-70.49 29.54-15.916 37.858-14.577 44.938 14.645 7.085 29.227 30.74 12.043 33.08-15.915 2.372-27.888 46.076-57.047 75.644-70.491zm-22.484 147.068c50.85 0 46.105 15.783 86.302 51.226 40.193 35.18 18.91 70.423-1.206 97.243-20.078 26.683-37.82 56.98-47.277 111.883-9.453 54.707-34.28 15.72-42.532 2.343-8.252-13.443-21.282-25.549-17.676-81.526 3.474-55.842-34.346-22.938-47.31-95.969-12.997-72.894 18.91-85.2 69.699-85.2zm248.8 48.151c13.58-8.628 46.04 13.912 38.992 37.651-7.117 23.741-29.539 10.365-40.783 0-11.239-10.296-11.825-29.158 1.791-37.65z"/></svg>