<svg width="64" height="64" viewBox="0 0 1000 1000" xmlns="http://www.w3.org/2000/svg"><path d="M684.08 84.076c100.354-23.963 183.385 1.32 242.448 54.743 51.604 46.675 81.41 127.906 71.623 219.467-7.345 68.713-44.666 138.46-112.116 211.042l-363.668 346.13c-13.418 12.772-34.801 12.715-48.148-.127L113.3 568.014c-53.403-56.678-87.49-110.51-101.674-162.126-20.58-74.884-13.573-150.542 18.893-212.153C69.007 120.696 145.808 77.32 257.085 77.32c76.133 0 156.006 37.617 240.281 111.033 57.365-53.325 119.661-88.266 186.714-104.277zM498.493 844.16l338.045-321.658c56.88-61.289 87.474-118.465 93.114-171.23 7.566-70.79-14.515-130.97-49.867-162.946-42.932-38.832-102.773-57.054-179.38-38.761-62.838 15.005-121.718 50.962-176.9 108.685-13.136 13.741-35.222 14.293-49.057 1.226-81.846-77.3-154.593-114.746-217.363-114.746-86.11 0-138.985 29.863-165.354 79.904-24.409 46.322-29.817 104.717-13.596 163.745 10.928 39.766 39.331 84.62 84.622 132.75L498.493 844.16z"/></svg>