<svg width="64" height="64" viewBox="0 0 1000 1000" xmlns="http://www.w3.org/2000/svg"><path d="M683.525 82.888c105.141-24.671 208.209 11.088 256.726 71.693 44.786 55.945 65.14 114.105 58.529 199.908-4.765 61.841-25.008 107.687-64.938 158.17-7.36 9.305-15.406 18.855-25.55 30.443-5.964 6.814-28.545 32.208-27.401 30.916-39.957 45.121-157.762 158.157-355.161 340.942-14.52 13.446-37.341 13.378-51.777-.153-169.455-158.83-279.14-263.414-329.432-314.131C51.625 506.994 16.323 452.558 3.493 364.646c-13.421-91.966 12.24-167.44 69.928-226.07 54.098-54.981 150.844-75.355 246.374-55.933 55.933 11.372 115.504 47.954 180.028 109.006 55.037-56.437 116.341-92.955 183.702-108.761z"/></svg>