<svg width="64" height="64" viewBox="0 0 1000 1000" xmlns="http://www.w3.org/2000/svg"><path d="M908.902 568.665c19.338 0 35.015 15.66 35.015 34.979l-.019 293.72c1.327 40.61-3.547 67.22-21.713 83.966-16.897 15.578-41.366 20.057-73.151 18.317l-691.855-.039c-32.111-1.522-57.128-14.63-68.775-40.907-7.696-17.363-11.287-37.836-11.287-61.413V603.644c0-19.318 15.677-34.979 35.015-34.979s35.014 15.66 35.014 34.979v293.644c0 11.592 1.238 20.968 3.452 28.132l1.802 4.88-.14-.542c.053-.596 1.458-.342 6.58-.067l692.055.05c12.2.648 20.014-.062 22.762-.092l.193-.049c-.636-2.655.597-13.512.038-31.095V603.644c0-19.318 15.676-34.979 35.014-34.979zM873.85 929.6l.302.528.54-.208c.117-.108.088-.179-.086-.22l-.756-.1zM521.713 0c13.186 0 24.965 5.182 36.1 14.856L989.03 421.792c14.058 13.266 14.688 35.404 1.408 49.447-13.28 14.043-35.44 14.673-49.498 1.407L520.091 75.449 57.885 473.706C43.24 486.323 21.13 484.693 8.5 470.065c-12.63-14.628-10.999-36.715 3.645-49.333l472.28-406.936 4.313-3.176C499.472 3.92 510.127 0 521.713 0z"/></svg>