<svg width="64" height="64" viewBox="0 0 1000 1000" xmlns="http://www.w3.org/2000/svg"><path d="M1000 523.31c0 19.89-1.107 39.78-3.893 59.09H353.821c0 113.055 97.643 194.873 204.786 194.873 72.536 0 142.286-36.364 179.679-100.582H974.32c-63.814 182.422-233.345 304.325-423.535 304.545-68.643 0-137.286-16.472-198.679-47.163C289.607 966.473 202 1000 132.25 1000 38.5 1000 0 941.49 0 850.582c0-52.837 11.179-105.673 25.107-156.255 8.929-32.945 44.643-100 60.822-130.109C154.57 437.528 244.964 315.928 351 219.891c-85.393 37.49-178 131.818-238.286 201.127 46.918-207.844 228.617-355.14 438.072-355.127 8.357 0 16.75 0 25.107.582C645.07 34.073 741.643 0 817.536 0 907.929 0 985.5 35.236 985.5 139.2c0 54.545-20.643 113.636-41.857 162.51 36.89 67.824 56.28 144.068 56.357 221.6zm-39.071-363.637c0-63.637-44.643-102.837-106.036-102.837-46.893 0-99.893 19.31-141.75 39.782 90.843 36.273 167.763 101.43 219.321 185.782 13.965-37.49 28.465-82.945 28.465-122.727zm-889.5 702.836c0 65.927 38.5 101.71 102.107 101.71 49.678 0 104.928-22.728 148.428-47.164-91.443-54.959-160.826-141.101-195.857-243.164C100.43 728.436 71.43 801.164 71.43 862.509zm281.25-405.127h406.25c-3.893-109.673-98.786-188.618-203.143-188.618-104.929 0-199.215 78.981-203.143 188.618h.036z"/></svg>