<svg width="64" height="64" viewBox="0 0 1000 1000" xmlns="http://www.w3.org/2000/svg"><path d="M807.862 0c18.892 0 42.063 18.599 51.755 41.541L1000 371.899V900c0 55.228-44.772 100-100 100H100C44.772 1000 0 955.228 0 900V371.899L140.383 41.54C150.075 18.599 173.246 0 192.138 0zM337.074 441.899H70V900c0 16.569 13.431 30 30 30h800c16.569 0 30-13.431 30-30V441.899H712.926C690.093 524.232 614.604 584.668 525 584.668c-89.604 0-165.093-60.436-187.926-142.77zM795.649 70H204.351L75.989 371.899h325.264A126.067 126.067 0 00400 389.668c0 69.036 55.964 125 125 125s125-55.964 125-125c0-6.032-.427-11.965-1.253-17.77H924.01L795.649 70z"/></svg>