<svg width="64" height="64" viewBox="0 0 1000 1000" xmlns="http://www.w3.org/2000/svg"><path d="M500 0c276.142 0 500 223.858 500 500s-223.858 500-500 500S0 776.142 0 500 223.858 0 500 0zm0 69.767C262.39 69.767 69.767 262.39 69.767 500c0 237.61 192.622 430.233 430.233 430.233 237.61 0 430.233-192.622 430.233-430.233C930.233 262.39 737.61 69.767 500 69.767zm-7.26 290.698c19.266 0 34.884 15.618 34.884 34.884v377.908c0 19.265-15.618 34.883-34.884 34.883-19.265 0-34.883-15.618-34.883-34.883V395.349c0-19.266 15.618-34.884 34.883-34.884zm1.405-139.535c25.688 0 46.512 20.824 46.512 46.512s-20.824 46.511-46.512 46.511-46.512-20.823-46.512-46.511c0-25.688 20.824-46.512 46.512-46.512z"/></svg>