<svg width="64" height="64" viewBox="0 0 1000 1000" xmlns="http://www.w3.org/2000/svg"><path d="M68.182 117.468v539.747h863.636V117.468H68.182zM954.545 50C979.65 50 1000 70.138 1000 94.979v584.725c0 24.842-20.35 44.98-45.455 44.98L528 724.65V882.5l171.869.032c18.828 0 34.09 15.103 34.09 33.734 0 18.63-15.262 33.734-34.09 33.734H299.06c-18.827 0-34.09-15.103-34.09-33.734s15.263-33.734 34.09-33.734l160.79-.032V724.65l-414.395.033C20.35 724.683 0 704.546 0 679.704V94.98C0 70.138 20.35 50 45.455 50h909.09z"/></svg>