<svg width="64" height="64" viewBox="0 0 1000 1000" xmlns="http://www.w3.org/2000/svg"><path d="M909.09 0C959.3 0 1000 40.701 1000 90.91v818.18c0 50.209-40.701 90.91-90.91 90.91H90.91C40.7 1000 0 959.299 0 909.09V90.91C0 40.7 40.701 0 90.91 0h818.18zM539.4 281.336L345.893 479.912c-12.99 13.33-12.887 34.617.232 47.82l193.507 194.75c13.271 13.356 34.856 13.425 48.212.154 13.356-13.27 13.425-34.855.154-48.211L418.135 503.47l170.096-174.55c13.14-13.485 12.86-35.068-.623-48.208-13.485-13.14-35.068-12.861-48.208.623z"/></svg>