<svg width="64" height="64" viewBox="0 0 1000 1000" xmlns="http://www.w3.org/2000/svg"><path d="M500 0c276.142 0 500 223.858 500 500s-223.858 500-500 500S0 776.142 0 500 223.858 0 500 0zm0 69.767C262.39 69.767 69.767 262.39 69.767 500c0 237.61 192.622 430.233 430.233 430.233 237.61 0 430.233-192.622 430.233-430.233C930.233 262.39 737.61 69.767 500 69.767zm39.4 212.522c13.14-13.485 34.723-13.764 48.208-.624 13.484 13.14 13.763 34.724.623 48.208l-170.096 174.55 169.863 170.954c13.27 13.356 13.202 34.941-.154 48.212-13.356 13.27-34.94 13.202-48.212-.154l-193.507-194.75c-13.12-13.204-13.223-34.49-.232-47.82z"/></svg>