<svg width="64" height="64" viewBox="0 0 1000 1000" xmlns="http://www.w3.org/2000/svg"><path d="M329.902 388.075c15.406 15.405 15.406 40.383 0 55.789L127.035 646.659C93.648 683.639 78.222 720.095 78.92 757.2c.94 49.988 13.813 77.73 43.586 111.526 25.452 28.891 60.209 47.928 107.784 51.924 34.1 2.864 69.388-7.98 106.801-33.883L554.949 668.91c15.406-15.405 40.383-15.405 55.79 0 15.405 15.406 15.405 40.384 0 55.79l-220.29 220.288-5.07 4.282c-52.789 37.444-107.022 54.593-161.692 50-68.928-5.79-122.06-34.89-160.381-78.39C22.11 874.117 1.369 829.417.037 758.685c-1.1-58.464 22.323-113.82 69.822-166.356l204.254-204.254c15.406-15.406 40.384-15.406 55.79 0zM758.685.037C829.417 1.37 874.117 22.11 920.88 63.306c43.5 38.321 72.6 91.453 78.39 160.38 4.593 54.671-12.556 108.904-50 161.692l-4.282 5.071L724.7 610.74c-15.405 15.405-40.383 15.405-55.789 0-15.405-15.407-15.405-40.384 0-55.79l217.857-217.857c25.903-37.413 36.747-72.7 33.883-106.801-3.996-47.575-23.033-82.332-51.924-107.784C834.93 92.734 807.188 79.862 757.2 78.921c-37.105-.699-73.56 14.727-110.541 48.114L443.864 329.902c-15.406 15.406-40.384 15.406-55.79 0-15.405-15.405-15.405-40.383 0-55.789L592.33 69.86C644.864 22.36 700.221-1.064 758.685.037zM597.567 384.892c15.405 15.406 15.405 40.383 0 55.789L451.33 586.918c-15.406 15.406-40.384 15.406-55.79 0-15.405-15.406-15.405-40.383 0-55.789l146.238-146.237c15.405-15.406 40.383-15.406 55.789 0z"/></svg>