<svg width="64" height="64" viewBox="0 0 1000 1000" xmlns="http://www.w3.org/2000/svg"><path d="M851.958 852.167H703.875V620.125c0-55.333-1.125-126.542-77.167-126.542-77.208 0-89 60.209-89 122.459v236.125H389.625V375h142.25v65.042h1.917c19.875-37.5 68.208-77.084 140.416-77.084C824.25 362.958 852 461.708 852 590.25v261.917h-.042zM222.375 309.708c-47.667 0-85.958-38.583-85.958-86.041 0-47.417 38.333-85.959 85.958-85.959 47.5 0 86 38.542 86 85.959 0 47.458-38.542 86.041-86 86.041zm74.25 542.459h-148.5V375h148.5v477.167zM926.042 0H73.792C33 0 0 32.25 0 72.042v855.916C0 967.792 33 1000 73.792 1000h852.125c40.75 0 74.083-32.208 74.083-72.042V72.042C1000 32.25 966.667 0 925.917 0h.125z"/></svg>