<svg width="64" height="64" viewBox="0 0 1000 1000" xmlns="http://www.w3.org/2000/svg"><path d="M436.514 235.28c-1.57 3.535-3.062 5.302-4.475 5.302-1.749.37-2.624-.559-2.624-2.785 0-4.464 3.331-7.255 9.992-8.374h5.248c-3.857.369-6.571 2.321-8.141 5.856zm47.822-1.679c-2.624-2.785-5.69-3.625-9.2-2.518 8.41-4.094 14.017-3.72 16.82 1.125 1.054 2.238.527 3.91-1.581 5.018-1.402.369-3.415-.84-6.039-3.625zM302.72 477.166c-.707 1.487-1.497 3.815-2.372 6.981-.875 3.166-1.839 5.678-2.893 7.535-1.054 1.857-2.804 4.273-5.248 7.25-2.456 3.713-2.63 5.945-.522 6.695 1.402.369 3.594-.935 6.577-3.91 2.983-2.976 5.176-6.327 6.577-10.053.348-1.119.701-2.422 1.06-3.91.359-1.488.712-2.607 1.06-3.357.347-.75.611-1.59.79-2.518.18-.928.27-1.672.27-2.232v-1.678l-.522-1.393c-.348-.928-.875-1.303-1.581-1.125-1.435-.333-2.49.227-3.196 1.715zm423.673 175.196a1391.133 1391.133 0 013.936-15.338c1.222-4.642 2.097-9.475 2.624-14.498.527-5.024 1.054-9.023 1.581-11.999.527-2.976.617-7.16.27-12.552-.348-5.393-.522-9.017-.522-10.874 0-1.857-.611-5.946-1.834-12.267-1.222-6.32-1.923-10.136-2.102-11.445-.18-1.31-1.054-5.958-2.624-13.945a5062.824 5062.824 0 01-2.894-14.784c-3.498-17.856-11.735-37.014-24.71-57.477-12.974-20.462-25.59-34.413-37.847-41.853 8.41 7.44 18.396 22.88 29.958 46.317 30.491 60.256 39.95 111.96 28.377 155.11-3.857 14.879-12.615 22.694-26.274 23.443-10.867 1.488-17.612-1.952-20.236-10.32-2.624-8.368-4.026-23.896-4.205-46.584-.18-22.689-2.193-42.591-6.039-59.709-3.151-14.51-6.566-27.342-10.244-38.496-3.678-11.153-7.093-19.617-10.244-25.39s-5.865-10.332-8.142-13.677c-2.276-3.345-4.552-6.136-6.829-8.374-2.276-2.238-3.588-3.542-3.936-3.91-4.912-23.07-10.345-42.229-16.3-57.477-5.954-15.248-11.124-25.664-15.509-31.247-4.384-5.583-8.5-11.719-12.346-18.409-3.847-6.69-6.477-14.13-7.89-22.319-1.401-7.809-.347-17.76 3.163-29.854 3.51-12.094 4.3-21.301 2.372-27.622-1.93-6.32-9.729-10.97-23.398-13.945-5.26-1.119-13.06-4.47-23.399-10.053-10.339-5.582-16.557-8.558-18.654-8.927-2.804-.37-4.733-5.202-5.787-14.499-1.054-9.297.348-18.784 4.206-28.461 3.857-9.678 10.165-14.701 18.923-15.07 12.964-1.12 21.901 4.464 26.813 16.748 4.912 12.285 5.613 23.075 2.103 32.372-3.858 7.07-4.211 11.999-1.06 14.784 3.151 2.786 8.41 2.88 15.778.286 4.553-1.488 6.83-8.184 6.83-20.087v-20.641c-1.75-11.166-4.116-20.462-7.099-27.89-2.983-7.428-6.661-13.1-11.035-17.016-4.373-3.917-8.489-6.708-12.346-8.375-3.858-1.666-8.59-3.059-14.197-4.178-37.5 2.976-53.093 27.896-46.78 74.76 0 5.583-.173 8.375-.521 8.375-3.151-3.345-8.321-5.297-15.51-5.857-7.187-.56-12.968-.464-17.342.286-4.373.75-7.087-.179-8.141-2.786.348-21.2-2.456-37.942-8.41-50.227-5.955-12.284-13.839-18.61-23.651-18.98-9.465-.369-16.737 4.744-21.817 15.338-5.08 10.594-7.973 21.658-8.68 33.193-.347 5.583.264 12.463 1.834 20.64 1.57 8.178 3.846 15.154 6.83 20.927 2.982 5.773 5.696 8.285 8.14 7.535 3.5-1.119 6.303-3.726 8.411-7.82 1.402-3.345.174-4.833-3.684-4.464-2.456 0-5.17-2.697-8.141-8.089-2.972-5.392-4.637-11.624-4.996-18.694-.348-8.178 1.228-15.058 4.727-20.641 3.498-5.583 9.459-8.19 17.88-7.82 5.955 0 10.688 3.904 14.198 11.712 3.51 7.81 5.175 15.064 4.995 21.766-.18 6.702-.443 10.79-.79 12.267-7.704 5.582-13.137 10.975-16.3 16.177-2.803 4.463-7.62 8.832-14.45 13.105-6.829 4.274-10.423 6.6-10.781 6.982-4.553 5.214-7.267 10.237-8.142 15.07-.875 4.833.437 8.183 3.936 10.052a58.06 58.06 0 0113.138 10.874c3.846 4.274 6.65 7.809 8.41 10.606 1.76 2.798 5.002 5.214 9.723 7.25 4.72 2.035 10.939 3.243 18.654 3.624 16.474.75 34.349-2.041 53.626-8.374.706-.37 4.738-1.673 12.094-3.91 7.357-2.238 13.401-4.19 18.133-5.857 4.733-1.666 9.902-4.083 15.51-7.25 5.606-3.166 9.285-6.421 11.034-9.766 3.151-5.214 6.656-6.702 10.513-4.464 1.75 1.119 2.888 2.702 3.415 4.75.527 2.047 0 4.279-1.581 6.695-1.581 2.417-4.475 4.184-8.68 5.303-7.009 2.238-16.91 6.238-29.706 12-12.795 5.76-20.768 9.385-23.92 10.873-15.419 7.07-27.687 11.35-36.804 12.838-8.758 1.857-22.602 1.482-41.531-1.125-3.5-.75-5.075-.375-4.727 1.125.347 1.5 3.325 5.035 8.932 10.606 8.758 8.559 20.5 12.648 35.223 12.267 5.955-.37 12.263-1.673 18.924-3.91 6.661-2.238 12.969-4.845 18.924-7.821a236.923 236.923 0 0017.611-9.767 1128.023 1128.023 0 0115.779-9.481c4.732-2.786 9.027-5.018 12.885-6.696 3.857-1.678 6.924-2.143 9.2-1.393 2.277.75 3.769 2.798 4.475 6.143 0 .75-.174 1.589-.521 2.517-.348.929-1.049 1.857-2.103 2.786a38.997 38.997 0 01-3.162 2.517c-1.055.75-2.546 1.679-4.475 2.786-1.929 1.107-3.504 1.946-4.727 2.517-1.222.572-2.971 1.5-5.248 2.786-2.276 1.285-3.941 2.124-4.996 2.517-9.812 5.214-21.637 13.398-35.475 24.551-13.838 11.154-25.49 19.153-34.954 23.998-9.465 4.845-18.05 5.03-25.754.553-7.356-4.094-18.396-17.67-33.12-40.728-7.704-11.534-12.083-15.623-13.138-12.266-.347 1.119-.521 2.976-.521 5.57 0 9.297-2.63 19.808-7.89 31.533-5.259 11.725-10.428 22.046-15.508 30.961-5.08 8.916-8.758 19.707-11.035 32.372-2.276 12.665-.263 24.384 6.039 35.157-8.063 2.238-19.013 18.98-32.852 50.227-13.838 31.247-22.159 57.47-24.962 78.67-.707 6.702-.97 19.534-.79 38.497.179 18.962-.786 29.937-2.894 32.925-2.803 8.928-7.883 9.487-15.24 1.678-11.214-11.534-17.522-29.014-18.924-52.44-.706-10.416-.005-20.832 2.103-31.247 1.402-7.071 1.228-10.422-.521-10.053l-2.103 2.785c-12.616 24.177-10.866 55.048 5.248 92.616 1.75 4.464 6.129 9.672 13.137 15.623 7.01 5.952 11.214 9.672 12.616 11.16 7.009 8.559 25.232 25.39 54.669 50.495 29.437 25.104 45.73 39.335 48.882 42.692 5.607 5.583 8.674 12.647 9.201 21.194.527 8.547-1.929 16.546-7.368 23.998-5.438 7.451-13.412 11.73-23.92 12.838 2.804 5.583 7.884 13.861 15.24 24.837 7.357 10.975 12.263 21.015 14.72 30.121 2.455 9.107 3.683 22.218 3.683 39.336 16.126-8.928 17.354-26.04 3.684-51.334-1.402-2.976-3.241-5.952-5.518-8.928-2.276-2.976-3.941-5.208-4.995-6.696-1.055-1.488-1.408-2.607-1.06-3.357 1.054-1.856 3.33-3.624 6.83-5.303 3.498-1.678 7.002-1.214 10.512 1.393 16.126 19.343 45.21 26.04 87.251 20.087 46.606-5.582 77.619-21.765 93.038-48.548 8.063-14.13 14.023-19.713 17.88-16.749 4.206 2.238 5.955 11.91 5.249 29.015-.348 9.297-4.38 26.408-12.094 51.334-3.152 8.56-4.206 15.535-3.163 20.927 1.043 5.392 5.248 8.273 12.616 8.642 1.054-7.07 3.594-21.39 7.62-42.96s6.392-38.312 7.098-50.227c.707-7.809-.431-21.48-3.414-41.014-2.983-19.534-4.295-37.573-3.936-54.12.358-16.545 4.39-29.657 12.094-39.335 5.26-6.701 14.197-10.052 26.813-10.052.347-13.76 6.392-23.617 18.133-29.569 11.741-5.951 24.447-7.904 38.117-5.856 13.67 2.047 24.183 6.231 31.54 12.552-.018-6.684-9.656-14.498-28.933-23.426zm-302.51-454.757c-1.93-4.845-3.942-7.636-6.04-8.374-3.15-.75-4.726.553-4.726 3.91.706 1.857 1.581 2.976 2.624 3.357 3.499 0 4.727 2.791 3.684 8.374-1.054 7.44.347 11.16 4.205 11.16 1.054 0 1.581-.56 1.581-1.679 1.037-6.32.6-11.904-1.329-16.748zM642.033 317.86c-1.57-1.297-3.846-2.226-6.83-2.785-2.982-.56-5.522-1.583-7.62-3.071-1.749-1.12-3.414-2.607-4.995-4.464-1.581-1.857-2.81-3.345-3.684-4.464a248.19 248.19 0 00-2.893-3.625c-1.054-1.297-1.755-2.041-2.103-2.231-.347-.19-1.048.089-2.102.839-4.912 5.952-3.684 14.04 3.683 24.265 7.368 10.225 14.203 16.082 20.505 17.57 3.151.369 5.691-1.12 7.62-4.464 1.929-3.345 2.54-7.065 1.834-11.16-.707-2.976-1.845-5.112-3.415-6.41zM551.89 205.425c0-4.095-.875-7.72-2.624-10.874-1.75-3.154-3.679-5.481-5.787-6.981s-3.684-2.06-4.726-1.678c-4.912.369-6.14 1.672-3.684 3.91l2.102 1.125c4.912 1.488 8.069 7.255 9.47 17.302 0 1.119 1.402.744 4.206-1.125l1.043-1.679zm27.065-132.79c-.875-1.107-2.45-2.41-4.727-3.91-2.276-1.5-3.942-2.619-4.996-3.357-5.26-5.583-9.464-8.374-12.615-8.374-3.152.369-5.165 1.762-6.04 4.178-.874 2.417-1.048 4.833-.52 7.25.526 2.416.437 4.743-.27 6.98-.347 1.489-1.402 3.44-3.162 5.857-1.76 2.417-2.815 4.09-3.163 5.018-.347.928.18 2.511 1.582 4.75 1.401 1.118 2.803 1.118 4.205 0 1.402-1.12 3.33-2.792 5.786-5.018 2.456-2.226 5.086-3.899 7.89-5.017.347-.37 1.923-.554 4.726-.554 2.804 0 5.433-.375 7.89-1.125 2.455-.75 4.03-2.053 4.726-3.91 0-.732-.437-1.66-1.312-2.768zm314.622 764.708c3.857 4.654 5.96 9.118 6.308 13.392a33.9 33.9 0 01-1.313 12.552c-1.222 4.095-3.936 8.184-8.14 12.267-4.206 4.083-8.322 7.707-12.348 10.873-4.025 3.167-9.285 6.607-15.778 10.32-6.493 3.715-12.01 6.786-16.552 9.214-4.541 2.429-10.148 5.31-16.82 8.642-6.673 3.333-11.406 5.75-14.198 7.25-13.31 7.07-28.293 17.486-44.946 31.246-16.653 13.76-29.88 25.664-39.68 35.71-5.955 5.953-17.87 9.577-35.746 10.875-17.875 1.297-33.468-1.399-46.779-8.089-6.314-3.345-11.483-7.713-15.51-13.105-4.025-5.393-6.918-10.136-8.679-14.231-1.76-4.095-5.612-7.72-11.556-10.874-5.943-3.154-14.18-4.922-24.71-5.303-15.42-.37-38.2-.554-68.344-.554-6.661 0-16.647.28-29.958.84-13.312.56-23.477 1.023-30.497 1.392-15.42.37-29.347 3.16-41.784 8.374-12.436 5.214-21.811 10.797-28.125 16.749-6.313 5.952-13.933 11.255-22.86 15.909-8.926 4.654-18.3 6.79-28.124 6.41-10.16-.37-29.611-6.136-58.353-17.302-28.741-11.165-54.326-19.165-76.754-23.997-6.661-1.488-15.6-3.256-26.813-5.303-11.214-2.048-19.972-3.72-26.275-5.018-6.302-1.297-13.221-3.065-20.757-5.303-7.536-2.238-13.406-4.934-17.612-8.088-4.205-3.155-7.182-6.78-8.932-10.874-3.498-8.559-2.27-20.927 3.684-37.104 5.955-16.176 9.112-26.312 9.47-30.407.348-5.952-.353-13.392-2.102-22.32-1.75-8.927-3.499-16.831-5.248-23.711-1.75-6.88-2.54-13.671-2.372-20.373.168-6.702 2.007-11.725 5.517-15.07 4.912-4.464 14.898-7.07 29.959-7.82 15.06-.75 25.573-2.983 31.54-6.696 10.518-6.702 17.88-13.213 22.085-19.534 4.205-6.32 6.308-15.808 6.308-28.462 7.357 27.152 1.75 46.865-16.821 59.137-11.214 7.44-25.759 10.231-43.634 8.374-11.92-1.118-19.456.738-22.607 5.571-4.553 5.583-3.679 16.183 2.624 31.8.706 2.239 2.108 5.59 4.205 10.053 2.097 4.464 3.588 7.815 4.474 10.053.886 2.238 1.677 5.398 2.372 9.48.695 4.084.87 8.173.522 12.268 0 5.582-2.978 14.694-8.932 27.336-5.955 12.642-8.411 21.57-7.368 26.783 1.054 6.32 7.536 11.154 19.445 14.499 7.009 2.237 21.817 5.678 44.425 10.32 22.607 4.642 40.04 8.457 52.296 11.445 8.41 2.238 21.38 6.327 38.908 12.267 17.527 5.94 31.982 10.219 43.364 12.838 11.383 2.619 21.105 3.363 29.168 2.232 15.072-2.238 26.376-7.446 33.911-15.624 7.536-8.177 11.568-17.105 12.095-26.783.527-9.677-.785-20.557-3.936-32.64-3.151-12.081-6.482-21.753-9.992-29.014-3.51-7.261-7.014-14.052-10.513-20.373-42.4-70.671-72.011-115.685-88.832-135.04-23.83-27.533-43.629-34.973-59.396-22.32-3.857 3.346-6.487.554-7.889-8.373-1.054-5.952-1.407-13.017-1.06-21.194.348-10.785 2.098-20.457 5.249-29.015 3.15-8.56 7.356-17.302 12.615-26.23 5.26-8.928 9.112-16.742 11.557-23.444 2.803-7.809 7.446-21.2 13.927-40.174 6.482-18.975 11.652-33.48 15.51-43.514 3.857-10.035 9.117-21.379 15.778-34.032 6.66-12.654 13.496-22.694 20.505-30.122 38.542-53.197 60.27-89.467 65.181-108.81-4.205-41.663-7.008-99.324-8.41-172.983-.707-33.485 3.499-61.66 12.616-84.527 9.117-22.867 27.687-42.305 55.711-58.315C441.521 3.939 459.744.035 482.52.035c18.57-.369 37.14 2.143 55.711 7.535 18.57 5.393 34.164 13.112 46.78 23.159 19.972 15.63 36.002 38.228 48.091 67.796 12.089 29.569 17.258 57 15.51 82.296-1.75 35.341 3.51 75.147 15.777 119.416 11.92 42.032 35.224 82.575 69.909 121.63 19.277 21.95 36.709 52.27 52.296 90.956 15.588 38.686 26.011 74.212 31.27 106.578 2.804 18.224 3.68 33.943 2.625 47.156-1.054 13.213-3.157 23.533-6.308 30.961-3.151 7.428-6.655 11.517-10.513 12.267-3.499.75-7.614 4.285-12.347 10.606a606.975 606.975 0 00-14.197 19.801c-4.732 6.88-11.83 13.112-21.295 18.695-9.465 5.583-20.152 8.19-32.061 7.82-6.314-.368-11.831-1.297-16.552-2.785-4.721-1.488-8.663-4-11.825-7.535-3.163-3.535-5.529-6.416-7.099-8.642-1.57-2.226-3.583-6.04-6.039-11.445-2.456-5.404-4.031-9.029-4.726-10.874-7.705-13.76-14.887-19.343-21.548-16.748-6.661 2.595-11.568 11.707-14.719 27.336-3.15 15.63-1.923 33.67 3.684 54.12 7.009 26.045 7.183 62.315.522 108.81-3.5 24.176-.343 42.87 9.47 56.084 9.812 13.213 22.602 19.349 38.369 18.409 15.767-.94 30.659-7.541 44.677-19.802 20.678-18.224 36.361-30.592 47.048-37.103 10.687-6.512 28.82-14.416 54.4-23.712 18.57-6.702 32.06-13.493 40.471-20.373 8.41-6.88 11.651-13.296 9.723-19.248-1.93-5.952-6.308-11.255-13.138-15.91-6.829-4.654-15.85-9.022-27.065-13.105-11.561-4.095-20.236-13.023-26.022-26.783-5.786-13.76-8.416-27.247-7.89-40.46.528-13.213 3.242-22.046 8.142-26.498.348 11.535 1.75 22.046 4.206 31.533 2.456 9.487 4.995 17.022 7.62 22.605 2.624 5.582 6.218 10.886 10.782 15.909 4.564 5.023 8.242 8.558 11.035 10.606 2.792 2.047 6.56 4.464 11.303 7.25 4.744 2.785 7.637 4.552 8.68 5.302 7.009 4.482 12.442 9.04 16.3 13.695z"/></svg>