<svg width="64" height="64" viewBox="0 0 1000 1000" xmlns="http://www.w3.org/2000/svg"><path d="M550 800c55.228 0 100 44.772 100 100s-44.772 100-100 100-100-44.772-100-100 44.772-100 100-100zM237.062 650c69.036 0 125 55.964 125 125s-55.964 125-125 125-125-55.964-125-125 55.964-125 125-125zm578.904 25c55.229 0 100 44.772 100 100s-44.771 100-100 100c-55.228 0-100-44.772-100-100s44.772-100 100-100zM925 465.927c41.421 0 75 33.579 75 75s-33.579 75-75 75-75-33.579-75-75 33.579-75 75-75zM125 300c69.036 0 125 55.964 125 125s-55.964 125-125 125S0 494.036 0 425s55.964-125 125-125zm764.29-39.638c27.614 0 50 22.386 50 50 0 27.615-22.386 50-50 50-27.615 0-50-22.385-50-50 0-27.614 22.385-50 50-50zM400 0c82.843 0 150 67.157 150 150s-67.157 150-150 150-150-67.157-150-150S317.157 0 400 0zm375 150c13.807 0 25 11.193 25 25s-11.193 25-25 25-25-11.193-25-25 11.193-25 25-25z"/></svg>