<svg width="64" height="64" viewBox="0 0 1000 1000" xmlns="http://www.w3.org/2000/svg"><path d="M500 0c220.914 0 400 179.086 400 400v550c0 27.614-22.386 50-50 50H150c-27.614 0-50-22.386-50-50V400C100 179.086 279.086 0 500 0zm330 512.25H170V930h660V512.25zm-311.94 68.922c41.421 0 75 33.579 75 75 0 28.888-16.332 53.96-40.266 66.49L552.77 831.1c0 19.33-15.67 35-35 35s-35-15.67-35-35l-.007-108.736c-23.627-12.626-39.703-37.532-39.703-66.192 0-41.421 33.579-75 75-75zM500 70c-182.254 0-330 147.746-330 330v42.25h660V400c0-182.254-147.746-330-330-330z"/></svg>