<svg width="64" height="64" viewBox="0 0 1000 1000" xmlns="http://www.w3.org/2000/svg"><path d="M488.038 0C770.787 0 1000 223.858 1000 500s-229.213 500-511.962 500c-159.595 0-307.12-71.827-403.544-192.276-11.393-14.232-8.816-34.79 5.757-45.917 14.572-11.127 35.622-8.61 47.015 5.622 83.86 104.757 212.011 167.15 350.772 167.15 245.754 0 444.976-194.567 444.976-434.579S733.792 65.42 488.038 65.42c-136.737 0-263.217 60.574-347.2 162.747-11.58 14.088-32.66 16.34-47.085 5.031-14.425-11.309-16.731-31.897-5.151-45.985C185.167 69.733 330.772 0 488.038 0zm27.228 343.12L650.598 478.45c13.08 13.08 13.327 34.039.553 46.813l-132.17 132.17c-12.773 12.774-33.732 12.526-46.812-.554-13.08-13.08-13.327-34.038-.553-46.813L549 532.67l-515.507.04C14.995 532.71 0 518.065 0 500s14.995-32.71 33.493-32.71l513.407-.02-77.893-77.89c-13.08-13.08-13.327-34.04-.553-46.813 12.774-12.775 33.733-12.527 46.812.553z"/></svg>