<svg width="64" height="64" viewBox="0 0 1000 1000" xmlns="http://www.w3.org/2000/svg"><path d="M511.962 0c157.266 0 302.871 69.733 399.436 187.213 11.58 14.088 9.274 34.676-5.15 45.985-14.426 11.31-35.506 9.057-47.086-5.03C775.18 125.993 648.699 65.42 511.962 65.42 266.208 65.42 66.986 259.988 66.986 500s199.222 434.58 444.976 434.58c138.76 0 266.911-62.394 350.772-167.15 11.393-14.233 32.443-16.75 47.015-5.623 14.573 11.127 17.15 31.685 5.757 45.917C819.082 928.174 671.557 1000 511.962 1000 229.213 1000 0 776.142 0 500S229.213 0 511.962 0zm342.931 358L990.225 493.33c13.08 13.08 13.327 34.039.553 46.813l-132.17 132.17c-12.774 12.773-33.732 12.526-46.812-.554-13.08-13.08-13.328-34.039-.554-46.813l77.335-77.372-515.457.015c-18.498 0-33.493-14.645-33.493-32.71 0-18.066 14.995-32.71 33.493-32.71l513.407-.045-77.893-77.866c-13.08-13.08-13.328-34.039-.553-46.813 12.774-12.774 33.732-12.526 46.812.554z"/></svg>