<svg width="64" height="64" viewBox="0 0 1000 1000" xmlns="http://www.w3.org/2000/svg"><path d="M358.6 566.7l141.48 96.74 136.42-94.09 305.732 301.655A83.277 83.277 0 01916.667 875H83.333c-11.005 0-21.512-2.133-31.13-6.009L358.6 566.7zM1000 318.8v472.867c0 12.33-2.678 24.034-7.484 34.563L692.8 530.55 1000 318.8zM0 321.45l302.1 206.6L5.285 820.936C1.869 811.829 0 801.966 0 791.666V321.45zM916.667 125c46.023 0 83.333 37.31 83.333 83.333v29.317L499.92 582.382 0 240.5v-32.167C0 162.31 37.31 125 83.333 125h833.334z"/></svg>