<svg width="64" height="64" viewBox="0 0 1000 1000" xmlns="http://www.w3.org/2000/svg"><path d="M916.667 125c46.023 0 83.333 37.31 83.333 83.333v583.334C1000 837.69 962.69 875 916.667 875H83.333C37.31 875 0 837.69 0 791.667V208.333C0 162.31 37.31 125 83.333 125h833.334zM358.389 566.419L112.94 809.01h766.195l-242.84-240.116L500 663.259l-141.61-96.84zm573.67-201.815l-239.807 165.81L932.06 767.205V364.604zM68.118 367.66v391.787l234.259-231.56L68.116 367.66zM915.88 191.065H84.9c-5.228 0-9.408 1.429-12.539 4.286-3.131 2.857-4.54 6.554-4.228 11.091v80.984L500 582.79l432.202-298.264v-74.567c.073-6.7-1.467-11.569-4.619-14.608-3.152-3.04-7.053-4.468-11.702-4.286z"/></svg>