<svg width="64" height="64" viewBox="0 0 1000 1000" xmlns="http://www.w3.org/2000/svg"><path d="M965.427 0C984.521 0 1000 15.547 1000 34.726v258.15c0 19.179-15.479 34.726-34.573 34.726s-34.572-15.547-34.572-34.726L930.85 118.6 678.44 380.844c51.44 65.152 82.16 147.556 82.16 237.167C760.6 828.978 590.334 1000 380.3 1000 170.266 1000 0 828.978 0 618.011c0-210.966 170.266-381.988 380.3-381.988 95.926 0 183.556 35.673 250.46 94.532L881.9 69.45l-187.27.002c-19.094 0-34.573-15.547-34.573-34.726S675.537 0 694.63 0h270.797zM380.3 305.475c-171.846 0-311.155 139.927-311.155 312.536 0 172.61 139.31 312.537 311.155 312.537 171.846 0 311.155-139.928 311.155-312.537 0-172.609-139.309-312.536-311.155-312.536z"/></svg>