<svg width="64" height="64" viewBox="0 0 1000 1000" xmlns="http://www.w3.org/2000/svg"><path d="M500 0c276.142 0 500 223.858 500 500s-223.858 500-500 500S0 776.142 0 500 223.858 0 500 0zm126.43 683.717H347.362c-19.266 0-34.884 15.618-34.884 34.884s15.618 34.884 34.884 34.884h279.07c19.266 0 34.884-15.618 34.884-34.884s-15.618-34.884-34.884-34.884zM290.699 313.953c-38.532 0-69.768 31.236-69.768 69.768 0 38.531 31.236 69.767 69.768 69.767 38.531 0 69.767-31.236 69.767-69.767 0-38.532-31.236-69.768-69.767-69.768zm418.604 0c-38.531 0-69.767 31.236-69.767 69.768 0 38.531 31.236 69.767 69.767 69.767 38.532 0 69.768-31.236 69.768-69.767 0-38.532-31.236-69.768-69.768-69.768z"/></svg>