<svg width="64" height="64" viewBox="0 0 1000 1000" xmlns="http://www.w3.org/2000/svg"><path d="M964.958 830.416c19.323 0 34.987 15.577 34.987 34.792 0 19.215-15.664 34.792-34.987 34.792H35.165C15.842 900 .178 884.423.178 865.208c0-19.215 15.664-34.792 34.987-34.792h929.793zm-165.92-505.814c13.587-13.587 35.678-13.526 49.34.137l141.368 141.367c13.663 13.663 13.724 35.754.137 49.341l-140.58 140.58c-13.587 13.588-35.678 13.526-49.341-.137-13.663-13.663-13.725-35.753-.138-49.34l115.98-115.98-116.629-116.628c-13.663-13.663-13.724-35.753-.137-49.34zM740.866 456.55c19.323 0 34.987 15.577 34.987 34.792 0 19.215-15.664 34.792-34.987 34.792H34.986C15.665 526.134 0 510.557 0 491.342c0-19.215 15.664-34.792 34.987-34.792h705.879zM964.958 100c19.323 0 34.987 15.577 34.987 34.792 0 19.215-15.664 34.792-34.987 34.792H35.165c-19.323 0-34.987-15.577-34.987-34.792C.178 115.577 15.842 100 35.165 100h929.793z"/></svg>