<svg width="64" height="64" viewBox="0 0 1000 1000" xmlns="http://www.w3.org/2000/svg"><path d="M174.85 780.084c19.331 0 35.002 15.651 35.002 34.958S194.182 850 174.85 850H35.022C15.692 850 .02 834.349.02 815.042s15.671-34.958 35.002-34.958H174.85zm790.148 0c19.331 0 35.002 15.651 35.002 34.958S984.33 850 964.998 850H276.435c-19.331 0-35.002-15.651-35.002-34.958s15.67-34.958 35.002-34.958h688.563zM174.83 466.715c19.33 0 35.002 15.652 35.002 34.958 0 19.307-15.671 34.958-35.002 34.958H35.002C15.671 536.631 0 520.98 0 501.673c0-19.306 15.67-34.958 35.002-34.958H174.83zm790.148 0c19.33 0 35.002 15.652 35.002 34.958 0 19.307-15.671 34.958-35.002 34.958H276.414c-19.33 0-35.002-15.651-35.002-34.958 0-19.306 15.671-34.958 35.002-34.958h688.564zM174.83 150c19.33 0 35.002 15.651 35.002 34.958s-15.671 34.958-35.002 34.958H35.002C15.671 219.916 0 204.265 0 184.958S15.67 150 35.002 150H174.83zm790.148 0c19.33 0 35.002 15.651 35.002 34.958s-15.671 34.958-35.002 34.958H276.414c-19.33 0-35.002-15.651-35.002-34.958S257.083 150 276.414 150h688.564z"/></svg>