<svg width="64" height="64" viewBox="0 0 1000 1000" xmlns="http://www.w3.org/2000/svg"><path d="M499.984 0C767.108 0 1000 220.54 1000 475.02c0 250.17-227.647 447.083-500.016 447.083-58.792 0-116.748-9.326-171.509-27.292-23.169 22.48-31.135 30.162-80.353 77.623-35.504 26.799-68.916 35.917-98.774 19.036-30.088-17.011-39.168-50.135-32.98-93.734L136.31 781.82C49.574 700.116 0 592.078 0 475.02 0 220.535 232.865 0 499.984 0zm0 69.953c-229.305 0-430.023 190.09-430.023 405.068 0 102.232 45.637 196.401 126.056 266.515l.94.818 14.908 12.92-3.344 19.44c-9.106 52.926-9.106 52.926-23.044 133.854-2.267 16.015-1.224 21.575-1.582 22.001.375-.5 7.17-2.693 18.785-11.147L311.168 814.12l20.744 7.773c53.043 19.874 110.07 30.258 168.072 30.258 235.802 0 430.055-168.027 430.055-377.13 0-214.97-200.744-405.067-430.055-405.067zM261.373 390.686c41.398 0 74.958 33.556 74.958 74.95 0 41.393-33.56 74.95-74.958 74.95-41.398 0-74.958-33.557-74.958-74.95 0-41.394 33.56-74.95 74.958-74.95zm249.86 0c41.399 0 74.959 33.556 74.959 74.95 0 41.393-33.56 74.95-74.959 74.95-41.398 0-74.958-33.557-74.958-74.95 0-41.394 33.56-74.95 74.958-74.95zm249.86 0c41.4 0 74.96 33.556 74.96 74.95 0 41.393-33.56 74.95-74.96 74.95-41.397 0-74.957-33.557-74.957-74.95 0-41.394 33.56-74.95 74.958-74.95z"/></svg>