<svg width="64" height="64" viewBox="0 0 1000 1000" xmlns="http://www.w3.org/2000/svg"><path d="M90.91 68.182c-12.553 0-22.728 10.175-22.728 22.727v818.182c0 12.552 10.175 22.727 22.727 22.727h818.182c12.552 0 22.727-10.175 22.727-22.727V90.909c0-12.552-10.175-22.727-22.727-22.727H90.909zM909.09 0C959.3 0 1000 40.701 1000 90.91v818.18c0 50.209-40.701 90.91-90.91 90.91H90.91C40.7 1000 0 959.299 0 909.09V90.91C0 40.7 40.701 0 90.91 0h818.18zM734.306 464.957h-438.85c-18.828 0-34.091 15.263-34.091 34.09 0 18.828 15.263 34.091 34.09 34.091h438.85c18.829 0 34.092-15.263 34.092-34.09 0-18.828-15.263-34.091-34.091-34.091z"/></svg>