<svg width="64" height="64" viewBox="0 0 1000 1000" xmlns="http://www.w3.org/2000/svg"><path d="M501.309 931.996c.293.024.573.025.844.006-.1.007-.2.016-.3.026l-.544-.032zm-9.839-6.195l.115-851.88c-1.043.996-2.21 2.154-3.508 3.5L247.051 315.79c-6.486 6.414-15.298 10.02-24.489 10.02H98.414c-6.811 1.51-12.608 5.242-18.284 12.1-6.439 7.78-10.335 19.404-11 34.488l-.053 270.553c.534 9.49 3.743 16.698 10.197 23.138 6.103 6.089 17.114 10.443 31.09 11.892H225.53c9.165 0 17.954 3.586 24.436 9.969L491.47 925.8zM510.33.933c29.189 4.86 47.676 26.129 50.267 58.265v882.784l-.27 4.253c-3.854 30.153-23.053 51.61-53.34 53.701-22.554 1.558-43.539-6.86-62.563-24.21L211.198 746.064l-104.08-.132c-32.202-2.992-58.315-13.318-77.035-31.995C11.714 695.61 1.514 672.7 0 644.835l.03-273.848c1.276-30.309 9.896-56.021 26.52-76.11 16.807-20.307 38.37-32.969 63.488-36.772l5.252-.396h112.916L438.505 29.964C459.902 7.73 484.125-3.431 510.33.933zm310.545 111.361C930.1 180.904 1000 328.84 1000 493.086c0 164.24-69.894 312.172-179.113 380.785-16.096 10.111-37.464 5.454-47.729-10.401-10.264-15.856-5.537-36.907 10.559-47.018 87.701-55.096 147.153-180.926 147.153-323.366 0-142.445-59.456-268.279-147.162-323.37-16.096-10.111-20.824-31.162-10.561-47.018 10.263-15.857 31.632-20.514 47.728-10.404zM705.797 246.61c67.964 50.318 109.857 143.98 109.857 246.477 0 108.254-46.75 206.421-121.034 254.201-15.984 10.282-37.402 5.851-47.839-9.895-10.436-15.746-5.939-36.846 10.045-47.127 53.357-34.32 89.698-110.629 89.698-197.179 0-82.17-32.744-155.377-82.26-192.037-15.26-11.298-18.334-32.644-6.865-47.677 11.47-15.034 33.138-18.061 48.398-6.763z"/></svg>