<svg width="64" height="64" viewBox="0 0 1000 1000" xmlns="http://www.w3.org/2000/svg"><path d="M335.458 218.25c-55.333 65.25-91.083 161.792-93.583 270v23.5c2.542 108.25 38.25 204.667 93.583 269.958 71.709 93.167 178.292 152.25 297.459 152.25 73.166 0 141.666-22.375 200.291-61.291C744.958 951.917 628.083 1000 500 1000c-8 0-15.958-.167-23.75-.583C211 987.042 0 768.167 0 500 0 223.792 223.875 0 500 0h1.875C629.167.5 745.208 48.583 833.25 127.292 774.583 88.542 706.125 66 632.833 66c-119.083 0-225.708 59.167-297.5 152.25h.125zM1000 500c0 148.167-64.375 281.167-166.75 372.708-128.25 62.5-247.75 18.792-287.333-8.541C671.875 836.5 767.042 684.167 767.042 500c0-184.25-95.125-336.458-221.125-364.167 39.541-27.25 159.083-70.958 287.333-8.541C935.625 218.75 1000 351.875 1000 500z"/></svg>