<svg width="64" height="64" viewBox="0 0 1000 1000" xmlns="http://www.w3.org/2000/svg"><path d="M163.185 428.95a34.164 34.164 0 01-48.733-.004c-13.456-13.625-13.453-35.712.005-49.333L415.921 74.935C484.075 22.205 552.47-3.171 620.51.316c85.78 4.397 152.61 37.093 209.265 90.726C887.586 145.767 925 223.809 925 318.393c0 72.617-21.112 136.52-65.633 193.218L434.185 949.618c-43.032 35.24-90.785 52.3-141.953 50.21-65.008-2.655-113.387-23.703-149.356-59.225C100.783 899.033 75 847.977 75 779.34c0-54.6 18.837-104.984 57.732-152.267l374.219-382.13c30.036-31.978 59.362-51.014 89.353-55.57 41.658-6.328 81.85 8.027 109.962 37.721 26.648 28.148 38.053 63.24 34.042 103.222-2.734 27.244-13.898 52.335-34.408 76.365l-343.96 352.41a34.164 34.164 0 01-48.733.297c-13.538-13.54-13.67-35.627-.293-49.332l342.339-350.629c9.963-11.735 15.224-23.56 16.488-36.161 2.005-19.977-2.803-34.769-15.232-47.898-12.808-13.528-30.72-19.926-49.978-17-12.193 1.852-29.196 12.89-50.135 35.171L183.734 673.895c-26.822 32.754-39.815 67.509-39.815 105.445 0 47.7 17.253 81.864 47.083 111.323 23.77 23.476 55.99 37.494 104.009 39.455 33.95 1.387 65.458-9.87 92.914-32.06l419.82-432.518c32.274-41.338 48.336-89.954 48.336-147.147 0-74.102-28.816-134.209-73.378-176.393-45.504-43.076-97.49-68.51-165.677-72.006-50.362-2.581-103.248 17.04-155.816 57.326L163.185 428.95z"/></svg>