<svg width="64" height="64" viewBox="0 0 1000 1000" xmlns="http://www.w3.org/2000/svg"><path d="M500 0c276.142 0 500 223.858 500 500s-223.858 500-500 500S0 776.142 0 500 223.858 0 500 0zm0 69.767C262.39 69.767 69.767 262.39 69.767 500c0 237.61 192.622 430.233 430.233 430.233 237.61 0 430.233-192.622 430.233-430.233C930.233 262.39 737.61 69.767 500 69.767zm-97.194 202.96c18.828 0 34.09 15.263 34.09 34.091v363.605c0 18.828-15.262 34.09-34.09 34.09-18.828 0-34.091-15.262-34.091-34.09V306.818c0-18.828 15.263-34.09 34.09-34.09zm227.272 0c18.828 0 34.091 15.263 34.091 34.091v363.605c0 18.828-15.263 34.09-34.09 34.09-18.828 0-34.091-15.262-34.091-34.09V306.818c0-18.828 15.263-34.09 34.09-34.09z"/></svg>