<svg width="64" height="64" viewBox="0 0 1000 1000" xmlns="http://www.w3.org/2000/svg"><path d="M500 0c276.142 0 500 223.858 500 500s-223.858 500-500 500S0 776.142 0 500 223.858 0 500 0zm0 69.767C262.39 69.767 69.767 262.39 69.767 500c0 237.61 192.622 430.233 430.233 430.233 237.61 0 430.233-192.622 430.233-430.233C930.233 262.39 737.61 69.767 500 69.767zM355.651 255.595c14.11-13.993 37.029-14.193 51.138-.2l92.964 92.095 92.456-91.795c14.11-13.993 36.827-14.093 50.932-.1 14.114 13.893 14.014 36.323-.096 50.316L524.766 422.812c-.7.694-1.4.989-2.104.989l167.112.004c18.811 0 35.226 16.969 35.226 35.624v3.974c0 18.755-16.415 32.844-35.226 32.844H535.87v63.514h121.878c18.816 0 35.226 16.175 35.226 34.83v3.97c0 18.66-16.41 32.653-35.226 32.653H535.871v148.062a35.556 35.556 0 01-10.545 25.266c-6.757 6.7-15.922 10.458-25.477 10.458s-18.72-3.757-25.477-10.458a35.556 35.556 0 01-10.545-25.266V631.214H341.245c-18.812 0-33.525-13.993-33.525-32.649v-3.973c0-18.656 14.713-34.83 33.525-34.83h122.582v-63.515H309.325c-18.816 0-34.325-14.882-34.325-33.538v-3.28c0-18.655 15.51-34.236 34.325-34.236h166.609c-.7 0-1.4-.993-2.104-1.687L355.556 306.31c-14.11-13.998-14.01-36.722.095-50.715z"/></svg>