<svg width="64" height="64" viewBox="0 0 1000 1000" xmlns="http://www.w3.org/2000/svg"><path d="M583.54 426.858c-8.364 0-15.144 6.627-15.144 14.801v110.567c0 8.174 6.78 14.8 15.144 14.8h333.168c8.364 0 15.144-6.626 15.144-14.8V441.66c0-8.174-6.78-14.8-15.144-14.8H583.54zM787.804 75.04c46.096 2.19 79.27 11.308 100.23 30.6 20.758 19.106 31.433 46.778 33.521 83.363v104.837c0 18.392-15.255 33.301-34.074 33.301-18.818 0-34.074-14.91-34.074-33.301l.056-102.933c-1.116-19.052-5.647-30.794-12.152-36.782-6.303-5.802-25.477-11.071-55.162-12.521l-653.786-.025c-26.886 1.019-44.32 6.109-52.778 13.352-6.505 5.57-11.382 20.876-11.437 47.322l-.152 588.486c2.492 25.727 8.174 42.849 15.413 51.42 5.49 6.5 22.551 13.026 47.634 16.17l655.805.008c30.697.616 48.812-3.98 54.888-10.142 6.741-6.837 11.671-24.834 11.671-54.318V691.669c0-18.392 15.256-33.302 34.074-33.302 18.819 0 34.074 14.91 34.074 33.302v102.207c0 45.07-9.21 78.69-30.749 100.534-22.204 22.519-57.504 31.475-104.657 30.522l-659.124-.233c-44.86-5.206-77.072-17.528-96.172-40.143-17.35-20.543-27.04-49.742-30.853-90.68V202.184c.091-43.782 10.586-76.723 34.677-97.35C56.815 85.877 88.656 76.581 131.043 75l656.76.04zm128.904 285.217c46 0 83.292 36.445 83.292 81.403v110.567c0 44.958-37.291 81.404-83.292 81.404H583.54c-46 0-83.292-36.446-83.292-81.404V441.66c0-44.958 37.291-81.403 83.292-81.403h333.168zM666.832 457.22c-23 0-41.646 17.986-41.646 40.173s18.646 40.173 41.646 40.173 41.646-17.986 41.646-40.173-18.645-40.173-41.646-40.173z"/></svg>