<svg width="64" height="64" viewBox="0 0 1000 1000" xmlns="http://www.w3.org/2000/svg"><path d="M949.128 718.832C872.513 877.165 718.321 983.864 545.615 1000h-91.807c-54.705-5.062-107.86-19.31-158.693-42.127V718.845zM242.615 498.176v430.79c-93.359-56.555-166.512-141.965-206.59-242.677 5.757-5.203 189.885-172.863 206.59-188.113zM758.833 73.629C907.615 164.371 1000 326.931 1000 501.053c0 56.093-9.744 111.581-28.372 164.988H758.833zM272.128 55.58c5.705 5.177 180.77 164.422 189.218 172.13-8.654 7.902-429.628 391.195-443.192 403.516C6.474 587.865 0 544.093 0 501.053 0 312.131 104.282 141.901 272.128 55.578zM499.974 0c71.603 0 140.936 15.199 206.154 44.902v334.113C689.051 363.456 338.577 44.684 325.36 32.658 381.756 11.486 440.359 0 499.974 0z"/></svg>