<svg width="64" height="64" viewBox="0 0 1000 1000" xmlns="http://www.w3.org/2000/svg"><path d="M954.545 100c25.104 0 45.455 19.898 45.455 44.444v711.112c0 24.546-20.35 44.444-45.455 44.444H45.455C20.35 900 0 880.102 0 855.556V144.444C0 119.898 20.35 100 45.455 100h909.09zM270.75 420.825L67.764 622.966v210.835h864.222v-71.64L771.983 606.146 633.135 722.806c-8.267 5.825-16.274 8.4-24.021 7.725-7.748-.675-15.044-3.817-21.89-9.427L270.75 420.825zm660.988-254.268H68.122v361.488l180.3-179.552c6.883-5.18 14.202-7.77 21.957-7.77 7.755 0 14.59 2.325 20.505 6.977l321.574 304.42L752.72 534.556c6.667-4.853 13.683-7.28 21.046-7.28 7.364 0 14.32 2.427 20.87 7.28l137.1 133.22V166.558zM763.63 261.43c37.656 0 68.182 29.848 68.182 66.667s-30.526 66.667-68.182 66.667c-37.656 0-68.182-29.848-68.182-66.667 0-36.82 30.526-66.667 68.182-66.667z"/></svg>