<svg width="64" height="64" viewBox="0 0 1000 1000" xmlns="http://www.w3.org/2000/svg"><path d="M500 0c276.142 0 500 223.858 500 500s-223.858 500-500 500S0 776.142 0 500 223.858 0 500 0zm0 69.767C262.39 69.767 69.767 262.39 69.767 500c0 237.61 192.622 430.233 430.233 430.233 237.61 0 430.233-192.622 430.233-430.233C930.233 262.39 737.61 69.767 500 69.767zm-90.91 225.43c0-23.408 21.822-29.279 35.915-14.052l183.76 198.102c10.131 10.909 10.131 30.643 0 41.552l-183.76 198.064c-14.093 15.227-35.914 9.318-35.914-14.015z"/></svg>