<svg width="64" height="64" viewBox="0 0 1000 1000" xmlns="http://www.w3.org/2000/svg"><path d="M500 0c276.142 0 500 223.858 500 500s-223.858 500-500 500S0 776.142 0 500 223.858 0 500 0zm0 273.728c-18.828 0-34.09 15.263-34.09 34.09l-.01 156.132-156.152.03c-17.116 0-31.286 12.614-33.721 29.053l-.37 5.038c0 18.827 15.263 34.09 34.091 34.09l156.152-.011.01 156.172c0 17.116 12.613 31.287 29.052 33.721l5.038.37c18.828 0 34.09-15.263 34.09-34.09l-.04-156.173 156.202.011c17.116 0 31.286-12.614 33.721-29.053l.37-5.037c0-18.828-15.263-34.091-34.091-34.091l-156.202-.03.04-156.131c0-17.116-12.613-31.287-29.052-33.721z"/></svg>