<svg width="64" height="64" viewBox="0 0 1000 1000" xmlns="http://www.w3.org/2000/svg"><path d="M909.09 0C959.3 0 1000 40.701 1000 90.91v818.18c0 50.209-40.701 90.91-90.91 90.91H90.91C40.7 1000 0 959.299 0 909.09V90.91C0 40.7 40.701 0 90.91 0h818.18zM514.88 245.531c-18.828 0-34.091 15.263-34.091 34.091l-.039 185.328-185.295.007c-17.117 0-31.287 12.614-33.722 29.053l-.37 5.037c0 18.828 15.264 34.091 34.092 34.091l185.295-.038.039 185.373c0 17.116 12.614 31.286 29.053 33.72l5.038.37c18.828 0 34.09-15.262 34.09-34.09l-.02-185.373 185.355.038c17.116 0 31.286-12.614 33.721-29.053l.37-5.038c0-18.827-15.263-34.09-34.091-34.09l-185.355-.007.02-185.328c0-17.116-12.613-31.286-29.053-33.721z"/></svg>