<svg width="64" height="64" viewBox="0 0 1000 1000" xmlns="http://www.w3.org/2000/svg"><path d="M253.68 116.417c10.843 14.763 7.652 35.511-7.126 46.342C134.57 244.829 66.376 376.217 66.376 514.225c0 227.316 200.582 419.469 433.97 419.469 233.243 0 433.278-192.017 433.278-419.47 0-136.541-66.497-266.589-176.181-348.838-14.659-10.993-17.622-31.774-6.618-46.417 11.004-14.644 31.808-17.603 46.467-6.61C923.506 207.003 1000 356.602 1000 514.224 1000 778.9 769.67 1000 500.346 1000 230.906 1000 0 778.797 0 514.225c0-159.36 78.447-310.5 207.29-404.927 14.778-10.831 35.548-7.644 46.39 7.12zM500 0c19.348 0 35.032 15.668 35.032 34.995v390.04c0 19.328-15.684 34.996-35.032 34.996s-35.032-15.668-35.032-34.995V34.995C464.968 15.668 480.652 0 500 0z"/></svg>