<svg width="64" height="64" viewBox="0 0 1000 1000" xmlns="http://www.w3.org/2000/svg"><path d="M269.884 1.022l491.58.02c31.383 1.077 55.62 10.159 70.33 30.428 11.707 16.131 17.74 36.445 18.985 62.087L850.75 198.2l59.936.014c31.382 1.078 55.62 10.16 70.33 30.429 11.706 16.13 17.74 36.445 18.984 62.086v404.888c-.094 31.28-2.293 54.692-10.939 70.861-13.404 25.07-38.196 36.16-79.523 39.462l-58.738-.04.021 97.44c0 22.88-4.117 42.952-12.864 59.985-12.288 23.927-35.772 35.962-65.85 36.675H236.239c-29.69 0-54.11-10.841-69.292-33.104-12.166-17.84-18.496-38.939-19.226-63.556l-.021-97.44-50.96.04c-36.899 0-65-11.034-79.972-36.638C5.588 750.183.39 725.725.098 695.516l.02-394.29c-1.096-31.782 5.406-57.812 21.243-77.144 19.148-23.373 52.36-29.668 97.78-25.888l31.659-.044.06-94.098c-1.095-31.78 5.407-57.81 21.244-77.142 19.148-23.374 52.36-29.669 97.78-25.888zM783.85 607.55h-569.2l.011 294.774c.343 11.31 2.947 19.992 7.59 26.8 1.628 2.387 4.969 3.87 13.988 3.87l535.064.01c6.609-.159 7.175-.449 7.103-.308 3.468-6.753 5.46-16.462 5.46-29.356l-.016-295.79zm-68.905 226.685c18.49 0 33.478 15 33.478 33.502 0 18.503-14.988 33.503-33.478 33.503h-428.95c-18.49 0-33.478-15-33.478-33.503s14.989-33.502 33.478-33.502h428.95zm0-94.816c18.49 0 33.478 15 33.478 33.503s-14.988 33.503-33.478 33.503h-428.95c-18.49 0-33.478-15-33.478-33.503s14.989-33.503 33.478-33.503h428.95zM116.446 265.091c-28.43.109-35.005.109-41.02 7.04-6.016 6.932-8.975 9.875-8.372 27.94l-.002 395.12c.187 19.192.784 28.401 5.146 35.421 4.363 7.02 8.975 8.323 24.542 8.323l50.96-.035V607.55l-6.708.04c-18.49 0-33.478-14.999-33.478-33.502s14.989-33.503 33.478-33.503h720.215c18.49 0 33.478 15 33.478 33.503s-14.989 33.503-33.478 33.503l-10.407-.041V738.9l55.982.148c10.41-.86 16.389.274 21.781-5.413 5.393-5.686 4.425-19.456 4.481-38.12l.042-403.106c-.597-11.91-1.679-15.906-5.392-20.278-3.714-4.371-6.493-6.511-18.156-6.931l-793.092-.109zm598.5 379.513c18.489 0 33.477 15 33.477 33.503s-14.988 33.502-33.478 33.502h-428.95c-18.49 0-33.478-15-33.478-33.502 0-18.503 14.989-33.503 33.478-33.503h428.95zm89.251-348.89c55.468 0 100.434 44.999 100.434 100.508 0 55.509-44.966 100.508-100.434 100.508-55.468 0-100.433-45-100.433-100.508 0-55.51 44.965-100.508 100.433-100.508zm0 67.005c-18.489 0-33.477 15-33.477 33.503s14.988 33.502 33.477 33.502c18.49 0 33.478-15 33.478-33.502 0-18.503-14.988-33.503-33.478-33.503zM223.883 69.391c-4.075 4.974-6.69 15.442-6.087 33.506l-.046 95.253 566.05.05.065-102.964c-.597-11.91-2.96-19.862-6.246-24.391-.284-.39-5.64-2.398-17.302-2.818l-493.129-.109c-27.826-2.249-42.541.54-43.305 1.473z"/></svg>