<svg width="64" height="64" viewBox="0 0 1000 1000" xmlns="http://www.w3.org/2000/svg"><path d="M924.781 680.34c-6.687-96.547-68.596-177.466-104.382-219.326 4.958-12.162 17.057-82.652-29.637-130.753.085-1.155.085-2.31.085-3.408C790.847 137.166 661.843.607 499.999 0 338.156.636 209.152 137.166 209.152 326.853c0 1.126 0 2.282.085 3.408-46.694 48.101-34.567 118.59-29.637 130.753-35.757 41.86-97.667 122.78-104.382 219.356-1.218 25.393 2.55 62.372 14.365 78.81 14.45 20.049 54.09-4.045 82.423-68.063 7.877 29.669 26.068 74.967 67.265 132.428-68.936 16.467-88.572 87.62-65.394 126.534C190.225 977.466 227.654 1000 292.17 1000c114.781 0 165.47-32.27 188.11-54.774 4.59-4.911 11.248-7.251 19.72-7.28 8.471 0 15.13 2.369 19.72 7.28C542.359 967.731 593.048 1000 707.8 1000c64.545 0 101.945-22.534 118.294-49.95 23.206-38.884 3.542-110.038-65.338-126.505 41.17-57.49 59.388-102.76 67.265-132.428 28.334 64.047 67.944 88.112 82.395 68.063 11.843-16.467 15.583-53.445 14.365-78.81v-.03z"/></svg>