<svg width="64" height="64" viewBox="0 0 1000 1000" xmlns="http://www.w3.org/2000/svg"><path d="M68.17 68.182v318.182h318.124V68.182H68.17zm386.294 477.273V1000H0V545.455h454.464zm-68.17 68.181H68.17v318.182h318.124V613.636zm-86.603 93.671v136.364H163.35V707.307h136.34zM454.464 0v454.545H0V0h454.464zM299.69 161.853H163.35v136.363h136.34V161.853zM999.628 846.58v153.363H769.165v-68.182h162.294v-85.181h68.17zm-307.495 85.087v68.181h-146.84v-68.181h146.84zm-78.72-386.52v299.948h-68.17V545.149h68.17zM776.921 707.28v68.098h68.271v68.182h-136.44V707.28h68.169zM1000 692.542v76.448h-68.17v-76.448H1000zm-.5-145.323v68.182H769.281v-68.182H999.5zM999.82 0v454.545H545.356V0H999.82zm-68.17 68.182H613.526v318.182H931.65V68.182zm-86.603 93.67v136.364h-136.34V161.853h136.34z"/></svg>