<svg width="64" height="64" viewBox="0 0 1000 1000" xmlns="http://www.w3.org/2000/svg"><path d="M500 0c276.142 0 500 223.858 500 500s-223.858 500-500 500S0 776.142 0 500 223.858 0 500 0zm0 69.767C262.39 69.767 69.767 262.39 69.767 500c0 237.61 192.622 430.233 430.233 430.233 237.61 0 430.233-192.622 430.233-430.233C930.233 262.39 737.61 69.767 500 69.767zm0 612.051c25.104 0 45.455 20.35 45.455 45.455 0 25.104-20.351 45.454-45.455 45.454s-45.455-20.35-45.455-45.454 20.351-45.455 45.455-45.455zm134.01-415.31c36.302 36.509 47.988 78.17 41.912 121.77-4.82 34.587-25.976 71.775-54.235 96.306-48.384 42-46.31 40.152-58.255 53.049-11.882 12.83-20.308 27.575-26.862 45.755-3.678 10.202-6.825 25.413-9.152 45.276-2.19 18.7-19.124 32.085-37.824 29.895-18.7-2.19-32.085-19.125-29.895-37.825 2.884-24.62 7.03-44.658 12.73-60.47 9.474-26.278 22.4-48.899 40.979-68.96 8.508-9.187 18.291-18.55 30.728-29.639 5.767-5.142 28.342-24.698 33.935-29.524 15.645-14.075 27.903-35.915 30.321-53.273 3.286-23.576-2.397-43.836-22.73-64.285-21.482-21.604-55.32-31.966-81.282-28.603-37.857 4.905-53.255 10.498-79.368 33.436-19.094 16.773-31.693 41.623-37.486 75.93-3.135 18.564-20.726 31.073-39.291 27.938-18.565-3.135-31.074-20.726-27.939-39.291 8.264-48.938 28.067-87.998 59.72-115.802 37.932-33.32 65.505-43.336 115.604-49.827 46.246-5.992 101.335 10.878 138.39 48.144z"/></svg>