<svg width="64" height="64" viewBox="0 0 1000 1000" xmlns="http://www.w3.org/2000/svg"><path d="M500 0c276.142 0 500 223.858 500 500s-223.858 500-500 500S0 776.142 0 500 223.858 0 500 0zm0 681.818c-25.104 0-45.455 20.35-45.455 45.455 0 25.104 20.351 45.454 45.455 45.454s45.455-20.35 45.455-45.454-20.351-45.455-45.455-45.455zm134.01-415.31c-37.055-37.266-92.144-54.136-138.39-48.144-50.099 6.49-77.672 16.506-115.605 49.827-31.652 27.804-51.455 66.864-59.719 115.802-3.135 18.565 9.374 36.156 27.939 39.291 18.565 3.135 36.156-9.374 39.291-27.939 5.793-34.306 18.392-59.156 37.486-75.929 26.113-22.938 41.51-28.53 79.368-33.436 25.962-3.363 59.8 7 81.281 28.603 20.334 20.45 26.017 40.709 22.731 64.285-2.418 17.358-14.676 39.198-30.32 53.273-5.594 4.826-28.169 24.382-33.936 29.524-12.437 11.09-22.22 20.452-30.728 29.639-18.58 20.061-31.505 42.682-40.979 68.96-5.7 15.812-9.846 35.85-12.73 60.47-2.19 18.7 11.195 35.635 29.895 37.825 18.7 2.19 35.635-11.194 37.824-29.895 2.327-19.863 5.474-35.074 9.152-45.276 6.554-18.18 14.98-32.926 26.862-45.755 11.944-12.897 9.871-11.049 58.255-53.05 28.259-24.53 49.415-61.718 54.235-96.305 6.076-43.6-5.61-85.261-41.912-121.77z"/></svg>