<svg width="64" height="64" viewBox="0 0 1000 1000" xmlns="http://www.w3.org/2000/svg"><path d="M1000 489.352c0-60.232-51.719-109.22-115.222-109.22-27.512 0-53.249 9.542-74.014 26.23-.67.393-1.363.763-2.022 1.166-74.92-45.44-174.268-74.455-284.162-78.394l65.592-176.822 163.712 37.105c.135 49.061 42.235 88.951 94.055 88.951 51.852 0 94.076-39.996 94.076-89.173 0-49.199-42.224-89.195-94.076-89.195-39.42 0-73.099 23.106-87.062 55.7l-193.961-43.946-80.55 216.978c-114.596 2.044-218.446 31.44-296.158 78.404-20.922-17.208-47.027-27.014-75.042-27.014C51.64 380.122 0 429.12 0 489.342c0 37.253 20.274 71.669 53.126 91.704-2 10.854-3.273 21.857-3.273 33.071C49.853 771.751 251.4 900 499.112 900c247.758 0 449.315-128.249 449.315-285.883 0-10.875-1.15-21.57-3.039-32.139 33.735-19.887 54.612-54.8 54.612-92.626zM651.888 630.753c-39.096 0-70.752-30.01-70.752-67.116 0-37.042 31.656-67.073 70.752-67.073s70.809 30.031 70.809 67.073c0 37.106-31.724 67.116-70.809 67.116zm14.086 114.43c-2.122 2.054-52.869 51.051-167.655 51.051-115.423 0-161.556-49.654-163.489-51.793-6.467-7.169-5.585-18.034 1.988-24.175 7.563-6.09 18.9-5.306 25.446 1.757 1.028 1.102 39.543 39.933 136.055 39.933 98.12 0 141.181-40.219 141.64-40.61 6.925-6.735 18.386-6.862 25.512-.286 7.116 6.555 7.373 17.271.503 24.122zm-380.35-181.546c0-37.042 31.646-67.073 70.81-67.073 39.029 0 70.752 30.031 70.752 67.073 0 37.106-31.723 67.116-70.752 67.116-39.152 0-70.81-30.01-70.81-67.116z"/></svg>