<svg width="64" height="64" viewBox="0 0 1000 1000" xmlns="http://www.w3.org/2000/svg"><path d="M964.767 600c19.42-.134 35.233 15.772 35.233 35.44V795.66c0 19.572-15.667 35.439-34.993 35.439s-34.993-15.867-34.993-35.439l.02-56.26C838.915 892.207 669.905 1000 487.778 1000 267.335 1000 82.503 863.951 2.368 654.24c-6.975-18.254 1.982-38.777 20.005-45.841 18.024-7.064 38.289 2.007 45.264 20.26 69.968 183.107 229.405 300.463 420.142 300.463 168.573 0 326.04-109.071 399.375-257.66l-73.579.468c-19.325.134-35.099-15.623-35.232-35.195-.132-19.572 15.427-35.547 34.753-35.681L964.767 600zM512.221 0c220.444 0 405.276 136.049 485.411 345.76 6.975 18.254-1.982 38.777-20.005 45.841-18.024 7.064-38.289-2.007-45.264-20.26C862.395 188.234 702.958 70.878 512.221 70.878c-168.573 0-326.04 109.071-399.375 257.66l73.579-.468c19.325-.134 35.099 15.623 35.232 35.195.132 19.572-15.427 35.547-34.753 35.681L35.233 400C15.813 400.134 0 384.228 0 364.56V204.34C0 184.767 15.667 168.9 34.993 168.9s34.993 15.867 34.993 35.439l-.02 56.26C161.085 107.793 330.095 0 512.222 0z"/></svg>