<svg width="64" height="64" viewBox="0 0 1000 1000" xmlns="http://www.w3.org/2000/svg"><path d="M500 0c276.142 0 500 223.858 500 500s-223.858 500-500 500S0 776.142 0 500 223.858 0 500 0zm0 69.767C262.39 69.767 69.767 262.39 69.767 500c0 237.61 192.622 430.233 430.233 430.233 237.61 0 430.233-192.622 430.233-430.233C930.233 262.39 737.61 69.767 500 69.767zM437.43 282.29l193.506 198.575c12.991 13.33 12.888 34.617-.232 47.821l-193.507 194.75c-13.27 13.356-34.856 13.425-48.212.154-13.356-13.27-13.425-34.856-.154-48.212l169.863-170.953-170.096-174.55c-13.14-13.485-12.86-35.069.624-48.209s35.067-12.86 48.207.624z"/></svg>