<svg width="64" height="64" viewBox="0 0 1000 1000" xmlns="http://www.w3.org/2000/svg"><path d="M965.007 1000c19.326 0 34.993-15.665 34.993-34.989V551.11c0-184.957-149.953-334.894-334.93-334.894l-549.82.035L271.812 59.72c13.664-13.663 13.663-35.818-.002-49.484-13.666-13.665-35.82-13.666-49.485-.002L10.261 222.298c-13.664 13.664-13.663 35.82.002 49.485L222.351 483.87c13.665 13.666 35.82 13.667 49.484.003 13.664-13.664 13.663-35.82-.002-49.485L123.6 286.2l541.47-.007c146.325 0 264.945 118.607 264.945 264.916V965.01c0 19.324 15.666 34.989 34.992 34.989z"/></svg>