<svg width="64" height="64" viewBox="0 0 1000 1000" xmlns="http://www.w3.org/2000/svg"><path d="M529.563 498.313c0 9.666-3.073 18.041-9.22 25.125-6.145 7.083-13.864 10.614-23.155 10.593-9.667 0-18.042-3.073-25.125-9.218-7.084-6.146-10.615-13.865-10.594-23.157 0-9.666 3.166-18.041 9.5-25.125 6.333-7.083 14.146-10.614 23.437-10.594 9.292.021 17.48 3.094 24.563 9.22 7.083 6.124 10.614 13.843 10.594 23.156zm8.375 32.375l195.312-324.22c-3.354 2.98-15.906 14.605-37.656 34.876a24858.998 24858.998 0 01-70.032 65 18104.526 18104.526 0 00-76.187 70.875c-25.854 24.187-47.615 44.74-65.281 61.656-17.667 16.917-27.063 26.5-28.188 28.75l-194.75 323.656c2.604-2.604 15.063-14.135 37.375-34.593a12354.74 12354.74 0 0070.313-65c24.562-22.875 49.864-46.5 75.906-70.875 26.042-24.375 47.802-45.021 65.281-61.938 17.48-16.917 26.781-26.313 27.906-28.188zM899 500c0 74.77-19.344 143.781-58.031 207.031-1.125-.75-4.292-2.791-9.5-6.125a700.51 700.51 0 00-14.782-9.218c-4.645-2.813-7.718-4.209-9.218-4.188-4.834 0-7.25 2.417-7.25 7.25 0 3.73 10.979 11.917 32.937 24.563-27.52 41.666-61.843 77.104-102.968 106.312s-86.053 49.76-134.782 61.656l-8.937-37.375c-.375-3.729-3.167-5.593-8.375-5.593-1.854 0-3.344 1.02-4.469 3.062-1.125 2.042-1.5 3.813-1.125 5.313l8.938 37.937c-26.792 5.583-53.948 8.375-81.47 8.375-74.04 0-143.239-19.531-207.593-58.594.375-.75 2.792-4.562 7.25-11.437a2233.323 2233.323 0 0012-18.688c3.542-5.583 5.312-9.114 5.312-10.593 0-4.834-2.416-7.25-7.25-7.25-2.229 0-5.395 2.697-9.5 8.093-4.104 5.396-8.291 11.813-12.562 19.25-4.27 7.438-6.781 11.719-7.531 12.844-42.042-27.896-77.76-62.77-107.157-104.625-29.395-41.854-49.854-87.333-61.375-136.438l38.5-8.375c3.73-1.125 5.594-3.916 5.594-8.375 0-1.854-1.02-3.343-3.062-4.468s-4-1.5-5.875-1.125l-37.938 8.375c-5.208-26.792-7.812-52.646-7.812-77.563 0-76.646 20.27-147.146 60.812-211.5.75.375 4.188 2.604 10.313 6.688 6.125 4.083 11.708 7.614 16.75 10.594 5.041 2.979 8.302 4.468 9.781 4.468 4.833 0 7.25-2.229 7.25-6.687 0-2.23-2.323-5.115-6.969-8.656-4.646-3.542-10.687-7.542-18.125-12l-11.156-6.688c28.646-41.667 63.802-76.823 105.469-105.469 41.666-28.646 87.052-48.552 136.156-59.718l8.375 37.375c.75 3.729 3.542 5.593 8.375 5.593 1.854 0 3.344-1.02 4.469-3.062 1.125-2.042 1.5-4 1.125-5.875l-8.375-36.844C451.635 103.417 476.562 101 500 101c75.896 0 146.396 20.27 211.5 60.813-14.5 20.833-21.75 32.927-21.75 36.28 0 4.834 2.23 7.25 6.688 7.25 4.083 0 13.01-11.905 26.78-35.718 41.292 27.896 76.167 62.49 104.626 103.781 28.458 41.292 48.458 86.125 60 134.5l-31.25 6.688c-3.73.75-5.594 3.729-5.594 8.937 0 1.854 1.02 3.344 3.063 4.469 2.041 1.125 3.812 1.5 5.312 1.125l31.813-7.25C896.395 448.667 899 474.708 899 500zm47.438 0c0-60.646-11.813-118.5-35.438-173.562-23.625-55.063-55.344-102.5-95.156-142.313-39.813-39.812-87.25-71.531-142.313-95.156C618.47 65.344 560.615 53.53 499.97 53.53c-60.646 0-118.5 11.813-173.563 35.438-55.062 23.625-102.5 55.344-142.312 95.156-39.813 39.813-71.531 87.25-95.156 142.313C65.312 381.5 53.5 439.354 53.5 500c0 60.646 11.813 118.5 35.438 173.563 23.625 55.062 55.343 102.5 95.156 142.312 39.812 39.813 87.25 71.531 142.312 95.156 55.063 23.625 112.917 35.438 173.563 35.438 60.646 0 118.5-11.813 173.562-35.438 55.063-23.625 102.5-55.343 142.313-95.156 39.812-39.813 71.531-87.25 95.156-142.313C934.625 618.5 946.438 560.647 946.438 500zm53.562 0c0 67.708-13.208 132.438-39.625 194.188S898.427 809.135 853.781 853.78c-44.646 44.646-97.843 80.177-159.593 106.594C632.438 986.792 567.707 1000 500 1000c-67.708 0-132.438-13.208-194.188-39.625S190.865 898.427 146.22 853.781c-44.646-44.646-80.177-97.843-106.594-159.593C13.208 632.438 0 567.707 0 500c0-67.708 13.208-132.438 39.625-194.188s61.948-114.947 106.594-159.593c44.646-44.646 97.844-80.177 159.594-106.594C367.563 13.208 432.291 0 500 0c67.708 0 132.438 13.208 194.188 39.625s114.947 61.948 159.593 106.594c44.646 44.646 80.177 97.844 106.594 159.594C986.792 367.563 1000 432.291 1000 500z"/></svg>