<svg width="64" height="64" viewBox="0 0 1000 1000" xmlns="http://www.w3.org/2000/svg"><path d="M142.105 193.252V564.94c0 202.339 160.235 366.366 357.895 366.366 197.66 0 357.895-164.027 357.895-366.366V193.42L497.838 72.343 142.105 193.252zM497.725 0L925 143.68v421.26C925 805.217 734.721 1000 500 1000S75 805.217 75 564.94V143.68L497.726 0zm220.96 324.272c-13.848-12.605-35.056-11.332-47.37 2.844L455.525 575.535 316.106 421.294c-12.586-13.924-33.814-14.767-47.415-1.884-13.602 12.883-14.425 34.614-1.84 48.538l164.54 182.033c13.46 14.891 36.53 14.658 49.7-.504l240.372-276.714c12.313-14.176 11.07-35.886-2.778-48.49z"/></svg>