<svg width="64" height="64" viewBox="0 0 1000 1000" xmlns="http://www.w3.org/2000/svg"><path d="M136.364 68.182c-37.656 0-68.182 30.526-68.182 68.182v727.272c0 37.656 30.526 68.182 68.182 68.182h727.272c37.656 0 68.182-30.526 68.182-68.182V136.364c0-37.656-30.526-68.182-68.182-68.182H136.364zM863.636 0C938.948 0 1000 61.052 1000 136.364v727.272C1000 938.948 938.948 1000 863.636 1000H136.364C61.052 1000 0 938.948 0 863.636V136.364C0 61.052 61.052 0 136.364 0h727.272zm-165.88 121.766c-18.828 0-34.091 15.263-34.091 34.09V250c0 18.828 15.263 34.09 34.09 34.09 18.828 0 34.092-15.262 34.092-34.09v-94.143c0-18.828-15.264-34.091-34.091-34.091zm-560.58-74.818l68.181.304-1.072 222.318c-1.48 20.28 5 36.702 20.754 51.84 15.676 15.064 37.227 21.914 69.193 19.995l431.244.218c24.148-2.749 41.086-10.671 52.495-23.468 11.447-12.838 17.322-30.139 17.27-53.64l.007-217.416 68.182.002v217.34c.079 39.435-11.324 73.02-34.567 99.089-23.282 26.111-55.734 41.29-99.53 46.057l-432.988-.066c-47.932 2.977-88.257-9.842-118.547-38.948-30.213-29.03-44.489-65.211-41.604-103.637l.982-219.988z"/></svg>