<svg width="64" height="64" viewBox="0 0 1000 1000" xmlns="http://www.w3.org/2000/svg"><path d="M409.773 0c226.312 0 409.773 180.975 409.773 404.22 0 100.58-37.24 192.582-98.863 263.318l269.393 273.68a34.316 34.316 0 01-.732 48.993c-13.918 13.33-36.154 13.006-49.667-.723L670.552 716.033c-70.851 57.725-161.71 92.405-260.779 92.405C183.462 808.438 0 627.463 0 404.22S183.462 0 409.773 0zm0 69.295c-187.515 0-339.526 149.95-339.526 334.924s152.011 334.925 339.526 334.925c187.515 0 339.527-149.951 339.527-334.925 0-184.974-152.012-334.924-339.527-334.924z"/></svg>