<svg width="64" height="64" viewBox="0 0 1000 1000" xmlns="http://www.w3.org/2000/svg"><path d="M553.902 0c14.72 0 27.85 9.153 32.794 22.862l35.287 97.823c12.67 3.14 23.557 6.33 32.73 9.611 10.047 3.594 22.99 9.075 39.02 16.497l82.192-43.495c13.782-7.293 30.792-4.61 41.595 6.562l72.28 74.745c9.594 9.92 12.31 24.528 6.914 37.174l-38.571 90.39c6.424 11.73 11.554 21.758 15.413 30.16 4.213 9.17 9.385 21.792 15.592 38.007l89.869 38.476c13.468 5.766 21.834 19.264 20.914 33.748l-6.586 103.75c-.87 13.714-9.904 25.601-22.982 30.245l-85.116 30.22c-2.433 11.753-4.978 21.845-7.673 30.35-3.158 9.963-8.12 22.775-14.94 38.653l42.79 94.566c6.16 13.617 2.751 29.608-8.445 39.607l-81.286 72.595c-10.907 9.74-26.825 11.66-39.78 4.799l-83.804-44.388c-14.722 7.668-28.193 13.787-40.486 18.358A14980.772 14980.772 0 00614.988 885l-32.49 90.014c-4.85 13.436-17.578 22.522-32.002 22.846L455.464 1000c-14.814.323-28.218-8.65-33.405-22.375l-38.304-101.341c-17.595-6.151-30.449-10.933-38.806-14.453-7.92-3.336-18.177-8.218-30.92-14.7l-94.934 40.616c-12.806 5.48-27.684 2.87-37.803-6.632l-70.239-65.951c-10.756-10.1-13.86-25.83-7.73-39.187l40.838-89.001c-6.152-12.076-11.182-22.784-15.103-32.176-4.13-9.895-9.127-23.37-15.053-40.555l-89.42-27.185C9.525 582.481-.55 568.471.024 552.9l3.54-96.048c.468-12.725 8.003-24.155 19.588-29.716l93.897-45.072c4.332-15.95 8.145-28.354 11.535-37.427 3.356-8.984 8.564-20.767 15.69-35.565l-40.774-86.074c-6.343-13.389-3.33-29.288 7.484-39.499l70.239-66.323c9.998-9.44 24.698-12.138 37.457-6.873l94.926 39.173c10.512-6.929 20.019-12.647 28.58-17.17 10.282-5.432 23.944-11.147 41.234-17.318l32.976-92.055C421.319 9.187 434.467 0 449.215 0h104.687zm-24.548 68.853H473.82l-30.346 84.714c-3.573 9.976-11.59 17.773-21.737 21.142-21.78 7.23-37.536 13.465-46.734 18.324-9.763 5.158-22.178 13.006-37.041 23.486-9.801 6.91-22.518 8.325-33.627 3.74l-91.477-37.75-35.682 33.694 37.199 78.528a34.078 34.078 0 01-.305 29.832c-10.003 20.048-16.775 34.858-20.165 43.932-3.388 9.067-7.946 24.584-13.468 46.082-2.525 9.834-9.31 18.066-18.54 22.497L72.39 480.038l-1.804 48.973 80.98 24.619c10.783 3.278 19.292 11.52 22.83 22.113 8.02 24.022 14.41 41.714 19.033 52.792 4.538 10.873 11.28 24.71 20.191 41.363a34.08 34.08 0 01.931 30.323l-37.575 81.889 35.583 33.412 89.067-38.106a35.173 35.173 0 0130.16 1.192c18.265 9.593 31.875 16.264 40.454 19.878 8.737 3.68 25.502 9.783 49.793 18.088 9.814 3.355 17.6 10.866 21.236 20.484l35.356 93.543 46.34-1.04 29.842-82.678c3.428-9.496 10.893-17.029 20.426-20.61a16711.734 16711.734 0 0151.877-19.403c13.09-4.868 29.005-12.53 47.562-22.985a35.165 35.165 0 0133.679-.435l78.847 41.763 44.327-39.588-38.718-85.568a34.073 34.073 0 01-.07-27.964c9.116-20.416 15.28-35.755 18.387-45.556 3.037-9.584 6.16-23.426 9.23-41.262 2.108-12.25 10.73-22.426 22.557-26.625l82.37-29.246 3.619-57.019-81.024-34.69c-8.737-3.74-15.543-10.854-18.835-19.687-8.049-21.593-14.394-37.425-18.887-47.205-4.438-9.66-11.462-22.968-21.003-39.717a34.082 34.082 0 01-1.742-30.277l36.256-84.964-38.199-39.502-74.41 39.377a35.17 35.17 0 01-31.654.609c-21.668-10.417-37.943-17.554-48.379-21.287-10.188-3.644-24.56-7.513-42.891-11.475-11.738-2.537-21.323-10.878-25.36-22.068l-33.418-92.646zm-28.169 213.222c121.787 0 220.515 97.617 220.515 218.033 0 120.417-98.728 218.034-220.515 218.034-121.786 0-220.514-97.617-220.514-218.034 0-120.416 98.728-218.033 220.514-218.033zm0 68.852c-83.327 0-150.878 66.79-150.878 149.181 0 82.39 67.55 149.181 150.878 149.181 83.328 0 150.879-66.79 150.879-149.18 0-82.391-67.55-149.182-150.879-149.182z"/></svg>