<svg width="64" height="64" viewBox="0 0 1000 1000" xmlns="http://www.w3.org/2000/svg"><path d="M790.77 0C878.787 0 950 72.489 950 161.734s-71.212 161.733-159.23 161.733c-47.32 0-89.782-20.95-118.933-54.192L357.63 441.257c6.993 18.213 10.83 38.027 10.83 58.743 0 27.077-6.555 52.612-18.146 75.048l300.39 186.228c26.936-50.45 79.524-84.743 140.064-84.743C878.79 676.533 950 749.02 950 838.266S878.788 1000 790.77 1000c-88.02 0-159.232-72.489-159.232-161.734l.162-6.916-326.477-202.296c-26.68 20.508-59.925 32.68-95.992 32.68C121.21 661.734 50 589.245 50 500s71.212-161.734 159.23-161.734c42.618 0 81.295 16.994 109.857 44.656L638.22 208.237c-4.347-14.73-6.683-30.342-6.683-46.503C631.538 72.489 702.75 0 790.77 0zm0 746.3c-49.628 0-90 41.097-90 91.966 0 50.87 40.372 91.967 90 91.967 49.627 0 90-41.097 90-91.967s-40.373-91.966-90-91.966zM209.23 408.034c-49.627 0-90 41.096-90 91.966s40.373 91.966 90 91.966c49.628 0 90-41.096 90-91.966s-40.372-91.966-90-91.966zM790.77 69.767c-49.628 0-90 41.097-90 91.967s40.372 91.966 90 91.966c49.627 0 90-41.097 90-91.966 0-50.87-40.373-91.967-90-91.967z"/></svg>