<svg width="64" height="64" viewBox="0 0 1000 1000" xmlns="http://www.w3.org/2000/svg"><path d="M68.04 861.533c37.577 0 68.04 31.014 68.04 69.273 0 38.26-30.463 69.274-68.04 69.274-37.578 0-68.04-31.015-68.04-69.274s30.462-69.273 68.04-69.273zm771.117 0c37.577 0 68.04 31.014 68.04 69.273 0 38.26-30.463 69.274-68.04 69.274-37.578 0-68.04-31.015-68.04-69.274s30.462-69.273 68.04-69.273zm159.44-836.699c5.323 18.346-4.97 37.611-22.989 43.03-35.693 10.734-58.896 24.289-70.235 39.133-11.967 15.668-18.563 34.781-19.695 56.574l-.023 478.047c-1.993 55.694-14.81 99.576-39.834 131.006-26.093 32.774-66.082 51.23-121.231 56.58H177.483c-48.81 0-89.188-12.761-119.775-39.103C27.098 763.74 8.172 725.56.44 677.109L0 671.554l.033-296.906c2.246-51.536 18.397-94.027 48.839-125.79 30.926-32.268 74.123-48.771 128.611-50.279h475.914c18.789 0 34.02 15.508 34.02 34.637 0 19.13-15.231 34.637-34.02 34.637l-474.982-.013c-36.982 1.032-63.294 11.084-80.846 29.398-18.037 18.82-28.02 45.085-29.53 78.945v292.47c5.471 31.724 16.823 54.101 33.61 68.557 17.27 14.874 42.097 22.72 75.834 22.72l543.78.166c35.055-3.507 58.268-14.22 71.702-31.094 14.503-18.216 23.195-47.972 24.673-88.645l.044-478.545c1.864-37.325 13.175-70.102 33.982-97.342 21.435-28.062 56.534-48.566 104.67-63.042 18.02-5.42 36.941 5.06 42.264 23.406zm-345.2 551.97c18.789 0 34.02 15.508 34.02 34.638s-15.231 34.637-34.02 34.637H237.964c-18.789 0-34.02-15.508-34.02-34.637 0-19.13 15.231-34.637 34.02-34.637h415.433zm0-184.73c18.789 0 34.02 15.508 34.02 34.638 0 19.129-15.231 34.636-34.02 34.636H237.964c-18.789 0-34.02-15.507-34.02-34.636 0-19.13 15.231-34.637 34.02-34.637h415.433z"/></svg>