<svg width="64" height="64" viewBox="0 0 1000 1000" xmlns="http://www.w3.org/2000/svg"><path d="M433.599 528.066c19.33 0 35 15.67 35 35v300c0 19.33-15.67 35-35 35s-35-15.67-35-35l-.049-217.7L59.957 989.781c-13.552 13.784-35.712 13.971-49.495.42-13.784-13.553-13.971-35.713-.42-49.497L346.9 598.016l-213.301.05c-19.33 0-35-15.67-35-35s15.67-35 35-35h300zM989.633 10.043c13.784 13.552 13.971 35.712.419 49.495L653.195 402.227l213.3-.05c19.33 0 35 15.67 35 35s-15.67 35-35 35h-300c-19.33 0-35-15.67-35-35v-300c0-19.33 15.67-35 35-35s35 15.67 35 35l.05 217.7L940.138 10.462c13.552-13.784 35.712-13.971 49.495-.42z"/></svg>