<svg width="64" height="64" viewBox="0 0 1000 1000" xmlns="http://www.w3.org/2000/svg"><path d="M500 0c276.142 0 500 223.858 500 500s-223.858 500-500 500S0 776.142 0 500 223.858 0 500 0zM354.318 569.941l-5.046.233c-18.694 2.242-32.031 19.213-29.79 37.907C330.381 698.976 407.72 768.07 500 768.07c91.83 0 168.922-68.434 180.369-158.779 2.366-18.678-10.857-35.739-29.536-38.105-18.679-2.367-35.739 10.857-38.105 29.535-7.143 56.378-55.346 99.167-112.728 99.167-57.664 0-106.02-43.2-112.82-99.923-2.242-18.694-19.214-32.031-37.908-29.79zm-63.62-255.988c-38.532 0-69.768 31.236-69.768 69.768 0 38.531 31.236 69.767 69.768 69.767 38.531 0 69.767-31.236 69.767-69.767 0-38.532-31.236-69.768-69.767-69.768zm418.604 0c-38.531 0-69.767 31.236-69.767 69.768 0 38.531 31.236 69.767 69.767 69.767 38.532 0 69.768-31.236 69.768-69.767 0-38.532-31.236-69.768-69.768-69.768z"/></svg>