<svg width="64" height="64" viewBox="0 0 1000 1000" xmlns="http://www.w3.org/2000/svg"><path d="M500 0c276.142 0 500 223.858 500 500s-223.858 500-500 500S0 776.142 0 500 223.858 0 500 0zm0 69.767C262.39 69.767 69.767 262.39 69.767 500c0 237.61 192.622 430.233 430.233 430.233 237.61 0 430.233-192.622 430.233-430.233C930.233 262.39 737.61 69.767 500 69.767zM387.18 599.964c6.8 56.723 55.156 99.923 112.82 99.923 57.382 0 105.585-42.789 112.728-99.167 2.366-18.678 19.426-31.902 38.105-29.535 18.679 2.366 31.902 19.427 29.536 38.105C668.922 699.635 591.829 768.07 500 768.07c-92.28 0-169.62-69.093-180.518-159.988-2.241-18.694 11.096-35.665 29.79-37.907 18.694-2.241 35.666 11.096 37.907 29.79zm-96.482-286.01c38.531 0 69.767 31.235 69.767 69.767 0 38.531-31.236 69.767-69.767 69.767-38.532 0-69.768-31.236-69.768-69.767 0-38.532 31.236-69.768 69.768-69.768zm418.604 0c38.532 0 69.768 31.235 69.768 69.767 0 38.531-31.236 69.767-69.768 69.767-38.531 0-69.767-31.236-69.767-69.767 0-38.532 31.236-69.768 69.767-69.768z"/></svg>