<svg width="64" height="64" viewBox="0 0 1000 1000" xmlns="http://www.w3.org/2000/svg"><path d="M195.086 646.84L21.46 456.343l-2.935-3.703C-.018 425.605-5.36 397.16 5.785 370.321c11.334-27.293 36.843-43.496 73.602-50.739l227.15-35.726L433.73 37.586C448.215 13.927 469.513 0 495.406 0c25.49 0 46.787 13.469 62.097 36.521l2.468 4.385L674.23 284.038l258.412 41.37c35.242 6.328 59.922 25.399 66.023 56.912 5.446 28.127-5.938 55.622-31.095 83.323L787.924 647.508l42.982 263.837c4.306 31.926-4.193 59.07-27.44 76.142-23.88 17.538-54.373 15.937-93.174-.41L491.316 869.325 275.409 985.12c-30.345 16.606-61.008 17.703-87.007.204-26.025-17.518-36.52-46.286-32.192-81.358l38.876-257.125zm72.711-22.04l-2.44 16.143-41.189 272.329c-1.263 10.272-.134 13.368 2.551 15.176 2.712 1.825 6.3 1.697 16-3.61l248.64-133.351 16.229 8.727L739.739 925.24c15.86 6.608 23.11 6.99 23.108 6.99.631-.463 1.303-2.61.213-10.793l-48.45-297.304 12.25-12.4 190.886-193.2c11.048-12.186 14.216-19.839 13.569-23.185.007.04-.92-.677-10.16-2.343L627.56 346.01 499.034 72.514c-2.427-3.455-3.256-3.946-3.628-3.946-.03 0-.345.206-1.937 2.631L351.552 346.19l-17.179 2.701-242.996 38.191c-15.105 2.988-21.1 6.795-22.234 9.528-1.236 2.975-.542 7.306 4.75 15.447L267.798 624.8z"/></svg>