<svg width="64" height="64" viewBox="0 0 1000 1000" xmlns="http://www.w3.org/2000/svg"><path d="M494.497 875.718L283.963 988.533l-4.894 2.225c-35.758 13.525-69.481 10.789-95.17-12.095-24.11-21.478-32.842-52.3-27.846-87.75l35.194-242.999-159-167.096C4.714 452.78-6.002 418.395 3.262 382.376c10.263-39.905 43.968-62.885 92.551-70.579l211.336-31.886 110.657-229.26C434.994 18.305 461.832-.871 495.566.03c33.02.882 59.132 21.096 79.634 57.147l107.037 224.305 236.95 32.921c37.652 6.5 65.404 26.109 76.496 58.81 11.064 32.622.535 65.636-27.844 99.319l-172.014 175.5 38.606 242.82c6.143 41.984-1.207 75.26-29.292 95.043-25.282 17.809-56.919 17.809-93.315 5.286l-6.015-2.62-211.312-112.844z"/></svg>