<svg width="64" height="64" viewBox="0 0 1000 1000" xmlns="http://www.w3.org/2000/svg"><path d="M68.182 256.919v600.976h863.636V256.919H68.182zM45.455 75h909.09C979.65 75 1000 95.03 1000 119.737v760.526c0 24.708-20.35 44.737-45.455 44.737H45.455C20.35 925 0 904.97 0 880.263V119.737C0 95.029 20.35 75 45.455 75zm261.363 87.95c0-18.53 15.263-33.552 34.091-33.552 18.828 0 34.091 15.022 34.091 33.553v694.944c0 18.53-15.263 33.552-34.09 33.552-18.829 0-34.092-15.022-34.092-33.552V162.95zm348.005-32.029c18.828 0 34.091 15.022 34.091 33.553L688.9 414.2l245.54.043c18.829 0 34.092 15.022 34.092 33.553 0 18.53-15.263 33.552-34.091 33.552L688.9 481.3v153.1l250.124.01c18.828 0 34.09 15.022 34.09 33.553 0 18.53-15.262 33.552-34.09 33.552L688.9 701.5l.014 157.918c0 18.53-15.263 33.552-34.09 33.552-18.829 0-34.092-15.022-34.092-33.552L620.7 701.5l-570.662.015c-18.828 0-34.091-15.022-34.091-33.552s15.263-33.553 34.09-33.553l570.663-.01V481.3l-575.245.048c-18.828 0-34.091-15.022-34.091-33.552 0-18.531 15.263-33.553 34.09-33.553L620.7 414.2l.032-249.726c0-18.53 15.263-33.553 34.091-33.553z"/></svg>