<svg width="64" height="64" viewBox="0 0 1000 1000" xmlns="http://www.w3.org/2000/svg"><path d="M518.402 0c9.092 0 17.808 3.62 24.216 10.06L960.06 429.553c27.949 29.312 41.845 62.422 39.729 97.904-1.98 33.209-15.184 63.712-40.36 92.298L605.758 971.577l-5.754 4.602c-31.92 20.3-62.958 28.23-92.462 21.445-25.774-5.926-52.762-21.839-83.914-48.918L15.606 537.756a34.044 34.044 0 01-9.888-23.544L0 73.666c.337-21.45 6.319-39.624 19.625-53.007C33.302 6.903 52.73 1.12 79.412 0h438.99zm-14.206 68.147l-423.312-.03c-6.441.277-10.49.936-12.138 1.006l-.296-.023v.768c-.058.867-.158 2.152-.19 3.89l5.54 425.806L470.226 898.97c21.574 18.665 39.475 29.22 52.64 32.247 8.898 2.046 21.205-.852 37.469-10.66l349.32-347.383c13.887-15.832 20.937-32.12 21.989-49.765.916-15.372-5.44-30.52-20.523-46.348L504.196 68.147zM323.674 160.57c81.69 0 147.911 66.107 147.911 147.654 0 81.546-66.222 147.653-147.91 147.653-81.69 0-147.912-66.107-147.912-147.653 0-81.547 66.222-147.654 147.911-147.654zm0 68.148c-43.986 0-79.644 35.596-79.644 79.506 0 43.91 35.658 79.505 79.644 79.505 43.987 0 79.645-35.596 79.645-79.505 0-43.91-35.658-79.506-79.645-79.506zM68.397 68.484c-.509.372-.547.495-.436.566l.489.05c.04-.454.013-.583-.053-.616z"/></svg>