<svg width="64" height="64" viewBox="0 0 1000 1000" xmlns="http://www.w3.org/2000/svg"><path d="M518.402 0c9.092 0 17.808 3.62 24.216 10.06L960.06 429.553c27.949 29.312 41.845 62.422 39.729 97.904-1.98 33.209-15.184 63.712-40.36 92.298L605.758 971.577l-5.754 4.602c-31.92 20.3-62.958 28.23-92.462 21.445-25.774-5.926-52.762-21.839-83.914-48.918L15.606 537.756a34.044 34.044 0 01-9.888-23.544L0 73.666c.337-21.45 6.319-39.624 19.625-53.007C33.302 6.903 52.73 1.12 79.412 0h438.99zM323.674 228.719c-43.986 0-79.644 35.596-79.644 79.506 0 43.91 35.658 79.505 79.644 79.505 43.987 0 79.645-35.596 79.645-79.505 0-43.91-35.658-79.506-79.645-79.506z"/></svg>