<svg width="64" height="64" viewBox="0 0 1000 1000" xmlns="http://www.w3.org/2000/svg"><path d="M10.23 458.275C3.706 452.092.026 443.616.026 434.765L.04 167.948c-.509-16.704 3.81-31.928 13.495-44.486C25.013 108.579 42.412 101.206 64.931 100h275.896c9.011 0 17.65 3.485 24.005 9.684l450.756 439.899c9.323 11.033 13.638 24.57 12 38.726-1.355 11.71-6.186 22.455-16.1 33.659l-272.125 261.8c-10.725 10.173-24.247 15.909-39.107 15.909-13.769 0-26.583-4.864-40.907-15.896L10.231 458.275zm57.515-37.343l431.393 409.004 256.126-246.234-428.516-417.991-259.027-.052c0 .258.01 85.35.024 255.273zm431.077-254.895H349.329c-18.7 0-33.86-14.71-33.86-32.857 0-18.146 15.16-32.857 33.86-32.857h163.57c9.01 0 17.65 3.486 24.005 9.685l450.755 439.898c9.323 11.033 13.639 24.57 12 38.726-1.355 11.71-6.185 22.455-16.1 33.66L711.436 884.09C700.71 894.264 687.187 900 672.328 900c-13.77 0-26.583-4.864-40.907-15.896l-67.094-63.566c-13.38-12.677-13.637-33.479-.573-46.463 13.064-12.984 34.502-13.233 47.882-.556l59.584 56.731 256.115-246.224-428.513-417.99zM224.777 408.325c-56.101 0-101.58-44.132-101.58-98.57 0-54.44 45.479-98.57 101.58-98.57 56.1 0 101.58 44.13 101.58 98.57 0 54.438-45.48 98.57-101.58 98.57zm0-65.714c18.7 0 33.86-14.71 33.86-32.856 0-18.147-15.16-32.857-33.86-32.857s-33.86 14.71-33.86 32.857c0 18.146 15.16 32.856 33.86 32.856z"/></svg>