<svg width="64" height="64" viewBox="0 0 1000 1000" xmlns="http://www.w3.org/2000/svg"><path d="M98.868 328.007L42.042 413.12l104.82 63.324s69.686 34.828 36.282 100.2C152.236 638.477 0 773.878 0 773.878l136.303 83.065c94.452-199.841 88.117-173.208 111.73-245.098 24.38-73.009 29.757-129.068-11.518-169.856-52.986-51.962-58.938-56.805-137.647-113.982zM355.539 125l125.746 34.64s-10.175 23.654-31.87 60.345c503.94-139.312 533.696 85.672 533.696 85.672s33.02 155.701 6.72 399.683c-26.494 243.98-351.126 153.093-351.126 153.093l17.47-69.842 75.255 15.83c138.99 8.382 125.552-110.07 125.552-110.07V349.053c.96-131.117-126.32-144.899-354.772-64.814l53.37 14.155c-4.608 15.086-21.695 39.112-43.771 65.372H817.05v60.343H645.425v75.616h171.05v60.53h-171.05v126.46c25.533-8.382 49.529-19.556 69.879-34.828l-14.974-54.943 80.63-24.77 67.384 160.916-99.445 40.788-17.661-64.441c-44.539 33.337-137.071 81.761-298.332 77.478-172.587 4.283-128.048-189.97-128.048-189.97l4.415-2.422h121.138c-.576 25.143-11.135 65.559 3.071 87.908 11.903 18.252 41.85 21.418 61.241 22.35l6.719.186V560.255H325.975V499.91h175.467v-75.616H456.52c-39.356 40.788-75.64 74.871-75.64 74.871l-52.985-45.444c37.627-38.738 75.063-100.2 98.484-141.173a1927.404 1927.404 0 00-58.361 24.212c-19.197 24.21-41.851 49.168-67 73.752.96 1.49-86.965-48.05-86.965-48.05 84.95-70.716 134.972-217.547 140.893-235.625l.593-1.838zm-182.185 14.155c49.53 0 89.652 35.013 89.652 78.595 0 43.208-40.122 78.223-89.652 78.223-49.913 0-89.654-35.2-89.845-78.223 0-43.396 39.93-78.595 89.845-78.595z"/></svg>