<svg width="64" height="64" viewBox="0 0 1000 1000" xmlns="http://www.w3.org/2000/svg"><path d="M1000 194.707c-36.79 16.058-76.322 26.912-117.827 31.782 42.35-24.993 74.894-64.574 90.192-111.71a414.103 414.103 0 01-130.268 48.99C804.683 124.546 751.36 100 692.35 100c-113.295 0-205.161 90.412-205.161 201.969 0 15.814 1.818 31.245 5.324 46.037C322 339.58 170.838 259.166 69.647 136.96c-17.662 29.839-27.779 64.549-27.779 101.547 0 70.071 36.22 131.871 91.27 168.103-33.622-1.062-65.258-10.151-92.919-25.263-.026.844-.026 1.675-.026 2.545 0 97.826 70.712 179.455 164.552 198.03a209.441 209.441 0 01-54.037 7.07 207.542 207.542 0 01-38.608-3.617c26.102 80.222 101.866 138.634 191.641 140.27-70.218 54.156-158.669 86.462-254.795 86.462-16.558 0-32.882-.946-48.946-2.825C90.789 866.582 198.629 900 314.481 900 691.843 900 898.2 592.265 898.2 325.403c0-8.745-.208-17.477-.598-26.157 40.116-28.458 74.907-64.038 102.399-104.539z"/></svg>