<svg width="64" height="64" viewBox="0 0 1000 1000" xmlns="http://www.w3.org/2000/svg"><path d="M909.09 0C959.3 0 1000 40.701 1000 90.91v818.18c0 50.209-40.701 90.91-90.91 90.91H90.91C40.7 1000 0 959.299 0 909.09V90.91C0 40.7 40.701 0 90.91 0h818.18zM475.972 380.854l-194.75 193.508c-13.355 13.27-13.424 34.855-.154 48.211 13.271 13.356 34.856 13.425 48.212.154l170.954-169.863 174.55 170.096c13.485 13.14 35.068 12.861 48.208-.623 13.14-13.485 12.861-35.068-.623-48.208L523.792 380.622c-13.33-12.99-34.617-12.887-47.82.232z"/></svg>