<svg width="64" height="64" viewBox="0 0 1000 1000" xmlns="http://www.w3.org/2000/svg"><path d="M965.538 602.573c19.033 0 34.462 15.658 34.462 34.974v245.904c-.309 33.492-6.37 60.01-19.926 79.698-16.403 23.822-45.434 34.581-87.367 36.851l-795.175-.087c-32.285-2.309-58.376-15.126-75.32-38.844C7.095 939.905-.083 913.572 0 883.126V637.547c0-19.316 15.43-34.974 34.462-34.974 19.032 0 34.461 15.658 34.462 34.974v245.677c-.046 16.612 3.21 28.555 9.09 36.787 4.056 5.678 11.193 9.184 21.94 10.04l790.876.051c20.982-1.161 31.362-5.008 32.747-7.02 4.231-6.144 7.311-19.62 7.5-39.957V637.547c0-19.316 15.429-34.974 34.461-34.974zM499.502 0c11.188 0 21.131 5.41 27.427 13.795l214.07 215.397c13.518 13.598 13.615 35.743.217 49.462a34.105 34.105 0 01-48.736.22L533.95 119.4l.014 482.161c0 19.316-15.43 34.975-34.462 34.975-19.033 0-34.462-15.659-34.462-34.975L465 119.15 308.598 278.703c-12.082 12.323-30.965 13.599-44.455 3.798l-4.28-3.677c-13.491-13.626-13.544-35.77-.119-49.462L474.543 10.304c5.666-5.778 12.828-9.128 20.229-10.045.183.042.363.019.543-.003 1.177-.186 2.357-.252 3.537-.256h.65z"/></svg>