<svg width="64" height="64" viewBox="0 0 1000 1000" xmlns="http://www.w3.org/2000/svg"><path d="M617.319 555.067c44.009 0 87.052 7.29 127.742 21.392 18.157 6.293 27.678 25.839 21.266 43.658-6.412 17.819-26.329 27.162-44.486 20.87-33.258-11.527-68.45-17.487-104.522-17.487-173.303 0-313.793 137.873-313.793 307.949 0 10.39.523 20.71 1.561 30.94 1.91 18.804-12.076 35.566-31.238 37.44-19.16 1.873-36.241-11.852-38.15-30.656a373.431 373.431 0 01-1.905-37.724c0-207.87 171.71-376.382 383.525-376.382zm207.29 68.423c19.075.087 34.76 15.623 35.03 34.7l-.039 112.96 105.7-.246c17.342.247 31.759 13.23 34.302 29.921l.398 5.11a33.768 33.768 0 01-34.384 34.048L859.6 840.2l.04 118.52a33.768 33.768 0 01-34.049 34.384c-19.075-.088-34.759-15.624-35.03-34.7l-.011-118.054-125.463.35c-17.343-.247-31.76-13.231-34.303-29.921l-.398-5.11a33.768 33.768 0 0134.384-34.048l125.78-.321.01-113.426a33.768 33.768 0 0134.049-34.384zM383.525 410.995c19.256 0 34.866 15.32 34.866 34.217s-15.61 34.216-34.866 34.216c-173.303 0-313.793 137.874-313.793 307.95 0 10.39.523 20.71 1.561 30.94 1.91 18.803-12.076 35.566-31.237 37.44C20.895 857.63 3.814 843.905 1.905 825.1A373.431 373.431 0 010 787.377c0-207.87 171.71-376.382 383.525-376.382zm246.939-262.677c109.116 0 197.573 86.809 197.573 193.894 0 107.084-88.457 193.893-197.573 193.893-109.117 0-197.574-86.809-197.574-193.893 0-107.085 88.457-193.894 197.574-193.894zm0 68.433c-70.605 0-127.842 56.17-127.842 125.46 0 69.29 57.237 125.461 127.842 125.461 70.605 0 127.841-56.17 127.841-125.46 0-69.29-57.236-125.461-127.841-125.461zM401.24 0c62.245 0 119.752 28.48 156.889 76.029 11.714 14.998 8.82 36.476-6.463 47.972-15.283 11.496-37.168 8.656-48.882-6.342-24.079-30.83-61.225-49.226-101.544-49.226-70.605 0-127.842 56.17-127.842 125.46 0 60.6 44.117 112.248 104.05 123.3 18.925 3.489 31.384 21.373 27.828 39.946-3.555 18.572-21.78 30.799-40.704 27.31-92.757-17.103-160.906-96.887-160.906-190.555C203.667 86.809 292.124 0 401.241 0z"/></svg>