<svg width="64" height="64" viewBox="0 0 1000 1000" xmlns="http://www.w3.org/2000/svg"><path d="M529.788 0c161.336 0 292.125 128.32 292.125 286.612 0 87.223-39.712 165.346-102.364 217.914 13.682 6.65 26.132 13.381 37.404 20.127 24.236 14.504 49.384 32.485 75.497 53.934 14.844 12.193 16.804 33.885 4.376 48.45-12.428 14.564-34.537 16.487-49.382 4.293-23.555-19.348-45.906-35.329-67-47.952-19.076-11.417-42.833-23.163-71.21-35.157-36.523 16.089-76.923 25.003-119.446 25.003-47.02 0-91.445-10.9-130.795-30.263l-2.108.97c-98.845 37.806-170.952 93.715-217.515 167.916-46.72 74.45-65.804 157.632-57.294 250.684 1.73 18.919-12.498 35.632-31.781 37.33-19.283 1.697-36.318-12.264-38.048-31.183-9.84-107.597 12.646-205.607 67.42-292.894C167.84 599.02 238.61 539.297 331.173 496.742c-57.502-52.27-93.51-127.075-93.51-210.13C237.662 128.32 368.452 0 529.788 0zm361.176 711.968c13.467-13.34 35.345-13.383 48.866-.097a33.77 33.77 0 01.099 48.212L880.35 819.05l59.579 59.011a33.77 33.77 0 01-.099 48.212c-13.521 13.286-35.399 13.243-48.866-.097L831.6 867.35l-59.34 58.826c-12.121 12.006-31.054 13.242-44.577 3.683l-4.29-3.586a33.77 33.77 0 01-.098-48.212L782.8 819.05l-59.505-58.967a33.77 33.77 0 01.098-48.212c13.521-13.286 35.4-13.243 48.866.097L831.6 770.75zM529.788 68.787c-122.616 0-222.016 97.523-222.016 217.825 0 120.301 99.4 217.825 222.016 217.825 122.616 0 222.015-97.524 222.015-217.825 0-120.302-99.4-217.825-222.015-217.825z"/></svg>