<svg width="64" height="64" viewBox="0 0 1000 1000" xmlns="http://www.w3.org/2000/svg"><path d="M499.648 528.647c124.264 0 225-100.736 225-225s-100.736-225-225-225-225 100.736-225 225 100.736 225 225 225zM500 0c165.685 0 300 134.315 300 300 0 110.216-59.435 206.55-148.002 258.7 184.379 55.467 322.886 210.924 347.737 403.919 2.358 18.311-11.283 34.98-30.467 37.23-19.185 2.251-36.649-10.769-39.007-29.08-26.98-209.538-208.442-367.27-428.53-367.27-221.231 0-405.04 158.075-431.993 367.272-2.359 18.311-19.824 31.33-39.008 29.078-19.184-2.251-32.824-18.921-30.465-37.233 24.767-192.227 164.041-347.4 348.712-403.426C259.86 507.236 200 410.61 200 300 200 134.315 334.315 0 500 0z"/></svg>