<svg width="64" height="64" viewBox="0 0 1000 1000" xmlns="http://www.w3.org/2000/svg"><path d="M473.364 0C632.54 0 761.578 128.32 761.578 286.612c0 87.216-39.174 165.333-100.978 217.9 13.51 6.68 25.778 13.403 36.888 20.141 23.91 14.504 48.722 32.485 74.485 53.934 14.646 12.193 16.58 33.885 4.318 48.45-12.262 14.564-34.075 16.487-48.721 4.293-23.24-19.348-45.29-35.329-66.102-47.952-18.824-11.418-42.267-23.166-70.268-35.162-36.035 16.096-75.89 25.008-117.836 25.008-46.392 0-90.223-10.9-129.047-30.265l-2.076.973c-97.522 37.805-168.664 93.714-214.604 167.915-46.093 74.45-64.922 157.632-56.526 250.684 1.708 18.919-12.331 35.632-31.356 37.33-19.025 1.697-35.831-12.264-37.538-31.183-9.71-107.597 12.476-205.607 66.518-292.894 47.535-76.777 117.373-136.507 208.719-179.064-56.776-52.243-92.304-127.05-92.304-210.108C185.15 128.32 314.187 0 473.364 0zm370.044 634.634c18.995 0 34.393 15.485 34.393 34.586l-.001 87.58 87.614.033c19.101 0 34.586 15.398 34.586 34.393s-15.485 34.394-34.586 34.394l-87.614-.02.001 87.633c0 19.1-15.398 34.585-34.393 34.585s-34.393-15.484-34.393-34.585L809 825.6l-87.598.02c-19.102 0-34.586-15.399-34.586-34.394 0-18.995 15.484-34.393 34.586-34.393L809 756.8l.015-87.58c0-19.101 15.398-34.586 34.393-34.586zM473.364 68.787c-120.974 0-219.043 97.523-219.043 217.825 0 120.301 98.069 217.825 219.043 217.825s219.043-97.524 219.043-217.825c0-120.302-98.07-217.825-219.043-217.825z"/></svg>