<svg width="64" height="64" viewBox="0 0 1000 1000" xmlns="http://www.w3.org/2000/svg"><path d="M622.102 555.067c43.425 0 85.897 7.29 126.048 21.392 17.916 6.293 27.31 25.839 20.984 43.658-6.327 17.819-25.98 27.162-43.897 20.87-32.816-11.527-67.542-17.487-103.135-17.487-171.005 0-309.632 137.873-309.632 307.949 0 10.39.516 20.71 1.541 30.94 1.884 18.804-9.926 35.483-30.204 37.547-20.277 2.065-36.38-11.959-38.264-30.763a378.406 378.406 0 01-1.88-37.724c0-207.87 169.433-376.382 378.439-376.382zM941.28 689.309c13.5-13.298 35.283-13.193 48.653.233 13.37 13.427 13.266 35.092-.234 48.39L908 818.35l81.7 80.444c13.5 13.298 13.604 34.962.234 48.389s-35.153 13.531-48.653.233L859.15 866.5l-82.12 80.916c-12.15 11.968-31.009 13.08-44.406 3.395l-4.247-3.628c-13.37-13.427-13.265-35.091.235-48.389l81.638-80.444-81.638-80.419c-13.5-13.297-13.605-34.962-.235-48.389 13.37-13.426 35.153-13.53 48.653-.233l82.12 80.891zM378.438 410.995c19 0 34.404 15.32 34.404 34.217s-15.403 34.216-34.404 34.216c-171.004 0-309.631 137.874-309.631 307.95 0 10.39.516 20.71 1.54 30.94 1.884 18.803-11.916 35.566-30.823 37.44C20.617 857.63 3.764 843.905 1.88 825.1A378.406 378.406 0 010 787.377c0-207.87 169.433-376.382 378.438-376.382zm256.634-262.677c107.67 0 194.953 86.809 194.953 193.894 0 107.084-87.284 193.893-194.953 193.893-107.67 0-194.953-86.809-194.953-193.893 0-107.085 87.283-193.894 194.953-193.894zm0 68.433c-69.669 0-126.146 56.17-126.146 125.46 0 69.29 56.477 125.461 126.146 125.461 69.668 0 126.146-56.17 126.146-125.46 0-69.29-56.478-125.461-126.146-125.461zM395.919 0c61.42 0 118.164 28.48 154.808 76.029 11.559 14.998 8.704 36.476-6.377 47.972-15.08 11.496-36.675 8.656-48.234-6.342-23.759-30.83-60.413-49.226-100.197-49.226-69.669 0-126.146 56.17-126.146 125.46 0 60.6 43.531 112.248 102.67 123.3 18.674 3.489 30.968 21.373 27.46 39.946-3.51 18.572-21.492 30.799-40.165 27.31-91.527-17.103-158.772-96.887-158.772-190.555C200.966 86.809 288.249 0 395.919 0z"/></svg>