<svg width="64" height="64" viewBox="0 0 1000 1000" xmlns="http://www.w3.org/2000/svg"><path d="M136.364 166.667c-37.656 0-68.182 29.847-68.182 66.666v533.334c0 36.819 30.526 66.666 68.182 66.666h727.272c37.656 0 68.182-29.847 68.182-66.666V233.333c0-36.819-30.526-66.666-68.182-66.666H136.364zM863.636 100C938.948 100 1000 159.695 1000 233.333v533.334C1000 840.305 938.948 900 863.636 900H136.364C61.052 900 0 840.305 0 766.667V233.333C0 159.695 61.052 100 136.364 100h727.272zM408.333 656.667H200c-18.828 0-34.09 14.924-34.09 33.333 0 18.41 15.262 33.333 34.09 33.333h208.333c18.828 0 34.091-14.924 34.091-33.333 0-18.41-15.263-33.333-34.09-33.333zm279.167-390c-76.219 0-138.258 59.557-138.258 133.333 0 38.651 17.028 73.4 44.202 97.726-51.487 30.413-85.868 85.15-85.868 147.726 0 17.858 2.815 35.39 8.288 52.128 5.733 17.536 24.92 27.206 42.853 21.6 17.934-5.606 27.824-24.366 22.09-41.901-3.334-10.197-5.05-20.882-5.05-31.827 0-58.772 49.89-106.667 111.743-106.667 61.852 0 111.742 47.895 111.742 106.667 0 8.625-1.065 17.09-3.15 25.286-4.545 17.865 6.582 35.95 24.853 40.394 18.27 4.444 36.767-6.435 41.312-24.3a167.638 167.638 0 005.167-41.38c0-62.577-34.381-117.313-85.857-147.782 27.163-24.27 44.19-59.019 44.19-97.67 0-73.776-62.038-133.333-138.257-133.333zm-279.167 215H200c-18.828 0-34.09 14.924-34.09 33.333 0 18.41 15.262 33.333 34.09 33.333h208.333c18.828 0 34.091-14.924 34.091-33.333 0-18.41-15.263-33.333-34.09-33.333zM687.5 333.333c38.84 0 70.076 29.986 70.076 66.667 0 36.68-31.236 66.667-70.076 66.667-38.84 0-70.076-29.986-70.076-66.667 0-36.68 31.236-66.667 70.076-66.667zm-279.167-26.666H200c-18.828 0-34.09 14.924-34.09 33.333 0 18.41 15.262 33.333 34.09 33.333h208.333c18.828 0 34.091-14.924 34.091-33.333 0-18.41-15.263-33.333-34.09-33.333z"/></svg>