<svg width="64" height="64" viewBox="0 0 1000 1000" xmlns="http://www.w3.org/2000/svg"><path d="M91.142 507.303c-12.584 0-22.786 10.241-22.786 22.874v378.327c0 12.633 10.202 22.874 22.786 22.874h658.391c12.584 0 22.786-10.24 22.786-22.874V530.177c0-12.633-10.202-22.874-22.786-22.874H91.142zm658.391-68.621c50.336 0 91.142 40.964 91.142 91.495v378.327c0 50.532-40.806 91.496-91.142 91.496H91.142C40.805 1000 0 959.036 0 908.504V530.177c0-50.531 40.805-91.495 91.142-91.495h658.391zM1000 634.54v174.106c0 21.731-19.869 37.988-41.071 33.605L887.3 827.45v-70.1l44.344 9.2v-89.606L887.3 686.4v-70.15l71.39-15.266c21.268-4.555 41.31 11.724 41.31 33.556zM250.64 656.89c-50.337 0-91.142 40.964-91.142 91.496s40.805 91.496 91.141 91.496c50.336 0 91.142-40.964 91.142-91.496s-40.806-91.496-91.142-91.496zm0 45.748c25.167 0 45.57 20.482 45.57 45.748s-20.403 45.748-45.57 45.748c-25.169 0-45.571-20.482-45.571-45.748s20.402-45.748 45.57-45.748zM634.963 4.985c106.965 0 193.676 87.048 193.676 194.428S741.93 393.841 634.964 393.841c-106.964 0-193.675-87.048-193.675-194.428S528 4.985 634.964 4.985zM205.07 0c106.964 0 193.675 87.048 193.675 194.428S312.033 388.856 205.07 388.856c-106.965 0-193.676-87.048-193.676-194.428S98.104 0 205.069 0zm429.895 73.607c-69.212 0-125.32 56.325-125.32 125.806s56.108 125.807 125.32 125.807c69.213 0 125.32-56.326 125.32-125.807 0-69.48-56.107-125.806-125.32-125.806zM205.07 68.622c-69.213 0-125.32 56.325-125.32 125.806s56.107 125.807 125.32 125.807c69.212 0 125.32-56.326 125.32-125.807 0-69.48-56.108-125.806-125.32-125.806z"/></svg>