<svg width="64" height="64" viewBox="0 0 1000 1000" xmlns="http://www.w3.org/2000/svg"><path d="M979.538 793.039L600.282 96.155C575.745 50.529 538.939 25 499.467 25c-39.473 0-75.745 26.072-100.815 71.698l-378.19 696.34c-24.537 45.084-27.204 91.253-6.934 126.559S74.337 975 124.478 975h751.044c50.141 0 90.68-20.097 110.95-55.403 20.27-35.306 17.603-80.932-6.934-126.558zM500 242.81c19.736 0 35.739 16.295 35.739 36.392v329.16c0 20.099-16.001 36.392-35.739 36.392-19.738 0-35.739-16.293-35.739-36.392v-329.16c0-19.554 16.003-36.392 35.739-36.392zM500 824c-30.938 0-55.475-25.53-55.475-57.033 0-31.504 25.07-57.033 55.475-57.033 30.938 0 55.475 25.53 55.475 57.033 0 31.504-25.07 57.032-55.475 57.032z"/></svg>