<svg width="64" height="64" viewBox="0 0 1000 1000" xmlns="http://www.w3.org/2000/svg"><path d="M875.458 975H124.574c-50.354 0-90.806-20.248-111.008-55.563-20.208-35.316-17.75-81.446 6.77-126.523L399.198 96.432C423.86 51.026 460.532 25 499.766 25c39.24 0 75.875 25.995 100.605 71.36l379.26 696.625c24.513 45.078 27.049 91.174 6.804 126.486C966.265 954.785 925.78 975 875.458 975zM499.805 98.112c-12.475 0-26.764 12.685-38.347 33.926L82.595 828.591c-11.87 21.86-14.649 41.497-7.558 53.884 7.097 12.356 25.161 19.452 49.538 19.452H875.46c24.416 0 42.448-7.057 49.54-19.452 7.053-12.356 4.312-31.984-7.591-53.846l-379.255-696.59c-11.55-21.242-25.912-33.927-38.348-33.927zm.213 547.075c-19.67 0-35.635-16.343-35.635-36.557V279.618c0-20.18 15.965-36.558 35.635-36.558 19.673 0 35.639 16.378 35.639 36.558v329.01c-.001 20.216-15.967 36.559-35.639 36.559zm-.256 178.694c30.668 0 55.53-25.548 55.53-57.062 0-31.515-24.861-57.063-55.53-57.063s-55.53 25.548-55.53 57.063c0 31.514 24.862 57.062 55.53 57.062z"/></svg>