<svg width="64" height="64" viewBox="0 0 1000 1000" xmlns="http://www.w3.org/2000/svg"><path d="M740.583 490.07c-38.883-7.076-19.951-26.714-19.951-26.714s38.04-58.915-7.549-101.726c-56.53-53.035-193.835 6.754-193.835 6.754-52.451 15.294-38.529-6.994-31.098-44.827 0-44.614-16.293-120.104-155.992-75.49-139.55 44.816-259.414 201.88-259.414 201.88C-10.58 554.332.488 635.003.488 635.003c20.813 178.09 222.404 226.993 379.21 238.57 164.941 12.13 387.61-53.374 455.09-188.001 67.52-134.829-55.167-188.177-94.207-195.502h.002zm-52.186 127.428c0 102.556-132.649 198.85-296.482 205.873-163.795 7.161-296.169-69.93-296.169-172.485 0-102.72 132.373-185.057 296.169-192.153 163.835-7.104 296.482 56.302 296.482 158.765zm-329.179-91.134C194.53 544.457 213.55 689.28 213.55 689.28s-1.695 45.865 44.158 69.213c96.363 48.986 195.59 19.344 245.747-41.44 50.148-60.793 20.744-208.634-144.237-190.69zm14.04 153.715c0 24.046-24.931 46.262-55.608 49.555-30.707 3.387-55.51-13.28-55.51-37.408 0-24.065 22.01-49.234 52.776-52.235 35.333-3.176 58.342 15.93 58.342 40.088zm50.127-57.526c5.54 8.751 1.57 21.902-8.616 29.457-10.424 7.289-23.217 6.285-28.708-2.476-5.756-8.558-3.588-22.28 6.922-29.457 12.195-8.53 24.892-6.056 30.402 2.476zm242.992-490.237c16.775-3.037 76.608-14.07 134.824-1.27 104.139 22.804 247.062 117.29 182.757 318.395-4.697 28.74-19.883 31.022-37.991 31.022-21.637 0-39.088-12.764-39.088-33.094 0-17.631 7.774-35.521 7.774-35.521 2.274-7.417 20.57-53.505-12.069-122.377-59.902-94.391-180.414-95.753-194.659-90.36-14.382 5.264-35.549 7.932-35.549 7.932-21.815 0-39.275-16.647-39.275-36.866 0-16.978 12.08-31.344 28.648-35.752 0 0 .355-.543.912-.663 1.196-.232 2.432-1.345 3.716-1.446zm33.04 130.558s168.325-29.2 148.207 140.543c0 1.004-.137 1.805-.362 2.706-1.874 12.038-13.187 21.259-26.443 21.259-15.019 0-27.177-11.247-27.177-25.308 0 0 26.687-113.451-94.226-88.438-14.952 0-26.912-11.33-26.912-25.234 0-14.172 11.961-25.528 26.912-25.528z"/></svg>