<svg width="64" height="64" viewBox="0 0 1000 1000" xmlns="http://www.w3.org/2000/svg"><path d="M700.011 365.037c159.991 0 299.989 112.882 299.989 250.301 0 73.61-54.976 142.331-124.986 196.316L900.011 900l-95.007-53.985c-34.982 9.801-69.988 19.625-104.993 19.625-169.998 0-299.988-112.883-299.988-250.302 0-137.419 134.993-250.301 299.988-250.301zM350.006 100c175.003 0 325.008 103.059 365.04 240.478h-35.005c-169.999 0-299.989 122.728-299.989 274.86 0 24.537 4.982 49.074 9.986 73.61h-35.006c-45.013 0-80.018-9.8-125.008-19.624L105.015 728.22l34.983-103.06C54.998 566.266 0 487.744 0 394.486 0 227.618 155.01 100 350.006 100zm255.02 402.434c-15.011 0-35.004 19.647-35.004 34.36 0 19.625 15.012 34.36 35.005 34.36 24.997 0 44.99-19.625 45.013-34.36 0-19.625-20.016-34.36-45.013-34.36zm189.993 0c-15.012 0-35.005 19.647-35.005 34.36 0 19.625 20.016 34.36 35.005 34.36 30 0 45.013-19.625 45.013-34.36 0-19.625-20.016-34.36-45.013-34.36zm-555.01-260.125c-29.978 0-54.998 19.624-54.998 44.184 0 29.448 30 44.183 54.998 44.183 25.02 0 40.01-14.735 45.013-44.183 0-29.449-20.016-44.184-45.013-44.184zm245.013 0c-30.001 0-54.998 19.624-54.998 44.184 0 29.448 30.001 44.183 54.998 44.183 24.997 0 44.99-14.735 45.013-44.183 0-29.449-20.016-44.184-45.013-44.184z"/></svg>