<svg width="64" height="64" viewBox="0 0 1000 1000" xmlns="http://www.w3.org/2000/svg"><path d="M500.057 700c55.229 0 100 44.772 100 100s-44.771 100-100 100c-55.228 0-100-44.772-100-100s44.772-100 100-100zm0-192.639c98.24 0 187.959 50.132 240.021 131.272 10.44 16.269 5.713 37.92-10.556 48.358-16.269 10.44-37.92 5.713-48.359-10.556-39.32-61.28-106.957-99.074-181.106-99.074-74.215 0-141.906 37.863-181.208 99.233-10.424 16.278-32.071 21.023-48.35 10.599-16.277-10.425-21.022-32.072-10.598-48.35 52.039-81.258 141.827-131.482 240.156-131.482zm0-197.235c152.974 0 293.12 69.082 383.787 186.228 11.83 15.286 9.03 37.27-6.257 49.1-15.286 11.832-37.269 9.03-49.1-6.256-77.44-100.056-197.166-159.072-328.43-159.072-129.245 0-248.618 59.423-326.845 159.24-11.923 15.214-33.923 17.882-49.137 5.958-15.215-11.923-17.882-33.923-5.959-49.137 91.358-116.572 230.953-186.06 381.941-186.06zm0-210.126c195.234 0 362.14 74.995 490.942 216.03 13.035 14.273 12.031 36.412-2.242 49.447-14.274 13.035-36.412 12.031-49.447-2.242C823.654 236.594 675.446 170 500.057 170c-171.09 0-322.659 68.582-439.491 193.537-13.202 14.119-35.35 14.863-49.47 1.661-14.12-13.202-14.863-35.35-1.661-49.47C139.247 176.894 309.18 100 500.057 100z"/></svg>