<svg width="64" height="64" viewBox="0 0 1000 1000" xmlns="http://www.w3.org/2000/svg"><path d="M865.003 626.741c19.329 0 34.997 15.66 34.997 34.979 0 19.318-15.668 34.978-34.997 34.978l-312.853-.048.02 268.372c0 19.318-15.668 34.978-34.996 34.978-19.328 0-34.997-15.66-34.997-34.978l-.027-268.372-347.153.048c-19.329 0-34.997-15.66-34.997-34.978s15.668-34.979 34.997-34.979h730.006zM517.173 0C674.56 0 802.147 127.52 802.147 284.824c0 157.304-127.587 284.824-284.972 284.824-157.386 0-284.972-127.52-284.972-284.824C232.202 127.52 359.788 0 517.174 0zm0 69.957c-118.729 0-214.978 96.2-214.978 214.867 0 118.668 96.25 214.867 214.979 214.867 118.73 0 214.979-96.2 214.979-214.867 0-118.668-96.25-214.867-214.98-214.867z"/></svg>