<svg xmlns="http://www.w3.org/2000/svg" width="64" height="64"><path d="M62.549 62.919c-.704.639-1.587 1.078-2.546 1.082H44.012c-2.106.006-3.989-1.88-3.997-3.998-.009-2.12 1.891-3.989 3.997-3.998h6.448L37.137 42.683a3.924 3.924 0 0 1 0-5.549 3.929 3.929 0 0 1 5.548 0l13.319 13.32v-6.442c-.009-2.089 1.788-3.988 3.998-3.998 2.21-.008 3.989 1.905 3.997 3.998v15.992c.006 1.152-.579 2.186-1.45 2.915zM21.323 26.873L8.001 13.549v6.453c.009 2.09-1.789 3.99-4.001 4.001-2.211.007-3.991-1.907-4-4.002V4c-.004-1.152.58-2.186 1.45-2.916C2.155.443 3.04.003 4.001-.001h16.002C22.111-.007 23.995 1.88 24.004 4c.008 2.121-1.893 3.991-4.001 4H13.55l13.322 13.321a3.927 3.927 0 0 1 0 5.551 3.93 3.93 0 0 1-5.549.001z" fill-rule="evenodd" clip-rule="evenodd"/></svg>