<svg xmlns="http://www.w3.org/2000/svg" width="64" height="64"><path d="M62.854 62.857a3.92 3.92 0 0 1-5.535 0L44.032 49.569v6.427c.009 2.084-1.783 3.978-3.988 3.989-2.205.008-3.979-1.9-3.988-3.989V40.043c-.005-1.149.578-2.18 1.445-2.907.703-.639 1.585-1.077 2.543-1.081h15.951c2.102-.006 3.979 1.875 3.988 3.989.009 2.115-1.887 3.98-3.988 3.988h-6.432l13.29 13.29a3.914 3.914 0 0 1 .001 5.535zm-38.9-34.911H7.996c-2.102.006-3.981-1.877-3.99-3.99-.009-2.116 1.888-3.981 3.99-3.99h6.435L1.146 6.679a3.917 3.917 0 0 1 0-5.537 3.92 3.92 0 0 1 5.533 0l13.286 13.289V7.996c-.009-2.085 1.784-3.98 3.989-3.99 2.206-.009 3.981 1.901 3.99 3.99v15.96c.004 1.149-.579 2.181-1.446 2.909-.703.639-1.586 1.077-2.544 1.081z" fill-rule="evenodd" clip-rule="evenodd"/></svg>