<svg xmlns="http://www.w3.org/2000/svg" width="64" height="64"><path d="M56 62.063H8a8 8 0 0 1-8-8V32.979c.335.636.981 1.084 1.75 1.084H62a2 2 0 0 0 2-2v22.001a8 8 0 0 1-8 7.999zm6-32.001H1.75c-.769 0-1.415.448-1.75 1.084v-9.083a8 8 0 0 1 8-8h8V7.937a6 6 0 0 1 6-6h20a6 6 0 0 1 6 6v6.126h8a8 8 0 0 1 8 8v9.999a2 2 0 0 0-2-2zM40 11.063c0-.552-1.194-1-2.667-1H26.667c-1.472 0-2.666.448-2.666 1v2c0 .552 1.194 1 2.666 1h10.667c1.473 0 2.667-.448 2.667-1v-2z" fill-rule="evenodd" clip-rule="evenodd"/></svg>