<svg xmlns="http://www.w3.org/2000/svg" width="64" height="64" viewBox="0 0 64 64"><path d="M32 64C14.327 64 0 49.673 0 32 0 14.327 14.327 0 32 0c17.673 0 32 14.327 32 32 0 17.673-14.327 32-32 32zm18.543-42.548a3.754 3.754 0 0 0-5.288 0l-17.25 17.09-5.252-5.085a3.757 3.757 0 0 0-5.29 0 3.7 3.7 0 0 0 0 5.259l7.214 6.98c.164.294.313.596.564.846.768.762 1.782 1.1 2.786 1.062 1.014.046 2.041-.286 2.815-1.056.277-.276.451-.605.622-.933l19.079-18.902a3.714 3.714 0 0 0 0-5.261z" fill-rule="evenodd" clip-rule="evenodd"/></svg>