<svg xmlns="http://www.w3.org/2000/svg" width="64" height="64" viewBox="0 0 64 64"><path d="M62.936 34.793c-.262.263-.577.424-.887.592L50.95 46.656a3.69 3.69 0 0 1-5.246 0 3.75 3.75 0 0 1 0-5.278l9.236-9.376-9.24-9.382a3.743 3.743 0 0 1 0-5.276 3.703 3.703 0 0 1 5.247 0l11.079 11.249c.321.17.646.34.916.611.768.773 1.1 1.798 1.054 2.809.038 1.002-.299 2.014-1.06 2.78zm-22.714 1.238a4.027 4.027 0 1 1-.001-8.055 4.027 4.027 0 0 1 .001 8.055zm-16.112 0a4.027 4.027 0 1 1-.001-8.055 4.027 4.027 0 0 1 .001 8.055zM9.397 32l9.527 9.528a3.84 3.84 0 0 1 0 5.428 3.832 3.832 0 0 1-5.426 0L2.043 35.496c-.331-.175-.665-.347-.943-.625-.787-.788-1.135-1.829-1.096-2.86-.048-1.04.295-2.094 1.09-2.889.287-.287.63-.469.973-.646L13.502 17.04a3.847 3.847 0 0 1 5.428 0 3.837 3.837 0 0 1 0 5.426L9.397 32z" fill-rule="evenodd" clip-rule="evenodd"/></svg>