<svg xmlns="http://www.w3.org/2000/svg" width="64" height="64"><path d="M62.936 34.79c-.262.263-.577.424-.887.592l-11.098 11.27a3.69 3.69 0 0 1-5.246 0 3.75 3.75 0 0 1 0-5.278l9.236-9.376-9.241-9.381a3.743 3.743 0 0 1 0-5.276 3.702 3.702 0 0 1 5.246 0l11.08 11.249c.321.17.646.34.916.611.768.773 1.1 1.797 1.054 2.809.038 1.002-.299 2.014-1.06 2.78zM20.082 56.168L36.195 7.832h8.056L28.138 56.168h-8.056zM9.397 31.997l9.527 9.527a3.838 3.838 0 0 1-5.426 5.428L2.044 35.493c-.331-.175-.665-.348-.944-.626-.787-.788-1.135-1.829-1.096-2.859-.048-1.04.295-2.094 1.09-2.889.287-.287.63-.468.973-.646l11.435-11.437a3.844 3.844 0 0 1 5.427 0 3.836 3.836 0 0 1 0 5.426l-9.532 9.535z" fill-rule="evenodd" clip-rule="evenodd"/></svg>