<svg xmlns="http://www.w3.org/2000/svg" width="64" height="64"><path d="M32 63.999c-17.673 0-32-14.324-32-31.998 0-17.675 14.327-32 32-32S64 14.326 64 32c0 17.675-14.326 31.999-32 31.999zm.001-55.993c-13.255 0-24 10.745-24 24 0 6.174 2.398 11.747 6.229 16h5.771c0-3.805 1.806-7.156 4.568-9.354l-3.02-11.27a2 2 0 0 1 1.414-2.45l3.864-1.035a2 2 0 0 1 2.45 1.414l2.869 10.709c6.559.08 11.855 5.408 11.855 11.985h5.771c3.831-4.252 6.228-9.825 6.228-16 .001-13.254-10.744-23.999-23.999-23.999z" fill-rule="evenodd" clip-rule="evenodd"/></svg>