<svg xmlns="http://www.w3.org/2000/svg" width="64" height="64" viewBox="0 0 64 64"><path d="M60 47.996H4a4 4 0 0 1-4-3.999V3.995A4 4 0 0 1 4-.003h56a4 4 0 0 1 4 3.998v40.001c0 2.21-1.79 4-4 4zM56.001 9.603c0-.884-.768-1.601-1.714-1.601H9.715c-.947 0-1.714.717-1.714 1.601v28.798c0 .886.768 1.601 1.714 1.601h44.571c.947 0 1.714-.716 1.714-1.601V9.603zm-33.6 46.399h5.6v-8h8v8h5.6c1.325 0 2.4 1.791 2.4 4s-1.075 4-2.4 4h-19.2c-1.326 0-2.4-1.791-2.4-4s1.074-4 2.4-4z" fill-rule="evenodd" clip-rule="evenodd"/></svg>