<svg xmlns="http://www.w3.org/2000/svg" width="64" height="64" viewBox="0 0 64 64"><path d="M62 60.005H0v-22a2 2 0 0 1 2-2h4a2 2 0 0 1 2 2v14h48v-14a2 2 0 0 1 2-2h4a2 2 0 0 1 2 2v22h-2zM35.224 42.297c-.128.184-.202.394-.366.559a3.884 3.884 0 0 1-2.818 1.131c-.014 0-.026.008-.04.008-.014 0-.023-.009-.036-.009a3.886 3.886 0 0 1-2.822-1.13c-.169-.169-.249-.383-.381-.573l-11.619-11.62a3.905 3.905 0 0 1 0-5.524 3.903 3.903 0 0 1 5.524 0L28 30.473V7.997a4.001 4.001 0 1 1 8 0v22.477l5.334-5.335a3.907 3.907 0 0 1 5.524 5.524L35.224 42.297z" fill-rule="evenodd" clip-rule="evenodd"/></svg>