<svg xmlns="http://www.w3.org/2000/svg" width="64" height="64" viewBox="0 0 64 64"><path d="M57.6 46.933h-6.4v8.533a8.533 8.533 0 0 1-8.533 8.533h-8.534v-6.4a6.4 6.4 0 0 0-6.4-6.4h-4.267a6.4 6.4 0 0 0-6.4 6.4V64H8.533A8.533 8.533 0 0 1 0 55.467v-8.533h6.4a6.4 6.4 0 0 0 6.4-6.4v-4.267a6.4 6.4 0 0 0-6.4-6.4H0v-8.533A8.533 8.533 0 0 1 8.533 12.8h8.533V6.4a6.4 6.4 0 0 1 6.4-6.4h4.267a6.4 6.4 0 0 1 6.4 6.4v6.4h8.534a8.533 8.533 0 0 1 8.533 8.533v8.533h6.4a6.4 6.4 0 0 1 6.4 6.4v4.267a6.4 6.4 0 0 1-6.4 6.4z" fill-rule="evenodd" clip-rule="evenodd"/></svg>