<svg xmlns="http://www.w3.org/2000/svg" width="64" height="64"><path d="M64 32s-8.348 24-32 24c-5.794 0-10.657-1.451-14.716-3.626L7.03 62.628l-5.657-5.657 9.31-9.31C3.073 40.729 0 32 0 32S8.214 8 32 8c5.81 0 10.676 1.444 14.735 3.608L56.971 1.372l5.657 5.657-9.282 9.283C60.968 23.248 64 32 64 32zM32 48c8.837 0 16-7.164 16-16 0-2.962-.86-5.701-2.263-8.08l-6.034 6.034c.174.657.297 1.334.297 2.046a8 8 0 0 1-8 8c-.712 0-1.389-.122-2.046-.297l-6.034 6.034C26.299 47.14 29.038 48 32 48zm0-32c-8.836 0-16 7.164-16 16 0 2.962.86 5.701 2.263 8.08l6.034-6.034C24.123 33.389 24 32.712 24 32a8 8 0 0 1 8-8c.712 0 1.389.123 2.046.297l6.034-6.034C37.701 16.86 34.962 16 32 16z" fill-rule="evenodd" clip-rule="evenodd"/></svg>