<svg xmlns="http://www.w3.org/2000/svg" width="64" height="64"><path d="M30 26c.71 0 1.368-.237 2-.538V26h24v8H45.141C46.889 36.867 48 40.255 48 44c0 9.942-7.164 18-16 18-8.228 0-14.927-7.012-15.821-16h7.982c.741 4.564 3.969 8 7.839 8 4.418 0 8-4.477 8-10s-3.582-10-8-10c-1.464 0-2.819.528-4 1.387V34H8v-8h9.996C16.77 23.644 16 20.947 16 18c0-8.837 6.268-16 14-16 6.516 0 11.943 5.111 13.505 11.999H35.08c-1.046-2.348-2.884-4-5.08-4-3.314 0-6 3.582-6 8.001-.001 4.418 2.686 8 6 8z" fill-rule="evenodd" clip-rule="evenodd"/></svg>