<svg xmlns="http://www.w3.org/2000/svg" width="64" height="64" viewBox="0 0 64 64"><path d="M32.001 64C14.328 64 0 49.673 0 32 0 14.327 14.328 0 32.001 0 49.673 0 64 14.327 64 32c0 17.673-14.327 32-31.999 32zM32 8C18.745 8 8.001 18.745 8.001 32S18.745 56 32 56s24-10.745 24-24S45.255 8 32 8zm.001 44c-3.387 0-6.528-.921-9.323-2.407C19.265 46.009 24.754 42.937 32 40c-2.75-1.588-19.195-12.578-16.059-19.817C19.583 15.244 25.394 12 32.001 12c4.524 0 8.651 1.559 12.002 4.092.425 4.631-1.641 7.337-4.422 8.963-8.014-8.381-10.692 2.433-11.58 2.945-1.449.835 0 4 0 4s3.595 3.28 12 4c3.014.258 6.962 1.987 8 4 .795 1.543-.974 3.119-1.024 5.132C43.311 49.309 37.995 52 32.001 52z" fill-rule="evenodd" clip-rule="evenodd"/></svg>