<svg xmlns="http://www.w3.org/2000/svg" width="64" height="64"><path d="M64 32.005c.006 2.104-1.878 3.984-3.994 3.993-2.118.009-3.985-1.889-3.994-3.993v-5.247l-20.91 23.938a4.144 4.144 0 0 1-1.425.926c-1.485.673-3.283.425-4.503-.796L16.478 38.132l-9.35 12.562a4.177 4.177 0 0 1-5.905-5.906l11.632-15.625c.877-.878 2.042-1.245 3.189-1.178a4.014 4.014 0 0 1 2.869 1.178l12.774 12.774L50.83 20.026h-6.799c-2.086.009-3.983-1.786-3.994-3.993-.008-2.207 1.903-3.985 3.994-3.993h15.302c.729-.077 1.455.003 2.134.309.15.065.265.186.406.27.289.173.595.311.844.56.123.124.173.285.278.419.587.688 1 1.523 1.003 2.436v15.971z" fill-rule="evenodd" clip-rule="evenodd"/></svg>