<svg xmlns="http://www.w3.org/2000/svg" width="64" height="64" viewBox="0 0 64 64"><path d="M62.997 50.23c-.105.134-.155.293-.279.416-.25.248-.557.386-.847.557-.14.082-.254.201-.402.265-.68.303-1.406.382-2.135.306H44.031c-2.09-.008-4.002-1.769-3.993-3.956.011-2.187 1.907-3.965 3.993-3.957h6.799L31.683 22.15l-12.82 12.66a4.037 4.037 0 0 1-2.869 1.168c-1.148.066-2.313-.298-3.19-1.168L1.223 19.331a4.11 4.11 0 0 1 0-5.85 4.202 4.202 0 0 1 5.905 0l9.309 12.445L29.174 13.35c1.221-1.211 3.018-1.456 4.503-.789a4.152 4.152 0 0 1 1.424.917l20.911 23.715v-5.198c.008-2.084 1.876-3.965 3.993-3.956 2.116.008 4 1.871 3.994 3.956v15.824c-.003.904-.415 1.73-1.002 2.411z" fill-rule="evenodd" clip-rule="evenodd"/></svg>