<svg xmlns="http://www.w3.org/2000/svg" width="64" height="64" viewBox="0 0 64 64"><path d="M56 60.001H40c-2.209 0-4-1.792-4-4.001V39.999a4 4 0 0 1 4-4h16a4 4 0 0 1 4 4V56a4 4 0 0 1-4 4.001zm0-32.002H40a4 4 0 0 1-4-3.998v-16a4 4 0 0 1 4-4.002h16a4 4 0 0 1 4 4.002v16.001a3.998 3.998 0 0 1-4 3.997zM24 60.001H8A4 4 0 0 1 4 56V39.999a4 4 0 0 1 4-4h16a4 4 0 0 1 4 4V56a4 4 0 0 1-4 4.001zm0-32.002H8c-2.21 0-4-1.79-4-3.998v-16a4 4 0 0 1 4-4.002h16c2.209 0 4 1.792 4 4.002v16.001a3.998 3.998 0 0 1-4 3.997z" fill-rule="evenodd" clip-rule="evenodd"/></svg>