<svg xmlns="http://www.w3.org/2000/svg" width="64" height="64" viewBox="0 0 64 64"><path d="M44.505 29.222a9.373 9.373 0 0 1-1.565 1.996c-.086.086-.186.154-.274.238-.738.695-1.685 1.414-2.815 2.152-.082.049-.143.124-.225.172v-.022a37.995 37.995 0 0 1-4 2.242v8h-8c0-9.468 2.51-14.138 5.884-16.264 3.375-2.125 6.116-3.364 6.116-7.736a8 8 0 0 0-8-8c-3.626 0-6.654 2.428-7.635 5.736l-.039-.017C23.304 19.058 21.961 20 20.375 20a4 4 0 0 1-4-4c0-.52.115-1.01.296-1.465l-.022-.01C18.891 8.397 24.721 4 31.625 4c8.836 0 16 7.163 16 16 0 3.483-1.22 6.611-3.12 9.222zM35.625 60h-8v-8h8v8z" fill-rule="evenodd" clip-rule="evenodd"/></svg>