<svg xmlns="http://www.w3.org/2000/svg" width="64" height="64"><path d="M62 56H18a2 2 0 0 1-2-2v-4a2 2 0 0 1 2-2h44a2 2 0 0 1 2 2v4a2 2 0 0 1-2 2zm0-20H18a2 2 0 0 1-2-2v-4a2 2 0 0 1 2-2h44a2 2 0 0 1 2 2v4a2 2 0 0 1-2 2zm0-20H18a2 2 0 0 1-2-2v-4a2 2 0 0 1 2-2h44a2 2 0 0 1 2 2v4a2 2 0 0 1-2 2zM6 56H2a2 2 0 0 1-2-2v-4a2 2 0 0 1 2-2h4a2 2 0 0 1 2 2v4a2 2 0 0 1-2 2zm0-20H2a2 2 0 0 1-2-2v-4a2 2 0 0 1 2-2h4a2 2 0 0 1 2 2v4a2 2 0 0 1-2 2zm0-20H2a2 2 0 0 1-2-2v-4a2 2 0 0 1 2-2h4a2 2 0 0 1 2 2v4a2 2 0 0 1-2 2z" fill-rule="evenodd" clip-rule="evenodd"/></svg>