<svg xmlns="http://www.w3.org/2000/svg" width="64" height="64" viewBox="0 0 64 64"><path d="M59.987 63.944c-2.128.009-4.004-1.89-4.013-3.994v-6.986C50.126 59.663 41.594 63.953 32 63.953c-16.291 0-29.708-12.201-31.677-27.959h8.115c1.91 11.324 11.695 19.97 23.562 19.97 8.85 0 16.493-4.852 20.644-11.988H39.922c-2.096.009-4.002-1.786-4.013-3.994-.008-2.199 1.898-3.967 3.99-3.988h23.663c-.089.683-.073 1.397-.202 2.066.367.586.638 1.223.641 1.922V59.95c.005 2.105-1.888 3.985-4.014 3.994zM32 8.036c-8.85 0-16.494 4.852-20.644 11.988h12.722c2.097-.009 4.003 1.786 4.014 3.994.008 2.2-1.899 3.967-3.991 3.989H.439c.089-.683.073-1.397.202-2.066-.367-.587-.638-1.225-.641-1.924V4.049C-.006 1.945 1.887.065 4.013.056 6.141.047 8.017 1.945 8.026 4.049v6.987C13.874 4.337 22.406.047 32 .047c16.291 0 29.707 12.201 31.677 27.959h-8.115C53.652 16.682 43.867 8.036 32 8.036z" fill-rule="evenodd" clip-rule="evenodd"/></svg>