<svg xmlns="http://www.w3.org/2000/svg" width="64" height="64" viewBox="0 0 64 64"><path d="M62 44a2 2 0 012 2v4a2 2 0 01-2 2h-7.092A8.103 8.103 0 0152 54.89V62a2 2 0 01-2 2h-4a2 2 0 01-2-2v-6h-8v6a2 2 0 01-2 2h-4a2 2 0 01-2-2v-6h-8v6a2 2 0 01-2 2h-4a2 2 0 01-2-2v-7.11A8.108 8.108 0 019.093 52H2a2 2 0 01-2-2v-4a2 2 0 012-2h6v-8H2a2 2 0 01-2-2v-4a2 2 0 012-2h6v-8H2a2 2 0 01-2-2v-4a2 2 0 012-2h7.093A8.108 8.108 0 0112 9.11V2a2 2 0 012-2h4a2 2 0 012 2v6h8V2a2 2 0 012-2h4a2 2 0 012 2v6h8V2a2 2 0 012-2h4a2 2 0 012 2v7.109a8.127 8.127 0 012.908 2.89H62a2 2 0 012 2v4a2 2 0 01-2 2h-6v8h6a2 2 0 012 2v4a2 2 0 01-2 2h-6v8h6z" fill-rule="evenodd" clip-rule="evenodd"/></svg>