<svg xmlns="http://www.w3.org/2000/svg" width="64" height="64" viewBox="0 0 64 64"><path d="M55.427 27.464L39.442 43.449l-2.906 2.906a8.22 8.22 0 0 1-11.625 0l-2.906-2.906a8.222 8.222 0 0 1 0-11.626l17.438-17.438 5.813 5.813-13.564 13.563c-2.14 2.14-3.355 4.396-2.713 5.038l.582.581c.642.642 2.897-.573 5.037-2.712l4.063-4.063 10.953-10.953a6.165 6.165 0 0 0 0-8.719l-2.906-2.906a6.165 6.165 0 0 0-8.719 0l-7.266 7.266-14.532 14.531c-4.816 4.816-4.816 12.623 0 17.438l2.906 2.906c4.816 4.816 12.622 4.816 17.438 0l14.532-14.532 5.813 5.813-14.532 14.532c-8.026 8.026-21.038 8.026-29.063 0l-2.907-2.906c-8.025-8.026-8.025-21.038 0-29.064l5.813-5.813L32.176 4.213c5.618-5.618 14.726-5.618 20.344 0l2.906 2.906c5.619 5.618 5.619 14.727.001 20.345z" fill-rule="evenodd" clip-rule="evenodd"/></svg>