<svg xmlns="http://www.w3.org/2000/svg" width="64" height="64"><style></style><path d="M32 64a4.72 4.72 0 0 1-3.355-1.388L1.398 35.341c-1.843-1.855-1.843-4.87-.004-6.72l9.982-9.99a1.997 1.997 0 0 1 3.378 1.763 8.194 8.194 0 0 0-.148 1.446c0 4.372 3.556 8.007 7.928 8.007 4.375 0 7.57-3.635 7.57-8.007 0-4.38-3.195-7.942-7.57-7.942a8.18 8.18 0 0 0-1.438.149 1.985 1.985 0 0 1-2.12-1.042 2 2 0 0 1 .359-2.339l9.306-9.319c1.803-1.795 4.92-1.791 6.714-.004l6.814 6.824C43.59 3.743 47.742.53 52.626.53c6.057 0 10.984 4.935 10.984 10.998 0 4.89-3.206 9.045-7.629 10.467l6.618 6.622a4.772 4.772 0 0 1 .002 6.722L35.359 62.611A4.735 4.735 0 0 1 32 64z" id="plugin"/></svg>