<svg xmlns="http://www.w3.org/2000/svg" width="64" height="64" viewBox="0 0 64 64"><path d="M60.236 62.118H3.764A3.764 3.764 0 0 1 0 58.353V5.648a3.764 3.764 0 0 1 3.764-3.766h56.471A3.764 3.764 0 0 1 64 5.648v52.705a3.764 3.764 0 0 1-3.764 3.765zM54.84 9.414H9.161c-.901 0-1.631.722-1.631 1.612v22.652c2.223 1.294 4.772 2.089 7.529 2.089 5.459 0 10.194-2.933 12.835-7.28l.017.018c-.017.02-.041.034-.058.055l5.234 5.121.23.23c-4.104 5.664-10.728 9.387-18.259 9.387-2.657 0-5.173-.522-7.529-1.379v11.06c0 .89.73 1.612 1.631 1.612h45.68c.901 0 1.632-.723 1.632-1.612V33.432c-2.761-3.158-6.771-5.193-11.295-5.193-4.789 0-9.123 2.16-11.882 5.645l-.207-.203-5.176-5.176c4.143-4.802 10.426-7.796 17.265-7.796 4.124 0 7.971 1.132 11.295 3.065V11.027a1.624 1.624 0 0 0-1.632-1.613z" fill-rule="evenodd" clip-rule="evenodd"/></svg>