<svg xmlns="http://www.w3.org/2000/svg" width="64" height="64" viewBox="0 0 64 64"><path d="M32 64.002c-17.674 0-32-14.327-32-32C0 20.756 5.814 10.883 14.587 5.176l3.618 7.236C12.048 16.756 8 23.893 8 32.002c0 13.254 10.745 24 24 24s24-10.746 24-24c0-8.109-4.048-15.246-10.205-19.591l3.618-7.235C58.186 10.883 64 20.756 64 32.002c0 17.673-14.327 32-32 32zm1.333-32.004h-2.667c-1.473 0-2.667-1.791-2.667-4v-24c0-2.209 1.194-4 2.667-4h2.667c1.472 0 2.666 1.791 2.666 4v24c.001 2.209-1.193 4-2.666 4z" fill-rule="evenodd" clip-rule="evenodd"/></svg>