<svg xmlns="http://www.w3.org/2000/svg" width="64" height="64"><path d="M31.997 63.847c-9.801 0-18.53-4.42-24.395-11.328l7.13-4.097c4.348 4.572 10.441 7.462 17.27 7.462 13.257 0 24.003-10.693 24.003-23.885 0-13.191-10.746-23.885-24.003-23.885-8.856 0-16.492 4.83-20.632 11.943h12.632c2.09-.009 3.99 1.78 4.001 3.981.008 2.201-1.907 3.972-4.001 3.981H4.001c-1.152.005-2.187-.577-2.916-1.444C.443 25.874.004 24.994 0 24.038V4.133C-.006 2.036 1.881.161 4.001.152c2.121-.009 3.992 1.884 4 3.981v7.056C13.833 4.468 22.361.154 31.997.154 49.673.154 64 14.412 64 32.001S49.673 63.847 31.997 63.847z" fill-rule="evenodd" clip-rule="evenodd"/></svg>