<svg xmlns="http://www.w3.org/2000/svg" width="64" height="64" viewBox="0 0 64 64"><path d="M63.731 56.362c-.148.948-.867 1.645-1.854 1.645l-.068-.001c-1.012-.032-1.65-.792-1.736-1.768-.068-.716-4.104-18.265-32.12-18.247v9.999a2 2 0 0 1-2 2c-.148 0-.278-.054-.416-.084l.003.242-.499-.405a1.98 1.98 0 0 1-.606-.492L.73 29.989a1.905 1.905 0 0 1-.73-1.5 1.91 1.91 0 0 1 .736-1.496L24.92 6.151l.002.168c.305-.189.644-.326 1.03-.326a2 2 0 0 1 2 2v9.999c11.622.357 22.667 4.743 28.502 11.349 9.495 10.751 7.376 26.371 7.277 27.021z" fill-rule="evenodd" clip-rule="evenodd"/></svg>