<svg xmlns="http://www.w3.org/2000/svg" width="64" height="64"><path d="M60 8.004h-7.089c6.753 5.831 11.088 14.359 11.088 23.993 0 17.675-14.327 32-31.999 32-17.673 0-32-14.325-32-32C0 15.682 12.219 2.247 28 .274v8.132C16.66 10.32 8.001 20.121 8.001 32.002c0 13.255 10.745 24 24 24 13.254 0 24-10.745 24-24 0-8.855-4.853-16.49-12-20.629v8.63c.009 2.09-1.789 3.99-4 4-2.211.008-3.991-1.906-4-4V4.004c-.005-1.152.58-2.186 1.449-2.916C38.155.447 39.04.007 40 .003h20c2.108-.006 3.991 1.881 4 4 .009 2.122-1.893 3.992-4 4.001z" fill-rule="evenodd" clip-rule="evenodd"/></svg>