<svg xmlns="http://www.w3.org/2000/svg" width="64" height="64" viewBox="0 0 64 64"><path d="M62.013 11.461L36.288 32l25.725 20.539c1.893 1.104 2.541 3.549 1.448 5.461a3.935 3.935 0 0 1-5.405 1.463L29.973 37.042l-7.206 5.753c.764 1.578 1.229 3.326 1.229 5.196 0 6.624-5.37 11.994-11.994 11.994S.008 54.615.008 47.991s5.37-11.994 11.994-11.994c1.872 0 3.621.466 5.2 1.231.246-.254.476-.523.796-.709L23.658 32l-5.661-4.52c-.32-.186-.55-.455-.796-.709-1.579.765-3.328 1.231-5.2 1.231-6.624 0-11.994-5.37-11.994-11.994S5.377 4.015 12.001 4.015s11.994 5.37 11.994 11.993c0 1.871-.465 3.619-1.229 5.196l7.206 5.754L58.056 4.536a3.934 3.934 0 0 1 5.405 1.463c1.093 1.913.445 4.358-1.448 5.462zM16 43.994H8.004v7.996H16v-7.996zm0-31.983H8.004v7.996H16v-7.996z" fill-rule="evenodd" clip-rule="evenodd"/></svg>