<svg xmlns="http://www.w3.org/2000/svg" width="64" height="64" viewBox="0 0 64 64"><path d="M59.421 56.624l-2.797 2.797a1.977 1.977 0 0 1-2.797 0L41.451 47.045c-3.879 2.761-8.593 4.422-13.717 4.422C14.627 51.468 4 40.842 4 27.734S14.627 4 27.734 4s23.734 10.626 23.734 23.734c0 5.124-1.661 9.838-4.423 13.717L59.42 53.826c.773.773.773 2.025.001 2.798zM27.734 11.912c-8.738 0-15.823 7.084-15.823 15.823 0 8.738 7.084 15.823 15.823 15.823s15.823-7.084 15.823-15.823c0-8.74-7.084-15.823-15.823-15.823z" fill-rule="evenodd" clip-rule="evenodd"/></svg>