<svg xmlns="http://www.w3.org/2000/svg" width="64" height="64" viewBox="0 0 64 64"><path d="M62 36h-6.362c-.614 3.638-2.067 6.978-4.122 9.858l4.527 4.527a2 2 0 0 1 0 2.828l-2.828 2.828a2 2 0 0 1-2.828 0l-4.54-4.54c-2.88 2.039-6.216 3.482-9.845 4.095V62a2 2 0 0 1-2 2h-4a2 2 0 0 1-2-2v-6.403c-3.63-.612-6.966-2.056-9.846-4.095l-4.539 4.54a2 2 0 0 1-2.828 0L7.96 53.214a2 2 0 0 1 0-2.828l4.527-4.527c-2.056-2.88-3.508-6.22-4.122-9.858H2a2 2 0 0 1-2-2v-4a2 2 0 0 1 2-2h6.362c.614-3.638 2.067-6.979 4.123-9.858l-4.527-4.527a2 2 0 0 1 0-2.828l2.829-2.829a2 2 0 0 1 2.828 0l4.54 4.54C21.035 10.46 24.37 9.017 28 8.405V2a2 2 0 0 1 2-2h4a2 2 0 0 1 2 2v6.403c3.63.612 6.966 2.055 9.845 4.094l4.54-4.54a2 2 0 0 1 2.828 0l2.828 2.829a2 2 0 0 1 0 2.828l-4.527 4.527c2.056 2.879 3.508 6.22 4.122 9.858H62a2 2 0 0 1 2 2v4A2 2 0 0 1 62 36zM32 20c-6.628 0-12 5.372-12 12s5.372 12 12 12c6.627 0 12-5.373 12-12 0-6.628-5.373-12-12-12z" fill-rule="evenodd" clip-rule="evenodd"/></svg>