<svg xmlns="http://www.w3.org/2000/svg" width="64" height="64" viewBox="0 0 64 64"><path d="M59.817 8H31.818a2 2 0 0 1-2-2V2a2 2 0 0 1 2-2h27.999a2 2 0 0 1 2 2v4c.001 1.105-.895 2-2 2zM32.355 50.716L21.55 61.286C21.01 62.856 19.561 64 17.809 64c-1.732 0-3.17-1.111-3.727-2.647L3.274 50.712a3.713 3.713 0 0 1 0-5.26 3.752 3.752 0 0 1 5.288 0l5.247 5.166V4a4.002 4.002 0 0 1 8.001 0v46.6l5.255-5.142a3.757 3.757 0 0 1 5.29 0 3.698 3.698 0 0 1 0 5.258zM29.818 38v-4a2 2 0 0 1 2-2h12a2 2 0 0 1 2 2v4a2 2 0 0 1-2 2h-12a2 2 0 0 1-2-2zm0-16v-4a2 2 0 0 1 2-2h20a2 2 0 0 1 2 2v4a2 2 0 0 1-2 2h-20a2 2 0 0 1-2-2z" fill-rule="evenodd" clip-rule="evenodd"/></svg>