<svg xmlns="http://www.w3.org/2000/svg" width="64" height="64"><path d="M59.818 40h-28a2 2 0 0 1-2-2v-4a2 2 0 0 1 2-2h28a2 2 0 0 1 2 2v4a2 2 0 0 1-2 2zm-8-16h-20a2 2 0 0 1-2-2v-4a2 2 0 0 1 2-2h20a2 2 0 0 1 2 2v4a2 2 0 0 1-2 2zm-8-16h-12a2 2 0 0 1-2-2V2a2 2 0 0 1 2-2h12a2 2 0 0 1 2 2v4a2 2 0 0 1-2 2zM32.355 50.716L21.55 61.286C21.009 62.856 19.561 64 17.809 64c-1.732 0-3.17-1.111-3.727-2.647L3.275 50.712a3.713 3.713 0 0 1 0-5.26 3.753 3.753 0 0 1 5.288.001l5.247 5.166V4a4.002 4.002 0 0 1 8.001 0v46.6l5.254-5.142a3.757 3.757 0 0 1 5.29 0 3.698 3.698 0 0 1 0 5.258z" fill-rule="evenodd" clip-rule="evenodd"/></svg>