<svg xmlns="http://www.w3.org/2000/svg" width="64" height="64" viewBox="0 0 64 64"><path d="M59.999 36.003V52c0 2.21-1.79 4-4 4H8a4 4 0 0 1-4-4V12.001A4 4 0 0 1 8 8h48a4 4 0 0 1 4 4.001v16.002l-.001 8zM28 48.002h8V36.003h-8v11.999zM12 46.29c0 .945.776 1.713 1.733 1.713H20v-12h-8V46.29zm40-28.574c0-.945-.777-1.713-1.734-1.713H13.734c-.958 0-1.733.768-1.733 1.713v10.288h8v-12h8v12h8v-12h8v12h8V17.716zm0 18.287h-8v11.999h6.266c.957 0 1.734-.768 1.734-1.713V36.003z" fill-rule="evenodd" clip-rule="evenodd"/></svg>