<svg xmlns="http://www.w3.org/2000/svg" width="64" height="64" viewBox="0 0 64 64"><path d="M59.055 46.34l4.346-4.346c.8-.8.8-2.097 0-2.897L60.503 36.2c-.8-.8-2.097-.8-2.897 0l-4.345 4.345-4.346-4.345c-.8-.8-2.097-.8-2.897 0l-2.897 2.897c-.8.8-.8 2.097 0 2.897l4.345 4.346-4.345 4.345c-.8.8-.8 2.097 0 2.897l2.897 2.897c.8.8 2.097.8 2.897 0l4.346-4.346 4.345 4.346c.8.8 2.097.8 2.897 0l2.897-2.897c.8-.8.8-2.097 0-2.897l-4.345-4.345zm-9.891-28.679V5.37H0v12.291h8.195v-4.097h12.29v36.873h-8.193v8.193h24.581v-8.193h-8.194V13.564H40.97v4.097z" fill-rule="evenodd" clip-rule="evenodd"/></svg>