<svg xmlns="http://www.w3.org/2000/svg" width="64" height="64" viewBox="0 0 64 64"><path d="M62 20h-6v6a2 2 0 0 1-2 2h-4a2 2 0 0 1-2-2v-6h-6a2 2 0 0 1-2-2v-4a2 2 0 0 1 2-2h6V6a2 2 0 0 1 2-2h4a2 2 0 0 1 2 2v6h6a2 2 0 0 1 2 2v4a2 2 0 0 1-2 2zM40 56c0 1.37-.14 2.707-.403 4H.403A20.047 20.047 0 0 1 0 56c0-8.449 5.256-15.637 12.663-18.567C9.844 35.237 8 31.849 8 28c0-6.627 5.373-12 12-12 6.628 0 12 5.373 12 12 0 3.849-1.845 7.237-4.663 9.433C34.744 40.363 40 47.551 40 56z" fill-rule="evenodd" clip-rule="evenodd"/></svg>