<svg xmlns="http://www.w3.org/2000/svg" width="64" height="64"><path d="M27.337 33.433C30.155 31.237 32 27.849 32 24c0-6.628-5.373-12-12-12-6.628 0-12 5.373-12 12 0 3.849 1.845 7.237 4.663 9.433C5.256 36.363 0 43.551 0 52c0 1.37.14 2.707.403 4h39.194c.262-1.293.403-2.63.403-4 0-8.449-5.256-15.637-12.663-18.567zm25.414-8.098C54.736 23.508 56 20.911 56 18c0-5.523-4.477-10-10-10s-10 4.477-10 10c0 2.926 1.279 5.534 3.282 7.363a18.41 18.41 0 0 0-5.115 3.17C42.09 30.42 48 37.5 48 46c0 .685-.127 1.334-.201 2h15.1C63.568 46.115 64 44.115 64 42c0-7.55-4.659-13.992-11.249-16.665z" fill-rule="evenodd" clip-rule="evenodd"/></svg>