<svg xmlns="http://www.w3.org/2000/svg" width="64" height="64" viewBox="0 0 64 64"><path d="M59.421 56.623l-2.797 2.797a1.977 1.977 0 0 1-2.797 0L41.452 47.045c-3.879 2.761-8.593 4.422-13.717 4.422C14.626 51.468 4 40.842 4 27.734S14.626 4 27.734 4s23.734 10.626 23.734 23.734c0 5.124-1.661 9.838-4.422 13.717l12.375 12.375a1.978 1.978 0 0 1 0 2.797zM27.734 11.911c-8.738 0-15.823 7.084-15.823 15.823s7.084 15.823 15.823 15.823 15.823-7.084 15.823-15.823-7.084-15.823-15.823-15.823zM17.845 31.69a1.977 1.977 0 0 1-1.977-1.978v-3.956c0-1.092.885-1.977 1.977-1.977h19.779c1.092 0 1.978.885 1.978 1.977v3.956a1.978 1.978 0 0 1-1.978 1.978H17.845z" fill-rule="evenodd" clip-rule="evenodd"/></svg>