<svg xmlns="http://www.w3.org/2000/svg" width="24" height="24" viewBox="0 0 24 24"><path d="M19.148 6.971A2.008 2.008 0 0 0 17.434 6H16V5a1 1 0 0 0-1-1H4c-1.103 0-2 .897-2 2v10c0 .77.441 1.431 1.08 1.766-.051.237-.08.482-.08.734C3 20.43 4.57 22 6.5 22s3.5-1.57 3.5-3.5c0-.171-.026-.335-.051-.5h3.102c-.025.165-.051.329-.051.5 0 1.93 1.57 3.5 3.5 3.5s3.5-1.57 3.5-3.5c0-.171-.026-.335-.051-.5H20c1.103 0 2-.897 2-2v-4a.997.997 0 0 0-.143-.515l-2.709-4.514zM17.434 8l1.8 3H16V8h1.434zM4 6h10v10H8.941a3.48 3.48 0 0 0-4.882 0H4V6zm2.5 14c-.827 0-1.5-.673-1.5-1.5S5.673 17 6.5 17s1.5.673 1.5 1.5S7.327 20 6.5 20zm10 0c-.827 0-1.5-.673-1.5-1.5s.673-1.5 1.5-1.5 1.5.673 1.5 1.5-.673 1.5-1.5 1.5zm2.441-4a3.481 3.481 0 0 0-2.441-1c-.171 0-.335.027-.5.051V13h4v3h-1.059z"/><path d="M8 14h2v-2h2v-2h-2V8H8v2H6v2h2z"/></svg>