<svg xmlns="http://www.w3.org/2000/svg" width="24" height="24" viewBox="0 0 24 24"><path d="M21.004 7.975V6c0-2.206-1.794-4-4-4h-10c-2.206 0-4 1.794-4 4v1.998l-.076.004A1 1 0 0 0 2 9v2a1 1 0 0 0 1 1h.004v6c0 1.103.897 2 2 2v1a1 1 0 0 0 1 1h2a1 1 0 0 0 1-1v-1h6v1a1 1 0 0 0 1 1h2a1 1 0 0 0 1-1v-1c1.103 0 2-.897 2-2v-6a1 1 0 0 0 1-1V9.062a1.006 1.006 0 0 0-.072-.455c-.203-.487-.635-.604-.928-.632zM5.004 8h6v4h-6V8zm8 0h6v3l.001.004V12h-6.001V8zm-6-4h10c1.103 0 2 .897 2 2h-14c0-1.103.897-2 2-2zm11 14h-13v-4h14.001l.001 4h-1.002z"/><path d="M6.004 15h2v2h-2zm10 0h2v2h-2z"/></svg>