<svg xmlns="http://www.w3.org/2000/svg" width="24" height="24" viewBox="0 0 24 24"><path fill="none" d="M18.613 10l-1.105-3.316A1 1 0 0 0 16.559 6H7.441a1 1 0 0 0-.949.684L5.387 10h13.226zm1.389 6L20 12H4v4h16.002zM7 15H5v-2h2v2zm12 0h-2v-2h2v2z"/><path d="M20.772 10.156l-1.368-4.105A2.995 2.995 0 0 0 16.559 4H7.441a2.995 2.995 0 0 0-2.845 2.051l-1.368 4.105A2.003 2.003 0 0 0 2 12v4c0 .736.405 1.375 1 1.722V20a1 1 0 0 0 1 1h1a1 1 0 0 0 1-1v-2h12v2a1 1 0 0 0 1 1h1a1 1 0 0 0 1-1v-2.278c.595-.347 1-.985 1-1.722v-4c0-.829-.508-1.541-1.228-1.844zM5 16H4v-4h16l.002 4H5zM7.441 6h9.117c.431 0 .813.274.949.684L18.613 10H5.387l1.105-3.316A1 1 0 0 1 7.441 6z"/><path d="M5 13h2v2H5zm12 0h2v2h-2z"/></svg>