<svg xmlns="http://www.w3.org/2000/svg" width="24" height="24" viewBox="0 0 24 24"><path d="M19.08 4.938a10.454 10.454 0 0 0-.605-.55l-.126-.146-.02.017A9.914 9.914 0 0 0 12.01 2a9.941 9.941 0 0 0-7.072 2.938C1.385 8.49 1.08 14.065 4 17.979V18h.016c.281.375.581.739.922 1.08 1.895 1.895 4.406 2.938 7.072 2.938s5.177-1.043 7.07-2.937c3.899-3.898 3.899-10.243 0-14.143zm-6.424 4.196a1.963 1.963 0 0 0-.648-.117A1.992 1.992 0 1 0 14 11.007c0-.123-.015-.242-.036-.359L18.23 6.98A7.947 7.947 0 0 1 19.933 11H18v2h1.937a7.968 7.968 0 0 1-1.003 3H5.085a7.97 7.97 0 0 1-1.004-3H6v-2H4.084a7.955 7.955 0 0 1 1.609-3.892L7.05 8.465l1.414-1.414-1.358-1.358A7.93 7.93 0 0 1 11 4.071V6h2V4.068a7.907 7.907 0 0 1 3.776 1.524l-4.12 3.542z"/></svg>