<svg xmlns="http://www.w3.org/2000/svg" width="24" height="24" viewBox="0 0 24 24" viewBox="0 0 24 24"><path d="M19.08 4.938A9.934 9.934 0 0 0 12.01 2a9.941 9.941 0 0 0-7.072 2.938c-3.899 3.898-3.899 10.243 0 14.142 1.895 1.895 4.406 2.938 7.072 2.938s5.177-1.043 7.07-2.937c3.899-3.898 3.899-10.243 0-14.143zM18.934 16H5.085a7.97 7.97 0 0 1-1.004-3H6v-2H4.084a7.955 7.955 0 0 1 1.609-3.892L7.05 8.465l1.414-1.414-1.358-1.358A7.93 7.93 0 0 1 11 4.071V6h2V4.068a7.92 7.92 0 0 1 4.37 2.015l-4.714 4.051a1.963 1.963 0 0 0-.648-.117A1.992 1.992 0 1 0 14 12.007c0-.123-.015-.242-.036-.359l4.717-4.054A7.953 7.953 0 0 1 19.934 11H18v2h1.937a7.968 7.968 0 0 1-1.003 3z"/></svg>