<svg xmlns="http://www.w3.org/2000/svg" width="24" height="24" viewBox="0 0 24 24"><path d="M17.813 3.838A2 2 0 0 0 16.187 3H7.813c-.644 0-1.252.313-1.667.899l-4 6.581a.999.999 0 0 0 .111 1.188l9 10c.016.018.039.024.056.041.067.064.141.117.223.161.032.018.062.037.097.051.114.047.237.079.367.079s.253-.032.368-.078c.035-.014.064-.033.097-.051.082-.044.155-.097.223-.161.017-.017.04-.023.056-.041l9-10a.997.997 0 0 0 .111-1.188l-4.042-6.643zM19.222 10h-3.467l-1.442-5.048 1.833-.014L19.222 10zM8.256 12l1.505 5.018L5.245 12h3.011zm3.99-7l1.428 5h-3.348l1.428-5h.492zm1.41 7L12 17.52 10.344 12h3.312zm2.088 0h3.01l-4.515 5.017L15.744 12zM7.813 5l1.864-.014L8.245 10H4.777l3.036-5z"/></svg>