<svg xmlns="http://www.w3.org/2000/svg" width="24" height="24" viewBox="0 0 24 24"><path fill="none" d="M18.045 7.631l-1.587-1.586 1.586-1.586 1.586 1.586zM15.045 7.459l-5.063 5.062-.529 2.114 2.114-.528 5.064-5.063z"/><path d="M16.631 3.044l-8.259 8.258a1.003 1.003 0 0 0-.263.464l-1 4a1 1 0 0 0 1.212 1.213l4-1c.176-.044.337-.135.465-.263l8.259-8.258c.378-.378.586-.88.586-1.414s-.208-1.036-.586-1.414l-1.586-1.586c-.756-.755-2.072-.755-2.828 0zm-5.064 11.063l-2.114.528.529-2.114 5.063-5.062 1.586 1.585-5.064 5.063zm6.478-6.477l-1.586-1.585 1.586-1.586 1.586 1.586-1.586 1.585z"/><path d="M5 21h14c1.103 0 2-.897 2-2v-8.668l-2 2V19H8.158c-.026 0-.053.01-.079.01-.033 0-.066-.009-.1-.01H5V5h6.847l2-2H5c-1.103 0-2 .897-2 2v14c0 1.103.897 2 2 2z"/></svg>