<svg xmlns="http://www.w3.org/2000/svg" width="24" height="24" viewBox="0 0 24 24"><path fill="none" d="M5.081 11.606A.999.999 0 0 1 6 11h12V8h-8a.997.997 0 0 1-.616-.213L7.1 6H4v8.129l1.081-2.523z"/><path fill="none" d="M4.517 18h12.824l2.142-5H6.659z"/><path d="M2.165 19.551c.186.28.499.449.835.449h15c.4 0 .762-.238.919-.606l3-7A.998.998 0 0 0 21 11h-1V8c0-1.103-.897-2-2-2h-7.655L8.061 4.213A1 1 0 0 0 7.444 4H4c-1.103 0-2 .897-2 2v13h.007a1 1 0 0 0 .158.551zM17.341 18H4.517l2.143-5h12.824l-2.143 5zM7.1 6l2.284 1.787A.997.997 0 0 0 10 8h8v3H6c-.4 0-.762.238-.919.606L4 14.129V6h3.1z"/></svg>