<svg xmlns="http://www.w3.org/2000/svg" width="24" height="24" viewBox="0 0 24 24"><path fill="none" d="M19.72 12l-1.5-6H6.693l-2.25 6zM4 14v4h16.002L20 14H4zm12 3h-2v-2h2v2zm3 0h-2v-2h2v2z"/><path d="M21.97 12.758l-1.811-7.242A1.995 1.995 0 0 0 18.219 4H6.693c-.828 0-1.581.521-1.873 1.297l-2.757 7.352.007.003A.981.981 0 0 0 2 13v5c0 1.103.897 2 2 2h16c1.103 0 2-.897 2-2v-5c0-.084-.028-.159-.048-.238l.018-.004zM6.693 6H18.22l1.5 6H4.443l2.25-6zM4 18v-4h16l.002 4H4z"/><path d="M17 15h2v2h-2zm-3 0h2v2h-2z"/></svg>