<svg xmlns="http://www.w3.org/2000/svg" width="24" height="24" viewBox="0 0 24 24"><path d="M12 6a3.939 3.939 0 0 0-3.934 3.934h2C10.066 8.867 10.934 8 12 8c1.066 0 1.934.867 1.934 1.934 0 .598-.482 1.032-1.217 1.626a9.179 9.179 0 0 0-.691.599c-.997.997-1.026 2.056-1.026 2.174v.167h2v-.133c.001-.016.033-.385.441-.793.149-.15.338-.299.535-.458.778-.631 1.957-1.584 1.957-3.182A3.937 3.937 0 0 0 12 6zm-1 10h2v2h-2z"/><path d="M12 2C6.486 2 2 6.486 2 12s4.486 10 10 10 10-4.486 10-10S17.514 2 12 2zm0 18c-4.411 0-8-3.589-8-8s3.589-8 8-8 8 3.589 8 8-3.589 8-8 8z"/></svg>