<svg xmlns="http://www.w3.org/2000/svg" width="24" height="24" viewBox="0 0 24 24"><path fill="none" d="M4 12h16.002v7H4zm15.535-2h.466L20 6h-3.132zM4.465 6H4v4h3.132zm10 0h-2.597l2.667 4h2.597zm-4.93 4h2.597L9.465 6H6.868z"/><path d="M4 21h16c1.103 0 2-.897 2-2V6c0-1.103-.897-2-2-2H4c-1.103 0-2 .897-2 2v13c0 1.103.897 2 2 2zm0-2v-7h16l.002 7H4zm10.535-9l-2.667-4h2.597l2.667 4h-2.597zm-2.403 0H9.535L6.868 6h2.597l2.667 4zm7.869 0c-.001 0-.001 0 0 0h-.466l-2.667-4H20l.001 4zM4 6h.465l2.667 4H4V6z"/></svg>