<svg xmlns="http://www.w3.org/2000/svg" width="24" height="24" viewBox="0 0 24 24"><path fill="none" d="M12.001 19.586H12v1zM4 4v7.586l8 8L19.586 12l-8-8H4zm3.507 5.011a1.505 1.505 0 1 1-.003-3.01 1.505 1.505 0 0 1 .003 3.01z"/><path d="M12.707 2.293A.996.996 0 0 0 12 2H3a1 1 0 0 0-1 1v9c0 .266.105.52.293.707L10.586 21c.378.378.88.586 1.414.586s1.036-.208 1.414-.586L21 13.414c.378-.378.586-.88.586-1.414s-.208-1.036-.586-1.414l-8.293-8.293zM12 19.586v1-1l-8-8V4h7.586l8 8L12 19.586z"/><circle cx="7.507" cy="7.505" r="1.505"/></svg>