<svg xmlns="http://www.w3.org/2000/svg" width="24" height="24" viewBox="0 0 24 24"><path fill="none" d="M15.005 13.995h-9v-4h9v-2h-11v8h11z"/><path d="M20.005 5.995h-1v2h1v8h-1v2h1c1.103 0 2-.897 2-2v-8c0-1.102-.898-2-2-2z"/><path d="M17.005 6.02c.013-.339.22-2.024 3-2.024v-2c-1.986 0-3.237.67-3.993 1.511-.752-.841-2.007-1.511-4.007-1.511v2c2.8 0 2.99 1.678 3 2h-11c-1.103 0-2 .897-2 2v8c0 1.103.897 2 2 2h11c0 .094-.048 2-3 2v2c2.003 0 3.257-.673 4.01-1.517.049.055.089.111.143.165.895.897 2.189 1.352 3.848 1.352v-2c-2.803 0-2.991-1.676-3-1.998V6.02zm-13 1.975h11v2h-9v4h9v2h-11v-8z"/></svg>