<svg xmlns="http://www.w3.org/2000/svg" width="24" height="24" viewBox="0 0 24 24"><path d="M20.531 9.988a1.002 1.002 0 0 0-.808-.68l-4.716-.686-2.111-4.275c-.336-.684-1.457-.684-1.793 0L8.992 8.623l-4.716.686a1 1 0 0 0-.555 1.705l3.413 3.328-.804 4.699a.997.997 0 1 0 1.451 1.054L12 17.877l4.218 2.218a1 1 0 0 0 1.451-1.054l-.804-4.699 3.413-3.328c.273-.266.37-.663.253-1.026zm-5.814 3.655l.4 2.34.239 1.399-2.187-1.149L12 15.617l-1.17.615-2.187 1.149.239-1.399.4-2.34-2.715-2.646.711-.104 3.041-.441 1.274-2.581.407-.821.405.821 1.274 2.581 3.041.441.711.104-2.714 2.647z"/><path d="M20.531 9.988a1.002 1.002 0 0 0-.808-.68l-4.716-.686-2.111-4.275c-.336-.684-1.457-.684-1.793 0L8.992 8.623l-4.716.686a1 1 0 0 0-.555 1.705l3.413 3.328-.804 4.699a.997.997 0 1 0 1.451 1.054L12 17.877l4.218 2.218a1 1 0 0 0 1.451-1.054l-.804-4.699 3.413-3.328c.273-.266.37-.663.253-1.026zm-5.814 3.655l.4 2.34.239 1.399-2.187-1.149L12 15.617l-1.17.615-2.187 1.149.239-1.399.4-2.34-2.715-2.646.711-.104 3.041-.441 1.274-2.581.407-.821.405.821 1.274 2.581 3.041.441.711.104-2.714 2.647z"/></svg>