<svg xmlns="http://www.w3.org/2000/svg" width="24" height="24" viewBox="0 0 24 24"><circle cx="19.003" cy="4.998" r="2.002"/><path d="M18.875 13.219c-.567.453-.978.781-1.878.781-.899 0-1.288-.311-1.876-.781-.68-.543-1.525-1.219-3.127-1.219-1.601 0-2.445.676-3.124 1.219-.588.47-.975.781-1.875.781-.898 0-1.286-.311-1.873-.78C4.443 12.676 3.6 12 2 12v2c.897 0 1.285.311 1.872.78.679.544 1.523 1.22 3.123 1.22s2.446-.676 3.125-1.22c.587-.47.976-.78 1.874-.78.9 0 1.311.328 1.878.781.679.543 1.524 1.219 3.125 1.219 1.602 0 2.447-.676 3.127-1.219.588-.47.977-.781 1.876-.781v-2c-1.601 0-2.446.676-3.125 1.219zM16.997 19c-.899 0-1.288-.311-1.876-.781-.68-.543-1.525-1.219-3.127-1.219-1.601 0-2.445.676-3.124 1.219-.588.47-.975.781-1.875.781-.898 0-1.286-.311-1.873-.78C4.443 17.676 3.6 17 2 17v2c.897 0 1.285.311 1.872.78.679.544 1.523 1.22 3.123 1.22s2.446-.676 3.125-1.22c.587-.47.976-.78 1.874-.78.9 0 1.311.328 1.878.781.679.543 1.524 1.219 3.125 1.219 1.602 0 2.447-.676 3.127-1.219.588-.47.977-.781 1.876-.781v-2c-1.601 0-2.446.676-3.125 1.219-.567.453-.978.781-1.878.781zM9.535 7h3.184l-2.794 3.492c.434-.23.964-.409 1.635-.466l-.037.037a5.28 5.28 0 0 1 .63-.052c.973.029 1.662.308 2.202.646l1.284-1.605 2.722 2.723c.283-.139.526-.332.808-.557.25-.2.524-.418.85-.614l-2.815-2.807.005-.005-2.5-2.5A1.007 1.007 0 0 0 14 5H9c-.334 0-.646.167-.832.445l-2 3 1.664 1.109L9.535 7z"/></svg>