<svg xmlns="http://www.w3.org/2000/svg" width="24" height="24" viewBox="0 0 24 24"><path fill="none" d="M18.382 10l-1.724-3.447A.993.993 0 0 0 15.764 6H8.236a.993.993 0 0 0-.894.553L5.618 10h12.764zm1.62 6L20 12H4v4h16.002zM7 15H5v-2h2v2zm12 0h-2v-2h2v2z"/><path d="M20.682 10.128l-2.234-4.47A2.987 2.987 0 0 0 15.764 4H14V3a1 1 0 0 0-1-1h-2a1 1 0 0 0-1 1v1H8.236a2.985 2.985 0 0 0-2.683 1.658l-2.234 4.47A1.997 1.997 0 0 0 2 12v4c0 .736.405 1.375 1 1.722V20a1 1 0 0 0 1 1h1a1 1 0 0 0 1-1v-2h12v2a1 1 0 0 0 1 1h1a1 1 0 0 0 1-1v-2.278c.595-.347 1-.985 1-1.722v-4c0-.862-.552-1.592-1.318-1.872zM5 16H4v-4h16l.002 4H5zm2.342-9.447A.993.993 0 0 1 8.236 6h7.527c.382 0 .725.212.895.553L18.382 10H5.618l1.724-3.447z"/><path d="M5 13h2v2H5zm12 0h2v2h-2z"/></svg>