<svg xmlns="http://www.w3.org/2000/svg" width="24" height="24" viewBox="0 0 24 24"><circle fill="none" cx="16.5" cy="18.5" r="1.5"/><path fill="none" d="M4 6v10h.059c.631-.616 1.491-1 2.441-1s1.811.384 2.441 1H13V6H4z"/><circle fill="none" cx="6.5" cy="18.5" r="1.5"/><path fill="none" d="M15 13v2.352A3.451 3.451 0 0 1 16.5 15c.95 0 1.811.384 2.441 1H20v-3h-5zm2.434-5H15v3h4.233z"/><path d="M19.148 6.971A2.008 2.008 0 0 0 17.434 6H15V5a1 1 0 0 0-1-1H4c-1.103 0-2 .897-2 2v10c0 .77.441 1.432 1.081 1.766A3.418 3.418 0 0 0 3 18.5C3 20.43 4.57 22 6.5 22s3.5-1.57 3.5-3.5c0-.171-.026-.335-.051-.5h3.102c-.025.165-.051.329-.051.5 0 1.93 1.57 3.5 3.5 3.5s3.5-1.57 3.5-3.5c0-.171-.026-.335-.051-.5H20c1.103 0 2-.897 2-2v-4a.995.995 0 0 0-.143-.515l-2.709-4.514zM15 8h2.434l1.8 3H15V8zM6.5 20c-.827 0-1.5-.673-1.5-1.5S5.673 17 6.5 17s1.5.673 1.5 1.5S7.327 20 6.5 20zm2.441-4c-.63-.616-1.491-1-2.441-1s-1.811.384-2.441 1H4V6h9v10H8.941zm7.559 4c-.827 0-1.5-.673-1.5-1.5s.673-1.5 1.5-1.5 1.5.673 1.5 1.5-.673 1.5-1.5 1.5zm2.441-4a3.486 3.486 0 0 0-2.441-1c-.539 0-1.044.133-1.5.352V13h5v3h-1.059z"/></svg>