<svg xmlns="http://www.w3.org/2000/svg" width="24" height="24" viewBox="0 0 24 24"><circle cx="13" cy="4" r="2"/><path d="M13.978 12.27c.245.368.611.647 1.031.787l2.675.892.633-1.896-2.675-.892-1.663-2.495a2.016 2.016 0 0 0-.769-.679l-1.434-.717a1.989 1.989 0 0 0-1.378-.149l-3.193.797a2.002 2.002 0 0 0-1.306 1.046l-1.794 3.589 1.789.895 1.794-3.589 2.223-.556-1.821 8.423-2.766 2.537 1.352 1.475L9.441 19.2c.307-.281.515-.645.604-1.052l.533-2.465 2.517 1.888.925 4.625 1.961-.393-.925-4.627a2 2 0 0 0-.762-1.206l-2.171-1.628.647-3.885 1.208 1.813z"/></svg>