<svg xmlns="http://www.w3.org/2000/svg" width="24" height="24" viewBox="0 0 24 24"><path d="M3 18.878L5.122 21c.378.378.88.586 1.414.586S7.572 21.378 7.95 21l4.336-4.336a7.495 7.495 0 0 0 2.217.333 7.446 7.446 0 0 0 5.302-2.195 7.484 7.484 0 0 0 1.632-8.158.998.998 0 0 0-1.632-.327l-3.183 3.182-2.121-2.122 3.182-3.182a1 1 0 0 0-.328-1.632A7.469 7.469 0 0 0 14.499 2c-2.003 0-3.886.78-5.301 2.196a7.479 7.479 0 0 0-1.862 7.518L3 16.05a2.001 2.001 0 0 0 0 2.828zm6.198-6.197a1 1 0 0 0 .218-1.087 5.486 5.486 0 0 1 1.196-5.983 5.457 5.457 0 0 1 4.413-1.586L12.38 6.67a.999.999 0 0 0 0 1.414l3.535 3.536a.997.997 0 0 0 1.414 0l2.648-2.648a5.49 5.49 0 0 1-1.587 4.416c-1.55 1.55-3.964 2.027-5.984 1.196a1.002 1.002 0 0 0-1.087.218l-4.783 4.784h.001l-.001 1v-1l-2.122-2.122 4.784-4.783z"/></svg>