<svg width="64" height="64" viewBox="0 0 1024 1024" xmlns="http://www.w3.org/2000/svg"><path d="M512 77.488c-251.756 0-455.845 204.089-455.845 455.845S260.244 989.178 512 989.178c251.756 0 455.845-204.089 455.845-455.845-.525-251.545-204.3-455.32-455.795-455.845H512zm0 951.329c-273.648 0-495.484-221.836-495.484-495.484S238.352 37.849 512 37.849c273.648 0 495.484 221.836 495.484 495.484v.661c0 273.283-221.54 494.823-494.823 494.823h-.698.037zm0 16.516C229.817 1043.878 1.454 815.515.001 533.472L0 533.333C1.455 251.15 229.818 22.787 511.861 21.334l.139-.001c282.183 1.455 510.546 229.818 511.999 511.861l.001.139c-1.455 282.183-229.818 510.546-511.861 511.999l-.139.001zm0-990.968c-264.527 0-478.968 214.441-478.968 478.968S247.473 1012.301 512 1012.301c264.527 0 478.968-214.441 478.968-478.968-.188-264.451-214.517-478.78-478.95-478.968h-.017zm0 951.329c-260.878 0-472.361-211.483-472.361-472.361S251.122 60.972 512 60.972c261.197.863 472.926 211.433 475.662 472.102l.002.26c-2.738 260.928-214.468 471.498-475.582 472.361h-.083zm0-911.69c-242.635 0-439.329 196.694-439.329 439.329S269.365 972.662 512 972.662c242.635 0 439.329-196.694 439.329-439.329-1.102-242.19-197.139-438.227-439.224-439.329h-.106zm-99.097 350.142c0 49.257-39.93 89.187-89.187 89.187s-89.187-39.93-89.187-89.187l-.001-.364c0-49.056 39.768-88.824 88.824-88.824l.384.001h-.02l.364-.001c49.056 0 88.824 39.768 88.824 88.824l-.001.384v-.02zm379.871 0l.001.364c0 49.056-39.768 88.824-88.824 88.824l-.384-.001h.02c-49.257 0-89.187-39.93-89.187-89.187s39.93-89.187 89.187-89.187c48.858.979 88.208 40.329 89.186 89.095l.001.092zM313.806 814.107c-9.73-.313-17.761-7.216-19.793-16.377l-.026-.139a19.067 19.067 0 01-.111-2.092c0-4.151 1.276-8.004 3.458-11.188l-.044.068a45.794 45.794 0 0112.952-9.79l.26-.119 419.51-92.49a19.067 19.067 0 012.092-.111c4.151 0 8.004 1.276 11.188 3.458l-.068-.044a45.794 45.794 0 019.79 12.952l.119.26c.427 1.493.672 3.208.672 4.98 0 8.634-5.821 15.907-13.753 18.111l-.132.031-422.813 92.49h-3.303zm0 16.516c-.409.019-.889.029-1.371.029-15.748 0-28.853-11.314-31.63-26.256l-.031-.199c-.776-2.754-1.222-5.916-1.222-9.183a34.956 34.956 0 014.616-17.415l-.091.172c6.168-7.169 13.92-12.799 22.726-16.374l.397-.142 419.51-95.794c2.754-.776 5.916-1.222 9.183-1.222a34.956 34.956 0 0117.415 4.616l-.172-.091c7.169 6.168 12.799 13.92 16.374 22.726l.142.397c.68 2.585 1.07 5.553 1.07 8.612 0 16.706-11.644 30.692-27.259 34.284l-.237.046-422.813 95.794zm422.813-132.129l-422.813 95.794-3.303 3.303 3.303 3.303L736.619 705.1c0-3.303 3.303-3.303 0-6.606z"/></svg>