<svg width="64" height="64" viewBox="0 0 1024 1024" xmlns="http://www.w3.org/2000/svg"><path d="M512 77.488c-251.756 0-455.845 204.089-455.845 455.845S260.244 989.178 512 989.178c251.756 0 455.845-204.089 455.845-455.845-.525-251.545-204.3-455.32-455.795-455.845H512zm0 951.329c-273.648 0-495.484-221.836-495.484-495.484S238.352 37.849 512 37.849c273.648 0 495.484 221.836 495.484 495.484v.661c0 273.283-221.54 494.823-494.823 494.823h-.698.037zm0 16.516C229.817 1043.878 1.454 815.515.001 533.472L0 533.333c0-282.77 229.23-512 512-512s512 229.23 512 512c-1.455 282.183-229.818 510.546-511.861 511.999l-.139.001zm0-990.968c-264.527 0-478.968 214.441-478.968 478.968S247.473 1012.301 512 1012.301c264.527 0 478.968-214.441 478.968-478.968-.188-264.451-214.517-478.78-478.95-478.968h-.017zm0 951.329c-260.878 0-472.361-211.483-472.361-472.361S251.122 60.972 512 60.972s472.361 211.483 472.361 472.361S772.878 1005.694 512 1005.694zm0-911.69c-242.635 0-439.329 196.694-439.329 439.329S269.365 972.662 512 972.662c242.635 0 439.329-196.694 439.329-439.329-1.102-242.19-197.139-438.227-439.224-439.329h-.106zm188.284 660.645H320.413c-10.635-.741-19.078-9.185-19.816-19.752l-.004-.067c.741-10.635 9.185-19.078 19.752-19.816l.067-.004h379.871c10.635.741 19.078 9.185 19.816 19.752l.004.067c.011.242.017.525.017.81 0 10.508-8.518 19.027-19.027 19.027-.285 0-.568-.006-.85-.019l.04.001zm0 16.516H320.413c-20.068 0-36.335-16.268-36.335-36.335s16.268-36.335 36.335-36.335h379.871c20.068 0 36.335 16.268 36.335 36.335s-16.268 36.335-36.335 36.335zm-376.568-39.638c-3.303 0-3.303 3.303 0 0-.865.836-1.402 2.007-1.402 3.303s.537 2.467 1.401 3.302l.001.001h379.871a3.303 3.303 0 003.303-3.303c0-3.303 0-3.303-3.303-3.303zm46.245-287.381l46.245-46.245c4.09-4.288 6.606-10.108 6.606-16.516s-2.517-12.228-6.615-16.526l.009.01c-4.675-4.593-11.09-7.429-18.168-7.429s-13.493 2.835-18.172 7.432l-46.241 46.241-46.245-46.245c-4.675-4.593-11.09-7.429-18.168-7.429s-13.493 2.835-18.172 7.432l.004-.004c-4.593 4.675-7.429 11.09-7.429 18.168s2.835 13.493 7.432 18.172l46.241 46.241-46.245 46.245c-4.593 4.675-7.429 11.09-7.429 18.168s2.835 13.493 7.432 18.172l-.004-.004c4.288 4.09 10.108 6.606 16.516 6.606s12.228-2.517 16.526-6.615l-.01.009 46.245-46.245 46.245 46.245c4.288 4.09 10.108 6.606 16.516 6.606s12.228-2.517 16.526-6.615l-.01.009c4.593-4.675 7.429-11.09 7.429-18.168s-2.835-13.493-7.432-18.172l.004.004-39.639-49.548zm356.749 0l46.245-46.245c4.593-4.675 7.429-11.09 7.429-18.168s-2.835-13.493-7.432-18.172l.004.004c-4.675-4.593-11.09-7.429-18.168-7.429s-13.493 2.835-18.172 7.432l-46.241 46.241-46.245-46.245c-4.675-4.593-11.09-7.429-18.168-7.429s-13.493 2.835-18.172 7.432l.004-.004c-4.09 4.288-6.606 10.108-6.606 16.516s2.517 12.228 6.615 16.526l-.009-.01 46.245 46.245-46.245 46.245c-4.593 4.675-7.429 11.09-7.429 18.168s2.835 13.493 7.432 18.172l-.004-.004c4.288 4.09 10.108 6.606 16.516 6.606s12.228-2.517 16.526-6.615l-.01.009 46.245-46.245 46.245 46.245c4.288 4.09 10.108 6.606 16.516 6.606s12.228-2.517 16.526-6.615l-.01.009c4.593-4.675 7.429-11.09 7.429-18.168s-2.835-13.493-7.432-18.172l.004.004-39.639-42.942z"/></svg>