<svg width="64" height="64" viewBox="0 0 1024 1024" xmlns="http://www.w3.org/2000/svg"><path d="M512 77.488c-251.756 0-455.845 204.089-455.845 455.845S260.244 989.178 512 989.178c251.756 0 455.845-204.089 455.845-455.845-.525-251.545-204.3-455.32-455.795-455.845H512zm0 951.329c-273.648 0-495.484-221.836-495.484-495.484S238.352 37.849 512 37.849c273.648 0 495.484 221.836 495.484 495.484v.661c0 273.283-221.54 494.823-494.823 494.823h-.698.037zm0 16.516C229.817 1043.878 1.454 815.515.001 533.472L0 533.333c0-282.77 229.23-512 512-512s512 229.23 512 512c-1.455 282.183-229.818 510.546-511.861 511.999l-.139.001zm0-990.968c-264.527 0-478.968 214.441-478.968 478.968S247.473 1012.301 512 1012.301c264.527 0 478.968-214.441 478.968-478.968-.188-264.451-214.517-478.78-478.95-478.968h-.017zm0 951.329c-260.878 0-472.361-211.483-472.361-472.361S251.122 60.972 512 60.972s472.361 211.483 472.361 472.361S772.878 1005.694 512 1005.694zm0-911.69c-242.635 0-439.329 196.694-439.329 439.329S269.365 972.662 512 972.662c242.635 0 439.329-196.694 439.329-439.329v-.198c0-242.525-196.606-439.131-439.131-439.131h-.209.01zm-99.097 350.142c0 49.257-39.93 89.187-89.187 89.187s-89.187-39.93-89.187-89.187l-.001-.364c0-49.056 39.768-88.824 88.824-88.824l.384.001h-.02l.364-.001c49.056 0 88.824 39.768 88.824 88.824l-.001.384v-.02zm379.871 0l.001.364c0 49.056-39.768 88.824-88.824 88.824l-.384-.001h.02c-49.257 0-89.187-39.93-89.187-89.187s39.93-89.187 89.187-89.187c48.858.979 88.208 40.329 89.186 89.095l.001.092zm-82.58 379.871c-.45.047-.972.075-1.5.075-7.706 0-14.067-5.762-15.009-13.213l-.008-.075C668.086 733.468 596.444 678.656 512 678.656s-156.087 54.812-181.29 130.799l-.388 1.349c-1.481 4.757-5.153 8.428-9.804 9.881l-.106.028c-1.745 1.566-4.064 2.523-6.606 2.523s-4.861-.958-6.616-2.532l.009.008c-8.064-2.235-13.885-9.509-13.885-18.143 0-1.772.245-3.487.704-5.112l-.032.132c30.702-92.81 116.675-158.592 218.013-158.592S699.31 704.779 729.547 795.97l.465 1.618v13.213l-9.91 9.91a12.08 12.08 0 01-8.414 3.396c-.527 0-1.046-.034-1.556-.099l.06.006zm0 16.516c-.501.027-1.088.043-1.678.043-14.677 0-27.103-9.64-31.291-22.933l-.063-.232c-22.564-69.543-86.776-118.937-162.525-118.937-.927 0-1.852.007-2.775.022l.139-.002c-76.362.18-141.2 49.323-164.793 117.689l-.368 1.228c-2.766 8.649-8.667 15.625-16.335 19.731l-.181.089c-6.266 2.237-13.495 3.53-21.026 3.53-1.901 0-3.783-.082-5.642-.244l.241.017c-8.649-2.766-15.625-8.667-19.731-16.335l-.089-.181c-2.759-5.075-4.381-11.113-4.381-17.529 0-3.158.393-6.225 1.133-9.154l-.055.257c31.722-98.473 122.541-168.469 229.708-168.469.534 0 1.067.002 1.6.005H512c.451-.003.984-.005 1.518-.005 107.167 0 197.986 69.996 229.232 166.765l.476 1.704c1.492 3.104 2.364 6.749 2.364 10.597a24.834 24.834 0 01-5.701 15.871l.034-.042c-3.303 9.91-13.213 13.213-19.819 16.516h-9.91v-33.032l3.303-3.303c-29.21-84.97-108.298-145.003-201.456-145.342H512c-93.202.328-172.296 60.366-201.048 143.842l-.449 1.5v3.303l19.819 3.303-16.516-6.606c26.81-83.058 103.437-142.085 193.851-142.085 1.527 0 3.05.017 4.569.05l-.226-.004c91.513.01 169.305 58.743 197.749 140.569l.444 1.469z"/></svg>