<svg width="64" height="64" viewBox="0 0 1024 1024" xmlns="http://www.w3.org/2000/svg"><path d="M512 77.488c-251.756 0-455.845 204.089-455.845 455.845S260.244 989.178 512 989.178c251.756 0 455.845-204.089 455.845-455.845-.525-251.545-204.3-455.32-455.795-455.845H512zm0 951.329c-273.648 0-495.484-221.836-495.484-495.484S238.352 37.849 512 37.849c273.648 0 495.484 221.836 495.484 495.484v.661c0 273.283-221.54 494.823-494.823 494.823h-.698.037zm0 16.516C229.817 1043.878 1.454 815.515.001 533.472L0 533.333c0-282.77 229.23-512 512-512s512 229.23 512 512c-1.455 282.183-229.818 510.546-511.861 511.999l-.139.001zm0-990.968c-264.527 0-478.968 214.441-478.968 478.968S247.473 1012.301 512 1012.301c264.527 0 478.968-214.441 478.968-478.968-.188-264.451-214.517-478.78-478.95-478.968h-.017zm0 951.329c-260.878 0-472.361-211.483-472.361-472.361S251.122 60.972 512 60.972c261.189.881 472.907 211.44 475.662 472.099l.002.262c-2.757 260.921-214.475 471.48-475.579 472.361H512zm0-911.69c-242.635 0-439.329 196.694-439.329 439.329S269.365 972.662 512 972.662c242.635 0 439.329-196.694 439.329-439.329-1.102-242.19-197.139-438.227-439.224-439.329h-.106zm0 766.348h-.125c-146.581 0-271.134-94.316-316.282-225.571l-.703-2.351c-.421-1.486-.664-3.192-.664-4.955 0-10.4 8.431-18.831 18.831-18.831 8.637 0 15.917 5.815 18.136 13.744l.032.133c39.13 117.946 148.441 201.518 277.271 201.518 1.232 0 2.461-.008 3.689-.023l-.187.002h.454c129.609 0 239.744-83.375 279.698-199.418l.622-2.079c2.251-8.061 9.53-13.876 18.168-13.876 10.4 0 18.831 8.431 18.831 18.831 0 1.763-.242 3.469-.695 5.087l.032-.133c-45.863 133.608-170.421 227.923-317.009 227.923h-.107.006zm0 16.516h-.215c-154.576 0-285.82-99.902-332.686-238.661l-.725-2.474c-1.054-3.258-1.661-7.007-1.661-10.897 0-20.195 16.371-36.567 36.567-36.567 15.812 0 29.281 10.037 34.382 24.087l.081.254c37.018 112.111 140.838 191.589 263.221 191.589l1.093-.002h-.056c.96.012 2.094.019 3.229.019 121.828 0 225.058-79.624 260.491-189.67l.539-1.936c5.182-14.305 18.65-24.341 34.463-24.341 20.195 0 36.567 16.371 36.567 36.567 0 3.891-.608 7.639-1.733 11.156l.072-.259c-47.592 141.234-178.835 241.136-333.411 241.136h-.227.012zm0-33.032c.868.009 1.894.014 2.92.014 138.792 0 256.433-90.562 297.054-215.818l.619-2.209v-3.303h-3.303c-42.305 125.747-159.125 214.71-296.723 214.71l-.599-.001h.031l-.567.001c-137.598 0-254.418-88.963-296.078-212.508l-.644-2.202s-3.303-3.303-3.303 0c0 0-3.303 3.303 0 3.303C252.647 753.288 370.288 843.85 509.08 843.85c1.027 0 2.052-.005 3.077-.015l-.156.001zm-85.884-478.968c-9.891-10.679-23.987-17.341-39.639-17.341s-29.748 6.662-39.607 17.306l-.032.035-16.516 16.516-16.516-16.516c-10.333-11.589-25.306-18.852-41.974-18.852-31.013 0-56.155 25.141-56.155 56.155 0 16.669 7.263 31.641 18.796 41.926l.056.049 95.794 95.794 95.794-95.794c10.688-9.886 17.356-23.984 17.356-39.639s-6.669-29.752-17.321-39.606l-.036-.033zm363.355 0c-9.891-10.679-23.987-17.341-39.639-17.341s-29.748 6.662-39.607 17.306l-.032.035-16.516 16.516-16.516-16.516c-10.333-11.589-25.306-18.852-41.974-18.852-31.013 0-56.155 25.141-56.155 56.155 0 16.669 7.263 31.641 18.796 41.926l.056.049 95.794 95.794 95.794-95.794c9.233-10.537 14.865-24.43 14.865-39.639s-5.632-29.102-14.924-39.708l.059.069z"/></svg>