<svg width="64" height="64" viewBox="0 0 1024 1024" xmlns="http://www.w3.org/2000/svg"><path d="M512 77.488c-251.756 0-455.845 204.089-455.845 455.845S260.244 989.178 512 989.178c251.756 0 455.845-204.089 455.845-455.845-.525-251.545-204.3-455.32-455.795-455.845H512zm0 951.329c-273.648 0-495.484-221.836-495.484-495.484S238.352 37.849 512 37.849c273.648 0 495.484 221.836 495.484 495.484v.661c0 273.283-221.54 494.823-494.823 494.823h-.698.037zm0 16.516C229.817 1043.878 1.454 815.515.001 533.472L0 533.333c0-282.77 229.23-512 512-512s512 229.23 512 512c-1.455 282.183-229.818 510.546-511.861 511.999l-.139.001zm0-990.968c-264.527 0-478.968 214.441-478.968 478.968S247.473 1012.301 512 1012.301c264.527 0 478.968-214.441 478.968-478.968-.188-264.451-214.517-478.78-478.95-478.968h-.017zm0 951.329c-260.878 0-472.361-211.483-472.361-472.361S251.122 60.972 512 60.972c261.197.863 472.926 211.433 475.662 472.102l.002.26c-2.738 260.928-214.468 471.498-475.582 472.361h-.083zm0-911.69c-242.635 0-439.329 196.694-439.329 439.329S269.365 972.662 512 972.662c242.635 0 439.329-196.694 439.329-439.329-1.102-242.19-197.139-438.227-439.224-439.329h-.106zm-99.097 350.142l.001.364c0 49.056-39.768 88.824-88.824 88.824l-.384-.001h.02l-.364.001c-49.056 0-88.824-39.768-88.824-88.824l.001-.384v.02c0-49.257 39.93-89.187 89.187-89.187s89.187 39.93 89.187 89.187zm379.871 0l.001.364c0 49.056-39.768 88.824-88.824 88.824l-.384-.001h.02l-.364.001c-49.056 0-88.824-39.768-88.824-88.824l.001-.384v.02l-.001-.364c0-49.056 39.768-88.824 88.824-88.824l.384.001h-.02c48.858.979 88.208 40.329 89.186 89.095l.001.092zm-165.161 297.29c0 85.884-49.548 155.252-115.613 155.252S396.387 827.32 396.387 741.436 445.935 586.184 512 586.184s115.613 69.368 115.613 155.252z"/></svg>