<svg width="64" height="64" viewBox="0 0 1024 1024" xmlns="http://www.w3.org/2000/svg"><path d="M512 77.488c-251.756 0-455.845 204.089-455.845 455.845S260.244 989.178 512 989.178c251.756 0 455.845-204.089 455.845-455.845-.525-251.545-204.3-455.32-455.795-455.845H512zm0 951.329c-273.648 0-495.484-221.836-495.484-495.484S238.352 37.849 512 37.849c273.648 0 495.484 221.836 495.484 495.484v.661c0 273.283-221.54 494.823-494.823 494.823h-.698.037zm0 16.516C229.817 1043.878 1.454 815.515.001 533.472L0 533.333c0-282.77 229.23-512 512-512s512 229.23 512 512-229.23 512-512 512zm0-990.968c-264.527 0-478.968 214.441-478.968 478.968S247.473 1012.301 512 1012.301c264.527 0 478.968-214.441 478.968-478.968-.188-264.451-214.517-478.78-478.95-478.968h-.017zm0 954.633c-260.878 0-472.361-211.483-472.361-472.361S251.122 64.276 512 64.276s472.361 211.483 472.361 472.361S772.878 1008.998 512 1008.998zm0-914.994c-242.635 0-439.329 196.694-439.329 439.329S269.365 972.662 512 972.662c242.635 0 439.329-196.694 439.329-439.329-1.102-242.19-197.139-438.227-439.224-439.329h-.106zM293.987 830.623c0-120.405 97.608-218.013 218.013-218.013s218.013 97.608 218.013 218.013H293.987zm118.916-386.477c0 49.257-39.93 89.187-89.187 89.187s-89.187-39.93-89.187-89.187 39.93-89.187 89.187-89.187l.364-.001c49.056 0 88.824 39.768 88.824 88.824l-.001.384v-.02zm379.871 0l.001.364c0 49.056-39.768 88.824-88.824 88.824l-.384-.001h.02c-49.018-.589-88.598-40.169-89.187-89.131l-.001-.056-.001-.364c0-49.056 39.768-88.824 88.824-88.824l.384.001h-.02c48.858.979 88.208 40.329 89.186 89.095l.001.092zM426.116 335.139a12.086 12.086 0 01-9.913-3.306l.004.003-109.006-66.065a45.794 45.794 0 01-9.79-12.952l-.119-.26a19.067 19.067 0 01-.111-2.092c0-4.151 1.276-8.004 3.458-11.188l-.044.068a45.826 45.826 0 0112.952-9.79l.261-.12a19.067 19.067 0 012.092-.111c4.151 0 8.004 1.276 11.188 3.458l-.068-.044 109.006 66.065a45.794 45.794 0 019.79 12.952l.119.26c.071.628.111 1.355.111 2.092 0 4.151-1.276 8.004-3.458 11.188l.044-.068c-3.072 5.93-9.163 9.913-16.184 9.913-.117 0-.233-.001-.35-.003h.017zm0 16.517c-7.413-.743-14.147-3.103-20.022-6.723l.203.116-109.006-66.065c-7.892-5.525-13.733-13.509-16.442-22.825l-.074-.298c-.777-2.755-1.224-5.919-1.224-9.187 0-6.336 1.68-12.28 4.618-17.41l-.09.171c5.525-7.892 13.509-13.733 22.825-16.442l.298-.074c2.755-.777 5.919-1.224 9.187-1.224 6.336 0 12.28 1.68 17.41 4.618l-.171-.09 109.006 66.065c7.892 5.525 13.733 13.509 16.442 22.825l.074.298c.777 2.755 1.224 5.919 1.224 9.187 0 6.336-1.68 12.28-4.618 17.41l.09-.171c-4.843 11.722-16.186 19.821-29.42 19.821l-.326-.002h.017zm-105.703-102.4h-3.303v3.303l109.006 66.065 3.303-3.303zm277.471 85.883c-.099.002-.215.003-.332.003-7.021 0-13.112-3.982-16.136-9.812l-.048-.101c-2.138-3.116-3.414-6.97-3.414-11.121 0-.737.04-1.465.119-2.181l-.008.089c.963-5.875 4.704-10.708 9.804-13.167l.106-.046 109.006-66.065c3.116-2.138 6.97-3.414 11.121-3.414.737 0 1.465.04 2.181.119l-.089-.008c5.875.963 10.708 4.704 13.167 9.804l.046.106c2.138 3.116 3.414 6.97 3.414 11.121 0 .737-.04 1.465-.119 2.181l.008-.089c-.963 5.875-4.704 10.708-9.804 13.167l-.106.046-109.006 66.065a12.08 12.08 0 01-8.414 3.396c-.527 0-1.046-.034-1.556-.099l.06.006zm0 16.517h-.184c-12.432 0-23.337-6.541-29.46-16.37l-.085-.147c-2.848-4.959-4.528-10.902-4.528-17.238 0-3.268.447-6.432 1.283-9.434l-.059.247c2.437-9.762 8.373-17.85 16.367-23.032l.149-.091 109.006-66.065c4.961-2.846 10.906-4.525 17.243-4.525 3.267 0 6.429.446 9.43 1.281l-.247-.059c9.762 2.437 17.85 8.373 23.032 16.367l.091.149c2.848 4.959 4.528 10.902 4.528 17.238a35.12 35.12 0 01-1.283 9.434l.059-.247c-2.437 9.762-8.373 17.85-16.367 23.032l-.149.091-109.006 66.065c-4.891 2.166-10.595 3.428-16.595 3.428-1.135 0-2.259-.045-3.372-.134l.147.009zm-3.303-33.033l112.31-62.761v-3.303l-13.213-16.516 9.91 13.213-109.006 66.065-16.516 13.213z"/></svg>