<svg width="64" height="64" viewBox="0 0 1024 1024" xmlns="http://www.w3.org/2000/svg"><path d="M512 77.488c-251.756 0-455.845 204.089-455.845 455.845S260.244 989.178 512 989.178c251.756 0 455.845-204.089 455.845-455.845-.525-251.545-204.3-455.32-455.795-455.845H512zm0 951.329c-273.648 0-495.484-221.836-495.484-495.484S238.352 37.849 512 37.849c273.648 0 495.484 221.836 495.484 495.484v.661c0 273.283-221.54 494.823-494.823 494.823h-.698.037zm0 16.516C229.817 1043.878 1.454 815.515.001 533.472L0 533.333c0-282.77 229.23-512 512-512s512 229.23 512 512c-1.455 282.183-229.818 510.546-511.861 511.999l-.139.001zm0-990.968c-264.527 0-478.968 214.441-478.968 478.968S247.473 1012.301 512 1012.301c264.527 0 478.968-214.441 478.968-478.968-.188-264.451-214.517-478.78-478.95-478.968h-.017zm0 951.329c-260.878 0-472.361-211.483-472.361-472.361S251.122 60.972 512 60.972s472.361 211.483 472.361 472.361S772.878 1005.694 512 1005.694zm0-911.69c-242.635 0-439.329 196.694-439.329 439.329S269.365 972.662 512 972.662c242.635 0 439.329-196.694 439.329-439.329v-.198c0-242.525-196.606-439.131-439.131-439.131h-.209.01zm-99.097 350.142l.001.364c0 49.056-39.768 88.824-88.824 88.824l-.384-.001h.02l-.364.001c-49.056 0-88.824-39.768-88.824-88.824l.001-.384v.02c0-49.257 39.93-89.187 89.187-89.187s89.187 39.93 89.187 89.187zm379.871 0l.001.364c0 49.056-39.768 88.824-88.824 88.824l-.384-.001h.02l-.364.001c-49.056 0-88.824-39.768-88.824-88.824l.001-.384v.02l-.001-.364c0-49.056 39.768-88.824 88.824-88.824l.384.001h-.02c48.858.979 88.208 40.329 89.186 89.095l.001.092zM512 797.591l-.567.001c-63.821 0-118.07-40.986-137.859-98.073l-.309-1.024c-.421-1.486-.664-3.192-.664-4.955 0-10.4 8.431-18.831 18.831-18.831 8.637 0 15.917 5.815 18.136 13.744l.032.133c15.24 42.681 55.317 72.677 102.4 72.677s87.16-29.996 102.163-71.92l.237-.757c2.235-8.064 9.509-13.885 18.143-13.885 1.772 0 3.487.245 5.112.704l-.132-.032c8.064 2.235 13.885 9.509 13.885 18.143 0 1.772-.245 3.487-.704 5.112l.032-.132c-20.099 58.111-74.347 99.098-138.168 99.098l-.598-.001h.031zm0 16.516c-71.629-1.099-132.221-47.152-154.891-111.142l-.361-1.168c-1.054-3.258-1.661-7.007-1.661-10.897 0-20.195 16.371-36.567 36.567-36.567 15.812 0 29.281 10.037 34.382 24.087l.081.254c12.574 36.281 46.129 62.006 85.795 62.76l.089.001c39.755-.756 73.31-26.481 85.688-62.112l.196-.649c2.766-8.649 8.667-15.625 16.335-19.731l.181-.089c5.075-2.759 11.113-4.381 17.529-4.381 3.158 0 6.225.393 9.154 1.133l-.257-.055c14.734 4.622 25.238 18.154 25.238 34.138 0 4.343-.775 8.504-2.195 12.354l.08-.247c-20.768 65.446-80.882 112.083-151.922 112.31h-.027zm0-33.032h.318c56.809 0 104.968-37.038 121.647-88.283l.255-.905v-3.303h-3.303c-16.947 50.302-63.689 85.884-118.742 85.884h-.184.01c-.301.003-.656.004-1.012.004-54.839 0-101.354-35.635-117.654-85.013l-.25-.875s-3.303-3.303-3.303 0c0 0-3.303 3.303 0 3.303 16.933 52.15 65.092 89.187 121.901 89.187h.335-.017z"/></svg>