<svg width="64" height="64" viewBox="0 0 1024 1024" xmlns="http://www.w3.org/2000/svg"><path d="M512 77.488c-251.756 0-455.845 204.089-455.845 455.845S260.244 989.178 512 989.178c251.756 0 455.845-204.089 455.845-455.845-.525-251.545-204.3-455.32-455.795-455.845H512zm0 951.329c-273.648 0-495.484-221.836-495.484-495.484S238.352 37.849 512 37.849c273.648 0 495.484 221.836 495.484 495.484v.661c0 273.283-221.54 494.823-494.823 494.823h-.698.037zm0 16.516C229.817 1043.878 1.454 815.515.001 533.472L0 533.333c0-282.77 229.23-512 512-512s512 229.23 512 512c-1.455 282.183-229.818 510.546-511.861 511.999l-.139.001zm0-990.968c-264.527 0-478.968 214.441-478.968 478.968S247.473 1012.301 512 1012.301c264.527 0 478.968-214.441 478.968-478.968-.188-264.451-214.517-478.78-478.95-478.968h-.017zm0 951.329c-260.878 0-472.361-211.483-472.361-472.361S251.122 60.972 512 60.972s472.361 211.483 472.361 472.361S772.878 1005.694 512 1005.694zm0-911.69c-242.635 0-439.329 196.694-439.329 439.329S269.365 972.662 512 972.662c242.635 0 439.329-196.694 439.329-439.329v-.198c0-242.525-196.606-439.131-439.131-439.131h-.209.01zm0 766.348h-.125c-146.581 0-271.134-94.316-316.282-225.571l-.703-2.351c-.427-1.493-.672-3.208-.672-4.98 0-8.634 5.821-15.907 13.753-18.111l.132-.031h13.213l9.91 9.91c39.13 117.946 148.441 201.518 277.271 201.518 1.232 0 2.461-.008 3.689-.023l-.187.002h.454c129.609 0 239.744-83.375 279.698-199.418l.622-2.079c2.235-8.064 9.509-13.885 18.143-13.885 1.772 0 3.487.245 5.112.704l-.132-.032c4.757 1.481 8.428 5.153 9.881 9.804l.028.106c1.566 1.745 2.523 4.064 2.523 6.606s-.958 4.861-2.532 6.616l.008-.009c-41.959 134.947-165.719 231.231-311.967 231.231-.647 0-1.293-.002-1.939-.006h.1zm0 16.516h-.215c-154.576 0-285.82-99.902-332.686-238.661l-.725-2.474c-1.34-3.602-2.115-7.764-2.115-12.107 0-15.985 10.503-29.516 24.985-34.07l.253-.069c3.104-1.492 6.749-2.364 10.597-2.364a24.834 24.834 0 0115.871 5.701l-.042-.034c8.748 2.955 15.186 10.496 16.501 19.689l.015.13C281.457 724.72 385.277 804.198 507.66 804.198l1.093-.002h-.056c.96.012 2.094.019 3.229.019 121.828 0 225.058-79.624 260.491-189.67l.539-1.936c4.622-14.734 18.154-25.238 34.138-25.238 4.343 0 8.504.775 12.354 2.195l-.247-.08c8.649 2.766 15.625 8.667 19.731 16.335l.089.181c2.759 5.075 4.381 11.113 4.381 17.529a37.33 37.33 0 01-1.133 9.154l.055-.257c-43.699 142.568-174.161 244.444-328.418 244.444-.67 0-1.339-.002-2.008-.006h.103zm0-33.032c.868.009 1.894.014 2.92.014 138.792 0 256.433-90.562 297.054-215.818l.619-2.209 3.303-19.819-6.606 16.516h-3.303c-42.305 125.747-159.125 214.71-296.723 214.71l-.599-.001h.031l-.567.001c-137.598 0-254.418-88.963-296.078-212.508l-.644-2.202h-3.303s-3.303 3.303 0 3.303c43.691 127.777 162.733 218.015 302.85 218.015l1.104-.002h-.057zm270.865-376.568H624.31c-12.77 0-23.123-10.352-23.123-23.123s10.352-23.123 23.123-23.123h158.555c12.802.126 23.132 10.533 23.132 23.353a23.276 23.276 0 01-6.621 16.291l.005-.005c-3.303 6.606-9.91 6.606-16.516 6.606zm0 16.517H624.31c-.561.031-1.218.049-1.879.049-11.211 0-21.221-5.143-27.799-13.198l-.051-.064a48.982 48.982 0 01-13.201-29.549l-.012-.18a35.005 35.005 0 01-.049-1.879c0-11.211 5.143-21.221 13.198-27.799l.064-.051c8.444-6.079 18.408-10.659 29.182-13.108l.547-.105h158.555a35.005 35.005 0 011.879-.049c11.211 0 21.221 5.143 27.799 13.198l.051.064a48.982 48.982 0 0113.201 29.549l.012.18c.031.561.049 1.218.049 1.879 0 11.211-5.143 21.221-13.198 27.799l-.064.051c-6.629 8.119-16.639 13.262-27.85 13.262-.661 0-1.318-.018-1.97-.053l.091.004zM624.31 434.236c-3.303 0-3.303 0-6.606 3.303s-3.303 3.303-3.303 6.606 0 3.303 3.303 6.606 3.303 3.303 6.606 3.303h158.555c3.303 0 3.303 0 6.606-3.303s3.303-3.303 3.303-6.606 0-3.303-3.303-6.606a11.498 11.498 0 00-6.545-3.296l-.061-.007zm-224.62 33.032H241.135c-.109.002-.237.003-.366.003-14.394 0-26.062-11.669-26.062-26.062 0-.129.001-.257.003-.385v.019a22.027 22.027 0 01-.006-.535c0-12.478 10.116-22.594 22.594-22.594.188 0 .376.002.563.007l-.028-.001h158.555c.159-.004.347-.006.535-.006 12.478 0 22.594 10.116 22.594 22.594 0 .188-.002.376-.007.563l.001-.028c6.606 16.516-6.606 26.426-19.819 26.426zm0 16.517H241.135c-23.539-.436-42.506-19.403-42.941-42.901l-.001-.041a35.005 35.005 0 01-.049-1.879c0-11.211 5.143-21.221 13.198-27.799l.064-.051a48.982 48.982 0 0129.549-13.201l.18-.012H399.69a35.005 35.005 0 011.879-.049c11.211 0 21.221 5.143 27.799 13.198l.051.064a48.982 48.982 0 0113.201 29.549l.012.18c.013.39.021.849.021 1.309 0 23.005-18.649 41.654-41.654 41.654-.46 0-.919-.007-1.375-.022l.067.002zm-158.555-49.549c-3.303 0-3.303 0-6.606 3.303s-3.303 3.303-3.303 6.606c.319 5.34 4.57 9.591 9.881 9.908l.029.001h158.555c5.34-.319 9.591-4.57 9.908-9.881l.001-.029c0-3.303 0-3.303-3.303-6.606s-3.303-3.303-6.606-3.303z"/></svg>