<svg width="64" height="64" viewBox="0 0 1024 1024" xmlns="http://www.w3.org/2000/svg"><path d="M512 77.488c-251.756 0-455.845 204.089-455.845 455.845S260.244 989.178 512 989.178c251.756 0 455.845-204.089 455.845-455.845-.525-251.545-204.3-455.32-455.795-455.845H512zm0 951.329c-273.648 0-495.484-221.836-495.484-495.484S238.352 37.849 512 37.849c273.648 0 495.484 221.836 495.484 495.484v.661c0 273.283-221.54 494.823-494.823 494.823h-.698.037zm0 16.516c-282.77 0-512-229.23-512-512s229.23-512 512-512 512 229.23 512 512c-1.455 282.183-229.818 510.546-511.861 511.999l-.139.001zm0-990.968c-264.527 0-478.968 214.441-478.968 478.968S247.473 1012.301 512 1012.301c264.527 0 478.968-214.441 478.968-478.968-.188-264.451-214.517-478.78-478.95-478.968h-.017zm0 954.633c-260.878 0-472.361-211.483-472.361-472.361S251.122 64.276 512 64.276s472.361 211.483 472.361 472.361S772.878 1008.998 512 1008.998zm0-914.994c-242.635 0-439.329 196.694-439.329 439.329S269.365 972.662 512 972.662c242.635 0 439.329-196.694 439.329-439.329v-.198c0-242.525-196.606-439.131-439.131-439.131h-.209.01zm260.955 535.123c.003.463.005 1.01.005 1.557 0 143.264-116.138 259.402-259.402 259.402-.548 0-1.095-.002-1.642-.005H512c-.463.003-1.01.005-1.557.005-143.264 0-259.402-116.138-259.402-259.402 0-.548.002-1.095.005-1.642v.084h521.91zM412.903 444.146l.001.364c0 49.056-39.768 88.824-88.824 88.824l-.384-.001h.02c-49.257 0-89.187-39.93-89.187-89.187s39.93-89.187 89.187-89.187 89.187 39.93 89.187 89.187zm379.871 0c0 49.257-39.93 89.187-89.187 89.187s-89.187-39.93-89.187-89.187l-.001-.364c0-49.056 39.768-88.824 88.824-88.824l.384.001h-.02c48.858.979 88.208 40.329 89.186 89.095l.001.092z"/></svg>