<svg width="64" height="64" viewBox="0 0 1024 1024" xmlns="http://www.w3.org/2000/svg"><path d="M512 77.488c-251.756 0-455.845 204.089-455.845 455.845S260.244 989.178 512 989.178c251.756 0 455.845-204.089 455.845-455.845-.525-251.545-204.3-455.32-455.795-455.845H512zm0 951.329c-273.648 0-495.484-221.836-495.484-495.484S238.352 37.849 512 37.849c273.648 0 495.484 221.836 495.484 495.484v.661c0 273.283-221.54 494.823-494.823 494.823h-.698.037zm0 16.516C229.817 1043.878 1.454 815.515.001 533.472L0 533.333c0-282.77 229.23-512 512-512s512 229.23 512 512c-1.455 282.183-229.818 510.546-511.861 511.999l-.139.001zm0-990.968c-264.527 0-478.968 214.441-478.968 478.968S247.473 1012.301 512 1012.301c264.527 0 478.968-214.441 478.968-478.968-.188-264.451-214.517-478.78-478.95-478.968h-.017zm0 951.329c-260.878 0-472.361-211.483-472.361-472.361S251.122 60.972 512 60.972s472.361 211.483 472.361 472.361S772.878 1005.694 512 1005.694zm0-911.69c-242.635 0-439.329 196.694-439.329 439.329S269.365 972.662 512 972.662c242.635 0 439.329-196.694 439.329-439.329v-.198c0-242.525-196.606-439.131-439.131-439.131h-.209.01zm-99.097 350.142c0 49.257-39.93 89.187-89.187 89.187s-89.187-39.93-89.187-89.187 39.93-89.187 89.187-89.187l.364-.001c49.056 0 88.824 39.768 88.824 88.824l-.001.384v-.02zm353.445 9.91h-72.671l29.729-23.123c5.93-3.072 9.913-9.163 9.913-16.184 0-.117-.001-.233-.003-.35v.017c.117-.894.183-1.929.183-2.979a24.197 24.197 0 00-6.797-16.848l.007.007c-3.072-5.93-9.163-9.913-16.184-9.913-.117 0-.233.001-.35.003h.017a23.493 23.493 0 00-2.979-.183 24.197 24.197 0 00-16.848 6.797l.007-.007-85.884 66.065a71.705 71.705 0 00-9.728 16.053l-.182.463v6.606c1.263 13.035 12.162 23.142 25.422 23.142.353 0 .705-.007 1.054-.021l-.05.002h145.342c.159.004.347.006.535.006 12.478 0 22.594-10.116 22.594-22.594 0-.188-.002-.376-.007-.563l.001.028c.294-1.348.462-2.896.462-4.483 0-12.15-9.85-21.999-21.999-21.999-.558 0-1.111.021-1.658.062l.073-.004zm-19.819 184.98c-1.745-1.566-4.064-2.523-6.606-2.523s-4.861.958-6.616 2.532l.009-.008c-4.757 1.481-8.428 5.153-9.881 9.804l-.028.106c-29.729 59.458-115.613 99.097-208.103 99.097-95.794 0-181.677-39.639-208.103-99.097-3.219-6.958-10.14-11.698-18.168-11.698-11.022 0-19.957 8.935-19.957 19.957 0 2.993.659 5.833 1.84 8.381l-.051-.123c33.101 55.085 86.914 94.849 150.408 108.724l1.54.282c3.303 89.187 42.942 158.555 92.49 158.555s89.187-69.368 92.49-158.555c65.034-14.157 118.848-53.921 151.362-107.955l.587-1.051c0-9.91-3.303-23.123-13.213-26.426z"/></svg>