<svg width="64" height="64" viewBox="0 0 1024 1024" xmlns="http://www.w3.org/2000/svg"><path d="M512 77.488c-251.756 0-455.845 204.089-455.845 455.845S260.244 989.178 512 989.178c251.756 0 455.845-204.089 455.845-455.845-.525-251.545-204.3-455.32-455.795-455.845H512zm0 951.329c-273.648 0-495.484-221.836-495.484-495.484S238.352 37.849 512 37.849c273.648 0 495.484 221.836 495.484 495.484v.661c0 273.283-221.54 494.823-494.823 494.823h-.698.037zm0 16.516C229.817 1043.878 1.454 815.515.001 533.472L0 533.333c0-282.77 229.23-512 512-512s512 229.23 512 512c-1.455 282.183-229.818 510.546-511.861 511.999l-.139.001zm0-990.968c-264.527 0-478.968 214.441-478.968 478.968S247.473 1012.301 512 1012.301c264.527 0 478.968-214.441 478.968-478.968-.188-264.451-214.517-478.78-478.95-478.968h-.017zm0 951.329c-260.878 0-472.361-211.483-472.361-472.361S251.122 60.972 512 60.972s472.361 211.483 472.361 472.361S772.878 1005.694 512 1005.694zm0-911.69c-242.635 0-439.329 196.694-439.329 439.329S269.365 972.662 512 972.662c242.635 0 439.329-196.694 439.329-439.329-1.102-242.19-197.139-438.227-439.224-439.329h-.106zm-99.097 350.142c0 49.257-39.93 89.187-89.187 89.187s-89.187-39.93-89.187-89.187 39.93-89.187 89.187-89.187l.364-.001c49.056 0 88.824 39.768 88.824 88.824l-.001.384v-.02zm379.871 0c0 49.257-39.93 89.187-89.187 89.187s-89.187-39.93-89.187-89.187l-.001-.364c0-49.056 39.768-88.824 88.824-88.824l.384.001h-.02c48.858.979 88.208 40.329 89.186 89.095l.001.092zm-46.245 191.587c-1.745-1.566-4.064-2.523-6.606-2.523s-4.861.958-6.616 2.532l.009-.008c-4.757 1.481-8.428 5.153-9.881 9.804l-.028.106c-29.729 59.458-115.613 99.097-208.103 99.097s-181.677-39.639-208.103-99.097l-9.91-9.91h-13.213c-6.842 3.504-11.444 10.506-11.444 18.583 0 2.827.564 5.523 1.585 7.98l-.051-.138c33.101 55.085 86.914 94.849 150.408 108.724l1.54.282c3.303 89.187 42.942 158.555 92.49 158.555s89.187-69.368 92.49-158.555c65.034-14.157 118.848-53.921 151.362-107.955l.587-1.051c-2.336-10.8-8.251-19.945-16.417-26.351l-.099-.075z"/></svg>