<svg width="64" height="64" viewBox="0 0 1024 1024" xmlns="http://www.w3.org/2000/svg"><path d="M512 77.488c-251.756 0-455.845 204.089-455.845 455.845S260.244 989.178 512 989.178c251.756 0 455.845-204.089 455.845-455.845-.525-251.545-204.3-455.32-455.795-455.845H512zm0 951.329c-273.648 0-495.484-221.836-495.484-495.484S238.352 37.849 512 37.849c273.648 0 495.484 221.836 495.484 495.484v.661c0 273.283-221.54 494.823-494.823 494.823h-.698.037zm0 16.516C229.817 1043.878 1.454 815.515.001 533.472L0 533.333c0-282.77 229.23-512 512-512s512 229.23 512 512c-1.455 282.183-229.818 510.546-511.861 511.999l-.139.001zm0-990.968c-264.527 0-478.968 214.441-478.968 478.968S247.473 1012.301 512 1012.301c264.527 0 478.968-214.441 478.968-478.968-.188-264.451-214.517-478.78-478.95-478.968h-.017zm0 951.329c-260.878 0-472.361-211.483-472.361-472.361S251.122 60.972 512 60.972s472.361 211.483 472.361 472.361S772.878 1005.694 512 1005.694zm0-911.69c-242.635 0-439.329 196.694-439.329 439.329S269.365 972.662 512 972.662c242.635 0 439.329-196.694 439.329-439.329v-.198c0-242.525-196.606-439.131-439.131-439.131h-.209.01zm-99.097 350.142l.001.364c0 49.056-39.768 88.824-88.824 88.824l-.384-.001h.02c-49.257 0-89.187-39.93-89.187-89.187s39.93-89.187 89.187-89.187 89.187 39.93 89.187 89.187zM512 860.352c-10.946 0-19.819-8.873-19.819-19.819s8.873-19.819 19.819-19.819h.454c129.609 0 239.744-83.375 279.698-199.418l.622-2.079c2.235-8.064 9.509-13.885 18.143-13.885 1.772 0 3.487.245 5.112.704l-.132-.032c8.064 2.235 13.885 9.509 13.885 18.143 0 1.772-.245 3.487-.704 5.112l.032-.132C784.692 764.39 659.553 860.34 512.002 860.353h-.001zm0 16.516c-19.993-.185-36.15-16.343-36.335-36.318v-.018c1.352-19.5 16.836-34.984 36.213-36.329l.122-.007c.96.012 2.094.019 3.229.019 121.828 0 225.058-79.624 260.491-189.67l.539-1.936c2.766-8.649 8.667-15.625 16.335-19.731l.181-.089c5.075-2.759 11.113-4.381 17.529-4.381 3.158 0 6.225.393 9.154 1.133l-.257-.055c14.734 4.622 25.238 18.154 25.238 34.138 0 4.343-.775 8.504-2.195 12.354l.08-.247c-45.128 140.914-174.965 241.142-328.212 241.142-.742 0-1.484-.002-2.225-.007l.114.001zm0-36.335c-.865.836-1.402 2.007-1.402 3.303s.537 2.467 1.401 3.302l.001.001.707.001c139.355 0 257.592-90.417 299.246-215.787l.641-2.226v-3.303h-3.303c-42.305 125.747-159.125 214.71-296.723 214.71l-.599-.001H512zm254.348-386.477h-72.671l29.729-23.123c5.69-4.765 9.283-11.873 9.283-19.819 0-14.248-11.551-25.799-25.799-25.799a25.688 25.688 0 00-16.556 6.013l.04-.033-85.884 66.065a71.742 71.742 0 00-9.728 16.053l-.182.463v6.606c1.263 13.035 12.162 23.142 25.422 23.142.353 0 .705-.007 1.054-.021l-.05.002h145.342c.109.002.237.003.366.003 14.394 0 26.062-11.669 26.062-26.062 0-.129-.001-.257-.003-.385v.019c-1.263-13.035-12.162-23.142-25.422-23.142-.353 0-.705.007-1.054.021l.05-.002z"/></svg>