<svg width="64" height="64" viewBox="0 0 1024 1024" xmlns="http://www.w3.org/2000/svg"><path d="M512 21.333c-284.077 0-512 227.923-512 512 0 280.774 231.226 512 512 512s512-231.226 512-512c0-284.077-227.923-512-512-512zm0 72.671c244.439 0 439.329 198.194 439.329 439.329S753.135 972.662 512 972.662 72.671 774.468 72.671 533.333 270.865 94.004 512 94.004zM323.716 533.333c49.548 0 89.187-39.639 89.187-89.187s-39.639-89.187-89.187-89.187c-49.548 0-89.187 39.639-89.187 89.187 0 49.548 39.639 89.187 89.187 89.187zm379.871 0c49.548 0 89.187-39.639 89.187-89.187s-39.639-89.187-89.187-89.187c-49.548 0-89.187 39.639-89.187 89.187 0 49.548 39.639 89.187 89.187 89.187zm-307.2 142.039l69.368 69.368-69.368 69.368c-13.213 13.213-13.213 36.335 0 49.548s36.335 13.213 49.548 0l69.368-69.368 69.368 69.368c6.606 6.606 16.516 9.91 26.426 9.91s19.819-3.303 29.729-6.606c13.213-13.213 13.213-36.335 0-49.548l-69.368-69.368 69.368-69.368c6.606-6.606 9.91-16.516 9.91-23.123 0-19.819-16.516-36.335-36.335-39.639-9.91 0-19.819 3.303-26.426 9.91l-69.368 69.368-69.368-69.368c-6.606-6.606-16.516-9.91-26.426-9.91s-19.819 3.303-26.426 9.91c-13.213 13.213-13.213 36.335 0 49.548z"/></svg>