<svg xmlns="http://www.w3.org/2000/svg" width="480" height="480" viewBox="0 0 480 480"><defs><clipPath id="a"><path d="M0 48h48V0H0v48z"/></clipPath><clipPath id="b"><path d="M0 48h48V0H0v48z"/></clipPath></defs><path d="M303.876 291.688c-4.216 4.456-7.944 8.832-12.12 12.735-6.08 5.674-12.12 11.5-18.816 16.38-16.847 12.287-35.903 15.612-56.079 11.405-19.735-4.111-33.087-16.614-42.015-34.293-.416-.833-.824-1.675-1.264-2.5-.08-.16-.304-.24-.376-.289-2.576 4.023-4.968 8.19-7.752 12.07-13.16 18.288-31.2 27.248-53.567 27.769-12.728.304-25.12-1.33-36.92-6.355-24.12-10.267-34.383-30.871-34.967-52.301h37.615c.28 1.25.568 2.645.904 4.023 2.736 11.052 8.528 19.579 20.064 22.56 12.392 3.198 23.6.785 32.56-8.896 11.351-12.254 12.911-33.483 3.648-47.404-9.688-14.562-31.696-18.36-45.976-7.862-2 1.467-4.152 3.006-5.536 5.001-2.72 3.927-6.248 4.624-10.704 4.464-8.711-.32-17.447-.1-26.831-.1C51.896 213.529 57.976 179.34 64.08 145h104.006v30.87h-3.744c-23.208 0-46.415.05-69.615-.06-2.632-.02-3.52.73-3.952 3.343-2.048 12.325-4.352 24.611-6.552 36.913-.096.505-.096 1.018.104 2.108 14.024-12.903 30.616-15.82 48.456-12.695 18.527 3.238 30.935 14.802 39.647 31.272 1-2.052 1.824-3.807 2.696-5.53 12.568-25.013 36.543-37.419 64.215-33.708 16.848 2.252 31.16 9.473 43.263 21.118 7.344 7.06 14.168 14.674 21.504 22.32l2.08-2.197c7.392-7.766 14.48-15.852 22.248-23.209 10.103-9.569 22.063-15.996 36.031-17.944 25.4-3.534 55.407 4.92 68.255 34.149 10.2 23.2 9.736 46.819-1.752 69.475-10.56 20.82-28.432 31.12-51.567 32.393-18.016 1.002-34.28-4.087-48.192-15.451-8.031-6.564-15.167-14.217-22.68-21.422-1.415-1.37-2.68-2.901-4.663-5.057zm-71.527 4.72c8-.1 15.336-2.436 22.248-6.363 10-5.69 17.711-14.089 25.887-21.927 1.168-1.122 1.352-2.107 0-3.374-6.4-5.962-12.568-12.165-19.111-17.951-5.648-4.993-12.08-8.856-19.36-11.084-17.472-5.362-33.136 3.053-37.68 20.3-.664 2.5-1.008 5.113-1.192 7.702-1.4 19.234 10.904 32.978 29.216 32.69zm92.735-30.454c8.12 7.462 14.92 14.202 22.247 20.317 8.232 6.868 17.896 10.434 28.76 10.218 14.312-.297 24.32-8.247 27.191-22.288.936-4.592 1.048-9.553.472-14.217-2.12-17.078-15.207-27.4-32.207-25.87-10.08.906-18.376 5.658-25.68 12.318-6.848 6.227-13.504 12.67-20.783 19.53z"/></svg>