<svg xmlns="http://www.w3.org/2000/svg" width="480" height="480"><defs><clipPath id="a"><path d="M0 48h48V0H0v48z"/></clipPath><clipPath id="b"><path d="M0 48h48V0H0v48z"/></clipPath></defs><path d="M149.825 219.943c-60.692 0-109.809 49.22-109.825 109.902.016 60.714 49.133 109.927 109.825 109.927 60.637 0 109.69-49.221 109.714-109.927v-31.37h-39.214v31.37c-.032 19.557-7.88 37.072-20.663 49.902-12.815 12.814-30.294 20.687-49.829 20.687-19.55 0-37.013-7.881-49.86-20.687-12.784-12.83-20.631-30.345-20.663-49.902.032-19.533 7.871-37.04 20.662-49.878 12.848-12.813 30.31-20.67 49.861-20.686h180.358c60.66 0 109.785-48.877 109.809-109.582-.024-60.73-49.15-109.903-109.81-109.927-60.644.02-109.777 49.19-109.8 109.927 0 30.841-.033 31.05-.033 31.05h39.19v-31.05c.032-19.533 7.991-37.04 20.815-49.902 12.807-12.782 30.286-20.67 49.829-20.67 19.534 0 37.045 7.88 49.86 20.686 12.768 12.83 20.631 30.345 20.631 49.878 0 19.573-7.855 37.072-20.638 49.878-12.8 12.813-30.319 20.35-49.853 20.374l-180.35-.008z"/></svg>