<svg xmlns="http://www.w3.org/2000/svg" viewBox="0 0 480 480" height="480" width="480"><defs><clipPath id="a"><path d="M0 48h48V0H0v48z"/></clipPath><clipPath id="b"><path d="M0 48h48V0H0v48z"/></clipPath></defs><path d="M395.19 338.626c-49.095 20.885-102.448 30.986-150.984 30.986-71.952 0-141.616-19.794-197.952-52.674-4.928-2.872-8.584 2.19-4.48 5.914 52.216 47.29 121.216 75.684 197.832 75.684 54.672 0 118.16-17.234 161.953-49.648 7.248-5.368 1.032-13.408-6.368-10.262z"/><path d="M438.47 313.713c-4.775-5.913-45.847-11.016-70.92 6.651-3.847 2.712-3.191 6.467 1.089 5.954 14.12-1.701 45.536-5.48 51.144 1.709 5.608 7.189-6.232 36.843-11.512 50.082-1.6 4.003 1.832 5.616 5.448 2.591 23.488-19.705 29.56-61.01 24.752-66.98zM261.734 165.77c-22.648 2.55-52.256 4.244-73.448 13.575-24.488 10.599-41.664 32.23-41.664 64.035 0 40.702 25.584 61.066 58.464 61.066 27.768 0 42.952-6.571 64.4-28.483 7.08 10.294 9.408 15.292 22.392 26.108 2.912 1.572 6.648 1.42 9.232-.907l.096.089c7.8-6.965 21.984-19.313 29.96-26.028 3.184-2.608 2.616-6.836.12-10.415-7.136-9.893-14.736-17.94-14.736-36.306v-61.026c0-25.875 1.816-49.625-17.176-67.437-14.984-14.426-39.832-19.505-58.832-19.505-37.184 0-78.664 13.921-87.36 59.975-.92 4.895 2.632 7.47 5.832 8.192l37.864 4.116c3.544-.184 6.112-3.674 6.784-7.205 3.248-15.87 16.504-23.524 31.4-23.524 8.032 0 17.168 2.968 21.928 10.181 5.48 8.064 4.744 19.08 4.744 28.411v5.087zm-7.304 81.429c-6.208 11.016-16.08 17.812-27.048 17.812-14.976 0-23.752-11.45-23.752-28.42 0-33.369 29.848-39.434 58.096-39.434v8.472c0 15.277.368 27.986-7.304 41.562z"/></svg>