<svg xmlns="http://www.w3.org/2000/svg" height="480" width="480"><defs><clipPath id="a"><path d="M0 48h48V0H0v48z"/></clipPath><clipPath id="b"><path d="M0 48h48V0H0v48z"/></clipPath></defs><path d="M401.291 174.704c-28.165 8.736-46.594 48.336-46.594 77.12 0 37.016 20.995 76.6 55.303 85.864-9.728 32.904-35.846 74.032-59.908 91.52-10.238 7.2-22.524 10.28-36.866 10.28-9.728 0-20.485-2.056-34.818-7.712-11.784-5.656-22.533-8.232-29.695-8.232-6.143 0-19.457 4.112-37.384 11.312-10.247 3.088-18.437 5.144-24.07 5.144-16.382 0-30.723-6.68-45.567-19.024C96.118 378.816 70 317.12 70 252.856c0-63.752 40.451-124.936 101.387-124.936 18.43 0 32.253 4.112 44.547 10.28 11.776 7.2 21.504 9.768 32.26 9.768 8.71 0 18.948-1.544 28.676-5.656 23.552-9.248 39.423-14.4 48.642-14.4 23.552 0 41.989 7.712 57.35 21.6 6.143 6.168 12.796 14.4 18.43 25.2zm-163.343-44.216c0-22.104 8.7-41.128 23.552-59.64C276.87 53.88 296.837 43.6 318.851 40c0 22.616-7.689 45.248-23.042 63.24-16.9 18.504-35.336 27.248-57.86 27.248z"/></svg>