<svg xmlns="http://www.w3.org/2000/svg" width="480" height="480" viewBox="0 0 480 480"><defs><clipPath id="a"><path d="M0 48h48V0H0v48z"/></clipPath><clipPath id="b"><path d="M0 48h48V0H0v48z"/></clipPath></defs><path d="M405.554 268.625l-43.336-28.67 43.336-28.671M257.102 390.642V310.41l74.67-49.785 60.003 40.228M239.99 280.627l-60.893-40.673 60.893-40.672 60.892 40.672m-78.005 150.688l-134.674-89.79 60.004-40.228 74.67 49.785M74.425 211.284l43.336 28.67-43.336 28.671M222.877 89.266V169.5l-74.67 49.785-60.004-40.228m168.899-89.79l134.673 89.79-60.003 40.228-74.67-49.785M440 176.834v-.89c0-.443 0-.889-.668-1.332 0-.217 0-.668-.217-1.333 0 0-.216 0-.443-.89 0-.217-.217-.443-.443-.667 0-.444-.217-.89-.444-1.111-.217-.444-.443-.668-.443-.89-.217-.443-.668-.668-.89-1.111-.217-.217-.217-.444-.443-.668 0-.443-.444-.89-.89-.89l-.667-.667c-.444-.443-.668-.668-1.111-.89l-.668-.667c-.217 0-.217 0-.217-.217L249.557 42.816c-5.778-3.779-13.334-3.779-19.112 0L47.546 164.61c0 .217 0 .217-.217.217l-.667.668c-.444.217-.668.443-1.111.889l-.668.668c-.217.217-.443.446-.89.89-.216.216-.216.443-.443.667-.217.443-.667.668-.89 1.111 0 .217-.216.444-.443.89a1.716 1.716 0 0 0-.445 1.11c-.217.218-.444.444-.444.668-.217.89-.217.89-.443.89-.217.668-.217 1.111-.217 1.333-.668.443-.668.89-.668 1.333V303.964c0 .443 0 .89.668 1.333 0 .217 0 .667.217 1.333.216 0 .216 0 .443.89 0 .216.217.443.444.667 0 .443.216.89.445 1.111.217.444.444.668.444.89.217.443.668.667.89 1.11.216.218.216.444.443.668.443.217.667.668.89.89l.667.667c.443.444.667.668 1.11.89l.668.668c.217 0 .217 0 .217.217l182.899 121.795c2.889 2 6.223 2.889 9.556 2.889 3.333 0 6.667-.89 9.556-2.89l182.899-121.794c0-.217 0-.217.216-.217l.668-.668c.444-.217.668-.444 1.111-.89l.668-.667c.217-.217.443-.668.89-.89.216-.217.216-.443.443-.667.217-.444.667-.668.89-1.112 0-.216.216-.443.443-.889.216-.217.443-.668.443-1.111.217-.217.443-.444.443-.665.217-.89.444-.89.444-.89.217-.668.217-1.111.217-1.333.668-.443.668-.89.668-1.333v-.89V179.06v-2.222z"/></svg>