<svg xmlns="http://www.w3.org/2000/svg" width="24" height="24"><path d="M16.42 19.02A57.5 57.5 0 0 0 15 13.77c.5-.07 1-.11 1.58-.11h.02c.93 0 1.95.12 3.06.37a7.788 7.788 0 0 1-3.24 4.99M12 20.4c-1.74 0-3.34-.57-4.64-1.54.28-.45.87-1.32 1.82-2.22.96-.93 2.32-1.89 4.05-2.46.59 1.67 1.13 3.57 1.54 5.71-.86.33-1.77.51-2.77.51m-7.8-7.8v-.11c.22.01.51.01.85.01h.01c1.56-.01 4.3-.14 7.08-1.01.15.33.3.67.45 1.03-1.86.62-3.32 1.61-4.4 2.58-1.03.96-1.74 1.89-2.15 2.5a7.704 7.704 0 0 1-1.84-5m4.35-7c.55.65 1.63 2.06 2.79 4.25-2.34.71-4.73.87-6.16.87h-.13c-.24 0-.45 0-.62-.01C5 8.47 6.5 6.6 8.55 5.6M12 4.8c1.84 0 3.53.64 4.86 1.71-1.02 1.23-2.36 2.09-3.83 2.74C12 7.27 11 5.85 10.34 4.98c.54-.11 1.09-.18 1.66-.18m6.13 2.98a7.823 7.823 0 0 1 1.66 4.45 15.32 15.32 0 0 0-3.19-.35h-.01c-.8 0-1.55.07-2.26.19-.17-.42-.33-.82-.52-1.21 1.58-.69 3.09-1.68 4.32-3.08M12 2.6c-5.52 0-10 4.48-10 10s4.48 10 10 10 10-4.48 10-10-4.48-10-10-10z"/></svg>