<svg xmlns="http://www.w3.org/2000/svg" viewBox="0 0 480 480" height="480" width="480"><defs><clipPath id="a"><path d="M0 48h48V0H0v48z"/></clipPath><clipPath id="b"><path d="M0 48h48V0H0v48z"/></clipPath></defs><path d="M157.714 55L240 123.118 322.286 55 440 130.897l-81.333 65.272L440 261.062l-117.714 76.466L240 269.031l-82.286 68.497L40 261.062l81.333-64.893L40 130.897 157.714 55M240 123.118l-118.667 73.051L240 269.031l118.667-72.862L240 123.118m0 160.713l82.857 68.307 35.238-22.959v25.616L240 425l-117.714-70.205v-25.616l35.428 22.96L240 283.83z"/></svg>