<svg xmlns="http://www.w3.org/2000/svg" width="480" height="480"><defs><clipPath id="a"><path d="M0 48h48V0H0v48z"/></clipPath><clipPath id="b"><path d="M0 48h48V0H0v48z"/></clipPath></defs><path d="M301.8 232.6c.14-19.498 24.757-35.93 39.842-19.413 5.59 5.87 8.449 14.924 7.072 19.413 0 0-32.905.141-46.914 0zM380 93.8c-14.728-16.027-37.509-22.364-58.482-25.444-17.167-.348-34.346-.064-51.518-.156-15.852-25.772-52.523-36.02-79.305-22.346-11.628 9.875-6.032 26.56-7.295 39.942V126.4c-5.994 5.543-11.114 13.128-17.653 17.4H90c-20.139 14.698-23.626 41.508-20.325 64.518 3.985 39.483 11.694 82.347 40.184 112.03 20.402 20.45 51.89 20.228 78.71 17.793 17.706-2.513 41.655-11.768 43.035-32.413.836-11.422-1.256-34.902 1.416-39.706 12.632 21.606 33.87 42.898 60.912 40.8 23.073.514 49.344 17.499 46.868 43.19 1.343 40.675 1.587 55.02-42.434 55.588-36.728.292-40.402-33.839-25.422-43.74 10.773-1.733 24.423 4.053 20.056-11.644V330.6c-25.569.261-58.02 10.843-62.886 39.617-4.365 26.706 7.987 58.512 35.961 66.272 65.065 18.551 123.004.25 135.487-79.173 14.084-53.89 9.877-110.316 6.552-165.295-3.638-33.716-6.666-70.367-28.114-98.221zm-230 32.4H85.2l81.2-81.8V110z"/></svg>