<svg xmlns="http://www.w3.org/2000/svg" width="480" height="480" viewBox="0 0 480 480"><defs><clipPath id="a"><path d="M0 48h48V0H0v48z"/></clipPath><clipPath id="b"><path d="M0 48h48V0H0v48z"/></clipPath></defs><path d="M439.824 283.728c-.032 26.078-3.12 51.757-12.449 76.348-15.96 42.078-46.601 66.828-90.275 76.028-13.297 2.8-26.77 3.904-40.346 3.896-74.907-.03-149.798-.02-224.697-.02h-3c-.096 0-.184-.552-.28-.832 14.169-14.103 28.385-28.183 42.522-42.326 38.817-38.822 77.595-77.676 116.389-116.514.44-.44.88-.888 1.32-1.328 2.032-2.024 4.248-3.464 7.24-2.136 2.976 1.328 3.784 3.824 3.784 6.903-.048 19.896-.024 39.783-.024 59.678v3.88c0 .167 1.248.447 1.816.431 16.969-.288 33.945-.272 50.882-1.096 6.232-.304 12.569-2.023 18.505-4.08 18.657-6.48 28.513-20.766 32.185-39.35 2.008-10.15 3.048-20.63 3.152-30.982.368-35.718.184-71.452.104-107.179-.007-2.392.752-4.031 2.416-5.695a42981.723 42981.723 0 0 0 87.452-87.596c.848-.848 1.384-2.096 2.016-3.152.432.296 1.464.6 1.464.896v3.296c0 70.3-.12 140.617-.192 210.926zm-306.54 31.198c-.064-34.998-.272-69.997.096-104.987.112-10.767 1-21.679 2.992-32.254 3.784-20.135 14.664-34.935 35.065-41.198 4.064-1.248 8.28-2.568 12.465-2.72 18.4-.68 36.873-.936 55.282-1.344.168 0 .832.184.832.44v3.224c0 19.583-.056 39.166-.048 58.749 0 1.048-.368 2.28.08 3.08 1.056 1.88 2.168 3.952 3.832 5.2 1.952 1.455 4.2.463 5.984-1.064.952-.816 1.808-1.72 2.696-2.6C304.683 147.27 356.797 95.089 408.903 42.923c.728-.736 1.424-2.92 2.768-2.92h-3.832c-74.891 0-149.79-.007-224.681 0-13.257 0-26.417 1.104-39.418 3.768-45.25 9.296-76.45 35.047-92.132 78.876-8.632 24.135-11.448 49.19-11.448 74.645 0 69.996-.16 139.977-.16 209.973v3.96c1.6-1.192 2.184-1.848 2.896-2.56 29.281-29.35 58.626-58.709 87.956-88.011 1.68-1.68 2.432-3.352 2.432-5.72z"/></svg>