<svg xmlns="http://www.w3.org/2000/svg" height="480" width="480"><defs><clipPath id="a"><path d="M0 48h48V0H0v48z"/></clipPath><clipPath id="b"><path d="M0 48h48V0H0v48z"/></clipPath></defs><path d="M420 179.236c0-28.395-10.167-51.592-26.966-69.801 2.72-6.558 11.692-33-2.574-68.833 0 0-21.97-6.99-71.997 26.657-20.947-5.765-43.386-8.656-65.655-8.76-22.27.104-44.685 2.987-65.591 8.76-50.075-33.647-72.078-26.657-72.078-26.657-14.226 35.826-5.261 62.275-2.542 68.833-16.767 18.217-27.006 41.414-27.006 69.801 0 99.653 61.193 121.954 119.401 128.528-7.496 6.494-14.29 17.97-16.638 34.777-14.96 6.646-52.89 18.137-76.265-21.62 0 0-13.854-24.976-40.175-26.81 0 0-25.57-.336-1.79 15.815 0 0 17.177 7.992 29.095 38.052 0 0 15.379 46.42 88.288 30.685.113 21.732.355 55.147.355 61.337h129.94c0-8.568.306-49.494.306-84.295 0-24.263-8.375-40.085-17.776-48.165C358.694 301.102 420 279.105 420 179.22zM90.004 306.155c-.572 1.297-2.622 1.681-4.486.793-1.904-.85-2.961-2.61-2.356-3.908.565-1.33 2.614-1.698 4.519-.817 1.896.849 2.985 2.635 2.323 3.924zm10.619 11.755c-1.25 1.153-3.696.616-5.35-1.201-1.718-1.818-2.033-4.236-.766-5.405 1.29-1.153 3.663-.609 5.374 1.2 1.718 1.834 2.049 4.237.742 5.406zm10.328 14.966c-1.606 1.105-4.236.07-5.858-2.242-1.606-2.314-1.606-5.085.032-6.198 1.622-1.105 4.212-.104 5.858 2.186 1.606 2.354 1.606 5.125-.032 6.254zm14.16 14.477c-1.436 1.57-4.502 1.153-6.737-1-2.291-2.099-2.929-5.07-1.493-6.647 1.46-1.57 4.535-1.137 6.794 1.001 2.276 2.098 2.962 5.085 1.437 6.646zm19.527 8.408c-.638 2.034-3.583 2.963-6.552 2.098-2.961-.897-4.906-3.275-4.3-5.333.613-2.05 3.582-3.019 6.56-2.09 2.96.89 4.905 3.251 4.284 5.325zm15.887 5.51c-3.13.07-5.672-1.666-5.704-3.772 0-2.17 2.46-3.924 5.6-3.98 3.114-.06 5.672 1.666 5.672 3.796.064 2.138-2.453 3.923-5.568 3.955zm20.632-2.515c-3.042.553-5.858-.737-6.245-2.819-.371-2.146 1.831-4.3 4.865-4.852 3.099-.537 5.874.72 6.27 2.85.37 2.09-1.8 4.236-4.89 4.813z"/></svg>