<svg xmlns="http://www.w3.org/2000/svg" width="480" height="480" viewBox="0 0 480 480"><defs><clipPath id="a"><path d="M0 48h48V0H0v48z"/></clipPath><clipPath id="b"><path d="M0 48h48V0H0v48z"/></clipPath></defs><path d="M240 45C129.6 45 40 134.529 40 244.841c0 88.33 57.4 163.27 136.8 189.85 10 1.598 13.2-4.597 13.2-9.993v-33.773c-55.4 11.99-67.2-26.779-67.2-26.779-9.2-23.181-22.2-29.376-22.2-29.376-18.2-12.39 1.4-11.99 1.4-11.99 20 1.398 30.6 20.583 30.6 20.583 17.4 30.376 46.8 21.383 58.2 16.587 1.8-12.99 7-21.783 12.6-26.779-44.4-4.996-91-22.182-91-98.322 0-22.182 7.6-39.968 20.6-54.157-2-4.996-9-25.78 2-52.758 0 0 16.8-5.396 55 20.384 15.8-4.397 33-6.595 50-6.595s34.2 2.198 50 6.595c38.2-25.78 55-20.384 55-20.384 11 26.979 4 47.762 2 52.758 13 14.189 20.6 31.975 20.6 54.157 0 76.34-46.8 93.126-91.4 98.122 7.2 6.195 13.8 18.386 13.8 36.97v54.757c0 5.396 3.2 11.791 13.4 9.992C382.8 407.912 440 333.171 440 244.841 440 134.53 350.4 45 240 45z"/></svg>