<svg xmlns="http://www.w3.org/2000/svg" viewBox="0 0 480 480" height="480" width="480"><defs><clipPath id="a"><path d="M0 48h48V0H0v48z"/></clipPath><clipPath id="b"><path d="M0 48h48V0H0v48z"/></clipPath></defs><path d="M80 40h320c22 0 40 18 40 40v320c0 22-18 40-40 40H297c-7-1.6-7-15.2-7-20v-54.8c0-18.6-6.6-30.8-13.8-37 44.6-5 91.4-21.8 91.4-98.2 0-22.2-7.6-40-20.6-54.2 2-5 9-25.8-2-52.8 0 0-16.8-5.4-55 20.4-15.8-4.4-33-6.6-50-6.6s-34.2 2.2-50 6.6c-38.2-25.8-55-20.4-55-20.4-11 27-4 47.8-2 52.8-13 14.2-20.6 32-20.6 54.2 0 76.2 46.6 93.4 91 98.4-5.6 5-10.8 13.8-12.6 26.8-11.4 4.8-40.8 13.8-58.2-16.6 0 0-10.6-19.2-30.6-20.6 0 0-19.6-.4-2 12 0 0 13.6 6.2 22.8 29.4 0 0 11.8 38.8 67.2 26.8V420c0 4.8 0 18.4-7.2 20H80c-22 0-40-18-40-40V80c0-22 18-40 40-40z"/></svg>