<svg xmlns="http://www.w3.org/2000/svg" viewBox="0 0 480 480" height="480" width="480"><defs><clipPath id="a"><path d="M0 48h48V0H0v48z"/></clipPath><clipPath id="b"><path d="M0 48h48V0H0v48z"/></clipPath></defs><path d="M252.755 415.527c-56.633 0-92.687-25.147-92.687-62.447 0-37.13 33.333-49.114 45.068-53.333 22.109-7.426 51.02-8.27 55.612-8.27 5.102 0 7.823 0 12.415.337 39.796 28.524 56.973 41.182 56.973 68.017 0 29.874-30.952 55.696-77.38 55.696M190.68 111.9c0-37.3 22.28-54.177 45.749-54.177 45.238 0 68.197 58.227 68.197 93.333 0 43.375-35.204 51.814-49.15 51.814-41.837 0-64.796-51.645-64.796-90.97M320.782 266.16l-18.367-14.346c-6.122-5.063-13.946-11.645-13.946-23.966 0-12.32 9.354-21.772 16.497-27.342 22.279-17.215 43.707-35.443 43.707-73.249 0-34.936-21.598-55.02-34.693-66.16h29.761L365 40H259.048c-74.15 0-112.245 45.738-112.245 96.54 0 39.325 30.442 81.52 84.694 81.52h13.605c-2.21 5.906-5.952 14.176-5.952 21.94 0 17.046 7.143 24.135 15.646 33.755-24.15 1.688-68.197 7.258-100.68 27.004C122.483 319.325 115 345.148 115 364.051 115 402.869 150.034 440 226.735 440c90.986 0 136.564-49.958 136.564-99.24 0-36.456-19.217-55.19-42.517-74.6z"/></svg>