<svg xmlns="http://www.w3.org/2000/svg" width="24" height="24"><path d="M12.4 7.56C9.6 4.91 7.3 5.65 6.31 6.1c.75-.72 1.63-1.3 2.61-1.7 2.78-.1 5.91.44 7.64 2.91 0 0 2.44 4.19 3.3 2.34.22.75.34 1.53.34 2.35 0 .3-.02.59-.05.88-2.03-.23-4.82-2.56-7.75-5.32m6.7 8.54c-.94.37-2.1 1-3.96 1-1.88 0-3.53-.75-5.58-1.4-1.86-.59-2.56-1.5-3.84-1.5-.66 0-.99.66-1.17 1.21a8.1 8.1 0 0 1-.41-5.73c1.26-1.58 3.19-2.56 5.95-.42 0 0 6.23 4.66 9.79 4.97-.18.66-.45 1.27-.78 1.87M12 20.2c-1.12 0-2.19-.23-3.17-.64-.62-1.48-.61-2.64 1.12-2.06 0 0 3.92 1.5 8.05.08a8.175 8.175 0 0 1-6 2.62M12 2C6.48 2 2 6.48 2 12s4.48 10 10 10 10-4.48 10-10c0-5.53-4.5-10-10-10z"/></svg>