<svg xmlns="http://www.w3.org/2000/svg" width="480" height="480"><defs><clipPath id="a"><path d="M0 48h48V0H0v48z"/></clipPath><clipPath id="b"><path d="M0 48h48V0H0v48z"/></clipPath></defs><path d="M168.223 216.2c.008 16.653-.016 33.306.008 49.959 23.287-.008 46.581-.008 69.86 0-2.696 15.958-12.2 30.55-25.67 39.535-8.464 5.687-18.2 9.377-28.23 11.126-10.096 1.717-20.528 1.94-30.6-.096-10.239-2.037-20.014-6.302-28.542-12.3-13.63-9.568-24.038-23.561-29.382-39.304-5.464-16.021-5.504-33.84.024-49.846 3.832-11.277 10.223-21.7 18.607-30.174 10.343-10.575 23.799-18.13 38.286-21.23 12.407-2.643 25.494-2.14 37.638 1.534 10.327 3.13 19.847 8.777 27.638 16.213 7.88-7.827 15.72-15.694 23.591-23.53 4.128-4.216 8.463-8.25 12.455-12.587-11.951-11.038-25.95-19.911-41.253-25.526-27.55-10.127-58.621-10.335-86.356-.75-31.254 10.686-57.868 34.024-72.628 63.52a127.449 127.449 0 0 0-11.143 32.17c-5.672 27.803-1.72 57.443 11.127 82.77 8.352 16.524 20.32 31.22 34.83 42.737 13.696 10.902 29.663 18.961 46.582 23.45 21.359 5.718 44.093 5.59 65.588.703 19.431-4.465 37.814-13.73 52.485-27.26 15.511-14.232 26.583-32.986 32.439-53.137 6.391-21.98 7.271-45.453 3.263-67.952-40.213-.016-80.427-.008-120.641-.008zM440 218.916h-43.902v-43.832h-31.934v43.832h-43.901V250.8h43.901v43.832h31.934V250.8H440z"/></svg>