<svg xmlns="http://www.w3.org/2000/svg" width="24" height="24" viewBox="0 0 24 24"><path d="M18 1c2.76 0 5 2.24 5 5 0 2.5-5 8-4.75 11 0 .14-.11.25-.25.25s-.25-.11-.25-.25C18 14 13 8.5 13 6c0-2.76 2.24-5 5-5m0 3c-1.1 0-2 .9-2 2s.9 2 2 2 2-.9 2-2-.9-2-2-2M4 3h8.67c-.57.94-.9 2.05-.9 3.23 0 .98.63 2.35 1.48 3.88L2.03 21.34 2 21V5c0-1.1.9-2 2-2m12.53 12.87l-2.4-2.37.69-.71c.61 1.03 1.21 2.08 1.71 3.08M19.41 23H4.61L12 15.6l7.41 7.4M22 11.41V21l-.03.32-3.36-3.37c.62-1.98 2.1-4.35 3.39-6.54M6.69 12.5c-1.06 0-1.73-.5-1.73-1.18 0-.69.62-.92.84-1 .41-.13.95-.15 1.04-.15l.22.01c.75.53 1.07.77 1.07 1.27 0 .55-.58 1.05-1.44 1.05M5.53 6.8c0-.7.42-1.01.85-1.01.84 0 1.27 1.09 1.27 1.75 0 .81-.65.96-.91.96-.78 0-1.21-.96-1.21-1.7m2.42 2.89l-.34-.27c-.11-.09-.26-.21-.26-.42 0-.26.15-.43.31-.54.41-.32.81-.66.81-1.37 0-.65-.4-1.03-.64-1.24h.55l.4-.4H6.8c-1.38 0-2.08.86-2.08 1.82 0 .73.56 1.52 1.57 1.52h.25l-.11.41c0 .3.14.46.3.64-.45.02-1.27.13-1.88.5-.59.35-.73.84-.73 1.19 0 .73.66 1.42 2.08 1.42 1.7 0 2.54-.95 2.54-1.86 0-.68-.35-1.03-.79-1.4z"/></svg>