<svg xmlns="http://www.w3.org/2000/svg" viewBox="0 0 480 480" height="480" width="480" id="svg3390"><defs id="defs3394"><clipPath id="clipPath3404"><path id="path3406" d="M0 48h48V0H0v48z"/></clipPath><clipPath id="clipPath3416"><path id="path3418" d="M0 48h48V0H0v48z"/></clipPath><clipPath id="clipPath3426"><path id="path3428" d="M0 48h48V0H0v48z"/></clipPath><clipPath id="clipPath3434"><path id="path3436" d="M0 48h48V0H0v48z"/></clipPath><clipPath id="clipPath3442"><path id="path3444" d="M0 48h48V0H0v48z"/></clipPath><clipPath id="clipPath3446"><path id="path3448" d="M0 48h48V0H0v48z"/></clipPath><clipPath id="clipPath3450"><path id="path3452" d="M48 48H0V0h48v48z"/></clipPath><clipPath id="clipPath3658"><path id="path3660" d="M0 48h48V0H0v48z"/></clipPath><clipPath id="clipPath3668"><path id="path3670" d="M0 48h48V0H0v48z"/></clipPath><clipPath id="clipPath3676"><path id="path3678" d="M0 48h48V0H0v48z"/></clipPath><clipPath id="clipPath3680"><path id="path3682" d="M0 0h48v48H0V0z"/></clipPath></defs><g transform="matrix(1.19043 0 0 -1.19048 11.43 468.571)" id="g3398"><g transform="matrix(4.43828 0 0 -4.44444 32 352)" id="g4012"><path d="M80.154 40C57.964 40 40 57.989 40 80.21v320.108C40 422.011 57.964 440 80.154 440h319.674c22.19 0 40.816-17.999 40.154-40.21V89.735c0-22.222-18.49-49.736-40.681-49.736H80.154zm101.434 98.133c27.936 0 51.3 10.188 68.062 26.996l-27.427 26.484c-7.111-7.13-20.318-15.789-40.635-15.789-35.048 0-62.477 29.032-62.477 64.176 0 35.144 27.43 64.176 62.477 64.176 41.143 0 55.364-29.032 58.412-43.803h-58.412v-35.144h96c1.524 5.602 1.523 10.187 1.523 17.318 0 58.573-39.11 99.32-97.523 99.32C125.207 341.867 80 296.536 80 240s44.699-101.867 101.588-101.867zm160 58.064h29.459v29.032H400l-.508 29.033H370.54v29.031h-28.951v-29.031h-28.953v-29.033h28.953v-29.032z" transform="matrix(.18927 0 0 .189 -9.373 -9.36)" id="path4001"/></g></g><style id="style3999"></style></svg>