<svg xmlns="http://www.w3.org/2000/svg" width="480" height="480"><path d="M25.356 144.396c148.534-97.009 195.326 27.507 199.19 96.17 3.863 68.452-64.179 154.753-149.607 97.64v112.967l-49.583-32.127v-274.65m47.65 35.906V293.27c77.702 45.565 104.318 8.19 104.318-56.484 0-91.34-53.876-94.49-104.317-56.484M306.11 112.06s-3.863 73.282 0 145.304c7.728 72.022 98.951 16.168 98.951 16.168V128.228l49.583 5.88v194.018c0 129.346-132.006 123.047-132.006 123.047l-16.528-48.295c115.479 0 100.883-74.962 100.883-74.962C267.26 381.25 256.528 289.7 256.528 289.7V144.396l49.582-32.336z"/></svg>