<svg xmlns="http://www.w3.org/2000/svg" height="480" width="480" id="svg3390"><defs id="defs3394"><clipPath id="clipPath3404"><path id="path3406" d="M0 48h48V0H0v48z"/></clipPath><clipPath id="clipPath3416"><path id="path3418" d="M0 48h48V0H0v48z"/></clipPath><clipPath id="clipPath3426"><path id="path3428" d="M0 48h48V0H0v48z"/></clipPath><clipPath id="clipPath3434"><path id="path3436" d="M0 48h48V0H0v48z"/></clipPath><clipPath id="clipPath3442"><path id="path3444" d="M0 48h48V0H0v48z"/></clipPath><clipPath id="clipPath3446"><path id="path3448" d="M0 48h48V0H0v48z"/></clipPath><clipPath id="clipPath3450"><path id="path3452" d="M48 48H0V0h48v48z"/></clipPath><clipPath id="clipPath3658"><path id="path3660" d="M0 48h48V0H0v48z"/></clipPath><clipPath id="clipPath3668"><path id="path3670" d="M0 48h48V0H0v48z"/></clipPath><clipPath id="clipPath3676"><path id="path3678" d="M0 48h48V0H0v48z"/></clipPath><clipPath id="clipPath3680"><path id="path3682" d="M0 0h48v48H0V0z"/></clipPath></defs><g transform="matrix(1.25 0 0 -1.25 0 480)" id="g3398"><path d="M275.778 102c-63.415 0-85.407 28.946-97.139 64.949l-11.732 37.11c-8.8 27.093-19.066 48.25-51.318 48.25-22.363 0-45.09-16.33-45.09-61.98 0-35.628 17.959-57.9 43.26-57.9 28.59 0 47.65 21.527 47.65 21.527l11.732-32.29S153.338 102 111.921 102C60.598 102 32 132.43 32 188.844c0 58.637 28.597 93.15 82.475 93.15 48.752 0 73.323-17.814 88.71-66.064l12.096-37.11c8.8-27.093 24.2-46.766 61.22-46.766 24.923 0 38.12 5.573 38.12 19.297 0 10.763-6.227 18.559-24.922 23.017l-24.936 5.936c-30.421 7.426-42.518 23.386-42.518 48.625 0 40.455 32.258 53.071 65.252 53.071 37.391 0 60.112-13.731 63.044-47.129l-36.655-4.458c-1.466 15.954-11.003 22.641-28.597 22.641-16.136 0-26.03-7.426-26.03-20.042 0-11.14 4.761-17.814 20.89-21.527l23.458-5.197c31.522-7.42 48.393-23.004 48.393-53.07 0-37.111-30.786-51.212-76.248-51.212z" id="path4129"/></g><style id="style3999"></style><style id="style4048"></style></svg>