<svg xmlns="http://www.w3.org/2000/svg" viewBox="0 0 480 480" height="480" width="480" id="svg3390"><defs id="defs3394"><clipPath id="clipPath3404"><path id="path3406" d="M0 48h48V0H0v48z"/></clipPath><clipPath id="clipPath3416"><path id="path3418" d="M0 48h48V0H0v48z"/></clipPath><clipPath id="clipPath3426"><path id="path3428" d="M0 48h48V0H0v48z"/></clipPath><clipPath id="clipPath3434"><path id="path3436" d="M0 48h48V0H0v48z"/></clipPath><clipPath id="clipPath3442"><path id="path3444" d="M0 48h48V0H0v48z"/></clipPath><clipPath id="clipPath3446"><path id="path3448" d="M0 48h48V0H0v48z"/></clipPath><clipPath id="clipPath3450"><path id="path3452" d="M48 48H0V0h48v48z"/></clipPath><clipPath id="clipPath3658"><path id="path3660" d="M0 48h48V0H0v48z"/></clipPath><clipPath id="clipPath3668"><path id="path3670" d="M0 48h48V0H0v48z"/></clipPath><clipPath id="clipPath3676"><path id="path3678" d="M0 48h48V0H0v48z"/></clipPath><clipPath id="clipPath3680"><path id="path3682" d="M0 0h48v48H0V0z"/></clipPath></defs><g transform="matrix(1.25 0 0 -1.25 0 480)" id="g3398"><g transform="matrix(6.38398 0 0 -6.40003 32.167 352.07)" id="g4172"><path d="M25 25.32c6.989 0 12.654-5.665 12.654-12.655C37.654 5.675 31.989.011 25 .011c-6.99 0-12.654 5.666-12.654 12.654 0 6.988 5.665 12.655 12.654 12.655zm0-18.88a6.225 6.225 0 1 1 0 12.45 6.226 6.226 0 0 1 0-12.45z" id="path4162"/><path d="M39.587 26.864c-.714-1.436-2.694-2.629-5.323-.558C30.709 29.108 25 29.108 25 29.108s-5.71 0-9.265-2.802c-2.63-2.072-4.608-.879-5.323.558-1.246 2.502.162 3.712 3.337 5.75 2.713 1.742 6.44 2.392 8.846 2.635l-2.01 2.01-7.456 7.456a2.902 2.902 0 0 0 0 4.104l.342.342a2.902 2.902 0 0 0 4.104 0l7.458-7.456 7.456 7.456a2.902 2.902 0 0 0 4.104 0l.342-.342a2.902 2.902 0 0 0 0-4.104l-9.473-9.473c2.409-.248 6.096-.901 8.786-2.629 3.175-2.038 4.583-3.248 3.338-5.749z" id="path4164"/></g></g><style id="style3999"></style><style id="style4048"></style></svg>