<svg xmlns="http://www.w3.org/2000/svg" height="480" width="480" id="svg3390"><defs id="defs3394"><clipPath id="clipPath3404"><path id="path3406" d="M0 48h48V0H0v48z"/></clipPath><clipPath id="clipPath3416"><path id="path3418" d="M0 48h48V0H0v48z"/></clipPath><clipPath id="clipPath3426"><path id="path3428" d="M0 48h48V0H0v48z"/></clipPath><clipPath id="clipPath3434"><path id="path3436" d="M0 48h48V0H0v48z"/></clipPath><clipPath id="clipPath3442"><path id="path3444" d="M0 48h48V0H0v48z"/></clipPath><clipPath id="clipPath3446"><path id="path3448" d="M0 48h48V0H0v48z"/></clipPath><clipPath id="clipPath3450"><path id="path3452" d="M48 48H0V0h48v48z"/></clipPath><clipPath id="clipPath3658"><path id="path3660" d="M0 48h48V0H0v48z"/></clipPath><clipPath id="clipPath3668"><path id="path3670" d="M0 48h48V0H0v48z"/></clipPath><clipPath id="clipPath3676"><path id="path3678" d="M0 48h48V0H0v48z"/></clipPath><clipPath id="clipPath3680"><path id="path3682" d="M0 0h48v48H0V0z"/></clipPath></defs><g transform="matrix(1.25 0 0 -1.25 0 480)" id="g3398"><g transform="matrix(6.47079 0 0 -6.4 30.227 352)" id="g4192"><path d="M31.221 10.6v9.78l3.418 2.152c.09.026.286.029.376 0l14.71-9.917c0-1.174-1.094-2.015-1.713-2.015H31.221z" id="path4178"/><path d="M31.221 24.031l3.12 2.142c.438.323.968 0 .968 0-.527.323 14.418-9.604 14.418-9.604v17.976c0 1.957-1.253 2.777-2.661 2.777H31.22V24.03h.001z" id="path4180"/><path d="M15.072 19.521c-1.064 0-1.91.5-2.537 1.497-.625.997-.938 2.317-.938 3.961 0 1.667.313 2.985.938 3.955.627.972 1.448 1.454 2.46 1.454 1.046 0 1.877-.472 2.488-1.414.613-.942.921-2.253.921-3.926 0-1.745-.298-3.103-.891-4.073-.596-.97-1.408-1.454-2.441-1.454z" id="path4182"/><path d="M.274 5.634v38.264L29.382 50V0L.274 5.634zm19.478 25.599c-1.23 1.618-2.835 2.431-4.813 2.431-1.928 0-3.499-.786-4.713-2.353-1.213-1.569-1.822-3.614-1.822-6.133 0-2.66.617-4.813 1.849-6.457 1.234-1.644 2.868-2.466 4.901-2.466 1.922 0 3.477.786 4.66 2.359 1.187 1.573 1.781 3.646 1.781 6.222.002 2.647-.613 4.78-1.843 6.398z" id="path4184"/></g></g><style id="style3999"></style><style id="style4048"></style></svg>