<svg xmlns="http://www.w3.org/2000/svg" width="1792" height="1792" viewBox="0 0 1792 1792"><path d="M1059.996 602.934q0-120.72-179.94-120.72h-53.147q-24.295 0-45.175 16.324-20.879 16.324-26.193 39.86l-47.832 209.55q-1.519 3.797-1.519 12.148 0 18.222 12.907 29.99 12.907 11.768 31.13 11.768h40.239q52.387 0 97.562-9.87t85.414-31.129q40.24-21.258 63.397-61.878 23.157-40.619 23.157-96.043zm458.58 115.404q0 201.198-167.032 324.954-166.274 122.238-464.655 122.238h-46.313q-24.296 0-44.796 16.324-20.499 16.323-25.814 39.86l-55.424 239.92q-6.074 27.332-30.75 46.692-24.675 19.361-52.767 19.361H469.308q-23.537 0-40.24-15.185-16.703-15.185-16.703-38.72 0-7.593 9.87-49.352H536.88q25.814 0 48.591-17.842t28.851-42.897l55.425-239.92q6.074-25.054 28.471-43.276 22.398-18.222 48.212-18.222h46.313q296.104 0 460.859-121.478t164.755-319.64q0-97.942-38.722-157.162 138.941 69.85 138.941 254.345zm-138.94-140.46q0 200.44-167.792 324.955-165.515 122.238-464.655 122.238h-45.554q-24.296 0-45.175 16.703-20.88 16.703-26.194 40.24l-55.424 239.16q-6.074 27.333-30.37 46.693-24.295 19.36-52.387 19.36H329.607q-23.536 0-39.86-14.804-16.323-14.806-16.323-39.101 0-6.074 1.518-15.185l227.772-987.77q6.074-27.333 30.75-46.694 24.675-19.36 52.766-19.36h337.103q51.628 0 94.905 3.037 43.276 3.037 91.488 11.388 48.212 8.352 86.174 22.778 37.962 14.425 73.266 38.341 35.305 23.916 58.841 56.184 23.537 32.268 37.583 78.581 14.046 46.314 14.046 103.257z"/></svg>