<svg xmlns="http://www.w3.org/2000/svg" id="svg3390" width="480" height="480"><defs id="defs3394"><clipPath id="clipPath3404"><path d="M0 48h48V0H0v48z" id="path3406"/></clipPath><clipPath id="clipPath3416"><path d="M0 48h48V0H0v48z" id="path3418"/></clipPath><clipPath id="clipPath3426"><path d="M0 48h48V0H0v48z" id="path3428"/></clipPath><clipPath id="clipPath3434"><path d="M0 48h48V0H0v48z" id="path3436"/></clipPath><clipPath id="clipPath3442"><path d="M0 48h48V0H0v48z" id="path3444"/></clipPath><clipPath id="clipPath3446"><path d="M0 48h48V0H0v48z" id="path3448"/></clipPath><clipPath id="clipPath3450"><path d="M48 48H0V0h48v48z" id="path3452"/></clipPath><clipPath id="clipPath3658"><path d="M0 48h48V0H0v48z" id="path3660"/></clipPath><clipPath id="clipPath3668"><path d="M0 48h48V0H0v48z" id="path3670"/></clipPath><clipPath id="clipPath3676"><path d="M0 48h48V0H0v48z" id="path3678"/></clipPath><clipPath id="clipPath3680"><path d="M0 0h48v48H0V0z" id="path3682"/></clipPath></defs><g id="g3398" transform="matrix(1.25 0 0 -1.25 0 480)"><path id="path4200" d="M230.552 351.994H115.327a16.005 16.005 0 0 1-15.818-13.517L52.92 43.09C51.998 37.267 56.505 32 62.4 32h55.027c7.873 0 14.575 5.734 15.805 13.504l12.578 79.7c1.216 7.782 7.938 13.516 15.805 13.516h36.456c75.895 0 119.706 36.717 131.151 109.504 5.16 31.814.211 56.826-14.691 74.336-16.387 19.251-45.43 29.44-83.98 29.44zm13.295-107.892c-6.299-41.35-37.883-41.35-68.443-41.35h-17.38l12.201 77.203c.723 4.666 4.75 8.096 9.48 8.096h7.977c20.798 0 40.437 0 50.57-11.84 6.056-7.091 7.887-17.6 5.602-32.109z"/></g><style id="style3999"></style><style id="style4048"></style></svg>