<svg xmlns="http://www.w3.org/2000/svg" id="svg3390" width="480" height="480" viewBox="0 0 480 480"><defs id="defs3394"><clipPath id="clipPath3404"><path d="M0 48h48V0H0v48z" id="path3406"/></clipPath><clipPath id="clipPath3416"><path d="M0 48h48V0H0v48z" id="path3418"/></clipPath><clipPath id="clipPath3426"><path d="M0 48h48V0H0v48z" id="path3428"/></clipPath><clipPath id="clipPath3434"><path d="M0 48h48V0H0v48z" id="path3436"/></clipPath><clipPath id="clipPath3442"><path d="M0 48h48V0H0v48z" id="path3444"/></clipPath><clipPath id="clipPath3446"><path d="M0 48h48V0H0v48z" id="path3448"/></clipPath><clipPath id="clipPath3450"><path d="M48 48H0V0h48v48z" id="path3452"/></clipPath><clipPath id="clipPath3658"><path d="M0 48h48V0H0v48z" id="path3660"/></clipPath><clipPath id="clipPath3668"><path d="M0 48h48V0H0v48z" id="path3670"/></clipPath><clipPath id="clipPath3676"><path d="M0 48h48V0H0v48z" id="path3678"/></clipPath><clipPath id="clipPath3680"><path d="M0 0h48v48H0V0z" id="path3682"/></clipPath></defs><g id="g3398" transform="matrix(1.25 0 0 -1.25 0 480)"><g id="g4232" transform="matrix(6.4 0 0 -6.31778 31.988 349.938)"><path id="path4222" d="M49.951 33.375c-.525-2.36-4.293-3.638-10.094-4.065-4.162-.295-8.258.623-12.256 1.999l-.642.225.019-17.629c0-1.54 3.113-1.442 3.113.229v13.832c6.325 1.835 9.569-.983 9.635-7.998.065-6.031-3.965-9.472-10.552-11.242l-10.29-2.721v20.977l-3.179 1.081 3.179.983v5.244l-7.504 2.524c-2.458.852-4.556-1.147-2.294-1.967l1.835-.655-6.915-2.196c-2.131.721-4.129 2.262-3.998 4.425.131 2.196 5.145 2.721 9.012 3.344 3.604.59 6.882.262 9.865-.787v-2.262 4.655l8.062 2.622v-.164l.065.164 7.046-2.458 11.7-4.129-7.603-2.36-11.202 3.833.003-2.656 7.169-2.456 4.194-1.41c4.392-.819 6.162.623 1.933 1.967l-2.098.721 7.603 2.36.131-.033c3.081-1.082 4.392-2.59 4.065-3.999z"/><path id="path4224" d="M4.004 31.998l6.915 2.196 7.964-2.852v-2.294l-3.179-.983-11.537 3.9c-.033 0-.098.033-.163.033z"/></g></g><style id="style3999"></style><style id="style4048"></style></svg>