<svg xmlns="http://www.w3.org/2000/svg" id="svg3390" width="480" height="480"><defs id="defs3394"><clipPath id="clipPath3404"><path d="M0 48h48V0H0v48z" id="path3406"/></clipPath><clipPath id="clipPath3416"><path d="M0 48h48V0H0v48z" id="path3418"/></clipPath><clipPath id="clipPath3426"><path d="M0 48h48V0H0v48z" id="path3428"/></clipPath><clipPath id="clipPath3434"><path d="M0 48h48V0H0v48z" id="path3436"/></clipPath><clipPath id="clipPath3442"><path d="M0 48h48V0H0v48z" id="path3444"/></clipPath><clipPath id="clipPath3446"><path d="M0 48h48V0H0v48z" id="path3448"/></clipPath><clipPath id="clipPath3450"><path d="M48 48H0V0h48v48z" id="path3452"/></clipPath><clipPath id="clipPath3658"><path d="M0 48h48V0H0v48z" id="path3660"/></clipPath><clipPath id="clipPath3668"><path d="M0 48h48V0H0v48z" id="path3670"/></clipPath><clipPath id="clipPath3676"><path d="M0 48h48V0H0v48z" id="path3678"/></clipPath><clipPath id="clipPath3680"><path d="M0 0h48v48H0V0z" id="path3682"/></clipPath></defs><g id="g3398" transform="matrix(1.25 0 0 -1.25 0 480)"><path id="path4238" d="M351.995 297.109c-.006 8.5.377 16.77-4.307 24.242-3.712 5.917-9.85 10.492-16.556 12.394-8.243 2.326-17.708 1.69-26.188 1.69-37.617-.017-75.234.565-112.858.565H65.01c-3.962 0-7.808-.52-11.66-1.613-13.306-3.771-21.312-16.204-21.33-29.754-.025-18.82.04-37.787.031-56.606-.006-18.556-.358-37.188.896-55.712 1.171-17.239 5.881-34.484 13.023-50.168C58.903 113.717 80.355 89.783 106.536 73c28.517-18.273 62.883-26.998 96.634-24.614 33.164 2.345 65.354 15.433 90.927 36.72 23.87 19.866 41.898 46.003 50.999 75.835 5.17 16.937 6.867 34.586 6.88 52.25.012 18.645.025 37.29.012 55.936-.006 9.33-.013 18.646-.025 27.975zm-63.427-72.855c-2.452-8.185-10.26-13.75-16.147-19.423-14.29-13.775-28.6-27.525-42.903-41.288-7.315-7.042-14.495-14.264-21.964-21.151-5.619-5.179-13.132-7.486-20.639-5.654-8.575 2.088-14.68 10.132-20.773 15.998l-20.87 20.104c-14.411 13.872-29.143 27.48-43.26 41.648-10.855 10.897-8.519 30.012 6.162 36.334 6.803 2.93 14.815 2.326 20.94-1.889 3.827-2.634 7.04-6.303 10.374-9.51 3.615-3.469 7.225-6.938 10.828-10.414 13.951-13.435 27.614-27.256 41.911-40.318 16.223 15.459 32.306 31.078 48.44 46.634 6.732 6.49 13.4 15.285 23.102 16.988 7.628 1.336 15.602-1.62 20.568-7.576 4.614-5.525 6.291-13.557 4.211-20.483z"/></g><style id="style3999"></style><style id="style4048"></style></svg>