<svg xmlns="http://www.w3.org/2000/svg" id="svg3390" width="480" height="480"><defs id="defs3394"><clipPath id="clipPath3404"><path d="M0 48h48V0H0v48z" id="path3406"/></clipPath><clipPath id="clipPath3416"><path d="M0 48h48V0H0v48z" id="path3418"/></clipPath><clipPath id="clipPath3426"><path d="M0 48h48V0H0v48z" id="path3428"/></clipPath><clipPath id="clipPath3434"><path d="M0 48h48V0H0v48z" id="path3436"/></clipPath><clipPath id="clipPath3442"><path d="M0 48h48V0H0v48z" id="path3444"/></clipPath><clipPath id="clipPath3446"><path d="M0 48h48V0H0v48z" id="path3448"/></clipPath><clipPath id="clipPath3450"><path d="M48 48H0V0h48v48z" id="path3452"/></clipPath><clipPath id="clipPath3658"><path d="M0 48h48V0H0v48z" id="path3660"/></clipPath><clipPath id="clipPath3668"><path d="M0 48h48V0H0v48z" id="path3670"/></clipPath><clipPath id="clipPath3676"><path d="M0 48h48V0H0v48z" id="path3678"/></clipPath><clipPath id="clipPath3680"><path d="M0 0h48v48H0V0z" id="path3682"/></clipPath></defs><g id="g3398" transform="matrix(1.25 0 0 -1.25 0 480)"><path id="path4268" d="M351.987 194.56c0 17.463-14.074 31.62-31.435 31.62-9.899 0-18.627-4.702-24.395-11.9-24.888 17.786-60.121 29.203-99.447 30.168l23.435 68.92 57.634-13.642a5.74 5.74 0 0 1 2.315-.065c.415-13.398 11.28-24.152 24.702-24.152 13.684 0 24.778 11.16 24.778 24.924 0 13.765-11.094 24.925-24.778 24.925-10.084 0-18.723-6.085-22.592-14.781-.53.321-1.068.637-1.7.785l-62.865 14.877c-2.974.708-5.998-.978-6.983-3.885l-26.499-77.939c-38.169-1.24-72.36-12.362-96.825-29.536-5.768 6.85-14.273 11.295-23.897 11.295-17.36 0-31.435-14.157-31.435-31.62 0-12.89 7.693-23.935 18.691-28.855a62.492 62.492 0 0 1-1.746-14.633c0-51.618 63.747-93.466 142.374-93.466s142.374 41.848 142.374 93.466a62.83 62.83 0 0 1-1.618 14.125c11.65 4.624 19.925 15.996 19.925 29.362zm-233.252-25.324c0 12.717 10.608 23.394 23.257 23.394 12.648 0 22.911-10.67 22.911-23.394 0-12.716-10.263-23.046-22.911-23.046-12.649 0-23.257 10.324-23.257 23.046zm125.057-63.826c-10.685-10.735-27.573-15.958-51.623-15.958-24.414 0-41.295 5.223-51.974 15.965a3.727 3.727 0 0 0 0 5.255 3.68 3.68 0 0 0 5.224 0c9.221-9.275 24.395-13.778 46.386-13.778 22.355 0 37.53 4.509 46.757 13.784a3.694 3.694 0 0 0 5.23 0 3.735 3.735 0 0 0 0-5.261zm-1.445 40.786c-12.655 0-23.282 10.318-23.282 23.047 0 12.73 10.634 23.394 23.282 23.394 12.655 0 22.912-10.665 22.912-23.394 0-12.73-10.257-23.047-22.912-23.047z"/></g><style id="style3999"></style><style id="style4048"></style></svg>