<svg xmlns="http://www.w3.org/2000/svg" viewBox="0 0 480 480" height="480" width="480"><defs><path d="M0 0h24v24H0V0z" id="a"/></defs><g style="line-height:125%"><path d="M304.283 304.061q0 18.026-7.461 27.576t-21.846 9.55q-14.205 0-21.726-9.371-7.52-9.371-7.7-26.86V288.96q0-18.204 7.521-27.635 7.58-9.43 21.786-9.43 14.206 0 21.726 9.37 7.52 9.312 7.7 26.8v15.996zm-17.25-17.548q0-10.803-2.984-15.698-2.925-4.954-9.192-4.954-6.088 0-9.013 4.716-2.865 4.655-3.044 14.623v21.13q0 10.623 2.865 15.816 2.925 5.133 9.311 5.133 6.327 0 9.133-4.954 2.805-4.954 2.924-15.16v-20.652zm-69.535 53.48h-17.25V273.5l-20.592 6.387V265.86l35.991-12.892h1.85v87.024zM240 120V40L140 140l100 100v-80c66 0 120 54 120 120s-54 120-120 120-120-54-120-120H80c0 88 72 160 160 160s160-72 160-160-72-160-160-160z" style="-inkscape-font-specification:'Roboto Bold'" font-weight="700" font-family="Roboto" font-size="112.789" letter-spacing="0" word-spacing="0"/></g></svg>