<svg xmlns="http://www.w3.org/2000/svg" viewBox="0 0 480 480" height="480" width="480"><defs><path d="M0 0h24v24H0V0z" id="a"/></defs><g style="line-height:125%"><path d="M304.401 305q0 18.205-7.535 27.85-7.536 9.646-22.064 9.646-14.348 0-21.944-9.464-7.596-9.465-7.777-27.128v-16.156q0-18.387 7.596-27.912 7.656-9.525 22.004-9.525 14.348 0 21.943 9.465 7.596 9.404 7.777 27.067V305zm-17.422-17.724q0-10.912-3.014-15.855-2.954-5.003-9.284-5.003-6.149 0-9.103 4.762-2.894 4.702-3.074 14.77v21.34q0 10.73 2.893 15.976 2.954 5.184 9.405 5.184 6.39 0 9.223-5.004 2.833-5.003 2.954-15.312v-20.858zm-94.827 2.411h9.284q6.631 0 9.826-3.315 3.195-3.316 3.195-8.802 0-5.305-3.195-8.259-3.135-2.954-8.68-2.954-5.004 0-8.38 2.773-3.376 2.713-3.376 7.114h-17.422q0-6.872 3.677-12.298 3.738-5.486 10.369-8.56 6.691-3.075 14.71-3.075 13.925 0 21.822 6.692 7.897 6.63 7.897 18.326 0 6.028-3.677 11.092-3.677 5.064-9.646 7.777 7.415 2.652 11.032 7.957 3.678 5.305 3.678 12.54 0 11.695-8.56 18.748-8.5 7.053-22.547 7.053-13.142 0-21.521-6.932-8.32-6.933-8.32-18.327h17.423q0 4.943 3.677 8.078 3.738 3.135 9.163 3.135 6.21 0 9.706-3.255 3.557-3.316 3.557-8.742 0-13.142-14.469-13.142h-9.223v-13.624zM240 120V40L140 140l100 100v-80c66 0 120 54 120 120s-54 120-120 120-120-54-120-120H80c0 88 72 160 160 160s160-72 160-160-72-160-160-160z" style="-inkscape-font-specification:'Roboto Bold'" font-weight="700" font-family="Roboto" font-size="40" letter-spacing="0" word-spacing="0"/></g></svg>