<svg xmlns="http://www.w3.org/2000/svg" height="480" width="480"><path d="M158.277 140.694L28.799 270.37 158.477 399.85l129.678-129.478-129.878-129.677zM85.346 270.37l73.13-73.13 72.932 73.13-73.131 73.131-72.931-73.13zM398.45 145.29c-34.967-35.167-81.124-52.75-127.08-52.75V27.8l-84.72 84.72 84.72 84.72v-64.739c35.766 0 71.532 13.588 98.906 40.962 54.549 54.548 54.549 143.265 0 197.813-27.374 27.374-63.14 40.962-98.907 40.962-19.381 0-38.763-4.196-56.746-12.189l-29.772 29.772c26.975 14.786 56.746 22.379 86.518 22.379 45.957 0 92.114-17.583 127.08-52.75 70.334-70.134 70.334-184.027 0-254.16z"/></svg>