<svg xmlns="http://www.w3.org/2000/svg" height="480" width="480"><path d="M321.723 140.694L451.201 270.37 321.523 399.85 191.845 270.371l129.878-129.677zm72.931 129.677l-73.13-73.13-72.932 73.13 73.131 73.131 72.931-73.13zM81.55 145.29c34.967-35.167 81.124-52.75 127.08-52.75V27.8l84.72 84.72-84.72 84.72v-64.739c-35.766 0-71.532 13.588-98.906 40.962-54.549 54.548-54.549 143.265 0 197.813 27.374 27.374 63.14 40.962 98.907 40.962 19.381 0 38.763-4.196 56.746-12.189l29.772 29.772c-26.975 14.786-56.747 22.379-86.518 22.379-45.957 0-92.114-17.583-127.08-52.75-70.334-70.134-70.334-184.027 0-254.16z"/></svg>