<svg xmlns="http://www.w3.org/2000/svg" width="60" height="60" viewBox="0 0 60 60"><defs><clipPath id="a"><path d="M0 48h48V0H0v48z"/></clipPath><clipPath id="b"><path d="M0 48h48V0H0v48z"/></clipPath></defs><path d="M15.5 39c-3.025 0-5.5 2.475-5.5 5.5s2.475 5.5 5.5 5.5 5.5-2.475 5.5-5.5-2.475-5.5-5.5-5.5z"/><path d="M10 24.581v7.263c10.022 0 18.156 8.134 18.156 18.156h7.263c0-14.053-11.366-25.419-25.419-25.419z"/><path d="M10 10v7.273c18.073 0 32.727 14.654 32.727 32.727H50c0-22.11-17.89-40-40-40z"/></svg>