<svg xmlns="http://www.w3.org/2000/svg" width="480" height="480" viewBox="0 0 480 480"><defs><clipPath id="a"><path d="M0 48h48V0H0v48z"/></clipPath><clipPath id="b"><path d="M0 48h48V0H0v48z"/></clipPath></defs><path style="line-height:normal;text-indent:0;text-align:start;text-decoration-line:none;text-decoration-style:solid;text-decoration-color:#000;text-transform:none;block-progression:tb;isolation:auto;mix-blend-mode:normal" d="M91.689 60.376c-22.805-.316-37.206 23.71-34.443 44.606v99.581c-44.23 39.65-52.53 111.797-18.573 160.506 30.682 48.02 96.83 68.64 149.053 45.302 19.207-7.383 35.132-22.074 48.916-36.034h225.58c-47.087-77.058-94.128-154.144-141.245-231.183l-34.027 55.7c-.112-38.547.225-65.993-.17-104.534-1.025-20.7-20.765-37.03-41.217-33.944zm11.487 49.277H241.02v114.801c-29.15-43.717-88.057-64.183-137.844-47.174zm37.337 106.768c45.276-1.4 83.915 42.71 77.908 87.358-3.01 43.428-46.913 78.137-89.871 70.197-43.999-5.57-75.343-53.126-64.446-95.88 12.145-36.918 39.146-60.162 76.409-61.675zm180.464 15.554l58.322 95.463H262.692z" color="#000" font-weight="400" font-family="sans-serif" white-space="normal" overflow="visible" stroke-width="2"/></svg>