<svg xmlns="http://www.w3.org/2000/svg" viewBox="0 0 480 480" height="480" width="480" id="svg3390"><defs id="defs3394"><clipPath id="clipPath3404"><path id="path3406" d="M0 48h48V0H0v48z"/></clipPath><clipPath id="clipPath3416"><path id="path3418" d="M0 48h48V0H0v48z"/></clipPath><clipPath id="clipPath3426"><path id="path3428" d="M0 48h48V0H0v48z"/></clipPath><clipPath id="clipPath3434"><path id="path3436" d="M0 48h48V0H0v48z"/></clipPath><clipPath id="clipPath3442"><path id="path3444" d="M0 48h48V0H0v48z"/></clipPath><clipPath id="clipPath3446"><path id="path3448" d="M0 48h48V0H0v48z"/></clipPath><clipPath id="clipPath3450"><path id="path3452" d="M48 48H0V0h48v48z"/></clipPath><clipPath id="clipPath3658"><path id="path3660" d="M0 48h48V0H0v48z"/></clipPath><clipPath id="clipPath3668"><path id="path3670" d="M0 48h48V0H0v48z"/></clipPath><clipPath id="clipPath3676"><path id="path3678" d="M0 48h48V0H0v48z"/></clipPath><clipPath id="clipPath3680"><path id="path3682" d="M0 0h48v48H0V0z"/></clipPath></defs><g transform="matrix(1.25 0 0 -1.25 0 480)" id="g3398"><path d="M342.796 158.043a148.722 148.722 0 0 1 3.531 32.293c0 83.107-68.328 150.477-152.617 150.477a155.79 155.79 0 0 1-26.099-2.201C153.968 347.079 137.831 352 120.514 352 71.632 352 32 312.923 32 264.733c0-16.108 4.446-31.186 12.17-44.145a148.994 148.994 0 0 1-3.09-30.265c0-83.113 68.329-150.483 152.624-150.483 9.548 0 18.888.876 27.949 2.521C234.115 35.763 248.363 32 263.493 32 312.373 32 352 71.07 352 119.267a85.829 85.829 0 0 1-9.21 38.757zm-72.002-39.198c-7.062-9.85-17.492-17.657-31.006-23.2-13.384-5.49-29.435-8.268-47.694-8.268-21.92 0-40.3 3.801-54.645 11.308-10.25 5.466-18.713 12.864-25.126 21.983-6.484 9.216-9.775 18.368-9.775 27.187 0 5.516 2.142 10.297 6.367 14.213 4.18 3.879 9.535 5.843 15.929 5.843 5.244 0 9.768-1.548 13.442-4.614 3.518-2.937 6.53-7.283 8.95-12.889 2.707-6.105 5.654-11.263 8.776-15.32 2.992-3.911 7.296-7.194 12.793-9.76 5.53-2.586 12.995-3.892 22.166-3.892 12.618 0 22.958 2.656 30.747 7.891 7.6 5.12 11.294 11.264 11.294 18.784 0 5.932-1.928 10.61-5.894 14.277-4.154 3.827-9.632 6.803-16.285 8.851-6.939 2.131-16.35 4.435-28.001 6.835-15.838 3.347-29.293 7.321-40.003 11.801-10.943 4.589-19.764 10.957-26.222 18.918-6.556 8.083-9.873 18.226-9.873 30.156 0 11.365 3.486 21.611 10.366 30.45 6.828 8.774 16.792 15.602 29.624 20.28 12.67 4.615 27.735 6.963 44.78 6.963 13.63 0 25.612-1.549 35.62-4.614 10.061-3.091 18.545-7.264 25.204-12.396 6.705-5.171 11.703-10.707 14.838-16.454 3.167-5.798 4.77-11.577 4.77-17.164 0-5.376-2.109-10.265-6.263-14.521-4.18-4.288-9.45-6.458-15.675-6.458-5.653 0-10.074 1.357-13.144 4.039-2.856 2.49-5.822 6.374-9.113 11.954-3.81 7.13-8.412 12.749-13.695 16.71-5.128 3.853-13.702 5.798-25.483 5.798-10.937 0-19.836-2.163-26.443-6.438-6.368-4.108-9.457-8.831-9.457-14.425 0-3.424 1-6.29 3.044-8.755 2.174-2.61 5.232-4.908 9.1-6.815a68.158 68.158 0 0 1 12.28-4.698c4.245-1.158 11.36-2.88 21.121-5.107 12.359-2.61 23.705-5.536 33.74-8.703 10.157-3.207 18.946-7.162 26.105-11.757 7.315-4.69 13.105-10.72 17.213-17.92 4.122-7.224 6.206-16.133 6.206-26.494 0-12.396-3.59-23.692-10.678-33.586z" id="path4279"/></g><style id="style3999"></style><style id="style4048"></style></svg>