<svg xmlns="http://www.w3.org/2000/svg" viewBox="0 0 480 480" height="480" width="480" id="svg3390"><defs id="defs3394"><clipPath id="clipPath3404"><path id="path3406" d="M0 48h48V0H0v48z"/></clipPath><clipPath id="clipPath3416"><path id="path3418" d="M0 48h48V0H0v48z"/></clipPath><clipPath id="clipPath3426"><path id="path3428" d="M0 48h48V0H0v48z"/></clipPath><clipPath id="clipPath3434"><path id="path3436" d="M0 48h48V0H0v48z"/></clipPath><clipPath id="clipPath3442"><path id="path3444" d="M0 48h48V0H0v48z"/></clipPath><clipPath id="clipPath3446"><path id="path3448" d="M0 48h48V0H0v48z"/></clipPath><clipPath id="clipPath3450"><path id="path3452" d="M48 48H0V0h48v48z"/></clipPath><clipPath id="clipPath3658"><path id="path3660" d="M0 48h48V0H0v48z"/></clipPath><clipPath id="clipPath3668"><path id="path3670" d="M0 48h48V0H0v48z"/></clipPath><clipPath id="clipPath3676"><path id="path3678" d="M0 48h48V0H0v48z"/></clipPath><clipPath id="clipPath3680"><path id="path3682" d="M0 0h48v48H0V0z"/></clipPath></defs><g transform="matrix(1.25 0 0 -1.25 0 480)" id="g3398"><g transform="matrix(6.42696 0 0 -6.4 30.305 351.994)" id="g4313"><path d="M18.463 15.202c-3.238 0-5.872 2.46-5.872 5.496 0 3.037 2.635 5.496 5.872 5.496 3.238 0 5.873-2.459 5.873-5.496 0-3.036-2.635-5.496-5.873-5.496z" id="path4301"/><path d="M32.354 15.102c-3.262 0-5.91 2.485-5.91 5.535 0 3.061 2.648 5.533 5.91 5.533 3.263 0 5.911-2.472 5.911-5.533 0-3.05-2.648-5.535-5.911-5.535z" id="path4303"/><path d="M47.713 23.811c-.193.137-.213.268-.713.398V4.862c0-2.687-1.746-4.863-4.231-4.863H7.719C5.234-.001 3 2.175 3 4.862v19.365c0-.135-.294-.273-.496-.417-1.492-1.042-2.419.377-1.502 1.732 1.782 2.183 5.197 4.894 10.392 7.027-5.496 18.723 13.429 21.698 13.14 12.098 0 .179.017-5.448.025-9.44.496.116.931.231 1.336.331l.019 9.109c-.288 9.6 18.637 6.626 13.127-12.098 5.196-2.133 8.515-4.844 10.297-7.027.915-1.356-.131-2.774-1.625-1.732zm-3.213 1.86c-6.5 3.642-12.352 3.008-15.498 2.908-2.313-.115-3.077.879-3.19 2.412-.556-.396-1.079-.867-1.662-1.408-.098-.091-.166-.172-.255-.246-.508-.535-1.278-.823-2.578-.758-3.1.098-9.317.712-15.317-2.751V7.057c0-3.401.754-4.558 3.865-4.558h31.021c2.95 0 3.613 1.358 3.613 4.558V25.67z" id="path4305"/></g></g><style id="style3999"></style><style id="style4048"></style></svg>