<svg xmlns="http://www.w3.org/2000/svg" viewBox="0 0 480 480" height="480" width="480" id="svg3390"><defs id="defs3394"><clipPath id="clipPath3404"><path id="path3406" d="M0 48h48V0H0v48z"/></clipPath><clipPath id="clipPath3416"><path id="path3418" d="M0 48h48V0H0v48z"/></clipPath><clipPath id="clipPath3426"><path id="path3428" d="M0 48h48V0H0v48z"/></clipPath><clipPath id="clipPath3434"><path id="path3436" d="M0 48h48V0H0v48z"/></clipPath><clipPath id="clipPath3442"><path id="path3444" d="M0 48h48V0H0v48z"/></clipPath><clipPath id="clipPath3446"><path id="path3448" d="M0 48h48V0H0v48z"/></clipPath><clipPath id="clipPath3450"><path id="path3452" d="M48 48H0V0h48v48z"/></clipPath><clipPath id="clipPath3658"><path id="path3660" d="M0 48h48V0H0v48z"/></clipPath><clipPath id="clipPath3668"><path id="path3670" d="M0 48h48V0H0v48z"/></clipPath><clipPath id="clipPath3676"><path id="path3678" d="M0 48h48V0H0v48z"/></clipPath><clipPath id="clipPath3680"><path id="path3682" d="M0 0h48v48H0V0z"/></clipPath></defs><g transform="matrix(1.25 0 0 -1.25 0 480)" id="g3398"><path d="M38.398 141.195H32v38.39h6.398v-38.39zm15.996-12.797h-6.398v60.784h6.398v-60.784zm12.797-3.199h-6.398v70.38h6.398V125.2zM79.988 122h-6.399v70.38h6.399V122zm15.995 0h-6.398v92.775h6.398V122zm12.797 0h-6.398v105.571h6.398V122zm15.996 0h-6.398v111.97h6.398V122zm12.797 0h-6.399v115.168h6.399V122zm15.995 0h-6.398v111.97h6.398V122zm12.797 0h-6.398v108.77h6.398V122zm12.797 0h-6.399v121.567h6.399V122zm15.996 0h-6.399v131.164h6.399V122zm117.524.768c-.704 0-109.648.048-109.757.064-2.36.237-4.575 2.246-4.575 4.664v125.15c0 2.303 1.133 3.48 4.108 4.639A70.568 70.568 0 0 0 227.706 262c36.349 0 66.3-27.877 69.435-63.42a39.707 39.707 0 0 0 15.33 3.065c21.774 0 39.529-17.652 39.529-39.432s-17.55-39.439-39.324-39.439z" id="path4320"/></g><style id="style3999"></style><style id="style4048"></style></svg>