<svg xmlns="http://www.w3.org/2000/svg" width="60" height="60"><defs><clipPath id="a"><path d="M0 48h48V0H0v48z"/></clipPath><clipPath id="b"><path d="M0 48h48V0H0v48z"/></clipPath></defs><path style="line-height:normal;text-indent:0;text-align:start;text-decoration-line:none;text-decoration-style:solid;text-decoration-color:#000;text-transform:none;block-progression:tb;isolation:auto;mix-blend-mode:normal" d="M30.1 4.6c-2.872 0-5.25 2.377-5.25 5.25 0 2.872 2.378 5.25 5.25 5.25 2.873 0 5.25-2.378 5.25-5.25 0-2.873-2.377-5.25-5.25-5.25zm14.551 5.5c-3.419 0-6.25 2.83-6.25 6.25 0 3.419 2.831 6.25 6.25 6.25 3.42 0 6.25-2.831 6.25-6.25 0-3.42-2.83-6.25-6.25-6.25zm-28.75 1.2c-2.57 0-4.7 2.129-4.7 4.7s2.13 4.701 4.7 4.701c2.572 0 4.7-2.13 4.7-4.701 0-2.571-2.128-4.7-4.7-4.7zm-6.7 15.6c-2.19 0-4 1.812-4 4 0 2.189 1.81 4 4 4 2.187 0 4-1.811 4-4 0-2.188-1.813-4-4-4zm41.599 0c-2.188 0-4 1.812-4 4 0 2.189 1.812 4 4 4 2.188 0 4-1.811 4-4 0-2.188-1.812-4-4-4zM15.2 41.8c-2.188 0-4 1.812-4 4 0 2.19 1.812 4 4 4 2.188 0 4-1.81 4-4 0-2.188-1.812-4-4-4zm29.801 0c-2.188 0-4 1.812-4 4 0 2.19 1.812 4 4 4 2.188 0 4-1.81 4-4 0-2.188-1.812-4-4-4zm-14.9 5.6c-2.189 0-4 1.812-4 4 0 2.189 1.811 4 4 4 2.188 0 4-1.811 4-4 0-2.188-1.812-4-4-4z" color="#000" font-weight="400" font-family="sans-serif" white-space="normal" overflow="visible" stroke-width="1.76" stroke-dashoffset="22"/></svg>