<svg xmlns="http://www.w3.org/2000/svg" height="480" width="480" id="svg3390"><defs id="defs3394"><clipPath id="clipPath3404"><path id="path3406" d="M0 48h48V0H0v48z"/></clipPath><clipPath id="clipPath3416"><path id="path3418" d="M0 48h48V0H0v48z"/></clipPath><clipPath id="clipPath3426"><path id="path3428" d="M0 48h48V0H0v48z"/></clipPath><clipPath id="clipPath3434"><path id="path3436" d="M0 48h48V0H0v48z"/></clipPath><clipPath id="clipPath3442"><path id="path3444" d="M0 48h48V0H0v48z"/></clipPath><clipPath id="clipPath3446"><path id="path3448" d="M0 48h48V0H0v48z"/></clipPath><clipPath id="clipPath3450"><path id="path3452" d="M48 48H0V0h48v48z"/></clipPath><clipPath id="clipPath3658"><path id="path3660" d="M0 48h48V0H0v48z"/></clipPath><clipPath id="clipPath3668"><path id="path3670" d="M0 48h48V0H0v48z"/></clipPath><clipPath id="clipPath3676"><path id="path3678" d="M0 48h48V0H0v48z"/></clipPath><clipPath id="clipPath3680"><path id="path3682" d="M0 0h48v48H0V0z"/></clipPath></defs><g transform="matrix(1.25 0 0 -1.25 0 480)" id="g3398"><g transform="matrix(6.4289 0 0 -6.40026 31.278 352.013)" id="g4351"><path d="M34 46H9.052l.132-16.785-3.762-.055L5.401 50h32.598V29h-4z" id="path4331"/><path d="M11.5 39H31v4H11.5v-4z" id="path4333"/><path d="M12.016 31.539l19.625 1.895-.411 4.256-19.625-1.895.411-4.256z" id="path4335"/><path d="M13.813 23.045L32.788 28.4l-1.161 4.116-18.975-5.355 1.161-4.116z" id="path4337"/><path d="M18.412 13.447L35.288 23.64l-2.211 3.662-16.876-10.193 2.211-3.662z" id="path4339"/><path d="M36.017 22.874L24.533 6.847l3.477-2.491 11.484 16.027-3.477 2.491z" id="path4341"/><path d="M37.131.707L41.35.002l3.249 19.445-4.219.705L37.131.707z" id="path4343"/></g></g><style id="style3999"></style><style id="style4048"></style></svg>