<svg xmlns="http://www.w3.org/2000/svg" id="svg3390" width="480" height="480"><defs id="defs3394"><clipPath id="clipPath3404"><path d="M0 48h48V0H0v48z" id="path3406"/></clipPath><clipPath id="clipPath3416"><path d="M0 48h48V0H0v48z" id="path3418"/></clipPath><clipPath id="clipPath3426"><path d="M0 48h48V0H0v48z" id="path3428"/></clipPath><clipPath id="clipPath3434"><path d="M0 48h48V0H0v48z" id="path3436"/></clipPath><clipPath id="clipPath3442"><path d="M0 48h48V0H0v48z" id="path3444"/></clipPath><clipPath id="clipPath3446"><path d="M0 48h48V0H0v48z" id="path3448"/></clipPath><clipPath id="clipPath3450"><path d="M48 48H0V0h48v48z" id="path3452"/></clipPath><clipPath id="clipPath3658"><path d="M0 48h48V0H0v48z" id="path3660"/></clipPath><clipPath id="clipPath3668"><path d="M0 48h48V0H0v48z" id="path3670"/></clipPath><clipPath id="clipPath3676"><path d="M0 48h48V0H0v48z" id="path3678"/></clipPath><clipPath id="clipPath3680"><path d="M0 0h48v48H0V0z" id="path3682"/></clipPath></defs><g id="g3398" transform="matrix(1.25 0 0 -1.25 0 480)"><path id="path4362" d="M311.34 252.837c0-26.084-21.128-47.248-47.16-47.248-26.033 0-47.162 21.17-47.162 47.248 0 26.078 21.135 47.255 47.161 47.255s47.162-21.17 47.162-47.255zM32.007 102.442l17.99-7.357C56.429 65.477 82.769 43.2 114.206 43.2c34.055 0 62.135 26.148 65.382 59.422l84.349 61.79c48.618 0 88.064 39.453 88.064 88.155 0 48.727-39.446 88.233-88.064 88.233-48.349 0-87.622-39.068-88.059-87.416l-54.869-78.786a64.228 64.228 0 0 1-6.803.373 64.946 64.946 0 0 1-33.561-9.287L32 185.556v-83.114zm231.936 209.284c32.572 0 59.035-26.528 59.035-59.159 0-32.63-26.463-59.069-59.035-59.069-32.573 0-59.041 26.432-59.041 59.069s26.468 59.159 59.04 59.159zm-149.73-154.209c26.795 0 48.341-21.582 48.341-48.432 0-26.849-21.546-48.431-48.342-48.431-18.638 0-34.729 10.405-42.803 25.8 7.946-3.215 15.91-6.392 23.844-9.62 19.71-7.936 42.148 1.601 50.075 21.35 7.926 19.75-1.701 42.137-21.412 50.066l-20.134 8.097c3.35.74 6.849 1.183 10.43 1.183z"/></g><style id="style3999"></style><style id="style4048"></style></svg>