<svg xmlns="http://www.w3.org/2000/svg" viewBox="0 0 480 480" height="480" width="480" id="svg3390"><defs id="defs3394"><clipPath id="clipPath3404"><path id="path3406" d="M0 48h48V0H0v48z"/></clipPath><clipPath id="clipPath3416"><path id="path3418" d="M0 48h48V0H0v48z"/></clipPath><clipPath id="clipPath3426"><path id="path3428" d="M0 48h48V0H0v48z"/></clipPath><clipPath id="clipPath3434"><path id="path3436" d="M0 48h48V0H0v48z"/></clipPath><clipPath id="clipPath3442"><path id="path3444" d="M0 48h48V0H0v48z"/></clipPath><clipPath id="clipPath3446"><path id="path3448" d="M0 48h48V0H0v48z"/></clipPath><clipPath id="clipPath3450"><path id="path3452" d="M48 48H0V0h48v48z"/></clipPath><clipPath id="clipPath3658"><path id="path3660" d="M0 48h48V0H0v48z"/></clipPath><clipPath id="clipPath3668"><path id="path3670" d="M0 48h48V0H0v48z"/></clipPath><clipPath id="clipPath3676"><path id="path3678" d="M0 48h48V0H0v48z"/></clipPath><clipPath id="clipPath3680"><path id="path3682" d="M0 0h48v48H0V0z"/></clipPath></defs><g transform="matrix(1.25 0 0 -1.25 0 480)" id="g3398"><path d="M92.806 220.891v45.284c12.65 4.083 23.497 9.932 32.501 17.567 9.03 7.622 16.264 16.78 21.72 27.467 5.455 10.687 9.216 24.293 11.27 40.791H204.1v-80.878h76.422v-50.237h-76.422v-82.056c0-18.546.992-30.45 2.97-35.73 1.97-5.26 5.661-9.464 11.026-12.613 7.137-4.243 15.278-6.374 24.457-6.374 16.295 0 32.513 5.273 48.648 15.8v-50.46c-13.764-6.438-26.234-10.976-37.37-13.561C242.66 33.293 230.59 32 217.625 32c-14.717 0-27.722 1.85-39.045 5.542-11.31 3.7-20.952 8.966-28.952 15.8-7.986 6.842-13.526 14.112-16.61 21.817-3.086 7.692-4.625 18.866-4.625 33.483v112.23H92.8z" id="path4373"/></g><style id="style3999"></style><style id="style4048"></style></svg>