<svg xmlns="http://www.w3.org/2000/svg" viewBox="0 0 480 480" height="480" width="480" id="svg3390"><defs id="defs3394"><clipPath id="clipPath3404"><path id="path3406" d="M0 48h48V0H0v48z"/></clipPath><clipPath id="clipPath3416"><path id="path3418" d="M0 48h48V0H0v48z"/></clipPath><clipPath id="clipPath3426"><path id="path3428" d="M0 48h48V0H0v48z"/></clipPath><clipPath id="clipPath3434"><path id="path3436" d="M0 48h48V0H0v48z"/></clipPath><clipPath id="clipPath3442"><path id="path3444" d="M0 48h48V0H0v48z"/></clipPath><clipPath id="clipPath3446"><path id="path3448" d="M0 48h48V0H0v48z"/></clipPath><clipPath id="clipPath3450"><path id="path3452" d="M48 48H0V0h48v48z"/></clipPath><clipPath id="clipPath3658"><path id="path3660" d="M0 48h48V0H0v48z"/></clipPath><clipPath id="clipPath3668"><path id="path3670" d="M0 48h48V0H0v48z"/></clipPath><clipPath id="clipPath3676"><path id="path3678" d="M0 48h48V0H0v48z"/></clipPath><clipPath id="clipPath3680"><path id="path3682" d="M0 0h48v48H0V0z"/></clipPath></defs><g transform="matrix(1.25 0 0 -1.25 0 480)" id="g3398"><path d="M319.233 257.248c.121-2.815.198-5.643.198-8.49C319.431 162.02 253.391 62 132.638 62 95.564 62 61.055 72.877 32 91.497a134.548 134.548 0 0 1 15.66-.922c30.758 0 59.065 10.494 81.535 28.102-28.736.525-52.972 19.51-61.33 45.589a65.008 65.008 0 0 1 12.358-1.184c5.984 0 11.789.807 17.292 2.304-30.034 6.027-52.664 32.555-52.664 64.355 0 .282 0 .55.006.826a65.565 65.565 0 0 1 29.734-8.21C56.98 234.13 45.39 254.215 45.39 276.993c0 12.023 3.238 23.304 8.889 32.997 32.383-39.715 80.754-65.84 135.319-68.585a65.89 65.89 0 0 0-1.696 14.96c0 36.247 29.388 65.635 65.65 65.635 18.886 0 35.948-7.966 47.922-20.724a131.383 131.383 0 0 1 41.682 15.925c-4.896-15.33-15.308-28.185-28.863-36.31 13.273 1.586 25.932 5.111 37.708 10.333-8.813-13.168-19.936-24.73-32.761-33.976z" id="path4400"/></g><style id="style3999"></style><style id="style4048"></style></svg>