<svg xmlns="http://www.w3.org/2000/svg" viewBox="0 0 480 480" height="480" width="480" id="svg3390"><defs id="defs3394"><clipPath id="clipPath3404"><path id="path3406" d="M0 48h48V0H0v48z"/></clipPath><clipPath id="clipPath3416"><path id="path3418" d="M0 48h48V0H0v48z"/></clipPath><clipPath id="clipPath3426"><path id="path3428" d="M0 48h48V0H0v48z"/></clipPath><clipPath id="clipPath3434"><path id="path3436" d="M0 48h48V0H0v48z"/></clipPath><clipPath id="clipPath3442"><path id="path3444" d="M0 48h48V0H0v48z"/></clipPath><clipPath id="clipPath3446"><path id="path3448" d="M0 48h48V0H0v48z"/></clipPath><clipPath id="clipPath3450"><path id="path3452" d="M48 48H0V0h48v48z"/></clipPath><clipPath id="clipPath3658"><path id="path3660" d="M0 48h48V0H0v48z"/></clipPath><clipPath id="clipPath3668"><path id="path3670" d="M0 48h48V0H0v48z"/></clipPath><clipPath id="clipPath3676"><path id="path3678" d="M0 48h48V0H0v48z"/></clipPath><clipPath id="clipPath3680"><path id="path3682" d="M0 0h48v48H0V0z"/></clipPath></defs><g transform="matrix(1.25 0 0 -1.25 0 480)" id="g3398"><path d="M238.912 260.883c-7.667 0-15.558-1.776-23.686-5.283 15.73 51.812 45.772 76.97 90.124 75.542 32.883-.978 48.384-22.424 46.496-64.359-1.427-31.323-23.187-74.223-65.267-128.666C243.072 81.235 206.266 52.8 176.154 52.8c-18.644 0-34.439 17.31-47.328 51.953-8.615 31.755-17.223 63.503-25.824 95.258-9.575 34.625-19.847 51.96-30.83 51.96-2.386 0-10.77-5.07-25.113-15.16L32 256.314a4129.141 4129.141 0 0 1 46.707 41.89c21.056 18.3 36.877 27.932 47.411 28.897 24.903 2.413 40.23-14.715 45.99-51.367 6.215-39.547 10.522-64.134 12.935-73.76 7.175-32.804 15.079-49.186 23.706-49.186 6.694 0 16.755 10.642 30.176 31.915 13.395 21.28 20.582 37.476 21.542 48.595 1.92 18.37-5.267 27.578-21.542 27.578z" id="path4411"/></g><style id="style3999"></style><style id="style4048"></style></svg>