<svg xmlns="http://www.w3.org/2000/svg" height="480" width="480" id="svg3390"><defs id="defs3394"><clipPath id="clipPath3404"><path id="path3406" d="M0 48h48V0H0v48z"/></clipPath><clipPath id="clipPath3416"><path id="path3418" d="M0 48h48V0H0v48z"/></clipPath><clipPath id="clipPath3426"><path id="path3428" d="M0 48h48V0H0v48z"/></clipPath><clipPath id="clipPath3434"><path id="path3436" d="M0 48h48V0H0v48z"/></clipPath><clipPath id="clipPath3442"><path id="path3444" d="M0 48h48V0H0v48z"/></clipPath><clipPath id="clipPath3446"><path id="path3448" d="M0 48h48V0H0v48z"/></clipPath><clipPath id="clipPath3450"><path id="path3452" d="M48 48H0V0h48v48z"/></clipPath><clipPath id="clipPath3658"><path id="path3660" d="M0 48h48V0H0v48z"/></clipPath><clipPath id="clipPath3668"><path id="path3670" d="M0 48h48V0H0v48z"/></clipPath><clipPath id="clipPath3676"><path id="path3678" d="M0 48h48V0H0v48z"/></clipPath><clipPath id="clipPath3680"><path id="path3682" d="M0 0h48v48H0V0z"/></clipPath></defs><g transform="matrix(1.25 0 0 -1.25 0 480)" id="g3398"><path d="M305.378 305.498c-30.08 29.97-70.086 46.483-112.71 46.502-87.823 0-159.299-71.13-159.33-158.56-.014-27.949 7.328-55.226 21.266-79.27L32 32l84.462 22.048c23.272-12.634 49.476-19.29 76.142-19.302h.065c.006 0-.006 0 0 0 87.81 0 159.292 71.136 159.331 158.566.013 42.368-16.541 82.208-46.622 112.18zM192.668 61.53h-.05c-23.762.016-47.072 6.361-67.407 18.368l-4.834 2.854-50.12-13.082 13.38 48.634-3.151 4.986c-13.256 20.985-20.257 45.235-20.25 70.137.025 72.666 59.44 131.789 132.484 131.789 35.371-.016 68.621-13.74 93.623-38.65 25.001-24.908 38.765-58.022 38.752-93.241-.032-72.672-59.44-131.795-132.433-131.795zm72.64 98.707c-3.98 1.984-23.556 11.571-27.207 12.89-3.652 1.318-6.3 1.983-8.955-1.985-2.655-3.968-10.286-12.89-12.607-15.532-2.321-2.644-4.642-2.976-8.628-.992-3.98 1.984-16.811 6.17-32.015 19.667-11.836 10.502-19.827 23.481-22.147 27.45-2.321 3.967-.245 6.111 1.748 8.083 1.794 1.772 3.98 4.627 5.973 6.944 1.993 2.316 2.655 3.968 3.979 6.61 1.324 2.644.662 4.96-.334 6.945-.997 1.984-8.956 21.485-12.273 29.414-3.234 7.725-6.512 6.682-8.955 6.803-2.321.116-4.976.141-7.631.141-2.655 0-6.969-.992-10.614-4.96-3.652-3.968-13.931-13.549-13.931-33.056 0-19.507 14.265-38.342 16.258-40.985 1.993-2.644 28.075-42.663 68.01-59.828 9.496-4.083 16.915-6.521 22.694-8.345 9.54-3.015 18.22-2.592 25.079-1.568 7.65 1.139 23.555 9.587 26.872 18.841 3.317 9.255 3.317 17.19 2.321 18.842-.996 1.651-3.645 2.643-7.631 4.627z" id="path4433"/></g><style id="style3999"></style><style id="style4048"></style></svg>