<svg xmlns="http://www.w3.org/2000/svg" viewBox="0 0 480 480" height="480" width="480" id="svg3390"><defs id="defs3394"><clipPath id="clipPath3404"><path id="path3406" d="M0 48h48V0H0v48z"/></clipPath><clipPath id="clipPath3416"><path id="path3418" d="M0 48h48V0H0v48z"/></clipPath><clipPath id="clipPath3426"><path id="path3428" d="M0 48h48V0H0v48z"/></clipPath><clipPath id="clipPath3434"><path id="path3436" d="M0 48h48V0H0v48z"/></clipPath><clipPath id="clipPath3442"><path id="path3444" d="M0 48h48V0H0v48z"/></clipPath><clipPath id="clipPath3446"><path id="path3448" d="M0 48h48V0H0v48z"/></clipPath><clipPath id="clipPath3450"><path id="path3452" d="M48 48H0V0h48v48z"/></clipPath><clipPath id="clipPath3658"><path id="path3660" d="M0 48h48V0H0v48z"/></clipPath><clipPath id="clipPath3668"><path id="path3670" d="M0 48h48V0H0v48z"/></clipPath><clipPath id="clipPath3676"><path id="path3678" d="M0 48h48V0H0v48z"/></clipPath><clipPath id="clipPath3680"><path id="path3682" d="M0 0h48v48H0V0z"/></clipPath></defs><g transform="matrix(1.25 0 0 -1.25 0 480)" id="g3398"><path d="M61.958 258.188c-7.174 12.055-19.57 23.964-28.518 27.398l-1.44.563v11.602l.922.121 81.267.128c.051-2.213.096-6.811.032-11.135-10.746-1.33-23.7-6.58-20.109-18.624 20.493-45.235 39.136-91.29 59.36-136.64l34.72 64.876c-13.44 27.5-23.226 55.321-37.933 82.292-4.793 7.77-17.76 7.981-26.944 8.288l.032 10.738 76.813-.268.224-10.367c-6.925-.96-15.091-2.597-14.163-10.994l21.798-48.178c7.175 15.292 15.149 30.27 21.479 45.94 2.867 12.406-11.104 13.027-20.013 13.379l-.16 10.22 68.64.262v-10.457c-10.029-.71-19.52-3.6-25.056-11.013-13.453-20.786-23.424-44.36-33.907-66.93 10.348-24.462 21.139-48.894 31.718-71.323l58.509 134.85c-3.949 8.89-12.883 12.03-21.664 14.064l-.448 10.873 64.883-.518v-10.578c-2.893-.454-5.664-1.343-8.333-2.507-5.069-2.348-9.862-7.023-13.081-12.74l-80.64-185.408L236.429 86l-38.362 90.286L151.507 86h-13.984c-27.206 56.64-46.893 116.233-75.558 172.181z" id="path4444"/></g><style id="style3999"></style><style id="style4048"></style></svg>