<svg xmlns="http://www.w3.org/2000/svg" height="480" width="480" id="svg3390"><defs id="defs3394"><clipPath id="clipPath3404"><path id="path3406" d="M0 48h48V0H0v48z"/></clipPath><clipPath id="clipPath3416"><path id="path3418" d="M0 48h48V0H0v48z"/></clipPath><clipPath id="clipPath3426"><path id="path3428" d="M0 48h48V0H0v48z"/></clipPath><clipPath id="clipPath3434"><path id="path3436" d="M0 48h48V0H0v48z"/></clipPath><clipPath id="clipPath3442"><path id="path3444" d="M0 48h48V0H0v48z"/></clipPath><clipPath id="clipPath3446"><path id="path3448" d="M0 48h48V0H0v48z"/></clipPath><clipPath id="clipPath3450"><path id="path3452" d="M48 48H0V0h48v48z"/></clipPath><clipPath id="clipPath3658"><path id="path3660" d="M0 48h48V0H0v48z"/></clipPath><clipPath id="clipPath3668"><path id="path3670" d="M0 48h48V0H0v48z"/></clipPath><clipPath id="clipPath3676"><path id="path3678" d="M0 48h48V0H0v48z"/></clipPath><clipPath id="clipPath3680"><path id="path3682" d="M0 0h48v48H0V0z"/></clipPath></defs><g transform="matrix(1.25 0 0 -1.25 0 480)" id="g3398"><g transform="matrix(6.39987 0 0 -6.41077 33.19 350.68)" id="g4502"><path d="M24.796 9.375l.02.012-.016-.012c10.006-7.208 16.219-3.584 16.219-3.584A24.835 24.835 0 0 0 24.8-.206 24.833 24.833 0 0 0 8.581 5.791s6.213-3.708 16.215 3.583z" id="path4488"/><path d="M18.242 14.196C10.894 9.673 6.531 7.743 6.531 7.743A24.841 24.841 0 0 0-.186 24.766 24.825 24.825 0 0 0 5.276 40.34s-3.427-9.186 12.966-26.144z" id="path4490"/><path d="M49.815 24.767a24.844 24.844 0 0 0-6.718-17.024s-4.363 1.931-11.711 6.453C47.78 31.154 44.352 40.341 44.352 40.341a24.818 24.818 0 0 0 5.463-15.574z" id="path4492"/><path d="M24.715 19.608C10.809 29.868 6.752 41.979 6.752 41.979a24.857 24.857 0 0 0 18.047 7.731c7.114 0 13.533-2.98 18.075-7.76 0 0-2.642-10.895-18.159-22.342z" id="path4494"/></g></g><style id="style3999"></style><style id="style4048"></style></svg>