<svg xmlns="http://www.w3.org/2000/svg" viewBox="0 0 480 480" height="480" width="480" id="svg3390"><defs id="defs3394"><clipPath id="clipPath3404"><path id="path3406" d="M0 48h48V0H0v48z"/></clipPath><clipPath id="clipPath3416"><path id="path3418" d="M0 48h48V0H0v48z"/></clipPath><clipPath id="clipPath3426"><path id="path3428" d="M0 48h48V0H0v48z"/></clipPath><clipPath id="clipPath3434"><path id="path3436" d="M0 48h48V0H0v48z"/></clipPath><clipPath id="clipPath3442"><path id="path3444" d="M0 48h48V0H0v48z"/></clipPath><clipPath id="clipPath3446"><path id="path3448" d="M0 48h48V0H0v48z"/></clipPath><clipPath id="clipPath3450"><path id="path3452" d="M48 48H0V0h48v48z"/></clipPath><clipPath id="clipPath3658"><path id="path3660" d="M0 48h48V0H0v48z"/></clipPath><clipPath id="clipPath3668"><path id="path3670" d="M0 48h48V0H0v48z"/></clipPath><clipPath id="clipPath3676"><path id="path3678" d="M0 48h48V0H0v48z"/></clipPath><clipPath id="clipPath3680"><path id="path3682" d="M0 0h48v48H0V0z"/></clipPath></defs><g transform="matrix(1.25 0 0 -1.25 0 480)" id="g3398"><path d="M342.51 251.317c-5.569-.56-28.755-5.772-36.543-7.444-8.346-2.237-84.56-61.378-89.571-75.906-1.107-5.033-1.664-12.76-1.664-20.024l-.563-11.732c0-8.383 2.316-21.882 3.43-29.146 5.005-1.125 41.278-.148 47.947-1.26l-.832-15.017c-6.509.47-52.568.36-78.877.36-13.356 0-56.292-1.478-69.476-1.08l2.49 14.29c7.232.547 37.182-1.305 43.768 5.677 3.264 3.465 2.227 7.18 2.227 27.282v9.5c0 4.481 0 12.857-1.12 20.68-2.784 8.39-69.917 92.582-87.158 106.004-4.998 1.672-36.39 4.822-44.171 6.506L32 292.877c3.891 1.954 38.782-.47 72.643.777 22.265.83 73.034 0 79.306-.745l-1.6-11.346c-6.675-1.678-38.84-2.295-47.172-4.526 21.695-32.412 56.01-74.138 67.146-90.35 6.105 8.941 59.901 46.117 61.565 58.967-8.345 1.671-35.985 5.676-40.433 5.676l-2.637 14.637c7.57 1.19 47.403 0 67.197 0 17.094 0 53.611 0 63.985-.855l-9.49-13.788z" id="path4510"/></g><style id="style3999"></style><style id="style4048"></style></svg>