<svg xmlns="http://www.w3.org/2000/svg" id="svg3390" width="480" height="480" viewBox="0 0 480 480"><defs id="defs3394"><clipPath id="clipPath3404"><path d="M0 48h48V0H0v48z" id="path3406"/></clipPath><clipPath id="clipPath3416"><path d="M0 48h48V0H0v48z" id="path3418"/></clipPath><clipPath id="clipPath3426"><path d="M0 48h48V0H0v48z" id="path3428"/></clipPath><clipPath id="clipPath3434"><path d="M0 48h48V0H0v48z" id="path3436"/></clipPath><clipPath id="clipPath3442"><path d="M0 48h48V0H0v48z" id="path3444"/></clipPath><clipPath id="clipPath3446"><path d="M0 48h48V0H0v48z" id="path3448"/></clipPath><clipPath id="clipPath3450"><path d="M48 48H0V0h48v48z" id="path3452"/></clipPath><clipPath id="clipPath3658"><path d="M0 48h48V0H0v48z" id="path3660"/></clipPath><clipPath id="clipPath3668"><path d="M0 48h48V0H0v48z" id="path3670"/></clipPath><clipPath id="clipPath3676"><path d="M0 48h48V0H0v48z" id="path3678"/></clipPath><clipPath id="clipPath3680"><path d="M0 0h48v48H0V0z" id="path3682"/></clipPath></defs><g id="g3398" transform="matrix(1.25 0 0 -1.25 0 480)"><g id="g4017" transform="matrix(5.10251 0 0 -5.09194 8.938 375.706)"><path id="path4019" d="M35.1 31.3c6.3.2 11.8.3 17.2.5 1.2 0 2.5.1 3.7.4 3.2.7 4.6 3.1 5.1 6 .4 2.9.7 5.8.7 8.6 0 4.3-.2 8.6-.5 12.8-.1 1.3-.5 2.6-1 3.7-1.2 2.7-3.6 3.6-6.3 3.7-7.5.2-14.9.4-22.4.5-4.3 0-8.6-.3-12.9-.4-1.1 0-2.1-.2-3.2-.5-2-.5-3.4-1.8-4.2-3.8-1-2.5-1.1-5.1-1.2-7.7-.1-4.6 0-9.2.2-13.8.1-1.6.4-3.2.8-4.7.9-3 3.1-4.6 6.2-4.8 6.3 0 12.5-.3 17.8-.5zm4.7 28.2c.6.5 1.2.9 1.8 1.3 1.9 1 3.8.1 4.2-2 .1-.7.2-1.4.2-2.1v-8.8c0-.8-.1-1.6-.3-2.3-.6-2.5-2.7-3.2-4.8-1.7-.4.3-.7.6-1.2 1v-7.3h-3.1v23.2h3.2c-.1-.4-.1-.8 0-1.3zm-5.9 1.3V43.4h-3.3v12.2c0 .9-.3 1.5-.9 1.9-.3.3-.9.5-1.2.4-.3-.1-.5-.7-.5-1.1V44.4v-1h-3.3V58c0 .4.1.9.2 1.3.4 1.5 1.5 2.2 3 1.7.6-.2 1.2-.6 1.8-1 .3-.2.6-.5 1-.9v1.7h3.2zm23.7-8.1c0-1.7.1-3.4 0-5-.2-2.7-2-4.4-4.5-4.6-2.6-.1-4.7 1.4-4.9 4.1-.3 3.3-.3 6.7 0 10 .3 3 3.1 4.5 6.1 3.8 2.5-.6 4-3.5 3.2-6.2h-3.2c0 .8 0 1.5-.1 2.1-.1.7-.5 1.2-1.3 1.2-.7 0-1.3-.4-1.4-1.1-.1-1.4-.2-2.9-.3-4.4 2.3.1 4.3.1 6.4.1zM25.2 40.9v-3.3H14.3v3.3h3.6v19.9h3.6V40.9h3.7z"/><g id="g4021"><path id="path4023" d="M46.4 10.7v13.7c0 .4.2 1 .5 1.1.3.1.8-.1 1.1-.3.7-.5 1-1.1 1-2.1-.1-4.1 0-8.2 0-12.3h3.2v17.4H49v-1.7l-.7.7c-.5.4-1 .9-1.6 1.1-1.6.8-3 0-3.4-1.7-.1-.3-.2-.7-.2-1V10.9c1.1-.2 2.1-.2 3.3-.2z"/><path id="path4025" d="M19.8 4.7H23c.2 0 .5.4.6.6.7 2.5 1.4 5 2 7.5 0 .2.1.3.3.5.4-1.6.8-3.1 1.3-4.7l.9-3.3c.1-.2.4-.5.7-.6 1-.1 2 0 3.2 0l-.3.9c-1.3 4.1-2.6 8.3-3.9 12.4-.1.4-.2.9-.2 1.4v8.7h-3.5c0-1.3-.1-2.6 0-3.8.3-4-.5-7.8-1.8-11.5-.9-2.7-1.7-5.3-2.5-8.1z"/><path id="path4027" d="M40.7 19.6c-.1 1.7 0 3.4-.3 5.1-.3 2.3-2.2 3.8-4.6 3.8-2.3 0-4.1-1.5-4.5-3.8-.2-1-.2-2-.2-3 0-2.4-.1-4.9.2-7.3.3-2.6 2-3.9 4.5-3.9s4.1 1.4 4.6 3.9c0 .3.1.5.1.8.1 1.4.1 2.9.2 4.4-.1 0 0 0 0 0zm-6.1-.2v4.2c0 .4 0 .8.2 1.1.3.4.8.8 1.1.8.4 0 .9-.4 1.2-.8.2-.3.2-.8.2-1.2v-7.1c0-.6 0-1.3-.1-1.9-.1-.6-.6-1-1.3-1-.7 0-1.1.3-1.3 1-.1.3-.1.6-.1.9 0 1.3.1 2.6.1 4z"/></g><path id="path4029" d="M40.4 52.2v-4.6c0-.8.6-1.4 1.5-1.4.8 0 1.2.4 1.2 1.1 0 .5.1 1 .1 1.5v7.3c0 .4-.1.8-.1 1.1-.1.6-.6 1-1.2 1-.8-.1-1.5-.6-1.5-1.3-.1-1.6-.1-3.2 0-4.7z"/><path id="path4031" d="M54 50h-3c.1-1 .1-2 .2-3 .1-.7.7-.9 1.3-.9.6 0 1.1.2 1.2.9.2 1 .3 1.9.3 3z"/></g></g><style id="style3999"></style></svg>