<?xml version="1.0" standalone="no"?> 
<!DOCTYPE svg PUBLIC "-//W3C//DTD SVG 1.1//EN" "http://www.w3.org/Graphics/SVG/1.1/DTD/svg11.dtd" >
<svg xmlns="http://www.w3.org/2000/svg">
<defs>
  <font id="evil-icons" horiz-adv-x="50">
    <font-face font-family="evil-icons"
      units-per-em="50" ascent="50"
      descent="0" />
    <missing-glyph horiz-adv-x="0" />
    <glyph glyph-name="archive"
      unicode="&#xEA01;"
      horiz-adv-x="50" d=" M42 30H40V35C40 35.6 39.6 36 39 36H11C10.4 36 10 35.6 10 35V30H8V35C8 36.7 9.3 38 11 38H39C40.7 38 42 36.7 42 35V30z M37 10H13C11.3 10 10 11.3 10 13V30H12V13C12 12.4 12.4 12 13 12H37C37.6 12 38 12.4 38 13V30H40V13C40 11.3 38.7 10 37 10z M29 24H21C20.4 24 20 24.4 20 25S20.4 26 21 26H29C29.6 26 30 25.6 30 25S29.6 24 29 24z M8 32H42V30H8z" />
    <glyph glyph-name="arrow-down"
      unicode="&#xEA02;"
      horiz-adv-x="50" d=" M25 8C15.6 8 8 15.6 8 25S15.6 42 25 42S42 34.4 42 25S34.4 8 25 8zM25 40C16.7 40 10 33.3 10 25S16.7 10 25 10S40 16.7 40 25S33.3 40 25 40z M25 15.6L15.3 25.3L16.7 26.7L25 18.4L33.3 26.7L34.7 25.3z M24 34H26V17H24z" />
    <glyph glyph-name="arrow-left"
      unicode="&#xEA03;"
      horiz-adv-x="50" d=" M25 8C15.6 8 8 15.6 8 25S15.6 42 25 42S42 34.4 42 25S34.4 8 25 8zM25 40C16.7 40 10 33.3 10 25S16.7 10 25 10S40 16.7 40 25S33.3 40 25 40z M25.3 15.3L15.6 25L25.3 34.7L26.7 33.3L18.4 25L26.7 16.7z M17 26H34V24H17z" />
    <glyph glyph-name="arrow-right"
      unicode="&#xEA04;"
      horiz-adv-x="50" d=" M25 8C15.6 8 8 15.6 8 25S15.6 42 25 42S42 34.4 42 25S34.4 8 25 8zM25 40C16.7 40 10 33.3 10 25S16.7 10 25 10S40 16.7 40 25S33.3 40 25 40z M24.7 15.3L23.3 16.7L31.6 25L23.3 33.3L24.7 34.7L34.4 25z M16 26H33V24H16z" />
    <glyph glyph-name="arrow-up"
      unicode="&#xEA05;"
      horiz-adv-x="50" d=" M25 8C15.6 8 8 15.6 8 25S15.6 42 25 42S42 34.4 42 25S34.4 8 25 8zM25 40C16.7 40 10 33.3 10 25S16.7 10 25 10S40 16.7 40 25S33.3 40 25 40z M33.3 23.3L25 31.6L16.7 23.3L15.3 24.7L25 34.4L34.7 24.7z M24 33H26V16H24z" />
    <glyph glyph-name="bell"
      unicode="&#xEA06;"
      horiz-adv-x="50" d=" M42 14C35.5 14 34.6 20.3 33.8 25.9C32.9 32.1 32.1 38 25 38S17.1 32.1 16.2 25.9C15.4 20.3 14.5 14 8 14V16C12.6 16 13.3 19.9 14.2 26.1C15.1 32.3 16.2 40 25 40S34.9 32.3 35.8 26.1C36.7 19.9 37.4 16 42 16V14z M25 10C22.2 10 20 12.2 20 15H22C22 13.3 23.3 12 25 12S28 13.3 28 15H30C30 12.2 27.8 10 25 10z M8 16H42V14H8z M27 40C27 38.9 26.1 38.5 25 38.5S23 38.9 23 40S23.9 42 25 42S27 41.1 27 40z" />
    <glyph glyph-name="calendar"
      unicode="&#xEA07;"
      horiz-adv-x="50" d=" M37 12H13C11.3 12 10 13.3 10 15V37C10 38.7 11.1 40 12.5 40H14V38H12.5C12.3 38 12 37.6 12 37V15C12 14.4 12.4 14 13 14H37C37.6 14 38 14.4 38 15V37C38 37.6 37.7 38 37.5 38H36V40H37.5C38.9 40 40 38.7 40 37V15C40 13.3 38.7 12 37 12z M17 36C16.4 36 16 36.4 16 37V41C16 41.6 16.4 42 17 42S18 41.6 18 41V37C18 36.4 17.6 36 17 36z M33 36C32.4 36 32 36.4 32 37V41C32 41.6 32.4 42 33 42S34 41.6 34 41V37C34 36.4 33.6 36 33 36z M20 40H30V38H20z M12 34H38V32H12z M34 30H36V28H34z M30 30H32V28H30z M26 30H28V28H26z M22 30H24V28H22z M18 30H20V28H18z M34 26H36V24H34z M30 26H32V24H30z M26 26H28V24H26z M22 26H24V24H22z M18 26H20V24H18z M14 26H16V24H14z M34 22H36V20H34z M30 22H32V20H30z M26 22H28V20H26z M22 22H24V20H22z M18 22H20V20H18z M14 22H16V20H14z M30 18H32V16H30z M26 18H28V16H26z M22 18H24V16H22z M18 18H20V16H18z M14 18H16V16H14z" />
    <glyph glyph-name="camera"
      unicode="&#xEA08;"
      horiz-adv-x="50" d=" M39 12H11C9.3 12 8 13.3 8 15V33C8 34.7 9.3 36 11 36H17C17.2 36 17.5 36.2 17.6 36.3L18.7 38.5C19.1 39.3 20.1 39.9 21 39.9H29C29.9 39.9 30.9 39.3 31.3 38.5L32.4 36.3C32.5 36.1 32.8 36 33 36H39C40.7 36 42 34.7 42 33V15C42 13.3 40.7 12 39 12zM11 34C10.4 34 10 33.6 10 33V15C10 14.4 10.4 14 11 14H39C39.6 14 40 14.4 40 15V33C40 33.6 39.6 34 39 34H33C32.1 34 31.1 34.6 30.7 35.4L29.6 37.6C29.5 37.8 29.2 38 29 38H21C20.8 38 20.5 37.8 20.4 37.7L19.3 35.5C18.9 34.6 17.9 34 17 34H11z M25 16C20 16 16 20 16 25S20 34 25 34S34 30 34 25S30 16 25 16zM25 32C21.1 32 18 28.9 18 25S21.1 18 25 18S32 21.1 32 25S28.9 32 25 32z M34 32C34 31.4477152501692 34.4477152501692 31 35 31C35.5522847498308 31 36 31.4477152501692 36 32C36 32.5522847498308 35.5522847498308 33 35 33C34.4477152501692 33 34 32.5522847498308 34 32z M12 38H16V37H12z M25 29V30C22.2 30 20 27.8 20 25H21C21 27.2 22.8 29 25 29z" />
    <glyph glyph-name="cart"
      unicode="&#xEA09;"
      horiz-adv-x="50" d=" M35 16H13C12.7 16 12.4 16.2 12.2 16.4S12 17 12.1 17.3L14 22.1L12.1 40H6V42H13C13.5 42 13.9 41.6 14 41.1L16 22.1C16 21.9 16 21.8 15.9 21.6L14.5 18H36L35 16z M15.2 21L14.8 23L38 27.8V36H14V38H39C39.6 38 40 37.6 40 37V27C40 26.5 39.7 26.1 39.2 26L15.2 21z M36 10C33.8 10 32 11.8 32 14S33.8 18 36 18S40 16.2 40 14S38.2 10 36 10zM36 16C34.9 16 34 15.1 34 14S34.9 12 36 12S38 12.9 38 14S37.1 16 36 16z M12 10C9.8 10 8 11.8 8 14S9.8 18 12 18S16 16.2 16 14S14.2 10 12 10zM12 16C10.9 16 10 15.1 10 14S10.9 12 12 12S14 12.9 14 14S13.1 16 12 16z" />
    <glyph glyph-name="chart"
      unicode="&#xEA0A;"
      horiz-adv-x="50" d=" M18 14H16V24H12V14H10V26H18z M28 14H26V30H22V14H20V32H28z M38 14H36V36H32V14H30V38H38z M8 14H40V12H8z" />
    <glyph glyph-name="check"
      unicode="&#xEA0B;"
      horiz-adv-x="50" d=" M25 8C15.6 8 8 15.6 8 25S15.6 42 25 42S42 34.4 42 25S34.4 8 25 8zM25 40C16.7 40 10 33.3 10 25S16.7 10 25 10S40 16.7 40 25S33.3 40 25 40z M23 17.6L14.3 26.3L15.7 27.7L23 20.4L34.3 31.7L35.7 30.3z" />
    <glyph glyph-name="chevron-down"
      unicode="&#xEA0C;"
      horiz-adv-x="50" d=" M25 17.6L15.3 27.3L16.7 28.7L25 20.4L33.3 28.7L34.7 27.3z" />
    <glyph glyph-name="chevron-left"
      unicode="&#xEA0D;"
      horiz-adv-x="50" d=" M27.3 15.3L17.6 25L27.3 34.7L28.7 33.3L20.4 25L28.7 16.7z" />
    <glyph glyph-name="chevron-right"
      unicode="&#xEA0E;"
      horiz-adv-x="50" d=" M22.7 15.3L21.3 16.7L29.6 25L21.3 33.3L22.7 34.7L32.4 25z" />
    <glyph glyph-name="chevron-up"
      unicode="&#xEA0F;"
      horiz-adv-x="50" d=" M33.3 21.3L25 29.6L16.7 21.3L15.3 22.7L25 32.4L34.7 22.7z" />
    <glyph glyph-name="clock"
      unicode="&#xEA10;"
      horiz-adv-x="50" d=" M25 8C15.6 8 8 15.6 8 25S15.6 42 25 42S42 34.4 42 25S34.4 8 25 8zM25 40C16.7 40 10 33.3 10 25S16.7 10 25 10S40 16.7 40 25S33.3 40 25 40z M30.3 16.3L24 22.6V34H26V23.4L31.7 17.7z" />
    <glyph glyph-name="close-o"
      unicode="&#xEA11;"
      horiz-adv-x="50" d=" M25 8C15.6 8 8 15.6 8 25S15.6 42 25 42S42 34.4 42 25S34.4 8 25 8zM25 40C16.7 40 10 33.3 10 25S16.7 10 25 10S40 16.7 40 25S33.3 40 25 40z M32.283 33.698L33.697 32.283L17.717 16.303L16.303 17.717z M17.717 33.698L33.697 17.718L32.283 16.303L16.303 32.283z" />
    <glyph glyph-name="close"
      unicode="&#xEA12;"
      horiz-adv-x="50" d=" M37.304 38.718L38.718 37.304L12.696 11.284L11.282 12.697z M12.696 38.718L38.718 12.698L37.304 11.283L11.282 37.303z" />
    <glyph glyph-name="comment"
      unicode="&#xEA13;"
      horiz-adv-x="50" d=" M15 8H13L14.2 9.6C15 10.7 15.5 12.1 15.8 13.8C10.8 16.1 8 20.4 8 26C8 34.6 14.5 40 25 40S42 34.6 42 26C42 17.2 35.6 12 25 12H24.3C22.7 10.1 19.9 8 15 8zM25 38C15.6 38 10 33.5 10 26C10 19.6 13.9 16.6 17.2 15.3L17.9 15L17.8 14.2C17.6 12.6 17.3 11.2 16.7 10C20 10.4 21.9 12.1 23 13.5L23.3 13.9H25C38.5 13.9 40 22.3 40 25.9C40 33.5 34.4 38 25 38z" />
    <glyph glyph-name="credit-card"
      unicode="&#xEA14;"
      horiz-adv-x="50" d=" M39 12H11C9.3 12 8 13.3 8 15V35C8 36.7 9.3 38 11 38H39C40.7 38 42 36.7 42 35V15C42 13.3 40.7 12 39 12zM11 36C10.4 36 10 35.6 10 35V15C10 14.4 10.4 14 11 14H39C39.6 14 40 14.4 40 15V35C40 35.6 39.6 36 39 36H11z M9 34H41V28H9z M12 24H13V22H12z M14 24H15V22H14z M16 24H17V22H16z M19 24H20V22H19z M21 24H22V22H21z M23 24H24V22H23z M26 24H27V22H26z M28 24H29V22H28z M30 24H31V22H30z M33 24H34V22H33z M35 24H36V22H35z M37 24H38V22H37z" />
    <glyph glyph-name="envelope"
      unicode="&#xEA15;"
      horiz-adv-x="50" d=" M31.796 25.756L41.766 15.786L40.351 14.372L30.381 24.342z M18.278 25.713L19.692 24.299L9.792 14.399L8.378 15.809z M25 20.1C23.5 20.1 21.9 20.7 20.8 21.9L8.3 34.3L9.7 35.7L22.2 23.2C23.8 21.6 26.3 21.6 27.9 23.2L40.4 35.7L41.8 34.3L29.2 21.8C28.1 20.7 26.5 20.1 25 20.1z M39 12H11C9.3 12 8 13.3 8 15V35C8 36.7 9.3 38 11 38H39C40.7 38 42 36.7 42 35V15C42 13.3 40.7 12 39 12zM11 36C10.4 36 10 35.6 10 35V15C10 14.4 10.4 14 11 14H39C39.6 14 40 14.4 40 15V35C40 35.6 39.6 36 39 36H11z" />
    <glyph glyph-name="exclamation"
      unicode="&#xEA16;"
      horiz-adv-x="50" d=" M25 8C15.6 8 8 15.6 8 25S15.6 42 25 42S42 34.4 42 25S34.4 8 25 8zM25 40C16.7 40 10 33.3 10 25S16.7 10 25 10S40 16.7 40 25S33.3 40 25 40z M24 18H26V16H24z M25.6 20H24.4L24 28V34H26V28z" />
    <glyph glyph-name="external-link"
      unicode="&#xEA17;"
      horiz-adv-x="50" d=" M38.288 39.703L39.702 38.288L24.712 23.298L23.298 24.712z M40 30H38V38H30V40H40z M35 12H15C13.3 12 12 13.3 12 15V35C12 36.7 13.3 38 15 38H26V36H15C14.4 36 14 35.6 14 35V15C14 14.4 14.4 14 15 14H35C35.6 14 36 14.4 36 15V26H38V15C38 13.3 36.7 12 35 12z" />
    <glyph glyph-name="eye"
      unicode="&#xEA18;"
      horiz-adv-x="50" d=" M25 14C13.5 14 8.3 24.1 8.1 24.6C8 24.9 8 25.2 8.1 25.5C8.3 25.9 13.5 36 25 36S41.7 25.9 41.9 25.4C42 25.1 42 24.8 41.9 24.5C41.7 24.1 36.5 14 25 14zM10.1 25C11.2 23.1 16 16 25 16S38.7 23.1 39.9 25C38.8 26.9 34 34 25 34S11.3 26.9 10.1 25z M25 16C20 16 16 20 16 25S20 34 25 34S34 30 34 25S30 16 25 16zM25 32C21.1 32 18 28.9 18 25S21.1 18 25 18S32 21.1 32 25S28.9 32 25 32z M25 20C22.2 20 20 22.2 20 25C20 25.6 20.4 26 21 26S22 25.6 22 25C22 23.3 23.3 22 25 22S28 23.3 28 25S26.7 28 25 28C24.4 28 24 28.4 24 29S24.4 30 25 30C27.8 30 30 27.8 30 25S27.8 20 25 20z" />
    <glyph glyph-name="gear"
      unicode="&#xEA19;"
      horiz-adv-x="50" d=" M25 16C20 16 16 20 16 25S20 34 25 34S34 30 34 25S30 16 25 16zM25 32C21.1 32 18 28.9 18 25S21.1 18 25 18S32 21.1 32 25S28.9 32 25 32z M27.7 6H22.3L20.8 10.6C19.8 10.9 18.8 11.3 17.9 11.8L13.5 9.6L9.7 13.4L11.9 17.8C11.4 18.7 11 19.7 10.7 20.7L6 22.3V27.7L10.6 29.2C10.9 30.2 11.3 31.2 11.8 32.1L9.6 36.5L13.4 40.3L17.8 38.1C18.7 38.6 19.7 39 20.7 39.3L22.3 44H27.7L29.2 39.4C30.2 39.1 31.2 38.7 32.1 38.2L36.5 40.4L40.3 36.6L38.1 32.2C38.6 31.3 39 30.3 39.3 29.3L43.9 27.8V22.4L39.3 20.9C39 19.9 38.6 18.9 38.1 18L40.3 13.6L36.5 9.8L32.1 12C31.2 11.5 30.2 11.1 29.2 10.8L27.7 6zM23.7 8H26.3L27.7 12.3L28.2 12.4C29.4 12.7 30.5 13.2 31.6 13.8L32.1 14.1L36.1 12.1L37.9 13.9L35.9 17.9L36.2 18.4C36.8 19.4 37.3 20.6 37.6 21.8L37.7 22.3L42 23.7V26.3L37.7 27.7L37.6 28.2C37.3 29.4 36.8 30.5 36.2 31.6L35.9 32.1L37.9 36.1L36.1 37.9L32.1 35.9L31.6 36.2C30.5 36.8 29.4 37.3 28.2 37.6L27.7 37.7L26.3 42H23.7L22.3 37.7L21.8 37.6C20.6 37.3 19.5 36.8 18.4 36.2L17.9 35.9L13.9 37.9L12.1 36.1L14.1 32.1L13.8 31.6C13.2 30.6 12.7 29.4 12.4 28.2L12.3 27.7L8 26.3V23.7L12.3 22.3L12.4 21.8C12.7 20.6 13.2 19.5 13.8 18.4L14.1 17.9L12.1 13.9L13.9 12.1L17.9 14.1L18.4 13.8C19.5 13.2 20.6 12.7 21.8 12.4L22.3 12.3L23.7 8z" />
    <glyph glyph-name="heart"
      unicode="&#xEA1A;"
      horiz-adv-x="50" d=" M25 10.3L24.4 10.8C11.5 21.3 8 25 8 31C8 36 12 40 17 40C21.1 40 23.4 37.7 25 35.9C26.6 37.7 28.9 40 33 40C38 40 42 36 42 31C42 25 38.5 21.3 25.6 10.8L25 10.3zM17 38C13.1 38 10 34.9 10 31C10 25.9 13.2 22.5 25 12.9C36.8 22.5 40 25.9 40 31C40 34.9 36.9 38 33 38C29.5 38 27.6 35.9 26.1 34.2L25 32.9L23.9 34.2C22.4 35.9 20.5 38 17 38z" />
    <glyph glyph-name="image"
      unicode="&#xEA1B;"
      horiz-adv-x="50" d=" M39 12H11C9.3 12 8 13.3 8 15V35C8 36.7 9.3 38 11 38H39C40.7 38 42 36.7 42 35V15C42 13.3 40.7 12 39 12zM11 36C10.4 36 10 35.6 10 35V15C10 14.4 10.4 14 11 14H39C39.6 14 40 14.4 40 15V35C40 35.6 39.6 36 39 36H11z M30 26C27.8 26 26 27.8 26 30S27.8 34 30 34S34 32.2 34 30S32.2 26 30 26zM30 32C28.9 32 28 31.1 28 30S28.9 28 30 28S32 28.9 32 30S31.1 32 30 32z M35.3 12.3L19 27.6L9.7 19L8.3 20.4L19 30.4L36.7 13.7z M40.4 17.3L35 21.7L30.5 18L29.2 19.6L35 24.3L41.6 18.9z" />
    <glyph glyph-name="like"
      unicode="&#xEA1C;"
      horiz-adv-x="50" d=" M40 26.8C40 28.9 38.3 30 36 30H29.3C29.8 31.8 30 33.5 30 35C30 40.8 28.4 42 27 42C26.1 42 25.4 41.9 24.5 41.4C24.2 41.2 24.1 41 24 40.7L23 35.3C21.9 32.5 19.2 30 17 28.3V14C17.8 14 18.6 13.6 19.6 13.1C20.7 12.6 21.8 12 23 12H32.5C34.5 12 36 13.6 36 15C36 15.3 36 15.5 35.9 15.7C37.1 16.2 38 17.2 38 18.5C38 19.1 37.9 19.6 37.7 20.1C38.5 20.6 39.2 21.5 39.2 22.5C39.2 23.1 38.9 23.7 38.6 24.2C39.4 24.8 40 25.8 40 26.8zM37.9 26.8C37.9 25.5 36.6 25.4 36.4 24.8C36.2 24.1 37.2 23.9 37.2 22.7C37.2 21.5 35.7 21.5 35.5 20.8C35.3 20 36 19.8 36 18.6V18.4C35.8 17.4 34.3 17.3 34 16.9C33.7 16.4 34 16.2 34 15.1C34 14.5 33.3 14.1 32.5 14.1H23C22.2 14.1 21.4 14.5 20.4 15C19.6 15.4 18.8 15.8 18 16V26.5C20.5 28.4 23.7 31.2 24.9 34.7V34.9L25.8 39.9C26.2 40 26.5 40 27 40C27.2 40 28 38.8 28 35C28 33.5 27.7 31.9 27.2 30H27C26.4 30 26 29.6 26 29S26.4 28 27 28H36C37 28 37.9 27.5 37.9 26.8z M16 12H10C8.9 12 8 12.9 8 14V28C8 29.1 8.9 30 10 30H16C17.1 30 18 29.1 18 28V14C18 12.9 17.1 12 16 12zM10 28V14H16V28H10z" />
    <glyph glyph-name="link"
      unicode="&#xEA1D;"
      horiz-adv-x="50" d=" M24 19.8C24 19.6 24.1 19.3 24.1 19C24.1 17.6 23.6 16.4 22.6 15.4L20.6 13.4C19.6 12.4 18.4 11.9 17 11.9C14.2 11.9 11.9 14.2 11.9 17C11.9 18.4 12.4 19.6 13.4 20.6L15.4 22.6C16.4 23.6 17.6 24.1 19 24.1C19.3 24.1 19.5 24.1 19.8 24L21.3 25.5C20.6 25.8 19.8 25.9 19 25.9C17.1 25.9 15.4 25.2 14.1 23.9L12.1 21.9C10.8 20.6 10.1 18.9 10.1 17C10.1 13.2 13.2 10.1 17 10.1C18.9 10.1 20.6 10.8 21.9 12.1L23.9 14.1C25.2 15.4 25.9 17.1 25.9 19C25.9 19.8 25.8 20.6 25.5 21.3L24 19.8z M33 39.9C31.1 39.9 29.4 39.2 28.1 37.9L26.1 35.9C24.8 34.6 24.1 32.9 24.1 31C24.1 30.2 24.2 29.4 24.5 28.7L26 30.2C26 30.4 25.9 30.7 25.9 31C25.9 32.4 26.4 33.6 27.4 34.6L29.4 36.6C30.4 37.6 31.6 38.1 33 38.1C35.8 38.1 38.1 35.8 38.1 33C38.1 31.6 37.6 30.4 36.6 29.4L34.6 27.4C33.6 26.4 32.4 25.9 31 25.9C30.7 25.9 30.5 25.9 30.2 26L28.7 24.5C29.4 24.2 30.2 24.1 31 24.1C32.9 24.1 34.6 24.8 35.9 26.1L37.9 28.1C39.2 29.4 39.9 31.1 39.9 33C39.9 36.8 36.8 39.9 33 39.9z M20 19C19.7 19 19.5 19.1 19.3 19.3C18.9 19.7 18.9 20.3 19.3 20.7L29.3 30.7C29.7 31.1 30.3 31.1 30.7 30.7S31.1 29.7 30.7 29.3L20.7 19.3C20.5 19.1 20.3 19 20 19z" />
    <glyph glyph-name="location"
      unicode="&#xEA1E;"
      horiz-adv-x="50" d=" M25 7.5L24.2 8.4C23.7 8.9 12 22.7 12 31C12 38.2 17.8 44 25 44S38 38.2 38 31C38 22.7 26.3 8.9 25.8 8.3L25 7.5zM25 42C18.9 42 14 37.1 14 31C14 24.6 22.4 13.8 25 10.6C27.6 13.8 36 24.6 36 31C36 37.1 31.1 42 25 42z M25 26C22.2 26 20 28.2 20 31S22.2 36 25 36S30 33.8 30 31S27.8 26 25 26zM25 34C23.3 34 22 32.7 22 31S23.3 28 25 28S28 29.3 28 31S26.7 34 25 34z" />
    <glyph glyph-name="lock"
      unicode="&#xEA1F;"
      horiz-adv-x="50" d=" M34 27H32V31C32 34.9 28.9 38 25 38S18 34.9 18 31V27H16V31C16 36 20 40 25 40S34 36 34 31V27z M33 10H17C15.3 10 14 11.3 14 13V25C14 26.7 15.3 28 17 28H33C34.7 28 36 26.7 36 25V13C36 11.3 34.7 10 33 10zM17 26C16.4 26 16 25.6 16 25V13C16 12.4 16.4 12 17 12H33C33.6 12 34 12.4 34 13V25C34 25.6 33.6 26 33 26H17z M23 22C23 20.8954305003384 23.8954305003384 20 25 20C26.1045694996616 20 27 20.8954305003384 27 22C27 23.1045694996616 26.1045694996616 24 25 24C23.8954305003384 24 23 23.1045694996616 23 22z M25.5 22H24.5L23.5 16H26.5z" />
    <glyph glyph-name="minus"
      unicode="&#xEA20;"
      horiz-adv-x="50" d=" M25 8C15.6 8 8 15.6 8 25S15.6 42 25 42S42 34.4 42 25S34.4 8 25 8zM25 40C16.7 40 10 33.3 10 25S16.7 10 25 10S40 16.7 40 25S33.3 40 25 40z M16 26H34V24H16z" />
    <glyph glyph-name="navicon"
      unicode="&#xEA21;"
      horiz-adv-x="50" d=" M10 38H40V34H10z M10 28H40V24H10z M10 18H40V14H10z" />
    <glyph glyph-name="paperclip"
      unicode="&#xEA22;"
      horiz-adv-x="50" d=" M13.8 10.4C12.3 10.4 10.7 11 9.6 12.2C7.3 14.5 7.3 18.3 9.6 20.7L26.6 37.7C29.7 40.8 34.8 40.8 37.9 37.7C41 34.6 41 29.5 37.9 26.4L25.1 13.6L23.7 15L36.4 27.7C38.7 30 38.7 33.8 36.4 36.2C34.1 38.5 30.3 38.5 27.9 36.2L10.9 19.2C10.1 18.4 9.7 17.4 9.7 16.4C9.7 15.3 10.1 14.3 10.9 13.6C12.5 12 15 12 16.6 13.6L29.3 26.3C30.1 27.1 30.1 28.3 29.3 29.1C28.5 29.9 27.3 29.9 26.5 29.1L18 20.7L16.6 22.1L25.1 30.6C26.7 32.2 29.2 32.2 30.8 30.6C32.4 29 32.4 26.5 30.8 24.9L18 12.2C16.9 11 15.3 10.4 13.8 10.4z" />
    <glyph glyph-name="pencil"
      unicode="&#xEA23;"
      horiz-adv-x="50" d=" M9.6 9.6L12.1 19.5L27 34.4L34.4 27L19.5 12.1L9.6 9.6zM13.9 18.5L12.4 12.4L18.5 13.9L31.6 27L27 31.6L13.9 18.5z M17.8 12.7C17.2 15.2 15.2 17.2 12.7 17.8L13.2 19.7C16.4 18.9 18.9 16.4 19.7 13.2L17.8 12.7z M29.298 30.713L30.712 29.299L17.702 16.279L16.288 17.689z M11 11L13.9 11.7C13.6 12.8 12.8 13.6 11.7 13.9L11 11z M35 27.6L27.6 35L30.6 38L31.1 37.9C34.7 37.4 37.5 34.6 38 31L38.1 30.5L35 27.6zM30.4 35L35 30.4L35.9 31.3C35.4 33.6 33.6 35.4 31.3 35.9L30.4 35z" />
    <glyph glyph-name="play"
      unicode="&#xEA24;"
      horiz-adv-x="50" d=" M25 8C15.6 8 8 15.6 8 25S15.6 42 25 42S42 34.4 42 25S34.4 8 25 8zM25 40C16.7 40 10 33.3 10 25S16.7 10 25 10S40 16.7 40 25S33.3 40 25 40z M20 16.3V33.7L35 25L20 16.3zM22 30.3V19.8L31 25.1L22 30.3z" />
    <glyph glyph-name="plus"
      unicode="&#xEA25;"
      horiz-adv-x="50" d=" M25 8C15.6 8 8 15.6 8 25S15.6 42 25 42S42 34.4 42 25S34.4 8 25 8zM25 40C16.7 40 10 33.3 10 25S16.7 10 25 10S40 16.7 40 25S33.3 40 25 40z M16 26H34V24H16z M24 34H26V16H24z" />
    <glyph glyph-name="pointer"
      unicode="&#xEA26;"
      horiz-adv-x="50" d=" M33 12H21C20.4 12 20 12.4 20 13C20 14.5 19.3 15.4 18.2 16.8C17.6 17.5 16.9 18.4 16.2 19.5C14.3 22.5 12.6 26.1 12.2 27.4C11.8 28.7 12.1 29.6 12.5 30.1C12.9 30.7 13.7 31 14.6 31C15.8 31 17 30 18.1 28.7V39C18.1 40.7 19.4 42 21.1 42S24.1 40.7 24.1 39V34.8C24.4 34.9 24.7 35 25.1 35C26.2 35 27.1 34.4 27.6 33.6C28 33.9 28.5 34 29 34C30.4 34 31.5 33.1 31.9 31.8C32.2 31.9 32.6 32 33 32C34.7 32 36 30.7 36 29V26C36 23.4 35.5 21.3 35 19.3S34 15.4 34 13C34 12.4 33.6 12 33 12zM21.9 14H32C32.1 16.2 32.6 18 33 19.8C33.5 21.8 34 23.7 34 26V29C34 29.6 33.6 30 33 30S32 29.6 32 29V28C32 27.4 31.6 27 31 27S30 27.4 30 28V31C30 31.6 29.6 32 29 32S28 31.6 28 31V29C28 28.4 27.6 28 27 28S26 28.4 26 29V32C26 32.6 25.6 33 25 33S24 32.6 24 32V30C24 29.4 23.6 29 23 29S22 29.4 22 30V39C22 39.6 21.6 40 21 40S20 39.6 20 39V24C20 23.4 19.6 23 19 23S18 23.4 18 24V24.8C17.1 27.1 15.2 29 14.5 29C14.3 29 14.1 29 14 28.9C13.9 28.8 13.9 28.5 14 28C14.3 26.9 15.8 23.7 17.8 20.5C18.4 19.5 19 18.8 19.6 18C20.7 16.8 21.7 15.7 21.9 14z" />
    <glyph glyph-name="question"
      unicode="&#xEA27;"
      horiz-adv-x="50" d=" M25 8C15.6 8 8 15.6 8 25S15.6 42 25 42S42 34.4 42 25S34.4 8 25 8zM25 40C16.7 40 10 33.3 10 25S16.7 10 25 10S40 16.7 40 25S33.3 40 25 40z M19.8 30.4C20.1 31.2 20.4 31.8 21 32.3C21.5 32.8 22.1 33.2 22.9 33.5S24.5 33.9 25.4 33.9C26.1 33.9 26.8 33.8 27.4 33.6C28 33.4 28.6 33.1 29.1 32.7S30 31.8 30.2 31.2C30.5 30.6 30.6 29.9 30.6 29.2C30.6 28.2 30.4 27.4 30 26.7S29 25.4 28.4 24.7L27.1 23.4C26.8 23.1 26.5 22.8 26.4 22.5C26.2 22.2 26.1 21.8 26.1 21.4C26 21 26 20.7 26 19.9H24.4C24.4 20.7 24.4 21 24.5 21.6C24.6 22.1 24.8 22.6 25 23.1C25.2 23.5 25.5 23.9 25.9 24.3C26.3 24.7 26.8 25.1 27.3 25.7C27.8 26.2 28.2 26.7 28.5 27.2S29 28.4 29 29C29 29.5 28.9 30 28.7 30.4C28.5 30.8 28.2 31.2 27.9 31.5C27.6 31.8 27.2 32 26.7 32.2C26.2 32.4 25.8 32.5 25.3 32.5C24.6 32.5 24 32.4 23.5 32.1C23 31.9 22.5 31.5 22.2 31.1C21.9 30.7 21.6 30.2 21.4 29.6S21 28.7 21 28H19.4C19.4 28.9 19.5 29.6 19.8 30.4zM26 18V16H24V18H26z" />
    <glyph glyph-name="redo"
      unicode="&#xEA28;"
      horiz-adv-x="50" d=" M25 12C17.8 12 12 17.8 12 25S17.8 38 25 38C30.4 38 35.1 34.6 36.9 29.3L35 28.6C33.5 33.2 29.6 36 25 36C18.9 36 14 31.1 14 25S18.9 14 25 14C29.3 14 33.2 16.5 35 20.4L36.8 19.6C34.7 15 30.1 12 25 12z M38 28H30V30H36V36H38z" />
    <glyph glyph-name="refresh"
      unicode="&#xEA29;"
      horiz-adv-x="50" d=" M25 12C17.8 12 12 17.8 12 25C12 28.2 13.2 31.2 15.3 33.6L16.8 32.3C15 30.3 14 27.7 14 25C14 18.9 18.9 14 25 14C26.6 14 28.1 14.3 29.6 15L30.4 13.2C28.7 12.4 26.9 12 25 12z M34.7 16.3L33.2 17.6C35 19.6 36 22.2 36 24.9C36 31 31.1 35.9 25 35.9C23.4 35.9 21.9 35.6 20.4 34.9L19.6 36.7C21.3 37.5 23.1 37.9 25 37.9C32.2 37.9 38 32.1 38 24.9C38 21.8 36.8 18.7 34.7 16.3z M18 26H16V32H10V34H18z M40 16H32V24H34V18H40z" />
    <glyph glyph-name="retweet"
      unicode="&#xEA2A;"
      horiz-adv-x="50" d=" M38 15H36V33C36 33.6 35.6 34 35 34H18V36H35C36.7 36 38 34.7 38 33V15z M37 13.5L30.2 21.3L31.8 22.7L37 16.5L42.2 22.7L43.8 21.3z M32 14H15C13.3 14 12 15.3 12 17V35H14V17C14 16.4 14.4 16 15 16H32V14z M18.2 27.3L13 33.5L7.8 27.3L6.2 28.7L13 36.5L19.8 28.7z" />
    <glyph glyph-name="sc-facebook"
      unicode="&#xEA2B;"
      horiz-adv-x="50" d=" M26 30V33C26 34.3 26.3 35 28.4 35H31V40H27C22 40 20 36.7 20 33V30H16V25H20V10H26V25H30.4L31 30H26z" />
    <glyph glyph-name="sc-github"
      unicode="&#xEA2C;"
      horiz-adv-x="50" d=" M25 40C16.7 40 10 33.3 10 25C10 18.4 14.3 12.8 20.3 10.8C21.1 10.7 21.3 11.1 21.3 11.5V14.1C17.1 13.2 16.2 16.1 16.2 16.1C15.5 17.8 14.5 18.3 14.5 18.3C13.1 19.2 14.6 19.2 14.6 19.2C16.1 19.1 16.9 17.7 16.9 17.7C18.2 15.4 20.4 16.1 21.3 16.5C21.4 17.5 21.8 18.1 22.3 18.5C19 18.9 15.5 20.2 15.5 25.9C15.5 27.5 16.1 28.9 17 29.9C16.8 30.3 16.3 31.8 17.1 33.9C17.1 33.9 18.4 34.3 21.2 32.4C22.4 32.7 23.7 32.9 25 32.9C26.3 32.9 27.6 32.7 28.8 32.4C31.7 34.3 32.9 33.9 32.9 33.9C33.7 31.8 33.2 30.3 33 29.9C34 28.9 34.5 27.5 34.5 25.9C34.5 20.1 31 18.9 27.7 18.5C28.2 18 28.7 17.1 28.7 15.7V11.6C28.7 11.2 29 10.7 29.7 10.9C35.7 12.9 39.9 18.5 39.9 25.1C40 33.3 33.3 40 25 40z" />
    <glyph glyph-name="sc-google-plus"
      unicode="&#xEA2D;"
      horiz-adv-x="50" d=" M18 27V22.2H25.9C25.6 20.1 23.5 16.2 18 16.2C13.2 16.2 9.3 20.2 9.3 25S13.2 33.8 18 33.8C20.7 33.8 22.5 32.6 23.6 31.6L27.4 35.3C24.9 37.6 21.8 39 18 39C10.3 39 4 32.7 4 25S10.3 11 18 11C26.1 11 31.4 16.7 31.4 24.7C31.4 25.6 31.3 26.3 31.2 27H18z M48 27H44V31H40V27H36V23H40V19H44V23H48z" />
    <glyph glyph-name="sc-instagram"
      unicode="&#xEA2E;"
      horiz-adv-x="50" d=" M25 38C21.47 38 21.027 37.985 19.64 37.922C18.256 37.859 17.311 37.639 16.484 37.318A6.372 6.372 0 0 1 14.182 35.818A6.372 6.372 0 0 1 12.682 33.515C12.361 32.689 12.142 31.744 12.078 30.36C12.015 28.973 12 28.53 12 25C12 21.47 12.015 21.027 12.078 19.64C12.141 18.256 12.361 17.311 12.682 16.485C13.015 15.63 13.459 14.905 14.182 14.182A6.372 6.372 0 0 1 16.484 12.682C17.311 12.362 18.256 12.142 19.64 12.078C21.027 12.015 21.47 12 25 12C28.53 12 28.973 12.015 30.36 12.078C31.744 12.141 32.689 12.361 33.515 12.682A6.371000000000001 6.371000000000001 0 0 1 35.818 14.182A6.372 6.372 0 0 1 37.318 16.485C37.638 17.311 37.858 18.256 37.922 19.64C37.985 21.027 38 21.47 38 25C38 28.53 37.985 28.973 37.922 30.36C37.859 31.744 37.639 32.689 37.317 33.515A6.372 6.372 0 0 1 35.818 35.818A6.371000000000001 6.371000000000001 0 0 1 33.515 37.318C32.689 37.638 31.744 37.858 30.36 37.922C28.973 37.985 28.53 38 25 38M25 35.658C28.471 35.658 28.882 35.644 30.253 35.582C31.52 35.524 32.209 35.312 32.667 35.134C33.274 34.898 33.707 34.617 34.162 34.162C34.617 33.707 34.898 33.274 35.134 32.667C35.312 32.209 35.524 31.521 35.582 30.253C35.644 28.883 35.658 28.471 35.658 25S35.644 21.118 35.582 19.747C35.524 18.479 35.312 17.791 35.134 17.333A4.028 4.028 0 0 0 34.162 15.838A4.027 4.027 0 0 0 32.667 14.866C32.209 14.688 31.52 14.476 30.253 14.418C28.883 14.356 28.471 14.342 25 14.342S21.117 14.356 19.747 14.418C18.479 14.476 17.791 14.688 17.333 14.866A4.027 4.027 0 0 0 15.838 15.838A4.03 4.03 0 0 0 14.866 17.333C14.688 17.791 14.476 18.479 14.418 19.747C14.356 21.117 14.342 21.529 14.342 25S14.356 28.882 14.418 30.253C14.476 31.521 14.688 32.209 14.866 32.667C15.102 33.274 15.383 33.707 15.838 34.162A4.028 4.028 0 0 0 17.333 35.134C17.791 35.312 18.479 35.524 19.747 35.582C21.117 35.644 21.529 35.658 25 35.658 M25 32A7 7 0 1 1 25 18A7 7 0 0 1 25 32M25 20.5A4.5 4.5 0 1 0 25 29.5A4.5 4.5 0 0 0 25 20.5M33.7 31.9A1.6 1.6 0 1 0 30.5 31.9A1.6 1.6 0 0 0 33.7 31.9" />
    <glyph glyph-name="sc-linkedin"
      unicode="&#xEA2F;"
      horiz-adv-x="50" d=" M36.1 38H13.9C12.8 38 12 37.2 12 36.1V13.9C12 12.9 12.9 12 13.9 12H36.1C37.2 12 38 12.8 38 13.9V36.1C38 37.2 37.1 38 36.1 38zM20 16H16V28H20V16zM18 29.6C16.7 29.6 15.6 30.7 15.6 32C15.6 33.3 16.7 34.4 18 34.4C19.3 34.4 20.4 33.3 20.4 32C20.4 30.7 19.3 29.6 18 29.6zM34 16H30V22C30 23.6 29.6 25.2 28 25.2S26 23.6 26 22V16H22V28H26V26.6H26.2C26.7 27.6 28 28.4 29.5 28.4C33.2 28.4 34 26 34 23V16z" />
    <glyph glyph-name="sc-odnoklassniki"
      unicode="&#xEA30;"
      horiz-adv-x="50" d=" M25 24C20.6 24 17 27.6 17 32S20.6 40 25 40S33 36.4 33 32S29.4 24 25 24zM25 36.2C22.7 36.2 20.8 34.3 20.8 32S22.7 27.8 25 27.8S29.2 29.7 29.2 32S27.3 36.2 25 36.2z M33.6 23.2C32.9 24.1 31.7 24.2 30.8 23.6C30.8 23.6 28.6 22 25 22C21.4 22 19.2 23.6 19.2 23.6C18.3 24.3 17.1 24.1 16.4 23.2C15.7 22.3 15.9 21.1 16.8 20.4C16.9 20.3 19 18.7 22.5 18.2L17.2 12.8C16.4 12 16.4 10.7 17.2 10C17.6 9.6 18.1 9.4 18.6 9.4C19.1 9.4 19.6 9.6 20 10L25 15.1L30 10C30.4 9.6 30.9 9.4 31.4 9.4C31.9 9.4 32.4 9.6 32.8 10C33.6 10.8 33.6 12 32.8 12.8L27.5 18.2C31 18.8 33.1 20.4 33.2 20.4C34.1 21.1 34.3 22.4 33.6 23.2z" />
    <glyph glyph-name="sc-pinterest"
      unicode="&#xEA31;"
      horiz-adv-x="50" d=" M25 40C16.7 40 10 33.3 10 25C10 18.6 14 13.2 19.5 11C19.4 12.2 19.3 14 19.6 15.3C19.9 16.5 21.4 22.8 21.4 22.8S21 23.7 21 25C21 27.1 22.2 28.6 23.7 28.6C25 28.6 25.6 27.6 25.6 26.5C25.6 25.2 24.8 23.3 24.4 21.5C24 20 25.1 18.8 26.6 18.8C29.3 18.8 31.3 21.6 31.3 25.7C31.3 29.3 28.7 31.8 25 31.8C20.7 31.8 18.2 28.6 18.2 25.3C18.2 24 18.7 22.6 19.3 21.9C19.4 21.8 19.4 21.6 19.4 21.5C19.3 21 19 20 19 19.8C18.9 19.5 18.8 19.5 18.5 19.6C16.6 20.5 15.5 23.2 15.5 25.4C15.5 30.1 18.9 34.5 25.4 34.5C30.6 34.5 34.6 30.8 34.6 25.8C34.6 20.6 31.3 16.5 26.8 16.5C25.3 16.5 23.9 17.3 23.4 18.2C23.4 18.2 22.6 15.3 22.5 14.6C22.2 13.3 21.2 11.7 20.6 10.7C22 10.2 23.5 10 25 10C33.3 10 40 16.7 40 25S33.3 40 25 40z" />
    <glyph glyph-name="sc-skype"
      unicode="&#xEA32;"
      horiz-adv-x="50" d=" M38 22.7C38.1 23.5 38.2 24.3 38.2 25.1C38.2 26.9 37.9 28.6 37.2 30.2C36.5 31.8 35.6 33.2 34.4 34.4C33.2 35.6 31.8 36.6 30.2 37.2C28.6 37.9 26.8 38.2 25.1 38.2C24.3 38.2 23.4 38.1 22.6 38C21.5 38.6 20.2 38.9 18.9 38.9C16.8 38.9 14.8 38.1 13.4 36.6C11.9 35.1 11.1 33.2 11.1 31.1C11.1 29.8 11.4 28.5 12.1 27.3C12 26.6 11.9 25.8 11.9 25C11.9 23.2 12.2 21.5 12.9 19.9C13.6 18.3 14.5 16.9 15.7 15.7C16.9 14.5 18.3 13.5 19.9 12.9C21.5 12.2 23.3 11.9 25 11.9C25.8 11.9 26.6 12 27.3 12.1C28.5 11.4 29.8 11.1 31.2 11.1C33.3 11.1 35.3 11.9 36.7 13.4C38.2 14.9 39 16.8 39 18.9C39 20.2 38.7 21.5 38 22.7zM25.1 17C20.4 17 18.3 19.3 18.3 21C18.3 21.9 19 22.5 19.9 22.5C21.9 22.5 21.4 19.6 25.1 19.6C27 19.6 28.1 20.6 28.1 21.7C28.1 22.3 27.8 23.1 26.5 23.4L22.3 24.4C18.9 25.2 18.3 27.1 18.3 28.8C18.3 32.4 21.6 33.7 24.8 33.7C27.7 33.7 31.1 32.1 31.1 30C31.1 29.1 30.3 28.6 29.4 28.6C27.7 28.6 28 31 24.5 31C22.8 31 21.8 30.2 21.8 29.1C21.8 28 23.2 27.6 24.3 27.4L27.4 26.7C30.8 25.9 31.6 24 31.6 22.1C31.7 19.2 29.5 17 25.1 17z" />
    <glyph glyph-name="sc-soundcloud"
      unicode="&#xEA33;"
      horiz-adv-x="50" d=" M40 26H39.8C38.9 30.6 34.8 34 30 34C26.9 34 24.1 32.6 22.3 30.3C22.1 30 22 29.7 22 29.1L21.6 20L22 14.5C22 14.2 22.3 14 22.5 14H40C43.3 14 46 16.7 46 20S43.3 26 40 26z M18.9 30C18.6 30 18.4 29.8 18.4 29.5L17.6 20.5V19.5L18.4 14.5C18.4 14.2 18.7 14 19 14H19.2C19.5 14 19.7 14.2 19.8 14.5L20.6 19.5C20.6 19.8 20.7 20.2 20.6 20.5L19.8 29.5C19.8 29.8 19.5 30 19.3 30H18.9z M14.9 29C14.6 29 14.4 28.8 14.4 28.5L13.6 20.5V19.5L14.4 14.5C14.4 14.2 14.7 14 15 14H15.2C15.5 14 15.7 14.2 15.8 14.5L16.6 19.5C16.6 19.8 16.7 20.2 16.6 20.5L15.8 28.5C15.8 28.8 15.5 29 15.3 29H14.9z M11 26C10.7 26 10.5 25.8 10.4 25.5L9.6 20.5V19.5L10.4 14.5C10.4 14.2 10.7 14 11 14S11.5 14.2 11.6 14.5L12.4 19.5V20.5L11.6 25.5C11.5 25.8 11.3 26 11 26z M7 27C6.7 27 6.5 26.8 6.4 26.5L5.5 20.5V19.5L6.3 14.5C6.5 14.2 6.7 14 7 14C7.3 14 7.5 14.2 7.6 14.5L8.4 19.5C8.4 19.8 8.5 20.2 8.4 20.5L7.5 26.5C7.5 26.8 7.3 27 7 27z M3.3 24C3 24 2.8 23.8 2.7 23.5L2.1 20.5C2 20.2 2 19.8 2.1 19.5L2.7 15.5C2.8 15.2 3 15 3.3 15S3.8 15.2 3.9 15.5L4.5 19.5V20.5L3.9 23.5C3.8 23.8 3.6 24 3.3 24z" />
    <glyph glyph-name="sc-telegram"
      unicode="&#xEA34;"
      horiz-adv-x="50" d=" M37.1 37L9.4 26C8.5 25.7 8.6 24.4 9.5 24.1L16.5 21.9L19.3 13.1C19.5 12.4 20.4 12.2 20.9 12.7L25 16.5L32.8 10.8C33.4 10.4 34.2 10.7 34.4 11.4L39.8 34.6C40.1 36.3 38.6 37.6 37.1 37zM20.9 20.2L20 15L18 22.2L37.5 35L20.9 20.2z" />
    <glyph glyph-name="sc-tumblr"
      unicode="&#xEA35;"
      horiz-adv-x="50" d=" M30.9 17.6C30.4 17.4 29.4 17.1 28.6 17.1C26.4 17 25.9 18.7 25.9 19.9V28.6H31.5V32.8H26V40H21.9C21.8 40 21.7 39.9 21.7 39.8C21.5 37.6 20.4 33.8 16.2 32.3V28.7H19V19.6C19 16.5 21.3 12 27.4 12.1C29.5 12.1 31.7 13 32.2 13.7L30.9 17.6z" />
    <glyph glyph-name="sc-twitter"
      unicode="&#xEA36;"
      horiz-adv-x="50" d=" M39.2 33.2C38.1 32.7 37 32.4 35.7 32.2C36.9 33 37.9 34.1 38.4 35.5C37.2 34.8 35.9 34.3 34.6 34C33.5 35.2 31.9 35.9 30.2 35.9C26.9 35.9 24.1 33.2 24.1 29.8C24.1 29.3 24.2 28.9 24.3 28.4C19.3 28.6 14.8 31.1 11.8 34.7C11.3 34 11 33 11 31.9C11 29.8 12.1 27.9 13.7 26.9C12.7 26.9 11.8 27.2 11 27.7V27.6C11 24.7 13.1 22.2 15.9 21.7C15.4 21.6 14.9 21.5 14.3 21.5C13.9 21.5 13.5 21.5 13.2 21.6C14 19.2 16.2 17.4 18.9 17.4C16.8 15.8 14.2 14.8 11.4 14.8C10.9 14.8 10.4 14.8 10 14.9C12.4 13 15.6 12 19 12C30.1 12 36.2 21.2 36.2 29.2V30C37.4 30.9 38.4 31.9 39.2 33.2z" />
    <glyph glyph-name="sc-vimeo"
      unicode="&#xEA37;"
      horiz-adv-x="50" d=" M38 30.4C37.9 27.7 36 24 32.4 19.3C28.6 14.4 25.4 11.9 22.8 11.9C21.2 11.9 19.8 13.4 18.7 16.4C18 19.1 17.2 21.9 16.5 24.6C15.7 27.6 14.8 29.1 13.8 29.1C13.6 29.1 12.9 28.7 11.6 27.8L10.3 29.5C11.7 30.7 13 31.9 14.3 33.1C16.1 34.7 17.5 35.5 18.4 35.6C20.6 35.8 21.9 34.3 22.4 31.2C22.9 27.8 23.3 25.7 23.5 24.8C24.1 22 24.8 20.6 25.6 20.6C26.2 20.6 27.1 21.5 28.2 23.4C29.4 25.2 30 26.6 30.1 27.6C30.3 29.2 29.6 30 28.2 30C27.5 30 26.9 29.8 26.2 29.5C27.6 34 30.2 36.1 34 36C36.8 35.9 38.2 34.1 38 30.4z" />
    <glyph glyph-name="sc-vk"
      unicode="&#xEA38;"
      horiz-adv-x="50" d=" M25.1 14.1H27.1S27.7 14.2 28 14.5C28.3 14.8 28.3 15.4 28.3 15.4S28.3 18 29.5 18.4C30.7 18.8 32.3 15.8 33.9 14.7C35.1 13.8 36 14 36 14L40.4 14.1S42.7 14.2 41.6 16.1C41.5 16.2 41 17.4 38.3 19.9C35.5 22.5 35.9 22 39.2 26.5C41.2 29.2 42 30.8 41.8 31.6C41.6 32.3 40.1 32.1 40.1 32.1H35.1S34.7 32.2 34.5 32C34.2 31.8 34.1 31.5 34.1 31.5S33.3 29.4 32.3 27.6C30.1 23.9 29.2 23.7 28.9 23.9C28.1 24.4 28.3 26.1 28.3 27.2C28.3 30.8 28.9 32.3 27.2 32.7C26.7 32.8 26.3 32.9 24.9 32.9C23.1 32.9 21.6 32.9 20.8 32.5C20.2 32.2 19.8 31.6 20.1 31.6C20.4 31.6 21.2 31.4 21.6 30.9C22 30 22 28.5 22 28.5S22.3 24.2 21.3 23.7C20.6 23.3 19.7 24.1 17.7 27.5C16.7 29.2 15.9 31.2 15.9 31.2S15.8 31.6 15.5 31.8C15.2 32 14.7 32.1 14.7 32.1H10S9.3 32.1 9 31.8C8.8 31.5 9 31 9 31S12.7 22.4 16.9 18C20.8 13.8 25.1 14.1 25.1 14.1z" />
    <glyph glyph-name="sc-youtube"
      unicode="&#xEA39;"
      horiz-adv-x="50" d=" M39.7 31.4S39.4 33.5 38.5 34.4C37.4 35.6 36.1 35.6 35.5 35.7C31.3 36 25 36 25 36S18.7 36 14.5 35.7C13.9 35.6 12.6 35.6 11.5 34.4C10.6 33.5 10.3 31.4 10.3 31.4S10 29 10 26.6V24.4C10 22 10.3 19.5 10.3 19.5S10.6 17.4 11.5 16.5C12.6 15.3 14.1 15.3 14.8 15.2C17.2 15.1 25 15 25 15S31.3 15 35.5 15.3C36.1 15.4 37.4 15.4 38.5 16.6C39.4 17.5 39.7 19.6 39.7 19.6S40 22 40 24.4V26.6C40 29 39.7 31.4 39.7 31.4zM21.9 21.6V30L30 25.8L21.9 21.6z" />
    <glyph glyph-name="search"
      unicode="&#xEA3A;"
      horiz-adv-x="50" d=" M23 14C15.8 14 10 19.8 10 27S15.8 40 23 40S36 34.2 36 27S30.2 14 23 14zM23 38C16.9 38 12 33.1 12 27S16.9 16 23 16S34 20.9 34 27S29.1 38 23 38z M32.682 18.733L41.662 9.753L40.248 8.339L31.268 17.319z" />
    <glyph glyph-name="share-apple"
      unicode="&#xEA3B;"
      horiz-adv-x="50" d=" M30.3 36.3L25 41.6L19.7 36.3L18.3 37.7L25 44.4L31.7 37.7z M24 43H26V22H24z M35 10H15C13.3 10 12 11.3 12 13V31C12 32.7 13.3 34 15 34H22V32H15C14.4 32 14 31.6 14 31V13C14 12.4 14.4 12 15 12H35C35.6 12 36 12.4 36 13V31C36 31.6 35.6 32 35 32H28V34H35C36.7 34 38 32.7 38 31V13C38 11.3 36.7 10 35 10z" />
    <glyph glyph-name="share-google"
      unicode="&#xEA3C;"
      horiz-adv-x="50" d=" M15 20C12.2 20 10 22.2 10 25S12.2 30 15 30S20 27.8 20 25S17.8 20 15 20zM15 28C13.3 28 12 26.7 12 25S13.3 22 15 22S18 23.3 18 25S16.7 28 15 28z M35 30C32.2 30 30 32.2 30 35S32.2 40 35 40S40 37.8 40 35S37.8 30 35 30zM35 38C33.3 38 32 36.7 32 35S33.3 32 35 32S38 33.3 38 35S36.7 38 35 38z M35 10C32.2 10 30 12.2 30 15S32.2 20 35 20S40 17.8 40 15S37.8 10 35 10zM35 18C33.3 18 32 16.7 32 15S33.3 12 35 12S38 13.3 38 15S36.7 18 35 18z M19.007 24.115L31.887 17.675L30.992 15.887L18.112 22.327z M30.993 34.115L31.887 32.325L19.007 25.887L18.113 27.677z" />
    <glyph glyph-name="spinner-2"
      unicode="&#xEA3D;"
      horiz-adv-x="50" d=" M23 40C23 38.8954305003384 23.8954305003384 38 25 38C26.1045694996616 38 27 38.8954305003384 27 40C27 41.1045694996616 26.1045694996616 42 25 42C23.8954305003384 42 23 41.1045694996616 23 40z M23 10C23 8.8954305003384 23.8954305003384 8 25 8C26.1045694996616 8 27 8.8954305003384 27 10C27 11.1045694996616 26.1045694996616 12 25 12C23.8954305003384 12 23 11.1045694996616 23 10z M30.5 38C30.5 36.8954305003384 31.3954305003384 36 32.5 36C33.6045694996616 36 34.5 36.8954305003384 34.5 38C34.5 39.1045694996616 33.6045694996616 40 32.5 40C31.3954305003384 40 30.5 39.1045694996616 30.5 38z M15.5 12C15.5 10.8954305003384 16.3954305003384 10 17.5 10C18.6045694996616 10 19.5 10.8954305003384 19.5 12C19.5 13.1045694996616 18.6045694996616 14 17.5 14C16.3954305003384 14 15.5 13.1045694996616 15.5 12z M15.5 38C15.5 36.8954305003384 16.3954305003384 36 17.5 36C18.6045694996616 36 19.5 36.8954305003384 19.5 38C19.5 39.1045694996616 18.6045694996616 40 17.5 40C16.3954305003384 40 15.5 39.1045694996616 15.5 38z M30.5 12C30.5 10.8954305003384 31.3954305003384 10 32.5 10C33.6045694996616 10 34.5 10.8954305003384 34.5 12C34.5 13.1045694996616 33.6045694996616 14 32.5 14C31.3954305003384 14 30.5 13.1045694996616 30.5 12z M8 25C8 23.8954305003384 8.8954305003384 23 10 23C11.1045694996616 23 12 23.8954305003384 12 25C12 26.1045694996616 11.1045694996616 27 10 27C8.8954305003384 27 8 26.1045694996616 8 25z M38 25C38 23.8954305003384 38.8954305003384 23 40 23C41.1045694996616 23 42 23.8954305003384 42 25C42 26.1045694996616 41.1045694996616 27 40 27C38.8954305003384 27 38 26.1045694996616 38 25z M10 32.5C10 31.3954305003384 10.8954305003384 30.5 12 30.5C13.1045694996616 30.5 14 31.3954305003384 14 32.5C14 33.6045694996616 13.1045694996616 34.5 12 34.5C10.8954305003384 34.5 10 33.6045694996616 10 32.5z M36 17.5C36 16.3954305003384 36.8954305003384 15.5 38 15.5C39.1045694996616 15.5 40 16.3954305003384 40 17.5C40 18.6045694996616 39.1045694996616 19.5 38 19.5C36.8954305003384 19.5 36 18.6045694996616 36 17.5z M10 17.5C10 16.3954305003384 10.8954305003384 15.5 12 15.5C13.1045694996616 15.5 14 16.3954305003384 14 17.5C14 18.6045694996616 13.1045694996616 19.5 12 19.5C10.8954305003384 19.5 10 18.6045694996616 10 17.5z M36 32.5C36 31.3954305003384 36.8954305003384 30.5 38 30.5C39.1045694996616 30.5 40 31.3954305003384 40 32.5C40 33.6045694996616 39.1045694996616 34.5 38 34.5C36.8954305003384 34.5 36 33.6045694996616 36 32.5z" />
    <glyph glyph-name="spinner-3"
      unicode="&#xEA3E;"
      horiz-adv-x="50" d=" M41.9 26.1C41.6 32.2 37.9 37.9 32.4 40.5C26.4 43.2 19.1 42.1 14.1 37.9C9.3 33.9 7.1 27.4 8.5 21.3C9.8 15.3 14.5 10.4 20.4 8.8C27.5 6.8 34 10.2 38 16C34.4 11.2 28.9 8 22.8 9.1C16.7 10.2 11.7 14.8 10.3 20.8C8.8 27.2 11.8 33.9 17.5 37.2C23.4 40.6 31.7 39.3 35.6 33.5C36.6 32.1 37.3 30.4 37.6 28.7C37.9 27.3 37.8 25.8 38 24.4C38.2 23.1 39.3 21.4 40.8 22.3C42.1 23.1 42 24.8 41.9 26.1C41.9 26.5 42 25.4 41.9 26.1z" />
    <glyph glyph-name="spinner"
      unicode="&#xEA3F;"
      horiz-adv-x="50" d=" M25 32C24.4 32 24 32.4 24 33V41C24 41.6 24.4 42 25 42S26 41.6 26 41V33C26 32.4 25.6 32 25 32z M25 8C24.4 8 24 8.4 24 9V17C24 17.6 24.4 18 25 18S26 17.6 26 17V9C26 8.4 25.6 8 25 8z M29 31C28.8 31 28.7 31 28.5 31.1C28.1 31.4 27.9 31.9 28.2 32.4L32.2 39.3C32.5 39.7 33 39.9 33.5 39.6C33.9 39.3 34.1 38.8 33.8 38.3L29.8 31.4C29.6 31.2 29.3 31 29 31z M17 10.2C16.8 10.2 16.7 10.2 16.5 10.3C16.1 10.6 15.9 11.1 16.2 11.6L20.2 18.5C20.5 18.9 21 19.1 21.5 18.8C21.9 18.5 22.1 18 21.8 17.5L17.8 10.6C17.6 10.4 17.3 10.2 17 10.2z M21 31C20.7 31 20.4 31.2 20.2 31.5L16.2 38.4C15.9 38.8 16.1 39.4 16.5 39.7C16.9 40 17.5 39.8 17.8 39.4L21.8 32.5C22.1 32.1 21.9 31.5 21.5 31.2C21.3 31 21.2 31 21 31z M33 10.2C32.7 10.2 32.4 10.4 32.2 10.7L28.2 17.6C27.9 18 28.1 18.6 28.5 18.9C28.9 19.2 29.5 19 29.8 18.6L33.8 11.7C34.1 11.3 33.9 10.7 33.5 10.4C33.3 10.3 33.2 10.2 33 10.2z M17 24H9C8.4 24 8 24.4 8 25S8.4 26 9 26H17C17.6 26 18 25.6 18 25S17.6 24 17 24z M41 24H33C32.4 24 32 24.4 32 25S32.4 26 33 26H41C41.6 26 42 25.6 42 25S41.6 24 41 24z M18.1 28.1C17.9 28.1 17.8 28.1 17.6 28.2L10.7 32.2C10.3 32.5 10.1 33 10.4 33.5C10.7 33.9 11.2 34.1 11.7 33.8L18.6 29.8C19 29.5 19.2 29 18.9 28.5C18.7 28.2 18.4 28.1 18.1 28.1z M38.9 16.1C38.7 16.1 38.6 16.1 38.4 16.2L31.5 20.2C31.1 20.5 30.9 21 31.2 21.5C31.5 21.9 32 22.1 32.5 21.8L39.4 17.8C39.8 17.5 40 17 39.7 16.5C39.5 16.2 39.2 16.1 38.9 16.1z M11.1 16.1C10.8 16.1 10.5 16.3 10.3 16.6C10 17 10.2 17.6 10.6 17.9L17.5 21.9C17.9 22.2 18.5 22 18.8 21.6C19.1 21.2 18.9 20.6 18.5 20.3L11.6 16.3C11.5 16.1 11.3 16.1 11.1 16.1z M31.9 28.1C31.6 28.1 31.3 28.3 31.1 28.6C30.8 29 31 29.6 31.4 29.9L38.3 33.9C38.7 34.2 39.3 34 39.6 33.6C39.9 33.2 39.7 32.6 39.3 32.3L32.4 28.3C32.2 28.1 32.1 28.1 31.9 28.1z" />
    <glyph glyph-name="star"
      unicode="&#xEA40;"
      horiz-adv-x="50" d=" M15.2 9.4C15 9.4 14.8 9.5 14.6 9.6C14.2 9.9 14.1 10.3 14.2 10.7L18.1 22.7L7.9 30.2C7.5 30.5 7.4 30.9 7.5 31.3S8 32 8.5 32H21.2L25 44.1C25.1 44.5 25.5 44.8 26 44.8S26.8 44.5 27 44.1L30.9 32H43.6C44 32 44.4 31.8 44.6 31.4S44.6 30.5 44.2 30.3L34 22.9L37.9 10.9C38 10.5 37.9 10 37.5 9.8S36.7 9.5 36.3 9.8L26 17L15.8 9.6C15.6 9.5 15.4 9.4 15.2 9.4zM26 19.3C26.2 19.3 26.4 19.2 26.6 19.1L34.9 13L31.7 22.8C31.6 23.2 31.7 23.7 32.1 23.9L40.4 30H30.1C29.7 30 29.3 30.3 29.1 30.7L26 40.5L22.8 30.7C22.7 30.3 22.3 30 21.8 30H11.5L19.8 23.9C20.2 23.6 20.3 23.2 20.2 22.8L17.1 13L25.4 19.1C25.6 19.2 25.8 19.3 26 19.3z" />
    <glyph glyph-name="tag"
      unicode="&#xEA41;"
      horiz-adv-x="50" d=" M22 9.9C21.1 9.9 20.3 10.2 19.7 10.8L10.8 19.7C9.6 20.9 9.6 23 10.8 24.2L22.7 36.1C23.7 37.1 25.7 37.9 27.2 37.9H34.8C36.6 37.9 38 36.5 38 34.7V27.1C38 25.6 37.2 23.7 36.2 22.6L24.3 10.8C23.7 10.2 22.9 9.9 22 9.9zM27.2 36C26.2 36 24.8 35.4 24.2 34.7L12.3 22.8C11.8 22.3 11.8 21.6 12.3 21.1L21.2 12.2C21.7 11.8 22.4 11.8 22.9 12.2L34.8 24.1C35.5 24.8 36.1 26.2 36.1 27.1V34.7C36.1 35.4 35.6 35.9 34.9 35.9H27.2z M30 26C27.8 26 26 27.8 26 30S27.8 34 30 34S34 32.2 34 30S32.2 26 30 26zM30 32C28.9 32 28 31.1 28 30S28.9 28 30 28S32 28.9 32 30S31.1 32 30 32z" />
    <glyph glyph-name="trash"
      unicode="&#xEA42;"
      horiz-adv-x="50" d=" M20 32H22V16H20z M24 32H26V16H24z M28 32H30V16H28z M12 38H38V36H12z M30 38H28V39C28 39.6 27.6 40 27 40H23C22.4 40 22 39.6 22 39V38H20V39C20 40.7 21.3 42 23 42H27C28.7 42 30 40.7 30 39V38z M31 10H19C17.4 10 16 11.3 15.8 12.9L14 36.9L16 37.1L17.8 13.1C17.8 12.5 18.4 12 19 12H31C31.6 12 32.1 12.5 32.2 13.1L34 37.1L36 36.9L34.2 12.9C34 11.3 32.6 10 31 10z" />
    <glyph glyph-name="trophy"
      unicode="&#xEA43;"
      horiz-adv-x="50" d=" M28.6 20.6C31.6 22.9 36 26.3 36 39V40H14V39C14 26.3 18.5 22.9 21.4 20.6C23.1 19.3 24 18.6 24 17V14C22.4 13.8 20.8 13.2 20.2 12H18C16.9 12 16 11.1 16 10H34C34 11.1 33.1 12 32 12H29.8C29.2 13.2 27.7 13.8 26 14V17C26 18.6 26.8 19.3 28.6 20.6zM25 20.1C24.4 20.9 23.5 21.6 22.7 22.2C20 24.3 16.3 27.1 16.1 38H34.1C33.9 27.2 30.2 24.3 27.5 22.2C26.5 21.5 25.6 20.9 25 20.1z M18.8 23C18.7 23 8 25.3 8 37V38H15V36H10C10.6 26.8 19.1 25 19.2 25L18.8 23z M31.2 23L30.8 25C31.2 25.1 39.4 26.9 40 36H35V38H42V37C42 25.3 31.3 23 31.2 23z" />
    <glyph glyph-name="undo"
      unicode="&#xEA44;"
      horiz-adv-x="50" d=" M25 12C19.9 12 15.3 15 13.2 19.6L15 20.4C16.8 16.5 20.7 14 25 14C31.1 14 36 18.9 36 25S31.1 36 25 36C20.4 36 16.5 33.2 14.9 28.7L13 29.4C14.9 34.6 19.6 38 25 38C32.2 38 38 32.2 38 25S32.2 12 25 12z M20 28H12V36H14V30H20z" />
    <glyph glyph-name="unlock"
      unicode="&#xEA45;"
      horiz-adv-x="50" d=" M18 27H16V31C16 36 20 40 25 40C29.5 40 33.4 36.6 33.9 32.1L31.9 31.9C31.5 35.4 28.5 38 25 38C21.1 38 18 34.9 18 31V27z M33 10H17C15.3 10 14 11.3 14 13V25C14 26.7 15.3 28 17 28H33C34.7 28 36 26.7 36 25V13C36 11.3 34.7 10 33 10zM17 26C16.4 26 16 25.6 16 25V13C16 12.4 16.4 12 17 12H33C33.6 12 34 12.4 34 13V25C34 25.6 33.6 26 33 26H17z M23 22C23 20.8954305003384 23.8954305003384 20 25 20C26.1045694996616 20 27 20.8954305003384 27 22C27 23.1045694996616 26.1045694996616 24 25 24C23.8954305003384 24 23 23.1045694996616 23 22z M25.5 22H24.5L23.5 16H26.5z" />
    <glyph glyph-name="user"
      unicode="&#xEA46;"
      horiz-adv-x="50" d=" M25.1 8C15.7 8 8.1 15.6 8.1 25S15.7 42 25.1 42S42.1 34.4 42.1 25S34.4 8 25.1 8zM25.1 40C16.8 40 10.1 33.3 10.1 25S16.8 10 25.1 10S40.1 16.7 40.1 25S33.3 40 25.1 40z M15.3 12.7L13.5 13.5C14 14.7 15.6 15.4 17.3 16.2C19 17 21.1 17.9 21.1 19V20.5C20.5 21 19.5 22.1 19.3 23.7C18.8 24.2 18 25.1 18 26.3C18 27 18.3 27.6 18.5 28C18.3 28.8 18.1 30.3 18.1 31.5C18.1 35.4 20.8 38 25.1 38C26.3 38 27.8 37.7 28.6 36.8C30.5 36.4 32.1 34.2 32.1 31.5C32.1 29.8 31.8 28.4 31.6 27.7C31.8 27.4 32 26.9 32 26.3C32 25 31.3 24.1 30.7 23.7C30.5 22.1 29.6 21.1 29 20.6V19C29 18.1 30.8 17.4 32.4 16.8C34.3 16.1 36.3 15.3 37 13.7L35.1 13C34.8 13.8 33.2 14.4 31.7 14.9C29.5 15.7 27 16.6 27 18.9V21.5L27.5 21.8S28.7 22.6 28.7 24.2V24.9L29.3 25.2C29.4 25.2 29.9 25.5 29.9 26.3C29.9 26.5 29.7 26.8 29.6 26.9L29.2 27.3L29.4 27.8S29.9 29.4 29.9 31.4C29.9 33.3 28.8 34.7 27.9 34.7H27.3L27 35.2C27 35.6 26.3 36 25.1 36C22 36 20.1 34.3 20.1 31.5C20.1 30.2 20.6 28 20.6 28L20.7 27.5L20.3 27C20.2 27 20 26.7 20 26.3C20 25.8 20.6 25.2 20.9 25L21.3 24.7V24.2C21.3 22.7 22.6 21.9 22.6 21.8L23.1 21.5V18.9C23.1 16.5 20.5 15.3 18.1 14.3C17 13.9 15.5 13.2 15.3 12.7z" />
  </font>
</defs>
</svg>
