<svg width="32" height="32" viewBox="0 0 32 32" xmlns="http://www.w3.org/2000/svg"><path d="M16.007 20l-4.406 11.477-1.725-3.876L6 29.327l4.353-11.34a9 9 0 1 1 11.346 0l4.353 11.34-3.876-1.726-1.725 3.876L16.045 20a9.16 9.16 0 0 1-.038 0zm-1.047-.062l-3.432 8.94-1.15-2.584-2.584 1.15 3.398-8.851a8.945 8.945 0 0 0 3.768 1.345zm5.9-1.345l3.398 8.852-2.583-1.15-1.15 2.583-3.433-8.94a8.945 8.945 0 0 0 3.768-1.345zM16.026 19a8 8 0 1 0 0-16 8 8 0 0 0 0 16zm0-5.308L12.526 16l1.5-4-3-2h3.5l1.5-4 1.5 4h3.5l-3 2 1.5 4-3.5-2.308z" fill="#929292" fill-rule="evenodd"/></svg>