<svg width="32" height="32" viewBox="0 0 32 32" xmlns="http://www.w3.org/2000/svg"><path d="M17.245 27.976C17 27.992 16.75 28 16.5 28c-5.501 0-10.1-3.862-11.233-9.023 4.578-.277 8.491-3.019 10.43-6.915a18.603 18.603 0 0 1 4.867 4.697A12.46 12.46 0 0 0 17 25.5c0 .848.084 1.676.245 2.476zm1-.107a11.452 11.452 0 0 0 5.629-2.544 18.386 18.386 0 0 0-2.738-7.717A11.46 11.46 0 0 0 18 25.5c0 .812.084 1.604.244 2.369zm9.262-14.711c-1.394-4.596-5.587-7.975-10.595-8.15.058.489.088.987.088 1.492 0 1.639-.315 3.203-.888 4.637a19.607 19.607 0 0 1 5.186 4.93 12.453 12.453 0 0 1 6.209-2.909zm.249.973c.16.765.244 1.557.244 2.369 0 3.105-1.23 5.923-3.23 7.992a19.382 19.382 0 0 0-2.902-7.595 11.458 11.458 0 0 1 5.888-2.766zM5.095 17.985A11.61 11.61 0 0 1 5 16.5c0-2.806 1.005-5.377 2.675-7.374a18.38 18.38 0 0 1 7.17 2.404 11.503 11.503 0 0 1-9.75 6.455zm10.81-12.97a11.46 11.46 0 0 0-7.397 3.216 19.37 19.37 0 0 1 6.737 2.375C15.733 9.331 16 7.946 16 6.5c0-.503-.032-.999-.095-1.485zM4.159 18.498A12.59 12.59 0 0 1 4 16.5C4 9.596 9.596 4 16.5 4S29 9.596 29 16.5 23.404 29 16.5 29c-6.048 0-11.093-4.296-12.25-10.002a12.441 12.441 0 0 1-.091-.5z" fill="#929292" fill-rule="evenodd"/></svg>