<svg width="32" height="32" xmlns="http://www.w3.org/2000/svg"><path d="M17 5.01c2.81.12 5.36 1.25 7.294 3.034A12.452 12.452 0 0 0 21.01 16H17V5.01zm-1 0c-2.81.12-5.36 1.25-7.294 3.034A12.452 12.452 0 0 1 11.99 16H16V5.01zm1 22.98c2.81-.12 5.36-1.25 7.294-3.034A12.452 12.452 0 0 1 21.01 17H17v10.99zm-1 0a11.456 11.456 0 0 1-7.294-3.034A12.452 12.452 0 0 0 11.99 17H16v10.99zm9-19.236A11.456 11.456 0 0 1 27.99 16h-5.98A11.456 11.456 0 0 1 25 8.754zm0 15.492A11.456 11.456 0 0 0 27.99 17h-5.98A11.456 11.456 0 0 0 25 24.246zM5.01 16A11.456 11.456 0 0 1 8 8.754 11.456 11.456 0 0 1 10.99 16H5.01zm0 1A11.456 11.456 0 0 0 8 24.246 11.456 11.456 0 0 0 10.99 17H5.01zM16.5 29C23.404 29 29 23.404 29 16.5S23.404 4 16.5 4 4 9.596 4 16.5 9.596 29 16.5 29z" fill="#929292" fill-rule="evenodd"/></svg>