<svg width="32" height="32" viewBox="0 0 32 32" xmlns="http://www.w3.org/2000/svg"><path d="M4 12l5-8h15l5 8v16H4V12zm23.775 0L23.4 5H9.6l-4.375 7h22.55zM5 13v14h23V13H5zm8.997 5A1.994 1.994 0 0 0 12 20a2 2 0 0 0 1.997 2h5.006A1.994 1.994 0 0 0 21 20a2 2 0 0 0-1.997-2h-5.006zm.006 1A.999.999 0 0 0 13 20c0 .552.438 1 1.003 1h4.994A.999.999 0 0 0 20 20c0-.552-.438-1-1.003-1h-4.994zM11 6l-.6 1h12.2L22 6H11zM9.7 8l-.6 1h14.8l-.6-1H9.7zm-1.2 2l-.6 1h17.2l-.6-1h-16z" fill="#929292" fill-rule="evenodd"/></svg>