<svg width="32" height="32" viewBox="0 0 32 32" xmlns="http://www.w3.org/2000/svg"><path d="M13 19.95V22h12.998C26.55 22 27 21.551 27 20.993V8.007A.999.999 0 0 0 25.998 7H6.002C5.45 7 5 7.449 5 8.007v12.986A.999.999 0 0 0 6.002 22H8v-2.05a3.5 3.5 0 1 1 5 0zm-4 .713V24.6l1.5-1.5 1.5 1.5v-3.937a3.486 3.486 0 0 1-1.5.337c-.537 0-1.045-.12-1.5-.337zM8 23H6.005A2.002 2.002 0 0 1 4 21V8a2 2 0 0 1 2.005-2h19.99C27.103 6 28 6.895 28 8v13a2 2 0 0 1-2.005 2H13v4l-2.5-2.5L8 27v-4zM7 11v1h18v-1H7zm9 3v1h9v-1h-9zm3 3v1h6v-1h-6zm-8.5 3a2.5 2.5 0 1 0 0-5 2.5 2.5 0 0 0 0 5z" fill="#929292" fill-rule="evenodd"/></svg>