<svg width="32" height="32" viewBox="0 0 32 32" xmlns="http://www.w3.org/2000/svg"><path d="M12 5V3.998C12 2.898 12.898 2 14.005 2h.99C16.106 2 17 2.894 17 3.998V5h2.004c.551 0 .996.447.996.999v1.002a.994.994 0 0 1-.996.999H9.996A.997.997 0 0 1 9 7.001V5.999C9 5.443 9.446 5 9.996 5H12zm-1-1h-.997c-1.105 0-2 .891-2.003 2H6.997C5.894 6 5 6.89 5 8.004v20.992C5 30.103 5.89 31 6.997 31h15.006C23.106 31 24 30.11 24 28.996V8.004C24 6.897 23.11 6 22.003 6H21a2.002 2.002 0 0 0-2.003-2H18c0-1.657-1.35-3-3.01-3h-.98A3.002 3.002 0 0 0 11 4zm10 3h1c.545 0 1 .45 1 1.003v20.994A.995.995 0 0 1 22 30H7c-.545 0-1-.45-1-1.003V8.003A.995.995 0 0 1 7 7h1c.003 1.105.895 2 2.003 2h8.994c1.105 0 2-.891 2.003-2zm-6.5-2a.5.5 0 1 0 0-1 .5.5 0 0 0 0 1zM13 14v1h8v-1h-8zm-5-1v3h3v-3H8zm1 1v1h1v-1H9zm-1 4v3h3v-3H8zm1 1v1h1v-1H9zm4 0v1h8v-1h-8zm-5 4v3h3v-3H8zm1 1v1h1v-1H9zm4 0v1h8v-1h-8z" fill="#929292" fill-rule="evenodd"/></svg>