<svg width="32" height="32" viewBox="0 0 32 32" xmlns="http://www.w3.org/2000/svg"><path d="M21 26v-3h1v3h3v1h-3v3h-1v-3h-3v-1h3zm-3.743 4H6.997A1.998 1.998 0 0 1 5 27.996V7.004C5 5.89 5.894 5 6.997 5H8c.003-1.109.898-2 2.003-2H11c0-1.662 1.348-3 3.01-3h.98A3.007 3.007 0 0 1 18 3h.997c1.108 0 2 .895 2.003 2h1.003C23.109 5 24 5.897 24 7.004V21.6a5.5 5.5 0 1 1-6.743 8.4zM23 21.207V7.003C23 6.45 22.545 6 22 6h-1a2.001 2.001 0 0 1-2.003 2h-8.994c-1.108 0-2-.895-2.003-2H7c-.552 0-1 .439-1 1.003v20.994C6 28.55 6.455 29 7 29h9.6a5.5 5.5 0 0 1 6.4-7.793zM12 4V2.998C12 1.898 12.898 1 14.005 1h.99C16.106 1 17 1.894 17 2.998V4h2.004c.551 0 .996.447.996.999v1.002a.994.994 0 0 1-.996.999H9.996A.997.997 0 0 1 9 6.001V4.999C9 4.443 9.446 4 9.996 4H12zm2.5 0a.5.5 0 1 0 0-1 .5.5 0 0 0 0 1zm7 27a4.5 4.5 0 1 0 0-9 4.5 4.5 0 0 0 0 9z" fill="#929292" fill-rule="evenodd"/></svg>