<svg width="32" height="32" viewBox="0 0 32 32" xmlns="http://www.w3.org/2000/svg"><path d="M26.443 13.15l-11.286 11.3-2.606-2.606 11.293-11.293 2.6 2.6zm.707-.707l1.73-1.731c.39-.39.386-1.025-.006-1.416l-1.18-1.177a1.001 1.001 0 0 0-1.416-.003L24.55 9.843l2.599 2.6zM11.904 22.61l-.64 3.113 3.135-.618-2.495-2.495zM22 19v9.996A1.996 1.996 0 0 1 20.003 31H4.997A1.998 1.998 0 0 1 3 28.996V8.004C3 6.89 3.894 6 4.997 6H6c.003-1.109.898-2 2.003-2H9c0-1.662 1.348-3 3.01-3h.98A3.007 3.007 0 0 1 16 4h.997c1.108 0 2 .895 2.003 2h1.003C21.109 6 22 6.897 22 8.004V11l3.58-3.58a1.994 1.994 0 0 1 2.83-.01l1.18 1.18a2.003 2.003 0 0 1-.01 2.83L22 19zm-1-7V8.003C21 7.45 20.545 7 20 7h-1a2.001 2.001 0 0 1-2.003 2H8.003c-1.108 0-2-.895-2.003-2H5c-.552 0-1 .439-1 1.003v20.994C4 29.55 4.455 30 5 30h15c.552 0 1-.439 1-1.003V20l-6 6-5 1 1-5 10-10zM10 5V3.998C10 2.898 10.898 2 12.005 2h.99C14.106 2 15 2.894 15 3.998V5h2.004c.551 0 .996.447.996.999v1.002a.994.994 0 0 1-.996.999H7.996A.997.997 0 0 1 7 7.001V5.999C7 5.443 7.446 5 7.996 5H10zm2.5 0a.5.5 0 1 0 0-1 .5.5 0 0 0 0 1z" fill="#929292" fill-rule="evenodd"/></svg>