<svg width="32" height="32" viewBox="0 0 32 32" xmlns="http://www.w3.org/2000/svg"><path d="M21 23.05v-2.675L12.698 12H16v-1h-5v5h1v-3.293l8 8v2.343a2.5 2.5 0 1 0 1 0zm-8-.843l-1.768 1.768-.707-.707 1.768-1.768-1.768-1.768.707-.707L13 20.793l1.768-1.768.707.707-1.768 1.768 1.768 1.768-.707.707L13 22.207zm8-8l-1.768 1.768-.707-.707 1.768-1.768-1.768-1.768.707-.707L21 12.793l1.768-1.768.707.707-1.768 1.768 1.768 1.768-.707.707L21 14.207zM14 5V3.998C14 2.898 14.898 2 16.005 2h.99C18.106 2 19 2.894 19 3.998V5h2.004c.551 0 .996.447.996.999v1.002a.994.994 0 0 1-.996.999h-9.008A.997.997 0 0 1 11 7.001V5.999c0-.556.446-.999.996-.999H14zm-1-1h-.997c-1.105 0-2 .891-2.003 2H8.997C7.894 6 7 6.89 7 8.004v20.992C7 30.103 7.89 31 8.997 31h15.006C25.106 31 26 30.11 26 28.996V8.004C26 6.897 25.11 6 24.003 6H23a2.002 2.002 0 0 0-2.003-2H20c0-1.657-1.35-3-3.01-3h-.98A3.002 3.002 0 0 0 13 4zm10 3h1c.545 0 1 .45 1 1.003v20.994A.995.995 0 0 1 24 30H9c-.545 0-1-.45-1-1.003V8.003A.995.995 0 0 1 9 7h1c.003 1.105.895 2 2.003 2h8.994c1.105 0 2-.891 2.003-2zm-6.5-2a.5.5 0 1 0 0-1 .5.5 0 0 0 0 1zm4 22a1.5 1.5 0 1 0 0-3 1.5 1.5 0 0 0 0 3z" fill="#929292" fill-rule="evenodd"/></svg>