<svg width="32" height="32" viewBox="0 0 32 32" xmlns="http://www.w3.org/2000/svg"><path d="M7.101 15.102A4.006 4.006 0 004 19c0 2.21 1.798 4 4.003 4h16.994A4.004 4.004 0 0029 19a4.006 4.006 0 00-3.042-3.884 4.5 4.5 0 00-7.606-3.832 6 6 0 00-11.25 3.818H7.1zm17.852-4.883a5.5 5.5 0 00-10.435-3.054 7 7 0 00-8.507 7.246A5.006 5.006 0 003 19c0 2.761 2.232 5 5 5h17c2.762 0 5-2.244 5-5a4.998 4.998 0 00-3-4.585 5.49 5.49 0 00-2.047-4.196zM24 9.6L24 9.5a4.5 4.5 0 00-8.51-2.044 7.02 7.02 0 013.124 2.361A5.474 5.474 0 0121.5 9c.9 0 1.75.216 2.499.6zM10 26c-.552 0-1 .444-1 1 0 .552.444 1 1 1 .552 0 1-.444 1-1 0-.552-.444-1-1-1zm3 3c-.552 0-1 .444-1 1 0 .552.444 1 1 1 .552 0 1-.444 1-1 0-.552-.444-1-1-1zm4-3c-.552 0-1 .444-1 1 0 .552.444 1 1 1 .552 0 1-.444 1-1 0-.552-.444-1-1-1zm3 3c-.552 0-1 .444-1 1 0 .552.444 1 1 1 .552 0 1-.444 1-1 0-.552-.444-1-1-1zm3-3c-.552 0-1 .444-1 1 0 .552.444 1 1 1 .552 0 1-.444 1-1 0-.552-.444-1-1-1zM19.5 0c-.276 0-.5.216-.5.495v2.01c0 .273.232.495.5.495.276 0 .5-.216.5-.495V.495A.503.503 0 0019.5 0zm6.733 2.789a.494.494 0 00-.704-.003l-1.42 1.42a.503.503 0 00.003.704.494.494 0 00.704.004l1.42-1.421a.503.503 0 00-.003-.704zm2.789 6.733c0-.276-.216-.5-.495-.5h-2.01a.503.503 0 00-.495.5c0 .276.216.5.495.5h2.01a.503.503 0 00.495-.5zM12.767 2.789a.494.494 0 00-.003.704l1.42 1.42a.503.503 0 00.704-.003.494.494 0 00.004-.704l-1.421-1.42a.503.503 0 00-.704.003z" fill="#929292" fill-rule="evenodd"/></svg>