<svg width="32" height="32" viewBox="0 0 32 32" xmlns="http://www.w3.org/2000/svg"><path d="M7.101 15.102A4.006 4.006 0 004 19c0 2.21 1.798 4 4.003 4h16.994A4.004 4.004 0 0029 19a4.006 4.006 0 00-3.042-3.884 4.5 4.5 0 00-7.606-3.832 6 6 0 00-11.25 3.818H7.1zm19.898-.687C28.768 15.185 30 16.948 30 19c0 2.756-2.238 5-5 5H8c-2.768 0-5-2.239-5-5 0-2.05 1.24-3.818 3.012-4.588a7 7 0 0112.602-4.594A5.5 5.5 0 0127 14.414zM10 26c-.552 0-1 .444-1 1 0 .552.444 1 1 1 .552 0 1-.444 1-1 0-.552-.444-1-1-1zm3 3c-.552 0-1 .444-1 1 0 .552.444 1 1 1 .552 0 1-.444 1-1 0-.552-.444-1-1-1zm4-3c-.552 0-1 .444-1 1 0 .552.444 1 1 1 .552 0 1-.444 1-1 0-.552-.444-1-1-1zm3 3c-.552 0-1 .444-1 1 0 .552.444 1 1 1 .552 0 1-.444 1-1 0-.552-.444-1-1-1zm3-3c-.552 0-1 .444-1 1 0 .552.444 1 1 1 .552 0 1-.444 1-1 0-.552-.444-1-1-1z" fill="#929292" fill-rule="evenodd"/></svg>