<svg width="32" height="32" viewBox="0 0 32 32" xmlns="http://www.w3.org/2000/svg"><path d="M7.101 15.097A4.006 4.006 0 004 18.995c0 2.209 1.798 4 4.003 4h16.994a4.004 4.004 0 004.003-4 4.006 4.006 0 00-3.042-3.884 4.5 4.5 0 00-7.606-3.832 6 6 0 00-11.25 3.818H7.1zm18.174-4.602a5.495 5.495 0 001.72-3.755A4.5 4.5 0 0121.255 1a5.502 5.502 0 00-5.113 6.737 7 7 0 00-10.129 6.669 5.006 5.006 0 00-3.013 4.589c0 2.761 2.232 5 5 5h17c2.762 0 5-2.245 5-5a4.998 4.998 0 00-3-4.586 5.484 5.484 0 00-1.725-3.914zm-.798-.626a4.506 4.506 0 001.269-1.88 5.5 5.5 0 01-5.74-5.74 4.502 4.502 0 00-2.432 6.447c.386.333.734.707 1.04 1.116a5.474 5.474 0 012.886-.817c1.097 0 2.119.32 2.977.874zM10.5 25c-.276 0-.5.216-.5.495v2.01c0 .273.232.495.5.495.276 0 .5-.216.5-.495v-2.01a.503.503 0 00-.5-.495zm3 2c-.276 0-.5.216-.5.495v2.01c0 .273.232.495.5.495.276 0 .5-.216.5-.495v-2.01a.503.503 0 00-.5-.495zm3-2c-.276 0-.5.216-.5.495v2.01c0 .273.232.495.5.495.276 0 .5-.216.5-.495v-2.01a.503.503 0 00-.5-.495zm3 2c-.276 0-.5.216-.5.495v2.01c0 .273.232.495.5.495.276 0 .5-.216.5-.495v-2.01a.503.503 0 00-.5-.495zm3-2c-.276 0-.5.216-.5.495v2.01c0 .273.232.495.5.495.276 0 .5-.216.5-.495v-2.01a.503.503 0 00-.5-.495z" fill="#929292" fill-rule="evenodd"/></svg>