<svg width="32" height="32" viewBox="0 0 32 32" xmlns="http://www.w3.org/2000/svg"><path d="M7.101 16.102A4.006 4.006 0 004 20c0 2.21 1.798 4 4.003 4h16.994A4.004 4.004 0 0029 20a4.006 4.006 0 00-3.042-3.884 4.5 4.5 0 00-7.606-3.832 6 6 0 00-11.25 3.818H7.1zm19.898-.687C28.768 16.185 30 17.948 30 20c0 2.756-2.238 5-5 5H8c-2.768 0-5-2.239-5-5 0-2.05 1.24-3.818 3.012-4.588a7 7 0 0112.602-4.594A5.5 5.5 0 0127 15.414zM16.5 14a.5.5 0 00-.5.491v5.018a.5.5 0 001 0v-5.018a.5.5 0 00-.5-.491zm0 8a.505.505 0 01-.5-.5c0-.276.232-.5.5-.5.276 0 .5.232.5.5 0 .276-.232.5-.5.5z" fill="#929292" fill-rule="evenodd"/></svg>