<svg viewBox="0 0 32 32" xmlns="http://www.w3.org/2000/svg"><path d="M29.986 23.377A4.998 4.998 0 0027 18.409a5.484 5.484 0 00-1.725-3.914 5.495 5.495 0 001.72-3.755A4.5 4.5 0 0121.255 5a5.502 5.502 0 00-5.113 6.737A7 7 0 006.032 17.32h-.001a.492.492 0 00-.021.28 7.112 7.112 0 000 .806 5.006 5.006 0 00-2.997 4.97.491.491 0 00.037.336 4.996 4.996 0 004.948 4.283h17.002a5.005 5.005 0 004.947-4.28.496.496 0 00.038-.338zM4 22.995c0-.346.044-.68.126-1h24.748c.082.32.126.654.126 1H4zm.126 1c.092.354.231.69.41 1h23.927c.18-.31.319-.646.41-1H4.127zm4.402-10a6.019 6.019 0 00-.725 1h10.394a6.019 6.019 0 00-.725-1H8.528zm1.154-1c.95-.632 2.091-1 3.318-1 1.227 0 2.367.368 3.318 1H9.682zM7.35 15.97c-.118.33-.208.672-.267 1.025h18.66a4.484 4.484 0 00-.5-1H7.507a.517.517 0 01-.158-.025zm11.321-.975c.773-.626 1.757-1 2.829-1 1.072 0 2.056.374 2.829 1H18.67zM7 17.995c0 .34.028.674.083 1h18.89a4.55 4.55 0 000-1H7zm-1.625 1.983c-.332.29-.616.633-.838 1.017h23.926a4.027 4.027 0 00-.84-1.017.49.49 0 01-.125.017H5.502a.498.498 0 01-.127-.017zm-.018 6.017a3.99 3.99 0 002.646 1h16.994c1.015 0 1.94-.378 2.646-1H5.357zm19.12-12.126a4.506 4.506 0 001.269-1.88 5.5 5.5 0 01-5.74-5.74 4.502 4.502 0 00-2.432 6.447c.386.333.734.707 1.04 1.116a5.474 5.474 0 012.886-.817c1.097 0 2.119.32 2.977.874z" fill="#929292" fill-rule="evenodd"/></svg>