<svg width="32" height="32" xmlns="http://www.w3.org/2000/svg"><path d="M7.101 15.102A4.006 4.006 0 0 0 4 19c0 2.21 1.798 4 4.003 4h16.994A4.004 4.004 0 0 0 29 19a4.006 4.006 0 0 0-3.042-3.884 4.5 4.5 0 0 0-7.606-3.832 6 6 0 0 0-11.25 3.818H7.1zM25.275 10.5a5.495 5.495 0 0 0 1.72-3.754 4.5 4.5 0 0 1-5.74-5.74 5.502 5.502 0 0 0-5.113 6.737 7 7 0 0 0-10.129 6.669A5.006 5.006 0 0 0 2.999 19c0 2.761 2.232 5 5 5h17c2.762 0 5-2.244 5-5a4.998 4.998 0 0 0-3-4.585 5.484 5.484 0 0 0-1.725-3.915zm-.798-.625a4.506 4.506 0 0 0 1.269-1.88 5.5 5.5 0 0 1-5.74-5.74A4.502 4.502 0 0 0 17.573 8.7c.386.333.734.708 1.04 1.116A5.474 5.474 0 0 1 21.5 9c1.097 0 2.119.321 2.977.875z" fill="#929292" fill-rule="evenodd"/></svg>