<svg width="32" height="32" viewBox="0 0 32 32" xmlns="http://www.w3.org/2000/svg"><path d="M7.101 15.102A4.006 4.006 0 0 0 4 19c0 2.21 1.798 4 4.003 4h16.994A4.004 4.004 0 0 0 29 19a4.006 4.006 0 0 0-3.042-3.884 4.5 4.5 0 0 0-7.606-3.832 6 6 0 0 0-11.25 3.818H7.1zM25.275 10.5a5.495 5.495 0 0 0 1.72-3.754 4.5 4.5 0 0 1-5.74-5.74 5.502 5.502 0 0 0-5.113 6.737 7 7 0 0 0-10.129 6.669A5.006 5.006 0 0 0 2.999 19c0 2.761 2.232 5 5 5h17c2.762 0 5-2.244 5-5a4.998 4.998 0 0 0-3-4.585 5.484 5.484 0 0 0-1.725-3.915zm-.798-.625a4.506 4.506 0 0 0 1.269-1.88 5.5 5.5 0 0 1-5.74-5.74A4.502 4.502 0 0 0 17.573 8.7c.386.333.734.708 1.04 1.116A5.474 5.474 0 0 1 21.5 9c1.097 0 2.119.321 2.977.875zM7 28.857C7 27.414 9.51 25 9.51 25S12 27.414 12 28.857C12 29.886 11.187 31 9.51 31 7.835 31 7 29.971 7 28.857zm1.01-.057c0-.7 1.5-2.321 1.5-2.321s1.503 1.621 1.503 2.321c0 .752-.67 1.2-1.502 1.2-.833 0-1.501-.325-1.501-1.2zM14 29.857C14 28.414 16.51 26 16.51 26S19 28.414 19 29.857C19 30.886 18.187 32 16.51 32 14.835 32 14 30.971 14 29.857zm1.01-.057c0-.7 1.5-2.321 1.5-2.321s1.503 1.621 1.503 2.321c0 .752-.67 1.2-1.502 1.2-.833 0-1.501-.325-1.501-1.2zm5.99-.943C21 27.414 23.51 25 23.51 25S26 27.414 26 28.857C26 29.886 25.187 31 23.51 31 21.835 31 21 29.971 21 28.857zm1.01-.057c0-.7 1.5-2.321 1.5-2.321s1.503 1.621 1.503 2.321c0 .752-.67 1.2-1.502 1.2-.833 0-1.501-.325-1.501-1.2z" fill="#929292" fill-rule="evenodd"/></svg>