<svg width="32" height="32" viewBox="0 0 32 32" xmlns="http://www.w3.org/2000/svg"><path d="M26 11.5c0 .276.232.5.5.5.276 0 .5-.232.5-.5v-.505A4.992 4.992 0 0 0 21.998 6h-1.996A4.998 4.998 0 0 0 15 10.995v10.01A4.992 4.992 0 0 0 20.002 26h1.996A4.998 4.998 0 0 0 27 21.005V20.5c0-.276-.232-.5-.5-.5-.276 0-.5.232-.5.5v.505A4.004 4.004 0 0 1 21.99 25h-1.98A3.998 3.998 0 0 1 16 21.005v-10.01A4.004 4.004 0 0 1 20.01 7h1.98A3.998 3.998 0 0 1 26 10.995v.505zM9 14a4 4 0 1 0 0-8 4 4 0 0 0 0 8zm0-1a3 3 0 1 0 0-6 3 3 0 0 0 0 6z" fill="#929292" fill-rule="evenodd"/></svg>