<svg viewBox="0 0 32 32" xmlns="http://www.w3.org/2000/svg"><path d="M21 13v-3l-6-7H4.003A2.005 2.005 0 002 5.007v22.986A2 2 0 003.997 30h15.006A1.999 1.999 0 0021 28.01V26h4.993A3.003 3.003 0 0029 23.001V16A2.996 2.996 0 0025.993 13H21zm-1 13v2.007A.997.997 0 0119 29H4c-.545 0-1-.446-1-.995V4.995c0-.54.446-.995.996-.995H14v4.994c0 1.12.894 2.006 1.998 2.006H20v2H9.007A3.003 3.003 0 006 15.999V23A2.996 2.996 0 009.007 26H20zM15 4.5v4.491c0 .557.45 1.009.997 1.009H19.7L15 4.5zM8.995 14C7.893 14 7 14.9 7 15.992v7.016A2 2 0 008.995 25h17.01C27.107 25 28 24.1 28 23.008v-7.016A2 2 0 0026.005 14H8.995zM12 18v5h1v-3h1.995a2 2 0 100-4H12v2zm1-1v2h2.001A.997.997 0 0016 18c0-.552-.443-1-.999-1H13zm8 3v3h-1v-3l-2-3v-1h1v1l1.5 2.25L22 17v-1h1v1l-2 3z" fill="#929292" fill-rule="evenodd"/></svg>