<svg width="32" height="32" viewBox="0 0 32 32" xmlns="http://www.w3.org/2000/svg"><path d="M27 20H6v2H5v-5h1v2h21v-2h1v5h-1v-2zm-1-2v-8l-6-7H9.003A2.005 2.005 0 0 0 7 5.007V18h1V4.995c0-.54.446-.995.996-.995H19v4.994c0 1.12.894 2.006 1.998 2.006H25v7h1zM20 4.5v4.491c0 .557.45 1.009.997 1.009H24.7L20 4.5zM25 21v9h1v-9h-1zm-2 0v8h1v-8h-1zm-2 0v7h1v-7h-1zm-2 0v9h1v-9h-1zm-2 0v8h1v-8h-1zm-2 0v9h1v-9h-1zm-2 0v7h1v-7h-1zm-2 0v9h1v-9h-1zm-2 0v8h1v-8H9zm-2 0v9h1v-9H7z" fill="#929292" fill-rule="evenodd"/></svg>