<svg width="32" height="32" viewBox="0 0 32 32" xmlns="http://www.w3.org/2000/svg"><path d="M21 13v-3l-6-7H4.003A2.005 2.005 0 0 0 2 5.007v22.986A2 2 0 0 0 3.997 30h15.006A1.999 1.999 0 0 0 21 28.01V26h6.993A3.003 3.003 0 0 0 31 23.001V16A2.996 2.996 0 0 0 27.993 13H21zm-1 13v2.007A.997.997 0 0 1 19 29H4c-.545 0-1-.446-1-.995V4.995c0-.54.446-.995.996-.995H14v4.994c0 1.12.894 2.006 1.998 2.006H20v2h-8.993A3.003 3.003 0 0 0 8 15.999V23A2.996 2.996 0 0 0 11.007 26H20zM15 4.5v4.491c0 .557.45 1.009.997 1.009H19.7L15 4.5zM10.995 14C9.893 14 9 14.9 9 15.992v7.016A2 2 0 0 0 10.995 25h17.01C29.107 25 30 24.1 30 23.008v-7.016A2 2 0 0 0 28.005 14h-17.01zm4.805 6H15v3h-1v-7h2.995A2 2 0 1 1 17 20l2 3h-1.2l-2-3zm-.8-3v2h2.001A.997.997 0 0 0 18 18c0-.552-.443-1-.999-1H15zm5 2.75V16h2.995a2 2 0 0 1 1.329 3.5c.415.367.676.903.676 1.5 0 1.112-.898 2-2.005 2H20v-3.25zM21 17v2h2.001A.997.997 0 0 0 24 18c0-.552-.443-1-.999-1H21zm0 3v2h2.001A.997.997 0 0 0 24 21c0-.552-.443-1-.999-1H21z" fill="#929292" fill-rule="evenodd"/></svg>