<svg viewBox="0 0 32 32" xmlns="http://www.w3.org/2000/svg"><path d="M12 18v5h1v-3h1.995a2 2 0 100-4H12v2zm9-5v-3l-6-7H4.003A2.005 2.005 0 002 5.007v22.986A2 2 0 003.997 30h15.006A1.999 1.999 0 0021 28.01V26h7.993A3.003 3.003 0 0032 23.001V16A2.996 2.996 0 0028.993 13H21zm-1 13v2.007A.997.997 0 0119 29H4c-.545 0-1-.446-1-.995V4.995c0-.54.446-.995.996-.995H14v4.994c0 1.12.894 2.006 1.998 2.006H20v2h-7.993A3.003 3.003 0 009 15.999V23A2.996 2.996 0 0012.007 26H20zM15 4.5v4.491c0 .557.45 1.009.997 1.009H19.7L15 4.5zm-5 11.492v7.016A2 2 0 0011.995 25h17.01C30.107 25 31 24.1 31 23.008v-7.016A2 2 0 0029.005 14h-17.01C10.893 14 10 14.9 10 15.992zM13 17v2h2.001A.997.997 0 0016 18c0-.552-.443-1-.999-1H13zm13.005-1A1.998 1.998 0 0024 18c0 1.105.888 2 2 2h.99c.558 0 1.01.444 1.01 1 0 .552-.443 1-.999 1h-1.002c-.552 0-.999-.456-.999-.996v-.01h-1v.005A2 2 0 0026.005 23h.99A1.998 1.998 0 0029 21c0-1.105-.888-2-2-2h-.99c-.558 0-1.01-.444-1.01-1 0-.552.443-1 .999-1h1.002c.552 0 .999.453.999 1h1a2 2 0 00-2.005-2h-.99zM22 20v2h-2c-.556 0-1-.448-1-1v-3c0-.556.448-1 1-1h3v-1h-2.995A1.998 1.998 0 0018 18.006v2.988c0 1.108.894 2.006 2.005 2.006H23v-4h-3v1h2z" fill="#929292" fill-rule="evenodd"/></svg>