<svg width="32" height="32" xmlns="http://www.w3.org/2000/svg"><path d="M16.5 29C23.404 29 29 23.404 29 16.5S23.404 4 16.5 4 4 9.596 4 16.5 9.596 29 16.5 29zm0-1C22.851 28 28 22.851 28 16.5S22.851 5 16.5 5 5 10.149 5 16.5 10.149 28 16.5 28zM12 14a1 1 0 1 0 0-2 1 1 0 0 0 0 2zm9 0a1 1 0 1 0 0-2 1 1 0 0 0 0 2zm-4.5 10c2.485 0 4.5-1.12 4.5-2.5S18.985 19 16.5 19 12 20.12 12 21.5s2.015 2.5 4.5 2.5zm0-1c1.933 0 3.5-.672 3.5-1.5S18.433 20 16.5 20s-3.5.672-3.5 1.5 1.567 1.5 3.5 1.5z" fill="#929292" fill-rule="evenodd"/></svg>