<svg width="32" height="32" viewBox="0 0 32 32" xmlns="http://www.w3.org/2000/svg"><path d="M8.007 10A3.003 3.003 0 0 0 5 12.999V20A2.996 2.996 0 0 0 8.007 23h16.986A3.003 3.003 0 0 0 28 20.001V13A2.996 2.996 0 0 0 24.993 10H8.007zm-.012 1C6.893 11 6 11.9 6 12.992v7.016A2 2 0 0 0 7.995 22h17.01C26.107 22 27 21.1 27 20.008v-7.016A2 2 0 0 0 25.005 11H7.995zM11 15v5h1v-3h1.995a2 2 0 0 0 0-4H11v2zm1-1v2h2.001A.997.997 0 0 0 15 15c0-.552-.443-1-.999-1H12zm8 3v3h-1v-3l-2-3v-1h1v1l1.5 2.25L21 14v-1h1v1l-2 3z" fill="#929292" fill-rule="evenodd"/></svg>