<svg width="32" height="32" viewBox="0 0 32 32" xmlns="http://www.w3.org/2000/svg"><path d="M8.007 10A3.003 3.003 0 005 12.999V20A2.996 2.996 0 008.007 23h16.986A3.003 3.003 0 0028 20.001V13A2.996 2.996 0 0024.993 10H8.007zm-.012 1C6.893 11 6 11.9 6 12.992v7.016A2 2 0 007.995 22h17.01C26.107 22 27 21.1 27 20.008v-7.016A2 2 0 0025.005 11H7.995zM8 15c0-1.112.898-2 2.005-2h.99a2 2 0 011.329 3.5c.415.367.676.903.676 1.5 0 1.112-.898 2-2.005 2h-.99A2 2 0 018 18h1c0 .552.443 1 .999 1h1.002A.997.997 0 0012 18c0-.552-.443-1-.999-1H10v-1h1.001A.997.997 0 0012 15c0-.552-.443-1-.999-1H9.999A.997.997 0 009 15H8zm10 2v2h-2c-.556 0-1-.448-1-1v-3c0-.556.448-1 1-1h3v-1h-2.995A1.998 1.998 0 0014 15.006v2.988c0 1.108.894 2.006 2.005 2.006H19v-4h-3v1h2zm2-2v5h1v-3h1.995a2 2 0 100-4H20v2zm1-1v2h2.001A.997.997 0 0024 15c0-.552-.443-1-.999-1H21z" fill="#929292" fill-rule="evenodd"/></svg>