<svg viewBox="0 0 32 32" xmlns="http://www.w3.org/2000/svg"><path d="M8.007 10A3.003 3.003 0 005 12.999V20A2.996 2.996 0 008.007 23h16.986A3.003 3.003 0 0028 20.001V13A2.996 2.996 0 0024.993 10H8.007zm-.012 1C6.893 11 6 11.9 6 12.992v7.016A2 2 0 007.995 22h17.01C26.107 22 27 21.1 27 20.008v-7.016A2 2 0 0025.005 11H7.995zM18 17h-3v3h-1v-5c0-1.112.898-2 2.005-2h.99A2 2 0 0119 15v5h-1v-3zm-2.001-3A.997.997 0 0015 15v1h3v-1c0-.552-.443-1-.999-1h-1.002zM8 13v7h2.995A1.998 1.998 0 0013 17.994v-2.988A2.003 2.003 0 0010.995 13H8zm1 1v5h2.001A.997.997 0 0012 18v-3c0-.552-.443-1-.999-1H9zm13 0v6h1v-6h2v-1h-5v1h2z" fill="#929292" fill-rule="evenodd"/></svg>