<svg viewBox="0 0 32 32" xmlns="http://www.w3.org/2000/svg"><path d="M8.007 10A3.003 3.003 0 005 12.999V20A2.996 2.996 0 008.007 23h16.986A3.003 3.003 0 0028 20.001V13A2.996 2.996 0 0024.993 10H8.007zm-.012 1C6.893 11 6 11.9 6 12.992v7.016A2 2 0 007.995 22h17.01C26.107 22 27 21.1 27 20.008v-7.016A2 2 0 0025.005 11H7.995zm4.805 6H12v3h-1v-7h2.995A2 2 0 1114 17l2 3h-1.2l-2-3zm-.8-3v2h2.001A.997.997 0 0015 15c0-.552-.443-1-.999-1H12zm5 2.75V13h2.995a2 2 0 011.329 3.5c.415.367.676.903.676 1.5 0 1.112-.898 2-2.005 2H17v-3.25zM18 14v2h2.001A.997.997 0 0021 15c0-.552-.443-1-.999-1H18zm0 3v2h2.001A.997.997 0 0021 18c0-.552-.443-1-.999-1H18z" fill="#929292" fill-rule="evenodd"/></svg>