<svg viewBox="0 0 32 32" xmlns="http://www.w3.org/2000/svg"><path d="M16.5 29C23.404 29 29 23.404 29 16.5S23.404 4 16.5 4 4 9.596 4 16.5 9.596 29 16.5 29zm0-1C22.851 28 28 22.851 28 16.5S22.851 5 16.5 5 5 10.149 5 16.5 10.149 28 16.5 28zM12 16a3 3 0 100-6 3 3 0 000 6zm0-1a2 2 0 100-4 2 2 0 000 4zm9 1a3 3 0 100-6 3 3 0 000 6zm0-1a2 2 0 100-4 2 2 0 000 4zm-9-1a1 1 0 100-2 1 1 0 000 2zm9 0a1 1 0 100-2 1 1 0 000 2zm-4.5 10a2.5 2.5 0 100-5 2.5 2.5 0 000 5zm0-1a1.5 1.5 0 100-3 1.5 1.5 0 000 3z" fill="#929292" fill-rule="evenodd"/></svg>