<svg width="32" height="32" viewBox="0 0 32 32" xmlns="http://www.w3.org/2000/svg"><path d="M9.297 11.696A3 3 0 0114.83 12h3.342a3.001 3.001 0 015.532-.304l2.44-1.466A11.49 11.49 0 0016.5 5a11.49 11.49 0 00-9.642 5.23l2.44 1.466zm-.282.997A3 3 0 1015 13h3a3 3 0 105.985-.307l2.666-1.602A11.45 11.45 0 0128 16.5C28 22.851 22.851 28 16.5 28S5 22.851 5 16.5c0-1.955.488-3.797 1.349-5.409l2.666 1.602zM16.5 29C23.404 29 29 23.404 29 16.5S23.404 4 16.5 4 4 9.596 4 16.5 9.596 29 16.5 29zM12 15a2 2 0 100-4 2 2 0 000 4zm9 0a2 2 0 100-4 2 2 0 000 4zm-9-1a1 1 0 100-2 1 1 0 000 2zm9 0a1 1 0 100-2 1 1 0 000 2zm-4.5 10a2.5 2.5 0 100-5 2.5 2.5 0 000 5zm0-1a1.5 1.5 0 100-3 1.5 1.5 0 000 3z" fill="#929292" fill-rule="evenodd"/></svg>