<svg width="32" height="32" viewBox="0 0 32 32" xmlns="http://www.w3.org/2000/svg"><path d="M30.016 20.691a4.5 4.5 0 0 1-6.325 6.325l6.325-6.325zm-.707-.707a4.5 4.5 0 0 0-6.325 6.325l6.325-6.325zM21.599 26H1.994A.993.993 0 0 1 1 25.008V14h27v4.207A5.5 5.5 0 0 0 21.6 26zm.658 1H1.993A1.997 1.997 0 0 1 0 25.009V6.99C0 5.89.897 5 2.003 5H13l2 4h11.994A2 2 0 0 1 29 10.995V18.6a5.5 5.5 0 1 1-6.743 8.4zM1 13V6.992A1 1 0 0 1 1.992 6H12.4l1.96 4h12.637c.55 0 1.003.448 1.003 1v2H1z" fill="#929292" fill-rule="evenodd"/></svg>