<svg width="32" height="32" viewBox="0 0 32 32" xmlns="http://www.w3.org/2000/svg"><path d="M23 25H1.993A.993.993 0 0 1 1 24.008V13h27v2.036a3.497 3.497 0 0 0-4 3.462V21c-.552 0-1 .438-1 1.003V25zm6-9.663V9.995A2 2 0 0 0 26.994 8H15l-2-4H2.003C.897 4 0 4.89 0 5.991V24.01C0 25.109.9 26 1.993 26H23v.997A1 1 0 0 0 23.998 28h7.004c.551 0 .998-.438.998-1.003v-4.994A.998.998 0 0 0 31.001 21H25v-2.49c0-1.398 1.12-2.51 2.5-2.51 1.39 0 2.5 1.123 2.5 2.51V19h1v-.502a3.5 3.5 0 0 0-2-3.16zM1 12V5.992A1 1 0 0 1 1.992 5H12.4l1.96 4h12.637c.55 0 1.003.448 1.003 1v2H1zm23.503 10a.496.496 0 0 0-.503.498v4.004c0 .275.233.498.503.498h5.994a.496.496 0 0 0 .503-.498v-4.004a.505.505 0 0 0-.503-.498h-5.994z" fill="#929292" fill-rule="evenodd"/></svg>