<svg width="32" height="32" viewBox="0 0 32 32" xmlns="http://www.w3.org/2000/svg"><path d="M1 15V8.992A1 1 0 0 1 1.992 8H12.4l1.96 4h12.637c.55 0 1.003.448 1.003 1v2H1zm0 1v11.008c0 .548.446.992.993.992h25.014A.995.995 0 0 0 28 27V16H1zM3 6V4.991C3 3.89 3.897 3 5.003 3H16l2 4h11.994A2 2 0 0 1 32 8.995v14.01A1.994 1.994 0 0 1 30.007 25H30v-1h.007A.995.995 0 0 0 31 23V9c0-.552-.454-1-1.003-1H17.36L15.4 4H4.992A1 1 0 0 0 4 4.992V6H3zm12 5l-2-4H2.003C.897 7 0 7.89 0 8.991V27.01C0 28.109.9 29 1.993 29h25.014c1.1 0 1.993-.893 1.993-1.995v-14.01A2 2 0 0 0 26.994 11H15z" fill="#929292" fill-rule="evenodd"/></svg>