<svg width="32" height="32" viewBox="0 0 32 32" xmlns="http://www.w3.org/2000/svg"><path d="M11.5 21a1.5 1.5 0 1 0 0-3 1.5 1.5 0 0 0 0 3zm4.943 4.104c-.24.483-.89.893-1.44.893H8.997c-.544 0-.997-.447-.997-.999v-1.002c0-.556.444-.999.99-.999H14l7.723-15.399c.27-.537.93-.753 1.474-.48l.759.383c.547.275.764.94.492 1.49l-8.005 16.113zm4.772-14.262l1.402-2.796c.02-.041.079-.06.13-.034l.76.382a.112.112 0 0 1 .045.152l-1.382 2.783-.955-.487zm-.449.894l-5.872 11.71-.277.551H14s-5-.004-5 0c0 0 .002 1-.003 1h6.006c.166 0 .472-.19.545-.337l6.177-12.435-.959-.489z" fill="#929292" fill-rule="evenodd"/></svg>