<svg width="32" height="32" xmlns="http://www.w3.org/2000/svg"><path d="M16.5 29C23.404 29 29 23.404 29 16.5S23.404 4 16.5 4 4 9.596 4 16.5 9.596 29 16.5 29zm0-1C22.851 28 28 22.851 28 16.5S22.851 5 16.5 5 5 10.149 5 16.5 10.149 28 16.5 28zM19 10v1h4v-1h-4zm-9 0v1h4v-1h-4zm2 5a1 1 0 1 0 0-2 1 1 0 0 0 0 2zm9 0a1 1 0 1 0 0-2 1 1 0 0 0 0 2zm-2.5 4.5c-1 0-1 .5-2.046 1-.954-.5-.954-1-1.954-1S12.5 21 11 21c1 0 2.5 3 5.454 3C19.408 24 21 21 22 21c-1.5 0-2.5-1.5-3.5-1.5z" fill="#929292" fill-rule="evenodd"/></svg>