<svg width="32" height="32" xmlns="http://www.w3.org/2000/svg"><path d="M14.039 25.717C13.699 26.533 13.4 27 13.4 27h-2.8S9 24.5 9 20.976c0-2.793.978-4.93 1.576-5.976h2.837c.408.708.99 1.916 1.324 3.488A5.485 5.485 0 0 0 13 22.5c0 1.201.385 2.313 1.039 3.217zm.73.824C14.357 27.464 14 28 14 28h-4s-2-3-2-7.024S10 14 10 14v-2c0-2-1-3-1-4.5C9 6.388 10 5 12 5s3 1.395 3 2.5C15 9 14 10 14 12v2s1.018 1.504 1.601 3.825a5.5 5.5 0 1 1-.832 8.716zM11.025 14L11 12h2l-.037 2h-1.938zm-.086-3C10.723 9.328 10 8.775 10 7.5c0-1.112.951-1.52 2-1.52s2 .415 2 1.52c0 1.274-.72 1.84-.938 3.5h-2.123zM18.5 27a4.5 4.5 0 1 0 0-9 4.5 4.5 0 0 0 0 9zm0-7a.5.5 0 1 0 0-1 .5.5 0 0 0 0 1zm-1 2a.5.5 0 1 0 0-1 .5.5 0 0 0 0 1zm2 0a.5.5 0 1 0 0-1 .5.5 0 0 0 0 1z" fill="#929292" fill-rule="evenodd"/></svg>