<svg width="32" height="32" xmlns="http://www.w3.org/2000/svg"><path d="M19.124 28.988c-3.46-.175-5.57-2.173-7.252-5.005-3.912-6.582-6.714-9.594-5.627-10.687 1.111-1.117 3.821 1.302 5.88 3.502V5.505a1.499 1.499 0 1 1 3 0V16h1V4.49a1.501 1.501 0 0 1 3 0V15h1V5.503c0-.838.671-1.503 1.5-1.503.834 0 1.5.673 1.5 1.503V16h1v-.498a1.5 1.5 0 1 1 3 0V21.5a7.5 7.5 0 0 1-7 7.484V19.95l3.25 3.25.75-.75-4.5-4.5-4.5 4.5.75.75 3.25-3.25v9.038zm9-7.488a8.5 8.5 0 0 1-8.5 8.5c-3.112 0-6.398-1.453-8.659-5.572-3.263-5.945-7.437-9.845-5.45-11.832 1.422-1.422 3.654-.058 5.61 1.77V5.504a2.505 2.505 0 0 1 4.157-1.877A2.499 2.499 0 0 1 17.624 2c1.08 0 1.992.677 2.344 1.627A2.49 2.49 0 0 1 21.624 3c1.39 0 2.5 1.12 2.5 2.503v8.012c.418-.315.938-.5 1.5-.5 1.39 0 2.5 1.119 2.5 2.5V21.5z" fill="#929292" fill-rule="evenodd"/></svg>