<svg width="32" height="32" xmlns="http://www.w3.org/2000/svg"><path d="M22 29h-2v-1h2v1zm1 0h1.003A1.999 1.999 0 0 0 26 27.01V26h-1v1.007A.997.997 0 0 1 24 28h-1v1zm-4 0h-2v-1h2v1zm-3 0h-2v-1h2v1zm-3 0h-2v-1h2v1zm-3 0H8.997A2 2 0 0 1 7 26.993V26h1v1.005c0 .55.455.995 1 .995h1v1zm16-4v-2h-1v2h1zM7 25v-2h1v2H7zm19-3v-2h-1v2h1zM7 22v-2h1v2H7zm20-4v-2h1v5h-1v-2H6v2H5v-5h1v2h21zm-1-1V9l-6-7H9.003A2.005 2.005 0 0 0 7 4.007V17h1V3.995c0-.54.446-.995.996-.995H19v4.994c0 1.12.894 2.006 1.998 2.006H25v7h1zM20 3.5v4.491c0 .557.45 1.009.997 1.009H24.7L20 3.5z" fill="#929292" fill-rule="evenodd"/></svg>