<svg width="32" height="32" xmlns="http://www.w3.org/2000/svg"><path d="M10.027 17a4.501 4.501 0 0 1 8.973.496V31h-9V18H3.95l3.25 3.25-.75.75-4.5-4.5 4.5-4.5.75.75L3.95 17h6.077zm4.473-3a3.496 3.496 0 0 0-3.5 3.491V30h7V17.491A3.498 3.498 0 0 0 14.5 14zm0 1c-1.38 0-2.5 1.129-2.5 2.51V21h5v-3.49c0-1.386-1.11-2.51-2.5-2.51zm0 1c-.828 0-1.5.679-1.5 1.5V20h3v-2.5c0-.828-.666-1.5-1.5-1.5zM12 24v1h5v-1h-5zm0 2v1h5v-1h-5zm13.5-16a4.5 4.5 0 0 0-4.5 4.505V31h9V14.505A4.506 4.506 0 0 0 25.5 10zm0 1a3.504 3.504 0 0 0-3.5 3.507V30h7V14.507A3.506 3.506 0 0 0 25.5 11zm0 1c-1.38 0-2.5 1.129-2.5 2.51V18h5v-3.49c0-1.386-1.11-2.51-2.5-2.51zm0 1c-.828 0-1.5.679-1.5 1.5V17h3v-2.5c0-.828-.666-1.5-1.5-1.5zM23 21v1h5v-1h-5zm0 2v1h5v-1h-5z" fill="#929292" fill-rule="evenodd"/></svg>