<svg width="32" height="32" xmlns="http://www.w3.org/2000/svg"><path d="M19.124 28.988c.164.008.33.012.5.012a7.5 7.5 0 0 0 7.5-7.5v-5.998a1.5 1.5 0 0 0-3 0V16h-1v-2.494a1.5 1.5 0 1 0-3 0V15h-1V4.49c0-.823-.665-1.49-1.5-1.49-.828 0-1.5.676-1.5 1.49V16h-1V5.505a1.499 1.499 0 1 0-3 0v11.293c-2.058-2.2-4.768-4.619-5.879-3.502-1.087 1.093 1.715 4.105 5.627 10.687 1.514 2.548 3.374 4.421 6.252 4.898V19.95l-3.25 3.25-.75-.75 4.5-4.5 4.5 4.5-.75.75-3.25-3.25v9.038zm9-7.488a8.5 8.5 0 0 1-8.5 8.5c-3.112 0-6.398-1.453-8.659-5.572-3.263-5.945-7.437-9.845-5.45-11.832 1.422-1.422 3.654-.058 5.61 1.77V5.509a2.5 2.5 0 0 1 4.157-1.881A2.499 2.499 0 0 1 17.624 2c1.39 0 2.5 1.12 2.5 2.503v7a2.485 2.485 0 0 1 1.5-.503c1.39 0 2.5 1.118 2.5 2.498v.013a2.495 2.495 0 0 1 1.5-.497c1.39 0 2.5 1.12 2.5 2.5V21.5z" fill="#929292" fill-rule="evenodd"/></svg>