<svg width="32" height="32" viewBox="0 0 32 32" xmlns="http://www.w3.org/2000/svg"><path d="M8.815 14.551l-3.804 2.457a11.44 11.44 0 0 0 2.094 6.125l4.044-.222 2.465-2.552-1.252-4.302-3.547-1.506zm.09-1.048L7.362 9.516a11.53 11.53 0 0 1 5.112-3.792L16 8.593v3.814l-3.317 2.7-3.779-1.604zm3.217 9.84l1.11 4.186c1.036.307 2.133.471 3.268.471 1.135 0 2.232-.164 3.267-.47l1.087-4.095L18.503 21h-4.118l-2.263 2.343zm9.61-.439l4.163.23a11.44 11.44 0 0 0 2.094-6.126L24.15 14.53l-3.5 1.486-1.29 4.434 2.372 2.455zm2.38-9.445l1.525-3.943a11.53 11.53 0 0 0-5.112-3.792L17 8.593v3.814l3.287 2.676 3.826-1.624zm-17.448-2.92a11.433 11.433 0 0 0-1.643 5.268l2.94-1.903-1.297-3.365zm5.404 16.576a11.528 11.528 0 0 1-4.18-2.993l3.335-.18.845 3.173zm8.864 0a11.528 11.528 0 0 0 4.18-2.993l-3.335-.18-.845 3.173zm5.404-16.576a11.433 11.433 0 0 1 1.643 5.268l-2.94-1.903 1.297-3.365zm-6.96-5.176A11.52 11.52 0 0 0 16.5 5c-.993 0-1.957.126-2.877.363L16.5 7.7l2.877-2.337zM16.5 29C23.404 29 29 23.404 29 16.5S23.404 4 16.5 4 4 9.596 4 16.5 9.596 29 16.5 29zm0-15.7l3.2 2.6-1.3 4.1h-3.8l-1.3-4.1 3.2-2.6z" fill="#929292" fill-rule="evenodd"/></svg>