<svg width="32" height="32" xmlns="http://www.w3.org/2000/svg"><path d="M27.96 4.35c.342 2.095-3.09 6.112-9.113 9.75-7.116 4.297-10.895 8.547-6.243 10.59 5.771 2.535 4.672 4.669 4.672 4.669s-.508-1.425-2.902-2.387c-2.372-.954-4.912-1.252-8.568-4.47-1.704-1.5-3.799-5.714 1.857-10.774C9.396 9.335 6.248 7.221 4.83 5.487 6.584 6.977 10.924 8.032 16 8.032c6.292 0 11.454-1.62 11.96-3.683zM3.517 3.096C4.56 1.387 9.114 0 16.018 0c6.902 0 11.368 1.647 12.499 3.097 1.562 2.002-.88 6.735-8.333 11.355-6.355 3.938-11.04 7.769-7.292 9.29C21.818 27.364 17.06 32 17.06 32s0-3.097-3.125-4.129c-5.282-1.745-7.291-3.097-9.374-5.161-1.576-1.562-3.272-6.491 2.083-11.355 2.665-2.42-5.123-4.977-3.125-8.258zM27 4.032c0-1.657-4.925-3-11-3s-11 1.343-11 3 4.925 3 11 3 11-1.343 11-3z" fill="#929292" fill-rule="evenodd"/></svg>