<svg width="32" height="32" xmlns="http://www.w3.org/2000/svg"><path d="M17.124 9.329a4.5 4.5 0 1 0-7 0V6.49A3.494 3.494 0 0 1 13.624 3c1.93 0 3.5 1.563 3.5 3.491V9.33zM19.624 30c4.142 0 7.5-3.585 7.5-7.5 0 0 0 2.313 0 0v-5.998a1.5 1.5 0 0 0-3 0V17h-1v-2.494a1.5 1.5 0 1 0-3 0V16h-1v-2.494a1.5 1.5 0 1 0-3 0V17h-1V6.505a1.499 1.499 0 1 0-3 0V17.8c-2.058-2.2-4.768-4.62-5.879-3.504-1.087 1.093 1.715 4.105 5.627 10.687C13.634 27.95 15.865 30 19.623 30zm8.5-7.5a8.5 8.5 0 0 1-8.5 8.5c-3.112 0-6.398-1.453-8.659-5.572-3.263-5.945-7.437-9.845-5.45-11.832 1.422-1.422 3.654-.058 5.61 1.77V6.509a2.5 2.5 0 1 1 5 0v4.99a2.493 2.493 0 0 1 1.5-.498c1.082 0 1.994.677 2.345 1.628.441-.39 1.02-.628 1.654-.628 1.39 0 2.5 1.118 2.5 2.498v.013a2.495 2.495 0 0 1 1.5-.497c1.39 0 2.5 1.12 2.5 2.5V22.5z" fill="#929292" fill-rule="evenodd"/></svg>