<svg width="32" height="32" xmlns="http://www.w3.org/2000/svg"><path d="M16 17.525v.525c-1.141.23-2 1.232-2 2.45 0 1.38 1.11 2.5 2.5 2.5 1.38 0 2.5-1.11 2.5-2.5 0-1.21-.853-2.22-2-2.45V16h1v-1h-1v-1h1v-1h-1v-1h1v-1h-1v-1h1V9h-1V8h1V7h-1V6h1V5h-1V4h5c1.666 0 3 1.339 3 2.99v19.02A2.999 2.999 0 0 1 22 29H11a2.99 2.99 0 0 1-3-2.99V6.99A2.999 2.999 0 0 1 11 4h4v1h1v1h-1v1h1v1h-1v1h1v1h-1v1h1v1h-1v1h1v1h-1v1h1v1h-1v1h1v.525zM11.006 3A4.004 4.004 0 0 0 7 6.998v19.004A3.998 3.998 0 0 0 11.006 30h10.988A4.004 4.004 0 0 0 26 26.002V6.998A3.998 3.998 0 0 0 21.994 3H11.006zM16.5 19c-.828 0-1.5.666-1.5 1.5 0 .828.666 1.5 1.5 1.5.828 0 1.5-.666 1.5-1.5 0-.828-.666-1.5-1.5-1.5z" fill="#929292" fill-rule="evenodd"/></svg>