<svg width="32" height="32" xmlns="http://www.w3.org/2000/svg"><path d="M17.067 22H19.6l-6.1 6.1 1.479-4.1H12.4l2.3-6h3.9l-1.533 4zM19 24h5.997A4.004 4.004 0 0 0 29 20a4.006 4.006 0 0 0-3.042-3.884 4.5 4.5 0 0 0-7.606-3.832 6 6 0 0 0-11.25 3.818H7.1A4.006 4.006 0 0 0 4 20c0 2.21 1.798 4 4.003 4h3.372L14 17h6l-1.5 4H22l-3 3zm-5.455 1H8C5.232 25 3 22.761 3 20c0-2.05 1.24-3.818 3.012-4.588a7 7 0 0 1 8.507-7.246 5.5 5.5 0 0 1 10.434 3.053A5.49 5.49 0 0 1 27 15.415C28.768 16.185 30 17.948 30 20c0 2.756-2.238 5-5 5h-7l-7 7 2.545-7zM24 10.6l.001-.1a4.5 4.5 0 0 0-8.51-2.044 7.02 7.02 0 0 1 3.124 2.361A5.474 5.474 0 0 1 21.5 10c.9 0 1.75.216 2.499.6zM19.5 1c-.276 0-.5.216-.5.495v2.01c0 .273.232.495.5.495.276 0 .5-.216.5-.495v-2.01A.503.503 0 0 0 19.5 1zm6.733 2.789a.494.494 0 0 0-.704-.003l-1.42 1.42a.503.503 0 0 0 .003.704.494.494 0 0 0 .704.004l1.42-1.421a.503.503 0 0 0-.003-.704zm2.789 6.733c0-.276-.216-.5-.495-.5h-2.01a.503.503 0 0 0-.495.5c0 .276.216.5.495.5h2.01a.503.503 0 0 0 .495-.5zM12.767 3.789a.494.494 0 0 0-.003.704l1.42 1.42a.503.503 0 0 0 .704-.003.494.494 0 0 0 .004-.704l-1.421-1.42a.503.503 0 0 0-.704.003z" fill="#929292" fill-rule="evenodd"/></svg>