<svg width="32" height="32" viewBox="0 0 32 32" xmlns="http://www.w3.org/2000/svg"><path d="M23 12.5V26h4c.552 0 1-.445 1-.993V8h-4.002A1.995 1.995 0 0 1 22 5.994V1H11.996c-.55 0-.996.455-.996.995V5h6l6 7v.5zM10 5V2.007C10 .898 10.897 0 12.003 0H23l6 7v18.01c0 1.092-.894 1.99-1.997 1.99H23v3.01c0 1.092-.894 1.99-1.997 1.99H5.997A2 2 0 0 1 4 29.993V7.007C4 5.898 4.897 5 6.003 5H10zm13-3.5v4.491c0 .557.45 1.009.997 1.009H27.7L23 1.5zM16 6H5.996C5.446 6 5 6.455 5 6.995v23.01c0 .55.455.995 1 .995h15c.552 0 1-.445 1-.993V13h-4.002A1.995 1.995 0 0 1 16 10.994V6zm1 .5v4.491c0 .557.45 1.009.997 1.009H21.7L17 6.5z" fill="#929292" fill-rule="evenodd"/></svg>