<svg width="32" height="32" xmlns="http://www.w3.org/2000/svg"><path d="M15.424 5.148c.87-1.407 2.283-1.404 3.151 0l10.785 17.45c1.162 1.879.316 3.402-1.889 3.402H6.528c-2.205 0-3.054-1.517-1.889-3.403L15.424 5.148zm.93.375c.347-.561.91-.56 1.257 0l11.005 17.783c.58.935.146 1.694-.941 1.694H6.29c-1.099 0-1.524-.754-.941-1.694L16.353 5.523zM17 11c-.552 0-1 .453-1 .997v6.006c0 .55.444.997 1 .997.552 0 1-.453 1-.997v-6.006A.996.996 0 0 0 17 11zm0 12a1 1 0 1 0 0-2 1 1 0 0 0 0 2z" fill="#929292" fill-rule="evenodd"/></svg>