<svg width="32" height="32" xmlns="http://www.w3.org/2000/svg"><path d="M24 9.5v-1a7.5 7.5 0 1 0-15 0V16c-1.658.005-3 1.34-3 3.01V24c0 4.418 3.586 8 8 8h5c4.419 0 8-3.59 8-8v-4.99c0-1.66-1.34-3.005-3-3.01H12.027a4.538 4.538 0 0 1-.027-.5v-7C12 6.01 14.015 4 16.5 4 18.98 4 21 6.014 21 8.5v4c0 .828.666 1.5 1.5 1.5.828 0 1.5-.674 1.5-1.5v-3zm-1-1.007C23 4.907 20.083 2 16.5 2 12.91 2 10 4.908 10 8.493v7.014c0 .166.006.33.019.493H11V8.51A5.501 5.501 0 0 1 16.5 3C19.531 3 22 5.466 22 8.51v3.992c0 .275.232.498.5.498.276 0 .5-.215.5-.49V8.493zm-7 15.422v2.594a.5.5 0 0 0 1 0v-2.594a1.5 1.5 0 1 0-1 0zm-1 .585v1.998a1.5 1.5 0 0 0 3 0V24.5a2.5 2.5 0 1 0-3 0zM8.997 17A2.001 2.001 0 0 0 7 19.006V24c0 3.866 3.137 7 6.994 7h5.012C22.869 31 26 27.858 26 24v-4.994A2 2 0 0 0 24.003 17H8.997z" fill="#929292" fill-rule="evenodd"/></svg>