<svg width="32" height="32" xmlns="http://www.w3.org/2000/svg"><path d="M5.49 22.468l.479-.232A12.441 12.441 0 0 1 4 15.5C4 8.596 9.596 3 16.5 3S29 8.596 29 15.5c0 2.907-.992 5.582-2.656 7.705-.084.036.128-.055.316-.142a12.95 12.95 0 0 0 1.685-.951 13.166 13.166 0 0 0 1.655-1.3v1.323c-.341.277-.709.549-1.102.81-3.622 2.405-7.779 2.957-12.164.49-4.022-2.262-8.065-1.75-11.817.49-.713.425-1.353.881-1.91 1.336-.003.002-.007-1.26-.007-1.26a17.207 17.207 0 0 1 2.49-1.533zm5.331-1.486a17.414 17.414 0 0 0 5.942-5.98c1.934.03 3.788.393 5.506 1.034a16.876 16.876 0 0 1-4.929 6.59 4.833 4.833 0 0 1-.116-.062c-1.99-1.12-3.988-1.615-5.954-1.596-.315.004-.614.022-.449.014zM24.44 23.82a11.515 11.515 0 0 0 2.809-4.22c.104-.273.208-.593.168-.473a16.515 16.515 0 0 0-4.195-2.7 17.898 17.898 0 0 1-4.876 6.7l-.029-.013c1.944.865 3.822 1.091 5.616.802.27-.043.607-.117.507-.096zM16.426 28a12.768 12.768 0 0 0 .149 0h-.15zM7.787 7.994c-.1 3.97 1.104 7.99 3.677 11.36a16.518 16.518 0 0 1-4.642 2.36c.062.097-.374-.598-.61-1.069A11.452 11.452 0 0 1 5 15.5c0-2.562.838-4.928 2.254-6.84.233-.314.603-.747.533-.666zm1.095-1.109a16.917 16.917 0 0 0 3.395 11.839 16.454 16.454 0 0 0 3.626-4.233 17.416 17.416 0 0 1-2.131-10.165c.075-.019-.319.078-.586.159a11.463 11.463 0 0 0-3.631 1.848c-.37.28-.803.667-.673.552zm17.93 3.518A17.932 17.932 0 0 0 14.78 7.696a16.486 16.486 0 0 1 .018-3.57c-.084.011.42-.06.762-.088a11.493 11.493 0 0 1 10.764 5.481c.212.347.52.948.487.884zm.693 1.75a16.927 16.927 0 0 0-12.587-3.438 16.453 16.453 0 0 0 1.858 5.287c4.159.064 7.966 1.58 10.937 4.062-.019.082.1-.458.155-.818a11.59 11.59 0 0 0-.201-4.506c-.102-.412-.225-.797-.162-.587zM5.98 25.232c3.592-1.666 7.43-1.814 11.245.332 3.482 1.959 6.771 1.846 9.755.344v1.11c-3.143 1.433-6.615 1.46-10.245-.582-3.645-2.05-7.307-1.822-10.755-.094v-1.11z" fill="#929292" fill-rule="evenodd"/></svg>