<svg width="32" height="32" xmlns="http://www.w3.org/2000/svg"><path d="M19.499 29C23.642 29 27 25.415 27 21.5c0 0 0 2.313 0 0v-5.998a1.5 1.5 0 0 0-3 0V16h-1v-2.494a1.5 1.5 0 1 0-3 0V15h-1v-2.494a1.5 1.5 0 1 0-3 0V16h-1V5.505a1.499 1.499 0 1 0-3 0V16.8c-2.058-2.2-4.768-4.62-5.879-3.504-1.087 1.093 1.714 4.105 5.626 10.687C13.51 26.95 15.74 29 19.5 29zM28 21.5a8.5 8.5 0 0 1-8.5 8.5c-3.113 0-6.398-1.453-8.66-5.572-3.263-5.945-7.436-9.845-5.449-11.832 1.422-1.422 3.654-.058 5.609 1.77V5.509a2.5 2.5 0 1 1 5 0v4.99A2.493 2.493 0 0 1 17.5 10c1.083 0 1.995.677 2.346 1.628.44-.39 1.02-.628 1.654-.628 1.39 0 2.5 1.118 2.5 2.498v.013a2.495 2.495 0 0 1 1.5-.497c1.39 0 2.5 1.12 2.5 2.5V21.5z" fill="#929292" fill-rule="evenodd"/></svg>