<svg width="32" height="32" xmlns="http://www.w3.org/2000/svg"><path d="M7.101 9.102A4.006 4.006 0 0 0 4 13c0 2.21 1.798 4 4.003 4h16.994A4.004 4.004 0 0 0 29 13a4.006 4.006 0 0 0-3.042-3.884 4.5 4.5 0 0 0-7.606-3.832 6 6 0 0 0-11.25 3.818H7.1zm19.898-.687C28.768 9.185 30 10.948 30 13c0 2.756-2.238 5-5 5H8c-2.768 0-5-2.239-5-5 0-2.05 1.24-3.818 3.012-4.588a7 7 0 0 1 12.602-4.594A5.5 5.5 0 0 1 27 8.414zM30 23a4 4 0 1 0-8 0h1c0-1.657 1.347-3 3-3 1.657 0 3 1.347 3 3 0 1.657-1.343 3-3.008 3H3v1h23.002A4.002 4.002 0 0 0 30 23zm-9-1c0-1.657-1.347-3-3-3-1.657 0-3 1.342-3 2.991V22h1c0-1.105.888-2 2-2 1.105 0 2 .888 2 2 0 1.105-.897 2-2.006 2H6v1h12c1.657 0 3-1.347 3-3zm4 8c0 1.105-.888 2-2 2-1.105 0-2-.895-2-1.994V30h1c0 .552.444 1 1 1 .552 0 1-.444 1-1 0-.552-.449-1-1.007-1H9v-1h14.006c1.101 0 1.994.888 1.994 2z" fill="#929292" fill-rule="evenodd"/></svg>