<svg width="32" height="32" viewBox="0 0 32 32" xmlns="http://www.w3.org/2000/svg"><path d="M17.067 21H19.6l-6.1 6.1 1.479-4.1H12.4l2.3-6h3.9l-1.533 4zM19 23h5.997A4.004 4.004 0 0 0 29 19a4.006 4.006 0 0 0-3.042-3.884 4.5 4.5 0 0 0-7.606-3.832 6 6 0 0 0-11.25 3.818H7.1A4.006 4.006 0 0 0 4 19c0 2.21 1.798 4 4.003 4h3.372L14 16h6l-1.5 4H22l-3 3zm-1 1h7c2.762 0 5-2.244 5-5a4.998 4.998 0 0 0-3-4.585 5.5 5.5 0 0 0-8.386-4.598 7 7 0 0 0-12.602 4.594A5.006 5.006 0 0 0 3 19c0 2.761 2.232 5 5 5h5.545L11 31l7-7z" fill="#929292" fill-rule="evenodd"/></svg>