<svg width="32" height="32" xmlns="http://www.w3.org/2000/svg"><path d="M3.014 20.382a5.006 5.006 0 0 1 2.998-4.97 7.11 7.11 0 0 1-.001-.807.501.501 0 0 1 .021-.28 7 7 0 0 1 12.582-3.508A5.5 5.5 0 0 1 27 15.414a4.998 4.998 0 0 1 2.986 4.968.486.486 0 0 1-.038.338A5.005 5.005 0 0 1 25.001 25H7.999a4.996 4.996 0 0 1-4.948-4.283.49.49 0 0 1-.037-.335zM4 20c0-.345.044-.68.126-1h24.748c.082.32.126.655.126 1H4zm.126 1c.092.355.231.69.41 1h23.927c.18-.31.319-.645.41-1H4.127zm4.402-10a6.019 6.019 0 0 0-.725 1h10.394a6.019 6.019 0 0 0-.725-1H8.528zm1.154-1c.95-.632 2.091-1 3.318-1 1.227 0 2.367.368 3.318 1H9.682zM7.35 12.975c-.118.33-.208.672-.267 1.025h18.66a4.484 4.484 0 0 0-.5-1H7.507a.517.517 0 0 1-.158-.025zM18.671 12c.773-.625 1.757-1 2.829-1 1.072 0 2.056.375 2.829 1H18.67zM7 15c0 .34.028.675.083 1h18.89a4.55 4.55 0 0 0 0-1H7zm-1.625 1.984c-.332.29-.616.633-.838 1.016h23.926a4.027 4.027 0 0 0-.84-1.016.49.49 0 0 1-.125.016H5.502a.498.498 0 0 1-.127-.016zM5.357 23a3.99 3.99 0 0 0 2.646 1h16.994c1.015 0 1.94-.378 2.646-1H5.357z" fill="#929292" fill-rule="evenodd"/></svg>