<svg width="32" height="32" xmlns="http://www.w3.org/2000/svg"><path d="M8.007 10A3.003 3.003 0 0 0 5 12.999V20A2.996 2.996 0 0 0 8.007 23h16.986A3.003 3.003 0 0 0 28 20.001V13A2.996 2.996 0 0 0 24.993 10H8.007zm-.012 1C6.893 11 6 11.9 6 12.992v7.016A2 2 0 0 0 7.995 22h17.01C26.107 22 27 21.1 27 20.008v-7.016A2 2 0 0 0 25.005 11H7.995zM12 17H9v3H8v-5c0-1.112.898-2 2.005-2h.99A2 2 0 0 1 13 15v5h-1v-3zm-2.001-3A.997.997 0 0 0 9 15v1h3v-1c0-.552-.443-1-.999-1H9.999zM18 17h-3v3h-1v-5c0-1.112.898-2 2.005-2h.99A2 2 0 0 1 19 15v5h-1v-3zm-2.001-3A.997.997 0 0 0 15 15v1h3v-1c0-.552-.443-1-.999-1h-1.002zM25 18c-.003 1.117-.9 2-2.005 2h-.99A2.003 2.003 0 0 1 20 17.994v-2.988c0-1.12.898-2.006 2.005-2.006h.99c1.11 0 2.002.895 2.005 2h-1c0-.552-.443-1-.999-1h-1.002A.997.997 0 0 0 21 15v3c0 .552.443 1 .999 1h1.002A.997.997 0 0 0 24 18h1z" fill="#929292" fill-rule="evenodd"/></svg>