<svg width="32" height="32" xmlns="http://www.w3.org/2000/svg"><path d="M27 23h1.006A3.002 3.002 0 0 0 31 19.994v-4.988A3 3 0 0 0 28.006 12H26V5c0-1.105-.89-2-1.997-2H8.997A1.994 1.994 0 0 0 7 5v7H4.994A3.002 3.002 0 0 0 2 15.006v4.988A3 3 0 0 0 4.994 23H6v-3h21v3zM5 22a2.002 2.002 0 0 1-2-1.997v-5.006C3 13.896 3.899 13 5.007 13h22.986c1.109 0 2.007.894 2.007 1.997v5.006c0 1.099-.895 1.993-2 1.997v-3H5v3zM9 4c-.552 0-1 .453-1 .997V12h17V4.997c0-.55-.455-.997-1-.997H9zm16 13a1 1 0 1 0 0-2 1 1 0 0 0 0 2zM7 21v8h1v-8H7zm2 0v7h1v-7H9zm2 0v8h1v-8h-1zm2 0v6h1v-6h-1zm2 0v7h1v-7h-1zm2 0v6h1v-6h-1zm2 0v8h1v-8h-1zm4 0v7h1v-7h-1zm2 0v8h1v-8h-1zm-4 0v6h1v-6h-1z" fill="#929292" fill-rule="evenodd"/></svg>