<svg width="32" height="32" xmlns="http://www.w3.org/2000/svg"><path d="M5.993 10A2.995 2.995 0 0 0 3 12.999V20A2.995 2.995 0 0 0 5.993 23h21.014A2.995 2.995 0 0 0 30 20.001V13A2.995 2.995 0 0 0 27.007 10H5.993zm.01 1C4.898 11 4 11.9 4 12.992v7.016C4 21.108 4.89 22 6.004 22h20.992C28.103 22 29 21.1 29 20.008v-7.016c0-1.1-.89-1.992-2.004-1.992H6.004zM10 17H7v3H6v-5c0-1.112.898-2 2.005-2h.99A2 2 0 0 1 11 15v5h-1v-3zm-2.001-3A.997.997 0 0 0 7 15v1h3v-1c0-.552-.443-1-.999-1H7.999zM13 14v5h-1v1h3v-1h-1v-5h1v-1h-3v1h1zm4 2v-2h4v-1h-5v7h1v-3h3v-1h-3zm6 0v-2h4v-1h-5v7h1v-3h3v-1h-3z" fill="#929292" fill-rule="evenodd"/></svg>