<svg width="32" height="32" xmlns="http://www.w3.org/2000/svg"><path d="M22 24.95V26h2c.552 0 1-.445 1-.993V8h-4.002A1.995 1.995 0 0 1 19 5.994V1H8.996C8.446 1 8 1.455 8 1.995v23.01c0 .55.455.995 1 .995h8v-1.05a3.5 3.5 0 1 1 5 0zm-4 .713V29.6l1.5-1.5 1.5 1.5v-3.937a3.486 3.486 0 0 1-1.5.337c-.537 0-1.045-.12-1.5-.337zM22 27h2.003A1.999 1.999 0 0 0 26 25.01V7l-6-7H9.003A2.005 2.005 0 0 0 7 2.007v22.986A2 2 0 0 0 8.997 27H17v5l2.5-2.5L22 32v-5zM20 1.5v4.491c0 .557.45 1.009.997 1.009H24.7L20 1.5zM10 7v1h7V7h-7zm0-3v1h7V4h-7zm0 6v1h13v-1H10zm0 3v1h13v-1H10zm0 3v1h13v-1H10zm9.5 9a2.5 2.5 0 1 0 0-5 2.5 2.5 0 0 0 0 5z" fill="#929292" fill-rule="evenodd"/></svg>