<svg width="32" height="32" viewBox="0 0 32 32" xmlns="http://www.w3.org/2000/svg"><path d="M7.101 15.102A4.006 4.006 0 0 0 4 19c0 2.21 1.798 4 4.003 4h16.994A4.004 4.004 0 0 0 29 19a4.006 4.006 0 0 0-3.042-3.884 4.5 4.5 0 0 0-7.606-3.832 6 6 0 0 0-11.25 3.818H7.1zm19.898-.687C28.768 15.185 30 16.948 30 19c0 2.756-2.238 5-5 5H8c-2.768 0-5-2.239-5-5 0-2.05 1.24-3.818 3.012-4.588a7 7 0 0 1 12.602-4.594A5.5 5.5 0 0 1 27 14.414zM7 28.857C7 27.414 9.51 25 9.51 25S12 27.414 12 28.857C12 29.886 11.187 31 9.51 31 7.835 31 7 29.971 7 28.857zm1.01-.057c0-.7 1.5-2.321 1.5-2.321s1.503 1.621 1.503 2.321c0 .752-.67 1.2-1.502 1.2-.833 0-1.501-.325-1.501-1.2zM14 29.857C14 28.414 16.51 26 16.51 26S19 28.414 19 29.857C19 30.886 18.187 32 16.51 32 14.835 32 14 30.971 14 29.857zm1.01-.057c0-.7 1.5-2.321 1.5-2.321s1.503 1.621 1.503 2.321c0 .752-.67 1.2-1.502 1.2-.833 0-1.501-.325-1.501-1.2zm5.99-.943C21 27.414 23.51 25 23.51 25S26 27.414 26 28.857C26 29.886 25.187 31 23.51 31 21.835 31 21 29.971 21 28.857zm1.01-.057c0-.7 1.5-2.321 1.5-2.321s1.503 1.621 1.503 2.321c0 .752-.67 1.2-1.502 1.2-.833 0-1.501-.325-1.501-1.2z" fill="#929292" fill-rule="evenodd"/></svg>