<svg width="32" height="32" xmlns="http://www.w3.org/2000/svg"><path d="M8.007 10A3.003 3.003 0 0 0 5 12.999V20A2.996 2.996 0 0 0 8.007 23h16.986A3.003 3.003 0 0 0 28 20.001V13A2.996 2.996 0 0 0 24.993 10H8.007zm-.012 1C6.893 11 6 11.9 6 12.992v7.016A2 2 0 0 0 7.995 22h17.01C26.107 22 27 21.1 27 20.008v-7.016A2 2 0 0 0 25.005 11H7.995zm2.01 2A1.998 1.998 0 0 0 8 15.006v2.988C8 19.102 8.894 20 10.005 20h.99A1.998 1.998 0 0 0 13 17.994v-2.988A2.003 2.003 0 0 0 10.995 13h-.99zm-.006 1A.997.997 0 0 0 9 15v3c0 .552.443 1 .999 1h1.002A.997.997 0 0 0 12 18v-3c0-.552-.443-1-.999-1H9.999zM16 14v6h1v-6h2v-1h-5v1h2zm6 0v6h1v-6h2v-1h-5v1h2z" fill="#929292" fill-rule="evenodd"/></svg>