<svg width="32" height="32" xmlns="http://www.w3.org/2000/svg"><path d="M19.972 3.022A3.489 3.489 0 0 0 17.5 2a3.493 3.493 0 0 0-2.685 1.255A3.49 3.49 0 0 0 13.5 3c-.966 0-1.841.392-2.475 1.025A3.492 3.492 0 0 0 10 6.502v2.827a4.5 4.5 0 0 1 4.53-7.21A4.5 4.5 0 0 1 21 8.329V5.49c0-.964-.393-1.837-1.027-2.468h-.001zM28 22.5a8.5 8.5 0 0 1-8.5 8.5c-3.113 0-6.398-1.453-8.66-5.572-3.263-5.945-7.436-9.845-5.449-11.832 1.422-1.422 3.654-.058 5.609 1.77V6.509a2.5 2.5 0 0 1 4.157-1.881A2.499 2.499 0 0 1 17.5 3C18.89 3 20 4.12 20 5.503v7A2.485 2.485 0 0 1 21.5 12c1.39 0 2.5 1.118 2.5 2.498v.013a2.495 2.495 0 0 1 1.5-.497c1.39 0 2.5 1.12 2.5 2.5V22.5zM19.5 30c-3.76 0-5.99-2.051-7.753-5.017-3.912-6.582-6.713-9.594-5.626-10.687 1.11-1.117 3.82 1.302 5.879 3.502V6.505a1.499 1.499 0 1 1 3 0V17h1V5.49a1.501 1.501 0 0 1 3 0V16h1v-1.494a1.5 1.5 0 1 1 3 0V17h1v-.498a1.5 1.5 0 1 1 3 0V22.5a7.5 7.5 0 0 1-7.5 7.5z" fill="#929292" fill-rule="evenodd"/></svg>