<svg width="32" height="32" xmlns="http://www.w3.org/2000/svg"><path d="M6.997 5.002V5A2.002 2.002 0 0 0 5 7.007v22.986A2 2 0 0 0 6.997 32h15.006c1.1 0 1.993-.894 2-2 1.1 0 1.993-.894 2-2A1.999 1.999 0 0 0 28 26.01V8l-6-7H11.003a2.009 2.009 0 0 0-2.006 2A2.002 2.002 0 0 0 7 5l-.003.002zM7 6c-.552 0-1 .455-1 .995v23.01c0 .55.455.995 1 .995h15c.552 0 1-.455 1-.995L8.997 30A2 2 0 0 1 7 27.993V6zm2-2c-.552 0-1 .455-1 .995v23.01c0 .55.455.995 1 .995h15c.552 0 1-.455 1-.995V28H10.997A2 2 0 0 1 9 25.993V4zm12-2H10.996c-.55 0-.996.455-.996.995v23.01c0 .55.455.995 1 .995h15c.552 0 1-.445 1-.993V9h-4.002A1.995 1.995 0 0 1 21 6.994V2zm1 .5v4.491c0 .557.45 1.009.997 1.009H26.7L22 2.5z" fill="#929292" fill-rule="evenodd"/></svg>