<svg width="32" height="32" viewBox="0 0 32 32" xmlns="http://www.w3.org/2000/svg"><path d="M20 17h-1v2h-1v-2h-1v2h-1v-2h-1v2h-1v-2h-1v2h-1v-2h-2v-1h2v-2h1v2h1v-2h1v2h1v-2h1v2h1v-2h1v2h1v-2h1v2h2v1h-2v2h-1v-2zm-3.5 6c3.135 0 5.63-.884 7.531-2v-9c-1.9-1.116-4.396-2-7.531-2s-5.63.884-7.531 2v9c1.9 1.116 4.396 2 7.531 2zM8 20.38c-2.587-1.806-3.8-3.88-3.8-3.88s1.213-2.074 3.8-3.88v7.76zm17 0c2.587-1.806 3.8-3.88 3.8-3.88s-1.213-2.074-3.8-3.88v7.76zM3 16.5S7 24 16.5 24 30 16.5 30 16.5 26 9 16.5 9 3 16.5 3 16.5z" fill="#929292" fill-rule="evenodd"/></svg>