<svg width="32" height="32" xmlns="http://www.w3.org/2000/svg"><path d="M18 29H6.997A2 2 0 0 1 5 26.993V4.007C5 2.898 5.897 2 7.003 2H18l6 7v10.338c1.181.563 2 1.77 2 3.167V24h.002A1 1 0 0 1 27 25.003v4.994A.993.993 0 0 1 26.002 31h-7.004A1 1 0 0 1 18 29.997V29zm0-1H7c-.545 0-1-.446-1-.995V3.995c0-.54.446-.995.996-.995H17v4.994c0 1.12.894 2.006 1.998 2.006H23v9.036a3.502 3.502 0 0 0-4 3.47V24h-.002A.993.993 0 0 0 18 25.003V28zm2-4v-1.49c0-1.398 1.12-2.51 2.5-2.51 1.39 0 2.5 1.123 2.5 2.51V24h-5zM18 3.5v4.491c0 .557.45 1.009.997 1.009H22.7L18 3.5zM19.503 25a.496.496 0 0 0-.503.498v4.004c0 .275.233.498.503.498h5.994a.496.496 0 0 0 .503-.498v-4.004a.505.505 0 0 0-.503-.498h-5.994z" fill="#929292" fill-rule="evenodd"/></svg>