<svg width="32" height="32" xmlns="http://www.w3.org/2000/svg"><path d="M26.11 10.181A11.49 11.49 0 0 0 16.5 5a11.49 11.49 0 0 0-9.61 5.181c2.442-.274 6.483-.245 9.42.491.064.013.127.025.19.035.063-.01.126-.022.19-.035 2.937-.736 6.978-.765 9.42-.49zm.746 1.313A11.454 11.454 0 0 1 28 16.5C28 22.851 22.851 28 16.5 28S5 22.851 5 16.5c0-1.794.411-3.493 1.144-5.006a.095.095 0 0 0 .05.025c.459.169.654.59.654.59s.138.374.536 1.894 1.347 1.702 1.347 1.702 1.162.262 2.502.262c1.34 0 2.142-.056 3-.446.858-.39 1.233-1.477 1.233-1.477s.433-.937.73-1.82c.045-.134.164-.226.304-.284.14.058.259.15.304.284.297.883.73 1.82.73 1.82s.375 1.087 1.233 1.477c.858.39 1.66.446 3 .446s2.502-.262 2.502-.262.95-.182 1.347-1.702c.398-1.52.536-1.894.536-1.894s.195-.421.655-.59a.095.095 0 0 0 .049-.025zM16.5 29C23.404 29 29 23.404 29 16.5S23.404 4 16.5 4 4 9.596 4 16.5 9.596 29 16.5 29zm-.019-7C13 22 11 20 11 20v1s2 2 5.481 2C19.963 23 22 21 22 21v-1s-2.037 2-5.519 2z" fill="#929292" fill-rule="evenodd"/></svg>