<svg width="32" height="32" xmlns="http://www.w3.org/2000/svg"><path d="M7.101 15.097A4.006 4.006 0 0 0 4 18.995c0 2.209 1.798 4 4.003 4h16.994a4.004 4.004 0 0 0 4.003-4 4.006 4.006 0 0 0-3.042-3.884 4.5 4.5 0 0 0-7.606-3.832 6 6 0 0 0-11.25 3.818H7.1zm18.174-4.602a5.495 5.495 0 0 0 1.72-3.755A4.5 4.5 0 0 1 21.255 1a5.502 5.502 0 0 0-5.113 6.737 7 7 0 0 0-10.129 6.669 5.006 5.006 0 0 0-3.013 4.589c0 2.761 2.232 5 5 5h17c2.762 0 5-2.245 5-5a4.998 4.998 0 0 0-3-4.586 5.484 5.484 0 0 0-1.725-3.914zm-.798-.626a4.506 4.506 0 0 0 1.269-1.88 5.5 5.5 0 0 1-5.74-5.74 4.502 4.502 0 0 0-2.432 6.447c.386.333.734.707 1.04 1.116a5.474 5.474 0 0 1 2.886-.817c1.097 0 2.119.32 2.977.874zM11 26.634v-1.136a.504.504 0 0 0-.5-.498c-.276 0-.5.215-.5.498v1.136l-.984-.568a.504.504 0 0 0-.681.184.494.494 0 0 0 .181.682l.984.568-.984.568a.504.504 0 0 0-.181.682c.138.24.436.326.681.184l.984-.568v1.136c0 .275.232.498.5.498.276 0 .5-.215.5-.498v-1.136l.984.568a.504.504 0 0 0 .681-.184.494.494 0 0 0-.181-.682L11.5 27.5l.984-.568a.504.504 0 0 0 .181-.682.494.494 0 0 0-.681-.184l-.984.568zm12 0v-1.136a.504.504 0 0 0-.5-.498c-.276 0-.5.215-.5.498v1.136l-.984-.568a.504.504 0 0 0-.681.184.494.494 0 0 0 .181.682l.984.568-.984.568a.504.504 0 0 0-.181.682c.138.24.436.326.681.184l.984-.568v1.136c0 .275.232.498.5.498.276 0 .5-.215.5-.498v-1.136l.984.568a.504.504 0 0 0 .681-.184.494.494 0 0 0-.181-.682L23.5 27.5l.984-.568a.504.504 0 0 0 .181-.682.494.494 0 0 0-.681-.184l-.984.568zm-6 1v-1.136a.504.504 0 0 0-.5-.498c-.276 0-.5.215-.5.498v1.136l-.984-.568a.504.504 0 0 0-.681.184.494.494 0 0 0 .181.682l.984.568-.984.568a.504.504 0 0 0-.181.682c.138.24.436.326.681.184l.984-.568v1.136c0 .275.232.498.5.498.276 0 .5-.215.5-.498v-1.136l.984.568a.504.504 0 0 0 .681-.184.494.494 0 0 0-.181-.682L17.5 28.5l.984-.568a.504.504 0 0 0 .181-.682.494.494 0 0 0-.681-.184l-.984.568z" fill="#929292" fill-rule="evenodd"/></svg>