<svg width="32" height="32" viewBox="0 0 32 32" xmlns="http://www.w3.org/2000/svg"><path d="M16.5 29C23.404 29 29 23.404 29 16.5S23.404 4 16.5 4 4 9.596 4 16.5 9.596 29 16.5 29zm0-1C22.851 28 28 22.851 28 16.5S22.851 5 16.5 5 5 10.149 5 16.5 10.149 28 16.5 28zm-.019-6C13 22 11 20 11 20v1s2 2 5.481 2C19.963 23 22 21 22 21v-1s-2.037 2-5.519 2zm2.19-8.207l2.829-2.829 2.828 2.829-.707.707-2.121-2.121-2.121 2.121-.707-.707zm-10 0l2.829-2.829 2.828 2.829-.707.707-2.121-2.121L9.379 14.5l-.707-.707z" fill="#929292" fill-rule="evenodd"/></svg>