<svg width="32" height="32" xmlns="http://www.w3.org/2000/svg"><path d="M29.986 23.382A4.998 4.998 0 0 0 27 18.414a5.49 5.49 0 0 0-2.047-4.195 5.5 5.5 0 0 0-10.435-3.054 7 7 0 0 0-8.487 6.16h.001a.492.492 0 0 0-.021.28 7.112 7.112 0 0 0 0 .807 5.006 5.006 0 0 0-2.997 4.97.491.491 0 0 0 .037.335A4.996 4.996 0 0 0 7.999 28h17.002a5.005 5.005 0 0 0 4.947-4.28.496.496 0 0 0 .038-.338zM4 23c0-.345.044-.68.126-1h24.748c.082.32.126.655.126 1H4zm.126 1c.092.355.231.69.41 1h23.927c.18-.31.319-.645.41-1H4.127zm4.402-10a6.019 6.019 0 0 0-.725 1h10.394a6.019 6.019 0 0 0-.725-1H8.528zm1.154-1c.95-.632 2.091-1 3.318-1 1.227 0 2.367.368 3.318 1H9.682zM7.35 15.975c-.118.33-.208.672-.267 1.025h18.66a4.484 4.484 0 0 0-.5-1H7.507a.517.517 0 0 1-.158-.025zM18.671 15c.773-.625 1.757-1 2.829-1 1.072 0 2.056.375 2.829 1H18.67zM7 18c0 .34.028.675.083 1h18.89a4.55 4.55 0 0 0 0-1H7zm-1.625 1.984c-.332.29-.616.633-.838 1.016h23.926a4.027 4.027 0 0 0-.84-1.016.49.49 0 0 1-.125.016H5.502a.498.498 0 0 1-.127-.016zM5.357 26a3.99 3.99 0 0 0 2.646 1h16.994c1.015 0 1.94-.378 2.646-1H5.357zM24 13.6l.001-.1a4.5 4.5 0 0 0-8.51-2.044 7.02 7.02 0 0 1 3.124 2.361A5.474 5.474 0 0 1 21.5 13c.9 0 1.75.216 2.499.6zM19.5 4c-.276 0-.5.216-.5.495v2.01c0 .273.232.495.5.495.276 0 .5-.216.5-.495v-2.01A.503.503 0 0 0 19.5 4zm6.733 2.789a.494.494 0 0 0-.704-.003l-1.42 1.42a.503.503 0 0 0 .003.704.494.494 0 0 0 .704.004l1.42-1.421a.503.503 0 0 0-.003-.704zm2.789 6.733c0-.276-.216-.5-.495-.5h-2.01a.503.503 0 0 0-.495.5c0 .276.216.5.495.5h2.01a.503.503 0 0 0 .495-.5zM12.767 6.789a.494.494 0 0 0-.003.704l1.42 1.42a.503.503 0 0 0 .704-.003.494.494 0 0 0 .004-.704l-1.421-1.42a.503.503 0 0 0-.704.003z" fill="#929292" fill-rule="evenodd"/></svg>