<svg width="32" height="32" xmlns="http://www.w3.org/2000/svg"><path d="M17.892 21.423a2.5 2.5 0 1 1-2.784 0L16.5 14l1.392 7.423zm11.384 2.449C29.746 22.5 30 21.03 30 19.5 30 12.044 23.956 6 16.5 6S3 12.044 3 19.5c0 1.53.255 3 .724 4.372l.957-.29A12.483 12.483 0 0 1 4 19.5C4 12.596 9.596 7 16.5 7S29 12.596 29 19.5c0 1.43-.24 2.802-.681 4.081l.957.29zM16.5 25a1.5 1.5 0 1 0 0-3 1.5 1.5 0 0 0 0 3zm0-17c-.276 0-.5.215-.5.49v3.02a.5.5 0 0 0 .5.49c.276 0 .5-.215.5-.49V8.49a.5.5 0 0 0-.5-.49zm6.761 2.197a.492.492 0 0 0-.692.103l-1.775 2.442a.5.5 0 0 0 .116.691c.224.162.531.12.693-.103l1.775-2.442a.5.5 0 0 0-.117-.691zm4.18 5.751a.492.492 0 0 0-.622-.323l-2.871.932a.5.5 0 0 0-.312.628c.085.262.359.409.62.324l2.872-.933a.5.5 0 0 0 .312-.628zm0 7.11a.492.492 0 0 0-.313-.627l-2.871-.933a.5.5 0 0 0-.621.324.492.492 0 0 0 .312.627l2.871.933a.5.5 0 0 0 .621-.324zm-21.881 0c.085.262.359.409.62.324l2.872-.933a.5.5 0 0 0 .312-.627.492.492 0 0 0-.62-.324l-2.872.933a.5.5 0 0 0-.312.627zm0-7.11a.492.492 0 0 0 .312.628l2.871.933a.5.5 0 0 0 .621-.324.492.492 0 0 0-.312-.628l-2.871-.932a.5.5 0 0 0-.621.323zm4.179-5.751a.492.492 0 0 0-.117.69l1.775 2.443a.5.5 0 0 0 .693.103.492.492 0 0 0 .116-.69L10.431 10.3a.5.5 0 0 0-.692-.103z" fill="#929292" fill-rule="evenodd"/></svg>