<svg width="32" height="32" xmlns="http://www.w3.org/2000/svg"><path d="M19.887 25.489a3.503 3.503 0 0 0 2.95 2.72 4.502 4.502 0 0 1 3.938-3.937 3.502 3.502 0 0 0-3-3 4.502 4.502 0 0 1-3.937 3.938c-.01-.074.013.115.049.279zm2.878-4.207a3.503 3.503 0 0 0-2.917 2.917 3.503 3.503 0 0 0 2.917-2.917zm4 4a3.503 3.503 0 0 1-2.917 2.917 3.503 3.503 0 0 1 2.917-2.917zm-12.96-8.714l-7.276 8.28.89.89 8.28-7.276-1.893-1.894zm.662-.752l9.687-11.024c.864-.983 2.304-1.028 3.223-.109l.207.207c.914.915.87 2.362-.109 3.223L16.452 17.8l-1.985-1.984zm-8.6 9.785l-.66.753-.357-.357a.503.503 0 0 0-.704.003.494.494 0 0 0-.004.704l1.421 1.42a.503.503 0 0 0 .704-.003.494.494 0 0 0 .003-.703l-.357-.357.753-.662-.798-.798zm-.775-.626l18.45-20.91c1.204-1.365 3.207-1.423 4.486-.145l.319.32c1.278 1.277 1.214 3.286-.145 4.485l-20.91 18.45c.234.548.129 1.207-.318 1.654-.59.59-1.535.585-2.121 0l-1.414-1.414a1.502 1.502 0 0 1 1.653-2.44zm18.215-4.734a4.5 4.5 0 1 0 0 9 4.5 4.5 0 0 0 0-9z" fill="#929292" fill-rule="evenodd"/></svg>