<svg width="32" height="32" viewBox="0 0 32 32" xmlns="http://www.w3.org/2000/svg"><path d="M13.066 1l.707.707L9.66 5.821h3.227v1h-5v-5h1v3.358L13.067 1zM1.707 13.641L1 12.934 5.113 8.82H1.887v-1h5v5h-1V9.46l-4.18 4.18zm29.18 9.68a8.5 8.5 0 0 1-8.5 8.5c-3.113 0-6.399-1.453-8.66-5.572-3.263-5.946-7.437-9.845-5.45-11.833 1.422-1.421 3.654-.057 5.61 1.771V7.33a2.5 2.5 0 0 1 4.157-1.882 2.499 2.499 0 0 1 2.343-1.626c1.39 0 2.5 1.12 2.5 2.503v6.999a2.485 2.485 0 0 1 1.5-.502c1.39 0 2.5 1.118 2.5 2.497v.014a2.495 2.495 0 0 1 1.5-.497c1.39 0 2.5 1.119 2.5 2.5v5.986zm-8.5 7.5c-3.76-.001-5.99-2.052-7.753-5.017-3.912-6.583-6.714-9.595-5.626-10.688 1.11-1.116 3.82 1.302 5.879 3.503V7.326a1.499 1.499 0 1 1 3 0V17.82h1V6.31a1.501 1.501 0 0 1 3 0v10.51h1v-1.494a1.5 1.5 0 1 1 3 0v2.494h1v-.499a1.5 1.5 0 1 1 3 0v5.998a7.5 7.5 0 0 1-7.5 7.5z" fill="#929292" fill-rule="evenodd"/></svg>