<svg width="32" height="32" viewBox="0 0 32 32" xmlns="http://www.w3.org/2000/svg"><path d="M21.6 26H1.993A.993.993 0 0 1 1 25.008V14h27v4.207A5.5 5.5 0 0 0 21.6 26zm.657 1H1.993A1.997 1.997 0 0 1 0 25.009V6.99C0 5.89.897 5 2.003 5H13l2 4h11.994A2 2 0 0 1 29 10.995V18.6a5.5 5.5 0 1 1-6.743 8.4zM1 13V6.992A1 1 0 0 1 1.992 6H12.4l1.96 4h12.637c.55 0 1.003.448 1.003 1v2H1zm25.5 15a4.5 4.5 0 1 0 0-9 4.5 4.5 0 0 0 0 9zm-.5-1.757l-2.354-2.354.733-.732L26 24.778l3.121-3.121.733.732L26 26.243z" fill="#929292" fill-rule="evenodd"/></svg>