<svg width="32" height="32" xmlns="http://www.w3.org/2000/svg"><path d="M13 5h1V4h-.805c-.066.089-.131.18-.195.274V5zm0 2h1V6h-1v1zm-1 0h-.303c.093-.285.194-.562.303-.83V7zm1 2h1V8h-1v1zm-1 0h-.79c.057-.34.125-.674.204-1H12v1zm1 5h1v1h-1v-1zm-1 0h-.581c.156.4.351.755.581 1.069V14zm1-2h1v1h-1v-1zm-1 0h-.986c.02.355.06.688.12 1H12v-1zm1-2h1v1h-1v-1zm-1 0h-.925c-.033.33-.055.663-.067 1H12v-1zm3-5h1V4h-1v1zm0-2.618a3.385 3.385 0 0 1 1-.34V3h-1v-.618zM15 7h1V6h-1v1zm0 2h1V8h-1v1zm0 5h1v1h-1v-1zm-1 2.572A4.759 4.759 0 0 1 12.94 16H14v.572zm1 .288c.323.064.657.106 1 .126V16h-1v.86zM15 12h1v1h-1v-1zm0-2h1v1h-1v-1zm4-6v1h1v-.726A8.003 8.003 0 0 0 19.805 4H19zm-2 0v1h1V4h-1zm0-1v-.958c.343.057.677.173 1 .34V3h-1zm2 3v1h1V6h-1zm-2 0v1h1V6h-1zm2 2v1h1V8h-1zm2.586 0c.079.326.147.66.205 1H21V8h.586zm-.283-1A12.507 12.507 0 0 0 21 6.17V7h.303zM17 8v1h1V8h-1zm2 7v-1h1v1h-1zm0 1v.572c.38-.148.737-.338 1.06-.572H19zm-2-1v-1h1v1h-1zm0 1v.986c.343-.02.677-.062 1-.126V16h-1zm2-3v-1h1v1h-1zm2.865 0c.06-.312.102-.645.121-1H21v1h.865zm-.284 1c-.156.4-.351.755-.581 1.069V14h.581zM17 13v-1h1v1h-1zm2-2v-1h1v1h-1zm2.992 0c-.012-.337-.034-.67-.067-1H21v1h.992zM17 11v-1h1v1h-1zm5.989 1c-.191 4.113-2.76 5.83-5.989 5.988v5.097c.585.206 1 .764 1 1.42v4.99a1.499 1.499 0 1 1-3 0v-4.99a1.5 1.5 0 0 1 1-1.42v-5.097c-3.228-.157-5.798-1.875-5.989-5.988H10v-1h.007c.165-5.473 3.009-10 6.493-10 3.484 0 6.328 4.527 6.493 10H23v1h-.011zM16.5 24a.5.5 0 0 0-.5.491v5.018a.5.5 0 0 0 1 0v-5.018a.5.5 0 0 0-.5-.491z" fill="#929292" fill-rule="evenodd"/></svg>