<svg width="32" height="32" xmlns="http://www.w3.org/2000/svg"><path d="M19.186 4.255a3.5 3.5 0 0 1 4.779 3.742c.023.161.035.326.035.494v1.838a4.5 4.5 0 0 0-4.53-7.21A4.483 4.483 0 0 0 16.5 2a4.483 4.483 0 0 0-2.97 1.119A4.5 4.5 0 0 0 9 10.329V7.507c0-.97.393-1.848 1.027-2.482h-.002A3.489 3.489 0 0 1 12.5 4c.464 0 .907.09 1.312.254A3.496 3.496 0 0 1 16.5 3c1.078 0 2.044.488 2.686 1.255zM24 11.743a5.5 5.5 0 0 0-4.264-9.69A5.475 5.475 0 0 0 16.5 1c-1.21 0-2.328.39-3.236 1.053A5.5 5.5 0 0 0 9 11.743v1.235A6.5 6.5 0 0 1 13.004 1.02 6.47 6.47 0 0 1 16.5 0a6.47 6.47 0 0 1 3.496 1.02A6.5 6.5 0 0 1 24 12.978v-1.236zM18.5 31c-3.76 0-5.99-2.051-7.753-5.017-3.912-6.582-6.713-9.594-5.626-10.687 1.11-1.117 3.82 1.302 5.879 3.502V7.505a1.499 1.499 0 1 1 3 0V18h1V6.49a1.501 1.501 0 0 1 3 0V17h1V7.503C19 6.665 19.672 6 20.5 6c.834 0 1.5.673 1.5 1.503V18h1v-.498a1.5 1.5 0 1 1 3 0V23.5a7.5 7.5 0 0 1-7.5 7.5zm8.5-7.5a8.5 8.5 0 0 1-8.5 8.5c-3.113 0-6.398-1.453-8.66-5.572-3.263-5.945-7.436-9.845-5.449-11.832 1.422-1.422 3.654-.058 5.609 1.77V7.504a2.505 2.505 0 0 1 4.157-1.877A2.499 2.499 0 0 1 16.5 4c1.08 0 1.991.677 2.344 1.627A2.49 2.49 0 0 1 20.5 5C21.89 5 23 6.12 23 7.503v8.012c.418-.315.937-.5 1.5-.5 1.39 0 2.5 1.119 2.5 2.5V23.5z" fill="#929292" fill-rule="evenodd"/></svg>