<svg width="32" height="32" xmlns="http://www.w3.org/2000/svg"><path d="M13 7H5.95l3.25 3.25-.75.75-4.5-4.5L8.45 2l.75.75L5.95 6h7.1a2.497 2.497 0 0 1 2.45-2C16.89 4 18 5.123 18 6.508v4.99A2.493 2.493 0 0 1 19.5 11c1.083 0 1.995.677 2.346 1.628.44-.39 1.02-.628 1.654-.628 1.39 0 2.5 1.118 2.5 2.498v.013a2.495 2.495 0 0 1 1.5-.497c1.39 0 2.5 1.12 2.5 2.5V22.5a8.5 8.5 0 0 1-8.5 8.5c-3.113 0-6.398-1.453-8.66-5.572-3.263-5.945-7.436-9.845-5.449-11.832 1.422-1.422 3.654-.058 5.609 1.77V7zm8.499 23C25.642 30 29 26.415 29 22.5c0 0 0 2.313 0 0v-5.998a1.5 1.5 0 0 0-3 0V17h-1v-2.494a1.5 1.5 0 1 0-3 0V16h-1v-2.494a1.5 1.5 0 1 0-3 0V17h-1V6.505a1.499 1.499 0 1 0-3 0V17.8c-2.058-2.2-4.768-4.62-5.879-3.504-1.087 1.093 1.714 4.105 5.626 10.687C15.51 27.95 17.74 30 21.5 30z" fill="#929292" fill-rule="evenodd"/></svg>