<svg width="32" height="32" xmlns="http://www.w3.org/2000/svg"><path d="M6.265 5H5c-1.105 0-2 .887-2 2v8l13.38 13.38a2.003 2.003 0 0 0 2.832.008l.65-.65a2 2 0 0 0 2.35-.35l7.176-7.176c.78-.78.776-2.048-.007-2.831L16 4H8c-.742 0-1.39.4-1.735 1zM6 6h-.992C4.451 6 4 6.457 4 7.008V14.5l13.1 13.171a.99.99 0 0 0 1.404.002l.583-.586L6 14V6zm9.5-1H8.008C7.451 5 7 5.457 7 6.008V13.5l13.1 13.171a.99.99 0 0 0 1.404.002l7.164-7.213a.994.994 0 0 0-.006-1.406L15.5 5zm-4 7a2.5 2.5 0 1 0 0-5 2.5 2.5 0 0 0 0 5zm0-1a1.5 1.5 0 1 0 0-3 1.5 1.5 0 0 0 0 3z" fill="#929292" fill-rule="evenodd"/></svg>