<svg width="32" height="32" viewBox="0 0 32 32" xmlns="http://www.w3.org/2000/svg"><path d="M16.073 6a2.5 2.5 0 0 0-4.949.508v8.859c-1.955-1.829-4.187-3.193-5.608-1.771-1.988 1.987 2.186 5.887 5.45 11.832 2.26 4.12 5.546 5.572 8.658 5.572a8.5 8.5 0 0 0 8.5-8.5v-5.986c0-1.38-1.11-2.5-2.5-2.5-.562 0-1.082.185-1.5.497v-.013c0-1.38-1.11-2.498-2.5-2.498-.634 0-1.213.238-1.654.628A2.493 2.493 0 0 0 17.624 11c-.562 0-1.082.185-1.5.498V7h7.05l-3.25 3.25.75.75 4.5-4.5-4.5-4.5-.75.75L23.174 6h-7.1zm3.55 24c4.143 0 7.501-3.585 7.501-7.5 0 0 0 2.313 0 0v-5.998a1.5 1.5 0 0 0-3 0V17h-1v-2.494a1.5 1.5 0 1 0-3 0V16h-1v-2.494a1.5 1.5 0 1 0-3 0V17h-1V6.505a1.499 1.499 0 1 0-3 0V17.8c-2.058-2.2-4.768-4.62-5.879-3.504-1.087 1.093 1.715 4.105 5.627 10.687C13.634 27.95 15.865 30 19.623 30z" fill="#929292" fill-rule="evenodd"/></svg>