<svg width="32" height="32" xmlns="http://www.w3.org/2000/svg"><path d="M22 25.5a2.5 2.5 0 1 1 0-4V21h1v5h-1v-.5zM14.929 23L16 26h1l-3-8h-1l-3 8h1l1.071-3h2.858zm-.358-1L13.5 19l-1.071 3h2.142zM19.5 3H9.003A2.005 2.005 0 0 0 7 5.007v22.986A2 2 0 0 0 8.997 30h15.006A1.999 1.999 0 0 0 26 28.01V10l-6-7h-.5zM19 4H8.996C8.446 4 8 4.455 8 4.995v23.01c0 .55.455.995 1 .995h15c.552 0 1-.445 1-.993V11h-4.002A1.995 1.995 0 0 1 19 8.994V4zm1 .5v4.491c0 .557.45 1.009.997 1.009H24.7L20 4.5zm.5 20.5a1.5 1.5 0 1 0 0-3 1.5 1.5 0 0 0 0 3z" fill="#929292" fill-rule="evenodd"/></svg>