<svg width="32" height="32" xmlns="http://www.w3.org/2000/svg"><path d="M20.972 14a4.5 4.5 0 0 0-8.944 0H5.95l3.25-3.25-.75-.75-4.5 4.5 4.5 4.5.75-.75L5.95 15H12v16h9V15h6.05l-3.25 3.25.75.75 4.5-4.5-4.5-4.5-.75.75L27.05 14h-6.078zM16.5 11a3.504 3.504 0 0 0-3.5 3.507V30h7V14.507A3.506 3.506 0 0 0 16.5 11zm0 1c-1.38 0-2.5 1.129-2.5 2.51V18h5v-3.49c0-1.386-1.11-2.51-2.5-2.51zm0 1c-.828 0-1.5.679-1.5 1.5V17h3v-2.5c0-.828-.666-1.5-1.5-1.5zM14 21v1h5v-1h-5zm0 2v1h5v-1h-5z" fill="#929292" fill-rule="evenodd"/></svg>