<svg width="32" height="32" xmlns="http://www.w3.org/2000/svg"><path d="M7 23v-5.994C7 15.897 7.894 15 8.997 15h15.006A2 2 0 0 1 26 17.006V23H7zm0 1v2h.75l1.5-2H7zm0 3a2 2 0 0 0 1.997 2h15.006A2.001 2.001 0 0 0 26 27H7zm19-1v-2h-.75l-1.5 2H26zM9 14v-3.5a7.5 7.5 0 1 1 15 0V14c1.66.005 3 1.35 3 3.01v9.98A3.002 3.002 0 0 1 23.991 30H9.01A3.008 3.008 0 0 1 6 26.99v-9.98A3.002 3.002 0 0 1 9 14zm-.25 12l1.5-2h2l-1.5 2h-2zm3 0l1.5-2h2l-1.5 2h-2zm3 0l1.5-2h2l-1.5 2h-2zm3 0l1.5-2h2l-1.5 2h-2zm3 0l1.5-2h2l-1.5 2h-2zM10 14v-3.507A6.497 6.497 0 0 1 16.5 4c3.583 0 6.5 2.907 6.5 6.493V14h-1v-3.49A5.509 5.509 0 0 0 16.5 5a5.501 5.501 0 0 0-5.5 5.51V14h-1zm2 0v-3.5C12 8.01 14.015 6 16.5 6c2.48 0 4.5 2.015 4.5 4.5V14h-9z" fill="#929292" fill-rule="evenodd"/></svg>