<svg width="32" height="32" viewBox="0 0 32 32" xmlns="http://www.w3.org/2000/svg"><path d="M15 27.25L11.75 24l-.75.75 4.5 4.5 4.5-4.5-.75-.75L16 27.25V16h-1v11.25zM14 22H7.003A4.005 4.005 0 0 1 3 18a4.006 4.006 0 0 1 3.101-3.898 6 6 0 0 1 11.56-3.094 4.5 4.5 0 0 1 7.323 3.115A4.006 4.006 0 0 1 28 18c0 2.205-1.792 4-4.003 4H17v1h7c2.762 0 5-2.244 5-5a4.998 4.998 0 0 0-3.117-4.634 5.502 5.502 0 0 0-7.79-3.813 7 7 0 0 0-13.082 3.859A5.006 5.006 0 0 0 2 18c0 2.761 2.232 5 5 5h7v-1z" fill="#929292" fill-rule="evenodd"/></svg>