<svg width="32" height="32" xmlns="http://www.w3.org/2000/svg"><path d="M18.247 17.507L21 22.997h5.01c.546 0 .99.443.99 1v1.001c0 .552-.453 1-.997 1h-6.006c-.55 0-1.2-.41-1.44-.894l-2.048-4.122.56-1.12 2.383 4.798c.073.147.379.337.545.337h6.006c-.005 0-.003-1-.003-1 0-.004-5 0-5 0h-.617l-.277-.552-2.418-4.821.559-1.117zm-2.755-5.492l-2.215-4.417a1.096 1.096 0 0 0-1.474-.48l-.759.383c-.547.275-.764.94-.492 1.49l3.216 6.473.56-1.12-1.053-2.12.959-.488.7 1.396.558-1.117zm-1.707-1.173l-1.402-2.796c-.02-.041-.079-.06-.13-.034l-.76.382a.112.112 0 0 0-.045.152l1.382 2.783.955-.487zm-.342 14.262c-.24.483-.89.893-1.44.893H5.997c-.544 0-.997-.447-.997-.999v-1.002c0-.556.444-.999.99-.999H11l7.723-15.399c.27-.537.93-.753 1.474-.48l.759.383c.547.275.764.94.492 1.49l-8.005 16.113zm4.772-14.262l1.402-2.796c.02-.041.079-.06.13-.034l.76.382a.112.112 0 0 1 .045.152l-1.382 2.783-.955-.487zm-6.321 12.603l-.277.552H11s-5-.004-5 0c0 0 .002 1-.003 1h6.006c.166 0 .472-.19.545-.337l6.177-12.435-.959-.489-5.872 11.71z" fill="#929292" fill-rule="evenodd"/></svg>