<svg width="32" height="32" viewBox="0 0 32 32" xmlns="http://www.w3.org/2000/svg"><path d="M21.025 14L21 12h2l-.037 2h-1.938zm-.45 1A12.21 12.21 0 0 0 19 20.976C19 24.5 20.6 27 20.6 27h2.8s1.6-2.499 1.6-6.024c0-2.792-.985-4.93-1.587-5.976h-2.837zm.364-4C20.723 9.328 20 8.775 20 7.5c0-1.112.951-1.52 2-1.52s2 .415 2 1.52c0 1.274-.72 1.84-.938 3.5h-2.123zM9.025 14L9 12h2l-.037 2H9.025zm-.45 1A12.21 12.21 0 0 0 7 20.976C7 24.5 8.6 27 8.6 27h2.8s1.6-2.499 1.6-6.024c0-2.792-.985-4.93-1.587-5.976H8.576zm.364-4C8.723 9.328 8 8.775 8 7.5c0-1.112.951-1.52 2-1.52s2 .415 2 1.52c0 1.274-.72 1.84-.938 3.5H8.939zM14 20.976C14 24.997 12 28 12 28H8s-2-3-2-7.024S8 14 8 14v-2c0-2-1-3-1-4.5C7 6.388 8 5 10 5s3 1.395 3 2.5C13 9 12 10 12 12v2s2 2.955 2 6.976zm12 0C26 24.997 24 28 24 28h-4s-2-3-2-7.024S20 14 20 14v-2c0-2-1-3-1-4.5C19 6.388 20 5 22 5s3 1.395 3 2.5C25 9 24 10 24 12v2s2 2.955 2 6.976z" fill="#929292" fill-rule="evenodd"/></svg>