<svg width="32" height="32" xmlns="http://www.w3.org/2000/svg"><path d="M19 20h-2v1h2v-1zm1 0h.494c.658 0 1.214.417 1.42 1H20v-1zm-1 3h-2v-1h2v1zm1 0h.494c.656 0 1.215-.415 1.421-1H20v1zm-4-3h-2v1h2v-1zm0 3h-2v-1h2v1zm-3-3h-.494c-.656 0-1.215.415-1.421 1H13v-1zm0 3h-.494a1.504 1.504 0 0 1-1.42-1H13v1zm3.5 6C23.404 29 29 23.404 29 16.5S23.404 4 16.5 4 4 9.596 4 16.5 9.596 29 16.5 29zm0-1C22.851 28 28 22.851 28 16.5S22.851 5 16.5 5 5 10.149 5 16.5 10.149 28 16.5 28zM12 14a1 1 0 1 0 0-2 1 1 0 0 0 0 2zm9 0a1 1 0 1 0 0-2 1 1 0 0 0 0 2zm-8.493 5A2.497 2.497 0 0 0 10 21.5c0 1.38 1.12 2.5 2.507 2.5h7.986A2.497 2.497 0 0 0 23 21.5c0-1.38-1.12-2.5-2.507-2.5h-7.986z" fill="#929292" fill-rule="evenodd"/></svg>