<svg width="32" height="32" xmlns="http://www.w3.org/2000/svg"><path d="M13.124 0v4h1V0h-1zm6.403 2.577l-3.109 2.517.63.777 3.108-2.517-.63-.777zm2.005 6.735l-3.898-.9-.225.975 3.898.9.225-.975zm-15.59.975l3.897-.9-.225-.974-3.897.9.225.974zm1.15-6.933l3.11 2.517.628-.777-3.108-2.517-.63.777zM19.624 31c4.143 0 7.501-3.585 7.501-7.5 0 0 0 2.313 0 0v-5.998a1.5 1.5 0 0 0-3 0V18h-1v-2.494a1.5 1.5 0 1 0-3 0V17h-1v-2.494a1.5 1.5 0 1 0-3 0V18h-1V7.505a1.499 1.499 0 1 0-3 0V18.8c-2.058-2.2-4.768-4.62-5.879-3.504-1.087 1.093 1.715 4.105 5.627 10.687C13.634 28.95 15.865 31 19.623 31zm8.501-7.5a8.5 8.5 0 0 1-8.5 8.5c-3.112 0-6.398-1.453-8.659-5.572-3.263-5.945-7.437-9.845-5.45-11.832 1.422-1.422 3.654-.058 5.61 1.77V7.509a2.5 2.5 0 1 1 5 0v4.99a2.493 2.493 0 0 1 1.5-.498c1.082 0 1.994.677 2.345 1.628.441-.39 1.02-.628 1.654-.628 1.39 0 2.5 1.118 2.5 2.498v.013a2.495 2.495 0 0 1 1.5-.497c1.39 0 2.5 1.12 2.5 2.5V23.5z" fill="#929292" fill-rule="evenodd"/></svg>