<svg width="32" height="32" xmlns="http://www.w3.org/2000/svg"><path d="M18.385 15.149c4.05 1.81 6.232 2.649 6.232 2.649s-2.471-1.97-5.414-4.072a2.997 2.997 0 0 1-.818 1.423zm-5.006-1.43C9.74 16.352 7.9 17.841 7.9 17.841s2.985-1.172 6.305-2.685a2.997 2.997 0 0 1-.826-1.437zm5.88-1.16c2.556 1.815 8.703 6.28 8.306 6.967-.396.686-7.304-2.389-10.166-3.7L18.292 31s-.5 1-2 1-2-1-2-1l.892-15.174c-2.862 1.311-9.77 4.386-10.166 3.7-.396-.687 5.75-5.152 8.306-6.967a2.997 2.997 0 0 1 1.088-1.897C14.707 7.532 15.5 0 16.292 0c.792 0 1.584 7.532 1.88 10.662a2.997 2.997 0 0 1 1.088 1.897zm-3.086 3.439l-.87 14.679s.193.323.989.323c.795 0 1-.323 1-.323l-.88-14.68a3.053 3.053 0 0 1-.239 0zm.948-5.882c-.46-4.46-.83-6.796-.83-6.796s-.476 3.167-.825 6.795a3.002 3.002 0 0 1 1.655.001zM16.291 15a2 2 0 1 0 0-4 2 2 0 0 0 0 4z" fill="#929292" fill-rule="evenodd"/></svg>