<svg width="32" height="32" viewBox="0 0 32 32" xmlns="http://www.w3.org/2000/svg"><path d="M8.268 24h-.762a1.5 1.5 0 1 0 0 3h7.988a1.5 1.5 0 1 0 0-3H15a2 2 0 0 0-3.112-1.662A2 2 0 1 0 8.268 24zm7.57-.977c.678.093 1.27.456 1.662.977h7.497A4.004 4.004 0 0 0 29 20a4.006 4.006 0 0 0-3.042-3.884 4.5 4.5 0 0 0-7.606-3.832 6 6 0 0 0-11.25 3.818H7.1A4.006 4.006 0 0 0 4 20a4 4 0 0 0 2.028 3.478c.284-.206.614-.355.972-.427V23a3 3 0 0 1 5.306-1.92 3.001 3.001 0 0 1 3.532 1.943zM5.34 24.237A4.995 4.995 0 0 1 3 20c0-2.05 1.24-3.818 3.012-4.588a7 7 0 0 1 10.52-6.456A2.5 2.5 0 0 1 18 8.05V8a3 3 0 0 1 5.306-1.92 3.001 3.001 0 0 1 3.532 1.943A2.5 2.5 0 0 1 26.492 13H26.4c.372.726.586 1.546.6 2.415 1.768.77 3 2.533 3 4.585 0 2.756-2.238 5-5 5h-7.05a2.497 2.497 0 0 1-2.456 3H7.506a2.502 2.502 0 0 1-2.166-3.763zM25.743 12h.75a1.5 1.5 0 1 0 0-3H26a2 2 0 0 0-3.112-1.662A2 2 0 1 0 19.268 9h-.762c-.458 0-.87.202-1.145.524.47.375.892.81 1.253 1.293A5.474 5.474 0 0 1 21.5 10c1.708 0 3.234.778 4.243 2z" fill="#929292" fill-rule="evenodd"/></svg>