<svg width="32" height="32" xmlns="http://www.w3.org/2000/svg"><path d="M11.761 6H17l13.38 13.38c.784.784.788 2.052.008 2.832l-7.176 7.176a2.003 2.003 0 0 1-2.831-.007L7 16V8c0-.95.653-1.737 1.532-1.945.164.265.3.58.393.948A1.013 1.013 0 0 0 8 8.008V15.5l13.1 13.171a.99.99 0 0 0 1.404.002l7.164-7.213a.994.994 0 0 0-.006-1.406L16.5 7h-4.509a44.723 44.723 0 0 1-.071-.353A7.404 7.404 0 0 0 11.76 6zm.72 3h.019a2.5 2.5 0 1 1-2.456 2.03c.578 1.277 1.301 1.841 2.379 1.975.005.001.011-.001.018-.006L12.5 13a1.5 1.5 0 0 0 .412-2.943.04.04 0 0 0 0-.012c-.13-.188-.274-.529-.431-1.045zm-1.542-2.158c-.867-4.368-5.555-4.983-7.362-2.108C2.127 7.039 3.56 11 6 11v-1c-1.552 0-2.648-3.03-1.577-4.734C5.766 3.13 9.274 3.59 9.958 7.036 10.767 11.114 11.377 12 13 12v-1c-.993 0-1.335-.496-2.061-4.158z" fill="#929292" fill-rule="evenodd"/></svg>