<svg width="32" height="32" viewBox="0 0 32 32" xmlns="http://www.w3.org/2000/svg"><path d="M18.808 11.253A6.5 6.5 0 1 0 10 12.979v-1.236a5.5 5.5 0 1 1 7.736-.735c.377.025.737.11 1.072.245zM17 10.329a4.5 4.5 0 1 0-7 0V7.49A3.494 3.494 0 0 1 13.5 4C15.43 4 17 5.563 17 7.491v2.838zM19.499 31C23.642 31 27 27.415 27 23.5c0 0 0 2.313 0 0v-5.998a1.5 1.5 0 0 0-3 0V18h-1v-2.494a1.5 1.5 0 1 0-3 0V17h-1v-2.494a1.5 1.5 0 1 0-3 0V18h-1V7.505a1.499 1.499 0 1 0-3 0V18.8c-2.058-2.2-4.768-4.62-5.879-3.504-1.087 1.093 1.714 4.105 5.626 10.687C13.51 28.95 15.74 31 19.5 31zM28 23.5a8.5 8.5 0 0 1-8.5 8.5c-3.113 0-6.398-1.453-8.66-5.572-3.263-5.945-7.436-9.845-5.449-11.832 1.422-1.422 3.654-.058 5.609 1.77V7.509a2.5 2.5 0 1 1 5 0v4.99A2.493 2.493 0 0 1 17.5 12c1.083 0 1.995.677 2.346 1.628.44-.39 1.02-.628 1.654-.628 1.39 0 2.5 1.118 2.5 2.498v.013a2.495 2.495 0 0 1 1.5-.497c1.39 0 2.5 1.12 2.5 2.5V23.5z" fill="#929292" fill-rule="evenodd"/></svg>