<svg width="32" height="32" viewBox="0 0 32 32" xmlns="http://www.w3.org/2000/svg"><path d="M12 8.5v12.858c-4.115.685-7 2.282-7 4.142 0 2.485 5.149 4.5 11.5 4.5S28 27.985 28 25.5 22.851 21 16.5 21c-1.22 0-2.396.074-3.5.212v-7.64L26 8 12 2v6.5zm1 13.7a30.06 30.06 0 0 1 3.5-.2c5.799 0 10.5 1.567 10.5 3.5S22.299 29 16.5 29 6 27.433 6 25.5c0-1.396 2.453-2.601 6-3.163v1.693c-1.141.139-2 .744-2 1.47 0 .828 1.12 1.5 2.5 1.5s2.5-.672 2.5-1.5c0-.726-.859-1.331-2-1.47V22.2zm0-18.7v9L23.5 8 13 3.5zM20.5 26c.828 0 1.5-.448 1.5-1s-.672-1-1.5-1-1.5.448-1.5 1 .672 1 1.5 1z" fill="#929292" fill-rule="evenodd"/></svg>