<svg width="32" height="32" xmlns="http://www.w3.org/2000/svg"><path d="M17.034 13.368a6 6 0 1 1 1.587 1.59l-4.083 4.08L16.5 21 15 22.5l-1.962-1.962-3.001 2.999L12.5 26 11 27.5l-2.463-2.463-2.65 2.648a1.091 1.091 0 0 1-1.553-.003l-.019-.019a1.107 1.107 0 0 1 .002-1.56l12.717-12.735zM13 22l-1.5 1.5L14 26l-3 3-2.5-2.5-1.875 1.875a2.152 2.152 0 0 1-3.043.007l.036.036a2.152 2.152 0 0 1 .007-3.043l12.157-12.157a7 7 0 1 1 3 3L16 19l2 2-3 3-2-2zm9-8a4 4 0 1 0 0-8 4 4 0 0 0 0 8zm0-1a3 3 0 1 0 0-6 3 3 0 0 0 0 6z" fill="#929292" fill-rule="evenodd"/></svg>