<svg width="32" height="32" xmlns="http://www.w3.org/2000/svg"><path d="M7.007 10A3.003 3.003 0 0 0 4 12.999V20A2.996 2.996 0 0 0 7.007 23h16.986A3.003 3.003 0 0 0 27 20.001V13A2.996 2.996 0 0 0 23.993 10H7.007zm-.012 1C5.893 11 5 11.9 5 12.992v7.016A2 2 0 0 0 6.995 22h17.01C25.107 22 26 21.1 26 20.008v-7.016A2 2 0 0 0 24.005 11H6.995zM12 17H9v3H8v-5c0-1.112.898-2 2.005-2h.99A2 2 0 0 1 13 15v5h-1v-3zm-2.001-3A.997.997 0 0 0 9 15v1h3v-1c0-.552-.443-1-.999-1H9.999zm6.501 4.25L18 13h1l-2 7h-1l-2-7h1l1.5 5.25zM21 14v5h-1v1h3v-1h-1v-5h1v-1h-3v1h1z" fill="#929292" fill-rule="evenodd"/></svg>