<svg width="32" height="32" xmlns="http://www.w3.org/2000/svg"><path d="M8.47 16a6.684 6.684 0 0 1-.454-2.98l.074-1.042C8.326 8.683 11.206 6 14.523 6h.989c3.312 0 6.196 2.676 6.432 5.978l.075 1.043A6.776 6.776 0 0 1 21.57 16H8.47zm.508 1c1.132 1.813 3.15 3 5.534 3h1.01c2.381 0 4.4-1.187 5.533-3H8.978zm8.593 9.002c.03.552-.442.998-1 .998h-3c-.566 0-1.029-.447-.998-.998l.287-5.176c-3.569-.766-6.084-3.968-5.844-7.803l.064-1.028C7.322 8.123 10.65 5 14.512 5h1.01c3.869 0 7.191 3.132 7.432 6.995l.065 1.028c.239 3.822-2.257 7.015-5.807 7.795l.36 5.184zm-3.718-5.03A828.23 828.23 0 0 1 13.571 26h3c-.008 0-.197-2.754-.352-5.03-.232.02-.466.03-.704.03h-.996c-.224 0-.446-.01-.666-.027zm12.218.528a2 2 0 1 0-4 0 2 2 0 0 0 4 0zm-3 0a1 1 0 1 1 2 0 1 1 0 0 1-2 0z" fill="#929292" fill-rule="evenodd"/></svg>