<svg width="32" height="32" xmlns="http://www.w3.org/2000/svg"><path d="M21 23.915v2.594a.5.5 0 0 0 1 0v-2.594a1.5 1.5 0 1 0-1 0zm-1 .585v1.998a1.5 1.5 0 0 0 3 0V24.5a2.5 2.5 0 1 0-3 0zM17 16V8.5a7.5 7.5 0 1 0-15 0v4c0 .828.666 1.5 1.5 1.5.828 0 1.5-.674 1.5-1.5v-4C5 6.017 7.015 4 9.5 4 11.98 4 14 6.015 14 8.5V16c-1.658.005-3 1.34-3 3.01V24c0 4.418 3.586 8 8 8h5c4.419 0 8-3.59 8-8v-4.99A3.008 3.008 0 0 0 28.991 16H17zm-1-7.5C16 4.91 13.083 2 9.5 2 5.91 2 3 4.92 3 8.5v4.001c0 .276.232.499.5.499.276 0 .5-.217.5-.5V8.497a5.5 5.5 0 0 1 11 0V16h1V8.5zM13.997 17A2.001 2.001 0 0 0 12 19.006V24c0 3.866 3.137 7 6.994 7h5.012C27.869 31 31 27.858 31 24v-4.994A2 2 0 0 0 29.003 17H13.997z" fill="#929292" fill-rule="evenodd"/></svg>