<svg width="32" height="32" xmlns="http://www.w3.org/2000/svg"><path d="M16 21h-4v2h4v-2zm1 0h4v2h-4v-2zm-1 5h-4v-2h4v2zm1 0h4v-2h-4v2zm-1-8h-4v2h4v-2zm1 0h4v2h-4v-2zm-1-3h-4v2h4v-2zm1 0h4v2h-4v-2zm2.5-12H9.003A2.005 2.005 0 0 0 7 5.007v22.986A2 2 0 0 0 8.997 30h15.006A1.999 1.999 0 0 0 26 28.01V10l-6-7h-.5zM19 4H8.996C8.446 4 8 4.455 8 4.995v23.01c0 .55.455.995 1 .995h15c.552 0 1-.445 1-.993V11h-4.002A1.995 1.995 0 0 1 19 8.994V4zm1 .5v4.491c0 .557.45 1.009.997 1.009H24.7L20 4.5zM11 13v14h11V13H11z" fill="#929292" fill-rule="evenodd"/></svg>