<svg width="32" height="32" viewBox="0 0 32 32" xmlns="http://www.w3.org/2000/svg"><path d="M30 14a4 4 0 1 0-8 0h1c0-1.657 1.347-3 3-3 1.657 0 3 1.347 3 3 0 1.657-1.343 3-3.008 3H3v1h23.002A4.002 4.002 0 0 0 30 14zm-9-1c0-1.657-1.347-3-3-3-1.657 0-3 1.342-3 2.991V13h1c0-1.105.888-2 2-2 1.105 0 2 .888 2 2 0 1.105-.897 2-2.006 2H6v1h12c1.657 0 3-1.347 3-3zm4 8c0 1.105-.888 2-2 2-1.105 0-2-.895-2-1.994V21h1c0 .552.444 1 1 1 .552 0 1-.444 1-1 0-.552-.449-1-1.007-1H9v-1h14.006c1.101 0 1.994.888 1.994 2z" fill="#929292" fill-rule="evenodd"/></svg>