<svg width="32" height="32" viewBox="0 0 32 32" xmlns="http://www.w3.org/2000/svg"><path d="M16.5 4C9.596 4 4 9.596 4 16.5S9.596 29 16.5 29 29 23.404 29 16.5 23.404 4 16.5 4zm0 24C10.149 28 5 22.851 5 16.5S10.149 5 16.5 5c4.286 0 8.024 2.345 10.003 5.821A5.477 5.477 0 0 1 23.1 12c-1.223 0-2.1-.5-3.282-1.09-1.182-.591-2.106-.91-3.318-.91a6.5 6.5 0 1 0 0 13c1.212 0 2.5-.5 3.335-.926C20.669 21.648 21.877 21 23.1 21c1.285 0 2.466.44 3.403 1.179A11.496 11.496 0 0 1 16.5 28zM28 16.5c0-1.703-.37-3.32-1.035-4.774A6.471 6.471 0 0 1 23.1 13c-1.456 0-3.1-.9-4.1-1.4-.842-.421-1.513-.6-2.5-.6a5.5 5.5 0 1 0 0 11c.987 0 2.074-.382 2.5-.6 1.04-.532 2.644-1.4 4.1-1.4 1.448 0 2.785.473 3.865 1.274A11.458 11.458 0 0 0 28 16.5z" fill="#929292" fill-rule="evenodd"/></svg>