<svg width="32" height="32" xmlns="http://www.w3.org/2000/svg"><path d="M6.18 7.18l.707.707L2.773 12H6v1H1V8h1v3.359l4.18-4.18zm1.64-.36l-.707-.707L11.227 2H8V1h5v5h-1V2.641l-4.18 4.18zM31 23.5a8.5 8.5 0 0 1-8.5 8.5c-3.113 0-6.398-1.453-8.66-5.572-3.263-5.945-7.436-9.845-5.449-11.832 1.422-1.422 3.654-.058 5.609 1.77V7.509a2.5 2.5 0 0 1 4.157-1.881A2.499 2.499 0 0 1 20.5 4C21.89 4 23 5.12 23 6.503v7A2.485 2.485 0 0 1 24.5 13c1.39 0 2.5 1.118 2.5 2.498v.013a2.495 2.495 0 0 1 1.5-.497c1.39 0 2.5 1.12 2.5 2.5V23.5zM22.5 31c-3.76 0-5.99-2.051-7.753-5.017-3.912-6.582-6.713-9.594-5.626-10.687 1.11-1.117 3.82 1.302 5.879 3.502V7.505a1.499 1.499 0 1 1 3 0V18h1V6.49a1.501 1.501 0 0 1 3 0V17h1v-1.494a1.5 1.5 0 1 1 3 0V18h1v-.498a1.5 1.5 0 1 1 3 0V23.5a7.5 7.5 0 0 1-7.5 7.5z" fill="#929292" fill-rule="evenodd"/></svg>