<svg width="32" height="32" viewBox="0 0 32 32" xmlns="http://www.w3.org/2000/svg"><path d="M29.5 12c1.38 0 2.5.895 2.5 2 0-5.415-6.671-9.825-15-9.995V2.5c0-.275-.232-.499-.5-.499-.276 0-.5.216-.5.5v1.505C7.671 4.175 1 8.585 1 14c0-1.105 1.12-2 2.5-2s2.5.895 2.5 2c0-1.105 1.12-2 2.5-2s2.5.895 2.5 2c0-1.105 1.12-2 2.5-2s2.5.895 2.5 2v14.01a1 1 0 0 1-1 .99c-.556 0-1-.444-1-.99v-1.505a.508.508 0 0 0-.5-.505c-.276 0-.5.214-.5.505v1.494c0 1.105.888 2.001 2 2.001 1.105 0 2-.888 2-2V14c0-1.105 1.12-2 2.5-2s2.5.895 2.5 2c0-1.105 1.12-2 2.5-2s2.5.895 2.5 2c0-1.105 1.12-2 2.5-2zM16 11.9c-.635-.555-1.52-.9-2.5-.9-.894 0-1.71.287-2.328.76.568-3.631 2.486-6.378 4.828-6.723V11.9zm1 0c.635-.555 1.52-.9 2.5-.9.894 0 1.71.287 2.328.76C21.26 8.129 19.342 5.382 17 5.037V11.9zm-6.776-.511A3.943 3.943 0 0 0 8.5 11c-.8 0-1.539.23-2.128.618.917-2.873 3.454-5.173 6.718-6.133-1.389 1.32-2.43 3.42-2.866 5.904zm12.552 0A3.943 3.943 0 0 1 24.5 11c.8 0 1.539.23 2.128.618-.917-2.873-3.454-5.173-6.718-6.133 1.389 1.32 2.43 3.42 2.866 5.904zm-17.403.076A3.92 3.92 0 0 0 3.5 11c-.243 0-.48.021-.71.062C3.95 8.979 6.304 7.242 9.346 6.17 7.43 7.496 6.01 9.343 5.373 11.465zm18.28-5.295c3.043 1.073 5.398 2.809 6.557 4.892A4.082 4.082 0 0 0 29.5 11a3.92 3.92 0 0 0-1.873.465c-.637-2.122-2.056-3.97-3.973-5.295z" fill="#929292" fill-rule="evenodd"/></svg>