<svg width="32" height="32" xmlns="http://www.w3.org/2000/svg"><path d="M7.787 8.994c-.1 3.97 1.104 7.99 3.677 11.36a16.518 16.518 0 0 1-4.642 2.36c.062.097-.374-.598-.61-1.069A11.452 11.452 0 0 1 5 16.5c0-2.562.838-4.928 2.254-6.84.233-.314.603-.747.533-.666zm1.095-1.109a16.917 16.917 0 0 0 3.395 11.839 16.454 16.454 0 0 0 3.626-4.233 17.416 17.416 0 0 1-2.131-10.165c.075-.019-.319.078-.586.159a11.463 11.463 0 0 0-3.631 1.848c-.37.28-.803.667-.673.552zm17.93 3.518A17.932 17.932 0 0 0 14.78 8.696a16.486 16.486 0 0 1 .018-3.57c-.084.011.42-.06.762-.088a11.493 11.493 0 0 1 10.764 5.481c.212.347.52.948.487.884zm.693 1.75a16.927 16.927 0 0 0-12.587-3.438 16.453 16.453 0 0 0 1.858 5.287c4.159.064 7.966 1.58 10.937 4.062-.019.082.1-.458.155-.818a11.59 11.59 0 0 0-.201-4.506c-.102-.412-.225-.797-.162-.587zm-16.18 13.62c4.781-1.384 8.894-4.846 10.944-9.737a16.453 16.453 0 0 0-5.506-1.034 17.43 17.43 0 0 1-9.336 7.565c-.043-.055.16.203.31.381a11.554 11.554 0 0 0 3.03 2.523c.377.218.76.403.558.301zm1.446.609a17.962 17.962 0 0 0 10.45-9.956 16.515 16.515 0 0 1 4.195 2.701c.04-.12-.064.2-.168.473C25.596 24.927 21.407 28 16.5 28c-1.218 0-2.393-.19-3.495-.54-.14-.045-.294-.099-.234-.078zM29 16.5C29 9.596 23.404 4 16.5 4S4 9.596 4 16.5 9.596 29 16.5 29 29 23.404 29 16.5z" fill="#929292" fill-rule="evenodd"/></svg>