<svg width="32" height="32" xmlns="http://www.w3.org/2000/svg"><path d="M16.5 29C23.404 29 29 23.404 29 16.5S23.404 4 16.5 4 4 9.596 4 16.5 9.596 29 16.5 29zm0-1C22.851 28 28 22.851 28 16.5S22.851 5 16.5 5 5 10.149 5 16.5 10.149 28 16.5 28zm-.019-7C13 21 11 23 11 23v-1s2-2 5.481-2C19.963 20 22 22 22 22v1s-2.037-2-5.519-2zm4.14-11.033l-.559.83 3.316 2.236.56-.83-3.316-2.236zM9.063 12.204l.56.829 3.316-2.237-.56-.829-3.316 2.237zM12 15a1 1 0 1 0 0-2 1 1 0 0 0 0 2zm9 0a1 1 0 1 0 0-2 1 1 0 0 0 0 2z" fill="#929292" fill-rule="evenodd"/></svg>