<svg width="32" height="32" xmlns="http://www.w3.org/2000/svg"><path d="M16 21.915v2.594a.5.5 0 0 0 1 0v-2.594a1.5 1.5 0 1 0-1 0zm-1 .585v1.998a1.5 1.5 0 0 0 3 0V22.5a2.5 2.5 0 1 0-3 0zM9 14v-3.5a7.5 7.5 0 1 1 15 0V14c1.66.005 3 1.35 3 3.01V22c0 4.41-3.581 8-8 8h-5c-4.414 0-8-3.582-8-8v-4.99A3.002 3.002 0 0 1 9 14zm1 0v-3.507A6.497 6.497 0 0 1 16.5 4c3.583 0 6.5 2.907 6.5 6.493V14h-1v-3.49A5.509 5.509 0 0 0 16.5 5a5.501 5.501 0 0 0-5.5 5.51V14h-1zm2 0v-3.5C12 8.01 14.015 6 16.5 6c2.48 0 4.5 2.015 4.5 4.5V14h-9zm-3.003 1A2.001 2.001 0 0 0 7 17.006V22c0 3.866 3.137 7 6.994 7h5.012C22.869 29 26 25.858 26 22v-4.994A2 2 0 0 0 24.003 15H8.997z" fill="#929292" fill-rule="evenodd"/></svg>