<svg width="32" height="32" xmlns="http://www.w3.org/2000/svg"><path d="M14.96 21.801L12 24.975V25h10v1H11v-8h1v5.509l2.91-3.12.731.681 1.463 1.364L20.306 19H19v-1h3v3h-1v-1.277l-3.847 4.124-.73-.682-1.464-1.364zM19.5 3H9.003A2.005 2.005 0 0 0 7 5.007v22.986A2 2 0 0 0 8.997 30h15.006A1.999 1.999 0 0 0 26 28.01V10l-6-7h-.5zM19 4H8.996C8.446 4 8 4.455 8 4.995v23.01c0 .55.455.995 1 .995h15c.552 0 1-.445 1-.993V11h-4.002A1.995 1.995 0 0 1 19 8.994V4zm1 .5v4.491c0 .557.45 1.009.997 1.009H24.7L20 4.5z" fill="#929292" fill-rule="evenodd"/></svg>