<svg width="32" height="32" xmlns="http://www.w3.org/2000/svg"><path d="M16.5 29C23.404 29 29 23.404 29 16.5S23.404 4 16.5 4 4 9.596 4 16.5 9.596 29 16.5 29zm0-1C22.851 28 28 22.851 28 16.5S22.851 5 16.5 5 5 10.149 5 16.5 10.149 28 16.5 28zm1.768-9.732c-1.768 1.768-8.486 4.95-8.486 4.95s3.182-6.718 4.95-8.486c1.768-1.768 8.486-4.95 8.486-4.95s-3.182 6.718-4.95 8.486zM16.5 6c-.276 0-.5.215-.5.49v3.02a.5.5 0 0 0 .5.49c.276 0 .5-.215.5-.49V6.49a.5.5 0 0 0-.5-.49zm10.543 10.543c0-.276-.215-.5-.49-.5h-3.02a.5.5 0 0 0-.49.5c0 .276.215.5.49.5h3.02a.5.5 0 0 0 .49-.5zM16.5 27.087c.276 0 .5-.215.5-.49v-3.02a.5.5 0 0 0-.5-.49c-.276 0-.5.215-.5.49v3.02a.5.5 0 0 0 .5.49zM5.957 16.543c0 .276.215.5.49.5h3.02a.5.5 0 0 0 .49-.5c0-.276-.215-.5-.49-.5h-3.02a.5.5 0 0 0-.49.5zm9.468-1.043c-1.06 1.06-3.464 5.586-3.464 5.586s4.525-2.404 5.586-3.465L15.425 15.5z" fill="#929292" fill-rule="evenodd"/></svg>