<svg width="32" height="32" xmlns="http://www.w3.org/2000/svg"><path d="M17.067 22H19.6l-6.1 6.1 1.479-4.1H12.4l2.3-6h3.9l-1.533 4zM19 24h5.997A4.004 4.004 0 0 0 29 20a4.006 4.006 0 0 0-3.042-3.884 4.5 4.5 0 0 0-7.606-3.832 6 6 0 0 0-11.25 3.818H7.1A4.006 4.006 0 0 0 4 20c0 2.21 1.798 4 4.003 4h3.372L14 17h6l-1.5 4H22l-3 3zm-5.455 1H8C5.232 25 3 22.761 3 20c0-2.05 1.24-3.818 3.012-4.588A7 7 0 0 1 16.14 8.743a5.502 5.502 0 0 1 5.113-6.737 4.5 4.5 0 0 0 5.74 5.74 5.495 5.495 0 0 1-1.72 3.754A5.484 5.484 0 0 1 27 15.415C28.768 16.185 30 17.948 30 20c0 2.756-2.238 5-5 5h-7l-7 7 2.545-7zm10.932-14.125a4.506 4.506 0 0 0 1.269-1.88 5.5 5.5 0 0 1-5.74-5.74A4.502 4.502 0 0 0 17.573 9.7c.386.333.734.708 1.04 1.116A5.474 5.474 0 0 1 21.5 10c1.097 0 2.119.321 2.977.875z" fill="#929292" fill-rule="evenodd"/></svg>