<svg width="32" height="32" xmlns="http://www.w3.org/2000/svg"><path d="M21.5 26.207l-2.121 2.121-.707-.707 2.12-2.121-2.12-2.121.707-.707 2.121 2.12 2.121-2.12.707.707-2.12 2.121 2.12 2.121-.707.707-2.121-2.12zM17.257 29H6.997A2 2 0 0 1 5 26.993V4.007C5 2.898 5.897 2 7.003 2H18l6 7v11.6a5.5 5.5 0 1 1-6.743 8.4zm-.657-1H7c-.545 0-1-.446-1-.995V3.995c0-.54.446-.995.996-.995H17v4.994c0 1.12.894 2.006 1.998 2.006H23v10.207A5.5 5.5 0 0 0 16.6 28zM18 3.5v4.491c0 .557.45 1.009.997 1.009H22.7L18 3.5zM21.5 30a4.5 4.5 0 1 0 0-9 4.5 4.5 0 0 0 0 9z" fill="#929292" fill-rule="evenodd"/></svg>