<svg width="32" height="32" xmlns="http://www.w3.org/2000/svg"><path d="M14.983 14.048l.003-1.054A5.013 5.013 0 0 1 20.001 8H21A4.998 4.998 0 0 1 26 12.995V23H14.9c-.9-3.035-3.9-2.87-3.9-6 0-1.896 2.671-2.028 3.637-2.014a21.278 21.278 0 0 0 1.395.446c.763.215 1.511.382 2.218.48.457.064.887.097 1.289.097 1.036 0 2.089-.208 3.108-.554.356-.12.682-.25.973-.38a6.7 6.7 0 0 0 .376-.179l-.467-.884c-.053.028-.16.081-.316.15-.264.118-.562.236-.887.346-.924.314-1.873.501-2.787.501-.352 0-.738-.03-1.151-.087a15.731 15.731 0 0 1-2.084-.453 21.102 21.102 0 0 1-1.32-.42zM14 24c0-3.076-3.99-3-4-7-.007-3 4-3 4-3v-1.003A6.002 6.002 0 0 1 20.005 7h.99C24.306 7 27 9.683 27 12.994V26c0 1.112-.897 2-2.003 2h-8.994A2 2 0 0 1 14 26v-2zm1 0v2.001c0 .552.445.999.996.999h9.008c.55 0 .996-.443.996-.999V24H15zm1 1v1h4v-1h-4z" fill="#929292" fill-rule="evenodd"/></svg>