<svg width="32" height="32" xmlns="http://www.w3.org/2000/svg"><path d="M16.035 21h-.03A1.998 1.998 0 0 0 14 23c0 1.105.897 2 2.006 2h9.988A1.998 1.998 0 0 0 28 23c0-1.105-.897-2-2.006-2h-.044a2.5 2.5 0 0 0-3.23-1.876A3.5 3.5 0 0 0 16.034 21zM23 17.671V10l-6-7H6.003A2.005 2.005 0 0 0 4 5.007v22.986A2 2 0 0 0 5.997 30h15.006A1.999 1.999 0 0 0 23 28.01V26h2.99A3.007 3.007 0 0 0 29 23c0-1.414-.973-2.6-2.299-2.917a3.5 3.5 0 0 0-3.453-2.074A4.516 4.516 0 0 0 23 17.67zm-1-.913V11h-4.002A1.995 1.995 0 0 1 16 8.994V4H5.996C5.446 4 5 4.455 5 4.995v23.01c0 .55.455.995 1 .995h15c.552 0 1-.445 1-.993V26h-5.99a2.998 2.998 0 0 1-.998-5.83A4.5 4.5 0 0 1 22 16.757zM17 4.5v4.491c0 .557.45 1.009.997 1.009H21.7L17 4.5z" fill="#929292" fill-rule="evenodd"/></svg>