<svg width="32" height="32" viewBox="0 0 32 32" xmlns="http://www.w3.org/2000/svg"><path d="M20.638 20l-2.217 1.983h.099L18.5 22h-3.379l1.697-.009-2.267-.01L12.307 20h8.331zm1.119-1L25 16.1V8.009C25 7.452 24.545 7 24 7H9c-.552 0-1 .444-1 1.002V16.2l3.173 2.8h10.584zM13.09 6L16.5 3l3.41 3h4.093C25.109 6 26 6.895 26 8v3.36L29 14v14.006A2 2 0 0 1 26.996 30H6.004A1.994 1.994 0 0 1 4 28.006V14l3-2.64V8c0-1.113.894-2 1.997-2h4.094zm5.337 0L16.5 4.3 14.572 6h3.856zM26 12.677L27.5 14 26 15.333v-2.656zM7 15.333L5.5 14 7 12.677v2.656zM13.5 23l-7 6h20l-7-6h-6zm14.185 5.725L20 22.017 28 15v13a.998.998 0 0 1-.315.725zm-22.37 0L13 22.017 5 15v13c0 .283.121.542.315.725zM10 10v1h13v-1H10zm0 3v1h13v-1H10zm0 3v1h13v-1H10z" fill="#929292" fill-rule="evenodd"/></svg>