<svg width="32" height="32" xmlns="http://www.w3.org/2000/svg"><path d="M12.774 20.341l-.391-1.183a7.138 7.138 0 0 0 1.66.58l.193 1.059c-.584-.114-1.084-.27-1.462-.456zm.377 1.142l.378 1.144c.323.094.687.174 1.082.235l-.19-1.047a8.659 8.659 0 0 1-1.27-.332zM16 20.991V19.99a11.607 11.607 0 0 1-.924-.075l.186 1.028c.239.022.485.039.738.048zm0 .999v1c-.125-.004-.247-.01-.369-.018l-.185-1.018c.182.016.367.028.554.036zm1 0v1c.125-.004.247-.01.369-.018l.185-1.018c-.182.016-.367.028-.554.036zm0-1v-1c.317-.013.626-.038.924-.075l-.186 1.028c-.239.022-.485.039-.738.048zm2.845.495l-.38 1.143a8.473 8.473 0 0 1-1.076.234l.19-1.047c.456-.084.881-.196 1.266-.33zm.379-1.142l.392-1.185a7.14 7.14 0 0 1-1.66.58l-.192 1.059c.582-.114 1.082-.27 1.46-.454zm-5.262 4.445c-.564-.176-.934-.447-.96-.752h-.007l-.111-.336c.289.07.594.13.912.178l.166.91zm1.034.192H16v-.99a11.971 11.971 0 0 1-.185-.01l.181 1zM17 23.99v.99h.004l.181-1-.185.01zm2.11-.289l-.11.335h-.002c-.026.305-.396.576-.96.752l.166-.91c.316-.047.619-.106.906-.177zm-7.966-5.63l.59 1.929H7V7h19v13h-4.73l.588-1.933.032-.067H24V9H9v9h2.11c.01.024.022.047.034.071zM11.11 17H10v-7h13v7h-1.11c-.51-1.141-2.73-2-5.39-2-2.66 0-4.88.859-5.39 2zm1.905 7.185L12.04 21H6V6h21v15h-6.034l-.982 3.228h-.007C19.78 25.225 18.298 26 16.5 26c-1.824 0-3.322-.797-3.485-1.815zM16.5 19c2.485 0 4.5-.672 4.5-1.5S18.985 16 16.5 16s-4.5.672-4.5 1.5 2.015 1.5 4.5 1.5z" fill="#929292" fill-rule="evenodd"/></svg>