<svg width="32" height="32" xmlns="http://www.w3.org/2000/svg"><path d="M21.671 23h.33C24.209 23 26 21.205 26 19H16V4h-1v15H5c0 .876.282 1.686.76 2.345.31-.15.624-.29.939-.417A2.992 2.992 0 0 1 6.17 20h4.374a11.247 11.247 0 0 1 1.71 0H24.83a3.004 3.004 0 0 1-2.83 2h-3.91c1.22.576 2.417.899 3.582 1zM26 18h-9V9l9 9zm-2.5-1H18v-5.5l5.5 5.5zM8 9.5c-3 5-3 8.5-3 8.5h9s-1-1.5-1-6 1-8 1-8-3 .5-6 5.5zm.397 1.309C6.1 15.169 6.1 17 6.1 17h6.5s-.6-1.809-.6-5 .6-6.228.6-6.228-2.24 1.311-4.203 5.037zM3 24c.432-.32.901-.634 1.404-.934 4.032-2.406 8.442-2.965 12.82-.502 4.021 2.262 7.786 1.761 11.12-.452a13.166 13.166 0 0 0 1.656-1.3v1.323c-.341.277-.709.549-1.102.81-3.622 2.405-7.779 2.957-12.164.49-4.022-2.262-8.065-1.75-11.817.49A15.997 15.997 0 0 0 3 25.266V24zm2.98 1.232c3.591-1.666 7.43-1.814 11.244.332 3.482 1.959 6.771 1.846 9.755.344v1.11c-3.143 1.433-6.615 1.46-10.245-.582-3.645-2.05-7.307-1.822-10.755-.094v-1.11z" fill="#929292" fill-rule="evenodd"/></svg>