<svg width="32" height="32" xmlns="http://www.w3.org/2000/svg"><path d="M28.124 21.5a8.5 8.5 0 0 1-8.5 8.5c-3.112 0-6.398-1.453-8.659-5.572-3.263-5.945-7.437-9.845-5.45-11.832 1.422-1.422 3.654-.058 5.61 1.77V5.509a2.5 2.5 0 1 1 5 0v4.99a2.493 2.493 0 0 1 1.5-.498c1.082 0 1.994.677 2.345 1.628.441-.39 1.02-.628 1.654-.628 1.39 0 2.5 1.118 2.5 2.498v.013a2.495 2.495 0 0 1 1.5-.497c1.39 0 2.5 1.12 2.5 2.5V21.5zm-8-7.994a1.5 1.5 0 1 1 3 0V16h1v-.498a1.5 1.5 0 1 1 3 0V21.5c0 3.915-3.358 7.5-7.5 7.5-3.76 0-5.99-2.051-7.752-5.017-3.912-6.582-6.714-9.594-5.627-10.687 1.111-1.117 3.821 1.304 5.88 3.504V5.505a1.499 1.499 0 1 1 3 0V16h1v-3.494a1.5 1.5 0 1 1 3 0V24.05l-3.25-3.25-.75.75 4.5 4.5 4.5-4.5-.75-.75-3.25 3.25V13.506z" fill="#929292" fill-rule="evenodd"/></svg>