<svg width="32" height="32" xmlns="http://www.w3.org/2000/svg"><path d="M13 18v5h-1v-7h1l3 5v-5h1v7h-1l-3-5zm9-2h1v4.994c0 1.12-.898 2.006-2.005 2.006h-.99A2.003 2.003 0 0 1 18 20.994V16h1v4.997A.998.998 0 0 0 19.999 22h1.002A.994.994 0 0 0 22 20.997V16zm4.5 3L25 16h-1v7h1v-5l1 2h1l1-2v5h1v-7h-1l-1.5 3zM21 13v-3l-6-7H4.003A2.005 2.005 0 0 0 2 5.007v22.986A2 2 0 0 0 3.997 30h15.006A1.999 1.999 0 0 0 21 28.01V26h7.993A3.003 3.003 0 0 0 32 23.001V16A2.996 2.996 0 0 0 28.993 13H21zm-1 13v2.007A.997.997 0 0 1 19 29H4c-.545 0-1-.446-1-.995V4.995c0-.54.446-.995.996-.995H14v4.994c0 1.12.894 2.006 1.998 2.006H20v2h-7.993A3.003 3.003 0 0 0 9 15.999V23A2.996 2.996 0 0 0 12.007 26H20zM15 4.5v4.491c0 .557.45 1.009.997 1.009H19.7L15 4.5zM11.995 14C10.893 14 10 14.9 10 15.992v7.016A2 2 0 0 0 11.995 25h17.01C30.107 25 31 24.1 31 23.008v-7.016A2 2 0 0 0 29.005 14h-17.01z" fill="#929292" fill-rule="evenodd"/></svg>