<svg width="32" height="32" xmlns="http://www.w3.org/2000/svg"><path d="M23 25H1.993A.993.993 0 0 1 1 24.008V13h27v3.036a3.502 3.502 0 0 0-4 3.47V21h-.002A.993.993 0 0 0 23 22.003V25zm0 1H1.993A1.997 1.997 0 0 1 0 24.009V5.99C0 4.89.897 4 2.003 4H13l2 4h11.994A2 2 0 0 1 29 9.995v6.343c1.181.563 2 1.77 2 3.167V21h.002A1 1 0 0 1 32 22.003v4.994A.993.993 0 0 1 31.002 28h-7.004A1 1 0 0 1 23 26.997V26zm2-5v-1.49c0-1.398 1.12-2.51 2.5-2.51 1.39 0 2.5 1.123 2.5 2.51V21h-5zM1 12V5.992A1 1 0 0 1 1.992 5H12.4l1.96 4h12.637c.55 0 1.003.448 1.003 1v2H1zm23.503 10a.496.496 0 0 0-.503.498v4.004c0 .275.233.498.503.498h5.994a.496.496 0 0 0 .503-.498v-4.004a.505.505 0 0 0-.503-.498h-5.994z" fill="#929292" fill-rule="evenodd"/></svg>