<svg width="32" height="32" viewBox="0 0 32 32" xmlns="http://www.w3.org/2000/svg"><path d="M20.096 4.022A3.489 3.489 0 0 0 17.624 3a3.493 3.493 0 0 0-2.685 1.255A3.49 3.49 0 0 0 13.624 4c-.966 0-1.841.392-2.474 1.025a3.492 3.492 0 0 0-1.026 2.477v2.827a4.5 4.5 0 0 1 4.53-7.21 4.5 4.5 0 0 1 6.47 6.21V6.49c0-.964-.392-1.837-1.026-2.468h-.002zm1.028 6.72a5.5 5.5 0 1 0-6.736-8.69 5.5 5.5 0 0 0-4.264 9.69v1.236A6.5 6.5 0 0 1 14.128 1.02a6.5 6.5 0 0 1 6.996 10.959v-1.235zm7 12.758a8.5 8.5 0 0 1-8.5 8.5c-3.112 0-6.398-1.453-8.659-5.572-3.263-5.945-7.437-9.845-5.45-11.832 1.422-1.422 3.654-.058 5.61 1.77V7.509a2.5 2.5 0 0 1 4.157-1.881A2.499 2.499 0 0 1 17.624 4c1.39 0 2.5 1.12 2.5 2.503v7a2.485 2.485 0 0 1 1.5-.503c1.39 0 2.5 1.118 2.5 2.498v.013a2.495 2.495 0 0 1 1.5-.497c1.39 0 2.5 1.12 2.5 2.5V23.5zm-8.5 7.5c-3.76 0-5.99-2.051-7.752-5.017-3.912-6.582-6.714-9.594-5.627-10.687 1.111-1.117 3.821 1.302 5.88 3.502V7.505a1.499 1.499 0 1 1 3 0V18h1V6.49a1.501 1.501 0 0 1 3 0V17h1v-1.494a1.5 1.5 0 1 1 3 0V18h1v-.498a1.5 1.5 0 1 1 3 0V23.5a7.5 7.5 0 0 1-7.5 7.5z" fill="#929292" fill-rule="evenodd"/></svg>