<svg width="32" height="32" xmlns="http://www.w3.org/2000/svg"><path d="M11.55 7v7.367c-1.955-1.829-4.187-3.193-5.609-1.771-1.987 1.987 2.186 5.887 5.45 11.832C13.65 28.548 16.937 30 20.05 30a8.5 8.5 0 0 0 8.5-8.5v-5.986c0-1.38-1.11-2.5-2.5-2.5-.563 0-1.082.186-1.5.5v-8.01A2.496 2.496 0 0 0 22.05 3a2.49 2.49 0 0 0-1.656.627A2.493 2.493 0 0 0 18.05 2a2.499 2.499 0 0 0-2.343 1.626 2.505 2.505 0 0 0-4.157 1.877V6H4l3.25-3.25L6.5 2 2 6.5 6.5 11l.75-.75L4 7h7.55zm8.5 22c-3.76 0-5.99-2.051-7.753-5.017-3.912-6.582-6.713-9.594-5.626-10.687 1.11-1.117 3.82 1.302 5.879 3.502V5.505a1.499 1.499 0 1 1 3 0V16h1V4.49a1.501 1.501 0 0 1 3 0V15h1V5.503c0-.838.672-1.503 1.5-1.503.834 0 1.5.673 1.5 1.503V16h1v-.498a1.5 1.5 0 1 1 3 0V21.5a7.5 7.5 0 0 1-7.5 7.5z" fill="#929292" fill-rule="evenodd"/></svg>