<svg width="32" height="32" viewBox="0 0 32 32" xmlns="http://www.w3.org/2000/svg"><path d="M26.002 20h.988C29.2 20 31 18.21 31 16c0-1.9-1.334-3.497-3.121-3.901a5 5 0 0 0-9.234-3.556 4.502 4.502 0 0 0-6.493 2.794 7 7 0 0 0-9.14 7.075A5.006 5.006 0 0 0 0 23c0 2.761 2.232 5 5 5h17a5.003 5.003 0 0 0 4.002-8zm-.999-1h2.003A2.999 2.999 0 0 0 30 16a3 3 0 0 0-2.994-3h-.541a4 4 0 1 0-7.374-2.853 3.501 3.501 0 0 0-6.003 1.57 7.03 7.03 0 0 1 2.526 2.1A5.5 5.5 0 0 1 24 18.414c.358.157.695.354 1.003.586zM1 23c0 2.21 1.798 4 4.003 4h16.994A4.004 4.004 0 0 0 26 23a4.006 4.006 0 0 0-3.042-3.884 4.5 4.5 0 0 0-7.606-3.832 6 6 0 0 0-11.25 3.818A4.006 4.006 0 0 0 .999 23z" fill="#929292" fill-rule="evenodd"/></svg>