<svg width="32" height="32" viewBox="0 0 32 32" xmlns="http://www.w3.org/2000/svg"><path d="M22 22.747c2.436-1.923 4-4.902 4-8.247C26 8.701 21.299 4 15.5 4S5 8.701 5 14.5c0 3.345 1.564 6.324 4 8.247v-1.319a9.5 9.5 0 1 1 13 0v1.319zm0-4.503a7.5 7.5 0 1 0-13 0v-3.747A6.5 6.5 0 0 1 15.5 8c3.583 0 6.5 2.909 6.5 6.497v3.747zM15.5 10a4.5 4.5 0 0 0-4.5 4.505V31h9V14.505A4.506 4.506 0 0 0 15.5 10zm0 1a3.504 3.504 0 0 0-3.5 3.507V30h7V14.507A3.506 3.506 0 0 0 15.5 11zm0 1c-1.38 0-2.5 1.129-2.5 2.51V18h5v-3.49c0-1.386-1.11-2.51-2.5-2.51zm0 1c-.828 0-1.5.679-1.5 1.5V17h3v-2.5c0-.828-.666-1.5-1.5-1.5zM13 21v1h5v-1h-5zm0 2v1h5v-1h-5z" fill="#929292" fill-rule="evenodd"/></svg>