<svg width="32" height="32" viewBox="0 0 32 32" xmlns="http://www.w3.org/2000/svg"><path d="M16 18v-2.497c0-.27.224-.503.5-.503.268 0 .5.225.5.503V18h2.497c.27 0 .503.224.503.5 0 .268-.225.5-.503.5H17v2.497c0 .27-.224.503-.5.503a.507.507 0 0 1-.5-.503V19h-2.497a.507.507 0 0 1-.503-.5c0-.268.225-.5.503-.5H16zm-8.899-1.898A4.006 4.006 0 0 0 4 20c0 2.21 1.798 4 4.003 4h16.994A4.004 4.004 0 0 0 29 20a4.006 4.006 0 0 0-3.042-3.884 4.5 4.5 0 0 0-7.606-3.832 6 6 0 0 0-11.25 3.818H7.1zm19.898-.687C28.768 16.185 30 17.948 30 20c0 2.756-2.238 5-5 5H8c-2.768 0-5-2.239-5-5 0-2.05 1.24-3.818 3.012-4.588a7 7 0 0 1 12.602-4.594A5.5 5.5 0 0 1 27 15.414z" fill="#929292" fill-rule="evenodd"/></svg>