<svg width="32" height="32" xmlns="http://www.w3.org/2000/svg"><path d="M12.9 13.415c-.14.11-.28.218-.417.323l-.545-.838-.838.545.574.882c-.152.102-.3.195-.447.278l-.589-.905-.838.545.475.731A1.648 1.648 0 0 1 10 15H7.005A3.009 3.009 0 0 0 4 18.01 4 4 0 0 0 8.003 22H10v1h1v-1h2.003v1H14v-1h2v1h1v-1h2v1h1v-1h2v1h1v-1h2v1h1v-1h.996c1.107 0 2.014-.9 2.009-1.992 0 0 .274-9.008-2.005-9.008-2.28 0-2 1.971-5 1.971S19.5 11 18 11c-1.129 0-2.154.416-3.091.98l-.49-.753-.838.546.493.757c-.128.09-.253.182-.377.275l-.459-.705-.838.545.5.77zM27.862 15.6c.076.792.12 1.61.14 2.4H22c-1.917 0-2.5 0-4.52.264a1.695 1.695 0 0 0-.158-.488C17.084 17.3 16.634 17 16 17h-5.5c-.679 0-1.072-.262-1.303-.724A1.9 1.9 0 0 1 9.086 16H10c.286 0 .567-.046.853-.136l.44.677.839-.545-.359-.551a7.984 7.984 0 0 0 .446-.28l.375.576.838-.545-.402-.618.066-.05.352-.272.446.685.838-.545-.489-.751c.129-.096.255-.188.377-.275l.455.699.838-.546-.458-.704c.106-.063.21-.123.312-.179l.024.048s.61.92 1.105 1.416C18.08 15.286 19.61 16 21.5 16c1.841 0 3.516-.493 4.993-1.313a13.398 13.398 0 0 0 1.129-.737c.107.488.181 1.042.24 1.65zm.154 3.364a41.163 41.163 0 0 1-.01 1.014A1.012 1.012 0 0 1 26.995 21H8.003a3.002 3.002 0 0 1-2.24-1H13c1.41 0 2.391-.326 4.303-.656 2.197-.38 3.563-.38 4.697-.38h6.016zM5.169 19c-.11-.31-.169-.644-.169-.99C5 16.9 5.9 16 7.005 16h1.048c.091.342.204.632.25.724C8.697 17.512 9.429 18 10.5 18H16c.241 0 .353.075.428.224a.702.702 0 0 1 .072.276c-1.321.346-2.326.5-3.5.5H5.17zM18 12c.128 0 .157.018.344.239-.013-.016.252.305.346.41.777.877 1.738 1.322 3.31 1.322 1.522 0 2.406-.378 3.411-1.218l.218-.183c.534-.447.795-.57 1.371-.57-.018 0 .137.181.33.737.111.317.083.218.083.218s-.3.14-.318.153a9.32 9.32 0 0 1-1.088.705A9.198 9.198 0 0 1 21.5 15c-1.609 0-2.892-.599-3.896-1.604-.32-.319-.811-1.001-.811-1.001l-.122-.164c.45-.156.883-.231 1.329-.231z" fill="#929292" fill-rule="evenodd"/></svg>