<svg width="32" height="32" viewBox="0 0 32 32" xmlns="http://www.w3.org/2000/svg"><path d="M21 19h4v-7h-4.002A1.995 1.995 0 0 1 19 9.994V5H8.996A.993.993 0 0 0 8 6.003V19h4v2.002c0 1.104.896 1.998 1.997 1.998h5.006A2 2 0 0 0 21 21.002V19zm1 1h6v7H5v-7h6v1.5c0 1.38 1.115 2.5 2.496 2.5h6.008A2.492 2.492 0 0 0 22 21.5V20zm-18-.5V19l3-4.8V6.005C7 4.897 7.897 4 9.003 4H20l6 7v3.2l3 4.8v9H4v-8.5zm3-.5v-2.84L5.225 19H7zm19 0v-2.84L27.775 19H26zM20 5.5v4.491c0 .557.45 1.009.997 1.009H24.7L20 5.5z" fill="#929292" fill-rule="evenodd"/></svg>