<svg width="32" height="32" viewBox="0 0 32 32" xmlns="http://www.w3.org/2000/svg"><path d="M16 21.915v2.594a.5.5 0 001 0v-2.594a1.5 1.5 0 10-1 0zm-1 .585v1.998a1.5 1.5 0 103 0V22.5a2.5 2.5 0 10-3 0zM9 14v-3.5a7.5 7.5 0 1115 0V14c1.66.005 3 1.35 3 3.01v9.98A3.002 3.002 0 0123.991 30H9.01A3.008 3.008 0 016 26.99v-9.98A3.002 3.002 0 019 14zm1 0v-3.507A6.497 6.497 0 0116.5 4c3.583 0 6.5 2.907 6.5 6.493V14h-1v-3.49A5.509 5.509 0 0016.5 5a5.501 5.501 0 00-5.5 5.51V14h-1zm2 0v-3.5C12 8.01 14.015 6 16.5 6c2.48 0 4.5 2.015 4.5 4.5V14h-9zm-3.003 1A2.001 2.001 0 007 17.006v9.988A2 2 0 008.997 29h15.006A2.001 2.001 0 0026 26.994v-9.988A2 2 0 0024.003 15H8.997z" fill="#929292" fill-rule="evenodd"/></svg>