<svg width="32" height="32" viewBox="0 0 32 32" xmlns="http://www.w3.org/2000/svg"><path d="M26 15.022V9.007c0-.29-.12-.551-.313-.735L17.95 15l2.916 2.536A5.496 5.496 0 0 1 26 15.022zm-5.599 3.412l-3.2-2.783L14.5 18l-2.702-2.35L4.5 22h15.707A5.504 5.504 0 0 1 20 20.5c0-.73.142-1.428.401-2.066zM20.6 23H4.004A1.994 1.994 0 0 1 2 21.006V8.994A2 2 0 0 1 4.004 7h20.992C26.11 7 27 7.893 27 8.994v6.213A5.5 5.5 0 1 1 20.6 23zM3.315 8.274A1.006 1.006 0 0 0 3 9.007v11.986c0 .29.12.551.313.735L11.05 15 3.315 8.274zM14.5 16.7l10-8.7h-20l10 8.7zm11 8.3a4.5 4.5 0 1 0 0-9 4.5 4.5 0 0 0 0 9zM22 20v1h7v-1h-7z" fill="#929292" fill-rule="evenodd"/></svg>