<svg width="32" height="32" xmlns="http://www.w3.org/2000/svg"><path d="M26 17.538V9.007c0-.29-.12-.551-.313-.735L17.95 15l4.327 3.762L24.5 15l1.5 2.538zm-4.232 2.085l-4.566-3.972L14.5 18l-2.702-2.35L4.5 22h15.864l1.404-2.377zM19.773 23H4.003A1.994 1.994 0 0 1 2 21.006V8.994A2 2 0 0 1 4.004 7h20.992C26.11 7 27 7.893 27 8.994v10.237L31 26H18l1.773-3zM3.315 8.274A1.006 1.006 0 0 0 3 9.007v11.986c0 .29.12.551.313.735L11.05 15 3.315 8.274zM14.5 16.7l10-8.7h-20l10 8.7zm10 .3l4.75 8h-9.5l4.75-8zm-.5 2v3h1v-3h-1zm0 4v1h1v-1h-1z" fill="#929292" fill-rule="evenodd"/></svg>