<svg width="32" height="32" xmlns="http://www.w3.org/2000/svg"><path d="M28 21.5a8.5 8.5 0 0 1-8.5 8.5c-3.113 0-6.398-1.453-8.66-5.572-3.263-5.945-7.436-9.845-5.449-11.832 1.422-1.422 3.654-.058 5.609 1.77v-.868a2.505 2.505 0 0 1 4-2.002V4.503a2.5 2.5 0 1 1 5 0v8A2.485 2.485 0 0 1 21.5 12c1.08 0 1.992.676 2.344 1.625A2.492 2.492 0 0 1 25.5 13c1.39 0 2.5 1.121 2.5 2.504V21.5zM19.5 29c-3.76 0-5.99-2.051-7.753-5.017-3.912-6.582-6.713-9.594-5.626-10.687 1.11-1.117 3.82 1.302 5.879 3.502v-3.3A1.5 1.5 0 0 1 13.5 12c.834 0 1.5.67 1.5 1.497V16h1V4.49a1.501 1.501 0 0 1 3 0V15h1v-.503A1.5 1.5 0 0 1 21.5 13c.834 0 1.5.67 1.5 1.497V16h1v-.498a1.5 1.5 0 1 1 3 0V21.5a7.5 7.5 0 0 1-7.5 7.5z" fill="#929292" fill-rule="evenodd"/></svg>