<svg width="32" height="32" viewBox="0 0 32 32" xmlns="http://www.w3.org/2000/svg"><path d="M18.475 22.025V18.35l-8.302-8.375h3.302v-1h-5v5h1v-3.293l8 8v3.343a2.5 2.5 0 1 0 1 0zm-9-.843L7.707 22.95 7 22.243l1.768-1.768L7 18.707 7.707 18l1.768 1.768L11.243 18l.707.707-1.768 1.768 1.768 1.768-.707.707-1.768-1.768zm14-7l-1.768 1.768-.707-.707 1.768-1.768L21 11.707l.707-.707 1.768 1.768L25.243 11l.707.707-1.768 1.768 1.768 1.768-.707.707-1.768-1.768zm-5-7L16.707 8.95 16 8.243l1.768-1.768L16 4.707 16.707 4l1.768 1.768L20.243 4l.707.707-1.768 1.768 1.768 1.768-.707.707-1.768-1.768zm-.5 18.793a1.5 1.5 0 1 0 0-3 1.5 1.5 0 0 0 0 3z" fill="#929292" fill-rule="evenodd"/></svg>