<svg width="32" height="32" viewBox="0 0 32 32" xmlns="http://www.w3.org/2000/svg"><path d="M21 4h-3V3h-1v1h-3V3h-1v1h-3V3H9v1H7.997C6.894 4 6 4.89 6 6.004v20.992C6 28.103 6.89 29 7.997 29h15.006C24.106 29 25 28.11 25 26.996V6.004C25 4.897 24.11 4 23.003 4H22V3h-1v1zm0 1h-3v1h-1V5h-3v1h-1V5h-3v1H9V5H8c-.552 0-1 .439-1 1.003v20.994C7 27.55 7.455 28 8 28h15c.552 0 1-.439 1-1.003V6.003C24 5.45 23.545 5 23 5h-1v1h-1V5zm-7 7v1h8v-1h-8zm-5-1v3h3v-3H9zm1 1v1h1v-1h-1zm-1 4v3h3v-3H9zm1 1v1h1v-1h-1zm4 0v1h8v-1h-8zm-5 4v3h3v-3H9zm1 1v1h1v-1h-1zm4 0v1h8v-1h-8z" fill="#929292" fill-rule="evenodd"/></svg>