<svg width="32" height="32" viewBox="0 0 32 32" xmlns="http://www.w3.org/2000/svg"><path d="M22 4h-3V3h-1v1h-3V3h-1v1h-3V3h-1v1H8.997C7.894 4 7 4.89 7 6.004v20.992C7 28.103 7.89 29 8.997 29h15.006C25.106 29 26 28.11 26 26.996V6.004C26 4.897 25.11 4 24.003 4H23V3h-1v1zm0 1h-3v1h-1V5h-3v1h-1V5h-3v1h-1V5H9c-.552 0-1 .439-1 1.003v20.994C8 27.55 8.455 28 9 28h15c.552 0 1-.439 1-1.003V6.003C25 5.45 24.545 5 24 5h-1v1h-1V5zM10 9v1h13V9H10zm0 3v1h13v-1H10zm0 3v1h13v-1H10zm0 3v1h13v-1H10zm0 3v1h13v-1H10zm0 3v1h13v-1H10z" fill="#929292" fill-rule="evenodd"/></svg>