<svg viewBox="0 0 32 32" xmlns="http://www.w3.org/2000/svg"><path d="M26 6h-1V2.035a3.5 3.5 0 101 0V5h2v1h-2zm-13.5 4A4.5 4.5 0 008 14.505V31h9V14.505A4.506 4.506 0 0012.5 10zm0 1A3.504 3.504 0 009 14.507V30h7V14.507A3.506 3.506 0 0012.5 11zm0 1c-1.38 0-2.5 1.129-2.5 2.51V18h5v-3.49c0-1.386-1.11-2.51-2.5-2.51zm0 1c-.828 0-1.5.679-1.5 1.5V17h3v-2.5c0-.828-.666-1.5-1.5-1.5zM10 21v1h5v-1h-5zm0 2v1h5v-1h-5zm15.5-13a4.5 4.5 0 100-9 4.5 4.5 0 000 9zM18 20.981a8.5 8.5 0 10-11 0v-1.382a7.5 7.5 0 1111 0v1.382z" fill="#929292" fill-rule="evenodd"/></svg>