<svg width="32" height="32" viewBox="0 0 32 32" xmlns="http://www.w3.org/2000/svg"><path d="M26 25h2.006A2.998 2.998 0 0 0 31 22v-9c0-1.657-1.34-3-2.994-3H26V3c0-1.105-.89-2-1.997-2H8.997A1.994 1.994 0 0 0 7 3v7H4.994A2.998 2.998 0 0 0 2 13v9c0 1.657 1.34 3 2.994 3H7v4c0 1.105.89 2 1.997 2h15.006A1.994 1.994 0 0 0 26 29v-4zM7 24H5.007A2.005 2.005 0 0 1 3 21.997v-8.994C3 11.893 3.899 11 5.007 11h22.986c1.109 0 2.007.897 2.007 2.003v8.994c0 1.11-.899 2.003-2.007 2.003H26v-3H7v3zM9 2c-.552 0-1 .453-1 .997V10h17V2.997c0-.55-.455-.997-1-.997H9zM8 22v7.003c0 .55.455.997 1 .997h15c.552 0 1-.453 1-.997V22H8zm17-6a1 1 0 1 0 0-2 1 1 0 0 0 0 2z" fill="#929292" fill-rule="evenodd"/></svg>