<svg width="32" height="32" viewBox="0 0 32 32" xmlns="http://www.w3.org/2000/svg"><path d="M9 11.5C9 9.816 11.51 7 11.51 7S14 9.816 14 11.5c0 1.2-.813 2.5-2.49 2.5C9.835 14 9 12.8 9 11.5zm10 4c0-1.684 2.51-4.5 2.51-4.5S24 13.816 24 15.5c0 1.2-.813 2.5-2.49 2.5-1.676 0-2.51-1.2-2.51-2.5zm-7 8c0-1.684 2.51-4.5 2.51-4.5S17 21.816 17 23.5c0 1.2-.813 2.5-2.49 2.5-1.676 0-2.51-1.2-2.51-2.5zm8-8c0-1 1.51-2.9 1.51-2.9S23 14.5 23 15.5c0 1.2-.813 1.5-1.49 1.5-.676 0-1.51-.3-1.51-1.5zm-10-4c0-1 1.51-2.9 1.51-2.9S13 10.5 13 11.5c0 1.2-.813 1.5-1.49 1.5-.676 0-1.51-.3-1.51-1.5zm3 12c0-1 1.51-2.9 1.51-2.9S16 22.5 16 23.5c0 1.2-.813 1.5-1.49 1.5-.676 0-1.51-.3-1.51-1.5z" fill="#929292" fill-rule="evenodd"/></svg>