<svg width="32" height="32" viewBox="0 0 32 32" xmlns="http://www.w3.org/2000/svg"><path d="M12.973 19.32l2.32-2.32h-5.63a.48.48 0 0 1-.108.166l-1.42 1.421a.494.494 0 0 1-.705-.003.503.503 0 0 1-.003-.704l.88-.88h-.799A.504.504 0 0 1 7 16.5c0-.268.228-.5.508-.5h.753l-.834-.834a.503.503 0 0 1 .003-.703.494.494 0 0 1 .704-.004l1.42 1.421a.479.479 0 0 1 .088.12h5.65l-2.306-2.307a.48.48 0 0 1-.173.033h-2.01a.494.494 0 0 1-.495-.5c0-.268.222-.5.495-.5h1.216l-.823-.823a.5.5 0 1 1 .707-.707l.82.82v-1.209c0-.274.231-.495.5-.495.275 0 .5.215.5.495v2.01a.48.48 0 0 1-.031.168L16 15.293V9.656a.479.479 0 0 1-.129-.092l-1.42-1.42a.494.494 0 0 1 .003-.705c.19-.19.51-.196.703-.003L16 8.28v-.77c0-.282.224-.509.5-.509.268 0 .5.228.5.508v.8l.871-.872a.503.503 0 0 1 .704.003.494.494 0 0 1 .003.704l-1.42 1.42A.48.48 0 0 1 17 9.67v5.624l2.308-2.308a.479.479 0 0 1-.025-.154v-2.01c0-.279.224-.494.5-.494.268 0 .5.221.5.495v1.188l.814-.814a.5.5 0 0 1 .707.707l-.838.838h1.236c.273 0 .495.232.495.5 0 .276-.216.5-.495.5h-2.01a.48.48 0 0 1-.187-.039L17.707 16h5.679a.479.479 0 0 1 .087-.12l1.421-1.42a.494.494 0 0 1 .704.003c.19.19.197.51.003.703l-.833.834h.724c.281 0 .508.224.508.5a.51.51 0 0 1-.508.5h-.77l.88.88a.503.503 0 0 1-.004.704.494.494 0 0 1-.704.003l-1.42-1.42a.48.48 0 0 1-.109-.167h-5.658l2.324 2.324a.479.479 0 0 1 .147-.023h2.009c.28 0 .495.224.495.5 0 .269-.222.5-.495.5h-1.178l.795.796a.5.5 0 1 1-.707.707l-.829-.829v1.245a.503.503 0 0 1-.5.496.494.494 0 0 1-.5-.496v-2.009a.48.48 0 0 1 .041-.195L17 17.707v5.67a.48.48 0 0 1 .157.105l1.421 1.421a.494.494 0 0 1-.003.704.503.503 0 0 1-.704.003L17 24.74v.752a.504.504 0 0 1-.5.508.51.51 0 0 1-.5-.508v-.724l-.843.842a.503.503 0 0 1-.703-.003.494.494 0 0 1-.004-.704l1.421-1.42A.479.479 0 0 1 16 23.39v-5.683l-2.322 2.323a.48.48 0 0 1 .03.166v2.01c0 .279-.225.495-.5.495a.503.503 0 0 1-.5-.496V21l-.805.804a.5.5 0 0 1-.707-.707l.81-.81H10.79a.503.503 0 0 1-.496-.5c0-.277.216-.5.496-.5h2.009a.48.48 0 0 1 .175.033z" fill="#929292" fill-rule="evenodd"/></svg>