<svg width="32" height="32" xmlns="http://www.w3.org/2000/svg"><path d="M3 21v3c0 .552.446 1 .993 1h25.014c.548 0 .993-.455.993-1v-3h-4v-9h4V9c0-.552-.446-1-.993-1H3.993C3.445 8 3 8.455 3 9v3h4v9H3zm14-.027a4.5 4.5 0 0 0 0-8.946V8h-1v4.027a4.5 4.5 0 0 0 0 8.946V25h1v-4.027zm0-1.008a3.5 3.5 0 0 0 0-6.93v6.93zm-1-6.93a3.5 3.5 0 0 0 0 6.93v-6.93zM3.993 7C2.893 7 2 7.89 2 8.997v15.006A2 2 0 0 0 3.993 26h25.014c1.1 0 1.993-.89 1.993-1.997V8.997A2 2 0 0 0 29.007 7H3.993zM27 13v7h3v-7h-3zM3 13v7h3v-7H3z" fill="#929292" fill-rule="evenodd"/></svg>