<svg width="32" height="32" viewBox="0 0 32 32" xmlns="http://www.w3.org/2000/svg"><path d="M18.01 14.967c-.035.335.026.687.112 1h10.84c.032-.29.054-.644.024-1H18.01zm.599-1c.118-.076.257-.142.42-.197 1.789-.604 3.632-.767 4.638-.795 1.006-.027 3.864-.012 4.641.547.169.122.299.274.398.445H18.609zm-5.12 3a5.704 5.704 0 0 1-.493 1H3.468c-.109-.3-.203-.66-.273-1H13.49zm.353-1c.087-.313.146-.665.108-1H3.023c-.031.355-.01.71.021 1h10.798zm-1.655 3c-.05.044-.101.083-.152.119-.66.465-2.108.835-3.93.835-1.057 0-1.916-.05-2.761-.24-.604-.135-.991-.26-1.345-.714h8.188zm1.118-5a1.928 1.928 0 0 0-.367-.164c-1.782-.596-3.617-.757-4.62-.784-1.001-.027-3.848-.012-4.621.54a1.388 1.388 0 0 0-.378.408h9.986zm15.24 4c.107-.302.2-.66.268-1H18.472c.1.285.272.647.486 1h9.587zm-.515 1c-.362.487-.755.616-1.376.757-.849.193-1.71.243-2.773.243-1.829 0-3.284-.375-3.946-.846a2.112 2.112 0 0 1-.19-.154h8.285zm-12.971-5.992c-4.367-1.203-10.525-1.147-13.693-.613-.382.064-.442 1.823-.102 1.884.626.253.893.885.893.885s.187.561.73 2.841c.543 2.28 1.837 2.554 1.837 2.554s1.584.392 3.412.392c1.827 0 2.92-.083 4.09-.669 1.17-.585 1.682-2.216 1.682-2.216s.59-1.404.996-2.73c.127-.416 2.065-.416 2.192 0 .406 1.326.996 2.73.996 2.73s.511 1.63 1.681 2.216c1.17.586 2.264.669 4.091.669 1.828 0 3.412-.392 3.412-.392s1.294-.274 1.837-2.554c.543-2.28.73-2.84.73-2.84s.267-.633.893-.886c.34-.061.28-1.82-.102-1.884-3.168-.534-9.326-.59-13.693.613-.296.068-1.586.068-1.882 0z" fill="#929292" fill-rule="evenodd"/></svg>