<svg width="32" height="32" viewBox="0 0 32 32" xmlns="http://www.w3.org/2000/svg"><path d="M9 23.771l-1 1V25h-.114H8v3H7v-2.229l-1.293 1.293L5 26.357 6.357 25H4v-1h3.357l1-1H6v-1h3.357l5.321-5.322L14 16l3-1-1 3-.614-.614L10 22.77V26H9v-2.229zM7.779 21A10.949 10.949 0 0 1 6 15C6 8.925 10.925 4 17 4s11 4.925 11 11-4.925 11-11 11c-2.214 0-4.274-.654-6-1.779V23.15l.085-.085A9.955 9.955 0 0 0 17 25c5.523 0 10-4.477 10-10S22.523 5 17 5 7 9.477 7 15c0 2.227.728 4.285 1.96 5.947L8.907 21H7.779zm6.224-5.858a3 3 0 1 1 2.855 2.855l.282-.988.015-.015a2 2 0 1 0-2.15-2.138l-1.002.286zm-2.888 3.65a7 7 0 1 1 2.127 2.115l.728-.727a6 6 0 1 0-2.129-2.114l-.726.726z" fill="#929292" fill-rule="evenodd"/></svg>