<svg width="32" height="32" viewBox="0 0 32 32" xmlns="http://www.w3.org/2000/svg"><path d="M24.294 8.044A11.459 11.459 0 0016.5 5a11.459 11.459 0 00-7.794 3.044A12.455 12.455 0 0112 16.5c0 3.261-1.249 6.23-3.294 8.456A11.459 11.459 0 0016.5 28c3.007 0 5.745-1.154 7.794-3.044A12.455 12.455 0 0121 16.5c0-3.261 1.249-6.23 3.294-8.456zm.706.71c1.864 2.044 3 4.762 3 7.746 0 2.984-1.136 5.702-3 7.746a11.458 11.458 0 01-3-7.746c0-2.984 1.136-5.702 3-7.746zm-17 0A11.458 11.458 0 005 16.5c0 2.984 1.136 5.702 3 7.746 1.864-2.044 3-4.762 3-7.746 0-2.984-1.136-5.702-3-7.746zM16.5 29C23.404 29 29 23.404 29 16.5S23.404 4 16.5 4 4 9.596 4 16.5 9.596 29 16.5 29z" fill="#929292" fill-rule="evenodd"/></svg>