<svg width="32" height="32" viewBox="0 0 32 32" xmlns="http://www.w3.org/2000/svg"><path d="M21.124 6v-.497A2.496 2.496 0 0 0 18.624 3a2.49 2.49 0 0 0-1.656.627A2.493 2.493 0 0 0 14.624 2a2.499 2.499 0 0 0-2.342 1.626 2.505 2.505 0 0 0-4.157 1.877v8.864c-1.956-1.829-4.188-3.193-5.61-1.771-1.987 1.987 2.187 5.887 5.45 11.832 2.261 4.12 5.547 5.572 8.66 5.572a8.5 8.5 0 0 0 8.5-8.5v-5.986c0-1.38-1.11-2.5-2.5-2.5-.563 0-1.083.186-1.5.5V7h7.05l-3.25 3.25.75.75 4.5-4.5-4.5-4.5-.75.75L28.174 6h-7.05zm-4.5 23c-3.76 0-5.99-2.051-7.752-5.017-3.912-6.582-6.714-9.594-5.627-10.687 1.111-1.117 3.821 1.302 5.88 3.502V5.505a1.499 1.499 0 1 1 3 0V16h1V4.49a1.501 1.501 0 0 1 3 0V15h1V5.503c0-.838.671-1.503 1.5-1.503.834 0 1.5.673 1.5 1.503V16h1v-.498a1.5 1.5 0 1 1 3 0V21.5a7.5 7.5 0 0 1-7.5 7.5z" fill="#929292" fill-rule="evenodd"/></svg>