<svg width="32" height="32" viewBox="0 0 32 32" xmlns="http://www.w3.org/2000/svg"><path d="M19 15V4.49C19 3.668 18.334 3 17.5 3c-.828 0-1.5.676-1.5 1.49V16h-1V5.505a1.499 1.499 0 1 0-3 0v11.293c-2.058-2.2-4.768-4.619-5.879-3.502-1.087 1.093 1.714 4.105 5.626 10.687C13.51 26.95 15.74 29 19.5 29a7.5 7.5 0 0 0 7.5-7.5v-5.998a1.5 1.5 0 0 0-3 0V16h-1V5.503C23 4.673 22.334 4 21.5 4c-.828 0-1.5.665-1.5 1.503V24.05l3.25-3.25.75.75-4.5 4.5-4.5-4.5.75-.75L19 24.05V15zm9 6.5a8.5 8.5 0 0 1-8.5 8.5c-3.113 0-6.398-1.453-8.66-5.572-3.263-5.945-7.436-9.845-5.449-11.832 1.422-1.422 3.654-.058 5.609 1.77V5.504a2.505 2.505 0 0 1 4.157-1.877A2.499 2.499 0 0 1 17.5 2c1.08 0 1.991.677 2.344 1.627A2.49 2.49 0 0 1 21.5 3C22.89 3 24 4.12 24 5.503v8.012c.418-.315.937-.5 1.5-.5 1.39 0 2.5 1.119 2.5 2.5V21.5z" fill="#929292" fill-rule="evenodd"/></svg>