<svg width="32" height="32" viewBox="0 0 32 32" xmlns="http://www.w3.org/2000/svg"><path d="M19.249 30h4.253C24.882 30 26 28.89 26 27.5c0-.563-.187-1.082-.502-1.5a2.498 2.498 0 0 0 1.874-4.157A2.493 2.493 0 0 0 29 19.5c0-.636-.237-1.216-.628-1.657a2.5 2.5 0 0 0-.88-4.843H21.5c1.05-5.017.546-11-3.5-11s-1.934 4.788-3.5 7.763C12.934 12.738 10 13 10 13H3.995A1.995 1.995 0 0 0 2 14.992v11.016C2 27.108 2.887 28 3.998 28H10l6 2h3.249zM10.5 14s3.305-.724 4.871-3.699C16.937 7.326 15.13 3 18 3c3.151 0 3.5 5.5 2.3 11h7.207c.83 0 1.493.672 1.493 1.5 0 .834-.668 1.5-1.493 1.5H24v1h2.507c.83 0 1.493.672 1.493 1.5 0 .834-.668 1.5-1.493 1.5H23v1h2.507c.83 0 1.493.672 1.493 1.5 0 .834-.668 1.5-1.493 1.5H22v1h1.498a1.5 1.5 0 1 1 0 3H16l-6-2H4.003A.994.994 0 0 1 3 26.001V15A1 1 0 0 1 4 14h6.5z" fill="#929292" fill-rule="evenodd"/></svg>