<svg width="32" height="32" viewBox="0 0 32 32" xmlns="http://www.w3.org/2000/svg"><path d="M11 11.671a4.5 4.5 0 1 0-4.69 7.17 17.243 17.243 0 0 1-.648-1.362 3.5 3.5 0 1 1 5.011-4.458c.11.07.22.141.327.215V11.67zm7-2.342a4.5 4.5 0 1 0-7 0V6.49A3.494 3.494 0 0 1 14.5 3C16.43 3 18 4.563 18 6.491V9.33zM20.499 30C24.642 30 28 26.415 28 22.5c0 0 0 2.313 0 0v-5.998a1.5 1.5 0 0 0-3 0V17h-1v-2.494a1.5 1.5 0 1 0-3 0V16h-1v-2.494a1.5 1.5 0 1 0-3 0V17h-1V6.505a1.499 1.499 0 1 0-3 0V17.8c-2.058-2.2-4.768-4.62-5.879-3.504-1.087 1.093 1.714 4.105 5.626 10.687C14.51 27.95 16.74 30 20.5 30zM29 22.5a8.5 8.5 0 0 1-8.5 8.5c-3.113 0-6.398-1.453-8.66-5.572-3.263-5.945-7.436-9.845-5.449-11.832 1.422-1.422 3.654-.058 5.609 1.77V6.509a2.5 2.5 0 1 1 5 0v4.99A2.493 2.493 0 0 1 18.5 11c1.083 0 1.995.677 2.346 1.628.44-.39 1.02-.628 1.654-.628 1.39 0 2.5 1.118 2.5 2.498v.013a2.495 2.495 0 0 1 1.5-.497c1.39 0 2.5 1.12 2.5 2.5V22.5z" fill="#929292" fill-rule="evenodd"/></svg>