<svg width="32" height="32" xmlns="http://www.w3.org/2000/svg"><path d="M19.249 2h4.253C24.882 2 26 3.11 26 4.5c0 .563-.187 1.082-.502 1.5a2.498 2.498 0 0 1 1.874 4.157A2.493 2.493 0 0 1 29 12.5c0 .636-.237 1.216-.628 1.657a2.5 2.5 0 0 1-.88 4.843H21.5c1.05 5.017.546 11-3.5 11s-1.934-4.788-3.5-7.763C12.934 19.262 10 19 10 19H3.995A1.995 1.995 0 0 1 2 17.008V5.992C2 4.892 2.887 4 3.998 4H10l6-2h3.249zM10.5 18s3.305.724 4.871 3.699C16.937 24.674 15.13 29 18 29c3.151 0 3.5-5.5 2.3-11h7.207c.83 0 1.493-.672 1.493-1.5 0-.834-.668-1.5-1.493-1.5H24v-1h2.507c.83 0 1.493-.672 1.493-1.5 0-.834-.668-1.5-1.493-1.5H23v-1h2.507C26.337 10 27 9.328 27 8.5c0-.834-.668-1.5-1.493-1.5H22V6h1.498a1.5 1.5 0 1 0 0-3H16l-6 2H4.003A.994.994 0 0 0 3 5.999V17A1 1 0 0 0 4 18h6.5z" fill="#929292" fill-rule="evenodd"/></svg>