<svg width="32" height="32" viewBox="0 0 32 32" xmlns="http://www.w3.org/2000/svg"><path d="M10.5 13A4.498 4.498 0 0 0 6 17.496V31h9V17.496A4.501 4.501 0 0 0 10.5 13zm0 1A3.496 3.496 0 0 0 7 17.491V30h7V17.491A3.498 3.498 0 0 0 10.5 14zm0 1C9.12 15 8 16.129 8 17.51V21h5v-3.49c0-1.386-1.11-2.51-2.5-2.51zm0 1c-.828 0-1.5.679-1.5 1.5V20h3v-2.5c0-.828-.666-1.5-1.5-1.5zM8 24v1h5v-1H8zm0 2v1h5v-1H8zm13.5-16a4.5 4.5 0 0 0-4.5 4.505V31h9V14.505A4.506 4.506 0 0 0 21.5 10zm0 1a3.504 3.504 0 0 0-3.5 3.507V30h7V14.507A3.506 3.506 0 0 0 21.5 11zm0 1c-1.38 0-2.5 1.129-2.5 2.51V18h5v-3.49c0-1.386-1.11-2.51-2.5-2.51zm0 1c-.828 0-1.5.679-1.5 1.5V17h3v-2.5c0-.828-.666-1.5-1.5-1.5zM19 21v1h5v-1h-5zm0 2v1h5v-1h-5zm9-4.756a7.5 7.5 0 0 0-13.283-6.948A7.5 7.5 0 0 0 4 21.245v-3.747a6.5 6.5 0 0 1 11.176-4.51A6.503 6.503 0 0 1 21.5 8c3.583 0 6.5 2.909 6.5 6.497v3.747zm0 3.184A9.5 9.5 0 1 0 14.002 8.666 9.475 9.475 0 0 0 10.5 8 9.5 9.5 0 0 0 4 24.428v1.319A10.481 10.481 0 0 1 0 17.5C0 11.701 4.701 7 10.5 7c1.11 0 2.178.172 3.182.49A10.474 10.474 0 0 1 21.5 4C27.299 4 32 8.701 32 14.5c0 3.345-1.564 6.324-4 8.247v-1.319z" fill="#929292" fill-rule="evenodd"/></svg>