<svg width="32" height="32" viewBox="0 0 32 32" xmlns="http://www.w3.org/2000/svg"><path d="M10.5 13A4.498 4.498 0 0 0 6 17.496V31h9V17.496A4.501 4.501 0 0 0 10.5 13zm0 1A3.496 3.496 0 0 0 7 17.491V30h7V17.491A3.498 3.498 0 0 0 10.5 14zm0 1C9.12 15 8 16.129 8 17.51V21h5v-3.49c0-1.386-1.11-2.51-2.5-2.51zm0 1c-.828 0-1.5.679-1.5 1.5V20h3v-2.5c0-.828-.666-1.5-1.5-1.5zM8 24v1h5v-1H8zm0 2v1h5v-1H8zm13.5-16a4.5 4.5 0 0 0-4.5 4.505V31h9V14.505A4.506 4.506 0 0 0 21.5 10zm0 1a3.504 3.504 0 0 0-3.5 3.507V30h7V14.507A3.506 3.506 0 0 0 21.5 11zm0 1c-1.38 0-2.5 1.129-2.5 2.51V18h5v-3.49c0-1.386-1.11-2.51-2.5-2.51zm0 1c-.828 0-1.5.679-1.5 1.5V17h3v-2.5c0-.828-.666-1.5-1.5-1.5zM19 21v1h5v-1h-5zm0 2v1h5v-1h-5zm8-3.4a7.5 7.5 0 1 0-12.283-8.302A7.5 7.5 0 0 0 5 22.599v1.381a8.5 8.5 0 0 1 9.341-14.066A8.5 8.5 0 1 1 27 20.981v-1.382z" fill="#929292" fill-rule="evenodd"/></svg>