<svg width="32" height="32" viewBox="0 0 32 32" xmlns="http://www.w3.org/2000/svg"><path d="M10 13.027c-2.25.249-4 2.154-4 4.469V31h9V17.496a4.502 4.502 0 0 0-4-4.468V6.95l3.25 3.25.75-.75-4.5-4.5L6 9.45l.75.75L10 6.95v6.077zm11-3c-2.25.25-4 2.156-4 4.478V31h9V14.505a4.508 4.508 0 0 0-4-4.477V3.95l3.25 3.25.75-.75-4.5-4.5-4.5 4.5.75.75L21 3.95v6.077zM10.5 14A3.496 3.496 0 0 0 7 17.491V30h7V17.491A3.498 3.498 0 0 0 10.5 14zm0 1C9.12 15 8 16.129 8 17.51V21h5v-3.49c0-1.386-1.11-2.51-2.5-2.51zm0 1c-.828 0-1.5.679-1.5 1.5V20h3v-2.5c0-.828-.666-1.5-1.5-1.5zM8 24v1h5v-1H8zm0 2v1h5v-1H8zm13.5-15a3.504 3.504 0 0 0-3.5 3.507V30h7V14.507A3.506 3.506 0 0 0 21.5 11zm0 1c-1.38 0-2.5 1.129-2.5 2.51V18h5v-3.49c0-1.386-1.11-2.51-2.5-2.51zm0 1c-.828 0-1.5.679-1.5 1.5V17h3v-2.5c0-.828-.666-1.5-1.5-1.5zM19 21v1h5v-1h-5zm0 2v1h5v-1h-5z" fill="#929292" fill-rule="evenodd"/></svg>