<svg width="32" height="32" viewBox="0 0 32 32" xmlns="http://www.w3.org/2000/svg"><path d="M10 23H6V9.496a4.501 4.501 0 0 1 9 0V23h-4v6.05l3.25-3.25.75.75-4.5 4.5-4.5-4.5.75-.75L10 29.05V23zm11 0h-4V6.505A4.5 4.5 0 0 1 21.5 2C23.98 2 26 4.017 26 6.505V23h-4v6.05l3.25-3.25.75.75-4.5 4.5-4.5-4.5.75-.75L21 29.05V23zM10.5 6A3.496 3.496 0 0 0 7 9.491V22h7V9.491A3.498 3.498 0 0 0 10.5 6zm0 1C9.12 7 8 8.129 8 9.51V13h5V9.51C13 8.124 11.89 7 10.5 7zm0 1C9.672 8 9 8.679 9 9.5V12h3V9.5c0-.828-.666-1.5-1.5-1.5zM8 16v1h5v-1H8zm0 2v1h5v-1H8zM21.5 3A3.504 3.504 0 0 0 18 6.507V22h7V6.507A3.506 3.506 0 0 0 21.5 3zm0 1C20.12 4 19 5.129 19 6.51V10h5V6.51C24 5.124 22.89 4 21.5 4zm0 1c-.828 0-1.5.679-1.5 1.5V9h3V6.5c0-.828-.666-1.5-1.5-1.5zM19 13v1h5v-1h-5zm0 2v1h5v-1h-5z" fill="#929292" fill-rule="evenodd"/></svg>