<svg width="32" height="32" xmlns="http://www.w3.org/2000/svg"><path d="M20 7h7.05l-3.25 3.25.75.75 4.5-4.5-4.5-4.5-.75.75L27.05 6H20v-.497A2.496 2.496 0 0 0 17.5 3a2.499 2.499 0 0 0-2.343 1.627A2.5 2.5 0 0 0 11 6.509v8.858c-1.955-1.829-4.187-3.193-5.609-1.771-1.987 1.987 2.186 5.887 5.45 11.832C13.1 29.548 16.387 31 19.5 31a8.5 8.5 0 0 0 8.5-8.5v-5.986c0-1.38-1.11-2.5-2.5-2.5-.563 0-1.082.185-1.5.497v-.013C24 13.118 22.89 12 21.5 12c-.563 0-1.082.187-1.5.502V7zm-.5 23c-3.76 0-5.99-2.051-7.753-5.017-3.912-6.582-6.713-9.594-5.626-10.687 1.11-1.117 3.82 1.302 5.879 3.502V6.505a1.499 1.499 0 1 1 3 0V17h1V5.49a1.501 1.501 0 0 1 3 0V16h1v-1.494a1.5 1.5 0 1 1 3 0V17h1v-.498a1.5 1.5 0 1 1 3 0V22.5a7.5 7.5 0 0 1-7.5 7.5z" fill="#929292" fill-rule="evenodd"/></svg>