<svg width="32" height="32" viewBox="0 0 32 32" xmlns="http://www.w3.org/2000/svg"><path d="M16.5 29C23.404 29 29 23.404 29 16.5S23.404 4 16.5 4 4 9.596 4 16.5 9.596 29 16.5 29zm0-1C22.851 28 28 22.851 28 16.5S22.851 5 16.5 5 5 10.149 5 16.5 10.149 28 16.5 28zm-.003-6C13.5 22 12 23 12 23s1-3 4.5-3 4.5 3 4.5 3-1.506-1-4.503-1zm5.064-5.44l-2.829-2.828 2.829-2.828.707.707-2.122 2.121 2.122 2.122-.707.707zm-10.122-5.656l2.829 2.828-2.829 2.829-.707-.707 2.122-2.122-2.122-2.121.707-.707z" fill="#929292" fill-rule="evenodd"/></svg>