<svg xmlns="http://www.w3.org/2000/svg" width="20" height="20"><path d="M16.32 17.113A9.436 9.436 0 0 0 19 10.5c0-2.37-.862-4.608-2.438-6.355l.688-.688.647.646a.497.497 0 0 0 .706 0 .5.5 0 0 0 0-.707l-2-2a.5.5 0 0 0-.707.707l.647.646-.688.688C14.108 1.861 11.87.999 9.5.999s-4.608.862-6.355 2.438l-.688-.688.646-.646a.5.5 0 0 0-.707-.707l-2 2a.5.5 0 0 0 .708.707l.646-.646.688.688A9.431 9.431 0 0 0 0 10.5c0 2.489.951 4.831 2.68 6.613L.646 19.147a.5.5 0 0 0 .708.707l2.06-2.059c1.705 1.428 3.836 2.206 6.087 2.206s4.382-.778 6.087-2.206l2.059 2.059a.5.5 0 1 0 .707-.707l-2.034-2.034zM1 10.5C1 5.813 4.813 2 9.5 2S18 5.813 18 10.5c0 4.687-3.813 8.5-8.5 8.5S1 15.187 1 10.5z"/><path d="M15.129 7.25a.5.5 0 0 0-.683-.183l-4.92 2.841-3.835-2.685a.5.5 0 0 0-.573.819l4.096 2.868.002.002a.401.401 0 0 0 .027.017l.006.004.027.015.006.003.031.014.019.007.013.005.021.006.012.003.022.005a.05.05 0 0 0 .012.002l.021.003.015.002.018.002.027.001H9.5a.525.525 0 0 0 .056-.003h.003a.341.341 0 0 0 .054-.01l.005-.001a.413.413 0 0 0 .104-.038l.011-.006.016-.008 5.196-3a.5.5 0 0 0 .183-.683z"/></svg>