<svg xmlns="http://www.w3.org/2000/svg" viewBox="0 0 20 20"><path d="M16.006 8.012c-.061 0-.122.001-.183.004a3 3 0 00-5.562-2.242A6.007 6.007 0 006 3.999c-3.308 0-6 2.692-6 6s2.692 6 6 6h10.006c2.202 0 3.994-1.792 3.994-3.994s-1.792-3.994-3.994-3.994zm0 6.988H6c-2.757 0-5-2.243-5-5s2.243-5 5-5a5.008 5.008 0 014.091 2.123l.005.007a.5.5 0 00.909-.256 1.99 1.99 0 01.386-1.061 2.002 2.002 0 113.061 2.563.5.5 0 00.533.814 2.997 2.997 0 014.017 2.815 2.997 2.997 0 01-2.994 2.994z"/><path d="M6.404 11.959A2.002 2.002 0 014 10v-.293l.146.146a.498.498 0 00.708 0 .5.5 0 000-.707l-1-1a.5.5 0 00-.707 0l-1 1a.5.5 0 00.707.707L3 9.707V10a3.004 3.004 0 003.604 2.939.5.5 0 00-.2-.98zM9.146 10.146L9 10.292v-.293A3.004 3.004 0 005.396 7.06a.5.5 0 00.2.98A2.002 2.002 0 018 9.999v.293l-.146-.146a.5.5 0 00-.707.707l1 1a.498.498 0 00.708 0l1-1a.5.5 0 00-.707-.707z"/></svg>