<svg xmlns="http://www.w3.org/2000/svg" width="20" height="20"><path d="M16 16H6.5a.5.5 0 0 1 0-1H16c1.654 0 3-1.346 3-3a3.004 3.004 0 0 0-4-2.83.5.5 0 0 1-.533-.812A2.002 2.002 0 0 0 13 4.999a2.001 2.001 0 0 0-1.996 1.875.5.5 0 0 1-.908.256A5.012 5.012 0 0 0 6 4.999a5.006 5.006 0 0 0-4.98 5.455.5.5 0 0 1-.996.09A6.007 6.007 0 0 1 6 3.999a6.01 6.01 0 0 1 4.261 1.776A3.007 3.007 0 0 1 13 3.999a3.004 3.004 0 0 1 2.828 4.004A4.004 4.004 0 0 1 20 11.999c0 2.206-1.794 4-4 4z"/><path d="M3.5 15.5a.502.502 0 0 1-.354-.146l-2-2a.5.5 0 0 1 .707-.707l1.646 1.646 4.646-4.646a.5.5 0 0 1 .707.707l-5 5a.498.498 0 0 1-.354.146z"/></svg>