<svg xmlns="http://www.w3.org/2000/svg" viewBox="0 0 20 20"><path d="M17.071 2.929C15.182 1.04 12.671 0 10 0S4.818 1.04 2.929 2.929C1.04 4.818 0 7.329 0 10s1.04 5.182 2.929 7.071C4.818 18.96 7.329 20 10 20s5.182-1.04 7.071-2.929C18.96 15.182 20 12.671 20 10s-1.04-5.182-2.929-7.071zm1.326 3.832c-.195-.351-.685-.518-1.325-.736-.687-.234-.93-.94-1.211-1.758-.244-.71-.496-1.443-1.095-1.899a9.052 9.052 0 013.631 4.393zm-2.806 3.43c.076.677.154 1.378-.687 2.322-.227.255-.36.61-.501.986-.326.871-.634 1.694-1.946 1.706-.037-.044-.141-.21-.234-.733-.085-.482-.134-1.106-.187-1.765-.08-1.012-.171-2.16-.421-3.112-.32-1.217-.857-1.936-1.641-2.198a3.328 3.328 0 00-1.068-.17c-.278 0-.53.03-.752.056-.173.02-.337.04-.475.04-.234 0-.499 0-.826-.748C6.384 5.5 6.73 3.777 8.107 2.868c.755-.498 1.276-.711 1.742-.711.372 0 .773.129 1.342.433a3.19 3.19 0 001.583.404c.152 0 .29-.008.423-.016.112-.007.217-.013.315-.013.22 0 .398.029.607.171.385.263.585.844.796 1.458.32.932.683 1.988 1.835 2.38.155.053.421.143.61.222-.163.168-.435.411-.702.649-.172.154-.367.328-.583.525-.624.569-.55 1.235-.484 1.822zm-14.59-.268c.108.019.224.042.344.067.562.12.825.228.94.289-.053.103-.16.255-.231.355-.247.351-.555.788-.438 1.269.079.325.012.723-.103 1.091A8.96 8.96 0 011 9.998l.001-.077zM10 19a9.009 9.009 0 01-7.93-4.747c.262-.499.748-1.603.521-2.569.016-.097.181-.331.28-.472.271-.385.608-.863.358-1.37-.175-.356-.644-.596-1.566-.804a13.01 13.01 0 00-.599-.118C1.6 4.465 5.402 1.001 9.999 1.001c1.578 0 3.062.409 4.352 1.125a2.033 2.033 0 00-.84-.161c-.127 0-.253.007-.375.015a6.222 6.222 0 01-.364.014c-.284 0-.638-.034-1.112-.287-.724-.385-1.266-.55-1.812-.55-.676 0-1.362.262-2.293.876a4.266 4.266 0 00-1.707 2.288c-.289.921-.258 1.864.087 2.654.407.932.944 1.348 1.742 1.348.197 0 .389-.023.592-.047.205-.024.416-.049.635-.049.271 0 .51.038.751.118.439.147.763.639.991 1.504s.314 1.966.391 2.936c.064.81.124 1.574.257 2.151.081.35.185.616.32.813.201.294.489.456.811.456.884 0 1.59-.285 2.099-.847.423-.467.639-1.044.813-1.508.102-.273.208-.556.311-.672 1.137-1.277 1.02-2.329.934-3.098-.063-.564-.064-.764.164-.972.212-.193.405-.366.575-.518.363-.324.625-.558.809-.758.126-.138.422-.461.34-.865l-.002-.011c.343.951.53 1.976.53 3.044 0 4.963-4.037 9-9 9z"/></svg>