<svg xmlns="http://www.w3.org/2000/svg" viewBox="0 0 20 20"><path d="M17.071 2.929A9.934 9.934 0 0010 0a9.996 9.996 0 00-7.853 3.807V2.5a.5.5 0 00-1 0v2.972a.5.5 0 00.661.474l2.853-.972a.5.5 0 00-.322-.946l-1.49.508a8.998 8.998 0 017.152-3.534c4.963 0 9 4.037 9 9s-4.037 9-9 9a8.995 8.995 0 01-7.928-4.737.5.5 0 10-.88.474 9.997 9.997 0 008.809 5.263c2.671 0 5.182-1.04 7.071-2.929s2.929-4.4 2.929-7.071a9.934 9.934 0 00-2.929-7.071z"/><path d="M10 10.5a.5.5 0 01-.243-.063l-4.5-2.5a.5.5 0 01.486-.874l4.24 2.355 5.249-3.34a.5.5 0 11.537.843l-5.5 3.5a.5.5 0 01-.268.078z"/></svg>