<svg xmlns="http://www.w3.org/2000/svg" viewBox="0 0 20 20"><path d="M8 17c0-.412.125-.794.339-1.113A2.003 2.003 0 017 14c0-.412.125-.794.339-1.113A2.003 2.003 0 016 11c0-.364.098-.706.269-1H3c-1.103 0-2-.897-2-2s.897-2 2-2h7.373L8.04 4.654a1.947 1.947 0 01-.953-1.199 1.866 1.866 0 01.202-1.462c.544-.907 1.774-1.253 2.742-.77.061.03 1.368.668 5.35 2.66 1.875.938 3.216 1.967 3.984 3.059.603.857.634 1.449.634 1.559v5c0 .848-.245 1.632-.73 2.331-.468.676-1.152 1.259-2.033 1.734-1.743.939-4.246 1.435-7.237 1.435-1.103 0-2-.897-2-2zm8.763-.315C17.784 16.136 19 15.137 19 13.5V8.51c-.003-.039-.05-.46-.525-1.095-.474-.633-1.472-1.605-3.54-2.638-4.054-2.027-5.331-2.65-5.343-2.656l-.004-.002c-.503-.251-1.162-.073-1.439.389a.876.876 0 00-.095.685.956.956 0 00.472.587l.01.006 2.705 1.561c.583.319.828.678.729 1.067-.099.39-.489.587-1.157.587H3.001c-.551 0-1 .449-1 1s.449 1 1 1h6.5a.5.5 0 010 1h-1.5c-.551 0-1 .449-1 1s.449 1 1 1h1.5a.5.5 0 010 1h-.5c-.551 0-1 .449-1 1s.449 1 1 1h1.5a.5.5 0 010 1h-.5c-.551 0-1 .449-1 1s.449 1 1 1c2.826 0 5.165-.455 6.763-1.315z"/></svg>