<svg xmlns="http://www.w3.org/2000/svg" viewBox="0 0 20 20"><path d="M9.5 20c-2.538 0-4.923-.988-6.718-2.782S0 13.038 0 10.501c0-2.538.988-4.923 2.782-6.718S6.962 1 9.5 1c2.538 0 4.923.988 6.718 2.783S19 7.963 19 10.501s-.988 4.923-2.782 6.717A9.438 9.438 0 019.5 20zm0-18C4.813 2 1 5.813 1 10.5S4.813 19 9.5 19s8.5-3.813 8.5-8.5S14.187 2 9.5 2z"/><path d="M6.5 8C5.673 8 5 7.327 5 6.5S5.673 5 6.5 5 8 5.673 8 6.5 7.327 8 6.5 8zm0-2a.5.5 0 100 1 .5.5 0 000-1zM12.5 8c-.827 0-1.5-.673-1.5-1.5S11.673 5 12.5 5s1.5.673 1.5 1.5S13.327 8 12.5 8zm0-2a.5.5 0 100 1 .5.5 0 000-1zM9.5 17A6.508 6.508 0 013 10.5a.5.5 0 011 0C4 13.533 6.467 16 9.5 16s5.5-2.467 5.5-5.5a.5.5 0 011 0c0 3.584-2.916 6.5-6.5 6.5z"/></svg>