<svg xmlns="http://www.w3.org/2000/svg" viewBox="0 0 20 20"><path d="M5.499 8.333a.5.5 0 01-.082-.993l1.749-.291.386-.772a.5.5 0 01.895.447l-.5 1a.503.503 0 01-.365.27l-2 .333a.473.473 0 01-.083.007zM2.5 10a.502.502 0 01-.354-.146l-1-1a.501.501 0 01.271-.847l2-.333a.5.5 0 11.164.986l-1.042.174.313.313a.5.5 0 01-.354.853zM14.833 15a.5.5 0 01-.493-.418l-.333-2a.497.497 0 01.14-.436l1-1a.5.5 0 01.707.707l-.818.818.291 1.746a.5.5 0 01-.494.582zM15.5 19a.497.497 0 01-.239-.061l-3-1.636a.5.5 0 01.478-.878l2.099 1.145-.165-.987a.5.5 0 01.986-.164l.333 2a.503.503 0 01-.493.583zM5.334 14a.5.5 0 01-.494-.582l.124-.746-.818-.818a.5.5 0 01.707-.707l1 1a.502.502 0 01.14.436l-.167 1a.5.5 0 01-.493.418zM4.5 19a.499.499 0 01-.493-.583l.5-3a.5.5 0 01.986.164l-.331 1.987 1.099-.599a.5.5 0 11.478.877l-2 1.091a.497.497 0 01-.239.061zM8.5 16.818a.5.5 0 01-.239-.939l1.5-.818a.502.502 0 01.479 0l.5.273a.5.5 0 01-.478.878l-.261-.142-1.261.688a.503.503 0 01-.239.061zM17.5 10a.5.5 0 01-.354-.853l.313-.313-2.042-.34a.5.5 0 01.164-.986l3 .5a.5.5 0 01.271.847l-1 1a.5.5 0 01-.354.147zM13.501 8.167a.473.473 0 01-.083-.007l-1-.167a.5.5 0 01-.365-.27l-1-2a.5.5 0 01.895-.447l.886 1.772.749.125a.5.5 0 01-.082.993zM9 5a.5.5 0 01-.447-.724l1-2a.5.5 0 01.894 0l.5 1a.5.5 0 01-.895.447l-.053-.106-.553 1.106A.501.501 0 018.998 5z"/></svg>