<svg xmlns="http://www.w3.org/2000/svg" width="20" height="20" viewBox="0 0 20 20"><path d="M19.854 8.646a.5.5 0 0 0-.707 0l-1.149 1.149a7.94 7.94 0 0 0-2.341-5.452A7.948 7.948 0 0 0 10 2a7.988 7.988 0 0 0-7.077 4.266.5.5 0 0 0 .884.468A6.99 6.99 0 0 1 10 3c3.789 0 6.885 3.027 6.997 6.789l-1.143-1.143a.5.5 0 0 0-.707.707l2 2a.498.498 0 0 0 .708 0l2-2a.5.5 0 0 0 0-.707zM16.869 13.058a.5.5 0 0 0-.676.208A6.99 6.99 0 0 1 10 17c-3.789 0-6.885-3.027-6.997-6.789l1.143 1.143a.498.498 0 0 0 .708 0 .5.5 0 0 0 0-.707l-2-2a.5.5 0 0 0-.707 0l-2 2a.5.5 0 0 0 .707.707l1.149-1.149a7.94 7.94 0 0 0 2.341 5.452A7.948 7.948 0 0 0 10.001 18a7.988 7.988 0 0 0 7.077-4.266.5.5 0 0 0-.208-.676z"/></svg>