<svg xmlns="http://www.w3.org/2000/svg" width="40" height="40" viewBox="0 0 40 40"><g fill="#010101"><path d="M22.603 19.604a4.444 4.444 0 0 0 1.88-3.626 4.45 4.45 0 0 0-4.444-4.446 4.45 4.45 0 0 0-4.445 4.446c0 1.495.745 2.82 1.881 3.627l-5.008 14.432a.726.726 0 0 0 .683.963c.3 0 .581-.188.684-.488l1.02-2.933h10.37l1.017 2.933a.724.724 0 1 0 1.369-.475l-5.007-14.433zm-2.565-6.613a2.99 2.99 0 0 1 2.986 2.987 2.99 2.99 0 0 1-2.986 2.986 2.99 2.99 0 0 1-2.986-2.986 2.99 2.99 0 0 1 2.986-2.987zm0 7.432c.435 0 .854-.064 1.252-.181l1.603 4.622h-5.709l1.604-4.622c.397.117.816.181 1.25.181zm-4.682 9.706l1.324-3.814h6.715l1.325 3.814h-9.364z"/><path d="M14.12 21.617a.724.724 0 1 0 1.026-1.025 6.473 6.473 0 0 1-1.913-4.613c0-1.743.678-3.381 1.911-4.613a.728.728 0 0 0 0-1.026.727.727 0 0 0-1.025 0 7.918 7.918 0 0 0-2.336 5.639 7.912 7.912 0 0 0 2.337 5.638z"/><path d="M12.581 23.154a10.073 10.073 0 0 1-2.974-7.176c0-2.71 1.055-5.259 2.973-7.178a.725.725 0 1 0-1.025-1.024c-2.191 2.191-3.398 5.104-3.398 8.202s1.208 6.011 3.4 8.202c.142.142.326.212.512.212s.372-.07.513-.212a.727.727 0 0 0-.001-1.026z"/><path d="M5.982 15.979a13.69 13.69 0 0 1 4.034-9.741.725.725 0 0 0-1.025-1.025 15.129 15.129 0 0 0-4.46 10.766 15.13 15.13 0 0 0 4.46 10.766c.142.141.327.211.513.211a.723.723 0 0 0 .513-1.237 13.691 13.691 0 0 1-4.035-9.74zM26.768 15.979a6.48 6.48 0 0 1-1.911 4.612.725.725 0 0 0 1.026 1.024 7.917 7.917 0 0 0 2.337-5.637 7.922 7.922 0 0 0-2.338-5.64.726.726 0 0 0-1.025 1.025 6.488 6.488 0 0 1 1.911 4.616z"/><path d="M28.445 7.775A.726.726 0 0 0 27.419 8.8a10.084 10.084 0 0 1 2.973 7.178c0 2.709-1.055 5.258-2.971 7.178a.722.722 0 0 0 .513 1.236.72.72 0 0 0 .513-.212 11.53 11.53 0 0 0 3.397-8.202c0-3.099-1.208-6.012-3.399-8.203z"/><path d="M31.007 5.212a.725.725 0 0 0-1.025 1.025 13.688 13.688 0 0 1 4.037 9.741c0 3.677-1.434 7.136-4.035 9.74a.725.725 0 1 0 1.026 1.025 15.133 15.133 0 0 0 4.459-10.766 15.13 15.13 0 0 0-4.462-10.765z"/></g></svg>