<svg xmlns="http://www.w3.org/2000/svg" width="40" height="40" viewBox="0 0 40 40"><path d="M11.592 35a.707.707 0 0 1-.706-.708v-5.044c0-.389.316-.706.706-.706h1.681c1.776 0 2.998-.936 3.734-2.859.401-1.05.534-2.122.578-2.669l.018-.224-.207-.088c-1.033-.441-1.94-1.127-2.697-2.042a8.792 8.792 0 0 1-1.472-2.628l-.127-.35-.323.185c-.361.208-.77.315-1.185.315a.707.707 0 0 1 0-1.412.976.976 0 0 0 0-1.951H9.91a4.073 4.073 0 0 1-4.068-4.07A4.071 4.071 0 0 1 9.91 6.682c.773 0 1.525.217 2.176.632l.481.304V5.706c0-.391.317-.706.706-.706h13.453c.39 0 .706.315.706.706v1.912l.48-.304a4.039 4.039 0 0 1 2.177-.632 4.072 4.072 0 0 1 4.068 4.067 4.074 4.074 0 0 1-4.068 4.07h-1.683a.976.976 0 0 0 0 1.951.705.705 0 1 1 0 1.412c-.414 0-.823-.107-1.185-.315l-.323-.185-.127.35a8.687 8.687 0 0 1-1.473 2.628c-.758.915-1.664 1.603-2.696 2.04l-.207.09.018.224c.044.547.176 1.621.578 2.669.736 1.924 1.958 2.859 3.734 2.859h1.681c.39 0 .706.317.706.706v5.044a.707.707 0 0 1-.706.708H11.592zm16.11-1.414v-3.632H12.297v3.632h15.405zM23.1 28.542l-.4-.507a7.015 7.015 0 0 1-1.05-1.901 11.095 11.095 0 0 1-.613-2.665l-.033-.311-.311.034a7.207 7.207 0 0 1-.693.037c-.232 0-.466-.015-.693-.037l-.311-.034-.033.311a11.195 11.195 0 0 1-.614 2.665 7.012 7.012 0 0 1-1.048 1.901l-.399.507H23.1zm-9.121-14.43c0 4.463 2.532 7.703 6.021 7.703s6.021-3.24 6.021-7.703V6.411H13.979v7.701zM9.91 8.094a2.66 2.66 0 0 0-2.656 2.656 2.659 2.659 0 0 0 2.656 2.656h1.682c.199 0 .396.024.585.073l.39.1V10.75A2.66 2.66 0 0 0 9.91 8.094zm20.18 0a2.66 2.66 0 0 0-2.657 2.656v2.829l.391-.1a2.32 2.32 0 0 1 .584-.073h1.683a2.658 2.658 0 0 0 2.656-2.656 2.66 2.66 0 0 0-2.657-2.656z"/></svg>