<svg xmlns="http://www.w3.org/2000/svg" width="40" height="40" viewBox="0 0 40 40"><g fill="#010101"><path d="M13.202 21.059H8.696c-.375 0-.681.332-.681.74v4.52c0 .406.306.74.681.74h4.167l.127-.002c1.604-.037 2.525-1.108 2.525-2.936 0-1.049-.294-1.891-.852-2.434a2.15 2.15 0 0 0-1.461-.628zm-.148 4.643H9.188v-3.285h4.121c.172.004 1.031.099 1.031 1.708.001 1.426-.665 1.563-1.286 1.577zM8.638 17.81h4.248c1.391 0 2.065-.814 2.065-2.491 0-1.787-1.168-2.259-1.785-2.259H8.638a.68.68 0 0 0-.687.669v3.412c.001.368.31.669.687.669zm.491-3.509h4.187c.004 0 .462.031.462 1.008 0 1.261-.321 1.261-.765 1.261H9.129v-2.269z"/><path d="M18.818 19.031l-.136-.089.123-.104c.677-.583 1.483-1.692 1.483-3.677 0-3.753-2.465-6.18-6.28-6.18H3.644c-.355 0-.644.302-.644.671v20.696c0 .368.289.67.645.67H14.08c.463 0 2.1-.063 3.68-.906 1.47-.781 3.22-2.428 3.22-5.836.005-.119.104-2.944-1.401-4.602a3.848 3.848 0 0 0-.761-.643zm.874 5.209c0 2.216-.847 3.789-2.519 4.679-1.322.704-2.747.759-3.15.759H4.289V10.324h9.72c3.125 0 4.992 1.809 4.992 4.837 0 2.95-2.194 3.248-2.442 3.274a.656.656 0 0 0-.598.69.657.657 0 0 0 .646.646c.865 0 1.53.268 2.033.819 1.104 1.209 1.061 3.4 1.052 3.65zM29.375 16.409c-2.274.008-3.129 1.973-3.264 3.01a.632.632 0 0 0 .141.49.585.585 0 0 0 .449.208l4.245-.015.667.036a.463.463 0 0 0 .258-.071.605.605 0 0 0 .437-.573c-.001-.057-.008-1.372-.853-2.264-.516-.549-1.215-.824-2.08-.821zm-1.967 2.511c.268-.599.828-1.31 1.98-1.314.561-.002.98.152 1.285.468.199.209.351.489.445.832l-3.71.014z"/><path d="M36.936 22.796c.022-.187.551-4.516-1.87-7.383-1.321-1.566-3.239-2.356-5.702-2.356-4.287 0-6.323 2.362-7.275 4.347-.958 1.989-1.018 4.006-1.021 4.231-.01.172-.221 4.232 2.256 6.975 1.44 1.595 3.463 2.4 6.016 2.4.034.002.14.01.301.01 1.468 0 6.319-.364 7.114-5.055.021-.229.034-.469.034-.716 0-.37-.289-.67-.645-.67h-3.508a.629.629 0 0 0-.458.205c-.073.075-.12.179-.198.425a1.448 1.448 0 0 1-.344.645c-.353.369-.927.56-1.704.56-.131 0-.266-.006-.405-.019-1.291-.09-2.641-.508-2.87-2.885l-.013-.13h9.654a.657.657 0 0 0 .638-.584zm-1.235-.872l-.003.114h-9.723a.66.66 0 0 0-.646.67c0 4.719 3.09 4.951 4.105 5.024.174.013.342.019.506.019 1.164 0 2.026-.324 2.64-.99a2.19 2.19 0 0 0 .463-.765l.118-.057.021-.021h2.227l-.031.146c-.289 1.324-1.029 2.265-2.266 2.871-1.354.668-2.881.74-3.475.74l-.273-.004c-2.191 0-3.906-.664-5.094-1.972-2.016-2.222-1.933-5.638-1.915-6.023.002-.298.128-7.28 7.009-7.28 2.073 0 3.664.636 4.729 1.888 1.479 1.75 1.643 4.284 1.608 5.64zM25.268 12.16h7.821a.63.63 0 0 0 .618-.644V9.626a.632.632 0 0 0-.618-.645h-7.821c-.34 0-.617.29-.617.645V11.516c0 .355.277.644.617.644zm.619-1.564V10.163h6.61v.433h.001l.002.254-.006.023h-6.606v-.277z"/></g></svg>