<svg xmlns="http://www.w3.org/2000/svg" width="40" height="40" viewBox="0 0 40 40"><g fill-rule="evenodd" clip-rule="evenodd"><path d="M10.738 35.5c-.462 0-.531-.451-.531-.721V6.297c0-.991.806-1.797 1.797-1.797h15.99a1.8 1.8 0 0 1 1.799 1.797v28.482c0 .229-.056.408-.16.521a.51.51 0 0 1-.391.15c-.34 0-.754-.211-1.106-.563l-8.137-8.138-8.137 8.138c-.389.39-.799.613-1.124.613zm16.116-3.826c.241.24.491.367.723.367.363 0 .618-.313.618-.76V7.297c0-.662-.538-1.198-1.199-1.198h-13.99a1.2 1.2 0 0 0-1.201 1.198v23.984c0 .209.054.391.154.525.113.15.278.234.466.234.23 0 .48-.127.722-.367l6.854-6.855 6.853 6.856z"/><path d="M25.791 15.35c-.004 0-.006-.006-.012-.008a.437.437 0 0 0-.176-.039c-.023 0-.041.01-.063.012-1.507-.037-3.844-.098-3.844-.098L20.4 11.551a.436.436 0 0 0-.047-.1.2.2 0 0 0-.064-.082c-.076-.07-.176-.117-.287-.117s-.213.047-.287.117c-.021.012-.041.041-.063.082a.388.388 0 0 0-.049.1l-1.296 3.666s-2.339.061-3.842.098c-.023-.002-.043-.012-.066-.012a.46.46 0 0 0-.176.039c-.004.002-.004.008-.01.008a.421.421 0 0 0-.237.376c0 .084.031.156.072.223h.002a.394.394 0 0 0 .138.137l3.071 2.354s-.662 2.239-1.092 3.681a.398.398 0 0 0-.059.199c0 .236.191.428.424.428a.417.417 0 0 0 .314-.146c.303-.207.644-.441.989-.68L20 20.433l2.167 1.489.987.68a.418.418 0 0 0 .737-.282.424.424 0 0 0-.055-.199L22.74 18.44l3.073-2.354a.378.378 0 0 0 .138-.137.41.41 0 0 0-.16-.599zm-4.363 2.581l.754 2.533-2.179-1.499-2.181 1.499.754-2.533-2.099-1.611 2.644-.066.882-2.497.88 2.497 2.647.066-2.102 1.611z"/></g></svg>