<svg xmlns="http://www.w3.org/2000/svg" width="40" height="40"><path d="M12.768 34c-.492 0-2.193-.091-3.433-1.268-.867-.825-1.308-1.97-1.308-3.401v-.396c.004-3.677.007-6.849-3.018-8.161a.842.842 0 0 1 .001-1.546c3.024-1.313 3.021-4.485 3.018-8.158v-.4c0-1.433.44-2.577 1.308-3.4C10.576 6.091 12.279 6 12.771 6l2.604.002c.467 0 .847.377.847.842s-.38.842-.847.842h-2.546c-.333 0-1.539.049-2.334.811-.515.492-.775 1.223-.775 2.173v.396c.004 3.405.008 6.926-2.686 8.936 2.693 2.01 2.689 5.53 2.686 8.934v.396c0 .953.264 1.688.784 2.181.806.766 2.032.804 2.27.804h2.603c.467 0 .847.378.847.843s-.381.84-.848.84h-2.608zm11.856 0c-.467 0-.846-.377-.846-.842s.379-.843.846-.843h2.546c.335 0 1.541-.05 2.334-.81.516-.493.777-1.226.777-2.175v-.396c-.004-3.403-.007-6.924 2.686-8.934-2.692-2.01-2.689-5.53-2.686-8.936v-.394c0-.952-.264-1.687-.784-2.182-.807-.766-2.033-.805-2.271-.805l-2.602.002c-.467 0-.846-.377-.846-.842s.379-.842.846-.842h2.528c.59 0 2.279.097 3.513 1.268.869.823 1.309 1.968 1.309 3.4v.397c-.005 3.675-.01 6.846 3.019 8.16a.841.841 0 1 1 0 1.545c-3.028 1.313-3.023 4.486-3.019 8.159v.398c0 1.432-.439 2.576-1.309 3.401-1.239 1.18-2.94 1.271-3.433 1.271h-2.608z"/></svg>