<svg xmlns="http://www.w3.org/2000/svg" width="40" height="40"><g fill-rule="evenodd" clip-rule="evenodd"><path d="M13.786 29.113a1.853 1.853 0 0 1-1.853-1.85l-.245-1.479-.287-1.924a1.852 1.852 0 0 1-.076-.498L9.373 9.702l-.338-2.035H5.377a.878.878 0 0 1-.877-.876c0-.482.394-.875.877-.875h3.899a.64.64 0 0 1 .169.03l.025.006.075.007a.88.88 0 0 1 .218-.044c.484 0 .878.393.878.875l.186 1.122.097-.017a1.78 1.78 0 0 1 .304-.033h22.421c1.021 0 1.852.831 1.852 1.853v11.699c0 1.021-.83 1.851-1.852 1.851-.092.001-9.072.071-14.472.638-2.596.273-5.058 1.01-5.75 1.229l-.079.025.329 2.203h18.997c.482 0 .877.394.877.877s-.395.876-.877.876H13.786zM12.445 9.618c-.592 0-1.073.48-1.073 1.071l1.626 11.387a1.07 1.07 0 0 0 1.074 1.059c.054-.015 1.638-.682 4.483-1.018 4.797-.565 14.026-.605 14.12-.605.59 0 1.072-.48 1.072-1.073v-9.75c0-.59-.482-1.071-1.072-1.071h-20.23zm3.503 20.57a1.948 1.948 0 0 0 0 3.897 1.948 1.948 0 1 0 0-3.897z"/><circle cx="29.598" cy="32.136" r="1.949"/></g></svg>