<svg xmlns="http://www.w3.org/2000/svg" width="40" height="40" viewBox="0 0 40 40"><path d="M33.732 10.556h-8.844A2.764 2.764 0 0 0 22.13 7.87H6.267A2.77 2.77 0 0 0 3.5 10.637v10.405a2.77 2.77 0 0 0 2.767 2.768h1.292l4.637 5.353a.815.815 0 0 0 .906.231.824.824 0 0 0 .532-.768V23.81h1.478a2.766 2.766 0 0 0 2.758 2.687h8.498v4.815c0 .34.214.648.534.769a.822.822 0 0 0 .903-.231l4.637-5.353h1.291a2.77 2.77 0 0 0 2.768-2.768V13.323a2.77 2.77 0 0 0-2.769-2.767zm-18.63 2.767v8.848h-2.288a.82.82 0 0 0-.819.819v3.44l-3.443-3.978a.842.842 0 0 0-.646-.282H6.268a1.129 1.129 0 0 1-1.129-1.129V10.637c0-.622.507-1.13 1.129-1.13h15.864a1.12 1.12 0 0 1 1.111 1.049h-5.374a2.77 2.77 0 0 0-2.767 2.767zm19.76 10.406a1.13 1.13 0 0 1-1.13 1.129h-1.664a.827.827 0 0 0-.621.282l-3.442 3.977v-3.44a.82.82 0 0 0-.819-.818h-9.317a1.13 1.13 0 0 1-1.128-1.129V13.323c0-.623.506-1.13 1.128-1.13h15.864c.623 0 1.13.507 1.13 1.13v10.406z"/><path d="M32.841 14.703h-14.08a.82.82 0 0 0 0 1.637h14.08c.452 0 .82-.368.82-.819s-.368-.818-.82-.818zM32.841 17.706h-14.08a.82.82 0 0 0 0 1.638h14.08a.82.82 0 0 0 .82-.819.82.82 0 0 0-.82-.819zM25.426 20.71h-6.665a.82.82 0 0 0 0 1.637h6.665a.819.819 0 0 0 0-1.637z"/></svg>