<svg xmlns="http://www.w3.org/2000/svg" width="40" height="40" viewBox="0 0 40 40"><path d="M13.082 34.5l-.177-.131c-2.883-2.106-4.178-16.188-4.178-19.579v-.677h19.846v.677c0 .486-.034 1.178-.099 2.01.21.055.411.128.6.216 1.168.555 1.927 1.764 2.141 3.403.205 1.584-.129 3.395-.936 5.096-.92 1.931-2.39 3.519-3.945 4.267-.693 2.45-1.457 3.994-2.267 4.588l-.18.13H13.082zm10.335-1.354c1.986-1.987 3.618-13.307 3.788-17.681h-17.11c.166 4.479 1.532 15.736 3.459 17.681h9.863zm4.937-14.965c-.263 2.655-.79 6.471-1.53 9.69.877-.723 1.677-1.769 2.233-2.939.679-1.425.98-2.921.849-4.209-.123-1.229-.625-2.11-1.409-2.484a1.259 1.259 0 0 0-.143-.058zM16.358 11.323l.115-.103c.637-.558 1.316-1.406 1.145-1.963-.073-.239-.327-.423-.78-.563-.879-.274-1.432-.72-1.598-1.291-.234-.811.299-1.833 1.467-2.803l.119-.1.994.709-.121.101c-.675.561-1.289 1.353-1.142 1.857.068.235.324.417.785.561.869.269 1.418.716 1.593 1.294.251.829-.277 1.882-1.45 2.89l-.118.104-1.009-.693zM20.175 12.534l.116-.104c.634-.557 1.314-1.403 1.145-1.962-.073-.237-.33-.423-.784-.563-.875-.271-1.428-.718-1.595-1.292-.236-.803.298-1.823 1.466-2.801l.123-.102.99.711-.121.099c-.675.563-1.287 1.355-1.141 1.86.089.303.43.43.863.59.566.211 1.275.474 1.517 1.261.298.982-.598 2.173-1.455 2.893l-.117.1-1.007-.69z"/></svg>