<svg xmlns="http://www.w3.org/2000/svg" width="40" height="40" viewBox="0 0 40 40"><path d="M31.228 5H8.772a3.652 3.652 0 0 0-3.647 3.646v14.731a3.65 3.65 0 0 0 3.647 3.646H21.07v7.086c0 .372.23.705.578.833a.89.89 0 0 0 .985-.249l6.644-7.669h1.951a3.65 3.65 0 0 0 3.647-3.646V8.646A3.652 3.652 0 0 0 31.228 5zm1.868 18.378a1.87 1.87 0 0 1-1.868 1.867h-2.315a.893.893 0 0 0-.716.306l-5.347 6.173v-5.589a.89.89 0 0 0-.89-.89H8.772a1.87 1.87 0 0 1-1.866-1.867V8.646c0-1.028.837-1.865 1.866-1.865h22.455c1.03 0 1.868.837 1.868 1.865v14.732h.001z"/><path d="M29.965 10.87h-19.93a.891.891 0 0 0 0 1.782h19.93a.89.89 0 1 0 0-1.782zM29.965 15.123h-19.93a.89.89 0 1 0 0 1.78h19.93a.89.89 0 0 0 0-1.78zM19.469 19.373h-9.434a.89.89 0 0 0 0 1.782h9.434a.891.891 0 0 0 0-1.782z"/></svg>