<svg xmlns="http://www.w3.org/2000/svg" width="40" height="40"><path d="M14.766 16.227c0 .45.367.816.817.816h12.578a.819.819 0 0 0 .817-.816.819.819 0 0 0-.817-.817H15.583a.818.818 0 0 0-.817.817z"/><path d="M32.468 10.232l-6.002-6.013A.721.721 0 0 0 25.959 4H12.274a.707.707 0 0 0-.706.706v26.516c0 .377.323.694.706.694h14.757v2.685H8.727V9.484H11.5v-1.4H8.02a.707.707 0 0 0-.706.707v26.515A.708.708 0 0 0 8.02 36h19.706a.709.709 0 0 0 .706-.694v-3.39h3.549a.709.709 0 0 0 .706-.694V10.729a.655.655 0 0 0-.219-.497zm-5.804-3.839l3.63 3.642h-3.63V6.393zm4.622 24.123H12.981V5.399h12.271v5.33c0 .388.315.705.706.705h5.327v19.082z"/><path d="M28.161 19.041H15.583a.818.818 0 0 0 0 1.633h12.578a.819.819 0 0 0 .817-.816.818.818 0 0 0-.817-.817zm0 3.631H15.583a.817.817 0 0 0 0 1.632h12.578c.449 0 .817-.365.817-.816s-.368-.816-.817-.816zM11.5 19.495h-.172a.818.818 0 0 0-.817.816c0 .451.367.818.817.818h.172v-1.634zm0 3.63h-.172a.818.818 0 0 0-.817.816c0 .451.367.818.817.818h.172v-1.634zm-.989 4.448c0 .45.367.816.817.816h.172v-1.634h-.172a.82.82 0 0 0-.817.818z"/></svg>