<svg xmlns="http://www.w3.org/2000/svg" width="40" height="40" viewBox="0 0 40 40"><path d="M20 5.5c-7.995 0-14.5 6.507-14.5 14.502C5.5 27.996 12.004 34.5 20 34.5s14.5-6.504 14.5-14.498C34.5 12.007 27.995 5.5 20 5.5zm0 1.475c3.201 0 6.135 1.161 8.405 3.083-.017.021-.033.045-.048.067-.015.023-1.376 2.172-4.657 4.194-.715.439-1.559.894-2.537 1.327-2.073-3.988-4.352-6.721-5.468-7.938A12.955 12.955 0 0 1 20 6.975zm-5.756 1.343c.797.834 3.3 3.62 5.543 7.885-3.074 1.138-7.234 1.975-12.646 1.709.683-4.219 3.398-7.762 7.103-9.594zm-3.615 20.724a12.99 12.99 0 0 1-3.641-9.662 40.53 40.53 0 0 0 2.145.056c4.73 0 8.465-.832 11.318-1.906a39.565 39.565 0 0 1 1.103 2.548c-5.057 1.435-8.823 4.508-10.901 8.905l-.024.059zM20 33.027c-3.187 0-6.11-1.151-8.376-3.059a.734.734 0 0 0 .363-.354c1.907-4.039 5.396-6.854 10.094-8.154 1.979 5.449 2.623 10.044 2.704 10.657-1.482.588-3.097.91-4.785.91zm6.182-1.562c-.213-1.442-.916-5.516-2.651-10.331 4.061-.706 8.335.161 9.405.405-.508 4.293-3.111 7.954-6.754 9.926zm-3.179-11.734a52.27 52.27 0 0 0-.538-1.318 37.57 37.57 0 0 0-.648-1.444 22.726 22.726 0 0 0 2.742-1.448c3.013-1.875 4.511-3.832 4.929-4.435a12.98 12.98 0 0 1 3.539 8.916l-.001.046c-1.495-.328-5.831-1.118-10.023-.317z"/></svg>