<svg xmlns="http://www.w3.org/2000/svg" width="40" height="40" viewBox="0 0 40 40"><path d="M34.285 10H5.714a.714.714 0 0 0-.714.714v18.571c0 .395.32.715.714.715h28.571c.396 0 .715-.32.715-.715V10.714a.713.713 0 0 0-.715-.714zM6.429 12.269l8.818 7.068-8.818 8.124V12.269zM20 21.318l-12.335-9.89h24.671L20 21.318zm-3.626-1.077l3.178 2.548.004.002.021.017c.013.009.025.019.038.026l.024.015a.463.463 0 0 0 .043.024c.007.002.013.006.019.01a.91.91 0 0 0 .07.027c.021.006.044.014.066.017.006.002.011.004.017.004a.363.363 0 0 0 .056.009c.005.002.012.002.017.002a.437.437 0 0 0 .143 0c.005 0 .011 0 .016-.002a.34.34 0 0 0 .074-.013c.022-.003.044-.011.066-.017.001-.002.002-.002.003-.002l.067-.025c.007-.004.013-.008.019-.01l.045-.024c.008-.005.016-.009.023-.015l.037-.026a.128.128 0 0 0 .022-.017l.004-.002 3.178-2.548 9.043 8.33H7.332l9.042-8.33zm8.38-.904l8.817-7.068v15.175l-8.817-8.107z"/></svg>