<svg xmlns="http://www.w3.org/2000/svg" width="40" height="40" viewBox="0 0 40 40"><g fill-rule="evenodd" clip-rule="evenodd"><path d="M20 29.616c-6.911 0-13.412-3.681-17-9.615 3.588-5.935 10.089-9.617 17-9.617 6.91 0 13.412 3.682 17 9.617-3.588 5.935-10.09 9.615-17 9.615zm-.002-17.362c-5.817 0-11.309 2.848-14.687 7.618l-.088.125.088.124c3.378 4.77 8.87 7.618 14.687 7.618 5.82 0 11.311-2.849 14.687-7.618l.089-.124-.089-.125c-3.376-4.769-8.867-7.618-14.687-7.618z"/><path d="M19.987 13.521a6.48 6.48 0 0 0 0 12.957A6.474 6.474 0 0 0 26.465 20a6.475 6.475 0 0 0-6.478-6.479zm0 11.336c-2.68 0-4.858-2.175-4.858-4.858s2.178-4.859 4.858-4.859c2.686 0 4.858 2.175 4.858 4.859s-2.172 4.858-4.858 4.858z"/></g></svg>