<svg xmlns="http://www.w3.org/2000/svg" width="40" height="40"><path d="M21.93 35h-5.405a.736.736 0 0 1-.738-.738V21.926h-3.51a.74.74 0 0 1-.738-.737v-5.796a.74.74 0 0 1 .738-.738h3.51v-1.519c0-4.41 3.322-8.136 7.255-8.136h4.684c.406 0 .737.331.737.738v5.794a.74.74 0 0 1-.737.738H23.05c-.086.021-.381.269-.381.814v1.569h5.057a.74.74 0 0 1 .737.738v5.796a.739.739 0 0 1-.737.737h-5.057V34.26a.739.739 0 0 1-.739.74zm-4.667-1.477h3.929V21.188c0-.41.33-.738.738-.738h5.057v-4.32H21.93a.736.736 0 0 1-.738-.737v-2.308c0-1.37.956-2.291 1.85-2.291h3.945V6.477h-3.945c-3.079 0-5.778 3.112-5.778 6.659v2.257a.737.737 0 0 1-.738.737h-3.51v4.32h3.51c.408 0 .738.328.738.738v12.335z"/></svg>