<svg xmlns="http://www.w3.org/2000/svg" width="40" height="40"><path d="M35.823 14.582a.76.76 0 0 0-.585-.274h-2.286V8.381a.762.762 0 0 0-.762-.762H7.81a.762.762 0 0 0-.762.762v3.279H4.762a.76.76 0 0 0-.752.881l3.048 19.197c.06.369.377.643.752.643h24.38a.765.765 0 0 0 .75-.625l3.048-16.549a.76.76 0 0 0-.165-.625zM8.571 9.144h22.857v5.165H16.437l-3.621-2.512a.753.753 0 0 0-.435-.136h-3.81V9.144zm22.987 21.712H8.46L5.655 13.184h6.487l3.621 2.511a.76.76 0 0 0 .435.137h18.125l-2.765 15.024z"/></svg>