<svg xmlns="http://www.w3.org/2000/svg" width="40" height="40"><path d="M28.141 27.861c-4.336 0-7.861-3.524-7.861-7.86 0-4.335 3.525-7.862 7.861-7.862 4.334 0 7.859 3.527 7.859 7.862 0 4.336-3.525 7.86-7.859 7.86zm0-14.094c-3.438 0-6.232 2.798-6.232 6.234s2.795 6.232 6.232 6.232c3.436 0 6.231-2.796 6.231-6.232s-2.796-6.234-6.231-6.234zM11.859 27.861C7.525 27.861 4 24.337 4 20.001c0-4.335 3.525-7.862 7.859-7.862 4.335 0 7.861 3.527 7.861 7.862 0 4.336-3.526 7.86-7.861 7.86zm0-14.094c-3.436 0-6.231 2.798-6.231 6.234s2.795 6.232 6.231 6.232c3.438 0 6.233-2.796 6.233-6.232s-2.796-6.234-6.233-6.234z"/></svg>