<svg xmlns="http://www.w3.org/2000/svg" width="40" height="40"><path d="M20 23.563a3.618 3.618 0 0 1-3.621-3.61c0-1.99 1.624-3.61 3.621-3.61s3.621 1.62 3.621 3.61A3.62 3.62 0 0 1 20 23.563zm0-5.697c-1.156 0-2.097.936-2.097 2.087s.94 2.087 2.097 2.087 2.097-.936 2.097-2.087-.941-2.087-2.097-2.087z"/><path d="M34.516 23.432l-3.197-1.847a11.66 11.66 0 0 0 0-3.172l3.197-1.845a.716.716 0 0 0 .261-.977l-3.571-6.186a.717.717 0 0 0-.976-.262l-3.198 1.847c-.84-.658-1.76-1.19-2.746-1.588V5.714A.714.714 0 0 0 23.57 5h-7.142a.713.713 0 0 0-.714.714v3.689c-.986.397-1.907.93-2.746 1.588L9.771 9.146a.713.713 0 0 0-.976.26l-3.571 6.186a.716.716 0 0 0 .261.977l3.197 1.845a11.363 11.363 0 0 0 0 3.171L5.485 23.43a.716.716 0 0 0-.261.977l3.571 6.186a.722.722 0 0 0 .435.335.72.72 0 0 0 .541-.073l3.198-1.845c.839.656 1.76 1.188 2.746 1.588v3.689c0 .394.32.714.714.714h7.142c.396 0 .715-.32.715-.714v-3.689a11.454 11.454 0 0 0 2.748-1.588l3.196 1.845a.715.715 0 0 0 .541.073.728.728 0 0 0 .435-.335l3.571-6.186a.714.714 0 0 0-.261-.975zm-4.191 5.828l-3.006-1.735a.714.714 0 0 0-.822.076 9.94 9.94 0 0 1-3.164 1.83.715.715 0 0 0-.477.674v3.467h-5.714v-3.467a.71.71 0 0 0-.477-.674 9.962 9.962 0 0 1-3.164-1.83.712.712 0 0 0-.822-.076L9.676 29.26l-2.857-4.95 3.003-1.733a.71.71 0 0 0 .345-.748 10.101 10.101 0 0 1 0-3.659.712.712 0 0 0-.345-.748l-3.003-1.733 2.857-4.95 3.004 1.735a.717.717 0 0 0 .822-.074 9.951 9.951 0 0 1 3.164-1.83.712.712 0 0 0 .477-.674V6.429h5.714v3.467c0 .304.192.573.477.674a9.94 9.94 0 0 1 3.164 1.83c.23.195.56.227.822.074l3.005-1.735 2.857 4.95-3.004 1.733a.713.713 0 0 0-.345.748 10.173 10.173 0 0 1 0 3.658.71.71 0 0 0 .345.748l3.004 1.733-2.857 4.951z"/></svg>