<svg xmlns="http://www.w3.org/2000/svg" width="40" height="40" viewBox="0 0 40 40"><g fill="#010101"><path d="M25.625 26.468c-.979 0-1.775-1.217-1.775-2.712 0-1.496.797-2.714 1.775-2.714S27.4 22.26 27.4 23.756c0 1.495-.796 2.712-1.775 2.712zM14.375 26.468c-.979 0-1.775-1.217-1.775-2.712 0-1.496.797-2.714 1.775-2.714s1.775 1.218 1.775 2.714c0 1.495-.796 2.712-1.775 2.712z"/><path d="M19.964 32.093c-1.304 0-2.505-.05-3.571-.146a23.124 23.124 0 0 1-3.178-.512 13.55 13.55 0 0 1-2.759-.945 9.81 9.81 0 0 1-2.236-1.496 7.958 7.958 0 0 1-1.695-2.116c-.443-.797-.795-1.753-1.045-2.841-.252-1.084-.38-2.317-.38-3.669 0-2.389.811-4.482 2.407-6.226l.042-.045-.022-.057a7.033 7.033 0 0 1-.239-.79c-.071-.295-.139-.72-.201-1.264-.063-.539-.039-1.174.071-1.886.112-.712.32-1.451.618-2.194-.003.019.013.025.04.025.03 0 .074-.008.124-.016l.08-.001c.197 0 .387.015.636.04.381.037.8.122 1.244.252.441.13 1.029.377 1.797.757.761.38 1.559.854 2.369 1.408 1.494-.372 3.46-.568 5.926-.568 2.477 0 4.447.196 5.856.582.903-.573 1.697-1.047 2.44-1.423.755-.378 1.349-.626 1.816-.755.466-.13.88-.218 1.231-.261a4.44 4.44 0 0 1 .524-.039c.086 0 .158.005.215.016l.221.043c.226.683.434 1.421.545 2.134.109.705.134 1.34.071 1.886-.063.549-.131.974-.203 1.264a6.22 6.22 0 0 1-.239.789l-.021.059.042.045c1.599 1.742 2.409 3.837 2.409 6.226 0 1.343-.128 2.577-.38 3.668-.249 1.084-.604 2.04-1.052 2.841a8.024 8.024 0 0 1-1.711 2.116 9.914 9.914 0 0 1-2.25 1.496 13.66 13.66 0 0 1-2.774.945 23.322 23.322 0 0 1-3.185.512 40.395 40.395 0 0 1-3.583.146zm-5.516-13.139c-.259 0-.521.006-.79.016a5.935 5.935 0 0 0-1.754.313 3.968 3.968 0 0 0-1.367.821c-1.298 1.188-1.955 2.517-1.955 3.947 0 .849.107 1.611.319 2.268.213.655.489 1.215.821 1.664.335.449.806.837 1.399 1.151a9.73 9.73 0 0 0 1.719.72c.554.166 1.275.298 2.146.393.873.093 1.655.149 2.325.168.682.02 1.545.028 2.593.028 1.047 0 1.912-.009 2.592-.028a30.492 30.492 0 0 0 2.327-.168c.87-.095 1.592-.227 2.145-.393a9.838 9.838 0 0 0 1.72-.719c.592-.314 1.063-.702 1.397-1.152.333-.447.61-1.008.821-1.664.214-.653.321-1.417.321-2.268 0-1.452-.657-2.781-1.956-3.948a3.959 3.959 0 0 0-1.368-.819 5.851 5.851 0 0 0-1.752-.314 18.376 18.376 0 0 0-1.853.015c-.585.034-1.311.08-2.171.139a32.95 32.95 0 0 1-2.224.088c-.635 0-1.383-.03-2.223-.088-.86-.059-1.586-.104-2.174-.139-.342-.02-.694-.031-1.058-.031zm10.911-1.322c.274 0 .56.005.842.015.78.03 1.502.162 2.146.391.686.244 1.297.61 1.816 1.088 1.584 1.429 2.387 3.086 2.387 4.927 0 .519-.036 1.015-.106 1.474l.19.056c.238-.543.439-1.163.598-1.843.228-.988.343-2.122.343-3.37 0-2.078-.673-3.822-2.06-5.33l-.591-.646.309-.817a5.77 5.77 0 0 0 .191-.64c.041-.162.104-.484.175-1.099.048-.42.025-.936-.067-1.534a7.59 7.59 0 0 0-.203-.928l-.025-.087-.089.016a7.907 7.907 0 0 0-.755.181c-.255.068-.737.24-1.576.663-.681.341-1.424.784-2.207 1.317l-.582.397-.596-.199c-1.299-.356-3.151-.537-5.507-.537-2.345 0-4.192.181-5.493.537l-.679.186-.499-.384a19.533 19.533 0 0 0-2.215-1.317c-.848-.42-1.326-.596-1.578-.669a5.674 5.674 0 0 0-.745-.174l-.088-.014-.023.085c-.09.313-.158.622-.205.926-.092.6-.114 1.116-.066 1.534.071.614.135.937.175 1.1.06.242.124.458.191.639l.307.817-.59.646c-1.387 1.51-2.061 3.253-2.061 5.33 0 1.24.116 2.375.345 3.37.095.406.202.789.325 1.148l.194-.039c-.019-.26-.03-.523-.03-.796 0-1.818.802-3.474 2.383-4.92a5.232 5.232 0 0 1 1.821-1.094 7.226 7.226 0 0 1 2.147-.392c.282-.01.565-.015.841-.015.386 0 .769.011 1.137.032.588.034 1.324.082 2.185.139.816.058 1.534.086 2.134.086s1.317-.028 2.134-.086a351.87 351.87 0 0 1 2.186-.139c.367-.02.748-.031 1.134-.031z"/></g></svg>