<svg xmlns="http://www.w3.org/2000/svg" width="40" height="40" viewBox="0 0 40 40"><g fill="#010101"><path d="M34.467 10.234h-1.724V8.511a.861.861 0 1 0-1.721 0v1.722h-1.724a.862.862 0 0 0 0 1.723h1.724v1.724a.862.862 0 1 0 1.721 0v-1.724h1.724a.86.86 0 1 0 0-1.722zM18.163 22.794h7.909l-.052.136a8.131 8.131 0 0 1-7.647 5.258c-4.515 0-8.188-3.672-8.188-8.188 0-4.515 3.673-8.187 8.188-8.187 1.822 0 3.548.585 4.988 1.693l.165.128 3.408-4.426-.165-.127a13.644 13.644 0 0 0-8.396-2.855C10.778 6.226 4.6 12.404 4.6 19.999s6.178 13.774 13.772 13.774S32.147 27.595 32.147 20v-2.792H18.163v5.586zm1.261-4.328h11.463v1.533c0 6.901-5.614 12.515-12.514 12.515S5.86 26.898 5.86 19.999c0-6.9 5.613-12.513 12.513-12.513 2.374 0 4.684.666 6.677 1.926l.095.059-1.881 2.441-.076-.045a9.416 9.416 0 0 0-4.813-1.315c-5.209 0-9.447 4.238-9.447 9.447s4.238 9.446 9.447 9.446a9.422 9.422 0 0 0 8.989-6.537l.446-1.376h-8.386v-3.066z"/></g></svg>