<svg xmlns="http://www.w3.org/2000/svg" width="40" height="40" viewBox="0 0 40 40"><path d="M5.646 29C4.187 29 3 27.733 3 26.179c0-1.554 1.187-2.819 2.646-2.819.494 0 .981.154 1.41.443l.057.038 6.638-5.546-.007-.059a2.881 2.881 0 0 1-.044-.417c0-1.556 1.186-2.82 2.645-2.82 1.458 0 2.646 1.265 2.646 2.82 0 .43-.1.859-.296 1.27l-.028.061 2.671 3.587.063-.023c.264-.087.53-.132.795-.132.521 0 1.027.163 1.463.475l.063.042 8.216-8.145-.025-.066a2.953 2.953 0 0 1-.2-1.068c0-1.554 1.187-2.818 2.646-2.818S37 12.265 37 13.818c0 1.555-1.187 2.82-2.646 2.82a2.46 2.46 0 0 1-1.198-.322l-.059-.031-8.381 8.311.016.06c.072.279.106.515.106.744 0 1.553-1.187 2.821-2.646 2.821s-2.646-1.269-2.646-2.821c0-.514.138-1.011.411-1.478l.035-.061-2.577-3.461-.066.026a2.46 2.46 0 0 1-1.004.211 2.55 2.55 0 0 1-1.659-.623l-.059-.052-.105.002-6.378 5.327.019.068c.087.302.128.563.128.818C8.291 27.733 7.104 29 5.646 29zm0-3.819c-.517 0-.938.448-.938.998 0 .553.421 1 .938 1s.938-.447.938-1c-.001-.55-.421-.998-.938-.998zm16.547-.78a.877.877 0 0 0-.57.205c-.234.19-.368.479-.368.793 0 .551.421.999.938.999.517 0 .938-.448.938-.999s-.421-.998-.938-.998zm-5.849-7.581c-.517 0-.938.448-.938.999 0 .302.128.586.351.778.134.114.37.188.603.188a.865.865 0 0 0 .646-.26c.177-.188.275-.439.275-.706 0-.55-.421-.999-.937-.999zm18.01-3.999c-.517 0-.938.445-.938.997 0 .551.421.999.938.999s.938-.448.938-.999c.001-.551-.421-.997-.938-.997z"/></svg>