<svg xmlns="http://www.w3.org/2000/svg" width="40" height="40"><path d="M6.72 34a.72.72 0 0 1-.72-.719V27.47c0-.396.323-.721.72-.721h5.81c.397 0 .72.324.72.721v5.811a.72.72 0 0 1-.72.719H6.72zm.719-1.439h4.371V28.19H7.439v4.371zM17.095 34a.72.72 0 0 1-.72-.719V27.47c0-.396.323-.721.72-.721h5.811c.396 0 .72.324.72.721v5.811a.72.72 0 0 1-.72.719h-5.811zm.72-1.439h4.371V28.19h-4.371v4.371zM27.471 34a.72.72 0 0 1-.721-.719V27.47c0-.396.323-.721.721-.721h5.81c.396 0 .72.324.72.721v5.811a.721.721 0 0 1-.721.719h-5.809zm.718-1.439h4.371V28.19h-4.371v4.371zM6.72 23.625a.72.72 0 0 1-.72-.719v-5.811a.72.72 0 0 1 .72-.72h5.81a.72.72 0 0 1 .72.72v5.811a.72.72 0 0 1-.72.719H6.72zm.719-1.439h4.371v-4.371H7.439v4.371zm9.656 1.439a.72.72 0 0 1-.72-.719v-5.811a.72.72 0 0 1 .72-.72h5.811c.396 0 .72.323.72.72v5.811a.72.72 0 0 1-.72.719h-5.811zm.72-1.439h4.371v-4.371h-4.371v4.371zm9.656 1.439a.72.72 0 0 1-.721-.719v-5.811c0-.397.323-.72.721-.72h5.81c.396 0 .72.323.72.72v5.811a.72.72 0 0 1-.72.719h-5.81zm.718-1.439h4.371v-4.371h-4.371v4.371zM6.72 13.25a.72.72 0 0 1-.72-.719v-5.81C6 6.324 6.323 6 6.72 6h5.81a.72.72 0 0 1 .72.72v5.81a.72.72 0 0 1-.72.719H6.72zm.719-1.439h4.371V7.439H7.439v4.372zm9.656 1.439a.72.72 0 0 1-.72-.719v-5.81a.72.72 0 0 1 .72-.72h5.811c.396 0 .72.323.72.72v5.81a.72.72 0 0 1-.72.719h-5.811zm.72-1.439h4.371V7.439h-4.371v4.372zm9.656 1.439a.72.72 0 0 1-.721-.719v-5.81c0-.397.323-.72.721-.72h5.81a.72.72 0 0 1 .719.72v5.81a.72.72 0 0 1-.72.719h-5.809zm.718-1.439h4.371V7.439h-4.371v4.372z"/></svg>