<svg xmlns="http://www.w3.org/2000/svg" width="40" height="40"><path d="M20 36c-1.031 0-2.962-1.11-4.02-1.771-1.793-1.119-3.52-2.455-4.737-3.668-3.164-3.154-4.906-7.067-4.906-11.018V9.093a.83.83 0 0 1 .569-.789l12.83-4.262a.848.848 0 0 1 .526 0l12.832 4.262a.83.83 0 0 1 .569.789v10.451c0 3.95-1.741 7.863-4.906 11.018-1.22 1.213-2.946 2.549-4.737 3.668C22.96 34.89 21.029 36 20 36zM7.999 19.544c0 3.506 1.569 7 4.416 9.84 2.62 2.61 6.747 4.955 7.585 4.955s4.963-2.345 7.583-4.955c2.849-2.84 4.418-6.334 4.418-9.84V9.692L20 5.704 7.999 9.692v9.852z"/><path d="M20.006 28.786a.829.829 0 0 1-.472-.147l-6.09-4.21a.825.825 0 0 1-.346-.535.824.824 0 0 1 .134-.621.835.835 0 0 1 1.156-.212l5.618 3.885 5.303-3.665-.042-3.67H13.916a.83.83 0 0 1-.83-.83v-6.218c0-.458.372-.831.83-.831h12.182a.83.83 0 1 1 0 1.66H14.747v4.558h11.351a.83.83 0 0 1 .83.831v4.966a.833.833 0 0 1-.359.683l-6.089 4.21a.837.837 0 0 1-.474.146z"/></svg>