<svg xmlns="http://www.w3.org/2000/svg" width="40" height="40"><path d="M22.746 31.173h-5.538a.912.912 0 0 1-.912-.912v-.641c.006-.551-.021-.938-.079-1.154-.311-1.139-1.134-2.094-1.931-3.02a23.085 23.085 0 0 1-.739-.883 8.114 8.114 0 0 1-1.757-5.061c0-4.526 3.684-8.207 8.21-8.207 4.525 0 8.208 3.681 8.208 8.207a8.097 8.097 0 0 1-1.757 5.063c-.201.258-.433.528-.675.813-.816.96-1.727 2.031-2.041 3.162-.055.202-.082.565-.078 1.073v.646a.912.912 0 0 1-.911.914zm-4.624-1.826h3.712c.01-.71.079-1.06.142-1.288.423-1.523 1.471-2.76 2.396-3.846.243-.286.456-.536.645-.774a6.309 6.309 0 0 0 1.366-3.936c0-3.52-2.862-6.384-6.382-6.384s-6.384 2.864-6.384 6.384c0 1.438.472 2.798 1.366 3.934.211.27.442.535.687.818.843.979 1.888 2.192 2.31 3.733.062.241.134.608.142 1.359zm4.624 4.241h-5.538a.912.912 0 0 1 0-1.825h5.538a.912.912 0 1 1 0 1.825zM21.362 36h-2.769a.913.913 0 1 1 0-1.826h2.769a.914.914 0 0 1 0 1.826zm13.23-15.585h-3.648a.913.913 0 1 1 0-1.824h3.648a.91.91 0 0 1 .911.912.91.91 0 0 1-.911.912zm-25.535 0H5.408a.91.91 0 0 1-.911-.912.91.91 0 0 1 .911-.912h3.648a.911.911 0 1 1 .001 1.824zM20 9.474a.912.912 0 0 1-.914-.912v-3.65a.913.913 0 0 1 1.826 0v3.649a.911.911 0 0 1-.912.913zm10.314 21.259a.908.908 0 0 1-.644-.268l-2.579-2.58a.913.913 0 0 1 1.29-1.289l2.579 2.579a.913.913 0 0 1-.646 1.558zM12.26 12.679a.914.914 0 0 1-.646-.268L9.037 9.833a.914.914 0 0 1 1.29-1.293l2.579 2.579a.913.913 0 0 1-.646 1.56zM9.682 30.733a.913.913 0 0 1-.645-1.558l2.581-2.581a.91.91 0 0 1 1.288 0 .914.914 0 0 1 0 1.293l-2.579 2.58a.91.91 0 0 1-.645.266zM27.738 12.679a.913.913 0 0 1-.646-1.558l2.579-2.579a.913.913 0 1 1 1.29 1.289l-2.577 2.578a.908.908 0 0 1-.646.27z"/></svg>