<svg xmlns="http://www.w3.org/2000/svg" width="40" height="40" viewBox="0 0 40 40"><path d="M8.236 15.765A4.24 4.24 0 004 20a4.24 4.24 0 004.236 4.234A4.238 4.238 0 0012.471 20a4.239 4.239 0 00-4.235-4.235zm0 7.059A2.827 2.827 0 015.413 20a2.827 2.827 0 012.823-2.824 2.825 2.825 0 010 5.648zM20 15.765A4.24 4.24 0 0015.764 20 4.24 4.24 0 0020 24.234 4.238 4.238 0 0024.236 20 4.24 4.24 0 0020 15.765zm0 7.059A2.826 2.826 0 0117.178 20 2.826 2.826 0 0120 17.176a2.824 2.824 0 010 5.648zM31.764 15.765A4.24 4.24 0 0027.529 20a4.24 4.24 0 004.235 4.234A4.238 4.238 0 0036 20a4.24 4.24 0 00-4.236-4.235zm0 7.059A2.827 2.827 0 0128.942 20a2.827 2.827 0 012.822-2.824A2.825 2.825 0 0134.587 20a2.826 2.826 0 01-2.823 2.824z"/></svg>