<svg xmlns="http://www.w3.org/2000/svg" width="40" height="40" viewBox="0 0 40 40"><g fill="#010101"><path d="M26.197 5c-4.854 0-8.803 3.948-8.803 8.802 0 .704.084 1.402.249 2.082L5 28.554V35h6.979v-3.542h3.542v-3.542h3.541v-3.541h3.056l2.014-2.016a8.784 8.784 0 0 0 2.066.244c4.853 0 8.803-3.947 8.803-8.801C35 8.949 31.05 5 26.197 5zm0 15.938a7.125 7.125 0 0 1-2.074-.307l-.476-.144-2.223 2.221h-4.03v3.542h-3.541v3.541h-3.541v3.542H6.667v-4.091l12.851-12.875-.146-.479a7.143 7.143 0 0 1 6.825-9.222c3.935 0 7.135 3.201 7.135 7.136s-3.2 7.136-7.135 7.136z"/><circle cx="27.671" cy="12.348" r="1.666"/></g></svg>