<svg xmlns="http://www.w3.org/2000/svg" width="40" height="40"><path d="M23.481 28.551a.498.498 0 0 0 .497-.498.5.5 0 0 0-.497-.495.494.494 0 0 0-.496.495.499.499 0 0 0 .496.498zm-1.057 2.643a.498.498 0 1 0 0-.993.496.496 0 0 0 0 .993zm1.057 2.117a.504.504 0 0 0 .497-.496.498.498 0 0 0-.497-.497.496.496 0 0 0-.35.147.494.494 0 0 0 .35.846zm-8.988-3.173a.502.502 0 0 0 .496-.496.494.494 0 0 0-.496-.496.5.5 0 0 0-.496.496.496.496 0 0 0 .496.496zm-.529 2.643a.493.493 0 0 0 .496-.497.498.498 0 0 0-.496-.496.5.5 0 0 0-.497.496.5.5 0 0 0 .497.497zm1.519-4.727a.5.5 0 0 0 .496-.497.499.499 0 0 0-.496-.495.499.499 0 0 0-.351.847.5.5 0 0 0 .351.145zm4.457.499a.497.497 0 0 0 0-.994.496.496 0 0 0 0 .994zm-1.977 4.261a.496.496 0 1 0-.003-.992.496.496 0 0 0 .003.992zm-.391-2.147c.13 0 .258-.053.351-.145a.5.5 0 0 0 0-.702.5.5 0 0 0-.351-.147.502.502 0 0 0-.496.497.5.5 0 0 0 .145.352.5.5 0 0 0 .351.145zm8.899-.94a.496.496 0 1 0-.702-.7.496.496 0 0 0 .702.7zm.528 2.645a.49.49 0 0 0 0-.702.497.497 0 1 0 0 .702z"/><path d="M30.512 32.131l-6.244-17.424V5.873h.615a.688.688 0 0 0 0-1.374h-9.766a.687.687 0 0 0 0 1.374h.616l.012 8.769-6.257 17.489c-.306.855-.223 1.714.231 2.357.452.643 1.232 1.012 2.142 1.012h16.278c.91 0 1.691-.369 2.143-1.012.453-.643.536-1.502.23-2.357zM17.064 15.023a.647.647 0 0 0 .042-.231v-1.367h1.624a.57.57 0 0 0 0-1.138h-1.624v-.839h1.624a.57.57 0 0 0 0-1.138h-1.624v-.839h1.624a.57.57 0 0 0 0-1.139h-1.624V5.873h5.789v8.919a.67.67 0 0 0 .041.231l3.459 9.669h-12.79l3.459-9.669zM29.16 33.698c-.194.278-.557.429-1.021.429H11.861c-.463 0-.826-.152-1.021-.429-.196-.276-.217-.67-.061-1.104l2.418-6.762h13.604l2.419 6.76c.157.436.134.83-.06 1.106z"/></svg>