<svg xmlns="http://www.w3.org/2000/svg" width="40" height="40" viewBox="0 0 40 40"><path d="M35.27 21.108c.202-.637.23-1.298.23-1.915 0-2.065-1.362-2.511-2.387-2.667-.836-.128-3.783-.217-5.537-.261.097-.121.203-.246.311-.376.911-1.085 2.289-2.726 2.146-5.726-.088-1.812-.604-3.131-1.536-3.922a3.014 3.014 0 0 0-2.099-.738c-1.809.021-2.07 1.942-2.262 3.345-.123.912-.263 1.945-.701 2.281-1.677 1.288-3.492 2.835-4.236 4.528-.79 1.794-1.599 3.28-3.527 3.28h-.967v-2.402H4.5V34.05h10.206v-2.178c2.203.067 3.171.498 4.009 1.206 1.274 1.078 2.385 1.422 4.573 1.422 2.79 0 6.488-.076 8.27-.438.597-.121 1.391-.442 1.775-1.272.217-.47.277-.962.307-1.338.008-.102.01-.209.012-.312.002-.111.006-.3.023-.409.02-.02.039-.039.06-.063.306-.341.654-.73.823-1.338.164-.579.186-1.171.186-1.668 0-.421-.106-.734-.201-1.009-.025-.075-.049-.145-.07-.215.035-.073.117-.188.17-.265.109-.158.234-.337.314-.542.263-.668.284-1.377.284-1.991 0-.272-.018-.676-.163-1.067a1.572 1.572 0 0 0-.33-.533.831.831 0 0 0 .052-.051c.247-.253.372-.573.47-.881zM13.212 32.567H5.994V18.019h7.218v14.548zM33.846 20.66c-.064.201-.102.274-.117.294-.019.02-.064.056-.104.091-.219.186-.586.494-.595.991-.005.289.122.566.36.783.05.047.099.089.146.128.125.105.127.111.139.143.063.168.07.394.07.551 0 .479-.014 1.023-.182 1.452-.018.045-.1.163-.152.239-.227.325-.566.813-.405 1.416.038.143.082.269.12.38.073.215.122.358.122.534 0 .399-.017.862-.13 1.272-.071.253-.219.432-.471.714a.987.987 0 0 0-.27.307c-.207.372-.215.806-.222 1.157a3.469 3.469 0 0 1-.008.226c-.02.252-.057.576-.175.831-.037.081-.148.324-.72.439-1.292.264-4.123.408-7.968.408-2.014 0-2.713-.314-3.605-1.068-1.069-.902-2.316-1.48-4.977-1.559V20.42h.967c3.063 0 4.21-2.608 4.894-4.167.611-1.391 2.256-2.778 3.783-3.951.922-.707 1.099-2.002 1.269-3.255.085-.622.172-1.265.349-1.676.154-.358.289-.385.463-.385.028 0 .055-.002.082-.004.005-.002.52-.034 1.016.385.599.507.949 1.498 1.014 2.865.115 2.424-.948 3.69-1.802 4.709-.53.631-1.032 1.228-1.103 1.968a.746.746 0 0 0 .729.812c2.031.041 5.693.144 6.521.269.91.139 1.119.365 1.119 1.202.003.5-.017 1.024-.157 1.468z"/></svg>