<svg xmlns="http://www.w3.org/2000/svg" width="40" height="40" viewBox="0 0 40 40"><path d="M28.109 34.4a.635.635 0 0 1-.635-.634V24.13c0-3.484-1.788-3.484-2.462-3.484-1.878 0-2.829 1.172-2.829 3.484v9.637c0 .35-.284.634-.634.634H16.1a.634.634 0 0 1-.634-.634V15.41c0-.35.284-.634.634-.634h5.45c.35 0 .634.284.634.634v.684l.328-.271c1.29-1.067 2.829-1.608 4.574-1.608 2.157 0 3.973.689 5.251 1.994 1.35 1.378 2.063 3.43 2.063 5.933v11.625c0 .35-.285.634-.635.634h-5.656zm-3.096-15.024c1.394 0 3.732.618 3.732 4.754v9.002h4.385v-10.99c0-4.231-2.203-6.657-6.044-6.657-3.43 0-4.916 2.59-4.978 2.7a.634.634 0 0 1-.714.308.63.63 0 0 1-.479-.61v-1.837h-4.18v17.087h4.18V24.13c0-2.977 1.532-4.754 4.098-4.754zM6.78 34.4a.635.635 0 0 1-.635-.634V15.41c0-.35.285-.634.635-.634h5.685c.35 0 .634.284.634.634v18.356c0 .35-.284.634-.634.634H6.78zm.635-1.268h4.415V16.045H7.415v17.087zM9.597 13.639c-2.204 0-3.997-1.803-3.997-4.019 0-2.217 1.793-4.02 3.997-4.02 2.201 0 3.993 1.804 3.993 4.021 0 2.215-1.792 4.018-3.993 4.018zm0-6.773c-1.504 0-2.727 1.235-2.727 2.754 0 1.518 1.223 2.751 2.727 2.751 1.503 0 2.725-1.233 2.725-2.751-.001-1.518-1.222-2.754-2.725-2.754z"/></svg>