<svg xmlns="http://www.w3.org/2000/svg" width="40" height="40" viewBox="0 0 40 40"><path d="M26.904 4.9h-13.81c-1.486 0-2.694 1.233-2.694 2.75v24.703c0 1.515 1.208 2.746 2.694 2.746h13.81c1.486 0 2.695-1.231 2.695-2.746V7.65c.001-1.516-1.208-2.75-2.695-2.75zM20 31.645c.217 0 .393.181.393.402 0 .224-.176.406-.393.406s-.393-.183-.393-.406c0-.222.176-.402.393-.402zm-8.135-1.104l7.671-.022a1.6 1.6 0 0 0-1.114 1.528c0 .76.521 1.395 1.216 1.563h-6.543c-.678 0-1.229-.563-1.229-1.256v-1.813zm9.713 1.506a1.6 1.6 0 0 0-1.123-1.531l7.678-.022v1.86c0 .692-.551 1.256-1.229 1.256h-6.542a1.604 1.604 0 0 0 1.216-1.563zm6.602-3l-16.314.048V10.953l16.268-.046.046 18.14zM13.094 6.393h13.81c.678 0 1.229.564 1.229 1.261l.045 1.81-16.313.045V7.65c0-.693.552-1.257 1.229-1.257z"/><path d="M17.897 8.529h4.205c.326 0 .592-.27.592-.602a.6.6 0 0 0-.592-.604h-4.205a.6.6 0 0 0-.592.604.598.598 0 0 0 .592.602z"/></svg>