<svg xmlns="http://www.w3.org/2000/svg" width="40" height="40"><path d="M28.757 35.5a4.641 4.641 0 0 1-4.637-4.637c0-.508.095-1.02.291-1.562l.053-.147-9.788-6.17-.11.115a4.598 4.598 0 0 1-3.322 1.416 4.643 4.643 0 0 1-4.636-4.638 4.641 4.641 0 0 1 4.636-4.637 4.61 4.61 0 0 1 3.289 1.374l.106.107 9.877-5.731-.063-.156a4.608 4.608 0 0 1-.333-1.7 4.641 4.641 0 0 1 4.637-4.635 4.64 4.64 0 0 1 4.636 4.635 4.642 4.642 0 0 1-4.636 4.639 4.608 4.608 0 0 1-3.275-1.358l-.106-.107-9.884 5.735.062.157c.217.554.327 1.119.327 1.678 0 .533-.104 1.081-.312 1.627l-.057.149 9.769 6.156.111-.116a4.583 4.583 0 0 1 3.365-1.466 4.64 4.64 0 0 1 4.636 4.635 4.641 4.641 0 0 1-4.636 4.637zm0-7.702a3.047 3.047 0 0 0-2.587 1.433l-.052.094a3.023 3.023 0 0 0-.429 1.539 3.07 3.07 0 0 0 3.067 3.067 3.07 3.07 0 0 0 3.066-3.067 3.068 3.068 0 0 0-3.065-3.066zM11.243 16.811a3.07 3.07 0 0 0-3.066 3.067 3.072 3.072 0 0 0 3.066 3.068 3.056 3.056 0 0 0 2.571-1.406 3.103 3.103 0 0 0 .496-1.662c0-.522-.14-1.028-.411-1.508a1.202 1.202 0 0 1-.169-.213l-.045-.116a3.037 3.037 0 0 0-2.442-1.23zM28.757 6.069a3.07 3.07 0 0 0-3.067 3.065 3.072 3.072 0 0 0 3.067 3.069 3.072 3.072 0 0 0 3.066-3.069 3.07 3.07 0 0 0-3.066-3.065z"/></svg>