<svg xmlns="http://www.w3.org/2000/svg" width="40" height="40" viewBox="0 0 40 40"><g fill="#010101"><path d="M20 24.956a2.2 2.2 0 01-2.193-2.351l-7.476-3.081a.702.702 0 01-.38-.915.695.695 0 01.913-.38l7.478 3.083A2.226 2.226 0 0120 20.559a.7.7 0 010 1.397.804.804 0 00-.708.427.674.674 0 01-.076.184c-.007.04-.018.119-.018.191a.801.801 0 001.603 0 .7.7 0 011.398 0A2.2 2.2 0 0120 24.956z"/><path d="M32.961 31.957a.705.705 0 01-.687-.557.687.687 0 01.103-.527 15.11 15.11 0 001.015-1.812l-1.187-.489a.698.698 0 01-.377-.917.691.691 0 01.646-.431.71.71 0 01.265.052l1.189.493c.499-1.388.786-2.838.854-4.313H33.5a.699.699 0 010-1.397h1.283a14.672 14.672 0 00-.852-4.314l-1.19.493a.696.696 0 01-.915-.379.699.699 0 01.379-.914l1.193-.495a14.805 14.805 0 00-2.451-3.65l-.907.906a.69.69 0 01-.493.204.694.694 0 01-.7-.699c0-.187.073-.363.206-.495l.906-.906a14.84 14.84 0 00-3.651-2.449l-.494 1.193a.698.698 0 01-.914.379.694.694 0 01-.38-.38.708.708 0 01-.001-.535l.495-1.192a14.786 14.786 0 00-4.314-.85v1.283a.699.699 0 01-1.397 0V7.975a14.69 14.69 0 00-4.315.85l.496 1.192a.706.706 0 01-.382.915.725.725 0 01-.268.051.698.698 0 01-.645-.428l-.496-1.195a14.785 14.785 0 00-3.651 2.449l.907.908a.694.694 0 010 .988.688.688 0 01-.495.204.688.688 0 01-.495-.204l-.908-.906a14.767 14.767 0 00-2.448 3.65l1.192.494a.69.69 0 01.378.378.69.69 0 010 .537.695.695 0 01-.917.377l-1.189-.492a14.755 14.755 0 00-.851 4.315H6.5a.7.7 0 110 1.397H5.216c.069 1.48.357 2.93.856 4.313l1.187-.493a.698.698 0 01.915.915.697.697 0 01-.378.38l-1.187.49c.294.623.636 1.232 1.017 1.813a.69.69 0 01.1.525.693.693 0 01-.301.442.698.698 0 01-.969-.201A16.112 16.112 0 013.8 22.758a16.09 16.09 0 014.745-11.455A16.09 16.09 0 0120 6.559c4.33 0 8.398 1.685 11.455 4.744a16.09 16.09 0 014.744 11.455c0 3.169-.917 6.24-2.653 8.883a.698.698 0 01-.585.316z"/><path d="M15.494 33.441a1.7 1.7 0 01-1.699-1.698v-1.998a1.7 1.7 0 011.699-1.699h8.994a1.7 1.7 0 011.698 1.699v1.998a1.7 1.7 0 01-1.698 1.698h-8.994zm0-3.997a.301.301 0 00-.301.301v1.998c0 .166.135.301.301.301h8.994a.301.301 0 00.301-.301v-1.998a.301.301 0 00-.301-.301h-8.994z"/><path d="M19.491 31.442a.699.699 0 110-1.397h1a.699.699 0 010 1.397h-1zM16.992 31.442a.699.699 0 110-1.397h1a.7.7 0 010 1.397h-1zM21.99 31.442a.699.699 0 110-1.397h.999a.7.7 0 010 1.397h-.999z"/></g></svg>