<svg xmlns="http://www.w3.org/2000/svg" width="40" height="40"><path d="M12.419 35a6.236 6.236 0 0 1-5.399-3.134l-1.706-2.98a2.398 2.398 0 0 1 .886-3.261l3.979-2.477a2.467 2.467 0 0 1 1.22-.323c.818 0 1.567.411 2.004 1.101l.559.88a.895.895 0 0 0 .739.412c.11 0 .218-.023.316-.066 2.157-.861 4.979-3.395 5.794-4.149.039-.041 3.306-3.452 4.332-5.987a.87.87 0 0 0-.342-1.044l-.883-.563a2.39 2.39 0 0 1-.785-3.205l2.502-4.029C25.813 5.864 26.569 5 27.7 5c.394 0 .797.107 1.201.32l2.964 1.695c2.482 1.425 3.695 4.408 2.885 7.096-1.422 4.729-4.106 8.979-7.979 12.632-3.672 3.884-7.928 6.572-12.657 8.001a5.645 5.645 0 0 1-1.695.256zm-1.038-10.669a.837.837 0 0 0-.446.127l-3.963 2.467a.91.91 0 0 0-.431.549.853.853 0 0 0 .08.657l1.706 2.983c.846 1.476 2.449 2.467 3.987 2.467.499 0 .98-.102 1.429-.301 10.237-4.555 15.351-9.669 19.54-19.546.798-1.877-.156-4.25-2.168-5.403l-2.982-1.707a.996.996 0 0 0-.467-.123.81.81 0 0 0-.758.515l-2.471 3.96a.872.872 0 0 0 .309 1.155l.869.554a2.38 2.38 0 0 1 .938 2.895c-1.116 2.749-4.486 6.303-4.63 6.453-.029.027-3.607 3.427-6.349 4.527a2.324 2.324 0 0 1-.868.168c-.816 0-1.57-.416-2.018-1.112l-.556-.88a.921.921 0 0 0-.751-.405zm-4.613-7.199a.753.753 0 0 1-.754-.753c0-5.718 4.649-10.37 10.364-10.37.417 0 .755.34.755.754a.756.756 0 0 1-.755.755c-4.882 0-8.856 3.971-8.856 8.855a.759.759 0 0 1-.754.759zm5.575 0a.753.753 0 0 1-.753-.753 4.791 4.791 0 0 1 4.788-4.787.755.755 0 0 1 0 1.507 3.284 3.284 0 0 0-3.28 3.28.755.755 0 0 1-.755.753z" fill="#010101"/></svg>