<?xml version="1.0" encoding="utf-8"?>
<!-- Generator: Adobe Illustrator 14.0.0, SVG Export Plug-In . SVG Version: 6.00 Build 43363)  -->
<!DOCTYPE svg PUBLIC "-//W3C//DTD SVG 1.1//EN" "http://www.w3.org/Graphics/SVG/1.1/DTD/svg11.dtd">
<svg version="1.1" id="Layer_1" xmlns="http://www.w3.org/2000/svg" xmlns:xlink="http://www.w3.org/1999/xlink" x="0px" y="0px"
	 width="40px" height="40px" viewBox="0 0 40 40" enable-background="new 0 0 40 40" xml:space="preserve">
<g display="none">
	<path display="inline" d="M20.01,36.5c-0.277,0-0.537-0.137-0.693-0.368L9.468,21.529c-1.171-1.861-1.79-3.993-1.79-6.162
		C7.678,8.824,13.206,3.5,20,3.5c6.795,0,12.322,5.324,12.322,11.867c0,2.164-0.612,4.284-1.77,6.129l-9.851,14.636
		C20.547,36.363,20.287,36.5,20.01,36.5L20.01,36.5z M20,5.17c-5.873,0-10.652,4.574-10.652,10.197c0,1.854,0.525,3.669,1.52,5.251
		l9.14,13.55l9.146-13.581c0.981-1.566,1.499-3.371,1.499-5.22C30.652,9.744,25.873,5.17,20,5.17L20,5.17z"/>
	<path display="inline" d="M20,20.857c-3.159,0-5.728-2.482-5.728-5.535c0-3.051,2.569-5.534,5.728-5.534s5.729,2.483,5.729,5.534
		C25.729,18.375,23.158,20.857,20,20.857L20,20.857z M20,11.458c-2.237,0-4.057,1.734-4.057,3.864c0,2.13,1.82,3.865,4.057,3.865
		s4.058-1.734,4.058-3.865C24.058,13.192,22.236,11.458,20,11.458L20,11.458z"/>
</g>
<path display="none" d="M36.705,34.289L26.059,23.615c3.918-4.69,3.688-11.708-0.707-16.114C23.1,5.243,20.104,4,16.919,4
	S10.74,5.243,8.488,7.501c-4.647,4.66-4.647,12.241,0,16.899c2.253,2.257,5.248,3.5,8.431,3.5c2.866,0,5.573-1.015,7.728-2.86
	l10.639,10.665C35.479,35.902,35.738,36,35.994,36s0.514-0.098,0.709-0.293C37.096,35.316,37.097,34.68,36.705,34.289z
	 M9.766,23.126c-3.945-3.958-3.945-10.395,0-14.351c1.912-1.914,4.452-2.97,7.153-2.97s5.243,1.056,7.153,2.97
	c3.946,3.956,3.946,10.394,0,14.351c-1.91,1.914-4.452,2.969-7.153,2.969S11.678,25.04,9.766,23.126z"/>
<path display="none" d="M25.38,34.848c-0.066,0-0.136-0.009-0.206-0.024l-10.498-2.561l-10.61,2.561
	c-0.069,0.016-0.139,0.024-0.205,0.024c-0.191,0-0.38-0.064-0.532-0.184C3.12,34.5,3,34.252,3,33.986V8.635
	c0-0.397,0.27-0.741,0.657-0.836l10.76-2.623l0.407,0.003l10.504,2.558l10.607-2.561c0.065-0.016,0.135-0.023,0.203-0.023
	c0.195,0,0.38,0.063,0.533,0.183C36.881,5.499,37,5.746,37,6.012v25.352c0,0.397-0.27,0.741-0.656,0.837l-10.759,2.622
	C25.516,34.839,25.446,34.848,25.38,34.848L25.38,34.848z M15.481,30.688l9.039,2.203V9.311l-9.039-2.203V30.688z M26.24,9.311
	v23.58l9.039-2.202V7.108L26.24,9.311z M4.721,9.311v23.58l9.039-2.202V7.108L4.721,9.311z"/>
<g display="none">
	<path display="inline" d="M9.708,35C7.112,35,5,32.893,5,30.303c0-2.592,2.112-4.699,4.708-4.699c2.595,0,4.707,2.107,4.707,4.699
		C14.415,32.893,12.303,35,9.708,35L9.708,35z M9.708,27.445c-1.578,0-2.863,1.281-2.863,2.857c0,1.574,1.285,2.855,2.863,2.855
		c1.578,0,2.861-1.281,2.861-2.855C12.568,28.727,11.285,27.445,9.708,27.445L9.708,27.445z"/>
	<path display="inline" d="M24.574,35c-0.621,0-1.125-0.505-1.125-1.126c0-9.552-7.771-17.324-17.323-17.324
		C5.505,16.55,5,16.045,5,15.425s0.505-1.126,1.126-1.126c10.792,0,19.573,8.781,19.573,19.575C25.699,34.495,25.193,35,24.574,35
		L24.574,35z"/>
	<path display="inline" d="M33.916,35c-0.597,0-1.082-0.486-1.082-1.084c0-14.75-12-26.751-26.751-26.751
		C5.486,7.165,5,6.68,5,6.083C5,5.486,5.486,5,6.083,5C22.027,5,35,17.972,35,33.916C35,34.514,34.514,35,33.916,35L33.916,35z"/>
</g>
<g display="none">
	<path display="inline" fill-rule="evenodd" clip-rule="evenodd" d="M20,29.616c-6.911,0-13.412-3.681-17-9.615
		c3.588-5.935,10.089-9.617,17-9.617c6.91,0,13.412,3.682,17,9.617C33.412,25.936,26.91,29.616,20,29.616L20,29.616z M19.998,12.254
		c-5.817,0-11.309,2.848-14.687,7.618l-0.088,0.125l0.088,0.124c3.378,4.77,8.87,7.618,14.687,7.618
		c5.82,0,11.311-2.849,14.687-7.618l0.089-0.124l-0.089-0.125C31.309,15.103,25.818,12.254,19.998,12.254L19.998,12.254z"/>
	<path display="inline" fill-rule="evenodd" clip-rule="evenodd" d="M19.987,13.521c-3.574,0-6.478,2.9-6.478,6.479
		c0,3.579,2.904,6.478,6.478,6.478c3.581,0,6.478-2.898,6.478-6.478C26.465,16.42,23.568,13.521,19.987,13.521z M19.987,24.857
		c-2.68,0-4.858-2.175-4.858-4.858s2.178-4.859,4.858-4.859c2.686,0,4.858,2.175,4.858,4.859S22.673,24.857,19.987,24.857z"/>
</g>
<path display="none" d="M7.336,35.5c-0.399,0-0.725-0.325-0.725-0.726v-7.599c0-0.4,0.326-0.725,0.725-0.725h3.181v-6.336
	c0-0.342,0.276-0.619,0.619-0.619h8.247v-5.949h-3.181c-0.398,0-0.725-0.325-0.725-0.726V5.223c0-0.399,0.326-0.723,0.725-0.723
	h7.598c0.398,0,0.725,0.324,0.725,0.723v7.599c0,0.401-0.326,0.726-0.725,0.726H20.62v5.949h8.245c0.341,0,0.618,0.277,0.618,0.619
	v6.336h3.182c0.397,0,0.724,0.324,0.724,0.725v7.599c0,0.399-0.326,0.725-0.724,0.725h-7.599c-0.4,0-0.726-0.325-0.726-0.725v-7.599
	c0-0.4,0.325-0.725,0.726-0.725h3.179v-5.717H11.754v5.717h3.18c0.399,0,0.725,0.324,0.725,0.725v7.599
	c0,0.4-0.325,0.726-0.725,0.726H7.336z M8.061,34.051h6.149V27.9H8.061V34.051z M25.79,34.051h6.149V27.9H25.79V34.051z
	 M16.927,12.099h6.146V5.949h-6.146V12.099z"/>
<g display="none">
	<path display="inline" d="M11.018,35.01c-0.402,0-0.736-0.314-0.759-0.717L8.879,9.946H5.75c-0.419,0-0.76-0.342-0.76-0.76
		c0-0.419,0.341-0.761,0.76-0.761h3.59L9.495,8.45L9.6,8.426h5.171V5.75c0-0.419,0.34-0.76,0.76-0.76h8.939
		c0.419,0,0.76,0.341,0.76,0.76v2.676h5.174l0.175,0.028l0.118-0.028h3.554c0.419,0,0.76,0.342,0.76,0.761
		c0,0.418-0.341,0.76-0.76,0.76h-3.128l-1.36,24.346c-0.023,0.402-0.356,0.718-0.759,0.718H11.018z M11.735,33.49h16.549L29.6,9.946
		H10.4L11.735,33.49z M16.29,8.426h7.42V6.51h-7.42V8.426z"/>
	<path display="inline" d="M14.302,12.201c-0.249,0.012-0.435,0.102-0.57,0.252c-0.135,0.152-0.203,0.348-0.192,0.551l0.998,17.608
		c0.024,0.401,0.357,0.716,0.759,0.716v0.19l0.045-0.19c0.417-0.024,0.737-0.385,0.715-0.804l-0.999-17.606
		C15.034,12.516,14.702,12.201,14.302,12.201L14.302,12.201z"/>
	<path display="inline" d="M25.709,12.202c-0.445,0-0.776,0.314-0.8,0.716l-1,17.606c-0.022,0.419,0.298,0.779,0.717,0.804
		l0.044,0.19v-0.19c0.402,0,0.735-0.314,0.757-0.716l1.001-17.608c0.011-0.203-0.058-0.398-0.192-0.551
		c-0.136-0.15-0.321-0.24-0.523-0.251C25.711,12.202,25.71,12.202,25.709,12.202L25.709,12.202z"/>
	<path display="inline" d="M20,12.201c-0.419,0-0.76,0.341-0.76,0.76v17.607c0,0.419,0.341,0.76,0.76,0.76s0.76-0.341,0.76-0.76
		V12.961C20.76,12.542,20.419,12.201,20,12.201L20,12.201z"/>
</g>
<g display="none">
	<path display="inline" d="M8.236,15.765C5.901,15.765,4,17.665,4,20c0,2.336,1.901,4.234,4.236,4.234
		c2.336,0,4.235-1.898,4.235-4.234C12.472,17.665,10.572,15.765,8.236,15.765z M8.236,22.824c-1.557,0-2.823-1.268-2.823-2.824
		c0-1.557,1.267-2.824,2.823-2.824c1.558,0,2.822,1.267,2.822,2.824C11.059,21.557,9.794,22.824,8.236,22.824z"/>
	<path display="inline" d="M20,15.765c-2.334,0-4.236,1.899-4.236,4.235c0,2.336,1.902,4.234,4.236,4.234
		c2.337,0,4.236-1.898,4.236-4.234C24.236,17.665,22.337,15.765,20,15.765z M20,22.824c-1.557,0-2.822-1.268-2.822-2.824
		c0-1.557,1.266-2.824,2.822-2.824c1.559,0,2.822,1.267,2.822,2.824C22.822,21.557,21.559,22.824,20,22.824z"/>
	<path display="inline" d="M31.764,15.765c-2.334,0-4.235,1.899-4.235,4.235c0,2.336,1.901,4.234,4.235,4.234
		C34.101,24.234,36,22.336,36,20C36,17.665,34.101,15.765,31.764,15.765z M31.764,22.824c-1.556,0-2.822-1.268-2.822-2.824
		c0-1.557,1.267-2.824,2.822-2.824c1.559,0,2.823,1.267,2.823,2.824C34.587,21.557,33.322,22.824,31.764,22.824z"/>
</g>
<path display="none" d="M33.125,19.125H8.98L20.841,7.5c0.345-0.338,0.351-0.892,0.013-1.237s-0.892-0.35-1.237-0.012L6.262,19.339
	C6.095,19.503,6,19.729,6,19.965c0,0.005,0,0.011,0,0.017C6,19.989,6,19.994,6,20c0,0.319,0.171,0.598,0.427,0.751L19.69,33.75
	c0.17,0.167,0.392,0.25,0.613,0.25c0.227,0,0.453-0.088,0.625-0.262c0.338-0.346,0.332-0.9-0.013-1.238L9.055,20.875h24.07
	C33.607,20.875,34,20.483,34,20S33.607,19.125,33.125,19.125z"/>
<path display="none" d="M34,20c0-0.32-0.172-0.599-0.428-0.751L20.31,6.25c-0.345-0.338-0.899-0.333-1.237,0.012
	S18.738,7.161,19.084,7.5l11.861,11.625H6.875C6.393,19.125,6,19.517,6,20s0.393,0.875,0.875,0.875H31.02L19.158,32.5
	c-0.344,0.339-0.35,0.893-0.012,1.238C19.318,33.912,19.545,34,19.771,34c0.221,0,0.442-0.083,0.612-0.25l13.353-13.089
	C33.904,20.497,34,20.271,34,20.035c0-0.005-0.001-0.011-0.001-0.017C33.999,20.011,34,20.006,34,20z"/>
<path display="none" d="M33.75,19.616L20.66,6.262C20.496,6.095,20.271,6,20.037,6c-0.007,0-0.014,0.001-0.02,0.001S20.006,6,20,6
	c-0.32,0-0.598,0.172-0.751,0.428L6.25,19.69c-0.338,0.345-0.332,0.899,0.013,1.237c0.171,0.167,0.391,0.25,0.612,0.25
	c0.227-0.001,0.454-0.088,0.625-0.263l11.625-11.86v24.07C19.125,33.607,19.518,34,20,34c0.483,0,0.875-0.393,0.875-0.875V8.981
	L32.5,20.841c0.338,0.345,0.893,0.35,1.237,0.013C34.082,20.515,34.088,19.96,33.75,19.616z"/>
<path display="none" d="M33.737,19.071c-0.345-0.337-0.899-0.332-1.237,0.014l-11.625,11.86V6.875C20.875,6.392,20.483,6,20,6
	c-0.482,0-0.875,0.392-0.875,0.875V31.02L7.5,19.159c-0.338-0.345-0.892-0.351-1.237-0.013c-0.345,0.338-0.351,0.892-0.013,1.237
	l13.09,13.354C19.504,33.905,19.729,34,19.965,34c0.005,0,0.012-0.001,0.018-0.001C19.989,33.999,19.994,34,20,34
	c0.32,0,0.599-0.172,0.752-0.428L33.75,20.31C34.088,19.965,34.082,19.41,33.737,19.071z"/>
<path display="none" d="M26.714,34c-0.222,0-0.442-0.083-0.612-0.251l-13.429-13.16c-0.167-0.164-0.262-0.39-0.262-0.624
	c0-0.236,0.095-0.462,0.262-0.626L26.027,6.251c0.344-0.339,0.898-0.334,1.237,0.011c0.338,0.346,0.331,0.899-0.013,1.237
	L14.536,19.965l12.79,12.536c0.345,0.337,0.351,0.892,0.013,1.237C27.168,33.912,26.939,34,26.714,34z"/>
<path display="none" d="M13.36,34c-0.225,0-0.453-0.088-0.624-0.262c-0.339-0.346-0.333-0.899,0.01-1.237l12.717-12.466
	L12.673,7.499c-0.345-0.339-0.35-0.893-0.013-1.237c0.34-0.344,0.894-0.35,1.238-0.012l13.429,13.161
	c0.167,0.164,0.262,0.39,0.262,0.624c0,0.236-0.094,0.461-0.262,0.625L13.974,33.75C13.803,33.917,13.581,34,13.36,34z"/>
<path display="none" d="M5.938,28.131c-0.236,0-0.474-0.089-0.657-0.269c-0.368-0.362-0.375-0.956-0.012-1.325L19.37,12.149
	c0.176-0.179,0.417-0.28,0.669-0.28s0.493,0.101,0.669,0.28l14.023,14.308c0.363,0.369,0.356,0.963-0.012,1.326
	c-0.37,0.361-0.965,0.356-1.326-0.014L20.039,14.146L6.608,27.85C6.423,28.037,6.182,28.13,5.938,28.131z"/>
<path display="none" d="M19.962,28.131c-0.253,0-0.493-0.102-0.67-0.281L5.27,13.542c-0.364-0.37-0.357-0.963,0.011-1.326
	c0.372-0.362,0.965-0.356,1.326,0.013l13.354,13.625l13.433-13.704c0.361-0.37,0.954-0.376,1.326-0.015
	c0.368,0.363,0.375,0.957,0.013,1.327L20.632,27.85C20.454,28.029,20.214,28.131,19.962,28.131z"/>
<g display="none">
	<path display="inline" d="M6.72,34C6.323,34,6,33.678,6,33.281v-5.811c0-0.396,0.323-0.721,0.72-0.721h5.81
		c0.397,0,0.72,0.324,0.72,0.721v5.811c0,0.396-0.323,0.719-0.72,0.719H6.72z M7.439,32.561h4.371v-4.371H7.439V32.561z"/>
	<path display="inline" d="M17.095,34c-0.396,0-0.72-0.322-0.72-0.719v-5.811c0-0.396,0.323-0.721,0.72-0.721h5.811
		c0.396,0,0.72,0.324,0.72,0.721v5.811c0,0.396-0.323,0.719-0.72,0.719H17.095z M17.815,32.561h4.371v-4.371h-4.371V32.561z"/>
	<path display="inline" d="M27.471,34c-0.397,0-0.721-0.322-0.721-0.719v-5.811c0-0.396,0.323-0.721,0.721-0.721h5.81
		c0.396,0,0.72,0.324,0.72,0.721v5.811C34,33.678,33.677,34,33.28,34H27.471z M28.189,32.561h4.371v-4.371h-4.371V32.561z"/>
	<path display="inline" d="M6.72,23.625c-0.396,0-0.72-0.322-0.72-0.719v-5.811c0-0.397,0.323-0.72,0.72-0.72h5.81
		c0.397,0,0.72,0.323,0.72,0.72v5.811c0,0.396-0.323,0.719-0.72,0.719H6.72z M7.439,22.186h4.371v-4.371H7.439V22.186z"/>
	<path display="inline" d="M17.095,23.625c-0.396,0-0.72-0.322-0.72-0.719v-5.811c0-0.397,0.323-0.72,0.72-0.72h5.811
		c0.396,0,0.72,0.323,0.72,0.72v5.811c0,0.396-0.323,0.719-0.72,0.719H17.095z M17.815,22.186h4.371v-4.371h-4.371V22.186z"/>
	<path display="inline" d="M27.471,23.625c-0.397,0-0.721-0.322-0.721-0.719v-5.811c0-0.397,0.323-0.72,0.721-0.72h5.81
		c0.396,0,0.72,0.323,0.72,0.72v5.811c0,0.396-0.323,0.719-0.72,0.719H27.471z M28.189,22.186h4.371v-4.371h-4.371V22.186z"/>
	<path display="inline" d="M6.72,13.25C6.323,13.25,6,12.927,6,12.531v-5.81C6,6.324,6.323,6,6.72,6h5.81
		c0.397,0,0.72,0.323,0.72,0.72v5.81c0,0.396-0.323,0.719-0.72,0.719H6.72z M7.439,11.811h4.371V7.439H7.439V11.811z"/>
	<path display="inline" d="M17.095,13.25c-0.396,0-0.72-0.322-0.72-0.719v-5.81c0-0.397,0.323-0.72,0.72-0.72h5.811
		c0.396,0,0.72,0.323,0.72,0.72v5.81c0,0.396-0.323,0.719-0.72,0.719H17.095z M17.815,11.811h4.371V7.439h-4.371V11.811z"/>
	<path display="inline" d="M27.471,13.25c-0.397,0-0.721-0.322-0.721-0.719v-5.81c0-0.397,0.323-0.72,0.721-0.72h5.81
		C33.677,6,34,6.324,34,6.721v5.81c0,0.396-0.323,0.719-0.72,0.719H27.471z M28.189,11.811h4.371V7.439h-4.371V11.811z"/>
</g>
<g display="none">
	<path display="inline" d="M16.225,8.013h16.949C33.63,8.013,34,7.642,34,7.185c0-0.455-0.37-0.826-0.826-0.826H16.225
		c-0.457,0-0.827,0.371-0.827,0.826C15.398,7.642,15.768,8.013,16.225,8.013z"/>
	<path display="inline" d="M33.174,11.423H16.225c-0.457,0-0.827,0.369-0.827,0.826s0.37,0.826,0.827,0.826h16.949
		c0.456,0,0.826-0.369,0.826-0.826S33.63,11.423,33.174,11.423z"/>
	<path display="inline" d="M33.174,16.692H16.225c-0.457,0-0.827,0.371-0.827,0.827s0.37,0.827,0.827,0.827h16.949
		c0.456,0,0.826-0.371,0.826-0.827S33.63,16.692,33.174,16.692z"/>
	<path display="inline" d="M33.174,21.653H16.225c-0.457,0-0.827,0.371-0.827,0.827s0.37,0.827,0.827,0.827h16.949
		c0.456,0,0.826-0.371,0.826-0.827S33.63,21.653,33.174,21.653z"/>
	<path display="inline" d="M33.174,27.027H16.225c-0.457,0-0.827,0.37-0.827,0.827c0,0.456,0.37,0.826,0.827,0.826h16.949
		c0.456,0,0.826-0.37,0.826-0.826C34,27.397,33.63,27.027,33.174,27.027z"/>
	<path display="inline" d="M33.174,31.987H16.225c-0.457,0-0.827,0.371-0.827,0.828c0,0.455,0.37,0.826,0.827,0.826h16.949
		c0.456,0,0.826-0.371,0.826-0.826C34,32.358,33.63,31.987,33.174,31.987z"/>
	<path display="inline" d="M6.717,33.53C6.322,33.53,6,33.21,6,32.815v-4.961c0-0.396,0.322-0.717,0.717-0.717h4.961
		c0.395,0,0.717,0.321,0.717,0.717v4.961c0,0.395-0.322,0.715-0.717,0.715H6.717z M7.434,32.098h3.526V28.57H7.434V32.098z"/>
	<path display="inline" d="M6.717,23.196C6.322,23.196,6,22.876,6,22.48V17.52c0-0.396,0.322-0.717,0.717-0.717h4.961
		c0.395,0,0.717,0.321,0.717,0.717v4.961c0,0.396-0.322,0.716-0.717,0.716H6.717z M7.434,21.763h3.526v-3.527H7.434V21.763z"/>
	<path display="inline" d="M6.717,12.862C6.322,12.862,6,12.541,6,12.146V7.185C6,6.79,6.322,6.468,6.717,6.468h4.961
		c0.395,0,0.717,0.322,0.717,0.717v4.961c0,0.396-0.322,0.717-0.717,0.717H6.717z M7.434,11.429h3.526V7.901H7.434V11.429z"/>
</g>
<g display="none">
	<path display="inline" d="M34.063,10.625H5.938C5.419,10.625,5,10.204,5,9.688C5,9.17,5.419,8.75,5.938,8.75h28.125
		C34.58,8.75,35,9.17,35,9.688C35,10.204,34.58,10.625,34.063,10.625"/>
	<path display="inline" d="M34.063,20.938H5.938C5.419,20.938,5,20.517,5,20c0-0.518,0.419-0.938,0.938-0.938h28.125
		C34.58,19.063,35,19.482,35,20C35,20.517,34.58,20.938,34.063,20.938"/>
	<path display="inline" d="M34.063,31.25H5.938C5.419,31.25,5,30.829,5,30.313c0-0.518,0.419-0.938,0.938-0.938h28.125
		c0.518,0,0.938,0.42,0.938,0.938C35,30.829,34.58,31.25,34.063,31.25"/>
	<path display="inline" d="M34.063,20.938H5.938C5.419,20.938,5,20.517,5,20c0-0.518,0.419-0.938,0.938-0.938h28.125
		C34.58,19.063,35,19.482,35,20C35,20.517,34.58,20.938,34.063,20.938"/>
</g>
<path display="none" d="M21.414,20L33.207,8.207c0.391-0.39,0.391-1.023,0-1.414c-0.391-0.391-1.023-0.391-1.414,0L20,18.586
	L8.207,6.793c-0.39-0.391-1.023-0.391-1.414,0c-0.391,0.391-0.391,1.023,0,1.414L18.586,20L6.793,31.793
	c-0.391,0.391-0.391,1.023,0,1.414C6.988,33.402,7.245,33.5,7.5,33.5c0.256,0,0.511-0.098,0.707-0.293L20,21.414l11.793,11.793
	c0.195,0.195,0.451,0.293,0.707,0.293s0.512-0.098,0.707-0.293c0.391-0.391,0.391-1.023,0-1.414L21.414,20z"/>
<path display="none" d="M9.411,35C9,35,8.653,34.658,8.653,34.254V5.758C8.653,5.34,8.992,5,9.411,5h14.706
	c0.198,0,0.394,0.084,0.546,0.236l6.449,6.461c0.15,0.13,0.235,0.324,0.235,0.535v22.021C31.347,34.658,31,35,30.589,35H9.411z
	 M10.17,33.496h19.672V12.989h-5.726c-0.419,0-0.759-0.34-0.759-0.757V6.504H10.17V33.496z M24.875,11.485h3.9l-3.9-3.914V11.485z"
	/>
<g display="none">
	<path display="inline" d="M12.966,17.262c-0.483,0-0.878,0.395-0.878,0.878s0.395,0.877,0.878,0.877h13.518
		c0.483,0,0.878-0.394,0.878-0.877s-0.395-0.878-0.878-0.878H12.966L12.966,17.262z"/>
	<path display="inline" d="M9.411,35C9,35,8.652,34.658,8.652,34.254V5.758C8.652,5.34,8.992,5,9.411,5h14.704
		c0.2,0,0.395,0.084,0.547,0.236l6.449,6.461c0.15,0.13,0.236,0.324,0.236,0.534v22.022c0,0.404-0.349,0.746-0.759,0.746H9.411z
		 M10.17,33.496h19.672V12.989h-5.727c-0.417,0-0.758-0.34-0.758-0.757V6.504H10.17V33.496z M24.875,11.485h3.9l-3.9-3.915V11.485z"
		/>
	<path display="inline" d="M12.966,21.164c-0.483,0-0.878,0.395-0.878,0.878s0.395,0.878,0.878,0.878h13.518
		c0.483,0,0.878-0.395,0.878-0.878s-0.395-0.878-0.878-0.878H12.966L12.966,21.164z"/>
	<path display="inline" d="M12.966,25.065c-0.483,0-0.878,0.395-0.878,0.878c0,0.484,0.395,0.877,0.878,0.877h13.518
		c0.483,0,0.878-0.393,0.878-0.877c0-0.483-0.395-0.878-0.878-0.878H12.966L12.966,25.065z"/>
</g>
<g display="none">
	<path display="inline" d="M14.766,16.227c0,0.45,0.367,0.816,0.817,0.816h12.578c0.449,0,0.817-0.367,0.817-0.816
		c0-0.451-0.368-0.817-0.817-0.817H15.583C15.133,15.41,14.766,15.776,14.766,16.227z"/>
	<path display="inline" d="M32.468,10.232l-6.002-6.013C26.324,4.078,26.144,4,25.959,4H12.274c-0.389,0-0.706,0.316-0.706,0.706
		v26.516c0,0.377,0.323,0.694,0.706,0.694h14.757v2.685H8.727V9.484H11.5v-1.4H8.02c-0.389,0-0.706,0.317-0.706,0.707v26.515
		C7.313,35.683,7.637,36,8.02,36h19.706c0.383,0,0.706-0.317,0.706-0.694v-3.39h3.549c0.383,0,0.706-0.317,0.706-0.694V10.729
		C32.687,10.533,32.607,10.354,32.468,10.232z M26.664,6.393l3.63,3.642h-3.63V6.393z M31.286,30.516H12.981V5.399h12.271v5.33
		c0,0.388,0.315,0.705,0.706,0.705h5.327V30.516z"/>
	<path display="inline" d="M28.161,19.041H15.583c-0.45,0-0.817,0.367-0.817,0.817c0,0.45,0.367,0.816,0.817,0.816h12.578
		c0.449,0,0.817-0.367,0.817-0.816C28.979,19.407,28.61,19.041,28.161,19.041z"/>
	<path display="inline" d="M28.161,22.672H15.583c-0.45,0-0.817,0.365-0.817,0.816s0.367,0.816,0.817,0.816h12.578
		c0.449,0,0.817-0.365,0.817-0.816S28.61,22.672,28.161,22.672z"/>
	<path display="inline" d="M11.5,19.495h-0.172c-0.45,0-0.817,0.367-0.817,0.816c0,0.451,0.367,0.818,0.817,0.818H11.5V19.495z"/>
	<path display="inline" d="M11.5,23.125h-0.172c-0.45,0-0.817,0.367-0.817,0.816c0,0.451,0.367,0.818,0.817,0.818H11.5V23.125z"/>
	<path display="inline" d="M10.511,27.573c0,0.45,0.367,0.816,0.817,0.816H11.5v-1.634h-0.172
		C10.878,26.756,10.511,27.123,10.511,27.573z"/>
</g>
<path display="none" d="M35.823,14.582c-0.145-0.174-0.359-0.274-0.585-0.274h-2.286V8.381c0-0.42-0.341-0.762-0.762-0.762H7.81
	c-0.421,0-0.762,0.341-0.762,0.762v3.279H4.762c-0.222,0-0.435,0.097-0.579,0.267c-0.145,0.169-0.208,0.394-0.173,0.614
	l3.048,19.197c0.06,0.369,0.377,0.643,0.752,0.643H32.19c0.367,0,0.683-0.264,0.75-0.625l3.048-16.549
	C36.028,14.985,35.969,14.755,35.823,14.582z M8.571,9.144h22.857v5.165H16.437l-3.621-2.512c-0.127-0.089-0.277-0.136-0.435-0.136
	h-3.81V9.144z M31.558,30.856H8.46L5.655,13.184h6.487l3.621,2.511c0.127,0.089,0.28,0.137,0.435,0.137h18.125L31.558,30.856z"/>
<path display="none" d="M8.944,35c-1.054,0-2.044-0.41-2.789-1.156C5.41,33.1,5,32.109,5,31.056s0.41-2.044,1.155-2.788
	l12.549-12.549l-0.896-3.995c-0.074-0.276,0.004-0.569,0.202-0.768l5.727-5.724C23.887,5.083,24.084,5,24.295,5
	c0.069,0,0.138,0.009,0.203,0.027L28.8,6.18c0.271,0.072,0.485,0.285,0.558,0.556c0.072,0.272-0.006,0.564-0.203,0.762l-4.27,4.271
	l0.609,2.497l2.623,0.883l4.383-4.301c0.15-0.15,0.348-0.232,0.56-0.232c0.069,0,0.138,0.009,0.204,0.026
	c0.271,0.073,0.484,0.288,0.557,0.559l1.152,4.302c0.074,0.272-0.004,0.563-0.203,0.761l-5.727,5.726
	c-0.149,0.15-0.347,0.231-0.558,0.231c-0.069,0-0.138-0.009-0.203-0.027l-3.673-0.983l-2.324,2.084L11.733,33.845
	C10.988,34.59,9.997,35,8.944,35L8.944,35z M19.449,11.75l1.035,3.862c0.072,0.271-0.006,0.563-0.204,0.761L7.27,29.382
	c-0.447,0.446-0.694,1.042-0.694,1.674c0,0.633,0.247,1.227,0.694,1.673c0.449,0.448,1.043,0.695,1.674,0.695
	c0.632,0,1.227-0.247,1.674-0.695l13.009-13.005c0.146-0.147,0.35-0.231,0.559-0.231c0.069,0,0.138,0.009,0.203,0.026l3.672,0.983
	l5.131-4.89l-0.387-2.106l-0.154-0.579l-3.672,3.673c-0.149,0.149-0.348,0.231-0.558,0.231c-0.069,0-0.138-0.009-0.203-0.026
	l-3.521-0.943c-0.271-0.072-0.484-0.285-0.557-0.556l-0.943-3.521c-0.072-0.272,0.006-0.564,0.203-0.762l3.673-3.672l-2.544-0.68
	L19.449,11.75z"/>
<path display="none" d="M35.667,18.241L20.476,7.193C20.338,7.091,20.173,7.038,20,7.038s-0.337,0.054-0.477,0.155l-6.715,4.884
	v-1.85c0-0.53-0.371-0.961-0.828-0.961H8.334c-0.457,0-0.828,0.432-0.828,0.961v5.706l-3.173,2.308
	c-0.361,0.263-0.441,0.771-0.178,1.132c0.151,0.208,0.397,0.332,0.655,0.332c0.172,0,0.336-0.053,0.477-0.154l2.321-1.688v14.29
	c0,0.447,0.363,0.811,0.81,0.811h8.178c0.447,0,0.81-0.363,0.81-0.811v-9.715h5.191v9.715c0,0.447,0.362,0.811,0.809,0.811h8.178
	c0.447,0,0.811-0.363,0.811-0.811v-14.29l2.322,1.688c0.137,0.101,0.301,0.154,0.475,0.154c0.259,0,0.504-0.124,0.656-0.332
	C36.107,19.011,36.027,18.504,35.667,18.241z M9.162,11.188h1.991v2.092l-1.991,1.448V11.188z M30.772,31.342h-6.558v-9.714
	c0-0.446-0.363-0.81-0.811-0.81h-6.809c-0.447,0-0.81,0.364-0.81,0.81v9.714H9.228V16.684L20,8.85l10.772,7.834V31.342z"/>
<g display="none">
	<path display="inline" d="M9.196,36c-0.43,0-0.766-0.338-0.766-0.767c0-0.431,0.336-0.768,0.766-0.768h2.006V10.234l-0.071-0.021
		c-0.667-0.201-1.228-0.588-1.666-1.148c-0.436-0.555-0.656-1.201-0.656-1.92c0-0.88,0.308-1.63,0.915-2.229
		C10.337,4.308,11.092,4,11.968,4c0.888,0,1.627,0.299,2.26,0.915c0.617,0.604,0.93,1.354,0.93,2.229
		c0,0.708-0.226,1.354-0.672,1.92c-0.449,0.576-0.998,0.951-1.681,1.147l-0.072,0.021v0.956l10.374,2.568
		c0.359,0.089,0.602,0.397,0.602,0.77v2.013l9.285,2.478c0.355,0.093,0.543,0.315,0.572,0.681c0.027,0.363-0.113,0.622-0.417,0.77
		l-9.903,4.772c-0.1,0.066-0.202,0.098-0.32,0.098c-0.144,0-0.285-0.043-0.418-0.125c-0.237-0.148-0.348-0.357-0.348-0.656v-1.558
		l-9.426,3.362v8.104h2.037c0.438,0,0.782,0.337,0.782,0.768c0,0.429-0.343,0.767-0.782,0.767H9.196z M12.734,24.729l9.426-3.359
		v-6.242l-9.426-2.334V24.729z M23.709,23.33l6.888-3.335l-6.888-1.85V23.33z M11.964,5.534c-0.433,0-0.836,0.166-1.137,0.468
		c-0.625,0.624-0.625,1.654-0.001,2.297c0.297,0.306,0.701,0.474,1.138,0.474c0.437,0,0.848-0.168,1.16-0.473
		c0.321-0.312,0.497-0.726,0.494-1.165C13.615,6.702,13.439,6.3,13.123,6C12.808,5.7,12.396,5.534,11.964,5.534L11.964,5.534z"/>
</g>
<path display="none" d="M33.334,12.095h-6.857v-1.143c0-1.996-1.623-3.619-3.619-3.619h-5.714c-1.995,0-3.619,1.623-3.619,3.619
	v1.143H6.667C5.196,12.095,4,13.292,4,14.762v5.714V30c0,1.471,1.196,2.666,2.667,2.666h26.667C34.805,32.666,36,31.471,36,30
	v-9.524v-5.714C36,13.292,34.805,12.095,33.334,12.095z M15.048,10.952c0-1.154,0.94-2.095,2.095-2.095h5.714
	c1.155,0,2.095,0.941,2.095,2.095v1.143h-9.904V10.952z M5.524,14.762c0-0.631,0.513-1.143,1.143-1.143h26.667
	c0.631,0,1.143,0.512,1.143,1.143v4.953H5.524V14.762z M24.762,21.238h3.81v2.158h-3.81V21.238z M11.43,21.238h3.81v2.158h-3.81
	V21.238z M33.334,31.143H6.667c-0.63,0-1.143-0.514-1.143-1.143v-8.762h4.382v2.92c0,0.422,0.34,0.762,0.762,0.762h5.333
	c0.421,0,0.762-0.34,0.762-0.762v-2.92h6.476v2.92c0,0.422,0.342,0.762,0.762,0.762h5.334c0.421,0,0.762-0.34,0.762-0.762v-2.92
	h4.381V30C34.477,30.629,33.965,31.143,33.334,31.143z"/>
<path display="none" d="M25.033,14.427v-5.28c1.936-0.543,3.324-2.324,3.324-4.388c0-0.42-0.34-0.76-0.76-0.76H12.402
	c-0.419,0-0.76,0.339-0.76,0.76c0,2.063,1.389,3.844,3.324,4.388v5.28c-1.935,0.543-3.324,2.324-3.324,4.389v1.899
	c0,0.419,0.34,0.759,0.76,0.759h5.01c0.125,3.184,0.419,6.59,0.821,9.459c0.186,1.328,0.384,2.461,0.572,3.277
	C19.009,35.09,19.218,36,20,36c0.781,0,0.991-0.91,1.195-1.789c0.188-0.816,0.386-1.949,0.572-3.277
	c0.402-2.869,0.697-6.275,0.822-9.459h5.008c0.42,0,0.76-0.34,0.76-0.759v-1.899C28.357,16.751,26.969,14.97,25.033,14.427z
	 M20,32.434c-0.412-2.4-0.888-6.395-1.068-10.959h2.137C20.891,26.039,20.414,30.033,20,32.434z M26.838,19.956h-4.982h-3.711
	h-4.982v-1.14c0-1.531,1.144-2.826,2.659-3.015c0.38-0.047,0.665-0.371,0.665-0.754V8.527c0-0.383-0.285-0.706-0.665-0.753
	c-1.256-0.156-2.258-1.073-2.563-2.254h13.482c-0.305,1.181-1.306,2.098-2.561,2.254c-0.38,0.047-0.667,0.371-0.667,0.753v6.521
	c0,0.383,0.287,0.707,0.667,0.754c1.516,0.189,2.657,1.484,2.657,3.015V19.956z"/>
<g display="none">
	<path display="inline" d="M27.758,32.244L34,19.074V7.756H21.241V19.76h4.87l-4.87,12.484H27.758z M23.146,17.855V9.662h8.948
		v8.983l-5.543,11.693h-2.522l4.868-12.482H23.146z"/>
	<path display="inline" d="M12.517,32.244l6.242-13.17V7.756H6V19.76h4.871L6,32.244H12.517z M7.905,17.855V9.662h8.948v8.983
		l-5.542,11.693H8.789l4.868-12.482H7.905z"/>
</g>
<g display="none">
	<path display="inline" d="M23.83,28.146c-0.414,0-0.75,0.337-0.75,0.75v5.25H8.287V5.854H23.08v5.25c0,0.414,0.336,0.75,0.75,0.75
		s0.75-0.336,0.75-0.75v-6c0-0.414-0.336-0.75-0.75-0.75H7.537c-0.414,0-0.75,0.336-0.75,0.75v29.793c0,0.415,0.336,0.75,0.75,0.75
		H23.83c0.414,0,0.75-0.335,0.75-0.75v-6C24.58,28.483,24.244,28.146,23.83,28.146z"/>
	<path display="inline" d="M34.168,24.248l-2.48-8.688c-0.08-0.277-0.311-0.484-0.594-0.533c-0.285-0.05-0.572,0.069-0.738,0.304
		L29.307,16.8c-1.635-1.122-3.586-1.735-5.693-1.783c-0.02-0.001-0.037,0-0.057,0.001c-4.104,0.216-6.771,1.523-10.574,5.178
		c-0.258,0.248-0.305,0.642-0.115,0.942c0.191,0.302,0.568,0.426,0.902,0.3c1.627-0.619,3.34-0.946,4.955-0.946
		c1.795,0,4.295,0.403,6.336,2.252l-0.947,1.327c-0.162,0.229-0.186,0.529-0.057,0.779s0.387,0.407,0.668,0.407h8.738l0,0
		c0.416,0,0.75-0.336,0.75-0.75C34.213,24.416,34.197,24.329,34.168,24.248z M26.182,23.757l0.475-0.665
		c0.209-0.292,0.18-0.692-0.068-0.953c-1.961-2.059-4.68-3.147-7.863-3.147c-0.754,0-1.527,0.063-2.305,0.188
		c2.352-1.809,4.373-2.511,7.188-2.663c2.041,0.052,3.906,0.717,5.391,1.925c0.162,0.131,0.369,0.189,0.574,0.161
		c0.205-0.027,0.391-0.139,0.51-0.308l0.59-0.826l1.795,6.288H26.182z"/>
</g>
<path display="none" d="M11.087,35.498c-0.655,0-1.272-0.256-1.737-0.719l-4.128-4.13C4.756,30.185,4.5,29.567,4.5,28.912
	c0-0.656,0.256-1.274,0.722-1.738l8.354-8.355c0.466-0.464,1.083-0.719,1.738-0.719c0.656,0,1.274,0.255,1.736,0.719l1.483,1.484
	l1.771-1.771l-1.485-1.482c-0.463-0.464-0.72-1.082-0.72-1.738s0.257-1.272,0.72-1.737l8.356-8.354
	c0.463-0.465,1.08-0.72,1.737-0.72s1.274,0.254,1.737,0.72l4.13,4.128c0.464,0.463,0.72,1.08,0.72,1.737s-0.256,1.275-0.72,1.738
	l-8.355,8.355c-0.464,0.465-1.081,0.72-1.738,0.72c-0.654,0-1.272-0.255-1.736-0.72l-1.483-1.484l-1.77,1.771l1.483,1.482
	c0.466,0.464,0.72,1.081,0.72,1.736c0,0.656-0.254,1.273-0.72,1.738l-8.354,8.355C12.361,35.242,11.744,35.498,11.087,35.498
	L11.087,35.498z M15.313,19.747c-0.125,0-0.365,0.03-0.571,0.236l-8.356,8.356c-0.206,0.206-0.237,0.448-0.237,0.573
	s0.031,0.366,0.237,0.572l4.13,4.13c0.207,0.207,0.447,0.237,0.571,0.237c0.125,0,0.367-0.03,0.573-0.237l8.356-8.354
	c0.207-0.207,0.236-0.448,0.236-0.574c0-0.124-0.029-0.364-0.236-0.57l-1.483-1.486l-2.482,2.484
	c-0.155,0.156-0.362,0.242-0.581,0.242c-0.222,0-0.428-0.086-0.582-0.242c-0.321-0.322-0.321-0.844-0.002-1.163l2.484-2.483
	l-1.483-1.483C15.679,19.777,15.438,19.747,15.313,19.747L15.313,19.747z M24.651,14.526c0.219,0,0.426,0.085,0.58,0.24
	c0.156,0.156,0.244,0.363,0.244,0.583s-0.088,0.426-0.242,0.581l-2.604,2.602l1.485,1.483c0.206,0.206,0.446,0.236,0.571,0.236
	c0.126,0,0.367-0.03,0.574-0.235l8.354-8.356c0.208-0.206,0.237-0.448,0.237-0.574c0-0.125-0.029-0.365-0.235-0.573l-4.129-4.128
	c-0.208-0.208-0.449-0.238-0.574-0.238s-0.367,0.03-0.573,0.238l-8.354,8.354c-0.208,0.206-0.239,0.448-0.239,0.573
	s0.031,0.366,0.236,0.573l1.483,1.483l2.601-2.602C24.225,14.612,24.431,14.526,24.651,14.526L24.651,14.526z"/>
<g display="none">
	<path display="inline" fill-rule="evenodd" clip-rule="evenodd" d="M13.786,29.113c-1.022,0-1.853-0.829-1.853-1.85l-0.245-1.479
		l-0.287-1.924c-0.052-0.188-0.076-0.348-0.076-0.498L9.373,9.702L9.035,7.667H5.377C4.894,7.667,4.5,7.274,4.5,6.791
		c0-0.482,0.394-0.875,0.877-0.875h3.899c0.056,0,0.111,0.014,0.169,0.03l0.025,0.006l0.075,0.007
		C9.652,5.93,9.708,5.915,9.763,5.915c0.484,0,0.878,0.393,0.878,0.875l0.186,1.122l0.097-0.017
		c0.099-0.017,0.199-0.033,0.304-0.033h22.421c1.021,0,1.852,0.831,1.852,1.853v11.699c0,1.021-0.83,1.851-1.852,1.851
		c-0.092,0.001-9.072,0.071-14.472,0.638c-2.596,0.273-5.058,1.01-5.75,1.229l-0.079,0.025l0.329,2.203h18.997
		c0.482,0,0.877,0.394,0.877,0.877s-0.395,0.876-0.877,0.876H13.786z M12.445,9.618c-0.592,0-1.073,0.48-1.073,1.071l1.626,11.387
		c-0.001,0.578,0.481,1.059,1.074,1.059c0.054-0.015,1.638-0.682,4.483-1.018c4.797-0.565,14.026-0.605,14.12-0.605
		c0.59,0,1.072-0.48,1.072-1.073v-9.75c0-0.59-0.482-1.071-1.072-1.071H12.445z"/>
	<path display="inline" fill-rule="evenodd" clip-rule="evenodd" d="M15.948,30.188c-1.076,0-1.948,0.872-1.948,1.949
		c0,1.076,0.872,1.948,1.948,1.948c1.079,0,1.951-0.872,1.951-1.948C17.899,31.06,17.027,30.188,15.948,30.188z"/>
	<circle display="inline" fill-rule="evenodd" clip-rule="evenodd" cx="29.598" cy="32.136" r="1.949"/>
</g>
<path display="none" fill="#010101" d="M32,10.465c0-0.948-0.66-2.295-3.808-3.337C25.993,6.4,23.084,6,20,6
	c-3.083,0-5.993,0.4-8.192,1.128C8.661,8.169,8,9.517,8,10.465c0,0.008,0,0.014,0.001,0.022C8.001,10.491,8,10.495,8,10.496v6.326
	c0,0.007,0,0.014,0.001,0.023C8.001,16.848,8,16.851,8,16.853v6.325c0,0.008,0,0.016,0.001,0.023c0,0.003-0.001,0.007-0.001,0.01
	v6.324c0,0.947,0.661,2.295,3.808,3.337C14.007,33.6,16.917,34,20,34c3.084,0,5.993-0.4,8.192-1.128
	C31.34,31.83,32,30.482,32,29.535v-6.324c0-0.003,0-0.007,0-0.01c0-0.008,0-0.016,0-0.023v-6.325c0-0.002,0-0.005,0-0.008
	c0-0.009,0-0.016,0-0.023v-6.326c0-0.001,0-0.005,0-0.009C32,10.479,32,10.473,32,10.465z M30.5,29.535
	c0,1.215-4.09,2.977-10.5,2.977S9.5,30.75,9.5,29.535v-4.052c0.557,0.371,1.306,0.732,2.308,1.063
	c2.199,0.729,5.109,1.129,8.192,1.129c3.084,0,5.993-0.4,8.192-1.129c1.001-0.331,1.751-0.692,2.308-1.063V29.535z M30.5,23.178
	c0,1.214-4.09,2.977-10.5,2.977S9.5,24.392,9.5,23.178v-4.052c0.557,0.371,1.306,0.733,2.308,1.065
	c2.199,0.728,5.109,1.127,8.192,1.127c3.084,0,5.993-0.4,8.192-1.127c1.001-0.332,1.751-0.694,2.308-1.065V23.178z M30.5,16.822
	c0,1.213-4.09,2.975-10.5,2.975S9.5,18.035,9.5,16.822v-4.053c0.557,0.371,1.306,0.733,2.308,1.065
	c2.199,0.728,5.109,1.128,8.192,1.128c3.084,0,5.993-0.4,8.192-1.128c1.001-0.332,1.751-0.694,2.308-1.065V16.822z M20,13.44
	c-6.41,0-10.5-1.762-10.5-2.975c0-1.214,4.09-2.976,10.5-2.976s10.5,1.762,10.5,2.976C30.5,11.678,26.41,13.44,20,13.44z"/>
<path display="none" fill="#010101" d="M31,10V6.667C31,6.299,30.647,6,30.214,6H9.785C9.353,6,9,6.299,9,6.667V10
	c0,0.369,0.353,0.667,0.785,0.667h1.179v0.996c0,3.418,2.296,6.533,5.893,8.052v0.569c-3.596,1.518-5.893,4.629-5.893,8.049v1.002
	H9.785C9.353,29.334,9,29.633,9,29.999v3.335C9,33.702,9.353,34,9.785,34h20.429C30.647,34,31,33.702,31,33.334v-3.335
	c0-0.366-0.353-0.665-0.786-0.665h-1.179v-1.002c0-3.42-2.297-6.533-5.896-8.051v-0.565c3.599-1.518,5.896-4.632,5.896-8.054v-0.996
	h1.179C30.647,10.667,31,10.369,31,10z M28.572,30.666h0.855v2H10.571v-2h1.179h16.5H28.572z M27.18,13.566
	c-0.148,0.574-0.566,1.333-0.566,1.333c-0.914,1.655-2.516,3.018-4.575,3.783c-0.286,0.106-0.47,0.346-0.47,0.611v1.413
	c0,0.265,0.184,0.504,0.47,0.611c3.296,1.226,5.427,3.979,5.427,7.016v1.003h-0.686h-2.015h-9.532h-1.998h-0.7v-1.002
	c0-3.037,2.13-5.789,5.423-7.016c0.286-0.105,0.47-0.344,0.47-0.609V19.29c0-0.264-0.184-0.503-0.47-0.61
	c-2.057-0.766-3.658-2.127-4.572-3.782c-0.344-0.56-0.565-1.333-0.565-1.333c-0.187-0.613-0.286-1.252-0.286-1.903v-0.985h14.93
	v0.985C27.465,12.313,27.365,12.953,27.18,13.566z M29.428,9.333H28.25c-0.046,0-0.09,0.004-0.134,0.01H11.883
	c-0.043-0.006-0.087-0.01-0.133-0.01h-1.179v-2h18.856V9.333z"/>
<path display="none" fill="#010101" d="M29.112,30.927H9.876C6.085,30.927,3,27.842,3,24.051c0-3.617,2.806-6.591,6.356-6.858
	c0.77-2.392,3.021-4.066,5.583-4.066c0.369,0,0.744,0.041,1.133,0.125c1.362-2.559,4.023-4.177,6.963-4.177
	c3.729,0,6.934,2.659,7.688,6.276C34.342,16.105,37,19.311,37,23.039C37,27.389,33.462,30.927,29.112,30.927z M9.833,18.791
	c-2.879,0.024-5.215,2.375-5.215,5.26c0,2.898,2.359,5.258,5.258,5.258h19.236c3.457,0,6.271-2.813,6.271-6.27
	c0-3.122-2.35-5.78-5.466-6.185c-0.364-0.048-0.651-0.334-0.698-0.699c-0.404-3.115-3.063-5.463-6.184-5.463
	c-2.527,0-4.794,1.504-5.779,3.831c-0.163,0.387-0.596,0.584-0.996,0.453c-0.48-0.156-0.912-0.232-1.32-0.232
	c-2.018,0-3.769,1.434-4.164,3.409c-0.076,0.377-0.408,0.65-0.793,0.65C9.921,18.803,9.869,18.796,9.833,18.791z"/>
<g display="none">
	<path display="inline" fill="#010101" d="M29.364,15.71c-0.431,0-0.78,0.35-0.78,0.78v3.901c0,4.733-3.851,8.585-8.584,8.585
		s-8.585-3.852-8.585-8.585v-3.901c0-0.431-0.35-0.78-0.78-0.78c-0.432,0-0.78,0.35-0.78,0.78v3.901
		c0,5.331,4.134,9.716,9.365,10.116v3.932h-5.463c-0.432,0-0.781,0.349-0.781,0.78c0,0.431,0.35,0.78,0.781,0.78h12.486
		c0.431,0,0.78-0.35,0.78-0.78c0-0.432-0.35-0.78-0.78-0.78H20.78v-3.932c5.23-0.4,9.365-4.785,9.365-10.116v-3.901
		C30.146,16.06,29.796,15.71,29.364,15.71z"/>
	<path display="inline" fill="#010101" d="M20,27.025c3.657,0,6.633-2.975,6.633-6.633v-9.76C26.633,6.976,23.657,4,20,4
		s-6.633,2.976-6.633,6.633v9.76C13.367,24.051,16.343,27.025,20,27.025z M14.928,10.633c0-2.797,2.275-5.072,5.072-5.072
		s5.072,2.275,5.072,5.072v9.76c0,2.797-2.275,5.072-5.072,5.072s-5.072-2.275-5.072-5.072V10.633z"/>
</g>
<g display="none">
	<path display="inline" fill="#010101" d="M22.603,19.604c1.136-0.807,1.88-2.131,1.88-3.626c0-2.452-1.994-4.446-4.444-4.446
		c-2.451,0-4.445,1.994-4.445,4.446c0,1.495,0.745,2.82,1.881,3.627l-5.008,14.432c-0.132,0.378,0.068,0.791,0.447,0.924
		C12.991,34.986,13.072,35,13.15,35c0.3,0,0.581-0.188,0.684-0.488l1.02-2.933h10.37l1.017,2.933C26.344,34.813,26.626,35,26.927,35
		c0.078,0,0.157-0.014,0.237-0.039c0.378-0.133,0.578-0.546,0.446-0.924L22.603,19.604z M20.038,12.991
		c1.646,0,2.986,1.34,2.986,2.987c0,1.646-1.34,2.986-2.986,2.986c-1.647,0-2.986-1.34-2.986-2.986
		C17.052,14.331,18.391,12.991,20.038,12.991z M20.038,20.423c0.435,0,0.854-0.064,1.252-0.181l1.603,4.622h-5.709l1.604-4.622
		C19.185,20.359,19.604,20.423,20.038,20.423z M15.356,30.129l1.324-3.814h6.715l1.325,3.814H15.356z"/>
	<path display="inline" fill="#010101" d="M14.12,21.617c0.142,0.142,0.327,0.212,0.511,0.212c0.187,0,0.373-0.07,0.515-0.212
		c0.282-0.283,0.282-0.743,0-1.025c-1.234-1.231-1.913-2.87-1.913-4.613c0-1.743,0.678-3.381,1.911-4.613
		c0.282-0.283,0.282-0.742,0-1.026c-0.285-0.282-0.743-0.282-1.025,0c-1.507,1.506-2.336,3.508-2.336,5.639
		C11.782,18.108,12.612,20.111,14.12,21.617z"/>
	<path display="inline" fill="#010101" d="M12.581,23.154c-1.919-1.916-2.974-4.465-2.974-7.176c0-2.71,1.055-5.259,2.973-7.178
		c0.283-0.283,0.283-0.742,0-1.025c-0.284-0.283-0.743-0.282-1.025,0.001c-2.191,2.191-3.398,5.104-3.398,8.202
		s1.208,6.011,3.4,8.202c0.142,0.142,0.326,0.212,0.512,0.212s0.372-0.07,0.513-0.212C12.864,23.896,12.864,23.438,12.581,23.154z"
		/>
	<path display="inline" fill="#010101" d="M5.982,15.979c0-3.678,1.432-7.137,4.034-9.741c0.283-0.283,0.283-0.742,0-1.025
		c-0.283-0.283-0.743-0.283-1.025,0c-2.876,2.877-4.46,6.7-4.46,10.766c0,4.065,1.584,7.889,4.46,10.766
		c0.142,0.141,0.327,0.211,0.513,0.211s0.372-0.07,0.513-0.211c0.283-0.284,0.283-0.744,0-1.026
		C7.415,23.115,5.982,19.656,5.982,15.979z"/>
	<path display="inline" fill="#010101" d="M26.768,15.979c0,1.742-0.679,3.38-1.911,4.612c-0.282,0.282-0.282,0.741,0,1.024
		c0.142,0.142,0.328,0.213,0.514,0.213c0.185,0,0.37-0.071,0.512-0.213c1.507-1.506,2.337-3.508,2.337-5.637
		c0-2.131-0.831-4.134-2.338-5.64c-0.283-0.283-0.741-0.282-1.026,0c-0.282,0.283-0.282,0.742,0.001,1.025
		C26.089,12.596,26.768,14.235,26.768,15.979z"/>
	<path display="inline" fill="#010101" d="M28.445,7.775c-0.285-0.283-0.744-0.282-1.026,0.001c-0.284,0.283-0.284,0.742,0,1.024
		c1.917,1.917,2.973,4.466,2.973,7.178c0,2.709-1.055,5.258-2.971,7.178c-0.284,0.282-0.284,0.74,0,1.024
		c0.142,0.142,0.328,0.212,0.513,0.212c0.186,0,0.372-0.07,0.513-0.212c2.19-2.192,3.397-5.105,3.397-8.202
		C31.844,12.879,30.636,9.966,28.445,7.775z"/>
	<path display="inline" fill="#010101" d="M31.007,5.212c-0.282-0.282-0.741-0.282-1.025,0c-0.283,0.283-0.283,0.743,0,1.025
		c2.603,2.603,4.037,6.063,4.037,9.741c0,3.677-1.434,7.136-4.035,9.74c-0.283,0.283-0.283,0.741,0,1.025
		c0.141,0.141,0.327,0.211,0.513,0.211c0.185,0,0.371-0.07,0.513-0.211c2.876-2.879,4.459-6.701,4.459-10.766
		C35.468,11.912,33.884,8.089,31.007,5.212z"/>
</g>
<g display="none">
	<path display="inline" fill="#010101" d="M26.197,5c-4.854,0-8.803,3.948-8.803,8.802c0,0.704,0.084,1.402,0.249,2.082L5,28.554V35
		h6.979v-3.542h3.542v-3.542h3.541v-3.541h3.056l2.014-2.016c0.674,0.163,1.367,0.244,2.066,0.244c4.853,0,8.803-3.947,8.803-8.801
		C35,8.949,31.05,5,26.197,5z M26.197,20.938c-0.705,0-1.403-0.103-2.074-0.307l-0.476-0.144l-2.223,2.221h-4.03v3.542h-3.541v3.541
		h-3.541v3.542H6.667v-4.091l12.851-12.875l-0.146-0.479c-0.205-0.674-0.311-1.376-0.311-2.086c0-3.935,3.2-7.136,7.136-7.136
		c3.935,0,7.135,3.201,7.135,7.136C33.332,17.737,30.132,20.938,26.197,20.938z"/>
	<circle display="inline" fill="#010101" cx="27.671" cy="12.348" r="1.666"/>
</g>
<path display="none" fill="#040305" d="M5.812,35.5V7.128h6.317V4.5h1.594v2.628h12.402V4.5h1.604v2.628h6.458V35.5H5.812z
	 M32.584,33.896V14.626H7.416v19.269H32.584z M32.584,13.022V8.733h-4.854v1.675h-1.604V8.733H13.723v1.675h-1.594V8.733H7.416
	v4.289H32.584z"/>
<path display="none" fill-rule="evenodd" clip-rule="evenodd" d="M22.672,29.195l-7.148,3.457c-0.331-0.021-0.63-0.235-0.951-0.766
	L5,6.985c0.013-0.354,0.356-0.697,0.778-0.697l28.958,15.838c0.131,0.141,0.304,0.615,0.256,0.94
	c-0.018,0.122-0.063,0.202-0.135,0.239l-6.256,3.024v5.654c0,0.926-0.731,1.685-1.646,1.726L22.672,29.195z M23.732,28.689
	l2.346,2.471c0.339,0.345,0.504,0.492,0.673,0.492h0.001c0.115,0,0.261-0.062,0.297-0.363c0.016-0.135,0.018-0.341,0.018-0.622
	v-3.22l0.012-0.011l0.012-0.133l-0.014-0.102l-0.007-0.004l-0.003-0.651l-0.003,0.002c0.008-0.487,0.029-1.026,0.029-1.026
	l0.005-0.103l-8.106-5.941l-0.256,0.283l5.957,6.661l0.036-0.019l0.786,0.937l0.293,0.328L23.732,28.689z M9.12,9.995
	c-0.448,0-0.812,0.363-0.812,0.811l7.175,18.895c0.195,0.325,0.464,0.665,0.957,0.665l6.112-2.922l0.146-0.038l1.488-0.735
	l-9.567-10.689l13.229,8.908l3.224-1.551c0.103-0.054,0.224-0.163,0.259-0.392c0.043-0.292-0.086-0.704-0.281-0.898L9.169,9.995
	H9.12z"/>
<path display="none" d="M34.285,10H5.714C5.32,10,5,10.319,5,10.714v18.571C5,29.68,5.32,30,5.714,30h28.571
	C34.681,30,35,29.68,35,29.285V10.714C35,10.319,34.681,10,34.285,10z M6.429,12.269l8.818,7.068l-8.818,8.124V12.269z M20,21.318
	l-12.335-9.89h24.671L20,21.318z M16.374,20.241l3.178,2.548c0.001,0,0.003,0.002,0.004,0.002c0.007,0.006,0.015,0.012,0.021,0.017
	c0.013,0.009,0.025,0.019,0.038,0.026c0.008,0.006,0.016,0.01,0.024,0.015c0.014,0.009,0.029,0.017,0.043,0.024
	c0.007,0.002,0.013,0.006,0.019,0.01c0.022,0.009,0.045,0.018,0.067,0.025c0.001,0,0.002,0,0.003,0.002
	c0.021,0.006,0.044,0.014,0.066,0.017c0.006,0.002,0.011,0.004,0.017,0.004c0.019,0.005,0.037,0.007,0.056,0.009
	c0.005,0.002,0.012,0.002,0.017,0.002c0.024,0.004,0.047,0.006,0.071,0.006h0l0,0c0.024,0,0.048-0.002,0.072-0.006
	c0.005,0,0.011,0,0.016-0.002c0.02-0.002,0.039-0.004,0.057-0.009c0.006,0,0.012-0.002,0.017-0.004
	c0.022-0.003,0.044-0.011,0.066-0.017c0.001-0.002,0.002-0.002,0.003-0.002c0.023-0.008,0.045-0.017,0.067-0.025
	c0.007-0.004,0.013-0.008,0.019-0.01c0.015-0.008,0.029-0.016,0.045-0.024c0.008-0.005,0.016-0.009,0.023-0.015
	c0.012-0.008,0.025-0.018,0.037-0.026c0.008-0.005,0.016-0.011,0.022-0.017c0.001,0,0.003-0.002,0.004-0.002l3.178-2.548l9.043,8.33
	H7.332L16.374,20.241z M24.754,19.337l8.817-7.068v15.175L24.754,19.337z"/>
<g display="none">
	<g display="inline">
		<path d="M20.01,5.5C12.008,5.5,5.5,12.005,5.5,20c0,7.997,6.508,14.5,14.51,14.5c2.701,0,5.34-0.75,7.633-2.166
			c0.209-0.13,0.354-0.332,0.408-0.568c0.057-0.238,0.016-0.481-0.112-0.689c-0.17-0.273-0.462-0.438-0.782-0.438
			c-0.168,0-0.333,0.049-0.477,0.138c-2,1.239-4.307,1.895-6.67,1.895c-6.99,0-12.677-5.687-12.677-12.67
			c0-6.984,5.687-12.667,12.677-12.667c4.227,0,8.162,2.095,10.525,5.603c1.17,1.739,1.895,3.758,2.094,5.841
			c0.047,0.494,0.152,2.249-0.475,4.098c-0.588,1.732-2.268,2.978-3.943,2.903c-1.047-0.038-1.807-0.407-2.326-1.126
			c-1.666-2.338-0.511-7.771,0.074-9.666c0.145-0.472-0.105-0.969-0.571-1.134c-0.199-0.069-2.062-0.694-4.348-0.694
			c-1.554,0-2.929,0.292-4.088,0.863c-1.801,0.888-3.064,2.42-3.755,4.554c-0.87,2.684-0.403,5.274,1.249,6.928
			c0.991,0.993,2.305,1.537,3.696,1.537c0.549,0,1.096-0.086,1.624-0.258c1.015-0.323,1.929-0.933,2.718-1.811l0.923-1.025
			l0.649,1.216c0.101,0.189,0.213,0.371,0.332,0.54c0.846,1.189,2.148,1.846,3.767,1.904c0.063,0.002,0.124,0.002,0.186,0.002
			c2.401,0,4.737-1.742,5.552-4.148c0.723-2.141,0.635-4.112,0.563-4.858c-0.229-2.388-1.059-4.699-2.396-6.688
			C29.349,7.898,24.846,5.5,20.01,5.5z M18.139,25.214L18.139,25.214c-0.901,0-1.752-0.356-2.397-1.003
			c-1.173-1.176-1.466-3.023-0.804-5.069c0.538-1.658,1.456-2.794,2.808-3.473c0.922-0.459,2.026-0.69,3.285-0.69
			c0.688,0,1.834,0.153,1.883,0.158l0.981,0.133l-0.156,0.979c-0.013,0.078-0.317,1.959-0.844,4.058
			c-0.604,2.413-1.983,4.186-3.69,4.737C18.853,25.157,18.495,25.214,18.139,25.214z"/>
	</g>
</g>
<path display="none" d="M34.949,21.604L30.081,8.122c-0.106-0.297-0.39-0.496-0.706-0.496h-18.75c-0.315,0-0.598,0.199-0.705,0.496
	L5.051,21.604C5.019,21.688,5.001,21.777,5,21.871l0,0c0,0.002,0,0.002,0,0.002l0,0l0,0v0.002l0,0v9.749
	c0,0.414,0.336,0.75,0.75,0.75h28.5c0.415,0,0.75-0.336,0.75-0.75v-9.749l0,0v-0.002l0,0l0,0c0,0,0,0,0-0.002l0,0
	C35,21.777,34.982,21.688,34.949,21.604z M11.151,9.125H28.85l4.333,12h-1.682l-2.024-6.004c-0.104-0.305-0.389-0.51-0.711-0.51
	H11.71c-0.314,0-0.596,0.197-0.704,0.492l-2.207,6.022h-1.98L11.151,9.125z M29.918,21.125h-4.293c-0.283,0-0.543,0.16-0.67,0.414
	l-1.668,3.336h-6.573l-1.668-3.336c-0.127-0.254-0.387-0.414-0.671-0.414h-3.978l1.837-5.014h15.992L29.918,21.125z M33.5,30.874
	h-27v-8.249h7.412l1.668,3.335c0.127,0.254,0.387,0.414,0.67,0.414h7.5c0.285,0,0.545-0.16,0.672-0.414l1.668-3.335h7.41V30.874z"/>
<g display="none">
	<path display="inline" d="M20,21.569c-0.095,0-0.189-0.021-0.282-0.062L5.434,15.115C5.165,14.995,4.994,14.72,5,14.413
		c0.006-0.303,0.191-0.578,0.46-0.683l14.286-5.681C19.828,8.017,19.913,8,20,8c0.086,0,0.172,0.017,0.254,0.049l14.285,5.679
		c0.275,0.11,0.455,0.378,0.461,0.683c0.008,0.308-0.163,0.584-0.434,0.704L20.281,21.51C20.192,21.549,20.096,21.569,20,21.569
		L20,21.569z M7.626,14.468l12.339,5.522l12.409-5.522L20,9.549L7.626,14.468z"/>
	<path display="inline" d="M5.434,20.49c-0.361-0.163-0.53-0.604-0.376-0.983c0.113-0.275,0.372-0.454,0.659-0.454
		c0.097,0,0.191,0.021,0.282,0.062l13.967,6.249l14.037-6.249c0.092-0.042,0.186-0.062,0.283-0.062c0.286,0,0.544,0.177,0.656,0.454
		c0.155,0.379-0.014,0.82-0.376,0.983L20,27.008L5.434,20.49z"/>
	<path display="inline" d="M5.434,25.48c-0.362-0.164-0.531-0.604-0.376-0.981c0.113-0.275,0.372-0.454,0.659-0.454
		c0.097,0,0.191,0.021,0.282,0.061l13.967,6.25l14.037-6.25c0.09-0.039,0.186-0.061,0.283-0.061c0.286,0,0.544,0.179,0.656,0.454
		c0.155,0.378-0.014,0.819-0.375,0.981L20,32L5.434,25.48z"/>
</g>
<g display="none">
	<path display="inline" d="M21.768,34c-0.188,0-0.366-0.073-0.502-0.208L6.207,18.733c-0.132-0.133-0.208-0.317-0.208-0.503
		L6.041,6.707C6.042,6.317,6.361,6,6.751,6L18.23,6.002c0.19,0,0.368,0.072,0.504,0.207l15.059,15.059
		c0.133,0.135,0.208,0.313,0.208,0.503c0,0.188-0.075,0.366-0.21,0.501L22.27,33.792C22.136,33.927,21.957,34,21.768,34L21.768,34z
		 M7.42,17.866l14.347,14.423l10.521-10.519l-14.3-14.298L7.457,7.417L7.42,17.866z"/>
	<circle display="inline" cx="11.78" cy="11.777" r="1.33"/>
</g>
<g display="none">
	<path display="inline" fill-rule="evenodd" clip-rule="evenodd" d="M10.738,35.5c-0.462,0-0.531-0.451-0.531-0.721V6.297
		c0-0.991,0.806-1.797,1.797-1.797h15.99c0.992,0,1.799,0.806,1.799,1.797v28.482c0,0.229-0.056,0.408-0.16,0.521
		c-0.093,0.1-0.225,0.15-0.391,0.15l0,0c-0.34,0-0.754-0.211-1.106-0.563l-8.137-8.138l-8.137,8.138
		C11.473,35.277,11.063,35.5,10.738,35.5L10.738,35.5z M26.854,31.674c0.241,0.24,0.491,0.367,0.723,0.367
		c0.363,0,0.618-0.313,0.618-0.76V7.297c0-0.662-0.538-1.198-1.199-1.198h-13.99c-0.662,0-1.201,0.537-1.201,1.198v23.984
		c0,0.209,0.054,0.391,0.154,0.525c0.113,0.15,0.278,0.234,0.466,0.234c0.23,0,0.48-0.127,0.722-0.367l6.854-6.855L26.854,31.674z"
		/>
	<path display="inline" fill-rule="evenodd" clip-rule="evenodd" d="M25.791,15.35c-0.004,0-0.006-0.006-0.012-0.008
		c-0.053-0.023-0.111-0.039-0.176-0.039c-0.023,0-0.041,0.01-0.063,0.012c-1.507-0.037-3.844-0.098-3.844-0.098
		s-0.795-2.249-1.296-3.666c-0.012-0.037-0.027-0.068-0.047-0.1c-0.021-0.041-0.043-0.07-0.064-0.082
		c-0.076-0.07-0.176-0.117-0.287-0.117s-0.213,0.047-0.287,0.117c-0.021,0.012-0.041,0.041-0.063,0.082
		c-0.021,0.031-0.037,0.063-0.049,0.1c-0.501,1.417-1.296,3.666-1.296,3.666s-2.339,0.061-3.842,0.098
		c-0.023-0.002-0.043-0.012-0.066-0.012c-0.063,0-0.119,0.016-0.176,0.039c-0.004,0.002-0.004,0.008-0.01,0.008
		c-0.138,0.068-0.237,0.21-0.237,0.376c0,0.084,0.031,0.156,0.072,0.223c0,0,0,0,0.002,0c0.035,0.059,0.081,0.102,0.138,0.137
		c1.195,0.916,3.071,2.354,3.071,2.354s-0.662,2.239-1.092,3.681c-0.035,0.061-0.059,0.127-0.059,0.199
		c0,0.236,0.191,0.428,0.424,0.428c0.127,0,0.238-0.059,0.314-0.146c0.303-0.207,0.644-0.441,0.989-0.68l2.165-1.489l2.167,1.489
		c0.346,0.238,0.685,0.473,0.987,0.68c0.078,0.088,0.188,0.146,0.313,0.146c0.234,0,0.424-0.191,0.424-0.428
		c0-0.072-0.023-0.139-0.055-0.199c-0.43-1.442-1.096-3.681-1.096-3.681s1.878-1.438,3.073-2.354
		c0.057-0.035,0.105-0.078,0.138-0.137c0.043-0.066,0.072-0.139,0.072-0.223C26.026,15.561,25.93,15.418,25.791,15.35z
		 M21.428,17.931l0.754,2.533l-2.179-1.499l-2.181,1.499l0.754-2.533l-2.099-1.611l2.644-0.066l0.882-2.497l0.88,2.497l2.647,0.066
		L21.428,17.931z"/>
</g>
<path display="none" d="M29.387,34.986c-0.145,0-0.289-0.037-0.416-0.112L20,29.544l-8.977,5.33
	c-0.124,0.075-0.267,0.112-0.412,0.112c-0.174,0-0.34-0.053-0.481-0.158c-0.262-0.191-0.383-0.521-0.307-0.84l2.389-10l-7.926-6.717
	c-0.251-0.213-0.348-0.554-0.246-0.866c0.101-0.313,0.377-0.532,0.704-0.56l10.45-0.862l4.062-9.479
	C19.383,5.208,19.675,5.014,20,5.014c0.324,0,0.617,0.194,0.746,0.493l4.06,9.477l10.45,0.862c0.329,0.028,0.605,0.247,0.706,0.56
	c0.1,0.314,0.003,0.653-0.248,0.864l-7.928,6.719l2.389,10.002c0.076,0.316-0.046,0.646-0.309,0.838
	C29.725,34.934,29.559,34.986,29.387,34.986L29.387,34.986z M16.489,16.069c-0.117,0.277-0.377,0.464-0.677,0.488l-8.986,0.742
	l6.813,5.773c0.232,0.199,0.334,0.508,0.264,0.807l-2.06,8.624l7.744-4.599c0.123-0.073,0.266-0.113,0.412-0.113
	s0.289,0.04,0.412,0.113l7.742,4.599l-2.06-8.624c-0.071-0.299,0.029-0.607,0.265-0.807l6.814-5.773l-8.988-0.742
	c-0.3-0.024-0.56-0.211-0.677-0.486L20,7.882L16.489,16.069z"/>
<g display="none">
	<path display="inline" d="M33.125,35H6.875c-0.519,0-0.938-0.421-0.938-0.938v-5.75c0-0.519,0.419-0.938,0.938-0.938
		c0.518,0,0.938,0.42,0.938,0.938v4.813h24.375v-4.813c0-0.519,0.419-0.938,0.938-0.938c0.518,0,0.938,0.42,0.938,0.938v5.75
		C34.063,34.579,33.643,35,33.125,35"/>
	<path display="inline" d="M27.576,14.153c-0.234,0-0.47-0.087-0.651-0.264L20.041,7.24l-6.884,6.649
		c-0.371,0.36-0.965,0.351-1.325-0.021c-0.359-0.374-0.349-0.966,0.024-1.326l7.535-7.277c0.362-0.354,0.939-0.354,1.301,0
		l7.535,7.277c0.373,0.36,0.383,0.952,0.023,1.326C28.065,14.057,27.821,14.153,27.576,14.153"/>
	<path display="inline" d="M20.041,29.248c-0.518,0-0.937-0.42-0.937-0.937V5.937C19.104,5.421,19.523,5,20.041,5
		c0.519,0,0.938,0.421,0.938,0.937v22.375C20.979,28.828,20.56,29.248,20.041,29.248"/>
</g>
<g display="none">
	<path display="inline" d="M33.125,35H6.875c-0.519,0-0.938-0.42-0.938-0.938v-5.75c0-0.518,0.419-0.938,0.938-0.938
		c0.518,0,0.937,0.421,0.937,0.938v4.813h24.375v-4.813c0-0.518,0.419-0.938,0.938-0.938c0.518,0,0.938,0.421,0.938,0.938v5.75
		C34.063,34.58,33.643,35,33.125,35"/>
	<path display="inline" d="M20.042,29.249c-0.235,0-0.469-0.089-0.651-0.265l-7.535-7.277c-0.373-0.36-0.383-0.954-0.023-1.326
		c0.358-0.372,0.954-0.384,1.325-0.023l6.884,6.649l6.884-6.649c0.372-0.36,0.968-0.349,1.324,0.023
		c0.36,0.372,0.351,0.966-0.022,1.326l-7.534,7.277C20.512,29.16,20.277,29.249,20.042,29.249"/>
	<path display="inline" d="M20.042,29.249c-0.518,0-0.938-0.421-0.938-0.939V5.937C19.104,5.418,19.524,5,20.042,5
		c0.519,0,0.938,0.418,0.938,0.937V28.31C20.979,28.828,20.561,29.249,20.042,29.249"/>
</g>
<g display="none">
	<path display="inline" d="M33.732,10.556h-8.844c-0.043-1.488-1.26-2.686-2.758-2.686H6.267C4.741,7.87,3.5,9.11,3.5,10.637v10.405
		c0,1.527,1.241,2.768,2.767,2.768h1.292l4.637,5.353c0.156,0.181,0.382,0.282,0.619,0.282c0.094,0,0.19-0.016,0.287-0.051
		c0.318-0.119,0.532-0.428,0.532-0.768V23.81h1.478c0.043,1.487,1.26,2.687,2.758,2.687h8.498v4.815c0,0.34,0.214,0.648,0.534,0.769
		c0.095,0.034,0.19,0.05,0.284,0.05c0.236,0,0.463-0.102,0.619-0.281l4.637-5.353h1.291c1.526,0,2.768-1.241,2.768-2.768V13.323
		C36.5,11.796,35.259,10.556,33.732,10.556z M15.102,13.323v8.848h-2.288c-0.452,0-0.819,0.368-0.819,0.819v3.44l-3.443-3.978
		c-0.157-0.178-0.382-0.282-0.646-0.282c0,0-1.638,0-1.638,0c-0.623,0-1.129-0.505-1.129-1.129V10.637
		c0-0.622,0.507-1.13,1.129-1.13h15.864c0.594,0,1.068,0.466,1.111,1.049h-5.374C16.343,10.556,15.102,11.796,15.102,13.323z
		 M34.862,23.729c0,0.623-0.507,1.129-1.13,1.129h-1.664c-0.236,0-0.463,0.102-0.621,0.282l-3.442,3.977v-3.44
		c0-0.451-0.368-0.818-0.819-0.818h-9.317c-0.622,0-1.128-0.506-1.128-1.129V13.323c0-0.623,0.506-1.13,1.128-1.13h15.864
		c0.623,0,1.13,0.507,1.13,1.13V23.729z"/>
	<path display="inline" d="M32.841,14.703h-14.08c-0.452,0-0.819,0.367-0.819,0.818s0.367,0.819,0.819,0.819h14.08
		c0.452,0,0.82-0.368,0.82-0.819S33.293,14.703,32.841,14.703z"/>
	<path display="inline" d="M32.841,17.706h-14.08c-0.452,0-0.819,0.367-0.819,0.819c0,0.451,0.367,0.819,0.819,0.819h14.08
		c0.452,0,0.82-0.368,0.82-0.819C33.661,18.073,33.293,17.706,32.841,17.706z"/>
	<path display="inline" d="M25.426,20.71h-6.665c-0.452,0-0.819,0.367-0.819,0.818s0.367,0.819,0.819,0.819h6.665
		c0.451,0,0.818-0.368,0.818-0.819S25.877,20.71,25.426,20.71z"/>
</g>
<g display="none">
	<g display="inline">
		<path d="M31.228,5H8.772C6.762,5,5.125,6.637,5.125,8.646v14.731c0,2.011,1.636,3.646,3.647,3.646H21.07v7.086
			c0,0.372,0.23,0.705,0.578,0.833C21.751,34.981,21.855,35,21.96,35c0.253,0,0.499-0.107,0.673-0.307l6.644-7.669h1.951
			c2.011,0,3.647-1.636,3.647-3.646V8.646C34.875,6.637,33.238,5,31.228,5z M33.096,23.378c0,1.028-0.838,1.867-1.868,1.867
			c0,0-2.303,0-2.315,0c-0.264-0.013-0.529,0.093-0.716,0.306l-5.347,6.173v-5.589c0-0.492-0.398-0.89-0.89-0.89H8.772
			c-1.029,0-1.866-0.839-1.866-1.867V8.646c0-1.028,0.837-1.865,1.866-1.865h22.455c1.03,0,1.868,0.837,1.868,1.865V23.378
			L33.096,23.378L33.096,23.378z"/>
		<path d="M29.965,10.87h-19.93c-0.491,0-0.89,0.399-0.89,0.892c0,0.49,0.398,0.89,0.89,0.89h19.93c0.492,0,0.891-0.399,0.891-0.89
			C30.855,11.27,30.457,10.87,29.965,10.87z"/>
		<path d="M29.965,15.123h-19.93c-0.491,0-0.89,0.397-0.89,0.89c0,0.489,0.398,0.89,0.89,0.89h19.93c0.492,0,0.891-0.4,0.891-0.89
			C30.855,15.521,30.457,15.123,29.965,15.123z"/>
		<path d="M19.469,19.373h-9.434c-0.491,0-0.89,0.399-0.89,0.89c0,0.492,0.398,0.892,0.89,0.892h9.434
			c0.491,0,0.89-0.399,0.89-0.892C20.358,19.772,19.96,19.373,19.469,19.373z"/>
	</g>
</g>
<path display="none" d="M20.014,34.519c-0.225,0-0.437-0.096-0.585-0.262c-4.41-4.925-12.784-14.279-12.92-14.439
	C5.214,18.236,4.5,16.267,4.5,14.273c0-4.85,4.026-8.792,8.974-8.792c2.429,0,4.697,0.927,6.387,2.615L20,8.234l0.139-0.138
	c1.69-1.688,3.958-2.615,6.388-2.615c4.948,0,8.974,3.942,8.974,8.792c0,2.02-0.684,3.923-1.975,5.499L20.597,34.257
	C20.448,34.423,20.236,34.519,20.014,34.519L20.014,34.519z M13.474,7.05c-4.083,0-7.405,3.24-7.405,7.224
	c0,1.656,0.561,3.216,1.62,4.507c0.245,0.284,8.05,9.006,12.175,13.612l0.147,0.164l12.321-13.803
	c1.047-1.278,1.598-2.826,1.598-4.48c0-3.983-3.321-7.224-7.404-7.224c-2.339,0-4.491,1.045-5.907,2.869
	c-0.15,0.191-0.375,0.303-0.619,0.303s-0.471-0.111-0.621-0.303C17.965,8.095,15.813,7.05,13.474,7.05L13.474,7.05z"/>
<path display="none" d="M16,31c-0.256,0-0.513-0.098-0.707-0.293l-10-10c-0.391-0.391-0.391-1.023,0-1.414s1.023-0.391,1.414,0
	L16,28.586L35.293,9.293c0.391-0.391,1.022-0.391,1.414,0c0.391,0.391,0.391,1.023,0,1.414l-20,20C16.512,30.902,16.256,31,16,31"/>
<path display="none" d="M28.757,35.5c-2.557,0-4.637-2.079-4.637-4.637c0-0.508,0.095-1.02,0.291-1.562l0.053-0.147l-9.788-6.17
	l-0.11,0.115c-0.885,0.912-2.065,1.416-3.322,1.416c-2.556,0-4.636-2.081-4.636-4.638c0-2.558,2.08-4.637,4.636-4.637
	c1.241,0,2.409,0.489,3.289,1.374l0.106,0.107l9.877-5.731l-0.063-0.156c-0.221-0.558-0.333-1.131-0.333-1.7
	c0-2.556,2.08-4.635,4.637-4.635c2.556,0,4.636,2.079,4.636,4.635c0,2.559-2.08,4.639-4.636,4.639c-1.234,0-2.397-0.482-3.275-1.358
	l-0.106-0.107l-9.884,5.735l0.062,0.157c0.217,0.554,0.327,1.119,0.327,1.678c0,0.533-0.104,1.081-0.312,1.627l-0.057,0.149
	l9.769,6.156l0.111-0.116c0.892-0.947,2.086-1.466,3.365-1.466c2.556,0,4.636,2.078,4.636,4.635
	C33.393,33.421,31.313,35.5,28.757,35.5L28.757,35.5z M28.757,27.798c-1.052,0-2.019,0.534-2.587,1.433l-0.052,0.094
	c-0.284,0.487-0.429,1.004-0.429,1.539c0,1.691,1.376,3.067,3.067,3.067c1.69,0,3.066-1.376,3.066-3.067
	C31.823,29.173,30.447,27.798,28.757,27.798L28.757,27.798z M11.243,16.811c-1.69,0-3.066,1.376-3.066,3.067
	c0,1.69,1.376,3.068,3.066,3.068c1.041,0,2.002-0.527,2.571-1.406c0.329-0.523,0.496-1.089,0.496-1.662
	c0-0.522-0.14-1.028-0.411-1.508c-0.087-0.094-0.133-0.151-0.169-0.213l-0.045-0.116C13.097,17.259,12.206,16.811,11.243,16.811
	L11.243,16.811z M28.757,6.069c-1.691,0-3.067,1.376-3.067,3.065c0,1.692,1.376,3.069,3.067,3.069c1.69,0,3.066-1.377,3.066-3.069
	C31.823,7.445,30.447,6.069,28.757,6.069L28.757,6.069z"/>
<g display="none">
	<g display="inline">
		<g>
			<path d="M22.746,31.173h-5.538c-0.505,0-0.912-0.41-0.912-0.912V29.62c0.006-0.551-0.021-0.938-0.079-1.154
				c-0.311-1.139-1.134-2.094-1.931-3.02c-0.263-0.303-0.511-0.592-0.739-0.883c-1.147-1.459-1.757-3.207-1.757-5.061
				c0-4.526,3.684-8.207,8.21-8.207c4.525,0,8.208,3.681,8.208,8.207c0,1.855-0.607,3.605-1.757,5.063
				c-0.201,0.258-0.433,0.528-0.675,0.813c-0.816,0.96-1.727,2.031-2.041,3.162c-0.055,0.202-0.082,0.565-0.078,1.073v0.646
				C23.657,30.763,23.25,31.173,22.746,31.173L22.746,31.173z M18.122,29.347h3.712c0.01-0.71,0.079-1.06,0.142-1.288
				c0.423-1.523,1.471-2.76,2.396-3.846c0.243-0.286,0.456-0.536,0.645-0.774c0.893-1.136,1.366-2.495,1.366-3.936
				c0-3.52-2.862-6.384-6.382-6.384s-6.384,2.864-6.384,6.384c0,1.438,0.472,2.798,1.366,3.934c0.211,0.27,0.442,0.535,0.687,0.818
				c0.843,0.979,1.888,2.192,2.31,3.733C18.042,28.229,18.114,28.596,18.122,29.347L18.122,29.347z"/>
		</g>
		<g>
			<path d="M22.746,33.588h-5.538c-0.505,0-0.912-0.409-0.912-0.914c0-0.504,0.407-0.911,0.912-0.911h5.538
				c0.504,0,0.911,0.407,0.911,0.911C23.657,33.179,23.25,33.588,22.746,33.588L22.746,33.588z"/>
		</g>
		<g>
			<path d="M21.362,36h-2.769c-0.505,0-0.914-0.409-0.914-0.912c0-0.504,0.409-0.914,0.914-0.914h2.769
				c0.502,0,0.912,0.41,0.912,0.914C22.274,35.591,21.864,36,21.362,36L21.362,36z"/>
		</g>
	</g>
	<g display="inline">
		<path d="M34.592,20.415h-3.648c-0.504,0-0.914-0.407-0.914-0.912c0-0.504,0.41-0.912,0.914-0.912h3.648
			c0.504,0,0.911,0.408,0.911,0.912C35.503,20.008,35.096,20.415,34.592,20.415L34.592,20.415z"/>
	</g>
	<g display="inline">
		<path d="M9.057,20.415H5.408c-0.504,0-0.911-0.407-0.911-0.912c0-0.504,0.407-0.912,0.911-0.912h3.648
			c0.504,0,0.914,0.408,0.914,0.912C9.971,20.008,9.561,20.415,9.057,20.415L9.057,20.415z"/>
	</g>
	<g display="inline">
		<path d="M20,9.474c-0.505,0-0.914-0.407-0.914-0.912V4.912C19.086,4.409,19.495,4,20,4s0.912,0.409,0.912,0.912v3.649
			C20.912,9.066,20.505,9.474,20,9.474L20,9.474z"/>
	</g>
	<g display="inline">
		<path d="M30.314,30.733c-0.232,0-0.465-0.089-0.644-0.268l-2.579-2.58c-0.356-0.355-0.356-0.934,0-1.291
			c0.357-0.356,0.934-0.354,1.29,0.002l2.579,2.579c0.357,0.357,0.357,0.936,0,1.292C30.782,30.646,30.55,30.733,30.314,30.733
			L30.314,30.733z"/>
	</g>
	<g display="inline">
		<path d="M12.26,12.679c-0.232,0-0.466-0.089-0.646-0.268L9.037,9.833c-0.357-0.357-0.357-0.936,0-1.293
			c0.357-0.356,0.934-0.356,1.29,0l2.579,2.579c0.357,0.356,0.357,0.936,0,1.292C12.728,12.59,12.495,12.679,12.26,12.679
			L12.26,12.679z"/>
	</g>
	<g display="inline">
		<path d="M9.682,30.733c-0.233,0-0.466-0.087-0.645-0.266c-0.357-0.356-0.357-0.935,0-1.292l2.581-2.581
			c0.354-0.356,0.931-0.356,1.288,0c0.357,0.357,0.357,0.936,0,1.293l-2.579,2.58C10.148,30.645,9.916,30.733,9.682,30.733
			L9.682,30.733z"/>
	</g>
	<g display="inline">
		<path d="M27.738,12.679c-0.233,0-0.466-0.089-0.646-0.268c-0.354-0.356-0.354-0.934,0-1.29l2.579-2.579
			c0.354-0.356,0.935-0.358,1.29-0.002c0.357,0.357,0.357,0.934,0,1.291l-2.577,2.578C28.206,12.588,27.973,12.679,27.738,12.679
			L27.738,12.679z"/>
	</g>
</g>
<g display="none">
	<path display="inline" d="M20,23.563c-1.997,0-3.621-1.618-3.621-3.61c0-1.99,1.624-3.61,3.621-3.61s3.621,1.62,3.621,3.61
		C23.62,21.945,21.996,23.563,20,23.563L20,23.563z M20,17.866c-1.156,0-2.097,0.936-2.097,2.087S18.843,22.04,20,22.04
		c1.157,0,2.097-0.936,2.097-2.087S21.156,17.866,20,17.866L20,17.866z"/>
	<g display="inline">
		<path d="M34.516,23.432l-3.197-1.847c0.072-0.524,0.109-1.055,0.109-1.585s-0.037-1.063-0.109-1.587l3.197-1.845
			c0.341-0.197,0.458-0.635,0.261-0.977l-3.571-6.186c-0.096-0.165-0.252-0.284-0.435-0.333c-0.183-0.05-0.378-0.021-0.541,0.071
			l-3.198,1.847c-0.84-0.658-1.76-1.19-2.746-1.588V5.714C24.285,5.318,23.967,5,23.57,5h-7.142c-0.395,0-0.714,0.318-0.714,0.714
			v3.689c-0.986,0.397-1.907,0.93-2.746,1.588L9.771,9.146c-0.341-0.199-0.778-0.082-0.976,0.26l-3.571,6.186
			c-0.095,0.165-0.12,0.358-0.072,0.543c0.049,0.183,0.169,0.339,0.333,0.434l3.197,1.845C8.608,18.938,8.571,19.47,8.571,20
			s0.038,1.061,0.111,1.585L5.485,23.43c-0.341,0.197-0.458,0.635-0.261,0.977l3.571,6.186c0.095,0.165,0.251,0.284,0.435,0.335
			c0.182,0.048,0.377,0.021,0.541-0.073l3.198-1.845c0.839,0.656,1.76,1.188,2.746,1.588v3.689c0,0.394,0.32,0.714,0.714,0.714
			h7.142c0.396,0,0.715-0.32,0.715-0.714v-3.689c0.986-0.399,1.906-0.932,2.748-1.588l3.196,1.845
			c0.163,0.095,0.358,0.121,0.541,0.073c0.183-0.051,0.339-0.17,0.435-0.335l3.571-6.186C34.974,24.064,34.856,23.627,34.516,23.432
			z M30.325,29.26l-3.006-1.735c-0.263-0.152-0.592-0.121-0.822,0.076c-0.938,0.804-2.003,1.419-3.164,1.83
			c-0.284,0.101-0.477,0.368-0.477,0.674v3.467h-5.714v-3.467c0-0.306-0.19-0.573-0.477-0.674c-1.16-0.411-2.225-1.026-3.164-1.83
			c-0.23-0.197-0.56-0.229-0.822-0.076L9.676,29.26l-2.857-4.95l3.003-1.733c0.262-0.15,0.401-0.45,0.345-0.748
			C10.056,21.228,10,20.612,10,20c0-0.614,0.057-1.228,0.167-1.83c0.056-0.296-0.083-0.598-0.345-0.748l-3.003-1.733l2.857-4.95
			l3.004,1.735c0.262,0.152,0.591,0.121,0.822-0.074c0.939-0.804,2.003-1.419,3.164-1.83c0.287-0.101,0.477-0.37,0.477-0.674V6.429
			h5.714v3.467c0,0.304,0.192,0.573,0.477,0.674c1.161,0.411,2.226,1.026,3.164,1.83c0.23,0.195,0.56,0.227,0.822,0.074l3.005-1.735
			l2.857,4.95l-3.004,1.733c-0.262,0.15-0.4,0.452-0.345,0.748C29.943,18.772,30,19.386,30,20c0,0.612-0.057,1.228-0.167,1.828
			c-0.056,0.298,0.083,0.598,0.345,0.748l3.004,1.733L30.325,29.26z"/>
	</g>
</g>
<g display="none">
	<path display="inline" d="M27.383,9.585c-0.393,0-0.777,0.075-1.143,0.224c-1.553,0.628-2.303,2.404-1.674,3.963
		c0.469,1.152,1.576,1.896,2.822,1.896l0,0c0.39,0,0.771-0.074,1.133-0.221c0.756-0.306,1.346-0.886,1.662-1.635
		c0.318-0.749,0.326-1.573,0.021-2.326C29.738,10.331,28.627,9.585,27.383,9.585z M28.827,13.235
		c-0.165,0.386-0.47,0.686-0.858,0.844c-0.187,0.074-0.383,0.113-0.58,0.113c-0.644,0-1.215-0.383-1.454-0.977
		c-0.325-0.801,0.062-1.717,0.86-2.04c0.188-0.076,0.387-0.115,0.588-0.115c0.642,0,1.214,0.385,1.456,0.978
		C28.994,12.425,28.99,12.85,28.827,13.235z"/>
	<path display="inline" d="M14.458,21.109c-2.441,0-4.429,1.986-4.429,4.43c0,2.438,1.987,4.422,4.429,4.422
		c2.44,0,4.426-1.984,4.426-4.422C18.884,23.096,16.898,21.109,14.458,21.109z M14.458,28.486c-1.628,0-2.954-1.322-2.954-2.947
		c0-1.629,1.326-2.954,2.954-2.954s2.951,1.325,2.951,2.954C17.409,27.164,16.086,28.486,14.458,28.486z"/>
	<path display="inline" d="M23.614,23.695l-1.813-0.663c-0.106-0.313-0.233-0.618-0.379-0.916l0.811-1.754
		c0.193-0.415,0.127-0.909-0.168-1.255c-0.355-0.422-0.752-0.818-1.177-1.177c-0.212-0.179-0.482-0.279-0.762-0.279
		c-0.167,0-0.329,0.035-0.482,0.102c-0.003,0.002-0.007,0.004-0.011,0.006l-1.754,0.813c-0.294-0.144-0.6-0.271-0.913-0.376
		l-0.67-1.821c-0.158-0.425-0.553-0.724-1.005-0.763c-0.549-0.048-1.116-0.048-1.664,0c-0.453,0.039-0.848,0.338-1.008,0.767
		l-0.665,1.813c-0.311,0.107-0.617,0.234-0.915,0.38l-1.757-0.813c-0.003-0.002-0.006-0.004-0.009-0.006
		c-0.154-0.066-0.316-0.102-0.483-0.102c-0.281,0-0.552,0.101-0.763,0.28c-0.426,0.361-0.821,0.757-1.173,1.172
		c-0.296,0.346-0.363,0.838-0.172,1.257l0.813,1.754c-0.144,0.294-0.271,0.6-0.377,0.914l-1.816,0.667
		c-0.428,0.157-0.729,0.553-0.769,1.012c-0.043,0.55-0.043,1.106,0,1.658c0.039,0.455,0.34,0.851,0.768,1.007l1.815,0.668
		c0.106,0.312,0.233,0.617,0.379,0.913l-0.814,1.763c-0.188,0.409-0.122,0.897,0.169,1.249c0.355,0.421,0.753,0.818,1.18,1.18
		c0.003,0.002,0.005,0.004,0.007,0.006c0.212,0.175,0.479,0.269,0.753,0.269c0.172,0,0.344-0.038,0.494-0.109l1.75-0.813
		c0.294,0.146,0.601,0.272,0.917,0.38l0.668,1.815c0.16,0.433,0.557,0.732,1.012,0.765c0.279,0.023,0.558,0.036,0.827,0.036
		c0.27,0,0.548-0.013,0.828-0.036c0.455-0.032,0.852-0.332,1.011-0.767l0.666-1.81c0.31-0.107,0.616-0.236,0.914-0.38l1.765,0.816
		c0.152,0.067,0.314,0.102,0.482,0.102l0,0c0.272,0,0.54-0.094,0.751-0.267c0.004-0.002,0.008-0.006,0.012-0.01
		c0.424-0.359,0.82-0.755,1.174-1.172c0.299-0.346,0.367-0.842,0.172-1.257l-0.811-1.757c0.145-0.298,0.271-0.604,0.377-0.917
		l1.815-0.666c0.429-0.158,0.729-0.554,0.769-1.009c0.044-0.55,0.044-1.108-0.001-1.664C24.344,24.248,24.041,23.853,23.614,23.695z
		 M22.926,26.054l-1.977,0.729c-0.221,0.082-0.391,0.263-0.455,0.489c-0.13,0.454-0.312,0.896-0.54,1.311
		c-0.114,0.205-0.122,0.453-0.023,0.667l0.883,1.909c-0.23,0.259-0.478,0.505-0.737,0.735l-1.91-0.886
		c-0.212-0.098-0.46-0.088-0.666,0.023c-0.42,0.232-0.862,0.415-1.311,0.548c-0.226,0.063-0.407,0.232-0.488,0.453l-0.722,1.969
		c-0.354,0.023-0.689,0.023-1.042,0l-0.727-1.973c-0.082-0.221-0.263-0.39-0.488-0.455c-0.464-0.133-0.905-0.317-1.309-0.542
		c-0.207-0.115-0.455-0.125-0.669-0.025L8.837,31.89c-0.262-0.23-0.508-0.479-0.735-0.733l0.883-1.913
		c0.099-0.214,0.089-0.461-0.025-0.667c-0.23-0.417-0.413-0.856-0.542-1.308c-0.065-0.226-0.234-0.41-0.456-0.49L5.99,26.054
		c-0.02-0.346-0.02-0.695,0-1.039l1.976-0.727c0.22-0.08,0.388-0.263,0.455-0.487c0.133-0.463,0.315-0.903,0.541-1.311
		c0.114-0.207,0.124-0.455,0.025-0.668l-0.883-1.906c0.228-0.257,0.475-0.503,0.737-0.737l1.91,0.884
		c0.213,0.1,0.461,0.09,0.667-0.023c0.418-0.232,0.858-0.415,1.307-0.543c0.227-0.065,0.409-0.234,0.49-0.456l0.723-1.973
		c0.346-0.021,0.696-0.021,1.042,0l0.727,1.977c0.081,0.224,0.263,0.393,0.489,0.456c0.458,0.132,0.899,0.313,1.309,0.539
		c0.205,0.113,0.453,0.123,0.667,0.023l1.906-0.884c0.261,0.23,0.507,0.477,0.737,0.737l-0.883,1.912
		c-0.099,0.213-0.09,0.461,0.024,0.666c0.229,0.415,0.412,0.855,0.543,1.311c0.064,0.225,0.234,0.407,0.455,0.487l1.973,0.723
		C22.945,25.36,22.945,25.71,22.926,26.054z"/>
	<path display="inline" d="M33.979,13.039c0.013-0.24,0.017-0.483,0.004-0.726l1.154-1.049c0.315-0.284,0.44-0.734,0.313-1.147
		c-0.141-0.455-0.319-0.895-0.532-1.312c-0.19-0.371-0.569-0.602-0.981-0.602c-0.016,0-0.031,0-0.039,0l-1.556,0.052
		c-0.157-0.179-0.329-0.352-0.509-0.517l0.074-1.56c0-0.006,0-0.014,0.002-0.021c0.008-0.425-0.229-0.822-0.594-1.009
		c-0.412-0.217-0.847-0.401-1.302-0.553c-0.109-0.034-0.225-0.054-0.341-0.054c-0.303,0-0.597,0.127-0.807,0.35l-1.063,1.139
		c-0.244-0.015-0.484-0.017-0.727-0.005l-1.049-1.157c-0.207-0.23-0.507-0.362-0.819-0.362c-0.111,0-0.221,0.017-0.328,0.05
		c-0.447,0.14-0.887,0.316-1.307,0.53c-0.385,0.193-0.623,0.597-0.605,1.021l0.051,1.558c-0.182,0.162-0.354,0.331-0.517,0.51
		l-1.559-0.075C20.51,8.079,20.11,8.31,19.914,8.688c-0.218,0.413-0.404,0.851-0.553,1.301c-0.001,0.005-0.003,0.011-0.005,0.015
		c-0.123,0.405-0.012,0.84,0.302,1.14l1.138,1.061c-0.016,0.243-0.018,0.487-0.006,0.729l-1.158,1.049
		c-0.314,0.29-0.435,0.737-0.311,1.138c0.067,0.223,0.145,0.441,0.238,0.672c0.094,0.23,0.19,0.44,0.292,0.64
		c0.188,0.377,0.566,0.609,0.987,0.609c0.012,0,0.021,0,0.037-0.002l1.553-0.052c0.16,0.182,0.332,0.355,0.512,0.519l-0.075,1.565
		c-0.018,0.423,0.214,0.824,0.587,1.021c0.399,0.212,0.836,0.398,1.303,0.554c0.111,0.038,0.229,0.056,0.346,0.056
		c0.307,0,0.601-0.129,0.807-0.354l1.062-1.134c0.242,0.014,0.484,0.016,0.729,0.004l1.047,1.151c0.21,0.232,0.51,0.364,0.82,0.364
		c0.109,0,0.22-0.015,0.325-0.048c0.45-0.14,0.892-0.318,1.304-0.528c0.385-0.189,0.625-0.592,0.611-1.027l-0.052-1.552
		c0.181-0.16,0.354-0.333,0.517-0.512l1.559,0.075c0.019,0.002,0.036,0.002,0.055,0.002c0.414,0,0.786-0.227,0.975-0.59
		c0.217-0.407,0.403-0.843,0.553-1.299c0.133-0.403,0.02-0.854-0.293-1.15L33.979,13.039z M32.486,12.089
		c0.043,0.386,0.039,0.773-0.008,1.15c-0.03,0.234,0.057,0.469,0.228,0.63l1.226,1.148c-0.081,0.222-0.172,0.435-0.273,0.64
		l-1.675-0.082c-0.236-0.01-0.461,0.09-0.608,0.272c-0.246,0.304-0.525,0.578-0.828,0.816c-0.185,0.145-0.289,0.369-0.281,0.605
		l0.057,1.671c-0.21,0.098-0.427,0.187-0.646,0.264l-1.129-1.245c-0.141-0.153-0.34-0.24-0.545-0.24c-0.027,0-0.055,0-0.08,0.004
		c-0.393,0.042-0.781,0.038-1.154-0.008c-0.232-0.03-0.469,0.056-0.629,0.229l-1.146,1.224c-0.225-0.082-0.438-0.175-0.643-0.272
		l0.081-1.677c0.012-0.236-0.091-0.461-0.273-0.609c-0.303-0.246-0.575-0.522-0.81-0.822c-0.145-0.188-0.37-0.292-0.607-0.286
		l-1.674,0.058c-0.047-0.104-0.094-0.209-0.14-0.322c-0.045-0.109-0.085-0.218-0.123-0.323l1.243-1.129
		c0.174-0.158,0.264-0.391,0.237-0.623c-0.04-0.38-0.036-0.772,0.009-1.162c0.028-0.232-0.057-0.465-0.229-0.626l-1.225-1.145
		c0.08-0.22,0.17-0.433,0.272-0.641l1.68,0.079c0.235,0.012,0.46-0.09,0.608-0.272c0.24-0.296,0.52-0.572,0.826-0.816
		c0.184-0.145,0.287-0.367,0.279-0.602l-0.055-1.675c0.211-0.097,0.428-0.185,0.646-0.262l1.127,1.245
		c0.159,0.173,0.39,0.261,0.622,0.238c0.384-0.041,0.776-0.039,1.164,0.008c0.232,0.026,0.466-0.058,0.624-0.23l1.144-1.222
		c0.219,0.08,0.435,0.173,0.646,0.272l-0.08,1.675c-0.012,0.234,0.088,0.459,0.268,0.607c0.311,0.251,0.582,0.532,0.814,0.828
		c0.146,0.184,0.369,0.288,0.605,0.282l1.678-0.056c0.096,0.209,0.184,0.424,0.261,0.647l-1.245,1.129
		C32.551,11.622,32.462,11.854,32.486,12.089z"/>
</g>
<path display="none" d="M33.286,18.322c-0.14-0.133-0.321-0.206-0.524-0.206c-0.192,0.002-0.374,0.075-0.509,0.206L19.512,30.67
	c-1.263,1.223-2.952,1.905-4.756,1.918h-0.054c-1.784,0-3.464-0.657-4.732-1.848c-1.279-1.202-1.992-2.81-2.006-4.523
	c-0.014-1.715,0.674-3.333,1.935-4.554L23.169,8.8c0.913-0.886,2.134-1.379,3.438-1.388h0.039c1.287,0,2.503,0.473,3.421,1.336
	c0.925,0.871,1.438,2.03,1.45,3.268c0.008,1.237-0.488,2.406-1.399,3.288L16.846,28.168c-0.563,0.547-1.315,0.851-2.12,0.856h-0.024
	c-0.795,0-1.544-0.293-2.111-0.824c-0.569-0.534-0.886-1.248-0.892-2.013c-0.006-0.76,0.299-1.479,0.859-2.022l12.63-12.238
	c0.139-0.134,0.216-0.313,0.216-0.5c0-0.189-0.077-0.368-0.216-0.503c-0.138-0.132-0.321-0.206-0.523-0.206
	c-0.191,0.002-0.373,0.075-0.508,0.206L11.524,23.165c-0.839,0.813-1.296,1.891-1.287,3.034c0.008,1.143,0.483,2.214,1.334,3.017
	c0.838,0.786,1.949,1.221,3.129,1.221h0.036c1.194-0.01,2.312-0.461,3.146-1.269l13.271-12.867c1.19-1.154,1.839-2.68,1.826-4.296
	c-0.013-1.62-0.686-3.137-1.894-4.271C29.896,6.615,28.32,6,26.646,6h-0.051c-1.691,0.013-3.277,0.651-4.463,1.799L8.861,20.663
	c-1.539,1.493-2.378,3.469-2.361,5.565c0.017,2.095,0.886,4.057,2.45,5.527C10.491,33.203,12.533,34,14.701,34h0.066
	c2.192-0.017,4.244-0.845,5.778-2.33l12.743-12.349C33.571,19.046,33.57,18.599,33.286,18.322z"/>
<g display="none">
	<path display="inline" d="M21.58,30.382C21.749,30.771,22.09,31,22.439,31c0.146,0,0.291-0.038,0.428-0.119
		c0.477-0.27,0.666-0.938,0.432-1.489l-8.49-19.776c-0.004-0.009-0.009-0.017-0.013-0.024c-0.017-0.036-0.036-0.07-0.055-0.104
		c-0.018-0.028-0.034-0.056-0.051-0.082c-0.019-0.027-0.04-0.049-0.061-0.071c-0.021-0.03-0.046-0.059-0.074-0.086
		c-0.017-0.015-0.04-0.029-0.059-0.047c-0.034-0.027-0.065-0.051-0.101-0.073c-0.009-0.004-0.011-0.009-0.018-0.014
		c-0.017-0.009-0.032-0.014-0.046-0.023c-0.036-0.017-0.074-0.034-0.11-0.046c-0.025-0.007-0.051-0.016-0.078-0.022
		c-0.036-0.006-0.067-0.011-0.104-0.021C14.011,9.002,13.981,9,13.955,9c-0.032,0-0.068,0-0.1,0.002
		c-0.03,0.01-0.062,0.015-0.091,0.019c-0.03,0.009-0.06,0.015-0.089,0.026c-0.034,0.01-0.067,0.027-0.102,0.044
		c-0.015,0.01-0.034,0.013-0.053,0.023c-0.006,0.005-0.011,0.01-0.017,0.014c-0.034,0.021-0.063,0.042-0.093,0.066
		c-0.023,0.017-0.049,0.034-0.07,0.056c-0.023,0.022-0.044,0.05-0.065,0.074c-0.021,0.027-0.047,0.052-0.068,0.083
		c-0.017,0.022-0.029,0.046-0.044,0.072c-0.021,0.035-0.044,0.072-0.059,0.111c-0.006,0.008-0.01,0.016-0.015,0.022L4.602,29.392
		c-0.237,0.551-0.044,1.22,0.429,1.489C5.17,30.962,5.316,31,5.458,31c0.353,0,0.692-0.229,0.859-0.618l1.759-4.097h11.747
		L21.58,30.382z M9.031,24.061l4.919-11.455l4.918,11.455H9.031z"/>
	<g display="inline">
		<path d="M27.088,18.815c-0.285,0.363-0.481,0.463-0.737,0.463c-0.458,0-0.825-0.429-0.825-0.955c0-0.23,0.057-0.396,0.142-0.559
			c0.796-1.451,2.33-2.603,4.718-2.603c3.295,0,5.115,2.24,5.115,5.598v9.055c0,0.561-0.397,1.021-0.882,1.021
			c-0.483,0-0.88-0.46-0.88-1.021v-1.188C33.028,30.176,31.379,31,29.674,31c-3.011,0-4.916-1.679-4.916-4.71
			c0-2.896,1.905-4.643,4.974-4.643h4.007V20.76c0-2.239-1.279-3.624-3.354-3.624C28.879,17.136,27.968,17.663,27.088,18.815z
			 M33.738,24.875v-1.383h-4.007c-1.849,0-3.125,0.89-3.125,2.798c0,1.713,1.021,2.8,3.237,2.8
			C31.834,29.09,33.738,27.674,33.738,24.875z"/>
	</g>
</g>
<path display="none" d="M35.203,9.002c-0.188-0.143-0.432-0.19-0.66-0.129L8.286,16.106l-2.819-0.818
	c-0.227-0.065-0.475-0.02-0.664,0.122C4.612,15.552,4.5,15.776,4.5,16.015v7.766c0,0.24,0.114,0.467,0.309,0.608
	c0.193,0.143,0.443,0.186,0.673,0.113l2.631-0.821c0.053,0.012,0.11,0.017,0.167,0.017c0.065,0,0.127-0.007,0.187-0.023l4.166,1.19
	c0,0.009-0.001,0.017-0.001,0.027c0.043,1.679,0.73,3.252,1.937,4.43c1.208,1.182,2.802,1.831,4.487,1.831
	c2.189,0,4.197-1.104,5.378-2.916l10.104,2.886c0.066,0.021,0.138,0.03,0.207,0.03c0.163,0,0.322-0.053,0.455-0.153
	c0.191-0.142,0.301-0.366,0.301-0.604V9.604C35.5,9.367,35.391,9.145,35.203,9.002z M24.402,26.653
	c-0.073-0.033-0.15-0.055-0.227-0.063L9.037,22.265V17.47l21.926-6.041V28.53L24.402,26.653z M6.012,17.023l1.512,0.437v4.818
	l-1.512,0.473V17.023z M19.055,29.64c-2.487,0-4.586-1.906-4.878-4.333l8.712,2.489C21.967,28.951,20.566,29.64,19.055,29.64z
	 M33.988,29.394l-1.513-0.433V11.012l1.513-0.416V29.394z"/>
<path display="none" d="M11.592,35c-0.39,0-0.706-0.317-0.706-0.708v-5.044c0-0.389,0.316-0.706,0.706-0.706h1.681
	c1.776,0,2.998-0.936,3.734-2.859c0.401-1.05,0.534-2.122,0.578-2.669l0.018-0.224l-0.207-0.088
	c-1.033-0.441-1.94-1.127-2.697-2.042c-0.615-0.744-1.11-1.627-1.472-2.628l-0.127-0.35l-0.323,0.185
	c-0.361,0.208-0.77,0.315-1.185,0.315c-0.39,0-0.706-0.317-0.706-0.706c0-0.391,0.316-0.706,0.706-0.706
	c0.538,0,0.975-0.437,0.975-0.976c0-0.537-0.437-0.975-0.975-0.975H9.91c-2.244,0-4.068-1.826-4.068-4.07
	c0-2.243,1.824-4.067,4.068-4.067c0.773,0,1.525,0.217,2.176,0.632l0.481,0.304V5.706C12.567,5.315,12.884,5,13.273,5h13.453
	c0.39,0,0.706,0.315,0.706,0.706v1.912l0.48-0.304c0.651-0.415,1.403-0.632,2.177-0.632c2.243,0,4.068,1.824,4.068,4.067
	c0,2.244-1.825,4.07-4.068,4.07h-1.683c-0.537,0-0.975,0.438-0.975,0.975c0,0.539,0.438,0.976,0.975,0.976
	c0.39,0,0.706,0.315,0.706,0.706c0,0.389-0.316,0.706-0.706,0.706c-0.414,0-0.823-0.107-1.185-0.315l-0.323-0.185l-0.127,0.35
	c-0.36,1.001-0.855,1.884-1.473,2.628c-0.758,0.915-1.664,1.603-2.696,2.04l-0.207,0.09l0.018,0.224
	c0.044,0.547,0.176,1.621,0.578,2.669c0.736,1.924,1.958,2.859,3.734,2.859h1.681c0.39,0,0.706,0.317,0.706,0.706v5.044
	c0,0.391-0.316,0.708-0.706,0.708H11.592z M27.702,33.586v-3.632H12.297v3.632H27.702z M23.1,28.542L22.7,28.035
	c-0.423-0.532-0.776-1.173-1.05-1.901c-0.379-1.009-0.543-2.006-0.613-2.665l-0.033-0.311l-0.311,0.034
	c-0.228,0.022-0.459,0.037-0.693,0.037c-0.232,0-0.466-0.015-0.693-0.037l-0.311-0.034l-0.033,0.311
	c-0.071,0.657-0.235,1.654-0.614,2.665c-0.271,0.724-0.623,1.364-1.048,1.901l-0.399,0.507H23.1z M13.979,14.112
	c0,4.463,2.532,7.703,6.021,7.703s6.021-3.24,6.021-7.703V6.411H13.979V14.112z M9.91,8.094c-1.464,0-2.656,1.192-2.656,2.656
	c0,1.465,1.192,2.656,2.656,2.656h1.682c0.199,0,0.396,0.024,0.585,0.073l0.39,0.1V10.75C12.567,9.286,11.375,8.094,9.91,8.094
	L9.91,8.094z M30.09,8.094c-1.466,0-2.657,1.192-2.657,2.656v2.829l0.391-0.1c0.188-0.049,0.385-0.073,0.584-0.073h1.683
	c1.465,0,2.656-1.191,2.656-2.656C32.746,9.286,31.555,8.094,30.09,8.094L30.09,8.094z"/>
<g display="none">
	<g display="inline">
		<path d="M13.082,34.5l-0.177-0.131c-2.883-2.106-4.178-16.188-4.178-19.579v-0.677h19.846v0.677c0,0.486-0.034,1.178-0.099,2.01
			c0.21,0.055,0.411,0.128,0.6,0.216c1.168,0.555,1.927,1.764,2.141,3.403c0.205,1.584-0.129,3.395-0.936,5.096
			c-0.92,1.931-2.39,3.519-3.945,4.267c-0.693,2.45-1.457,3.994-2.267,4.588L23.887,34.5H13.082z M23.417,33.146
			c1.986-1.987,3.618-13.307,3.788-17.681h-17.11c0.166,4.479,1.532,15.736,3.459,17.681H23.417z M28.354,18.181
			c-0.263,2.655-0.79,6.471-1.53,9.69c0.877-0.723,1.677-1.769,2.233-2.939c0.679-1.425,0.98-2.921,0.849-4.209
			c-0.123-1.229-0.625-2.11-1.409-2.484C28.45,18.217,28.403,18.197,28.354,18.181L28.354,18.181z"/>
		<path d="M16.358,11.323l0.115-0.103c0.637-0.558,1.316-1.406,1.145-1.963c-0.073-0.239-0.327-0.423-0.78-0.563
			c-0.879-0.274-1.432-0.72-1.598-1.291c-0.234-0.811,0.299-1.833,1.467-2.803L16.826,4.5l0.994,0.709L17.699,5.31
			c-0.675,0.561-1.289,1.353-1.142,1.857c0.068,0.235,0.324,0.417,0.785,0.561c0.869,0.269,1.418,0.716,1.593,1.294
			c0.251,0.829-0.277,1.882-1.45,2.89l-0.118,0.104L16.358,11.323z"/>
		<path d="M20.175,12.534l0.116-0.104c0.634-0.557,1.314-1.403,1.145-1.962c-0.073-0.237-0.33-0.423-0.784-0.563
			c-0.875-0.271-1.428-0.718-1.595-1.292c-0.236-0.803,0.298-1.823,1.466-2.801l0.123-0.102l0.99,0.711l-0.121,0.099
			c-0.675,0.563-1.287,1.355-1.141,1.86c0.089,0.303,0.43,0.43,0.863,0.59c0.566,0.211,1.275,0.474,1.517,1.261
			c0.298,0.982-0.598,2.173-1.455,2.893l-0.117,0.1L20.175,12.534z"/>
	</g>
</g>
<path display="none" d="M34.79,10.744c-0.134-0.134-0.316-0.209-0.505-0.209c-0.002,0-0.002,0-0.002,0l-2.141,0.008V7.679
	c0-0.395-0.32-0.714-0.714-0.714h-0.894c-5.365,0-8.508,0.778-10.535,2.659c-2.027-1.881-5.17-2.659-10.535-2.659H8.571
	c-0.394,0-0.714,0.319-0.714,0.714v2.864l-2.141-0.008c-0.194-0.001-0.373,0.075-0.507,0.209C5.075,10.878,5,11.061,5,11.25v18.393
	c0,0.395,0.32,0.714,0.715,0.714h0.893c9.612,0,11.666,2.169,11.869,2.419c0.136,0.163,0.338,0.26,0.553,0.26h1.94
	c0.216,0,0.418-0.097,0.554-0.26c0.202-0.25,2.257-2.419,11.869-2.419h0.893c0.395,0,0.715-0.319,0.715-0.714V11.25
	C35,11.061,34.924,10.878,34.79,10.744z M6.429,28.929V11.966l1.429,0.006v16.97c-0.404-0.009-0.82-0.013-1.25-0.013H6.429z
	 M9.286,28.988V11.265c0-0.002,0-0.004,0-0.008V8.393h0.179c5.221,0,8.101,0.738,9.82,2.534v20.632
	C18.339,30.69,15.814,29.291,9.286,28.988z M20.715,31.559V10.927c1.718-1.796,4.6-2.534,9.82-2.534h0.179v2.864v17.731
	C24.184,29.291,21.661,30.69,20.715,31.559z M33.571,28.929h-0.179c-0.431,0-0.846,0.004-1.25,0.013v-16.97l1.429-0.006V28.929z"/>
<g display="none">
	<path display="inline" d="M5.285,32.556c-0.433,0-0.785-0.353-0.785-0.785V8.229c0-0.433,0.352-0.785,0.785-0.785h29.43
		c0.434,0,0.785,0.353,0.785,0.785v23.541c0,0.433-0.352,0.785-0.785,0.785H5.285z M6.069,30.986h27.861V16.041H6.069V30.986z
		 M6.069,14.472h27.861V9.014H6.069V14.472z"/>
	<path display="inline" d="M10.333,11.745c0,0.497-0.402,0.899-0.898,0.899c-0.497,0-0.897-0.402-0.897-0.899
		c0-0.494,0.4-0.896,0.897-0.896C9.931,10.849,10.333,11.251,10.333,11.745"/>
	<path display="inline" d="M13.827,11.745c0,0.497-0.403,0.899-0.897,0.899c-0.496,0-0.898-0.402-0.898-0.899
		c0-0.494,0.402-0.896,0.898-0.896C13.424,10.849,13.827,11.251,13.827,11.745"/>
	<path display="inline" d="M17.321,11.745c0,0.497-0.402,0.899-0.898,0.899c-0.497,0-0.897-0.402-0.897-0.899
		c0-0.494,0.4-0.896,0.897-0.896C16.919,10.849,17.321,11.251,17.321,11.745"/>
</g>
<g display="none">
	<path display="inline" d="M20.869,25.282c0,0.483-0.389,0.877-0.869,0.877c-0.48,0-0.868-0.394-0.868-0.877
		c0-0.484,0.388-0.877,0.868-0.877C20.48,24.405,20.869,24.798,20.869,25.282"/>
	<path display="inline" d="M13.035,34.05c-0.419,0-0.759-0.341-0.759-0.76c0-0.418,0.34-0.758,0.759-0.758h6.206v-3.303H5.759
		C5.34,29.229,5,28.889,5,28.47V6.708C5,6.289,5.34,5.95,5.759,5.95H34.24c0.42,0,0.76,0.339,0.76,0.758V28.47
		c0,0.419-0.34,0.76-0.76,0.76H20.76v3.303h6.207c0.419,0,0.76,0.34,0.76,0.758c0,0.419-0.341,0.76-0.76,0.76H13.035z M6.519,27.711
		h26.963v-5.029H6.519V27.711z M6.519,21.163h26.963V7.468H6.519V21.163z"/>
</g>
<g display="none">
	<path display="inline" d="M13.094,35c-1.43,0-2.594-1.187-2.594-2.647V7.649C10.5,6.188,11.664,5,13.094,5h13.81
		C28.336,5,29.5,6.188,29.5,7.649v24.703c0,1.461-1.164,2.647-2.596,2.647H13.094z M11.765,32.353c0,0.748,0.597,1.355,1.329,1.355
		h13.81c0.732,0,1.328-0.607,1.328-1.355v-1.961L11.765,30.44V32.353z M11.765,29.195l16.514-0.049l-0.047-18.34l-16.467,0.047
		V29.195z M13.094,6.292c-0.732,0-1.329,0.609-1.329,1.357v1.959l16.514-0.047l-0.047-1.912c0-0.748-0.596-1.357-1.328-1.357H13.094
		z"/>
	<path display="inline" d="M17.897,8.429h4.205c0.271,0,0.491-0.225,0.491-0.502s-0.22-0.503-0.491-0.503h-4.205
		c-0.271,0-0.492,0.226-0.492,0.503S17.626,8.429,17.897,8.429z"/>
	<path display="inline" d="M20,30.538c-0.815,0-1.478,0.677-1.478,1.509c0,0.833,0.663,1.51,1.478,1.51
		c0.814,0,1.479-0.677,1.479-1.51C21.479,31.215,20.814,30.538,20,30.538z M20,32.552c-0.271,0-0.493-0.228-0.493-0.505
		s0.222-0.502,0.493-0.502s0.492,0.225,0.492,0.502S20.271,32.552,20,32.552z"/>
</g>
<g>
	<path fill="#010101" d="M12.419,35c-2.223,0-4.292-1.2-5.399-3.134l-1.706-2.98c-0.651-1.144-0.255-2.604,0.886-3.261l3.979-2.477
		c0.369-0.211,0.793-0.323,1.22-0.323c0.818,0,1.567,0.411,2.004,1.101l0.559,0.88c0.172,0.258,0.448,0.412,0.739,0.412
		c0.11,0,0.218-0.023,0.316-0.066c2.157-0.861,4.979-3.395,5.794-4.149c0.039-0.041,3.306-3.452,4.332-5.987
		c0.151-0.372,0.009-0.813-0.342-1.044l-0.883-0.563c-1.076-0.689-1.42-2.096-0.785-3.205l2.502-4.029C25.813,5.864,26.569,5,27.7,5
		c0.394,0,0.797,0.107,1.201,0.32l2.964,1.695c2.482,1.425,3.695,4.408,2.885,7.096c-1.422,4.729-4.106,8.979-7.979,12.632
		c-3.672,3.884-7.928,6.572-12.657,8.001C13.573,34.914,13.003,35,12.419,35L12.419,35z M11.381,24.331
		c-0.158,0-0.312,0.043-0.446,0.127l-3.963,2.467c-0.207,0.115-0.367,0.316-0.431,0.549c-0.063,0.222-0.034,0.456,0.08,0.657
		l1.706,2.983c0.846,1.476,2.449,2.467,3.987,2.467c0.499,0,0.98-0.102,1.429-0.301c10.237-4.555,15.351-9.669,19.54-19.546
		c0.798-1.877-0.156-4.25-2.168-5.403l-2.982-1.707c-0.141-0.078-0.311-0.123-0.467-0.123c-0.337,0-0.627,0.197-0.758,0.515
		l-2.471,3.96c-0.222,0.398-0.082,0.913,0.309,1.155l0.869,0.554c0.973,0.623,1.367,1.841,0.938,2.895
		c-1.116,2.749-4.486,6.303-4.63,6.453c-0.029,0.027-3.607,3.427-6.349,4.527c-0.277,0.111-0.569,0.168-0.868,0.168
		c-0.816,0-1.57-0.416-2.018-1.112l-0.556-0.88C11.997,24.536,11.73,24.331,11.381,24.331L11.381,24.331z"/>
	<path fill="#010101" d="M6.768,17.132c-0.417,0-0.754-0.337-0.754-0.753c0-5.718,4.649-10.37,10.364-10.37
		c0.417,0,0.755,0.34,0.755,0.754c0,0.415-0.338,0.755-0.755,0.755c-4.882,0-8.856,3.971-8.856,8.855
		C7.521,16.791,7.183,17.132,6.768,17.132L6.768,17.132z"/>
	<path fill="#010101" d="M12.343,17.132c-0.416,0-0.753-0.337-0.753-0.753c0-2.641,2.147-4.787,4.788-4.787
		c0.417,0,0.755,0.338,0.755,0.754c0,0.415-0.338,0.753-0.755,0.753c-1.809,0-3.28,1.472-3.28,3.28
		C13.097,16.795,12.76,17.132,12.343,17.132L12.343,17.132z"/>
</g>
</svg>
