<svg xmlns="http://www.w3.org/2000/svg" width="40" height="40"><path d="M33.334 12.095h-6.857v-1.143a3.622 3.622 0 0 0-3.619-3.619h-5.714a3.623 3.623 0 0 0-3.619 3.619v1.143H6.667A2.67 2.67 0 0 0 4 14.762V30a2.669 2.669 0 0 0 2.667 2.666h26.667A2.668 2.668 0 0 0 36 30V14.762a2.67 2.67 0 0 0-2.666-2.667zm-18.286-1.143c0-1.154.94-2.095 2.095-2.095h5.714c1.155 0 2.095.941 2.095 2.095v1.143h-9.904v-1.143zm-9.524 3.81c0-.631.513-1.143 1.143-1.143h26.667c.631 0 1.143.512 1.143 1.143v4.953H5.524v-4.953zm19.238 6.476h3.81v2.158h-3.81v-2.158zm-13.332 0h3.81v2.158h-3.81v-2.158zm21.904 9.905H6.667c-.63 0-1.143-.514-1.143-1.143v-8.762h4.382v2.92c0 .422.34.762.762.762h5.333c.421 0 .762-.34.762-.762v-2.92h6.476v2.92c0 .422.342.762.762.762h5.334c.421 0 .762-.34.762-.762v-2.92h4.381V30a1.146 1.146 0 0 1-1.144 1.143z"/></svg>