<svg xmlns="http://www.w3.org/2000/svg" width="40" height="40"><path d="M27.383 9.585a3.045 3.045 0 0 0-2.817 4.187 3.033 3.033 0 0 0 2.822 1.896c.39 0 .771-.074 1.133-.221a3.019 3.019 0 0 0 1.662-1.635 3.012 3.012 0 0 0 .021-2.326 3.031 3.031 0 0 0-2.821-1.901zm1.444 3.65a1.574 1.574 0 0 1-1.438.957 1.567 1.567 0 1 1 1.45-2.154c.155.387.151.812-.012 1.197zm-14.369 7.874a4.434 4.434 0 0 0-4.429 4.43 4.43 4.43 0 0 0 4.429 4.422 4.43 4.43 0 0 0 4.426-4.422 4.433 4.433 0 0 0-4.426-4.43zm0 7.377a2.954 2.954 0 0 1-2.954-2.947c0-1.629 1.326-2.954 2.954-2.954s2.951 1.325 2.951 2.954a2.952 2.952 0 0 1-2.951 2.947z"/><path d="M23.614 23.695l-1.813-.663a7.68 7.68 0 0 0-.379-.916l.811-1.754a1.177 1.177 0 0 0-.168-1.255 9.838 9.838 0 0 0-1.177-1.177 1.182 1.182 0 0 0-1.244-.177l-.011.006-1.754.813a7.514 7.514 0 0 0-.913-.376l-.67-1.821a1.185 1.185 0 0 0-1.005-.763 9.632 9.632 0 0 0-1.664 0 1.188 1.188 0 0 0-1.008.767l-.665 1.813a7.988 7.988 0 0 0-.915.38l-1.757-.813-.009-.006a1.182 1.182 0 0 0-1.246.178c-.426.361-.821.757-1.173 1.172a1.182 1.182 0 0 0-.172 1.257l.813 1.754c-.144.294-.271.6-.377.914l-1.816.667a1.187 1.187 0 0 0-.769 1.012c-.043.55-.043 1.106 0 1.658.039.455.34.851.768 1.007l1.815.668c.106.312.233.617.379.913l-.814 1.763c-.188.409-.122.897.169 1.249a10.038 10.038 0 0 0 1.187 1.186 1.183 1.183 0 0 0 1.247.16l1.75-.813c.294.146.601.272.917.38l.668 1.815c.16.433.557.732 1.012.765.279.023.558.036.827.036.27 0 .548-.013.828-.036a1.167 1.167 0 0 0 1.011-.767l.666-1.81a8.43 8.43 0 0 0 .914-.38l1.765.816a1.189 1.189 0 0 0 1.233-.165c.004-.002.008-.006.012-.01.424-.359.82-.755 1.174-1.172a1.17 1.17 0 0 0 .172-1.257l-.811-1.757c.145-.298.271-.604.377-.917l1.815-.666c.429-.158.729-.554.769-1.009.044-.55.044-1.108-.001-1.664a1.185 1.185 0 0 0-.768-1.005zm-.688 2.359l-1.977.729a.738.738 0 0 0-.455.489c-.13.454-.312.896-.54 1.311a.736.736 0 0 0-.023.667l.883 1.909c-.23.259-.478.505-.737.735l-1.91-.886a.747.747 0 0 0-.666.023c-.42.232-.862.415-1.311.548a.73.73 0 0 0-.488.453l-.722 1.969a7.876 7.876 0 0 1-1.042 0l-.727-1.973a.74.74 0 0 0-.488-.455 6.217 6.217 0 0 1-1.309-.542.735.735 0 0 0-.669-.025l-1.908.884a8.619 8.619 0 0 1-.735-.733l.883-1.913a.737.737 0 0 0-.025-.667 6.282 6.282 0 0 1-.542-1.308.737.737 0 0 0-.456-.49l-1.972-.725a9.003 9.003 0 0 1 0-1.039l1.976-.727a.744.744 0 0 0 .455-.487c.133-.463.315-.903.541-1.311a.739.739 0 0 0 .025-.668l-.883-1.906c.228-.257.475-.503.737-.737l1.91.884c.213.1.461.09.667-.023a6.206 6.206 0 0 1 1.307-.543.737.737 0 0 0 .49-.456l.723-1.973a8.625 8.625 0 0 1 1.042 0l.727 1.977a.728.728 0 0 0 .489.456 6.37 6.37 0 0 1 1.309.539.736.736 0 0 0 .667.023l1.906-.884c.261.23.507.477.737.737l-.883 1.912a.735.735 0 0 0 .024.666c.229.415.412.855.543 1.311a.733.733 0 0 0 .455.487l1.973.723c.018.345.018.695-.001 1.039zm11.053-13.015c.013-.24.017-.483.004-.726l1.154-1.049a1.11 1.11 0 0 0 .313-1.147 8.263 8.263 0 0 0-.532-1.312 1.102 1.102 0 0 0-.981-.602h-.039l-1.556.052a6.698 6.698 0 0 0-.509-.517l.074-1.56c0-.006 0-.014.002-.021a1.116 1.116 0 0 0-.594-1.009 8.717 8.717 0 0 0-1.302-.553 1.113 1.113 0 0 0-1.148.296L27.802 6.03a6.532 6.532 0 0 0-.727-.005l-1.049-1.157a1.105 1.105 0 0 0-1.147-.312c-.447.14-.887.316-1.307.53a1.098 1.098 0 0 0-.605 1.021l.051 1.558a6.913 6.913 0 0 0-.517.51L20.942 8.1a1.095 1.095 0 0 0-1.028.588 8.557 8.557 0 0 0-.558 1.316c-.123.405-.012.84.302 1.14l1.138 1.061a6.334 6.334 0 0 0-.006.729l-1.158 1.049c-.314.29-.435.737-.311 1.138a8.358 8.358 0 0 0 .53 1.312c.188.377.566.609.987.609.012 0 .021 0 .037-.002l1.553-.052c.16.182.332.355.512.519l-.075 1.565c-.018.423.214.824.587 1.021.399.212.836.398 1.303.554a1.096 1.096 0 0 0 1.153-.298l1.062-1.134c.242.014.484.016.729.004l1.047 1.151a1.11 1.11 0 0 0 1.145.316 8.35 8.35 0 0 0 1.304-.528c.385-.189.625-.592.611-1.027l-.052-1.552a6.75 6.75 0 0 0 .517-.512l1.559.075a1.094 1.094 0 0 0 1.03-.588c.217-.407.403-.843.553-1.299a1.11 1.11 0 0 0-.293-1.15l-1.141-1.066zm-1.493-.95c.043.386.039.773-.008 1.15a.74.74 0 0 0 .228.63l1.226 1.148a6.442 6.442 0 0 1-.273.64l-1.675-.082a.739.739 0 0 0-.608.272 5.193 5.193 0 0 1-.828.816.735.735 0 0 0-.281.605l.057 1.671a7.11 7.11 0 0 1-.646.264l-1.129-1.245a.744.744 0 0 0-.545-.24c-.027 0-.055 0-.08.004a5.053 5.053 0 0 1-1.154-.008.734.734 0 0 0-.629.229l-1.146 1.224a7.522 7.522 0 0 1-.643-.272l.081-1.677a.737.737 0 0 0-.273-.609 5.158 5.158 0 0 1-.81-.822.74.74 0 0 0-.607-.286l-1.674.058a7.78 7.78 0 0 1-.263-.645l1.243-1.129a.732.732 0 0 0 .237-.623c-.04-.38-.036-.772.009-1.162a.738.738 0 0 0-.229-.626l-1.225-1.145c.08-.22.17-.433.272-.641l1.68.079c.235.012.46-.09.608-.272.24-.296.52-.572.826-.816a.732.732 0 0 0 .279-.602l-.055-1.675c.211-.097.428-.185.646-.262l1.127 1.245c.159.173.39.261.622.238a5.15 5.15 0 0 1 1.164.008.737.737 0 0 0 .624-.23l1.144-1.222c.219.08.435.173.646.272l-.08 1.675a.737.737 0 0 0 .268.607c.311.251.582.532.814.828a.746.746 0 0 0 .605.282l1.678-.056c.096.209.184.424.261.647l-1.245 1.129a.745.745 0 0 0-.239.626z"/></svg>