<svg xmlns="http://www.w3.org/2000/svg" width="40" height="40" viewBox="0 0 40 40"><path d="M9.196 36a.759.759 0 0 1-.766-.767c0-.431.336-.768.766-.768h2.006V10.234l-.071-.021a3.286 3.286 0 0 1-1.666-1.148 3.034 3.034 0 0 1-.656-1.92c0-.88.308-1.63.915-2.229A3.08 3.08 0 0 1 11.968 4c.888 0 1.627.299 2.26.915.617.604.93 1.354.93 2.229 0 .708-.226 1.354-.672 1.92a3.18 3.18 0 0 1-1.681 1.147l-.072.021v.956l10.374 2.568a.781.781 0 0 1 .602.77v2.013l9.285 2.478c.355.093.543.315.572.681.027.363-.113.622-.417.77l-9.903 4.772a.559.559 0 0 1-.32.098.791.791 0 0 1-.418-.125c-.237-.148-.348-.357-.348-.656v-1.558l-9.426 3.362v8.104h2.037a.767.767 0 1 1 0 1.535H9.196zm3.538-11.271l9.426-3.359v-6.242l-9.426-2.334v11.935zm10.975-1.399l6.888-3.335-6.888-1.85v5.185zM11.964 5.534c-.433 0-.836.166-1.137.468-.625.624-.625 1.654-.001 2.297a1.57 1.57 0 0 0 1.138.474c.437 0 .848-.168 1.16-.473a1.6 1.6 0 0 0 .494-1.165A1.567 1.567 0 0 0 13.123 6a1.676 1.676 0 0 0-1.159-.466z"/></svg>