<svg xmlns="http://www.w3.org/2000/svg" width="40" height="40"><path d="M9.708 35C7.112 35 5 32.893 5 30.303a4.708 4.708 0 0 1 9.415 0A4.708 4.708 0 0 1 9.708 35zm0-7.555a2.863 2.863 0 0 0-2.863 2.857 2.863 2.863 0 0 0 5.724 0 2.863 2.863 0 0 0-2.861-2.857zM24.574 35a1.126 1.126 0 0 1-1.125-1.126c0-9.552-7.771-17.324-17.323-17.324-.621 0-1.126-.505-1.126-1.125s.505-1.126 1.126-1.126c10.792 0 19.573 8.781 19.573 19.575 0 .621-.506 1.126-1.125 1.126z"/><path d="M33.916 35a1.084 1.084 0 0 1-1.082-1.084c0-14.75-12-26.751-26.751-26.751a1.084 1.084 0 0 1 0-2.165C22.027 5 35 17.972 35 33.916c0 .598-.486 1.084-1.084 1.084z"/></svg>