<?xml version="1.0" encoding="utf-8"?>
<!-- Generator: Adobe Illustrator 14.0.0, SVG Export Plug-In . SVG Version: 6.00 Build 43363)  -->
<!DOCTYPE svg PUBLIC "-//W3C//DTD SVG 1.1//EN" "http://www.w3.org/Graphics/SVG/1.1/DTD/svg11.dtd">
<svg version="1.1" id="Layer_1" xmlns="http://www.w3.org/2000/svg" xmlns:xlink="http://www.w3.org/1999/xlink" x="0px" y="0px"
	 width="40px" height="40px" viewBox="0 0 40 40" enable-background="new 0 0 40 40" xml:space="preserve">
<g display="none">
	<path display="inline" d="M21.01,36.5c-0.277,0-0.537-0.137-0.693-0.368l-9.849-14.603c-1.171-1.861-1.79-3.993-1.79-6.162
		C8.678,8.824,14.206,3.5,21,3.5c6.795,0,12.322,5.324,12.322,11.867c0,2.164-0.612,4.284-1.77,6.129l-9.851,14.636
		C21.547,36.363,21.287,36.5,21.01,36.5L21.01,36.5z M21,5.17c-5.873,0-10.652,4.574-10.652,10.197c0,1.854,0.525,3.669,1.52,5.251
		l9.14,13.55l9.146-13.581c0.981-1.566,1.499-3.371,1.499-5.22C31.652,9.744,26.873,5.17,21,5.17L21,5.17z"/>
	<path display="inline" d="M21,20.857c-3.159,0-5.728-2.482-5.728-5.535c0-3.051,2.569-5.534,5.728-5.534s5.729,2.483,5.729,5.534
		C26.729,18.375,24.158,20.857,21,20.857L21,20.857z M21,11.458c-2.237,0-4.057,1.734-4.057,3.864c0,2.13,1.82,3.865,4.057,3.865
		s4.058-1.734,4.058-3.865C25.058,13.192,23.236,11.458,21,11.458L21,11.458z"/>
</g>
<path d="M36.705,34.289L26.059,23.615c3.918-4.69,3.688-11.708-0.707-16.114C23.1,5.243,20.104,4,16.919,4S10.74,5.243,8.488,7.501
	c-4.647,4.66-4.647,12.241,0,16.899c2.253,2.257,5.248,3.5,8.431,3.5c2.866,0,5.573-1.015,7.728-2.86l10.639,10.665
	C35.479,35.902,35.738,36,35.994,36s0.514-0.098,0.709-0.293C37.096,35.316,37.097,34.68,36.705,34.289z M9.766,23.126
	c-3.945-3.958-3.945-10.395,0-14.351c1.912-1.914,4.452-2.97,7.153-2.97s5.243,1.056,7.153,2.97c3.946,3.956,3.946,10.394,0,14.351
	c-1.91,1.914-4.452,2.969-7.153,2.969S11.678,25.04,9.766,23.126z"/>
</svg>
