<svg xmlns="http://www.w3.org/2000/svg" width="40" height="40"><path fill-rule="evenodd" clip-rule="evenodd" d="M22.672 29.195l-7.148 3.457c-.331-.021-.63-.235-.951-.766L5 6.985c.013-.354.356-.697.778-.697l28.958 15.838c.131.141.304.615.256.94-.018.122-.063.202-.135.239l-6.256 3.024v5.654c0 .926-.731 1.685-1.646 1.726l-4.283-4.514zm1.06-.506l2.346 2.471c.339.345.504.492.673.492h.001c.115 0 .261-.062.297-.363.016-.135.018-.341.018-.622v-3.22l.012-.011.012-.133-.014-.102-.007-.004-.003-.651-.003.002c.008-.487.029-1.026.029-1.026l.005-.103-8.106-5.941-.256.283 5.957 6.661.036-.019.786.937.293.328-2.076 1.021zM9.12 9.995a.812.812 0 0 0-.812.811l7.175 18.895c.195.325.464.665.957.665l6.112-2.922.146-.038 1.488-.735-9.567-10.689 13.229 8.908 3.224-1.551c.103-.054.224-.163.259-.392.043-.292-.086-.704-.281-.898L9.169 9.995H9.12z"/></svg>