<svg xmlns="http://www.w3.org/2000/svg" width="40" height="40"><path d="M6.333 20.678a.726.726 0 0 1-.724-.726c0-7.845 6.383-14.228 14.229-14.228 5.031 0 9.734 2.694 12.275 7.031l.521.886 1.032-4.821a.728.728 0 0 1 1.318-.242c.104.163.14.357.1.548l-1.378 6.438a.733.733 0 0 1-.651.571h-.01a.785.785 0 0 1-.199-.014l-6.441-1.38a.73.73 0 0 1-.56-.862.729.729 0 0 1 .862-.556l4.634.993-.453-.781a12.814 12.814 0 0 0-11.05-6.361c-7.046 0-12.778 5.732-12.778 12.778a.728.728 0 0 1-.727.726zm13.684 13.598a14.154 14.154 0 0 1-12.008-6.599l-.488-.767-1.195 4.453a.724.724 0 0 1-1.401-.375l1.706-6.362a.728.728 0 0 1 .889-.512l6.36 1.705a.725.725 0 1 1-.374 1.401l-4.887-1.309.531.859a12.702 12.702 0 0 0 11.298 6.049 12.69 12.69 0 0 0 8.901-4.038 12.706 12.706 0 0 0 3.442-9.154.718.718 0 0 1 .197-.521.713.713 0 0 1 .502-.226c.406 0 .739.308.751.699.125 3.8-1.237 7.42-3.834 10.193a14.133 14.133 0 0 1-10.39 4.504z" fill="#010101"/></svg>