<svg xmlns="http://www.w3.org/2000/svg" width="40" height="40" viewBox="0 0 40 40"><path d="M21.58 30.382c.169.389.51.618.859.618a.832.832 0 0 0 .428-.119c.477-.27.666-.938.432-1.489l-8.49-19.776-.013-.024c-.017-.036-.036-.07-.055-.104l-.051-.082c-.019-.027-.04-.049-.061-.071a.592.592 0 0 0-.074-.086c-.017-.015-.04-.029-.059-.047a.992.992 0 0 0-.101-.073c-.009-.004-.011-.009-.018-.014-.017-.009-.032-.014-.046-.023a1.028 1.028 0 0 0-.11-.046c-.025-.007-.051-.016-.078-.022-.036-.006-.067-.011-.104-.021L13.955 9c-.032 0-.068 0-.1.002a.509.509 0 0 1-.091.019c-.03.009-.06.015-.089.026-.034.01-.067.027-.102.044-.015.01-.034.013-.053.023l-.017.014a.911.911 0 0 0-.093.066c-.023.017-.049.034-.07.056-.023.022-.044.05-.065.074-.021.027-.047.052-.068.083-.017.022-.029.046-.044.072-.021.035-.044.072-.059.111l-.015.022-8.487 19.78c-.237.551-.044 1.22.429 1.489a.845.845 0 0 0 .427.119c.353 0 .692-.229.859-.618l1.759-4.097h11.747l1.757 4.097zM9.031 24.061l4.919-11.455 4.918 11.455H9.031zM27.088 18.815c-.285.363-.481.463-.737.463-.458 0-.825-.429-.825-.955 0-.23.057-.396.142-.559.796-1.451 2.33-2.603 4.718-2.603 3.295 0 5.115 2.24 5.115 5.598v9.055c0 .561-.397 1.021-.882 1.021-.483 0-.88-.46-.88-1.021v-1.188c-.711 1.55-2.36 2.374-4.065 2.374-3.011 0-4.916-1.679-4.916-4.71 0-2.896 1.905-4.643 4.974-4.643h4.007v-.887c0-2.239-1.279-3.624-3.354-3.624-1.506 0-2.417.527-3.297 1.679zm6.65 6.06v-1.383h-4.007c-1.849 0-3.125.89-3.125 2.798 0 1.713 1.021 2.8 3.237 2.8 1.991 0 3.895-1.416 3.895-4.215z"/></svg>