<svg xmlns="http://www.w3.org/2000/svg" width="40" height="40" viewBox="0 0 40 40"><path d="M8.944 35a3.914 3.914 0 0 1-2.789-1.156C5.41 33.1 5 32.109 5 31.056s.41-2.044 1.155-2.788l12.549-12.549-.896-3.995a.797.797 0 0 1 .202-.768l5.727-5.724a.786.786 0 0 1 .761-.205L28.8 6.18a.79.79 0 0 1 .355 1.318l-4.27 4.271.609 2.497 2.623.883 4.383-4.301a.785.785 0 0 1 .764-.206.794.794 0 0 1 .557.559l1.152 4.302a.784.784 0 0 1-.203.761l-5.727 5.726a.78.78 0 0 1-.761.204l-3.673-.983-2.324 2.084-10.552 10.55A3.92 3.92 0 0 1 8.944 35zm10.505-23.25l1.035 3.862a.792.792 0 0 1-.204.761L7.27 29.382a2.352 2.352 0 0 0-.694 1.674c0 .633.247 1.227.694 1.673a2.355 2.355 0 0 0 1.674.695 2.35 2.35 0 0 0 1.674-.695l13.009-13.005a.793.793 0 0 1 .762-.205l3.672.983 5.131-4.89-.387-2.106-.154-.579-3.672 3.673a.785.785 0 0 1-.761.205l-3.521-.943a.788.788 0 0 1-.557-.556l-.943-3.521a.795.795 0 0 1 .203-.762l3.673-3.672-2.544-.68-5.08 5.079z"/></svg>