<svg xmlns="http://www.w3.org/2000/svg" width="40" height="40" viewBox="0 0 40 40"><path d="M14.533 33c-3.44 0-6.789-1.001-9.683-2.895a.788.788 0 0 1-.306-.918.763.763 0 0 1 .807-.511 11.275 11.275 0 0 0 6.84-1.354C10.16 26.64 8.516 25 7.839 22.846a.792.792 0 0 1 .155-.754.752.752 0 0 1 .274-.2c-1.62-1.317-2.636-3.359-2.586-5.536a.779.779 0 0 1 .383-.656.745.745 0 0 1 .682-.039c-1.28-2.121-1.393-4.87-.092-7.145a.765.765 0 0 1 .6-.385.757.757 0 0 1 .65.284c2.74 3.429 6.698 5.614 10.974 6.086a7.013 7.013 0 0 1 1.458-4.872C21.638 7.957 23.582 7 25.672 7c1.725 0 3.398.679 4.656 1.876a11.291 11.291 0 0 0 3.209-1.317.743.743 0 0 1 .863.062.789.789 0 0 1 .251.848 7.043 7.043 0 0 1-.827 1.745c.203-.08.404-.165.602-.255a.753.753 0 0 1 .895.21c.219.265.24.646.051.935a13.01 13.01 0 0 1-2.875 3.143c.098 4.83-1.786 9.77-5.086 13.292C24.063 31.11 19.61 33 14.533 33zm-6.19-2.793a16.102 16.102 0 0 0 6.19 1.236c5.875 0 9.645-2.709 11.773-4.982 3.113-3.321 4.853-8.018 4.651-12.562a.788.788 0 0 1 .317-.668c.418-.306.813-.64 1.186-1-.364.079-.731.14-1.104.185a.765.765 0 0 1-.813-.521.79.79 0 0 1 .33-.92 5.323 5.323 0 0 0 1.201-1.003c-.6.218-1.217.393-1.846.518a.75.75 0 0 1-.703-.228 5.254 5.254 0 0 0-3.855-1.705 5.22 5.22 0 0 0-4.139 2.039 5.452 5.452 0 0 0-1.01 4.582.789.789 0 0 1-.158.675.754.754 0 0 1-.624.28c-4.659-.239-9.05-2.337-12.223-5.805-.725 2.251.085 4.801 2.091 6.171a.787.787 0 0 1 .303.884.758.758 0 0 1-.75.539 6.616 6.616 0 0 1-1.839-.319c.436 2.028 2.051 3.711 4.125 4.137.346.07.6.374.612.735s-.219.684-.561.779a6.826 6.826 0 0 1-1.707.245 5.28 5.28 0 0 0 4.438 2.618.764.764 0 0 1 .709.53.79.79 0 0 1-.253.86 12.838 12.838 0 0 1-6.341 2.7z"/></svg>