<svg xmlns="http://www.w3.org/2000/svg" width="40" height="40" viewBox="0 0 40 40"><path d="M23.83 28.146a.75.75 0 0 0-.75.75v5.25H8.287V5.854H23.08v5.25a.75.75 0 0 0 1.5 0v-6a.75.75 0 0 0-.75-.75H7.537a.75.75 0 0 0-.75.75v29.793c0 .415.336.75.75.75H23.83a.75.75 0 0 0 .75-.75v-6a.751.751 0 0 0-.75-.751z"/><path d="M34.168 24.248l-2.48-8.688a.753.753 0 0 0-.594-.533.745.745 0 0 0-.738.304L29.307 16.8c-1.635-1.122-3.586-1.735-5.693-1.783-.02-.001-.037 0-.057.001-4.104.216-6.771 1.523-10.574 5.178a.75.75 0 0 0 .787 1.242c1.627-.619 3.34-.946 4.955-.946 1.795 0 4.295.403 6.336 2.252l-.947 1.327a.752.752 0 0 0 .611 1.186h8.738a.749.749 0 0 0 .705-1.009zm-7.986-.491l.475-.665a.75.75 0 0 0-.068-.953c-1.961-2.059-4.68-3.147-7.863-3.147-.754 0-1.527.063-2.305.188 2.352-1.809 4.373-2.511 7.188-2.663 2.041.052 3.906.717 5.391 1.925a.75.75 0 0 0 1.084-.147l.59-.826 1.795 6.288h-6.287z"/></svg>