<svg xmlns="http://www.w3.org/2000/svg" width="40" height="40" viewBox="0 0 40 40"><path d="M32.658 34.5H7.343a.842.842 0 0 1-.844-.844v-2.511c0-2.047 1.282-3.879 3.192-4.56l6.09-2.182v-3.086h1.688v3.681a.845.845 0 0 1-.56.795l-6.65 2.381c-1.239.44-2.071 1.635-2.071 2.971v1.668h23.627v-1.668a3.151 3.151 0 0 0-2.07-2.971l-6.652-2.383a.843.843 0 0 1-.56-.793v-3.895h1.688v3.3l6.093 2.182c1.906.681 3.188 2.513 3.188 4.56v2.511a.844.844 0 0 1-.844.844z"/><path d="M19.833 23.176c-4.138 0-7.504-3.964-7.504-8.838S15.695 5.5 19.833 5.5c4.139 0 7.506 3.964 7.506 8.838s-3.367 8.838-7.506 8.838zm0-15.988c-3.206 0-5.817 3.207-5.817 7.149 0 3.944 2.611 7.151 5.817 7.151 3.209 0 5.817-3.207 5.817-7.151 0-3.941-2.608-7.149-5.817-7.149z"/><path d="M24.679 14.639c-1.555 0-2.813-.675-3.887-2.095-1.193 1.15-3.158 1.973-4.955 1.973-1.092 0-2.035-.229-2.971-.719l.784-1.493c.691.362 1.367.522 2.187.522 1.657 0 3.691-1.008 4.269-2.117a.849.849 0 0 1 .732-.453.813.813 0 0 1 .749.426c1.107 1.937 2.212 2.517 4.084 2.16l.714-.068.153 1.681-.632.058a6.617 6.617 0 0 1-1.227.125z"/></svg>