<svg xmlns="http://www.w3.org/2000/svg" width="40" height="40" viewBox="0 0 40 40"><path d="M5.563 33.613V29.1H6.99l-.001-.096c-.039-3.956.813-11.284 6.949-15.901l-.078-.171-6.563 1.428-.015.058a1.662 1.662 0 0 1-1.613 1.268c-.92 0-1.669-.749-1.669-1.668 0-.92.749-1.669 1.669-1.669.504 0 .979.232 1.299.635l.037.047 10.12-2.2V8.779h4.511v1.069l9.829-2.137.014-.058a1.662 1.662 0 0 1 1.614-1.268c.92 0 1.668.749 1.668 1.668a1.67 1.67 0 0 1-1.668 1.669 1.65 1.65 0 0 1-1.299-.635l-.038-.047-10.12 2.2v1.069L36 21.983l-4.586 1.323 4.082 5.214-4.148 3.068-4.022-5.131-2.402 3.725-5.088-16.89h-2.709v-.579l-.139.073c-4.087 2.106-6.771 5.57-7.979 10.299-.594 2.322-.692 4.502-.67 5.921l.002.094h1.735v4.513H5.563zm1.362-1.363h1.789v-1.786H6.925v1.786zm24.679-2.545l1.957-1.445-4.463-5.704 3.713-1.068-11.383-7.625 3.948 13.107 1.842-2.857 4.386 5.592zM18.487 11.932h.938l-.397-1.316 1.248.837v-1.31h-1.789v1.789z"/></svg>