<svg xmlns="http://www.w3.org/2000/svg" width="40" height="40"><path d="M18.396 33.684c-3.729 0-5.914-7.437-7.56-14.712-.125-.551-.223-.986-.294-1.259-.615-2.375-1.14-2.375-1.422-2.375-.032 0-.065 0-.098.002-.274.026-1.167.601-1.873 1.21a.763.763 0 0 1-1.102-.111L4.66 14.646a.76.76 0 0 1 .082-1.023c.019-.019 1.912-1.786 5.869-5.186 1.282-1.1 2.542-1.656 3.749-1.656 2.535 0 4.025 2.437 4.272 4.166a106.92 106.92 0 0 0 1.158 6.51c.847 3.952 1.44 5.072 1.662 5.372 1.104-.487 3.517-4.047 4.005-6.771.147-.831.024-1.229-.094-1.292-.418-.227-.834-.341-1.236-.341-.854 0-1.424.52-1.43.525a.76.76 0 0 1-.886.125.767.767 0 0 1-.394-.809c.014-.074.331-1.858 1.486-3.722 1.559-2.512 3.894-3.966 6.752-4.198.246-.02.49-.03.723-.03 2.447 0 3.674 1.114 4.271 2.047 1.49 2.331 1.014 6.297-1.376 11.472C29.686 27.6 23.15 33.684 18.396 33.684zM9.119 13.811c1.749 0 2.428 1.69 2.901 3.519.077.294.178.742.306 1.307.465 2.055 1.243 5.495 2.362 8.471 1.651 4.393 3.032 5.05 3.708 5.05 3.608 0 9.792-4.957 13.493-12.964 2.098-4.542 2.636-8.189 1.475-10.006-.57-.891-1.574-1.343-2.984-1.343-.191 0-.393.009-.599.024-2.373.194-4.241 1.353-5.552 3.44a9.928 9.928 0 0 0-.832 1.661c.225-.046.469-.072.73-.072.659 0 1.319.176 1.963.525.578.311 1.198 1.068.87 2.903-.253 1.414-1.057 3.312-2.097 4.955-.836 1.318-2.099 2.929-3.365 3.11a1.008 1.008 0 0 1-.154.012c-.973 0-1.803-1.021-2.932-6.1-.756-3.401-1.27-6.989-1.292-7.141-.165-1.151-1.156-2.855-2.761-2.855-.831 0-1.757.434-2.754 1.289a248.174 248.174 0 0 0-5.309 4.67l.481.622c.612-.462 1.482-1.024 2.133-1.072.072-.003.142-.005.209-.005z"/></svg>