<svg xmlns="http://www.w3.org/2000/svg" width="40" height="40"><path d="M26.932 18.581l-9.583-4.996a1.592 1.592 0 0 0-.74-.18 1.602 1.602 0 0 0-1.6 1.598v9.992c0 .559.294 1.078.771 1.369a1.61 1.61 0 0 0 1.569.049l9.583-4.996a1.598 1.598 0 0 0 0-2.836zm-10.323 6.415v-9.992L26.192 20l-9.583 4.996zm19.11-11.659c-.502-4.274-2.197-4.865-5.57-5.095-2.396-.163-6.273-.244-10.15-.244-3.875 0-7.748.081-10.148.244-3.373.229-5.066.82-5.57 5.095-.373 3.175-.373 10.143 0 13.328.504 4.274 2.198 4.863 5.57 5.093 2.398.163 6.275.244 10.15.244s7.753-.081 10.148-.244c3.373-.229 5.068-.818 5.57-5.093.373-3.177.375-10.144 0-13.328zM34.13 26.478c-.245 2.099-.748 2.712-1.104 2.99-.57.447-1.605.601-2.984.695-2.219.149-5.972.24-10.041.24-4.068 0-7.822-.091-10.041-.24-1.377-.095-2.413-.248-2.984-.695-.356-.278-.858-.892-1.106-2.99-.356-3.026-.356-9.929 0-12.953.248-2.101.75-2.712 1.106-2.992.571-.445 1.607-.599 2.984-.693 2.219-.149 5.973-.24 10.04-.24 4.069 0 7.824.091 10.042.24 1.379.095 2.414.248 2.984.693.356.28.859.892 1.104 2.992.356 3.026.356 9.926 0 12.953z"/></svg>