<svg viewBox="0 0 16 16" fill="currentColor" xmlns="http://www.w3.org/2000/svg"><path fill-rule="evenodd" d="M10.854 8.146a.5.5 0 010 .708l-3 3a.5.5 0 01-.708 0l-1.5-1.5a.5.5 0 01.708-.708L7.5 10.793l2.646-2.647a.5.5 0 01.708 0z"/><path fill-rule="evenodd" d="M14 2H2a1 1 0 00-1 1v11a1 1 0 001 1h12a1 1 0 001-1V3a1 1 0 00-1-1zM2 1a2 2 0 00-2 2v11a2 2 0 002 2h12a2 2 0 002-2V3a2 2 0 00-2-2H2z"/><path fill-rule="evenodd" d="M3.5 0a.5.5 0 01.5.5V1a.5.5 0 01-1 0V.5a.5.5 0 01.5-.5zm9 0a.5.5 0 01.5.5V1a.5.5 0 01-1 0V.5a.5.5 0 01.5-.5z"/><path d="M2.5 4a.5.5 0 01.5-.5h10a.5.5 0 01.5.5v1a.5.5 0 01-.5.5H3a.5.5 0 01-.5-.5V4z"/></svg>