<svg xmlns="http://www.w3.org/2000/svg" viewBox="0 0 64 64"><path d="M32 0C14.355 0 0 14.355 0 32c0 6.712 2.056 13.137 5.945 18.581L10.349 55H2v2h11l1-1V45h-2v8.828l-4.476-4.476C3.91 44.263 2 38.265 2 32 2 15.458 15.458 2 32 2c.65 0 1.297.021 1.937.062l.127-1.996A32.098 32.098 0 0032 0zM53.083 7.926L51.765 9.43a30.169 30.169 0 012.777 2.774l1.502-1.319a31.928 31.928 0 00-2.961-2.959zM62.32 42.258l-1.895-.641a29.916 29.916 0 01-1.5 3.627l1.793.885a31.556 31.556 0 001.602-3.871zM48.027 59.703a32.092 32.092 0 003.477-2.331l-1.221-1.585a30.117 30.117 0 01-3.258 2.186l1.002 1.73zM46.98 6.002a30.304 30.304 0 013.264 2.182l1.217-1.587a32.045 32.045 0 00-3.48-2.327L46.98 6.002zM61.935 30.009a29.843 29.843 0 01.003 3.925l1.996.127a32.004 32.004 0 00-.003-4.184l-1.996.132zM42.317 62.3a31.921 31.921 0 003.866-1.607l-.887-1.792a30.026 30.026 0 01-3.624 1.506l.645 1.893zM36.206 63.726a31.999 31.999 0 004.106-.817l-.518-1.932a30.016 30.016 0 01-3.849.765l.261 1.984zM35.892 2.25c1.295.168 2.591.423 3.852.758l.514-1.933a32.057 32.057 0 00-4.107-.809l-.259 1.984zM62.909 23.687l-1.932.519c.338 1.258.596 2.553.766 3.848l1.982-.26a31.604 31.604 0 00-.816-4.107zM51.8 54.54l1.32 1.502a32.406 32.406 0 002.956-2.962l-1.504-1.318A30.537 30.537 0 0151.8 54.54zM63.733 36.146l-1.984-.257a29.91 29.91 0 01-.758 3.85l1.934.515c.356-1.342.629-2.724.808-4.108zM55.79 13.72a30.15 30.15 0 012.184 3.258l1.73-1.001a31.89 31.89 0 00-2.33-3.477l-1.584 1.22zM58.901 18.707a30.12 30.12 0 011.506 3.62l1.893-.645a31.855 31.855 0 00-1.605-3.863l-1.794.888zM41.62 3.576c1.235.418 2.456.923 3.628 1.5l.885-1.794a32.064 32.064 0 00-3.872-1.601l-.641 1.895zM59.731 47.979l-1.732-1a30.21 30.21 0 01-2.181 3.265l1.588 1.217a32.397 32.397 0 002.325-3.482zM32 62v2c.693 0 1.381-.022 2.063-.065l-.127-1.996A31.02 31.02 0 0132 62z"/></svg>