<svg xmlns="http://www.w3.org/2000/svg" width="64" height="64" viewBox="0 0 64 64"><path d="M33 0v2c.644 0 1.288.021 1.932.064l.133-1.995A30.826 30.826 0 0 0 33 0zM37.206.285l-.27 1.981c1.329.181 2.656.457 3.944.819l.541-1.925a31.185 31.185 0 0 0-4.215-.875zM63.166 38.167l-1.945-.461a29.223 29.223 0 0 1-1.199 3.844l1.863.728c.519-1.331.95-2.714 1.281-4.111zM63.991 31.767l-2-.048a29.013 29.013 0 0 1-.375 4.01l1.973.324c.232-1.414.368-2.856.402-4.286zM54.62 52.799l-1.415-1.414 2.949-2.949 1.414 1.414zM43.474 1.816L42.8 3.699c1.261.452 2.502.997 3.688 1.619l.93-1.771a31.062 31.062 0 0 0-3.944-1.731zM61.032 44.255l-1.808-.855a28.791 28.791 0 0 1-1.973 3.51l1.67 1.1a31.028 31.028 0 0 0 2.111-3.755zM61.511 25.701c.244 1.317.398 2.664.459 4.003l1.998-.09a31.166 31.166 0 0 0-.49-4.277l-1.967.364zM56.926 14.605a28.682 28.682 0 0 1 2.041 3.471l1.791-.891a30.86 30.86 0 0 0-2.184-3.713l-1.648 1.133zM59.801 19.912a29.02 29.02 0 0 1 1.274 3.821l1.938-.499a31.012 31.012 0 0 0-1.362-4.085l-1.85.763zM54.388 8.562l-1.381 1.446a29.404 29.404 0 0 1 2.72 2.975l1.566-1.244a31.483 31.483 0 0 0-2.905-3.177zM48.234 6.316a29.068 29.068 0 0 1 3.269 2.352L52.78 7.13a31.198 31.198 0 0 0-3.493-2.515l-1.053 1.701z"/><path d="M52 53.172V44h-2v11l1 1h11v-2h-9.172zM31 62a28.99 28.99 0 0 1-1.932-.064l-.133 1.995c.682.046 1.377.069 2.065.069v-2zM11.22 56.87a31.198 31.198 0 0 0 3.493 2.515l1.053-1.701a29.068 29.068 0 0 1-3.269-2.352L11.22 56.87zM.032 34.386c.064 1.431.229 2.87.49 4.277l1.967-.364a29.395 29.395 0 0 1-.459-4.003l-1.998.09zM.987 40.767a31.012 31.012 0 0 0 1.362 4.085l1.85-.764a29.02 29.02 0 0 1-1.274-3.821l-1.938.5zM2.779 26.294a29.223 29.223 0 0 1 1.199-3.844l-1.863-.728c-.52 1.33-.95 2.713-1.281 4.111l1.945.461zM17.513 58.682l-.93 1.771a30.845 30.845 0 0 0 3.943 1.731l.674-1.883a28.78 28.78 0 0 1-3.687-1.619zM.009 32.233l2 .048c.031-1.338.158-2.687.375-4.01l-1.973-.324a31.136 31.136 0 0 0-.402 4.286zM2.968 19.745l1.808.855a28.791 28.791 0 0 1 1.973-3.51l-1.67-1.1a31.028 31.028 0 0 0-2.111 3.755zM3.242 46.814a30.86 30.86 0 0 0 2.184 3.713l1.648-1.133a28.682 28.682 0 0 1-2.041-3.471l-1.791.891zM9.612 55.438l1.381-1.446a29.404 29.404 0 0 1-2.72-2.975L6.707 52.26a31.483 31.483 0 0 0 2.905 3.178zM7.846 15.565L6.432 14.15l2.949-2.949 1.414 1.414zM23.119 60.915l-.541 1.925c1.376.388 2.795.682 4.216.875l.27-1.981a29.32 29.32 0 0 1-3.945-.819z"/><path d="M2 8v2h9.172l.828.828V20h2V9l-1-1z"/></svg>