<svg xmlns="http://www.w3.org/2000/svg" width="64" height="64" viewBox="0 0 64 64"><path fill="none" stroke="#231F20" stroke-width="2" stroke-linejoin="bevel" stroke-miterlimit="10" d="M1 1h62v62H1z"/><path fill="none" stroke="#231F20" stroke-width="2" stroke-linejoin="bevel" stroke-miterlimit="10" d="M1 1h62v62H1z"/><path fill="none" stroke="#231F20" stroke-width="2" stroke-miterlimit="10" d="M22 27c-2.762 0-5-2.238-5-5s2.238-5 5-5 5 2.238 5 5v20c0 2.762-2.238 5-5 5s-5-2.238-5-5 2.238-5 5-5h20c2.762 0 5 2.238 5 5s-2.238 5-5 5-5-2.238-5-5V22c0-2.762 2.238-5 5-5s5 2.238 5 5-2.238 5-5 5H22z"/></svg>