<svg xmlns="http://www.w3.org/2000/svg" width="64" height="64" viewBox="0 0 64 64"><path d="M31 0c-.68 0-1.375.023-2.064.068l.132 1.996A28.946 28.946 0 0 1 31 2V0zM.411 36.055l1.974-.326a28.856 28.856 0 0 1-.376-4.009l-1.999.047c.033 1.435.168 2.878.401 4.288zM.031 29.613l1.998.09c.06-1.339.214-2.686.458-4.004L.52 25.336a31.657 31.657 0 0 0-.489 4.277zM.986 23.231l1.937.5c.335-1.3.764-2.586 1.275-3.82l-1.849-.764a31.25 31.25 0 0 0-1.363 4.084zM7.844 48.432l2.948 2.95-1.414 1.413-2.948-2.949zM26.793.284a31.313 31.313 0 0 0-4.215.875l.541 1.926a29.09 29.09 0 0 1 3.944-.818l-.27-1.983zM20.526 1.815a30.667 30.667 0 0 0-3.943 1.732l.931 1.77A29.048 29.048 0 0 1 21.2 3.698l-.674-1.883zM2.967 44.256a31.044 31.044 0 0 0 2.109 3.754l1.671-1.1a28.968 28.968 0 0 1-1.973-3.51l-1.807.856zM3.241 17.186l1.791.891a28.89 28.89 0 0 1 2.042-3.471l-1.648-1.133a30.759 30.759 0 0 0-2.185 3.713zM.833 38.167c.33 1.393.761 2.775 1.281 4.109l1.863-.727a28.893 28.893 0 0 1-1.198-3.844l-1.946.462zM15.766 6.316l-1.053-1.701a31.03 31.03 0 0 0-3.494 2.516l1.278 1.537a28.918 28.918 0 0 1 3.269-2.352zM9.081 9.08a31.582 31.582 0 0 0-2.374 2.66l1.566 1.244a29.547 29.547 0 0 1 2.72-2.976L9.612 8.561c-.179.17-.357.344-.531.519zM33 62v2c.68 0 1.375-.023 2.064-.068l-.132-1.996c-.643.043-1.287.064-1.932.064zM61.885 21.724l-1.863.727c.487 1.248.89 2.541 1.198 3.844l1.946-.461a30.749 30.749 0 0 0-1.281-4.11zM63.014 40.769l-1.937-.5a28.815 28.815 0 0 1-1.275 3.82l1.849.764a31.25 31.25 0 0 0 1.363-4.084zM61.616 28.271c.218 1.317.344 2.667.376 4.009l1.999-.047a30.866 30.866 0 0 0-.402-4.288l-1.973.326zM61.512 38.301l1.967.363c.26-1.407.425-2.847.49-4.277l-1.998-.09a29.288 29.288 0 0 1-.459 4.004zM49.287 59.385a31.03 31.03 0 0 0 3.494-2.516l-1.278-1.537a29.17 29.17 0 0 1-3.269 2.352l1.053 1.701zM54.388 55.439a31.582 31.582 0 0 0 2.905-3.18l-1.566-1.244a29.547 29.547 0 0 1-2.72 2.976l1.381 1.448zM60.759 46.814l-1.791-.891a28.89 28.89 0 0 1-2.042 3.471l1.648 1.133a30.759 30.759 0 0 0 2.185-3.713zM40.88 60.915a29.09 29.09 0 0 1-3.944.818l.271 1.982a31.313 31.313 0 0 0 4.215-.875l-.542-1.925zM46.486 58.683a29.048 29.048 0 0 1-3.686 1.619l.674 1.883a30.667 30.667 0 0 0 3.943-1.732l-.931-1.77zM61.033 19.744a31.044 31.044 0 0 0-2.109-3.754l-1.671 1.1a28.968 28.968 0 0 1 1.973 3.51l1.807-.856zM56.157 15.564l-2.948-2.95 1.414-1.413 2.949 2.949z"/><path d="M2 54v2h11l1-1V44h-2v9.172l-.828.828zM50 9v11h2v-9.172l.828-.828H62V8H51z"/></svg>