<svg xmlns="http://www.w3.org/2000/svg" viewBox="0 0 64 64"><path d="M8.182 50.243a30.258 30.258 0 01-2.181-3.265l-1.732 1a32.236 32.236 0 002.325 3.481l1.588-1.216zM4.296 15.977l1.73 1.001A30.003 30.003 0 018.21 13.72L6.626 12.5a31.747 31.747 0 00-2.33 3.477zM0 32c0 .692.022 1.379.065 2.061l1.996-.127a31.003 31.003 0 01.004-3.925l-1.996-.132A32.468 32.468 0 000 32zM.267 36.146c.18 1.385.452 2.767.809 4.108l1.934-.515a29.91 29.91 0 01-.758-3.85l-1.985.257zM.274 27.793l1.982.26c.17-1.294.428-2.589.766-3.848l-1.932-.519a32.01 32.01 0 00-.816 4.107zM1.7 21.683l1.893.645a30.12 30.12 0 011.506-3.62l-1.793-.888A31.57 31.57 0 001.7 21.683zM5.074 45.245a29.916 29.916 0 01-1.5-3.627l-1.894.64a31.7 31.7 0 001.602 3.872l1.792-.885zM22.38 3.576l-.641-1.895a32.064 32.064 0 00-3.872 1.601l.885 1.794a30.074 30.074 0 013.628-1.5zM15.973 59.703l1.002-1.73a29.971 29.971 0 01-3.258-2.186l-1.221 1.585a32.092 32.092 0 003.477 2.331zM27.794 63.726l.26-1.983a30.016 30.016 0 01-3.849-.765l-.518 1.932c1.342.359 2.724.634 4.107.816zM21.683 62.3l.645-1.894a29.866 29.866 0 01-3.624-1.506l-.887 1.792a31.48 31.48 0 003.866 1.608zM17.02 6.002l-1-1.731a32.045 32.045 0 00-3.48 2.327l1.217 1.587a30.055 30.055 0 013.263-2.183zM28.108 2.25L27.85.267a31.99 31.99 0 00-4.107.809l.514 1.933a29.993 29.993 0 013.851-.759zM10.917 7.926a32.041 32.041 0 00-2.961 2.958l1.502 1.319a30.169 30.169 0 012.777-2.774l-1.318-1.503zM10.88 56.042l1.32-1.502a30.41 30.41 0 01-2.772-2.778L7.924 53.08a32.406 32.406 0 002.956 2.962zM32 62c-.65 0-1.297-.021-1.937-.062l-.127 1.996c.683.044 1.371.066 2.064.066v-2zM32 0c-.693 0-1.381.022-2.063.065l.127 1.996A31.02 31.02 0 0132 2c16.542 0 30 13.458 30 30 0 6.265-1.91 12.263-5.524 17.352L52 53.828V45h-2v11l1 1h11v-2h-8.344l4.292-4.293.106-.126C61.944 45.137 64 38.712 64 32 64 14.355 49.645 0 32 0z"/></svg>