<svg width="64" height="64" viewBox="0 0 128 128" xmlns="http://www.w3.org/2000/svg"><path d="M57.6 0C25.792 0 0 25.792 0 57.6s25.792 57.6 57.6 57.6 57.6-25.792 57.6-57.6S89.408 0 57.6 0zM7.104 61.952h16.064a91.017 91.017 0 0 0 2.432 17.28H11.776a50.33 50.33 0 0 1-4.672-17.28zm54.848-34.56V7.616a26.419 26.419 0 0 1 14.208 12.8 54.832 54.832 0 0 1 3.456 6.912l-17.664.064zm20.608 8.64a82.171 82.171 0 0 1 2.624 17.28H61.952v-17.28H82.56zM53.248 7.616v19.776H35.584a54.832 54.832 0 0 1 3.456-6.912A26.467 26.467 0 0 1 53.248 7.616zm0 28.416v17.28H30.08a82.171 82.171 0 0 1 2.624-17.28h20.544zm-30.08 17.216H7.104a50.33 50.33 0 0 1 4.672-17.28H25.6a91.017 91.017 0 0 0-2.432 17.28zm6.912 8.704h23.168v17.28H32.704a82.171 82.171 0 0 1-2.624-17.28zm23.232 25.6v19.776a26.419 26.419 0 0 1-14.208-12.8 54.832 54.832 0 0 1-3.456-6.912l17.664-.064zm8.64 19.776V87.872h17.664a54.832 54.832 0 0 1-3.456 6.912 26.419 26.419 0 0 1-14.208 12.8v-.256zm0-28.416v-17.28H85.12a82.171 82.171 0 0 1-2.624 17.28H61.952zm30.144-17.28h16.064a50.33 50.33 0 0 1-4.672 17.28H89.6a90.9 90.9 0 0 0 2.432-16.96l.064-.32zm0-8.64a90.395 90.395 0 0 0-2.496-16.96h13.824a50.33 50.33 0 0 1 4.672 17.28l-16-.32zm6.4-25.6H87.04a57.098 57.098 0 0 0-8.896-16.128A51.307 51.307 0 0 1 98.24 27.392h.256zm-61.44-16.128a57.098 57.098 0 0 0-8.896 16.128h-11.2a51.307 51.307 0 0 1 20.096-16.128zm-20.16 76.8H28.16a57.098 57.098 0 0 0 8.896 16.128 51.147 51.147 0 0 1-20.096-16.32l-.064.192zm61.184 16.128a57.098 57.098 0 0 0 8.896-16.128H98.24a51.146 51.146 0 0 1-20.096 15.872l-.064.256z"/></svg>