<svg width="64" height="64" viewBox="0 0 128 128" xmlns="http://www.w3.org/2000/svg"><path d="M115.2 102.4V25.6c0-3.52-2.88-6.4-6.4-6.4H25.6c-3.52 0-6.4 2.88-6.4 6.4v76.8c0 3.52 2.88 6.4 6.4 6.4h83.2c3.52 0 6.4-2.88 6.4-6.4zm-64-32h6.4c3.52 0 6.4 2.88 6.4 6.4s-2.88 6.4-6.4 6.4h-6.4v9.6c0 1.792-1.408 3.2-3.2 3.2s-3.2-1.408-3.2-3.2v-9.6h-6.4c-3.52 0-6.4-2.88-6.4-6.4s2.88-6.4 6.4-6.4h6.4V35.2c0-1.792 1.408-3.2 3.2-3.2s3.2 1.408 3.2 3.2v35.2zm32-12.8h-6.4c-3.52 0-6.4-2.88-6.4-6.4s2.88-6.4 6.4-6.4h6.4v-9.6c0-1.792 1.408-3.2 3.2-3.2s3.2 1.408 3.2 3.2v9.6H96c3.52 0 6.4 2.88 6.4 6.4s-2.88 6.4-6.4 6.4h-6.4v35.2c0 1.792-1.408 3.2-3.2 3.2s-3.2-1.408-3.2-3.2V57.6z"/></svg>