<svg xmlns="http://www.w3.org/2000/svg" viewBox="0 0 20 20"><path fill="none" d="M0 0h20v20H0z"/><path d="M9 0a9 9 0 1 0 .001 18.001A9 9 0 0 0 9 0zm2.92 12.34c0 .35.14.63.36.66.22.03.47-.22.58-.6l.2.08a1.72 1.72 0 0 1 .84 2 1.58 1.58 0 0 1-1.45 1.24c-.49-1.21-2.11.06-3.56-.22a1.92 1.92 0 0 1-1.33-1.19c1.19-.11 2.85-1.73 4.36-1.97zM8 11.27a1.84 1.84 0 0 0 1.82-1.59c.44.54.41 1.324-.07 1.83a1.176 1.176 0 0 1-.93.28 1.173 1.173 0 0 1-.82-.52zm3-.76c.41.39 3-.06 3.52 1.09-.95-.2-2.95.61-3.47-1.08l-.05-.01zM9.73 5.45v.27c-.65-.77-1.33-1.07-1.61-.57-.28.5 1 1.11.76 1.88-.24.77-1.27.56-1.88 1.61-.61 1.05-.49 2.42 1.24 3.67A3.002 3.002 0 0 1 5.7 10.2c-.4-1.2-.09-2.26-.78-2.46C4 7.46 3 8.71 3 9.8c-1.26-1.26.05-2.86-1.2-4.18a7.89 7.89 0 0 1 9.64-4.13 5.344 5.344 0 0 0-1.71 3.96z"/></svg>