<svg width="64" height="64" viewBox="0 0 128 128" xmlns="http://www.w3.org/2000/svg"><path d="M92.672 70.784L47.424 25.536l9.6-9.6c3.2-3.584 14.72-3.008 22.464 2.048 7.744 5.12 9.152 8.192 18.624 13.44 7.552 4.096 15.68 8.064 28.48 5.44zm-4.544 4.544L42.88 30.08 31.552 41.408a6.374 6.374 0 0 0 0 9.024l6.784 6.784c2.496 2.496 2.496 6.592 0 9.088-3.84 3.84-9.152 7.104-14.144 10.816-2.24 1.664-4.48 3.392-6.464 5.376-8.576 8.576-15.168 20.416-8.768 26.752 6.336 6.4 18.176-.192 26.752-8.704 1.984-1.984 3.712-4.224 5.44-6.528 3.648-4.992 6.912-10.304 10.816-14.144a6.374 6.374 0 0 1 9.024 0l6.784 6.784a6.374 6.374 0 0 0 9.024 0z"/></svg>