<svg width="64" height="64" viewBox="0 0 128 128" xmlns="http://www.w3.org/2000/svg"><path d="M91.328 43.968L64 20.096 36.672 43.968 32 39.296l32-28.032 32 28.032zm-1.728 9.92L63.68 75.84 38.4 53.632v-4.736l25.6-22.4 25.6 22.4v4.992zM70.4 62.08V51.2H57.6v10.88h12.8zM59.328 87.872L32 64 4.672 87.872 0 83.2l32-28.032L64 83.2zm64 0L96 64 68.672 87.872 64 83.2l32-28.032L128 83.2zM32 70.4l25.6 22.4v22.4H6.4V92.8zm64 0l25.6 22.4v22.4H70.4V92.8zm-57.6 38.4V96H25.6v12.8h12.8zm64 0V96H89.6v12.8h12.8z"/></svg>