<svg width="64" height="64" viewBox="0 0 128 128" xmlns="http://www.w3.org/2000/svg"><path d="M106.752 62.528c-8.576 8.576-21.12 10.688-31.68 6.336l-34.624 41.728c-6.336 6.336-16.576 6.336-22.912 0s-6.336-16.576 0-22.848l41.728-34.688c-4.352-10.56-2.24-23.104 6.336-31.68 8.192-8.192 19.968-10.368 30.208-6.784L77.312 33.088 95.36 51.136l18.304-18.368c3.392 10.112 1.152 21.696-6.912 29.76zm-82.368 41.216c2.56 2.496 6.656 2.496 9.152 0 2.56-2.56 2.56-6.656 0-9.152-2.496-2.56-6.592-2.56-9.152 0-2.496 2.496-2.496 6.592 0 9.152z"/></svg>