<svg xmlns="http://www.w3.org/2000/svg" viewBox="0 0 20 20"><path fill="none" d="M0 0h20v20H0z"/><path d="M9 0a9 9 0 1 0 .001 18.001A9 9 0 0 0 9 0zm7.5 6.48a3.38 3.38 0 0 1-1.75 2.05 5.64 5.64 0 0 0-3.27-3.75c.13-.444.41-.83.79-1.09-.43-.28-1-.42-1.34.07-.53.69 0 1.61.21 2v.14A3.064 3.064 0 0 1 9.9 4.46a5.211 5.211 0 0 0-2.76.69 3.44 3.44 0 0 1 .16-1.68 2.21 2.21 0 0 0 1.92-.8c.46-.52-.13-1.18-.59-1.58h.36a7.85 7.85 0 0 1 3.89 1 5.61 5.61 0 0 1 2.27 4.26c.24 0 .7-.55.91-.92.172.34.32.69.44 1.05zM9 16.84c-2.05-2.08.25-3.75-1-5.24-.92-.85-2.29-.26-3.11-1.23a4.08 4.08 0 0 1 1.43-3.93c.52-.44 4-1 5.42.22a5.221 5.221 0 0 1 1.67 2.74c.46.035.918-.066 1.32-.29.41 2.98-3.15 6.74-5.73 7.73zM5.15 2.09a1.84 1.84 0 0 1 2.16.66c-.42.38-.94.63-1.5.72.02-.294.085-.584.19-.86l-.85-.52z"/></svg>