<svg width="64" height="64" viewBox="0 0 128 128" xmlns="http://www.w3.org/2000/svg"><path d="M83.2 70.4V25.6c0-3.52-2.88-6.4-6.4-6.4H66.112L57.6 6.4H32l-8.512 12.8H12.8c-3.52 0-6.4 2.88-6.4 6.4v44.8c0 3.52 2.88 6.4 6.4 6.4h64c3.52 0 6.4-2.88 6.4-6.4zM44.8 28.8c8.832 0 16 7.168 16 16s-7.168 16-16 16-16-7.168-16-16 7.168-16 16-16zm44.8 9.6h32v67.2c0 8.832-7.168 16-16 16s-16-7.168-16-16 7.168-16 16-16c1.088 0 2.176.128 3.2.32V57.6H89.6V38.4zM64 89.92V83.2h12.8v22.4c0 8.832-7.168 16-16 16s-16-7.168-16-16 7.168-16 16-16c1.088 0 2.176.128 3.2.32z"/></svg>