<svg width="64" height="64" viewBox="0 0 128 128" xmlns="http://www.w3.org/2000/svg"><path d="M115.2 76.8h-13.952c-1.088 4.48-2.816 8.64-5.184 12.352l9.856 9.856-13.44 13.44-9.856-9.856a41.13 41.13 0 0 1-12.224 5.056V121.6H51.2v-13.952a41.13 41.13 0 0 1-12.224-5.056l-9.856 9.856L15.552 98.88l9.856-9.856A41.13 41.13 0 0 1 20.352 76.8H6.4V57.792h13.888c1.024-4.48 2.816-8.64 5.12-12.416l-9.856-9.856 13.44-13.44 9.856 9.856c3.712-2.368 7.936-4.096 12.352-5.184V12.8h19.2v13.952a41.13 41.13 0 0 1 12.224 5.056l9.856-9.856 13.568 13.568-9.856 9.856c2.304 3.776 4.096 7.936 5.12 12.416H115.2V76.8zm-54.4 9.6c10.624 0 19.2-8.576 19.2-19.2S71.424 48 60.8 48s-19.2 8.576-19.2 19.2 8.576 19.2 19.2 19.2z"/></svg>