<svg width="64" height="64" viewBox="0 0 128 128" xmlns="http://www.w3.org/2000/svg"><path d="M83.904 27.904L63.168 48.64 51.2 36.672l20.736-20.736c2.24-2.176 6.72-1.28 9.984 2.048 3.328 3.264 4.224 7.744 1.984 9.92zm-51.2 11.328l5.824-7.168 57.664 57.664-7.616 5.376c-4.544 4.544-16.832 7.424-24.448 7.424H39.296l-7.936 7.936c-3.776 3.776-9.856 3.776-13.568 0-3.776-3.712-3.776-9.792 0-13.568l7.936-7.936V64.128c0-7.232 2.56-20.416 6.976-24.896zM79.168 64.64l20.736-20.736c2.176-2.24 6.656-1.344 9.92 1.984 3.328 3.264 4.224 7.744 1.984 9.92l-20.736 20.8z"/></svg>