<svg width="64" height="64" viewBox="0 0 128 128" xmlns="http://www.w3.org/2000/svg"><path d="M57.6 0C25.792 0 0 25.792 0 57.6s25.792 57.6 57.6 57.6 57.6-25.792 57.6-57.6S89.408 0 57.6 0zm18.688 78.976c0 2.24.896 4.032 2.304 4.224 1.408.192 3.008-1.408 3.712-3.84l1.28.512c4.595 2.458 6.848 7.808 5.376 12.8a10.113 10.113 0 0 1-9.28 7.936c-3.136-7.744-13.504.384-22.784-1.408a12.292 12.292 0 0 1-8.512-7.616C56 90.88 66.624 80.512 76.288 78.976zM51.2 72.128c5.875 0 10.848-4.352 11.648-10.176a8.876 8.876 0 0 1-.448 11.712 7.524 7.524 0 0 1-5.952 1.792 7.508 7.508 0 0 1-5.248-3.328zm19.2-4.864c2.624 2.496 19.2-.384 22.528 6.976-6.08-1.28-18.88 3.904-22.208-6.912l-.32-.064zM62.272 34.88v1.728c-4.16-4.928-8.512-6.848-10.304-3.648-1.792 3.2 6.4 7.104 4.864 12.032-1.536 4.928-8.128 3.584-12.032 10.304-3.904 6.72-3.136 15.488 7.936 23.488A19.212 19.212 0 0 1 36.48 65.28c-2.56-7.68-.576-14.464-4.992-15.744C25.6 47.744 19.2 55.744 19.2 62.72c-8.064-8.064.32-18.304-7.68-26.752C22.4 12.788 48.922 1.428 73.216 9.536A34.205 34.205 0 0 0 62.272 34.88z"/></svg>