<svg width="64" height="64" viewBox="0 0 128 128" xmlns="http://www.w3.org/2000/svg"><path d="M57.6 0C25.792 0 0 25.792 0 57.6s25.792 57.6 57.6 57.6 57.6-25.792 57.6-57.6S89.408 0 57.6 0zm48 41.472a21.63 21.63 0 0 1-11.2 13.12 36.095 36.095 0 0 0-20.928-24 12.827 12.827 0 0 1 5.056-6.976c-2.752-1.792-6.4-2.688-8.576.448-3.392 4.416 0 10.304 1.344 12.8v.896a19.612 19.612 0 0 1-7.936-9.216 33.35 33.35 0 0 0-17.664 4.416 22.012 22.012 0 0 1 1.024-10.752c4.691.448 9.3-1.472 12.288-5.12 2.944-3.328-.832-7.552-3.776-10.112h2.304a50.243 50.243 0 0 1 24.896 6.4A35.903 35.903 0 0 1 96.96 40.64c1.536 0 4.48-3.52 5.824-5.888a49.718 49.718 0 0 1 2.816 6.72zm-48 66.304c-13.12-13.312 1.6-24-6.4-33.536-5.888-5.44-14.656-1.664-19.904-7.872a26.114 26.114 0 0 1 9.152-25.152c3.328-2.816 25.6-6.4 34.688 1.408A33.415 33.415 0 0 1 85.824 60.16a15 15 0 0 0 8.448-1.856c2.624 19.072-20.16 43.136-36.672 49.472zm-24.64-94.4A11.773 11.773 0 0 1 46.784 17.6a18.726 18.726 0 0 1-9.6 4.608 19.151 19.151 0 0 1 1.216-5.504l-5.44-3.328z"/></svg>