<svg xmlns="http://www.w3.org/2000/svg" viewBox="0 0 20 20"><path fill="none" d="M0 0h20v20H0z"/><path d="M9 0a9 9 0 10.001 18.001A9 9 0 009 0zm3.46 11.95c0 1.47-.8 3.3-4.06 4.7.3-4.17-2.52-3.69-3.2-5A3.25 3.25 0 017 9.1c-1.552-.266-3-.96-4.18-2 .05.47.28.904.64 1.21a4.18 4.18 0 01-1.94-1.5 7.94 7.94 0 017.25-5.63c-.84 1.38-1.5 4.13 0 5.57C7.23 7 6.26 5 5.41 5.79c-1.13 1.06.33 2.51 3.42 3.08 3.29.59 3.66 1.58 3.63 3.08zm1.34-4c-.32-1.11.62-2.23 1.69-3.14a7.27 7.27 0 01.84 6.68c-.77-1.89-2.17-2.32-2.53-3.57v.03z"/></svg>