<svg width="64" height="64" viewBox="0 0 128 128" xmlns="http://www.w3.org/2000/svg"><path d="M57.6 0C25.792 0 0 25.792 0 57.6s25.792 57.6 57.6 57.6 57.6-25.792 57.6-57.6S89.408 0 57.6 0zm22.144 76.48c0 9.408-5.12 21.12-25.984 30.08 1.92-26.688-16.128-23.616-20.48-32A20.806 20.806 0 0 1 44.8 58.24a54.373 54.373 0 0 1-26.752-12.8 11.818 11.818 0 0 0 4.096 7.744 26.746 26.746 0 0 1-12.416-9.6c6.253-20.64 24.851-35.085 46.4-36.032-5.376 8.832-9.6 26.432 0 35.648-9.856 1.6-16.064-11.2-21.504-6.144-7.232 6.784 2.112 16.064 21.888 19.712C77.568 60.544 79.936 66.88 79.744 76.48zm8.576-25.6c-2.048-7.104 3.968-14.272 10.816-20.096a46.534 46.534 0 0 1 5.376 42.752C99.584 61.44 90.624 58.688 88.32 50.688v.192z"/></svg>