<svg width="64" height="64" viewBox="0 0 128 128" xmlns="http://www.w3.org/2000/svg"><path d="M0 115.2h64v-1.664c9.728 2.56 20.288 2.24 30.464-1.536 26.496-9.728 40.128-39.168 30.4-65.664C115.712 21.44 89.152 7.936 64 14.464V12.8H0v102.4zm57.6-96v89.6H6.4V19.2h51.2zm34.88 52.608c-4.352 8.64-14.848 12.16-23.488 7.872-1.984-.96-3.648-2.24-4.992-3.776V52.032c5.12-5.504 13.504-7.232 20.608-3.712 8.64 4.352 12.16 14.848 7.872 23.488zm-17.6-5.248a3.243 3.243 0 0 0 4.48-.64c1.024-1.408.768-3.392-.64-4.48s-3.392-.768-4.48.64c-1.024 1.344-.768 3.392.64 4.48zm19.264 23.488a31.187 31.187 0 0 1-24.512 4.416c-1.728-.384-2.816-2.176-2.368-3.904s2.176-2.752 3.968-2.304l1.088.256c6.144 1.088 12.672-.064 18.304-3.776 3.008-2.048 5.504-4.608 7.296-7.552.96-1.472 2.88-1.92 4.416-1.024 1.472.96 1.92 2.944 1.024 4.416a31.647 31.647 0 0 1-9.216 9.472zm6.72 10.048c-9.472 6.336-20.544 8.448-30.976 6.784-1.792-.32-3.008-2.048-2.624-3.84.32-1.728 2.048-2.88 3.904-2.496l1.408.256c8.384.96 17.152-.896 24.768-6.016 4.544-3.008 8.128-6.848 10.88-11.136a3.081 3.081 0 0 1 4.352-1.024c1.536.896 1.984 2.88 1.024 4.416-3.136 5.056-7.424 9.536-12.736 13.056z"/></svg>