<svg width="64" height="64" viewBox="0 0 128 128" xmlns="http://www.w3.org/2000/svg"><path d="M28.544 33.024L32 47.744 28.544 62.4l12.864 7.936L49.28 83.2 64 79.744 78.72 83.2l7.872-12.864L99.456 62.4 96 47.744l3.456-14.72-12.8-7.936-7.936-12.864L64 15.744l-14.656-3.456-8 12.8zM64.064 73.6C49.856 73.6 38.4 62.144 38.4 47.936c0-14.08 11.456-25.536 25.664-25.536 14.08 0 25.536 11.456 25.536 25.536C89.6 62.144 78.144 73.6 64.064 73.6zm-.128-6.4C53.312 67.2 44.8 58.624 44.8 48c0-10.56 8.512-19.2 19.136-19.2S83.2 37.44 83.2 48c0 10.624-8.64 19.2-19.264 19.2zm24.576 7.04L80.32 88.576l-13.312-3.008L83.2 122.88l8.96-14.08h16zm-49.28.448l8 14.4 13.632-3.264L44.8 122.88l-8.96-14.08h-16z"/></svg>