<svg width="64" height="64" viewBox="0 0 128 128" xmlns="http://www.w3.org/2000/svg"><path d="M87.36 18.432c25.152 12.864 35.072 43.776 22.208 68.928s-43.712 35.072-68.928 22.208c-11.968-6.144-20.48-16.384-24.704-28.16l10.496-6.592c2.88 10.048 9.728 18.88 19.712 24.064 19.264 9.856 42.816 2.24 52.672-17.024 9.92-19.264 2.304-42.816-16.96-52.736-19.264-9.856-42.816-2.24-52.672 17.024l12.032 6.208-31.68 19.712L7.04 34.816l11.392 5.824C31.36 15.36 62.4 5.696 87.36 18.432zM59.456 68.544C58.304 67.392 57.6 65.792 57.6 64c0-.448.192-.768.256-1.216h-.064L64 32l6.208 30.784L89.6 83.2 60.8 69.632l.128-.128a7.267 7.267 0 0 1-1.472-.96z"/></svg>