<svg width="64" height="64" viewBox="0 0 128 128" xmlns="http://www.w3.org/2000/svg"><path d="M64 0c35.328 0 64 28.672 64 64s-28.672 64-64 64S0 99.328 0 64 28.672 0 64 0zm0 3.2C30.4 3.2 3.2 30.4 3.2 64s27.2 60.8 60.8 60.8 60.8-27.2 60.8-60.8S97.6 3.2 64 3.2zm0 6.4c30.08 0 54.4 24.32 54.4 54.4S94.08 118.4 64 118.4 9.6 94.08 9.6 64 33.92 9.6 64 9.6zm11.52 10.944c-3.648 0-7.04 1.088-9.92 2.88 9.984 2.368 17.472 11.328 17.472 22.08 0 4.416-1.344 8.512-3.52 11.968 8.384-1.856 14.656-9.28 14.656-18.24 0-10.304-8.384-18.688-18.688-18.688zm-15.232 6.4c-10.304 0-18.688 8.384-18.688 18.752 0 10.304 8.384 18.688 18.688 18.688 10.368 0 18.752-8.384 18.752-18.688 0-10.368-8.384-18.752-18.752-18.752zm27.2 32.064l-3.264 3.776C99.2 67.2 99.904 85.888 99.904 85.888h8.192c0-30.144-20.608-26.88-20.608-26.88zm-13.44 5.12L60.48 77.504 46.912 64.128C19.968 65.536 24.896 96 24.896 96h70.912c3.008-31.872-21.76-31.872-21.76-31.872z"/></svg>