<svg width="64" height="64" viewBox="0 0 128 128" xmlns="http://www.w3.org/2000/svg"><path d="M66.816 10.624c-3.776-3.712-9.856-3.712-13.568 0L17.024 46.848c-3.712 3.712-3.712 9.792 0 13.568 3.84 3.84 9.984 3.584 13.568 0l36.224-36.224c3.712-3.712 3.776-9.792 0-13.568zm18.112 18.112c-3.776-3.776-9.856-3.776-13.568 0L35.136 64.96c-3.776 3.712-3.776 9.792 0 13.568 3.84 3.84 9.984 3.52 13.568 0l36.224-36.224c3.712-3.712 3.712-9.792 0-13.568zm6.784 43.008l26.752 26.752c3.776 3.712 3.776 9.792 0 13.568s-9.856 3.776-13.568 0L78.144 85.312 66.816 96.64c-3.776 3.712-9.856 3.712-13.568 0a9.618 9.618 0 0 1 0-13.632l36.224-36.16c3.712-3.776 9.792-3.776 13.568 0 3.712 3.712 3.712 9.792 0 13.568zM32 96c0-10.176-10.624-25.6-10.624-25.6S12.8 88.192 12.8 96s3.84 12.8 8.576 12.8h2.048C28.16 108.8 32 106.176 32 96z"/></svg>