<svg width="64" height="64" viewBox="0 0 128 128" xmlns="http://www.w3.org/2000/svg"><path d="M70.272 43.392L99.2 96c-6.4 12.8-22.4 19.2-35.2 19.2S35.2 108.8 28.8 96l28.8-52.352c-4.8-7.872-14.592-12.672-27.456-12.992l15.744-18.688c10.752 7.616 15.744 14.848 19.008 21.184 3.584-5.568 7.68-10.752 17.28-13.568l11.712 18.304c-9.088-2.176-16.896.512-23.616 5.504zM52.288 66.56l-5.952 10.816c3.136.704 6.4 1.024 9.856 1.024 8.64 0 16.512-2.304 22.72-6.08l-6.464-11.648c-5.568 3.392-12.544 5.504-20.16 5.888zm5.504 34.432c12.736 0 23.872-4.736 30.336-11.904l-6.272-11.264c-6.4 7.168-17.536 11.968-30.336 11.968-3.968 0-7.744-.512-11.264-1.344l-4.032 7.36c6.016 3.2 13.44 5.184 21.568 5.184z"/></svg>