<svg width="64" height="64" viewBox="0 0 128 128" xmlns="http://www.w3.org/2000/svg"><path d="M112.256 65.856c7.488 7.488 7.488 19.712 0 27.2-7.552 7.488-19.712 7.488-27.2 0l-2.176-3.328c0 23.424-12.8 28.032-18.88 31.872-5.248-3.84-18.88-8.192-18.88-31.872l-2.176 3.328c-7.488 7.488-19.648 7.488-27.2 0-7.488-7.488-7.488-19.712 0-27.2 0 0 6.528-4.288 13.44-8.32-5.44-7.36-8.704-16.448-8.704-26.304 0-2.176.192-4.288.512-6.4 1.6 11.392 7.616 21.376 16.128 28.288 4.288-2.24 11.84-5.312 15.168-5.888H51.2c-7.04 0-12.8-5.76-12.8-12.8s5.76-12.8 12.8-12.8v-3.2c0-1.792 1.408-3.2 3.2-3.2s3.2 1.408 3.2 3.2v3.2h12.8v-3.2c0-1.792 1.408-3.2 3.2-3.2s3.2 1.408 3.2 3.2v3.2c7.04 0 12.8 5.76 12.8 12.8s-5.76 12.8-12.8 12.8h-1.088c3.264.576 11.392 3.904 15.232 5.888 8.512-6.912 14.528-16.896 16.128-28.288.32 2.112.512 4.224.512 6.4 0 9.856-3.264 18.944-8.704 26.304 6.912 4.032 13.376 8.32 13.376 8.32zM54.4 40.832c3.2 0 6.4-2.88 6.4-6.4s-2.88-6.4-6.4-6.4-6.4 2.88-6.4 6.4 2.88 6.4 6.4 6.4zm19.2-12.8c-3.52 0-6.4 2.88-6.4 6.4s2.88 6.4 6.4 6.4 6.4-2.88 6.4-6.4-2.88-6.4-6.4-6.4zM58.88 64.704a3.679 3.679 0 0 0-1.216 2.752c.128 1.6 1.472 2.944 3.136 2.944h6.4c1.664 0 3.008-1.344 3.136-2.944 0-.96-.448-1.856-1.216-2.752-.512-.384-1.152-.704-1.92-.704h-6.4c-.768 0-1.408.32-1.92.704zM76.8 80c0-.768-.384-1.792-1.216-2.432-.576-.448-1.216-.768-1.984-.768H54.4c-.768 0-1.408.32-1.984.768-.704.64-1.216 1.6-1.216 2.432 0 1.792 1.408 3.2 3.2 3.2h19.2c1.792 0 3.2-1.408 3.2-3.2zM54.4 96h19.2c1.792 0 3.2-1.408 3.2-3.2s-1.408-3.2-3.2-3.2H54.4c-1.792 0-3.2 1.408-3.2 3.2s1.408 3.2 3.2 3.2zm6.4 12.8h6.4c1.792 0 3.2-1.408 3.2-3.2s-1.408-3.2-3.2-3.2h-6.4c-1.792 0-3.2 1.408-3.2 3.2s1.408 3.2 3.2 3.2z"/></svg>