<svg width="64" height="64" viewBox="0 0 128 128" xmlns="http://www.w3.org/2000/svg"><path d="M51.2 6.4v44.8H64V38.4c0-9.728 9.28-19.2 19.2-19.2v5.504C86.72 21.376 91.264 19.2 96 19.2v19.2h6.4c7.04 0 12.8 5.76 12.8 12.8S109.44 64 102.4 64H96v38.4c0 3.52-2.88 6.4-6.4 6.4s-6.4-2.88-6.4-6.4V88.448c-1.984.704-4.16 1.152-6.4 1.152v12.8c0 3.52-2.88 6.4-6.4 6.4s-6.4-2.88-6.4-6.4V89.6H51.2v12.8c0 3.52-2.88 6.4-6.4 6.4s-6.4-2.88-6.4-6.4V89.6c-2.24 0-4.416-.448-6.4-1.152V102.4c0 3.52-2.88 6.4-6.4 6.4s-6.4-2.88-6.4-6.4V76.8h-6.4v-6.4c0-10.624 8.576-19.2 19.2-19.2h12.8V6.4h6.4zm32 44.8c3.52 0 6.4-2.88 6.4-6.4s-2.88-6.4-6.4-6.4-6.4 2.88-6.4 6.4 2.88 6.4 6.4 6.4z"/></svg>