<svg width="64" height="64" viewBox="0 0 128 128" xmlns="http://www.w3.org/2000/svg"><path d="M86.4 44.8H41.6c-5.312 0-9.6-4.288-9.6-9.6s4.288-9.6 9.6-9.6h10.176c-.32-1.024-.576-2.048-.576-3.2 0-5.312 4.288-9.6 9.6-9.6h6.4c5.312 0 9.6 4.288 9.6 9.6 0 1.152-.256 2.176-.576 3.2H86.4c5.312 0 9.6 4.288 9.6 9.6s-4.288 9.6-9.6 9.6zm-60.8 6.4h76.8c3.52 0 6.4 2.88 6.4 6.4s-2.88 6.4-6.4 6.4H25.6c-3.52 0-6.4-2.88-6.4-6.4s2.88-6.4 6.4-6.4zM32 70.4h64c3.52 0 6.4 2.88 6.4 6.4s-2.88 6.4-6.4 6.4H32c-3.52 0-6.4-2.88-6.4-6.4s2.88-6.4 6.4-6.4zm12.8 19.2h38.4c3.52 0 6.4 2.88 6.4 6.4s-2.88 6.4-6.4 6.4h-6.976c.32 1.024.576 2.048.576 3.2 0 5.312-4.288 9.6-9.6 9.6h-6.4a9.587 9.587 0 0 1-9.6-9.6c0-1.152.256-2.176.576-3.2H44.8c-3.52 0-6.4-2.88-6.4-6.4s2.88-6.4 6.4-6.4z"/></svg>