<svg width="64" height="64" viewBox="0 0 128 128" xmlns="http://www.w3.org/2000/svg"><path d="M98.88 40c11.712 6.016 12.672 20.352 4.48 31.872-5.12 7.168-14.912 12.032-22.144 11.392L64.32 115.2H57.6L40.64 83.264c-7.232 1.024-17.472-4.032-22.72-11.456C9.728 60.288 10.688 45.952 22.464 40c3.072-1.536 6.144-2.112 9.152-1.984-.064 2.56.064 5.12.448 7.744 1.664 10.816 9.024 22.592 18.304 27.968-1.216 3.52-3.136 6.336-5.632 8L57.6 106.112V69.888C48.896 67.52 40.064 56.064 38.4 44.8c-2.56-16.96 6.4-32 22.4-32s24.96 15.04 22.4 32C81.536 56.064 72.704 67.52 64 69.888v36.928L77.248 82.24c-2.816-1.472-4.928-4.544-6.336-8.32 9.472-5.312 16.96-17.216 18.624-28.16.384-2.624.512-5.248.448-7.808 2.944-.064 5.888.512 8.896 2.048z"/></svg>