<svg width="64" height="64" viewBox="0 0 128 128" xmlns="http://www.w3.org/2000/svg"><path d="M56 36.928C56 28.096 44.8 12.8 44.8 12.8S33.6 28.096 33.6 36.928 37.76 48 44.8 48 56 45.76 56 36.928zm38.4 0c0-8.832-11.2-24.128-11.2-24.128S72 28.096 72 36.928 76.16 48 83.2 48s11.2-2.24 11.2-11.072zM57.6 108.8V57.6c0-3.52-2.88-6.4-6.4-6.4H38.4c-3.52 0-6.4 2.88-6.4 6.4v51.2c0 3.52 2.88 6.4 6.4 6.4h12.8c3.52 0 6.4-2.88 6.4-6.4zm38.4 0V57.6c0-3.52-2.88-6.4-6.4-6.4H76.8c-3.52 0-6.4 2.88-6.4 6.4v51.2c0 3.52 2.88 6.4 6.4 6.4h12.8c3.52 0 6.4-2.88 6.4-6.4zM38.4 70.4L51.2 64v12.8l-12.8 6.4V70.4zm38.4 0L89.6 64v12.8l-12.8 6.4V70.4zM38.4 89.6l12.8-6.4V96l-12.8 6.4V89.6zm38.4 0l12.8-6.4V96l-12.8 6.4V89.6z"/></svg>