<svg width="64" height="64" viewBox="0 0 128 128" xmlns="http://www.w3.org/2000/svg"><path d="M57.6 19.2c0-4.288-3.008-9.152-6.4-12.8-3.2 3.2-6.4 8.832-6.4 12.8 0 3.072 2.88 6.4 6.4 6.4s6.4-3.008 6.4-6.4zm25.6 0c0-4.288-3.008-9.152-6.4-12.8-3.2 3.2-6.4 8.832-6.4 12.8 0 3.072 2.88 6.4 6.4 6.4s6.4-3.008 6.4-6.4zM57.6 57.6V35.2c0-3.52-2.88-6.4-6.4-6.4-3.648 0-6.4 3.136-6.4 6.4v22.4c0 3.52 2.88 6.4 6.4 6.4 3.648 0 6.4-3.136 6.4-6.4zm25.6 0V35.2c0-3.52-2.88-6.4-6.4-6.4-3.648 0-6.4 3.136-6.4 6.4v22.4c0 3.52 2.88 6.4 6.4 6.4 3.648 0 6.4-3.136 6.4-6.4zm25.6 6.4c0-9.472-9.024-17.728-22.4-22.144V57.6c0 5.312-4.288 9.6-9.6 9.6s-9.6-4.288-9.6-9.6V38.464c-1.088 0-2.112-.064-3.2-.064s-2.112.064-3.2.064V57.6c0 5.312-4.288 9.6-9.6 9.6s-9.6-4.288-9.6-9.6V41.856C28.224 46.272 19.2 54.528 19.2 64c0 9.024 6.08 16.96 20.544 21.568 7.104 2.24 15.296 7.168 24.256 7.168s17.216-4.992 24.256-7.232C102.656 80.96 108.8 73.024 108.8 64zM64 98.752c9.152 0 17.536-5.056 24.832-7.104 12.16-3.392 15.936-8.576 19.968-14.848V96c0 14.144-20.032 25.6-44.8 25.6S19.2 110.144 19.2 96V76.8c4.096 6.336 8.448 11.52 20.16 14.912 7.232 2.112 15.616 7.04 24.64 7.04z"/></svg>