<svg width="64" height="64" viewBox="0 0 128 128" xmlns="http://www.w3.org/2000/svg"><path d="M54.4 80.64c1.92-8.32 0-14.72-7.04-14.72-5.12 0-10.24 3.84-11.52 9.6L33.92 86.4C32 92.8 35.84 96 40.32 96 48 96 52.48 88.96 54.4 80.64zM28.8 39.68c-5.12 7.04-7.68 15.36-7.68 24.32 0 6.4 1.28 12.16 3.84 17.92l6.4-29.44c1.92-10.88 2.56-12.8-2.56-12.8zm59.52 40.96c1.92-8.32 0-14.72-7.04-14.72-5.12 0-10.24 3.84-11.52 9.6L67.2 86.4c-1.28 7.04 2.56 10.24 7.04 10.24 7.04-.64 12.16-7.68 14.08-16zM64 21.12c-12.8 0-24.96 5.76-32.64 14.72 3.84-.64 8.96-1.28 11.52-1.92 1.28 0 1.28.64 1.28 1.28 0 1.28-6.4 30.72-6.4 30.72 3.2-1.92 7.68-4.48 11.52-4.48 5.76 0 9.6 2.56 12.16 5.76l3.2-15.36c2.56-10.24 2.56-12.16-2.56-12.16-2.56 0-2.56-3.2 0-3.84 3.84-.64 11.52-1.28 14.72-1.92 1.28 0 1.28.64 1.28 1.28l-6.4 30.72c3.2-2.56 7.68-4.48 12.16-4.48 10.88 0 16 8.32 13.44 19.2-1.92 10.88-12.8 19.2-24.32 19.2-8.32 0-13.44-4.48-14.72-8.96-4.48 5.12-10.88 8.32-17.92 8.96 7.04 4.48 15.36 7.04 23.68 7.04 23.68 0 42.88-19.2 42.88-42.88S87.68 21.12 64 21.12zm0-8.32c-28.16 0-51.2 23.04-51.2 51.2s23.04 51.2 51.2 51.2 51.2-23.04 51.2-51.2S92.16 12.8 64 12.8zm0 99.2c-13.44 0-25.6-5.12-33.92-14.08-1.92-2.56-4.48-5.12-6.4-7.68C19.2 82.56 16 73.6 16 64c0-26.24 21.76-48 48-48s48 21.76 48 48-21.76 48-48 48z"/></svg>