<svg width="64" height="64" viewBox="0 0 128 128" xmlns="http://www.w3.org/2000/svg"><path d="M19.2 128h89.6V0H19.2v128zM44.8 19.2H32V6.4h12.8v12.8zm25.6 0H57.6V6.4h12.8v12.8zm25.6 0H83.2V6.4H96v12.8zM44.8 38.4H32V25.6h12.8v12.8zm25.6 0H57.6V25.6h12.8v12.8zm25.6 0H83.2V25.6H96v12.8zM44.8 57.6H32V44.8h12.8v12.8zm25.6 0H57.6V44.8h12.8v12.8zm25.6 0H83.2V44.8H96v12.8zM44.8 76.8H32V64h12.8v12.8zm25.6 0H57.6V64h12.8v12.8zm25.6 0H83.2V64H96v12.8zm-25.6 44.8H32V83.2h38.4v38.4zM96 96H83.2V83.2H96V96zm0 19.2H83.2v-12.8H96v12.8z"/></svg>