<svg width="64" height="64" viewBox="0 0 128 128" xmlns="http://www.w3.org/2000/svg"><path d="M46.72 38.4l-.192-1.216a41.97 41.97 0 0 1-.192-6.912c.128-2.304.64-4.544 1.6-6.656.896-2.048 1.984-3.904 3.328-5.504s3.136-2.944 5.312-3.84c2.176-.96 4.608-1.472 7.232-1.472 4.416 0 8.064 1.28 10.944 3.776s4.864 5.568 5.824 9.216 1.152 7.424.576 11.392L80.96 38.4c-.064.576-.32 1.6-.704 3.072a32.06 32.06 0 0 1-1.28 4.416c-.512 1.344-1.216 2.88-2.176 4.608-.896 1.728-1.92 3.136-3.008 4.416-1.152 1.216-2.56 2.176-4.288 3.072-1.728.832-3.52 1.216-5.504 1.216s-3.776-.384-5.568-1.216c-1.664-.832-3.136-1.856-4.288-3.2-1.152-1.28-2.176-2.688-3.136-4.224-.96-1.6-1.664-3.136-2.176-4.672-.576-1.6-1.024-3.008-1.344-4.288-.384-1.344-.64-2.368-.768-3.2zm58.88 39.936c2.624 4.48 3.2 9.024 3.2 13.696v15.936c0 .192-.768.512-1.856.832-1.152.256-2.688.832-6.208 1.728-3.52.768-7.04 1.536-10.56 2.176s-7.616 1.216-12.48 1.728c-4.8.512-9.344.768-13.632.768-4.352 0-8.896-.256-13.696-.768-4.8-.448-8.96-1.088-12.672-1.728-3.712-.704-6.912-1.472-9.984-2.176-3.136-.704-5.12-1.344-6.784-1.856l-1.728-.704V92.032c0-4.8.448-9.344 2.944-13.76s5.184-8 9.6-10.752C36.224 64.768 46.016 64 51.2 64l10.688 10.688L57.6 83.2v19.2l6.528 6.912L70.4 102.4V83.2l-4.352-8.512L76.608 64c4.928 0 14.08.448 18.56 3.328 4.544 2.88 7.744 6.528 10.432 11.008z"/></svg>