<svg width="64" height="64" viewBox="0 0 128 128" xmlns="http://www.w3.org/2000/svg"><path d="M96 25.6h19.2v96H12.8v-96H32v-6.4c0-2.624.96-4.864 2.816-6.784C36.672 10.56 38.976 9.6 41.6 9.6s4.928.96 6.784 2.816c1.856 1.92 2.816 4.16 2.816 6.784v6.4h25.6v-6.4c0-2.624.96-4.864 2.816-6.784C81.472 10.56 83.776 9.6 86.4 9.6s4.928.96 6.784 2.816C95.04 14.336 96 16.576 96 19.2v6.4zm-57.6-6.4v16c0 .896.32 1.664.96 2.304.576.576 1.344.896 2.24.896s1.664-.32 2.24-.896c.64-.64.96-1.408.96-2.304v-16c0-.896-.32-1.664-.96-2.24-.576-.64-1.344-.96-2.24-.96s-1.664.32-2.24.96c-.64.576-.96 1.344-.96 2.24zm44.8 0v16c0 .896.32 1.664.896 2.304.64.576 1.408.896 2.304.896s1.664-.32 2.304-.896c.576-.64.896-1.408.896-2.304v-16c0-.896-.32-1.664-.896-2.24-.64-.64-1.408-.96-2.304-.96s-1.664.32-2.304.96c-.576.576-.896 1.344-.896 2.24zm25.6 96v-64H19.2v64h89.6zm-64-57.6v12.8H32V57.6h12.8zm12.8 0h12.8v12.8H57.6V57.6zm25.6 12.8V57.6H96v12.8H83.2zm-38.4 6.4v12.8H32V76.8h12.8zm12.8 0h12.8v12.8H57.6V76.8zm25.6 12.8V76.8H96v12.8H83.2zM44.8 96v12.8H32V96h12.8zm25.6 12.8H57.6V96h12.8v12.8zm25.6 0H83.2V96H96v12.8z"/></svg>