<svg width="64" height="64" viewBox="0 0 128 128" xmlns="http://www.w3.org/2000/svg"><path d="M96 25.6h19.2v89.6H12.8V25.6H32v-6.4c0-5.312 4.288-9.6 9.6-9.6s9.6 4.288 9.6 9.6v6.4h25.6v-6.4c0-5.312 4.288-9.6 9.6-9.6s9.6 4.288 9.6 9.6v6.4zm-57.6-6.4v16c0 1.792 1.408 3.2 3.2 3.2s3.2-1.408 3.2-3.2v-16c0-1.792-1.408-3.2-3.2-3.2s-3.2 1.408-3.2 3.2zm44.8 0v16c0 1.792 1.408 3.2 3.2 3.2s3.2-1.408 3.2-3.2v-16c0-1.792-1.408-3.2-3.2-3.2s-3.2 1.408-3.2 3.2zm25.6 89.6V51.2H19.2v57.6h89.6zm-64-6.4V57.6H32v44.8h12.8zm25.6 0V57.6H57.6v44.8h12.8zm25.6 0V57.6H83.2v44.8H96z"/></svg>