<svg width="64" height="64" viewBox="0 0 128 128" xmlns="http://www.w3.org/2000/svg"><path d="M115.2 22.4c0 3.968-2.432 7.424-5.888 8.832v83.904H12.736l27.008-43.072c-.832-1.472-1.344-3.072-1.344-4.864 0-5.312 4.288-9.6 9.6-9.6s9.6 4.288 9.6 9.6c0 .832-.128 1.6-.32 2.368l9.216 4.032c1.728-1.92 4.288-3.2 7.104-3.2 1.152 0 2.24.256 3.264.576l22.912-41.024A9.425 9.425 0 0 1 96 22.4c0-5.312 4.288-9.6 9.6-9.6 1.216 0 2.304.256 3.392.64l.32-.576v.704c3.456 1.408 5.888 4.864 5.888 8.832zm-12.288 86.336V37.44L81.856 75.136C82.688 76.608 83.2 78.208 83.2 80c0 5.312-4.288 9.6-9.6 9.6S64 85.312 64 80l.064-.448-10.432-4.608c-1.6 1.152-3.52 1.856-5.632 1.856-1.152 0-2.24-.256-3.264-.64l-20.48 32.576h78.656z"/></svg>