<svg width="64" height="64" viewBox="0 0 128 128" xmlns="http://www.w3.org/2000/svg"><path d="M115.2 115.2l.064-78.592c3.776-2.24 6.336-6.336 6.336-11.008 0-7.04-5.76-12.8-12.8-12.8S96 18.56 96 25.6c0 5.12 3.008 9.472 7.296 11.52L76.864 79.232A12.572 12.572 0 0 0 69.44 76.8c-5.376 0-9.92 3.264-11.84 7.936l-13.696-9.792c.576-1.408.896-2.944.896-4.544 0-7.104-5.696-12.8-12.8-12.8-7.04 0-12.8 5.696-12.8 12.8 0 4.672 2.56 8.704 6.272 10.944L6.4 115.2h108.8zm-6.4-96c3.52 0 6.4 2.88 6.4 6.4s-2.88 6.4-6.4 6.4-6.4-2.88-6.4-6.4 2.88-6.4 6.4-6.4zM32 64c3.52 0 6.4 2.88 6.4 6.4s-2.88 6.4-6.4 6.4-6.4-2.88-6.4-6.4S28.48 64 32 64zm37.44 19.2c3.52 0 6.4 2.88 6.4 6.4s-2.88 6.4-6.4 6.4-6.4-2.88-6.4-6.4 2.88-6.4 6.4-6.4z"/></svg>