<svg width="64" height="64" viewBox="0 0 128 128" xmlns="http://www.w3.org/2000/svg"><path d="M76.16 2.496l8.96 8.96c10.304 1.216 22.4-4.736 29.504 2.368s1.152 19.2 2.368 29.504l8.96 8.96a6.374 6.374 0 0 1 0 9.024l-58.816 58.88c-2.56 2.496-6.592 2.496-9.088 0L8.256 70.4c-2.496-2.496-2.496-6.528 0-9.088l58.88-58.816a6.374 6.374 0 0 1 9.024 0zm3.712 14.4l-3.712 3.712 31.68 31.68 3.712-3.712c-1.216-3.84-1.28-7.808-.96-11.648.128-1.984.32-3.968.576-5.888.768-6.4 1.152-10.432-1.088-12.672s-6.272-1.856-12.672-1.088c-1.92.256-3.904.448-5.888.576-3.84.32-7.808.256-11.648-.96zm25.728 5.952c2.496 2.496 2.496 6.592 0 9.088s-6.592 2.496-9.088 0-2.496-6.592 0-9.088 6.592-2.496 9.088 0zm-43.008 2.304l-4.544 4.48L98.816 70.4l4.48-4.544zm-9.088 9.024l-4.48 4.544 40.704 40.704 4.544-4.48zm-9.024 9.088l-4.544 4.48 40.768 40.768 4.48-4.544zm-9.024 9.024l-4.544 4.544 40.704 40.704 4.544-4.544zm-9.088 9.024l-4.544 4.544 40.768 40.768 4.544-4.544z"/></svg>