<svg width="64" height="64" viewBox="0 0 128 128" xmlns="http://www.w3.org/2000/svg"><path d="M12.8 44.8h25.6l32-25.6v89.6l-32-25.6H12.8V44.8zm81.216-15.744c.832.32 21.184 8.832 21.184 34.944S94.848 98.624 94.016 98.944c-.384.192-.832.256-1.216.256-1.28 0-2.496-.768-2.944-1.984a3.156 3.156 0 0 1 1.728-4.16c.704-.32 17.216-7.36 17.216-29.056 0-21.824-17.024-28.992-17.216-29.056a3.156 3.156 0 0 1-1.728-4.16 3.156 3.156 0 0 1 4.16-1.728zM102.4 64c0 16.448-14.272 21.952-14.848 22.208a3.624 3.624 0 0 1-1.152.192 3.24 3.24 0 0 1-3.008-2.048c-.64-1.664.256-3.52 1.856-4.16C85.696 80.064 96 75.904 96 64S85.696 47.936 85.248 47.808c-1.6-.64-2.432-2.496-1.856-4.16.64-1.6 2.496-2.496 4.16-1.856.576.256 14.848 5.76 14.848 22.208z"/></svg>