<svg xmlns="http://www.w3.org/2000/svg" viewBox="0 0 20 20"><path fill="none" d="M0 0h20v20H0z"/><path d="M3.76 16h12.48A7.998 7.998 0 0 0 10 3a7.998 7.998 0 0 0-6.24 13zM10 4c.55 0 1 .45 1 1s-.45 1-1 1-1-.45-1-1 .45-1 1-1zM6 6c.55 0 1 .45 1 1s-.45 1-1 1-1-.45-1-1 .45-1 1-1zm8 0c.55 0 1 .45 1 1s-.45 1-1 1-1-.45-1-1 .45-1 1-1zm-5.37 5.55L12 7v6c0 1.1-.9 2-2 2s-2-.9-2-2c0-.57.24-1.08.63-1.45zM4 10c.55 0 1 .45 1 1s-.45 1-1 1-1-.45-1-1 .45-1 1-1zm12 0c.55 0 1 .45 1 1s-.45 1-1 1-1-.45-1-1 .45-1 1-1zm-5 3c0-.55-.45-1-1-1s-1 .45-1 1 .45 1 1 1 1-.45 1-1z"/></svg>