<svg width="64" height="64" viewBox="0 0 128 128" xmlns="http://www.w3.org/2000/svg"><path d="M24.064 102.4h79.872c7.04-8.768 11.264-19.904 11.264-32 0-28.288-22.912-51.2-51.2-51.2S12.8 42.112 12.8 70.4c0 12.096 4.224 23.232 11.264 32zM64 25.6c3.52 0 6.4 2.88 6.4 6.4s-2.88 6.4-6.4 6.4-6.4-2.88-6.4-6.4 2.88-6.4 6.4-6.4zM38.4 38.4c3.52 0 6.4 2.88 6.4 6.4s-2.88 6.4-6.4 6.4-6.4-2.88-6.4-6.4 2.88-6.4 6.4-6.4zm51.2 0c3.52 0 6.4 2.88 6.4 6.4s-2.88 6.4-6.4 6.4-6.4-2.88-6.4-6.4 2.88-6.4 6.4-6.4zM55.232 73.92L76.8 44.8v38.4C76.8 90.24 71.04 96 64 96s-12.8-5.76-12.8-12.8c0-3.648 1.536-6.912 4.032-9.28zM25.6 64c3.52 0 6.4 2.88 6.4 6.4s-2.88 6.4-6.4 6.4-6.4-2.88-6.4-6.4 2.88-6.4 6.4-6.4zm76.8 0c3.52 0 6.4 2.88 6.4 6.4s-2.88 6.4-6.4 6.4-6.4-2.88-6.4-6.4 2.88-6.4 6.4-6.4zm-32 19.2c0-3.52-2.88-6.4-6.4-6.4s-6.4 2.88-6.4 6.4 2.88 6.4 6.4 6.4 6.4-2.88 6.4-6.4z"/></svg>