<svg width="64" height="64" viewBox="0 0 128 128" xmlns="http://www.w3.org/2000/svg"><path d="M91.456 29.376l7.04 7.104c2.624 2.56 3.904 6.016 3.904 9.408v13.568c0 3.392-1.28 6.848-3.904 9.408l-42.432 42.432c-2.56 2.624-6.016 3.904-9.408 3.904s-6.848-1.28-9.408-3.904l-7.104-7.04-7.04-7.104c-2.624-2.56-3.904-6.016-3.904-9.408V74.176c0-3.456 1.28-6.848 3.904-9.472l42.432-42.368c2.56-2.624 6.016-3.904 9.408-3.904s6.784 1.28 9.408 3.904zm-39.744 62.08L92.8 50.368c2.496-2.496 2.496-6.592 0-9.152L79.104 27.52c-1.216-1.216-2.88-1.856-4.608-1.856s-3.328.64-4.544 1.856L28.864 68.608c-2.496 2.56-2.496 6.656 0 9.152L42.56 91.456c2.432 2.432 6.656 2.432 9.152 0z"/></svg>