<svg width="64" height="64" viewBox="0 0 128 128" xmlns="http://www.w3.org/2000/svg"><path d="M101.248 78.4c1.664 0 3.2-.128 4.736-.448 1.472-.32 3.072-.768 4.672-1.28v5.376c-2.944 1.088-6.336 1.664-10.112 1.664-5.632 0-9.856-1.664-12.864-5.056C85.184 75.84 83.712 72 83.328 67.2h-6.016c.768 1.344 1.152 3.072 1.152 5.056 0 3.456-1.152 6.08-3.52 8.064-2.432 1.92-5.76 2.88-9.984 2.88H51.2v-16h-9.024l5.952 16h-6.592L37.76 72.512H23.168L19.456 83.2H12.8l5.952-16H12.8v-6.4h8.384l5.952-15.936h6.784L39.808 60.8H51.2v-16h11.328c6.4 0 9.024 1.088 11.328 2.624 2.368 1.536 3.52 3.968 3.52 7.232 0 2.24-.576 4.096-1.728 5.568l-.512.576h8.256c.32-2.56.96-4.928 1.984-7.04 1.472-2.944 3.52-5.248 6.272-6.784 2.752-1.6 5.952-2.368 9.664-2.368 3.904 0 7.488.768 10.816 2.432l-2.24 5.184c-1.28-.64-2.688-1.152-4.096-1.6s-2.944-.704-4.544-.704c-3.52 0-6.336 1.28-8.384 3.776-1.472 1.856-2.432 4.224-2.816 7.104H108.8v6.4H89.92c.384 3.2 1.28 5.76 2.816 7.616 1.92 2.368 4.8 3.584 8.512 3.584zM28.416 57.344L27.264 60.8h6.656l-1.408-3.904c-.256-.704-.576-1.792-1.088-3.264-.448-1.536-.768-2.624-.896-3.264-.512 2.112-1.152 4.416-2.112 6.976zm28.992-6.976V60.8h7.616c1.792-.128 3.136-.576 4.096-1.152 1.216-.832 1.792-2.24 1.792-4.224 0-1.792-.64-3.072-1.92-3.904-1.28-.768-3.392-1.152-6.208-1.152h-5.376zM36.096 67.264V67.2H25.024v.064h11.072zm33.792.064l-.192-.128H57.408v10.752h6.656c2.56 0 4.544-.512 5.888-1.472 1.344-1.024 1.984-2.56 1.984-4.736 0-1.984-.704-3.456-2.048-4.416z"/></svg>