<svg width="64" height="64" viewBox="0 0 128 128" xmlns="http://www.w3.org/2000/svg"><path d="M102.4 12.8H83.2v6.4H44.8v-6.4H25.6v96h19.2v-6.4h38.4v6.4h19.2v-96zm-64 6.4v6.4H32v-6.4h6.4zm57.6 0v6.4h-6.4v-6.4H96zm-12.8 6.4v32H44.8v-32h38.4zM38.4 32v6.4H32V32h6.4zM96 32v6.4h-6.4V32H96zM38.4 44.8v6.4H32v-6.4h6.4zm57.6 0v6.4h-6.4v-6.4H96zM38.4 57.6V64H32v-6.4h6.4zm57.6 0V64h-6.4v-6.4H96zM83.2 64v32H44.8V64h38.4zm-44.8 6.4v6.4H32v-6.4h6.4zm57.6 0v6.4h-6.4v-6.4H96zM38.4 83.2v6.4H32v-6.4h6.4zm57.6 0v6.4h-6.4v-6.4H96zM38.4 96v6.4H32V96h6.4zM96 96v6.4h-6.4V96H96z"/></svg>