<svg width="64" height="64" viewBox="0 0 128 128" xmlns="http://www.w3.org/2000/svg"><path d="M101.376 17.664c1.6 0 3.136.256 4.544.704 1.472.448 2.816 1.024 4.096 1.6l2.24-5.184c-3.328-1.664-6.912-2.496-10.816-2.496-3.712 0-6.976.832-9.728 2.368-2.752 1.6-4.864 3.904-6.336 6.912C83.904 24.512 83.2 28.032 83.2 32c0 6.336 1.472 11.2 4.48 14.592s7.36 5.056 12.928 5.056c3.84 0 7.232-.576 10.24-1.664v-5.376a57.61 57.61 0 0 1-4.736 1.216c-1.536.32-3.136.512-4.736.512-3.776 0-6.656-1.216-8.576-3.648-2.048-2.368-3.008-5.952-3.008-10.624 0-4.48 1.024-8 3.072-10.56 2.112-2.56 4.928-3.84 8.512-3.84zM41.6 51.2h6.656L33.92 12.8h-6.784L12.8 51.2h6.592l3.712-10.624H37.76zm9.6-38.4v38.4h13.888c4.288 0 7.616-.96 10.048-2.944 2.432-1.92 3.584-4.608 3.584-8.064 0-2.56-.64-4.608-1.92-6.08-1.216-1.536-3.2-2.496-5.952-3.008v-.256c2.24-.384 3.84-1.344 4.992-2.816 1.152-1.536 1.792-3.392 1.792-5.632 0-3.328-1.216-5.76-3.584-7.296-2.304-1.536-6.144-2.304-11.456-2.304H51.2zm6.272 15.872V18.048h5.44c2.816 0 4.928.384 6.208 1.216 1.344.768 1.984 2.112 1.984 3.904 0 1.984-.64 3.392-1.856 4.224-1.152.832-3.072 1.28-5.696 1.28h-6.08zM36.096 35.2H24.96l3.456-9.984c.896-2.56 1.6-4.864 2.048-7.04l.96 3.328c.448 1.472.832 2.56 1.088 3.264zm21.376-1.472h6.336c2.816 0 4.864.512 6.272 1.472 1.344.96 2.048 2.432 2.048 4.416 0 2.176-.704 3.776-2.048 4.8s-3.328 1.536-5.952 1.536h-6.656V33.728zM25.6 83.2l32 32L115.2 64l-6.4-6.4L57.6 96 32 76.8z"/></svg>