<svg width="64" height="64" viewBox="0 0 128 128" xmlns="http://www.w3.org/2000/svg"><path d="M113.536 14.464c10.752 10.816 10.752 28.224 0 39.04l-9.792 9.728c-2.048 2.112-4.416 3.712-6.912 4.928L83.2 64l10.816-10.496 4.864-4.928 4.864-4.864c5.376-5.376 5.376-14.08 0-19.456a13.637 13.637 0 0 0-19.456 0L79.36 29.12l-4.864 4.864L64 44.8l-4.16-13.696c1.216-2.432 2.816-4.8 4.928-6.848l9.728-9.792c10.816-10.752 28.288-10.752 39.04 0zM12.8 25.6L64 64 25.6 12.8zm25.6-12.8L64 64 51.2 12.8H38.4zM12.8 38.4L64 64 12.8 51.2V38.4zm47.104 49.216L64 83.2l4.736 15.04-8.832 8.896c-10.816 10.752-28.224 10.752-39.04 0-10.752-10.752-10.752-28.288 0-39.04l8.896-8.832L44.8 64l-4.416 4.096-9.728 9.792a13.637 13.637 0 0 0 0 19.456 13.637 13.637 0 0 0 19.456 0zM115.2 102.4L64 64l38.4 51.2zm-25.6 12.8L64 64l12.8 51.2h12.8zm25.6-25.6L64 64l51.2 12.8v12.8z"/></svg>