<svg width="64" height="64" viewBox="0 0 128 128" xmlns="http://www.w3.org/2000/svg"><path d="M38.4 44.8V19.2h-4.416l-8.256 6.592 2.56 3.264 2.944-2.368c.384-.32 1.024-.896 1.92-1.792l-.128 2.688V44.8H38.4zM51.2 32h57.6v6.4H51.2V32zm-7.872 44.48V72H32.32v-.256l3.264-3.072c2.112-1.984 3.648-3.456 4.48-4.544.896-1.088 1.536-2.112 1.92-3.136.448-1.024.64-2.112.64-3.264 0-1.344-.32-2.56-1.024-3.584-.64-1.024-1.6-1.792-2.816-2.368s-2.624-.896-4.16-.896c-1.216 0-2.304.128-3.264.384-.96.192-1.856.576-2.688.96-.768.448-1.856 1.216-3.072 2.24l2.88 3.456c1.024-.832 1.984-1.472 2.88-1.92.96-.448 1.92-.64 2.88-.64.896 0 1.664.192 2.24.704s.832 1.28.832 2.304c0 .64-.128 1.28-.384 1.92s-.64 1.344-1.216 2.112c-.576.704-1.856 2.048-3.712 3.968l-6.336 6.4v3.712h17.664zM51.2 64h57.6v6.4H51.2V64zm-8.256 25.28c0-1.92-.768-3.456-2.368-4.544-1.536-1.088-3.712-1.664-6.4-1.664-3.328 0-6.144.832-8.512 2.56l2.56 3.84c1.088-.704 2.048-1.216 2.944-1.472a7.546 7.546 0 0 1 2.624-.448c2.432 0 3.712.96 3.712 2.944 0 1.28-.448 2.24-1.408 2.752s-2.432.768-4.48.768h-1.984v4.224h1.984c2.176 0 3.776.256 4.8.768.96.512 1.472 1.408 1.472 2.624 0 1.408-.448 2.368-1.28 3.008-.896.64-2.24.96-4.032.96-1.216 0-2.432-.192-3.648-.512s-2.304-.768-3.328-1.28v4.736c2.176.96 4.736 1.408 7.552 1.408 3.392 0 6.016-.704 7.808-2.112 1.856-1.408 2.752-3.328 2.752-5.888 0-1.728-.576-3.072-1.664-4.096s-2.688-1.664-4.736-1.92v-.128c1.728-.384 3.136-1.216 4.16-2.368.96-1.152 1.472-2.496 1.472-4.16zM51.2 96h57.6v6.4H51.2V96z"/></svg>