<svg width="64" height="64" viewBox="0 0 128 128" xmlns="http://www.w3.org/2000/svg"><path d="M96 12.8H48.256c-5.312 0-10.176 1.28-14.592 3.84-4.48 2.624-8 6.144-10.56 10.56-2.624 4.416-3.904 9.28-3.904 14.528s1.28 10.112 3.904 14.528c2.56 4.416 6.08 7.936 10.56 10.496 4.416 2.624 9.28 3.904 14.592 3.904h2.752V108.8c0 1.728.64 3.264 1.856 4.544 1.28 1.216 2.816 1.856 4.544 1.856 1.792 0 3.264-.64 4.544-1.856 1.28-1.28 1.92-2.816 1.92-4.544V32c0-1.728.576-3.264 1.856-4.544 1.28-1.216 2.816-1.856 4.544-1.856s3.264.64 4.544 1.856c1.216 1.28 1.856 2.816 1.856 4.544v76.8c0 1.728.64 3.264 1.92 4.544 1.28 1.216 2.752 1.856 4.544 1.856 1.728 0 3.264-.64 4.544-1.856 1.216-1.28 1.856-2.816 1.856-4.544V25.6H96c1.728 0 3.2-.64 4.48-1.92 1.28-1.216 1.92-2.752 1.92-4.48s-.64-3.264-1.92-4.544C99.2 13.44 97.728 12.8 96 12.8z"/></svg>