<svg width="64" height="64" viewBox="0 0 128 128" xmlns="http://www.w3.org/2000/svg"><path d="M38.4 25.6v83.2h29.056c8.768 0 15.744-2.112 20.864-6.4C93.44 98.176 96 92.288 96 84.672c0-5.376-1.088-9.664-3.264-12.864s-5.76-5.44-10.688-6.592v-.576c3.648-.64 6.528-2.56 8.704-5.76s3.264-7.232 3.264-12.224c0-7.296-2.496-12.672-7.488-16C81.6 27.264 73.6 25.6 62.592 25.6H38.4zm16.448 32.96V40.064h8.704c4.672 0 8.128.704 10.304 2.048 2.176 1.408 3.264 3.712 3.264 6.848 0 3.456-1.024 5.888-3.008 7.36s-5.248 2.24-9.664 2.24h-9.6zm0 14.016h10.24c9.216 0 13.824 3.392 13.824 10.304 0 3.84-1.088 6.72-3.264 8.576s-5.504 2.752-10.048 2.752H54.848V72.576z"/></svg>