<svg width="64" height="64" viewBox="0 0 128 128" xmlns="http://www.w3.org/2000/svg"><path d="M35.2 44.8a9.587 9.587 0 0 1-9.6-9.6c0-5.248 4.288-9.6 9.6-9.6 5.248 0 9.6 4.352 9.6 9.6 0 5.312-4.352 9.6-9.6 9.6zm16-12.8h57.6v6.4H51.2V32zm-16 44.8a9.587 9.587 0 0 1-9.6-9.6c0-5.248 4.288-9.6 9.6-9.6 5.248 0 9.6 4.352 9.6 9.6 0 5.312-4.352 9.6-9.6 9.6zm16-12.8h57.6v6.4H51.2V64zm-16 44.8a9.587 9.587 0 0 1-9.6-9.6c0-5.248 4.288-9.6 9.6-9.6 5.248 0 9.6 4.352 9.6 9.6 0 5.312-4.352 9.6-9.6 9.6zm16-12.8h57.6v6.4H51.2V96z"/></svg>