<svg width="64" height="64" viewBox="0 0 128 128" xmlns="http://www.w3.org/2000/svg"><path d="M108.8 64c0-24.768-20.096-44.8-44.8-44.8-24.768 0-44.8 20.032-44.8 44.8s20.032 44.8 44.8 44.8c24.704 0 44.8-20.032 44.8-44.8zm-40.32 9.472h-9.984V70.72c0-2.432.512-4.48 1.536-6.272s2.944-3.648 5.632-5.696c2.624-1.856 4.352-3.392 5.184-4.544.896-1.152 1.28-2.496 1.28-3.968 0-1.6-.576-2.816-1.792-3.712-1.216-.832-2.88-1.216-5.056-1.216-3.712 0-8 1.216-12.8 3.648l-4.096-8.192c5.568-3.136 11.52-4.736 17.728-4.736 5.184 0 9.28 1.28 12.288 3.712 3.072 2.496 4.544 5.824 4.544 9.92 0 2.752-.576 5.12-1.856 7.104-1.216 2.048-3.648 4.288-7.104 6.784-2.432 1.792-3.904 3.136-4.544 4.032-.64.96-.96 2.176-.96 3.648v2.24zm-9.408 17.536c-1.152-1.088-1.728-2.688-1.728-4.672 0-2.112.512-3.712 1.664-4.8s2.752-1.6 4.928-1.6c2.048 0 3.648.576 4.8 1.664s1.728 2.688 1.728 4.736c0 1.92-.576 3.52-1.728 4.608-1.152 1.152-2.752 1.728-4.8 1.728-2.112 0-3.712-.576-4.864-1.664z"/></svg>