<svg width="64" height="64" viewBox="0 0 128 128" xmlns="http://www.w3.org/2000/svg"><path d="M64 34.56c8.128 0 14.336 2.304 18.624 6.912 4.224 4.544 6.4 11.264 6.4 20.032 0 8.192-1.472 15.168-4.416 20.928C81.6 88.128 76.48 92.16 70.4 96v12.8h38.4V96H85.184c5.888-4.096 10.368-8.576 13.568-14.976 3.136-6.464 4.736-13.632 4.736-21.44 0-11.392-3.52-20.416-10.56-27.008s-16.64-9.92-28.928-9.92-21.952 3.392-28.928 10.048c-7.04 6.656-10.56 15.616-10.56 26.88 0 7.744 1.536 14.784 4.672 21.312C32.256 87.36 36.8 91.84 42.624 96H19.2v12.8h38.4V96c-6.272-4.096-11.52-8.192-14.336-13.888-2.88-5.696-4.288-12.544-4.288-20.608 0-8.768 2.112-15.424 6.4-20.032C49.6 36.864 55.808 34.56 64 34.56z"/></svg>