<svg width="64" height="64" viewBox="0 0 128 128" xmlns="http://www.w3.org/2000/svg"><path d="M121.6 12.8v38.4H6.4V12.8h115.2zm-6.4 32V19.2H12.8v25.6h102.4zM32 25.6v12.8H19.2V25.6H32zm19.2 0v12.8H38.4V25.6h12.8zm19.2 0v12.8H57.6V25.6h12.8zm19.2 0v12.8H76.8V25.6h12.8zm19.2 0v12.8H96V25.6h12.8zm12.8 32v57.6H6.4V57.6h115.2zm-6.4 51.2V64H12.8v44.8h102.4zM32 70.4v12.8H19.2V70.4H32zm19.2 0v12.8H38.4V70.4h12.8zm19.2 0v12.8H57.6V70.4h12.8zm38.4 0v12.8h-32V70.4h32zM70.4 89.6v12.8H19.2V89.6h51.2zm19.2 0v12.8H76.8V89.6h12.8zm19.2 0v12.8H96V89.6h12.8z"/></svg>