<svg width="64" height="64" viewBox="0 0 128 128" xmlns="http://www.w3.org/2000/svg"><path d="M79.232 12.8L96 32v6.4H32V32l16.896-19.2h30.336zM64 32c3.52 0 6.4-2.88 6.4-6.4s-2.88-6.4-6.4-6.4-6.4 2.88-6.4 6.4S60.48 32 64 32zm51.2 76.8V32c0-3.52-2.88-6.4-6.4-6.4h-9.856l3.456 4.032V44.8H25.6V29.568l3.52-3.968H19.2c-3.52 0-6.4 2.88-6.4 6.4v76.8c0 3.52 2.88 6.4 6.4 6.4h89.6c3.52 0 6.4-2.88 6.4-6.4zM96 57.6l-12.8 44.8H70.4l-6.4-32-6.4 32H44.288L32 57.6h12.8l6.4 32 6.4-32h12.8l6.4 32 6.4-32H96z"/></svg>