<svg width="64" height="64" viewBox="0 0 128 128" xmlns="http://www.w3.org/2000/svg"><path d="M60.736 84.608c0-4.736-1.28-8.832-3.904-12.16-3.968-4.992-11.712-5.632-16.192-4.608-1.856-10.56 7.104-24 18.688-29.76L50.432 25.6C32.96 33.92 15.744 52.992 18.688 77.12c1.856 15.232 10.688 25.28 23.168 25.28 5.44 0 9.984-1.6 13.568-4.8s5.312-7.552 5.312-12.992zm51.52 0c0-4.736-1.28-8.832-3.904-12.16-4.032-4.992-11.712-5.632-16.192-4.608-1.856-10.56 7.104-24 18.688-29.76l-8.896-12.48c-17.472 8.32-34.624 27.392-31.68 51.52 1.856 15.232 10.624 25.28 23.104 25.28 5.44 0 9.984-1.6 13.568-4.8s5.312-7.552 5.312-12.992z"/></svg>