<svg width="64" height="64" viewBox="0 0 128 128" xmlns="http://www.w3.org/2000/svg"><path d="M121.6 92.8V35.2c0-5.312-4.288-9.6-9.6-9.6H22.336a9.587 9.587 0 0 0-9.6 9.6v57.6c0 5.312 4.288 9.6 9.6 9.6H112c5.312 0 9.6-4.288 9.6-9.6zm-8.384-58.304c2.112 2.112.96 4.288-.192 5.376L87.04 63.68 112 89.664c.768.896 1.28 2.304.384 3.264-.832 1.024-2.752.96-3.584.32L80.832 69.376l-13.696 12.48-13.632-12.48-27.968 23.872c-.832.64-2.752.704-3.584-.32-.896-.96-.384-2.368.384-3.264l24.96-25.984-25.984-23.808c-1.152-1.088-2.304-3.264-.192-5.376s4.288-1.088 6.08.448L67.136 67.2l40-32.256c1.792-1.536 3.968-2.56 6.08-.448z"/></svg>