<svg width="64" height="64" viewBox="0 0 128 128" xmlns="http://www.w3.org/2000/svg"><path d="M108.8 25.6H19.2c-7.04 0-12.8 5.76-12.8 12.8v51.2c0 7.04 5.76 12.8 12.8 12.8h89.6c7.04 0 12.8-5.76 12.8-12.8V38.4c0-7.04-5.76-12.8-12.8-12.8zm-53.76 32l-2.56 1.92c-2.56 2.56-3.2 7.04-1.28 10.24l-5.12 5.12-7.04-7.04-8.32 8.32c-1.28 1.28-10.24 8.32-11.52 7.04-1.28-1.28 5.76-10.24 7.04-11.52l8.32-8.32-7.04-7.04 5.12-5.12c3.2 1.92 7.68 1.92 10.24-1.28L44.8 48c3.2-3.2 3.2-7.68 1.28-10.88L51.2 32l19.2 18.56-5.12 5.12c-3.2-1.28-7.68-1.28-10.24 1.92zm34.56 9.6L80 76.8l9.6 9.6V96L70.4 76.8l19.2-19.2v9.6zM96 96v-9.6l9.6-9.6-9.6-9.6v-9.6l19.2 19.2L96 96z"/></svg>