<svg width="64" height="64" viewBox="0 0 128 128" xmlns="http://www.w3.org/2000/svg"><path d="M54.656 81.536c0-5.568-1.536-10.304-4.608-14.208-4.672-5.888-13.696-6.592-18.944-5.44-2.176-12.352 8.32-28.096 21.888-34.88L42.56 12.416C22.08 22.144 1.984 44.544 5.44 72.768 7.616 90.624 17.92 102.4 32.512 102.4c6.4 0 11.712-1.856 15.872-5.632 4.224-3.776 6.272-8.832 6.272-15.232zm60.352 0c0-5.568-1.536-10.304-4.608-14.208-4.672-5.888-13.696-6.592-18.944-5.44-2.176-12.352 8.32-28.096 21.888-34.88l-10.432-14.592c-20.48 9.728-40.576 32.128-37.12 60.352 2.176 17.856 12.48 29.632 27.072 29.632 6.4 0 11.712-1.856 15.872-5.632 4.224-3.776 6.272-8.832 6.272-15.232z"/></svg>