<svg width="64" height="64" viewBox="0 0 128 128" xmlns="http://www.w3.org/2000/svg"><path d="M102.4 25.6h12.544c3.648 0 6.656 3.008 6.656 6.656v82.688c0 3.648-3.008 6.656-6.656 6.656H32.256c-3.648 0-6.656-3.008-6.656-6.656V102.4H13.056c-3.648 0-6.656-3.008-6.656-6.656V13.056C6.4 9.408 9.408 6.4 13.056 6.4h82.688c3.648 0 6.656 3.008 6.656 6.656V25.6zm-83.2 64h70.4V19.2H19.2v70.4zm32-54.4c0-5.312-4.288-9.6-9.6-9.6S32 29.888 32 35.2s4.288 9.6 9.6 9.6 9.6-4.288 9.6-9.6zM64 64s6.4-32 19.2-32v51.2H25.6V44.8C38.4 44.8 38.4 64 38.4 64s2.112-12.8 12.8-12.8S64 64 64 64zm44.8 44.8V38.4h-6.4v57.344c0 3.648-3.008 6.656-6.656 6.656H38.4v6.4h70.4z"/></svg>