<svg width="64" height="64" viewBox="0 0 128 128" xmlns="http://www.w3.org/2000/svg"><path d="M64 6.4c44.8 0 57.6 18.624 57.6 41.6S108.8 89.6 64 89.6 6.4 70.976 6.4 48 19.2 6.4 64 6.4zM35.2 57.6c5.312 0 9.6-4.288 9.6-9.6s-4.288-9.6-9.6-9.6-9.6 4.288-9.6 9.6 4.288 9.6 9.6 9.6zm28.8 0c5.312 0 9.6-4.288 9.6-9.6s-4.288-9.6-9.6-9.6-9.6 4.288-9.6 9.6 4.288 9.6 9.6 9.6zm28.8 0c5.312 0 9.6-4.288 9.6-9.6s-4.288-9.6-9.6-9.6-9.6 4.288-9.6 9.6 4.288 9.6 9.6 9.6zM38.4 92.8c5.312 0 9.6 4.288 9.6 9.6s-4.288 9.6-9.6 9.6-9.6-4.288-9.6-9.6 4.288-9.6 9.6-9.6zm-19.2 12.8c3.52 0 6.4 2.88 6.4 6.4s-2.88 6.4-6.4 6.4-6.4-2.88-6.4-6.4 2.88-6.4 6.4-6.4z"/></svg>