<svg width="64" height="64" viewBox="0 0 128 128" xmlns="http://www.w3.org/2000/svg"><path d="M43.072 64h34.56c.32 1.856.576 3.648.576 6.08 0 20.928-14.016 35.84-35.136 35.84C22.784 105.92 6.4 89.472 6.4 69.248c0-20.288 16.384-36.672 36.672-36.672 9.856 0 18.176 3.648 24.512 9.6l-9.92 9.6c-2.752-2.624-7.488-5.696-14.592-5.696-12.544 0-22.72 10.368-22.72 23.168 0 12.736 10.176 23.104 22.72 23.104 14.464 0 19.904-10.368 20.736-15.808H43.072V64zm78.528 0v10.496h-10.496v10.432h-10.432V74.496H90.176V64h10.496V53.504h10.432V64H121.6z"/></svg>