<svg width="64" height="64" viewBox="0 0 128 128" xmlns="http://www.w3.org/2000/svg"><path d="M110.08 21.12l1.024 1.088a6.374 6.374 0 0 1 0 9.024L29.12 113.28c-2.496 2.496-6.592 2.496-9.024 0l-1.088-1.088a6.374 6.374 0 0 1 0-9.024l10.176-10.24C19.136 86.528 11.52 78.208 6.4 67.776c5.184-10.56 12.992-19.072 23.296-25.536S51.456 32.576 64 32.576a63.01 63.01 0 0 1 21.76 3.84l15.232-15.296c2.496-2.496 6.592-2.496 9.088 0zM64.704 46.784c-1.472 1.6-2.176 3.456-2.176 5.632 0 1.984.768 3.712 1.984 5.184l11.52-11.456c-.832-.768-1.792-1.344-2.88-1.664-.704-.064-1.792-.192-3.136-.256-2.112.192-3.84 1.024-5.312 2.56zM15.36 67.776c4.416 7.872 10.944 14.4 19.52 19.52l8.192-8.192c-3.264-4.416-4.928-9.408-4.928-15.104 0-6.784 2.304-12.672 6.976-17.664-6.656 1.728-12.544 4.48-17.664 8.064-5.12 3.712-9.152 8.128-12.096 13.376zm84.608-13.632L106.112 48c6.528 5.504 11.712 12.096 15.488 19.776-5.184 10.56-12.992 19.072-23.296 25.536s-21.76 9.664-34.304 9.664c-4.032 0-7.936-.448-11.712-1.152l6.848-6.848c1.6.128 3.2.32 4.864.32 10.432 0 20.032-2.56 28.8-7.744s15.36-11.776 19.84-19.776c-2.944-5.248-6.976-9.664-12.096-13.376-.192-.064-.384-.192-.576-.256zM64.256 89.856l25.6-25.6c-.064 7.04-2.624 13.056-7.552 17.984-4.992 4.992-11.008 7.552-18.048 7.616z"/></svg>