<svg width="64" height="64" viewBox="0 0 128 128" xmlns="http://www.w3.org/2000/svg"><path d="M25.6 102.4V89.6H12.8v12.8H6.4v-32h6.4v12.8h12.8V70.4H32v32h-6.4zm19.2 0V76.8h-8.96v-6.4h23.68v6.4H51.2v25.6h-6.4zm19.2 0v-32h6.4l8.96 21.76H80l9.6-21.76H96v32h-6.4V82.56h-.64l-7.04 16h-3.84l-7.04-16h-.64v19.84H64zm57.6 0h-19.2v-32h6.4V96h12.8v6.4zM60.16 26.88L45.44 41.6l14.72 14.72L56.32 64l-22.4-22.4 22.4-22.4 3.84 7.68zm7.68 29.44L82.56 41.6 67.84 26.88l3.84-7.68 22.4 22.4L71.68 64l-3.84-7.68z"/></svg>