<svg width="64" height="64" viewBox="0 0 128 128" xmlns="http://www.w3.org/2000/svg"><path d="M115.2 115.2H12.8V12.8h102.4v102.4zM51.52 48.192c.832-.448 1.536-.96 2.112-1.536a11.018 11.018 0 0 0 1.536-2.176c.448-.896.832-1.664 1.088-2.368s.448-1.408.64-2.176l.384-1.536c0-.256.064-.448.064-.576.32-2.048.192-3.904-.256-5.76-.512-1.792-1.472-3.328-2.944-4.608C52.672 26.24 50.88 25.6 48.64 25.6c-1.28 0-2.496.256-3.584.704-1.088.512-1.984 1.152-2.624 1.92a10.397 10.397 0 0 0-1.728 2.816c-.448 1.024-.704 2.112-.768 3.264s0 2.304.064 3.52l.128.576c.064.384.192.96.384 1.6s.384 1.344.64 2.112.64 1.6 1.088 2.368c.512.768 1.024 1.472 1.6 2.112s1.28 1.216 2.176 1.6c.832.384 1.792.576 2.752.576s1.92-.192 2.752-.576zM102.4 32v-6.4h-32V32h32zm0 12.8v-6.4h-32v6.4h32zM48.768 56.512l-8.832-5.632c-2.624 0-5.056.704-7.296 2.048-2.24 1.408-3.968 3.2-5.184 5.44-1.216 2.176-1.856 4.48-1.856 6.848v8l1.28.32c.832.256 1.984.576 3.52.896 1.536.384 3.264.768 5.12 1.088 1.856.384 3.968.64 6.4.896 2.368.256 4.672.384 6.848.384s4.416-.128 6.848-.384 4.48-.576 6.272-.896c1.728-.32 3.456-.64 5.248-1.088 1.728-.384 2.88-.704 3.456-.832.576-.192 1.024-.32 1.344-.384v-8c0-2.304-.64-4.608-1.984-6.848s-3.136-4.096-5.376-5.504-4.608-2.112-7.104-2.112zM102.4 57.6v-6.4H83.2v6.4h19.2zm0 12.8V64H83.2v6.4h19.2zm0 19.2v-6.4H25.6v6.4h76.8zm0 12.8V96H25.6v6.4h76.8z"/></svg>