<svg width="64" height="64" viewBox="0 0 128 128" xmlns="http://www.w3.org/2000/svg"><path d="M25.6 96V76.8H12.8v-64h76.8V32h12.8v19.2h12.8v64H38.4V96H25.6zm44.8-76.8c-7.04 0-12.8 5.76-12.8 12.8h25.6c0-7.04-5.696-12.8-12.8-12.8zM25.6 70.4v-32h-6.4v32h6.4zm44.8-19.2H96c0-7.04-5.696-12.8-12.8-12.8-7.04 0-12.8 5.76-12.8 12.8zm-32 38.4v-32H32v32h6.4zM96 83.2c7.04 0 12.8-5.696 12.8-12.8 0-7.04-5.76-12.8-12.8-12.8s-12.8 5.76-12.8 12.8c0 7.104 5.76 12.8 12.8 12.8zm12.8 25.6V96c-32 0-32-19.2-64-19.2v32h64z"/></svg>