<svg width="64" height="64" viewBox="0 0 128 128" xmlns="http://www.w3.org/2000/svg"><path d="M89.6 37.568c0-14.08-11.456-25.6-25.6-25.6s-25.6 11.52-25.6 25.6c0 14.144 11.456 25.6 25.6 25.6s25.6-11.456 25.6-25.6zM20.736 68.224c-12.288 7.04-16.448 22.72-9.408 34.944 7.104 12.288 22.72 16.448 35.008 9.408 12.224-7.104 16.448-22.72 9.344-35.008-7.04-12.224-22.72-16.384-34.944-9.344zm60.928 44.352c12.288 7.04 27.904 2.88 35.008-9.344 7.04-12.288 2.88-27.904-9.408-35.008-12.224-7.04-27.904-2.88-34.944 9.344-7.104 12.288-2.88 27.904 9.344 35.008z"/></svg>