<svg width="64" height="64" viewBox="0 0 128 128" xmlns="http://www.w3.org/2000/svg"><path d="M64 6.4c19.904 0 36.032 16.128 36.032 35.968 0 11.776-12.992 29.312-12.992 29.312-2.112 2.816-3.84 8-3.84 11.52v6.4c0 3.52-2.88 6.4-6.4 6.4H51.2c-3.52 0-6.4-2.88-6.4-6.4v-6.4c0-3.52-1.728-8.704-3.84-11.52 0 0-12.928-17.536-12.928-29.312C28.032 22.528 44.096 6.4 64 6.4zM44.8 107.968V102.4h38.4v5.568c0 3.968-.832 7.232-4.8 7.232h-1.6c0 3.968-2.56 6.4-6.528 6.4h-12.8c-3.904 0-6.272-2.432-6.272-6.4h-1.6c-3.968 0-4.8-3.264-4.8-7.232z"/></svg>