<svg width="64" height="64" viewBox="0 0 128 128" xmlns="http://www.w3.org/2000/svg"><path d="M12.8 121.6h102.4c3.52 0 6.4-2.88 6.4-6.4V12.8c0-3.52-2.88-6.4-6.4-6.4H12.8c-3.52 0-6.4 2.88-6.4 6.4v102.4c0 3.52 2.88 6.4 6.4 6.4zM25.6 19.2c3.52 0 6.4 2.88 6.4 6.4S29.12 32 25.6 32s-6.4-2.88-6.4-6.4 2.88-6.4 6.4-6.4zm83.2 0V32H38.4V19.2h70.4zM25.6 44.8c3.52 0 6.4 2.88 6.4 6.4s-2.88 6.4-6.4 6.4-6.4-2.88-6.4-6.4 2.88-6.4 6.4-6.4zm83.2 0v12.8H38.4V44.8h70.4zM25.6 70.4c3.52 0 6.4 2.88 6.4 6.4s-2.88 6.4-6.4 6.4-6.4-2.88-6.4-6.4 2.88-6.4 6.4-6.4zm83.2 0v12.8H38.4V70.4h70.4zM25.6 96c3.52 0 6.4 2.88 6.4 6.4s-2.88 6.4-6.4 6.4-6.4-2.88-6.4-6.4 2.88-6.4 6.4-6.4zm83.2 0v12.8H38.4V96h70.4z"/></svg>