<svg width="64" height="64" viewBox="0 0 128 128" xmlns="http://www.w3.org/2000/svg"><path d="M64 12.8c-21.184 0-38.4 17.216-38.4 38.4 0 12.928 7.488 23.744 16.192 31.296 2.752 2.368 7.552 6.144 11.84 11.712 4.736 6.208 9.024 12.864 10.368 17.344 1.344-4.48 5.632-11.136 10.368-17.344 4.288-5.568 9.088-9.344 11.84-11.712C94.912 74.944 102.4 64.128 102.4 51.2c0-21.184-17.216-38.4-38.4-38.4zm0 16.384c12.16 0 22.016 9.856 22.016 22.016S76.16 73.216 64 73.216 41.984 63.36 41.984 51.2 51.84 29.184 64 29.184z"/></svg>