<svg width="64" height="64" viewBox="0 0 128 128" xmlns="http://www.w3.org/2000/svg"><path d="M89.6 57.6H96c3.52 0 6.4 2.88 6.4 6.4v44.8c0 3.52-2.88 6.4-6.4 6.4H32c-3.52 0-6.4-2.88-6.4-6.4V64c0-3.52 2.88-6.4 6.4-6.4h6.4V38.4c0-14.144 11.456-25.6 25.6-25.6s25.6 11.456 25.6 25.6v19.2zm-12.8 0V38.4c0-7.04-5.76-12.8-12.8-12.8s-12.8 5.76-12.8 12.8v19.2h25.6zm-6.4 44.8l-2.304-13.76C71.36 87.104 73.6 83.84 73.6 80c0-5.312-4.288-9.6-9.6-9.6s-9.6 4.288-9.6 9.6c0 3.84 2.24 7.104 5.504 8.64L57.6 102.4h12.8z"/></svg>