<svg width="64" height="64" viewBox="0 0 128 128" xmlns="http://www.w3.org/2000/svg"><path d="M76.8 12.8l25.6 25.6v76.8H25.6V12.8h51.2zm-6.4 25.6V19.2H32v19.2h38.4zM51.2 51.2v-6.4H32v6.4h19.2zm19.2 0v-6.4H57.6v6.4h12.8zm25.6 0v-6.4H76.8v6.4H96zM51.2 64v-6.4H32V64h19.2zm19.2 0v-6.4H57.6V64h12.8zM96 64v-6.4H76.8V64H96zM51.2 76.8v-6.4H32v6.4h19.2zm19.2 0v-6.4H57.6v6.4h12.8zm25.6 0v-6.4H76.8v6.4H96zM51.2 89.6v-6.4H32v6.4h19.2zm19.2 0v-6.4H57.6v6.4h12.8zm25.6 0v-6.4H76.8v6.4H96zm-44.8 12.8V96H32v6.4h19.2zm19.2 0V96H57.6v6.4h12.8z"/></svg>