<svg width="64" height="64" viewBox="0 0 128 128" xmlns="http://www.w3.org/2000/svg"><path d="M76.8 12.8l25.6 25.6v76.8H25.6V12.8h51.2zm0 25.6H96L76.8 19.2v19.2zm6.4 46.464V51.776c0-.704-.256-1.344-.768-1.856-.448-.512-1.024-.704-1.728-.64 0 0-25.408 4.544-27.2 4.992-1.856.384-2.304 2.048-2.304 3.328v21.568c-1.28-.576-2.688-.448-3.84-.448-2.432 0-4.48.832-6.144 2.496-1.664 1.728-2.56 3.712-2.56 6.144 0 2.368.896 4.416 2.56 6.08C42.88 95.168 44.928 96 47.36 96c2.176 0 4.48-.256 6.144-1.664 1.664-1.472 4.096-4.16 4.096-7.168V65.92l19.2-3.84V76.8c-4.288-1.28-7.488.256-9.216 1.984-1.664 1.664-2.496 3.712-2.496 6.08 0 2.432.832 4.416 2.496 6.144 1.728 1.664 4.544 2.496 6.912 2.496 2.432 0 4.48-.832 6.144-2.496 1.664-1.728 2.56-3.712 2.56-6.144z"/></svg>