<svg width="64" height="64" viewBox="0 0 128 128" xmlns="http://www.w3.org/2000/svg"><path d="M116.16 38.016c2.944 10.368 2.432 20.608-.128 28.672-2.688 8.192-8.064 13.952-14.72 15.872-1.024.384-1.664.384-2.56.384-.384.128-.768.128-1.152.128-.384.128-.896.128-1.408.128h-43.52l14.208 35.2c.128.896-.384 1.664-.896 2.176-.512.64-1.536 1.024-2.176 1.024H44.48c-.64 0-1.664-.384-2.176-1.024-.512-.512-1.024-1.28-.896-2.176l-6.4-35.2H27.2l-.128-.128c-3.2.384-6.912-1.152-9.856-3.968s-5.632-6.912-6.784-12.032a25.101 25.101 0 0 1-.128-14.08c1.152-3.968 3.712-6.912 6.784-8.32l.128-.128 57.6-34.56c.64-.384 1.152-.64 1.536-1.024.384-.256.896-.512 1.536-.768 1.024-.512 1.792-.768 3.2-1.152 6.656-1.92 14.336.64 20.608 6.272s11.776 14.336 14.464 24.704zM99.648 76.288h-.128c2.56-.64 4.736-2.176 6.656-4.48 3.712-4.48 5.504-11.264 5.504-19.456 0-4.096-.64-8.32-1.792-12.672-2.176-8.704-6.528-16-11.392-20.736s-10.752-7.04-15.744-5.632c-5.248 1.408-8.96 6.144-10.88 12.8-2.048 6.656-1.792 15.104.384 23.808 2.432 8.704 6.4 16 11.52 20.736 4.992 4.736 10.368 7.04 15.872 5.632zM83.392 30.976c1.408-.256 2.688-.128 3.968.256 2.432 1.024 4.864 3.072 6.528 6.4s2.688 7.68 2.688 11.392c0 1.92-.256 3.584-.768 5.12-1.152 3.072-2.816 5.376-5.504 6.016-2.176.64-5.12-.384-7.296-2.56s-4.096-5.504-4.992-9.6c-1.152-3.968-.768-7.936.128-11.008s3.072-5.376 5.248-6.016z"/></svg>