<svg width="64" height="64" viewBox="0 0 128 128" xmlns="http://www.w3.org/2000/svg"><path d="M76.8 57.6V19.2c0-7.04-5.696-12.8-12.8-12.8-7.168 0-12.8 6.016-12.8 12.8v38.4c0 7.04 5.76 12.8 12.8 12.8 7.232 0 12.8-6.016 12.8-12.8zm25.6 0c0 19.008-13.824 34.752-32 37.824V108.8h12.8c3.584 0 6.4 2.88 6.4 6.4s-2.816 6.4-6.4 6.4H44.8c-3.52 0-6.4-2.88-6.4-6.4s2.88-6.4 6.4-6.4h12.8V95.424c-18.112-3.072-32-18.816-32-37.824 0-3.52 2.88-6.4 6.4-6.4 3.584 0 6.4 2.88 6.4 6.4 0 14.144 11.52 25.6 25.6 25.6 14.144 0 25.6-11.456 25.6-25.6 0-3.52 2.88-6.4 6.4-6.4 3.584 0 6.4 2.88 6.4 6.4z"/></svg>