<svg width="64" height="64" viewBox="0 0 128 128" xmlns="http://www.w3.org/2000/svg"><path d="M0 19.2h128V96h-4.8c0-11.456-9.344-20.8-20.8-20.8-8.384 0-15.488 5.056-18.816 12.224-1.6-.64-3.328-1.024-5.184-1.024-6.272 0-11.52 4.032-13.504 9.6H0V19.2zm53.568 19.904c-.384.96-.64 1.984-.704 3.008s-.064 2.112.064 3.2l.128.512c.064.384.128.896.32 1.472.128.64.384 1.28.64 1.984.192.704.576 1.408.96 2.112.448.768.96 1.408 1.472 1.984s1.152 1.088 1.984 1.472c.768.384 1.6.576 2.56.576.896 0 1.728-.192 2.496-.576s1.408-.896 1.92-1.408c.576-.576 1.024-1.28 1.408-2.048.448-.768.768-1.472 1.024-2.112s.448-1.28.576-1.984c.192-.704.256-1.152.32-1.408s.064-.448.064-.576c.32-1.856.192-3.584-.256-5.248S67.2 36.992 65.92 35.84c-1.344-1.152-3.008-1.728-5.056-1.728-1.216 0-2.304.192-3.328.64-.96.448-1.792 1.024-2.432 1.792-.576.704-1.088 1.6-1.536 2.56zM82.24 77.76v-7.296c0-2.112-.64-4.224-1.856-6.272s-2.88-3.776-4.928-5.056c-2.048-1.344-4.224-1.984-6.528-1.984l-7.936 5.376L52.8 57.28c-2.368 0-4.608.64-6.656 1.92-1.984 1.28-3.584 2.944-4.736 4.928-1.152 2.048-1.728 4.16-1.728 6.336v7.296l1.152.32c.768.256 1.856.512 3.264.896 1.472.32 3.008.64 4.736.96 1.664.32 3.648.576 5.824.832 2.176.192 4.288.32 6.336.32 1.92 0 4.032-.128 6.272-.32 2.176-.256 4.096-.512 5.696-.832 1.6-.256 3.2-.64 4.864-1.024l3.2-.768a9.277 9.277 0 0 0 1.216-.384zm20.16.64c9.728 0 17.6 7.872 17.6 17.6s-7.872 17.6-17.6 17.6c-4.672 0-8.832-1.92-11.968-4.928A14.426 14.426 0 0 0 92.8 100.8c0-4.928-2.496-9.344-6.336-11.904C89.216 82.752 95.232 78.4 102.4 78.4zm-35.2 22.4c0-6.144 5.056-11.2 11.2-11.2s11.2 5.056 11.2 11.2S84.544 112 78.4 112s-11.2-5.056-11.2-11.2z"/></svg>