<svg width="64" height="64" viewBox="0 0 128 128" xmlns="http://www.w3.org/2000/svg"><path d="M76.8 32V12.8c0-3.52-2.88-6.4-6.4-6.4H57.6c-3.52 0-6.4 2.88-6.4 6.4V32c0 3.52 2.88 6.4 6.4 6.4h12.8c3.52 0 6.4-2.88 6.4-6.4zM64 12.8c3.52 0 6.4 2.88 6.4 6.4s-2.88 6.4-6.4 6.4-6.4-2.88-6.4-6.4 2.88-6.4 6.4-6.4zM115.2 96V44.8c0-7.04-5.76-12.8-12.8-12.8H83.2v2.112C83.2 40 78.4 44.8 72.512 44.8H55.488C49.6 44.8 44.8 40 44.8 34.112V32H25.6c-7.04 0-12.8 5.76-12.8 12.8V96c0 7.04 5.76 12.8 12.8 12.8h76.8c7.04 0 12.8-5.76 12.8-12.8zm-6.4-38.4V96H19.2V57.6h89.6zM57.6 70.4c0-3.52-1.408-6.4-3.2-6.4s-3.2 2.88-3.2 6.4 1.408 6.4 3.2 6.4 3.2-2.88 3.2-6.4zm19.2 0c0-3.52-1.408-6.4-3.2-6.4s-3.2 2.88-3.2 6.4 1.408 6.4 3.2 6.4 3.2-2.88 3.2-6.4zm-38.144 7.744C44.544 81.216 53.632 83.2 64 83.2s19.456-1.984 25.344-5.056C88 84.544 77.248 89.6 64 89.6s-24-5.056-25.344-11.456z"/></svg>