<svg width="64" height="64" viewBox="0 0 128 128" xmlns="http://www.w3.org/2000/svg"><path d="M115.2 83.2h6.4c3.52 0 6.4 2.88 6.4 6.464v19.072c0 3.584-2.88 6.464-6.4 6.464H96c-3.52 0-6.4-2.88-6.4-6.464V89.664c0-3.584 2.88-6.464 6.4-6.464h6.4V70.4h-32v12.8h6.4c3.52 0 6.4 2.88 6.4 6.464v19.072c0 3.584-2.88 6.464-6.4 6.464H51.2c-3.52 0-6.4-2.88-6.4-6.464V89.664c0-3.584 2.88-6.464 6.4-6.464h6.4V70.4h-32v12.8H32c3.52 0 6.4 2.88 6.4 6.464v19.072c0 3.584-2.88 6.464-6.4 6.464H6.4c-3.52 0-6.4-2.88-6.4-6.464V89.664C0 86.08 2.88 83.2 6.4 83.2h6.4V70.4c0-7.04 5.76-12.8 12.8-12.8h32V44.8h-6.4c-3.52 0-6.4-2.88-6.4-6.464V19.264c0-3.584 2.88-6.464 6.4-6.464h25.6c3.52 0 6.4 2.88 6.4 6.464v19.072c0 3.584-2.88 6.464-6.4 6.464h-6.4v12.8h32c7.04 0 12.8 5.76 12.8 12.8v12.8z"/></svg>