<svg width="64" height="64" viewBox="0 0 128 128" xmlns="http://www.w3.org/2000/svg"><path d="M54.912 15.296c2.048 0 3.776.32 5.184.896 8 3.52 10.816 14.336 10.88 25.408 3.776-5.248 13.76-14.656 21.824-14.656s18.816 4.672 22.592 22.72c-7.232-4.16-15.488-6.016-23.36-6.016-8.064 0-15.68 2.048-21.056 5.696 2.56-.704 5.504-1.024 8.512-1.024 8.896 0 18.56 2.88 21.76 8.384 4.352 7.424 3.008 21.632-4.864 26.496-.896-13.44-10.816-26.368-22.208-26.368-2.816 0-5.632.768-8.512 2.432C51.2 67.968 44.8 93.184 44.8 121.6h-32c0-35.392 26.944-61.76 49.152-69.056-3.584-.576-7.488-.96-11.648-.96C39.04 51.584 25.92 54.4 12.8 64c4.864-18.944 17.792-26.24 30.016-26.24 8 0 15.68 3.2 20.48 8.256C59.072 31.68 47.36 27.712 37.184 27.712c-5.12 0-9.92 1.024-13.12 2.24 5.824-8.256 21.184-14.656 30.848-14.656zM83.2 73.6c0-5.312-4.288-9.6-9.6-9.6S64 68.288 64 73.6s4.288 9.6 9.6 9.6 9.6-4.288 9.6-9.6z"/></svg>