<svg xmlns="http://www.w3.org/2000/svg" viewBox="0 0 20 20"><path fill="none" d="M0 0h20v20H0z"/><path d="M17.05 2.7c1.93 1.94 1.93 5.13 0 7.07L10 16.84c-1.88 1.89-4.91 1.93-6.86.15-.06-.05-.13-.09-.19-.15-1.93-1.94-1.93-5.12 0-7.07l4.94-4.95c.91-.92 2.28-1.1 3.39-.58.3.15.59.33.83.58a3 3 0 0 1 0 4.24l-4.93 4.95a.996.996 0 1 1-1.41-1.41l4.93-4.95a.996.996 0 0 0 0-1.41.984.984 0 0 0-1.4 0l-4.94 4.95c-.91.92-1.1 2.29-.57 3.4.14.3.32.59.57.84s.54.43.84.57c1.11.53 2.47.35 3.39-.57l7.05-7.07a3.03 3.03 0 0 0 0-4.25c-.56-.55-1.28-.83-2-.86a1.064 1.064 0 0 1-.84-.27c-.39-.4-.38-1.05.02-1.45.16-.16.36-.24.56-.28.14-.02.27-.01.4.02 1.19.06 2.36.52 3.27 1.43z"/></svg>