<svg width="64" height="64" viewBox="0 0 128 128" xmlns="http://www.w3.org/2000/svg"><path d="M109.12 17.28c12.352 12.416 12.352 32.832 0 45.248L64 107.776c-12.032 12.096-31.424 12.352-43.904.96-.384-.32-.832-.576-1.216-.96-12.352-12.416-12.352-32.768 0-45.248l31.616-31.68c5.824-5.888 14.592-7.04 21.696-3.712 1.92.96 3.776 2.112 5.312 3.712 7.488 7.488 7.488 19.648 0 27.136l-31.552 31.68c-2.496 2.496-6.528 2.496-9.024 0s-2.496-6.528 0-9.024L68.48 48.96a6.374 6.374 0 0 0 0-9.024c-2.432-2.496-6.528-2.496-8.96 0l-31.616 31.68c-5.824 5.888-7.04 14.656-3.648 21.76.896 1.92 2.048 3.776 3.648 5.376s3.456 2.752 5.376 3.648c7.104 3.392 15.808 2.24 21.696-3.648l45.12-45.248c7.424-7.488 7.424-19.712 0-27.2-3.584-3.52-8.192-5.312-12.8-5.504a6.168 6.168 0 0 1-1.536 0c-1.408-.192-2.752-.704-3.84-1.728-2.496-2.56-2.432-6.72.128-9.28C83.072 8.768 84.352 8.256 85.632 8a6.844 6.844 0 0 1 2.56.128c7.616.384 15.104 3.328 20.928 9.152z"/></svg>