<svg width="64" height="64" viewBox="0 0 128 128" xmlns="http://www.w3.org/2000/svg"><path d="M24.064 108.864h79.872c7.04-8.832 11.264-19.904 11.264-32.064 0-28.224-22.912-51.2-51.2-51.2S12.8 48.576 12.8 76.8c0 12.16 4.224 23.232 11.264 32.064zM57.6 38.4c0-3.52 2.88-6.4 6.4-6.4s6.4 2.88 6.4 6.4c0 3.584-2.88 6.4-6.4 6.4s-6.4-2.816-6.4-6.4zm-32 12.8c0-3.52 2.88-6.4 6.4-6.4s6.4 2.88 6.4 6.4c0 3.584-2.88 6.4-6.4 6.4s-6.4-2.816-6.4-6.4zm28.928 21.76c5.376-5.312 41.664-22.4 41.664-22.4S79.168 86.912 73.856 92.224a13.597 13.597 0 0 1-19.328 0c-5.312-5.312-5.312-13.952 0-19.264zM19.2 83.2c0-3.52 2.88-6.4 6.4-6.4s6.4 2.88 6.4 6.4c0 3.584-2.88 6.4-6.4 6.4s-6.4-2.816-6.4-6.4zm38.4 0c0-3.52 2.88-6.4 6.4-6.4s6.4 2.88 6.4 6.4c0 3.584-2.88 6.4-6.4 6.4s-6.4-2.816-6.4-6.4zm38.4 0c0-3.52 2.88-6.4 6.4-6.4s6.4 2.88 6.4 6.4c0 3.584-2.88 6.4-6.4 6.4S96 86.784 96 83.2z"/></svg>