<svg width="64" height="64" viewBox="0 0 128 128" xmlns="http://www.w3.org/2000/svg"><path d="M77.184 38.4l-1.344-1.28c-3.328-3.456-2.752-5.056.512-8.32L93.76 11.2c5.184-5.248 6.144-7.744 11.072-3.072l1.344 1.28zm3.392 2.88l28.16-28.16c4.48 6.016 14.976 22.208 9.792 34.176-4.672 10.688-6.976 11.2-12.8 19.2-11.84 13.504-26.752 27.968-38.4 38.848-8.064 5.824-8.384 8.512-19.2 12.8-11.52 4.544-28.16-5.696-34.432-9.984L41.856 80l7.552 10.368c2.176 2.944 7.68-.384 11.52-4.224 6.656-6.72 20.352-20.352 25.6-26.048 3.776-3.776 7.168-9.28 4.224-11.52zM10.048 105.6l-1.344-1.344c-4.352-4.736-1.856-5.76 3.328-10.88l17.536-17.408c3.264-3.136 4.8-3.84 8.128-.704l1.28 1.344z"/></svg>