<svg width="64" height="64" viewBox="0 0 128 128" xmlns="http://www.w3.org/2000/svg"><path d="M108.8 19.2V6.4h-96v12.8h96zm0 25.6V32h-96v12.8h96zM64 70.4V57.6H12.8v12.8H64zm47.68-12.544l-38.4 7.168c-1.024.128-1.216.192-1.856.832-.704.576-1.024 1.408-1.024 2.368V97.6c-1.856-.832-4.224-.896-5.952-.896-3.456 0-6.4 1.216-8.832 3.648s-3.584 5.376-3.584 8.832c0 3.392 1.152 6.336 3.584 8.768s5.376 3.648 8.832 3.648c3.136 0 5.888-1.024 8.256-3.072s3.776-4.544 4.16-7.616v-31.68l31.936-7.104V94.4c-1.856-.832-3.584-1.216-5.312-1.216-3.456 0-7.104 1.216-9.536 3.648-2.432 2.368-3.648 5.312-3.648 8.768s1.216 6.336 3.648 8.768 5.376 3.648 8.832 3.648c3.392 0 6.336-1.216 8.768-3.648s3.648-5.312 3.648-8.768V61.44c0-1.024-.32-1.92-1.024-2.624-.704-.768-1.536-1.088-2.496-.96zM51.2 96V83.2H12.8V96h38.4zm-12.8 25.6v-12.8H12.8v12.8h25.6z"/></svg>