<svg width="64" height="64" viewBox="0 0 128 128" xmlns="http://www.w3.org/2000/svg"><path d="M25.6 32H4.992C2.624 32 .256 34.048.576 37.376l9.984 63.936S22.4 54.208 24.704 42.88c.704-3.392 3.904-4.48 6.272-4.48H64s-4.48-13.312-4.928-14.784C58.304 20.8 56.896 19.2 54.08 19.2H32.896c-2.304 0-4.48 1.472-5.12 4.096C27.2 25.856 25.6 32 25.6 32zm31.232 0h-25.6s2.688-6.4 5.568-6.4h13.632c3.072 0 6.4 6.4 6.4 6.4zm-39.744 72c-1.984 3.008-4.864 4.8-8.064 4.8h100.672c3.456 0 5.888-1.984 6.592-5.312 2.816-14.016 10.752-54.016 10.752-54.016.448-3.2-1.92-4.672-3.968-4.672H102.4v-9.408c0-1.024-1.664-3.392-4.224-3.392H74.112c-3.328 0-5.568 3.712-5.568 3.712L64 44.8H35.776c-2.048 0-4.032 1.216-4.416 3.2 0 0-10.176 42.88-11.008 46.912-.448 2.368-1.408 6.336-3.264 9.088zm81.344-59.2H70.4s3.712-6.4 7.232-6.4h14.656c4.544 0 6.144 6.4 6.144 6.4z"/></svg>