<svg width="64" height="64" viewBox="0 0 128 128" xmlns="http://www.w3.org/2000/svg"><path d="M94.464 6.4c11.456 0 20.736 9.344 20.736 20.8 0 11.392-9.28 20.736-20.736 20.736-1.472 0-3.008-.192-4.48-.512L83.2 54.208V121.6H12.8v-96h61.056c.832-12.8 9.728-19.2 20.608-19.2zm0 35.136c7.936 0 14.336-6.464 14.336-14.336 0-7.936-6.4-14.4-14.336-14.4s-14.336 6.464-14.336 14.4c0 2.368.64 4.608 1.728 6.592L61.248 54.4c-1.792 1.792-11.328 14.208-9.6 15.936.128.192.384.256.64.256 3.136 0 13.696-8.192 15.296-9.792L88.32 40.064c1.856.896 3.904 1.472 6.144 1.472z"/></svg>