<svg width="64" height="64" viewBox="0 0 128 128" xmlns="http://www.w3.org/2000/svg"><path d="M108.8 51.2h6.4v70.4H12.8V51.2h6.4V38.4c0-17.664 14.336-32 32-32 4.544 0 8.896.96 12.8 2.688A31.62 31.62 0 0 1 76.8 6.4c17.664 0 32 14.336 32 32v12.8zM32 38.4v12.8h12.8V38.4c0-7.232 2.496-13.824 6.528-19.2H51.2C40.64 19.2 32 27.84 32 38.4zm64 12.8V38.4c0-10.56-8.64-19.2-19.2-19.2h-.128c4.032 5.376 6.528 11.968 6.528 19.2v12.8H96zM64 24.192c-3.904 3.52-6.4 8.576-6.4 14.208v12.8h12.8V38.4c0-5.632-2.496-10.688-6.4-14.208z"/></svg>