<svg width="64" height="64" viewBox="0 0 128 128" xmlns="http://www.w3.org/2000/svg"><path d="M77.696 26.752c11.968 11.968 13.504 30.4 4.608 44.096.768.64 1.408 1.344 2.304 1.984 1.28 1.024 3.008 2.304 5.184 3.776 2.176 1.536 3.584 2.496 4.224 3.008 2.688 1.984 4.672 3.648 6.016 4.992 2.048 2.048 3.84 4.16 5.376 6.4 1.6 2.24 2.816 4.416 3.776 6.656.896 2.24 1.344 4.352 1.152 6.4-.128 2.048-.896 3.776-2.304 5.184s-3.136 2.176-5.184 2.304c-1.984.128-4.16-.256-6.336-1.216-2.24-.896-4.48-2.176-6.656-3.776-2.24-1.536-4.352-3.328-6.4-5.376-1.344-1.344-3.008-3.328-4.928-5.952-.64-.832-1.6-2.24-3.008-4.224-1.408-2.048-2.56-3.648-3.584-4.992-1.024-1.28-1.856-2.24-2.816-3.2-13.248 6.976-30.016 4.864-41.216-6.272-13.696-13.76-13.696-36.096 0-49.792 13.76-13.76 36.032-13.76 49.792 0zm-9.024 40.704c8.704-8.768 8.704-22.912 0-31.68-8.768-8.768-22.976-8.768-31.68 0-8.768 8.768-8.768 22.912 0 31.68 8.704 8.768 22.912 8.768 31.68 0z"/></svg>