<svg xmlns="http://www.w3.org/2000/svg" viewBox="0 0 20 20"><path fill="none" d="M0 0h20v20H0z"/><path d="M16.22 5.8c.47.69.29 1.62-.4 2.08-.69.47-1.62.29-2.08-.4-.16-.24-.35-.46-.55-.67a4.367 4.367 0 0 0-1.44-.96c-.27-.12-.55-.21-.84-.26-.59-.13-1.23-.13-1.82-.01-.29.06-.57.15-.84.27-.27.11-.53.25-.77.41s-.46.35-.66.55c-.21.21-.4.43-.56.67s-.3.5-.41.76c-.01.02-.01.03-.01.04-.1.24-.17.48-.23.72H1V6h2.66c.04-.07.07-.13.12-.2.27-.4.57-.77.91-1.11s.72-.65 1.11-.91c.4-.27.83-.51 1.28-.7s.93-.34 1.41-.43c.99-.21 2.03-.21 3.02 0 .48.09.96.24 1.41.43s.88.43 1.28.7c.39.26.77.57 1.11.91s.64.71.91 1.11zM12.5 10a2.5 2.5 0 0 0-5 0 2.5 2.5 0 0 0 5 0zm-8.72 4.2a1.497 1.497 0 1 1 2.48-1.68c.16.24.35.46.55.67a4.367 4.367 0 0 0 1.44.96c.27.12.55.2.84.26.59.13 1.23.12 1.82 0 .29-.06.57-.14.84-.26.27-.11.53-.25.77-.41s.46-.35.66-.55c.21-.21.4-.44.56-.67.16-.25.3-.5.41-.76.01-.02.01-.03.01-.04.1-.24.17-.48.23-.72H19v3h-2.66c-.04.06-.07.13-.12.2-.27.4-.57.77-.91 1.11s-.72.65-1.11.91c-.4.27-.83.51-1.28.7s-.93.33-1.41.43c-.99.21-2.03.21-3.02 0-.48-.1-.96-.24-1.41-.43s-.88-.43-1.28-.7c-.39-.26-.77-.57-1.11-.91s-.64-.71-.91-1.11z"/></svg>