<svg width="64" height="64" viewBox="0 0 128 128" xmlns="http://www.w3.org/2000/svg"><path d="M103.808 37.12c3.008 4.416 1.856 10.368-2.56 13.312-4.416 3.008-10.368 1.856-13.312-2.56-1.024-1.536-2.24-2.944-3.52-4.288-1.344-1.28-2.752-2.496-4.288-3.52s-3.2-1.92-4.928-2.624c-1.728-.768-3.52-1.344-5.376-1.664-3.776-.832-7.872-.832-11.648-.064-1.856.384-3.648.96-5.376 1.728-1.728.704-3.392 1.6-4.928 2.624s-2.944 2.24-4.224 3.52c-1.344 1.344-2.56 2.752-3.584 4.288s-1.92 3.2-2.624 4.864c-.064.128-.064.192-.064.256-.64 1.536-1.088 3.072-1.472 4.608H6.4V38.4h17.024c.256-.448.448-.832.768-1.28 1.728-2.56 3.648-4.928 5.824-7.104s4.608-4.16 7.104-5.824c2.56-1.728 5.312-3.264 8.192-4.48s5.952-2.176 9.024-2.752a46.83 46.83 0 0 1 19.328 0c3.072.576 6.144 1.536 9.024 2.752s5.632 2.752 8.192 4.48c2.496 1.664 4.928 3.648 7.104 5.824s4.096 4.544 5.824 7.104zM80 64c0-8.832-7.168-16-16-16s-16 7.168-16 16 7.168 16 16 16 16-7.168 16-16zM24.192 90.88c-3.008-4.416-1.856-10.368 2.56-13.376 4.416-2.944 10.368-1.792 13.312 2.624 1.024 1.536 2.24 2.944 3.52 4.288 1.344 1.28 2.752 2.496 4.288 3.52s3.2 1.92 4.928 2.624c1.728.768 3.52 1.28 5.376 1.664 3.776.832 7.872.768 11.648 0 1.856-.384 3.648-.896 5.376-1.664 1.728-.704 3.392-1.6 4.928-2.624s2.944-2.24 4.224-3.52a31.832 31.832 0 0 0 3.584-4.288c1.024-1.6 1.92-3.2 2.624-4.864.064-.128.064-.192.064-.256.64-1.536 1.088-3.072 1.472-4.608H121.6v19.2h-17.024c-.256.384-.448.832-.768 1.28-1.728 2.56-3.648 4.928-5.824 7.104s-4.608 4.16-7.104 5.824c-2.56 1.728-5.312 3.264-8.192 4.48s-5.952 2.112-9.024 2.752a46.83 46.83 0 0 1-19.328 0c-3.072-.64-6.144-1.536-9.024-2.752s-5.632-2.752-8.192-4.48c-2.496-1.664-4.928-3.648-7.104-5.824s-4.096-4.544-5.824-7.104z"/></svg>