<svg width="64" height="64" viewBox="0 0 128 128" xmlns="http://www.w3.org/2000/svg"><path d="M92.8 76.8c10.624 0 19.2 8.576 19.2 19.2s-8.576 19.2-19.2 19.2-19.2-8.576-19.2-19.2c0-1.536.192-2.944.576-4.416l-28.032-14.72C42.624 80.768 37.632 83.2 32 83.2c-10.624 0-19.2-8.576-19.2-19.2S21.376 44.8 32 44.8c5.632 0 10.624 2.496 14.144 6.336l28.032-14.72A17.065 17.065 0 0 1 73.6 32c0-10.624 8.576-19.2 19.2-19.2S112 21.376 112 32s-8.576 19.2-19.2 19.2c-5.632 0-10.624-2.496-14.144-6.336l-28.032 14.72c.384 1.472.576 2.88.576 4.416s-.192 2.944-.576 4.416l28.032 14.72c3.52-3.904 8.512-6.336 14.144-6.336z"/></svg>