<svg width="64" height="64" viewBox="0 0 128 128" xmlns="http://www.w3.org/2000/svg"><path d="M44.8 33.28c7.04 0 12.8 5.696 12.8 12.8 0 2.368-.704 4.544-1.792 6.4 0 0-4.608-1.28-11.008-1.28s-11.008 1.28-11.008 1.28C32.704 50.624 32 48.448 32 46.08c0-7.104 5.76-12.8 12.8-12.8zm38.4 0c7.104 0 12.8 5.696 12.8 12.8 0 2.368-.704 4.544-1.792 6.4 0 0-4.608-1.28-11.008-1.28s-11.008 1.28-11.008 1.28c-1.088-1.856-1.792-4.032-1.792-6.4 0-7.104 5.696-12.8 12.8-12.8zM64 120.96c23.808 0 44.992-15.104 52.672-37.632l-8.448-2.944C101.76 99.328 83.968 112 64 112S26.24 99.328 19.776 80.384l-8.448 2.944C19.008 105.856 40.192 120.96 64 120.96z"/></svg>