<svg width="64" height="64" viewBox="0 0 128 128" xmlns="http://www.w3.org/2000/svg"><path d="M115.2 64c0-28.288-22.912-51.2-51.2-51.2S12.8 35.712 12.8 64s22.912 51.2 51.2 51.2 51.2-22.912 51.2-51.2zM46.272 22.848l9.536 23.872a18.995 18.995 0 0 0-9.088 9.088l-23.872-9.536a45.035 45.035 0 0 1 23.424-23.424zm58.88 23.424L81.28 55.808a18.995 18.995 0 0 0-9.088-9.088l9.536-23.872a45.035 45.035 0 0 1 23.424 23.424zM64 76.8c-7.04 0-12.8-5.76-12.8-12.8S56.96 51.2 64 51.2 76.8 56.96 76.8 64 71.04 76.8 64 76.8zm-41.152 4.928l23.872-9.536a18.995 18.995 0 0 0 9.088 9.088l-9.536 23.872a45.035 45.035 0 0 1-23.424-23.424zm58.88 23.424L72.192 81.28a18.995 18.995 0 0 0 9.088-9.088l23.872 9.536a45.035 45.035 0 0 1-23.424 23.424z"/></svg>