<svg width="64" height="64" viewBox="0 0 128 128" xmlns="http://www.w3.org/2000/svg"><path d="M6.4 64c2.624 1.856 6.144 2.752 9.6 2.752 3.52 0 6.976-.896 9.6-2.752 3.968-2.944 6.4-7.488 6.4-12.8 0 5.312 2.368 9.856 6.4 12.8 2.624 1.856 6.144 2.752 9.6 2.752 3.52 0 6.976-.896 9.6-2.752 3.968-2.944 6.4-7.488 6.4-12.8 0 5.312 2.368 9.856 6.4 12.8 2.624 1.856 6.144 2.752 9.664 2.752 3.456 0 6.912-.896 9.536-2.752 3.968-2.944 6.4-7.488 6.4-12.8 0 5.312 2.368 9.856 6.4 12.8 2.624 1.856 6.144 2.752 9.6 2.752 3.52 0 6.976-.896 9.6-2.752 4.032-2.944 6.4-7.488 6.4-12.8v-6.4L108.8 0H25.6L0 44.8v6.4c0 5.312 2.368 9.856 6.4 12.8zm12.8 57.536h32v-32h25.6v32h32v-44.8c-2.368-.32-4.608-1.408-6.4-2.752C98.368 71.104 96 69.312 96 64c0 5.312-2.432 7.104-6.4 9.984-2.624 1.92-6.08 2.752-9.536 2.816-3.52 0-7.04-.896-9.664-2.816C66.368 71.104 64 69.312 64 64c0 5.312-2.432 7.104-6.4 9.984-2.624 1.92-6.08 2.752-9.6 2.816-3.456 0-6.976-.896-9.6-2.816-4.032-2.88-6.4-4.672-6.4-10.048 0 5.376-2.432 7.168-6.4 10.048-1.856 1.344-4.032 2.432-6.4 2.816v44.736z"/></svg>