<svg width="64" height="64" viewBox="0 0 128 128" xmlns="http://www.w3.org/2000/svg"><path d="M40.96 63.872l8.192-8.192v-1.638L40.96 45.85v18.022zm40.96-9.805l8.192-8.192v17.613l-8.192-8.192v-1.229zm49.152 60.621V0H0v114.688h131.072zm-8.192-16.384H90.112V91.75l-1.638 1.639-6.554-6.554v11.469H49.152V86.835l-6.554 6.554-1.638-1.639v6.554H8.192V8.192H40.96v15.155l4.506-4.505 3.686 3.686V7.782H81.92v14.746l6.144-6.144 2.048 2.048V7.782h32.768v90.522zM86.016 84.787l-20.07-20.07-20.89 20.89-9.83-9.831 20.89-20.89-20.071-20.07 9.83-9.83 20.07 20.07 20.48-20.48 9.831 9.83-20.48 20.48 20.07 20.07-9.83 9.831z"/></svg>