<svg width="64" height="64" viewBox="0 0 128 128" xmlns="http://www.w3.org/2000/svg"><path d="M128 34.432l-6.464 18.048v-.064c-6.656-2.368-14.016 1.152-16.448 7.808-2.368 6.656 1.088 14.016 7.808 16.384v.064l-6.464 18.048-96.384-34.432 6.336-17.856c6.656 2.432 14.016-1.088 16.384-7.744s-1.088-13.952-7.744-16.32L31.552 0zM93.12 56c4.736-13.312-2.176-27.968-15.488-32.768-13.312-4.736-27.968 2.24-32.704 15.488-4.736 13.312 2.176 28.032 15.488 32.768C73.664 76.224 88.384 69.248 93.12 56zM76.736 25.664c5.696 2.048 10.048 6.016 12.608 10.944-.064-.064-.128-.064-.256-.128-2.112-.768-4.288.576-4.992 2.56-.64 1.792-.192 3.648.32 5.824.256 1.728.576 3.968-.384 6.656-.64 1.856-2.112 3.712-4.16 6.4l-4.736 6.464.512-26.112 2.56.704c1.216.256 1.664-1.536.512-1.856 0 0-3.648-.96-5.888-1.792-2.176-.768-5.632-2.304-5.632-2.304-1.152-.512-1.92 1.216-.768 1.728 0 0 1.024.512 2.176 1.024l.064 10.432-9.792 12.544.512-26.304c1.28.384 2.56.704 2.56.704 1.216.256 1.664-1.472.448-1.856 0 0-3.584-.96-5.824-1.792-.448-.128-.896-.32-1.408-.512 5.952-4.48 14.016-6.016 21.568-3.328zM47.36 39.616a21.981 21.981 0 0 1 4.992-8.128l.256 32a22.919 22.919 0 0 1-5.248-23.872zm25.856 30.4l13.44-16.832c2.368-2.624 3.648-4.928 4.416-7.168.32-.768.512-1.536.704-2.24.576 3.648.256 7.552-1.088 11.328-2.88 8-9.664 13.44-17.472 14.912zm-4.48-20.608l.128 20.608c0 .128 0 .256.064.384-2.56 0-5.12-.448-7.68-1.344a22.575 22.575 0 0 1-5.76-3.072zm7.936 38.912l13.44 4.8c1.536 5.376 6.4 9.28 12.224 9.28h.064v19.2H0v-18.944c7.04 0 12.8-5.696 12.8-12.8 0-7.04-5.76-12.8-12.8-12.8V57.6h6.72l-1.792 5.12 27.392 9.728c-4.16 4.544-6.72 10.56-6.72 17.152 0 14.144 11.456 25.6 25.6 25.6s25.6-11.456 25.6-25.6c0-.448-.128-.832-.128-1.28zM34.88 73.408l9.472 3.392c-.896.256-.96 1.728.192 1.792 0 0 1.152.128 2.368.192l3.584 9.856-4.992 15.104-8.384-24.96a57.474 57.474 0 0 0 2.624-.192c1.216-.128 1.088-1.984-.128-1.92 0 0-3.776.32-6.144.32-.448 0-.96 0-1.472-.064a21.626 21.626 0 0 1 2.88-3.52zM28.16 89.6c0-3.328.768-6.528 2.048-9.344l10.944 30.08C33.472 106.56 28.16 98.688 28.16 89.6zm26.816-9.024l11.008 3.968c.448 1.088.768 2.368.768 3.904 0 1.984-.768 4.224-1.792 7.424l-2.24 7.68zM74.24 89.6a22.967 22.967 0 0 1-11.456 19.904l7.04-20.352c.384-1.088.64-1.984.896-2.944l3.328 1.216c.128.704.192 1.408.192 2.176zm-29.568 22.08l6.912-20.096 7.104 19.392c.064.128.064.256.128.32-2.368.832-4.928 1.344-7.616 1.344-2.24 0-4.416-.384-6.528-.96z"/></svg>