<svg width="64" height="64" viewBox="0 0 128 128" xmlns="http://www.w3.org/2000/svg"><path d="M128 40.832l-6.464 18.048v-.064c-3.328-1.216-6.592-1.024-9.792.512s-5.44 3.968-6.656 7.296-1.024 6.592.448 9.792c1.536 3.2 3.968 5.376 7.36 6.592v.064l-6.464 18.048-96.384-34.432 6.336-17.856c3.328 1.216 6.592 1.024 9.792-.512 3.2-1.472 5.376-3.904 6.592-7.232s1.024-6.592-.512-9.792c-1.472-3.136-3.904-5.312-7.232-6.528L31.552 6.4zM96.192 77.248l8.768-24.064c.768-1.984.64-4.16-.256-6.08s-2.496-3.392-4.48-4.16L52.096 25.472C48 24 43.328 26.24 41.856 30.208l-8.768 24.064c-1.536 4.16.64 8.768 4.736 10.24l48.128 17.536c.896.32 1.792.512 2.752.512 3.328 0 6.4-2.112 7.488-5.312zM51.008 28.48l48.064 17.472c1.216.448 2.176 1.344 2.752 2.496a4.799 4.799 0 0 1 .128 3.648L93.184 76.16c-.832 2.432-3.712 3.776-6.144 2.88L38.976 61.504c-2.496-.896-3.776-3.648-2.88-6.144l8.768-24.064c.64-1.856 2.496-3.136 4.48-3.136.576 0 1.088.128 1.664.32zm43.648 77.696c2.24 1.728 4.8 2.624 7.68 2.624h.064V128H0v-18.944c3.52 0 6.592-1.28 9.024-3.776 2.496-2.432 3.776-5.504 3.776-9.024s-1.28-6.528-3.776-9.024S3.52 83.456 0 83.456V64h6.72l-1.792 5.12 18.368 6.528C20.032 76.672 17.6 79.616 17.6 83.2v25.6c0 4.416 3.584 8 8 8h51.2c4.416 0 8-3.584 8-8V97.6l5.312 1.92c.768 2.752 2.304 4.992 4.544 6.656zM20.8 108.8V83.2c0-2.624 2.176-4.8 4.8-4.8h5.312L81.6 96.512V108.8c0 2.624-2.176 4.8-4.8 4.8H25.6c-2.624 0-4.8-2.176-4.8-4.8z"/></svg>