<svg width="64" height="64" viewBox="0 0 128 128" xmlns="http://www.w3.org/2000/svg"><path d="M121.216 28.544c-3.136 4.672-7.104 8.832-11.712 12.16.064.96.064 1.984.064 3.008 0 31.04-23.616 66.816-66.752 66.816-13.248 0-25.6-3.904-36.032-10.56 1.856.192 3.712.32 5.632.32a47.055 47.055 0 0 0 29.12-10.048c-10.24-.192-18.88-6.976-21.888-16.32 1.408.256 2.88.448 4.416.448 2.112 0 4.224-.32 6.144-.832-10.688-2.176-18.816-11.648-18.816-23.04v-.256c3.2 1.728 6.784 2.816 10.624 2.944C15.744 48.96 11.584 41.792 11.584 33.6c0-4.288 1.152-8.32 3.2-11.776 11.584 14.208 28.864 23.552 48.384 24.512-.384-1.728-.64-3.52-.64-5.376 0-12.928 10.56-23.424 23.488-23.424 6.784 0 12.864 2.816 17.152 7.424 5.312-1.088 10.368-3.008 14.912-5.696-1.792 5.44-5.504 10.048-10.368 12.928 4.8-.512 9.28-1.792 13.504-3.648z"/></svg>