<svg width="64" height="64" viewBox="0 0 128 128" xmlns="http://www.w3.org/2000/svg"><path d="M121.6 64c0-31.808-25.792-57.6-57.6-57.6S6.4 32.192 6.4 64s25.792 57.6 57.6 57.6 57.6-25.792 57.6-57.6zM64 16.64c5.312 0 9.6 4.288 9.6 9.6s-4.288 9.664-9.6 9.664c-5.248 0-9.6-4.352-9.6-9.664s4.352-9.6 9.6-9.6zM21.76 47.104c0-4.16 42.24-4.864 42.24-4.864s42.24.704 42.24 4.864-28.608 8.96-28.608 8.96 10.816 52.096 6.784 53.632C80.448 111.232 64 76.48 64 76.48s-16.384 34.752-20.352 33.216c-4.032-1.536 6.784-53.632 6.784-53.632s-28.672-4.8-28.672-8.96z"/></svg>