<svg width="64" height="64" viewBox="0 0 128 128" xmlns="http://www.w3.org/2000/svg"><path d="M65.28 20.992c22.592 0 41.152 16.704 44.288 38.4h13.312l-22.4 25.6-22.4-25.6h14.848c-2.88-12.608-14.144-22.08-27.648-22.08-9.28 0-17.472 4.544-22.656 11.392L31.68 36.224c8.192-9.344 20.224-15.232 33.6-15.232zm-2.56 86.016c-22.528 0-41.152-16.704-44.288-38.4H5.12l22.4-25.6c7.488 8.512 14.912 17.088 22.4 25.6H35.072c2.88 12.608 14.144 22.08 27.648 22.08 9.28 0 17.472-4.544 22.656-11.392l10.944 12.48c-8.192 9.344-20.16 15.232-33.6 15.232z"/></svg>