<svg width="64" height="64" viewBox="0 0 128 128" xmlns="http://www.w3.org/2000/svg"><path d="M115.2 108.8V19.2c0-3.52-2.88-6.4-6.4-6.4H19.2c-3.52 0-6.4 2.88-6.4 6.4v89.6c0 3.52 2.88 6.4 6.4 6.4h89.6c3.52 0 6.4-2.88 6.4-6.4zm-6.4 0H19.2V19.2h89.6v89.6zM30.4 25.6h67.2c2.624 0 4.8 2.176 4.8 4.8v8H96v19.2h6.4v12.8H96v19.2h6.4v8c0 2.624-2.176 4.8-4.8 4.8H30.4c-2.624 0-4.8-2.176-4.8-4.8V30.4c0-2.624 2.176-4.8 4.8-4.8zM83.2 64c0-14.144-11.456-25.6-25.6-25.6S32 49.856 32 64s11.456 25.6 25.6 25.6S83.2 78.144 83.2 64zM57.6 44.8l4.928 7.36C67.136 54.144 70.4 58.688 70.4 64c0 7.04-5.76 12.8-12.8 12.8S44.8 71.04 44.8 64c0-5.312 3.264-9.856 7.872-11.84z"/></svg>