<svg width="64" height="64" viewBox="0 0 128 128" xmlns="http://www.w3.org/2000/svg"><path d="M126.08 60.16C113.28 38.4 89.6 24.96 64 24.96S14.72 38.4 1.92 60.16L0 64l1.92 3.84c12.8 21.76 36.48 35.2 62.08 35.2s49.28-13.44 62.08-35.2L128 64l-1.92-3.84zM64 90.24C44.16 90.24 25.6 80 14.72 64c8.32-12.8 21.76-21.76 36.48-24.96-5.76 3.84-9.6 10.88-9.6 18.56C41.6 69.76 51.84 80 64 80s22.4-10.24 22.4-22.4c0-7.68-3.84-14.72-9.6-18.56 14.72 3.2 28.16 12.16 36.48 24.96C102.4 80 83.84 90.24 64 90.24z"/></svg>