<svg width="64" height="64" viewBox="0 0 128 128" xmlns="http://www.w3.org/2000/svg"><path d="M121.6 102.4V19.2c0-3.52-2.88-6.4-6.4-6.4h-96c-3.52 0-6.4 2.88-6.4 6.4v83.2c0 3.52 2.88 6.4 6.4 6.4h96c3.52 0 6.4-2.88 6.4-6.4zm-96-76.8h83.2v25.6H25.6V25.6zM32 32v12.8h19.2V32H32zm25.6 0v12.8h19.2V32H57.6zm25.6 0v12.8h19.2V32H83.2zM28.8 64c1.792 0 3.2 1.408 3.2 3.2s-1.408 3.2-3.2 3.2-3.2-1.408-3.2-3.2 1.408-3.2 3.2-3.2zm9.6 0H64v6.4H38.4V64zm38.4 0h32v32h-32V64zm-48 12.8c1.792 0 3.2 1.408 3.2 3.2s-1.408 3.2-3.2 3.2-3.2-1.408-3.2-3.2 1.408-3.2 3.2-3.2zm9.6 0H64v6.4H38.4v-6.4zm44.8 0v12.8h19.2V76.8H83.2zM28.8 89.6c1.792 0 3.2 1.408 3.2 3.2S30.592 96 28.8 96s-3.2-1.408-3.2-3.2 1.408-3.2 3.2-3.2zm9.6 0H64V96H38.4v-6.4z"/></svg>