<svg width="64" height="64" viewBox="0 0 128 128" xmlns="http://www.w3.org/2000/svg"><path d="M115.2 89.6v-64c0-3.52-2.88-6.4-6.4-6.4H19.2c-3.52 0-6.4 2.88-6.4 6.4v64c0 3.52 2.88 6.4 6.4 6.4h89.6c3.52 0 6.4-2.88 6.4-6.4zM64 38.4c14.72 0 28.16 7.296 38.4 19.2C92.16 69.504 78.72 76.8 64 76.8s-28.16-7.296-38.4-19.2C35.84 45.696 49.28 38.4 64 38.4zm12.8 19.2c0-7.04-5.76-12.8-12.8-12.8s-12.8 5.76-12.8 12.8S56.96 70.4 64 70.4s12.8-5.76 12.8-12.8zm12.8 51.2h19.2v6.4H19.2v-6.4h19.2v-6.4h51.2v6.4z"/></svg>