<svg width="64" height="64" viewBox="0 0 128 128" xmlns="http://www.w3.org/2000/svg"><path d="M128 64c0-35.328-28.672-64-64-64S0 28.672 0 64s28.672 64 64 64 64-28.672 64-64zM64 6.464c31.808 0 57.536 25.728 57.536 57.536S95.808 121.536 64 121.536 6.464 95.808 6.464 64 32.192 6.464 64 6.464zM51.264 94.848l-19.52-52.544c3.136-.192 6.72-.512 6.72-.512 2.752-.32 2.432-6.464-.384-6.336 0 0-8.256.64-13.632.64-.96 0-2.112 0-3.328-.064 9.216-13.888 24.96-23.04 42.88-23.04 13.376 0 25.536 5.056 34.624 13.376-3.84-.512-9.28 2.24-9.28 9.088 0 4.224 2.432 7.808 5.056 12.032 1.984 3.456 3.2 7.808 3.2 14.144 0 8.576-8.128 28.672-8.128 28.672l-17.344-48c3.072-.192 4.8-1.024 4.8-1.024 2.752-.32 2.432-7.04-.32-6.912 0 0-8.32.704-13.696.704-4.992 0-13.504-.704-13.504-.704-2.752-.128-3.072 6.784-.32 6.912l5.376.512 7.168 19.456zm38.528 13.76L106.496 64s4.288-10.816 2.496-24.384c4.032 7.296 6.016 15.488 6.016 24.384 0 18.944-9.984 35.712-25.216 44.608zm-72.64-65.28L41.6 110.4C24.512 102.08 12.992 84.288 12.992 64c0-7.424 1.28-14.272 4.16-20.672zm47.68 28.992l14.656 40A45.785 45.785 0 0 1 64 115.008c-4.608 0-9.024-.704-13.184-1.92z"/></svg>