<svg width="64" height="64" viewBox="0 0 128 128" xmlns="http://www.w3.org/2000/svg"><path d="M128 64c0-35.264-28.736-64-64-64C28.672 0 0 28.736 0 64c0 35.328 28.672 64 64 64 35.264 0 64-28.672 64-64zM49.792 98.368l-21.824-58.56c3.52-.128 7.488-.512 7.488-.512 3.2-.384 2.816-7.232-.384-7.104 0 0-9.28.704-15.168.704-1.152 0-2.368 0-3.712-.064C26.368 17.216 43.968 7.104 64 7.104c14.912 0 28.48 5.568 38.72 14.976-4.352-.704-10.56 2.496-10.56 10.112 0 4.736 2.88 8.704 5.76 13.44 2.24 3.904 3.52 8.704 3.52 15.744 0 9.536-8.96 32-8.96 32L73.088 39.808c3.456-.128 5.248-1.088 5.248-1.088 3.2-.32 2.816-8-.384-7.808 0 0-9.216.768-15.232.768-5.568 0-14.912-.768-14.912-.768-3.2-.192-3.584 7.68-.384 7.808l5.888.512 8.064 21.824zM111.424 64c1.536-4.096 4.736-11.968 2.752-27.2 4.48 8.256 6.72 17.344 6.72 27.2 0 21.056-11.072 39.936-28.16 49.792 6.208-16.576 12.416-33.28 18.688-49.792zM39.04 115.776C19.968 106.56 7.104 86.592 7.104 64c0-8.32 1.472-15.872 4.608-22.976C20.8 65.92 29.888 90.88 39.04 115.776zm25.792-42.432l16.512 44.672c-5.504 1.856-11.264 2.88-17.344 2.88-5.056 0-10.048-.704-14.656-2.112 5.184-15.232 10.368-30.336 15.488-45.44z"/></svg>