<svg width="64" height="64" viewBox="0 0 128 128" xmlns="http://www.w3.org/2000/svg"><path d="M64 128C28.652 128 0 99.348 0 64S28.652 0 64 0s64 28.652 64 64-28.652 64-64 64zm0-18.968c24.872 0 45.032-20.16 45.032-45.032 0-24.872-20.16-45.032-45.032-45.032-24.872 0-45.032 20.16-45.032 45.032 0 24.872 20.16 45.032 45.032 45.032zm0-2.648c-23.408 0-42.384-18.976-42.384-42.384S40.592 21.616 64 21.616 106.384 40.592 106.384 64 87.408 106.384 64 106.384zm-7.64-9.856c.992-.408 4.872-3.4 8.62-6.62a206.74 206.74 0 0013.392-12.452c4.104-4.104 5.628-5.868 5.88-6.78.888-3.204-8.82-38.424-10.796-39.18-1.204-.464-11.972 8.492-21.508 17.868-5.592 5.496-7.14 7.324-7.26 8.52-.08.924.24 3.24.836 5.984 2.372 10.888 6.688 25.932 8.872 30.872.916 2.096 1.02 2.188 1.96 1.788z"/></svg>