<svg width="64" height="64" viewBox="0 0 128 128" xmlns="http://www.w3.org/2000/svg"><path d="M64 128C28.652 128 0 99.348 0 64S28.652 0 64 0s64 28.652 64 64-28.652 64-64 64zm-2.948-28.576v5.852H64V96.52h-5.852v2.904h2.904zm-29.348-32.12H28.8v14.608h2.904V76.06h2.948v-5.852h-2.948v-2.904zm35.244 17.512v8.756h2.904v-8.756h-2.904zM64 93.572v2.948h2.948v-2.948H64zm-29.348-2.904v8.756h8.8v-8.756h-8.8zM28.8 61.452v2.904h2.948v-2.904H28.8zM46.4 55.6v2.948h2.948V55.6H46.4zM64 52.652v5.852h2.948v-5.852H64zm-38.148-8.756v8.756h8.8v-8.756h-8.8zm26.4 55.528v5.852H55.2v-5.852h-2.948zM55.2 52.652h-2.904v5.852H55.2V55.6h2.948v-5.852H55.2v2.904zm2.948-5.808v2.904h2.904v-2.904h-2.904zm0 8.756v2.904h2.904V55.6h-2.904zm-14.696 5.852v2.904h8.8v-2.904h-8.8zM55.2 49.748v-2.904h2.904v-2.948H55.2v-5.808h-8.8v2.904h5.852v2.904h-2.948V46.8H46.4v2.904h-2.904v-2.86h-2.992V43.94h2.948v2.86H46.4v-2.904h-2.904v-5.808H20v20.46h23.496V55.6H46.4v-5.852h2.948v2.904h2.948v-2.904H55.2zM37.6 55.6H22.948V40.992H37.6V55.6zm2.904 0v-5.852h2.948V55.6h-2.948zm11.748-8.8v-2.86H55.2v2.86h-2.948zm23.496 32.164V76.06h-5.896v-5.852h-2.904v2.904h-2.904v-2.904h2.904v-8.8h-5.852v2.948h-2.992v5.852H55.2v2.904h2.948v-2.904h2.904v8.756H55.2V76.06h-2.948v-5.852h-2.904v-2.904h-5.896V64.4h-2.948v-2.904h-5.852V64.4h-2.948v2.904h2.948v2.904H37.6v-2.904h2.948v2.904H37.6v2.904h2.948v2.904h2.904v-2.904H46.4v-2.904h2.904v2.904H46.4v2.904h-2.904v5.852h5.852v2.948h-5.896v-2.904h-2.948v2.904h-5.852v-2.904h-2.904v2.904H28.8v20.46h20.548V87.72h2.904v8.8h5.896v-2.904h2.948V87.72h-2.948v-2.904H55.2v2.904h-2.904v-5.852h8.8v2.904h2.948v-5.808h5.808v2.948H72.8v-2.948h2.948zM46.4 102.328H31.748V87.72H46.4v14.608zm2.948-23.364H46.4V76.06h2.948v2.904zM55.2 90.668h2.948v2.904H55.2v-2.904zm20.548-52.58v5.808h2.904v-5.808h-2.904zm-5.896 0h-2.904v8.756H64v2.904h2.948v2.904h2.904v5.852H72.8v-5.852h2.948v5.896h2.904V55.6H81.6v-5.852h-5.852v-5.852h-5.896v-5.808zm26.4 32.12H90.4v2.904h-2.948v2.948h-2.904v-8.756h2.904v-2.948h-2.904v2.904H81.6v2.948h-2.948v-5.852h-2.904v5.852H72.8v2.948l2.948-.044h2.904v5.852h8.8v2.948h-8.8v2.904h-2.904v2.904H72.8v2.948h2.948v2.904H72.8v2.948h2.948v2.904h2.904v2.904h-2.904v2.948H99.2V87.72h-2.948v14.608H81.6V87.72h8.8V76.06h2.948v2.904H99.2v-5.808h-2.904v-2.948H99.2v-8.756h-2.948v8.756zM72.8 81.912v2.904h2.948v-2.904H72.8zm14.652-14.608v2.904H90.4v-2.904h-2.948zm5.896 14.608v2.948H99.2v-2.948h-5.852zm0-37.972v8.756h8.8V43.94h-8.8zM81.6 55.6v2.948h2.948V55.6H81.6zm-11.748 5.852v2.904H72.8v-2.904h-2.948zm20.548 0v2.904h2.948v-2.904H90.4zm-5.852 29.216v8.756h8.8v-8.756h-8.8zM81.6 61.452v2.904h2.948v-2.904H81.6zM61.052 43.896v2.948H64v-2.948h-2.948zM81.6 38.088v2.904h5.852v2.904h-2.948V46.8H81.6v-2.904h-2.948v2.948H81.6v2.86h2.948v2.904h2.948v5.852H108V38.088H81.6zM105.052 55.6H90.4V40.992h14.652V55.6zM39.404 32.94c2.024 1.364 4.312 1.628 6.116 1.716 1.54.088 4.136.088 6.864.088 5.06 0 11 .088 11.616.088 1.628.044 6.6.044 11 .044 2.728 0 5.28-.044 6.864-.088 1.804-.088 4.092-.396 6.116-1.716 2.552-1.716 3.828-4.532 3.828-8.36 0-3.08-1.276-4.928-2.332-5.984-2.86-2.772-7.26-2.596-8.712-2.552h-.176c-.88 0-4.048.484-7.788 2.596-3.3 1.848-6.16 4.488-8.492 7.788l-.264.66-.22-.352c-2.464-3.696-5.676-6.204-9.24-8.228-3.696-2.112-6.864-2.552-7.744-2.552h-.176c-1.452-.044-5.852-.22-8.712 2.552-1.936 1.848-2.332 4.268-2.332 5.984-.044 3.784 1.232 6.6 3.784 8.316zm35.552-9.856c3.124-1.804 5.5-2.068 5.676-2.068h.308c2.508-.088 4.268.308 5.192 1.188.572.572.88 1.364.88 2.508 0 4.18-1.98 5.104-5.368 5.28-2.86.132-9.504.088-13.816.044a20.672 20.672 0 0 1 7.128-6.952zm-33.704-1.012c.836-.792 2.332-1.188 4.488-1.188h1.056c.176 0 2.552.264 5.676 2.068 2.816 1.628 5.236 3.96 7.172 6.952-4.356.044-11 .088-13.86-.044-3.388-.176-5.368-1.1-5.368-5.28 0-1.144.264-1.936.836-2.508zm28.6 77.352h-2.904v5.852h2.948v-5.852H72.8V96.52h-2.948v2.904z"/></svg>