<svg width="64" height="64" viewBox="0 0 128 128" xmlns="http://www.w3.org/2000/svg"><path d="M64 128C28.652 128 0 99.348 0 64S28.652 0 64 0s64 28.652 64 64-28.652 64-64 64zM26 41.948v44.104L64 108l38-21.948V41.948L64 20 26 41.948zm3.648 39.88V46.176L52.62 59.468l-7.732 13.54-15.24 8.82zm1.828 3.164l14.656-8.48 16.152 9.252v17.024L31.476 84.992zM98.352 46.3v35.4L83.312 73l-7.728-13.528L98.352 46.3zm-1.72-3.232l-22.86 13.228-7.84-13.724V25.336l30.7 17.732zm-24.188 18.22l4.612 8.092-9.3-5.38 4.688-2.712zm-1.812-3.176l-4.7 2.72v-10.96l4.7 8.24zm-19.456 11.26l4.604-8.08L60.46 64l-9.28 5.372zm-1.384 5.024l12.492-7.228v14.38L49.792 74.4zm-18.32-31.388l30.812-17.796v17.336l-7.848 13.744-22.96-13.284zm65.16 41.924l-30.7 17.732V85.88l16.16-9.36 14.54 8.412zM78.44 74.404l-12.508 7.252V67.168l12.508 7.24zM57.592 58.12l4.692-8.228v10.94l-4.692-2.712z"/></svg>