<svg width="64" height="64" viewBox="0 0 128 128" xmlns="http://www.w3.org/2000/svg"><path d="M64 128C28.652 128 0 99.348 0 64S28.652 0 64 0s64 28.652 64 64-28.652 64-64 64zM17.624 86.844A22.1 22.1 0 0 0 16 89.936c0 .144.576.144 1.18.144 1.36-.12 2.692-.412 3.976-.872l1.764-.44a30.72 30.72 0 0 0 5.3-2.952l3.236-2.648c1.568-1.272 3-2.704 4.272-4.272l3.532-5.012c2.508-3.38 5.3-5 8.544-4.856a12 12 0 0 0 5.3-1.468l9.128-5.888a21.76 21.76 0 0 0 2.652-1.92 12.48 12.48 0 0 0-1.624-2.944l-1.764-2.94c-1.912-3.092-1.912-3.244-.144-6.48l.144-.44A24.88 24.88 0 0 0 62.976 44a17.656 17.656 0 0 0-.6-4.312 8.544 8.544 0 0 0-1.168 1.92c-1.624 3.38-2.652 5.3-2.804 5.3-.44 0-.144-4.128.74-6.624l3.972-12.48c1.028-3.684 1.18-3.684 2.208 0L71.2 46.208c.748 2.504 1.344 2.948 3.84 2.948h4.12c3.232-.156 5.288 1.324 6.92 4.856.888 1.56 1.98 3 3.244 4.272l20.468 21.236A13.48 13.48 0 0 0 112 81.688v-.144c-.504-.9-1.04-1.784-1.612-2.648L95.22 57.104a40.54 40.54 0 0 0-3.84-4.712l-4.704-5a7.412 7.412 0 0 0-5.012-2.212h-1.172c-3.684 0-7.22-2.648-8.688-6.336l-6.48-16.052A7.928 7.928 0 0 0 63.856 20a11.455 11.455 0 0 0-1.92 2.648L46.94 45.624a2.812 2.812 0 0 1-3.972 1.168h-.156c-1.488-.88-2.956-.44-3.84 1.184L17.624 86.84z"/></svg>