<svg width="64" height="64" viewBox="0 0 128 128" xmlns="http://www.w3.org/2000/svg"><path d="M64 128C28.652 128 0 99.348 0 64S28.652 0 64 0s64 28.652 64 64-28.652 64-64 64zM62.9 24.24c-1.56.608-1.96 2.828-.744 3.952 1.148 1.172 3.388.76 3.98-.772 1.02-1.884-1.32-4.168-3.24-3.184zm-20.62 2.184c-1.62.424-1.8 2.936-.228 3.536 1.188.64 2.872-.356 2.748-1.708.12-1.252-1.356-2.3-2.52-1.828zm42.232 3.572c1.24.312 2.16-.68 2.448-1.76-.2-1.268-1.448-2.488-2.804-1.84-1.752.568-1.464 3.384.356 3.6zm-37.54 5.06c-1.824.92-2.076 3.656-.42 4.848 1.712 1.52 4.744.216 4.844-2.028.3-2.228-2.48-4.032-4.424-2.82zm29.72 1.288c-1.084 2.144 1.104 4.6 3.412 4.176 1.74-.568 2.944-2.636 1.964-4.304-.988-2.144-4.508-2.076-5.376.128zm-16.276 4.052c-.104 1.544 1.02 2.808 2.352 3.452.872.052 1.82.216 2.62-.224 1.752-.76 2.616-3.048 1.644-4.712-.52-1.2-1.84-1.712-3.052-1.952-1.832.132-3.584 1.54-3.564 3.436zm-30.664 2.76c-1.552.7-1.768 3.064-.4 4.048 1.288 1.048 3.536.38 3.904-1.264.676-1.9-1.724-3.864-3.504-2.788zm65.848-.008c-1.552.936-1.38 3.432.268 4.16 1.496.88 3.652-.408 3.548-2.116.18-1.872-2.308-3.196-3.816-2.04zm-26.56 3.404c-3.104.928-4.944 4.632-3.68 7.592 1.112 3.308 5.508 4.844 8.52 3.032 2.9-1.532 3.896-5.6 2.024-8.268-1.416-2.184-4.376-3.24-6.864-2.356zm-14.612.292c-2.94 1.292-4.292 5.104-2.768 7.912 1.36 2.9 5.32 4.092 8.128 2.52 2.804-1.396 4.016-5.16 2.448-7.864-1.332-2.776-5.048-3.852-7.808-2.568zM39.8 51.76c-.404 2.056 1.46 4.144 3.592 3.96 1.936.012 3.348-1.744 3.468-3.54a3.912 3.912 0 0 0-3.48-3.428c-1.692.12-3.368 1.26-3.58 3.008zm43.208-2.624c-2.348 1.088-2.52 4.688-.26 5.968 2.176 1.536 5.536-.308 5.388-2.928.096-2.472-2.94-4.292-5.128-3.04zm-34.52 9.228c-3.472.824-5.504 5.024-3.832 8.156 1.46 3.416 6.504 4.424 9.24 1.92 2.136-1.708 2.696-4.944 1.324-7.272-1.256-2.312-4.18-3.496-6.736-2.804zm27.708-.012c-3.496.94-5.344 5.3-3.508 8.384 1.52 2.984 5.788 3.984 8.544 2.08 2.628-1.644 3.472-5.448 1.704-7.996-1.336-2.228-4.256-3.168-6.74-2.468zm-44.16 2.904c-2.12.592-2.748 3.616-1.048 4.972 1.452 1.448 4.264.72 4.812-1.24.892-2.156-1.556-4.552-3.764-3.732zm59.876 3.128c.368.84.812 1.72 1.68 2.152 1.856 1.004 4.476-.448 4.336-2.588.12-1.624-1.352-2.824-2.864-3.06a3.344 3.344 0 0 0-3.152 3.496zM21.176 62.32c-1.1.492-1.576 1.96-.776 2.916.904 1.372 3.372.74 3.44-.904.308-1.452-1.336-2.584-2.664-2.012zm83.796-.036c-1.56.82-.948 3.648.94 3.48 1.344.2 2.496-1.412 1.868-2.588-.372-1.076-1.872-1.544-2.808-.892zm-49.268 7.892c-2.616.56-4.632 3.004-4.624 5.636-.092 2.748 2.08 5.372 4.848 5.812 3.58.824 7.28-2.348 7.052-5.928-.02-3.544-3.78-6.412-7.28-5.52zm13.848-.004c-2.104.512-3.888 2.22-4.352 4.32-.92 3.148 1.512 6.712 4.812 7.132 3.504.696 7.092-2.372 6.904-5.884.056-3.624-3.816-6.544-7.36-5.568zm-26.704 2.18c-2.652.264-4.052 3.772-2.18 5.688 1.6 2 5.216 1.336 5.944-1.112.996-2.292-1.308-4.988-3.76-4.576zm40.616.108c-2.644.828-3.088 4.8-.66 6.144 2.14 1.504 5.46-.272 5.372-2.844.168-2.34-2.52-4.2-4.712-3.3zm11.352 11.2c.58 1.592 3 1.972 4.068.64.788-.716.592-1.828.476-2.76-.564-.576-1.184-1.26-2.068-1.244-1.776-.292-3.332 1.792-2.476 3.364zm-65.072-2.928c-1.58.792-1.636 3.268-.108 4.136 1.424.96 3.584-.004 3.78-1.692.376-1.908-2.012-3.528-3.672-2.44zm32.772 3.532c-2.616.828-3.008 4.772-.652 6.112 2.124 1.56 5.548-.24 5.384-2.84.208-2.352-2.56-4.212-4.732-3.272zM47.34 87.748c-1.304.48-1.836 1.896-1.86 3.164.448 1.164 1.352 2.392 2.74 2.42 1.68.248 3.336-1.176 3.28-2.848.168-2.04-2.312-3.692-4.16-2.736zm30.744.032c-1.856.932-2.064 3.748-.352 4.92 1.772 1.496 4.828.04 4.78-2.24.18-2.176-2.524-3.84-4.428-2.68zm5.348 13c.868 1.464 3.4.944 3.564-.76.232-1.264-.936-2.08-2.04-2.3-1.376.288-2.372 1.804-1.524 3.064zm-42.444-1.092c.12 1.436 1.712 2.68 3.08 1.772 1.524-.8 1.008-3.38-.732-3.5-1.196-.26-2.012.732-2.348 1.728zm20.48 1.148c-.612 1.492.852 3.296 2.472 3.108.872.02 1.548-.592 2.072-1.2.1-.412.204-.828.32-1.24-.216-.792-.464-1.72-1.312-2.08-1.28-.784-3.22-.064-3.556 1.412z"/></svg>