<svg width="64" height="64" viewBox="0 0 128 128" xmlns="http://www.w3.org/2000/svg"><path d="M64 128C28.652 128 0 99.348 0 64S28.652 0 64 0s64 28.652 64 64-28.652 64-64 64zM39.008 44c-9.892.696-18.364 8.912-19.008 18.484v3.14c.68 9.592 9.268 17.712 19.148 18.376h3.212c7.84-.688 14.432-5.66 19.184-11.448-1.16-1.7-2.332-3.396-3.536-5.064-3.056 4.512-7.04 8.768-12.408 10.64-4.832 1.752-10.44.628-14.46-2.384-5.368-3.8-7.32-11.172-4.92-17.116 2.728-7.216 11.88-11.464 19.372-8.748 6.06 2.204 9.8 7.66 13.464 12.512 4.256 5.488 7.776 11.652 13.26 16.144C76.092 81.744 80.94 83.6 85.928 84h2.984c8.104-.72 15.516-6.136 18.06-13.668a241.548 241.548 0 0 0-5.556.024c-3.632 7.416-13.972 11.004-21.364 6.616-10.228-6.068-14.644-17.576-22.68-25.728-3.872-3.96-9.096-6.708-14.748-7.244h-3.616zm46.72 0c-7.896.732-14.44 5.812-19.132 11.684a204.24 204.24 0 0 0 3.38 4.828c2.972-4.3 6.828-8.324 11.948-10.16 6.424-2.44 14.46-.14 18.26 5.48 1.56 2.152 2.16 4.756 2.616 7.3-6.496.04-12.988 0-19.492.016.008 1.44.008 2.868 0 4.308 8.228-.008 16.464.04 24.692-.036V62.5c-.82-9.588-9.3-17.872-19.272-18.5h-3z"/></svg>