<svg width="64" height="64" viewBox="0 0 128 128" xmlns="http://www.w3.org/2000/svg"><path d="M64 128C28.652 128 0 99.348 0 64S28.652 0 64 0s64 28.652 64 64-28.652 64-64 64zm43.86-69.16c-1.312-11.856-22.04-19.192-46.28-16.38-24.24 2.808-42.824 14.7-41.512 26.56 1.316 11.856 22.028 19.188 46.28 16.38 24.26-2.812 42.828-14.704 41.512-26.56zM82.5 64.776c-2.456 1.752-6.036 2.616-10.736 2.636l-4.564.016-.14.652a1.736 1.736 0 0 0-.068.44c-.02.092-.02.18-.02.252 0 1.008.468 1.748 1.384 2.24.92.516 2.28.76 4.064.76 1.692 0 3.32-.192 4.856-.544a19.635 19.635 0 0 0 4.392-1.592l-1.16 6.22c-1.744.424-3.42.76-5.08.972a35.228 35.228 0 0 1-4.824.356c-2.212 0-4.044-.268-5.516-.832-1.52-.584-3.216-1.856-4.06-3.676a18.564 18.564 0 0 1-5.36 3.568 14.736 14.736 0 0 1-5.812 1.184c-2.52.02-4.512-.6-5.928-1.82-1.436-1.216-2.144-2.916-2.16-5.052-.02-3.288 1.208-5.78 3.648-7.512 2.452-1.748 6.032-2.612 10.736-2.632l4.56-.016.14-.656a1.736 1.736 0 0 0 .072-.44c.016-.088.016-.176.016-.248 0-1.008-.468-1.748-1.384-2.244-.916-.512-2.28-.76-4.064-.76-1.692 0-3.32.196-4.856.548-1.52.352-2.992.88-4.392 1.592l1.16-6.22c1.744-.424 3.42-.76 5.08-.972a35.228 35.228 0 0 1 4.824-.356c2.216 0 4.048.268 5.52.832 1.52.584 3.212 1.856 4.06 3.676a18.564 18.564 0 0 1 5.36-3.572 14.736 14.736 0 0 1 5.808-1.184c2.524-.016 4.512.6 5.928 1.82 1.44 1.22 2.144 2.92 2.16 5.056.02 3.268-1.188 5.776-3.644 7.508zm-26.504.512c-1.988 0-3.492.336-4.532.972-1 .62-1.504 1.56-1.504 2.792 0 .92.312 1.664.9 2.192.604.532 1.452.796 2.508.796 1.64 0 3.008-.512 4.096-1.52 1.092-1.024 1.832-2.456 2.2-4.292l.168-.94h-3.84zm21.056-8.676c-.604-.528-1.452-.792-2.504-.792-1.644 0-3.012.512-4.1 1.52-1.088 1.024-1.832 2.456-2.196 4.292l-.172.936 3.84-.016c1.988 0 3.492-.336 4.528-.972 1-.62 1.504-1.556 1.504-2.792 0-.92-.292-1.644-.9-2.176zm-10.96 30.2c-3.508.408-6.984.6-10.356.6-8.024 0-15.524-1.128-21.768-3.34a35.24 35.24 0 0 1-7.36-3.532c-.852 4.472-.28 8.412 1.916 11.344 6.308 8.428 23.96 5.744 41.424-5.6-1.28.192-2.56.368-3.856.528zm-4.096-45.588c11.84-1.38 23.252-.408 32.12 2.736a35.24 35.24 0 0 1 7.368 3.536c.844-4.472.276-8.412-1.92-11.344-6.312-8.428-23.96-5.744-41.424 5.6a70.795 70.795 0 0 1 3.856-.528zm-12.88 55.84a36.376 36.376 0 0 1-7.04.968c1.784 4.72 4.568 8.024 8.248 9.26 8.888 2.988 20.384-6.8 28.528-23.008A87.918 87.918 0 0 1 72.94 85.7c-7.956 5.62-16.252 9.596-23.824 11.36zm30.392-66.216a36.176 36.176 0 0 1 7.04-.936c-1.768-4.72-4.532-8.04-8.216-9.292-8.868-3.024-20.416 6.712-28.612 22.864a77.673 77.673 0 0 1 5.928-1.376c7.956-5.6 16.272-9.528 23.86-11.26z"/></svg>