<svg width="64" height="64" viewBox="0 0 128 128" xmlns="http://www.w3.org/2000/svg"><path d="M64 128C28.652 128 0 99.348 0 64S28.652 0 64 0s64 28.652 64 64-28.652 64-64 64zm4.576-102.304A43.942 43.942 0 0174 32a20.188 20.188 0 01-.5 21.092A2.508 2.508 0 0073.752 56c.856 1.16 2.496 1.48 3.748.728 4.752-3.88 5-12.12 5.252-13.82A17.988 17.988 0 0082 37.82a25.852 25.852 0 00-2-4.608 14.836 14.836 0 00-3-3.88 22.52 22.52 0 00-7.5-5.088 1.156 1.156 0 00-1.252 0 1.12 1.12 0 00.328 1.452zM61.2 100.024a43.305 43.305 0 01-5.5-6.304 20.188 20.188 0 01.5-21.088 2.156 2.156 0 000-2.912 2.856 2.856 0 00-3.752-.728c-4.748 3.88-5 12.12-5.248 13.82 0 1.72.256 3.44.752 5.092a25.368 25.368 0 002 4.604 14.761 14.761 0 003 3.88 22.52 22.52 0 007.5 5.092c.248.24.748 0 1-.24s.248-.732-.252-1.216zm21.576-20a21.892 21.892 0 00-5.252-12.604 43.264 43.264 0 00-10.5-7.76 57.864 57.864 0 01-9.5-6.568 16.128 16.128 0 01-4.748-8.484A16.972 16.972 0 0154 34.688a26.768 26.768 0 017.024-8.968 1.04 1.04 0 00.252-1.212.968.968 0 00-1.5-.24 22.308 22.308 0 00-9.752 8.24A20.04 20.04 0 0046.5 45.6a21 21 0 001.752 6.788 24 24 0 004 5.82A43.12 43.12 0 0063 65.72a53.151 53.151 0 019.5 6.304 14.412 14.412 0 014.752 8.728c.704 3.516.264 7.16-1.252 10.424a24.52 24.52 0 01-7.252 8.728.828.828 0 00-.252 1.212c.14.256.4.44.692.484s.596-.04.812-.24a31.204 31.204 0 009.5-8.488 20.695 20.695 0 003.276-12.848zm-14.2-54.328a1.12 1.12 0 01-.324-1.452 1.156 1.156 0 011.248 0 22.52 22.52 0 017.5 5.088 14.846 14.846 0 013 3.88 25.976 25.976 0 012 4.608 17.99 17.99 0 01.752 5.088c-.252 1.7-.5 9.94-5.252 13.82A2.856 2.856 0 0173.748 56a2.508 2.508 0 01-.248-2.908A20.188 20.188 0 0074 32a43.942 43.942 0 00-5.424-6.304zM61.2 100.024c.5.484.5.968.252 1.212s-.752.484-1 .24a22.52 22.52 0 01-7.5-5.088 14.836 14.836 0 01-3-3.88 25.852 25.852 0 01-2-4.604 17.928 17.928 0 01-.752-5.092c.252-1.696.5-9.94 5.252-13.82a2.856 2.856 0 013.748.728 2.156 2.156 0 010 2.912 20.188 20.188 0 00-.5 21.088 43.336 43.336 0 005.5 6.304z"/></svg>