<svg width="64" height="64" viewBox="0 0 128 128" xmlns="http://www.w3.org/2000/svg"><path d="M64 128C28.652 128 0 99.348 0 64S28.652 0 64 0s64 28.652 64 64-28.652 64-64 64zm15.02-58.664C88.004 55.26 95 32 95 32l-14.98 3.396-5.484 19.4c-.516-14.544-10.488-19.868-10.488-19.868-7.988-3.892-15.108-2.18-20.24.496-6.352 3.304-10.972 9.064-13.184 15.696-3.144 9.436-2.76 20.024-2.344 24.816.168 2.248.664 4.46 1.48 6.572 5.512 14.292 20.78 13.48 20.78 13.48 13.988-.496 22.488-16.968 22.488-16.968l4.008 12.112c3.592 6.076 11.548 3.8 13.184 3.46.288-.064.544-.096.836-.16L100 93.068v-3.892c-19.472.528-20.98-19.836-20.98-19.836zM60.064 83.972a9.476 9.476 0 0 1-4.392 2.552c-3.628.904-6.416-.62-8.34-2.488a15.748 15.748 0 0 1-4.236-7.912c-3.528-19.96 1.348-28.708 4.588-32.728a9.032 9.032 0 0 1 7.472-3.456c12.576.656 15.4 26.968 15.4 26.968-3.56 9.34-8.148 14.76-10.492 17.064z"/></svg>