<svg width="64" height="64" viewBox="0 0 128 128" xmlns="http://www.w3.org/2000/svg"><path d="M64 0c35.348 0 64 28.652 64 64s-28.652 64-64 64S0 99.348 0 64 28.652 0 64 0zm12.372 28h-9.6l-.224.336-8.984 15.552-9.208 15.944-9.148 15.888L30 91.664h11l9.212-15.944 9.204-15.888 9.152-15.944 1.52-2.528.668 2.528 2.808 10.496-3.144 5.448-9.204 15.888-9.152 15.944h11l9.208-15.944 4.772-8.252 2.248 8.252 4.264 15.944h9.88L89.172 75.72l-4.268-15.888-1.12-4.1 6.848-11.844H80.64l-.34-1.18-3.48-13.024L76.372 28z"/></svg>