<svg width="64" height="64" viewBox="0 0 128 128" xmlns="http://www.w3.org/2000/svg"><path d="M64 128C28.652 128 0 99.348 0 64S28.652 0 64 0s64 28.652 64 64-28.652 64-64 64zM33.212 47.828c-3.708 0-6.04 1.784-6.984 5.348a9.378 9.378 0 0 0 .164 3.328A8.898 8.898 0 0 0 27.7 59.56c.62.908 1.42 1.62 2.4 2.128.984.508 2.168.728 3.548.656a14.28 14.28 0 0 1 10.04 4.472 13.68 13.68 0 0 1 4.148 10.04c0 2.04.708 3.768 2.128 5.188 1.42 1.416 3.148 2.128 5.184 2.128 1.96 0 3.656-.712 5.072-2.128 1.42-1.42 2.128-3.148 2.128-5.184 0-1.892-.672-3.548-2.016-4.968a6.84 6.84 0 0 0-4.856-2.24c-3.856.076-7.348-1.272-10.48-4.036-2.836-2.76-4.328-6.22-4.472-10.368-.144-4 1.272-7.492 4.256-10.48 2.984-2.98 6.548-4.4 10.696-4.252a6.84 6.84 0 0 0 4.856-2.24 7.12 7.12 0 0 0 2.016-5.072c0-1.964-.708-3.656-2.128-5.076A6.928 6.928 0 0 0 55.148 26c-2.04 0-3.764.708-5.184 2.128a6.928 6.928 0 0 0-2.128 5.076c0 3.856-1.384 7.276-4.148 10.26-2.84 2.836-6.184 4.292-10.04 4.364h-.436zm.1 21.828c-2.04 0-3.764.712-5.184 2.128A6.928 6.928 0 0 0 26 76.86c0 2.112.744 3.876 2.24 5.292 1.488 1.42 3.288 2.092 5.4 2.02a14.28 14.28 0 0 1 10.04 4.476c2.76 2.764 4.144 6.148 4.144 10.148 0 1.964.692 3.656 2.076 5.076 1.38 1.42 3.056 2.128 5.02 2.128h.216c1.964 0 3.656-.708 5.076-2.128 1.42-1.42 2.128-3.112 2.128-5.076 0-4 1.38-7.384 4.148-10.148 2.688-2.84 6.072-4.332 10.148-4.476h.328c3.636 0 5.96-1.82 6.984-5.456.508-2.184.072-4.256-1.312-6.22-1.38-2.04-3.384-2.984-6-2.84-3.928-.072-7.312-1.528-10.148-4.364-2.684-2.896-4.068-6.204-4.144-9.92l.004-.34c0-3.932 1.384-7.28 4.148-10.04a14.28 14.28 0 0 1 10.04-4.48c4.148-.068 7.676 1.348 10.584 4.26 2.984 3.056 4.44 6.584 4.368 10.584.072 1.968.816 3.62 2.236 4.968a7.12 7.12 0 0 0 5.072 2.02c1.968 0 3.656-.712 5.08-2.128 1.416-1.42 2.124-3.148 2.124-5.184 0-2.04-.76-3.768-2.292-5.184-1.528-1.42-3.272-2.092-5.24-2.02-3.924-.072-7.308-1.528-10.148-4.364-2.76-2.984-4.144-6.404-4.144-10.26v-.872c0-.076-.04-.148-.112-.22v-.328c0-.072-.036-.144-.108-.216v-.328l-.108-.112v-.216l-.056-.056c-.036-.036-.052-.088-.052-.16v-.112c-.076 0-.112-.072-.112-.22l-.108-.108-.056-.056c-.036-.036-.052-.088-.052-.16v-.112c-.072 0-.112-.036-.112-.108l-.052-.056c-.04-.036-.056-.088-.056-.16h-.108v-.112l-.108-.108v-.224l-.112-.108-.108-.108-.056-.056c-.036-.036-.052-.092-.052-.16l-.108-.112c-.076 0-.112-.04-.112-.108l-.052-.056c-.04-.04-.056-.092-.056-.164h-.108v-.108c-.076 0-.112-.04-.112-.108l-.108-.112c-.072 0-.144-.036-.216-.108l-.112-.108h-.108v-.112c-.072 0-.108-.036-.108-.108-.148 0-.22-.04-.22-.108h-.108v-.112l-.112-.108c-.144 0-.216-.036-.216-.108h-.108l-.112-.108c-.072 0-.124-.02-.16-.056a18.46 18.46 0 0 0-.056-.056l-.108-.108h-.112v-.108h-.216l-.112-.112c-.072 0-.144-.036-.216-.108h-.22l-.108-.108h-.22l-.108-.108h-.216c-.076 0-.128-.02-.164-.056l-.056-.056h-.216c-.076 0-.128-.016-.164-.052l-.056-.056h-2.292c0 .072-.036.108-.108.108h-.328l-.108.112H74.9l-.108.108h-.22l-.108.108h-.22v.108h-.216l-.112.112h-.108v.108h-.22l-.108.108h-.108c0 .076-.04.112-.108.112-.076 0-.112.036-.112.108h-.108l-.108.108-.112.108c-.072 0-.108.04-.108.112H72.5v.108l-.112.108c-.072 0-.108.04-.108.112h-.22l-.108.108c0 .072-.036.108-.108.108v.112h-.108v.108l-.112.108c-.072 0-.108.04-.108.108l-.108.112-.112.108c-1.088 1.308-1.636 2.764-1.636 4.364.072 4.076-1.38 7.604-4.364 10.588-2.8 2.796-6.072 4.216-9.828 4.264a8.22 8.22 0 0 0-.572 0l-.184-.008c-.16.012-.32.028-.48.052a6.984 6.984 0 0 0-4.28 2.08 6.928 6.928 0 0 0-2.128 5.072c0 1.964.676 3.656 2.02 5.076a6.84 6.84 0 0 0 5.208 2.236h.096c3.816.032 7.16 1.416 10.028 4.148a13.832 13.832 0 0 1 4.476 10.152c.072 4.072-1.348 7.564-4.256 10.476-2.84 2.908-6.22 4.364-10.148 4.364h-.328c-4 0-7.424-1.456-10.26-4.364-2.84-2.984-4.22-6.476-4.144-10.48a7.028 7.028 0 0 0-2.24-4.908 6.892 6.892 0 0 0-4.964-2.076z"/></svg>