<svg width="64" height="64" viewBox="0 0 128 128" xmlns="http://www.w3.org/2000/svg"><path d="M64 0c35.348 0 64 28.652 64 64s-28.652 64-64 64S0 99.348 0 64 28.652 0 64 0zm2.332 25c-1.128.292-2.216.6-3.32.908-.068.16-.136.316-.196.472a1666.612 1666.612 0 01-9.148 23.24l-9.836 24.368-2.88 7.08a33.655 33.655 0 01-1.624 3.412 14.384 14.384 0 01-1.512 2.28 7.6 7.6 0 01-3.164 2.272 13.304 13.304 0 01-.764.264c-.944.28-1.9.504-2.868.668a5.8 5.8 0 00-.984.2c-.052.944-.048 1.892.008 2.836v-.004h22.764a2.252 2.252 0 00.24-.04.772.772 0 00.032-.144V90.34a.864.864 0 00-.044-.192l-.188-.032c-.872-.136-1.748-.256-2.616-.412a13.892 13.892 0 01-2.32-.584 5.16 5.16 0 01-1.32-.668 2.668 2.668 0 01-1.108-1.864 5.888 5.888 0 01.052-1.708 14.4 14.4 0 01.596-2.492c.692-2.12 1.4-4.248 2.14-6.36 1.84-5.264 3.816-10.484 5.788-15.704 2.676-7.052 5.36-14.1 7.88-21.2a.984.984 0 01.096-.236c.04-.044.108-.068.16-.1.16.14.18.316.236.472a6058.131 6058.131 0 0015.64 43.28c.268.736.548 1.472.748 2.228.136.484.224.98.272 1.48.084 1.104-.32 1.968-1.324 2.52-.184.108-.376.2-.576.28-.4.144-.8.288-1.212.4a26.156 26.156 0 01-3.104.596 3.82 3.82 0 00-.64.12.536.536 0 00-.036.108v2.556a.64.64 0 00.056.172h25.452c.08-.008.16-.024.264-.04.02-.312.028-.62.016-.932 0-.32.012-.66 0-.96-.008-.304.056-.608-.048-.924l-.72-.104a24.824 24.824 0 01-3.02-.588 7.548 7.548 0 01-4.468-3.16 20 20 0 01-.936-1.552 31.94 31.94 0 01-1.716-3.832 1612.84 1612.84 0 01-3.676-9.648 3560.692 3560.692 0 01-13.092-35.416l-3.8-10.404c-.052-.144-.116-.28-.18-.44z"/></svg>