<svg width="64" height="64" viewBox="0 0 128 128" xmlns="http://www.w3.org/2000/svg"><path d="M64 128C28.652 128 0 99.348 0 64S28.652 0 64 0s64 28.652 64 64-28.652 64-64 64zm31.088-40.468l-7.892-21.236h4.712a3.396 3.396 0 0 0 3.4-3.344c0-.84-.344-1.652-.948-2.244s-1.432-.932-2.292-.932h-7.36l-1.18-3.304h8.38a3.356 3.356 0 0 0 3.384-3.228c.004-.888-.352-1.736-.992-2.36s-1.504-.976-2.408-.972h-10.88L75.12 34.04a14.304 14.304 0 0 0-4.228-5.844 9.996 9.996 0 0 0-6.652-2.192 10.28 10.28 0 0 0-6.684 2.192 14.436 14.436 0 0 0-4.24 5.84l-6.172 16.016H36.328a3.24 3.24 0 0 0-3.268 3.188c0 1.832 1.516 3.316 3.388 3.316h8.212l-1.264 3.216h-7.36a3.236 3.236 0 0 0-3.272 3.2c0 1.816 1.496 3.284 3.344 3.292h4.724l-8.024 21.264A10.888 10.888 0 0 0 32 91.292a6.877 6.877 0 0 0 2.24 4.76 8.16 8.16 0 0 0 5.36 1.932 7.2 7.2 0 0 0 7.36-5.22l3.104-9.076H78.64l3.108 9.292a7.252 7.252 0 0 0 7.36 4.96c1.24.028 2.46-.28 3.536-.88.932-.68 1.76-1.48 2.456-2.392a6.4 6.4 0 0 0 .9-3.376 21.784 21.784 0 0 0-.912-3.708zM54.64 69.544l9.54-28.448 9.72 28.448z"/></svg>