<svg width="64" height="64" viewBox="0 0 128 128" xmlns="http://www.w3.org/2000/svg"><path d="M64 0c35.348 0 64 28.652 64 64s-28.652 64-64 64S0 99.348 0 64 28.652 0 64 0zM31.9 93.9a47.936 47.936 0 007.72 6.56c.72.472 1.48.94 2.308 1.408a46.814 46.814 0 006.276 3.032c.54.216 1.08.432 1.696.648a44 44 0 0013.128 2.308v-7.104l-15.564-3.428zm64.02.144c-10.1 2.236-20.2 4.472-30.296 6.672v7.104l1.42-.076a43.732 43.732 0 0028.876-13.7zM88.488 80.88c-1.516.288-2.776.54-3.64.72-.04 0-.076 0-.112.036-1.332.288-2.596.54-3.82.76-.688.14-1.336.212-1.948.32-.144.04-.324.04-.54.076 0 0-.436.072-1.012.108a5.04 5.04 0 01-1.12-.04 1.04 1.04 0 01-.54-.18c-.18-.108-.288-.252-.396-.36l-4.436 7.792-4.436 7.788c9.016-1.98 18-4 27.012-5.984a9.252 9.252 0 01-.576-.796c-.252-.36-.468-.792-.72-1.26a14.948 14.948 0 01-.648-1.336l-.02-.048a39.16 39.16 0 01-1.208-2.8c-.108-.252-.18-.468-.288-.684a94.792 94.792 0 01-1.552-4.112zm-48.616 0c-.252.72-.504 1.404-.792 2.128a33.576 33.576 0 01-.796 2.02c-.252.648-.504 1.26-.756 1.872a36.988 36.988 0 01-.76 1.66 26.64 26.64 0 01-1.404 2.6 3.428 3.428 0 01-.54.756L61.8 97.864l-.02-.032-4.544-7.792-.828-1.424-3.588-6.152-.144.144-.108.088-.108.06c-.324.18-.94.216-1.88.144a35.2 35.2 0 01-2.304-.328c-.324-.036-.612-.108-.904-.144-.288-.072-.612-.108-.9-.18a45.46 45.46 0 01-1.912-.396l-.972-.216-1.3-.28a120.008 120.008 0 00-2.416-.48zm51.5-35.128H36.628l-.216.444c-.16.284-.36.54-.58.78l28.348 49.88 28.24-49.664-.332-.312a3.328 3.328 0 01-.716-1.128zM23.788 76.588l-.94 2.704.608 1.54a43.617 43.617 0 005.74 9.892c.94.216 1.84.4 2.776.612a5.2 5.2 0 01.148-1.368c.144-.688.32-1.408.54-2.24l.216-.864.336-1.176c.24-.8.492-1.624.78-2.464.108-.324.216-.616.288-.904.184-.576.36-1.152.544-1.692a6.04 6.04 0 01.252-.76c-.976-.216-2.128-.504-3.356-.76a75.22 75.22 0 01-3.604-.9c-.868-.252-1.66-.468-2.344-.72-.252-.072-.472-.18-.688-.252a7.94 7.94 0 01-.756-.324 3.56 3.56 0 01-.54-.324zm81.22-.508c-.328.436-.868.76-1.696 1.084a38.088 38.088 0 01-3.032.972c-.216.072-.432.108-.612.184l-.54.144-.76.192-.756.168a11.272 11.272 0 01-.9.216l-.552.132c-.784.188-1.736.392-2.8.624a65.194 65.194 0 001.08 3.392c.396 1.26.792 2.488 1.12 3.64.104.36.176.688.284 1.048.184.54.328 1.08.436 1.732.036.108.036.216.072.32.144.58.18 1.012.144 1.336 0 0 1.512-.288 2.272-.468a43.876 43.876 0 006.888-12.8zm-42.16 2.24c.496 0 .9.4.9.9 0 .54-.4.936-.904.936l-.24-.032a.896.896 0 01-.66-.888c0-.516.404-.92.9-.92zm-18.612-11.4a7.42 7.42 0 00-.252 1.048c-.072.36-.18.76-.288 1.188l-.216.868-.256.88c-.176.588-.36 1.2-.576 1.824a37.86 37.86 0 00-.612 1.876c-.216.612-.4 1.224-.612 1.8.972.256 1.912.472 2.74.688.432.108.828.216 1.228.288.396.108.756.18 1.116.288.18.04.36.072.504.144l.508.108c.32.072.612.144.9.252.576.148 1.12.292 1.552.436.432.108.792.252 1.12.36zm39.888.072l-6.78 11.904.04-.04.3-.104a10.4 10.4 0 01.708-.216c.936-.292 2.088-.58 3.496-.94s3.068-.76 5.012-1.26c-.396-1.192-.828-2.416-1.224-3.68a48.172 48.172 0 01-1.08-3.572 20.64 20.64 0 01-.472-2.092zM33.6 48.272L24.688 73.92l.292-.04c.2-.02.404-.036.648-.036.828 0 1.8.04 2.92.148a43.69 43.69 0 013.788.54c1.404.252 2.848.504 4.328.828.396-1.12.792-2.308 1.224-3.604a80.8 80.8 0 011.984-5.232 24.76 24.76 0 01.648-1.368c.144-.328.288-.58.436-.796a3.52 3.52 0 01.396-.504 1.096 1.096 0 01.252-.18 1.016 1.016 0 01.54-.144L33.6 48.276zm61.456-.284h-.144l-8.76 15.4.08.016.132.02c.04 0 .04 0 .072.036.04 0 .04 0 .072.036.04 0 .04.036.072.036.04 0 .04 0 .072.036a1.184 1.184 0 01.288.216c.144.144.256.288.292.324.036.04.036.072.072.108a3.172 3.172 0 01.216.36c.18.324.288.504.288.504a26.68 26.68 0 011.296 2.96c.436 1.152.904 2.38 1.336 3.68.108.288.18.54.288.828.252.76.576 1.696.94 2.776 1.512-.288 2.956-.576 4.36-.828a46.443 46.443 0 013.824-.54c1.156-.112 2.128-.184 2.96-.148.468 0 .828.04 1.152.112.072 0 .18.036.252.036-.684-1.912-1.404-4.04-2.236-6.312l-6.92-19.656zm-68.92-6.096a43.616 43.616 0 00-5.988 20.412v3.032l.084 1.684a43.648 43.648 0 001.32 8.124c3.212-9.304 6.46-18.572 9.668-27.88a3.624 3.624 0 01-1.008-1.188 3.34 3.34 0 01-.4-1.588v-.252l.012-.048a1.52 1.52 0 00.024-.204zm76.024.36c-1.332.76-2.632 1.48-3.964 2.24 0 .104 0 .212-.04.32-.032.216-.072.4-.108.58-.036.108-.072.18-.108.288a3.732 3.732 0 01-.396.756c-.072.072-.108.144-.18.216 3.14 9.052 6.276 18.068 9.412 27.12.184-.756.328-1.548.472-2.308 0-.072.036-.144.036-.252a12.32 12.32 0 00.108-.76c.036-.14.036-.248.072-.392.036-.36.108-.688.144-1.08l.052-.548.056-.572c0-.108.036-.216.036-.324 0-.216.036-.4.036-.616.072-1.12.108-2.16.108-3.136a43.872 43.872 0 00-4.4-18.936l-.108-.216-.236-.468-.232-.468-.216-.432-.272-.508zM55.24 69.444c.504 0 .9.4.9.904s-.396.9-.9.9a.892.892 0 01-.9-.9l.032-.24.032-.1a.9.9 0 01.836-.56zm11.128-17.2c.464-.48 1.532-1.212 3.336-.544l4.108 1.48 1.948.684c0 .04 1.156.472 2.056-.288l2.092-1.404s1.12-.904 2.308-.292c.02 0 .04.012.064.056.008-.016.008.02.044.056.216 1.296-.972 2.128-.972 2.128l-1.948 1.548-.288.236a2.284 2.284 0 00-.612 1.48v.16L78.788 64v.548c-.14 2.22-1.916 2.624-1.948 2.624h-.04l-.032-.036c-.024 0-.032-.012-.04-.036 0 0-.032-.036-.032-.072a525.01 525.01 0 00-1.192-7.32l-.036-.18c-.024-.104-.072-.324-.168-.48a.484.484 0 00-.12-.096c-.324-.18-.792.144-1.12.32l-.244.16c-.568.356-1.184.748-4.12 2.8-.14.108-.288.216-.432.36a1.296 1.296 0 00-.288.436c0 .036-.036.072-.036.108-.072.144-.144.288-.072.972 0 .18 0 .504-.144.828a.56.56 0 01-.216.292c-.036.036-.108.072-.144.144-.072.072-.18.108-.288.18h-.108l-.02-.028c-.052-.044-.052-.08-.052-.12v-.432a2.744 2.744 0 00-.108-.756 2.084 2.084 0 00-.18-.504l-.288-.4-.328-.468a3.82 3.82 0 00-.576-.624l-.1-.08-.072-.052.056.044-.064-.04a4.112 4.112 0 00-.684-.364.52.52 0 00-.252-.072c-.072-.04-.108-.04-.18-.04l-.052-.02c-.04-.048-.076-.048-.132-.048 0-.04 0-.072.04-.108a1.548 1.548 0 01.24-.208l.048-.044c.072-.04.108-.072.18-.108.108-.04.252-.072.36-.108a1.772 1.772 0 01.828.108c.612.252.76.252.94.252h.108l.176-.024a1.472 1.472 0 00.328-.12 1.296 1.296 0 00.432-.288c3.024-2.36 3.576-2.8 3.984-3.148l.164-.136.184-.16.16-.156c.176-.192.312-.408.268-.62-.036-.252-.36-.4-.468-.472l-.108-.072a499.746 499.746 0 00-6.672-3.352c-.036-.04-.072-.04-.072-.072-.04 0 0-.04 0-.072 0-.012.088-.164.272-.36zm-12.896 1.62c.5 0 .904.404.904.904 0 .54-.4.936-.904.936l-.24-.032a.896.896 0 01-.66-.888c0-.516.4-.92.9-.92zm6.816-4.508c.5 0 .904.404.904.904 0 .54-.4.936-.904.936l-.24-.032a.896.896 0 01-.66-.888c0-.516.4-.92.9-.92zm-16.48 0c.496 0 .9.404.9.904a.9.9 0 01-.9.936l-.24-.032a.892.892 0 01-.66-.888c0-.516.4-.92.9-.92zm20.52-13.308a202.811 202.811 0 00-3.388 3.572l-.652.684-.072.072-.412.42c-.26.276-.5.532-.74.772l-.504.504-.388.36a11.68 11.68 0 01-.984.832h14.244l-.072-.056-.072-.052c-.144-.184-.32-.292-.468-.436-.18-.144-.324-.288-.504-.432l-1.12-1.008-1.188-1.196a25.112 25.112 0 01-1.228-1.328c-.432-.472-.828-.94-1.224-1.372-.4-.468-.832-.904-1.228-1.336zm-9.952-13.2L36.48 42.9l.076.164.072.16h17.816l-.108-.124-.108-.128c-.072-.072-.108-.18-.148-.252-.072-.18-.144-.36-.144-.54 0-.108.04-.252.072-.432 0-.04.04-.072.04-.108.032-.072.072-.18.144-.288.108-.216.252-.472.432-.72.036-.04.036-.076.072-.076a48.612 48.612 0 013.496-4.36 14.36 14.36 0 01.72-.796c.256-.252.472-.54.724-.792.54-.616 1.08-1.228 1.552-1.804.036-.04.072-.072.072-.108a157.456 157.456 0 01-3.86-4.652c-.36-.472-.684-.94-1.008-1.372a25.932 25.932 0 01-1.48-2.344l-.216-.432-.092-.212-.088-.184c-.072-.256-.144-.472-.144-.652zm19.76-.216v.072l.012.156a3.28 3.28 0 01-.152.676 2.688 2.688 0 01-.36.72 15.12 15.12 0 01-.796 1.3c-.18.252-.36.54-.54.828a38.012 38.012 0 01-1.48 2.02c-.252.288-.468.612-.72.936-.04.04-.072.108-.108.144-.468.58-.976 1.192-1.516 1.804-.4.468-.76.904-1.192 1.372.544.612 1.156 1.26 1.768 1.984.216.216.432.468.616.72.432.468.828.936 1.224 1.408l1.156 1.368c.72.904 1.332 1.696 1.84 2.416.432.652.648 1.12.72 1.48v.144l-.032.272a1.692 1.692 0 01-.472.776h17.24l.188-.412.24-.384-17.632-19.8zm3.068-.468c5.592 6.276 11.18 12.588 16.808 18.864.072 0 .18-.04.252-.04h.76l.16.032c.184.032.44.08.74.188.036 0 .072.036.108.072l.144.072.404.24.352.264c.036 0 .036.036.072.036.108.072.18.18.252.252 1.192-.684 2.38-1.336 3.536-2.02a44.24 44.24 0 00-14.896-14.1l-.776-.464-.776-.44c-.072-.036-.108-.072-.18-.072a18.72 18.72 0 00-1.48-.72.58.58 0 01-.252-.144c-.468-.216-.936-.432-1.44-.648-.108-.04-.18-.072-.288-.108a20.692 20.692 0 00-1.588-.616l-.216-.072-.836-.3zm-25.428-.324l-1.404.432-.824.288a44.822 44.822 0 00-11.08 5.772 45.58 45.58 0 00-10.096 10.096c-.288.436-.612.832-.904 1.264 1.228.684 2.456 1.408 3.68 2.092.18-.144.4-.36.76-.504a3.592 3.592 0 011.332-.324c.612-.04 1.08.144 1.336.216 5.732-6.456 11.468-12.88 17.2-19.332zm12.192-1.732H62.96l-.468.02-.436.016h-.108l-.472.024-.5.048-1.648.144c-1.092.12-2.164.28-3.224.468-.144.144-.252.292-.396.472.072 0 .108-.04.18-.04h.144l.16.028c.108.032.24.096.384.192l.18.112.396.304.216.196a52.16 52.16 0 012.2 2.092c.792.792 1.624 1.66 2.488 2.6.828.896 1.588 1.728 2.272 2.412.324-.324.648-.684.976-1.08.396-.436.792-.868 1.188-1.336.4-.432.792-.9 1.228-1.3a38.68 38.68 0 011.188-1.224l.576-.576.32-.304.296-.276c.36-.32.684-.612 1.008-.864.688-.576 1.192-.828 1.588-.828.144 0 .288.036.432.072l-.396-.472-.52-.108-.528-.108c-.036 0-.072 0-.108-.036-.32-.072-.648-.108-.972-.144h-.072l-1.008-.144h-.04l-1.36-.148a43.236 43.236 0 00-4.156-.212z"/></svg>