<svg width="64" height="64" viewBox="0 0 128 128" xmlns="http://www.w3.org/2000/svg"><path d="M64 128C28.652 128 0 99.348 0 64S28.652 0 64 0s64 28.652 64 64-28.652 64-64 64zm.04-104L28.38 60.116 24 64.56l1.54 1.36a70.496 70.496 0 0 0 4.932 3.964 57.08 57.08 0 0 0 16.132 8.048c5.64 1.8 11.52 2.684 17.436 2.684 4.68 0 9.34-.56 13.884-1.68a57.1 57.1 0 0 0 18.384-8.168c1.38-.92 2.76-1.96 4.064-3.004.748-.6 1.46-1.2 2.128-1.84l1.5-1.36zm34.952 41.88a44.903 44.903 0 0 1-3.908 2.884 55.304 55.304 0 0 1-17.672 7.848 55.848 55.848 0 0 1-13.372 1.64 54.988 54.988 0 0 1-32.268-10.328c-1.264-.88-2.484-1.88-3.708-2.88l-.748-.644L64 27.24l36.688 37.16c-.516.52-1.104 1-1.696 1.48zm-60.12-1.92l-1.776.76h2.172a63.538 63.538 0 0 1 33.568 9.608l.12.08.16-.04a51.447 51.447 0 0 0 18.576-7.324l.556-.36-.556-.32a55.732 55.732 0 0 0-28.28-7.688c-8.452.04-16.8 1.84-24.54 5.28zm34.556 8.008A64.72 64.72 0 0 0 48.34 63.04 56.008 56.008 0 0 1 63.368 61c8.44 0 16.728 1.96 24.26 5.804a46.94 46.94 0 0 1-14.2 5.164zm13.216 7.888s-5.84 3.68-8.048 4.764a55.028 55.028 0 0 1-23.944 7.168l-2.524.16L64.04 104l16.92-17.136a95.52 95.52 0 0 0 5.68-7.008zM57.256 93.872c6.508-.68 12.86-2.444 18.776-5.288L64.04 100.76z"/></svg>