<svg width="64" height="64" viewBox="0 0 128 128" xmlns="http://www.w3.org/2000/svg"><path d="M64 128C28.652 128 0 99.348 0 64S28.652 0 64 0s64 28.652 64 64-28.652 64-64 64zM43.416 53.056l14.44 7.68 7.68-3.84-18.356-9.944V29.44l35.292 18.32 7.68-3.84-45.2-23.696A3.38 3.38 0 0 0 40 23.22v24.268a6.294 6.294 0 0 0 3.416 5.568zm55.028-4.072a3.38 3.38 0 0 0-3.84-.612L43.416 74.944A6.293 6.293 0 0 0 40 80.552v24.228a3.38 3.38 0 0 0 4.952 2.996L96.024 81.28a6.335 6.335 0 0 0 3.42-5.72V51.368a3.34 3.34 0 0 0-1-2.384zM92.3 75.136L47.18 98.56V81.048L92.3 57.624v17.512z"/></svg>