<svg width="64" height="64" viewBox="0 0 128 128" xmlns="http://www.w3.org/2000/svg"><path d="M64 128C28.652 128 0 99.348 0 64S28.652 0 64 0s64 28.652 64 64-28.652 64-64 64zm0-112c-26.508 0-48 21.492-48 48s21.492 48 48 48 48-21.492 48-48a48 48 0 0 0-48-48zm0 95.08C38 111.08 16.92 90 16.92 64S38 16.92 64 16.92 111.08 38 111.08 64A47.08 47.08 0 0 1 64 111.08zM77.16 54l-.12-.44-.12-.44-.12-.48-.16-.4-.12-.44-.16-.4-.2-.44-.16-.4-.2-.36-.2-.4-.2-.36-.24-.36-.2-.32-.24-.36-.24-.28-.28-.32-.24-.28-.24-.28-.28-.24-.28-.24-.28-.24-.28-.2-.32-.2-.28-.16-.32-.2-.28-.12-.32-.16-.32-.12-.32-.12-.36-.08-.32-.08-.32-.08-.36-.04-.36-.04-.32-.04h-1.08l-.36.04-.36.04-.4.04-.36.08-.36.08-.36.08-.4.12-.36.12-.4.12-.4.16-.36.16-.4.2-.36.16-.4.2-.4.24-.36.2-.4.24-.4.28-.36.24-.4.28-.4.32-.4.28-.36.32-.4.32-.36.36-.4.36-.4.36-.36.4-.4.4-.36.4-.36.4-.4.44-.36.44-.36.44-.36.48-.36.48-.36.52-.48.68-.48.72-.48.76-.44.72-.44.8-.44.76-.4.76-.4.8-.36.8-.36.8-.32.8-.28.64 28.76-9.4-.04-.32zM51.2 68.04l25.48-.2.12-.56.12-.56.12-.56.12-.6.08-.56.12-.56.08-.56.04-.56.08-.56.04-.56.04-.52.04-.56.04-.56V59.4L51.2 68.04zM64 18.24c-25.272 0-45.76 20.488-45.76 45.76S38.728 109.76 64 109.76 109.76 89.272 109.76 64A45.76 45.76 0 0 0 64 18.24zm25.92 49.44l-.8 4.72h-7.16l-.24.8-.44 1.2-.44 1.2-.48 1.2L80 78l-.52 1.16-.56 1.16-.56 1.16-.6 1.12-.6 1.12-.64 1.08-.64 1.08-.68 1.08-.8 1.04-.36.52-.36.52-3.72-6.24.36-.52.36-.52.32-.52.32-.52.32-.52.32-.52.32-.52.28-.52.28-.56.28-.56.28-.56.28-.56.24-.56.24-.56.24-.56.24-.56.24-.56.2-.56v-.48L46 72.8v7.4l-7.44 5.16V72.8H36.4l-.8.28-1.36-4.76 6.72-2.2v-.52l.28-.84.4-.76.28-.8.32-.8.32-.8.32-.8.32-.8.36-.8.36-.8.36-.8.36-.76.4-.76.4-.76.4-.76.4-.76.44-.76.44-.72.44-.72.44-.76.44-.72.48-.68.48-.68.44-.76.48-.68.48-.64.52-.64.68-.56.52-.6.52-.6.52-.6.56-.56.56-.56.56-.56.56-.52.56-.52.56-.52.44-.44.6-.48.6-.44.6-.44.6-.44.6-.4.6-.36.6-.36.6-.32.6-.32.52-.44.72-.2.56-.24.56-.24.56-.2h9.64l.44.2.44.2.44.24.44.24.4.28.4.28.4.32.4.32.36.36.36.36.36.4.36.4.32.44.32.44.32.44.32.48.28.48.28.52.28.52.24.56.24.56.24.56.24.6.2.6V52l4-1.28 1.36 4.76-5.12 1.68v6.52l-.2 1.2-.24 1.2-.28 1.2v.52l7-.12z"/></svg>