<svg width="64" height="64" viewBox="0 0 128 128" xmlns="http://www.w3.org/2000/svg"><path d="M64 128C28.652 128 0 99.348 0 64S28.652 0 64 0s64 28.652 64 64-28.652 64-64 64zm27.08-72.2h19.48l1.44-8H93.16a19.12 19.12 0 0 0-10.36 3.44c-1.12-4-12-3.44-12-3.44l1.44-8H68l-1.44 8h-4.44l1.24-8h-4.6l-1.68 8h-4.76l-2.44 12.48-3.24-12.24H36l-20 29.4h16.48l1.68-7.8H30.8l9.6-14.04L44 69.72h-3.6l-1.56 7.72h12.24l-1 5.36h4.8L56 77.44h4l-1 5.36h5l1-5.36h6.24a12 12 0 0 0 7.48-3.8 12.8 12.8 0 0 0 8.8 3.8h18.84l1.24-7.8H90.68c-11.64-.2-6.68-13.92.4-13.84zM69.92 69.44H57.44l1-3.8h12c3.04.2 2.04 3.8-.52 3.8zM71.8 59.2H59.32l1-3.8h12c3.04.2 1.92 3.96-.52 3.96v-.16z"/></svg>