<svg width="64" height="64" viewBox="0 0 128 128" xmlns="http://www.w3.org/2000/svg"><path d="M64 128C28.652 128 0 99.348 0 64S28.652 0 64 0s64 28.652 64 64-28.652 64-64 64zm27.136-64.104c.232-.26.492-.52.752-.784.84-.904 1.76-1.868 2.628-2.8a19.5 19.5 0 0 0 5.428-13.476c0-.348.056-1.78.056-1.984C99.596 33.364 89.924 24 78.492 24h-36v14.524H28V104h51.068C90.416 104 100 93.908 100 81.952c.028-8.548-5.256-14.584-8.864-18.056zM79.068 96.68H35.216V45.788h7.28v43.66h35.68c2.944 0 5.572-1.78 6.696-4.52a7.328 7.328 0 0 0-1.56-7.964L70.584 64.072l12.932-13.096a7.325 7.325 0 0 0 1.56-7.96 7.232 7.232 0 0 0-6.7-4.52h-28.64v-7.232H78.52c7.624 0 14.032 6.212 14.292 13.764 0 .32-.06 1.576-.06 1.604v.144a12.216 12.216 0 0 1-3.432 8.488c-.896.936-1.82 1.924-2.656 2.8-1.416 1.488-2.628 2.772-3.208 3.356l-2.6 2.564 2.572 2.6c.348.348.78.756 1.3 1.252 3 2.8 8.056 7.464 8.056 14.056.028 7.876-6.38 14.788-13.716 14.788zm-29.36-50.864l28.668.028-18.012 18.26 17.812 18.08H49.708z"/></svg>