<svg width="64" height="64" viewBox="0 0 128 128" xmlns="http://www.w3.org/2000/svg"><path d="M64 128c35.348 0 64-28.652 64-64S99.348 0 64 0 0 28.652 0 64s28.652 64 64 64zM49.932 31.172a35.02 35.02 0 1 0 43 49.708L62.284 63.94 74.72 31.2a35.02 35.02 0 0 0-24.784-.028zm2.184 6.292a28.356 28.356 0 0 1 20.072.024L62.12 63.996l24.816 13.72a28.356 28.356 0 1 1-34.82-40.252zM63.86 19.92a44.11 44.11 0 0 1 13.92 2.84L62.12 63.996l38.604 21.34A44.112 44.112 0 1 1 63.86 19.92zm30.116 15.248c1.056 0 2.04.124 2.944.38 2.664.732 4.464 2.388 5.4 4.964.572 1.564.696 3.1.376 4.608-.288 1.496-.98 2.84-2.076 4.04 2.056-.092 3.852.368 5.4 1.368 1.532.968 2.664 2.452 3.388 4.444 1.028 2.824.72 5.404-.932 7.74-1.632 2.296-4.548 4.212-8.752 5.74l-16.656 6.064-11.724-32.212 15.736-5.728c2.576-.936 4.876-1.408 6.896-1.408zm-2.44 6.664c-.96 0-2.068.232-3.332.692l-7.408 2.696 2.76 7.596 7.412-2.7c1.84-.668 3.12-1.496 3.832-2.488.72-.992.848-2.116.388-3.372-.456-1.256-1.272-2.02-2.448-2.288a4.884 4.884 0 0 0-1.204-.136zm6.248 12.488c-1.008.012-2.192.264-3.552.76l-8.696 3.164 2.896 7.96 8.696-3.164c1.96-.716 3.32-1.572 4.064-2.576.78-1.012.92-2.192.432-3.544-.64-1.748-1.92-2.616-3.84-2.6z"/></svg>