<svg width="64" height="64" viewBox="0 0 128 128" xmlns="http://www.w3.org/2000/svg"><path d="M64 128C28.652 128 0 99.348 0 64S28.652 0 64 0s64 28.652 64 64-28.652 64-64 64zM29.404 77.28c.028 10.328 6.36 19.724 16.024 23.152 9.72 3.456 18.528 1.624 26.12-5.456.748-.7 1.152-.688 1.804.016a81.66 81.66 0 0 0 3.468 3.496c.648.612.872 1.164.66 2.132-.728 3.372.968 6.656 4.04 8.192 2.812 1.404 6.432.72 8.648-1.632a7.464 7.464 0 0 0 1.044-8.852 7.408 7.408 0 0 0-8.216-3.448c-.832.208-1.356.056-1.916-.524a139 139 0 0 0-4.3-4.3c-.612-.584-.696-1.04-.316-1.84 5.024-10.552 2.624-22.136-6.192-29.824-.812-.704-.72-1.08-.068-1.792A3149.268 3149.268 0 0 0 86.3 38.944c.64-.712 1.22-.952 2.216-.744 4.912 1.02 9.752-2.728 10.064-7.704.232-3.72-1.64-6.888-5.048-8.54-2.896-1.4-6.904-.76-9.328 1.5-2.656 2.48-3.48 6.228-2.072 9.696.272.672.444 1.12-.152 1.764a4998.436 4998.436 0 0 0-17.272 18.932c-.412.456-.744.616-1.36.352a19.444 19.444 0 0 0-5.144-1.416c-.932-.12-1.048-.54-1.04-1.324.04-2.708.072-5.412-.012-8.12-.032-1.08.268-1.696 1.228-2.304 2.712-1.72 3.88-5.048 3.04-8.108-.832-3.04-3.648-5.332-6.732-5.48-3.44-.16-6.428 1.88-7.552 5.164-1.068 3.108.124 6.56 3.04 8.464.836.544 1.144 1.12 1.124 2.096a166.532 166.532 0 0 0 0 8.12c.028 1.012-.268 1.36-1.308 1.552-12.136 2.276-20.62 12.388-20.588 24.44z"/></svg>