<svg width="64" height="64" viewBox="0 0 128 128" xmlns="http://www.w3.org/2000/svg"><path d="M90.34 38.776l.268.124 11.72 15.624-.08.088-.236-.48-18.084 9.136-5.496-18.2 12.216-5.608zm-.66-.308l-11.9 5.464h-27.4l-12.328-5.184 11.848-5.44h28.68zm-52.616 1.28L49.544 45l-5.52 18.268-18.052-9.116zm13.76 5.492h26.304l5.704 18.88-18.856 33.328L45.124 64.12zm50.048 10.932L67.176 94.428l16.82-29.732zM60.684 94.268L27.172 56.22l16.784 8.48zm-34.96-39.696l-.04-.04.172-.228zM64 128C28.652 128 0 99.348 0 64S28.652 0 64 0s64 28.652 64 64-28.652 64-64 64zM36.888 37.848L24 54.584 64 100l40-45.408-12.556-16.744L78.868 32H49.62zm36.804 21.488c-.316-3.32-3.144-4.432-6.72-4.752V49.98h-2.768v4.484c-.728 0-1.472.016-2.212.032V49.98h-2.764v4.604c-.6.012-1.188.024-1.76.024l-.004-.012h-3.82v2.992s2.048-.04 2.012 0c1.12 0 1.488.656 1.592 1.228v5.244c.08 0 .18.004.296.02h-.296v7.352c-.048.36-.256.928-1.04.928.04.032-2.012 0-2.012 0l-.548 3.348h3.6c.672 0 1.332.012 1.98.016v4.656h2.764v-4.608c.76.016 1.496.024 2.212.024v4.588h2.768v-4.652c4.656-.272 7.912-1.456 8.32-5.88.32-3.568-1.332-5.16-3.976-5.8 1.608-.828 2.612-2.288 2.376-4.716zm-3.872 9.96c0 3.48-5.884 3.084-7.76 3.088v-6.172c1.876 0 7.76-.548 7.76 3.084zm-1.288-8.708c0 3.168-4.912 2.8-6.472 2.8v-5.6c1.56 0 6.472-.504 6.472 2.8z"/></svg>