<svg width="64" height="64" viewBox="0 0 128 128" xmlns="http://www.w3.org/2000/svg"><path d="M64 128C28.652 128 0 99.348 0 64S28.652 0 64 0s64 28.652 64 64-28.652 64-64 64zm20.944-85.236c-3.108-7.888-10.888-8.6-19.952-6.84l-3.228-11.252-6.848 1.964 3.14 10.96c-1.8.512-3.628 1.076-5.448 1.64l-3.16-11.032-6.848 1.96 3.224 11.252c-1.476.456-2.92.9-4.344 1.308l-.008-.032-9.448 2.704 2.1 7.316s5.028-1.548 4.972-1.428c2.772-.8 4.14.556 4.8 1.868l3.68 12.82c.188-.052.44-.12.736-.16l-.724.208 5.148 17.96c.128.908.012 2.448-1.924 3.008.108.052-4.98 1.424-4.98 1.424l.984 8.572 8.916-2.56c1.656-.472 3.296-.912 4.904-1.36l3.264 11.38 6.84-1.96-3.224-11.26A262.96 262.96 0 0 0 73 89.704l3.212 11.212 6.848-1.964-3.252-11.36c11.324-3.964 18.552-9.176 16.452-20.28-1.688-8.936-6.9-11.648-13.888-11.344 3.392-3.16 4.856-7.436 2.572-13.204zm-2.604 27.08c2.44 8.508-12.4 11.716-17.04 13.052l-4.32-15.08c4.64-1.332 18.816-6.84 21.36 2.032zm-9.288-20.36c2.216 7.74-10.188 10.32-14.052 11.428l-3.92-13.676c3.864-1.108 15.656-5.82 17.972 2.248z"/></svg>