<svg width="64" height="64" viewBox="0 0 128 128" xmlns="http://www.w3.org/2000/svg"><path d="M64 128C28.652 128 0 99.348 0 64S28.652 0 64 0s64 28.652 64 64-28.652 64-64 64zM47.76 29.744a3.508 3.508 0 0 0 0 7.004 3.508 3.508 0 0 0 0-7.004zm16.2-9.72a3.508 3.508 0 0 0 0 7.008 3.508 3.508 0 0 0 0-7.008zm0 38.876a3.508 3.508 0 0 0 0 7.004 3.508 3.508 0 0 0 0-7.004zm16.196-9.72a3.506 3.506 0 1 0 .008 7.012 3.506 3.506 0 0 0-.008-7.012zm16.2-9.72a3.508 3.508 0 1 0 .004 7.016 3.508 3.508 0 0 0-.008-7.012zm-48.6 29.16a3.508 3.508 0 0 0 0 7.004 3.508 3.508 0 0 0 0-7.004zM31.56 39.46a3.506 3.506 0 1 0 .008 7.012 3.504 3.504 0 0 0-.008-7.008zm0 38.88a3.504 3.504 0 1 0 .008 7.008 3.506 3.506 0 0 0-.008-7.012zm0-19.44a3.508 3.508 0 0 0 0 7.004 3.508 3.508 0 0 0 0-7.004zm32.4-19.44a3.508 3.508 0 1 0 0 7.016 3.508 3.508 0 0 0 0-7.012zm16.196-9.72a3.508 3.508 0 1 0 .008 7.016 3.508 3.508 0 0 0-.008-7.012zm0 38.88a3.504 3.504 0 1 0 .004 7.008 3.504 3.504 0 0 0-.004-7.008zm16.2-9.72a3.508 3.508 0 0 0 0 7.004 3.508 3.508 0 0 0 0-7.004zm-16.2 29.156a3.506 3.506 0 1 0 .004 7.012 3.506 3.506 0 0 0-.004-7.012zm16.2-9.72a3.508 3.508 0 0 0 0 7.008 3.508 3.508 0 0 0 0-7.008zm-32.4 19.44a3.508 3.508 0 0 0 0 7.004 3.508 3.508 0 0 0 3.508-3.5 3.508 3.508 0 0 0-3.504-3.504zm0-19.44a3.508 3.508 0 1 0 .008 7.016 3.508 3.508 0 0 0-.004-7.016zm-16.2-29.156a3.508 3.508 0 0 0 0 7.004 3.508 3.508 0 0 0 0-7zm0 38.876a3.508 3.508 0 0 0 0 7.004 3.508 3.508 0 0 0 0-7.004z"/></svg>