<svg width="64" height="64" viewBox="0 0 128 128" xmlns="http://www.w3.org/2000/svg"><path d="M64.002 127.988C28.658 127.988.006 99.336.006 63.996.006 28.652 28.658 0 64.002 0c35.34 0 63.992 28.652 63.992 63.996 0 35.34-28.652 63.992-63.992 63.992zm29.752-60.972c-2.52-2.784-6.144-4.512-10.88-5.184v-.1c4.148-.672 7.408-2.372 9.624-5.092a14.868 14.868 0 0 0 3.448-9.616c0-5.844-1.88-9.816-5.776-12.94-3.896-3.12-9.744-4.148-17.668-4.148H42.578v27.852H25.394v10.668h46.908c3.692 0 6.464.26 8.296 1.736 1.832 1.476 2.768 3.384 2.768 6.204s-.924 5.228-2.768 6.74c-1.84 1.508-4.616 2.504-8.296 2.504H56.206v-8.296H42.578v18.964h30.908c7.86 0 13.868-2.052 18.036-5.24 4.164-3.188 6.12-7.896 6.12-13.676a15.24 15.24 0 0 0-3.888-10.376zM70.582 57.76H56.206V40.576h14.376c7.392 0 11.08 2.884 11.08 8.592s-3.688 8.592-11.08 8.592z"/></svg>