<svg width="64" height="64" viewBox="0 0 128 128" xmlns="http://www.w3.org/2000/svg"><path d="M64 128C28.652 128 0 99.348 0 64S28.652 0 64 0s64 28.652 64 64-28.652 64-64 64zm-7.512-44.696a8.072 8.072 0 0 0-1.032 3.96c0 4.46 3.612 8.092 8.136 8.26v1.48a3.54 3.54 0 0 0-3.264 3.492c0 1.936 1.608 3.504 3.592 3.504a3.548 3.548 0 0 0 3.592-3.504 3.532 3.532 0 0 0-2.94-3.452v-1.54c4.368-.324 7.812-3.888 7.812-8.24 0-1.44-.38-2.8-1.048-3.98l6.136-3.452a8.296 8.296 0 0 0 6.772 3.456c2.832 0 5.332-1.392 6.816-3.516l2.052 1.16a3.424 3.424 0 0 0-.296 1.396c0 1.936 1.608 3.504 3.592 3.504S100 84.264 100 82.328s-1.608-3.508-3.592-3.508a3.62 3.62 0 0 0-2.788 1.296l-2.056-1.16a7.867 7.867 0 0 0 .932-3.72c0-4.42-3.652-8.012-8.168-8.052v-6.472c4.46-.04 8.06-3.584 8.06-7.948 0-1.28-.312-2.492-.864-3.564l2-1.272a3.616 3.616 0 0 0 2.884 1.412c1.984 0 3.592-1.572 3.592-3.508s-1.608-3.504-3.592-3.504a3.548 3.548 0 0 0-3.592 3.504c0 .44.084.864.24 1.256l-2.024 1.284a8.188 8.188 0 0 0-6.788-3.556 8.193 8.193 0 0 0-6.84 3.632l-6.12-3.444a7.897 7.897 0 0 0 .884-3.632c0-4.288-3.432-7.792-7.76-8.04V30.98a3.536 3.536 0 0 0 3.104-3.476A3.548 3.548 0 0 0 63.92 24a3.548 3.548 0 0 0-3.592 3.504c0 1.776 1.348 3.24 3.1 3.476v2.352c-4.328.248-7.76 3.752-7.76 8.04 0 1.3.32 2.532.88 3.62l-6.132 3.4a8.192 8.192 0 0 0-6.744-3.496 8.19 8.19 0 0 0-6.652 3.368l-2.08-1.16a3.424 3.424 0 0 0 .24-1.272 3.548 3.548 0 0 0-3.588-3.504c-1.984 0-3.592 1.568-3.592 3.504s1.608 3.508 3.592 3.508a3.616 3.616 0 0 0 2.872-1.4l2.04 1.136a7.76 7.76 0 0 0-.972 3.768c0 4.28 3.468 7.776 7.816 7.944v6.216c-4.464.168-8.032 3.752-8.032 8.152a7.93 7.93 0 0 0 1.04 3.936l-1.924 1.088a3.616 3.616 0 0 0-2.84-1.36c-1.984 0-3.592 1.572-3.592 3.508s1.608 3.504 3.592 3.504a3.548 3.548 0 0 0 3.592-3.504 3.424 3.424 0 0 0-.264-1.32l1.956-1.108c1.516 2.068 3.996 3.412 6.8 3.412a8.404 8.404 0 0 0 6.788-3.4zm.52-.812l-6.02-3.388a7.986 7.986 0 0 0 1.04-3.948c0-4.292-3.392-7.808-7.7-8.132v-6.256c4.192-.324 7.488-3.748 7.488-7.92a7.76 7.76 0 0 0-.9-3.64l6.124-3.388c1.48 2.172 4.008 3.6 6.88 3.6 2.864 0 5.392-1.424 6.868-3.592l6.136 3.452a7.76 7.76 0 0 0-.82 3.484c0 4.096 3.168 7.464 7.24 7.9v6.564c-4.132.44-7.348 3.856-7.348 8.008 0 1.368.348 2.652.96 3.78l-6.14 3.46a8.52 8.52 0 0 0-6.896-3.472 8.52 8.52 0 0 0-6.912 3.488zm-13.336-3.064a4.328 4.328 0 0 1-4.376-4.272c0-2.36 1.96-4.272 4.376-4.272 2.42 0 4.38 1.912 4.38 4.272 0 2.36-1.96 4.272-4.38 4.272zm0-22.42c-2.356 0-4.264-1.864-4.264-4.16s1.908-4.168 4.264-4.168c2.36 0 4.268 1.864 4.268 4.164s-1.912 4.164-4.268 4.164zm20.248-11.42c-2.388 0-4.32-1.888-4.32-4.216 0-2.332 1.932-4.22 4.32-4.22 2.384 0 4.32 1.888 4.32 4.22 0 2.328-1.936 4.216-4.32 4.216zm20.324 11.34a4.216 4.216 0 0 1-4.264-4.16c0-2.304 1.908-4.168 4.264-4.168s4.268 1.864 4.268 4.164-1.912 4.164-4.268 4.164zm0 22.524c-2.384 0-4.32-1.888-4.32-4.216 0-2.332 1.936-4.22 4.32-4.22 2.388 0 4.32 1.888 4.32 4.22 0 2.328-1.932 4.216-4.32 4.216zM63.92 91.6c-2.452 0-4.436-1.94-4.436-4.328s1.984-4.328 4.436-4.328c2.448 0 4.432 1.936 4.432 4.328S66.368 91.6 63.92 91.6zm0-15.92c6.608 0 11.96-5.228 11.96-11.676s-5.352-11.68-11.96-11.68c-6.608 0-11.964 5.232-11.964 11.68s5.356 11.68 11.96 11.68zm0-7.1c-2.592 0-4.692-2.048-4.692-4.576s2.1-4.576 4.692-4.576c2.588 0 4.688 2.048 4.688 4.576s-2.1 4.576-4.688 4.576z"/></svg>