<svg width="64" height="64" viewBox="0 0 128 128" xmlns="http://www.w3.org/2000/svg"><path d="M64 128C28.652 128 0 99.348 0 64S28.652 0 64 0s64 28.652 64 64-28.652 64-64 64zm0-20c24.3 0 44-19.7 44-44S88.3 20 64 20 20 39.7 20 64s19.7 44 44 44zm0-4.408c-21.864 0-39.592-17.728-39.592-39.592S42.136 24.408 64 24.408 103.592 42.136 103.592 64 85.864 103.592 64 103.592zM88.172 48.48s0-13.304-20.4-14.192H43.38V93.72h27.052s19.288-.676 19.288-17.964c0 0 .664-10.64-11.752-12.416 0 0 10.864-3.104 10.2-14.856zm-30.824-3.548h10.42c6.652.44 6.652 5.096 6.652 5.096v3.548c-.44 5.544-7.316 5.764-7.316 5.764h-9.756zm18.4 32.6c-.44 5.544-7.312 5.76-7.312 5.76H57.344V68.88H69.1c6.652.444 6.652 5.104 6.652 5.104z"/></svg>