<svg width="64" height="64" viewBox="0 0 128 128" xmlns="http://www.w3.org/2000/svg"><path d="M64 128C28.652 128 0 99.348 0 64S28.652 0 64 0s64 28.652 64 64-28.652 64-64 64zM37.312 34.468c-.016 12.468 0 24.932-.016 37.404 2.576-8.316 9.152-15.3 17.4-18.148 7.176-2.516 15.44-2.052 22.168 1.56 0-.7 0-1.396.008-2.096-8.424-4.048-18.748-3.848-26.944.672.08-10.864-.012-21.728.044-32.592A1746.76 1746.76 0 0 1 38.1 33.128c-.32.4-.864.752-.788 1.34zm53.56 46.648c.04-15.7-.048-31.404.04-47.104-4.32-4.34-8.64-8.688-13-12.984.12 2.036.084 4.076.08 6.112-.008 16.22.056 32.44.032 48.656-.028 3.144.292 6.428-.988 9.4-2.012 5.24-7.44 8.92-13.064 8.78-5.848.064-11.38-4.02-13.128-9.584-1.96-5.64.268-12.356 5.184-15.74 4.468-3.24 10.9-3.38 15.528-.392 2.34 1.464 4.108 3.672 5.3 6.14a1162.58 1162.58 0 0 1 0-17.928c-7.3-4.02-16.48-4.32-24.02-.768a26.996 26.996 0 0 0-13.072 13.012c-2.372 5.096-3.144 10.96-2.004 16.476 1.312 6.968 5.596 13.288 11.512 17.18a26.788 26.788 0 0 0 34.012-3.64 26.608 26.608 0 0 0 7.588-17.616z"/></svg>