<svg width="64" height="64" viewBox="0 0 128 128" xmlns="http://www.w3.org/2000/svg"><path d="M64 128C28.652 128 0 99.348 0 64S28.652 0 64 0s64 28.652 64 64-28.652 64-64 64zm44.64-77.36v-8.8L80 58.52 62.32 28.04v20l9 15.6-3.64 2.16-5.36-9.44-5.76 10.24-4-1.64 9.76-16.92v-20L42.96 61 16 49.84v10.2l24 5.92-15.2 26.08h37.52V81.28H43.16l7.16-12.56 4.32 1.08-4.32 7.6h24l-3.6-6.36 4.76-.36 6.12 10.6H62.32v10.76H100L87.04 69.92l21.76-1.6v-8.84l-24.48 6.04 24.44-6.28v-8L82.24 62l26.4-11.36zm-34.8 17.4l-4.32 1.08 4.24-1.08h.08zm-1.36-2.4l-4 1.6 4-1.64v.04z"/></svg>