<svg width="64" height="64" viewBox="0 0 128 128" xmlns="http://www.w3.org/2000/svg"><path d="M64 128C28.652 128 0 99.348 0 64S28.652 0 64 0s64 28.652 64 64-28.652 64-64 64zm3.764-29.692l24.952-14.172a4.192 4.192 0 0 0 3.104 1.36c2.308 0 4.18-1.84 4.18-4.112 0-1.948-1.376-3.58-3.22-4.004l.072-28.084c1.808-.452 3.148-2.068 3.148-3.988 0-2.272-1.872-4.112-4.18-4.112a4.2 4.2 0 0 0-3.416 1.74L67.972 29.06A4.148 4.148 0 0 0 63.904 24a4.148 4.148 0 0 0-4.06 5.088L35.556 42.88a4.196 4.196 0 0 0-3.376-1.688A4.16 4.16 0 0 0 28 45.308c0 1.92 1.332 3.528 3.136 3.984V77.4A4.128 4.128 0 0 0 28 81.384c0 2.272 1.872 4.112 4.18 4.112 1.18 0 2.244-.48 3.004-1.256l24.844 14.108a4.04 4.04 0 0 0-.304 1.54c0 2.272 1.872 4.112 4.18 4.112s4.18-1.84 4.18-4.112c0-.56-.112-1.092-.32-1.58zm-1.116-1.52a4.2 4.2 0 0 0-2.744-1.012c-1.064 0-2.04.392-2.776 1.04L36.16 82.636a4.048 4.048 0 0 0 .016-2.464l23.908-16.108a4.984 4.984 0 0 0 7.532.352l24.264 15.6a4.048 4.048 0 0 0-.08 2.484zm.476-66.052l24.564 13.952a4.132 4.132 0 0 0 3.264 4.64l-.072 28.048a4.18 4.18 0 0 0-1.976 1.064L68.62 62.828c.208-.536.32-1.12.32-1.724a4.88 4.88 0 0 0-4.068-4.784l.064-24.22a4.235 4.235 0 0 0 2.188-1.36zm-6.42.02a4.178 4.178 0 0 0 2.332 1.38l-.064 24.212a4.88 4.88 0 0 0-3.74 6.028l-24.02 16.176a4.192 4.192 0 0 0-2.176-1.196v-28.02a4.132 4.132 0 0 0 3.264-4.72z"/></svg>