<svg width="64" height="64" viewBox="0 0 128 128" xmlns="http://www.w3.org/2000/svg"><path d="M64 128C28.652 128 0 99.348 0 64S28.652 0 64 0s64 28.652 64 64-28.652 64-64 64zM31.6 28a3.6 3.6 0 0 0-3.6 3.6v24.8a3.6 3.6 0 0 0 3.6 3.6h24.8a3.6 3.6 0 0 0 3.6-3.6V31.6a3.6 3.6 0 0 0-3.6-3.6zm40 0a3.6 3.6 0 0 0-3.6 3.6v24.8a3.6 3.6 0 0 0 3.6 3.6h24.8a3.6 3.6 0 0 0 3.6-3.6V31.6a3.6 3.6 0 0 0-3.6-3.6zm0 40a3.6 3.6 0 0 0-3.6 3.6v24.8a3.6 3.6 0 0 0 3.6 3.6h24.8a3.6 3.6 0 0 0 3.6-3.6V71.6a3.6 3.6 0 0 0-3.6-3.6zm-40 0a3.6 3.6 0 0 0-3.6 3.6v24.8a3.6 3.6 0 0 0 3.6 3.6h24.8a3.6 3.6 0 0 0 3.6-3.6V71.6a3.6 3.6 0 0 0-3.6-3.6z"/></svg>