<svg width="64" height="64" viewBox="0 0 128 128" xmlns="http://www.w3.org/2000/svg"><path d="M64 128C28.652 128 0 99.348 0 64S28.652 0 64 0s64 28.652 64 64-28.652 64-64 64zm28.4-83.48c-.188-11.656-13.604-14.64-13.604-14.64s7.528 5.064 7.72 15.316c.188 10.252-3.86 14.252-3.86 14.252s9.932-3.276 9.744-14.928zM47.744 99.276v-70.6L34 28v1.156s8.412 2.216 8.412 14.992v38.56C42.412 97.8 34 98.668 34 98.668v1.28zm21.968.72c5.976-.044 15.156-4.232 16.852-15.648 1.692-11.416-2.68-16.664-4.944-18.592-2.26-1.924-8.66-4.14-8.66-4.14s4.232-2.168 6.164-5.3 3.44-8.86 2.024-14.88c-1.412-6.02-6.588-12.04-12.616-12.908-6.024-.864-8.58.144-15.892.24v70.44s11.092.84 17.072.788zm15.884-2.6s12.544-3.612 12.4-17.336c-.136-13.724-12.4-16.808-12.4-16.808s5.948 5.416 6.232 16.94S85.6 97.4 85.6 97.4zm-12.4-41.336c-4.396 5.844-15.344 4.304-15.344 4.304S57.8 35.7 58.884 34.64c1.08-1.06 6.684-2.94 12 .82 5.32 3.76 6.704 14.756 2.308 20.6zm.812 10.5c4.112 1.828 9.32 8.056 6.78 18.104-2.54 10.052-10.26 10.34-14.308 10.18-4.048-.16-7.944-.096-8.38-11.752s-.252-17.88-.252-17.88 12.048-.484 16.16 1.348z"/></svg>