<svg width="64" height="64" viewBox="0 0 128 128" xmlns="http://www.w3.org/2000/svg"><path d="M64 128C28.652 128 0 99.348 0 64S28.652 0 64 0s64 28.652 64 64-28.652 64-64 64zM46.532 81.344a6.704 6.704 0 0 0-9.6-.012 6.975 6.975 0 0 0-2 4.9c0 1.84.72 3.6 2 4.9 2.656 2.696 6.952 2.692 9.6-.012s2.648-7.08 0-9.776zm44.252-46.44a6.7 6.7 0 0 0-7.4 1.504 6.98 6.98 0 0 0-1.992 4.892c0 1.836.716 3.596 1.992 4.892 1.94 1.976 4.864 2.568 7.4 1.5s4.192-3.596 4.192-6.392c0-2.8-1.656-5.32-4.192-6.392zM45.64 76.012l7.168 7.3 6.56-6.688a13.052 13.052 0 0 1-7.18-7.316zm38.788-24.548l-7.164-7.3-6.564 6.688c1.62.66 3.088 1.652 4.324 2.908a12.899 12.899 0 0 1 2.84 4.392zM81.68 83.232a7.012 7.012 0 0 0 1.472 7.54c1.276 1.3 3 2.032 4.804 2.032 1.8 0 3.528-.732 4.8-2.032a7.016 7.016 0 0 0 1.476-7.54 6.792 6.792 0 0 0-6.276-4.268c-2.748 0-5.224 1.684-6.276 4.268zM36.14 38.04a7.012 7.012 0 0 0 1.472 7.54 6.74 6.74 0 0 0 4.804 2.028 6.73 6.73 0 0 0 4.8-2.028 7.02 7.02 0 0 0 1.476-7.54 6.792 6.792 0 0 0-6.276-4.272c-2.748 0-5.224 1.684-6.276 4.272zm40.58 44.976l7.168-7.3-6.564-6.688a13.052 13.052 0 0 1-7.184 7.32zm-23.364-39.24l-7.168 7.304 6.564 6.688a13.23 13.23 0 0 1 2.856-4.408 12.654 12.654 0 0 1 4.312-2.892zm11.768-5.924c3.752 0 6.8-3.1 6.8-6.928a7 7 0 0 0-1.992-4.896A6.732 6.732 0 0 0 65.12 24c-3.756 0-6.8 3.1-6.8 6.924s3.044 6.928 6.8 6.928zm6.8 59.224c0-1.84-.72-3.6-1.992-4.9a6.732 6.732 0 0 0-4.808-2.028c-3.756 0-6.8 3.1-6.8 6.928s3.044 6.924 6.8 6.924 6.8-3.1 6.8-6.924zm-4.332-55.6h-4.28v8.576a12.3 12.3 0 0 1 4.28 0zm0 36.848a12.3 12.3 0 0 1-4.28 0v8.58h4.28zM88.92 64.756a6.732 6.732 0 0 0 11.088 2.248 6.981 6.981 0 0 0 1.992-4.9c0-2.8-1.656-5.328-4.2-6.4a6.708 6.708 0 0 0-7.404 1.504 7.02 7.02 0 0 0-1.476 7.548zM26 63.28c0 3.824 3.044 6.924 6.8 6.924a6.74 6.74 0 0 0 4.808-2.028 6.978 6.978 0 0 0 1.988-4.896c0-3.828-3.044-6.928-6.8-6.924-3.752 0-6.8 3.1-6.796 6.924zm60.332 2.18v-4.364H77.92c.244 1.44.244 2.916 0 4.356zm-34.572 0a13 13 0 0 1 0-4.36h-8.42v4.36zm13.16 8.148c5.32 0 9.64-4.396 9.64-9.816-.004-5.424-4.32-9.816-9.64-9.82-5.324 0-9.64 4.396-9.64 9.82s4.316 9.816 9.64 9.816z"/></svg>