<svg width="64" height="64" viewBox="0 0 128 128" xmlns="http://www.w3.org/2000/svg"><path d="M64 128C28.652 128 0 99.348 0 64S28.652 0 64 0s64 28.652 64 64-28.652 64-64 64zM48.464 57.616L64 42.08l15.544 15.544 9.04-9.04L64 24 39.424 48.576l9.04 9.04zM24 64l9.04 9.04L42.08 64l-9.04-9.04L24 64zm24.464 6.384l-9.052 9.028.012.012L64 104l24.584-24.584v-.004l-9.04-9.04L64 85.92 48.464 70.384zM85.92 64l9.04 9.04L104 64l-9.04-9.04L85.92 64zm-12.752-.008h.004L64 54.824 57.22 61.6l-.78.78-1.604 1.608-.016.012.016.012 9.16 9.164 9.176-9.172.004-.004-.008-.004z"/></svg>