<svg width="64" height="64" viewBox="0 0 128 128" xmlns="http://www.w3.org/2000/svg"><path d="M64 128C28.652 128 0 99.348 0 64S28.652 0 64 0s64 28.652 64 64-28.652 64-64 64zm36.78-50.4c-1.88-1.172-4.276-1.004-6.16-.164a1.264 1.264 0 0 0-.34-.672L86.752 64l7.528-12.76c.172-.172.172-.508.344-.676 1.88 1.008 4.104 1.008 6.16-.168a6.232 6.232 0 0 0 2.392-8.564c-1.712-3.024-5.644-4.032-8.724-2.352-1.88 1.176-3.08 3.024-3.252 5.208H75.46L67.936 31.92c-.172-.168-.344-.336-.344-.504 1.712-1.176 2.908-3.024 2.908-5.208 0-3.524-2.908-6.212-6.328-6.212-3.424 0-6.332 2.856-6.332 6.212 0 2.184 1.2 4.2 2.908 5.208-.168.168-.34.336-.34.504L52.88 44.68H36.972a6.528 6.528 0 0 0-3.252-5.2c-3.08-1.68-7.016-.676-8.724 2.348a6.232 6.232 0 0 0 2.396 8.564c1.88 1.176 4.276 1.008 6.16.168 0 .168.168.504.34.672L41.42 64l-7.7 12.76c-.172.172-.172.508-.344.676-1.88-1.008-4.104-1.008-6.16.168-3.076 1.68-4.104 5.54-2.392 8.564s5.644 4.032 8.724 2.352c1.88-1.176 3.08-3.024 3.252-5.208h15.74l7.524 12.764c.172.168.344.336.344.504-1.712 1.176-2.908 3.024-2.908 5.208 0 3.524 2.908 6.212 6.328 6.212 3.424 0 6.332-2.856 6.332-6.212 0-2.184-1.2-4.2-2.908-5.208.168-.168.34-.336.34-.504l7.528-12.76h15.74c.168 2.012 1.196 4.028 3.248 5.2 3.08 1.68 7.016.676 8.724-2.348a5.868 5.868 0 0 0-2.052-8.564zM72.212 59.8c0 1.68-.684 3.024-1.54 4.368 1.028 1.008 1.54 2.52 1.54 4.032 0 3.524-2.908 6.38-6.5 6.38H57.5a1.52 1.52 0 0 1-1.54-1.512V54.932a1.52 1.52 0 0 1 1.54-1.512h8.212c3.592 0 6.5 2.856 6.5 6.38z"/></svg>