<svg width="64" height="64" viewBox="0 0 128 128" xmlns="http://www.w3.org/2000/svg"><path d="M64 128C28.652 128 0 99.348 0 64S28.652 0 64 0s64 28.652 64 64-28.652 64-64 64zM31.092 91.92l3.428 11.208 6.16-1.884-.192-.64 6.54 9.7 5.34-3.6-.452-.672 9.152 7.408 4.052-5.008-.7-.564 11.088 4.252 2.308-6.012-.592-.228 11.58.812.452-6.428-.892-.06 11.568-2.672-1.448-6.28-1.052.248 10.468-6.044-3.22-5.58-1.008.58L112 71.528l-4.712-4.396-.784.84 5.36-10.988-5.788-2.824-.472.96 1.904-12.008-6.36-1.008-.136.84-1.876-11.836-6.36 1.008.04.288-4.996-10.248-5.788 2.824.164.34-7.792-8.356-4.712 4.396.392.416L60.076 16l-3.22 5.58.72.416-11.468-2.648-1.452 6.276 1.084.252-12.008.84.448 6.424 1.34-.092-11.468 4.4 2.308 6.016 1.228-.472-9.604 7.776 4.052 5.008.64-.52-6.676 9.9 5.34 3.6.428-.632-3.48 11.38 6.16 1.884.2-.652v11.812h6.44v-.624zm0-7.656v-10.76H26.86l3.16-10.328-4.08-1.244 6.048-8.96-3.54-2.388 8.388-6.792-2.688-3.32 9.988-3.832-1.568-4.088 10.608-.74-.3-4.292 10.336 2.388.948-4.112 9.188 5.304 2.076-3.6 7.256 7.784 3.008-2.804 4.692 9.612 3.688-1.8 1.684 10.632 4.1-.648-1.684 10.632 4.284.68-4.72 9.68 3.916 1.916L94.3 81.06l3.188 2.968-9.3 5.368 2.16 3.736-10.42 2.408.96 4.14-10.628-.744-.292 4.16-9.928-3.812-1.476 3.84-8.24-6.672-2.656 3.28-5.948-8.816-3.48 2.348-3.124-10.228-4.024 1.228zm14.24-39.396l-4.872 34.84h14.268c1.544 0 3.12-.164 4.724-.492a15.2 15.2 0 0 0 4.432-1.624 11.27 11.27 0 0 0 3.44-2.98c.956-1.228 1.56-2.76 1.824-4.6a8.392 8.392 0 0 0-.1-3.148 6.784 6.784 0 0 0-1.18-2.584 6.624 6.624 0 0 0-2.14-1.82 8.824 8.824 0 0 0-2.976-.96v-.1c1.868-.556 3.452-1.48 4.748-2.78 1.296-1.292 2.076-2.924 2.336-4.896.264-1.9.1-3.428-.492-4.576a6.36 6.36 0 0 0-2.584-2.68 11.128 11.128 0 0 0-3.936-1.28 31.8 31.8 0 0 0-4.504-.32H45.328zM51.04 58.8l1.032-7.432h5.216c.592 0 1.188.056 1.8.172.6.116 1.136.304 1.596.564a2.648 2.648 0 0 1 1.056 1.108 3 3 0 0 1 .224 1.8c-.1.688-.32 1.28-.664 1.768a4 4 0 0 1-1.28 1.18 5.744 5.744 0 0 1-1.648.64c-.592.132-1.184.2-1.772.2h-5.56zm-2.02 14.416l1.132-7.92h5.808c.624 0 1.288.048 1.992.144.704.1 1.352.28 1.944.544a3.084 3.084 0 0 1 1.38 1.156c.328.508.44 1.172.344 1.992a4 4 0 0 1-.74 1.92 5.088 5.088 0 0 1-3.124 1.968 9.428 9.428 0 0 1-1.844.196H49.02zm37.04-27.792l-9.804-1.396-5.072 30.684 6.728.472 8.148-29.76zm-7.104 32.864l-9.016-2.176-2.048 10.084 8.948 2.608 2.12-10.516z"/></svg>