<svg width="64" height="64" viewBox="0 0 128 128" xmlns="http://www.w3.org/2000/svg"><path d="M64 128C28.652 128 0 99.348 0 64S28.652 0 64 0s64 28.652 64 64-28.652 64-64 64zm39.536-45.052c.08-.16.172-.304.252-.472A43.58 43.58 0 0 0 81.9 23.864V23.8c-.44-.196-.888-.336-1.328-.52a37.008 37.008 0 0 0-1.76-.68 30.976 30.976 0 0 0-2.416-.788 41.36 41.36 0 0 0-5.876-1.32A42.236 42.236 0 0 0 63.592 20c-.496 0-.992 0-1.48.04a43.256 43.256 0 0 0-8.592 1.224 42.224 42.224 0 0 0-5.976 1.928 42.412 42.412 0 0 0-3.744 1.704c-.788.412-1.572.852-2.36 1.308a30.36 30.36 0 0 0-1.26.784 163.16 163.16 0 0 0-2.296 1.572 49.8 49.8 0 0 0-3.324 2.668 44.72 44.72 0 0 0-3.02 2.98 42.38 42.38 0 0 0-2.752 3.328 24.08 24.08 0 0 0-1.092 1.572c-.268.392-.568.784-.828 1.16-.26.38-.392.704-.6 1.048-.28.472-.556.952-.784 1.44-.48.872-.936 1.752-1.352 2.64a1.36 1.36 0 0 0-.316.528 7.624 7.624 0 0 1-.256.668 41.804 41.804 0 0 0-2.336 7.064 44.188 44.188 0 0 0-1.172 8.296c0 .6-.048 1.2-.048 1.808 0 .784 0 1.572.064 2.36 0 .62.068 1.24.124 1.86.072.788.18 1.576.292 2.36.056.568.188 1.2.268 1.8.148.788.336 1.572.532 2.36.176.584.28 1.124.436 1.692.236.784.508 1.62.784 2.42.18.512.36 1.024.56 1.528.32.784.68 1.62 1.052 2.412a37.856 37.856 0 0 0 1.952 3.712c.276.472.548.936.84 1.392.448.7.928 1.384 1.416 2.06.352.496.716.984 1.092 1.464.38.48.976 1.172 1.48 1.744a37.788 37.788 0 0 0 2.852 2.956 37.384 37.384 0 0 0 3.2 2.736c.72.56 1.44 1.096 2.196 1.576.2.132.368.28.568.416a43.588 43.588 0 0 0 61.168-12.984h.048c.148-.236.268-.488.416-.732.32-.524.62-1.076.928-1.628.456-.744.88-1.524 1.268-2.32zm-56.224 18a40.52 40.52 0 0 1-11.264-7.572 34.976 34.976 0 0 1-1.304-1.272c-.424-.44-.896-.968-1.32-1.456s-.912-1.052-1.344-1.572c-.436-.52-.68-.896-1.008-1.352-.448-.632-.896-1.26-1.304-1.904-.268-.424-.52-.848-.788-1.28-.408-.7-.788-1.408-1.18-2.124-.22-.424-.416-.86-.62-1.292-.308-.776-.64-1.508-.936-2.264-.18-.456-.34-.92-.504-1.376a37.808 37.808 0 0 1-.74-2.256c-.148-.512-.272-1.016-.4-1.52-.18-.736-.352-1.48-.496-2.216-.1-.58-.188-1.092-.292-1.636a41.048 41.048 0 0 1-.272-2.2c-.056-.56-.088-1.12-.12-1.676 0-.748-.064-1.492-.064-2.24 0-.544 0-1.084.048-1.62 0-.788.088-1.572.168-2.36.044-.488.116-.984.18-1.472a39.82 39.82 0 0 1 .716-3.804c.22-.908.48-1.808.784-2.704.116-.368.24-.736.36-1.1a40.792 40.792 0 0 1 1.552-3.848c.392-.848.788-1.668 1.264-2.48.244-.428.48-.86.74-1.292a44.364 44.364 0 0 1 2.328-3.46 42.46 42.46 0 0 1 2.54-3.06 81.553 81.553 0 0 1 1.732-1.8 41.988 41.988 0 0 1 3.028-2.636c.348-.28.704-.54 1.068-.784a28.416 28.416 0 0 1 2.132-1.464 44.448 44.448 0 0 1 3.344-1.92 46.604 46.604 0 0 1 3.444-1.572 39.368 39.368 0 0 1 7.2-2.148 35.64 35.64 0 0 1 2.264-.384c.492-.068.988-.132 1.488-.188a42.955 42.955 0 0 1 2.492-.18h1.352c.86 0 1.72.02 2.588.06l1.344.096a37.708 37.708 0 0 1 3.972.552 39.584 39.584 0 0 1 3.976.964 36.696 36.696 0 0 1 3.832 1.36 40.348 40.348 0 0 1 21.152 55.048c-.36.784-.788 1.48-1.16 2.2-.28.488-.548.984-.84 1.464a40.584 40.584 0 0 1-51.132 15.732zm16.608-3.3A33.712 33.712 0 0 0 97.568 63.96 33.672 33.672 0 1 0 63.92 97.648zm0-56.312v-.016a22.664 22.664 0 0 1 22.612 22.64A22.64 22.64 0 1 1 63.92 41.336z"/></svg>