<svg width="64" height="64" viewBox="0 0 128 128" xmlns="http://www.w3.org/2000/svg"><path d="M64 128C28.652 128 0 99.348 0 64S28.652 0 64 0s64 28.652 64 64-28.652 64-64 64zM39.864 84.376c9.548 8.412 22.648 7.312 30.532.192 8.084-7.3 9.892-19.024 4.312-28.204-3.692-6.076-9.12-9.632-16.176-10.708-7.124-1.088-13.24 1.172-18.732 5.76 0-3.968-.012-7.76.008-11.544a7.564 7.564 0 0 0-2.168-5.452A7.7 7.7 0 0 0 32 32v57.468h7.864v-5.092zm-.016-16.56c0-8.44 6.904-15.272 15.432-15.28a15.336 15.336 0 0 1 15.432 15.472c-.004 8.336-6.9 15.148-15.388 15.2a15.396 15.396 0 0 1-15.48-15.392zM65.3 89.364c8.584 2.64 16.096.936 22.888-4.756v11.48c0 2.124.72 3.98 2.208 5.504 1.516 1.552 3.38 2.348 5.604 2.408V46.524h-7.88v5.104C85 49.036 81.664 47.14 77.8 46.264c-3.892-.88-7.728-.628-11.664.452l.632.384c2.068 1.188 4.008 2.568 5.608 4.336.864.952 1.788 1.436 3.08 1.68 8.68 1.656 13.932 9.28 12.444 17.92-1.132 6.572-7.148 11.952-13.828 12.336a2.112 2.112 0 0 0-1.52.72 22.852 22.852 0 0 1-6.604 4.884c-.172.088-.336.2-.648.388z"/></svg>