<svg width="64" height="64" viewBox="0 0 128 128" xmlns="http://www.w3.org/2000/svg"><path d="M64 128C28.652 128 0 99.348 0 64S28.652 0 64 0s64 28.652 64 64-28.652 64-64 64zM32 36.156v55.688C32 94.14 33.888 96 36.216 96h29.728c18.736 0 25.696-3.02 29.96-7.224a14.416 14.416 0 0 0 4.08-10.784c0-8.496-5.28-12.72-15.672-14.536 10.76-2.204 14.748-7.224 14.748-14.628a13.72 13.72 0 0 0-3.92-10.424C90.788 34.112 84.472 32 66.568 32H36.216C33.888 32 32 33.86 32 36.156zm23.044 23.848v7.268a2.748 2.748 0 0 0 .816 2.04c.544.544 1.292.84 2.064.82h9.52c6.104 0 10.644.16 12.788 2.272a5.149 5.149 0 0 1 1.384 3.84 4.88 4.88 0 0 1-1.384 3.744c-2.12 2.112-6.66 2.568-12.788 2.568h-18V45.628h18.184c5.644 0 9.816.34 11.776 2.268.88.948 1.32 2.22 1.2 3.5a4.754 4.754 0 0 1-1.292 3.564c-1.936 2-6.108 2.272-11.684 2.272h-9.772a2.792 2.792 0 0 0-2.812 2.772z"/></svg>