<svg width="64" height="64" viewBox="0 0 128 128" xmlns="http://www.w3.org/2000/svg"><path d="M64 128C28.652 128 0 99.348 0 64S28.652 0 64 0s64 28.652 64 64-28.652 64-64 64zm24.6-69.72a.36.36 0 0 0-.32.2v-1.76l-.44.24c-.28.28-.28.32-.28.76V61a2.8 2.8 0 0 0 0 .96 2.88 2.88 0 0 1-.36 1.6l-.72.48h-.36a.72.72 0 0 1 0-.36v-1.32h-.28a1.96 1.96 0 0 0-.36.56 4.4 4.4 0 0 0-.56 2.16c-.096.6-.096 1.2 0 1.8a2.44 2.44 0 0 1-.48 2.28.8.8 0 0 1-.48.28.84.84 0 0 0-.76.48l-.24.52a6.12 6.12 0 0 1-.36-1.24v-1.52a4 4 0 0 0-.68.56 12 12 0 0 0-1.8 5.88c-.08.48-.08 1.04-.84.96-.76-.08-1.12.6-1.32.96-.2.36-.4.36-.68 0a2.16 2.16 0 0 1 0-2.28l.28-.56a1.56 1.56 0 0 0-1.32.28 9.2 9.2 0 0 0-2.84 2.56l-1.72 2.76a12 12 0 0 1-2.08 2.84 5.48 5.48 0 0 1-4.92 1.32 9 9 0 0 1-3.8-2.16 18.76 18.76 0 0 1-3.04-4 13.36 13.36 0 0 1-1.32-4c-.08-.28-.2 0-.56 0-1 .6-2.168.84-3.32.68a4 4 0 0 1-3.2-2.76.96.96 0 0 0-.36-.48c-.28-.28-.68-.48-.96-.76a3.32 3.32 0 0 1-.68-2.16 1.36 1.36 0 0 1-1.72-.96 3.36 3.36 0 0 1 0-3.4.56.56 0 0 0 0-.36c-.68-.76-2-2.08-2-2.08v-.36A10.66 10.66 0 0 1 46 57.4a.6.6 0 0 0 0-.68 1.72 1.72 0 0 1 0-1.56 5.76 5.76 0 0 1 .96-1.32l-1.4-.36-4-.84a1.28 1.28 0 0 0-.84 0 14.88 14.88 0 0 0-3.12 2.84 13.84 13.84 0 0 0-.84 1.24V57l.48-.28.68-.72a14.44 14.44 0 0 0-1.04 1.52c-.76 1.48-1.6 3-2.28 4.52a4.92 4.92 0 0 0-.68 2.56v.48l.36-.36a2.84 2.84 0 0 0 .36-.64 17.64 17.64 0 0 0-.68 2.08 18.52 18.52 0 0 0-.84 5.96c.068.86.324 1.696.76 2.44.08.36.56.56.56.36v-2.2c.3.772.552 1.56.76 2.36.172.68.292 1.38.36 2.08.28 1.4.48 2.84.84 4.24a5.798 5.798 0 0 0 1.04 1.6h.76v-.68l-.28-.56a2.08 2.08 0 0 1 0-1.52l2.56 2.84a.36.36 0 0 1 0 .28c.096 1.32.452 2.612 1.04 3.8a3.2 3.2 0 0 0 3.04 2h.48c-.36-.2-.16-.16-.36-.48-.2-.32-.48-.36-.68-.68-.2-.32.2-.68.48-.68a3.4 3.4 0 0 1 1.04.36 31.2 31.2 0 0 0 5.96 3.4l2.76 1.12.96.36c-.64 1.8-1.32 3.52-1.88 5.12-.4-.84-.76-1.8-1.24-2.64l-.56-1.12a1.72 1.72 0 0 0-1.24-.96A4 4 0 0 1 48 92.4c-.76-.08-1.88.2-2.16.96a2.4 2.4 0 0 1 2.36.48c-.48 1.04-.2 1.72.76 2a1.52 1.52 0 0 1 1.12 1.4 5.42 5.42 0 0 1 .28 2.16 2.16 2.16 0 0 1-1.4-1.12 6.04 6.04 0 0 0-2.64-2.44c-.76-.4-1.6-.56-2.16.28h-.36a5.36 5.36 0 0 0-1.24 0c-.92.16-1.32 1.04-1.6 1.88a3.4 3.4 0 0 1 1.88-.56c.2 0 .36.16.36.36a.92.92 0 0 0 1.04.76l2.16.84a3.2 3.2 0 0 1 1.88 1.8h-.56a18.2 18.2 0 0 0-2.28 0 5.96 5.96 0 0 0-2.84.96 3.32 3.32 0 0 0-1.72 1.72 1.32 1.32 0 0 0 0 .84v.56a3.16 3.16 0 0 0 0 .96 3 3 0 0 0 .84 1.52 4 4 0 0 1 .48-2.56c1.12.56 1.52.48 2.36-.48l.56-.72a2.68 2.68 0 0 1 2.08-.28l2.84.36a.48.48 0 0 1 0 .28 8.28 8.28 0 0 1-2 2.08 2.48 2.48 0 0 0-.84 3.2 1.6 1.6 0 0 1 0 .68 1.68 1.68 0 0 0 1.2 2.08v-1.52a1.8 1.8 0 0 0 2.28-1.04 8 8 0 0 0 .68-2 4.28 4.28 0 0 1 2.36-2.76 3.48 3.48 0 0 0 2.08-1.4l.28.36a2.96 2.96 0 0 0 2.76 1.6c.2 0 .36.16.36.36l.28 1.92c.2-.28.68-.56.68-.84a3.72 3.72 0 0 0 .36-2.84.44.44 0 0 1 0-.48 1.28 1.28 0 0 0 0-1.52 4 4 0 0 0-1.88-1.88l-1.52-.68.56-.28 1.72-.84c.2 0 .36-.28.56 0 .2.28.48.56.48.84a5.8 5.8 0 0 1-.28 1.04h.48a3.08 3.08 0 0 0 1.8-2.36c.08-.56.4-1.04.76-1.04s.76-.28 1.04 0a1.08 1.08 0 0 1 .28 1.04l-.28.84c.56-.36 1.12-.68 1.6-1.04a4.77 4.77 0 0 0 2.08-3.12 1.72 1.72 0 0 1 1.12-1.12 23.76 23.76 0 0 0 2.56-.36 39.24 39.24 0 0 0 4.52-1.04 24.84 24.84 0 0 0 6.24-2.84c1.44-.88 2.76-1.72 4-2.76a23.6 23.6 0 0 0 3.12-3.04 27.2 27.2 0 0 0 2.56-3.2 37.783 37.783 0 0 0 2.44-4.24 24 24 0 0 0 2-5.12 30.8 30.8 0 0 0 1.12-7.08 41.12 41.12 0 0 0 0-4.84 6.4 6.4 0 0 0 0-1.32l2.84.76a3.4 3.4 0 0 1-.68.96 1.56 1.56 0 0 0-.56 1.8c.3.688.704 1.32 1.2 1.88a1.96 1.96 0 0 0 1.6.68c-.2-.32.08 0-.48-.68-.56-.68-.56-.76 0-1.24a2.52 2.52 0 0 0 .48-.56 3.4 3.4 0 0 0 .36-1.04l.84.36a4.4 4.4 0 0 1 2.2 2.08 1.04 1.04 0 0 0 1.32.68c.48-.08.76 0 .76.48v.2h.2a1 1 0 0 0 .48-1.32c-.28-.6-.68-1.16-.96-1.72a3.4 3.4 0 0 0-2.52-1.72 12.88 12.88 0 0 0 1.32-.76 1.76 1.76 0 0 1 1.8 0 .72.72 0 0 0 1 0 .52.52 0 0 1 .72 0l.76.56a.72.72 0 0 0 0-.36 2 2 0 0 0-.68-1.32 1.4 1.4 0 0 1-.48-.56 1.48 1.48 0 0 0-1.72-.84 13.68 13.68 0 0 1-1.52.36 6.12 6.12 0 0 1 .76-.84c.56-.36.84-.56.56-1.12l1.32-.64a1.4 1.4 0 0 0-1.4-.84 3.6 3.6 0 0 1-1.4 0 .72.72 0 0 0-.48 0c-.48.2-.56.84-.76 1.24a3.44 3.44 0 0 0-.48 1.24c-.36-.76-.68-.84 0-1.6.68-.76.56-1.12 0-1.8a1.6 1.6 0 0 0 0-1.6 1.56 1.56 0 0 0-1.2 1.44h-.36c-.76-.12-1.12.64-1.12 1.4.048.88.048 1.76 0 2.64h-.28a1.96 1.96 0 0 0-.36-.56 37.52 37.52 0 0 0-2.76-2.76 7 7 0 0 0-3.04-1.8c-.28 0-.28-.36-.28-.36a9.04 9.04 0 0 0-1.8-3.2 4.32 4.32 0 0 1-1.24-2.76c0-.28-.36-.48-.36-.76a6.68 6.68 0 0 0-.28 4.56 5.42 5.42 0 0 1 .28 2.16 4 4 0 0 0-.8.48c-.2.2-.68.76-.68.48v-.28a1.2 1.2 0 0 0 0-.56 1.32 1.32 0 0 0-.28-.36l-.28.28a1.2 1.2 0 0 1 0 .56 6.84 6.84 0 0 0 .28 4.36 1.6 1.6 0 0 1 0 1.12 2.24 2.24 0 0 1 0 .76c-.56-.2-.56.08-.56.36l-.28.56zM39.44 40.04a1.44 1.44 0 0 1 .48.68 13.893 13.893 0 0 0 4.24 1.8c1.68.52 3.68.8 5.68 1.2.988.06 1.964.22 2.92.48a22.166 22.166 0 0 1 5.76 2.44.6.6 0 0 0 .56 0c.84-.28 1.6-.68 2.44-.96a14.88 14.88 0 0 1 4.64-.76h2.44c1.128.18 2.24.46 3.32.84a13.788 13.788 0 0 1 5 3.2v-1.4c0-1.24.74-2.36 1.88-2.84a2.32 2.32 0 0 1 2.56.52 3.72 3.72 0 0 1 .96 2.56 26.6 26.6 0 0 1 0 4 4 4 0 0 1-1.12 2.36v.68c.724 1.736 1.08 3.6 1.04 5.48a16.6 16.6 0 0 1-.28 3.8v.76c.2-.2.24 0 .56-.56.32-.56.4-1.24.68-1.8a3.28 3.28 0 0 1 2.48-2.24V58.2a4 4 0 0 1 1.8-3.32v-.28a11.44 11.44 0 0 1 0-3.6 3.44 3.44 0 0 1 1.24-2.36.56.56 0 0 0 0-.36 24 24 0 0 1 0-2.64 11.24 11.24 0 0 0 .56-4 5.16 5.16 0 0 0-.56-1.72 12.32 12.32 0 0 1-.96-1.4 14.72 14.72 0 0 0-1.52-1.88 2.16 2.16 0 0 0-1.6-.76c.28.76 1.12 1.32.76 2.36a6.12 6.12 0 0 0-.84-.76.96.96 0 0 1-.56-.68 5.28 5.28 0 0 0-1.6-2.36 2.56 2.56 0 0 0-2.44-.76l.36.28a1.88 1.88 0 0 1 1.04 1.32v.84h-.56c-.48-.28-.92-.68-1.6-1.04a4.88 4.88 0 0 0-2.88-3.28 5.04 5.04 0 0 0-1.72-.48c-.36-.28-.68 0-1.04 0h.28a1.52 1.52 0 0 1 1.04 1.4 2.08 2.08 0 0 1-.48.16h-.28a1.96 1.96 0 0 0-1.8-.76 7.32 7.32 0 0 0-.68-1.52 4.4 4.4 0 0 0-3.12-1.88 3.44 3.44 0 0 0-1.32 0v.6h.8a1.08 1.08 0 0 1 .52 1.44c-.08-.36.12-.08-.36-.36a4 4 0 0 0-1.6-.28 2.28 2.28 0 0 1-.68-.28 4.96 4.96 0 0 0-2.08-1.6 3.44 3.44 0 0 0-3.4.48h.28a1.12 1.12 0 0 1 1.12.84v.36h-.28a1.48 1.48 0 0 0-1.52 0 1.12 1.12 0 0 1-1.12-.36h-.28a4 4 0 0 0-2.16-.84 3.32 3.32 0 0 0-2.44.64.44.44 0 0 0 0 .6c.36 0 0 .28.36 0s.48.08.84.28.36.48 0 .48l-1.4.48c-.68.36-1.52 0-1.8 0h-.16a5.64 5.64 0 0 0-3.32 0c-.64.28-1.32.84-1.32 1.52a.72.72 0 0 0 .36 0c.36-.48.76-.2 1.04 0s.36.56 0 .56l-2.28 1.24a.64.64 0 0 1-.56 0 4.72 4.72 0 0 0-3.2 0A2.36 2.36 0 0 0 41.24 36v.48h.36c.32 0 .68-.28.68 0s.28.56 0 .84a1.64 1.64 0 0 0-.48.36l-2.36 2.36zm37.8 18.8l-.88.04a2.2 2.2 0 0 1-2-1.8.92.92 0 0 0-.84-.84c-.84.08-1.04-.4-1.32-.96a1.2 1.2 0 0 1 0-.56 1.92 1.92 0 0 1 2-1.52h3.4a2.2 2.2 0 0 0 2.44-1.88 9.36 9.36 0 0 0 0-4c0-.32.12-.68-.36-.68s-.48.28-.48.56v2.56a2.04 2.04 0 0 1-1.76 1.64 4 4 0 0 1-2.08 0 11.72 11.72 0 0 0-2.56-.28 2.92 2.92 0 0 0-3.04 1.6c-.2.36.2.56-.56 1.04A21.32 21.32 0 0 1 66.92 55a.84.84 0 0 1-1.04 0 3.4 3.4 0 0 0-3.4-.48H62a1.2 1.2 0 0 1-.56-1.24 5.76 5.76 0 0 0 0-4 1.6 1.6 0 0 0-1.72-.84c-.64.28-1.2.56-1.88 0a12 12 0 0 0-5.76-2.76c-1.8-.4-3.68-.68-5.48-.96-1.12-.2-2.28-.4-3.4-.68a14.52 14.52 0 0 1-5.36-2.64 38.24 38.24 0 0 1-1.8-1.72L35 38.56a.88.88 0 0 0-.68 0v.84a6.401 6.401 0 0 0 2.16 3.04 13.68 13.68 0 0 0 4 2.28c1.4.428 2.832.76 4.28 1l2.64.28a20 20 0 0 1 5.68 1.32c.968.42 1.92.884 2.84 1.4v.44a9.28 9.28 0 0 1-1.52.48.44.44 0 0 1-.48 0c-1.24-.48-2.48-1.04-3.8-1.52a11.08 11.08 0 0 0-2.56-.48l-2.28-.28c-1.04-.28-1.88-.08-3.12-.28-1.24-.2-2.44-.48-3.68-.76a12.6 12.6 0 0 1-4.24-2c-1.04-.76-2-1.8-3.04-2.64l-.64-.36h-.48v.48a5.6 5.6 0 0 0 .56 1.32c1.04 1.6 2.4 2.96 4 4a18.433 18.433 0 0 0 5 2.2 22.4 22.4 0 0 0 4.52 1.12c1.104.136 2.184.432 3.2.88 1.12.36 2.28.92 3.4 1.4a8 8 0 0 1 1.24.84 4.8 4.8 0 0 1-2.08 1.04l-2.16.4a1.32 1.32 0 0 0-1.04.96c1.3.048 2.58.308 3.8.76a4.682 4.682 0 0 1 2.92 2.96l-.28-.28a6.88 6.88 0 0 0-2.64-1.6 4.96 4.96 0 0 0-3.32 0c-.56.4-1.24 1.04-1.6 1.32-.36.28-.28.48 0 .76a8.457 8.457 0 0 0 3.04 2h-.48a2.24 2.24 0 0 0-1.6 1.8 4 4 0 0 1 0 .48h.48c.28 0 .6-.28.96 0a3.28 3.28 0 0 1 1.24 1.04.6.6 0 0 1 0 .56 9.28 9.28 0 0 0-.48 1.52c-.28.08-.2.56 0 .56a2 2 0 0 0 .48-.36l.28.56a3.72 3.72 0 0 0 .76 1.32 3.16 3.16 0 0 0 3.68.56 16 16 0 0 0 2.08-1.4 1.16 1.16 0 0 1 .76-.36 4.56 4.56 0 0 1 1.12 0 .44.44 0 0 1 .36.28 1.4 1.4 0 0 1-.36 1.32 10 10 0 0 0-1.12.96 2.6 2.6 0 0 0 1.88 0 4.56 4.56 0 0 0 1.88-1.4 1.52 1.52 0 0 0 .36-1.12 20.32 20.32 0 0 1-.76-2.84c-.08-.76-.36-1.24-1.12-1.24a1.36 1.36 0 0 1 0 .56c-.28.36-.2.36-.76 0l-1.6-1.12a2.28 2.28 0 0 1-1.04-2.08.76.76 0 0 1 .76-.76 2 2 0 0 1 1.04 1.8 1.4 1.4 0 0 1 0 .56l.84-.56 1.8.48c.6.048 1.2.048 1.8 0a6.16 6.16 0 0 0 0 1.32c.312 1.796.92 3.524 1.8 5.12.76 1.48 1.6 3 2.28 4.52a3.76 3.76 0 0 1 .28 3.04v.28a2.32 2.32 0 0 1-3.04 1.24 6.04 6.04 0 0 1-2-2.28 51.9 51.9 0 0 1-1.6-2.36 1.04 1.04 0 0 0-1.04-.68v.56c.184.588.412 1.164.68 1.72.48.76 1.04 1.52 1.6 2.28a8.625 8.625 0 0 0 2.36 2.16 3.6 3.6 0 0 0 5.76-3.2 9.48 9.48 0 0 0-.68-4c-.56-1.24-1.24-2.6-1.8-4a11.56 11.56 0 0 1-1.32-4.96 3.4 3.4 0 0 1 1.04-2.28c0 .28.28-.2 0 .28a2.8 2.8 0 0 0-.28 1.52c1.4-.28 1.96-1.32 2.44-2.56a2.88 2.88 0 0 0 0 .84 2 2 0 0 0 .36.48.8.8 0 0 0 .56-.28 10.04 10.04 0 0 0 .84-1.04c.244.16.472.352.68.56.56.84.96.76 1.24 0a1.68 1.68 0 0 1 .96-1.12c.348.372.72.72 1.12 1.04h.56a1.92 1.92 0 0 0 0-.48v-1.4c1.32.36 2.56.2 2.56-.48zm-22.28-2.76l.44-.48a4 4 0 0 0 2.08 0l.68-.28a2.04 2.04 0 0 1 1.04 0 1.28 1.28 0 0 1 .68.84v.28a14.44 14.44 0 0 1-1.52 1.04 1.56 1.56 0 0 1-1.88 0 19.48 19.48 0 0 1-1.52-1.4zM68 57.4a5.56 5.56 0 0 1 3.76.2c.28.228.532.48.76.76-.28.08-.48.36-.76.36a7.28 7.28 0 0 1-1.4 0 3.16 3.16 0 0 0-1.8-1.04 1.4 1.4 0 0 1-.56-.28zM18.16 69.72a1.48 1.48 0 0 1 .08.84 3.04 3.04 0 0 0 2.68 2.16c.76.096 1.52.096 2.28 0a6.16 6.16 0 0 0 2.2-.6 5.92 5.92 0 0 0 2.64-2.84c.36-.84.76-1.6 1.04-2.44l1.12-3.2c.48-1.4 1.04-3 1.6-4.24.56-1.24 1.2-2.36 1.88-3.6a21.28 21.28 0 0 1 3.2-4.44l.56-.48-1.32-.56-2.08-1.12c-.2 0-.56-.28-.56 0a35.16 35.16 0 0 0-1.8 3.2c-.84 1.8-1.4 3.68-2.16 5.48a6 6 0 0 1-1.32 2.08 4.72 4.72 0 0 1-4 1.24 6.4 6.4 0 0 1-1.88-.68 2.24 2.24 0 0 1-1.12-1.6 3.56 3.56 0 0 0 .2 5.8 5.122 5.122 0 0 0 5.8 0 14.16 14.16 0 0 1 1.2-1.04 5.48 5.48 0 0 1-6.04 2.96h-.56a5.24 5.24 0 0 1-3.44-6.56 5.2 5.2 0 0 0-2.16 5.76 5.309 5.309 0 0 0 2.56 3.48 6.48 6.48 0 0 0 4.44.56 1.6 1.6 0 0 1-1.04.96 4 4 0 0 1-4-1.12zm56.28-3.2c.28 0 .28 0 1.28.32H76v-.36a1.88 1.88 0 0 0-.68-1.52 12 12 0 0 1-2-1.8.96.96 0 0 0-.48-.36l-.68-.28v.84c0 .2.36.76 0 .76l-1.04.56c-1.44-1.72-1.44-1.24-2-1.24.08.28.36.48.36.76a1.56 1.56 0 0 1 0 1.32 1.88 1.88 0 0 1-2.28 0l-.4-.48c.184 1.48.628 2.92 1.32 4.24h.56a3.48 3.48 0 0 1 1.04-.48.92.92 0 0 1 1.2.48l.28.84h.44a.96.96 0 0 0 .36-.48 2.32 2.32 0 0 0 0-2.08h.48l1.12.56c.48.28.84.28.84-.28a6.16 6.16 0 0 0 0-1.32zM27.2 60.16a3.12 3.12 0 0 0-.8-3.08 1.8 1.8 0 0 0-1.8-.36 1.16 1.16 0 0 0-.68 1.12c0 .28-.12.48-.48.28-.36-.2-.68-.68-1.04-.68a1.52 1.52 0 0 0 1.12 2.16c.372.048.748.048 1.12 0a4.2 4.2 0 0 1 2.56.56z"/></svg>