<svg width="64" height="64" viewBox="0 0 128 128" xmlns="http://www.w3.org/2000/svg"><path d="M64 128C28.652 128 0 99.348 0 64S28.652 0 64 0s64 28.652 64 64-28.652 64-64 64zm28.756-71.92c1.256-8.384-5.132-12.892-13.86-15.9l2.832-11.36-6.912-1.72-2.76 11.06c-1.816-.456-3.68-.88-5.54-1.304l2.78-11.132L62.384 24l-2.832 11.356c-1.504-.344-2.984-.68-4.416-1.04l.008-.036-9.536-2.38-1.84 7.384s5.132 1.176 5.024 1.248c2.8.7 3.304 2.552 3.22 4.024l-3.224 12.94c.192.048.44.12.72.228l-.732-.18-4.52 18.128c-.344.848-1.212 2.124-3.172 1.64.072.1-5.024-1.252-5.024-1.252l-3.432 7.912 9 2.244c1.672.42 3.312.86 4.924 1.272l-2.86 11.488 6.908 1.72 2.832-11.36c1.888.508 3.72.98 5.512 1.428l-2.824 11.312 6.912 1.72 2.86-11.464C77.684 94.564 86.548 93.664 90.28 83c3.008-8.584-.148-13.54-6.352-16.768 4.52-1.04 7.92-4.012 8.828-10.152zm-15.8 22.152c-2.132 8.588-16.592 3.944-21.28 2.78l3.8-15.22c4.688 1.172 19.716 3.488 17.48 12.44zm2.14-22.276c-1.948 7.812-13.98 3.84-17.88 2.868l3.44-13.8c3.9.972 16.472 2.784 14.44 10.932z"/></svg>