<svg width="64" height="64" viewBox="0 0 128 128" xmlns="http://www.w3.org/2000/svg"><path d="M64 128C28.652 128 0 99.348 0 64S28.652 0 64 0s64 28.652 64 64-28.652 64-64 64zm4.312-50.576c3.632 5.688 5.38 17.6 5.072 21.868 47.856-16.452 32.864-69.024.96-71.292 0 11.78-2.712 21.288-6.032 21.288 13.068.8 20.32 21.868 0 28.136zM24 71.2c23.816 0 43.092-19.292 43.092-43.16H44.848c.04 11.692-9.268 21.248-20.804 21.292H24V71.2zm29.148-3.96c-6.028 5.428-9.396 8.228-25.912 10.892 9.744 0 17.612 9.78 17.612 21.868h22.24c0-3.644-.74-21.912-13.94-32.76z"/></svg>