<svg width="64" height="64" viewBox="0 0 128 128" xmlns="http://www.w3.org/2000/svg"><path d="M64 128C28.652 128 0 99.348 0 64S28.652 0 64 0s64 28.652 64 64-28.652 64-64 64zm-9.272-69.96c-1.24.808-2.66 1.664-4.132 2.56v8.084a190.48 190.48 0 0 1 4.132-2.036v-8.612zM34.06 72.988a3.116 3.116 0 0 0 4.16 1.36l3.864-1.948c.024-3.248.04-5.716.04-6.696v-.26c-3.28 1.632-5.768 2.884-6.724 3.36a3.108 3.108 0 0 0-1.34 4.184zm21.836-.82a3.08 3.08 0 0 0 3.08 3.092h.036a3.092 3.092 0 0 0 3.088-3.092V46.556a3.096 3.096 0 0 0-3.092-3.092c-.132 0-.268.016-.4.028a3.072 3.072 0 0 0-2.7 3.052v12.792c-.012 4.296-.012 8.56-.012 12.832zM99.94 52.332c-.196-1.496-1.188-2.328-2.696-2.72-1.2-.308-2.44-.368-3.704-.38-2.944-.012-5.864.464-8.76 1.028-4.184.812-8.32 1.852-12.388 3.12-1.228.376-2.44.768-3.668 1.16l-.012-.048.22-.184c2.368-2.024 4.72-4.048 7.104-6.048 5.224-4.416 9.936-9.26 14.312-14.372 1.192-1.388 2.22-2.872 2.748-4.564.8-2.54-.096-4.12-2.672-4.832a13.192 13.192 0 0 0-3.336-.368c-2.456-.012-4.88.392-7.276.88-2.5.52-6.12 1.44-8.572 2.184-3.924 1.2-8.772 3.264-13.1 5.016-2.208.86-4.56 1.964-6.76 2.824l-8.316 3.384c-11.04 4.748-14.252 1.336-14.252 1.336 0 .016.004.028.012.04a.368.368 0 0 1-.048-.1c-2.148 4.232-.36 11.92 12.056 6.428 1.952-.76 3.936-1.584 5.876-2.332 3.74-1.46 7.444-3.264 11.2-4.708a209 209 0 0 1 7.812-3.032l2.368-.92c2.428-.8 4.856-1.592 7.332-2.208 2.7-.696 5.056-1.116 6.48-.932.144.012.292.024.428.052.648.084.992.428.932.88-.024.7-1.152 3.02-11.42 11.568-.748.64-1.496 1.288-2.244 1.924-1.152.996-2.268 1.976-3.4 2.96l-.944.832-.012.012-.44.392a.892.892 0 0 1-.112.1l-.108.096-.86.652a2.46 2.46 0 0 1-.184.16v10.852c3.632-1.24 21.304-7.136 23.208-5.408.148.2 2.392 1.596-18.156 15.652-.808.612-1.592 1.224-2.4 1.84l-2.972 2.268c-3.716 2.688-7.408 5.384-11.12 8.072l-1.612 1.164c-.024 2.932-.036 5.74-.048 8.32l39.2-28.928a76.784 76.784 0 0 0 6.784-6.464c1.2-1.284 2.28-2.648 2.992-4.204.368-.812.64-1.596.528-2.44zM36.072 96.82a3.312 3.312 0 0 0 .208 4.38 3.284 3.284 0 0 0 4.076.564l1.568-1.152c.012-2.356.04-5.224.06-8.32l-5.296 3.928a3.56 3.56 0 0 0-.616.6zm13.384-45.04a3.096 3.096 0 0 0-2.992-2.292 3.072 3.072 0 0 0-3.104 3.08V65.36c0 2.588-.112 15.432-.208 26.088-.024 3.056-.052 5.924-.064 8.32-.024 3.04-.036 5.32-.036 6.252a3.08 3.08 0 0 0 3.08 3.092h.036a3.092 3.092 0 0 0 3.092-3.092c0-2.144.024-6.06.048-10.856.012-2.56.04-5.384.048-8.316.088-13.332.208-29.04.2-34.28a3.436 3.436 0 0 0-.1-.788z"/></svg>