<svg width="64" height="64" viewBox="0 0 128 128" xmlns="http://www.w3.org/2000/svg"><path d="M64 128C28.652 128 0 99.348 0 64S28.652 0 64 0s64 28.652 64 64-28.652 64-64 64zm16.86-99.2l-6.892-1.72-2.692 11.104c-1.816-.468-3.68-.884-5.492-1.304l2.744-11.16L61.64 24l-2.8 11.368c-1.5-.364-2.948-.68-4.4-1.04l-9.48-2.4-1.816 7.404s5.128 1.2 5.024 1.252c2.8.68 3.32 2.556 3.216 4.016l-2.076 8.344-1.812 7.248-3.884 15.648c-.364.832-1.192 2.136-3.16 1.668.048.104-5.028-1.252-5.028-1.252L32 84.132l8.96 2.24c1.66.42 3.32.888 4.928 1.304l-2.852 11.528 6.892 1.72 2.8-11.424 2.224-8.344 3.784-15.28c.776.212 1.608.368 2.488.576 2.8.624 5.7.884 8.548 1.096 1.76.156 3.472.208 5.232.208a25.836 25.836 0 0 0 7.72-1.36c2.076-.676 4.508-1.56 6.064-3.232 1.812-1.928 2.696-4.48 3.056-7.04 1.244-8.396-5.128-12.932-13.78-15.96zM80.292 70c-1.92.312-2.904.468-4.82.572l-2.696.156c2.592 1.772 4.2 4.224 3.368 7.612-1.552 6.364-9.792 5.48-15.904 4.12l-2.076 8.452-.1.36-2.644 11.008 6.84 1.72 2.848-11.524c11.712 2.24 20.572 1.356 24.248-9.388 2.332-6.624.624-11.788-2.952-14.968-.052.052-.156.052-.208.104-1.656.68-3.988 1.46-5.904 1.772zm-2.024-13.98c-1.916 7.824-13.936 3.86-17.824 2.868l3.42-13.872c3.888 1.044 16.428 2.816 14.404 11.004z"/></svg>