<svg width="64" height="64" viewBox="0 0 128 128" xmlns="http://www.w3.org/2000/svg"><path d="M64 128C28.652 128 0 99.348 0 64S28.652 0 64 0s64 28.652 64 64-28.652 64-64 64zm0-20c4.54 0 9.052-.696 13.376-2.076a3.552 3.552 0 1 0-2.152-6.768A36.896 36.896 0 0 1 64 100.896c-20.344 0-36.896-16.552-36.896-36.896S43.656 27.104 64 27.104 100.896 43.656 100.896 64c0 3.36-.456 6.712-1.36 9.952a3.553 3.553 0 1 0 6.844 1.912A44.07 44.07 0 0 0 108 64c0-24.252-19.748-44-44-44S20 39.736 20 64s19.736 44 44 44zm13.5-44.104a9.408 9.408 0 0 0-5.528-2.128 8.24 8.24 0 0 0 3.068-4.24 9.78 9.78 0 0 0 .216-5.08 10.148 10.148 0 0 0-3.576-5.736 8.552 8.552 0 0 0-3.008-1.508 7.18 7.18 0 0 0-3.52-.06l-2.244.488a1.184 1.184 0 0 1-1.412-.896l-.592-2.672a1.184 1.184 0 0 0-1.412-.896l-2.708.6a1.184 1.184 0 0 0-.908 1.4l.6 2.692a1.184 1.184 0 0 1-.9 1.412l-7.332 1.624a2.888 2.888 0 0 0-2.2 3.44l6.6 29.84a2.888 2.888 0 0 0 3.44 2.2l7.332-1.628a1.184 1.184 0 0 1 1.412.9l.592 2.668a1.184 1.184 0 0 0 1.412.9l2.708-.6a1.184 1.184 0 0 0 .9-1.412l-.596-2.688a1.184 1.184 0 0 1 .88-1.408l1.012-.244c1.632-.36 1.956-.588 3.324-1.296a12.56 12.56 0 0 0 3.472-2.548 8.455 8.455 0 0 0 1.976-3.4 8.245 8.245 0 0 0 .064-4.208c-.528-2.404-1.552-4.244-3.072-5.516zm-21.72-6.388a2.888 2.888 0 0 1 2.2-3.44l5.52-1.224a3.068 3.068 0 0 1 2.444.456c.76.496 1.264 1.328 1.52 2.496.28 1.264.14 2.276-.428 3.028a3.664 3.664 0 0 1-2.2 1.432l-5.22 1.156a2.888 2.888 0 0 1-3.444-2.2l-.392-1.704zm15.636 15.068A3.664 3.664 0 0 1 69 74.212L62.724 75.6a2.888 2.888 0 0 1-3.44-2.2l-.468-2.108a2.888 2.888 0 0 1 2.2-3.44l6.624-1.468a3.056 3.056 0 0 1 2.652.624 4.345 4.345 0 0 1 1.568 2.588 3.804 3.804 0 0 1-.436 2.98h-.008zm13.192 21.532a1.108 1.108 0 0 0-.26.72v1.12c0 .612.496 1.108 1.108 1.108h9.808a1.108 1.108 0 0 0 1.112-1.108v-.86a1.108 1.108 0 0 0-1.112-1.108H91.06a1.108 1.108 0 0 1-.868-1.8l5.864-7.368c.16-.196.244-.44.244-.688v-1.136a1.108 1.108 0 0 0-1.108-1.108H85.76a1.108 1.108 0 0 0-1.112 1.108v.864c0 .612.496 1.108 1.112 1.108h4.128a1.108 1.108 0 0 1 .852 1.82l-6.132 7.328z"/></svg>