<svg width="64" height="64" viewBox="0 0 128 128" xmlns="http://www.w3.org/2000/svg"><path d="M64 128c35.348 0 64-28.652 64-64S99.348 0 64 0 0 28.652 0 64s28.652 64 64 64zm0-116c28.716 0 52 23.284 52 52s-23.284 52-52 52-52-23.284-52-52 23.284-52 52-52zm-.152 7.76c24.348 0 44.092 19.736 44.092 44.088 0 24.348-19.744 44.092-44.092 44.092-24.352 0-44.088-19.744-44.088-44.092 0-24.352 19.736-44.088 44.088-44.088zm0 92.328c26.636 0 48.228-21.592 48.228-48.232S90.48 15.628 63.848 15.628c-26.64 0-48.232 21.592-48.232 48.228 0 26.64 21.592 48.232 48.232 48.232zm8.2-44.176a1.6 1.6 0 0 1 .768 1.54 9.328 9.328 0 0 0 8.772 10.212 9.307 9.307 0 1 0 .72-18.6 9.296 9.296 0 0 0-7.48 3.484 1.6 1.6 0 0 1-2.088.352l-6.88-4.232a1.628 1.628 0 0 1-.772-1.372v-.068c0-.748.52-1.372 1.232-1.56a9.288 9.288 0 0 0 6.924-9.676 9.332 9.332 0 0 0-8.828-8.608 9.304 9.304 0 0 0-3.372 18.12 1.616 1.616 0 0 1 1.108 1.528v.396c0 .58-.32 1.12-.824 1.404l-6.552 3.672a1.592 1.592 0 0 1-1.968-.32 9.28 9.28 0 0 0-7.092-3.108 9.344 9.344 0 0 0-9.144 9.288 9.292 9.292 0 1 0 18.5-1.296 1.6 1.6 0 0 1 .748-1.584l6.804-4.2a1.6 1.6 0 0 1 1.672-.008l7.752 4.64zm-8.06-41.168a21.912 21.912 0 0 0-21.856 20.412 23.96 23.96 0 0 1 7.948.08 13.98 13.98 0 0 1 13.9-12.556 13.988 13.988 0 0 1 13.972 13.984c0 3.96-1.652 7.532-4.3 10.072a14.316 14.316 0 0 1 10.908-2.532A21.908 21.908 0 0 0 63.992 26.74zM45.86 92.04c6.88 0 13.004-3.2 16.984-8.2a23.264 23.264 0 0 1-3.648-8.168 14.336 14.336 0 0 1-13.324 9.036 14.36 14.36 0 0 1 0-28.716 14.26 14.26 0 0 1 8.432 2.748 13.96 13.96 0 0 1-4.3-9.684 21.684 21.684 0 0 0-25.836 21.296A21.684 21.684 0 0 0 45.86 92.04zm36.224 0a21.696 21.696 0 1 0 5.32-42.72 23.188 23.188 0 0 1-1.352 7.232 14.36 14.36 0 0 1-3.968 28.156 14.36 14.36 0 0 1-14.28-12.928 23.54 23.54 0 0 1-7.364.044A21.696 21.696 0 0 0 82.084 92.04z"/></svg>