<svg width="64" height="64" viewBox="0 0 128 128" xmlns="http://www.w3.org/2000/svg"><path d="M64 128C28.652 128 0 99.348 0 64S28.652 0 64 0s64 28.652 64 64-28.652 64-64 64zm0-20c24.3 0 44-19.7 44-44S88.3 20 64 20 20 39.7 20 64s19.7 44 44 44zm-3.952-81.04c1.744-.12 3.5-.2 5.248-.26.02 3.588.012 7.18 0 10.768l-5.24-.008c0-3.5 0-7-.008-10.5zm12.608 10.668h.004c-.008-3.3-.008-6.6.016-9.896 9.72 2.436 18.376 8.788 23.468 17.432 5.764 9.588 6.732 21.832 2.648 32.24-4.304 11.28-14.42 20-26.14 22.86.008-3.28.016-6.552-.008-9.828 5.568-.528 11.668-1.016 16.172-4.72 4.548-3.984 5.6-10.764 4.28-16.42-1.016-4.316-5.084-7.052-9.192-8.008 6.864-3.64 7.584-14.2 1.98-19.228-3.672-3.108-8.62-3.812-13.228-4.432zm-34.984-.14c4.472-3.928 9.536-7.236 15.224-9.08.028 3.088.02 6.176.02 9.264-5.084.008-10.168.06-15.24-.184zm-5.928 7.96c1.48-2.772 3.808-4.968 5.272-7.744.264.34.36.752.284 1.232.036 2.108.068 4.212.372 6.296 2.588.016 5.216-.184 7.78.324 1.552.296 2.488 1.908 2.396 3.4.084 9.256-.024 18.516.052 27.772-.08 1.62.324 3.576-1.084 4.76-2.412.812-5.016.376-7.512.428-.968 2.668-1.636 5.448-1.692 8.28 5.088.28 10.2.092 15.3.144 0 3.08.008 6.168-.012 9.248-9.988-3.212-18.52-10.668-22.82-20.252-4.98-10.692-4.308-23.724 1.664-33.892zm28.52.404c4.432.128 9.304-.544 13.296 1.824 3.42 1.944 3.632 7.436.32 9.6-3.992 2.648-9.052 2.14-13.612 2.224V45.852zm0 20.992h.004c5.448.148 11.412-.784 16.32 2.148 3.612 2.012 4.032 7.76.528 10.088-4.9 3.396-11.22 2.448-16.848 2.904V66.84zm-.204 23.7h5.46c0 3.584.008 7.168-.008 10.752a149.496 149.496 0 0 1-5.472-.244c.012-3.504.02-7.008.02-10.508z"/></svg>