<svg width="64" height="64" viewBox="0 0 128 128" xmlns="http://www.w3.org/2000/svg"><path d="M64 128C28.652 128 0 99.348 0 64S28.652 0 64 0s64 28.652 64 64-28.652 64-64 64zM36.12 20l.024.012c-.024 10.3 0 20.6-.024 30.92a.652.652 0 0 0 .236.58L58.532 73.68c1.108-.632 2.3-1.144 3.56-1.38.036-9.576 0-19.156.012-28.744a2.592 2.592 0 0 0-.036-.516c-.244-.288-.56-.512-.852-.78L36.12 20zm29.788 34.428h.012c0 5.96-.04 11.92 0 17.872 1.352.272 2.644.8 3.8 1.552 2.872-2.824 5.708-5.692 8.564-8.54 1.352-1.376 2.764-2.692 4.072-4.092a27.88 27.88 0 0 0-16.448-6.792zM36.132 57.1l-.012-.012v23.276h17.888a11.868 11.868 0 0 1 1.608-3.852c-6.496-6.464-12.972-12.96-19.48-19.412zm46.424 9.332v.012c-3.384 3.372-6.78 6.744-10.14 10.128a9.981 9.981 0 0 1 1.436 3.24c.068.224.068.632.42.552 5.868-.012 11.748.012 17.616-.012a27.768 27.768 0 0 0-6.8-16.4c-.9.788-1.68 1.664-2.532 2.48zM36.12 84.168a27.668 27.668 0 0 0 6.72 16.296c.108.176.256-.044.352-.116l12.4-12.368a10.932 10.932 0 0 1-1.552-3.792c-.884-.056-1.76-.02-2.636-.02h-15.28zm37.848.02a10.507 10.507 0 0 1-1.376 3.5c1.784 1.844 3.628 3.632 5.436 5.452l7.232 7.208a27.532 27.532 0 0 0 6.628-16.18H81.504c-2.52.02-5.016-.04-7.536.02zm-5.016 6.92l-.012-.012a10.44 10.44 0 0 1-3.032 1.12v17.852a27.744 27.744 0 0 0 16.508-6.828l-12.624-12.6c-.28.14-.56.304-.84.468zm-18.364 7.176v.012c-1.644 1.668-3.336 3.288-4.948 4.98a27.744 27.744 0 0 0 16.452 6.792V92.216a11.58 11.58 0 0 1-3.804-1.576c-2.588 2.52-5.132 5.1-7.7 7.64z"/></svg>