<svg width="64" height="64" viewBox="0 0 128 128" xmlns="http://www.w3.org/2000/svg"><path d="M64 128C28.652 128 0 99.348 0 64S28.652 0 64 0s64 28.652 64 64-28.652 64-64 64zM44 52.808v20.8h15.464a9.105 9.105 0 0 1 1.376-3.424L44 52.808zm0-4.672l19.104 19.712a8.52 8.52 0 0 1 3.32-1.42V40.556L44 20v28.136zm42.112 43.448A25.104 25.104 0 0 0 92 76.92H76.588a9.096 9.096 0 0 1-1.376 3.424l10.9 11.244zm-2.268 2.34L72.948 82.68a8.52 8.52 0 0 1-3.32 1.42V100a23.548 23.548 0 0 0 14.216-6.08zM44.052 76.916c.36 5.6 2.52 10.696 5.892 14.668l10.896-11.24a9.096 9.096 0 0 1-1.376-3.428H44.052zM92 73.612a25.104 25.104 0 0 0-5.888-14.672l-10.9 11.244a9.097 9.097 0 0 1 1.376 3.428H92zM52.208 93.924A23.548 23.548 0 0 0 66.424 100V84.1a8.52 8.52 0 0 1-3.32-1.42L52.208 93.92zm31.64-37.32a23.548 23.548 0 0 0-14.22-6.08v15.904a8.49 8.49 0 0 1 3.32 1.42l10.896-11.244z"/></svg>