<svg width="64" height="64" viewBox="0 0 128 128" xmlns="http://www.w3.org/2000/svg"><path d="M64 128C28.652 128 0 99.348 0 64S28.652 0 64 0s64 28.652 64 64-28.652 64-64 64zm46.972-73.844a47.544 47.544 0 0 0-2.792-8.964 48.408 48.408 0 0 0-4.408-8.132 47.456 47.456 0 0 0-5.828-7.052 47.456 47.456 0 0 0-7.056-5.828 50.072 50.072 0 0 0-8.128-4.408 47.544 47.544 0 0 0-37.128 0 47.456 47.456 0 0 0-15.184 10.24 47.456 47.456 0 0 0-5.828 7.048 50.072 50.072 0 0 0-4.408 8.132 47.544 47.544 0 0 0 0 37.128c1.176 2.84 2.696 5.532 4.408 8.128a47.52 47.52 0 0 0 5.828 7.056 47.456 47.456 0 0 0 7.056 5.828 50.096 50.096 0 0 0 8.128 4.408 47.544 47.544 0 0 0 37.128 0c2.84-1.176 5.532-2.696 8.128-4.408a47.456 47.456 0 0 0 7.056-5.828 47.456 47.456 0 0 0 5.828-7.056 50.096 50.096 0 0 0 4.408-8.128 47.544 47.544 0 0 0 2.792-28.164zm-46.732 51.38c-23.068 0-41.728-18.712-41.728-41.732S41.224 22.072 64.24 22.072c23.02 0 41.732 18.712 41.732 41.732s-18.708 41.732-41.732 41.732zm.736-3.624h1.132c.196 0 .388 0 .584-.052h.052c.196 0 .34 0 .536-.048h.148c.148 0 .296 0 .44-.048h.148c.148 0 .296-.048.492-.048h.096c.196 0 .392-.052.588-.052.196 0 .344-.048.54-.096h.096c.148 0 .296-.048.44-.048h.1c.196-.052.344-.052.54-.1.388-.048.78-.148 1.124-.244h.1c.144-.048.34-.048.488-.1h.048c.392-.096.736-.196 1.128-.292a43.792 43.792 0 0 1-10.92-1.028c-5.392-1.176-10.532-3.28-14.892-6.908a30.176 30.176 0 0 1-10.872-23.46 28.508 28.508 0 0 1 6.708-18.22c5.584-6.612 13.52-10.092 21.648-10.288h1.128v-6.512h-1.272a36.744 36.744 0 0 0-7.348.88 35.32 35.32 0 0 0-7.052 2.4 36.095 36.095 0 0 0-6.468 3.92 34.472 34.472 0 0 0-5.632 5.388 33.332 33.332 0 0 0-4.064 6.024 34.44 34.44 0 0 0-2.696 6.512 35.6 35.6 0 0 0-1.32 6.812l-.148 2.152v1.272c.048 2.5.344 4.948.88 7.348.54 2.452 1.372 4.8 2.4 7.056 1.228 2.692 3.432 6.66 6.712 9.648a37.88 37.88 0 0 0 23.508 8.132h.884zm10.68-6.272a49.816 49.816 0 0 1-7.2-.784c-10.092-1.812-18.76-7.984-21.944-17.288-3.872-11.316 2.056-23.56 13.32-27.28a20.84 20.84 0 0 1 6.66-1.08c2.892 0 5.78.588 8.428 1.664l2.74-5.828a52.544 52.544 0 0 0-2.496-.928 28.852 28.852 0 0 0-8.672-1.324 27.48 27.48 0 0 0-8.668 1.42 27.24 27.24 0 0 0-9.648 5.584 28.08 28.08 0 0 0-3.672 3.968 26.64 26.64 0 0 0-2.792 4.556 27.616 27.616 0 0 0-2.744 10.336c-.244 3.72.244 7.44 1.468 10.968a27.08 27.08 0 0 0 5.88 9.748c2.4 2.596 5.192 4.556 8.568 6.368 3.528 1.86 7.888 2.84 12.44 3.48 2.94.388 6.86.488 9.16.488 2.008-.736 2.84-1.08 3.92-1.52.932-.44 1.86-.88 2.792-1.42.932-.54 1.08-.64 2.644-1.664a2.72 2.72 0 0 0 .392-.296c-5.388.932-6.76.88-10.58.832zm12.048-7.296c-1.52.096-3.676.24-6.124.24-4.36 0-9.7-.388-14.252-1.908-7.056-2.348-13.716-8.372-13.716-15.82a13.408 13.408 0 0 1 13.42-13.42c5.044 0 9.404 2.792 11.708 6.856l5.828-2.888a18.936 18.936 0 0 0-3.48-4.652 19.864 19.864 0 0 0-28.116 0 19.864 19.864 0 0 0-5.828 14.056 19.6 19.6 0 0 0 1.72 7.936c1.024 2.252 2.448 4.36 4.26 6.32 3.184 3.424 7.54 6.168 12.196 7.736 4.456 1.468 11.02 2.008 17.388 1.568 1.76-.148 3.084-.296 5.336-.784a36.752 36.752 0 0 0 5.88-5.828c-1.52.148-4.312.44-6.22.588z"/></svg>