<svg width="64" height="64" viewBox="0 0 128 128" xmlns="http://www.w3.org/2000/svg"><path d="M64 128C28.652 128 0 99.348 0 64S28.652 0 64 0s64 28.652 64 64-28.652 64-64 64zM46.824 77.184l2.1-9.16h6.116L49.988 96h19.5c12.068 0 19.504-5.388 21.328-15.492l.912-5.06c1.18-6.544-.4-11.08-5.088-13.484 4.736-2.316 7.492-6.328 8.584-12.36l.4-2.224C97.492 37.02 92.436 32 79.96 32H61.536l-4.568 25.316-18.312-.012-2.04 9.772H16zm20.264-10.988h5.96c6.052 0 8.188 2.456 7.076 8.628l-.98 5.416c-.872 4.828-3.44 6.876-8.052 6.876h-7.78zM71.66 40.88h6.38c4.72 0 6.588 2.48 5.688 7.472L83.1 51.82c-.92 5.112-3.936 7.32-9.088 7.32H68.36z"/></svg>