<svg width="64" height="64" viewBox="0 0 128 128" xmlns="http://www.w3.org/2000/svg"><path d="M64 0c35.348 0 64 28.652 64 64s-28.652 64-64 64S0 99.348 0 64 28.652 0 64 0zm-4.16 23H45.332l-5.208 29.364H58.6L36.652 72.152 32 98.78s17.548.496 32.428 0c14.94-.5 32.36-13.316 34.904-27.812 3.472-19.6-7.748-27.188-7.748-27.188l-10.168 9.956s8.556 9.52.68 22.584c-7.748 12.816-33.48 10.452-33.48 10.452l1.984-11.26 36.208-35.34H56.8L59.84 23zm23.868 18.352l-34.16 33.72-2.296 12.88s7.628.56 13.64 0c6.016-.62 12.772-3.108 12.772-3.108l-17.856 13H33.056l4.464-25.26 23.62-21.276H41.052l16.244-9.956h26.412z"/></svg>