<svg width="64" height="64" viewBox="0 0 128 128" xmlns="http://www.w3.org/2000/svg"><path d="M64 128C28.652 128 0 99.348 0 64S28.652 0 64 0s64 28.652 64 64-28.652 64-64 64zm.068-40.784a19.856 19.856 0 0 1-8.908-1.664 22.368 22.368 0 0 1-7.748-5.544 21.068 21.068 0 0 1-5.52-14.364c-.104-2.96.3-5.92 1.192-8.744a21.83 21.83 0 0 1 3.552-6.584 21.424 21.424 0 0 1 6.572-5.592 20.344 20.344 0 0 1 7.68-2.424 23.68 23.68 0 0 1 6.6.084c2.8.464 5.48 1.496 7.864 3.032A21.76 21.76 0 0 1 81.6 51.48c.204.284.44.4.744.1l1.952-1.956c.64-.64 1.332-1.26 1.904-1.92.572-.656 1.264-1.16 1.868-1.8 1.736-1.836 3.572-3.588 5.36-5.388.3-.304.332-.456.652.08.32.54.76 1 1.112 1.5a37.928 37.928 0 0 1 6.568 15.36c.272 1.352.436 2.72.492 4.096.128 2.42.08 4.844-.152 7.256a43.347 43.347 0 0 1-2.172 9.232A38.536 38.536 0 0 1 95.176 87c-.336.42-.388.72 0 1.112 1.872 1.852 3.72 3.752 5.576 5.624.556.656.708.64 1.196 0a47.294 47.294 0 0 0 7.324-13.88 55.61 55.61 0 0 0 1.684-6.144c.524-2.48.66-5.02.928-7.532.236-2.204-.252-4.412-.252-6.616a.572.572 0 0 0 0-.136c-.52-2.376-.74-4.8-1.416-7.176-.8-2.884-1.84-5.7-3.1-8.42a47.16 47.16 0 0 0-5.808-9.228 52.044 52.044 0 0 0-5.96-6.352c-.712-.64-.88-.62-1.536.084l-5.608 5.96-3.892 4.112c-.252.272-.504.404-.824.12a28.768 28.768 0 0 0-5.272-3.368 26.056 26.056 0 0 0-5.608-2.208 27.132 27.132 0 0 0-7.024-1.112 6.216 6.216 0 0 1-.772 0 21.424 21.424 0 0 0-4.36.1c-1.88.18-3.736.54-5.544 1.08a32 32 0 0 0-6.416 2.628 32.336 32.336 0 0 0-12.868 12.396 34.544 34.544 0 0 0-3.268 7.932 40.821 40.821 0 0 0-.976 5.508 22.804 22.804 0 0 0-.084 5.656 35.195 35.195 0 0 0 1.412 7.564 48.145 48.145 0 0 0 1.52 3.96c.74 1.64 1.64 3.208 2.676 4.68a34.76 34.76 0 0 0 6.568 7.208 30.316 30.316 0 0 0 9.38 5.272 33.416 33.416 0 0 0 12.328 1.684c3.28-.12 6.528-.72 9.636-1.784a30.096 30.096 0 0 0 7.088-3.588c.54-.372.56-.52.104-.996l-6.32-6.5a.724.724 0 0 0-1.076-.136c-.872.56-1.8 1.02-2.78 1.368a18.292 18.292 0 0 1-7.76 1.344zm36.08 7.628l-17.04-17.348c-.372-.388-.68-.4-.98 0a21.44 21.44 0 0 1-4.328 4.648c-.404.32-.404.572 0 .944 1.532 1.532 3.048 3.1 4.564 4.632 1.972 2.004 3.94 4.008 5.928 6.012.352.352.336.52 0 .824-.792.592-1.568 1.2-2.392 1.684a37.152 37.152 0 0 1-14.384 5.964 28.632 28.632 0 0 1-6.112.708h-.824c-1.456.1-2.92.056-4.36-.136-1.688-.252-3.272-.456-4.872-.808a35.924 35.924 0 0 1-5.928-1.904 38.552 38.552 0 0 1-9.08-5.34 39.764 39.764 0 0 1-7.256-7.44 36.784 36.784 0 0 1-5.188-9.584 31.696 31.696 0 0 1-2.292-10.56 7.664 7.664 0 0 1 0-1.148V62.02a3.1 3.1 0 0 1 0-1.3c0-.32.136-.62.188-.94a34.75 34.75 0 0 1 .792-4.432c.46-1.96 1.072-3.88 1.836-5.744a38.736 38.736 0 0 1 17.448-19.436 37.172 37.172 0 0 1 15.16-4.56H62a37.776 37.776 0 0 1 16.256 2.56l1.448.604a39.732 39.732 0 0 1 6.316 3.52.692.692 0 0 0 1.024-.1c1.788-2.04 3.672-3.976 5.544-5.928.352-.372.368-.708 0-1.012a48.12 48.12 0 0 0-20.868-8.624 52.632 52.632 0 0 0-6.536-.624 46.652 46.652 0 0 0-10.104.944 48.84 48.84 0 0 0-6.264 1.684 46.414 46.414 0 0 0-10.36 4.968 48.978 48.978 0 0 0-10.424 8.944 47.628 47.628 0 0 0-9.212 15.732 53.382 53.382 0 0 0-2.004 7.496 64.497 64.497 0 0 0-.76 6.736 35.368 35.368 0 0 0 .336 7.256c.264 2.388.72 4.748 1.364 7.06.456 1.564.912 3.132 1.5 4.648a48.773 48.773 0 0 0 4.412 8.708 50.828 50.828 0 0 0 7.696 9.26 48.278 48.278 0 0 0 6.064 4.752 46.016 46.016 0 0 0 9.2 4.868 46.707 46.707 0 0 0 10.016 2.728c2.572.384 5.168.608 7.768.672 1.68 0 3.368-.268 4.948-.304 1.2-.088 2.388-.268 3.556-.536 1.296-.22 2.576-.56 3.856-.896a45.472 45.472 0 0 0 13.472-5.996 48.79 48.79 0 0 0 10.108-8.62c.488-.56.472-.656-.2-1.264z"/></svg>