<svg width="64" height="64" viewBox="0 0 128 128" xmlns="http://www.w3.org/2000/svg"><path d="M64 128C28.652 128 0 99.348 0 64S28.652 0 64 0s64 28.652 64 64-28.652 64-64 64zM56.36 17.044a47.765 47.765 0 0 0-9.416 2.628 50.36 50.36 0 0 0-14.916 9.2c-3.544 3.08-6.488 6.824-9.008 10.772-.16.28-.312.556-.448.84a32.496 32.496 0 0 0-1.304 2.444 11.88 11.88 0 0 0-.984 2.164l-.212.252c-.108.364-.24.72-.4 1.068-.268.76-.528 1.52-.816 2.268-.156.42-.288.84-.42 1.26a39.1 39.1 0 0 0-1.26 5.028c-.308.956-.26 1.972-.504 2.944-.248 1.196-.168 2.424-.36 3.624-.176 1.44-.08 2.904-.08 4.352.252 1.736.176 3.512.568 5.232.04.732.168 1.46.384 2.16.1.624.236 1.24.412 1.852a41.876 41.876 0 0 0 1.76 5.836c.308.868.772 1.68.94 2.592l.232.104c1.328 3.184 3.14 6.16 5.188 8.932 1.028 1.46 2.224 2.8 3.388 4.152.728.76 1.472 1.492 2.224 2.224.708.692 1.544 1.24 2.2 1.988.2.132.536.5.72.132.596-.848 1.256-1.664 2.112-2.264 2.868-1.56 6.16-1.94 9.344-2.4 2.792-.48 5.612-.816 8.384-1.384 6.132-1.144 12.28-2.92 17.568-6.328 1.552-.988 2.932-2.204 4.304-3.424a8.32 8.32 0 0 0-1.272.12c-1.096.368-2.236.576-3.348.888a66.214 66.214 0 0 1-5.28 1.188c-3.384.616-6.88 1.024-10.32.576-2.572-.4-5.2-1.072-7.324-2.648-2.56-1.66-4.36-4.272-5.52-7.06-.888-1.964-1.372-4.092-1.776-6.192a9.052 9.052 0 0 1-.328-2.296c-.012-.84-.24-1.668-.24-2.508-.02-2.52-.092-5.04.06-7.56.228-1.1.304-2.22.44-3.332.416-1.696.692-3.42 1.256-5.072.28-.776.576-1.548.892-2.312.432-1.068.96-2.088 1.48-3.108.584-.96 1.2-1.896 1.828-2.82 3.308-4.368 7.88-7.636 12.852-9.86 2.676-1.068 5.38-2.1 8.192-2.732 6.268-1.7 12.768-2.192 19.152-3.288 1.416-.312 2.904-.54 4.148-1.336.536-.348.86-1.228.256-1.668-2.168-2.024-4.964-3.144-7.632-4.336-3.668-1.392-7.428-2.632-11.328-3.168a33.612 33.612 0 0 0-6.072-.548 43.235 43.235 0 0 0-9.712.824zM92.964 29.56c-1.636 1.06-3.568 1.444-5.476 1.844-5.452.936-10.988 1.4-16.396 2.616-2.468.58-4.948 1.168-7.336 2.052-4.156 1.488-8.112 3.664-11.344 6.704 2.272-.432 4.488-1.104 6.736-1.636 4.8-1.08 9.804-1.96 14.704-1.048 2.952.512 5.812 1.852 7.912 4.008 2.748 2.68 4.2 6.388 5.028 10.068.908 4.264 1.008 8.64.828 12.984-.36 5.832-1.864 11.72-5.12 16.628-2.268 3.48-5.348 6.384-8.84 8.612-5.148 3.34-11.096 5.16-17.044 6.44-3.58.792-7.224 1.196-10.832 1.824-1.996.308-3.992.632-5.936 1.196-.672.22-1.396.528-1.8 1.148-.264.508-.008 1.092.396 1.444 1.56 1.56 3.552 2.592 5.552 3.472a45.039 45.039 0 0 0 11.508 3.22c5.164.708 10.44.912 15.608.148 11.244-1.556 21.796-7.42 29.148-16.048a48.012 48.012 0 0 0-5.204-67.804c-.608.788-1.216 1.616-2.092 2.128z"/></svg>