<svg width="64" height="64" viewBox="0 0 128 128" xmlns="http://www.w3.org/2000/svg"><path d="M64 128C28.652 128 0 99.348 0 64S28.652 0 64 0s64 28.652 64 64-28.652 64-64 64zm0-104l-6.64 12.064c-.752 1.312-2.1 1.192-3.452.46l-4.8-2.428 3.576 18.532c.756 3.388-1.66 3.388-2.852 1.92L41.44 45.4l-1.36 4.648c-.16.612-.848 1.252-1.884 1.1l-10.6-2.176 2.78 9.872c.6 2.196 1.064 3.104-.6 3.68l-3.78 1.736 18.252 14.448c.724.548 1.088 1.532.832 2.42l-1.6 5.112c6.288-.708 11.92-1.768 18.208-2.424.556-.056 1.484.836 1.48 1.464L62.34 104h3.056l-.48-18.68c-.004-.628.84-1.56 1.392-1.504 6.288.656 11.92 1.72 18.204 2.424l-1.596-5.112a2.296 2.296 0 0 1 .832-2.42L102 64.26l-3.78-1.732c-1.664-.58-1.2-1.488-.6-3.684l2.784-9.872L89.8 51.148c-1.036.152-1.728-.488-1.88-1.1L86.556 45.4l-8.388 9.152c-1.192 1.464-3.608 1.464-2.852-1.92l3.58-18.536-4.804 2.428c-1.352.732-2.7.852-3.452-.46z"/></svg>