<svg width="64" height="64" viewBox="0 0 128 128" xmlns="http://www.w3.org/2000/svg"><path d="M64 128C28.652 128 0 99.348 0 64S28.652 0 64 0s64 28.652 64 64-28.652 64-64 64zm44-63.88C107.9 39.884 88.512 20.228 64.48 20v11.208C80.256 31.2 93.744 42.66 96.416 58.336h-15.56c.6 1.832.912 3.74.936 5.664a17.813 17.813 0 0 1-.936 5.664h15.56C93.78 85.364 80.272 96.84 64.48 96.792V108c11.544 0 22.612-4.62 30.776-12.848A44.056 44.056 0 0 0 108 64.116zm-29.016 9.436a17.196 17.196 0 0 1-23.86 5.304c-8.044-5.18-10.4-15.952-5.264-24.06a17.196 17.196 0 0 1 23.86-5.308c2.088 1.4 3.88 3.2 5.264 5.308h12.288C86.728 41.58 73.384 33.6 59.7 35.92 46.02 38.24 36 50.188 36 64.176s10.02 25.936 23.7 28.256c13.684 2.32 27.028-5.656 31.572-18.88z"/></svg>