<svg width="64" height="64" viewBox="0 0 128 128" xmlns="http://www.w3.org/2000/svg"><path d="M64 128C28.652 128 0 99.348 0 64S28.652 0 64 0s64 28.652 64 64-28.652 64-64 64zm1.12-34.7c4.112 2.844 9.328 4.536 14.976 4.536 1.404 0 2.792-.104 4.156-.308.468.192.92.428 1.476.748 1.2.704 2.804 1.784 4.8 3.24 1.636 1.196 3.952.04 3.952-1.972V93.7a22.788 22.788 0 0 0 2.38-1.768C101.38 88.1 104 82.86 104 77.24c0-3.7-1.12-7.16-3.088-10.148a31.716 31.716 0 0 1-2.508 6.12c.416 1.292.636 2.64.636 4.028 0 4.136-1.952 8.04-5.408 10.968a18.716 18.716 0 0 1-2.868 1.996 2.448 2.448 0 0 0-1.244 2.124v2.496c-2.372-1.52-4-2.236-5.24-2.236a2.508 2.508 0 0 0-.416.036 22.784 22.784 0 0 1-10.408-.68 45.8 45.8 0 0 1-8.332 1.36zM35.256 81.612a37.08 37.08 0 0 0 4.176 3.06v9.968c0 2.52 2.9 3.96 4.944 2.464 5.64-4.12 9.56-6.448 10.54-6.68 2.264.36 4.576.54 6.912.54 20.8 0 37.832-14.428 37.832-32.48C99.66 40.428 82.624 26 61.828 26S24 40.428 24 58.48c0 8.84 4.12 17.084 11.256 23.132zm19.796 2.664c-2.012 0-4.952 1.42-9.416 4.416v-5.748a3.06 3.06 0 0 0-1.56-2.656 31.26 31.26 0 0 1-4.784-3.332C33.48 72.04 30.2 65.464 30.2 58.48c0-14.44 14.064-26.352 31.628-26.352 17.568 0 31.628 11.912 31.628 26.352s-14.06 26.356-31.628 26.356c-2.12 0-4.212-.176-6.256-.52a3.136 3.136 0 0 0-.52-.04zm-9.348-19.664c2.74 0 4.96-2.2 4.96-4.904 0-2.708-2.22-4.904-4.96-4.904-2.74 0-4.96 2.196-4.96 4.904 0 2.708 2.22 4.904 4.96 4.904zm16.124 0c2.74 0 4.96-2.2 4.96-4.904 0-2.708-2.22-4.904-4.96-4.904-2.74 0-4.96 2.196-4.96 4.904 0 2.708 2.22 4.904 4.96 4.904zm16.124 0c2.74 0 4.96-2.2 4.96-4.904 0-2.708-2.22-4.904-4.96-4.904-2.74 0-4.96 2.196-4.96 4.904 0 2.708 2.22 4.904 4.96 4.904z"/></svg>