<svg width="64" height="64" viewBox="0 0 128 128" xmlns="http://www.w3.org/2000/svg"><path d="M54.192 101.632c4.02 1.336 8.22 2.06 12.56 2.292a41.88 41.88 0 0 0 8.488-.328 37.472 37.472 0 0 0 13.516-4.68c1.08-.628 2.088-1.368 3.108-2.044L79.576 84.72c-.132.1-.292.236-.464.34-1.216.736-2.372 1.608-3.664 2.168-3.576 1.552-7.32 1.888-11.112 1.296a1183177.416 1183177.416 0 0 1-10.144 13.108zm-3.864-1.504a1.96 1.96 0 0 1 .144-.596l5.78-13.96a20.208 20.208 0 0 1-4.496-3.884 25.112 25.112 0 0 1-4.76-8.14l-.448.056c-1.764.232-2.984-1.672-1.992-3.112l1.232-1.788a31.24 31.24 0 0 1-.356-4.016c-.064-2.616.236-5.2.868-7.74 1.492-5.996 4.68-10.86 10-14.24a21.16 21.16 0 0 1 9.636-3.26 2732155.344 2732155.344 0 0 0 10.288-14.936 41.925 41.925 0 0 0-4.84-.48c-2.652-.12-5.332.112-7.984.336a38.644 38.644 0 0 0-10.26 2.36c-6.948 2.592-12.82 6.628-17.292 12.52-4.844 6.392-7.248 13.656-7.74 21.552-.192 3.08-.136 6.168.248 9.232.5 3.956 1.504 7.784 3.144 11.44 3.176 7.072 8.096 12.628 14.844 16.6a39.97 39.97 0 0 0 3.984 2.056zM80.1 25.336a1.96 1.96 0 0 1-.08 1.12l-.136.352-5.132 13.5c1.7.536 3.304 1.32 4.8 2.384.488.344.74.28 1.14-.12 3.632-3.6 7.28-7.184 10.928-10.776.116-.112.212-.24.38-.432l-.332-.232c-.528-.412-1.032-.856-1.584-1.232a32.752 32.752 0 0 0-9.984-4.564zM64 128C28.652 128 0 99.348 0 64S28.652 0 64 0s64 28.652 64 64-28.652 64-64 64zm1.284-58.872l-12.892 31.156.172.12 35.6-46.04-22.304 3.52 12.22-32.12-.176-.08-31.632 45.928 19.012-2.48z"/></svg>