<svg width="64" height="64" viewBox="0 0 128 128" xmlns="http://www.w3.org/2000/svg"><path d="M98.672 75.452L72.136 90.088 60.968 75.172 28.676 92.18v3.76L60 79.448 71.168 94.36l29.456-16.248.58 5.08 6.48-10.544-3.82.044v-.1l-.192.104-9.24.108 4.236 2.652zM64 128C28.652 128 0 99.348 0 64S28.652 0 64 0s64 28.652 64 64-28.652 64-64 64zm-5.776-56.168V34.576h-12.24v43.7l12.24-6.444zm34.612 1.924v-39.18h-12.24v45.98l12.24-6.8zm-17.304 9.616v-43.8H63.288v32.416l9.616 12.84 2.628-1.456zm-34.616-2.428V45.248h-12.24v42.144l12.24-6.448zm34.616 2.428l-2.628 1.456-9.616-12.84V39.576h12.24v43.796zm-34.616-2.428l-12.24 6.448V45.248h12.24v35.696z"/></svg>