<svg width="64" height="64" viewBox="0 0 128 128" xmlns="http://www.w3.org/2000/svg"><path d="M64 128C28.652 128 0 99.348 0 64S28.652 0 64 0s64 28.652 64 64-28.652 64-64 64zm7.24-96.52c0 3.532-.112 16.02-1.5 28.612-1.308 11.868-3.384 24.892-3.86 27.816.6.056 1.168.148 1.704.268 1.144-2.3 6.772-13.836 9.352-22.504 2.952-9.92 4.656-23.152 4.704-28.504l.008-.964c-.98-1.492-3.116-4.272-5.88-5.016-2.416-.648-3.82-.36-4.532-.064zm11.596 5.696c-.052 5.42-1.772 18.804-4.756 28.828-2.532 8.516-7.96 19.732-9.32 22.48.584.184 1.152.404 1.7.668 1.46-1.88 8.152-10.652 12.344-18.58 4.94-9.36 9.532-21.768 10.152-24.176l.256-.988c-.548-1.672-1.86-4.784-4.404-6.42-2.628-1.692-4.928-1.88-5.972-1.856zm1.028 33.936c-4.132 7.82-10.66 16.432-12.344 18.612.696.416 1.348.896 1.952 1.44 1.792-1.74 9.268-9.068 14.244-15.244 5.744-7.132 11.452-17.14 12.388-19.312l.484-1.128c-.132-1.44-.54-3.72-1.776-5.408-1.448-1.976-3.672-2.972-4.708-3.348-.784 2.98-5.536 15.48-10.24 24.388zM44.02 38.104c.448 3.508 2.576 14.628 6.288 26.608 3.328 10.74 8.28 21.46 9.392 23.824a12.776 12.776 0 0 1 1.764-.44c-.44-2.56-2.704-16.016-4.108-28.668-1.536-13.828-2.16-25.544-2.244-27.924l-.008-.236c-1.044-.304-3.38-.68-6.376.692-2.76 1.26-4.2 3.628-4.848 5.048l.14 1.096zm12.284-6.64c.084 2.368.708 14.044 2.24 27.84 1.404 12.672 3.68 26.16 4.104 28.62a17.625 17.625 0 0 1 1.72-.088l.312.008c.432-2.656 2.548-15.868 3.872-27.88 1.384-12.532 1.492-24.968 1.492-28.48v-.568C68.92 29.932 66.312 28 63.12 28c-3.188 0-5.74 1.932-6.836 2.92l.016.544zm8.064 57.548c-6.512 0-9.48 3.828-10.36 5.248 5.504 3.98 9.004 5.74 10.412 5.74 1.408 0 5.396-2.132 10.296-5.568-.9-1.496-3.88-5.42-10.348-5.42zm36.804-31.872c-1.028 2.332-6.76 12.368-12.52 19.512-5.008 6.216-12.512 13.576-14.336 15.34.504.544.96 1.132 1.36 1.756A116.68 116.68 0 0 0 86.84 84.6c9.408-8.756 16.9-17.412 17.148-21.776a6.156 6.156 0 0 0-2.816-5.684zm-73.892-.848c2.148 5.364 6.24 11.72 12.168 18.888a135.244 135.244 0 0 0 15.64 15.984c.4-.36.828-.696 1.276-1-1.672-1.952-7.64-9.232-13.132-19.764-6.152-11.8-8.488-19.96-9.488-23.448l-.148-.52-.008-.024c-1.376.364-4.848 1.5-6.212 3.98a7.84 7.84 0 0 0-.924 3.716c.26.736.536 1.464.828 2.188zm26.96 35.712a136.816 136.816 0 0 1-15.72-16.08c-5.792-7.008-9.856-13.26-12.108-18.608-.84.728-2.596 2.68-2.4 6.132.264 4.524 6.86 11.688 18.904 21.984 3.876 3.316 7.252 6 10.128 8.12a11.64 11.64 0 0 1 1.2-1.548zM34.748 46.108l.148.52c.992 3.456 3.304 11.54 9.4 23.236 5.576 10.692 11.632 17.976 13.092 19.664.388-.212.784-.404 1.192-.576-1.2-2.552-6.1-13.216-9.412-23.896-3.736-12.052-5.88-23.264-6.328-26.804l-.02-.136a8.676 8.676 0 0 0-5.512 1.64c-1.86 1.356-2.62 3.548-2.928 5.012.096.368.212.808.368 1.34z"/></svg>