<svg width="64" height="64" viewBox="0 0 128 128" xmlns="http://www.w3.org/2000/svg"><path d="M64 128C28.652 128 0 99.348 0 64S28.652 0 64 0s64 28.652 64 64-28.652 64-64 64zm.012-108C39.76 20 20.012 39.716 20 63.944 19.988 88.212 39.7 107.976 63.944 108h.04c24.264 0 44.008-19.732 44.016-43.988C108.008 39.784 88.276 20.04 64.012 20zM64 25.672h.004c10.224 0 19.84 3.992 27.084 11.24a38.016 38.016 0 0 1 11.22 27.08c-.016 21.12-17.224 38.304-38.36 38.304-21.092-.016-38.248-17.2-38.244-38.304.008-21.128 17.188-38.32 38.296-38.32zm18.912 34.396a19.192 19.192 0 0 0-18.804-15.424c-1.42 0-2.86.16-4.28.472-9.528 2.088-15.868 10.704-15.08 20.48.372 4.644 2.16 8.548 5.452 11.94l.632.652.84-.356 1.552-.64 1.956-.784-1.548-1.436a14.54 14.54 0 0 1-4.456-8.16c-.892-4.744.328-9.176 3.52-12.816a15.056 15.056 0 0 1 11.32-5.12c3.952 0 7.672 1.52 10.48 4.268 3.196 3.12 4.732 6.912 4.576 11.256-.156 4.344-1.792 7.948-4.868 10.708l-1.576 1.416 1.96.816c.492.204.976.424 1.452.656l.864.424.68-.684c4.94-5.016 6.684-10.792 5.328-17.668zm-43.02 25.16l.976 1.092 3.664-3.944-.784-.908a26.368 26.368 0 0 1-5.72-11.08 26.472 26.472 0 0 1 .48-14.504 26.352 26.352 0 0 1 8.036-12.148 26.796 26.796 0 0 1 17.484-6.5c7.044 0 13.676 2.712 18.668 7.636 4.92 4.848 7.608 10.736 7.992 17.496.412 7.4-1.868 13.96-6.78 19.492l-.792.892 3.592 4.008.996-1.072c7.852-8.42 10.48-21.028 6.7-32.12a32.112 32.112 0 0 0-31.148-21.704 32.128 32.128 0 0 0-29.772 22.068c-4.28 13.032.504 24.712 6.408 31.296z"/></svg>