<svg width="64" height="64" viewBox="0 0 128 128" xmlns="http://www.w3.org/2000/svg"><path d="M64 128C28.652 128 0 99.348 0 64S28.652 0 64 0s64 28.652 64 64-28.652 64-64 64zm2.28-111.972a47.152 47.152 0 00-30.048 9.492 7.06 7.06 0 00-.44 10.928 6.94 6.94 0 009.024.436 33.544 33.544 0 0145.176 3.64 6.466 6.466 0 01.168 8.812 6.352 6.352 0 01-8.98.312l-.308-.312a20.952 20.952 0 100 28.236 6.224 6.224 0 017.44-1.412 6.312 6.312 0 011.848 9.88 33.656 33.656 0 01-45.36 3.984 7.06 7.06 0 00-9.08.44 7.144 7.144 0 00.596 11.024 47.408 47.408 0 1029.96-85.456zM65.4 75.18a11.732 11.732 0 11.088-23.464 11.732 11.732 0 01-.084 23.464z"/></svg>