<svg width="64" height="64" viewBox="0 0 128 128" xmlns="http://www.w3.org/2000/svg"><path d="M64 128C28.652 128 0 99.348 0 64S28.652 0 64 0s64 28.652 64 64-28.652 64-64 64zm1.104-24a40.608 40.608 0 0 0 15.748-3.08c6.776-2.76 12.444-6.972 16.876-12.744a39.136 39.136 0 0 0 7.96-19.196c.976-7.672-.356-14.944-3.628-21.888-2.376-5.04-5.792-9.352-10.016-13.04-5.708-4.976-12.36-8.048-19.828-9.4a40.504 40.504 0 0 0-16.58.44 41.22 41.22 0 0 0-16.46 7.896c-1.016.808-1.12 1.44-.368 2.504.496.704 1.072 1.36 1.648 2.008 1.22 1.368 1.764 1.392 3.2.272a33.056 33.056 0 0 1 9.612-5.24c6.58-2.264 13.276-2.668 20.092-1.02 7.636 1.84 13.956 5.74 18.82 11.776 6.944 8.616 8.904 18.428 6.268 29.02-2.1 8.44-7.12 15.04-14.472 19.788-6.132 3.956-12.92 5.72-20.3 5.464a34.256 34.256 0 0 1-19.292-6.584c-2.436-1.752-2.424-1.764-4.48.464l-.148.156c-1.68 1.808-1.62 2.636.352 4.08 7.416 5.452 15.72 8.3 24.996 8.32zM62.56 78.468c-.392-.024-.48-.052-.532-.028-.16.08-.316.176-.472.264-1.88 1.052-3.856 1.436-5.992.872-.804-.212-1.02-.536-.544-1.28 1.748-2.744 2.36-5.788 2.208-8.968-.188-3.968-1.44-7.52-4.532-10.272a16.972 16.972 0 0 0-11.532-4.424c-1.852-.012-3.708.112-5.564.18-.78.028-1.072-.28-.844-1.048.3-1.036.58-2.08.844-3.12.16-.624.508-.864 1.168-.868 2.948-.016 5.896-.056 8.844-.124 2.84-.068 5.448-.868 7.728-2.588 1.928-1.452 2.968-3.32 2.816-5.744-.016-.296-.144-.688-.36-.828-.14-.096-.584.112-.8.292-1.816 1.496-3.88 2.528-6.224 2.648-3.156.16-6.328.124-9.488.048-2.108-.048-4.204-.364-6.312-.48-1.432-.08-2.412.556-2.788 1.784-1.72 5.6-3.408 11.204-5.076 16.82-.232.776-.84 1.652.068 2.388.876.704 1.692.048 2.44-.296 5.072-2.34 10.228-2.52 15.5-.72 6.008 2.048 7.596 7.588 5.136 12.612-.544 1.112-.868 1.136-1.956.488-1.896-1.132-3.752-2.356-5.736-3.32-4.344-2.104-8.884-2.96-13.656-1.56-2.584.76-5.092 3.072-4.892 6.46.116 1.944 1.08 3.328 2.448 4.5 1.816 1.56 3.948 2.476 6.328 2.98 7.232 1.536 14.096.952 20.472-3.048a3.12 3.12 0 0 1 1.528-.384c1.38-.032 2.764.088 4.144.04 1.992-.06 3.64-.912 5-2.332.22-.232.36-.536.628-.944zm-18.272.904c-.94.4-1.856.9-2.832 1.188-3.808 1.128-7.6 1.088-11.336-.352a4.276 4.276 0 0 1-1.056-.548c-.984-.752-1.828-1.612-1.48-2.992.32-1.252 1.408-1.528 2.496-1.78 2.416-.564 4.724.016 6.944.828 2.176.792 4.268 1.832 6.388 2.772.288.128.544.332.812.496l.064.388z"/></svg>