<svg width="64" height="64" viewBox="0 0 128 128" xmlns="http://www.w3.org/2000/svg"><path d="M64 128C28.652 128 0 99.348 0 64S28.652 0 64 0s64 28.652 64 64-28.652 64-64 64zm13.892-82.08l10.668-2.448 4.132-6.8-4.08-6.696-5.224-3.608L72.656 24l-6.62 3.732-10.592-1.888L40.9 35.924l-1.132 11.764-6.172 2.576.712 10.916L30 64.612 34.304 76.9l.648 1.288 4.552 12.652 9.36 3.312 6.932 7.056L63.772 104l3.608-1.04 5.724-.66 8.392-2.404L94 92.836l-3.272-12.928-6.296-2.48-3.136 3.588-8.82 2.168-12.828-2.032-4.14-4.788 1.44-4.68-6.064-9.6 5.1-6.224.544-10.58 7.304-4.192 5.008-2 6.8 1.228z"/></svg>