<svg width="64" height="64" viewBox="0 0 128 128" xmlns="http://www.w3.org/2000/svg"><path d="M58.056 102.224a33.928 33.928 0 0 0 10.2 5.776l-.568-5.496a38.696 38.696 0 0 0 34.6-32.996A33.924 33.924 0 0 0 108 59.388l-5.532.572a38.696 38.696 0 0 0-32.96-34.248A33.924 33.924 0 0 0 59.388 20l.572 5.532a38.696 38.696 0 0 0-34.248 32.96A33.924 33.924 0 0 0 20 68.612l5.532-.572a38.696 38.696 0 0 0 32.524 34.184zm2.28-16.528a22.012 22.012 0 0 1-18.216-19.38l5.2-.54a27.908 27.908 0 0 1-5.064-5.148A22.012 22.012 0 0 1 61.684 42.12l.54 5.2a27.908 27.908 0 0 1 5.148-5.064A22.012 22.012 0 0 1 85.88 61.684l-5.2.54c1.984 1.572 3.672 3.288 5.064 5.148a22.012 22.012 0 0 1-19.78 18.54l-.544-5.236c-1.556 1.964-3.248 3.64-5.084 5.02zM64 128C28.652 128 0 99.348 0 64S28.652 0 64 0s64 28.652 64 64-28.652 64-64 64zM25.532 68.04L20 68.612c2.96-8.28 8.812-14.904 17.564-19.872.828 6.864 4.08 12.54 9.76 17.036l-5.2.54a22.012 22.012 0 0 0 18.212 19.38 24.336 24.336 0 0 1-11.948 4.74c2.724 4.8 5.948 8.732 9.668 11.788A38.696 38.696 0 0 1 25.532 68.04zm76.936-8.08l5.532-.572c-2.96 8.28-8.812 14.904-17.564 19.872-.828-6.864-4.08-12.54-9.76-17.036l5.2-.54a22.012 22.012 0 0 0-18.504-19.428 24.34 24.34 0 0 1 11.888-4.692c-2.748-4.836-5.996-8.784-9.752-11.852a38.696 38.696 0 0 1 32.96 34.248z"/></svg>