<svg width="64" height="64" viewBox="0 0 128 128" xmlns="http://www.w3.org/2000/svg"><path d="M64 128C28.652 128 0 99.348 0 64S28.652 0 64 0s64 28.652 64 64-28.652 64-64 64zM36.684 32v7.7h55.264V32zm-6.16 22.564v7.78h19.58v1.54c-.316 7.544-1.892 13.628-4.892 18.4-3 4.32-8.684 8.012-17.212 10.94L32.42 100c8.84-3 15.16-7.24 19.108-12.628 4.024-5.856 6.236-13.708 6.628-23.488v-1.54h11.688v27.72c0 5.624 2.76 8.472 8.368 8.472h12.552c2.76 0 4.816-.848 6.236-2.388 1.42-1.616 2.448-6.776 3-15.48l-7.42-2.308c-.16 6.24-.552 10.012-1.108 11.24-.472 1.16-1.26 1.776-2.208 1.776H80.58c-1.816 0-2.684-1-2.684-3.004V62.344h20.92V54.56z"/></svg>