<svg width="64" height="64" viewBox="0 0 128 128" xmlns="http://www.w3.org/2000/svg"><path d="M64 128C28.652 128 0 99.348 0 64S28.652 0 64 0s64 28.652 64 64-28.652 64-64 64zm0-28h18.144l-9.088-15.828H54.944L45.856 100H64zm-9.052-56.176h18.108L82.144 28H45.856l9.088 15.828zM94.944 81.98L104 66.152H85.856l-9.06 15.828h.004l9.052 15.832 9.092-15.828h-.008.008zM33.056 45.984L24 61.812h18.144L51.2 45.984l-9.056-15.828-9.088 15.828zm18.14 36h.004l-9.056-15.832H24l9.056 15.828 9.088 15.832L51.2 81.984zm43.748-36l-9.092-15.828-9.056 15.828 9.056 15.828H104l-9.056-15.828z"/></svg>