<svg width="64" height="64" viewBox="0 0 128 128" xmlns="http://www.w3.org/2000/svg"><path d="M64 128C28.652 128 0 99.348 0 64S28.652 0 64 0s64 28.652 64 64-28.652 64-64 64zm38.712-74.868L95.96 46.38a10.86 10.86 0 0 0-7.744-3.2h-1.04V42.1c0-1.892-.448-3.692-1.392-5.312a9.496 9.496 0 0 0-1.892-2.52l-6.752-6.756a10.86 10.86 0 0 0-7.748-3.2H38.28a10.86 10.86 0 0 0-7.744 3.2l-6.752 6.752a10.68 10.68 0 0 0-3.2 7.7l-.18 29.18a10.904 10.904 0 0 0 3.2 7.832l6.752 6.756a10.856 10.856 0 0 0 7.744 3.196h1.216v1.08c0 1.892.452 3.692 1.396 5.312a9.406 9.406 0 0 0 1.892 2.52l6.752 6.76a10.876 10.876 0 0 0 7.744 3.192h31.16c2.928 0 5.672-1.124 7.744-3.196l6.756-6.752a10.88 10.88 0 0 0 3.196-7.744V60.832a10.908 10.908 0 0 0-3.24-7.7zM38.1 79.02a1.088 1.088 0 0 1-.764-.312l-3.376-3.38-3.38-3.376a1.6 1.6 0 0 1-.316-.584V42.012c0-.32.136-.588.32-.768l6.752-6.752c.088-.092.18-.136.268-.18a1.2 1.2 0 0 1 .54-.136h31.16c.18 0 .316.044.496.136.136.044.224.136.316.224l6.752 6.756a.772.772 0 0 1 .224.312c.048.048.048.092.048.136 0 .044.04.092.04.136 0 .044.048.18.048.268v1.44c0 .632-.496 1.08-1.08 1.08h-5.4a1.088 1.088 0 0 1-.768-.312l-3.064-3.06H40.532l-1.124 1.12-1.532 1.536v25.348l2.656 2.656h26.34l3.064-3.104.04-.048c.092-.044.184-.136.272-.18.136-.088.32-.088.452-.088h5.4c.36 0 .68.18.904.448a1.076 1.076 0 0 1 .224.632v1.532a1.088 1.088 0 0 1-.316.764l-3.376 3.376-3.376 3.376c-.044.048-.136.092-.18.136 0 0-.044.044-.092.044-.044.048-.088.048-.136.048-.04 0-.04 0-.088.044-.044 0-.092.044-.136.044H38.1v.044zm57.996 10.988a1.088 1.088 0 0 1-.32.764l-6.752 6.756a.956.956 0 0 1-.268.18 1.2 1.2 0 0 1-.54.136h-31.16a1.028 1.028 0 0 1-.496-.136.808.808 0 0 1-.312-.224l-6.756-6.756c-.088-.088-.18-.18-.224-.316-.048-.04-.048-.088-.048-.132 0-.048-.04-.092-.04-.136 0-.044-.048-.18-.048-.272v-1.44c0-.628.496-1.08 1.08-1.08h5.4c.32 0 .588.136.768.316l3.064 3.06h26.34l1.124-1.124 1.532-1.532V62.724l-2.656-2.66H59.488l-3.06 3.108-.048.044c-.088.048-.18.136-.268.18-.136.092-.316.092-.452.092h-5.4a1.176 1.176 0 0 1-.904-.452 1.076 1.076 0 0 1-.224-.628v-1.532a1.08 1.08 0 0 1 .316-.764l3.376-3.376 3.376-3.38c.048-.044.136-.088.18-.136 0 0 .048-.04.092-.04.044-.048.088-.048.136-.048.04 0 .04 0 .088-.044.044 0 .092-.048.136-.048h31.384c.312 0 .584.136.764.32l3.376 3.376 3.38 3.376a.62.62 0 0 1 .132.18 1.492 1.492 0 0 1 .18.404v.224c.048-.088.048 29.088.048 29.088z"/></svg>