<svg width="64" height="64" viewBox="0 0 128 128" xmlns="http://www.w3.org/2000/svg"><path d="M64 0c35.348 0 64 28.652 64 64s-28.652 64-64 64S0 99.348 0 64 28.652 0 64 0zM33.864 64.828A2.824 2.824 0 0031 67.62v13.012c0 2.332 1.244 4.496 3.28 5.72l28.66 17.156c.536.32 1.16.492 1.796.492a3.38 3.38 0 003.416-3.36V87.16c0-1.992-1.08-3.828-2.84-4.828L35.304 65.208a2.924 2.924 0 00-1.44-.38zm13.72-20.688a2.824 2.824 0 00-2.868 2.792V64.08l26.36 15.428c1.728 1.012 2.78 2.84 2.78 4.8v15.196a1.16 1.16 0 00.268-.108l6.568-3.616a2.216 2.216 0 001.16-1.944v-27.36a5.584 5.584 0 00-2.836-4.832l-30-17.124a2.924 2.924 0 00-1.432-.38zm14.56-19.76a2.9 2.9 0 00-3.908 1.008 2.832 2.832 0 00-.384 1.408V43.06l26.944 15.812c1.716 1.012 2.772 2.832 2.772 4.8v27.82l6.228-3.292A2.256 2.256 0 0095 86.236V46.272a5.57 5.57 0 00-2.844-4.84z"/></svg>