<svg width="64" height="64" viewBox="0 0 128 128" xmlns="http://www.w3.org/2000/svg"><path d="M64 128C28.652 128 0 99.348 0 64S28.652 0 64 0s64 28.652 64 64-28.652 64-64 64zm39.28-69.14c1.508-.072 3-.364 4.72-.584-.348-2.48-.528-4.872-1.04-7.188-2.132-9.668-7.184-17.496-15.12-23.4-6.644-4.932-14.152-7.452-22.416-7.644-3.452-.08-6.904-.028-10.36-.016a38.4 38.4 0 0 0-9.988 1.352 39.32 39.32 0 0 0-29.008 36.812 175.344 175.344 0 0 0 .112 12.624c.088 2.212.392 4.452.896 6.608 2.252 9.716 7.476 17.5 15.568 23.304 6.724 4.82 14.28 7.168 22.54 7.256 2.98.032 5.96 0 8.94.008a38.096 38.096 0 0 0 8.332-.82c12.22-2.7 21.252-9.624 27.108-20.684 2.372-4.48 3.656-9.308 4.144-14.352.072-.776.084-1.56.132-2.48-2.72-.252-5.36-.6-8.012-.708a74.64 74.64 0 0 0-7.628.104c-2.252.14-4.496.504-6.74.8a1.888 1.888 0 0 0-.9.4c-4.436 3.62-8.784 7.352-12.652 11.6-1.568 1.72-3.072 3.488-3.724 5.832-.64 2.28-2.468 3.552-4.852 3.552a5.296 5.296 0 0 1-5.212-4.464c-.364-2.56.928-5.088 3.552-5.716a7.385 7.385 0 0 0 3.452-1.864 273.24 273.24 0 0 0 6.26-6.212c.976-1 1.848-2.108 2.752-3.18.752-.892.424-1.8-.712-1.984-.408-.064-.824-.084-1.236-.112-3.028-.188-6.056-.456-9.084-.528a83.6 83.6 0 0 0-7.148.224c-1.48.092-2.916.44-4.232 1.2a5.736 5.736 0 0 1-1.632.664c-1.968.412-4.16-.7-5.272-2.604a5.308 5.308 0 0 1 .804-6.352c1.336-1.368 3.736-2.32 6.052-.928.7.416 1.5.768 2.292.904 1.724.288 3.472.56 5.212.576 3.116.032 6.232-.092 9.344-.22 1.652-.068 3.3-.24 4.944-.432 1.06-.12 1.412-1.08.72-1.908-2.416-2.9-4.904-5.74-7.68-8.304-1.548-1.432-3.184-2.696-5.308-3.208a3.604 3.604 0 0 1-1.56-.912c-2.452-2.368-1.952-6.5.96-8.276 2.776-1.692 6.52-.568 7.416 2.356.664 2.168 1.848 3.952 3.312 5.604 4.016 4.52 8.596 8.432 13.256 12.252a1.636 1.636 0 0 0 .788.368c2.816.328 5.628.8 8.452.9 3.148.112 6.308-.072 9.456-.22z"/></svg>