<svg width="64" height="64" viewBox="0 0 128 128" xmlns="http://www.w3.org/2000/svg"><path d="M64 128C28.652 128 0 99.348 0 64S28.652 0 64 0s64 28.652 64 64-28.652 64-64 64zm23.332-89.024l2.304-2.352c-6.416-5.372-14.308-8.396-22.536-8.396-18.588 0-33.888 14.612-35.04 33.588h3.288C36.5 44.856 50.32 31.588 67.1 31.588c7.4 0 14.48 2.52 20.232 7.388zM86.18 50.06l2.308-2.348A26.62 26.62 0 0 0 67.1 36.792c-14.808 0-26.816 12.264-26.816 27.208 0 15.112 12.008 27.372 26.816 27.372 8.392 0 16.284-4.032 21.388-10.916l-2.308-2.352a23.46 23.46 0 0 1-19.08 9.912c-12.996 0-23.524-10.752-23.524-24.016 0-13.1 10.528-23.848 23.52-23.848A23.452 23.452 0 0 1 86.18 50.06zm3.784-8.564c.824.84 1.48 1.68 2.14 2.52l2.304-2.352c-.66-.84-1.32-1.68-2.136-2.52zm-23.028 58.44a34.752 34.752 0 0 0 22.536-8.396l-2.304-2.348a31.068 31.068 0 0 1-20.232 7.388c-16.78 0-30.6-13.268-31.752-30.228h-3.288c1.152 18.976 16.452 33.584 35.04 33.584zm23.028-13.264l2.308 2.352c.82-.84 1.48-1.68 2.136-2.52l-2.304-2.352c-.656.84-1.316 1.68-2.14 2.52zM27.292 64c0-22.336 17.928-40.64 39.808-40.64 11.844 0 23.028 5.376 30.6 14.78l2.3-2.352C91.776 25.708 79.764 20 67.1 20 43.412 20 24 39.648 24 64c0 24.18 19.248 44 43.1 44 12.832 0 24.68-5.712 32.9-15.788l-2.304-2.348c-7.568 9.572-18.752 14.776-30.6 14.776-21.876 0-39.804-18.304-39.804-40.64z"/></svg>