<svg width="64" height="64" viewBox="0 0 128 128" xmlns="http://www.w3.org/2000/svg"><path d="M64 128C28.652 128 0 99.348 0 64S28.652 0 64 0s64 28.652 64 64-28.652 64-64 64zm35.332-66.616c-.256.484-.364.72-.5.944-1.576 2.588-3.168 5.164-4.732 7.76-2.92 4.848-5.832 9.704-8.74 14.56-.328.544-.68.828-1.332.488-4.584-2.352-9.564-3.088-14.56-3.648a52.832 52.832 0 0 0-16.008.652c-1.892.364-1.9.32-1.064 2.108.76 1.64 1.044 1.776 2.648 1.5 10.232-1.76 20.144-.876 29.608 3.772 1.432.7 1.74.6 2.568-.788l20.116-33.812c.192-.32.36-.66.664-1.232-.444.176-.612.224-.76.3-4.6 2.28-9.28 4.304-14.352 5.152-3.588.6-7.16.8-10.668-.536-3.576-1.36-6.28-3.92-8.812-6.728l-1.756-1.928-1.3 2.108c-.508.824-.348 1.544.32 2.176 1.376 1.312 2.712 2.68 4.152 3.912 3.564 3.048 7.6 4.94 12.308 5.12 3.52.132 6.92-.568 10.304-1.452.54-.144 1.092-.248 1.896-.428zm-70.616.484l.18-.224c1.56.312 3.124.64 4.692.932 3.428.636 6.86.8 10.28-.02 4.348-1.04 8.052-3.332 11.36-6.364 3.692-3.392 6.488-7.528 9.264-11.704 1.244-1.872 1.592-3.48.12-5.284-.272-.332-.484-.708-.816-1.204-.288.512-.452.8-.612 1.096-2.52 4.528-5.292 8.872-8.712 12.744-2.136 2.412-4.508 4.528-7.388 5.964-4.628 2.308-9.424 2.168-14.28.96-3.784-.936-7.36-2.472-10.888-4.124-.58-.272-1.172-.52-1.76-.776L20 54.08c.18.344.34.704.536 1.04 1.388 2.34 2.784 4.676 4.176 7.016 5.152 8.664 10.3 17.332 15.464 25.992 1.46 2.44 1.16 2.16 3.552 1.06 1.108-.508 1.112-.54.468-1.6-4.48-7.444-8.972-14.884-13.456-22.324-.68-1.128-1.352-2.26-2.024-3.392z"/></svg>