<svg width="64" height="64" viewBox="0 0 128 128" xmlns="http://www.w3.org/2000/svg"><path d="M67.724 38.5c.244-4.752 1.816-15.304 6.816-15.304 1.32 0 2.404.376 3.248 1.128-1.2.628-1.804 1.692-1.804 3.2 0 2.252 1.892 3.76 3.788 3.76 1.892 0 3.784-1.132 3.784-3.76C83.56 24.884 81.04 20 75.08 20c-9.832.184-13.68 11.42-13.876 18.78C51.2 40.36 41 47.44 41 63.812c0 14.56 9.796 24.572 20.308 26.26-.464 8.392-3.176 14.92-6.784 14.92-1.08 0-2.16-.376-3.244-1.128 1.08-.628 1.62-1.756 1.62-3.384 0-2.444-1.8-3.76-3.604-3.76s-3.788 1.128-3.788 3.76c0 4.04 3.788 7.52 8.296 7.52 9.52 0 13.36-9.776 14.108-17.892C77.872 88.864 85 82.576 85 79.796c0-1.32-.9-1.88-1.624-1.88-1.3 0-6.308 6.736-15.328 8.052-.024-8.7-.272-33.98-.34-43.164 3.384.188 6.296 1.092 9.176 5.4 2.672 4 2.164 6.02 3.968 6.02 1.2 0 1.864-.504 1.984-1.508-.48-1.46-.72-2.528-.72-3.196 0-1 .18-2.632.18-3.384 0-1.056-4.76-6.912-14.572-7.636zm-6.348 47.152c-6.904-2.084-12.44-10.128-12.44-21.84 0-7.388 3.04-18.372 12.268-20.64.032 10.308.156 32.744.172 42.48zM64 128C28.652 128 0 99.348 0 64S28.652 0 64 0s64 28.652 64 64-28.652 64-64 64z"/></svg>