<svg width="64" height="64" viewBox="0 0 128 128" xmlns="http://www.w3.org/2000/svg"><path d="M64 128C28.652 128 0 99.348 0 64S28.652 0 64 0s64 28.652 64 64-28.652 64-64 64zm0-20c24.3 0 44-19.7 44-44S88.3 20 64 20 20 39.7 20 64s19.7 44 44 44zm0-6.184a37.816 37.816 0 1 1 0-75.632 37.816 37.816 0 0 1 0 75.632zm.288-11.652c11.152 0 17.56-4.816 22.308-11.36l-10.508-7.472c-3.02 3.664-6.116 6.108-11.368 6.108-7.052 0-12.016-5.892-12.016-13.44v-.144c0-7.332 4.964-13.296 12.016-13.296 4.82 0 8.132 2.3 11.008 5.892l10.508-8.12c-4.464-6.18-11.08-10.496-21.372-10.496-15.252 0-26.552 11.5-26.552 26.164v.144c0 15.02 11.588 26.02 25.976 26.02z"/></svg>