<svg width="64" height="64" viewBox="0 0 128 128" xmlns="http://www.w3.org/2000/svg"><path d="M64 128C28.652 128 0 99.348 0 64S28.652 0 64 0s64 28.652 64 64-28.652 64-64 64zm-.412-110.408v-.028L82.98 72a1.2 1.2 0 0 1-.792 1.676l-14.376 3.96c-1.172.292-.908 2.228.296 2.288l36.636 7.304c.704.116 1.408.352 2.14.352A124278.08 124278.08 0 0 0 65.7 16.592c-.584-1.26-2.696-.32-2.112 1zm-2.112.12A48808.378 48808.378 0 0 1 20 89.192v.68c.292.408.644.82 1.172.82.736-.088 1.116-.792 1.556-1.26l37.78-44.384c.384-.56 1.232-.908 1.82-.38 3.64 3.872 7.16 7.86 10.852 11.732.704.76 2.144-.088 1.76-1.112-4.312-12.32-8.768-24.64-13.112-36.96a4.2 4.2 0 0 0-.352-.616zM49.92 59.98c-8.828 10.5-17.6 21.12-26.4 31.68h83.92l.56-.588v-.82c-.292-.236-.56-.528-.94-.588-19.768-3.96-39.54-8.064-59.312-12.024-.616-.032-1.2-.616-.968-1.264 1.528-5.072 3.08-10.148 4.548-15.252.236-.852-.704-1.348-1.408-1.144z"/></svg>