<svg width="64" height="64" viewBox="0 0 128 128" xmlns="http://www.w3.org/2000/svg"><path d="M64 128C28.652 128 0 99.348 0 64S28.652 0 64 0s64 28.652 64 64-28.652 64-64 64zm4.644-60.884a9.368 9.368 0 0 0 5.32-8.428c0-5.176-4.248-9.372-9.48-9.372-5.24 0-9.492 4.196-9.492 9.372a9.36 9.36 0 0 0 5.328 8.424v11.576h8.324V67.116zM64.484 94c-16.744 0-30.36-13.456-30.36-30s13.616-30 30.36-30c13.66 0 25.24 8.96 29.04 21.248h10.464C99.948 37.368 83.796 24 64.48 24 42.124 24 24 41.908 24 64s18.124 40 40.48 40c19.316 0 35.468-13.368 39.508-31.248H93.52C89.72 85.04 78.14 94 64.48 94z"/></svg>