<svg width="64" height="64" viewBox="0 0 128 128" xmlns="http://www.w3.org/2000/svg"><path d="M64 128C28.652 128 0 99.348 0 64S28.652 0 64 0s64 28.652 64 64-28.652 64-64 64zm12.344-95.984H47.24l-2.408 13.468 26.248.04c12.924 0 16.76 4.692 16.636 12.48-.056 3.992-1.796 10.744-2.532 12.92-1.988 5.84-6.084 12.488-21.436 12.468l-25.512-.016-2.408 13.484h29.028c10.236 0 14.596-1.196 19.2-3.32 10.216-4.712 16.3-14.804 18.744-27.976 3.624-19.6-.896-33.548-26.46-33.548zm-13.12 31.176c.952-3.94 1.252-5.52 1.252-5.52H34.692c-7.616 0-8.704 4.96-9.428 7.96-.948 3.924-1.248 5.524-1.248 5.524h29.788c7.612 0 8.7-4.96 9.424-7.964z"/></svg>