<svg width="64" height="64" viewBox="0 0 128 128" xmlns="http://www.w3.org/2000/svg"><path d="M64 128C28.652 128 0 99.348 0 64S28.652 0 64 0s64 28.652 64 64-28.652 64-64 64zM80.216 22.424c-1.504 0-2.764.48-3.788 1.436-.96.956-1.436 2.216-1.436 3.788v27.648a25.224 25.224 0 0 0-19.76-9.32c-4.92 0-9.388 1.232-13.416 3.688-3.96 2.456-7.1 5.872-9.42 10.24-2.256 4.3-3.38 9.112-3.38 14.44s1.228 10.172 3.684 14.54a27.528 27.528 0 0 0 10.14 10.24c4.368 2.456 9.18 3.684 14.44 3.684 5.256 0 10-1.228 14.232-3.684a27.528 27.528 0 0 0 10.136-10.24c2.528-4.368 3.788-9.216 3.788-14.54V27.648c0-1.572-.476-2.832-1.432-3.788-.956-.96-2.22-1.436-3.788-1.436zm-22.94 71.168c-3.412 0-6.52-.816-9.32-2.456a18.92 18.92 0 0 1-6.552-6.96c-1.568-2.94-2.352-6.216-2.352-9.832s.784-6.864 2.352-9.728a18.112 18.112 0 0 1 6.556-6.864c2.8-1.704 5.904-2.56 9.32-2.56 3.412 0 6.48.856 9.212 2.56 2.8 1.64 4.984 3.928 6.556 6.864 1.568 2.864 2.356 6.108 2.356 9.728s-.788 6.892-2.36 9.828a17.872 17.872 0 0 1-6.552 6.964c-2.728 1.64-5.8 2.456-9.216 2.456z"/></svg>