<svg width="64" height="64" viewBox="0 0 128 128" xmlns="http://www.w3.org/2000/svg"><path d="M64 128C28.652 128 0 99.348 0 64S28.652 0 64 0s64 28.652 64 64-28.652 64-64 64zm32.56-88.344l6.428-6.376c1.52-1.504 1.204-4.256-.696-6.14-1.9-1.888-4.68-2.196-6.196-.688l-12.064 11.96-.412.412-10.512 10.42c-7.072-5.132-17.08-4.528-23.468 1.8a17.856 17.856 0 0 0-1.816 23.268l-8.024 7.96a31.376 31.376 0 0 1-4.756-9.172c-2.692-8.152-1.968-17.08 2.4-24.44 6.812-11.48 19-16.472 30.552-15.008a4.28 4.28 0 0 0 4.864-3.944 5.228 5.228 0 0 0-4.696-5.496c-11.604-1.188-23.6 2.6-32.46 11.384-14.68 14.552-15.54 37.636-2.64 53.352l-7.36 7.3c-1.452 1.44-1.092 4.14.812 6.024 1.9 1.884 4.62 2.248 6.072.808l7.924-7.856h.004l5.728-5.68.012-.016 9.288-9.208a18.232 18.232 0 0 0 19.68-3.904 17.852 17.852 0 0 0 3.94-19.516L89.7 46.456c7.724 11.632 6.192 27.736-4.44 38.272a31.544 31.544 0 0 1-24.52 9.116 3.912 3.912 0 0 0-4.12 3.552l-.112 1.28a4.152 4.152 0 0 0 3.964 4.52A41.224 41.224 0 0 0 91.8 91.212c14.388-14.268 16.052-36.244 4.76-51.56zm-28.004 30.14a8.72 8.72 0 0 1-12.24 0 8.54 8.54 0 0 1 0-12.132 8.716 8.716 0 0 1 12.24 0 8.54 8.54 0 0 1 0 12.132z"/></svg>