<svg width="64" height="64" viewBox="0 0 128 128" xmlns="http://www.w3.org/2000/svg"><path d="M64 128C28.652 128 0 99.348 0 64S28.652 0 64 0s64 28.652 64 64-28.652 64-64 64zm-8.86-60.288c.632-.664.632-1.12-.04-1.752-1.3-1.232-2.612-2.456-3.912-3.688l-6.032-5.724c-.52-.496-1.052-.984-1.576-1.476-.296-.28-.628-.408-1.052-.304-.36.092-.728.18-1.092.172-.568-.016-.864.28-1.132.712-2.22 3.56-4.452 7.116-6.68 10.672-1.088 1.744-2.184 3.488-3.268 5.24-.476.772-.148 1.42.76 1.54l4.532.592c1.988.256 3.972.52 5.96.76.964.116 1.26.38 1.376 1.328.088.724.184 1.448.296 2.168.072.468.468.792.988.876.24-.16.528-.288.728-.496 1.192-1.232 2.36-2.484 3.54-3.72l6.6-6.9zm44.36 9.276c-1.592-1.344-3.212-2.656-4.772-4.032-.652-.576-1.3-.812-2.144-.544a2.188 2.188 0 0 1-1.672-.136c-.704-.36-1.3-.24-1.94.176-3.032 1.96-6.08 3.892-9.12 5.832l-5.432 3.472c-.448.288-.78.644-.796 1.208l-.136 4.78a1.892 1.892 0 0 0 .54 1.576c.992 1.14 1.976 2.292 2.96 3.44l2.372 2.736a1.308 1.308 0 0 0 .86.492c.94.108 1.636-.48 1.624-1.42-.008-.82-.06-1.64-.092-2.456a1.372 1.372 0 0 1 .5-1.128c.184-.16.388-.304.592-.436l6.572-4.26c3.4-2.204 6.8-4.416 10.2-6.616.576-.372.848-.868.748-1.544-.08-.532-.488-.828-.86-1.14zm-29.192 3.968c-1.608-1.62-3.24-3.212-4.86-4.82l-7.196-7.16a1.544 1.544 0 0 0-2.248.112c-1.8 1.9-3.604 3.796-5.408 5.688-1.672 1.748-3.336 3.5-5.02 5.236-.748.764-.736 1.72.048 2.432 1.4 1.28 2.756 2.612 4.132 3.92.24.232.5.452.748.68a1.32 1.32 0 0 0 .96.38h.784c1.064-.056 2.216-.128 3.372-.172 1.956-.08 3.912-.132 5.868-.224.484-.02 1.016-.04 1.44-.24 2.36-1.088 4.696-2.228 7.04-3.36.7-.336 1-.844.848-1.588a1.88 1.88 0 0 0-.508-.884zM80.22 48.76c.364.56.704 1.144 1.052 1.72 3.08 5.068 6.172 10.132 9.232 15.212a1.96 1.96 0 0 0 3.228.22c2.092-2.82 4.212-5.624 6.308-8.44a2.656 2.656 0 0 0 .616-1.592l.088-.04c-.148-.34-.248-.712-.448-1.02-1.488-2.288-2.996-4.568-4.5-6.848-.712-1.08-1.42-2.172-2.14-3.248-.416-.624-1.016-.972-1.772-.84-3.428.6-6.848 1.252-10.28 1.824-1.284.212-2.16 1.86-1.384 3.052zM74.2 62.888l.608-5.296.52-4.52.4-3.52c-.04-.072-.108-.316-.244-.36-.164-.056-.396.04-.584.104-.092.032-.16.14-.232.22l-2.624 2.76c-1.784 1.872-3.56 3.748-5.348 5.62l-7.832 8.196c-.548.572-.544.74.024 1.268 1.712 1.6 3.42 3.2 5.12 4.812 1.96 1.848 3.916 3.708 5.872 5.56.544.52 1.084 1.04 1.652 1.532.128.108.384.188.528.132.144-.056.276-.28.312-.448.076-.352.08-.72.12-1.084l.592-5.204c.168-1.48.348-2.956.516-4.432l.6-5.34zm15.224 4.08c-.696-1.132-1.376-2.272-2.064-3.408l-7.82-12.864c-.212-.352-.412-.716-.656-1.044-.092-.12-.32-.236-.46-.212-.132.024-.248.22-.352.352-.04.056-.04.144-.056.22l-.396 2.84-1.048 7.624-1.08 7.804-.988 7.128-.44 3.232c.04.124.056.384.184.568.228.336.656.36 1.072.092 1.052-.664 2.1-1.332 3.148-2.004 3.336-2.136 6.668-4.276 10.016-6.4.428-.268.636-.576.588-1.08a2.468 2.468 0 0 1 .368-1.616c.28-.428.24-.82-.016-1.236zM73.212 47.352l-2.9.508-11.88 2.084-10.06 1.76c-1.048.18-2.096.36-3.14.548-.572.1-.86.384-.9.884-.028.368.172.628.424.868 1.888 1.772 3.776 3.544 5.656 5.32 1.936 1.828 3.868 3.668 5.8 5.5.62.592 1.104.592 1.7-.032 1.66-1.736 3.308-3.484 4.964-5.224l7.928-8.296 2.72-2.86c.2-.212.376-.46.18-.724-.128-.172-.368-.256-.492-.336zM46.256 49.88c-.16.112-.292.264-.44.396l.088.164c.148 0 .296.024.44 0l10.28-1.848L66.04 46.9c2.652-.476 5.304-.96 7.96-1.432.36-.064.56-.24.692-.576.144-.348.336-.68.552-.992.168-.248.256-.48.12-.76l-.476-1.04c-1.236-2.664-2.472-5.332-3.716-7.996-.3-.648-.68-.732-1.28-.324l-18.04 12.288a1724.139 1724.139 0 0 0-5.596 3.812zm-18.76 6.104c.228-.052.456-.08.672-.156 3.204-1.14 6.408-2.292 9.616-3.42a1.44 1.44 0 0 0 .996-1.04 2.768 2.768 0 0 1 2.048-2.04 1.736 1.736 0 0 0 1.2-1.02c1.104-2.292 2.232-4.576 3.344-6.864.608-1.248 1.216-2.492 1.804-3.748a1.436 1.436 0 0 0-.136-1.556 1.392 1.392 0 0 0-1.416-.576 2.552 2.552 0 0 0-.804.32c-3.904 2.248-7.8 4.504-11.704 6.748a2.636 2.636 0 0 0-1 .98c-1.464 2.516-2.944 5.024-4.416 7.54-.512.868-1.04 1.724-1.516 2.612-.564 1.052.136 2.2 1.316 2.22zm16.612-7.304c-.016.3.252.468.532.348.124-.056.24-.14.352-.216l4.72-3.216 14.776-10.052 2.472-1.684c.32-.216.568-.472.54-.86 0-.636-.448-1.028-1.096-1-.908.044-1.816.108-2.72.144l-7.72.292c-1.308.052-2.616.12-3.924.16-.496.02-.788.24-.988.68-.86 1.916-1.744 3.824-2.616 5.736-1.4 3.064-2.8 6.124-4.192 9.188a1.384 1.384 0 0 0-.136.48zm-5.452 6.6c.128-.2.284-.412.096-.664-.208-.28-.46-.168-.712-.092l-1.06.328-8.06 2.56c-1.424.452-2.848.904-4.272 1.364-.476.156-.64.372-.648.88.024.092.068.284.132.472l2.68 7.528c.304.86.604 1.72.928 2.576.2.536.76.748 1.184.44a1.7 1.7 0 0 0 .404-.484l7.36-11.76c.656-1.052 1.316-2.096 1.968-3.148zm64.472 10.436c-.308-1.752-.62-3.5-.924-5.252-.088-.516-.36-.88-.888-1-.504-.108-.9.092-1.2.504l-.9 1.212c-1.476 1.988-2.944 3.98-4.424 5.96-.32.436-.404.872-.156 1.364.26.512.28 1.064.184 1.608-.096.544.08.94.488 1.28 1.812 1.516 3.624 3.032 5.428 4.556.88.74 1.752.484 2.056-.616l1.06-3.824c.064-.236.104-.476.148-.672-.024-.196-.04-.348-.064-.496l-.808-4.624zM72.872 33.94l2.18 4.728c.572 1.228 1.152 2.452 1.72 3.68.136.304.32.52.68.532.988.04 1.76.48 2.388 1.212.112.128.288.196.38.256l.32-.064c3.224-.58 6.452-1.164 9.68-1.74.296-.052.548-.12.604-.456.056-.336-.16-.492-.424-.624l-2.388-1.2-13.448-6.72c-.332-.16-.648-.36-1-.472a.96.96 0 0 0-.68.044c-.24.136-.2.416-.088.656l.076.168z"/></svg>