<svg width="64" height="64" viewBox="0 0 128 128" xmlns="http://www.w3.org/2000/svg"><path d="M19.096 109.6A63.804 63.804 0 0 1 0 64C0 28.652 28.652 0 64 0s64 28.652 64 64c0 18.44-7.8 35.052-20.272 46.732a1246.32 1246.32 0 0 1-6.88-11.048C89.296 80.788 80.576 60.628 74.38 39.376c-3.4-11.668-6.576-23.4-9.856-35.104a4.304 4.304 0 0 0-.92-1.82c-.512 1.616-1.068 3.216-1.532 4.84-5.228 18.244-10.712 36.412-17.564 54.112-6.336 16.368-16.032 33.312-25.412 48.2zM84.588 128h-30.52l-12.584-3.248a87007.2 87007.2 0 0 1 21.48-60.492l.616.012A18864.48 18864.48 0 0 1 84.588 128z"/></svg>