<svg width="64" height="64" viewBox="0 0 128 128" xmlns="http://www.w3.org/2000/svg"><path d="M100.848 99.68C89.296 80.788 80.576 60.628 74.38 39.376c-3.4-11.668-6.576-23.4-9.856-35.104a4.304 4.304 0 0 0-.92-1.82c-.512 1.616-1.068 3.216-1.532 4.84-5.228 18.244-10.712 36.412-17.564 54.112-6.46 16.688-16.412 33.976-25.96 49.068-.084.128-6.268.128-18.548 0V0h128v112h-19.48a1411.796 1411.796 0 0 1-7.672-12.32zM84.588 128h-30.52l-12.584-3.248a87007.2 87007.2 0 0 1 21.48-60.492l.616.012C68.04 77.672 75.04 98.92 84.588 128z"/></svg>