<svg width="64" height="64" viewBox="0 0 128 128" xmlns="http://www.w3.org/2000/svg"><path d="M64 128C28.652 128 0 99.348 0 64S28.652 0 64 0s64 28.652 64 64-28.652 64-64 64zm-4.576-57.52l24.092 21.028h15.96L85.54 79.34a22.528 22.528 0 0 0 13.52-25.16A22.408 22.408 0 0 0 77.096 36H59.42l12.056 10.516H77.1a11.948 11.948 0 0 1 11.912 11.98A11.948 11.948 0 0 1 77.1 70.476H59.42zm8.628-13.44L43.972 36h-15.96l13.924 12.172a22.528 22.528 0 0 0-13.52 25.16 22.408 22.408 0 0 0 21.96 18.18h17.672L56 81h-5.628A11.948 11.948 0 0 1 38.46 69.02a11.948 11.948 0 0 1 11.912-11.98h17.68z"/></svg>