<svg width="64" height="64" viewBox="0 0 128 128" xmlns="http://www.w3.org/2000/svg"><path d="M64 128C28.652 128 0 99.348 0 64S28.652 0 64 0s64 28.652 64 64-28.652 64-64 64zm-9.172-48.56a215.056 215.056 0 0 0 .108 7.708l22.332-13.16c11.24-6.624 19.6-11.572 21.96-12.992A11997.736 11997.736 0 0 0 48.4 29.824L45.356 28l-4.436 3a660.006 660.006 0 0 0-4.132 2.824c.508.328 1.34.84 2.408 1.48.432.256 43.12 26.192 43.236 26.692.12.412.12.412-6.772 4.628a2632.38 2632.38 0 0 0-20.832 12.82zm-9.472-25.184v24.848c.008 12.444.028 21.988.044 24.784 6.348-3.6 51.896-29.668 53.556-30.652l.28-.16L100 62.34l-2.32 1.368C54.36 89.264 54.312 89.28 54.2 89.316l-.244.088-.216-.148c-.32-.228-.32-.228-.584-22.536L53.068 59l-4.12-2.552a194.008 194.008 0 0 0-3.592-2.192zM36 99.2l4.148 2.564c1.544.96 2.86 1.772 3.632 2.24.008-2.96.02-13.112.028-25.328l.02-27.072 2.604 1.516c1 .584 5.952 3.608 11.04 6.752 5.064 3.132 10.144 6.232 11.324 6.928l1.888 1.1 9.456-5.784-2.86-1.72c-1.952-1.168-11.128-6.76-20.456-12.472a3118.496 3118.496 0 0 0-19.172-11.68l-1.552-.912L36 99.2z"/></svg>