<svg width="64" height="64" viewBox="0 0 128 128" xmlns="http://www.w3.org/2000/svg"><path d="M64 128C28.652 128 0 99.348 0 64S28.652 0 64 0s64 28.652 64 64-28.652 64-64 64zm35.536-53.972L81.852 64l17.684-10.028A8.68 8.68 0 0 0 102.804 42c-2.464-4.192-7.924-5.628-12.192-3.208L72.924 48.82V28.76c0-4.836-3.996-8.76-8.924-8.76-4.928 0-8.924 3.924-8.924 8.764V48.82L37.388 38.792C33.12 36.372 27.66 37.808 25.2 42a8.68 8.68 0 0 0 3.268 11.972L46.148 64l-17.68 10.028A8.68 8.68 0 0 0 25.196 86c2.464 4.192 7.924 5.628 12.192 3.208L55.076 79.18v20.056c0 4.84 3.996 8.764 8.924 8.764 4.928 0 8.924-3.924 8.924-8.764V79.18l17.688 10.028c4.268 2.42 9.728.984 12.192-3.208a8.68 8.68 0 0 0-3.268-11.972zm.792 10.568a6.132 6.132 0 0 1-8.288 2.184L72.924 75.94v-6.88l6.072-3.44 19.112 10.836c2.904 1.644 3.896 5.292 2.22 8.14zm-30.26 14.64c0 3.292-2.716 5.96-6.068 5.96-3.352 0-6.068-2.668-6.068-5.96V77.56L64 74.12l6.068 3.44zM35.96 86.78a6.132 6.132 0 0 1-8.288-2.184 5.904 5.904 0 0 1 2.22-8.14l19.112-10.84 6.072 3.444v6.88zm-6.068-35.236a5.904 5.904 0 0 1-2.22-8.14 6.132 6.132 0 0 1 8.288-2.184l19.116 10.84v6.88l-6.072 3.44zm28.04-22.78c0-3.292 2.72-5.96 6.068-5.96 3.352 0 6.068 2.668 6.068 5.96v21.672L64 53.88l-6.068-3.44zM72.924 62.18L76.14 64l-3.216 1.82zm-6.068-6.68l3.212-1.824v3.644zm-8.924 1.82v-3.64l3.212 1.82zm-2.856 8.5L51.86 64l3.216-1.82zm6.068 6.68l-3.212 1.824V70.68zm8.924-1.82v3.64l-3.212-1.82zm-6.068.2l-6.068-3.44v-6.88L64 57.12l6.068 3.44v6.88zm28.04-29.66a6.132 6.132 0 0 1 8.288 2.184c1.68 2.848.68 6.496-2.22 8.14l-19.112 10.84-6.072-3.444v-6.88z"/></svg>