<svg width="64" height="64" viewBox="0 0 128 128" xmlns="http://www.w3.org/2000/svg"><path d="M64 128C28.652 128 0 99.348 0 64S28.652 0 64 0s64 28.652 64 64-28.652 64-64 64zM48.644 91.264H47.56V36.732h1.38c1.184 0 2.324-.46 3.164-1.28a4.302 4.302 0 0 0 1.312-3.084c0-2.412-2.004-4.368-4.48-4.368h-6.224c-1.252 0-2.448.48-3.332 1.344A4.544 4.544 0 0 0 38 32.596v62.692a4.65 4.65 0 0 0 1.416 3.332 4.901 4.901 0 0 0 3.416 1.38h5.812c2.472 0 4.48-1.956 4.48-4.368 0-2.412-2.008-4.364-4.48-4.368zm48.68-45.808a33.472 33.472 0 0 0-12.888-12.6c-5.476-3.044-11.6-4.568-18.364-4.568h-1.396c-1.188 0-2.324.46-3.164 1.28a4.304 4.304 0 0 0-1.312 3.088c0 2.412 2.004 4.364 4.48 4.364h1.184c4.908 0 9.372 1.16 13.388 3.464a25.488 25.488 0 0 1 9.504 9.488c2.32 4.016 3.48 8.532 3.484 13.552 0 4.952-1.144 9.44-3.432 13.448-2.292 4.016-4.82 7.74-8.764 10.012-3.948 2.276-7.46 4.28-12.304 4.28h-2.76c-2.472 0-4.48 1.952-4.48 4.364S62.512 100 64.984 100h2.268c6.836 0 12.352-2.016 17.628-5.432 5.748-3.72 9.248-7.82 12.396-13.176s4.728-11.34 4.728-17.968-1.56-12.612-4.676-17.964z"/></svg>