<svg width="64" height="64" viewBox="0 0 128 128" xmlns="http://www.w3.org/2000/svg"><path d="M64 128C28.652 128 0 99.348 0 64S28.652 0 64 0s64 28.652 64 64-28.652 64-64 64zm-14.528-28h7.472c1.048 0 1.428-.268 1.808-1.272.616-1.632 1.24-3.26 1.828-4.904.164-.472.42-.68.896-.8 5.36-1.288 10.536-3.112 15.432-5.708 4.536-2.408 8.672-5.384 12.256-9.128 5.2-5.44 8.792-11.888 11.32-18.984 1.068-3 1.656-6.104 1.488-9.32-.176-3.324-1.284-6.264-3.516-8.728-1.648-1.82-3.652-3.12-5.856-4.116-2.9-1.308-5.96-2.02-9.096-2.404-.18-.024-.36-.064-.584-.104l.244-.692c.552-1.468 1.108-2.932 1.648-4.408.34-.92 0-1.424-.952-1.428-2.256-.008-4.516 0-6.772 0-.532 0-.54.004-.74.536l-1.984 5.268c-.068.18-.156.356-.232.532h-3.22c.088-.272.156-.5.24-.72.492-1.328.996-2.648 1.488-3.972.08-.208.16-.416.192-.632.076-.52-.216-.92-.72-1-.172-.024-.348-.012-.52-.012h-7.136l-2.404 6.36h-23.46a3.016 3.016 0 0 0-2.824 1.672l-5.552 10c-.08.144-.12.308-.216.544h44.08c2.272.016 4.376.592 6.248 1.94 1.412 1.024 2.36 2.392 2.792 4.12.396 1.58.304 3.164.012 4.744a26.844 26.844 0 0 1-2.68 7.74c-5.872 11.108-14.96 17.02-27.344 17.56-.18.008-.36-.016-.592-.032.104-.3.176-.532.26-.756L61.008 60c.628-1.672 1.276-3.34 1.884-5.024.464-1.272-.272-2.392-1.596-2.492-.128-.008-.26-.008-.388-.008H47.824c-.192 0-.38.028-.54.04-.64 1.228-16.84 42.076-16.892 42.608 2.84.324 5.692.376 8.624.452l-1.608 4.34c.132.04.192.076.252.076 2.52 0 5.036.008 7.552 0 .572 0 .984-.312 1.252-.812.124-.232.204-.488.3-.736l1.224-3.24 3.4-.332L49.472 100z"/></svg>