<svg width="64" height="64" viewBox="0 0 128 128" xmlns="http://www.w3.org/2000/svg"><path d="M64 128C28.652 128 0 99.348 0 64S28.652 0 64 0s64 28.652 64 64-28.652 64-64 64zm-.772-92.168a.976.976 0 0 1 .888-.572c.376 0 .72.228.88.58l25.16 54.78a3.508 3.508 0 0 0 3.176 2.064h.336a2.28 2.28 0 0 0 2.192-1.692 3.82 3.82 0 0 0-.232-2.664L66.456 27.32a1.988 1.988 0 0 0-.54-.684 2.768 2.768 0 0 0-3.568.032 4.98 4.98 0 0 0-1.252 1.644l-28.76 60.592a3.496 3.496 0 0 0 1.16 4.36l.224.16c.552.376 1.2.576 1.864.576h43.008a3.84 3.84 0 0 0 3.34-1.98 2.564 2.564 0 0 0 .124-2.24l-.04-.1a2.928 2.928 0 0 0-2.696-1.82H38.852z"/></svg>