<svg width="64" height="64" viewBox="0 0 128 128" xmlns="http://www.w3.org/2000/svg"><path d="M15.992 90.812a.544.544 0 0 1 .104-.096h.1c.688-.38 1.476-.856 2.46-1.332.392-.284.592-.38.688-.664.1-.192 0-.572-.196-.76a.712.712 0 0 1-.2-.384c-.096-.188-.192-.28-.192-.38-.2-.28-.296-.568-.492-.76a16.584 16.584 0 0 1-.592-1.332c-.2-.472-.492-.852-.788-.948-.688-.192-2.264.856-2.956 1.236-.096.188.2.664.296.856.592.188 1.48-.668 2.068-.668.1.192.296.48.396.76.196.288.392.48.492.76.296.48.492 1.048.196 1.428-.296.476-1.08.76-1.872 1.048-.788.28-1.476.568-1.672 1.044-.1.192 0 .76.392 1.14l.592.856c.2.284.392.668.592.952.196.38.392.664.588.948.1.192.2.288.296.384l.296.28c.396.384.888.1 1.48-.28.688-.288 1.28-.856 1.768-1.144a1.124 1.124 0 0 0-.492-.856c-.588 0-1.376 1.048-1.968.952-.296-.476-.788-1.044-1.18-1.712-.268-.512-.452-1.024-.2-1.328zM91.86 17.46a.54.54 0 0 1-.04.24v.096c-.4.664-.888 1.424-1.38 2.376-.296.38-.296.664-.296.952 0 .188.296.476.492.568.492.38 1.18.668 1.576.952.196.096.392.284.588.38.2.192.396.284.592.476.396.284.788.476 1.08.38.692-.192 1.48-1.9 1.972-2.472 0-.192-.492-.476-.688-.572-.592.192-.984 1.332-1.48 1.616-.196-.092-.488-.28-.784-.38a4.036 4.036 0 0 1-.888-.472c-.492-.288-.984-.668-.884-1.048 0-.572.588-1.236 1.08-1.808.492-.664.988-1.232.888-1.708 0-.192-.492-.668-.888-.76 0 0 0 .092-.096.092 0 0 0-.092.096-.092-.292-.096-.588-.288-.984-.48-.196-.092-.296-.188-.492-.28-.2-.096-.296-.192-.492-.288-.688-.38-1.28-.76-1.872-.952-.492-.092-.884.38-1.18.952-.296.572-.492 1.332-.788 1.808-.1 0 .1.092.296.188.2.096.392.192.492.096.492-.284.688-1.616 1.28-1.808.492.288 1.28.572 1.872.952.472.304.88.608.924.96a.116.116 0 0 0-.04.088.376.376 0 0 0 .044-.052zM64 128C28.652 128 0 99.348 0 64S28.652 0 64 0s64 28.652 64 64-28.652 64-64 64zM75.176 11.044c.492.096 1.38.288 2.068.48.392.092.688.188.884.376.2.192.296.38.296.572v.096c-.196.76-.492 1.616-.688 2.66-.1.476-.2.76 0 .952.1.188.392.38.688.476l.888.28a2.832 2.832 0 0 0 .884.192c.396.096.888.384 1.38.48.2.092.492.188.688.188.2 0 .396 0 .492-.096.692-.38.988-2.188 1.184-2.852-.1-.192-.592-.38-.788-.38-.296.188-.396.476-.492.952a3.46 3.46 0 0 1-.492 1.044c-.492-.188-1.184-.188-1.772-.38-.592-.192-1.084-.38-1.184-.856-.096-.572.2-1.332.492-1.996.296-.76.592-1.428.396-1.9-.1-.192-.592-.572-1.084-.48-.2 0-.296-.092-.492-.092-.2 0-.396-.096-.492-.096-.396-.096-.788-.188-1.08-.284-.3-.096-.792-.192-1.088-.284C75.472 10 75.176 10 74.88 10c-.492 0-.788.568-.884 1.14-.1.664-.1 1.428-.296 2-.1-.1.492 0 .788-.1.392-.472.196-1.708.688-1.996zm-8.368 1.144c.096 0 .196 0 .292.092.2 0 .396 0 .496-.092.292-.48 0-1.712.392-2.092.392.092 1.08 0 1.772 0 .688 0 1.28.092 1.48.472.292.384 0 1.24-.2 2.092-.2.856-.392 1.712 0 2.092a.768.768 0 0 0 .492.192c.1 0 .2.096.296.096.1 0 .2.092.392.092.496.096.988.096 1.28.192.2 0 .396.096.592.096.1 0 .2.092.296.092.1 0 .2.096.396.096.492.096.984.192 1.28.096.688-.284.984-2.472.884-3.136a2.384 2.384 0 0 0-.788-.192c-.492.284-.392 1.616-.788 2-.196 0-.492-.1-.788-.1-.296 0-.688 0-.984-.092-.592-.096-1.18-.288-1.38-.668-.196-.476.1-1.328.2-2.092.096-.38.196-.76.196-1.14 0-.38 0-.664-.2-.76-.292-.38-1.768-.38-2.56-.476-.98-.096-1.968-.38-2.756-.188-.292 0-.492.188-.588.472-.1.288-.2.572-.2.952.2.572.296 1.332.296 1.808.1 0 .1.096.2.096zm15.456.664c.396.188 1.084.284 1.676.476.592.188 1.18.38 1.38.76.196.476-.296 1.236-.692 1.996-.392.76-.788 1.616-.588 2 .196.472 1.772.948 2.164 1.136.592.288 1.676 1.144 2.264 1.048.692-.096 1.576-2.092 1.676-2.852-.1-.192-.492-.38-.692-.38-.588.092-.788 1.424-1.28 1.708-.196-.092-.492-.188-.688-.28-.2-.1-.296-.1-.492-.192-.2-.096-.296-.096-.492-.192-.592-.188-1.08-.568-1.18-.952 0-.472.392-1.236.784-1.996.396-.76.788-1.424.592-1.9-.2-.476-1.576-.76-2.36-1.044-.2-.096-.496-.192-.692-.288 0 .096-.296 0-.492-.096-.492-.188-.888-.28-1.28-.38-.592-.092-.888.48-1.08 1.144-.2.664-.3 1.424-.4 1.9.2.188.592.38.888.284.492-.38.492-1.616.984-1.9zM101.072 23.5l.296.284c.1.096.296.192.396.284a2.948 2.948 0 0 1 .784.76c.496.48.788 1.048.496 1.332l.784-.76-.784.76-1.972 1.904c-.392.38-.492.568-.492.856 0 .188.2.472.396.76.196.188.392.476.688.664.1.096.2.192.392.284l.296.288c.296.284.592.76.888 1.14.196.192.296.38.492.476.2.096.296.188.492.188.788 0 1.968-1.424 2.56-1.9 0-.192-.296-.572-.492-.76-.592 0-1.28 1.044-1.872 1.14-.296-.38-.884-.76-1.28-1.236l-.2-.188-.192-.192c-.1-.096-.2-.192-.2-.284-.096-.192-.196-.48-.096-.668.2-.568.884-1.044 1.48-1.52.684-.476 1.28-.952 1.28-1.424a1.2 1.2 0 0 0-.692-.952c-.592-.38-1.084-.952-1.576-1.52-.1-.192-.296-.288-.396-.38l-.392-.384c-.296-.188-.492-.472-.788-.568-.492-.192-.888.096-1.38.568-.392.48-.884 1.144-1.28 1.616 0 .384.396.76.692.856.588-.188 1.08-1.328 1.672-1.424zm-5.712-4.372c.296.28.888.568 1.48.852.296.192.588.384.788.48.196.188.292.376.292.568 0 .476-.588 1.14-1.18 1.808-.592.664-1.18 1.328-1.08 1.804.096.284.392.572.784.856.2.192.396.284.592.476.2.096.296.188.392.284l.888.856.1.096.096.096c.1.092.2.188.296.188.2.096.392.192.492.192.688.092 2.068-1.616 2.464-2.28-.1-.192-.396-.48-.592-.48-.592 0-1.184 1.144-1.772 1.332-.296-.284-.888-.568-1.38-.952a1.64 1.64 0 0 1-.592-.568c-.196-.192-.196-.38-.196-.668.1-.472.688-1.14 1.28-1.708.592-.572 1.184-1.24 1.08-1.616a2.888 2.888 0 0 0-.784-.856c-.2-.192-.392-.288-.592-.48-.196-.092-.392-.28-.588-.376-.788-.572-1.48-1.332-2.268-1.52-.588-.192-.984.28-1.376.852-.396.572-.692 1.332-.888 1.712a.808.808 0 0 0 .788.668c.492-.288.888-1.428 1.48-1.616zM108.656 35.1c.588 0 1.376-1.048 1.968-.952.296.476.788 1.044 1.18 1.712.296.568.492 1.14.1 1.424h-.1c-.688.38-1.476.856-2.46 1.332-.392.284-.592.38-.688.664-.1.192 0 .572.196.76a.72.72 0 0 1 .2.384c.096.188.192.28.192.38.2.28.296.568.492.76.2.38.396.856.592 1.332.2.472.492.852.788.948.688.192 2.264-.856 2.956-1.236.096-.188-.2-.664-.296-.856-.592-.188-1.48.668-2.068.668-.1-.192-.296-.48-.396-.76-.196-.288-.392-.48-.492-.76-.296-.48-.492-1.048-.196-1.428.296-.476 1.08-.76 1.872-1.048.788-.28 1.476-.568 1.672-1.044.1-.192 0-.76-.392-1.14l-.592-.856c-.2-.284-.392-.668-.592-.952a8.308 8.308 0 0 0-.588-.948 1.32 1.32 0 0 0-.296-.384l-.296-.28c-.396-.384-.888-.1-1.48.28-.688.288-1.18.856-1.768 1.144 0 .284.196.664.492.856zm-4.236-5.42c.592-.096 1.28-1.24 1.872-1.24a2.424 2.424 0 0 0 .492.572c.2.192.492.38.688.668.492.476.788.948.788 1.332-.096.472-.884.948-1.672 1.424-.788.476-1.48.952-1.576 1.52 0 .096.096.288.2.48.096.188.192.376.392.568.292.38.588.76.784.948.2.192.396.668.592 1.048.2.38.492.76.888.952.196.092.392 0 .688-.096.296-.096.592-.284.888-.476.588-.38 1.18-.856 1.376-1.14 0-.192-.196-.48-.392-.668-.592-.188-1.38.856-2.068.856a2.6 2.6 0 0 0-.492-.568 1.32 1.32 0 0 1-.296-.38 1.32 1.32 0 0 1-.296-.38c-.392-.48-.688-1.048-.492-1.428.2-.476.984-.856 1.672-1.332.692-.476 1.38-.856 1.48-1.328 0-.288-.2-.572-.492-.952-.296-.38-.692-.76-.888-1.048l-.884-1.14a8.684 8.684 0 0 0-.888-.948c-.492-.384-.984 0-1.48.472-.588.668-1.08 1.332-1.476 1.616a1.352 1.352 0 0 0 .592.668zm10.536 17.588c.592.096 1.676-.668 2.168-.476l.296.856c.096.188.096.38.196.476.096.188.096.38.196.476.2.664.2 1.236-.2 1.424.2 0 .3-.096.496-.096-.2 0-.396.096-.592.192-.788.188-1.672.476-2.76.664a1.516 1.516 0 0 0-.88.48c-.1.092-.1.188-.1.376v.476c.096.572.296 1.236.492 1.712v.76c0 .284.096.476.096.76.1.476.2.856.496 1.048.292.188.884.092 1.572 0 .592-.096 1.28-.38 1.676-.38.096-.192 0-.668-.1-.856-.492-.288-1.672.28-2.264.092-.1-.188-.1-.472-.2-.76l-.292-.856c-.2-.568-.2-1.14.1-1.424.492-.38 1.28-.48 2.068-.572.784-.096 1.572-.188 1.868-.664.1-.192.2-.76-.096-1.14-.1 0-.2.092-.296.092.096 0 .196-.092.296-.092-.296-.572-.396-1.332-.592-2.092-.2-.76-.396-1.428-.688-1.904-.296-.476-.888-.38-1.48-.092-.492 0-1.18.38-1.772.568-.096.284 0 .76.296.952zm-2.76-6.372c.596 0 1.58-.856 2.072-.664 0 .096.096.192.096.284 0 .096.1.192.2.38.196.288.296.572.492.76.196.288.296.572.392.76 0 .096.1.288.1.384 0 .096 0 .188-.1.284-.196.476-1.08.664-1.968.952-.888.284-1.676.568-1.872 1.044-.096.284.1.76.296 1.14.1.192.2.48.296.668.096.188.2.38.2.476.096.28.192.76.292 1.236a1.72 1.72 0 0 1 .2.664 1.928 1.928 0 0 0 .292.476c.592.476 2.66-.38 3.248-.856a2.176 2.176 0 0 0-.196-.76c-.492-.288-1.576.476-2.164.38-.1-.38-.492-.952-.692-1.52-.096-.192-.096-.288-.196-.48 0-.188-.1-.28-.1-.376 0-.288 0-.48.2-.668.296-.38 1.18-.568 1.968-.856.788-.28 1.576-.472 1.772-.948.1-.192 0-.668-.2-1.048 0-.096-.096-.188-.192-.38-.1-.096-.1-.188-.2-.38-.096-.188-.196-.476-.292-.572-.2-.472-.396-.852-.496-1.328l-.292-.572c-.1-.188-.2-.38-.396-.476-.392-.476-.984-.284-1.576.096-.492.476-1.08.952-1.576 1.14 0 .288.2.668.396.76zm5.42 18.732c-.2.188-.2.76 0 .948.588.288 1.772-.188 2.264.192 0 .476.1 1.332.1 1.996 0 .664-.2 1.236-.592 1.332h-2.956a2.184 2.184 0 0 0-.984.188 1.06 1.06 0 0 0-.296.76v1.808c0 .38-.196.952-.196 1.428 0 .472 0 .948.2 1.14.488.476 2.36.284 3.148.38.1-.096.2-.192.2-.38v-.48c-.4-.376-1.68-.092-2.168-.472 0-.476-.1-1.14 0-1.712 0-.568.096-1.14.492-1.328.492-.288 1.376-.192 2.164-.096.788.096 1.576.188 1.972-.096.196-.096.392-.664.296-1.14a8.12 8.12 0 0 1 0-2.188v-1.14a2.728 2.728 0 0 0-.2-.952c-.096-.476-.688-.568-1.376-.476-.692.096-1.48.288-2.068.288zm-.984-6.656a.888.888 0 0 0 .196.856c.592.188 1.672-.38 2.264-.192 0 .38.2 1.048.396 1.616 0 .192.096.288.096.48v.472a1.28 1.28 0 0 1-.2.664c-.292.38-1.28.38-2.16.38-.888 0-1.776.096-2.072.572-.196.192-.096.76-.096 1.24 0 .472.096.948.096 1.232v1.236c0 .476 0 .952.2 1.236.392.572 2.656.284 3.444 0a1.016 1.016 0 0 0 0-.76c-.392-.476-1.672 0-2.264-.192v-.38c0-.096-.1-.284-.1-.38-.096-.284-.096-.568-.196-.948 0-.288-.096-.572 0-.856 0-.096.1-.288.1-.38.096-.096.096-.192.196-.288.392-.284 1.28-.284 2.168-.284.884 0 1.672-.096 1.968-.476.1-.188.1-.664.1-1.14 0-.192-.1-.476-.1-.76 0-.096 0-.192-.1-.38 0-.096 0-.192-.096-.288-.1-.472-.1-.948-.2-1.424 0-.192-.096-.476-.096-.668-.1-.188-.1-.38-.2-.568-.196-.38-.784-.38-1.476-.192-.688.192-1.376.48-1.868.572zm.392 20.156c-.2.188-.392.664-.2.948.496.38 1.776.192 2.072.668a27.992 27.992 0 0 1-.492 1.996c-.1.38-.2.664-.396.856-.196.188-.392.284-.588.284h-.1c-.788-.188-1.676-.476-2.76-.664-.488-.096-.784-.192-.98 0-.2.096-.396.38-.496.664l-.292.856a2.664 2.664 0 0 0-.2.856c-.096.38-.392.856-.492 1.332a1.72 1.72 0 0 0-.196.664c0 .192 0 .38.1.476.392.664 2.264.952 2.952 1.14.2-.096.396-.568.396-.76-.2-.284-.492-.38-.988-.476a3.704 3.704 0 0 1-1.08-.476c.196-.476.196-1.14.392-1.712.2-.568.396-1.044.888-1.14.588-.096 1.376.192 2.068.48.788.28 1.476.568 1.968.376.2-.096.592-.568.492-1.044 0-.192.1-.288.1-.48 0-.188.096-.376.096-.472.1-.38.2-.76.296-1.044.1-.38.2-.76.296-1.048.1-.38.1-.664.1-.952.292-.76-.2-.948-.888-1.044-.688-.096-1.48-.096-2.068-.284zm2.66-6.752c-.692 0-1.48.096-1.972.096 0 .096-.096.096-.096.192 0 .092 0 .188-.1.28 0 .192 0 .384.1.48.492.28 1.772 0 2.164.38-.096.38 0 1.044 0 1.712 0 .664-.096 1.236-.492 1.424-.392.284-1.28 0-2.164-.188-.888-.192-1.772-.384-2.168 0a.712.712 0 0 0-.2.472c0 .096-.096.192-.096.288 0 .092-.096.188-.096.38-.1.476-.1.948-.2 1.236 0 .188-.096.38-.096.568 0 .096-.1.192-.1.288 0 .092-.096.188-.096.38-.1.476-.2.948-.1 1.236.296.664 2.56.948 3.248.856a2.176 2.176 0 0 0 .2-.76c-.296-.48-1.676-.384-2.068-.76 0-.192.096-.48.096-.76 0-.288 0-.668.1-.956.096-.568.296-1.14.688-1.328.492-.192 1.38.096 2.168.188.392.096.788.192 1.18.192.396 0 .688 0 .788-.192.396-.284.396-1.712.492-2.472.1-.948.396-1.9.2-2.66.096-.096-.1-.284-.4-.38a2.94 2.94 0 0 0-.98-.192zm-6.892 19.68c-.1.096-.296.192-.396.38-.1.192-.2.38-.1.48.296.472 1.676.66 1.872 1.232-.296.476-.588 1.236-.984 1.808-.392.568-.788 1.044-1.28.856h-.1c-.688-.384-1.476-.856-2.46-1.332-.392-.288-.688-.288-.984-.288-.2 0-.492.288-.592.48-.392.472-.688 1.14-.984 1.52-.1.188-.296.38-.396.568-.196.192-.292.38-.492.572-.292.38-.492.76-.392 1.044.2.668 1.968 1.428 2.56 1.904.2 0 .492-.48.592-.668-.2-.568-1.38-.948-1.676-1.424.1-.192.296-.48.396-.76.096-.288.296-.572.492-.856.296-.48.688-.952 1.08-.856.592 0 1.28.568 1.872 1.044.692.48 1.28.952 1.772.856.2 0 .692-.476.788-.856-.196-.096-.296-.188-.492-.284.2.096.296.188.492.284.1-.284.296-.568.492-.948.1-.192.2-.288.296-.48.1-.188.2-.28.296-.472.396-.668.788-1.24.984-1.808.296-.568-.096-.948-.788-1.236-.588-.284-1.376-.476-1.868-.76zm2.46-6.18c-.2.192-.392.572-.296.856.396.476 1.676.476 1.968.952-.196.38-.292 1.044-.492 1.616-.196.568-.392 1.14-.788 1.332-.492.188-1.28-.288-2.064-.668-.788-.38-1.676-.76-2.068-.568-.496.188-.988 1.708-1.184 2.092-.296.568-1.18 1.616-1.08 2.184.096.668 2.16 1.52 2.952 1.616.2-.096.392-.476.392-.664-.096-.572-1.476-.76-1.772-1.24.1-.188.2-.472.296-.66.1-.192.1-.288.2-.48.096-.188.096-.28.196-.472.196-.572.588-1.048.984-1.14.492 0 1.28.38 2.068.76s1.476.76 1.968.568c.492-.188.788-1.52 1.08-2.28.1-.192.2-.476.3-.664.096-.192.196-.48.292-.668.2-.476.296-.856.396-1.236-.1-.38-.688-.664-1.38-.856-.688-.188-1.476-.284-1.968-.38zm-10.04 17.588c-.3 0-.692.38-.692.668.196.568 1.376 1.044 1.476 1.616l-.296.284c-.096.096-.2.284-.296.38a2.948 2.948 0 0 1-.788.76c-.492.48-1.08.76-1.376.48l.788.76-.788-.76-1.972-1.904c-.392-.38-.588-.48-.884-.48-.2 0-.492.192-.788.384-.2.188-.492.38-.688.664-.1.096-.2.192-.296.38l-.296.288c-.296.284-.788.568-1.18.856-.2.188-.396.28-.496.472-.096.192-.196.288-.196.48 0 .76 1.48 1.9 1.972 2.468.196 0 .588-.284.784-.476 0-.568-1.08-1.236-1.18-1.804.396-.284.788-.856 1.28-1.24l.2-.188.196-.188c.096-.096.196-.192.292-.192.2-.096.492-.188.692-.096.588.192 1.08.856 1.576 1.428.492.664.984 1.236 1.476 1.236.2 0 .788-.192.984-.664.392-.572.984-1.048 1.576-1.52.2-.096.296-.288.392-.384l.396-.38c.196-.284.492-.476.592-.76 0-.476-.296-.856-.788-1.332-.496-.38-1.184-.856-1.676-1.236zm4.032-5.32c-.292.092-.492.472-.492.76.296.472 1.48.852 1.676 1.424-.296.284-.592.856-.888 1.424-.196.288-.392.572-.492.76-.2.192-.392.288-.592.288-.492 0-1.18-.572-1.868-1.14-.692-.572-1.38-1.144-1.872-1.048-.296.096-.592.38-.888.76-.196.192-.292.38-.492.572a1.32 1.32 0 0 1-.292.38l-.888.856-.1.096-.096.096c-.1.092-.2.188-.2.28-.096.192-.196.384-.196.48-.096.664 1.676 1.996 2.364 2.376.2-.096.492-.38.492-.572 0-.568-1.18-1.14-1.376-1.712.292-.28.588-.852.984-1.328a1.644 1.644 0 0 1 .588-.572c.2-.188.396-.188.692-.188.492.092 1.18.664 1.772 1.236.592.568 1.28 1.14 1.672 1.044a2.932 2.932 0 0 0 .888-.76c.2-.192.296-.38.492-.572.1-.188.296-.38.392-.568.592-.76 1.38-1.428 1.576-2.188 0-.572-.392-.952-1.08-1.332-.592-.38-1.38-.664-1.776-.856zm-15.26 15.02c0 .568 1.08 1.328.984 1.9-.492.284-1.08.76-1.772 1.14-.592.284-1.184.476-1.48.096v-.096c-.392-.664-.88-1.424-1.376-2.376-.296-.38-.392-.572-.688-.664-.2-.096-.592 0-.788.188a.76.76 0 0 1-.396.192c-.196.092-.296.188-.392.188-.296.192-.592.288-.788.48-.396.188-.888.376-1.38.568-.492.188-.884.476-.984.76-.2.664.888 2.184 1.28 2.852.2.096.688-.192.888-.284.196-.572-.692-1.428-.692-2 .2-.092.492-.28.788-.38.296-.188.492-.38.788-.472.492-.288 1.084-.48 1.48-.192.492.284.784 1.044 1.08 1.808.296.76.592 1.424 1.084 1.616.2.092.788 0 1.18-.38l.888-.572c.296-.192.688-.38.984-.572.396-.188.688-.38.984-.568.2-.096.296-.192.396-.288l.296-.28c.392-.384.096-.86-.296-1.428-.396-.668-.888-1.24-1.184-1.712a1.188 1.188 0 0 0-.884.476zm5.512-4.088c.1.568 1.28 1.236 1.28 1.804a2.56 2.56 0 0 0-.588.476c-.2.192-.396.476-.692.664-.492.48-.984.76-1.376.76-.492-.092-.984-.852-1.48-1.616-.492-.76-.984-1.424-1.572-1.52a1.7 1.7 0 0 0-.496.192 2.068 2.068 0 0 0-.588.38 10.256 10.256 0 0 0-.984.76c-.2.188-.692.38-1.084.572a2.132 2.132 0 0 0-.984.852c-.1.192 0 .384.096.668a3.816 3.816 0 0 0 .492.856c.396.568.888 1.14 1.184 1.332.196 0 .492-.192.688-.384.2-.568-.884-1.328-.884-1.996a2.46 2.46 0 0 0 .588-.476c.1-.092.2-.188.396-.28a1.256 1.256 0 0 1 .392-.288c.492-.38 1.084-.668 1.48-.476.492.192.884.952 1.376 1.616.492.664.888 1.332 1.38 1.428.296 0 .588-.192.984-.48.392-.28.788-.664 1.08-.852l1.184-.856c.396-.284.688-.572.984-.856.396-.476 0-.952-.492-1.424a16.056 16.056 0 0 0-1.672-1.428 1.372 1.372 0 0 0-.692.572zm-18.12 10.172c-.096.568.692 1.616.496 2.092l-.888.28c-.196.1-.392.1-.492.192-.196.096-.392.096-.492.192-.688.192-1.28.192-1.476-.192v-.092c-.2-.76-.492-1.616-.688-2.664a1.44 1.44 0 0 0-.492-.856c-.1-.092-.2-.092-.396-.092h-.492c-.592.092-1.28.28-1.772.472h-.788c-.296 0-.492.096-.788.096-.492.096-.888.192-1.08.476-.2.284-.1.856 0 1.52.096.572.392 1.24.392 1.616.196.096.688 0 .884-.092.296-.48-.296-1.616-.096-2.188.196-.096.492-.096.788-.192l.884-.28c.592-.192 1.184-.192 1.48.092.392.476.488 1.236.588 1.996.1.76.2 1.52.688 1.808.2.092.788.188 1.184-.096 0-.096-.1-.192-.1-.288 0 .096.1.192.1.288.592-.288 1.376-.38 2.164-.572.788-.188 1.48-.38 1.972-.664.492-.288.392-.856.096-1.428-.196-.476-.492-1.14-.688-1.712-.296-.092-.788 0-.984.288zm6.504-2.664c0 .572.884 1.52.688 2-.1 0-.2.092-.296.092-.1.096-.2.096-.392.192-.296.188-.592.284-.788.476-.296.188-.592.28-.788.38-.1 0-.296.092-.396.092-.096 0-.196 0-.296-.092-.492-.192-.688-1.048-.984-1.904-.296-.856-.588-1.616-1.08-1.804-.296-.096-.792.092-1.184.28-.2.1-.492.192-.688.288-.2.096-.396.192-.492.192a13.232 13.232 0 0 1-1.28.284 1.876 1.876 0 0 1-.692.192 2.168 2.168 0 0 0-.492.28c-.492.576.396 2.572.888 3.14a2.384 2.384 0 0 0 .788-.188c.296-.48-.492-1.52-.396-2.092.396-.096.984-.476 1.576-.668.2-.092.296-.092.492-.188.2 0 .296-.096.396-.096.292 0 .492 0 .688.192.392.284.592 1.14.888 1.9.292.76.492 1.52.984 1.712.196.096.688 0 1.08-.192.1 0 .2-.092.396-.188.1-.096.2-.096.392-.192.2-.092.492-.188.592-.284.492-.192.888-.38 1.38-.476l.588-.284c.2-.096.396-.192.496-.38.492-.38.292-.952-.1-1.52a7.032 7.032 0 0 1-1.184-1.52c-.292 0-.688.188-.784.376zm-20.284 5.228c-.296.572.196 1.712-.2 2.188-.492 0-1.376.096-2.068.096-.688 0-1.28-.192-1.376-.572v-2.852a1.988 1.988 0 0 0-.2-.948 1.14 1.14 0 0 0-.784-.288h-1.872c-.396 0-.984-.188-1.48-.188-.492 0-.984 0-1.18.188-.492.48-.296 2.28-.392 3.04.096.1.196.192.392.192h.492c.396-.38.1-1.616.492-2.088.492 0 1.184-.096 1.772 0 .592 0 1.184.092 1.38.472.296.48.2 1.332.1 2.092s-.2 1.52.096 1.904c.1.188.692.38 1.184.28a9.31 9.31 0 0 1 2.264 0h1.18a3 3 0 0 0 .984-.188c.496-.188.592-.664.496-1.328-.1-.668-.296-1.428-.296-2-.2-.188-.788-.188-.984 0zm6.988-.852c-.196.568.396 1.616.2 2.184-.396 0-1.084.192-1.676.38-.2 0-.296.096-.492.096h-.492c-.296 0-.492-.096-.688-.188-.396-.288-.396-1.24-.396-2.092 0-.856-.1-1.712-.592-2-.196-.188-.788-.092-1.28-.092s-.984.096-1.28.096h-1.28c-.492 0-.984 0-1.28.188-.588.38-.296 2.568 0 3.328a1.12 1.12 0 0 0 .788 0c.492-.38 0-1.616.2-2.188h.392c.1 0 .296-.092.392-.092.296-.096.592-.096.988-.192.292 0 .588-.096.884 0 .1 0 .296.096.396.096.096.096.196.096.292.188.296.38.296 1.24.296 2.092 0 .856.1 1.616.492 1.904.2.092.692.092 1.184.092.196 0 .492-.092.788-.092.096 0 .196 0 .392-.096.1 0 .2 0 .296-.096.492-.096.984-.096 1.48-.192.196 0 .488-.092.688-.092.196-.096.392-.096.588-.192.492-.284.492-.856.296-1.52a6.24 6.24 0 0 1-.688-1.712.968.968 0 0 0-.888.192zm-21.66 1.996a30.752 30.752 0 0 1-2.068-.48c-.396-.092-.692-.188-.888-.376-.2-.192-.296-.38-.296-.572 0 .096 0 .096-.096.192 0-.096 0-.192.096-.288.2-.76.492-1.616.692-2.66.096-.476.196-.76 0-.952-.1-.188-.396-.38-.692-.476l-.884-.28a2.832 2.832 0 0 0-.888-.192c-.392-.096-.884-.384-1.376-.48a1.876 1.876 0 0 0-.692-.188c-.196 0-.392 0-.492.096-.688.38-.984 2.188-1.18 2.852.096.192.588.38.788.38.296-.188.392-.476.492-.952a3.46 3.46 0 0 1 .492-1.044c.492.188 1.18.188 1.772.38.592.192 1.08.38 1.18.856.1.572-.196 1.332-.492 1.996-.296.664-.588 1.428-.392 1.9.096.192.588.572 1.08.48.2 0 .296.092.496.092.196 0 .392.096.492.096.392.096.788.188 1.08.284.396.096.788.192 1.084.284a3.82 3.82 0 0 0 .984.096c.496 0 .788-.568.888-1.14.1-.664.1-1.428.296-2 0 .1-.492 0-.788.1-.396.472-.2 1.708-.688 1.996zm8.368-1.144c-.1 0-.2 0-.296-.092-.196 0-.392 0-.492.092-.296.48 0 1.712-.392 2.092-.396-.092-1.084 0-1.772 0-.692 0-1.28-.092-1.48-.472-.296-.384 0-1.24.2-2.092.196-.856.392-1.712 0-2.092a.768.768 0 0 0-.496-.192c-.096 0-.196-.096-.292-.096-.1 0-.2-.092-.396-.092-.492-.096-.984-.096-1.28-.192-.2 0-.392-.096-.592-.096-.096 0-.196-.092-.292-.092-.1 0-.2-.096-.396-.096-.492-.096-.984-.192-1.28-.096-.688.284-.984 2.472-.884 3.136a2.344 2.344 0 0 0 .784.192c.496-.284.396-1.616.788-2 .2 0 .492.1.788.1a3.56 3.56 0 0 1 .984.092c.592.096 1.184.288 1.38.668.2.476-.096 1.328-.2 2.092-.096.38-.192.76-.192 1.14 0 .38 0 .664.196.76.296.38 1.772.38 2.56.476.984.096 1.968.38 2.76.188.292 0 .488-.188.588-.472a2.728 2.728 0 0 0 .2-.952c-.2-.572-.4-1.332-.3-1.808-.096 0-.096-.096-.196-.096zM40.32 110.68c-.492.284-.692 1.616-1.28 1.808-.492-.288-1.28-.572-1.872-.952-.592-.38-1.08-.76-.888-1.24v-.092c.396-.664.888-1.424 1.38-2.376.296-.38.296-.664.296-.952 0-.188-.296-.476-.492-.568-.492-.38-1.184-.668-1.576-.952-.2-.096-.396-.284-.592-.38-.196-.192-.392-.284-.588-.476-.396-.284-.788-.476-1.084-.38-.692.192-1.48 1.9-1.972 2.472 0 .192.492.476.692.572.588-.192.984-1.332 1.476-1.616.2.092.492.28.788.38.296.092.592.28.884.472.496.288.988.668.888 1.048 0 .572-.592 1.236-1.08 1.808-.496.664-.988 1.232-.888 1.708 0 .192.492.668.884.76 0 0 0-.092.1-.092 0 0 0 .092-.1.092.296.096.592.288.984.48.2.092.296.188.492.28.2.096.296.192.496.288.688.38 1.28.76 1.868.952.492.092.888-.38 1.184-.952.296-.572.492-1.332.788-1.808 0 0-.2-.092-.296-.188-.2-.096-.396-.192-.492-.096zm5.416 4.468c-.396-.188-1.084-.284-1.676-.476-.592-.188-1.18-.38-1.38-.76-.196-.476.296-1.236.692-1.996.392-.76.788-1.616.588-2-.196-.472-1.772-.948-2.164-1.136-.592-.288-1.676-1.144-2.264-1.048-.692.096-1.576 2.092-1.676 2.852.1.192.492.38.692.38.588-.092.788-1.424 1.28-1.708.196.092.492.188.688.28.2.1.296.1.492.192.2.096.296.096.492.192.592.188 1.08.568 1.18.952 0 .472-.392 1.236-.784 1.996-.396.76-.788 1.424-.592 1.9.2.476 1.576.76 2.36 1.044.2.096.496.192.692.288.2.096.492.188.688.284.492.192.888.284 1.28.38.592.096.888-.476 1.084-1.14.2-.664.296-1.428.396-1.9-.396-.38-.788-.572-1.084-.48-.492.384-.492 1.62-.984 1.904zM28.6 103.08c-.588.188-1.08 1.328-1.672 1.424l-.296-.284c-.1-.096-.296-.192-.396-.284a2.948 2.948 0 0 1-.784-.76c-.496-.48-.788-1.048-.496-1.332l.1-.096 1.968-1.904c.396-.38.496-.568.496-.852 0-.192-.2-.48-.396-.76-.2-.192-.392-.48-.688-.668a1.356 1.356 0 0 0-.396-.284l-.296-.288c-.292-.28-.588-.76-.884-1.14-.2-.188-.296-.38-.492-.476-.2-.092-.296-.188-.492-.188-.788 0-1.972 1.424-2.56 1.9 0 .192.296.572.492.76.588 0 1.28-1.044 1.868-1.14.296.38.888.76 1.28 1.24l.2.188.196.188c.1.096.2.192.2.288.096.188.192.472.096.664-.2.568-.888 1.044-1.48 1.52-.688.476-1.28.952-1.28 1.428 0 .188.2.76.692.948.592.38 1.08.952 1.576 1.52.096.192.296.288.392.384l.396.38c.292.188.492.476.788.568.492.192.884-.092 1.376-.568.396-.48.888-1.14 1.28-1.616a1.512 1.512 0 0 0-.788-.76zm4.04 5.8c-.296-.288-.888-.572-1.48-.856-.296-.192-.588-.384-.788-.48-.196-.188-.292-.376-.292-.568 0-.476.588-1.14 1.18-1.808.592-.664 1.18-1.328 1.08-1.804-.096-.284-.392-.572-.784-.856-.2-.192-.396-.284-.592-.476a1.356 1.356 0 0 1-.392-.284l-.888-.856-.1-.096-.096-.096c-.1-.092-.2-.188-.296-.188-.2-.096-.392-.192-.492-.192-.688-.092-2.068 1.616-2.464 2.28.1.192.396.48.592.48.592 0 1.184-1.144 1.772-1.332.296.284.888.568 1.38.952a1.64 1.64 0 0 1 .592.568c.196.192.196.38.196.668-.1.472-.688 1.14-1.28 1.708-.592.572-1.184 1.24-1.08 1.616a2.888 2.888 0 0 0 .784.856c.2.192.392.288.592.48.196.092.392.28.588.376.788.572 1.48 1.332 2.268 1.52.588.192.984-.28 1.376-.852.396-.572.692-1.332.888-1.712a.808.808 0 0 0-.788-.668c-.492.288-.888 1.428-1.48 1.616zm-9.06-10.56c-.592.096-1.28 1.24-1.872 1.24a2.424 2.424 0 0 0-.492-.572c-.2-.192-.492-.38-.688-.668-.492-.476-.788-.948-.788-1.332.096-.472.884-.948 1.672-1.424.788-.476 1.48-.952 1.576-1.52a1.484 1.484 0 0 0-.2-.48c-.096-.188-.192-.376-.392-.568a10.268 10.268 0 0 0-.784-.948c-.2-.192-.396-.668-.592-1.048a2.108 2.108 0 0 0-.888-.952c-.196-.092-.392 0-.688.096a4.012 4.012 0 0 0-.888.476c-.588.38-1.18.856-1.376 1.14 0 .192.196.48.392.668.592.188 1.38-.856 2.068-.856a2.6 2.6 0 0 0 .492.568c.1.096.2.192.296.38.1.096.2.192.296.38.392.48.688 1.048.492 1.428-.2.476-.984.856-1.672 1.332-.692.476-1.38.856-1.48 1.328 0 .288.2.572.492.952.296.38.692.76.888 1.048l.884 1.14c.296.38.592.664.888.948.492.384.984 0 1.48-.472.588-.668 1.08-1.332 1.476-1.616a1.352 1.352 0 0 0-.592-.668zM13.04 80.732c-.592-.096-1.676.668-2.168.476l-.296-.856c-.096-.188-.096-.38-.196-.476-.096-.188-.096-.38-.196-.476-.2-.664-.2-1.236.2-1.424h.096c.788-.192 1.672-.476 2.76-.664a1.516 1.516 0 0 0 .88-.48c.1-.092.1-.188.1-.376v-.48a8.76 8.76 0 0 0-.492-1.708v-.76c0-.288-.096-.48-.096-.76-.1-.48-.2-.856-.496-1.048-.292-.188-.884-.096-1.572 0-.592.096-1.28.38-1.676.38-.096.192 0 .668.1.856.492.284 1.672-.284 2.264-.096.1.192.1.48.2.76l.292.856c.2.572.2 1.144-.1 1.428-.492.38-1.28.476-2.068.572-.784.092-1.572.188-1.868.664-.1.188-.2.76.096 1.14.1 0 .2-.096.296-.096-.196.096-.296.192-.392.192.296.572.392 1.332.588 2.092.2.76.396 1.424.692 1.9.296.476.884.38 1.476.096.592-.192 1.28-.572 1.872-.76.096-.284 0-.76-.296-.952zm2.76 6.372c-.596 0-1.58.856-2.072.664 0-.096-.096-.192-.096-.284-.1-.096-.1-.192-.2-.38-.196-.288-.296-.572-.492-.76-.196-.288-.296-.572-.392-.76 0-.096-.1-.288-.1-.384 0-.096 0-.188.1-.284.196-.476 1.08-.664 1.968-.952.888-.284 1.676-.568 1.872-1.044.096-.284-.1-.76-.296-1.14-.1-.192-.2-.48-.296-.668a1.572 1.572 0 0 1-.2-.476 12.04 12.04 0 0 1-.292-1.236 1.72 1.72 0 0 1-.2-.664 1.928 1.928 0 0 0-.292-.476c-.592-.476-2.66.38-3.248.856a2.12 2.12 0 0 0 .196.76c.492.288 1.576-.476 2.164-.38.1.38.492.952.692 1.52.096.192.096.288.196.48 0 .188.1.28.1.376 0 .288 0 .48-.2.668-.296.38-1.18.568-1.968.856-.788.28-1.576.472-1.772.948-.1.192 0 .668.2 1.048 0 .096.096.188.192.38.1.096.1.188.2.38.096.188.196.476.292.572.2.472.396.852.496 1.328l.292.572c.1.188.2.38.396.476.392.476.984.284 1.576-.096.492-.476 1.08-.952 1.576-1.14 0-.288-.2-.668-.396-.76zm-5.42-18.732c.2-.188.2-.76 0-.948-.588-.288-1.772.188-2.264-.192 0-.476-.1-1.332-.1-1.996 0-.664.2-1.236.592-1.332h2.956a2.184 2.184 0 0 0 .984-.188 1.06 1.06 0 0 0 .296-.76v-1.808c0-.38.196-.952.196-1.428 0-.472 0-.948-.2-1.14-.488-.476-2.36-.284-3.148-.38-.1.096-.2.192-.2.38v.48c.4.376 1.68.092 2.168.472 0 .476.1 1.14 0 1.712 0 .568-.096 1.14-.492 1.328-.492.288-1.376.192-2.164.096-.788-.096-1.576-.188-1.972.096-.196.096-.392.664-.296 1.14a8.12 8.12 0 0 1 0 2.188v1.14c0 .38.1.664.2.952.096.476.688.568 1.376.476.692-.096 1.48-.288 2.068-.288zm.984 6.656a.888.888 0 0 0-.196-.856c-.592-.188-1.672.38-2.264.192 0-.38-.2-1.048-.396-1.616 0-.192-.096-.288-.096-.48v-.472a1.28 1.28 0 0 1 .2-.664c.292-.38 1.28-.38 2.16-.38.888 0 1.776-.096 2.072-.572.196-.192.096-.76.096-1.24 0-.472-.096-.948-.096-1.232v-1.236c0-.476 0-.952-.2-1.236-.392-.572-2.656-.284-3.444 0a1.016 1.016 0 0 0 0 .76c.392.476 1.672 0 2.264.192v.38c0 .096.1.284.1.38.096.284.096.568.196.948 0 .288.096.572 0 .856 0 .096-.1.288-.1.38-.096.096-.096.192-.196.288-.392.284-1.28.284-2.168.284-.884 0-1.672.096-1.968.476-.1.188-.1.664-.1 1.14 0 .192.1.476.1.76 0 .096 0 .192.1.38 0 .096 0 .192.096.288.1.472.1.948.2 1.424 0 .192.096.476.096.668 0 .092 0 .28.1.472.296.48.884.48 1.576.288.688-.192 1.376-.48 1.868-.572zm-2.46-20.44c.688.096 1.48.096 2.068.284.2-.188.392-.664.2-.948-.496-.38-1.776-.192-2.072-.668.1-.476.296-1.332.492-1.996.1-.38.2-.664.396-.856.196-.188.392-.284.588-.284-.096 0-.096 0-.196-.096.1 0 .2 0 .296.096.788.188 1.676.476 2.76.664.488.096.784.192.98 0 .2-.096.396-.38.496-.664l.292-.856a2.664 2.664 0 0 0 .2-.856c.096-.38.392-.856.492-1.332a1.72 1.72 0 0 0 .196-.664c0-.192 0-.38-.1-.476-.392-.664-2.264-.952-2.952-1.14-.2.096-.396.568-.396.76.2.284.492.38.988.476a3.704 3.704 0 0 1 1.08.476c-.196.476-.196 1.14-.392 1.712-.2.568-.396 1.044-.888 1.14-.588.096-1.376-.192-2.068-.48-.788-.28-1.476-.568-1.968-.376-.2.096-.592.568-.492 1.044 0 .192-.1.288-.1.48 0 .188-.096.376-.096.472-.1.38-.2.76-.296 1.044-.1.38-.2.76-.296 1.048-.1.38-.1.664-.1.952-.292.76.2.948.888 1.044zm-.592 7.132c.692 0 1.48-.096 1.972-.096 0-.096.096-.096.096-.192s0-.188.1-.284c0-.192 0-.38-.1-.476-.492-.284-1.772 0-2.164-.38.096-.38 0-1.044 0-1.712 0-.664.096-1.236.492-1.424.392-.288 1.28 0 2.164.188.888.192 1.772.38 2.168 0a.712.712 0 0 0 .2-.476c0-.092.096-.188.096-.28 0-.1.096-.192.096-.384.1-.476.1-.952.2-1.236 0-.188.096-.38.096-.572 0-.092.1-.188.1-.28 0-.1.096-.192.096-.384.1-.476.2-.952.1-1.236-.296-.664-2.56-.952-3.248-.856a2.176 2.176 0 0 0-.2.76c.296.48 1.676.38 2.068.76 0 .192-.096.48-.096.76 0 .288 0 .668-.1.952-.096.572-.296 1.144-.688 1.332-.492.192-1.38-.096-2.168-.188a5.104 5.104 0 0 0-1.18-.192c-.396 0-.688 0-.788.192-.396.28-.396 1.708-.492 2.468-.1.952-.396 1.904-.2 2.664-.096.096.1.188.4.38a3 3 0 0 0 .98.192zm6.892-19.776c.1-.096.296-.192.396-.38.1-.192.2-.38.1-.48-.296-.472-1.676-.66-1.872-1.232.296-.476.588-1.236.984-1.808.392-.568.788-1.044 1.28-.856h.1c.688.384 1.476.856 2.46 1.332a1.444 1.444 0 0 0 .984.288c.2 0 .492-.288.592-.48.392-.472.688-1.14.984-1.52.1-.188.296-.38.396-.568.196-.192.292-.38.492-.572.292-.38.492-.76.392-1.044-.2-.668-1.968-1.428-2.56-1.904-.2 0-.492.48-.592.668.2.568 1.38.948 1.676 1.424-.1.192-.296.48-.396.76a3.816 3.816 0 0 1-.492.856c-.296.48-.688.952-1.08.856-.592 0-1.28-.568-1.872-1.044-.692-.48-1.28-.952-1.772-.856-.2 0-.692.476-.788.856 0 0 .096 0 .096.096 0 0-.096 0-.096-.096-.1.284-.296.568-.492.948-.1.192-.2.288-.296.48-.1.188-.2.28-.296.472-.396.668-.788 1.24-.984 1.808-.296.664.196.948.788 1.236.588.284 1.376.476 1.868.76zm-2.46 6.18c.2-.192.392-.572.296-.856-.396-.476-1.676-.476-1.968-.952.196-.38.292-1.044.492-1.616.196-.568.392-1.14.788-1.332.492-.188 1.28.288 2.064.668.788.38 1.676.76 2.068.568.496-.188.988-1.708 1.184-2.092.296-.568 1.18-1.616 1.08-2.184-.096-.668-2.16-1.52-2.952-1.616-.2.096-.392.476-.392.664.096.572 1.476.76 1.772 1.24-.1.188-.2.472-.296.66-.1.192-.1.288-.2.48 0 .092 0 .28-.096.472-.2.572-.592 1.048-.984 1.14-.492 0-1.28-.38-2.068-.76s-1.48-.76-1.968-.568c-.492.188-.788 1.52-1.084 2.28-.1.192-.2.476-.296.664-.1.192-.2.48-.296.668-.2.476-.296.856-.392 1.236 0 .38.588.664 1.28.856.688.188 1.476.284 1.968.38zm10.144-17.588c.292 0 .688-.38.688-.668-.2-.568-1.38-1.044-1.48-1.616l.296-.284c.1-.096.2-.284.296-.38a2.948 2.948 0 0 1 .788-.76c.492-.48 1.084-.76 1.38-.48l-.396-.376-.292-.284.292.28.492.48 1.972 1.9c.392.38.592.476.884.476.2 0 .492-.192.788-.38.2-.192.492-.38.692-.668a1.248 1.248 0 0 0 .292-.38l.296-.28c.296-.288.788-.576 1.184-.86.196-.188.392-.284.492-.476.096-.188.196-.284.196-.476 0-.76-1.48-1.9-1.968-2.468-.2 0-.592.28-.788.472 0 .572 1.08 1.24 1.18 1.808-.392.284-.788.856-1.28 1.236l-.2.188-.192.192c-.1.096-.2.192-.296.192-.2.092-.492.188-.688.092-.592-.188-1.084-.856-1.576-1.424-.492-.668-.988-1.24-1.48-1.24-.196 0-.788.192-.984.668-.392.572-.984 1.048-1.576 1.52-.196.096-.292.288-.392.384l-.396.38c-.196.28-.492.472-.588.76-.2.38.096.76.688 1.236.492.38 1.18.856 1.676 1.236zM16.984 35c.588.38 1.376.664 1.772.856.292-.096.492-.48.492-.76-.296-.48-1.48-.856-1.676-1.428.296-.284.592-.856.888-1.424.196-.288.392-.572.492-.76.2-.192.392-.288.592-.288.492 0 1.18.572 1.868 1.14.692.572 1.38 1.144 1.872 1.048.296-.096.592-.38.888-.76.196-.192.292-.38.492-.572a1.32 1.32 0 0 1 .292-.38l.888-.856.1-.096.096-.096c.1-.092.2-.188.2-.28a1.572 1.572 0 0 0 .196-.48c.096-.664-1.676-1.996-2.364-2.376-.2.096-.492.38-.492.572 0 .568 1.18 1.14 1.376 1.712-.292.28-.588.852-.984 1.328a1.644 1.644 0 0 1-.588.572c-.2.188-.396.188-.692.188-.492-.092-1.18-.664-1.772-1.236-.592-.568-1.28-1.14-1.672-1.044a2.932 2.932 0 0 0-.888.76c-.2.192-.296.38-.492.572-.1.188-.296.38-.392.568-.592.76-1.38 1.428-1.576 2.188 0 .572.392 1.044 1.08 1.332zm17.132-14.168c0-.568-1.084-1.328-.984-1.9.492-.284 1.08-.76 1.772-1.14.588-.284 1.18-.476 1.476-.096v.096c.392.664.888 1.424 1.38 2.376.292.38.392.572.688.664.2.096.592 0 .788-.188a.76.76 0 0 1 .392-.192c.2-.092.296-.188.396-.188.296-.192.592-.288.788-.48.392-.188.884-.376 1.376-.568.492-.188.888-.476.988-.76.196-.664-.888-2.184-1.28-2.852-.2-.096-.692.192-.888.284-.2.572.688 1.428.688 2-.196.092-.492.28-.788.38-.292.188-.492.38-.788.472-.492.288-1.08.48-1.476.192-.492-.284-.788-1.044-1.08-1.808-.296-.76-.592-1.424-1.084-1.616-.2-.092-.788 0-1.184.38l-.884.572c-.296.192-.692.38-.984.572-.396.188-.692.38-.988.568a1.32 1.32 0 0 0-.392.288l-.296.28c-.392.384-.1.86.296 1.428.296.668.788 1.24 1.18 1.712a1.188 1.188 0 0 0 .888-.476zm-5.612 4.188c-.1-.568-1.28-1.236-1.28-1.804a2.592 2.592 0 0 0 .588-.48c.2-.188.396-.472.692-.664.492-.472.984-.76 1.376-.76.492.096.984.856 1.48 1.616.492.76.984 1.428 1.572 1.52a1.7 1.7 0 0 0 .496-.188 2.068 2.068 0 0 0 .588-.38c.396-.284.788-.572.984-.76.2-.192.692-.38 1.084-.572a2.132 2.132 0 0 0 .984-.856c.1-.188 0-.38-.096-.664a3.916 3.916 0 0 0-.492-.856c-.396-.572-.888-1.14-1.184-1.332-.196 0-.492.192-.688.38-.2.572.884 1.332.884 2a2.436 2.436 0 0 0-.588.472c-.1.096-.2.192-.396.288-.096.092-.196.188-.392.28-.492.384-1.084.668-1.48.48-.492-.192-.884-.952-1.376-1.616-.492-.668-.888-1.332-1.38-1.428-.296 0-.588.192-.984.476-.392.284-.788.664-1.08.856l-1.184.856a8.256 8.256 0 0 0-.984.856c-.396.476 0 .948.492 1.424.688.572 1.28 1.048 1.672 1.428a1.372 1.372 0 0 0 .692-.572zm18.12-10.268c.096-.568-.692-1.616-.496-2.092l.888-.28c.196-.1.392-.1.492-.192.196-.096.392-.096.492-.192.688-.192 1.28-.192 1.476.192 0-.096-.1-.288-.1-.384 0 .096.1.288.1.48.2.76.492 1.612.688 2.66a1.44 1.44 0 0 0 .492.856c.1.092.2.092.396.092h.492a9.175 9.175 0 0 0 1.772-.472h.788c.296 0 .492-.096.788-.096.492-.096.888-.192 1.08-.476.2-.284.1-.856 0-1.52-.096-.572-.392-1.24-.392-1.616-.196-.096-.688 0-.884.092-.296.48.296 1.616.096 2.188-.196.096-.492.096-.788.192l-.884.28c-.592.192-1.184.192-1.48-.092-.392-.476-.488-1.236-.588-1.996-.1-.76-.2-1.52-.688-1.808-.2-.188-.788-.28-1.184 0-.592.288-1.376.384-2.164.572-.788.192-1.48.38-1.972.664-.492.288-.392.856-.096 1.428.196.572.588 1.332.688 1.808.296.092.788 0 .984-.288zm-6.504 2.664c0-.572-.884-1.52-.688-2 .1 0 .2-.092.296-.092.1-.096.2-.096.392-.192.296-.188.592-.284.788-.476.296-.188.592-.28.788-.38.1 0 .296-.092.396-.092.096 0 .196 0 .296.092.492.192.688 1.048.984 1.904.296.856.588 1.616 1.08 1.804.296.096.792-.092 1.184-.28.2-.1.492-.192.688-.288.2-.096.396-.192.492-.192.296-.096.788-.188 1.28-.284a1.876 1.876 0 0 1 .692-.192 2.168 2.168 0 0 0 .492-.28c.492-.576-.396-2.572-.888-3.14a2.384 2.384 0 0 0-.788.188c-.296.48.492 1.52.396 2.092-.396.096-.984.476-1.576.668-.2.092-.296.092-.492.188-.2 0-.296.096-.396.096-.292 0-.492 0-.688-.192-.392-.284-.592-1.14-.888-1.9-.292-.76-.492-1.52-.984-1.712-.196-.096-.688 0-1.08.192-.1 0-.2.092-.396.188-.1.096-.2.096-.392.192-.2.092-.492.188-.592.284-.492.192-.888.38-1.38.476l-.588.284c-.2.096-.396.192-.496.38-.492.38-.292.952.1 1.52.492.48.984 1.144 1.184 1.52.292 0 .688-.188.784-.376zm20.284-5.228c.296-.572-.196-1.712.2-2.188.492 0 1.376-.096 2.068-.096.688 0 1.28.192 1.376.572v2.852c0 .476.1.76.2.948a1.128 1.128 0 0 0 .784.288h1.872c.396 0 .984.188 1.48.188.492 0 .984 0 1.18-.188.492-.48.296-2.28.392-3.04-.096-.1-.196-.192-.392-.192h-.492c-.396.38-.1 1.616-.492 2.088-.492 0-1.184.096-1.772 0-.592 0-1.184-.092-1.38-.472-.296-.48-.2-1.332-.1-2.092s.2-1.52-.096-1.904c-.1-.188-.692-.38-1.184-.28a9.312 9.312 0 0 1-2.264 0h-1.18a2.948 2.948 0 0 0-.984.188c-.496.188-.592.664-.496 1.328.1.668.296 1.428.296 2 .2.188.788.188.984 0zm-6.988.852c.196-.568-.396-1.616-.2-2.184.396 0 1.084-.192 1.676-.38.2 0 .296-.096.492-.096h.492c.296 0 .492.096.688.188.396.288.396 1.24.396 2.092 0 .856.1 1.712.592 2 .196.188.788.092 1.28.092s.984-.096 1.28-.096h1.28c.492 0 .984 0 1.28-.188.588-.38.296-2.568 0-3.328a1.12 1.12 0 0 0-.788 0c-.492.38 0 1.616-.2 2.188h-.392c-.1 0-.296.092-.392.092-.296.096-.592.096-.988.192-.292 0-.588.096-.884 0-.1 0-.296-.096-.396-.096-.096-.096-.196-.096-.292-.188-.296-.572-.296-1.428-.296-2.28 0-.86-.1-1.62-.492-1.904-.2-.096-.692-.096-1.184-.096-.196 0-.492.096-.788.096a.76.76 0 0 0-.392.096c-.1 0-.2 0-.296.092-.492.096-.984.096-1.48.192-.196 0-.488.096-.688.096-.196.096-.392.096-.588.188-.492.288-.492.856-.296 1.52.296.668.592 1.428.688 1.904.296.096.688 0 .888-.192zm14.28 10.556h.192c.1 0 .2 0 .396-.096.096 0 .2-.096.296-.096 0-.096.096-.096.096-.096.1 0 .2-.092.396-.28l.096-.1c.396-.664.888-1.236 1.28-1.804.1-.192.296-.38.396-.572.096-.096.096-.188.2-.284.096-.096.192-.288.292-.38.1-.096.2-.288.296-.38.096-.096.296-.38.196-.48-.2-.188-.296-.188-.592-.28h-.096a1.908 1.908 0 0 0-.788.188c-.1.096-.296.192-.396.38l-.196.192a23.8 23.8 0 0 1-1.18 1.616 33.276 33.276 0 0 0-1.184 1.9c-.096.192-.096.284-.096.38 0 0 .096.096.392.192zm-2.464-.192h.096c.296 0 .692-.096.692-.096h.096c.1-.092.2-.092.396-.38.296-.568.688-1.14 1.18-1.9l1.184-1.712c.096-.188.292-.476.196-.572-.296-.188-.396-.28-.692-.28-.292 0-.588.188-.784.28a.756.756 0 0 0-.396.384c-.1.188-.2.28-.296.472-.096.192-.196.288-.296.48l-.588.948a28.416 28.416 0 0 0-1.084 1.9c-.1.096-.1.288-.1.288s.1.188.396.188zm7.58.856c.1.096.296.096.396.096.296 0 .492 0 .492-.096h.096c.1-.096.2-.096.492-.284.296-.288.496-.572.788-.856.296-.284.492-.572.788-.856.396-.476.888-.952 1.48-1.52.196-.096.292-.38.292-.48a1.26 1.26 0 0 0-.588-.376h-.2c-.292 0-.588.092-.688.092-.2 0-.392.192-.492.288l-.2.188c-.488.572-.98 1.048-1.376 1.52-.588.668-1.08 1.144-1.476 1.712-.2.096-.2.192-.2.288 0 0 .1.188.4.284zm-2.46-.38h.296a1.452 1.452 0 0 0 .688-.192h.1c.096-.092.196-.092.392-.38l1.48-1.708c.392-.48.88-.952 1.376-1.52.1-.192.2-.384.2-.48-.2-.28-.3-.28-.596-.38h-.196c-.296 0-.588.096-.688.192a2.02 2.02 0 0 0-.492.38l-1.48 1.712c0 .096-.096.188-.196.284-.196.192-.296.38-.492.572l-.196.284c-.2.192-.296.476-.492.664-.1.096-.1.192-.1.288 0 .092.1.188.396.284zm7.48 1.808c.2.092.296.092.496.092h.588c.1 0 .1 0 .396-.188.492-.38 1.08-.856 1.772-1.428.296-.188.592-.476.888-.664l.884-.664c.1-.096.296-.384.296-.48-.2-.28-.296-.376-.592-.472-.096-.096-.296-.096-.392-.096-.2 0-.396.096-.492.096-.1.096-.296.188-.492.284l-.2.096c-.588.476-1.08.952-1.572 1.332a27.348 27.348 0 0 0-1.676 1.52c-.1.096-.2.284-.2.284s0 .192.3.288zm-2.36-.76c.096.092.2.092.392.092.2 0 .396-.096.492-.188h.1c.2-.096.2-.096.492-.288.492-.476 1.08-.948 1.676-1.52.588-.476 1.08-.952 1.572-1.332.2-.188.296-.38.296-.476-.096-.188-.096-.188-.196-.28-.1-.1-.2-.1-.392-.192h-.296c-.296 0-.492.092-.592.092a2.168 2.168 0 0 0-.492.288l-.296.284a2.592 2.592 0 0 0-.592.476c-.196.284-.492.568-.788.856a27.18 27.18 0 0 0-1.572 1.616c-.2.096-.2.284-.2.284s.1.192.396.284zm7.88 2.848c.096 0 .096 0 0-.188h.096c.096 0 .196 0 .492-.192l1.772-1.14.2-.096c.588-.28 1.18-.664 1.868-1.044.2-.096.392-.284.392-.38-.096-.192-.196-.284-.492-.476-.096-.096-.296-.096-.588-.096h-.2a.768.768 0 0 0-.492.192l-.196.096-1.772 1.14c-.592.38-1.18.856-1.872 1.332-.096.092-.196.188-.196.28v.1l.296.28c.2.192.492.192.688.192zm-2.96-1.236c.2.192.496.192.592.192.1 0 .2 0 .492-.284h.1c.1 0 .2 0 .492-.192.2-.188.492-.38.888-.664.196-.192.492-.38.788-.572l.096-.096 1.772-1.14c.1-.096.296-.284.296-.38-.096-.284-.196-.38-.492-.476-.096-.092-.296-.092-.492-.092h-.392a1.7 1.7 0 0 0-.492.188c-.592.38-1.184.856-1.872 1.332l-.1.096a4.884 4.884 0 0 1-.788.664c-.196.096-.296.284-.492.38-.2.096-.296.284-.492.38-.1.096-.2.192-.2.284 0 .096 0 .288.3.38zm7.192 3.708c.096.096.196.096.296.096h.096c.2 0 .2 0 .492-.096h.1c.688-.38 1.38-.76 2.068-1.044.492-.192 1.08-.476 1.576-.664l.392-.192c.1-.096.396-.284.396-.38-.1-.284-.1-.38-.396-.572-.096-.092-.2-.092-.2-.092h-.684c-.1 0-.296 0-.492.092l-.2.096c-.688.284-1.28.572-1.868.856a21.108 21.108 0 0 0-2.068 1.044c-.2.096-.296.192-.296.288a1.6 1.6 0 0 0 .296.38c.196.096.292.096.492.188zm-2.66-1.424a3.092 3.092 0 0 0 .788.188h.2c.096 0 .192 0 .488-.188a14.96 14.96 0 0 1 1.972-1.14c.196-.096.292-.192.492-.288.196-.092.296-.188.492-.28.392-.192.688-.384.984-.48.2-.096.392-.284.392-.38-.196-.284-.196-.38-.492-.568-.196-.192-.492-.192-.788-.192h-.096c-.2.096-.396.096-.492.192-.296.188-.692.38-.984.568-.2.192-.396.284-.592.38-.1.096-.296.192-.396.288-.588.38-1.28.76-1.968 1.236-.2.092-.296.188-.296.28 0 0 0 .192.296.384zm7.088 4.66h.2c.096 0 .196 0 .492-.288.788-.284 1.476-.568 2.164-.76.888-.188 1.48-.38 2.068-.572.296-.092.492-.188.492-.28a1.212 1.212 0 0 0-.392-.572c-.1-.192-.492-.288-.788-.288h-.2c-.192 0-.292.096-.392.096l-.196.096c-.688.188-1.28.476-1.968.664-.788.284-1.48.572-2.168.856-.2.096-.296.096-.296.192 0 .092 0 .28.2.472.196.288.588.384.784.384zm-1.968-1.62h.1c.196 0 .296 0 .688.096a3.704 3.704 0 0 1 1.08-.476c.4-.092.792-.28 1.088-.38.588-.284 1.28-.476 1.968-.76.1-.096.392-.284.392-.38a1.212 1.212 0 0 0-.392-.572 1.336 1.336 0 0 0-.788-.28h-.1c-.196 0-.292 0-.492.092-.788.284-1.476.572-2.164.856-.788.284-1.38.664-2.068.952-.2.092-.296.092-.296.188 0 0 0 .192.2.38a1.304 1.304 0 0 0 .784.284zm3.84 3.424h.296c.1 0 .296-.096.392-.096.788-.188 1.576-.38 2.268-.568l.588-.192.296.096c.296-.096.592-.096.888-.192.196 0 .492-.188.492-.28 0-.384-.1-.48-.296-.668-.1-.192-.492-.288-.788-.38h-.492a20.156 20.156 0 0 1-1.08.284l-.496.096-.592.188c-.688.192-1.476.38-2.164.668a1.22 1.22 0 0 0-.296.188.6.6 0 0 0 .2.476 1.476 1.476 0 0 0 .784.38zm1.872 1.808h.296c.096 0 .196 0 .492.188h.096c.296-.096.692-.188 1.084-.284l.592-.096.592-.096c.688-.188 1.376-.28 2.068-.38.196-.092.492-.188.492-.284 0-.284-.1-.38-.296-.664-.1-.096-.2-.192-.396-.288a.76.76 0 0 0-.392-.188h-.788c-.688.188-1.38.284-2.068.476-.788.188-1.576.38-2.264.568-.2.096-.296.192-.296.192-.1.096-.1.284.1.476.096.092.196.188.392.28.1 0 .296.1.296.1zm1.672 1.9h.396c.096 0 .2 0 .392.192a15.44 15.44 0 0 1 2.264-.38c.592 0 1.38-.096 2.068-.192.296 0 .496-.096.496-.192 0-.28 0-.38-.2-.664a2.16 2.16 0 0 0-.788-.476c-.096-.096-.292-.096-.392-.096h-.1l-1.476.288c-.296 0-.592 0-.888.096a17.952 17.952 0 0 0-2.264.38c-.196 0-.296.092-.296.092v.096c0 .096 0 .284.1.38a1.28 1.28 0 0 0 .688.48zm2.068 2.092c.788-.096 1.576-.192 2.168-.192.788-.092 1.576-.092 2.164-.092.296 0 .496-.096.592-.192v-.38c-.096 0-.096-.192-.2-.284-.096-.192-.488-.38-.684-.48-.2-.092-.296-.092-.492-.092h-.296c-.692.096-1.38.096-2.068.192-.788.092-1.48.188-2.264.284-.2 0-.296.096-.296.096 0 .092 0 .188.096.476.2.28.592.568.692.568h.096c.1.096.2.096.492.096zm.888 2.092c.096.096.2.096.592.096.884 0 1.672-.096 2.264 0h2.164c.2 0 .492-.096.492-.192.1-.284 0-.38-.096-.664 0-.096-.1-.192-.1-.192-.096-.096-.096-.188-.2-.188-.192-.096-.292-.192-.392-.192-.196-.096-.392-.096-.588-.096-.788 0-1.48.096-2.364.096-.788.096-1.576.096-2.264.192-.2 0-.296.092-.296.092s0 .192.1.48c0 .188.196.28.292.376.1.096.2.192.296.192h.1zm6.3 2.568h.1c.2 0 .392-.096.492 0 .1-.288 0-.384-.1-.668-.096-.284-.392-.476-.588-.568-.2-.096-.396-.192-.592-.192l-.2-.096c-.688-.092-1.376-.092-2.064-.092h-2.364c-.2 0-.296.092-.392.092-.1 0-.1.192 0 .48.196.28.492.472.588.568 0 .092.1.092.1.092.1 0 .2.096.492.096h1.28c.392.096.788.096 1.18.096.692.096 1.38.096 2.068.192zm1.084 2.564h.2c.196 0 .292 0 .392-.188 0-.288 0-.38-.1-.668a1.668 1.668 0 0 0-.588-.568.768.768 0 0 0-.496-.192c-.788-.096-1.572-.096-2.36-.188-.788 0-1.48-.096-2.268-.096-.292 0-.392.096-.392.096s-.1.188 0 .476c.1.28.492.568.592.664h.096c.2.096.2.096.592.188.592 0 1.38.096 2.264.192l2.068.284zm.788 2.568h.396s.196 0 .292-.096c.1-.096.1-.188.1-.284v-.192c0-.092-.1-.092-.1-.188-.096-.284-.392-.476-.588-.664a.768.768 0 0 0-.492-.192h-.2c-.096 0-.292-.096-.492-.096-.196 0-.296-.096-.492-.096-.096-.092-.296-.092-.492-.092-.1 0-.296-.096-.492-.096h-.1c-.788-.096-1.476-.096-2.164-.192h-.396s-.096.192 0 .48a2 2 0 0 0 .492.664c0 .092.1.092.1.092.1.096.1.096.396.192.784.096 1.476.284 2.264.38l1.08.188c.296.096.592.096.888.192zm.888 2.76h.292c.1 0 .2 0 .296-.096.1-.192.1-.384 0-.668 0-.284-.296-.568-.492-.664a.768.768 0 0 0-.492-.192c-.296-.096-.592-.096-.884-.188a33.028 33.028 0 0 0-1.38-.288c-.296-.092-.688-.092-.984-.188h-.1c-.096 0-.296-.096-.492-.096-.2 0-.392-.096-.592-.096h-.392c-.1.096-.2.192-.1.48 0 .092.1.092.1.188 0 .092.1.092.1.188a1.12 1.12 0 0 0 .196.288c0 .092.096.092.096.092.1 0 .2.096.492.192.788.096 1.576.284 2.268.476.588.188 1.08.284 1.672.476l.396.092zm.588 2.66a.77.77 0 0 0 .396.096s.096 0 .296-.096c.096-.284.196-.38.096-.668a4.032 4.032 0 0 0-.492-.664c-.2-.096-.296-.188-.492-.284l-.296-.096a25.464 25.464 0 0 0-1.968-.572 17.16 17.16 0 0 0-1.08-.28c-.3-.1-.692-.192-1.088-.288h-.392c-.1 0-.2.188-.1.476 0 .38.296.664.396.76l.096.096s.1.092.396.188h.096c.396.096.692.192 1.084.284l.2.096.884.284c.592.192 1.28.48 1.968.668zm.788 2.948c.1 0 .2-.096 0-.096.1-.192.1-.38.1-.668 0-.188-.2-.472-.396-.76-.196-.092-.292-.188-.492-.284a19.6 19.6 0 0 0-2.164-.76c-.692-.192-1.38-.476-2.168-.664h-.296c0 .092-.096.188-.096.472 0 .288.296.668.392.76l.1.096a1.04 1.04 0 0 0 .492.288c.592.188 1.28.472 1.872.664l.292.096c.592.188 1.28.476 1.972.76.096 0 .196.096.392.096zm-.196 2.564c.1 0 .2.096.392.096h.1c.1-.096.2-.188.2-.284v-.38c0-.288-.3-.572-.4-.76a1.356 1.356 0 0 0-.392-.288l-.196-.092c-.392-.096-.688-.288-.984-.384a6.932 6.932 0 0 0-.984-.38c-.688-.28-1.48-.472-2.168-.76-.096-.096-.196-.096-.296-.096h-.096c-.1.096-.2.192-.2.48 0 .28.2.664.296.76l.1.092c.1.096.1.192.392.288h.1c.688.188 1.38.568 2.168.852l.296.096c.588.192 1.08.476 1.672.76zm.1 2.852c.096 0 .292.096.392.096h.2c.096-.284.196-.38.196-.664 0-.288-.296-.572-.396-.76a.756.756 0 0 0-.392-.38c-.592-.288-1.28-.668-2.068-1.048-.692-.284-1.38-.572-2.168-.856-.2-.096-.2-.096-.296-.096h-.096s-.2.192-.2.48c0 .188 0 .28.1.472.1.192.2.284.2.284.096 0 .096.096.096.096 0 .096.096.192.392.38.692.38 1.38.668 2.068 1.048.296.092.592.284.788.38l1.084.568h.1zm-.2 2.664c.2.096.396.188.492.188.296-.188.296-.38.396-.664 0-.188 0-.284-.1-.476-.096-.188-.096-.284-.196-.38-.1-.188-.296-.284-.392-.38l-.2-.096a17.252 17.252 0 0 0-1.772-1.044l-1.772-.856-.296-.192c-.096-.092-.196-.092-.296-.092h-.096s-.2.092-.2.38a1.016 1.016 0 0 0 .2.856v.092c.096.096.096.192.392.38h.1l.984.572c.296.192.592.38.984.572.492.38 1.084.76 1.772 1.14zm-.292 2.852a.768.768 0 0 0 .492.188c.292-.188.292-.28.096-.664.1-.284-.096-.664-.196-.856-.1-.096-.2-.284-.392-.38-.592-.38-1.28-.856-1.972-1.236l-.196-.096c-.296-.188-.492-.284-.788-.472-.296-.192-.688-.384-.984-.572-.1-.096-.2-.096-.296-.096 0 0-.1.096-.2.38 0 .38.1.76.2.856.1 0 .1.096.1.096.096.096.096.188.392.38.592.38 1.28.76 1.968 1.236.692.476 1.28.856 1.776 1.236zm-.396 2.76c0 .092.2.188.396.188.292-.288.392-.38.588-.76 0-.096 0-.38-.196-.856-.1-.096-.2-.288-.392-.38l-.2-.096a18.876 18.876 0 0 0-1.672-1.24c-.592-.376-1.184-.852-1.872-1.232-.1-.096-.2-.096-.296-.096-.096 0-.196.096-.296.38-.096.38 0 .76.1.856v.096c0 .096 0 .188.296.38l.096.096c.592.38 1.184.856 1.776 1.328.588.48 1.08.856 1.672 1.332zm-.688 2.66a1.32 1.32 0 0 0 .492.284c.096-.096.2-.192.296-.096 0-.096.096-.284.096-.38a2.204 2.204 0 0 0-.196-.856c0-.188-.2-.38-.296-.476l-1.772-1.424a21.548 21.548 0 0 0-1.772-1.332c-.1-.188-.296-.188-.296-.188-.096 0-.2.092-.296.38a1.232 1.232 0 0 0 .1.856v.092c0 .096 0 .096.296.38.588.38 1.18.952 1.772 1.428.296.188.492.476.788.664.296.192.492.38.788.668zm-.888 2.564c.296.288.492.288.492.288.296-.096.396-.288.492-.48a1.232 1.232 0 0 0-.096-.852 2.064 2.064 0 0 0-.296-.476l-.2-.188a10.272 10.272 0 0 0-1.476-1.428c-.588-.572-1.18-1.044-1.772-1.52-.096-.192-.196-.192-.296-.192 0 0-.196.096-.292.38-.1.288-.1.76 0 .856v.096c.096.096.096.192.292.38l1.676 1.616c.492.476.984 1.048 1.48 1.52zm-.984 2.76c.2.092.396.284.492.284.296-.192.296-.284.296-.572.1-.188.1-.568 0-.856-.1-.188-.2-.38-.296-.472-.592-.668-1.08-1.24-1.576-1.712a21.428 21.428 0 0 0-1.576-1.616c-.096-.192-.196-.192-.292-.192l-.1.096c-.1 0-.1.096-.2.284-.096.288-.096.668 0 .856v.096c0 .096.1.188.3.476.292.284.492.568.784.856.296.284.496.568.788.856.492.568.888 1.044 1.38 1.616zm-1.08 2.472c0 .092.292.28.392.28.296-.092.392-.188.588-.472.1-.284.1-.664 0-.856a.712.712 0 0 0-.196-.476l-.196-.188-1.18-1.428-.1-.092a11.432 11.432 0 0 0-1.48-1.712 1.424 1.424 0 0 0-.292-.192c-.1 0-.296 0-.396.284-.196.288-.096.76-.096.856v.096c0 .096 0 .192.196.476l1.48 1.712c.488.664.88 1.14 1.28 1.712zm-.988 2.852c.296-.192.396-.288.492-.48.2-.28.1-.664.1-.852 0-.192-.1-.284-.2-.476l-.096-.188c-.396-.572-.788-1.048-1.18-1.616-.396-.572-.888-1.144-1.38-1.808-.1-.096-.2-.192-.296-.192-.1 0-.296.096-.392.288-.1.284-.1.76-.1.856v.092c0 .096 0 .192.2.48.392.568.88 1.232 1.28 1.8l1.18 1.716c.096.188.292.38.392.38zm-1.872 1.996c.2.38.396.38.396.38.296-.096.392-.192.592-.572 0-.092.096-.188.096-.38v-.38a1.472 1.472 0 0 0-.2-.476l-.096-.188c-.392-.668-.788-1.24-1.08-1.712-.1-.192-.296-.38-.396-.572-.1-.092-.1-.188-.2-.284-.192-.284-.292-.476-.488-.664l-.2-.288c-.096-.092-.196-.188-.292-.188-.1 0-.2.096-.396.284 0 0-.096.096-.096.192-.1 0-.1.092-.1.188v.476c0 .096 0 .192.2.476.192.284.392.568.588.952.1.092.2.28.296.38a1.936 1.936 0 0 1 .392.568c.396.76.692 1.24.984 1.808zm-1.572 2.376c.096.192.292.38.392.38.296-.096.392-.188.592-.188a2.204 2.204 0 0 0 .196-.856v-.288c0-.092-.1-.188-.1-.284a20.868 20.868 0 0 0-1.08-2c-.2-.28-.396-.66-.592-.948a7.664 7.664 0 0 1-.592-.948c-.1-.192-.2-.288-.296-.288 0 0-.196.096-.392.288-.296.188-.296.664-.296.76v.092c0 .096.1.192.2.48l.292.472.296.476c.096.38.296.664.492 1.044.296.572.592 1.144.888 1.808zm-1.872 2.092c.096.096.296.38.392.38.296 0 .396-.096.492-.192.2-.188.296-.472.296-.852 0-.096 0-.288-.096-.48l-.1-.188-.2-.476-.196-.476c-.196-.38-.292-.664-.492-.948-.392-.668-.688-1.332-1.08-2-.1-.188-.2-.28-.2-.28s-.196 0-.392.188a1.24 1.24 0 0 0-.296.76v.096c0 .096 0 .188.1.476.296.664.688 1.328.984 2.092.096.188.096.28.2.472.096.192.096.288.192.48l.2.472.196.476zm-1.872 2.092c.1.284.2.476.296.476.296 0 .492-.096.592-.288.096-.092.196-.188.196-.38.096-.188.096-.284.096-.38 0-.188 0-.38-.096-.568a18.084 18.084 0 0 0-.788-2.092 45.867 45.867 0 0 0-.888-2.092 1.12 1.12 0 0 0-.196-.288s-.2 0-.392.192a1.32 1.32 0 0 0-.296.38c-.1.192-.1.284-.1.38v.096c0 .096 0 .188.1.572.296.664.592 1.424.788 2.088.196.572.392 1.144.688 1.904zm-1.968 1.9c0 .192.196.476.296.476.292 0 .392-.096.588-.284a.976.976 0 0 0 .396-.76c.096-.192 0-.384 0-.572l-.1-.192c-.296-.664-.492-1.328-.688-1.9a4.532 4.532 0 0 0-.396-1.044c-.096-.192-.096-.38-.196-.572-.096-.096-.096-.284-.2-.476-.096-.188-.192-.284-.192-.284s-.2 0-.396.188a1.336 1.336 0 0 0-.392.76v.096c-.1.096-.1.192 0 .48.096.188.296.852.392 1.04.1.384.2.668.296 1.048.2.572.396 1.332.592 2zm-1.872 2.472c.296-.096.392-.096.688-.284a1.424 1.424 0 0 0 .396-.76v-.572a34.36 34.36 0 0 1-.592-2.188c-.2-.664-.492-1.424-.688-2.088-.1-.192-.2-.288-.2-.288h-.096l-.396.192c-.196.188-.392.476-.392.664v.096c0 .096-.1.188 0 .568.296.76.392 1.52.592 2.188.096.668.296 1.332.392 2 0 .188.2.472.296.472zm-2.264 1.616c.096 0 .2 0 .492.096.1-.096.2-.096.296-.192.196-.188.296-.568.392-.76v-.76c-.096-.284-.096-.568-.196-.856v-.188c0-.288-.1-.572-.2-.952a14.332 14.332 0 0 0-.488-2.188 1.36 1.36 0 0 1-.2-.284h-.096c-.1 0-.2 0-.396.096-.292.188-.492.476-.492.664v.572c.1.664.296 1.424.396 2.184.096.384.096.668.196 1.048 0 .38.1.664.1 1.044 0 .192.096.48.196.48zm-4.924 3.14h.2c.192 0 .292-.096.488-.384.2-.092.396-.472.492-.664.1-.188.1-.38.1-.572v-.188c0-.664 0-1.332-.1-2 0-.76-.096-1.424-.196-2.184 0-.188-.096-.284-.096-.284h-.1c-.1 0-.2 0-.396.096-.292.092-.492.472-.588.568v.096c-.1.096-.1.192-.1.476v.096c0 .76.1 1.424.1 2.28v2.092a1 1 0 0 0 .196.572zm2.264-2c0 .192.1.48.2.48.292 0 .392 0 .588-.288.1 0 .2-.192.296-.284.1-.192.2-.288.2-.38.096-.192.096-.384.096-.572-.1-.664-.2-1.428-.296-2.188-.1-.38-.1-.76-.2-1.14-.096-.476-.096-.76-.192-1.14 0-.096-.1-.192-.1-.284h-.1c-.096 0-.296 0-.392.092l-.2.192-.196.188c-.196.192-.196.288-.196.288v.664c.1.476.2.76.2 1.14 0 .38.096.76.096 1.048v.092c.1.668.2 1.428.2 2.092zm-7.48 4.376h.292c.1 0 .2 0 .396-.096a3.588 3.588 0 0 0 .588-.664.712.712 0 0 0 .2-.48v-.28c.096-.384.096-.668.096-1.048l.1-1.044v-2.28c0-.192 0-.288-.1-.384h-.2c-.096 0-.192.096-.292.096-.1.096-.2.096-.392.284-.1.192-.2.284-.2.284-.096 0-.096.096-.096.096 0 .096-.1.192-.1.476v.096c-.096.664-.096 1.424-.2 2.28v.572l-.096.476c0 .38-.096.664-.096 1.044 0 .284 0 .476.096.572zm2.656-1.144h.2c.096 0 .192 0 .488-.188.2-.096.396-.38.592-.664 0-.096.1-.288.1-.48v-2.28c0-.664-.1-1.424-.1-2.184 0-.192-.1-.288-.1-.288h-.196c-.096 0-.2.096-.296.096-.296.096-.492.476-.588.572-.1 0-.1.092-.1.092 0 .096-.1.192-.1.48v3.324c-.096.288-.096.668-.096 1.048a.96.96 0 0 0 .196.472zm-8.272 2.948a.77.77 0 0 0 .396.096c.096 0 .196-.096.292 0a1.372 1.372 0 0 0 .692-.572.712.712 0 0 0 .196-.472l.1-.192v-.188c.096-.572.196-1.24.292-1.808a3.276 3.276 0 0 0 .2-.952v-.092c.096-.48.196-.76.196-1.144.1-.188 0-.38 0-.38s-.1-.096-.296-.096h-.2a2.048 2.048 0 0 0-.684.48c-.1 0-.1.092-.1.092-.1 0-.1.096-.2.38v.096c-.096.38-.096.664-.196 1.044 0 .38-.096.76-.196 1.144-.196.664-.296 1.328-.492 1.996-.096.188-.096.476 0 .568zm3.152-.76c.1 0 .2 0 .592.096a1.372 1.372 0 0 0 .688-.572.712.712 0 0 0 .2-.476l.292-2.28c.1-.76.1-1.52.2-2.188v-.092c0-.192-.1-.288-.1-.288-.1-.092-.2-.092-.296-.092h-.296c-.396.092-.592.38-.688.472-.1 0-.1.096-.1.096-.1.096-.1.096-.2.476a56.11 56.11 0 0 1-.292 2.188c-.1.664-.296 1.328-.396 1.996 0 .188 0 .476.1.568.1.096.2.096.296.096zm-8.764 1.904c.2.092.296.092.492.092 0 0 .1 0 .296.192.2 0 .492-.192.788-.476a2.064 2.064 0 0 0 .296-.476l.096-.188c0-.192.1-.288.1-.38.1-.192.1-.384.2-.572l.096-.192c0-.28.096-.472.196-.76.2-.664.396-1.424.592-2.184v-.38s-.1-.096-.396-.096h-.096c-.2 0-.296.096-.492.188-.296.096-.296.192-.296.192l-.1.096c-.1 0-.2.092-.296.38-.196.568-.392 1.328-.688 2.092-.2.568-.492 1.14-.688 1.708l-.1.192c0 .188-.1.476 0 .572zm2.76-.48a.748.748 0 0 0 .392.096c.096 0 .196 0 .196.096.2 0 .592-.284.688-.476.2-.188.296-.28.296-.472.1-.288.2-.668.296-1.048a10.28 10.28 0 0 1 .296-1.14c.2-.76.392-1.428.492-2.188.1-.284 0-.38 0-.38s-.1-.096-.296-.096h-.2c-.292 0-.588.288-.684.38-.1 0-.1.096-.1.096 0 .096-.1.192-.2.476-.196.856-.392 1.52-.588 2.188l-.1.188a2.856 2.856 0 0 1-.196.76l-.296.952c-.096.192-.096.476 0 .572zm-8.568.86c.292.188.392.188.688.188.296 0 .688-.284.688-.38a.756.756 0 0 0 .396-.38l.096-.192c.296-.568.592-1.236.888-1.804.1-.284.2-.476.296-.668.096-.092.096-.28.196-.38l.392-1.044c.1-.192.1-.284.1-.38 0 0 0-.096-.1-.096-.096-.096-.096-.096-.196-.096h-.196a1.496 1.496 0 0 0-.788.288l-.1.092c-.096.096-.096.096-.292.38v.096c-.296.76-.692 1.428-.988 2a34.928 34.928 0 0 0-.984 1.804c-.096.192-.196.476-.096.572zm2.856-.192c.196.192.292.192.492.192h.292c.1 0 .2-.096.396-.192.1 0 .2-.096.296-.188a2.064 2.064 0 0 0 .296-.48c.292-.664.588-1.424.884-2.088.296-.76.592-1.52.788-2.188v-.38s-.1-.096-.392-.096h-.1a1.496 1.496 0 0 0-.788.288l-.1.092c-.096.096-.096.096-.292.48-.1.376-.296.664-.396 1.04l-.2.572-.192.48c-.2.472-.492.948-.692 1.52l-.196.376c-.096.192-.2.48-.096.572zm-8.372.096c.1.096.2.096.396.096a2.412 2.412 0 0 0 .884-.288.756.756 0 0 0 .396-.38l.096-.188.492-1.048a3.816 3.816 0 0 1 .492-.856c.396-.664.788-1.328 1.084-1.9.1-.096.1-.284.1-.284s-.1-.192-.396-.192h-.096c-.296 0-.592.096-.692.192 0 .092-.096.092-.096.092-.1.096-.2.096-.396.38-.392.76-.788 1.332-1.18 1.904-.296.476-.788 1.14-1.184 1.712-.096.188-.292.476-.196.568.1.096.2.192.296.192zm2.56.096c.2.092.396.188.688.188.296 0 .592-.188.788-.568a.756.756 0 0 0 .396-.384c.2-.28.392-.568.592-.948.196-.192.292-.48.392-.668l.2-.38c.292-.664.688-1.236.98-1.996.1-.096.1-.284.1-.284-.1 0-.2-.192-.492-.192h-.1a1.212 1.212 0 0 0-.788.288l-.096.092c-.1.096-.2.192-.396.48-.296.568-.588 1.232-1.08 1.992-.396.668-.788 1.24-1.084 1.808-.1.284-.2.476-.1.572zm-7.976-.856h.2c.096 0 .196 0 .196.188.196 0 .292-.096.392-.096a1.84 1.84 0 0 0 .492-.38l.2-.188c.492-.668.884-1.14 1.28-1.616.196-.38.492-.668.688-.952l.196-.284c.2-.192.296-.48.492-.668.1-.092.1-.188.1-.28 0-.1-.1-.192-.396-.288h-.296c-.292 0-.492.096-.588.096 0 .092-.1.092-.1.092-.1 0-.2.096-.392.288l-.2.188c-.392.476-.884 1.048-1.28 1.52-.392.48-.884.952-1.376 1.52-.2.192-.2.384-.2.48.2.28.296.28.592.38zm2.856.476h.1c.196 0 .492-.096.588-.096.1-.096.296-.192.396-.38.492-.572.884-1.144 1.376-1.808.496-.664.888-1.236 1.28-1.9.1-.192.1-.288.1-.38 0 0-.1-.096-.392-.192h-.492c-.1 0-.296.096-.296.096 0 .096-.1.096-.1.096-.1.092-.2.092-.392.38-.492.568-.888 1.236-1.38 1.804-.296.38-.688.856-.984 1.24l-.296.376c-.1.096-.296.38-.2.48.3.188.4.188.692.28zm-8.468-2h.296c.296 0 .492 0 .296.096.196-.096.392-.188.492-.284l.196-.192.788-.76.788-.76c.492-.476.984-.952 1.576-1.616.196-.096.196-.284.196-.284s-.1-.192-.392-.288c-.1-.092-.2-.092-.396-.092-.2 0-.296.092-.392.092 0 .096-.1.096-.1.096h-.1c-.096 0-.196.096-.292.192-.692.568-1.184 1.044-1.676 1.52-.2.188-.492.38-.788.664l-.392.38-.396.38c-.2.192-.296.384-.296.48.2.188.296.28.592.376zm2.76.856h.196c.196 0 .492-.092.688 0 .2 0 .392-.092.492-.284.492-.572 1.08-1.14 1.576-1.712.196-.188.296-.38.492-.568.296-.384.688-.76.984-1.144.2-.092.2-.188.2-.284l-.1-.096c0-.092-.1-.188-.296-.188-.1-.096-.296-.096-.396-.096-.196 0-.392.096-.492.096h-.096c-.1 0-.2 0-.492.284-.296.284-.496.572-.788.856-.296.284-.492.572-.788.856l-1.48 1.424c-.196.096-.292.38-.292.48.196.188.292.28.588.376zm-8.176-3.136c.1.096.296.096.492.096.2 0 .296 0 .492.188a1.7 1.7 0 0 0 .492-.188l.2-.096c.588-.38 1.18-.856 1.672-1.236.592-.476 1.18-.856 1.772-1.428.1-.092.2-.188.2-.28 0-.1 0-.288-.296-.384a1.876 1.876 0 0 0-.692-.188h-.296c-.196 0-.196 0-.492.188h-.096c-.492.38-1.184.856-1.872 1.332l-1.772 1.14c-.1.096-.296.284-.296.38.1.284.2.38.492.476zm2.56 1.14c.1.096.296.096.396.096.292 0 .492 0 .392-.096a2.168 2.168 0 0 1 .492-.284c.492-.38 1.184-.856 1.772-1.428.592-.472 1.184-1.044 1.676-1.52.096-.096.196-.284.196-.284s0-.192-.296-.288c-.096-.092-.296-.092-.492-.092h-.492c-.1.092-.2.092-.492.284-.492.38-1.08.856-1.772 1.428-.592.472-1.184.852-1.676 1.232-.096.096-.296.384-.296.48.2.28.296.376.592.472zm-7.58-3.992a1.668 1.668 0 0 0 .884.188h.592l.2-.092c.192-.096.292-.192.488-.288a2.168 2.168 0 0 0 .492-.28l.888-.576c.688-.38 1.28-.76 1.968-1.236.2-.092.296-.188.296-.28 0 0 0-.192-.296-.384a3.132 3.132 0 0 0-.788-.188h-.196c-.1 0-.2 0-.492.092h-.1c-.788.48-1.376.856-1.968 1.144-.2.092-.296.188-.492.28-.2.1-.296.192-.492.288-.2 0-.296.096-.492.192-.2 0-.296.092-.492.188-.2.096-.396.288-.396.38.1.288.1.38.396.572zm2.46 1.52c.1.096.296.096.592.096.096 0 .196 0 .296.192a.768.768 0 0 0 .492-.192c.688-.38 1.28-.76 1.968-1.236l.2-.192c.588-.38 1.18-.76 1.672-1.14.096-.188.196-.284.196-.284v-.096l-.296-.284c-.2-.192-.492-.192-.688-.192h-.2c-.096 0-.196 0-.492.192-.588.38-1.18.76-1.968 1.236-.688.38-1.28.664-1.872 1.044-.196.096-.392.288-.392.38.1.192.2.288.492.48zM33.132 98.8c.196.192.588.284.884.284.1 0 .296-.092.296-.284l.2-.096.588-.188c.492-.192.888-.38 1.38-.572l1.08-.476a3.704 3.704 0 0 0 1.084-.476c.2-.092.296-.092.296-.188 0 0 0-.192-.2-.38a1.336 1.336 0 0 0-.784-.284h-.2c-.096 0-.096 0-.392.092h-.096a10.676 10.676 0 0 1-1.084.48c-.396.092-.788.28-1.084.376-.592.288-1.28.572-1.968.76-.1.096-.396.288-.396.38.1.288.2.384.396.572zm3.052 1.9h.492c.592-.28 1.28-.664 2.068-1.044a10.32 10.32 0 0 0 2.068-1.044c.196-.096.296-.192.296-.288 0 0-.1-.188-.296-.38a1.336 1.336 0 0 0-.788-.284h-.104c-.196 0-.196 0-.588.096-.788.28-1.48.664-2.068.948a35.4 35.4 0 0 1-1.972.856c-.096.096-.392.284-.392.38.096.288.096.38.392.572.2.096.492.188.888.188zm-6.204-5.512h.688l.2-.096c.588-.188 1.18-.284 1.968-.572.688-.188 1.48-.38 2.164-.664a1.224 1.224 0 0 0 .296-.188c0-.096 0-.288-.196-.48a1.516 1.516 0 0 0-.788-.376h-.788c-.788.188-1.576.38-2.264.568-.688.192-1.48.38-2.068.48-.2 0-.492.188-.492.28 0 .38.1.48.296.668.096.188.492.284.788.38h.196zm1.772 1.9h.2c.096 0 .192 0 .292.096l.592-.192.492-.188c.392-.096.688-.284 1.08-.38.792-.284 1.48-.572 2.168-.856.2-.096.296-.192.296-.192 0-.092 0-.28-.2-.472-.192-.288-.588-.384-.784-.384h-.2a.76.76 0 0 0-.392.096 19.6 19.6 0 0 1-2.164.76c-.788.192-1.38.38-2.068.572-.296.096-.492.192-.492.284 0 .096.096.192.096.288l.296.28c.1.192.492.288.788.288zm-3.74-3.992h.096a15.59 15.59 0 0 0 2.264-.476c.788-.188 1.576-.38 2.268-.568a1.17 1.17 0 0 0 .292-.192c.1-.096.1-.284-.096-.476a1.404 1.404 0 0 0-.396-.284c-.196-.096-.296-.192-.392-.192h-.592c-.688.192-1.48.288-2.264.48-.688.188-1.38.28-2.068.376-.2.096-.492.192-.492.288 0 .28.1.38.296.664a1.32 1.32 0 0 0 .392.284c.2 0 .296.096.396.096h.296zm-2.068-2.28a.776.776 0 0 0 .392.092h.396l2.068-.284h.196c.296-.096.688-.096.984-.192.1 0 .296-.092.392-.092.296-.096.492-.096.788-.192.2 0 .296-.096.296-.096 0-.092 0-.28-.2-.664a1.28 1.28 0 0 0-.684-.476h-.988a2.9 2.9 0 0 1-.884.192l-1.18.188c-.592 0-1.38.096-2.068.192-.296 0-.496.096-.496.188 0 .288 0 .38.2.668a2.16 2.16 0 0 0 .788.476zm-1.676-2.28c.2.092.296.092.492.092.492 0 .888-.096 1.38 0l1.18-.096c.788-.096 1.576-.188 2.264-.284.2 0 .296-.096.296-.096 0-.096 0-.188-.096-.476-.2-.284-.592-.568-.692-.568H29c-.1-.096-.1-.096-.396-.096h-.096c-.788.096-1.576.096-2.364.188h-2.168c-.296 0-.492.096-.588.192 0 .284 0 .38.196.664.096.192.492.38.688.48zm-.884-2.284h.392c.688 0 1.38-.096 2.068-.096.688 0 1.38-.096 2.264-.192.2 0 .296-.092.296-.092 0-.096 0-.192-.1-.48 0-.092-.196-.28-.292-.376-.1-.096-.2-.192-.296-.192h-.1c-.096 0-.2-.096-.492-.096h-.1c-.884.096-1.672.096-2.36.096h-2.168c-.2 0-.492.096-.492.192-.1.284 0 .38.1.664 0 .096.196.192.292.284.2.096.296.192.396.192a1.28 1.28 0 0 0 .592.096zm-1.38-2.472c.788.092 1.576.092 2.36.092v-.188h2.268c.2 0 .296-.096.392-.096.1 0 .1-.188 0-.476-.096-.284-.492-.472-.588-.568h-.1c-.1 0-.2-.096-.592-.096h-2.36c-.692-.096-1.38-.096-2.068-.192h-.1c-.296 0-.492 0-.492.096-.1.288 0 .38.1.668.096.28.392.472.588.568.2.096.396.192.592.192zm1.18-2.28c.888.092 1.576.092 2.268.092h.392s.1-.188 0-.476c-.1-.284-.492-.568-.592-.664 0-.096-.096-.096-.096-.096-.1 0-.2-.096-.492-.096h-.104c-.592 0-1.38-.092-2.264-.188l-2.068-.288h-.2c-.196 0-.392 0-.392.096-.096.288 0 .38.2.668a1.668 1.668 0 0 0 .588.568.768.768 0 0 0 .492.192h.296c.688.096 1.28.188 1.968.188zm1.38-2.284c.1 0 .2 0 .2.096 0 0 .096-.192 0-.48a2 2 0 0 0-.496-.664c0-.092-.096-.092-.096-.092-.1-.096-.2-.096-.496-.192-.784-.096-1.476-.284-2.264-.38l-1.08-.188c-.296-.096-.592-.096-.888-.192h-.396c-.096 0-.196 0-.292.096-.1.096-.1.188-.1.284 0 .096 0 .192.2.284.096.288.392.48.588.668a.768.768 0 0 0 .492.188c.788.192 1.576.288 2.264.38h.1c.788 0 1.48.096 2.264.192zm-1.08-2.28h.392c.096 0 .196-.192.096-.48a2.004 2.004 0 0 0-.492-.664l-.096-.096c-.1-.092-.2-.092-.492-.188h-.1c-.888-.192-1.576-.284-2.264-.476l-2.068-.572h-.3c-.1 0-.2 0-.296.096-.1.192-.1.38 0 .668a3.588 3.588 0 0 0 .592.664.768.768 0 0 0 .492.192l.2.092c.684.096 1.376.288 2.064.38.888.192 1.576.288 2.264.38zm-.692-2.476h.2c.096 0 .096 0 0 .192 0 0 .096 0 .096-.096v-.38c0-.38-.296-.664-.396-.76l-.096-.096c-.1-.096-.1-.188-.492-.284a19.412 19.412 0 0 1-1.084-.284l-.2-.096-.884-.284c-.592-.192-1.28-.48-1.968-.668-.2-.096-.296-.096-.396-.096-.096 0-.196.096-.196.096-.1.288-.2.38-.1.668.1.188.396.568.492.664.2.096.296.188.496.284.688.192 1.376.48 2.264.668.788.188 1.476.28 2.264.472zm-.592-2.376h.2c.096 0 .096-.092.292.096 0 0 .1-.188.1-.476 0-.284-.296-.664-.396-.76l-.096-.096c-.1-.092-.2-.188-.492-.284-.788-.284-1.48-.476-2.168-.76a19.672 19.672 0 0 0-1.376-.572l-.592-.188c-.1 0-.2-.096-.396-.096h-.196c-.096.188-.096.38-.096.664.096.192.196.48.492.76a1.32 1.32 0 0 0 .392.288l.2.096c.688.28 1.376.472 1.968.664.788.284 1.476.476 2.164.664zm-.492-2.66c.1.096.2.096.296.096.1 0 .296-.192.2-.384a1.388 1.388 0 0 0-.3-.76c-.096 0-.096-.092-.096-.092-.1-.096-.2-.096-.492-.288-.592-.284-1.38-.568-2.068-.948-.492-.288-1.184-.572-1.872-.952-.1 0-.2-.096-.392-.096h-.104c-.1.096-.2.192-.2.284v.384c0 .28.2.568.3.76.096.092.196.188.392.28.392.192.788.384 1.08.48l1.088.476a19.6 19.6 0 0 1 2.164.76zm-.2-2.472c.2.096.2.096.3.096.096 0 .196-.096.196-.38 0-.192 0-.288-.1-.48a1.064 1.064 0 0 0-.196-.28c-.096 0-.096-.096-.096-.096-.1-.096-.2-.096-.396-.288h-.1c-.588-.284-1.28-.664-2.068-1.044l-.492-.284-.492-.288-.884-.476s-.2-.092-.396-.092h-.096c-.1.28-.2.38-.2.664 0 .284.296.572.396.76.1.192.2.284.392.38l.2.096c.688.284 1.28.572 1.868.856.692.284 1.38.572 2.168.856zm-.096-2.568c.1.096.2.096.296.096.1 0 .2-.096.296-.284 0-.288-.1-.668-.2-.76-.096 0-.096-.096-.096-.096-.096-.096-.096-.192-.392-.38l-.988-.572-.492-.284-.492-.288a13.868 13.868 0 0 0-1.772-1.14 1.7 1.7 0 0 0-.492-.188h-.096c-.2.28-.296.38-.296.664v.38c.096.096.096.192.196.284a.76.76 0 0 0 .392.38c.788.48 1.48.76 2.068 1.144.2.188.492.28.692.38l.292.188a3.704 3.704 0 0 1 1.084.48zm.396-2.376c.096-.096.096-.096.392-.284.1-.096.1-.096.1-.192 0-.284-.1-.664-.2-.76-.096 0-.096-.096-.096-.096-.1-.096-.1-.188-.392-.38h-.1a61.51 61.51 0 0 0-1.872-1.236c-.688-.476-1.28-.856-1.772-1.236a.768.768 0 0 0-.492-.188h-.1c-.196.28-.292.38-.292.664-.1.284.096.664.196.856.096.096.196.284.392.38l.2.096c.588.38 1.08.76 1.772 1.14.196.096.292.188.492.284.196.096.292.192.492.288l.492.28.492.288c.1.096.2.096.296.096zm-.1-2.664c.1.096.2.096.296.096 0 0 .2-.096.296-.284.096-.38 0-.76-.1-.856v-.096c-.096-.096-.096-.188-.392-.38-.592-.38-1.184-.856-1.872-1.332-.592-.472-1.18-.856-1.672-1.328-.2-.096-.396-.192-.496-.192h-.096c-.2.192-.2.284-.296.572 0 .092 0 .38.2.856l.392.38c.296.188.588.472.884.664.296.192.492.284.692.476l.292.188c.492.38 1.084.76 1.872 1.24zm.396-2.472c.096.192.196.192.292.192 0 0 .2-.096.396-.38a1.232 1.232 0 0 0-.1-.856v-.096c0-.096-.096-.188-.296-.38a80.36 80.36 0 0 1-1.772-1.424c-.096-.192-.296-.288-.392-.38l-.396-.384a4.884 4.884 0 0 1-.788-.664 1.32 1.32 0 0 0-.492-.284c-.196.096-.196.188-.292.284-.1 0-.1 0-.1.096v.188a1.232 1.232 0 0 0 .1.856c0 .096.196.288.292.38l.2.192c.292.188.492.476.788.664.292.288.492.48.784.668.592.476 1.184.948 1.776 1.328zm.492-2.564c.096.188.196.188.296.188 0 0 .196-.096.292-.284v-.476c-.096-.284-.096-.38-.096-.38v-.096c0-.096-.1-.188-.296-.476l-1.676-1.616c-.492-.476-.984-1.044-1.476-1.52-.296-.284-.492-.284-.492-.284a1.16 1.16 0 0 0-.392.568c-.1.192 0 .48.096.856.1.192.2.38.296.48.592.472 1.18 1.04 1.676 1.52.196.092.392.28.588.472l.296.288c.296.28.592.568.888.76zm.688-2.38c.1.192.2.192.296.192 0 0 .2-.096.296-.476.096-.284.096-.76 0-.856v-.096c0-.092 0-.188-.2-.38-.292-.28-.492-.568-.784-.852l-.396-.384c-.1-.092-.296-.188-.392-.38-.492-.568-.888-1.044-1.38-1.616-.2-.188-.396-.284-.492-.284a1.212 1.212 0 0 0-.396.572 1.3 1.3 0 0 0 0 .856c.1.188.2.38.296.472l.2.192c.392.572.884 1.044 1.376 1.52l.396.38.392.38c.2.288.492.48.788.76zm.788-2.376a1.424 1.424 0 0 0 .296.192c.096 0 .196-.096.296-.284.196-.288.096-.668.096-.856v-.096c-.096-.096-.096-.192-.296-.476a11.432 11.432 0 0 1-1.476-1.712c-.492-.664-.884-1.236-1.28-1.712 0-.092-.296-.28-.392-.28-.296.092-.396.188-.492.472-.1.284-.1.664 0 .856 0 .188.096.38.196.476.196.188.296.38.492.568l.296.288c.296.28.492.568.788.852.392.572.884 1.144 1.476 1.712zm.984-2.28c.1.096.2.188.296.188.1 0 .2-.092.392-.092a3.128 3.128 0 0 0 .1-.856v-.096c0-.096 0-.192-.2-.476v-.096c-.392-.568-.88-1.236-1.28-1.804l-.588-.856-.592-.856c-.096-.192-.292-.38-.392-.38-.296.096-.396.188-.492.476-.2.284-.1.664-.1.856 0 .188.1.38.2.472l.096.192c.296.476.688 1.044 1.18 1.616.396.572.888 1.14 1.38 1.712zm1.18-2.28c.1.092.2.188.296.188.1 0 .2-.096.2-.192 0 0 .096-.092.096-.188.1 0 .1-.096.1-.192v-.472c0-.192 0-.288-.2-.572a8.308 8.308 0 0 1-.588-.952l-.296-.476-.296-.472c-.392-.76-.688-1.24-.984-1.808-.2-.38-.392-.38-.392-.38-.2.096-.296.188-.496.476 0 .092-.096.188-.096.38v.38c0 .096.096.284.2.476.392.664.784 1.236 1.176 1.9l.296.476.296.476c.2.284.492.664.688.948zm1.28-2.284c.1.192.2.284.296.284V42.9c.1 0 .1-.096.2-.096l.096-.096c.296-.192.296-.572.296-.76v-.096c0-.096 0-.188-.1-.476v-.096c-.392-.76-.784-1.424-1.08-1.996a32.2 32.2 0 0 1-.888-1.804c-.1-.192-.296-.38-.392-.38-.296.092-.396.092-.592.38a2.204 2.204 0 0 0-.2.856c0 .092 0 .284.1.476l.1.188c.296.664.592 1.236.984 1.808.2.28.396.664.592.948l.296.48.296.472zm1.38-2.188c.1.192.2.288.296.288.1 0 .296 0 .392-.48a1.24 1.24 0 0 0 .296-.76v-.092c0-.096 0-.192-.096-.476a17.432 17.432 0 0 1-.984-2c-.296-.76-.592-1.328-.788-1.896-.1-.096-.296-.384-.396-.384-.096 0-.2.096-.296.096l-.296.288c-.196.188-.292.472-.292.852 0 .096 0 .288.096.48.296.664.592 1.328.984 2.088l.888 1.712.2.284zm1.576-1.996c.1.192.2.288.296.288 0 0 .2 0 .296-.192.096-.096.196-.192.296-.38.096-.192.096-.284.096-.38v-.1c0-.096 0-.188-.096-.476v-.096c-.396-.664-.592-1.424-.888-2.088-.2-.572-.392-1.144-.688-1.904-.1-.284-.2-.476-.296-.476a1.26 1.26 0 0 0-.592.38 2.04 2.04 0 0 0-.296.76c0 .192 0 .384.1.572l.1.192c.292.664.492 1.236.784 1.9.2.572.592 1.332.888 2zm1.772-1.9c0 .188.1.284.2.284 0 0 .196 0 .688-.188a1.336 1.336 0 0 0 .392-.76v-.096c0-.096 0-.192-.096-.48-.1-.188-.1-.376-.2-.568-.096-.188-.096-.38-.196-.568l-.296-.856-.096-.192c-.2-.568-.396-1.332-.592-1.996 0-.188-.2-.476-.296-.476-.296 0-.392.096-.592.288-.296.188-.392.568-.392.76-.1.188 0 .38 0 .568l.688 2.188c.1.096.1.284.2.476.096.188.096.38.196.568.096.38.196.668.392 1.048zm1.676-1.808c.26.192.36.288.292.288.2 0 .296-.096.396-.192.2-.192.392-.476.392-.664v-.096c0-.096.1-.192 0-.476v-.096c-.292-.76-.392-1.52-.588-2.184-.1-.668-.296-1.332-.396-2 0-.188-.196-.472-.296-.472a.908.908 0 0 0-.688.284 1.424 1.424 0 0 0-.392.76v.572l.096.188c.1.76.296 1.332.492 2 .2.664.492 1.424.692 2.088zm1.968-1.712l.296.288c.096 0 .196-.096.296-.192.292-.188.492-.476.492-.664v-.668c-.1-.664-.296-1.424-.396-2.184-.096-.096-.096-.192-.096-.288 0-.188-.1-.472-.1-.664 0-.38-.1-.76-.1-1.044 0-.192-.096-.48-.196-.48-.296 0-.492 0-.688.192-.2.192-.296.572-.396.76v.572c.1.76.2 1.428.396 2.188.096.76.296 1.52.492 2.184zm2.164-1.328h.692c.196-.192.492-.48.492-.668v-.668c-.1-.664-.2-1.428-.296-2.188-.1-.76-.2-1.424-.2-2.092 0-.188-.096-.472-.192-.472h-.1c-.2 0-.396 0-.592.188-.096 0-.196.192-.296.284-.096.192-.196.288-.196.38-.096.096-.096.288-.096.48v.28l.292 2c.1.568.2 1.236.296 1.804l.1.38c0 .096.096.192.096.288zm4.336-2.76h.196c.096 0 .2-.092.392 0 .296-.092.492-.472.592-.568v-.096c0-.096.1-.188.1-.476V25.5c0-.76.096-1.428.096-2.092a.984.984 0 0 0-.196-.476h-.2c-.192 0-.292 0-.488.096-.2.096-.396.38-.592.664 0 .096-.1.288-.1.48v2.372c0 .668 0 1.332.1 2.188 0 .192.1.284.1.284zm-2.168 1.24h.3c.1 0 .1-.096.2-.096a1.8 1.8 0 0 0 .588-.668v-.096c.096-.092.096-.188.096-.568 0-.76-.096-1.428-.096-2.28v-2.092a.984.984 0 0 0-.2-.48h-.196a1.7 1.7 0 0 0-.492.192c-.196.096-.392.48-.492.668-.096.188-.096.38-.096.568 0 .76 0 1.52.096 2.28.1.288.1.572.1.76v.384l.096 1.14c0 .192.1.284.1.284zm6.796-3.616c0 .096.096.096.196.096.096 0 .2-.096.096.096a2.168 2.168 0 0 0 .496-.288 1.064 1.064 0 0 1 .196-.28c.096 0 .096-.1.096-.1.1-.092.1-.188.2-.472 0-.384 0-.76.096-1.144l.1-.568.096-.572c.1-.664.296-1.332.396-1.996 0-.192 0-.476-.1-.572-.096-.092-.196-.092-.296-.092-.096 0-.196 0-.392.092-.1.096-.296.192-.392.288-.2.092-.296.284-.296.284a.712.712 0 0 0-.2.476v.188c-.096.572-.096 1.24-.196 1.808v.188a13.204 13.204 0 0 0-.196 2.188c0 .284.1.38.1.38zm-2.268 1.048c0 .092.1.092.2.092.096 0 .196-.092.196-.092.1-.096.2-.096.392-.288.1-.188.2-.28.2-.28.096 0 .096-.1.096-.1 0-.092.1-.092.1-.476.096-.664.096-1.424.2-2.28 0-.38.096-.664.096-1.044s.096-.668.096-1.048c0-.284 0-.476-.096-.568h-.296c-.1 0-.2 0-.396.092a1.8 1.8 0 0 0-.588.668.712.712 0 0 0-.2.476c0 .852-.096 1.52-.096 2.184v2.28c0 .192 0 .288.096.384zm7.188-2.76s.1.096.296.096c0 0 .1 0 .2.284.292 0 .588-.28.688-.38l.096-.092c.1 0 .1-.096.1-.096 0-.096 0-.192.1-.284v-.192c.196-.856.392-1.52.588-2.188l.1-.188.296-.856.096-.284c0-.288.1-.48.2-.76.096-.192.096-.48 0-.572-.2-.096-.296-.096-.396-.096h-.296c-.196 0-.588.284-.688.476-.2.188-.296.284-.296.476l-.096.188-.296.952a3.276 3.276 0 0 1-.2.952c-.196.76-.392 1.424-.492 2.184-.096.192 0 .288 0 .38zm-2.46.856h.296c.1 0 .1 0 .296.096a2.068 2.068 0 0 0 .688-.476c.1 0 .1-.096.1-.096.096-.092.096-.092.196-.472 0-.288.1-.48.1-.76l.096-.384c0-.38.1-.76.2-1.14.196-.664.292-1.332.488-1.996 0-.188 0-.476-.096-.572-.2-.092-.296-.092-.396-.092-.096 0-.196.092-.392.092a1.372 1.372 0 0 0-.688.572c-.1.192-.2.284-.2.476-.096.664-.292 1.424-.392 2.188v.188l-.296 2c-.1.188 0 .28 0 .376zm7.48-1.996s.104.096.4.096c.196 0 .392 0 .392-.096a1.22 1.22 0 0 0 .296-.188l.096-.096c.1-.096.2-.096.296-.38v-.096l.396-1.044c.096-.288.196-.668.392-1.048.296-.664.592-1.332.888-1.9.096-.192.196-.476.096-.572-.196-.188-.296-.188-.492-.188h-.2c-.096.092-.192.092-.392.188l-.292.284a2.064 2.064 0 0 0-.296.48l-.1.188a25.324 25.324 0 0 0-.788 1.9c-.196.76-.492 1.52-.688 2.092v.38zm-2.46.476s.1.096.396.096a.76.76 0 0 0 .492-.192 1.224 1.224 0 0 0 .296-.188c.1 0 .1-.096.1-.096a1.012 1.012 0 0 0 .292-.476c.2-.568.396-1.332.692-2.092l.196-.568.2-.48c.096-.188.096-.28.192-.472.1-.192.1-.284.2-.476 0-.188.096-.476 0-.572-.2-.092-.296-.092-.492-.092h-.2c-.196 0-.492.188-.788.476a2.064 2.064 0 0 0-.292.472c-.296.76-.496 1.428-.692 2.092-.196.76-.392 1.428-.592 2.188v.38zm7.68-1.044s.1.188.496.188c.296 0 .588-.096.884 0 0-.096.1-.096.1-.096.096-.092.096-.092.296-.38v-.092c.296-.668.688-1.332 1.08-2 .396-.664.692-1.236 1.084-1.804.1-.288.1-.476.1-.572a1.468 1.468 0 0 0-.688-.188c-.296 0-.592.188-.788.284a.756.756 0 0 0-.396.38l-.096.192c-.396.664-.692 1.236-.988 1.804-.292.668-.688 1.332-.984 2-.096.092-.096.28-.096.28zm-2.656.188c.1.096.2.192.492.192.392 0 .688-.192.788-.192 0-.096.1-.096.1-.096.096-.092.096-.188.292-.472.296-.668.592-1.332.988-2 .292-.568.688-1.236.984-1.804.096-.192.196-.476.096-.572-.292-.188-.392-.188-.688-.188-.296 0-.688.284-.788.38a1.32 1.32 0 0 0-.296.38c-.296.568-.688 1.236-.984 1.996a3.32 3.32 0 0 0-.392.856l-.1.188c-.1.38-.296.668-.392 1.048-.1.096-.1.188-.1.284zm-20.184 65.6h22.94c10.044 0 17.528-2.568 22.452-7.796 4.432-4.66 6.6-10.456 6.6-17.4 0-5.132-1.184-9.696-3.648-13.688-2.46-3.992-5.708-6.752-9.748-8.46-4.036-1.712-9.944-2.568-17.624-2.568H39.236v1.332h1.968c1.972 0 3.448.568 4.432 1.616.688.856 1.08 2.756 1.08 5.892V80.26c0 2.76-.192 4.66-.784 5.42-.888 1.332-2.464 2-4.628 2h-1.968v1.328zm22.84-2.568c5.912 0 10.832-1.996 14.672-5.988 3.94-4.088 5.812-9.508 5.812-16.352 0-6.848-1.968-12.36-5.812-16.352-3.84-3.996-8.86-5.992-14.964-5.992-2.264 0-4.924.38-7.78 1.048v42.592c3.248.664 5.908 1.044 8.076 1.044z"/></svg>