<svg width="64" height="64" viewBox="0 0 128 128" xmlns="http://www.w3.org/2000/svg"><path d="M64 128C28.652 128 0 99.348 0 64S28.652 0 64 0s64 28.652 64 64-28.652 64-64 64zm36.3-51.6c-3.308-.184-1.468-5.448-2.94-11.452-1.748-6.648.828-11.268 4.228-11.08 1.6.248 3.112.88 4.412 1.844a27.276 27.276 0 0 0-3.124-8.22c-3.036-5.08-9.652-12.468-17.924-18.284v55.688a5.592 5.592 0 1 1-10.664 2.4 21.74 21.74 0 0 1-27.912-4.2 21.992 21.992 0 0 1-.416-28.36 21.74 21.74 0 0 1 27.776-5.028V28.1a5.461 5.461 0 0 1 2.024-4.34c-10.756-4.988-22.796-6.004-33.092 3.14-17.28 15.42-25.92 36.94-17.28 58.364.184.464.368.924.552 1.292a4.86 4.86 0 0 1 1.012-1.384c4.504-4.616 9.468 4.8 20.04 10.252 6.708 3.416 10.568 7.94 12.04 12.188 9.832 1.2 19.944-.368 28.032-5.08C97.636 96.44 103.796 85.356 106 74.092a9.352 9.352 0 0 1-5.7 2.308zm-41.452.368c5.332 3.048 11.764 1.848 12.96-4.988.64-3.968.276-10.16-3.216-12.096-11.584-6.648-21.328 10.436-9.744 17.084zm5.424-44.144c2.48-.092 4.776 2.864 4.868 4.248.092 1.388-2.112.832-4.504 1.664-2.664.92-4.596.092-4.684-1.292-.092-1.388 1.744-4.528 4.32-4.62z"/></svg>