<svg width="64" height="64" viewBox="0 0 128 128" xmlns="http://www.w3.org/2000/svg"><path d="M64 128C28.652 128 0 99.348 0 64S28.652 0 64 0s64 28.652 64 64-28.652 64-64 64zM41.928 67.584V96h26.196c4.84 0 9.028-.84 12.568-2.508 3.54-1.676 6.428-3.96 8.672-6.86 2.24-2.896 3.908-6.288 5-10.172C95.456 72.576 96 68.42 96 64a45.88 45.88 0 0 0-1.64-12.46c-1.088-3.88-2.756-7.276-5-10.172-2.24-2.9-5.128-5.184-8.668-6.86C77.152 32.84 72.96 32 68.12 32H41.924v26.44H36v9.144h5.928zm11.064-9.14v-17.3h10.884c4.308 0 7.832.58 10.576 1.748 2.744 1.164 4.896 2.776 6.46 4.84 1.56 2.06 2.624 4.48 3.184 7.26.56 2.78.84 5.78.84 9.008 0 3.228-.28 6.228-.84 9.008-.56 2.78-1.62 5.2-3.184 7.26-1.564 2.064-3.72 3.676-6.46 4.84-2.744 1.168-6.268 1.748-10.576 1.748H52.992V67.584h17.256v-9.14H52.992z"/></svg>