<svg width="64" height="64" viewBox="0 0 128 128" xmlns="http://www.w3.org/2000/svg"><path d="M37.612 39.828L37.6 83.12h11.272l-.288-29.308 33.12 42.052 8.912 11.32-.072-6.292-.116-56.716H79.332l.288 29.544-41.312-52.496-.692-.88v15.792l-.016 3.68.012.012zM64 128C28.652 128 0 99.348 0 64S28.652 0 64 0s64 28.652 64 64-28.652 64-64 64zM37.612 39.828l44.096 56.04-33.124-42.056.288 29.308H37.6l.012-43.292zm0-3.692l.004-15.788.692.876-.644-.816-.052 15.728zM79.62 73.72l-.288-29.544h11.096l.12 56.72-.152-13.48L79.62 73.72z"/></svg>