<svg width="64" height="64" viewBox="0 0 128 128" xmlns="http://www.w3.org/2000/svg"><path d="M64 128C28.652 128 0 99.348 0 64S28.652 0 64 0s64 28.652 64 64-28.652 64-64 64zm28.536-58.132c-2.204-9.708-9.056-20.412-9.056-20.412 7.896 21.548 4.856 37.8 2.764 47.02 0 0-2.76 10.312 3.18 1.72 7.408-10.752 3.112-28.328 3.112-28.328zM73.032 31.64C77.14 46.272 79 58.692 79.58 69.048c1.02 17.648-1.672 29.26-3.344 35.392-.536 1.996 1.696 3.48 2.996 1.972l.024-.024c3.248-3.716 4.784-12.42 5.504-20.06l.208-2.508c.672-9.2.28-18.484-1.88-27.38-3.972-16.416-10.056-24.8-10.056-24.8zm-7.36 25.776c-1-24.032-2.812-45.372-2.812-45.372s-1.832 20.272-2.832 43.768c-.16 3.812-.304 7.688-.42 11.588-.16 5.668-.232 11.36-.232 16.86.024 9.776.4 18.948 1.28 26.264.348 2.9 4.108 2.9 4.456 0 .604-4.992.952-11.124 1.092-17.86a495.36 495.36 0 0 0-.092-21.848c-.12-4.46-.256-8.964-.44-13.4zm-28.076 28.96a73.62 73.62 0 0 1-.372-13.656 78.308 78.308 0 0 1 1.628-11.496 89.459 89.459 0 0 1 3.436-11.796s-4.832 7.548-7.664 15.696c-.56 1.56-1.02 3.16-1.372 4.716 0 0-.904 4.088-1.04 9.544-.096 3.784.204 8.264 1.412 12.492a24.76 24.76 0 0 0 2.72 6.292s5.944 8.848 3.18-1.72a79.144 79.144 0 0 1-1.928-10.076zm8.476-4.74a126.724 126.724 0 0 1 .232-14.352 142.692 142.692 0 0 1 1.116-10.54c1.04-7.524 2.74-15.86 5.32-25.104 0 0-6.112 8.384-10.08 24.8-.212.88-.4 1.764-.584 2.624a80.85 80.85 0 0 0-1.416 10.868c-.28 4.6-.208 9.24.12 13.864l.208 2.532c.72 7.64 2.228 16.344 5.5 20.06l.024.024c1.3 1.488 3.552 0 3-1.972-1.212-4.528-3-12.052-3.44-22.804zm10.148.904a397.268 397.268 0 0 1-.072-15.976c.048-3.504.14-7.2.304-11.076.396-10.008 2.276-24.476 3.576-36.736 0 0-6.408 13.26-9.336 37.18-.392 3.272-.764 6.8-1.044 10.612l-.208 2.832s-.348 5.06-.212 11.888c.188 8.776 1.16 20.48 4.784 28.144.12.232.256.44.44.6l.024.028c1.372 1.3 3.484.068 3.3-1.952a327.96 327.96 0 0 1-1.56-25.544zm13.28 0c-.3 12.448-1.088 21.156-1.552 25.544-.188 2.02 1.924 3.252 3.296 1.952l.024-.024a1.932 1.932 0 0 0 .44-.604c3.624-7.664 4.6-19.368 4.784-28.144.14-6.828-.208-11.888-.208-11.888l-.212-2.832a225.496 225.496 0 0 0-1.04-10.612c-2.928-23.92-9.34-37.18-9.34-37.18 1.304 12.26 3.184 26.728 3.576 36.736.164 3.88.256 7.572.304 11.08A397.268 397.268 0 0 1 69.5 82.54z"/></svg>