<svg width="64" height="64" viewBox="0 0 128 128" xmlns="http://www.w3.org/2000/svg"><path d="M99.852 58.048l-.08-7.796L55.164 24l-10.852 6.696-.024-.012L32 37.936v52.088l11.244 7.204h.004l.076.052v-.008L55.292 104 100 77.916l-.068-19.872zm-13.1 12.448L55.336 88.968l-9.168-5.452L77.396 65.14zm-11.464-6.56L55.94 75.628l.084-22.724zM56.032 50.472l.04-10.756L87 57.776v10.82zM43.28 94.28l-9.336-5.58V39.584l9.384 5.604v38.288l.072-.04zm1.664-12.004V45.184l9.38-5.604v37.024zM64 128C28.652 128 0 99.348 0 64S28.652 0 64 0s64 28.652 64 64-28.652 64-64 64zm-7.536-37.596l41.68-24.48-.12 11.28-41.748 24.544zm31.172-34.336l-41.728-24.4 9.624-5.56 41.82 24.416z"/></svg>