<svg width="64" height="64" viewBox="0 0 128 128" xmlns="http://www.w3.org/2000/svg"><path d="M64 128C28.652 128 0 99.348 0 64S28.652 0 64 0s64 28.652 64 64-28.652 64-64 64zm.336-112c-21.88.016-39.616 17.744-39.64 39.62.02 2.136.26 4.264.712 6.352a.616.616 0 00.96.36 8.944 8.944 0 015.192-1.672.608.608 0 00.62-.708 24.16 24.16 0 01-.408-4.288 32.56 32.56 0 0165.12 0c0 17.96-22.976 40.9-31.2 49a1.936 1.936 0 01-2.712 0 243.084 243.084 0 01-10.128-10.5h-.168a34.5 34.5 0 01-9.176-2.2l-.544-.22a.608.608 0 00-.712.948 230 230 0 0016.184 17.428 8.436 8.436 0 0011.78 0c14.48-14.304 33.76-35.464 33.76-54.5-.024-21.88-17.76-39.604-39.64-39.62zm16.48 43.628v-1.62a17.036 17.036 0 00-.364-3.056 19.064 19.064 0 00-.88-2.972 20.76 20.76 0 00-1.38-2.8 21.336 21.336 0 00-9.212-8.372 16.584 16.584 0 00-5.86-1.572h-8.572a1.508 1.508 0 00-1.284 1.22v.136a.52.52 0 000 .072v25.964a16.98 16.98 0 01-.072 2.3c-.128.912-.364 1.8-.712 2.652a9.148 9.148 0 01-3.808 4.464c-.8.476-1.656.84-2.552 1.092a12.964 12.964 0 01-3.04.464c3.18 2.3 6.92 3.72 10.828 4.108A24.864 24.864 0 0065.92 79.78a28.1 28.1 0 0010-7.144l-.04-.036a20.715 20.715 0 003.412-5.264 19.29 19.29 0 001.428-6.056 17.96 17.96 0 00.096-1.652zm7.056-1.864a24.072 24.072 0 00-.516-4.284 26.036 26.036 0 00-3.104-7.908A28.372 28.372 0 0071.944 34.4a23.64 23.64 0 00-8.336-2.216c-.364 0-.716 0-1.116-.04H54.5c-.256 0-.52 0-.78.056-1.044.12-2.06.44-2.992.936a8.572 8.572 0 00-4.512 6.972v26.52c0 .464-.032.928-.096 1.388a4.01 4.01 0 01-.228.912 2.272 2.272 0 01-.36.608 2.7 2.7 0 01-1.376.792c-.788.2-1.6.264-2.412.188a13.4 13.4 0 01-7.764-3.472 3.536 3.536 0 00-5.508 4.284A37.092 37.092 0 0038.528 83.02a29.82 29.82 0 006.944 3.86 29.184 29.184 0 007.748 1.856 31.928 31.928 0 0015.452-2.416 32.964 32.964 0 0012.548-9.148l.044.036a27.716 27.716 0 004.56-7.092 26.292 26.292 0 001.94-8.26 46.01 46.01 0 00.116-2.036v-1.004c.028-.296.004-.7 0-1.052h-.008z"/></svg>