<svg width="64" height="64" viewBox="0 0 128 128" xmlns="http://www.w3.org/2000/svg"><path d="M64 128C28.652 128 0 99.348 0 64S28.652 0 64 0s64 28.652 64 64-28.652 64-64 64zm8.128-36.52V36.32c0-4.584-3.68-8.3-8.224-8.3s-8.22 3.716-8.22 8.3v55.16c0 4.58 3.68 8.296 8.22 8.296s8.224-3.716 8.224-8.3zm-27.68.02V79.1a8.288 8.288 0 0 0-4.06-7.28 8.128 8.128 0 0 0-8.272 0 8.288 8.288 0 0 0-4.056 7.28v12.4a8.288 8.288 0 0 0 4.056 7.28 8.147 8.147 0 0 0 8.272 0 8.288 8.288 0 0 0 4.056-7.28zM99.82 69.6V48.668c0-4.584-3.68-8.3-8.224-8.3s-8.224 3.716-8.224 8.3V69.6c0 4.584 3.68 8.3 8.224 8.3s8.224-3.72 8.224-8.3zm.004 0c0 4.58-3.68 8.296-8.224 8.296s-8.224-3.72-8.224-8.3V48.664c0-4.584 3.68-8.3 8.224-8.3s8.224 3.716 8.224 8.3z"/></svg>