<svg width="64" height="64" viewBox="0 0 128 128" xmlns="http://www.w3.org/2000/svg"><path d="M39.712 66.296h-11.22L16 76.288h26.088A32.2 32.2 0 0 0 71.816 96C89.592 96 104 81.672 104 64S89.592 32 71.816 32a32.196 32.196 0 0 0-29.84 19.984H16l12.492 9.992h11.2a32.304 32.304 0 0 0 .02 4.32zM64 128C28.652 128 0 99.348 0 64S28.652 0 64 0s64 28.652 64 64-28.652 64-64 64zm26.148-63.404v1.224c0 .408-.024.816-.08 1.224H61.92a9.048 9.048 0 0 0 3.396 6.468c.976.792 2.08 1.416 3.316 1.876s2.52.688 3.856.688c2.312 0 4.268-.42 5.86-1.264a10.9 10.9 0 0 0 3.932-3.48l6.172 4.896c-3.652 4.9-8.948 7.352-15.888 7.352-2.88 0-5.528-.448-7.944-1.34a18.772 18.772 0 0 1-6.284-3.792 17.076 17.076 0 0 1-4.164-6.008c-1.004-2.372-1.504-5.064-1.504-8.076 0-2.96.5-5.652 1.504-8.076s2.376-4.488 4.124-6.2c1.748-1.708 3.82-3.036 6.208-3.98s4.976-1.416 7.752-1.416c2.572 0 4.948.42 7.132 1.264s4.076 2.092 5.672 3.748c1.592 1.66 2.84 3.728 3.74 6.2s1.348 5.372 1.348 8.692zm-9.256-4.136a11.2 11.2 0 0 0-.5-3.368 7.692 7.692 0 0 0-1.58-2.832c-.72-.816-1.632-1.468-2.74-1.952s-2.4-.728-3.892-.728c-2.776 0-5.128.832-7.06 2.488a9.044 9.044 0 0 0-3.2 6.392z"/></svg>