<svg width="64" height="64" viewBox="0 0 128 128" xmlns="http://www.w3.org/2000/svg"><path d="M64 128C28.652 128 0 99.348 0 64S28.652 0 64 0s64 28.652 64 64-28.652 64-64 64zm-.004-25.552a1.76 1.76 0 00-1.744 1.776A1.76 1.76 0 0063.996 106a1.76 1.76 0 001.744-1.776 1.768 1.768 0 00-1.744-1.776zm-35.12-57.016c.612.36 1.38.308 1.944-.128a1.8 1.8 0 00.628-1.88 1.744 1.744 0 10-3.212-.432 1.8 1.8 0 00.64 2.44zm0 37.176a1.792 1.792 0 00-.64 2.424 1.732 1.732 0 002.384.652 1.792 1.792 0 00.64-2.424 1.736 1.736 0 00-2.384-.652zm70.24-37.176a1.792 1.792 0 00-.416-3.272 1.736 1.736 0 00-1.844.64 1.808 1.808 0 00-.124 1.98 1.736 1.736 0 002.384.652zM64 25.552a1.744 1.744 0 001.636-1.076 1.8 1.8 0 00-.36-1.944 1.724 1.724 0 00-1.908-.4 1.776 1.776 0 00-1.08 1.64c0 .972.76 1.76 1.712 1.78zm31.2 56.776a3.492 3.492 0 014.372-1.548V47.2a3.484 3.484 0 01-4.36-1.532 3.616 3.616 0 01.88-4.6l-28.608-16.8a3.532 3.532 0 01-3.48 3.08 3.532 3.532 0 01-3.48-3.08l-28.6 16.804a3.616 3.616 0 01.864 4.6 3.484 3.484 0 01-4.352 1.528v33.6a3.484 3.484 0 014.36 1.532 3.616 3.616 0 01-.88 4.6l28.608 16.804a3.532 3.532 0 013.48-3.076c1.752 0 3.236 1.312 3.48 3.076l28.604-16.8a3.616 3.616 0 01-.884-4.608zM70.752 77.18a14.824 14.824 0 006.556-8.088c1.7-5.06 9.344-2.24 6.484 4.336 0 .064-.052.124-.076.18l9.408 5.52a1.72 1.72 0 01.592 2.32 1.66 1.66 0 01-2.268.632L82.1 76.608a22.16 22.16 0 01-7.46 7.288 21.46 21.46 0 01-8.8 2.92v10.4c0 .972-.776 1.76-1.732 1.76a1.744 1.744 0 01-1.732-1.76V86.904a22.624 22.624 0 01-17.3-9.8l-8.516 4.984a1.664 1.664 0 01-2.292-.62 1.72 1.72 0 01.608-2.332l8.48-4.98a23.828 23.828 0 01-1.368-3.612l-.808-4.576a23.052 23.052 0 012.36-12.008l-8.66-5.096a1.72 1.72 0 01-.612-2.32 1.656 1.656 0 012.28-.624l8.736 5.124a22.66 22.66 0 017.012-6.428A21.972 21.972 0 0162.38 41.6V30.784c0-.972.776-1.76 1.732-1.76s1.728.788 1.728 1.76v10.92a22.488 22.488 0 0116.112 9.836l9.528-5.62a1.628 1.628 0 012.288.62 1.728 1.728 0 01-.628 2.324l-12.956 7.624-.176.084-3.048 1.8-6.432 3.776-18.872 11.056a14.512 14.512 0 0019.092 3.976zm28.368 5.428a1.728 1.728 0 00-2.38.652 1.792 1.792 0 00.64 2.424 1.72 1.72 0 002.38-.648 1.8 1.8 0 00-.64-2.428zm-49.984-16.26l23.44-13.768a14.48 14.48 0 00-16.504-1.264c-6.32 3.712-7.108 8.364-6.936 15.032z"/></svg>