<svg width="64" height="64" viewBox="0 0 128 128" xmlns="http://www.w3.org/2000/svg"><path d="M64 128C28.652 128 0 99.348 0 64S28.652 0 64 0s64 28.652 64 64-28.652 64-64 64zm35.96-77.992c0-1.592-.376-3.18-1.028-4.62-1.032-2.284-2.62-4.42-4.784-5.704-8.12-4.768-16.248-9.496-24.364-14.26-.928-.544-1.976-.848-3.004-1.136a14.256 14.256 0 0 0-6.936.392c-1.332.456-2.496 1.288-3.72 1.968-7.464 4.36-14.92 8.72-22.38 13.064a9.88 9.88 0 0 0-2.556 2.256c-1.76 2.12-3 4.768-3.152 7.568V78.28c0 1.924.64 3.772 1.52 5.452 1.08 1.936 2.544 3.736 4.504 4.828 8.024 4.68 16.052 9.372 24.08 14.048 1.18.68 2.492 1.076 3.84 1.256 2.584.32 5.336.108 7.664-1.136 7.624-4.448 15.228-8.9 22.856-13.336 1.12-.668 2.3-1.256 3.244-2.16a13.88 13.88 0 0 0 4.008-7.044c.268-1.16.208-2.372.208-3.556V50.008zm-36.2-9.904a.94.94 0 0 1 .568.532c1.448 2.696 3.48 5.024 5.604 7.204 1.376 1.348 2.392 3.104 2.736 5.024.452 2.136-.804 4.5-2.824 5.272-1.48.576-3.2.468-4.62-.228-.268-.092-.72-.408-.88-.032.268 1.848 1.212 3.464 2.064 5.068.208.348-.192.592-.388.816-.88.816-1.628 1.788-2.584 2.528-.284-.092-.48-.364-.688-.56-.82-.864-1.688-1.696-2.508-2.576-.016-.06-.032-.212-.044-.272.912-1.636 2.064-3.24 2.36-5.132a1.572 1.572 0 0 0-.868.12c-1.508.592-3.232.728-4.752.12a4.5 4.5 0 0 1-2.828-3.62c-.152-1.196.208-2.388.744-3.44.668-1.48 1.792-2.676 2.96-3.784a42.704 42.704 0 0 0 5.948-7.04zm-14.532 26.04a8.412 8.412 0 0 1 7.596-.52c.192.08.24.12.388.216.776.304 1.448.8 2.076 1.36 1.42 1.228 2.568 2.74 4.02 3.936 1.408-1.332 2.704-2.788 4.128-4.084 2-1.848 4.932-2.392 7.528-1.864 4.068.8 7.088 5.008 6.8 9.176-.132 2.632-1.444 5.236-3.6 6.736-1.464 1.016-3.2 1.74-4.996 1.696-2.36.092-4.676-.968-6.348-2.62-3.156-3.16-6.2-6.432-9.372-9.584-.928-1-2.184-1.728-3.56-1.816a5.824 5.824 0 0 0-2.836.64c-1.36.724-2.272 2.176-2.496 3.708-.28 1.62.3 3.372 1.508 4.48 1.868 1.804 5.144 1.788 6.964-.06.464-.392.896-1.18 1.616-.864.448.272.76.728 1.152 1.08.3.344.76.632.804 1.148 0 .52-.46.816-.776 1.152-.84.88-1.808 1.62-2.944 2.076-2.2.864-4.736.88-6.92-.06-3.456-1.56-5.68-5.544-5.128-9.36.392-2.712 1.992-5.268 4.4-6.572zm20.148 4.208c-1.104 1.152-2.24 2.256-3.348 3.408.016.076.032.24.044.332 1.332 1.24 2.496 2.648 3.884 3.828 1.868 1.592 4.844 1.38 6.576-.304 1.692-1.648 2.08-4.524.76-6.52a4.848 4.848 0 0 0-3.96-2.26c-1.456-.12-2.92.484-3.956 1.52z"/></svg>