<svg width="64" height="64" viewBox="0 0 128 128" xmlns="http://www.w3.org/2000/svg"><path d="M64 128C28.652 128 0 99.348 0 64S28.652 0 64 0s64 28.652 64 64-28.652 64-64 64zM52.24 95.496l6.836 6.888a5.508 5.508 0 0 0 7.796 0l6.876-6.888-10.776-10.788zm27.8-36.968L90.812 47.74 80.044 36.952 69.272 47.74zM77.364 91.98l25.02-25.06a5.528 5.528 0 0 0 0-7.812l-6.872-6.884-28.92 28.968zm-29.612-1.112l28.872-28.92L65.856 51.16 36.984 80.08zm-15.288-15.2l10.82-10.792-10.772-10.792-6.872 6.888a5.528 5.528 0 0 0-.052 7.808zm43.068-43.152l-6.876-6.9a5.508 5.508 0 0 0-7.796 0L35.84 50.68l10.772 10.788z"/></svg>