<svg width="64" height="64" viewBox="0 0 128 128" xmlns="http://www.w3.org/2000/svg"><path d="M64 128C28.652 128 0 99.348 0 64S28.652 0 64 0s64 28.652 64 64-28.652 64-64 64zM37.884 36.064c-2.032 0-4.16-.184-6.008.72-.972 1.496-1.2 3.624-.044 5.12 1.108.996 2.724.996 4.16 1.04 6.424 0 12.848-.044 19.276 0-.184 5.568 0 11.184-.092 16.8-5.732 0-11.512-.048-17.24 0-1.48 0-3.24.272-3.888 1.764-.508 1.36-.508 3.124.648 4.164.972.816 2.36.816 3.608.864 5.64 0 11.232-.048 16.872 0 0 6.112-.092 12.268.044 18.424-7.304.136-14.652-.088-21.96.136-3.092-.18-4.248 3.988-2.308 5.932 1.108 1 2.728.86 4.16.952 13.128 0 26.212.044 39.34 0 6.748-.044 13.868-1.72 18.952-6.292 5.732-4.984 8.228-12.632 8.552-19.92.324-7.34-1.108-15.216-6.008-21.056-4.16-5.028-10.588-7.652-17.012-8.332-6.428-.588-10.708-.32-19.32-.32H37.88zm25.336 23.68V45.3c.044-.816.092-1.948 1.016-2.22 2.912-.272 5.6-.18 8.736-.18 5.5-.32 11.42 1.04 15.348 5.024 4.344 4.44 5.456 10.96 5.316 16.888-.092 5.344-1.48 10.96-5.272 14.988-3.696 3.848-9.24 5.48-14.512 5.252-3.548 0-6.288.092-9.432-.18-1.156-.092-1.2-1.448-1.248-2.356 0-5.34.048-10.64 0-15.98 2.636-.048 5.32.224 7.904-.184 3.192-.452 3.192-5.976.048-6.428-2.636-.36-5.272-.136-7.904-.18z"/></svg>