<svg width="64" height="64" viewBox="0 0 128 128" xmlns="http://www.w3.org/2000/svg"><path d="M64 128C28.652 128 0 99.348 0 64S28.652 0 64 0s64 28.652 64 64-28.652 64-64 64zM24 40.92l40 22.816 40-22.816-20-11.2-20.016 11.488L44 29.728 24 40.924zm0 36l40 22.816 40-22.816-20-11.2-20 11.496-20-11.484-20 11.192zm20 11.556l20-11.28v22.54l-20-11.26zm0-36l20-11.28v22.54l-20-11.26zm60 24.444L84 88.464V65.72l20 11.2zm0-36L84 52.464V29.72l20 11.2zM44 88.464V65.732l20 11.48-20 11.252zm0-36V29.732l20 11.48-20 11.252zm40 36L64 99.736v-22.52l20 11.248zm0-36L64 63.736v-22.52l20 11.248zM44 65.732v22.732l-20-11.54 20-11.192zm0-36v22.732l-20-11.54 20-11.192z"/></svg>