<svg width="64" height="64" viewBox="0 0 128 128" xmlns="http://www.w3.org/2000/svg"><path d="M64 128C28.652 128 0 99.348 0 64S28.652 0 64 0s64 28.652 64 64-28.652 64-64 64zm40-64.152c.004-9.264-7.164-16.54-16.36-16.6-9.008-.06-16.44 7.396-16.488 16.54-.048 9.148 7.304 16.64 16.36 16.664 9.248.028 16.484-7.26 16.488-16.6zM36.36 95.68c3.692.016 6.94-1.276 9.148-4.216 1.376-1.828 2.192-4.152 2.96-6.36 1.408-4.048 3.288-7.592 7.568-9.148 2.392-.868 4.728-.108 7.08.304 2.664.464 4.792-.928 5.5-3.52a4.712 4.712 0 0 0-2.68-5.608c-2.344-1.008-4.984-.124-6.148 2.252-1.144 2.336-2.948 3.932-5.068 5.248-1.46.908-3.04 1.288-4.692.744-2.66-.872-5.272-1.908-7.944-2.744-1.88-.588-3.816-1.308-5.744-1.352-6.708-.156-12.04 5.36-12.064 12.184A12.076 12.076 0 0 0 36.36 95.68zm-.256-63.352c-8.896 0-14.736 9.36-10.912 17.48a12.072 12.072 0 0 0 16.936 5.432c1.608-.892 3.212-1.848 4.92-2.492 4.92-1.848 8.54-.768 11.8 3.352.48.6.88 1.268 1.308 1.908 1.2 1.788 3.412 2.616 5.368 2.008 2.212-.692 3.428-2.412 3.376-4.776-.076-3.408-3.24-5.52-6.532-4.32-3.712 1.356-9.564.872-11.896-4.092-.94-2-2.048-3.948-2.784-6.032-1.856-5.264-6.116-8.468-11.584-8.468zm38.12 63.632c.052-4.488-3.396-8.208-7.908-8.164-4.716.044-8.108 3.8-7.988 8.416.104 4.08 3.624 7.708 7.84 7.788 4.356.08 8.008-3.564 8.06-8.04zM58.376 32.08c-.208 3.912 2.804 8.036 7.92 8.132 4.496.084 7.912-3.576 7.944-8.14.036-4.34-3.572-8.032-7.884-8.072-4.436-.04-7.984 3.552-7.98 8.08z"/></svg>