<svg width="64" height="64" viewBox="0 0 128 128" xmlns="http://www.w3.org/2000/svg"><path d="M64 128C28.652 128 0 99.348 0 64S28.652 0 64 0s64 28.652 64 64-28.652 64-64 64zM40.392 94.384l23.548 9.38 23.536-9.392-12.744-30.44L87.484 33.46 63.94 24.092l-23.548 9.38 12.756 30.46zM63.94 63.936V85.16L40.38 94.4l23.56-30.48V42.696l23.56-9.24zm0 21.224v18.604l-23.56-9.376 23.56-9.26V63.936l-23.56-30.48 23.56 9.24V24.092l23.56 9.372-23.56 9.26V63.92L87.5 94.4zM40.38 33.464l23.56-9.372v18.632zM87.5 94.388l-23.56 9.376V85.128z"/></svg>