<svg width="64" height="64" viewBox="0 0 128 128" xmlns="http://www.w3.org/2000/svg"><path d="M64 128C28.652 128 0 99.348 0 64S28.652 0 64 0s64 28.652 64 64-28.652 64-64 64zM24 91.992h52.38l7.572-15.356H31.576L24 92zm10.04-20.36h52.384l7.552-15.312H41.6l-7.552 15.312zm10.028-20.32H96.44L104 36H51.62l-7.552 15.316zM31.576 76.64H66.7l-7.576 15.352H24l7.576-15.356zm2.468-5.008L41.6 56.32h35.12l-7.552 15.312H34.04zm10.024-20.32L51.62 36h35.124l-7.556 15.316h-35.12zM31.576 76.644h17.588L41.592 92H24l7.576-15.356zm10.02-20.32h17.592L51.64 71.64h-17.6l7.56-15.32zm10.024-20.32h17.592l-7.556 15.32H44.068L51.62 36z"/></svg>