<svg width="64" height="64" viewBox="0 0 128 128" xmlns="http://www.w3.org/2000/svg"><path d="M64 128C28.652 128 0 99.348 0 64S28.652 0 64 0s64 28.652 64 64-28.652 64-64 64zm36.596-86.82a7.12 7.12 0 0 1-.256-.152l-.008-.004-.008-.004-10.668-6.208-6.78-3.948-6.944-4.04c-3.72-2.16-7.56-4.4-11.348-6.596L64.2 20l-.412.16a7.32 7.32 0 0 0-1.06.5l-.04.024-15.88 9.42-6.952 4.12c-4.196 2.488-8.536 5.06-12.776 7.592-1.04.5-1.012 1.608-1 2.144l.004.128v.24c-.016 9.728-.028 19.788-.052 29.692L26 85.028c-.056.816.32 1.532.952 1.84C34.52 91.22 42.2 95.652 49.624 99.936l13.368 7.712a2.084 2.084 0 0 0 1.092.352 1.4 1.4 0 0 0 .856-.288L84.32 96.4l7.28-4.248c3.016-1.764 6.14-3.592 9.2-5.372a1.908 1.908 0 0 0 1.128-1.888l.06-41.668c.104-1.24-.94-1.8-1.396-2.04zM65.52 103.86l.024-17.772 6.576-3.82c1.82-1.064 3.68-2.144 5.48-3.188l4.976-2.896.004-.004.104-.068a2.288 2.288 0 0 0 .736-.636l.18-.248v-.304c-.032-3.8-.04-8.024-.028-13.3l.004-2.448V54.52l15.4-9.008-.024 15.46-.036 23.396A19663.1 19663.1 0 0 0 77.368 96.94zM48.736 53.64l15.288-8.976 15.132 8.928-15.108 8.832-5.216-2.996a4590.304 4590.304 0 0 0-10.096-5.788zm-1.56 2.6l15.38 8.82-.024 17.52-15.072-8.784zm-18.08-10.376l15.04 8.64.328 19.832c-.04.78.344 1.492.964 1.784 2.14 1.252 4.32 2.52 6.428 3.744l4.112 2.396 6.56 3.82-.012 17.8L29.02 84.56zm68.376-2.984l-15.32 8.952-17.1-10.084a1.792 1.792 0 0 0-2-.04L45.72 51.88 30.6 43.224l10.504-6.228c7.04-4.18 14.548-8.628 22.944-13.588 7.56 4.424 14.88 8.68 21.056 12.264 2.16 1.264 4.36 2.544 6.488 3.78l5.876 3.424zM65.544 82.588l.012-17.528 15.156-8.856v17.568a7766.397 7766.397 0 0 0-15.168 8.816zm20.508-3.172a1.708 1.708 0 0 0 1.192-1.032 1.88 1.88 0 0 0-.312-2.016l-.004-.008a1.784 1.784 0 0 0-1.32-.612 1.796 1.796 0 0 0-1.748 1.504 1.868 1.868 0 0 0 .584 1.764 1.576 1.576 0 0 0 1.144.468 1.572 1.572 0 0 0 .464-.068zm8.256 5.632a1.628 1.628 0 0 0 1.76.256 1.82 1.82 0 0 0 1.104-1.456 1.84 1.84 0 0 0-.808-1.828 1.704 1.704 0 0 0-.972-.308 1.624 1.624 0 0 0-.884.264 1.876 1.876 0 0 0-.888 1.52 1.8 1.8 0 0 0 .688 1.552zm-52.756-9.28a1.832 1.832 0 0 0-1.76 1.476 1.824 1.824 0 0 0 1.712 2.228c.136 0 .28-.02.408-.052a1.768 1.768 0 0 0 1.256-1.044 1.84 1.84 0 0 0-.308-1.984 1.708 1.708 0 0 0-1.308-.624zm47.824 6.304a1.768 1.768 0 0 0 1.732.28 1.752 1.752 0 0 0 1.128-1.328 1.82 1.82 0 0 0-.556-1.796 1.744 1.744 0 0 0-1.2-.484 1.84 1.84 0 0 0-1.752 1.56 1.88 1.88 0 0 0 .648 1.768zm-51.62-2.892a1.68 1.68 0 0 0-1.12-.44 1.576 1.576 0 0 0-.616.128 1.792 1.792 0 0 0-1.156 1.564c-.064.74.28 1.44.868 1.784a1.704 1.704 0 0 0 .888.264 1.824 1.824 0 0 0 .76-.176h.004a1.744 1.744 0 0 0 1.016-1.336 1.86 1.86 0 0 0-.644-1.788zm26.04-54.512a1.696 1.696 0 0 0-.296.028 1.824 1.824 0 0 0-1.408 1.036v.008a1.8 1.8 0 0 0 .104 1.768 1.844 1.844 0 0 0 1.904.812h.008l.012-.004a1.752 1.752 0 0 0 1.464-1.348c.16-.6 0-1.232-.428-1.68a1.824 1.824 0 0 0-1.36-.62zM32.6 81.96a1.672 1.672 0 0 0-1.728 0 1.86 1.86 0 0 0-.924 1.64c0 .696.368 1.332.944 1.632.24.14.52.216.816.216a1.812 1.812 0 0 0 .976-.296 1.816 1.816 0 0 0 .844-1.632 1.784 1.784 0 0 0-.928-1.56zm32.16-45.14a1.92 1.92 0 0 0-1.036-.308 1.8 1.8 0 0 0-.904.24 1.76 1.76 0 0 0-.932 1.46 1.776 1.776 0 0 0 .712 1.596c.32.252.708.384 1.136.384a1.952 1.952 0 0 0 .792-.176h.004a1.772 1.772 0 0 0 1.088-1.52 1.832 1.832 0 0 0-.86-1.68zm-2.28-3.032c.34.32.768.488 1.24.488a1.956 1.956 0 0 0 .8-.176 1.796 1.796 0 0 0 1.1-1.64 1.796 1.796 0 0 0-.944-1.636 1.952 1.952 0 0 0-.936-.24 1.744 1.744 0 0 0-.976.288 1.848 1.848 0 0 0-.872 1.408v.012a1.768 1.768 0 0 0 .592 1.496z"/></svg>