<svg width="64" height="64" viewBox="0 0 128 128" xmlns="http://www.w3.org/2000/svg"><path d="M64 128C28.652 128 0 99.348 0 64S28.652 0 64 0s64 28.652 64 64-28.652 64-64 64zm25.252-92c-12.088 0-24.172 0-36.208.024-3.32.328-6.688.48-9.98 1.188-9.272 1.964-13.484 6.4-14.588 15.428-.188 1.412-.32 2.848-.476 4.284v14.544c.24 1.84.42 3.708.736 5.548 1.4 7.968 5.532 12 13.828 13.64 3.528.68 7.108 1.108 10.692 1.184 11.64.228 23.28.2 34.92 0 2.788-.028 5.608-.228 8.292-1.06 3.136-.96 4.532-4.688 2.74-7.36-.92-1.388-2.4-1.588-3.976-1.588-12.404 0-24.78.024-37.184-.052-3.556-.024-7.112-.228-10.56-1.16-3.108-.832-5.032-2.696-5.82-5.696-.42-1.612-.528-3.252-.66-4.92-.16-1.812-.184-1.812 1.74-1.812h51.96c.732 0 1.496-.024 2.236-.152 1.76-.328 2.792-1.232 2.896-2.872.132-2.04.712-4.26-1.608-5.672a4.496 4.496 0 0 0-2.292-.604H43.828c-2.976 0-2.976 0-2.74-2.852.528-6.072 2.896-8.568 9.192-9.552a35.36 35.36 0 0 1 5.688-.48c12.692-.052 25.412-.076 38.104-.1a20.48 20.48 0 0 0 2.792-.2c1.552-.256 2.528-1.188 2.792-2.7.656-3.732-.608-5.572-4.48-6.304-1.948-.352-3.948-.48-5.92-.704z"/></svg>