<svg width="64" height="64" viewBox="0 0 128 128" xmlns="http://www.w3.org/2000/svg"><path d="M64 128C28.652 128 0 99.348 0 64S28.652 0 64 0s64 28.652 64 64-28.652 64-64 64zM58.948 18.008c-.432.06-2.1.372-3.704.616-8.952 1.512-17.22 5.896-24.072 12.776-6.88 6.852-11.08 14.784-12.84 24.228-.8 4.292-.8 12.684 0 16.976 1.76 9.44 5.96 17.372 12.84 24.224 6.852 6.88 14.78 11.08 24.224 12.84 4.292.8 12.684.8 16.976 0 9.44-1.76 17.376-5.96 24.228-12.84 6.88-6.852 11.08-14.78 12.84-24.224.8-4.292.8-12.684 0-16.976-1.76-9.44-5.96-17.376-12.84-24.228-6.7-6.728-14.26-10.832-23.424-12.68-2.84-.588-12.284-1.052-14.228-.712zm16.48 16.36c.368.152.492.612.492 1.848v1.668h-1.944c-2.468 0-4.412.924-5.216 2.468-.524.988-.556 2.192-.556 16.82 0 8.64-.12 15.892-.244 16.108-.648.988-5.4 1.268-7.532.432l-.864-.34V57.42c0-14.88-.032-16.08-.556-17.068-.8-1.544-2.748-2.468-5.216-2.468h-1.944v-1.668c0-1.048.156-1.728.4-1.82.56-.248 22.592-.248 23.18-.032zM57.712 47.232v3.8l-.896.52c-1.324.776-3.548 3.088-4.44 4.6a16.032 16.032 0 0 0-1.3 3.12l-.492 1.76h-3.548c-4.044 0-3.92.152-3.056-3.24 1.08-4.108 3.704-8.276 6.88-10.804 1.76-1.42 5.648-3.552 6.42-3.552.34 0 .432.804.432 3.8zM73.02 44.52a20.692 20.692 0 0 1 10.772 13.268c.864 3.396.988 3.24-3.056 3.24h-3.548l-.496-1.76a16.032 16.032 0 0 0-1.296-3.116c-.896-1.512-3.12-3.824-4.444-4.6l-.896-.52v-3.8c0-2.992.092-3.796.432-3.796.216 0 1.36.496 2.532 1.08zM50.616 63.932c0 1.448.956 4.412 1.944 5.956 5.276 8.36 17.372 8.36 22.652 0 .988-1.544 1.944-4.508 1.944-5.96V62.88h7.376l-.156 1.604c-.772 7.5-4.908 13.552-11.388 16.76-2.992 1.48-5.616 2.1-9.104 2.1-10.8 0-19.348-7.872-20.492-18.86l-.152-1.6h7.376v1.048zM68.36 86.244c.4 2.16 2.624 3.488 5.956 3.488h1.604v3.392H51.848V89.82l2.252-.152c1.452-.092 2.624-.368 3.272-.74.96-.556 2.192-2.408 2.192-3.272 0-.308.988-.4 4.288-.4h4.32l.188.988z"/></svg>