<svg width="64" height="64" viewBox="0 0 128 128" xmlns="http://www.w3.org/2000/svg"><path d="M64 128C28.652 128 0 99.348 0 64S28.652 0 64 0s64 28.652 64 64-28.652 64-64 64zM42.288 46.188l-9.88 45.136a1.288 1.288 0 0 0 .62 1.452l30.292 18.98c.224.14.464.2.692.2a1.268 1.268 0 0 0 .696-.2L95 92.776a1.288 1.288 0 0 0 .616-1.452l-9.88-45.136a1.288 1.288 0 0 0-.232-.52L65.064 17.74a1.244 1.244 0 0 0-1.052-.528 1.244 1.244 0 0 0-1.048.528l-20.44 27.932a1.288 1.288 0 0 0-.236.52zm-5.58 37.468l7.068-32.28 4.04 12.684-11.108 19.596zm-.864 6.72l13.028-22.992 7.32 22.988H35.84zm2.26 2.56h18.904l4.712 14.796-23.616-14.8zm11.428-31.912L44.96 46.672l17.76-24.26v15.344L49.532 61.024zm14.48 45.476l-4.32-13.568h8.64l-4.32 13.568zm2.296 1.232l4.712-14.8h18.904l-23.616 14.8zm17.944-56.356l7.064 32.28L80.212 64.06l4.04-12.68zm-5.76 9.648L65.308 37.76V22.412l17.76 24.26-4.576 14.352zM92.18 90.372H71.84l7.32-22.988 13.024 22.988zM64.012 40.664l13.424 23.684-8.288 26.024H58.88l-8.288-26.024 13.42-23.684z"/></svg>