<svg width="64" height="64" viewBox="0 0 128 128" xmlns="http://www.w3.org/2000/svg"><path d="M64 128C28.652 128 0 99.348 0 64S28.652 0 64 0s64 28.652 64 64-28.652 64-64 64zM40.108 77.52l2.976-5.92a1.512 1.512 0 0 0-.08-1.448 1.524 1.524 0 0 0-1.256-.684H35.34l16.788-31.024 14.996 27.28c.264.46.76.764 1.296.764h6.752a1.384 1.384 0 0 0 1.26-.72 1.584 1.584 0 0 0 .04-1.492L53.384 22.764c-.532-.956-2.06-.956-2.592 0l-29.608 53.38a1.48 1.48 0 0 0 .04 1.488c.264.456.76.724 1.256.724h16.292a1.488 1.488 0 0 0 1.336-.84zm66.696-1.376L77.16 22.76a1.552 1.552 0 0 0-1.336-.764 1.56 1.56 0 0 0-1.296.8l-7.4 14.844a1.628 1.628 0 0 0 0 1.336l2.976 5.912c.496.992 2.136.992 2.668 0l3.168-6.332 16.752 30.908H61.06c-.8 0-1.488.648-1.488 1.488v5.912c0 .8.648 1.488 1.488 1.488h44.452a1.384 1.384 0 0 0 1.26-.724 1.4 1.4 0 0 0 .04-1.488zm-19.268 5.912a1.524 1.524 0 0 0-1.296-.76h-7.404a1.524 1.524 0 0 0-1.296.76 1.4 1.4 0 0 0 .04 1.488l3.088 5.152H47.32l15.032-25.944a1.432 1.432 0 0 0 .04-1.412l-2.976-5.916a1.4 1.4 0 0 0-1.3-.8 1.432 1.432 0 0 0-1.336.76l-11.828 20.72-11.864 19.268a1.48 1.48 0 0 0-.04 1.488 1.52 1.52 0 0 0 1.3.764H93.64a1.384 1.384 0 0 0 1.26-.724 1.48 1.48 0 0 0 0-1.488l-7.364-13.356z"/></svg>