<svg width="64" height="64" viewBox="0 0 128 128" xmlns="http://www.w3.org/2000/svg"><path d="M64 128C28.652 128 0 99.348 0 64S28.652 0 64 0s64 28.652 64 64-28.652 64-64 64zm2.88-87.688c12.372-2.424 13.06 5.884 13.06 5.884.688 9.348-7.22 9.696-7.22 9.696l-2.328.16c-3.64.108-6.688 2.8-7.272 6.416a7.688 7.688 0 0 0 1.652 6.108 7.564 7.564 0 0 0 5.656 2.76l2.292.132c16.504-1.04 21.32-14.54 21.32-14.54 6.876-16.96-6.536-27.348-6.536-27.348-10.02-7.868-21.56-5.972-29.44-3.024a40.688 40.688 0 0 0-17.112 12.288c-19.176 23.248-1.58 48.548-1.58 48.548 8.984 12.176 22.828 17.24 33.144 16.544a8.056 8.056 0 0 0 7.424-8.088 8.133 8.133 0 0 0-2.36-5.736 8.028 8.028 0 0 0-5.696-2.376h-1.032a17.44 17.44 0 0 1-4.452-.572c-20.984-5.544-18.432-26.08-18.432-26.08 2.404-18.348 18.908-20.772 18.908-20.772z"/></svg>