<svg width="64" height="64" viewBox="0 0 128 128" xmlns="http://www.w3.org/2000/svg"><path d="M64 128C28.652 128 0 99.348 0 64S28.652 0 64 0s64 28.652 64 64-28.652 64-64 64zm26.928-64L64 48.76 37.072 64 64 79.124l26.928-15.132zM64 84.188A15777.48 15777.48 0 0 0 36 68.38c8.316 12.992 18.64 29.04 28 43.616 9.36-14.572 19.684-30.624 28-43.616a15776.74 15776.74 0 0 0-28 15.808zm0-40.356L92 59.46 64 16 36 59.464l28-15.628zm26.84 20.072l-26.884 2.308V48.696l26.88 15.208zM63.956 84.056c7.92-4.48 18.148-10.256 27.952-15.776-8.304 12.968-18.608 28.984-27.952 43.528V84.056zm0-40.276V16l27.952 43.38-27.952-15.6zm0 22.432l26.88-2.308-26.88 15.1zm-.004 0l-26.884-2.308 26.884 15.1z"/></svg>