<svg width="64" height="64" viewBox="0 0 128 128" xmlns="http://www.w3.org/2000/svg"><path d="M64 128C28.652 128 0 99.348 0 64S28.652 0 64 0s64 28.652 64 64-28.652 64-64 64zm15.516-74.124l7.304 5.528 4.616 3.488-5.152 2.632-10.36 5.288 3.552 2.456 4.972 3.436-5.368 2.768-32.952 16.984A36.928 36.928 0 0 0 64 101.044c20.48 0 37.08-16.596 37.08-37.064a36.9 36.9 0 0 0-8.608-23.752l-12.96 13.648zM48.484 76.012l-7.304-5.524-4.616-3.492 5.152-2.628 10.36-5.292-3.552-2.456-4.972-3.432 5.368-2.772 34.704-17.888A36.92 36.92 0 0 0 64 26.912c-20.48 0-37.08 16.596-37.08 37.068 0 9.516 3.588 18.192 9.484 24.756l12.08-12.72zM34.144 91.12a40.176 40.176 0 0 1-10.52-27.136c0-22.252 18.116-40.356 40.376-40.356a40.16 40.16 0 0 1 22.96 7.184l3.612-1.86A43.788 43.788 0 0 0 64 20c-24.26 0-44 19.728-44 43.98a43.8 43.8 0 0 0 11.644 29.768l2.5-2.632zm60.592-53.28a40.16 40.16 0 0 1 9.64 26.136c0 22.248-18.116 40.352-40.376 40.352a40.144 40.144 0 0 1-21.316-6.1l-3.696 1.908A43.764 43.764 0 0 0 64 107.956c24.26 0 44-19.728 44-43.976 0-11-4.056-21.06-10.752-28.776l-2.512 2.64zM43.368 67.6l10.54 7.972L30.1 100.644l47.316-24.392-8.548-5.904 15.764-8.052-10.54-7.972L97.9 29.252 50.584 53.644l8.548 5.904L43.368 67.6z"/></svg>