<svg width="64" height="64" viewBox="0 0 128 128" xmlns="http://www.w3.org/2000/svg"><path d="M64 128C28.652 128 0 99.348 0 64S28.652 0 64 0s64 28.652 64 64-28.652 64-64 64zm8.32-77.704l.024.028c-2.416-1.392-4.84-2.76-7.232-4.188-.704-.424-1.244-.5-1.988-.036-2.064 1.288-4.208 2.452-6.28 3.72-.568.348-.964.312-1.508-.012a336.144 336.144 0 0 0-6.788-3.904c-.3-.168-.8-.344-1.04-.212-2.612 1.444-5.196 2.948-7.88 4.496 2.424 1.42 4.716 2.804 7.056 4.108.796.44 1.12.92 1.116 1.88-.048 8.268-.028 16.54-.028 24.808v1.28c.464-.24.772-.388 1.064-.56 2.076-1.2 4.128-2.44 6.224-3.604.7-.388.968-.82.96-1.648-.036-8.232-.02-16.468-.02-24.704v-1.26c.356.176.6.284.836.416 2.112 1.208 4.204 2.456 6.344 3.616.688.372.892.8.888 1.568-.028 9.188-.016 18.38-.016 27.568v1.3c2.58-1.612 4.976-3.144 7.416-4.612.632-.38.828-.812.828-1.528a3119.992 3119.992 0 0 1-.016-17.812c.004-3.568.028-7.136.04-10.708zm.024.028l-.024-.028c2.404 1.4 4.796 2.832 7.228 4.184.664.364.832.792.832 1.5-.024 8.332-.016 16.668-.016 25.004V82.3c2.78-1.608 5.4-3.108 7.992-4.652.188-.112.26-.548.26-.832.016-8.652.02-17.308-.016-25.96 0-.348-.312-.84-.624-1.02a187.496 187.496 0 0 0-6.892-3.92 1.72 1.72 0 0 0-1.404-.008c-2.292 1.24-4.544 2.56-6.796 3.872-.212.12-.36.36-.54.544zM27.756 75.152a5.664 5.664 0 0 0 5.676-5.728 5.668 5.668 0 0 0-5.752-5.656A5.676 5.676 0 0 0 22 69.5c.024 3.16 2.576 5.668 5.76 5.652zm7.66 17.148a5.388 5.388 0 0 0 5.328-5.428c-.032-2.944-2.54-5.412-5.44-5.348a5.444 5.444 0 0 0-5.328 5.456 5.395 5.395 0 0 0 5.44 5.32zm-4.348-46.704a5.1 5.1 0 0 0-5.188 5.148 5.136 5.136 0 0 0 5.1 5.248 5.212 5.212 0 0 0 5.28-5.216c0-2.86-2.316-5.172-5.192-5.18zm70.088 19.624a4.86 4.86 0 0 0 0-9.72 4.86 4.86 0 0 0 0 9.72zM38.168 34.468a4.368 4.368 0 0 0 4.388 4.46 4.408 4.408 0 0 0 4.44-4.424 4.404 4.404 0 0 0-4.408-4.46 4.36 4.36 0 0 0-4.42 4.424zM98.544 83.64a4.352 4.352 0 0 0 4.384-4.46 4.432 4.432 0 0 0-4.444-4.428 4.428 4.428 0 0 0-4.38 4.492 4.348 4.348 0 0 0 4.44 4.396zm-34.6-56.22A3.304 3.304 0 0 0 60.672 24a3.336 3.336 0 0 0-3.364 3.228 3.292 3.292 0 0 0 3.228 3.448 3.272 3.272 0 0 0 3.408-3.26zm23.084 70.008c1.924.016 3.392-1.404 3.4-3.288a3.28 3.28 0 0 0-3.28-3.32 3.292 3.292 0 0 0-3.392 3.304 3.256 3.256 0 0 0 3.272 3.304zM69.908 104a3.116 3.116 0 0 0 3.212-3.108 3.2 3.2 0 0 0-3.164-3.184 3.128 3.128 0 0 0-3.18 3.14A3.068 3.068 0 0 0 69.908 104zM80.42 33.108a2.9 2.9 0 0 0 2.868-2.824 2.9 2.9 0 0 0-2.836-2.856 2.84 2.84 0 0 0-.032 5.68zM54.268 98.236a2.484 2.484 0 0 0-2.424-2.54 2.48 2.48 0 0 0-2.52 2.448 2.424 2.424 0 0 0 2.424 2.528 2.448 2.448 0 0 0 2.52-2.436zM96.92 42.32a2.108 2.108 0 0 0-2.184-2.084 2.116 2.116 0 0 0-2.08 2.2 2.156 2.156 0 0 0 2.192 2.1c1.2-.04 2.096-1 2.072-2.212z"/></svg>