<svg width="64" height="64" viewBox="0 0 128 128" xmlns="http://www.w3.org/2000/svg"><path d="M64 128C28.652 128 0 99.348 0 64S28.652 0 64 0s64 28.652 64 64-28.652 64-64 64zM32 76.016h7.976C44.388 92 54.932 100 71.6 100c6.34 0 11.804-.864 16.4-2.592v-9.492c-4.836 1.976-9.28 2.96-13.336 2.96-5.676 0-10.048-1.084-13.108-3.26-3.064-2.18-5.664-6.044-7.796-11.6h19.824l3.2-8.012H52.048a65.57 65.57 0 0 1-.18-5.14c0-1.664.076-2.992.224-3.98h28.384l3.244-8.012H54.032c2.852-9.168 9.264-13.752 19.236-13.752A35.68 35.68 0 0 1 88 40.224V30.128A56.008 56.008 0 0 0 72.412 28c-16.64 0-27.332 7.624-32.08 22.872h-5.084L32 58.884h6.76a51.8 51.8 0 0 0-.228 5c0 1.328.044 2.7.136 4.12H35.24z"/></svg>