<svg width="64" height="64" viewBox="0 0 128 128" xmlns="http://www.w3.org/2000/svg"><path d="M40.328 68.84a6.44 6.44 0 0 0 7.132-.04l4.456 4.456 4.652-4.648-6.332-6.328a6.488 6.488 0 0 0-6.372-5.336c-3.228 0-5.908 2.368-6.4 5.46l-9.944 9.952A37.4 37.4 0 0 1 26.576 64c0-20.64 16.788-37.424 37.424-37.424S101.424 43.36 101.424 64c0 3.056-.368 6.024-1.064 8.868L84.864 57.372a6.484 6.484 0 0 0-6.44-5.824 6.483 6.483 0 0 0-6.456 5.964L38.3 91.18l-4.648 4.652c1.592 1.52 3.3 2.92 5.108 4.188A43.756 43.756 0 0 0 64 108c24.26 0 44-19.74 44-44S88.26 20 64 20 20 39.74 20 64a43.828 43.828 0 0 0 4.936 20.232l4.92-4.92zm34.836-5.224a6.436 6.436 0 0 0 6.6-.048l16.18 16.184C91.984 92.54 79.012 101.424 64 101.424a37.204 37.204 0 0 1-20.508-6.136zM64 128C28.652 128 0 99.348 0 64S28.652 0 64 0s64 28.652 64 64-28.652 64-64 64zm14.54-72.848a2.912 2.912 0 1 1-.004 5.82 2.912 2.912 0 0 1 .004-5.82zM43.9 60.46a2.912 2.912 0 1 1-.008 5.824 2.912 2.912 0 0 1 .004-5.824z"/></svg>