<svg width="64" height="64" viewBox="0 0 128 128" xmlns="http://www.w3.org/2000/svg"><path d="M64 128C28.652 128 0 99.348 0 64S28.652 0 64 0s64 28.652 64 64-28.652 64-64 64zm14.8-75.78L76.684 48l-4.4 2-11.54 31.188 4.4-2 2.104 4.22.072-.188 11.472-31zm28.72.732l.256-.732-2.1-4.22-4.4 2-11.468 31.04-.268.728 4.4-2L96.048 84l11.472-31.048zM82.96 79.8l6.756-18.252-4.412 2-2.096-4.228-6.776 18.248 2.1 4.232 4.428-2zm-36.548-18h-20.18l3.44 3.2-3.44 3.252h20.16L49.816 65l-3.404-3.2zM23.44 75.332L20 78.56l3.44 3.22h32.62l-3.428-3.22 3.428-3.232H23.44zM33.444 48.26l-3.44 3.232 3.44 3.22h32.6l-3.416-3.224 3.42-3.228h-32.6z"/></svg>