<svg width="64" height="64" viewBox="0 0 128 128" xmlns="http://www.w3.org/2000/svg"><path d="M30 46.68v34.64l17.096-9.868a18.58 18.58 0 0 1-1.488-7.312c0-2.68.564-5.232 1.584-7.536zm2.28-3.304l16.916 9.768A18.352 18.352 0 0 1 62 45.72v-20.5zM98 81.32V46.68l-17.192 9.924a18.562 18.562 0 0 1 1.584 7.536c0 2.6-.528 5.068-1.488 7.312zm-1.836 3.56l-17.216-9.94A18.356 18.356 0 0 1 66 82.56v20.252zm-64.328 0L62 102.812V82.56a18.356 18.356 0 0 1-12.948-7.62zm63.88-41.504L66 25.22v20.504a18.352 18.352 0 0 1 12.804 7.42zM64 128C28.652 128 0 99.348 0 64S28.652 0 64 0s64 28.652 64 64-28.652 64-64 64z"/></svg>