<svg width="64" height="64" viewBox="0 0 128 128" xmlns="http://www.w3.org/2000/svg"><path d="M64 128C28.652 128 0 99.348 0 64S28.652 0 64 0s64 28.652 64 64-28.652 64-64 64zm40-69.132V42.932c-.172.064-.352.108-.508.196L84.868 53.58c-.32.176-.348.332-.2.64 3.124 6.536 3.112 13.06-.06 19.572-.16.328-.132.492.2.68 6.208 3.452 12.412 6.92 18.616 10.38.12.064.248.116.424.196.02-.4.048-.72.048-1.04l.016-10.028c.012-4.88.028-9.768.048-14.648 0-.156.024-.308.04-.464zM65.2 20h-.08c-.024.192-.068.38-.068.572 0 2.8 0 5.6.012 8.396.012 4.052.036 8.108.04 12.16 0 .396.144.54.52.54a5.2 5.2 0 0 1 .64.04c7.136.832 12.752 4.112 16.844 9.852.324.456.32.46.8.192l18.476-10.316c.12-.068.236-.148.404-.256-.188-.112-.32-.2-.452-.272L66.14 20.568c-.32-.18-.628-.38-.94-.568zm-2.48 88h.24c.016-.1.044-.2.044-.3l-.02-10.18c-.012-3.588-.028-7.176-.024-10.764 0-.4-.152-.504-.536-.52a18.028 18.028 0 0 1-2.028-.192c-6.556-1.064-11.78-4.204-15.6-9.508-.232-.32-.4-.396-.772-.188-6.12 3.428-12.24 6.844-18.36 10.264-.12.068-.224.152-.384.26.236.14.4.24.572.336l36.464 20.5c.144.08.268.192.404.292zM24 81.8v3.268c.18-.044.38-.052.536-.14a16508.04 16508.04 0 0 0 18.34-10.3c.52-.292.512-.288.252-.816-3.184-6.572-3.2-13.144 0-19.712.176-.368.128-.52-.228-.72-6.096-3.388-12.18-6.788-18.268-10.188-.12-.068-.248-.12-.424-.204-.012.18-.028.292-.028.4l-.02 3.848c-.02 5.948-.04 11.892-.052 17.84L24.08 76.38c0 1.684-.008 3.368-.016 5.052 0 .12-.04.248-.064.372zm53.892-3.72c-.012-.168-.024-.332-.028-.496-.072-2.04-.352-4.052-1.064-5.984-.772-2.096-1.888-3.972-3.76-5.34-.444-.32-.464-.316-.736.156a27.72 27.72 0 0 1-3.752 5.068c-5.72 6.056-13.328 7.12-20.24 4.74-.136-.044-.264-.104-.396-.16 1.436.108 2.844.192 4.252-.02 3.028-.456 5.48-1.792 7.04-4.448.3-.504.3-.508-.252-.752-4.224-1.868-7.116-4.928-8.652-9.184-1.236-3.412-1.44-6.932-1.064-10.504.036-.32.08-.644.124-.964.052-.32.112-.636.168-.952.096.116.12.228.152.336.4 1.384.744 2.784 1.212 4.14.536 1.548 1.352 2.96 2.52 4.156.584.6 1.26 1.072 2.068 1.348.62.212.64.208.96-.36a17.86 17.86 0 0 1 10.036-8.34c3.48-1.196 7.076-1.436 10.728-1.092.588.056 1.172.144 1.76.216l.08-.128-.672-.576c-5.972-5.096-12.796-6.732-20.488-4.68-10.24 2.736-17.104 13.1-14.832 23.816 2.432 11.448 14.308 18.656 26.016 15.776 10.552-2.592 17.348-12.38 15.816-22.808a19.976 19.976 0 0 0-5.348-10.96.944.944 0 0 0-.64-.284 16.44 16.44 0 0 0-5.036.984c-2.32.896-4.204 2.296-5.28 4.548-.476 1-.392.796.412 1.2 3.032 1.52 5.52 3.612 7.24 6.5 1.496 2.508 2.208 5.232 2.38 8.104a20.588 20.588 0 0 1-.724 6.94zm25.072 8.848c-.224-.132-.368-.224-.512-.304l-18.576-10.3c-.548-.304-.544-.304-.92.212-4.28 5.86-10.112 9.084-17.48 9.692-.328.028-.42.14-.42.452.008 6.92.004 13.836.008 20.756 0 .132.028.268.048.488l37.852-21zM62.956 20.144c-.272.144-.48.244-.68.356-12.148 6.74-24.3 13.48-36.444 20.224-.22.124-.416.288-.624.432.2.136.4.28.612.4l18.08 10.04c.508.28.5.276.84-.196 4.356-5.976 10.296-9.228 17.804-9.772.4-.028.44-.188.44-.508V20.64c0-.136-.016-.272-.028-.496z"/></svg>