<svg width="64" height="64" viewBox="0 0 128 128" xmlns="http://www.w3.org/2000/svg"><path d="M64 128C28.652 128 0 99.348 0 64S28.652 0 64 0s64 28.652 64 64-28.652 64-64 64zM32 97.016v1.064l.18.7c.64 2.396 2.3 3.888 4.7 4.616 2.832.86 5.728.688 8.6.188 4.208-.728 7.728-2.708 10.7-5.596 2.056-2 3.744-4.256 5.124-6.732 2.848-5.108 4.588-10.596 6.144-16.144.776-2.76 1.448-5.544 2.148-8.32.12-.476.332-.632.868-.632 1.972.012 3.948-.012 5.92-.088 1.152-.044 2.236-.36 3.012-1.276.372-.44.784-.856 1.128-1.316 1.06-1.412.88-3.212-.384-4.468-1.036-1.024-2.348-1.396-3.768-1.448-1.32-.048-2.64-.008-3.976-.008-.008-.112-.028-.184-.012-.248.32-1.304.66-2.608.968-3.916.072-.32.272-.316.524-.32 1.9-.032 3.8-.048 5.696-.112 1.42-.048 2.78-.244 3.94-1.196 1.424-1.16 1.724-2.36 1.432-3.884-.288-1.5-1.38-2.376-2.808-2.912-1.172-.44-2.396-.444-3.624-.424-.848.012-1.7 0-2.568 0 .02-.172.012-.28.044-.384 1-3.264 2.216-6.448 3.896-9.456.808-1.444 1.768-2.792 2.996-3.948.228-.216.536-.36.808-.536l.108.14c-.048.132-.1.264-.14.4-.536 1.792-.372 3.48.96 4.92 1.416 1.544 3.248 2.12 5.376 2.048 2.772-.092 5.832-2.38 6-5.98.064-1.268-.468-2.34-1.016-3.416a7.016 7.016 0 0 0-4.12-3.536c-3.104-1.064-6.292-.928-9.448-.368-4.76.844-8.732 3.148-12.104 6.4-2.56 2.468-4.624 5.312-6.384 8.34-.964 1.664-1.78 3.408-2.612 5.14-.24.504-.508.7-1.112.688-2.496-.04-4.996-.04-7.492-.016a6.908 6.908 0 0 0-1.752.22c-1.592.44-2.588 1.476-2.82 3.028-.228 1.536.16 2.92 1.572 3.896 1.136.784 2.452 1.092 3.808 1.148 1.728.068 3.46.016 5.212.016 0 .136.02.228 0 .308-.368 1.384-.732 2.772-1.124 4.148-.036.124-.272.28-.416.28-1.544.024-3.088-.004-4.636.02-1.612.028-3.26-.076-4.828.2-2.24.384-3.416 1.908-3.376 3.892.04 2.268 1.672 3.744 4.068 3.928 1.76.136 3.536.084 5.304.112.52.008 1.036 0 1.6 0-.08.372-.132.688-.216.992-2.108 7.76-4.2 15.532-6.344 23.284-.396 1.428-.984 2.808-1.508 4.2-.08.212-.308.372-.468.552-.148-.184-.336-.352-.432-.56a4.344 4.344 0 0 0-1.568-1.828c-2.132-1.448-4.48-1.704-6.94-1.028-2.424.668-4.048 2.14-4.668 4.528l-.172.7z"/></svg>