<svg width="64" height="64" viewBox="0 0 128 128" xmlns="http://www.w3.org/2000/svg"><path d="M32.048 40.02l.088-.092.252-.336.256-.34c-.22.264-.416.516-.6.768zm-.288.332c-.212.312-.408.62-.64.932a3 3 0 0 0-.06.06 11.64 11.64 0 0 1 .7-.992zm.288-.332c-.34.36-.676.84-.988 1.324a3.092 3.092 0 0 1-.004.008 28.68 28.68 0 0 0-.412.668zm-1.776 2.62c-.172.34-.508 1.016-.848 1.356a3.688 3.688 0 0 1 .848-1.356c-.34.508-.68.848-.848 1.356-.168.34-.34.68-.34 1.016.508-.848 1.188-1.692 1.696-2.54.376-1.004.752-1.728 1.268-2.452zm5.088-6.348c.452-.488.984-.916 1.52-1.448a13.4 13.4 0 0 1 1.016-1.12 24.144 24.144 0 0 0-.68.612c.4-.4.564-.56.912-.84 2.312-2.212 6.008-4.592 9.936-6.28 1.004-.416 1.96-.76 2.852-1.032.776-.308 1.56-.544 2.336-.736-14.88 7.856-14.556 7.608-14 7.196-.68.508-.68.508-2.036 1.692-.752.756-1.508 1.372-2.02 2.096l-.352.28a11.4 11.4 0 0 0-1.188 1.86c0 .172-.168.508-.168.68a8.64 8.64 0 0 1 .668-.736 5.56 5.56 0 0 0-.5.564c-.168.172-.168.34-.168.512-.168.676 0 1.016.168 1.52l.068-.08c1.288 1.596 5.972 1.224 11.8-1.272 2.032-.68 3.896-1.696 5.592-2.712.336-.34.168-.848 0-1.016-.172-.168-.848-1.016-1.36-.848-1.352.848-2.88 1.524-4.404 2.2-4.632 1.988-8.296 2.36-9.416 1.112l.092-.092c-.336-.34-.336-.848-.168-1.356l-.468.376.468-.376c.168-.68.508-1.356 1.016-2.032-.504.376-1.008.852-1.516 1.28zm-9.736 38.056l.016.052c-.008.2-.004.396.008.584a3.808 3.808 0 0 1-.024-.64l-.104-.352c-.336-.512-.508-1.02-.68-1.528.3.888.596 2.164.892 3.152 1.208 6 13.86 5.676 30.64-1.624 19.32-8.136 36.776-21.864 39.148-30.84.508-2.04.34-3.56-.68-4.748-.844-.848-1.692-1.864-2.54-2.712 1.188 1.188 1.528 2.712 1.02 4.916-2.376 8.812-19.492 22.368-38.308 30.332-14.744 6.268-26.272 7.288-29.32 3.052.168 1.184.508 2.2.848 3.216a4.304 4.304 0 0 1-.892-2.78c.296 1 .592 1.892.892 2.78a2.732 2.732 0 0 1-.68-1.184 14.292 14.292 0 0 1-.128-.408zm-.78-4.72c2.852 4.084 13.94 3.272 28.304-2.924 18.136-7.628 34.748-20.676 36.948-29.148.512-2.2 0-3.896-1.356-5.08l-1.692-1.188-1.36-.848c.68.508 2.04 1.356 1.868 3.728-.508 13.216-51.528 44.4-62.88 32.364 0 .512 0 1.06.02 1.612.02-.552-.024-1.1-.024-1.612-.336-.676-.676-1.352-.676-2.372 0 .744.092 1.76.14 2.648-.028.34-.016.68.032 1.004v-.092c0-.264-.012-.56-.032-.876-.024.36-.012.696.032 1.02.016.78.196 1.412.676 1.888v-.12zm-.084-12.92c.08-.512.168-1.02.252-1.528v.34l-.34 1.356-.336 2.372c0-.148.032-.292.068-.44l-.068.44a3.932 3.932 0 0 0 .52 2.612c0 .036-.008.068-.012.1a3.88 3.88 0 0 1-.68-2.88c-.168 2.032.508 3.388 2.204 4.236.34.168.508-.512.68-1.02 0 0 .336-1.692-.172-2.372a4.108 4.108 0 0 1-1.368-.976l.012-.04c-.68-.68-.848-1.864-.508-3.22l-.252 1.016zM41.376 31.1l-.26.188-.072.036c-.52.348-1.016.704-1.496 1.064l.172-.148c.3-.208.68-.4 1.564-.952.508-.508.508-.508 1.696-1.188.508-.34.508-.34 1.692-1.016.68-.34.68-.34 1.868-1.016.68-.34.68-.34 2.032-.848a28.76 28.76 0 0 1 .708-.348 24.004 24.004 0 0 1-.88.348c-.676.168-.676.168-2.032.848-.68.336-.68.336-1.864 1.016-.508.34-.508.34-1.696 1.016-.468.312-.504.336-1.432 1a44.918 44.918 0 0 1 7.704-4.048c.44-.248.88-.464 1.32-.656zm8.312-4.4c.308-.124.692-.252 1.428-.496.224-.092.388-.16.544-.216.68-.208.956-.292 1.28-.416a22.6 22.6 0 0 0-1.104.352c3.976-1.036 6.416-.436 5.888 1.804-.168.68-.68 1.524-1.524 2.54.34.34 2.2.68 3.052.34 1.016-1.016 1.692-2.032 1.864-3.048.68-2.88-2.544-3.56-7.628-2.204l-.24.092zm-22.44 25.844l-.708 2.128c2.2 3.22 10.68 2.372 21.692-2.2C62.132 46.536 74.844 36.54 76.54 30.1c.68-2.372-.172-3.896-2.376-4.744-.336 0-.844-.168-1.524-.34-1.016-.34-1.016-.34-1.356-.168 1.864.68 2.544 2.032 2.036 4.236-1.528 5.76-13.224 14.912-25.936 20.504-9.9 4.196-17.644 4.9-19.768 2.116l.108-.252a3.72 3.72 0 0 1-.34-3.052 20.668 20.668 0 0 0-1.184 2.88c-.172.34-.172.512-.172.848-.168 1.02 0 1.868.512 2.544a9.36 9.36 0 0 1 .708-2.128zm2.172-4.988c-.508-.68-.508-1.188-.508-2.036 0 .848.168 1.528.508 2.036zm23.98 53.828a3.284 3.284 0 0 0 .008 0c4.468-.156 10.608-1.66 17.708-4.688 15.76-6.776 30.168-18.132 32.2-25.416.172-.172.172-.34.172-.508 0-.848.168-2.036.34-3.052l.168-.508C102.264 79.472 70.944 98.236 53.088 100c-3.124.308-5.84.096-7.904-.76.844.508 2.2 1.016 3.22 1.524 1.272.48 2.96.688 4.996.62zm1.984-6.968c-8.448 2.364-14.76 2.416-17.488.08.844.68 2.032 1.52 2.88 2.2 2.368 1.616 6.924 1.796 12.932.536a4.284 4.284 0 0 0-.052.144l.076-.148c3.44-.72 7.36-1.916 11.62-3.58 1.016-.508 1.016-1.188.848-1.36 0 0-.68-1.184-2.544-.676-2.924 1.148-5.692 2.08-8.264 2.8l.3-.424-.308.428zM64 128C28.652 128 0 99.348 0 64S28.652 0 64 0s64 28.652 64 64-28.652 64-64 64zM34.168 90.768c.172 0 .34.168.34.336-.68-.848-1.696-2.032-2.372-2.88.508.848 1.356 1.696 2.032 2.544zm26.952-66.6h-.68c3.9-.336 6.104.848 5.424 3.56-.848 2.88-4.744 6.78-10 10.336 0 0-.168 0-.168.172-.34.68.848 2.2 2.032 1.692 5.932-4.064 10.508-8.64 11.36-11.86C69.76 25.356 68.064 24 64.504 24c-1.016 0-2.372.168-3.388.168zm20.336 3.9c-1.016-.508-2.372-1.016-3.388-1.528 2.2.848 3.22 2.544 2.544 5.084-1.868 7.12-15.936 18.304-31.36 24.912-2.88 1.188-5.592 2.2-8.132 2.88-.172.172-.34.172-.508.508-.68 1.016-.512 3.052 1.016 2.88 2.712-.844 5.76-1.864 8.812-3.216 16.272-6.948 31.188-18.64 33.22-26.268.68-2.54-.168-4.24-2.2-5.252zm17.628 16.776l-1.356-2.372c.508.68.68 1.356.68 2.372.168.848 1.184 2.88 1.692 3.048v-.168c0-.68 0-.68-.508-2.032l-.508-.848zm3.56 8.98c-.168-1.016-.68-2.372-1.188-3.728.34 1.016.34 2.2 0 3.56-2.032 7.624-15.08 18.808-30.68 26.944a1.736 1.736 0 0 0-.84 1.016c-.344 1.184.676 2.372 2.368 1.696 15.424-7.968 28.136-18.98 30.172-26.44.336-1.184.336-2.2.168-3.048zm1.188 7.12l-.34-2.204c.168.848 0 1.692-.168 2.54-1.188 4.744-6.952 10.848-14.92 16.776a3.088 3.088 0 0 0-.844 1.36c-.172.844.508 2.032 1.696 1.184 7.624-5.76 13.22-11.692 14.404-16.268.172-.848.172-1.36.172-2.036V60.94zM33.66 41.112c-.168-.508-.336-.848-.168-1.524-.168.676 0 1.016.168 1.52zm9.492 4.744s0-1.524-.68-1.356c-5.76 1.864-10 1.864-11.352.168-.68 1.02-1.188 1.864-1.696 2.88 1.356 1.528 4.24 1.696 6.272 1.36 7.288-1.02 7.456-2.204 7.456-3.052zm-16.608 8.812c-.512-.68-.68-1.524-.512-2.544-.168 1.02 0 1.868.512 2.544zM90.44 60.6c-.168-.508-.68-1.528-2.032-.848-7.46 6.608-18.476 13.56-30 18.472-15.256 6.608-27.12 7.456-30.34 3.22.34.508.508 1.184.848 1.692.168.172.168.34.34.508.168.34.336.508.508.848-.68-1.016-.68-1.864-.68-2.032-.168.168-.34-.172-.168.336C30.1 88.9 42.984 88.388 60.1 81.276c11.528-4.92 22.544-11.696 30-18.476.34-.508.68-1.184.34-2.2zM47.56 91.608c-.172-.336-1.016-1.356-2.204-1.356-6.612 1.02-11.188.34-13.052-2.032.68.848 1.696 2.032 2.372 2.88 2.036 2.204 6.44 2.712 12.544 1.696.68-.168.508-.848.34-1.188zm53.388-12.368C95.016 91.44 67.56 105 56.712 103.304a24.056 24.056 0 0 1-3.728-.848c3.896 1.184 11.184-.172 20-3.9 14.24-6.1 27.288-16.268 29.32-22.876-.336 1.016-.848 2.544-1.356 3.56zm-8.812 12.2c.168-.168.168-.34.168-.34-.168 0-.168-.168-.168-.168-.168 0-.168.168-.34.168-4.24 3.56-10 6.948-15.932 9.492-5.932 2.372-10.848 3.56-14.24 3.388h4.24c2.88-.168 6.78-1.188 11.188-3.052 5.252-2.2 10.336-5.252 14.068-8.3.68-.508 1.016-1.02 1.016-1.188zM26.032 51.452c.34-1.016.68-2.032 1.188-2.88.168-.508.34-.848.34-1.36-.34 1.02-1.016 2.544-1.36 3.56 0 .172-.168.512-.168.68z"/></svg>