<svg width="64" height="64" viewBox="0 0 128 128" xmlns="http://www.w3.org/2000/svg"><path d="M64 128C28.652 128 0 99.348 0 64S28.652 0 64 0s64 28.652 64 64-28.652 64-64 64zm-.272-76.368L46.86 49.16l-.948 6.46 16.48 2.412a124.76 124.76 0 0 0-.496 2.86l-.704 4.252-16.384-2.4-.888 6.468 16.144 2.368c-3.636 17.976-6.512 25.76-10.14 29.8-.364.424-1.512 1.056-2.5 1.172-1.364.16-2.48-.524-3.324-2.52a6.744 6.744 0 0 0-2.164-2.888 4.98 4.98 0 0 0-3.56-.968c-.82-.112-2.348 1.004-2.752 2.404-.544 1.88.696 3.88 3.788 5.82 6.06 3.8 11.88 2.628 17.068-1.988 3.116-2.776 5.952-6.964 6.656-8.72 1.82-3.52 4.4-12.424 6.352-20.736l16.932 2.48.948-6.46-16.548-2.424a126.5 126.5 0 0 0 .504-2.856l.7-4.256 16.384 2.4.888-6.468-16.144-2.36c2.44-12.048 4.192-17.86 6.096-21.032.548-.904 1.08-1.592 1.936-2.54l.94-1.04c.36-.424 1.512-1.056 2.5-1.172 1.36-.16 2.48.528 3.32 2.52.544 1.28 1.28 2.236 2.168 2.888 1.152.848 2.36 1.084 3.56.968.82.112 2.348-1.004 2.752-2.4.544-1.884-.696-3.88-3.788-5.82l-.532.844.532-.844c-6.06-3.804-11.88-2.632-17.068 1.988-3.12 2.772-5.956 6.968-6.656 8.72-1.9 3.668-3.696 9.288-5.184 15.54z"/></svg>