<svg width="64" height="64" viewBox="0 0 128 128" xmlns="http://www.w3.org/2000/svg"><path d="M64.776 49.304h-.012.012L62.04 61.2c1.704.376 3.48 1 5.232.508a3.6 3.6 0 0 0 2.372-2.416c.328-1.052.492-2.132.78-3.18l2.896.736c.128.02-.02.096.06.012l.072-.056c1.2-1.288 2.568-2.7 3.648-4.064a21.048 21.048 0 0 0-5.612-1.876l-6.536-1.52.016-.036h-.184zM64 128C28.652 128 0 99.348 0 64S28.652 0 64 0s64 28.652 64 64-28.652 64-64 64zm17.224-80.688c.196-.316.372-.736.552-1.096A48.152 48.152 0 0 0 88 22.576c-5.74-3.312-11.8-5.4-18.392-6.124 2.44 10.648 5.896 20.96 10.892 30.676l.724.184zm-32.916-1.82l-.176-.04-1.4-.32v-.024h-.02l1.26-5.492c.932.2 1.864.42 2.792.648h.02a130.092 130.092 0 0 0 7.904-23.812 47.908 47.908 0 0 0-23.648 9.42v.016A48.06 48.06 0 0 0 16 63.192v.96a48.676 48.676 0 0 0 16.576 5.864l.028-.028a132.432 132.432 0 0 0 15.72-24.492h-.012zm30.056 8.1l-.224-.152c-1.08 1.368-2.132 2.488-3.332 3.748l.34.064.44.148-4.328 18.752-5.192-1.2c.272-1.532.948-3.06.632-4.652a3.752 3.752 0 0 0-2.236-2.548c-1.168-.556-2.472-.752-3.72-1.052l-2.416 10.488c-.148.708-.148 1.5.3 2.1.36.528.976.8 1.576.948l3.856.9-1.156 4.62c13.52-.132 27.28 1.976 40.2 5.952 2.112-2.856 3-3.992 4.428-7.24-7.892-7.32-14.392-16.632-20.252-25.652l-1.44 6.252-5.804-1.348c.492-2.34.96-4.832.268-7.2-.5-1.572-.892-2.364-1.94-2.928zM32.72 71.22c-3.86 4.756-7.896 9.38-12.388 13.544 1.408 3.256 2.308 3.944 4.408 6.796a142.16 142.16 0 0 1 21.796-4.756c.376-1.636.464-2.084.824-3.736l-8.864-2.052c.42-1.816.856-3.648 1.26-5.48 1.336.26 2.656.62 3.976.888.648.16 1.332.04 1.888-.328.556-.408.84-1.08.992-1.728l.852-3.268a7.56 7.56 0 0 0-.852.076c-3.676.52-7.26.448-10.952.12-1.032-.108-1.808-.024-2.816-.248l-.12.172zM53.3 84.436l-.36 1.8 3.796-.272.12-.704-3.556-.824zm-6.556-14.312c.28-.04.56-.064.84-.076v-.016l4.572-19.8c.18-.9.54-1.8.256-2.7a2.22 2.22 0 0 0-1.392-1.388l-.148-.048c-.76-.204-.176-.06-.948-.24-.084-.02-.468.108-.556.092A129.688 129.688 0 0 1 33.8 70.14c1.008.208.84.148 1.844.252 3.7.34 7.424.248 11.1-.268zm10.172-28.456v.016c.704-2.972 1.364-5.956 2.084-8.924l5.912 1.36-2.056 8.928 3.54.824c.352-1.484.7-2.972 1.04-4.46l.516-2.232.516-2.232 5.908 1.352c-.08.4-.168.8-.256 1.2-.572 2.584-1.208 5.148-1.78 7.744l6.808 1.584c-5-9.72-8.308-19.88-10.744-30.528-1.528-.18-2.172-.12-3.72-.148h-.944c-1.696 0-2.324-.044-3.988.148-1.868 8.172-4.08 16.744-7.48 24.408l4.644.96zm50.94 2.956C103.72 35.368 97.82 28.4 89.048 23.32c-.008 8.288-2 15.684-6.072 22.904a16.348 16.348 0 0 0-.676 1.388c2.744.6 4.456.968 7.2 1.584v.028l-1.768 7.948c5.848 9.016 12.372 18.944 20.248 26.264A47.85 47.85 0 0 0 112 65.288v-2.252a48.212 48.212 0 0 0-4.14-18.416zM16 65.2v.692c.092 6.396 1.46 11.656 4.02 17.52a115.068 115.068 0 0 0 11.804-12.66C26.004 69.824 21.1 68.16 16 65.2zm46.74 21.6l-2.012 8.76h-.012l-5.94-1.36 1.652-7.188-3.78.268-1.4 6.092h-.008l-5.944-1.364c.3-1.352.6-2.672.932-4.004-7.076.96-14.06 2.5-20.88 4.604a48.06 48.06 0 0 0 37.828 19.544h1.964a48.18 48.18 0 0 0 37.516-19.544A131.272 131.272 0 0 0 62.74 86.8z"/></svg>