<svg width="64" height="64" viewBox="0 0 128 128" xmlns="http://www.w3.org/2000/svg"><path d="M64 128C28.652 128 0 99.348 0 64S28.652 0 64 0s64 28.652 64 64-28.652 64-64 64zm24.8-99.44c-.04.404-.06.74-.104 1.068-.204 1.476-.48 2.932-1.056 4.312-.62 1.496-1.484 2.8-2.648 3.888a12.12 12.12 0 0 1-4.708 2.688c-1.92.608-3.904.88-5.892 1.108-2.44.276-4.884.524-7.32.82a51.982 51.982 0 0 0-6.44 1.2c-2.632.66-5.192 1.54-7.592 2.88-2.38 1.32-4.456 3.028-6.064 5.32-1.216 1.732-2.004 3.664-2.588 5.72a18.852 18.852 0 0 0 .1 10.872c.708 2.308 1.776 4.424 3.072 6.424 1.2 1.86 2.568 3.58 4.048 5.208 2.448 2.688 5.128 5.1 7.9 7.408 1.66 1.38 3.32 2.764 4.82 4.344 1.08 1.136 2.052 2.36 2.776 3.784 1.064 2.096 1.464 4.32 1.212 6.688-.14 1.32-.468 2.592-.904 3.832-.2.576-.44 1.14-.66 1.712-.02.048-.012.104-.016.16.048 0 .1.008.148 0 .252-.016.504-.028.752-.06.712-.08 1.424-.148 2.132-.26.968-.152 1.932-.336 2.896-.516.684-.124.692-.136.864-.828.42-1.696.592-3.416.456-5.168a17.328 17.328 0 0 0-.6-3.428 22.392 22.392 0 0 0-2.576-5.752 32.16 32.16 0 0 0-2.168-2.988c-1.448-1.82-3.144-3.376-4.84-4.932-1.32-1.216-2.676-2.392-4.004-3.6-1.92-1.748-3.744-3.596-5.344-5.676-2.616-3.4-4.132-7.232-4.168-11.66-.02-2.312.436-4.492 1.56-6.492 1.688-3 4.172-5.024 7.16-6.412 2.708-1.26 5.572-1.924 8.488-2.348 1.98-.288 3.968-.508 5.952-.78 1.508-.208 3.024-.412 4.52-.688 2.204-.408 4.364-.984 6.392-2.012.636-.32 1.272-.64 1.892-1a17.67 17.67 0 0 0 3.884-3.02 15.645 15.645 0 0 0 2.232-2.94 15.13 15.13 0 0 0 1.632-3.928c.016-.064-.024-.176-.072-.224-.588-.612-1.168-1.24-1.784-1.82a84.684 84.684 0 0 0-2.356-2.12c-.3-.268-.624-.5-.98-.784zM60.56 79.864c.056.064.08.1.112.124 1.7 1.528 3.4 3.06 5.108 4.58.064.06.2.084.28.06 1.064-.296 2.128-.584 3.18-.92a27.48 27.48 0 0 0 6.94-3.296c1.844-1.236 3.48-2.72 4.808-4.556 2.14-2.952 3.224-6.332 3.608-9.984a15.348 15.348 0 0 0-.148-3.9 19.14 19.14 0 0 0-1.632-5.268 25.65 25.65 0 0 0-3.24-5.216c-.984-1.228-2.032-2.396-3.056-3.588-.056-.06-.152-.136-.22-.128-.576.076-1.152.172-1.728.26l-3.288.5-1.52.232c.056.08.088.12.128.16l.86.84c1.588 1.584 3.068 3.268 4.32 5.156 1.652 2.488 2.688 5.232 2.932 8.264a12.44 12.44 0 0 1-.4 4.328c-.612 2.224-1.788 4.1-3.232 5.8a16.4 16.4 0 0 1-5.08 4.004c-1.968 1.008-4.068 1.576-6.2 2.048-.824.18-1.656.328-2.528.5zm8.464-38.792c-.092-.092-.14-.144-.2-.192a61.712 61.712 0 0 1-4.512-4.032 18.264 18.264 0 0 1-3.46-4.68 11.472 11.472 0 0 1-1.084-6.88c.248-1.748.824-3.384 1.564-4.96L61.48 20l-.72.072c-.892.104-1.784.176-2.668.32-1.068.172-2.128.412-3.2.6-.188.028-.236.112-.28.272a15.872 15.872 0 0 0-.392 7.44c.516 2.9 1.732 5.48 3.296 7.896.46.704.984 1.368 1.508 2.028a30.12 30.12 0 0 0 3.124 3.34c.084.08.24.12.352.112.348-.036.692-.1 1.036-.156l2.92-.456 2.572-.396zM56.328 86.224c-.1-.104-.16-.16-.22-.216a3581.48 3581.48 0 0 0-2.564-2.36c-.772-.7-1.544-1.404-2.312-2.112-.124-.12-.24-.164-.416-.12-.28.08-.576.112-.864.172-2.48.536-4.9 1.252-7.164 2.488a20.58 20.58 0 0 0-4.44 3.136 15.536 15.536 0 0 0-4.316 7.164c-.068.252-.032.436.16.616.556.536 1.088 1.1 1.652 1.628.78.728 1.58 1.432 2.376 2.144.192.168.4.312.632.488.032-.128.056-.2.068-.272.3-1.6.772-3.14 1.392-4.636 1.7-4.092 4.824-6.22 8.836-7.108 1.096-.244 2.208-.412 3.32-.584.716-.112 1.44-.172 2.16-.248.544-.06 1.092-.12 1.7-.18zm17.308-17.512c.704-.024 1.24-.604 1.352-1.492A1.372 1.372 0 0 0 74 65.736c-1.4-.44-2.808-.872-4.212-1.308l-10.56-3.296c-1.496-.464-2.988-.944-4.484-1.4a1.384 1.384 0 0 0-.648-.06c-.788.156-1.068.744-1.14 1.58-.052.568.296 1.124.976 1.336 1.768.556 3.536 1.104 5.308 1.656l13.804 4.32c.196.056.396.1.592.148zm-29.16 25.984c-.12.02-.224.024-.32.052-.704.18-1 .784-1.06 1.58-.044.6.364 1.12.98 1.316l3.308 1.028c5.296 1.656 10.592 3.312 15.892 4.96.2.064.42.108.624.088.684-.06 1.14-.64 1.216-1.512.06-.648-.332-1.2-.992-1.408l-19.22-6c-.148-.044-.3-.072-.424-.104zm40.52-63.056c0-.812-.36-1.284-1-1.48-6.42-2.008-12.84-4.016-19.264-6.016a1.328 1.328 0 0 0-.528-.072c-.944.108-1.276 1.072-1.2 1.792.06.64.48.972 1.044 1.148a4102.74 4102.74 0 0 1 9.952 3.1l9.268 2.896c.564.176 1.14-.012 1.416-.516.172-.308.252-.676.312-.852zm-27.66 25.852c0 .64.344 1.12.972 1.316l2.872.896 9.528 2.976c.376.12.748.268 1.128.312.744.084 1.292-.476 1.44-1.4a1.36 1.36 0 0 0-.976-1.536l-7.328-2.284c-1.94-.608-3.88-1.22-5.824-1.812a1.624 1.624 0 0 0-.764-.048c-.648.128-1.004.752-1.048 1.58zm-1.328 7.56c-.2.092-.468.148-.664.304-.52.412-.684 1.008-.584 1.652.088.58.488.896 1.016 1.06 2.848.88 5.696 1.772 8.544 2.66 1.536.48 3.068.96 4.604 1.432.2.06.424.088.624.052.64-.108.936-.584 1.084-1.204.192-.784-.168-1.476-.904-1.712l-1.008-.308c-4.024-1.26-8.052-2.52-12.08-3.772-.184-.06-.376-.096-.632-.16zM44.876 101.8c0 .588.352 1.088.9 1.272.368.12.736.228 1.1.344l12.428 3.88a.72.72 0 0 0 .36-.008c.632-.144.956-.592 1.108-1.228.18-.76-.168-1.46-.88-1.684a7039.36 7039.36 0 0 0-13.296-4.148 1.28 1.28 0 0 0-.508-.052c-.78.084-1.156.76-1.212 1.624zm3.988-10.88c-.132.02-.224.02-.312.04-.688.184-1.008.72-1.072 1.544-.052.632.32 1.14.936 1.34.84.272 1.688.528 2.532.792 3.54 1.104 7.08 2.216 10.616 3.316a1.664 1.664 0 0 0 .672.08c.672-.08 1.112-.668 1.18-1.524a1.344 1.344 0 0 0-.992-1.384A26535.6 26535.6 0 0 0 49.3 91.028c-.16-.048-.32-.08-.44-.108zm30.488-54.248c.212-.072.42-.112.604-.208.508-.264.656-.772.724-1.3a1.32 1.32 0 0 0-.904-1.44c-.78-.24-1.56-.492-2.336-.732-3.64-1.136-7.284-2.276-10.932-3.4a1.44 1.44 0 0 0-.72-.024c-.536.124-.824.524-.964 1.08-.224.876.108 1.532.928 1.792l12.328 3.856c.42.132.84.248 1.272.376zm3.932-10.8c0-.72-.36-1.204-.98-1.4l-5.7-1.776c-2.484-.776-4.968-1.56-7.456-2.324a1.528 1.528 0 0 0-.744-.048c-.564.12-.84.56-.98 1.124-.212.828.12 1.5.9 1.744l3.692 1.16 9.46 2.956a1.288 1.288 0 0 0 .98-.028c.608-.296.752-.876.828-1.408z"/></svg>