<svg width="64" height="64" viewBox="0 0 128 128" xmlns="http://www.w3.org/2000/svg"><path d="M64 128C28.652 128 0 99.348 0 64S28.652 0 64 0s64 28.652 64 64-28.652 64-64 64zm7.572-59.48C78.764 52.068 74.78 37.56 63.916 24c-10.944 13.668-14.888 28.28-7.472 44.788-8.96-9.404-20.008-11.612-32.444-9.596 2.12 8.088 13 19.356 19.448 20.136-6.132-3.868-11.096-8.456-12.536-15.856.784-.16 1.34-.296 1.9-.38 4.732-.708 9.04.62 13.148 2.74 5.024 2.588 9.3 6.156 13.324 10.032.552.532 1.08 1.088 1.792 1.808-9.672.36-16.84 4.152-21.06 12.748 5.08 1.68 12.88.536 15.584-2.248-3.764 1.4-7.42 2.264-11.168.368 1.616-4.32 12.056-9.924 16.9-9.144-2.188 3.94-3.464 8.06-2.904 12.6.556 4.52 2.588 8.344 5.492 12.004 6.24-7.864 7.524-15.988 2.416-24.936 3.784.776 7.204 1.56 10.268 3.236 1.976 1.08 3.768 2.528 5.52 3.96.64.52.92 1.456 1.392 2.26-3.876 1.84-7.412 1.04-10.96-.044 4.708 3.024 9.78 3.28 15.324 2.052-4.268-8.724-11.472-12.504-20.932-12.86.148-.276.188-.404.272-.492 4.828-4.82 9.972-9.252 16.296-12.136 3.76-1.712 7.688-2.592 11.876-1.92 1.144.184 1.584.536 1.24 1.78-1.072 3.94-3.228 7.22-6.264 9.928-1.82 1.624-3.832 3.04-6.04 4.772 10-3.84 15.66-11.192 19.672-20.392-12.448-1.992-23.432.108-32.428 9.312zM63.92 81.188c-4.58 5.228-4.692 12.4.052 17.176 4.484-4.32 4.488-12.372-.052-17.176zm.004-48.768c-10.82 12.512-10.412 27.304-.008 39.596 10.592-12.544 10.62-27.264.008-39.6z"/></svg>