<svg width="64" height="64" viewBox="0 0 128 128" xmlns="http://www.w3.org/2000/svg"><path d="M19.504 110h.892c3.36-12.64 8.18-26.532 13.56-40.656 4.932-12.868 10.536-23.572 16.476-32.456 3.584 0 7.28.228 11.092.456 4.708.344 9.64.912 14.68 1.596 15.468 2.16 23.76 5.692 27.796 9.908-3.7-13.096-17.036-24.256-43.372-24.144h-.56C71.836 11.72 83.94 6.484 92.908 10.128a3.484 3.484 0 0 1 1.12.568c-2.28-3.028-4.972-5.36-8.072-6.832C110.488 12.824 128 36.368 128 64c0 35.348-28.652 64-64 64a63.788 63.788 0 0 1-44.496-18zm-.112-.108A63.808 63.808 0 0 1 0 64c0-4.188.4-8.28 1.168-12.24 6.468-7.216 18.976-12.256 36.04-14.072-4.036 7.968-7.62 17.08-10.648 27.44-4.584 15.904-6.824 31.24-7.168 44.76zM1.54 49.988C7.928 21.38 33.468 0 64 0a64.07 64.07 0 0 1 17.228 2.344c-11.784-2.2-25.54 6.184-37.296 23.728-21.428 3.44-36.1 12.688-42.392 23.916zm69.512 15.94c-7.172 0-13 5.92-13 13.44 0 7.4 5.828 13.436 13 13.436s13-6.036 13-13.44c0-7.4-5.828-13.436-13-13.436z"/></svg>