<svg width="64" height="64" viewBox="0 0 128 128" xmlns="http://www.w3.org/2000/svg"><path d="M64 128C28.652 128 0 99.348 0 64S28.652 0 64 0s64 28.652 64 64-28.652 64-64 64zM98.412 24c-23.32 12.088-32.2 22.26-32.2 22.26l-1.38 9.62c-1.384 1.644-2.508-.272-2.508-.272l-.832-4.948-6.652 6.32c0 12.08-2.508 16.212-2.508 16.212-1.104 1.64-2.208.272-2.208.272l-.552-12.632-4.168 3.576.28 20.072c-3.892-.824-4.72-10.448-4.72-10.448-3.064 2.74-2.488 12.636-2.488 12.636l-6.928-8.8 4.164 10.168L26 82.816l7.504 7.432c-3.892 3.58-.556 6.32-.556 6.32a2.496 2.496 0 0 1 1.384-3.308c3.336-1.64 2.784 3.032 2.784 3.032l-5.548 6.588c-.828 1.368.552 1.092.552 1.092l6.652-7.136c3.892 4.948 8.608 3.852 8.608 3.852-5.824-2.464-5.824-8.256-5.824-8.256 4.996 7.984 13.328 5.224 13.328 5.224-9.44-1.64-9.712-7.432-9.712-7.432 20.804 4.128 26.08-1.64 26.08-1.64l-24.7-1.1c5.824-6.04 20.808-3.58 20.808-3.58l13.048-17.036 16.26-19.08a22.12 22.12 0 0 0 3.656-6.02C105 29.852 98.412 24 98.412 24zm-44.4 55.8S77.86 45.984 89.228 38.024c.024 0-12.2 20.616-35.216 41.78z"/></svg>