<svg width="64" height="64" viewBox="0 0 128 128" xmlns="http://www.w3.org/2000/svg"><path d="M64 128C28.652 128 0 99.348 0 64S28.652 0 64 0s64 28.652 64 64-28.652 64-64 64zm38.128-88h-25.98l-7.704 19.32H44.148v-9.948h24.296L72 40H35.208a1.72 1.72 0 0 0-1.728 1.708v17.608h-5.92L24 68.684h9.48v17.588c0 .952.784 1.728 1.752 1.728h17.804l3.556-9.364H44.148V68.68h20.148L56.592 88h11.852l8.296-19.32h25.52c.96 0 1.74-.768 1.74-1.716v-25.12A1.86 1.86 0 0 0 102.128 40zm-8.2 17.84c0 .816-.668 1.48-1.496 1.48H80.296l4.148-9.944h7.98a1.492 1.492 0 0 1 1.508 1.472z"/></svg>