<svg width="64" height="64" viewBox="0 0 128 128" xmlns="http://www.w3.org/2000/svg"><path d="M64 128C28.652 128 0 99.348 0 64S28.652 0 64 0s64 28.652 64 64-28.652 64-64 64zM24.976 64.128c0 2.408.224 4.816.664 7.184l-4.892.92a43.723 43.723 0 0 0 2.224 7.824l4.64-1.808a39.08 39.08 0 0 0 3.216 6.452L26.6 87.332a44.197 44.197 0 0 0 4.9 6.484l3.68-3.36a39.25 39.25 0 0 0 5.32 4.856l-3 3.98a44.025 44.025 0 0 0 6.9 4.288l2.22-4.464a38.832 38.832 0 0 0 6.712 2.6l-1.356 4.804c2.612.74 5.28 1.236 7.984 1.48l.452-4.968a39.6 39.6 0 0 0 7.2 0l.46 4.964a43.74 43.74 0 0 0 7.98-1.488l-1.36-4.8A38.792 38.792 0 0 0 81.4 99.1l2.224 4.464a43.992 43.992 0 0 0 6.896-4.292l-3.004-3.976a39.078 39.078 0 0 0 5.32-4.868l3.68 3.36a43.969 43.969 0 0 0 4.892-6.488l-4.228-2.628a39.084 39.084 0 0 0 3.212-6.456l4.64 1.8a43.79 43.79 0 0 0 2.216-7.828l-4.88-.908c.44-2.372.66-4.776.664-7.188v-.072l4.968-.008a44.42 44.42 0 0 0-.76-8.096l-4.892.92a38.972 38.972 0 0 0-1.98-6.936l4.64-1.808a43.968 43.968 0 0 0-3.64-7.28l-4.224 2.64a39.352 39.352 0 0 0-4.352-5.748l3.672-3.368a44.213 44.213 0 0 0-6.004-5.472l-3 3.98a39.108 39.108 0 0 0-6.12-3.792l2.212-4.468a43.636 43.636 0 0 0-7.58-2.928l-1.352 4.8a38.904 38.904 0 0 0-7.076-1.308l.448-4.968a44 44 0 0 0-8.112.012l.46 4.964a38.9 38.9 0 0 0-7.072 1.328l-1.368-4.8a43.64 43.64 0 0 0-7.568 2.956l2.228 4.46a39.12 39.12 0 0 0-6.112 3.808l-3.008-3.972a44.225 44.225 0 0 0-5.988 5.488l3.68 3.36a39.348 39.348 0 0 0-4.34 5.76l-4.232-2.628a43.96 43.96 0 0 0-3.616 7.288l4.64 1.8a38.972 38.972 0 0 0-1.956 6.936l-4.892-.904A44.432 44.432 0 0 0 20 64.092v.04l4.976-.004zm43.468 30.888l-.264-1.86a29.048 29.048 0 0 0 8-2.352l.78 1.704a30.886 30.886 0 0 1-8.52 2.504h.004zm26.72-30.928a31.176 31.176 0 0 1-1.252 8.8l-1.796-.528a29.46 29.46 0 0 0 1.18-8.268v-.052h1.872v.048zM90.2 47.16a31.12 31.12 0 0 1 3.7 8.08l-1.792.532a29.24 29.24 0 0 0-3.48-7.596L90.2 47.16zm-1.548 32.8l1.576 1.016a31.356 31.356 0 0 1-5.812 6.72l-1.224-1.416a29.48 29.48 0 0 0 5.46-6.32zM76.908 35.656a31.168 31.168 0 0 1 7.468 4.8l-1.228 1.42a29.3 29.3 0 0 0-7.016-4.516l.776-1.704zm-4.72 20.736h4.36l5.672 8.38v-8.38h4.444V71.56h-4.42l-5.656-8.336v8.336h-4.4V56.392zM64 32.852c1.468 0 2.94.104 4.396.312l-.264 1.856a29.62 29.62 0 0 0-8.34.008l-.264-1.856a31.48 31.48 0 0 1 4.472-.32zm-9.008 23.536h4.664v9.24c0 .828.232 1.472.688 1.936.46.464 1.096.696 1.904.696.808 0 1.448-.228 1.904-.684.456-.46.696-1.108.696-1.948v-9.24h4.664v9.024c0 .864-.144 1.72-.428 2.536a5.488 5.488 0 0 1-1.316 2.088 5.216 5.216 0 0 1-1.872 1.252c-.908.34-2 .508-3.272.508a20.552 20.552 0 0 1-2.408-.156 6.3 6.3 0 0 1-2.18-.612 5.456 5.456 0 0 1-1.604-1.308 4.836 4.836 0 0 1-1-1.744 9.1 9.1 0 0 1-.44-2.56v-9.028zm4.852 36.772l-.264 1.856a30.92 30.92 0 0 1-8.52-2.496l.78-1.708a29.016 29.016 0 0 0 8 2.348zm-8.832-57.476l.78 1.704a29.304 29.304 0 0 0-7.004 4.532l-1.228-1.416a31.172 31.172 0 0 1 7.452-4.82zm-9.664 20.704h11.528v3.264h-6.82v2.644h5.852v3.04h-5.852v6.22h-4.708V56.388zm3.48 29.908L43.6 87.712A31.352 31.352 0 0 1 37.784 81l1.572-1.016a29.48 29.48 0 0 0 5.468 6.312zm-7.072-39.068l1.576 1.016a29.24 29.24 0 0 0-3.46 7.6l-1.8-.528a31.12 31.12 0 0 1 3.68-8.088zM34.7 64.116c0 2.8.4 5.584 1.184 8.272l-1.796.528a31.336 31.336 0 0 1-1.26-8.8H34.7z"/></svg>