<svg width="64" height="64" viewBox="0 0 128 128" xmlns="http://www.w3.org/2000/svg"><path d="M64 128C28.652 128 0 99.348 0 64S28.652 0 64 0s64 28.652 64 64-28.652 64-64 64zm-13.2-20.4a42.72 42.72 0 0 0 17.6 1.6c-5.6-7.6-11.6-15.2-17.2-22.4 5.6-4.8 11.6-9.2 17.2-13.6-4-5.2-8-10-12-15.2L39.2 71.6a24.68 24.68 0 0 1-.4-13.2c1.16-3.6 2.92-6.984 5.2-10a27.36 27.36 0 0 1 8.4-6.8A30.8 30.8 0 0 1 64 38.8c-.4-.8-1.2-1.2-1.6-2-4-5.2-8-10.4-12-15.2a43.36 43.36 0 0 0-7.6 3.2A41.28 41.28 0 0 0 26 40a52.44 52.44 0 0 0-6 15.2 44.4 44.4 0 0 0 0 19.2 44.92 44.92 0 0 0 6.4 14.8 46.24 46.24 0 0 0 10.4 11.2 38.72 38.72 0 0 0 14 7.2zm38.12-48.456c.664 4.468.624 8.22-.12 11.256a25.88 25.88 0 0 1-4.8 10A24.64 24.64 0 0 1 64.4 90a30.287 30.287 0 0 0 3.2 4.4c3.2 4.4 6.4 8.4 10 12.8a35.08 35.08 0 0 0 13.2-7.2 42.92 42.92 0 0 0 10-10.8 39.52 39.52 0 0 0 6.4-14.4 49.4 49.4 0 0 0 .4-18.8 36.4 36.4 0 0 0-5.6-15.2 43.2 43.2 0 0 0-9.6-11.2 44 44 0 0 0-28-10.4h-5.6c0 .4.4.4.4.8 6 7.6 11.6 14.8 17.2 22-5.6 4.8-11.6 9.2-17.2 13.6 4 5.2 8 10 12 15.2 4.76-4.08 16.66-13.176 17.2-13.6.2.64.372 1.292.52 1.944zM70.028 92.636a39.332 39.332 0 0 1-.144-.168 27.64 27.64 0 0 0 16.492-10.24 28.856 28.856 0 0 0 5.344-11.14 27.656 27.656 0 0 0-.456-14.776l-1.292-4.16-3.424 2.688c-1.804 1.416-8.2 6.336-8.588 6.64a264.297 264.297 0 0 0-6.304 5.02 764.2 764.2 0 0 0-4.112-5.176 726.652 726.652 0 0 1-4.136-5.2c2.552-1.972 5.948-4.584 6.232-4.8a225.304 225.304 0 0 0 8.712-7.048l2.172-1.86-1.756-2.256a4371.12 4371.12 0 0 0-14.012-17.956 41.006 41.006 0 0 1 25.708 9.688c3.58 2.96 6.6 6.48 8.96 10.44a33.568 33.568 0 0 1 5.2 14.052 46.616 46.616 0 0 1-.36 17.784 36.504 36.504 0 0 1-5.908 13.292 40.188 40.188 0 0 1-9.376 10.156 32.572 32.572 0 0 1-10.352 6.096 249.64 249.64 0 0 1-8.6-11.08z"/></svg>