<svg width="64" height="64" viewBox="0 0 128 128" xmlns="http://www.w3.org/2000/svg"><path d="M64 128C28.652 128 0 99.348 0 64S28.652 0 64 0s64 28.652 64 64-28.652 64-64 64zM51.476 50.74v9.952h44.34V50.74zm44.34 16.576h-44.34v9.952h32.932v9.34c-4.416 3.808-13.064 5.776-13.064 5.776-25.388 4.424-33.48-17.32-33.48-17.32-7.36-25.06 10.48-35.012 10.48-35.012 21.896-13.268 38.272 3.684 38.272 3.684l7.728-7.552c-12.88-14.744-32.748-11.98-32.748-11.98-32.2 3.32-36.432 30.404-36.432 30.404-5.336 21.744 9.384 36.672 9.384 36.672C61.412 118.548 96 93.488 96 93.488V67.32z"/></svg>