<svg width="64" height="64" viewBox="0 0 128 128" xmlns="http://www.w3.org/2000/svg"><path d="M64 128C28.652 128 0 99.348 0 64S28.652 0 64 0s64 28.652 64 64-28.652 64-64 64zm-1.204-83.976h-18.8c-3.98 0-8.564 1.3-12.216 3.892C26.868 51.404 24 56.868 24 64.012s2.868 12.608 7.78 16.096C35.432 82.7 40.016 84 43.992 84H52v-8.24h-8c-2.44 0-5.444-.856-7.68-2.44-2.776-1.968-4.32-4.912-4.32-9.308s1.548-7.34 4.32-9.308a14.028 14.028 0 0 1 7.68-2.44h18.8zm-20 24.728H54.8V84h8V60.508h-20zM76 52.24h20v23.512H75.992V52.264h-8V84H104V44H75.992z"/></svg>