<svg width="64" height="64" viewBox="0 0 128 128" xmlns="http://www.w3.org/2000/svg"><path d="M64 128C28.652 128 0 99.348 0 64S28.652 0 64 0s64 28.652 64 64-28.652 64-64 64zm20.008-88.58l3.24-12.964-10.384-2.584-2.572 10.3A33.108 33.108 0 0 0 69.1 32.88l2.576-10.3L61.292 20l-3.24 12.964c-11.932 2.168-22.036 10.948-25.12 23.292s1.704 24.824 11.216 32.32l-3.24 12.968 10.384 2.584 2.572-10.3a33.108 33.108 0 0 0 5.192 1.292l-2.576 10.3L66.864 108l3.24-12.964a31.896 31.896 0 0 0 20.8-13.54l-11.388-2.832a21.492 21.492 0 0 1-20.536 5.72C47.516 81.536 40.5 70.096 43.312 58.836S57.708 40.76 69.176 43.612a21.428 21.428 0 0 1 15.44 14.668L96 61.112A31.788 31.788 0 0 0 84.008 39.42z"/></svg>