<svg width="64" height="64" viewBox="0 0 128 128" xmlns="http://www.w3.org/2000/svg"><path d="M64 128C28.652 128 0 99.348 0 64S28.652 0 64 0s64 28.652 64 64-28.652 64-64 64zm32.116-58.696a2.908 2.908 0 1 0 0-5.812h-6.64v-6.568h13.884a2.908 2.908 0 1 0 0-5.812H89.42A14.144 14.144 0 0 0 77.684 38.44v-6.996a2.908 2.908 0 1 0-5.812 0v6.8h-6.568V22.96a2.908 2.908 0 1 0-5.812 0v15.28H52.92v-6.8a2.908 2.908 0 0 0-5.812 0v7a14.144 14.144 0 0 0-11.736 12.672H18.96a2.908 2.908 0 1 0 0 5.812h16.36v6.568h-6.64a2.908 2.908 0 1 0 0 5.812h6.64v6.568H22.668a2.908 2.908 0 1 0 0 5.812h12.704a14.144 14.144 0 0 0 11.736 12.672v4.52a2.908 2.908 0 1 0 5.812 0v-4.324h6.568v13.164a2.908 2.908 0 0 0 5.812 0V94.552h6.568v6.8a2.908 2.908 0 1 0 5.812 0V94.36a14.144 14.144 0 0 0 11.736-12.672h19.244a2.908 2.908 0 1 0 0-5.812H89.48v-6.568h6.636zm-11.28 11.128a9.488 9.488 0 0 1-9.48 9.48h-25.92a9.488 9.488 0 0 1-9.48-9.48V52.36a9.488 9.488 0 0 1 9.48-9.48h25.92a9.488 9.488 0 0 1 9.48 9.48v28.068zM55.604 49.74a33.34 33.34 0 0 0-3.364.116c-1.768.2-3.068 1.8-3.124 3.536-.088 3.936-.016 7.88-.04 11.816.056 2.008-.136 4.04.16 6.028.284 1.776 2.02 2.92 3.744 2.916 5.36.036 10.72.012 16.08.016v2.22H51.8l-2.22 6.66h17.176c2.008-.056 4.036.136 6.028-.156 1.776-.284 2.916-2.02 2.912-3.744.04-7.012.008-14.024.02-21.04-.064-1.88.164-3.796-.216-5.652-.404-1.892-2.432-2.824-4.224-2.708H58.972c-1.12.02-2.248-.004-3.372-.012zm.132 6.668h13.32v11.1h-13.32v-11.1z"/></svg>