<svg width="64" height="64" viewBox="0 0 128 128" xmlns="http://www.w3.org/2000/svg"><path d="M64 128C28.652 128 0 99.348 0 64S28.652 0 64 0s64 28.652 64 64-28.652 64-64 64zM49.312 18.392c-2.704.848-5.296 2.008-7.8 3.304-1.92 1.06-3.82 2.184-5.576 3.504A48.16 48.16 0 0 0 18.52 48.94a49.24 49.24 0 0 0-2.172 10.024c-.184 2.304-.36 4.624-.2 6.932.128 4.812 1.12 9.56 2.68 14.1a48.132 48.132 0 0 0 30.472 29.6c3.492 1.08 7.08 1.88 10.736 2.128.8.14 1.632.052 2.44.16 4.88.14 9.776-.432 14.48-1.78 2.8-.736 5.52-1.82 8.128-3.092a48.128 48.128 0 0 0 21.64-21.344 47.44 47.44 0 0 0 3.12-7.768c.96-3.24 1.656-6.568 1.896-9.936.136-.808.048-1.632.16-2.44.024-1.024.04-2.036 0-3.044-.112-.812-.024-1.636-.16-2.444-.264-3.74-1.1-7.432-2.22-11a51.992 51.992 0 0 0-3.216-7.528 48.64 48.64 0 0 0-3.504-5.572 48.14 48.14 0 0 0-22.98-17.18c-5.66-1.932-11.68-2.904-17.664-2.632-4.364.136-8.692.96-12.84 2.268zm9.24 17.32V46.92c-.024.2.16.312.26.448 1.72 1.808 3.456 3.6 5.176 5.412a3894.344 3894.344 0 0 1 0-17.068c-1.808 0-3.628-.012-5.44 0zm-23.64 5.8c.412.272.712.668 1.06 1.008 3.704 3.74 7.42 7.468 11.108 11.232 3.38 3.416 6.772 6.82 10.136 10.236-4.076 4.176-8.228 8.28-12.292 12.456-3.252 3.28-6.508 6.56-9.748 9.836a4.78 4.78 0 0 1-.264.2c4.788 0 9.588.012 14.388-.024 4.9-5.128 9.824-10.24 14.712-15.376 4.9 5.124 9.812 10.248 14.712 15.376 4.788.036 9.576.012 14.36.024-.732-.588-1.308-1.32-1.992-1.96-3.428-3.464-6.88-6.932-10.3-10.408-3.316-3.38-6.692-6.708-9.984-10.112.8-.8 1.544-1.632 2.368-2.42 6.272-6.32 12.52-12.664 18.788-18.988.376-.36.688-.784 1.12-1.08-4.8 0-9.584-.016-14.372.008C73.812 46.644 68.9 51.76 64 56.88c-4.888-5.136-9.812-10.248-14.712-15.36-4.788-.012-9.588-.012-14.376-.012zm29.112 33.66c0 5.708.012 11.408-.012 17.12 1.82-.016 3.64 0 5.448 0V81.068a.368.368 0 0 0-.124-.324c-.92-1-1.896-1.932-2.804-2.928-.824-.9-1.708-1.72-2.508-2.644z"/></svg>