<svg width="64" height="64" viewBox="0 0 128 128" xmlns="http://www.w3.org/2000/svg"><path d="M64 128C28.652 128 0 99.348 0 64S28.652 0 64 0s64 28.652 64 64-28.652 64-64 64zm43.8-74.24a1.436 1.436 0 0 0-.86-.616 153.332 153.332 0 0 0-4.16-.96l.376-1.856.24-1.168.112-.592.108-.64a5.36 5.36 0 0 0-.308-2.816 5.94 5.94 0 0 0-4.532-3.688 48.508 48.508 0 0 0-1.376-5.968l-.068-.24-9.944-12.08-.372-.108c-.404-.108-9.364-2.756-21.56-2.76l.136-2.408a4.944 4.944 0 0 0-1.6-9.64 4.944 4.944 0 0 0-1.6 9.636l.14 2.42c-12.248.012-21.256 2.644-21.64 2.772l-.372.112-9.944 12.076-.064.24a48.531 48.531 0 0 0-1.376 5.96h-.032l-.704.176a5.788 5.788 0 0 0-4.048 6.316l.108.636.112.592.24 1.168.376 1.864c-1.38.304-2.76.616-4.136.952a1.428 1.428 0 0 0-.86.616 1.364 1.364 0 0 0 1.496 2.024c1.344-.328 2.688-.64 4.036-.932l.1.512a41.6 41.6 0 0 0 2.024 30.2C33.88 98.432 47.76 112.312 64 112.312c16.236 0 30.12-13.88 36.168-26.772a41.62 41.62 0 0 0 1.98-30.208l.096-.472c1.352.296 2.704.608 4.052.936a1.364 1.364 0 0 0 1.496-2.024l.008-.012zM60.448 13.192a3.928 3.928 0 0 1 3.872-3.916c2.16 0 2.16 7.808 0 7.832a3.928 3.928 0 0 1-3.872-3.916zm2.592 4.84c.316.06.632.092.952.092h.152l.304 8.408a1.356 1.356 0 0 1-.128 1.776 1.364 1.364 0 0 1-.968.4c-2.024 0-3.652-.616-3.652-1.36 0-.688 1.368-1.26 3.16-1.356l.492-.012h.136l-.448-7.948zM32.624 37.38l1.164-.416 1.98-.66 2.6-.768c.944-.288 2-.552 3.1-.84l3.496-.788c1.212-.24 2.464-.508 3.76-.728 1.3-.22 2.6-.396 3.92-.616 1.32-.22 2.64-.328 3.936-.48 1.3-.16 2.576-.224 3.828-.332a37.42 37.42 0 0 1 1.98-.112h.068l1.54 13.708 1.56-13.824h1.672c.992 0 1.916-.044 2.728 0l2.112.088 1.848.064-1.824-.176-2.112-.2c-.816-.084-1.72-.108-2.728-.172a48.928 48.928 0 0 0-3.236-.132H64c-1.136 0-2.36-.068-3.608-.024-1.244.044-2.552.024-3.872.112l-4.004.264c-1.344.108-2.684.22-4.004.396-1.32.176-2.62.372-3.852.528-1.188.148-2.36.376-3.464.572l-1.968-.156 3.916-5.344L62.7 23.08l.12 2.12c-2.64.208-4.62 1.084-4.62 2.136 0 1.2 2.6 2.176 5.808 2.176 3.208 0 5.808-.972 5.808-2.176 0-1.052-1.98-1.928-4.62-2.136l.12-2.112 19.472 4.252 3.92 5.344-5.448.44-.1-.012.06.016h-.08l10.428 5.168s4.496 14.44-1.7 26.712a27.68 27.68 0 0 1-2.46 3.96s-9.624 4.444-24.42 5.228L64 70.128a8.8 8.8 0 0 0 3.54-.616l3.08-1.012c6.256-1.928 12.52-3.828 18.788-5.7l.616-.172.2-.572.2-.572.152-.552.284-1.08c.504-2.12.864-4.272 1.08-6.444l.176-2.2.04-1.1v-1.12l.024-1.148-.108-1.144-.176-1.14a10.12 10.12 0 0 0-.288-1.1l-.176-.576-.2-.68-.14-.02-.056-.176-.2-.684-.788-.108a206.44 206.44 0 0 0-19.56-1.344l-.68-.024-.288.572-3.584 7.028-1.936.032-2.12.04-3.84-6.88-.2-.372-.4.02c-3.252.184-6.5.448-9.744.796a151.36 151.36 0 0 0-9.656 1.34h.064-.04l-.136.44a5.468 5.468 0 0 0-.096.344c.064-.26.14-.516.22-.784a9.664 9.664 0 0 1-.44 1.032c-.072.28-.152.56-.204.84l-.04.108-.24 1.08-.176 1.076-.112 1.1a24.472 24.472 0 0 0-.04 2.2l.084 2.2c.148 2.2.44 4.392.88 6.556l.24 1.08.312 1.096.088.268.308.108 12.452 4.092a692.467 692.467 0 0 1 10.976 3.676c.312.064.628.108.948.128l.22.024h.064l.112.02.46.024h.068l-1.016 4.14a83.52 83.52 0 0 1-10.88-.392c-8.888-1.192-14.736-3.32-16.256-3.924a47.144 47.144 0 0 1-3.232-32.572zm47.2 6.12L68.06 65.68l-.788 1.48-.572.196a7.068 7.068 0 0 1-2.132.42 7.632 7.632 0 0 1-3.3-.4l-.4-.152.504-.94 12.32-23.2.556-1.052c2 .092 4.048.244 6.136.42l-.56 1.048zm3.616.36l.576-1.088 1.692.156 1.608.176.2.02h.128l-.592 1.12-9.76 18.392-.8 1.508-4.576 1.452.788-1.492L83.44 43.86zm-57.4 5.08l-.064-.592-.044-.572a3.936 3.936 0 0 1 2.876-4.056 48.516 48.516 0 0 0 1.68 19.492l-.18-.056a4.62 4.62 0 0 1-2.816-2.816 7.448 7.448 0 0 1-.328-1.696l-.992-8.504-.132-1.2zm11.016 45.812l-.06-.048.028.04a1.464 1.464 0 0 1-.6-.328 49.872 49.872 0 0 1-6.248-9.956 39.02 39.02 0 0 1-3.04-23.644l.016.04a5.016 5.016 0 0 0 3.4 2.576 48.521 48.521 0 0 0 3.3 8.14l.2.352.372.176a46.51 46.51 0 0 0 4.304 1.516h.032l-.1.032a13 13 0 0 0-.96.364 19.364 19.364 0 0 0-.78.348l-1.696.812-.548.264-.068.552a29.7 29.7 0 0 0 1.224 12.432 24.553 24.553 0 0 0 2.596 5.68l.02.04.068.176c.096.444-.764.624-1.46.44zm15.12 8.848a24.04 24.04 0 0 1-8.316-5.164 19.8 19.8 0 0 1-3.452-4.516 22.836 22.836 0 0 1-2.112-5.28 28.82 28.82 0 0 1-.86-5.632 24.42 24.42 0 0 1 .156-5l1.032-.412a43.155 43.155 0 0 1 3.212-.92l1.652-.332a43.26 43.26 0 0 1 4.312-.508h.172l.064.008a30.072 30.072 0 0 0-1.84 10.52c0 7.16 2.36 13.252 6.108 17.312l-.128-.076zm17.2-4.572a10.856 10.856 0 0 1-5.432 1.408 10.88 10.88 0 0 1-5.632-1.54 13.48 13.48 0 0 1-2.048-2.908 10.144 10.144 0 0 0 15.128.268 13.128 13.128 0 0 1-2.016 2.776v-.004zm-5.432-1.672a7.84 7.84 0 0 1-7.876-7.808v-.028a7.84 7.84 0 1 1 7.88 7.832v.004zM73.896 88a10.092 10.092 0 0 0-19.952.336 27.264 27.264 0 0 1-.22-2.732 10.916 10.916 0 0 1 10.228-6.932h.04A10.916 10.916 0 0 1 74.1 85.404a27.696 27.696 0 0 1-.204 2.6zm1.728 15.724h.04l-.08.028c3.8-4.064 6.2-10.196 6.2-17.412a29.908 29.908 0 0 0-1.844-10.52h.056c5.66.816 8.608 3.72 8.608 3.72s.6 16.584-12.972 24.184h-.008zm25.852-35.76v.856c0 .196-.016.388-.02.58a27.652 27.652 0 0 1-.072 1.312c0 .136-.024.276-.036.412-.024.284-.048.568-.08.852 0 .064-.012.128-.02.192a39.344 39.344 0 0 1-.1.824v.04l-.112.792v.028a38.924 38.924 0 0 1-3.832 11.84l-.136.264c-.14.268-.28.54-.428.808a49.252 49.252 0 0 1-5.08 7.66 1.372 1.372 0 0 1-.576.328l.024-.044-.056.052c-.696.2-1.58.028-1.48-.44l.064-.176.04-.04a25.25 25.25 0 0 0 2.58-5.68 30.14 30.14 0 0 0 1.208-12.408l-.064-.548-.552-.264c-.572-.288-1.12-.572-1.692-.816l-1.74-.704-.156-.056.04-.012c1.452-.428 2.88-.94 4.276-1.524l.372-.176.2-.352a48.623 48.623 0 0 0 3.288-8.128 5.102 5.102 0 0 0 3.492-2.62c.42 2.248.64 4.532.66 6.82a5.372 5.372 0 0 0-.012.328zM38.584 44.54l.924-1.12h.308-.46c-.464.68-1.032 1.332-1.54 2 .292-.296.52-.572.768-.88zM67.8 24.84c1.936.508 3.212 1.432 3.212 2.508 0 1.08-1.296 2-3.212 2.508 2.64-.24 4.62-1.276 4.62-2.508s-1.98-2.276-4.62-2.508zm-6.36 9.888a1.016 1.016 0 0 0 1.016-1 1.012 1.012 0 0 0-.3-.72.976.976 0 0 0-.72-.28.992.992 0 0 0-.98 1c0 .552.44 1 .984 1zm-26.58 3.368a1.008 1.008 0 0 0-.704 1.72.95.95 0 0 0 .704.28 1.008 1.008 0 0 0 .704-1.72.948.948 0 0 0-.704-.28zm2.772 32.292a1.008 1.008 0 0 0 .704-1.72.948.948 0 0 0-.704-.28 1.008 1.008 0 0 0-1 1c.02.56.46 1 1 1zm24.288 3.828a1.008 1.008 0 0 0 .704-1.72.948.948 0 0 0-.704-.28 1.02 1.02 0 0 0-1 1.02 1.052 1.052 0 0 0 1 .98zm5.46-39.468a1.016 1.016 0 0 0 1.016-1 1.012 1.012 0 0 0-.3-.72.976.976 0 0 0-.72-.28.992.992 0 0 0-.98 1c0 .556.44 1 .984 1zm-.488 37.492a1.016 1.016 0 0 0-1 1c.04.548.468.98 1 1a1.008 1.008 0 0 0 .704-1.72.948.948 0 0 0-.704-.28zm-27.108 6.732a.928.928 0 0 0-.872.464 1.052 1.052 0 0 0-.024 1.032c.176.32.504.516.856.5h.04a1 1 0 0 0 .98-1 1 1 0 0 0-.264-.688.968.968 0 0 0-.72-.308zm6.036-1.8a.992.992 0 0 0-.984.996c0 .552.44 1 .984 1a1.016 1.016 0 0 0 1.016-1 1.012 1.012 0 0 0-.3-.72.976.976 0 0 0-.72-.28zm37.18 0a1 1 0 1 0 .08 1.996 1 1 0 0 0-.08-2z"/></svg>