<svg width="64" height="64" viewBox="0 0 128 128" xmlns="http://www.w3.org/2000/svg"><path d="M64 128C28.652 128 0 99.348 0 64S28.652 0 64 0s64 28.652 64 64-28.652 64-64 64zm35.108-86l-3.192 3.24c2.54 4.044 3.336 9.12 1.6 13.976-2.904 8.24-11.9 12.584-20.096 9.64-1.16-.44-2.248-.96-3.192-1.62L64 77.612l-8.92-9.12a16.096 16.096 0 0 1-14.44 1.836 16.36 16.36 0 0 1-9.72-20.896c.44-1.324 1.092-2.504 1.816-3.604l-3.844-3.9-.728 1.248a42.94 42.94 0 0 0-6.16 22.148C21.92 88.8 40.784 108 63.92 108H64c23.14 0 41.928-19.056 42-42.528a43.28 43.28 0 0 0-6.092-22.148l-.8-1.324zm-61.656 8.608a8.9 8.9 0 0 0-1.74 5.3c0 4.78 3.84 8.68 8.56 8.68 1.956 0 3.768-.66 5.22-1.84l-12.04-12.14zm42 11.404c1.376.96 2.972 1.472 4.788 1.472 4.712 0 8.56-3.9 8.56-8.68 0-1.768-.508-3.46-1.452-4.856L79.452 62.012zm-15.308 9.124l34.24-34.58-1.308-1.472A44.736 44.736 0 0 0 63.708 20h-.072c-12.548 0-24.228 5.152-32.788 14.348l-1.376 1.472 34.672 35.32zm-29.016-35.32a40.328 40.328 0 0 1 28.58-11.696h.076c10.88 0 21.324 4.488 29.012 12.288l-28.652 28.92L35.128 35.82z"/></svg>