<svg width="64" height="64" viewBox="0 0 128 128" xmlns="http://www.w3.org/2000/svg"><path d="M64 128C28.652 128 0 99.348 0 64S28.652 0 64 0s64 28.652 64 64-28.652 64-64 64zM81.996 21.152l-9.088 9.336a16.848 16.848 0 0 0-9.58-2.996 17.048 17.048 0 0 0-12.28 5.212A17.896 17.896 0 0 0 46 45.24c0 4.72 1.792 9.192 5.048 12.54a17.096 17.096 0 0 0 8.852 4.88v8.16a16.754 16.754 0 0 0-8.868 4.9A17.884 17.884 0 0 0 46 88.248c0 4.72 1.792 9.192 5.048 12.54a16.96 16.96 0 0 0 12.28 5.208 17.048 17.048 0 0 0 12.28-5.208 17.804 17.804 0 0 0 5.044-12.54 17.804 17.804 0 0 0-5.048-12.54 17.096 17.096 0 0 0-8.852-4.884v-8.16a16.732 16.732 0 0 0 8.868-4.9 17.792 17.792 0 0 0 5.032-12.524c0-3.552-1.036-6.992-2.952-9.912l9.108-9.36L82 21.148zM63.328 77.38c2.844 0 5.468 1.108 7.412 3.148 2.012 2.116 3.112 4.824 3.112 7.72 0 2.92-1.108 5.668-3.1 7.712a10.12 10.12 0 0 1-7.424 3.16c-2.8 0-5.448-1.128-7.428-3.16a11.084 11.084 0 0 1-3.1-7.708c0-2.92 1.112-5.668 3.1-7.708a10.12 10.12 0 0 1 7.428-3.164zm7.412-24.36a10.108 10.108 0 0 1-7.412 3.148c-2.8 0-5.448-1.132-7.428-3.164a11.084 11.084 0 0 1-3.1-7.708c0-2.92 1.112-5.668 3.1-7.712a10.12 10.12 0 0 1 7.428-3.16c2.8 0 5.448 1.128 7.424 3.16a10.8 10.8 0 0 1 3.1 7.712c0 2.92-1.108 5.664-3.112 7.72z"/></svg>