<svg width="64" height="64" viewBox="0 0 128 128" xmlns="http://www.w3.org/2000/svg"><path d="M64 128C28.652 128 0 99.348 0 64S28.652 0 64 0s64 28.652 64 64-28.652 64-64 64zm.212-108h-.44c-.252.2-.488.428-.764.588-11.94 6.92-23.88 13.84-35.832 20.732-.816.472-1.16.972-1.16 1.964.032 13.86.02 27.716-.016 41.572 0 .84.24 1.32.968 1.74a7897.32 7897.32 0 0 1 25.872 14.972c3.656 2.124 7.288 4.288 10.932 6.432h.44c.172-.128.336-.272.52-.38 12.06-6.996 24.12-13.992 36.188-20.976.664-.384 1.08-.76 1.08-1.676a8938.12 8938.12 0 0 1-.032-41.904c0-.82-.296-1.248-.96-1.632a13996.2 13996.2 0 0 1-30.432-17.608c-2.14-1.24-4.244-2.548-6.364-3.824zm11.224 69.92c-.26-.18-.78-.256-1.036-.112-2.704 1.512-5.38 3.08-8.064 4.64-.116.064-.208.176-.368.316l5.856 3.66c-1.764 1.04-3.468 1.824-4.92 2.94-2.024 1.552-3.784 1.56-5.804 0-1.404-1.088-3.056-1.848-4.596-2.76-.052-.028-.072-.116-.188-.328 2.528-1.508 17.424-10.288 22.108-13.508 4.284-2.952 7.8-6.784 9.696-11.772.8-2.092 1.152-4.36 1.68-6.56.072-.296-.016-.632-.036-1.012-.388-.02-.708-.052-1.028-.056-8.028 0-16.06-.008-24.088.012-.392 0-.98.112-1.14.376-1.74 2.916-3.416 5.868-5.22 9h17.704l.12.276c-.732.616-1.4 1.332-2.208 1.832-4.74 2.948-21.8 13.64-25.524 16.132-.584.388-.96.4-1.54.064a2171.49 2171.49 0 0 0-15.628-9.064c-.596-.34-.772-.732-.768-1.396.02-12.388.024-24.78.004-37.172 0-.672.188-1.06.768-1.392a1952.24 1952.24 0 0 0 15.736-9.104c.648-.38 1.032-.336 1.612.128 1.308 1.048 2.692 2.008 4.072 2.96.244.164.724.264.948.136 2.812-1.612 5.592-3.276 8.532-5.012l-5.752-3.616c1.212-.716 2.264-1.34 3.32-1.956 1.196-.7 2.376-1.432 3.608-2.068.356-.184.952-.252 1.28-.072 2.24 1.232 4.432 2.54 6.64 3.828.08.052.128.164.288.372-1.86 1.14-15.904 9.472-20.936 12.768a29.52 29.52 0 0 0-9.444 9.924c-5.048 8.68-3.64 20.568 3.28 27.82 2.44 2.552 5.08 4.84 8.056 6.724.304.196.86.34 1.128.192 2.772-1.544 5.512-3.156 8.256-4.748.056-.036.088-.112.144-.192-2.08-1.34-4.192-2.636-6.24-4.032-2.568-1.76-4.964-3.732-6.76-6.332-3.628-5.24-3.24-11.92.908-16.74 3.008-3.496 6.808-5.952 10.696-8.28 4.976-2.988 17.68-10.748 18.972-11.76.468-.36.776-.464 1.328-.14 5.324 3.12 10.676 6.188 15.992 9.316.32.188.624.72.624 1.1.04 12.5.04 25 .012 37.504 0 .38-.28.932-.6 1.12-5.384 3.16-10.792 6.276-16.2 9.4-.12.068-.256.12-.348.164-1.664-1.2-3.28-2.388-4.932-3.52zm11.576-37.348c-2.808-4.976-6.992-8.568-11.668-11.644-.32-.212-1.044-.076-1.448.148-2.232 1.232-4.428 2.536-6.636 3.82-.428.252-.852.512-1.392.836l.72.496c2.372 1.564 4.812 3.04 7.108 4.72 3.224 2.356 5.96 5.16 7.24 9.12.072.224.448.504.688.508 2.62.036 5.24.02 7.948.02-.152-2.428-1.18-5.576-2.56-8.024z"/></svg>