<svg width="64" height="64" viewBox="0 0 128 128" xmlns="http://www.w3.org/2000/svg"><path d="M64 128C28.652 128 0 99.348 0 64S28.652 0 64 0s64 28.652 64 64-28.652 64-64 64zm.2-104h-.416c-.24.188-.464.408-.724.56a17022.461 17022.461 0 0 1-33.944 19.792c-.776.448-1.1.924-1.096 1.876.028 13.224.016 26.452-.02 39.68 0 .8.224 1.26.92 1.66a7964.267 7964.267 0 0 1 24.508 14.292c3.464 2.028 6.904 4.092 10.36 6.14h.412c.16-.12.32-.26.492-.36 11.428-6.68 22.852-13.36 34.284-20.024.632-.368 1.028-.728 1.024-1.6a9523.83 9523.83 0 0 1-.032-40c0-.784-.28-1.192-.908-1.56a13235.064 13235.064 0 0 1-28.832-16.808C68.2 26.464 66.208 25.22 64.2 24zm10.632 66.74c-.24-.168-.736-.24-.976-.104-2.564 1.44-5.1 2.94-7.64 4.424-.112.064-.2.172-.352.304l5.548 3.496c-1.672.988-3.284 1.74-4.664 2.804-1.916 1.48-3.584 1.492-5.496 0-1.328-1.036-2.896-1.76-4.352-2.628-.048-.032-.068-.116-.18-.32 2.4-1.44 16.508-9.82 20.944-12.892 4.06-2.816 7.388-6.476 9.188-11.236.756-2 1.092-4.164 1.588-6.26.068-.284-.016-.608-.032-.968-.364-.02-.668-.052-.972-.052-7.608-.004-15.216-.008-22.82.008-.372 0-.932.108-1.08.36-1.652 2.78-3.24 5.6-4.948 8.588H75.36l.116.264c-.696.592-1.332 1.276-2.092 1.752-4.492 2.812-20.652 13.016-24.184 15.4-.552.368-.908.38-1.456.06a1990.504 1990.504 0 0 0-14.804-8.652c-.564-.328-.732-.7-.732-1.332.02-11.828.024-23.656.008-35.484 0-.64.176-1.012.724-1.328 4.98-2.88 9.956-5.768 14.908-8.692.612-.36.98-.32 1.528.12 1.24 1 2.548 1.92 3.86 2.828.228.16.684.252.896.132 2.664-1.54 5.3-3.128 8.08-4.788l-5.448-3.452c1.148-.68 2.144-1.276 3.144-1.864 1.136-.668 2.256-1.368 3.42-1.972.336-.176.904-.24 1.212-.072 2.12 1.176 4.2 2.424 6.292 3.656.08.048.12.16.272.356-1.76 1.084-15.064 9.04-19.836 12.184a28.084 28.084 0 0 0-8.944 9.476c-4.78 8.28-3.444 19.632 3.108 26.556 2.308 2.436 4.816 4.616 7.632 6.416.288.188.816.324 1.068.184 2.628-1.476 5.22-3.012 7.824-4.536.052-.028.08-.104.136-.18-1.976-1.28-3.976-2.516-5.912-3.848-2.436-1.68-4.704-3.56-6.408-6.04-3.432-5.004-3.068-11.384.86-15.984 2.852-3.336 6.452-5.68 10.136-7.904 4.716-2.852 16.748-10.26 17.976-11.224.44-.348.732-.44 1.256-.132 5.04 2.976 10.112 5.904 15.152 8.888a1.44 1.44 0 0 1 .588 1.052c.036 11.932.04 23.864.012 35.8 0 .36-.268.892-.568 1.068-5.1 3.016-10.224 5.992-15.344 8.972-.12.068-.248.12-.332.16-1.576-1.144-3.108-2.28-4.676-3.364zM85.8 55.092c-2.656-4.752-6.62-8.18-11.052-11.116-.304-.2-.992-.072-1.372.14-2.12 1.176-4.196 2.424-6.288 3.652l-1.32.792.68.476c2.252 1.492 4.56 2.904 6.736 4.504 3.056 2.248 5.644 4.932 6.86 8.704.068.216.424.48.652.488 2.48.032 4.96.02 7.528.02-.144-2.32-1.12-5.324-2.424-7.66z"/></svg>