<svg width="64" height="64" viewBox="0 0 128 128" xmlns="http://www.w3.org/2000/svg"><path d="M64 128C28.652 128 0 99.348 0 64S28.652 0 64 0s64 28.652 64 64-28.652 64-64 64zm26.56-89.728c-1.36-3.044-2.62-9.06-6.1-10.4-4.48-1.72-7.244 9.552-7.904 12.4h-.668c-1.128-4.88-2.64-11.8-8-13.336-2.48 10.42 2.592 21.656 7.336 30.676 5.064-2.424 7.532-10 8-15.34h.668l5.336 16.004c4.292-1.232 5.784-5.48 7.332-9.336 3.328-8.272 6.12-18.448 4-27.34-6.4 1.816-8.352 10.972-10 16.672zm-64.016 21.34c5.728-2.736 8.456-11.4 9.336-17.34h.664c.68 2.864 2.492 10.248 6.068 10.72 4.56.604 6.948-9.508 7.268-12.72h.668c1.452 5.02 2.984 11.552 8 14.004 1.856-7.776-.36-16.068-3.204-23.34-.732-1.868-2.232-6.912-4.812-6.912-4.224 0-6.6 11.136-7.32 14.248h-.664l-5.336-16.004c-9.384 4.48-14.48 28.308-10.668 37.344zm-10.004 8c6.96 30.376 39.084 47.6 68.02 34.768a47.092 47.092 0 0 0 23.696-23.432c1.244-2.696 3.688-7.58 2.264-11.12-1.42-3.528-15.18 2.232-18.62 3.74a1.548 1.548 0 0 0-.904 1.18 2.688 2.688 0 0 0 2.456 3.088l5.776.448c-10.46 20.248-38.744 29.2-58.68 13.024-4.464-3.62-8.444-7.92-11.124-13.024-1.296-2.468-2.5-5.624-4.7-7.32-2.12-1.624-5.328-2.184-8.184-1.352z"/></svg>