<svg width="64" height="64" viewBox="0 0 128 128" xmlns="http://www.w3.org/2000/svg"><path d="M64 128C28.652 128 0 99.348 0 64S28.652 0 64 0s64 28.652 64 64-28.652 64-64 64zm36.28-79.812H63.688A15.504 15.504 0 1 0 78.2 69.084H63.688a4.088 4.088 0 0 1-4.092-4.092v-.496a4.088 4.088 0 0 1 4.092-4.092h24.188c.176 1.128.26 2.268.248 3.408a24.436 24.436 0 1 1-24.436-24.556l.748-.124c.156.072.32.112.496.124h21.704c11.844 0 16.68-6.324 16.68-15.256H63.688C41.8 24 24.04 41.732 24 63.628c-.032 21.896 17.672 39.68 39.568 39.752 21.896.068 39.708-17.608 39.812-39.504V51.348a3.1 3.1 0 0 0-3.1-3.16z"/></svg>