<svg width="64" height="64" viewBox="0 0 128 128" xmlns="http://www.w3.org/2000/svg"><path d="M62.188 40.884c-3.14-5.4-6.012-9.072-8.708-11.056-3.328-2.452-6.74-2.472-9.412.152-2.54 2.492-2.776 5.64-.828 8.616.508.772 1.16 1.536 1.952 2.288h-11.76c-3.16 0-5.432 2.668-5.432 5.332 0 3.104 2.72 5.336 5.432 5.336h28.072V44.44h4.528v7.112h28.536c3.16 0 5.432-2.668 5.432-5.336 0-3.1-2.72-5.332-5.432-5.332H82.936c.768-.792 1.388-1.6 1.848-2.424 1.648-2.96 1.18-6.032-1.316-8.48-2.672-2.624-6.08-2.6-9.408-.152-2.7 1.984-5.572 5.66-8.708 11.056zm-5.264 0h-4.08c-2.864-1.624-4.852-3.252-5.8-4.696-.824-1.264-.76-2.096.224-3.068.964-.944 1.86-.94 3.492.264 1.772 1.3 3.848 3.808 6.164 7.5zm13.688 0c2.32-3.692 4.392-6.2 6.16-7.5 1.636-1.2 2.532-1.208 3.496-.264 1.08 1.064 1.224 1.988.544 3.204-.784 1.408-2.588 2.992-5.32 4.56zM64 128C28.652 128 0 99.348 0 64S28.652 0 64 0s64 28.652 64 64-28.652 64-64 64zm-2.496-72H32.08v28.888c-.032 2.956 1.152 5.8 3.28 7.888S40.388 96.028 43.4 96h18.108zm4.528 0v40h18.112a11.32 11.32 0 0 0 8.036-3.224 10.9 10.9 0 0 0 3.28-7.888V55.996z"/></svg>