<svg width="64" height="64" viewBox="0 0 128 128" xmlns="http://www.w3.org/2000/svg"><path d="M64 128C28.652 128 0 99.348 0 64S28.652 0 64 0s64 28.652 64 64-28.652 64-64 64zm-.04-77.284l11.2-11.28A129.856 129.856 0 0 0 64 24a130.296 130.296 0 0 0-11.176 15.5L63.96 50.716zm22.872 11.24c-3.036-6.704-6.06-12.936-9.56-18.992L63.96 56.372 50.72 43.036c-3.312 5.752-6.232 11.736-9.12 18.228-3.144 8.808-8.312 18.308-3.88 26.764 7.628 14.576 25.548 20.216 40.024 12.54a30.012 30.012 0 0 0 12.448-12.54c4.396-8.456-.216-17.264-3.36-26.068z"/></svg>