<svg width="64" height="64" viewBox="0 0 128 128" xmlns="http://www.w3.org/2000/svg"><path d="M64 128C28.652 128 0 99.348 0 64S28.652 0 64 0s64 28.652 64 64-28.652 64-64 64zm40-75.228c0-1.596-.096-3.188-.296-4.772H39.096a24.448 24.448 0 0 0-.468 4.772c0 13.708 11.38 24.868 25.36 24.868 10.872-.012 20.528-6.8 24.028-16.884H80.32c-3.564 7.024-11.388 10.952-19.288 9.68-7.896-1.276-14.024-7.452-15.108-15.228h50.884c-1.268 16.652-15.492 29.82-32.796 29.82-18.132 0-32.884-14.468-32.884-32.248 0-1.596.12-3.192.36-4.772h-7.192c-.2 1.584-.296 3.18-.296 4.772C24 74.404 41.948 92 64 92s40-17.6 40-39.228z"/></svg>