<svg width="64" height="64" viewBox="0 0 128 128" xmlns="http://www.w3.org/2000/svg"><path d="M37.016 33.228a8.252 8.252 0 0 0-.288.02c-.32.4-.712.16-1.112.24-1.428.24-2.536 1.268-2.456 2.456.08 1.352 1.188 1.668 2.3 1.904 2.696.64 5.396.4 8.092.48 3.252 0 5.08 1.584 5.552 4.84.32 2.376 7.46 64.896 7.54 66.244a1.26 1.26 0 0 0 .952 1.192c2.696.82 5.512 1.2 8.328 1.112 3.164.08 6.32-.32 9.36-1.192.48-.16.876-.32.876-.952.08-1.664 4.6-61.408 4.6-62.36a12.296 12.296 0 0 1 2.54-7.696c1.348-1.588 2.856-3.016 4.204-4.6a2.52 2.52 0 0 0 .024-.16c1.58-.08 3.16-.08 4.736-.24.716-.08 1.828-.08 1.748-1.428-.16-.792-1.428-3.012-7.22-1.664-.556.16-3.728 1.112-4.84.556a58.584 58.584 0 0 1 5.236-3.016c.792-.636 1.428-1.508.952-2.46s-1.428-.872-2.3-.556a10.732 10.732 0 0 0-4.364 2.62c-.804.816-1.68 1.56-2.62 2.22-2.3 1.112-2.3 1.112-2.856.952-.712-.32-1.508-.872-.952-1.664.324-.516.564-1.08.716-1.668.24-1.032-.08-1.348-.796-1.348-1.428.08-1.904 2.14-2.14 2.46-.152.312-.34.6-.556.872a1.38 1.38 0 0 1-1.428.32c-.476-.08-.872-.32-.476-.956.716-1.108 2.936-2.856 3.572-5.156 0 0 1.108-3.016-1.984-3.092-1.668-.08-3.016 1.108-3.492 2.932-.476 1.904.556 4.524 0 5.792-.2.536-.468 1.04-.792 1.508a2.912 2.912 0 0 1-3.888 0 3.172 3.172 0 0 1-.716-2.616 28.6 28.6 0 0 0 .636-3.176c.08-.792-1.348-2.22-2.54-1.268-.556.4-.32 1.032-.08 1.588.4 1.188 1.112 4.6-2.776 2.932-1.508-.792-.24-4.68-.792-6.108a1.372 1.372 0 0 0-2.144-.792 1.52 1.52 0 0 0-.712 2.22c.32.636 2.22 4.284.712 4.92-.556.24-1.744-.24-2.536-.716-2.856-1.268-3.332-5.632-4.208-6.188a2.252 2.252 0 0 0-2.776.08 1.832 1.832 0 0 0-.792 2.3c.396.716 1.904 1.112 2.22 3.572l.092.068c-.032 0-.064 0-.092.012-.476 0-.712-.32-1.032-.556a5.44 5.44 0 0 0-4.92-.636 1.784 1.784 0 0 0-1.348 1.428 1.792 1.792 0 0 0 1.192 1.668c.788.296 1.556.64 2.3 1.032.4.16 1.032.24.952.952v.024a.62.62 0 0 0-.24-.184 8.8 8.8 0 0 1-5.632-1.188 2.268 2.268 0 0 0-2.616 0c-1.032.872.476 1.904.556 1.904a1.76 1.76 0 0 0 .52.216zm18.66-3.564a2.716 2.716 0 0 0-.296.076 1.136 1.136 0 0 1 .152-.06 3.348 3.348 0 0 1 .144-.016zM64 128C28.652 128 0 99.348 0 64S28.652 0 64 0s64 28.652 64 64-28.652 64-64 64zm31.52-90.228c-3.016-1.112-9.68.552-10 1.028 1.272.24 1.668.4 3.572.716 2.04.372 4 1.096 5.792 2.144 1.904 1.108 2.696-.4 2.696-.4.32-.712-.552-2.936-2.06-3.488zM41.332 24.6a24.372 24.372 0 0 0-1.588-2.22c-1.508-1.588-4.44-2.38-6.032-1.588-.872.4-1.268.952-.552 1.904a6.13 6.13 0 0 0 3.172 1.668c.712.16 3.888.872 4.68 1.028.8 0 .32-.792.32-.792zm55.696 5.08c.16-.48 0-2.064-2.86-1.668-2.38.4-4.044 1.032-3.964 1.348.08.32 2.696.796 3.252.872 2.22.4 3.492-.24 3.572-.552zm-28.88-13.252a1.588 1.588 0 0 0-2.064-.08c-2.38 1.508-.636 6.664-.4 6.664.24 0 .48-1.824 2.86-4.52a1.46 1.46 0 0 0-.4-2.064z"/></svg>