<svg width="64" height="64" viewBox="0 0 128 128" xmlns="http://www.w3.org/2000/svg"><path d="M64 128C28.652 128 0 99.348 0 64S28.652 0 64 0s64 28.652 64 64-28.652 64-64 64zM31.892 65.812c-2.072 1.648-3.92 4.576-3.828 9.052.068 3.096 1.732 5.216 3.828 6.656v5.532c0 3.452 1.68 6.688 4.512 8.668l19.412 13.276V41.16l-23.924 7v17.652zm25.6 25.984v17.224h13.052V91.8H57.492zm-2.96-51.92l1.16 1.16-20.32-20.4a2.04 2.04 0 0 0-3.48 1.444v24.28l22.64-6.48zm2.96 24.284v25.976h13.052V64.16H57.496zm15.972-24.28l22.644 6.48V22.08a2.04 2.04 0 0 0-3.48-1.44l-20 20.08.84-.84zm-15.968 1.284v21.32h13.048v-21.32H57.496zm38.612 24.648V48.16l-23.884-6.984v67.844l19.372-13.3a10.588 10.588 0 0 0 4.512-8.668V81.52c2.096-1.44 3.76-3.56 3.828-6.656.096-4.476-1.756-7.404-3.828-9.052zM37.104 64.18c4.028 2.948 4.028 20.464 4.028 20.464s-4.556-.44-8.32-2.544c3.104 1.044 5.596.812 6.68.932l.072.004h.016l.056.008.152.012.052.008h.052s.64-15.288-3.988-17.968c-.752-.26-2.08-.108-3.544.36 1.864-1.256 3.812-1.68 4.744-1.276zm51.16 19.128h.056l.048-.004.068-.008h.016l.14-.012h.008l.064-.008.596-.068h.028c1.304-.168 2.904-.152 5.36-.92l.544-.18c-3.768 2.104-8.32 2.544-8.32 2.544s0-17.512 4.028-20.46c.932-.408 2.88.016 4.74 1.28-1.464-.468-2.788-.62-3.544-.36-4.628 2.676-3.832 18.2-3.832 18.2z"/></svg>