<svg width="64" height="64" viewBox="0 0 128 128" xmlns="http://www.w3.org/2000/svg"><path d="M64 128C28.652 128 0 99.348 0 64S28.652 0 64 0s64 28.652 64 64-28.652 64-64 64zM28 84.92c-.472 1.056-.872 2-1.308 3.02-.728 1.676-1.492 3.348-2.22 5.024-.108.216-.036.288.148.324.324.076.652.112.98.148.912.036 1.856.072 2.8.072.62.04 1.276.04 1.932 0 1.124-.108 2.252-.22 3.38-.4a32.488 32.488 0 0 0 9.46-2.84 28.84 28.84 0 0 0 4.584-2.652c1.2-.912 2.4-1.82 3.528-2.8a18.849 18.849 0 0 0 2.04-2.112c.872-.984 1.672-2.04 2.436-3.092a22.938 22.938 0 0 0 2.44-4.44c.8-1.856 1.38-3.784 1.744-5.748h7.348c.328 0 .508.072.508.44.04.18.076.4.148.58.4 1.892.98 3.748 1.82 5.492a29.288 29.288 0 0 0 5.6 8.004 17.233 17.233 0 0 0 1.676 1.564 80.713 80.713 0 0 0 2.76 2.148 31.856 31.856 0 0 0 5.752 3.2 34.04 34.04 0 0 0 5.24 1.748c1.488.324 3.016.58 4.508.8 1.092.144 2.22.252 3.348.252 1.24 0 2.512-.072 3.748-.144.508-.04.98-.144 1.492-.256-.548-1.236-1.056-2.4-1.564-3.564a214.808 214.808 0 0 1-1.892-4.364c-.04-.076-.112-.112-.184-.148-.36-.036-.728-.036-1.092-.072l-2.872-.22a19.124 19.124 0 0 1-4.548-.98 23.888 23.888 0 0 1-4.4-1.964 21.348 21.348 0 0 1-5.68-4.584 26.592 26.592 0 0 1-1.744-2.256 17.8 17.8 0 0 1-2.148-4.328c-.144-.44-.252-.876-.4-1.384h5.312c.584 0 .728-.108.948-.62.728-1.744 1.492-3.456 2.22-5.164l1.052-2.4c-.036-.04-.072-.04-.108-.076a10.572 10.572 0 0 0-3.348-.544c-1.892-.04-3.82 0-5.712 0h-.4c.04-.108.04-.256.076-.364a21.671 21.671 0 0 1 1.744-4.256 20.04 20.04 0 0 1 3.348-4.44c.508-.544 1.128-1.016 1.672-1.492a21.347 21.347 0 0 1 4.368-2.836 25.232 25.232 0 0 1 10.732-2.512c.216.04.4.04.616 0 .256-.072.62.076.764-.288.22-.584.472-1.128.728-1.676.692-1.56 1.348-3.092 2-4.62l.62-1.456c-.072-.072-.072-.108-.108-.108-.84-.144-1.676-.328-2.512-.36-.836-.04-1.672 0-2.544 0-.584 0-1.128.032-1.712.068-.908.076-1.82.148-2.692.292a30.324 30.324 0 0 0-3.164.584c-1.384.36-2.764.8-4.148 1.272-2 .728-3.892 1.64-5.712 2.764a33.136 33.136 0 0 0-4.948 3.712 23.188 23.188 0 0 0-2.072 2.148 38.332 38.332 0 0 0-2.44 3.092 21.287 21.287 0 0 0-2.144 3.744 27.964 27.964 0 0 0-1.748 4.912 30.12 30.12 0 0 1-.36 1.748h-7.388a.32.32 0 0 1-.292-.22c-.18-.8-.328-1.64-.544-2.44a25.332 25.332 0 0 0-2.984-6.908 31.032 31.032 0 0 0-4.768-5.896c-.36-.324-.724-.652-1.088-.944-.8-.656-1.64-1.312-2.476-1.928a31.996 31.996 0 0 0-6.076-3.384 36.332 36.332 0 0 0-4.728-1.64 34.952 34.952 0 0 0-7.712-1.124 27.2 27.2 0 0 0-4.876.216l-.764.22c.364.84.728 1.6 1.056 2.4.436.948.836 1.928 1.272 2.912.364.836.728 1.64 1.092 2.472a.32.32 0 0 0 .22.22c.252.036.508.072.76.072 1.056.072 2.076.108 3.132.22 1.344.18 2.656.472 3.928.872a25.344 25.344 0 0 1 4.44 1.964 18.68 18.68 0 0 1 3.744 2.728 25.56 25.56 0 0 1 2.512 2.764c1.564 2 2.692 4.296 3.348 6.768.072.256.072.472.144.764h-.472c-1.784 0-3.528-.036-5.312 0a.828.828 0 0 0-.584.22 2.412 2.412 0 0 0-.324.688l-2.22 5.132a54.08 54.08 0 0 1-.912 2.144.51.51 0 0 0 .148.112c.108 0 .216.036.328.072 1.16.256 2.328.4 3.528.4h5.712c-.04.108-.04.256-.072.36a20.2 20.2 0 0 1-1.82 4.516 20.805 20.805 0 0 1-3.348 4.4 27.004 27.004 0 0 1-1.928 1.64 21.976 21.976 0 0 1-7.712 3.856 25.104 25.104 0 0 1-4.328.76c-.764.04-1.568 0-2.332 0z"/></svg>