<svg width="64" height="64" viewBox="0 0 128 128" xmlns="http://www.w3.org/2000/svg"><path d="M64 128C28.652 128 0 99.348 0 64S28.652 0 64 0s64 28.652 64 64-28.652 64-64 64zm2.288-66.912c-.612 3 2.452 2.2 2.452 2.2 12.24-2.8 15.508-14.6 15.508-14.6 3.296-10.612-1.732-17.32-4.232-19.856a7.8 7.8 0 0 0-3.404-2.028c-4.54-1.292-10.528-.12-10.528-.12l-16.936 2.6-2.408.316a5.352 5.352 0 0 0-1.268.328l-2.448.96c12.244-.6 18.16 7 18.16 7 10.412 11.4 5.104 23.2 5.104 23.2zm-.756 6.576c-2.32-2.044-3.18.936-3.176.944-3.784 11.748 4.908 20.52 4.908 20.52 7.64 8.184 16.092 7.364 19.592 6.548a7.75 7.75 0 0 0 3.504-1.832c3.452-3.168 5.472-8.812 5.472-8.812l6.352-15.6.952-2.188c.172-.4.292-.812.36-1.24l.408-2.552C98.188 74.084 88.5 75.2 88.5 75.2c-15.32 2.952-22.968-7.536-22.968-7.536zm-5.54-3.788c2.96-.972.728-3.176.72-3.176-8.58-9.008-20.648-5.904-20.648-5.904C29.036 57.288 25.608 64.9 24.612 68.288a7.468 7.468 0 0 0-.088 3.912c1.108 4.492 5.136 9 5.136 9l10.744 13.092 1.476 1.888a5.2 5.2 0 0 0 .92.916l2.068 1.6c-6.632-10.108-2.856-18.92-2.856-18.92 4.9-14.528 17.98-15.9 17.98-15.9zm8.432.76c-2.932 1.048-.64 3.192-.652 3.192 8.808 8.784 20.792 5.384 20.792 5.384 10.96-2.76 14.192-10.46 15.1-13.872a7.43 7.43 0 0 0 0-3.904c-1.232-4.472-5.368-8.872-5.368-8.872L87.216 33.74l-1.524-1.848a5.344 5.344 0 0 0-.944-.892l-2.112-1.548c6.896 9.936 3.352 18.844 3.352 18.844-4.52 14.64-17.56 16.34-17.56 16.34zm-6.552 2.412c.7-2.984-2.392-2.248-2.392-2.26C47.168 67.284 43.6 79.004 43.6 79.004c-3.56 10.524 1.292 17.348 3.732 19.948a7.775 7.775 0 0 0 3.348 2.108c4.508 1.404 10.52.38 10.52.38l17-2.184L80.612 99a5.4 5.4 0 0 0 1.28-.292l2.468-.9c-12.264.3-17.98-7.44-17.98-7.44-10.112-11.652-4.508-23.32-4.508-23.32zm.436-6.144c2.348 2.012 3.16-.988 3.16-.98 3.616-11.8-5.2-20.448-5.2-20.448-7.756-8.076-16.196-7.144-19.684-6.276a7.8 7.8 0 0 0-3.488 1.88c-3.4 3.212-5.34 8.884-5.34 8.884L25.628 59.66l-.92 2.2c-.16.4-.28.816-.34 1.24L24 65.66c5.56-10.708 15.232-11.956 15.232-11.956 15.268-3.184 23.076 7.2 23.076 7.2zm6.116 3.732s13.04-1.696 17.56-16.34c0 0 3.548-8.908-3.348-18.844L84.748 31c.348.26.668.56.944.892l1.524 1.848 11.08 12.824s4.136 4.4 5.368 8.872a7.43 7.43 0 0 1 0 3.904c-.908 3.412-4.136 11.112-15.1 13.872 0 0-11.984 3.4-20.792-5.384.008 0-2.28-2.144.652-3.192zm-6.552 2.416s-5.604 11.664 4.508 23.316c0 0 5.716 7.74 17.98 7.44l-2.472.9a5.4 5.4 0 0 1-1.276.292l-2.412.256-17 2.184s-6.012 1.028-10.52-.38a7.808 7.808 0 0 1-3.348-2.108c-2.44-2.6-7.292-9.424-3.728-19.948 0 0 3.56-11.72 15.876-14.216 0 .012 3.092-.72 2.392 2.264zm.436-6.148s-7.808-10.384-23.076-7.2c0 0-9.672 1.248-15.232 11.96l.368-2.564c.064-.424.176-.84.344-1.24l.92-2.2 6.12-15.696s1.94-5.672 5.344-8.888a7.8 7.8 0 0 1 3.488-1.876c3.488-.868 11.928-1.8 19.68 6.276 0 0 8.82 8.644 5.208 20.448 0-.008-.816 2.992-3.164.98z"/></svg>