<svg width="64" height="64" viewBox="0 0 128 128" xmlns="http://www.w3.org/2000/svg"><path d="M64 128C28.652 128 0 99.348 0 64S28.652 0 64 0s64 28.652 64 64-28.652 64-64 64zM43 30c2.212 3.268 3.284 7.028 3.26 10.96-4.416.04-8.828.04-13.24.04-4.3 7.68-8.796 15.268-13.02 22.988V64c4.216 7.732 8.696 15.32 13.016 23h11.84v-9.252H40.98A3154.708 3154.708 0 0 1 33.148 64l7.82-13.748h31.468v9.08H57.364v-7.92h-11.36c-.04 12.868.092 25.736-.04 38.588.412 3.772-3.512 5.428-5.46 8h22.388c-3.46-2.788-6.44-6.12-5.816-10.96 13.268-.08 26.52-.012 39.776-.04 3.34-5.732 6.02-12.028 11.148-16.452-5.184-.696-10.42-.416-15.628-.548-.9 2.668-2.028 5.24-3.3 7.76-1.736-.012-3.472-.012-5.196-.012.04-13.296-.068-26.6.012-39.896-.2-2.972 1.856-5.32 3.064-7.852H69.416c2.268 3.24 3.328 7.012 3.26 10.96-5.184.052-10.38.052-15.56 0-.08-3.972 1.204-7.64 3.3-10.96h-17.42zm14.368 38.668h15.068v9.08H57.368v-9.08zM85.028 41v9.252l3.936-.012c1.392 2.44 2.652 4.988 3.288 7.76 5.024-.252 10.072.256 15.056-.4-.092-.304-.264-.932-.36-1.24-4.664-4.16-6.888-10.16-10.12-15.36h-11.8zm-12.18 47.16c.292 4.492-3.088 7.096-5.98 9.84h22.548c-3.06-2.64-6.176-5.4-6.096-9.852-3.488.012-6.988.024-10.472.012z"/></svg>