<svg width="64" height="64" viewBox="0 0 128 128" xmlns="http://www.w3.org/2000/svg"><path d="M64 128C28.652 128 0 99.348 0 64S28.652 0 64 0s64 28.652 64 64-28.652 64-64 64zm9.388-85.868c0-14.08-6.828-26.024-11.948-29.864 0 0-.428-.428-.428.424-.424 26.88-14.08 34.136-21.332 44.376-17.492 22.612-1.28 47.784 15.36 52.48 9.388 2.56-2.132-4.696-3.412-19.628-2.136-18.772 21.76-32.428 21.76-47.788zm8.96 9.388c-.856 3.412-4.268 10.668-8.96 17.492-15.788 22.616-6.828 33.708-1.708 39.68 2.988 3.416 0 0 7.252-3.412.428-.428 14.508-7.68 15.788-24.32 1.708-16.212-8.532-26.452-12.372-29.44z"/></svg>