<svg width="64" height="64" viewBox="0 0 128 128" xmlns="http://www.w3.org/2000/svg"><path d="M64 128C28.652 128 0 99.348 0 64S28.652 0 64 0s64 28.652 64 64-28.652 64-64 64zm-3.972-53.372v5.268c0 .224 0 .452.032.672.28 1.784 1.812 3.032 3.552 2.904a3.392 3.392 0 0 0 3.084-3.42c.008-1.936.004-3.88 0-5.816a.7.7 0 0 0-.156-.4c-.388-.48-.792-.948-1.192-1.416-1.14-1.344-2.276-2.688-3.42-4.024-.384-.448-.848-.584-1.284-.392-.48.208-.624.6-.62 1.112.012 1.84 0 3.676 0 5.512zm.012-36.04c.8-1.236 1.88-1.868 3.328-1.872 1.464 0 2.536.66 3.312 1.988l.02-.192c-.008-3.724.012-7.452-.024-11.176a3.324 3.324 0 0 0-3.932-3.28c-1.56.272-2.712 1.684-2.712 3.368-.008 3.64-.004 7.288-.004 10.928l.012.24zm-.012 50.452v.912c0 3.572-.012 7.144.008 10.716a3.352 3.352 0 0 0 3.128 3.328c1.78.08 3.32-1.22 3.48-3.008.08-.9.052-1.816.052-2.72.008-2.992 0-5.984 0-8.972v-.288c-.788 1.232-1.848 1.896-3.304 1.9-1.46.004-2.548-.628-3.364-1.868zM66.7 53.736l-.004-6.552c0-.28-.024-.572-.084-.848-.368-1.656-1.936-2.832-3.516-2.656a3.36 3.36 0 0 0-3.064 3.368c-.012 2.856-.008 5.716 0 8.572 0 .136.072.296.16.4.488.596.992 1.176 1.492 1.76.968 1.128 1.928 2.264 2.9 3.392a1.236 1.236 0 0 0 1.44.376c.476-.192.676-.536.676-1.168v-6.64zm6.924-13.508v8.668c0 .204.008.408.024.612.16 2.08 2.176 3.528 4.148 2.996 1.516-.412 2.508-1.748 2.508-3.4V37.92c0-2.212.012-4.428 0-6.644-.012-2.352-2.168-3.984-4.332-3.3-1.424.448-2.34 1.76-2.344 3.368v8.88zM53.448 83.04c0-3.448.008-6.9-.004-10.348a3.336 3.336 0 0 0-4.152-3.248 3.388 3.388 0 0 0-2.512 3.328v19.012c0 .572-.012 1.144 0 1.716.06 1.996 1.972 3.56 3.896 3.188a3.38 3.38 0 0 0 2.768-3.388c.008-3.42 0-6.84 0-10.26zm0-37.784v-3.28c0-3.592.008-7.184-.004-10.78a3.34 3.34 0 0 0-4.056-3.28 3.384 3.384 0 0 0-2.608 3.368v22.02c0 2.024-.016 4.044 0 6.064.02 2.12 2.02 3.712 4.044 3.24a3.376 3.376 0 0 0 2.62-3.36V45.256zM73.624 78v15.004c0 .216.008.428.024.64.168 2.088 2.216 3.536 4.192 2.968 1.508-.432 2.464-1.76 2.464-3.432V62.588c-.08-2.456-2.512-4.056-4.68-3.052-1.352.628-2 1.76-2 3.272V78zM94 62.536V38.708c-.004-2.456-2.392-4.108-4.592-3.192-1.304.544-2.08 1.772-2.08 3.312V86.2l.004.304c.056 2.052 2.016 3.624 3.984 3.196a3.4 3.4 0 0 0 2.68-3.408v-23.76zM40.668 62.5V46.452c0-2.624.016-5.248-.004-7.868a3.336 3.336 0 0 0-4.18-3.208c-1.504.416-2.48 1.744-2.48 3.38L34 86.284v.212c.056 2.1 2.056 3.676 4.06 3.2 1.572-.376 2.608-1.72 2.608-3.404V62.496z"/></svg>