<svg width="64" height="64" viewBox="0 0 128 128" xmlns="http://www.w3.org/2000/svg"><path d="M64 128C28.652 128 0 99.348 0 64S28.652 0 64 0s64 28.652 64 64-28.652 64-64 64zM59.248 24c-4.016 11.56-8.8 22.86-12.988 34.36 2.908 5.192 5.668 10.46 8.612 15.624L77.052 35.3c-6.02-3.64-11.732-7.748-17.804-11.3zM40 104c6.38-.136 12.752-.056 19.132-.056C68.68 86.98 78.376 70.092 88 53.16a6481.562 6481.562 0 0 1-9.984-17.48C65.6 58.58 52.556 81.164 40 104zm20.328-.092c8.48-4.996 16.956-10 25.38-15.1-3.188-4.128-6.448-8.212-9.66-12.32-5.388 9.056-10.4 18.32-15.72 27.42z"/></svg>