<svg width="64" height="64" viewBox="0 0 128 128" xmlns="http://www.w3.org/2000/svg"><path d="M64 128C28.652 128 0 99.348 0 64S28.652 0 64 0s64 28.652 64 64-28.652 64-64 64zm-.84-112C37.116 16 16 37.116 16 63.16c0 26.044 21.116 47.16 47.16 47.16 26.044 0 47.16-21.116 47.16-47.16-.044-26.028-21.132-47.116-47.16-47.16zm0 88c-22.528 0-40.792-18.26-40.8-40.788-.008-22.528 18.244-40.8 40.772-40.812 22.528-.016 40.804 18.232 40.828 40.76-.024 22.524-18.276 40.776-40.8 40.8v.04zM42.32 58.96v-14.8h10.4v14.8h7.52V42.32a4 4 0 0 0-4.6-4.68H39.16c-2.96 0-4.44 1.56-4.44 4.68v16.64h7.6zm10.4 4.88l.04-.08h-18v20a4 4 0 0 0 4.4 4.72h16.56a4 4 0 0 0 4.6-4.64v-20h-7.6zm31.2.28H73.6v-19.6h10v10.16h8v-12A4 4 0 0 0 86.8 38H70.4a4 4 0 0 0-4.68 4.68v41.44a4 4 0 0 0 4.56 4.64h16.68a4 4 0 0 0 4.64-4.64v-20h-7.68z"/></svg>