<svg width="64" height="64" viewBox="0 0 128 128" xmlns="http://www.w3.org/2000/svg"><path d="M64 128C28.652 128 0 99.348 0 64S28.652 0 64 0s64 28.652 64 64-28.652 64-64 64zm-4.56-81.892c-1.272.344-1.78 1.684-2.372 2.764-5 9.544-10.08 19.04-15.08 28.496a2.784 2.784 0 0 0 .384 3.368c.972 1.08 2.496.692 3.768.78 1.312 0 3.008.212 3.812-1.124 1.652-2.936 3.092-6.044 4.744-9.024.972-1.816 3.896-1.512 4.572.388 1.144 2.892 2.08 5.916 3.264 8.808.8 1.9 3.724 1.9 4.616.088 5.336-9.976 10.712-19.908 16.048-29.88 1.104-1.684-.336-4.144-2.284-4.016-1.864.172-4.32-.692-5.68 1.08-1.648 2.848-3 5.828-4.696 8.636-1.016 1.552-3.6 1.336-4.36-.348-1.276-2.804-2.376-5.696-3.6-8.504-.512-1.208-1.908-1.9-3.136-1.512zm-17.452.736c-.972.04-1.692.864-2.116 1.68a16062.95 16062.95 0 0 1-15.5 29.104c-1.1 1.6.424 3.972 2.244 3.888 1.48 0 3.008.128 4.488-.088 1.272-.344 1.736-1.728 2.332-2.76 4.952-9.332 9.952-18.656 14.908-28.024.8-1.512-.256-3.628-1.908-3.8a38.2 38.2 0 0 0-4.448 0zm52.56.084c-1.016.348-1.44 1.468-1.904 2.332-.808 1.684-1.824 3.28-2.544 5.008-.8 2.16 1.948 4.36 3.812 3.068 2.964-1.816 5.844-3.8 8.768-5.656 1.44-.736 1.78-2.936.636-4.104-.932-1.12-2.544-.864-3.812-.908-1.652.132-3.348-.216-4.956.26zm-14.02 25.82c-.844.388-1.228 1.384-1.608 2.2-.508 1.08-1.144 2.076-1.568 3.2-.592 1.552.68 3.452 2.288 3.452 3.22.04 6.48 0 9.74 0 1.524.128 2.84-1.38 2.668-2.936-.04-1.164-1.056-1.984-2.032-2.416-2.288-1.08-4.532-2.292-6.776-3.412-.804-.432-1.864-.604-2.712-.088z"/></svg>