<svg width="64" height="64" viewBox="0 0 128 128" xmlns="http://www.w3.org/2000/svg"><path d="M64 128C28.652 128 0 99.348 0 64S28.652 0 64 0s64 28.652 64 64-28.652 64-64 64zM53.784 49.148c3.036 0 5.5-2.404 5.5-5.368 0-2.968-2.464-5.372-5.5-5.372-3.04 0-5.5 2.404-5.5 5.372 0 2.964 2.46 5.368 5.5 5.368zm15.708-6.136c3.04 0 5.5-2.404 5.5-5.368 0-2.968-2.46-5.372-5.5-5.372-3.036 0-5.5 2.404-5.5 5.372 0 2.964 2.464 5.368 5.5 5.368zm6.292 36.82c3.036 0 5.5-2.4 5.5-5.368s-2.464-5.372-5.5-5.372c-3.04 0-5.5 2.404-5.5 5.372s2.46 5.368 5.5 5.368zm-52.64-7.672a3.104 3.104 0 0 0 3.14-3.068c0-1.692-1.408-3.068-3.144-3.068S20 67.4 20 69.092c0 1.696 1.408 3.068 3.14 3.068zm8.64 19.952c1.3 0 2.36-1.032 2.36-2.304 0-1.272-1.06-2.3-2.36-2.3s-2.36 1.028-2.36 2.3c0 1.272 1.056 2.304 2.36 2.304zm25.14 15.34c1.304 0 2.36-1.032 2.36-2.304s-1.056-2.3-2.36-2.3-2.36 1.028-2.36 2.3 1.056 2.304 2.36 2.304zm40.86-13.808c1.3 0 2.36-1.032 2.36-2.304s-1.06-2.304-2.36-2.304c-1.304 0-2.36 1.032-2.36 2.304s1.056 2.304 2.36 2.304zm-25.144-4.6c1.304 0 2.36-1.032 2.36-2.304 0-1.272-1.056-2.3-2.36-2.3s-2.36 1.028-2.36 2.3c0 1.272 1.06 2.304 2.36 2.304zm14.144-10.74c1.3 0 2.36-1.032 2.36-2.304s-1.06-2.3-2.36-2.3c-1.304 0-2.36 1.028-2.36 2.3s1.056 2.304 2.36 2.304zm-16.5 29.148c1.732 0 3.14-1.376 3.14-3.068s-1.408-3.068-3.14-3.068c-1.736 0-3.144 1.372-3.144 3.068s1.408 3.068 3.144 3.068zm14.14-38.36a3.104 3.104 0 0 0 3.14-3.068 3.104 3.104 0 0 0-3.14-3.068 3.104 3.104 0 0 0-3.14 3.068c0 1.696 1.404 3.068 3.14 3.068zm4.72 30.688a3.104 3.104 0 0 0 3.14-3.068 3.104 3.104 0 0 0-3.144-3.068A3.104 3.104 0 0 0 86 96.712c0 1.692 1.408 3.068 3.14 3.068zM27.06 84.44c2.172 0 3.928-1.72 3.928-3.836s-1.76-3.832-3.928-3.832-3.928 1.72-3.928 3.832 1.76 3.836 3.928 3.836zm37.72 15.34c3.036 0 5.5-2.404 5.5-5.372s-2.464-5.372-5.5-5.372c-3.04 0-5.5 2.408-5.5 5.372s2.46 5.372 5.5 5.372zM34.92 73.7c3.04 0 5.5-2.408 5.5-5.372s-2.464-5.372-5.5-5.372-5.5 2.404-5.5 5.372 2.46 5.372 5.5 5.372zm29.86 12.268c2.168 0 3.928-1.716 3.928-3.832s-1.76-3.832-3.928-3.832c-2.172 0-3.932 1.716-3.932 3.832s1.76 3.832 3.932 3.832zM45.92 52.224c1.304 0 2.36-1.032 2.36-2.304s-1.056-2.304-2.36-2.304-2.36 1.032-2.36 2.304 1.056 2.304 2.36 2.304zm14.928 9.2c2.6 0 4.712-2.06 4.712-4.6 0-2.544-2.108-4.608-4.712-4.608-2.6 0-4.712 2.064-4.712 4.604 0 2.544 2.112 4.608 4.712 4.608zm11 4.6a3.104 3.104 0 0 0 3.14-3.068 3.104 3.104 0 0 0-3.14-3.068 3.104 3.104 0 0 0-3.14 3.068c0 1.696 1.404 3.068 3.14 3.068zm5.5-38.352c1.304 0 2.36-1.028 2.36-2.3s-1.056-2.304-2.36-2.304c-1.304 0-2.36 1.032-2.36 2.304s1.056 2.3 2.36 2.3zm-11-.004a3.88 3.88 0 0 0 3.932-3.836A3.88 3.88 0 0 0 66.348 20a3.88 3.88 0 0 0-3.928 3.832c0 2.12 1.76 3.836 3.928 3.836zm2.36 24.548c1.736 0 3.14-1.372 3.14-3.068s-1.404-3.068-3.14-3.068c-1.736 0-3.14 1.376-3.14 3.068s1.404 3.068 3.14 3.068zm-29.86 33.76c2.6 0 4.712-2.06 4.712-4.604s-2.108-4.604-4.712-4.604c-2.6 0-4.712 2.06-4.712 4.6 0 2.548 2.112 4.608 4.712 4.608zm45.572 4.6c2.6 0 4.712-2.064 4.712-4.608 0-2.54-2.112-4.6-4.712-4.6s-4.712 2.06-4.712 4.6c0 2.544 2.108 4.608 4.712 4.608zm-6.28 10.74c2.6 0 4.708-2.064 4.708-4.604 0-2.544-2.108-4.608-4.712-4.608s-4.712 2.064-4.712 4.608c0 2.54 2.112 4.6 4.712 4.6zm-36.932 0c3.04 0 5.5-2.404 5.5-5.372s-2.464-5.368-5.5-5.368c-3.04 0-5.5 2.4-5.5 5.368s2.464 5.372 5.5 5.372zm-16.5-39.888c2.6 0 4.712-2.064 4.712-4.608 0-2.54-2.112-4.6-4.712-4.6S20 54.28 20 56.816c0 2.544 2.108 4.608 4.712 4.608zm23.572 7.664c3.472 0 6.288-2.744 6.288-6.136 0-3.388-2.816-6.136-6.288-6.136-3.476 0-6.292 2.748-6.292 6.136 0 3.392 2.816 6.136 6.292 6.136zm33-9.2c3.472 0 6.288-2.748 6.288-6.14 0-3.388-2.816-6.136-6.288-6.136-3.476 0-6.292 2.748-6.292 6.136 0 3.392 2.816 6.136 6.292 6.136zm17.28 26.084c2.6 0 4.712-2.06 4.712-4.604s-2.108-4.604-4.712-4.604-4.712 2.06-4.712 4.6c0 2.548 2.112 4.608 4.712 4.608zm4.72-18.412c2.6 0 4.708-2.064 4.708-4.608 0-2.54-2.108-4.6-4.708-4.6-2.604 0-4.712 2.06-4.712 4.6 0 2.544 2.108 4.608 4.712 4.608zm-18.072-21.48c2.168 0 3.928-1.72 3.928-3.84s-1.76-3.832-3.928-3.832c-2.172 0-3.928 1.72-3.928 3.836s1.76 3.832 3.928 3.832zm.78-12.276c1.736 0 3.144-1.372 3.144-3.068s-1.408-3.068-3.144-3.068c-1.732 0-3.14 1.376-3.14 3.068s1.408 3.068 3.14 3.068zm7.072 3.068c1.304 0 2.36-1.032 2.36-2.3s-1.056-2.304-2.36-2.304-2.36 1.032-2.36 2.304 1.056 2.3 2.36 2.3zm12.576 18.416c1.304 0 2.36-1.032 2.36-2.304s-1.056-2.304-2.36-2.304-2.36 1.032-2.36 2.304 1.06 2.304 2.36 2.304zM38.064 35.344c1.304 0 2.36-1.028 2.36-2.3s-1.056-2.304-2.36-2.304-2.36 1.032-2.36 2.304 1.056 2.3 2.36 2.3zm-3.14 19.948c1.304 0 2.36-1.032 2.36-2.304s-1.056-2.304-2.36-2.304-2.36 1.032-2.36 2.304 1.056 2.304 2.36 2.304zm6.288 3.068c1.304 0 2.36-1.032 2.36-2.304s-1.056-2.304-2.36-2.304c-1.304 0-2.36 1.032-2.36 2.304s1.056 2.304 2.36 2.304zm7.852-29.16c1.304 0 2.36-1.032 2.36-2.304s-1.056-2.3-2.36-2.3-2.36 1.028-2.36 2.3 1.056 2.304 2.36 2.304zm56.576 46.036c1.304 0 2.36-1.032 2.36-2.304s-1.056-2.3-2.36-2.3-2.36 1.028-2.36 2.3 1.06 2.304 2.36 2.304zm-7.856-24.552c3.036 0 5.5-2.4 5.5-5.368s-2.464-5.372-5.5-5.372c-3.04 0-5.5 2.404-5.5 5.372s2.46 5.368 5.5 5.368zm-4.72 12.272c2.172 0 3.928-1.716 3.928-3.832s-1.76-3.832-3.928-3.832-3.928 1.716-3.928 3.832 1.76 3.832 3.928 3.832zM39.64 46.08c2.172 0 3.932-1.716 3.932-3.832s-1.76-3.836-3.932-3.836c-2.168 0-3.928 1.72-3.928 3.836s1.76 3.832 3.928 3.832zm17.28-10.74a3.88 3.88 0 0 0 3.932-3.832 3.88 3.88 0 0 0-3.928-3.836 3.88 3.88 0 0 0-3.932 3.836c0 2.116 1.76 3.832 3.932 3.832zm-10.208 1.536c1.736 0 3.14-1.372 3.14-3.068s-1.404-3.068-3.14-3.068c-1.736 0-3.14 1.376-3.14 3.068s1.404 3.068 3.14 3.068zM29.424 49.148a3.104 3.104 0 0 0 3.14-3.068c0-1.692-1.404-3.068-3.14-3.068s-3.14 1.376-3.14 3.068c0 1.696 1.404 3.068 3.14 3.068zm66 24.552a3.104 3.104 0 0 0 3.14-3.068 3.104 3.104 0 0 0-3.14-3.068 3.104 3.104 0 0 0-3.14 3.068c0 1.692 1.404 3.068 3.14 3.068zM61.64 75.236c3.04 0 5.5-2.404 5.5-5.372s-2.46-5.368-5.5-5.368-5.5 2.4-5.5 5.368 2.464 5.372 5.5 5.372zm-10.216 3.068a3.104 3.104 0 0 0 3.14-3.068 3.104 3.104 0 0 0-3.14-3.068 3.104 3.104 0 0 0-3.14 3.068c0 1.692 1.404 3.068 3.14 3.068zm1.568 12.272c2.604 0 4.712-2.064 4.712-4.608 0-2.54-2.108-4.6-4.712-4.6s-4.708 2.06-4.708 4.6c0 2.544 2.108 4.608 4.708 4.608zm0 9.2a3.104 3.104 0 0 0 3.144-3.064 3.104 3.104 0 0 0-3.144-3.068 3.104 3.104 0 0 0-3.14 3.068c0 1.692 1.408 3.068 3.14 3.068zM48.28 69.092c-3.472 0-6.288-2.744-6.288-6.136 0-3.388 2.816-6.136 6.292-6.136 3.472 0 6.288 2.748 6.288 6.136 0 3.392-2.816 6.136-6.288 6.136zm33-9.2c-3.472 0-6.288-2.748-6.288-6.14 0-3.388 2.816-6.136 6.292-6.136 3.472 0 6.288 2.748 6.288 6.136 0 3.392-2.816 6.136-6.288 6.136zm17.284 26.084c-2.6 0-4.712-2.06-4.712-4.604s2.112-4.604 4.712-4.604 4.712 2.06 4.712 4.6c0 2.548-2.108 4.608-4.712 4.608zm4.72-18.412c-2.604 0-4.712-2.064-4.712-4.608 0-2.54 2.108-4.6 4.712-4.6 2.6 0 4.708 2.06 4.708 4.6 0 2.544-2.108 4.608-4.708 4.608zm-18.072-21.48c-2.172 0-3.928-1.72-3.928-3.84s1.76-3.832 3.928-3.832 3.928 1.72 3.928 3.836-1.76 3.832-3.928 3.832zm.78-12.276c-1.732 0-3.14-1.372-3.14-3.068s1.408-3.068 3.14-3.068c1.736 0 3.144 1.376 3.144 3.068s-1.408 3.068-3.144 3.068zm7.072 3.068c-1.304 0-2.36-1.032-2.36-2.3s1.056-2.304 2.36-2.304 2.36 1.032 2.36 2.304-1.056 2.3-2.36 2.3zm12.576 18.416c-1.3 0-2.36-1.032-2.36-2.304s1.06-2.304 2.36-2.304 2.36 1.032 2.36 2.304-1.056 2.304-2.36 2.304zM38.064 35.344c-1.304 0-2.36-1.028-2.36-2.3s1.056-2.304 2.36-2.304 2.36 1.032 2.36 2.304-1.056 2.3-2.36 2.3zm-3.14 19.948c-1.304 0-2.36-1.032-2.36-2.304s1.056-2.304 2.36-2.304 2.36 1.032 2.36 2.304-1.056 2.304-2.36 2.304zm6.288 3.068c-1.304 0-2.36-1.032-2.36-2.304s1.056-2.304 2.36-2.304c1.304 0 2.36 1.032 2.36 2.304s-1.056 2.304-2.36 2.304zm7.852-29.16c-1.304 0-2.36-1.032-2.36-2.304s1.056-2.3 2.36-2.3 2.36 1.028 2.36 2.3-1.056 2.304-2.36 2.304zm56.576 46.036c-1.3 0-2.36-1.032-2.36-2.304s1.06-2.3 2.36-2.3 2.36 1.028 2.36 2.3-1.056 2.304-2.36 2.304zm-7.856-24.552c-3.04 0-5.5-2.4-5.5-5.368s2.46-5.372 5.5-5.372c3.036 0 5.5 2.404 5.5 5.372s-2.464 5.368-5.5 5.368zm-4.72 12.272c-2.168 0-3.928-1.716-3.928-3.832s1.76-3.832 3.928-3.832c2.172 0 3.928 1.716 3.928 3.832s-1.76 3.832-3.928 3.832zM39.64 46.08c-2.168 0-3.928-1.716-3.928-3.832s1.76-3.836 3.928-3.836c2.172 0 3.932 1.72 3.932 3.836s-1.76 3.832-3.932 3.832zm17.28-10.74a3.88 3.88 0 0 1-3.928-3.832c0-2.12 1.76-3.836 3.932-3.836a3.88 3.88 0 0 1 3.928 3.836 3.88 3.88 0 0 1-3.928 3.832zm-10.208 1.536c-1.736 0-3.14-1.372-3.14-3.068s1.404-3.068 3.14-3.068c1.736 0 3.14 1.376 3.14 3.068s-1.404 3.068-3.14 3.068zM29.424 49.148a3.104 3.104 0 0 1-3.14-3.068c0-1.692 1.404-3.068 3.14-3.068s3.14 1.376 3.14 3.068a3.104 3.104 0 0 1-3.14 3.068zm66 24.552a3.104 3.104 0 0 1-3.14-3.068c0-1.696 1.404-3.068 3.14-3.068 1.736 0 3.14 1.372 3.14 3.068a3.104 3.104 0 0 1-3.14 3.068zM61.64 75.236c-3.04 0-5.5-2.404-5.5-5.372s2.464-5.368 5.5-5.368c3.04 0 5.5 2.4 5.5 5.368s-2.46 5.372-5.5 5.372zm-10.216 3.068a3.104 3.104 0 0 1-3.14-3.068c0-1.696 1.404-3.068 3.14-3.068 1.736 0 3.14 1.372 3.14 3.068a3.104 3.104 0 0 1-3.14 3.068zm1.568 12.272c-2.6 0-4.708-2.064-4.708-4.608 0-2.54 2.108-4.6 4.708-4.6s4.712 2.06 4.712 4.6c0 2.544-2.108 4.608-4.712 4.608zm0 9.2a3.104 3.104 0 0 1-3.14-3.064c0-1.696 1.408-3.068 3.14-3.068 1.736 0 3.144 1.372 3.144 3.068a3.104 3.104 0 0 1-3.144 3.068z"/></svg>