<svg width="64" height="64" viewBox="0 0 128 128" xmlns="http://www.w3.org/2000/svg"><path d="M28.104 76.036c5.408 15.172 19.848 26.032 36.808 26.032a39.04 39.04 0 0 0 8.644-.964A10.828 10.828 0 0 0 83.64 108a10.848 10.848 0 0 0 10.82-10.872c0-2.392-.768-4.6-2.072-6.4A39.244 39.244 0 0 0 104 62.796a39.236 39.236 0 0 0-10.464-26.744 10.84 10.84 0 0 0 1.304-5.176A10.848 10.848 0 0 0 84.02 20a10.8 10.8 0 0 0-9.008 4.84 38.968 38.968 0 0 0-10.1-1.32c-18.708 0-34.344 13.204-38.184 30.844A10.848 10.848 0 0 0 16 65.24a10.848 10.848 0 0 0 12.104 10.8zm1.96-.42a10.872 10.872 0 0 0 7.58-10.38c0-5.352-3.852-9.8-8.92-10.704 3.74-16.616 18.52-29.02 36.188-29.02 3.152 0 6.212.392 9.132 1.136a10.88 10.88 0 0 0-.848 4.224A10.848 10.848 0 0 0 84.02 41.748c3.38 0 6.4-1.56 8.38-4a37.244 37.244 0 0 1 9.62 25.044 37.256 37.256 0 0 1-10.944 26.44 10.76 10.76 0 0 0-7.44-2.98 10.848 10.848 0 0 0-10.632 12.936 37.068 37.068 0 0 1-8.092.888c-16.008 0-29.648-10.188-34.852-24.46zM64 128C28.652 128 0 99.348 0 64S28.652 0 64 0s64 28.652 64 64-28.652 64-64 64zm.912-54.32a10.86 10.86 0 0 0 10.836-10.888c0-6.012-4.852-10.884-10.836-10.884S54.08 56.78 54.08 62.792A10.86 10.86 0 0 0 64.912 73.68z"/></svg>