<svg width="64" height="64" viewBox="0 0 128 128" xmlns="http://www.w3.org/2000/svg"><path d="M64 128C28.652 128 0 99.348 0 64S28.652 0 64 0s64 28.652 64 64-28.652 64-64 64zM33.652 47.676c-.132-.08-.24-.016-.24.14v9.208a.536.536 0 00.24.42l11.64 6.728a.536.536 0 01.24.42v33.32a.54.54 0 00.248.42l7.972 4.6c.132.08.24.016.24-.14v-43.08a.536.536 0 00-.24-.424l-20.1-11.612zm60.696 0L74.252 59.288a.54.54 0 00-.244.42v43.084c0 .16.108.22.24.14l7.976-4.6a.54.54 0 00.24-.424v-33.32a.536.536 0 01.244-.42l11.64-6.724a.536.536 0 00.24-.42v-9.208c0-.156-.108-.216-.24-.14zm1.576-17.664c0-.152-.112-.216-.24-.14l-31.44 18.184a.536.536 0 01-.488 0L32.32 29.872c-.132-.08-.24-.012-.24.14v9.208a.536.536 0 00.24.42l27.216 15.736a.54.54 0 01.24.42v57.14a.536.536 0 00.244.424l3.74 2.16a.552.552 0 00.488 0l3.74-2.16a.536.536 0 00.24-.424V55.8a.54.54 0 01.244-.42L95.68 39.64a.536.536 0 00.24-.424v-9.2zm-31.78 23.264c-.032 0-.044-.024-.028-.052.016-.028.04-.028.056 0s0 .052-.028.052zm-4.096-24.468a.352.352 0 00-.276.336v11.492a.54.54 0 00.244.42l3.74 2.16c.152.08.332.08.488 0l3.74-2.16a.54.54 0 00.24-.42V29.14a.348.348 0 00-.272-.336l-3.68-.676a1.824 1.824 0 00-.548 0l-3.676.68z"/></svg>