<svg width="64" height="64" viewBox="0 0 128 128" xmlns="http://www.w3.org/2000/svg"><path d="M54.308 88.048l-14.868-8.56v21.824L47 96.948l14.88 8.56V83.68l-7.572 4.368zm-13.4-38.816l.096.056v21.748l18.92-10.9-7.768-4.488.048-.024 10.904 6.288V40.12l2.968 1.708V20L47.124 30.928 63.076 40.1l-8.032 4.62-10.888-6.292v12.6-21.752L25.2 40.176l15.68 9.044-18.92 10.916 18.948 10.9v-21.8zM64 128C28.652 128 0 99.348 0 64S28.652 0 64 0s64 28.652 64 64-28.652 64-64 64zm2.076-108v21.828l18.952-10.9L66.076 20zm18.952 10.928v21.828l18.948-10.928-18.948-10.9zm-18.952 10.9v21.828l18.952-10.9-18.952-10.928zm18.952 10.928v21.828l18.948-10.928-18.948-10.9zm-18.952 10.9v21.828l18.952-10.9-18.952-10.928zm18.952 10.928v21.828l18.948-10.928-18.948-10.9zM17.092 41.092V62.92l18.952-10.928-18.952-10.9zm9.86 21.92V84.84L45.9 73.912l-18.948-10.9zm38.972 25.872v21.828l18.92-10.932-18.92-10.896zm.152-25.228l-18.92 10.928 18.92 10.9V63.656zm-39.124 5.08L8 79.64l18.952 10.932V68.744zm77.024-26.908L85.028 52.756l18.948 10.9V41.828zM85.028 52.756l-18.952 10.9 18.952 10.928V52.76zm18.948 10.9L85.028 74.584l18.948 10.9V63.656zM85.028 74.584l-18.952 10.9 18.952 10.928V74.584zm0-43.656l-18.952 10.9 18.952 10.928V30.928z"/></svg>