<svg width="64" height="64" viewBox="0 0 128 128" xmlns="http://www.w3.org/2000/svg"><path d="M64 128C28.652 128 0 99.348 0 64S28.652 0 64 0s64 28.652 64 64-28.652 64-64 64zM47.32 40.48a30.48 30.48 0 018-20.48c1.4-1.4 1.56-1.68 1.56-2.8 0-1.12 0-1.2-.84-1.2a22.52 22.52 0 00-3.08.56A48.4 48.4 0 0023.8 36.84a45.12 45.12 0 00-6.8 16 56.28 56.28 0 00-.72 16 46.68 46.68 0 0016.64 30.28c4.92 4 10.44 7.2 10.44 5.76a5.72 5.72 0 00-1.28-1.64 25.36 25.36 0 01-6.36-20.36 29.08 29.08 0 0113.6-22.4 22.32 22.32 0 013.08-1.84c.6 0 .24-1.2-1.24-4a27.64 27.64 0 01-3.84-14.16zm62.04 12.48a48 48 0 00-24.32-32.64c-2.24-1.24-3.36-1.52-3.36-.76a5.6 5.6 0 00.96 1.76 22 22 0 014 12 16 16 0 01-4 12.48 4.32 4.32 0 01-6.04.24C75 44.88 75 44.08 76 42.6A17.44 17.44 0 0079 32a10.2 10.2 0 00-2.96-8.28 7.72 7.72 0 00-7.76-2.04 12.68 12.68 0 00-7.68 9.2A36.6 36.6 0 0059 40a29.64 29.64 0 003.4 13.6 27.68 27.68 0 005.64 6.4c.44.288.828.64 1.16 1.04a3.52 3.52 0 01-1.32.68A25.64 25.64 0 0054.6 76.56a28.6 28.6 0 00-1.92 11.8 13.72 13.72 0 004 10.28 13.28 13.28 0 0011.2 3A21.08 21.08 0 0081.72 95c1.64-1.76 1.96-1.96 2.28-1.56.32.4.24.64-.36 1.64a30 30 0 01-17.08 13.52c-1.4.36-2 .64-2 .96 0 1.04 8.76-.4 14.08-2.28a48.4 48.4 0 0029.2-29.84 37.72 37.72 0 002.2-14.88 37.88 37.88 0 00-.68-9.6z"/></svg>