<svg width="64" height="64" viewBox="0 0 128 128" xmlns="http://www.w3.org/2000/svg"><path d="M64 128C28.652 128 0 99.348 0 64S28.652 0 64 0s64 28.652 64 64-28.652 64-64 64zm32.992-50.6V50.692a4.612 4.612 0 0 0-1.664-8.932 4.616 4.616 0 0 0-3.116 1.188L68.9 29.6a4.64 4.64 0 0 0-4.548-5.6 4.64 4.64 0 0 0-4.6 5.36l-23.88 13.68a4.68 4.68 0 0 0-5.224-.828 4.611 4.611 0 0 0-2.632 4.552 4.62 4.62 0 0 0 3.36 4.052V77.28a4.612 4.612 0 0 0 1.288 9.056c.944 0 1.86-.28 2.632-.816l12.392 7.088v.14h.268l11.76 6.732a4.644 4.644 0 0 0 4.756 4.52 4.632 4.632 0 0 0 4.536-5.072l24.12-13.16a4.668 4.668 0 0 0 4.6-.076A4.593 4.593 0 0 0 100 81.72a4.664 4.664 0 0 0-3.008-4.32zM80.52 66.98h-.016l-.02-.108-.016-.248-.556-.268-3.492-2.08 3.652-2.18.576-.268.036-1.384h.016V39.308l10.132 5.808a4.768 4.768 0 0 0-.176 1.26c0 2.2 1.568 4.096 3.74 4.532v26.28a4.64 4.64 0 0 0-3.188 6.696L80.52 89.712zM64.36 33.236c1.248 0 2.44-.5 3.312-1.388L78.12 37.84v22.428l-4.208 2.52-5.68-3.372a4.1 4.1 0 0 0-4.064-4.708 4.1 4.1 0 0 0-4.04 4.868l-5.5 3.232-4.348-2.592V37.764l10.6-6.076a4.658 4.658 0 0 0 3.472 1.548zm2.72 33.688a4.14 4.14 0 0 0-5.712-.088l-4.26-2.54 4.28-2.484a4.14 4.14 0 0 0 5.672-.092l4.352 2.596zM36.968 83.512c.512-1.212.48-2.584-.096-3.772s-1.624-2.076-2.896-2.44V50.8c2.4-.684 3.824-3.14 3.204-5.54l10.512-6.024v21.74h.016v.852l1.4.712 3.004 1.776-3.328 1.952-.896.532-.18.18-.016.708v21.968zM64.36 94.684a4.648 4.648 0 0 0-3.992 2.24l-10.1-5.792V68.276l4.296-2.504 5.568 3.304c-.04.24-.064.48-.072.728 0 2.256 1.844 4.08 4.12 4.08s4.12-1.824 4.12-4.08a3.296 3.296 0 0 0-.056-.604l5.676-3.412 4.028 2.4v22.944l-9.88 5.4a4.624 4.624 0 0 0-3.708-1.848z"/></svg>