<svg width="64" height="64" viewBox="0 0 128 128" xmlns="http://www.w3.org/2000/svg"><path d="M64 128C28.652 128 0 99.348 0 64S28.652 0 64 0s64 28.652 64 64-28.652 64-64 64zm0-24c2.592 0 5.136-.696 7.376-2.02L92.6 89.5a15.188 15.188 0 0 0 7.4-13.04V51.54a15.14 15.14 0 0 0-7.4-13.036l-21.224-12.48A14.34 14.34 0 0 0 64.032 24c-2.6 0-5.16.7-7.408 2.02L35.4 38.504A15.188 15.188 0 0 0 28 51.54v24.92a15.14 15.14 0 0 0 7.4 13.04l21.224 12.48A14.527 14.527 0 0 0 64 104zM51.792 78.284a5.49 5.49 0 0 0 3.924 1.672c3.06 0 5.54-2.524 5.54-5.64V42.38h5.528v18.784c.004 3.104 2.48 5.62 5.528 5.628a5.5 5.5 0 0 0 3.932-1.664l3.928 4a10.652 10.652 0 0 1-7.86 3.248 10.86 10.86 0 0 1-5.528-1.504v3.408c-.008 6.236-4.972 11.284-11.096 11.292a10.76 10.76 0 0 1-7.828-3.288z"/></svg>