<svg width="64" height="64" viewBox="0 0 128 128" xmlns="http://www.w3.org/2000/svg"><path d="M64 128C28.652 128 0 99.348 0 64S28.652 0 64 0s64 28.652 64 64-28.652 64-64 64zm14.544-75.88c1.4 0 2.532-1.112 2.532-2.48v-1.468a2.504 2.504 0 0 0-2.532-2.48H77.04a2.504 2.504 0 0 0-2.532 2.48v3.944zm-23.74 0v-3.948a2.504 2.504 0 0 0-2.532-2.48h-1.5a2.504 2.504 0 0 0-2.532 2.48v1.468c0 1.368 1.132 2.48 2.532 2.48zm-4.032 26.332h1.5c1.4 0 2.532-1.108 2.532-2.476v-3.948h-4.032a2.504 2.504 0 0 0-2.532 2.48v1.468c0 1.368 1.132 2.48 2.532 2.48zm26.268 0h1.504c1.4 0 2.532-1.108 2.532-2.476v-1.468a2.504 2.504 0 0 0-2.532-2.48h-4.04v3.948c0 1.368 1.136 2.48 2.536 2.48zm-13.136-32.12h1.504c1.4 0 2.532-1.104 2.532-2.472v-1.472a2.504 2.504 0 0 0-2.532-2.476h-1.504a2.504 2.504 0 0 0-2.532 2.48v1.468c0 1.368 1.136 2.476 2.532 2.476zm0 39.188h1.504c1.4 0 2.532-1.112 2.532-2.48v-1.468a2.504 2.504 0 0 0-2.532-2.48h-1.504a2.504 2.504 0 0 0-2.532 2.48v1.472c0 1.364 1.136 2.476 2.532 2.476zm19.704-19.916h1.5c1.4 0 2.532-1.108 2.532-2.476V61.66a2.504 2.504 0 0 0-2.532-2.48h-1.5a2.504 2.504 0 0 0-2.532 2.48v1.468c0 1.368 1.132 2.48 2.532 2.48zm-40.06 0h1.5c1.4 0 2.536-1.108 2.536-2.476V61.66a2.504 2.504 0 0 0-2.536-2.48h-1.5a2.504 2.504 0 0 0-2.532 2.48v1.468c0 1.368 1.132 2.48 2.532 2.48zm29.14-6.176a1.808 1.808 0 0 0 1.82-1.8V52.76h-5.012a1.808 1.808 0 0 0-1.82 1.8v1.6c0 1.8-1.388 3.36-3.216 3.36a3.448 3.448 0 0 1-3.4-3.36v-1.668a1.744 1.744 0 0 0-1.756-1.732h-4.5v19.912h4.464A1.78 1.78 0 0 0 61.06 70.9v-1.496c0-1.904 1.42-3.5 3.248-3.5a3.4 3.4 0 0 1 3.368 3.336v1.648c0 .984.808 1.784 1.804 1.784h5.028v-4.924a1.796 1.796 0 0 0-1.808-1.784h-1.5c-1.828 0-3.524-1.464-3.524-3.268a3.296 3.296 0 0 1 3.312-3.268h1.7zm1.924 26.26a2.232 2.232 0 0 0-1.24 2.94 2.32 2.32 0 0 0 3 1.216 2.228 2.228 0 0 0 1.24-2.936 2.32 2.32 0 0 0-3-1.22zM53.6 35.588a2.232 2.232 0 0 0-1.244 2.936 2.32 2.32 0 0 0 3 1.216 2.232 2.232 0 0 0 1.244-2.936 2.32 2.32 0 0 0-3-1.216zM87.816 53.3a2.32 2.32 0 0 0 3 1.216 2.232 2.232 0 0 0 1.248-2.94 2.32 2.32 0 0 0-3-1.216 2.232 2.232 0 0 0-1.248 2.94zM37.248 73.852a2.32 2.32 0 0 0 3.004 1.216 2.232 2.232 0 0 0 1.244-2.936 2.316 2.316 0 0 0-3-1.216 2.232 2.232 0 0 0-1.248 2.936zm0-22.276a2.232 2.232 0 0 0 1.244 2.94 2.32 2.32 0 0 0 3.004-1.216 2.232 2.232 0 0 0-1.24-2.94 2.32 2.32 0 0 0-3.008 1.216zM73.956 39.74a2.32 2.32 0 0 0 3-1.216 2.232 2.232 0 0 0-1.24-2.936 2.32 2.32 0 0 0-3 1.216 2.232 2.232 0 0 0 1.24 2.936zm13.86 32.392a2.232 2.232 0 0 0 1.244 2.936 2.32 2.32 0 0 0 3-1.216 2.232 2.232 0 0 0-1.24-2.936 2.316 2.316 0 0 0-3 1.216zM52.284 90.484a2.32 2.32 0 0 0 3-1.216 2.232 2.232 0 0 0-1.24-2.936 2.32 2.32 0 0 0-3 1.216 2.228 2.228 0 0 0 1.24 2.936zm33.772-6.52a1.264 1.264 0 0 0 0 1.82c.516.5 1.344.5 1.856 0s.516-1.316 0-1.816a1.336 1.336 0 0 0-1.856 0zM41.4 39.648a1.264 1.264 0 0 0 0 1.82 1.336 1.336 0 0 0 1.856 0c.512-.504.512-1.316 0-1.816s-1.344-.504-1.856 0zm44.656 1.82a1.336 1.336 0 0 0 1.856 0c.516-.504.516-1.316 0-1.816s-1.34-.504-1.856 0a1.264 1.264 0 0 0 0 1.816zM41.4 85.784c.512.5 1.344.5 1.856 0s.512-1.316 0-1.816a1.336 1.336 0 0 0-1.856 0 1.264 1.264 0 0 0 0 1.816zm54.12-23.388c0 .708.592 1.28 1.316 1.28a1.3 1.3 0 0 0 1.312-1.28 1.3 1.3 0 0 0-1.312-1.288 1.3 1.3 0 0 0-1.312 1.288zm-63.7 0c0 .708.588 1.28 1.316 1.28a1.3 1.3 0 0 0 1.312-1.28 1.3 1.3 0 0 0-1.312-1.288 1.3 1.3 0 0 0-1.316 1.288zm32.84-29.548a1.3 1.3 0 0 0 1.312-1.284 1.3 1.3 0 0 0-1.316-1.288 1.3 1.3 0 0 0-1.312 1.288c0 .708.588 1.28 1.312 1.28zm0 62.304a1.3 1.3 0 0 0 1.312-1.28 1.3 1.3 0 0 0-1.316-1.288 1.3 1.3 0 0 0-1.312 1.284c0 .708.588 1.284 1.312 1.284zm40.712-32.76c0 .712.592 1.288 1.316 1.288A1.3 1.3 0 0 0 108 62.396a1.3 1.3 0 0 0-1.312-1.288 1.3 1.3 0 0 0-1.316 1.288zm-84.388-.64c-.544 0-.984.432-.984.96s.44.968.984.968.988-.432.988-.964-.44-.964-.988-.964zm41.704-40.468c0 .708.588 1.284 1.312 1.284s1.312-.576 1.312-1.28c0-.712-.588-1.288-1.312-1.288s-1.312.576-1.312 1.284zm38.9 56.42a1.916 1.916 0 0 0 1.048 2.524 2 2 0 0 0 2.584-1.024 1.916 1.916 0 0 0-1.052-2.528 1.988 1.988 0 0 0-2.58 1.028zm-21.32 20.76a1.336 1.336 0 0 0-1.72.688 1.252 1.252 0 0 0 0 .98 1.324 1.324 0 0 0 2.424.016 1.252 1.252 0 0 0 .004-.98 1.292 1.292 0 0 0-.704-.7zm-54.5-53.308a1.34 1.34 0 0 0-1.004-.004 1.288 1.288 0 0 0-.716.688 1.252 1.252 0 0 0-.008.984 1.324 1.324 0 0 0 2.424.016 1.252 1.252 0 0 0 .008-.984 1.292 1.292 0 0 0-.704-.7zm-3.664 33c-.352.812.04 1.756.872 2.1.84.344 1.8-.04 2.152-.852a1.592 1.592 0 0 0-.872-2.104 1.656 1.656 0 0 0-2.152.852zm57.348-53.148c.832.344 1.8-.04 2.148-.856a1.592 1.592 0 0 0-.872-2.104 1.656 1.656 0 0 0-2.152.856c-.352.816.04 1.76.876 2.104zm24.564 19.468a.968.968 0 0 0-.536.52.936.936 0 0 0-.004.736.996.996 0 0 0 1.82.012.96.96 0 0 0-.524-1.264.992.992 0 0 0-.756-.004zM46.348 23.8a.96.96 0 0 0 .52 1.264 1 1 0 0 0 1.292-.516.956.956 0 0 0-.52-1.26.988.988 0 0 0-1.292.512zm.252 75.848a.988.988 0 0 0-.912.592.96.96 0 0 0 .528 1.26.992.992 0 0 0 1.288-.512.956.956 0 0 0-.52-1.26.988.988 0 0 0-.384-.08zm46.568-6.8a1.264 1.264 0 0 0 0-1.816 1.32 1.32 0 0 0-.928-.376 1.32 1.32 0 0 0-.932.376 1.264 1.264 0 0 0 0 1.82 1.336 1.336 0 0 0 1.86 0zM31.74 32.132a1.9 1.9 0 0 0 0 2.724 1.988 1.988 0 0 0 2.788 0 1.9 1.9 0 0 0 0-2.724 2.004 2.004 0 0 0-2.788 0zm62.1.36a.948.948 0 0 0 0 1.36 1 1 0 0 0 1.396 0 .952.952 0 0 0 0-1.36.992.992 0 0 0-1.396 0zM32.108 90.94a.948.948 0 0 0 0 1.36 1 1 0 0 0 1.396 0 .948.948 0 0 0 0-1.36c-.188-.184-.436-.28-.7-.28s-.508.096-.696.28zM64.328 108c.908 0 1.64-.72 1.64-1.604a1.624 1.624 0 0 0-1.64-1.608c-.908 0-1.64.72-1.64 1.608 0 .884.732 1.604 1.64 1.604z"/></svg>