<svg width="64" height="64" viewBox="0 0 128 128" xmlns="http://www.w3.org/2000/svg"><path d="M64 0c35.348 0 64 28.652 64 64s-28.652 64-64 64S0 99.348 0 64 28.652 0 64 0zm22.24 26.24a43.516 43.516 0 00-32.768-5c-6.692 1.608-13.228 4.984-18.268 9.432-1.68 1.48-4.42 4.32-5.62 5.816-7.776 9.668-11.08 22.448-8.948 34.588 1.976 11.28 8.24 21.232 17.72 28.096 8.044 5.844 18.86 8.88 28.64 8.032 9.192-.776 17.256-3.996 24.216-9.628a53.492 53.492 0 007.636-7.936 44.936 44.936 0 006.396-12.24c1.568-4.7 2.232-8.824 2.216-13.948 0-7.54-1.88-14.568-5.72-21.36-3.54-6.296-9.26-12.14-15.5-15.856zM53.616 24.7a41.18 41.18 0 0112.748-1.2c4.12.308 7.28.944 10.52 2.1 4.768 1.724 7.944 3.476 12.108 6.664 1.36 1.032 3.66 3.192 4.532 4.24l1.216 1.424c4.532 5.252 7.72 12.368 8.992 20.06.368 2.16.352 8.824-.012 11.268-1.016 6.832-3.4 12.576-7.72 18.636-2.32 3.232-6.948 7.508-10.564 9.74-7.836 4.84-16.136 6.904-25 6.2a41.176 41.176 0 01-15.32-4.436 39.728 39.728 0 01-17.2-17.252c-3.12-6.1-4.472-11.704-4.472-18.396 0-8.328 2.3-15.784 7.1-22.94 1.48-2.216 5.424-6.536 7.228-7.936.312-.24.976-.776 1.484-1.172 3.64-2.908 9.376-5.704 14.36-7zm29.252 36.948c-.128 0-.736.648-1.36 1.44-1.108 1.424-2.544 3.288-7.556 9.76l-.64.828-3.136 4.04v13.268l.364.452.164.184c.192.192.28.196.4.072.172-.168.58-2.048.948-4.42.168-1.116.368-1.384.552-.748.252.904.012 4.6-.4 6.24-.068.312-.012.396.568.68.352.168.664.28.708.24.028-.028.48-1.144 1-2.46.988-2.512 1.16-2.852 1.368-2.64.172.172-.056 1.104-.916 3.672-.648 1.948-.704 2.2-.552 2.628.2.52.228.932.072.932-.072 0-.804-.356-1.664-.78-1.948-.972-2.768-1.2-3.28-.916-.436.256-.548.44-.744 1.216a3.84 3.84 0 01-.72 1.24c-.324.368-.564.68-.536.708.028.012.42.18.86.352.968.388 2.176 1.18 3.38 2.2l.6.524 1.2 1.1.608-.464.772-.572c1.78-1.292 3.424-2.3 4.636-2.844 2.96-1.328 4.868-2.584 6.704-4.448 1.668-1.696 2.304-2.936 2.812-5.448.168-.848.632-1.696 1.04-1.908.256-.14.272-.128.2.24-.056.228-.128.552-.184.736-.068.268-.04.296.172.224 1.212-.44 1.88-1.892 1.64-3.64-.272-2.02-.88-2.628-2.304-2.288a10.36 10.36 0 00-1.652.576c-.48.212-.92.356-.96.312-.04-.04.04-.452.2-.904.688-2.004.788-4.32.224-5.08-.508-.692-1.44-.596-2.896.28l-.584.344c-.7.4-.664.268-.248-.416.72-1.228 1.44-2.68 1.708-3.484.464-1.344.256-2.68-.452-2.908-.52-.172-1.68.56-3.332 2.116a20.72 20.72 0 01-1.596 1.44c0-.14.508-1.06 1.568-2.808a61.407 61.407 0 002.004-3.64c.708-1.444.88-1.924.92-2.628.068-1.032-.296-1.892-1-2.32a1.86 1.86 0 00-.68-.28zM57.484 80.992c-.468-.652-.764-.54-2.104.732a29.28 29.28 0 01-1.652 1.48c-.96.68-3.064 1.64-4.632 2.12-.92.28-1.608.564-1.552.62.252.228 1.72.412 3.344.412.948 0 1.78.04 1.824.08.056.06-.028.272-.184.48-.64.896-.3 1.164 1.596 1.088l.464-.024 1.72-.1.24.368.108.212c.056.148.08.3.048.392-.124.368-1.168 1.44-2.06 2.12-2.132 1.608-2.032 1.78.988 1.88 1.808.052 2.304.112 2.4.28.212.34.172.636-.2 1.144-1.212 1.68-1.788 2.6-1.748 2.796.084.492 1 .748 2.544.704 2.552-.072 3.272-.04 3.88.156.16.056.32.096.448.116l.16.012.084-.016c.012-.2-.6-1.42-3.08-6.168-.38-.736-.52-1.16-.464-1.384.172-.68.084-2.68-.128-3.204a4.44 4.44 0 00-.58-.884l-.264-.304-.652-.692V84.14l-.012-.636c-.048-1.212-.236-2.104-.536-2.512zm3.12-11.424l-.02.048-.008.092c0 .272-.96 9.332-1.06 10.052-.04.328-.028.524.056.496.084-.016.648-.508 1.272-1.072.62-.564 1.16-.96 1.2-.892.056.072.252 1.964.44 4.208.176 2.028.356 3.904.42 4.432l.012.116.072.48.888-.976.304-.328.796-.888.16-.18.38-.424.252.296.08.1c.24.32.928 1.192 1.644 2.132 1.356 1.748 1.696 2.12 1.696 1.804.012-.224-3.872-11.464-3.956-11.464-.056 0-.28.792-.508 1.768-.212.972-.44 1.76-.48 1.76-.04 0-.224-1.508-.408-3.36-.38-4.008-.452-4.544-.564-4.544-.04 0-.452.58-.92 1.272-.452.704-.876 1.272-.944 1.272-.072 0-.128-.144-.128-.328 0-.168-.128-1.552-.28-3.06-.172-1.512-.328-2.768-.392-2.812zm-14.02-7.54c-.976-.268-3.08-.38-4.096-.252-2.72.38-5.704 2.004-7.384 4.052-2.12 2.568-3.004 5.264-2.864 8.668.1 2.104.44 3.572 1.212 5.152a9.36 9.36 0 006.2 5.08c1.512.384 1.608.272.38-.448-2.172-1.256-3.784-2.74-4.784-4.404-3.376-5.548-.116-13.752 6.336-15.94 1.02-.34 1.328-.38 3.108-.38h.576l.552.012c.828.028 1.248.104 1.908.312 1.384.44 3.216 1.4 4.432 2.328 1.708 1.3 1.568 1.228 1.284.664-.352-.704-2.68-2.952-3.628-3.516a13.444 13.444 0 00-3.232-1.328zm-8.512 11.636c-.54-1.496-.568-1.54-.78-.892-.14.4-.152.904-.096 1.668.32 3.656 1.836 6.156 4.4 7.356 1.064.48 2.176.76 2.176.536 0-.056-.408-.52-.9-1.044a22.744 22.744 0 01-4.8-7.624zm11.772-21.672c1.16-.536 1.072-.564-.704-.296-3.092.464-7.372 2.188-10.292 4.136-1.44.944-3.628 2.824-4.616 3.94-1.032 1.172-2.22 2.824-2.148 3.02.028.084.38-.112.82-.464.96-.78 2.2-1.668 2.3-1.668.04 0 .592-.312 1.216-.692a15.56 15.56 0 015.096-1.864c1.24-.168 3.188-.096 4.164.172 1 .268 2.936 1.072 4.008 1.664.58.324 1.076.58 1.104.58.08 0 1.624 1.044 2.792 1.892 2.036 1.452 5.028 4.148 6.356 5.704.464.548.932 1 1.028 1 .1.016.228.128.268.256.06.14.58.92 1.16 1.736a86.64 86.64 0 014.532 6.92c1.92 3.26 1.836 3.12 1.976 3.032.072-.048.124-.688.136-1.52l.004-2.292-1.748-1.652-1.136-1.112a47.72 47.72 0 01-4.188-4.86c-1.284-1.708-1.82-2.584-5.392-8.752-1.328-2.3-1.68-2.752-2.344-3.104-1.696-.848-4.136-1.512-6.652-1.808-.816-.1-1.48-.24-1.48-.312 0-.268 1.596-.932 2.696-1.128.62-.112 1.836-.2 2.696-.212 1.568 0 1.596 0 1.68-.34.212-.848.2-.86-2.384-.932-2.032-.064-2.616-.152-2.3-.384l.112-.068c.096-.068.66-.324 1.24-.592zM39.652 68.144c-.664-.384-.68-.268-.156 1.16.848 2.312 2.26 4.416 4.28 6.464 1.588 1.6 3.708 3.32 4.392 3.604l.132.04.08-.016.012-.072c-.012-.296-.408-1.372-.948-2.512a21.228 21.228 0 00-6.424-7.752 23.2 23.2 0 00-1.368-.92zm6.944-2.02c-.888-.408-2.4-.804-2.4-.636 0 .028.64.708 1.412 1.512a23.168 23.168 0 014.168 6c.888 1.992.872 1.96.988 1.016.14-1.06.028-2.088-.368-3.444a6.96 6.96 0 00-3.8-4.448zm21.66-24.072c-.228-.34-.212-.34-.904-.14-5.264 1.54-10.576 3.984-12.68 5.82l-.352.336-.552.56.44 1.612.504 1.768c1.6 5.24 4 9.984 7.176 14.228 1.24 1.64 4.728 5.068 6.268 6.144 1.4.972 2.84 1.832 3.092 1.832.252 0 4.42-4.868 4.264-5.012a38.412 38.412 0 00-1.584-.548c-2.836-.948-5.32-2.32-7.04-3.896-1.416-1.288-2.628-3.164-1.3-1.992 1.156 1.016 5.432 2.808 7.904 3.32.552.096 1 .18 1.016.168 0 0-.296-.424-.68-.932-.9-1.188-1.96-3.248-2.54-4.944-.464-1.38-.96-2.088-1.72-2.496-.324-.16-.708-.184-1.764-.112-3.688.24-6.88-1.384-8.6-4.38-.944-1.652-2.36-4.432-2.288-4.504.044-.04 2.4.904 5.252 2.104 4.728 1.98 5.868 2.432 6.752 2.616l.308.06.156.024.692.096-.084-2.74-.036-.88a31.296 31.296 0 00-.332-3.536c-.296-1.68-.988-3.984-1.368-4.576zm20.736-4.912c-.548-.056-15.908 3.544-16.52 3.868a2.276 2.276 0 00-.96 1.312c-.068.296.708 3.94 2.688 12.52 1.536 6.652 2.82 12.16 2.88 12.216.056.056 1.24-1.356 2.624-3.148 2.4-3.108 2.54-3.248 2.992-3.248.776 0 1.976.72 2.44 1.48.68 1.088.64 2.616-.08 4.252a2.952 2.952 0 00-.296.848c.056.056 10.12-2.132 10.772-2.344a2.72 2.72 0 00.832-.564c.76-.804.792-.624-2.6-13.88-1.692-6.648-3.188-12.268-3.316-12.452a2.256 2.256 0 00-.58-.576 2.208 2.208 0 00-.876-.284zm2.332 16.024c.04.112-4.04 9.924-4.192 10.08-.06.056-.58-.324-1.16-.848a334.88 334.88 0 00-4.136-3.712c-1.696-1.512-3.02-2.768-2.964-2.78.068-.016 1.68.464 3.572 1.084l3.456 1.12 1.612-1.512c.876-.836 2.088-1.964 2.68-2.516.596-.56 1.104-.972 1.132-.92zm-8.456 4.404c-1.824-.592-2.16-.664-2.08-.452.032.056 1.064 1.032 2.304 2.148 1.24 1.112 2.568 2.328 2.952 2.708.368.368.704.652.732.624.04-.028-.14-1.004-.392-2.16l-.468-2.104-.636-.084a22.276 22.276 0 01-2.412-.68zm-31.188-18.1c0-.24-.944-.096-3.32.496a57.36 57.36 0 00-6.632 2.132c-2.84 1.116-7.624 3.684-7.256 3.88.112.06.576.16 1.04.212 2.74.316 7.328 1.444 9.52 2.32l.492.208 1 .468-.56.096-1.228.252c-3.24.76-6.256 2.172-8.616 4.04-1.228.988-3.244 3.08-3.908 4.04-.552.788-.552.788 1.016-.4 2.4-1.8 6.324-3.908 9.416-5.064 2.528-.932 6.072-1.808 8.232-2.02.52-.056.944-.156.944-.212 0-.224-1.64-1.34-2.92-2.004-1.768-.916-5.468-2.312-7.484-2.848l-.608-.144-.492-.116.56-.48.352-.276a24.784 24.784 0 014.1-2.304 49.48 49.48 0 015.616-1.98c.4-.08.736-.224.736-.296zm30.564 3.148c.1-.268.312-.196.608.184.156.2 2.088 2.244 4.292 4.548 2.188 2.288 3.996 4.248 3.996 4.348 0 .252-5.24 5.152-5.52 5.152-.128 0-1.808-.52-3.74-1.144-3.304-1.088-3.828-1.328-3.376-1.608.084-.04.14-.184.14-.312 0-.168 2.544-8.048 3.6-11.168zm-18.52 11.48c-.452-.084-.452-.084-.312.312.184.56.804.888 1.68.888.932 0 .888-.228-.14-.72a7.336 7.336 0 00-1.228-.48zm18.72-10.716c-.056-.072-.144.056-.2.28-.14.752-2.92 9.152-3.2 9.7-.16.312-.256.58-.216.608.056.072 4.252-3.064 4.8-3.6l.4-.38-.736-3.248c-.4-1.78-.78-3.288-.848-3.36zm-31.104-2.2h-.352l-.26.028c-.72.128-2.152.64-3.324 1.212-1.048.508-2.784 1.836-2.784 2.132 0 .04.496.268 1.104.492 1.44.54 3.344 1.456 4.828 2.344.664.384 1.256.68 1.34.664.168-.068.112-1.664-.128-3.276-.112-.832-.212-1.128-.368-1.128-.244 0-.296-.204-.212-1.052l.044-.4.112-1.02zm28.436-7.344c-.88-.452-1.908-.368-6.848.564-5.028.948-8.796 1.864-12.564 3.064a60.52 60.52 0 00-6.028 2.388c-.836.42-.96.536-1.188 1.128-.24.636-.24.76 0 2.936.34 3.204.24 3.008 1.188 2.288a24.16 24.16 0 013.84-2.272c5.548-2.784 12.832-4.888 21.712-6.284 1.212-.2 2.004-.38 2.004-.48 0-.224-.932-2.16-1.284-2.64a2.728 2.728 0 00-.832-.692zm-20.544-8.968l-.256.008a41.28 41.28 0 00-3.384.36c-.808.128-.948.2-.864.4.96 2.312 2.488 6.872 2.372 7.084-.028.056-.536-.38-1.128-.944-.592-.58-1.144-1.044-1.216-1.044-.068 0-.096.168-.056.38.04.224.16 1.748.24 3.388.1 1.652.228 3.08.28 3.176.228.368.44-.14.652-1.596.128-.804.268-1.508.312-1.58.056-.056.48.408.932 1.032.452.62.92 1.128 1 1.128a1.66 1.66 0 00.552-.168c.28-.128.352-.256.352-.652 0-1.312-.972-5.928-1.692-7.988-.156-.468-.256-.88-.212-.92.308-.292 2.892 3.796 4.332 6.8l.72 1.544.496-.084.2-.04a1.204 1.204 0 00.436-.172c.296-.296-2.132-7.06-3.332-9.248-.256-.464-.508-.86-.592-.86l-.144-.004zm-8.768 2.32c-.632-.256-1.592-.016-2.72.704-.356.212-1.54.888-2.628 1.512-3.64 2.032-6.892 4.348-6.804 4.856.028.112.124.2.224.168.1-.012.92-.224 1.808-.452a23.24 23.24 0 016.468-.82l1.072.016 2.624.072.1-1 .02-.344c.036-.664.068-1.744.08-2.64v-.9c0-.976-.052-1.104-.24-1.172zm11.48-2.388l-.904.004c-.268.008-.464.032-.464.068 0 .04.452.848 1 1.808a86.8 86.8 0 013.444 6.872c.144.356.312.692.368.764.168.2 1.116-.04 1.116-.28 0-.56-2-4.788-3.436-7.316l-.28-.48-.844-1.44zm2.4.14c-.696 0-.56.136.408 1.796.932 1.608 3.16 6.2 3.16 6.492 0 .412.372.412 2.208.028a122.872 122.872 0 015.096-.904c.096-.068-.864-2.596-1.512-4.02-.988-2.12-1.328-2.656-1.764-2.756l-.708-.14c-.2-.04-1.508-.168-2.92-.28a68.772 68.772 0 00-3.544-.216h-.228zm2.796 17.748c.352.86.536 1.78.72 3.712.184 2.064.52 4.916.72 6.1.084.608.324.736.324.184 0-.2-.1-.976-.212-1.736a127.48 127.48 0 01-.424-3.84 45.536 45.536 0 00-.368-3.08c-.18-.86-.508-1.58-.704-1.58-.1 0-.112.1-.056.24zm3.036 16.52c0 .62 1.976 5.164 2.624 6.028.44.604.324.056-.184-.864a28.48 28.48 0 01-1.88-4.136c-.32-.904-.56-1.34-.56-1.028z"/></svg>