<svg width="64" height="64" viewBox="0 0 128 128" xmlns="http://www.w3.org/2000/svg"><path d="M64 128C28.652 128 0 99.348 0 64S28.652 0 64 0s64 28.652 64 64-28.652 64-64 64zm0-108L34.072 32.828a3.728 3.728 0 0 0-1.976 2L20 64l12.092 29.52c.376.912 1.1 1.64 2.016 2.024L64 108l29.892-12.456a3.728 3.728 0 0 0 2.016-2.028L108 64 95.904 34.824a3.728 3.728 0 0 0-1.976-2L64 20zm0 17.9l18.272 7.828L90.1 64l-7.828 18.272L64 90.1l-18.272-7.828L37.9 64l7.828-18.272L64 37.9zm0 7.828l-13.052 5.22L45.728 64l5.22 13.052L64 82.272l13.052-5.22L82.272 64l-5.22-13.052L64 45.728z"/></svg>