<svg width="64" height="64" viewBox="0 0 128 128" xmlns="http://www.w3.org/2000/svg"><path d="M64 128c35.347 0 64-28.653 64-64S99.347 0 64 0 0 28.653 0 64s28.653 64 64 64zM20 64a44 44 0 1088 .17v-.338a44.233 44.233 0 00-1.204-10.055 4.72 4.72 0 10-9.181 2.187 34.579 34.579 0 11-25.596-25.581 4.72 4.72 0 002.186-9.182A43.995 43.995 0 0020 64zm66.147-32.075a.88.88 0 01.093-.106l.003.002A7.013 7.013 0 0196.92 40.84a7.427 7.427 0 01-.748.912 6.964 6.964 0 01-4.299 2.022h-.064c-.133 0-.266.007-.398.015a6.634 6.634 0 01-.398.015 1.341 1.341 0 00-.128.014.973.973 0 01-.149.016A12.57 12.57 0 0079.54 59.187c.004.016.01.032.017.048.01.026.02.053.02.082.071.299.147.591.24.886a16.273 16.273 0 01-2.49 13.084 15.939 15.939 0 01-1.824 2.221A16.28 16.28 0 1152.48 52.483a4.05 4.05 0 01.279-.247c.072-.06.145-.121.214-.187a16.187 16.187 0 0114.864-3.88 12.563 12.563 0 0016.314-10.736l.022-.173a2.24 2.24 0 00.034-.339v-.748a6.957 6.957 0 011.869-4.16c.027-.029.05-.058.072-.088z"/></svg>