<svg width="64" height="64" viewBox="0 0 128 128" xmlns="http://www.w3.org/2000/svg"><path d="M64 128C28.652 128 0 99.348 0 64S28.652 0 64 0s64 28.652 64 64-28.652 64-64 64zm-.96-69.176v-17.16h-7.952v17.288H49.24V24H38v80h11.24V67.468h5.848v14.984h7.956v-14.92c1.304.084 2.4.416 3.26.976.864.56 1.664 1.496 2.4 2.808l14.248 29.4c1.24 2.184 2.884 3.284 4.924 3.284H98L80.616 69.3c-1.16-2.04-2.4-3.616-3.704-4.74a11.86 11.86 0 0 0-4.88-2.452 11.1 11.1 0 0 0 3.408-1.932c1.008-.852 1.916-1.952 2.716-3.304L96.212 24h-9.2c-1.048 0-2 .292-2.8.852a7.717 7.717 0 0 0-2.06 2.264l-14.5 27.948c-.652 1.248-1.348 2.16-2.08 2.7a5.944 5.944 0 0 1-2.528 1.06z"/></svg>