<svg width="64" height="64" viewBox="0 0 128 128" xmlns="http://www.w3.org/2000/svg"><path d="M64 0c35.348 0 64 28.652 64 64s-28.652 64-64 64S0 99.348 0 64 28.652 0 64 0zM45.748 75.144H41.76v20.36l5.52 2.76 1.344.688 1.38.732 1.34.652 1.38.728 1.384.688 1.38.652 1.38.728 2.76 1.38 1.34.692 1.92.96.804-.348 1.38-.536 1.38-.536 1.38-.576 1.38-.576 1.384-.496-1.384-3.452-.112-.232-1.268.5-1.38.536-1.38.576-1.38.536-.612.268-.728-.38-1.384-.692-1.34-.692-1.38-.688-1.38-.692-1.38-.688-1.38-.692-1.384-.728-1.38-.652-1.34-.728-1.38-.692-1.344-.648-1.38-.732-.152-.076V75.144zm31.136-9.088h-27.88l2.34 2.452 2.304 2.416 2.376 2.416 2.34 2.452 2.3 2.416.304.348v11.04l2.036 1.572 2.336 1.764 2.3 1.804 2.34 1.76 2.34 1.804 2.3 1.764.88.692 1.46-1.072 2.34-1.652 2.3-1.684 2.376-1.652 2.34-1.648 2.34-1.648 2.3-1.688 2.34-1.648 2.336-1.648 1.92-1.42.38-10.392-2.3-.076-2.032-.076.08 8.472-.384.272-2.34 1.648-2.3 1.688-2.34 1.648-2.34 1.688-2.376 1.608-2.3 1.688-2.34 1.688-1.38.996-.96-.768-2.3-1.76-2.34-1.804-2.34-1.764-2.3-1.8-.42-.272v-9.12l.42-.384 2.3-2.456 2.34-2.416 2.34-2.452 2.3-2.416 2.264-2.376zM56.984 53.4H42.832l-.612.308-1.456.768-1.496.764-1.456.768-1.46.768-2.988 1.532-1.46.768-1.456.768-1.496.764-1.456.768-1.344.728L26 84.08l1.496 1.036 1.456 1.036 1.496.996 2.916 2.072 1.492 1.032.652.5.844-1.036 1.46-1.92.112-.188-.112-.116-1.46-1.036-1.496-1.072-1.492-1.036-1.46-1.036-1.456-1.032-.42-.272.112-17.752.308-.152 1.456-.728 1.46-.768 1.492-.692 1.496-.764 2.916-1.46 1.496-.728 1.456-.728 1.496-.768h.04l.612.232.044.012 12.572 5.432V53.4zm35.504-16.412l-.268.308-.96 1.188-.996 1.228-.228.344.228.268 1 .808.96.764.956.844.996.808.96.8.996.848.96.804.46.384.04 18.136-.5.308-.96.652-1 .576-.956.652-1 .572-.956.652-.96.576-.996.652-.96.576-.96.652-.956.576-.96.652-.996.572-.96.652-.956.576-.96.652-.996.576 1 1.532.96 1.572.188.268.768-.496.96-.616.996-.572.96-.616.956-.612.96-.612.96-.576.992-.616.96-.572.96-.616.996-.612.96-.616.996-.572.96-.616.96-.572.956-.616.96-.612.996-.616.96-.572-.04-22.2-.92-.732-1-.804-.96-.768-.956-.768-.96-.8-.96-.732-.992-.768-.96-.804-1-.768-.688-.576zM63.272 21l-.728.344-1.496.844-1.46.768-1.456.804-1.496.844-1.496.768-1.492.804 1.492.88 1.496.844.92.54.576-.268 1.456-.808 1.46-.764 1.496-.768.612-.308.88.5 1.496.88 2.916 1.688 2.988 1.764 1.496.84 2.916 1.768 1.496.84 2.988 1.768.46.228v17.524H70.324v.02l-.076-.02.04 9.856.308-.12.388-.164 1.672-.676.508-.192.5-.216 1.524-.612.544-.208 1.304-.536.088-.036 2.42-.976.06-.024.184-.076 4.956-1.992V33.576l-1.456-.88-1.496-.844-1.46-.88-1.492-.884-1.496-.844-1.496-.88-1.456-.884-1.46-.84-1.496-.884-1.492-.88-1.496-.848-1.46-.88-1.456-.88-1.496-.848-.764-.42zM48.2 27.864l-1.8 1.072-1.84 1.152-1.84 1.112-1.84 1.148-1.84 1.112-1.88 1.112-1.804 1.152-1.88 1.112-1.84 1.152-1.84 1.148-1.84 1.112-1.8 1.112-.08 13.46h1.88l1.84.04h.268l.04-11.276 1.532-.96 1.84-1.108 1.88-1.112 1.8-1.192 1.88-1.112 1.84-1.148 3.68-2.224 1.84-1.152 1.88-1.112.04-.04 1.764 1.04 1.88 1.032 3.68 2.148 1.84 1.036 1.88 1.036 1.8 1.072 1.804 1 .08-.156 1.84-3.296-1.84-1.076-1.88-1.036-1.804-1.032-1.88-1.04-1.84-1.108-1.84-1.036-1.84-1.036-1.88-1.036-1.8-1.036-.08-.04z"/></svg>