<svg width="64" height="64" viewBox="0 0 128 128" xmlns="http://www.w3.org/2000/svg"><path d="M99.68 62.48l2.204-1.548a112.72 112.72 0 0 1-.02-.024l2.788-1.948a16.988 16.988 0 0 0 0-27.812l.032.04L88.84 20.08l-19.6 13.716 5.256 3.7 14.32-10.02 12.36 8.668a10.916 10.916 0 0 1 0 17.892l-6.788 4.736L39.12 20 23.236 31.164a16.988 16.988 0 0 0 0 27.812L28.2 62.46l-1.216.856.02.028-3.768 2.632a16.988 16.988 0 0 0 0 27.812l15.828 11.116 19.588-13.716-5.256-3.704-14.344 10.024-12.36-8.668a10.916 10.916 0 0 1 0-17.892l6.82-4.76 55.264 38.768 15.888-11.168a16.988 16.988 0 0 0 0-27.812l-4.988-3.496zm-5.304 3.72l6.788 4.76a10.916 10.916 0 0 1 0 17.892l-12.376 8.656-49.96-35.028 19.864-13.864-5.28-3.712-1.468 1.024-.04-.06-18.4 12.88L26.732 54a10.916 10.916 0 0 1 0-17.892l12.372-8.656L89.072 62.48 69.176 76.364l5.26 3.704L89.276 69.7l.04.048 5.06-3.548zM64 128C28.652 128 0 99.348 0 64S28.652 0 64 0s64 28.652 64 64-28.652 64-64 64z"/></svg>