<svg width="64" height="64" viewBox="0 0 128 128" xmlns="http://www.w3.org/2000/svg"><path d="M64 128C28.652 128 0 99.348 0 64S28.652 0 64 0s64 28.652 64 64-28.652 64-64 64zM53.664 52.4l-5.244 4.416a2.008 2.008 0 0 0-.632 1.352l-.008 24.44c0 .452.372.82.824.82h4.864a.824.824 0 0 0 .824-.82v-29.92c0-.452-.28-.58-.628-.288zm-9.84 25.448H29.28c-.432 0-.824-.272-.824-.82V44.444c0-.452-.28-.58-.628-.284l-5.208 4.448a2.028 2.028 0 0 0-.624 1.36v32.644c0 .408.296.74.68.804l-.008.012h21.08a.824.824 0 0 0 .824-.82v-3.936c0-.456-.368-.824-.752-.824zm33.464-10.24c-1.184-.836-3.08-1.76-5.696-2.768-3.112-1.2-5.128-2.14-6.056-2.824-.924-.688-1.388-1.52-1.388-2.512 0-2.02 1.776-3.028 5.324-3.028 1.876 0 4.104.456 6.684 1.372a1.02 1.02 0 0 0 1.184-.428l1.976-3.408a.692.692 0 0 0-.352-1.024A25.376 25.376 0 0 0 69.7 51.28c-3.76 0-6.732.748-8.916 2.24-2.184 1.496-3.28 3.592-3.28 6.296 0 2.248.648 4.076 1.936 5.48 1.288 1.412 3.752 2.82 7.4 4.228 1.868.72 3.328 1.372 4.38 1.94 1.048.572 1.8 1.124 2.26 1.656a2.96 2.96 0 0 1 .688 2c0 2.496-2.344 3.74-6.488 3.74a16.12 16.12 0 0 1-7.392-1.676.908.908 0 0 0-1.16.324L57.24 80.58a.8.8 0 0 0 .28 1.12c2.016 1.12 5.44 2.3 9.932 2.3 4.2 0 7.7-.824 9.952-2.468 2.252-1.648 3.376-4.012 3.376-7.096 0-1.52-.284-2.832-.856-3.928a8.288 8.288 0 0 0-2.636-2.896zm32.524-15.032c.324-.32.216-.58-.24-.58h-5.8a2.448 2.448 0 0 0-1.432.556L90.372 64.516c-.336.308-.608.188-.608-.264V44.44c0-.452-.28-.58-.624-.284l-5.212 4.452a2.028 2.028 0 0 0-.624 1.352v32.648c0 .456.368.82.824.816h4.88a.856.856 0 0 0 .824-.86V73.12c0-.452.264-1.08.592-1.392l2.236-2.16a.652.652 0 0 1 1.04.12l8.168 13.016a1.732 1.732 0 0 0 1.272.728h5.428c.456 0 .624-.348.38-.728L98.22 66.068a1.056 1.056 0 0 1 .14-1.268l11.452-12.22z"/></svg>