<svg width="64" height="64" viewBox="0 0 128 128" xmlns="http://www.w3.org/2000/svg"><path d="M64 128C28.652 128 0 99.348 0 64S28.652 0 64 0s64 28.652 64 64-28.652 64-64 64zm-7.004-28.168l9.868-11.144c.168-.168.056-.444-.22-.444H55.776a.42.42 0 0 1-.224-.112l-9.204-10.36c-.056-.116-.112-.228-.056-.336l15.416-26.58c.056-.112.056-.224 0-.28l-6.376-11.032c-.112-.164-.388-.164-.5 0L32.04 78.884a.36.36 0 0 0 0 .332l18.3 20.672c.056.056.112.112.224.112h6.208c.056-.056.168-.112.224-.168zm6.76-75.664L57.332 35.2c-.056.112-.056.224 0 .28l6.652 11.476L81.62 77.38c.056.108.056.22-.056.332l-9.316 10.476-9.924 11.256c-.168.164-.056.444.22.444h14.86a.42.42 0 0 0 .224-.112l18.296-20.672c.056-.108.112-.22.056-.332L64.204 24.168c-.056-.224-.332-.224-.444 0z"/></svg>