<svg width="64" height="64" viewBox="0 0 128 128" xmlns="http://www.w3.org/2000/svg"><path d="M64 128C28.652 128 0 99.348 0 64S28.652 0 64 0s64 28.652 64 64-28.652 64-64 64zm-.748-103.808v.008L30.388 42.72a1.432 1.432 0 0 0 0 2.512l28.624 16.072a6.644 6.644 0 0 1 3.84-2.144v-8.792c-3.08-.536-5.416-3.152-5.416-6.304 0-3.54 2.944-6.412 6.58-6.412s6.58 2.872 6.58 6.412c0 3.172-2.36 5.8-5.464 6.312v8.772a6.636 6.636 0 0 1 3.892 2.16l28.62-16.136a1.44 1.44 0 0 0 .74-1.256 1.44 1.44 0 0 0-.744-1.256l-32.9-18.472a1.524 1.524 0 0 0-1.488 0zm34.48 23.276l.008-.004L70.108 63.04c.62 1.46.656 3.096.104 4.58l7.8 4.372a6.556 6.556 0 0 1 4.484-2.708c3.6-.496 6.928 1.948 7.436 5.452s-2 6.752-5.6 7.248c-3.6.492-6.928-1.948-7.432-5.456a6.24 6.24 0 0 1 .148-2.512l-7.96-4.46c-1 1.176-2.4 1.96-3.948 2.22l.028 30.772c0 1.12 1.24 1.816 2.228 1.256l31.86-17.96a1.44 1.44 0 0 0 .744-1.256l-.032-35.868a1.44 1.44 0 0 0-.748-1.256 1.516 1.516 0 0 0-1.484 0zm-69.7 1.252L28 84.584c0 .52.28 1 .744 1.256l31.864 17.96c.988.56 2.232-.136 2.232-1.252l.024-30.78a6.616 6.616 0 0 1-3.908-2.216l-7.96 4.46c.224.82.272 1.68.152 2.516-.508 3.504-3.84 5.948-7.436 5.452s-6.104-3.74-5.6-7.244c.512-3.504 3.84-5.948 7.44-5.452a6.579 6.579 0 0 1 4.484 2.708l7.796-4.368a6.185 6.185 0 0 1 .092-4.564l-27.66-15.592a1.5 1.5 0 0 0-.744-.2 1.472 1.472 0 0 0-1.488 1.452z"/></svg>