<svg width="64" height="64" viewBox="0 0 128 128" xmlns="http://www.w3.org/2000/svg"><path d="M64 128C28.652 128 0 99.348 0 64S28.652 0 64 0s64 28.652 64 64-28.652 64-64 64zm0-108c-24.244 0-44 19.756-44 44s19.756 44 44 44 44-19.756 44-44-19.756-44-44-44zm35.42 39.556l-3.784.66-5.456-7.568h-1.76a15.024 15.024 0 0 0-13.288-22c-8.272 0-15.048 6.688-15.048 14.96 0 6.864 4.664 12.672 10.956 14.476l-.22.22-2.156 1.1-3.52-1.276-3.476-2.024-4.884 6.16-3.916-2.156-7.524 1.936-3.784-12.408h-9.24l-6.732 11.792-2.068.044C23.784 41.384 41.868 23.52 64 23.52c22.308 0 40.48 18.172 40.48 40.48v1.276l-5.06-5.72zM64 104.48c-17.204 0-31.944-10.78-37.796-25.96 1.144 0 2.376.044 3.608.044.66.184 1.34.272 2.024.264.572 0 1.144-.044 1.628-.176a5.3 5.3 0 0 1 .836.044c-.088.264-.088.352-.088.44 0 1.936 2.068 3.344 4.928 3.344 2.772 0 4.796-1.32 4.884-3.168l1.364.132c11.704 1.276 12.496 3.388 12.496 3.476.044.176-.22 1.1-2.596 2.684-4.972 3.432-6.688 5.5-6.248 7.656.528 2.596 3.916 3.256 9.064 4.224 1.452.264 3.08.572 4.752.968 1.848.396 3.828.792 5.72 1.188 3.432.704 6.952 1.408 9.768 2.244A40.68 40.68 0 0 1 64 104.48zm18.832-4.664c-3.3-1.628-8.316-2.596-13.596-3.652a255.332 255.332 0 0 1-5.632-1.144 95.192 95.192 0 0 0-4.884-.968c-2.376-.44-5.236-1.012-6.16-1.54.308-.484 1.276-1.628 4.708-3.96 1.232-.836 4.972-3.388 3.96-6.644-.924-3.036-5.72-4.884-15.488-5.94a309.61 309.61 0 0 0-2.772-.264c-.484-1.452-1.188-3.52-2.2-6.512l-1.672-4.884-1.672 4.884c-.572 1.628-1.012 2.948-1.408 4.092-.44-1.408-1.232-3.696-2.596-7.656l-1.54-4.972-1.672 4.884c-2.288 6.688-2.948 8.668-3.124 9.416H25.06a43.076 43.076 0 0 1-1.408-7.964l4.048-.132 6.688-11.704h4.62l4.004 13.156 9.416-2.42 2.156 1.188-4.576 5.764 2.772 2.2 9.768-12.364 1.144.66 5.28 1.936 2.288-1.188c-.44.924-.704 1.936-.704 2.992s.66 3.3 5.676 4.136a3.307 3.307 0 0 1 2.772 3.256v5.72a10.104 10.104 0 0 0-2.376-1.232h.044c-1.936-.616-3.74-1.54-4.312-3.432-.44 1.54-1.672 2.42-3.256 3.036-4.092 1.1-7.04 4.18-7.04 7.832 0 1.32 1.012 4.444 10.208 4.444 9.24 0 10.208-3.124 10.208-4.444v-6.908c.616.22 1.32.396 2.156.528a3.307 3.307 0 0 1 2.772 3.256v3.96c0 .924.66 1.76 1.584 1.848a1.784 1.784 0 0 0 1.936-1.76v-4.048a3.308 3.308 0 0 1 2.772-3.256c5.016-.836 5.676-3.036 5.676-4.136 0-2.948-1.936-5.5-4.796-6.952h.044c-.044 0-.088-.044-.176-.044-.484-.264-1.056-.44-1.584-.616a5.448 5.448 0 0 1-1.98-1.584c-.22-3.124-2.552-5.764-5.896-7.04h-.044c-.22-.088-.44-.132-.66-.22-1.672-.616-3.124-1.54-3.608-3.168-.528 1.804-2.068 2.728-4.048 3.344-.132.044-.308.088-.44.176l5.5-5.852 3.3 4.444 2.64-2.112h.66l5.72 7.876 4.048-.704 5.94 6.732c-1.936 12.848-9.988 23.76-21.164 29.656zM78.96 86.132c-.616.44-2.904 1.144-6.688 1.144s-6.072-.704-6.688-1.144c.176-2.464 3.168-4.488 6.688-4.488 3.52 0 6.512 2.024 6.688 4.488zm10.252-15.004c3.52 0 6.512 2.024 6.688 4.488-.616.44-2.948 1.144-6.688 1.144-3.74 0-6.072-.704-6.688-1.144.176-2.464 3.168-4.488 6.688-4.488zm-1.804-4.312c-.616.44-2.948 1.144-6.688 1.144-3.74 0-6.072-.704-6.688-1.144.176-2.464 3.168-4.488 6.688-4.488 3.52 0 6.512 2.024 6.688 4.488zM84.724 51.9l-2.64-3.564-8.184 8.756a11.496 11.496 0 0 1 1.232-22.924 11.492 11.492 0 0 1 11.484 11.484 11.36 11.36 0 0 1-1.892 6.248zM37.996 78.784l1.188-3.564 1.188 3.564c-.776.236-1.6.236-2.376 0zm-7.26-3.74c.264-.792.66-2.068 1.144-3.432.484 1.408.924 2.684 1.144 3.476-.792 0-1.54-.044-2.288-.044zm16.896-23.628A10.24 10.24 0 0 0 57.84 41.208 10.216 10.216 0 0 0 47.632 31a10.216 10.216 0 0 0-10.208 10.208 10.216 10.216 0 0 0 10.208 10.208zm0-16.896c3.652 0 6.688 2.992 6.688 6.688a6.688 6.688 0 1 1-6.688-6.688z"/></svg>