<svg width="64" height="64" viewBox="0 0 128 128" xmlns="http://www.w3.org/2000/svg"><path d="M64 0c35.348 0 64 28.652 64 64s-28.652 64-64 64S0 99.348 0 64 28.652 0 64 0zm24.048 100.848H39.952A43.88 43.88 0 0064 108c8.864 0 17.14-2.64 24.048-7.152zM64 20c-24.312 0-44 19.688-44 44 0 5.632 1.056 11 2.992 15.952l28.18-33.816L73.46 72.888l5.568-6.688L99.2 90.4h-4.292l-15.86-19.052V90.4H28.8a46.044 46.044 0 006.732 7.148h56.936A43.904 43.904 0 00108 64c0-24.312-19.688-44-44-44zM51.172 51.284v28.668h-28.18c.968 2.508 2.18 4.88 3.564 7.148h35.068l9.7-11.64-20.148-24.176zM79.024 37.6a11.004 11.004 0 010 22 11.004 11.004 0 010-22zm-27.852-7.964a5.504 5.504 0 110 11.004 5.504 5.504 0 010-11.004z"/></svg>