<svg width="64" height="64" viewBox="0 0 128 128" xmlns="http://www.w3.org/2000/svg"><path d="M64 128C28.652 128 0 99.348 0 64S28.652 0 64 0s64 28.652 64 64-28.652 64-64 64zm-.08-107.928h-.264L26 42.004v44l37.656 21.92.308.076L102 86V42.004L63.92 20.072zm-.124 4.552l4.124 2.288L98 44.312v39.38l-30.08 17.3-4.128 2.388L30 83.7V44.304l33.796-19.68zm-28.56 42.44l13.64 23.84h5.448l6.448-6.04V81.84l-6.688-6.448v-10.16l-8.84-5.652-10.008 7.488zm31.612 17.808l6.44 5.964h5.376l13.572-23.768-9.984-7.556-8.748 5.72v10.16l-6.668 6.44.012 3.04zm-9.48-19.64l-1 9.56 7.38-.016 7.468-.016-.944-9.528 3.192-8.524H54.112l3.252 8.524zm6.38-10.86l18.488.012-3.604-15.3H48.776l-3.42 15.28 18.392.008z"/></svg>