<svg width="64" height="64" viewBox="0 0 128 128" xmlns="http://www.w3.org/2000/svg"><path d="M64 128C28.652 128 0 99.348 0 64S28.652 0 64 0s64 28.652 64 64-28.652 64-64 64zm18.652-96.032C77.676 26.544 71.516 24 64.052 24c-7.564 0-13.728 2.544-18.7 7.744C40.38 36.84 38 43.364 38 51.22c0 7.744 2.488 14.276 7.46 19.476 3.892 4.092 8.54 6.528 13.84 7.412v4.648H48.38v4.98h11.024v2.656H48.38v4.644H59.3V104h9.4v-8.96h11.028v-4.648H68.592v-2.656h11.136v-4.98H68.704V78.22c5.404-.888 10.052-3.32 13.944-7.416C87.516 65.604 90 59.076 90 51.332c0-7.64-2.484-14.164-7.348-19.364zM72.488 61.512c-2.056 2.656-4.972 3.984-8.432 3.984-3.352 0-6.16-1.328-8.324-3.984s-3.248-6.088-3.248-10.4c0-4.208 1.08-7.528 3.248-10.18 2.16-2.656 4.972-3.984 8.32-3.984 3.248 0 6.056 1.328 8.22 4.092 2.268 2.656 3.352 6.088 3.352 10.18 0 4.204-1.08 7.636-3.136 10.292z"/></svg>