<svg width="64" height="64" viewBox="0 0 128 128" xmlns="http://www.w3.org/2000/svg"><path d="M64 128C28.652 128 0 99.348 0 64S28.652 0 64 0s64 28.652 64 64-28.652 64-64 64zm-7.12-65.644a6.028 6.028 0 1 0 0-12.056 6.028 6.028 0 0 0 0 12.056zm14.792 0a6.028 6.028 0 1 0 0-12.056 6.028 6.028 0 0 0 0 12.056zM56.876 77.152a6.028 6.028 0 1 0 0-12.056 6.028 6.028 0 0 0 0 12.056zm14.796 0a6.028 6.028 0 1 0 0-12.056 6.028 6.028 0 0 0 0 12.056zm14.792-16.44a4.384 4.384 0 1 0 0-8.768 4.384 4.384 0 0 0 0 8.768zm0 14.796a4.384 4.384 0 1 0 0-8.768 4.384 4.384 0 0 0 0 8.768zM41.536 60.712a4.384 4.384 0 1 0 0-8.768 4.384 4.384 0 0 0 0 8.768zm0 14.796a4.384 4.384 0 1 0 0-8.768 4.384 4.384 0 0 0 0 8.768zM56.876 90.3a4.384 4.384 0 1 0 0-8.764 4.384 4.384 0 0 0 0 8.764zm14.796 0a4.384 4.384 0 1 0 0-8.764 4.384 4.384 0 0 0 0 8.764zM56.876 45.92a4.384 4.384 0 1 0 0-8.764 4.384 4.384 0 0 0 0 8.764zm14.796 0a4.384 4.384 0 1 0 0-8.764 4.384 4.384 0 0 0 0 8.764zM56.876 29.48a2.74 2.74 0 1 0 0-5.476 2.74 2.74 0 0 0 0 5.48zm14.796 0a2.74 2.74 0 1 0 0-5.476 2.74 2.74 0 0 0 0 5.48zm29.588 29.592a2.74 2.74 0 1 0 0-5.48 2.74 2.74 0 0 0 0 5.48zm0 14.796a2.74 2.74 0 1 0 0-5.48 2.74 2.74 0 0 0 0 5.48zM26.74 59.072a2.74 2.74 0 1 0 0-5.48 2.74 2.74 0 0 0 0 5.48zm0 14.796a2.74 2.74 0 1 0 0-5.48 2.74 2.74 0 0 0 0 5.48zM56.876 104a2.74 2.74 0 1 0 0-5.48 2.74 2.74 0 0 0 0 5.48zm14.796 0a2.74 2.74 0 1 0 0-5.48 2.74 2.74 0 0 0 0 5.48z"/></svg>