<svg width="64" height="64" viewBox="0 0 128 128" xmlns="http://www.w3.org/2000/svg"><path d="M64 128C28.652 128 0 99.348 0 64S28.652 0 64 0s64 28.652 64 64-28.652 64-64 64zM39.664 85.516c1.708-7.708 3.416-15.6 5.128-23.292.448-1.796.896-3.816 1.344-6.06.224.9.224 1.124.448 1.572a3222.344 3222.344 0 0 0 12.448 39.736L39.664 85.52zM68.6 97.708l.2-.704c4.264-13.012 8.304-26.028 12.564-39.04.228-.452.452-1.124.676-1.8.224.676.448.9.448 1.348 1.896 9.272 3.992 18.348 6.1 27.412L68.6 97.708zm22.464-8.276a2.212 2.212 0 0 0 1.072-.056c1.572-.448 2.244-1.796 1.796-3.816-2.02-8.524-3.816-17.28-5.836-25.804-1.12-4.488-2.016-9.2-3.14-13.688a2.48 2.48 0 0 0-1.216-1.712l.096-.08-17.952-26.928s-1.572-2.02-4.04 0l-18.4 27.6.26.132a4.908 4.908 0 0 0-.708 1.66c-.224 1.8-.676 3.592-1.12 5.388-2.472 11.22-5.164 22.44-7.632 33.656-.224 1.348 0 2.468 1.12 3.144a2.656 2.656 0 0 0 1.456.44l24.584 15.464c.492 1.112 1.316 1.6 2.46 1.6.88 0 1.568-.292 2.064-.932l25.136-16.068zm-11.372-42.28a36.856 36.856 0 0 1-.344 1.16c-4.04 12.568-8.08 25.36-12.12 37.92-.896 3.144-2.02 6.06-2.916 9.2h-.672c-4.916-16.08-10.052-32.384-15.188-48.464l15.412-23.34 15.828 23.528z"/></svg>