<svg width="64" height="64" viewBox="0 0 128 128" xmlns="http://www.w3.org/2000/svg"><path d="M64 128C28.652 128 0 99.348 0 64S28.652 0 64 0s64 28.652 64 64-28.652 64-64 64zm19.94-51.328a12.104 12.104 0 110-24.208 12.104 12.104 0 010 24.208zm0-40.02a27.828 27.828 0 00-20.012 8.46 27.816 27.816 0 017.908 19.456 27.82 27.82 0 01-7.908 19.456A27.92 27.92 0 1083.94 36.648zm-40.02 40.02a12.104 12.104 0 110-24.208 12.104 12.104 0 010 24.208zm20.012-31.56a27.92 27.92 0 100 38.912 27.82 27.82 0 01-7.904-19.456c0-7.568 3.016-14.428 7.904-19.456zm-7.908 19.46c0 7.568 3.016 14.428 7.908 19.456a27.816 27.816 0 007.904-19.456 27.816 27.816 0 00-7.904-19.456 27.816 27.816 0 00-7.908 19.456z"/></svg>