<svg width="64" height="64" viewBox="0 0 128 128" xmlns="http://www.w3.org/2000/svg"><path d="M64 128C28.652 128 0 99.348 0 64S28.652 0 64 0s64 28.652 64 64-28.652 64-64 64zM89.028 27.08c0-2.808-2.28-5.08-5.096-5.08a5.085 5.085 0 0 0-5.096 5.08c0 2.804 2.28 5.08 5.096 5.08 2.816 0 5.096-2.276 5.096-5.08zm-3.672 17.696a4.31 4.31 0 0 0 4.316-4.304c0-2.376-1.932-4.3-4.32-4.3-2.38 0-4.312 1.924-4.312 4.3s1.932 4.304 4.316 4.304zm-1.34 10.612a3.64 3.64 0 0 0 3.648-3.64 3.64 3.64 0 0 0-3.648-3.636 3.64 3.64 0 0 0-3.648 3.64 3.641 3.641 0 0 0 3.648 3.636zm-.216 5.488a3.12 3.12 0 0 0-6.24 0 3.12 3.12 0 0 0 6.24 0zm-4.936 6.896a2.674 2.674 0 1 0-5.348.008 2.674 2.674 0 0 0 5.348-.008zm-5.4 4.892a2.296 2.296 0 1 0-4.588.008 2.296 2.296 0 0 0 4.588-.008zm27.496-29.636a4.333 4.333 0 0 0-8.44-1.964 4.336 4.336 0 0 0 8.44 1.964zM98.888 54.24a3.668 3.668 0 1 0-7.144-1.668 3.668 3.668 0 1 0 7.144 1.668zm-3.856 8.948a3.104 3.104 0 0 0-6.04-1.412 3.101 3.101 0 1 0 6.04 1.412zM90.064 70a2.64 2.64 0 0 0-1.98-3.172A2.644 2.644 0 1 0 90.064 70zm-5.428 4.756a2.276 2.276 0 1 0-4.432-1.04 2.276 2.276 0 1 0 4.432 1.04zm-5.42 3.004a1.952 1.952 0 1 0-3.8-.88 1.952 1.952 0 0 0 3.8.88zm28.416-19.424a3.672 3.672 0 0 0-1.716-4.916 3.692 3.692 0 0 0-4.924 1.708 3.668 3.668 0 0 0 1.712 4.916 3.692 3.692 0 0 0 4.928-1.708zm-3.844 8.86a3.12 3.12 0 0 0-1.46-4.18 3.152 3.152 0 0 0-4.192 1.456 3.14 3.14 0 0 0 5.652 2.724zm-4.832 6.72a2.712 2.712 0 0 0-4.88-2.356 2.696 2.696 0 0 0 1.256 3.612 2.72 2.72 0 0 0 3.624-1.252zm-5.384 4.752a2.348 2.348 0 0 0-1.092-3.136 2.349 2.349 0 1 0-2.048 4.228 2.36 2.36 0 0 0 3.14-1.092zm-5.42 2.928a2.016 2.016 0 0 0-3.62-1.748 2.012 2.012 0 0 0 3.62 1.748zm-5.092 1.476a1.7 1.7 0 0 0-.792-2.272 1.703 1.703 0 1 0-1.488 3.064 1.712 1.712 0 0 0 2.28-.792zm4.144 19.424c2.44 1.4 5.56.568 6.96-1.864a5.072 5.072 0 0 0-1.872-6.936 5.108 5.108 0 0 0-6.96 1.864 5.068 5.068 0 0 0 1.872 6.936zm-11.96-6.128a4.32 4.32 0 0 0 5.892-1.58 4.296 4.296 0 0 0-1.584-5.872 4.324 4.324 0 0 0-5.892 1.58 4.288 4.288 0 0 0 1.584 5.872zm-8.808-7.36a3.652 3.652 0 0 0 4.984-1.34 3.628 3.628 0 0 0-1.34-4.964 3.656 3.656 0 0 0-4.984 1.332 3.632 3.632 0 0 0 1.34 4.972zm-6.004-7.896a3.12 3.12 0 0 0 4.256-1.14 3.1 3.1 0 0 0-1.14-4.244 3.11 3.11 0 1 0-3.116 5.384zM56.9 73.408a2.68 2.68 0 0 0 3.66-.984 2.664 2.664 0 0 0-.984-3.64 2.684 2.684 0 0 0-3.66.98 2.664 2.664 0 0 0 .984 3.644zM55.344 66.3a2.294 2.294 0 1 0 2.296-3.972 2.304 2.304 0 0 0-3.14.84 2.288 2.288 0 0 0 .844 3.132zm15 39.704a4.325 4.325 0 0 0 4.332-4.32 4.324 4.324 0 0 0-4.332-4.316 4.322 4.322 0 0 0-4.332 4.32 4.322 4.322 0 0 0 4.332 4.316zm-11.672-8.552a3.68 3.68 0 0 0 5.184-.168 3.652 3.652 0 0 0-.168-5.168 3.68 3.68 0 0 0-5.188.168 3.648 3.648 0 0 0 .172 5.168zm-5.86-7.792a3.112 3.112 0 0 0 4.388-.144 3.08 3.08 0 0 0-.144-4.372 3.108 3.108 0 0 0-4.384.144 3.088 3.088 0 0 0 .14 4.372zm-3.436-7.696c1.072 1 2.748.944 3.748-.12a2.64 2.64 0 0 0-.12-3.736 2.656 2.656 0 0 0-3.748.12 2.632 2.632 0 0 0 .12 3.736zm-1.424-7.056a2.28 2.28 0 0 0 3.22-.104 2.264 2.264 0 0 0-.104-3.208 2.28 2.28 0 0 0-3.22.108 2.264 2.264 0 0 0 .104 3.204zm.096-6.184a1.956 1.956 0 0 0 2.672-2.84 1.96 1.96 0 0 0-2.76.088 1.94 1.94 0 0 0 .088 2.752zm2.7 34.24a3.697 3.697 0 0 0 5.128.968 3.664 3.664 0 0 0 .976-5.104 3.696 3.696 0 0 0-5.128-.972 3.672 3.672 0 0 0-.976 5.108zm-5.784-7.744a3.144 3.144 0 0 0 4.36.824 3.12 3.12 0 0 0 .832-4.348 3.148 3.148 0 0 0-4.36-.824 3.12 3.12 0 0 0-.832 4.348zm-3.432-7.532a2.72 2.72 0 0 0 3.768.72 2.7 2.7 0 0 0 .716-3.76 2.716 2.716 0 0 0-3.768-.712 2.695 2.695 0 0 0-.72 3.752zm-1.44-7.016a2.36 2.36 0 0 0 3.268.62 2.336 2.336 0 0 0 .624-3.26 2.36 2.36 0 0 0-3.272-.62 2.344 2.344 0 0 0-.62 3.26zm.16-6.144a2.012 2.012 0 0 0 3.32-2.256 2.016 2.016 0 0 0-2.792-.528 2 2 0 0 0-.532 2.784zm1.256-5.132a1.712 1.712 0 0 0 2.824-1.92 1.708 1.708 0 0 0-2.824 1.916zm-18.96-6.168a5.072 5.072 0 0 0-1.864 6.94c1.404 2.424 4.52 3.26 6.96 1.86a5.07 5.07 0 0 0 1.864-6.936 5.104 5.104 0 0 0-6.96-1.864zm11.32-7.24a4.292 4.292 0 0 0-1.58 5.872 4.327 4.327 0 0 0 5.892 1.576 4.295 4.295 0 0 0 1.584-5.876 4.32 4.32 0 0 0-5.896-1.576zm10.804-3.908a3.632 3.632 0 0 0-1.336 4.968 3.66 3.66 0 0 0 4.984 1.336 3.64 3.64 0 0 0 1.336-4.972 3.66 3.66 0 0 0-4.984-1.332zm9.868-1.224a3.1 3.1 0 0 0-1.148 4.24 3.12 3.12 0 0 0 4.264 1.144 3.1 3.1 0 0 0 1.14-4.244 3.12 3.12 0 0 0-4.256-1.14zm8.456.816a2.664 2.664 0 0 0-.98 3.648 2.68 2.68 0 0 0 4.64-2.668 2.68 2.68 0 0 0-3.66-.98zm6.952 2.216a2.294 2.294 0 1 0 2.296 3.972 2.284 2.284 0 0 0 .84-3.128 2.308 2.308 0 0 0-3.136-.84zM30.456 44.96a4.312 4.312 0 0 0-2.892 5.38 4.336 4.336 0 0 0 8.288-2.492 4.336 4.336 0 0 0-5.4-2.888zm10.776-3.812a3.657 3.657 0 1 0 2.12 7 3.66 3.66 0 1 0-2.12-7zM50.936 40a3.092 3.092 0 1 0 1.788 5.92A3.092 3.092 0 1 0 50.936 40zm8.4.892a2.64 2.64 0 0 0-1.772 3.292 2.652 2.652 0 0 0 5.08-1.524 2.652 2.652 0 0 0-3.304-1.768zm6.84 2.308a2.27 2.27 0 1 0 1.32 4.344 2.272 2.272 0 1 0-1.32-4.344zm5.32 3.18a1.948 1.948 0 1 0 1.132 3.728 1.948 1.948 0 1 0-1.132-3.728zm-31.08-14.828a3.68 3.68 0 1 0 .536 7.336 3.688 3.688 0 0 0 3.416-3.936 3.68 3.68 0 0 0-3.948-3.4zm9.628-1.112a3.132 3.132 0 1 0 .452 6.24 3.132 3.132 0 1 0-.452-6.24zm8.256.816a2.704 2.704 0 1 0 .392 5.392 2.708 2.708 0 1 0-.392-5.392zm6.812 2.272a2.352 2.352 0 1 0 .336 4.692 2.352 2.352 0 0 0-.336-4.692zm5.256 3.216a2.008 2.008 0 1 0 .284 4 2.008 2.008 0 0 0-.284-4zm3.828 3.66a1.704 1.704 0 1 0 .244 3.4 1.704 1.704 0 0 0-.244-3.4z"/></svg>