<svg width="64" height="64" viewBox="0 0 128 128" xmlns="http://www.w3.org/2000/svg"><path d="M64 128C28.652 128 0 99.348 0 64S28.652 0 64 0s64 28.652 64 64-28.652 64-64 64zm-.028-44.008h41.48c.936 0 1.828-.16 2.304-1.044.488-.904.18-1.808-.34-2.628-.432-.68-.88-1.348-1.32-2.02-3.552-5.468-7.34-10.796-10.612-16.432-5.412-9.328-10.5-18.856-15.708-28.304-.52-.944-1.184-1.612-2.288-1.56-1.048.048-1.588.804-1.996 1.692l-10.376 22.6c-.512 1.112-.76 1.144-1.452.168-3.364-4.776-6.736-9.544-10.084-14.328-.576-.824-1.348-1.344-2.252-1.008-.656.24-1.28.852-1.688 1.456-4.16 6.176-8.268 12.392-12.412 18.584-1.288 1.92-2.468 3.96-3.992 5.672-4.008 4.488-8.172 8.832-12.28 13.224-.72.764-1.232 1.572-.792 2.664.464 1.148 1.432 1.272 2.504 1.272 13.768-.012 27.536-.008 41.304-.008zm8.652-4.444c-.648.504-10.44.5-11.22-.072 1.072-1.188 2.128-2.372 3.208-3.536.088-.092.352-.108.484-.044 2.488 1.16 4.968 2.332 7.448 3.504.02.012.028.052.08.148zM49.928 50.896c-.224 2.208-.4 4.22-.656 6.22a1.588 1.588 0 0 1-.64 1 228 228 0 0 1-5.78 3.588c-.228.14-.544.128-.816.184.064-.268.056-.584.2-.8a1489.08 1489.08 0 0 1 6.828-10.256c.136-.2.408-.308.616-.456l.248.52zm47.988 29c-1.1 0-2.2-.016-3.304.008-.608.012-.816-.256-.772-.852.24-3.128.46-6.256.704-9.384.02-.212.192-.412.292-.612.192.12.448.2.56.372 2.108 3.2 4.2 6.408 6.3 9.616.4.616.16.852-.48.852h-3.3zm-70.936-.24c.848-.928 1.5-1.656 2.168-2.372 1.912-2.044 3.832-4.08 5.736-6.136.492-.528.78-.564 1.092.184a431.958 431.958 0 0 0 3.288 7.656c.292.668.116.916-.576.912-3.568-.004-7.14 0-10.712-.008-.244 0-.492-.112-1-.236zm52.78-18.452c.556.052.872.04 1.172.112 3.344.828 6.684 1.668 10.024 2.504 1.252.316 1.82.992 1.744 2.312-.184 3.096-.424 6.192-.64 9.288-.044.68-.064 1.368-.14 2.044-.032.248-.2.48-.304.72-.2-.152-.464-.264-.6-.46-2.012-2.888-4.004-5.788-6-8.688l-4.832-7.016c-.116-.168-.192-.364-.424-.816zm-.848-20.54c.188.26.4.5.556.776a9667.368 9667.368 0 0 1 10.38 18.832c.148.272.168.62.244.932-.316 0-.648.068-.948-.004-3.464-.852-6.92-1.736-10.384-2.576-.572-.14-.736-.424-.72-.976.16-5.028.296-10.056.448-15.084.02-.62.08-1.236.12-1.848l.304-.052zm-15.54 30.828c-.372-.336-.604-.512-.8-.724-3.568-4-7.124-8.016-10.704-12.004a1.84 1.84 0 0 1-.508-1.584c.304-2.712.54-5.432.82-8.152.04-.34.18-.672.272-1.008l.376-.224c.1.232.16.488.304.688a3879.08 3879.08 0 0 0 9.5 13.24c.772 1.072 1.132 2.236 1.072 3.568-.08 1.676-.08 3.352-.132 5.028-.012.32-.104.64-.2 1.172zm2.308-.836c.08-3.224-.168-6.42 1.384-9.52 2.936-5.848 5.612-11.84 8.412-17.76.124-.26.432-.432.652-.644.08.272.24.548.232.82-.112 4.94-.24 9.88-.38 14.82a1.468 1.468 0 0 1-.312.82 2479.88 2479.88 0 0 1-9.092 11.104c-.176.212-.436.348-.656.52l-.24-.16zm-14.012 9.24c-1.96 0-3.916.012-5.872-.012-.272 0-.54-.172-.808-.268.104-.244.16-.52.312-.728 3.056-4.156 6.136-8.292 9.18-12.456.48-.656.788-.656 1.32-.056a618.92 618.92 0 0 0 6.72 7.4c.42.46.532.78.032 1.3-1.336 1.408-2.592 2.896-3.932 4.3a1.84 1.84 0 0 1-1.176.5c-1.924.052-3.852.024-5.776.024zm1.992-15.86l-5 6.704-5.92 7.936c-.752 1-.936.98-1.424-.14-1.28-2.98-2.552-5.964-3.852-8.936-.26-.6-.32-1.136.152-1.624.512-.52.988-1.12 1.592-1.504 3.336-2.116 6.716-4.16 10.06-6.268.56-.352.88-.296 1.296.212.988 1.216 2.032 2.384 3.096 3.62zm23.18-3.152c1.46 2.112 2.708 3.908 3.948 5.708a4386.28 4386.28 0 0 1 8.4 12.208c.172.252.216.592.32.892-.288.068-.568.196-.856.2-3.024.012-6.052.02-9.08-.008a3.816 3.816 0 0 1-1.492-.336c-3.672-1.672-7.328-3.38-11-5.06-.584-.268-.852-.516-.332-1.144 3.192-3.848 6.36-7.712 9.532-11.576.176-.208.3-.464.56-.88z"/></svg>