<svg width="64" height="64" viewBox="0 0 128 128" xmlns="http://www.w3.org/2000/svg"><path d="M34.508 80.496l5.44-3.144-.712-1.236-5.368 3.1V47.812l27.28 16.168v46.24L64 112l2.856-1.78V63.98l27.276-16.168V79.22l-5.372-3.104-.712 1.24 5.44 3.14-21.08 12.368v6.916L100 83.54V41.18L64 20 28 41.18v42.36l27.596 16.24v-6.92L34.508 80.496zm28.7-53.24v6.324h1.428v-6.416l26.64 15.632L64 58.968 36.72 42.796l26.488-15.54zM64 128C28.652 128 0 99.348 0 64S28.652 0 64 0s64 28.652 64 64-28.652 64-64 64zm-.792-90.376v6.628h1.428v-6.628h-1.428zm0 10.672v6.628l.712.324.716-.32v-6.632h-1.428zm22.24 25.8l-5.74-3.316-.716 1.24 5.744 3.312.712-1.236zm-9.06-5.336l-5.744-3.312-.636.456-.08.78 5.744 3.312.716-1.236zm-33.84 5.336l.716 1.24 5.74-3.32-.716-1.236-5.74 3.32zm9.064-5.336l.712 1.24 5.74-3.32-.076-.776-.636-.456-5.74 3.312z"/></svg>