<svg width="64" height="64" viewBox="0 0 128 128" xmlns="http://www.w3.org/2000/svg"><path d="M64 128C28.652 128 0 99.348 0 64S28.652 0 64 0s64 28.652 64 64-28.652 64-64 64zm38.276-42.736c-.528-3.152-1.576-6.308-2.36-9.2l-2.36-9.46-6.296-23.656c-.528-1.84-.788-3.68-1.312-5.52-.264-.788-.524-1.84-1.312-2.364-.788-.264-1.576-.264-2.36-.264h-9.708c-1.572 0-2.88 0-4.456.264-1.312.26-2.624 1.052-3.148 2.364a1.264 1.264 0 0 0 .52 1.576c.264.264.792 0 1.052-.26.264 0 1.052-.788 1.312-.788l12.328 45.468v.264c.264 1.052.788 2.1 1.572 2.364.528.264 1.052.528 1.84.528H100.7c.788.26 1.84-.264 1.576-1.316zm-30.428 0c-.524-3.152-1.572-6.308-2.36-9.2l-2.36-9.46-6.296-23.656c-.524-1.84-.788-3.68-1.312-5.52-.26-.788-.524-1.84-1.312-2.364-.784-.264-1.572-.264-2.36-.264H46.14c-1.572 0-2.88 0-4.456.264-1.312.26-2.624 1.052-3.148 2.364a1.264 1.264 0 0 0 .524 1.576c.264.264.788 0 1.052-.26.26 0 1.048-.788 1.312-.788l12.324 45.468v.264c.264 1.052.788 2.1 1.576 2.364.524.264 1.048.528 1.836.528h13.116c.784.26 1.836-.264 1.572-1.316zm-24.132-9.988l-8.392-32.852c0-.528-.524-1.052-1.312-1.052-.524 0-1.048.524-1.312 1.052L25.684 83.948v.528c0 1.312 1.048 2.628 2.624 2.628h13.9a2.52 2.52 0 0 0 2.36-1.84l3.148-9.988zm30.952-.788l-9.18-33.12c0-.52-.524-.784-1.048-.784-.528 0-1.052.26-1.052.788l-1.836 6.568 9.18 32.068c.264.524.528.788 1.052.788.52 0 .784-.264 1.048-.788l1.836-5.52z"/></svg>