<svg width="64" height="64" viewBox="0 0 128 128" xmlns="http://www.w3.org/2000/svg"><path d="M64 128C28.652 128 0 99.348 0 64S28.652 0 64 0s64 28.652 64 64-28.652 64-64 64zm30.12-74.344L88.42 28 77.232 45.656a56.384 56.384 0 0 0-26.468 0L39.608 28l-5.72 25.656C27.748 58.568 24 64.988 24 72.036c0 15.44 17.904 27.956 39.988 27.956s39.988-12.52 39.988-27.956c-.004-7.048-3.72-13.468-9.86-18.38zM41.768 65.4h-2.664l6.508-7.504h4.736l-8.58 7.504zm22.016 18.336L52.72 64.248l2.732-1.56 2.468 4.34h12.084l2.576-4.36 2.704 1.608-11.5 19.46zM86.236 65.4l-8.584-7.504h4.768l6.5 7.504h-2.684zm-22.4 12.06l4.3-7.28h-8.432l4.132 7.28z"/></svg>