<svg width="64" height="64" viewBox="0 0 128 128" xmlns="http://www.w3.org/2000/svg"><path d="M64 128C28.652 128 0 99.348 0 64S28.652 0 64 0s64 28.652 64 64-28.652 64-64 64zm0-104c-22.08 0-40 17.92-40 40 0 .532.052 1.04.08 1.572h18.772l9.068-15.6L64 67.28l12.052-17.308 9.068 15.6h18.772c.028-.532.08-1.04.08-1.572C104 41.92 86.08 24 64 24zm27.572 36.748C89.948 46.96 78.212 36.24 64 36.24S38.052 46.988 36.428 60.748h-4.856C33.2 44.292 47.12 31.412 64 31.412c16.88 0 30.772 12.88 32.428 29.336h-4.856zm-15.864-1.816L64 75.732l-11.708-16.8L45.628 70.4H24.56C27.628 89.44 44.08 104 64 104c19.92 0 36.372-14.56 39.44-33.628H82.372l-6.664-11.44zM89.388 75.2h5.172C89.972 87.652 78.028 96.588 64 96.588c-14.028 0-25.972-8.936-30.56-21.388h5.172C42.932 84.932 52.668 91.76 64 91.76c11.332 0 21.068-6.828 25.388-16.56z"/></svg>