<svg width="64" height="64" viewBox="0 0 128 128" xmlns="http://www.w3.org/2000/svg"><path d="M64 128C28.652 128 0 99.348 0 64S28.652 0 64 0s64 28.652 64 64-28.652 64-64 64zm36-48.404v-41.36c-8.1-4.532-18.46-1.84-23.136 6l-12.876 21.6-12.852-21.56C46.46 36.428 36.1 33.74 28 38.272v41.32C28 88.66 35.584 96 44.936 96V66.68l4.92 8.252c2.02 2.96 3.908 4.664 5.664 5.108l.88.492a17.32 17.32 0 0 0 7.6 1.74 17.068 17.068 0 0 0 14.144-7.376l4.916-8.24V96c9.356 0 16.936-7.344 16.936-16.404zM28 38.272l16.936 28.412V96C35.584 96 28 88.656 28 79.596zm55.06 28.38l16.928-28.396h.008V79.6C100 88.656 92.416 96 83.06 96zm-19.072-.82L55.52 80.04c-1.756-.44-3.644-2.144-5.664-5.108L28 38.272c8.1-4.532 18.46-1.84 23.136 6z"/></svg>