<svg width="64" height="64" viewBox="0 0 128 128" xmlns="http://www.w3.org/2000/svg"><path d="M64 128C28.652 128 0 99.348 0 64S28.652 0 64 0s64 28.652 64 64-28.652 64-64 64zm3.244-81.732a22.78 22.78 0 0 1 12.736-3.852c7.4 0 17.468 4.536 17.468 24.14 0 8.98-3.236 15.648-9.712 20a.776.776 0 0 0-.204 1.104.828.828 0 0 0 .82.328C92.536 87.22 104 80.64 104 63.612c0-12.8-5.944-26.2-16.92-26.2-7.168 0-14.18 2.352-21.036 7.056C62.46 38.824 57.3 36 50.564 36 39.56 36 24 46.42 24 64.496c0 8.232 2.16 15.552 6.488 21.96l5.52-6.416c-3.192-4.868-4.792-10.796-4.792-17.78 0-10.48 7.824-21.02 17.712-21.02 5.16 0 9.2 1.588 12.132 4.76v7.72h-5.944l-4.004 4.592h9.948v5.772h-3.156l-3.88 4.592h7.036v18.72l5.092-6.944V68.676h3.156l3.032-4.592h-6.188v-5.772h5.944L76.1 53.72h-8.856v-7.452z"/></svg>