<svg width="64" height="64" viewBox="0 0 128 128" xmlns="http://www.w3.org/2000/svg"><path d="M64 128C28.652 128 0 99.348 0 64S28.652 0 64 0s64 28.652 64 64-28.652 64-64 64zm35.8-84c-3.432 0-6.332 2.772-6.332 6.332 0 5.016-.792 6.332-6.336 6.332h-.528a6.192 6.192 0 0 0-5.672 6.2V63c0 4.88-.92 6.068-6.332 6.068-.264 0-.528 0-.66.132-3.168.396-5.672 3.032-5.672 6.2 0 3.432 2.768 6.332 6.332 6.332 3.3 0 6.068-2.64 6.2-5.804V75.4c0-4.484 1.452-6.2 6.2-6.332h.132c3.3 0 6.072-2.64 6.2-5.936v-.4c0-4.616 1.452-6.332 6.336-6.332 3.428 0 6.332-2.768 6.332-6.332 0-3.296-2.772-6.068-6.2-6.068zM62.592 56.664h-.528c-5.54 0-6.332-1.32-6.332-6.332a6.336 6.336 0 0 0-12.664 0c0 5.016-.792 6.2-6.332 6.2h-.528a6.192 6.192 0 0 0-5.676 6.2c0 3.432 2.772 6.336 6.336 6.336 3.296 0 6.068-2.64 6.2-5.804v-.4c0-4.616 1.452-6.332 6.332-6.332s6.332 1.72 6.332 6.2c0 3.432 2.772 6.336 6.332 6.336 3.564 0 6.336-2.772 6.336-6.332a6.388 6.388 0 0 0-5.808-6.072zm-38.26 25.068a6.332 6.332 0 1 0 0-12.664 6.332 6.332 0 0 0 0 12.664z"/></svg>