<svg width="64" height="64" viewBox="0 0 128 128" xmlns="http://www.w3.org/2000/svg"><path d="M0 64c0 35.346 28.654 64 64 64 35.346 0 64-28.654 64-64 0-35.346-28.654-64-64-64C28.654 0 0 28.654 0 64zm99.8-20c-3.431 0-6.334 2.77-6.334 6.333 0 5.013-.791 6.333-6.333 6.333h-.527a6.192 6.192 0 0 0-5.673 6.2V63c0 4.881-.924 6.068-6.333 6.068-.264 0-.528 0-.66.132-3.166.396-5.673 3.035-5.673 6.201 0 3.43 2.77 6.333 6.333 6.333 3.298 0 6.069-2.639 6.2-5.805V75.4c0-4.485 1.452-6.2 6.201-6.333h.132c3.299 0 6.07-2.638 6.201-5.937v-.395c0-4.618 1.452-6.333 6.333-6.333 3.43 0 6.333-2.77 6.333-6.333 0-3.298-2.77-6.069-6.2-6.069zM62.593 56.666c3.166.264 5.673 2.902 5.805 6.069 0 3.562-2.77 6.332-6.333 6.332-3.562 0-6.333-2.902-6.333-6.332 0-4.486-1.451-6.201-6.333-6.201-4.881 0-6.333 1.715-6.333 6.333v.395c-.131 3.167-2.902 5.805-6.2 5.805-3.563 0-6.333-2.902-6.333-6.332a6.192 6.192 0 0 1 5.673-6.201h.528c5.54 0 6.332-1.188 6.332-6.201C43.067 46.77 45.97 44 49.4 44c3.563 0 6.333 2.903 6.333 6.333 0 5.013.792 6.333 6.333 6.333h.528zM24.333 81.733a6.333 6.333 0 1 1 0-12.666 6.333 6.333 0 0 1 0 12.666z"/></svg>