<svg width="64" height="64" viewBox="0 0 128 128" xmlns="http://www.w3.org/2000/svg"><path d="M64 128C28.652 128 0 99.348 0 64S28.652 0 64 0s64 28.652 64 64-28.652 64-64 64zM20 64.008c.532.204.824.328 1.124.432 8.16 2.772 16.308 5.56 24.48 8.292.9.304 1.404.8 1.812 1.624 4.868 9.94 9.768 19.868 14.664 29.796.6 1.216 1.212 2.428 1.92 3.848.18-.464.272-.68.348-.904 2.764-8.12 5.548-16.232 8.264-24.368a3.52 3.52 0 0 1 1.972-2.26c10.528-5.152 21.036-10.352 31.548-15.54L108 63.98c-.564-.2-.868-.312-1.176-.416-8.16-2.772-16.32-5.532-24.46-8.34-.592-.204-1.292-.644-1.556-1.172-5.424-10.896-10.796-21.82-16.176-32.736-.192-.388-.4-.772-.68-1.316-.192.504-.316.8-.42 1.1-2.784 8.2-5.576 16.4-8.328 24.608a2.608 2.608 0 0 1-1.456 1.656c-7.044 3.44-14.076 6.916-21.108 10.384-4.136 2.04-8.264 4.096-12.64 6.26zM50.92 74.62l19.048 6.436-6.464 19.092-12.58-25.528zM27.908 63.544l25.528-12.612-6.472 19.08-19.056-6.468zm24.124 8.096c1.696-.844 3.244-1.62 4.8-2.388 7.464-3.684 14.924-7.384 22.412-11.028a2.792 2.792 0 0 1 1.908-.12c5.968 1.968 11.916 4 17.864 6.02.26.088.512.192.988.376-2.18 1.088-4.172 2.088-6.172 3.076-7.024 3.468-14.048 6.944-21.092 10.38-.492.24-1.204.38-1.7.216-6.16-2.04-12.3-4.14-18.44-6.228-.144-.048-.268-.144-.568-.304zm25.996-16.26l-27.48 13.568 13.92-41.068c4.576 9.28 9.04 18.324 13.56 27.5z"/></svg>