<svg width="64" height="64" viewBox="0 0 128 128" xmlns="http://www.w3.org/2000/svg"><path d="M64 128C28.652 128 0 99.348 0 64S28.652 0 64 0s64 28.652 64 64-28.652 64-64 64zm10.344-58.496V54.16a7.64 7.64 0 01-5.38-7.292 7.644 7.644 0 0110.744-6.992l7.144-4.132L68.776 25.28a9.536 9.536 0 00-9.552 0l-9.092 5.26 3.936 2.2v10.692a7.64 7.64 0 014.56 11.176l14.704 15.284a8.145 8.145 0 011.012-.392zm4.552 0a7.632 7.632 0 010 14.584v12.768l16.364-9.472a9.488 9.488 0 004.74-8.212V48.828a9.489 9.489 0 00-4.74-8.212l-3.872-2.24-8.124 4.696a7.64 7.64 0 01-4.368 11.092zm-8.908 3.476L55.284 57.692a7.612 7.612 0 01-1.216.452v14.392a7.64 7.64 0 015.588 7.356A7.648 7.648 0 0147.08 85.74l-7.32 5.712 19.46 11.264a9.524 9.524 0 009.552 0l5.568-3.224v-15.4a7.64 7.64 0 01-4.356-11.112zm-20.472-.316V58.016c-3.008-1.028-5.172-3.876-5.172-7.224s2.164-6.2 5.172-7.228v-8.16l-3.96-2.212-12.816 7.424A9.488 9.488 0 0028 48.828v30.344a9.489 9.489 0 004.74 8.212l2.788 1.612 9.08-7.1a7.628 7.628 0 014.908-9.232zM52 54.092a3.308 3.308 0 10.008-6.612A3.308 3.308 0 0052 54.092zm0 29.1a3.308 3.308 0 10.008-6.612A3.308 3.308 0 0052 83.192zm24.62-33.02a3.308 3.308 0 10.008-6.612 3.308 3.308 0 00-.008 6.612zm0 29.928a3.308 3.308 0 10.008-6.616 3.308 3.308 0 00-.008 6.616z"/></svg>