<svg width="64" height="64" viewBox="0 0 128 128" xmlns="http://www.w3.org/2000/svg"><path d="M45.16 32.648L31.292 40.24a11.72 11.72 0 0 0-3.672 3.752A11.052 11.052 0 0 0 26 49.736l.028 10.288L26 60v18.264c0 2.12.62 4.152 1.728 5.912 1.036 1.64 2.5 3.04 4.3 4.028l25.944 14.264a12.52 12.52 0 0 0 6.248 1.528V86.704l-1.456-.8L45.1 76.192l-1.376-.812-.028-.792v-20.18l-14.588 8.02 14.588-8.02v-1.6L62.72 42.32l-.048-.048.092.052 1.456-.8V24a12.56 12.56 0 0 0-5.48 1.144l-13.608 7.48.028.02zM64 128C28.652 128 0 99.348 0 64S28.652 0 64 0s64 28.652 64 64-28.652 64-64 64zm17.44-73.36l-17.228 9.472V83.24l17.228-9.468V54.64zM102 49.736c0-1.98-.54-3.88-1.516-5.56l-15.736 8.652v22.716l-1.624.892v18.828l12.848-7.06a11.788 11.788 0 0 0 4.416-4.208A11.039 11.039 0 0 0 102 78.26V49.74zM95.972 39.8l-12.848-7.064-17.336 9.532 17.336 9.528 1.624.892v.144l15.736-8.652a11.76 11.76 0 0 0-4.512-4.38zM64.22 41.524l1.568.74 17.336-9.528-13.096-7.2a12.496 12.496 0 0 0-5.808-1.528v17.52zm.112 45.244l-.112-.06V104a12.504 12.504 0 0 0 5.808-1.528l12.888-7.088-17.128-9.416-1.456.8zM83.124 76.44l-17.336 9.528 17.128 9.416.208-.116V76.44z"/></svg>