<svg width="64" height="64" viewBox="0 0 128 128" xmlns="http://www.w3.org/2000/svg"><path d="M64 128C28.652 128 0 99.348 0 64S28.652 0 64 0s64 28.652 64 64-28.652 64-64 64zm0-112c-26.5 0-48 21.5-48 48s21.5 48 48 48 48-21.5 48-48-21.5-48-48-48zm-.2 78.48L37.896 79.12V48.448l25.908-15.32 25.904 15.32v30.676L63.804 94.476zM52.1 42.992l-.528.328L76 81.92V43.288l-12.2-7.232-11.7 6.936zm-.792 41.128l12.496 7.432 11.408-6.772-23.904-37.776v37.12zM40.4 49.928v27.748l8.712 5.16V44.768l-8.712 5.16zm37.808 33.076l9.008-5.328V49.928l-9.008-5.324v38.4z"/></svg>