<svg width="64" height="64" viewBox="0 0 128 128" xmlns="http://www.w3.org/2000/svg"><path d="M20 40.64l21.94 12.588v.048l43.692 25.24V53.264L63.76 40.64l21.868 12.628L42.7 28.508h.036a1.68 1.68 0 0 0-1.68 0L20 40.632zm21.94 12.668v25.276l42.844 24.72a1.76 1.76 0 0 0 1.68 0l21.06-12.136-11.972-6.92-9.92-5.708v-.024.024L41.94 53.308zm53.612 30.94l12.016 6.92V41.612a1.68 1.68 0 0 0-.88-1.468L85.632 28v50.52l9.92 5.728zM64 128C28.652 128 0 99.348 0 64S28.652 0 64 0s64 28.652 64 64-28.652 64-64 64zM20 40.64v49.548a1.68 1.68 0 0 0 .88 1.472l21.06 12.144v-25.22l-.08-.044V53.26l.08.048v-.032l-.08-.048v.032L20 40.64z"/></svg>