<svg width="64" height="64" viewBox="0 0 128 128" xmlns="http://www.w3.org/2000/svg"><path d="M64 128C28.652 128 0 99.348 0 64S28.652 0 64 0s64 28.652 64 64-28.652 64-64 64zm18-60.632l-10.432.536 9.304-23.7-28.336 3.904L50 74.236h6.2L55.22 104zM60.008 93.36c0 .52-.44.944-.984.944s-.988-.424-.988-.944v-7c0-.52.44-.944.988-.944s.984.42.984.94zM52.68 72.216l2.176-22.92a.892.892 0 0 1 .904-.784h.16c.256 0 .496.1.668.28s.256.42.236.66l-1.892 20.88h5.64l-.26 12.704a1.08 1.08 0 0 1-1.1 1.032h-.048c-.296 0-.58-.116-.788-.32s-.32-.476-.316-.76l.256-10.772zm0-26.4l27.628-3.232-13.532-5.656S68.184 26.692 58.88 24l-.844 3.232s5.64 1.348 5.076 9.968z"/></svg>