<svg width="64" height="64" viewBox="0 0 128 128" xmlns="http://www.w3.org/2000/svg"><path d="M72.604 54.876l7.368-14.972c2.28-5.28 4.888-8.584 7.82-9.904H64c2.172.772 3.26 1.98 3.26 3.632 0 .464-.808 2.456-2.424 5.98zM60.94 78.588l-7.616-15.26c-1.808 3.632-3.788 7.6-5.948 11.896C40.968 89.196 34.616 96.788 28.312 98h58.34L98.06 80.504c-3.26 3.632-9.724 5.448-19.392 5.448H57.32zM64 128C28.652 128 0 99.348 0 64S28.652 0 64 0s64 28.652 64 64-28.652 64-64 64zM20 81h18.416l14.34-29.048L67.26 81h16.948c-.328-.22-.488-.772-.488-1.652 0-4.472 16.132-42.912 24.28-45.056H88.772L73.124 65.98 56.992 34.292H38.416C40.804 36.052 42 37.924 42 39.904 42 48.312 24.724 78.196 20 81z"/></svg>