<svg width="64" height="64" viewBox="0 0 128 128" xmlns="http://www.w3.org/2000/svg"><path d="M64 128C28.652 128 0 99.348 0 64S28.652 0 64 0s64 28.652 64 64-28.652 64-64 64zm38.06-68.784c-6.072.088-30.992.032-37.376.068-.236 0-.664.44-.668.676-.048 2.68-.052 5.356 0 8.032.008.252.468.712.72.712 9.576.036 19.152.028 28.732.056.172 0 .52.38.496.532-2.572 15.328-16.628 26.308-32.14 25.14C44.712 93.14 31.88 78.16 33.684 61.164c1.336-12.56 8.1-21.48 19.928-25.788 11.692-4.26 22.384-1.756 31.612 6.7.128.116.544.132.656.02a477.92 477.92 0 0 0 6.084-6.084c.104-.104.12-.472.032-.56-8.944-8.52-19.568-12.384-31.872-11.264-21.728 1.976-38 21.64-35.948 43.308 2.112 22.32 21.432 38.384 43.688 36.328 21.584-2 37.856-21.448 35.992-42.96-.06-.656-.176-1.072-.452-1.324-.268-.244-.684-.332-1.344-.32z"/></svg>