<svg width="64" height="64" viewBox="0 0 128 128" xmlns="http://www.w3.org/2000/svg"><path d="M64 128C28.652 128 0 99.348 0 64S28.652 0 64 0s64 28.652 64 64-28.652 64-64 64zm13.044-34l.004-.008c.584.012 1.2-.048 1.832-.2 3.504-.82 6.468-3.88 7.172-7.184L100 34.224l-11.088-.056-9.144 34.272-24.72-34.388-.016.016.012-.04L50.96 34v.004a7.598 7.598 0 0 0-1.836.196c-3.5.824-6.464 3.884-7.172 7.184L28 93.78l11.092.048 9.14-34.272 24.72 34.392h.012l4.08.052zM50.672 50.424l1.932-7.24L77.328 77.58l-1.932 7.24-24.72-34.4z"/></svg>