<svg width="64" height="64" viewBox="0 0 128 128" xmlns="http://www.w3.org/2000/svg"><path d="M64 0c35.348 0 64 28.652 64 64s-28.652 64-64 64S0 99.348 0 64 28.652 0 64 0zm-.136 20l-.444.056a3.604 3.604 0 00-1.464.716l-34.56 25.68-.356.284a3.316 3.316 0 00-1.036 2.428v29.688a3.304 3.304 0 001.4 2.716L61.96 107.24c1.1.96 2.828 1.032 3.968.1a60016.665 60016.665 0 0034.68-25.768 3.208 3.208 0 001.388-2.728V49.148l-.016-.432a3.2 3.2 0 00-1.24-2.184l-34.812-25.86-.372-.252a3.076 3.076 0 00-2.136-.36zm-.86 80.112c.588 0 1.184.036 1.772.088.008 1.364.008 2.732 0 4.096-.6.012-1.2.008-1.796 0l-.008-2.788.012-.7zm-6.84-3.672l1.012.008c.62 1.26 1.448 2.416 1.928 3.748-.604.032-1.204.032-1.808.04-.736-1.252-1.424-2.532-2.14-3.792l1.012-.004zm10.908 1.92a23.44 23.44 0 011.76.04c.012.6.008 1.2-.068 1.792h-1.68l-.016-.92zm-1.9-9.828l.864.884c-.008 1.96-.004 3.92 0 5.884a35.584 35.584 0 00-.752.816c-.808.016-1.616.02-2.424-.004.008-.556-.06-1.12.072-1.664.456-.048.912-.032 1.372-.036v-4.116h-3.348l-3.352-.02a67.176 67.176 0 010-1.724c2.52-.04 5.044 0 7.568-.02zm11.528 1.64c.668-.568 1.276.384 1.848.664v.212l-1.5.968c-1 .64-2.008 1.28-2.98 1.968l.848-.008.676.004.68.012c0 .6 0 1.2-.008 1.8-1.84.028-3.676.02-5.512.004a29.688 29.688 0 01-.048-1.696c1.96-1.368 4.008-2.6 6-3.924zm-24.32 1.656l3.58.016v1.796l-3.584.02-3.58-.012a68.104 68.104 0 010-1.808l3.584-.012zM46.368 89.2l.888.008c.008.6.008 1.2 0 1.8-.592.012-1.184.012-1.776.004-.008-.6-.004-1.204.004-1.808l.884-.004zm34.372-6.456c.94 1.436 1.832 2.908 2.8 4.332.268-.12.392-.416.56-.644.74-1.216 1.536-2.392 2.28-3.604.024.9.04 1.8.016 2.7.02.336-.224.6-.376.872-.824 1.24-1.612 2.496-2.42 3.74-.972-1.472-1.912-2.96-2.872-4.44-.004-.988-.012-1.972.012-2.96zM75 80.532l2.068 7.368H76.2l-.868-.012c-.496-1.88-1.028-3.744-1.532-5.62l-.944-.048-1.552 5.68-1.736-.008 1.048-3.668 1.008-3.68c1.128-.02 2.252-.008 3.376-.012zm-35.008 4.12l1.576.004 1.576.012c.008.596.048 1.192-.028 1.78-1.56.08-3.132.04-4.696.012a97.056 97.056 0 010-1.776l1.572-.028zm12.6-4.192c.5.356 1.004.704 1.5 1.068-1.556.984-3.08 2.016-4.648 2.972 2.276.044 4.552-.004 6.828.028.012.608.012 1.216-.004 1.824-3.372.012-6.744.028-10.12-.008a42.74 42.74 0 01-.004-1.728c2.14-1.4 4.28-2.808 6.448-4.16zm7.6-1.336h.892c.016 2.26 0 4.52.012 6.772-.424.02-.848.04-1.272.08a12.78 12.78 0 00-.54-.1c.012-2.248-.012-4.5.012-6.748l.896-.004zm5.512 1.664c.736 1.232 1.604 2.456 1.984 3.856l-1.76.012-1.04-1.88-1.06-1.872c.628.008 1.256-.032 1.88-.116zm23.836.852l.92.008v1.796l-.92.008-.92-.02a53.948 53.948 0 010-1.776l.92-.016zm-43.152-7.168c.02.98.008 1.96.016 2.94-.98 1.456-1.876 2.968-2.88 4.404-.928-1.44-1.828-2.904-2.8-4.32a82.64 82.64 0 01.012-2.988 729.36 729.36 0 012.796 4.36c.988-1.44 1.876-2.948 2.856-4.396zm4.6 1.9a19.88 19.88 0 011.76.04 34.51 34.51 0 010 1.82 91.76 91.76 0 01-1.772 0 20.54 20.54 0 01.008-1.86zm24.464-4.896c1.912.016 3.824 0 5.736.008l.868.84v5.768h-.872l-.872-.016c-.004-1.616-.016-3.232.004-4.852H76.3v.74l-.012.736c-.572.008-1.148.008-1.72.008-.016-.8-.012-1.592-.012-2.392l.896-.84zm-44.788-1.148l1.124.012c.008.576.008 1.156.004 1.732l-1.4.02.004 2.06.008 2.064c2.212.008 4.424-.012 6.632.012.012.568.012 1.136.008 1.704h-3.608c-1.308.008-2.616.016-3.924-.02a1.936 1.936 0 01-.808-.852l-.024-1.96.008-3.928.424-.42.424-.42 1.128-.004zm38.616 1.52c.508.352 1.008.712 1.52 1.056-1.468 1.052-3.032 1.968-4.532 2.98 2.248.04 4.492 0 6.74.024.016.628.016 1.26 0 1.888-3.364.02-6.724.004-10.088.004-.084-.576-.084-1.16-.092-1.74 2.132-1.44 4.324-2.776 6.452-4.216zm23.956-.28c.508.344 1.012.708 1.508 1.072l-4.612 2.988 3.388.008h3.392v1.836c-3.36.012-6.72.012-10.076 0a77.152 77.152 0 010-1.76c2.12-1.404 4.26-2.772 6.4-4.144zm-39.8-7.932l.88.008c1.388 2.272 2.816 4.52 4.228 6.772.612.8.248 1.872.344 2.804l-.612.012-1.288-2.048c-.86-1.36-1.72-2.72-2.532-4.112-.22 2.264-.04 4.552-.112 6.832-.6.004-1.2.004-1.792-.012-.016-3.416-.016-6.832 0-10.252l.88-.004zm32.144 3.64l.588.056c.06 2.1.024 4.204.016 6.308a44.72 44.72 0 01-1.788 0 342.292 342.292 0 010-6.352c.592-.008 1.188-.048 1.772.044zm-45.244 2.548c2.056-.228 4.132-.048 6.196-.112.532-.008 1.064.016 1.592.072.008.608.008 1.22 0 1.832-2.596-.004-5.184.012-7.78-.008a54.452 54.452 0 01-.008-1.784zm55.96-8.228l1.944.028c.492.308 1.044.808.94 1.464 0 1.408-.012 2.82 0 4.228-.02.68.012 1.352-.008 2.032.032.552-.12 1.096-.088 1.648l-1.66-.004V63.36c-1.36-.04-2.72-.008-4.08-.02 0 .472 0 .944-.008 1.42a81.8 81.8 0 01-1.716.008 140.4 140.4 0 01-.008-2.336l.784-.816c1.948-.02 3.9-.04 5.844.008zm-27.344 6.932l.864.008c.008.6.008 1.208 0 1.816a62.5 62.5 0 01-1.732 0v-1.82h.868zm-7.64-3.584l.9.008c.008 1.492.004 2.984 0 4.48-.6.008-1.2.008-1.804-.008a274.888 274.888 0 010-4.468l.904-.012zm18.448 2.072l2.748.008c.072.544.12 1.096.068 1.648-.176.36-.588.216-.9.248-1.56-.048-3.12.092-4.668-.088a33.76 33.76 0 01.008-1.8l2.744-.016zm-7.584-.068l.88.004c.012.608.012 1.216 0 1.824h-1.764a83.336 83.336 0 010-1.824l.88-.004zm-33.4-5.26l.004 5.792h-1.816v-2.896l.004-2.896h1.812zm6.54-2.3l1.68.012c.672 2.456 1.4 4.9 2.04 7.368l-1.684.004c-.576-1.896-1.02-3.824-1.612-5.712l-.956.068c-.424 1.9-1.028 3.752-1.488 5.64l-1.732-.004c.688-2.456 1.372-4.916 2.08-7.368l1.672-.008zm21.584-.544l.268.056c.612.208 1.096.88 1.016 1.532v5.128l-.884.96h-1.136l-1.136-.008a87.036 87.036 0 010-1.76l1.42-.016.004-4.04c-2.22-.2-4.46-.032-6.688-.092a88.48 88.48 0 010-1.748l6.86-.004.28-.008zm-35.608 4.46c.592-.012 1.188.008 1.78.048v1.72c-.6.004-1.2.008-1.796 0-.004-.592 0-1.18.016-1.768zm42.56-7.38l1.136.012c.02.58.02 1.16.012 1.748-.48.008-.964.008-1.444.012v4.14l3.348.008 3.352.008c.004.588.004 1.176-.012 1.76-2.512.016-5.028 0-7.544.008-.32-.424-.936-.748-.856-1.368a399.868 399.868 0 01-.004-4.96c-.08-.62.548-.94.872-1.368h1.14zM54.52 58.852c.012.616.012 1.232 0 1.848h-4.368l-.02-.92.016-.924zm35.572-2.124l3.9.004v1.832c-2.6 0-5.2.024-7.8-.012-.008-.6-.012-1.204 0-1.808l3.9-.016zm-8.86 0l.928.02c.008.6.004 1.2 0 1.8a27.324 27.324 0 01-1.852 0c-.008-.6-.008-1.2 0-1.8l.924-.02zm-48.064-3.76l4.488.016.008 1.728-1.336.888a71.68 71.68 0 01-2.708 1.72c-.58-.212-1.02-.7-1.516-1.06.74-.476 1.492-.936 2.208-1.44-1.876-.012-3.752.008-5.628-.012a61.144 61.144 0 010-1.828l4.484-.016zm12.392-1.476c.952.012 1.896 0 2.848.016-1.412 1.024-2.912 1.908-4.328 2.92 1.456.932 2.888 1.908 4.336 2.848-.976.02-1.952.008-2.928.012-1.408-.972-2.868-1.868-4.256-2.872 1.4-1.04 2.892-1.94 4.328-2.92zm12.576 3.252l3.88.008c.064.6.056 1.2-.024 1.8-2.58.008-5.152 0-7.728 0a181.048 181.048 0 01-.004-1.812h3.88zm6.5 0l.932.016v1.768c-.62.016-1.24.016-1.864.008a94.02 94.02 0 010-1.784l.932-.008zm4.316-5.356l.864.004c.016 1.932.004 3.864.004 5.792l-1.74.008.004-5.8h.868zm22.036 3.332l.896.008a34.08 34.08 0 010 1.824c-.6.012-1.2.012-1.792 0a44.884 44.884 0 010-1.82l.896-.012zm-6.86-7.188l.84.08 2.092 7.332h-1.728c-.552-1.884-1.02-3.796-1.588-5.68l-.952.012-.756 2.84-.768 2.828h-1.74c.712-2.436 1.384-4.884 2.068-7.328 1.124-.012 2.256-.188 3.376-.004zm-9.076 4.388l.88.012c0 .6 0 1.208-.008 1.812l-1.748-.004-.004-.908.004-.908.88-.004zm21.28-2.048c.656 1.24 1.456 2.42 1.948 3.748-.604.02-1.216.024-1.82.028l-2.128-3.76 1-.012zm-32.88-5.5l.86.008c.028 2.56 0 5.132.016 7.7-.268.256-.532.52-.792.78-1.972.02-3.94 0-5.908.012-.26-.256-.528-.496-.76-.768-.1-.788-.028-1.588-.028-2.376h1.648l.012.68-.004.68c1.356.152 2.72.04 4.08.072.008-2.256-.012-4.52.016-6.776l.86-.012zm-13.58 4.244l.868.008c.016 1.408.008 2.82.008 4.228-.588.004-1.172.008-1.76 0-.004-1.408-.024-2.82.016-4.232h.868zM90.98 44.14l.896.012c.02 1.936.02 3.876 0 5.812-.6.012-1.192.008-1.788 0a319.76 319.76 0 010-5.812l.892-.012zm-53.608 2.388l3.892.016a39.04 39.04 0 010 1.816c-2.6.024-5.188.02-7.784 0a57.936 57.936 0 010-1.816l3.892-.016zm6.88.016a42.8 42.8 0 010 1.824c-.588.008-1.176.004-1.768 0a79.86 79.86 0 010-1.824h1.772zm12.84-6.728c0 .968.064 1.944-.02 2.912-.876 1.528-1.892 2.976-2.836 4.46l-1.884-2.908a50.852 50.852 0 01-.912-1.476c-.1-.98-.028-1.972-.024-2.96.948 1.464 1.868 2.944 2.828 4.392.96-1.468 1.88-2.96 2.848-4.42zm11.716-4.384l.864.004c1.56 2.468 3.08 4.96 4.652 7.416 0 .748.004 1.496-.012 2.244a70.396 70.396 0 00-.672-.12c-1.336-2.024-2.564-4.12-3.888-6.152l-.012 6.864-.9.008-.9-.008c-.008-3.416-.016-6.832.004-10.248l.864-.008zM47.6 37.352l1.284.008 1.288.056c.004.568 0 1.14-.004 1.708-1.904 1.16-3.736 2.452-5.668 3.56-.568-.216-1-.68-1.468-1.068 1.264-.78 2.504-1.608 3.78-2.368-.648-.032-1.296-.028-1.94-.036a54.44 54.44 0 01-.008-1.808c.48-.008.964-.004 1.448 0l1.288-.052zm34.312 2.732l4.264.012v1.76c-2.84.004-5.684.008-8.532 0v-1.76l4.268-.012zm-20.924-2.016l.888.012c.012.604.012 1.204 0 1.808a30.592 30.592 0 01-1.776 0c-.012-.6-.012-1.204 0-1.808l.888-.012zm15.008-1.252l.92.016v1.76l-.92.012-.916-.008a144.5 144.5 0 010-1.768l.92-.012zm-19.64-7.356l.932.012c.008 2.652.02 5.3-.008 7.948-.588.016-1.176.016-1.764.012-.2-2.64-.04-5.304-.08-7.952l.92-.02zm6.808 3.76c.632 1.256 1.432 2.428 1.944 3.744-.608.028-1.22.028-1.828.028-.72-1.24-1.42-2.496-2.108-3.76.664-.016 1.328-.012 1.992-.012zm10.448-.904l2.464.008a70.23 70.23 0 010 1.836 184.3 184.3 0 01-4.932-.004 82.824 82.824 0 010-1.828l2.468-.012zm-9.732-6.008l2.74.024.296.228.536.532-.008 2.876.008 2.872c-.544.008-1.092.032-1.632-.004l-.132-.536c0-1.432.12-2.864.004-4.296h-4.024l-.008.724-.004.72h-1.704c.004-.768-.08-1.544.032-2.308.304-.352.616-.9 1.152-.828h2.744z"/></svg>