<svg width="64" height="64" viewBox="0 0 128 128" xmlns="http://www.w3.org/2000/svg"><path d="M64 128C28.652 128 0 99.348 0 64S28.652 0 64 0s64 28.652 64 64-28.652 64-64 64zm-.112-112C37.488 16 16 37.488 16 63.888s21.488 47.928 47.928 47.928c26.436 0 47.924-21.488 47.924-47.928C111.852 37.452 90.328 16 63.892 16zm0 92.12c-24.368 0-44.232-19.824-44.232-44.232.04-24.368 19.864-44.196 44.232-44.196 24.372 0 44.236 19.828 44.236 44.236 0 24.368-19.828 44.196-44.236 44.196zM39.096 42.632L57.84 61.376l3.528-3.524L42.62 39.104l-3.524 3.528zm27.272 27.28L85.112 88.66l3.528-3.528-18.748-18.744-3.524 3.524zm-5.984-6.008l3.552 3.552 3.524-3.524-3.548-3.552-3.528 3.524zm6.036-5.896l3.524 3.52 18.748-18.744-3.528-3.52L66.42 58.008zM39.232 85.16l3.52 3.524L61.5 69.94l-3.524-3.524L39.232 85.16z"/></svg>