<svg width="64" height="64" viewBox="0 0 128 128" xmlns="http://www.w3.org/2000/svg"><path d="M42.472 124.288c13.292-2.244 28.744-8.4 43.732-18.132 21.728-14.112 36.976-32.168 41.592-47.28.136 1.688.204 3.4.204 5.124 0 35.348-28.652 64-64 64a63.86 63.86 0 0 1-21.528-3.712zM8.02 95.04A63.712 63.712 0 0 1 0 64C0 28.652 28.652 0 64 0c24.48 0 45.748 13.74 56.512 33.932-14.296-8.572-43.608-2.82-71.344 15.192a139.892 139.892 0 0 0-16.42 12.44A8 8 0 0 0 21.6 72.8c-6.492 7.54-11.156 15.18-13.576 22.24zm15-20.78a8 8 0 0 0 11.524-10.864 95.974 95.974 0 0 1 6.868-4.9C63.18 44.36 86.392 41.472 93.26 52.044c6.864 10.572-5.216 30.6-26.984 44.74-21.768 14.136-44.98 17.024-51.844 6.452-4.544-7-.788-18.144 8.584-28.976z"/></svg>