<svg width="64" height="64" viewBox="0 0 128 128" xmlns="http://www.w3.org/2000/svg"><path d="M64 128C28.652 128 0 99.348 0 64S28.652 0 64 0s64 28.652 64 64-28.652 64-64 64zm40.328-60.668c2.028 0 3.672-1.492 3.672-3.332v-6.668c0-1.84-1.64-3.332-3.672-3.332h-22.12c-2.028 0-3.672 1.492-3.672 3.332 0 1.84 1.644 3.332 3.672 3.332h18.448V64c0 1.84 1.644 3.332 3.672 3.332zm-18.196 0h-2.8l-20.928-12.72A3.916 3.916 0 0 0 60.28 54h-7.34c-2.028 0-3.672 1.492-3.672 3.332 0 1.84 1.64 3.332 3.672 3.332h6.168l21.408 12.96c.508.24 1.08.376 1.692.376h11.264c2.028 0 3.672-1.492 3.672-3.336 0-1.84-1.64-3.332-3.672-3.332h-7.34zm-25.852 0h-6.216l-20.928-12.72A3.92 3.92 0 0 0 31.012 54h-7.34C21.644 54 20 55.492 20 57.332c0 1.84 1.64 3.332 3.672 3.332h6.168l21.408 12.96c.504.24 1.08.376 1.692.376h7.34c2.028 0 3.672-1.492 3.672-3.336 0-1.84-1.644-3.332-3.672-3.332zm-36.608 0c-2.028 0-3.672 1.492-3.672 3.336C20 72.508 21.64 74 23.672 74h7.34c2.028 0 3.672-1.492 3.672-3.332 0-1.84-1.644-3.336-3.672-3.336h-7.34z"/></svg>