<svg width="64" height="64" viewBox="0 0 128 128" xmlns="http://www.w3.org/2000/svg"><path d="M78.176 79.876l-2.448-5.204H70.2l2.504 5.32h11.848l8.564-11.64L90 64.072l3.116-4.28-8.564-11.64h-6.46L89.9 64.072zM64 128C28.652 128 0 99.348 0 64S28.652 0 64 0s64 28.652 64 64-28.652 64-64 64zm-7.64-53.328l2.376-5.184 4.484-9.416 4.484 9.26h5.66L63.352 48 48.34 79.996h5.528zM96.28 64L108 48.012h-6.32l-8.564 11.64zm0 0l-3.16 4.352 8.56 11.64H108zM45.688 52.632a14.044 14.044 0 0 0-10.66-4.616 13.664 13.664 0 0 0-8.692 2.944l3.68 3.92a8.76 8.76 0 0 1 5-1.4 9.332 9.332 0 0 1 7.12 3.08c1.848 2.032 2.888 4.752 2.892 7.584a10.608 10.608 0 0 1-2.896 7.58 9.584 9.584 0 0 1-7.12 3.24 9.584 9.584 0 0 1-7.12-3.24 11.288 11.288 0 0 1-1.44-13.06l-3.684-3.92a15.86 15.86 0 0 0-2.764 9.26 16 16 0 0 0 4.34 11.368A14.3 14.3 0 0 0 35.016 80c4.212 0 7.78-1.388 10.672-4.624a16.496 16.496 0 0 0 4.34-11.368 15.86 15.86 0 0 0-4.34-11.372z"/></svg>