<svg width="64" height="64" viewBox="0 0 128 128" xmlns="http://www.w3.org/2000/svg"><path d="M64 128C28.652 128 0 99.348 0 64S28.652 0 64 0s64 28.652 64 64-28.652 64-64 64zm47.944-69.324c-2.04-.436-4.064-1.004-6.128-1.46-1.904-.448-3.796-.992-5.712-1.404-.544-.12-1.092-.344-1.668-.3-.392.1-.704.388-1.048.6L78.56 67.92c-.364.248-.72.492-1.136.64.224-.86.648-1.64.972-2.452l2.88-6.928c.94-2.184 1.82-4.4 2.776-6.584.088-.22.2-.456.136-.688-1.228-.368-2.496-.612-3.732-.936-2.384-.58-4.768-1.192-7.152-1.76-.48-.112-.944-.312-1.436-.344a.724.724 0 0 0-.224.288l-14.132 33.88a1.876 1.876 0 0 0-.144.644c.78.268 1.604.4 2.396.612 2.804.68 5.6 1.384 8.396 2.072.52.12 1.036.336 1.58.336.304-.4.424-.904.624-1.36 1.384-3.264 2.72-6.548 4.112-9.812.232-.544.4-1.112.688-1.616.492-.064.948.148 1.416.248 3.272.812 6.56 1.592 9.824 2.428.888.24 1.892.568 2.392 1.424.4.6.236 1.368-.044 1.984l-3.708 8.884c-.188.492-.5.96-.524 1.504.868.292 1.772.436 2.652.68 2.704.68 5.424 1.336 8.128 2.004.536.12 1.06.324 1.604.336a2.34 2.34 0 0 0 .32-.56c1.664-4.02 3.344-8.016 5.016-12.024.4-1.004.844-1.996 1.056-3.052a5.64 5.64 0 0 0-.488-4.212c-.736-1.268-2.072-2.024-3.376-2.604-1.412-.648-2.952-.948-4.44-1.348a.72.72 0 0 1 .24-.3c5.572-3.464 11.16-6.896 16.708-10.368v-.256zM67.528 51.88a4.712 4.712 0 0 0-2.136-3.62c-1.092-.788-2.36-1.256-3.608-1.712a66.568 66.568 0 0 0-5.66-1.584c-4.14-1-8.272-2.048-12.416-3.052a77.112 77.112 0 0 0-8.988-1.88c-.98-.024-1.96-.068-2.94.02a7.864 7.864 0 0 0-3.664 1.528 9.72 9.72 0 0 0-2.24 2.752c-.668 1.132-1.12 2.372-1.648 3.572l-6.516 15.66c-.712 1.624-1.368 3.308-1.58 5.08-.096.96.128 1.932.636 2.76a6.647 6.647 0 0 0 2.648 2.328c2.496 1.224 5.2 1.916 7.888 2.56 4.04 1.016 8.108 1.996 12.148 3.008 2.976.712 5.936 1.536 8.976 1.916 1.76.28 3.568.152 5.268-.38a7.315 7.315 0 0 0 3.364-2.616c1.18-1.592 1.848-3.476 2.616-5.28 2.12-5.112 4.268-10.212 6.396-15.32.788-1.808 1.56-3.72 1.456-5.74zm-14.48 3.564c.08-.588-.34-1.092-.832-1.348-1-.544-2.14-.744-3.228-1.024-2.888-.72-5.776-1.432-8.68-2.136a5.768 5.768 0 0 0-2.536-.16c-.98.28-1.472 1.272-1.804 2.14-1.64 3.9-3.24 7.808-4.888 11.696-.18.456-.36.912-.4 1.4 0 .56.388 1.048.864 1.28.716.368 1.496.572 2.252.772l9.02 2.216c1.048.244 2.148.512 3.22.28.9-.292 1.36-1.216 1.692-2.028l4.42-10.604c.348-.8.792-1.592.904-2.48z"/></svg>