<svg width="64" height="64" viewBox="0 0 128 128" xmlns="http://www.w3.org/2000/svg"><path d="M64 128C28.652 128 0 99.348 0 64S28.652 0 64 0s64 28.652 64 64-28.652 64-64 64zM47.424 69.16a17.412 17.412 0 00-17.4 17.42A17.412 17.412 0 0047.42 104a17.412 17.412 0 0017.408-17.42 17.412 17.412 0 00-17.404-17.42zm0 29.572a12.14 12.14 0 01-12.132-12.144A12.14 12.14 0 0147.424 74.44 12.14 12.14 0 0159.56 86.588a12.16 12.16 0 01-12.136 12.144zM84.6 32a17.412 17.412 0 00-17.404 17.42 17.412 17.412 0 0017.4 17.42 17.412 17.412 0 0017.408-17.42A17.412 17.412 0 0084.596 32zm0 29.572a12.14 12.14 0 01-12.136-12.144A12.14 12.14 0 0184.6 37.28a12.14 12.14 0 0112.132 12.148A12.16 12.16 0 0184.6 61.572zM47.424 32a17.432 17.432 0 00-6.784 33.48 17.404 17.404 0 0021.152-6.224 17.44 17.44 0 00-1.9-21.988h4.932V32h-17.4zM59.56 49.42a12.14 12.14 0 01-12.136 12.144A12.14 12.14 0 0135.292 49.42a12.14 12.14 0 0112.132-12.144 12.16 12.16 0 0112.14 12.144h-.004z"/></svg>