<svg width="64" height="64" viewBox="0 0 128 128" xmlns="http://www.w3.org/2000/svg"><path d="M64 0c35.348 0 64 28.652 64 64s-28.652 64-64 64S0 99.348 0 64 28.652 0 64 0zM30.684 48C21.692 48 16 54.78 16 63.38c0 8.596 5.692 15.36 14.684 15.36 8.992 0 14.696-6.716 14.696-15.36 0-8.648-5.692-15.38-14.7-15.38zm66.748.008c-9.796 0-14.36 7.536-14.36 15.568 0 8.628 5.28 15.152 13.48 15.152 4.808 0 7.496-2.224 8.576-4.104v3.348h5.064V62.308h-13.64v5.04h8.408l-.108.688c-.736 3.8-3.712 5.584-7.468 5.584-5.692 0-8.864-4.184-8.864-10.212 0-5.652 2.796-10.292 8.744-10.292 3.888 0 7.032 1.984 7.368 5.316h5.56l-.104-.76c-1.04-6.216-6.02-9.664-12.656-9.664zm-41.324.704H49.2v29.292h4.98V57.368l7.536 20.636h4.896l7.528-20.636v20.636h5.104V48.712h-6.9l-8.12 22.392-8.12-22.392zm-25.424 4.52c5.732 0 9.172 4.356 9.172 10.148 0 5.788-3.432 10.152-9.172 10.152-5.732 0-9.16-4.312-9.16-10.132 0-5.824 3.428-10.164 9.16-10.164z"/></svg>