<svg width="64" height="64" viewBox="0 0 128 128" xmlns="http://www.w3.org/2000/svg"><path d="M64 128C28.652 128 0 99.348 0 64S28.652 0 64 0s64 28.652 64 64-28.652 64-64 64zM40.26 27.552H27.5v12.784a43.72 43.72 0 0 1 12.76-12.784zm60.016 12.44v-12.44H87.74a43.72 43.72 0 0 1 12.536 12.44zm-12.352 60.336h12.352v-12.32a43.732 43.732 0 0 1-12.352 12.32zM27.5 87.664v12.664h12.576A43.72 43.72 0 0 1 27.5 87.664zM104 64c0-22.056-17.944-40-40-40S24 41.944 24 64s17.944 40 40 40 40-17.944 40-40zM64 93.168c-16.08 0-29.168-13.084-29.168-29.168 0-16.08 13.084-29.168 29.168-29.168 16.08 0 29.168 13.084 29.168 29.168 0 16.08-13.084 29.168-29.168 29.168z"/></svg>