<svg width="64" height="64" viewBox="0 0 128 128" xmlns="http://www.w3.org/2000/svg"><path d="M64 128C28.652 128 0 99.348 0 64S28.652 0 64 0s64 28.652 64 64-28.652 64-64 64zm-.228-22.756c22.96 0 40.352-15.384 43.96-35.512H88.144c-2.928 10.688-12.016 18.512-24.14 18.512-12.036 0-21.24-7.88-24.292-18.512H20c3.476 20.2 20.72 35.512 43.772 35.512zm.112-65.028a10.108 10.108 0 1 0 0-20.216 10.108 10.108 0 0 0 0 20.216zM38.62 69.736h50.52c-.024-14.376-10.532-26.308-25.38-26.308-14.844 0-25.14 11.732-25.14 26.1v.204z"/></svg>