<svg width="64" height="64" viewBox="0 0 128 128" xmlns="http://www.w3.org/2000/svg"><path d="M64 128C28.652 128 0 99.348 0 64S28.652 0 64 0s64 28.652 64 64-28.652 64-64 64zm1.384-28.028c.864-.084 2.496-.16 4.104-.416 8.472-1.36 15.672-5.176 21.34-11.608 7.668-8.704 10.552-18.888 8.56-30.32-1.576-9.032-6.084-16.428-13.336-22.044-8.12-6.292-17.368-8.64-27.52-7.152a34.332 34.332 0 0 0-19.448 9.616c-8.38 8.208-12.016 18.22-10.84 29.908a34.292 34.292 0 0 0 5.108 14.872.88.88 0 0 1 .108.8 19.852 19.852 0 0 1-4.04 7.172c-2.84 3.22-1.2 8.188 2.988 9.04 1.544.316 3.096.1 4.632-.1a28.732 28.732 0 0 0 10.2-3.448c.32-.18.56-.168.88-.012 5.2 2.58 10.708 3.76 17.264 3.692zm-25.72-9.552c.416-.9.8-1.696 1.16-2.504a33.218 33.218 0 0 0 1.916-5.804 4.4 4.4 0 0 0-.68-3.596c-1.92-2.872-3.272-5.992-3.856-9.396-1.784-10.332 1.324-18.944 9.376-25.668 4.152-3.468 9.032-5.324 14.44-5.7 8.008-.552 14.92 2.016 20.608 7.648 4.72 4.676 7.32 10.416 7.62 17.064.468 10.38-3.852 18.396-12.532 23.968-5.02 3.22-10.632 4.352-16.58 3.716A25.988 25.988 0 0 1 50.88 86.8c-1.484-.852-2.872-.8-4.28.192a24.312 24.312 0 0 1-6.376 3.268c-.148.048-.3.088-.56.16zm24.364-41.648c-.116.208-.18.308-.236.416-1.52 3.072-3.04 6.14-4.548 9.22-.152.308-.32.504-.688.556-2.308.316-4.608.652-6.912.98l-3.664.528-.12.192c.16.104.356.18.492.316 2.392 2.332 4.776 4.668 7.16 7.008.224.22.448.404.372.808-.496 2.724-.964 5.456-1.44 8.184l-.416 2.528c.236-.112.36-.164.484-.232 2.988-1.568 5.976-3.132 8.952-4.72.416-.224.724-.2 1.128.012 2.96 1.588 5.928 3.148 8.896 4.712.128.068.268.112.452.184-.012-.16-.012-.252-.024-.336-.572-3.38-1.128-6.76-1.728-10.132-.088-.492.04-.788.376-1.112a930.264 930.264 0 0 0 5.708-5.528c.604-.588 1.18-1.212 1.8-1.848-.144-.032-.26-.064-.376-.08-3.36-.488-6.712-.98-10.072-1.448-.448-.06-.72-.212-.92-.644-.772-1.66-1.592-3.292-2.4-4.936-.74-1.508-1.48-3.02-2.276-4.628z"/></svg>