<svg width="64" height="64" viewBox="0 0 128 128" xmlns="http://www.w3.org/2000/svg"><path d="M64 128C28.652 128 0 99.348 0 64S28.652 0 64 0s64 28.652 64 64-28.652 64-64 64zm28.328-32.008a42.412 42.412 0 0 0 3.976-62.16c-17.444-18.528-47.52-18.42-64.804.192A42.436 42.436 0 0 0 35.672 96c.148-.132.312-.26.452-.404a28.6 28.6 0 0 1 7.344-5.332c7.344-3.76 15.2-5.14 23.408-4.632 9.652.596 18.376 3.452 25.452 10.36zM48.08 63.18c0-8.6 7.12-15.6 15.904-15.62 8.796-.02 16.012 7.032 16 15.64-.008 8.64-7.172 15.612-16.02 15.596-8.8-.016-15.88-6.972-15.88-15.616z"/></svg>