<svg width="64" height="64" viewBox="0 0 128 128" xmlns="http://www.w3.org/2000/svg"><path d="M63.748 40.888l8.04-12.544a8.12 8.12 0 0 0 3.32-15.88 8.12 8.12 0 0 0-8.16 12.8l-9.976 15.564a31.84 31.84 0 0 0-28.568 34.828 31.86 31.86 0 0 0 34.824 28.568A31.86 31.86 0 0 0 91.8 69.4a31.868 31.868 0 0 0-28.052-28.512zM64 128C28.652 128 0 99.348 0 64S28.652 0 64 0s64 28.652 64 64-28.652 64-64 64zm-3.912-38.624a16.88 16.88 0 0 1-16.896-16.892 16.88 16.88 0 0 1 16.896-16.896 16.88 16.88 0 0 1 15.8 10.928 9.768 9.768 0 0 0-13.696-1.732A9.764 9.764 0 0 0 60.46 78.48a9.764 9.764 0 0 0 15.396.028 16.856 16.856 0 0 1-15.768 10.868z"/></svg>