<svg width="64" height="64" viewBox="0 0 128 128" xmlns="http://www.w3.org/2000/svg"><path d="M64 128C28.652 128 0 99.348 0 64S28.652 0 64 0s64 28.652 64 64-28.652 64-64 64zm3.432-26c5.152 0 6.612-4.776 6.612-8.424s-.26-5.3-.26-6.948c0-2.6 1.312-9.092 3.692-11.812 4.636-5.3 7.556-10.048 7.556-16.936 4.032-2.084 11.16-3.996 13.904-7.12S104 43.2 104 36.856c0-1.62-.344-3.908-1.032-6.86-1.58 4.936-4.012 8.32-7.296 10.16-4.804 2.696-10.22 4.692-14.848 4.692H47.176c-4.628 0-10.04-2-14.848-4.692-3.28-1.84-5.716-5.224-7.296-10.16C24.344 32.952 24 35.24 24 36.86c0 6.34 2.32 10.772 5.064 13.896s9.872 5.04 13.904 7.12c0 6.892 2.92 11.64 7.556 16.94 2.38 2.72 3.692 9.212 3.692 11.812 0 1.648-.26 3.3-.26 6.948S55.416 102 60.568 102z"/></svg>