<svg width="64" height="64" viewBox="0 0 128 128" xmlns="http://www.w3.org/2000/svg"><path d="M64 0c35.348 0 64 28.652 64 64s-28.652 64-64 64S0 99.348 0 64 28.652 0 64 0zm2.652 30.2a34.32 34.32 0 00-6.624.228 28.344 28.344 0 00-8.356 2.096c-3.1 1.52-5.1 4.052-5.1 7.44 0 4.4 3.568 7.976 7.976 7.976.736 0 3.284-.808 3.892-1.016A18.424 18.424 0 0182.896 65.5a18.432 18.432 0 01-33.256 9.748l-.532-.76-.404-.572c-3.216-4.832-2.428-11.96-2.432-12.052a7.988 7.988 0 00-15.688-1.804c-.18.668-.272 2.624-.244 2.884a34.188 34.188 0 0038.188 35.344 34.196 34.196 0 00-1.88-68.084zm-31.96 10.56a5.7 5.7 0 10.516.272zm5.12-10.364a4.396 4.396 0 10.428.224zm-14.5-.152a3.104 3.104 0 10.376.192z"/></svg>