<svg width="64" height="64" viewBox="0 0 128 128" xmlns="http://www.w3.org/2000/svg"><path d="M64 128C28.652 128 0 99.348 0 64S28.652 0 64 0s64 28.652 64 64-28.652 64-64 64zM36.036 76.792h-.012v25.864c0 .28-.08.612.04.84.12.228.46.528.668.504 1.008-.116 2.02-.28 3.004-.516a14.348 14.348 0 0 0 6.664-3.6c3.16-3.024 4.808-6.668 4.78-11.096-.08-11.36-.048-22.712-.04-34.068.004-1.1.12-2.208.248-3.3.348-2.968 1.712-5.492 3.704-7.692 2.304-2.544 5.184-4.076 8.6-4.716a15.084 15.084 0 0 1 8.324.748c2.304.88 4.272 2.26 5.92 4.088.536.592 1.068 1.24 1.74 1.652 1.428.872 3.088 1.2 4.728 1.252 3.38.108 6.768.04 10.156.036.908 0 1.168-.376.856-1.24-.272-.752-.584-1.488-.88-2.228a31.008 31.008 0 0 0-6.904-10.484 29.208 29.208 0 0 0-7.344-5.228 28.84 28.84 0 0 0-7.88-2.748c-1.948-.364-3.916-.772-5.88-.84-3.416-.124-6.764.44-10.028 1.492a30.016 30.016 0 0 0-10.772 6.168A28.316 28.316 0 0 0 38.32 42c-1.372 3.252-2.28 6.616-2.284 10.172v24.62zM54.06 62.784c-.032.316-.056.44-.056.568 0 5.78.008 11.56-.012 17.34 0 .7.384.96.96 1.112 1.032.28 2.052.6 3.1.816 1.864.38 3.736.916 5.62.988 2.84.108 5.72.068 8.536-.28 2.144-.272 4.288-.936 6.3-1.744 4.48-1.8 8.056-4.824 11.056-8.54a36.18 36.18 0 0 0 6.28-11.56c.292-.88.24-.936-.744-.94-2.992-.008-5.984-.032-8.976.008a27.92 27.92 0 0 0-3.976.304c-1.28.2-2.468.74-3.272 1.808-2.712 3.588-6.384 5.588-10.824 6.164-2.8.364-5.524-.192-8.096-1.372-2.292-1.056-4.172-2.636-5.896-4.672z"/></svg>