<svg width="64" height="64" viewBox="0 0 128 128" xmlns="http://www.w3.org/2000/svg"><path d="M64 128C28.652 128 0 99.348 0 64S28.652 0 64 0s64 28.652 64 64-28.652 64-64 64zm-.26-112C37.368 16.004 16 37.388 16 63.76c.004 26.368 21.388 47.744 47.76 47.74 26.368-.008 47.744-21.388 47.74-47.76A47.748 47.748 0 0 0 63.74 16zM44.352 36.92a.492.492 0 0 1 .5-.48h19.892a27.92 27.92 0 0 1 12.108 2.512c.72.352 1.428.744 2.112 1.168l-12.948 7.412H59.26a.492.492 0 0 0-.48.504v3.728l-14.428 8.344V36.92zm-5.356 41.912l-8.648-8.736 28.48-16.432v10.648a.492.492 0 0 0 .5.48h4.068l-24.372 14.04h-.028zm42.648-8.12c-4.176 3.488-9.908 5.232-17.196 5.232H59.26a.492.492 0 0 0-.492.492v10.752l-7.24 4.168-6.76 3.908-.428.24v-17.82l22.412-12.896a8.224 8.224 0 0 0 5.188-2.052 6.96 6.96 0 0 0 1.272-1.728l14.312-8.284c.24 1.312.36 2.64.356 3.976.016 5.852-2.064 10.52-6.24 14.012zm-7.68-12.076a12.53 12.53 0 0 0 .148-1.856 9.668 9.668 0 0 0-2.252-6.696A7.292 7.292 0 0 0 68.6 48l19.892-11.484 8.728 8.732-23.256 13.388z"/></svg>