<svg width="64" height="64" viewBox="0 0 128 128" xmlns="http://www.w3.org/2000/svg"><path d="M64 128C28.652 128 0 99.348 0 64S28.652 0 64 0s64 28.652 64 64-28.652 64-64 64zM61.696 24.692c-2.44.94-2.848 4.472-.856 6.1 3.208 2.828 6.164 5.936 9.256 8.896 1.176 1.168 3.052 1.8 4.588.96 2-.892 2.592-3.824 1.12-5.424a103.136 103.136 0 0 0-8.1-7.684c-1.592-1.592-3.432-3.968-6.008-2.848zm28.136 8.204c-3.836 3.24-6.932 7.236-10.44 10.804-1.56 1.572-1 4.68 1.068 5.536 1.432.66 3.22.332 4.232-.892 2.78-2.9 5.56-5.8 8.42-8.624 1.304-1.232 2.492-3.064 1.752-4.92-.484-2.08-3.28-2.84-5.032-1.904zm-55.872.584c-1.624 1.14-2.048 3.836-.624 5.304 2.52 2.58 5.064 5.14 7.84 7.44 1.584 1.28 2.84 3.624 5.208 3.26 2.828-.012 4.24-3.984 2.216-5.856-3.064-3.012-6.188-5.968-9.22-9.028-1.348-1.492-3.6-2.22-5.42-1.12zm2.352 18.08c-4.26 2.888-7.208 7.384-10.92 10.94-2.06 1.908-.64 5.84 2.188 5.948 2.416.292 3.768-2 5.22-3.496 2.456-2.772 5.388-5.136 7.64-8.072 1.904-2.652-1.076-6.5-4.128-5.32zm61.904 8.508c-2.688 2.332-4.904 5.2-7.528 7.636-1.584 1.712-4.096 3.372-3.652 6.048.34 2.592 3.88 3.848 5.772 2.06a92.216 92.216 0 0 0 7.392-7.792c1.3-1.6 3.66-2.856 3.352-5.232-.068-2.532-3.24-4.092-5.336-2.72zM44.276 78.88c-3.02 2.636-5.568 5.772-8.5 8.516-1.512 1.468-3.496 3.352-2.688 5.692.472 2.42 4.032 3.232 5.7 1.544 2.568-2.5 5.108-5.032 7.392-7.792 1.292-1.596 3.656-2.864 3.28-5.256-.052-2.476-3.144-3.924-5.184-2.704zm36.248-.092c-2.344.88-2.804 4.404-.844 5.928 3.24 3.028 6.336 6.224 9.56 9.264 1.596 1.588 4.88 1.532 5.84-.712.68-1.248.592-2.992-.432-4.028-3.32-3.584-7.08-6.7-10.612-10.056-.952-.816-2.384-.784-3.512-.4zm-27.2 8.58c-2.016.88-2.624 3.848-1.128 5.44a92.76 92.76 0 0 0 7.8 7.4c1.588 1.288 2.82 3.64 5.188 3.36 2.932-.032 4.34-4.04 2.26-6.02a329.28 329.28 0 0 1-9.256-8.948c-1.208-1.28-3.184-2.14-4.864-1.232zm-5.4-59.628a3.472 3.472 0 1 0-6.944 0 3.47 3.47 0 0 0 6.94 0zm10.112 9.232a3.47 3.47 0 1 0-6.94 0 3.47 3.47 0 0 0 6.94 0zm-27.096 8.48a3.47 3.47 0 1 0-6.94 0 3.47 3.47 0 0 0 6.94 0zm55.088-17.988a3.468 3.468 0 1 0-6.932 0 3.468 3.468 0 0 0 6.932 0zM104 44.584a3.47 3.47 0 1 0-6.94 0 3.47 3.47 0 0 0 6.94 0zm-9.484 9.968a3.47 3.47 0 1 0-6.94 0 3.47 3.47 0 0 0 6.94 0zm9.468 28.024a3.47 3.47 0 1 0-6.94 0 3.47 3.47 0 0 0 6.94 0zM76.92 91.04a3.47 3.47 0 1 0-6.94 0 3.47 3.47 0 0 0 6.94 0zm9.984 9.488a3.47 3.47 0 1 0-6.94 0 3.47 3.47 0 0 0 6.94 0zm-38 0a3.472 3.472 0 1 0-6.944 0 3.47 3.47 0 0 0 6.94 0zm-8.468-27.176a3.47 3.47 0 1 0-6.94 0 3.47 3.47 0 0 0 6.94 0zM30.94 83.436a3.47 3.47 0 1 0-6.94 0 3.47 3.47 0 0 0 6.94 0z"/></svg>