<svg width="64" height="64" viewBox="0 0 128 128" xmlns="http://www.w3.org/2000/svg"><path d="M64 128C28.652 128 0 99.348 0 64S28.652 0 64 0s64 28.652 64 64-28.652 64-64 64zm0-112c-26.508 0-48 21.492-48 48s21.492 48 48 48 48-21.492 48-48a48 48 0 0 0-48-48zm24 23.252a9 9 0 0 1 9 9v13.496a9 9 0 0 1-9 9H76.856l-.72 3.376a1.952 1.952 0 0 1-1.816 1.5h-2.252a1.176 1.176 0 0 1-1.18-1.5l.72-3.372h-5.252l-.72 3.372a1.952 1.952 0 0 1-1.816 1.5h-2.252a1.176 1.176 0 0 1-1.18-1.5l.72-3.372H55.48L50.536 94h-12l8.768-41.252h12l-1.912 9H80.5c2.484 0 4.5-2.012 4.5-4.496v-4.504a4.5 4.5 0 0 0-4.5-4.496H31l7.5-9h29.304l.716-3.376a1.952 1.952 0 0 1 1.816-1.5h2.252a1.176 1.176 0 0 1 1.18 1.5l-.716 3.376h5.252l.716-3.376a1.952 1.952 0 0 1 1.816-1.5h2.252a1.176 1.176 0 0 1 1.18 1.5l-.716 3.376H88z"/></svg>