<svg width="64" height="64" viewBox="0 0 128 128" xmlns="http://www.w3.org/2000/svg"><path d="M64 128C28.652 128 0 99.348 0 64S28.652 0 64 0s64 28.652 64 64-28.652 64-64 64zm-3.68-47.376l-11.184 4.64.612-3.356 8.388-3.48a2.06 2.06 0 0 0 1.108-2.684 2.04 2.04 0 0 0-2.668-1.12l-5.948 2.472 1.132-6.224h21.1C91.192 70.872 102 59.44 102 44.66c0-11.652-8.292-17.192-24.88-16.62H50.028l-9.592 53.284-13.172 5.468a2.06 2.06 0 0 0-1.108 2.684 2.04 2.04 0 0 0 2.668 1.12l10.748-4.464-.6 3.356-7.96 3.3a2.06 2.06 0 0 0-1.108 2.684 2.04 2.04 0 0 0 2.672 1.12l5.528-2.296L37.076 100h9.376l1.808-9.92 13.624-5.656a2.06 2.06 0 0 0 1.108-2.684 2.04 2.04 0 0 0-2.668-1.12zm-2.28-44.188h20.616c10.224 0 13.292 4.28 13.292 10.624 0 6.336-4.88 15.076-17.72 15.076H53.352z"/></svg>