<svg width="64" height="64" viewBox="0 0 128 128" xmlns="http://www.w3.org/2000/svg"><path d="M64 128C28.652 128 0 99.348 0 64S28.652 0 64 0s64 28.652 64 64-28.652 64-64 64zm43.52-74.6l2 3c4-10.08 3.08-17.96-.52-21.4-6.48-6.24-16-2.76-26.32-7.08-8.6-6.32-13.8-8-20.96-8a24.88 24.88 0 0 0-13 6.56 20 20 0 0 0-15.6 6.12c-4.24 5-5.2 18.72-5.84 22.2-.64 3.48-8 17.52-7.24 25.2.76 7.68 6.4 16 22.36 17.96a30.32 30.32 0 0 0 24 10.52c8.36-.88 20-13.68 26.76-18.76 6.76-5.08 30.84-9.48 16.48-33.12a35.56 35.56 0 0 0-2-3l-.12-.2zM71 88.6a26.64 26.64 0 0 1-29.8-16.24c-.88-3.44-2.6-20.96 12-29.64 10.88-6.16 26.2-7 32.64 7.36C92.28 64.44 89.92 84.56 71 88.6z"/></svg>