<svg width="64" height="64" viewBox="0 0 128 128" xmlns="http://www.w3.org/2000/svg"><path d="M64 128C28.652 128 0 99.348 0 64S28.652 0 64 0s64 28.652 64 64-28.652 64-64 64zM46.748 40.248h.128c11.5.252 23-.248 34.5.252 2.872 0 6.248 1.376 6.872 4.376 1 7-4.872 13.376-11.248 15-7 1.124-14 .748-20.876.748a3695.62 3695.62 0 0 1-5 12.252c8.376 0 16.752.372 25-.876A34.848 34.848 0 0 0 101.5 49.248c2-5.248 2.876-11.872-1.124-16.496C97 28.5 91 28.5 86 28.12L51.748 28l-5 12.252zM32 43.624v.124L26.5 57.5h40.752l5.372-13.876H32zm6.5 17h.124L24 98.124h13.876l14.748-37.5H38.5z"/></svg>