<svg width="64" height="64" viewBox="0 0 128 128" xmlns="http://www.w3.org/2000/svg"><path d="M64 128C28.652 128 0 99.348 0 64S28.652 0 64 0s64 28.652 64 64-28.652 64-64 64zm29.808-92.284A39.46 39.46 0 0 0 65.72 24C43.784 24 26 41.908 26 64a40.014 40.014 0 0 0 10.576 27.18V62.696h.032c.676-15.6 13.452-28.044 29.112-28.044 8.048 0 15.332 3.284 20.608 8.596zm0 56.568l-7.48-7.532a28.952 28.952 0 0 1-19.96 8.588V104a39.46 39.46 0 0 0 27.44-11.712zM46.72 99.136c3.02 1.66 6.28 2.94 9.716 3.764V80.856a19.455 19.455 0 0 0 9.928 2.708c10.848 0 19.644-8.856 19.644-19.78C86.008 52.856 77.212 44 66.368 44c-10.492 0-19.06 8.276-19.62 18.696h-.028zm19.644-25.352a9.964 9.964 0 0 1-9.928-10c0-5.524 4.444-10 9.928-10s9.932 4.476 9.932 10c0 5.52-4.448 10-9.932 10zm27.444-38.068l-7.48 7.532a28.952 28.952 0 0 0-20.608-8.596c-15.66 0-28.44 12.44-29.112 28.04h-.032V91.18A40.012 40.012 0 0 1 26 64c0-22.092 17.784-40 39.72-40a39.46 39.46 0 0 1 28.088 11.716zm0 56.568A39.46 39.46 0 0 1 66.368 104V93.344a28.952 28.952 0 0 0 19.96-8.588z"/></svg>