<svg width="64" height="64" viewBox="0 0 128 128" xmlns="http://www.w3.org/2000/svg"><path d="M64 128C28.652 128 0 99.348 0 64S28.652 0 64 0s64 28.652 64 64-28.652 64-64 64zM46.376 64.42a10.202 10.202 0 0 0 1.564 2.82l.124.16-.18-.216c.232.332.48.648.748.948L49 68.5c.144.14.26.28.376.38l7.984 8.044a5.502 5.502 0 0 0 5.348 1.44c1.908-.512 3.4-2.016 3.912-3.94s-.036-3.976-1.432-5.384L49.6 53.332a1.144 1.144 0 0 0 .028-.028l.24-.204L65.64 37.324l.096.104.036.04 29.48 29.76a5.692 5.692 0 0 0 7.116-.78 5.623 5.623 0 0 0 .6-7.2L69.6 25.632a5.504 5.504 0 0 0-7.812-.012L51.6 35.816l-.364.32c-.24.22-.488.424-.748.616l-12.58 12.584a5.596 5.596 0 0 0 0 7.884l9.972 10.072a10.028 10.028 0 0 1-1.508-2.872zM78.96 74.712a1.408 1.408 0 0 0-.024.024l-.232.188-15.74 15.74-.1-.12-29.536-29.828a5.532 5.532 0 0 0-7.488-.04 5.632 5.632 0 0 0-.74 7.508l33.908 34.188a5.502 5.502 0 0 0 7.816 0L77.32 91.876c.24-.212.496-.416.76-.6L90.672 78.68c2.16-2.176 2.16-5.708 0-7.888L80.228 60.284a19.828 19.828 0 0 1 .256.368 7.68 7.68 0 0 0-.576-.732l-.364-.368c-.148-.14-.264-.28-.376-.38l-7.988-8.04a5.512 5.512 0 0 0-9.444 3.92c0 1.48.58 2.9 1.62 3.944z"/></svg>