<svg width="64" height="64" viewBox="0 0 128 128" xmlns="http://www.w3.org/2000/svg"><path d="M64 128C28.652 128 0 99.348 0 64S28.652 0 64 0s64 28.652 64 64-28.652 64-64 64zM33.64 83.608c1.984 2.028 4.984 2.952 9.028 2.94 8.64 0 15.816-7.464 15.816-19.988V65c0-12.04-6.2-21.048-15.656-21.048-2.256 0-6.28.084-9.432 3.108h-.356V44.5H24V100h9.248V83.608zm16.256-16.304c0 8.076-3.46 11.732-8.152 11.744-5.96 0-8.996-5.096-8.996-11.756v-2.72c0-6.988 3.084-13.084 8.836-13.084 5.324 0 8.312 5.24 8.312 13.084zM62.96 28v58.304h9.26V28zm35.716 25.636h1.16l-.052-9.332c-.4 0-.06-.012-.476-.012-4.168-.06-9.24.964-11.308 3.148h-.352v-2.548h-8.532V86.34h9.212V62.964c0-5.208 5.156-9.328 10.348-9.328zM94.788 76.38v9.924H104V76.38z"/></svg>