<svg width="64" height="64" viewBox="0 0 128 128" xmlns="http://www.w3.org/2000/svg"><path d="M64 128C28.652 128 0 99.348 0 64S28.652 0 64 0s64 28.652 64 64-28.652 64-64 64zM20 96h88L64 20zm27.488-38.704L64 28.776l16.512 28.52C75.372 53.864 69.86 52.132 64 52.132s-11.372 1.732-16.512 5.164zm-7.804 13.48c7.24 7.96 15.372 12 24.316 12s17.08-4.04 24.32-12l11.984 20.708H27.696zM64 78.26c-7.752 0-14.844-3.56-21.352-10.8 6.508-7.252 13.6-10.808 21.352-10.808s14.844 3.56 21.352 10.804C78.844 74.704 71.752 78.264 64 78.264zm0-1.932c4.64 0 8.404-3.9 8.404-8.712 0-4.808-3.76-8.708-8.404-8.708s-8.404 3.9-8.404 8.708c0 4.812 3.76 8.712 8.404 8.712zm0-4.52c-2.236 0-4.048-1.876-4.048-4.192 0-2.316 1.812-4.192 4.048-4.192s4.048 1.88 4.048 4.192c0 2.32-1.812 4.196-4.048 4.196z"/></svg>