<svg width="64" height="64" viewBox="0 0 128 128" xmlns="http://www.w3.org/2000/svg"><path d="M64 128C28.652 128 0 99.348 0 64S28.652 0 64 0s64 28.652 64 64-28.652 64-64 64zm35.032-97.072A17.132 17.132 0 0 0 86.968 26c-4.58 0-8.844 1.76-12.064 4.928L35.48 69.752a2 2 0 0 0-.58 1.528v19.984L24 102h6.012l8.072-7.948H58.26a2.04 2.04 0 0 0 1.512-.648l39.224-38.632.04-.04A16.648 16.648 0 0 0 104 42.896a16.684 16.684 0 0 0-4.968-11.96zM76.104 35.44l1.668-1.64a13.012 13.012 0 0 1 9.196-3.744c3.452 0 6.712 1.336 9.196 3.744.04.04.08.112.156.152a12.578 12.578 0 0 1 3.644 8.904c0 3.4-1.36 6.608-3.8 9.056l-1.708 1.68H79.208l10.012-9.86a2.056 2.056 0 0 0 .076-2.864c-.04-.04-.04-.08-.08-.116a2.156 2.156 0 0 0-2.984 0l-10.088 9.936V35.436zM42.2 90.004l8.224-8.104h15.248l-8.224 8.104zm23.936-23.616l9.74-9.592h15.248l-9.74 9.592zm11.912 3.288l-9.08 8.94H53.72l9.08-8.94zm-15.012-21.36l9.776-9.632v15.208l-9.776 9.668zM50.62 60.54l9.08-8.94v15.208l-9.08 8.94zM38.98 72.004l8.34-8.176v15.208l-8.34 8.176z"/></svg>