<svg width="64" height="64" viewBox="0 0 128 128" xmlns="http://www.w3.org/2000/svg"><path d="M64 128C28.652 128 0 99.348 0 64S28.652 0 64 0s64 28.652 64 64-28.652 64-64 64zm38.544-37.28v-4c0-.792-.532-1.32-1.34-1.32h-2.66v-4.016c0-.796-.532-1.336-1.324-1.336h-2.664v-29.38h2.648c.796 0 1.34-.528 1.34-1.336v-4h2.66a1.288 1.288 0 0 0 1.324-1.072c.136-.664-.132-1.192-.66-1.472L64.596 24.1a1.84 1.84 0 0 0-1.192 0L24.796 42.788a1.332 1.332 0 0 0-.664 1.456c0 .68.532 1.088 1.192 1.088h4v4c0 .792.532 1.32 1.324 1.32h2.664v29.396h-2.648c-.8 0-1.34.528-1.34 1.32v4.016h-2.66c-.8 0-1.328.528-1.328 1.324v4.012c-.792 0-1.336.532-1.336 1.34s.528 1.336 1.324 1.336h77.22c.792 0 1.336-.528 1.336-1.32 0-.8-.528-1.356-1.32-1.356h-.016zM31.972 47.992v-2.66h63.896v2.66H31.972zm54.572 2.68v29.376h-5.312v-29.38h5.312zm-13.312 0v29.376h-5.324v-29.38h5.32zm-13.312 0v29.376h-5.312v-29.38h5.312zm-13.312 0v29.376H41.3v-29.38h5.308zm49.26 34.712h-63.88v-2.676H95.88v2.676h-.012z"/></svg>