<svg width="64" height="64" viewBox="0 0 128 128" xmlns="http://www.w3.org/2000/svg"><path d="M64 128C28.652 128 0 99.348 0 64S28.652 0 64 0s64 28.652 64 64-28.652 64-64 64zm44-82.948l-.176-2.828-.872 2.372-4.904 4.12-5.616.84-1.68-1.56 4.92-6.532L104.72 40l-5.456.112-7.932 5.528-7.436-.512L73.452 40l-6.168 1.2-19.24 15.38-9.28 2.868-3.812 3.72-6.824.096-3.38 6.04L20 70.616l4.488.588 4.172-5.412 6.448 1.292-.12 5.792-3.22 8.336-1.84 7.712L27.948 92l5.024-1.064-.572-3.152 4.272-8.472 8.224-3.188 3.184-5.072 5.38-3.76 10.68 1.5 10.756-4.54-1.82 7.18-4.784.416-1.364 5.888 4.092-2.62 6.784-2.828 5.3-8 .336-3.776 2.848 2.828 8.284 4.996 4.708-2.148-.28-10.56-1.36-4.08 6.148-1.5z"/></svg>