<svg width="64" height="64" viewBox="0 0 128 128" xmlns="http://www.w3.org/2000/svg"><path d="M64 128C28.652 128 0 99.348 0 64S28.652 0 64 0s64 28.652 64 64-28.652 64-64 64zM48.132 72.72h1.088c5.42.004 10.84.02 16.26.008 4.168-.008 8.304-.36 12.336-1.472 5.084-1.408 9.64-3.72 12.952-7.852 4.5-5.612 5.984-12.04 4.884-19.048-.708-4.508-3.256-7.76-7.488-9.644a22.952 22.952 0 0 0-4.676-1.408c-4.608-.948-9.308-1.188-14-1.248-8.028-.104-16.064-.028-24.096-.052-.736 0-.86.388-.972.952-.936 4.744-1.912 9.48-2.824 14.232-.148.764-.452.992-1.232.968-1.636-.056-3.276 0-4.912-.012-.56 0-.828.148-.932.748-.372 2.156-.816 4.3-1.228 6.448-.032.168-.024.344-.04.64h6.708L32 95.736c.224.08.312.14.4.14 3.524.04 7.052.068 10.58.12.56.008.672-.292.756-.728.94-4.868 1.888-9.736 2.84-14.604l1.556-7.944zm2.22-10.952l1.16-5.824h16.412l1.504-7.752h-16.36c.34-1.76.656-3.36.976-4.992.28-.024.496-.056.708-.056 5.892.016 11.78-.028 17.668.08 2.096.036 4.208.304 6.276.68 2.828.512 4.492 2.332 4.96 5.12.34 2.004.088 3.94-.912 5.732-2.248 4.032-5.764 6.252-10.392 6.804-1.212.148-2.448.2-3.672.2-5.732.02-11.464.008-17.2.008h-1.128z"/></svg>