<svg width="64" height="64" viewBox="0 0 128 128" xmlns="http://www.w3.org/2000/svg"><path d="M64 128C28.652 128 0 99.348 0 64S28.652 0 64 0s64 28.652 64 64-28.652 64-64 64zm47.98-64.184a.82.82 0 0 0-.68-.632l-9.032-9.052 3.576-13.376a.824.824 0 0 0-.58-1.008L91.84 36.14l-3.36-12.572a.812.812 0 0 0-.04-.16l-.096-.348a.82.82 0 0 0-1.004-.584l-13.128 3.528-9.748-9.772a.84.84 0 0 0-1.16 0l-9.632 9.656-12.696-3.412a.82.82 0 0 0-1.008.584l-3.496 13.08-13.42 3.608a.82.82 0 0 0-.584 1.008l3.46 12.944-9.688 9.712a.824.824 0 0 0 0 1.164l9.96 9.988-3.456 12.948a.824.824 0 0 0 .58 1.008l12.832 3.444 3.54 13.24a.82.82 0 0 0 1.004.584l13.128-3.528 9.476 9.5a.816.816 0 0 0 1.16 0l9.588-9.616 13.56 3.644a.816.816 0 0 0 1.004-.58l3.54-13.24 12.836-3.448a.824.824 0 0 0 .58-1.008l-3.576-13.38 9.224-9.248.304-.144a.824.824 0 0 0 .456-.92zm-10.476 8.48l-.684-2.564 6.068-2.828zm1.964 13.708l-8.4-4.92v-.004l5.588-5.604zm-8.84-3.28l8.04 4.716-10.02 2.692zm-7.192 20.544l-5-8.692 7.892-2.12zm-10.016-4.5l5.928 4.172-7.956-2.136zm-12.716 10.424v-9.56l7.52 2.02zm-1.64-9.412v9.412l-7.404-7.424zm-20.756 3.872l4.728-8.2 5.456 5.468zm-4.32-11.196l2.94.792-.68 7.664zm-12.36-5.02l8.04-4.772 2 7.468zm7.228-6.2l-8.008 4.752 2.696-10.08zm-13.92-16.28h9.836l-2.08 7.776zm8.32-6.3l-7.372 3.432 6.536-6.552zm-2.688-16.408l8.1 4.696-5.4 5.412zm9.352 3.44l-.052.052-8.48-4.92 10.596-2.844zm7.088-20.16l4.684 8.136-7.388 1.984zm9.368 3.664l-5.708-4.02 7.664 2.06zM63.064 18.8v9.612l-7.56-2.032zm1.64 9.76V18.8l7.68 7.696zm21.584-4.096l-4.984 8.652-5.752-5.768zM87.5 34.976l.58-6.556 1.932 7.228zm15.4 5.84l-8.524 4.808-2.044-7.648zm-7.7 6.228l8.556-4.832-2.828 10.572zm13.768 16.124h-9.116l1.928-7.204zm-9.464 1.644h7.964l-7.08 3.3zm-1.24 4.288l.344-1.28.268 1zm-.552 2.072l1.596-.744.856 3.208-4.248 4.26zM92.748 83.4l-1.932 7.22-7.2 1.932zM81.28 92.572l-6.24-10.836 20.732-9.66-2.176 8.148zm-.352 2.68l3.848 6.68-6.176-4.348zm-4.364.9l1.564-.424-.892.896zm-2.068.552l1.56 1.1-2.492 2.504-6.24-1.68zm-13.508 1.928l-6.668 1.792-4.88-4.896zM42.76 91.16l1.188 1.192-1.264-.34zm-1.516-1.52l-.168 1.94-3.58-.96-1.728-6.468zM32.6 78.652l-4.568-4.58 1.672-6.252zm-4.1-15.34h-7.348l6.532-3.044zm1.856-4.292l-.652 2.448-.508-1.904zm.556-2.068l-2.148 1-1.004-3.76 5.312-5.328zM36.24 43.36l1.572-5.876 5.864-1.576zM46.976 32.6l-3.68-6.384 5.904 4.156zm4.64-.528l-2.452.66 1.4-1.4zm2.068-.556l-1.944-1.368 2.424-2.424 6.824 1.832zm13.64-1.96l6.4-1.72 4.68 4.696zm18.308 7.896l-1.74-1.744 1.852.496zm1.512 1.52l.208-2.336 3.148.848 1.772 6.628zm8.296 10.64l5 5.012-1.832 6.84zM72.344 77.056l6.348-11.312 3.992 6.756a.82.82 0 0 0 1.52-.348l.652-7.336h12.86l-1.388 5.192-22.112 10.3zm-3.136 5.588l2.2-3.92 1.316 2.28zm-13.944-1.48l2.08-3.612 12.92-.144-3.732 6.652a.824.824 0 0 0 1.06 1.152l5.956-2.776 6.396 11.108-5.132 1.376zm-.824 1.428l18.304 12.884-8.588 2.308-15.992-4.296zm.996-5.02l-1.52 2.64-3.668-2.58zm-10.36-12.616h4.06l6.48 10.968-7.932.092a.82.82 0 0 0-.464 1.496l5.872 4.128-6.408 11.128-3.736-3.74zm-1.64 0l-2 22.552-6.52-6.532-4.28-16.02zm4.728-1.644h-2.94l.384-4.328zm5.8-15.288l2.04 3.54-6.272 11.172-4.008-6.788a.82.82 0 0 0-1.524.348l-.62 7.016H30.912L32.3 58.12zm-.824-1.428l-20.288 9.452 2.54-9.508 11.232-11.26zm20.028.648l-1.932 3.352-12.888.144 3.744-6.672a.824.824 0 0 0-1.06-1.152l-6.4 2.984-6.448-11.2 5.184-1.396zm.824-1.432l-18.56-13.06 8.724-2.344 16.2 4.352zm-.848 4.76l1.372-2.38 3.308 2.332zm10.064 14.244l-.412 4.648-2.744-4.648zm-26.272-14.92l-1.48-2.568 3.96-1.84zm14.252 25.868c-.028-.004-.052-.012-.08-.012l-13.592.152L50.7 64.372l6.72-11.976 13.304-.148.02.044 6.98 11.816zm15.768-34.656l6.164 6.18 4.248 15.884H85zm-3.6 22.064h-4.28l-6.464-10.948 7.78-.084a.82.82 0 0 0 .46-1.496l-5.512-3.88 6.316-10.972 3.788 3.8zm2.532-28.628l-3.04-.82 3.68-6.392zM42.536 93.68l3.136.84-3.796 6.592z"/></svg>