<svg width="64" height="64" viewBox="0 0 128 128" xmlns="http://www.w3.org/2000/svg"><path d="M64 128C28.652 128 0 99.348 0 64S28.652 0 64 0s64 28.652 64 64-28.652 64-64 64zm29.248-99.824a5.02 5.02 0 0 0-7.208 0l-9.308 9.544L64.8 25.508a4.816 4.816 0 0 0-.8-.664 4.588 4.588 0 0 0-5.952.556l-.1.104h-.004l-.004.008-30.496 31.276a.792.792 0 0 1-.056.06l-.064.06c-1.76 1.8-1.76 4.724 0 6.528l9.224 9.416a4.417 4.417 0 0 0 6.328-.028 4.68 4.68 0 0 0 .028-6.48l-5.8-5.932 24.02-24.64 12.472 12.78c1.528 1.56 3.88 1.908 5.768.84a5.16 5.16 0 0 0 1.368-1l12.52-12.832a5.32 5.32 0 0 0 0-7.384zm7.432 36.408l-.112-.116-.012-.008-.008-.008-9.092-9.3a4.42 4.42 0 0 0-6.328.028 4.68 4.68 0 0 0-.028 6.48l5.8 5.932-23.976 24.576L54.42 79.376a4.772 4.772 0 0 0-4.48-1.344c-.996.2-1.912.704-2.624 1.448l-12.52 12.832a5.307 5.307 0 0 0-1.336 5.048c.472 1.808 1.848 3.22 3.616 3.7s3.644-.04 4.932-1.368l9.252-9.512 11.668 11.936a4.592 4.592 0 0 0 7.016.488l30.616-31.392a.792.792 0 0 1 .06-.06l.064-.06A4.66 4.66 0 0 0 102 67.836c0-1.22-.476-2.388-1.32-3.252z"/></svg>