<svg width="64" height="64" viewBox="0 0 128 128" xmlns="http://www.w3.org/2000/svg"><path d="M64 128C28.652 128 0 99.348 0 64S28.652 0 64 0s64 28.652 64 64-28.652 64-64 64zm.196-94.736c5.264 0 9.528-2.932 9.528-6.552 0-3.62-4.264-6.552-9.528-6.552s-9.532 2.932-9.532 6.552c0 3.62 4.268 6.552 9.532 6.552zM59.264 106.4c0 .784.692 1.5 1.48 1.5h6.668c.784 0 1.388-.716 1.388-1.5V78.08h11.712c.784 0 1.344-.672 1.344-1.456V37.792c0-.788-.556-1.376-1.344-1.376H59.264v69.988zM55.68 78.076v-41.66h-8.04c-.788 0-1.496.588-1.496 1.376v38.832c0 .784.708 1.456 1.492 1.456h8.044z"/></svg>