<svg width="64" height="64" viewBox="0 0 128 128" xmlns="http://www.w3.org/2000/svg"><path d="M64 128C28.652 128 0 99.348 0 64S28.652 0 64 0s64 28.652 64 64-28.652 64-64 64zm33.124-44.532h-.468c-3.04 0-6.084 0-9.128-.008a1.864 1.864 0 0 1-.812-.16c-.832-.424-.904-1.384-.176-2.108 2.208-2.196 4.416-4.392 6.628-6.58 3.012-2.98 6.036-5.948 9.036-8.94 1.596-1.588 2.16-3.528 1.56-5.684a39.444 39.444 0 0 0-8.44-15.636c-7.748-8.8-17.528-13.58-29.272-14.28a39.804 39.804 0 0 0-14.688 1.904 41.072 41.072 0 0 0-18.728 12.376 40.408 40.408 0 0 0-7.868 13.804c-.3.896-.6 1.808-.72 2.736-.24 1.888.412 3.508 1.768 4.848l3.608 3.592c3.94 3.92 7.884 7.832 11.816 11.76a2 2 0 0 1 .556.852c.208.84-.408 1.52-1.332 1.52H30.82c-.06 1.572.016 3.06.512 4.512 1.12 3.284 4.4 5.8 7.868 5.988.348.02.696.028 1.048.028 15.84 0 31.676 0 47.516.008 1.912 0 3.692-.42 5.288-1.48 3.332-2.208 4.408-5.608 4.072-9.052zm-63.356 2.16h60.44a5.712 5.712 0 0 1-1.12 3.412c-1.112 1.5-2.6 2.34-4.488 2.444a10.376 10.376 0 0 1-.56.016l-48.112.004c-2.088 0-3.772-.78-5.02-2.444a5.86 5.86 0 0 1-1.14-3.428zM74.84 54.64l-3.376 5.668c3.316 2.648 5.08 6.048 5 10.312a11.856 11.856 0 0 1-2.872 7.588 12.508 12.508 0 0 1-15.608 2.956 12.452 12.452 0 0 1-5.528-15.68L46.8 62.16c-.24.6-.484 1.168-.684 1.748a18.296 18.296 0 0 0-.92 7.916 18.458 18.458 0 0 0 3.408 9.012c.364.512.44 1.06.132 1.616-.452.804-1.496.92-2.188.24-1.204-1.176-2.392-2.364-3.588-3.552L28.72 64.98c-1.3-1.288-1.688-2.784-1.096-4.528 2.348-6.892 6-12.968 11.38-17.948 1.144-1.06 2.416-1.984 3.64-2.956.184-.144.268-.28.276-.52a2.664 2.664 0 0 1 3.836-2.32.708.708 0 0 0 .7.004 35.712 35.712 0 0 1 8.812-2.904 42.392 42.392 0 0 1 11.08-.624 36.476 36.476 0 0 1 13.436 3.472c.136.068.36.06.508 0a2.728 2.728 0 0 1 3.776 2.228c.02.16.16.36.3.456a36.472 36.472 0 0 1 7.876 7.536 43.6 43.6 0 0 1 6.756 12.5c.212.6.44 1.208.548 1.832.26 1.44-.2 2.672-1.24 3.704L84.952 79.18c-1.184 1.176-2.36 2.36-3.556 3.528-.816.792-2.052.44-2.328-.644a1.42 1.42 0 0 1 .272-1.208c1.424-2 2.44-4.18 3-6.572a18.332 18.332 0 0 0 .168-7.844c-.952-4.832-3.456-8.684-7.408-11.628-.072-.056-.152-.096-.268-.172zM93.5 66.8c.108-.092.184-.14.248-.2l3.696-3.676a1.38 1.38 0 0 0 .364-1.5 41.284 41.284 0 0 0-6.2-12.2c-.472-.64-.98-1.252-1.48-1.896l-.396.372c-1.4 1.356-2.8 2.716-4.204 4.068-.632.612-1.316.592-1.936-.032-.348-.352-.688-.708-1.048-1.048-4.488-4.212-9.808-6.62-15.94-7.28a.76.76 0 0 0-.696.252 2.64 2.64 0 0 1-3.808.02c-.252-.256-.488-.308-.812-.272-2.512.288-4.956.844-7.296 1.8-.912.372-1.8.8-2.72 1.216l2.584 4.468c8.48-3.824 16.548-3.376 23.792 2.508C84.62 59.064 86.752 66.588 85 75.268c.028-.028.104-.076.168-.136 1.84-1.828 3.68-3.652 5.508-5.492a.784.784 0 0 0 .176-.528 26.42 26.42 0 0 0-1.988-9.28 1.08 1.08 0 0 0-.824-.72 2.64 2.64 0 0 1-1.808-3.412c.504-1.44 2.12-2.2 3.52-1.648a2.656 2.656 0 0 1 1.472 3.628c-.12.248-.096.436.004.672a28 28 0 0 1 1.968 6.56c.104.612.2 1.224.304 1.884zm-5.064-21.24c-.032-.06-.044-.1-.072-.128a31.184 31.184 0 0 0-4.528-3.82c-.1-.068-.304-.064-.428-.016a2.68 2.68 0 0 1-3.684-2.096c-.04-.28-.16-.408-.4-.52a33.392 33.392 0 0 0-12.02-3.072c-4.52-.32-8.992 0-13.372 1.244a31.34 31.34 0 0 0-5.384 2.064.612.612 0 0 0-.284.376 2.68 2.68 0 0 1-3.356 2.096c-.356-.096-.576-.036-.816.176-.072.06-.152.108-.228.16-6.668 4.936-10.948 11.54-13.64 19.264-.252.728-.08 1.28.46 1.8 1.16 1.124 2.296 2.276 3.44 3.416l.344.32c.04-.24.08-.404.1-.576a29.128 29.128 0 0 1 2.22-8.016.656.656 0 0 0 0-.48c-.772-1.716.176-3.532 2.04-3.84.248-.04.4-.12.544-.328 5.32-7.576 12.584-11.912 21.84-12.928a.78.78 0 0 0 .496-.304 2.712 2.712 0 0 1 4.536-.008c.156.24.328.292.58.332 1.44.232 2.896.392 4.308.736a29.284 29.284 0 0 1 13.412 7.36c.092.088.192.172.3.264l3.592-3.48zM73.78 70.28a9.76 9.76 0 0 0-9.816-9.704c-5.4.028-9.776 4.4-9.752 9.736a9.796 9.796 0 0 0 9.824 9.712c5.384-.032 9.772-4.42 9.744-9.748zm-30.792 5.056c-.188-1.22-.416-2.328-.52-3.452a21.032 21.032 0 0 1 1.592-10.236c.98-2.32 2.332-4.4 4.048-6.244.4-.432.608-.432 1.032-.016.316.308.628.62.936.936.352.36.352.576.008.96-.224.248-.456.488-.656.752-.492.64-.972 1.292-1.476 1.968l5.628 3.308c4.232-5.268 9.472-6.688 15.812-4.308l3.356-5.628c-.072-.056-.1-.084-.136-.104a18.84 18.84 0 0 0-11.74-1.812 18.244 18.244 0 0 0-6.584 2.416c-.772.468-1.356.296-1.804-.484l-2.224-3.84-1.06-1.812c-.056.016-.068.016-.08.024a26.504 26.504 0 0 0-7.424 7.32c-.064.1-.064.28-.02.4.64 1.712-.2 3.28-2 3.7a.568.568 0 0 0-.448.38 26.412 26.412 0 0 0-2.112 9.612.784.784 0 0 0 .224.508c1.032 1.048 2.08 2.076 3.12 3.112l2.528 2.54zm20.992-32.04a1.528 1.528 0 0 0 1.516-1.492 1.536 1.536 0 0 0-1.5-1.512 1.548 1.548 0 0 0-1.52 1.496A1.536 1.536 0 0 0 63.98 43.3zm-18.4-5.656a1.488 1.488 0 0 0-1.492 1.468 1.512 1.512 0 0 0 3.024 0 1.492 1.492 0 0 0-1.532-1.468zm43.204 20.4a1.486 1.486 0 1 0-.024-2.972 1.488 1.488 0 1 0 .024 2.972zm-6.412-20.4a1.472 1.472 0 0 0-1.5 1.488 1.496 1.496 0 0 0 1.52 1.48 1.484 1.484 0 0 0 1.48-1.48 1.46 1.46 0 0 0-1.5-1.492zM40.7 56.552a1.484 1.484 0 0 0-1.512-1.484 1.48 1.48 0 0 0-1.48 1.472 1.472 1.472 0 0 0 1.488 1.5 1.48 1.48 0 0 0 1.504-1.488z"/></svg>