<svg width="64" height="64" viewBox="0 0 128 128" xmlns="http://www.w3.org/2000/svg"><path d="M64 128C28.652 128 0 99.348 0 64S28.652 0 64 0s64 28.652 64 64-28.652 64-64 64zM44.768 32c.98 4.064 2.976 8.436 7.416 9.68 9.776 2.04 20.284-1.32 29.8 2.372 9.32 3.892 8.984 19.328-.264 23.104-6.304 2.56-13.28 1.548-19.92 1.72-4.4.16-9.528-.808-13.148 2.304-3.092 2.344-3.68 6.38-3.532 9.984.232 13.04.864 18.836.864 18.836s6.86-2.576 8.356-4.732c3.72-4.512 2.228-10.72 2.52-16.06 10.832-.46 22.632 1.768 32.496-3.876 10.696-5.96 13.056-20.648 8.308-31.092-3.796-8.2-13.248-11.732-21.84-12.24H44.768zM28 49.72v2.48c1.452 4.496 5.16 8.576 10.184 8.868 8.18.36 16.376.056 24.552.1-.616-5.456-4.484-10.792-10.376-11.24-8.104-.492-16.24-.06-24.36-.204z"/></svg>