<svg width="64" height="64" viewBox="0 0 128 128" xmlns="http://www.w3.org/2000/svg"><path d="M64 128C28.652 128 0 99.348 0 64S28.652 0 64 0s64 28.652 64 64-28.652 64-64 64zm0-108c-24.3 0-44 19.7-44 44s19.7 44 44 44 44-19.7 44-44-19.7-44-44-44zm41.76 42.2l-3.56.036-.016-1.492 3.564-.032.016 1.488zm-.912-7.692l-3.532.492-.204-1.48 3.528-.488.208 1.48zm-3.04-9.368l.616 1.36-3.244 1.472-.616-1.356 3.24-1.476zm-4.448-6.78l.984 1.12-2.68 2.352-.98-1.12 2.676-2.352zm-5.22-5.572l1.128.976-2.324 2.696-1.132-.972 2.328-2.7zm-6.22-5.036l1.248.812-1.94 2.988-1.248-.808 1.94-2.992zm-7.08-3.492l1.444.38-.904 3.444-1.444-.38.908-3.44zm-7.78-1.912l1.484.12-.296 3.552-1.484-.124.296-3.548zm-8.056-.94h1.488v3.564h-1.488v-3.564zm-6.616.94l.296 3.548-1.488.128-.296-3.552 1.488-.124zm-7.784 1.912l.904 3.444-1.44.38-.908-3.44 1.44-.384zm-7.076 3.492l1.94 2.992-1.252.808-1.94-2.988 1.252-.812zm-6.22 5.04l2.324 2.696-1.128.972-2.324-2.696 1.128-.976zm-5.216 5.56l2.68 2.352-.988 1.12-2.676-2.348.984-1.12zm-4.444 6.784l3.24 1.476-.612 1.36-3.244-1.48.616-1.356zm-2.836 7.892l3.532.488-.208 1.48-3.528-.492.204-1.48zm-1.104 7.68l3.56.032-.012 1.492-3.56-.036.012-1.488zm.328 8.368l3.544-.36.148 1.48-3.544.36-.148-1.48zm1.612 7.576l3.472-.808.34 1.452-3.472.808-.34-1.452zm3.884 9.052l-.736-1.296 3.092-1.768.74 1.296-3.096 1.768zm5.048 6.348l-1.084-1.024 2.452-2.588 1.08 1.024-2.448 2.588zm5.7 5.068l-1.212-.864 2.068-2.904 1.212.868-2.068 2.9zm6.656 4.444l-1.32-.692 1.656-3.152 1.32.692-1.656 3.152zm7.364 2.832l-1.472-.248.588-3.512 1.472.248-.588 3.512zm6.436 1.208l-.028-3.564 1.492-.016.028 3.564-1.492.016zM26.96 64c0-20.424 16.616-37.04 37.04-37.04S101.04 43.576 101.04 64 84.424 101.04 64 101.04 26.96 84.424 26.96 64zm39.944 41.924l-.048.004-.324-3.544 1.484-.136.048-.008.324 3.548-1.484.136zm7.94-1.672l-.62-3.508 1.468-.26.62 3.512-1.468.256zm7.576-2.616l-1.22-3.348 1.4-.508 1.22 3.348-1.4.508zm6.724-4.12l-2.2-2.8 1.168-.928 2.204 2.8-1.172.924zm5.736-5.588l-2.56-2.472 1.032-1.076 2.56 2.48-1.032 1.068zm4.688-6.02l-2.88-2.1.88-1.204 2.88 2.096-.88 1.208zm3.808-7.16l-3.368-1.176.492-1.408 3.364 1.176-.488 1.404zm2.1-8.12l-3.56-.16.068-1.492 3.56.164-.068 1.488zm-27.332 12.3l-1.112-1.12-2.156-2.184c2.5-2.376 4.084-4.772 3.828-10.296-.02-.432.024-5.932.024-6.368l-.012-4.132c.012-10.2-2.48-14.824-9.352-16.46-.78-.188-4.532-.28-5.348-.28h-.36c-.816 0-5.068.092-5.848.28-6.872 1.636-9.364 6.26-9.352 16.46l-.012 4.128c0 .436.04 5.94.024 6.368C48 79.548 53.816 82.692 60.108 82.46h6.956a11.08 11.08 0 0 0 5.264-1.068l2.528 2.56 1.112 1.124c.636.6 1.608.632 2.196.048.588-.58.572-1.552-.024-2.196zm-10.636-3.712l-.324-.004-.06-.004h-7.132a8.948 8.948 0 0 1-.324.008c-1.496 0-3.644-.38-5.376-2.196-1.864-1.952-2.756-3.584-2.576-7.544.016-.28.016-.284-.012-5.252a468.224 468.224 0 0 1 0-4.06c0-1.704.008-1.104.008-1.34-.008-4.52.504-8.448 1.604-10.22.652-1.056 1.78-2.24 5.196-3.064.672-.1 4.112-.204 5.14-.204h.368c1.032 0 3.972.104 4.648.204 3.412.824 4.54 2.008 5.192 3.064 1.1 1.772 1.612 5.7 1.608 10.22l.008 1.34.004 2.792-.008 1.268c-.028 4.968-.024 4.976-.012 5.252.18 3.96-.708 5.592-2.572 7.544l-.296.292-1.996-2.02-1.108-1.12c-.636-.608-1.608-.636-2.2-.052-.584.58-.568 1.552.028 2.192l1.112 1.124 1.424 1.44a8.01 8.01 0 0 1-2.344.34z"/></svg>