<svg width="64" height="64" viewBox="0 0 128 128" xmlns="http://www.w3.org/2000/svg"><path d="M64 128C28.652 128 0 99.348 0 64S28.652 0 64 0s64 28.652 64 64-28.652 64-64 64zm26.36-50.22c-.1-.88-.608-2.896-1.928-3.412-.66-.26-1.22-.052-1.472.412-.408.724-.104 2.12.66 3.36.76 1.244 1.472 1.864 1.98 1.864s.964-.62.76-2.224zm-7.108 3.52c-.812-.728-1.728-1.088-2.54-1.088a1.956 1.956 0 0 0-1.628.72c-.912 1.14-.504 3.208.92 4.452.608.568 1.52.88 2.384.88.864 0 1.624-.364 2.08-.932.816-1.14.36-2.688-1.216-4.036zM28 59.576c0 19.648 15.64 35.576 34.936 35.576 5.132 0 10.208-.98 17.676-1.036 6.652 0 13.964 2.38 21.988 9.62.812.724 1.88-.208 1.168-1.084-7.872-10.188-15.184-12.1-22.496-13.76-8.94-2.012-13.508-7.08-16.708-12.72-.612-1.136-.916-.928-.968.52a32.312 32.312 0 0 0 .46 6.36h-1.068c-12.744 0-23.104-10.548-23.104-23.532C39.88 46.544 50.24 36 62.988 36s23.108 10.548 23.108 23.528c0 .932-.052 1.864-.152 2.744-1.728-.312-5.028-.36-7.364-.156-.864.104-.76.516-.1.62 7.616 1.448 12.848 6.256 14.064 15 .052.204.304.256.408.1a36.296 36.296 0 0 0 4.924-18.256C97.88 39.928 82.24 24 62.936 24 43.64 24 28 39.928 28 59.576z"/></svg>