<svg width="64" height="64" viewBox="0 0 128 128" xmlns="http://www.w3.org/2000/svg"><path d="M64 128C28.652 128 0 99.348 0 64S28.652 0 64 0s64 28.652 64 64-28.652 64-64 64zm1.96-107.988c-.692 0-1.384-.028-2.076.004-2.008.1-3.448 1.532-3.504 3.456-.056 1.944 1.264 3.476 3.256 3.7 2.616.296 5.288.304 7.848.852 17.112 3.656 28.96 18.128 29.352 35.68.052 2.38 1.44 3.912 3.56 3.92 2.16 0 3.728-1.616 3.6-4.016-.152-2.72-.296-5.468-.832-8.124-4.076-20.128-20.688-34.368-41.204-35.472zM62.128 108c1.028-.068 2.096.008 3.08-.236 1.536-.38 2.544-2.168 2.324-3.768-.232-1.692-1.624-2.872-3.36-3.052-3.04-.32-6.144-.44-9.088-1.168C38.764 95.752 27.392 81.28 27.1 64.464a5.332 5.332 0 0 0-.548-2.336c-.72-1.348-2.368-1.952-3.788-1.588-1.704.44-2.88 1.76-2.756 3.604.2 3.012.412 6.052.98 9.008 3.736 19.332 21.448 34.256 41.14 34.848zm1.808-60.012c-10.536.032-18.184 10.12-15.388 20.304 1.872 6.816 8.344 11.824 15.208 11.76 2.184-.016 3.796-1.528 3.812-3.572.016-2.008-1.488-3.48-3.628-3.596a12.256 12.256 0 0 1-1.92-.248c-4.612-.996-7.572-5.6-6.656-10.328.896-4.628 5.376-7.756 9.984-6.972a8.808 8.808 0 0 1 7.468 8.528c.056 1.536.64 2.68 2 3.372 2.508 1.28 5.22-.584 5.2-3.548-.06-8.588-7.372-15.728-16.08-15.7zm30.22 15.028c-.12-1.132-.204-2.12-.332-3.108C91.964 45.28 79.14 33.92 64.456 33.892c-2.44-.008-4.048 1.4-4.068 3.552-.02 2.148 1.58 3.56 3.984 3.672 9.832.468 16.764 5.264 20.816 14.204 1.224 2.704 1.708 5.6 1.736 8.584.02 1.96 1.264 3.396 3.016 3.68 1.676.28 3.396-.66 3.92-2.276.24-.76.216-1.608.296-2.292zM33.912 64.86c.14 7.16 2.8 13.972 7.788 19.4 5.94 6.472 13.368 9.772 22.176 9.852 1.664.016 2.88-.824 3.436-2.26.984-2.552-.82-4.8-3.92-4.88a22.848 22.848 0 0 1-20.836-14.728 23.024 23.024 0 0 1-1.512-7.976c-.048-2.876-2.612-4.628-5.06-3.496-1.86.856-2.28 2.46-2.072 4.088zm46.136 11.28c-.176-.424-.312-1.28-.8-1.8a99.168 99.168 0 0 0-5.76-5.792c-1.356-1.24-3.572-.968-4.812.36-1.22 1.312-1.34 3.404-.096 4.732a108.5 108.5 0 0 0 5.6 5.588c1.072.988 2.428 1.084 3.76.46 1.348-.628 1.96-1.76 2.108-3.548z"/></svg>