<svg width="64" height="64" viewBox="0 0 128 128" xmlns="http://www.w3.org/2000/svg"><path d="M64 128C28.652 128 0 99.348 0 64S28.652 0 64 0s64 28.652 64 64-28.652 64-64 64zm38.512-43.164a1.52 1.52 0 0 0-1.488 1.536v4.608H81.816l-.048-2.924c11.044-8.008 15.784-22.472 11.72-35.752C89.416 39.024 77.476 30 63.976 30s-25.44 9.024-29.508 22.304c-4.068 13.28.672 27.744 11.72 35.752h.044l-.048 2.872H26.976V86.32c0-.848-.664-1.536-1.488-1.536S24 85.472 24 86.32v7.632h25.116l.096-6.64a1.588 1.588 0 0 0-.916-1.44.976.976 0 0 0-.384-.392c-7.52-5.34-12.012-14.16-12-23.584 0-13.78 9.428-25.648 22.524-28.36 13.1-2.708 26.232 4.488 31.388 17.204 5.156 12.72.9 27.416-10.168 35.136a2.256 2.256 0 0 0-.336.348 1.504 1.504 0 0 0-.532 1.136l.096 6.64H104v-7.628a1.52 1.52 0 0 0-1.488-1.536zM82.68 64.132a27.736 27.736 0 0 0-1.968-2.28 26.82 26.82 0 0 0 1.968-2.28c3.312-4.208 4.32-7.924 2.88-10.5-1.104-1.932-3.456-2.972-6.868-2.972a26.12 26.12 0 0 0-6.336.94c-1.824-6.588-4.852-10.8-8.308-10.8s-6.48 4.212-8.356 10.752a26.12 26.12 0 0 0-6.336-.944c-3.412 0-5.764 1.04-6.868 2.972-1.44 2.576-.432 6.292 2.88 10.504.616.8 1.272 1.56 1.968 2.28-4.608 4.904-6.624 9.708-4.848 12.78 1.104 1.932 3.456 2.972 6.868 2.972a26.12 26.12 0 0 0 6.336-.94c1.824 6.54 4.852 10.752 8.308 10.752s6.48-4.212 8.356-10.752a26.12 26.12 0 0 0 6.336.94c3.412 0 5.764-1.04 6.868-2.972 1.44-2.476.432-6.24-2.88-10.452zm-3.94-16.2c1.876 0 4.32.348 5.236 2.032 1.008 1.832 0 4.856-2.736 8.372-.576.692-1.2 1.436-1.872 2.128a58.222 58.222 0 0 0-5.428-4.556 57.84 57.84 0 0 0-1.104-7.132 27.192 27.192 0 0 1 5.904-.844zM68.18 69.284A43.16 43.16 0 0 1 64 71.512a62.668 62.668 0 0 1-8.16-4.856 77.252 77.252 0 0 1-.196-4.852c0-1.684.048-3.32.192-4.856a51.23 51.23 0 0 1 3.988-2.576A42.634 42.634 0 0 1 64 52.144a84.652 84.652 0 0 1 4.176 2.228c1.396.84 2.74 1.684 3.988 2.576.096 1.536.192 3.172.192 4.856 0 1.68-.048 3.268-.192 4.856a62.96 62.96 0 0 1-3.988 2.624zm3.792-.148a70.252 70.252 0 0 1-.864 5.252 41.52 41.52 0 0 1-4.852-1.836c.96-.492 1.92-1.04 2.88-1.632.96-.596 1.876-1.192 2.836-1.784zM61.84 72.552c-1.584.704-3.2 1.32-4.852 1.836a39.692 39.692 0 0 1-.864-5.252c.912.592 1.872 1.188 2.832 1.784zm-7.876-7.332a46.137 46.137 0 0 1-3.984-3.416 42.067 42.067 0 0 1 3.984-3.42c-.048 1.14-.096 2.232-.096 3.42 0 1.188.048 2.328.096 3.416zm2.16-10.648c.24-1.884.528-3.62.864-5.252a41.496 41.496 0 0 1 4.852 1.832c-.96.496-1.92 1.04-2.932 1.636a39 39 0 0 0-2.784 1.784zm10.084-3.42a44.89 44.89 0 0 1 4.852-1.832c.404 1.728.692 3.48.864 5.252a146.024 146.024 0 0 0-2.832-1.784 42.07 42.07 0 0 0-2.88-1.636zm7.924 7.28a39.46 39.46 0 0 1 3.936 3.42c-1.2 1.14-2.544 2.28-3.936 3.42.048-1.092.096-2.232.096-3.42 0-1.188-.048-2.28-.096-3.416zM64.048 38.124c2.4 0 4.944 3.468 6.58 9.36a52.632 52.632 0 0 0-6.58 2.572 52.584 52.584 0 0 0-6.58-2.576c1.636-5.888 4.132-9.36 6.58-9.36zM44.12 49.964c.96-1.684 3.36-2.032 5.236-2.032 1.992.04 3.976.324 5.904.84a58.288 58.288 0 0 0-1.104 7.136 53.001 53.001 0 0 0-5.428 4.552 37.796 37.796 0 0 1-1.872-2.18c-2.784-3.412-3.792-6.484-2.736-8.32zm5.236 25.76c-1.876 0-4.32-.348-5.236-2.032-1.2-2.18.432-6.14 4.56-10.552a47.214 47.214 0 0 0 5.476 4.56c.22 2.4.588 4.78 1.104 7.128-1.92.56-3.908.86-5.904.896zm14.692 9.808c-2.4 0-4.944-3.468-6.58-9.36a53.28 53.28 0 0 0 6.58-2.576 53.28 53.28 0 0 0 6.58 2.576c-1.636 5.892-4.18 9.36-6.58 9.36zm19.928-11.84c-.96 1.684-3.36 2.032-5.236 2.032a24.788 24.788 0 0 1-5.904-.84c.516-2.352.88-4.736 1.104-7.136a52.57 52.57 0 0 0 5.428-4.56c.672.696 1.296 1.44 1.872 2.132 2.736 3.52 3.744 6.588 2.736 8.372zm-19.928-19.12c-3.864.024-6.98 3.276-6.96 7.264.016 3.988 3.16 7.208 7.024 7.2 3.864-.008 6.996-3.244 6.996-7.232-.028-4-3.18-7.232-7.06-7.232zm0 12.632c-2.864 0-5.188-2.396-5.188-5.352 0-2.956 2.324-5.348 5.188-5.348s5.188 2.392 5.188 5.348c-.024 2.948-2.332 5.328-5.188 5.352z"/></svg>