<svg width="64" height="64" viewBox="0 0 128 128" xmlns="http://www.w3.org/2000/svg"><path d="M101.252 94.544c-.38.688-.6 1.48-.6 2.328 0 2.624 2.096 4.752 4.676 4.752S110 99.496 110 96.872c0-2.624-2.092-4.752-4.672-4.752a4.6 4.6 0 0 0-3.096 1.192l-7.668-6.828 5.988-19.32a3.144 3.144 0 0 0 3.22-3.168 3.144 3.144 0 0 0-3.324-3.16l-5.104-16.752a3.18 3.18 0 0 0 1.416-2.66 3.144 3.144 0 0 0-3.112-3.168 3.08 3.08 0 0 0-2.144.872l-14.2-10.44a3.2 3.2 0 0 0 .376-1.52A3.144 3.144 0 0 0 74.568 24a3.132 3.132 0 0 0-3.064 2.576h-17.24A3.132 3.132 0 0 0 51.204 24a3.144 3.144 0 0 0-3.116 3.168c0 .58.156 1.124.424 1.592L34.22 39.08a3.076 3.076 0 0 0-2.096-.824 3.144 3.144 0 0 0-3.116 3.168c0 1.208.664 2.256 1.64 2.792l-5.128 16.64A3.144 3.144 0 0 0 22 64a3.144 3.144 0 0 0 3.42 3.16l5.212 16.64a3.176 3.176 0 0 0-1.624 2.78c0 1.748 1.396 3.168 3.116 3.168a3.072 3.072 0 0 0 2.064-.8l14.184 10.564a3.2 3.2 0 0 0-.28 1.32c0 1.752 1.392 3.172 3.112 3.172 1.52 0 2.788-1.108 3.06-2.576h17.24a3.132 3.132 0 0 0 3.064 2.576c1.72 0 3.112-1.42 3.112-3.168a3.2 3.2 0 0 0-.288-1.332l15.968-11.98 7.892 7.024zm-26.42 3.132a3.104 3.104 0 0 0-1.44.22l-8.188-11.58a3.18 3.18 0 0 0 .752-1.58l13.8-2.008a3.176 3.176 0 0 0 1.024 1.552l-5.948 13.396zm1.572.6a3.12 3.12 0 0 0-.1-.072l5.892-13.264a3.08 3.08 0 0 0 3.012-1.18l6.672 2.904L76.4 98.272zm-4.26.564a3.18 3.18 0 0 0-.536 1H54.16a3.18 3.18 0 0 0-.536-1l8.24-11.648a3.064 3.064 0 0 0 2.036 0l8.24 11.648zm26.912-32.12l-4.904 15.824L93.088 67a3.164 3.164 0 0 0 2.116-3 3.164 3.164 0 0 0-2.14-3.008l1.08-15.5 4.824 15.844A3.18 3.18 0 0 0 97.54 64a3.17 3.17 0 0 0 1.52 2.72zm-9.016-5.108A3.184 3.184 0 0 0 88.972 64c0 .908.38 1.728.984 2.308l-6.48 12.436a3.072 3.072 0 0 0-1.24-.048L76.5 66.484A3.184 3.184 0 0 0 77.68 64a3.184 3.184 0 0 0-1.144-2.452l5.568-12.268a3.08 3.08 0 0 0 1.6-.088l6.336 12.42zm1.496 5.508l1.244 18.216-6.96-3.032a3.184 3.184 0 0 0-.972-2.812l6.472-12.42a3.052 3.052 0 0 0 .216.048zm-.024-6.232a3.052 3.052 0 0 0-.08.012L85.02 48.34a3.188 3.188 0 0 0 .78-2.78l5.352-2.236a3.124 3.124 0 0 0 1.504 1.108l-1.144 16.456zm-16.432 6.24l5.732 12.208a3.176 3.176 0 0 0-1.112 1.8l-13.872 2.016a3.18 3.18 0 0 0-.58-1.016l8.492-15.08a3.068 3.068 0 0 0 1.34.068zm.04-6.244a3.08 3.08 0 0 0-1.46.084l-8.556-15.34a3.176 3.176 0 0 0 .656-1.004l13.9 2.02a3.18 3.18 0 0 0 1.048 1.932l-5.584 12.308zm-2.728 5.384l-8.424 14.96a3.064 3.064 0 0 0-1.88-.092l-8.68-14.9A3.184 3.184 0 0 0 54.32 64c0-.84-.32-1.604-.848-2.172L62.3 46.52a3.08 3.08 0 0 0 1.468-.076l8.56 15.352a3.188 3.188 0 0 0-.88 2.204c0 .888.36 1.692.944 2.268zm-45.508.34A3.18 3.18 0 0 0 28.232 64a3.18 3.18 0 0 0-1.26-2.544l4.892-15.9 1.212 15.336A3.156 3.156 0 0 0 30.568 64c0 1.52 1.052 2.792 2.456 3.096l-1.172 15.376-4.968-15.864zm15.552 12.104l-6.6-12.424a3.184 3.184 0 0 0 .96-2.288 3.184 3.184 0 0 0-1.012-2.336l6.716-12.36a3.084 3.084 0 0 0 1.168-.024l5.568 12.264A3.184 3.184 0 0 0 48.088 64c0 1.024.48 1.936 1.22 2.516l-5.48 12.24a3.072 3.072 0 0 0-1.392-.044zm1.296 6.2l5.756 13.276a3.12 3.12 0 0 0-.128.092l-14.3-10.648a3.212 3.212 0 0 0 .156-1.46l5.396-2.352a3.088 3.088 0 0 0 3.12 1.088zM39.96 82.38l-5.32 2.32a3.136 3.136 0 0 0-1.32-1.052l1.256-16.4 6.452 12.144a3.184 3.184 0 0 0-1.068 2.988zm6.12-1.196a3.18 3.18 0 0 0-.892-1.644l5.56-12.404a3.088 3.088 0 0 0 1.32-.092l8.66 14.868a3.176 3.176 0 0 0-.788 1.248l-13.86-1.976zM46 82.772l13.816 1.972c.1.6.368 1.14.752 1.572l-8.192 11.58a3.06 3.06 0 0 0-1.412-.224l-5.852-13.496a3.176 3.176 0 0 0 .888-1.4zm-6.012-37.288a3.232 3.232 0 0 0 1.088 3.164l-6.464 11.904-1.28-16.204a3.136 3.136 0 0 0 1.332-1.088l5.32 2.224zm3.8-2.38a3.072 3.072 0 0 0-3.088.968l-5.48-2.292a3.256 3.256 0 0 0-.144-1.372l14.212-10.264-5.5 12.96zm2.328 3.492L60 44.616c.196.48.5.896.884 1.224l-8.728 15.144a3.064 3.064 0 0 0-1.512-.1L45.06 48.576a3.18 3.18 0 0 0 1.052-1.98zm-.96-2.728l5.752-13.544a3.1 3.1 0 0 0 1.56-.26l7.96 11.392a3.184 3.184 0 0 0-.64 1.592l-13.86 1.976a3.176 3.176 0 0 0-.768-1.156zm37.292-.844l-5.884-12.928 14.112 10.376a3.216 3.216 0 0 0-.116 1.388l-5.44 2.272a3.088 3.088 0 0 0-2.672-1.108zm-2.624 2.04l-13.84-2.008a3.184 3.184 0 0 0-.64-1.6l7.96-11.392a3.06 3.06 0 0 0 1.64.248l6.04 13.252a3.172 3.172 0 0 0-1.16 1.504zM72.08 29.08l-7.976 11.412a3.06 3.06 0 0 0-2.44 0L53.688 29.08a3.18 3.18 0 0 0 .476-.92h17.44a3.18 3.18 0 0 0 .48.92zM64 128C28.652 128 0 99.348 0 64S28.652 0 64 0s64 28.652 64 64-28.652 64-64 64z"/></svg>