<svg width="64" height="64" viewBox="0 0 128 128" xmlns="http://www.w3.org/2000/svg"><path d="M64 128C28.652 128 0 99.348 0 64S28.652 0 64 0s64 28.652 64 64-28.652 64-64 64zM45.88 30.644a15.234 15.234 0 100 30.468 15.234 15.234 0 000-30.468zm15.228 51.48A21.012 21.012 0 0182.12 61.112 15.232 15.232 0 1066.888 45.88c0 11.6-9.408 21.012-21.012 21.012a15.232 15.232 0 1015.232 15.232zM82.12 97.356a15.232 15.232 0 10.004-30.464 15.232 15.232 0 000 30.464zm0-10.64a4.592 4.592 0 110-9.184 4.592 4.592 0 010 9.184zm-36.24 0a4.592 4.592 0 110-9.184 4.592 4.592 0 010 9.184zm36.24-36.248a4.592 4.592 0 110-9.184 4.592 4.592 0 010 9.184zm-36.24 0a4.592 4.592 0 110-9.184 4.592 4.592 0 010 9.184z"/></svg>