<svg width="64" height="64" viewBox="0 0 128 128" xmlns="http://www.w3.org/2000/svg"><path d="M75.544 28.372a41.744 41.744 0 0 0-14.1-2.436C38.56 25.936 20 44.308 20 66.968 20 89.628 38.556 108 61.444 108c22.892 0 41.448-18.372 41.448-41.032a40.56 40.56 0 0 0-2.92-15.156 17.232 17.232 0 0 0 7.996-14.528c0-9.544-7.82-17.284-17.46-17.284a17.488 17.488 0 0 0-14.96 8.372zm-2.36 6.744a17.28 17.28 0 0 0 .08 4.872 37.376 37.376 0 0 0-4.668-2.296l.952-4.22c1.26.52 2.472 1.068 3.636 1.64zm19.72 19.296c.336.696.652 1.4.952 2.12l-3.724 2.592a57.88 57.88 0 0 0-2.644-4.816 17.72 17.72 0 0 0 5.416.104zM64 128C28.652 128 0 99.348 0 64S28.652 0 64 0s64 28.652 64 64-28.652 64-64 64zm11.544-99.628a17.064 17.064 0 0 0-2.36 6.744 58.4 58.4 0 0 0-3.636-1.644l-.952 4.22a37.672 37.672 0 0 1 4.664 2.296V40c5.816 3.388 10.488 8.244 14.216 14.308h.012a58.216 58.216 0 0 1 2.644 4.816l3.72-2.588a38.95 38.95 0 0 0-.948-2.124 17.456 17.456 0 0 0 7.068-2.6 40.563 40.563 0 0 1 2.92 15.16c0 22.652-18.56 41.028-41.452 41.028S20 89.628 20 66.968c0-22.66 18.556-41.032 41.444-41.032 4.952 0 9.7.86 14.1 2.436z"/></svg>