<svg width="64" height="64" viewBox="0 0 128 128" xmlns="http://www.w3.org/2000/svg"><path d="M64 128C28.652 128 0 99.348 0 64S28.652 0 64 0s64 28.652 64 64-28.652 64-64 64zM40 24.024c.332.184.692.312 1.032.472 6.2 2.728 12.16 6.104 17.444 10.38 4.856 3.92 9.128 8.648 12.188 14.124 2.86 5.112 4.676 10.88 4.848 16.768.012.832.004 1.668-.088 2.496H91.96c.248-6.24-.668-12.52-2.596-18.456a60.612 60.612 0 0 0-7.888-15.78 59.52 59.52 0 0 0-8.184-9.564c-.256-.2-.456-.56-.848-.44H40zm12.008 29.308L52 104c6.88-4.412 13.74-8.86 20.624-13.268-1.32-2.428-2.668-4.844-4-7.268a18860.44 18860.44 0 0 0-16.62-30.132z"/></svg>