<svg width="64" height="64" viewBox="0 0 128 128" xmlns="http://www.w3.org/2000/svg"><path d="M64 0c35.348 0 64 28.652 64 64s-28.652 64-64 64S0 99.348 0 64 28.652 0 64 0zm37.728 81.68l-42.104 24.344.828.44 6.2-3.54.876 1.452 6.264-3.664.88 1.52 27.056-15.62v-4.928zm0-6.884l-48.104 27.748.884.508 6.2-3.608.816 1.52 12.268-7.08.88 1.46 27.056-15.62V74.8zm0-6.892L47.68 99.132l.888.44 6.196-3.536.816 1.452 18.212-10.496.88 1.452 27.056-15.608v-4.932zm0-6.888l-59.992 34.64.828.508 6.256-3.608.816 1.52 24.16-13.972.872 1.452 27.06-15.608v-4.932zm0-6.828L35.8 92.24l.816.508 6.2-3.604.876 1.452 30.096-17.384.88 1.52 27.056-15.68v-4.868zm0-6.892L29.86 88.768l.816.504 6.072-3.48.884 1.456 36.16-20.92.88 1.508 27.056-15.676v-4.864zm-2.144-5.688L26 84.148v.944l10.872-6.256.888 1.452 36.216-20.92.828 1.456 26.92-15.484v-2.464l-1.264-.76-.88-.508zm-5.944-3.412L26 77.26v.944l10.872-6.256.888 1.452 36.216-20.92.828 1.52L97.88 40.664l-1.72-1.016-1.632-.952-.888-.5zm-5.944-3.42L26 70.372v.944l10.872-6.256.888 1.452L68.032 49.06l.832 1.464 23.072-13.34-1.716-.956-1.704-1-.82-.452zm-5.944-3.48L26 63.488v1l10.872-6.312.888 1.512 24.144-13.964.82 1.452 23.268-13.4-1.704-.952-1.72-1.016-.816-.504zm-5.944-3.408L26 56.584v1.012l10.872-6.256.888 1.452L55.96 42.3l.82 1.46 23.268-13.408-1.704-1.012-1.708-.944-.828-.508zm-6-3.48L26 49.768v.944l10.872-6.256.888 1.452 12.256-7.072.832 1.452L74.104 26.88l-1.704-.944-1.708-1.016-.884-.504zM63.864 21L26 42.876v.944l10.872-6.26.888 1.452 6.256-3.604.888 1.452 23.2-13.4-1.708-1.012-1.712-.944-.82-.508z"/></svg>