<svg width="64" height="64" viewBox="0 0 128 128" xmlns="http://www.w3.org/2000/svg"><path d="M64 128C28.652 128 0 99.348 0 64S28.652 0 64 0s64 28.652 64 64-28.652 64-64 64zm39.572-45.352L69 21.744A3.468 3.468 0 0 0 65.98 20a3.468 3.468 0 0 0-3.02 1.744L28.44 82.652a3.344 3.344 0 0 0 1.24 4.544l34.548 20.32a3.52 3.52 0 0 0 3.552 0l34.544-20.304a3.344 3.344 0 0 0 1.244-4.54l.008-.024zm-21.24-17.4a16.948 16.948 0 0 0-5.72-7.828l-.032-.028a16.848 16.848 0 0 0-.852-.604l-.056-.04a19.424 19.424 0 0 0-.872-.54l-.08-.048a10.212 10.212 0 0 0-.892-.46l-.088-.048a25.22 25.22 0 0 0-.944-.42l-.104-.04a17.36 17.36 0 0 0-3.184-.976 12.108 12.108 0 0 1-2.392 3.052 14.02 14.02 0 0 1 6.324 2.092l.108.064.528.36.24.168c.16.12.308.24.472.36l.268.216c.144.12.276.24.412.364l.272.26.372.376.272.292.332.388.26.324.3.4c.1.132.168.236.248.352.08.116.184.268.268.408l.232.384c.072.128.16.272.232.408.08.132.144.28.216.424.068.144.136.264.196.4.06.144.148.356.216.536a13.2 13.2 0 0 1 .8 2.944l.436 1.616c.184.672 1.884 6.624 5.824 8.628 4.516 2.316 10.496 5.176 12.848 6.308l-31.064 18.24v-12.5c0-1.972 4-4.28 5.852-5.092l.108-.06c.38-.188.76-.392 1.12-.608l.156-.08c.8-.484 1.568-1.028 2.28-1.628l.192-.172.22-.196a17.92 17.92 0 0 0 .66-.624l.112-.108c.236-.236.472-.46.68-.736l.196-.224c.176-.208.344-.42.508-.636l.144-.18c.2-.264.384-.536.568-.812l.064-.08c.248-.388.468-.776.7-1.18a17.672 17.672 0 0 1-2.224-3.424c-.248.692-.56 1.364-.92 2.008-.152.28-.312.552-.472.816l-.072.108a14.108 14.108 0 0 1-.472.66l-.144.184a10.64 10.64 0 0 1-.512.612l-.096.112A13.824 13.824 0 0 1 72.3 82.8l-.292.148c-.788.348-7.732 3.428-7.732 8.112v12.504l-31.16-18.272c2.004-1.224 7.86-4.632 12.676-6.132 1.884-.576 5.884 1.892 8.152 3.704l.136.12c.3.28.616.548.944.8l.112.1c.72.576 1.488 1.092 2.292 1.548l.54.292.108.056c.524.264 1.06.504 1.608.716l.24.092.16.064c.788.288 1.6.512 2.42.68a11.92 11.92 0 0 1 2.464-3.072 13.976 13.976 0 0 1-3.844-.84l-.212-.08-.408-.164-.208-.088-.396-.184a13.864 13.864 0 0 1-2.58-1.624l-1.24-1.104a22.812 22.812 0 0 0-3.68-2.584c-3.08-1.72-5.656-2.28-7.632-1.672-4.12 1.272-8.76 3.744-11.592 5.376l31.112-54.868v24.028c0 .852-1.28 3.076-5.556 4.964l-.296.16c-.416.2-.82.416-1.216.648l-.08.04a17.38 17.38 0 0 0-3.592 2.816l-.04.04a17.08 17.08 0 0 0-1.148 1.308l-.044.06a21.084 21.084 0 0 0-.508.676l-.056.08a19.772 19.772 0 0 0-.432.656l-.048.068c-.14.228-.276.456-.404.692l-.092.164c-.116.224-.232.464-.348.672l-.052.108c-.104.212-.2.424-.292.64l-.1.24c-.092.224-.176.464-.26.68l-.08.24a9.096 9.096 0 0 0-.168.52c-.028.096-.06.188-.084.288a16.208 16.208 0 0 0-.5 2.452l-.04.372a10.152 10.152 0 0 0-.044.508c-.008.172 0 .34-.028.508-.028.172 0 .208 0 .32v.38c0 .84.064 1.68.192 2.516a17.6 17.6 0 0 1 3.864 1.44 13.268 13.268 0 0 1-.6-3.728v-.228c0-.304 0-.604.036-.924v-.24c0-.26.052-.524.088-.784v-.112c.04-.292.1-.58.168-.86l.048-.22c.06-.24.12-.472.196-.708l.048-.152c.08-.276.18-.544.284-.812l.08-.18c.088-.22.184-.44.284-.66l.076-.168c.124-.26.26-.512.4-.764l.076-.124a13.52 13.52 0 0 1 .396-.64l.1-.148c.164-.24.332-.464.512-.712l.032-.04c.172-.22.352-.432.536-.64l.1-.12a13.896 13.896 0 0 1 2.88-2.412l1.472-.68c.788-.348 7.7-3.512 7.7-8.2V26.428l31.356 55.28c-2.8-1.348-7.72-3.728-11.56-5.68-2.192-1.12-3.688-5.068-4.072-6.484l-.424-1.66a16.456 16.456 0 0 0-.688-2.62l-.032-.016z"/></svg>