<svg width="64" height="64" viewBox="0 0 128 128" xmlns="http://www.w3.org/2000/svg"><path d="M64 0c35.348 0 64 28.652 64 64s-28.652 64-64 64S0 99.348 0 64 28.652 0 64 0zm28.292 30H41.184C37.052 30 34 33.12 34 37.384v53.32a6.788 6.788 0 006.196 6.852l.68.024a6.76 6.76 0 006.872-6.872V43.156l33.992-.004L61.652 63.2a6.744 6.744 0 000 9.58l22.94 22.868a6.756 6.756 0 009.532-9.576L75.972 67.98l16.96-16.908a6.713 6.713 0 001.988-4.788l.028-13.668a2.736 2.736 0 00-.76-1.88l-.012.008-.3-.252A2.612 2.612 0 0092.292 30z"/></svg>