<svg width="64" height="64" viewBox="0 0 128 128" xmlns="http://www.w3.org/2000/svg"><path d="M64 128C28.652 128 0 99.348 0 64S28.652 0 64 0s64 28.652 64 64-28.652 64-64 64zM40 24v6.888l27.664.004c3.568-.048 6.188.248 7.852.884 6.024 2.052 10.144 8.26 9.66 14.488-.152 7.208-6.58 13.58-13.928 13.776-6.368.088-12.74.008-19.112.04 5.98 9.76 14.96 24.4 26.94 43.92l5.72-3.592a20725.48 20725.48 0 0 0-20.66-33.672c4.028-.072 8.148.34 12.072-.772 6.184-1.636 11.472-6.152 14-11.92 2.792-6.268 2.312-13.872-1.36-19.7a21.556 21.556 0 0 0-14.36-9.744c-1.76-.372-4.452-.572-8.06-.6H40z"/></svg>