<svg width="64" height="64" viewBox="0 0 128 128" xmlns="http://www.w3.org/2000/svg"><path d="M64 128C28.652 128 0 99.348 0 64S28.652 0 64 0s64 28.652 64 64-28.652 64-64 64zM47.264 36.96c-2.8-3.72-7.128-6.4-11.852-6.592-4.928-.288-9.784 2.052-13.004 5.716-2.44 2.812-3.604 6.54-3.648 10.228a4145.8 4145.8 0 0 0-.008 21.16c-.08.936.76 1.592 1.644 1.492 19.968.056 39.944-.064 59.912.064a149.332 149.332 0 0 0 .308 13.08c-5.696 4.144-12.368 7.068-19.344 8.156-.908.204-2.44-.04-2.64 1.208-.084 2.34-.008 4.692-.036 7.036-.132.824.512 1.668 1.372 1.656a44.828 44.828 0 0 0 23.376-8.86c2.496 3.24 6.06 5.8 10.176 6.416 5.82 1.036 11.936-1.772 15.416-6.448 2.2-2.976 2.98-6.744 2.964-10.384-.02-6.7.06-13.4-.04-20.092.076-1.064-.924-1.604-1.872-1.52-19.904-.04-39.808.02-59.704-.036-.12-3.94.172-7.896-.256-11.824-.044-.544-.172-1.292.4-1.616 6.1-4.168 13.12-7.184 20.5-8 .8-.02 1.168-.92 1.112-1.616 0-2.24.056-4.488-.024-6.724.028-.936-.892-1.472-1.74-1.304-8.304.68-16.352 3.812-23.012 8.804zM26.8 47.528c.096-3.768 3.544-7.08 7.332-6.928 3.88-.072 7.372 3.34 7.448 7.204.08 4.032.032 8.06.024 12.092-4.932.108-9.86.036-14.796.04a1671.22 1671.22 0 0 1-.008-12.408zm62.836 21.16c4.928-.012 9.856-.028 14.784.008.04 3.94.016 7.88.016 11.82.032 3-1.852 5.988-4.7 7.044-3.092 1.196-6.868.012-8.76-2.696a7.372 7.372 0 0 1-1.36-4.388c.012-3.928-.016-7.86.02-11.792z"/></svg>