<svg width="64" height="64" viewBox="0 0 128 128" xmlns="http://www.w3.org/2000/svg"><path d="M40.576 80.096h-12.2a.372.372 0 0 0-.376.372v2.548c0 .204.168.372.372.372h10.056a708.519 708.519 0 0 0-8 12.612h29.276c-7.636-3.744-11.548-7.948-11.744-12.612h10.996a.372.372 0 0 0 .372-.372v-2.548a.372.372 0 0 0-.372-.372H48.432c.388-1.456 1.008-3.2 1.84-5.12h12.04a.372.372 0 0 0 .372-.372V72.06a.372.372 0 0 0-.372-.372H51.816c6.08-12.048 18.748-28.152 33.62-28.152 9.472 0 9.648 8.412 14.36 8.412S108 50.692 108 48.292c0-2.4-2.984-11.152-14.172-11.152-18.62 0-26.28 14.256-35.244 14.256-7.6 0-11-6.58-11-10.416 0-5.74 6.52-11.7 9.508-11.88 1.116-.072.744-1.1-1.68-1.1-5.224 0-14.172 6.72-14.172 12.248 0 10.168 8.58 13.892 13.8 13.892 2.64 0 2.8.364 2.8 1.096 0 .48-3.88 5.136-11.624 16.452H31.728a.372.372 0 0 0-.372.372v2.544c0 .208.168.376.372.376h12.256a572.64 572.64 0 0 0-3.408 5.12zM64 128C28.652 128 0 99.348 0 64S28.652 0 64 0s64 28.652 64 64-28.652 64-64 64z"/></svg>