<svg width="64" height="64" viewBox="0 0 128 128" xmlns="http://www.w3.org/2000/svg"><path d="M64 128C28.652 128 0 99.348 0 64S28.652 0 64 0s64 28.652 64 64-28.652 64-64 64zM50.42 36.62c3.432 0 6.212-2.824 6.212-6.308S53.852 24 50.42 24c-3.428 0-6.208 2.824-6.208 6.312s2.78 6.308 6.208 6.308zM77.788 104C81.22 104 84 101.176 84 97.688c0-3.48-2.78-6.308-6.212-6.308-3.428 0-6.208 2.824-6.208 6.308 0 3.488 2.78 6.312 6.208 6.312zm-24.82-47.16L81.6 34.6a5.728 5.728 0 0 0 1.04-7.948 5.52 5.52 0 0 0-7.82-1.06L46.192 47.84a5.728 5.728 0 0 0-1.044 7.944 5.52 5.52 0 0 0 7.82 1.06zm.212 22.676l28.628-22.248a5.728 5.728 0 0 0 1.044-7.944 5.52 5.52 0 0 0-7.82-1.06L46.4 70.512a5.728 5.728 0 0 0-1.04 7.948 5.52 5.52 0 0 0 7.82 1.06zm0 23.316l28.628-22.248a5.728 5.728 0 0 0 1.044-7.944 5.52 5.52 0 0 0-7.82-1.06L46.4 93.828a5.728 5.728 0 0 0-1.04 7.948 5.52 5.52 0 0 0 7.82 1.06z"/></svg>