<svg width="64" height="64" viewBox="0 0 128 128" xmlns="http://www.w3.org/2000/svg"><path d="M64 128C28.652 128 0 99.348 0 64S28.652 0 64 0s64 28.652 64 64-28.652 64-64 64zm30.732-76.456c-6.52.684-11.464 6.628-11.016 13.256 0 1.828-.676 3.428-2.248 4.344a4.48 4.48 0 0 1-2.472.684c-.9 0-1.576-.228-2.476-.684C74.496 68 72.248 67.316 70 67.316h-1.348c-6.52.684-11.24 6.628-10.796 13.256 0 1.828-.672 3.428-2.248 4.344a4.48 4.48 0 0 1-2.472.684 3.756 3.756 0 0 1-2.248-.684c-2.024-1.144-4.272-1.832-6.52-1.832h-1.352c-6.068.688-10.568 5.944-10.792 12.344 0 6.856 5.4 12.572 12.144 12.572h1.12c5.848-.684 10.572-5.256 11.02-11.2v-2.056c0-1.828.676-3.428 2.248-4.344a4.48 4.48 0 0 1 2.476-.684c.9 0 1.572.228 2.472.684 2.024 1.144 4.272 1.828 6.52 1.828h1.348a12.32 12.32 0 0 0 10.796-11.2v-2.056c0-1.828.672-3.428 2.248-4.344a4.48 4.48 0 0 1 2.472-.684c.9 0 1.576.228 2.248.684 2.024 1.144 4.272 1.828 6.52 1.828h1.352C103.28 75.32 108 70.288 108 63.888c0-6.86-5.4-12.572-12.144-12.572-.448 0-.896 0-1.12.228zM68.88 35.772c-6.52.684-11.468 6.628-11.02 13.256 0 1.828-.672 3.428-2.248 4.344a4.48 4.48 0 0 1-2.472.684 3.756 3.756 0 0 1-2.248-.684c-2.024-1.144-4.272-1.828-6.52-1.828H43.02c-6.068.912-10.568 5.944-10.568 12.112 0 6.86 5.4 12.572 12.144 12.572h1.124c5.848-.688 10.568-5.26 11.016-11.2v-2.056c0-1.828.68-3.428 2.252-4.344a4.48 4.48 0 0 1 2.472-.684c.9 0 1.572.228 2.248.684 2.024 1.144 4.272 1.828 6.52 1.828h1.348c6.072-.684 10.572-5.94 10.796-12.34 0-6.86-5.4-12.572-12.144-12.572-.672 0-.9 0-1.348.228zM44.144 20C37.436 20 32 25.528 32 32.344s5.44 12.34 12.144 12.34S56.28 39.16 56.28 32.344 50.844 20 44.144 20z"/></svg>