<svg width="64" height="64" viewBox="0 0 128 128" xmlns="http://www.w3.org/2000/svg"><path d="M64 128C28.652 128 0 99.348 0 64S28.652 0 64 0s64 28.652 64 64-28.652 64-64 64zm38.784-65.072c-2.2 0-4.084 1.332-4.848 3.22H81.92a1.928 1.928 0 0 0-1.68.972l-3.14 5.584-2.328-19.66c-.26-2.2-3.52-2.224-3.816-.028L66.9 83.108l-3.924-57.356c-.16-2.292-3.576-2.36-3.828-.072l-4.88 44.588-3.396-18.68c-.36-1.992-3.252-2.092-3.756-.124l-3.752 14.68H25.92c-1.064 0-1.924.844-1.924 1.88s.86 1.88 1.92 1.88H44.86c.88 0 1.648-.584 1.864-1.42l1.936-7.58 4.188 23.024c.392 2.14 3.568 2.032 3.8-.132l3.964-36.216 3.74 54.668c.156 2.264 3.52 2.368 3.824.12l4.56-33.816 1.232 10.428c.216 1.82 2.692 2.296 3.596.692l5.488-9.764h14.88c.76 1.884 2.648 3.22 4.848 3.22 2.88 0 5.216-2.284 5.216-5.1s-2.336-5.1-5.216-5.1z"/></svg>