<svg width="64" height="64" viewBox="0 0 128 128" xmlns="http://www.w3.org/2000/svg"><path d="M64 128C28.652 128 0 99.348 0 64S28.652 0 64 0s64 28.652 64 64-28.652 64-64 64zM42 60.952v7.232h7.056v10.432H42v6.82h7.056V100h7.952V85.436h16v-6.82h-16V68.184h10.036a31.64 31.64 0 0 0 9.04-1.24c2.784-.828 5.2-2.08 7.256-3.772 2.056-1.684 3.68-3.8 4.872-6.352C89.404 54.272 90 51.276 90 47.832c0-3.44-.56-6.4-1.688-8.88-1.128-2.48-2.684-4.532-4.672-6.148s-4.372-2.824-7.156-3.616A33.704 33.704 0 0 0 67.244 28H49.056v32.952zm25.24 0H57.008v-25.72h10.236c4.568 0 8.164 1 10.78 2.996 2.616 1.996 3.928 5.2 3.928 9.604 0 4.408-1.312 7.696-3.928 9.868-2.616 2.168-6.212 3.252-10.78 3.252z"/></svg>