<svg width="64" height="64" viewBox="0 0 128 128" xmlns="http://www.w3.org/2000/svg"><path d="M64 128C28.652 128 0 99.348 0 64S28.652 0 64 0s64 28.652 64 64-28.652 64-64 64zm-26-20l22.596-16.752-8.124-50.4L38 108zm14.752-67.54l8.216 50.596 13.772.24-21.988-50.84zm.328-.384l22.128 51.22 6.676-47.128-28.804-4.092zm22.64 50.496l10.74-40.58-4.248-5.392-6.492 45.972zm6.068-46.84l-2.8-12.32-25.304 8.324 28.104 4zm-28.24-4.428l25.44-8.328-8.216-3.612-17.228 11.94zm-.424-.144l17.368-11.988-14.052 5.632-3.316 6.356zm3.32-6.64l13.16-5.348-11.576.384-1.588 4.96zm1.492-5.348l11.76-.384-8.028-3.612-3.732 4zm3.968-4.236l12.84 5.728-7.24-8.472-5.6 2.744zm6.396-2.408l6.86 8.184 1.496-4.524-8.36-3.66zm7.14 8.328l3.408 1.736-1.868-6.356-1.54 4.62zM67.692 20l8.928 3.672a.192.192 0 0 0 .216-.304L73.808 20h-6.12zm9.664 3.852l1.868 6.932 10.568-2.9a.288.288 0 0 0 0-.56l-12.44-3.472z"/></svg>