<svg width="64" height="64" viewBox="0 0 128 128" xmlns="http://www.w3.org/2000/svg"><path d="M64 128C28.652 128 0 99.348 0 64S28.652 0 64 0s64 28.652 64 64-28.652 64-64 64zm-.056-112C37.504 16 16 37.504 16 63.944s21.504 47.936 47.944 47.936 47.936-21.5 47.936-47.936C111.884 37.504 90.38 16 63.944 16zm0 6.528a41.36 41.36 0 0 1 41.412 41.416 41.36 41.36 0 0 1-41.412 41.412 41.36 41.36 0 0 1-41.416-41.412 41.364 41.364 0 0 1 41.416-41.416zM46.132 46.24v35.4h35.62v-35.4h-35.62zm5.8 5.8h24.016v23.8H51.936v-23.8z"/></svg>