<svg width="64" height="64" viewBox="0 0 128 128" xmlns="http://www.w3.org/2000/svg"><path d="M64 128C28.652 128 0 99.348 0 64S28.652 0 64 0s64 28.652 64 64-28.652 64-64 64zm44-63.844C108.18 39.984 88.52 20.164 64.2 20c-24.148-.16-44 19.4-44.2 43.544C19.804 87.92 39.352 107.812 63.692 108c24.32.18 44.12-19.412 44.308-43.844zm-84.816-.14c-.04-22.056 18.168-40.424 39.776-40.792 22.348-.384 41.76 17.3 41.848 40.736.08 22.504-18.32 40.78-40.868 40.732-22.524-.048-40.712-18.2-40.756-40.68zm51.54-19.104c-4.852-2.568-9.72-3.108-14.74-1.92a8.308 8.308 0 0 0-5.88 4.932 12.548 12.548 0 0 0 3.82 15.116c1.16.904 2.492 1.584 3.684 2.448 1.788 1.3 3.704 2.488 5.232 4.048 1.98 2.024 2.38 4.68 1.12 7.2-1.26 2.496-3.824 2.872-6.272 2.484-2.568-.408-5.064-1.272-7.796-1.992l-1.876 5.456c4.28 2.88 11.912 3.776 16.392 1.96 2.928-1.188 5.212-3.136 6.176-6.224 1.62-5.208.92-10.04-3.028-14.024-1.456-1.468-3.292-2.56-4.96-3.82-1.812-1.368-3.76-2.588-5.416-4.128-1.612-1.504-1.532-3.58-.86-5.528.656-1.9 2.404-2.34 4.092-2.176 2.84.28 5.652.88 8.68 1.376.428-1.36 1.012-3.216 1.632-5.208zm-32.32 18.36a5.04 5.04 0 0 0-4.98-5.112 5.18 5.18 0 0 0-5.176 4.976c-.064 2.788 2.332 5.228 5.128 5.216a5.08 5.08 0 0 0 5.032-5.08zM90.776 58.3c-3.08 0-5.2 2.012-5.2 4.94 0 2.8 2.224 5.072 5.004 5.112 2.84.04 5.14-2.3 5.104-5.188-.04-2.808-2.116-4.868-4.908-4.864z"/></svg>