<svg width="64" height="64" viewBox="0 0 128 128" xmlns="http://www.w3.org/2000/svg"><path d="M64 128C28.652 128 0 99.348 0 64S28.652 0 64 0s64 28.652 64 64-28.652 64-64 64zM39.48 32.916c-.772-.392-10.56 7.832-10.56 13.884-.016 8.272 11.416 27.008 13.344 34.256 1.656 6.216-2.812 13.676-1.584 14.016 1.12.732 11.788-10.248 12.204-14.928.536-7.456-12.456-29.188-13.492-34.8-1.2-6.552.952-12.28.088-12.428zm24.436-8.56c-.984-.496-13.472 9.984-13.472 17.708-.012 10.548 14.568 34.44 17.02 43.68 2.112 7.924-3.58 17.44-2.024 17.864 1.44.928 15.032-13.06 15.568-19.036.688-9.5-15.888-37.212-17.204-44.38-1.532-8.332 1.208-15.648.112-15.832zm25.22 8.56c-.764-.392-10.56 7.832-10.56 13.884-.016 8.272 11.42 27.008 13.344 34.256 1.656 6.216-2.808 13.676-1.584 14.016 1.128.732 11.8-10.248 12.208-14.928.532-7.456-12.456-29.188-13.496-34.8-1.2-6.552.952-12.28.088-12.428z"/></svg>