<svg width="64" height="64" viewBox="0 0 128 128" xmlns="http://www.w3.org/2000/svg"><path d="M64 128C28.652 128 0 99.348 0 64S28.652 0 64 0s64 28.652 64 64-28.652 64-64 64zm26.724-98.528L46.776 54.468 25.832 42.56l-2.16 4.292 23.104 13.3 47.728-27.248-3.78-3.432zM81.116 24l-34.34 19.632-15.224-8.688-3.128 3.752 18.352 10.408 39.412-22.528L81.12 24zm16.736 12.444l-51.076 29.18-24.832-14.16-1.188 4.72 26.02 14.804 53.88-30.788-2.804-3.756zm7.772 13.84l-2.376-6.008L46.776 76.46 20 61.332v2.896c0 5.86 1.172 11.66 3.456 17.06a42.272 42.272 0 0 0 9.392 13.944 45.364 45.364 0 0 0 13.928 9.228A42.915 42.915 0 0 0 63.948 108c5.904 0 11.624-1.18 17.168-3.54a43.4 43.4 0 0 0 14.036-9.228 44.568 44.568 0 0 0 9.392-13.944l1.08-2.896A43.005 43.005 0 0 0 108 64.232c0-4.868-.792-9.512-2.376-13.948z"/></svg>