<svg width="64" height="64" viewBox="0 0 128 128" xmlns="http://www.w3.org/2000/svg"><path d="M64 128C28.652 128 0 99.348 0 64S28.652 0 64 0s64 28.652 64 64-28.652 64-64 64zm24.756-71.968a23.812 23.812 0 0 0-22.76-1.356l-.012-.016a10.912 10.912 0 0 1-12.212-2.24L39.16 37.812l-.012-.012a4.956 4.956 0 0 1-1.228-3.872h-.012a5 5 0 1 0-3.988 3.988l.004.004c1.372-.152 2.808.228 3.9 1.204l.012.012 14.676 14.68c.12.12.216.256.328.38a10.931 10.931 0 0 1 1.816 11.796l.012.012a23.828 23.828 0 0 0 4.66 26.928 24.36 24.36 0 0 0 14.888 6.996c1.4.12 21.404.052 21.404.052 1.084 0 2.2-.536 2.968-1.304.768-.764 1.408-1.984 1.408-3.072V76.228c0-.964-.208-2.352-.224-2.552-.48-5.36-2.76-10.24-6.856-14.332a23.76 23.76 0 0 0-4.164-3.312zm1.28 16.22c.56 2.764.592 3.98.592 4.16v9.82c0 1.084-.484 2.36-1.252 3.12-.768.772-2.04 1.252-3.124 1.252H76.72c-.184 0-2.42-.024-4.48-.592a14.412 14.412 0 0 1-6.28-24.032 14.44 14.44 0 0 1 20.368-.004c1.808 1.804 3.232 3.936 3.708 6.28z"/></svg>