<svg width="64" height="64" viewBox="0 0 128 128" xmlns="http://www.w3.org/2000/svg"><path d="M64 128C28.652 128 0 99.348 0 64S28.652 0 64 0s64 28.652 64 64-28.652 64-64 64zm0-112c-26.508 0-48 21.492-48 48s21.492 48 48 48 48-21.492 48-48a48 48 0 0 0-48-48zm16.704 66.108h-1.952v10.928h-6.56V82.108h-9.988v-4.06h10.148v-7.336a25.756 25.756 0 0 1-17.328 2.808c-3.28-.78-6.556-2.572-8.272-5.54a18.348 18.348 0 0 1-2.344-9.52V41.132h6.636v17.952c.156 3.9 2.652 7.804 6.48 8.976a19.964 19.964 0 0 0 14.748-2.344c0-5.464-.08-13.656 0-24.584h6.712v36.92h1.72v4.056z"/></svg>