<svg width="64" height="64" viewBox="0 0 128 128" xmlns="http://www.w3.org/2000/svg"><path d="M64 0c35.348 0 64 28.652 64 64s-28.652 64-64 64S0 99.348 0 64 28.652 0 64 0zm17.432 27.828c-.324-.16-.568-.14-.86.072-2.656 1.892-5.204 3.908-7.396 6.336-1.5 1.656-2.792 3.452-3.688 5.508-.6 1.368-.98 2.788-1.088 4.272a15.2 15.2 0 00.952 6.352c.76 2.108 1.808 4.076 2.932 6.008 1.324 2.272 2.76 4.48 4.024 6.792 1.056 1.92 1.996 3.896 2.596 6.012.544 1.92.764 3.872.548 5.852a15.344 15.344 0 01-2.064 6.048c-1.344 2.32-3.072 4.332-5.02 6.176-1.976 1.868-4.136 3.504-6.4 5-2.92 1.924-5.992 3.572-9.152 5.06a102.92 102.92 0 01-8.24 3.424c-.136.048-.316.052-.388.224.08.16.248.18.392.24a40.976 40.976 0 0022.032 2.16 40.608 40.608 0 0020.56-10.232 40.1 40.1 0 0011.092-17.7c1.084-3.54 1.62-7.16 1.728-10.852a38.12 38.12 0 00-.132-3.784 39.544 39.544 0 00-7.892-20.928 40.056 40.056 0 00-6.636-6.932 42.092 42.092 0 00-7.9-5.108zm-16.856-3.8a37.84 37.84 0 00-6.88.384 37.7 37.7 0 00-10.92 3.296 39.152 39.152 0 00-13.484 10.516 39.98 39.98 0 00-7.26 13.148 40.78 40.78 0 00-2.028 13.12c-.032 1.32.088 2.96.28 4.592A40.688 40.688 0 0030.58 86.44a39.896 39.896 0 007.468 8.52 39.296 39.296 0 007.78 5.208c.292.148.516.16.792-.044 1.916-1.412 3.772-2.888 5.48-4.56 1.848-1.82 3.508-3.788 4.72-6.12 1.016-1.96 1.6-4.044 1.648-6.272a15.44 15.44 0 00-.768-4.936c-.72-2.296-1.808-4.42-2.976-6.5-1.28-2.288-2.68-4.504-3.912-6.824-.976-1.84-1.86-3.716-2.448-5.72-.8-2.72-.972-5.46-.268-8.228.552-2.188 1.56-4.148 2.84-5.972 1.9-2.712 4.24-4.976 6.8-7.012a60.372 60.372 0 019.432-6.048 89.72 89.72 0 019.188-4.176l1.44-.56c.072-.032.164-.064.16-.168-.012-.08-.088-.108-.152-.136-.06-.032-.124-.056-.188-.084a38.48 38.48 0 00-13.04-2.78z"/></svg>