<svg width="64" height="64" viewBox="0 0 128 128" xmlns="http://www.w3.org/2000/svg"><path d="M64 128C28.652 128 0 99.348 0 64S28.652 0 64 0s64 28.652 64 64-28.652 64-64 64zm32.108-76.788a21.536 21.536 0 0 0-6.68-2.256L69.168 94h7.692l19.248-42.788zm-33.68-25.136c-11.412.836-20.432 10.612-20.432 22.592C29.848 48.668 20 58.808 20 71.332c0 9.144 5.264 16.996 12.816 20.58l29.612-65.836zm23.576 22.592c0-4.24-1.148-8.196-3.12-11.588L57.28 94h8.332l20.396-45.332zm7.576 43.928C102 89.4 108 81.096 108 71.344c0-2.732-.492-5.34-1.356-7.772L93.58 92.596zm5.768-39.256L81.06 94h4.944c.712 0 1.44-.04 2.144-.112l15.944-35.432a22.288 22.288 0 0 0-4.744-5.12zM64.08 26L34.172 92.492A21.232 21.232 0 0 0 41.996 94h1.12L72.84 27.924A21.196 21.196 0 0 0 64.08 26zm17.068 8.472a22.384 22.384 0 0 0-6.456-5.612L45.384 94h8.984l26.78-59.528z"/></svg>