<svg width="64" height="64" viewBox="0 0 128 128" xmlns="http://www.w3.org/2000/svg"><path d="M64 128C28.652 128 0 99.348 0 64S28.652 0 64 0s64 28.652 64 64-28.652 64-64 64zM47.684 88l-6.052 6.304C45.824 99.636 52.8 104 59.324 104c15.96 0 23.74-10.608 23.74-22.54 0-11.352-5.824-17.66-17.272-22.708-9.336-4.128-13.452-7.68-13.452-14.912 0-5.276 3.52-11.584 12.752-11.584 6.128 0 8.78 3.46 10.988 4.836l5.588-5.82C79.34 28.364 72.32 24 65.392 24c-13.152 0-21.888 8.944-21.888 20.988 0 10.896 6.828 17.436 17.872 21.908 9.136 4.016 12.752 8.144 12.752 15.368 0 7.8-5.22 13.192-14.16 13.192-6.024 0-11.816-6-12.28-7.456zm7.448-41.212s23.276-3.396 22.812 16.484c0 0 2.792.972 5.584 6.304 0 0 6.52-34.424-28.86-28.604 0 0-.932 2.908.464 5.816zM70.96 78.304s-25.596 5.332-24.84-17.732c0 0-2.652-1.324-4.788-6.976.008 0-10.872 36.828 29.412 31.636 0 0 1.62-3.532.216-6.928z"/></svg>