<svg width="64" height="64" viewBox="0 0 128 128" xmlns="http://www.w3.org/2000/svg"><path d="M64 128C28.652 128 0 99.348 0 64S28.652 0 64 0s64 28.652 64 64-28.652 64-64 64zM31.576 73.24v11.628-11.632H28v17.76h3.576v-6.128c1.012 1.652 2.224 3.076 3.656 4.216 2.38 1.892 5.272 2.916 8.64 2.916 4.868 0 8.776-2.016 11.452-5.472 2.176-2.812 3.384-6.452 3.384-9.64 0-4.18-1.668-7.44-4.816-10.036-2.304-1.9-4.748-3.136-9.68-5.18l-.812-.336c-4.468-1.852-6.488-2.844-8.284-4.264-2.176-1.72-3.24-3.68-3.24-6.32 0-3.544 1.228-6.428 3.388-8.44a11 11 0 0 1 7.492-2.876c4.184 0 7.144 1.784 9.112 5.052 1.668 2.768 2.52 6.508 2.52 10.2h3.576V40.224h4.4v50.988h10.58V84.98c.996 1.6 2.18 2.988 3.58 4.104 2.38 1.892 5.272 2.916 8.64 2.916 4.868 0 8.776-2.016 11.452-5.472 2.176-2.812 3.384-6.452 3.384-9.64 0-4.18-1.668-7.44-4.816-10.036-2.304-1.9-4.748-3.136-9.68-5.18a2728.68 2728.68 0 0 0-.812-.336c-4.468-1.852-6.488-2.844-8.284-4.264-2.176-1.72-3.24-3.68-3.24-6.32 0-3.544 1.228-6.428 3.388-8.44a11 11 0 0 1 7.492-2.876c4.184 0 7.144 1.784 9.112 5.052 1.668 2.768 2.52 6.508 2.52 10.2h3.576v-17.68h-3.58v4.864C93.08 38.132 89.168 36 84.048 36c-3.72 0-7.32 1.36-9.98 3.84-2.872 2.672-4.48 6.452-4.48 10.912 0 3.72 1.58 6.632 4.548 8.976 2.148 1.696 4.36 2.784 9.14 4.764l.812.336c4.6 1.908 6.828 3.032 8.764 4.632 2.38 1.964 3.572 4.284 3.572 7.432 0 2.456-.968 5.38-2.68 7.584-2.02 2.608-4.88 4.088-8.576 4.088-4.724 0-7.984-2.6-10.116-7.136A23.896 23.896 0 0 1 73.304 76 22.74 22.74 0 0 1 73 74.08a16.8 16.8 0 0 1-.056-.84h-3.576v14.536h-3.432V36.788H54.384v5.08C51.784 38.132 47.88 36 42.76 36c-3.72 0-7.32 1.36-9.98 3.84-2.872 2.672-4.48 6.452-4.48 10.912 0 3.72 1.58 6.632 4.548 8.976 2.148 1.696 4.36 2.784 9.14 4.764l.812.336c4.6 1.908 6.828 3.032 8.764 4.632 2.38 1.964 3.572 4.284 3.572 7.432 0 2.456-.968 5.38-2.68 7.584-2.02 2.608-4.88 4.088-8.576 4.088-4.724 0-7.984-2.592-10.128-7.14-.8-1.696-1.384-3.56-1.772-5.436a24.78 24.78 0 0 1-.32-1.932c-.052-.4-.08-.74-.08-.82z"/></svg>