<svg width="64" height="64" viewBox="0 0 128 128" xmlns="http://www.w3.org/2000/svg"><path d="M64 128C28.652 128 0 99.348 0 64S28.652 0 64 0s64 28.652 64 64-28.652 64-64 64zm3.652-43.064c22.52-1.748 40.196-18.54 40.196-18.54s-17.18-16.352-39.24-18.456L66.92 45l-3-5-1.764 2.936-2.92 5C37.176 50.088 20 66.36 20 66.4c0 0 17.68 16.792 40.196 18.54l3.728 6.944 3.728-6.944zm-43.924-18.54S39.944 55.324 56.62 52.504l-2.648 4.564 2.072 4.048 5.612-9.208c.768-.04 1.536-.08 2.268-.08.728 0 1.496.04 2.228.08l5.496 9.208 2.112-4.244-2.536-4.408c16.68 2.78 32.896 13.616 32.896 13.892 0 .32-17.024 11.672-34.124 14.092l8.336-15.64-2.264-3.928-4.344 8.096-5.96 11.868c-.648.04-1.264.04-1.92.04-.652 0-1.304 0-1.96-.04L53.78 64.888l.04-.04-2.08-3.888-2.264 3.928 8.336 15.6c-17.1-2.46-34.12-14.092-34.084-14.092z"/></svg>