<svg width="64" height="64" viewBox="0 0 128 128" xmlns="http://www.w3.org/2000/svg"><path d="M64 128C28.652 128 0 99.348 0 64S28.652 0 64 0s64 28.652 64 64-28.652 64-64 64zm0-20c24.272-.048 44-19.772 44-44S88.272 20.072 64 20c-24.272.072-44 19.772-44 44s19.728 43.928 44 44zm39.02-37a40.012 40.012 0 0 1-3.5 10.568c.148-.656.24-1.312.24-2.012 0-2.4-.968-4.58-2.52-6.2a4.44 4.44 0 0 0 5.78-2.352zm-4.08.44h-.004zm.992-24.108a38.72 38.72 0 0 1 3.696 16.692c0 1.648-.12 3.248-.32 4.848a4.412 4.412 0 0 0-4.392-4.048c-.852 0-1.628.268-2.284.656a18.456 18.456 0 0 0 3.3-18.148zm-2.256 6.176a15.316 15.316 0 0 1-15.308 15.264A15.3 15.3 0 0 1 67.06 53.508a15.3 15.3 0 0 1 15.308-15.264 15.3 15.3 0 0 1 15.308 15.264zM81.76 79.56c0 .096.024.192 0 .34a18.6 18.6 0 0 0-6.416-9.136 18.608 18.608 0 0 0 11.2.872 8.956 8.956 0 0 0-4.784 7.92zm.876 5.912a15.4 15.4 0 0 0-.2-2.424 9.032 9.032 0 0 0 4.184 4.48 3.08 3.08 0 0 0-.68-.068c-1.628 0-3.112.92-3.84 2.372a18.48 18.48 0 0 0 .536-4.36zm8.112-.268h.004c-3.112 0-5.664-2.52-5.664-5.644 0-3.1 2.528-5.644 5.66-5.644s5.688 2.52 5.688 5.64a5.68 5.68 0 0 1-5.688 5.648zm3.74-15.94h.004c0 .928.296 1.84.848 2.592a8.936 8.936 0 0 0-4.592-1.26c-.412 0-.8.048-1.192.096a19.28 19.28 0 0 0 5.492-3.56 4.508 4.508 0 0 0-.56 2.132zm-30.492-2.4c-2.476 0-4.832.508-6.996 1.356a18.528 18.528 0 0 0 7-11.68 18.484 18.484 0 0 0 6.992 11.68 18.648 18.648 0 0 0-6.996-1.36zm0-24.692H64a8.92 8.92 0 0 0 4.788-1.38A18.64 18.64 0 0 0 64 50.428a18.372 18.372 0 0 0-4.788-9.64 8.92 8.92 0 0 0 4.784 1.38zm9.088-9.06c0-.096-.02-.196 0-.292a4.452 4.452 0 0 0 4.132 2.812c.072 0 .144-.024.24-.024a18.52 18.52 0 0 0-6.316 3.1 9.04 9.04 0 0 0 1.944-5.596zm6.9-5.352a40.108 40.108 0 0 1 16.592 13.712 18.664 18.664 0 0 0-17.588-6.252 4.405 4.405 0 0 0 2.648-4.044c0-1.384-.656-2.592-1.652-3.416zm-2.792 1.236zm-10.448-4.532c3.792.288 7.46 1.064 10.86 2.32a2.684 2.684 0 0 0-.436-.044c-2.332 0-4.228 1.816-4.4 4.096a9.052 9.052 0 0 0-6.024-6.372zm-8.48 8.648a5.736 5.736 0 0 1 11.468 0 5.736 5.736 0 0 1-11.464 0zm-7.892-6.324a40.352 40.352 0 0 1 10.86-2.324 9.052 9.052 0 0 0-6.032 6.368 4.4 4.4 0 0 0-4.4-4.096 2.684 2.684 0 0 0-.432.048zm4.54 6.324c0 2.036.692 4.008 1.968 5.6a18.74 18.74 0 0 0-6.316-3.104c.072 0 .144.024.24.024 1.872 0 3.48-1.16 4.132-2.812a1.176 1.176 0 0 0-.024.292zm-6.316-1.916a2.216 2.216 0 0 1 4.424 0 2.212 2.212 0 0 1-4.424 0zm-17.176 10.3A39.792 39.792 0 0 1 48.012 27.78a4.392 4.392 0 0 0 1 7.464 18.588 18.588 0 0 0-17.588 6.252zm-1.096 12.016c0-8.408 6.88-15.24 15.308-15.264A15.3 15.3 0 0 1 60.94 53.512a15.3 15.3 0 0 1-15.308 15.264 15.3 15.3 0 0 1-15.308-15.264zM46.24 79.56a9 9 0 0 0-4.812-7.948 18.628 18.628 0 0 0 11.2-.872 18.712 18.712 0 0 0-6.412 9.136c0-.096.024-.22.024-.32zm-12.732-10.3c0-.748-.2-1.484-.584-2.132a18.235 18.235 0 0 0 5.492 3.564 6.4 6.4 0 0 0-1.192-.096 8.936 8.936 0 0 0-4.592 1.256c.572-.74.88-1.652.876-2.592zm-1.944 10.3a5.64 5.64 0 0 1 5.66-5.648c3.112 0 5.664 2.52 5.664 5.648a5.66 5.66 0 0 1-11.32 0zm9.792 7.972a8.968 8.968 0 0 0 4.156-4.508 20.032 20.032 0 0 0-.172 2.448c.004 1.468.184 2.932.536 4.36a4.3 4.3 0 0 0-3.84-2.376c-.24 0-.46.052-.68.076zm-16.692-18.68a39.16 39.16 0 0 1 3.376-21.54 18.456 18.456 0 0 0 3.304 18.148 4.396 4.396 0 0 0-2.28-.656c-2.312 0-4.204 1.792-4.4 4.044zm4.4-1.796zM28.24 79.56c0 .7.092 1.356.24 2.012a39.228 39.228 0 0 1-3.496-10.564 4.464 4.464 0 0 0 5.78 2.348 8.864 8.864 0 0 0-2.524 6.2zm11.368 8.648a4.313 4.313 0 0 0-1.896 3.56c0 1.044.392 1.964 1 2.72a40.02 40.02 0 0 1-7.584-8.36 8.98 8.98 0 0 0 8.48 2.08zm.34 3.56a2.088 2.088 0 1 1 2.092 2.084 2.088 2.088 0 0 1-2.092-2.08zm18.684 11.512a39.648 39.648 0 0 1-18.44-7.632 4.312 4.312 0 0 0 6.196-3.876c0-.148-.048-.268-.048-.388a18.696 18.696 0 0 0 12.292 11.896zm20.652-17.808c0 8.408-6.852 15.24-15.284 15.264a15.292 15.292 0 0 1-15.28-15.264 15.28 15.28 0 0 1 30.56 0zm8.552 10.176a39.876 39.876 0 0 1-18.44 7.632 18.696 18.696 0 0 0 12.292-11.896 2.116 2.116 0 0 0-.048.388 4.293 4.293 0 0 0 2.016 3.656 4.32 4.32 0 0 0 4.18.22zm.22-3.88a2.088 2.088 0 1 1-2.088-2.08c1.152 0 2.088.932 2.088 2.08zm8.816-5.64a40.02 40.02 0 0 1-7.58 8.356 4.28 4.28 0 0 0 1-2.712 4.312 4.312 0 0 0-1.9-3.56 8.972 8.972 0 0 0 8.48-2.084z"/></svg>