<svg width="64" height="64" viewBox="0 0 128 128" xmlns="http://www.w3.org/2000/svg"><path d="M64 128C28.652 128 0 99.348 0 64S28.652 0 64 0s64 28.652 64 64-28.652 64-64 64zM53.2 60.08c9 0 13.26 1.74 22.256 1.74C87.644 61.82 96 56.844 96 46.544c0-10.296-6.96-15.272-17.12-15.272-16.592 0-30.528 12.66-32.336 29.384a36.576 36.576 0 0 1 6.656-.572zm-.656 6.1C40.356 66.18 32 71.16 32 81.456s6.96 15.272 17.12 15.272c16.592 0 30.528-12.66 32.336-29.384a36.576 36.576 0 0 1-6.656.576c-9 0-13.26-1.74-22.256-1.74z"/></svg>