<svg width="64" height="64" viewBox="0 0 128 128" xmlns="http://www.w3.org/2000/svg"><path d="M64 128C28.652 128 0 99.348 0 64S28.652 0 64 0s64 28.652 64 64-28.652 64-64 64zm0-112c-26.508 0-48 21.492-48 48s21.492 48 48 48 48-21.492 48-48a48 48 0 0 0-48-48zm10.972 88.944a42.384 42.384 0 1 1-18.38-82.676 42.388 42.388 0 0 1 18.38 82.676zm.752-75.8c0 2.072 0 4.136.072 6.208a39 39 0 0 0-8.58-2.252c-.12-1.876.416-3.936-.132-5.716a53.252 53.252 0 0 0-6.288-.076c-.104 1.928-.068 3.864 0 5.8a39.456 39.456 0 0 0-8.584 2.296c.056-2.088.08-4.172.052-6.264a36.8 36.8 0 0 0 0 69.752c0-2.048-.02-4.088-.06-6.128a36.452 36.452 0 0 0 8.532 2.196c0 1.876 0 3.752-.112 5.608 2.24.32 4.512.32 6.752 0a105.452 105.452 0 0 1-.16-5.548 40.488 40.488 0 0 0 8.56-2.176 96.748 96.748 0 0 0 0 6.08 36.8 36.8 0 0 0-.044-69.748l-.008-.028zm5.472 55.744c-4.828 4.38-11.692 5.416-18 5.324-5.524 0-11.384-1.5-15.38-5.504-2.12-2.048-3.32-4.784-4.396-7.5 3.864-1 7.852-1.336 11.744-2.168a6.824 6.824 0 0 0 4.552 5.108c3.532 1.104 7.908 1.26 10.852-1.26 2.088-1.732 2.148-5.52-.44-6.82C64.06 68.936 56.5 70 50.764 66.032c-7.9-4.98-8.484-18.188-.752-23.564 5.912-4.148 13.816-4.664 20.672-3 6.2 1.568 10.62 6.824 12.748 12.644-3.816.66-7.628 1.336-11.444 1.98-1.004-6.06-9.488-7.5-13.704-3.968-2.4 1.996-1.784 6.248 1.216 7.312 6.56 2.72 14.44 1.936 20.252 6.488 6.748 4.576 7.452 15.504 1.444 20.96z"/></svg>