<svg width="64" height="64" viewBox="0 0 128 128" xmlns="http://www.w3.org/2000/svg"><path d="M64 128C28.652 128 0 99.348 0 64S28.652 0 64 0s64 28.652 64 64-28.652 64-64 64zm-1.14-74.268c-.976 3.74-3.18 5.24-3.916 5.736 0 1.248 1.716 8.484 5.14 8.484 2.448 0 4.652-2.244 5.384-8.48-1.224-1-2.444-3.244-3.18-5.74-.98.248-2.2.5-3.428 0zm-3.672 21.956c.492 1.996 1.96 6.984 5.14 6.984 2.204 0 4.652-2.744 5.14-6.736-1.712-1-2.444-3.24-3.18-6.736-.98.248-2.448.5-3.428 0-1.224 3.24-2.2 5.24-3.672 6.488zm-19.58 7.732c1.224 2 3.672 5.24 6.364 3.992.736-.248.98-2.244.736-3.992-1.96-1.248-3.184-3.492-4.652-6.984-.488.248-1.224.248-1.96 0 .492 3.74.492 5.736-.488 6.984zm-10.28-6.736c.98 5.488 1.224 5.988.98 6.736 1.712 3.244 3.428 4.74 5.628 4.492.736 0 .248-1.996-.732-3.992 0 0-2.936-2.496-4.652-6.984-.488-.252-.732-.252-1.224-.252zm-6.608 0c0-.748 1.716 3.992 3.92 6.24.976.748 1.956 1.496 2.936 3.24.24.5-4.408 1-6.856-9.48zm29.86 6.736c1.224 4.492 4.652 4.492 5.876 3.992 1.712-.248 2.448-1.744 2.692-4.488-2.2-1.5-2.936-4.744-3.428-6.988-.732.248-1.96.248-2.936 0-.244 3.492-.488 6.24-2.2 7.484zm-21.048-7.732c.98 2.492 3.92 7.236 6.12 7.236.98 0 1.468-1.748.98-6.988-1.472-1-2.696-2.992-3.428-6.24-.488.252-1.468.252-2.2 0-.248 2.748-.492 4.744-1.472 5.992zm-7.588 0c.736 1.996 2.448 6.24 4.652 6.984.98.5.98-1-.244-6.736 0 0-1.716-1.496-2.94-6.24h-.972a112.672 112.672 0 0 0-.492 5.992zm19.58 0c.248 1 2.692 5.988 5.632 6.736 3.424.748 3.672-3.744 3.672-6.488-1.716-1-2.94-2.992-3.672-6.24-.736.252-1.96.5-3.184 0-.488 3.248-1.224 4.992-2.448 5.992zm-2.2-.748c1.468 0 2.692-2.248 3.18-6.488-1.224-1.248-2.692-3.492-2.936-8.732-.736.248-1.468.248-1.96 0-.732 4.74-1.468 7.484-2.936 8.98 0 1.496 1.712 6.24 4.652 6.24zM26.148 68.7c1.224 4.992 2.448 6.24 3.428 6.24 2.2 0 1.712-3.744 1.96-6.488-.74-1-2.208-3.492-2.208-8.732h-1.224c-1.468 7.732-1.468 7.984-1.96 8.98zm-4.896-8.732c-.488-.248-2.936 10.228.736 14.72.488.5.488-5.736.488-5.736-.98-2.248-.488-8.732-1.224-8.984zM50.624 68.7c.244.748 1.712 6.24 5.628 6.24 2.448 0 4.408-2.748 4.896-6.74-1.96-1.992-2.936-4.74-3.428-8.48-.732.248-1.96.248-2.936 0-1.468 4.988-2.448 7.732-4.16 8.98zm-20.072-9.728c.244 4.488 1.224 8.98 3.184 8.98 2.2 0 3.18-4.988 3.916-9.232-.736-.496-1.716-1.996-1.716-5.24a1.468 1.468 0 0 1-1.956 0c-.244.5-1.468 4.744-3.428 5.492zm-6.12 9.228c1.228 0 2.448-9.228 2.448-9.228-.488-.748-.976-2.248-.732-5.492-.244.252-.736 0-.98 0a23.36 23.36 0 0 1-2.448 5.492c-.488 2.744 0 9.228 1.716 9.228zm18.604-9.228c.244 2.992 1.712 8.98 4.652 8.98 3.18 0 4.648-4.492 5.384-8.98-1.716-1-2.448-2.744-2.94-5.492-1.224.252-2.2.252-3.18-.248-.98 2.496-2.936 5.24-3.916 5.74zm2.2-6.736c-.732-1-1.712-2.748-1.22-6.488H42.3c-1.224 2.496-2.692 5.488-4.648 6.984 0 .5.244 5.74 2.692 5.74 1.96 0 3.428-2.244 4.896-6.24zm-11.992-6.24h-.976c0 .252-3.184 5.988-4.652 6.988-.488 2.492-.488 5.488.98 5.736 1.468 0 2.448-1.248 4.404-6.24-.488-1.24-.98-2.992.244-6.48zm-7.096.252c-3.672 2.492-5.628 11.476-4.652 11.724.244.252 3.184-3.992 2.94-6.488-.248-1.744 2.444-5.488 1.712-5.24zm34.756 5.988c-.98-1-2.2-2.748-2.692-6.488-.736.248-1.96.248-2.692 0-.736 2.244-1.96 5.24-4.408 6.984.492 2.496 1.716 5.492 3.92 5.74 4.16 0 5.136-3.492 5.872-6.24zm-33.288-6.74c-2.448 3.744-2.448 6.988-1.468 6.988 1.224 0 4.648-6.24 5.384-7.484-.244-1.248 2.448-3.744 1.468-3.992-1.712 0-4.896 4.24-5.384 4.488zm60.212 30.94c-.736.248-1.472.248-1.96 0-.98 3.24-2.448 5.736-4.652 6.984-.24 1.748-.24 3.744.736 3.992 2.692 1 5.384-1.996 6.364-3.992-.736-1.248-.736-3.24-.488-6.984zm9.788 0c-1.712 4.492-4.648 6.984-4.648 6.984-1.224 2.248-1.716 3.992-.736 3.992 2.2 0 3.916-1.248 5.628-4.488-.24-.752 0-1.248.98-6.74-.488.5-.98.5-1.224.252zm3.92 6.488c2.2-2.248 3.668-6.988 4.16-6.24-2.448 10.48-7.1 9.98-6.856 9.48.736-1.744 1.712-2.244 2.692-3.24zm-28.152-6.488a5.886 5.886 0 0 1-2.936 0c-.488 2.244-1.468 5.24-3.424 6.984.488 2.496.976 3.992 2.692 4.492 1.224.248 4.648.248 5.872-3.992-1.468-1.748-2.2-4.492-2.2-7.484zm22.028-6.988a2.248 2.248 0 0 1-2.2 0c-.736 2.744-1.96 5.24-3.428 6.24-.488 5.24 0 6.984.98 6.984 1.96 0 5.14-4.74 6.12-7.236-1.224-1-1.472-2.992-1.472-5.988zm8.812.5h-.976c-1.224 4.492-2.94 6.24-2.94 6.24-1.224 5.488-1.468 6.984-.24 6.736 1.956-.752 3.668-4.992 4.648-6.988-.492-.748-.492-3.992-.492-5.988zm-21.784-.5c-1.224.5-2.444.252-3.18 0-.736 2.996-1.96 5.24-3.672 6.24 0 2.492.244 7.236 3.672 6.484 2.692-.496 5.384-5.488 5.628-6.736-1.468-.748-1.96-2.492-2.448-5.988zm9.304-.748c-1.224-1.496-1.96-4.488-2.94-8.98a2.656 2.656 0 0 1-1.96 0c-.24 5.24-1.708 7.732-2.932 8.732.488 3.992 1.712 6.488 3.18 6.488 2.448 0 4.404-4.744 4.652-6.24zm8.564-8.98c-.488 0-.732.248-1.224 0 0 5.24-1.224 7.732-2.2 8.732.24 2.496-.248 6.488 1.96 6.488.976 0 2.2-1.5 3.424-6.24-.492-1-.736-1.248-1.96-8.98zm5.14 8.98s0 6.24.492 5.74c3.668-3.992 1.468-14.972.732-14.72-.488.5 0 6.984-1.224 8.98zM74.12 59.72c-1.224.248-2.448.248-2.936 0-.492 3.74-1.716 6.488-3.428 8.48.736 3.744 2.2 6.988 4.896 6.74 3.428 0 5.384-5.492 5.628-6.24-2.2-1.248-3.424-3.992-4.16-8.98zm20.316-6.24a2.34 2.34 0 0 1-2.204.252c0 2.992-.98 4.74-1.712 5.488.732 4.492 1.712 9.232 3.916 9.232 1.96 0 3.18-4.74 3.18-8.984-1.712-1.244-3.18-5.488-3.18-5.988zm11.012 5.492s-1.224-2.248-2.2-5.492a.732.732 0 0 1-.98 0c.244 2.748-.244 4.492-.736 5.24 0 0 1.224 9.232 2.448 9.232 1.224.248 1.712-6.24 1.468-8.98zM81.464 53.48c-.98.5-2.204.5-3.184.252-.244 2.496-1.224 4.492-2.692 5.488.736 4.74 1.712 9.232 5.384 8.98 2.692 0 4.408-5.984 4.652-8.98-1.468-.748-3.184-3.492-4.16-5.74zm6.12 4.744c2.444 0 2.688-4.992 2.688-5.74-1.712-1.248-3.18-3.992-4.648-6.736-.488.248-.98.248-1.712 0 .488 3.492-.248 5.488-1.224 6.488 1.712 3.992 3.18 6.236 4.892 5.988zm7.828-5.988c1.716 4.988 2.696 6.236 3.92 6.236 1.468-.248 1.468-2.996.976-5.74-1.224-.748-4.648-6.736-4.648-6.984h-.98c1.468 3.74.98 5.488.732 6.488zm8.32-.752c-.24 2.248 2.452 6.74 2.696 6.488.736-.248-.736-9.232-4.652-11.724-.24-.252 2.204 3.492 1.96 5.24zm-31.08 6.74c2.448-.252 3.672-2.748 3.916-5.74-1.96-1.496-3.184-4.492-3.92-6.736-.732.248-1.956.248-2.688 0-.244 3.492-1.468 5.736-2.692 6.488.732 2.744 1.712 6.236 5.384 5.988zm22.76-17.216c-.976 0 1.716 2.744 1.472 3.992.732 1.248 3.916 7.48 5.384 7.48.98 0 .98-2.992-1.716-6.984-.24-.248-3.916-4.488-5.14-4.488zm-54.336.748s.492-1.248-.24-1.496c-1.228 0-4.652 4.74-6.12 5.488-.248.5-2.204 6.24.24 6.736 2.204.248 4.652-3.992 6.12-6.988-.732-.748-.488-2.24 0-3.74zm11.504-.248c0-.252 0-1.5-1.224-1.5-1.468 0-3.424 4.74-5.628 5.488-.488 2.748 0 6.488 2.2 6.74 3.184.248 5.144-3.744 6.12-6.74-1.22-.748-1.468-2.492-1.468-3.988zm34.76 3.988c1.464 2.748 3.668 7.24 6.116 6.988 2.448-.5.488-6.24.244-6.736-1.468-.748-4.896-5.488-6.12-5.488-.732 0-.24 1.248-.24 1.496.488 1.496.488 2.992 0 3.74zm-12.976 0c.98 2.748 2.692 7.24 6.12 6.74 2.448-.252 2.936-3.496 2.2-6.74-1.956-.748-4.4-5.736-5.628-5.488-1.224 0-1.224 1.248-1.224 1.5-.24 1.496-.488 3.24-1.468 3.988zm-10.28-5.488c-2.692 0-1.712 4.492-4.648 5.74.24 2.244.976 6.736 4.404 6.736 3.92 0 4.652-5.488 4.652-6.736-1.96-1-1.96-5.74-4.408-5.74z"/></svg>