<svg width="64" height="64" viewBox="0 0 128 128" xmlns="http://www.w3.org/2000/svg"><path d="M64 128C28.652 128 0 99.348 0 64S28.652 0 64 0s64 28.652 64 64-28.652 64-64 64zm2.264-108c.724 5.888 1.04 11.864 1.54 17.752.288 1.78.44 3.584.452 5.388L83.564 58.4C76.86 68 69.976 77.556 63.276 87.2c.68 7.7 1.268 15.4 2.04 23.096l46.28-65.572h-20.56c-8.24-8.24-16.44-16.528-24.728-24.724h-.044zm-50.22 65.84H16v.184c6.88-.136 13.768 0 20.648-.092l24.588 24.636h.092c-.768-7.744-1.36-15.536-2.04-23.232-5.116-5.028-10.14-10.144-15.168-15.168 6.748-9.6 13.54-19.112 20.288-28.76l-1.948-23.18C46.972 42.1 31.58 64.016 16.044 85.84z"/></svg>