<svg width="64" height="64" viewBox="0 0 128 128" xmlns="http://www.w3.org/2000/svg"><path d="M64 128C28.652 128 0 99.348 0 64S28.652 0 64 0s64 28.652 64 64-28.652 64-64 64zm20.276-52.44c.056-5.732-2.428-9.864-7.38-12.336-1.848-.92-3.824-1.576-5.748-2.336-3.16-1.248-6.52-2.112-9.432-3.808-4.576-2.664-4.552-8.992-.248-12.104 3.056-2.212 6.528-2.264 10.048-2.116 4.02.172 7.828 1.332 11.62 2.608 2.216.744 3.376.052 3.928-2.276.296-1.236.52-2.492.752-3.744.388-2.092.308-2.32-1.704-2.944a115.468 115.468 0 0 0-8.096-2.264c-1.432-.332-1.872-1-1.62-2.44.22-1.252.28-2.532.4-3.8.272-2.896-.04-3.32-2.816-3.892-1.652-.336-2.232.072-2.472 1.864-.22 1.616-.36 3.24-.54 4.86-.288 2.52-.392 2.564-2.828 2.492-1.068-.032-1.388-.5-1.272-1.52.144-1.216.244-2.432.36-3.652.296-3.124-.064-3.6-3.072-4.092-1.416-.232-2.008.192-2.192 1.708-.24 1.972-.556 3.952-.58 5.932-.028 1.828-.764 2.684-2.392 3.3-6.108 2.312-10.224 6.672-11.492 13.396-1.124 5.96-.232 11.548 4.872 15.324 2.276 1.68 5.012 2.76 7.644 3.828 2.96 1.204 6.12 1.908 9.056 3.168 3.572 1.532 4.68 4.612 3.444 8.42-.836 2.56-2.5 4.352-4.764 5.572-3.428 1.844-7.144 2.092-10.9 2-4.16-.1-8.164-1.04-12.06-2.576-2.2-.864-3.352-.144-3.848 2.24-.288 1.392-.52 2.8-.856 4.184-.264 1.084.056 1.812 1.032 2.2 1.6.632 3.196 1.32 4.84 1.816 3.7 1.116 3.712 1.072 3.208 5.084-.4 3.236-.176 3.572 2.88 4.232 1.432.312 2.052-.056 2.3-1.544.24-1.452.38-2.928.52-4.4.096-1.024.532-1.54 1.576-1.592 2.32-.116 2.668.232 2.388 2.664l-.096.76c-.376 2.96-.072 3.416 2.752 4.088 1.64.392 2.252-.016 2.504-1.8a64.02 64.02 0 0 0 .48-4.56c.092-1.212.696-1.76 1.804-2.04 1.856-.464 3.72-.96 5.512-1.64 7.64-2.908 12.436-9.968 12.488-18.26z"/></svg>