<svg width="64" height="64" viewBox="0 0 128 128" xmlns="http://www.w3.org/2000/svg"><path d="M64 128C28.652 128 0 99.348 0 64S28.652 0 64 0s64 28.652 64 64-28.652 64-64 64zm35.908-52.116A6.492 6.492 0 0 0 99 75.46V52.988c.356-.12.712-.312 1.068-.464 3.68-2.02 5.024-6.6 2.968-10.208a7.744 7.744 0 0 0-11.28-2.368L71.58 28.5c.04-.352.08-.66.08-1.012 0-4.152-3.44-7.488-7.64-7.488-4.192 0-7.712 3.416-7.712 7.528 0 .352.04.66.08 1.008L36.36 39.908a7.772 7.772 0 0 0-7.624-1.032 7.524 7.524 0 0 0-4.68 6c-.344 2.676.804 5.332 3.008 6.948.28.192.556.388.872.58.32.196.668.352 1.028.468v22.432c-3.92 1.552-5.816 5.9-4.236 9.74a7.676 7.676 0 0 0 9.936 4.156c.36-.116.672-.308.992-.464a13.24 13.24 0 0 0 .948-.62l19.824 11.216c-.676 4.072 2.176 7.916 6.328 8.576 4.156.66 8.072-2.136 8.744-6.212.08-.424.08-.812.08-1.24a9.36 9.36 0 0 0-.08-1.088l19.704-11.136c.32.232.636.464.992.66 3.68 2.016 8.348.736 10.404-2.872a7.528 7.528 0 0 0-2.692-10.132zm1.388 9.392a5.928 5.928 0 0 1-7.992 2.06c-2.216-1.28-3.324-3.804-2.732-6.248l-9.26-5.32a10.472 10.472 0 0 1-11.196 2.288c-1.384.428-4.352.7-4.352.7v15.988a5.992 5.992 0 0 1 4.04 7.532c-.988 3.18-4.432 4.928-7.68 3.96-.04 0-.08-.04-.12-.04a4.312 4.312 0 0 1-.748-.312 5.96 5.96 0 0 1-2.732-8.072c.752-1.476 2.1-2.56 3.68-3.064v-16.3a27.7 27.7 0 0 1-3.4-1.28 12.464 12.464 0 0 1-10.132-2.448l-11.04 6.248a5.76 5.76 0 0 1-4.352 6.944c-3.156.74-6.324-1.168-7.08-4.264a5.76 5.76 0 0 1 4.352-6.948c1.896-.464 3.916.08 5.38 1.4l10.328-5.864a11.964 11.964 0 0 1 1.344-15.6l-11.752-6.6a5.864 5.864 0 0 1-8.228-.268 5.66 5.66 0 0 1 .276-8.112 5.86 5.86 0 0 1 8.228.272 5.6 5.6 0 0 1 1.424 5.2l13.02 7.332a12.517 12.517 0 0 1 5.54-1.436c1.82-1.472 6.484-2.984 6.484-2.984V32.576a5.332 5.332 0 0 1-3.64-6.68c.872-2.832 3.92-4.384 6.808-3.528 2.888.852 4.512 3.84 3.64 6.676-.52 1.716-1.892 3.056-3.64 3.568v17.12s8.548 2.092 11.24 5.236l13.844-7.72a5.752 5.752 0 0 1 4.392-6.912c3.168-.696 6.332 1.204 7.044 4.308a5.752 5.752 0 0 1-4.392 6.908 5.972 5.972 0 0 1-5.34-1.436L78.86 57.724c.396.812.752 1.628.988 2.48 4.236 2.836 5.74 8.268 3.48 12.808l9.064 5.16a5.872 5.872 0 0 1 6.884-.736c2.732 1.592 3.68 5.084 2.02 7.84zm-69.36-5.432a2.432 2.432 0 0 0-2.456 2.408c0 1.328 1.1 2.404 2.456 2.404 1.352 0 2.452-1.08 2.452-2.404a2.6 2.6 0 0 0-.32-1.204 2.5 2.5 0 0 0-2.132-1.2v-.004zm34.66-52.352a2.432 2.432 0 0 0-2.456-2.408 2.432 2.432 0 0 0-2.452 2.408c0 1.328 1.1 2.404 2.452 2.404a2.444 2.444 0 0 0 2.456-2.404zm29.912 20.88c1.36 0 2.456-1.08 2.456-2.408a2.432 2.432 0 0 0-2.456-2.408 2.432 2.432 0 0 0-2.452 2.408 2.456 2.456 0 0 0 2.452 2.408zM33.08 43.748a2.44 2.44 0 0 0-3.32.892 2.344 2.344 0 0 0 .908 3.26 2.44 2.44 0 0 0 3.32-.892 2.352 2.352 0 0 0-.908-3.26zm64.416 36.56a2.64 2.64 0 0 0-1.228-.352 2.464 2.464 0 0 0-2.152 1.192 2.368 2.368 0 0 0 0 2.428 2.464 2.464 0 0 0 2.152 1.192 2.556 2.556 0 0 0 2.14-1.2 2.352 2.352 0 0 0-.912-3.264zm-35.808 20.06a2.452 2.452 0 0 0 2.336 2.68c1.236 0 2.3-.864 2.532-2.056a2.4 2.4 0 0 0-2.06-2.696 2.432 2.432 0 0 0-2.768 1.996.136.136 0 0 0-.04.08zm14.088-37.14l-.12-.892a4.752 4.752 0 0 0-.16-.62c0-.08-.04-.156-.04-.232-.08-.232-.16-.504-.236-.74v-.04a10.264 10.264 0 0 0-2.968-4.148l-.04-.04a4.944 4.944 0 0 0-.752-.544l-.04-.04c-.236-.152-.512-.348-.748-.464l-.04-.04a7.436 7.436 0 0 0-.792-.388l-.08-.04a19.92 19.92 0 0 0-.868-.348l-.04-.04c-.32-.076-.596-.192-.912-.232h-.04a8.064 8.064 0 0 0-.948-.152h-.04a9.956 9.956 0 0 0-4.984.58l-.2.156c-.24.08-.632.272-.868.388a1.864 1.864 0 0 1-.4.192c-.116.04-.312.196-.432.272l-.556.388-.12.08c-.236.156-.432.348-.672.544l-.196.192c-.24.232-.436.428-.632.66a8.816 8.816 0 0 0-1.424-.116c-.16 0-.28 0-.4.04a7.908 7.908 0 0 0-6.56 4.112l-.044.08c-.12.224-.228.46-.32.7-.04.076-.04.116-.08.192a3.76 3.76 0 0 0-.196.62c-.04.08-.04.196-.08.272l-.116.62c0 .08-.04.16-.04.272a6.74 6.74 0 0 0-.04.892c-.004.248.008.496.04.74 0 .08.04.156.04.272.04.156.04.308.08.464.04.156.04.196.08.312a1.116 1.116 0 0 1 .08.348c0 .12.076.232.116.348a1.872 1.872 0 0 0 .12.272 3.98 3.98 0 0 1 .16.388c.04.08.076.12.076.196a6.898 6.898 0 0 0 2.692 3.104c.592.348 1.188.66 1.82.852.244.084.496.148.752.196l.08.04.712.116.16.04c.272.04.552.04.868.04 1.068 0 2.096-.2 3.044-.624.24.156.44.312.676.464l.08.04c.196.12.432.232.672.348h.04a10.38 10.38 0 0 0 7.32.74h.04a4.92 4.92 0 0 0 1.024-.352l1.068-.464c1.02.78 2.272 1.2 3.56 1.2.28 0 .52-.04.792-.04l.2-.036c.252-.036.504-.088.752-.156.24-.072.48-.16.712-.268l.12-.04c.236-.12.432-.232.672-.348a5.66 5.66 0 0 0 2.176-2.6c.16-.352.24-.7.316-1.048v-.12c.04-.152.04-.308.08-.464 0-.192.04-.388.04-.584 0-2.56-1.624-4.772-4.04-5.508z"/></svg>