<svg width="64" height="64" viewBox="0 0 128 128" xmlns="http://www.w3.org/2000/svg"><path d="M64 128C28.652 128 0 99.348 0 64S28.652 0 64 0s64 28.652 64 64-28.652 64-64 64zM20.62 36.144c-.24 2.52-.24 5.096.24 7.616 2.472.096 5 .096 7.52.096.716 1.336 1.48 2.62 2.096 4.048 3 6.336 6.048 12.62 9.192 18.904 1.808 3.62 3.284 7.572 6.048 10.668.856 1.144 2.38 1.284 3.808 1.284h26.668c2.24 0 4.664-.092 6.428-1.568 2.14-1.86 3.096-4.524 4.52-6.908 3.812-6.664 7.528-13.38 11.432-20 .808-1.428 1.428-3.284.572-4.856-.716-1.428-2.48-1.476-3.904-1.572-19.24 0-38.572.096-57.812 0-1.476-2.476-1.904-5.476-3.808-7.616-4.288-.384-8.716-.096-13-.096zm30.048 47.76c-2.336.524-4.24 2.572-4.524 4.952-.428 2.86-.428 6.192 1.616 8.48 1.908 1.904 4.86 2.092 7.432 1.904 2.24-.192 4.616-1.24 5.568-3.432 1-2.428 1-5.14.432-7.664-.524-2.192-2.432-3.86-4.62-4.336-1.952-.38-4-.38-5.904.096zm23.808 0c-2.332.524-4.144 2.48-4.62 4.812a11.268 11.268 0 0 0 .86 7.476c1.188 2.14 3.664 3 5.952 3.092 2.332.048 4.904-.188 6.664-1.856 1.908-2 2.192-5 1.908-7.62-.192-2.24-1.336-4.616-3.524-5.52-2.288-.86-4.86-.908-7.24-.384z"/></svg>