<svg width="64" height="64" viewBox="0 0 128 128" xmlns="http://www.w3.org/2000/svg"><path d="M64 128C28.652 128 0 99.348 0 64S28.652 0 64 0s64 28.652 64 64-28.652 64-64 64zM24.188 61.816l-.032-6.948 38.568 22.636c.912.536 2.04.54 2.96.004l40.844-23.776a2.976 2.976 0 0 0 .02-5.12L65.7 24.412a2.928 2.928 0 0 0-2.996.004L21.024 49.36a2.116 2.116 0 0 0-.996 2.168 2.576 2.576 0 0 0-.028.392v9.896a7.263 7.263 0 0 0 3.596 6.276l39.132 22.8a2.94 2.94 0 0 0 2.968-.012l37.892-22.416v7.604L64.2 99.58 23.148 75.448a2.084 2.084 0 0 0-2.864.76 2.12 2.12 0 0 0 .756 2.884l41.68 24.504c.92.544 2.064.54 2.984-.012l40.628-24.252a2.972 2.972 0 0 0 1.44-2.548V66.276a2.956 2.956 0 0 0-4.432-2.56L64.2 86.876l-38.508-22.44a3.036 3.036 0 0 1-1.504-2.62zm40.024 11.68L26.22 51.156 64.212 28.42l38.376 22.736-38.376 22.336z"/></svg>