<svg width="64" height="64" viewBox="0 0 128 128" xmlns="http://www.w3.org/2000/svg"><path d="M64 0c35.348 0 64 28.652 64 64s-28.652 64-64 64S0 99.348 0 64 28.652 0 64 0zm46.7 52a12.016 12.016 0 00-11.96 11.136A11.984 11.984 0 0086.82 52v1.848l.664.024A10.152 10.152 0 0196.972 64 10.124 10.124 0 0186.82 74.152V76l.696-.02A12.024 12.024 0 0098.78 64.864 11.988 11.988 0 00110.74 76v-1.848l-.664-.024A10.152 10.152 0 01100.592 64 10.12 10.12 0 01110.7 53.848zM46.532 64H44.76v12h1.812v-1.376L46.532 64zm24.04-12c-6.612 0-12 5.392-12 12s5.388 12 12 12a12 12 0 100-24zm-17 0h-15.42l-.704.02A12.024 12.024 0 0026.152 64 10.176 10.176 0 0116 74.152V76l.704-.02A12.024 12.024 0 0028 64a10.176 10.176 0 0110.152-10.152h15.42V52zm17 1.848A10.152 10.152 0 0180.72 64a10.12 10.12 0 01-9.48 10.128l-.668.024-.668-.024A10.18 10.18 0 0160.42 64a10.152 10.152 0 019.48-10.128z"/></svg>