<svg width="64" height="64" viewBox="0 0 128 128" xmlns="http://www.w3.org/2000/svg"><path d="M64 128C28.652 128 0 99.348 0 64S28.652 0 64 0s64 28.652 64 64-28.652 64-64 64zM48.468 21.256L32.4 33.312a.992.992 0 0 0 0 1.6l63.204 47.412-3.576 2.68a1.003 1.003 0 1 0 1.2 1.608l4.648-3.48a1.008 1.008 0 0 0 0-1.616L34.68 34.104l14.392-10.788 4.424 3.308a1 1 0 1 0 1.2-1.6l-5.02-3.768a1 1 0 0 0-.6-.2.96.96 0 0 0-.604.2zm16.068 0l-20.76 15.568a1.003 1.003 0 0 0 1.2 1.608l20.16-15.12 29.12 21.84H81.544L60.716 29.536a1.003 1.003 0 1 0-1.2 1.608L80.6 46.956c.176.132.384.2.6.204h16.072c.432 0 .816-.28.948-.688a.984.984 0 0 0-.344-1.116l-32.14-24.108a.988.988 0 0 0-1.2.008zM36.84 42.036l-4.44 3.32a1.012 1.012 0 0 0 0 1.608l63.208 47.412-14.4 10.796-4.04-3.028a1.006 1.006 0 1 0-1.208 1.608l4.648 3.488a1.012 1.012 0 0 0 1.2 0L97.88 95.188a1 1 0 0 0 0-1.608l-63.2-47.416 3.364-2.52a.996.996 0 0 0 .2-1.404 1.008 1.008 0 0 0-1.4-.204zm-3.836 39.276a1.004 1.004 0 0 0-.608 1.812l32.148 24.1a1 1 0 0 0 1.2 0l20.728-15.536a1.007 1.007 0 0 0-1.212-1.608l-20.116 15.092L36.02 83.328h12.72l20.584 15.44a1.001 1.001 0 1 0 1.204-1.6L49.664 81.524a.94.94 0 0 0-.6-.204H33v-.008z"/></svg>