<svg width="64" height="64" viewBox="0 0 128 128" xmlns="http://www.w3.org/2000/svg"><path d="M64 128C28.652 128 0 99.348 0 64S28.652 0 64 0s64 28.652 64 64-28.652 64-64 64zm8.244-91.664H55.96C43.908 49.784 38.056 55.312 28 63.6l43.24 9.352-7.44 8.36c-9.932-5.88-16.732-6.636-28.96-7.76 9.188 4.232 13.96 7.632 21.116 18.104h16.288C80.704 81.148 86.536 75.048 100 63.6l-43.04-9.56 6.84-7.96c10.836 5.688 17.324 6.504 28.824 7.944-3.308-.908-6.764-3.428-20.38-17.692zM56.96 34.348h14.28C67.676 29.9 66.16 27.648 64.2 24c-1.996 3.54-3.52 5.768-7.24 10.348zm14.28 59.304H56.96c3.56 4.448 5.08 6.7 7.04 10.348 1.992-3.54 3.516-5.768 7.24-10.348z"/></svg>