<svg width="64" height="64" viewBox="0 0 128 128" xmlns="http://www.w3.org/2000/svg"><path d="M52.588 61.736a.44.44 0 0 1-.012.392.48.48 0 0 1-.628.188c-30.148-15.68 27.364-33.94 59.056-12.56.384.22.72.44.996.652-.324-.232-.664-.428-.996-.652-11.76-6.704-70.416-13.372-58.416 11.98m33.304 21.28c16.632-7.56 3.104-33.448-18.9-28.452a.472.472 0 0 1-.556-.34.44.44 0 0 1 .164-.44c17.12-12.864 49.256 17.168 19.292 29.228M16 72.044c48.404 30.972 73.336 1.868 55.82-10.84l-.024-.02a.432.432 0 0 1-.068-.608.464.464 0 0 1 .456-.16C114.188 68 57.04 110.66 16 72.04m32.8-28.624c-26.476 18.16 2.976 26.4 8.324 24.656a.556.556 0 0 1 .256-.008.444.444 0 0 1 .332.552c-3.612 13.852-45.24-13.568-8.912-25.2M64 0C28.656 0 0 28.652 0 64c0 35.344 28.656 64 64 64s64-28.656 64-64c0-35.348-28.656-64-64-64"/></svg>