<svg width="64" height="64" viewBox="0 0 128 128" xmlns="http://www.w3.org/2000/svg"><path d="M0 64c0 35.346 28.654 64 64 64 35.346 0 64-28.654 64-64 0-35.346-28.654-64-64-64C28.654 0 0 28.654 0 64zm72.184-3.588a.468.468 0 0 0-.456.164.432.432 0 0 0 .092.624C89.336 73.912 64.404 103.016 16 72.044c41.04 38.62 98.188-4.04 56.184-11.632zM48.808 43.42c-36.344 11.628 5.292 39.052 8.904 25.2a.44.44 0 0 0-.332-.548.48.48 0 0 0-.256.004c-5.348 1.74-34.804-6.496-8.32-24.656zM112 50.408c-31.468-22.44-90.512-3.936-60.052 11.908a.476.476 0 0 0 .628-.188.44.44 0 0 0 .012-.392C40.2 35.56 103.124 43.52 112 50.408zM85.888 83.012c16.636-7.56 3.108-33.444-18.896-28.448a.464.464 0 0 1-.552-.34.428.428 0 0 1 .16-.44c17.12-12.864 49.256 17.168 19.288 29.228z"/></svg>