<svg width="64" height="64" viewBox="0 0 128 128" xmlns="http://www.w3.org/2000/svg"><path d="M64 128C28.652 128 0 99.348 0 64S28.652 0 64 0s64 28.652 64 64-28.652 64-64 64zM16 52v4.884h5.192V52H16zm5.192 19.096v-4.444h10.052v-4.884H16V76h20.3v-4.904H21.192zM91.7 61.768v4.88h15.108v4.448H96.756V76H112V61.768H91.7zm15.192-4.648v-4.884h-15.2v4.88h15.2zm-65.644 4.648V76h15.24v-4.696h5.06v-9.536h-20.3zm15.108 9.328H46.44v-4.444h9.92v4.44zM41.248 52v4.884h20.3V52h-20.3zm25.336 9.768V76h15.24v-4.696h5.06v-9.536h-20.3zm15.088 9.328h-9.92v-4.444h9.92v4.44zM66.584 52v4.884h20.3V52h-20.3z"/></svg>