<svg width="64" height="64" viewBox="0 0 128 128" xmlns="http://www.w3.org/2000/svg"><path d="M64 128C28.652 128 0 99.348 0 64S28.652 0 64 0s64 28.652 64 64-28.652 64-64 64zm36.32-82.088L76.104 26.24c-2.532-2.048-7.12-2.84-10.212-1.752l-29.68 10.424c-3.088 1.08-6.088 4.536-6.656 7.672l-5.44 30.096c-.572 3.136 1.028 7.36 3.56 9.412l24.232 19.668c2.528 2.052 7.12 2.84 10.208 1.752l29.676-10.42c3.088-1.08 6.088-4.536 6.656-7.672l5.44-30.096c.56-3.116-1.04-7.36-3.568-9.412zM75.076 59.424l-11.32-.016-2.104 10.648c-.66 3.3-.84 5.16 2.56 5.16h7.656l-1.6 6.76h-9.152c-5.412 0-8.932-5.052-7.524-12.168.56-2.796 2.24-10.372 2.24-10.372h-4.956l1.028-5.276a23.036 23.036 0 0 0 10.992-8.9h3.66l-1.6 8.064 11.328-.016z"/></svg>