<svg width="64" height="64" viewBox="0 0 128 128" xmlns="http://www.w3.org/2000/svg"><path d="M107.992 64.82L108 64c0-12.16-4.3-22.54-12.9-31.14C86.528 24.288 76.16 20 64 20s-22.54 4.288-31.14 12.86C24.288 41.46 20 51.84 20 64a50.8 50.8 0 0 0 .12-3.392 3.148 3.148 0 0 1 .484.06l18.764-32.544a2.876 2.876 0 0 1-.328-.464 41.545 41.545 0 0 1 5.904-3.472c.108.18.2.368.272.568h37.568a3.396 3.396 0 0 1 .272-.568 41.92 41.92 0 0 1 5.908 3.488 3.268 3.268 0 0 1-.312.432l18.744 32.56a3.192 3.192 0 0 1 .488-.06 48.62 48.62 0 0 1 .108 4.212zm-.112 2.648a3.264 3.264 0 0 1-.484-.056l-18.764 32.5c.112.132.216.268.312.408a47.24 47.24 0 0 0 6.16-5.22c7.768-7.748 12.028-16.96 12.776-27.632zm-19.004 32.9zm-.424.296a41.616 41.616 0 0 1-5.416 3.148 3.248 3.248 0 0 1-.252-.528H45.216a3.184 3.184 0 0 1-.256.528 40.652 40.652 0 0 1-3.004-1.6C48.504 106.064 55.852 108 64 108c9.172 0 17.32-2.444 24.452-7.336zm-49.392-.324a3.104 3.104 0 0 1 .308-.428l-18.764-32.5a3.2 3.2 0 0 1-.484.056c.748 10.676 4.992 19.884 12.74 27.632a47.158 47.158 0 0 0 6.2 5.24zM64 128C28.652 128 0 99.348 0 64S28.652 0 64 0s64 28.652 64 64-28.652 64-64 64zm41.388-66.16l-18.2-31.552v30.516c.456.172.872.44 1.248.82a3.472 3.472 0 0 1 .82 1.244h15.508a3.344 3.344 0 0 1 .624-1.032zm-.624 3.368H89.256a3.48 3.48 0 0 1-.82 1.248 3.468 3.468 0 0 1-1.248.82v30.476l18.2-31.512a3.356 3.356 0 0 1-.624-1.032zm-81.524-2.34h15.508a3.476 3.476 0 0 1 .82-1.244 3.472 3.472 0 0 1 1.248-.82V30.288l-18.2 31.548c.28.32.484.664.624 1.032zm21.94-35.696l24.456 21.18a3.296 3.296 0 0 1 2.3-.388l11.48-19.84a3.44 3.44 0 0 1-.628-1.032H45.22a.436.436 0 0 1-.04.08zm.04 35.696h15.548a3.4 3.4 0 0 1 .604-1.072l-18.22-31.508v30.516c.456.172.872.44 1.248.82a3.472 3.472 0 0 1 .82 1.244zM74.548 52.56l9.8 8.48a3.288 3.288 0 0 1 .508-.236V30.288L73.96 49.132a3.32 3.32 0 0 1 .8 2.2 3.52 3.52 0 0 1-.212 1.228zm-6.412-2.452L46.464 31.36l16.932 29.268a3.104 3.104 0 0 1 1.208 0l4.112-7.092a3.252 3.252 0 0 1-.82-2.2c0-.44.08-.852.236-1.228zm-.88 12.76h15.532a.54.54 0 0 0 .04-.076l-9.8-8.48a3.296 3.296 0 0 1-2.3.392L66.636 61.8a3.436 3.436 0 0 1 .62 1.068zm16.352 3.588a3.48 3.48 0 0 1-.82-1.248H67.22a3.316 3.316 0 0 1-.584.976l18.22 31.564V67.28a3.476 3.476 0 0 1-1.248-.82zm-20.168.936l-4.132 7.152c.532.632.8 1.364.8 2.2 0 .44-.072.844-.216 1.228L81.54 96.696 64.608 67.372a3.904 3.904 0 0 1-1.168.02zm19.388 33.476L58.372 79.724a3.292 3.292 0 0 1-2.3.392l-11.456 19.8a3.312 3.312 0 0 1 .6 1.028h37.572a.576.576 0 0 0 .04-.076zM57.28 73.372l4.112-7.152a3.328 3.328 0 0 1-.6-1.012H45.22a.488.488 0 0 1-.04.08l9.8 8.476a3.288 3.288 0 0 1 2.3-.392zm-3.8 2.144l-9.82-8.476a3.24 3.24 0 0 1-.508.232v30.496l10.916-18.824a3.252 3.252 0 0 1-.82-2.2c0-.44.08-.848.232-1.228zm-13.912-9.06a3.48 3.48 0 0 1-.82-1.248H23.24a3.356 3.356 0 0 1-.624 1.032l18.2 31.508V67.28a3.48 3.48 0 0 1-1.248-.82z"/></svg>