<svg width="64" height="64" viewBox="0 0 128 128" xmlns="http://www.w3.org/2000/svg"><path d="M64 128C28.652 128 0 99.348 0 64S28.652 0 64 0s64 28.652 64 64-28.652 64-64 64zm43.932-64.904v-.92l-18.08 10.512v-5.24l18.08-10.508V37.548L63.96 12 41.98 24.776l-.792.46 18.08 10.508-4.504 2.616-18.08-10.508L20 37.548v51.096l21.98 12.776.796.46V80.864l4.504 2.616v21.02l16.688 9.692 43.964-25.548V63.096zM85.152 53.4l-18.2 10.584v22.008l-2.984 1.732-2.252-1.308v-21.16l-18.94-11.008v-3.464l2.252-1.312 18.208 10.58 18.94-11 2.98 1.732v2.62zM59.32 25.08l4.644-2.696 35.032 20.36v8.7l-4.64 2.696v-8.704L82.168 38.36 63.232 49.364l-4.508-2.616 18.94-11.008L59.32 25.08zM33.58 86.16l-4.648-2.7V42.74l7.488-4.352 4.648 2.696-7.488 4.356v14.152L52.516 70.6v5.236L33.58 64.832v21.32zM99 78.06v5.4l-35.032 20.36-7.488-4.356v-5.4l7.488 4.352 12.18-7.076V69.332l4.504-2.62v22.012L99 78.06z"/></svg>