<svg width="64" height="64" viewBox="0 0 128 128" xmlns="http://www.w3.org/2000/svg"><path d="M64 128C28.652 128 0 99.348 0 64S28.652 0 64 0s64 28.652 64 64-28.652 64-64 64zm0-112a47.646 47.646 0 1 0 0 95.292c26.316 0 47.644-21.332 47.644-47.648C111.644 37.332 90.32 16 64 16zm0 93.364c-25.272 0-45.76-20.488-45.76-45.76 0-25.264 20.492-45.752 45.76-45.752s45.76 20.488 45.76 45.76c0 25.268-20.488 45.756-45.76 45.756zm5.232-41.036h12.08v17.824c0 1.768-1.812 2.712-3.54 3.62-1.692.904-4.448.708-9.092.708h-5.664c-8.696.196-11.136-.472-13.22-1.38-2.084-.944-3.148-2.28-3.148-4.012v-16.76h-6.256v18.884c0 1.024.512 2.204 1.3 3.268.904 1.22.788 1.572 2.752 2.556 1.772.904 3.544 1.612 6.728 2.008 2.48.312 2.048.236 6.456.312h10.464c7.868-.156 9.48.396 14.16-1.964 3.82-1.892 5.12-4.092 5.392-5.512V62.192H69.272v6.136h-.04zM52.944 31.972c-3.188.2-5.824 1.184-7.868 1.968-2.084.788-2.52 1.732-3.384 2.756a5.206 5.206 0 0 0-1.26 3.344v20.932h6.296V42.04c0-1.612.984-2.908 2.912-3.852 1.968-.984 4.84-1.456 7.516-1.456h12.272c4.68 0 7.2-.08 8.656.784 1.496.944 3.268 1.772 3.268 3.544v4.996h6.292v-6.724c-.116-.868-1.06-3.344-5.508-5.432-4.012-1.888-5.308-2.004-11.604-2.004l-17.588.08z"/></svg>