<svg width="64" height="64" viewBox="0 0 128 128" xmlns="http://www.w3.org/2000/svg"><path d="M64 128C28.652 128 0 99.348 0 64S28.652 0 64 0s64 28.652 64 64-28.652 64-64 64zM24 45.544v4.6c0 .856.692 1.548 1.544 1.548H46.8c3.092 0 4.64 1.412 4.64 4.232 0 2.052-1.548 3.332-4.64 3.844H25.544A1.544 1.544 0 0 0 24 61.32v4.6c0 .852.692 1.544 1.544 1.544H46.8c4.38.256 6.572 1.8 6.572 4.616s-2.192 4.232-6.572 4.232H25.544A1.544 1.544 0 0 0 24 77.856v4.6c0 .856.692 1.548 1.544 1.548H46.8c6.184 0 15.46-1.92 15.46-11.54 0-4.1-1.8-7.176-5.408-9.228 2.576-2.308 3.864-4.872 3.864-7.692 0-6.76-5.8-11.54-15.072-11.54H25.548A1.548 1.548 0 0 0 24 45.548zm41.74 0v4.6c0 .856.692 1.548 1.544 1.548H78.88c.852 0 1.544.692 1.544 1.548v29.216c0 .852.692 1.544 1.548 1.544h5.796a1.544 1.544 0 0 0 1.548-1.544V45.544A1.544 1.544 0 0 0 87.768 44h-20.48a1.544 1.544 0 0 0-1.548 1.544zM94.72 44a1.544 1.544 0 0 0-1.544 1.544v4.6c0 .856.692 1.548 1.544 1.548h7.732a1.544 1.544 0 0 0 1.544-1.544v-4.6A1.544 1.544 0 0 0 102.452 44z"/></svg>