<svg width="64" height="64" viewBox="0 0 128 128" xmlns="http://www.w3.org/2000/svg"><path d="M64 128C28.652 128 0 99.348 0 64S28.652 0 64 0s64 28.652 64 64-28.652 64-64 64zm7.08-71A16 16 0 0 1 73 57c5.92.4 8.64 8.44 12.4 8a32.64 32.64 0 0 1-12 6.2 8 8 0 0 1-8.68-5.2v16L88 68.72V48l-16.92 9zm-11.56-.04A8.2 8.2 0 0 1 56.56 51v-.32c0-4.64 7.48-12 7.72-12 .24.24 7.72 7.4 7.72 12v.36a8 8 0 0 1-2.4 5.44L88 46.6 64 34.84 40 46.48l19.52 10.48zm3.92 9.2a8 8 0 0 1-8.68 5.24 32.64 32.64 0 0 1-12-6.2c3.76.28 6.44-7.8 12.4-8a16 16 0 0 1 1.92 0L40 48v20.76l23.48 13.56-.04-16.16zM64 16c-26.508 0-48 21.492-48 48s21.492 48 48 48 48-21.492 48-48a48 48 0 0 0-48-48zM37.2 44.76l26.8-13 26.84 13v25.56L64 85.8 37.2 70.32V44.76zm53.72 36L64.2 96.2 37.16 80.6v-1.48l27.04 15.6 26.72-15.44v1.48zm0-3L64.2 93.2 37.16 77.6V76L64.2 91.64 90.92 76.2v1.56zm0-3L64.2 90.2 37.16 74.6v-1.48L64.2 88.76l26.72-15.44v1.44z"/></svg>