<svg width="64" height="64" viewBox="0 0 128 128" xmlns="http://www.w3.org/2000/svg"><path d="M64 128C28.652 128 0 99.348 0 64S28.652 0 64 0s64 28.652 64 64-28.652 64-64 64zm-1.608-80.572l.3-1.428H33.36l-8.712 36h9.584l6.584-29.144h11.728L45.556 82h8.716l6.852-29.144h.12l1.04-4.912.12-.516zM78.956 46l-8.712 35.716h18.268a21.4 21.4 0 0 0 6.484-.972c3.468-1.1 7.688-3.408 8.36-8.172h2.612l.872-3.428h-3.2s.292-5.144-6.384-6c0 0 5.808-1.716 6.68-4.86h2.904l1.16-3.428h-3.196s1.16-8.284-11.324-8.856zm-49.664 6.856L31.04 46h-9.296L20 52.856zM69.084 78l3.192-14.572-7.548-16.856-3.2 13.712zM91.3 60.284h-7.404l1.74-7.712H91.3c1.04 0 2.04.404 2.772 1.128s1.148 1.704 1.148 2.728c0 1.024-.412 2.004-1.148 2.728s-1.732 1.132-2.772 1.128zm-1.956 14.86H80.44l2.096-8.86h6.808c2.616 0 4.716 1.984 4.716 4.432 0 2.444-2.112 4.428-4.716 4.428z"/></svg>