<svg width="64" height="64" viewBox="0 0 128 128" xmlns="http://www.w3.org/2000/svg"><path d="M64 128C28.652 128 0 99.348 0 64S28.652 0 64 0s64 28.652 64 64-28.652 64-64 64zm10.1-70.144a2.192 2.192 0 00.192-4.376h-15.36v-3.84a2.536 2.536 0 00-4.88 0v3.84h-4.108a2.188 2.188 0 000 4.376h4.112v13.36a12.748 12.748 0 0012.708 12.676 12.44 12.44 0 007.68-2.804l.92-.768a2.572 2.572 0 10-3.376-3.84l-.692.576a7.372 7.372 0 01-7.988.92 7.68 7.68 0 01-4.376-6.912V57.856H74.1zm24.96 14.9a1.92 1.92 0 00-1.5-2.268h-.96a1.88 1.88 0 00-1.84 1.46 29.952 29.952 0 11-56.528-18.932 27.38 27.38 0 0114.824-14.82A30.184 30.184 0 0190.38 48.872a1.92 1.92 0 002.612.536l.344-.232a2.072 2.072 0 00.656-2.84A34.56 34.56 0 0053.48 33.32a32.408 32.408 0 00-19.968 19.696 34.328 34.328 0 1065.548 19.74zM67.496 19.8h-3.84A45.772 45.772 0 0021.64 78.36a2.188 2.188 0 002.728 1.46h.308a2.188 2.188 0 001.152-2.572 41.396 41.396 0 1130.72 28.8 2.072 2.072 0 00-2.076.768 2.228 2.228 0 001.268 3.572A45.736 45.736 0 1067.496 19.8z"/></svg>