<svg width="64" height="64" viewBox="0 0 128 128" xmlns="http://www.w3.org/2000/svg"><path d="M64 128C28.652 128 0 99.348 0 64S28.652 0 64 0s64 28.652 64 64-28.652 64-64 64zm-.02-19.088c-24.792 0-44.892-20.1-44.892-44.892s20.1-44.892 44.892-44.892 44.892 20.1 44.892 44.892-20.1 44.892-44.892 44.892zm0-92.644c-26.332 0-47.752 21.42-47.752 47.752s21.42 47.752 47.752 47.752 47.752-21.42 47.752-47.752-21.42-47.752-47.752-47.752zM80.796 81.1l-2.492 10.796-.6 2.612h-2.68l-13.78-.008h-.056c-5.524-.092-9.86-1.56-12.704-4.152 2.456 4.332 7.672 6.84 14.952 6.96h.056l13.776.008h2.68l.604-2.612 2.492-10.796-1.944-4.124-.304 1.316zm-4.332-46.284l-1.968-4.092-.28 1.28-1.868 8.508h2.864l1.252-5.696zm9.948 9.84l-2.48 10.504-.616 2.592H68.384l-3.792 17.312c-.08.496-.128 1-.128 1.28 0 .244.028.4.052.476a2.4 2.4 0 0 0 .892.152h1.632l3.592-16.408h14.932l.612-2.596 2.48-10.5-1.928-4.144-.32 1.336zM49.364 57.752H38.96l3.584 2.812h6.208l.612-2.812zm16.372 22.592h-.38c-2.896-.076-4.264-1.584-4.264-4 0-.576.096-1.34.192-1.912l4.392-20.048h14.976l2.48-10.5H68.156l2.768-12.6H58.708l-2.772 12.6H42.68l-2.384 10.5h13.256l-5.16 23.58c-.28 1.144-.38 2.48-.38 3.148 0 6.728 5.308 9.888 13.232 10.02l13.776.004 2.492-10.792H65.736z"/></svg>