<svg width="64" height="64" viewBox="0 0 128 128" xmlns="http://www.w3.org/2000/svg"><path d="M64 128C28.652 128 0 99.348 0 64S28.652 0 64 0s64 28.652 64 64-28.652 64-64 64zM40.492 28c-1.248 6.632-8.752 7.048-8.752 7.048C14.24 92.248 63.832 108 63.832 108c53.76-21.968 31.672-73.368 31.672-73.368-6.664-.416-7.92-6.632-7.92-6.632zm44.6 4.092l.048 1.036a5.468 5.468 0 0 0 .74 2.236c.76 1.272 2 2.064 3.944 2.192l.68.044.26.632a38.188 38.188 0 0 1 .6 1.64c.44 1.3.88 2.784 1.288 4.42 2.476 9.92 2.768 20.396-.548 30.24-4.016 11.92-12.984 21.5-27.808 27.84l-.38.16-.392-.124a22.108 22.108 0 0 1-1.34-.5 43.557 43.557 0 0 1-3.436-1.56 49.92 49.92 0 0 1-10.38-7.008c-5.972-5.244-10.504-11.8-13.008-19.8-3.052-9.76-2.92-21.208.956-34.444l.208-.712.736-.072a7.024 7.024 0 0 0 .88-.184 7.56 7.56 0 0 0 2.048-.904c1.44-.92 2.416-2.28 2.768-4.236l.056-.896zm-40.18 2.18c-.592 2.12-1.84 3.704-3.54 4.788a9.74 9.74 0 0 1-3.14 1.296c-3.572 12.56-3.648 23.36-.776 32.536 2.376 7.596 6.68 13.82 12.36 18.812a47.788 47.788 0 0 0 9.928 6.7 40.872 40.872 0 0 0 4.076 1.792c14.02-6.092 22.424-15.132 26.204-26.36 3.164-9.392 2.88-19.464.5-29.016a54.736 54.736 0 0 0-1.56-5.16c-2.304-.328-3.948-1.48-4.968-3.176a7.62 7.62 0 0 1-.88-2.2l-38.204-.012zM74.352 56.6a3.44 3.44 0 0 1 3.44 3.42v14.3a3.44 3.44 0 0 1-3.44 3.42H53.724a3.44 3.44 0 0 1-3.44-3.42v-14.3a3.44 3.44 0 0 1 3.44-3.42h.892c.116-5.732 3.18-8.024 5.748-8.936a10.474 10.474 0 0 1 5.776-.264c6.58 1.472 7.12 6.768 7 9.2zm-8.02 16.168L65.12 66.74a2.692 2.692 0 0 0-1.08-5.164 2.692 2.692 0 1 0-1.08 5.164l-1.212 6.028zM57.58 56.6h12.224c.12-6.988-6.388-6.632-6.388-6.632-4.932.328-5.72 4.76-5.836 6.632z"/></svg>