<svg width="64" height="64" viewBox="0 0 128 128" xmlns="http://www.w3.org/2000/svg"><path d="M64 128C28.652 128 0 99.348 0 64S28.652 0 64 0s64 28.652 64 64-28.652 64-64 64zm.024-105.6c1.576 0 3.124.412 4.488 1.2l28.64 16.536a8.98 8.98 0 0 1 4.488 7.78v33.736a8.974 8.974 0 0 1-4.488 7.776l-28.644 16.54a8.98 8.98 0 0 1-8.98 0L30.88 89.428a8.984 8.984 0 0 1-4.492-7.776V47.916a8.989 8.989 0 0 1 4.492-7.78L59.52 23.6a9.01 9.01 0 0 1 4.492-1.204h.008zm-.008-6.244a15.24 15.24 0 0 0-7.608 2.04L27.76 34.728a15.264 15.264 0 0 0-7.612 13.184v33.736a15.264 15.264 0 0 0 7.612 13.184l28.64 16.536a15.222 15.222 0 0 0 15.224 0l28.644-16.536a15.264 15.264 0 0 0 7.612-13.184V47.912a15.264 15.264 0 0 0-7.612-13.184l-28.64-16.54a15.24 15.24 0 0 0-7.616-2.04zm19.56 47.64h-6.648a1.872 1.872 0 0 0-1.62.936l-3.452 5.972a1.872 1.872 0 0 0 0 1.872L76 79.744a52.288 52.288 0 0 0 7.58-15.948zm-23.068 6.28h7.032a1.868 1.868 0 0 0 1.62-.932l3.448-5.972a1.872 1.872 0 0 0 0-1.872l-3.448-5.972a1.872 1.872 0 0 0-1.62-.936h-7.032a1.872 1.872 0 0 0-1.624.936L55.44 61.3a1.872 1.872 0 0 0 0 1.872l3.444 5.972a1.872 1.872 0 0 0 1.624.936zm-9.396-9.4a1.88 1.88 0 0 0 1.624-.936l3.444-5.972a1.872 1.872 0 0 0 0-1.872l-4.296-7.444-8.388 4.576a1.872 1.872 0 0 0-.972 1.684c.068 3.352.46 6.688 1.164 9.964h7.424zm25.82 0h7.424a52.53 52.53 0 0 0 1.164-9.964 1.872 1.872 0 0 0-.976-1.684l-8.384-4.576-4.296 7.444a1.872 1.872 0 0 0 0 1.872l3.448 5.972a1.872 1.872 0 0 0 1.62.936zM64.92 38.316a1.872 1.872 0 0 0-1.792 0l-8.504 4.64 4.264 7.38a1.872 1.872 0 0 0 1.62.936h7.032a1.868 1.868 0 0 0 1.62-.936l4.264-7.38-8.504-4.64zM60.508 73.2a1.872 1.872 0 0 0-1.624.936l-4.8 8.32a52.84 52.84 0 0 0 8.796 8.636 1.88 1.88 0 0 0 2.292 0 52.84 52.84 0 0 0 8.792-8.64l-4.8-8.316a1.872 1.872 0 0 0-1.62-.936h-7.04zm-16.044-9.404a52.288 52.288 0 0 0 7.58 15.948l4.14-7.168a1.872 1.872 0 0 0 0-1.872l-3.448-5.972a1.872 1.872 0 0 0-1.62-.936h-6.652z"/></svg>