<svg width="64" height="64" viewBox="0 0 128 128" xmlns="http://www.w3.org/2000/svg"><path d="M64 128C28.652 128 0 99.348 0 64S28.652 0 64 0s64 28.652 64 64-28.652 64-64 64zm34.98-78.936c-3.196-2.268-6.616-4.688-9.96-7.088-.076-.056-.148-.112-.24-.168a4.48 4.48 0 0 0-1.312-.748l-.04-.02c-8.944-2.192-18.04-4.44-26.836-6.616l-23.936-5.908-.628-.168c-.72-.204-1.552-.432-2.44-.32a1.684 1.684 0 0 0-.68.264l-.224.188a2.76 2.76 0 0 0-.628 1.012l-.056.152v.86l.04.132c5.04 14.34 10.216 28.888 15.208 42.964 3.844 10.84 7.84 22.064 11.736 33.088.24.748.924 1.24 1.776 1.312h.184a2.076 2.076 0 0 0 1.848-1.032l14.64-21.652c3.564-5.268 7.132-10.552 10.7-15.82l4.38-6.488c2.4-3.56 4.88-7.236 7.34-10.816l.128-.184v-.228c.056-.656.072-2.004-1-2.72zm-17.152 7.892c-3.44 1.816-6.948 3.692-10.48 5.548l6.176-6.712c2.568-2.812 5.248-5.72 7.872-8.568l.056-.056c.22-.3.5-.58.796-.88.2-.204.424-.412.628-.656 1.368.96 2.752 1.932 4.084 2.888.96.692 1.94 1.388 2.94 2.08a1028.828 1028.828 0 0 0-12.072 6.356zm-8.832-.9a1837.42 1837.42 0 0 1-8.096 8.828 5232.508 5232.508 0 0 0-15.86-19.42l-7.116-8.68-.016-.02c-.536-.616-1.056-1.292-1.572-1.928-.332-.432-.684-.844-1.036-1.276 2.144.56 4.308 1.088 6.432 1.592 1.868.452 3.808.92 5.712 1.408l32.18 7.928c-3.568 3.864-7.156 7.78-10.628 11.568zm-9.3 36.536c.204-1.968.428-3.992.612-5.98.168-1.596.332-3.224.5-4.78.256-2.496.536-5.08.76-7.612l.052-.448c.184-1.616.368-3.28.48-4.952a5.52 5.52 0 0 1 .668-.32c.276-.128.552-.24.828-.408 4.272-2.272 8.54-4.54 12.828-6.788 4.272-2.248 8.652-4.576 12.996-6.88a3741.888 3741.888 0 0 0-11.776 17.4c-3.308 4.888-6.708 9.932-10.092 14.9-1.328 1.988-2.716 4.012-4.028 5.96-1.48 2.176-2.996 4.404-4.472 6.64.184-2.252.404-4.52.644-6.732zm-25.76-54.608c-.24-.676-.504-1.368-.724-2.024a7363.491 7363.491 0 0 0 14.916 18.22c2.532 3.092 5.064 6.168 7.596 9.28.5.58 1 1.2 1.48 1.8.628.768 1.256 1.576 1.94 2.344-.224 1.928-.408 3.88-.612 5.752-.128 1.312-.256 2.628-.404 3.96v.016c-.056.84-.168 1.688-.26 2.512l-.424 3.732-.02.128c-.332 3.788-.74 7.612-1.128 11.324-.164 1.536-.312 3.112-.48 4.688-.092-.28-.2-.564-.296-.828a84.2 84.2 0 0 1-.812-2.304l-1.98-5.568-18.796-53.032z"/></svg>