<svg width="64" height="64" viewBox="0 0 128 128" xmlns="http://www.w3.org/2000/svg"><path d="M64 128C28.652 128 0 99.348 0 64S28.652 0 64 0s64 28.652 64 64-28.652 64-64 64zm4.228-51.888v-23.44h3.08c10.18 0 12.688-9.492 12.688-9.492H57.264c-12.688 0-14.84 9.496-14.84 9.496h15.772v35.268s10.032-3.012 10.032-11.832zM97.58 94.376c8.992-9.344 12.44-22.32 9.204-34.732a37.356 37.356 0 0 0-9.92-17.12c-.432-.424-.864-.856-1.368-1.28l-.432-.428a8.74 8.74 0 0 0-.936-.784l-.576-.428-.86-.64-.508-.36a16.6 16.6 0 0 1-1.004-.712l-.652-.424a5.52 5.52 0 0 0-.86-.5l-.648-.428c-.288-.144-.576-.36-.864-.5l-.648-.36a10.08 10.08 0 0 0-.936-.424l-.22-.072a31.38 31.38 0 0 1 2.3 2.068 35 35 0 0 1 0 49.708c-17.544 17.4-46.02 17.4-63.572 0-.648-.64-1.224-1.28-1.868-1.92l-.504-.572a23.048 23.048 0 0 1-1.08-1.356 47.424 47.424 0 0 0 8.704 11.98c18.336 18.184 48.104 18.184 66.44 0a2.456 2.456 0 0 0 .808-.72zM41.6 89.544a32.672 32.672 0 0 1-2.304-2.068 35.032 35.032 0 0 1 0-49.756c17.564-17.416 46.064-17.416 63.628 0a44.53 44.53 0 0 1 3.452 3.856 47.136 47.136 0 0 0-8.708-11.92c-18.352-18.204-48.152-18.204-66.504 0-.216.212-.432.5-.72.712-12.164 12.708-13.82 31.696-4.1 46.116 3.816 5.56 9.136 10.2 15.256 13.06z"/></svg>