<svg width="64" height="64" viewBox="0 0 128 128" xmlns="http://www.w3.org/2000/svg"><path d="M64 0c35.348 0 64 28.652 64 64s-28.652 64-64 64S0 99.348 0 64 28.652 0 64 0zM50.84 52.148a1.84 1.84 0 00-1.84 1.84v20.548l.028.288c.132.64.704 1.1 1.36 1.1H54.4c.788 0 1.388-.64 1.388-1.388V63.888l7.048 4.424a1.83 1.83 0 001.952 0l7.088-4.424v10.648c0 .788.64 1.388 1.388 1.388h4.048a1.32 1.32 0 001.312-1.388V53.988a1.856 1.856 0 00-2.888-1.5l-11.172 7.688a1.292 1.292 0 01-1.54 0l-11.172-7.688a1.644 1.644 0 00-1.016-.34zM21.472 52h-4.048A1.416 1.416 0 0016 53.388v20.66l.028.332a1.84 1.84 0 001.808 1.508h25.128a1.84 1.84 0 001.836-1.84v-20.66A1.384 1.384 0 0043.412 52H39.48a1.384 1.384 0 00-1.388 1.388V69.1H22.864V53.388l-.032-.288a1.384 1.384 0 00-1.36-1.1zm88.388 0H84.732a1.84 1.84 0 00-1.836 1.84V74.5l.028.284a1.388 1.388 0 001.36 1.104h4.048c.788 0 1.388-.64 1.388-1.388V59.688l.032-.24a.916.916 0 01.868-.66h13.388l.24.032a.916.916 0 01.66.868V74.5l.028.284a1.388 1.388 0 001.36 1.104h4.048l.276-.028a1.388 1.388 0 001.076-1.36V53.836a1.84 1.84 0 00-1.84-1.836zM99.284 63.136h-4.012a1.376 1.376 0 00-1.388 1.352v4.124c0 .788.64 1.388 1.388 1.388h4.012c.788 0 1.388-.64 1.388-1.388v-4.088a1.384 1.384 0 00-1.388-1.388z"/></svg>