<svg width="64" height="64" viewBox="0 0 128 128" xmlns="http://www.w3.org/2000/svg"><path d="M64 128C28.652 128 0 99.348 0 64S28.652 0 64 0s64 28.652 64 64-28.652 64-64 64zM53.152 90.928c3.464.528 6.96.792 10.468.788 11.904 0 22.708-2.972 30.64-7.792-9.736-13.656-24.348-32.728-39.652-38.184a33 33 0 0 0-11.12-1.92c-4.008 0-7.304.76-9.912 2.248-2.612 1.492-3.908 3.388-3.908 5.632a4.95 4.95 0 0 0 .628 2.44 6.921 6.921 0 0 0 1.92 2.088c2.18 1.56 6.888 2.548 14.144 2.992 3.328.188 5.92.36 7.748.596 5.38.576 9.64 2.236 12.792 4.968 3.14 2.74 4.712 6.088 4.712 10.088 0 4.744-2.148 8.656-6.448 11.736-3.24 2.304-7.24 3.744-12 4.32zM36.036 83.16a35.44 35.44 0 0 0 12.044 2.18c4.904 0 8.888-.996 11.948-2.988s4.596-4.556 4.596-7.688c0-2.492-1.1-4.536-3.3-6.136-6.52-4.76-22.376-2.364-30.996-6.108-2.464-1.148-4.352-2.608-5.628-4.4a10.196 10.196 0 0 1-1.852-4.804c-6.9 12.24-.784 24.84 13.188 29.944zm67.612-7.66c2.628-3.56 4.096-7.524 4.096-11.708 0-4.18-1.468-8.152-4.096-11.708zm-6.596-29.84C88.96 39.744 76.976 36 63.62 36a67.48 67.48 0 0 0-16.308 1.96c3.12.296 6.2.936 9.172 1.908C73.696 45.46 87.7 62.2 97.072 75.508zm6.596 29.84V52.084c2.628 3.556 4.096 7.528 4.096 11.708 0 4.184-1.468 8.148-4.096 11.708zm-6.596-29.84l.02 29.844C87.7 62.2 73.696 45.46 56.484 39.868a42.464 42.464 0 0 0-9.172-1.908A67.48 67.48 0 0 1 63.62 36c13.36 0 25.34 3.744 33.432 9.66z"/></svg>