<svg width="64" height="64" viewBox="0 0 128 128" xmlns="http://www.w3.org/2000/svg"><path d="M64 128C28.652 128 0 99.348 0 64S28.652 0 64 0s64 28.652 64 64-28.652 64-64 64zm26-51.384c0-10.092-6.304-15.792-21.052-19.344v-17.76c4.56.936 8.924 2.9 13.192 5.984l5.436-8.784a37.96 37.96 0 0 0-18.24-7.104V24h-8.44v5.42c-12.128.936-20.372 7.852-20.372 17.944 0 10.56 6.596 15.7 20.76 19.252v18.32c-6.308-.936-11.544-3.74-17.076-8.04L38 85.4a45.98 45.98 0 0 0 22.896 9.256V104h8.44v-9.252C81.656 93.72 90 86.896 90 76.616zM61.28 55.308c-7.468-2.148-9.308-4.672-9.308-8.6 0-4.108 3.2-7.38 9.312-7.848zm17.272 21.96c0 4.488-3.492 7.572-9.604 8.04V68.392c7.568 2.152 9.604 4.672 9.604 8.88z"/></svg>