<svg width="64" height="64" viewBox="0 0 128 128" xmlns="http://www.w3.org/2000/svg"><path d="M64 128C28.652 128 0 99.348 0 64S28.652 0 64 0s64 28.652 64 64-28.652 64-64 64zm-1-18a47 47 0 0 0 47-47c0-25.96-21.04-47-47-47S16 37.04 16 63s21.04 47 47 47zm-2.8-64.44V42.6a2.82 2.82 0 0 1 5.64 0v2.76a10.6 10.6 0 0 1 9.52 8 1.68 1.68 0 0 1-1.24 2h-1.88a3.2 3.2 0 0 1-2.88-1.84A6.56 6.56 0 0 0 63 50.28c-4 0-6.4 2.48-6.4 4.72 0 2.24 1.88 3.56 5.88 4.56l4 .88c6.92 1.48 9.84 4.4 9.84 9.48a10.48 10.48 0 0 1-10.36 10.32v3.4a2.82 2.82 0 0 1-5.64 0v-3.36a10.92 10.92 0 0 1-10.44-8.32A1.4 1.4 0 0 1 51 70.32h2.36a2.72 2.72 0 0 1 2.44 1.56 7.6 7.6 0 0 0 7.2 3.64c4 0 7.08-2.4 7.08-4.84s-1.76-3.88-6.04-4.88l-4.4-1.04c-6.28-1.32-9.24-4.48-9.24-9.32a10.32 10.32 0 0 1 9.8-9.88zM27.76 63a35.16 35.16 0 0 1 24.12-33.36 1.68 1.68 0 0 1 2.24 1.6v.92a3.72 3.72 0 0 1-2.32 3.44 29.44 29.44 0 0 0 0 54.6 3.76 3.76 0 0 1 2.32 3.48v.84a1.8 1.8 0 0 1-1.8 1.8h-.56a35.16 35.16 0 0 1-24-33.32zm70.48 0a35.16 35.16 0 0 1-23.96 33.36 1.88 1.88 0 0 1-2.48-1.76v-.68a4 4 0 0 1 2.4-3.56 29.44 29.44 0 0 0 0-54.56 4 4 0 0 1-2.44-3.6v-.6c0-1.04.84-1.88 1.88-1.88h.6a35.16 35.16 0 0 1 24 33.28z"/></svg>