<svg width="64" height="64" viewBox="0 0 128 128" xmlns="http://www.w3.org/2000/svg"><path d="M64 128C28.652 128 0 99.348 0 64S28.652 0 64 0s64 28.652 64 64-28.652 64-64 64zM24 32v.04c4.7 20.92 9.4 41.84 14.108 62.752h15.908L68.124 32H55.308l-7.616 38.8c-.548 2.62-.96 5.28-1.616 7.88a31.112 31.112 0 0 1-.464-1.964L37.252 32c-4.42.012-8.84.012-13.252 0zm49.256 19.728v-.004c-3.172 3.872-4.056 9.048-4.428 13.936-.28 5.012-.244 10.06.348 15.048.592 4.332 2.084 8.852 5.504 11.704 3.68 3.108 8.692 3.736 13.308 3.56 4.248-.172 8.736-1.588 11.52-5.052 2.776-3.332 3.56-7.812 3.8-12.052H92.652c-.384 2.556-.752 5.348-2.512 7.34-1.32 1.456-3.496 1.84-5.304 1.252-1.696-.608-2.76-2.26-3.336-3.928-1.184-3.38-.96-7.024-.976-10.552H104c.004-4.78-.048-9.6-1.052-14.28-.828-3.744-2.572-7.504-5.752-9.728-3.592-2.528-8.16-2.912-12.4-2.616-4.296.28-8.752 1.868-11.54 5.372zm9.096 4.98h.004c1.98-2.968 7.164-2.96 8.8.356 1.324 2.68 1.304 5.78 1.492 8.712H80.52c-.032-3.084.016-6.452 1.832-9.068z"/></svg>