<svg width="64" height="64" viewBox="0 0 128 128" xmlns="http://www.w3.org/2000/svg"><path d="M64 128C28.652 128 0 99.348 0 64S28.652 0 64 0s64 28.652 64 64-28.652 64-64 64zm26.52-60.328c-1.44-.376-2.88-.692-4.384-1.068C92.124 57.616 98.044 48.72 104 39.728a4.268 4.268 0 0 0-.544-.032c-3.808 0-7.62 0-11.428-.032-.576 0-.768.28-1.024.66-7.04 10.62-14.084 21.248-21.128 31.888-1.92 2.916-3.872 5.828-5.888 8.868a3.92 3.92 0 0 1-.448-.628A26135.884 26135.884 0 0 0 37.288 40.36a1.308 1.308 0 0 0-1.248-.72c-3.616.028-7.232 0-10.852.028-.224 0-.48.032-.832.064 5.86 8.896 11.588 17.668 17.384 26.532-.224.064-.352.064-.48.096-2.692.688-5.38 1.28-8.036 2.1s-5.216 1.88-7.3 3.76c-2.624 2.348-2.56 4.792.16 7.08.096.092.224.152.32.248 1.86 1.472 4 2.44 6.244 3.228 7.076 2.536 14.468 3.508 21.96 4.04a1.32 1.32 0 0 1 1.12.656A1089.012 1089.012 0 0 0 63.956 100c.172-.284.36-.56.576-.816 2.624-3.916 5.216-7.832 7.84-11.744a1.368 1.368 0 0 1 .864-.6c3.748-.468 7.524-.78 11.24-1.344 4.576-.688 9.056-1.848 13.28-3.884 1.668-.784 3.236-1.72 4.388-3.196 1.312-1.692 1.408-3.384-.032-4.98a18.812 18.812 0 0 0-3.2-2.476c-2.596-1.6-5.476-2.504-8.388-3.288zm-54.928 7.52a2.068 2.068 0 0 1 .032-2.916 8.908 8.908 0 0 1 2.464-2.004 36.666 36.666 0 0 1 4.452-1.788.924.924 0 0 1 .8.252c2.592 3.916 5.152 7.864 7.748 11.78.032.06.032.156.096.376-4.58-.692-9-1.472-13-3.6a10.368 10.368 0 0 1-2.592-2.104zm50.416 3.38c-2.784.784-5.632 1.412-8.448 2.1a3.076 3.076 0 0 1-.768 0c.992-1.504 1.952-2.976 2.912-4.416a541.287 541.287 0 0 0 4.576-6.892c.288-.44.576-.628 1.056-.376 1.412.688 2.852 1.344 4.228 2.036.4.24.768.536 1.088.876 1.28 1.316 1.28 2.76 0 4.04a10.669 10.669 0 0 1-4.64 2.632zM86.04 36H41.9l22.216 34.928z"/></svg>