<svg width="64" height="64" viewBox="0 0 128 128" xmlns="http://www.w3.org/2000/svg"><path d="M64 128C28.652 128 0 99.348 0 64S28.652 0 64 0s64 28.652 64 64-28.652 64-64 64zm28.196-86.892c-6.656 11.088-26.108 39.34-28.144 41.76C62.1 80.484 43.82 53.788 35.728 40.98a6.292 6.292 0 0 0-8.808-1.94 6.588 6.588 0 0 0-1.9 8.992c8.188 12.964 15.36 23.94 21.08 32.144C55.728 93.988 57.248 98 64 98s8.776-4.544 18.14-17.788c6.412-9.072 14.104-20.952 20.92-32.304a6.584 6.584 0 0 0-2.104-8.948c-3-1.88-6.92-.92-8.76 2.148z"/></svg>