<svg width="64" height="64" viewBox="0 0 128 128" xmlns="http://www.w3.org/2000/svg"><path d="M64 128C28.652 128 0 99.348 0 64S28.652 0 64 0s64 28.652 64 64-28.652 64-64 64zm47.592-69.892a48.012 48.012 0 0 0-11.12-25.248A47.44 47.44 0 0 0 85.016 20.9a47.856 47.856 0 0 0-25.64-4.628A47.936 47.936 0 0 0 20.88 43.024a48.052 48.052 0 0 0-4.256 28.412 47.824 47.824 0 0 0 11.88 24.8c8.98 10.008 22.364 15.86 35.808 15.704a47.948 47.948 0 0 0 47.28-53.832zm-14.616-10.36a6.052 6.052 0 0 0-.568.972L75.296 93.192c-1.012 2.124-2.028 4.272-3.18 6.32-5.228-.04-10.456-.02-15.688-.02-8.332-17.152-16.624-34.32-24.976-51.452-.172-.332-.348-.684-.524-1.016.136-.096.448-.272.584-.352 3.26-4.056 6.56-8.096 9.836-12.156.408-.524.88-1.032 1.344-1.5.216.348.428.7.604 1.092a1753.6 1753.6 0 0 0 5.52 12.544c1.88 0 3.748.04 5.64-.08.684.648 1.056 1.508 1.328 2.384.352-.896.488-1.852.528-2.828.604-5.6.704-11.26 1.308-16.86.096-1.208 1.912-1.208 2.068-.04.584 5.308.72 10.676 1.152 16 .08 1.6.136 3.2.488 4.76.8-1.052.544-2.904 2.008-3.336 1.212-.408 2.576.276 3.728-.448 1.58-.956 2.164-2.828 3.16-4.292.568-.956 1.872-1.64 2.928-1.092 1.052.408 1.5 1.54 2.048 2.44.624 1.032 1.192 2.184 2.204 2.868.9.388 1.912.448 2.888.428 1.972-4.448 4-8.88 6.012-13.308 3.512 4.412 6.828 8.96 10.34 13.368.528.232.624.624.332 1.132zm-24.68-5.584c-1.584 1.72-2.148 4.488-4.512 5.368-1.208.584-2.672.096-3.88.548-1.056 2.068-.92 4.504-1.72 6.652-.544 1.016-2.184.508-2.184-.604-.68-5.836-.74-11.728-1.364-17.56-.664 5.248-.84 10.552-1.66 15.76 0 1.352-2.128 1.564-2.32.22-.412-1.52-.508-3.12-1.272-4.548a134.02 134.02 0 0 0-3.96 0c4.976 11.28 9.912 22.556 14.888 33.836 5.036-11.28 10.244-22.48 15.24-33.776l.02-.04c-1.308-.16-2.732-.292-3.824-1.112-1.52-1.268-2.108-3.3-3.456-4.744z"/></svg>