<svg width="64" height="64" viewBox="0 0 128 128" xmlns="http://www.w3.org/2000/svg"><path d="M64 128C28.652 128 0 99.348 0 64S28.652 0 64 0s64 28.652 64 64-28.652 64-64 64zm23.56-98.128c.224-.868.224-1.2-.028-1.508-.428-.508-.832-.484-1.336.08-.328.356-.428.968-.428 2.4 0 3.136-.4 3.496-1.74 1.604-.48-.688-1.008-1.148-1.312-1.148-.252 0-.48.052-.48.104a3.04 3.04 0 0 1-.148.484c-.076.204.2.74.656 1.224 1.236 1.356 1.588 2.248 1.712 4.32.104 1.86.08 2.012-.908 3.98-1.308 2.656-2.168 4.8-2.568 6.432-.328 1.432-.404 1.508-1.136 1-.96-.668-3.024-1.228-5.092-1.38-1.16-.08-2.092-.104-2.092-.028 0 .256.528 3.168.68 3.6.1.436.328.46 2.168.308 3.932-.308 5.8-.692 6.352-1.304.68-.764 1.716-2.732 2.8-5.412 1.26-3.088 2.32-5.184 2.92-5.848.308-.332 1.592-.996 2.904-1.504 1.84-.716 2.344-1.024 2.344-1.404 0-.82-.76-.868-2.12-.156-1.08.588-1.308.64-1.612.332-.504-.508-.124-1.096 1.764-2.732 2.272-1.964 2.448-2.348 1.336-2.78-.832-.308-1.436.048-2.12 1.248-.704 1.304-1.912 2.452-2.392 2.248-.48-.2-.556-2.424-.124-4.16zM67.516 40.568c-.176-1.992-.48-2.576-1.54-3.04-.908-.38-2.12-.408-3.78-.1-4.008.716-5.22 1.1-7.92 2.48-2.644 1.352-2.948 1.58-3.476 2.652-.96 1.84-.88 2.504.28 3.168 1.76.992 2.164 1.556 2.164 2.96 0 .688-.124 1.48-.3 1.736-.58.944 2.392 6.204 5.216 9.14.908.972 1.716 1.992 1.792 2.32.176.668-.024 3.372-.4 5.16a12.6 12.6 0 0 0 1.96 9.624c2.6 3.88 5.928 5.132 9.156 3.424 1.612-.868 2.392-1.864 3.1-4.06 1.388-4.264 1.488-8.504.304-12.152-.784-2.4-.96-3.5-1.792-11.26-.78-7.148-.984-8.248-1.716-8.552-.3-.104-.932-.36-1.384-.536-1.136-.412-1.488-1.072-1.664-2.96zm-23.852 9.524c0-1.304-.452-2.708-.984-3.14-.452-.36-1.108-.436-1.36-.152-.376.38-.124 1.708.58 3.14.808 1.608.932 2.528.456 3.012-.68.688-1.412.384-4.012-1.76-.78-.64-1.74-.46-1.74.304 0 .588 1.136 1.352 2.9 1.916.708.228 1.464.64 1.716.944.428.512.452.56.024.868-.28.204-.808.256-1.512.152a5.548 5.548 0 0 0-1.74.028c-.528.128-.656.304-.58.868.076.64.176.688 1.084.664a13.92 13.92 0 0 0 2.196-.232l1.184-.2 1.94 1.808c1.06 1 2.32 2.376 2.772 3.092 1.16 1.736 2.52 3.088 3.128 3.088.528 0 1.94-1.736 3.2-3.96 1.136-1.96 1.264-2.576.984-4.592l-.28-1.788-1.76 2.988c-1.388 2.372-1.892 2.984-2.32 3.012-.708 0-2.32-1.684-3.1-3.216-.784-1.584-.784-3.96-.028-5.212.556-.92.708-2.4.28-2.68-.504-.332-1.24.436-1.64 1.712-.252.74-.528 1.456-.656 1.584-.304.332-.732-.948-.732-2.248zm46.112 23c1.564-1.656 2.572-3.24 2.496-3.88-.048-.404-.28-.508-1.08-.56-1.212-.024-1.388 0-4.288 1-5.6 1.912-10.412 4.976-12.08 7.708-.452.716-.452.74 0 .56 3.56-1.48 8.472-3.24 8.6-3.112.228.2-4.64 9.268-5.268 9.8-.784.692-.884 1.124-.328 1.584.276.256 1.008.232 3.528-.1 5.32-.692 6.128-.588 10.564 1.48 2.192 1.02 2.8 1.12 3.024.512.2-.536-.176-1-1.184-1.404-2.22-.868-2.016-1.76.428-1.76 1.36 0 5.12.684 6.228 1.144.252.104.68-.1 1.136-.48.704-.64.728-.668.252-1.052-.38-.28-1.212-.38-3.456-.38-2.496 0-3.024-.08-3.528-.488l-.58-.48.832-.516c.452-.28 1.916-.764 3.252-1.072 4.84-1.072 6.076-1.656 5.572-2.6-.604-1.152-1.64-1.048-5.42.66-2.22 1-4.312 1.508-4.54 1.124-.4-.664.304-1.56 2.572-3.268 1.312-.996 2.472-1.992 2.548-2.196.176-.508-.632-1.376-1.312-1.376-.808 0-1.716.816-3.052 2.704-.68.972-1.588 1.916-2.216 2.272-1.084.64-2.02.816-2.272.436-.048-.104.38-1.048 1.012-2.096.492-.784.916-1.612 1.26-2.476.2-.764-.028-1.352-.532-1.352-.756 0-1.588 1.172-1.888 2.704-.18.82-.432 1.76-.608 2.068-.376.744-2.444 2.936-3.58 3.832-.908.688-4.888 2.452-5.092 2.248-.2-.204.28-.82 4.968-6.488 1.588-1.912 3.4-4.032 4.032-4.696zm-57.808 9.02a42.68 42.68 0 0 1-1.792-2.936c-.932-1.632-1.108-1.788-1.892-1.864a2.34 2.34 0 0 0-1.384.308c-.456.332-.456.408-.128 1.044.2.384 1.16 1.38 2.144 2.2 2.696 2.244 4.412 5.588 2.976 5.792-.784.128-2.22-.716-4.288-2.476-.98-.868-1.992-1.56-2.216-1.56-.68 0-1.388.512-1.388 1 0 .612.328.868 2.22 1.632a18.835 18.835 0 0 1 5.496 3.396c1.488 1.404 1.308 1.712-.908 1.48-1.212-.1-1.764-.076-1.892.156-.376.612.632 1.096 3.76 1.812 1.736.408 3.652.968 4.232 1.276 1.36.716 3.708 2.96 5.192 5 1.188 1.664 1.92 2.02 2.572 1.228.152-.2.432-1.172.532-2.144.1-.968.832-3.676 1.612-6 1.488-4.544 1.664-5.82 1.036-7.888-.2-.664-.304-1.252-.2-1.304.096-.048 1.032.08 2.064.28 3.152.616 5.696.308 10.92-1.3 2.392-.764 2.64-1.072 1.432-1.94-1.132-.816-9.604-2.04-14.168-2.04-2.772 0-2.924.1-3.628 2.296-.38 1.2-.432 2.476-.456 8.86-.024 4.08-.1 7.532-.228 7.632-.58.588-1.74-2.168-2.216-5.26-.328-2.272-.2-3.96.528-6.28.632-1.992.556-3.04-.28-3.292-1.08-.36-1.688.764-1.76 3.292-.028.944-.2 1.888-.356 2.12-.3.408-.352.408-.984-.028-.98-.64-1.184-1.376-1.46-5.384-.152-2.2-.352-3.652-.528-3.756-.456-.304-1.564-.228-1.892.104-.428.432-.38 1.456.176 3.572.604 2.324.88 4.548.556 4.548-.328 0-2.472-2.248-3.404-3.576zm36.152-43.84s-.28 2.224.252 3.476c0 0 .68 1.12 1.588 1.3 0 0 .404-2.196-.28-3.956 0 .024-.272-1.02-1.56-.816zm-18.176 7.28c-.88.944-.228 1.788-.228 1.76 1.008 1.584 3.024 2.528 3.024 2.528.38-.868-.124-2.068-.124-2.068-.732-1.148-2.672-2.22-2.672-2.22z"/></svg>