<svg width="64" height="64" viewBox="0 0 128 128" xmlns="http://www.w3.org/2000/svg"><path d="M64 0c35.348 0 64 28.652 64 64s-28.652 64-64 64S0 99.348 0 64 28.652 0 64 0zm-.3 20C39.568 20 20 39.568 20 63.7c0 24.136 19.56 43.704 43.696 43.708a43.704 43.704 0 0043.712-43.712C107.404 39.56 87.836 20 63.7 20zm-.004 3.408A40.272 40.272 0 01104 63.696c-.008 22.236-18.04 40.256-40.272 40.256-22.236 0-40.264-18.02-40.272-40.256-.008-22.236 18.004-40.272 40.24-40.288zM86.624 88.84a33.976 33.976 0 01-45.856 0l-2.4 2.4.888.792a37.408 37.408 0 0049.824-.792zM36.152 38.392a37.408 37.408 0 000 50.712l2.4-2.48-.76-.856a33.976 33.976 0 01.76-44.976zm55.12-.104v.056l-2.4 2.4.76.856a33.976 33.976 0 01-.76 45l2.4 2.4.792-.888a37.408 37.408 0 00-.792-49.824zM60.992 41.6H56.8v6.944h-8.568v4.52h.088c.504-.012 3.028-.052 2.984 0a2.184 2.184 0 012.4 1.856v19.008l-.048.292a1.48 1.48 0 01-.464.74 1.464 1.464 0 01-1.088.368c.056.048-3.072 0-3.072 0l-.8 5.048h8.488v7.056h4.224V80.48h3.376v6.92h4.232v-6.976l.784-.052c6.716-.52 11.352-2.388 11.952-8.82.504-5.376-2.024-7.776-6.064-8.744 2.456-1.208 3.976-3.448 3.632-7.112-.48-5.008-4.8-6.688-10.264-7.2V41.6h-4.224v6.768h-3.376V41.6zm.416 24.452c3.168-.04 11.528-.616 11.528 4.668 0 5.248-8.992 4.648-11.856 4.648v-9.312zm-.024-12.704c2.656-.044 9.592-.556 9.592 4.252 0 4.8-7.504 4.216-9.888 4.216v-8.464zM88.168 35.36a37.408 37.408 0 00-49.824.792l2.456 2.4.856-.76a33.976 33.976 0 0145 .76l2.4-2.4z"/></svg>