<svg width="64" height="64" viewBox="0 0 128 128" xmlns="http://www.w3.org/2000/svg"><path d="M64 128C28.652 128 0 99.348 0 64S28.652 0 64 0s64 28.652 64 64-28.652 64-64 64zm39.572-82.452C102.964 44.504 101.984 44 100.7 44c-7.876.028-15.748.08-23.624.012-1.988-.012-3.176.748-4.1 2.404-1.992 3.532-4.092 7.008-6.148 10.516-.872 1.48-1.712 2.972-2.572 4.452a1.088 1.088 0 0 1-.276.284c-.096-.092-.208-.176-.276-.28-.868-1.484-1.712-2.976-2.568-4.456-2.044-3.508-4.16-6.968-6.148-10.516-.928-1.656-2.116-2.416-4.104-2.4-7.872.064-15.748.012-23.62-.016-1.26 0-2.24.504-2.848 1.548-.62 1.06-.524 2.172.14 3.26.912 1.48 1.78 2.988 2.664 4.48 2.432 4.144 4.86 8.288 7.28 12.432 2.56 4.36 5.12 8.712 7.696 13.06 2.292 3.9 4.572 7.784 6.88 11.668.636 1.06 1.588 1.6 2.844 1.548 1.232-.056 2.1-.664 2.68-1.724a138.48 138.48 0 0 1 1.84-3.164l6.132-10.444c.456-.788.94-1.56 1.452-2.432.52.868.992 1.64 1.448 2.432l6.136 10.44c.62 1.06 1.24 2.108 1.836 3.168.58 1.06 1.452 1.668 2.68 1.724a2.96 2.96 0 0 0 2.844-1.548 13497.864 13497.864 0 0 0 21.856-37.16c.884-1.492 1.74-3 2.664-4.48.624-1.088.708-2.2.084-3.26zM60.2 68.568a1542.81 1542.81 0 0 1-6.976 11.912c-.44.76-.912 1.496-1.464 2.416L32.572 50.152c.36-.028.608-.068.856-.068 5.248-.012 10.5-.012 15.748-.04.58 0 .912.176 1.2.668 2.804 4.82 5.624 9.612 8.44 14.42.468.8.996 1.576 1.396 2.392a1.252 1.252 0 0 1-.012 1.044zm16.04 14.328c-.552-.908-1.024-1.656-1.464-2.416A3095.68 3095.68 0 0 1 67.8 68.568a1.256 1.256 0 0 1 0-1.044c.412-.828.924-1.6 1.396-2.392a11417.52 11417.52 0 0 0 8.44-14.424c.288-.488.62-.664 1.2-.664 5.248.028 10.496.028 15.748.04.248 0 .48.04.856.068-6.424 10.932-12.78 21.784-19.2 32.744z"/></svg>