<svg width="64" height="64" viewBox="0 0 128 128" xmlns="http://www.w3.org/2000/svg"><path d="M67.58 69.196l-34.5 26.776L88 72.472l3.184-1.352-.004-.012 5.14-2.2.26-13.056 7.42 2.052-5.656-12.584-15.272 11.852-10.876-18.696L24 36l36.732 9.844.932 3.18-32.112-1.652 28.896 7.74 4.988 17.3zM64 128C28.652 128 0 99.348 0 64S28.652 0 64 0s64 28.652 64 64-28.652 64-64 64zm3.58-58.804l-4.144 3.216-4.988-17.3-28.896-7.74 32.112 1.652zm0 0l3.112 10.608L88 72.472l-54.92 23.5zm15.492-12.024L98.344 45.32 104 57.904l-7.42-2.052-.26 13.056-5.14 2.2z"/></svg>