<svg width="64" height="64" viewBox="0 0 128 128" xmlns="http://www.w3.org/2000/svg"><path d="M90.664 39.08a6.584 6.584 0 1 0 5.832-9.64 6.584 6.584 0 0 0-6.48 7.752l-10.632 3.644a3.58 3.58 0 0 0-5.192-.716l-7.008-4.84a2.72 2.72 0 0 0-2.64-3.32 2.712 2.712 0 0 0-2.572 3.564L48.924 46.492a1.468 1.468 0 0 0-.408.012L35.236 36.6a2.524 2.524 0 0 0-2.452-3.096 2.52 2.52 0 1 0 1.256 4.7l13.28 9.9a1.452 1.452 0 0 0 2.892-.084l13.044-10.968a2.7 2.7 0 0 0 2.792-.132l7.004 4.84a3.58 3.58 0 1 0 6.98.964l10.632-3.644zM64 128C28.652 128 0 99.348 0 64S28.652 0 64 0s64 28.652 64 64-28.652 64-64 64zm39.524-62.272c-3.684-.96-7.512-1.12-11.292-1.324a52.343 52.343 0 0 1 1.216-3.352c.12-.372.468-.568.792-.744 1.776-.936 3.54-1.9 5.328-2.82.448-.272 1.012-.46 1.272-.948.104-.76-.412-1.4-.768-2.012-1.184-1.844-2.264-3.764-3.572-5.528-.456-.64-1.36-.624-1.984-.284-2.472 1.14-4.932 2.3-7.408 3.44-.476.224-.972.428-1.392.756-.464.38-.688.96-.888 1.508-1.16 3.324-2.412 6.612-3.596 9.928-.088.248-.212.576-.532.576-2.56.18-5.104.504-7.652.804l-4.432-11.896c-.208-.712-.792-1.32-1.576-1.304-2.056-.028-4.116-.016-6.176-.02-.496.036-1.144-.04-1.448.456-.468.832-.652 1.78-1 2.664-1.788 4.628-3.528 9.28-5.26 13.928-1.456.372-2.888.84-4.368 1.12-1.904-5.152-3.824-10.296-5.692-15.46-.3-.74-.492-1.548-.956-2.208-.376-.48-1.024-.52-1.588-.52-2.332.016-4.664.052-6.996.068-.616.016-1.332-.032-1.812.436-.272.98.296 1.904.6 2.804 2.184 6.016 4.46 12 6.612 18.032a113.12 113.12 0 0 0-7.168 2.84c-.576.284-1.2.488-1.72.868-1.38.52-2.652 1.284-3.94 1.992-2.288 1.36-4.596 2.844-6.256 4.968-.76 1.024-1.416 2.412-.884 3.688.48 1.32 1.772 2.072 2.972 2.652 1.776.784 3.68 1.248 5.588 1.56 5.78.808 11.644.764 17.452.34a3.88 3.88 0 0 1 1.096.128c.32 1.02.504 2.16 1.24 2.984.348.432.932.268 1.38.124 1.664-.536 3.34-1.016 5.012-1.524 1.328-.28 1.736-1.72 2.156-2.82A187.88 187.88 0 0 0 69.94 89.08c8.384-1.868 16.692-4.224 24.636-7.512 3.136-1.352 6.24-2.808 9.104-4.668 1.896-1.268 3.82-2.664 5.02-4.648.72-1.168.812-2.864-.176-3.908-1.288-1.452-3.208-2.052-5-2.616zM39.76 92.136c-1.544.128-3.096.12-4.648.104-2.488-.152-4.992-.172-7.44-.704-1.904-.332-3.864-.78-5.46-1.932-.72-.524-1.364-1.328-1.344-2.26-.008-1.096.66-2.04 1.336-2.84 1.54-1.712 3.508-2.96 5.468-4.144a73.72 73.72 0 0 1 11.78-5.224 3667.705 3667.705 0 0 1 5.928 16.072l.192.556-.432.064c-1.788.204-3.584.272-5.38.308zm11-16.332a37.632 37.632 0 0 1-1.488-3.868c1.08-.328 2.16-.652 3.268-.888a62.906 62.906 0 0 1-1.78 4.756zm5.568 14.656c1.82-4.988 3.708-9.952 5.544-14.94.672-1.656 1.2-3.368 1.904-5.012.512.892.824 1.876 1.196 2.828 1.76 4.816 3.576 9.612 5.324 14.432a151.064 151.064 0 0 1-13.968 2.688zM76.916 75.9c-1.172-3.04-2.356-6.072-3.44-9.14 2.372-.372 4.752-.64 7.136-.872-1.148 3.36-2.46 6.676-3.7 10.008zm30.26-5.204c-.304 1.256-1.188 2.272-2.112 3.136-2.176 2.012-4.812 3.44-7.436 4.78a91.156 91.156 0 0 1-12.716 5.052 23.04 23.04 0 0 0 1.28-3.144c1.904-5.06 3.78-10.132 5.672-15.2 3.164 0 6.356.112 9.46.8 1.64.364 3.312.84 4.672 1.868.816.608 1.42 1.656 1.176 2.704h.004zM96.496 33.7a2.324 2.324 0 1 1 0 4.648 2.324 2.324 0 0 1 0-4.648z"/></svg>