<svg width="64" height="64" viewBox="0 0 128 128" xmlns="http://www.w3.org/2000/svg"><path d="M64 128C28.652 128 0 99.348 0 64S28.652 0 64 0s64 28.652 64 64-28.652 64-64 64zm9.656-75.336v-9.96a2.648 2.648 0 00-.08-.656 2.76 2.76 0 00-3.348-1.968l-13.792 3.376a2.712 2.712 0 00-2.092 2.624V76.3c0 .224.028.44.08.656a2.76 2.76 0 003.348 1.968l8.988-2.2V58.572c0-2.48 1.72-4.64 4.176-5.24l2.72-.668zm-30.344-.168V42.7a2.648 2.648 0 00-.084-.652 2.76 2.76 0 00-3.344-1.968l-13.796 3.376A2.712 2.712 0 0024 46.08V76.3c0 .224.028.44.08.656a2.76 2.76 0 003.348 1.968l8.296-2.032v-18.32c0-2.48 1.72-4.64 4.18-5.24l3.408-.836zM86.78 43.54a2.712 2.712 0 00-2.092 2.62v30.224a2.76 2.76 0 003.428 2.62l13.796-3.376a2.712 2.712 0 002.088-2.62V42.784a2.648 2.648 0 00-.08-.656 2.76 2.76 0 00-3.348-1.964L86.78 43.54zm-35.192 9.716l-11.016 2.696a2.712 2.712 0 00-2.088 2.62v30.224c0 .22.028.44.08.656a2.76 2.76 0 003.348 1.964l13.792-3.376a2.712 2.712 0 002.088-2.62v-3.76a5.516 5.516 0 01-6.04-4.048 5.296 5.296 0 01-.164-1.312V53.256zm30.344.168l-10.324 2.528a2.712 2.712 0 00-2.092 2.62v30.224c0 .22.028.44.08.656a2.76 2.76 0 003.348 1.964L86.74 88.04a2.712 2.712 0 002.088-2.62v-3.804l-.04.008c-2.96.724-5.952-1.036-6.692-3.928a5.296 5.296 0 01-.164-1.312v-22.96zm-30.344-.168V76.3c0 .44.052.88.16 1.312a5.52 5.52 0 006.044 4.052v3.756c0 1.24-.86 2.32-2.088 2.62l-13.792 3.376a2.76 2.76 0 01-3.348-1.964 2.648 2.648 0 01-.08-.656V58.572c0-1.24.86-2.32 2.088-2.62l11.016-2.696zm30.344.168v22.96c0 .44.056.88.16 1.312.744 2.892 3.74 4.652 6.696 3.928l.04-.008v3.8a2.72 2.72 0 01-2.088 2.624l-13.796 3.376a2.76 2.76 0 01-3.344-1.964 2.648 2.648 0 01-.08-.656V58.572c0-1.24.86-2.32 2.088-2.62l10.32-2.528z"/></svg>