<svg width="64" height="64" viewBox="0 0 128 128" xmlns="http://www.w3.org/2000/svg"><path d="M64 128C28.652 128 0 99.348 0 64S28.652 0 64 0s64 28.652 64 64-28.652 64-64 64zM56.464 24.04v15.676l7.52 7.852V24.036h-7.52zM24.04 31.968L54.592 62.86c-.484.516-.98 1.024-1.48 1.524l-29.072 29.4h14.68c.62-.012 1.248.04 1.868-.04 1.088-.012 2.172.02 3.256-.012 1.256-1.28 2.488-2.584 3.736-3.88l10.708-11.18c1.892-2 3.82-3.972 5.7-5.972.88.872 1.728 1.792 2.592 2.688 3.892 4.056 7.768 8.128 11.66 12.176 1.98 2.052 3.936 4.12 5.92 6.168 1.088.04 2.184-.008 3.28.024.384.052.78.028 1.176.028h15.32L101.176 91 74.088 63.616c-.208-.264-.456-.508-.688-.756.948-.984 1.92-1.964 2.892-2.936 9.216-9.312 18.42-18.64 27.64-27.96H84.18c-2.852 2.976-5.7 5.956-8.56 8.92-3.868 4.048-7.74 8.112-11.624 12.148-6.708-7.04-13.444-14.044-20.152-21.064H24.04zM64 78.12h.008c-.016 7.868-.016 15.732-.016 23.6h7.56c0-5.232.016-10.452 0-15.68-2.508-2.644-5.048-5.268-7.552-7.92z"/></svg>