<svg width="64" height="64" viewBox="0 0 128 128" xmlns="http://www.w3.org/2000/svg"><path d="M64 128C28.652 128 0 99.348 0 64S28.652 0 64 0s64 28.652 64 64-28.652 64-64 64zm39.968-70.116l.032-.004-15.304-25.848.008-.028H39.688l.008.032-.008-.008L24 58.252l.156.024-.128.052L64.388 104l1.704-2.08zM51.424 59.72l25.692-.044 8.488 14.54-21.452 24.648L42.74 74.416zM40.312 71.64L29.904 59.752l17.444-.028zm38.892-15.384l-12.152-20.82 19.532-.04 12.44 20.828zm19.084 3.384l-10.24 11.768-6.852-11.74zm-23.164-3.376l-21.68.036L64.36 37.82zM41.528 35.488l20.16-.04-12.32 20.856-20.24.036z"/></svg>