<svg width="64" height="64" viewBox="0 0 128 128" xmlns="http://www.w3.org/2000/svg"><path d="M64 128C28.652 128 0 99.348 0 64S28.652 0 64 0s64 28.652 64 64-28.652 64-64 64zm0-16c26.508 0 48-21.492 48-48S90.508 16 64 16 16 37.492 16 64s21.492 48 48 48zm18.452-65.396a5.117 5.117 0 011.024 3.288 11.728 11.728 0 01-.744 3.668c-.396 1.1-.96 2.128-1.672 3.052a16.336 16.336 0 01-4.744 4.108 11.384 11.384 0 01-2.24 1 .256.256 0 01.04.016l-25.072 2.468 12.568-34.536a39.344 39.344 0 00-2.52.272C42.432 32.332 29.584 46.688 29.584 64a34.314 34.314 0 009.14 23.316l-3.408 9.38A43.424 43.424 0 0120.472 64c0-23.508 18.732-42.708 42.048-43.492.488-.016.98-.04 1.476-.04.32 0 .636.028.952.028 3.252.068 6.488.496 9.644 1.284l-3.14 8.628-4.708 12.94h5.8c2.744 0 4.908.304 6.48.908 1.576.608 2.724 1.388 3.428 2.348zm-10.696 8.42a4.64 4.64 0 00.348-2.08 2.068 2.068 0 00-.604-1.32 2.94 2.94 0 00-1.28-.68 6.184 6.184 0 00-1.6-.2H64.1l-3.032 8.332h4.52a7.708 7.708 0 003.588-.912c1.18-.604 2.032-1.652 2.58-3.14zM76.8 22.392c17.776 5.48 30.728 22.06 30.728 41.608 0 24-19.524 43.528-43.528 43.528a43.288 43.288 0 01-26.824-9.28l3.324-9.14 8.14-22.324 25.304-2.496c.64.256 1.26.572 1.84.948a6.202 6.202 0 011.84 1.88c.52.86.852 1.82.968 2.82.152 1.092-.04 2.368-.564 3.816-1.428 3.912-3.824 6.76-7.192 8.536-3.364 1.784-7.668 2.672-12.916 2.672h-5.792l-3.568 9.78c.68.344 1.368.672 2.076.972a34.412 34.412 0 1023.04-64.732l3.124-8.588zm-18.56 45.9l-3.38 9.264h5.292c.668 0 1.332-.052 1.992-.144a7.848 7.848 0 002.16-.616 6.647 6.647 0 001.98-1.408 6.92 6.92 0 001.504-2.524c.352-.98.444-1.772.276-2.376a2.348 2.348 0 00-.968-1.372 4.484 4.484 0 00-1.696-.644 10.756 10.756 0 00-1.88-.18h-5.28z"/></svg>