<svg width="64" height="64" viewBox="0 0 128 128" xmlns="http://www.w3.org/2000/svg"><path d="M64 128C28.652 128 0 99.348 0 64S28.652 0 64 0s64 28.652 64 64-28.652 64-64 64zM24 36.064c0 .04 5.868 10.04 13.04 22.228C46.288 74.008 50.1 80.448 50.144 80.44c.06-.012 26.12-44.32 26.12-44.4 0-.024-5.464-.04-12.288-.04-10.536 0-12.292.008-12.292.056 0 .032 2.532 4.32 5.624 9.524s5.632 9.496 5.64 9.52c.008.024-.464.852-1.04 1.84l-1.056 1.8-.112-.184-6.752-11.36-6.64-11.176-11.676-.012C24.84 36 24 36.004 24 36.064zm56.56-.036c-.432.708-28.228 48.068-28.248 48.112-.024.096 11.616 19.876 11.692 19.86.048-.012 11.76-19.852 11.796-19.992.012-.04-2.256-3.896-5.32-9.06a2367.92 2367.92 0 0 1-5.356-9.024c-.016-.048 2.08-3.612 2.12-3.592.012.008 2.416 4.044 5.344 8.968 4.104 6.908 5.328 8.944 5.384 8.936.052-.008 4.4-7.364 13.036-22.032a6588.44 6588.44 0 0 0 12.976-22.116L104 36H92.288c-6.44 0-11.72.012-11.732.028z"/></svg>