<svg width="64" height="64" viewBox="0 0 128 128" xmlns="http://www.w3.org/2000/svg"><path d="M64 128C28.652 128 0 99.348 0 64S28.652 0 64 0s64 28.652 64 64-28.652 64-64 64zm29.92-88H77.744a2.464 2.464 0 0 0-1.76.744l-29.5 30.116a2.464 2.464 0 0 1-1.76.744h-5.408a2.464 2.464 0 0 1-1.76-.744l-3.824-3.896A2.556 2.556 0 0 1 33 65.176v-5.508a2.56 2.56 0 0 1 .732-1.792l3.824-3.896a2.468 2.468 0 0 1 1.76-.744h5.408c.66 0 1.292.268 1.76.744l2.348 2.392a2.456 2.456 0 0 0 3.52 0l5.676-5.776a2.568 2.568 0 0 0 0-3.584l-6.16-6.268a2.468 2.468 0 0 0-1.76-.744H33.932a2.468 2.468 0 0 0-1.76.744l-11.44 11.648a2.56 2.56 0 0 0-.728 1.792v16.472c0 .672.264 1.32.728 1.792L32.172 84.1a2.468 2.468 0 0 0 1.76.74h16.18a2.468 2.468 0 0 0 1.76-.744l29.5-30.112a2.468 2.468 0 0 1 1.76-.748h5.408c.66 0 1.292.268 1.76.744l3.824 3.896a2.56 2.56 0 0 1 .732 1.792v5.508a2.56 2.56 0 0 1-.732 1.788L90.3 70.86a2.464 2.464 0 0 1-1.76.744h-5.408a2.464 2.464 0 0 1-1.76-.744l-2.368-2.412a2.456 2.456 0 0 0-3.5-.02l-7 6.968a2.56 2.56 0 0 0-.748 1.812v16.16c0 1.4 1.116 2.536 2.488 2.536h8.16a2.512 2.512 0 0 0 2.492-2.532v-6c0-1.4 1.116-2.532 2.488-2.532h10.54a2.468 2.468 0 0 0 1.76-.74l11.44-11.652a2.56 2.56 0 0 0 .732-1.792V54.184a2.56 2.56 0 0 0-.728-1.792l-11.44-11.648a2.468 2.468 0 0 0-1.76-.744z"/></svg>