<svg width="64" height="64" viewBox="0 0 128 128" xmlns="http://www.w3.org/2000/svg"><path d="M64 128C28.652 128 0 99.348 0 64S28.652 0 64 0s64 28.652 64 64-28.652 64-64 64zM53.236 48v32h10.952c5.288 0 14.732-3.212 14.732-16s-9.44-16-14.732-16zm6.04 25.52V54.48h4.536c3.776 0 8.308 2.312 8.308 9.52s-4.532 9.52-8.308 9.52zM83.08 48v32h2.264V52.512L105.732 80H108V48h-2.268v28.104L85.34 48zM20 48v8h7.552v-8zm11.332 0v8h7.548v-8zm11.328 0v8h7.556v-8zm0 12v8h7.556v-8zm0 12v8h7.556v-8zM31.332 60v8h7.548v-8z"/></svg>