<svg width="64" height="64" viewBox="0 0 128 128" xmlns="http://www.w3.org/2000/svg"><path d="M64 128C28.652 128 0 99.348 0 64S28.652 0 64 0s64 28.652 64 64-28.652 64-64 64zM24.58 47.816c.336 2.8.824 5.592 1.46 8.372.1.444.232.836.4 1.2a18.12 18.12 0 0 0 33.88-2.684c.44-1.58.652-3.268.72-5.412A24.02 24.02 0 0 1 73.716 28.58a104.252 104.252 0 0 0-8.06-.56 80.884 80.884 0 0 0-25.048 3.408A80.14 80.14 0 0 0 24 38.548c.008 3.036.2 6.12.58 9.268zm66.452 34.24a80.588 80.588 0 0 0 12.656-36.86c.2-2.28.304-4.492.312-6.656a78.392 78.392 0 0 0-5.424-2.816c-3.052-1.428-5.556-2.448-8.032-3.228a17.872 17.872 0 0 0-9.748-.332A18.072 18.072 0 0 0 67.268 53.04c.976 5.224 3.748 9.272 8.296 12.16a28.3 28.3 0 0 0 .956.584 23.732 23.732 0 0 1 8.588 9.048c1.964 3.632 2.944 7.496 2.916 11.56a78.264 78.264 0 0 0 3.008-4.336zM78.884 96.748a2.324 2.324 0 0 0 .472-.648l.176-.348c.36-.708.512-1.004.688-1.372 2.08-4.34 2.472-8.744 1.132-13.228a18.08 18.08 0 0 0-19.608-12.824c-2.396.3-4.672 1.064-6.824 2.28a24.108 24.108 0 0 1-24.136-.052A81.384 81.384 0 0 0 47.036 94.68a81.5 81.5 0 0 0 12.9 10.764c1.636 1.1 3.236 2.096 4.072 2.556a82.088 82.088 0 0 0 14.88-11.252z"/></svg>