<svg width="64" height="64" viewBox="0 0 128 128" xmlns="http://www.w3.org/2000/svg"><path d="M64 128C28.652 128 0 99.348 0 64S28.652 0 64 0s64 28.652 64 64-28.652 64-64 64zm28.52-90.832l-9.6 4.896-46.392 23.628a27.636 27.636 0 0140.872-27.7l5.496-2.8.82-.42A33.756 33.756 0 0030.232 64.66a6.14 6.14 0 01-3.336 5.936l-2.9 1.48v6.896l8.536-4.352 2.764-1.412 2.724-1.388L86.924 46.9l5.496-2.796 11.36-5.788v-6.892l-11.26 5.744zm11.264 8.048L40.804 77.28l-5.496 2.8L24 85.852v6.892l11.232-5.72 9.604-4.896 46.44-23.664a27.636 27.636 0 01-40.916 27.72l-.34.18-5.96 3.04a33.756 33.756 0 0053.488-29.9 6.144 6.144 0 013.332-5.932l2.904-1.48V45.22z"/></svg>