<svg width="64" height="64" viewBox="0 0 128 128" xmlns="http://www.w3.org/2000/svg"><path d="M51.116 54.108c-6.756-1.424-16.668-.228-26.56 12.668-.476.624-.712 1.568.588 1.156 3.128-.988 9.6-2.12 17.408 1.692l-.212.384c-1.496 2.656-.664 4.104 2 6.024l.008.004c-.94.676-1.78 1.524-2.48 2.54-.08.116-.144.236-.22.356-5.672 8.512-6.624 17.944-2.072 21.224 4.552 3.288 12.9-.812 18.82-9.144.08-.112.172-.216.252-.328a10.652 10.652 0 0 0 1.508-3.276l.212.156c2.668 1.92 4.284 2.236 6.228-.1l.4-.472c6.316 6.16 7.472 12.752 7.608 16.068.056 1.36.844.824 1.26.168 8.76-13.92 6.22-23.8 2.5-29.64 3.272-3.92 6.92-8.368 10.564-12.968 10.196-12.852 3.976-34.968 2.752-35.848l-.016.016.008-.024c-1.22-.88-23.704.588-32.112 14.72a690.872 690.872 0 0 0-8.444 14.624zm-4.184 23.788l5.424 3.904 5.936 4.272a7.304 7.304 0 0 1-.692 1.212c-.056.08-.12.152-.18.228-4.168 5.736-10.016 8.572-13.184 6.344-3.172-2.236-2.468-8.7 1.528-14.56.052-.08.096-.16.152-.24a7.282 7.282 0 0 1 1.016-1.16zM64 128C28.652 128 0 99.348 0 64S28.652 0 64 0s64 28.652 64 64-28.652 64-64 64zm2.66-85.184a8.98 8.98 0 0 1 12.656-2.232 9.344 9.344 0 0 1 2.196 12.876 8.98 8.98 0 0 1-12.656 2.232 9.348 9.348 0 0 1-2.196-12.88z"/></svg>