<svg width="64" height="64" viewBox="0 0 128 128" xmlns="http://www.w3.org/2000/svg"><path d="M64 128C28.652 128 0 99.348 0 64S28.652 0 64 0s64 28.652 64 64-28.652 64-64 64zM90.728 28h-20.64l-6.136 10.608L57.836 28H37.188L16 64.7l20.516 35.52 13.908-24.076L64 99.584l13.536-23.44 13.94 24.24L112 64.864 90.728 28zm-54.24 58.176L24.08 64.712l9.868-17.088 12.4 21.48-9.864 17.092v-.02zm1.536-45.608l3.272-5.684H53.66l6.22 10.772-9.456 16.396-12.4-21.484zm25.92 44.928l-9.448-16.408L63.952 52.7l4.224 7.3 5.24 9.092-9.464 16.388-.008.02zm4.068-39.84l6.232-10.772h12.364l3.312 5.68-12.48 21.488-9.428-16.4zm31.872 26.148l-8.372 14.524-9.952-17.28 12.4-21.436 3.344 5.76 6.612 11.452-4.032 6.98z"/></svg>