<svg width="64" height="64" viewBox="0 0 128 128" xmlns="http://www.w3.org/2000/svg"><path d="M64 128C28.652 128 0 99.348 0 64S28.652 0 64 0s64 28.652 64 64-28.652 64-64 64zm28-49.84l-2.964-.904a32.88 32.88 0 0 1-1.992 4.088 22.408 22.408 0 0 1-2.46 3.492 11.68 11.68 0 0 1-3.14 2.616c-1.208.692-2.544 1.04-4 1.04h-29.62l25.952-29.46v-1.256L52.78 31.616h14.012c1.976 0 3.672.08 5.092.252 1.416.172 2.528.452 3.336.844 1.144.472 2.444 1.672 3.9 3.596 1.46 1.924 3.228 4.824 5.308 8.7h3.16L85.876 28H36.548v3.968L63.16 65.472 36 96.348V100h50.068z"/></svg>