<svg width="64" height="64" viewBox="0 0 128 128" xmlns="http://www.w3.org/2000/svg"><path d="M64 128C28.652 128 0 99.348 0 64S28.652 0 64 0s64 28.652 64 64-28.652 64-64 64zm-.12-107.06a43.264 43.264 0 0 0-43.288 43.296c0 4.808.82 9.384 2.228 13.728h12.908V41.588l28.16 28.16 28.16-28.16v36.376h12.904a44.28 44.28 0 0 0 2.232-13.728c0-23.936-19.36-43.296-43.296-43.296zm-6.448 55.14l-12.32-12.32v22.88H26.924c7.624 12.44 21.352 20.768 36.96 20.768 15.604 0 29.448-8.328 36.96-20.768H82.656V63.76l-12.2 12.32L64 82.54l-6.572-6.456z"/></svg>