<svg width="64" height="64" viewBox="0 0 128 128" xmlns="http://www.w3.org/2000/svg"><path d="M64 128C28.652 128 0 99.348 0 64S28.652 0 64 0s64 28.652 64 64-28.652 64-64 64zm23.84-55.18c-2.76-1.632-5.868-2.104-8.948-2.216-2.584-.092-6.44-1.788-6.44-6.6 0-3.592 2.84-6.48 6.44-6.608 3.08-.108 6.192-.584 8.952-2.216 6.852-4.056 9.88-12.564 7.172-20.184-2.708-7.62-10.364-12.148-18.16-10.74-7.796 1.408-13.48 8.344-13.48 16.456 0 3.236 1.128 6.216 2.56 8.976 1.208 2.324 1.816 6.64-2.32 9.084-3.08 1.82-6.92.668-8.84-2.476-1.616-2.656-3.572-5.144-6.312-6.764-6.852-4.056-15.56-2.48-20.648 3.728a17.02 17.02 0 0 0 0 21.48c5.088 6.212 13.796 7.784 20.648 3.728 2.74-1.616 4.696-4.104 6.316-6.76 1.328-2.18 4.648-4.96 8.836-2.48 3.072 1.82 4.024 5.8 2.32 9.084-1.436 2.76-2.56 5.74-2.56 8.98 0 8.108 5.684 15.044 13.48 16.452 7.796 1.408 15.452-3.12 18.16-10.74 2.704-7.62-.32-16.128-7.172-20.184z"/></svg>