<svg width="64" height="64" viewBox="0 0 128 128" xmlns="http://www.w3.org/2000/svg"><path d="M64 128C28.652 128 0 99.348 0 64S28.652 0 64 0s64 28.652 64 64-28.652 64-64 64zm.56-104.58l32.676 18.82 9.828-5.712L64.56 12v11.42zm33.328 57.668l9.924 5.712V37.744l-9.92 5.712v37.632zM64.56 101.124v11.42l42.504-24.528-9.828-5.708-32.676 18.816zM20.656 88.016l42.5 24.528v-11.42L30.58 82.308l-9.924 5.708zM20 37.744V86.8l9.828-5.712V43.456L20 37.744zm.656-1.216l9.92 5.712 32.58-18.82V12l-42.5 24.528zm43.296-12.032L31.188 43.32v37.82l32.764 18.912L96.624 81.14V43.32L63.952 24.5zm26.308 33.8l-1.404 2.432-9.36-5.24-11.984 6.736 11.98 6.74 9.36-5.24 1.408 2.432-7.864 4.4 7.864 4.4-1.404 2.436-7.864-4.4v8.8h-2.904V71.4l-11.98-6.74v13.48l9.268 5.148-1.404 2.388-7.864-4.4v8.8H63.2v-8.8l-7.864 4.4-1.496-2.432 9.36-5.152V64.66L51.216 71.4v10.392H48.22v-8.8l-7.768 4.4-1.5-2.436 7.864-4.4-7.864-4.4 1.5-2.432 9.268 5.24 12.076-6.74-12.08-6.74-9.264 5.24-1.5-2.432 7.864-4.4-7.864-4.4 1.5-2.432 7.768 4.4v-8.848h3v10.392l11.98 6.74V46.312l-9.268-5.152 1.404-2.432 7.864 4.4v-8.8h2.904v8.8l7.864-4.4 1.4 2.432-9.264 5.152v13.48l11.98-6.74v-10.44h2.904v8.8l7.864-4.4 1.4 2.436-7.86 4.4 7.864 4.444z"/></svg>