<svg width="64" height="64" viewBox="0 0 128 128" xmlns="http://www.w3.org/2000/svg"><path d="M64 128C28.652 128 0 99.348 0 64S28.652 0 64 0s64 28.652 64 64-28.652 64-64 64zm8.76-24c3.972 0 7.668-.824 11.084-2.476a16.148 16.148 0 0 0 7.64-7.512A24.08 24.08 0 0 0 94 83.108a28.64 28.64 0 0 0-.7-5.864c-.432-2.2-1.412-4.492-2.936-6.876-1.52-2.412-3.692-4.308-6.52-5.68-2.796-1.408-5.312-2.108-7.548-2.108a14.04 14.04 0 0 0-3.912.916l20.684-20.344-3.356-3.3-33.724.092V25.648L52.728 24h-8.664v2.38l2.98 2.936v10.628H34v4.676h13.04v25.108c0 3.664 1.06 6.568 3.172 8.704 2.112 2.14 5.932 3.208 11.46 3.208 2.236 0 4.284-.612 6.148-1.832 1.864-1.224 3.32-2.992 4.38-5.316a11.68 11.68 0 0 0 .232-1.28 2.476 2.476 0 0 0-.652-1.7c-.468-.332-.868-.5-1.212-.5a.944.944 0 0 0-.604.228 1.368 1.368 0 0 0-.468.596 15.04 15.04 0 0 1-3.54 3.572c-1.364.98-2.796 1.468-4.284 1.468-1.928 0-3.356-.672-4.288-2.016-.932-1.344-1.4-3.056-1.4-5.132V44.62h25.532L63.068 68.812v2.016l4.1-2.016c2.24-1.224 4.1-1.832 5.588-1.832a11.96 11.96 0 0 1 6.336 1.784c1.96 1.192 3.432 3.024 4.428 5.5 1.024 2.44 1.536 5.392 1.536 8.84 0 3.18-.468 6.02-1.4 8.524-.928 2.504-2.372 4.4-4.328 5.68a11.72 11.72 0 0 1-6.572 1.928c-1.736 0-3.48-.244-5.216-.736-1.74-.456-3.012-1.236-3.82-2.336.932-.276 1.74-.852 2.424-1.74.68-.888 1.024-2.032 1.024-3.44 0-1.16-.232-2.136-.7-2.928a5.08 5.08 0 0 0-1.908-1.88c-.808-.456-1.8-.688-2.984-.688-1.18 0-2.172.232-2.98.688a5.08 5.08 0 0 0-1.908 1.88c-.468.792-.7 1.772-.7 2.932 0 3.176 1.336 6.14 4.004 8.888C62.664 102.624 66.92 104 72.756 104z"/></svg>