<svg width="64" height="64" viewBox="0 0 128 128" xmlns="http://www.w3.org/2000/svg"><path d="M64 128C28.652 128 0 99.348 0 64S28.652 0 64 0s64 28.652 64 64-28.652 64-64 64zm44-64c0-24.3-19.7-44-44-44S20 39.696 20 64c0 24.3 19.7 44 44 44s44-19.7 44-44zm-15.08 1.384l-49.272.068a20.376 20.376 0 0 0 20.308 18.904 20.32 20.32 0 0 0 17.92-10.744h9.288a28.92 28.92 0 0 1-21.76 18.724v5.784l-8.96 2.792V92.64c-14.296-1.74-25.38-13.896-25.38-28.66 0-14.42 10.588-26.348 24.412-28.5v-5.612l8.956-2.788v8.4C82.26 37.632 92.92 50.448 92.92 64.88c0 .504.028 0 0 .504zM45 56.52h37.908a20.38 20.38 0 0 0-18.952-12.916 20.372 20.372 0 0 0-18.952 12.92z"/></svg>