<svg width="64" height="64" viewBox="0 0 128 128" xmlns="http://www.w3.org/2000/svg"><path d="M64 0c35.348 0 64 28.652 64 64s-28.652 64-64 64S0 99.348 0 64 28.652 0 64 0zm5.368 64.3l-.628 6.68c7.828 6.232 8.884 10.86 7.684 17.032-2.716 9.56-11.004 10.56-14.532 9.952-4.04-.74-5.736-.948-9.224-5.044a13.76 13.76 0 01-1.164-15.252l.048-.08 1.768 8.4 5.08-1.008-3.32-17.696L38 71.332l1.368 5.516 6.996-1.36-.068.164c-.3.736-1.52 3.832-1.884 6.248-2.352 14.752 10.132 21.432 15.32 21.784 10.292.752 16.268-3.696 19.372-8.412 5.76-9.44 2.884-16.424 1.212-19.976C78.132 70.824 69.368 64.3 69.368 64.3zm-3.04-25.28h-5.492v50.42h5.492V39.016zm-.12-14.984c-10.32-.484-16.172 4.12-19.14 8.92-5.52 9.6-2.46 16.496-.68 19.988 2.304 4.412 11.24 10.704 11.24 10.704l.444-6.692c-8-6.012-9.176-10.604-8.132-16.812 2.46-9.636 10.716-10.836 14.268-10.328 4.036.632 5.744.8 9.344 4.8a13.744 13.744 0 011.572 15.216l-.044.08-1.988-8.336-5.04 1.136 3.78 17.6 16.956-4.496-1.516-5.488-6.96 1.548s1.444-3.696 1.784-6.472c1.964-14.812-10.704-21.152-15.888-21.368z"/></svg>