<svg width="64" height="64" viewBox="0 0 128 128" xmlns="http://www.w3.org/2000/svg"><path d="M85.96 66.3a2.972 2.972 0 0 0 4.788-2.3 2.88 2.88 0 0 0-.628-1.8 8.315 8.315 0 0 0 5.6 2.152c4.576 0 8.284-3.66 8.284-8.176S100.292 48 95.716 48s-8.284 3.66-8.284 8.176c0 2.128.824 4.068 2.18 5.524a2.972 2.972 0 0 0-4.784 2.3c0 .68.236 1.304.628 1.8a8.316 8.316 0 0 0-5.6-2.152c-2.16 0-4.12.816-5.6 2.152a2.88 2.88 0 0 0 .632-1.8 2.972 2.972 0 1 0-4.784-2.3 8.08 8.08 0 0 0 2.18-5.524C72.284 51.66 68.576 48 64 48s-8.284 3.66-8.284 8.176c0 2.128.824 4.068 2.18 5.524a2.972 2.972 0 0 0-4.784 2.3c0 .68.236 1.304.628 1.8a8.316 8.316 0 0 0-5.6-2.152c-2.16 0-4.12.816-5.6 2.152a2.88 2.88 0 0 0 .632-1.8 2.972 2.972 0 1 0-4.784-2.3 8.08 8.08 0 0 0 2.18-5.524c0-4.516-3.708-8.176-8.284-8.176C27.708 48 24 51.66 24 56.176s3.708 8.176 8.284 8.176c2.16 0 4.124-.816 5.6-2.152a2.88 2.88 0 0 0-.628 1.8c0 1.612 1.32 2.92 2.96 2.92.684 0 1.32-.232 1.82-.62a8.088 8.088 0 0 0-2.18 5.524c0 4.516 3.712 8.176 8.288 8.176 4.572 0 8.28-3.66 8.28-8.176a8.091 8.091 0 0 0-2.176-5.524 2.972 2.972 0 0 0 4.78-2.3 2.88 2.88 0 0 0-.628-1.8c1.476 1.336 3.44 2.152 5.6 2.152s4.124-.816 5.6-2.152a2.88 2.88 0 0 0-.628 1.8c0 1.612 1.32 2.92 2.96 2.92.684 0 1.32-.232 1.82-.62a8.088 8.088 0 0 0-2.18 5.524c0 4.516 3.712 8.176 8.284 8.176 4.576 0 8.288-3.66 8.288-8.176a8.095 8.095 0 0 0-2.18-5.524zM64 128C28.652 128 0 99.348 0 64S28.652 0 64 0s64 28.652 64 64-28.652 64-64 64z"/></svg>