<svg width="64" height="64" viewBox="0 0 128 128" xmlns="http://www.w3.org/2000/svg"><path d="M64 128C28.652 128 0 99.348 0 64S28.652 0 64 0s64 28.652 64 64-28.652 64-64 64zm-3.616-48.616a148.332 148.332 0 0 0 6.072-7.112 1848.552 1848.552 0 0 0 14.856-18.32c1.548-1.92 3.872-3.832 4.26-6.02.776-4.104.26-8.48.26-12.992H70.2V24H57.672v11.212h-14.34v13.4h24.156c-2.2 2.6-4.132 4.788-6.072 7.116a1848.548 1848.548 0 0 0-14.856 18.32c-1.42 1.92-3.744 3.832-4.132 6.02-.776 4.104-.26 8.48-.26 12.856h15.504V104h13.044c-.256-3.828-.388-7.384-.644-11.212h15.5v-13.4H60.384z"/></svg>