<svg width="64" height="64" viewBox="0 0 128 128" xmlns="http://www.w3.org/2000/svg"><path d="M64 0c35.348 0 64 28.652 64 64s-28.652 64-64 64S0 99.348 0 64 28.652 0 64 0zm35.2 38.272l-7.12 11.08a31.34 31.34 0 013.424 14.38c0 17.6-14.24 31.772-31.772 31.772a31.02 31.02 0 01-14.308-3.424l-11.152 7.188c7.188 5.104 15.92 8.196 25.392 8.196 24.116 0 43.732-19.548 43.732-43.732a43.28 43.28 0 00-7.352-24.248l-.844-1.212zM63.732 20A43.692 43.692 0 0020 63.732c0 9.74 3.16 18.676 8.532 25.928a51.575 51.575 0 017.456-10.28s4.3-4.496 7.592-6.78a52.164 52.164 0 0130.9-10.08c3.192 0 6.288.28 9.332.84l1.82.372a21.976 21.976 0 00-21.968-21.968 21.92 21.92 0 00-21.808 23.932l.112.992c-5.508 4.232-8.128 7.52-8.264 7.656A32.196 32.196 0 0131.892 63.8c0-17.6 14.24-31.776 31.772-31.776 5.172 0 10.008 1.208 14.308 3.428l11.084-7.188A42.632 42.632 0 0063.732 20zm11.016 46.484a49.892 49.892 0 00-29.22 9.408 21.832 21.832 0 0018.2 9.672 21.928 21.928 0 0021.568-17.936 49.736 49.736 0 00-10.548-1.144z"/></svg>