<svg width="64" height="64" viewBox="0 0 128 128" xmlns="http://www.w3.org/2000/svg"><path d="M64 128C28.652 128 0 99.348 0 64S28.652 0 64 0s64 28.652 64 64-28.652 64-64 64zM62.02 25.096c-.368 1.56-1.472 6.48-1.976 9.776-.2 1.352-1.04 3.156 1.304 4.128-.536.104-.7.172-.868.136-1.672-.208-3.38-.448-5.052-.656-.368-.036-.836-.104-1.172.068-2.24 1.18-3.24 3.988-2.108 6.38.64 1.352.84 2.6.572 4.024a1.996 1.996 0 0 0 .2 1.072c1.304 3.192 1.54 6.38.5 9.708-.168.52-.064 1.148-.032 1.7.068 1.076.132 2.152.232 3.224-1.64-1.316-3.44-2.496-4.816-4.092a7.972 7.972 0 0 1-1.872-5.856c.032-.416-.3-.904-.568-1.284-.772-1.144-1.672-2.184-2.308-3.4-.904-1.732-2.008-2.46-3.816-1.904-.9.276-1.74.864-2.508 1.456-.668.48-1.24 1.108-1.84 1.664-.068-.072-.168-.14-.232-.208.1-.244.132-.52.268-.764.936-1.732.9-1.7-.4-3.156-2.512-2.808-4.688-5.824-5.624-9.64-.468-1.904-1.04-3.78-1.536-5.652-2.512 3.12-2.844 14.36-.368 18.796-.772-3.92-1.54-7.628-.672-11.444.168.868.268 1.7.304 2.568.132 3.084.868 6 2.172 8.736.268.588 1.04.936 1.608 1.352.2.14.468.208.7.312-.032.14-.032.28-.068.38-1.236-.068-2.44-.208-3.68-.24-.8-.036-1.736-.244-2.372.104-.84.448-1.508 1.32-1.976 2.184-.132.24.536 1.212 1.04 1.596 1.336 1.004 2.24 2.112 2.04 3.984-.036.452.468 1.252.904 1.424 1.2.452 1.536 1.352 1.736 2.496.136.728.236 1.664.704 2.08 1.504 1.388 1.972 3.052 2.008 5.064.032 1.28.7 2.6.536 3.848-.136 1.076.064 1.872.5 2.496h-.032l.1.104c.268.416.636.76 1.068 1.076l.872.832s1.504 1.628 1.536 3.224c.036 1.596-.1 1.8.368 3.224.472 1.388 1.104 2.496 1.308 3.676.2 1.18-.236 1.524.468 2.288.7.76 1.472 1.28 2.272 2.152.772.9 1.876 1.212 2.612 1.976.736.76 1.904 2.184 2.808 3.084.468.488 1.104.868 1.572 1.144.136.14.2.208.168.28-.636 1.384.668 1.352 1.172 1.8.868.764 2.108 1.248 2.74 2.184 1.14 1.7 2.612 2.568 4.452 3.088.168.036.368.068.432.172.236.28.4.624.604.936-.068.104-.168.208-.236.312 1.84.66 3.68 1.352 5.52 1.976.368.14.84.14 1.172.04 1.54-.52 3.08-1.08 4.616-1.632.3-.104.768-.416.736-.556-.232-1.108.668-.936 1.172-1.212 1.2-.66 2.608-1.144 3.512-2.08 1.104-1.18 2.108-2.396 3.58-3.192.6-.348 1.804-.484 1.2-1.8-.032-.072.304-.348.472-.52.232-.212.5-.384.836-.66.232-.104.5-.28.936-.592a31.48 31.48 0 0 0 3.78-3.676c.8-1.004 2.108-2.252 2.108-2.252s-.84-1.976-.3-3.712l2.84-2.112c.604-1.284.772-1.772 1.44-3.088.636-1.32.8-3.848 1.708-4.856.8-.864 1.772-1.56 1.736-2.112a3.98 3.98 0 0 0 .2-1.84c-.096-.9.2-1.84.304-2.74.068-.76 0-1.524.2-2.252.336-1.18.568-2.564 1.304-3.4.8-.9 1.34-1.696 1.44-2.912.1-1.04.5-1.872 1.54-2.36.5-.24 1-1.072 1-1.628-.032-1.56.468-2.668 1.74-3.5.368-.24.64-.66 1.004-.936.6-.452.504-.972.168-1.56-.868-1.56-2.176-2.116-3.912-1.8-1.308.24-3.28.376-3.984.376-.7 0-.2-.52-.2-.52 2.476-.068 2.776-2.112 3.344-3.776.472-1.388.736-2.844.972-4.3.236-1.388.236-2.048.5-4.2.268-2.148.904 4.164-.1 9.332 2.008-3.052 1.372-14.116-.868-17.372-.068.068-.136.104-.136.172-.1.416-.164.832-.264 1.248-.972 5.304-2.98 10.056-6.692 13.94-1.372 1.42-1.304 1.456-.368 3.292.1.176.1.416.132.66-.8-.38-1.4-.936-2.004-1.456a5.44 5.44 0 0 0-3.984-1.524c-1.6 0-2.04 1.176-2.508 2.32-.868 2.08-2.908 3.364-2.976 6.14-.1 4.056-3.712 6.1-6.056 8.804-.032.04-.132-.032-.268-.032-.032-.14-.132-.312-.1-.452 0-2.496.672-5.028-.432-7.42-.068-.14-.036-.348 0-.484.432-3.504.836-6.972 1.304-10.44.064-.448.3-.864.5-1.28 1.172-2.496.3-5.34-2.072-6.588a1.728 1.728 0 0 0-.936-.14c-1.308.172-2.576.416-3.848.588-.64.104-1.304.104-1.94.14-.036-.104-.068-.208-.1-.28 1.068-.344 1.604-1 1.372-2.18l-2.412-12c-.064-.312-.132-1.872.236-1.072.368.832 1.54 4.4 2.208 6.656.636 2.184 1.136 4.44 1.704 6.656-.936-6.204-2.372-12.24-5.92-17.752a14.68 14.68 0 0 0-2.24 3.92 174.72 174.72 0 0 0-2.408 7.628c-.568 1.976-2.04 5.86-1.404 5.96.632.108 3.744-11.544 3.944-12.376.2-.832.572-.8.2.76z"/></svg>