<svg width="64" height="64" viewBox="0 0 128 128" xmlns="http://www.w3.org/2000/svg"><path d="M64 128C28.652 128 0 99.348 0 64S28.652 0 64 0s64 28.652 64 64-28.652 64-64 64zm-2.016-20h4.1c.176-.036.356-.08.536-.104 1.356-.148 2.72-.228 4.068-.44 10.68-1.712 19.544-6.704 26.68-14.808.28-.32.312-.528.044-.88-3.08-4.08-6.144-8.164-9.212-12.252-.096-.128-.212-.24-.336-.388l-.428.632a28.596 28.596 0 0 1-10.912 9.56c-.42.216-.68.22-1.04-.14-1.452-1.472-2.944-2.9-4.42-4.348l-2.66-2.588c-8.832 6.6-17.616 13.16-26.44 19.76.148.1.216.16.292.2a43.52 43.52 0 0 0 16.488 5.456c1.08.128 2.16.228 3.24.34zm3.88-88h-3.772c-.192.036-.388.08-.584.104-1.74.204-3.5.308-5.216.62-8.936 1.62-16.64 5.648-23.132 11.98-1 .972-1.92 2.024-2.912 3.08l9.868 13.148.408-.6A28.588 28.588 0 0 1 51.6 38.64c.372-.188.6-.156.9.14 1.876 1.856 3.772 3.692 5.66 5.532.34.332.684.652 1.04.988 8.976-6.44 17.904-12.84 26.872-19.28-.132-.092-.2-.148-.28-.192a43.548 43.548 0 0 0-17.688-5.6c-.752-.072-1.5-.152-2.248-.228zM25.832 42.136c-5.34 9.68-7.104 19.832-4.928 30.576C22.936 82.752 28 91.024 35.8 97.74l13.04-9.784c-.068-.136-.08-.176-.104-.196l-.412-.28A28.536 28.536 0 0 1 38.64 76.4c-.176-.348-.164-.568.124-.856 1.024-1.012 2.02-2.052 3.024-3.08l4.032-4.136-19.98-26.192zm56.7 17.48l19.692 26.012c4.896-8.224 7.416-19.904 4.588-31.712-2.264-9.46-7.196-17.296-14.624-23.66l-13.116 9.84c.252.18.396.288.544.388a28.548 28.548 0 0 1 9.8 11.192c.192.384.2.628-.128.952-1.052 1.04-2.06 2.112-3.084 3.176l-3.672 3.812z"/></svg>