<svg width="64" height="64" viewBox="0 0 1792 1792" xmlns="http://www.w3.org/2000/svg"><path d="M1152 1280V774.4c0-108.8-89.6-198.4-198.4-198.4H326.4C217.6 576 128 665.6 128 774.4v627.2c0 108.8 89.6 198.4 198.4 198.4h627.2c96 0 179.2-70.4 192-160-51.2-25.6-281.6-121.6-396.8-179.2-89.6 108.8-185.6 172.8-326.4 172.8s-236.8-89.6-224-192c12.8-70.4 57.6-185.6 268.8-166.4 108.8 12.8 160 32 249.6 64 25.6-44.8 44.8-89.6 57.6-140.8H377.6V960H576v-70.4H332.8v-44.8H576V742.4s0-19.2 19.2-19.2h96v115.2h256v44.8h-256V960h211.2c-19.2 76.8-51.2 147.2-83.2 211.2C876.8 1190.4 1152 1280 1152 1280zm-742.4 89.6c-147.2 0-172.8-96-166.4-134.4 12.8-38.4 51.2-89.6 134.4-89.6 96 0 179.2 25.6 281.6 76.8-64 89.6-153.6 147.2-249.6 147.2z"/></svg>