<svg width="64" height="64" viewBox="0 0 1024 1024" xmlns="http://www.w3.org/2000/svg"><path d="M1024 704V198.4C1024 89.6 934.4 0 825.6 0H198.4C89.6 0 0 89.6 0 198.4v627.2C0 934.4 89.6 1024 198.4 1024h627.2c96 0 179.2-70.4 192-160-51.2-25.6-281.6-121.6-396.8-179.2-89.6 108.8-185.6 172.8-326.4 172.8s-236.8-89.6-224-192C83.2 595.2 128 480 339.2 499.2c108.8 12.8 160 32 249.6 64 25.6-44.8 44.8-89.6 57.6-140.8H249.6V384H448v-70.4H204.8v-44.8H448V166.4s0-19.2 19.2-19.2h96v115.2h256v44.8h-256V384h211.2c-19.2 76.8-51.2 147.2-83.2 211.2C748.8 614.4 1024 704 1024 704zm-742.4 89.6c-147.2 0-172.8-96-166.4-134.4 12.8-38.4 51.2-89.6 134.4-89.6 96 0 179.2 25.6 281.6 76.8-64 89.6-153.6 147.2-249.6 147.2z"/></svg>