<svg width="64" height="64" viewBox="0 0 1024 1024" xmlns="http://www.w3.org/2000/svg"><path d="M844.8 672c-25.6-38.4-44.8-89.6-44.8-134.4s12.8-89.6 38.4-128c12.8-19.2 38.4-44.8 70.4-70.4-19.2-25.6-44.8-44.8-64-64-38.4-25.6-83.2-38.4-128-38.4-32 0-64 6.4-108.8 19.2-38.4 12.8-64 19.2-83.2 19.2-12.8 0-44.8-6.4-83.2-19.2-44.8-12.8-83.2-19.2-108.8-19.2-70.4 0-128 32-172.8 89.6-51.2 57.6-76.8 134.4-76.8 230.4 0 102.4 32 204.8 89.6 307.2 64 108.8 121.6 160 185.6 160 19.2 0 44.8-6.4 83.2-19.2 32-12.8 64-19.2 89.6-19.2s57.6 6.4 96 19.2c38.4 12.8 64 19.2 83.2 19.2 51.2 0 102.4-38.4 160-121.6 38.4-51.2 57.6-102.4 76.8-153.6-38.4-12.8-70.4-38.4-102.4-76.8zM633.6 192c25.6-25.6 44.8-51.2 57.6-83.2s19.2-57.6 19.2-83.2V0c-76.8 19.2-128 44.8-153.6 89.6-32 44.8-51.2 96-51.2 160 32 0 51.2-6.4 64-12.8 19.2-6.4 44.8-19.2 64-44.8z"/></svg>