<svg width="64" height="64" viewBox="0 0 1792 1792" xmlns="http://www.w3.org/2000/svg"><path d="M286.053 1135.234h93.008l-45.758-144.237-47.25 144.237zm4.755-228.043h86.542l129.813 366.56h-83.06l-23.625-75.351H265.443l-25.366 75.351h-80.076l130.808-366.56zM548.972 1160.6c2.321 16.745 6.88 29.262 13.678 37.551 12.434 15.087 33.738 22.63 63.912 22.63 18.071 0 32.743-1.989 44.017-5.968 21.387-7.626 32.08-21.801 32.08-42.525 0-12.103-5.305-21.47-15.916-28.101-10.611-6.466-27.272-12.185-49.985-17.159l-38.795-8.704c-38.132-8.621-64.492-17.988-79.082-28.101-24.703-16.911-37.054-43.354-37.054-79.33 0-32.826 11.937-60.099 35.811-81.817s58.938-32.578 105.193-32.578c38.629 0 71.579 10.237 98.852 30.712s41.572 50.193 42.898 89.153h-73.61c-1.326-22.05-10.942-37.717-28.847-47.001-11.937-6.134-26.775-9.201-44.514-9.201-19.729 0-35.479 3.979-47.25 11.937s-17.657 19.066-17.657 33.324c0 13.097 5.803 22.879 17.408 29.345 7.461 4.311 23.376 9.367 47.747 15.17l63.166 15.17c27.687 6.632 48.576 15.501 62.668 26.609 21.884 17.242 32.826 42.193 32.826 74.854 0 33.49-12.807 61.301-38.422 83.433s-61.798 33.199-108.551 33.199c-47.748 0-85.298-10.901-112.654-32.702s-41.033-51.768-41.033-89.899h73.113zm467.7 24.868c17.822-22.382 26.734-54.213 26.734-95.495 0-41.116-8.911-72.906-26.734-95.37s-41.903-33.697-72.243-33.697c-30.34 0-54.545 11.191-72.616 33.572s-27.107 54.213-27.107 95.495c0 41.282 9.035 73.113 27.107 95.495s42.276 33.572 72.616 33.572c30.34 0 54.42-11.191 72.243-33.572zm47.871 55.705c-27.687 28.516-67.725 42.774-120.114 42.774s-92.427-14.258-120.114-42.774c-37.137-34.982-55.705-85.381-55.705-151.2 0-67.145 18.568-117.544 55.705-151.2 27.687-28.516 67.725-42.774 120.114-42.774s92.427 14.258 120.114 42.774c36.971 33.655 55.457 84.055 55.457 151.2 0 65.819-18.485 116.218-55.457 151.2zM288 704h704v128h-64v-64H352v64h-64V704zm704 768H288v-128h64v64h579.389v-64H992v128z"/></svg>