<?xml version="1.0" encoding="utf-8"?>
<svg width="1792" height="1792" xmlns="http://www.w3.org/2000/svg"><path d="M522.647 960H512V704h256v256h-7.227l27.729 44.312-54.254 33.949-33.949-54.254 38.367-24.008H597.944l-158.669 256h8.726v256h-256v-256h171.978l158.669-256zm313.355 352c5.72-22.38 17.31-42.391 33.072-58.277l-32.978-52.701 54.254-33.949 33.773 53.972c11.365-3.285 23.401-5.045 35.878-5.045 70.692 0 128 56.815 128 128 0 70.692-56.815 128-128 128-59.702 0-109.857-40.522-124.01-96h-3.99v-64h4.002zM448 1376v-64h64v64h-64zm128 0v-64h64v64h-64zm128 0v-64h64v64h-64zm152.4-263.18l-54.254 33.949-33.949-54.254 54.254-33.949 33.949 54.254zM576 768v128h128V768H576zm-320 512v128h128v-128H256zm640 64c0 35.631 28.445 64 64 64 35.631 0 64-28.445 64-64 0-35.631-28.445-64-64-64-35.631 0-64 28.445-64 64z" fill="undefined"/></svg>