<svg width="64" height="64" viewBox="0 0 1792 1792" xmlns="http://www.w3.org/2000/svg"><path d="M876.8 960v25.6c0 6.4 0 6.4 6.4 6.4 51.2-6.4 96 6.4 134.4 25.6 76.8 38.4 115.2 102.4 128 185.6 0 19.2-6.4 38.4-19.2 51.2s-32 12.8-44.8 0c-12.8-6.4-19.2-19.2-25.6-38.4-6.4-64-44.8-102.4-102.4-121.6-51.2-19.2-102.4-6.4-140.8 32-89.6 89.6-179.2 179.2-275.2 268.8-38.4 44.8-89.6 70.4-153.6 76.8-121.6 6.4-224-76.8-249.6-185.6-32-140.8 64-275.2 211.2-294.4h44.8c6.4 0 12.8 0 12.8-12.8-6.4-38.4 0-83.2 19.2-121.6 38.4-83.2 102.4-128 185.6-140.8 96-12.8 192 38.4 236.8 121.6 25.6 44.8 32 76.8 32 121.6zm-89.6 0c0-76.8-57.6-147.2-147.2-147.2-83.2 0-147.2 64-147.2 147.2 0 76.8 57.6 147.2 147.2 147.2 83.2 0 147.2-70.4 147.2-147.2zm-422.4 128c-83.2 0-147.2 70.4-147.2 147.2s64 147.2 147.2 147.2c89.6 0 147.2-70.4 147.2-147.2 0-83.2-64-147.2-147.2-147.2zm787.2 339.2c0 25.6-19.2 44.8-44.8 44.8s-44.8-19.2-44.8-44.8c0-25.6 19.2-44.8 44.8-44.8s44.8 19.2 44.8 44.8z"/></svg>