<svg width="64" height="64" viewBox="0 0 1792 1792" xmlns="http://www.w3.org/2000/svg"><path d="M928 800h-51.2l44.8-44.8c19.2-19.2 19.2-57.6 0-76.8s-57.6-19.2-76.8 0L716.8 800H563.2l-128-121.6c-19.2-19.2-57.6-19.2-76.8 0s-19.2 57.6 0 76.8l44.8 44.8H352c-89.6 0-160 70.4-160 160v345.6c0 96 70.4 166.4 160 166.4h569.6c89.6 0 160-70.4 160-160V960c6.4-89.6-64-160-153.6-160zm44.8 505.6c0 32-25.6 57.6-57.6 57.6H358.4c-32 0-57.6-25.6-57.6-57.6V966.4c0-32 25.6-57.6 57.6-57.6h556.8c32 0 57.6 25.6 57.6 57.6v339.2zM473.6 1024c-32 0-57.6 25.6-57.6 57.6v57.6c0 32 25.6 57.6 57.6 57.6s57.6-25.6 57.6-57.6v-57.6c0-32-25.6-57.6-57.6-57.6zm332.8 0c-32 0-57.6 25.6-57.6 57.6v57.6c0 32 25.6 57.6 57.6 57.6s57.6-25.6 57.6-57.6v-57.6c0-32-25.6-57.6-57.6-57.6z"/></svg>