<svg width="64" height="64" viewBox="0 0 1024 1024" xmlns="http://www.w3.org/2000/svg"><path d="M627.2 409.6c0-70.4-102.4-57.6-134.4-57.6v115.2c32 0 134.4 6.4 134.4-57.6zM492.8 524.8v128c38.4 0 160 6.4 160-64s-121.6-64-160-64zM512 0C230.4 0 0 230.4 0 512s230.4 512 512 512 512-230.4 512-512S793.6 0 512 0zm256 601.6c-6.4 89.6-76.8 115.2-172.8 121.6v96h-57.6v-96h-44.8v96h-57.6v-96H320l12.8-70.4h44.8c19.2 0 19.2-12.8 19.2-19.2V371.2c0-12.8-12.8-25.6-32-25.6H320v-64H435.2v-96h57.6v96h44.8V192h57.6v96c70.4 6.4 134.4 32 140.8 96 6.4 51.2-19.2 83.2-51.2 96 57.6 19.2 89.6 51.2 83.2 121.6z"/></svg>