<svg width="64" height="64" viewBox="0 0 1024 1024" xmlns="http://www.w3.org/2000/svg"><path d="M864 512h-96V256H512v-96c0-51.2-44.8-96-96-96s-96 44.8-96 96v96H64v256h96c51.2 0 96 44.8 96 96s-44.8 96-96 96H64v256h256v-96c0-51.2 44.8-96 96-96s96 44.8 96 96v96h256V704h96c51.2 0 96-44.8 96-96s-44.8-96-96-96zm0 128H704v256H576v-32c0-89.6-70.4-160-160-160s-160 70.4-160 160v32H128V768h32c89.6 0 160-70.4 160-160s-70.4-160-160-160h-32V320h256V160c0-19.2 12.8-32 32-32s32 12.8 32 32v160h256v256h160c19.2 0 32 12.8 32 32s-12.8 32-32 32z"/></svg>