<?xml version="1.0" encoding="utf-8"?>
<svg width="1792" height="1792" xmlns="http://www.w3.org/2000/svg"><path d="M915.2 940.8c-64 0-128-25.6-172.8-70.4v-32l19.2-57.6c12.8-64-6.4-134.4-57.6-172.8-12.8-19.2-38.4-32-64-32s-51.2 12.8-70.4 25.6c-51.2 38.4-64 108.8-57.6 172.8 6.4 19.2 6.4 44.8 19.2 57.6v38.4c-44.8 44.8-102.4 70.4-166.4 70.4H320V1536h640V940.8h-44.8zM896 1472h-64v-128h-64v128h-64v-192h-64v192H512v-64h-64v64h-64v-313.6h512V1472zm-512-467.2c70.4-6.4 140.8-38.4 192-89.6l19.2-19.2v-76.8l-6.4-12.8c0-6.4-6.4-19.2-12.8-44.8-6.4-32 0-83.2 38.4-108.8 6.4-6.4 19.2-12.8 25.6-12.8s19.2 6.4 25.6 12.8c38.4 25.6 44.8 76.8 38.4 108.8-6.4 25.6-12.8 38.4-12.8 44.8l-6.4 12.8V896l19.2 19.2c51.2 51.2 121.6 83.2 192 89.6v83.2H384v-83.2zM672 736c0 17.673-14.327 32-32 32s-32-14.327-32-32c0-17.673 14.327-32 32-32s32 14.327 32 32z" fill="undefined"/></svg>