<svg width="64" height="64" viewBox="0 0 1792 1792" xmlns="http://www.w3.org/2000/svg"><path d="M704 576H576L384 832h512L704 576zm-96 64h64l96 128H512l96-128zm416 128v128H256V768h-64v192h89.6l172.8 396.8C492.8 1427.2 563.2 1472 640 1472s147.2-44.8 179.2-115.2L998.4 960h89.6V768h-64zm-262.4 563.2c-19.2 38.4-51.2 64-89.6 76.8v-320h-64v313.6c-38.4-12.8-70.4-38.4-89.6-76.8L352 960h576l-166.4 371.2zM256 1344v128h64v-96l108.8-89.6-25.6-64zm0-192h115.2l-32-64H192v128h64zm684.8-64l-32 64H1024v64h64v-128h-64zm-89.6 198.4L960 1376v96h64v-128l-147.2-121.6z"/></svg>