<svg width="64" height="64" viewBox="0 0 1024 1024" xmlns="http://www.w3.org/2000/svg"><path d="M576 0H448L256 256h512L576 0zm-96 64h64l96 128H384l96-128zm416 128v128H128V192H64v192h89.6l172.8 396.8C364.8 851.2 435.2 896 512 896s147.2-44.8 179.2-115.2L870.4 384H960V192h-64zM633.6 755.2c-19.2 38.4-51.2 64-89.6 76.8V512h-64v313.6c-38.4-12.8-70.4-38.4-89.6-76.8L224 384h576L633.6 755.2zM128 768v128h64v-96l108.8-89.6-25.6-64zm0-192h115.2l-32-64H64v128h64zm684.8-64l-32 64H896v64h64V512h-64zm-89.6 198.4L832 800v96h64V768L748.8 646.4z"/></svg>