<svg width="64" height="64" viewBox="0 0 1024 1024" xmlns="http://www.w3.org/2000/svg"><path d="M896 0H128v1024h768V0zM192 960V64h640v896H640V704H384v256H192zm256 0V768h128v192H448zM320 128h-64v64h64v-64zm0 128h-64v64h64v-64zm0 128h-64v64h64v-64zm0 128h-64v64h64v-64zm0 128h-64v64h64v-64zm0 128h-64v64h64v-64zm448-640h-64v64h64v-64zm0 128h-64v64h64v-64zm0 128h-64v64h64v-64zm0 128h-64v64h64v-64zm0 128h-64v64h64v-64zm0 128h-64v64h64v-64zM640 128h-64v64h64v-64zm0 128h-64v64h64v-64zm0 128h-64v64h64v-64zm0 128h-64v64h64v-64zM448 128h-64v64h64v-64zm0 128h-64v64h64v-64zm0 128h-64v64h64v-64zm0 128h-64v64h64v-64z"/></svg>