<svg width="64" height="64" viewBox="0 0 1024 1024" xmlns="http://www.w3.org/2000/svg"><path d="M448 768h128v256H448V768zM128 0v1024h256V704h256v320h256V0H128zm192 384v64h-64v-64h64zm-64-64v-64h64v64h-64zm64 192v64h-64v-64h64zm0 128v64h-64v-64h64zm0 128v64h-64v-64h64zm0-576h-64v-64h64v64zm320 64v64h-64v-64h64zm-64-64v-64h64v64h-64zm64 192v64h-64v-64h64zm0 128v64h-64v-64h64zm128-256v64h-64v-64h64zm-64-64v-64h64v64h-64zm64 192v64h-64v-64h64zm0 128v64h-64v-64h64zm0 128v64h-64v-64h64zm0 128v64h-64v-64h64zM448 256v64h-64v-64h64zm-64-64v-64h64v64h-64zm64 192v64h-64v-64h64zm0 128v64h-64v-64h64z"/></svg>