<svg width="64" height="64" viewBox="0 0 1792 1792" xmlns="http://www.w3.org/2000/svg"><path d="M1024 576H256v1024h768V576zm-704 960V640h640v896H768v-256H512v256H320zm256 0v-192h128v192H576zM448 704h-64v64h64v-64zm0 128h-64v64h64v-64zm0 128h-64v64h64v-64zm0 128h-64v64h64v-64zm0 128h-64v64h64v-64zm0 128h-64v64h64v-64zm448-640h-64v64h64v-64zm0 128h-64v64h64v-64zm0 128h-64v64h64v-64zm0 128h-64v64h64v-64zm0 128h-64v64h64v-64zm0 128h-64v64h64v-64zM768 704h-64v64h64v-64zm0 128h-64v64h64v-64zm0 128h-64v64h64v-64zm0 128h-64v64h64v-64zM576 704h-64v64h64v-64zm0 128h-64v64h64v-64zm0 128h-64v64h64v-64zm0 128h-64v64h64v-64z"/></svg>