<svg width="64" height="64" viewBox="0 0 1024 1024" xmlns="http://www.w3.org/2000/svg"><path d="M134.4 563.2zM672 288zm-512 0h192v-96c0-89.6 70.4-160 160-160s160 70.4 160 160c0-89.6-70.4-160-160-160s-160 70.4-160 160v96H160zM512 0C403.2 0 320 83.2 320 192v64H128L64 960h896l-64-704H704v-64C704 83.2 620.8 0 512 0zM384 256v-64c0-70.4 57.6-128 128-128s128 57.6 128 128v64H384zM134.4 896l51.2-576h652.8l51.2 576H134.4zM640 403.2V448h64v-64h-64zm64-19.2h-64v64h64v-64zm-384 19.2V448h64v-64h-64zm64-19.2h-64v64h64v-64z"/></svg>