<svg width="64" height="64" viewBox="0 0 1792 1792" xmlns="http://www.w3.org/2000/svg"><path d="M640 1024h-64v64h64v-64zm-128 0h-64v64h64v-64zm256 0h-64v64h64v-64zm128 0h-64v64h64v-64zm-448 128h-64v64h64v-64zm128 0h-64v64h64v-64zm128 0h-64v64h64v-64zm128 0h-64v64h64v-64zm-448 128h-64v64h64v-64zm128 0h-64v64h64v-64zm128 0h-64v64h64v-64zm128 0h-64v64h64v-64zm64-640h-64v64H448v-64h-64v64H192v768h832V704H832v-64zm-64 192h64v-64h128v128H256V768h128v64h64v-64h320v64zm-512 576V960h704v448H256z"/></svg>