<?xml version="1.0" encoding="utf-8"?>
<svg width="1792" height="1792" xmlns="http://www.w3.org/2000/svg"><path d="M384 640h64v64h-64v-64zm384 0h64v64h-64v-64zm192 64H832v64h-64v-64H448v64h-64v-64H192v768h832V704h-64zm0 704H256V960h704v448zm-384-384h64v64h-64v-64zm-128 0h64v64h-64v-64zm256 0h64v64h-64v-64zm128 0h64v64h-64v-64zm-448 128h64v64h-64v-64zm128 0h64v64h-64v-64zm128 0h64v64h-64v-64zm128 0h64v64h-64v-64zm-448 128h64v64h-64v-64zm128 0h64v64h-64v-64zm128 0h64v64h-64v-64zm128 0h64v64h-64v-64z" fill="undefined"/></svg>