<svg width="64" height="64" viewBox="0 0 1024 1024" xmlns="http://www.w3.org/2000/svg"><path d="M128 832h768V256H128v576zM64 192h64.141v-64h256.036v64h575.822v704h-896V192zm352 576c-123.712 0-224-100.288-224-224s100.288-224 224-224 224 100.288 224 224-100.288 224-224 224zm0-64c88.366 0 160-71.634 160-160s-71.634-160-160-160-160 71.634-160 160 71.634 160 160 160zm224-384h192v64H640v-64zM320 544c0-53.019 42.611-96 96-96 53.019 0 96 42.611 96 96 0 53.019-42.611 96-96 96-53.019 0-96-42.611-96-96z"/></svg>