<svg width="64" height="64" viewBox="0 0 1792 1792" xmlns="http://www.w3.org/2000/svg"><path d="M256 1408h768V832H256v576zm-64-640h64.141v-64h256.036v64h575.822v704h-896V768zm352 576c-123.712 0-224-100.288-224-224s100.288-224 224-224 224 100.288 224 224-100.288 224-224 224zm0-64c88.366 0 160-71.634 160-160s-71.634-160-160-160-160 71.634-160 160 71.634 160 160 160zm224-384h192v64H768v-64zm-320 224c0-53.019 42.611-96 96-96 53.019 0 96 42.611 96 96 0 53.019-42.611 96-96 96-53.019 0-96-42.611-96-96z"/></svg>