<?xml version="1.0" encoding="utf-8"?>
<svg width="1792" height="1792" xmlns="http://www.w3.org/2000/svg"><path d="M1075.2 793.6c-44.8-83.2-134.4-128-230.4-128H435.2c-89.6 0-179.2 44.8-224 128s-44.8 179.2 0 262.4L416 1408c44.8 83.2 134.4 128 230.4 128s179.2-51.2 230.4-134.4l204.8-352c44.8-76.8 44.8-172.8-6.4-256zm-76.8 217.6l-204.8 352c-32 57.6-89.6 89.6-147.2 89.6-64 0-121.6-32-147.2-89.6l-211.2-352c-32-51.2-32-115.2 0-172.8 32-51.2 89.6-83.2 153.6-89.6h409.6c64 0 121.6 32 147.2 89.6 32 51.2 32 115.2 0 172.8zm-72.177-166.584c33.737 19.328 45.418 62.345 26.09 96.082s-62.345 45.418-96.082 26.09c-33.737-19.328-45.418-62.345-26.09-96.082s62.345-45.418 96.082-26.09zM682.234 1264.86c33.737 19.328 45.418 62.345 26.09 96.082s-62.345 45.418-96.082 26.09c-33.737-19.328-45.418-62.345-26.09-96.082s62.345-45.418 96.082-26.09zM436.071 841.749c33.737 19.328 45.418 62.345 26.09 96.082s-62.345 45.418-96.082 26.09c-33.737-19.328-45.418-62.345-26.09-96.082s62.345-45.418 96.082-26.09zm244.743-8.235c33.737 19.328 45.418 62.345 26.09 96.082s-62.345 45.418-96.082 26.09c-33.737-19.328-45.418-62.345-26.09-96.082s62.345-45.418 96.082-26.09zm-126 223.703c33.737 19.328 45.418 62.345 26.09 96.082s-62.345 45.418-96.082 26.09c-33.737-19.328-45.418-62.345-26.09-96.082s62.345-45.418 96.082-26.09zm256.749 1.292c33.737 19.328 45.418 62.345 26.09 96.082s-62.345 45.418-96.082 26.09c-33.737-19.328-45.418-62.345-26.09-96.082s62.345-45.418 96.082-26.09z" fill="undefined"/></svg>