<svg width="64" height="64" viewBox="0 0 1024 1024" xmlns="http://www.w3.org/2000/svg"><path d="M832 192H192v192h640V192zm-64 128H256v-64h512v64zM192 576h192v64H192v-64zm0-128h192v64H192v-64zm0 256h192v64H192v-64zM64 64v832h448v128l128-64 128 64V896h192V64H64zm640 857.6l-64-32-64 32V832h128v89.6zM640 768c-70.4 0-128-57.6-128-128s57.6-128 128-128 128 57.6 128 128-57.6 128-128 128zm256 64H768v-51.2c38.4-32 64-83.2 64-140.8 0-108.8-83.2-192-192-192s-192 83.2-192 192c0 57.6 25.6 108.8 64 140.8V832H128V128h768v704z"/></svg>