<svg width="64" height="64" viewBox="0 0 1024 1024" xmlns="http://www.w3.org/2000/svg"><path d="M256 448L108.8 192C204.8 76.8 352 0 512 0c185.6 0 352 102.4 441.6 249.6H512c-121.6 0-224 83.2-256 198.4zm441.6-121.6H992c19.2 57.6 32 121.6 32 185.6 0 281.6-224 512-505.6 512l211.2-364.8c32-44.8 44.8-96 44.8-147.2 0-70.4-32-140.8-76.8-185.6zM326.4 512c0-102.4 83.2-185.6 185.6-185.6S697.6 409.6 697.6 512 614.4 697.6 512 697.6 326.4 614.4 326.4 512zm256 249.6l-147.2 256C192 979.2 0 768 0 512c0-89.6 25.6-179.2 64-249.6l211.2 364.8C320 716.8 409.6 780.8 512 780.8c25.6-6.4 44.8-12.8 70.4-19.2z"/></svg>