<?xml version="1.0" encoding="utf-8"?>
<svg width="1792" height="1792" xmlns="http://www.w3.org/2000/svg"><path d="M960 780.8l-217.6-128c-64-38.4-140.8-38.4-204.8 0L320 780.8C249.6 819.2 211.2 889.6 211.2 960v256c0 76.8 38.4 140.8 102.4 179.2l217.6 128c64 38.4 140.8 38.4 204.8 0l217.6-128c64-38.4 102.4-108.8 102.4-179.2V960c6.4-70.4-32-140.8-96-179.2zM377.6 832c25.6-25.6 57.6-25.6 83.2 0l6.4 6.4c-25.6 25.6-51.2 57.6-70.4 96l-19.2-19.2c-19.2-25.6-19.2-64 0-83.2zm428.8 460.8h-160v-25.6L704 1248c12.8-6.4 25.6-19.2 25.6-38.4 0-32-32-51.2-57.6-38.4l-32 12.8-38.4-12.8c-32-12.8-57.6 6.4-57.6 38.4 0 19.2 12.8 32 25.6 38.4l57.6 19.2v25.6h-160c-57.6 0-102.4-44.8-102.4-102.4 0-51.2 38.4-96 89.6-102.4v-51.2c0-102.4 83.2-179.2 179.2-179.2 102.4 0 179.2 83.2 179.2 179.2v51.2c51.2 6.4 89.6 51.2 89.6 102.4 6.4 57.6-38.4 102.4-96 102.4zM896 915.2l-19.2 19.2c-19.2-38.4-44.8-70.4-70.4-96l6.4-6.4c19.2-25.6 57.6-25.6 83.2 0 19.2 19.2 19.2 57.6 0 83.2zm-300.8 134.4c0 14.138-11.462 25.6-25.6 25.6s-25.6-11.462-25.6-25.6c0-14.138 11.462-25.6 25.6-25.6s25.6 11.462 25.6 25.6zm134.4 0c0 14.138-11.462 25.6-25.6 25.6s-25.6-11.462-25.6-25.6c0-14.138 11.462-25.6 25.6-25.6s25.6 11.462 25.6 25.6z" fill="undefined"/></svg>