<?xml version="1.0" encoding="utf-8"?>
<svg width="1792" height="1792" xmlns="http://www.w3.org/2000/svg"><path d="M358.4 768c25.6-19.2 57.6-38.4 89.6-51.2-19.2-6.4-38.4-12.8-64-12.8-108.8 0-192 83.2-192 192 0 32 6.4 57.6 19.2 89.6 12.8-32 25.6-64 44.8-96 25.6-44.8 64-83.2 102.4-121.6zM896 704c-25.6 0-44.8 6.4-64 12.8 32 12.8 64 32 89.6 57.6 38.4 32 76.8 70.4 102.4 115.2 19.2 32 32 57.6 44.8 96 12.8-32 19.2-57.6 19.2-89.6 0-108.8-83.2-192-192-192zm128 416c0-211.2-172.8-384-384-384s-384 172.8-384 384c0 121.6 57.6 230.4 147.2 300.8l-51.2 96 57.6 25.6 44.8-89.6C512 1484.8 576 1504 640 1504s128-19.2 179.2-44.8l44.8 89.6 57.6-25.6-51.2-96c96-76.8 153.6-185.6 153.6-307.2zm-704 0c0-179.2 140.8-320 320-320s320 140.8 320 320-140.8 320-320 320-320-140.8-320-320zm320-224h-64v256h256v-64H640z" fill="undefined"/></svg>