<svg width="64" height="64" viewBox="0 0 1792 1792" xmlns="http://www.w3.org/2000/svg"><path d="M448 716.8c-19.2-6.4-38.4-12.8-64-12.8-108.8 0-192 83.2-192 192 0 32 6.4 57.6 19.2 89.6C249.6 864 339.2 768 448 716.8zM896 704c-25.6 0-44.8 6.4-64 12.8C940.8 768 1030.4 864 1068.8 985.6c12.8-32 19.2-57.6 19.2-89.6 0-108.8-83.2-192-192-192zm128 416c0-211.2-172.8-384-384-384s-384 172.8-384 384c0 121.6 57.6 230.4 147.2 300.8l-51.2 96 57.6 25.6 44.8-89.6C512 1484.8 576 1504 640 1504s128-19.2 179.2-44.8l44.8 89.6 57.6-25.6-51.2-96c96-76.8 153.6-185.6 153.6-307.2zm-448 32V896h64v192h192v64H576z"/></svg>