<svg width="64" height="64" viewBox="0 0 1024 1024" xmlns="http://www.w3.org/2000/svg"><path d="M800 352C787.2 204.8 659.2 96 512 96S243.2 211.2 224 352C115.2 364.8 32 460.8 32 576c0 121.6 102.4 224 224 224h512c121.6 0 224-102.4 224-224 0-115.2-83.2-204.8-192-224zm-32 384H256c-89.6 0-160-70.4-160-160s70.4-160 160-160h32v-32c0-121.6 102.4-224 224-224s224 102.4 224 224v32h32c89.6 0 160 70.4 160 160s-70.4 160-160 160zM544 563.2V320h-64v243.2L345.6 422.4l-51.2 51.2L512 684.8l217.6-211.2-51.2-51.2z"/></svg>