<?xml version="1.0" encoding="utf-8"?>
<svg width="1792" height="1792" xmlns="http://www.w3.org/2000/svg"><path d="M960 768c0-70.4-57.6-128-128-128s-128 57.6-128 128c0 44.8 25.6 89.6 64 108.8v57.6l-128 128-128-128v-57.6c38.4-19.2 64-64 64-108.8 0-70.4-57.6-128-128-128s-128 57.6-128 128c0 44.8 25.6 89.6 64 108.8v108.8l192 192v115.2c-38.4 19.2-70.4 64-70.4 115.2 0 70.4 57.6 128 128 128s128-57.6 128-128c0-44.8-25.6-83.2-57.6-108.8v-121.6l192-192V876.8c38.4-19.2 64-64 64-108.8zm-512-64c38.4 0 64 25.6 64 64s-25.6 64-64 64-64-25.6-64-64 25.6-64 64-64zm185.6 768c-38.4 0-64-25.6-64-64s25.6-64 64-64 64 25.6 64 64-25.6 64-64 64zM832 832c-38.4 0-64-25.6-64-64s25.6-64 64-64 64 25.6 64 64-25.6 64-64 64z" fill="undefined"/></svg>