<?xml version="1.0" encoding="utf-8"?>
<svg width="1792" height="1792" xmlns="http://www.w3.org/2000/svg"><path d="M192 704h896v512H192V704zm64 448h768V768H256v384zm619.52-352l55.426 32-160 277.128-55.426-32L875.52 800zm-489.177 62.196C406.252 842.065 431.581 832 462.33 832c41.146 0 71.231 13.494 90.255 40.482 10.508 15.153 16.149 30.362 16.923 45.625h-51.1c-3.318-11.724-7.577-20.573-12.775-26.546-9.291-10.618-23.061-15.927-41.312-15.927-18.582 0-33.237 7.494-43.966 22.481s-16.093 36.196-16.093 63.627c0 27.431 5.669 47.976 17.006 61.636s25.744 20.49 43.22 20.49c17.918 0 31.578-5.862 40.98-17.587 5.199-6.305 9.512-15.761 12.941-28.371h50.603c-4.424 26.656-15.734 48.335-33.929 65.037s-41.505 25.052-69.931 25.052c-35.173 0-62.825-11.282-82.955-33.846-20.131-22.675-30.196-53.755-30.196-93.242 0-42.695 11.448-75.6 34.343-98.717zM640 960c-17.673 0-32-14.327-32-32s14.327-32 32-32c17.673 0 32 14.327 32 32s-14.327 32-32 32zm0 128c-17.673 0-32-14.327-32-32s14.327-32 32-32c17.673 0 32 14.327 32 32s-14.327 32-32 32zm-448 192h576v64H192v-64zm128 128h512v64H320v-64zm704 0h64v64h-64v-64zm-128 0h64v64h-64v-64zm0-128h192v64H896v-64zm-704 128h64v64h-64v-64z" fill="undefined"/></svg>