<svg width="64" height="64" viewBox="0 0 1024 1024" xmlns="http://www.w3.org/2000/svg"><path d="M874.823 249.145l-51.797 37.591C751.167 187.719 636.633 128 512.001 128c-212.077 0-384 171.923-384 384s171.923 384 384 384v64c-247.424 0-448-200.576-448-448s200.576-448 448-448c149.222 0 281.404 72.956 362.823 185.145zM512 960c23.151 0 46.092-1.759 68.686-5.237l-9.738-63.255A387.164 387.164 0 0 1 512.001 896v64zm136.227-21.097a445.266 445.266 0 0 0 63.882-25.977l-28.623-57.243a381.333 381.333 0 0 1-54.702 22.244l19.442 60.975zm126.127-63.721a450.235 450.235 0 0 0 52.571-44.551l-44.991-45.517a386.224 386.224 0 0 1-45.097 38.217l37.517 51.851zm97.144-95.809a448.217 448.217 0 0 0 36.806-58.275l-56.581-29.91a384.377 384.377 0 0 1-31.552 49.955l51.326 38.231zm65.89-126.483a445.195 445.195 0 0 0 16.533-66.943l-63.134-10.492a381.183 381.183 0 0 1-14.156 57.322l60.757 20.113zm22.498-130.67c.094-5.014.094-5.014.114-10.045 0-19.898-1.276-39.494-3.815-58.875l-63.458 8.311A388.567 388.567 0 0 1 896 512.163c-.018 4.314-.018 4.314-.098 8.623l63.984 1.434zm-18.001-136.71a445.056 445.056 0 0 0-24.509-64.46l-57.881 27.309a381.046 381.046 0 0 1 20.986 55.192l61.405-18.041zm-60.613-127.236l-52.719 36.287a385.623 385.623 0 0 0-21.366-28.18l49.173-40.964a449.52 449.52 0 0 1 24.912 32.857zM747.52 352l55.426 32-160 277.128-55.426-32L747.52 352zm-489.177 62.196C278.252 394.065 303.581 384 334.33 384c41.146 0 71.231 13.494 90.255 40.482 10.508 15.153 16.149 30.362 16.923 45.625h-51.1c-3.318-11.724-7.577-20.573-12.775-26.546-9.291-10.618-23.061-15.927-41.312-15.927-18.582 0-33.237 7.494-43.966 22.481s-16.093 36.196-16.093 63.627c0 27.431 5.669 47.976 17.006 61.636s25.744 20.49 43.22 20.49c17.918 0 31.578-5.862 40.98-17.587 5.199-6.305 9.512-15.761 12.941-28.371h50.603c-4.424 26.656-15.734 48.335-33.929 65.037s-41.505 25.052-69.931 25.052c-35.173 0-62.825-11.282-82.955-33.846-20.131-22.675-30.196-53.755-30.196-93.242 0-42.695 11.448-75.6 34.343-98.717zM512 512c-17.673 0-32-14.327-32-32s14.327-32 32-32c17.673 0 32 14.327 32 32s-14.327 32-32 32zm0 128c-17.673 0-32-14.327-32-32s14.327-32 32-32c17.673 0 32 14.327 32 32s-14.327 32-32 32z"/></svg>