<svg width="64" height="64" viewBox="0 0 1024 1024" xmlns="http://www.w3.org/2000/svg"><path d="M64 64v192h960V64H64zm640 128h-64v-64h64v64zm128 0h-64v-64h64v64zm128 0h-64v-64h64v64zM64 960h960V320H64v640zm550.4-224l160-275.2 57.6 32L672 768l-57.6-32zM544 684.8c19.2 0 32 12.8 32 32s-12.8 32-32 32-32-12.8-32-32 12.8-32 32-32zm0-64c-19.2 0-32-19.2-32-32s12.8-32 32-32 32 12.8 32 32-12.8 32-32 32zM422.4 576c-6.4-12.8-6.4-19.2-12.8-25.6-6.4-12.8-25.6-12.8-38.4-12.8-19.2 0-32 6.4-44.8 25.6-12.8 12.8-19.2 38.4-19.2 64s6.4 44.8 19.2 64c12.8 6.4 25.6 12.8 44.8 12.8s32-6.4 38.4-19.2c6.4-6.4 6.4-12.8 12.8-25.6h51.2c-6.4 25.6-12.8 51.2-32 64s-44.8 25.6-70.4 25.6c-32 0-64-12.8-83.2-32-19.2-25.6-32-57.6-32-96 0-44.8 12.8-76.8 32-102.4 19.2-19.2 44.8-32 76.8-32 38.4 0 70.4 12.8 89.6 38.4 12.8 19.2 19.2 38.4 19.2 51.2h-51.2z"/></svg>