<svg width="64" height="64" viewBox="0 0 1024 1024" xmlns="http://www.w3.org/2000/svg"><path d="M64 64v896h960V64H64zm896 832H128V320h832v576zm0-640h-64v-64h-64v64h-64v-64h-64v64h-64v-64h-64v64H128V128h832v128zM371.2 748.8c25.6 0 51.2-6.4 70.4-25.6s32-38.4 32-64h-51.2c-6.4 12.8-6.4 19.2-12.8 25.6-6.4 12.8-25.6 19.2-38.4 19.2-19.2 0-32-6.4-44.8-19.2s-19.2-32-19.2-64 6.4-51.2 19.2-64c12.8-12.8 25.6-25.6 44.8-25.6s32 6.4 38.4 12.8c6.4 12.8 6.4 19.2 12.8 32h51.2c0-12.8-6.4-32-19.2-44.8-19.2-25.6-44.8-38.4-89.6-38.4-32 0-57.6 12.8-76.8 32s-32 51.2-32 96c0 38.4 12.8 70.4 32 96 19.2 19.2 44.8 32 83.2 32zm204.8-160c0 17.673-14.327 32-32 32s-32-14.327-32-32c0-17.673 14.327-32 32-32s32 14.327 32 32zm0 128c0 17.673-14.327 32-32 32s-32-14.327-32-32c0-17.673 14.327-32 32-32s32 14.327 32 32zm45.536 17.67l160-277.12 55.424 32-160 277.12-55.424-32z"/></svg>