<svg width="64" height="64" viewBox="0 0 1024 1024" xmlns="http://www.w3.org/2000/svg"><path d="M697.6 76.8h-352c-172.8 0-326.4 128-339.2 294.4-19.2 198.4 134.4 358.4 326.4 358.4H512v217.6L825.6 736c102.4-64 172.8-166.4 192-288 6.4-6.4 6.4-25.6 6.4-38.4C1024 224 876.8 76.8 697.6 76.8zm256 371.2c-19.2 96-76.8 185.6-166.4 243.2L576 832V672H326.4c-70.4 0-140.8-32-192-89.6-51.2-51.2-76.8-128-70.4-204.8 12.8-134.4 134.4-236.8 275.2-236.8h352c147.2 0 262.4 121.6 262.4 262.4 6.4 12.8 6.4 25.6 0 44.8z"/></svg>