<svg width="64" height="64" viewBox="0 0 1024 1024" xmlns="http://www.w3.org/2000/svg"><path d="M448 64L192 320v640h704V64H448zm0 89.6V320H281.6L448 153.6zM832 896H256V384h256V128h320v768zM384 448v96l-64 64 64 64v96h96l64 64 64-64h96v-96l64-64-64-64v-96h-96l-64-64-64 64h-96zm140.8 44.8l19.2-19.2 38.4 38.4H640v57.6l38.4 38.4-38.4 38.4V704h-57.6L544 742.4 505.6 704H448v-57.6L409.6 608l38.4-38.4V512h57.6l19.2-19.2zM576 608c0 17.673-14.327 32-32 32s-32-14.327-32-32c0-17.673 14.327-32 32-32s32 14.327 32 32z"/></svg>