<svg width="64" height="64" viewBox="0 0 1024 1024" xmlns="http://www.w3.org/2000/svg"><path d="M448 301.313V256h128v45.313a159.847 159.847 0 0 1 31.006 17.934l39.271-22.673 64 110.851-39.267 22.671c.654 5.878.99 11.851.99 17.903s-.336 12.026-.99 17.903l39.267 22.671-64 110.851-39.271-22.673A159.847 159.847 0 0 1 576 594.685v45.313H448v-45.313a159.847 159.847 0 0 1-31.006-17.934l-39.271 22.673-64-110.851 39.267-22.671c-.654-5.878-.99-11.851-.99-17.903s.336-12.026.99-17.903l-39.267-22.671 64-110.851 39.271 22.673A159.847 159.847 0 0 1 448 301.313zM64 128h896v640H64V128zm64 576h768V192H128v512zm384-144c61.856 0 112-50.144 112-112s-50.144-112-112-112-112 50.144-112 112 50.144 112 112 112zM384 768h256v64H384v-64zm-128 64h512v64H256v-64z"/></svg>