<svg width="64" height="64" viewBox="0 0 1024 1024" xmlns="http://www.w3.org/2000/svg"><path d="M481.007 118.844V64.029h64v55.978L864 304.178v373.177l52.185 30.054-31.94 55.46-54.479-31.375.946-1.643L511.999 913.86 197.22 732.122l-52.463 30.517-32.18-55.322 47.422-27.585V304.177l321.007-185.333zm0 73.901L224 341.128v301.377l54.542-31.726 32.18 55.322-49.74 28.933L512.001 839.96l252.735-145.917-45.889-26.428 31.94-55.46 49.214 28.343V341.13L545.008 193.91v61.867h-64v-63.029zm1.681-.971h58.623l-29.312-16.923-29.312 16.923zm29.181 320l.657 1.13.651-1.13h-1.308zm-30.862-18.766v-45.234h64v45.869l39.399 22.69-31.94 55.46-40.007-23.04-35.772 20.808-32.18-55.322 36.5-21.231zm302.822 190.01L800 673.682V654.94l-16.171 28.078zm-534.094 5.522L224 644.298v29.384l25.735 14.858zm116.308-54.62l-32.18-55.322 55.322-32.18 32.18 55.322-55.322 32.18zm241.883-30.187l31.94-55.46 55.46 31.94-31.94 55.46-55.46-31.94zm-62.919-219.959h-64v-64h64v64z"/></svg>