<?xml version="1.0" encoding="utf-8"?>
<svg width="1792" height="1792" xmlns="http://www.w3.org/2000/svg"><path d="M768 880c0 61.738 50.223 112 112 112 61.738 0 112-50.223 112-112 0-61.738-50.223-112-112-112-61.738 0-112 50.223-112 112zm-64 0c0-97.202 78.996-176 176-176 97.202 0 176 78.996 176 176 0 97.202-78.996 176-176 176-97.202 0-176-78.996-176-176zm-384 416c0 61.738 50.223 112 112 112 61.738 0 112-50.223 112-112 0-61.738-50.223-112-112-112-61.738 0-112 50.223-112 112zm-64 0c0-97.202 78.996-176 176-176 97.202 0 176 78.996 176 176 0 97.202-78.996 176-176 176-97.202 0-176-78.996-176-176zm64-304h224V768H320v224zm-64-288h352v352H256V704zm480 704h224v-224H736v224zm-64-288h352v352H672v-352z" fill="undefined"/></svg>