<?xml version="1.0" encoding="utf-8"?>
<svg width="1792" height="1792" xmlns="http://www.w3.org/2000/svg"><path d="M248.067 896L448 696.067V640h192v192H448v-45.424L338.576 896H384v192H192V896h56.067zm695.917-64L832 943.984V1088H640V896h149.474L896 789.474V640h192v192H943.984zM832 1393.832L945.832 1280H896v-192h192v192h-51.658L832 1484.342V1536H640v-192h192v49.832zM192 1344h192v192H192v-192zm768-192v64h64v-64h-64zm0-448v64h64v-64h-64zm-448 0v64h64v-64h-64zm-256 384h64v256h-64v-256zm448 0h64v256h-64v-256zm256-256v256h64V832h-64zM640 704h256v64H640v-64zm-256 704h256v64H384v-64zm0-448h256v64H384v-64z" fill="undefined"/></svg>