<svg width="64" height="64" viewBox="0 0 1024 1024" xmlns="http://www.w3.org/2000/svg"><path d="M120.067 320L320 120.067V64h192v192H320v-45.424L210.576 320H256v192H64V320h56.067zm695.917-64L704 367.984V512H512V320h149.474L768 213.474V64h192v192H815.984zM704 817.832L817.832 704H768V512h192v192h-51.658L704 908.342V960H512V768h192v49.832zM64 768h192v192H64V768zm768-192v64h64v-64h-64zm0-448v64h64v-64h-64zm-448 0v64h64v-64h-64zM128 512h64v256h-64V512zm448 0h64v256h-64V512zm256-256v256h64V256h-64zM512 128h256v64H512v-64zM256 832h256v64H256v-64zm0-448h256v64H256v-64z"/></svg>