<svg width="64" height="64" viewBox="0 0 1024 1024" xmlns="http://www.w3.org/2000/svg"><path d="M480 256h64v64h-64v-64zm288 288h64v64h-64v-64zm-576 0h64v64h-64v-64zm68.964-172.8l45.254-45.254 45.254 45.254-45.254 45.254-45.254-45.254zm410.569-.975l45.254-45.254 45.254 45.254-45.254 45.254-45.254-45.254zM512 128C262.4 128 64 326.4 64 576c0 70.4 12.8 134.4 44.8 192h806.4c25.6-57.6 44.8-121.6 44.8-192 0-249.6-198.4-448-448-448zm364.8 576H576l-64-320-64 320H147.2c-12.8-38.4-19.2-83.2-19.2-128 0-211.2 172.8-384 384-384s384 172.8 384 384c0 44.8-6.4 89.6-19.2 128z"/></svg>