<svg width="64" height="64" viewBox="0 0 1792 1792" xmlns="http://www.w3.org/2000/svg"><path d="M288 800h-64v704h704v-64H288V800zm64-64l64-64v64l-64-64h64l-64 64v-64l64 64h-64zm0-64h64v64h-64v-64zm0 0h64v64h-64v-64zm-128 64l64-64v64l-64-64h64l-64 64v-64l64 64h-64zm0-64h64v64h-64v-64zm0 0h64v64h-64v-64zm256 64l64-64v64l-64-64h64l-64 64v-64l64 64h-64zm0-64h64v64h-64v-64zm0 0h64v64h-64v-64zm128 64l64-64v64l-64-64h64l-64 64v-64l64 64h-64zm0-64h64v64h-64v-64zm0 0h64v64h-64v-64zm128 64l64-64v64l-64-64h64l-64 64v-64l64 64h-64zm0-64h64v64h-64v-64zm0 0h64v64h-64v-64zm128 64l64-64v64l-64-64h64l-64 64v-64l64 64h-64zm0-64h64v64h-64v-64zm0 0h64v64h-64v-64zm128 64l64-64v64l-64-64h64l-64 64v-64l64 64h-64zm0-64h64v64h-64v-64zm0 0h64v64h-64v-64zm0 128l64 64h-64l64-64v64l-64-64h64l-64 64v-64zm64 0v64h-64v-64h64zm0 0v64h-64v-64h64zm-64-128l64 64h-64l64-64v64l-64-64h64l-64 64v-64zm64 0v64h-64v-64h64zm0 0v64h-64v-64h64zm-64 256l64 64h-64l64-64v64l-64-64h64l-64 64v-64zm64 0v64h-64v-64h64zm0 0v64h-64v-64h64zm-64 128l64 64h-64l64-64v64l-64-64h64l-64 64v-64zm64 0v64h-64v-64h64zm0 0v64h-64v-64h64zm-64 128l64 64h-64l64-64v64l-64-64h64l-64 64v-64zm64 0v64h-64v-64h64zm0 0v64h-64v-64h64zm-64 128l64 64h-64l64-64v64l-64-64h64l-64 64v-64zm64 0v64h-64v-64h64zm0 0v64h-64v-64h64zm-64 128l64 64h-64l64-64v64l-64-64h64l-64 64v-64zm64 0v64h-64v-64h64zm0 0v64h-64v-64h64zm-209.963-107.147l-41.229-48.951a257.64 257.64 0 0 0 44.347-48.246C879.477 1192.793 896 1141.679 896 1088c0-141.385-114.615-256-256-256-68.441 0-132.543 26.937-180.193 74.158l-45.05-45.459C474.274 801.718 554.512 768 639.999 768c176.731 0 320 143.269 320 320 0 67.027-20.69 131.032-58.597 184.617a321.672 321.672 0 0 1-55.367 60.236zm-121.289-3.217a256.137 256.137 0 0 1-55.452 12.694l7.277 63.585a320.107 320.107 0 0 0 69.308-15.869l-21.133-60.41zm-119.392 12.025a255.875 255.875 0 0 1-55.17-13.857l-22.406 59.95a319.852 319.852 0 0 0 68.968 17.326l8.607-63.419zm-104.349-38.609a256.834 256.834 0 0 1-39.507-31.547c-3.671-3.642-5.315-5.308-6.975-7.051l-46.345 44.138c2.142 2.249 4.188 4.322 8.468 8.567 15.447 15.037 31.964 28.206 49.558 39.605l34.8-53.712zm-80.947-83.913a253.961 253.961 0 0 1-23.507-51.762l-60.865 19.784a317.944 317.944 0 0 0 29.43 64.799l54.943-32.822zm-35.259-110.831a257.705 257.705 0 0 1 1.81-56.896l-63.351-9.091a321.732 321.732 0 0 0-2.26 71.031l63.801-5.043zm16.118-112.031l-59.768-22.886a317.828 317.828 0 0 1 32.726-63.194l53.181 35.606a253.883 253.883 0 0 0-26.139 50.474zm420.1 272.742l45.255 45.255c-16.953 16.953-35.547 31.81-55.494 44.418l-34.194-54.1c15.951-10.082 30.835-21.975 44.433-35.573z"/></svg>