<svg width="64" height="64" viewBox="0 0 1792 1792" xmlns="http://www.w3.org/2000/svg"><path d="M928 928c-12.8-147.2-140.8-256-288-256S371.2 787.2 352 928c-108.8 12.8-192 108.8-192 224 0 121.6 102.4 224 224 224h512c121.6 0 224-102.4 224-224 0-115.2-83.2-204.8-192-224zm-32 384H384c-89.6 0-160-70.4-160-160s70.4-160 160-160h32v-32c0-121.6 102.4-224 224-224s224 102.4 224 224v32h32c89.6 0 160 70.4 160 160s-70.4 160-160 160zm-224-172.8V896h-64v243.2L473.6 998.4l-51.2 51.2L640 1260.8l217.6-211.2-51.2-51.2z"/></svg>