<svg width="64" height="64" viewBox="0 0 1024 1024" xmlns="http://www.w3.org/2000/svg"><path d="M512 0C230.4 0 0 230.4 0 512s230.4 512 512 512 512-230.4 512-512S793.6 0 512 0zm454.4 518.4c-128-25.6-236.8-25.6-326.4-6.4l-57.6-115.2c102.4-38.4 198.4-96 275.2-179.2 64 76.8 108.8 179.2 108.8 294.4v6.4zM812.8 179.2c-70.4 76.8-160 128-256 166.4C512 256 454.4 166.4 384 76.8c44.8-12.8 83.2-19.2 128-19.2 115.2 0 224 44.8 300.8 121.6zm-486.4-76.8c70.4 83.2 121.6 172.8 172.8 262.4-179.2 57.6-358.4 64-428.8 64 25.6-147.2 128-268.8 256-326.4zM57.6 512v-25.6h12.8c76.8 0 262.4-6.4 448-64 25.6 32 38.4 70.4 57.6 108.8-217.6 64-345.6 224-390.4 288-76.8-83.2-128-185.6-128-307.2zM224 864c38.4-51.2 153.6-211.2 371.2-275.2 57.6 153.6 83.2 288 96 339.2-57.6 25.6-115.2 38.4-179.2 38.4-108.8 0-204.8-38.4-288-102.4zm524.8 32c-12.8-64-38.4-185.6-89.6-326.4 89.6-19.2 185.6-19.2 300.8 6.4-25.6 140.8-102.4 256-211.2 320z"/></svg>