<svg width="64" height="64" viewBox="0 0 1024 1024" xmlns="http://www.w3.org/2000/svg"><path d="M646.4 940.8c19.2-6.4 38.4-12.8 57.6-25.6h6.4C857.6 838.4 960 684.8 960 512c0-102.4-32-198.4-96-275.2-25.6-32-51.2-57.6-76.8-76.8h-6.4c-12.8-12.8-25.6-25.6-38.4-32 0 0-6.4 0-6.4-6.4-32-19.2-64-32-96-44.8-6.4 0-6.4 0-12.8-6.4-19.2 6.4-32 0-44.8 0h-12.8C550.4 64 531.2 64 512 64c-44.8 0-89.6 6.4-134.4 19.2-19.2 6.4-44.8 19.2-64 25.6 0 0-6.4 0-6.4 6.4-19.2 6.4-38.4 19.2-51.2 32l-6.4 6.4c-19.2 12.8-32 25.6-51.2 38.4-12.8 12.8-32 32-44.8 51.2 0 0-6.4 6.4-6.4 12.8-12.8 12.8-19.2 25.6-32 44.8v6.4c-12.8 19.2-19.2 38.4-25.6 57.6 0 6.4 0 6.4-6.4 12.8 0 12.8-6.4 32-12.8 57.6V448C64 467.2 64 486.4 64 512c0 243.2 192 441.6 435.2 448H512c19.2 0 44.8 0 64-6.4h12.8c19.2-6.4 38.4-6.4 57.6-12.8zm-19.2-211.2l-64-89.6H608l64 64h32v140.8c-12.8 6.4-32 19.2-44.8 25.6h-6.4c-12.8 6.4-32 12.8-51.2 12.8l51.2-128-25.6-25.6zm-44.8-268.8l-25.6-6.4-38.4-89.6 51.2-115.2 6.4-12.8V134.4c19.2 6.4 44.8 6.4 64 19.2 64 25.6 121.6 64 166.4 115.2L608 377.6l-51.2 32 25.6 51.2zM371.2 198.4L281.6 384h-64l-64 128H128c0-19.2 0-32 6.4-51.2V448c0-12.8 6.4-25.6 6.4-38.4 0-6.4 0-6.4 6.4-12.8 0-12.8 6.4-25.6 12.8-38.4 0-6.4 6.4-12.8 6.4-19.2 6.4-6.4 12.8-12.8 12.8-19.2 6.4-12.8 12.8-25.6 25.6-38.4 6.4-6.4 6.4-12.8 12.8-12.8l19.2-19.2 12.8-12.8 19.2-19.2c6.4-6.4 19.2-19.2 32-25.6 0 0 6.4-6.4 12.8-6.4 6.4-6.4 19.2-12.8 32-12.8 0 0 6.4 0 6.4-6.4l19.2 32zM512 896c-192 0-345.6-140.8-377.6-320H192l64-128h64l128-256-32-51.2c32-6.4 64-12.8 96-12.8v96l-64 140.8 64 140.8L704 576l-64-140.8L844.8 320c32 57.6 51.2 121.6 51.2 192 0 115.2-51.2 217.6-128 288V640h-64l-64-64H448l128 192-51.2 128H512z"/></svg>