<?xml version="1.0" encoding="utf-8"?>
<svg width="1792" height="1792" xmlns="http://www.w3.org/2000/svg"><path d="M640 940.8c-83.2 0-147.2 64-147.2 147.2s64 147.2 147.2 147.2 147.2-64 147.2-147.2c0-83.2-64-147.2-147.2-147.2zm0 230.4c-44.8 0-83.2-38.4-83.2-83.2s38.4-83.2 83.2-83.2 83.2 38.4 83.2 83.2c0 44.8-38.4 83.2-83.2 83.2zm0-448c-236.8 0-435.2 153.6-512 364.8 76.8 211.2 275.2 364.8 512 364.8s435.2-153.6 512-364.8c-76.8-211.2-275.2-364.8-512-364.8zm0 665.6c-192 0-371.2-121.6-441.6-300.8C268.8 908.8 448 787.2 640 787.2s371.2 121.6 441.6 300.8c-70.4 179.2-249.6 300.8-441.6 300.8z" fill="undefined"/></svg>