<svg width="64" height="64" viewBox="0 0 1024 1024" xmlns="http://www.w3.org/2000/svg"><path d="M512 364.8c-83.2 0-147.2 64-147.2 147.2s64 147.2 147.2 147.2 147.2-64 147.2-147.2c0-83.2-64-147.2-147.2-147.2zm0 230.4c-44.8 0-83.2-38.4-83.2-83.2s38.4-83.2 83.2-83.2 83.2 38.4 83.2 83.2c0 44.8-38.4 83.2-83.2 83.2zm0-448C275.2 147.2 76.8 300.8 0 512c76.8 211.2 275.2 364.8 512 364.8S947.2 723.2 1024 512c-76.8-211.2-275.2-364.8-512-364.8zm0 665.6c-192 0-371.2-121.6-441.6-300.8C140.8 332.8 320 211.2 512 211.2S883.2 332.8 953.6 512C883.2 691.2 704 812.8 512 812.8z"/></svg>