<svg width="64" height="64" viewBox="0 0 1024 1024" xmlns="http://www.w3.org/2000/svg"><path d="M512 64C262.4 64 64 262.4 64 512s198.4 448 448 448 448-198.4 448-448S761.6 64 512 64zm0 832c-211.2 0-384-172.8-384-384s172.8-384 384-384 384 172.8 384 384-172.8 384-384 384zm0-179.2c-70.4 0-128-38.4-166.4-96l-57.6 32c44.8 76.8 128 128 217.6 128s172.8-51.2 217.6-128l-57.6-32c-25.6 64-83.2 96-153.6 96zM384 448c0-38.4-25.6-64-64-64s-64 25.6-64 64 25.6 64 64 64 64-25.6 64-64zm320-64c-38.4 0-64 25.6-64 64s25.6 64 64 64 64-25.6 64-64-25.6-64-64-64z"/></svg>