<svg width="64" height="64" viewBox="0 0 1792 1792" xmlns="http://www.w3.org/2000/svg"><path d="M576 1152h192v128H576v-128zm-256 0h192v128H320v-128zm256 192H320v128h320v-128zm192 0h-64v128h320v-128H832zm64-192h192v128H832v-128zM448 998.4c0 32 6.4 64 19.2 89.6h409.6c12.8-25.6 19.2-57.6 19.2-89.6 0-115.2-76.8-172.8-134.4-217.6S691.2 672 691.2 640C608 704 563.2 755.2 544 800c-32 83.2 6.4 147.2 6.4 147.2 6.4 12.8 6.4 19.2 0 25.6-6.4 0-12.8-6.4-19.2-6.4 0 0-6.4-6.4-6.4-12.8-12.8-19.2-12.8-51.2-12.8-51.2-6.4-19.2-6.4-51.2 0-70.4 0 0-32 19.2-51.2 64C448 934.4 448 979.2 448 998.4z"/></svg>