<svg width="64" height="64" viewBox="0 0 1024 1024" xmlns="http://www.w3.org/2000/svg"><path d="M748.8 512c12.8-25.6 19.2-57.6 19.2-89.6 0-115.2-76.8-172.8-134.4-217.6S563.2 96 563.2 64C480 128 435.2 179.2 416 224c-32 83.2 6.4 147.2 6.4 147.2 6.4 12.8 6.4 19.2 0 25.6-6.4 0-12.8-6.4-19.2-6.4 0 0-6.4-6.4-6.4-12.8-12.8-19.2-12.8-51.2-12.8-51.2-6.4-19.2-6.4-51.2 0-70.4 0 0-32 19.2-51.2 64C320 358.4 320 403.2 320 422.4c0 32 6.4 64 19.2 89.6H128v448h832V512H748.8zM640 704H448V576h192v128zM384 448c12.8 6.4 25.6 6.4 38.4 6.4h12.8L448 448c19.2 0 64-32 38.4-96v-12.8s-25.6-44.8 0-89.6c6.4-25.6 25.6-44.8 51.2-70.4 12.8 25.6 38.4 51.2 64 76.8C652.8 300.8 704 339.2 704 422.4c0 32-12.8 64-25.6 89.6H409.6c-12.8-19.2-19.2-38.4-25.6-64zM192 576h192v128H192V576zm0 320V768h320v128H192zm704 0H576V768h320v128zM704 704V576h192v128H704z"/></svg>