<svg width="64" height="64" viewBox="0 0 1024 1024" xmlns="http://www.w3.org/2000/svg"><path d="M448 576h192v128H448V576zm-256 0h192v128H192V576zm256 192H192v128h320V768zm192 0h-64v128h320V768H704zm64-192h192v128H704V576zM320 422.4c0 32 6.4 64 19.2 89.6h409.6c12.8-25.6 19.2-57.6 19.2-89.6 0-115.2-76.8-172.8-134.4-217.6S563.2 96 563.2 64C480 128 435.2 179.2 416 224c-32 83.2 6.4 147.2 6.4 147.2 6.4 12.8 6.4 19.2 0 25.6-6.4 0-12.8-6.4-19.2-6.4 0 0-6.4-6.4-6.4-12.8-12.8-19.2-12.8-51.2-12.8-51.2-6.4-19.2-6.4-51.2 0-70.4 0 0-32 19.2-51.2 64C320 358.4 320 403.2 320 422.4z"/></svg>