<?xml version="1.0" encoding="utf-8"?>
<svg width="1792" height="1792" xmlns="http://www.w3.org/2000/svg"><path d="M876.8 1088c12.8-25.6 19.2-57.6 19.2-89.6 0-115.2-76.8-172.8-134.4-217.6S691.2 672 691.2 640C608 704 563.2 755.2 544 800c-32 83.2 6.4 147.2 6.4 147.2 6.4 12.8 6.4 19.2 0 25.6-6.4 0-12.8-6.4-19.2-6.4 0 0-6.4-6.4-6.4-12.8-12.8-19.2-12.8-51.2-12.8-51.2-6.4-19.2-6.4-51.2 0-70.4 0 0-32 19.2-51.2 64C448 934.4 448 979.2 448 998.4c0 32 6.4 64 19.2 89.6H256v448h832v-448H876.8zM768 1280H576v-128h192v128zm-256-256c12.8 6.4 25.6 6.4 38.4 6.4h12.8l12.8-6.4c19.2 0 64-32 38.4-96v-12.8s-25.6-44.8 0-89.6c6.4-25.6 25.6-44.8 51.2-70.4 12.8 25.6 38.4 51.2 64 76.8C780.8 876.8 832 915.2 832 998.4c0 32-12.8 64-25.6 89.6H537.6c-12.8-19.2-19.2-38.4-25.6-64zm-192 128h192v128H320v-128zm0 320v-128h320v128H320zm704 0H704v-128h320v128zm-192-192v-128h192v128H832z" fill="undefined"/></svg>