<svg width="64" height="64" viewBox="0 0 1792 1792" xmlns="http://www.w3.org/2000/svg"><path d="M340.674 1006.35c27.195-64.43 67.412-95.993 67.412-95.993-3.805 31.408-5.873 73.838-1.022 104.063 0 0 4.99 43.647 23.779 73.58s34.894 27.164 34.894 27.164c-17.718 35.864-81.599-31.603-81.724 20.988-24.794-31.659-39.006-78.058-43.34-129.801zM623.08 757.54c-118.818 106.792-135.216 187.042-104.033 273.62.02.055 13.764 35.504 16.63 45.672 10.449 37.068 4.849 73.743-35.989 95.064a63.995 63.995 0 0 1-29.62 7.267c-36.54 0-65.083-16.233-86.055-43.012-.005 1.913-.003 3.853.005 5.82.014 3.61.014 3.61.019 7.177 0 154.56 107.313 267.024 249.268 267.024 145.488 0 262.589-115.86 262.589-267.024 0-96.188-37.962-156.141-125.499-226.844-10.803-8.726-7.97-6.523-41.668-32.564-50.48-39.009-84.155-84.797-103.826-133.832l-1.821 1.631zm-153.012 357.624c8.968-4.682 6.385-15.753 0-32.844 0 0-57.59-97.463-9.867-209.646 26.491-65.826 86.11-143.829 206.883-232.674 0 49.647 15.033 132.841 100.776 199.1s192.034 143.786 192.034 310.049c0 190.612-149.898 331.024-326.589 331.024s-313.268-140.412-313.268-331.024c0-29.321-3.167-101.59 30.568-163.767 2.674-4.928 73.801 131.796 119.463 129.782z"/></svg>