<svg width="64" height="64" viewBox="0 0 1024 1024" xmlns="http://www.w3.org/2000/svg"><path d="M423.4 545.712l-97.562-283.938L222.15 545.712H423.4zM280.338 179.2h98.438l233.188 642.687h-95.375l-65.188-192.5H197.214l-69.563 192.5h-89.25L280.338 179.2zM848.4 565.712c15.5-2 25.875-8.5 31.125-19.5 3-6 4.5-14.625 4.5-25.875 0-23-8.187-39.687-24.563-50.062s-39.812-15.562-70.312-15.562c-35.25 0-60.25 9.5-75 28.5-8.25 10.5-13.625 26.125-16.125 46.875h-63c1.25-49.5 17.312-83.937 48.188-103.312s66.687-29.062 107.437-29.062c47.25 0 85.625 9 115.125 27 29.25 18 43.875 46 43.875 84v231.375c0 7 1.437 12.625 4.312 16.875s8.937 6.375 18.188 6.375c3 0 6.375-.187 10.125-.562s7.75-.937 12-1.688v49.875c-10.5 3-18.5 4.875-24 5.625s-13 1.125-22.5 1.125c-23.25 0-40.125-8.25-50.625-24.75-5.5-8.75-9.375-21.125-11.625-37.125-13.75 18-33.5 33.625-59.25 46.875s-54.125 19.875-85.125 19.875c-37.25 0-67.687-11.312-91.312-33.937s-35.437-50.937-35.437-84.938c0-37.25 11.625-66.125 34.875-86.625s53.75-33.125 91.5-37.875l107.625-13.5zM706.275 748.337c14.25 11.25 31.125 16.875 50.625 16.875 23.75 0 46.75-5.5 69-16.5 37.5-18.25 56.25-48.125 56.25-89.625v-54.375c-8.25 5.25-18.875 9.625-31.875 13.125s-25.75 6-38.25 7.5l-40.875 5.25c-24.5 3.25-42.875 8.375-55.125 15.375-20.75 11.75-31.125 30.5-31.125 56.25 0 19.5 7.125 34.875 21.375 46.125z"/></svg>