<?xml version="1.0" encoding="utf-8"?>
<svg width="1792" height="1792" xmlns="http://www.w3.org/2000/svg"><path d="M1081.6 1094.4l-38.4-160C1030.4 876.8 972.8 832 908.8 832H358.4c-64 0-115.2 44.8-134.4 102.4l-38.4 160c-32 128 64 249.6 198.4 249.6 76.8 0 147.2-44.8 179.2-108.8l6.4-19.2h128l6.4 19.2c32 70.4 102.4 108.8 179.2 108.8 134.4 0 230.4-121.6 198.4-249.6zM448 1088v64h-64v-64h-64v-64h64v-64h64v64h64v64h-64zm352-64c19.2 0 32 12.8 32 32s-12.8 32-32 32-32-12.8-32-32 12.8-32 32-32zm64 64c19.2 0 32 12.8 32 32s-12.8 32-32 32-32-12.8-32-32 12.8-32 32-32zm0-64c-19.2 0-32-12.8-32-32s12.8-32 32-32 32 12.8 32 32-12.8 32-32 32zm64 0c19.2 0 32 12.8 32 32s-12.8 32-32 32-32-12.8-32-32 12.8-32 32-32z" fill="undefined"/></svg>