<svg width="64" height="64" viewBox="0 0 1792 1792" xmlns="http://www.w3.org/2000/svg"><path d="M448 960h-64v64h-64v64h64v64h64v-64h64v-64h-64zm448 32c0 17.673-14.327 32-32 32s-32-14.327-32-32c0-17.673 14.327-32 32-32s32 14.327 32 32zm0 128c0 17.673-14.327 32-32 32s-32-14.327-32-32c0-17.673 14.327-32 32-32s32 14.327 32 32zm64-64c0 17.673-14.327 32-32 32s-32-14.327-32-32c0-17.673 14.327-32 32-32s32 14.327 32 32zm-128 0c0 17.673-14.327 32-32 32s-32-14.327-32-32c0-17.673 14.327-32 32-32s32 14.327 32 32zm249.6 38.4l-38.4-160c-12.8-64-70.4-102.4-134.4-102.4H358.4c-64 0-115.2 44.8-134.4 102.4l-38.4 160c-32 128 64 249.6 198.4 249.6 76.8 0 147.2-44.8 179.2-108.8l6.4-19.2h128l6.4 19.2c32 70.4 102.4 108.8 179.2 108.8 134.4 0 230.4-121.6 198.4-249.6zM992 1228.8c-25.6 32-64 51.2-108.8 51.2-51.2 0-102.4-32-121.6-76.8L736 1152H531.2l-25.6 51.2c-25.6 44.8-70.4 76.8-128 76.8-44.8 0-83.2-19.2-108.8-51.2s-32-76.8-25.6-121.6l38.4-160c12.8-25.6 38.4-51.2 76.8-51.2h556.8c32 0 64 25.6 70.4 57.6l38.4 160c6.4 38.4 0 76.8-32 115.2z"/></svg>