<svg width="64" height="64" viewBox="0 0 1024 1024" xmlns="http://www.w3.org/2000/svg"><path d="M512 627.2h320v320H512v-320zm-384 0h320v320H128v-320zm320-64v-256h64v256h384v-320H755.2c25.6-51.2 6.4-108.8-44.8-128-12.8-6.4-32-12.8-44.8-12.8-25.6 0-44.8 6.4-64 25.6L480 243.2 358.4 128c-19.2-19.2-44.8-25.6-64-25.6-12.8 0-32 6.4-44.8 12.8-51.2 25.6-70.4 83.2-44.8 128H64v320h384zm198.4-384c6.4-6.4 12.8-6.4 25.6-6.4 6.4 0 12.8 0 12.8 6.4 19.2 6.4 25.6 32 12.8 44.8v6.4c-6.4 12.8-19.2 19.2-32 19.2H576l70.4-70.4zm-371.2-6.4c6.4 0 12.8-6.4 12.8-6.4 6.4 0 19.2 0 25.6 6.4l70.4 64h-89.6c-12.8 0-25.6-6.4-32-19.2v-6.4c-12.8-12.8-6.4-32 12.8-38.4z"/></svg>