<svg width="64" height="64" viewBox="0 0 1024 1024" xmlns="http://www.w3.org/2000/svg"><path d="M896 249.6H755.2c25.6-51.2 6.4-108.8-44.8-128-12.8-6.4-32-12.8-44.8-12.8-25.6 0-44.8 6.4-64 25.6L480 249.6 358.4 134.4c-19.2-19.2-44.8-25.6-64-25.6-12.8 0-32 6.4-44.8 12.8-51.2 25.6-70.4 83.2-44.8 128H64v320h64v384h704v-384h64v-320zm-249.6-64c6.4-6.4 12.8-6.4 25.6-6.4 6.4 0 12.8 0 12.8 6.4l19.2 19.2v32c-6.4 12.8-19.2 19.2-32 19.2h-96l70.4-70.4zM256 198.4c0-6.4 6.4-12.8 19.2-19.2 6.4 0 12.8-6.4 12.8-6.4 6.4 0 19.2 0 25.6 6.4l70.4 64h-89.6c-12.8 0-25.6-6.4-32-19.2v-6.4c-6.4 0-6.4-12.8-6.4-19.2zM128 313.6h320v192H128v-192zm64 576v-320h192v320H192zm256 0v-320h64v320h-64zm320 0H576v-320h192v320zm64-384H512v-192h320v192z"/></svg>