<svg width="64" height="64" viewBox="0 0 1024 1024" xmlns="http://www.w3.org/2000/svg"><path d="M192 736c0 53.384 42.729 96 96 96 53.384 0 96-42.729 96-96 0-53.384-42.729-96-96-96-53.384 0-96 42.729-96 96zm-64 0c0-88.366 71.018-160 160-160 88.366 0 160 71.018 160 160 0 88.366-71.018 160-160 160-88.366 0-160-71.018-160-160zm64-608h192v192H192V128zm64 64v64h64v-64h-64zm448-64h192v192H704V128zm64 64v64h64v-64h-64zM384 448h64v64h-64v-64zm128 0h64v64h-64v-64zm128 0h64v64h-64v-64zm128 0h64v64h-64v-64zm0-128h64v64h-64v-64zm-512 0h64v283.363h-64V320z"/></svg>