<?xml version="1.0" encoding="utf-8"?>
<svg width="1792" height="1792" xmlns="http://www.w3.org/2000/svg"><path d="M640 620.8c-262.4 0-480 211.2-480 480 0 211.2 134.4 390.4 326.4 454.4 25.6 6.4 32-12.8 32-25.6V1440c-121.6 19.2-153.6-32-160-57.6-6.4-12.8-32-57.6-51.2-70.4-19.2-6.4-38.4-32 0-32s64 32 76.8 51.2c44.8 70.4 115.2 51.2 140.8 38.4 6.4-32 19.2-51.2 32-64-108.8-6.4-224-44.8-224-230.4 0-51.2 19.2-96 51.2-128-6.4-12.8-19.2-64 6.4-128 0 0 38.4-12.8 134.4 51.2 32-12.8 76.8-19.2 115.2-19.2s83.2 6.4 121.6 19.2c89.6-64 134.4-51.2 134.4-51.2 25.6 64 6.4 115.2 6.4 128 32 32 51.2 76.8 51.2 128 0 185.6-115.2 224-217.6 236.8 19.2 12.8 32 44.8 32 89.6V1536c0 12.8 6.4 25.6 32 25.6 198.4-64 326.4-249.6 326.4-454.4C1120 832 902.4 620.8 640 620.8z" fill="undefined"/></svg>