<svg width="64" height="64" viewBox="0 0 1792 1792" xmlns="http://www.w3.org/2000/svg"><path d="M1043.2 902.4c6.4-19.2 32-96-6.4-198.4 0 0-64-19.2-204.8 76.8-64-12.8-128-19.2-192-19.2s-128 6.4-185.6 19.2c-147.2-96-211.2-76.8-211.2-76.8-38.4 102.4-12.8 179.2-6.4 198.4C192 953.6 160 1024 160 1107.2c0 307.2 198.4 377.6 480 377.6s480-70.4 480-377.6c0-83.2-32-153.6-76.8-204.8zM640 1427.2c-198.4 0-358.4-6.4-358.4-198.4 0-44.8 25.6-89.6 64-121.6 64-57.6 172.8-25.6 300.8-25.6 121.6 0 230.4-32 294.4 25.6 38.4 38.4 64 76.8 64 121.6-6.4 185.6-166.4 198.4-364.8 198.4zm-153.6-300.8c-38.4 0-70.4 51.2-70.4 108.8s32 108.8 70.4 108.8 70.4-51.2 70.4-108.8-25.6-108.8-70.4-108.8zm307.2 0c-38.4 0-70.4 44.8-70.4 108.8s32 108.8 70.4 108.8c38.4 0 70.4-51.2 70.4-108.8s-32-108.8-70.4-108.8z"/></svg>