<svg width="64" height="64" viewBox="0 0 1024 1024" xmlns="http://www.w3.org/2000/svg"><path d="M756.48 64h-512l-128 128 64 512 256 256h32V768h64v192h32l256-256 64-512-128-128zm-448 320h128v64h-128v-64zm384 0v64h-128v-64h128zm-6.4-88.96L579.2 348.8l-28.8-57.6 148.48-74.24 80 80-45.44 45.44-47.36-47.36zm-384-78.08l148.48 74.24-28.16 57.6-107.52-53.76-47.36 47.36-45.44-44.8 80-80.64zm29.44 336.64l54.4 54.4h37.76l77.44-77.44 76.8 77.44h37.76l54.4-54.4 45.44 45.44-73.6 73.6h-90.24l-51.2-51.2L449.92 672h-90.24l-73.6-73.6 45.44-44.8z"/></svg>