<svg width="64" height="64" viewBox="0 0 1792 1792" xmlns="http://www.w3.org/2000/svg"><path d="M604.377 934.004C604.377 878.27 648.725 832 704.804 832c55.965 0 100.76 46.152 100.76 102.004v135.071c20.733 4.511 39.263 15.08 53.555 29.776 2.408-.163 4.839-.246 7.29-.246 29.758 0 56.712 12.248 75.972 32.001l-2.952-.045c.988 0 1.972.015 2.952.045 51.354 1.567 92.261 43.865 92.261 95.495v40.433l.156 88.181c0 9.61-.813 19.253-2.369 28.963-5.09 31.76-15.925 58.729-36.407 99.077-20.541 40.465-24.913 50.602-24.913 53.245v64H634.871v-64c0 6.86-1.831 2.602-6.331-4.675-6.693-10.823-13.151-20.01-32.353-46.492l-2.078-2.867c-12.886-17.791-20.566-28.709-28.028-40.159-10.277-15.769-26.026-40.369-45.835-71.534a29891.01 29891.01 0 0 1-40.205-63.448c-8.052-12.74-14.304-22.647-19.171-30.461-26.884-46.584-10.143-105.749 36.209-132.523 34.772-20.062 77.016-16.573 107.299 6.108V934.005zm366.265 333.557v-41.46c0-17.418-13.981-31.54-31.214-31.54-7.343 0-14.248 4.301-20.713 12.904a5.819 5.819 0 0 1-10.47-3.497c0-22.847-18.724-41.364-41.837-41.364-11.165 0-21.231 4.321-28.654 11.364-.622.59-1.23 1.249-1.82 1.979a6.221 6.221 0 0 1-11.039-3.935c0-22.847-18.974-41.364-41.983-41.364-10.355 0-19.765 3.753-26.982 9.962a8.694 8.694 0 0 1-14.364-6.591h-.002V934.003c0-20.991-16.639-38.004-36.76-38.004-20.111 0-36.427 17.023-36.427 38.004v343.764a19.2 19.2 0 0 1-7.623 15.317c-8.459 6.394-20.5 4.719-26.894-3.74l-59.385-78.572c-9.018-15.626-29.348-20.767-45.413-11.498-16.066 9.28-21.779 29.471-12.761 45.097 0 0 73.427 116.497 103.4 162.491s79.171 102.727 79.171 129.137H907.11c0-44.585 63.689-114.226 63.689-181.285-.035-57.783-.087-86.834-.156-87.154zM458.039 773.49l-45.255-45.255 158.392-22.627L548.549 864l-45.255-45.255L367.529 954.51l45.255 45.255-158.392 22.627L277.019 864l45.255 45.255L458.039 773.49z"/></svg>