<svg width="64" height="64" viewBox="0 0 1024 1024" xmlns="http://www.w3.org/2000/svg"><path d="M251.938 420.425L63.821 311.815l32-55.426 886.81 512-32 55.426-100.783-58.187c-8.079 32.567-22.109 64.544-45.021 108.687-32.268 62.171-38.382 76.038-38.382 85.605v64H340.417v-64c0 1.139-17.422-22.975-58.59-70.551-5.771-6.677-8.155-9.444-11.606-13.487C215.6 811.901 192.03 774.943 192.03 727.47c.116-2.97.082-3.617.045-4.321L192 525.077c0-44.605 24.108-83.344 59.938-104.652zM791.46 731.918L360.788 483.269v115.434c0 9.884-10.094 17.873-22.546 17.873s-22.546-7.988-22.546-17.873V466.95c-32.983.03-59.695 26.04-59.695 58.127l.075 198.048c0 .761.209 1.463-.045 4.345 0 66.026 148.387 176.547 148.387 232.45h298.028c0-56.715 75.272-142.393 89.015-228.003zm1.916-147.989l64 36.845V346.917c0-56.525-43.498-102.684-98.745-107.663-18.71-44.273-63.147-75.085-114.702-75.085-14.418-51.839-62.617-89.528-119.241-89.528-1.18 0-2.352.018-3.599-.159C504.209 30.99 462.303-.001 412.913-.001c-64.44 0-116.125 52.769-116.125 117.2v180.837l64 36.845V117.198c0-29.37 23.323-53.2 52.125-53.2s52.14 23.815 52.14 53.2v277.709l45.048 25.934V141.744c4.584-2.284 9.466-3.106 14.588-3.106 32.938 0 59.635 25.921 59.635 57.903v89.528l.134 177.58 45.093 25.96V231.331c4.614-2.344 9.511-3.165 14.648-3.165 33.073 0 59.874 25.921 59.874 57.903v194.375c.791 9.317 10.437 16.693 22.382 16.693 12.453 0 22.546-8.003 22.546-17.888V302.806c24.532.149 44.376 19.829 44.376 44.107v237.011z"/></svg>