<svg width="64" height="64" viewBox="0 0 1024 1024" xmlns="http://www.w3.org/2000/svg"><path d="M526.248 328.553c39.335 0 74.611 18.195 97.317 46.689a126.352 126.352 0 0 1 22.19-1.956c38.632 0 73.376 17.489 96.163 45.047 2.753-.208 5.533-.314 8.338-.314 59.826 0 108.658 48.234 108.658 108.121.03 10.617.075 29.733.119 54.719.075 41.641.12 84.245.12 125.362 0 12.054-1.04 24.199-3.04 36.478-6.729 41.32-21.488 77.275-49.732 131.691C774.113 936.56 768 950.427 768 960v64H341.98v-64c0 1.131-17.423-22.986-58.588-70.559-5.754-6.656-8.13-9.415-11.571-13.446-54.657-64.018-78.224-100.961-78.224-148.439l.136-2.324c-.022-.406-.082-67.099-.181-200.078 0-61.597 46.002-111.991 105.339-120.759 5.72-59.095 55.019-105.703 115.569-105.703 31.786 0 60.47 12.839 81.38 33.584a125.404 125.404 0 0 1 30.407-3.722zM794.914 526.14c0-24.367-20.007-44.121-44.658-44.121-9.488 0-18.279 2.922-25.507 7.905-2.836 1.955-5.493 4.824-7.97 8.611a6.08 6.08 0 0 1-11.166-3.332c0-31.997-26.801-57.917-59.858-57.917-16.699 0-31.799 6.608-42.657 17.27a28.144 28.144 0 0 0-1.6 1.711 8.89 8.89 0 0 1-15.616-5.813c0-31.982-26.711-57.902-59.634-57.902-18.863 0-35.683 8.501-46.615 21.773-1.022 1.24-2.005 2.673-2.949 4.298a5.41 5.41 0 0 1-10.085-2.719c0-29.384-23.337-53.214-52.139-53.214-28.787 0-52.124 23.83-52.124 53.214v167.957c0 9.869-10.093 17.872-22.531 17.872-12.452 0-22.546-8.003-22.546-17.872V467.042c-32.982.045-59.708 26.039-59.708 58.111l.075 198.058c0 .761.209 1.463.239 2.195-.045.761-.269 1.359-.269 2.15 0 66.009 148.383 176.527 148.383 232.443h298.02c0-62.426 91.153-159.894 91.153-253.78s-.239-180.081-.239-180.081z"/></svg>