<?xml version="1.0" encoding="utf-8"?>
<svg width="1792" height="1792" xmlns="http://www.w3.org/2000/svg"><path d="M394.854 1124.646V934.014c0-56.044 45.025-102.013 101.235-102.013 56.216 0 101.246 45.965 101.246 102.013v134.765a106.994 106.994 0 0 1 55.419 30.163c2.826-.222 5.681-.335 8.562-.335 29.907 0 57.139 12.204 76.614 31.975l-1.963-.02c.656 0 1.31.007 1.963.02 51.886 1.04 93.939 43.228 93.939 95.498v39.859l.16 2.41v86.362c0 9.625-.827 19.279-2.409 28.995-5.207 31.98-16.318 59.052-37.337 99.556-20.857 40.191-25.359 50.405-25.359 52.738v64H426.032v-64c0 8.05-.827 6.318-4.44 1.316-6.495-8.989-11.566-15.036-32.959-39.755-4.136-4.784-4.136-4.784-8.346-9.697-42.256-49.488-60.264-77.714-60.264-117.911.082-2.129.058-2.59.032-3.08l-.053-141.508c0-47.581 31.668-87.366 74.854-100.719zm373.014 142.892v-41.459c0-17.407-14.292-31.518-31.902-31.518a32.045 32.045 0 0 0-15.416 3.919c-2.889 1.58-5.574 4.254-8.059 8.021a4.586 4.586 0 0 1-8.416-2.523c0-22.857-19.145-41.373-42.76-41.373-10.35 0-19.84 3.554-27.238 9.469-1.342 1.073-2.633 2.398-3.873 3.973a6.528 6.528 0 0 1-11.66-4.035c0-22.846-19.071-41.363-42.6-41.363-7.861 0-15.224 2.065-21.544 5.666a14.098 14.098 0 0 1-6.977 1.848c-7.784 0-14.093-6.31-14.093-14.093h.005V934.011c0-20.991-16.671-38.013-37.246-38.013-20.564 0-37.235 17.023-37.235 38.013v354.622c0 7.05-7.21 12.767-16.095 12.767-8.895 0-16.106-5.717-16.106-12.767v-104.782c-23.561.032-42.653 18.601-42.653 41.512l.053 141.484c0 .544.149 1.045-.032 3.104 0 47.154 106.009 126.104 106.009 166.048h212.892c0-44.594 65.105-114.222 65.105-181.289-.028-57.788-.082-86.846-.16-87.173zm-76.548-219.914c-8.968 15.229-28.583 20.305-43.812 11.337s-20.305-28.583-11.337-43.812c14.759-25.064 22.45-53.607 22.468-82.641.027-43.083-16.737-84.463-47.816-115.542-63.755-63.755-167.122-63.755-230.876 0-30.631 30.631-47.365 71.27-47.807 113.724-.306 29.321 7.22 58.227 21.97 83.623 8.876 15.282 3.683 34.867-11.599 43.743s-34.867 3.683-43.743-11.599c-20.571-35.417-31.049-75.666-30.625-116.434.615-59.031 23.958-115.722 66.549-158.312 88.748-88.748 232.638-88.748 321.386 0 43.214 43.214 66.599 100.934 66.561 160.837-.026 40.371-10.736 80.12-31.319 115.075zm105.972 61.622c-8.97 15.227-28.587 20.299-43.814 11.329s-20.299-28.587-11.329-43.814c25.959-44.065 39.491-94.221 39.543-145.214.077-75.66-29.359-148.373-83.913-202.928-111.948-111.948-293.536-111.879-405.587.173-53.821 53.821-83.264 125.269-84.069 199.832-.556 51.493 12.645 102.268 38.55 146.888 8.873 15.284 3.677 34.868-11.608 43.741s-34.868 3.677-43.741-11.608c-31.726-54.647-47.878-116.77-47.197-179.713.985-91.134 37.037-178.622 102.811-244.395 137.037-137.037 359.147-137.122 496.096-.173 66.698 66.698 102.752 155.761 102.659 248.248-.063 62.326-16.618 123.683-48.4 177.634z" fill="undefined"/></svg>