<?xml version="1.0" encoding="utf-8"?>
<svg width="1792" height="1792" xmlns="http://www.w3.org/2000/svg"><path d="M648.812 693.206l-4.776 211.302c1.599 0 3.191.03 4.776.09 37.402 1.405 70.918 19.238 92.841 46.569a126.228 126.228 0 0 1 21.98-1.919c38.656 0 73.426 17.491 96.227 45.055 2.761-.209 5.55-.316 8.363-.316 59.854 0 108.709 48.246 108.709 108.156v56.605l.224 123.455c0 12.135-1.055 24.362-3.082 36.725-6.763 41.248-21.52 77.148-49.734 131.471-32.289 62.171-38.409 76.042-38.409 85.602v64H459.663v-64c0-.368-19.311-30.893-60.265-86.1l-2.969-4.004c-18.218-24.584-29.028-39.606-39.415-55.185-14.651-21.974-37.168-56.351-65.492-99.905a41835.102 41835.102 0 0 1-57.552-88.772c-11.528-17.827-20.481-31.695-26.921-41.773-31.436-53.241-11.797-121.078 41.952-151.423 51.487-29.035 117.066-13.927 149.041 35.188l17.943 23.204V693.206C415.985 628.764 467.726 576 532.16 576c64.358 0 116.653 52.663 116.653 117.206zm264.12 466.979v-58.044c0-24.385-20.025-44.156-44.709-44.156-11.573 0-22.117 4.348-30.051 11.481-1.452 1.306-2.84 2.937-4.163 4.892a5.716 5.716 0 0 1-10.451-3.202c0-31.986-26.819-57.91-59.925-57.91-15.016 0-28.644 5.333-39.053 14.147-1.52 1.287-2.989 2.823-4.404 4.608a8.977 8.977 0 0 1-16.005-5.584c0-31.986-27.178-57.91-60.135-57.91-15.439 0-29.411 5.693-39.901 15.031a11.603 11.603 0 0 1-7.716 2.937c-6.409 0-11.604-5.195-11.604-11.604h-.003V693.205c0-29.388-23.833-53.206-52.653-53.206-28.805 0-52.175 23.833-52.175 53.206v467.72a32 32 0 0 1-12.425 25.315c-13.981 10.811-34.078 8.241-44.889-5.74l-77.186-99.818c-12.917-21.877-42.036-29.074-65.047-16.098-23.011 12.992-31.195 41.259-18.278 63.136 0 0 105.172 163.096 148.104 227.487s113.4 143.818 113.4 180.792h298.268c0-62.419 91.225-159.916 91.225-253.798-.05-80.896-.124-121.568-.224-122.016z" fill="undefined"/></svg>