<?xml version="1.0" encoding="utf-8"?>
<svg width="1792" height="1792" xmlns="http://www.w3.org/2000/svg"><path d="M876.8 748.8c51.2 0 96 19.2 134.4 57.6 76.8 76.8 76.8 192 0 268.8L640 1446.4l-371.2-377.6c-76.8-70.4-76.8-192 0-262.4 32-38.4 83.2-57.6 134.4-57.6s96 19.2 134.4 57.6L640 908.8l102.4-102.4c38.4-38.4 83.2-57.6 134.4-57.6zm0-64c-64 0-128 25.6-179.2 76.8L640 819.2l-57.6-64c-51.2-44.8-115.2-70.4-179.2-70.4s-128 25.6-179.2 76.8c-96 96-96 262.4 0 358.4l416 416 416-416c96-96 96-262.4 0-358.4-44.8-51.2-108.8-76.8-179.2-76.8z" fill="undefined"/></svg>