<svg width="64" height="64" viewBox="0 0 1024 1024" xmlns="http://www.w3.org/2000/svg"><path d="M748.8 172.8c51.2 0 96 19.2 134.4 57.6 76.8 76.8 76.8 192 0 268.8L512 870.4 140.8 492.8c-76.8-70.4-76.8-192 0-262.4 32-38.4 83.2-57.6 134.4-57.6s96 19.2 134.4 57.6L512 332.8l102.4-102.4c38.4-38.4 83.2-57.6 134.4-57.6zm0-64c-64 0-128 25.6-179.2 76.8L512 243.2l-57.6-64c-51.2-44.8-115.2-70.4-179.2-70.4s-128 25.6-179.2 76.8C0 281.6 0 448 96 544l416 416 416-416c96-96 96-262.4 0-358.4-44.8-51.2-108.8-76.8-179.2-76.8z"/></svg>