<svg width="64" height="64" viewBox="0 0 1024 1024" xmlns="http://www.w3.org/2000/svg"><path d="M876.8 710.4c0 96-76.8 172.8-172.8 172.8H320c-96 0-172.8-76.8-172.8-172.8V320c0-96 76.8-172.8 172.8-172.8h384c96 0 172.8 76.8 172.8 172.8v390.4zM704 64H320C179.2 64 64 179.2 64 326.4V704c0 140.8 115.2 262.4 256 262.4h384c140.8 0 256-115.2 256-262.4V326.4C960 179.2 844.8 64 704 64zM512 665.6c-83.2 0-153.6-70.4-153.6-153.6S428.8 358.4 512 358.4 665.6 428.8 665.6 512c0 89.6-70.4 153.6-153.6 153.6zm0-384c-128 0-230.4 102.4-230.4 236.8S384 748.8 512 748.8s230.4-102.4 230.4-230.4S640 281.6 512 281.6zm243.2-64c-32 0-51.2 25.6-51.2 51.2s25.6 51.2 51.2 51.2c32 0 51.2-25.6 51.2-51.2s-25.6-51.2-51.2-51.2z"/></svg>