<svg width="64" height="64" viewBox="0 0 1024 1024" xmlns="http://www.w3.org/2000/svg"><path d="M256 384c-70.4 0-128 57.6-128 128s57.6 128 128 128 128-57.6 128-128-57.6-128-128-128zm0 192c-38.4 0-64-25.6-64-64s25.6-64 64-64 64 25.6 64 64-25.6 64-64 64zm217.6-192C435.2 307.2 352 256 256 256 115.2 256 0 371.2 0 512s115.2 256 256 256c121.6 0 217.6-83.2 249.6-192H640v128h192V576h128V384H473.6zM896 512H768v128h-64V512H454.4l-12.8 44.8C416 646.4 345.6 704 256 704c-108.8 0-192-83.2-192-192s83.2-192 192-192c70.4 0 128 38.4 166.4 96l19.2 32H896v64z"/></svg>