<?xml version="1.0" encoding="utf-8"?>
<svg width="1792" height="1792" xmlns="http://www.w3.org/2000/svg"><path d="M1024 998.4c0-192-160-352-352-352S320 800 320 998.4c0 147.2 96 275.2 224 326.4v89.6c0 70.4 57.6 128 128 128s128-57.6 128-128v-89.6c128-51.2 224-179.2 224-326.4zm-352 480c-38.4 0-64-25.6-64-64h128c0 32-25.6 64-64 64zm32-198.4v-128l134.4-134.4-44.8-44.8L672 1094.4 556.8 972.8l-51.2 44.8L640 1152v128c-140.8-19.2-256-134.4-256-281.6 0-160 128-288 288-288s288 128 288 288c0 147.2-115.2 268.8-256 281.6z" fill="undefined"/></svg>