<?xml version="1.0" encoding="utf-8"?>
<svg width="1792" height="1792" xmlns="http://www.w3.org/2000/svg"><path d="M288 960c0-194.404 157.596-352 352-352s352 157.596 352 352c0 153.926-99.691 288.608-244.775 335.35l-235.094 68.724v-76.021C378.715 1236.089 288 1106.837 288 960zm224 433.788l306.324-84.443v64L512 1457.788v-64zm0 102.4l306.324-84.443v64L512 1560.188v-64zm216.431-262.01C846.421 1196.155 928 1085.942 928 960c0-159.058-128.942-288-288-288S352 800.942 352 960c0 126.758 82.636 237.516 201.706 274.858l22.424 7.032v36.799l152.3-44.511zM682.489 780.8v152.727H768l-170.664 213.818V994.618H512L682.489 780.8z" fill="undefined"/></svg>