<svg width="64" height="64" viewBox="0 0 1024 1024" xmlns="http://www.w3.org/2000/svg"><path d="M160 384c0-194.404 157.596-352 352-352s352 157.596 352 352c0 153.926-99.691 288.608-244.775 335.35l-235.094 68.724v-76.021C250.715 660.089 160 530.837 160 384zm224 433.788l306.324-84.443v64L384 881.788v-64zm0 102.4l306.324-84.443v64L384 984.188v-64zm216.431-262.01C718.421 620.155 800 509.942 800 384c0-159.058-128.942-288-288-288S224 224.942 224 384c0 126.758 82.636 237.516 201.706 274.858l22.424 7.032v36.799l152.3-44.511zM554.489 204.8v152.727H640L469.336 571.345V418.618H384L554.489 204.8z"/></svg>