<svg width="64" height="64" viewBox="0 0 1792 1792" xmlns="http://www.w3.org/2000/svg"><path d="M928 896H736c-121.6 0-224 102.4-224 224 0 32 6.4 64 19.2 96h6.4c19.2 0 38.4-6.4 57.6-19.2-12.8-19.2-19.2-51.2-19.2-76.8 0-89.6 70.4-160 160-160h192c89.6 0 160 70.4 160 160s-70.4 160-160 160H774.4c-12.8 25.6-32 44.8-57.6 64h204.8c121.6 0 224-102.4 224-224 6.4-121.6-96-224-217.6-224zm-179.2 128H736c-19.2 0-38.4 6.4-51.2 19.2 12.8 19.2 19.2 44.8 19.2 76.8 0 89.6-70.4 160-160 160H352c-89.6 0-160-70.4-160-160s70.4-160 160-160h147.2c12.8-25.6 32-44.8 57.6-64H352c-121.6 0-224 102.4-224 224s102.4 224 224 224h192c121.6 0 224-102.4 224-224 0-32-6.4-64-19.2-96z"/></svg>