<svg width="64" height="64" viewBox="0 0 1024 1024" xmlns="http://www.w3.org/2000/svg"><path d="M800 320H608c-121.6 0-224 102.4-224 224 0 32 6.4 64 19.2 96h6.4c19.2 0 38.4-6.4 57.6-19.2-12.8-19.2-19.2-51.2-19.2-76.8 0-89.6 70.4-160 160-160h192c89.6 0 160 70.4 160 160s-70.4 160-160 160H646.4c-12.8 25.6-32 44.8-57.6 64h204.8c121.6 0 224-102.4 224-224 6.4-121.6-96-224-217.6-224zM620.8 448H608c-19.2 0-38.4 6.4-51.2 19.2C569.6 486.4 576 512 576 544c0 89.6-70.4 160-160 160H224c-89.6 0-160-70.4-160-160s70.4-160 160-160h147.2c12.8-25.6 32-44.8 57.6-64H224C102.4 320 0 422.4 0 544s102.4 224 224 224h192c121.6 0 224-102.4 224-224 0-32-6.4-64-19.2-96z"/></svg>