<?xml version="1.0" encoding="utf-8"?>
<svg width="1792" height="1792" xmlns="http://www.w3.org/2000/svg"><path d="M972.8 1523.2c-32 19.2-76.8 51.2-89.6 70.4-12.8 12.8-64 19.2-89.6 0-32-19.2-12.8-44.8-64-44.8H588.8c-83.2 0-89.6 51.2-140.8 51.2-32 0-76.8-25.6-147.2-44.8-44.8-12.8-96-12.8-108.8-38.4-12.8-19.2 12.8-44.8 12.8-70.4 0-32-19.2-70.4-6.4-83.2s44.8-6.4 64-12.8c19.2-12.8 32-19.2 32-51.2 6.4 25.6 0 51.2-19.2 57.6-12.8 6.4-32 12.8-44.8 6.4-12.8 0-19.2 0-25.6 6.4s-6.4 19.2 0 32 12.8 25.6 12.8 44.8-19.2 38.4-19.2 57.6c0 6.4 6.4 12.8 19.2 12.8 25.6 6.4 64 12.8 102.4 19.2 44.8 12.8 89.6 32 121.6 25.6 89.6-12.8 38.4-102.4 25.6-128-76.8-115.2-121.6-192-160-160-12.8 6.4-12.8-19.2-12.8-32 0-38.4 19.2-51.2 32-83.2C364.8 1120 377.6 1056 416 1024c25.6-32 64-83.2 70.4-108.8-6.4-64-12.8-128-12.8-179.2 0-57.6 6.4-108.8 76.8-147.2 12.8-6.4 38.4-12.8 57.6-12.8 38.4 0 83.2 12.8 108.8 32 44.8 32 70.4 102.4 70.4 153.6 0 38.4 6.4 83.2 19.2 121.6 12.8 51.2 38.4 83.2 76.8 121.6C928 1056 960 1152 972.8 1209.6c6.4 57.6-6.4 89.6-12.8 89.6-19.2 0-32 57.6-89.6 57.6-38.4 0-38.4-25.6-51.2-44.8-19.2-32-32-19.2-38.4 12.8-6.4 12.8 0 38.4 6.4 57.6 12.8 38.4 6.4 70.4 0 108.8-12.8 76.8 57.6 96 102.4 57.6s51.2-44.8 108.8-64c83.2-32 57.6-57.6 12.8-70.4-38.4-12.8-44.8-83.2-25.6-96 6.4 76.8 44.8 83.2 57.6 96 64 51.2-32 83.2-70.4 108.8zm-96-281.6c12.8-51.2 6.4-70.4 0-121.6-12.8-32-44.8-83.2-70.4-96 6.4 6.4 19.2 19.2 32 44.8 25.6 44.8 44.8 108.8 32 160-6.4 19.2-19.2 25.6-25.6 25.6-38.4 6.4-19.2-51.2-32-121.6-25.6-83.2-44.8-83.2-51.2-89.6-19.2-108.8-44.8-96-57.6-134.4-6.4-38.4 32-64-19.2-76.8-12.8 0-32-12.8-44.8-19.2-6.4 0-12.8-57.6 19.2-57.6s38.4 38.4 32 51.2c-6.4 12.8 0 19.2 19.2 12.8 12.8-6.4 6.4-38.4 6.4-44.8-12.8-44.8-32-51.2-51.2-51.2-76.8 6.4-44.8 89.6-51.2 83.2-12.8-12.8-44.8 0-44.8-6.4 0-44.8-12.8-70.4-32-70.4-25.6-6.4-32 25.6-38.4 44.8 0 19.2 12.8 57.6 19.2 51.2 6.4 0 12.8-12.8 6.4-12.8S512 800 512 787.2s6.4-32 25.6-32 19.2 44.8 19.2 44.8c-6.4 12.8-19.2 19.2-19.2 19.2-6.4 12.8-19.2 19.2-25.6 25.6-12.8 6.4-12.8 19.2-6.4 25.6 25.6 12.8 19.2 32 51.2 32 25.6 0 44.8-6.4 57.6-6.4 12.8-6.4 51.2-12.8 64-25.6 6.4-6.4 6.4-6.4 12.8-6.4s6.4 12.8-6.4 19.2c-19.2 0-38.4 12.8-57.6 19.2s-25.6 6.4-38.4 12.8c-38.4 6.4-64-12.8-38.4 12.8 6.4 6.4 19.2 12.8 38.4 12.8 44.8 0 102.4-57.6 108.8-32 0 6.4-12.8 12.8-25.6 19.2-44.8 19.2-76.8 64-102.4 51.2-38.4-19.2-64-83.2-64-57.6 0 44.8-57.6 83.2-32 134.4-19.2 6.4-57.6 89.6-64 134.4-6.4 25.6 0 57.6-6.4 70.4-6.4 25.6-44.8-25.6-32-83.2v-6.4c-12.8 25.6-6.4 70.4 6.4 96 6.4 12.8 19.2 12.8 25.6 25.6 19.2 25.6 96 83.2 115.2 96 19.2 19.2 12.8 57.6-25.6 57.6 19.2 38.4 38.4 38.4 38.4 96 19.2-12.8 12.8-38.4 6.4-51.2s-12.8-19.2-12.8-19.2 12.8-12.8 19.2-6.4c19.2 19.2 57.6 25.6 96 19.2s83.2-19.2 102.4-51.2c6.4-12.8 12.8-19.2 19.2-19.2s6.4 12.8 6.4 32-6.4 38.4-12.8 51.2c-12.8 25.6-12.8 38.4 6.4 38.4l19.2-96c0-38.4-25.6-102.4 6.4-140.8 6.4-6.4 19.2-12.8 32-12.8 0-44.8 70.4-44.8 96-25.6-12.8 0-32-12.8-38.4-19.2zm-467.2-160c-6.4 6.4-19.2 12.8-6.4 12.8 0 0 12.8-6.4 12.8-12.8 0-12.8 6.4-12.8 0-19.2-6.4 0-6.4 6.4-6.4 19.2zm128-313.6c-6.4 0-6.4 6.4 0 6.4l6.4 6.4c0 6.4 0 12.8 6.4 12.8 0-12.8-6.4-25.6-12.8-25.6zm19.2 51.2c-6.4 0-6.4-12.8 12.8-12.8-12.8 6.4-12.8 12.8-12.8 12.8zm44.8-6.4c19.2-6.4 19.2 6.4 19.2 6.4-6.4 0-12.8-6.4-19.2-6.4zM672 768c-12.8 0-6.4 0 0 0 0 6.4 6.4 12.8 6.4 25.6h6.4c0-19.2-12.8-25.6-12.8-25.6zm32-128c-6.4 0-12.8-6.4-12.8-6.4-12.8 0-6.4 12.8-6.4 19.2s-12.8 12.8-6.4 19.2c6.4 6.4 6.4-6.4 19.2-12.8 0 0 19.2 0 19.2-6.4L704 640zm64 256c-12.8-6.4-12.8-19.2-19.2-12.8-12.8 12.8 12.8 38.4 25.6 38.4 6.4 0 12.8-6.4 12.8-19.2-6.4-6.4-12.8 0-19.2-6.4z" fill="undefined"/></svg>