<?xml version="1.0" encoding="utf-8"?>
<svg width="1792" height="1792" xmlns="http://www.w3.org/2000/svg"><path d="M908.8 761.6C838.4 691.2 742.4 640 640 640s-204.8 51.2-275.2 121.6c-108.8 121.6-128 294.4-64 448C416 1465.6 640 1600 640 1600s224-134.4 332.8-390.4c64-147.2 51.2-326.4-64-448zm6.4 422.4C838.4 1363.2 704 1478.4 640 1523.2c-64-44.8-198.4-160-275.2-339.2-57.6-134.4-38.4-281.6 51.2-377.6 57.6-64 140.8-102.4 224-102.4s160 38.4 224 102.4c89.6 96 108.8 243.2 51.2 377.6zM640 896c-70.4 0-128 57.6-128 128s57.6 128 128 128 128-57.6 128-128-57.6-128-128-128zm0 192c-38.4 0-64-25.6-64-64s25.6-64 64-64 64 25.6 64 64-32 64-64 64z" fill="undefined"/></svg>