<?xml version="1.0" encoding="utf-8"?>
<svg width="1792" height="1792" xmlns="http://www.w3.org/2000/svg"><path d="M953.6 960c0-172.8-140.8-320-320-320S320 780.8 320 960c0 102.4 44.8 185.6 121.6 249.6v352L640 1414.4l198.4 140.8v-352c70.4-57.6 115.2-147.2 115.2-243.2zM384 960c0-140.8 115.2-256 256-256s256 115.2 256 256-115.2 256-256 256c-140.8-6.4-256-121.6-256-256zm384 473.6l-96-70.4-32-25.6-38.4 25.6-96 70.4V1248c38.4 19.2 83.2 32 134.4 32s89.6-12.8 134.4-32v185.6zM640 1152c108.8 0 192-89.6 192-192s-89.6-192-192-192-192 89.6-192 192 83.2 192 192 192zm0-326.4c70.4 0 128 57.6 128 128S710.4 1088 640 1088s-128-57.6-128-128 51.2-134.4 128-134.4z" fill="undefined"/></svg>