<svg width="64" height="64" viewBox="0 0 1024 1024" xmlns="http://www.w3.org/2000/svg"><path d="M640 377.6c0 70.692-57.308 128-128 128s-128-57.308-128-128c0-70.692 57.308-128 128-128s128 57.308 128 128zM512 64c-179.2 0-320 140.8-320 320 0 102.4 44.8 185.6 121.6 249.6v352L512 838.4l198.4 140.8v-352C780.8 569.6 832 480 832 377.6 825.6 204.8 684.8 64 512 64zm0 512c-108.8 0-192-89.6-192-192 0-108.8 89.6-192 192-192s192 89.6 192 192-89.6 192-192 192zm0 185.6l-38.4 25.6-96 70.4V672c38.4 12.8 83.2 25.6 134.4 25.6 44.8 0 89.6-12.8 134.4-32v185.6l-96-70.4-38.4-19.2z"/></svg>