<?xml version="1.0" encoding="utf-8"?>
<svg width="1792" height="1792" xmlns="http://www.w3.org/2000/svg"><path d="M1094.4 1248H768l320-326.4c19.2 51.2 32 108.8 32 166.4s-12.8 108.8-25.6 160zm-256-595.2c102.4 44.8 185.6 128 236.8 230.4L838.4 1120V652.8zM800 960L473.6 640c51.2-19.2 108.8-32 166.4-32s108.8 12.8 160 25.6V960zm-595.2-70.4c44.8-102.4 128-185.6 230.4-236.8L672 889.6H204.8zM192 1260.8c-19.2-57.6-32-115.2-32-172.8s12.8-108.8 25.6-160h339.2L192 1260.8zm256 268.8c-102.4-44.8-192-128-243.2-230.4L448 1056v473.6zm38.4-313.6l320 320c-51.2 19.2-108.8 32-172.8 32-51.2 0-102.4-6.4-153.6-25.6V1216zm588.8 70.4c-44.8 102.4-128 185.6-224 230.4l-230.4-230.4h454.4z" fill="undefined"/></svg>