<svg width="64" height="64" viewBox="0 0 1024 1024" xmlns="http://www.w3.org/2000/svg"><path d="M966.4 672H640l320-326.4c19.2 51.2 32 108.8 32 166.4s-12.8 108.8-25.6 160zm-256-595.2c102.4 44.8 185.6 128 236.8 230.4L710.4 544V76.8zM672 384L345.6 64C396.8 44.8 454.4 32 512 32s108.8 12.8 160 25.6V384zM76.8 313.6c44.8-102.4 128-185.6 230.4-236.8L544 313.6H76.8zM64 684.8C44.8 627.2 32 569.6 32 512s12.8-108.8 25.6-160h339.2L64 684.8zm256 268.8c-102.4-44.8-192-128-243.2-230.4L320 480v473.6zM358.4 640l320 320c-51.2 19.2-108.8 32-172.8 32-51.2 0-102.4-6.4-153.6-25.6V640zm588.8 70.4c-44.8 102.4-128 185.6-224 230.4L492.8 710.4h454.4z"/></svg>