<svg width="64" height="64" viewBox="0 0 1792 1792" xmlns="http://www.w3.org/2000/svg"><path d="M128 768v640h1024V768H128zm928 448c-51.2 0-96 44.8-96 96 0 12.8 0 19.2 6.4 32H313.6c6.4-12.8 6.4-19.2 6.4-32 0-51.2-44.8-96-96-96-12.8 0-19.2 0-32 6.4V953.6c12.8 6.4 19.2 6.4 32 6.4 51.2 0 96-44.8 96-96 0-12.8 0-19.2-6.4-32h652.8c-6.4 12.8-6.4 19.2-6.4 32 0 51.2 44.8 96 96 96 12.8 0 19.2 0 32-6.4v268.8c-12.8-6.4-19.2-6.4-32-6.4zM640 896c-108.8 0-192 83.2-192 192s83.2 192 192 192 192-83.2 192-192-83.2-192-192-192zm0 320c-70.4 0-128-57.6-128-128s57.6-128 128-128 128 57.6 128 128-57.6 128-128 128zm64-128c0 35.346-28.654 64-64 64s-64-28.654-64-64c0-35.346 28.654-64 64-64s64 28.654 64 64z"/></svg>