<svg width="64" height="64" viewBox="0 0 1024 1024" xmlns="http://www.w3.org/2000/svg"><path d="M256 192v576c-19.2-12.8-44.8-19.2-70.4-19.2-76.8 0-134.4 57.6-134.4 134.4s57.6 134.4 134.4 134.4c70.4 0 128-51.2 134.4-121.6V492.8l448-147.2v307.2c-19.2-12.8-44.8-19.2-70.4-19.2-76.8 0-134.4 57.6-134.4 134.4s57.6 134.4 134.4 134.4c70.4 0 128-57.6 134.4-128V0L256 192zm-70.4 761.6c-38.4 0-70.4-32-70.4-70.4s32-70.4 70.4-70.4 70.4 32 70.4 70.4-32 70.4-70.4 70.4zm512-121.6c-38.4 0-70.4-32-70.4-70.4s32-70.4 70.4-70.4 70.4 32 70.4 70.4-32 70.4-70.4 70.4zM320 422.4V236.8L768 89.6v185.6L320 422.4z"/></svg>