<svg width="64" height="64" viewBox="0 0 1792 1792" xmlns="http://www.w3.org/2000/svg"><path d="M384 768v576c-19.2-12.8-44.8-19.2-70.4-19.2-76.8 0-134.4 57.6-134.4 134.4s57.6 134.4 134.4 134.4c70.4 0 128-51.2 134.4-121.6v-403.2l448-147.2v307.2c-19.2-12.8-44.8-19.2-70.4-19.2-76.8 0-134.4 57.6-134.4 134.4s57.6 134.4 134.4 134.4c70.4 0 128-57.6 134.4-128V576L384 768zm-70.4 761.6c-38.4 0-70.4-32-70.4-70.4s32-70.4 70.4-70.4 70.4 32 70.4 70.4-32 70.4-70.4 70.4zm512-121.6c-38.4 0-70.4-32-70.4-70.4s32-70.4 70.4-70.4 70.4 32 70.4 70.4-32 70.4-70.4 70.4zM448 998.4V812.8l448-147.2v185.6L448 998.4z"/></svg>