<svg width="64" height="64" viewBox="0 0 1024 1024" xmlns="http://www.w3.org/2000/svg"><path d="M614.4 64L480 198.4l57.6 57.6-76.8 192h-38.4c-64 0-121.6 25.6-166.4 70.4l134.4 134.4-268.8 268.8 44.8 44.8 268.8-268.8L569.6 832c51.2-51.2 76.8-134.4 64-204.8l192-76.8 57.6 57.6L1024 473.6 614.4 64zM499.2 524.8l19.2-44.8 76.8-192 19.2-38.4-32-38.4-12.8-12.8 44.8-44.8L928 467.2 883.2 512l-44.8-44.8-38.4 19.2-192 76.8-44.8 25.6L576 640c6.4 32 0 64-12.8 96L352 524.8c25.6-6.4 44.8-12.8 70.4-12.8H448l51.2 12.8z"/></svg>