<svg width="64" height="64" viewBox="0 0 1024 1024" xmlns="http://www.w3.org/2000/svg"><path d="M874.15 640C888.301 599.964 896 556.881 896 512s-7.7-87.964-21.85-128H720.62c10.026 41.178 15.381 83.885 15.381 128s-5.354 86.822-15.381 128h153.53zm-29.522 64H700.904c-16.824 45.008-39.239 87.949-66.238 128.643a683.945 683.945 0 0 1-40.132 54.466C701.317 863.721 791.468 795.899 844.628 704zm-475.08-64h284.904C665.867 598.905 672 556.182 672 512s-6.133-86.905-17.548-128H369.548C358.133 425.095 352 467.818 352 512s6.133 86.905 17.548 128zm22.499 64c13.774 32.277 30.804 63.395 50.619 93.261 19.963 30.09 41.356 56.692 62.69 79.471a580.516 580.516 0 0 0 6.644 6.98 573.098 573.098 0 0 0 6.644-6.98c21.335-22.779 42.727-49.381 62.69-79.471 19.815-29.866 36.844-60.984 50.619-93.261H392.046zM149.85 640h153.53c-10.026-41.178-15.381-83.885-15.381-128s5.354-86.822 15.381-128H149.85C135.699 424.036 128 467.119 128 512s7.7 87.964 21.85 128zm29.522 64c53.16 91.899 143.312 159.721 250.094 183.109a683.945 683.945 0 0 1-40.132-54.466C362.335 791.949 339.92 749.008 323.096 704H179.372zm665.256-384c-53.16-91.899-143.312-159.721-250.094-183.109a683.945 683.945 0 0 1 40.132 54.466c26.999 40.694 49.414 83.635 66.238 128.643h143.724zm-452.581 0h239.907c-13.774-32.277-30.804-63.395-50.619-93.261-19.963-30.09-41.356-56.692-62.69-79.471a580.516 580.516 0 0 0-6.644-6.98 573.098 573.098 0 0 0-6.644 6.98c-21.335 22.779-42.727 49.381-62.69 79.471-19.815 29.866-36.844 60.984-50.619 93.261zm-212.675 0h143.724c16.824-45.008 39.239-87.949 66.238-128.643a683.945 683.945 0 0 1 40.132-54.466C322.683 160.279 232.532 228.101 179.372 320zM512 960C264.576 960 64 759.424 64 512S264.576 64 512 64s448 200.576 448 448-200.576 448-448 448z"/></svg>