<svg width="64" height="64" viewBox="0 0 1024 1024" xmlns="http://www.w3.org/2000/svg"><path d="M352 704H108.8c64 128 179.2 224 326.4 249.6 19.2 0 44.8 6.4 70.4 6.4-12.8-12.8-25.6-25.6-32-38.4-57.6-64-96-134.4-121.6-217.6zm115.2-601.6L505.6 64c-25.6 0-44.8 0-70.4 6.4C288 96 166.4 192 108.8 320H352c25.6-83.2 64-153.6 115.2-217.6zM384 512c0 44.8 6.4 89.6 12.8 128h224c12.8-38.4 19.2-83.2 19.2-128s-6.4-89.6-12.8-128H396.8c-6.4 38.4-12.8 83.2-12.8 128zm556.8-128H691.2c6.4 38.4 12.8 83.2 12.8 128s-6.4 89.6-12.8 128h249.6c12.8-38.4 19.2-83.2 19.2-128s-6.4-89.6-19.2-128zm-384 537.6c-12.8 12.8-25.6 25.6-32 38.4 25.6 0 44.8 0 70.4-6.4C742.4 928 857.6 832 921.6 704H678.4c-32 83.2-70.4 153.6-121.6 217.6zM608 320c-25.6-64-57.6-121.6-96-166.4-38.4 44.8-70.4 102.4-96 166.4h192zM416 704c19.2 64 51.2 121.6 96 166.4 38.4-44.8 70.4-102.4 96-166.4H416zm-96-192c0-44.8 6.4-89.6 12.8-128H83.2C70.4 422.4 64 467.2 64 512s6.4 89.6 19.2 128h249.6c-6.4-38.4-12.8-83.2-12.8-128zm352-192h243.2C851.2 192 736 96 588.8 70.4c-19.2 0-44.8-6.4-70.4-6.4 12.8 12.8 25.6 25.6 32 38.4 57.6 64 96 134.4 121.6 217.6z"/></svg>