<svg width="64" height="64" viewBox="0 0 1024 1024" xmlns="http://www.w3.org/2000/svg"><path d="M588.8 70.4c-19.2 0-44.8-6.4-70.4-6.4h-12.8c-25.6 0-44.8 0-70.4 6.4C224 108.8 64 294.4 64 512s160 403.2 371.2 441.6c19.2 0 44.8 6.4 70.4 6.4h12.8c25.6 0 44.8 0 70.4-6.4C800 915.2 960 729.6 960 512S800 108.8 588.8 70.4zm256 249.6H672c-19.2-70.4-51.2-128-96-185.6C691.2 153.6 787.2 224 844.8 320zM512 153.6c38.4 44.8 70.4 102.4 96 166.4H416c25.6-64 57.6-121.6 96-166.4zM640 512c0 44.8-6.4 89.6-12.8 128H396.8c-6.4-38.4-12.8-83.2-12.8-128s6.4-89.6 12.8-128h224c12.8 38.4 19.2 83.2 19.2 128zM441.6 134.4C403.2 192 371.2 249.6 352 320H179.2c57.6-96 153.6-166.4 262.4-185.6zM153.6 384h185.6c-12.8 38.4-19.2 83.2-19.2 128s6.4 89.6 12.8 128H153.6c-19.2-38.4-25.6-83.2-25.6-128s6.4-89.6 25.6-128zm25.6 320H352c19.2 70.4 51.2 128 96 185.6C332.8 870.4 236.8 800 179.2 704zM512 870.4C473.6 825.6 441.6 768 416 704h192c-25.6 64-57.6 121.6-96 166.4zm70.4 19.2c38.4-57.6 70.4-115.2 96-185.6h172.8c-64 96-160 166.4-268.8 185.6zm288-249.6H684.8c12.8-38.4 19.2-83.2 19.2-128s-6.4-89.6-12.8-128h185.6c12.8 38.4 19.2 83.2 19.2 128s-6.4 89.6-25.6 128z"/></svg>