<?xml version="1.0" encoding="utf-8"?>
<svg width="1792" height="1792" xmlns="http://www.w3.org/2000/svg"><path d="M1002.15 1216c14.151-40.036 21.85-83.119 21.85-128s-7.7-87.964-21.85-128H848.62c10.026 41.178 15.381 83.885 15.381 128s-5.354 86.822-15.381 128h153.53zm-29.522 64H828.904c-16.824 45.008-39.239 87.949-66.238 128.643a683.945 683.945 0 0 1-40.132 54.466c106.783-23.388 196.934-91.21 250.094-183.109zm-475.08-64h284.904c11.415-41.095 17.548-83.818 17.548-128s-6.133-86.905-17.548-128H497.548C486.133 1001.095 480 1043.818 480 1088s6.133 86.905 17.548 128zm22.499 64c13.774 32.277 30.804 63.395 50.619 93.261 19.963 30.09 41.356 56.692 62.69 79.471a580.516 580.516 0 0 0 6.644 6.98 573.098 573.098 0 0 0 6.644-6.98c21.335-22.779 42.727-49.381 62.69-79.471 19.815-29.866 36.844-60.984 50.619-93.261H520.046zm-242.197-64h153.53c-10.026-41.178-15.381-83.885-15.381-128s5.354-86.822 15.381-128H277.85c-14.151 40.036-21.85 83.119-21.85 128s7.7 87.964 21.85 128zm29.522 64c53.16 91.899 143.312 159.721 250.094 183.109a683.945 683.945 0 0 1-40.132-54.466c-26.999-40.694-49.414-83.635-66.238-128.643H307.372zm665.256-384c-53.16-91.899-143.312-159.721-250.094-183.109a683.945 683.945 0 0 1 40.132 54.466c26.999 40.694 49.414 83.635 66.238 128.643h143.724zm-452.581 0h239.907c-13.774-32.277-30.804-63.395-50.619-93.261-19.963-30.09-41.356-56.692-62.69-79.471a580.516 580.516 0 0 0-6.644-6.98 573.098 573.098 0 0 0-6.644 6.98c-21.335 22.779-42.727 49.381-62.69 79.471-19.815 29.866-36.844 60.984-50.619 93.261zm-212.675 0h143.724c16.824-45.008 39.239-87.949 66.238-128.643a683.945 683.945 0 0 1 40.132-54.466C450.683 736.279 360.532 804.101 307.372 896zM640 1536c-247.424 0-448-200.576-448-448s200.576-448 448-448 448 200.576 448 448-200.576 448-448 448z" fill="undefined"/></svg>