<svg width="64" height="64" viewBox="0 0 1792 1792" xmlns="http://www.w3.org/2000/svg"><path d="M288 928h61.435l111.648 195.717V928h54.588v280.356h-58.582l-114.501-199.14v199.14H288V928zm310.29 133.985c-6.652 7.474-10.832 17.6-12.541 30.378h81.105c-.854-13.622-5.035-23.959-12.541-31.011s-16.813-10.578-27.92-10.578c-12.083 0-21.451 3.737-28.103 11.211zm72.957-44.482c13.304 6.148 24.289 15.852 32.955 29.112 7.811 11.693 12.877 25.254 15.196 40.684 1.343 9.041 1.892 22.06 1.648 39.057H584.468c.732 19.77 7.018 33.632 18.857 41.589 7.201 4.942 15.867 7.414 25.997 7.414 10.741 0 19.468-3.014 26.181-9.041 3.662-3.255 6.896-7.775 9.703-13.561h53.276c-1.343 11.693-7.506 23.567-18.491 35.621-17.088 19.167-41.01 28.75-71.768 28.75-25.387 0-47.784-8.077-67.191-24.23s-29.11-42.432-29.11-78.837c0-34.115 8.757-60.273 26.272-78.476s40.247-27.304 68.198-27.304c16.599 0 31.551 3.074 44.855 9.222zm152.964-3.978h52.91l30.391 141.943 31.124-141.943h54.375l-57.854 197.094h-53.643l-31.307-143.571-31.673 143.571h-54.192l-56.023-197.094h56.023l31.124 141.401 28.744-141.401zM304.775 1344H1024V768H256v600.408L304.775 1344zM192 704h896v704H319.895L192 1472V704z"/></svg>