<svg width="64" height="64" viewBox="0 0 1024 1024" xmlns="http://www.w3.org/2000/svg"><path d="M531.2 409.6c-12.8 0-19.2 6.4-25.6 12.8-12.8 6.4-12.8 19.2-19.2 32h83.2c0-12.8-6.4-25.6-12.8-32s-19.2-12.8-25.6-12.8zM64 128v768l256-192h704V128H64zm352 441.6h-57.6L243.2 371.2v198.4H192V288h64l108.8 198.4V288h57.6v281.6zm89.6-44.8c6.4 6.4 19.2 6.4 25.6 6.4 12.8 0 19.2 0 25.6-6.4 6.4 0 6.4-6.4 12.8-12.8h51.2c0 12.8-6.4 25.6-19.2 38.4-12.8 19.2-38.4 25.6-70.4 25.6-25.6 0-44.8-6.4-64-25.6-25.6-12.8-32-38.4-32-76.8 0-32 6.4-57.6 25.6-76.8s38.4-25.6 70.4-25.6c19.2 0 32 0 44.8 6.4s25.6 12.8 32 25.6c6.4 12.8 12.8 25.6 12.8 44.8v38.4H486.4c0 19.2 6.4 32 19.2 38.4zm332.8 44.8h-51.2l-32-140.8-32 140.8H672l-57.6-198.4H672L697.6 512l25.6-140.8h51.2L812.8 512l32-140.8H896l-57.6 198.4z"/></svg>