<svg width="64" height="64" viewBox="0 0 1024 1024" xmlns="http://www.w3.org/2000/svg"><path d="M1024 832V64H0v768h512v64H320v64h448v-64H576v-64h448zM64 768V128h896v640H64zm499.2-569.6c-19.2-6.4-32-6.4-51.2-6.4-140.8 0-256 115.2-256 256s115.2 256 256 256 256-115.2 256-256c0-38.4-6.4-70.4-19.2-102.4-32-76.8-102.4-134.4-185.6-147.2zm12.8 70.4c12.8 6.4 19.2 6.4 32 12.8 6.4 0 6.4 6.4 12.8 6.4 12.8 6.4 19.2 12.8 32 25.6 6.4 6.4 19.2 19.2 25.6 32 0 6.4 6.4 6.4 6.4 12.8 6.4 6.4 6.4 12.8 12.8 25.6v6.4H576V268.8zM512 640c-108.8 0-192-83.2-192-192s83.2-192 192-192v192h192c0 108.8-83.2 192-192 192z"/></svg>