<?xml version="1.0" encoding="utf-8"?>
<svg width="1792" height="1792" xmlns="http://www.w3.org/2000/svg"><path d="M192 704h896v640H192V704zm64 576h768V768H256v512zm256 64h256v64H512v-64zm-128 64h512v64H384v-64zm272-591.395v199.682l2.339 1.863 179.881-57.378-.101-.316a206.367 206.367 0 0 0-7.463-19.749l29.317-12.827a238.444 238.444 0 0 1 8.713 23.102.303.303 0 0 1 .013.068c7.344 23.002 11.301 47.513 11.301 72.949 0 50.783-15.773 97.883-42.687 136.667l.416.331-9.638 12.087c-.676.852-1.358 1.7-2.046 2.542-45.262 55.481-112.964 88.373-186.045 88.373-132.548 0-240-107.452-240-240s107.452-240 240-240h16v.525a239.226 239.226 0 0 1 51.872 9.211l-9.035 30.698A207.208 207.208 0 0 0 656 816.604zM432 1024c0 114.875 93.125 208 208 208 58.694 0 113.339-24.449 152.269-66.296l-162.236-129.188L624 1024V816.606c-107.399 8.17-192 97.902-192 207.394zm321.893-174.078l17.547-26.76a241.193 241.193 0 0 1 51.396 45.36l-24.368 20.741a209.23 209.23 0 0 0-44.574-39.341z" fill="undefined"/></svg>