<?xml version="1.0" encoding="utf-8"?>
<svg width="1792" height="1792" xmlns="http://www.w3.org/2000/svg"><path d="M592.013 876.319C550.983 848.351 501.401 832 448 832c-141.385 0-256 114.615-256 256s114.615 256 256 256c53.401 0 102.983-16.351 144.013-44.319C542.216 1243.268 512 1169.163 512 1088s30.216-155.269 80.013-211.681zm47.82 467.83C586.379 1384.245 519.964 1408 448 1408c-176.731 0-320-143.269-320-320s143.269-320 320-320c72.115 0 138.659 23.855 192.17 64.105a320.175 320.175 0 0 1 38.573-24.826l30.691 56.161a255.96 255.96 0 0 0-21.31 13.036C737.839 932.869 768 1006.913 768 1088.001c0 81.24-30.274 155.409-80.155 211.842.653.446 1.309.889 1.966 1.329l-35.598 53.186a321.422 321.422 0 0 1-14.38-10.208zM832 1408.254v-64c19.231 0 38.165-2.115 56.573-6.265l14.075 62.433c-23.02 5.19-46.674 7.832-70.649 7.832zm138.71-31.553l-27.773-57.66a256.139 256.139 0 0 0 48.187-30.235l39.816 50.107a320.119 320.119 0 0 1-60.229 37.787zm111.898-89.443l-50.097-39.829a256.187 256.187 0 0 0 30.249-48.182l57.653 27.788a320.185 320.185 0 0 1-37.805 60.224zm62.327-131.849l-62.587-13.373a256.255 256.255 0 0 0 5.626-49.945c.023-5.468.008-7.809-.051-10.215l63.981-1.561c.076 3.105.095 6.017.067 12.343a320.904 320.904 0 0 1-7.035 62.751zm-2.625-145.589l-62.059 15.642a253.97 253.97 0 0 0-19.979-53.224l57.028-29.049a317.938 317.938 0 0 1 25.01 66.63zm-66.817-129.208l-48.68 41.548a257.684 257.684 0 0 0-41.511-38.952l38.367-51.225a321.683 321.683 0 0 1 51.824 48.628zm-113.216-84.717l-26.079 58.446a253.898 253.898 0 0 0-54.174-17.208l12.427-62.782a317.813 317.813 0 0 1 67.825 21.544zM816.15 768.64l3.123 63.924a255.48 255.48 0 0 0-56.152 9.054l-17.177-61.652a319.466 319.466 0 0 1 70.205-11.326zm-99.086 618.343l22.993-59.727a254.076 254.076 0 0 0 54.999 14.356l-9.145 63.343a317.964 317.964 0 0 1-68.847-17.972z" fill="undefined"/></svg>