<?xml version="1.0" encoding="utf-8"?>
<svg width="1792" height="1792" xmlns="http://www.w3.org/2000/svg"><path d="M998.4 966.4c6.4 25.6 6.4 64 0 102.4-32 147.2-121.6 224-281.6 224h-25.6c-6.4 0-12.8 0-19.2 6.4s-12.8 12.8-12.8 19.2v6.4l-25.6 172.8v6.4c0 6.4-6.4 12.8-12.8 19.2-12.8 12.8-19.2 12.8-25.6 12.8h-128c-6.4 0-12.8 0-19.2-6.4v-19.2c0-19.2 6.4-44.8 12.8-83.2s12.8-64 12.8-83.2l12.8-83.2c6.4-38.4 12.8-64 12.8-83.2 0-12.8 6.4-19.2 19.2-19.2h64c44.8 0 83.2 0 115.2-12.8 57.6-12.8 108.8-38.4 140.8-70.4s57.6-70.4 76.8-121.6c6.4-25.6 12.8-44.8 19.2-64v-6.4c38.4 19.2 57.6 44.8 64 83.2zm-83.2-140.8c0 38.4-6.4 76.8-25.6 115.2-25.6 76.8-76.8 128-153.6 160-38.4 12.8-76.8 19.2-128 19.2h-89.6c-32 0-51.2 19.2-57.6 51.2 0 0-12.8 89.6-44.8 262.4 0 6.4 0 6.4-6.4 6.4H268.8c-6.4 0-12.8 0-19.2-6.4s-6.4-12.8-6.4-19.2L358.4 672c0-12.8 6.4-19.2 12.8-25.6 6.4 0 19.2-6.4 25.6-6.4h300.8c12.8 0 25.6 0 51.2 6.4 19.2 6.4 38.4 12.8 57.6 12.8 38.4 12.8 64 32 83.2 64 12.8 25.6 19.2 64 25.6 102.4z" fill="undefined"/></svg>