<svg width="64" height="64" viewBox="0 0 1024 1024" xmlns="http://www.w3.org/2000/svg"><path d="M102.4 371.2c0 57.6 44.8 102.4 102.4 102.4s108.8-51.2 108.8-102.4c0-57.6-44.8-102.4-102.4-102.4-64 0-108.8 44.8-108.8 102.4zM0 710.4v12.8h198.4c12.8-83.2 51.2-147.2 115.2-192-32-12.8-64-19.2-102.4-19.2C70.4 512 0 595.2 0 710.4zm710.4-339.2c0 57.6 44.8 102.4 102.4 102.4s108.8-51.2 108.8-102.4c0-57.6-44.8-102.4-102.4-102.4-64 0-108.8 44.8-108.8 102.4zm115.2 345.6H1024V704c0-108.8-76.8-192-204.8-192-44.8 0-76.8 6.4-108.8 19.2 64 44.8 102.4 108.8 115.2 185.6zM364.8 307.2c0 83.2 64 147.2 147.2 147.2S659.2 384 659.2 307.2c0-83.2-64-147.2-147.2-147.2-83.2 6.4-147.2 70.4-147.2 147.2zM224 787.2v19.2h569.6v-19.2C800 633.6 697.6 512 512 512c-192 0-288 121.6-288 275.2z"/></svg>