<svg width="64" height="64" viewBox="0 0 1792 1792" xmlns="http://www.w3.org/2000/svg"><path d="M230.4 947.2c0 57.6 44.8 102.4 102.4 102.4s108.8-51.2 108.8-102.4c0-57.6-44.8-102.4-102.4-102.4-64 0-108.8 44.8-108.8 102.4zM128 1286.4v12.8h198.4c12.8-83.2 51.2-147.2 115.2-192-32-12.8-64-19.2-102.4-19.2-140.8 0-211.2 83.2-211.2 198.4zm710.4-339.2c0 57.6 44.8 102.4 102.4 102.4s108.8-51.2 108.8-102.4c0-57.6-44.8-102.4-102.4-102.4-64 0-108.8 44.8-108.8 102.4zm115.2 345.6H1152V1280c0-108.8-76.8-192-204.8-192-44.8 0-76.8 6.4-108.8 19.2 64 44.8 102.4 108.8 115.2 185.6zM492.8 883.2c0 83.2 64 147.2 147.2 147.2S787.2 960 787.2 883.2c0-83.2-64-147.2-147.2-147.2-83.2 6.4-147.2 70.4-147.2 147.2zm-140.8 480v19.2h569.6v-19.2c6.4-153.6-96-275.2-281.6-275.2-192 0-288 121.6-288 275.2z"/></svg>