<svg width="64" height="64" viewBox="0 0 1024 1024" xmlns="http://www.w3.org/2000/svg"><path d="M512 64C262.4 64 64 262.4 64 512c0 192 121.6 352 288 416-6.4-32-6.4-89.6 0-134.4L403.2 576s-12.8-25.6-12.8-64c0-64 38.4-108.8 83.2-108.8 38.4 0 57.6 25.6 57.6 64s-25.6 96-38.4 147.2c-6.4 44.8 25.6 83.2 70.4 83.2 76.8 0 140.8-83.2 140.8-204.8 0-108.8-76.8-185.6-192-185.6-128 0-198.4 96-198.4 192 0 38.4 12.8 76.8 32 102.4 6.4 0 6.4 6.4 0 12.8l-12.8 51.2c0 6.4 0 6.4-6.4 6.4H320c-57.6-25.6-89.6-108.8-89.6-172.8 0-140.8 102.4-268.8 294.4-268.8 153.6 0 275.2 108.8 275.2 256 0 153.6-96 275.2-230.4 275.2-44.8 0-83.2-25.6-102.4-51.2l-32 108.8c-12.8 38.4-38.4 89.6-57.6 121.6C422.4 953.6 467.2 960 512 960c249.6 0 448-198.4 448-448S761.6 64 512 64z"/></svg>