<svg width="64" height="64" viewBox="0 0 1024 1024" xmlns="http://www.w3.org/2000/svg"><path d="M544 352h128v128H544V352zm-192 0h128v128H352V352zm16-192h96v96h-96v-96zm-192 0h96v96h-96v-96zm0 208h96v96h-96v-96zm0 192h96v96h-96v-96zm0 192h96v96h-96v-96zm576-384h96v96h-96v-96zm0 192h96v96h-96v-96zm0 192h96v96h-96v-96zM560 160h96v96h-96v-96zM368 752h96v96h-96v-96zm192 0h96v96h-96v-96zm192-592h96v96h-96v-96zM576 32h64v64h-64V32zm-192 0h64v64h-64V32zm192 896h64v64h-64v-64zm352-352h64v64h-64v-64zm0-192h64v64h-64v-64zM32 576h64v64H32v-64zm0-192h64v64H32v-64zm352 544h64v64h-64v-64zm160-384h128v128H544V544zm-192 0h128v128H352V544z"/></svg>