<?xml version="1.0" encoding="utf-8"?>
<svg width="1792" height="1792" xmlns="http://www.w3.org/2000/svg"><path d="M1152 1036.8C1120 774.4 902.4 576 640 576s-480 198.4-512 460.8v51.2c0 281.6 230.4 512 512 512s512-230.4 512-512v-51.2zM640 672c204.8 0 377.6 147.2 409.6 345.6l-64 12.8C960 857.6 812.8 736 640 736v-64zm0 288c70.4 0 128 57.6 128 128s-57.6 128-128 128-128-57.6-128-128 57.6-128 128-128zm0 576c-249.6 0-448-198.4-448-448h256c0 108.8 83.2 192 192 192s192-83.2 192-192h256c0 249.6-198.4 448-448 448z" fill="undefined"/></svg>