<?xml version="1.0" encoding="utf-8"?>
<svg width="1792" height="1792" xmlns="http://www.w3.org/2000/svg"><path d="M192 704h128v64h-64v64h-64V704zm768 0h128v128h-64v-64h-64v-64zm-768 640h64v64h64v64H192v-128zm832 64v-64h64v128H960v-64h64zM288 800h704v576H288V800zm64 512h576V864H352v448zm384-160.721l67.882-67.882L736 1015.515l45.255-45.255 113.137 113.137-113.137 113.137L736 1151.279zm-193.608-135.764l-67.882 67.882 67.882 67.882-45.255 45.255L384 1083.397 497.137 970.26l45.255 45.255zM689.551 947.2l40.169 23.192-139.151 241.016-40.169-23.192L689.551 947.2z" fill="undefined"/></svg>