<svg width="64" height="64" viewBox="0 0 1024 1024" xmlns="http://www.w3.org/2000/svg"><path d="M64 128h896v768H64V128zm64 192v512h768V320H128zm480-64c17.673 0 32-14.327 32-32s-14.327-32-32-32c-17.673 0-32 14.327-32 32s14.327 32 32 32zm128 0c17.673 0 32-14.327 32-32s-14.327-32-32-32c-17.673 0-32 14.327-32 32s14.327 32 32 32zm128 0c17.673 0 32-14.327 32-32s-14.327-32-32-32c-17.673 0-32 14.327-32 32s14.327 32 32 32zM608 639.279l67.882-67.882L608 503.515l45.255-45.255 113.137 113.137-113.137 113.137L608 639.279zM414.392 503.515l-67.882 67.882 67.882 67.882-45.255 45.255L256 571.397 369.137 458.26l45.255 45.255zM561.551 435.2l40.169 23.192-139.151 241.016-40.169-23.192L561.551 435.2z"/></svg>