<?xml version="1.0" encoding="utf-8"?>
<svg width="1792" height="1792" xmlns="http://www.w3.org/2000/svg"><path d="M192 704h896v768H192V704zm64 192v512h768V896H256zm480-64c17.673 0 32-14.327 32-32s-14.327-32-32-32c-17.673 0-32 14.327-32 32s14.327 32 32 32zm128 0c17.673 0 32-14.327 32-32s-14.327-32-32-32c-17.673 0-32 14.327-32 32s14.327 32 32 32zm128 0c17.673 0 32-14.327 32-32s-14.327-32-32-32c-17.673 0-32 14.327-32 32s14.327 32 32 32zm-256 383.279l67.882-67.882L736 1079.515l45.255-45.255 113.137 113.137-113.137 113.137L736 1215.279zm-193.608-135.764l-67.882 67.882 67.882 67.882-45.255 45.255L384 1147.397l113.137-113.137 45.255 45.255zm147.159-68.315l40.169 23.192-139.151 241.016-40.169-23.192L689.551 1011.2z" fill="undefined"/></svg>