<svg width="64" height="64" viewBox="0 0 1024 1024" xmlns="http://www.w3.org/2000/svg"><path d="M64 128h128v64h-64v64H64V128zm768 0h128v128h-64v-64h-64v-64zM64 768h64v64h64v64H64V768zm832 64v-64h64v128H832v-64h64zM160 224h704v576H160V224zm64 512h576V288H224v448zm384-160.721l67.882-67.882L608 439.515l45.255-45.255 113.137 113.137-113.137 113.137L608 575.279zM414.392 439.515l-67.882 67.882 67.882 67.882-45.255 45.255L256 507.397 369.137 394.26l45.255 45.255zM561.551 371.2l40.169 23.192-139.151 241.016-40.169-23.192L561.551 371.2z"/></svg>