<?xml version="1.0" encoding="utf-8"?>
<svg width="1792" height="1792" xmlns="http://www.w3.org/2000/svg"><path d="M192 768h64v640h768v64H192V768zm64-64h64v64h-64v-64zm128 0h64v64h-64v-64zm128 0h64v64h-64v-64zm128 0h64v64h-64v-64zm128 0h64v64h-64v-64zm192 192h64v64h-64v-64zm0 128h64v64h-64v-64zm0 128h64v64h-64v-64zm0 128h64v64h-64v-64zm-64-576h63.977v-64h64.15l-.143 64H1088v64h-63.873l-.143 64h-64.007v-64H896v-64zM384 896v128h448V896H384zm-64-64h576v256H320V832zm0 320h576v64H320v-64zm0 128h256v64H320v-64z" fill="undefined"/></svg>