<svg width="64" height="64" viewBox="0 0 1792 1792" xmlns="http://www.w3.org/2000/svg"><path d="M1030.4 1209.6c-6.4-25.6-19.2-64-32-96l-44.8-108.8v-32c0-192-89.6-384-307.2-384s-307.2 192-307.2 384v32L288 1120c-12.8 32-25.6 64-38.4 89.6-44.8 134.4-25.6 192-19.2 192 25.6 6.4 89.6-102.4 89.6-102.4 0 57.6 32 140.8 96 198.4-25.6 6.4-57.6 19.2-76.8 32s-12.8 25.6-12.8 32c19.2 25.6 249.6 19.2 313.6 12.8 64 6.4 294.4 19.2 307.2-6.4 6.4-6.4 6.4-19.2-12.8-32s-51.2-25.6-76.8-32c70.4-57.6 96-134.4 96-198.4 0 0 64 102.4 89.6 102.4 12.8-6.4 25.6-64-12.8-198.4z"/></svg>