<?xml version="1.0" encoding="utf-8"?>
<svg width="1792" height="1792" xmlns="http://www.w3.org/2000/svg"><path d="M576 640H192v384h384V640zM256 960V704h256v256H256zm192-192H320v128h128V768zm576-128H640v384h384V640zM704 960V704h256v256H704zm192-192H768v128h128V768zm-320 320H192v384h384v-384zm-320 320v-256h256v256H256zm192-192H320v128h128v-128zm576-128h-64v64h64v-64zm-192 0H640v192h64v-128h128v-64zm-128 320h-64v64h64v-64zm320-128h-64v128H832v64h192v-192zm-192-64h-64v128h128v-64h-64v-64z" fill="undefined"/></svg>