<svg width="64" height="64" viewBox="0 0 1024 1024" xmlns="http://www.w3.org/2000/svg"><path d="M896 563.2c-6.4-44.8-32-83.2-64-108.8V448c0-70.4-32-108.8-64-140.8-6.4 6.4 0 0 0-6.4 19.2-6.4 32-19.2 32-32 6.4-6.4 25.6-19.2 25.6-38.4 12.8-12.8 19.2-25.6 12.8-38.4 12.8-12.8 12.8-25.6 12.8-38.4 12.8-19.2 6.4-32 0-44.8 6.4-12.8 6.4-25.6-6.4-38.4 0 0-12.8-6.4-25.6-6.4-12.8-12.8-25.6-12.8-44.8-12.8-6.4-6.4-19.2-6.4-32-6.4-12.8-12.8-32-6.4-44.8-6.4-19.2-6.4-32 0-38.4 0-19.2-6.4-25.6 0-38.4 6.4-25.6 0-38.4 6.4-44.8 19.2h-12.8c-25.6 12.8-38.4 32-51.2 51.2C499.2 96 486.4 76.8 460.8 64c-6.4 0-6.4-6.4-12.8 0-6.4-12.8-19.2-19.2-44.8-19.2-6.4-6.4-19.2-6.4-32-6.4-6.4 0-12.8-6.4-19.2-6.4-6.4 0-12.8 0-19.2 6.4-19.2-6.4-38.4-6.4-51.2 6.4-12.8 0-25.6 0-32 6.4-19.2 0-32 6.4-44.8 12.8-12.8 0-25.6 6.4-38.4 19.2-6.4 6.4-6.4 19.2 0 32-6.4 12.8-12.8 25.6 0 44.8 0 12.8 0 25.6 12.8 38.4 0 12.8 0 25.6 12.8 38.4 0 19.2 19.2 32 25.6 38.4s12.8 19.2 38.4 25.6c0 6.4 6.4 12.8 12.8 12.8-38.4 25.6-64 64-64 140.8v6.4c-32 19.2-57.6 64-64 108.8-6.4 32 0 76.8 38.4 121.6 6.4 19.2 6.4 32 12.8 51.2 0 6.4 0 6.4 6.4 12.8 12.8 83.2 76.8 128 108.8 134.4 12.8 12.8 38.4 38.4 76.8 51.2 38.4 38.4 76.8 51.2 121.6 51.2s89.6-19.2 128-51.2c38.4-12.8 70.4-32 96-51.2 25.6-6.4 96-51.2 108.8-134.4 0-6.4 0-6.4 6.4-12.8 6.4-12.8 12.8-32 12.8-51.2 38.4-44.8 44.8-96 38.4-128zM774.4 454.4c0 32-179.2-115.2-147.2-121.6 83.2-12.8 153.6 32 147.2 121.6zm-76.8 172.8c-44.8 25.6-108.8 12.8-140.8-38.4-38.4-57.6-25.6-121.6 19.2-153.6 44.8-25.6 108.8-12.8 140.8 38.4 32 57.6 25.6 121.6-19.2 153.6zM576 102.4c0 6.4 6.4 12.8 6.4 12.8l32-32c0 6.4 0 12.8 6.4 19.2 6.4-6.4 12.8-19.2 25.6-25.6-6.4 12.8 0 12.8 0 19.2 6.4-6.4 19.2-19.2 38.4-19.2-6.4 6.4-12.8 12.8-6.4 19.2 12.8-6.4 19.2-12.8 44.8-19.2-6.4 6.4-12.8 12.8-6.4 19.2 12.8-6.4 25.6-6.4 38.4-12.8-6.4 6.4-12.8 12.8-6.4 12.8 12.8-6.4 32-6.4 44.8-6.4l-12.8 12.8h44.8c-6.4 6.4-12.8 19.2-19.2 32h19.2c-6.4 19.2-25.6 19.2-25.6 32 6.4 6.4 12.8 0 19.2 0-6.4 12.8-19.2 19.2-32 32h19.2c-6.4 12.8-19.2 19.2-32 25.6h19.2c-12.8 12.8-25.6 19.2-44.8 25.6 6.4 6.4 12.8 6.4 19.2 6.4-12.8 6.4-25.6 12.8-44.8 19.2 0 6.4 6.4 6.4 12.8 6.4-19.2 12.8-44.8 6.4-51.2 12.8 0 6.4 6.4 6.4 12.8 12.8-25.6 0-102.4 0-121.6-57.6 25.6-32 83.2-70.4 172.8-115.2-70.4 25.6-134.4 51.2-185.6 96-57.6-25.6-19.2-102.4 12.8-128zm-64 204.8c44.8 0 96 32 96 64 6.4 25.6-32 51.2-96 51.2-57.6 0-96-25.6-96-51.2s51.2-64 96-64zm-38.4 281.6c-38.4 51.2-102.4 70.4-147.2 38.4-44.8-25.6-51.2-89.6-12.8-140.8s96-70.4 140.8-38.4c44.8 25.6 51.2 89.6 19.2 140.8zM256 262.4c6.4 0 12.8 0 19.2-6.4-12.8-6.4-25.6-12.8-38.4-25.6H256c-19.2-12.8-25.6-19.2-38.4-32h19.2c-12.8-12.8-25.6-19.2-32-32 6.4 0 12.8 6.4 19.2 0 0-6.4-12.8-12.8-25.6-32h19.2c0-12.8-6.4-19.2-12.8-32h44.8l-12.8-12.8c19.2-6.4 32 0 44.8 6.4 6.4-6.4 0-12.8-6.4-12.8 12.8 0 25.6 6.4 38.4 12.8 6.4-12.8 0-19.2-6.4-25.6 25.6 6.4 32 12.8 44.8 19.2 6.4-6.4 0-12.8-6.4-19.2 19.2 6.4 25.6 12.8 38.4 19.2 0-6.4 6.4-6.4 0-19.2 12.8 6.4 19.2 12.8 25.6 25.6 6.4-6.4 6.4-12.8 6.4-19.2l32 32v-6.4c32 32 70.4 102.4 12.8 128-51.2-44.8-115.2-70.4-185.6-96C364.8 179.2 416 217.6 448 249.6c-19.2 57.6-96 57.6-121.6 57.6 6.4 0 12.8-6.4 12.8-12.8-6.4-6.4-32 0-51.2-12.8 6.4 0 12.8 0 12.8-6.4-12.8 0-32-6.4-44.8-12.8zm140.8 64c32 6.4-140.8 160-147.2 128 0-89.6 64-140.8 147.2-128zM211.2 665.6c-44.8-32-57.6-128 25.6-172.8 44.8-12.8 12.8 192-25.6 172.8zm166.4 179.2c-25.6 12.8-83.2 6.4-128-51.2-25.6-51.2-25.6-102.4-6.4-115.2 32-19.2 76.8 6.4 108.8 44.8 38.4 38.4 51.2 102.4 25.6 121.6zM512 947.2c-51.2 0-102.4-44.8-102.4-57.6 0-25.6 64-38.4 108.8-38.4s102.4 12.8 102.4 32-57.6 64-108.8 64zm108.8-224c0 51.2-44.8 96-108.8 96-57.6 0-108.8-44.8-108.8-96s44.8-96 108.8-96c57.6-6.4 108.8 38.4 108.8 96zM768 800c-44.8 64-108.8 64-134.4 44.8-25.6-25.6-6.4-89.6 25.6-128C697.6 672 736 646.4 768 665.6c25.6 19.2 38.4 89.6 0 134.4zm44.8-134.4c-38.4 19.2-70.4-192-25.6-179.2 83.2 44.8 70.4 147.2 25.6 179.2z"/></svg>