<svg width="64" height="64" viewBox="0 0 1024 1024" xmlns="http://www.w3.org/2000/svg"><path d="M256 102.4C352 153.6 409.6 192 441.6 224c-12.8 64-102.4 64-128 64 0 0 6.4-6.4 6.4-12.8-6.4-6.4-32 0-51.2-12.8 6.4 0 12.8 0 12.8-6.4-19.2 0-38.4-6.4-44.8-19.2 6.4 0 12.8 0 19.2-6.4-19.2-6.4-32-12.8-44.8-25.6h19.2c-19.2-12.8-32-19.2-38.4-32h19.2c-12.8-12.8-25.6-19.2-32-38.4 6.4 0 19.2 6.4 19.2 0s-19.2-12.8-25.6-32H192c-6.4-12.8-12.8-25.6-19.2-32h44.8l-6.4-19.2c19.2-6.4 38.4 0 51.2 6.4 6.4-6.4 0-12.8-6.4-19.2 19.2 0 32 6.4 44.8 12.8 6.4-6.4-6.4-12.8-12.8-19.2 25.6 6.4 32 12.8 44.8 19.2 6.4-6.4 0-12.8-6.4-19.2 19.2 6.4 25.6 12.8 38.4 25.6 6.4-6.4 6.4-6.4 0-19.2 19.2 6.4 25.6 12.8 32 25.6 6.4-6.4 6.4-12.8 6.4-19.2l32 32s6.4-6.4 6.4-12.8c32 32 76.8 108.8 12.8 140.8C396.8 160 332.8 128 256 102.4zm518.4 0C672 153.6 620.8 192 588.8 224c12.8 64 102.4 64 128 64-6.4 0-12.8-6.4-12.8-12.8 6.4-6.4 32 0 51.2-12.8-6.4 0-12.8 0-12.8-6.4 19.2-6.4 38.4-12.8 51.2-19.2-6.4 0-12.8 0-19.2-6.4 19.2-6.4 32-12.8 44.8-25.6H800c12.8-6.4 25.6-19.2 38.4-32h-19.2c12.8-12.8 25.6-19.2 32-32-6.4 0-19.2 6.4-19.2 0 0-12.8 12.8-19.2 25.6-38.4h-19.2c6.4-19.2 12.8-25.6 19.2-38.4h-44.8l12.8-12.8c-19.2-6.4-38.4 0-51.2 6.4-6.4-6.4 0-12.8 6.4-19.2-19.2 0-32 6.4-44.8 12.8-6.4-6.4 6.4-12.8 12.8-19.2-25.6 6.4-38.4 12.8-44.8 19.2-6.4-6.4 0-12.8 6.4-19.2-19.2 6.4-25.6 12.8-38.4 25.6-6.4-6.4-6.4-6.4 0-19.2-25.6 6.4-38.4 12.8-44.8 25.6-6.4-6.4-6.4-12.8-6.4-19.2-12.8 12.8-19.2 25.6-32 32 0 0-6.4-6.4-6.4-12.8-32 32-76.8 108.8-12.8 140.8 57.6-44.8 128-76.8 204.8-102.4zm-140.8 640c0 57.6-51.2 108.8-115.2 108.8s-115.2-44.8-115.2-108.8C396.8 684.8 448 633.6 512 633.6s121.6 51.2 121.6 108.8zM448 441.6c51.2 32 57.6 102.4 19.2 160s-108.8 76.8-153.6 44.8c-51.2-32-57.6-108.8-19.2-160s102.4-76.8 153.6-44.8zm134.4-6.4c-51.2 32-57.6 102.4-19.2 160S672 672 716.8 640c51.2-32 57.6-102.4 19.2-160s-108.8-76.8-153.6-44.8zm-371.2 57.6c51.2-12.8 19.2 211.2-25.6 198.4-51.2-44.8-64-153.6 25.6-198.4zm601.6-6.4c-51.2-12.8-19.2 211.2 25.6 198.4 51.2-38.4 64-147.2-25.6-198.4zM640 320c89.6-12.8 166.4 38.4 160 134.4 0 32-192-134.4-160-134.4zm-249.6-6.4C300.8 300.8 224 352 224 448c6.4 38.4 198.4-128 166.4-134.4zM512 294.4c-51.2 0-108.8 38.4-108.8 64C409.6 384 448 416 512 416s108.8-25.6 108.8-51.2c0-38.4-57.6-70.4-108.8-70.4zm6.4 588.8c44.8 0 108.8 12.8 108.8 38.4 0 19.2-57.6 70.4-115.2 70.4s-115.2-44.8-115.2-64c0-25.6 76.8-44.8 121.6-44.8zM345.6 748.8c32 38.4 51.2 108.8 19.2 128-25.6 12.8-89.6 6.4-134.4-57.6-32-51.2-25.6-108.8-6.4-128 32-12.8 83.2 12.8 121.6 57.6zM678.4 736c-38.4 44.8-57.6 121.6-32 140.8s96 19.2 140.8-51.2c38.4-44.8 25.6-121.6 6.4-140.8-25.6-25.6-70.4 6.4-115.2 51.2z"/></svg>