<?xml version="1.0" encoding="utf-8"?>
<svg width="1792" height="1792" xmlns="http://www.w3.org/2000/svg"><path d="M953.6 1043.2l-6.4-12.8c0-89.6-38.4-121.6-83.2-147.2 12.8-6.4 25.6-6.4 32-25.6 25.6-6.4 32-19.2 32-32 6.4-6.4 25.6-19.2 25.6-38.4 12.8-6.4 19.2-19.2 12.8-32 12.8-12.8 19.2-25.6 12.8-38.4 12.8-19.2 6.4-32 0-38.4 12.8-19.2 0-44.8-32-38.4-12.8-19.2-38.4-12.8-44.8-12.8-6.4-6.4-12.8-12.8-32-6.4-12.8-12.8-25.6-6.4-38.4-6.4-19.2-12.8-32 0-44.8 0-19.2-6.4-25.6 0-38.4 6.4-19.2-6.4-25.6 6.4-38.4 19.2h-12.8c-38.4 19.2-51.2 64-57.6 83.2-6.4-19.2-25.6-64-57.6-83.2h-12.8c-12.8-12.8-19.2-25.6-44.8-12.8-6.4 0-12.8-19.2-32-12.8-6.4 0-19.2-6.4-25.6-6.4s-12.8 0-19.2 6.4c-12.8-6.4-25.6-6.4-38.4 12.8-19.2 0-25.6 0-32 6.4-6.4-6.4-32-6.4-44.8 6.4-32 0-44.8 19.2-32 38.4-6.4 12.8-12.8 25.6 0 44.8-6.4 12.8 0 19.2 12.8 44.8 0 12.8 6.4 19.2 12.8 32 0 19.2 19.2 32 25.6 32 0 12.8 6.4 25.6 32 32 6.4 19.2 19.2 19.2 32 32-44.8 19.2-89.6 64-83.2 147.2h-6.4c-51.2 32-102.4 134.4-25.6 217.6 6.4 25.6 12.8 44.8 19.2 64 12.8 83.2 83.2 121.6 102.4 128 25.6 19.2 57.6 38.4 96 57.6 38.4 38.4 76.8 51.2 121.6 51.2 38.4 0 83.2-12.8 121.6-51.2 38.4-12.8 70.4-32 96-57.6 19.2-6.4 89.6-44.8 102.4-128 6.4-19.2 12.8-38.4 19.2-64 76.8-76.8 25.6-185.6-25.6-217.6zm-44.8-12.8c0 32-185.6-121.6-153.6-128 89.6-6.4 160 32 153.6 128zM832 1203.2c-44.8 32-108.8 12.8-147.2-44.8-38.4-51.2-25.6-115.2 19.2-147.2s108.8-12.8 147.2 44.8c32 51.2 25.6 115.2-19.2 147.2zM704 672c0 6.4 6.4 12.8 6.4 12.8l32-32c0 6.4 0 12.8 6.4 19.2 6.4-12.8 12.8-25.6 25.6-32-6.4 12.8 0 12.8 0 19.2 6.4 0 19.2-19.2 38.4-19.2-6.4 6.4-12.8 12.8-6.4 19.2 12.8-12.8 19.2-19.2 44.8-19.2-6.4 0-19.2 6.4-6.4 19.2 12.8-6.4 25.6-6.4 38.4-12.8-6.4 6.4-12.8 12.8-6.4 19.2 12.8-6.4 32-6.4 51.2-6.4L915.2 672H960c-6.4 6.4-12.8 19.2-19.2 32H960c-6.4 19.2-25.6 25.6-25.6 32 6.4 6.4 12.8 0 19.2 0-6.4 12.8-19.2 19.2-32 32h19.2c-6.4 12.8-19.2 19.2-32 25.6H928c-12.8 12.8-25.6 19.2-44.8 25.6 6.4 6.4 12.8 6.4 19.2 6.4-12.8 6.4-25.6 6.4-44.8 12.8 0 6.4 6.4 6.4 12.8 6.4-19.2 12.8-44.8 6.4-51.2 12.8 0 6.4 6.4 6.4 12.8 12.8-25.6 0-108.8 0-121.6-57.6 32-32 83.2-70.4 172.8-115.2-70.4 25.6-134.4 57.6-192 102.4-64-32-19.2-108.8 12.8-128zm38.4 275.2c0 32-38.4 44.8-102.4 44.8-57.6 0-102.4-25.6-102.4-57.6 6.4-19.2 51.2-51.2 102.4-51.2 44.8 0 102.4 32 102.4 64zm-332.8-96c6.4 0 12.8 0 12.8-6.4-12.8-6.4-32-6.4-44.8-12.8 6.4 0 12.8 0 19.2-12.8-12.8 0-32-12.8-38.4-19.2h19.2c-19.2-12.8-32-25.6-38.4-32h19.2l-32-32c6.4 0 12.8 6.4 19.2 0 0-12.8-19.2-12.8-25.6-32h19.2c-6.4-12.8-12.8-25.6-19.2-32h44.8l-6.4-12.8c19.2-6.4 38.4 0 51.2 6.4 6.4-6.4 0-12.8-6.4-19.2 12.8 0 25.6 6.4 38.4 12.8 6.4-12.8-6.4-19.2-12.8-19.2 25.6 0 32 6.4 44.8 19.2 6.4-12.8 0-19.2-6.4-19.2 19.2 0 25.6 6.4 38.4 19.2 0 0 6.4-6.4 0-12.8 12.8 6.4 19.2 12.8 25.6 25.6 6.4-6.4 6.4-12.8 6.4-19.2l32 32s6.4-6.4 6.4-12.8c32 19.2 76.8 96 12.8 128-51.2-44.8-115.2-76.8-192-96 89.6 44.8 147.2 83.2 172.8 115.2-12.8 64-89.6 64-121.6 64 6.4 0 12.8-6.4 12.8-12.8-6.4-6.4-32-6.4-51.2-19.2zM524.8 896c32 6.4-147.2 160-153.6 128 0-89.6 70.4-140.8 153.6-128zm-192 352c-44.8-32-57.6-128 25.6-185.6 44.8-6.4 12.8 204.8-25.6 185.6zm166.4 192c-25.6 12.8-83.2 6.4-128-51.2-32-51.2-25.6-102.4-6.4-121.6 32-19.2 76.8 6.4 115.2 51.2 32 32 44.8 96 19.2 121.6zm-44.8-224c-51.2-32-57.6-96-19.2-160 38.4-51.2 102.4-70.4 147.2-44.8 44.8 32 51.2 96 19.2 147.2-38.4 64-102.4 89.6-147.2 57.6zM640 1536c-57.6 0-108.8-44.8-108.8-57.6 0-25.6 64-44.8 108.8-38.4 44.8 0 102.4 12.8 102.4 38.4 6.4 12.8-44.8 57.6-102.4 57.6zm0-128c-57.6 0-108.8-44.8-108.8-102.4s51.2-102.4 108.8-102.4c64 0 108.8 44.8 108.8 102.4S704 1408 640 1408zm262.4-25.6c-44.8 64-108.8 70.4-134.4 51.2-25.6-25.6-6.4-89.6 25.6-134.4 38.4-44.8 83.2-70.4 108.8-51.2s38.4 96 0 134.4zm44.8-134.4c-38.4 19.2-70.4-198.4-25.6-185.6 83.2 44.8 70.4 153.6 25.6 185.6z" fill="undefined"/></svg>