<svg width="64" height="64" viewBox="0 0 1024 1024" xmlns="http://www.w3.org/2000/svg"><path d="M832 128H576c-38.4 0-70.4 19.2-96 44.8-25.6-25.6-57.6-44.8-96-44.8H0v704h384c38.4 0 64 25.6 64 64h64c0-38.4 25.6-64 64-64h384V128H832zm-128 64h64v70.4l-32-19.2-32 19.2V192zM384 768H64V192h320c38.4 0 64 25.6 64 64v531.2c-19.2-12.8-38.4-19.2-64-19.2zm512 0H576c-25.6 0-44.8 6.4-64 19.2V256c0-38.4 25.6-64 64-64h64v192l96-64 96 64V192h64v576zM128 320h256v64H128v-64zm0 128h256v64H128v-64zm448 0h256v64H576v-64zM128 576h256v64H128v-64zm448 0h256v64H576v-64z"/></svg>