<?xml version="1.0" encoding="utf-8"?>
<svg width="1792" height="1792" xmlns="http://www.w3.org/2000/svg"><path d="M960 704H704c-38.4 0-70.4 19.2-96 44.8-25.6-25.6-57.6-44.8-96-44.8H128v704h384c38.4 0 64 25.6 64 64h64c0-38.4 25.6-64 64-64h384V704H960zm-128 64h64v70.4l-32-19.2-32 19.2V768zm-320 576H192V768h320c38.4 0 64 25.6 64 64v531.2c-19.2-12.8-38.4-19.2-64-19.2zm512 0H704c-25.6 0-44.8 6.4-64 19.2V832c0-38.4 25.6-64 64-64h64v192l96-64 96 64V768h64v576zM256 896h256v64H256v-64zm0 128h256v64H256v-64zm448 0h256v64H704v-64zm-448 128h256v64H256v-64zm448 0h256v64H704v-64z" fill="undefined"/></svg>