<svg width="64" height="64" viewBox="0 0 1024 1024" xmlns="http://www.w3.org/2000/svg"><path d="M512 339.2c-108.8 0-192 89.6-192 192 0 108.8 89.6 192 192 192s192-89.6 192-192-83.2-192-192-192zm0 326.4c-70.4 0-128-57.6-128-128s57.6-128 128-128 128 57.6 128 128-57.6 128-128 128zm499.2-243.2c-19.2 6.4-32 6.4-51.2 6.4-51.2 0-102.4-25.6-134.4-76.8-38.4-64-19.2-147.2 32-192-51.2-51.2-121.6-89.6-192-115.2-12.8 70.4-76.8 128-153.6 128S371.2 115.2 358.4 38.4c-64 25.6-134.4 64-192 115.2 64 44.8 83.2 134.4 38.4 198.4-25.6 51.2-76.8 76.8-128 76.8-19.2 0-44.8-6.4-64-12.8C6.4 454.4 0 492.8 0 531.2c0 44.8 6.4 83.2 12.8 115.2 19.2-6.4 44.8-12.8 64-12.8 51.2 0 102.4 25.6 134.4 76.8 38.4 70.4 19.2 153.6-38.4 198.4 51.2 51.2 121.6 96 192 115.2 12.8-76.8 76.8-134.4 153.6-134.4s140.8 57.6 153.6 128c70.4-25.6 140.8-64 192-115.2-57.6-44.8-70.4-128-32-192 25.6-51.2 83.2-76.8 134.4-76.8 19.2 0 32 0 51.2 6.4 0-32 6.4-70.4 6.4-108.8s-6.4-70.4-12.8-108.8zM960 569.6c-76.8 0-147.2 44.8-185.6 108.8C736 748.8 736 832 774.4 896c-19.2 12.8-44.8 25.6-64 38.4-38.4-64-108.8-108.8-185.6-108.8-83.2 0-153.6 44.8-192 115.2-25.6-12.8-44.8-25.6-70.4-38.4 38.4-64 44.8-153.6 6.4-224-38.4-64-108.8-108.8-185.6-108.8H70.4v-38.4-38.4h12.8c76.8 0 147.2-38.4 185.6-108.8s38.4-153.6-6.4-224c19.2-12.8 44.8-25.6 70.4-38.4 38.4 70.4 108.8 115.2 192 115.2 76.8 0 153.6-44.8 185.6-108.8 25.6 12.8 44.8 25.6 64 38.4-38.4 64-38.4 147.2 0 217.6 38.4 64 108.8 108.8 185.6 108.8v76.8z"/></svg>