<svg width="64" height="64" viewBox="0 0 1024 1024" xmlns="http://www.w3.org/2000/svg"><path d="M1011.2 422.4c-19.2 6.4-32 6.4-51.2 6.4-51.2 0-102.4-25.6-134.4-76.8-38.4-64-19.2-147.2 32-192-51.2-51.2-121.6-89.6-192-115.2-12.8 70.4-76.8 128-153.6 128-70.4 0-134.4-57.6-147.2-128C294.4 64 224 102.4 166.4 153.6c64 44.8 83.2 134.4 38.4 198.4-25.6 51.2-76.8 76.8-128 76.8-19.2 0-44.8-6.4-64-12.8C6.4 454.4 0 492.8 0 531.2S6.4 608 12.8 646.4c19.2-6.4 44.8-12.8 64-12.8 51.2 0 102.4 25.6 134.4 76.8 38.4 70.4 19.2 153.6-38.4 198.4 51.2 51.2 121.6 96 192 115.2 12.8-76.8 76.8-134.4 153.6-134.4s140.8 57.6 153.6 128c70.4-25.6 140.8-64 192-115.2-57.6-44.8-70.4-128-32-192 25.6-51.2 83.2-76.8 134.4-76.8 19.2 0 32 0 51.2 6.4 0-32 6.4-70.4 6.4-108.8s-6.4-76.8-12.8-108.8zM640 537.6c0 70.4-57.6 128-128 128s-128-57.6-128-128 57.6-128 128-128 128 57.6 128 128z"/></svg>