<svg width="64" height="64" viewBox="0 0 1024 1024" xmlns="http://www.w3.org/2000/svg"><path d="M729.6 108.8C710.4 64 672 32 620.8 32c-44.8 0-89.6 32-102.4 76.8H0v64h518.4c12.8 44.8 57.6 76.8 102.4 76.8 51.2 0 89.6-32 102.4-76.8H1024v-64H729.6zm-108.8 76.8c-25.6 0-44.8-19.2-44.8-44.8S595.2 96 620.8 96s44.8 19.2 44.8 44.8c0 25.6-19.2 44.8-44.8 44.8zm64 588.8c-51.2 0-89.6 32-102.4 76.8H0v64h582.4C595.2 960 640 992 684.8 992c51.2 0 89.6-32 102.4-76.8H1024v-64H793.6c-19.2-44.8-57.6-76.8-108.8-76.8zm0 153.6c-25.6 0-44.8-19.2-44.8-44.8s19.2-44.8 44.8-44.8 44.8 19.2 44.8 44.8-19.2 44.8-44.8 44.8zM307.2 416c-51.2 0-89.6 32-102.4 76.8H0v64h204.8c12.8 44.8 51.2 76.8 102.4 76.8s89.6-32 102.4-76.8H1024v-64H409.6C396.8 448 358.4 416 307.2 416zm0 153.6c-25.6 0-44.8-19.2-44.8-44.8s19.2-44.8 44.8-44.8 44.8 19.2 44.8 44.8c0 25.6-19.2 44.8-44.8 44.8z"/></svg>