<?xml version="1.0" encoding="utf-8"?>
<svg width="1792" height="1792" xmlns="http://www.w3.org/2000/svg"><path d="M857.6 684.8C838.4 640 800 608 748.8 608c-44.8 0-89.6 32-102.4 76.8H128v64h518.4c12.8 44.8 57.6 76.8 102.4 76.8 51.2 0 89.6-32 102.4-76.8H1152v-64H857.6zm-108.8 76.8c-25.6 0-44.8-19.2-44.8-44.8s19.2-44.8 44.8-44.8 44.8 19.2 44.8 44.8c0 25.6-19.2 44.8-44.8 44.8zm64 588.8c-51.2 0-89.6 32-102.4 76.8H128v64h582.4c12.8 44.8 57.6 76.8 102.4 76.8 51.2 0 89.6-32 102.4-76.8H1152v-64H921.6c-19.2-44.8-57.6-76.8-108.8-76.8zm0 153.6c-25.6 0-44.8-19.2-44.8-44.8s19.2-44.8 44.8-44.8 44.8 19.2 44.8 44.8-19.2 44.8-44.8 44.8zM435.2 992c-51.2 0-89.6 32-102.4 76.8H128v64h204.8c12.8 44.8 51.2 76.8 102.4 76.8s89.6-32 102.4-76.8H1152v-64H537.6C524.8 1024 486.4 992 435.2 992zm0 153.6c-25.6 0-44.8-19.2-44.8-44.8s19.2-44.8 44.8-44.8 44.8 19.2 44.8 44.8c0 25.6-19.2 44.8-44.8 44.8z" fill="undefined"/></svg>