<svg width="64" height="64" viewBox="0 0 1792 1792" xmlns="http://www.w3.org/2000/svg"><path d="M953.6 921.6c0-38.4-12.8-64-38.4-89.6s-57.6-38.4-89.6-38.4c-38.4 0-64 12.8-89.6 38.4s-38.4 57.6-38.4 89.6c0 38.4 12.8 64 38.4 89.6s57.6 38.4 89.6 38.4c38.4 0 64-12.8 89.6-38.4s38.4-51.2 38.4-89.6zM550.4 1312c0 38.4-12.8 70.4-38.4 96s-57.6 38.4-96 38.4c-25.6 0-44.8-6.4-70.4-19.2s-38.4-32-51.2-51.2c25.6 6.4 44.8 19.2 64 25.6 25.6 12.8 51.2 12.8 83.2 0 25.6-12.8 44.8-32 57.6-57.6s12.8-51.2 0-83.2-25.6-44.8-57.6-51.2l-51.2-25.6c12.8 0 19.2-6.4 25.6-6.4 38.4 0 70.4 12.8 96 38.4 25.6 32 38.4 64 38.4 96zM1152 768v640c0 51.2-19.2 96-57.6 134.4S1011.2 1600 960 1600H320c-51.2 0-96-19.2-134.4-57.6S128 1459.2 128 1408v-102.4l115.2 44.8c6.4 38.4 32 76.8 64 102.4s70.4 38.4 115.2 38.4 89.6-12.8 121.6-44.8 51.2-70.4 57.6-115.2L832 1164.8c64 0 121.6-25.6 172.8-70.4 44.8-44.8 70.4-102.4 70.4-172.8 0-64-25.6-121.6-70.4-172.8S902.4 678.4 832 678.4c-70.4 6.4-128 25.6-172.8 76.8s-70.4 102.4-70.4 166.4l-153.6 211.2H416c-32 0-64 6.4-89.6 25.6L128 1081.6V768c0-51.2 19.2-96 57.6-134.4S268.8 576 320 576h640c51.2 0 96 19.2 134.4 57.6S1152 716.8 1152 768zM985.6 921.6c0 44.8-12.8 83.2-44.8 115.2s-70.4 44.8-115.2 44.8-83.2-12.8-115.2-44.8-44.8-70.4-44.8-115.2 12.8-83.2 44.8-115.2 70.4-44.8 115.2-44.8 83.2 12.8 115.2 44.8 44.8 70.4 44.8 115.2z"/></svg>