<svg width="64" height="64" viewBox="0 0 1024 1024" xmlns="http://www.w3.org/2000/svg"><path d="M768 512c0 141.385-114.615 256-256 256S256 653.385 256 512s114.615-256 256-256 256 114.615 256 256zM480 64h64v128h-64V64zm0 768h64v128h-64V832zm352-352h128v64H832v-64zm-768 0h128v64H64v-64zm651.645-213.036l90.509-90.509 45.254 45.254-90.509 90.509-45.254-45.254zM172.579 802.291l90.509-90.509 45.254 45.254-90.509 90.509-45.254-45.254zm539.196-41.385l45.254-45.254 90.509 90.509-45.254 45.254-90.509-90.509zM176.449 217.84l45.254-45.254 90.509 90.509-45.254 45.254-90.509-90.509z"/></svg>