<svg width="64" height="64" viewBox="0 0 1024 1024" xmlns="http://www.w3.org/2000/svg"><path d="M704 448v-64h64v64h64v64h-64v64h-64v-64h-64v-64h64zM64 128h896v768H64V128zm64 192v512h768V320H128zm480-64c17.673 0 32-14.327 32-32s-14.327-32-32-32c-17.673 0-32 14.327-32 32s14.327 32 32 32zm128 0c17.673 0 32-14.327 32-32s-14.327-32-32-32c-17.673 0-32 14.327-32 32s14.327 32 32 32zm128 0c17.673 0 32-14.327 32-32s-14.327-32-32-32c-17.673 0-32 14.327-32 32s14.327 32 32 32zM256 448h64v64h-64v-64zm448 192h64v64h-64v-64zm-448 64h64v64h-64v-64zm128 0h64v64h-64v-64zm0-256h64v64h-64v-64zm128 0h64v64h-64v-64zm128 256h64v64h-64v-64zm-128 0h64v64h-64v-64zM256 576h64v64h-64v-64z"/></svg>