<?xml version="1.0" encoding="utf-8"?>
<svg width="1792" height="1792" xmlns="http://www.w3.org/2000/svg"><path d="M832 1024v-64h64v64h64v64h-64v64h-64v-64h-64v-64h64zM192 704h896v768H192V704zm64 192v512h768V896H256zm480-64c17.673 0 32-14.327 32-32s-14.327-32-32-32c-17.673 0-32 14.327-32 32s14.327 32 32 32zm128 0c17.673 0 32-14.327 32-32s-14.327-32-32-32c-17.673 0-32 14.327-32 32s14.327 32 32 32zm128 0c17.673 0 32-14.327 32-32s-14.327-32-32-32c-17.673 0-32 14.327-32 32s14.327 32 32 32zm-608 192h64v64h-64v-64zm448 192h64v64h-64v-64zm-448 64h64v64h-64v-64zm128 0h64v64h-64v-64zm0-256h64v64h-64v-64zm128 0h64v64h-64v-64zm128 256h64v64h-64v-64zm-128 0h64v64h-64v-64zm-256-128h64v64h-64v-64z" fill="undefined"/></svg>