<svg width="64" height="64" viewBox="0 0 1024 1024" xmlns="http://www.w3.org/2000/svg"><path d="M563.2 307.2c0 28.277-22.923 51.2-51.2 51.2s-51.2-22.923-51.2-51.2c0-28.277 22.923-51.2 51.2-51.2s51.2 22.923 51.2 51.2zM512 32C249.6 32 32 249.6 32 512s217.6 480 480 480 480-217.6 480-480S774.4 32 512 32zM102.4 512c0-224 179.2-409.6 409.6-409.6 115.2 0 204.8 89.6 204.8 204.8S627.2 512 512 512s-204.8 89.6-204.8 204.8S396.8 921.6 512 921.6C288 921.6 102.4 736 102.4 512zm460.8 204.8c0 25.6-19.2 51.2-51.2 51.2s-51.2-25.6-51.2-51.2c0-32 25.6-51.2 51.2-51.2s51.2 19.2 51.2 51.2z"/></svg>