<?xml version="1.0" encoding="utf-8"?>
<svg width="1792" height="1792" xmlns="http://www.w3.org/2000/svg"><path d="M691.2 883.2c0 28.277-22.923 51.2-51.2 51.2s-51.2-22.923-51.2-51.2c0-28.277 22.923-51.2 51.2-51.2s51.2 22.923 51.2 51.2zM640 608c-262.4 0-480 217.6-480 480s217.6 480 480 480 480-217.6 480-480-217.6-480-480-480zm-409.6 480c0-224 179.2-409.6 409.6-409.6 115.2 0 204.8 89.6 204.8 204.8S755.2 1088 640 1088s-204.8 89.6-204.8 204.8 89.6 204.8 204.8 204.8c-224 0-409.6-185.6-409.6-409.6zm460.8 204.8c0 25.6-19.2 51.2-51.2 51.2s-51.2-25.6-51.2-51.2c0-32 25.6-51.2 51.2-51.2s51.2 19.2 51.2 51.2z" fill="undefined"/></svg>