<svg width="64" height="64" viewBox="0 0 1792 1792" xmlns="http://www.w3.org/2000/svg"><path d="M230.4 921.6l-57.6 89.6 108.8 64s70.4 38.4 38.4 102.4-185.6 204.8-185.6 204.8l140.8 89.6c96-211.2 89.6-179.2 115.2-256 19.2-70.4 19.2-128-19.2-172.8-57.6-51.2-64-57.6-140.8-121.6zm358.4-108.8l32-64-128-38.4S441.6 876.8 345.6 960l89.6 51.2c25.6-25.6 51.2-51.2 70.4-76.8 19.2-6.4 38.4-19.2 57.6-25.6-25.6 44.8-64 108.8-102.4 147.2l51.2 44.8 76.8-76.8H640v76.8H460.8v64H640v153.6h-6.4c-19.2 0-51.2-6.4-64-25.6-12.8-25.6-6.4-64-6.4-89.6H441.6s-44.8 204.8 128 198.4c166.4 6.4 262.4-44.8 307.2-83.2l19.2 70.4 102.4-44.8-70.4-166.4-83.2 25.6 12.8 57.6c-19.2 12.8-44.8 25.6-70.4 38.4v-134.4H960v-64H787.2V1024h179.2v-64H652.8c19.2-25.6 38.4-51.2 44.8-64L640 876.8c236.8-83.2 364.8-70.4 364.8 70.4V1312s12.8 121.6-128 115.2L800 1408l-19.2 70.4s332.8 96 358.4-160-6.4-416-6.4-416-25.6-236.8-544-89.6zm-281.6 76.8c51.2 0 89.6-38.4 89.6-89.6s-38.4-89.6-89.6-89.6-96 38.4-96 89.6c0 51.2 44.8 89.6 96 89.6z"/></svg>