<?xml version="1.0" encoding="utf-8"?>
<svg width="1792" height="1792" xmlns="http://www.w3.org/2000/svg"><path d="M408.327 979.2H282.42c-26.009 0-26.42 26.525-26.42 26.525l26.009 437.187c0 27.808 26.83 27.808 26.83 27.808h108.982c22.704 0 22.499-18.395 22.499-18.395v-439.973c0-33.579-31.993-33.152-31.993-33.152zm230.036-264.834c8.515-29.663 33.391-47.796 75.755-47.603 15.778 1.797 36.352 10.214 55.986 29.842 47.141 47.127 61.532 134.203 31.175 270.195h194.956c20.658 0 39.177 14.537 42.857 34.985.512 2.441 1.06 5.851 1.554 10.277 5.185 46.424-2.146 121.551-31.093 230.598-3.981 14.997-12.45 40.254-24.386 73.539-1.299 3.619-1.299 3.619-2.601 7.229-6.236 17.271-12.91 35.352-19.583 53.163a4214.04 4214.04 0 0 1-8.842 23.424c-16.124 43.081-63.89 76.149-109.837 76.149H548.321c-33.733 0-60.378-26.313-60.378-59.51V981.838l11.983-9.01c3.827-2.878 11.065-8.815 20.561-17.474 16.013-14.6 32.05-31.274 46.965-49.644 41.543-51.166 66.076-104.919 66.076-158.03v-7.865l1.34-2.382c.699-10.619 1.275-15.336 3.494-23.066zM979.882 1011.8c.091.625.208 1.234.349 1.827l-.349-1.827zm-192.215 15.059c-35.183 0-56.418-27.426-53.679-37.739 36.974-139.192 27.203-216.502-6.345-250.041-8.981-8.978-17.021-12.268-16.921-12.45-12.556 0-13.615.772-14.63 4.308-.657 2.289-.902 4.406-1.337 11.128-.324 5.001-.592 8.293-1.23 11.154-1.558 67.098-31.32 131.076-79.445 190.348-16.932 20.853-35.016 39.656-53.125 56.167a490.524 490.524 0 0 1-12.951 11.418v404.998c.067-.028 296.302-.046 296.302-.046 20.916 0 46.251-17.539 53.658-37.327a4192.47 4192.47 0 0 0 8.778-23.257c6.595-17.603 13.189-35.468 19.335-52.49 1.28-3.549 1.28-3.549 2.556-7.103 11.356-31.669 19.475-55.882 22.871-68.676 25.324-95.399 32.777-160.785 30.168-200.392H787.665z" fill="undefined"/></svg>