<svg width="64" height="64" viewBox="0 0 1792 1792" xmlns="http://www.w3.org/2000/svg"><path d="M408.327 979.2s31.993-.427 31.993 33.152v439.973s.205 18.395-22.499 18.395H308.839s-26.83 0-26.83-27.808L256 1005.725s.411-26.525 26.42-26.525h125.907zm617.321 24.091s15.78 66.243-30.979 242.392c-10.913 41.112-58.088 164.674-58.088 164.674-12.521 33.455-51.509 60.363-87.075 60.363H534.1c-18.627 0-32.34-14.065-32.34-31.415V991.931s155.138-116.644 155.138-265.5c4.372-7.774-7.647-54.432 50.257-54.432 0 0 136.574 15.551 55.721 319.932h248.53c7.141 0 13.332 5.086 14.242 11.359z"/></svg>