<svg width="64" height="64" viewBox="0 0 1024 1024" xmlns="http://www.w3.org/2000/svg"><path d="M874.823 249.145l-51.797 37.591C751.167 187.719 636.633 128 512.001 128c-212.077 0-384 171.923-384 384s171.923 384 384 384v64c-247.424 0-448-200.576-448-448s200.576-448 448-448c149.222 0 281.404 72.956 362.823 185.145zM512 960c23.151 0 46.092-1.759 68.686-5.237l-9.738-63.255A387.164 387.164 0 0 1 512.001 896v64zm136.227-21.097a445.266 445.266 0 0 0 63.882-25.977l-28.623-57.243a381.333 381.333 0 0 1-54.702 22.244l19.442 60.975zm126.127-63.721a450.235 450.235 0 0 0 52.571-44.551l-44.991-45.517a386.224 386.224 0 0 1-45.097 38.217l37.517 51.851zm97.144-95.809a448.217 448.217 0 0 0 36.806-58.275l-56.581-29.91a384.377 384.377 0 0 1-31.552 49.955l51.326 38.231zm65.89-126.483a445.195 445.195 0 0 0 16.533-66.943l-63.134-10.492a381.183 381.183 0 0 1-14.156 57.322l60.757 20.113zm22.498-130.67c.094-5.014.094-5.014.114-10.045 0-19.898-1.276-39.494-3.815-58.875l-63.458 8.311A388.567 388.567 0 0 1 896 512.163c-.018 4.314-.018 4.314-.098 8.623l63.984 1.434zm-18.001-136.71a445.056 445.056 0 0 0-24.509-64.46l-57.881 27.309a381.046 381.046 0 0 1 20.986 55.192l61.405-18.041zm-60.613-127.236l-52.719 36.287a385.623 385.623 0 0 0-21.366-28.18l49.173-40.964a449.52 449.52 0 0 1 24.912 32.857zm-400.349-2.702l64.792.562v274.731l187.554 108.597-31.914 53.994-220.432-127.61V255.571z"/></svg>