<?xml version="1.0" encoding="utf-8"?>
<svg width="1792" height="1792" xmlns="http://www.w3.org/2000/svg"><path d="M1049.6 819.2c-12.8-6.4-19.2-6.4-25.6-6.4s-12.8 0-25.6 6.4c-6.4 6.4-12.8 6.4-19.2 12.8l-12.8 12.8-6.4 6.4c-12.8 19.2-25.6 32-38.4 38.4-6.4 6.4-19.2 19.2-38.4 32s-32 25.6-51.2 25.6c-19.2 6.4-38.4 6.4-57.6 6.4H499.2c-19.2 12.8-32 12.8-51.2 6.4s-32-12.8-44.8-19.2c-6.4-6.4-19.2-12.8-38.4-32l-25.6-25.6c-6.4-6.4-19.2-19.2-32-38.4-6.4-6.4-12.8-12.8-32-25.6-12.8-6.4-32-6.4-44.8 0-25.6 19.2-38.4 57.6-38.4 115.2v211.2c0 25.6 6.4 44.8 19.2 51.2 6.4 12.8 25.6 19.2 44.8 19.2h768c19.2 0 32-6.4 44.8-19.2s19.2-32 19.2-51.2V940.8c0-64-12.8-102.4-38.4-121.6zm-691.2 352c-25.6-6.4-44.8-19.2-64-32-19.2-19.2-25.6-38.4-25.6-64s12.8-51.2 32-70.4c19.2-19.2 44.8-32 70.4-32-6.4 0-12.8 12.8-19.2 32-12.8 19.2-19.2 38.4-19.2 64 0 51.2 12.8 83.2 25.6 102.4zm83.2-32c-19.2 12.8-38.4 25.6-64 32 6.4-6.4 12.8-19.2 12.8-38.4 6.4-19.2 6.4-38.4 6.4-64s0-51.2-6.4-70.4c-6.4-12.8-12.8-25.6-19.2-25.6 25.6 0 51.2 12.8 70.4 32s25.6 44.8 25.6 70.4c0 19.2-6.4 44.8-25.6 64zm172.8-83.2s6.4-6.4 12.8-6.4h38.4c6.4 0 12.8 0 12.8 6.4v6.4l-19.2 12.8-12.8 19.2h-12.8l-6.4-6.4-6.4-6.4-6.4-6.4-6.4-12.8s0-6.4 6.4-6.4zm134.4 128c-6.4 6.4-12.8 12.8-25.6 12.8h-44.8c-12.8-6.4-25.6-12.8-32-25.6s-6.4 0-6.4 0h-6.4c-6.4 12.8-19.2 19.2-32 25.6s-25.6 6.4-38.4 0c-12.8 0-19.2-6.4-25.6-12.8v-12.8c6.4 6.4 12.8 6.4 19.2 12.8 12.8 6.4 19.2 6.4 32 0 12.8 0 25.6-6.4 32-19.2 6.4-6.4 6.4-19.2 6.4-25.6V1120h19.2v19.2s0 6.4 6.4 12.8c0 6.4 0 12.8 6.4 12.8 6.4 12.8 19.2 19.2 32 19.2h32c12.8 0 19.2-6.4 19.2-12.8l6.4 12.8zm153.6-12.8c-25.6-6.4-44.8-12.8-64-32s-25.6-38.4-25.6-64 12.8-51.2 32-70.4 44.8-32 70.4-32c-6.4 0-19.2 12.8-19.2 32-6.4 19.2-6.4 38.4-6.4 70.4-6.4 44.8 0 76.8 12.8 96zm83.2-32c-19.2 19.2-38.4 32-64 32 6.4-6.4 12.8-19.2 19.2-38.4s6.4-38.4 6.4-64 0-51.2-6.4-70.4-12.8-32-19.2-32c25.6 0 51.2 12.8 70.4 32s25.6 44.8 25.6 70.4c-6.4 25.6-12.8 51.2-32 70.4z" fill="undefined"/></svg>