<?xml version="1.0" encoding="utf-8"?>
<svg width="1792" height="1792" xmlns="http://www.w3.org/2000/svg"><path d="M832 1445.173h192V797.256h-64v-64.792h128v777.5H832v-64.792zm-128 0h64v64.792h-64v-64.792zM192 704.415h256v64.792H256v647.917h64v64.792H192v-777.5zm322.551 0h64v64.792h-64v-64.792zm-42.264 707.832l-59.226-59.226-45.255 45.255L505.25 1535.72l45.255-45.255-.806-.806 90.484-90.484-45.815-45.815-58.082 58.082v-299.788h-64v300.593zm332.605-585.789l60.656 60.656 45.255-45.255-137.444-137.444-45.255 45.255.375.375-90.559 90.559 45.815 45.815 57.157-57.157v322.86h64V826.458z" fill="undefined"/></svg>