<svg width="64" height="64" viewBox="0 0 1024 1024" xmlns="http://www.w3.org/2000/svg"><path d="M704 869.173h192V221.256h-64v-64.792h128v777.5H704v-64.792zm-128 0h64v64.792h-64v-64.792zM64 128.415h256v64.792H128v647.917h64v64.792H64v-777.5zm322.551 0h64v64.792h-64v-64.792zm-42.264 707.832l-59.226-59.226-45.255 45.255L377.25 959.72l45.255-45.255-.806-.806 90.484-90.484-45.815-45.815-58.082 58.082V535.654h-64v300.593zm332.605-585.789l60.656 60.656 45.255-45.255-137.444-137.444-45.255 45.255.375.375-90.559 90.559 45.815 45.815 57.157-57.157v322.86h64V250.458z"/></svg>