<svg width="64" height="64" viewBox="0 0 1024 1024" xmlns="http://www.w3.org/2000/svg"><path d="M896 512L768 384H640V256H128v576h96c0 51.2 44.8 96 96 96s96-44.8 96-96h256c0 51.2 44.8 96 96 96s96-44.8 96-96h96V576l-64-64zM320 864c-19.2 0-32-12.8-32-32s12.8-32 32-32 32 12.8 32 32-12.8 32-32 32zm256-480v384H390.4c-19.2-19.2-44.8-32-70.4-32s-51.2 12.8-70.4 32H192V320h384v64zm192 480c-19.2 0-32-12.8-32-32s12.8-32 32-32 32 12.8 32 32-12.8 32-32 32zm128-96h-57.6c-19.2-19.2-44.8-32-70.4-32s-51.2 12.8-70.4 32H640V448h102.4l64 64H704v64h166.4l25.6 25.6V768z"/></svg>