<svg width="64" height="64" viewBox="0 0 1792 1792" xmlns="http://www.w3.org/2000/svg"><path d="M1024 1088L896 960H768V832H256v576h96c0 51.2 44.8 96 96 96s96-44.8 96-96h256c0 51.2 44.8 96 96 96s96-44.8 96-96h96v-256l-64-64zm-576 352c-19.2 0-32-12.8-32-32s12.8-32 32-32 32 12.8 32 32-12.8 32-32 32zm256-480v384H518.4c-19.2-19.2-44.8-32-70.4-32s-51.2 12.8-70.4 32H320V896h384v64zm192 480c-19.2 0-32-12.8-32-32s12.8-32 32-32 32 12.8 32 32-12.8 32-32 32zm128-96h-57.6c-19.2-19.2-44.8-32-70.4-32s-51.2 12.8-70.4 32H768v-320h102.4l64 64H832v64h166.4l25.6 25.6V1344z"/></svg>