<svg width="64" height="64" viewBox="0 0 1792 1792" xmlns="http://www.w3.org/2000/svg"><path d="M1049.6 908.8v25.6c0 281.6-211.2 601.6-601.6 601.6-121.6 0-230.4-32-320-96h51.2c96 0 185.6-32 262.4-89.6-89.6 0-166.4-64-198.4-147.2 12.8 0 25.6 6.4 38.4 6.4 19.2 0 38.4 0 57.6-6.4-96-19.2-172.8-102.4-172.8-204.8 32 12.8 64 25.6 96 25.6-57.6-38.4-89.6-102.4-89.6-172.8 0-38.4 12.8-76.8 25.6-108.8 102.4 128 256 211.2 435.2 217.6-6.4-12.8-6.4-32-6.4-44.8 0-115.2 96-211.2 211.2-211.2 57.6 0 115.2 25.6 153.6 64 44.8-6.4 96-25.6 134.4-51.2-12.8 51.2-51.2 89.6-89.6 115.2 38.4 0 76.8-12.8 115.2-32-25.6 44.8-64 83.2-102.4 108.8z"/></svg>