<svg width="64" height="64" viewBox="0 0 1792 1792" xmlns="http://www.w3.org/2000/svg"><path d="M928 928c-12.8-147.2-140.8-256-288-256S371.2 787.2 352 928c-108.8 12.8-192 108.8-192 224 0 121.6 102.4 224 224 224h512c121.6 0 224-102.4 224-224 0-115.2-83.2-204.8-192-224zm-32 384H672v-275.2l134.4 134.4 44.8-44.8L640 915.2l-217.6 211.2 44.8 44.8 134.4-134.4V1312H384c-89.6 0-160-70.4-160-160s70.4-160 160-160h32v-32c0-121.6 102.4-224 224-224s224 102.4 224 224v32h32c89.6 0 160 70.4 160 160s-70.4 160-160 160z"/></svg>