<svg width="64" height="64" viewBox="0 0 1024 1024" xmlns="http://www.w3.org/2000/svg"><path d="M800 352C787.2 204.8 659.2 96 512 96S243.2 211.2 224 352C115.2 364.8 32 460.8 32 576c0 121.6 102.4 224 224 224h512c121.6 0 224-102.4 224-224 0-115.2-83.2-204.8-192-224zm-32 384H544V460.8l134.4 134.4 44.8-44.8L512 339.2 294.4 550.4l44.8 44.8 134.4-134.4V736H256c-89.6 0-160-70.4-160-160s70.4-160 160-160h32v-32c0-121.6 102.4-224 224-224s224 102.4 224 224v32h32c89.6 0 160 70.4 160 160s-70.4 160-160 160z"/></svg>