<?xml version="1.0" encoding="utf-8"?>
<svg width="1792" height="1792" xmlns="http://www.w3.org/2000/svg"><path d="M192 704h128v64h-64v64h-64V704zm768 0h128v128h-64v-64h-64v-64zm-768 640h64v64h64v64H192v-128zm832 64v-64h64v128H960v-64h64zM288 800h704v576H288V800zm64 512h576V864H352v448zm288-288c-35.346 0-64-28.654-64-64s28.654-64 64-64c35.346 0 64 28.654 64 64s-28.654 64-64 64zm0 236.915l-64-197.004h128l-64 197.004zm-80.184-196.775l64 196.703h-128l64-196.703zm159.5-.078l64 196.703h-128l64-196.703z" fill="undefined"/></svg>