<svg width="64" height="64" viewBox="0 0 1024 1024" xmlns="http://www.w3.org/2000/svg"><path d="M0 360.594v-214.4c0-39.109 30.695-71.049 69.308-73.044l.178-.007h515.657l.306-.001c13.861 0 26.416 5.587 35.537 14.633l385.46 385.46c11.55 11.631 18.688 27.656 18.688 45.349s-7.138 33.717-18.692 45.352l.004-.004-372.297 371.566c-9.117 9.042-21.673 14.63-35.534 14.63l-.323-.001H69.486C30.916 948.138.351 916.552.001 877.75V658.287h512l138.24-134.583c2.285-2.365 3.692-5.589 3.692-9.143s-1.408-6.778-3.696-9.147l.004.004-138.24-134.583h-512z"/></svg>