<svg width="64" height="64" viewBox="0 0 1792 1792" xmlns="http://www.w3.org/2000/svg"><path d="M128 936.594V722.285v-.091c0-39.109 30.695-71.049 69.308-73.044l.178-.007h515.657l.306-.001c13.861 0 26.416 5.587 35.537 14.633l385.46 385.46c11.55 11.631 18.688 27.656 18.688 45.349s-7.138 33.717-18.692 45.352l.004-.004-372.297 371.566c-9.117 9.042-21.673 14.63-35.534 14.63l-.323-.001H197.486c-38.57-1.989-69.135-33.575-69.485-72.377v-219.463h512l138.24-134.583c2.285-2.365 3.692-5.589 3.692-9.143s-1.408-6.778-3.696-9.147l.004.004-138.24-134.583h-512z"/></svg>