<svg width="64" height="64" viewBox="0 0 1024 1024" xmlns="http://www.w3.org/2000/svg"><path d="M998.4 185.6C960 140.8 883.2 134.4 832 147.2c-44.8 6.4-192 70.4-243.2 230.4 89.6-6.4 134.4 6.4 128 102.4-6.4 44.8-25.6 83.2-44.8 128-25.6 51.2-76.8 147.2-140.8 76.8-57.6-64-57.6-185.6-70.4-262.4-12.8-51.2-19.2-102.4-32-153.6-12.8-38.4-44.8-83.2-76.8-96-38.4-12.8-89.6 6.4-115.2 19.2C147.2 249.6 89.6 320 0 384v6.4c32 12.8 19.2 38.4 44.8 44.8 51.2 6.4 102.4-51.2 134.4 6.4 19.2 38.4 25.6 76.8 38.4 115.2 19.2 51.2 32 108.8 51.2 166.4 25.6 102.4 57.6 256 147.2 294.4 44.8 19.2 115.2-6.4 147.2-25.6 89.6-57.6 166.4-134.4 224-217.6 140.8-192 217.6-409.6 230.4-467.2 12.8-44.8 6.4-89.6-19.2-121.6z"/></svg>