<svg width="64" height="64" viewBox="0 0 1792 1792" xmlns="http://www.w3.org/2000/svg"><path d="M1024 1088c0-108.8-51.2-204.8-128-268.8V640H448v179.2c-76.8 64-128 160-128 268.8s51.2 204.8 128 268.8V1536h448v-179.2c76.8-64 128-160 128-268.8zM512 704h320v70.4C780.8 748.8 729.6 736 672 736s-108.8 12.8-160 38.4V704zm-128 384c0-160 128-288 288-288s288 128 288 288-128 288-288 288-288-128-288-288zm448 384H512v-70.4c51.2 25.6 102.4 38.4 160 38.4s108.8-12.8 160-38.4v70.4zm64-384v-64H704V832h-64v256h64z"/></svg>