<svg width="64" height="64" viewBox="0 0 1024 1024" xmlns="http://www.w3.org/2000/svg"><path d="M896 448c0-211.2-172.8-384-384-384S128 236.8 128 448c0 198.4 153.6 364.8 352 384v64H320v64h384v-64H544v-64c198.4-19.2 352-185.6 352-384zM512 128c153.6 0 281.6 108.8 313.6 256h-64C736 275.2 633.6 192 512 192v-64zm0 192c70.4 0 128 57.6 128 128s-57.6 128-128 128-128-57.6-128-128 57.6-128 128-128zM192 448h128c0 108.8 83.2 192 192 192s192-83.2 192-192h128c0 179.2-140.8 320-320 320S192 627.2 192 448z"/></svg>