<svg width="64" height="64" viewBox="0 0 1024 1024" xmlns="http://www.w3.org/2000/svg"><path d="M896 448c0-211.2-172.8-384-384-384S128 236.8 128 448c0 198.4 153.6 364.8 352 384v64H320v64h384v-64H544v-64c198.4-19.2 352-185.6 352-384zM512 128c166.4 0 300.8 128 313.6 288h-128C684.8 326.4 608 256 512 256s-172.8 70.4-185.6 160h-128C211.2 256 345.6 128 512 128zm128 320c0 70.4-57.6 128-128 128s-128-57.6-128-128 57.6-128 128-128 128 57.6 128 128zm-441.6 32h128C339.2 569.6 416 640 512 640s172.8-70.4 185.6-160h128C812.8 640 678.4 768 512 768S211.2 640 198.4 480z"/></svg>