<svg width="64" height="64" viewBox="0 0 1792 1792" xmlns="http://www.w3.org/2000/svg"><path d="M1024 1024c0-211.2-172.8-384-384-384s-384 172.8-384 384c0 198.4 153.6 364.8 352 384v64H448v64h384v-64H672v-64c198.4-19.2 352-185.6 352-384zM640 704c153.6 0 281.6 108.8 313.6 256h-64C864 851.2 761.6 768 640 768v-64zm0 192c70.4 0 128 57.6 128 128s-57.6 128-128 128-128-57.6-128-128 57.6-128 128-128zm-320 128h128c0 108.8 83.2 192 192 192s192-83.2 192-192h128c0 179.2-140.8 320-320 320s-320-140.8-320-320z"/></svg>