<?xml version="1.0" encoding="utf-8"?>
<svg width="1792" height="1792" xmlns="http://www.w3.org/2000/svg"><path d="M1024 1024c0-211.2-172.8-384-384-384s-384 172.8-384 384c0 198.4 153.6 364.8 352 384v64H448v64h384v-64H672v-64c198.4-19.2 352-185.6 352-384zM640 704c166.4 0 300.8 128 313.6 288h-128C812.8 902.4 736 832 640 832s-172.8 70.4-185.6 160h-128C339.2 832 473.6 704 640 704zm128 320c0 70.4-57.6 128-128 128s-128-57.6-128-128 57.6-128 128-128 128 57.6 128 128zm-441.6 32h128c12.8 89.6 89.6 160 185.6 160s172.8-70.4 185.6-160h128c-12.8 160-147.2 288-313.6 288s-300.8-128-313.6-288z" fill="undefined"/></svg>