<svg width="64" height="64" viewBox="0 0 1024 1024" xmlns="http://www.w3.org/2000/svg"><path d="M371.2 582.4c-89.6 12.8-153.6 83.2-140.8 153.6S320 857.6 409.6 844.8C492.8 832 556.8 768 550.4 691.2c-12.8-70.4-89.6-121.6-179.2-108.8zm-25.6 204.8c-32 6.4-57.6-12.8-64-38.4s19.2-51.2 51.2-51.2c32-6.4 57.6 12.8 64 38.4 0 25.6-19.2 44.8-51.2 51.2zm76.8-83.2c-12.8 6.4-25.6 0-25.6-12.8s6.4-19.2 19.2-25.6 25.6 0 25.6 12.8c6.4 12.8-6.4 25.6-19.2 25.6zM832 460.8h12.8c12.8 0 25.6-6.4 32-19.2s12.8-32 12.8-51.2c0-70.4-57.6-128-128-128-19.2 0-32 6.4-51.2 12.8s-25.6 32-19.2 44.8c6.4 19.2 32 25.6 44.8 19.2 6.4 0 12.8-6.4 19.2-6.4 32 0 57.6 25.6 57.6 57.6 0 6.4 0 12.8-6.4 19.2-6.4 25.6 6.4 44.8 25.6 51.2zm-89.6 57.6c6.4-12.8 6.4-19.2 6.4-19.2 64-121.6-102.4-160-198.4-108.8-89.6 51.2-44.8-38.4-44.8-38.4C524.8 192 352 262.4 352 262.4-38.4 480 0 697.6 0 697.6c0 121.6 185.6 256 428.8 256 313.6 0 492.8-185.6 460.8-320-12.8-57.6-76.8-102.4-147.2-115.2zM384 889.6c-204.8 0-275.2-108.8-275.2-185.6 0-121.6 160-211.2 313.6-211.2s262.4 64 288 153.6c32 121.6-128 243.2-326.4 243.2zM761.6 128c-25.6 0-44.8 0-64 6.4s-32 25.6-25.6 44.8c6.4 19.2 25.6 32 44.8 25.6 12.8-6.4 32-6.4 51.2-6.4 108.8 0 192 89.6 192 192 0 25.6-6.4 44.8-12.8 64s0 38.4 19.2 44.8h12.8c12.8 0 32-6.4 32-25.6 6.4-19.2 12.8-51.2 12.8-83.2C1024 249.6 902.4 128 761.6 128z"/></svg>