<?xml version="1.0" encoding="utf-8"?>
<svg width="1792" height="1792" xmlns="http://www.w3.org/2000/svg"><path d="M499.2 1209.6c0 6.4-6.4 6.4-12.8 6.4-12.8 0-25.6-6.4-32-19.2v-6.4l-96-198.4v-6.4c0-6.4 6.4-19.2 19.2-19.2h12.8l108.8 76.8c0 6.4 12.8 12.8 25.6 12.8H544l518.4-230.4C966.4 710.4 812.8 640 640 640c-281.6 0-512 192-512 428.8 0 128 70.4 243.2 179.2 320 6.4 6.4 12.8 12.8 12.8 25.6v12.8c-6.4 32-19.2 83.2-25.6 83.2v12.8c0 6.4 6.4 19.2 19.2 19.2h12.8l115.2-64c0-6.4 6.4-12.8 19.2-12.8h12.8c51.2 12.8 108.8 25.6 166.4 25.6 281.6 0 512-192 512-428.8 0-70.4-19.2-140.8-57.6-198.4l-595.2 345.6z" fill="undefined"/></svg>