<svg width="64" height="64" viewBox="0 0 1024 1024" xmlns="http://www.w3.org/2000/svg"><path d="M691.2 358.4h32c-32-147.2-185.6-256-364.8-256C166.4 108.8 0 243.2 0 416c0 102.4 51.2 179.2 147.2 243.2L108.8 768l128-64c44.8 6.4 83.2 19.2 128 19.2h32c-6.4-25.6-12.8-51.2-12.8-76.8 0-160 134.4-288 307.2-288zm-192-96c25.6 0 44.8 19.2 44.8 44.8S524.8 352 499.2 352c-25.6 0-57.6-19.2-57.6-44.8s32-44.8 57.6-44.8zm-256 89.6c-25.6 0-51.2-19.2-51.2-44.8s25.6-44.8 57.6-44.8c25.6 0 44.8 19.2 44.8 44.8-6.4 25.6-25.6 44.8-51.2 44.8zM1024 640c0-147.2-147.2-262.4-307.2-262.4-172.8 0-307.2 115.2-307.2 262.4S544 902.4 716.8 902.4c38.4 0 70.4-6.4 108.8-19.2L928 940.8l-32-89.6c76.8-51.2 128-128 128-211.2zm-409.6-44.8c-19.2 0-38.4-19.2-38.4-38.4s19.2-38.4 38.4-38.4c25.6 0 44.8 19.2 44.8 38.4 0 25.6-12.8 38.4-44.8 38.4zm198.4 0c-19.2 0-38.4-19.2-38.4-38.4s19.2-38.4 38.4-38.4c25.6 0 44.8 19.2 44.8 38.4 6.4 25.6-12.8 38.4-44.8 38.4z"/></svg>