<?xml version="1.0" encoding="utf-8"?>
<svg width="1792" height="1792" xmlns="http://www.w3.org/2000/svg"><path d="M640 881.428c-193.484 0-335.807 104.753-335.807 104.753L192 823.863c131.787-76.232 284.793-119.862 447.989-119.862 163.229 0 316.264 43.648 448.069 119.909L974.57 986.182S833.484 881.429 640 881.429zm0 294.212c-98.2 0-168.369 52.784-168.369 52.784l-100.674-145.652S483.139 999.116 640 999.116s268.969 83.656 268.969 83.656L808.25 1228.424S738.199 1175.64 640 1175.64zm-.011 296.36l-99.837-144.442s39.223-31.671 99.848-31.671 99.322 31.671 99.322 31.671C705.946 1375.833 639.989 1472 639.989 1472z" fill="undefined"/></svg>