<svg width="64" height="64" viewBox="0 0 1792 1792" xmlns="http://www.w3.org/2000/svg"><path d="M1152 1088c0 281.6-230.4 512-512 512s-512-230.4-512-512 230.4-512 512-512 512 230.4 512 512zm-25.6 0c0-268.8-217.6-486.4-486.4-486.4S153.6 819.2 153.6 1088s217.6 486.4 486.4 486.4 486.4-217.6 486.4-486.4zM236.8 908.8l211.2 576c-147.2-70.4-249.6-224-249.6-396.8 0-64 12.8-121.6 38.4-179.2zm665.6 300.8l-44.8 147.2-160-473.6s25.6 0 51.2-6.4c25.6 0 19.2-38.4 0-38.4-70.4 6.4-115.2 6.4-115.2 6.4s-44.8 0-115.2-6.4c-25.6 0-25.6 32 0 38.4 19.2 0 44.8 6.4 44.8 6.4l70.4 185.6-96 288-166.4-473.6s25.6 0 51.2-6.4c25.6 0 19.2-38.4 0-38.4-76.8 6.4-121.6 6.4-121.6 6.4h-25.6C352 729.6 486.4 646.4 640 646.4c115.2 0 217.6 44.8 294.4 115.2H928c-44.8 0-76.8 38.4-76.8 76.8s19.2 64 44.8 102.4c19.2 32 38.4 64 38.4 121.6 0 38.4-12.8 83.2-32 147.2zm-121.6 288s6.4 0 0 0c-44.8 19.2-89.6 32-140.8 32-44.8 0-83.2-6.4-121.6-19.2l134.4-384 128 371.2zm300.8-409.6c0 160-89.6 300.8-217.6 377.6l134.4-390.4c19.2-64 32-115.2 32-160 0-12.8 0-32-6.4-44.8 38.4 70.4 57.6 140.8 57.6 217.6z"/></svg>