<svg width="64" height="64" viewBox="0 0 1792 1792" xmlns="http://www.w3.org/2000/svg"><path d="M1152 1056c-12.8-256-224-460.8-480-480h-64c-256 19.2-460.8 224-480 480v64c12.8 256 224 460.8 480 480h64c256-12.8 460.8-224 480-480v-64zm-224 0c-6.4-64-19.2-134.4-44.8-192H1024v-6.4c32 57.6 57.6 128 64 198.4H928zM608 800h-96c25.6-38.4 57.6-70.4 96-96v96zm64-96c38.4 25.6 70.4 57.6 96 96h-96v-96zm-64 160v192H416c6.4-70.4 25.6-134.4 57.6-192H608zm0 256v192H473.6c-32-57.6-51.2-121.6-57.6-192h192zm0 256v96c-38.4-25.6-70.4-57.6-96-96h96zm64 0h96c-25.6 38.4-57.6 70.4-96 96v-96zm0-64v-192h192c-6.4 70.4-25.6 134.4-57.6 192H672zm0-256V864h134.4c32 57.6 51.2 121.6 57.6 192H672zm313.6-256H844.8c-38.4-57.6-89.6-115.2-147.2-153.6 115.2 12.8 211.2 70.4 288 153.6zM582.4 646.4c-57.6 38.4-108.8 96-147.2 153.6H294.4c76.8-83.2 172.8-140.8 288-153.6zM256 857.6l147.2 6.4c-25.6 57.6-44.8 128-44.8 192H192c6.4-70.4 32-140.8 64-198.4zm96 262.4c6.4 64 19.2 134.4 44.8 192H256v6.4c-32-57.6-57.6-128-64-198.4h160zm-57.6 256h140.8c38.4 57.6 89.6 115.2 147.2 153.6-115.2-12.8-211.2-70.4-288-153.6zm403.2 153.6c57.6-44.8 108.8-96 147.2-153.6h140.8c-76.8 83.2-172.8 140.8-288 153.6zm326.4-211.2l-147.2-6.4c25.6-57.6 44.8-128 44.8-192H1088c-6.4 70.4-32 140.8-64 198.4z"/></svg>