<svg width="64" height="64" viewBox="0 0 1024 1024" xmlns="http://www.w3.org/2000/svg"><path d="M111.561 294.542l73.389-61.581 82.277 98.054 65.652 28.458 48.811-40.957-16.409-69.777-82.277-98.054 73.464-61.644 57.374-.319 139.657 85.628 106.232 126.602-20.939 174.179 186.899 222.738 57.763 118.623-147.081 123.415-106.866-77.421-186.899-222.738-175.093-9.689-106.232-126.602-60.195-152.305 10.47-56.609zm0 0l62.933 11.64-10.47 56.609-62.933-11.64 59.52-23.524 56.377 142.647 81.74 97.414 175.093 9.689 199.636 237.916 60.031 43.49 70.551-59.2-32.437-66.613-199.66-237.946 20.939-174.179-81.711-97.38-130.778-80.184 33.453-54.561.356 63.999-57.374.319-.356-63.999 41.138 49.027-73.464 61.644 7.888-90.165 92.065 109.718 28.914 122.953-109.293 91.707-115.805-50.197-91.988-109.627 90.165 7.888-73.389 61.581-41.138-49.027zm427.01 310.065l49.027-41.138 164.554 196.107-49.027 41.138-164.554-196.107z"/></svg>