<?xml version="1.0" encoding="utf-8"?>
<svg width="1792" height="1792" xmlns="http://www.w3.org/2000/svg"><path d="M384 832V704l63.957-64H832l64 64v128h128v704H256V832h128zm64 0h384V704H448v128zm124.245 406.4L436.48 1374.164l45.255 45.255L617.5 1283.655l-45.255-45.255zm135.41 0l-45.255 45.255 135.765 135.764 45.255-45.255L707.655 1238.4zm90.51-225.92L662.4 1148.245l45.255 45.255 135.765-135.765-45.255-45.255zm-316.43 0l-45.255 45.255L572.245 1193.5l45.255-45.255-135.765-135.765z" fill="undefined"/></svg>