<svg width="64" height="64" viewBox="0 0 1024 1024" xmlns="http://www.w3.org/2000/svg"><path d="M505.6 384c25.6 0 44.8-12.8 57.6-32 12.8-6.4 19.2-32 19.2-64v-96c0-32-6.4-51.2-12.8-64-19.2-25.6-38.4-32-64-32s-44.8 12.8-57.6 32c-12.8 12.8-19.2 32-19.2 64v102.4c0 32 6.4 51.2 19.2 70.4 12.8 12.8 32 19.2 57.6 19.2zM480 179.2c0-25.6 6.4-38.4 25.6-38.4s25.6 12.8 25.6 38.4v121.6c0 25.6-6.4 38.4-25.6 38.4S480 326.4 480 300.8V179.2zm147.2 185.6c0-6.4-6.4-19.2-6.4-44.8V96H672V326.4c0 6.4 6.4 12.8 12.8 12.8 12.8 0 19.2-6.4 32-25.6V96H768v288h-51.2v-32c-19.2 25.6-38.4 32-57.6 32-12.8 0-25.6-6.4-32-19.2zm198.4 345.6V736h-51.2v-25.6c0-25.6 6.4-38.4 25.6-38.4s25.6 12.8 25.6 38.4zM268.8 108.8C256 70.4 243.2 38.4 230.4 0H288l38.4 147.2L371.2 0h57.6l-70.4 230.4V384h-57.6V230.4c-6.4-32-19.2-70.4-32-121.6zm652.8 422.4c-6.4-44.8-44.8-83.2-89.6-83.2-102.4-12.8-211.2-12.8-320-12.8s-211.2 0-313.6 12.8c-44.8 0-83.2 38.4-89.6 83.2C96 595.2 96 665.6 96 729.6S96 864 108.8 928c12.8 44.8 44.8 76.8 89.6 83.2 102.4 12.8 211.2 12.8 320 12.8s211.2 0 320-12.8c44.8-6.4 83.2-38.4 89.6-83.2 12.8-64 12.8-134.4 12.8-198.4s0-134.4-19.2-198.4zm-588.8 57.6h-64v326.4h-51.2V588.8h-64v-57.6h179.2v57.6zm153.6 326.4h-51.2v-32c-19.2 25.6-38.4 32-57.6 32s-25.6-6.4-32-19.2c0-6.4-6.4-19.2-6.4-44.8v-224h51.2v224c0 6.4 6.4 12.8 12.8 12.8 12.8 0 19.2-6.4 32-25.6V627.2h51.2v288zm198.4-89.6c0 25.6 0 44.8-6.4 57.6-6.4 19.2-19.2 32-38.4 32s-38.4-12.8-51.2-32v25.6h-57.6V531.2h51.2v121.6c19.2-19.2 32-32 51.2-32s32 12.8 38.4 32c6.4 12.8 6.4 32 6.4 57.6v115.2zm192-44.8H774.4V832c0 25.6 6.4 38.4 25.6 38.4 12.8 0 19.2-6.4 25.6-19.2v-32h51.2v38.4c0 12.8-6.4 19.2-12.8 32-12.8 19.2-32 32-64 32-25.6 0-44.8-12.8-64-32-12.8-12.8-19.2-38.4-19.2-64v-96c0-32 6.4-51.2 19.2-64 12.8-19.2 32-32 64-32 25.6 0 44.8 12.8 57.6 32 12.8 12.8 12.8 38.4 12.8 64l6.4 51.2zm-243.2-70.4V832c0 25.6-6.4 38.4-19.2 38.4-6.4 0-19.2-6.4-25.6-12.8V684.8c6.4-6.4 19.2-12.8 25.6-12.8s19.2 12.8 19.2 38.4z"/></svg>