<svg width="64" height="64" viewBox="0 0 1024 1024" xmlns="http://www.w3.org/2000/svg"><path d="M230.4 76.8c-44.8 19.2-51.2 32-83.2 115.2-12.8 51.2-44.8 121.6-64 160 0 12.8-6.4 25.6-6.4 25.6s38.4-6.4 57.6-12.8c6.4-6.4 19.2-12.8 32-25.6 12.8-19.2 25.6-32 32-70.4 0-6.4 6.4-6.4 51.2-6.4h44.8v38.4c0 38.4-6.4 160-6.4 179.2v12.8H115.2l-6.4 6.4c-12.8 6.4-25.6 32-25.6 51.2v12.8H288v19.2c-6.4 83.2-51.2 192-115.2 262.4l-89.6 89.6C64 947.2 64 947.2 70.4 947.2c12.8 6.4 70.4 0 115.2-12.8 19.2-6.4 25.6-12.8 38.4-25.6 38.4-38.4 70.4-102.4 96-166.4l6.4-38.4 12.8 12.8 25.6 25.6c64 76.8 76.8 96 96 115.2 25.6 32 32 38.4 32 38.4 6.4 0 6.4-38.4 6.4-64 0-44.8 0-44.8-51.2-102.4-44.8-57.6-76.8-83.2-76.8-83.2s-12.8 6.4-19.2 19.2c-12.8 6.4-19.2 12.8-19.2 12.8v-12.8c6.4-12.8 19.2-64 19.2-89.6v-12.8h185.6V544c0-12.8-6.4-25.6-6.4-32v-19.2H364.8v-32c0-19.2 0-70.4 6.4-108.8v-83.2h153.6v-25.6c0-25.6-6.4-38.4-19.2-44.8-6.4-6.4-38.4-6.4-140.8-6.4H230.4l6.4-19.2c0-12.8 12.8-38.4 19.2-57.6l12.8-38.4c-6.4-6.4-19.2-6.4-38.4 0zm358.4 108.8c-6.4 6.4 0 652.8 0 659.2s6.4 6.4 32 6.4h32l6.4 25.6c6.4 12.8 12.8 32 12.8 38.4s0 6.4 6.4 6.4 6.4-6.4 19.2-6.4c108.8-70.4 96-64 185.6-64 57.6 0 70.4 0 76.8-6.4V179.2H774.4c-166.4 6.4-179.2 6.4-185.6 6.4zm294.4 332.8v262.4h-76.8L768 806.4c-19.2 12.8-38.4 25.6-44.8 32l-12.8 6.4-6.4-19.2c0-6.4-6.4-19.2-6.4-32l-6.4-19.2h-25.6v-256V256h217.6v262.4z"/></svg>