<svg xmlns="http://www.w3.org/2000/svg" viewBox="0 0 24 24"><g><path d="M12 2a1 1 0 00-1 1v2a1 1 0 002 0V3a1 1 0 00-1-1zm9 9h-2a1 1 0 000 2h2a1 1 0 000-2zM6 12a1 1 0 00-1-1H3a1 1 0 000 2h2a1 1 0 001-1zm.22-7a1 1 0 00-1.39 1.47l1.44 1.39a1 1 0 00.73.28 1 1 0 00.72-.31 1 1 0 000-1.41zM17 8.14a1 1 0 00.69-.28l1.44-1.39A1 1 0 0017.78 5l-1.44 1.42a1 1 0 000 1.41 1 1 0 00.66.31zM12 18a1 1 0 00-1 1v2a1 1 0 002 0v-2a1 1 0 00-1-1zm5.73-1.86a1 1 0 00-1.39 1.44L17.78 19a1 1 0 00.69.28 1 1 0 00.72-.3 1 1 0 000-1.42zm-11.46 0l-1.44 1.39a1 1 0 000 1.42 1 1 0 00.72.3 1 1 0 00.67-.25l1.44-1.39a1 1 0 00-1.39-1.44z"/></g></svg>