<?xml version="1.0" encoding="utf-8"?>
<!-- Generator: Adobe Illustrator 16.0.0, SVG Export Plug-In . SVG Version: 6.00 Build 0)  -->
<!DOCTYPE svg PUBLIC "-//W3C//DTD SVG 1.1//EN" "http://www.w3.org/Graphics/SVG/1.1/DTD/svg11.dtd">
<svg version="1.1" id="Ebene_1" xmlns="http://www.w3.org/2000/svg" xmlns:xlink="http://www.w3.org/1999/xlink" x="0px" y="0px"
	 width="64px" height="64px" viewBox="0 0 64 64" enable-background="new 0 0 64 64" xml:space="preserve">
<g>
	<path d="M58,32C58,17.663,46.336,6,32,6S6,17.663,6,32c0,9.777,5.427,18.308,13.425,22.747l-5.839,5.839
		c-0.781,0.781-0.781,2.047,0,2.828C13.976,63.805,14.488,64,15,64s1.024-0.195,1.414-0.586l6.908-6.908
		C26.038,57.47,28.958,58,32,58s5.962-0.53,8.678-1.494l6.908,6.908C47.976,63.805,48.488,64,49,64s1.024-0.195,1.414-0.586
		c0.781-0.781,0.781-2.047,0-2.828l-5.839-5.839C52.573,50.308,58,41.777,58,32z M41.122,52.012
		c-0.552-0.033-1.115,0.152-1.536,0.574c-0.029,0.029-0.049,0.062-0.076,0.093C37.166,53.533,34.637,54,32,54
		s-5.166-0.467-7.51-1.321c-0.027-0.03-0.047-0.063-0.076-0.093c-0.421-0.422-0.984-0.607-1.536-0.574
		C15.289,48.538,10,40.878,10,32c0-12.131,9.869-22,22-22s22,9.869,22,22C54,40.878,48.711,48.538,41.122,52.012z"/>
	<path d="M40.895,34.211L34,30.764V20c0-1.104-0.896-2-2-2s-2,0.896-2,2v12c0,0.758,0.428,1.45,1.105,1.789l8,4
		C39.393,37.933,39.698,38,39.999,38c0.733,0,1.44-0.404,1.791-1.105C42.283,35.906,41.882,34.705,40.895,34.211z"/>
	<path d="M17.914,3.421c-0.213-0.706-0.798-1.237-1.522-1.382l-10-2C5.737-0.093,5.058,0.112,4.586,0.586l-4,4
		c-0.473,0.473-0.678,1.15-0.547,1.807l2,10c0.145,0.723,0.675,1.308,1.381,1.521C3.611,17.972,3.806,18,4,18
		c0.522,0,1.034-0.205,1.414-0.586l12-12C17.936,4.893,18.128,4.126,17.914,3.421z M5.228,11.943L4.171,6.657l2.486-2.486
		l5.286,1.058L5.228,11.943z"/>
	<path d="M60,18c0.194,0,0.389-0.028,0.58-0.086c0.706-0.214,1.237-0.799,1.381-1.521l2-10c0.131-0.656-0.074-1.334-0.547-1.807
		l-4-4c-0.473-0.474-1.152-0.679-1.806-0.547l-10,2c-0.724,0.145-1.309,0.676-1.522,1.382c-0.214,0.705-0.021,1.472,0.5,1.993l12,12
		C58.966,17.795,59.478,18,60,18z M57.343,4.171l2.486,2.486l-1.057,5.286l-6.715-6.715L57.343,4.171z"/>
</g>
</svg>
