<?xml version="1.0" encoding="utf-8"?>
<!-- Generator: Adobe Illustrator 16.0.0, SVG Export Plug-In . SVG Version: 6.00 Build 0)  -->
<!DOCTYPE svg PUBLIC "-//W3C//DTD SVG 1.1//EN" "http://www.w3.org/Graphics/SVG/1.1/DTD/svg11.dtd">
<svg version="1.1" id="Ebene_1" xmlns="http://www.w3.org/2000/svg" xmlns:xlink="http://www.w3.org/1999/xlink" x="0px" y="0px"
	 width="64px" height="64px" viewBox="0 0 64 64" enable-background="new 0 0 64 64" xml:space="preserve">
<g>
	<path d="M19.414,63.414L32,50.828l12.586,12.586C44.968,63.797,45.48,64,46,64c0.257,0,0.518-0.05,0.765-0.152
		C47.513,63.538,48,62.809,48,62V2c0-1.104-0.896-2-2-2H18c-1.104,0-2,0.896-2,2v60c0,0.809,0.487,1.538,1.235,1.848
		C17.98,64.156,18.842,63.985,19.414,63.414z M20,4h24v53.172L33.414,46.586C33.024,46.195,32.512,46,32,46
		s-1.024,0.195-1.414,0.586L20,57.172V4z"/>
	<path d="M36.586,29.414C36.976,29.805,37.488,30,38,30s1.024-0.195,1.414-0.586c0.781-0.781,0.781-2.047,0-2.828L34.828,22
		l4.586-4.586c0.781-0.781,0.781-2.047,0-2.828c-0.78-0.781-2.048-0.781-2.828,0L32,19.172l-4.586-4.586
		c-0.78-0.781-2.048-0.781-2.828,0c-0.781,0.781-0.781,2.047,0,2.828L29.172,22l-4.586,4.586c-0.781,0.781-0.781,2.047,0,2.828
		C24.976,29.805,25.488,30,26,30s1.024-0.195,1.414-0.586L32,24.828L36.586,29.414z"/>
</g>
</svg>
