<?xml version="1.0" encoding="utf-8"?>
<!-- Generator: Adobe Illustrator 16.0.0, SVG Export Plug-In . SVG Version: 6.00 Build 0)  -->
<!DOCTYPE svg PUBLIC "-//W3C//DTD SVG 1.1//EN" "http://www.w3.org/Graphics/SVG/1.1/DTD/svg11.dtd">
<svg version="1.1" id="Ebene_1" xmlns="http://www.w3.org/2000/svg" xmlns:xlink="http://www.w3.org/1999/xlink" x="0px" y="0px"
	 width="64px" height="64px" viewBox="0 0 64 64" enable-background="new 0 0 64 64" xml:space="preserve">
<g>
	<path d="M62,8h-8V6c0-1.104-0.896-2-2-2h-6c-1.104,0-2,0.896-2,2v2H20V6c0-1.104-0.896-2-2-2h-6c-1.104,0-2,0.896-2,2v2H2
		c-1.104,0-2,0.896-2,2v48c0,1.104,0.896,2,2,2h60c1.104,0,2-0.896,2-2V10C64,8.896,63.104,8,62,8z M48,8h2v4h-2V8z M14,8h2v4h-2V8z
		 M60,56H4V12h6v2c0,1.104,0.896,2,2,2h6c1.104,0,2-0.896,2-2v-2h24v2c0,1.104,0.896,2,2,2h6c1.104,0,2-0.896,2-2v-2h6V56z"/>
	<path d="M20,24h-8c-1.104,0-2,0.896-2,2v8c0,1.104,0.896,2,2,2h8c1.104,0,2-0.896,2-2v-8C22,24.896,21.104,24,20,24z M18,32h-4v-4
		h4V32z"/>
	<path d="M36,24h-8c-1.104,0-2,0.896-2,2v8c0,1.104,0.896,2,2,2h8c1.104,0,2-0.896,2-2v-8C38,24.896,37.104,24,36,24z M34,32h-4v-4
		h4V32z"/>
	<path d="M52,24h-8c-1.104,0-2,0.896-2,2v8c0,1.104,0.896,2,2,2h8c1.104,0,2-0.896,2-2v-8C54,24.896,53.104,24,52,24z M50,32h-4v-4
		h4V32z"/>
	<path d="M20,40h-8c-1.104,0-2,0.896-2,2v8c0,1.104,0.896,2,2,2h8c1.104,0,2-0.896,2-2v-8C22,40.896,21.104,40,20,40z M18,48h-4v-4
		h4V48z"/>
	<path d="M36,40h-8c-1.104,0-2,0.896-2,2v8c0,1.104,0.896,2,2,2h8c1.104,0,2-0.896,2-2v-8C38,40.896,37.104,40,36,40z M34,48h-4v-4
		h4V48z"/>
	<path d="M52,40h-8c-1.104,0-2,0.896-2,2v8c0,1.104,0.896,2,2,2h8c1.104,0,2-0.896,2-2v-8C54,40.896,53.104,40,52,40z M50,48h-4v-4
		h4V48z"/>
</g>
</svg>
