<?xml version="1.0" encoding="utf-8"?>
<!-- Generator: Adobe Illustrator 16.0.0, SVG Export Plug-In . SVG Version: 6.00 Build 0)  -->
<!DOCTYPE svg PUBLIC "-//W3C//DTD SVG 1.1//EN" "http://www.w3.org/Graphics/SVG/1.1/DTD/svg11.dtd">
<svg version="1.1" id="Ebene_1" xmlns="http://www.w3.org/2000/svg" xmlns:xlink="http://www.w3.org/1999/xlink" x="0px" y="0px"
	 width="64px" height="64px" viewBox="0 0 64 64" enable-background="new 0 0 64 64" xml:space="preserve">
<g>
	<path d="M3,35c0,7.746,3.017,15.028,8.494,20.505C16.971,60.983,24.253,64,32,64c7.746,0,15.029-3.017,20.506-8.495
		C57.984,50.028,61,42.746,61,35s-3.017-15.028-8.494-20.505C47.503,9.491,40.993,6.549,34,6.076V4h4c1.104,0,2-0.896,2-2
		s-0.896-2-2-2h-6h-2h-4c-1.104,0-2,0.896-2,2s0.896,2,2,2h4v2.076c-6.993,0.473-13.503,3.415-18.505,8.419
		C6.017,19.972,3,27.254,3,35z M56.915,33H55c-1.104,0-2,0.896-2,2s0.896,2,2,2h1.915c-0.415,5.27-2.463,10.206-5.901,14.223
		c-0.053-0.068-0.102-0.139-0.164-0.201l-2.829-2.829c-0.781-0.781-2.047-0.781-2.829,0c-0.781,0.78-0.781,2.047,0,2.828
		l2.829,2.829c0.062,0.062,0.133,0.112,0.201,0.164C44.206,57.452,39.27,59.5,34,59.914V57c0-1.104-0.896-2-2-2s-2,0.896-2,2v2.914
		c-5.27-0.414-10.206-2.462-14.222-5.9c0.068-0.053,0.139-0.102,0.201-0.164l2.829-2.829c0.781-0.781,0.781-2.047,0-2.828
		c-0.78-0.781-2.048-0.781-2.828,0l-2.829,2.829c-0.062,0.062-0.112,0.133-0.164,0.201C9.548,47.206,7.5,42.27,7.085,37H9
		c1.104,0,2-0.896,2-2s-0.896-2-2-2H7.085c0.415-5.27,2.463-10.206,5.901-14.222c0.053,0.068,0.102,0.139,0.165,0.201l2.829,2.828
		c0.391,0.391,0.902,0.586,1.414,0.586s1.024-0.195,1.415-0.586c0.781-0.781,0.781-2.048,0-2.828l-2.829-2.828
		c-0.062-0.062-0.133-0.112-0.202-0.165c4.016-3.438,8.953-5.486,14.223-5.9V12c0,1.104,0.896,2,2,2s2-0.896,2-2v-1.914
		c5.27,0.414,10.206,2.462,14.223,5.9c-0.068,0.053-0.139,0.103-0.202,0.165l-2.828,2.828c-0.781,0.781-0.781,2.047,0,2.828
		c0.39,0.391,0.902,0.586,1.414,0.586s1.024-0.195,1.414-0.586l2.828-2.828c0.063-0.062,0.112-0.133,0.165-0.202
		C54.452,22.794,56.5,27.73,56.915,33z"/>
	<path d="M34,31.557V23c0-1.104-0.896-2-2-2s-2,0.896-2,2v8.557c-1.19,0.693-2,1.969-2,3.443c0,2.206,1.794,4,4,4s4-1.794,4-4
		C36,33.525,35.19,32.25,34,31.557z"/>
</g>
</svg>
