<?xml version="1.0" encoding="utf-8"?>
<!-- Generator: Adobe Illustrator 16.0.0, SVG Export Plug-In . SVG Version: 6.00 Build 0)  -->
<!DOCTYPE svg PUBLIC "-//W3C//DTD SVG 1.1//EN" "http://www.w3.org/Graphics/SVG/1.1/DTD/svg11.dtd">
<svg version="1.1" id="Ebene_1" xmlns="http://www.w3.org/2000/svg" xmlns:xlink="http://www.w3.org/1999/xlink" x="0px" y="0px"
	 width="64px" height="64px" viewBox="0 0 64 64" enable-background="new 0 0 64 64" xml:space="preserve">
<g>
	<path d="M2,49h14v10c0,0.781,0.455,1.491,1.164,1.817C17.432,60.94,17.716,61,18,61c0.469,0,0.933-0.165,1.302-0.481L32.74,49H62
		c1.104,0,2-0.896,2-2V5c0-1.104-0.896-2-2-2H2C0.896,3,0,3.896,0,5v42C0,48.104,0.896,49,2,49z M4,7h56v38H32
		c-0.478,0-0.939,0.171-1.302,0.481L20,54.651V47c0-1.104-0.896-2-2-2H4V7z"/>
	<path d="M23,28h7v7c0,1.104,0.896,2,2,2s2-0.896,2-2v-7h7c1.104,0,2-0.896,2-2s-0.896-2-2-2h-7v-7c0-1.104-0.896-2-2-2
		s-2,0.896-2,2v7h-7c-1.104,0-2,0.896-2,2S21.896,28,23,28z"/>
</g>
</svg>
