<?xml version="1.0" encoding="utf-8"?>
<!-- Generator: Adobe Illustrator 16.0.0, SVG Export Plug-In . SVG Version: 6.00 Build 0)  -->
<!DOCTYPE svg PUBLIC "-//W3C//DTD SVG 1.1//EN" "http://www.w3.org/Graphics/SVG/1.1/DTD/svg11.dtd">
<svg version="1.1" id="Ebene_1" xmlns="http://www.w3.org/2000/svg" xmlns:xlink="http://www.w3.org/1999/xlink" x="0px" y="0px"
	 width="64px" height="64px" viewBox="0 0 64 64" enable-background="new 0 0 64 64" xml:space="preserve">
<g>
	<path d="M62,0c-1.104,0-2,0.896-2,2v14.559l-2,0.667V2c0-1.104-0.896-2-2-2s-2,0.896-2,2v15.225l-2-0.667V2c0-1.104-0.896-2-2-2
		s-2,0.896-2,2v16c0,0.861,0.551,1.625,1.368,1.897L54,21.441V62c0,1.104,0.896,2,2,2s2-0.896,2-2V21.441l4.632-1.544
		C63.449,19.625,64,18.861,64,18V2C64,0.896,63.104,0,62,0z"/>
	<path d="M50,35c0-13.785-11.215-25-25-25S0,21.215,0,35s11.215,25,25,25S50,48.785,50,35z M4,35c0-11.58,9.42-21,21-21
		s21,9.42,21,21s-9.42,21-21,21S4,46.58,4,35z"/>
	<path d="M42,35c0-9.374-7.626-17-17-17S8,25.626,8,35s7.626,17,17,17S42,44.374,42,35z M12,35c0-7.168,5.832-13,13-13
		s13,5.832,13,13s-5.832,13-13,13S12,42.168,12,35z"/>
</g>
</svg>
