<?xml version="1.0" encoding="utf-8"?>
<!-- Generator: Adobe Illustrator 16.0.0, SVG Export Plug-In . SVG Version: 6.00 Build 0)  -->
<!DOCTYPE svg PUBLIC "-//W3C//DTD SVG 1.1//EN" "http://www.w3.org/Graphics/SVG/1.1/DTD/svg11.dtd">
<svg version="1.1" id="Ebene_1" xmlns="http://www.w3.org/2000/svg" xmlns:xlink="http://www.w3.org/1999/xlink" x="0px" y="0px"
	 width="64px" height="64px" viewBox="0 0 64 64" enable-background="new 0 0 64 64" xml:space="preserve">
<g>
	<path d="M36,4c13.233,0,24,10.766,24,24S49.233,52,36,52c-4.197,0-7.928-0.133-11.076-1.773c-0.978-0.509-2.187-0.13-2.697,0.849
		s-0.13,2.188,0.85,2.698c2.803,1.461,5.756,1.962,8.924,2.135V60h-6c-1.104,0-2,0.896-2,2s0.896,2,2,2h16c1.104,0,2-0.896,2-2
		s-0.896-2-2-2h-6v-4c15.439,0,28-12.561,28-28S51.439,0,36,0c-1.104,0-2,0.896-2,2S34.896,4,36,4z"/>
	<path d="M36,49c11.579,0,21-9.42,21-21S47.579,7,36,7s-21,9.42-21,21S24.421,49,36,49z M36,11c9.374,0,17,7.626,17,17
		s-7.626,17-17,17s-17-7.626-17-17S26.626,11,36,11z"/>
</g>
</svg>
