<?xml version="1.0" encoding="utf-8"?>
<!-- Generator: Adobe Illustrator 16.0.0, SVG Export Plug-In . SVG Version: 6.00 Build 0)  -->
<!DOCTYPE svg PUBLIC "-//W3C//DTD SVG 1.1//EN" "http://www.w3.org/Graphics/SVG/1.1/DTD/svg11.dtd">
<svg version="1.1" id="Ebene_1" xmlns="http://www.w3.org/2000/svg" xmlns:xlink="http://www.w3.org/1999/xlink" x="0px" y="0px"
	 width="64px" height="64px" viewBox="0 0 64 64" enable-background="new 0 0 64 64" xml:space="preserve">
<g>
	<path d="M28,44c0-1.104-0.896-2-2-2s-2,0.896-2,2c0,4.112,3.888,8,8,8s8-3.888,8-8c0-1.104-0.896-2-2-2s-2,0.896-2,2
		c0,1.907-2.093,4-4,4S28,45.907,28,44z"/>
	<path d="M23.41,34.59c-0.74-0.75-2.08-0.75-2.82,0C20.21,34.96,20,35.47,20,36c0,0.53,0.21,1.04,0.59,1.41
		C20.96,37.79,21.47,38,22,38c0.53,0,1.04-0.21,1.41-0.59C23.79,37.04,24,36.53,24,36C24,35.47,23.79,34.96,23.41,34.59z"/>
	<path d="M42,38c0.53,0,1.04-0.21,1.42-0.59C43.79,37.04,44,36.52,44,36s-0.21-1.04-0.58-1.41c-0.75-0.75-2.09-0.75-2.83,0
		C40.21,34.96,40,35.47,40,36c0,0.53,0.21,1.04,0.59,1.41C40.96,37.79,41.47,38,42,38z"/>
	<path d="M32.038-1c-0.001,0-0.002,0-0.003,0c-0.602,0-1.172,0.271-1.552,0.739C29.602,0.821,8.929,26.438,9,42.009
		C9.057,54.546,18.945,64,32,64c13.112,0,23-9.458,23-22C55,26.438,34.464,0.826,33.59-0.256C33.211-0.726,32.641-0.999,32.038-1z
		 M32,60c-10.785,0-18.954-7.742-19-18.009C12.946,30.167,27.221,10.529,32.029,4.253C36.812,10.537,51,30.173,51,42
		C51,52.262,42.832,60,32,60z"/>
</g>
</svg>
