<?xml version="1.0" encoding="utf-8"?>
<!-- Generator: Adobe Illustrator 16.0.0, SVG Export Plug-In . SVG Version: 6.00 Build 0)  -->
<!DOCTYPE svg PUBLIC "-//W3C//DTD SVG 1.1//EN" "http://www.w3.org/Graphics/SVG/1.1/DTD/svg11.dtd">
<svg version="1.1" id="Ebene_1" xmlns="http://www.w3.org/2000/svg" xmlns:xlink="http://www.w3.org/1999/xlink" x="0px" y="0px"
	 width="64px" height="64px" viewBox="0 0 64 64" enable-background="new 0 0 64 64" xml:space="preserve">
<g>
	<path d="M12,55h2c1.104,0,2-0.896,2-2V36v-3v-6c0-0.572,0.182-14,16-14c15.722,0,15.996,13.435,16,14v6v20c0,1.104,0.896,2,2,2h2
		c6.617,0,12-5.383,12-12s-5.383-12-12-12v-4c0-0.18-0.229-18-20-18S12,26.82,12,27v4C5.383,31,0,36.383,0,43S5.383,55,12,55z
		 M60,43c0,4.411-3.589,8-8,8V35C56.411,35,60,38.589,60,43z M12,35v1v15c-4.411,0-8-3.589-8-8S7.589,35,12,35z"/>
</g>
</svg>
