<?xml version="1.0" encoding="utf-8"?>
<!-- Generator: Adobe Illustrator 16.0.0, SVG Export Plug-In . SVG Version: 6.00 Build 0)  -->
<!DOCTYPE svg PUBLIC "-//W3C//DTD SVG 1.1//EN" "http://www.w3.org/Graphics/SVG/1.1/DTD/svg11.dtd">
<svg version="1.1" id="Ebene_1" xmlns="http://www.w3.org/2000/svg" xmlns:xlink="http://www.w3.org/1999/xlink" x="0px" y="0px"
	 width="64px" height="64px" viewBox="0 0 64 64" enable-background="new 0 0 64 64" xml:space="preserve">
<g>
	<path d="M62.743,24.143L54,20.646V2c0-1.104-0.896-2-2-2H12c-1.104,0-2,0.896-2,2v18.646l-8.743,3.497
		C0.476,24.456,0.003,25.206,0.002,26H0v36c0,1.104,0.896,2,2,2h60c1.104,0,2-0.896,2-2V26h-0.002
		C63.997,25.206,63.524,24.456,62.743,24.143z M57.954,26.536L54,28.991v-4.036L57.954,26.536z M50,4v18.031
		c0,0.004,0,0.008,0,0.012v9.431L32,42.646L14,31.474v-9.431c0-0.004,0-0.008,0-0.012V4H50z M10,28.991l-3.954-2.455L10,24.955
		V28.991z M4,60V29.975l26.945,16.725C31.269,46.899,31.634,47,32,47s0.731-0.101,1.055-0.301L60,29.975V60H4z"/>
	<path d="M36,12h8c1.104,0,2-0.896,2-2s-0.896-2-2-2h-8c-1.104,0-2,0.896-2,2S34.896,12,36,12z"/>
	<path d="M20,20h24c1.104,0,2-0.896,2-2s-0.896-2-2-2H20c-1.104,0-2,0.896-2,2S18.896,20,20,20z"/>
	<path d="M20,28h24c1.104,0,2-0.896,2-2s-0.896-2-2-2H20c-1.104,0-2,0.896-2,2S18.896,28,20,28z"/>
</g>
</svg>
