<?xml version="1.0" encoding="utf-8"?>
<!-- Generator: Adobe Illustrator 16.0.0, SVG Export Plug-In . SVG Version: 6.00 Build 0)  -->
<!DOCTYPE svg PUBLIC "-//W3C//DTD SVG 1.1//EN" "http://www.w3.org/Graphics/SVG/1.1/DTD/svg11.dtd">
<svg version="1.1" id="Ebene_1" xmlns="http://www.w3.org/2000/svg" xmlns:xlink="http://www.w3.org/1999/xlink" x="0px" y="0px"
	 width="64px" height="64px" viewBox="0 0 64 64" enable-background="new 0 0 64 64" xml:space="preserve">
<g>
	<path d="M30,43.844V60H17c-1.104,0-2,0.896-2,2s0.896,2,2,2h30c1.104,0,2-0.896,2-2s-0.896-2-2-2H34V43.844
		c8.348-1.173,16-9.43,16-17.844c0-1.104-0.896-2-2-2s-2,0.896-2,2c0,6.935-7.065,14-14,14s-14-7.065-14-14c0-1.104-0.896-2-2-2
		s-2,0.896-2,2C14,34.415,21.652,42.671,30,43.844z"/>
	<path d="M32,36c5.514,0,10-4.486,10-10V10c0-5.514-4.486-10-10-10S22,4.486,22,10v16C22,31.514,26.486,36,32,36z M32,4
		c3.309,0,6,2.691,6,6v1h-2c-1.104,0-2,0.896-2,2s0.896,2,2,2h2v4h-2c-1.104,0-2,0.896-2,2s0.896,2,2,2h2v3c0,3.309-2.691,6-6,6
		s-6-2.691-6-6v-3h2c1.104,0,2-0.896,2-2s-0.896-2-2-2h-2v-4h2c1.104,0,2-0.896,2-2s-0.896-2-2-2h-2v-1C26,6.691,28.691,4,32,4z"/>
</g>
</svg>
