<?xml version="1.0" encoding="utf-8"?>
<!-- Generator: Adobe Illustrator 16.0.0, SVG Export Plug-In . SVG Version: 6.00 Build 0)  -->
<!DOCTYPE svg PUBLIC "-//W3C//DTD SVG 1.1//EN" "http://www.w3.org/Graphics/SVG/1.1/DTD/svg11.dtd">
<svg version="1.1" id="Ebene_1" xmlns="http://www.w3.org/2000/svg" xmlns:xlink="http://www.w3.org/1999/xlink" x="0px" y="0px"
	 width="64px" height="64px" viewBox="0 0 64 64" enable-background="new 0 0 64 64" xml:space="preserve">
<g>
	<path d="M32,0C23.452,0,15.416,3.329,9.373,9.373C3.328,15.417-0.001,23.453-0.001,32s3.329,16.583,9.374,22.626
		C15.416,60.671,23.452,64,32,64s16.584-3.329,22.627-9.373c6.045-6.044,9.374-14.08,9.374-22.627s-3.329-16.583-9.374-22.626
		C48.584,3.329,40.548,0,32,0z M51.799,51.798C46.511,57.087,39.479,60,32,60s-14.511-2.913-19.799-8.202
		C6.912,46.51,3.999,39.479,3.999,32s2.913-14.51,8.202-19.798C17.489,6.913,24.521,4,32,4s14.511,2.913,19.799,8.202
		C57.088,17.49,60.001,24.521,60.001,32S57.088,46.51,51.799,51.798z"/>
	<path d="M50,30H14c-1.104,0-2,0.896-2,2s0.896,2,2,2h36c1.104,0,2-0.896,2-2S51.104,30,50,30z"/>
</g>
</svg>
