<?xml version="1.0" encoding="utf-8"?>
<!-- Generator: Adobe Illustrator 16.0.0, SVG Export Plug-In . SVG Version: 6.00 Build 0)  -->
<!DOCTYPE svg PUBLIC "-//W3C//DTD SVG 1.1//EN" "http://www.w3.org/Graphics/SVG/1.1/DTD/svg11.dtd">
<svg version="1.1" id="Ebene_1" xmlns="http://www.w3.org/2000/svg" xmlns:xlink="http://www.w3.org/1999/xlink" x="0px" y="0px"
	 width="64px" height="64px" viewBox="0 0 64 64" enable-background="new 0 0 64 64" xml:space="preserve">
<g>
	<path d="M32,0C23.453,0,15.417,3.329,9.374,9.374C3.329,15.417,0,23.453,0,32s3.329,16.583,9.373,22.626
		C15.417,60.671,23.453,64,32,64s16.583-3.329,22.626-9.374C60.671,48.583,64,40.547,64,32s-3.329-16.583-9.373-22.626
		C48.583,3.329,40.547,0,32,0z M51.798,51.798C46.51,57.087,39.479,60,32,60s-14.51-2.913-19.798-8.202C6.913,46.51,4,39.479,4,32
		s2.913-14.51,8.202-19.798C17.49,6.913,24.521,4,32,4s14.51,2.913,19.798,8.202C57.087,17.49,60,24.521,60,32
		S57.087,46.51,51.798,51.798z"/>
	<path d="M28.875,19.201c-0.689-0.334-1.508-0.246-2.11,0.227l-14,11C12.282,30.807,12,31.387,12,32s0.282,1.193,0.764,1.572l14,11
		C27.124,44.854,27.56,45,28,45c0.297,0,0.596-0.066,0.874-0.201C29.563,44.464,30,43.766,30,43V21
		C30,20.234,29.563,19.536,28.875,19.201z M26,38.885L17.237,32L26,25.115V38.885z"/>
	<path d="M48.875,19.201c-0.689-0.334-1.509-0.246-2.11,0.227l-14,11C32.282,30.807,32,31.387,32,32s0.282,1.193,0.764,1.572l14,11
		C47.124,44.854,47.56,45,48,45c0.297,0,0.596-0.066,0.874-0.201C49.563,44.464,50,43.766,50,43V21
		C50,20.234,49.563,19.536,48.875,19.201z M46,38.885L37.237,32L46,25.115V38.885z"/>
</g>
</svg>
