<?xml version="1.0" encoding="utf-8"?>
<!-- Generator: Adobe Illustrator 16.0.0, SVG Export Plug-In . SVG Version: 6.00 Build 0)  -->
<!DOCTYPE svg PUBLIC "-//W3C//DTD SVG 1.1//EN" "http://www.w3.org/Graphics/SVG/1.1/DTD/svg11.dtd">
<svg version="1.1" id="Ebene_1" xmlns="http://www.w3.org/2000/svg" xmlns:xlink="http://www.w3.org/1999/xlink" x="0px" y="0px"
	 width="64px" height="64px" viewBox="0 0 64 64" enable-background="new 0 0 64 64" xml:space="preserve">
<g>
	<path d="M22,64c5.514,0,10-4.486,10-10V25.488l18.575-5.573C51.421,19.662,52,18.883,52,18V2c0-0.632-0.299-1.227-0.806-1.604
		c-0.507-0.377-1.164-0.493-1.769-0.311l-20,6C28.579,6.338,28,7.117,28,8v15.954c0,0.03,0,0.061,0,0.091v21.974
		C26.326,44.758,24.252,44,22,44c-5.514,0-10,4.486-10,10S16.486,64,22,64z M32,9.488l16-4.8v11.824l-16,4.8V9.488z M22,48
		c3.309,0,6,2.691,6,6s-2.691,6-6,6s-6-2.691-6-6S18.691,48,22,48z"/>
</g>
</svg>
