<?xml version="1.0" encoding="utf-8"?>
<!-- Generator: Adobe Illustrator 16.0.0, SVG Export Plug-In . SVG Version: 6.00 Build 0)  -->
<!DOCTYPE svg PUBLIC "-//W3C//DTD SVG 1.1//EN" "http://www.w3.org/Graphics/SVG/1.1/DTD/svg11.dtd">
<svg version="1.1" id="Ebene_1" xmlns="http://www.w3.org/2000/svg" xmlns:xlink="http://www.w3.org/1999/xlink" x="0px" y="0px"
	 width="64px" height="64px" viewBox="0 0 64 64" enable-background="new 0 0 64 64" xml:space="preserve">
<g>
	<path d="M24,21c-1.104,0-2,0.896-2,2v18c0,1.104,0.896,2,2,2s2-0.896,2-2V23C26,21.896,25.104,21,24,21z"/>
	<path d="M40,21c-1.104,0-2,0.896-2,2v18c0,1.104,0.896,2,2,2s2-0.896,2-2V23C42,21.896,41.104,21,40,21z"/>
	<path d="M32,0C23.453,0,15.417,3.329,9.374,9.374C3.329,15.417,0,23.453,0,32s3.329,16.583,9.373,22.626
		C15.417,60.671,23.453,64,32,64s16.583-3.329,22.627-9.374C60.671,48.583,64,40.547,64,32s-3.329-16.583-9.373-22.626
		C48.583,3.329,40.547,0,32,0z M51.798,51.798C46.51,57.087,39.479,60,32,60c-7.479,0-14.51-2.913-19.798-8.202
		C6.913,46.51,4,39.479,4,32s2.913-14.51,8.202-19.798C17.49,6.913,24.521,4,32,4c7.479,0,14.51,2.913,19.799,8.202
		C57.088,17.49,60,24.521,60,32S57.088,46.51,51.798,51.798z"/>
</g>
</svg>
