<?xml version="1.0" encoding="utf-8"?>
<!-- Generator: Adobe Illustrator 16.0.0, SVG Export Plug-In . SVG Version: 6.00 Build 0)  -->
<!DOCTYPE svg PUBLIC "-//W3C//DTD SVG 1.1//EN" "http://www.w3.org/Graphics/SVG/1.1/DTD/svg11.dtd">
<svg version="1.1" id="Ebene_1" xmlns="http://www.w3.org/2000/svg" xmlns:xlink="http://www.w3.org/1999/xlink" x="0px" y="0px"
	 width="64px" height="64px" viewBox="0 0 64 64" enable-background="new 0 0 64 64" xml:space="preserve">
<g>
	<path d="M23.414,44.586c-0.781-0.781-2.047-0.781-2.828,0l-6,6c-0.781,0.781-0.781,2.047,0,2.828C14.977,53.805,15.488,54,16,54
		s1.023-0.195,1.414-0.586l6-6C24.195,46.633,24.195,45.367,23.414,44.586z"/>
	<path d="M46.586,44.586l-8,8c-0.781,0.781-0.781,2.047,0,2.828C38.977,55.805,39.488,56,40,56s1.023-0.195,1.414-0.586l8-8
		c0.781-0.781,0.781-2.047,0-2.828C48.633,43.805,47.367,43.805,46.586,44.586z"/>
	<path d="M33.586,44.586l-14,14c-0.781,0.781-0.781,2.047,0,2.828C19.977,61.805,20.488,62,21,62s1.023-0.195,1.414-0.586l14-14
		c0.781-0.781,0.781-2.047,0-2.828C35.633,43.805,34.367,43.805,33.586,44.586z"/>
	<path d="M55.926,22.186C55,10.901,45.52,2,34,2C23.776,2,14.958,8.635,12.409,18H12C5.383,18,0,23.383,0,30s5.383,12,12,12h42
		c5.514,0,10-4.486,10-10C64,27.145,60.521,23.086,55.926,22.186z M54,38H12c-4.411,0-8-3.589-8-8s3.589-8,8-8h2
		c0.962,0,1.788-0.685,1.966-1.63C17.531,12.043,25.115,6,34,6c9.925,0,18,8.075,18,18c0,1.104,0.896,2,2,2c3.309,0,6,2.691,6,6
		S57.309,38,54,38z"/>
</g>
</svg>
