<?xml version="1.0" encoding="utf-8"?>
<!-- Generator: Adobe Illustrator 16.0.0, SVG Export Plug-In . SVG Version: 6.00 Build 0)  -->
<!DOCTYPE svg PUBLIC "-//W3C//DTD SVG 1.1//EN" "http://www.w3.org/Graphics/SVG/1.1/DTD/svg11.dtd">
<svg version="1.1" id="Ebene_1" xmlns="http://www.w3.org/2000/svg" xmlns:xlink="http://www.w3.org/1999/xlink" x="0px" y="0px"
	 width="64px" height="64px" viewBox="0 0 64 64" enable-background="new 0 0 64 64" xml:space="preserve">
<g>
	<path d="M32,14c-9.925,0-18,8.075-18,18s8.075,18,18,18s18-8.075,18-18S41.925,14,32,14z M32,46c-7.72,0-14-6.28-14-14
		s6.28-14,14-14s14,6.28,14,14S39.72,46,32,46z"/>
	<path d="M30,2v8c0,1.104,0.896,2,2,2s2-0.896,2-2V2c0-1.104-0.896-2-2-2S30,0.896,30,2z"/>
	<path d="M32,52c-1.104,0-2,0.896-2,2v8c0,1.104,0.896,2,2,2s2-0.896,2-2v-8C34,52.896,33.104,52,32,52z"/>
	<path d="M62,30h-8c-1.104,0-2,0.896-2,2s0.896,2,2,2h8c1.104,0,2-0.896,2-2S63.104,30,62,30z"/>
	<path d="M12,32c0-1.104-0.896-2-2-2H2c-1.104,0-2,0.896-2,2s0.896,2,2,2h8C11.104,34,12,33.104,12,32z"/>
	<path d="M50.586,10.586l-4,4c-0.781,0.781-0.781,2.047,0,2.828C46.976,17.805,47.488,18,48,18s1.024-0.195,1.414-0.586l4-4
		c0.781-0.781,0.781-2.047,0-2.828C52.634,9.805,51.366,9.805,50.586,10.586z"/>
	<path d="M14.586,46.586l-4,4c-0.781,0.781-0.781,2.047,0,2.828C10.976,53.805,11.488,54,12,54s1.024-0.195,1.414-0.586l4-4
		c0.781-0.781,0.781-2.047,0-2.828C16.634,45.805,15.366,45.805,14.586,46.586z"/>
	<path d="M49.414,46.586c-0.78-0.781-2.048-0.781-2.828,0c-0.781,0.781-0.781,2.047,0,2.828l4,4C50.976,53.805,51.488,54,52,54
		s1.024-0.195,1.414-0.586c0.781-0.781,0.781-2.047,0-2.828L49.414,46.586z"/>
	<path d="M10.586,10.586c-0.781,0.781-0.781,2.047,0,2.828l4,4C14.976,17.805,15.488,18,16,18s1.024-0.195,1.414-0.586
		c0.781-0.781,0.781-2.047,0-2.828l-4-4C12.634,9.805,11.366,9.805,10.586,10.586z"/>
</g>
</svg>
