<?xml version="1.0" encoding="utf-8"?>
<!-- Generator: Adobe Illustrator 16.0.0, SVG Export Plug-In . SVG Version: 6.00 Build 0)  -->
<!DOCTYPE svg PUBLIC "-//W3C//DTD SVG 1.1//EN" "http://www.w3.org/Graphics/SVG/1.1/DTD/svg11.dtd">
<svg version="1.1" id="Ebene_1" xmlns="http://www.w3.org/2000/svg" xmlns:xlink="http://www.w3.org/1999/xlink" x="0px" y="0px"
	 width="64px" height="64px" viewBox="0 0 64 64" enable-background="new 0 0 64 64" xml:space="preserve">
<g>
	<path d="M44.236,6l-2.447-4.895C41.45,0.428,40.757,0,40,0H24c-0.757,0-1.45,0.428-1.789,1.105L19.764,6H10C8.896,6,8,6.896,8,8v54
		c0,1.104,0.896,2,2,2h44c1.104,0,2-0.896,2-2V8c0-1.104-0.896-2-2-2H44.236z M25.236,4h13.528l4,8H21.236L25.236,4z M52,60H12V10
		h5.764l-1.553,3.105c-0.31,0.62-0.277,1.356,0.088,1.946C16.663,15.641,17.307,16,18,16h28c0.007,0,0.013,0,0.02,0
		c1.104,0,2-0.896,2-2c0-0.418-0.128-0.806-0.347-1.126L46.236,10H52V60z"/>
	<path d="M46,22H28c-1.104,0-2,0.896-2,2s0.896,2,2,2h18c1.104,0,2-0.896,2-2S47.104,22,46,22z"/>
	<path d="M46,32H28c-1.104,0-2,0.896-2,2s0.896,2,2,2h18c1.104,0,2-0.896,2-2S47.104,32,46,32z"/>
	<path d="M46,42H28c-1.104,0-2,0.896-2,2s0.896,2,2,2h18c1.104,0,2-0.896,2-2S47.104,42,46,42z"/>
	<path d="M46,52H28c-1.104,0-2,0.896-2,2s0.896,2,2,2h18c1.104,0,2-0.896,2-2S47.104,52,46,52z"/>
	<path d="M20,22h-2c-1.104,0-2,0.896-2,2s0.896,2,2,2h2c1.104,0,2-0.896,2-2S21.104,22,20,22z"/>
	<path d="M20,32h-2c-1.104,0-2,0.896-2,2s0.896,2,2,2h2c1.104,0,2-0.896,2-2S21.104,32,20,32z"/>
	<path d="M20,42h-2c-1.104,0-2,0.896-2,2s0.896,2,2,2h2c1.104,0,2-0.896,2-2S21.104,42,20,42z"/>
	<path d="M20,52h-2c-1.104,0-2,0.896-2,2s0.896,2,2,2h2c1.104,0,2-0.896,2-2S21.104,52,20,52z"/>
</g>
</svg>
