<?xml version="1.0" encoding="utf-8"?>
<!-- Generator: Adobe Illustrator 16.0.0, SVG Export Plug-In . SVG Version: 6.00 Build 0)  -->
<!DOCTYPE svg PUBLIC "-//W3C//DTD SVG 1.1//EN" "http://www.w3.org/Graphics/SVG/1.1/DTD/svg11.dtd">
<svg version="1.1" id="Ebene_1" xmlns="http://www.w3.org/2000/svg" xmlns:xlink="http://www.w3.org/1999/xlink" x="0px" y="0px"
	 width="64px" height="64px" viewBox="0 0 64 64" enable-background="new 0 0 64 64" xml:space="preserve">
<g>
	<path d="M4,46h11.172l17.414,17.414C32.969,63.797,33.479,64,34,64c0.258,0,0.518-0.05,0.766-0.152C35.513,63.538,36,62.809,36,62
		V2c0-0.809-0.487-1.538-1.234-1.848c-0.75-0.31-1.607-0.14-2.18,0.434L15.172,18H4c-1.104,0-2,0.896-2,2v24C2,45.104,2.896,46,4,46
		z M6,22h10c0.53,0,1.039-0.211,1.414-0.586L32,6.829v50.343L17.414,42.586C17.039,42.211,16.53,42,16,42H6V22z"/>
	<path d="M40.586,42.414C40.977,42.805,41.488,43,42,43s1.023-0.195,1.414-0.586L51,34.828l7.586,7.586
		C58.977,42.805,59.488,43,60,43s1.023-0.195,1.414-0.586c0.781-0.781,0.781-2.047,0-2.828L53.828,32l7.586-7.586
		c0.781-0.781,0.781-2.047,0-2.828c-0.781-0.781-2.047-0.781-2.828,0L51,29.172l-7.586-7.586c-0.781-0.781-2.047-0.781-2.828,0
		c-0.781,0.781-0.781,2.047,0,2.828L48.172,32l-7.586,7.586C39.805,40.367,39.805,41.633,40.586,42.414z"/>
</g>
</svg>
