<?xml version="1.0" encoding="utf-8"?>
<!-- Generator: Adobe Illustrator 16.0.0, SVG Export Plug-In . SVG Version: 6.00 Build 0)  -->
<!DOCTYPE svg PUBLIC "-//W3C//DTD SVG 1.1//EN" "http://www.w3.org/Graphics/SVG/1.1/DTD/svg11.dtd">
<svg version="1.1" id="Ebene_1" xmlns="http://www.w3.org/2000/svg" xmlns:xlink="http://www.w3.org/1999/xlink" x="0px" y="0px"
	 width="64px" height="64px" viewBox="0 0 64 64" enable-background="new 0 0 64 64" xml:space="preserve">
<g>
	<path d="M46,0h-8c-1.104,0-2,0.896-2,2v18.333C33.989,21,32,22.723,32,26v36c0,1.104,0.896,2,2,2h16c1.104,0,2-0.896,2-2V26
		c0-3.277-1.989-5-4-5.667V2C48,0.896,47.104,0,46,0z M38,24c1.104,0,2-0.896,2-2V4h4v18c0,1.085,0.892,1.972,1.977,2
		C46.899,24.023,48,24.389,48,26v8H36v-8C36,24.389,37.101,24.023,38,24z M36,38h12v8H36V38z M36,60V50h12v10H36z"/>
	<path d="M27.109,41.664C27.666,41.293,28,40.669,28,40V24c0-1.104-0.896-2-2-2H14c-1.104,0-2,0.896-2,2v16
		c0,0.669,0.334,1.293,0.891,1.664L18,45.07V60h-3c-1.104,0-2,0.896-2,2s0.896,2,2,2h10c1.104,0,2-0.896,2-2s-0.896-2-2-2h-3V45.07
		L27.109,41.664z M16,26h8v12.93l-4,2.667l-4-2.667V26z"/>
</g>
</svg>
