<?xml version="1.0" encoding="utf-8"?>
<svg width="1792" height="1792" xmlns="http://www.w3.org/2000/svg"><path d="M379 738h-12q-1 0-3 1h-4l-4 1q-4 0-7 1-2 0-4 1-2 0-5 1l-6 2q-1 0-3 1-2 0-4 1-3 1-6.5 2.5T314 753q-1 0-1.5.5l-.5.5h-2l-6 4-6 4q-2 1-3 2-3 1-5 3t-3 2q-2 1-4 3-13 11-23 24-2 3-4 5-4 7-8 13-1 2-2 3-2 3-3 6l-2 4q-1 3-3 7-2 5-3 10l-4 14q-2 12-3 23v514q0 5 1 11 1 4 1 8 1 5 3 11 2 9 5 17 2 3 3 7 1 2 2 3 1 3 3 7 9 16 21 29l3 3q7 8 16 15l6 4q7 5 15 10 2 1 3 1 2 1 3 2h1l10 4q1 1 3 2 2 0 4 1 3 1 7 2 1 1 3 1l8 2q2 0 3 1 4 0 8 1 6 0 11 1h514q5-1 11-1 4-1 8-1 1-1 3-1l8-2q9-2 17-6 3-1 5.5-2t4.5-2q12-6 22-13l6-4q9-7 16-15l3-3q13-14 22-32 2-4 4-7 1-4 3-7 3-8 5-17 1-4 2-7.5t1-7.5q1-2 1-4 0-5 .5-9.5t.5-9.5V885q0-10-2-19 0-4-1-8l-4-14q-2-9-6-17l-2-4q-2-4-5-9l-8-12v-1q-2-2-4-5-10-13-23-24-2-2-5.5-4t-6.5-4q-1-1-3-2l-6-4-6-4q-4-1-7-3-8-4-17-6-3-1-7-2t-7.5-2-7.5-1q-6-1-11-2H379zm142 154q12 0 24 1.5t20.5 3 22 5.5 18 5.5 19 7T641 920q35 13 54 17.5t51.5 2T816 921q18-8 36.5-4t25.5 21q5 13 3.5 24.5t-9 22T853 1000q-64 27-122 27-17 0-35-4t-30-8.5-29.5-11.5-25.5-10q-26-9-39.5-13t-35-5.5-43.5 5-49 21.5q-12 6-24 7.5t-23-3-17-15.5q-6-12-5.5-24t7-23 17.5-17q63-34 122-34zm-6 180h3q11 0 23.5 1.5t20.5 3 21 5.5 18 5.5 19 6.5 17 6q35 13 54.5 17.5t53.5 1.5 73-20q17-9 35.5-5t26.5 20q7 18 0 36t-24 26q-68 30-129 30-12 0-24-1.5t-21.5-4-20.5-6.5-19-7.5-18.5-7.5-17.5-6q-34-13-51.5-17t-48 .5T441 1179q-16 10-35 7.5t-28-18.5q-9-17-3.5-35.5T397 1105q61-33 118-33zm-3 178q11 0 23 1.5t20.5 3 21.5 5.5 18 6 18.5 7 16.5 6q22 8 33.5 11.5t31.5 7 36 2 38.5-7.5 47.5-17q12-6 24-7t22.5 4.5T879 1289q8 18 1.5 35.5T857 1350q-73 34-137 34-17 0-35-4t-30-8.5-29.5-11.5-25.5-10q-32-12-49.5-16t-47-.5T440 1354q-17 9-35.5 6.5T377 1341q-5-12-4.5-23.5t7.5-22 18-16.5q56-28 109-29h5z" fill="undefined"/></svg>