<svg width="64" height="64" viewBox="0 0 1024 1024" xmlns="http://www.w3.org/2000/svg"><path d="M657 176q-33 0-70 8 29 11 68 36 15 9 23 15t14 16 2 19q-32 56-133 9-7-4-21.5-11T517 257.5t-23-10-23.5-8-24-4T422 237q-56 10-91 110 127-37 164 33 12 23 14.5 53.5t-9 58.5-36.5 38q-14 6-28 6t-25.5-3.5-24.5-11-22.5-14.5-22.5-16.5-21-14.5q-17-9-27.5-14.5t-30.5-13-34-8.5-29 5-23 22q-12 21-10 66.5t-9 66.5q-8 15-20 24t-23.5 12.5T84 640t-28.5-1-28.5-4q-5-1-8-1 26 25 34 32 43 33 80 27 30-6 60-35 6-6 15-18t17.5-19.5T246 609q31-9 63 7t54.5 47.5T383 729q-2 32-39 59-20 14-62 20 25 34 61 41.5t96 2.5q13-2 71.5-17t89.5-7q27 6 34 25.5t-2.5 40.5-27.5 36q-53 43-149 35 61 30 115 45 192 55 307-76 92-105 103-282 10-176-64-311-80-147-223-163-18-2-36-2zm193 189q11 0 16 8 74 109 74 241 0 135-77 246-4 7-12 8.5t-14.5-3.5-8-12.5T831 838q70-101 70-224 0-120-67-219-3-5-3-10t2-9.5 7-7.5 10-3zm-71 47q10 0 16 9 59 88 59 193 0 108-62 197-4 7-12 8.5t-14.5-3-8-12.5 2.5-14q55-80 55-176 0-93-52-171-3-5-3.5-10t2-9.5 6.5-7.5q6-4 11-4zm-75 51q10 0 16 8 43 65 43 143 0 80-45 146-5 7-12.5 8.5t-14-3-8-12.5 2.5-15q39-55 39-124 0-66-37-121-5-7-3.5-14.5T693 466q5-3 11-3z"/></svg>