<svg width="1792" height="1792" xmlns="http://www.w3.org/2000/svg"><path d="M624 689q-143 1-258 90t-150 232q-28 112 3.5 221T332 1419.5 525 1526t221-3.5T933.5 1410t106.5-193q23-85 8-168.5T992.5 895t-109-121.5T731 702q-53-14-107-13zm-14 148l47 12-19 75q28 6 38 8l18-74 47 11-19 77q104 36 93 107-8 57-59 69 69 36 43 113-10 26-25.5 42t-37.5 22-46 5.5-56-6.5l-19 77-47-12 19-76q-22-5-37-9l-19 76-47-11 20-78q-15-4-34-8l-60-15 23-54q2 1 5.5 1.5t11 2.5 12.5 3.5 5 .5q15 4 21-11l31-122q1 0 2 1h3q-3-1-5-1l21-87q2-22-21-28l-8.5-2-17.5-4-8-2 12-50 65 16h-1q11 3 30 8zm16 142l-23 93q2 0 9 2t12 3.5 13.5 3 15 2.5 15 1.5 15-.5 13.5-3 12-5.5 9-9.5 6-14q4-8 1.5-15t-4-12.5-7.5-11-10.5-9-13-7-14-6-14-4.5-14-3.5-12.5-3-9-1.5zm-35 140l-26 102q2 1 12.5 4t17 4 18.5 3.5 20.5 3 19.5 1 19-1.5 16-5.5 13-10.5 8-16q3-13 0-23.5t-12-18.5-18-14-24.5-11-23.5-7.5-23.5-6-16.5-3.5z" fill="undefined"/></svg>