<?xml version="1.0" encoding="utf-8"?>
<svg width="1792" height="1792" xmlns="http://www.w3.org/2000/svg"><path d="M627 740q-166 0-281 116-118 120-118 284t118 282 281 118q166 0 287-119 114-113 114-281T912 856 627 740zm1.5 72Q765 812 860 908q96 95 96 232 0 51-13 95l-163-72v-29h-62l102-187H713l-69 155-38-16-64-139H436l44 82-132-58q21-33 50-63 94-96 230.5-96zM315 1043l204 91h-45v63h94l9 19v30H474v62h103v90h100v-90h103v-58l131 59q-20 32-49 60-99 98-233.5 98T397 1370t-97-230q0-51 15-97zm367 163l88 40h-93v-30z" fill="undefined"/></svg>