<?xml version="1.0" encoding="utf-8"?>
<svg width="1792" height="1792" xmlns="http://www.w3.org/2000/svg"><path d="M628 740q-167 0-282 116-118 120-118 284t118 282 282 118q165 0 286-119 114-113 114-281T912 856 628 740zm.5 72Q765 812 860 908q96 95 96 232 0 45-10 85l-220-97h6v-48H619l-46-20q6-14 14-23 29-36 82-36 37 0 75 16l18-77q-45-20-100-20-94 0-155 69-11 13-22 32l-132-58q19-29 45-55 94-96 230.5-96zM318 1034l106 46h-8v48h38q0 3-.5 10t-.5 10v12h-37v47h44q8 51 37 87 28 37 71 56.5t92 19.5q59 0 105-25l-16-74q-33 17-77 17-56 0-86-34-15-17-22-47h146l206 92q-21 38-54 70-99 98-233.5 98T397 1370t-97-230q0-56 18-106zm283 125l1 1z" fill="undefined"/></svg>