<svg width="64" height="64" viewBox="0 0 1024 1024" xmlns="http://www.w3.org/2000/svg"><path d="M499 228q-165 0-281 116-118 120-118 284t118 282 281 118q165 0 287-119 114-112 114-280.5T784 344 499 228zm1.5 72Q637 300 732 396q96 94 96 232 0 44-10 86l-205-92-64-28-35-16-51-23q-4-5-4-10 0-17 15-24t33-7q35 0 69 23l52-53q-45-34-100-37v-62h-47v62q-37 2-64.5 21T379 518l-153-68q20-30 44-54 94-96 230.5-96zM190 520l204 92 64 28 47 21 39 16q10 10 10 25 0 21-14.5 30.5T504 742q-50 0-89-37l-55 56q55 47 121 48v61h47v-61q41-4 71.5-28t38.5-61l151 67q-20 36-55 70-98 98-233 98-134 0-232-97-97-97-97-230 0-58 18-108z"/></svg>