<svg width="64" height="64" viewBox="0 0 1024 1024" xmlns="http://www.w3.org/2000/svg"><path d="M500 228q-167 0-282 116-118 120-118 284t118 282 282.5 118T786 909q114-113 114-281T784 344 500 228zm1 72q136 0 231.5 95.5T828 628q0 45-10 85l-220-97h6v-48H491l-46-20q6-14 14-23 29-36 82-36 37 0 74 16l19-77q-45-20-100-20-47 0-86.5 18T379 477q-11 13-22 32l-132-58q19-29 45-55 94-96 231-96zM190 522l106 46h-8v48h38l-1 31h-37v48h44q8 51 36.5 87.5t71.5 56 92 19.5q30 0 60-8 26-6 45-17l-16-74q-13 6-32 11-23 6-45 6-56 0-86-34-15-17-22-47h146l206 92q-21 38-54 70-99 98-233.5 98T269 858t-97-230q0-56 18-106zm283 125h1-1z"/></svg>