<svg width="64" height="64" viewBox="0 0 1024 1024" xmlns="http://www.w3.org/2000/svg"><path d="M500 227q-109 0-201 53.5T153.5 426 100 627t53.5 201T299 973.5t201 53.5 201-53.5T846.5 828 900 627t-53.5-201T701 280.5 500 227zm0 75q88 0 163 43.5T781.5 464 825 627q0 43-11 84l-1-1-361-161q23-41 65-41 23 0 43 13 7 5 12 10l66-67q-52-44-126-44-110 0-163 83l-121-54q45-68 116.5-107.5T500 302zM193 520l127 57q-5 26-5 53 0 29 5 54.5t14.5 44.5 22 35.5T384 792t31 19.5 32.5 13.5 32 7 29.5 2q62 0 113-35 8-6 15-12l-58-71-5 5q-23 22-54 22-42 0-64-35.5T434 627l350 156h1q-42 77-118 123t-167 46q-88 0-163-43.5T218.5 790 175 627q0-55 18-107z"/></svg>