<?xml version="1.0" encoding="utf-8"?>
<svg width="1792" height="1792" xmlns="http://www.w3.org/2000/svg"><path d="M628 739q-109 0-201 53.5T281.5 938 228 1139t53.5 201T427 1485.5t201 53.5 201-53.5T974.5 1340t53.5-201-53.5-201T829 792.5 628 739zm0 75q88 0 163 43.5T909.5 976t43.5 163q0 43-11 84l-1-1-361-161q23-41 65-41 23 0 43 13 7 5 12 10l66-67q-52-44-126-44-110 0-163 83l-121-54q45-68 116.5-107.5T628 814zm-307 218l127 57q-5 26-5 53 0 29 5 54.5t14.5 44.5 22 35.5T512 1304t31 19.5 32.5 13.5 32 7 29.5 2q62 0 113-35 8-6 15-12l-58-71-5 5q-23 22-54 22-42 0-64-35.5t-22-80.5l350 156h1q-42 77-118 123t-167 46q-88 0-163-43.5T346.5 1302 303 1139q0-55 18-107z" fill="undefined"/></svg>