<svg width="1792" height="1792" xmlns="http://www.w3.org/2000/svg"><path d="M627 740q-165 0-281 116-118 120-118 284t118 282q119 118 281 118 166 0 287-119 114-113 114-281T912 856Q795 740 627 740zm1.5 72Q765 812 860 909q96 94 96 231 0 138-94 229-100 98-233 98-135 0-232-97-97-96-97-230 0-132 98-231 94-97 230.5-97zM565 914l-108 47v114l-95 40v103l102 44 103-43 7 3 210 87 5 1 4-1 97-42 7-3v-113l-8-4-79-33v-99zm27 216l183 75v3h1v71l-1-1v1l-183-76v-73zm201 4l59 25-64 27-58-25zm79 44v69l-71 31v-70z" fill="undefined"/></svg>