<svg width="64" height="64" viewBox="0 0 1024 1024" xmlns="http://www.w3.org/2000/svg"><path d="M499 228q-165 0-281 116-118 120-118 284t118 282q119 118 281 118 166 0 287-119 114-113 114-281T784 344Q667 228 499 228zm1.5 72Q637 300 732 397q96 94 96 231 0 138-94 229-100 98-233 98-135 0-232-97-97-96-97-230 0-132 98-231 94-97 230.5-97zM334 404q-8 2-14 8t-6 15v294q0 9 6.5 15.5T336 743h88v87q0 9 6 15.5t16 6.5h218q9 0 15.5-6.5T686 830V536q0-9-6.5-15.5T664 514h-88v-87q0-10-6-16.5t-16-6.5H334zm24 45h175v65h-90q-8 1-13.5 7t-5.5 15v163h-66V449zm109 108h175v251H467V557z"/></svg>