<svg width="1792" height="1792" xmlns="http://www.w3.org/2000/svg"><path d="M627 740q-165 0-281 116-118 120-118 284t118 282q119 118 281 118 166 0 287-119 114-113 114-281T912 856Q795 740 627 740zm1.5 72Q765 812 860 909q96 94 96 231 0 138-94 229-100 98-233 98-135 0-232-97-97-96-97-230 0-132 98-231 94-97 230.5-97zM462 916q-8 2-14 8t-6 15v294q0 9 6.5 15.5t15.5 6.5h88v87q0 9 6 15.5t16 6.5h218q9 0 15.5-6.5t6.5-15.5v-294q0-9-6.5-15.5T792 1026h-88v-87q0-10-6-16.5t-16-6.5H462zm24 45h175v65h-90q-8 1-13.5 7t-5.5 15v163h-66V961zm109 108h175v251H595v-251z" fill="undefined"/></svg>