<svg width="64" height="64" viewBox="0 0 1024 1024" xmlns="http://www.w3.org/2000/svg"><path d="M499 228q-165 0-281 116-118 120-118 284t118.5 282T499 1028q166 0 287-119 114-113 114-281T783.5 344 499 228zm2 72q136 0 231 97 96 94 96 231.5T734 857q-100 98-234 98t-231-96.5T172 629t98-232q94-97 231-97zM334 404q-8 2-14 8t-6 15v294q0 9 6.5 15.5T336 743h88v87q0 9 6 15.5t16 6.5h218q9 0 15.5-6.5T686 830V536q0-9-6.5-15.5T664 514h-88v-87q0-10-6-16.5t-16-6.5H334zm24 45h175v65h-90q-8 1-13.5 7t-5.5 15v163h-66V449zm109 108h175v251H467V557z"/></svg>