<svg width="64" height="64" viewBox="0 0 1024 1024" xmlns="http://www.w3.org/2000/svg"><path d="M499 228q-165 0-281 117-118 120-118 284t118.5 281.5T499 1028q166 0 287-118 114-114 114-281.5t-116.5-284T499 228zm2 72q136 0 231 97 96 94 96 231.5T734 858q-100 97-234 97t-231-96.5T172 629t98-232q94-97 231-96v-1zm-3 118q-69 0-116.5 40T322 572h-31l79 79 79-79h-29q10-71 90-71 44 0 67.5 33.5T601 631q0 61-25.5 97.5T508 765q-84 0-88-73H319q10 75 59.5 115.5T496 848q92 0 150-61t58-153q0-95-56-155.5T498 418z"/></svg>