<svg width="64" height="64" viewBox="0 0 1024 1024" xmlns="http://www.w3.org/2000/svg"><path d="M486 228q-166 0-280 116-58 58-88.5 131.5T87 628.5 117 780t87.5 129.5 130 88 152 30.5T640 997t133-88q57-56 85.5-127.5T887 628t-29-154-86-129Q655 228 486 228zm2 72q136 0 232 96 47 47 71 106.5T815 628q0 137-94 229-48 48-108.5 72.5t-125 24.5-124-24.5-106.5-71T184.5 752 159 627.5t25.5-124T257 396q94-96 231-96zm-1 98q-90 0-132 75-33 59-33 155t33 155q42 75 132 75t132-75q34-59 34-155t-34-155q-42-75-132-75zm0 87q7 0 15 2 17 14 5 35l-88 161q-3-23-3-55 0-57 10-89 17-54 61-54zm66 74q5 28 5 69 0 57-10 89-17 54-61 54-8 0-15-1l-6-2q-29-13-11-39z"/></svg>