<svg width="64" height="64" viewBox="0 0 1024 1024" xmlns="http://www.w3.org/2000/svg"><path d="M486 228q-166 0-280 116-58 58-89 132-30 73-30 152 0 80 30 152t87 130q58 57 130 88 73 30 152.5 30T640 997t133-88q57-56 85-127 29-72 29-154t-29-154-86-129Q655 228 486 228zm2 72q136 0 232 96 47 47 71 106.5T815 628q0 137-94 229-48 48-109 72-60 25-124 25-65 0-124-24-60-25-107-71-47-47-73-107-25-60-25-124 0-65 25-124 26-60 73-108 94-96 231-96zm-1 98q-47 0-81 20.5T354.5 474t-25 73-7.5 81 7.5 81 25 73 51.5 55.5 81 20.5 81-20.5 51.5-55.5 25-73 7.5-81q0-34-4-64.5T632.5 502 603 448.5 555 412t-68-14zm0 87q7 0 15 2 17 14 5 35l-88 161q-3-23-3-55 0-143 71-143zm66 74q5 28 5 69 0 143-71 143-8 0-15-1-1-1-2-1-3-1-4-1-29-13-11-39z"/></svg>