<?xml version="1.0" encoding="utf-8"?>
<svg width="1792" height="1792" xmlns="http://www.w3.org/2000/svg"><path d="M627 738q-166 0-280 117-58 58-88.5 131T228 1138q0 80 30 152.5t87.5 130 130 87.5 152 30 153.5-30.5 133-88.5q56-55 85-127t29-154q0-81-29.5-153.5T913 856Q795 738 627 738zm2 73q135 0 232 96 46 47 70.5 106t24.5 125q0 138-94 230-48 47-108.5 72T629 1465q-65 0-124.5-24.5T398 1369t-72.5-106.5T300 1138t25.5-124.5T398 906q94-95 231-95zm-112 203q-50 0-83.5 33.5T400 1138q0 59 33 92t86 33q34 0 62-17t43-46l-49-25q-14 34-49 34-27 0-40.5-19t-13.5-52q0-70 54-70 11 0 23.5 7t20.5 25l54-28q-32-58-107-58zm232 0q-51 0-84 33.5t-33 90.5q0 59 32.5 92t86.5 33q33 0 60.5-17t44.5-46l-50-25q-14 34-49 34-27 0-40.5-19t-13.5-52q0-70 54-70 11 0 23.5 7t21.5 25l52-28q-31-58-105-58z" fill="undefined"/></svg>