<svg width="64" height="64" viewBox="0 0 1024 1024" xmlns="http://www.w3.org/2000/svg"><path d="M500 177q-17 0-34 1-73 6-141.5 36.5T204 297q-62 59-96.5 140T75 603q-1 65 19.5 128.5T154 849q55 78 141 125t181 52q17 2 50-1l19-1q62-6 120.5-31T772 928q68-57 108.5-138.5T924 621q2-13 0-38l-1-19q-6-76-40-146t-90-123q-58-56-135-87t-158-31zm-1 85h5q44 0 77 9 48 12 91 37t76 61q39 41 62.5 92.5t29 106.5-8.5 112q-14 61-50 114t-88 88q-43 30-93 45.5T499.5 943t-100-15.5T307 883t-75.5-70.5T180 722q-21-55-22-115t19-115q28-84 97-145 39-35 88-57t101-27zm143 186q-4 0-7 1-10 2-16.5 10.5T612 478v68q-1 21 11 30 8 7 19.5 6.5T663 575t10-18q1-19 1-57v-22q0-13-10-21.5t-22-8.5zm87 0h-1q-4 0-7 1-9 3-15.5 10t-5.5 16v83q0 7 4.5 13t12.5 9q14 7 28-1.5t15-23.5q1-21 0-64v-13q0-12-9.5-21t-21.5-9zm-173 0q-4 0-7 1-10 2-17 10.5t-6 18.5v74q-1 9 4.5 17t14.5 12q14 5 28-3t14-23v-80q0-11-9.5-19t-21.5-8zm-191 0q-45 2-76.5 22t-50 55-18.5 73v6q0 30 4 45 6 29 24.5 53.5t44.5 38 55.5 14.5 57.5-9q18-7 36-23 12-10 30-30 2-3 .5-5.5T467 682l-4-4q-13 14-24 22-18 13-41 13t-42-12q-24-17-37-54-8-24-10-54-1-21 1-55 3-20 8-32 6-17 16-26.5t23-11.5 23 7q5 4 6 12 1 4 1 14v8q1 15 3 23 3 12 10 18t17 7q6 0 17-1h2q14-3 22.5-15t7.5-26q-3-24-18-38.5T410 455q-21-7-45-7z"/></svg>