<svg width="64" height="64" viewBox="0 0 1024 1024" xmlns="http://www.w3.org/2000/svg"><path d="M500 177q-17 0-34 1-48 4-95 19t-89.5 40.5T204 297q-62 59-96.5 140T75 603q-2 133 79 246 55 78 141 125t181 52q17 1 23 1t23-1 23-2q128-13 227-96 68-57 108.5-138.5T924 621q1-13 1-19t-1-18.5-1-19.5q-4-50-21-98.5t-44.5-92T793 295q-58-56-135-87t-158-31zm-1 85h5q44 0 77 9 98 24 167 98 80 85 91 199 6 55-8 112-9 41-28.5 78.5t-47.5 69-62 54.5q-89 62-194 60-103 2-191-59-90-60-128-161-43-114-3-230 28-84 97-145 81-73 189-84 17-1 30-1h6zm143 186q-4 0-7 1-10 2-16.5 10.5T612 478v68q-1 21 11 30 13 11 31 4.5t19-23.5q1-10 1-79 0-13-10-21.5t-22-8.5zm87 0h-1q-4 0-7 1-9 3-15.5 10t-5.5 16q-1 52 0 83 0 15 17 22 14 7 28-1.5t15-23.5q1-19 0-77 0-21-20-28-6-2-11-2zm-173 0q-4 0-7 1-10 2-17 10.5t-6 18.5v74q-1 9 4.5 17t14.5 12q14 5 28-3t14-23v-80q0-11-9.5-19t-21.5-8zm-191 0q-45 2-76 22-32 20-50.5 55T220 598q0 37 4 51 3 14 9.5 28t15 25.5 20 21.5 24.5 17q54 28 113 5 29-12 66-53 1-2 1-3.5t-1.5-3.5-3-3-3.5-2.5-2-2.5q-13 14-24 22-9 7-19.5 10t-21.5 3-22-3-20-9q-24-17-37-54-13-38-9-109 7-42 25-59 9-9 22-10.5t23 5.5q4 5 6 11t1.5 12-.5 12q2 31 14 41 9 9 35 6 9-2 16.5-8t11-15 2.5-18q-3-24-18-37-30-31-83-30z"/></svg>