<svg width="64" height="64" viewBox="0 0 1024 1024" xmlns="http://www.w3.org/2000/svg"><path d="M500 177q-176 0-300.5 124.5T75 602t124.5 300.5T500 1027t300.5-124.5T925 602 800.5 301.5 500 177zm-4 87h4q92 0 170 45t123 123 45 170-45 170-123 123-170 45-170-45-123-123-45-170q0-91 44.5-168.5t121-123T496 264zm1 99q-84 0-149 52.5T265 548h114q15-34 47-55t71-21q54 0 92 38t38 92q0 35-17.5 65T562 714.5 497 732q-39 0-71-21t-47-54H265q18 79 83 131.5T497 841q64 0 119-32t87-87 32-120q0-99-70-169t-168-70z"/></svg>