<svg width="1792" height="1792" xmlns="http://www.w3.org/2000/svg"><path d="M628 689q-176 0-300.5 124.5T203 1114t124.5 300.5T628 1539t300.5-124.5T1053 1114 928.5 813.5 628 689zm-4 87h4q92 0 170 45t123 123 45 170-45 170-123 123-170 45-170-45-123-123-45-170q0-91 44.5-168.5t121-123T624 776zm1 99q-84 0-149 52.5T393 1060h114q15-34 47-55t71-21q54 0 92 38t38 92q0 35-17.5 65t-47.5 47.5-65 17.5q-39 0-71-21t-47-54H393q18 79 83 131.5t149 52.5q64 0 119-32t87-87 32-120q0-99-70-169t-168-70z" fill="undefined"/></svg>