<svg width="64" height="64" viewBox="0 0 1024 1024" xmlns="http://www.w3.org/2000/svg"><path d="M521 226q-94 2-176 43-65 33-115.5 88.5T153 481q27-8 55.5-5t54.5 16q30-57 76-94 37-30 82-47t92-19q55-3 108.5 16t95.5 55q34 29 58.5 69t35.5 85q26 7 42 30t12 48q-3 22-17.5 38.5T812 695q-15 50-32 78-31 55-83.5 93T583 916q-42 8-85 4t-83-20q-49-20-88.5-56T263 761q-25 13-53.5 16t-56.5-5q32 83 98.5 145.5T402 1007q67 22 139.5 19T679 996t117.5-76T881 808q30-58 39.5-124T918 554t-43.5-121T796 333q-42-40-94.5-66T591 232q-34-6-71-6h1zM192 508q-13 1-27 3-24 6-44 21.5T89 570q-18 31-12 79 5 26 21.5 48.5T139 732q36 19 78.5 10t67.5-42q17-20 23-46.5t0-54-25.5-50.5-46.5-33q-21-8-44-8zm259 38q-11 0-22 3-21 6-37 23t-20 38q-5 19-.5 38.5t17.5 35 32 23 38 5.5q24-1 43.5-16t28.5-37.5 3-45.5q-4-29-29-48.5T451 546zm189 17q-7 0-15 1-22 6-36.5 24T574 628t13.5 41 34.5 24q14 5 29.5 2.5T680 684t20.5-24 7.5-31q0-20-11.5-37.5T666 567q-11-5-26-4zm154 22q-8 0-15 2-12 4-22 18.5t-6 33.5 18.5 28 31.5 6.5 28-15.5 9.5-32.5T823 595q-11-10-29-10zm77 385l-13 53h8l7-29v-3l2 3 16 30 16-30 1-3 7 32h9l-14-53-19 39zm-57 2v7h15v44h9v-44h15v-7h-39z"/></svg>