<?xml version="1.0" encoding="utf-8"?>
<svg width="1792" height="1792" xmlns="http://www.w3.org/2000/svg"><path d="M648 738q-93 2-175 43-65 33-115.5 88.5T281 993q56-16 110 11 30-57 76-94 76-63 174-66 55-3 108.5 16t95.5 55q71 60 94 154 26 7 42 30t12 48q-3 22-17.5 38.5T940 1207q-15 50-32 78-31 55-83.5 93T710 1428q-85 17-167-16-49-20-88.5-56t-63.5-83q-52 27-110 11 48 125 164 196 41 25 85 39 67 22 139.5 19t137.5-30q43-18 81-46t69-64 52-78q62-120 37-255-24-130-122-220-87-82-204-101-35-6-72-6zm-328 282q-13 1-27 3-51 12-76 59-18 31-12 79 5 26 21.5 48.5T267 1244q36 19 78.5 10t67.5-42q35-42 23-100-6-28-25.5-51t-46.5-33q-21-8-44-8zm259 38q-11 0-22 3-21 6-37 23t-20 38q-10 40 17 73 28 33 70 29 37-1 60.5-32.5T662 1125q-4-29-29-48.5t-54-18.5zm189 17q-7 0-16 1-21 6-35.5 24t-14.5 41q0 21 13.5 40t34.5 25q31 9 57-9 30-20 29-56 0-20-11.5-37.5T794 1079q-11-5-26-4zm154 22q-8 0-15 2-12 4-22 18-10 15-6 34t19 28q14 9 31 6.5t27-15.5q12-13 10.5-32.5T951 1107q-11-10-29-10zm77 385l-13 53h8l6-25q1-2 1-4v-3q1 1 2 3 0 1 1 3l15 27 14-26 2-4q0-1 1-3v3q1 3 1 4l6 25h9l-14-53-16 32q0 1-1 1-2 4-2 6-1-2-2-5-1-1-1-2zm-57 2v7h15v44h9v-44h15v-7h-39z" fill="undefined"/></svg>