<svg width="64" height="64" viewBox="0 0 1024 1024" xmlns="http://www.w3.org/2000/svg"><path d="M455 226q-22 0-40 8-54 21-55 86-1 52 36 107l1 1q-22-46-13-85t45-54q42-16 97 9t90 78q18 26 25.5 53.5t4.5 51-16 39.5q19-12 29-32.5t10.5-45T661 390t-28-56q-33-49-82.5-78.5T455 226zm50 142q-19 0-34 12-12 8-18.5 20t-7 24.5T449 450l-104 76q7 6 12 13t8 15l104-76q16 13 36.5 13t37.5-12q21-15 25-40t-11-46q-19-25-49-25h-3zm315 13q-23 0-47 12-47 24-78 83 30-41 68.5-51t68.5 15q22 19 31.5 53.5t4 75T843 646q-14 25-32 44 1 1 1 2 10 8 18 19 34-25 57-69 35-65 31.5-135.5T875 402q-24-21-55-21zm-522 35q-49 0-100 32-63 38-95.5 100.5T87 661q18 55 83 59 53 3 109-31l1-1q-47 20-85.5 9.5T143 650q-14-43 13.5-96.5T238 467q42-25 82-27t63 20q-24-43-82-44h-3zm227 96q-17 4-34 0v87q-10 3-19 9-21 15-25 40t11 46q12 17 32 23t38-1l67 92q-8 9-11 21-1 3-1 4v2q0 1-.5 1h-.5v18q0 1 1 1v4q0 1 1 2v3q3 9 9 18 15 20 40.5 24t46-11 24.5-40-11-46q-18-25-49-25-11 0-21 3l-67-91q13-16 13.5-36.5T558 622q-13-17-33-23v-87zm200 14q-19 1-35 12-26 19-25 51l-84 27q9 16 11 33l52-17 32-8q15 21 40.5 25t46-11 24.5-40.5-11-45.5q-18-25-49-26h-2zm-438 1q-19 1-35 12-21 15-25 40t11 46 40.5 25 46-11 24.5-40-11-46q-18-25-49-26h-2zm441 162q-7 1-15 1-52 7-101 52 27-18 55-23t50.5 4 35.5 31q22 39 5 97t-64 101q-36 32-75 41.5t-66-7.5q20 23 50.5 28t66-8.5T738 963q54-50 74-117t-6-113q-24-44-78-44zm-283 26l-38 54q16 7 28 20l39-54q-17-7-29-20zm-179 19h-5q-10 1-19 2-20 3-36 11.5t-26.5 23T164 803q-12 51 26.5 110t105.5 91q60 29 112 20.5t71-50.5q-22 24-61 26t-84-19q-57-27-90-78t-22-95q8-37 46-51.5t86 .5q0-1-1-1-45-21-87-22zm105 51q-19 0-34 11-21 15-25 40.5t11 46 40 24.5 46-11q17-12 23-32h129l-2-22q0-6 1-13H432q-3-10-9-19l-2-2-1-1v-1l-2-2q-1 0-1-1l-1.5-1.5-1-1-1.5-.5-1-1-2-2q-1-1-2-1l-1-1h-1q0-1-2-2-1 0-1-1-2 0-2.5-.5L399 790q-3-1-4-1-1-1-2-1-10-3-19-3h-3z"/></svg>