<svg width="64" height="64" viewBox="0 0 1024 1024" xmlns="http://www.w3.org/2000/svg"><path d="M258 175q-76 0-129.5 53.5T75 358v484q0 88 67 142 51 41 116 41h484q76 0 129.5-53.5T925 842V358q0-50-24.5-92T834 199.5 742 175H258zm-37 126q116 0 222.5 44.5t188.5 126T758 660t44 222H686q0-92-35.5-177.5t-101-151-150.5-101T221 417V301zm0 196q77 0 147.5 29.5t125 83.5T577 735t29 147H493q0-53-21-103.5T413.5 690t-88-59T221 610V497zm78 226h2q33 0 56 23.5t23 56.5-23 56-56 23-56.5-23-23.5-56 22.5-56 55.5-24z"/></svg>