<svg width="1792" height="1792" xmlns="http://www.w3.org/2000/svg"><path d="M386 687q-76 0-129.5 53.5T203 870v484q0 88 67 142 51 41 116 41h484q76 0 129.5-53.5T1053 1354V870q0-50-24.5-92T962 711.5 870 687H386zm-37 126q116 0 222.5 44.5t188.5 126T886 1172t44 222H814q0-92-35.5-177.5t-101-151-150.5-101T349 929V813zm0 196q77 0 147.5 29.5t125 83.5 83.5 125 29 147H621q0-53-21-103.5t-58.5-88.5-88-59-104.5-21v-113zm78 226h2q33 0 56 23.5t23 56.5-23 56-56 23-56.5-23-23.5-56 22.5-56 55.5-24z" fill="undefined"/></svg>