<svg width="64" height="64" viewBox="0 0 1024 1024" xmlns="http://www.w3.org/2000/svg"><path d="M315 189q-78 0-144 39-64 37-102 102-39 66-39 142.5T67 614q36 64 99 102.5T304 758q13 65 53 117.5t99 81.5q60 30 128 30 77 0 143-39 65-37 103-102 38-66 38-142.5T831 562q-36-64-99-102.5T594 418q-13-65-53-117t-98-82q-60-30-128-30zm0 50q63 0 117 31.5t85.5 85.5T549 473.5 517.5 591 432 676.5 314.5 708 197 676.5 111.5 591 80 473.5 111.5 356t85.5-85.5T315 239zm-88 149q-24 0-40.5 17T170 445.5t16.5 40.5 40.5 17 40.5-17 16.5-40.5-16.5-40.5-40.5-17zm175 0q-24 0-41 17t-17 40.5 17 40.5 40.5 17 40.5-17 17-40.5-17-40.5-40-17zm197 81q61 4 111 36t79 84.5T818 703q0 63-31.5 117T701 905.5 584 937q-55 0-103-23.5t-81-65-45-93.5q56-8 104-36 16 13 37 13 24 0 40.5-17t16.5-40q0-18-9-32 26-36 40.5-79.5T599 474v-5zm72 149q-24 0-41 16.5t-17 40 17 40.5 40.5 17 40.5-17 17-40.5-17-40-40-16.5z"/></svg>