<svg width="64" height="64" viewBox="0 0 1024 1024" xmlns="http://www.w3.org/2000/svg"><path d="M315 189q-118 0-201.5 83.5T30 474q0 115 80 197.5T304 758q20 99 98.5 164T584 987q118 0 201-83t83-201q0-116-79.5-198.5T594 418q-10-48-35.5-90.5t-62-73-83.5-48-98-17.5zm0 50q97 0 165.5 69T549 474q0 47-18.5 90.5t-50 75-75 50T315 708q-97 0-166-68.5T80 474t69-166 166-69zm-88 149q-24 0-40.5 17T170 445.5t16.5 40.5 40.5 17 40.5-17 16.5-40.5-16.5-40.5-40.5-17zm175 0q-24 0-41 17t-17 40.5 17 40.5 40.5 17 40.5-17 17-40q0-6-1-12t-3.5-11-5.5-9.5-7-8.5-8.5-7-9.5-5-11-3.5-11-1.5zm197 81q61 4 111 36t79 84.5T818 703q0 97-68.5 165.5T584 937q-83 0-146.5-51.5T355 755q56-8 104-36 16 13 37 13 12 0 22.5-4.5t18-12 12-18.5 4.5-22q0-4-.5-7.5t-1-6.5-2-6.5-3-6-2.5-5.5q26-36 40.5-79.5T599 474v-5zm72 149q-16 0-29 7.5T621 646t-8 28.5 8 29 21 21 29 7.5q23 0 40-17t17-40.5-17-40-40-16.5z"/></svg>