<svg width="64" height="64" viewBox="0 0 1024 1024" xmlns="http://www.w3.org/2000/svg"><path d="M256 226q-42 0-78 21t-57 57-21 78v488q0 64 46 110t110 46h488q64 0 110-46t46-110V382q0-32-12.5-60.5T854 272t-49.5-33.5T744 226H256zm367 86q15 0 26 10v1h1l149 150q12 11 12 27 0 15-11 26t-27 11-27-11l-17-17-116 115q14 42 4 86.5T574 787L336 548q21-21 48.5-33t56-13 57.5 7l116-115-18-18v-1q-11-11-11-25 0-27 25-36 7-2 13-2zM188 612q116-1 203 72L262 814l-1 1q-10 11-10 25 0 16 11 27t26 11 26-10l1-1 128-128q71 97 59 217H293q-33 0-60-16t-43-43.5-16-59.5V612h14z"/></svg>