<svg width="64" height="64" viewBox="0 0 1024 1024" xmlns="http://www.w3.org/2000/svg"><path d="M499.5 228q-21.5 0-36.5 15l-73 73 92 92q36-13 63 14t15 64l88 88q37-12 64 15 18 18 18 43.5t-18 43-43.5 17.5-43.5-17q-13-14-16.5-32.5T612 609l-83-83v218q9 4 16 11 12 12 16 28t0 31.5-16 27.5q-18 18-43.5 18t-43-18-17.5-43.5 17-43.5q9-8 21-13V522q-12-4-21-13-13-13-16.5-32t3.5-35l-90-91-240 240q-15 15-15 36.5t15 36.5l349 349q15 15 36.5 15t36.5-15l348-348q7-7 11-16.5t4-19.5-4-19.5-11-17.5L536 243q-15-15-36.5-15z"/></svg>