<?xml version="1.0" encoding="utf-8"?>
<svg width="1792" height="1792" xmlns="http://www.w3.org/2000/svg"><path d="M396 690q-57 0-102 24-29 15-46.5 32T215 792q-15 28-19 54t-2 64q3 36 13 62.5t33 54.5q22 28 45.5 41t59.5 18q0 3 .5 7.5t.5 6.5v5.5l-1 5-2 4.5-3 5.5-5 5.5q-5 5-6 10.5t-.5 9.5-3 9.5T313 1166q-15 9-18 30-1 6 1.5 10t7 4 9.5-3q11-8 27-3 12 5 18.5-6.5T377 1185q-3 30-1 65.5t14 67.5q14 36 38.5 66t69.5 64q-26-26-34-34.5t-24-28-24.5-36T401 1313q-11-36-12.5-69t1.5-65q30-5 52-20l5 33q1 7 .5 12t0 11 1.5 10 5.5 4 5.5 4q2 5 3 19.5t2 18 2 4 2.5 0 2.5-.5 6.5 1 7.5 3 2.5 9 3.5 9 9.5 2 7.5 2q3 3-1 7-1 0-2 1-4 3-5 5-2 7 1 16 3 10 9 15 2 1 6 1.5t7.5 1 5.5 2.5 1.5 7 1.5 6q1 2 4.5 2H548q8 4 8 8-1 3-6.5 9t-6.5 7q-4 7-3 12 2 6 9 14 4 4 10 8.5t13 9 11 7.5q8 6 8 10t-6 9q-1 2-7 4.5t-8 4.5q-3 5-2 13 0 3 7 12 5 7 12 10l-10-14q-3-6 1-13 1-2 6-2.5t7-1.5q9-6 10-7 6-9 4-16l-13-28 15 13q2 2 3.5 5.5t3.5 7 3.5 5.5 4 4.5 5.5 5 5 4.5q-1 1-2.5 3l-3 4-2.5 4q-11 17-9 26 1 3 2 5t2 3.5 3 3.5l3 3 4.5 4 5.5 4q-10-16-10-19-1-5 3-11 1 0 10-7 0 2-1 4.5t-1 4 1 4.5q2 5 12 16 7 8 16 15 8 5 16 7l16 1-5-2.5-5.5-2.5-4.5-3-7-12q2 1 4.5 3t5 3.5 4.5 2.5q8 4 18 6 1 1 29 4-18-9-19-11-4-3-7-13 4 2 14 8.5t15 7.5q14 4 27 2 12-1 23-7-16 3-31 0l5.5-3 13.5-10q19-15 23-29-11 13-31 18 12-13 12-18-11 5-20 2-5-2-10.5-7t-9.5-10.5-5-9.5q0-3 .5-4.5t3.5-4 4-2.5q2-2 9-6t10-7q6-7 8-14 2-8 0-17-1-3-4.5-9t-3.5-8q-2-6-1-11 1-2 3-4.5t4.5-5.5 3.5-5q2 0 5-1t6-1.5 6-.5q3-1 6.5-1h7l6.5-.5 6-1.5q6-3 9-19 3-12 0-33 1-1 7.5-3.5t8.5-3.5 6-4 7-7q3-5 3-13 0-5-5-10-1-2-6-6t-7-5l-6-9q14-9 30-24 9-9 12-17 3-10 3-23-1-17-5-29-2-3-9-9-6-5-11-6-1 0-3 .5t-4.5 1.5-3.5 1q-15 2-17 1-2 0-3.5-1.5t-3-3.5-2.5-2q0-2-.5-4l-1-4-.5-4q-1-1-1-4v-5.5l-1-4.5-5-17q1 0 4.5 1.5t6.5 4.5q3 2 10 7t11.5 7.5 11 5.5 12.5 3.5 14.5 5.5 13.5 6q11 2 34 1 15 0 22-4 8-4 10.5-12.5t-.5-11.5q-4-3-9-2-10 3-14-11-1-3-1.5-8t-1.5-7q45-9 72-35 16-15 32-41t21-46q15-53 0-120-8-36-32-66-25-31-51-46-33-19-68-23-53-5-84 7-1 1-28 17-2 1-7 4t-8 5-8 3.5-8 .5q-9 0-15-6 2 18 12 27 2 3 6 4.5t7.5 3 8.5 2 8.5.5h18l8.5-.5 7-.5q6-1 20.5-4t23.5-2q18 0 43 13 24 12 41 38 9 16 14 32 4 15 4 35 0 6-4 29-2 16-15 31t-29 10q-22-7-51-46-41-57-62-76-25-21-57-25-15-2-27.5.5t-22 7T677 822q-3 2-10 8.5t-11 9.5q-6-4-14.5-11t-17-13-17.5-9q-23-10-52-9-42 0-72 25-12 10-56 60t-51 54q-2 1-5.5 4t-5 3.5-4.5 2-5 2-5 1-7 .5q-13 0-28.5-17T299 894q0-11-.5-17.5t.5-14.5 3.5-15 6.5-16 11-20q25-44 94-55 15-3 38.5 2t36.5 5q19-1 30.5-3t21.5-11.5 10-26.5q-10 7-24 7-4 0-10-2.5t-11-5.5-13.5-8.5T479 704q-23-13-76-14h-7zm0 8h6q49 1 71 12 7 4 18 10.5t19 10.5 14 5q13 0 20-4-8 23-54 23-8 0-33-5t-43-2q-72 9-100 59-12 20-17 33.5t-5.5 26-.5 29.5q1 16 10 31t20.5 23 21.5 8q13 0 19-2.5t20-11.5q8-5 50.5-54.5T487 829q27-23 68-24 28-1 50 9 15 7 42 31l7 8q7-2 13-2 11 0 22 16 4 6 3.5 14.5t.5 13.5q1 2 3 3.5t4.5 2.5 3.5 2q4 3 4 7 3-5 0-8-1-1-3.5-2.5t-4-3.5-1.5-4l1-12-2-14q-1-2-2.5-4.5t-2.5-4-3-3.5-3.5-3-4-3-3.5-2.5l-4-2-4-2.5 5.5 1.5 9.5 3.5q38 16 45 35 6 14-6 28-1 2-10.5 9T703 929q-1 7 2 12 1 2 5.5 5t5.5 5q2 4 .5 7.5t-5 5.5-6.5 2q8-5 5-13-3-7-14-14-4-2-10-3.5t-12-4-12-7.5q-9-6-12-20-4-17-3-29 1-2 1.5-5l1-6 1.5-5q-4 3-6 8-6-4-14-12t-13-12-13-8.5-18-6.5q-39-6-77 15-17 9-29 20t-28.5 31-23.5 27q-17 19-30.5 28.5T361 971l-17 17-14-16-22 3-4-23-21-6 4-30-15-10 11-19-11-21 14-24-5-23 17-14 2-24 23-8 10-22h26l13-16 18 1 20-2 11-7 17 10 19-10 40 14-26-21-27-4-20-4-27 8-24-6-24 13-24-1-12 20-25 2-13 23-16 7-4 29-13 12 6 25-16 18 15 21-17 12 21 17-21 20 26 8-17 21 21 4-14 23h24l-12 18 25-3-6 25 20-15 6 31 14-22 7 27 16-20v29l18-26-10 45q-36-5-59-17.5t-43-38.5q-40-48-45-112-2-36 2-61t19-52q26-48 80-77 39-21 94-21zm471 4q62 0 99 22 18 10 51 46 25 36 33 65 3 15 4.5 36t0 41.5-5.5 35.5q-5 19-20 44.5t-30 40.5q-28 26-70 32-4-6-6-13t-3.5-16.5-2.5-13.5l16 25v-28l14 20 7-27 11 22 6-30 17 15-5-24 22 2-10-17 20 1-12-23 18-3-14-20 22-8-18-19 18-16-14-12 13-19-14-18 5-24-12-11-3-27-14-7-12-22-21-2-11-19-21 1-21-12-21 5-24-7-17 4-24 4-22 19 34-13 18 9 14-9 10 7 17 2 16-1 11 15h23l9 21 20 7 2 24 15 12-5 22 13 23-10 20 10 18-13 10 3 29-18 5-4 22-20-3-12 15-15-15q-3-2-8.5-4.5t-10.5-5-9-6.5q-11-9-31-32-5-6-18.5-24T817 868q-14-15-33-26-32-19-58-14l-23 8q2 2 6.5 5t8.5 5.5 6 4.5q14 12 18 19 7 11 4 24-1 8-12 18 17-1 31 2 1 1 2 5t1 6q4 19 8 23 2 2 6 5.5t6.5 6.5 5.5 9q0 2 .5 7.5t.5 11v7.5q-1 1-9 14h-14q-11 0-27 7-1-9 1-14 1-2 3-3t3-3q1-1 1.5-2.5l1-3 1-3.5.5-3 10-1q6 0 14 7-3-8-11-10-2-1-12-1 2-7 6-12 1-1 2.5-2t2.5-2 2-3q2-7-5-9-5-2-12 1-10 4-16 21-4 14-2 35 1 6 4 18 32 44 43 62 3 5 9 19t10 20q10 14 22 20 3 1 6 1t6-.5 5-.5q1-1 5.5-2.5t6.5-.5q11 3 14 9 3 8 3 25-1 15-4 22-2 3-15 16-4 5-16 12-13 9-24 13-4 2-12 4.5t-12 4.5q18-1 38-4l3 4.5 6 6.5q1 1 6 4t7 5q3 6 0 12-2 5-10.5 8t-14.5 2q-38-2-52 2-49 12-66.5 9.5T677 1294q-4-1-7.5-3.5t-7-6.5-6.5-7-6.5-9-5.5-8.5-5.5-8.5-4.5-7q1-2 2-8t1-7.5 1.5-6 2.5-6.5 3.5-5.5 5.5-7.5q-5 3-7.5 5.5t-4.5 6.5-2.5 6-2 7.5-2.5 9.5q-1-2-4.5-8t-6-10-5.5-8-6-6q-3-1-6-1.5t-5.5 0-6.5-.5q2 1 5.5 2t6 2 4.5 3q3 3 10 15 2 3 9 18.5t11 21.5q18 27 31 34 18 12 47 11 6-1 13-2t13-2.5 13-3 12-2.5q15-1 50 3 4 22 0 34-1 1-1 3-1 5-5 6-1 1-11 0t-13-1q-26 1-53 5-52 9-58 14l18 3q2 0 8 4t10 4 11.5-4 10.5-5l19 3q0 2-1.5 9.5t.5 8.5q1 2 5.5 8t5.5 9q2 9 0 14-2 4-9 11-2 1-5.5 4t-5.5 5l-1-11q-6 13-19 19 8-19 7-25-1-9-4-17-2 19-2 20-4 9-13 16-4 3-15.5 9t-15.5 9q-9 8-9 19 0 3 1.5 6.5t4 7.5 3.5 6q-13-9-15-12-5-7-6-16v-19l-13-7q-14-9-18-15-6-8-5-20 1-3 2.5-5.5t4-6 3.5-4.5q-15 5-17 5-8-1-9.5-6t.5-11q1-2 1-4.5t-.5-5.5-.5-5q-1 1-2.5 3t-2.5 3.5-3 3-3.5 2.5-5.5 3-7.5 4-4.5 6q-1 3-1 6t.5 6 1.5 7.5 1 7.5q-3-3-6-5t-8-7q-3-2-4-4t-1.5-3.5 0-3.5 1-3 2-3 1.5-3q5-8 5-15t-4-14q-7-10-15-14-3-2-10.5-3t-9.5-2q-12-4-15-9-3-7 0-14 1-2 4-6t4-6q2-10-4-13-3-2-8.5-2t-8.5-1q-2-2-2.5-7t-.5-6q-6-8-8-9-1-1-7.5-1t-9.5-5q-1-4-1-15t-1-15-6-6-6-5-.5-9.5 1-11.5-1.5-12q-4-13-3-36 18-15 25.5-23t20.5-29l8 21q1 4 20 30l-10-19q-3-7-5.5-14.5t-3-13-.5-13.5.5-11.5 2-12 2.5-10.5q3-20 1-39-8 64-44 105-28 31-67 44-5 1-15.5 3t-18.5 5-13 8q-9 9-13.5 11t-8.5.5-6-1.5q-11 0-26 10 0-6 .5-9.5t1.5-5 4.5-4.5 5.5-5q4-4 9-6.5t7-5.5q1-2 2.5-10t4.5-15.5 8-11.5 6.5-10 .5-12.5 0-15.5q8-29 18.5-55t22-44.5T417 963q25-21 53-31 4-2 11-2.5t12-.5 7-1q48-15 65-11 15 4 33 0 4-1 12.5-5.5T623 906q6-2 20-3 0 1 1 3 4 17 15 25 6 4 11.5 6.5t12 4T694 945q11 5 11 11 0 7-14 9 11 11 25 3 5-3 6.5-11t-2.5-11l-9-7q-5-6 5-15 1-2 3.5-4l5-4 4.5-4q15-14 15-23-1-16-16-30-14-14-34-22l-4-2-4-1.5-4.5-1-3.5-1.5q11-9 17.5-13.5T711 809t17-4h23q30 3 53 24 19 17 61 75 35 46 55 49 38 5 51-45 4-14 4-32 0-20-5-37-5-19-14-33-15-25-43-41-23-13-46-14-12 0-26.5 3t-18.5 3q-35 3-44 1-16-5-23-18 7 4 16.5 0t27-15 27.5-15q20-7 41-8zm-79 218q3 1 7.5 2t8 1.5 7.5 1.5 7 3q22 9 41 36 15 22 17 26.5t5 16 6 17.5q5 9 21 32 3 4 8 9t7 8.5 2.5 12 1.5 10.5q7 17 23 13-2 12-20 14-16 1-34-1-3-1-8-3t-9.5-4.5-8.5-3.5q-10-2-24-8-4-2-8-5t-8.5-6l-7.5-5-9-5-8-4-2-6-2-5.5-2-6-2-5.5 2.5-2.5 2-2.5 2-2 2.5-2q-11 2-12 2-2 1-6 3.5t-5 2.5q-1 1-13 2-1-1-2.5-3.5t-2.5-4.5q8 2 11 2 10-2 12-12 1-5-1-11 6 0 7 1t2.5 3.5 2.5 3.5 4 1h2q1-8-1-14-2-3-8-8-3-2-6-3 9-9 10.5-13t1-16-1.5-16q-2-6-18-22-6-6-4-15 0-5 10-9zm-212 8q-8 11-14 14-2 1-6 1.5t-5.5 1-2 3-2.5 2.5h-11.5l-4.5 1q-4 2-10 10-6 7-6 9-1 1-1 3.5t-.5 3.5-2.5 2q-2 0-7 5-2 2-3 6.5t-2 5.5q-1 3-19 16 20-10 24-13l5.5-5.5 5.5-5.5q1-1 4.5-2t4.5-2.5 1-4.5 1-5q3-7 5.5-10t5.5-5 8 0l-.5 1.5-.5 4.5v8.5l-1 9.5q-1 2-2 3.5t-2.5 3.5-2.5 3q12-5 13-5 17-10 24-28 4-12 4-32zm54 15q1 10 4 13 2 1 5 2t4 1.5 2 2.5 2 2q2 1 9 0 2 3 5 9t5 10.5 3.5 8 2 7.5 1.5 8q4 6 19 28-1-1-4-7.5t-4-10.5q-1-3-2-7.5t-1.5-8.5-1.5-7q-2-2-4-3.5t-4-4.5q-7-13-16-41-7 5-8 5-5 0-17-7zm-12 35q-12 0-23 4-10 3-29 16 31-12 32-12 20-5 25 0 4 3 7 24l-12 2q-2 0-7.5-.5t-8-.5-7 1.5-6.5 1.5q-19 3-25 7l1 18q4 12 22 19 15 6 32 6 18 0 24-13 2-3 3-13-5 13-7 15-6 5-14 6.5t-21-1.5q-6-1-15-5.5t-16-15.5q6-6 8.5-7t12.5-1l1 12q5 12 20 10 3 0 6.5-2t5.5-5.5 2-7.5q0-8-7-14 16-1 18 0 3 1 3.5 2t1 3 1.5 2q-1-7-3-10 0-2-2-4t-2-3q-4-21-9-28-3-4-6-5-2-1-6-1zm144 44q-5 8-5 17-7-12-8-13 4-3 13-4zm-106 27q-6 19-7 19-1 2-3 3.5t-5 3.5-4 3q1-1 5-1.5t6.5-1.5 4-3.5 2-6 .5-8.5 1-8zm136 10q2 6 4.5 15.5t3.5 12.5q1 2 3 8l3 9v15l-6-12-8-15.5-17-25.5q1 0 5-1t6-2q2 0 6-4zm-108 60h-5q-10 1-22 8-15 8-15 28-1 9 4 19 3 5 12 14 0-1-1-3-1-4-2-7v-8q2 3 7 4l2-7v-5l1-6 4-4q8-4 16-1 1 0 8 5-4-12-15-13-12-2-19 4-1 1-3.5 4.5t-3.5 4.5q-2-11 9-20 8-8 29-9 14 0 24 5 2 1 4.5 2.5t4.5 3.5 5 4 4 3q3 1 9 4.5t8 4.5q8 4 18 13 8 7 16 9 4 1 13-1-2 0-7-1t-7-2q-3-3-7-6.5t-8.5-7.5-9.5-7q-5-4-19-13-3-1-10-6.5t-12-7.5q-12-5-32-5zm14 46q-15 0-18 7-4 9 4 16t17 3q4-2 4-8 0-1-3-5 5 0 8 1 15 7 24 25 1 2 7 22-1-19-2-23-4-16-15-28-2-1-10-7-5-3-14-3h-2zm-121 17q-5 0-8 2-2 2-2 4v11l7-4 1-6q3-1 9.5-2.5t9.5-2.5q-2 0-5.5-.5t-6.5-1-5-.5z" fill="undefined"/></svg>