<svg width="64" height="64" viewBox="0 0 1024 1024" xmlns="http://www.w3.org/2000/svg"><path d="M300 177q-15 0-40 22.5T217 251q-20 33-20 59v5q0 31 2 49 4 30 16 51 15 27 43 43-41 41-59 103-13 50-12 115 1 81 25 148 31 86 95 136 76 60 195 66.5T697 979q63-45 93-127 23-66 23-143H544l44 118 79-4v10q-1 11-6 23-7 15-21 26-18 15-46 22-34 8-81 6-86-3-129-51-48-53-48-168 0-64 5-96 6-38 23.5-57.5T416 509q31-8 91-11 42-1 76 11 29 10 52 30 18 16 32 37 9 15 15 32l4 13 125 2-2-15q-4-20-12-41-10-28-24-53-19-32-43-56 42-23 55-71 8-29 6-77-1-20-26-56-22-35-48-58-27-25-37-16-6 5-4 12 1 4 8 16 12 20 18 36 9 28 8 62l-1 15q0 20-2 28-4 14-17 20-15 7-46 7-16 0-26-7-6-3-15-14.5T586 339q-13-8-35-8-45 0-57 43-12-43-57-43-23 0-36 8-8 4-17 15.5T369 369q-10 7-25 7-31 0-46-7-13-6-17-20-3-8-3-28v-15q-2-34 8-62 5-16 17-36 8-12 9-16 1-7-5-12-2-3-7-3z"/></svg>