<svg width="64" height="64" viewBox="0 0 1024 1024" xmlns="http://www.w3.org/2000/svg"><path d="M160 324q-67 0-113.5 47T0 484v287q0 66 46.5 113T160 931h680q67 0 113.5-47t46.5-113V484q0-66-46.5-113T840 324H160zm160 81q80 0 80 85 0 17-19.5 72T361 627q0 27 24.5 48t54.5 31 54.5 22.5T519 754v53H124v-53q0-14 24.5-27.5t53.5-24 54-30 25-44.5q0-6-20-62.5T241 490q0-47 21-66t58-19zm289 77q118 0 202.5 84.5T896 771h-55q0-97-68-165.5T609 537v-55zm0 98q78 0 133.5 55.5T798 770h-55q0-55-40-95-39-40-94-40v-55zm38 113q16 0 27 11.5t11 27.5-11 27-27 11-27-11-11-27 11-27.5 27-11.5z"/></svg>