<svg width="64" height="64" viewBox="0 0 1024 1024" xmlns="http://www.w3.org/2000/svg"><path d="M160 323q-67 0-113.5 46.5T0 482v287q0 66 46.5 113T160 929h680q67 0 113.5-47t46.5-113V482q0-66-46.5-112.5T840 323H160zm160 81q33 0 51 13 4 2 6 4 23 20 23 67 0 15-12 52-2 4-4.5 11.5T380 560q-19 55-19 65v8q1 4 1 7 2 6 6 13 6 11 17 21h1q10 9 25 17 12 6 29 13l43 17q21 9 29 17l3 3v1l4 6v58H124v-54q0-16 36-33 3-1 9-4 3-1 4-2 66-28 83-42 5-4 10-9l2-3q1 0 2-1l1-3h1l7-15 1-7q1-3 1-8t-7-23q-2-7-9.5-27T254 543q-6-16-7-21-3-10-4-19l-2-7v-8q0-12 2-23v-1q2-11 4-17 6-16 17-26 2-2 6-4 14-10 34-13h16zm362 94h119v131h76L742 770 606 629h76V498z"/></svg>