<svg width="64" height="64" viewBox="0 0 1024 1024" xmlns="http://www.w3.org/2000/svg"><path d="M160 324q-67 0-113.5 46.5T0 484v286q0 66 46.5 113T160 930h680q67 0 113.5-47t46.5-113V484q0-67-46.5-113.5T840 324H160zm160 81q33 0 51 13 4 2 6 4 23 20 23 67 0 16-12 52-2 4-4.5 11.5T380 561q-19 55-19 65v8q1 4 1 7 2 6 6 13 6 11 17 21h1q10 9 25 17 12 6 29 13 7 3 21.5 8.5T483 722q21 10 29 18l3 2v1q3 4 4 6v58H124v-54q0-16 36-33 3-1 9-4 3-1 4-2 66-27 83-42 5-4 10-9 1-1 2-3 1 0 1.5-.5t.5-1.5q1-1 1-1.5t1-.5q4-8 7-15 1-5 1-7 1-3 1-7 0-5-7-24-2-6-9.5-26.5T254 544q-6-17-7-21-3-10-4-19-1-4-2-7v-8q0-12 2-23v-1q2-10 4-17 6-16 17-26 2-2 6-4 14-10 34-13h16zm423 93q35 0 65 17t49 45l35-34v108H783l34-34q-10-21-30-34t-44-13q-34 0-58 24t-24 57.5 24 57.5 58 24q36 0 61-28h64q-17 37-50.5 59.5T743 770q-57 0-96.5-39.5t-39.5-96 39.5-96.5 96.5-40z"/></svg>