<svg width="64" height="64" viewBox="0 0 1024 1024" xmlns="http://www.w3.org/2000/svg"><path d="M336 127l-6 10q-3 4-11 35.5T303 244l-91 423q-70 327-70 338t6 16l1 1 2 5h79q51 0 101-1 63 0 72-3 3-1 4-2 3-3 4-37.5t1-117.5V716l93-35 88 33q1 3 2 8l2 144q0 78 1 107.5t2.5 38 2 9.5 9.5 3 63 2q50 2 100 1h74l2-5 1-1q2-2 4-7t2-10q0-11-50-270L704 192q-4-20-9-37t-8-20.5-14.5-5T624 127H336zm169 181h2q11 1 22 3 32 8 53.5 31.5t26 54.5-9.5 61q-8 19-23.5 33T539 512q-35 13-69 0-32-12-51.5-40.5T399 410q0-35 26-63 34-39 80-39z"/></svg>