<svg width="64" height="64" viewBox="0 0 1024 1024" xmlns="http://www.w3.org/2000/svg"><path d="M444 25q-10 0-20.5 1T402 30q-50 11-79.5 48.5t-35.5 86 2.5 100T319 360q35 73 106.5 160.5T530 627q0 1-.5 1.5t-.5 1.5q-5 31-15.5 55T486 732q-16 19-38.5 41T377 837q-14 11-24.5 24t-19 27-14.5 29.5-12 33.5q-2 9-4 17t-6 25q-11 49-22.5 73.5T241 1112q-18 16-33.5 25.5T177 1152t-38 8q-16 2-24.5 4.5T98 1171q-6 3-11 7t-10 9q-5 4-.5 9t9.5 0q9-8 18-13 12-7 36-10 36-5 58.5-15.5T250 1121q16-15 26.5-31.5t18-37.5 15.5-56q6-28 10-41 19-68 65-108 84-74 111-107 23-30 35-63-5 33-25 71-4 9-11 20 0 1-1.5 4t-3 5-3 4.5L486 784q-19 33-24 55.5t0 50.5q5 34 2 46l-1 1q-4 5 0 9 5 5 10 0 2-2 3-6 5-15-2-52-3-16-1.5-31t7-30 17.5-36q0-1 2-4t4.5-7 3.5-6q6-11 11-20 33-66 27-121l-1-3q26-8 72-28.5T730.5 537 836 445q22-27 39.5-58.5t30-65 17-67 .5-63.5-20.5-57T859 88q-32-21-66.5-25T730 69t-51 23-40.5 25-24.5 12q-6 0-21-16.5T561 77t-48.5-35.5T444 25zm20 912h-1 1z"/></svg>