<?xml version="1.0" encoding="utf-8"?>
<svg width="1792" height="1792" xmlns="http://www.w3.org/2000/svg"><path d="M481 687q-34 0-62 17-26 23-29 54-3 22 10 52 10 21 42 25 13 2 39-3t36-12q21-17 25-47 5-39-2-57-2-3-4-5.5t-5.5-5-6-4.5-7-3.5L510 695l-7.5-2.5-7-2-8-2-6.5-1.5zm283 2q-20 0-40 10-23 12-27 42-8 111 5 200 3 24 0 49 0 20-2 29 0 17-10 25-11 8-35 12-4 1-19.5 3t-19.5 2h-20q-24 0-32-7-2-2-2.5-5.5t0-9.5.5-7q0-35-2-50-5-30-40.5-57.5T441 909q-11 3-18 19t-9 32.5-4 38.5-3 28q-5 46 5 106 4 21 10 79 0 76-5 113-2 44-12 145-4 30 7 44 11 18 39 22 14 2 41-1t38-8q24-12 27-42 8-95-2-183-3-14-3-44v-16.5l1-8.5 2.5-9 4.5-8q4-6 22-12 5-1 11-2.5t12-2.5 11-2q27-4 54 0 9 0 20 7 5 4 6.5 10.5t3 14l2.5 12.5q8 22 18 42 16 29 46 37 17 4 33-5t25.5-25.5T840 1257t7-29q2-15 .5-64.5T842 1093t-10-79q0-76 5-113 2-45 13-145 3-30-8-44-9-15-69-23h-9zm54 699q-19 0-44 4t-35 11q-21 17-25 47-4 26 0 52 3 28 32 32 13 0 29-1.5t34-6 26-9.5q26-23 29-55 8-21-5-49-10-20-41-25z" fill="undefined"/></svg>