<?xml version="1.0" encoding="utf-8"?>
<svg width="1792" height="1792" xmlns="http://www.w3.org/2000/svg"><path d="M572 537q-10 0-20.5 1t-21.5 4q-50 11-79.5 48.5t-35.5 86 2.5 100T447 872q35 73 106.5 160.5T658 1139q0 1-.5 1.5t-.5 1.5q-5 31-15.5 55t-27.5 47q-16 19-38.5 41t-70.5 64q-14 11-24.5 24t-19 27-14.5 29.5-12 33.5q-2 9-4 17t-6 25q-11 49-22.5 73.5T369 1624q-18 16-33.5 25.5T305 1664t-38 8q-16 2-24.5 4.5T226 1683q-6 3-11 7t-10 9q-5 4-.5 9t9.5 0q9-8 18-13 12-7 36-10 36-5 58.5-15.5T378 1633q16-15 26.5-31.5t18-37.5 15.5-56q6-28 10-41 19-68 65-108 84-74 111-107 23-30 35-63-5 33-25 71-4 9-11 20 0 1-1.5 4t-3 5-3 4.5l-1.5 2.5q-19 33-24 55.5t0 50.5q5 34 2 46l-1 1q-4 5 0 9 5 5 10 0 2-2 3-6 5-15-2-52-3-16-1.5-31t7-30 17.5-36q0-1 2-4t4.5-7 3.5-6q6-11 11-20 33-66 27-121l-1-3q26-8 72-28.5t114.5-64.5T964 957q22-27 39.5-58.5t30-65 17-67 .5-63.5-20.5-57-43.5-46q-32-21-66.5-25t-62.5 6-51 23-40.5 25-24.5 12q-6 0-21-16.5T689 589t-48.5-35.5T572 537zm20 912h-1 1z" fill="undefined"/></svg>