<?xml version="1.0" encoding="utf-8"?>
<svg width="1792" height="1792" xmlns="http://www.w3.org/2000/svg"><path d="M249 804q-50 0-85.5 33.5T128 918v437q0 47 35.5 80.5T249 1469h758q33 0 61-15t44-41.5 16-57.5V918q0-47-35.5-80.5T1007 804H249zm-1 100h760q4 0 8 2t6 5.5 2 7.5v436q0 6-5 10.5t-11 4.5H547q-7 0-11.5-4.5T531 1355v-178q0-38-28.5-66.5T434 1082h-48q-17 0-29 13t-12 29 12 27 29 11h48q7 0 11.5 4.5t4.5 10.5v178q0 6-4.5 10.5T434 1370H248q-7 0-11.5-4.5T232 1355V919q0-4 2-7.5t6-5.5 8-2zm232.5 42q-22.5 0-38.5 15t-16 37q0 21 16 38t38.5 17 38.5-17 16-38q0-22-16-37t-38.5-15z" fill="undefined"/></svg>