<svg width="64" height="64" viewBox="0 0 1024 1024" xmlns="http://www.w3.org/2000/svg"><path d="M121 292q-33 0-60.5 15.5t-44 41.5T0 407v436q0 31 16.5 57t44 41.5T121 957h758q33 0 60.5-15.5t44-41.5 16.5-57V406q0-31-16.5-57t-44-41.5T879 292H121zm-1 100h760q6 0 11 4.5t5 10.5v436q0 6-5 10.5t-11 4.5H419q-7 0-11.5-4.5T403 843V665q0-25-13-47t-35.5-35-48.5-13h-48q-17 0-29 13t-12 29 12 27 28 11h49q7 0 11.5 4.5T322 665v178q0 6-4.5 10.5T306 858H120q-7 0-11.5-4.5T104 843V407q0-6 4.5-10.5T120 392zm233 42q-23 0-39 15t-16 36.5 16 38.5 38.5 17 38.5-17 16-38.5-16-36.5-38-15z"/></svg>