<svg width="64" height="64" viewBox="0 0 1024 1024" xmlns="http://www.w3.org/2000/svg"><path d="M121 292q-50 0-85.5 33.5T0 406v437q0 47 35.5 80.5T121 957h758q33 0 61-15t44-41.5 16-57.5V406q0-47-35.5-80.5T879 292H121zm-1 100h760q4 0 8 2t6 5.5 2 7.5v436q0 6-5 10.5t-11 4.5H419q-7 0-11.5-4.5T403 843V665q0-38-28.5-66.5T306 570h-48q-17 0-29 13t-12 29 12 27 29 11h48q7 0 11.5 4.5T322 665v178q0 6-4.5 10.5T306 858H120q-7 0-11.5-4.5T104 843V407q0-4 2-7.5t6-5.5 8-2zm232.5 42q-22.5 0-38.5 15t-16 37q0 21 16 38t38.5 17 38.5-17 16-38q0-22-16-37t-38.5-15z"/></svg>