<svg width="1792" height="1792" xmlns="http://www.w3.org/2000/svg"><path d="M203 689v850h850V689H203zm647 385q77 0 113 64l-62 40q-19-34-51-34-17 0-27.5 9.5T812 1178q0 17 10.5 27t38.5 22l20 8q55 24 80.5 51.5T987 1361q0 52-37 81.5t-96 29.5q-53 0-89.5-22.5T709 1390l65-37q30 48 79 48 24 0 39-11t15-28q0-13-8-23t-18-15-32-15l-20-9q-31-13-51-27.5t-32.5-38T733 1180q0-46 32-76t85-30zm-264 5h80v273q0 60-32.5 90t-87.5 30q-85 0-120-73l66-39q7 14 12.5 21t15.5 13.5 23 6.5q21 0 32-11t11-39v-272z" fill="undefined"/></svg>