<svg width="64" height="64" viewBox="0 0 1024 1024" xmlns="http://www.w3.org/2000/svg"><path d="M854 175q-27 0-46 19t-19 45.5 18.5 45 45 18.5 45.5-18.5 19-45-18.5-45.5-44.5-19zm-649 17l-34 34q-83 83-88 154t68 144l82 82q45 46 48.5 78T248 753q-16 19-15.5 44.5T251 841t43.5 18.5T339 844l1 1q25-25 47-32t45.5 4.5T486 859l95 96q75 74 147.5 70T884 938l33-34-71-72-18 18q-47 47-84 47.5T662 853L550 741q-86-86-169-17l-11-11q35-42 31.5-83T356 548L256 447q-31-31-40.5-56.5t1-51.5 42.5-59l17-17zm498 134q-28 0-46.5 19T638 390.5t18.5 45.5 45 19 45.5-19 19-45.5-18.5-45T703 326zM551 477q-27 0-46 19t-19 45.5 19 45.5 45.5 19 45.5-19 19-45.5-19-45-45-19.5z"/></svg>