<svg width="64" height="64" viewBox="0 0 1024 1024" xmlns="http://www.w3.org/2000/svg"><path d="M278 256q-95 0-128 28-32 28-32 113v92q0 57-20 79t-74 22H0v55h24q53 0 74 22 20 22 20 80v92q0 84 32 113 33 28 128 28h25v-55h-27q-54 0-70-17-16-16-16-71v-95q0-59-17.5-86.5T113 618q42-10 59-37 18-27 18-87v-95q0-55 16-71 16-17 70-17h27v-55h-25zm419 0v55h27q53 0 70 17 16 16 16 71v95q0 60 17 87t60 37q-42 10-59.5 37T810 742v95q0 55-16 71-17 17-70 17h-27v55h24q95 0 127-28 32-29 32-113v-92q0-58 21-80t75-22h24v-55h-24q-54 0-75-22t-21-79v-92q0-85-32-113t-127-28h-24zm-80 85q-27 0-51 14t-37 39q-16 31-11 64l-1-2q1 3 0 8.5T502.5 487t-41 34-50 22-31.5 1l-8-4 2 3q-3-2-6-3-37-20-77-7.5T231 582t-7.5 77 49.5 60q18 9 38 11t39-3.5 34-18.5l-1 2q1-1 3-2t9.5-2.5 16.5-.5 25 6 34 15q56 30 59 65-1 28 13.5 53.5T584 884q37 19 77 7t60-49 7.5-77.5T679 705q-5-3-10-5h2q-2-1-6-5t-11-25-7.5-53 5-53.5T662 537l6-5h-3q28-14 43-43 12-25 11.5-51t-15-49.5T666 352q-23-12-49-11zm2 16q27 0 46 17-9-9-30.5-7T593 382q6 6 6 14 0 6-2.5 11t-7 8-10.5 3q-3 0-6-1h-1q-9-3-15 6-22 42-3 66-19-21-18-51t22-53q26-28 61-28zm-69 167q7 0 11 2l10 6q9 4 19 7 21 20 22.5 81T590 702q-14 6-25 16-26 9-81-20-58-31-62-60 1-13-2-26l1 1q-1-3 0-8t15-21 41-33q42-26 70-27h3zm-227 24q27 0 46 17h-1q-9-9-30-7t-41 15q5 6 6 14 0 5-2.5 10t-7.5 8.5-11 3.5q-2 0-5-1h-2q-8-3-15 6-9 18-10 36.5t8 28.5q-20-20-19-50t23-53q25-28 61-28zm314 161q27 0 45 17-9-9-30-6.5T611 735q5 5 5 13 1 6-2 11t-7.5 8-10.5 3h-7q-8-3-15 5-10 19-10.5 37t8.5 29q-20-20-19-50t23-54q25-28 61-28z"/></svg>