<?xml version="1.0" encoding="utf-8"?>
<svg width="1792" height="1792" xmlns="http://www.w3.org/2000/svg"><path d="M628 688q-115 0-213 57T260 900t-57 213.5 57 213T415 1481t213 57 213-57 155-154.5 57-213T996 900 841 745t-213-57zm2.5 65q98.5 0 182.5 49t133 132.5 49 182.5q0 74-29 141.5T888.5 1375t-116 78-142.5 29q-98 0-182-49t-133-133-49-183 49-182.5T448 802t182.5-49zM847 874H655v67h17q15 0 18.5 2.5t3.5 7.5q0 2-2 5t-11 13l-134 140V980q0-19 3-26 4-7 11-11 4-2 25-2h13v-67H389v67h18q16 0 22 3.5t9 10.5 3 29v264q0 22-2 28-3 7-9 10-7 4-25 4h-16v67h210v-67h-17q-18 0-23.5-3t-8.5-10-3-25v-48l65-64 75 121q10 16 10 20t-5 6q-5 3-29 3h-9v67h217v-67h-8q-18 0-28-7-7-4-23-28l-124-188 104-101q13-12 19-17 8-5 13-7 5-1 19-1h7l17-1v-66h-20z" fill="undefined"/></svg>