<svg width="64" height="64" viewBox="0 0 1024 1024" xmlns="http://www.w3.org/2000/svg"><path d="M500 176q-115 0-213 57T132 388 75 601.5t57 213T287 969t213 57 213-57 155-154.5 57-213T868 388 713 233t-213-57zm2.5 65q98.5 0 182.5 49t133 132.5T867 605q0 74-29 141.5T760.5 863t-116 78T502 970q-98 0-182-49T187 788t-49-183 49-182.5T320 290t182.5-49zM719 362H527v67h17q15 0 18.5 2.5t3.5 7.5q0 2-2 5t-11 13L419 597V468q0-19 3-26 4-7 11-11 4-2 25-2h13v-67H261v67h18q16 0 22 3.5t9 10.5 3 29v264q0 22-2 28-3 7-9 10-7 4-25 4h-16v67h210v-67h-17q-18 0-23.5-3t-8.5-10-3-25v-48l65-64 75 121q10 16 10 20t-5 6q-5 3-29 3h-9v67h217v-67h-8q-18 0-28-7-7-4-23-28L560 555l104-101q13-12 19-17 8-5 13-7 5-1 19-1h7l17-1v-66h-20z"/></svg>