<?xml version="1.0" encoding="utf-8"?>
<svg width="1792" height="1792" xmlns="http://www.w3.org/2000/svg"><path d="M1050 832q-1-1-3 0H201q-37-1-59 31-17 26-13 57v461q2 37 35 55 25 14 55 10v1h421l421-1h1q37-2 55-35 14-24 10-55h1v-228.5l-1-228.5v-2q-2-36-35-55-19-10-42-10zm-4 47h2q12 0 20 5 10 6 11 16 1 89 1 228v231q2 16-5 29-5 10-16 10-71 1-419.5 1H216q-16 2-28-5-10-5-11-16V918l-1-2q-2-14 6-26 7-10 18-10h840q3-1 6-1zm-773 97v327h96v-188l96 120 96-120v188h96V976h-96l-96 120-96-120h-96zm552 0v168h-96l144 159 144-159h-96V976h-96z" fill="undefined"/></svg>