<svg width="64" height="64" viewBox="0 0 1024 1024" xmlns="http://www.w3.org/2000/svg"><path d="M499 112q-203 2-294 44l-28 18Q82 247 76 393q-1 10-1 19v104.5l1 51.5q1 53 5 96.5T93.5 755t24 84 38.5 70 57 56 77 34q109 29 210 24 29-2 56.5-6.5t45.5-9.5 32-10 21-8l7-3-4-75q-1 0-4 1t-12.5 3.5-19 4.5-24.5 4.5-29.5 4T536 931t-35 0q-25-1-41-2t-39-5-37.5-11-29-18.5-23.5-30-12-42.5q-2-14-2-29 81 20 183 25 65 3 181-11 84-10 150-54.5t76-93.5q5-29 9-64.5t5.5-66.5 2.5-58 1-43v-15q0-41-7-77t-18.5-61-25.5-46-27.5-34-25.5-22-18.5-12.5-7.5-3.5q-91-42-293-44h-3zM367 267q73 0 109 56l24 39 24-39q18-28 45.5-42t63.5-14q32 0 57 11t45 32q18 22 27.5 51t9.5 66v239h-95V434q0-37-15.5-55.5T616 360q-69 0-69 88v127h-94V448q0-88-69-88-61 0-61 74v232h-95V427q0-37 9.5-66t27.5-51q39-43 102-43z"/></svg>