<svg width="64" height="64" viewBox="0 0 1024 1024" xmlns="http://www.w3.org/2000/svg"><path d="M605 227q-12 0-20.5 8.5T576 256v271q0 8 4 14.5t10.5 10.5 14.5 4h277q12 0 20.5-8.5T911 527V256q0-12-8.5-20.5T882 227H605zm-177 30q-42 1-70.5 30.5T329 358v318q0 42 29.5 71.5T430 777h318q42 0 71.5-29.5T849 676v-77H605q-19 0-36-9.5t-26.5-26T533 527V257H428zM212 362q-25 0-47.5 9.5t-39 26T99 437t-10 47v420q0 51 36 87t87 36h421q51 0 87-36t36-87v-84H430q-29 0-56-11.5T327.5 778 297 732t-11-56V362h-74z"/></svg>