<?xml version="1.0" encoding="utf-8"?>
<svg width="1792" height="1792" xmlns="http://www.w3.org/2000/svg"><path d="M733 739q-12 0-20.5 8.5T704 768v271q0 8 4 14.5t10.5 10.5 14.5 4h277q12 0 20.5-8.5t8.5-20.5V768q0-12-8.5-20.5T1010 739H733zm-177 30q-42 1-70.5 30.5T457 870v318q0 42 29.5 71.5T558 1289h318q42 0 71.5-29.5T977 1188v-77H733q-19 0-36-9.5t-26.5-26-9.5-36.5V769H556zM340 874q-25 0-47.5 9.5t-39 26T227 949t-10 47v420q0 51 36 87t87 36h421q51 0 87-36t36-87v-84H558q-29 0-56-11.5t-46.5-30.5-30.5-46-11-56V874h-74z" fill="undefined"/></svg>