<svg width="64" height="64" viewBox="0 0 1024 1024" xmlns="http://www.w3.org/2000/svg"><path d="M500 120q-122 0-227 56-102 55-162 149-61 96-61 208.5T111 742q60 94 162 148 105 57 227 57 83 0 161-27 4-2 8.5-.5t7.5 5.5q28 38 70 64t92 37q6 1 9-4.5t0-9.5q-26-33-34-73.5t2.5-80T855 788q45-54 70-118 25-66 25-137 0-112-61-208-60-94-162-149-105-56-227-56zm-1 192q5 0 8.5 2.5t4.5 6.5l48 137 146 3q9 0 12 9t-5 15l-115 88 42 139q2 9-5.5 14.5t-15.5.5l-119-84-119 84q-8 5-15.5-.5T360 712l42-139-115-88q-8-6-5-15t12-9l146-3 47-137q3-9 12-9z"/></svg>