<svg width="1792" height="1792" xmlns="http://www.w3.org/2000/svg"><path d="M539 749q-25 1-51.5 7.5t-47 15.5-37 17.5T378 805l-9 6q-50 33-118.5 92T141 1005q7 1 21-4t20-6l99-27q-8 7-36.5 30t-47 39-39.5 38.5-30 39.5q5-2 57-26t71-26q-3 3-24.5 22t-33 30-26.5 27-21 27l1 6q2-1 14-8.5t19.5-11.5 20-10.5T227 1134t18.5-7.5 15.5-4.5q-77 83-89 125 19-13 55-32.5t55-26.5q-3 8-13.5 21.5T255 1229q-4 7-15 20.5t-18.5 26-8.5 23.5q30-29 73-53-2 6-18.5 32t-19.5 44q4-5 10.5-9.5t15.5-8 14.5-6 16.5-6 14-4.5l-3 2q0 1-3.5 3.5t-7.5 6-10 8.5-11.5 11-10.5 12q5-1 8-1 2-1 9 1 3 1 6 1l-32 13q143 188 395 166l-13-28q9-16 15.5-45t11-51.5T692 1340t40-37q10-5 24.5-13.5t20-11 16.5-6 22-2.5 28 4q7 1 37 9t54 12 39 0q47-27 68-44 12 3 20 3t14-1.5 10.5-5.5 8.5-11q28-75 33-86l1-15q-5-16-8-42t-4-45.5-4-23.5q-13-19-48-35.5t-70.5-28-76-32T855 883q13-43-37-91-17-13-41.5-15.5t-42.5 1-43 10.5q-20-4-41.5-10.5T602 763t-41-13q-8-1-18-1h-4zm-1 48q21 0 57.5 10t47.5 11q-1 3-3.5 5.5t-5.5 5-4 4.5-5 7-4.5 7 .5 8l32-12q12-3 41-13t51.5-14.5T790 814l24 31q-18-15-40-15.5t-39 6.5-41.5 18-39.5 14q-11 2-30.5 7.5T596 883q29 22 75 17 3 15 18 34.5t29 22.5q-1-6-7-20.5t-7.5-23T708 889q2-1 10.5-6.5t13.5-8 12-5 13.5-1.5 12.5 6q-6 1-11.5 3t-13 6.5-9.5 6.5q-6 4-8.5 14t-.5 14q7 20 41 33.5t88 13.5q-3-4-14-16t-20-23.5-8-17.5q33 33 88.5 57.5t102 40.5 59.5 29q1 5-13.5 22.5T1040 1080q-4 11 29 51 2 2 3 4-7-48 4-46 10 2 12 32 2 25-7 48l-35-8q-23-2-43-5t-40-9.5-32-11-32.5-16.5-29-17.5l-34-22L801 1056q-22-14-93-71l-50-19q13 15 28.5 32.5T708 1023t12 16 5 16.5-4.5 17T708 1098l-17-31-7-55q-8 29-11 50.5t0 46.5 20.5 45 48.5 35l50 7q-14-12-22-19.5t-13.5-19-2.5-21.5q6 12 21.5 24t31 20 41.5 17 40.5 13 41 11 31.5 8q15 6 24 15-4 4-8 6.5t-7.5 4-7 2-8.5 2-10 3.5q-8-3-21-7t-23-7-22-7.5-20.5-8.5-16.5-9.5-12-12.5q4 6-25 13-18 5-65 14-43 8-44 10-1 1 4 1-35-1-70-21.5t-63-51.5l-9-3q0 13 6.5 27t14.5 24 19 24 16 23l38 17-9 6-10 6-9.5 6-9 7.5-7.5 8-7 9.5q-1 2-3 6.5t-3 7-2 6.5-.5 7.5 1.5 6.5q21-23 61-33l-16 25q2 18-9 49-2-5-5-9-47-21-71-40 13 42 62 82-5 12-12 23-36-25-54-42 4 8 8.5 20.5t8.5 23 9 17.5q-133-10-217-82l60-34q-7 1-20.5 4.5t-30.5 8-26 6.5q-3-4-7-8 7-4 25-12.5t29.5-14.5 23.5-15.5 17-17.5l-6 2-61 3q-5-17 3.5-37t14.5-31.5-5-31.5q-35-46-52-86t-12-84q8 17 14 22 0-4 2.5-20t4.5-23q4 14 6.5 20.5t9 17T363 1083l1-2q-8-32-7-63.5t16.5-61.5 44.5-48q-6 2-28 5t-36 9q2-1 5.5-11t9.5-21 13-17q5-4 11-9.5t11.5-10T416 845q49-38 102-47 8-1 16-1h4zm15 47q-28 0-60 12l-13 10q-28 33-31 55l3 4q13-16 37-28 0 18 9.5 33.5T524 955h3q-7-41 8-77 7-6 24-15t24-16q-14-4-30-3zm200 59q8 0 15 3-6 3-8 11-1 4 0 7-11-8-11-21h4zm-163 1q1 5 5 10.5t9.5 12.5 8.5 10q-28 2-60 11 5 4 14.5 9t13.5 9q-5 2-19 6.5t-20.5 7.5-17 9-18.5 13l5 2q64-13 133 2l3-2-25-46 38-8q-39-37-70-46zm200 14q8 7 15 16-11 3-22 0 5-3 7-10v-6zm-63 24q13 39 37 41 33 6 62 1-12-6-32.5-11T756 961t-29-19zm-231 62q-46 35-38 95 3 10-1 27t-5.5 28 8.5 26q22 25 63 55l-2-8q-35-41-46-74 5 1 16.5 5.5t18.5 7 17.5 5.5 19.5 4q-6-9-16-21.5t-17-21.5-16-23-12-24-5-25.5 4-28.5q0-4 6.5-13t4.5-14zm360 129q2 0 5.5 1t6 2 2.5 2q-3 2-8.5 7t-8.5 6zm40 21q4 0 10 4l-13 13 1-17h2zm30 11l10 6q-1 0-3 2t-3.5 4.5-3.5 5-3 2.5q1-1 1-6.5v-9.5l2-4zm31 14h2l3.5 1 3.5 1q0 1-5 9.5t-10 8.5l4-8q-1-12 2-12zm32 6l12 3-13 22zm35 6q1 0 12 4l-15 11q-1-15 3-15zm37 6q5 0 7 2 0 4-5.5 10.5t-6.5 8.5q1-18 0-21h5z" fill="undefined"/></svg>