<?xml version="1.0" encoding="utf-8"?>
<svg width="1792" height="1792" xmlns="http://www.w3.org/2000/svg"><path d="M632 740q-16 0-33 1-71 5-130 31-38 17-77 44-91 65-133 171-16 39-17 45-26 92-4 191.5t78 166T459 1502q72 39 171 38t178-41q90-46 152-139 67-100 67-224 0-111-67-216-51-81-133.5-130.5T632 740zm-34 190h54q16 0 29 9.5t18 24.5l106 320q7 20-2.5 38.5T774 1347q-8 2-16 2-16 0-29-9t-18-25l-23-73H568l-23 73q-5 15-18 24.5t-29 9.5q-8 0-15-2-20-6-29.5-24t-3.5-38l101-320q5-16 18-25.5t29-9.5z" fill="undefined"/></svg>