<svg width="64" height="64" viewBox="0 0 1024 1024" xmlns="http://www.w3.org/2000/svg"><path d="M242 226q-54 9-93.5 49T100 369v515q9 53 48 92t91 49l4 1h515l3-1q53-10 91.5-49.5T900 883V368q-9-53-49-93t-94-49H242zm560 99v76q-106 1-284 0l1-75zm-321 1q1 25 1 75H200v-75h281zm179 112h142v76H518v-76h142zm-178 0v76l-282-1v-74zm72 112q55 0 165 1h82v76l-283 1v-78h36zm-72 0v78H200v-77h282v-1zm36 115h283q1 18 0 55v20H519zm-207 35q25 0 48.5 10.5T399 740q22 25 25 59.5t-12 66-45 46.5q-28 16-62.5 13.5t-62-22.5-36.5-52q-12-29-5-61t29-55.5 53-30.5q14-4 28-4z"/></svg>