<svg width="64" height="64" viewBox="0 0 1024 1024" xmlns="http://www.w3.org/2000/svg"><path d="M242 226q-54 9-93.5 49T100 369v515q13 75 79 117 29 18 60 24 2 1 4 1h515q1 0 3-1 53-10 91.5-49.5T900 883V368q-9-53-49-93t-94-49H242zm560 99v76q-106 1-284 0v-75q48 0 142.5-.5T802 325zm-321 1q1 25 1 75H200v-75h281zm179 112h142v76H518v-76h142zm-178 0v76H200v-75q31 0 129.5-.5T482 438zm72 112l248 1q0 51-1 76-31 0-283 1v-78h36zm-72 0v78H200v-77h193l89-1zm36 115h283v75H518v-75zm-207 35q55 0 88 40 34 38 24 93.5T367 912q-43 25-94.5 6T206 851q-18-45 6-91t71-56q14-4 28-4z"/></svg>