<svg width="64" height="64" viewBox="0 0 1024 1024" xmlns="http://www.w3.org/2000/svg"><path d="M500 228q-52 0-101.5 12.5t-96 39T217 345q-57 57-87 130.5t-30 152 30 152 87.5 131 131 87.5 151.5 30 151.5-30 131-87.5 87.5-131 30-152-30-152-87.5-131-131-87T500 228zm0 75q134 0 229.5 95T825 627.5t-95.5 230T500 953q-135 0-230-95-62-62-84-146t0-168 84-146q96-95 230-95zm-31 103v73q-30 5-47 21-26 24-26 67 0 34 19 55 17 19 54 29l1 .5 2 1.5 26 6q24 6 32 13 1 0 1 .5v1.5q7 7 7 19 0 11-7 19-3 4-4 5-12 7-34 7-11 0-24-2-15-3-21-5-24-7-50-22v63q25 10 51 16 7 1 20 3v72h62v-73q30-5 46-20 26-24 26-72 0-37-18-56-16-18-54-28l-3.5-1-4.5-1-29-7q-16-4-25-10-1 0-2-.5l-1-.5q-8-7-8-18 0-15 11-23l1-1q11-7 35-7 14 0 26 3 2 0 13 3 23 6 42 16v-62q-25-8-47-11-1 0-4-.5t-4-.5v-73h-62zm-132 43q-16 47-24 91-8 45-8 87t8 87q8 43 24 91h31q-14-49-20-91-7-47-7-87 0-41 7-88 6-42 20-90h-31zm297 0q14 49 21 90 6 42 6 87.5t-6 87.5q-6 41-21 91h31q16-48 23-91 8-45 8-87t-8-87q-7-43-23-91h-31z"/></svg>