<svg width="1792" height="1792" xmlns="http://www.w3.org/2000/svg"><path d="M628 739q-109 0-201 53.5t-145.5 146-53.5 201 53.5 200.5T427 1485.5t201 53.5 201-53.5T974.5 1340t53.5-201q0-81-31.5-155t-85-127.5-128-85.5T628 739zm0 75q33 0 73 10 72 16 129 61.5t90 112 33 141.5q0 66-26 126.5t-69.5 104-103.5 69-126 25.5q-88 0-163-43.5T346.5 1302 303 1139t43.5-163T465 857.5 628 814zm-23 130v2h3v105l-17-50q2 2 4 5l-4-10h-11l1 1h1-77l-104 312h73l4-12-.5.5-1.5 1.5 15-46h112l17 56h61l13 1-2-8q0 2-1 2l-15-47h53q57 0 84-22 10-8 17-18l2-4q0-1 .5-1.5t.5-1.5v-2l1-1q2-5 3-8v-3q4-15 4-28 0-30-12-50-13-20-37-28 19-8 28.5-23.5t9.5-38.5q0-19-6-34l-.5-1-.5-1v-2q-9-24-36-36-2 0-4-.5t-3-.5q2 0 3 .5t2.5 1.5 2.5 1q-9-3-19-6 10 2 11 3-7-3-18-4-17-3-44-3h-31zm185 13q4 2 5 3 5 2 8 5-6-5-13-8zm-167 3h95q54 0 76 16t22 52q0 19-8 32-8 12-21 18-10 4-10 13 1 10 10 13 19 6 29 22 11 17 11 42 0 38-22 56-24 19-75 19h-59l-48-147V960zm47 24h-2q-1 0-2 1-1 2-1 3v69q0 4 2 6 1 1 3 1h44q21 0 33-10 11-10 11-30t-11-30q-12-10-33-10h-44zm10 14h34q15 0 23 7 7 6 7 19t-7 19q-8 7-23 7h-34v-52zm-132 72l37 125h-76zm120 50h-2q-1 0-1 1l-1 1q-1 1-1 2t-1 2v77q0 3 3 5 1 1 2 1.5t2 .5h50q0-1 1-1h1q0-1 1-1 25-1 36-9 15-13 15-35 0-21-15-33-15-11-41-11h-49zm9 14h40q22 0 32 8 9 7 9 22 0 16-9 24-9 7-30 8h-42v-62z" fill="undefined"/></svg>