<svg width="64" height="64" viewBox="0 0 1024 1024" xmlns="http://www.w3.org/2000/svg"><path d="M500 227q-109 0-202 55-90 53-143 143-55 94-55 202.5T155 829q53 91 143 144 93 54 202 54t202-54q90-53 143-144 55-93 55-201.5T845 425q-53-90-143-143-93-55-202-55zm0 75q33 0 73 10 72 16 129.5 62T792 484q33 68 33 143 0 88-44 164-44 74-117 117-76 44-164 44t-164-44q-73-43-117-117-44-76-44-164t44-164q44-73 117-116 76-45 164-45zm-23 130v2h3v105l-17-50q2 2 4 5l-4-10h-11l2 1h-77L273 797h73l4-12-2 2 15-46h112l17 56h61l13 1-2-8-1 2-15-47h53q57 0 84-22 10-8 17-18l2-4 5-14v-3q4-15 4-28 0-30-12.5-50T664 578q19-8 28.5-23.5T702 516q0-19-6-34l-1-4q-9-24-36-36l-7-1 8 3q-9-3-19-6l11 3q-7-3-18-4-17-4-44-4h-31zm185 13q1 0 1 1l4 2q5 2 8 5-6-5-13-8zm-167 3h95q54 0 76 16t22 52q-1 19-8.5 31.5T659 566q-10 4-10 13 0 4 3 8t7 5q19 6 29.5 22.5T699 656q0 38-23 56.5T602 731h-59l-48-148V448zm47 24h-2l-2 1q-1 2-1 3v69q0 3 1.5 5t3.5 2h44q21 0 32.5-10t11.5-30-11.5-30-32.5-10h-44zm10 14h34q15 0 22.5 6.5T616 512t-7.5 19.5T586 538h-34v-52zm-132 72l37 125h-76zm120 50h-2l-2 2-2 4v77q0 3 2.5 5t4.5 2h50l3-2q25-1 36-9 15-13 15-34.5t-15-33-41-11.5h-49zm9 14h40q22 0 31.5 7.5t9.5 23-9 23-30 7.5h-42v-61z"/></svg>