<svg width="64" height="64" viewBox="0 0 1024 1024" xmlns="http://www.w3.org/2000/svg"><path d="M500 227q-78 0-151 29-74 31-131.5 88.5T129 476q-29 73-29 151t29 150q31 75 88.5 132.5T349 998q73 29 151 29t151-29q74-31 131.5-88.5T871 778q29-73 29-151t-29-151q-31-74-88.5-131.5T651 256q-73-29-151-29zm0 75q65 0 124.5 24.5T730 397t70.5 105.5T825 627t-24.5 124.5T730 857t-105.5 70.5T500 952t-124.5-24.5T270 857q-62-63-84-148-22-82 0-164 22-85 84-148 46-46 105.5-70.5T500 302zm54 95l47 49-46-49h-1zm-238 3v454h368V536l-4-4-125-132H316zm25 25h204l5 5v109h-1v3h70l-45-2h79l6 6v283H341h317l-3-191v189H343V430h-2v-5zm204 5q2 2 3 10v-10h-3zm140 105v319h2V536zm-165 14l31 94-31-94zm-72 1l-85 253q0 1 2 1h55l-4 1h7l4-10-3 5 13-43h93l13 46q-1-1-2-4l-1-2 2 10h11-1q-5-2-7-3h56l-6 2q9-1 9-2l-13-40 10 33-83-247h-70zm35 59l31 102h-62zm-44 151v1l21-1h-21z"/></svg>