<svg width="64" height="64" viewBox="0 0 1024 1024" xmlns="http://www.w3.org/2000/svg"><path d="M500 227q-52 0-101.5 13t-96 39.5T217 344q-57 58-87 131.5T100 627t30 151.5 87.5 131 131 87.5 151.5 30 151.5-30 131-87.5 87.5-131T900 627t-30-151.5-87.5-131-131-87.5T500 227zm0 75q134 0 229.5 95.5T825 627t-95.5 229.5T500 952t-230-95q-62-63-84-146.5t0-167T270 397q96-95 230-95zm54 95l47 49-46-49h-1zm-238 3v454h368V536l-4-4-121-128-4-4H316zm25 25h204l5 5v110h-1v2h70l-18-1-27-1h79l6 6v283H341h317l-2-143-1-48v189H343V430h-2v-5zm204 5q2 2 3 10v-10h-3zm140 105v319h2V536zm-165 14l31 94zm-72 1l-85 253q0 1 2 1h55q-1 1-2 1h-2 7l4-10q-2 3-3 5l13-43h93l13 46-3-6 2 10h11q-6-2-8-3h56q-1 1-6 2 9-1 9-2l-2.5-7.5-6-17.5-4.5-15q9 32 10 33l-83-247h-70zm35 59l31 102h-62zm-44 151v1l21-1h-21z"/></svg>