<svg width="64" height="64" viewBox="0 0 1024 1024" xmlns="http://www.w3.org/2000/svg"><path d="M501 178q-103 0-197 46-51 25-104 78.5T121 410q-46 94-46 194t44.5 189T246 944q36 27 86 49t93 30q14 2 42 3t54 0q109-4 200-59 89-53 143-141 55-91 60-199 3-62-7-112t-36.5-104.5-79.5-108T697 224q-94-46-196-46zm193 126q22-1 43 8.5t37 26.5q9 10 10 28 2 21-4 70-6 43-21 144-15 92-20 130-6 48-5 68t9.5 23 27.5-4q14-4 18-2.5t-3 8-23 15.5q-62 36-75 12-6-11-6-27 0-19 5-63 5-39 20-134 13-85 18-122 6-47 6.5-70t-3.5-36q-4-10-14-21-15-15-37.5-18.5t-40.5 6-33 47.5-22 90l-4 31h52q21 0 37 1.5t17.5 4-3 9T668 542q-12 10-18.5 12t-13.5-2q-5-2-16-4t-21-2h-25l-12 105q-10 95-21 147-11 55-29 92-16 33-47 67-12 14-22.5 24T429 991q-9 0-8.5-8.5T432 963q21-21 34-51t24-83q10-50 20-140 16-138 16-140.5t-24-2.5q-11 0-19.5-1.5T472 541t5.5-9 19.5-12.5 20-5.5 12-8 9-35q22-117 116-159 19-8 40-8zM348 510q26 0 47.5 13t33.5 39q10 19 12 34t0 49q-3 62-32 109.5T331 826q-28 14-43 15.5t-36-8.5q-35-15-52.5-53.5T187 689q6-71 49-119 25-29 54.5-44.5T348 510zm-27 36q-71 0-88 123-5 32 6 67t30 51q30 25 60 13.5t49-51.5 19-96q0-33-11-62.5T360 553q-6-3-17.5-5t-21.5-2z"/></svg>