<svg width="64" height="64" viewBox="0 0 1024 1024" xmlns="http://www.w3.org/2000/svg"><path d="M500.5 178Q398 178 304 224q-51 25-104 78.5T121 410Q51 553 86 701.5T246 944q23 18 54 34t63.5 28 61.5 17q34 6 96 3 109-4 199.5-57.5T865 825t59-198q3-62-7-112t-37-105q-17-35-47.5-72t-66-67.5T697 224q-94-46-196.5-46zM694 304q48-1 80 35 13 14 10 56t-25 186q-29 183-24 209 5 18 28 11l8-3q20-7 19-1-1 7-27 22-62 36-75 11-6-10-6-28.5t5-59T707 607q17-110 21.5-153t1.5-62.5-16-33.5q-15-15-37.5-18.5T636 346q-12 6-22.5 25.5t-19 48.5-13.5 63l-4 31h52q51 0 55 5.5T668 542t-32 10.5-37-6.5h-25l-12 105q-15 138-34 197.5T465 957q-30 34-36 34-15 0-6-16 3-6 9-12 31-30 47-86.5T510 689q16-138 16-140.5t-24.5-2.5-29.5-4q-2-3 5.5-10t19.5-12.5 20-5.5 12-8 9-35q22-117 116-159 19-8 40-8zM348 510q56 0 81 52 10 19 12 34t0 49q-3 62-32 109.5T331 826q-14 7-23.5 10.5t-19 4.5-17.5-1-19-6q-35-16-52.5-54.5T187 689q6-71 49-119 52-59 112-60zm-27 36q-71 0-88 123-5 32 6 67t30 51q23 21 46 17t41-22 29.5-52.5T397 653q0-33-11-62.5T360 553q-13-7-39-7z"/></svg>