<svg width="64" height="64" viewBox="0 0 1024 1024" xmlns="http://www.w3.org/2000/svg"><path d="M500 292q-77 0-148 30-68 30-119.5 84T155 529H0v119h200q19-1 34.5-12.5T256 607l1-7q13-54 48.5-97.5t86-68T500 410q77 0 140 43 15 10 33 10 24 0 41.5-17.5T732 403q0-15-7.5-29T703 353q-92-61-203-61zm0 225q-39 0-71.5 19.5t-52 52-19.5 71 19.5 71.5 52 52 71.5 19 71.5-19 52-52 19.5-71.5-19.5-71-52-52T500 517zm301 154q-20 0-36 12.5T744 713l-1 6q-13 54-48.5 97.5t-86 68T500 909q-75 0-137-41-15-10-34-10-24 0-41.5 17T270 917q0 15 7 28t19 21q93 61 204 61 77 0 148-30 68-30 119.5-84T845 790h155V671H801z"/></svg>