<svg width="64" height="64" viewBox="0 0 1024 1024" xmlns="http://www.w3.org/2000/svg"><path d="M271 227q-47 0-86 23t-62 62.5-23 85.5v459q0 46 23 85t62 62 86 23h458q47 0 86-23t62-62 23-85V398q0-46-23-85.5T815 250t-86-23H271zm229 161q72 0 132 39 8 6 13 14.5t5 18.5q0 16-11 27.5T612 499q-12 0-22-7-41-27-90-27-57 0-100.5 34.5T343 588l-1 4q-4 11-14 18.5t-23 8.5H176v-77h100q26-69 87-111.5T500 388zm0 146q38 0 65 27t27 65-27 65-65 27-65.5-27-27.5-65 27.5-65 65.5-27zm195 100h129v77H723q-26 68-87 111t-136 43q-72 0-132-40-17-12-17-32 0-16 11-27.5t27-11.5q12 0 22 7 40 27 89 27 56 0 100-35t57-88l1-4q3-11 13.5-19t23.5-8z"/></svg>