<svg width="64" height="64" viewBox="0 0 1024 1024" xmlns="http://www.w3.org/2000/svg"><path d="M500 203q-116 0-213.5 57T132 415 75 628q0 134 75.5 242T348 1025v-1q86-232 98-249-4-1-11-3.5t-23.5-15-29.5-31-23-54-10-81.5q1-33 8.5-64.5t18.5-55 24.5-44.5 26.5-35.5 24.5-25 18-15l6.5-4.5q-1 5-1.5 13.5t1 32.5 8 44.5T508 480t45 36q4 1 10.5 3.5T586 532t28.5 22.5 22.5 35 10 49.5q-1 19-5 36.5t-9 30-13.5 23.5-16 17.5-17.5 13-16.5 9.5-14.5 7q6 10 97 248 122-46 197.5-154T925 628q0-69-21.5-134t-61-117-91.5-91.5-117-61T500 203z"/></svg>