<svg width="64" height="64" viewBox="0 0 1024 1024" xmlns="http://www.w3.org/2000/svg"><path d="M500 175q-115 0-215 58-96 56-152 153-58 99-58 214 0 108 52 203 49 92 136 150 89 60 195 70 0-113-58-224-37-71-90-130l-4-7q-5-8-6-17-2-12 2-23l79-200 5-9q6-11 15-18 12-9 27-9h144q15 0 27 9 9 7 15 18l5 9 79 200q4 11 2 23-1 9-6 17l-4 7q-53 59-90 130-58 111-58 224 106-10 195-70 87-58 136-150 52-95 52-203 0-115-58-214-56-97-152-153-100-58-215-58zm0 358q-28 0-47.5 19.5T433 600q0 24 15 42.5t38 23.5v359h28V666q23-5 38-23.5t15-42.5q0-28-19.5-47.5T500 533z"/></svg>