<svg width="64" height="64" viewBox="0 0 1024 1024" xmlns="http://www.w3.org/2000/svg"><path d="M272 226q-47 0-86.5 23T123 311.5 100 398v456q0 47 23 86.5t62.5 62.5 86.5 23h456q47 0 86.5-23t62.5-62.5 23-86.5V398q0-47-23-86.5T814.5 249 728 226H272zm142 63q64 0 117 30h1q60 32 95.5 91.5T662 538v1q1 68-35 128l211 210-87 87-210-210q-31 18-65 27h-2q-44 12-90 6t-87-27q-63-32-98-91l-1-1q-29-47-34.5-102t12-107.5T231 367l1-1q35-38 83-57.5t99-19.5zm0 75q-36 0-70 14t-58 39l-1 1q-26 27-38 64t-8 76.5 24 70.5v1q24 41 69 64 29 15 61.5 19t62.5-5h1q36-9 66-34.5t47.5-61.5 17.5-73v-1q0-46-25.5-88.5T496 385l-1-1q-36-20-81-20z"/></svg>