<svg width="64" height="64" viewBox="0 0 1024 1024" xmlns="http://www.w3.org/2000/svg"><path d="M500 175q-115 0-213 57T132 387 75 600q0 108 50.5 202T264 954.5t194 68.5q0-61-16.5-120T399 797.5t-47-76-42-52.5q-2-3-4.5-7t-6-16.5T302 622l79-200q1-4 4.5-10t15.5-16 27-10h144q15 0 26.5 9t16.5 18l4 9 79 200q4 13 2.5 23.5T694 662l-4 7q-21 23-42 52.5t-47 76T558.5 903 542 1023q79-8 150-44.5t122-92T895 756t30-156q0-115-57-213T713 232t-213-57zm0 358q-28 0-47.5 19.5T433 600q0 24 15 42.5t38 23.5v359h28V666q23-5 38-23.5t15-42.5q0-18-9-33.5T533.5 542t-33.5-9z"/></svg>