<?xml version="1.0" encoding="utf-8"?>
<svg width="1792" height="1792" xmlns="http://www.w3.org/2000/svg"><path d="M400 738q-72 0-122 50.5T228 910v456q0 72 50 122t122 50h456q72 0 122-50t50-122V910q0-71-50-121.5T856 738H400zm142 63q64 0 117 30h1q60 32 95.5 91.5T790 1050v1q1 68-35 128l211 210-87 87-210-210q-31 18-65 27h-2q-90 24-177-21-63-32-98-91v-1h-1q-44-71-34.5-156.5T359 879q0-1 1-1 35-38 83-57.5t99-19.5zm0 75q-78 0-128 53v1h-1q-39 40-45.5 101.5T390 1141h1v1q24 41 69 64 61 31 124 14h1q55-13 93.5-62.5T716 1051v-1q0-46-25.5-88.5T624 897l-1-1q-36-20-81-20z" fill="undefined"/></svg>