<?xml version="1.0" encoding="utf-8"?>
<svg width="1792" height="1792" xmlns="http://www.w3.org/2000/svg"><path d="M628 687q-115 0-213 57T260 899t-57 213q0 108 50.5 202T392 1466.5t194 68.5q0-61-16.5-120T527 1309.5t-47-76-42-52.5q-2-3-4.5-7t-6-16.5 2.5-23.5l79-200q1-4 4.5-10t15.5-16 27-10h144q15 0 26.5 9t16.5 18l4 9 79 200q4 13 2.5 23.5T822 1174l-4 7q-21 23-42 52.5t-47 76-42.5 105.5-16.5 120q79-8 150-44.5t122-92 81-130.5 30-156q0-115-57-213T841 744t-213-57zm0 358q-28 0-47.5 19.5T561 1112q0 24 15 42.5t38 23.5v359h28v-359q23-5 38-23.5t15-42.5q0-18-9-33.5t-24.5-24.5-33.5-9z" fill="undefined"/></svg>