<?xml version="1.0" encoding="utf-8"?>
<svg width="1792" height="1792" xmlns="http://www.w3.org/2000/svg"><path d="M626.5 756.5Q624 757 465 849l-159 92-17-10q-25-14-29.5-19.5T255 888q-1-22-11-36-20-26-52.5-26T140 851q-4 5-6.5 11t-4 11.5-1.5 12 .5 12.5 2.5 12 5 11.5 7 10.5 9 8q12 10 33 12t34-5q9-4 14-2.5t27 13.5l29 17v369l170 97 169 98 11-6q75-44 191.5-110.5T950 1356q4 0 28 14l23 13v20q0 27 15 44.5t41 21.5q32 4 54.5-22t14.5-57q-5-19-20-32.5t-33-16-37 5.5q-6 3-9.5 3t-9.5-2.5-21-10.5l-28-16V951l-170-98q-169-97-171.5-96.5zM608 826v192h-8q-91-6-91-14 0-4 12-33t20-45q3-8 11-20.5t16.5-25.5 17-25 13.5-18zm46 10q4 0 27 33 20 29 45 81t20 56q-1 2-22.5 5t-48.5 5l-26 3V907q0-43 .5-57t4.5-14zm64 16l25 15q159 89 159 93 0 3-32 14-81 30-84 21-28-79-56-123zm-183 4q0 1-9 15-28 45-48 101-3 7-5.5 13.5t-4 10.5l-1.5 4-30-9q-27-8-54.5-18T355 960.5t90-54.5q85-49 90-50zm-342 9.5q17 .5 22 15.5 4 8-.5 19T202 913q-22 9-33-12-5-11-1-21 8-15 25-14.5zM329 996q4 0 31.5 11t61.5 21 35 10.5-3 29.5-6 45l-2 16h-58q-58 0-60-3-3-3-2.5-66.5T329 996zm594 1q3 0 4 11t1 54v67h-59q-58 0-60.5-2.5T806 1107t-4-43l-5-26 18-5q19-5 59-19 41-15 47-16 1-1 2-1zm-165 49l4 24q4 24 5 40l1 17-38 1-37 1-6-11q-4-8-17-20.5t-18-12.5q-3 0-3-15v-15h24q25 0 55-5zm-255 3q9 0 31 2 32 4 53 4h21v14q0 9-2.5 13t-11.5 9q-14 9-22 23l-8 15h-78l3-25q5-49 10-55h4zm125 72q6 0 11.5 2.5t9 6.5 4.5 10q1 8-3 17t-11 12q-9 4-12 3-15-2-21-15t.5-24.5T628 1121zm-182 44l2 16q2 16 6 45 3 22 1 28.5t-11 6.5q-5 0-42.5 12t-56.5 20l-20 8 1-67 1-67 60-1zm482 0v68q0 19-.5 34.5t-.5 24.5v9q-1 0-11-5-8-5-46-18t-56-17l-16-4 3-21q3-21 5-45l2-24 60-1zm-417 0h53l8 13q8 13 22 23 9 6 11.5 10t2.5 13v14l-39 2q-40 3-55 6-14 2-16.5-2t-6.5-36q-1-4-2-10-3-23 0-28t22-5zm182 0h36q37 0 38.5 3t-2 32-6.5 39l-2 9-31-4q-32-5-54-5h-23v-14q0-10 2-14t12-10q14-10 22-23zm-85 111v95q0 95-1 95-4 0-28.5-36t-35.5-59q-15-28-25-54.5t-8-28.5q5-5 75-10zm41 0l23 2q70 5 75 10 2 2-14.5 40.5T704 1389q-19 31-37 55l-18 24v-192zm-181 18l8 25q17 50 44 94 15 25 14 26t-89.5-50.5T356 1335q-1-2 12-7.5t33.5-12.5 40.5-13zm323 2q4 0 22 5 15 5 36.5 12t37 13.5 15.5 7.5q0 2-23 16-31 17-90 52-18 10-33.5 18.5t-24.5 13l-9 4.5q0-3 8-14 12-18 29.5-57t26.5-67q1-4 5-4zm272 82q16 0 23 16.5t-4.5 28-27.5 5-16-22.5q0-8 8.5-17.5t16.5-9.5z" fill="undefined"/></svg>