<svg width="64" height="64" viewBox="0 0 1024 1024" xmlns="http://www.w3.org/2000/svg"><path d="M271 227q-71 0-121 50t-50 121v459q0 70 50 120t121 50h458q71 0 121-50t50-120V398q0-35-13.5-66.5T850 277t-54.5-36.5T729 227H271zm229 161q72 0 132 39 18 12 18 33 0 11-5 20t-14 14-19 5q-12 0-22-7-41-27-90-27-38 0-71 16t-55.5 44-30.5 63q-1 3-1 4-2 5-5.5 10t-8 8.5T318 616t-13 3H176v-77h100q26-69 87-111.5T500 388zm0 146q38 0 65 27t27 65-27 65-65 27q-25 0-46.5-12t-34-33.5T407 626q0-38 27.5-65t65.5-27zm195 100h129v77H723q-26 68-87 111t-136 43q-72 0-132-40-17-12-17-32 0-16 11-27.5t27-11.5q12 0 22 7 40 27 89 27 37 0 70-16t56-44 31-63v-1q1-2 1-3 3-11 13.5-19t23.5-8z"/></svg>