<svg width="64" height="64" viewBox="0 0 1024 1024" xmlns="http://www.w3.org/2000/svg"><path d="M635 241q-8 0-68 29-25 12-53.5 28T470 324q-20 14-27 17-10 4-22 2-8-2-34-11-19-7-34.5-11t-18-2.5-4 9.5-1.5 18q0 23-11 75-5 22-18 59t-28 70q-36 77-44 103-4 12-5.5 33.5T222 731q2 30 7 49t18 45q9 18 26 40.5t31 37 33.5 31T370 959q31 21 77 44.5t54 23.5q4 0 21-7.5t37.5-18T607 974t43.5-30.5 36.5-33 31-33.5q26-35 36-55 5-9 10.5-28.5T773 755q5-26 5-45t-5-48q-8-48-44-125-15-32-31.5-74t-25-68.5-16-58.5-9.5-51q-2-26-7-38 3 0 4-.5t0-1.5-5 0q-2-4-4-4z"/></svg>