<?xml version="1.0" encoding="utf-8"?>
<svg width="1792" height="1792" xmlns="http://www.w3.org/2000/svg"><path d="M399 738q-71 0-121 50t-50 121v459q0 70 50 120t121 50h458q71 0 121-50t50-120V909q0-71-50-121t-121-50H399zm230.5 110Q750 848 835 933.5t85 205.5q0 79-39 146t-106 106-145 39q-121 0-206-85.5T339 1139t85-205.5T629.5 848zm.5 88q-84 0-144 59.5T426 1139t60 143.5 144 59.5 143.5-59.5T833 1139q0-55-27.5-102t-74-74T630 936zm-.5 138q29.5 0 50.5 21t21 50q0 15-5.5 28t-15 22.5-23 15.5-27.5 6q-30 0-51-21t-21-50.5 21-50.5 50.5-21z" fill="undefined"/></svg>