<svg width="64" height="64" viewBox="0 0 1024 1024" xmlns="http://www.w3.org/2000/svg"><path d="M271 226q-47 0-86 23t-62 62.5-23 85.5v459q0 46 23 85.5t62 62 86 22.5h458q47 0 86-22.5t62-62 23-85.5V397q0-46-23-85.5T815 249t-86-23H271zm231 110q78 0 146 40 66 39 104 104 40 68 40 147t-40 146q-38 66-104 105-68 40-146.5 40T355 878q-66-39-104-105-40-67-40-146t40-147q38-65 104-104 68-40 147-40zm0 88q-56 0-102.5 27.5t-74 74T298 627t27.5 101.5 74 74 102 27.5 102-27.5 74-74T705 627t-27.5-101.5-74-74T502 424zm0 138q29 0 50 21t21 50.5-21 50.5-50.5 21-50.5-21-21-50.5 21-50.5 51-21z"/></svg>