<svg width="64" height="64" viewBox="0 0 1024 1024" xmlns="http://www.w3.org/2000/svg"><path d="M500 227q-112 0-207.5 55T142 432.5 87 640q0 131 74.5 236.5T355 1027l95-254q-41-15-66.5-51.5T358 640q0-59 41.5-100.5T500 498t100.5 41.5T642 640q0 45-25.5 81.5T550 773l95 254q119-45 193.5-150.5T913 640q0-67-21-130t-59-114-89-89-114-59-130-21zm463 682l-23 92h15l11-43q0-3 1-7v-5q1 2 2 5l3 6 26 48 26-47q1-4 2-6l2-6q1 4 1 6 1 4 1 6l11 43h15l-24-92-28 56-1 1-1 1-4 10q-2-5-3-8-1-1-3-4zm-101 4v12h27v76h16v-76h26v-12h-69z"/></svg>