<svg width="64" height="64" viewBox="0 0 1024 1024" xmlns="http://www.w3.org/2000/svg"><path d="M704 227q-40 0-74.5 20.5T576 304q-23 43-15 92l-2-2v6q-1 9-7 19-7 15-23 30-20 19-50.5 38T421 515q-22 7-40 7-14 0-24-4l-8-3 3 3-8-4q-35-19-73.5-17.5t-72 22-52 55.5-17 74 22 72 55.5 52q40 21 83.5 16.5T367 757l-1 2 7-4q9-3 21-3 17-1 39 5 27 8 59 25 48 26 70 56 15 19 16 37-1 42 19.5 78.5T656 1010q35 18 73.5 16.5t72-22 52-55.5 17-74-22-72-55.5-51q-7-4-15-7l3-1-5-4q-6-5-11-16-8-15-12-36-6-27-7-63t3-63q4-22 11-37 5-11 12-18l5-4h-5q41-21 62-62 19-35 17.5-73.5t-22-71.5-55.5-52q-33-18-70-17zm2 23q39 0 66 25-15-13-44.5-10T669 287q8 8 8.5 20t-8 21.5T648 338h-8l-2-1q-12-4-21 8-16 29-16 56.5t15 42.5q-20-19-27-46.5t.5-56T618 290q18-19 41-29.5t47-10.5zM605 491q11 0 18 3.5t14 7.5q13 7 27 11 11 11 20 33 11 33 12.5 84T686 714q-9 22-22 34-20 9-36 23-14 5-36 1-34-6-81-31-49-26-73-54-14-17-17-32 2-18-1-37v1l1-6q1-8 7-18 8-13 24-28 20-18 50-37 62-38 103-39zm-326 34q39 0 66 25h-1q-14-13-44-10t-58 22q7 8 7.5 20t-8 21.5T221 613q-4 1-8 0l-2-1q-13-4-22 8-15 29-15.5 56.5T188 719q-20-19-26.5-46.5t1-56T191 565q18-19 41-29.5t47-10.5zm452 233q39 0 66 25-14-13-44-10t-59 22q8 8 8.5 20t-8 21.5T673 846q-4 0-8-1h-2q-12-4-21 8-16 29-16 56.5t15 42.5q-20-19-27-46.5t.5-56T643 798q18-19 41-29.5t47-10.5z"/></svg>