<svg width="64" height="64" viewBox="0 0 1024 1024" xmlns="http://www.w3.org/2000/svg"><path d="M453 320q-56 0-95.5 39.5T318 455q0 45 28 81 61-70 154-70 44 0 84 18 3-15 3-29 0-56-39-95.5T453 320zm-176 62q-29 0-49.5 21T207 453q0 18 9 34 37-21 79-21 5 0 9 1-1-8-1-12 0-32 13-61-18-12-39-12zm332 49h-9q3 14 3 24 0 18-5 36 52 29 81 81 30-16 63-18-4-52-42-87.5T609 431zm-109 50q-78 0-133.5 55T311 669t55.5 133.5T500 858t133-55.5T688 669q0-51-25-94.5T594.5 506 500 481zm-205 1q-60 0-103 42.5T149 628q0 72 58 116 7-14 19-25t27.5-17 32.5-6q4 0 12 1-2-13-2-28 0-67 40-121-24-29-30-66h-11zm458 87q-35 0-67 17 18 40 18 83 0 84-59 144 43 48 108 48 61 0 103.5-43T899 714.5t-42.5-103T753 569zm-623 19h-2q-54 3-91 42T0 722q0 56 39.5 95.5T135 857q42 0 76-24-14-22-14-48 0-13 4-26-31-23-49-57t-18-74q0-20 5-40h-9zm796 116q-5 0-11 1v10q0 64-45 110 23 26 56 26 31 0 52.5-21.5t21.5-52-21.5-52T926 704zm-640 7q-31 0-52.5 22T212 785.5t21.5 52T286 859q23 0 41.5-13t26.5-34q-41-42-53-99-8-2-15-2z"/></svg>