<svg width="64" height="64" viewBox="0 0 1024 1024" xmlns="http://www.w3.org/2000/svg"><path d="M495 226q-27 0-54 4l-2 1q-3 0-5 1l-49 116-117-48q-53 38-90 89l-1 1q-1 2-3 4l48 117-117 49q-10 63-1 125l1 2q0 2 1 5l116 49-48 117q18 24 36 44 1 0 3.5 3t3.5 4 4 3l2 2q19 19 45 38l117-49 48 117q5 1 6 1h1q63 10 126 0l49-118 117 49q2-2 4-3l1-1q52-38 89-90l-49-117 117-48q0-1 .5-3t.5-3v-1q10-63 0-126l-117-49 48-116q-20-28-41-49-1-2-2-2l-5-5q-20-19-47-39l-116 49-49-117q-35-6-71-6zm5 99q11 0 22 1l51 123 123-51q6 5 16 15t15 16l-51 123 1 1 123 51q2 21 0 44l-123 51 51 124q-14 16-31 31l-123-51h-1l-51 123q-21 1-44 0l-51-123v-1l-124 52q0-1-1.5-2t-2.5-2q-2-2-12-11-11-11-11-12l-2-2-2-2 51-123v-1l-123-51q-1-23 0-44l123-51-51-124q15-17 31-31l123 51h1l51-123q11-1 22-1zm.5 125q-6.5 0-13.5 1l-29 72h-1l-72-30-18 18 30 72-72 30v3q-1 1-1 5v5q0 8 .5 9.5t.5 2.5l72 30v1l-30 72q8 9 19 18l71-30h1l29 72q13 1 26 0l30-72 72 30q9-8 18-18l-30-72h1l-1-1 72-29q1-5 1-13t-1-13l-72-30 30-72q-7-9-18-18l-72 30-30-72q-6-1-12.5-1zm-.5 127q20 0 34.5 14.5T549 626t-14.5 34-34.5 14-34-14-14-34 14-34.5 34-14.5z"/></svg>