<svg width="64" height="64" viewBox="0 0 1024 1024" xmlns="http://www.w3.org/2000/svg"><path d="M704 227q-40 0-74.5 20.5T576 304q-23 43-15 92l-2-2q-1 1 .5 4t-3 12.5-11 19.5-24 25.5T479 487q-18 11-35 18.5t-29.5 11T391 521t-18.5 0-13-2.5-7.5-2.5l-3-1 3 3-8-4q-53-29-111-11t-86 71q-18 38-17 75t21.5 70.5T207 772q41 21 84 16.5t76-31.5l-1 2 1.5-1.5 3.5-1.5 7-2 10-2 13-.5 17 2.5 20.5 5 24.5 9 29 14q82 44 86 93-3 92 78 135 53 28 111 10.5t86-71.5q18-37 17-74.5t-21.5-71T793 752q-7-4-15-7l3-1q-1 0-3.5-1.5t-8-10-10-20T751 678t-5-52.5 2-53 7.5-36 9.5-21 8-10.5l4-2h-5q41-21 62-62 18-37 17-74t-21.5-70.5T774 244q-33-18-70-17zm2 23q39 0 66 25-13-13-43.5-10T669 287q8 8 8 19 1 13-7.5 22.5T648 338h-8l-2-1q-12-4-21 8-16 29-16 56.5t15 42.5q-31-29-30.5-74t32.5-80q37-40 88-40zM605 491q11 0 18 3l14 8q13 7 27 11 30 29 33 117 2 88-33 118-20 9-36 23-37 13-117-29-34-19-56-39t-27-30-7-18q2-18-1-37v1-4.5l3.5-11 11-18 25-24.5 42.5-31q62-38 103-39zm-326 34q39 0 66 25h-1q-13-13-43.5-10T242 562q7 8 8 19 0 13-8.5 22.5T221 613q-4 1-8 0-1 0-2-1-13-4-22 8-15 29-15.5 56.5T188 719q-15-14-22.5-33.5t-7-40T167 604t24-39q37-40 88-40zm452 233q39 0 66 25-13-13-43.5-10T694 795q8 8 8 19 1 13-7.5 22.5T673 846h-8l-2-1q-12-4-21 8-16 29-16 56.5t15 42.5q-15-14-23-33.5t-7.5-40 9-42T643 798q37-40 88-40z"/></svg>