<svg width="64" height="64" viewBox="0 0 1024 1024" xmlns="http://www.w3.org/2000/svg"><path d="M500 176q-38 0-69 21t-46 56q-10 23-10 48-17-18-40-27-35-15-71.5-7.5t-64 34.5-34.5 63.5 7 72.5q10 22 28 40-25 0-48 9-36 15-56.5 46T75 601.5 95.5 671t56.5 45q23 10 47 10-17 18-27 40-14 36-7 72.5t34.5 63.5 64 34.5T335 929q23-10 40-27 0 25 10 48 15 35 46 55.5t69 20.5 69-20.5 46-55.5q10-23 10-48 17 17 40 27 35 15 71.5 7.5t64-34.5 34.5-63.5-7-72.5q-10-23-27-40 24 0 47-9 36-15 56.5-46t20.5-69.5-20.5-69.5-56.5-46q-23-9-47-9 17-18 27-40 14-36 7-72.5T800.5 301t-64-34.5T665 274q-23 9-41 27 1-25-9-48-15-35-46-56t-69-21zm0 57q20 0 37.5 12t25 30.5T566 314t-18 35v137l97-97q0-21 11.5-38t30-24.5 39-3.5 34.5 18 18 34.5-3.5 39.5-24.5 30-37 11l-98 98h138q14-15 34-19t39 4 30.5 25.5 11.5 37-11.5 37-30 25-39 3.5-34.5-18H615l98 98q20 0 37 11t24.5 29.5T778 827t-18 35-34.5 18-39-4-30-25-11.5-37l-97-98v138q14 15 18 35t-3.5 38.5-25 30T500 969t-37.5-11.5-25-30T434 889t18-35V716l-97 98q0 21-11.5 37.5t-30 24.5-39 4-34.5-18-18-35 3.5-39.5T250 758t37-11l98-98H247q-14 14-34.5 18t-39-3.5-30-25-11.5-37 11.5-37T174 539t39-4 34 19h138l-98-98q-20 0-37-11t-24.5-30-3.5-39.5 18-34.5 34.5-18 39 3.5 30 24.5 11.5 38l97 97V348q-14-14-18-34t3.5-38.5 25-30.5 37.5-12z"/></svg>