<svg width="1792" height="1792" xmlns="http://www.w3.org/2000/svg"><path d="M260 689q-36 0-60.5 24.5t-24.5 60 24.5 60.5 60.5 25h736q23 0 43-11.5t31-31 11-43-11-43-31-30.5-43-11H260zm0 226q-36 0-60.5 25t-24.5 60.5 24.5 60T260 1085h628q35 0 60-24.5t25-60.5q0-23-11.5-42.5t-31-31T888 915H260zm-3 227q-34 1-58 25.5t-24 59.5 24.5 60 60.5 25h700q35 0 60-25t25-60q0-23-11.5-42.5t-31-31T960 1142H257zm3 227q-36 0-60.5 24.5t-24.5 60 24.5 60.5 60.5 25h374q35 0 60-25t25-60q0-24-11.5-43.5t-31-30.5-42.5-11H260z" fill="undefined"/></svg>