<svg width="64" height="64" viewBox="0 0 1024 1024" xmlns="http://www.w3.org/2000/svg"><path d="M340 221l-5 1q-10 3-12 7t-2 17l1 16-10 2q-8 2-9.5 1.5T300 261q-7-17-10-23t-5.5-6.5-6.5 5.5q-5 7-5 8t8 14l8 14-7 6q-6 7-8 7t-13-9q-16-14-21-14-1 0-1 11v10l14 8q13 7 12 10.5t-2 8.5l-2 6q-1 2-17 0-18-3-22-.5t4 13.5q2 4 4.5 4.5t13.5-.5l16-2 2 10q2 11 .5 12t-13.5 5.5-18 8.5l-5 3 5 4q8 6 12 6t15-7l13-8 9 9q4 5 3.5 7t-8.5 12l-3 4q-8 9-9 13t.5 5 8.5 1h11l7-14q7-14 10-14t3.5 2-.5 7l-21 146h-14q-10 0-12-.5t-2-4.5q-1-8-2-9t-5 1-3 5-1 4.5-8 3.5q-11 4-9 4.5t11.5-3.5 10.5-2-.5 3-6.5 2-10.5 7.5T223 568q-1 3-.5 4t2.5 0 2.5 0-.5 4l-1 6 13-10v7q0 8 1.5 8.5T253 610q27 53 50 73 11 10 15.5 16.5T327 718q2 8 2.5 8.5t1.5-3.5q1-14 4-10.5t4 20.5q1 12 3 15.5t2-5.5q0-5 3-14l3-8v7q0 8 2.5 9.5t3.5-5.5l1-6 6 5q6 6 14 24 6 15 10.5 20.5T398 781t10 3.5 11 15.5q5 9 23.5 28t26.5 24q5 2 20 2t26-3q6-2 11.5-5.5T540 833q14-14 14-18t11-10 14-13 5-6.5 13.5 14T609 815t2-1 3.5-.5T617 827l2 14 1-11q3-18 8-18 3 0 16.5-12.5T663 781v-1q4-5 5.5-6t8 2 9 3 9.5-13l8-12q1-1 5 4t12 9.5 13 4.5 11-3.5 9-9 10.5-16.5 10.5-23q3-8 4-9t2 2q2 5 4 4t6-11.5 8.5-11 5.5-3 2-2.5 4 2 4.5 2 5.5-1q6-3 10-17 6-16 11.5-25t22.5-27q21-22 23-27l2-6 3 6q3 6 3.5 6t-.5-8v-8l13 13-1-8q-1-6-.5-7t3.5-.5 3 0-2-4.5l-4-6 5 4q7 7 1-8v-1q-3-6-3-7t5 1q6 2 6.5 1.5T919 560q-9-11-28-14-9-1-15-4t-13.5-3-18-5.5T831 528t-10.5-11-8.5-17.5 0-8.5 5-7l17-15q5-5 7.5-6t8 1 19.5 9l1 1q16 8 21 8t23.5-7.5T941 458t9-11.5 15.5-4.5 20.5-5q9-5 12.5-16t-1.5-18q-3-5-20-16t-26-14-35-3q-18 0-24 .5t-14 4.5q-11 5-22 15t-15 17q-2 6-2 8t2 6q4 7 2.5 8.5t-5-1-5-7.5-11.5-18.5-12.5-18.5-2.5-12q0-14 15-14 8 0 13.5-4.5t11-15.5 4.5-24.5-7-21.5q-10-13-53-24-15-4-26-4.5t-32 3.5q-26 4-35.5 10T683 297q-3 8-2.5 18.5t4 16.5 15.5 12.5 26 10.5 24 10.5 20 8.5q25 3 41 31 7 14 7.5 19.5T812 437q-4 5-9 4t-8.5-9.5T784 415t-13-10-16-14.5-20.5-17.5-27.5-6q-14-1-34 1.5t-32 7-19 12.5-7 17q0 5-2 5t-17.5-10-22.5-16q-2-2-2-3t2-2 2-1.5-2-.5-2-1l4-3h-2l-2-.5 2-2.5 2-1q0-1-2-1h-2l4-3q0-1-2-1t-2-.5 2-1.5l2-2h-4l2-2q3-2 .5-2t-2.5-11l-1-11-1 11q0 11-2.5 11t.5 2l2 2h-4l2 2q2 1 2 1.5t-2 .5-2 1l4 3h-2l-2 1 2 1q2 2 2 2.5t-2 .5h-2l4 3q0 1-2 1t-2 .5 2 1.5 0 4-13 11l-4 3q-7 6-10 7t-5.5-2.5T527 386l-4-8q-7-17-10-21-5-6-15-8-7-1-32-1h-5q-33 1-43 3t-13 10l-3 5-8-4q-8-4-6.5-7.5t3-10 4.5-6.5l18 3q15 3 18 1t-1-11l-4-9-33 3-4-18q-1-2 2-4t12-5q14-6 19-9l5-4-8-6q-8-5-10-4l-27 16-15-15 10-12q17-20 15-22t-12-2q-6 0-8.5 2t-7.5 12l-8 15-10-3q-7-2-8.5-3.5t-.5-5 2-20.5zm-17 46v11q0 8-1 10t-4 3l-6 2q-1 0-4.5-11t-3-11.5 9.5-2.5zm14 1q3 0 9 2t6 3.5-4 10.5q-4 6-7 8t-7-1q-2-1-1.5-11t3.5-11zm-46 10q2 0 7 10 5 7 5 8.5t-3 4.5q-4 4-5 4t-9-7l-8-7 6-7q6-6 7-6zm73 2l7 7 7 6-9 6q-8 5-10.5 5.5T353 302t-2.5-5 6.5-9zm-40 15q4 0 4.5 1.5t-.5 9.5q-1 11-1.5 11.5T321 319t-13.5-5.5-4.5-10 10.5-6T324 295zm11 1q1 0 6.5 2.5t10.5 8 5 7-7 4.5q-9 3-17 1-2-1-2.5-3t.5-7l1-10q1-3 3-3zm-64 5l10 6q10 6 9 8.5t-1 5.5-2 3l-16-3q-8-2-2-14zm110 5q2 0 3 3l4 15h-12q-9 0-11-.5t-2.5-4 .5-5 5-3.5l3-1q7-4 9-4h1zm-290 2q-21 0-33 5-17 7-31.5 21.5T5 366q-5 13-5 34t5 35q10 29 36 56 14 15 18 24t4 25q-1 13 1 13t3 11l2 10h18q16 0 18.5-1.5T108 561q0-8 3.5-8t3.5-5v-5l8 4q17 9 42.5 11.5T207 555q10-4 3-2-27 5-54 1.5T116 541l-4-4 3-14q3-9 6-14t16-18q15-15 23.5-27.5T175 434q6-14 6-34.5t-5-33.5q-7-17-21-31.5T123 313q-12-5-32-5zm208 3q2 0 7 4t5.5 6-2 7.5-7.5 8-7 2.5-1.5-11.5 2.5-14 3-2.5zm57 8q3 0 4 5.5t-1 13-5 9.5-7-1.5-3.5-13T348 322zm214 0q-1 0-1 4 0 7 1 3t0-7zm-306 14h13q9 0 10.5.5t2 4.5-1 5.5-7.5 4.5l-2 1q-8 3-9.5 2t-3.5-10zm102 0q1 0 5 1 7 1 10.5 2t4 5-1.5 8-4 4-10.5-4.5-7.5-7.5 1-5.5 3-2.5zm-58 6q2 0 2 1v6q-1 16-10 3-4-5-3.5-6.5t7.5-2.5zm14 0l.5 1-.5 3.5-1-.5 1-4zm7 0q1 0 2.5 1t-.5 5-4 4-2-4.5 4-5.5zm15 9q1 0 3.5 2.5t1.5 4-2.5 1.5-3-3.5-.5-4.5h1zm-24 2v1q1 3 0 5.5t-1-2.5q0-3 1-4zm12 1q1-1 2 3.5t.5 5-3-2.5-.5-6h1zm462 1q4 0 6 1.5t2 3-4 4.5q-5 5-6 5t-7-6-3-6 9-1zm-437 0q1 0 6.5 4t7.5 6.5 1.5 4.5-4.5 6l-6 6-6-8q-5-8-5.5-10.5t2.5-6.5q2-1 3-1zm-62 0q2 1 5 3l4 4-7 9q-7 9-8 9t-6.5-6-5.5-7.5 9-6.5q7-4 9-4v-1zm470 4q3 0 4 1t3 5 2 5-3 1q-5 0-13-3.5t-6.5-5 9.5-2.5zm-439 1q2 0 3.5 2t1 2.5-4 .5-3.5-2.5 2-2.5h1zm53 12l8 7 8 6-6 14q-6 14-7 14t-9-12-8-14 7-9zm-74 7q2 1 0 6-1 3-3 3t0-5q2-3 3-3v-1zm32 5q1 0 1 4t-3 4-3-.5 2-2.5zm-21 1l1.5.5 1.5 3.5-2 3-2-3.5 1-3.5zm34 9q2 0 8.5 17t9 18.5 7.5-4.5-5 14l-8 16q-2 4-2.5 4.5T358 455v-1q-2-5-5.5-33.5T350 391zm-35 3q2 0 2 1t-2.5 2-2.5-1 3-2zm23 0q2 0 2 2t-1 2-2.5-2 1.5-2zm-6 7q1 0 3.5 2t2.5 2.5-3.5.5-3.5-2.5 1-2.5zm436 15q4 0 10 7 3 2 3 3t-4 2q-13 3-18 0-2-2 3-8 3-4 6-4zm-433 1q2 0 2 .5t-2 3-3 2.5-1-3 4-3zm7 6q2 0 3 9.5t.5 10.5-7.5-5l-7-5 5-5q5-5 6-5zm-32 2q2 0 2 5t2.5 6-3.5 6l-5 5 1-7q1-7 1-11t2-4zm472 6q2 0 3 4t5.5 8 4.5 5.5-3.5 5-10 16.5-19.5 26.5-18 20-8.5 7T722 520q-23-9-48 0-22 7-40 0-4-2-5-4t-1-9v-10h12q11 0 11-3.5t4-3.5 12-3.5 14-8.5l5-4h-17q-14 0-25-2.5t-7.5-4.5-1-2-5-.5 1.5-1.5 2-2-1.5-2-1.5-1.5 2-1.5-2-5-5-1-5 3-5-1.5-.5-5 2.5-5 8-2.5q9-1 20 3l11 5 22-5q22-5 31-4 31 3 38-3 4-4 13.5-3t15.5 0q3-1 5-1zm-455 7l8 5q7 6 7 6.5t-13.5.5-13.5-1.5 6-6.5zm535 5q5 0 14 3t9 4.5 5 8.5l5 8-6 1q-4 1-6.5.5T868 462l-2-1q-13-6-15-8t1.5-5.5 6.5-4.5h3zm70 1q11 0 11 2t-10.5 10.5-13 8.5-6 1-3.5.5 3-5.5q3-6 3-10t3-5.5 10-1.5h3zm-34 4q10 0 11.5 2.5T906 459q-4 4-6 4t-6-5q-7-7-6-8.5t10-1.5zm-278 9h3q4 1-2.5 1t-3.5-1h3zm-310 4h33l-7 6q-8 6-9 6t-9-6zm310 2q2 0 3 1 4 1-2.5 1t-3.5-1zm-316 4q2 0 8.5 4.5t6.5 6-10 8.5l-10 7 2-7q1-6 1-12.5t2-6.5zm45 0l.5.5.5 2.5-4 8q-4 4-5.5 4.5t-4-1.5-2-3 6.5-5.5 8-4.5v-1zm-23 17h1.5l3.5 2q5 4 3.5 7.5t-14 3.5-12.5-1 9-7h1q6-5 8-5zm-13 23q8 0 9 .5t-2.5 4-5 3.5-6.5-4l-5-4h10zm-14 8q1 0 5 3t4 4-3.5 5-6.5 5.5-3.5 0 .5-6.5q1-11 4-11zm-218 5h32l-1 8q-2 8-3 9.5T88 539q-17 0-20.5-2T64 525q0-4 2.5-4.5T81 520zm729 157h1l3.5 5.5 2.5 7-3.5.5-4.5-3-1-5q-1-2 1-4 0-1 1-1zm-8 1l.5 4-1 7-3.5 3-1.5-4 3-7zm-30 21q3 0 0 12t-6 19l-3 8 1-9q2-25 6-28zm-13 20l-1 7q-2 7-4 15-2 6-3.5 7t-8.5 1-14.5-2.5-7.5-4 8.5-.5 13-1.5T752 728zm-49 19l7 7q6 5 15 8t13 1.5 3 2-6 7.5q-6 5-11.5 4t-13.5-9q-6-6-7.5-8.5t-.5-6.5zm-120 42q5 0 18.5 9t20 10 7.5 2.5-4 5.5q-15 10-36-15-8-10-8-11t2-1z"/></svg>