<svg width="1792" height="1792" xmlns="http://www.w3.org/2000/svg"><path d="M468 733l-5 1q-10 3-12 7t-2 17l1 16-10 2q-6 2-7.5 2t-2.5-1-2-4q-11-30-16-30-2 0-6 6-5 7-5 8t8 14l8 14-7 6q-6 7-8 7t-13-9q-16-14-21-14-1 0-1 11v10l14 8q8 4 10.5 6.5t1.5 4.5q-1 3-2 8-1 4-2 6t-17 0q-18-3-22-.5t4 13.5q2 4 4.5 4.5t13.5-.5l16-2 2 10q2 11 .5 12t-13.5 5.5-18 8.5l-5 3 5 4q8 6 12 6t15-7l13-8 7 8q6 6 5.5 8T400 910q-8 9-9 14 4 4 9 5h11l7-14q7-14 10.5-14t2.5 9q-1 5-11 78l-10 68h-14q-7 0-9.5-.5t-3.5-1-1-3.5q-1-8-2-9t-5 0q-4 3-3 7 1 1 0 2t-3 2.5-6 2.5l-9 5q2 0 11.5-4t10.5-2-.5 3-7.5 2q-4 1-9.5 7.5T351 1080q-1 3-.5 4t2.5 0 2.5 0-.5 4l-1 6 6-5 7-5v7q0 8 1.5 8.5T381 1122q27 53 50 73 17 15 24 35 2 8 2.5 8.5t1.5-3.5q1-12 3-11 4 1 5 21 1 15 4 16l1-6q0-5 3-14l3-8v7q0 8 2 9 2 2 3-2l1-3 1-6 6 5q6 6 14 24 6 15 10.5 20.5t11.5 5.5q5 0 9 3.5t11 15.5q5 9 23.5 28t26.5 24q2 1 7.5 1.5t12.5.5 14-1 12-2q11-3 25-17.5t14-18.5 11-10 14-13q1-3 2.5-5l1.5-2q3 1 14.5 14.5T737 1327t2-1q3-5 5 5 1 3 1 8l2 14 1-11q3-18 8-18 3 0 16.5-12.5T791 1293q4-6 5.5-7t6.5 2q8 3 10.5 3t9.5-12.5 8-13 5 4.5 12 9.5 13 4.5q14 0 20-12 3-6 10-17 8-11 11-23l5-9 1 2q4 8 8-3l2-4q4-11 8.5-11.5t5.5-3.5 5.5 0 10.5.5 10-16.5q6-16 11.5-25t22.5-27q21-22 23-27l2-6 3 6q3 6 3.5 6t-.5-8v-8l6 6 7 7-1-8q-1-6-.5-7t3.5 0 3 0-2-5l-4-6 5 4q6 6 3-2l-2-6v-1q-4-8-2-7 1 0 4 1 6 2 6.5 1.5t-2.5-3.5q-9-11-28-14-9-1-15-4t-14-3q-7 0-17.5-5.5T959 1040t-10.5-11-8.5-18q-2-8 5.5-15t15.5-15q5-4 6-5.5t6-1 9 2.5 16 9q16 8 21 8t23.5-7.5T1069 970t9-11.5 15.5-4.5 20.5-5q9-5 12.5-16t-1.5-18q-3-5-20-16t-25-14q-10-3-36-3.5t-38 5.5q-11 5-22 15t-15 17q-3 8 .5 14.5t2.5 7.5q-2 2-5.5-.5T962 934q-2-6-12-20-15-20-15-30 0-14 15-14 14 0 25-21 2-5 3-11t1-12.5-2-12-5-9.5q-10-13-53-24-24-7-58-1-26 4-35.5 10T811 809q-7 21 2 35 8 14 42 23 13 4 23 10.5t20 8.5q25 3 41 31 7 14 7.5 19.5T940 949q-10 12-17-5-2-4-5-8.5t-6-8.5-6.5-6.5-6.5-3.5q-6-2-16-14.5T862.5 885t-27.5-6q-35-2-67 9-11 4-18 12t-7 17q0 5-1 5-3 0-18.5-10T701 896q-3-3 0-5t0-2 0-2 0-2 0-2.5 0-2.5 0-2 0-2 0-2 0-2 0-2 .5-2-2.5-11l-1-11-1 11q0 11-2.5 11t.5 2 0 2 0 2 0 2 0 2 0 2 0 2.5 0 2.5 0 2 0 2 0 2q4 2-11 13l-2 2q-2 1-4 3-10 8-13 6.5T655 898q-1-3-2-5-11-25-18.5-29t-45.5-4q-33 1-43 3t-13 10l-3 5-8-4q-8-4-6.5-7.5t3-10 4.5-6.5q1 0 18 3 10 2 14.5 1.5t5-3-2.5-8.5l-4-9-16 1-17 2-2-7q-1-8-2-11 0-1 1-2.5t4-3 9-3.5q14-6 19-9l5-4-8-6q-8-5-10-4-1 0-14 8l-13 8-8-7-7-8 10-12q17-20 14-23-1-1-11-1-6 0-8.5 2t-7.5 12l-8 15-10-3q-7-2-8.5-3.5t-.5-4.5q1-4 2-21zm-17 46v11q0 12-5 13.5t-6 1.5-4.5-11-3-11.5 9.5-2.5zm14 1q2 0 5.5 1t6.5 2.5l3 1.5q0 2-4 11-7 12-14 7-2-1-1.5-11t3.5-11q0-1 1-1zm-45.5 10q1.5 0 6.5 10 4 5 4.5 7t0 3-2.5 3q-4 4-5 4t-9-7l-8-7 6-7q6-6 7.5-6zm72.5 2l7 7 7 7-9 5q-12 8-16 3-3-3-2.5-5t6.5-9zm-40 15q4 0 4.5 1.5t-.5 9.5q-1 11-1.5 11.5T449 831q-3 1-8.5-2t-9-7-1.5-6q12-9 22-9zm11 1q1 0 6 3 6 2 11 7.5t5 7.5q0 1-7 4-9 3-17 1-4-1-2-10 1-13 4-13zm-64 5l10 6q5 3 7.5 5t1.5 4-1 5q0 1-.5 2t-1.5 1q-3 0-16-3-8-2-2-14zm110 5q3 0 6 12l1 6h-19l-3.5-.5-2-1.5-1.5-3q-1-5 6-8 10-5 12-5h1zm-290.5 2q-20.5 0-32.5 5-38 15-53 53-5 13-5 34t5 35q10 29 36 56 14 15 18 24t4 25q-1 13 1 13t3 11l2 10h18q16 0 18.5-1.5t2.5-11.5q0-8 3.5-8t3.5-5v-5l8 4q17 9 42.5 11.5t41.5-3.5l5-3-2 1q-27 5-54 1.5t-40-13.5l-4-4 3-13q2-7 4-11t5.5-8.5T265 1003q27-27 38-57 6-14 6-34.5t-5-33.5q-15-38-53-53-12-5-32.5-5zm208.5 3q2 0 7 4t5.5 6-1.5 7q-3 6-8 8.5t-7 2.5q-1 0-1.5-5.5t.5-12 2.5-8.5 2.5-2zm57 8q8 0 3 18-4 15-12 9-4-4-3.5-13.5T476 834q3-2 7-3h1zm214 0q-1 0-1 4 1 2 1 3 1-4 0-7zm-306 14h12q10 0 11.5.5t2.5 4.5q0 6-9 10-10 4-11.5 3t-4.5-13zm102 0q1 0 5 1 7 1 11 2 8 2 2 14-2 3-4 3t-10-4q-5-2-7-4t-1-4q1-3 1-6 0-2 3-2zm-58 6q3 0 2 7-1 16-10 3-3-4-3.5-5.5t1-2 6.5-1.5q3-1 4-1zm14 0v1q1 1 0 4l-1-2q0-2 1-3zm7 0q1 0 2 1 2 1 0 5t-4 4-2-4q1-4 4-6zm15 9q1 0 3.5 2.5t1.5 3.5q-1 2-3 2-1 0-2.5-3.5t-.5-4.5h1zm-24 2v1q1 3 0 5-1-1-1-2 0-3 1-4zm12 1q1-1 2 4 1 4 .5 4.5t-3-2.5-.5-6h1zm462 1q4 0 6 1 3 3-2 8t-6 5-7-6-3-6 9-1q1-1 3-1zm-437 0q1 0 6 4 6 4 8.5 7.5T496 885l-6 6-6-8q-8-12-3-17 2-1 3-1 0-1 1-1zm-62 0q2 1 5 3l4 4-7 9q-7 9-8 9t-6.5-6-5.5-7.5 9-6.5q7-4 9-4v-1zm470 4q4 0 7 6 2 4 2 5t-3 1q-14-2-19-9 1-1 9-2 3-1 4-1zm-439 1q2 0 3 2 3 3-1.5 3t-4.5-2q0-3 2-3h1zm53 12l8 7 8 6-6 14q-6 14-7 14t-9-12-8-14 7-9zm-74 7q2 1 0 6-1 3-3 3t0-5q2-3 3-3v-1zm32 5q1 0 1 4t-3.5 4-.5-3q2-4 3-5zm-21 1h1q2 1 2 4t-2 3-2-4q0-3 1-3zm34 9q2 0 8 16 7 18 9.5 19.5t7.5-4.5q4-5 0 4l-5 10-11 20-1-1v-1q-2-5-5.5-33.5T478 903zm-35.5 3q2.5 0 2.5 1t-2.5 2-2.5-1 2.5-2zm23 0q2.5 0 2.5 2t-1 2-2.5-2 1-2zm-5.5 7q1 0 2 1 4 3 4 3.5t-3.5.5-3.5-3q0-2 1-2zm436 15q4 0 10 7 3 2 3 3t-4 2q-13 3-18 0-2-2 3-8 3-4 6-4zm-433.5 1q3.5 0 1 3t-3.5 3-1-3 3.5-3zm8 6q1.5 0 2.5 9.5t.5 10.5-7.5-5l-7-5 5-5q5-5 6.5-5zm-32.5 2q2 0 2 5t2.5 6-3.5 6l-5 5 1-7q1-7 1-11t2-4zm472 6q2 0 3 4t6 9q4 3 4 4.5t-3 4.5q-4 4-11 17-6 13-19 27-13 13-17 19-6 7-9.5 7.5T850 1032q-23-9-48 0-22 7-40 0-6-2-6-13v-10h12q11 0 11-3.5t4-3.5q10 0 25-12l6-4h-17q-33-1-32-7 1-1 0-2h-3q-5 0-2-2t.5-4 0-3-1.5-5-5-1-6 3-4.5-6 10-7.5T774 954l11 5 22-5q22-5 31-4 31 3 38-3 4-4 13.5-3t15.5 0q3-1 5-1zm-455 7l8 5q7 6 7 6.5t-13.5.5-13.5-1.5 6-6.5zm535 5q2 0 6 1t7.5 2 6.5 2.5l3 1.5q0 2 5 9l5 8-5 1q-5 1-7.5.5T994 973q-13-6-15-8t1-5q4-4 7-5h3zm70 1q11 0 11 2t-10.5 10.5-13 8.5-6.5 2l-3-1q1-1 3-5 3-6 3-10t3-6q3-1 10-1h3zm-34 4q18 0 8 11-7 6-12-1-5-5-5.5-6.5t1-2.5 8.5-1zm-278 9h3q2 1 0 1h-2q-4 0-4-1h3zm-310 4h33l-7 6q-8 6-9 6t-9-6zm310 2q2 0 3 1 2 0 0 1h-2l-4-1q1-1 3-1zm-316 4q2 0 8.5 4.5t6.5 6-10 8.5l-10 7 2-7q1-6 1-12.5t2-6.5zm45 1q1 0 1 2t-4.5 8-8.5 3.5 4-8.5q6-5 8-5zm-23 16h1q1 0 4 2 5 4 3.5 7.5t-14 3.5-12.5-1 9-7q7-5 9-5zm-13 23l9 2-2 2q-4 4-5.5 4t-6.5-4l-5-4h10zm-14 8q1 0 5 3t4 4-3 4q-4 5-8 7-3 1-2-2v-5q1-11 4-11zm-218 5h32l-1 8q-2 8-3 9.5t-21 1.5q-10 0-13.5-.5t-6.5-2-3.5-4-.5-7.5q0-4 2.5-4.5t14.5-.5zm729 157q2 0 4 4 3 7 3 8 0 4-6 0l-2-2-1-5q-1-2 1-4 0-1 1-1zm-8 1v3q1 5-.5 8t-3.5 3q-1 0-1.5-2t.5-4.5 2-4.5zm-30 21q3 0 0 14-3 10-6 17l-3 8 1-9q2-25 6-28zm-13 20l-1 7q-2 7-4 15l-1.5 4.5-2 2.5-3 1H870q-7 0-14.5-2.5t-7.5-4.5q0-1 1.5-1t3 .5 4.5.5q13 2 23-14zm-49 19l7 7q6 5 15 8t13 2q2-1 3 0 1 4-6 9-11 8-25-5-10-9-8-15zm-120 42q5 0 19 9 13 9 20 10 11 2 3 8-15 10-36-15-8-10-8-11t2-1z" fill="undefined"/></svg>