<svg width="64" height="64" viewBox="0 0 1024 1024" xmlns="http://www.w3.org/2000/svg"><path d="M198 429q-13 0-21 7t-8 22v136H29q-15 0-22 8t-7 21v21q0 13 7 21t22 8h140v135q0 9 6.5 15.5T191 830h107q3 0 7.5-3.5t4.5-9.5v-49h-54q-12 0-16-6t-4-19V516q0-13 4-19t16-6h54v-50q0-5-4.5-8.5T298 429H198zm504 0q-3 0-7.5 3.5T690 441v50h54q12 0 16 6t4 19v227q0 13-4 19t-16 6h-54v49q0 6 4.5 9.5t7.5 3.5h107q9 0 15.5-6.5T831 808V673h140q15 0 22-8t7-21v-21q0-13-7-21t-22-8H831V458q0-15-8-22t-21-7H702zm-422 95q-5 0-8 3.5t-3 8.5v191q0 5 3 8.5t8 3.5h220v-54l-54-54 54-53v-54H280zm253 0v54l-54 53 54 54v54h187q5 0 8-3.5t3-8.5V536q0-5-3-8.5t-8-3.5H533zm-151 70q15 0 25 10.5t10 25-10 24.5-24.5 10-25-10-10.5-24.5 10.5-25T382 594zm236 0q14 0 24.5 10.5t10.5 25-10.5 25-25 10T593 654t-10-24.5 10-25 25-10.5z"/></svg>