<?xml version="1.0" encoding="utf-8"?>
<svg width="1792" height="1792" xmlns="http://www.w3.org/2000/svg"><path d="M326 941q-29 0-29 29v136H157q-29 0-29 29v21q0 29 29 29h140v135q0 6 3 11t8 8 11 3h107q2 0 4.5-1.5t5-4.5 2.5-7v-49h-54q-8 0-12.5-3t-6-8-1.5-14v-227q0-9 1.5-14t6-8 12.5-3h54v-50q0-5-4.5-8.5T426 941H326zm504 0q-1 0-3 1l-4 2-3.5 3.5-1.5 5.5v50h54q12 0 16 6t4 19v227q0 9-1.5 14t-6 8-12.5 3h-54v49q0 6 4.5 9.5t7.5 3.5h107q9 0 15.5-6.5t6.5-15.5v-135h140q29 0 29-29v-21q0-29-29-29H959V970q0-29-29-29H830zm-422 95q-3 0-5.5 1.5t-4 4-1.5 6.5v191q0 3 .5 5t2.5 3.5 4 2.5 4 1h220v-54l-54-54 54-53v-54H408zm253 0v54l-54 53 54 54v54h187q5 0 8-3.5t3-8.5v-191q0-5-3-8.5t-8-3.5H661zm-150.5 70q14.5 0 24.5 10.5t10 25-10 24.5-25 10q-9 0-17.5-4.5t-13-12.5-4.5-18q0-14 10.5-24.5t25-10.5zm235 0q14.5 0 25 10.5t10.5 25-10.5 24.5-25 10-24.5-10-10-24.5 10-25 24.5-10.5z" fill="undefined"/></svg>