<svg width="64" height="64" viewBox="0 0 1024 1024" xmlns="http://www.w3.org/2000/svg"><path d="M442 176q-20 1-35.5 15T389 224q-3 23 9 53 12 29 11 40-5 96-11 134-7-12-26-45.5T340 356q-20-26-44-28-13-1-25 4t-20.5 15.5T240 371t12 47q6 16 23.5 65t30.5 74q2 5 7.5 14.5t8.5 16 6.5 15T333 619q6 25 13 73.5t8 54.5q8 47 13 61 3 9 9.5 19l13 20 9.5 19q4 9 11 42 22 106 25 118 34-6 76-14t86-16.5 76-14.5q71-15 85-20-2-24-15-80t-11-87q1-20 10.5-55t10.5-40l3.5-14 3.5-17v-14q-3-14-18-36t-18-27q-5-9-5-43-1-36 8-130.5t3-145.5q-4-34-12-50-10-20-30-26-31-10-54 11-18 16-26 50-6 22-11.5 64.5T587 383q-3-7-8.5-18.5T568 343t-8-19q-7-18-13.5-59.5T530 203q-13-27-51-26-7 1-20 0t-17-1zm1 23h2q4 1 6 1h5l12 .5 12 .5q6 0 12 1 2 0 5 1 12 3 19 13 2 3 3 5l2 4q1 5 2 7 2 7 4 15 1 9 3 22 8 55 16 74 8 18 12 26 8 19 15 33 3 6 7 13 5 7 8 12 3 6 8 12l4 6q2-13 4-29 9-82 10-86 1-8 3.5-26t5-31.5T630 248q4-11 9-17l2-2 2-2 1-1q2-2 4-3 1-1 2-1 3-2 5-2 5-2 10-2 2 0 3-1 5 0 10 1 4 1 7 1 2 1 3 2 10 3 17 11 2 2 3.5 4.5t3 5.5l2.5 5q4 11 6 24 0 3 1 6v7q1 10 1 21v15q0 19-1 42-1 14-2 29-2 23-4 45 0 11-1 23-1 14-2 22-3 49-3 90v9q0 4 1 9 2 9 6 16 3 5 13.5 20t13.5 25q2 3 2 7 1 3 1 5v12q-1 13-4 29-1 5-6 25-1 7-5 20t-5 19q-2 5-2 10-4 17-3 30 0 17 4 39 1 6 2 9 1 7 6 28 1 4 3 10 2 11 4 19 2 10 3 19 1 6 1 9 1 10 0 20l-2-4q-2-2-2-3-3-4-4-8-3-4-4-7 0-2-1-4v-1q0-2-1-4-1-7-3-14-1-8-4.5-23t-4.5-22q-3-16-6-30 0-4-1-7-2-11-3-23l-14 4q-9 2-14 3 15-18 18-22t5-6q1-3 3-6 4-7 6-13 4-13 8-29 4-13 8-30 1-7 2-10 0-2 1-5 1-6 1-11 1-5 1-10v-5l-1-3q0-3-.5-6t-1.5-5.5-2-5.5q-4-9-14-22-2-3-5.5-8t-6.5-8q-2-3-6-8-15-18-34-35l-7-7q-2-1-4-3-11-7-22-11-7-2-17-3-4-1-52-2-1 15-1 19 0 1-1 3v3l-2 6-3 6-4 5-5 4q-1 0-2 1l-4 2q-8 4-16 6-5 1-10 1-2 0-5 1h-10q-9 1-10 1h-10q-5 1-9 1 4 5 10 10 3 2 5 4 13 9 29 17 7 3 13 5t13 4l6 2q10 3 20 4 2 1 3 1h12l10-2q2 0 4-1 5-2 11.5-4.5t11.5-5 11.5-5.5 11.5-4q-3 3-5 6-9 10-23 19-5 3-11 6-4 3-14 8 2 5 3 7 3 7 6 12 1 2 2 3l1 3q1 1 2 3t3 3q0 1 1.5 2.5l2.5 2.5q3 3 5.5 5t6.5 3q2 2 4 2 0 1 2 1 0 1 1 1h1q2 1 4 1 7 2 17 2h4q7-1 18.5-2.5T687 712q-5 4-9 7-8 5-15 8-2 1-5 2-5 1-9 1-1 1-3 0-3 1-7 0-3 0-4.5-.5t-3.5-.5q-4-2-14-5l-.5-.5-1.5-.5q-5-2-9-3t-7-2q-4-1-7-1h-4q-8 2-17 8-2 2-15 12-6 4-10 7 3-9 9-19 2-4 6-11t5-8.5 2-3.5v-4q1-5-2-12-1-2-6-10-1-2-1.5-2.5T557 671l-2-2q-2-1-4-3-5-3-28-9-15-4-25-8-6-3-12-5-14-8-23-19-1-2-3-4-1-3-2-4-1-3-2-5 0-1-1-4t-2-4q-1-5-1-10v-14q0-4 1-9 1-3 1-5 1-2 1-4 1-2 2-5 0-2 1-4l.5-1 1-2 1.5-3q2-4 3.5-6t3.5-4l2-2q2-1 5-2 4-1 8-1h9q3 0 8.5.5t8.5.5q1 0 5 .5t6 .5q5 0 11.5-.5t16.5-1 19-.5h33q21 3 23 3 5 1 8 1l4 1 7 2q2 1 3 1l4 2q1 1 3 2 4 2 7 4 7 6 18 16l3 3 3.5 3 3.5 3 3.5 3.5 3.5 3.5q2-13 3-30 0-8 .5-18t1-21.5.5-18.5q1-9 1-15 1-7 1-14l2-22q1-19 2-42 2-23 3-63 0-5 .5-13.5t.5-15.5 1-14q0-19-3-31-1-4-2-7-3-9-8-16-2-3-5-5l-2-2-1-1q-1 0-2-1-4-2-9-3h-8q-18 0-26 14-1 3-3 7 0 1-1 3-2 5-4 11-2 8-6 37-10 92-13 141v12q0 2-1 12v23l20 4q9 2 19 4-6 3-12 5l-8 2q-1 0-5 1l-8 2q-9 1-17 2t-18 1q3-4 7-9 3-4 8-10-1-1-8-18-4-10-8-17-3-6-7-13-2-4-7-13-10-16-14-25-13-29-19-42-2 21-2 66 0 16-1 22v52q6 2 12 5 4 1 6 2 6 2 7 3-16 6-21 8l-10 2q-3 1-5 1h-6l-4-1h-4q-3-1-4-2-4-1-8-4l-11-6q5-1 8-1 6-1 14-1 5-1 8-1 4-36 1-69-45-13-64-24 7 0 16 1l16 2 17 2q6 2 16 3 1-9 2-19 0-6 1-10v-19q0-13-1-29-14-4-33-6-1-1-14-2.5t-19-2.5q22-12 68-5-1-25-6-55-1-8-3-18-2-13-2-14-1-2-1-4-3-10-7-17-1-1-1.5-2t-2-2-2-1.5-2-1.5-2.5-1q-2-1-5-2-1 0-2.5-.5t-2.5-.5q-6 0-11 2-1 1-2 1-2 2-4 3l-3 3-4 4q0 2-1 3-3 5-5 12l-2 4q-2 5-3 11-3 13-6 49-1 10-2 22-1 3-3 23v1q-3 21-4 33v11q-1 16-2 33v1q-2 32-2 35-1 19-1 34-1 19-1 34 14-3 27-5-2 3-5 7l-6 6q-7 8-13 12-7 4-17 7-6 2-18 4 3-5 7-10l8-10q-4-6-11-20-4-8-11.5-22.5T380 479q-26-49-43-79-1-2-6-9-4-6-6-10-1-2-4-6 0-1-.5-1.5t-1.5-.5q-1-2-3-4l-2-2q-6-6-12-7-1-1-2-1-3 0-5.5.5t-4.5 1-4.5 1.5-4.5 2-4 3q-1 0-2 1l-2 2-2 4-2 4q0 3 1 5 0 5 1 11 1 5 3 10 2 7 4 15 2 4 5 12 0 1 .5 1.5t.5 1.5q10 26 12 29 2 7 4 13 2 4 4 9.5t3.5 9.5 3.5 9.5 3 9.5q5 15 10 26 1 2 2 6 1 0 1 1v1l4 8 1 2 3 6 2 3.5 1.5 3 1.5 3 1.5 3 1.5 3.5 23 46q4 0 10 1 14 0 30 2-15 6-19 8-11 5-19 7 2 16 8 53 4 25 5 39 1 8 2 14 5 38 14 55 2 5 4 8l3 4.5 3 3.5q2 3 5 5.5t6 5.5q2 1 41 23-7 0-14 1h-14q2 13 5 29 2 8 3 15 1 2 1.5 4.5l1 5 1.5 4.5q3 17 6 29 5 21 6 29 1 4 1.5 8.5t.5 9.5v4q-1 6-2 14-9-23-19-77-3-18-6-29-3-10-5-19-1-4-3-9l-2-5q0-2-1-4 0-1-2-5l-2-4q-3-6-7-13v-1q-3-3-9-12-3-6-4-6-7-12-11-20-2-5-4-11-2-9-4-23-1-2-1.5-6t-.5-5q-2-11-5-35-1-8-2-17-4-32-8-52l-2-8q-2-10-4-17-1-4-3-9-3-8-7-17-2-5-5-12t-9-16l-4-8q-4-8-7-16-4-7-7-16-4-10-9-25-2-3-8.5-21.5T284 461q-3-8-7-16-1-4-3-8t-3.5-8.5-3.5-7.5q-2-7-4-12-2-4-2-6l-2-6-1-4v-4q-1-7 0-13 0-1 1-3v-1q0-2 1-3l1-2q1-1 1-2l2-2 2.5-2 2.5-2 2-2 4-2 2-1q2-1 5-2 4-1 8.5-2t9.5 0h5q8 2 14 7l1 2q3 2 3 3 1 0 2 1l6 9 13 21q2 4 6 10.5t6 10 4 6.5l8 14q2 3 4 7 5 9 7 14 1 2 8 14l7 14q13 26 23 42 1-11 3-80 0-16 1-27 1-14 3-43 2-27 3-42v-12q0-1-.5-3.5t-.5-4.5q-1-3-2-7-1-2-1-4-6-13-7-17-3-9-5-17-2-7-3-13-1-5-1-9-1-7 0-14v-3h1v-3l.5-.5.5-.5v-3q1-1 2-3t2-3q0-1 1-2l2-2 2-2q0-1 .5-1h.5q0-1 1-1l1-1 2-2q1-1 3-1v-1q1 0 2.5-1t2.5-1h1q2-1 3-1t3-1h5zm10 8q-28 0-34 21-5 23 13 58 15-60 24-79h-3zm193 128h13l2 1h5q1 0 4 1h2q4 1 7 2 6 2 13 4l6 3q-11 2-19 3-2 0-5 1-7 0-14-2-5-1-10-3-3-1-7-3-2-2-9-6 3-1 6-1h6zm-300 88q-2 2-4 6-4 5-7 9-1 1-2 3l-6 4-6 4q-3 1-7 3-2 0-4 1-2 0-3 1-2 0-5 1h-2q2-2 4-5l5-5 3-3 2.5-2 2.5-2q2-2 3-2 3-3 6-4 9-5 20-9zm312 5h4q3 0 5 1 8 1 19 8 1 0 6 4-16 1-31-2-9-1-19-4-5-1-11-4 4 0 9-1t10-1q2-1 3-1h5zm-281 57q0 1-2 3-1 0-2 1.5l-1 1.5q-3 3-6 5-1 1-3 2-3 3-6 5-13 9-30 16 15-20 26-27 5-2 12-4 2-1 6-1 1-1 3-1t3-1zm95 58q-7 22-12 41 5 0 17.5 1t19.5 2h9q5 0 9.5-.5t8.5-1.5 9-3q4-1 8-5 0-1 1-2 2-3 4-9 1-1 1-2 1-2 1.5-4.5l1-5 1.5-4.5q-33-4-59-6-9-1-20-1z"/></svg>