<?xml version="1.0" encoding="utf-8"?>
<svg width="1792" height="1792" xmlns="http://www.w3.org/2000/svg"><path d="M610 738q-8 1-11 2-69 9-120 57-41 37-57 91-19 64 4 126 17 45 52 78 2 2 6.5 6t6.5 6q-6 10-13 21.5t-15 24.5-14 22q-5 9-13 21.5t-15 24.5-13 21q-26-1-45 7-30 13-45 40-16 30-7 63 8 30 33 48 31 22 68 17 40-6 63-38 27-37 9-80 0-2-10-20 15-25 42.5-69.5T553 1147q2-3 35-56 0-1 5-8.5t7-12.5q-3-1-11-3.5t-12-3.5q-49-20-70-67-17-36-9-75 9-48 48-77 37-27 82-27 58-1 97 40 35 35 37 84 0 17-6 42 12 4 35.5 10t34.5 9q3 0 8 1 14-43 7-86-9-68-59-117-42-42-103-56-6-2-17-3.5t-15-2.5h-37zm18.5 124q-17.5 0-34.5 7-37 15-50 52-8 20-4 44 7 39 42 59 24 15 56 13 3 4 5 8 10 17 39 66.5t45 76.5q17 30 26 45 6 10 8 12 27-26 59-36 31-10 64.5-3.5T944 1232q31 25 42 61 12 37 1 74-8 28-28.5 50t-48.5 33q-31 13-66.5 8.5T780 1434l-18-16q-4 3-10 9l-7 7q-5 5-19 18.5t-22 21.5q23 23 52 38.5t61 21.5q2 1 10 2t12 2h39q4-1 13.5-2t14.5-3q64-13 110-60 46-46 56-110 11-75-28-137-36-59-100-85-69-28-142-9l-9 3-8 2q-4-6-8.5-13t-9-15.5-8.5-13.5q-7-14-23-41t-24-41q-6-10-8-13 13-19 16-37 5-32-13-60-16-25-44-35-17-6-34.5-6zM346 1126q-58 13-100 53-47 44-61 105-1 3-1.5 7.5t-1.5 9-1 7.5v37q0 3 1 9.5t2 11.5 3 10q15 64 67 108 50 41 115 49 79 9 146-33 53-34 78-91 7-17 14-45 6-1 18 0 16 0 53.5.5t57.5 1.5h16l18 1q11 20 25 30 29 24 67 21 28-3 50-20 27-21 32-54 5-35-15-63-16-22-41-32-35-14-71 1-28 12-43 37-1 3-3 6-13 0-37.5-.5t-31.5-.5q-30-1-86-1-14-1-39.5-1.5t-34.5-.5h-19q0 3 1.5 9t1.5 8q8 43-13 81-9 18-24 32t-34 23-39 12q-35 6-70-7.5t-57-42.5q-28-35-27-79 1-37 23-69 27-39 73-51 4-1 9-3-2-10-21-76z" fill="undefined"/></svg>