<svg width="1792" height="1792" xmlns="http://www.w3.org/2000/svg"><path d="M937 686q-25 0-47 11-35 15-53 50.5T823 823v320q-6-5-55.5-55t-77.5-74q-38-25-83-15.5t-73 44.5l-101 100q0-31 .5-176.5T433 790q-4-42-36.5-72.5T322 687q-51-4-87.5 37T204 816v615q1 15 6.5 30t14.5 26.5 21 21.5 26 16 28.5 9 30 1.5 29.5-7.5q15-7 30-18.5t25-22 24.5-26T464 1438q27-27 81.5-82t82.5-82q21 20 106 105l131 131q28 24 66 25.5t70.5-19 44.5-55.5q5-20 6.5-42.5t.5-51.5 0-43v-267.5l-1-266.5q-3-44-37.5-74T937 686zm-616 67q14-1 26 8.5t17 23 2 28.5-15 24q-16 13-34.5 12.5t-33.5-15-13-34.5q0-19 14.5-33.5T319 753h2zm619 0q15-1 26.5 8.5t16.5 23 2 28.5-14 24q-16 13-35 12.5t-33.5-15T889 800q0-19 15-33.5t34-13.5h2zm-310 309q17 0 30.5 12.5t16 29-6.5 32.5-27 21.5-35.5-2.5-23.5-25q-11-23 4-46t40-22h2zm310 310q28 0 41.5 28t-4.5 50q-17 24-48 18.5t-38-33.5q-4-11-1.5-22.5t9-20.5 17-14.5 22.5-5.5h2zm-619 0q12 0 22 6t15.5 16.5 7.5 21.5-2 22.5-14 18.5q-22 22-52.5 7t-26.5-46q0-12 6.5-23t17.5-17 24-6h2z" fill="undefined"/></svg>