<svg width="64" height="64" viewBox="0 0 1024 1024" xmlns="http://www.w3.org/2000/svg"><path d="M809 174q-25 0-47 11-35 15-54 52-17 34-13 74v320q-16-15-46-46-56-57-87-83-24-17-53.5-18t-57 11.5T406 531L305 631V497q1-146 0-219-4-42-36.5-72.5T194 175q-34-2-62.5 16t-44 49T76 304v234q-1 254 0 381 2 36 27 63.5t60.5 37.5 68.5-4q20-9 40-27 12-10 34-34 20-20 30-29l164-164 90 89 147 147q28 24 66 25.5t70.5-19T918 949q5-21 6-47 1-15 1-47-1-29 0-43V609q0-221-1-331-2-29-18.5-52.5T863 188t-54-14zm-616 67q20-1 33 15t13 36-15 33.5-35 12-34.5-15.5-13.5-33.5 15.5-34T191 241h2zm619 0q20-1 33 15t13 36-14.5 33.5-35 12T774 322t-13.5-33.5 15.5-34 34-13.5h2zM502 550q17 0 30 12.5t16 30-6 32.5-27 20-35.5-2.5T456 618q-7-15-2.5-31t17.5-26.5 29-10.5h2zm310 310q18 0 31 13.5t15 32-9 33-29.5 17.5-35-6-21.5-27q-5-15 .5-30t18-24.5T810 860h2zm-619 0q20 0 33 16t12.5 36.5T222 945q-14 14-34 12t-33.5-16.5-12.5-34 15.5-33T191 860h2z"/></svg>