<svg width="64" height="64" viewBox="0 0 1024 1024" xmlns="http://www.w3.org/2000/svg"><path d="M500 176q-115 0-213 56.5T132 387 75 600.5 132 814t155 155 213 57 213-57 155-155 57-213.5T868 387 713 232.5 500 176zm0 19q110 0 203.5 54.5T851 397t54 203-54 203.5-147.5 148T500 1006t-203.5-54.5-147.5-148T95 600t54-203 147.5-147.5T500 195zm0 41q-63 0-121 20.5t-104.5 57T195 400q17 1 24 1l97-5q9-1 13.5 6t1.5 15-13 9q-19 2-41 4l132 394 80-239-57-155-38-4q-9-1-12.5-8.5t1-15T396 396q61 5 96 5l98-5q9-1 13.5 6t1 15-12.5 9q-20 2-42 4l132 391 36-121q28-89 28-118 0-48-30-101-1-1-6-9.5t-6-10-5-8.5-5.5-9.5-4.5-9-4-10-2.5-9-2-10-.5-9.5q0-26 17.5-45.5T741 331q1 0 3 .5l2 .5q-104-96-246-96zm320 190q2 18 2 37 0 61-27 131L683 916q83-49 132.5-132.5T865 600q0-93-45-174zm-653 26q-32 71-32 148 0 107 56.5 195.5T341 929zm339 180L397 950q51 15 103 15 62 0 121-21-1-2-3-5z"/></svg>