<svg width="1792" height="1792" xmlns="http://www.w3.org/2000/svg"><path d="M487 754q-98 0-180.5 48T176 933t-48 180.5 48 180T306.5 1424t180.5 48q73 0 141-29 68 29 141 29 98 0 180.5-48t130.5-130.5 48-180-48-180.5-130.5-131T769 754q-73 0-141 29-68-29-141-29zm-7 113q80 0 145 47 65-47 145-47 102 0 175 72.5t73 175.5-73 176-175 73q-80 0-145-47-65 47-145 47-68 0-125-33.5t-90.5-90.5-33.5-125q0-103 73-175.5T480 867zm-82 100q-28 59-34.5 113t5 91.5 30 62T438 1268q12 5 24.5 9t27 6.5 29 2.5 29.5-4 28-11 26-20.5 23-30.5q18 35 52.5 51.5t69 15T813 1270q23-10 42-38t29.5-66.5 3.5-91.5-34-107H734q31 71 31 146.5t-31 78.5q-23 2-33-7t-14-43-2-107H568q4 69-2.5 107t-19.5 46.5-32-.5q-18-7-24-36.5t1-76.5 25-108H398z" fill="undefined"/></svg>