<svg width="64" height="64" viewBox="0 0 1024 1024" xmlns="http://www.w3.org/2000/svg"><path d="M359 242q-98 0-180.5 48T48 421 0 601.5t48 180T178.5 912 359 960q73 0 141-29 68 29 141 29 98 0 180.5-48T952 781.5t48-180T952 421 821.5 290 641 242q-73 0-141 29-68-29-141-29zm-7 113q80 0 145 47 65-47 145-47 102 0 175 72.5T890 603t-73 176-175 73q-80 0-145-47-65 47-145 47-68 0-125-33.5T136.5 728 103 603q0-103 73-175.5T352 355zm-82 100q-28 59-34.5 113t5 91.5 30 62T310 756q12 5 24.5 9t27 6.5 29 2.5 29.5-4 28-11 26-20.5 23-30.5q18 35 52.5 51.5t69 15T685 758q23-10 42-38t29.5-66.5T760 562t-34-107H606q31 71 31 146.5T606 680q-23 2-33-7t-14-43-2-107H440q4 69-2.5 107T418 676.5t-32-.5q-18-7-24-36.5t1-76.5 25-108H270z"/></svg>