<svg width="64" height="64" viewBox="0 0 1024 1024" xmlns="http://www.w3.org/2000/svg"><path d="M359 242q-98 0-181 49-82 48-129 129Q0 504 0 601.5T49 782q47 81 129 129 83 49 181 49 73 0 141-29 68 29 141 29 98 0 181-49 81-48 129-129 49-83 49-180.5T951 420q-48-81-129-129-83-49-181-49-73 0-141 29-68-29-141-29zm-7 113q80 0 145 47 65-47 145-47 67 0 124 33.5t90.5 90.5T890 603.5 856.5 728 766 818.5 642 852q-80 0-145-47-65 47-145 47-68 0-125-33.5T136.5 728 103 603.5 136.5 479t90.5-90.5T352 355zm-82 100q-36 77-36 146 0 59 25 103 21 38 51 52 51 22 95 17 60-8 92-65 18 35 53 52 30 15 68 14 35-1 67-15.5t54-57.5q24-47 23-106-1-69-36-140H606q20 46 27 99 7 51 0 87.5T606 680q-23 2-32-7-12-10-15.5-43.5T557 523H440q6 101-10 137-14 30-44 16-27-11-26.5-70T388 455H270z"/></svg>