<svg xmlns="http://www.w3.org/2000/svg" width="17" height="17" viewBox="0 0 17 17"><path d="M8.516 0c-4.687 0-8.5 3.813-8.5 8.5s3.813 8.5 8.5 8.5 8.5-3.813 8.5-8.5S13.202 0 8.516 0zm4.473 8a7.48 7.48 0 011.497-4.02A7.448 7.448 0 0115.99 8h-3.001zm3.001 1a7.445 7.445 0 01-1.505 4.021A7.483 7.483 0 0112.99 9h3zm-2.164-5.791A8.475 8.475 0 0011.989 8H9V1.024a7.483 7.483 0 014.826 2.185zM8 1.026V8H5.04a8.462 8.462 0 00-1.834-4.791A7.473 7.473 0 018 1.026zM1.041 8a7.445 7.445 0 011.505-4.021A7.485 7.485 0 014.041 8h-3zM4.04 9a7.465 7.465 0 01-1.494 4.021A7.445 7.445 0 011.041 9H4.04zm-.835 4.791A8.449 8.449 0 005.04 9H8v6.974a7.478 7.478 0 01-4.795-2.183zM9 15.976V9h2.99a8.478 8.478 0 001.835 4.792A7.485 7.485 0 019 15.976z"/></svg>