<svg xmlns="http://www.w3.org/2000/svg" width="64" height="64" viewBox="0 0 512 512"><path d="M409.69 341.805l-21.263-21.324 49.514-49.423H271.059V437.94l49.423-49.514 21.324 21.263-85.805 85.986-85.805-85.986 21.323-21.263 49.423 49.514V271.058H74.06l49.513 49.423-21.263 21.324L16.324 256l85.986-85.805 21.263 21.324-49.513 49.423h166.882V74.06l-49.423 49.514-21.323-21.263 85.805-85.986 85.805 85.986-21.324 21.263-49.423-49.514v166.882h166.882l-49.514-49.423 21.263-21.324L495.676 256l-85.986 85.805z"/></svg>