<svg xmlns="http://www.w3.org/2000/svg" width="17" height="17" viewBox="0 0 17 17"><path d="M15.253 5.038c.011.151.011.302.011.454 0 4.605-3.506 9.912-9.913 9.912A9.852 9.852 0 010 13.84c.281.032.551.042.842.042a6.98 6.98 0 004.325-1.488A3.489 3.489 0 011.91 9.977c.215.032.431.054.656.054.314 0 .627-.043.918-.118A3.485 3.485 0 01.69 6.494v-.043c.464.258 1.003.42 1.575.442a3.483 3.483 0 01-1.078-4.66 9.897 9.897 0 007.184 3.646 3.865 3.865 0 01-.087-.799 3.483 3.483 0 013.484-3.483c1.003 0 1.909.42 2.546 1.1a6.874 6.874 0 002.211-.841 3.467 3.467 0 01-1.532 1.919A6.958 6.958 0 0017 3.236a7.512 7.512 0 01-1.747 1.802z"/></svg>