<?xml version="1.0" standalone="no"?>
<!DOCTYPE svg PUBLIC "-//W3C//DTD SVG 1.1//EN" "http://www.w3.org/Graphics/SVG/1.1/DTD/svg11.dtd" >
<svg xmlns="http://www.w3.org/2000/svg">
<defs>
  <font id="ionicons" horiz-adv-x="128">
    <font-face font-family="ionicons"
      units-per-em="128" ascent="128"
      descent="0" />
    <missing-glyph horiz-adv-x="0" />
    <glyph glyph-name="accessibility"
      unicode="&#xEA01;"
      horiz-adv-x="128" d="M64 100A14 14 0 1 0 78 114A14.015 14.015 0 0 0 64 100zM108 99.8L107.8875 99.77L107.7825 99.7375C107.5325 99.6675 107.2825 99.5925 107.0325 99.515C102.38 98.15 79.8 91.785 63.8925 91.785C49.11 91.785 28.5725 97.285 22.0025 99.1525A18.4475 18.4475 0 0 1 20.0025 99.7975C15.2525 101.0475 12.0025 96.2225 12.0025 91.8125C12.0025 87.445 15.9275 85.365 19.89 83.8725V83.8025L43.695 76.3675C46.1275 75.435 46.7775 74.4825 47.095 73.6575C48.1275 71.01 47.3025 65.7675 47.01 63.9375L45.56 52.6875L37.5125 8.64Q37.475 8.46 37.445 8.2725L37.3875 7.955C36.8075 3.9175 39.7725 0 45.3875 0C50.2875 0 52.45 3.3825 53.3875 7.985S60.3875 47.3775 63.8875 47.3775S74.5975 7.985 74.5975 7.985C75.535 3.3825 77.6975 0 82.5975 0C88.2275 0 91.1925 3.935 90.5975 7.985A14.2925 14.2925 0 0 1 90.4075 9L82.25 52.6825L80.8025 63.9325C79.755 70.485 80.5975 72.65 80.8825 73.1575A0.2725 0.2725 0 0 1 80.9025 73.195C81.1725 73.695 82.4025 74.815 85.2725 75.8925L107.5925 83.695A4.225 4.225 0 0 1 107.9975 83.825C111.9975 85.325 115.9975 87.4 115.9975 91.8075S112.75 101.0475 108 99.8z" />
    <glyph glyph-name="accessibility-outline"
      unicode="&#xEA02;"
      horiz-adv-x="128" d="M54.0059218870695 114A10 10 0 0 1 74.0059218870695 114A10 10 0 0 1 54.0059218870695 114M51.0634218870695 59.39C51.7884218870694 63.905 52.1134218870695 68.27 50.9384218870695 71.2875C49.9384218870695 73.8825 47.7634218870695 75.335 45.1384218870695 76.325L22.0059218870695 83.81C19.0059218870695 84.81 16.2034218870695 86.485 16.0059218870695 89.795C15.7559218870695 94.045 19.5059218870695 96.795 23.2559218870695 95.795C23.2559218870695 95.795 45.2559218870695 88.01 64.0059218870695 88.01S104.5059218870695 95.76 104.5059218870695 95.76C109.0059218870695 97.01 112.0059218870695 93.51 112.0059218870695 89.8125C112.0059218870695 86.26 109.2559218870695 85.01 106.0059218870695 83.8275L84.0059218870695 75.85C82.0059218870695 75.1 78.7559218870695 73.6 77.5059218870695 71.305C76.0059218870695 68.6175 76.2559218870695 63.9225 76.9809218870694 59.4075L78.4559218870694 52L87.8084218870694 11.025C88.5084218870694 7.7375 86.2334218870694 4.665 82.9584218870694 4.09S77.0059218870695 5.75 76.0359218870695 8.93L66.6459218870695 37.9125Q65.9684218870695 39.9975 65.4459218870695 42.13L64.0059218870695 48L62.6809218870695 42.5875Q62.0509218870695 40 61.2309218870694 37.4675L52.0059218870695 8.955C51.0059218870695 5.7425 48.3809218870695 3.5175 45.1059218870695 4.09S39.5059218870695 7.9875 40.2409218870695 11.025L49.5884218870694 51.9825z" />
    <glyph glyph-name="accessibility-sharp"
      unicode="&#xEA03;"
      horiz-adv-x="128" d="M112 100C95.295 95.52 82.1125 92 64 92S32.705 95.52 16 100L12 87.25C24 82.1175 36.1775 78.46 48.8 73.95L36 4L50.1 0L61.5 44H66.5L77.9 0L92 4L79.2 73.95C91.815 78.0175 104 82.1175 116 87zM64 100A14 14 0 1 0 78 114A14.015 14.015 0 0 0 64 100z" />
    <glyph glyph-name="add"
      unicode="&#xEA04;"
      horiz-adv-x="128" d="M64 100V28M100 64H28" />
    <glyph glyph-name="add-circle"
      unicode="&#xEA05;"
      horiz-adv-x="128" d="M64 116C35.3275 116 12 92.6725 12 64S35.3275 12 64 12S116 35.3275 116 64S92.6725 116 64 116zM84 60H68V44A4 4 0 0 0 60 44V60H44A4 4 0 0 0 44 68H60V84A4 4 0 0 0 68 84V68H84A4 4 0 0 0 84 60z" />
    <glyph glyph-name="add-circle-outline"
      unicode="&#xEA06;"
      horiz-adv-x="128" d="M112 64C112 90.5 90.5 112 64 112S16 90.5 16 64S37.5 16 64 16S112 37.5 112 64zM64 84V44M84 64H44" />
    <glyph glyph-name="add-circle-sharp"
      unicode="&#xEA07;"
      horiz-adv-x="128" d="M64 116C35.3275 116 12 92.6725 12 64S35.3275 12 64 12S116 35.3275 116 64S92.6725 116 64 116zM88 60H68V40H60V60H40V68H60V88H68V68H88z" />
    <glyph glyph-name="add-outline"
      unicode="&#xEA08;"
      horiz-adv-x="128" d="M64 100V28M100 64H28" />
    <glyph glyph-name="add-sharp"
      unicode="&#xEA09;"
      horiz-adv-x="128" d="M64 100V28M100 64H28" />
    <glyph glyph-name="airplane"
      unicode="&#xEA0A;"
      horiz-adv-x="128" d="M46.6537153701378 12H39.9987153701378A4 4 0 0 0 36.3562153701378 17.65L52.4712153701378 53.2125L28.2737153701378 53.75L19.4487153701378 43.0575C17.7662153701378 40.9425 16.4237153701378 40 12.9987153701378 40H8.5187153701378A4.415 4.415 0 0 0 4.8437153701378 41.765C4.2487153701378 42.5675 3.6637153701378 43.9275 4.2337153701378 45.8675L9.1887153701378 63.6175C9.2262153701378 63.75 9.2712153701378 63.8825 9.3212153701378 64.0125A0.095 0.095 0 0 1 9.3212153701378 64.05A3.705 3.705 0 0 0 9.1887153701378 64.4475L4.2287153701378 82.31C3.6912153701378 84.2125 4.2787153701378 85.5425 4.8687153701378 86.325A4.2075 4.2075 0 0 0 8.2687153701378 88H12.9987153701378C15.5562153701378 88 18.0387153701378 86.8525 19.4987153701378 85L28.1412153701378 74.4875L52.4712153701378 74.8475L36.3612153701378 110.3475A4 4 0 0 0 39.9987153701378 116H46.7262153701378A6.25 6.25 0 0 0 51.5637153701378 113.55L82.8262153701378 75.55L97.2687153701378 75.93C98.3262153701378 75.9875 101.2562153701378 76.0075 101.9337153701378 76.0075C115.7487153701378 76 123.9987153701378 71.515 123.9987153701378 64C123.9987153701378 61.635 123.0537153701378 57.25 116.7312153701378 54.46C112.9987153701378 52.81 108.0187153701378 51.975 101.9287153701378 51.975C101.2587153701378 51.975 98.3362153701378 51.995 97.2637153701378 52.0525L82.8237153701378 52.4375L51.4837153701378 14.4375A6.25 6.25 0 0 0 46.6537153701378 12z" />
    <glyph glyph-name="airplane-outline"
      unicode="&#xEA0B;"
      horiz-adv-x="128" d="M101.9303212237638 72C101.0803212237638 72 98.2328212237638 71.975 97.4303212237638 71.925L81.2053212237638 71.5A0.4575 0.4575 0 0 0 80.7828212237638 71.725L48.3878212237638 111.11A2.25 2.25 0 0 1 46.7228212237638 112H40.0003212237638L58.2503212237638 71.75A0.5875 0.5875 0 0 0 57.6853212237638 70.9125L27.2628212237638 70.4625A2.015 2.015 0 0 0 25.6128212237638 71.2375L16.3628212237638 82.4875C15.6128212237638 83.4625 14.2078212237638 83.9875 12.9853212237638 83.9875H8.2703212237638C7.9478212237638 83.9875 7.9953212237638 83.685 8.0828212237638 83.38L13.0428212237638 65.525A4.075 4.075 0 0 0 13.0428212237638 62.55L8.0778212237638 44.75C7.9303212237638 44.2625 7.9478212237638 44 8.5203212237638 44H13.0003212237638C15.0353212237638 44 15.3128212237638 44.265 16.3528212237638 45.575L25.7778212237638 57A2.0475 2.0475 0 0 0 27.4278212237638 57.775L57.5978212237638 57.1A0.675 0.675 0 0 0 58.2053212237638 56.165L40.0003212237638 16H46.6603212237638A2.25 2.25 0 0 1 48.3228212237638 16.8875L80.7853212237638 56.25C80.8828212237638 56.4 81.2853212237638 56.475 81.4578212237638 56.475L97.4328212237638 56.05C98.2578212237638 56 101.0803212237638 55.975 101.9328212237638 55.975C113.0003212237638 55.975 120.0003212237638 59.0175 120.0003212237638 64S113.0303212237638 72 101.9303212237638 72z" />
    <glyph glyph-name="airplane-sharp"
      unicode="&#xEA0C;"
      horiz-adv-x="128" d="M101.9475 76C101.2675 76 98.3375 75.98 97.28 75.9225L82.8375 75.5425L49.5325 116H33.83L52.4775 74.8475L28.15 74.4875L17.08 88H4.0525L9.205 64.455C9.2425 64.32 9.2875 64.1875 9.3375 64.0575A0.065 0.065 0 0 0 9.3375 64.02A3.855 3.855 0 0 1 9.205 63.625L3.9825 40H16.9275L28.29 53.75L52.4825 53.2075L33.8275 12H49.5775L82.8275 52.4375L97.27 52.0525C98.3425 51.995 101.27 51.975 101.935 51.975C108.0225 51.975 113.0025 52.81 116.7375 54.46C123.0725 57.25 124.0175 61.635 124.0175 64C124.0175 71.515 115.7675 76 101.9475 76zM84.125 54.025z" />
    <glyph glyph-name="alarm"
      unicode="&#xEA0D;"
      horiz-adv-x="128" d="M38.3962546014777 100.385A5.3525 5.3525 0 0 1 38.1187546014777 108.25A15.6675 15.6675 0 0 1 27.9987546014777 112L27.1812546014777 111.9775H27.0612546014777C18.5987546014777 111.4625 11.9987546014777 104.1125 12.0162546014777 95.25C12.0162546014777 90.5 14.0162546014777 87.985 15.5962546014777 85.9725A5.1525 5.1525 0 0 1 19.2712546014777 84.0225C19.3362546014777 84.0225 19.4462546014777 84.01 19.7712546014777 84.01A4.765 4.765 0 0 1 23.2087546014777 85.4825zM100.9462546014777 111.9725L100.1287546014777 111.9975H99.9987546014777A15.6675 15.6675 0 0 1 89.8687546014777 108.2475A5.3525 5.3525 0 0 1 89.5912546014777 100.3875L104.7837546014777 85.475A4.765 4.765 0 0 1 108.2312546014777 84C108.5512546014777 84 108.6612546014777 84 108.7312546014777 84.0125A5.1525 5.1525 0 0 1 112.4037546014777 85.9625C113.9937546014777 87.975 115.9737546014777 90.4825 115.9837546014777 95.24C115.9987546014777 104.1125 109.3987546014777 111.4625 100.9462546014777 111.9725zM64.0162546014777 104C39.7662546014777 104 20.0162546014777 84.2625 20.0162546014777 60A43.8075 43.8075 0 0 1 30.2187546014777 31.86L21.1887546014777 22.8275A4 4 0 1 1 26.8462546014777 17.1725L35.8762546014777 26.2025A43.9075 43.9075 0 0 1 92.1562546014777 26.2025L101.1887546014777 17.1725A4 4 0 1 1 106.8462546014777 22.8275L97.8137546014777 31.86A43.7925 43.7925 0 0 1 108.0162546014777 60C108.0162546014777 84.25 88.2787546014777 104 64.0162546014777 104zM68.0162546014777 60A4 4 0 0 0 64.0162546014777 56H44.0162546014777A4 4 0 0 0 44.0162546014777 64H60.0162546014777V88A4 4 0 0 0 68.0162546014777 88z" />
    <glyph glyph-name="alarm-outline"
      unicode="&#xEA0E;"
      horiz-adv-x="128" d="M104.0175 60A40 40 0 1 1 64.0175 20A40 40 0 0 1 104.0175 60zM35.53 105.1975A11.6675 11.6675 0 0 1 28 108L27.3025 107.98C20.915 107.595 16 102 16.0175 95.25C16.0175 91.9475 17.1825 90.4075 18.7375 88.4425A1.1375 1.1375 0 0 1 19.5475 88H19.7675A0.8075 0.8075 0 0 1 20.4025 88.3275L35.595 103.25A1.345 1.345 0 0 1 35.9825 104.25A1.315 1.315 0 0 1 35.53 105.1975zM92.47 105.1975A11.6675 11.6675 0 0 0 100 108L100.6975 107.98C107.085 107.595 112 102 111.9825 95.25C111.9825 91.9475 110.8175 90.4075 109.2625 88.4425A1.1375 1.1375 0 0 0 108.4525 88.0025H108.2325A0.8075 0.8075 0 0 0 107.5975 88.33L92.405 103.25A1.345 1.345 0 0 0 92.0175 104.25A1.315 1.315 0 0 0 92.47 105.1975zM64.0175 88V60H44.0175M104.0175 20L94.0175 30M24.0175 20L34.0175 30" />
    <glyph glyph-name="alarm-sharp"
      unicode="&#xEA0F;"
      horiz-adv-x="128" d="M100.9475 111.9725L100.13 111.9975H100C96.3175 111.9975 92.8625 110.52 89.87 108.2475S86 104 86 104L108 82.5S110.8125 83.9275 112.4025 85.9625S115.9725 90.4825 115.9825 95.24C116 104.1125 109.4 111.4625 100.9475 111.9725zM27.0525 111.9725L27.87 111.9975H28C31.6825 111.9975 35.1375 110.52 38.13 108.2475S42 104 42 104L20 82.5S17.1875 83.9275 15.5975 85.9625S12.0275 90.4825 12.0175 95.25C12 104.1125 18.6 111.4625 27.0525 111.9725zM97.825 31.85A0.015 0.015 0 0 0 97.825 31.87C106.25 42 110.25 55.94 106.75 70.6925C103.34 85.0725 88.5825 99.615 74.165 102.8575C45.5 109.3025 20.0175 87.5725 20.0175 60A43.7875 43.7875 0 0 1 30.2125 31.87A0.015 0.015 0 0 0 30.2125 31.85L18.25 20A0.015 0.015 0 0 1 18.25 19.98L24 14.3525A0.015 0.015 0 0 1 24.02 14.3525L35.8775 26.195A0.015 0.015 0 0 0 35.8975 26.195A43.91 43.91 0 0 1 92.16 26.195H92.1775L104 14.3525A0.015 0.015 0 0 1 104.02 14.3525L110 20zM68.0175 56H40V63.975L40.0125 63.9875H60.0125V92H68.0125z" />
    <glyph glyph-name="albums"
      unicode="&#xEA10;"
      horiz-adv-x="128" d="M92 104H36A4 4 0 0 0 36 112H92A4 4 0 0 0 92 104zM100 92H28A4 4 0 0 0 28 100H100A4 4 0 0 0 100 92zM104.7825 16H23.2175A11.23 11.23 0 0 0 12 27.2175V76.7825A11.23 11.23 0 0 0 23.2175 88H104.7825A11.23 11.23 0 0 0 116 76.7825V27.2175A11.23 11.23 0 0 0 104.7825 16z" />
    <glyph glyph-name="albums-outline"
      unicode="&#xEA11;"
      horiz-adv-x="128" d="M23.2175 84H104.7825A7.2175 7.2175 0 0 0 112 76.7825V27.2175A7.2175 7.2175 0 0 0 104.7825 20H23.2175A7.2175 7.2175 0 0 0 16 27.2175V76.7825A7.2175 7.2175 0 0 0 23.2175 84zM36 108H92M28 96H100" />
    <glyph glyph-name="albums-sharp"
      unicode="&#xEA12;"
      horiz-adv-x="128" d="M32 112H96V104H32zM24 100H104V92H24zM116 16H12V88H116z" />
    <glyph glyph-name="alert"
      unicode="&#xEA13;"
      horiz-adv-x="128" d="M64 108C61.835 108 59.855 106.16 60 104L62 50A2 2 0 0 1 64 48A2 2 0 0 1 66 50L68 104C68.145 106.16 66.165 108 64 108zM60 24A4 4 0 0 1 68 24A4 4 0 0 1 60 24" />
    <glyph glyph-name="alert-circle"
      unicode="&#xEA14;"
      horiz-adv-x="128" d="M64 116C35.3275 116 12 92.6725 12 64S35.3275 12 64 12S116 35.3275 116 64S92.6725 116 64 116zM64 36.0225A5 5 0 1 0 69 41.0225A5 5 0 0 0 64 36.0225zM69.43 86.31L67.995 55.81A4 4 0 0 0 59.995 55.81L58.56 86.295V86.3075A5.435 5.435 0 1 0 69.42 86.3075z" />
    <glyph glyph-name="alert-circle-outline"
      unicode="&#xEA15;"
      horiz-adv-x="128" d="M112 64C112 90.5 90.5 112 64 112S16 90.5 16 64S37.5 16 64 16S112 37.5 112 64zM62.565 86.4875L64 56L65.4325 86.4875A1.435 1.435 0 0 1 63.985 87.9875A1.435 1.435 0 0 1 62.565 86.4875zM64 36.0225A5 5 0 1 0 69 41.0225A5 5 0 0 0 64 36.0225z" />
    <glyph glyph-name="alert-circle-sharp"
      unicode="&#xEA16;"
      horiz-adv-x="128" d="M60 52H68L69.5 92H58.5L60 52zM64 116C35.3275 116 12 92.6725 12 64S35.3275 12 64 12S116 35.3275 116 64S92.6725 116 64 116zM69 36.0225H59V46.0225H69zM68 52H60L58.5 92H69.5z" />
    <glyph glyph-name="alert-outline"
      unicode="&#xEA17;"
      horiz-adv-x="128" d="M64 108C61.835 108 59.855 106.16 60 104L62 50A2 2 0 0 1 64 48A2 2 0 0 1 66 50L68 104C68.145 106.16 66.165 108 64 108zM60 24A4 4 0 0 1 68 24A4 4 0 0 1 60 24" />
    <glyph glyph-name="alert-sharp"
      unicode="&#xEA18;"
      horiz-adv-x="128" d="M60 108L62 48H66L68 108H60zM60 28H68V20H60z" />
    <glyph glyph-name="american-football"
      unicode="&#xEA19;"
      horiz-adv-x="128" d="M30.515 97.485C19.4225 86.3925 13.8375 72.3325 11.015 61.165L61.165 11.025C72.3325 13.8375 86.3925 19.4225 97.485 30.525S114.1625 55.6775 116.985 66.845L66.835 116.975C55.6675 114.1625 41.6075 108.5775 30.515 97.485zM94.6975 33.305zM75.1625 80.75L80.75 86.3225A3.945 3.945 0 0 0 86.3225 80.75L80.75 75.1625L83.54 72.37A3.945 3.945 0 0 0 77.96 66.79L75.17 69.58L69.58 64L72.37 61.21A3.945 3.945 0 1 0 66.79 55.63L64 58.42L58.42 52.8375L61.21 50.0475A3.945 3.945 0 1 0 55.63 44.4675L52.8375 47.25L47.25 41.6775A3.945 3.945 0 0 0 41.6775 47.25L47.25 52.8375L44.46 55.63A3.945 3.945 0 0 0 50.04 61.21L52.83 58.42L58.42 64L55.63 66.79A3.945 3.945 0 1 0 61.21 72.37L64 69.58L69.58 75.1625L66.79 77.9525A3.945 3.945 0 0 0 72.37 83.5325zM119.1425 78.0925C120.97 91.725 120.1425 108.1575 114.1425 114.145S91.7225 120.97 78.09 119.145C77.4625 119.06 76.8 118.965 76.1125 118.8575L118.8625 76.1075C118.9625 76.8025 119.0575 77.465 119.1425 78.0925zM8.8575 49.9075C7.03 36.275 7.8575 19.8425 13.8575 13.855C18.0425 9.6675 27.335 8 37.21 8A96.75 96.75 0 0 1 49.9075 8.8575C50.535 8.9425 51.1975 9.0375 51.885 9.145L9.135 51.895C9.0375 51.1975 8.9425 50.535 8.8575 49.9075z" />
    <glyph glyph-name="american-football-outline"
      unicode="&#xEA1A;"
      horiz-adv-x="128" d="M16.6998596394789 16.6997131928695A66.8925 43.36 45.00000000000001 0 1 111.3001403605211 111.2999939139117A66.8925 43.36 45.00000000000001 0 1 16.6998596394789 16.6997131928695M83.5103535533906 83.51L44.4903535533906 44.49M69.5753535533906 58.425L58.4253535533906 69.575M80.7228535533906 69.575L69.5753535533906 80.7225M114.1703535533906 75.15L75.1503535533906 114.17M52.8503535533906 13.83L13.8303535533906 52.85M58.4253535533906 47.2775L47.2778535533906 58.425" />
    <glyph glyph-name="american-football-sharp"
      unicode="&#xEA1B;"
      horiz-adv-x="128" d="M30.2246477356259 97.8725C19.0371477356259 86.7325 13.4021477356259 72.61 10.5646477356259 61.3975L61.1421477356259 11.0375C72.4046477356259 13.8625 86.5871477356259 19.4725 97.7746477356259 30.6125S114.597147735626 55.875 117.4346477356259 67.09L66.8571477356259 117.4475C55.5946477356259 114.6225 41.4121477356259 109 30.2246477356259 97.8725zM94.9746477356259 33.415zM83.7246477356259 89.465L89.3546477356259 83.86L80.9096477356259 75.4525L86.5396477356259 69.8475L80.887147735626 64.25L75.2496477356259 69.8475L69.6296477356259 64.25L75.2496477356259 58.6375L69.6221477356259 53.0325L63.9996477356259 58.6375L58.3696477356259 53.0325L63.9996477356259 47.4275L58.3696477356259 41.8225L52.7496477356259 47.4275L44.3046477356259 39.02L38.6671477356259 44.625L47.1121477356259 53.0325L41.4821477356259 58.6375L47.1121477356259 64.25L52.7496477356259 58.6375L58.3696477356259 64.25L52.7496477356259 69.8475L58.3771477356259 75.4525L63.9996477356259 69.8475L69.6296477356259 75.4525L63.9996477356259 81.0575L69.6296477356259 86.6625L75.2496477356259 81.0575zM119.6196477356259 78.3975C121.4621477356259 92.0875 115.9996477356259 115.9875 115.9996477356259 115.9875S91.9646477356259 121.4575 78.2146477356259 119.6225C77.5796477356259 119.54 76.912147735626 119.4425 76.2146477356259 119.3375L119.332147735626 76.41C119.439647735626 77.1 119.534647735626 77.765 119.6196477356259 78.3975zM8.3796477356259 50.0875C6.5371477356259 36.3975 12.0121477356259 12 12.0121477356259 12S27.0121477356259 8 36.9771477356259 8A97.98 97.98 0 0 1 49.7846477356259 8.8625C50.4196477356259 8.945 51.0871477356259 9.0425 51.7846477356259 9.15L8.6671477356259 52.075C8.5596477356259 51.385 8.4646477356259 50.72 8.3796477356259 50.0875z" />
    <glyph glyph-name="analytics"
      unicode="&#xEA1C;"
      horiz-adv-x="128" d="M113.9976467531929 96A10 10 0 0 1 104.6901467531929 82.35L83.6476467531929 61.3075A9.965 9.965 0 0 1 76.3476467531929 61.3075L61.3051467531929 76.35A10 10 0 1 1 42.6901467531929 76.35L17.6476467531929 51.3075A10 10 0 1 1 23.3051467531929 45.65L48.3476467531929 70.6925A9.965 9.965 0 0 1 55.6476467531929 70.6925L70.6901467531929 55.65A10 10 0 1 1 89.3051467531929 55.65L110.3476467531929 76.6925A10 10 0 1 1 113.9976467531929 96z" />
    <glyph glyph-name="analytics-outline"
      unicode="&#xEA1D;"
      horiz-adv-x="128" d="M86 58L108 80M58 74L74 58M20 48L46 74M108 86A6 6 0 0 1 120 86A6 6 0 0 1 108 86M74 52A6 6 0 0 1 86 52A6 6 0 0 1 74 52M46 80A6 6 0 0 1 58 80A6 6 0 0 1 46 80M8 42A6 6 0 0 1 20 42A6 6 0 0 1 8 42" />
    <glyph glyph-name="analytics-sharp"
      unicode="&#xEA1E;"
      horiz-adv-x="128" d="M112.5178419644557 96A11.5 11.5 0 0 1 101.4903419644557 81.25L83.6478419644557 63.41A11.47 11.47 0 0 1 76.3978419644557 63.41L63.1703419644557 76.6375A11.5 11.5 0 1 1 40.8903419644557 76.6375L18.7678419644557 54.53A11.52 11.52 0 1 1 26.5453419644557 46.75L48.3878419644557 68.59A11.4625 11.4625 0 0 1 55.6378419644557 68.59L68.8678419644557 55.36A11.5 11.5 0 1 1 91.1478419644557 55.36L109.2678419644557 73.47A11.5 11.5 0 1 1 112.5178419644557 96z" />
    <glyph glyph-name="aperture"
      unicode="&#xEA1F;"
      horiz-adv-x="128" d="M62.635 95.7075L45.685 112.6575A52.4125 52.4125 0 0 1 21.58 94H61.93A1 1 0 0 1 62.635 95.7075zM41.93 86H16.9075A51.835 51.835 0 0 1 12.87 54.525L42.635 84.2925A1 1 0 0 1 41.93 86zM86 86.07V111.11A51.955 51.955 0 0 1 54.5275 115.13L84.2925 85.365A1 1 0 0 1 86 86.07zM115.13 73.475L85.365 43.7075A1 1 0 0 1 86.07 42H111.0925A51.835 51.835 0 0 1 115.13 73.475zM95.7075 65.365L112.665 82.32A52.27 52.27 0 0 1 94 106.45V66.07A1 1 0 0 1 95.7075 65.365zM55.42 42.5575A2 2 0 0 1 56.805 42H71.72A2 2 0 0 1 73.145 42.5975L85.44 55.0975A2 2 0 0 1 86.015 56.5025L86 71.705A2 2 0 0 1 85.405 73.1275L72.905 85.44A2 2 0 0 1 71.4975 86.015L56.2875 86A2 2 0 0 1 54.865 85.405L42.5525 72.905A2 2 0 0 1 41.9775 71.4975L41.9925 56.3025A2 2 0 0 1 42.605 54.8625zM65.365 32.2925L82.315 15.3425A52.4125 52.4125 0 0 1 106.42 34H66.07A1 1 0 0 1 65.365 32.2925zM42 41.93V16.89A51.955 51.955 0 0 1 73.4725 12.87L43.7075 42.635A1 1 0 0 1 42 41.93zM32.2925 62.635L15.335 45.6775A52.275 52.275 0 0 1 34 21.55V61.93A1 1 0 0 1 32.2925 62.635z" />
    <glyph glyph-name="aperture-outline"
      unicode="&#xEA20;"
      horiz-adv-x="128" d="M112 64C112 90.5 90.5 112 64 112S16 90.5 16 64S37.5 16 64 16S112 37.5 112 64zM90 104.3525V54M110.7825 74.7825L74 38M104.3525 38H54M74.7825 17.2175L38.7825 53.2175M38 24V74M17.2175 53.2175L53.2175 89.2175M23.6475 90H72M53.2175 110.7825L90 74" />
    <glyph glyph-name="aperture-sharp"
      unicode="&#xEA21;"
      horiz-adv-x="128" d="M54 116L86.3725 83.955V116H54zM45.3675 113.405L20 94.5H64L45.3675 113.405zM84 42H116V74L84 42zM113.5 82.5L94.5 108V64L113.5 82.5zM12 86.5V54.5L44 86.5H12zM82.5 14.5L108 33.5H64L82.5 14.5zM14.5 45.5L33.5 20V64L14.5 45.5zM86.3725 72.47L72.485 86.335H55.515L41.6275 72.47V55.53L55.5325 41.65C55.6425 41.65 55.7525 41.665 55.865 41.665H72.485L86.3725 55.53zM41.495 43.9775L41.5 12H73.5L41.495 43.9775z" />
    <glyph glyph-name="apps"
      unicode="&#xEA22;"
      horiz-adv-x="128" d="M26 88A14 14 0 1 0 40 102A14.015 14.015 0 0 0 26 88zM64 88A14 14 0 1 0 78 102A14.015 14.015 0 0 0 64 88zM102 88A14 14 0 1 0 116 102A14.015 14.015 0 0 0 102 88zM26 50A14 14 0 1 0 40 64A14.015 14.015 0 0 0 26 50zM64 50A14 14 0 1 0 78 64A14.015 14.015 0 0 0 64 50zM102 50A14 14 0 1 0 116 64A14.015 14.015 0 0 0 102 50zM26 12A14 14 0 1 0 40 26A14.015 14.015 0 0 0 26 12zM64 12A14 14 0 1 0 78 26A14.015 14.015 0 0 0 64 12zM102 12A14 14 0 1 0 116 26A14.015 14.015 0 0 0 102 12z" />
    <glyph glyph-name="apps-outline"
      unicode="&#xEA23;"
      horiz-adv-x="128" d="M26 112H26A10 10 0 0 0 36 102V102A10 10 0 0 0 26 92H26A10 10 0 0 0 16 102V102A10 10 0 0 0 26 112zM64 112H64A10 10 0 0 0 74 102V102A10 10 0 0 0 64 92H64A10 10 0 0 0 54 102V102A10 10 0 0 0 64 112zM102 112H102A10 10 0 0 0 112 102V102A10 10 0 0 0 102 92H102A10 10 0 0 0 92 102V102A10 10 0 0 0 102 112zM26 74H26A10 10 0 0 0 36 64V64A10 10 0 0 0 26 54H26A10 10 0 0 0 16 64V64A10 10 0 0 0 26 74zM64 74H64A10 10 0 0 0 74 64V64A10 10 0 0 0 64 54H64A10 10 0 0 0 54 64V64A10 10 0 0 0 64 74zM102 74H102A10 10 0 0 0 112 64V64A10 10 0 0 0 102 54H102A10 10 0 0 0 92 64V64A10 10 0 0 0 102 74zM26 36H26A10 10 0 0 0 36 26V26A10 10 0 0 0 26 16H26A10 10 0 0 0 16 26V26A10 10 0 0 0 26 36zM64 36H64A10 10 0 0 0 74 26V26A10 10 0 0 0 64 16H64A10 10 0 0 0 54 26V26A10 10 0 0 0 64 36zM102 36H102A10 10 0 0 0 112 26V26A10 10 0 0 0 102 16H102A10 10 0 0 0 92 26V26A10 10 0 0 0 102 36z" />
    <glyph glyph-name="apps-sharp"
      unicode="&#xEA24;"
      horiz-adv-x="128" d="M14 116H38A2 2 0 0 0 40 114V90A2 2 0 0 0 38 88H14A2 2 0 0 0 12 90V114A2 2 0 0 0 14 116zM52 116H76A2 2 0 0 0 78 114V90A2 2 0 0 0 76 88H52A2 2 0 0 0 50 90V114A2 2 0 0 0 52 116zM90 116H114A2 2 0 0 0 116 114V90A2 2 0 0 0 114 88H90A2 2 0 0 0 88 90V114A2 2 0 0 0 90 116zM14 78H38A2 2 0 0 0 40 76V52A2 2 0 0 0 38 50H14A2 2 0 0 0 12 52V76A2 2 0 0 0 14 78zM52 78H76A2 2 0 0 0 78 76V52A2 2 0 0 0 76 50H52A2 2 0 0 0 50 52V76A2 2 0 0 0 52 78zM90 78H114A2 2 0 0 0 116 76V52A2 2 0 0 0 114 50H90A2 2 0 0 0 88 52V76A2 2 0 0 0 90 78zM14 40H38A2 2 0 0 0 40 38V14A2 2 0 0 0 38 12H14A2 2 0 0 0 12 14V38A2 2 0 0 0 14 40zM52 40H76A2 2 0 0 0 78 38V14A2 2 0 0 0 76 12H52A2 2 0 0 0 50 14V38A2 2 0 0 0 52 40zM90 40H114A2 2 0 0 0 116 38V14A2 2 0 0 0 114 12H90A2 2 0 0 0 88 14V38A2 2 0 0 0 90 40z" />
    <glyph glyph-name="archive"
      unicode="&#xEA25;"
      horiz-adv-x="128" d="M16 87V26A14 14 0 0 1 30 12H98A14 14 0 0 1 112 26V87A1 1 0 0 1 111 88H17A1 1 0 0 1 16 87zM82.75 49.0925L66.8275 33.1725A4 4 0 0 0 61.1725 33.1725L45.25 49.0925C43.7275 50.615 43.5875 53.0925 45.0375 54.6875A4 4 0 0 0 50.8275 54.8275L60 45.6575V71.8875C60 74.04 61.655 75.8875 63.8075 75.995A4 4 0 0 0 68 72V45.6575L77.1725 54.8275A4 4 0 0 0 82.9625 54.6875C84.4125 53.095 84.2725 50.615 82.75 49.0925zM16 116H112A8 8 0 0 0 120 108V104A8 8 0 0 0 112 96H16A8 8 0 0 0 8 104V108A8 8 0 0 0 16 116z" />
    <glyph glyph-name="archive-outline"
      unicode="&#xEA26;"
      horiz-adv-x="128" d="M20 90V26A10.03 10.03 0 0 1 30 16H98A10.03 10.03 0 0 1 108 26V90M19 112H109A7 7 0 0 0 116 105V99A7 7 0 0 0 109 92H19A7 7 0 0 0 12 99V105A7 7 0 0 0 19 112zM80 52L64 36L48 52M64 41.5275V72" />
    <glyph glyph-name="archive-sharp"
      unicode="&#xEA27;"
      horiz-adv-x="128" d="M11 116H117A3 3 0 0 0 120 113V99A3 3 0 0 0 117 96H11A3 3 0 0 0 8 99V113A3 3 0 0 0 11 116zM16 88V18A6 6 0 0 1 22 12H106A6 6 0 0 1 112 18V88zM64 30.3425L42.33 52L48 57.67L60 45.6575V76H68V45.6575L80.0175 57.675L85.67 52.015z" />
    <glyph glyph-name="arrow-back"
      unicode="&#xEA28;"
      horiz-adv-x="128" d="M61 28L25 64L61 100M30 64H103" />
    <glyph glyph-name="arrow-back-circle"
      unicode="&#xEA29;"
      horiz-adv-x="128" d="M12 64C12 35.2825 35.2825 12 64 12S116 35.2825 116 64S92.7175 116 64 116S12 92.7175 12 64zM65.1625 86.84A4 4 0 0 0 65.185 81.1825L52.105 68H85.5A4 4 0 0 0 85.5 60H52.105L65.185 46.8175A4 4 0 1 0 59.5 41.1825L39.6525 61.1825A4 4 0 0 0 39.6525 66.8175L59.5 86.8175A4 4 0 0 0 65.1625 86.84z" />
    <glyph glyph-name="arrow-back-circle-outline"
      unicode="&#xEA2A;"
      horiz-adv-x="128" d="M62.345 44L42.5 64L62.345 84M45.2575 64H85.5M112 64C112 90.5 90.5 112 64 112S16 90.5 16 64S37.5 16 64 16S112 37.5 112 64z" />
    <glyph glyph-name="arrow-back-circle-sharp"
      unicode="&#xEA2B;"
      horiz-adv-x="128" d="M12 64C12 35.2825 35.2825 12 64 12S116 35.2825 116 64S92.7175 116 64 116S12 92.7175 12 64zM68 84.0225L52.105 68H89.5V60H52.105L68 43.9775L62.325 38.3425L36.865 64L62.325 89.6575z" />
    <glyph glyph-name="arrow-back-outline"
      unicode="&#xEA2C;"
      horiz-adv-x="128" d="M61 28L25 64L61 100M30 64H103" />
    <glyph glyph-name="arrow-back-sharp"
      unicode="&#xEA2D;"
      horiz-adv-x="128" d="M61 28L25 64L61 100M30 64H103" />
    <glyph glyph-name="arrow-down"
      unicode="&#xEA2E;"
      horiz-adv-x="128" d="M28 61L64 25L100 61M64 30V103" />
    <glyph glyph-name="arrow-down-circle"
      unicode="&#xEA2F;"
      horiz-adv-x="128" d="M64 12C92.7175 12 116 35.2825 116 64S92.7175 116 64 116S12 92.7175 12 64S35.2825 12 64 12zM41.16 65.1625A4 4 0 0 0 46.8175 65.185L60 52.105V85.5A4 4 0 0 0 68 85.5V52.105L81.1825 65.185A4 4 0 1 0 86.8175 59.5L66.8175 39.6525A4 4 0 0 0 61.1825 39.6525L41.1825 59.5A4 4 0 0 0 41.16 65.1625z" />
    <glyph glyph-name="arrow-down-circle-outline"
      unicode="&#xEA30;"
      horiz-adv-x="128" d="M44 62.345L64 42.5L84 62.345M64 45.2575V85.5M64 112C37.5 112 16 90.5 16 64S37.5 16 64 16S112 37.5 112 64S90.5 112 64 112z" />
    <glyph glyph-name="arrow-down-circle-sharp"
      unicode="&#xEA31;"
      horiz-adv-x="128" d="M64 12C92.7175 12 116 35.2825 116 64S92.7175 116 64 116S12 92.7175 12 64S35.2825 12 64 12zM43.9775 68L60 52.105V89.5H68V52.105L84.0225 68L89.6575 62.3225L64 36.865L38.3425 62.325z" />
    <glyph glyph-name="arrow-down-outline"
      unicode="&#xEA32;"
      horiz-adv-x="128" d="M28 61L64 25L100 61M64 30V103" />
    <glyph glyph-name="arrow-down-sharp"
      unicode="&#xEA33;"
      horiz-adv-x="128" d="M28 61L64 25L100 61M64 30V103" />
    <glyph glyph-name="arrow-forward"
      unicode="&#xEA34;"
      horiz-adv-x="128" d="M67 100L103 64L67 28M98 64H25" />
    <glyph glyph-name="arrow-forward-circle"
      unicode="&#xEA35;"
      horiz-adv-x="128" d="M116 64C116 92.7175 92.7175 116 64 116S12 92.7175 12 64S35.2825 12 64 12S116 35.2825 116 64zM62.8375 41.16A4 4 0 0 0 62.815 46.8175L75.895 60H42.5A4 4 0 0 0 42.5 68H75.895L62.815 81.1825A4 4 0 1 0 68.5 86.8175L88.3475 66.8175A4 4 0 0 0 88.3475 61.1825L68.5 41.1825A4 4 0 0 0 62.8375 41.16z" />
    <glyph glyph-name="arrow-forward-circle-outline"
      unicode="&#xEA36;"
      horiz-adv-x="128" d="M65.655 44L85.5 64L65.655 84M82.7425 64H42.5M64 16C90.5 16 112 37.5 112 64S90.5 112 64 112S16 90.5 16 64S37.5 16 64 16z" />
    <glyph glyph-name="arrow-forward-circle-sharp"
      unicode="&#xEA37;"
      horiz-adv-x="128" d="M116 64C116 92.7175 92.7175 116 64 116S12 92.7175 12 64S35.2825 12 64 12S116 35.2825 116 64zM60 43.9775L75.895 60H38.5V68H75.895L60 84.0225L65.6775 89.6575L91.135 64L65.675 38.3425z" />
    <glyph glyph-name="arrow-forward-outline"
      unicode="&#xEA38;"
      horiz-adv-x="128" d="M67 100L103 64L67 28M98 64H25" />
    <glyph glyph-name="arrow-forward-sharp"
      unicode="&#xEA39;"
      horiz-adv-x="128" d="M67 100L103 64L67 28M98 64H25" />
    <glyph glyph-name="arrow-redo"
      unicode="&#xEA3A;"
      horiz-adv-x="128" d="M14.6976843927097 18.2175A4 4 0 0 0 12.0001843927097 22C12.0001843927097 40.275 15.6701843927097 54.89 22.9126843927097 65.4425C31.6626843927097 78.1925 45.4651843927097 85.0575 64.0001843927097 85.91V106A4 4 0 0 0 70.7626843927097 108.8925L114.7626843927097 66.8925A4 4 0 0 0 114.7626843927097 61.1075L70.7626843927097 19.1075A4 4 0 0 0 64.0001843927097 22V41.9425C52.7501843927097 41.6025 44.2501843927097 39.78 37.4826843927097 36.2825C30.1701843927097 32.5025 24.8676843927097 26.855 19.1526843927097 19.5325A4 4 0 0 0 14.6976843927097 18.2125z" />
    <glyph glyph-name="arrow-redo-circle"
      unicode="&#xEA3B;"
      horiz-adv-x="128" d="M12 64C12 35.2825 35.2825 12 64 12S116 35.2825 116 64S92.7175 116 64 116S12 92.7175 12 64zM36 47.3325C37.3625 62.695 44.535 76.605 66.7175 76.605V85.935A2.08 2.08 0 0 0 70.2175 87.435L91.355 67.5A2.05 2.05 0 0 0 91.355 64.515L70.25 44.5725A2.08 2.08 0 0 0 66.75 46.0725V55.395C52.4825 55.395 45.6225 52.0275 39.605 45.725C38.2325 44.3125 35.8375 45.395 36 47.3325z" />
    <glyph glyph-name="arrow-redo-circle-outline"
      unicode="&#xEA3C;"
      horiz-adv-x="128" d="M66.7275 46.065V55.395C52.46 55.395 45.6 52.0275 39.5825 45.725C38.2325 44.3125 35.8325 45.395 36.01 47.3325C37.3725 62.695 44.545 76.605 66.7275 76.605V85.935A2.08 2.08 0 0 0 70.2275 87.435L91.355 67.5A2.05 2.05 0 0 0 91.355 64.515L70.25 44.5725A2.08 2.08 0 0 0 66.7275 46.065zM16 64C16 37.5 37.5 16 64 16S112 37.5 112 64S90.5 112 64 112S16 90.5 16 64z" />
    <glyph glyph-name="arrow-redo-circle-sharp"
      unicode="&#xEA3D;"
      horiz-adv-x="128" d="M12 64C12 35.2825 35.2825 12 64 12S116 35.2825 116 64S92.7175 116 64 116S12 92.7175 12 64zM36.5 42C36.5 59.0325 42.1675 76.285 66.2925 76.285V90L91.5 66L66.2925 42V55.715C49.62 55.715 43.4625 50.8925 36.5 42z" />
    <glyph glyph-name="arrow-redo-outline"
      unicode="&#xEA3E;"
      horiz-adv-x="128" d="M112 64L68 106V82C25.8925 82 16 51.8075 16 22C28.1525 37.56 38.9 46 68 46V22z" />
    <glyph glyph-name="arrow-redo-sharp"
      unicode="&#xEA3F;"
      horiz-adv-x="128" d="M12 28.185C12 44.2025 15.61 57 22.7275 66.25C31.3225 77.4175 44.8975 83.4425 63.1175 84.1875V110L116 65L63.1175 20V45.6625C52.055 45.365 43.7025 43.7675 37.05 40.7025C29.8625 37.39 24.65 32.44 19.03 26.0275L12 18z" />
    <glyph glyph-name="arrow-undo"
      unicode="&#xEA40;"
      horiz-adv-x="128" d="M111.9935656231656 18A4 4 0 0 0 108.8410656231656 19.5375C103.1260656231656 26.855 97.8235656231655 32.5025 90.5110656231655 36.2875C83.7435656231656 39.78 75.2435656231656 41.6025 63.9935656231656 41.9425V22A4 4 0 0 0 57.2435656231656 19.1075L13.2435656231655 61.1075A4 4 0 0 0 13.2435656231655 66.8925L57.2435656231656 108.8925A4 4 0 0 0 63.9935656231656 106V85.91C82.5285656231656 85.0575 96.3385656231656 78.1825 105.0810656231656 65.4425C112.3235656231655 54.89 115.9935656231656 40.275 115.9935656231656 22A4 4 0 0 0 111.9935656231656 18z" />
    <glyph glyph-name="arrow-undo-circle"
      unicode="&#xEA41;"
      horiz-adv-x="128" d="M64 116C35.2825 116 12 92.7175 12 64S35.2825 12 64 12S116 35.2825 116 64S92.7175 116 64 116zM88.4175 45.725C82.4 52.0275 75.54 55.395 61.2725 55.395V46.065A2.08 2.08 0 0 0 57.76 44.565L36.645 64.5A2.05 2.05 0 0 0 36.645 67.485L57.75 87.4275A2.08 2.08 0 0 0 61.2625 85.9275V76.5975C83.445 76.5975 90.6175 62.6875 91.98 47.325C92.1625 45.395 89.7675 44.3125 88.4175 45.725z" />
    <glyph glyph-name="arrow-undo-circle-outline"
      unicode="&#xEA42;"
      horiz-adv-x="128" d="M61.2725 46.065V55.395C75.54 55.395 82.4 52.0275 88.4175 45.725C89.7675 44.3125 92.1675 45.395 91.99 47.3325C90.6275 62.695 83.455 76.605 61.2725 76.605V85.935A2.08 2.08 0 0 1 57.76 87.435L36.645 67.5A2.05 2.05 0 0 1 36.645 64.515L57.75 44.5725A2.08 2.08 0 0 1 61.2725 46.065zM64 112C37.5 112 16 90.5 16 64S37.5 16 64 16S112 37.5 112 64S90.5 112 64 112z" />
    <glyph glyph-name="arrow-undo-circle-sharp"
      unicode="&#xEA43;"
      horiz-adv-x="128" d="M64 116C35.2825 116 12 92.7175 12 64S35.2825 12 64 12S116 35.2825 116 64S92.7175 116 64 116zM61.7075 55.715V42L36.5 66L61.7075 90V76.285C85.8325 76.285 91.5 59.035 91.5 42C84.5375 50.8925 78.38 55.715 61.7075 55.715z" />
    <glyph glyph-name="arrow-undo-outline"
      unicode="&#xEA44;"
      horiz-adv-x="128" d="M60 22V46C89.1 46 99.8475 37.56 112 22C112 51.8075 102.1075 82 60 82V106L16 64z" />
    <glyph glyph-name="arrow-undo-sharp"
      unicode="&#xEA45;"
      horiz-adv-x="128" d="M116 18L108.97 26.0275C103.35 32.44 98.1375 37.39 90.95 40.7025C84.2975 43.7675 75.95 45.365 64.8825 45.6625V20L12 65L64.8825 110V84.1975C83.1025 83.4475 96.6775 77.4275 105.2725 66.26C112.39 57 116 44.2025 116 28.185z" />
    <glyph glyph-name="arrow-up"
      unicode="&#xEA46;"
      horiz-adv-x="128" d="M28 67L64 103L100 67M64 98V25" />
    <glyph glyph-name="arrow-up-circle"
      unicode="&#xEA47;"
      horiz-adv-x="128" d="M64 116C35.2825 116 12 92.7175 12 64S35.2825 12 64 12S116 35.2825 116 64S92.7175 116 64 116zM86.84 62.8375A4 4 0 0 0 81.1825 62.815L68 75.895V42.5A4 4 0 0 0 60 42.5V75.895L46.8175 62.815A4 4 0 1 0 41.1825 68.5L61.1825 88.3475A4 4 0 0 0 66.8175 88.3475L86.8175 68.5A4 4 0 0 0 86.84 62.8375z" />
    <glyph glyph-name="arrow-up-circle-outline"
      unicode="&#xEA48;"
      horiz-adv-x="128" d="M44 65.655L64 85.5L84 65.655M64 82.7425V42.5M112 64C112 90.5 90.5 112 64 112S16 90.5 16 64S37.5 16 64 16S112 37.5 112 64z" />
    <glyph glyph-name="arrow-up-circle-sharp"
      unicode="&#xEA49;"
      horiz-adv-x="128" d="M64 116C35.2825 116 12 92.7175 12 64S35.2825 12 64 12S116 35.2825 116 64S92.7175 116 64 116zM84.0225 60L68 75.895V38.5H60V75.895L43.9775 60L38.3425 65.675L64 91.135L89.6575 65.675z" />
    <glyph glyph-name="arrow-up-outline"
      unicode="&#xEA4A;"
      horiz-adv-x="128" d="M28 67L64 103L100 67M64 98V25" />
    <glyph glyph-name="arrow-up-sharp"
      unicode="&#xEA4B;"
      horiz-adv-x="128" d="M28 67L64 103L100 67M64 98V25" />
    <glyph glyph-name="at"
      unicode="&#xEA4C;"
      horiz-adv-x="128" d="M79.8960261819586 64.4325C78.7710261819586 51.6825 69.8660261819586 44.4325 59.7585261819586 44.4325S42.9235261819586 53.3875 43.8960261819586 64.4325S53.1760261819586 84.4325 63.2835261819586 84.4325S80.8660261819586 75.4325 79.8960261819586 64.4325zM79.8385261819586 24.0575C72.6985261819586 21.0575 68.0185261819586 20.4325 60.0185261819586 20.4325C35.7185261819586 20.4325 17.7685261819586 40.1325 19.8960261819586 64.4325S43.4735261819586 108.4325 67.7735261819586 108.4325C95.1460261819586 108.4325 110.1935261819586 90.5 108.0785261819586 66.5C106.5010261819586 48.5825 95.0510261819586 43.42 89.0560261819586 44.4825C83.4160261819586 45.4825 78.7610261819586 50.5875 79.6210261819586 60.3575L81.7410261819586 84.42" />
    <glyph glyph-name="at-circle"
      unicode="&#xEA4D;"
      horiz-adv-x="128" d="M64 115.815C35.29 115.815 12 92.5375 12 63.815S35.28 11.815 64 11.815S116 35.095 116 63.815S92.7125 115.815 64 115.815zM95.205 65C94.4925 56.8425 91.0075 52.575 88.205 50.435S82.0375 47.355 79.135 47.875A10.4025 10.4025 0 0 0 72.43 52.1725A15.515 15.515 0 0 0 61.43 47.78A12.915 12.915 0 0 0 51.7925 51.9875C48.9475 55.0925 47.5425 59.5775 47.9625 64.295C48.7125 73.045 55.69 78.6425 62.18 79.665C68.98 80.7375 75.2375 78.03 77.905 74.8L78.8675 73.635L77.2825 61.04C76.985 57.455 78.1025 55.17 80.355 54.765C80.9525 54.66 82.38 54.7975 83.9475 55.9975C85.6275 57.285 87.7325 59.9975 88.2225 65.615C88.81 72.25 87.135 77.9125 83.41 81.9875C79.5375 86.2125 73.6375 88.4475 66.3525 88.4475C52.8525 88.4475 40.9 77.34 39.7075 63.6975C39.1375 57.1475 41.125 51.0275 45.3075 46.465C49.3975 42 55.135 39.53 61.4725 39.53C66.2225 39.53 69.125 40.0425 73.8425 41.725A3.5 3.5 0 0 0 76.1925 35.13C70.7375 33.1875 67.0225 32.53 61.4725 32.53C53.1525 32.53 45.58 35.795 40.1475 41.7225C34.635 47.75 31.99 55.765 32.735 64.295C33.4625 72.6275 37.3475 80.4525 43.6775 86.325S58.07 95.4475 66.3525 95.4475C75.6525 95.4475 83.335 92.4275 88.57 86.715C93.5925 81.2375 95.9475 73.5275 95.205 65zM63.2775 72.75C59.57 72.1675 55.3875 68.79 54.9425 63.685C54.6925 60.92 55.4425 58.38 56.96 56.7175A5.9125 5.9125 0 0 1 61.4375 54.78C66.515 54.78 70.12 58.515 70.625 64.295A3.5 3.5 0 0 0 70.71 64.8125L71.51 71.175A12.4025 12.4025 0 0 1 63.2775 72.75z" />
    <glyph glyph-name="at-circle-outline"
      unicode="&#xEA4E;"
      horiz-adv-x="128" d="M112 63.98C112 90.48 90.5 111.98 64 111.98S16 90.48 16 63.98S37.5 15.98 64 15.98S112 37.4725 112 63.98zM75.1825 38.4275C69.975 36.5725 66.67 36.03 61.635 36.03C46.3425 36.03 35.0375 48.5475 36.385 63.99S51.23 91.9475 66.515 91.9475C83.745 91.9475 93.2125 80.56 91.8825 65.31C90.8825 53.925 83.6825 50.645 79.91 51.31C76.36 51.9475 73.43 55.19 73.9725 61.3975L75.3775 72.5625C73.4825 74.855 68.35 77.0625 62.895 76.1975C57.9225 75.425 52.23 71 51.62 64S55.2425 51.29 61.6025 51.29S73.5675 55.8875 74.275 64" />
    <glyph glyph-name="at-circle-sharp"
      unicode="&#xEA4F;"
      horiz-adv-x="128" d="M64 115.815C35.2875 115.815 12 92.5375 12 63.815S35.28 11.815 64 11.815S116 35.095 116 63.815S92.71 115.815 64 115.815zM95.2025 65C94.49 56.8425 91.0075 52.575 88.2025 50.435S82.03 47.35 79.12 47.87A10.4075 10.4075 0 0 0 72.37 52.25A15.21 15.21 0 0 0 61.44 47.775A12.9125 12.9125 0 0 0 51.8025 51.9825C48.955 55.0875 47.5525 59.5725 47.97 64.29C48.7325 73.04 55.7 78.6375 62.1875 79.66C68.99 80.7325 75.2475 78.025 77.915 74.795L78.875 73.63L77.29 61.035C76.9925 57.45 78.1125 55.165 80.3625 54.76C80.96 54.655 82.39 54.7925 83.9575 55.9925C85.6375 57.28 87.7425 59.9925 88.2325 65.61C88.8125 72.2475 87.145 77.9075 83.4125 81.9825C79.5375 86.2075 73.6375 88.4425 66.3525 88.4425C52.8525 88.4425 40.9 77.335 39.71 63.6925C39.1375 57.1425 41.125 51.0225 45.3075 46.46C49.3975 42 55.1475 39.53 61.47 39.53C66.22 39.53 69.1225 40.0425 73.8425 41.725L77.1475 42.8975L79.495 36.305L76.1975 35.13C70.7425 33.1875 67.0275 32.53 61.4775 32.53C53.1575 32.53 45.585 35.795 40.1525 41.7225C34.63 47.75 31.9975 55.765 32.74 64.295C33.4675 72.6275 37.355 80.4525 43.6825 86.325S58.075 95.4475 66.3575 95.4475C75.6575 95.4475 83.3425 92.4275 88.5775 86.715C93.59 81.2375 95.9475 73.5275 95.2025 65zM63.275 72.75C59.5675 72.1675 55.3875 68.79 54.94 63.685C54.69 60.92 55.44 58.38 56.96 56.7175A5.9075 5.9075 0 0 1 61.4375 54.78C66.3625 54.78 69.8875 58.4775 70.6375 64.4275L71.075 67.9H71.0975L71.51 71.1775A12.4075 12.4075 0 0 1 63.275 72.7525z" />
    <glyph glyph-name="at-outline"
      unicode="&#xEA50;"
      horiz-adv-x="128" d="M79.8960261819586 64.4325C78.7710261819586 51.6825 69.8660261819586 44.4325 59.7585261819586 44.4325S42.9235261819586 53.3875 43.8960261819586 64.4325S53.1760261819586 84.4325 63.2835261819586 84.4325S80.8660261819586 75.4325 79.8960261819586 64.4325zM79.8385261819586 24.0575C72.6985261819586 21.0575 68.0185261819586 20.4325 60.0185261819586 20.4325C35.7185261819586 20.4325 17.7685261819586 40.1325 19.8960261819586 64.4325S43.4735261819586 108.4325 67.7735261819586 108.4325C95.1460261819586 108.4325 110.1935261819586 90.5 108.0785261819586 66.5C106.5010261819586 48.5825 95.0510261819586 43.42 89.0560261819586 44.4825C83.4160261819586 45.4825 78.7610261819586 50.5875 79.6210261819586 60.3575L81.7410261819586 84.42" />
    <glyph glyph-name="at-sharp"
      unicode="&#xEA51;"
      horiz-adv-x="128" d="M102.04736269809 99.055C94.02986269809 107.805 82.17986269809 112.4325 67.77486269809 112.4325C55.02486269809 112.4325 42.60236269809 107.4825 32.81986269809 98.4925S17.03736269809 77.5325 15.91236269809 64.785C14.77486269809 51.8675 18.76486269809 39.7125 27.14736269809 30.56C35.48986269809 21.45 47.16486269809 16.4325 60.01986269809 16.4325C68.14986269809 16.4325 73.42236269809 17.0225 81.38986269809 20.37L85.07736269809 21.92L81.97736269809 29.295L78.28986269809 27.75C71.50236269809 24.9 67.34486269809 24.4375 60.01986269809 24.4375C49.43486269809 24.4375 39.85736269809 28.5325 33.04736269809 35.9675C26.19736269809 43.4475 22.94236269809 53.4325 23.88236269809 64.0875C25.84236269809 86.3375 45.53236269809 104.4375 67.7748626980901 104.4375C79.87486269809 104.4375 89.68736269809 100.71 96.1473626980901 93.655C102.2998626980901 86.9375 105.0473626980901 77.675 104.0948626980901 66.8675C103.2723626980901 57.53 99.6548626980901 52.9325 96.7648626980901 50.7175C94.0148626980901 48.6075 91.2648626980901 48.1725 89.7648626980901 48.44C85.3448626980901 49.2225 83.0473626980901 53.555 83.6173626980901 60.0125L86.0998626980901 87.2925L78.12236269809 88L77.62236269809 82.4275A19.9225 19.9225 0 0 1 63.29236269809 88.4275C57.34236269809 88.4275 51.65736269809 85.91 47.29236269809 81.335C43.09986269809 76.9525 40.48486269809 71.0725 39.92986269809 64.78C39.31736269809 57.8125 41.36736269809 51.195 45.55736269809 46.62A19.035 19.035 0 0 1 59.77736269809 40.4275A23.25 23.25 0 0 1 77.64736269809 48.5A15 15 0 0 1 88.36736269809 40.5475C92.58986269809 39.7975 97.54986269809 41.22 101.63736269809 44.35C109.18486269809 50.1325 111.47736269809 59.3975 112.07236269809 66.15C113.20236269809 79.075 109.64736269809 90.75 102.04736269809 99.055zM70.46236269809 52.555A15.5475 15.5475 0 0 0 59.75986269809 48.4225A10.985 10.985 0 0 0 51.43986269809 52.0175C48.76236269809 54.9425 47.46486269809 59.335 47.88236269809 64.0725C48.68986269809 73.2425 55.45486269809 80.4225 63.28486269809 80.4225A12.04 12.04 0 0 0 72.25486269809 76.4675C74.97236269809 73.5 76.30486269809 69.25 75.91236269809 64.785C75.46736269809 59.715 73.57986269809 55.5 70.46236269809 52.565z" />
    <glyph glyph-name="attach"
      unicode="&#xEA52;"
      horiz-adv-x="128" d="M54.0225 80V44.0375A10.02 10.02 0 0 1 74.06 44.0375L74.0925 91.175A16.985 16.985 0 1 1 40.125 91.175V43.72A23.8775 23.8775 0 1 1 87.875 43.72V88.065" />
    <glyph glyph-name="attach-outline"
      unicode="&#xEA53;"
      horiz-adv-x="128" d="M54.0225 80V44.0375A10.02 10.02 0 0 1 74.06 44.0375L74.0925 91.175A16.985 16.985 0 1 1 40.125 91.175V43.72A23.8775 23.8775 0 1 1 87.875 43.72V88.065" />
    <glyph glyph-name="attach-sharp"
      unicode="&#xEA54;"
      horiz-adv-x="128" d="M54.023125 80V44.1125A10.02 10.02 0 0 1 74.060625 44.1125L74.093125 91.25A16.985 16.985 0 1 1 40.125625 91.25V43.795A23.8775 23.8775 0 0 1 87.875625 43.795V88.14" />
    <glyph glyph-name="backspace"
      unicode="&#xEA55;"
      horiz-adv-x="128" d="M105.0688712661431 104H43.5038712661431A11.225 11.225 0 0 1 35.0838712661431 100.1825A3.97 3.97 0 0 1 34.6063712661431 99.5075L12.2863712661431 66.0625A4 4 0 0 1 12.2863712661431 61.9375L34.5738712661431 28.545A4.06 4.06 0 0 1 35.0738712661431 27.825A11.2225 11.2225 0 0 1 43.4988712661431 24H105.0688712661431A11.23 11.23 0 0 1 116.2863712661431 35.2175V92.7825A11.23 11.23 0 0 1 105.0688712661431 104zM91.2863712661431 50.25A4 4 0 1 0 85.6288712661431 44.595L72.2038712661431 58L58.7863712661431 44.5875A4 4 0 0 0 53.1238712661431 50.25L66.5363712661431 63.6675L53.1138712661431 77.09A4 4 0 0 0 58.7863712661431 82.75L72.2088712661431 69.325L85.6263712661431 82.75A4 4 0 0 0 91.2863712661431 77.09L77.8613712661431 63.6675z" />
    <glyph glyph-name="backspace-outline"
      unicode="&#xEA56;"
      horiz-adv-x="128" d="M38.00625 30.465A7.1975 7.1975 0 0 1 43.42625 28H104.99125A7.25 7.25 0 0 1 112.20875 35.2175V92.7825A7.25 7.25 0 0 1 104.99125 100H43.42625A7.21 7.21 0 0 1 38.00875 97.54L15.79125 64L38.00625 30.4725zM88.37625 79.9175L55.87375 47.415M88.37625 47.415L55.87375 79.9175M88.37625 79.9175L55.87375 47.415M88.37625 47.415L55.87375 79.9175" />
    <glyph glyph-name="backspace-sharp"
      unicode="&#xEA57;"
      horiz-adv-x="128" d="M40 104L12 64L40 24H116V104zM93.825 47.415L88.1675 41.75L71.9175 58L55.6675 41.75L50 47.415L66.25 63.665L50 79.915L55.6575 85.5725L71.9075 69.3225L88.1575 85.5725L93.815 79.915L77.565 63.665z" />
    <glyph glyph-name="bag"
      unicode="&#xEA58;"
      horiz-adv-x="128" d="M113.662480830897 85.65A7.955 7.955 0 0 1 107.999980830897 88H91.999980830897V92A28 28 0 0 1 35.999980830897 92V88H19.999980830897A8 8 0 0 1 11.999980830897 80V26C11.999980830897 16.25 20.249980830897 8 29.999980830897 8H97.999980830897A18.055 18.055 0 0 1 110.619980830897 13.1375A17.37 17.37 0 0 1 115.999980830897 25.6875V80A7.9375 7.9375 0 0 1 113.662480830897 85.65zM43.999980830897 92A20 20 0 0 0 83.999980830897 92V88H43.999980830897z" />
    <glyph glyph-name="bag-add"
      unicode="&#xEA59;"
      horiz-adv-x="128" d="M113.6649818024372 85.65A7.965 7.965 0 0 1 107.9999818024372 88H91.9999818024372V92A28 28 0 0 1 35.9999818024372 92V88H19.9999818024372A8 8 0 0 1 11.9999818024372 80V26C11.9999818024372 16.25 20.2499818024372 8 29.9999818024372 8H97.9999818024372A18.055 18.055 0 0 1 110.6199818024372 13.1375A17.37 17.37 0 0 1 115.9999818024372 25.6875V80A7.945 7.945 0 0 1 113.6649818024372 85.65zM79.9999818024372 44H67.9999818024372V32A4 4 0 0 0 59.9999818024372 32V44H47.9999818024372A4 4 0 0 0 47.9999818024372 52H59.9999818024372V64A4 4 0 0 0 67.9999818024372 64V52H79.9999818024372A4 4 0 0 0 79.9999818024372 44zM83.9999818024372 88H43.9999818024372V92A20 20 0 0 0 83.9999818024372 92z" />
    <glyph glyph-name="bag-add-outline"
      unicode="&#xEA5A;"
      horiz-adv-x="128" d="M64 64V32M80 48H48M20 84A4 4 0 0 1 16 80V26C16 18.44 22.44 12 30 12H98C105.56 12 112 18.1275 112 25.6875V80A4 4 0 0 1 108 84zM40 84V92A24 24 0 0 0 64 116A24 24 0 0 0 88 92V84" />
    <glyph glyph-name="bag-add-sharp"
      unicode="&#xEA5B;"
      horiz-adv-x="128" d="M115 88H93V91A29.0325 29.0325 0 0 1 64.7225 120H63.2775A29.0325 29.0325 0 0 1 35 91V88H13A1 1 0 0 1 12 87V12A4 4 0 0 1 16 8H112A4 4 0 0 1 116 12V87A1 1 0 0 1 115 88zM45 90.75C45 101.21 53.3525 109.89 63.8125 110A19.02 19.02 0 0 0 83 91V88H45zM84 44H68V28H60V44H44V52H60V68H68V52H84z" />
    <glyph glyph-name="bag-check"
      unicode="&#xEA5C;"
      horiz-adv-x="128" d="M113.662480830897 85.65A7.955 7.955 0 0 1 107.999980830897 88H91.999980830897V92A28 28 0 0 1 35.999980830897 92V88H19.999980830897A8 8 0 0 1 11.999980830897 80V26C11.999980830897 16.25 20.249980830897 8 29.999980830897 8H97.999980830897A18.055 18.055 0 0 1 110.619980830897 13.1375A17.37 17.37 0 0 1 115.999980830897 25.6875V80A7.9375 7.9375 0 0 1 113.662480830897 85.65zM83.122480830897 59.5L60.722480830897 31.5A4 4 0 0 0 57.664980830897 30H57.599980830897A4 4 0 0 0 54.559980830897 31.4L44.959980830897 42.62A4 4 0 1 0 51.039980830897 47.82L57.499980830897 40.2725L76.877480830897 64.5A4 4 0 0 0 83.127480830897 59.5zM83.999980830897 88H43.999980830897V92A20 20 0 0 0 83.999980830897 92z" />
    <glyph glyph-name="bag-check-outline"
      unicode="&#xEA5D;"
      horiz-adv-x="128" d="M80 62L57.6 34L48 45.22M20 84A4 4 0 0 1 16 80V26C16 18.44 22.44 12 30 12H98C105.56 12 112 18.1275 112 25.6875V80A4 4 0 0 1 108 84zM40 84V92A24 24 0 0 0 64 116A24 24 0 0 0 88 92V84" />
    <glyph glyph-name="bag-check-sharp"
      unicode="&#xEA5E;"
      horiz-adv-x="128" d="M115 88H93V91A29.0325 29.0325 0 0 1 64.7225 120H63.2775A29.0325 29.0325 0 0 1 35 91V88H13A1 1 0 0 1 12 87V12A4 4 0 0 1 16 8H112A4 4 0 0 1 116 12V87A1 1 0 0 1 115 88zM45 90.75C45 101.21 53.3525 109.89 63.8125 110A19.02 19.02 0 0 0 83 91V88H45zM57.7025 27.72L42.36 45.65L48.4375 50.8525L57.5 40.2725L79.3775 67.6225L85.6275 62.6225z" />
    <glyph glyph-name="bag-handle"
      unicode="&#xEA5F;"
      horiz-adv-x="128" d="M113.662480830897 85.65A7.955 7.955 0 0 1 107.999980830897 88H91.999980830897V92A28 28 0 0 1 35.999980830897 92V88H19.999980830897A8 8 0 0 1 11.999980830897 80V26C11.999980830897 16.25 20.249980830897 8 29.999980830897 8H97.999980830897A18.055 18.055 0 0 1 110.619980830897 13.1375A17.37 17.37 0 0 1 115.999980830897 25.6875V80A7.9375 7.9375 0 0 1 113.662480830897 85.65zM43.999980830897 92A20 20 0 0 0 83.999980830897 92V88H43.999980830897zM91.999980830897 68A28 28 0 0 0 35.999980830897 68V72A4 4 0 0 0 43.999980830897 72V68A20 20 0 0 1 83.999980830897 68V72A4 4 0 0 0 91.999980830897 72z" />
    <glyph glyph-name="bag-handle-outline"
      unicode="&#xEA60;"
      horiz-adv-x="128" d="M20 84A4 4 0 0 1 16 80V26C16 18.44 22.44 12 30 12H98C105.56 12 112 18.1275 112 25.6875V80A4 4 0 0 1 108 84zM40 84V92A24 24 0 0 0 64 116A24 24 0 0 0 88 92V84M40 72V68A24 24 0 0 1 64 44A24 24 0 0 1 88 68V72" />
    <glyph glyph-name="bag-handle-sharp"
      unicode="&#xEA61;"
      horiz-adv-x="128" d="M115 88H93V91A29.0325 29.0325 0 0 1 64.7225 120H63.2775A29.0325 29.0325 0 0 1 35 91V88H13A1 1 0 0 1 12 87V12A4 4 0 0 1 16 8H112A4 4 0 0 1 116 12V87A1 1 0 0 1 115 88zM45 90.75C45 101.21 53.3525 109.89 63.8125 110A19.02 19.02 0 0 0 83 91V88H45zM92 68A28 28 0 0 0 36 68V76H44V68A20 20 0 0 1 84 68V76H92z" />
    <glyph glyph-name="bag-outline"
      unicode="&#xEA62;"
      horiz-adv-x="128" d="M20 84A4 4 0 0 1 16 80V26C16 18.44 22.44 12 30 12H98C105.56 12 112 18.1275 112 25.6875V80A4 4 0 0 1 108 84zM40 84V92A24 24 0 0 0 64 116A24 24 0 0 0 88 92V84" />
    <glyph glyph-name="bag-remove"
      unicode="&#xEA63;"
      horiz-adv-x="128" d="M113.6649818024372 85.65A7.965 7.965 0 0 1 107.9999818024372 88H91.9999818024372V92A28 28 0 0 1 35.9999818024372 92V88H19.9999818024372A8 8 0 0 1 11.9999818024372 80V26C11.9999818024372 16.25 20.2499818024372 8 29.9999818024372 8H97.9999818024372A18.055 18.055 0 0 1 110.6199818024372 13.1375A17.37 17.37 0 0 1 115.9999818024372 25.6875V80A7.945 7.945 0 0 1 113.6649818024372 85.65zM79.9999818024372 44H47.9999818024372A4 4 0 0 0 47.9999818024372 52H79.9999818024372A4 4 0 0 0 79.9999818024372 44zM83.9999818024372 88H43.9999818024372V92A20 20 0 0 0 83.9999818024372 92z" />
    <glyph glyph-name="bag-remove-outline"
      unicode="&#xEA64;"
      horiz-adv-x="128" d="M80 48H48M20 84A4 4 0 0 1 16 80V26C16 18.44 22.44 12 30 12H98C105.56 12 112 18.1275 112 25.6875V80A4 4 0 0 1 108 84zM40 84V92A24 24 0 0 0 64 116A24 24 0 0 0 88 92V84" />
    <glyph glyph-name="bag-remove-sharp"
      unicode="&#xEA65;"
      horiz-adv-x="128" d="M115 88H93V91A29.0325 29.0325 0 0 1 64.7225 120H63.2775A29.0325 29.0325 0 0 1 35 91V88H13A1 1 0 0 1 12 87V12A4 4 0 0 1 16 8H112A4 4 0 0 1 116 12V87A1 1 0 0 1 115 88zM45 90.75C45 101.21 53.3525 109.89 63.8125 110A19.02 19.02 0 0 0 83 91V88H45zM84 44H44V52H84z" />
    <glyph glyph-name="bag-sharp"
      unicode="&#xEA66;"
      horiz-adv-x="128" d="M93 88V91A29.0325 29.0325 0 0 1 64.7225 120H63.2775A29.0325 29.0325 0 0 1 35 91V88H13A1 1 0 0 1 12 87V12A4 4 0 0 1 16 8H112A4 4 0 0 1 116 12V87A1 1 0 0 1 115 88zM83 88H45V90.75C45 101.21 53.3525 109.89 63.8125 110A19.02 19.02 0 0 0 83 91z" />
    <glyph glyph-name="balloon"
      unicode="&#xEA67;"
      horiz-adv-x="128" d="M97.7454953957205 51.1825C105.9329953957205 62.77 109.3929953957205 76.59 107.4954953957205 90.1025A43.955 43.955 0 0 1 57.8404953957205 127.5C33.8404953957205 124.1275 17.0554953957205 101.855 20.4279953957205 77.855C22.3204953957205 64.3825 29.4579953957205 52.065 40.5204953957205 43.17C46.6654953957205 38.25 53.5979953957205 34.795 60.1754953957205 33.25A2 2 0 0 0 61.6754953957205 30.945L60.4579953957205 24.35A4.0725 4.0725 0 0 1 60.8279953957205 21.7075A4 4 0 0 1 64.3779953957205 19.555A3.8025 3.8025 0 0 1 64.9354953957205 19.595L69.3879953957205 20.22A0.5 0.5 0 0 0 69.9104953957205 19.935C74.0904953957205 10.8575 81.2754953957205 3.9725 90.4479953957205 0.345A4 4 0 0 1 95.6979953957205 2.7575C96.4054953957205 4.8025 95.2879953957205 7.025 93.2779953957205 7.8275A29.6425 29.6425 0 0 0 78.4529953957205 20.7975A0.5 0.5 0 0 0 78.8154953957205 21.5475L80.6654953957205 21.7975A4.135 4.135 0 0 1 83.1854953957205 23.105A4 4 0 0 1 83.7829953957205 27.555L80.7679953957205 33.6125A2 2 0 0 0 81.5829953957205 36.25C87.4804953957205 39.5425 93.1954953957205 44.75 97.7454953957205 51.1825zM59.0204953957205 46.9875A4 4 0 0 0 57.5504953957205 47.2675C47.2354953957205 51.3475 38.4754953957205 60.4425 34.6879953957205 71.0025A4 4 0 1 0 42.2179953957205 73.7025C45.8429953957205 63.5925 54.0354953957205 57.26 60.4929953957205 54.7025A4 4 0 0 0 59.0204953957205 46.9825z" />
    <glyph glyph-name="balloon-outline"
      unicode="&#xEA68;"
      horiz-adv-x="128" d="M103.5298191782805 89.545C107.4173191782805 61.9 86.4648191782805 38.7275 70.6373191782805 36.5S28.2673191782805 50.875 24.3873191782805 78.42A39.955 39.955 0 1 0 103.5198191782805 89.5425zM59.0173191782805 50.9875C50.8098191782805 54.2375 42.2473191782805 61.7625 38.4498191782805 72.3525M91.9273191782805 4.055C83.7198191782805 7.305 76.0998191782805 14.07 72.3023191782805 24.6575M66.6798191782805 35.9475L64.3873191782805 23.545L80.2148191782805 25.77L74.5923191782805 37.06L66.6798191782805 35.9475z" />
    <glyph glyph-name="balloon-sharp"
      unicode="&#xEA69;"
      horiz-adv-x="128" d="M97.7454953957205 51.1825C105.9329953957205 62.77 109.3929953957205 76.59 107.4954953957205 90.1025C104.1129953957205 114.1025 81.8404953957205 130.885 57.8404953957205 127.5S17.0554953957205 101.8675 20.4279953957205 77.8675C22.3204953957205 64.395 29.4579953957205 52.0775 40.5204953957205 43.1825C47.2479953957205 37.7725 54.9179953957205 34.1575 62.0329953957205 32.85L59.9429953957205 21.5425A2 2 0 0 1 62.1929953957205 19.1975L69.7454953957205 20.25C73.7204953957205 11.2825 80.1579953957205 5.13 89.3479953957205 1.5L93.0679953957205 0.03L96.0104953957205 7.4675L92.2904953957205 8.94C85.7029953957205 11.545 81.1704953957205 15.48 78.0404953957205 21.42L83.5004953957205 22.1875A2 2 0 0 1 85.0129953957205 25.06L79.8904953957205 35.35C86.3854953957205 38.5675 92.7629953957205 44.145 97.7454953957205 51.1825zM57.5404953957205 47.2675C47.2254953957205 51.3475 38.4654953957205 60.4425 34.6779953957205 71.0025L33.3279953957205 74.7675L40.8579953957205 77.4675L42.2079953957205 73.7025C45.8329953957205 63.5925 54.0254953957205 57.26 60.4829953957205 54.7025L64.2029953957205 53.2325L61.2604953957205 45.7925z" />
    <glyph glyph-name="ban"
      unicode="&#xEA6A;"
      horiz-adv-x="128" d="M14 64A50 50 0 0 1 114 64A50 50 0 0 1 14 64M28.645 99.355L99.355 28.645" />
    <glyph glyph-name="ban-outline"
      unicode="&#xEA6B;"
      horiz-adv-x="128" d="M12 64A52 52 0 0 1 116 64A52 52 0 0 1 12 64M27.23 100.77L100.77 27.23" />
    <glyph glyph-name="ban-sharp"
      unicode="&#xEA6C;"
      horiz-adv-x="128" d="M103.5975 103.5975A56 56 0 1 1 24.4025 24.4025A56 56 0 1 1 103.5975 103.5975zM108 64A43.7725 43.7725 0 0 0 99.05 37.435L37.435 99.05A43.7725 43.7725 0 0 0 64 108C88.2625 108 108 88.25 108 64zM20 64A43.7725 43.7725 0 0 0 28.95 90.565L90.565 28.95A43.7725 43.7725 0 0 0 64 20C39.75 20 20 39.7375 20 64z" />
    <glyph glyph-name="bandage"
      unicode="&#xEA6D;"
      horiz-adv-x="128" d="M68.4633291896728 88.75A4 4 0 0 1 62.8058291896728 88.75L39.4708291896728 65.415A4 4 0 0 1 39.4708291896728 59.7575L59.2708291896728 39.9575A4 4 0 0 1 64.9283291896728 39.9575L88.2633291896728 63.2925A4 4 0 0 1 88.2633291896728 68.95zM33.8158291896728 54.1A11.9525 11.9525 0 0 0 31.4583291896728 57.445L16.7633291896728 42.75A18.05 18.05 0 0 1 16.7633291896728 17.25A18.0925 18.0925 0 0 1 42.2633291896728 17.25L56.9558291896728 31.94A11.9525 11.9525 0 0 0 53.6108291896728 34.2975zM97.5133291896728 116A17.8875 17.8875 0 0 1 84.7633291896728 110.75L70.7833291896728 96.7725A12.0125 12.0125 0 0 0 74.1233291896728 94.41L93.9208291896728 74.6125A12.0125 12.0125 0 0 0 96.2833291896728 71.2725L110.2633291896728 85.25A18 18 0 0 1 97.5133291896728 116zM68.4633291896728 88.75A4 4 0 0 1 62.8058291896728 88.75L39.4708291896728 65.415A4 4 0 0 1 39.4708291896728 59.7575L59.2708291896728 39.9575A4 4 0 0 1 64.9283291896728 39.9575L88.2633291896728 63.2925A4 4 0 0 1 88.2633291896728 68.95zM54.3408291896728 61.1725A4 4 0 1 0 54.3408291896728 66.8275A4 4 0 0 0 54.3408291896728 61.1725zM66.3408291896728 49.1725A4 4 0 1 0 66.3408291896728 54.8275A4 4 0 0 0 66.3408291896728 49.1725zM66.3408291896728 73.1725A4 4 0 1 0 66.3408291896728 78.8275A4 4 0 0 0 66.3408291896728 73.1725zM78.3408291896728 61.1725A4 4 0 1 0 78.3408291896728 66.8275A4 4 0 0 0 78.3408291896728 61.1725zM115.9158291896728 116.4025A26.095 26.095 0 0 1 79.1033291896728 116.4025L61.6633291896728 98.93A1 1 0 0 1 62.7133291896728 97.285A8.935 8.935 0 0 0 65.6358291896728 97.92A11.925 11.925 0 0 0 74.1208291896728 94.405L93.9183291896728 74.6075A11.925 11.925 0 0 0 97.4333291896728 66.1225A8.92 8.92 0 0 0 96.7983291896728 63.2A1 1 0 0 1 98.4433291896728 62.15L115.9158291896728 79.59A26.095 26.095 0 0 1 115.9158291896728 116.4025zM63.0983291896728 31.2925A11.9775 11.9775 0 0 0 54.6133291896728 34.7925L34.8158291896728 54.6A11.9525 11.9525 0 0 0 32.4583291896728 57.945C31.3108291896728 60.37 32.1108291896728 64.195 33.0783291896728 67.17A1 1 0 0 1 31.4183291896728 68.17L12.1108291896728 48.91A26.03 26.03 0 0 1 48.9233291896728 12.0975L67.1108291896728 30.3175A1 1 0 0 1 66.0583291896728 31.9625C65.0133291896728 31.5675 63.9583291896728 31.2925 63.0983291896728 31.2925z" />
    <glyph glyph-name="bandage-outline"
      unicode="&#xEA6E;"
      horiz-adv-x="128" d="M14.4247435710111 45.581489670434L82.4183638829566 113.5751099823795A22.03 22.03 0 0 0 113.5734886620359 113.5751099823795L113.5752564289888 113.5733422154265A22.03 22.03 0 0 0 113.5752564289888 82.4182174363472L45.5816361170434 14.4245971244018A22.03 22.03 0 0 0 14.4265113379641 14.4245971244018L14.4247435710111 14.4263648913547A22.03 22.03 0 0 0 14.4247435710111 45.581489670434zM71.7742195520293 91.5765200854244L91.5732094252526 71.7775302122011A8 8 0 0 0 91.5732094252526 60.4638217132163L68.2386856460965 37.1292979340603A8 8 0 0 0 56.9249771471118 37.1292979340603L37.1259872738885 56.9282878072836A8 8 0 0 0 37.1259872738885 68.2419963062683L60.4605110530445 91.5765200854244A8 8 0 0 0 71.7742195520293 91.5765200854244zM59.9985857864376 76A4 4 0 0 1 67.9985857864376 76A4 4 0 0 1 59.9985857864376 76M71.9985857864376 64A4 4 0 0 1 79.9985857864376 64A4 4 0 0 1 71.9985857864376 64M47.9985857864376 64A4 4 0 0 1 55.9985857864376 64A4 4 0 0 1 47.9985857864376 64M59.9985857864376 52A4 4 0 0 1 67.9985857864376 52A4 4 0 0 1 59.9985857864376 52" />
    <glyph glyph-name="bandage-sharp"
      unicode="&#xEA6F;"
      horiz-adv-x="128" d="M6.9264122391252 43.725A10 10 0 0 1 6.9264122391252 29.59L29.5889122391252 6.9275A10 10 0 0 1 43.7239122391252 6.9275L62.4989122391252 25.7025L25.7014122391252 62.5zM123.9989122391252 91.225A9.9675 9.9675 0 0 1 121.0614122391252 98.32L98.3114122391252 121.07A10.035 10.035 0 0 1 84.1239122391252 121.07L65.9989122391252 102.93L102.9289122391252 66L121.0614122391252 84.1325A9.9625 9.9625 0 0 1 123.9989122391252 91.225zM68.2639122391252 31.4525L97.2639122391252 60.4525L60.4414122391252 97.25L31.4414122391252 68.25zM73.1714122391252 66.8275A4 4 0 1 0 73.1714122391252 61.1725A4 4 0 0 0 73.1714122391252 66.8275zM61.1714122391252 78.8275A4 4 0 1 0 61.1714122391252 73.1725A4 4 0 0 0 61.1714122391252 78.8275zM61.1714122391252 54.8275A4 4 0 1 0 61.1714122391252 49.1725A4 4 0 0 0 61.1714122391252 54.8275zM54.8264122391252 66.8275A4 4 0 1 0 49.1714122391252 66.8275A4 4 0 0 0 54.8264122391252 66.8275z" />
    <glyph glyph-name="bar-chart"
      unicode="&#xEA70;"
      horiz-adv-x="128" d="M120 4H12A8 8 0 0 0 4 12V120A4 4 0 0 0 12 120V12H120A4 4 0 0 0 120 4zM39 20H29A9 9 0 0 0 20 29V67A9 9 0 0 0 29 76H39A9 9 0 0 0 48 67V29A9 9 0 0 0 39 20zM75 20H65A9 9 0 0 0 56 29V79A9 9 0 0 0 65 88H75A9 9 0 0 0 84 79V29A9 9 0 0 0 75 20zM110.91 20H100.91A9 9 0 0 0 91.91 29V95A9 9 0 0 0 100.91 104H110.91A9 9 0 0 0 119.91 95V29A9 9 0 0 0 110.91 20z" />
    <glyph glyph-name="bar-chart-outline"
      unicode="&#xEA71;"
      horiz-adv-x="128" d="M8 120V12A4 4 0 0 1 12 8H120M29 72H39A5 5 0 0 0 44 67V29A5 5 0 0 0 39 24H29A5 5 0 0 0 24 29V67A5 5 0 0 0 29 72zM65 84H75A5 5 0 0 0 80 79V29A5 5 0 0 0 75 24H65A5 5 0 0 0 60 29V79A5 5 0 0 0 65 84zM100.91 100H110.91A5 5 0 0 0 115.91 95V29A5 5 0 0 0 110.91 24H100.91A5 5 0 0 0 95.91 29V95A5 5 0 0 0 100.91 100z" />
    <glyph glyph-name="bar-chart-sharp"
      unicode="&#xEA72;"
      horiz-adv-x="128" d="M124 4H4V124H12V12H124V4zM48 20H20V76H48zM84 20H56V88H84zM119.91 20H91.91V104H119.91z" />
    <glyph glyph-name="barbell"
      unicode="&#xEA73;"
      horiz-adv-x="128" d="M116.75 84A7.485 7.485 0 0 1 110.42 80.875A0.5 0.5 0 0 0 109.51 81.16V90.3225C109.51 95.51 105.425 99.875 100.24 99.9975A9.5 9.5 0 0 1 90.5 90.5V70A0.5 0.5 0 0 0 90 69.5H38A0.5 0.5 0 0 0 37.5 70V90.3225C37.5 95.51 33.415 99.875 28.23 99.9975A9.5 9.5 0 0 1 18.5 90.5V81.155A0.5 0.5 0 0 0 17.59 80.87A7.485 7.485 0 0 1 11.25 84C7.175 83.8725 4 80.4225 4 76.345V51.665C4 47.5875 7.185 44.1375 11.25 44.01A7.485 7.485 0 0 1 17.58 47.135A0.5 0.5 0 0 0 18.5 46.845V37.6775C18.5 32.5 22.585 28.125 27.77 28A9.5 9.5 0 0 1 37.5 37.5V58A0.5 0.5 0 0 0 38 58.5H90A0.5 0.5 0 0 0 90.5 58V37.6775C90.5 32.49 94.585 28.125 99.77 28.0025A9.5 9.5 0 0 1 109.5 37.5V46.845A0.5 0.5 0 0 0 110.41 47.13A7.485 7.485 0 0 1 116.75 44C120.825 44.1275 124 47.5775 124 51.655V76.34C124 80.4175 120.815 83.8675 116.75 84z" />
    <glyph glyph-name="barbell-outline"
      unicode="&#xEA74;"
      horiz-adv-x="128" d="M12 64H116M100 96H100A4 4 0 0 0 104 92V36A4 4 0 0 0 100 32H100A4 4 0 0 0 96 36V92A4 4 0 0 0 100 96zM28 96H28A4 4 0 0 0 32 92V36A4 4 0 0 0 28 32H28A4 4 0 0 0 24 36V92A4 4 0 0 0 28 96zM10 80H10A2 2 0 0 0 12 78V50A2 2 0 0 0 10 48H10A2 2 0 0 0 8 50V78A2 2 0 0 0 10 80zM118 80H118A2 2 0 0 0 120 78V50A2 2 0 0 0 118 48H118A2 2 0 0 0 116 50V78A2 2 0 0 0 118 80z" />
    <glyph glyph-name="barbell-sharp"
      unicode="&#xEA75;"
      horiz-adv-x="128" d="M124 84H109.5V100H90.5V69.5H37.5V100H18.5V84H4V44H18.5V28H37.5V58.5H90.5V28H109.5V44H124V84z" />
    <glyph glyph-name="barcode"
      unicode="&#xEA76;"
      horiz-adv-x="128" d="M104.7825 104H104.75L95.9875 103.9175L32 104H31.96L22.775 103.9175C16.7325 103.905 12 98.9825 12 92.7V35.1325C12 28.845 16.75 23.9175 22.8 23.9175H22.8375L32.015 24L95.995 23.9175H96.0375L104.805 24A11.2275 11.2275 0 0 1 116 35.2175V92.7825A11.23 11.23 0 0 1 104.7825 104zM36 48A4 4 0 0 0 28 48V80A4 4 0 0 0 36 80zM52 40A4 4 0 0 0 44 40V88A4 4 0 0 0 52 88zM68 44A4 4 0 0 0 60 44V84A4 4 0 0 0 68 84zM84 40A4 4 0 0 0 76 40V88A4 4 0 0 0 84 88zM100 48A4 4 0 0 0 92 48V80A4 4 0 0 0 100 80z" />
    <glyph glyph-name="barcode-outline"
      unicode="&#xEA77;"
      horiz-adv-x="128" d="M96 27.9175L104.7825 28A7.25 7.25 0 0 1 112 35.2175V92.7825A7.25 7.25 0 0 1 104.7825 100L96 99.9175M32 100L22.8 99.9175C18.83 99.9175 16 96.6675 16 92.7V35.1325C16 31.165 18.83 27.9175 22.8 27.9175L32 28M96 80V48M80 88V40M64 84V44M48 88V40M32 80V48" />
    <glyph glyph-name="barcode-sharp"
      unicode="&#xEA78;"
      horiz-adv-x="128" d="M100 27.9175L112 28V100L100 99.9175M28 100L16 99.9175V27.9175L28 28M96 80V48M80 88V40M64 84V44M48 88V40M32 80V48" />
    <glyph glyph-name="baseball"
      unicode="&#xEA79;"
      horiz-adv-x="128" d="M111.175 54.0825L111.0575 60.6A51.355 51.355 0 0 0 101.24 61.7825L99.99 57.445A3.5 3.5 0 1 0 93.27 59.3975L94.52 63.7425A51.6175 51.6175 0 0 0 85.5075 68.08L82.8975 64.3875A3.5 3.5 0 0 0 77.18 68.4275L79.7825 72.11A51.2 51.2 0 0 0 72.2825 79.61L68.6025 77A3.5 3.5 0 0 0 64.5625 82.7175L68.2475 85.3225A51.325 51.325 0 0 0 63.9025 94.3375L59.5725 93.0875A3.5 3.5 0 1 0 57.62 99.81L61.945 101.06A51.47 51.47 0 0 0 60.8375 109.2075Q60.795 109.9575 60.7775 110.7075L56.2225 110.79A3.5 3.5 0 0 0 52.7875 114.29A52 52 0 0 1 13.925 77.395A4 4 0 0 0 17.675 73.48L17.785 67.3725C18.18 67.36 18.575 67.345 18.9675 67.3225A51.47 51.47 0 0 0 27.115 66.215L28.365 70.54A3.5 3.5 0 0 0 35.0875 68.5875L33.8375 64.2575A51.3025 51.3025 0 0 0 42.8375 59.9125L45.425 63.5975A3.5 3.5 0 0 0 51.1425 59.5575L48.545 55.875A51.4125 51.4125 0 0 0 52.4925 52.3175A50.9475 50.9475 0 0 0 56.05 48.37L59.7325 50.9725A3.5 3.5 0 0 0 63.7725 45.25L60.0825 42.6425A51.715 51.715 0 0 0 64.425 33.6325L68.77 34.895A3.5 3.5 0 0 0 70.7225 28.1725L66.385 26.9225A51.4725 51.4725 0 0 0 67.56 17.3525L72.1275 17.27A4 4 0 0 0 76.055 13.2A2.9225 2.9225 0 0 0 76.035 12.9025A52 52 0 0 1 114.3825 50.66A3.5 3.5 0 0 0 111.175 54.0825zM75.5475 113.95A3.5 3.5 0 0 0 72.05 110.5H71.9875L67.785 110.575C67.7975 110.2475 67.81 109.92 67.8275 109.5925A44.7075 44.7075 0 0 1 68.6875 103.015L72.76 104.2A3.5 3.5 0 0 0 74.7125 97.5L70.645 96.3175A44.515 44.515 0 0 1 73.9775 89.395L77.4375 91.84A3.5 3.5 0 1 0 81.4775 86.1225L78.0125 83.675Q79.325 82.0925 80.7925 80.6275C81.7675 79.65 82.7925 78.7275 83.8425 77.8525L86.2875 81.3125A3.5 3.5 0 1 0 92.005 77.25L89.565 73.8A44.7075 44.7075 0 0 1 96.485 70.4675L97.675 74.5375A3.5 3.5 0 0 0 104.3975 72.585L103.215 68.52A44.43 44.43 0 0 1 110.9525 67.6075L110.9125 69.8575A3.5 3.5 0 0 0 114.35 73.4175H114.4125A3.6675 3.6675 0 0 0 115.06 73.355A52 52 0 0 1 75.56 114.2325C75.545 114.1325 75.55 114.0425 75.5475 113.95zM52.285 13.6125A4 4 0 0 0 56.355 17.54L60.545 17.4675A44.6225 44.6225 0 0 1 59.64 24.955L55.575 23.775A3.5 3.5 0 1 0 53.6225 30.5L57.675 31.675A44.48 44.48 0 0 1 54.3425 38.595L50.8925 36.155A3.5 3.5 0 1 0 46.8525 41.8725L50.3125 44.3175C49.4375 45.3725 48.515 46.3925 47.5375 47.3675S45.5375 49.2725 44.49 50.1475L42.0425 46.6825A3.5 3.5 0 1 0 36.325 50.7225L38.77 54.1825A44.29 44.29 0 0 1 31.8475 57.515L30.675 53.4475A3.5 3.5 0 1 0 23.95 55.4L25.1325 59.4725A44.33 44.33 0 0 1 18.555 60.3325C18.3325 60.345 18.1075 60.3525 17.885 60.3625L17.925 57.715A4 4 0 0 0 13.9975 53.645H13.925A4 4 0 0 0 12.94 53.7725A52 52 0 0 1 52.3525 12.805A3.93 3.93 0 0 0 52.285 13.6125z" />
    <glyph glyph-name="baseball-outline"
      unicode="&#xEA7A;"
      horiz-adv-x="128" d="M73.5625 100.85L58.42 96.4525M79.2825 88.9725L66.4075 79.8725M88.9725 79.2825L79.8725 66.4075M100.85 73.5625L96.4525 58.42M16 64A48 48 0 0 1 112 64A48 48 0 0 1 16 64M108.235 64.2375A48 48 0 0 0 64.1575 109.4125M27.135 54.4225L31.5325 69.565M39.0125 48.7025L48.1125 61.5775M48.7025 39.0125L61.5775 48.1125M54.4225 27.135L69.565 31.5325M63.75 19.5975A48 48 0 0 1 18.5725 63.8275" />
    <glyph glyph-name="baseball-sharp"
      unicode="&#xEA7B;"
      horiz-adv-x="128" d="M75.48125 113.95A3.47 3.47 0 0 0 74.62625 111.7225L74.59875 110.44L67.67125 110.5825C67.67125 110.2575 67.69375 109.93 67.71125 109.605A44.3325 44.3325 0 0 1 68.57375 103.0275L74.75375 104.8225L76.70625 98.1025L70.52875 96.3075A44.3025 44.3025 0 0 1 73.86375 89.385L79.18125 93.135L83.22125 87.42L77.89875 83.6575Q79.21125 82.075 80.67625 80.61C81.65375 79.6325 82.67625 78.71 83.72625 77.835L87.65375 83.39L93.36875 79.35L89.44125 73.8125A44.695 44.695 0 0 1 96.36125 70.4825L98.23375 76.9325L104.95625 74.98L103.08125 68.5225A44.45 44.45 0 0 1 110.83125 67.605L110.72875 73.7725L115.08125 73.845A52 52 0 0 1 75.39625 114.7675A3.4125 3.4125 0 0 0 75.48125 113.95zM53.44125 17.59L60.41875 17.4675A44.365 44.365 0 0 1 59.51375 24.955L53.47875 23.205L51.52625 29.925L57.55375 31.675A44.48 44.48 0 0 1 54.22125 38.595L49.13875 35L45.09875 40.715L50.19125 44.3175C49.31875 45.3725 48.39375 46.3925 47.41875 47.3675S45.41875 49.2725 44.37125 50.1475L40.89375 45.2275L35.19125 49.2675L38.66625 54.1825A44.315 44.315 0 0 1 31.74125 57.515L30.14875 52.03L23.42625 53.9825L25.02125 59.4825A44.33 44.33 0 0 1 18.44125 60.3325C18.04375 60.355 17.64625 60.3725 17.24625 60.3825L17.34625 54.7975L12.91875 54.7175A51.97 51.97 0 0 1 53.37125 13.0975zM111.10375 52.3325L110.96625 60.5975A51.5 51.5 0 0 0 101.13375 61.7825L99.19125 55.05L92.45625 57L94.41375 63.75A51.7275 51.7275 0 0 0 85.39875 68.0875L81.30875 62.3L75.59375 66.34L79.67625 72.1175A51.0525 51.0525 0 0 0 72.17625 79.6175L66.62875 75.7L62.58875 81.4175L68.13125 85.335A51.5 51.5 0 0 0 63.78625 94.35L57.34875 92.48L55.39625 99.2025L61.82875 101.07Q61.32875 103.3725 61.03375 105.73H60.91625L60.72125 109.23L60.63875 110.73L56.15375 110.81A3.345 3.345 0 0 0 55.70625 110.85L54.11875 110.8825L54.13375 111.5A3.5 3.5 0 0 0 52.71875 114.3725A3.3175 3.3175 0 0 0 52.75125 114.79A52 52 0 0 1 12.98125 73.6425L17.00625 73.7125L17.11875 67.4175L18.82625 67.3225L22.32625 67.13V67.01Q24.68125 66.7175 26.98625 66.215L28.65625 71.965L35.36625 70L33.69125 64.25A51.325 51.325 0 0 0 42.70625 59.905L46.33875 65.045L52.05875 61L48.44125 55.875A50.875 50.875 0 0 0 55.94125 48.375L61.26625 52.125L65.30625 46.41L59.96625 42.6475A51.715 51.715 0 0 0 64.30125 33.6325L70.61875 35.465L72.57125 28.75L66.26125 26.9175A51.475 51.475 0 0 0 67.44125 17.3425L74.79625 17.21L74.72375 13.09A51.985 51.985 0 0 1 114.72375 52.3925z" />
    <glyph glyph-name="basket"
      unicode="&#xEA7C;"
      horiz-adv-x="128" d="M106.0288205290858 80H90.0013205290858L67.2013205290858 110.4A4 4 0 0 1 60.8013205290858 110.4L38.0013205290858 80H21.9738205290858A8.1425 8.1425 0 0 1 13.8188205290858 71.89A7.575 7.575 0 0 1 14.1463205290858 69.64L25.7138205290858 28.855A12.68 12.68 0 0 1 37.9238205290858 19.6275H90.0788205290858A12.8025 12.8025 0 0 1 102.3288205290858 28.8425L113.9113205290858 69.6825A3.905 3.905 0 0 1 114.0263205290858 70.2725L114.1588205290858 71.505A3.325 3.325 0 0 1 114.1813205290858 71.8925A8.1425 8.1425 0 0 1 106.0288205290858 80zM64.0013205290858 101.3325L80.0013205290858 80H48.0013205290858zM64.0013205290858 40.0825A9.425 9.425 0 1 0 73.4713205290858 49.5075A9.4675 9.4675 0 0 0 64.0013205290858 40.0925z" />
    <glyph glyph-name="basket-outline"
      unicode="&#xEA7D;"
      horiz-adv-x="128" d="M17.1001529059785 80A5.095 5.095 0 0 1 12.0001529059785 74.95A4.4675 4.4675 0 0 1 12.2001529059785 73.575L25.1251529059785 28A10.115 10.115 0 0 1 34.9001529059785 20.625H93.1001529059785A10.22 10.22 0 0 1 102.9251529059785 28L115.8501529059785 73.575L116.0001529059785 74.95A5.095 5.095 0 0 1 110.9001529059785 80H17.1001529059785zM65.4301529059785 39.9825A10.5175 10.5175 0 1 0 76.0001529059785 50.5A10.5675 10.5675 0 0 0 65.4301529059785 39.9825zM40.0001529059785 80L64.0001529059785 112L88.0001529059785 80" />
    <glyph glyph-name="basket-sharp"
      unicode="&#xEA7E;"
      horiz-adv-x="128" d="M84.8 73.6L64 101.3325L43.2 73.6L36.8 78.4L60.8 110.4A4 4 0 0 0 67.2 110.4L91.2 78.4zM110.3975 80H17.6025A3 3 0 0 1 14.6825 76.3075L28.1475 19.5H99.8525L113.3175 76.3075A3 3 0 0 1 110.3975 80zM64 40.085A9.4275 9.4275 0 1 0 73.4725 49.5A9.47 9.47 0 0 0 64 40.085z" />
    <glyph glyph-name="basketball"
      unicode="&#xEA7F;"
      horiz-adv-x="128" d="M64 69.6575L72.6125 78.27A51.77 51.77 0 0 0 60.0825 112.0825C60.0825 113.3325 60.13 114.595 60.2175 115.8325A51.7725 51.7725 0 0 1 30.1675 103.5zM78.285 83.9425L97.8325 103.5A51.7675 51.7675 0 0 1 68.25 115.8C68.1475 114.575 68.09 113.335 68.09 112.0825A43.8125 43.8125 0 0 1 78.285 83.9425zM83.9425 78.285A43.8125 43.8125 0 0 1 112.0825 68.0825C113.3325 68.0825 114.5825 68.14 115.8 68.2425A51.7675 51.7675 0 0 1 103.5 97.8325zM44.0575 49.715A43.8075 43.8075 0 0 1 15.9175 59.9175Q14.0375 59.9175 12.2 59.7575A51.7675 51.7675 0 0 1 24.5 30.1675zM64 58.3425L55.3875 49.73A51.77 51.77 0 0 0 67.9175 15.9175C67.9175 14.6675 67.87 13.405 67.7825 12.1675A51.765 51.765 0 0 1 97.8325 24.5zM112.0825 60.0825A51.77 51.77 0 0 0 78.27 72.6125L69.6575 64L103.5 30.1675A51.7725 51.7725 0 0 1 115.8475 60.2175C114.595 60.13 113.3425 60.0825 112.0825 60.0825zM58.3425 64L24.5 97.8325A51.765 51.765 0 0 1 12.1525 67.7825C13.4025 67.87 14.6525 67.9175 15.9025 67.9175A51.77 51.77 0 0 0 49.715 55.3875zM30.1675 24.5A51.7675 51.7675 0 0 1 59.75 12.2Q59.9075 14.0375 59.91 15.9175A43.8075 43.8075 0 0 1 49.7075 44.0575z" />
    <glyph glyph-name="basketball-outline"
      unicode="&#xEA80;"
      horiz-adv-x="128" d="M16 64A48 48 0 0 1 112 64A48 48 0 0 1 16 64M108.235 64.2375A48 48 0 0 0 64.1575 109.4125M63.75 19.5975A48 48 0 0 1 18.5725 63.8275M30.06 97.94L97.94 30.06M30.06 30.06L97.94 97.94" />
    <glyph glyph-name="basketball-sharp"
      unicode="&#xEA81;"
      horiz-adv-x="128" d="M64 69.6575L72.6125 78.27A51.77 51.77 0 0 0 60.0825 112.0825C60.0825 113.3325 60.13 114.595 60.2175 115.8325A51.7725 51.7725 0 0 1 30.1675 103.5zM78.285 83.9425L97.8325 103.5A51.7675 51.7675 0 0 1 68.25 115.8C68.1475 114.575 68.09 113.335 68.09 112.0825A43.8125 43.8125 0 0 1 78.285 83.9425zM83.9425 78.285A43.8125 43.8125 0 0 1 112.0825 68.0825C113.3325 68.0825 114.5825 68.14 115.8 68.2425A51.7675 51.7675 0 0 1 103.5 97.8325zM44.0575 49.715A43.8075 43.8075 0 0 1 15.9175 59.9175Q14.0375 59.9175 12.2 59.7575A51.7675 51.7675 0 0 1 24.5 30.1675zM64 58.3425L55.3875 49.73A51.77 51.77 0 0 0 67.9175 15.9175C67.9175 14.6675 67.87 13.405 67.7825 12.1675A51.765 51.765 0 0 1 97.8325 24.5zM112.0825 60.0825A51.77 51.77 0 0 0 78.27 72.6125L69.6575 64L103.5 30.1675A51.7725 51.7725 0 0 1 115.8475 60.2175C114.595 60.13 113.3425 60.0825 112.0825 60.0825zM58.3425 64L24.5 97.8325A51.765 51.765 0 0 1 12.1525 67.7825C13.4025 67.87 14.6525 67.9175 15.9025 67.9175A51.77 51.77 0 0 0 49.715 55.3875zM30.1675 24.5A51.7675 51.7675 0 0 1 59.75 12.2Q59.9075 14.0375 59.91 15.9175A43.8075 43.8075 0 0 1 49.7075 44.0575z" />
    <glyph glyph-name="battery-charging"
      unicode="&#xEA82;"
      horiz-adv-x="128" d="M12 47.425V80.575A7.435 7.435 0 0 0 19.425 88H53.785L59.885 96H19.425A15.4425 15.4425 0 0 1 4 80.575V47.425A15.4425 15.4425 0 0 1 19.425 32H43.6375A5.6425 5.6425 0 0 0 43.7025 33.83L43.74 34.0175L43.7925 34.2L45.4175 40H19.425A7.435 7.435 0 0 0 12 47.425zM96.575 96H71.915A5.6725 5.6725 0 0 0 71.8475 94.2L71.81 94.015L71.7575 93.8325L70.1225 88H96.575A7.435 7.435 0 0 0 104 80.575V47.425A7.435 7.435 0 0 0 96.575 40H61.75L55.645 32H96.575A15.4425 15.4425 0 0 1 112 47.425V80.575A15.4425 15.4425 0 0 1 96.575 96zM40.6625 54.46A6.0925 6.0925 0 0 0 35.2725 57.71A6.25 6.25 0 0 0 35.6275 64.1675L35.705 64.2825L35.7875 64.3925L49.405 82.25H22.4225A5 5 0 0 1 17.4225 77.25V50.75A5 5 0 0 1 22.4225 45.75H47.0275L49.4725 54.465zM69.0175 57.7775L75.785 66.65A1.3 1.3 0 0 1 75.9775 67.1275A1.25 1.25 0 0 1 75.9975 67.2925A1.25 1.25 0 0 1 75.9775 67.615A1.2775 1.2775 0 0 1 75.8075 68.0525A1.19 1.19 0 0 1 75.6125 68.29A0.87 0.87 0 0 1 75.4925 68.385A1 1 0 0 1 75.215 68.5225A1.07 1.07 0 0 1 74.8875 68.5725H59.4825L62.5125 79.375L63.32 82.25L64.8725 87.79L65 88.25L66.9475 95.19A0.8775 0.8775 0 0 1 66.96 95.3275V95.3675C66.96 95.38 66.96 95.4325 66.9475 95.4625S66.9475 95.485 66.9475 95.4975A0.55 0.55 0 0 1 66.905 95.61A0.9425 0.9425 0 0 1 66.84 95.7075L66.8175 95.7325A0.6825 0.6825 0 0 1 66.755 95.79L66.73 95.81A0.785 0.785 0 0 1 66.6325 95.87A0.5 0.5 0 0 1 66.53 95.905H66.3825A0.575 0.575 0 0 1 66.27 95.905A0.475 0.475 0 0 1 66.165 95.8675L66.1325 95.85L66.0575 95.7975L66.03 95.7725A0.6 0.6 0 0 1 65.94 95.67L61.44 89.7625L58.155 85.4575L55.6925 82.25L39.765 61.3625A1.43 1.43 0 0 1 39.655 61.1625A1.195 1.195 0 0 1 39.5675 60.89A1.175 1.175 0 0 1 39.5475 60.5675A1.215 1.215 0 0 1 40.0475 59.64A1.185 1.185 0 0 1 40.1825 59.5625A1.0775 1.0775 0 0 1 40.655 59.455H56.06L48.605 32.85A0.91 0.91 0 0 1 48.605 32.71V32.6725A0.58 0.58 0 0 1 48.62 32.5775A0.145 0.145 0 0 1 48.62 32.5425A0.55 0.55 0 0 1 48.6625 32.43A0.905 0.905 0 0 1 48.7275 32.335L48.75 32.31L48.8125 32.25A0.0975 0.0975 0 0 0 48.8375 32.23A0.555 0.555 0 0 1 48.935 32.1725A0.7075 0.7075 0 0 1 49.0375 32.1375H49.07A0.465 0.465 0 0 1 49.1525 32.1375H49.185A0.58 0.58 0 0 1 49.2975 32.1525A0.5125 0.5125 0 0 1 49.4 32.1925L49.4325 32.21L49.5075 32.2625L49.535 32.285A0.6 0.6 0 0 1 49.625 32.3875L55.455 40L59.8375 45.75zM79.875 63.7675L79.76 63.6175L66.1275 45.75H93.5775A5 5 0 0 1 98.5775 50.75V77.25A5 5 0 0 1 93.5775 82.25H68.5125L66.0775 73.5675H74.8875A6.0875 6.0875 0 0 0 80.25 70.375A6.3025 6.3025 0 0 0 80 63.9275zM120 77.3325A4 4 0 0 1 116 73.3325V54.6675A4 4 0 0 1 124 54.6675V73.3325A4 4 0 0 1 120 77.3325z" />
    <glyph glyph-name="battery-charging-outline"
      unicode="&#xEA83;"
      horiz-adv-x="128" d="M12 47.425V80.575A7.435 7.435 0 0 0 19.425 88H53.785L59.885 96H19.425A15.4425 15.4425 0 0 1 4 80.575V47.425A15.4425 15.4425 0 0 1 19.425 32H43.6375A5.6425 5.6425 0 0 0 43.7025 33.83L43.74 34.0175L43.7925 34.2L45.4175 40H19.425A7.435 7.435 0 0 0 12 47.425zM96.575 96H71.915A5.6725 5.6725 0 0 0 71.8475 94.2L71.81 94.015L71.7575 93.8325L70.1225 88H96.575A7.435 7.435 0 0 0 104 80.575V47.425A7.435 7.435 0 0 0 96.575 40H61.75L55.645 32H96.575A15.4425 15.4425 0 0 1 112 47.425V80.575A15.4425 15.4425 0 0 1 96.575 96zM40.6625 54.46A6.0925 6.0925 0 0 0 35.2725 57.71A6.25 6.25 0 0 0 35.6275 64.1675L35.705 64.2825L35.7875 64.3925L49.405 82.25H22.4225A5 5 0 0 1 17.4225 77.25V50.75A5 5 0 0 1 22.4225 45.75H47.0275L49.4725 54.465zM69.0175 57.7775L75.785 66.65A1.3 1.3 0 0 1 75.9775 67.1275A1.25 1.25 0 0 1 75.9975 67.2925A1.25 1.25 0 0 1 75.9775 67.615A1.2775 1.2775 0 0 1 75.8075 68.0525A1.19 1.19 0 0 1 75.6125 68.29A0.87 0.87 0 0 1 75.4925 68.385A1 1 0 0 1 75.215 68.5225A1.07 1.07 0 0 1 74.8875 68.5725H59.4825L62.5125 79.375L63.32 82.25L64.8725 87.79L65 88.25L66.9475 95.19A0.8775 0.8775 0 0 1 66.96 95.3275V95.3675C66.96 95.38 66.96 95.4325 66.9475 95.4625S66.9475 95.485 66.9475 95.4975A0.55 0.55 0 0 1 66.905 95.61A0.9425 0.9425 0 0 1 66.84 95.7075L66.8175 95.7325A0.6825 0.6825 0 0 1 66.755 95.79L66.73 95.81A0.785 0.785 0 0 1 66.6325 95.87A0.5 0.5 0 0 1 66.53 95.905H66.3825A0.575 0.575 0 0 1 66.27 95.905A0.475 0.475 0 0 1 66.165 95.8675L66.1325 95.85L66.0575 95.7975L66.03 95.7725A0.6 0.6 0 0 1 65.94 95.67L61.44 89.7625L58.155 85.4575L55.6925 82.25L39.765 61.3625A1.43 1.43 0 0 1 39.655 61.1625A1.195 1.195 0 0 1 39.5675 60.89A1.175 1.175 0 0 1 39.5475 60.5675A1.215 1.215 0 0 1 40.0475 59.64A1.185 1.185 0 0 1 40.1825 59.5625A1.0775 1.0775 0 0 1 40.655 59.455H56.06L48.605 32.85A0.91 0.91 0 0 1 48.605 32.71V32.6725A0.58 0.58 0 0 1 48.62 32.5775A0.145 0.145 0 0 1 48.62 32.5425A0.55 0.55 0 0 1 48.6625 32.43A0.905 0.905 0 0 1 48.7275 32.335L48.75 32.31L48.8125 32.25A0.0975 0.0975 0 0 0 48.8375 32.23A0.555 0.555 0 0 1 48.935 32.1725A0.7075 0.7075 0 0 1 49.0375 32.1375H49.07A0.465 0.465 0 0 1 49.1525 32.1375H49.185A0.58 0.58 0 0 1 49.2975 32.1525A0.5125 0.5125 0 0 1 49.4 32.1925L49.4325 32.21L49.5075 32.2625L49.535 32.285A0.6 0.6 0 0 1 49.625 32.3875L55.455 40L59.8375 45.75zM79.875 63.7675L79.76 63.6175L66.1275 45.75H93.5775A5 5 0 0 1 98.5775 50.75V77.25A5 5 0 0 1 93.5775 82.25H68.5125L66.0775 73.5675H74.8875A6.0875 6.0875 0 0 0 80.25 70.375A6.3025 6.3025 0 0 0 80 63.9275zM120 77.3325A4 4 0 0 1 116 73.3325V54.6675A4 4 0 0 1 124 54.6675V73.3325A4 4 0 0 1 120 77.3325z" />
    <glyph glyph-name="battery-charging-sharp"
      unicode="&#xEA84;"
      horiz-adv-x="128" d="M76.42 68.595H59.795L63.6275 82.27L65.235 88L66.22 91.5L67.2925 95.3325A0.89 0.89 0 0 1 67.3075 95.4425V95.49A0.4625 0.4625 0 0 1 67.3075 95.5475A0.5 0.5 0 0 1 67.3075 95.6075V95.6425C67.3075 95.6675 67.29 95.69 67.28 95.715V95.7275A0.5825 0.5825 0 0 1 66.78 96.065H66.755A0.5625 0.5625 0 0 1 66.305 95.815L63.18 91.5275L58.475 85.14L56.385 82.27L47.5325 70.12L39.75 59.435H56.36L48.86 32.685A0.9825 0.9825 0 0 1 48.845 32.565V32.54A0.485 0.485 0 0 1 48.845 32.455A0.0725 0.0725 0 0 1 48.845 32.4325A0.75 0.75 0 0 1 48.8625 32.3525V32.3375A0.4575 0.4575 0 0 1 48.8975 32.2575A0.595 0.595 0 0 1 49.2775 31.9675H49.42A0.525 0.525 0 0 1 49.7475 32.0925L49.7625 32.105A0.65 0.65 0 0 1 49.8675 32.2175L55.575 40L58.825 44.455zM72.195 94.3625L72.16 94.1775L72.1075 93.995L70.4275 87.995H104V40H61.7625L55.93 32H112V96H72.2825A5.655 5.655 0 0 0 72.195 94.3625zM12 88H54.3725L60.2 96H4V32H43.8725A5.6825 5.6825 0 0 0 43.9575 33.6675L43.995 33.855L44.045 34.0375L45.7175 40H12zM65.94 45.73H98.5775V82.27H68.82L66.3875 73.595H86.25L80.46 65.65L65.94 45.73zM39.75 54.435H29.9225L35.71 62.38L50.1975 82.27H17.4225V45.73H47.3225L49.765 54.435H39.75zM116 77.3325H124V50.665H116z" />
    <glyph glyph-name="battery-dead"
      unicode="&#xEA85;"
      horiz-adv-x="128" d="M19.425 92H96.575A11.425 11.425 0 0 0 108 80.575V47.425A11.425 11.425 0 0 0 96.575 36H19.425A11.425 11.425 0 0 0 8 47.425V80.575A11.425 11.425 0 0 0 19.425 92zM120 73.3325V54.6675" />
    <glyph glyph-name="battery-dead-outline"
      unicode="&#xEA86;"
      horiz-adv-x="128" d="M19.425 92H96.575A11.425 11.425 0 0 0 108 80.575V47.425A11.425 11.425 0 0 0 96.575 36H19.425A11.425 11.425 0 0 0 8 47.425V80.575A11.425 11.425 0 0 0 19.425 92zM120 73.3325V54.6675" />
    <glyph glyph-name="battery-dead-sharp"
      unicode="&#xEA87;"
      horiz-adv-x="128" d="M8 92H108V36H8zM120 73.3325V54.6675" />
    <glyph glyph-name="battery-full"
      unicode="&#xEA88;"
      horiz-adv-x="128" d="M19.425 92H96.575A11.425 11.425 0 0 0 108 80.575V47.425A11.425 11.425 0 0 0 96.575 36H19.425A11.425 11.425 0 0 0 8 47.425V80.575A11.425 11.425 0 0 0 19.425 92zM22.4225 78.2675H93.58A1 1 0 0 0 94.58 77.2675V50.7325A1 1 0 0 0 93.58 49.7325H22.4225A1 1 0 0 0 21.4225 50.7325V77.2675A1 1 0 0 0 22.4225 78.2675zM120 73.3325V54.6675" />
    <glyph glyph-name="battery-full-outline"
      unicode="&#xEA89;"
      horiz-adv-x="128" d="M19.425 92H96.575A11.425 11.425 0 0 0 108 80.575V47.425A11.425 11.425 0 0 0 96.575 36H19.425A11.425 11.425 0 0 0 8 47.425V80.575A11.425 11.425 0 0 0 19.425 92zM22.4225 78.2675H93.58A1 1 0 0 0 94.58 77.2675V50.7325A1 1 0 0 0 93.58 49.7325H22.4225A1 1 0 0 0 21.4225 50.7325V77.2675A1 1 0 0 0 22.4225 78.2675zM120 73.3325V54.6675" />
    <glyph glyph-name="battery-full-sharp"
      unicode="&#xEA8A;"
      horiz-adv-x="128" d="M4 32H112V96H4zM12 88H104V40H12zM17.4225 82.265H98.58V45.7325H17.4225zM116 77.3325H124V50.665H116z" />
    <glyph glyph-name="battery-half"
      unicode="&#xEA8B;"
      horiz-adv-x="128" d="M19.425 92H96.575A11.425 11.425 0 0 0 108 80.575V47.425A11.425 11.425 0 0 0 96.575 36H19.425A11.425 11.425 0 0 0 8 47.425V80.575A11.425 11.425 0 0 0 19.425 92zM22.4225 78.2675H59A1 1 0 0 0 60 77.2675V50.735A1 1 0 0 0 59 49.735H22.4225A1 1 0 0 0 21.4225 50.735V77.2675A1 1 0 0 0 22.4225 78.2675zM120 73.3325V54.6675" />
    <glyph glyph-name="battery-half-outline"
      unicode="&#xEA8C;"
      horiz-adv-x="128" d="M19.425 92H96.575A11.425 11.425 0 0 0 108 80.575V47.425A11.425 11.425 0 0 0 96.575 36H19.425A11.425 11.425 0 0 0 8 47.425V80.575A11.425 11.425 0 0 0 19.425 92zM22.4225 78.2675H59A1 1 0 0 0 60 77.2675V50.735A1 1 0 0 0 59 49.735H22.4225A1 1 0 0 0 21.4225 50.735V77.2675A1 1 0 0 0 22.4225 78.2675zM120 73.3325V54.6675" />
    <glyph glyph-name="battery-half-sharp"
      unicode="&#xEA8D;"
      horiz-adv-x="128" d="M4 32H112V96H4zM12 88H104V40H12zM17.4225 82.27H63.75V45.73H17.4225zM116 77.3325H124V50.665H116z" />
    <glyph glyph-name="beaker"
      unicode="&#xEA8E;"
      horiz-adv-x="128" d="M111.0037407797152 120H32.0037407797152C27.1587407797152 120 20.5287407797152 118.915 15.9762407797152 113.8075C13.0462407797152 110.52 12.0037407797152 106.585 12.0037407797152 104A4 4 0 0 1 15.4537407797152 100.0375C22.9287407797152 99 24.0037407797152 98.5525 24.0037407797152 94V28A20.0175 20.0175 0 0 1 44.0037407797152 8H92.0037407797152A20.0275 20.0275 0 0 1 112.0037407797152 28V104C112.0037407797152 107.1375 113.8687407797152 110.8125 114.5037407797152 111.84L114.5287407797152 111.875C114.5837407797152 111.9625 114.6537407797152 112.055 114.7237407797152 112.15C115.2237407797152 112.8475 115.9962407797152 113.9 115.9962407797152 115.3875C116.0037407797152 118.0525 113.7262407797152 120 111.0037407797152 120zM21.0312407797152 107.23C22.3412407797152 109.4475 25.3237407797152 111.98 32.1037407797152 111.98H105.7112407797152C104.8287407797152 109.7825 104.0037407797152 106.9325 104.0037407797152 104V88H32.0037407797152V94C32.0037407797152 103.33 26.6662407797152 106.035 21.0312407797152 107.23z" />
    <glyph glyph-name="beaker-outline"
      unicode="&#xEA8F;"
      horiz-adv-x="128" d="M111.3 115.9875L99.5 116H32C18.425 116 16 107.075 16 104C23.575 102.95 28 102 28 94V28A16 16 0 0 1 44 12H92A16 16 0 0 1 108 28V104C108 108.75 110.875 113.5875 111.15 114C111.45 114.475 112 115.1 112 115.375S111.925 115.9875 111.3 115.9875zM28 84H108" />
    <glyph glyph-name="beaker-sharp"
      unicode="&#xEA90;"
      horiz-adv-x="128" d="M113.3875 114.325L116 120H32.1C25.165 120 19.85 118.3575 16.2725 115.1225C13.5975 112.6825 12 109.2775 12 106V100H16C23.75 100 24 95.8025 24 91.25V13A5 5 0 0 1 29 8H107A5 5 0 0 1 112 13V104C112 108.29 112.57 112.535 113.3875 114.325zM104 104V88H32V93.5C32 102.5375 26.75 106.25 21.5575 106.865C22.25 110.5 26.425 111.9875 32.1 111.9875H104.58A55.4575 55.4575 0 0 1 104 104z" />
    <glyph glyph-name="bed"
      unicode="&#xEA91;"
      horiz-adv-x="128" d="M108 70.325A19.86 19.86 0 0 1 100 72H28A19.8775 19.8775 0 0 1 20 70.3275A20.0225 20.0225 0 0 1 8 52V24A4 4 0 0 1 16 24V26A2.025 2.025 0 0 0 18 28H110A2.025 2.025 0 0 0 112 26V24A4 4 0 0 1 120 24V52A20.0225 20.0225 0 0 1 108 70.325zM94 108H34A14 14 0 0 1 20 94V76A1 1 0 0 1 21.2775 75.04A23.875 23.875 0 0 0 28 76H29.0575A1 1 0 0 1 30.0575 76.8875A8 8 0 0 0 38 84H52A8 8 0 0 0 59.95 76.8875A1 1 0 0 1 60.95 76H67.065A1 1 0 0 1 68.065 76.8875A8 8 0 0 0 76 84H90A8 8 0 0 0 97.95 76.8875A1 1 0 0 1 98.95 76H100A23.8775 23.8775 0 0 0 106.7225 75.0375A1 1 0 0 1 108 76V94A14 14 0 0 1 94 108z" />
    <glyph glyph-name="bed-outline"
      unicode="&#xEA92;"
      horiz-adv-x="128" d="M96 68H24V94A10.03 10.03 0 0 0 34 104H94A10.03 10.03 0 0 0 104 94V68zM12 24V52A16.0475 16.0475 0 0 0 28 68H100A16.0475 16.0475 0 0 0 116 52V24M12 24V26A6.0175 6.0175 0 0 0 18 32H110A6.0175 6.0175 0 0 0 116 26V24M28 68V72A8.0225 8.0225 0 0 0 36 80H56A8.0225 8.0225 0 0 0 64 72V68M64 68V72A8.0225 8.0225 0 0 0 72 80H92A8.0225 8.0225 0 0 0 100 72V68" />
    <glyph glyph-name="bed-sharp"
      unicode="&#xEA93;"
      horiz-adv-x="128" d="M108 72V104A4 4 0 0 1 104 108H24A4 4 0 0 1 20 104V72A12 12 0 0 1 8 60V20H17V28H111V20H120V60A12 12 0 0 1 108 72zM60 72H30V80A4 4 0 0 0 34 84H56A4 4 0 0 0 60 80zM68 80A4 4 0 0 0 72 84H94A4 4 0 0 0 98 80V72H68z" />
    <glyph glyph-name="beer"
      unicode="&#xEA94;"
      horiz-adv-x="128" d="M97.999517937743 76H91.999517937743V77.435A15.9825 15.9825 0 0 1 80.412017937743 104A27.75 27.75 0 0 1 73.514517937743 115.8225A27.155 27.155 0 0 1 53.999517937743 124C46.522017937743 124 39.554517937743 120.93 34.249517937743 115.33A14 14 0 0 1 17.372017937743 95.945A15.9775 15.9775 0 0 1 19.999517937743 70.1525V18A14.015 14.015 0 0 1 33.999517937743 4H77.999517937743A14.015 14.015 0 0 1 91.999517937743 18V20H97.999517937743A18.02 18.02 0 0 1 115.999517937743 38V58A18.02 18.02 0 0 1 97.999517937743 76zM43.999517937743 24A4 4 0 0 0 35.999517937743 24V64A4 4 0 0 0 43.999517937743 64zM59.999517937743 24A4 4 0 0 0 51.999517937743 24V64A4 4 0 0 0 59.999517937743 64zM75.999517937743 24A4 4 0 0 0 67.999517937743 24V64A4 4 0 0 0 75.999517937743 64zM79.999517937743 80C77.917017937743 80 74.862017937743 81.295 73.327017937743 82.8275A4 4 0 0 1 70.499517937743 84H39.999517937743A4 4 0 0 1 36.249517937743 81.3675C34.542017937743 76.6975 30.349517937743 76 27.999517937743 76A8 8 0 0 0 27.999517937743 92C28.022017937743 92 30.279517937743 91.915 32.099517937743 90.55A4 4 0 1 1 36.899517937743 96.95A15.9225 15.9225 0 0 1 27.999517937743 100A15.8875 15.8875 0 0 1 24.499517937743 99.6075A6 6 0 0 0 29.999517937743 108A5.945 5.945 0 0 0 34.844517937743 105.54A12.8375 12.8375 0 0 0 36.022017937743 103.565A4 4 0 0 1 43.999517937743 104C43.999517937743 105.6925 43.097017937743 107.7925 41.309517937743 110.25C41.194517937743 110.4075 41.059517937743 110.5625 40.947017937743 110.715C44.597017937743 114.14 49.159517937743 116 53.999517937743 116A19.215 19.215 0 0 0 67.807017937743 110.205A20.05 20.05 0 0 0 73.152017937743 92.5A4 4 0 0 1 76.3345179377431 87.8225A4.0725 4.0725 0 0 1 77.0845179377431 87.7525A4 4 0 0 1 81.009517937743 91.0025A27.945 27.945 0 0 1 81.499517937743 95.8575A8 8 0 0 0 79.999517937743 80zM107.999517937743 38A10 10 0 0 0 97.999517937743 28H91.999517937743V68H97.999517937743A10 10 0 0 0 107.999517937743 58z" />
    <glyph glyph-name="beer-outline"
      unicode="&#xEA95;"
      horiz-adv-x="128" d="M88 78V18A10.03 10.03 0 0 0 78 8H34A10.03 10.03 0 0 0 24 18V72M88 72H98A14.04 14.04 0 0 0 112 58V38A14.04 14.04 0 0 0 98 24H88M56 64V24M72 64V24M40 64V24M80 100A12 12 0 0 0 80 76C76.6875 76 72.6725 77.8275 70.5 80H40C38 74.5 33.25 72 28 72A12 12 0 0 0 28 96A11.9775 11.9775 0 0 0 34.5 93.75M22.965 94.8925A10 10 0 1 0 38.08 107.8925S40 105.25 40 104M36.4575 111.8225C40.805 116.7775 46.8925 120 54 120C67.095 120 77.5 109.29 77.5 96.1975A23.75 23.75 0 0 0 77.0825 91.75" />
    <glyph glyph-name="beer-sharp"
      unicode="&#xEA96;"
      horiz-adv-x="128" d="M112.000182808296 76H92.000182808296V77.435A15.9825 15.9825 0 0 1 80.412682808296 104A27.75 27.75 0 0 1 73.515182808296 115.8225A27.155 27.155 0 0 1 54.000182808296 124C46.522682808296 124 39.555182808296 120.93 34.250182808296 115.3325A14 14 0 0 1 17.372682808296 95.955C17.122682808296 95.74 16.895182808296 95.52 16.665182808296 95.29A15.89 15.89 0 0 1 12.000182808296 83.935A15.6625 15.6625 0 0 1 17.192682808296 72.3A16.25 16.25 0 0 1 20.000182808296 70.25V8A4 4 0 0 1 24.000182808296 4H88.000182808296A4 4 0 0 1 92.000182808296 8V20H112.000182808296A4 4 0 0 1 116.000182808296 24V72A4 4 0 0 1 112.000182808296 76zM44.000182808296 20H36.000182808296V68H44.000182808296zM60.000182808296 20H52.000182808296V68H60.000182808296zM76.000182808296 20H68.000182808296V68H76.000182808296zM80.000182808296 80C77.917682808296 80 74.862682808296 81.295 73.327682808296 82.8275L72.157682808296 84H37.197682808296L36.250182808296 81.3675C34.797682808296 77.3675 31.542682808296 76.265 29.067682808296 76.045A8.52 8.52 0 0 0 22.590182808296 78.2125A7.75 7.75 0 0 0 20.010182808296 83.9625A7.95 7.95 0 0 0 22.342682808296 89.64C22.382682808296 89.6825 22.425182808296 89.72 22.467682808296 89.7625A7.945 7.945 0 0 0 28.000182808296 92C28.022682808296 92 30.280182808296 91.915 32.100182808296 90.55L35.300182808296 88.15L40.100182808296 94.55L36.900182808296 96.95A15.9225 15.9225 0 0 1 28.000182808296 100A16.1975 16.1975 0 0 1 24.500182808296 99.6125A6 6 0 0 0 34.850182808296 105.5325L34.907682808296 105.445L35.007682808296 105.33A8.945 8.945 0 0 0 36.257682808296 103.095L37.662682808296 99.345L45.162682808296 102.155L43.757682808296 105.905A17.05 17.05 0 0 1 41.257682808296 110.34C41.162682808296 110.47 41.060182808296 110.59 40.960182808296 110.7175C44.595182808296 114.1375 49.160182808296 116 54.000182808296 116A19.215 19.215 0 0 0 67.807682808296 110.205A20.05 20.05 0 0 0 73.152682808296 92.5L72.402682808296 88.57L80.260182808296 87.07L81.010182808296 91A27.945 27.945 0 0 1 81.500182808296 95.8575A8 8 0 0 0 80.000182808296 80zM108.000182808296 28H92.000182808296V68H108.000182808296z" />
    <glyph glyph-name="bicycle"
      unicode="&#xEA97;"
      horiz-adv-x="128" d="M97 16A23 23 0 1 0 120 39A23.025 23.025 0 0 0 97 16zM97 54A15 15 0 1 1 112 39A15.0175 15.0175 0 0 1 97 54zM31 16A23 23 0 1 0 54 39A23.025 23.025 0 0 0 31 16zM31 54A15 15 0 1 1 46 39A15.0175 15.0175 0 0 1 31 54zM80 96A7.9725 7.9725 0 0 1 88 104.025A7.8875 7.8875 0 0 1 80.05 112A8 8 0 1 1 80 96zM91.8875 80H80.9475A1 1 0 0 0 80.07 80.52L72.135 95.0625A7.75 7.75 0 0 1 59.79 97L42.325 79.4A8.14 8.14 0 0 1 40 73.8C40 69.45 43.15 67.9 44.625 67.025C51.75 62.92 56.7675 59.9175 59.52 58.25A1 1 0 0 0 60 57.3975V40.1175C60 37.965 61.655 36.1175 63.8075 36.01A4 4 0 0 1 68 40V61.5A4 4 0 0 1 66.335 64.75L57.085 71.4025A1 1 0 0 0 56.94 72.9025L67.44 84.1A1 1 0 0 0 69.045 83.9025L74.5 74.0575A4 4 0 0 1 78 72H92A4 4 0 0 1 96 76.1925C95.895 78.345 94.04 80 91.8875 80z" />
    <glyph glyph-name="bicycle-outline"
      unicode="&#xEA98;"
      horiz-adv-x="128" d="M97 56A19 19 0 1 1 116 37A19.06 19.06 0 0 1 97 56zM31 56A19 19 0 1 1 50 37A19.06 19.06 0 0 1 31 56zM64 38V59.5L48 70L68 92L78 74H92M80 94A7.9725 7.9725 0 0 1 88 102.025A7.8875 7.8875 0 0 1 80.05 110A8 8 0 1 1 80 94z" />
    <glyph glyph-name="bicycle-sharp"
      unicode="&#xEA99;"
      horiz-adv-x="128" d="M80 80L72.625 95.025C71.08 98.5 71.08 98.5 66 98.5C62.685 98.5 62.31 98.5 60.25 96.675L42.325 79.4C40.25 77.2875 40 77.0375 40 72.75C40 69.5825 40.945 69.0975 44.6275 67.025L60 58.5V36H68V64.5S60.75 68.75 55.925 72L68.15 84.875C72.825 77.75 74.975 72 77.65 72H96V80zM97 16A23 23 0 1 0 120 39A23.025 23.025 0 0 0 97 16zM97 54A15 15 0 1 1 112 39A15.0175 15.0175 0 0 1 97 54zM31 16A23 23 0 1 0 54 39A23.025 23.025 0 0 0 31 16zM31 54A15 15 0 1 1 46 39A15.0175 15.0175 0 0 1 31 54zM80 96A7.9725 7.9725 0 0 1 88 104.025A7.8875 7.8875 0 0 1 80.05 112A8 8 0 1 1 80 96z" />
    <glyph glyph-name="bluetooth"
      unicode="&#xEA9A;"
      horiz-adv-x="128" d="M97.0469750787756 87.8075A5 5 0 0 1 95.5844750787756 91.535L67.5844750787756 119.535A5 5 0 0 1 59.0469750787756 116V74.87L39.2969750787756 91.7975A5 5 0 0 1 32.7969750787756 84.2025L56.3644750787756 64L32.7969750787756 43.7975A5 5 0 1 1 39.2969750787756 36.2025L59.0469750787756 53.13V12A5 5 0 0 1 67.5819750787756 8.465L95.5819750787756 36.465A5 5 0 0 1 95.2969750787756 43.7975L71.7294750787756 64L95.2969750787756 84.2025A5 5 0 0 1 97.0469750787756 87.8075zM84.6919750787756 39.7175L69.0469750787756 24.07V53.1275zM69.0469750787756 74.87V103.93L84.6944750787756 88.2825z" />
    <glyph glyph-name="bluetooth-outline"
      unicode="&#xEA9B;"
      horiz-adv-x="128" d="M36 40L92 88L64 116V12L92 40L36 88" />
    <glyph glyph-name="bluetooth-sharp"
      unicode="&#xEA9C;"
      horiz-adv-x="128" d="M99.20125 87.7175L58.84875 128.07V74.87L35.30625 95.05L28.80625 87.4575L56.16625 64L28.79875 40.5425L35.29875 32.95L58.84875 53.13V-0.07L99.20125 40.2825L71.53125 64zM68.84875 103.93L84.49625 88.2825L68.84875 74.87zM84.49375 39.7175L68.84875 24.07V53.13z" />
    <glyph glyph-name="boat"
      unicode="&#xEA9D;"
      horiz-adv-x="128" d="M104.0026293838116 9.715A1.7075 1.7075 0 0 1 103.1101293838116 11.215C96.3426293838116 14.8525 90.1701293838116 20.42 87.4551293838116 23.215A2.5125 2.5125 0 0 1 84.2751293838116 23.5925C71.6926293838116 15.4875 56.3726293838115 15.4825 43.7876293838116 23.58A2.5225 2.5225 0 0 1 40.5826293838116 23.19C37.8901293838116 20.37 31.7851293838116 14.865 24.9751293838116 11.2525A1.7775 1.7775 0 0 1 24.0026293838116 9.82A1.6825 1.6825 0 0 1 25.9826293838116 8.0325C31.1951293838116 9.0775 36.2326293838116 11.4525 41.0326293838116 13.99A2.1775 2.1775 0 0 0 43.0326293838116 14.005A46.285 46.285 0 0 1 84.9851293838116 14.005A2.205 2.205 0 0 0 87.0076293838116 13.99C91.7826293838116 11.49 96.8126293838116 9.0925 102.0076293838116 8.04A1.6825 1.6825 0 0 1 104.0076293838116 9.7175zM119.1801293838116 66.2725C118.3076293838116 68.37 116.4551293838116 69.995 113.9551293838116 70.86L108.0026293838116 73.23V94A16 16 0 0 1 92.0026293838116 110H84.0026293838116V112A10 10 0 0 1 74.0026293838116 122H54.0026293838116A10 10 0 0 1 44.0026293838116 112V110H36.0026293838116A16 16 0 0 1 20.0026293838116 94V73.2125L14.1076293838116 70.865C11.6226293838116 70.04 9.7001293838116 68.365 8.8201293838116 66.255C8.2076293838116 64.7825 7.5076293838116 62.505 8.4951293838116 59.64L8.5201293838116 59.565L20.1851293838116 29.705A5.8325 5.8325 0 0 1 25.6476293838116 26C25.7726293838116 26 25.8976293838116 26 26.0301293838116 26.0125C33.8601293838116 26.5125 40.0301293838116 30.33 44.1801293838116 33.915C50.1076293838116 28.7975 57.0801293838116 26 64.0026293838116 26S77.8601293838116 28.8 83.7876293838116 33.925C87.9351293838115 30.335 94.1126293838116 26.5075 101.9401293838116 26.0125A5.84 5.84 0 0 1 107.7826293838116 29.6975L119.4451293838116 59.4475C120.2651293838116 61.47 120.1701293838116 63.8875 119.1801293838116 66.2725zM67.2526293838116 89.4475L66.9676293838116 89.5475A9.8825 9.8825 0 0 1 61.0351293838116 89.5475L60.8901293838116 89.5025L29.3726293838116 76.945A1 1 0 0 0 28.0026293838116 77.875V94A8 8 0 0 0 36.0026293838116 102H92.0026293838116A8 8 0 0 0 100.0026293838116 94V77.89A1 1 0 0 0 98.6326293838116 76.96z" />
    <glyph glyph-name="boat-outline"
      unicode="&#xEA9E;"
      horiz-adv-x="128" d="M115.477403785464 62.7375C114.977403785464 63.9275 113.799903785464 64.695 112.559903785464 65.11L65.764903785464 83.73A5.945 5.945 0 0 1 62.222403785464 83.73L15.472403785464 65.1C14.222403785464 64.71 13.014903785464 63.9075 12.519903785464 62.7175S11.784903785464 60.375 12.269903785464 58.9475L23.902403785464 29.16A1.865 1.865 0 0 1 25.769903785464 28C32.442403785464 28.42 38.347403785464 31.8075 42.864903785464 36.125A1.915 1.915 0 0 0 45.487403785464 36.125C50.317403785464 31.5 56.744903785464 28 63.994903785464 28S77.634903785464 31.5 82.464903785464 36.135A1.9175 1.9175 0 0 0 85.089903785464 36.135C89.607403785464 31.815 95.512403785464 28.42 102.184903785464 28A1.8625 1.8625 0 0 1 104.049903785464 29.1525L115.724903785464 58.9425C116.219903785464 60.1375 115.972403785464 61.545 115.477403785464 62.7375zM103.994903785464 9.715A1.71 1.71 0 0 1 103.104903785464 11.215C96.334903785464 14.8525 90.162403785464 20.42 87.447403785464 23.215A2.5125 2.5125 0 0 1 84.267403785464 23.5925C71.684903785464 15.4875 56.364903785464 15.4825 43.779903785464 23.58A2.5225 2.5225 0 0 1 40.574903785464 23.19C37.882403785464 20.37 31.777403785464 14.865 24.967403785464 11.2525A1.7875 1.7875 0 0 1 23.994903785464 9.82A1.6825 1.6825 0 0 1 25.974903785464 8.0325C31.187403785464 9.0775 36.224903785464 11.4525 41.024903785464 13.99A2.1775 2.1775 0 0 0 43.024903785464 14.005A46.285 46.285 0 0 1 84.994903785464 14A2.205 2.205 0 0 0 87.017403785464 13.985C91.792403785464 11.485 96.822403785464 9.0875 102.017403785464 8.035A1.68 1.68 0 0 1 104.004903785464 9.7125zM79.994903785464 104V110A6.0175 6.0175 0 0 1 73.994903785464 116H53.994903785464A6.0175 6.0175 0 0 1 47.994903785464 110V104M103.994903785464 69.75V92A12.035 12.035 0 0 1 91.994903785464 104H35.994903785464A12.035 12.035 0 0 1 23.994903785464 92V69M63.994903785464 82.1V28.8875" />
    <glyph glyph-name="boat-sharp"
      unicode="&#xEA9F;"
      horiz-adv-x="128" d="M119.4403927738975 66.395C118.9078927738975 67.895 117.6328927738975 68.7825 116.3003927738975 69.3825L107.9978927738975 72.655V105A5 5 0 0 1 102.9978927738975 110H83.9978927738975V118A4 4 0 0 1 79.9978927738975 122H47.9978927738975A4 4 0 0 1 43.9978927738975 118V110H24.9978927738975A5 5 0 0 1 19.9978927738975 105V72.635L11.7278927738975 69.37C10.3953927738975 68.77 9.0828927738975 67.87 8.5478927738975 66.37S7.7578927738975 63.4175 8.2978927738975 61.62L21.0603927738975 24.075H21.3253927738975C29.8553927738975 24.075 37.3253927738975 28.4275 42.6528927738975 35.03C47.9828927738975 28.4275 55.4478927738975 24.5 63.9778927738975 24.5S79.9778927738975 28.44 85.3053927738975 35.0425C90.6353927738975 28.44 98.1003927738975 24.075 106.6303927738975 24.075H106.8953927738975L119.7078927738975 61.6175C120.2478927738975 63.1175 119.9753927738975 64.8925 119.4403927738975 66.395zM63.9978927738975 90L27.9978927738975 75.7925V101A1 1 0 0 0 28.9978927738975 102H98.9978927738975A1 1 0 0 0 99.9978927738975 101V75.81zM86.3028927738975 26.25C73.2403927738975 17.185 54.7153927738975 17.1875 41.6528927738975 26.25C41.6528927738975 26.25 30.2428927738975 10.5 17.9928927738975 10.5L21.3253927738975 10.25C28.7903927738975 10.25 35.9878927738975 13.1825 42.6528927738975 16.6475A46.3325 46.3325 0 0 1 85.3028927738975 16.6475C91.9678927738975 13.18 99.1653927738975 10.2475 106.6303927738975 10.2475L109.9628927738975 10.4975C98.0503927738975 10.5 86.3028927738975 26.25 86.3028927738975 26.25z" />
    <glyph glyph-name="body"
      unicode="&#xEAA0;"
      horiz-adv-x="128" d="M50 114A14 14 0 0 1 78 114A14 14 0 0 1 50 114M109.25 96H18.75A6.75 6.75 0 0 1 18.75 82.5H44.22C45.9475 82.5 47.97 81.7275 49.115 78.75C50.4525 75.2925 49.7975 68.615 48.9725 63.4425L47.8925 57.33A0.105 0.105 0 0 0 47.8625 57.2425L39.2125 8.04A6.8575 6.8575 0 0 1 44.75 0.105A6.765 6.765 0 0 1 52.605 5.6775L58.5825 39.8775S60.5 48 64 48C67.5575 48 69.435 39.8775 69.435 39.8775L75.4125 5.6475A6.81 6.81 0 1 1 88.8175 8.0475L80.165 57.25A0.1125 0.1125 0 0 1 80.1375 57.3375L79.055 63.45C78.23 68.6225 77.575 75.3 78.9125 78.7575C80.0525 81.7275 82.14 82.5075 83.7325 82.5075H109.25A6.75 6.75 0 0 1 109.25 96.0075z" />
    </font>
</defs>
</svg>
