<svg width="1792" height="1792" xmlns="http://www.w3.org/2000/svg"><path d="M1758.75 672.875Q1792 704.375 1792 749q0 21-7.875 40.25t-22.75 34.125l-69.125 70q-14.875 14.875-34.563 22.75T1617.876 924q-45.5 0-77-33.25L890.75 1540.875q33.25 31.5 33.25 77 0 20.125-7.875 39.813t-22.75 34.562l-70 69.125Q792.75 1792 749.875 1792q-45.5 0-77-33.25l-.875.875q-19.25-20.125-39.375-39.813t-40.25-38.937V1680L390.25 1477.875q-14.875-14.875-27.563-26.25t-24.5-22.75-23.625-23.625-24.937-28q-.875-.875-11.375-21.875l-48.125-96.25L217 1232h-82.25l-39.375 39.375-78.75-78.75L89.25 1120h72.625L35 867.125q-17.5-35-26.25-67.375T0 728q0-24.5 4.375-52.938t13.563-56.437T40.25 565.25t31.5-42.875L525 71.75q17.5-17.5 42.438-31.063t52.5-22.75T675.5 4.376 728 0q39.375 0 71.75 8.75T867.125 35L1120 161.875V89.25l72.625-72.625 78.75 78.75L1232 134.75V217q4.375 1.75 27.125 13.125l96.25 48.125 21.875 11.375q15.75 13.125 28 25.375t23.625 24.063 22.75 24.062 26.25 27.125L1680 592.375h.875q19.25 20.125 38.938 40.25T1759.624 672zM672 1232q0-23.625-8.75-43.75t-24.063-35.438-35.437-24.062T560 1120t-43.75 8.75-35.438 24.063-24.062 35.437T448 1232t8.75 43.75 24.063 35.438 35.437 24.062T560 1344t43.75-8.75 35.438-24.063 24.062-35.437T672 1232zm560-560q23.625 0 43.75-8.75t35.438-24.063 24.062-35.437T1344 560t-8.75-43.75-24.063-35.438-35.437-24.062T1232 448t-43.75 8.75-35.438 24.063-24.062 35.437T1120 560t8.75 43.75 24.063 35.438 35.437 24.062T1232 672zm-84 196l-280 280 56 168 392-392zM112 728q0 25.375 5.25 44.625t16.625 42L239.75 1025.5l785.75-785.75L812.875 133q-21-10.5-41.125-15.75T728 112q-14.875 0-32.375 2.625t-35.438 8.313T626.5 136.5t-26.25 18.375l-445.375 442.75q-10.5 10.5-18.813 26.688T122.5 658.875t-7.875 36.313T112 728z"/></svg>