<svg width="64" height="64" viewBox="0 0 1792 1792" xmlns="http://www.w3.org/2000/svg"><path d="M896 0q123.375 0 238 31.938t214.375 90.124 181.563 140 140 181.563T1760.062 658 1792 896q0 48.125-9.188 100.188t-27.562 101.937-46.375 94.5-65.188 78.313-84.437 53.374T1456 1344q-47.25 0-92.313-12.688T1280.126 1295t-70.438-57.75-52.937-77q-26.25 41.125-60.375 74.813T1022 1293.25t-86.188 37.625T840 1344q-89.25 0-161.875-38.938t-123.813-101.937-78.75-143.5T448 896t27.563-163.625 78.75-143.5 123.812-101.938T840 448q83.125 0 154.438 35.875t125.562 98V448h112v560q0 46.375 17.5 87.063t48.125 71.312 71.313 48.125T1456 1232q38.5 0 70.438-16.188t56.874-42.874 43.313-61.25 30.188-72.188 17.5-74.813T1680 896q0-107.625-28-207.813t-79.188-187.25-122.937-158.812-158.813-122.938T1103.813 140 896 112t-207.813 28-187.25 79.188-158.812 122.937-122.938 158.813T140 688.188 112 896t28 207.813 79.188 187.25 122.937 158.812 158.813 122.938T687.75 1652 896 1680q155.75 0 300.125-59.5L1239 1723.75q-82.25 34.125-168.438 51.188T896 1792q-123.375 0-238-31.938t-214.375-90.124-181.563-140-140-181.563-90.124-213.938T0 896q0-123.375 31.938-238t90.124-214.375 140-181.563 181.563-140 213.938-90.124T896 0zm-56 1232q65.625 0 117.688-30.188t87.937-78.312 55.125-108.063T1120 896t-19.25-119.438-55.125-108.062-87.938-78.313T840 560t-117.688 30.188-87.937 78.312-55.125 108.063T560 896t19.25 119.438 55.125 108.062 87.938 78.313T840 1232z"/></svg>