<svg width="1792" height="1792" xmlns="http://www.w3.org/2000/svg"><path d="M1456 1014.125q71.75 10.5 133.438 44.625t106.75 85.75 70.437 117.25T1792 1400q0 81.375-30.625 152.688t-84 124.687-124.688 84T1400 1792q-64.75 0-124.688-20.563t-108.937-57.312-85.313-88.375-54.687-113.75H1064q81.375 0 152.688-31.063t124.25-84 84-124.25T1456 1120v-105.875zM1400 1680q57.75 0 108.938-21.875t89.25-59.938 59.937-89.25T1680 1400q0-68.25-29.75-126.438t-84.875-98.437q-8.75 75.25-38.5 143.5t-76.125 123.813-108.063 97.124T1208.376 1603q42 37.625 88.813 57.313T1400 1680zM1792 0v1083.25q-35.875-44.625-80.063-79.625t-94.5-58.625T1512 908.687 1400 896h-56v224q0 57.75-22.313 108.938t-60.374 89.25-88.813 59.937T1064 1400H896q0 79.625 24.5 155.313t71.75 140.437L896 1792l-336-336H0V0h1792zm-784 1008H336v112h672v-112zm448-336H336v112h1120V672zm0-336H336v112h1120V336z"/></svg>