<svg width="64" height="64" viewBox="0 0 1792 1792" xmlns="http://www.w3.org/2000/svg"><path d="M1792 0v1040.375q-24.5-27.125-52.938-50.313T1680 947.625V112H112v1232h494.375l369.25 368.375L896 1792l-336-336H0V0h1792zm-352.625 1012.375q74.375 7 139.125 40.25t112 85.313 74.375 119.437T1792 1400q0 81.375-30.625 152.688t-84 124.687-124.688 84T1400 1792q-65.625 0-125.563-21t-109.374-58.188-85.75-89.25-54.688-115.062q9.625.875 19.688 2.188T1064 1512q81.375 0 152.688-31.063t124.25-84 84-124.25T1456 1120q0-28-4.813-54.688t-11.812-52.937zM1400 1680q57.75 0 108.938-21.875t89.25-59.938 59.937-89.25T1680 1400q0-69.125-29.75-126t-84.875-98.875q-8.75 75.25-38.5 143.5t-76.125 124.25T1342.687 1540t-134.312 63q39.375 36.75 88.375 56.875T1400 1680z"/></svg>