<svg width="1792" height="1792" xmlns="http://www.w3.org/2000/svg"><path d="M1792 1456v112h-224v224h-112v-224h-224v-112h224v-224h112v224h224zM910 827.75q83.125 31.5 154.438 83.125t126.437 118.563 91.875 147T1334.375 1344h-113.75q-20.125-98-70.875-180.25T1025.937 1022t-163.624-92.75T672 896q-77 0-148.75 20.125t-133.875 56.438-113.313 87.5-87.5 113.312-56.437 133.875T112 1456H0q0-105 31.063-202.125T119 1074.5t136.938-146.125T434 827.75Q335.125 763 279.562 665T224 448q0-92.75 35-174.563t95.813-142.625T497.438 35 672 0t174.563 35 142.625 95.813T1085 273.438 1120 448q0 57.75-14.438 112.875T1064 665t-66.063 90.563T910 827.75zM336 448q0 70 26.25 130.813t72.188 106.75 106.75 72.187T672 784q69.125 0 130.375-26.25t107.188-72.188 72.187-106.75T1008 448q0-69.125-26.25-130.375t-72.188-107.188-107.187-72.187T672 112q-70 0-130.813 26.25t-106.75 72.188-72.187 107.187T336 448z"/></svg>