<svg width="64" height="64" viewBox="0 0 1792 1792" xmlns="http://www.w3.org/2000/svg"><path d="M952 840h280v112H952v280H840V952H560V840h280V560h112v280zm-56-728q108.5 0 208.688 28t187.25 79.188 158.374 122.5 122.5 158.375T1652 687.313 1680 896t-28 208.688-79.188 187.25-122.5 158.374-158.374 122.5-187.25 79.188T896 1680t-208.688-28-187.25-79.188-158.375-122.5-122.5-158.374T140 1104.688 112 896t28-208.688 79.188-187.25 122.5-158.375 158.375-122.5T687.313 140 896 112zm0 1456q92.75 0 178.5-24.063t160.563-67.812 136.062-105 105-136.063 67.813-160.562T1568 896t-24.063-178.5-67.812-160.563-105-136.062-136.063-105-160.562-67.813T896 224t-178.5 24.063-160.563 67.812-136.062 105-105 136.063T248.062 717.5 224 896t24.063 178.5 67.812 160.563 105 136.062 136.063 105 160.562 67.813T896 1568z"/></svg>