<svg width="64" height="64" viewBox="0 0 1792 1792" xmlns="http://www.w3.org/2000/svg"><path d="M1680 672h-112v560h112v336h-336v-105l-336 167.125V1792H672v-161.875L336 1463v105H0v-336h112V672H0V336h322.875L672 161.875V0h336v161.875L1357.125 336H1680v336zm-224-224v112h112V448h-112zM784 112v112h112V112H784zm224 224H672v-49.875L336 455v42.875L672 665V560h336v105l336-167.125V455l-336-168.875V336zM784 784h112V672H784v112zM112 448v112h112V448H112zm112 1008v-112H112v112h112zm112-119l336 168.875V1456h112V896H672V791L336 622.125V672H224v560h112v105zm560 343v-112H784v112h112zm672-224v-112h-112v112h112zm-112-224V672h-112v-49.875L1008 791v105H896v560h112v49.875L1344 1337v-105h112z"/></svg>