<svg width="64" height="64" viewBox="0 0 1792 1792" xmlns="http://www.w3.org/2000/svg"><path d="M112 1008h560v112H0V224h1568v360.5q-28.875-9.625-55.563-25.375T1456 532V336H112v672zm1176-336q51.625 0 94.5 12.25t87.5 37.625q37.625 21.875 77 34.125t79.625 18.375 81.813 7.875T1792 784v347.375q0 77-20.125 146.125t-55.563 130.813-83.562 115.937-104.125 101.063-117.25 87.062-123.375 73.5q-62.125-33.25-123.375-73.5t-117.25-87.063T943.25 1524.25t-83.563-115.938-55.562-130.812T784 1131.375V784q42.875 0 83.563-1.75t80.5-7.875T1026.374 756t77-34.125Q1148 696.5 1191.75 684.25T1288 672zm392 222.25q-8.75-.875-31.938-4.375t-52.5-9.625-61.687-14-59.5-16.188T1429.312 833t-18.812-16.625q-27.125-17.5-58.625-24.938T1288 784q-33.25 0-64.75 7.875t-59.5 24.5q-.875 0-1.313 1.313t-1.312.437q-60.375 35-128.188 53.375T896 894.25v237.125q0 90.125 34.125 168t89.688 143.5 126 119T1288 1657.25q71.75-42 142.188-95.375t126-119 89.687-143.5 34.125-168V894.25z"/></svg>