<svg width="1792" height="1792" xmlns="http://www.w3.org/2000/svg"><path d="M1568 672q45.5 0 86.625 17.938t71.313 48.125 48.124 71.312T1792 896q0 46.375-17.938 87.063t-48.124 70.875-71.313 48.124T1568 1120h-392l-336 672H448l224-672H448l-56 112H0l112-336L0 560h392l56 112h224L448 0h392l336 672h392zm0 336q23.625 0 43.75-8.75t35.438-24.063 24.062-35.437T1680 896t-8.75-43.75-24.063-35.438-35.437-24.062T1568 784h-461.125Q1020.25 616 938 448.437T770.875 112H603.75q56 168.875 111.125 336.438T827.75 784H378.875l-56-112H155.75q18.375 56 36.313 112t38.062 112Q210 952 192.062 1008t-36.312 112h167.125l56-112H827.75Q770 1176 714.875 1343.563T603.75 1680h167.125Q855.75 1511.125 938 1343.562T1106.875 1008H1568z"/></svg>