<svg width="1792" height="1792" xmlns="http://www.w3.org/2000/svg"><path d="M1792 1232V896h-335.979v336H1792zm-111.991-224v112h-111.993v-112h111.993zM1792 784V448h-335.979v336H1792zm-111.991-224v112h-111.993V560h111.993zM1792 336V0h-335.979v336H1792zm-111.991-224v112h-111.993V112h111.993zm-447.974 560V560H224.096v112h1007.939zm-783.953 336v112h783.953v-112H448.082zm783.953-896H.114v112h1231.921V112zM1792 1680v-336h-335.979v336H1792zm-111.991-224v112h-111.993v-112h111.993zm-447.974 112v-112H224.096v112h1007.939z"/></svg>