<svg width="1792" height="1792" viewBox="0 0 1792 1792" xmlns="http://www.w3.org/2000/svg"><path d="M975.625 896H1568l-112 112H863.625l-274.75 273.875q39.375 31.5 61.25 77.438T672 1456q0 46.375-17.938 87.063t-48.125 70.874-71.312 48.126T448 1680q-46.375 0-87.063-17.938t-70.875-48.124-48.125-70.876T224 1456q0-45.5 17.938-86.625t48.125-71.313 70.875-48.124T448 1232l30.625 1.75L704.375 1008H418.25q-30.625 51.625-82.25 81.813T224 1120q-46.375 0-87.063-17.938t-70.875-48.124-48.124-70.876T0 896q0-45.5 17.938-86.625t48.124-71.313 70.876-48.125T224 672q45.5 0 86.625 17.938t71.313 48.125 48.125 71.312T448 896h368.375l448-448h159.25zM224 1008q23.625 0 43.75-8.75t35.438-24.063 24.062-35.437T336 896t-8.75-43.75-24.063-35.438-35.437-24.062T224 784t-43.75 8.75-35.438 24.063-24.062 35.437T112 896t8.75 43.75 24.063 35.438 35.437 24.062T224 1008zm224 560q23.625 0 43.75-8.75t35.438-24.063 24.062-35.437T560 1456t-8.75-43.75-24.063-35.438-35.437-24.062T448 1344t-43.75 8.75-35.438 24.063-24.062 35.437T336 1456t8.75 43.75 24.063 35.438 35.437 24.062T448 1568zM1680 224h112v112h-112V224zM1792 0v112h-112V0h112zm-336 0h112v112h-112V0zm-112 112h-112V0h112v112zm-224 0h-112V0h112v112zm-224 0H784V0h112v112zm-224 0H560V0h112v112zm-224 0H336V0h112v112zm0 224H336V224h112v112zm0 224H336V448h112v112zm1232-112h112v112h-112V448zm0 224h112v112h-112V672zm0 224h112v112h-112V896zm0 224h112v112h-112v-112zm0 224h112v112h-112v-112zm-224 0h112v112h-112v-112zm-224 0h112v112h-112v-112zm-224 0h112v112h-112v-112zm-224 0h112v112H784v-112z"/></svg>