<svg width="1792" height="1792" xmlns="http://www.w3.org/2000/svg"><path d="M0 336V224h112v112H0zm0 224V448h112v112H0zm0 224V672h112v112H0zm0 224V896h112v112H0zm0 448v-112h112v112H0zM224 336V224h112v112H224zm0 1120v-112h112v112H224zm1456 0v-112h112v112h-112zM0 1232v-112h112v112H0zm1680 0v-112h112v112h-112zm0-224V896h112v112h-112zm0-224V672h112v112h-112zm0-224V448h112v112h-112zm0-336h112v112h-112V224zm-224 1232v-112h112v112h-112zm0-1120V224h112v112h-112zM448 1456V224h896v1232H448zM560 336v1008h672V336H560z"/></svg>