<svg width="1792" height="1792" xmlns="http://www.w3.org/2000/svg"><path d="M1344 336v1064q0 81.375-31.063 152.688t-84 124.25-124.25 84T952 1792t-152.688-31.063-124.25-84-84-124.25T560 1400V280q0-57.75 22.313-108.5t60.375-88.813T731.5 22.313 840 0t108.5 22.313 88.813 60.374 60.374 88.813T1120 280v1120q0 35-13.125 65.625T1071 1519t-53.375 35.875T952 1568t-65.625-13.125T833 1519t-35.875-53.375T784 1400V448h112v952q0 22.75 16.625 39.375T952 1456t39.375-16.625T1008 1400V280q0-35-13.125-65.625T959 161t-53.375-35.875T840 112t-65.625 13.125T721 161t-35.875 53.375T672 280v1120q0 57.75 22.313 108.5t60.375 88.813 88.812 60.374T952 1680t108.5-22.313 88.813-60.374 60.374-88.813T1232 1400V336h112z"/></svg>