<svg width="1792" height="1792" xmlns="http://www.w3.org/2000/svg"><path d="M560 1036q0 44.625-19.25 80.938T490 1179.062t-71.75 39.376T336 1232t-82.25-13.563-71.75-39.374-50.75-62.126T112 1036t19.25-80.938T182 892.938t71.75-39.375T336 840q28.875 0 57.75 6.563T448 866.25V112h112q0 56 24.938 100.625t66.937 80.5q61.25 52.5 96.688 118.563T784 560H672q0-55.125-24.938-101.063t-66.937-80.062l-10.5-8.75-9.625-8.75V1036zm-224 84q17.5 0 37.188-5.25T409.5 1099t27.563-26.25T448 1036t-10.938-36.75T409.5 973t-36.313-15.75T336 952t-37.188 5.25T262.5 973t-27.563 26.25T224 1036t10.938 36.75T262.5 1099t36.313 15.75T336 1120zm1344 252q0 44.625-19.25 80.938t-50.75 62.124-71.75 39.376T1456 1568t-82.25-13.563-71.75-39.374-50.75-62.126T1232 1372t19.25-80.938 50.75-62.124 71.75-39.376T1456 1176q28.875 0 57.75 6.563t54.25 19.687v-584.5l-560 140V1484q0 44.625-19.25 80.938T938 1627.062t-71.75 39.376T784 1680t-82.25-13.563-71.75-39.374-50.75-62.126T560 1484t19.25-80.938 50.75-62.124 71.75-39.376T784 1288q28.875 0 57.75 6.563T896 1314.25v-644l784-196V1372zm-896 196q17.5 0 37.188-5.25T857.5 1547t27.563-26.25T896 1484t-10.938-36.75T857.5 1421t-36.313-15.75T784 1400t-37.188 5.25T710.5 1421t-27.563 26.25T672 1484t10.938 36.75T710.5 1547t36.313 15.75T784 1568zm672-112q17.5 0 37.188-5.25T1529.5 1435t27.563-26.25T1568 1372t-10.938-36.75T1529.5 1309t-36.313-15.75T1456 1288t-37.188 5.25T1382.5 1309t-27.563 26.25T1344 1372t10.938 36.75T1382.5 1435t36.313 15.75T1456 1456z"/></svg>