<svg width="1792" height="1792" viewBox="0 0 1792 1792" xmlns="http://www.w3.org/2000/svg"><path d="M1568 672v672q0 .875 7.875 24.063t19.688 58.624l25.812 77.438 26.25 79.188 21.438 63.874L1680 1680H0q1.75-6.125 10.938-32.813t21.437-63.874 26.25-79.188l25.813-77.438 19.687-58.624L112 1344V672H0V560l840-420 840 420v112h-112zM250.25 560h1179.5L840 265.125zM1344 672v672h112V672h-112zm-224 0v672h112V672h-112zm-224 0v672h112V672H896zm-224 0v672h112V672H672zm-224 0v672h112V672H448zm-224 672h112V672H224v672zm1300.25 224l-36.75-112h-1295l-36.75 112h1368.5z"/></svg>