<svg width="1792" height="1792" xmlns="http://www.w3.org/2000/svg"><path d="M1680 560q0 51.625-15.75 100.188t-43.75 90.125-68.25 73.5-88.375 50.312l170.625 850.5q.875 3.5.875 9.625 0 23.625-15.75 40.688t-40.25 17.062H952q-22.75 0-39.375-16.625T896 1736t16.625-39.375T952 1680h111.125L973 1232H658q-22.75 0-39.375-16.625T602 1176q0-15.75 10.938-30.188T637 1113t24.063-43.313T672 1008V840.875L386.75 784q-9.625-1.75-16.625-6.563t-14-11.812q-63-70.875-96.688-161.438T225.75 419.125q0-49.875 9.625-99.75t28.438-96.688T309.75 133t62.125-77.875q17.5-17.5 41.125-17.5 10.5 0 35.875 4.813t54.25 10.5 55.563 11.812T598.5 73.5L1455.125 245q49 9.625 90.125 35t71.313 62.125 46.812 82.25T1680 519.75V560zm-112-40.25q0-29.75-10.063-56.875t-28-49-42.874-37.188-53.813-21.437L643.125 196.875Q609 245 588 300.125t-25.375 113.75L1561 613.375q7-28 7-53.375v-40.25zM433.125 154.875q-46.375 56-70.875 123.813t-24.5 139.562q0 70.875 23.625 137.813t67.375 122.062l78.75 15.75q-28-56.875-42.875-119T449.75 449.75q0-73.5 19.25-143.5t56-133zm518 965.125L904.75 887.25 784 863.625q0 32.375 1.313 64.75t0 64.75-6.125 64.313T762.125 1120h189zm392-285.25q0-21 12.25-35.875t32.375-19.25q34.125-7.875 62.125-22.75t53.375-40.25l-935.375-187.25q9.625 54.25 33.25 103.25t57.75 91.875l304.5 60.375q16.625 3.5 28.438 15.313t15.312 28.437L1176.875 1680h334.25L1344 845.25q-.875-3.5-.875-10.5z"/></svg>