<svg width="1792" height="1792" viewBox="0 0 1792 1792" xmlns="http://www.w3.org/2000/svg"><path d="M1624 952v112h-56v280H336v-56h1176V728H427.875q-7-16.625-16.625-28.438t-21-25.812l-.875-1.75H1568v280h56zM391.125 812q0 24.5-8.313 47.25t-23.187 41.125-35 31.5-44.625 17.5V1344h-56V949.375q-24.5-4.375-45.063-17.5t-35.437-31.5-23.188-41.125T112 812q0-28 10.5-53.375t30.625-45.5L252 614.25l98.875 98.875q20.125 20.125 30.188 45.5T391.125 812zM168 812q0 26.25 15.313 48.563T224 890.75V784h56v106.75q25.375-7.875 40.688-30.188T336 812q0-35-24.5-59.5L252 693l-59.5 59.5Q168 777 168 812zm168 176.75q50.75-24.5 81.375-72.188T448 812v-28h448v448H336V988.75z"/></svg>