<svg width="64" height="64" viewBox="0 0 1792 1792" xmlns="http://www.w3.org/2000/svg"><path d="M1043 699.125q67.375 23.625 122.938 65.625t94.937 97.125 61.25 120.75T1344 1120q0 92.75-35.438 174.125t-96.25 142.188-142.187 96.25T896 1568q-59.5 0-115.938-16.188T672 1505.876V1792H448V224q0-46.375 17.5-87.063t48.125-71.312T584.938 17.5 672 0q92.75 0 174.125 35.438t142.188 96.25 96.25 142.187T1120 448q0 67.375-19.688 131.25T1043 699.125zM896 448q0-46.375-17.5-87.063t-48.125-71.312-71.313-48.125T672 224v448q46.375 0 87.063-17.5t71.312-48.125 48.125-71.313T896 448zm0 896q46.375 0 87.063-17.5t71.312-48.125 48.125-71.313T1120 1120t-17.5-87.063-48.125-71.312-71.313-48.125T896 896H672v224q0 46.375 17.5 87.063t48.125 71.312 71.313 48.125T896 1344z"/></svg>