<svg width="64" height="64" viewBox="0 0 1792 1792" xmlns="http://www.w3.org/2000/svg"><path d="M112 425.25L694.75 1008 112 1590.75V425.25zm112 896L537.25 1008 224 694.75v626.5zM1568 224v1344h112v112h-560v-112h112V896h-168q-81.375 0-152.688-30.625t-124.687-84-84-124.688T672 504t30.625-152.688 84-124.687 124.688-84T1064 112h616v112h-112zm-336 560V224h-168q-57.75 0-108.938 22.313t-89.25 60.375-59.937 88.812T784 504t21.875 108.938 59.938 89.25 89.25 59.937T1064 784h168zm224 784V224h-112v1344h112z"/></svg>