<svg width="1792" height="1792" xmlns="http://www.w3.org/2000/svg"><path d="M1138.375 971.25q-23.625 14.875-45.938 31.063T1050 1038.624q-77.875-70-175.438-106.313T672 896q-117.25 0-219.625 43.313t-178.063 119-119 178.062T112 1456H0q0-105 30.625-203t87.5-180.688 136.938-145.687 179.812-99.75q-48.125-30.625-87.063-72.188t-66.5-90.562-42.437-103.688T224 448q0-92.75 35.438-174.125t96.25-142.188 142.187-96.25T672 0t174.125 35.438 142.188 96.25 96.25 142.187T1120 448q0 57.75-14.875 112.438t-42.438 103.687-66.5 90.563-87.062 72.187q64.75 22.75 122.063 59.938t107.187 84.437zM336 448q0 69.125 26.688 130.375t72.187 106.75 106.75 72.188T672 784t130.375-26.688 106.75-72.187 72.188-106.75T1008 448t-26.688-130.375-72.187-106.75-106.75-72.188T672 112t-130.375 26.688-106.75 72.187-72.188 106.75T336 448zm1064 560q81.375 0 152.688 31.063t124.25 84 84 124.25T1792 1400t-31.063 152.688-84 124.25-124.25 84T1400 1792t-152.688-31.063-124.25-84-84-124.25T1008 1400t31.063-152.688 84-124.25 124.25-84T1400 1008zm0 672q41.125 0 80.5-11.813t73.5-34.562L1166.375 1246q-22.75 34.125-34.563 73.5T1120 1400q0 57.75 22.313 108.5t60.374 88.813 88.813 60.374T1400 1680zm233.625-126q22.75-34.125 34.563-73.5T1680 1400q0-57.75-22.313-108.5t-60.374-88.813-88.813-60.374T1400 1120q-41.125 0-80.5 11.813t-73.5 34.562z"/></svg>