<svg width="1792" height="1792" viewBox="0 0 1792 1792" xmlns="http://www.w3.org/2000/svg"><path d="M1036 840q86.625 0 163.188 32.813t133.874 90.125 90.126 133.875T1456 1260t-32.813 163.188-90.124 133.874-133.876 90.126T1036 1680H336V112h700q75.25 0 141.75 28.438t115.938 77.875 77.874 115.937T1400 476t-28.438 141.75-77.874 115.938-115.938 77.875T1036 840zm-364-56h168q45.5 0 86.625-17.938t71.313-48.125 48.125-70.875T1064 560q0-45.5-17.938-86.625t-48.124-71.313-71.313-48.125T840 336H672v448zm224 672q45.5 0 86.625-17.938t71.313-48.124 48.124-70.876T1120 1232q0-45.5-17.938-86.625t-48.124-71.313-71.313-48.124T896 1008H672v448h224z"/></svg>