<svg width="1792" height="1792" viewBox="0 0 1792 1792" xmlns="http://www.w3.org/2000/svg"><path d="M1736 0q22.75 0 39.375 16.625T1792 56t-16.625 39.375l-638.75 638.75q47.25 60.375 71.313 131.25t24.062 147q0 90.125-34.125 172.813t-98 146.562l-59.5 59.5L841.75 1788.5 3.5 950.25l397.25-198.625 59.5-59.5q63.875-63.875 146.563-98T779.625 560q76.125 0 147 24.063t131.25 71.312l638.75-638.75Q1713.25 0 1736 0zM935.375 1350.125l-493.5-493.5L192.5 980.875 811.125 1599.5zm72.625-85.75q53.375-52.5 82.688-114.188T1120 1012.375q0-70.875-26.688-132.563T1020.25 771.75t-108.063-73.063T779.625 672q-76.125 0-137.813 28.875T527.625 784z"/></svg>