<svg width="1792" height="1792" xmlns="http://www.w3.org/2000/svg"><path d="M224 1232v-224H0V0h1344v224h224v672h-112V336h-112v672H336v112h784v112H224zm1008-336V112H112v784h1120zM224 224h896v560H224V224zm112 448h672V336H336v336zm1176 336q57.75 0 108.5 22.313t88.813 60.374 60.374 88.813T1792 1288t-22.313 108.5-60.374 88.813-88.813 60.374T1512 1568q-41.125 0-80.5-11.813t-73.5-34.562l-266 265.125-78.75-78.75 265.125-266q-22.75-34.125-34.563-73.5T1232 1288q0-57.75 22.313-108.5t60.374-88.813 88.813-60.374T1512 1008zm0 448q35 0 65.625-13.125T1631 1407t35.875-53.375T1680 1288t-13.125-65.625T1631 1169t-53.375-35.875T1512 1120t-65.625 13.125T1393 1169t-35.875 53.375T1344 1288t13.125 65.625T1393 1407t53.375 35.875T1512 1456z"/></svg>