<svg width="1792" height="1792" viewBox="0 0 1792 1792" xmlns="http://www.w3.org/2000/svg"><path d="M1680 560v224h-112v840q0 29.75-3.063 59.938t-14 54.25-33.25 38.937T1456 1792q-21.875 0-46.813.875t-49.874-.875-48.126-7.438-40.687-17.937-28-33.25T1232 1680H448q0 23.625-8.75 43.75t-24.063 35.438-35.437 24.062T336 1792q-60.375 0-103.25-.875t-69.563-15.313-38.937-49T112 1624V784H0V560h112V280q0-35 13.125-65.625T161 161t53.375-35.875T280 112h1120q35 0 65.625 13.125T1519 161t35.875 53.375T1568 280v280h112zm-224 560H224v224h112q0-15.75-.438-35.438t3.938-36.75 16.188-28.437T392 1232t36.313 11.375 16.187 28.438 3.938 36.75T448 1344h784q0-15.75-.438-35.438t3.938-36.75 16.188-28.437T1288 1232t36.313 11.375 16.187 28.438 3.938 36.75T1344 1344h112v-224zm-672-112V560H224v448h560zm672-448H896v448h560V560zM280 224q-22.75 0-39.375 16.625T224 280v168h1232V280q0-22.75-16.625-39.375T1400 224H280zm1176 1344v-112H224v112h1232z"/></svg>