<svg width="64" height="64" viewBox="0 0 1792 1792" xmlns="http://www.w3.org/2000/svg"><path d="M1680 560v224h-112v896q0 23.625-8.75 43.75t-24.063 35.438-35.437 24.062T1456 1792h-112q-23.625 0-43.75-8.75t-35.438-24.063-24.062-35.437T1232 1680H448q0 23.625-8.75 43.75t-24.063 35.438-35.437 24.062T336 1792H224q-23.625 0-43.75-8.75t-35.438-24.063-24.062-35.437T112 1680V784H0V560h112V280q0-35 13.125-65.625T161 161t53.375-35.875T280 112h1120q35 0 65.625 13.125T1519 161t35.875 53.375T1568 280v280h112zM224 1008h560V560H224v448zm224 280q0-22.75-16.625-39.375T392 1232t-39.375 16.625T336 1288v56h112v-56zm1008 168H224v112h1232v-112zm-112-112v-56q0-22.75-16.625-39.375T1288 1232t-39.375 16.625T1232 1288v56h112zm112-784H896v448h560V560z"/></svg>