<svg width="1792" height="1792" viewBox="0 0 1792 1792" xmlns="http://www.w3.org/2000/svg"><path d="M672 336q0 70-26.25 130.813t-72.188 106.75-107.187 72.187T336 672q-70 0-130.813-26.25t-106.75-72.188-72.187-106.75T0 336q0-69.125 26.25-130.375T98.438 98.437t106.75-72.187T336 0q69.125 0 130.375 26.25t107.188 72.188 72.187 107.187T672 336zM336 560q46.375 0 87.063-17.5t71.312-48.125 48.125-71.313T560 336t-17.5-87.063-48.125-71.312-71.313-48.125T336 112t-87.063 17.5-71.312 48.125-48.125 71.313T112 336t17.5 87.063 48.125 71.312 71.313 48.125T336 560zm1008 448q69.125 0 130.375 26.25t107.188 72.188 72.187 107.187T1680 1344q0 70-26.25 130.813t-72.188 106.75-107.187 72.187T1344 1680q-70 0-130.813-26.25t-106.75-72.188-72.187-106.75T1008 1344q0-69.125 26.25-130.375t72.188-107.188 106.75-72.187T1344 1008zm0 560q46.375 0 87.063-17.5t71.312-48.125 48.125-71.313T1568 1344t-17.5-87.063-48.125-71.312-71.313-48.125T1344 1120t-87.063 17.5-71.312 48.125-48.125 71.313T1120 1344t17.5 87.063 48.125 71.312 71.313 48.125T1344 1568zM1323 0L483 1680H357L1197 0h126z"/></svg>