<svg width="64" height="64" viewBox="0 0 1792 1792" xmlns="http://www.w3.org/2000/svg"><path d="M672 784V672h112v112H672zm336 672v-112h112v112h-112zm336-672V672h112v112h-112zm-336 0V672h112v112h-112zm-336 224V896h112v112H672zm-336 0V896h112v112H336zm1008 0V896h112v112h-112zm-336 0V896h112v112h-112zm-336 224v-112h112v112H672zm-336 0v-112h112v112H336zm1008 0v-112h112v112h-112zm-336 0v-112h112v112h-112zm-336 224v-112h112v112H672zm-336 0v-112h112v112H336zM1456 112h336v1568H0V112h336V0h112v112h896V0h112v112zM336 224H112v224h1568V224h-224v112h-112V224H448v112H336V224zM112 1568h1568V560H112v1008z"/></svg>