<svg width="64" height="64" viewBox="0 0 1792 1792" xmlns="http://www.w3.org/2000/svg"><path d="M1120.044 784V672H1008.05v112h111.993zM784.06 1456v-112H672.068v112h111.993zM448.082 784V672H336.09v112h111.993zm335.98 0V672H672.067v112h111.993zm335.982 224V896H1008.05v112h111.993zm335.973 0V896h-111.993v112h111.994zm-1007.935 0V896H336.09v112h111.993zm335.98 0V896H672.067v112h111.993zm335.982 224v-112H1008.05v112h111.993zm335.973 0v-112h-111.993v112h111.994zm-1007.935 0v-112H336.09v112h111.993zm335.98 0v-112H672.067v112h111.993zm335.982 224v-112H1008.05v112h111.993zm335.973 0v-112h-111.993v112h111.994zM336.09 112H.11v1568h1791.895V112h-335.979V0h-111.993v112H448.086V0H336.093v112zm1119.928 112h223.986v224H112.1V224h223.986v112h111.993V224h895.947v112h111.993V224zm223.992 1344H112.105V560h1567.904v1008z"/></svg>