<svg width="1792" height="1792" viewBox="0 0 1792 1792" xmlns="http://www.w3.org/2000/svg"><path d="M0 1680V448h1792v1232H0zM1344 672v112h112V672h-112zm0 224v112h112V896h-112zm0 224v112h112v-112h-112zm-336-448v112h112V672h-112zm0 224v112h112V896h-112zm0 224v112h112v-112h-112zm0 224v112h112v-112h-112zM672 672v112h112V672H672zm0 224v112h112V896H672zm0 224v112h112v-112H672zm0 224v112h112v-112H672zM336 896v112h112V896H336zm0 224v112h112v-112H336zm0 224v112h112v-112H336zM1456 112h336v224H0V112h336V0h112v112h896V0h112v112z"/></svg>