<svg width="1792" height="1792" viewBox="0 0 1792 1792" xmlns="http://www.w3.org/2000/svg"><path d="M784 784H672V672h112v112zm336 0h-112V672h112v112zm-336 224H672V896h112v112zm-336 0H336V896h112v112zm560-112h112v112h-112V896zm448-112h-112V672h112v112zm-112 112h112v112h-112V896zm-336 224h112v112h-112v-112zm-224 112H672v-112h112v112zm-336 0H336v-112h112v112zm224 112h112v112H672v-112zm-336 0h112v112H336v-112zM1792 112v1207.5q-24.5-22.75-52.938-38.938T1680 1253V560H112v1008h980l112 112H0V112h336V0h112v112h896V0h112v112h336zm-112 336V224h-224v112h-112V224H448v112H336V224H112v224h1568zm-368.375 896q43.75 0 96.688-2.188t106.312.438 103.25 12.688 88.813 35 62.124 67.812T1792 1568q0 46.375-17.938 87.063t-48.124 70.874-71.313 48.126T1568 1792v-112q23.625 0 43.75-8.75t35.438-24.063 24.062-35.437T1680 1568t-8.75-43.75-24.063-35.438-35.437-24.062T1568 1456h-256.375l141.75 142.625-78.75 78.75L1097.25 1400l277.375-277.375 78.75 78.75z"/></svg>