<svg width="1792" height="1792" viewBox="0 0 1792 1792" xmlns="http://www.w3.org/2000/svg"><path d="M1460.375 844.375L1063.125 1638q-2.625 32.375-16.625 60.375t-36.75 49-52.063 32.813T896 1792q-33.25 0-62.125-11.813t-51.625-32.812-36.75-49T728.875 1638l-397.25-793.625L463.75 448H336V0h112v336h896V0h112v448h-127.75zm-120.75-8.75L1210.125 448h-628.25l-129.5 387.625L840 1610.875v-729.75Q814.625 866.25 799.312 840T784 784q0-23.625 8.75-43.75t24.063-35.438 35.437-24.062T896 672t43.75 8.75 35.438 24.063 24.062 35.437T1008 784q0 29.75-15.313 56T952 881.125v729.75z"/></svg>