<svg width="64" height="64" viewBox="0 0 1792 1792" xmlns="http://www.w3.org/2000/svg"><path d="M896 560h592.375l-267.75-268.625 78.75-78.75L1702.75 616l-403.375 403.375-78.75-78.75L1488.375 672H896V560zm442.75 583.625q34.125 0 66.5 13.125t56.875 37.625q18.375 18.375 41.563 38.938t47.687 42.874 47.25 46.813 41.125 50.313 29.313 53.812 10.937 57.75q0 34.125-13.125 66.5t-37.625 56.875q-44.625 44.625-80.5 78.75t-74.813 57.75-86.187 35.438T1274.875 1792q-95.375 0-196-29.75T878.5 1680t-195.125-125.125T502.687 1396.5t-157.062-181.125-123.375-194.688-80.938-198.625T112 630q0-66.5 11.813-113.75t35-85.75 57.312-74.813 79.625-80.937q24.5-24.5 56.875-37.625t66.5-13.125q43.75 0 84.438 23.625T581 305.375t69.125 71.75 59.5 64.75q24.5 24.5 37.625 56.875t13.125 66.5T749 626.063t-28.438 49-36.75 40.25-36.75 34.562-28.437 32.813-11.375 33.687q0 10.5 16.188 33.688t43.312 54.25 62.563 67.375 73.5 74.375 76.125 74.812 70.875 67.813 57.75 54.687 36.312 35q18.375 18.375 43.75 18.375 18.375 0 34.563-11.375t32.374-28.438 34.126-36.75 39.812-36.75 48.563-28.437 61.687-11.375zM1274.875 1680q53.375 0 89.688-10.063t65.187-29.312 56.438-47.25 63.437-63.875q18.375-18.375 18.375-43.75 0-11.375-14-32.813t-35.438-47.25-48.124-52.062-52.063-48.125-46.813-35.875-32.812-14q-18.375 0-35 11.375t-32.813 28.438-34.124 36.75-39.813 36.75-48.563 28.437-60.812 11.375q-35 0-66.938-13.563t-56.437-38.062L546.875 939.75q-24.5-24.5-38.063-56.438t-13.562-66.937q0-34.125 11.375-60.813T535.063 707t36.75-39.813 36.75-34.562T637 599.812t11.375-34.562q0-11.375-14-32.375t-35.438-46.813-48.125-52.5-52.5-48.125T451.5 350t-32.375-14q-26.25 0-44.625 18.375-35.875 35.875-63.875 63t-47.25 56.438T234.062 539 224 627.375q0 84 27.125 174.125t75.688 179.813 115.062 176.312 144.375 164.5 164.938 143.5T927.5 1578.938t177.625 74.374 169.75 26.688z"/></svg>