<svg width="64" height="64" viewBox="0 0 1792 1792" xmlns="http://www.w3.org/2000/svg"><path d="M918.803 560H326.463l267.733-268.625-78.745-78.75L112.102 616l403.35 403.375 78.745-78.75L326.464 672h592.339V560zm-442.72 583.625q-34.124 0-66.497 13.125t-56.872 37.625q-18.373 18.375-41.56 38.938t-47.684 42.874T216.22 1323q-22.748 24.5-41.123 50.313t-29.31 53.812-10.936 57.75q0 34.125 13.123 66.5t37.623 56.875q44.623 44.625 80.496 78.75t74.808 57.75 86.182 35.438T539.952 1792q95.368 0 195.988-29.75T936.302 1680t195.113-125.125 180.677-158.375 157.054-181.125 123.366-194.688 80.933-198.625T1702.755 630q0-66.5-11.812-113.75t-34.998-85.75-57.31-74.813-79.62-80.937q-24.498-24.5-56.87-37.625T1395.647 224q-43.748 0-84.432 23.625t-77.433 57.75-69.121 71.75-59.497 64.75q-24.5 24.5-37.623 56.875t-13.125 66.5 11.375 60.813 28.436 49 36.748 40.25q19.686 17.937 36.748 34.562t28.436 32.813 11.375 33.687q0 10.5-16.186 33.688t-43.31 54.25-62.56 67.375-73.496 74.375-76.12 74.812-70.871 67.813-57.747 54.687-36.31 35q-18.375 18.375-43.749 18.375-18.375 0-34.56-11.375t-32.374-28.438-34.123-36.75-39.81-36.75T537.757 1155t-61.684-11.375zM539.952 1680q-53.37 0-89.681-10.063t-65.184-29.312-56.435-47.25-63.434-63.875q-18.374-18.375-18.374-43.75 0-11.375 14-32.813t35.435-47.25 48.124-52.062 52.059-48.125 46.81-35.875 32.811-14q18.373 0 34.998 11.375t32.811 28.438 34.123 36.75 39.811 36.75 48.559 28.437 60.809 11.375q34.998 0 66.934-13.563t56.434-38.062l417.35-417.375q24.499-24.5 38.061-56.438t13.563-66.937q0-34.125-11.375-60.813T1279.726 707t-36.748-39.813-36.749-34.562-28.435-32.813-11.375-34.562q0-11.375 14-32.375t35.435-46.813 48.122-52.5 52.498-48.125 46.81-35.437q21-14 32.372-14 26.249 0 44.624 18.375 35.873 35.875 63.871 63t47.248 56.438T1580.71 539t10.063 88.375q0 84-27.123 174.125t-75.685 179.813-115.053 176.312q-66.497 86.625-144.367 164.5t-164.927 143.5-176.301 113.313-177.613 74.374T539.964 1680z"/></svg>