<svg width="64" height="64" viewBox="0 0 1792 1792" xmlns="http://www.w3.org/2000/svg"><path d="M1792 224v1344H0V224h480.375l112-112h607.25l112 112H1792zm-112 112h-415.625l-112-112h-512.75l-112 112H112v1120h1568V336zM896 448q92.75 0 174.563 35t142.624 95.813T1309 721.438 1344 896t-35 174.563-95.813 142.624T1070.563 1309 896 1344t-174.563-35-142.625-95.813T483 1070.563 448 896t35-174.563 95.813-142.625T721.438 483 896 448zm0 784q69.125 0 130.375-26.688t106.75-72.187 72.188-106.75T1232 896t-26.688-130.375-72.187-106.75-106.75-72.188T896 560t-130.375 26.688-106.75 72.187-72.188 106.75T560 896t26.688 130.375 72.187 106.75 106.75 72.188T896 1232zM280 448q22.75 0 39.375 16.625T336 504t-16.625 39.375T280 560t-39.375-16.625T224 504t16.625-39.375T280 448z"/></svg>