<svg width="1792" height="1792" xmlns="http://www.w3.org/2000/svg"><path d="M616 560q-57.75 0-108.5 22.313t-88.813 60.375-60.375 88.812T336 840t22.313 108.5 60.375 88.813 88.812 60.374T616 1120q56 0 107.188-21.438t90.562-60.812l79.625 79.625q-55.125 55.125-127.313 84.875T616 1232q-81.375 0-152.688-31.063t-124.25-84-84-124.25T224 840t31.063-152.688 84-124.25 124.25-84T616 448q77.875 0 150.063 29.75t127.312 84.875L813.75 642.25q-39.375-39.375-90.563-60.813T616 560zm672 0q-57.75 0-108.5 22.313t-88.813 60.375-60.374 88.812T1008 840t22.313 108.5 60.374 88.813 88.813 60.374T1288 1120q56 0 107.188-21.438t90.562-60.812l79.625 79.625q-55.125 55.125-127.313 84.875T1288 1232q-81.375 0-152.688-31.063t-124.25-84-84-124.25T896 840t31.063-152.688 84-124.25 124.25-84T1288 448q77.875 0 150.063 29.75t127.312 84.875l-79.625 79.625q-39.375-39.375-90.563-60.813T1288 560zM0 224h1792v1232H0V224zm112 1120h1568V336H112v1008z"/></svg>