<svg width="1792" height="1792" xmlns="http://www.w3.org/2000/svg"><path d="M1680 592.375V1792H896v-112h672V672h-560V112H448v546.875q-58.625 14-112 43.75V0h751.625zM1120 560h368.375L1120 191.625V560zm-224 560q0 71.75-29.313 136.938T784 1370.25V1771l-224-112-224 112v-400.75q-53.375-48.125-82.688-113.313T224 1120q0-69.125 26.25-130.375t72.188-107.188 106.75-72.187T560 784q69.125 0 130.375 26.25t107.188 72.188 72.187 107.187T896 1120zm-224 316.75Q616 1456 560 1456t-112-19.25V1589l112-56 112 56v-152.25zM560 1344q46.375 0 87.063-17.5t71.312-48.125 48.125-71.313T784 1120t-17.5-87.063-48.125-71.312-71.313-48.125T560 896t-87.063 17.5-71.312 48.125-48.125 71.313T336 1120t17.5 87.063 48.125 71.312 71.313 48.125T560 1344z"/></svg>