<svg width="64" height="64" viewBox="0 0 1792 1792" xmlns="http://www.w3.org/2000/svg"><path d="M569.625 784L868 1680H746.375L672 1456H336l-74.375 224H140l298.375-896h131.25zm64.75 560L504 952l-130.375 392h260.75zm70.875-868q.875-60.375 1.313-119.875T705.25 236.25q0-4.375 1.75-9.625 7-1.75 11.375-1.75 36.75.875 73.063 1.75t73.062.875h240.625q0-28-.438-57.75T1097.25 112q60.375 0 119.875 5.25 5.25.875 10.938 2.625t5.687 8.75q0 5.25-2.625 10.5t-4.375 10.5q-1.75 4.375-3.063 13.563t-1.75 19.25-.437 19.25V227.5h259q36.75 0 73.063-.875t73.062-1.75q6.125 0 11.375 2.625 2.625 4.375 2.625 8.75-.875 14.875-1.75 31.063t-.875 31.062v50.75q0 31.5.875 63.438t1.75 63.437q0 2.625-.438 6.125t-2.187 5.25q-7 1.75-11.375 1.75t-20.125.438-33.25.437-31.938-.438-17.062-3.062q-1.75-9.625-2.188-31.063t0-45.5.876-46.375.437-34.562h-701.75q0 4.375.438 17.5t.437 30.188v71.75l-.875 27.125L819 488.25q-7 1.75-11.375 1.75h-89.25q-9.625 0-11.375-2.625T705.25 476zm959 225.75q1.75 7 1.75 11.375v84q0 3.5-1.75 10.5-7 1.75-11.375 1.75-35-.875-69.125-1.75t-69.125-.875H1233.75q-.875 52.5.438 105.438t3.062 105.437q.875 21.875-7 43.75t-26.25 35q-12.25 8.75-34.563 13.563t-47.687 7-49.438 2.624-38.062.438q-5.25 0-16.625-.438t-15.75-4.812q-2.625-2.625-6.125-14T990.5 1085q-6.125-22.75-14.438-42.438T955.5 1002.75q29.75 3.5 59.5 4.813t59.5 1.312q21 0 31.938-6.563T1117.374 973V806.75H838.25q-35 0-70 .875l-70 1.75q-7 0-10.5-2.625-1.75-5.25-1.75-9.625v-84q0-2.625.438-6.563t2.187-5.687q5.25-1.75 9.625-1.75l70 1.75 70 .875h279.125q-1.75-22.75-2.188-45.938t-4.812-45.937q19.25 1.75 37.625 3.5t37.625 3.5Q1216.25 595 1244.25 570.5t56-49.875h-269.5q-36.75 0-73.063.875t-73.062 1.75q-7 0-10.5-2.625-1.75-5.25-1.75-9.625v-83.125q0-3.5 1.75-10.5 7-1.75 10.5-1.75 36.75.875 73.063 1.75t73.062.875h326.375q14 0 26.25-3.938t21.875-3.937q7 0 20.125 10.5t26.25 24.5 23.188 28.438 10.062 21.437q0 8.75-5.688 13.563t-12.687 8.312q-12.25 6.125-23.625 15.75T1421 551.25q-45.5 37.625-91.438 73.063t-95.812 67.812v9.625h280.875q35 0 69.125-.875t69.125-1.75q6.125 0 11.375 2.625z"/></svg>