<svg width="1792" height="1792" viewBox="0 0 1792 1792" xmlns="http://www.w3.org/2000/svg"><path d="M382.375 371.875q-40.25 49.875-83.125 96.688t-91 88.812l-74.375-54.25q91-81.375 168.875-174.125t133-202.125l84 33.25q-18.375 33.25-37.188 65.625t-39.812 63.875H889v82.25H573.125q37.625 42 73.938 86.625t65.187 93.625l-83.125 30.625Q590.625 525 546 473.375t-92.75-101.5h-70.875zM241.5 822.5h88.375V1666H241.5V822.5zm155.75-249.375q57.75 42 111.125 88.375t99.75 100.625l-66.5 52.5q-51.625-49.875-105-97.563t-112-88.812zm1255.625-283.5v82.25h-365.75q31.5 44.625 63.875 91t55.125 96.25l-83.125 31.5q-30.625-57.75-68.25-112t-77-106.75h-96.25q-42 47.25-86.188 91.438T901.25 546l-71.75-53.375q42-35.875 86.625-78.313t86.625-88.375T1081.063 231t61.687-98.875l83.125 36.75q-15.75 31.5-35.875 61.688t-40.25 59.062h503.125zM695.625 628.25h864.5v910q0 40.25-9.625 66.063t-28.438 41.124-47.25 21-65.187 5.688-73.938-.875-73.937-1.75l-25.375-84.875q66.5 2.625 133 2.625 11.375 0 28.875.875t34.563-1.75 29.312-10.5 12.25-25.375V711.375h-778.75V628.25zm549.5 871.5h-686v-637h686v637zM1155 1222.375H645.75v199.5H1155v-199.5zm0-280H645.75v200.375H1155V942.375z"/></svg>