<svg width="1792" height="1792" viewBox="0 0 1792 1792" xmlns="http://www.w3.org/2000/svg"><path d="M388.5 372.75q-57.75-84-132.563-154.875T103.25 82.25L175 1.75q78.75 66.5 152.688 138.688T462 296.625zm211.75 982.625q70-40.25 138.688-86.625t132.125-98T992.25 1060.5 1099 936.25H713.125V483.875h441V302.75h-504V200.375h504V0h104.125v200.375h504.875V302.75H1258.25v181.125h432.25V936.25h-432.25v38.5q141.75 76.125 269.5 171.938t242.375 208.687l-63.875 84q-47.25-46.375-101.063-96.25t-111.124-96.688-116.813-88.812-119-72.625v443.625h-104.125v-502.25Q1053.5 1153.25 929.687 1255.188t-262.062 184.187zm658-519.75h328.125V586.25H1258.25v249.375zm-104.125 0V586.25H817.25v249.375h336.875zM399 1397.375q58.625 60.375 130.375 99.313t150.5 62.124 161.438 32.376 163.187 9.187H1792l-27.125 99.75H1057q-90.125 0-186.813-8.75T679.875 1659t-178.938-66.063-151.812-109.812q-52.5 74.375-111.563 142.188t-126.437 129.062l-81.375-70q150.5-128.625 252.875-287.875t141.75-355.25H91v-98.875q49.875-61.25 98-122.063t97.125-122.062Q317.625 658 350 617.312t60.375-83.562H51.625v-98H530.25v98L216.125 942.375H528.5q0 24.5.875 49.438t-.875 49.437q-.875 12.25-3.5 20.125t-6.125 20.125q-20.125 83.125-49 162.313T399 1397.374z"/></svg>