<svg width="1792" height="1792" viewBox="0 0 1792 1792" xmlns="http://www.w3.org/2000/svg"><path d="M1418.375 896l-148.75 149.625H852.25l-276.5 276.5q11.375 22.75 16.625 46.813t5.25 49.437q0 46.375-17.5 87.063T532 1576.75t-71.313 48.125-87.062 17.5-87.063-17.5-71.312-48.125-48.125-71.313-17.5-87.062 17.5-87.063T215.25 1260t71.313-48.125 87.062-17.5q25.375 0 49.438 5.25t46.812 16.625l171.5-170.625h-206.5q-12.25 33.25-33.25 60.375t-49 46.813-60.813 30.624T224 1194.376q-46.375 0-87.063-17.5t-71.312-48.125-48.125-71.313T0 970.375q0-45.5 17.938-86.625t48.124-71.313 70.876-48.125T224 746.375q35 0 67.813 10.938t60.812 30.625 49 47.25T434.875 896h355.25l299.25-298.375h210.875L1001.875 896h416.5zM224 1045.625q15.75 0 29.313-6.125t23.625-16.625 15.75-24.063 5.687-28.437q0-30.625-21.875-52.5T224 896t-52.5 21.875-21.875 52.5q0 14.875 5.688 28.438t15.75 24.062 23.625 16.625 29.312 6.125zm149.625 448q15.75 0 29.313-6.125t23.625-16.625 15.75-24.063 5.687-28.437q0-30.625-21.875-52.5t-52.5-21.875q-14.875 0-28.438 5.688t-24.062 15.75-16.625 23.624-6.125 29.313 6.125 29.313 16.188 23.624 23.625 16.188 29.312 6.125zM1792 0v149.625h-149.625V0H1792zm-448 0h149.625v149.625H1344V0zm-149.625 149.625h-148.75V0h148.75v149.625zm-298.375 0H746.375V0H896v149.625zm-298.375 0H448V0h149.625v149.625zm0 298.375H448V298.375h149.625V448zm0 298.375H448v-148.75h149.625v148.75zm1044.75-448H1792V448h-149.625V298.375zm0 299.25H1792v148.75h-149.625v-148.75zm0 298.375H1792v149.625h-149.625V896zm0 298.375H1792V1344h-149.625v-149.625zm-298.375 0h149.625V1344H1344v-149.625zm-298.375 0h148.75V1344h-148.75v-149.625z"/></svg>