<svg width="64" height="64" viewBox="0 0 1792 1792" xmlns="http://www.w3.org/2000/svg"><path d="M896 0q123.375 0 238 31.938t213.938 90.562 181.124 140.438T1669.5 444.063 1760.063 658 1792 896t-31.938 238-90.562 213.938-140.438 181.124-181.124 140.438T1134 1760.063 896 1792t-238-31.938-213.938-90.562-181.125-140.438T122.5 1347.938 31.937 1134 0 896t31.938-238T122.5 444.062t140.438-181.125T444.063 122.5 658 31.937 896 0zm0 1680q108.5 0 208.688-28t187.25-79.188 158.374-122.5 122.5-158.374 79.188-187.25T1680 896t-28-208.688-79.188-187.25-122.5-158.375-158.374-122.5T1104.688 140 896 112t-208.688 28-187.25 79.188-158.375 122.5-122.5 158.375T140 687.313 112 896t28 208.688 79.188 187.25 122.5 158.374 158.375 122.5T687.313 1652 896 1680z"/></svg>