<svg width="1792" height="1792" viewBox="0 0 1792 1792" xmlns="http://www.w3.org/2000/svg"><path d="M1120 32.375l560 560V1792h-112V639.625l-336-336V672h112v1120h-336v-336H896v336H560V672h336V560H224v1232H112V448h896v224h112V32.375zM1232 1680V784H672v896h112v-336h336v336h112zM336 784V672h112v112H336zm0 224V896h112v112H336zm0 224v-112h112v112H336zm0 224v-112h112v112H336zm0 224v-112h112v112H336zm784-784v112h-112V896h112zm0 224v112h-112v-112h112zM896 896v112H784V896h112zm0 224v112H784v-112h112z"/></svg>