<svg width="1792" height="1792" xmlns="http://www.w3.org/2000/svg"><path d="M816.434 1568H560.075v112h835.574l296.608-297.5q21-21 32.373-49.438t11.375-59.062-11.375-59.063-33.248-50.312L728.068 201.25 89.357 840zm-88.37-1209.25L1321.279 952l-481.22 481.25L246.844 840zM975.679 1568l-56.872-56 481.22-481.25 211.738 212.625q12.25 12.25 12.25 30.625t-12.25 30.625L1349.282 1568H975.678zM112.1 560h111.993V448H112.101v112zm0-224h111.993V224H112.101v112zm0-224h111.993V0H112.101v112zm223.988 0h111.993V0H336.09v112zm223.986 0h111.993V0H560.075v112zm223.986 0h111.993V0H784.061v112zm223.983 0h111.993V0h-111.993v112zm223.991 0h111.993V0h-111.993v112zm223.982 0h111.993V0h-111.993v112zm223.992 0h111.993V0h-111.993v112zm0 224h111.993V224h-111.993v112zm0 224h111.993V448h-111.993v112zm0 224h111.993V672h-111.993v112zm0 224h111.993V896h-111.993v112zM448.082 1568H336.09v112h111.993v-112zm-223.988-448H112.101v112h111.993v-112zm0 224H112.101v112h111.993v-112zm0 224H112.101v112h111.993v-112z"/></svg>