<svg width="1792" height="1792" viewBox="0 0 1792 1792" xmlns="http://www.w3.org/2000/svg"><path d="M1498.875 784q60.375 0 113.75 23.188t93.188 63 63 93.625T1792 1078q0 57.75-21.875 111.563t-63.875 95.812l-392.875 392-78.75-78.75 392-392.875q25.375-25.375 39.375-58.625t14-69.125q0-37.625-14.438-70.438t-39.374-57.75-57.75-39.375T1498 896q-35.875 0-69.125 14t-58.625 39.375L1199.625 1120H1344v112h-336V896h112v144.375q41.125-41.125 81.375-86.625t85.313-83.125 96.687-62.125 115.5-24.5zM1568 672h-112V560h112v112zm0-224h-112V336h112v112zm0-224h-112V112h112v112zm-224 0h-112V112h112v112zm-224 0h-112V112h112v112zM784 112h112v112H784V112zm-224 0h112v112H560V112zm-224 0h112v112H336V112zm-224 0h112v112H112V112zm0 224h112v112H112V336zm0 224h112v112H112V560zm0 224h112v112H112V784zm0 224h112v112H112v-112zm0 224h112v112H112v-112zm0 224h112v112H112v-112zm224 0h112v112H336v-112zm224 0h112v112H560v-112zm224 0h112v112H784v-112zm224 0h112v112h-112v-112z"/></svg>