<svg width="1792" height="1792" xmlns="http://www.w3.org/2000/svg"><path d="M1680 1008q23.625 0 43.75 8.75t35.438 24.063 24.062 35.437T1792 1120v560h-224v112H784v-112H560v-448H448q-92.75 0-174.125-35.438t-142.188-96.25-96.25-142.187T0 784t35.438-174.125 96.25-142.188 142.187-96.25T448 336q40.25 0 81.375 7.875 35-53.375 81.375-96.25t100.625-73.063 115.5-46.375T952 112q96.25 0 182.438 34.125t153.562 94.5 111.125 142.188T1453.375 560H1568v448h112zM896 672v336h560V672H896zm-336 448q0-23.625 8.75-43.75t24.063-35.438 35.437-24.062T672 1008h112V560h553.875q-10.5-71.75-44.625-133.438t-85.313-106.75-116.812-70.437T952 224q-61.25 0-118.125 18.375T729.312 294t-84.437 80.063-58.625 104.562Q520.625 448 448 448q-70 0-130.813 26.25t-106.75 72.188-72.187 107.187T112 784q0 70 26.25 130.813t72.188 106.75 106.75 72.187T448 1120h112zm896 448H896v112h560v-112zm224-448H672v448h112v-112h784v112h112v-448zm-840 112q22.75 0 39.375 16.625T896 1288t-16.625 39.375T840 1344t-39.375-16.625T784 1288t16.625-39.375T840 1232z"/></svg>