<svg width="1792" height="1792" xmlns="http://www.w3.org/2000/svg"><path d="M1453.375 784q70 0 131.688 26.25t107.624 71.313 72.626 106.312T1792 1120q0 70-26.25 130.813t-72.188 106.75-107.187 72.187T1456 1456H448q-92.75 0-174.563-35t-142.625-95.813T35 1182.563 0 1008t35-174.563 95.813-142.625T273.438 595 448 560q40.25 0 81.375 7.875 35-54.25 80.938-97.563T710.5 397.25t115.5-45.5T952 336q97.125 0 183.313 34.125T1288 464.188t109.813 142.187T1453.374 784zm2.625 560q46.375 0 87.063-17.5t71.312-48.125 48.125-71.313T1680 1120t-17.5-87.063-48.125-71.312-71.313-48.125T1456 896h-112v-56q0-81.375-30.625-152.688t-84-124.687-124.688-84T952 448q-61.25 0-118.125 18.375T729.312 518t-84.437 80.063-58.625 104.562Q520.625 672 448 672q-70 0-130.813 26.25t-106.75 72.188-72.187 107.187T112 1008q0 70 26.25 130.813t72.188 106.75 106.75 72.187T448 1344h1008z"/></svg>