<svg width="1792" height="1792" xmlns="http://www.w3.org/2000/svg"><path d="M896 0q123.375 0 238 31.938t214.375 90.124 181.563 140 140 181.563T1760.062 658 1792 896t-31.938 238-90.124 214.375-140 181.563-181.563 140T1134 1760.062 896 1792q-46.375 0-87.063-17.938t-70.875-48.124-48.125-70.876T672 1568q0-42.875 8.313-74.813T700.875 1435 728 1386t27.125-45.938 20.563-49T784 1232q0-45.5-17.938-86.625t-48.125-71.313-71.312-48.124T560 1008q-33.25 0-59.063 8.313t-49 20.562T406 1064t-49 27.125-58.625 20.563T224 1120q-46.375 0-87.063-17.938t-70.875-48.124-48.124-70.876T0 896q0-123.375 31.938-238t90.124-214.375 140-181.563 181.563-140 213.938-90.124T896 0zm0 1680q107.625 0 207.813-28t187.25-79.188 158.812-122.937 122.938-158.813 79.187-187.25T1680 896t-28-207.813-79.188-187.25-122.937-158.812-158.813-122.938T1103.813 140 896 112t-207.813 28-187.25 79.188-158.812 122.937-122.938 158.813T140 688.188 112 896q0 23.625 8.75 43.75t24.063 35.438 35.437 24.062T224 1008q33.25 0 59.063-8.313t49-20.562 45.5-27.125 48.125-27.125 58.187-20.563T560 896q70 0 131.25 26.25T798 994t71.75 106.75T896 1232q0 42.875-8.313 75.688t-20.562 58.624T840 1414.438t-27.125 45.5-20.563 49T784 1568q0 23.625 8.75 43.75t24.063 35.438 35.437 24.062T896 1680zM448 560q23.625 0 43.75 8.75t35.438 24.063 24.062 35.437T560 672t-8.75 43.75-24.063 35.438-35.437 24.062T448 784t-43.75-8.75-35.438-24.063-24.062-35.437T336 672t8.75-43.75 24.063-35.438 35.437-24.062T448 560zm336-224q23.625 0 43.75 8.75t35.438 24.063 24.062 35.437T896 448t-8.75 43.75-24.063 35.438-35.437 24.062T784 560t-43.75-8.75-35.438-24.063-24.062-35.437T672 448t8.75-43.75 24.063-35.438 35.437-24.062T784 336zm448 336q-23.625 0-43.75-8.75t-35.438-24.063-24.062-35.437T1120 560t8.75-43.75 24.063-35.438 35.437-24.062T1232 448t43.75 8.75 35.438 24.063 24.062 35.437T1344 560t-8.75 43.75-24.063 35.438-35.437 24.062T1232 672zm112 224q23.625 0 43.75 8.75t35.438 24.063 24.062 35.437T1456 1008t-8.75 43.75-24.063 35.438-35.437 24.062T1344 1120t-43.75-8.75-35.438-24.063-24.062-35.437T1232 1008t8.75-43.75 24.063-35.438 35.437-24.062T1344 896zm-224 336q23.625 0 43.75 8.75t35.438 24.063 24.062 35.437T1232 1344t-8.75 43.75-24.063 35.438-35.437 24.062T1120 1456t-43.75-8.75-35.438-24.063-24.062-35.437T1008 1344t8.75-43.75 24.063-35.438 35.437-24.062T1120 1232z"/></svg>