<svg width="64" height="64" viewBox="0 0 1792 1792" xmlns="http://www.w3.org/2000/svg"><path d="M1792 112v1456H0V112h1792zM112 224v112h1568V224H112zm1568 1232V448H112v1008h1568zm-462-784l224.875 560h-79.625l-224.875-560H1218zm-574 66.5q-46.375 0-84.438 14.438t-64.75 42-41.562 68.25-14.875 92.312q0 48.125 13.563 87.5t39.375 66.938 63.437 42.437 85.75 14.875q30.625 0 60.813-6.125t50.312-15.75l14 54.25q-19.25 9.625-55.125 17.063t-84 7.437q-55.125 0-102.813-17.5T441 1155.437t-54.688-83.124-19.687-114.188q0-61.25 20.125-112.438t56.438-87.5 86.625-56.437 111.562-20.125q49.875 0 80.5 8.313T766.5 705.25l-16.625 55.125q-19.25-9.625-45.938-15.75T644 738.5zM896 784h112v112H896V784zm0 224h112v112H896v-112z"/></svg>