<svg width="64" height="64" viewBox="0 0 1792 1792" xmlns="http://www.w3.org/2000/svg"><path d="M896 784q45.5 0 86.625 17.938t71.313 48.125 48.124 71.312T1120 1008q0 46.375-17.938 87.063t-48.124 70.874-71.313 48.126T896 1232q-46.375 0-87.063-17.938t-70.875-48.124-48.125-70.876T672 1008q0-45.5 17.938-86.625t48.125-71.313 70.875-48.125T896 784zm0 336q23.625 0 43.75-8.75t35.438-24.063 24.062-35.437T1008 1008t-8.75-43.75-24.063-35.438-35.437-24.062T896 896t-43.75 8.75-35.438 24.063-24.062 35.437T784 1008t8.75 43.75 24.063 35.438 35.437 24.062T896 1120zm0-1008q123.375 0 237.563 31.938T1347.5 234.5t181.563 140.438T1669.5 556.5t90.563 213.938T1792 1008q0 89.25-17.5 175.438t-50.75 167.124T1641.5 1505t-112 136.5l-78.75-78.75q55.125-55.125 97.563-119.438t71.75-135.187 44.624-146.563T1680 1008q0-108.5-28-208.688t-79.188-187.25-122.5-158.375-158.374-122.5T1104.688 252 896 224t-208.688 28-187.25 79.188-158.375 122.5-122.5 158.375T140 799.313 112 1008q0 77.875 15.313 153.563t44.624 146.562 71.75 135.188 97.563 119.437l-78.75 78.75q-63-63-112-136.5t-82.25-154.438-50.75-167.124T0 1008q0-123.375 31.938-237.563T122.5 556.5t140.438-181.563T444.5 234.5t213.938-90.563T896 112zm0 336q116.375 0 218.313 43.75t178.062 119.875 119.875 178.063T1456 1008q0 112-42.438 214.375t-121.187 182l-79.625-79.625q63-63 97.125-145.25T1344 1008q0-92.75-35.438-174.125t-96.25-142.188-142.187-96.25T896 560t-174.125 35.438-142.188 96.25-96.25 142.187T448 1008q0 89.25 34.125 171.5t97.125 145.25l-79.625 79.625q-78.75-79.625-121.188-182T336 1008q0-116.375 43.75-218.313t119.875-178.062T677.688 491.75 896 448z"/></svg>