<svg width="64" height="64" viewBox="0 0 1792 1792" xmlns="http://www.w3.org/2000/svg"><path d="M1792 1120v672h-784v-336H672q0 70-26.25 130.813t-72.188 106.75-107.187 72.187T336 1792q-70 0-130.813-26.25t-106.75-72.188-72.187-106.75T0 1456q0-69.125 26.25-130.375t72.188-107.188 106.75-72.187T336 1120q53.375 0 102.813 16.188t91 45.5 73.5 70.874T652.75 1344H1008v-224h112q0-34.125.438-67.375t10.062-66.5L658 513.625q-34.125 22.75-73.5 34.563T504 560q-57.75 0-108.938-21.875t-89.25-59.938-59.937-89.25T224 280t21.875-108.5 59.938-88.813 89.25-60.374T504 0t108.5 22.313 88.813 60.374 60.375 88.813T784 280q0 41.125-11.813 80.5T737.625 434L1186.5 882.875q40.25-47.25 95.813-73.063T1400 784q57.75 0 108.5 22.313t88.813 60.375 60.374 88.812T1680 1064v56h112zM504 448q35 0 65.625-13.125T623 399t35.875-53.375T672 280t-13.125-65.625T623 161t-53.375-35.875T504 112t-65.625 13.125T385 161t-35.875 53.375T336 280t13.125 65.625T385 399t53.375 35.875T504 448zM336 1680q46.375 0 87.063-17.5t71.312-48.125 48.125-71.313T560 1456t-17.5-87.063-48.125-71.312-71.313-48.125T336 1232t-87.063 17.5-71.312 48.125-48.125 71.313T112 1456t17.5 87.063 48.125 71.312 71.313 48.125T336 1680zm896-560h336v-56q0-35-13.125-65.625T1519 945t-53.375-35.875T1400 896t-65.625 13.125T1281 945t-35.875 53.375T1232 1064v56zm448 112h-560v448h560v-448z"/></svg>