<svg width="1792" height="1792" viewBox="0 0 1792 1792" xmlns="http://www.w3.org/2000/svg"><path d="M896 0q123.375 0 238 31.938t213.938 90.562 181.124 140.438T1669.5 444.063 1760.063 658 1792 896t-31.938 238-90.562 213.938-140.438 181.124-181.124 140.438T1134 1760.063 896 1792t-238-31.938-213.938-90.562-181.125-140.438T122.5 1347.938 31.937 1134 0 896t31.938-238T122.5 444.062t140.438-181.125T444.063 122.5 658 31.937 896 0zm527.625 599.375l-119-119L728 1057 487.375 816.375l-119 119L728 1295z"/></svg>