<svg width="64" height="64" viewBox="0 0 1792 1792" xmlns="http://www.w3.org/2000/svg"><path d="M1764.875 1229.375q9.625 9.625 14.875 19.25t5.25 23.625q0 28-11.813 49.875T1729 1344H824.25l-72.625-280H1512V392H392v168h112q23.625 0 43.75 8.75t35.438 24.063 24.062 35.437T616 672v728q0 23.625-8.75 43.75t-24.063 35.438-35.437 24.062T504 1512H112q-23.625 0-43.75-8.75t-35.438-24.063T8.75 1443.75 0 1400V672q0-23.625 8.75-43.75t24.063-35.438T68.25 568.75 112 560h168V392q0-23.625 8.75-43.75t24.063-35.438 35.437-24.062T392 280h1120q23.625 0 43.75 8.75t35.438 24.063 24.062 35.437T1624 392v700zM392 1400H224v56h168v-56zm112-728H112v672h392V672z"/></svg>