<svg width="1792" height="1792" xmlns="http://www.w3.org/2000/svg"><path d="M1792 224v1008h-672v-112h560V336H336v224H224V224h1568zm-896 896h112v224q0 23.625-8.75 43.75t-24.063 35.438-35.437 24.062T896 1456H112q-23.625 0-43.75-8.75t-35.438-24.063T8.75 1387.75 0 1344V784q0-23.625 8.75-43.75t24.063-35.438T68.25 680.75 112 672h448v112H112v560h784v-224zM672 672q70 0 131.25 26.25T910 770t71.75 106.75T1008 1008H896q0-46.375-17.5-87.063t-48.125-71.312-71.313-48.125T672 784V672zm0 224q23.625 0 43.75 8.75t35.438 24.063 24.062 35.437T784 1008H672V896zm448 112q0-92.75-35.438-174.125t-96.25-142.188-142.187-96.25T672 560V448q116.375 0 218.313 43.75t178.062 119.875 119.875 178.063T1232 1008h-112z"/></svg>