<svg width="64" height="64" viewBox="0 0 1792 1792" xmlns="http://www.w3.org/2000/svg"><path d="M1000.125 1303.75Q1008 1322.125 1008 1344v336q0 23.625-8.75 43.75t-24.063 35.438-35.437 24.062T896 1792t-43.75-8.75-35.438-24.063-24.062-35.437T784 1680v-309.75l-112-224V1288q0 21.875-8.75 42.875t-23.625 35.875L358.75 1647.625Q326.375 1680 280 1680q-23.625 0-43.75-8.75t-35.438-24.063-24.062-35.437T168 1568q0-22.75 8.75-43.313t24.5-36.312L448 1241.625v-490zM1120 1792l122.5-245.875-105.875-106.75Q1120 1422.75 1120 1400t16.625-39.375T1176 1344t39.375 16.625l80.5 79.625L1456 1120l336 672h-672zM840 448q-35 0-65.625-13.125T721 399t-35.875-53.375T672 280t13.125-65.625T721 161t53.375-35.875T840 112t65.625 13.125T959 161t35.875 53.375T1008 280t-13.125 65.625T959 399t-53.375 35.875T840 448zm276.5 644.875q1.75 7 2.625 13.563T1120 1120q0 28-14 53.375t-36.75 40.25l-637.875-637Q414.75 560 392 560t-39.375 16.625T336 616v112q0 23.625-8.75 43.75t-24.063 35.438-35.437 24.062T224 840t-43.75-8.75-35.438-24.063-24.062-35.437T112 728V560q0-28 13.563-53.375t37.187-40.25l-146.125-147Q0 302.75 0 280t16.625-39.375T56 224t39.375 16.625l189 189 287-71.75q13.125 44.625 38.938 81.813t61.25 63.875 78.75 41.562T840 560q35.875 0 70-8.75T974.75 525z"/></svg>