<svg width="1792" height="1792" viewBox="0 0 1792 1792" xmlns="http://www.w3.org/2000/svg"><path d="M1120 1792l122.5-245.875-234.5-234.5V1624q0 35-13.125 65.625T959 1743t-53.375 35.875T840 1792t-65.625-13.125T721 1743t-35.875-53.375T672 1624v-210.875l-.875-1.75q-4.375 16.625-15.75 28l-245 245.875q-24.5 24.5-56.875 37.625T287 1736q-35.875 0-67.813-13.563t-55.562-37.187T126 1629.687t-14-67.812q0-35 13.563-67.375t38.062-56.875L336 1264.375v-322Q307.125 952 280 952q-35 0-65.625-13.125T161 903t-35.875-53.375T112 784V504q0-17.5 10.063-31.938T148.75 451.5L16.625 319.375Q0 302.75 0 280t16.625-39.375T56 224t39.375 16.625l179.375 178.5 328.125-81.375q15.75-4.375 34.125-3.063T672 336q0-46.375 17.5-87.063t48.125-71.312 71.313-48.125T896 112t87.063 17.5 71.312 48.125 48.125 71.313T1120 336q0 44.625-17.063 85.75t-47.687 71.75l117.25 534.625q1.75 8.75 2.625 17.5t.875 17.5q0 50.75-27.563 93.188t-74.812 62.562l222.25 221.375L1456 1120l336 672h-672zM896 224q-23.625 0-43.75 8.75t-35.438 24.063-24.062 35.437T784 336t8.75 43.75 24.063 35.438 35.437 24.062T896 448t43.75-8.75 35.438-24.063 24.062-35.437T1008 336t-8.75-43.75-24.063-35.438-35.437-24.062T896 224zM280 840q22.75 0 39.375-16.625T336 784V683.375q0-20.125 12.25-35t30.625-19.25q12.25-3.5 38.5-10.5t54.25-14.438 52.938-13.125 34.562-5.687q22.75 0 39.813 16.625T616 642.25q0 14.875-4.813 24.5t-13.562 16.188-19.688 10.5-22.312 7.437L784 928.375v-108.5q0-22.75 16.188-39.375t38.937-16.625q20.125 0 35.875 11.813t20.125 31.937q15.75 67.375 28.438 134.75t30.187 133.875q5.25 20.125 19.688 31.938t35.437 11.812q22.75 0 38.938-16.188t16.187-38.937q0-4.375-1.75-13.125l-108.5-499.625Q925.75 560 896 560q-60.375 0-112-29.75T701.75 448H623l-399 99.75V784q0 22.75 16.625 39.375T280 840zm616 461.125q-2.625-4.375-10.5-20.563t-19.25-38.5-23.625-47.25-22.75-46.374-17.938-35.876-8.312-15.312q-14.875-18.375-28.438-32.375t-27.125-26.688-28.437-25.812-31.5-30.625L448 751.625V1288q0 22.75-16.625 39.375l-189 189Q224 1534.75 224 1561q0 25.375 18.375 44.188t43.75 18.812q26.25 0 44.625-18.375L560 1376.375V1176q0-22.75 16.625-39.375T616 1120q15.75 0 29.313 8.313t20.562 22.312l112 224Q784 1386 784 1400v224q0 22.75 16.625 39.375T840 1680t39.375-16.625T896 1624v-322.875zm560 69.125L1301.125 1680h309.75z"/></svg>