<svg width="1792" height="1792" viewBox="0 0 1792 1792" xmlns="http://www.w3.org/2000/svg"><path d="M1163.75 1052.625q119 41.125 214.813 115.063t162.75 171.062 102.812 212.625T1680 1792h-112q0-143.5-51.188-266.438T1375.5 1312.5t-213.063-141.313T896 1120q-93.625 0-180.25 23.625t-161.438 66.938-135.625 104.124-104.125 135.626-66.937 161.437T224 1792H112q0-126 36.75-241.063t104.125-211.312 163.188-169.75T630 1053.5q-68.25-36.75-122.5-89.25t-92.313-116.813-58.625-137.375T336 560q0-116.375 43.75-218.313t119.875-178.062T677.688 43.75 896 0t218.313 43.75 178.062 119.875 119.875 178.063T1456 560q0 77-20.563 149.625t-58.624 136.5-91.876 116.813-121.187 89.687zM448 560q0 92.75 35.438 174.125t96.25 142.188 142.187 96.25T896 1008t174.125-35.438 142.188-96.25 96.25-142.187T1344 560t-35.438-174.125-96.25-142.188-142.187-96.25T896 112t-174.125 35.438-142.188 96.25-96.25 142.187T448 560z"/></svg>