<svg width="1792" height="1792" viewBox="0 0 1792 1792" xmlns="http://www.w3.org/2000/svg"><path d="M1144.535 942.375q-56.872 28.875-102.806 71.313t-78.309 94.5q-32.373 52.062-49.871 112T896.049 1344h111.993q0-69.125 26.686-130.375t72.184-106.75 106.743-72.188T1344.02 1008t130.366 26.688 106.743 72.187 72.184 106.75T1680 1344h111.993q0-63.875-17.5-123.813t-49.872-112-78.309-94.5-102.805-71.312q63.871-47.25 100.18-119T1679.998 672q0-69.125-26.685-130.375t-72.185-106.75-106.742-72.188T1344.019 336t-130.366 26.688-106.743 72.187-72.184 106.75T1008.04 672q0 79.625 36.311 151.375t100.18 119zM1568.017 672q0 46.375-17.937 87.063t-48.122 70.875-70.871 48.125T1344.03 896q-45.499 0-86.62-17.938t-71.309-48.125-48.122-70.875T1120.043 672q0-45.5 17.938-86.625t48.121-71.313 71.309-48.125T1344.03 448q46.373 0 87.057 17.938t70.871 48.125 48.122 71.312T1568.018 672zM.11 336v112h783.953V336H.11zm783.951 448H.108v112h783.953V784zm0 448H.108v112h783.953v-112z"/></svg>