<svg width="64" height="64" viewBox="0 0 1792 1792" xmlns="http://www.w3.org/2000/svg"><path d="M1792 1232v560h-560v-560h560zm-112 112h-336v336h336v-336zm-443.625-224q-39.375-54.25-90.125-96.25t-108.938-70.438-122.5-42.875T784 896q-117.25 0-219.625 43.313t-178.063 119-119 178.062T224 1456H112q0-105 30.625-203t87.5-180.688 136.938-145.687 179.812-99.75q-48.125-30.625-87.063-72.188t-66.5-90.562-42.437-103.688T336 448q0-92.75 35.438-174.125t96.25-142.188 142.187-96.25T784 0t174.125 35.438 142.188 96.25 96.25 142.187T1232 448q0 57.75-14.875 112.438t-42.438 103.687-66.5 90.563-87.062 72.187q109.375 40.25 198.625 115.938t147 177.187h-130.375zM448 448q0 69.125 26.688 130.375t72.187 106.75 106.75 72.188T784 784t130.375-26.688 106.75-72.187 72.188-106.75T1120 448t-26.688-130.375-72.187-106.75-106.75-72.188T784 112t-130.375 26.688-106.75 72.187-72.188 106.75T448 448z"/></svg>