<svg width="64" height="64" viewBox="0 0 1792 1792" xmlns="http://www.w3.org/2000/svg"><path d="M112 1792q0-125.125 36.313-240.625T252 1338.75t163.188-170.625T630 1052.625q-68.25-36.75-122.5-89.25T415.187 847t-58.625-136.938T336 560t20.125-148.75 56.438-133.875 87.5-113.313 113.312-87.5T747.25 20.126 896 0t148.75 20.125 133.875 56.438 113.313 87.5 87.5 113.312 56.437 133.875T1456 560t-20.563 150.063T1376.813 847 1284.5 963.375t-122.5 89.25q118.125 42 213.938 115.5t163.624 170.625 104.126 212.625T1680 1792H112z"/></svg>