<svg width="1792" height="1792" viewBox="0 0 1792 1792" xmlns="http://www.w3.org/2000/svg"><path d="M1680 112v1568h-336q0-95.375-34.125-177.188t-94.5-142.187-142.188-94.5T896 1232q-93.625 0-175.438 35t-142.187 95.375T483 1504.563 448 1680H112V112h1568zm-112 112H224v1344h122.5q13.125-65.625 41.563-126.438t69.562-112.437 93.625-92.75 114.625-68.25q-50.75-29.75-91-71.313t-68.688-91.874-43.312-106.313T448 784q0-92.75 35-174.563t95.813-142.625T721.438 371 896 336t174.563 35 142.624 95.813T1309 609.438 1344 784q0 58.625-14.875 114.188t-42.875 105.437T1218 1095.5t-90.125 71.75q62.125 28 114.625 68.688t93.188 92.312 68.687 112.438T1445.5 1568H1568V224zm-672 896q69.125 0 130.375-26.688t106.75-72.187 72.188-106.75T1232 784t-26.688-130.375-72.187-106.75-106.75-72.188T896 448t-130.375 26.688-106.75 72.187-72.188 106.75T560 784t26.688 130.375 72.187 106.75 106.75 72.188T896 1120z"/></svg>