<svg width="1792" height="1792" xmlns="http://www.w3.org/2000/svg"><path d="M647.5 942.375q56.875 28.875 102.813 71.313t78.312 94.5 49.875 112T896 1344H784q0-69.125-26.688-130.375t-72.187-106.75-106.75-72.188T448 1008t-130.375 26.688-106.75 72.187-72.188 106.75T112 1344H0q0-63.875 17.5-123.813t49.875-112 78.313-94.5T248.5 942.375q-63.875-47.25-100.188-119T112 672q0-69.125 26.688-130.375t72.187-106.75 106.75-72.188T448 336t130.375 26.688 106.75 72.187 72.188 106.75T784 672q0 79.625-36.313 151.375t-100.187 119zM224 672q0 46.375 17.938 87.063t48.125 70.875 70.875 48.125T448 896q45.5 0 86.625-17.938t71.313-48.125 48.125-70.875T672 672q0-45.5-17.938-86.625t-48.125-71.313-71.312-48.125T448 448q-46.375 0-87.063 17.938t-70.875 48.125-48.125 71.312T224 672zm1568-336v112h-784V336h784zm-784 448h784v112h-784V784zm0 448h784v112h-784v-112z"/></svg>