<svg width="1792" height="1792" viewBox="0 0 1792 1792" xmlns="http://www.w3.org/2000/svg"><path d="M1568 784v672l53.375 160.125 26.25 79.188 21.438 64.312L1680 1792H0q1.75-5.25 10.938-32.375t21.437-64.313 26.25-79.187L112 1456V784H0V672l784-392V0h335.125v224H896v56l784 392v112h-112zM250.25 672h1179.5L840 377.125zM448 1456h112V784H448v672zm224 0h112V784H672v672zm224 0h112V784H896v672zm224 0h112V784h-112v672zm-896 0h112V784H224v672zm1300.25 224l-36.75-112h-1295l-36.75 112h1368.5zM1456 784h-112v672h112V784z"/></svg>