<svg width="1792" height="1792" viewBox="0 0 1792 1792" xmlns="http://www.w3.org/2000/svg"><path d="M1239 1344q44.625 1.75 84.438 19.688t69.124 48.562 46.376 70.875T1456 1568q0 46.375-17.938 87.063t-48.124 70.874-71.313 48.126T1232 1792q-46.375 0-87.063-17.938t-70.874-48.124-48.126-70.876T1008 1568q0-62.125 31.938-115.5t87.062-82.25L894.25 905.625 662.375 1368.5q28 14.875 50.313 35.875t38.062 47.25 24.5 55.563T784 1568q0 46.375-17.938 87.063t-48.125 70.874-71.312 48.126T560 1792q-46.375 0-87.063-17.938t-70.875-48.124-48.125-70.876T336 1568q0-44.625 16.625-84.438t45.5-70T465.938 1365t83.562-21l281.75-565.25L534.625 185.5l50.75-153.125 308.875 619.5 308.875-619.5 50.75 153.125L957.25 778.75zm-679 336q23.625 0 43.75-8.75t35.438-24.063 24.062-35.437T672 1568t-8.75-43.75-24.063-35.438-35.437-24.062T560 1456t-43.75 8.75-35.438 24.063-24.062 35.437T448 1568t8.75 43.75 24.063 35.438 35.437 24.062T560 1680zm672 0q23.625 0 43.75-8.75t35.438-24.063 24.062-35.437T1344 1568t-8.75-43.75-24.063-35.438-35.437-24.062T1232 1456t-43.75 8.75-35.438 24.063-24.062 35.437T1120 1568t8.75 43.75 24.063 35.438 35.437 24.062T1232 1680z"/></svg>