<svg width="1792" height="1792" viewBox="0 0 1792 1792" xmlns="http://www.w3.org/2000/svg"><path d="M1288 784q104.125 0 196 39.813t160.125 108.062T1752.188 1092 1792 1288t-39.813 196-108.062 160.125T1484 1752.188 1288 1792t-196-39.813-160.125-108.062T823.812 1484 784 1288t39.813-196 108.062-160.125T1092 823.812 1288 784zm0 896q81.375 0 152.688-31.063t124.25-84 84-124.25T1680 1288t-31.063-152.688-84-124.25-124.25-84T1288 896t-152.688 31.063-124.25 84-84 124.25T896 1288t31.063 152.688 84 124.25 124.25 84T1288 1680zM112 1008h224v224H112v-224zm336-224h224v448H448V784zm1120 448v112h-560v-112h560zm-224-556.5q-57.75-5.25-113.313-.438T1120 695.625V336h224v339.5zm-336 63.875q-66.5 35-123.375 84T784 934.5V560h224v179.375z"/></svg>