<svg width="1792" height="1792" xmlns="http://www.w3.org/2000/svg"><path d="M1568 868.875q52.5 35.875 94.063 81.813t70.437 99.75 44.188 114.187T1792 1288q0 104.125-39.813 196t-108.062 160.125T1484 1752.188 1288 1792q-79.625 0-154-24.063t-136.938-68.25-110.25-106.312T812.875 1456H112V112h224V0h112v112h784V0h112v112h224v756.875zM224 224v224h1232V224h-112v112h-112V224H448v112H336V224H224zm562.625 1120Q784 1316.875 784 1288q0-75.25 21.438-146.125T868.875 1008H784V896h112v75.25q35.875-44.625 80.063-79.188t94.5-58.625T1176 796.688 1288 784q87.5 0 168 28.875V560H224v784h562.625zM1288 1680q81.375 0 152.688-31.063t124.25-84 84-124.25T1680 1288t-31.063-152.688-84-124.25-124.25-84T1288 896t-152.688 31.063-124.25 84-84 124.25T896 1288t31.063 152.688 84 124.25 124.25 84T1288 1680zm56-448h168v112h-280v-336h112v224zM336 896h112v112H336V896zm224 0h112v112H560V896zm0-224h112v112H560V672zm0 448h112v112H560v-112zm336-336H784V672h112v112zm224 0h-112V672h112v112zM336 672h112v112H336V672z"/></svg>