<svg width="1792" height="1792" xmlns="http://www.w3.org/2000/svg"><path d="M896 7q70.875 7 133.875 27.563t122.5 59.937q60.375 40.25 123.813 65.625t129.5 39.375 134.75 19.25T1680 224v448q0 28-2.188 56t-5.687 56H896V7zM0 224q70.875 0 139.563-5.25T274.75 199.5t129.938-39.375 123.812-66.5q58.625-39.375 121.625-59.5T784 7v777H7.875q-3.5-28-5.688-56T0 672V224zm784 1533q-123.375-71.75-243.25-161t-221.375-196.875T141.75 1165.5 28.875 896H784v861zm112-861h755.125q-36.75 143.5-112.875 269.5t-177.625 233.625T1139.25 1596 896 1757V896z"/></svg>