<svg width="64" height="64" viewBox="0 0 1792 1792" xmlns="http://www.w3.org/2000/svg"><path d="M1568 336h-112v1288q0 35-13.125 65.625T1407 1743t-53.375 35.875T1288 1792H392q-35 0-65.625-13.125T273 1743t-35.875-53.375T224 1624V336H112V224h448V112q0-23.625 8.75-43.75t24.063-35.438T628.25 8.75 672 0h336q23.625 0 43.75 8.75t35.438 24.063 24.062 35.437T1120 112v112h448v112zM672 224h336V112H672v112zm672 112H336v1288q0 22.75 16.625 39.375T392 1680h896q22.75 0 39.375-16.625T1344 1624V336zM672 1456H560V560h112v896zm224 0H784V560h112v896zm224 0h-112V560h112v896z"/></svg>