<svg width="1792" height="1792" xmlns="http://www.w3.org/2000/svg"><path d="M1456 1008h-112v616q0 35-13.125 65.625T1295 1743t-53.375 35.875T1176 1792t-65.625-13.125T1057 1743t-35.875-53.375T1008 1624v-616H896V896h224V415.625l-112-112V0h336v303.625l-112 112V896h224v112zm-336-751.625l56 56.875 56-56.875V112h-112v144.375zM1232 1008h-112v616q0 22.75 16.625 39.375T1176 1680t39.375-16.625T1232 1624v-616zM616 0q57.75 0 108.5 22.313t88.813 60.374 60.375 88.813T896 280q0 65.625-29.75 124.688T784 503.125V1624q0 35-13.125 65.625T735 1743t-53.375 35.875T616 1792t-65.625-13.125T497 1743t-35.875-53.375T448 1624V503.125q-52.5-39.375-82.25-98.438T336 280q0-57.75 21.875-108.5t59.938-88.813 89.25-60.374T616 0zm56 441q24.5-14 45.063-29.75t35.437-34.563 23.188-42.437T784 280q0-26.25-8.313-50.75t-22.75-45.5T717.5 147 672 122.5V280l-56 56-56-56V122.5q-25.375 8.75-45.938 24.5t-35 36.75-22.75 45.5T448 280q0 30.625 8.313 54.25t23.187 42.438 35.438 34.562T560 441v1183q0 22.75 16.625 39.375T616 1680t39.375-16.625T672 1624V441z"/></svg>