<svg width="1792" height="1792" xmlns="http://www.w3.org/2000/svg"><path d="M1750 1222.375q9.625 9.625 17.5 24.938t13.125 32.374 8.313 34.126T1792 1344q0 21.875-9.188 42t-24.937 35.875-35.875 24.938-42 9.187H224q-21.875 0-42-9.188t-35.875-24.937T121.187 1386 112 1344q0-13.125 3.063-30.188t8.312-34.124 13.125-32.376 17.5-24.937l182-182V336h1232v704.375zM448 1008h1008V448H448v560zm1232 333.375q0-3.5-1.313-10.063t-3.5-13.124-4.374-12.688-4.813-8.75L1488.375 1120H415.625L238 1296.75q-2.625 2.625-4.813 8.75t-4.375 12.688-3.5 13.124-1.312 10.063l2.625 2.625h1450.75z"/></svg>