<svg width="64" height="64" viewBox="0 0 1792 1792" xmlns="http://www.w3.org/2000/svg"><path d="M112 784h784v112H672v112h224v112H336v-112h224V896H0V112h1232v336h-112V224H112v560zm1680-224v1120h-784V560h784zm-112 112h-560v896h560V672zm-280 448q-35 0-65.625-13.125T1281 1071t-35.875-53.375T1232 952t13.125-65.625T1281 833t53.375-35.875T1400 784t65.625 13.125T1519 833t35.875 53.375T1568 952t-13.125 65.625T1519 1071t-53.375 35.875T1400 1120zm0-224q-22.75 0-39.375 16.625T1344 952t16.625 39.375T1400 1008t39.375-16.625T1456 952t-16.625-39.375T1400 896zm0 336q23.625 0 43.75 8.75t35.438 24.063 24.062 35.437T1512 1344t-8.75 43.75-24.063 35.438-35.437 24.062T1400 1456t-43.75-8.75-35.438-24.063-24.062-35.437T1288 1344t8.75-43.75 24.063-35.438 35.437-24.062T1400 1232z"/></svg>