<svg width="1792" height="1792" xmlns="http://www.w3.org/2000/svg"><path d="M1792 1456h-224v224H784v-224H560V896q0-23.625 8.75-43.75t24.063-35.438 35.437-24.062T672 784h112V448h560V224H336v560h141.75Q448 836.5 448 896H303.625L119 1080.625q-7 7-7 16.625t6.563 16.188T134.75 1120H448v112H134.75q-28 0-52.5-10.5t-42.875-28.875T10.5 1149.75 0 1097.25q0-27.125 10.063-52.063T39.374 1001L224 816.375V112h1232v336h112v336h112q23.625 0 43.75 8.75t35.438 24.063 24.062 35.437T1792 896v560zM896 784h560V560H896v224zm560 560H896v224h560v-224zm224-448H672v448h112v-112h784v112h112V896zm-840 224q-22.75 0-39.375-16.625T784 1064t16.625-39.375T840 1008t39.375 16.625T896 1064t-16.625 39.375T840 1120z"/></svg>