<svg width="1792" height="1792" viewBox="0 0 1792 1792" xmlns="http://www.w3.org/2000/svg"><path d="M112 882q0 2.625 1.75 8.313t6.125 5.687H784v112H119.875q-26.25 0-48.125-10.063t-37.625-27.562-24.938-40.25T0 882V126q0-25.375 9.188-48.125t24.937-40.25T71.75 10.062 119.875 0h1440.25q26.25 0 48.125 10.063t37.625 27.562 24.938 40.25T1680 126v210h-112V126q0-2.625-1.75-8.313t-6.125-5.687H119.875q-4.375 0-6.125 5.688T112 126v756zm1680-434v1344H896V448h896zm-112 112h-672v1120h672V560zm-336 616q-57.75 0-108.938-21.875t-89.25-59.938-59.937-89.25T1064 896t21.875-108.938 59.938-89.25 89.25-59.937T1344 616t108.938 21.875 89.25 59.938 59.937 89.25T1624 896t-21.875 108.938-59.938 89.25-89.25 59.937T1344 1176zm0-448q-35 0-65.625 13.125T1225 777t-35.875 53.375T1176 896t13.125 65.625T1225 1015t53.375 35.875T1344 1064t65.625-13.125T1463 1015t35.875-53.375T1512 896t-13.125-65.625T1463 777t-53.375-35.875T1344 728zm0 560q35 0 65.625 13.125T1463 1337t35.875 53.375T1512 1456t-13.125 65.625T1463 1575t-53.375 35.875T1344 1624t-65.625-13.125T1225 1575t-35.875-53.375T1176 1456t13.125-65.625T1225 1337t53.375-35.875T1344 1288zm0 224q22.75 0 39.375-16.625T1400 1456t-16.625-39.375T1344 1400t-39.375 16.625T1288 1456t16.625 39.375T1344 1512zm0-548.625q-28 0-47.688-19.688T1276.626 896t19.688-47.688T1344 828.625t47.688 19.688T1411.374 896t-19.688 47.688T1344 963.375zM336 224v112H224V224h112zm112 336H224V448h224v112zM224 672h224v112H224V672zm560 112H560V672h224v112zM448 224h112v112H448V224zm112 224h112v112H560V448zm224-112H672V224h112v112zm224 0H896V224h112v112zm112 0V224h112v112h-112zm224 0V224h112v112h-112z"/></svg>