<svg width="1792" height="1792" viewBox="0 0 1792 1792" xmlns="http://www.w3.org/2000/svg"><path d="M896 448v480.375l319.375 320.25-78.75 78.75L784 975.625V448h112zm448 112h259.875q-49-102.375-122.938-185.063t-166.25-141.312-199.062-90.125T896 112q-107.625 0-207.813 28t-187.25 79.188-158.812 122.937-122.938 158.813T140 688.188 112 896t28 207.813 79.188 187.25 122.937 158.812 158.813 122.938T687.75 1652 896 1680q131.25 0 252.875-42.438T1370.25 1519t172.813-181.563 108.062-232.312l107.625 29.75q-39.375 145.25-122.938 266t-197.75 207.813-252.874 135.187T896 1792q-123.375 0-238-31.938t-214.375-90.124-181.563-140-140-181.563-90.124-213.938T0 896q0-123.375 31.938-238t90.124-214.375 140-181.563 181.563-140 213.938-90.124T896 0q122.5 0 238 32.375t217.438 92.313 185.5 145.687T1680 463.75V224h112v448h-448V560z"/></svg>