<svg width="64" height="64" viewBox="0 0 1792 1792" xmlns="http://www.w3.org/2000/svg"><path d="M1680 112v1568H112V112h1568zM224 224v896h131.25l95.375-95.375Q467.25 1008 490 1008t39.375 16.625l154.875 154L897.75 350q4.375-18.375 19.688-30.188T952 308q20.125 0 35 11.813t19.25 31.062l89.25 364.875H1232q19.25 0 34.563 11.813t19.687 30.187l63 250.25H1568V224H224zm1344 1344v-448h-262.5q-20.125 0-35-11.813t-19.25-31.062l-63-249.375h-136.5q-20.125 0-35-11.813t-19.25-31.062l-47.25-190.75-182 707.875q-4.375 18.375-19.688 30.188T714 1344q-22.75 0-39.375-16.625L490 1142.75l-72.625 72.625Q400.75 1232 378 1232H224v336h1344z"/></svg>