<svg width="64" height="64" viewBox="0 0 1792 1792" xmlns="http://www.w3.org/2000/svg"><path d="M448 1120h112v112H448v-112zm336 0h112v112H784v-112zm336 0h112v112h-112v-112zm-672 336h112v112H448v-112zm336 0h112v112H784v-112zm336 0h112v112h-112v-112zM840 224q56 0 117.688 6.125t123.812 19.25 122.938 34.125 115.937 49.875 102.375 66.938T1505 486.5q29.75 41.125 46.375 87.938T1568 672v112q0 22.75-8.75 43.313t-24.063 35.875-35.874 24.062T1456 896h-224q-22.75 0-43.313-8.75t-35.874-24.063-24.063-35.875T1120 784V672H560v112q0 22.75-8.75 43.313t-24.063 35.875-35.875 24.062T448 896H224q-22.75 0-43.313-8.75t-35.875-24.063-24.062-35.875T112 784V672q0-50.75 16.625-97.563T175 486.5q35-48.125 82.25-86.188t102.375-66.937T475.563 283.5 598.5 249.375t123.813-19.25T840 224zm616 448q0-38.5-14.875-72.625t-38.938-63-54.25-52.063-60.812-41.562q-48.125-28.875-103.25-49T1071 360.937t-116.375-18.812T840 336t-114.625 6.125T609 360.938 496.125 393.75t-103.25 49q-30.625 18.375-60.813 41.563t-54.25 52.062-38.937 63T224 672v112h224V672q0-23.625 8.75-43.75t24.063-35.438 35.437-24.062T560 560h560q23.625 0 43.75 8.75t35.438 24.063 24.062 35.437T1232 672v112h224V672z"/></svg>