<svg width="64" height="64" viewBox="0 0 1792 1792" xmlns="http://www.w3.org/2000/svg"><path d="M1792 560v1232H952q-35 0-65.625-13.125T833 1743t-35.875-53.375T784 1624v-280H448q-92.75 0-174.125-35.438t-142.188-96.25-96.25-142.187T0 896t35.438-174.125 96.25-142.188 142.187-96.25T448 448q40.25 0 81.375 7.875 35-53.375 81.375-96.25t100.625-73.063 115.5-46.375T952 224q79.625 0 154 24.5t136.938 68.688 110.25 105.875T1427.124 560H1792zm-112 112H952q-9.625 0-19.688 5.25t-17.937 13.125-13.125 17.938T896 728v737.625q28.875-9.625 56-9.625h728V672zm-896 560V728q0-32.375 14-62.563t37.625-53.812T889.438 574 952 560h354.375q-24.5-50.75-61.688-92.313t-83.124-70.875-99.313-45.062T952 336q-61.25 0-118.125 18.375T729.312 406t-84.437 80.063-58.625 104.562Q520.625 560 448 560q-70 0-130.813 26.25t-106.75 72.188-72.187 107.187T112 896q0 70 26.25 130.813t72.188 106.75 106.75 72.187T448 1232h336zm896 448v-112H952q-22.75 0-39.375 16.625T896 1624t16.625 39.375T952 1680h728zm-112-560h-560V784h560v336zm-112-224h-336v112h336V896z"/></svg>