<svg width="1792" height="1792" xmlns="http://www.w3.org/2000/svg"><path d="M112 1568q0 23.625 8.75 43.75t24.063 35.438 35.437 24.062T224 1680h1008v112H224q-46.375 0-87.063-17.5t-71.312-48.125-48.125-71.313T0 1568V224q0-42.875 18.813-83.563t49.874-71.75T140 18.813 224 0h1232v896h-112V112H224q-20.125 0-40.25 10.063t-35.875 25.812-25.813 35.875T112 224v1149.75Q162.75 1344 224 1344h672v112H224q-23.625 0-43.75 8.75t-35.438 24.063-24.062 35.437T112 1568zm224-896V336h784v336H336zm112-112h560V448H448v112zm1344 896h-336v336h-112v-336h-336v-112h336v-336h112v336h336v112z"/></svg>