<svg width="64" height="64" viewBox="0 0 1792 1792" xmlns="http://www.w3.org/2000/svg"><path d="M918.75 1400l198.625 198.625-78.75 78.75L840 1478.75l-198.625 198.625-78.75-78.75L761.25 1400l-198.625-198.625 78.75-78.75L840 1321.25l198.625-198.625 78.75 78.75zM1568 224q23.625 0 43.75 8.75t35.438 24.063 24.062 35.437T1680 336v560H896v196l-56 56-56-56V896H0V336q0-23.625 8.75-43.75t24.063-35.438T68.25 232.75 112 224h1456zm0 112H112v448h1456V336zm-168 224q-22.75 0-39.375-16.625T1344 504t16.625-39.375T1400 448t39.375 16.625T1456 504t-16.625 39.375T1400 560zm-252 784h532v112h-532l-56-56zm-560 56l-56 56H0v-112h532z"/></svg>