<svg width="1792" height="1792" viewBox="0 0 1792 1792" xmlns="http://www.w3.org/2000/svg"><path d="M840 224q155.75 0 301.875 60.375 63 25.375 126.438 38.5T1400 336h392v784h-364.875q-56.875 0-107.188 21t-90.562 61.25l-544.25 543.375q-21.875 21.875-43.75 34.125T588 1792q-28.875 0-54.25-10.938t-44.625-30.187-30.188-44.625T448 1652q0-70.875 15.75-135.188t46.375-127.312q17.5-37.625 29.75-76.563T556.5 1232H168q-34.125 0-64.75-13.125T49.437 1183t-36.312-53.375T0 1064q0-28 8.75-53.375l224-672Q250.25 287 294 255.5t98-31.5h448zm840 224h-280q-156.625 0-301.875-60.375Q972.125 336 840 336H392q-17.5 0-32.375 10.5t-21 28q-4.375 12.25-16.188 47.25T294 506.188t-36.75 108.5T217 734.125t-38.938 117.688-33.687 103.25-23.625 75.25T112 1064q0 22.75 16.625 39.375T168 1120h504q0 46.375-2.188 86.188t-8.75 77.437-18.812 75.25-32.375 79.625q-24.5 50.75-37.188 103.688T560 1652q0 12.25 7.875 20.125T588 1680q5.25 0 9.188-3.938l7.437-7.437 545.125-546q28-28 59.938-49t67.812-35.875q70-29.75 149.625-29.75H1680V448z"/></svg>