<svg width="1792" height="1792" viewBox="0 0 1792 1792" xmlns="http://www.w3.org/2000/svg"><path d="M1064 0q35 0 65.625 13.125T1183 49t35.875 53.375T1232 168v560.875q0 61.25-14.875 122.5l-85.75 340.375q-6.125 22.75-8.75 47.25t-2.625 48.125V1624q0 35-13.125 65.625T1071 1743t-53.375 35.875T952 1792H728q-35 0-65.625-13.125T609 1743t-35.875-53.375T560 1624v-322.875q0-61.25-14.875-122.5l-82.25-327.25Q448 790.125 448 728.875V168q0-35 13.125-65.625T497 49t53.375-35.875T616 0h448zm56 168q0-22.75-16.625-39.375T1064 112H616q-22.75 0-39.375 16.625T560 168v560.875q0 23.625 2.625 48.125t8.75 47.25l82.25 327.25Q672 1225 672 1301.125V1624q0 22.75 16.625 39.375T728 1680h224q22.75 0 39.375-16.625T1008 1624v-336.875q0-61.25 14.875-122.5l85.75-340.375q6.125-22.75 8.75-47.25t2.625-48.125V168zM784 1456h112v112H784v-112zm0-224h112v112H784v-112zm0-224h112v112H784v-112zm0-112H672V784h112v112zm112-112h112v112H896V784zM672 560h112v112H672V560zm112-112h112v112H784V448zm112 224V560h112v112H896zM784 336v112H672V336h112zm112 0h112v112H896V336zm0 0H784V224h112v112z"/></svg>