<svg width="1792" height="1792" xmlns="http://www.w3.org/2000/svg"><path d="M560 1344h224v112H560v-112zM112 336v784h672v112H0V224h1680v112H112zm1680 672v448H896v-448h896zm-112 112h-672v224h672v-224zm20.125-412.125Q1629.25 637 1536.937 598.5T1344 560t-192.938 38.063-163.187 109.812L908.25 628.25q87.5-87.5 200.375-133.875T1344 448t235.375 46.375T1779.75 628.25zm-633.5 78.75q56-55.125 127.313-84.875T1344 672t150.063 29.75 127.312 84.875l-79.625 79.625q-39.375-39.375-90.563-60.813T1344 784t-107.188 21.438-90.562 60.812z"/></svg>