<svg width="64" height="64" xmlns="http://www.w3.org/2000/svg" viewBox="0 0 1601 1024"><path d="M199 795.5q29.5-33 60.25-63.75t67.25-56.25l25 39q-25 17.5-49 39t-46.5 45-43 48.75T175.5 897q-35.5-51.5-79.75-99T0 714.5l25-39q36.5 25.5 67.25 56.25t60.25 63.75V237H199v558.5zm1320.5-335q-27.5 0-49.25 9.75t-36.75 27-22.75 40.25-7.75 49q0 26.5 7.5 48.5t22 37.75 35.5 24.5 48.5 8.75q23 0 43.75-8.25T1598.5 675v70.5q-23 13-48.75 19t-52.25 6q-40 0-72.75-13t-56-36.5-35.75-56.5-12.5-73q0-44 13.5-80t38.5-61.5 60.5-39.5 80-14q22.5 0 44.25 3.75t42.25 13.25v75q-18-13-37.75-20.5t-42.25-7.5zm-840.5-64q67 0 101.25 32.5t34.25 100.5v232h-79V706h-1q-18 31-45 47.75T626 770.5q-24.5 0-45-7t-35.5-20.25T522 710.5t-8.5-45q0-27.5 8.5-48t24-34.75 37-22.5T630 548l106.5-15q0-37-17.75-56.75T663.5 456.5q-33 0-61.5 11.5t-53.5 32.5V430q30-17.5 63-25.5t67.5-8zm57.5 190l-75 10.5q-15 2-27.75 5.25t-22 9.75T597 629.25t-5.5 28.25q0 13 4.75 22.75t13 16 19 9.5T651 709q19 0 34.75-7.25t27-19.75 17.5-29.25 6.25-35.25v-31zm380-190q38.5 0 66 14.75t44.75 39.25 25.25 56.25 8 66.25q0 38-9 73.5t-28.25 63-49.75 44.25-73 16.75q-69.5 0-105-60.5h-2v51.5H913v-528h80.5v234h2q41-71 121-71zm-35 309.5q28 0 46.5-12t29.5-31.25T1173 620t4.5-47q0-21-4.75-41.25t-15.25-36-27.5-25.5-41-9.75q-23 0-40.75 8.75t-30 23.5T999.5 527t-6.5 41v45q0 19 6.5 35.75t18.25 29.5 28 20.25 35.75 7.5z"/></svg>