<svg width="1792" height="1792" xmlns="http://www.w3.org/2000/svg"><path d="M1792 21v1099l-112-112V203l-448 224v693l-112 112V427L672 203v994l289.625 145.25q21 10.5 38.938 18.375t35 15.75 34.124 16.625 37.188 21.875q.875.875 11.813 11.375t26.687 26.688 34.563 35l35.437 35.437 28.875 29.313L1260 1568h-97.125L616 1294.125 0 1603V357L616 49.875 1176 329zM112 1421l448-224V203L112 427v994zm1456-637v592.375l142.625-141.75 78.75 78.75L1512 1590.75l-277.375-277.375 78.75-78.75L1456 1376.375V784h112zm-336 896h560v112h-560v-112z"/></svg>