<svg width="1792" height="1792" viewBox="0 0 1792 1792" xmlns="http://www.w3.org/2000/svg"><path d="M1736 1680q22.75 0 39.375 16.625T1792 1736t-16.625 39.375T1736 1792H616q-22.75 0-39.375-16.625T560 1736t16.625-39.375T616 1680h1120zM1624 0q35 0 65.625 13.125T1743 49t35.875 53.375T1792 168t-12.688 63.875-36.312 54.25L551.25 1540q-32.375 34.125-63.875 58.625t-65.188 45.063-70 39.374-78.312 40.688H273Q248.5 1736 223.125 1736q-36.75 0-66.5-21.875l-61.25 61.25Q78.75 1792 56 1792t-39.375-16.625T0 1736t16.625-39.375l61.25-61.25Q56 1605.625 56 1568q0-25.375 12.25-49.875 21.875-42 40.688-78.313t39.374-70 45.063-65.187T252 1240.75L1505.875 49q25.375-23.625 54.25-36.313T1624 0zM223.125 1624q35-18.375 67.813-35t63.437-35 59.063-40.25 56.437-50.75L1543.5 334.25l-85.75-85.75L329 1321.25q-28 27.125-49.875 56.438t-40.688 60.374T203 1501.938t-35 66.937zM1620.5 252.875q7.875-7.875 17.938-17.5t19.25-20.125 15.75-22.313T1680 168q0-22.75-16.625-39.375T1624 112q-13.125 0-24.938 6.563t-22.312 15.75-20.125 19.25-17.5 17.937z"/></svg>