<svg width="64" height="64" viewBox="0 0 1792 1792" xmlns="http://www.w3.org/2000/svg"><path d="M1792 173.25q0 25.375-8.313 45.063t-21.874 36.75-30.626 32.375-33.687 31.937l-203-205.625q16.625-16.625 31.938-33.25t32.374-30.188T1595.126 28t44.625-8.75q49.875 0 86.625 36.75l26.25 26.25 21 25.375 13.563 28.875 4.812 36.75zM0 1703.625q0-22.75 9.188-38.938t22.312-29.75 28-26.687 26.25-30.625l126 128.625q-5.25 7-14.875 14.875T180.25 1736q-12.25 11.375-21.438 21.438t-19.25 17.937-22.312 12.25T86.625 1792q-39.375 0-63-24.938T0 1703.626zM1617.875 390.25L476 1603q-12.25 12.25-28 23.625t-34.125 20.125-37.188 13.563-36.312 4.812q-5.25 0-11.375 1.313t-11.375 2.187l-194.25-196q1.75-6.125 1.75-12.25v-12.25q0-16.625 4.813-35.438t13.562-36.75 20.125-34.124 23.625-27.563L1414.875 184.625zM1736 1680q22.75 0 39.375 16.625T1792 1736t-16.625 39.375T1736 1792H728q-22.75 0-39.375-16.625T672 1736t16.625-39.375T728 1680h1008z"/></svg>