<svg width="1792" height="1792" viewBox="0 0 1792 1792" xmlns="http://www.w3.org/2000/svg"><path d="M2.625 896q9.625-115.5 53.813-222.25t119.437-195.125l78.75 79.625Q194.25 630 159.25 716.625T114.625 896h-112zm252-496.125Q343 324.625 449.75 280.437T672 226.625v112q-92.75 9.625-179.375 44.625T334.25 478.625zm-78.75 1025.5Q100.625 1337 56.437 1230.25T2.626 1008h112q9.625 92.75 44.625 179.375t95.375 158.375zm496.125 252q-115.5-9.625-222.25-53.813t-195.125-119.437l79.625-78.75q71.75 60.375 158.375 95.375T672 1565.375v112zM1453.375 1008q-9.625 115.5-53.813 222.25t-119.437 195.125l-78.75-79.625q60.375-71.75 95.375-158.375T1341.375 1008h112zm-252 496.125q-88.375 75.25-195.125 119.438T784 1677.374v-112q92.75-9.625 179.375-44.625t158.375-95.375zM896 112v672h168l-224 224-224-224h168V112h112zm672 952V896h-457.625l112-112H1568V616l224 224z"/></svg>