<svg width="1792" height="1792" xmlns="http://www.w3.org/2000/svg"><path d="M1792 293.125q0 57.75-21.875 112t-63.875 96.25L553.875 1653.75 0 1792l138.25-553.875L1290.625 85.75q42-42 96.25-63.875t112-21.875q60.375 0 113.75 23.188t93.188 63 63 93.187T1792 293.125zM285.25 1249.5q92.75 30.625 159.688 97.563T542.5 1506.75L1488.375 560 1232 303.625zM154 1638l287.875-71.75q-8.75-40.25-28.438-76.125t-47.687-63.875-63.875-47.688-76.125-28.437zM1568 480.375q21.875-21.875 42-41.125t35.875-40.688 24.938-46.375T1680 294q0-37.625-14.438-70.438t-39.374-57.75-57.75-39.375T1498 112q-33.25 0-58.188 9.188t-46.374 24.937T1352.75 182t-41.125 42z"/></svg>