<svg width="64" height="64" viewBox="0 0 1792 1792" xmlns="http://www.w3.org/2000/svg"><path d="M.11 293.125q0 57.75 21.874 112t63.871 96.25L1238.16 1653.75 1792.002 1792l-138.241-553.875L501.456 85.75q-41.999-42-96.243-63.875T293.22 0q-60.372 0-113.743 23.188t-93.181 63T23.3 179.375.114 293.125zM1506.768 1249.5q-92.744 30.625-159.678 97.563t-97.555 159.687L303.721 560l256.36-256.375zm131.24 388.5l-287.857-71.75q8.75-40.25 28.436-76.125t47.684-63.875 63.871-47.688 76.12-28.437zM224.095 480.375q-21.873-21.875-41.998-41.125t-35.873-40.688-24.936-46.375q-9.186-24.937-9.186-58.187 0-37.625 14.436-70.438t39.373-57.75 57.747-39.375T294.091 112q33.248 0 58.184 9.188t46.373 24.937T439.334 182t41.123 42z"/></svg>