<svg width="1792" height="1792" viewBox="0 0 1792 1792" xmlns="http://www.w3.org/2000/svg"><path d="M1384.25 931.875q35.875 63 53.813 131.688T1456 1204v90.125L896 1575l-560-280.875q0-52.5 1.313-98t7.875-88.813 21-85.75 41.562-89.687L224 840v513.625q25.375 8.75 45.938 24.5t35.437 36.75 22.75 45.938T336 1512v280H0v-280q0-26.25 7.875-51.188t22.75-45.937 35.438-36.75 45.937-24.5V784L0 728l896-448 896 448zM224 1512q0-22.75-16.625-39.375T168 1456t-39.375 16.625T112 1512v168h112v-168zm26.25-784L896 1050.875 1541.75 728 896 405.125zM1344 1225q0-67.375-13.125-125.563T1284.5 981.75L896 1176 507.5 981.75q-28.875 50.75-44.188 107.188T448 1204v21l448 224z"/></svg>