<svg width="64" height="64" viewBox="0 0 1792 1792" xmlns="http://www.w3.org/2000/svg"><path d="M560 784q-23.625 0-43.75-8.75t-35.438-24.063-24.062-35.437T448 672t8.75-43.75 24.063-35.438 35.437-24.062T560 560t43.75 8.75 35.438 24.063 24.062 35.437T672 672t-8.75 43.75-24.063 35.438-35.437 24.062T560 784zm672 0q-23.625 0-43.75-8.75t-35.438-24.063-24.062-35.437T1120 672t8.75-43.75 24.063-35.438 35.437-24.062T1232 560t43.75 8.75 35.438 24.063 24.062 35.437T1344 672t-8.75 43.75-24.063 35.438-35.437 24.062T1232 784zM896 0q123.375 0 238 31.938t214.375 90.124 181.563 140 140 181.563T1760.062 658 1792 896t-31.938 238-90.124 214.375-140 181.563-181.563 140T1134 1760.062 896 1792t-238-31.938-214.375-90.124-181.563-140-140-181.563-90.124-213.938T0 896q0-123.375 31.938-238t90.124-214.375 140-181.563 181.563-140 213.938-90.124T896 0zm0 1680q107.625 0 207.813-28t187.25-79.188 158.812-122.937 122.938-158.813T1652 1104.25 1680 896q0-107.625-28-207.813t-79.188-187.25-122.937-158.812-158.813-122.938T1103.813 140 896 112t-207.813 28-187.25 79.188-158.812 122.937-122.938 158.813T140 688.188 112 896t28 207.813 79.188 187.25 122.937 158.812 158.813 122.938T687.75 1652 896 1680zm0-336q63.875 0 123.813-17.5t111.562-49.875 93.188-78.75 70.437-103.25l100.625 50.75Q1359.75 1216.25 1307.25 1274T1190 1372t-139.563 62.125T896 1456q-80.5 0-154.875-21.875T602 1372t-117.25-98-88.375-128.625L497 1094.625q28.875 56.875 70.438 103.25t93.187 78.75T771.75 1326.5 896 1344z"/></svg>