<svg width="1792" height="1792" viewBox="0 0 1792 1792" xmlns="http://www.w3.org/2000/svg"><path d="M896 1792q-124.25 0-238.438-31.938t-213.937-90.124-181.563-140-140-181.563T31.939 1134 0 896t31.938-238 90.124-214.375 140-181.563 181.563-140T658 31.939 896 0t238 31.938 214.375 90.124 181.563 140 140 181.563T1760.062 658 1792 896q0 124.25-31.938 238.438t-90.124 213.937-140 181.563-181.563 140T1134 1760.062 896 1792zm0-1680q-108.5 0-208.25 28t-186.813 79.188-158.812 122.937-122.938 158.813T140 688.188 112 896q0 108.5 28 208.25t79.188 186.813 122.937 158.812 158.813 122.938T688.188 1652 896 1680t207.813-28 187.25-79.188 158.812-122.937 122.938-158.813 79.187-187.25T1680 896t-28-207.813-79.188-187.25-122.937-158.812-158.813-122.938T1103.813 140 896 112zm0 784V336H784v672h448V896H896z"/></svg>