<svg width="64" height="64" viewBox="0 0 1792 1792" xmlns="http://www.w3.org/2000/svg"><path d="M588 840q35 0 59.5 24.5T672 924v112q0 35-24.5 59.5T588 1120t-59.5-24.5T504 1036V924q0-35 24.5-59.5T588 840zm616 0q35 0 59.5 24.5T1288 924v112q0 35-24.5 59.5T1204 1120t-59.5-24.5-24.5-59.5V924q0-35 24.5-59.5T1204 840zm-308 392q-23.625 0-43.75-8.75t-35.438-24.063-24.062-35.437T784 1120h224q0 23.625-8.75 43.75t-24.063 35.438-35.437 24.062T896 1232zm0 168q33.25 0 59.063-8.75T1001 1372t35.438-19.25T1064 1344q23.625 0 39.813 16.625t16.187 40.25q0 28-26.688 49t-63.437 34.563T955.5 1505t-59.5 7-59.5-7-74.375-20.563-63.438-34.562-26.687-49q0-23.625 16.188-40.25T727.125 1344q13.125 0 28.438 8.75T791 1372t45.938 19.25T896 1400zM896 0q123.375 0 238 31.938t214.375 90.124 181.563 140 140 181.563T1760.062 658 1792 896v896h-280q-70.875 0-135.625-28.438t-112.875-80.937Q1181.25 1736 1087.625 1764T896 1792t-191.625-28-175.875-81.375q-48.125 52.5-112.875 80.938T280 1792H0V896q0-123.375 31.938-238t90.124-214.375 140-181.563 181.563-140 213.938-90.124T896 0zM336 1120q0 77 20.125 148.75t56.438 133.875 87.5 113.313 113.312 87.5 133.875 56.437T896 1680t148.75-20.125 133.875-56.438 113.313-87.5 87.5-113.312 56.437-133.875T1456 1120V781.375q-94.5-9.625-181.125-49T1120 625.625V728h-56q-99.75 0-188.125-44.188T728 560q-34.125 48.125-77.875 86.625t-94.063 66.5-105.875 45.5T336 781.375V1120zm1344-224q0-107.625-28-207.813t-79.188-187.25-122.937-158.812-158.813-122.938T1103.813 140 896 112t-207.813 28-187.25 79.188-158.812 122.937-122.938 158.813T140 688.188 112 896v784h168q45.5 0 87.063-17.5t73.062-49.875q-51.625-47.25-91.875-104.125t-67.813-119.875-42-130.813T224 1120V672h56q71.75 0 134.75-19.25t115.5-55.563 93.625-87.937T692.125 392h73.5q31.5 85.75 90.563 143.938T1008 610.75V392h91.875q27.125 65.625 68.25 117.25t93.625 87.938 115.5 55.562T1512 672h56v448q0 70-14.438 137.813t-42 130.812-67.812 119.875-91.875 104.125q31.5 32.375 73.063 49.875T1512 1680h168V896z"/></svg>