<svg width="1792" height="1792" xmlns="http://www.w3.org/2000/svg"><path d="M784 1288q0 35 13.125 65.625T833 1407t53.375 35.875T952 1456h336q56.875 0 107.188 21t90.562 61.25 61.25 90.563T1568 1736q0 22.75-16.625 39.375T1512 1792t-39.375-16.625T1456 1736q0-35-13.125-65.625T1407 1617t-53.375-35.875T1288 1568H952q-56.875 0-107.188-21t-90.562-61.25-61.25-90.563T672 1288v-76.125q-102.375-48.125-185.5-122.5T345.187 922.687 255.5 724.063 224 504q0-104.125 39.813-196t108.062-160.125T532 39.812 728 0t196 39.813 160.125 108.062T1192.188 308 1232 504q0 113.75-31.5 220.5t-89.688 198.625-140.874 166.25T784 1211.875V1288zM336 504q0 98.875 27.563 191.188t78.75 171.937 123.375 143.063T728 1114.75q90.125-41.125 162.313-104.563t123.375-143.062 78.75-171.938T1120 504q0-81.375-31.063-152.688t-84-124.25-124.25-84T728 112t-152.688 31.063-124.25 84-84 124.25T336 504zm616 56q-22.75 0-39.375-16.625T896 504q0-35-13.125-65.625T847 385t-53.375-35.875T728 336q-22.75 0-39.375-16.625T672 280t16.625-39.375T728 224q57.75 0 108.938 21.875t89.25 59.938 59.937 89.25T1008 504q0 22.75-16.625 39.375T952 560z"/></svg>