<svg width="64" height="64" viewBox="0 0 1792 1792" xmlns="http://www.w3.org/2000/svg"><path d="M1680 1008h112v336h-336v-112h168q-39.375-52.5-98.875-82.25T1400 1120q-44.625 0-85.75 13.563t-76.125 38.062-61.25 58.625-41.125 76.125l-105-36.75q21-58.625 57.75-106.75t85.313-82.688 106.312-53.374T1400 1008q79.625 0 152.25 30.625t127.75 87.5V1008zM392 0q81.375 0 152.688 30.625t124.687 84 84 124.688T784 392t-30.625 152.688-84 124.687-124.688 84T392 784t-152.688-30.625-124.687-84-84-124.688T0 392t30.625-152.688 84-124.687 124.688-84T392 0zM112 392q0 57.75 21.875 108.938t59.938 89.25 89.25 59.937T392 672q41.125 0 80.5-11.813t73.5-34.562L158.375 238q-22.75 34.125-34.563 73.5T112 392zm513.625 154q22.75-34.125 34.563-73.5T672 392q0-57.75-22.313-108.5t-60.375-88.813-88.812-60.375T392 112q-41.125 0-80.5 11.813T238 158.375zM448 1344h336v112H448v336H336v-336H0v-112h336v-336h112v336zm952 336q44.625 0 85.75-13.563t75.688-38.062 61.25-58.625 41.562-76.125l105 36.75q-21 58.625-57.75 106.75t-85.313 82.688-106.312 53.374T1400 1792q-79.625 0-152.25-30.625t-127.75-87.5V1792h-112v-336h336v112h-168q39.375 52.5 98.875 82.25T1400 1680zM1076.25 455.875q-33.25-33.25-50.75-76.125T1008 290.5q0-49 18.375-91.875t49.875-74.375 73.938-49.875T1241.624 56q44.625 0 85.313 15.75t73.062 45.5q32.375-29.75 73.063-45.5T1558.374 56q48.125 0 91 18.375t74.375 49.875 49.875 74.375T1792 290.5q0 46.375-17.5 89.25t-50.75 76.125L1400 778.75zM1242.5 168q-25.375 0-47.688 9.625t-38.937 26.25-26.25 38.938T1120 290.5q0 24.5 9.188 46.375t26.687 39.375L1400 620.375l244.125-244.125Q1680 340.375 1680 290.5q0-25.375-9.625-47.688t-26.25-38.937-38.938-26.25T1557.5 168q-49.875 0-85.75 35.875l-71.75 71.75-71.75-71.75q-17.5-17.5-39.375-26.688T1242.5 168z"/></svg>