<svg width="1792" height="1792" xmlns="http://www.w3.org/2000/svg"><path d="M896 0q123.375 0 238 31.938t214.375 90.124 181.563 140 140 181.563T1760.062 658 1792 896t-31.938 238-90.124 214.375-140 181.563-181.563 140T1134 1760.062 896 1792t-238-31.938-214.375-90.124-181.563-140-140-181.563-90.124-213.938T0 896q0-123.375 31.938-238t90.124-214.375 140-181.563 181.563-140 213.938-90.124T896 0zm0 1680q107.625 0 207.813-28t187.25-79.188 158.812-122.937 122.938-158.813 79.187-187.25T1680 896t-28-207.813-79.188-187.25-122.937-158.812-158.813-122.938T1103.813 140 896 112t-207.813 28-187.25 79.188-158.812 122.937-122.938 158.813T140 688.188 112 896t28 207.813 79.188 187.25 122.937 158.812 158.813 122.938T688.188 1652 896 1680zM560 448q23.625 0 43.75 8.75t35.438 24.063 24.062 35.437T672 560H448q0-23.625 8.75-43.75t24.063-35.438 35.437-24.062T560 448zm672 0q23.625 0 43.75 8.75t35.438 24.063 24.062 35.437T1344 560h-224q0-23.625 8.75-43.75t24.063-35.438 35.437-24.062T1232 448zm56 224q35 0 65.625 13.125T1407 721t35.875 53.375T1456 840v56q0 116.375-43.75 218.313t-119.875 178.062-178.063 119.875T896 1456t-218.313-43.75-178.062-119.875-119.875-178.063T336 896q0-42 7-82.25T368.375 742t51.188-50.75T504 672q64.75 0 112.875 17.5t91.438 38.5 87.5 38.5T896 784t100.188-17.5 87.5-38.5 91.437-38.5T1288 672zm56 168q0-22.75-16.625-39.375T1288 784q-37.625 0-69.125 8.313t-60.813 20.562-57.75 27.125-59.5 27.125-66.5 20.563T896 896t-78.313-8.313-66.5-20.562-59.5-27.125-57.75-27.125-60.812-20.563T504 784q-22.75 0-39.375 16.625T448 840v56q0 92.75 35.438 174.125t96.25 142.188 142.187 96.25T896 1344t174.125-35.438 142.188-96.25 96.25-142.187T1344 896v-56z"/></svg>