<svg width="64" height="64" viewBox="0 0 1792 1792" xmlns="http://www.w3.org/2000/svg"><path d="M1736 728l-168 168 168 168-168 168 168 168-336 336-168-168-168 168-168-168-168 168-168-168-168 168-336-336 168-168-168-168 168-168L56 728l168-168L56 392 392 56l168 168L728 56l168 168 168-168 168 168 168-168 336 336-168 168zm-158.375 336q-85.75-82.25-168-168 82.25-84.875 168-168-85.75-82.25-168-168 82.25-84.875 168-168L1400 214.375q-83.125 85.75-168 168-85.75-82.25-168-168-83.125 85.75-168 168-85.75-82.25-168-168-83.125 85.75-168 168-85.75-82.25-168-168L214.375 392q84.875 83.125 168 168-83.125 85.75-168 168 84.875 83.125 168 168-83.125 85.75-168 168 84.875 83.125 168 168-83.125 85.75-168 168L392 1577.625q82.25-84.875 168-168 84.875 83.125 168 168 82.25-84.875 168-168 84.875 83.125 168 168 82.25-84.875 168-168 84.875 83.125 168 168L1577.625 1400q-85.75-82.25-168-168 82.25-84.875 168-168z"/></svg>