<svg width="1792" height="1792" xmlns="http://www.w3.org/2000/svg"><path d="M1757.875 926.625q16.625 32.375 25.375 66.5T1792 1064v56q0 66.5-35.875 121.625t-96.25 82.25q-27.125 60.375-82.25 96.25T1456 1456q-60.375 0-112-29.75t-82.25-82.25h-619.5q-30.625 52.5-82.25 82.25T448 1456t-112-29.75-82.25-82.25H112q-23.625 0-43.75-8.75t-35.438-24.063T8.75 1275.75 0 1232v-224q0-70 26.25-131.25T98 770t106.75-71.75T336 672h32.375l336-336H1568l-52.5 105zm-364-478.625H1120v224h385.875zm-866.25 224H1008V448H751.625zM448 1344q23.625 0 43.75-8.75t35.438-24.063 24.062-35.437T560 1232t-8.75-43.75-24.063-35.438-35.437-24.062T448 1120t-43.75 8.75-35.438 24.063-24.062 35.437T336 1232t8.75 43.75 24.063 35.438 35.437 24.062T448 1344zm0-336q46.375 0 87.063 17.5t71.312 48.125 48.125 71.313T672 1232h336V784H336q-46.375 0-87.063 17.5t-71.312 48.125-48.125 71.313T112 1008v224h112q0-46.375 17.5-87.063t48.125-71.312 71.313-48.125T448 1008zm1008 336q23.625 0 43.75-8.75t35.438-24.063 24.062-35.437T1568 1232t-8.75-43.75-24.063-35.438-35.437-24.062T1456 1120t-43.75 8.75-35.438 24.063-24.062 35.437T1344 1232t8.75 43.75 24.063 35.438 35.437 24.062T1456 1344zm224-280q0-22.75-5.25-44.188t-16.625-41.562v-.875L1561 784h-441v448h112q0-46.375 17.5-87.063t48.125-71.312 71.313-48.125T1456 1008q36.75 0 70.875 11.375T1589 1051.75t49 50.313 32.375 64.312Q1680 1142.75 1680 1120v-56z"/></svg>