<svg width="1792" height="1792" viewBox="0 0 1792 1792" xmlns="http://www.w3.org/2000/svg"><path d="M448 0q167.125 0 326.375 39.813t304.938 113.75 273.874 178.5T1585.5 565.25q38.5 46.375 38.5 105.875 0 55.125-30.188 97.563T1512 830.375V980q0 25.375-8.75 48.125t-23.625 41.125-36.313 31.063-45.937 17.062q-4.375 25.375-17.063 46.375t-31.062 35.875-41.125 23.625T1260 1232q-39.375 0-73.063-20.125t-51.187-56l-522.375 521.5q-4.375 24.5-17.063 45.5t-31.062 36.313-41.563 24.062T476 1792q-28.875 0-54.25-10.938t-44.625-30.187-30.188-44.625T336 1652V293.125q-13.125-9.625-23.625-24.5t-17.5-31.938-10.938-35T280 168q0-35 13.125-65.625T329 49t53.375-35.875T448 0zm868 896q14.875 0 20.563 7.875t7 19.688 0 25.812 0 25.813 7 19.687 21.437 7.875q10.5 0 19.25-5.25T1400 980V830.375q-22.75-7.875-40.688-21T1326.5 778.75q-84.875-99.75-182.438-181.563T936.688 457.625t-232.313-89.688T448 336v1316q0 12.25 7.875 20.125T476 1680q11.375 0 17.5-5.25t8.313-12.688 2.187-16.624v-17.063l728-727.125V1092q0 12.25 7.875 20.125T1260 1120t20.125-7.875T1288 1092V924q0-12.25 7.875-20.125T1316 896zm140-168q22.75 0 39.375-16.625T1512 672q0-20.125-13.125-35.875-95.375-119-213.938-215.688t-253.312-165.375T749 149.188 448 112q-22.75 0-39.375 16.625T392 168t16.625 39.375T448 224q113.75 0 222.25 21.875t210 62.563 195.563 100.187T1253.874 542.5q44.625 39.375 82.25 80.938t77 84.437Q1430.625 728 1456 728zm-784-56q-23.625 0-43.75-8.75t-35.438-24.063-24.062-35.437T560 560t8.75-43.75 24.063-35.438 35.437-24.062T672 448t43.75 8.75 35.438 24.063 24.062 35.437T784 560t-8.75 43.75-24.063 35.438-35.437 24.062T672 672zm224 112q23.625 0 43.75 8.75t35.438 24.063 24.062 35.437T1008 896t-8.75 43.75-24.063 35.438-35.437 24.062T896 1008t-43.75-8.75-35.438-24.063-24.062-35.437T784 896t8.75-43.75 24.063-35.438 35.437-24.062T896 784zm-224 336q23.625 0 43.75 8.75t35.438 24.063 24.062 35.437T784 1232t-8.75 43.75-24.063 35.438-35.437 24.062T672 1344t-43.75-8.75-35.438-24.063-24.062-35.437T560 1232t8.75-43.75 24.063-35.438 35.437-24.062T672 1120z"/></svg>