<svg width="1792" height="1792" xmlns="http://www.w3.org/2000/svg"><path d="M784 784V672H672V560h112V448h112v112h112v112H896v112H784zm118.125 672q2.625 28.875 8.75 56.875t15.75 55.125H560q-23.625 0-43.75-8.75t-35.438-24.063-24.062-35.437T448 1456V336q0-23.625 8.75-43.75t24.063-35.438 35.437-24.062T560 224h756l252 252v450.625q-27.125-9.625-55.125-15.75t-56.875-8.75V532l-196-196H560v1120h342.125zM1792 1008v336h-336v-112h133q-35.875-54.25-94.5-83.125T1372 1120q-47.25 0-92.75 16.188t-80.938 45.5-56.874 70.437T1120 1344h-112q0-73.5 30.625-135.188t80.938-106.312 115.937-69.563T1372 1008q92.75 0 174.125 41.125T1680 1167.25V1008h112zm-364 672q47.25 0 92.313-16.188t80.5-45.5 57.312-70.437T1680 1456h112q0 73.5-30.625 135.188t-80.938 106.312-115.937 69.563T1428 1792q-92.75 0-174.125-41.125T1120 1632.75V1792h-112v-336h336v112h-133q35.875 54.25 94.5 83.125T1428 1680z"/></svg>