<svg width="64" height="64" viewBox="0 0 1792 1792" xmlns="http://www.w3.org/2000/svg"><path d="M784 784V672H672V560h112V448h112v112h112v112H896v112H784zm560 672h112v112h-112v-112zm56-616q46.375 0 87.063 17.5t71.312 48.125 48.125 71.313T1624 1064q0 38.5-12.25 67.813t-31.063 52.937-40.687 43.313-40.688 38.062-31.062 37.188T1456 1344h-112q0-37.625 12.25-66.938t31.063-52.937 40.687-43.313 40.688-38.062 31.062-37.188T1512 1064q0-23.625-8.75-43.75t-24.063-35.438-35.437-24.062T1400 952t-43.75 8.75-35.438 24.063-24.062 35.437T1288 1064h-112q0-46.375 17.5-87.063t48.125-71.312 71.313-48.125T1400 840zm-840 616h672v112H560q-23.625 0-43.75-8.75t-35.438-24.063-24.062-35.437T448 1456V336q0-23.625 8.75-43.75t24.063-35.438 35.437-24.062T560 224h751.625L1568 480.375v294Q1541.75 759.5 1513.75 749T1456 733.25V527.625L1264.375 336H560v1120z"/></svg>