<svg width="1792" height="1792" viewBox="0 0 1792 1792" xmlns="http://www.w3.org/2000/svg"><path d="M1680 1008v560H896v-560h112v-56q0-57.75 21.875-108.5t59.938-88.813 89.25-60.375T1288 672t108.5 22.313 88.813 60.375 60.374 88.812T1568 952v56h112zm-560 0h336v-56q0-35-13.125-65.625T1407 833t-53.375-35.875T1288 784t-65.625 13.125T1169 833t-35.875 53.375T1120 952v56zm448 112h-560v336h560v-336zM560 1456h224v112H560q-23.625 0-43.75-8.75t-35.438-24.063-24.062-35.437T448 1456V336q0-23.625 8.75-43.75t24.063-35.438 35.437-24.062T560 224h751.625L1568 480.375V672h-6.125Q1515.5 627.375 1456 599.375v-71.75L1264.375 336H560v1120zm448-784H896v112H784V672H672V560h112V448h112v112h112v112z"/></svg>