<svg width="64" height="64" viewBox="0 0 1792 1792" xmlns="http://www.w3.org/2000/svg"><path d="M1288 784q104.125 0 196 39.813t160.125 108.062T1752.188 1092 1792 1288t-39.813 196-108.062 160.125T1484 1752.188 1288 1792t-196-39.813-160.125-108.062T823.812 1484 784 1288t39.813-196 108.062-160.125T1092 823.812 1288 784zm406 504q0-84-31.938-157.938T1575 1001t-129.063-87.063T1288 882t-157.938 31.938T1001 1001t-87.063 129.063T882 1288t31.938 157.938T1001 1575t129.063 87.063T1288 1694t157.938-31.938T1575 1575t87.063-129.063T1694 1288zm-180.25-166.25L1347.5 1288l166.25 166.25-59.5 59.5L1288 1347.5l-166.25 166.25-59.5-59.5L1228.5 1288l-166.25-166.25 59.5-59.5L1288 1228.5l166.25-166.25zm-847 334.25q15.75 58.625 42 112H560v-112h106.75zM1792 224v664.125q-24.5-30.625-52.938-58.188T1680 778.75V336H560v560H336v224h330.75q-7 28-12.25 56t-7.875 56H336v336H224V896H0V224h1792zM448 560H336v112H224V560H112v224h336V560zm0-224H112v112h336V336z"/></svg>