<svg width="64" height="64" viewBox="0 0 1792 1792" xmlns="http://www.w3.org/2000/svg"><path d="M644 1120q131.25 0 230.563 39.375t166.25 112.438 101.062 176.312T1176 1680v112H112v-112q0-128.625 33.688-231.875t100.625-176.313T413 1159.376 644 1120zm0-112q-70 0-128.188-27.125t-99.75-73.063-64.312-107.187T329 672t22.75-128.625 64.313-107.188 99.75-73.062T644 336t128.188 27.125 99.75 73.063 64.312 107.187T959 672t-22.75 128.625-64.313 107.188-99.75 73.062T644 1008zM1596 0q35 0 59.5 24.5T1680 84v448q0 35-24.5 59.5T1596 616h-252l-224 224V616h-59.5q-7-61.25-28.438-118.563T975.188 392t-83.563-85.313T784 248.5V84q0-35 24.5-59.5T868 0h728z"/></svg>