<svg width="1792" height="1792" xmlns="http://www.w3.org/2000/svg"><path d="M838.25 1162q88.375 35 161 93.188t124.25 133.437 80.063 163.625T1232 1736v56h-112v-56q0-104.125-39.813-196t-108.062-160.125T812 1271.812 616 1232t-196 39.813-160.125 108.062T151.812 1540 112 1736v56H0v-56q0-95.375 28.438-183.75t80.062-163.625 124.25-133.438 161-93.187q-39.375-27.125-70.875-63t-53.375-77.438-33.688-87.5T224 840q0-81.375 31.063-152.688t84-124.25 124.25-84T616 448t152.688 31.063 124.25 84 84 124.25T1008 840q0 48.125-11.813 94.063t-33.687 87.5T909.125 1099t-70.875 63zM616 1120q57.75 0 108.5-21.875t88.813-59.938 60.375-89.25T896 840t-22.313-108.5-60.375-88.813-88.812-60.375T616 560t-108.938 22.313-89.25 60.375-59.937 88.812T336 840t21.875 108.938 59.938 89.25 89.25 59.937T616 1120zM1792 0v896h-224l-336 336V896h-112V784h224v177.625L1521.625 784H1680V112H560v201.25q-28 3.5-56.438 9.188T448 337.75V0h1344z"/></svg>