<svg width="64" height="64" viewBox="0 0 1792 1792" xmlns="http://www.w3.org/2000/svg"><path d="M1547 1568h133v112h-189q-28 55.125-65.188 83.563T1344 1792q-47.25 0-90.563-18.813t-76.562-54.687q-17.5-18.375-38.938-28.438T1092 1680q-49 0-84.875 38.5-33.25 35.875-76.563 54.688T840 1792t-90.563-18.813-76.562-54.687q-17.5-18.375-39.375-28.438T588 1680q-49 0-84.875 38.5-33.25 35.875-76.563 54.688T336 1792q-44.625 0-81.813-28.438T189 1680H0v-112h133L0 1301.125V1163.75l224-74.375V672h133l112-224h203V224h336v224h203l112 224h133v417.375l224 74.375v137.375zM784 448h112V336H784v112zM483 672h714l-56-112H539zm-147 379.75l504-168 504 168V784H336v267.75zm419.125 589.75q13.125 14.875 28.875 23.625V1020.25l-672 224v30.625L288.75 1627.5q13.125 27.125 26.25 39.813T336 1680q23.625 0 45.5-10.063t39.375-28.437q33.25-35.875 76.563-54.688T588 1568t90.563 18.813 76.562 54.687zm637-14.875L1568 1274.875v-30.625l-672-224v644.875q15.75-8.75 28.875-23.625 33.25-35.875 76.563-54.688T1092 1568t90.563 18.813 76.562 54.687Q1295 1680 1344 1680q7.875 0 21-12.688t26.25-39.812z"/></svg>