<svg width="1792" height="1792" xmlns="http://www.w3.org/2000/svg"><path d="M1547 1568h133v112h-189q-10.5 21-25.375 41.125t-33.25 35.875-40.25 25.375T1344 1792q-35.875 0-62.125-8.313t-46.813-20.562-36.75-26.688-32.374-26.687-33.688-20.563-40.25-8.312-40.25 8.313-33.25 20.124-31.938 26.25-36.312 26.25-46.813 20.126T840 1790.25t-63.438-8.313-46.812-20.124-36.313-26.25-31.937-26.25-33.25-20.126-40.25-8.312-40.25 8.313-33.688 20.562-32.375 26.688-36.75 26.687-46.812 20.563T336 1792q-27.125 0-49-9.188t-39.813-24.937T214.813 1722 189 1680l-1.75-2.625L0 1680v-112h133L0 1301.125V1163.75l224-74.375V672h133l112-224h203V224h336v224h203l112 224h133v417.375l224 74.375v137.375zM784 448h112V336H784v112zm560 603.75V784H336v267.75l504-168z"/></svg>