<svg width="1792" height="1792" xmlns="http://www.w3.org/2000/svg"><path d="M1344 1008q23.625 0 43.75 8.75t35.438 24.063 24.062 35.437T1456 1120v560h-224v-448H560v448H336v-560q0-23.625 8.75-43.75t24.063-35.438 35.437-24.062T448 1008h896zm-672 336h448v224H672v-224zm0-1064q-27.125 26.25-62.563 41.125T532 336H0V224q0-23.625 8.75-43.75t24.063-35.438T68.25 120.75 112 112h420q42 0 77.438 14.875T672 168l56 56zm1008 56q23.625 0 43.75 8.75t35.438 24.063 24.062 35.437T1792 448v1120h-224v-448q0-46.375-17.5-87.063t-48.125-71.312-71.313-48.125T1344 896H448q-46.375 0-87.063 17.5t-71.312 48.125-48.125 71.313T224 1120v448H0V448h560q65.625 0 122.938-29.75T784 336h896z"/></svg>