<svg width="64" height="64" viewBox="0 0 1792 1792" xmlns="http://www.w3.org/2000/svg"><path d="M1792 1568h-336v112h-336v-112H672v112H336v-112H0V224q0-23.625 8.75-43.75t24.063-35.438T68.25 120.75 112 112h420q39.375 0 67.813 8.313t50.75 20.562T690.375 168t35.438 27.125 38.5 20.563T812 224h868q23.625 0 43.75 8.75t35.438 24.063 24.062 35.437T1792 336v1232zM112 224v112h420q21 0 36.75-3.938t28.875-11.375 25.813-17.5T651 280q-14.875-13.125-27.563-23.188t-25.812-17.5-28.875-11.375T532 224H112zm1008 1232v-224H672v224h448zm224 112v-504q0-22.75-16.625-39.375T1288 1008H504q-22.75 0-39.375 16.625T448 1064v504h112v-448h672v448h112zm336-1232H812q-27.125 0-47.688 8.313t-38.5 20.562T689.938 392t-39.812 27.125-50.313 20.563T532 448H112v1008h224v-392q0-35 13.125-65.625T385 945t53.375-35.875T504 896h784q35 0 65.625 13.125T1407 945t35.875 53.375T1456 1064v392h224V336z"/></svg>