<svg width="1792" height="1792" xmlns="http://www.w3.org/2000/svg"><path d="M463.75 1582q-22.75 0-39.375-16.188T407.75 1526q0-18.375 9.625-31.938T444.5 1473.5q66.5-28 120.75-72.625t96.25-100.188 73.5-119.874T787.5 1050q6.125-18.375 19.688-30.188T841.75 1008q22.75 0 39.375 17.063t16.625 39.812q0 35.875-21 88.375t-56 109.813-80.5 114.624-93.625 102.376-95.813 73.5T463.75 1582zm266 98q-22.75 0-39.375-16.625T673.75 1624q0-28.875 25.375-47.25 30.625-21.875 65.625-56.875T834.313 1442t66.937-90.563 56.875-96.25 38.938-94.5 14.437-85.312q0-48.125-7-82.25t-25.813-55.563-52.062-31.5T841.75 896q-35 0-60.375 14.438t-44.625 38.5-35.438 56.437-33.687 68.688-38.5 73.937-50.313 73.063-69.125 66.062-94.937 52.5Q403.375 1344 392.875 1344q-22.75 0-39.375-16.625T336.875 1288q0-17.5 10.063-31.063t25.812-20.562q61.25-28.875 108.938-74.813t75.687-108.937q21.875-50.75 44.625-99.313t54.25-86.187 75.688-60.375T841.75 784q148.75 0 215.25 73.063t66.5 218.312q0 45.5-16.625 100.625t-44.188 113.75T998.375 1407t-77 109.813-82.25 91.437-79.625 63q-7 4.375-14 6.563T729.75 1680zm336 0q-22.75 0-39.375-16.625T1009.75 1624q0-13.125 5.25-23.625t14.875-20.125q49.875-48.125 90.563-110.688T1190.874 1337t45.938-143.063T1253 1051.75q0-71.75-27.563-140t-75.687-121.625-112.875-85.75T897.75 672q-82.25 0-134.313 10.938T677.25 714t-55.563 49-42.437 65.188-47.688 79.625T462 999.25q-33.25 38.5-74.375 71.313t-91 47.687q-3.5 1.75-7 1.75h-7q-23.625 0-40.688-17.063t-17.062-39.812q0-20.125 11.813-33.25T266 1009.75q50.75-19.25 84.438-48.563t57.75-64.75 43.75-73.937 42.437-76.125 52.938-71.313T623.875 616t112.875-40.688 161-15.312q65.625 0 125.563 18.813t112 52.5 94.5 80.062 72.624 101.5 46.376 116.375T1365 1054.375q0 44.625-9.188 99.75t-26.25 114.625-40.687 119-52.938 112.875-63.437 96.688-71.75 70.437q-7.875 5.25-16.625 8.75t-18.375 3.5zM1456 784q-34.125 0-50.75-32.375-83.125-150.5-209.125-227.063T896 448q-70.875 0-135.625 7.438t-122.063 28.437-106.75 59.5T441 643.125q-8.75 13.125-20.563 21T392 672q-22.75 0-39.375-16.625T336 616q0-13.125 7-27.125 39.375-75.25 101.5-124.25T581 387.187t155.75-39.812T896 336q94.5 0 187.25 24.063t174.125 70.437T1403.5 545.563t103.25 158.812Q1512 716.625 1512 728q0 22.75-16.625 39.375T1456 784zm-112-444.5q-13.125 0-27.125-7Q1215.375 280 1113 252t-217-28q-98.875 0-188.563 21t-179.812 60.375Q521.5 308 515.812 309.75t-12.687 1.75q-22.75 0-38.938-16.625T448 255.5q0-25.375 27.563-45.938t70.875-36.75 95.375-27.562 101.937-18.813 91-10.937T896 112q21.875 0 67.813 4.813t101.937 14.874 115.5 24.5 108.063 33.688 79.624 42.438T1400 283.5q0 22.75-16.625 39.375T1344 339.5z"/></svg>