<svg width="64" height="64" viewBox="0 0 1792 1792" xmlns="http://www.w3.org/2000/svg"><path d="M112 504q0 35 13.125 65.625T161 623t53.375 35.875T280 672q22.75 0 39.375 16.625T336 728t-16.625 39.375T280 784q-57.75 0-108.938-21.875t-89.25-59.938-59.937-89.25T0 504t21.875-108.5 59.938-88.813 89.25-60.375T280 224h392v112H280q-35 0-65.625 13.125T161 385t-35.875 53.375T112 504zm1553.125 190.75q28 7 51.188 22.313t40.25 37.187 26.25 48.125T1792 857.5V1288q0 104.125-39.813 196t-108.062 160.125T1484 1752.188 1288 1792q-127.75 0-234.938-47.688T855.75 1606.5l-413-412.125q-24.5-24.5-37.625-56.875T392 1071q0-36.75 13.563-68.25t37.187-55.125 55.563-37.188 67.812-13.562T633.5 910t56.875 37.625Q714 970.375 737.188 994T784 1040.375v-864.5q0-35.875 12.25-67.813t34.563-56T884.188 14 952 0q35 0 65.625 13.125T1071 49t35.875 53.375T1120 168v390.25zM1680 857.5q0-20.125-11.813-35t-31.062-19.25L1120 673.75q0 15.75.438 35t-4.376 35.875-16.624 28T1064 784q-22.75 0-39.375-16.625T1008 728V168q0-22.75-16.625-39.375T952 112t-39.375 16.625T896 168v912.625q0 20.125-7.438 37.625t-20.125 30.188-30.187 20.124-37.625 7.438q-18.375 0-36.75-7.438t-31.5-20.562l-120.75-121.625Q593.25 1008 567 1008q-25.375 0-44.188 18.375T504 1071q0 25.375 18.375 43.75l413 413.875q72.625 73.5 160.563 112.438T1288 1680q81.375 0 152.688-31.063t124.25-84 84-124.25T1680 1288V857.5zM1568 168q0 35-13.125 65.625T1519 287t-53.375 35.875T1400 336h-168V224h168q22.75 0 39.375-16.625T1456 168q0-21-8.313-31.5t-20.562-16.188T1400 112t-27.125-8.313-20.563-16.187T1344 56q0-22.75 16.625-39.375T1400 0q35 0 65.625 13.125T1519 49t35.875 53.375T1568 168z"/></svg>