<svg width="1792" height="1792" viewBox="0 0 1792 1792" xmlns="http://www.w3.org/2000/svg"><path d="M896 1241.625q25.375 8.75 45.938 24.5t35.437 36.75 22.75 45.938T1008 1400q0 35-13.125 65.625T959 1519t-53.375 35.875T840 1568t-65.625-13.125T721 1519t-35.875-53.375T672 1400q0-26.25 7.875-51.188t22.75-45.937 35.438-36.75 45.937-24.5V896h112v345.625zm224-87.5q49.875 55.125 77.438 123.375T1225 1420.125q0 78.75-31.063 146.563t-84 117.687T987 1763.125 840 1792t-147-28.875-122.938-78.75-84-117.688T455 1420.126q0-74.375 27.563-142.625T560 1154.125V280q0-57.75 21.875-108.5t59.938-88.813 89.25-60.374T840 0t108.5 22.313 88.813 60.374 60.374 88.813T1120 280v874.125zM840 1680q54.25 0 103.688-20.125t87.062-55.125 59.938-83.125 22.312-103.25q0-65.625-28.875-120.313T1008 1199.626V280q0-35-13.125-65.625T959 161t-53.375-35.875T840 112t-65.625 13.125T721 161t-35.875 53.375T672 280v919.625q-47.25 43.75-76.125 98.438T567 1418.374q0 55.125 22.313 103.25t59.937 83.125 87.063 55.125T840 1680z"/></svg>