<svg width="1792" height="1792" viewBox="0 0 1792 1792" xmlns="http://www.w3.org/2000/svg"><path d="M1554 392q0 165.375-1.75 328.125t-8.75 328.125q-4.375 105.875-9.625 213.938t-22.75 213.062q-5.25 32.375-14 68.688t-22.75 70.874-35 63.876-51.625 47.687q-19.25 11.375-47.688 19.25t-62.562 13.125-70.875 8.75-71.75 4.813-65.625 1.75-52.5.437L966 1615.25q29.75 1.75 59.5 3.063t59.5 1.312q28 0 63-.438t69.125-7.437 62.563-22.313T1323 1543.5q11.375-24.5 20.563-74.375t16.187-116.375 11.375-144.375 7.875-158.813 5.25-160.124 2.625-148.313.875-123.375v-84.875h-469q-6.125 130.375-20.125 252.875T857.5 1022t-69.563 218.75-105 201.688-147.875 184.187T336.875 1792L227.5 1681.75q102.375-68.25 180.25-147.875t135.188-168.438T638.75 1179.5t63.438-202.125 37.187-216.563T756 532.875H280V392h476v-4.375h4.375q1.75-98 1.75-193.813V0H931q0 97.125-1.313 193.375t-3.062 193.375L924 392h630z"/></svg>