<svg width="64" height="64" viewBox="0 0 1792 1792" xmlns="http://www.w3.org/2000/svg"><path d="M1151.5 672q102.375 15.75 180.25 61.688t130.375 114.187 79.188 156.188T1568 1191.75q0 147-49.438 252t-135.187 175.875-201.25 112T934.5 1792L875 1663.375q63-8.75 127.75-24.938t124.25-42 112-61.687 91-84 60.813-108.5 22.312-134.75q0-71.75-16.188-140.875t-51.624-126-91-95.813T1120 793.625q-20.125 55.125-47.25 123.813t-60.813 142.625-74.375 150.062-87.5 147-100.187 133.438T637.437 1599.5t-124.687 73.063-136.5 26.687q-70 0-120.313-21t-82.687-59.5-48.125-92.75-15.75-119.875q0-115.5 29.75-214.813t86.188-182 137.375-148.75T546.875 747.25q1.75-84.875 3.938-168.875t4.812-168.875q-131.25 2.625-263.375 2.625h-50.313l-50.312-.875V280.875q51.625 1.75 102.813 2.188t102.812.437h82.25l82.25-.875q5.25-70.875 10.063-141.313T581 0l148.75 9.625Q723.625 77 717.937 143.063T707.875 276.5q170.625-7.875 339.063-21.875t338.187-33.25V351.75q-342.125 35-686.875 49.875-2.625 74.375-5.688 148.75t-4.812 148.75q77.875-23.625 158.813-31.938T1008 658.875q11.375-34.125 19.25-68.688t14.875-69.562l143.5 27.125q-14 61.25-34.125 124.25zm-783.125 884.625q37.625 0 73.5-12.25T511 1512t63-45.5 55.125-50.75q-38.5-127.75-56.875-259.438T549.5 891.625q-69.125 37.625-124.25 91.438t-94.063 118.562-59.937 139.125-21 153.125q0 28 5.688 56.875t19.687 52.5 36.313 38.5 56.437 14.875zM740.25 1275.75Q819 1162.875 875 1036.437t99.75-256.812q-73.5 0-145.688 11.375T687.75 826q4.375 112.875 14.438 226.625t38.062 223.125z"/></svg>