<svg width="1792" height="1792" viewBox="0 0 1792 1792" xmlns="http://www.w3.org/2000/svg"><path d="M1644.125 483.875q71.75 71.75 109.813 163.188T1792 840q0 30.625-1.75 73.5t-7.438 92.75-16.624 102.813-28.438 103.687q-26.25 75.25-61.25 122.938t-72.625 74.374-76.125 36.313T1456 1456q-28.875 0-52.938-10.063t-45.5-25.812-40.25-36.313-37.187-41.562-36.313-40.25-37.187-34.563-40.688-24.937-46.812-10.5h-446.25q-25.375.875-46.813 10.5t-40.687 24.938T548.187 1302t-36.312 40.25-37.188 41.563-40.25 36.312-45.5 25.813T336 1456q-33.25 0-71.75-9.625t-76.125-36.313-72.625-74.374-61.25-122.938q-17.5-50.75-28.438-103.688T9.188 1006.25 1.75 913.5 0 840q0-101.5 38.063-192.938t109.812-163.187q70.875-71.75 162.75-109.813T504 336h784q101.5 0 192.938 38.063t163.187 109.812zM1631.875 1176q16.625-46.375 26.25-96.25t14.438-95.813 6.124-83.562T1680 840q0-81.375-31.063-152.688t-84-124.25-124.25-84T1288 448H504q-81.375 0-152.688 31.063t-124.25 84-84 124.25T112 840q0 22.75 1.313 60.375t6.124 83.563 14.438 95.812 26.25 96.25q21.875 63 48.125 97.125T259.438 1323t45.5 18.375T336 1344q19.25 0 42.438-23.188T427 1268.75q21-24.5 45.063-50.313t53.375-47.25 65.187-35.437T670.25 1120h451.5q43.75 1.75 79.625 15.75t65.188 35.438 53.374 47.25T1365 1268.75q25.375 28.875 48.563 52.063T1456 1344q10.5 0 31.063-2.625t45.5-18.375 51.187-49.875 48.125-97.125zM448 784h112v112H448v112H336V896H224V784h112V672h112v112zm1008 112q23.625 0 43.75 8.75t35.438 24.063 24.062 35.437T1568 1008t-8.75 43.75-24.063 35.438-35.437 24.062T1456 1120t-43.75-8.75-35.438-24.063-24.062-35.437T1344 1008t8.75-43.75 24.063-35.438 35.437-24.062T1456 896zm-224-224q23.625 0 43.75 8.75t35.438 24.063 24.062 35.437T1344 784t-8.75 43.75-24.063 35.438-35.437 24.062T1232 896t-43.75-8.75-35.438-24.063-24.062-35.437T1120 784t8.75-43.75 24.063-35.438 35.437-24.062T1232 672z"/></svg>