<svg width="1792" height="1792" viewBox="0 0 1792 1792" xmlns="http://www.w3.org/2000/svg"><path d="M896 0q115.5 0 217.438 44.188T1291.5 164.5t120.313 178.063T1456 560v672q0 115.5-44.188 217.438T1291.5 1627.5t-178.063 120.313T896 1792t-217.438-44.188T500.5 1627.5t-120.313-178.063T336 1232V560q0-115.5 44.188-217.438T500.5 164.5 678.563 44.187 896 0zm0 896q69.125 0 130.375-26.688t106.75-72.187 72.188-106.75T1232 560t-26.688-130.375-72.187-106.75-106.75-72.188T896 224t-130.375 26.688-106.75 72.187-72.188 106.75T560 560t26.688 130.375 72.187 106.75 106.75 72.188T896 896zm0-569.625q48.125 0 90.563 18.375t74.375 50.313 50.312 74.375T1129.625 560t-18.375 90.563-50.313 74.375-74.374 50.312T896 793.625t-90.563-18.375-74.375-50.313-50.312-74.375T662.375 560t18.375-90.563 50.313-74.375 74.375-50.312T896 326.375z"/></svg>