<svg width="1792" height="1792" viewBox="0 0 1792 1792" xmlns="http://www.w3.org/2000/svg"><path d="M840 1008h112v112H840v-112zm56-672q46.375 0 87.063 17.5t71.312 48.125 48.125 71.313T1120 560q0 41.125-12.25 71.313T1076.687 686 1036 730.188t-40.688 38.937T964.25 808.5 952 854v42H840v-42q0-40.25 12.25-70.875T883.313 728 924 683.812t40.688-38.937T995.75 605.5 1008 560q0-23.625-8.75-43.75t-24.063-35.438-35.437-24.062T896 448t-43.75 8.75-35.438 24.063-24.062 35.437T784 560H672q0-46.375 17.5-87.063t48.125-71.312 71.313-48.125T896 336zm336 748.125q104.125 49 187.25 122.5T1560.125 1372t88.813 198.625T1680 1792h-112q0-108.5-31.063-208.688T1448.126 1400t-140.875-146.125-187.25-98v-210q51.625-29.75 93.188-71.313t70.437-91.437 44.625-106.313T1344 560q0-92.75-35.438-174.125t-96.25-142.188-142.187-96.25T896 112t-174.125 35.438-142.188 96.25-96.25 142.187T448 560q0 60.375 15.75 116.813t44.625 106.312 70.438 91.438T672 945.875v211.75q-104.125 35.875-187.25 98t-140.875 144.813-88.813 182.437T224 1792H112q0-114.625 31.063-221.375T231.875 1372t140.875-165.375 187.25-122.5v-80.5q-52.5-39.375-94.063-88.813T395.5 808.5t-44.188-119.875T336 560q0-77 20.125-148.75t56.438-133.875 87.5-113.313 113.312-87.5T747.25 20.126 896 0t148.75 20.125 133.875 56.438 113.313 87.5 87.5 113.312 56.437 133.875T1456 560q0 65.625-15.313 128.625T1396.5 808.5t-70.438 106.313-94.062 88.812v80.5z"/></svg>