<svg width="64" height="64" viewBox="0 0 1792 1792" xmlns="http://www.w3.org/2000/svg"><path d="M1776.25 508.375q11.375 0 13.563 11.813T1792 539q0 50.75-3.063 100.625t-4.812 100.625l-2.188 87.5-3.5 115.5-5.687 133.875-8.313 142.625-11.812 141.313L1736 1491l-22.313 108.5-28.437 77q-18.375 33.25-42.438 54.688t-52.937 34.562-62.125 18.375-68.25 5.25q-14.875 0-18.813-8.313t-7.437-19.687q-9.625-30.625-23.188-58.625t-31.937-54.25q20.125.875 42.438 1.313t44.624-1.313 43.75-7 39.813-15.75q17.5-9.625 29.313-35.438t19.687-56.437 11.813-60.375 6.562-47.25q12.25-98 20.125-196.875t12.688-197.75 7.437-197.75 4.375-197.75h-231q-12.25 172.375-35.438 341.25t-69.562 336q-15.75 56.875-37.188 120.313T1239 1559.25t-60.375 119.438T1106 1780.624q-4.375 4.375-9.188 7.875T1085 1792q-8.75 0-15.75-8.75-20.125-23.625-40.25-38.938t-50.75-26.687q91.875-109.375 150.063-240.625t93.624-272.125 52.5-285.688 25.813-283.062h-108.5q-36.75 0-73.938 1.313t-73.937 5.687q-1.75 0-2.188.438t-2.187.437q-7 0-10.5-19.25t-5.688-43.313-2.625-46.812-.437-30.625q42.875 4.375 85.75 6.563t86.625 2.187h113.75q5.25-90.125 9.188-179.375T1319.5 154q0-39.375-1.75-77t-4.375-77q7.875 1.75 29.313 5.25t45.062 8.313 43.75 10.062 26.25 8.75q18.375 11.375 18.375 28.875 0 9.625-3.063 16.625t-7.437 14.875q-6.125 11.375-9.625 36.313T1450.312 182t-3.5 53.813-1.312 38.937q-3.5 117.25-10.5 238h161q45.5 0 90.125-2.188t90.125-2.187zM672 1456h112v336H0v-336h112v224h560v-224z"/></svg>