<svg width="1792" height="1792" viewBox="0 0 1792 1792" xmlns="http://www.w3.org/2000/svg"><path d="M1366.75 336q22.75 0 54.688-2.625t66.5-3.063 69.124 3.063 61.688 16.188 44.188 36.312T1680 448v784q0 23.625-8.75 43.75t-24.063 35.438-35.437 24.062T1568 1344H112q-23.625 0-43.75-8.75t-35.438-24.063T8.75 1275.75 0 1232V448q0-23.625 8.75-43.75t24.063-35.438T68.25 344.75 112 336h761.25l284.375-284.375q24.5-24.5 56.438-38.063T1281 0q35.875 0 67.375 14t55.125 37.625 37.625 55.563 14 67.812q0 28.875-6.563 50.313t-18.374 39.812-28 35.438T1366.75 336zM1281 112q-25.375 0-43.75 18.375l-717.5 717.5L490 966l118.125-29.75 595.875-595q-1.75-1.75.438-4.375t3.937-.875q10.5-10.5 33.25-29.75t45.5-41.563 39.813-45.937T1344 175q0-26.25-18.813-44.625T1281 112zm287 336h-313.25l-588.875 589.75L336 1120l82.25-329.875L761.25 448H112v784h1456V448z"/></svg>