<svg width="1792" height="1792" viewBox="0 0 1792 1792" xmlns="http://www.w3.org/2000/svg"><path d="M840 224q54.25 0 119.438 6.125t134.312 19.688 139.563 35T1368.937 336t121.626 68.25 98.874 87.063 66.5 107.625T1680 728v112q0 35-13.125 65.625T1631 959t-53.375 35.875T1512 1008h-224q-49 0-79.625-14.438T1160.25 955.5t-24.938-53.813-10.5-61.687-4.374-61.688-6.126-53.812-16.187-38.063T1064 672H616q-22.75 0-34.125 14.438T565.687 724.5t-6.125 53.813T555.188 840t-10.5 61.688T519.75 955.5t-48.125 38.063T392 1008H168q-35 0-65.625-13.125T49 959t-35.875-53.375T0 840V728q0-70 24.063-129.063t66.5-107.625 98.874-87.062T311.063 336t135.625-51.188 139.563-35 134.313-19.687T840 224zm728 504q0-73.5-38.5-130.813t-101.063-101.062-141.312-73.938-159.688-49.437-156.624-28T840 336t-130.813 8.75-156.625 28-159.687 49.438-141.313 73.937T150.5 597.188 112 728v112q0 22.75 16.625 39.375T168 896h224q28.875 0 41.563-19.688t15.75-46.375.875-55.125T448 728q0-35 13.125-65.625T497 609t53.375-35.875T616 560h448q35 0 65.625 13.125T1183 609t35.875 53.375T1232 728q0 18.375-2.188 46.813t.876 55.125 15.75 46.375T1288 896h224q22.75 0 39.375-16.625T1568 840V728zm-487.375 576.625l78.75 78.75L840 1702.75l-319.375-319.375 78.75-78.75L784 1488.375V896h112v592.375z"/></svg>