<svg width="64" height="64" viewBox="0 0 1792 1792" xmlns="http://www.w3.org/2000/svg"><path d="M1226.75 341.25q110.25 112 169.75 254.625T1456 896t-59.5 300.125-169.75 254.625l-79.625-79.625q95.375-95.375 146.125-217.875T1344 896t-50.75-257.25-146.125-217.875zm-238 238q63.875 63.875 97.563 145.25T1120 896t-33.688 171.5-97.562 145.25L910 1134q47.25-47.25 72.625-108.938T1008 896t-25.375-129.063T910 658zM392 448q81.375 0 152.688 30.625t124.687 84 84 124.688T784 840v245.875q0 33.25-14.875 60.375t-38.5 46.375-53.813 29.313T616 1232h-56V896h56l56 8.75V840q0-57.75-22.313-108.5t-60.375-88.813-88.812-60.375T392 560t-108.938 22.313-89.25 60.375-59.937 88.812T112 840v64.75q14-4.375 27.563-6.563T168 896h56v336h-56q-30.625 0-60.813-10.063t-53.812-29.312-38.5-46.375T0 1085.875V840q0-81.375 30.625-152.688t84-124.687 124.688-84T392 448z"/></svg>