<svg width="1792" height="1792" xmlns="http://www.w3.org/2000/svg"><path d="M896 112q92.75 0 178.5 24.063t160.563 67.812 136.062 105 105 136.063 67.813 160.562T1568 784v616q0 35-13.125 65.625T1519 1519t-53.375 35.875T1400 1568h-168V896h168q28.875 0 56 9.625V784q0-115.5-44.188-217.438T1291.5 388.5t-178.063-120.313T896 224t-217.438 44.188T500.5 388.5 380.187 566.563 336 784v121.625Q363.125 896 392 896h168v672H392q-35 0-65.625-13.125T273 1519t-35.875-53.375T224 1400V784q0-92.75 24.063-178.5t67.812-160.563 105-136.062 136.063-105T717.5 136.062 896 112zm-504 896q-22.75 0-39.375 16.625T336 1064v336q0 22.75 16.625 39.375T392 1456h56v-448h-56zm1008 448q22.75 0 39.375-16.625T1456 1400v-336q0-22.75-16.625-39.375T1400 1008h-56v448h56z"/></svg>