<svg width="1792" height="1792" viewBox="0 0 1792 1792" xmlns="http://www.w3.org/2000/svg"><path d="M303.625 896H269.5L896 1522.5l514.5-514.5h158.375L896 1680.875l-756.875-756q-30.625-30.625-54.25-66.063T43.75 784h212.625L504 537.25l392 391.125 280-279.125L1311.625 784h310.625q28-44.625 42.875-94.5T1680 587.125q0-76.125-28.438-141.75t-77.874-114.188-115.5-76.125T1316 227.5q-73.5 0-130.375 23.188t-105 60.812-92.313 85.313T896 493.5q-47.25-47.25-91.875-95.375T710.937 311.5t-105.875-63T476 224q-75.25 0-141.313 28.438t-115.5 77.875-77.875 115.5-28.437 141.312q0 41.125 9.625 84.875H7.875Q3.5 651 2.187 630T.875 588q0-98.875 37.188-185.5t101.5-151.375T290.5 149.187 476 112q72.625 0 129.5 16.625t105.438 45.938T803.688 245 896 335.125q48.125-49 92.313-90.125t92.75-70.438 105.437-45.937T1316 112q98 0 184.625 37.188t150.938 101.062 101.5 150.5 37.187 184.625q0 84.875-29.75 164.938T1675.625 896h-411.25L1176 806.75l-280 280.875L504 694.75z"/></svg>