<svg width="1792" height="1792" xmlns="http://www.w3.org/2000/svg"><path d="M1316 112q98.875 0 185.5 37.625t151.375 101.938 101.938 151.375T1792 588q0 95.375-36.313 182.875t-102.812 154l-756.875 756-756.875-756q-66.5-66.5-102.813-154T0 588q0-98 37.188-185.063t101.937-151.375T290.5 149.625 476 112q72.625 0 129.5 16.625t105.438 45.938T803.688 245 896 335.125q48.125-49 92.313-90.125t92.75-70.438 105.437-45.937T1316 112zm257.25 733.25q51.625-51.625 78.75-118.125T1679.125 588q0-76.125-28-142.188t-77.438-114.625-115.5-76.125T1316 227.5q-73.5 0-130.375 23.188t-105 60.812-92.313 85.313T896 493.5q-47.25-47.25-91.875-95.375T710.937 311.5t-105.875-63T476 224q-75.25 0-141.75 28.438t-115.938 77.875-77.875 115.937T112 588q0 72.625 27.563 139.125T218.75 845.25L896 1522.5z"/></svg>