<svg width="1792" height="1792" viewBox="0 0 1792 1792" xmlns="http://www.w3.org/2000/svg"><path d="M1316 111.125q98.875 0 185.5 37.188t151.375 101.937 101.938 151.375 37.187 185.5q0 95.375-36.313 182.438t-102.812 153.562L896 1680 139.125 923.125q-66.5-66.5-102.813-153.563T0 587.125q0-98.875 37.188-185.5T139.125 250.25 290.5 148.312 476 111.126q97.125 0 182.438 35.438T812.875 250.25q21 20.125 41.563 41.125t41.562 42q21-21 41.563-42t41.562-41.125q69.125-68.25 154.438-103.688T1316 111.126zm257.25 733.25q51.625-51.625 78.75-118.125t27.125-139.125q0-76.125-28.438-142.188t-77.437-115.5-115.063-77.875T1316 223.125q-73.5 0-139.125 27.125T1058.75 329Q1001 385.875 946.312 443.625t-110.687 115.5l336 336-264.25 263.375-78.75-78.75 184.625-184.625-336-336 142.625-143.5q-22.75-20.125-43.75-42.875T733.25 329q-52.5-51.625-117.688-78.75T476 223.125q-76.125 0-142.188 28.438t-115.5 77.875-77.875 115.5T112 587.125q0 71.75 28 139.125t78.75 118.125L896 1521.625z"/></svg>