<svg width="1792" height="1792" xmlns="http://www.w3.org/2000/svg"><path d="M896.044 1680H784.05v112h111.993v-112zM840.05 0q-69.122 0-133.429 17.938t-120.306 50.75-102.368 79.187-79.182 102.375-50.746 120.313T336.082 504q0 73.5 19.25 133t50.747 108.938 71.746 91.437 82.245 81.375 82.245 78.313 71.746 82.687 50.747 94.5 19.25 113.75v168H896.05v-168q0-73.5-19.25-133t-50.747-108.938-71.746-91-82.245-80.937-82.245-78.75-71.746-83.125-50.747-94.5T448.075 504q0-81.375 31.061-152.688t83.995-124.25 124.241-84T840.051 112t152.677 31.063 124.241 84 83.995 124.25T1232.024 504h111.994q0-69.125-17.938-133.438t-50.746-120.312-79.183-102.375-102.368-79.188-120.305-50.75T840.049 0z"/></svg>