<svg width="1792" height="1792" viewBox="0 0 1792 1792" xmlns="http://www.w3.org/2000/svg"><path d="M784 1680h112v112H784v-112zM840 0q69.125 0 133.438 17.938t120.312 50.75 102.375 79.187 79.188 102.375 50.75 120.313T1344 504q0 73.5-19.25 133T1274 745.938t-71.75 91.437T1120 918.75t-82.25 78.313T966 1079.75t-50.75 94.5T896 1288v168H784v-168q0-73.5 19.25-133T854 1046.062t71.75-91 82.25-80.937 82.25-78.75T1162 712.25t50.75-94.5T1232 504q0-81.375-31.063-152.688t-84-124.25-124.25-84T840 112t-152.688 31.063-124.25 84-84 124.25T448 504H336q0-69.125 17.938-133.438t50.75-120.312 79.187-102.375T586.25 68.687t120.313-50.75T840 0z"/></svg>