<svg width="1792" height="1792" viewBox="0 0 1792 1792" xmlns="http://www.w3.org/2000/svg"><path d="M1792 0v448q-100.625 0-164.5 29.75T1526 557.813t-52.938 117.25-19.25 141.75-.874 152.687T1456 1120h-224v336l-672 336v-672H336q0-72.625 3.063-150.5t-.875-152.688-19.25-141.75T266 557.813 164.5 477.75 0 448V0h112v336h1568V0h112zm-672 1120H672v490.875l448-224V1120zm224-112q0-77.875-1.75-152.688t8.313-145.687 38.062-136.5 87.5-125.125H315.875q59.5 60.375 87.5 126t38.063 135.625 8.312 144.813T448 1008h896z"/></svg>