<svg width="1792" height="1792" xmlns="http://www.w3.org/2000/svg"><path d="M896 448v480.375l319.375 320.25-78.75 78.75L784 975.625V448h112zm826 98.875q70 168 70 349.125t-70 349.125q-68.25 160.125-192.5 284.375T1245.125 1722q-168 70-349.125 70-152.25 0-294-49.875-138.25-48.125-252.875-136.5-113.75-88.375-195.125-208.25-41.125-60.375-71.313-126t-49.437-136.5l107.625-29.75q35 126.875 108.063 232.75t172.812 182T643.125 1638 896 1680q107.625 0 207.813-28t187.25-79.188 158.812-122.937 122.938-158.813T1652 1104.25 1680 896q0-107.625-28-207.813t-79.188-187.25-122.937-158.812-158.813-122.938T1103.813 140 896 112q-113.75 0-220.5 31.938T476.437 234.5t-166.25 141.313T188.125 560H448v112H0V224h112v239.75q14.875-28 32.375-54.688T181.125 357q82.25-109.375 192.5-189 115.5-82.25 247.625-125.125T896 0q181.125 0 349.125 70 160.125 68.25 284.375 192.5T1722 546.875z"/></svg>