<svg width="64" height="64" viewBox="0 0 1792 1792" xmlns="http://www.w3.org/2000/svg"><path d="M280 560q57.75 0 108.5 22.313t88.813 60.375 60.375 88.812T560 840t-22.313 108.938-60.375 89.25-88.812 59.937T280 1120t-108.938-21.875-89.25-59.938-59.937-89.25T0 840t21.875-108.5 59.938-88.813 89.25-60.375T280 560zm0 448q35 0 65.625-13.125T399 959t35.875-53.375T448 840t-13.125-65.625T399 721t-53.375-35.875T280 672t-65.625 13.125T161 721t-35.875 53.375T112 840t13.125 65.625T161 959t53.375 35.875T280 1008zm1340.5 68.25q40.25 26.25 72.188 62.125t53.812 77.875 33.688 88.813T1792 1400q0 81.375-30.625 152.688t-84 124.687-124.688 84T1400 1792t-152.688-30.625-124.687-84-84-124.688T1008 1400q0-43.75 8.75-82.25-77-25.375-140.438-72.625t-108.937-110.25-70.438-138.25T672 840q0-104.125 39.813-196t108.062-160.125T980 375.812 1176 336q15.75 0 31.5.875t31.5 2.625q-7-30.625-7-59.5 0-57.75 21.875-108.5t59.938-88.813 89.25-60.374T1512 0t108.5 22.313 88.813 60.374 60.374 88.813T1792 280q0 46.375-14.875 89.688t-42 78.75-64.75 61.687-82.25 39.375q45.5 63.875 68.688 137.813T1680 840q0 62.125-14.875 121.625T1620.5 1076.25zM1344 280q0 54.25 32.375 97.125 30.625 13.125 59.5 30.625t55.125 38.5q5.25.875 10.5 1.313t10.5.437q35 0 65.625-13.125T1631 399t35.875-53.375T1680 280t-13.125-65.625T1631 161t-53.375-35.875T1512 112t-65.625 13.125T1393 161t-35.875 53.375T1344 280zM784 840q0 63 19.688 122.063t55.562 108.5T945 1156.75t110.25 56q54.25-95.375 144.375-150.063T1400 1008q62.125 0 119.875 18.375 23.625-42.875 35.875-90.125T1568 840q0-83.125-33.688-158.375t-94.062-131.25l-3.5-.875q-30.625-25.375-60.813-43.75T1309 471.625l-.875-.875Q1244.25 448 1176 448q-81.375 0-152.688 31.063t-124.25 84-84 124.25T784 840zm616 840q57.75 0 108.5-21.875t88.813-59.938 60.374-89.25T1680 1400q0-61.25-22.75-112.438t-62.125-88.374T1503.25 1141t-112-21q-56 0-105.438 23.188t-86.187 62.124-58.188 89.25T1120 1400q0 57.75 21.875 108.938t59.938 89.25 89.25 59.937T1400 1680z"/></svg>