<svg width="64" height="64" viewBox="0 0 1792 1792" xmlns="http://www.w3.org/2000/svg"><path d="M840 1680q-116.375 0-223.563-29.75t-200.812-84.438-170.188-131.25-131.25-170.187-84.437-200.813T0 840t29.75-223.563 84.438-200.812 131.25-170.188 170.187-131.25T616.438 29.75 840 0t223.563 29.75 200.812 84.438 170.188 131.25 131.25 170.187 84.437 200.813T1680 840t-29.75 223.563-84.438 200.812-131.25 170.188-170.187 131.25-200.813 84.437T840 1680zm0-1568q-100.625 0-193.375 26.25t-173.688 73.5T325.5 325.5 211.75 472.938t-73.5 174.125T112 840t26.25 192.938 73.5 174.124T325.5 1354.5t147.438 113.75 173.687 73.5T840 1568q99.75 0 192.938-26.25t174.124-73.5T1354.5 1354.5t113.75-147.438 73.5-173.687T1568 840q0-99.75-26.25-192.938t-73.5-174.125T1354.5 325.5t-147.438-113.75-174.124-73.5T840 112zm-56 560h112v560H784V672zm0-224h112v112H784V448z"/></svg>