<svg width="1792" height="1792" xmlns="http://www.w3.org/2000/svg"><path d="M1680 448h-105l-392.875 784h-63q-.875 24.5-3.063 61.688t-7 81.374-13.124 91.876-20.126 94.062-28.437 88.375-38.5 73.5T959 1773.188 896 1792q-46.375 0-80.5-32.375t-58.625-83.563-40.688-114.624-25.375-126-13.125-116.376-4.812-87.062h-63L217 448H112V0h112v336h1344V0h112v448zM896 1680q20.125-10.5 35.875-41.563t28-73.937 20.563-91.875 14-95.375 8.75-84.875 3.937-60.375h-222.25q.875 21.875 3.938 60.375t8.75 84.875 14 95.375 20.562 91.875 28 73.938T896 1680zm553-1232H343l336 672h434z"/></svg>