<svg width="1792" height="1792" xmlns="http://www.w3.org/2000/svg"><path d="M336 672H224V560h112v112zM224 784h224v112H224V784zm1008 0h224v112h-224V784zm0 224h224v112h-224v-112zm-1008 0h224v112H224v-112zm336 0h560v112H560v-112zm0-336H448V560h112v112zm0 112h112v112H560V784zm224 0h112v112H784V784zm224 0h112v112h-112V784zM784 672H672V560h112v112zm224 0H896V560h112v112zm224 0h-112V560h112v112zM1603 0q39.375 0 73.5 14.875t59.938 40.688 40.687 59.937T1792 189v315q0 66.5-29.313 125.125T1680 728v504q0 23.625-8.75 43.75t-24.063 35.438-35.437 24.062T1568 1344H112q-23.625 0-43.75-8.75t-35.438-24.063T8.75 1275.75 0 1232V448q0-23.625 8.75-43.75t24.063-35.438T68.25 344.75 112 336h1120V189q0-39.375 14.875-73.5t40.688-59.938 59.937-40.687T1421 0h182zm-35 778.75q-28 5.25-56 5.25-57.75 0-108.938-21.875t-89.25-59.938-59.937-89.25T1232 504v-56H112v784h1456V778.75zM1680 189q0-32.375-22.313-54.688T1603 112h-35v224h-112V112h-35q-32.375 0-54.688 22.313T1344 189v315q0 35 13.125 65.625T1393 623t53.375 35.875T1512 672t65.625-13.125T1631 623t35.875-53.375T1680 504V189z"/></svg>