<svg width="1792" height="1792" xmlns="http://www.w3.org/2000/svg"><path d="M840.875 224q11.375 0 20.125 8.75L1559.25 931q8.75 8.75 8.75 20.125 0 15.75-13.125 24.5L649.25 1555.75q23.625 31.5 59.5 49.875T784 1624q35 0 65.625-13.125T903 1575t35.875-53.375T952 1456h112q0 57.75-21.875 108.938t-59.938 89.25-89.25 59.937T784 1736q-68.25 0-129.063-31.5T554.75 1617l-259 166.25q-12.25 8.75-31.5 8.75-23.625 0-40.25-16.625L16.625 1568Q0 1551.375 0 1527.75q0-19.25 8.75-31.5L816.375 237.125q8.75-13.125 24.5-13.125zM1456 392q-22.75 0-39.375-16.625T1400 336t16.625-39.375l224-224Q1657.25 56 1680 56t39.375 16.625T1736 112t-16.625 39.375l-224 224Q1478.75 392 1456 392zm280 168q22.75 0 39.375 16.625T1792 616t-16.625 39.375T1736 672h-168q-22.75 0-39.375-16.625T1512 616t16.625-39.375T1568 560h168zm-560-280q-22.75 0-39.375-16.625T1120 224V56q0-22.75 16.625-39.375T1176 0t39.375 16.625T1232 56v168q0 22.75-16.625 39.375T1176 280z"/></svg>