<svg width="64" height="64" viewBox="0 0 1792 1792" xmlns="http://www.w3.org/2000/svg"><path d="M784 560h112v1232H784V560zM325.5 213.5q-50.75 50.75-90.563 110.688T168 449.75t-41.563 136.063T112 728t14.438 142.188T168 1006.25t66.938 125.563T325.5 1242.5l-79.625 79.625q-119-119.875-182.438-272.563T0 728t63.438-321.563 182.437-272.562zm1108.625-79.625q119 119.875 182.438 272.563T1680 728t-63.438 321.563-182.437 272.562L1354.5 1242.5q50.75-50.75 90.563-110.688T1512 1006.25t41.563-136.063T1568 728t-14.438-142.188T1512 449.75t-66.938-125.563T1354.5 213.5zm-238 238Q1267 442.75 1305.5 535.063T1344 728t-38.5 192.938-109.375 163.187l-78.75-78.75q55.125-55.125 84.438-127.313T1231.124 728t-29.313-150.063-84.437-127.312zm-633.5 78.75Q507.5 505.75 477.75 577.938T448 728t29.75 150.063 84.875 127.312l-78.75 78.75Q413 1013.25 374.5 920.937T336 728t38.5-192.938 109.375-163.187z"/></svg>