<svg width="1792" height="1792" xmlns="http://www.w3.org/2000/svg"><path d="M1568 1120H911.75q62.125 74.375 135.188 136.063t155.75 106.312 174.562 69.125T1568 1456v112q-108.5 0-210-25.813t-193.375-73.062-173.688-113.313T840 1208.376q-70 81.375-151.375 147.438t-173.25 113.312T322 1542.188 112 1568v-112q98.875 0 190.75-24.5t174.563-69.125 155.75-106.313T768.25 1120H112v-112h224V672h448V560h112v112h448v336h224v112zM448 1008h336V784H448v224zm784-224H896v224h336V784zM560 448H224V336h336V112h112v224h336V112h112v224h336v112h-336v112h-112V448H672v112H560V448z"/></svg>