<svg width="1792" height="1792" xmlns="http://www.w3.org/2000/svg"><path d="M896 784h336v224H896V784zM1680 0v1680H0V0h1680zM224 448h336v112h112V448h336v112h112V448h336V336h-336V112h-112v224H672V112H560v224H224v112zm1344 560h-224V672H896V560H784v112H336v336H112v112h654.5q-62.125 74.375-135.188 136.063t-155.75 106.312-174.125 69.125T112 1456v112q108.5 0 210-25.813t193.375-72.624 173.25-112.876T840 1209.25q69.125 81.375 150.938 147.438t173.687 112.874T1358 1542.188 1568 1568v-112q-98.875 0-190.313-24.5t-174.124-69.125-155.75-106.313T913.5 1120H1568v-112zM448 784h336v224H448V784z"/></svg>