<svg width="1792" height="1792" viewBox="0 0 1792 1792" xmlns="http://www.w3.org/2000/svg"><path d="M1792 448v112h-224v112h-112V560h-336v112h-112V560H784V448h224V336h112v112h336V336h112v112h224zm-433.125 784q41.125 49 89.25 90.125T1550.938 1393 1666 1439.375 1792 1456v112q-75.25 0-145.25-17.938t-133.438-50.312T1393 1421.875t-105-100.625q-48.125 55.125-105 100.625t-120.313 77.875-133.874 50.313T784 1568v-112q65.625 0 126-16.625T1025.063 1393t102.812-70.875 89.25-90.125H784v-112h112V784h336V672h112v112h336v336h112v112h-433.125zM1344 1120h224V896h-224v224zm-336 0h224V896h-224v224zM392.875 313.25l388.5 389.375-78.75 78.75L448 526.75V1568H336V527.625L81.375 781.375l-78.75-78.75z"/></svg>