<svg width="64" height="64" viewBox="0 0 1792 1792" xmlns="http://www.w3.org/2000/svg"><path d="M1560.125 336q26.25 0 48.125 10.5t37.625 27.563 24.938 40.25T1680 462v756q0 25.375-9.188 48.125t-24.937 39.813-37.625 27.562-48.125 10.5H119.875q-26.25 0-48.125-10.5t-37.625-27.563-24.938-39.812T0 1218V462q0-24.5 9.188-47.688t24.937-40.25T71.75 346.5t48.125-10.5h1440.25zM1568 462q0-9.625-7.875-14H119.875Q112 452.375 112 462v756q0 9.625 7.875 14h1440.25q7.875-4.375 7.875-14V462zm-336 322h224v112h-224V784zm0 224h224v112h-224v-112zm-448 0h336v112H784v-112zm224-224h112v112h-112V784zm224-112h-112V560h112v112zm112-112h112v112h-112V560z"/></svg>