<svg width="1792" height="1792" viewBox="0 0 1792 1792" xmlns="http://www.w3.org/2000/svg"><path d="M1560.125 336q26.25 0 48.125 10.063t37.625 27.562 24.938 40.25T1680 462v756q0 25.375-9.188 48.125t-24.937 40.25-37.625 27.563-48.125 10.062H119.875q-26.25 0-48.125-10.063t-37.625-27.562-24.938-40.25T0 1218V462q0-25.375 9.188-48.125t24.937-40.25 37.625-27.563T119.875 336h1440.25zM1568 462q0-2.625-1.75-8.313t-6.125-5.687H119.875q-4.375 0-6.125 5.688T112 462v756q0 2.625 1.75 8.313t6.125 5.687h1440.25q4.375 0 6.125-5.688T1568 1218V462zM224 560h112v112H224V560zm1120 448h112v112h-112v-112zm-1120 0h112v112H224v-112zm224 0h224v112H448v-112zm560 0h224v112h-224v-112zM560 672H448V560h112v112zM224 784h112v112H224V784zm336 112H448V784h112v112zm560-112h112v112h-112V784zm224 0h112v112h-112V784zm-224-224h112v112h-112V560zm224 0h112v112h-112V560z"/></svg>