<svg width="1792" height="1792" xmlns="http://www.w3.org/2000/svg"><path d="M336 560v112H224V560h112zm112 336H224V784h224v112zm1008 0h-224V784h224v112zM224 1008h224v112H224v-112zm336-336H448V560h112v112zm112 224H560V784h112v112zm224 0H784V784h112v112zm224 0h-112V784h112v112zM784 672H672V560h112v112zm224 0H896V560h112v112zm224 0h-112V560h112v112zm224 0h-112V560h112v112zm336 728q0 79.625-30.625 152.25T1673 1680h119v112h-336v-336h112v166.25q52.5-39.375 82.25-98T1680 1400q0-57.75-22.313-108.5t-60.374-88.813-88.813-60.374T1400 1120t-108.938 22.313-89.25 60.374-59.937 88.813T1120 1400h-112q0-81.375 30.625-152.688t84-124.687 124.688-84T1400 1008t152.688 30.625 124.687 84 84 124.688T1792 1400zM112 1232h785.75q-9.625 27.125-15.313 55.563T873.25 1344H112q-23.625 0-43.75-8.75t-35.438-24.063T8.75 1275.75 0 1232V448q0-23.625 8.75-43.75t24.063-35.438T68.25 344.75 112 336h1456q23.625 0 43.75 8.75t35.438 24.063 24.062 35.437T1680 448v501.375q-26.25-16.625-54.25-29.313T1568 897.75V448H112v784zm931-224q-54.25 49.875-93.625 112H560v-112h483z"/></svg>