<svg width="1792" height="1792" viewBox="0 0 1792 1792" xmlns="http://www.w3.org/2000/svg"><path d="M1560.125 336q24.5 0 46.375 10.063t38.5 27.125T1670.813 413t9.187 49v756q0 26.25-9.188 49.438t-25.812 40.25-38.5 26.687-46.375 9.625H119.875q-25.375 0-46.813-9.625T35 1307.687t-25.813-40.25T0 1218V462q0-26.25 9.188-49T35 373.187t38.063-27.125T119.874 336h1440.25zM1568 462q0-7-3.063-10.5t-4.812-3.5H119.875q-1.75 0-4.813 3.5T112 462v756q0 7 3.063 10.5t4.812 3.5h1440.25q1.75 0 4.813-3.5T1568 1218V462zm-529.375 968.625l78.75 78.75L840 1786.75l-277.375-277.375 78.75-78.75L840 1628.375z"/></svg>