<svg width="1792" height="1792" viewBox="0 0 1792 1792" xmlns="http://www.w3.org/2000/svg"><path d="M1568 336q23.625 0 43.75 8.75t35.438 24.063 24.062 35.437T1680 448v784q0 23.625-8.75 43.75t-24.063 35.438-35.437 24.062T1568 1344H112q-23.625 0-43.75-8.75t-35.438-24.063T8.75 1275.75 0 1232V448q0-23.625 8.75-43.75t24.063-35.438T68.25 344.75 112 336h1456zm-560 224h112V448h-112v112zm0 224h112V672h-112v112zm0 224h112V896h-112v112zM784 560h112V448H784v112zm0 224h112V672H784v112zm0 224h112V896H784v112zM560 560h112V448H560v112zm0 224h112V672H560v112zm0 224h112V896H560v112zM336 560h112V448H336v112zm0 224h112V672H336v112zm0 224h112V896H336v112zm-112 112H112v112h112v-112zm0-224H112v112h112V896zm0-224H112v112h112V672zm0-224H112v112h112V448zm1120 672H336v112h1008v-112zm0-224h-112v112h112V896zm0-224h-112v112h112V672zm0-224h-112v112h112V448zm224 672h-112v112h112v-112zm0-224h-112v112h112V896zm0-224h-112v112h112V672zm0-224h-112v112h112V448z"/></svg>