<svg width="1792" height="1792" viewBox="0 0 1792 1792" xmlns="http://www.w3.org/2000/svg"><path d="M896 672H784V336h112v336zm784 448v112h-336v-112h336zM336 1232H0v-112h336v112zm107.625-372.75l-237.125-238 78.75-78.75 238 237.125zm792.75 0l-79.625-79.625 238-237.125 78.75 78.75zM454.125 1232q-2.625-14-4.375-28t-1.75-28q0-81.375 31.063-152.688t84-124.25 124.25-84T840 784t152.688 31.063 124.25 84 84 124.25T1232 1176q0 14-1.75 28t-4.375 28h-112q6.125-25.375 6.125-56 0-57.75-22.313-108.5t-60.374-88.813-88.813-60.375T840 896t-108.938 22.313-89.25 60.375-59.937 88.812T560 1176q0 30.625 6.125 56h-112zM0 1344h1680v112H0v-112z"/></svg>