<svg width="1792" height="1792" xmlns="http://www.w3.org/2000/svg"><path d="M1120 448H112V336h448V112h112v224h448v112zm560 336v112h-336v448h-112V112h112v672h336zM560 1680h896v112H448v-448h112v336zm448-784q0 51.625-15.75 96.688t-43.313 82.25-64.75 66.5-80.5 49.437-91 30.625-94.937 10.5q-70.875 0-141.313-23.188T350 1141.876 259 1036t-35-140q0-77 35-139.125T350 651t126.438-66.938 141.312-23.187q71.75 0 141.75 23.188t125.125 66.5T973.875 756 1008 896zm-672 0q0 54.25 26.25 95.813t66.938 70 91 43.312T617.75 1120t97.563-14.875 91-43.313 66.937-70T899.5 896t-26.25-95.813-66.938-70-91-42.875-97.562-14.437-97.563 14.438-91 42.875-66.937 70T336 896z"/></svg>