<svg width="1792" height="1792" viewBox="0 0 1792 1792" xmlns="http://www.w3.org/2000/svg"><path d="M1505 112q35.875 0 67.375 14t55.125 37.625 37.625 55.563 14 67.812q0 32.375-9.188 57.313T1645 390.25t-35.875 40.25T1568 470.75V1568H224V224h1097.25q21-21 40.688-41.125T1402.624 147t45.5-25.375T1505 112zm0 112q-25.375 0-43.75 18.375l-829.5 829.5L602 1190l118.125-29.75 829.5-829.5Q1568 312.375 1568 287q0-26.25-18.813-44.625T1505 224zm-49 358.75l-678.125 679L448 1344l82.25-329.875 679-678.125H336v1120h1120V582.75z"/></svg>