<svg width="64" height="64" viewBox="0 0 1792 1792" xmlns="http://www.w3.org/2000/svg"><path d="M320.25 336q-55.125 67.375-122.5 120.75T56 553L0 455q62.125-35 122.5-81.813t107.625-104.125 76.563-124.687T336 0h112q0 58.625-14 115.063T392.875 224H896v112H639.625l155.75 156.625-78.75 78.75L480.375 336H320.25zM1792 336h-256.375l155.75 156.625-78.75 78.75L1376.375 336H1216.25q-55.125 67.375-122.5 120.75T952 553l-56-98q62.125-35 122.5-81.813t107.625-104.125 76.563-124.687T1232 0h112q0 58.625-14 115.063T1288.875 224H1792v112zM224 784h112v1008H224V784zm336 112h560v784H560V896zm448 672v-224H672v224h336zm-336-560v224h336v-224H672zm112-336h784v952q0 35-13.125 65.625T1519 1743t-53.375 35.875T1400 1792h-168v-112h168q22.75 0 39.375-16.625T1456 1624V784H784V672zm-212.625 44.625l-78.75 78.75-252-252 78.75-78.75z"/></svg>