<svg width="1792" height="1792" xmlns="http://www.w3.org/2000/svg"><path d="M1008 336H224V224h336V0h112v224h336v112zm560 112v112h-224v672h-112V112h112v336h224zM672 1456h784v112H560v-448h112v336zm224-728.875q0 60.375-21.438 111.563T815.938 927.5t-88.375 59.063T616 1008q-61.25 0-112.438-21t-88.375-58.188T357 840t-21-112.875 21-112.438 58.188-88.375T504 468.563 616 448t112 20.563 88.813 57.75T875 614.688t21 112.437zm-448 0q0 37.625 12.25 68.688t34.125 53.375 52.938 34.562T616 896t68.25-12.688 52.938-35 34.562-53.375T784 727.125q0-37.625-12.25-68.25t-34.563-52.5-52.937-34.125T616 560t-68.25 12.25-52.938 34.125-34.562 52.5-12.25 68.25z"/></svg>