<svg width="64" height="64" viewBox="0 0 1792 1792" xmlns="http://www.w3.org/2000/svg"><path d="M613.375 542.5q-66.5-22.75-138.25-37.625l30.625-63q34.125 7 67.813 16.188T640.5 479.5zm294-97.125q84.875-66.5 153.563-149.188T1184.75 120.75l81.375 28.875q-14.875 28-32.813 55.125t-37.187 52.5H1627.5v80.5h-103.25q-22.75 92.75-64.75 179.375t-109.375 155.75q68.25 44.625 143.938 75.688t153.562 53.812l-39.375 78.75q-84-28-163.625-65.188t-152.25-87.062q-70 51.625-148.75 87.5t-161 61.25l-42.875-71.75q35-10.5 73.5-23.625t76.125-29.313 73.063-35.875 64.312-42.437q-44.625-39.375-80.938-85.313T1076.25 493.5l65.625-42.875q30.625 48.125 66.938 91.438t76.562 82.687q30.625-28 54.688-61.688t42.437-70.437 32.375-76.125 24.5-78.75h-299.25Q1099 382.375 1057 425.688t-88.375 82.687zm-297.5 283.5q-36.75-12.25-73.5-22.313t-75.25-15.312l25.375-66.5q39.375 5.25 77 16.188t75.25 23.187zm543.375 700.875q124.25 34.125 243.25 79.188T1631 1611.75l-56.875 75.25q-111.125-60.375-230.563-104.125t-239.312-82.25zm-314.125-812q-1.75 28-2.625 57.313t-6.125 57.312h46.375v75.25h-51.625Q817.25 844.375 803.25 868t-35 37.188-49 18.812-63 5.25h-24.938l-24.937-1.75-28.875-75.25q15.75 1.75 31.938 2.625t32.812.875q14 0 28-2.188t26.25-7.437 21.438-14.438 13.562-24.062H231.875L269.5 617.75H133v-73.5h145.25l30.625-186.375h539q.875 9.625.875 20.125v21q0 36.75-1.75 72.625t-4.375 72.625H934.5v73.5h-95.375zm-96.25 114.625q4.375-28 6.563-56.875t2.187-57.75H358.75l-21 114.625h405.125zm15.75-295.75h-371l-15.75 107.625h386.75V436.625zm637.875 894.25q-119.875 11.375-237.563 20.125t-237.562 15.75v202.125q0 42-21 74.375t-65.625 39.375q-17.5 2.625-37.625 3.5t-41.125.438-41.563-.876-38.062-.437l-30.625-87.5q13.125.875 37.188 1.313t49.875 0 48.125-1.75 31.937-5.688q14.875-6.125 18.813-17.5t3.937-26.25V1372q-151.375 9.625-301 14t-301 6.125l-17.5-86.625q149.625-30.625 295.75-71.313T801.5 1139.25q-117.25 3.5-233.625 5.25t-233.625 1.75l-11.375-78.75q154-20.125 299.688-65.625t283.062-117.25l66.5 59.5q-96.25 42-195.563 74.375T574 1069.25q69.125 0 137.813-1.75t137.812-5.25q40.25-1.75 82.25-2.625t81.375-7q6.125-.875 21.875-7.438t36.313-16.624 43.75-21.438 44.187-21.875 37.188-18.813 22.312-11.812l66.5 64.75q-418.25 216.125-881.125 299.25 230.125-9.625 458.063-22.313t457.187-37.187q-24.5-21-49.438-42t-51.187-40.25l68.25-56q75.25 56 142.625 120.75t130.375 133.875l-71.75 57.75zM122.5 1610q119-33.25 234.5-75.688T581 1431.5l56 67.375q-111.125 59.5-226.188 105.438T175.875 1687zM380.625 269.5Q325.5 319.375 266.875 364t-124.25 81.375l-61.25-66.5Q178.5 329 262.063 262.5T414.75 112l78.75 34.125q-4.375 13.125-13.125 24.063t-19.25 20.562H953.75v78.75H380.625z"/></svg>