<svg width="64" height="64" viewBox="0 0 1792 1792" xmlns="http://www.w3.org/2000/svg"><path d="M1344 728q0 96.25-34.125 182.438t-94.5 153.562-142.188 110.688T896 1229.374V1792H784v-562.625q-95.375-11.375-177.188-54.688T464.625 1064t-94.5-153.563T336 728q0-101.5 38.063-192.938t109.812-163.187Q574 281.75 661.938 193.375T840 14.875q90.125 90.125 178.063 178.5t178.062 178.5q71.75 71.75 109.813 163.188T1344 728zm-448 387.625q72.625-9.625 133.875-44.188t105.875-86.624 70-118.125T1231.125 728q0-77.875-29.313-150.063t-84.437-127.312L840 173.25 562.625 450.625Q507.5 505.75 477.75 577.938T448 728q0 72.625 25.375 138.688t70 118.125 106.313 86.625T784 1115.624V448h112v667.625z"/></svg>