<svg width="1792" height="1792" viewBox="0 0 1792 1792" xmlns="http://www.w3.org/2000/svg"><path d="M896 224H784V0h112v224zM364.875 443.625L206.5 285.25l78.75-78.75 158.375 158.375zM0 784h224v112H0V784zm1680 0v112h-224V784h224zm-364.875-340.375l-78.75-78.75L1394.75 206.5l78.75 78.75zM840 448q81.375 0 152.688 31.063t124.25 84 84 124.25T1232 840v616h112v112h-224v224h-112v-224H672v224H560v-224H336v-112h112V840q0-81.375 31.063-152.688t84-124.25 124.25-84T840 448zm280 1008V840q0-57.75-22.313-108.5t-60.374-88.813-88.813-60.375T840 560t-108.5 22.313-88.813 60.375-60.375 88.812T560 840v616h560z"/></svg>