<svg width="64" height="64" viewBox="0 0 1792 1792" xmlns="http://www.w3.org/2000/svg"><path d="M1624 560q34.125 0 64.75 13.125T1742.563 609t36.312 53.375T1792 728q0 28-8.75 53.375l-224 672q-8.75 25.375-24.5 46.813T1498 1536.5t-45.938 23.188T1400 1568H952q-156.625 0-301.875-60.375-63-25.375-126.438-38.5T392 1456H0V672h364.875q56.875 0 107.188-21t90.562-61.25l544.25-543.375q21.875-21.875 43.75-34.125T1204 0q28.875 0 54.25 10.938t44.625 30.187 30.188 44.625T1344 140q0 70.875-15.75 135.188T1281.875 402.5q-17.5 37.625-29.75 76.563T1235.5 560H1624zm-224 896q17.5 0 32.375-10.5t21-28q4.375-12.25 16.188-47.25t28.437-84.438 36.75-108.5 40.25-119.437 38.938-117.688 33.687-103.25 23.625-75.25T1680 728q0-22.75-16.625-39.375T1624 672h-504q0-46.375 2.188-86.188t8.75-77.437 18.812-75.25 32.375-79.625q24.5-50.75 37.188-103.688T1232 140q0-12.25-7.875-20.125T1204 112q-5.25 0-9.188 3.938l-7.437 7.437-545.125 546q-28 28-59.938 49T514.5 754.25Q444.5 784 364.875 784H112v560h280q155.75 0 301.875 60.375Q819.875 1456 952 1456h448z"/></svg>