<svg width="1792" height="1792" viewBox="0 0 1792 1792" xmlns="http://www.w3.org/2000/svg"><path d="M1344 672v112q66.5 0 127.313 15.313t107.187 49 73.938 86.625T1680 1064q0 57.75-22.313 108.5t-60.374 88.813-88.813 60.374T1400 1344H952q-57.75 0-108.5-22.313t-88.813-60.374-60.375-88.813T672 1064q0-76.125 27.563-129.063t73.937-86.625 107.188-49T1008 784V672h-56q-81.375 0-152.688 31.063t-124.25 84-84 124.25T560 1064t31.063 152.688 84 124.25 124.25 84T952 1456h448q81.375 0 152.688-31.063t124.25-84 84-124.25T1792 1064t-31.063-152.688-84-124.25-124.25-84T1400 672h-56zm-560 448v-112q66.5 0 127.313-15.313t107.187-49 73.938-86.625T1120 728q0-57.75-22.313-108.5t-60.374-88.813-88.813-60.375T840 448H392q-57.75 0-108.5 22.313t-88.813 60.375-60.375 88.812T112 728q0 76.125 27.563 129.063t73.937 86.625 107.188 49T448 1008v112h-56q-81.375 0-152.688-31.063t-124.25-84-84-124.25T0 728t31.063-152.688 84-124.25 124.25-84T392 336h448q81.375 0 152.688 31.063t124.25 84 84 124.25T1232 728t-31.063 152.688-84 124.25-124.25 84T840 1120h-56z"/></svg>