<svg width="1792" height="1792" viewBox="0 0 1792 1792" xmlns="http://www.w3.org/2000/svg"><path d="M896 112q107.625 0 207.813 28t187.25 79.188 158.812 122.937 122.938 158.813T1652 688.188 1680 896t-28 207.813-79.188 187.25-122.937 158.812-158.813 122.938-187.25 79.187T896 1680t-207.813-28-187.25-79.188-158.812-122.937-122.938-158.813T140 1104.25 112 896q0-107.625 28-207.813t79.188-187.25 122.937-158.812 158.813-122.938T687.75 140 896 112zm0 1456q92.75 0 178.5-24.063t160.563-67.812 136.062-105 105-136.063 67.813-160.562T1568 896t-24.063-178.5-67.812-160.563-105-136.062-136.063-105-160.562-67.813T896 224t-178.5 24.063-160.563 67.812-136.062 105-105 136.063T248.062 717.5 224 896t24.063 178.5 67.812 160.563 105 136.062 136.063 105 160.562 67.813T896 1568zm0-1008q69.125 0 130.375 26.688t106.75 72.187 72.188 106.75T1232 896t-26.688 130.375-72.187 106.75-106.75 72.188T896 1232t-130.375-26.688-106.75-72.187-72.188-106.75T560 896t26.688-130.375 72.187-106.75 106.75-72.188T896 560z"/></svg>