<svg width="1792" height="1792" xmlns="http://www.w3.org/2000/svg"><path d="M840 448q81.375 0 152.688 30.625t124.687 84 84 124.688T1232 840t-30.625 152.688-84 124.687-124.688 84T840 1232t-152.688-30.625-124.687-84-84-124.688T448 840t30.625-152.688 84-124.687 124.688-84T840 448zm0 672q57.75 0 108.5-21.875t88.813-59.938 60.374-89.25T1120 840t-22.313-108.5-60.374-88.813-88.813-60.375T840 560t-108.938 22.313-89.25 60.375-59.937 88.812T560 840t21.875 108.938 59.938 89.25 89.25 59.937T840 1120zm56-784H784V168h112v168zM443.625 523.25l-118.125-119 78.75-78.75 119 118.125zM336 896H168V784h168v112zm107.625 260.75l79.625 79.625-119 118.125-78.75-78.75zM784 1344h112v168H784v-168zm452.375-187.25l118.125 119-78.75 78.75-119-118.125zM1512 784v112h-168V784h168zm-275.625-260.75l-79.625-79.625 119-118.125 78.75 78.75z"/></svg>