<svg width="64" height="64" viewBox="0 0 1792 1792" xmlns="http://www.w3.org/2000/svg"><path d="M.11 336v946.75q25.374-20.125 53.372-34.563t58.621-24.937V510.125L896.056 903l783.951-392.875V1344h-615.962v112h727.957V336H.107zm895.942 441L237.218 448h1317.671zm-79.618 623l-197.737 198.625 78.744 78.75L975.674 1400l-278.233-277.375-78.744 78.75zm-335.979-56q-43.748 0-96.68-2.188t-106.306.438-103.243 12.688q-49.873 10.062-88.807 35t-62.121 67.812T.112 1568q0 46.375 17.936 87.063t48.121 70.874 71.31 48.126T224.097 1792v-112q-23.623 0-43.748-8.75t-35.436-24.063-24.06-35.437-8.75-43.75 8.75-43.75 24.06-35.438 35.436-24.062 43.748-8.75h256.36l-141.742 142.625 78.745 78.75L694.818 1400l-277.357-277.375-78.745 78.75z"/></svg>