<svg width="1792" height="1792" viewBox="0 0 1792 1792" xmlns="http://www.w3.org/2000/svg"><path d="M1792 336v946.75q-25.375-20.125-53.375-34.563T1680 1223.25V510.125L896 903 112 510.125V1344h616v112H0V336h1792zM896 777l658.875-329H237.125zm79.625 623l197.75 198.625-78.75 78.75L816.375 1400l278.25-277.375 78.75 78.75zm336-56q43.75 0 96.688-2.188t106.312.438 103.25 12.688 88.813 35 62.124 67.812T1792 1568q0 46.375-17.938 87.063t-48.124 70.874-71.313 48.126T1568 1792v-112q23.625 0 43.75-8.75t35.438-24.063 24.062-35.437T1680 1568t-8.75-43.75-24.063-35.438-35.437-24.062T1568 1456h-256.375l141.75 142.625-78.75 78.75L1097.25 1400l277.375-277.375 78.75 78.75z"/></svg>