<svg width="64" height="64" viewBox="0 0 1792 1792" xmlns="http://www.w3.org/2000/svg"><path d="M1680 1792H0L336 784h448V554.75q-49-10.5-90.125-35.875T623 457.187t-46.375-81.812T560 280q0-57.75 21.875-108.5t59.938-88.813 89.25-60.374T840 0t108.5 22.313 88.813 60.374 60.374 88.813T1120 280q0 49.875-16.625 95.375T1057 457.188t-70.875 61.687T896 554.75V784h448zM672 280q0 35 13.125 65.625T721 399t53.375 35.875T840 448t65.625-13.125T959 399t35.875-53.375T1008 280t-13.125-65.625T959 161t-53.375-35.875T840 112t-65.625 13.125T721 161t-35.875 53.375T672 280zM155.75 1680h1368.5L1263.5 896H896v420q0 7.875-6.563 13.563t-15.75 8.75-18.375 4.374T840 1344t-15.313-1.313-18.375-4.374-15.75-8.75T784 1316V896H416.5z"/></svg>