<svg width="1792" height="1792" viewBox="0 0 1792 1792" xmlns="http://www.w3.org/2000/svg"><path d="M1792 224v112h-224v224h-112V336h-224V224h224V0h112v224h224zm-336 560h112v336h-112V784zM224 1120H112V784h112v336zm448-896h336v112H672V224zm0 1344h336v112H672v-112zm560 0q46.375 0 87.063-17.5t71.312-48.125 48.125-71.313T1456 1344h112q0 70-26.25 131.25T1470 1582t-106.75 71.75T1232 1680v-112zM224 1344q0 46.375 17.5 87.063t48.125 71.312 71.313 48.125T448 1568v112q-70 0-131.25-26.25T210 1582t-71.75-106.75T112 1344h112zM112 560q0-70 26.25-131.25T210 322t106.75-71.75T448 224v112q-46.375 0-87.063 17.5t-71.312 48.125-48.125 71.313T224 560H112z"/></svg>