<svg width="64" height="64" viewBox="0 0 1792 1792" xmlns="http://www.w3.org/2000/svg"><path d="M840 1120q22.75 0 39.375 16.625T896 1176t-16.625 39.375T840 1232t-39.375-16.625T784 1176t16.625-39.375T840 1120zm0-224q22.75 0 39.375 16.625T896 952t-16.625 39.375T840 1008t-39.375-16.625T784 952t16.625-39.375T840 896zm0-224q22.75 0 39.375 16.625T896 728t-16.625 39.375T840 784t-39.375-16.625T784 728t16.625-39.375T840 672zm504 1008v112H336v-112h448v-224H448V0h784v1456H896v224h448zm-784-336h560V112H560v1232z"/></svg>