<svg width="1792" height="1792" viewBox="0 0 1792 1792" xmlns="http://www.w3.org/2000/svg"><path d="M0 672q8.75 0 23.625.438t31.063.875 30.187.437T106.75 672L1680 392q7.875-.875 22.75-1.313t31.938 0 32.374.875T1792 392v1008q-9.625 0-26.688.438t-35.437.437h-35l-24.5-1.75-667.625-119q-8.75 49.875-33.688 92.75t-61.687 73.5-82.688 48.125T728 1512q-57.75 0-108.938-21.875t-89.25-59.938-59.937-89.25T448 1232q0-24.5 5.25-49.875l-231-41.125q-16.625-3.5-30.625-6.125t-27.125-5.25-27.125-4.813T106.75 1120q-10.5-.875-24.063-1.313t-28.437 0-29.313.876T0 1120V672zm728 728q30.625 0 58.625-10.5t49.875-29.313T873.25 1316t20.125-56l-330.75-58.625Q560 1217.125 560 1232q0 35 13.125 65.625T609 1351t53.375 35.875T728 1400zm952-895.125L112 784v224q6.125 0 9.625.875L1680 1287.125v-782.25z"/></svg>