<svg width="1792" height="1792" xmlns="http://www.w3.org/2000/svg"><path d="M1100.75 1456q49.875 0 94.5-19.25t77.438-52.063 52.062-77.437 19.25-94.5V896h112v316.75q0 73.5-28 138.25t-76.125 112.875T1239 1540t-138.25 28H896v112h224v112H560v-112h224v-112H579.25q-73.5 0-138.25-28t-112.875-76.125T252 1351t-28-138.25V896h112v316.75q0 49.875 19.25 94.5t52.063 77.438 77.437 52.062 94.5 19.25h521.5zm296.625-1196.125l-50.75-99.75 280-140 50.75 99.75zm-1114.75 0l-280-140 50.75-99.75 280 140zm50.75 252l-280 140-50.75-99.75 280-140zm1064-99.75l280 140-50.75 99.75-280-140zM896 84L448 308V168q0-35 13.125-65.625T497 49t53.375-35.875T616 0h448q35 0 65.625 13.125T1183 49t35.875 53.375T1232 168v28L896 364V84zM616 1344q-35 0-65.625-13.125T497 1295t-35.875-53.375T448 1176V476l336-168v280l448-224v812q0 35-13.125 65.625T1183 1295t-53.375 35.875T1064 1344H616z"/></svg>