<svg width="64" height="64" viewBox="0 0 1792 1792" xmlns="http://www.w3.org/2000/svg"><path d="M616 1344q-35 0-65.625-13.125T497 1295t-35.875-53.375T448 1176V168q0-35 13.125-65.625T497 49t53.375-35.875T616 0h448q35 0 65.625 13.125T1183 49t35.875 53.375T1232 168v729.75q-29.75 9.625-57.75 22.313T1120 949.375V168q0-22.75-16.625-39.375T1064 112H616q-22.75 0-39.375 16.625T560 168v1008q0 22.75 16.625 39.375T616 1232h280v112H616zm784-336q81.375 0 152.688 30.625t124.687 84 84 124.688T1792 1400t-30.625 152.688-84 124.687-124.688 84T1400 1792t-152.688-30.625-124.687-84-84-124.688T1008 1400t30.625-152.688 84-124.687 124.688-84T1400 1008zm0 672q57.75 0 108.5-21.875t88.813-59.938 60.374-89.25T1680 1400t-22.313-108.5-60.374-88.813-88.813-60.374T1400 1120t-108.938 22.313-89.25 60.374-59.937 88.813T1120 1400t21.875 108.938 59.938 89.25 89.25 59.937T1400 1680zm-450.625 0q39.375 62.125 93.625 112H560v-112h224v-112H579.25q-73.5 0-138.25-28t-112.875-76.125T252 1351t-28-138.25V896h112v316.75q0 49.875 19.25 94.5t52.063 77.438 77.437 52.062 94.5 19.25H896v224h53.375zM1561 1309l-91.875 91 91.875 91-70 70-91-91.875-91 91.875-70-70 91.875-91-91.875-91 70-70 91 91.875 91-91.875z"/></svg>