<svg width="1792" height="1792" xmlns="http://www.w3.org/2000/svg"><path d="M616 1344q-35 0-65.625-13.125T497 1295t-35.875-53.375T448 1176V168q0-35 13.125-65.625T497 49t53.375-35.875T616 0h448q35 0 65.625 13.125T1183 49t35.875 53.375T1232 168v1008q0 35-13.125 65.625T1183 1295t-53.375 35.875T1064 1344H616zm-56-168q0 22.75 16.625 39.375T616 1232h448q22.75 0 39.375-16.625T1120 1176V168q0-22.75-16.625-39.375T1064 112H616q-22.75 0-39.375 16.625T560 168v1008zm896-280v316.75q0 73.5-28 138.25t-76.125 112.875T1239 1540t-138.25 28H896v112h224v112H560v-112h224v-112H579.25q-73.5 0-138.25-28t-112.875-76.125T252 1351t-28-138.25V896h112q0 48.125-3.063 108.5t-1.312 122.938 11.813 121.624 37.187 105T455.438 1428t123.812 28h521.5q76.125 0 123.813-28t74.812-73.938 37.188-105 11.812-121.624-1.313-122.5T1344 896h112z"/></svg>