<svg width="1792" height="1792" xmlns="http://www.w3.org/2000/svg"><path d="M616 1344q-35 0-65.625-13.125T497 1295t-35.875-53.375T448 1176V168q0-35 13.125-65.625T497 49t53.375-35.875T616 0h448q35 0 65.625 13.125T1183 49t35.875 53.375T1232 168v729.75q-29.75 9.625-57.75 22.313T1120 949.375V168q0-22.75-16.625-39.375T1064 112H616q-22.75 0-39.375 16.625T560 168v1008q0 22.75 16.625 39.375T616 1232h281.75q-1.75 1.75-2.188 17.938t-.437 35.437.438 36.75T896 1344H616zm1064 112q28 0 55.125-4.813t53.375-14.437q-7 75.25-40.25 140t-85.313 112.875-119.437 75.25T1400 1792q-81.375 0-152.688-30.625t-124.687-84-84-124.688T1008 1400q0-76.125 27.125-143.5t75.25-119.438 112.875-85.312 140-40.25q-9.625 26.25-14.438 53.375T1344 1120q0 70 26.25 130.813t72.188 106.75 106.75 72.187T1680 1456zm-280 238q77 0 143.5-37.625t105.875-103.25q-80.5-5.25-151.375-38.938t-124.688-87.5-87.5-124.687-38.937-151.375Q1181.25 1190 1143.625 1256.5T1106 1400q0 61.25 23.188 114.625t63 93.188 93.187 63T1400 1694zm-450.625-14q39.375 62.125 93.625 112H560v-112h224v-112H579.25q-73.5 0-138.25-28t-112.875-76.125T252 1351t-28-138.25V896h112v316.75q0 49.875 19.25 94.5t52.063 77.438 77.437 52.062 94.5 19.25H896v224h53.375z"/></svg>