<svg width="64" height="64" viewBox="0 0 1792 1792" xmlns="http://www.w3.org/2000/svg"><path d="M1456 896h112v560q0 23.625-8.75 43.75t-24.063 35.438-35.437 24.062T1456 1568H112q-23.625 0-43.75-8.75t-35.438-24.063T8.75 1499.75 0 1456V448q0-23.625 8.75-43.75t24.063-35.438T68.25 344.75 112 336h896v112H112v1008h1344V896zm-224-112q0-23.625-8.75-43.75t-24.063-35.438-35.437-24.062T1120 672V560q46.375 0 87.063 17.5t71.312 48.125 48.125 71.313T1344 784h-112zm-112-448q92.75 0 174.563 35t142.624 95.813T1533 609.438 1568 784h-112q0-69.125-26.25-130.375t-72.188-107.188-107.187-72.187T1120 448V336zm0-224q92.75 0 178.938 24.063t160.562 67.812 135.625 105 105 135.625 67.813 160.563T1792 784h-112q0-77-20.125-148.75t-56.438-133.875-87.5-113.313-113.312-87.5-133.875-56.437T1120 224V112z"/></svg>