<svg width="1792" height="1792" xmlns="http://www.w3.org/2000/svg"><path d="M1456 672q46.375 0 87.063 17.5t71.312 48.125 48.125 71.313T1680 896t-17.5 87.063-48.125 71.312-71.313 48.125T1456 1120h-329l-224 448H558.25l112-448H510.125L455 1232H49.875L217 896 49.875 560H455l55.125 112H670.25l-112-448H903l224 448h329zm0 336q23.625 0 43.75-8.75t35.438-24.063 24.062-35.437T1568 896t-8.75-43.75-24.063-35.438-35.437-24.062T1456 784h-398.125l-224-448H701.75l112 448H441l-55.125-112H231l112 224-112 224h154.875L441 1008h372.75l-112 448h132.125l224-448H1456z"/></svg>