<svg xmlns="http://www.w3.org/2000/svg" viewBox="0 0 1536 1024"><path d="M1472 448v128h-64v256H256v-64h1088V256H379.5q-7.5-17.5-18.25-33.5T337.5 192H1408v256h64zM320 352q0 28.5-9.5 54.5T284 453.25t-40.5 35.25T192 509v323h-64V509q-28-6-51.5-20.5T36 453.25 9.5 406.5 0 352q0-33 12-61.25T47 239l113-113.5L273 239q23 23.5 35 51.75T320 352zm-256 0q0 15 4.5 29.25t13 26.25 20.25 21 26.25 14V320h64v122.5q14.5-5 26.25-14t20.25-21 13-26.25T256 352q0-19-7.25-36.75T228 284l-68-67.5L92 284q-13.5 13.5-20.75 31.25T64 352z"/></svg>