<svg width="64" height="64" viewBox="0 0 1792 1792" xmlns="http://www.w3.org/2000/svg"><path d="M918.803 448H438.457l183.738-184.625-78.745-78.75L224.094 504 543.45 823.375l78.745-78.75L438.457 560h480.345V448zm-374.474 553.875q-30.623 0-59.497 11.813t-50.746 33.687l-141.742 141.75q-21.874 21.875-33.685 50.75t-11.813 59.5 11.813 59.5 33.686 50.75q38.498 38.5 69.559 68.25t64.309 49.875 73.933 30.188T597.702 1568q81.37 0 167.552-25.375t171.49-70.438 166.677-106.75 153.99-134.75 133.867-154.874 105.43-166.688 69.122-169.75 24.936-164.5q0-56.875-10.5-97.563t-30.624-73.937-49.435-64.313-67.81-69.562q-21.873-21.875-50.746-33.688T1322.155 224t-59.497 11.813-50.746 33.687L1070.17 411.25q-21.873 21.875-33.685 50.75t-11.813 59.5q0 29.75 9.625 53.375t24.061 42.875 31.06 34.563 31.062 28.875 24.06 26.25 9.625 26.687q0 17.5-13.125 30.625l-353.479 353.5q-13.125 13.125-30.623 13.125-21 0-39.81-20.125t-42.436-44.625T620.008 1022t-75.683-20.125zM597.7 1456q-43.748 0-73.496-8.313t-53.372-24.5-46.373-39.374-52.497-52.938q-13.125-13.125-13.125-31.5 0-17.5 13.125-30.625L513.704 1127q13.125-13.125 30.623-13.125 20.998 0 39.81 20.125t41.562 44.625 54.246 44.625 76.996 20.125q30.624 0 59.497-11.813t50.748-33.687l353.477-353.5q21.875-21.875 34.124-50.75t12.25-59.5q0-29.75-9.625-53.813t-24.061-42.875-31.498-34.125-31.499-28.875-24.06-26.25-9.625-26.687q0-17.5 13.125-30.625l141.741-141.75Q1304.66 336 1322.158 336q18.375 0 31.498 13.125 29.749 29.75 52.934 52.5T1445.964 448t24.5 52.938 8.312 73.062q0 70-22.748 145.688t-63.434 150.5-96.68 147.437-121.617 137.813-138.241 120.312-147.429 95.375q-74.807 40.25-148.741 62.563T597.707 1456z"/></svg>