<svg width="1792" height="1792" xmlns="http://www.w3.org/2000/svg"><path d="M448 896q23.625 0 43.75 8.75t35.438 24.063 24.062 35.437T560 1008t-8.75 43.75-24.063 35.438-35.437 24.062T448 1120t-43.75-8.75-35.438-24.063-24.062-35.437T336 1008t8.75-43.75 24.063-35.438 35.437-24.062T448 896zm896 0q23.625 0 43.75 8.75t35.438 24.063 24.062 35.437T1456 1008t-8.75 43.75-24.063 35.438-35.437 24.062T1344 1120t-43.75-8.75-35.438-24.063-24.062-35.437T1232 1008t8.75-43.75 24.063-35.438 35.437-24.062T1344 896zm303.625-224l-43.75 42.875L1680 943.25V1456q0 23.625-8.75 43.75t-24.063 35.438-35.437 24.062T1568 1568h-112q-23.625 0-43.75-8.75t-35.438-24.063-24.062-35.437T1344 1456H448q0 23.625-8.75 43.75t-24.063 35.438-35.437 24.062T336 1568H224q-23.625 0-43.75-8.75t-35.438-24.063-24.062-35.437T112 1456V943.25l76.125-228.375L144.375 672H112V560h79.625l35.875 36.75 60.375-181.125q14-42.875 40.688-78.313t61.25-60.375T466.375 238 553 224h686q44.625 0 86.625 14t76.563 38.938T1463 337.313t41.125 78.312L1564.5 596.75l35.875-36.75H1680v112h-32.375zM320.25 672h1151.5l-73.5-221.375q-8.75-25.375-24.5-46.375T1337 367.937t-45.938-23.625T1239 336H553q-27.125 0-52.063 8.313T455 367.938t-36.75 36.312-24.5 46.375zM1120 1301.125L1085 1232H707l-35 69.125V1344h448v-42.875zM1568 1344V960.75L1509.375 784H282.625L224 960.75V1344h336v-69.125L637 1120h518l77 154.875V1344h336z"/></svg>