<svg width="1792" height="1792" xmlns="http://www.w3.org/2000/svg"><path d="M336 1680h560v112H336q-23.625 0-43.75-8.75t-35.438-24.063-24.062-35.437T224 1680V112q0-23.625 8.75-43.75t24.063-35.438T292.25 8.75 336 0h896q23.625 0 43.75 8.75t35.438 24.063 24.062 35.437T1344 112v644q-28.875 0-56.875 5.25t-55.125 14V112H336v1568zm336-224h224v112H672v-112zm1008-224v560h-672v-560h112v-112q0-46.375 17.5-87.063t48.125-71.312 71.313-48.125T1344 896t87.063 17.5 71.312 48.125 48.125 71.313T1568 1120v112h112zm-448 0h224v-112q0-23.625-8.75-43.75t-24.063-35.438-35.437-24.062T1344 1008t-43.75 8.75-35.438 24.063-24.062 35.437T1232 1120v112zm336 112h-448v336h448v-336z"/></svg>