<svg width="1792" height="1792" xmlns="http://www.w3.org/2000/svg"><path d="M896 224q92.75 0 178.5 24.063t160.563 67.812 136.062 105 105 136.063 67.813 160.562T1568 896t-24.063 178.5-67.812 160.563-105 136.062-136.063 105-160.562 67.813T896 1568t-178.5-24.063-160.563-67.812-136.062-105-105-136.063-67.813-160.562T224 896t24.063-178.5 67.812-160.563 105-136.062 136.063-105T717.5 248.062 896 224zm0 1232q77 0 148.75-20.125t133.875-56.438 113.313-87.5 87.5-113.312 56.437-133.875T1456 896t-20.125-148.75-56.438-133.875-87.5-113.313-113.312-87.5-133.875-56.437T896 336t-148.75 20.125-133.875 56.438-113.313 87.5-87.5 113.312-56.437 133.875T336 896t20.125 148.75 56.438 133.875 87.5 113.313 113.312 87.5 133.875 56.437T896 1456zm0-896q69.125 0 130.375 26.25t107.188 72.188 72.187 107.187T1232 896q0 70-26.25 130.813t-72.188 106.75-107.187 72.187T896 1232q-70 0-130.813-26.25t-106.75-72.188-72.187-106.75T560 896q0-69.125 26.25-130.375t72.188-107.188 106.75-72.187T896 560z"/></svg>