<svg width="1792" height="1792" viewBox="0 0 1792 1792" xmlns="http://www.w3.org/2000/svg"><path d="M980 560q0-88.375-22.75-173.688T889.875 224H896q92.75 0 178.5 24.063t160.563 67.812 136.062 105 105 136.063 67.813 160.562T1568 896t-24.063 178.5-67.812 160.563-105 136.062-136.063 105-160.562 67.813T896 1568q-90.125 0-175-23.188t-160.563-66.937T422.188 1372t-108.062-140q91.875-.875 177.188-25.375t159.25-68.688 134.75-105.437 104.125-135.625 66.937-159.688T980 560zm-84 896q116.375 0 218.313-43.75t178.062-119.875 119.875-178.063T1456 896q0-92.75-28-176.75t-79.188-153.563-122.937-121.625-159.25-81.812Q1092 461.125 1092 560q0 131.25-41.563 251.563t-116.812 220.062-179.813 172.813-230.562 108.937q79.625 69.125 173.25 105.875T896 1456z"/></svg>