<svg width="64" height="64" viewBox="0 0 1792 1792" xmlns="http://www.w3.org/2000/svg"><path d="M1008 1568q0-92.75 24.063-178.938t67.812-160.562 105-135.625 135.625-105 160.563-67.813T1680 896v112q-77 0-148.75 20.125t-133.875 56.438-113.313 87.5-87.5 113.312-56.437 133.875T1120 1568h-112zm-336 0q0-139.125 35.875-268.188t101.5-241.062 157.5-203.875 203.875-157.5 241.063-101.5T1680 560v112q-123.375 0-238 31.938T1228.062 794.5t-181.124 140.438T906.5 1116.063 815.937 1330 784 1568H672zm-336 0q0-185.5 48.125-357T519.75 889.875t210-272.125 272.125-210T1323 272.125 1680 224v112q-169.75 0-326.813 44.188t-294 124.25-249.812 192.937-192.938 249.813-124.25 294T448 1568H336zm1176-336q35 0 65.625 13.125T1631 1281t35.875 53.375T1680 1400t-13.125 65.625T1631 1519t-53.375 35.875T1512 1568t-65.625-13.125T1393 1519t-35.875-53.375T1344 1400t13.125-65.625T1393 1281t53.375-35.875T1512 1232z"/></svg>