<svg width="1792" height="1792" viewBox="0 0 1792 1792" xmlns="http://www.w3.org/2000/svg"><path d="M784 560h112v1008H784V560zm412.125-188.125Q1267 442.75 1305.5 535.063T1344 728t-38.5 192.938-109.375 163.187l-78.75-78.75q55.125-55.125 84.438-126.875t29.312-150.5-29.313-150.5-84.437-126.875zm-633.5 78.75Q507.5 505.75 477.75 577.5T448 728t29.75 150.5 84.875 126.875l-78.75 78.75Q413 1013.25 374.5 920.937T336 728t38.5-192.938 109.375-163.187zm871.5-316.75q119 119.875 182.438 272.125T1680 728t-63.438 322-182.437 272.125L1354.5 1242.5q103.25-103.25 158.375-235.813T1568 728t-55.125-278.688T1354.5 213.5zM325.5 213.5Q222.25 316.75 167.125 449.313T112 728t55.125 278.688T325.5 1242.5l-79.625 79.625Q126.875 1202.25 63.437 1050T0 728t63.438-322 182.437-272.125z"/></svg>