<svg width="64" height="64" viewBox="0 0 1792 1792" xmlns="http://www.w3.org/2000/svg"><path d="M224 784q23.625 0 43.75 8.75t35.438 24.063 24.062 35.437T336 896t-8.75 43.75-24.063 35.438-35.437 24.062T224 1008t-43.75-8.75-35.438-24.063-24.062-35.437T112 896t8.75-43.75 24.063-35.438 35.437-24.062T224 784zm672 0q23.625 0 43.75 8.75t35.438 24.063 24.062 35.437T1008 896t-8.75 43.75-24.063 35.438-35.437 24.062T896 1008t-43.75-8.75-35.438-24.063-24.062-35.437T784 896t8.75-43.75 24.063-35.438 35.437-24.062T896 784zm672 0q23.625 0 43.75 8.75t35.438 24.063 24.062 35.437T1680 896t-8.75 43.75-24.063 35.438-35.437 24.062T1568 1008t-43.75-8.75-35.438-24.063-24.062-35.437T1456 896t8.75-43.75 24.063-35.438 35.437-24.062T1568 784z"/></svg>