<svg width="64" height="64" viewBox="0 0 1792 1792" xmlns="http://www.w3.org/2000/svg"><path d="M1568 980q0 27.125 8.313 47.688t20.562 38.5 27.125 35.437 27.125 39.813 20.563 50.75T1680 1260v420q0 23.625-8.75 43.75t-24.063 35.438-35.437 24.062T1568 1792H224V0h1232q23.625 0 43.75 8.75t35.438 24.063 24.062 35.437T1568 112v336h-112V112H336v1568h1008v-420q0-39.375 8.313-67.813t20.562-50.75 27.125-39.812 27.125-35.438 20.563-38.5T1456 980V784h112v196zm0 280q0-21-3.938-36.75t-11.374-28.875-17.5-25.813T1512 1141q-13.125 14.875-23.188 27.563t-17.5 25.812-11.374 28.875T1456 1260v420h112v-420zm224-700v112h-592.375l141.75 142.625-78.75 78.75L985.25 616l277.375-277.375 78.75 78.75L1199.625 560H1792z"/></svg>