<svg width="1792" height="1792" viewBox="0 0 1792 1792" xmlns="http://www.w3.org/2000/svg"><path d="M1348.375 723.625Q1268.75 644 1166.375 602T952 560t-214.375 42-182 121.625l-78.75-78.75Q572.25 549.5 694.313 498.75T952 448t257.688 50.75 217.437 146.125zM635.25 803.25q63.875-63.875 145.25-97.563T952 672t171.5 33.688 145.25 97.562L1189.125 882q-47.25-47.25-108.938-72.625T952 784t-128.188 25.375T714.875 882zM1624 1008q35 0 65.625 13.125T1743 1057t35.875 53.375T1792 1176v392H560v-392q0-35 13.125-65.625T609 1057t53.375-35.875T728 1008h896zm56 168q0-22.75-16.625-39.375T1624 1120H728q-22.75 0-39.375 16.625T672 1176v280h1008v-280zm-224 56h112v112h-112v-112zm-224 0h112v112h-112v-112zM112 1120h336v112H0V112h1680v784h-112V224H112v896z"/></svg>