<svg width="1792" height="1792" viewBox="0 0 1792 1792" xmlns="http://www.w3.org/2000/svg"><path d="M784 1568H560v-112h224v112zm56-658l-280 210V700zm728 210q23.625 0 43.75 8.75t35.438 24.063 24.062 35.437T1680 1232t-8.75 43.75-24.063 35.438-35.437 24.062T1568 1344v112q0 23.625-8.75 43.75t-24.063 35.438-35.437 24.062T1456 1568t-43.75-8.75-35.438-24.063-24.062-35.437T1344 1456t8.75-43.75 24.063-35.438 35.437-24.062T1456 1344V420q0-63.875-24.063-119.875t-66.062-98-98-66.063T1148 112q-69.125 0-131.25 29.313T910 224h210q23.625 0 43.75 8.75t35.438 24.063 24.062 35.437T1232 336v1344q0 23.625-8.75 43.75t-24.063 35.438-35.437 24.062T1120 1792H224q-23.625 0-43.75-8.75t-35.438-24.063-24.062-35.437T112 1680V336q0-23.625 8.75-43.75t24.063-35.438 35.437-24.062T224 224h552.125q27.125-51.625 66.938-93.188T931 60.376t103.25-44.625T1148 0q87.5 0 164.063 32.813T1445.5 122.5t89.688 133.438T1568 420v700zm-448-784H224v1344h896V336z"/></svg>