<svg width="64" height="64" viewBox="0 0 1792 1792" xmlns="http://www.w3.org/2000/svg"><path d="M1008 0q0 91 40.25 163.188t107.625 129.937Q1242.5 368.375 1293.25 462T1344 672h-112q0-91-40.25-163.188t-107.625-129.937q-21-17.5-39.813-36.75T1008 301.875V1540q0 7.875-2.625 18.813t-6.125 22.312-8.313 21.875-8.312 17.5q-21.875 42-56 74.375t-75.25 53.813-87.5 32.374T672 1792q-59.5 0-119.438-19.25T444.5 1717.625t-78.313-87.938T336 1512t30.188-117.688 78.312-87.937 108.063-55.125T672 1232q60.375 0 118.125 17.938T896 1304.624V0h112zM672 1680q35.875 0 75.25-10.5t72.625-31.5 54.688-52.5T896 1512t-21.438-73.5-54.687-52.5-72.625-31.5T672 1344t-75.25 10.5-72.625 31.5-54.688 52.5T448 1512t21.438 73.5 54.687 52.5 72.625 31.5T672 1680z"/></svg>