<svg width="64" height="64" viewBox="0 0 1792 1792" xmlns="http://www.w3.org/2000/svg"><path d="M1792 336v112H0V336h1792zM0 672h1792v112H0V672zm1120 784H0v-112h1120v112zm112-365.75l560-140V1568q0 27.125-12.688 47.688t-33.25 35-45.5 21.874T1652 1680t-48.563-7.438-45.5-21.874-33.25-35T1512 1568t12.688-47.688 33.25-35 45.5-21.874T1652 1456q13.125 0 28 2.625V1093.75l-336 84V1680q0 28-14 49t-35.438 35-47.687 21-49.875 7-49.875-7-47.688-21-35.437-35-14-49 14-49 35.438-35 47.687-21 49.875-7q8.75 0 17.5.875t17.5 2.625v-481.25zM1120 1120H0v-112h1120v112z"/></svg>