<svg width="1792" height="1792" xmlns="http://www.w3.org/2000/svg"><path d="M1568 1680h-336v112H448v-112H112v-112h336v-112h224v-112h112v-112H448v-112H224V560q0-23.625 8.75-43.75t24.063-35.438 35.437-24.062T336 448h112V0h784v448h112q23.625 0 43.75 8.75t35.438 24.063 24.062 35.437T1456 560v560h-224v112H896v112h112v112h224v112h336v112zM560 448h560V112H560v336zm-112 560V896h784v112h112V560H336v448h112zm672 112v-112H560v112h560zm0 448H896v-112H784v112H560v112h560v-112zM504 784q-22.75 0-39.375-16.625T448 728t16.625-39.375T504 672t39.375 16.625T560 728t-16.625 39.375T504 784z"/></svg>