<svg width="1792" height="1792" xmlns="http://www.w3.org/2000/svg"><path d="M1039.5 694.75q39.375-37.625 60.813-86.625T1121.75 504t-21.438-104.125-60.812-86.625l77.875-80.5q56 54.25 86.188 123.813T1233.75 504t-30.188 147.438-86.187 123.812zm233.625-623q43.75 42 78.313 91.875t58.187 105T1445.5 383.25 1457.75 504t-12.25 120.75-35.875 114.625-58.188 105-78.312 91.875l-77.875-80.5q72.625-70 111.563-160.563T1345.75 504t-38.938-191.188T1195.25 152.25zm-710.5 703.5q-56-54.25-86.188-123.813T446.25 504t30.188-147.438 86.187-123.812l77.875 80.5q-39.375 37.625-60.813 86.625T558.25 504t21.438 104.125T640.5 694.75zm-155.75 161q-43.75-42-78.313-91.875t-58.187-105T234.5 624.75 222.25 504t12.25-120.75 35.875-114.625 58.188-105 78.312-91.875l77.875 80.5q-72.625 70-111.563 160.563T334.25 504t38.938 191.188T484.75 855.75zM1008 504q0 39.375-17.063 73.938t-47.687 58.187L1290.625 1680h-117.25l-75.25-224h-516.25l-75.25 224h-117.25L736.75 636.125q-30.625-23.625-47.688-58.188T672 504q0-35 13.125-65.625T721 385t53.375-35.875T840 336t65.625 13.125T959 385t35.875 53.375T1008 504zm-168-56q-22.75 0-39.375 16.625T784 504t16.625 39.375T840 560t39.375-16.625T896 504t-16.625-39.375T840 448zm0 232.75L730.625 1008h218.75zM1061.375 1344l-75.25-224h-292.25l-75.25 224h442.75z"/></svg>