<svg width="64" height="64" viewBox="0 0 1792 1792" xmlns="http://www.w3.org/2000/svg"><path d="M1049.125 1029q42 21 65.188 58.625t23.187 84.875v296.625q0 7-5.25 12.688T1120 1487.5t-12.25-5.688-5.25-12.687V1172.5q0-35-18.813-65.625t-50.312-46.375L904.75 996.625q0 5.25.438 12.688t-.875 14-5.25 11.375-11.813 4.812-13.125-5.25-5.25-13.125V680.75q0-25.375-18.375-43.75t-43.75-18.375T762.562 637t-18.812 43.75v528.5q0 12.25-4.375 28T726.687 1267t-20.125 23.188-25.812 9.187q-7 0-12.25-5.688T663.25 1281q0-8.75 7-13.125t15.313-10.063 15.312-16.187 7-32.375v-71.75h-63q-13.125 0-24.5 5.688t-19.688 15.312-13.125 21.438-4.812 24.937v194.25q0 21 8.313 41.563t23.187 35.437l152.25 152.25q21.875 21.875 21.875 53.375v56.875q0 7-5.25 12.25t-12.25 5.25q-14.875 0-17.063-12.25t-1.75-28.875 0-34.125-10.937-28L588.875 1501.5q-20.125-20.125-31.063-47.25t-10.937-55.125V1197q0-19.25 8.313-36.313T577.5 1130.5t31.5-20.563 35.875-7.437h63V860.125q-16.625 0-39.813 1.313t-44.187-2.188T588 843.937 573.125 805V494.375q0-22.75 16.188-38.938t38.937-16.187h311.5q22.75 0 38.938 16.188t16.187 38.937V805q0 21-8.313 31.938t-21.437 16.187-29.313 6.125-31.062.875v96.25zM806.75 582.75q20.125 0 38.063 7.875t31.062 21 21 31.063 7.875 38.062v143.5h35q7.875 0 13.563-5.688T959 805V494.375q0-7.875-5.688-13.563t-13.562-5.687h-311.5q-7.875 0-13.563 5.688T609 494.375V805q0 7.875 5.688 13.563t13.562 5.687h79.625v-143.5q0-20.125 7.875-38.063t21.438-31.062 31.5-21 38.062-7.875z"/></svg>