<svg width="64" height="64" viewBox="0 0 1792 1792" xmlns="http://www.w3.org/2000/svg"><path d="M628.25 860.125q-22.75 0-38.938-16.188T573.125 805V494.375q0-22.75 16.188-38.938t38.937-16.187h311.5q22.75 0 38.938 16.188t16.187 38.937V805q0 22.75-16.188 38.938t-38.937 16.187h-311.5zM609 805q0 7.875 5.688 13.563t13.562 5.687h311.5q7.875 0 13.563-5.688T959 805V494.375q0-7.875-5.688-13.563t-13.562-5.687h-311.5q-7.875 0-13.563 5.688T609 494.375V805zm557.375 770q24.5 5.25 45.938 18.375t36.312 31.938 23.625 42 8.75 48.562V1792h-35.875v-57.313l-7-54.25-24.938-43.75-53.812-25.812-302.75-61.25q-14-3.5-14-17.5v-281.75q0-24.5-17.063-41.563T784 1191.75q-23.625 0-41.125 16.625t-17.5 41.125V1792H689.5v-105q-21 4.375-33.25 14.875t-18.813 24.5-8.312 30.625-1.75 35H591.5v-27.125q0-21 7.438-40.688t20.562-35 31.063-25.374 38.937-13.563v-399.875q0-19.25 7.438-36.313t20.562-30.187 30.188-20.563 36.312-7.437 36.313 7.438 30.187 20.124 20.563 29.75 7.437 36.313v267.75z"/></svg>