<svg width="1792" height="1792" xmlns="http://www.w3.org/2000/svg"><path d="M1272.25 1328.25q0 18.375-7 34.563t-19.25 28.874-28.438 19.688-34.562 7q-11.375 0-26.25-4.375-14.875 44.625-45.5 84.438t-71.75 63.437v176.75q0 7-5.688 12.25t-12.687 5.25-12.25-5.25-5.25-12.25v-182q0-14 11.375-21.875 25.375-17.5 46.813-36.313t38.062-46.812q9.625-17.5 19.25-40.688t9.625-43.312v-197.75q0-7 5.688-12.25t12.687-5.25 12.25 5.25 5.25 12.25V1379q4.375 1.75 9.188 2.625t9.187.875q22.75 0 38.063-16.188t15.312-38.062v-213.5q0-19.25-12.688-34.125t-31.062-19.25l-344.75-68.25q-5.25-1.75-9.625-5.688t-4.375-10.062q0-71.75-.438-143.5t-.437-143.5q0-25.375-17.938-44.188t-44.187-18.812q-25.375 0-44.188 18.375t-18.812 43.75v744.625q0 7-5.688 12.25t-12.687 5.25-12.25-5.25-5.25-12.25v-565.25q-15.75 0-32.813-.438t-31.937-5.25T582.75 847t-9.625-33.25V503.125q0-22.75 16.188-38.938T628.25 448h311.5q22.75 0 38.938 16.188t16.187 38.937V813.75q0 26.25-13.563 38.063t-33.25 15.75-41.125 2.625-38.062-1.313v92.75l330.75 64.75q31.5 6.125 52.063 31.5t20.562 56.875v213.5zM770.875 591.5q21 0 38.938 7.875t31.062 21.438 20.563 31.5 7.437 38.062V833h70.875q7.875 0 13.563-5.688T959 813.75V503.125q0-7.875-5.688-13.563t-13.562-5.687h-311.5q-7.875 0-13.563 5.688T609 503.125V813.75q0 7.875 5.688 13.563T628.25 833H672V685.125q0-19.25 8.313-36.75t22.312-29.75 31.938-19.688 36.312-7.437z"/></svg>