<svg width="64" height="64" viewBox="0 0 1792 1792" xmlns="http://www.w3.org/2000/svg"><path d="M1166.375 1001.875q24.5 5.25 45.938 17.938t36.312 31.5 23.625 42 8.75 48.562v211.75q0 10.5-3.938 33.25t-11.374 46.375-17.5 41.563T1225 1492.75q-7 0-12.688-5.25t-5.687-12.25q0-2.625 6.125-14.438t13.125-28.437 13.125-37.188 6.125-41.562v-211.75q0-19.25-6.563-36.75t-17.937-31.5T1193.5 1050t-34.125-13.125L856.625 976.5q-14-3.5-14-17.5V676.375q0-24.5-17.063-41.563T784 617.75t-41.563 17.063-17.062 41.562v595.875q0 7-5.25 12.25t-12.25 5.25-12.688-5.25-5.687-12.25V1113q-27.125 6.125-44.625 28.438t-17.5 50.312v182q0 20.125 8.313 38.938T658 1445.5l144.375 142.625q9.625 9.625 15.75 23.188t6.125 28.437v98q0 7-5.25 12.688t-12.25 5.687q-16.625 0-18.813-17.938t-.437-41.562 1.75-47.25T777 1613.5l-144.375-142.625q-19.25-19.25-30.188-44.625t-10.937-52.5v-182q0-21 7.438-40.688t20.562-35 31.063-25.812 38.937-14V676.375q0-19.25 7.438-36.313t20.562-30.187 30.188-20.563T784 581.875t36.313 7.438 30.187 20.562 20.563 30.188 7.437 36.312v267.75z"/></svg>