<svg width="1792" height="1792" xmlns="http://www.w3.org/2000/svg"><path d="M891.625 1378.125q-88.375 0-174.563-22.75t-163.625-65.188-143.062-102.812-111.125-136.5q-14.875-22.75-14.875-49 0-18.375 7-35T311.063 938t28.875-19.25 34.562-7q24.5 0 43.75 11.375t33.25 31.5q82.25 119 192.938 181.125T903 1197.875q140 0 250.688-65.188t188.562-178.062q13.125-19.25 31.063-31.063t42.437-11.812q39.375 0 66.5 24.5t27.125 65.625q0 13.125-3.5 24.063t-10.5 22.312q-21 38.5-50.313 71.75t-60.812 63.875q-100.625 95.375-227.5 144.813t-265.125 49.437zm-178.5-871.5q0 28.875-11.375 55.125t-30.625 45.938-45.063 31.062-55.562 11.375-55.563-11.375-45.062-30.625-30.625-45.063-11.375-55.562 10.938-56T469 405.562t45.063-31.062 55.562-11.375 55.563 11.375 45.5 31.063 31.062 45.5 11.375 55.562zm367.5 0q0-29.75 11.375-56t30.625-45.5 45.5-30.625 56-11.375 55.563 11.375 45.062 31.063 30.188 45.5 10.937 55.562-11.375 55.563-30.625 45.5-45.063 31.062-55.562 11.375-55.563-11.375-45.062-31.063-30.625-45.5-11.375-55.562z"/></svg>