<svg width="64" height="64" viewBox="0 0 1792 1792" xmlns="http://www.w3.org/2000/svg"><path d="M896.875 359.625q99.75 0 199.5 27.563t188.125 79.187 160.563 124.688 118.562 163.187q5.25 11.375 8.75 22.75t3.5 23.625q0 21.875-7.875 39.813t-21.875 30.625-32.375 19.687-39.375 7q-27.125 0-46.375-14.438t-33.25-35.437q-11.375-17.5-21.875-35t-22.75-34.125q-39.375-53.375-90.563-95.375t-109.374-71.313-122.5-44.625-130.813-15.312q-72.625 0-141.75 17.938t-130.813 52.062-114.187 82.688-91.875 109.812q-6.125 9.625-10.5 17.938t-10.5 17.937q-13.125 21.875-35 34.563T315 897.75q-20.125 0-37.625-7.875t-30.625-21-21-30.625-7.875-37.625q0-23.625 12.25-46.375 50.75-91.875 122.063-164.938t157.5-124.25 184.187-78.312 203-27.125zm0 482.125q57.75 0 108.5 21.875t88.375 59.938 59.5 88.812 21.875 108.5q0 58.625-22.313 109.375t-60.374 88.375-88.813 59.5-108.5 21.875q-58.625 0-108.938-21.875t-87.5-59.938-58.625-89.25T618.625 1120t21.875-108.063 59.938-88.375 88.375-59.937 108.062-21.875z"/></svg>