<svg width="64" height="64" viewBox="0 0 1792 1792" xmlns="http://www.w3.org/2000/svg"><path d="M.11 1066.625L277.468 789.25l277.357 277.375-78.744 78.75-141.742-142.625v510.125H221.471V1002.75L78.855 1145.375.11 1066.625zm221.361-729.75h1008.814V224H221.471v112.875zm223.986 1120h784.826V1344H445.456v112.875zM1453.392 448h335.98V112h-335.98v336zm223.992-112H1565.39V224h111.993v112zm-223.992 672h335.98V672h-335.98v336zm223.992-112H1565.39V784h111.993v112zm-223.992 672h335.98v-336h-335.98v336zm223.992-112H1565.39v-112h111.993v112zM557.45 896h671.958V784H445.456l111.992 112z"/></svg>