<svg width="64" height="64" viewBox="0 0 1792 1792" xmlns="http://www.w3.org/2000/svg"><path d="M1232 1456H0V672h1232v784zm-112-672H112v560h1008V784zM112 560H0V448h112v112zm0-224H0V224h112v112zm0-224H0V0h112v112zm672 0H672V0h112v112zm-448 0H224V0h112v112zm224 0H448V0h112v112zm224 224H672V224h112v112zm0 224H672V448h112v112zm639.625-448q89.25 89.25 157.938 172.813t115.5 175 70.874 197.312T1792 896q0 123.375-31.938 238t-90.124 214.375-140 181.563-181.563 140T1134 1760.062 896 1792v-112q107.625 0 207.813-28t187.25-79.188 158.812-122.937 122.938-158.813 79.187-187.25T1680 896q0-116.375-22.313-211.75t-64.75-178.5-105-159.25T1344 191.625V448h-112V0h448v112h-256.375z"/></svg>