<svg width="1792" height="1792" xmlns="http://www.w3.org/2000/svg"><path d="M1543.5 1390.375q56.875 28.875 102.813 71.313t78.312 94.5 49.875 112T1792 1792h-112q0-69.125-26.688-130.375t-72.187-106.75-106.75-72.188T1344 1456t-130.375 26.688-106.75 72.187-72.188 106.75T1008 1792H896q0-63.875 17.5-123.813t49.875-112 78.313-94.5 102.812-71.312q-63.875-47.25-100.188-119T1008 1120q0-69.125 26.688-130.375t72.187-106.75 106.75-72.188T1344 784t130.375 26.688 106.75 72.187 72.188 106.75T1680 1120q0 79.625-36.313 151.375t-100.187 119zM1344 1344q45.5 0 86.625-17.938t71.313-48.124 48.124-70.876T1568 1120q0-45.5-17.938-86.625t-48.124-71.313-71.313-48.125T1344 896q-46.375 0-87.063 17.938t-70.874 48.125-48.126 71.312T1120 1120q0 46.375 17.938 87.063t48.124 70.874 70.876 48.126T1344 1344zm-448-224H0V224h1568v482.125q-53.375-30.625-112-46.375V336H112v672h784v112z"/></svg>