<svg width="1792" height="1792" viewBox="0 0 1792 1792" xmlns="http://www.w3.org/2000/svg"><path d="M900.375 224q-91.875 0-177.188 24.063T563.5 315.438 428.312 419.563 324.188 554.75t-67.375 159.688-24.062 177.187 24.063 177.188 67.375 159.687 104.125 135.188T563.5 1467.812t159.688 67.376 177.187 24.062 177.188-24.063 159.687-67.374 135.188-104.126 104.124-135.187 67.376-159.688T1568 891.625t-24.063-177.188-67.374-159.25T1372 420t-135.188-104.563-159.25-67.375T900.375 224zm0-112q107.625 0 206.938 28t185.937 78.75 157.938 122.063T1573.25 498.75 1652 684.688t28 206.937-28 206.938-78.75 185.937-122.063 157.938T1293.25 1564.5t-185.938 78.75-206.937 28-206.938-28T507.5 1564.5t-157.938-122.063T227.5 1284.5t-78.75-185.938-28-206.937 28-206.938T227.5 498.75t122.063-157.938T507.5 218.75 693.438 140t206.937-28zm-77 1187.375l-78.75-78.75L1068.375 896l-323.75-324.625 78.75-78.75L1226.75 896z"/></svg>