<svg width="1792" height="1792" viewBox="0 0 1792 1792" xmlns="http://www.w3.org/2000/svg"><path d="M1008 896q0 23.625-8.75 43.75t-24.063 35.438-35.437 24.062T896 1008t-43.75-8.75-35.438-24.063-24.062-35.437T784 896t8.75-43.75 24.063-35.438 35.437-24.062T896 784t43.75 8.75 35.438 24.063 24.062 35.437T1008 896zM896 0q22.75 0 39.375 16.625l280 280Q1232 313.25 1232 336t-16.625 39.375T1176 392t-39.375-16.625L896 134.75 655.375 375.375Q638.75 392 616 392t-39.375-16.625T560 336t16.625-39.375l280-280Q873.25 0 896 0zm240.625 1416.625Q1153.25 1400 1176 1400t39.375 16.625T1232 1456t-16.625 39.375l-280 280Q918.75 1792 896 1792t-39.375-16.625l-280-280Q560 1478.75 560 1456t16.625-39.375T616 1400t39.375 16.625L896 1657.25zM336 560q22.75 0 39.375 16.625T392 616t-16.625 39.375L134.75 896l240.625 240.625Q392 1153.25 392 1176t-16.625 39.375T336 1232t-39.375-16.625l-280-280Q0 918.75 0 896t16.625-39.375l280-280Q313.25 560 336 560zm1120 0q22.75 0 39.375 16.625l280 280Q1792 873.25 1792 896t-16.625 39.375l-280 280Q1478.75 1232 1456 1232t-39.375-16.625T1400 1176t16.625-39.375L1657.25 896l-240.625-240.625Q1400 638.75 1400 616t16.625-39.375T1456 560z"/></svg>