<svg width="1792" height="1792" viewBox="0 0 1792 1792" xmlns="http://www.w3.org/2000/svg"><path d="M1659.875 1041.25l106.75 235.375q25.375 55.125 25.375 115.5V1456q0 33.25-9.188 63.875t-26.25 56.875-41.562 47.688-54.25 34.562q-13.125 30.625-34.563 55.125t-48.124 41.563-57.75 26.687T1456 1792q-60.375 0-112-29.75t-82.25-82.25h-619.5q-30.625 52.5-82.25 82.25T448 1792t-112-29.75-82.25-82.25H112q-23.625 0-43.75-8.75t-35.438-24.063T8.75 1611.75 0 1568v-224q0-69.125 26.25-130.375t72.188-107.188 106.75-72.187T336 1008h32.375l287-287q23.625-23.625 54.688-36.313T774.375 672H1568v112h-25.375zM774.375 784q-22.75 0-39.375 16.625L526.75 1008H1008V784H774.375zM448 1680q23.625 0 43.75-8.75t35.438-24.063 24.062-35.437T560 1568t-8.75-43.75-24.063-35.438-35.437-24.062T448 1456t-43.75 8.75-35.438 24.063-24.062 35.437T336 1568t8.75 43.75 24.063 35.438 35.437 24.062T448 1680zm672-672h401.625L1435 817.25q-7-14.875-20.563-24.063T1384.25 784H1120v224zm336 672q23.625 0 43.75-8.75t35.438-24.063 24.062-35.437T1568 1568t-8.75-43.75-24.063-35.438-35.437-24.062T1456 1456t-43.75 8.75-35.438 24.063-24.062 35.437T1344 1568t8.75 43.75 24.063 35.438 35.437 24.062T1456 1680z"/></svg>