<svg width="64" height="64" viewBox="0 0 1792 1792" xmlns="http://www.w3.org/2000/svg"><path d="M25.483 1276.625Q.11 1332.625.11 1393v63q0 66.5 35.873 121.625t96.245 82.25q27.123 60.375 82.245 96.25T336.091 1792q60.371 0 111.993-29.75t82.245-82.25h619.461q30.624 52.5 82.245 82.25t111.993 29.75 111.993-29.75 82.245-82.25h141.741q23.623 0 43.748-8.75t35.436-24.063 24.063-35.437 8.75-43.75v-224q0-70-26.249-131.25T1694.01 1106t-106.743-71.75-131.241-26.25h-32.374L1136.67 721q-23.625-23.625-54.684-36.313T1017.675 672H224.1v112h25.373zM672.069 784v224h-401.6l86.62-191.625q7-14.875 21.437-23.625t30.186-8.75h263.357zm345.6 0q22.75 0 39.374 16.625L1264.405 1008H784.06V784h233.61zm326.358 896q-23.623 0-43.748-8.75t-35.436-24.063-24.062-35.437-8.75-43.75 8.75-43.75 24.062-35.438 35.436-24.062 43.748-8.75 43.749 8.75 35.435 24.063 24.063 35.437 8.75 43.75-8.75 43.75-24.063 35.438-35.435 24.062-43.749 8.75zm0-336q-46.373 0-87.057 17.5t-71.309 48.125-48.122 71.313-17.5 87.062H784.06v-448h671.96q46.373 0 87.057 17.5t71.309 48.125 48.121 71.313 17.5 87.062v224h-111.993q0-46.375-17.5-87.063t-48.121-71.312-71.31-48.125-87.057-17.5zM336.09 1680q-23.623 0-43.748-8.75t-35.436-24.063-24.062-35.437-8.75-43.75 8.75-43.75q8.75-20.125 24.062-35.438t35.436-24.062 43.748-8.75 43.748 8.75 35.436 24.063 24.063 35.437 8.75 43.75-8.75 43.75-24.063 35.438-35.436 24.062q-20.125 8.75-43.748 8.75zm-223.988-287q0-35.875 14.874-70l92.743-203h452.349v448H560.073q0-46.375-17.5-87.063t-48.122-71.312-71.309-48.125-87.057-17.5q-36.749 0-70.872 11.375t-62.121 32.375-48.999 50.313-32.373 64.312q-9.623-23.625-9.623-46.375v-63z"/></svg>