<svg width="64" height="64" viewBox="0 0 1792 1792" xmlns="http://www.w3.org/2000/svg"><path d="M1766.625 1276.625Q1792 1332.625 1792 1393v63q0 66.5-35.875 121.625t-96.25 82.25q-27.125 60.375-82.25 96.25T1456 1792q-60.375 0-112-29.75t-82.25-82.25h-619.5q-30.625 52.5-82.25 82.25T448 1792t-112-29.75-82.25-82.25H112q-23.625 0-43.75-8.75t-35.438-24.063T8.75 1611.75 0 1568v-224q0-70 26.25-131.25T98 1106t106.75-71.75T336 1008h32.375l287-287q23.625-23.625 54.688-36.313T774.375 672H1568v112h-25.375zM1120 784v224h401.625L1435 816.375q-7-14.875-21.438-23.625t-30.187-8.75H1120zm-345.625 0q-22.75 0-39.375 16.625L527.625 1008H1008V784H774.375zM448 1680q23.625 0 43.75-8.75t35.438-24.063 24.062-35.437T560 1568t-8.75-43.75-24.063-35.438-35.437-24.062T448 1456t-43.75 8.75-35.438 24.063-24.062 35.437T336 1568t8.75 43.75 24.063 35.438 35.437 24.062T448 1680zm0-336q46.375 0 87.063 17.5t71.312 48.125 48.125 71.313T672 1568h336v-448H336q-46.375 0-87.063 17.5t-71.312 48.125-48.125 71.313T112 1344v224h112q0-46.375 17.5-87.063t48.125-71.312 71.313-48.125T448 1344zm1008 336q23.625 0 43.75-8.75t35.438-24.063 24.062-35.437T1568 1568t-8.75-43.75-24.063-35.438-35.437-24.062T1456 1456t-43.75 8.75-35.438 24.063-24.062 35.437T1344 1568t8.75 43.75 24.063 35.438 35.437 24.062T1456 1680zm224-287q0-35.875-14.875-70l-92.75-203H1120v448h112q0-46.375 17.5-87.063t48.125-71.312 71.313-48.125T1456 1344q36.75 0 70.875 11.375T1589 1387.75t49 50.313 32.375 64.312Q1680 1478.75 1680 1456v-63z"/></svg>