<svg width="1792" height="1792" viewBox="0 0 1792 1792" xmlns="http://www.w3.org/2000/svg"><path d="M1736 1568q22.75 0 39.375 16.188T1792 1624q0 21-14.875 38.5-26.25 30.625-60.375 54.688t-72.625 40.687-79.625 25.375-80.5 8.75q-86.625 0-160.125-33.688t-133-95.812q-42.875-44.625-95.375-69.563T980 1568q-61.25 0-115.063 24.938t-95.812 69.562l-8.313 7.875-20.125 19.688-25.812 25.812-26.688 26.25L666.313 1764l-10.937 11.375Q638.75 1792 616 1792t-39.375-16.625T560 1736t16.625-39.375q47.25-47.25 89.25-91t87.5-77 99.75-52.938T980 1456q86.625 0 160.125 33.688t133 95.812q42.875 44.625 95.375 69.563T1484 1680q66.5 0 115.5-24.938t95.375-69.562q9.625-8.75 18.813-13.125T1736 1568zM1080.625 253.75q12.25 7 20.125 20.125t7.875 28q0 7-1.75 13.125t-4.375 12.25L483.875 1565.375q-7.875 16.625-24.5 24.5L308 1666q-28 14-60.375 14h-8.313l-8.312-.875-41.125 82.25q-7 14-20.563 22.313T140 1792q-22.75 0-39.375-16.625T84 1736q0-10.5 6.125-26.25t14.438-32.813T121.624 1645t13.125-24.5q-22.75-35-22.75-76.125V1400q0-14 6.125-25.375l504-1008-56.875-28-207.375 414.75q-7 14-20.563 22.313T308 784q-22.75 0-39.375-16.625T252 728q0-11.375 6.125-25.375l209.125-418.25q14-28 37.625-44.188T560 224q30.625 0 58.188 14.875t53.812 28l62.125-124.25q7-14.875 20.563-22.75T784 112q11.375 0 19.25 3.5 10.5-21 20.563-41.563t22.75-37.187 31.062-26.688T924 0t53.375 13.125l82.25 41.125q28 14 44.188 37.188T1120 147q0 29.75-13.563 55.563t-25.812 51.187zm-176.75-88.375L980 203l25.375-50.75-76.125-37.625zm73.5 161.875l-168-84L224 1413.125v131.25q0 9.625 7 16.625t16.625 7q3.5 0 14.438-4.375t25.375-11.375 30.625-15.313 31.062-16.187 26.25-14T392 1498z"/></svg>