<svg width="1792" height="1792" viewBox="0 0 1792 1792" xmlns="http://www.w3.org/2000/svg"><path d="M1528.625 253.75q12.25 7 20.125 20.125t7.875 28q0 7-1.75 13.125t-4.375 12.25L931.875 1565.375q-7.875 16.625-24.5 24.5L756 1666q-28 14-60.375 14h-8.313l-8.312-.875-41.125 82.25q-7 14-20.563 22.313T588 1792q-22.75 0-39.375-16.625T532 1736q0-10.5 6.125-26.25t14.438-32.813T569.625 1645t13.125-24.5q-22.75-35-22.75-76.125V1400q0-14 6.125-25.375l504-1008-56.875-28-207.375 414.75q-7 14-20.563 22.313T756 784q-22.75 0-39.375-16.625T700 728q0-11.375 6.125-25.375l209.125-418.25q14-28 37.625-44.188T1008 224q30.625 0 58.188 14.875t53.812 28l62.125-124.25q7-14.875 20.563-22.75T1232 112q11.375 0 19.25 3.5 10.5-21 20.563-41.563t22.75-37.187 31.062-26.688T1372 0t53.375 13.125l82.25 41.125q28 14 44.188 37.188T1568 147q0 29.75-13.563 55.563t-25.812 51.187zm-176.75-88.375L1428 203l25.375-50.75-76.125-37.625zm73.5 161.875l-168-84L672 1413.125v131.25q0 9.625 7 16.625t16.625 7q3.5 0 14.438-4.375t25.375-11.375 30.625-15.313 31.062-16.187 26.25-14T840 1498zM1568 672q46.375 0 87.063 17.5t71.312 48.125 48.125 71.313T1792 896t-17.5 87.063-48.125 71.312-71.313 48.125T1568 1120h-252l56-112h196q23.625 0 43.75-8.75t35.438-24.063 24.062-35.437T1680 896t-8.75-43.75-24.063-35.438-35.437-24.062T1568 784q-22.75 0-39.375-16.625T1512 728t16.625-39.375T1568 672zM112 1400q0 57.75 21.875 108.938t59.938 89.25 89.25 59.937T392 1680h38.5q-4.375 13.125-7.438 27.125T420 1736t3.063 28.875T430.5 1792H392q-81.375 0-152.688-31.063t-124.25-84-84-124.25T0 1400t31.063-152.688 84-124.25 124.25-84T392 1008h196l-56 112H392q-57.75 0-108.938 22.313t-89.25 60.374-59.937 88.813T112 1400z"/></svg>