<svg width="64" height="64" viewBox="0 0 1792 1792" xmlns="http://www.w3.org/2000/svg"><path d="M263.468 253.75q-12.25 7-20.123 20.125t-7.875 28q0 7 1.75 13.125t4.375 12.25l618.588 1238.125q7.875 16.625 24.498 24.5L1036.047 1666q27.999 14 60.372 14h8.312l8.313-.875 41.123 82.25q7 14 20.56 22.313t29.312 8.312q22.748 0 39.373-16.625t16.625-39.375q0-10.5-6.125-26.25t-14.438-32.813-17.06-31.937-13.125-24.5q22.748-35 22.748-76.125V1400q0-14-6.125-25.375l-503.97-1008 56.871-28 207.363 414.75q7 14 20.56 22.313t29.311 8.312q22.749 0 39.374-16.625T1092.046 728q0-11.375-6.125-25.375l-209.113-418.25q-14-28-37.623-44.188T784.063 224q-30.623 0-58.184 14.875t-53.809 28l-62.121-124.25q-7-14.875-20.561-22.75T560.077 112q-11.375 0-19.25 3.5-10.5-21-20.56-41.563t-22.75-37.187-31.061-26.688T420.082 0t-53.371 13.125L284.466 54.25q-27.998 14-44.186 37.188T224.093 147q0 29.75 13.562 55.563t25.811 51.187zm176.741-88.375L364.088 203l-25.374-50.75 76.12-37.625zM366.713 327.25l167.989-84 585.34 1169.875v131.25q0 9.625-7 16.625t-16.623 7q-3.5 0-14.438-4.375t-25.373-11.375-30.623-15.313-31.061-16.187-26.248-14-16.625-8.75zM224.095 672q-46.374 0-87.058 17.5t-71.309 48.125-48.121 71.313T.109 896t17.498 87.063 48.121 71.312 71.31 48.125 87.057 17.5h251.984l-55.997-112H224.095q-23.624 0-43.749-8.75t-35.435-24.063-24.061-35.437T112.1 896t8.75-43.75 24.06-35.438 35.436-24.062 43.749-8.75q22.748 0 39.373-16.625T280.093 728t-16.625-39.375T224.095 672zm1455.914 728q0 57.75-21.873 108.938t-59.934 89.25-89.245 59.937-108.93 21.875h-38.499q4.375 13.125 7.438 27.125t3.062 28.875-3.063 28.875-7.437 27.125h38.498q81.37 0 152.679-31.063t124.241-84 83.995-124.25 31.06-152.687-31.06-152.688-83.995-124.25-124.241-84T1400.026 1008H1204.04l55.996 112h139.991q57.747 0 108.93 22.313t89.246 60.374 59.934 88.813 21.873 108.5z"/></svg>