<svg width="64" height="64" viewBox="0 0 1792 1792" xmlns="http://www.w3.org/2000/svg"><path d="M1431.5 606.375q56.875 28.875 102.813 71.313t78.312 94.5 49.875 112T1680 1008h-112q0-69.125-26.688-130.375t-72.187-106.75-106.75-72.188T1232 672t-130.375 26.688-106.75 72.187-72.188 106.75T896 1008q0 79.625-36.313 151.375t-100.187 119q56.875 28.875 102.813 71.313t78.312 94.5 49.875 112T1008 1680H896q0-69.125-26.688-130.375t-72.187-106.75-106.75-72.188T560 1344t-130.375 26.688-106.75 72.187-72.188 106.75T224 1680H112q0-63.875 17.5-123.813t49.875-112 78.313-94.5 102.812-71.312q-63.875-47.25-100.188-119T224 1008q0-69.125 26.688-130.375t72.187-106.75 106.75-72.188T560 672q79.625 0 151.375 36.313t119 100.187q33.25-65.625 84.875-117.25t117.25-84.875q-63.875-47.25-100.188-119T896 336q0-69.125 26.688-130.375t72.187-106.75 106.75-72.188T1232 0t130.375 26.688 106.75 72.187 72.188 106.75T1568 336q0 79.625-36.313 151.375t-100.187 119zM560 1232q45.5 0 86.625-17.938t71.313-48.124 48.125-70.876T784 1008q0-45.5-17.938-86.625t-48.125-71.313-71.312-48.125T560 784q-46.375 0-87.063 17.938t-70.875 48.125-48.125 71.312T336 1008q0 46.375 17.938 87.063t48.125 70.874 70.875 48.126T560 1232zm448-896q0 46.375 17.938 87.063t48.124 70.875 70.876 48.125T1232 560q45.5 0 86.625-17.938t71.313-48.125 48.124-70.875T1456 336q0-45.5-17.938-86.625t-48.124-71.313-71.313-48.125T1232 112q-46.375 0-87.063 17.938t-70.874 48.125-48.126 71.312T1008 336z"/></svg>