<svg width="1792" height="1792" viewBox="0 0 1792 1792" xmlns="http://www.w3.org/2000/svg"><path d="M1792 1376.375V1792h-448v-224h-224v-224H896v-181.125Q831.25 1197 760.375 1214.5T616 1232q-84.875 0-163.625-21.875t-147-62.125-124.688-96.688T84 926.625t-62.125-147T0 616t21.875-163.625 62.125-147 96.688-124.688T305.375 84t147-62.125T616 0t163.625 21.875 147 62.125 124.688 96.688T1148 305.375t62.125 147T1232 616q0 44.625-7 88.375t-20.125 85.75zm-112 47.25l-603.75-603.75q19.25-49.875 31.5-100.188T1120 616q0-104.125-39.813-196T972.125 259.875 812 151.812 616 112t-196 39.813-160.125 108.062T151.812 420 112 616t39.813 196 108.062 160.125T420 1080.188 616 1120q84.875 0 166.688-28.875T930.125 1008H1008v224h224v224h224v224h224v-256.375zM448 336q23.625 0 43.75 8.75t35.438 24.063 24.062 35.437T560 448t-8.75 43.75-24.063 35.438-35.437 24.062T448 560t-43.75-8.75-35.438-24.063-24.062-35.437T336 448t8.75-43.75 24.063-35.438 35.437-24.062T448 336z"/></svg>