<svg width="1792" height="1792" viewBox="0 0 1792 1792" xmlns="http://www.w3.org/2000/svg"><path d="M1543.5 1390.375q56.875 28 102.813 70.438t78.312 94.937 49.875 112.875T1792 1792h-112q0-69.125-26.25-130.375t-72.188-107.188-107.187-72.187T1344 1456q-70 0-130.813 26.25t-106.75 72.188-72.187 107.187T1008 1792H896q0-58.625 15.313-115.5T955.5 1568H672v112q0 35-18.813 62.125t-50.312 41.125Q584.5 1792 560 1792q-46.375 0-79.625-33.25L224 1502.375V0h1120q22.75 0 43.313 8.75t35.874 24.063 24.063 35.874T1456 112v691.25q49.875 17.5 91.438 49.438t70.874 73.5 45.5 91T1680 1120q0 80.5-35.875 151.375t-100.625 119zM1568 1120q0-46.375-17.5-87.063t-48.125-71.312-71.313-48.125T1344 896t-87.063 17.5-71.312 48.125-48.125 71.313T1120 1120t17.5 87.063 48.125 71.312 71.313 48.125T1344 1344t87.063-17.5 71.312-48.125 48.125-71.313T1568 1120zM560 1372q0-39.375 8.313-67.813t20.562-50.75T616 1213.626t27.125-35.438 20.563-38.5T672 1092V527.625l-336-336V1456l224 224v-308zm487.375 84q44.625-39.375 97.125-65.625-64.75-48.125-100.625-119T1008 1120q0-69.125 26.25-130.375t72.188-107.188 106.75-72.187T1344 784V112H415.625l336 336q15.75 15.75 24.063 36.313T784 527.625V1092q0 39.375-8.313 67.813t-20.562 50.75T728 1250.374t-27.125 35.438-20.563 38.5T672 1372v84h375.375z"/></svg>