<svg width="64" height="64" viewBox="0 0 1792 1792" xmlns="http://www.w3.org/2000/svg"><path d="M896 1568v112h224v112H560v-112h224v-112H0V560h896L783.125 672H112v784h1456V784l112-112v896H896zm-448-336q23.625 0 43.75-8.75t35.438-24.063 24.062-35.437T560 1120q0-42.875 15.313-81.375t42-68.25 63-49.438 79.187-24.062l622.125-622.125q24.5-24.5 56.875-37.625T1505 224q35.875 0 67.813 13.563t55.562 37.187 37.188 55.563T1679.124 399q0 34.125-13.125 66.5t-37.625 56.875L1006.25 1144.5q-4.375 42-23.625 78.75t-49.438 63.438-68.25 42T784 1344H224v-112h224zm1057-896q-25.375 0-43.75 18.375L1071.875 743.75q49.875 38.5 88.375 88.375l389.375-389.375Q1568 424.375 1568 399q0-26.25-18.813-44.625T1505 336zM911.75 903.875q53.375 35 88.375 88.375l80.5-79.625q-36.75-52.5-89.25-89.25zM896 1120q0-23.625-8.75-43.75t-24.063-35.438-35.437-24.062T784 1008t-43.75 8.75-35.438 24.063-24.062 35.437T672 1120q0 59.5-29.75 112H784q22.75 0 43.313-8.75t35.875-24.063 24.062-35.874T896 1120z"/></svg>