<svg width="64" height="64" viewBox="0 0 1792 1792" xmlns="http://www.w3.org/2000/svg"><path d="M1680 0v1792H280q-35 0-65.625-13.125T161 1743t-35.875-53.375T112 1624V224q0-43.75 18.813-84t49.875-71.313T252 18.813 336 0h1344zm-112 1568H280q-22.75 0-39.375 16.625T224 1624t16.625 39.375T280 1680h1288v-112zm0-1456H336q-20.125 0-40.25 10.063t-35.875 25.812-25.813 35.875T224 224v1241.625q28.875-9.625 56-9.625h1288V112zm-409.5 1232q-90.125 0-186.375-36.313t-187.688-98-172.812-143.5T469 892.938t-97.125-186.375T336 523.25q0-48.125 8.313-82.25t24.937-63 41.563-55.125 57.312-58.625Q488.25 245 513.188 234.5t52.937-10.5 52.938 10.5 44.187 29.75q21 21 48.125 44.188t51.188 49.437 40.25 56T819 477.75q0 27.125-8.75 48.125t-22.75 38.938-31.5 34.125-35 33.687L714 651q0 6.125 19.688 28.875t49.875 53.813 66.062 67.375 68.688 68.25T976.5 925.75t34.125 33.25q7 7 18.375 7 9.625 0 19.25-7.875t20.125-19.25 23.188-25.375 28.874-25.375 36.313-19.25 45.5-7.875q34.125 0 63.875 16.188t56 40.25 49.438 51.187 44.187 48.125q19.25 19.25 29.75 44.625t10.5 52.5q0 28-10.5 52.938t-29.75 45.062q-31.5 32.375-58.188 56.875t-54.687 41.125-62.563 25.375-81.812 8.75zM566.125 336q-10.5 0-18.375 7.875-23.625 23.625-42.438 41.563t-31.5 36.75-19.25 42T448 522.375q0 75.25 32.375 156.625t87.5 160.125 127.313 150.063 150.937 125.125 159.25 85.75T1158.5 1232q35 0 58.188-6.563t42-19.687 36.312-31.5 41.125-42l7.875-17.5q0-4.375-9.188-17.063t-23.624-28.437-31.5-32.813-32.813-31.062-28-23.188T1202.25 973q-14 0-28.875 16.625t-34.125 36.313-45.938 35.874T1029 1078q-28 0-52.938-10.063T931 1037.75L642.25 749q-41.125-41.125-41.125-98 0-37.625 16.625-63.875t36.313-45.938 36.312-34.562T707 477.75q0-4.375-9.188-17.063t-23.625-28.437-31.062-32.813-32.375-31.062-28-23.188T566.125 336z"/></svg>