<svg width="64" height="64" viewBox="0 0 1792 1792" xmlns="http://www.w3.org/2000/svg"><path d="M1406.125 1061.375q38.5 0 73.938 14.438t62.562 41.562l192.5 192.5q27.125 27.125 41.563 62.563t14.437 73.937-14.438 73.938-41.562 62.562q-49.875 50.75-91 89.688t-84.875 65.624-97.125 40.25T1333.5 1792q-109.375 0-224.875-34.125t-229.688-94.5-224-143.5-207.375-181.563-179.812-208.25-141.75-224-92.75-227.937T0 457.625q0-75.25 13.563-128.188t40.25-97.125 65.624-84.875 89.688-90.562q27.125-27.125 62.125-42T345.625 0q38.5 0 73.938 14.875t62.562 42l192.5 192.5q27.125 27.125 41.563 62.563t14.437 73.937-13.125 68.688-32.375 54.687-42.438 44.625-42.437 39.375-32.375 38.938-13.125 42.437q0 33.25 23.625 56.875l482.125 482.125q23.625 23.625 56.875 23.625 22.75 0 42.438-13.125t38.937-32.375 39.375-42.438 44.625-42.437 54.688-32.375 68.687-13.125zM1333.5 1680q63 0 105.438-11.813t76.562-34.124 66.5-55.563 74.375-75.25q23.625-23.625 23.625-56.875 0-15.75-12.688-37.188t-32.812-45.062-45.063-48.563-49-47.25-44.624-41.124-31.938-30.188q-23.625-23.625-57.75-23.625-22.75 0-42 13.125t-38.5 32.375-39.813 42.438-45.062 42.437-54.688 32.375-68.687 13.125-73.938-14.438-62.562-41.562L498.75 811.125Q471.625 784 457.187 748.562t-14.437-73.937 13.125-68.688 32.375-54.687 42.438-45.063 42.437-39.812 32.375-38.5 13.125-42q0-34.125-23.625-57.75-11.375-11.375-30.188-31.938t-41.125-44.625-47.25-49-48.562-45.062-45.063-32.813T345.625 112q-33.25 0-56.875 23.625-42 42-74.813 74.375t-56 66.5-35 76.563-11.812 104.562q0 98 31.938 202.125T231.438 868t133.437 205.188 168 191.187 192.063 166.25 204.75 131.688 206.5 86.624T1333.5 1680z"/></svg>