<svg width="64" height="64" viewBox="0 0 1792 1792" xmlns="http://www.w3.org/2000/svg"><path d="M1008 0q108.5 0 208.688 28t187.25 79.188 158.374 122.5 122.5 158.375T1764 575.313 1792 784h-784V0zm112 672h551.25q-18.375-105.875-66.938-198.188t-121.187-164.937-164.938-121.188T1120 120.75V672zM896 896h784q0 51.625-2.625 99.75t-10.063 95.375-20.124 94.063-32.813 94.062q-49.875 117.25-129.5 211.75t-180.688 161.438T1085 1755.688 840 1792q-116.375 0-223.563-29.75t-200.812-84.438-170.188-131.25-131.25-170.187-84.437-200.813T0 952t29.75-223.563 84.438-200.812 131.25-170.188 170.187-131.25 200.813-84.437T840 112h56v784zm-112 112V225.75q-94.5 7-181.125 37.188t-161 79.187T306.25 457.188 202.125 601.563t-66.5 167.125T112 952q0 100.625 26.25 193.375t73.5 173.688T325.5 1466.5t147.438 113.75 173.687 73.5T840 1680q94.5 0 183.313-23.625t167.125-66.5 144.374-104.125 115.063-135.625 79.188-161T1566.25 1008H784z"/></svg>