<svg width="1792" height="1792" viewBox="0 0 1792 1792" xmlns="http://www.w3.org/2000/svg"><path d="M1792 448v784h-56q-68.25 0-125.125-29.313t-98-82.687h-432.25q-24.5 51.625-61.25 93.188t-82.688 70.437-98.875 44.625T728 1344h-56V896H112L0 840l112-56h560V336h56q56.875 0 109.813 15.75t98.875 44.625 82.687 70.438 61.25 93.187h432.25q41.125-53.375 98-82.688T1736 448h56zm-112 121.625q-21 7-35.875 17.5t-26.688 23.188-21.874 28.437T1575 672h-571.375L990.5 634.375q-24.5-69.125-79.625-117.25t-126.875-63v771.75q71.75-14.875 126.875-63t79.625-117.25l13.125-37.625H1575q10.5 17.5 20.563 33.25t21.874 28.438 26.688 23.187 35.875 17.5v-540.75z"/></svg>