<svg width="64" height="64" viewBox="0 0 1792 1792" xmlns="http://www.w3.org/2000/svg"><path d="M1741.25 654.5q-28.875 28.875-56.438 52.938t-56.874 40.687-63.876 25.813-78.312 9.187q-29.75 0-56.875-5.25L1097.25 1109.5q11.375 33.25 16.625 68.25t5.25 70q0 56.875-11.375 103.25t-32.813 87.5-52.062 78.313-69.125 75.687L616 1254.75l-497 497.875L0 1792l39.375-119 497.875-497L199.5 838.25l39.375-39.375q61.25-61.25 140.438-93.625t165.812-32.375q71.75 0 137.375 21.875l331.625-331.625q-5.25-27.125-5.25-56.875 0-42.875 9.188-77.438t25.812-64.312 40.688-57.313T1137.5 50.75zm-255.5 16.625q48.125 0 91-22.75L1143.625 215.25q-22.75 42.875-22.75 91 0 24.5 5.688 45.938t12.687 44.187L708.75 826q-21.875-8.75-41.125-16.625t-38.5-13.125-39.813-8.313-44.187-3.062q-49.875 0-96.688 14.438t-87.062 42.437l588.875 588.875q28-40.25 42.875-87.063T1008 1247.75q0-23.625-3.063-44.188t-8.75-40.25-13.562-38.937T966 1083.25l429.625-430.5q22.75 7 44.188 12.688t45.937 5.687z"/></svg>