<svg width="1792" height="1792" xmlns="http://www.w3.org/2000/svg"><path d="M1792 896q0 122.5-32.375 238t-92.75 217-146.563 185.938T1327.376 1680H1568v112h-448v-448h112v257.25q102.375-48.125 185.063-122.063t140.874-165.812 90.126-198.188T1680 896q0-107.625-28-207.813t-79.188-187.25-122.937-158.812-158.813-122.938T1103.813 140 896 112t-207.813 28-187.25 79.188-158.812 122.937-122.938 158.813T140 688.188 112 896q0 131.25 42 252.875t118.125 221.375 182 172.813 232.75 108.062l-29.75 107.625q-96.25-27.125-182.438-73.5t-159.25-108.5-131.687-139.125T84.437 1274t-62.562-182T0 896q0-123.375 31.938-238T122.5 444.062t140.438-181.125T444.063 122.5 658 31.937 896 0t238 31.938 213.938 90.562 181.124 140.438T1669.5 444.063 1760.063 658 1792 896zm-448 0l-672 387.625v-775.25z"/></svg>