<svg width="1792" height="1792" viewBox="0 0 1792 1792" xmlns="http://www.w3.org/2000/svg"><path d="M1702.75 840l-839.125 840h-467.25l-295.75-296.625q-21.875-21.875-32.813-50.313T56.876 1274t10.938-59.063T99.75 1165.5L1064 201.25zM1064 358.75L470.75 952 952 1433.25 1545.25 840zM873.25 1512L392 1030.75l-212.625 212.625Q168 1254.75 168 1274t12.25 31.5l262.5 262.5h373.625zM0 1568h112v112H0v-112zm1022 112l98-98v98h-98zm210-112h112v112h-112v-112zm224 0h112v112h-112v-112zm336 0v112h-112v-112h112z"/></svg>