<svg width="1792" height="1792" viewBox="0 0 1792 1792" xmlns="http://www.w3.org/2000/svg"><path d="M89.353 840l839.073 840h467.222l295.732-296.625q21.875-21.875 32.811-50.313t10.938-59.062-10.938-59.063-31.936-49.437L728.067 201.25zm638.712-481.25L1321.278 952l-481.22 481.25L246.844 840zM918.802 1512l481.222-481.25 212.613 212.625q11.375 11.375 11.375 30.625t-12.25 31.5L1349.28 1568H975.676zM1792 1568h-111.993v112H1792v-112zM770.063 1680l-97.995-98v98h97.993zm-209.988-112H448.082v112h111.993v-112zm-223.986 0H224.096v112H336.09v-112zM.11 1568v112h111.993v-112H.11z"/></svg>