<svg width="64" height="64" viewBox="0 0 1792 1792" xmlns="http://www.w3.org/2000/svg"><path d="M280 1120q22.75 0 39.375 16.625T336 1176t-16.625 39.375T280 1232t-39.375-16.625T224 1176t16.625-39.375T280 1120zm1232 0q22.75 0 39.375 16.625T1568 1176t-16.625 39.375T1512 1232t-39.375-16.625T1456 1176t16.625-39.375T1512 1120zm247.625-336l-57.75 56.875q1.75 4.375 8.75 26.25t17.063 51.625 21.437 63.875 21 62.563 15.75 47.25l6.125 18.812V1680q0 23.625-8.75 43.75t-24.063 35.438-35.437 24.062T1680 1792h-112q-23.625 0-43.75-8.75t-35.438-24.063-24.062-35.437T1456 1680H336q0 23.625-8.75 43.75t-24.063 35.438-35.437 24.062T224 1792H112q-23.625 0-43.75-8.75t-35.438-24.063T8.75 1723.75 0 1680v-568.75l6.125-18.813 15.75-47.25 21-62.562 21.438-63.875 17.062-51.625 8.75-26.25L32.375 784H0V672h79.625l49.875 50.75 64.75-195.125q14-42.875 40.688-78.313t61.687-60.375T373.188 350t87.062-14h871.5q45.5 0 87.063 14t76.562 38.938 61.25 60.375 41.125 78.312l64.75 195.125 49.875-50.75H1792v112h-32.375zM460.25 448q-55.125 0-98.438 31.5T301 562.625L226.625 784h1338.75L1491 562.625Q1473.5 511 1430.187 479.5T1331.75 448h-871.5zM1232 1525.125L1141 1344H651l-91 181.125V1568h672v-42.875zm-784-26.25L553 1288l-105-210.875V896H189.875q-1.75 4.375-7.875 22.75t-14.875 44.188-18.375 55.125-17.938 53.812-13.562 40.688L112 1128.75V1568h336v-69.125zm784-448V896H560v154.875L651 1232h490zM1680 1568v-439.25l-5.25-16.188-13.563-40.687-17.937-53.813-18.375-55.125-15.313-44.187-7.437-22.75H1344v181.125L1239 1288l105 210.875V1568h336zM392 224q-22.75 0-39.375-16.625T336 168t16.625-39.375T392 112h1008q22.75 0 39.375 16.625T1456 168t-16.625 39.375T1400 224H392z"/></svg>