<svg width="64" height="64" viewBox="0 0 1792 1792" xmlns="http://www.w3.org/2000/svg"><path d="M952 896H840V0h112v896zm185.5-633.5q120.75 38.5 220.938 112t171.5 172.375 110.687 217T1680 1008q0 108.5-28 208.688t-79.188 187.25-122.5 158.374-158.374 122.5-187.25 79.188T896 1792t-208.688-28-187.25-79.188-158.375-122.5-122.5-158.374T140 1216.688 112 1008q0-126 39.375-244.125t110.688-217 171.5-172.375 220.937-112l35 105.875Q585.375 402.5 499.625 465.5t-147 147-94.938 185.063T224 1008q0 92.75 24.063 178.5t67.812 160.563 105 136.062 136.063 105 160.562 67.813T896 1680t178.5-24.063 160.563-67.812 136.062-105 105-136.063 67.813-160.562T1568 1008q0-109.375-33.688-210.438T1439.376 612.5t-147-147-189.875-97.125z"/></svg>