<svg width="1792" height="1792" xmlns="http://www.w3.org/2000/svg"><path d="M975.625 0L1456 480.375V560H896V0h79.625zM1008 448h256.375L1008 191.625V448zm336 336V672h112v112h-112zm0 224V896h112v112h-112zm0 224v-112h112v112h-112zm0 224v-112h112v112h-112zm0 224v-112h112v112h-112zm-224 0v-112h112v112h-112zm-224 0v-112h112v112H896zm-224 0v-112h112v112H672zm-224 0v-112h112v112H448zm-224 0v-112h112v112H224zm0-896V672h112v112H224zm0-224V448h112v112H224zm0-224V224h112v112H224zm0-224V0h112v112H224zm224 0V0h112v112H448zm224 0V0h112v112H672zm-448 896V896h112v112H224zm0 224v-112h112v112H224zm0 224v-112h112v112H224z"/></svg>