<svg width="1792" height="1792" xmlns="http://www.w3.org/2000/svg"><path d="M1568 112q23.625 0 43.75 8.75t35.438 24.063 24.062 35.437T1680 224v1344q0 23.625-8.75 43.75t-24.063 35.438-35.437 24.062T1568 1680H112q-23.625 0-43.75-8.75t-35.438-24.063T8.75 1611.75 0 1568V784q0-23.625 8.75-43.75t24.063-35.438T68.25 680.75 112 672h336V224q0-23.625 8.75-43.75t24.063-35.438 35.437-24.062T560 112h1008zM448 1568V784H112v784h336zM1568 224H560v1344h1008V224zM280 896q22.75 0 39.375 16.625T336 952t-16.625 39.375T280 1008t-39.375-16.625T224 952t16.625-39.375T280 896zm1176 560H672l392-784zm-392-533.75L965.125 1120h197.75zM853.125 1344h421.75l-56-112h-309.75z"/></svg>