<svg width="64" height="64" viewBox="0 0 1792 1792" xmlns="http://www.w3.org/2000/svg"><path d="M1120 1232v37.625l89.25 122.5q7.875 11.375 13.125 30.625t5.25 33.25q0 22.75-8.75 43.313t-24.063 35.874-35.874 24.063-43.313 8.75h-999.25q-22.75 0-43.313-8.75t-35.874-24.063-24.063-35.874T4.375 1456q0-14 5.25-33.25t13.125-30.625l89.25-122.5V672h336V224h1344v1008h-672zm-896 0h784V784H224v448zm891.625 223.125q-4.375-9.625-14.875-24.5T1078 1400t-24.063-31.063-18.812-24.937h-838.25q-7 9.625-18.813 24.938T154 1400t-22.75 30.625-14.875 24.5v.875l999.25-.875zM1120 672v448h560V336H560v336h560z"/></svg>