<svg width="1792" height="1792" xmlns="http://www.w3.org/2000/svg"><path d="M1792 448v784h-112v112h-224v-112H336v112H112v-112H0V448h1792zm-672 504q0 35 13.125 65.625T1169 1071t53.375 35.875T1288 1120t65.625-13.125T1407 1071t35.875-53.375T1456 952t-13.125-65.625T1407 833t-53.375-35.875T1288 784t-65.625 13.125T1169 833t-35.875 53.375T1120 952zm560-392H112v560h952q-27.125-36.75-41.563-79.625T1008 952q0-57.75 22.313-108.5t60.374-88.813 88.813-60.375T1288 672t108.5 22.313 88.813 60.375 60.374 88.812T1568 952q0 45.5-14.438 88.375T1512 1120h168V560zM560 784H224V672h336v112zm0 224H224V896h336v112z"/></svg>