<svg width="1792" height="1792" viewBox="0 0 1792 1792" xmlns="http://www.w3.org/2000/svg"><path d="M1680 1120v672H896v-672h112q0-66.5 15.313-127.313t49-107.187 86.624-73.938T1288 784t129.063 27.563 86.624 73.937 49 107.188T1568 1120h112zm-560 0h336v-56q0-35-13.125-65.625T1407 945t-53.375-35.875T1288 896t-65.625 13.125T1169 945t-35.875 53.375T1120 1064v56zm448 112h-560v448h560v-448zM336 1680h448v112H224V256.375L480.375 0H1568v752.5q-25.375-22.75-53.375-41.125T1456 679V112H527.625L336 303.625V1680z"/></svg>