<svg xmlns="http://www.w3.org/2000/svg" viewBox="0 0 2302 1024"><path d="M73.5 499.5q16 0 29.75 6.25t23.5 17 15.25 25 5.5 29.75-5.5 29.75-15.5 25-23.5 17-29.5 6.25-29.5-6.25-23.25-17-15.25-25T0 577.5q0-15 5.5-29.25t15.5-25T44.25 506t29.25-6.5zM1079 570v3l191 93.5-30 55L1068.5 593l-2.5 2 18 221.5h-58.5l18-221.5-2.5-2-171.5 128.5-29.5-55 190.5-93.5v-3L840 476.5l29.5-55 171.5 128 2.5-1.5-18-221.5h58.5L1066 548l2.5 1.5 171.5-128 30 55zm1222.5 295.5H2231q-32-28-59-60.5-19.5 17-38.75 30t-39.75 21.75-43.25 13.25-49.25 4.5q-35.5 0-65.75-11.75t-52.75-33.25-35.25-51-12.75-65.5q0-30.5 8-55t22.5-44.75 35.25-36.5T1946 546v-3q-10-12-18.5-26.75t-15-30.75-10.25-32.5-3.75-32q0-30 10.25-55.75t28.5-45 43.5-30 55.75-10.75q26 0 47.75 9t37.5 24.75T2146 351t8.5 48q0 31-10.75 54.5T2115 495.25t-41.25 33T2026 555.5v2.5q34.5 44.5 73.25 89.25T2178 731.5q13-17 21.75-38.25t15-44.25 10.5-46 7.75-44h53.5q-4 26.5-10 55t-15.25 56.25T2239 723.5t-31 45.5zM2032 323q-19.5 0-34.25 7.5T1973 350.75 1958 380t-5 34.5q0 16 3.5 30.25t9.5 27.5 14.25 25.75 17.75 25q17.5-9.5 36-20.75t34-25.75 25.25-32.5 9.75-40.5q0-16-4.75-30.5t-13.75-25.75-22.25-17.75T2032 323zm-18.5 503q37.5 0 70.5-14.5t58.5-41.5q-44-43-86.5-92.5t-81.5-97.5q-18 9.5-33.5 22t-26.5 28-17.25 34-6.25 40q0 27 9 49.25t25.25 38.5T1964 817t49.5 9z"/></svg>