<svg width="64" height="64" xmlns="http://www.w3.org/2000/svg" viewBox="0 0 2035 1024"><path d="M448.5 781.5H540v87L492 968h-40l43.5-99.5h-47v-87zM0 780h91v88.5H0V780zm1512.5-294.5l-250 187.5 97 299L1104 787 848.5 971l96-298L694 485.5h311.5l98.5-303 98.5 303h310zM1216 658l183.5-132.5H1174l-70-222-69 220H808L991 658l-72 215.5L1104 738l183.5 135.5zm633.5-395q3 14 5.5 27t8 26.5q5 12 12.75 22.25T1893 358q31 29.5 57 55.5t44.75 54.5 29.25 62.5 10.5 80q0 30.5-7.5 57t-20.75 50.25-32 44.5T1933 802l-4 3.5-19-17q16.5-16.5 31-34t25.25-37 17.25-41 6.5-46q0-17-2.5-33.5t-9-32.5q-7-17-21.25-33.25t-31.5-30.5-36-26-35.25-19.25V815q0 27.5-11.5 52.25t-30.75 43.25-44.5 29.25-52.25 10.75q-19 0-34.75-4.5t-27.25-14-18-24-6.5-34.5q0-26.5 11.75-49.5t31.25-39.75 44-26.5 50-9.75q12 0 25 3t23.5 9V263h35z"/></svg>