<svg width="1792" height="1792" xmlns="http://www.w3.org/2000/svg"><path d="M1400 784q-23.625 0-43.75 8.75t-35.438 24.063-24.062 35.437T1288 896t8.75 43.75 24.063 35.438 35.437 24.062T1400 1008h168v448h-336v56q0 46.375-17.5 87.063t-48.125 71.312-71.313 48.125T1008 1736t-87.063-17.5-71.312-48.125-48.125-71.313T784 1512v-56H448v-336h-56q-46.375 0-87.063-17.5t-71.312-48.125-48.125-71.313T168 896t17.5-87.063 48.125-71.312 71.313-48.125T392 672h56V336h336v-56q0-46.375 17.5-87.063t48.125-71.312T920.938 73.5 1008 56t87.063 17.5 71.312 48.125 48.125 71.313T1232 280v56h336v448h-168zm0 336q-46.375 0-87.063-17.5t-71.312-48.125-48.125-71.313T1176 896t17.5-87.063 48.125-71.312 71.313-48.125T1400 672h56V448h-336V280q0-23.625-8.75-43.75t-24.063-35.438-35.437-24.062T1008 168t-43.75 8.75-35.438 24.063-24.062 35.437T896 280v168H560v336H392q-23.625 0-43.75 8.75t-35.438 24.063-24.062 35.437T280 896t8.75 43.75 24.063 35.438 35.437 24.062T392 1008h168v336h336v168q0 23.625 8.75 43.75t24.063 35.438 35.437 24.062T1008 1624t43.75-8.75 35.438-24.063 24.062-35.437T1120 1512v-168h336v-224h-56z"/></svg>