<svg width="1792" height="1792" xmlns="http://www.w3.org/2000/svg"><path d="M112 1344q123.375 0 238-31.938t213.938-90.562 181.125-140.438T885.5 899.938 976.063 686 1008 448q0-116.375-29.75-228.375T891.625 7q112 14 214.375 53.375T1295.875 161t158.375 141.313 121.188 174.125 77.437 200.375T1680 896q0 123.375-31.938 238t-90.562 213.938-140.438 181.124-181.124 140.438T1022 1760.063 784 1792q-120.75 0-235.375-31.5t-215.688-90.563-185.062-143.5T4.375 1337q27.125 3.5 53.813 5.25T112 1344zm672 336q108.5 0 208.688-28t187.25-79.188 158.374-122.5 122.5-158.374 79.188-187.25T1568 896q0-119-35-230.563t-98.438-206.5T1281 289.625t-200.375-119Q1120 306.25 1120 448q0 127.75-30.625 247.188t-87.5 225.75T864.5 1117.813t-179.375 159.25-213.938 112.874T229.25 1449q112 112 254.188 171.5T784 1680z"/></svg>