<svg width="64" height="64" viewBox="0 0 1792 1792" xmlns="http://www.w3.org/2000/svg"><path d="M1792 224v112H784V224h1008zm-224 1120H0v-112h1568v112zM224 896h1568v112H224V896zm0 672h1568v112H224v-112zm56-896q-57.75 0-108.5-22.313t-88.813-60.375T22.313 500.5 0 392t22.313-108.5 60.374-88.813 88.813-60.375T280 112t108.5 22.313 88.813 60.375 60.375 88.812T560 392H448q0-35-13.125-65.625T399 273t-53.375-35.875T280 224t-65.625 13.125T161 273t-35.875 53.375T112 392t13.125 65.625T161 511t53.375 35.875T280 560h1288v112H280z"/></svg>