<svg width="1792" height="1792" xmlns="http://www.w3.org/2000/svg"><path d="M1568 784q23.625 0 43.75 8.75t35.438 24.063 24.062 35.437T1680 896v784H112V896q0-23.625 8.75-43.75t24.063-35.438 35.437-24.062T224 784h224V336q0-46.375 17.5-87.063t48.125-71.312 71.313-48.125T672 112h784q46.375 0 87.063 17.5t71.312 48.125 48.125 71.313T1680 336t-17.5 87.063-48.125 71.312-71.313 48.125T1456 560h-112v224h224zm0-448q0-23.625-8.75-43.75t-24.063-35.438-35.437-24.062T1456 224t-43.75 8.75-35.438 24.063-24.062 35.437T1344 336v112h112q23.625 0 43.75-8.75t35.438-24.063 24.062-35.437T1568 336zM560 784h672V336q0-29.75 8.313-58.188T1263.5 224H672q-23.625 0-43.75 8.75t-35.438 24.063-24.062 35.437T560 336v448zm1008 112H224v672h1344V896zM560 1120H336v-112h224v112z"/></svg>