<svg width="64" height="64" viewBox="0 0 1792 1792" xmlns="http://www.w3.org/2000/svg"><path d="M840 56q77 0 148.75 20.125t133.875 56.438 113.313 87.5 87.5 113.312 56.437 133.875T1400 616q0 117.25-43.75 213.5T1232 1008t-124.25 178.5T1064 1400v224q0 23.625-8.75 43.75t-24.063 35.438-35.437 24.062T952 1736H728q-23.625 0-43.75-8.75t-35.438-24.063-24.062-35.437T616 1624v-224q0-117.25-43.75-213.5T448 1008 323.75 829.5 280 616q0-77 20.125-148.75t56.438-133.875 87.5-113.313 113.312-87.5T691.25 76.126 840 56z"/></svg>