<svg width="1792" height="1792" viewBox="0 0 1792 1792" xmlns="http://www.w3.org/2000/svg"><path d="M840 761.25l576.625-576.625 78.75 78.75L840 918.75 548.625 627.375l78.75-78.75zm599.375-283.5q7.875 34.125 12.25 68.688T1456 616q0 129.5-47.688 235.375T1270.5 1048.25q-72.625 73.5-111.563 160.563T1120 1400v224q0 35-13.125 65.625T1071 1743t-53.375 35.875T952 1792H728q-35 0-65.625-13.125T609 1743t-35.875-53.375T560 1624v-224q0-104.125-38.938-191.188T409.5 1048.25q-90.125-91-137.813-196.875T224 616q0-84.875 21.875-163.625t62.125-147 96.688-124.688T529.375 84t147-62.125T840 0q120.75 0 231 44.625t196.875 129.5l-78.75 79.625q-70.875-68.25-161-105T840 112q-104.125 0-196 39.813T483.875 259.875 375.812 420 336 616t38.938 191.188T486.5 967.75q78.75 79.625 123.813 171.5T665.875 1344h347.375q11.375-112.875 56-204.75t124.25-171.5q72.625-73.5 111.563-160.563T1344 616q0-9.625-1.313-19.25t-3.062-19.25zM952 1680q22.75 0 39.375-16.625T1008 1624v-168H672v168q0 22.75 16.625 39.375T728 1680h224z"/></svg>