<svg width="64" height="64" viewBox="0 0 1792 1792" xmlns="http://www.w3.org/2000/svg"><path d="M223.125 1005.375v-222.25h673.75v222.25h-673.75zm897.75 227.5H-.875v-673.75h1121.75v113.75h-1008v446.25h1008v113.75zm672-673.75v673.75h-337.75v-113.75h224v-446.25h-224v-113.75h337.75zm-448 812q97.125 84 223.125 84h.875v113.75H1568q-154 0-278.25-96.25-61.25 47.25-132.563 71.75t-149.187 24.5h-.875v-113.75h.875q126.875 0 223.125-81.375v-959q-45.5-38.5-101.938-58.188T1008 336.875h-.875v-113.75h.875q79.625 0 150.938 23.625t130.812 69.125q120.75-92.75 278.25-92.75h.875v113.75H1568q-129.5 0-223.125 80.5v953.75z"/></svg>