<svg width="64" height="64" viewBox="0 0 1792 1792" xmlns="http://www.w3.org/2000/svg"><path d="M1688.75 192.5q22.75 39.375 41.563 75.25t32.812 72.625 21.438 76.563T1792 504q0 69.125-17.938 133.438t-50.75 120.312-79.187 102.375-102.375 79.188-120.313 50.75T1288 1008q-20.125 0-40.688-1.75t-40.687-5.25l-705.25 705.25q-42 42-95.813 63.875T293.125 1792q-60.375 0-113.75-23.188t-93.188-63-63-93.187T0 1498.875q0-58.625 21.875-112.438t63.875-95.812L791 585.375q-3.5-20.125-5.25-40.688T784 504q0-69.125 17.938-133.438t50.75-120.312 79.187-102.375 102.375-79.188 120.313-50.75T1288 0q47.25 0 87.063 7.438t76.562 21.437 72.625 32.813 75.25 41.562L1254.75 448l89.25 89.25zM1288 896q81.375 0 152.688-31.063t124.25-84 84-124.25T1680 504q0-63.875-21-123.375L1344 694.75 1097.25 448l314.125-315q-59.5-21-123.375-21-81.375 0-152.688 31.063t-124.25 84-84 124.25T896 504q0 30.625 5.25 59.5t12.25 57.75l-748.125 749Q140 1395.625 126 1428.875t-14 70 14.438 70 38.937 57.75 57.75 38.938 70 14.437 70-14 58.625-39.375l749-748.125q28.875 7 57.75 12.25T1288 896z"/></svg>