<svg width="1792" height="1792" viewBox="0 0 1792 1792" xmlns="http://www.w3.org/2000/svg"><path d="M1232 269.5q-25.375 18.375-53.375 30.188T1120 319.375V204.75q49-16.625 93.188-39.813T1299.374 112H1344v672h-112V269.5zM1792 896q0 123.375-31.938 238t-90.124 214.375-140 181.563-181.563 140T1134 1760.062 896 1792t-238-31.938-214.375-90.124-181.563-140-140-181.563-90.124-213.938T0 896q0-121.625 31.938-237.125T123.811 441 269.5 254.625 462 112H224V0h448v448H560V187.25q-102.375 49-185.063 122.938T233.625 476.875t-90.125 199.5T112 896q0 107.625 28 207.813t79.188 187.25 122.937 158.812 158.813 122.938T687.75 1652 896 1680q107.625 0 207.813-28t187.25-79.188 158.812-122.937 122.938-158.813T1652 1104.25 1680 896h112z"/></svg>