<svg width="64" height="64" viewBox="0 0 1792 1792" xmlns="http://www.w3.org/2000/svg"><path d="M1134.875 33.25q145.25 39.375 266 122.938t207.813 197.75 135.187 252.875T1792 896q0 123.375-31.938 238t-90.124 214.375-140 181.563-181.563 140T1134 1760.062 896 1792t-238-31.938-214.375-90.124-181.563-140-140-181.563-90.124-213.938T0 896q0-122.5 32.375-238t92.313-217.438 145.687-185.5T463.75 112H224V0h448v448H560V188.125q-102.375 49-185.063 122.938t-141.312 166.25T143.5 676.375 112 896q0 107.625 28 207.813t79.188 187.25 122.937 158.812 158.813 122.938T687.75 1652 896 1680q107.625 0 207.813-28t187.25-79.188 158.812-122.937 122.938-158.813T1652 1104.25 1680 896q0-131.25-42.438-252.875T1519 421.75t-181.563-172.813-232.312-108.062l29.75-107.625z"/></svg>