<svg width="64" height="64" viewBox="0 0 1792 1792" xmlns="http://www.w3.org/2000/svg"><path d="M896 1344H784v-112h112v112zm0-1008H784v784h112V336zm-56 1453.375q-104.125-61.25-206.938-130.813t-196-149.624-173.25-171.063-138.687-195.125T33.25 921.375 0 672V224q72.625 0 140.875-5.25t133-19.25 127.75-39.375 126-65.625Q602 46.375 676.375 23.187T840 0q44.625 0 84.875 5.688t78.313 17.5T1078 52.938t74.375 41.562q63 40.25 126 65.625t127.75 39.375 133 19.25T1680 224v448q0 132.125-33.25 249.375t-91.875 221.375-138.688 195.125-173.25 171.063-196 149.624T840 1789.376zM112 334.25V672q0 111.125 29.313 213.5t80.062 194.688 120.75 175 150.5 155.75 169.313 135.187T840 1659.875q89.25-51.625 178.063-113.75t169.312-135.188 150.5-155.75 120.75-175 80.063-194.687T1568 672V334.25q-130.375-7-249.813-42T1088.5 186.375q-59.5-38.5-118.563-56.438T840 112t-129.938 17.938T591.5 186.375Q481.25 257.25 361.812 292.25T112 334.25z"/></svg>