<svg width="1792" height="1792" xmlns="http://www.w3.org/2000/svg"><path d="M1120 1568v-112h224v112h-224zm-448-560H560V672h112v336zm-112 112h112v112H560v-112zm560-168q0 104.125-39.813 196t-108.062 160.125T812 1416.188 616 1456t-196-39.813-160.125-108.062T151.812 1148 112 952v-56h112v56q0 81.375 31.063 152.688t84 124.25 124.25 84T616 1344t152.688-31.063 124.25-84 84-124.25T1008 952t-31.063-152.688-84-124.25-124.25-84T616 560H246.75l128.625 128.625-78.75 78.75L32.375 504l264.25-263.375 78.75 78.75L246.75 448H616q104.125 0 196 39.813t160.125 108.062T1080.188 756 1120 952zM1680 0q23.625 0 43.75 8.75t35.438 24.063 24.062 35.437T1792 112v1568q0 23.625-8.75 43.75t-24.063 35.438-35.437 24.062T1680 1792H784q-23.625 0-43.75-8.75t-35.438-24.063-24.062-35.437T672 1680v-86.625q28-2.625 56-7.875t56-12.25V1680h896V112H784v218.75q-28-7-56-12.25t-56-7.875V112q0-23.625 8.75-43.75t24.063-35.438T740.25 8.75 784 0h896z"/></svg>