<svg width="1792" height="1792" xmlns="http://www.w3.org/2000/svg"><path d="M1512 1344q-22.75 0-39.375-16.625T1456 1288t16.625-39.375T1512 1232t39.375 16.625T1568 1288t-16.625 39.375T1512 1344zm168-336q23.625 0 43.75 8.75t35.438 24.063 24.062 35.437T1792 1120v560H0v-560q0-23.625 8.75-43.75t24.063-35.438 35.437-24.062T112 1008h336.875Q384.125 922.25 357 821.625l107.625-29.75q20.125 72.625 61.688 133t98.875 103.688 126.437 67.374T896 1120q92.75 0 174.125-35.438t142.188-96.25 96.25-142.187T1344 672t-35.438-174.125-96.25-142.188-142.187-96.25T896 224q-59.5 0-116.375 15.75t-107.188 44.625-92.312 70.438T508.375 448H672v112H336V224h112v112.875q40.25-53.375 90.125-94.938T645.313 171.5t120.75-44.188T896 112q116.375 0 218.313 43.75t178.062 119.875 119.875 178.063T1456 672q0 91-28.438 177.188T1344 1008h336zm0 112h-448q-72.625 55.125-158.813 83.563T896 1232q-91.875 0-177.188-28.438T560 1120H112v448h1568v-448z"/></svg>