<svg width="1792" height="1792" xmlns="http://www.w3.org/2000/svg"><path d="M1008 448q135.625 0 257.688 50.75t217.437 146.125 146.125 217.438T1680 1120q0 92.75-24.063 178.5t-67.812 160.563-105 136.062-136.063 105-160.562 67.813T1008 1792H224v-112h784q77 0 148.75-20.125t133.875-56.438 113.313-87.5 87.5-113.312 56.437-133.875T1568 1120t-20.125-148.75-56.438-133.875-87.5-113.313-113.312-87.5-133.875-56.437T1008 560H289.625l372.75 373.625-64.75 64.75L102.375 504 597.625 9.625l64.75 64.75L289.625 448H1008z"/></svg>