<svg width="1792" height="1792" xmlns="http://www.w3.org/2000/svg"><path d="M1568 1344v112h-448q0 46.375-17.5 87.063t-48.125 71.312-71.313 48.125T896 1680t-87.063-17.5-71.312-48.125-48.125-71.313T672 1456H224v-112h112V672q0-77 20.125-148.75t56.438-133.875 87.5-113.313 113.312-87.5 133.875-56.437T896 112t148.75 20.125 133.875 56.438 113.313 87.5 87.5 113.312 56.437 133.875T1456 672v672h112zm-224 0V672q0-92.75-35.438-174.125t-96.25-142.188-142.187-96.25T896 224t-174.125 35.438-142.188 96.25-96.25 142.187T448 672v672h896zm-448 224q23.625 0 43.75-8.75t35.438-24.063 24.062-35.437T1008 1456H784q0 23.625 8.75 43.75t24.063 35.438 35.437 24.062T896 1568z"/></svg>