<svg width="1792" height="1792" viewBox="0 0 1792 1792" xmlns="http://www.w3.org/2000/svg"><path d="M1288 784q81.375 0 152.688 30.625t124.687 84 84 124.688T1680 1176t-30.625 152.688-84 124.687-124.688 84T1288 1568t-152.688-30.625-124.687-84-84-124.688T896 1176t30.625-152.688 84-124.687 124.688-84T1288 784zm-280 392q0 57.75 21.875 108.938t59.938 89.25 89.25 59.937T1288 1456q41.125 0 80.5-11.813t73.5-34.562L1054.375 1022q-22.75 34.125-34.563 73.5T1008 1176zm513.625 154q22.75-34.125 34.563-73.5T1568 1176q0-57.75-22.313-108.5t-60.374-88.813-88.813-60.375T1288 896q-41.125 0-80.5 11.813t-73.5 34.562zM784 1456q12.25 0 23.625-3.063t22.75-7.437q14.875 24.5 31.938 46.813t36.312 43.312Q846.125 1568 784 1568q-46.375 0-87.063-17.5t-71.312-48.125-48.125-71.313T560 1344H224v-112h112V672q0-90.125 33.688-171.5t97.562-145.25 145.25-97.563T784 224q92.75 0 174.563 35t142.625 95.813T1197 497.438 1232 672h-112q0-69.125-26.25-130.375t-72.188-107.188-107.187-72.187T784 336q-70 0-130.813 26.25t-106.75 72.188-72.187 107.187T448 672v560h311.5q2.625 28.875 8.75 56.875T784 1344H672q0 23.625 8.75 43.75t24.063 35.438 35.437 24.062T784 1456z"/></svg>