<svg width="1792" height="1792" xmlns="http://www.w3.org/2000/svg"><path d="M1120 895.125q45.5 0 86.625 17.938t71.313 48.125 48.124 71.312 17.938 86.625v112h112v560H784v-560h112v-112q0-45.5 17.938-86.625t48.125-71.313 70.875-48.125T1120 895.125zm-112 336h224v-112q0-22.75-8.75-43.313t-24.063-35.874-35.874-24.063-43.313-8.75q-23.625 0-43.75 8.75t-35.438 24.063-24.062 35.437-8.75 43.75v112zm336 112H896v336h448v-336zM436.625 1186.5l78.75-79.625 168 168.875-78.75 78.75zM1086.75 0q22.75 0 43.313 7.875t36.312 23.625l593.25 593.25q15.75 15.75 24.063 36.313t8.312 43.312q0 21.875-8.313 42.438t-24.062 36.312l-306.25 306.25q-7-64.75-35.875-123.375L1680 703.5l-592.375-592.375L112 1085.875l560 560v138.25q-13.125-4.375-24.938-10.5t-21.437-15.75L32.375 1165.5q-15.75-15.75-24.063-36.313T0 1086.75q0-22.75 8.313-43.313t24.062-36.312L1008 31.5q15.75-15.75 36.313-23.625T1086.75 0z"/></svg>