<svg width="1792" height="1792" xmlns="http://www.w3.org/2000/svg"><path d="M896 448q46.375 0 87.063 17.5t71.312 48.125 48.125 71.313T1120 672t-17.5 87.063-48.125 71.312-71.313 48.125T896 896t-87.063-17.5-71.312-48.125-48.125-71.313T672 672t17.5-87.063 48.125-71.312 71.313-48.125T896 448zm0 336q23.625 0 43.75-8.75t35.438-24.063 24.062-35.437T1008 672t-8.75-43.75-24.063-35.438-35.437-24.062T896 560t-43.75 8.75-35.438 24.063-24.062 35.437T784 672t8.75 43.75 24.063 35.438 35.437 24.062T896 784zm560-98q74.375 19.25 136.063 60.813t106.312 98.875T1767.5 973t24.5 147q0 92.75-35 174.563t-95.813 142.624T1518.563 1533 1344 1568v-112q69.125 0 130.375-26.25t107.188-72.188 72.187-106.75T1680 1120q0-53.375-16.188-102.813t-45.5-91-70.874-73.5T1456 803.25V1120H336V802.375q-49.875 17.5-91.438 49.438t-70.875 73.5-45.5 91T112 1119.124q0 70 26.25 130.813t72.188 106.75 106.75 72.187T448 1455.125h256.375L562.625 1312.5l78.75-78.75 277.375 277.375L641.375 1788.5l-78.75-78.75 141.75-142.625H448q-92.75 0-174.563-35t-142.625-95.813T35 1293.688 0 1119.124Q0 1043 24.5 972.562t69.125-128.187 106.313-99.313T336 685.125V224h256.375l112-112h383.25l112 112H1456v462zm-112-350h-191.625l-112-112h-288.75l-112 112H448v672h896V336z"/></svg>