<svg width="1792" height="1792" xmlns="http://www.w3.org/2000/svg"><path d="M896 672q46.375 0 87.063 17.5t71.312 48.125 48.125 71.313T1120 896t-17.5 87.063-48.125 71.312-71.313 48.125T896 1120t-87.063-17.5-71.312-48.125-48.125-71.313T672 896t17.5-87.063 48.125-71.312 71.313-48.125T896 672zm0 336q23.625 0 43.75-8.75t35.438-24.063 24.062-35.437T1008 896t-8.75-43.75-24.063-35.438-35.437-24.062T896 784t-43.75 8.75-35.438 24.063-24.062 35.437T784 896t8.75 43.75 24.063 35.438 35.437 24.062T896 1008zm896-112q0 122.5-32.375 238t-92.313 217.438-145.687 185.937T1328.25 1680H1568v112h-448v-448h112v259.875q102.375-48.125 185.063-122.5t141.312-166.688 90.125-199.062T1680 896q0-107.625-28-207.813t-79.188-187.25-122.937-158.812-158.813-122.938T1103.813 140 896 112t-207.813 28-187.25 79.188-158.812 122.937-122.938 158.813T140 688.188 112 896q0 131.25 42.438 252.875T273 1370.25t181.563 172.813 232.312 108.062l-29.75 107.625q-145.25-39.375-266-122.938t-207.813-197.75-135.187-252.874T0 896q0-123.375 31.938-238t90.124-214.375 140-181.563 181.563-140 213.938-90.124T896 0q123.375 0 238 31.938t214.375 90.124 181.563 140 140 181.563T1760.062 658 1792 896z"/></svg>