<svg width="1792" height="1792" viewBox="0 0 1792 1792" xmlns="http://www.w3.org/2000/svg"><path d="M1568 336q23.625 0 43.75 8.75t35.438 24.063 24.062 35.437T1680 448v1232H480.375L336 1534.75V1344h-79.625L112 1198.75V224q0-23.625 8.75-43.75t24.063-35.438 35.437-24.062T224 112h1008q23.625 0 43.75 8.75t35.438 24.063 24.062 35.437T1344 224v112h224zM672 896h672V448H672v448zm-336 336V448q0-23.625 8.75-43.75t24.063-35.438 35.437-24.062T448 336h784V224H224v928.375L303.625 1232H336zm896 0H672v336h112v-224h112v224h336v-336zm336-784h-112v560H560V448H448v1040.375L527.625 1568H560v-448h784v448h224V448z"/></svg>