<svg width="1792" height="1792" xmlns="http://www.w3.org/2000/svg"><path d="M1617 784q36.75 0 68.688 13.125t55.562 36.313 37.188 55.125T1792 957.25q0 34.125-13.125 66.5t-37.625 56.875L1113.875 1708 784 1790.25l82.25-329.875 627.375-626.5Q1519 808.5 1550.5 796.25T1617 784zm44.625 217.875Q1680 983.5 1680 957.25q0-27.125-17.938-44.188T1617 896q-12.25 0-23.625 3.938t-20.125 12.687l-605.5 605.5L938 1636.25l118.125-29.75zM672 1344h112l-112 112H256.375L112 1311.625V224q0-23.625 8.75-43.75t24.063-35.438 35.437-24.062T224 112h1120q23.625 0 43.75 8.75t35.438 24.063 24.062 35.437T1456 224v448l-112 112V224h-112v560H336V224H224v1040.375L303.625 1344H336V896h784v112l-112 112v-112H448v336h112v-224h112v224zM448 672h672V224H448v448z"/></svg>