<svg width="1792" height="1792" viewBox="0 0 1792 1792" xmlns="http://www.w3.org/2000/svg"><path d="M1568 308v1372q0 23.625-8.75 43.75t-24.063 35.438-35.437 24.062T1456 1792H336q-23.625 0-43.75-8.75t-35.438-24.063-24.062-35.437T224 1680v-448l112-112V812L224 672V112q0-23.625 8.75-43.75t24.063-35.438T292.25 8.75 336 0h924zm-112 46.375L1213.625 112H336v520.625l112 140v393.75q-27.125 28.875-55.563 56.438T336 1278.374V1680h1120V354.375zM560 224h112v336H560V224zm224 0h112v336H784V224zm224 0h112v336h-112V224z"/></svg>