<svg width="64" height="64" viewBox="0 0 1792 1792" xmlns="http://www.w3.org/2000/svg"><path d="M0 112V0h112v112H0zm0 224V224h112v112H0zm0 224V448h112v112H0zm0 224V672h112v112H0zm0 224V896h112v112H0zm0 224v-112h112v112H0zm0 224v-112h112v112H0zm0 224v-112h112v112H0zM1568 336V224h112v112h-112zm0 224V448h112v112h-112zm0 224V672h112v112h-112zm0 224V896h112v112h-112zm0 224v-112h112v112h-112zm0 224v-112h112v112h-112zm0 224v-112h112v112h-112zM336 0v112H224V0h112zm224 0v112H448V0h112zm224 0v112H672V0h112zm224 0v112H896V0h112zm224 0v112h-112V0h112zm112 112V0h112v112h-112zM224 1680v-112h112v112H224zm224 0v-112h112v112H448zm224 0v-112h112v112H672zm224 0v-112h112v112H896zm224 0v-112h112v112h-112zm224 0v-112h112v112h-112zM1568 0h112v112h-112V0zm-224 336v1008H336V336h1008zm-112 448V448H896v336h336zM784 448H448v336h336V448zM448 896v336h336V896H448zm448 336h336V896H896v336z"/></svg>