<svg width="1792" height="1792" viewBox="0 0 1792 1792" xmlns="http://www.w3.org/2000/svg"><path d="M336 784h1120v1008H336V784zm112 896h896V896H448v784zm336-224h224v112H784v-112zm666.75-1114.75q-112-111.125-254.625-170.188T896 112t-300.125 59.063T341.25 341.25L262.5 262.5q63-63 136.5-112t154.438-82.688 167.125-50.75T896 0t175.438 17.063 167.124 50.75T1393 150.5t136.5 112zm-158.375 158.375Q1212.75 420 1110.375 378T896 336t-214.375 42-182 121.625l-78.75-78.75Q516.25 325.5 638.313 274.75T896 224t257.688 50.75 217.437 146.125zM579.25 579.25q63.875-63.875 145.25-97.563T896 448t171.5 33.688 145.25 97.562L1134 658q-47.25-47.25-108.938-72.625T896 560t-129.063 25.375T658 658z"/></svg>