<svg width="64" height="64" viewBox="0 0 1792 1792" xmlns="http://www.w3.org/2000/svg"><path d="M1560.125 864.5q0 7.875.438 15.75T1561 896t-.438 15.75-.437 15.75l226.625 140.875-139.125 335.125-259.875-59.5q-21 22.75-43.75 43.75l59.5 259.875-335.125 139.125L927.5 1560.125q-7.875 0-15.75.438T896 1561t-15.75-.438-15.75-.437L723.625 1786.75 388.5 1647.625 448 1387.75q-22.75-21-43.75-43.75l-259.875 59.5L5.25 1068.375 231.875 927.5q0-7.875-.438-15.75T231 896t.438-15.75.437-15.75L5.25 723.625 144.375 388.5 404.25 448q21-22.75 43.75-43.75l-59.5-259.875L723.625 5.25 864.5 231.875q7.875 0 15.75-.438T896 231t15.75.438 15.75.437L1068.375 5.25 1403.5 144.375 1344 404.25q22.75 21 43.75 43.75l259.875-59.5 139.125 335.125zM1457.75 978.25q1.75-21 3.5-41.563t1.75-41.562q0-20.125-1.75-41.125t-3.5-41.125l206.5-128.625-75.25-182-237.125 55.125q-27.125-33.25-55.563-61.25t-61.687-56L1289.75 203l-182-75.25-129.5 206.5q-20.125-1.75-41.125-3.5T896 329q-21 0-41.563 1.75t-41.562 3.5L684.25 127.75l-182 75.25 55.125 237.125q-33.25 27.125-61.25 55.563t-56 61.687L203 502.25l-75.25 182 206.5 129.5q-1.75 21-3.5 41.563T329 896.875Q329 917 330.75 938t3.5 41.125l-206.5 128.625 75.25 182 237.125-55.125q27.125 33.25 55.563 61.25t61.687 56L502.25 1589l182 75.25 129.5-206.5q20.125 1.75 41.125 3.5T896 1463q21 0 41.563-1.75t41.562-3.5l128.625 206.5 182-75.25-55.125-237.125q33.25-27.125 61.25-55.563t56-61.687L1589 1289.75l75.25-182zM896 567q68.25 0 128.188 25.813t104.562 70.437 70.438 104.563T1225 896t-25.813 128.188-70.437 104.562-104.563 70.438T896 1225t-128.188-25.813-104.562-70.437-70.438-104.563T567 896t25.813-128.188T663.25 663.25t104.563-70.438T896 567zm0 560q48.125 0 90.125-17.938t73.5-49.437 49.438-73.5T1127 896t-17.938-90.125-49.437-73.5-73.5-49.438T896 665t-90.125 17.938-73.5 49.437-49.438 73.5T665 896t17.938 90.125 49.437 73.5 73.5 49.438T896 1127z"/></svg>