<svg width="64" height="64" viewBox="0 0 1792 1792" xmlns="http://www.w3.org/2000/svg"><path d="M1663.375 1164.625q29.75 19.25 53.813 45.063t40.687 56.437 25.375 64.75T1792 1400q0 57.75-22.313 108.5t-60.374 88.813-88.813 60.374T1512 1680q-80.5 0-148.75-42.875-100.625 76.125-220.938 115.5T896 1792t-246.313-39.375-220.937-115.5Q360.5 1680 280 1680q-57.75 0-108.5-22.313t-88.813-60.374-60.374-88.813T0 1400q0-35 8.75-69.125t25.375-64.75 40.688-56.438 53.812-45.062q-8.75-39.375-12.688-78.313T112 1008q0-120.75 36.313-234.063t102.375-210T409.5 392.875 616 275.625q.875-56.875 23.188-107.188t60.375-87.5 88.812-59.062T896 0t107.625 21.875 88.813 59.063 60.374 87.5T1176 275.625q113.75 42.875 206.5 117.25t158.813 171.063 102.374 210T1680 1008q0 39.375-3.938 78.313t-12.687 78.312zM896 112q-35 0-65.625 13.125T777 161t-35.875 53.375T728 280t13.125 65.625T777 399t53.375 35.875T896 448t65.625-13.125T1015 399t35.875-53.375T1064 280t-13.125-65.625T1015 161t-53.375-35.875T896 112zM112 1400q0 35 13.125 65.625T161 1519t53.375 35.875T280 1568t65.625-13.125T399 1519t35.875-53.375T448 1400t-13.125-65.625T399 1281t-53.375-35.875T280 1232t-65.625 13.125T161 1281t-35.875 53.375T112 1400zm784 280q103.25 0 201.688-31.063T1281 1558.376q-23.625-35-36.313-75.688T1232 1400q0-57.75 22.313-108.5t60.374-88.813 88.813-60.374T1512 1120q11.375 0 22.75.875t22.75 2.625q10.5-57.75 10.5-115.5 0-102.375-29.313-197.313t-83.124-175.875-130.376-144.375-171.062-102.812q-15.75 38.5-42.438 70.438t-60.812 54.687-73.5 35T896 560t-81.375-12.25-73.5-35-60.813-54.688-42.437-70.437Q543.375 427 466.812 490.438T336.438 634.813t-83.125 175.875T224 1008q0 57.75 10.5 115.5 63-10.5 122.063 7t104.125 56.438T532.875 1281 560 1400q0 42-12.688 82.688T511 1558.374q84.875 59.5 183.313 90.563T896 1680zm616-112q35 0 65.625-13.125T1631 1519t35.875-53.375T1680 1400t-13.125-65.625T1631 1281t-53.375-35.875T1512 1232t-65.625 13.125T1393 1281t-35.875 53.375T1344 1400t13.125 65.625T1393 1519t53.375 35.875T1512 1568z"/></svg>