<svg width="1792" height="1792" viewBox="0 0 1792 1792" xmlns="http://www.w3.org/2000/svg"><path d="M625.625 469q21.875 16.625 34.125 40.25T672 560q0 23.625-8.75 43.75t-24.063 35.438-35.437 24.062T560 672q-22.75 0-44.188-8.75T478.625 637Q411.25 672 336 672t-142.625-35q-15.75 17.5-37.188 26.25T112 672q-23.625 0-43.75-8.75t-35.438-24.063T8.75 603.75 0 560q0-27.125 12.25-50.75T46.375 469Q28 419.125 28 364q0-48.125 14.438-93.188t41.124-83.125 63.876-67.375 82.687-45.937q12.25-33.25 41.125-53.813T336 0t64.75 20.563 41.125 53.812q45.5 16.625 82.688 45.938t63.875 67.374 41.125 83.125T644 364q0 55.125-18.375 105zm-409.5 49.875Q241.5 539 272.563 549.5T336 560t63.438-10.5 56.437-30.625q14-36.75 49.875-56.875Q532 417.375 532 364q0-56.875-30.625-105t-82.25-72.625q-15.75 18.375-37.625 28T336 224t-45.5-9.625-37.625-28q-51.625 24.5-82.25 72.625T140 364q0 53.375 26.25 98 35.875 20.125 49.875 56.875z"/></svg>