<svg width="64" height="64" viewBox="0 0 1792 1792" xmlns="http://www.w3.org/2000/svg"><path d="M1400 1344q35 0 65.625 13.125T1519 1393t35.875 53.375T1568 1512t-13.125 65.625T1519 1631t-53.375 35.875T1400 1680t-65.625-13.125T1281 1631t-35.875-53.375T1232 1512q0-27.125 9.625-56h-467.25q9.625 28.875 9.625 56 0 35-13.125 65.625T735 1631t-53.375 35.875T616 1680t-65.625-13.125T497 1631t-35.875-53.375T448 1512q0-48.125 25.813-89.25t69.562-62.125L165.375 224H0V112h245.875l74.375 224H1792l-260.75 784H581.875l74.375 224H1400zM357.875 448l186.375 560h905.625l186.375-560H357.875zM672 1512q0-22.75-16.625-39.375T616 1456t-39.375 16.625T560 1512t16.625 39.375T616 1568t39.375-16.625T672 1512zm728 56q22.75 0 39.375-16.625T1456 1512t-16.625-39.375T1400 1456t-39.375 16.625T1344 1512t16.625 39.375T1400 1568z"/></svg>