<svg width="1792" height="1792" xmlns="http://www.w3.org/2000/svg"><path d="M1568 448v1120q0 46.375-17.938 87.063t-48.124 70.874-71.313 48.126T1344 1792H336q-46.375 0-87.063-17.938t-70.875-48.124-48.125-70.876T112 1568V448h224V336q0-69.125 26.688-130.375t72.187-106.75 106.75-72.188T672 0q91 0 168.875 45.5Q918.75 0 1008 0q69.125 0 130.375 26.688t106.75 72.187 72.188 106.75T1344 336v112h224zm-336-112q0-45.5-17.938-86.625t-48.124-71.313-71.313-48.125T1008 112q-39.375 0-74.375 13.125 31.5 39.375 47.25 77t21.438 76.125 5.687 80.063V448h224V336zM448 448h448V336q0-45.5-17.938-86.625t-48.125-71.313-71.312-48.125T672 112q-46.375 0-87.063 17.938t-70.875 48.125-48.125 71.312T448 336v112zm701.75 1232q-29.75-52.5-29.75-112V560H224v1008q0 23.625 8.75 43.75t24.063 35.438 35.437 24.062T336 1680h813.75zM1456 560h-224v1008q0 23.625 8.75 43.75t24.063 35.438 35.437 24.062T1344 1680t43.75-8.75 35.438-24.063 24.062-35.437T1456 1568V560z"/></svg>