<svg width="1792" height="1792" viewBox="0 0 1792 1792" xmlns="http://www.w3.org/2000/svg"><path d="M1544.375 560q-111.125 3.5-210.438 31.063t-188.124 76.125-168.438 115.937-150.5 148.75q-29.75 34.125-59.5 66.5t-63 63q-147 133.875-325.5 208.25T0 1344v-112q114.625 0 217.438-26.688t194.687-75.25 173.688-117.25 155.312-152.687Q771.75 824.25 802.813 791t66.062-64.75q70.875-63 149.188-113.75t163.625-86.625 176.75-55.563T1545.25 448l-128.625-128.625 78.75-78.75L1759.625 504l-264.25 263.375-78.75-78.75zm-840 171.5q-19.25 21-37.188 42.438t-38.062 42.437q-64.75-59.5-137.813-107.188T338.625 628.25t-164.5-50.75T0 560V448q200.375 0 378.875 74.813t325.5 208.687zm791 293.125L1759.625 1288l-264.25 263.375-78.75-78.75L1545.25 1344q-96.25-2.625-188.563-22.75t-178.062-56.438-164.938-87.937T863.625 1060.5q19.25-21 37.188-42.438t38.062-42.437q63 57.75 133 104.125t146.563 79.625T1376.812 1211t167.563 21l-127.75-128.625z"/></svg>