<svg width="64" height="64" viewBox="0 0 1792 1792" xmlns="http://www.w3.org/2000/svg"><path d="M560 1456h224v112H560q-22.75 0-43.313-8.75t-35.875-24.063-24.062-35.874T448 1456V336q0-23.625 8.75-43.75t24.063-35.438 35.437-24.062T560 224h751.625L1568 480.375v161q-25.375-22.75-53.375-41.563T1456 567.875v-40.25L1264.375 336H560v1120zm1120-448v560H896v-560h112v-56q0-57.75 21.875-108.5t59.938-88.813 89.25-60.375T1288 672t108.5 22.313 88.813 60.375 60.374 88.812T1568 952v56h112zm-560 0h336v-56q0-35-13.125-65.625T1407 833t-53.375-35.875T1288 784t-65.625 13.125T1169 833t-35.875 53.375T1120 952v56zm448 112h-560v336h560v-336z"/></svg>