<svg width="1792" height="1792" xmlns="http://www.w3.org/2000/svg"><path d="M1288 784q81.375 0 152.688 30.625t124.687 84 84 124.688T1680 1176t-30.625 152.688-84 124.687-124.688 84T1288 1568t-152.688-30.625-124.687-84-84-124.688T896 1176t30.625-152.688 84-124.687 124.688-84T1288 784zm-280 392q0 57.75 21.875 108.938t59.938 89.25 89.25 59.937T1288 1456q41.125 0 80.5-11.813t73.5-34.562L1054.375 1022q-22.75 34.125-34.563 73.5T1008 1176zm513.625 154q22.75-34.125 34.563-73.5T1568 1176q0-57.75-22.313-108.5t-60.374-88.813-88.813-60.375T1288 896q-41.125 0-80.5 11.813t-73.5 34.562zm-684.25 126q20.125 30.625 43.313 59.063T931 1568H560q-23.625 0-43.75-8.75t-35.438-24.063-24.062-35.437T448 1456V336q0-23.625 8.75-43.75t24.063-35.438 35.437-24.062T560 224h751.625L1568 480.375v245q-26.25-16.625-54.25-30.188T1456 672V527.625L1264.375 336H560v1120h277.375z"/></svg>