<svg width="1792" height="1792" xmlns="http://www.w3.org/2000/svg"><path d="M431.375 655.375L191.625 896l239.75 240.625-78.75 78.75L32.375 896l320.25-319.375zm705.25 705.25l78.75 78.75L896 1759.625l-319.375-320.25 78.75-78.75L896 1600.375zm623-464.625l-320.25 319.375-78.75-78.75L1600.375 896l-239.75-240.625 78.75-78.75zM655.375 431.375l-78.75-78.75L896 32.375l319.375 320.25-78.75 78.75L896 191.625zM896 560q69.125 0 130.375 26.25t107.188 72.188 72.187 107.187T1232 896q0 70-26.25 130.813t-72.188 106.75-107.187 72.187T896 1232q-70 0-130.813-26.25t-106.75-72.188-72.187-106.75T560 896q0-69.125 26.25-130.375t72.188-107.188 106.75-72.187T896 560zm0 560q46.375 0 87.063-17.5t71.312-48.125 48.125-71.313T1120 896t-17.5-87.063-48.125-71.312-71.313-48.125T896 672t-87.063 17.5-71.312 48.125-48.125 71.313T672 896t17.5 87.063 48.125 71.312 71.313 48.125T896 1120z"/></svg>