<svg width="1792" height="1792" viewBox="0 0 1792 1792" xmlns="http://www.w3.org/2000/svg"><path d="M616 1295q38.5 3.5 72.188 17.938t59.062 38.937 39.813 57.313 14.437 73.062q0 58.625-22.75 102.813t-61.25 73.5-88.375 44.187-103.25 14.875q-46.375 0-92.75-8.75t-85.75-34.125v-96.25q78.75 63 181.125 63 35 0 67.813-9.188t57.75-27.562 40.25-46.813 15.312-67.812q0-40.25-13.125-66.938t-35-44.187-50.75-26.25-60.375-12.25-63.875-3.938-61.25-.437v-75.25q41.125 0 86.188-1.75t82.687-14.875 62.125-42.875 24.5-85.75q0-71.75-40.25-102.375t-107.625-30.625q-43.75 0-82.688 14.875t-73.062 41.125v-87.5q40.25-24.5 85.75-34.563t92.75-10.062q42.875 0 81.813 11.813t69.125 35.437 48.125 58.625 17.937 81.375q0 80.5-39.813 129.063T616 1292.374V1295zm579.25-388.5q54.25 0 93.188 17.938t66.5 48.562 44.187 71.313 26.25 85.312 12.688 90.563 3.062 87.937q0 42.875-4.375 89.688t-15.313 92.312-30.187 86.625-48.125 72.625-69.563 49.875-94.937 18.375q-51.625 0-90.125-17.938T1022.437 1652t-45.062-69.125-28-82.688-14.438-87.937-3.937-84.875q0-43.75 3.938-92.313t14.437-94.937 29.313-88.813 48.125-74.812 70.874-51.188 97.563-18.812zm-7.875 735q37.625 0 64.75-16.625t45.063-43.75 28.437-61.688 16.188-70.437 7-70.438 1.312-61.687q0-26.25-1.313-61.25t-6.562-72.188-15.313-73.062-28-64.313-44.187-45.937-63.875-17.5q-39.375 0-66.938 17.5t-46.374 45.938-29.75 64.75-16.626 74.374-7 73.938-1.312 63.875q0 27.125 1.75 61.688t7 70 16.188 69.124 28.874 59.938 45.063 42 65.625 15.75zM1792 336v448h-448V672h276.5q-51.625-102.375-128.188-185.063T1321.25 346.063t-203-90.125T896 224q-135.625 0-259 41.563t-225.313 117.25-177.625 182T119 800.625l-106.75-33.25q28.875-97.125 77.438-183.313T203 424.813 346.063 294t166.687-98.438 185.063-62.125T896 112q119 0 233.188 30.188t215.687 86.625 186.813 137.375T1680 548.625V336h112z"/></svg>