<svg width="64" height="64" viewBox="0 0 1792 1792" xmlns="http://www.w3.org/2000/svg"><path d="M404.25 1004.5q29.75-7.875 61.688-21.438t63.437-30.187T589.75 917t52.5-38.5h34.125V1680H586.25v-677.25q-13.125 13.125-36.313 28t-49.437 27.563-52.063 22.75-44.187 14.437v-91zm791-121.625q54.25 0 93.188 17.938t66.5 48.562 44.187 71.313 26.25 85.312 12.688 90.563 3.062 87.937q0 42.875-4.375 89.688T1421 1466.5t-30.188 86.625-48.124 72.625-69.563 49.875-94.5 18.375q-51.625 0-89.688-17.938t-65.624-47.687-45.5-69.125-28.438-82.688-14.438-87.937T931 1303.75q0-43.75 3.938-92.313t14.437-94.937 28.875-88.813 48.125-74.812 70.875-51.188 98-18.812zM1187.375 1617q37.625 0 64.75-16.625t45.063-43.313 28.437-61.25 16.188-70.437 7-70.438 1.312-61.687q0-26.25-1.313-61.25t-6.562-72.188-15.313-73.062-28-64.313-44.187-45.937-63.875-17.5q-39.375 0-66.938 17.5t-46.374 45.938-29.75 64.75-16.626 74.374-7 73.938-1.312 63.875q0 27.125 1.75 61.688t7 69.562 16.188 68.688 28.874 59.937 45.063 42 65.625 15.75zM908.25 112q151.375 0 292.25 47.688T1458.188 294t203.437 207.375 130.375 266l-106.75 33.25q-39.375-129.5-114.625-235.813t-177.625-182-226.188-117.25T908.25 224Q794.5 224 686 255.938t-203 90.125-171.5 140.875T183.75 672h276.5v112h-448V336h112v212.625q63-101.5 148.313-182.438t186.812-137.375 215.25-86.625T908.25 112z"/></svg>