<svg width="64" height="64" viewBox="0 0 1792 1792" xmlns="http://www.w3.org/2000/svg"><path d="M1512 336q35 0 65.625 13.125T1631 385t35.875 53.375T1680 504v784q0 35-13.125 65.625T1631 1407t-53.375 35.875T1512 1456h-56v224h-112v-224h-112v224h-112v-224h-112v224H896v-224H784v224H672v-224H560v224H448v-224H336v224H224v-224h-56q-35 0-65.625-13.125T49 1407t-35.875-53.375T0 1288V504q0-35 13.125-65.625T49 385t53.375-35.875T168 336h56V112h112v224h112V112h112v224h112V112h112v224h112V112h112v224h112V112h112v224h112V112h112v224h56zm56 168q0-22.75-16.625-39.375T1512 448H168q-22.75 0-39.375 16.625T112 504v784q0 22.75 16.625 39.375T168 1344h1344q22.75 0 39.375-16.625T1568 1288V504zM224 560h1232v672H224V560zm112 560h1008V672H336v448z"/></svg>