<svg width="1792" height="1792" xmlns="http://www.w3.org/2000/svg"><path d="M1624 224q35 0 65.625 13.125T1743 273t35.875 53.375T1792 392v1008q0 35-13.125 65.625T1743 1519t-53.375 35.875T1624 1568H168q-35 0-65.625-13.125T49 1519t-35.875-53.375T0 1400V392q0-35 13.125-65.625T49 273t53.375-35.875T168 224h1456zm56 168q0-22.75-16.625-39.375T1624 336H168q-22.75 0-39.375 16.625T112 392v1008q0 22.75 16.625 39.375T168 1456h1456q22.75 0 39.375-16.625T1680 1400V392zm-896 56h784v784H784V448zm336 560v112h112V896H896v224h112v-112h112zM896 560v224h448v336h112V560h-112v112h-112V560h-112v112h-112V560H896z"/></svg>