<svg width="1792" height="1792" xmlns="http://www.w3.org/2000/svg"><path d="M448 224v1456h896V224H448zm1008 1568H336V112h1120v1680zm-560-784q-69.125 0-130.375-26.688t-106.75-72.187-72.188-106.75T560 672t26.688-130.375 72.187-106.75 106.75-72.188T896 336t130.375 26.688 106.75 72.187 72.188 106.75T1232 672t-26.688 130.375-72.187 106.75-106.75 72.188T896 1008zm0-560q-46.375 0-87.063 17.938t-70.875 48.125-48.125 71.312T672 672q0 46.375 17.938 87.063t48.125 70.875 70.875 48.125T896 896q45.5 0 86.625-17.938t71.313-48.125 48.124-70.875T1120 672q0-45.5-17.938-86.625t-48.124-71.313-71.313-48.125T896 448zm0 1120q-46.375 0-87.063-17.938t-70.875-48.124-48.125-70.876T672 1344q0-45.5 17.938-86.625t48.125-71.313 70.875-48.124T896 1120q45.5 0 86.625 17.938t71.313 48.124 48.124 71.313T1120 1344q0 46.375-17.938 87.063t-48.124 70.874-71.313 48.126T896 1568zm0-336q-23.625 0-43.75 8.75t-35.438 24.063-24.062 35.437T784 1344t8.75 43.75 24.063 35.438 35.437 24.062T896 1456t43.75-8.75 35.438-24.063 24.062-35.437T1008 1344t-8.75-43.75-24.063-35.438-35.437-24.062T896 1232zm-84-560q0-16.625 6.563-31.938t18.375-27.125 26.687-18.375T896 588q16.625 0 31.938 6.563t27.125 18.375 18.375 27.125T980 672q0 17.5-6.563 32.375t-18.375 26.688-27.125 18.375T896 756q-17.5 0-32.375-6.563t-26.688-18.375-18.375-26.687T812 672z"/></svg>