<svg width="64" height="64" viewBox="0 0 1792 1792" xmlns="http://www.w3.org/2000/svg"><path d="M840 0q115.5 0 222.688 30.188t200.812 84.874 170.188 131.25 131.25 170.188 84.874 200.813T1680 840t-30.188 222.688-84.874 200.812-131.25 170.188-170.188 131.25-200.813 84.874T840 1680t-222.688-30.188-200.812-84.874-170.188-131.25-131.25-170.188-84.874-200.813T0 840t30.188-222.688T115.061 416.5t131.25-170.188T416.5 115.063t200.813-84.874T840 0zm0 1568q100.625 0 193.375-26.25t173.688-73.5T1354.5 1354.5t113.75-147.438 73.5-173.687T1568 840t-26.25-193.375-73.5-173.688T1354.5 325.5t-147.438-113.75-173.687-73.5T840 112t-193.375 26.25-173.688 73.5T325.5 325.5 211.75 472.938t-73.5 173.687T112 840t26.25 193.375 73.5 173.688T325.5 1354.5t147.438 113.75 173.687 73.5T840 1568zm0-896q35 0 65.625 13.125T959 721t35.875 53.375T1008 840t-13.125 65.625T959 959t-53.375 35.875T840 1008q-38.5 0-73.5-17.5l.875.875-322 322-78.75-78.75 322-322 .875.875Q672 878.5 672 840q0-35 13.125-65.625T721 721t53.375-35.875T840 672zm0 224q22.75 0 39.375-16.625T896 840t-16.625-39.375T840 784t-39.375 16.625T784 840t16.625 39.375T840 896zm0-671.125q84.875 0 163.625 21.875t147.438 61.688 124.687 95.812 95.813 124.688 61.687 147.437T1455.125 840q0 123.375-45.938 235.813T1275.75 1275.75l-79.625-79.625Q1267 1125.25 1305.5 1032.937T1344 840q0-104.125-39.813-196t-108.062-160.125T1036 375.812 840 336q-69.125 0-133 17.938T587.125 404.25t-101.938 78.313-78.75 101.5-50.75 119.875-17.937 133.437q0 58.625 13.563 115.5t38.937 109.375l-99.75 49.875q-31.5-63.875-48.125-133.438T225.75 837.375q0-127.75 48.125-239.313t131.688-194.687 195.125-130.813T840 224.875z"/></svg>