<svg width="1792" height="1792" xmlns="http://www.w3.org/2000/svg"><path d="M840 0q115.5 0 222.688 30.188t200.812 84.874 170.188 131.25 131.25 170.188 84.874 200.813T1680 840t-30.188 222.688-84.874 200.812-131.25 170.188-170.188 131.25-200.813 84.874T840 1680t-222.688-30.188-200.812-84.874-170.188-131.25-131.25-170.188-84.874-200.813T0 840t30.188-222.688T115.061 416.5t131.25-170.188T416.5 115.063t200.813-84.874T840 0zm0 1568q100.625 0 193.375-26.25t173.688-73.5T1354.5 1354.5t113.75-147.438 73.5-173.687T1568 840t-26.25-193.375-73.5-173.688T1354.5 325.5t-147.438-113.75-173.687-73.5T840 112t-193.375 26.25-173.688 73.5T325.5 325.5 211.75 472.938t-73.5 173.687T112 840t26.25 193.375 73.5 173.688T325.5 1354.5t147.438 113.75 173.687 73.5T840 1568zm54.25-886.375q25.375 8.75 46.375 24.5t35.875 36.75 23.188 45.5T1008 840q0 35-13.125 65.625T959 959t-53.375 35.875T840 1008t-65.625-13.125T721 959t-35.875-53.375T672 840q0-27.125 8.313-51.625t23.187-45.5 35.875-36.75 46.375-24.5H784v-455h112v455h-1.75zM840 896q22.75 0 39.375-16.625T896 840t-16.625-39.375T840 784t-39.375 16.625T784 840t16.625 39.375T840 896zm215.25-631.75q91 34.125 164.938 91.875t126 133 80.5 164.5T1455.124 840q0 123.375-45.938 235.813T1275.75 1275.75l-79.625-79.625Q1267 1125.25 1305.5 1032.937T1344 840q0-78.75-23.625-151.813t-66.5-134.75-103.25-109.375-133.875-74.812zM224 840q0-97.125 28.438-186.375t80.937-164.5 126.438-133T624.75 264.25l38.5 105q-73.5 27.125-133.875 74.813t-103.25 109.375-66.5 134.75T336 840q0 100.625 38.5 192.938t109.375 163.187l-79.625 79.625q-87.5-87.5-133.875-199.938T224 840z"/></svg>