<svg width="1792" height="1792" viewBox="0 0 1792 1792" xmlns="http://www.w3.org/2000/svg"><path d="M896 0q123.375 0 238 31.938t213.938 90.562 181.124 140.438T1669.5 444.063 1760.063 658 1792 896t-31.938 238-90.562 213.938-140.438 181.124-181.124 140.438T1134 1760.063 896 1792t-238-31.938-213.938-90.562-181.125-140.438T122.5 1347.938 31.937 1134 0 896t31.938-238T122.5 444.062t140.438-181.125T444.063 122.5 658 31.937 896 0zm98.875 896l299.25-299.25-98.875-98.875L896 797.125l-299.25-299.25-98.875 98.875L797.125 896l-299.25 299.25 98.875 98.875L896 994.875l299.25 299.25 98.875-98.875z"/></svg>