<svg width="1792" height="1792" xmlns="http://www.w3.org/2000/svg"><path d="M672 0q46.375 0 87.063 17.5t71.312 48.125 48.125 71.313T896 224v336H448V224q0-46.375 17.5-87.063t48.125-71.312T584.938 17.5 672 0zm0 98q-26.25 0-49 10.063t-39.813 27.124T556.063 175 546 224h252q0-26.25-10.063-49t-27.125-39.813T721 108.063 672 98zM144.375 425.25q-5.25 5.25-9.188 10.938T126.876 448H336v112H0v-56q0-45.5 16.625-82.25t41.563-67.375 53.812-56 53.813-47.25 41.562-42T224 168q0-22.75-16.625-39.375T168 112t-39.375 16.625T112 168H0q0-35 13.125-65.625T49 49t53.375-35.875T168 0t65.625 13.125T287 49t35.875 53.375T336 168q0 33.25-13.125 64.313T287 287h-.875z"/></svg>