<svg width="1792" height="1792" viewBox="0 0 1792 1792" xmlns="http://www.w3.org/2000/svg"><path d="M336 0q69.125 0 130.375 26.25t107.188 72.188 72.187 107.187T672 336q0 20.125-3.063 40.688t-7.437 40.687L552.125 390.25q3.5-13.125 5.688-26.688T560 336q0-46.375-17.5-87.063t-48.125-71.312-71.313-48.125T336 112t-87.063 17.5-71.312 48.125-48.125 71.313T112 336t17.5 87.063 48.125 71.312 71.313 48.125T336 560q14 0 27.563-2.188t26.687-5.687L417.375 661.5q-20.125 4.375-40.688 7.438T336 672q-70 0-130.813-26.25t-106.75-72.188-72.187-106.75T0 336q0-69.125 26.25-130.375T98.438 98.437t106.75-72.187T336 0z"/></svg>