<svg width="1792" height="1792" xmlns="http://www.w3.org/2000/svg"><path d="M896 0q77 0 148.75 20.125t133.875 56.438 113.313 87.5 87.5 113.312 56.437 133.875T1456 560q0 60.375-14.438 115.063T1400 784L896 1792 392 784q-27.125-54.25-41.563-108.938T336 560q0-77 20.125-148.75t56.438-133.875 87.5-113.313 113.312-87.5T747.25 20.126 896 0zm416.5 740.25q0-.875.438-.875t.437-.875q21.875-41.125 33.25-86.625T1358 560q0-95.375-36.313-179.375t-99.312-147-147-99.313T896 98t-179.375 36.313-147 99.312-99.313 147T434 560q0 46.375 11.375 91.875t33.25 86.625q0 .875.438.875t.437.875l416.5 833zM672 336h112v448H672V336zm336 0h112v448h-112V336z"/></svg>