<svg width="1792" height="1792" xmlns="http://www.w3.org/2000/svg"><path d="M896 0q123.375 0 238 31.938t214.375 90.124 181.563 140 140 181.563T1760.062 658 1792 896t-31.938 238-90.124 214.375-140 181.563-181.563 140T1134 1760.062 896 1792t-238-31.938-214.375-90.124-181.563-140-140-181.563-90.124-213.938T0 896q0-123.375 31.938-238t90.124-214.375 140-181.563 181.563-140 213.938-90.124T896 0zm0 1680q107.625 0 207.813-28t187.25-79.188 158.812-122.937 122.938-158.813T1652 1104.25 1680 896q0-107.625-28-207.813t-79.188-187.25-122.937-158.812-158.813-122.938T1103.813 140 896 112t-207.813 28-187.25 79.188-158.812 122.937-122.938 158.813T140 688.188 112 896t28 207.813 79.188 187.25 122.937 158.812 158.813 122.938T687.75 1652 896 1680zm0-1008q46.375 0 87.063 17.5t71.312 48.125 48.125 71.313T1120 896t-17.5 87.063-48.125 71.312-71.313 48.125T896 1120t-87.063-17.5-71.312-48.125-48.125-71.313T672 896t17.5-87.063 48.125-71.312 71.313-48.125T896 672zm0 336q23.625 0 43.75-8.75t35.438-24.063 24.062-35.437T1008 896t-8.75-43.75-24.063-35.438-35.437-24.062T896 784t-43.75 8.75-35.438 24.063-24.062 35.437T784 896t8.75 43.75 24.063 35.438 35.437 24.062T896 1008z"/></svg>