<svg width="1792" height="1792" xmlns="http://www.w3.org/2000/svg"><path d="M1792 336v1232H0V336h1792zm-345.625 1120L1372 1232H420l-74.375 224h1100.75zM1680 448H112v1008h115.5l112-336h1113l112 336H1680V448zM448 1008q-23.625 0-43.75-8.75t-35.438-24.063-24.062-35.437T336 896t8.75-43.75 24.063-35.438 35.437-24.062T448 784t43.75 8.75 35.438 24.063 24.062 35.437T560 896t-8.75 43.75-24.063 35.438-35.437 24.062T448 1008zm896 0q-23.625 0-43.75-8.75t-35.438-24.063-24.062-35.437T1232 896t8.75-43.75 24.063-35.438 35.437-24.062T1344 784t43.75 8.75 35.438 24.063 24.062 35.437T1456 896t-8.75 43.75-24.063 35.438-35.437 24.062T1344 1008zm-224 0H672V784h448v224z"/></svg>