<svg width="1792" height="1792" xmlns="http://www.w3.org/2000/svg"><path d="M599.375 672l-78.75-79.625L896 217l375.375 375.375-78.75 79.625-241.5-240.625V896h-110.25V431.375zM896 0q123.375 0 237.563 31.938T1347.5 122.5t181.563 140.438T1669.5 444.5t90.563 213.938T1792 896t-31.938 237.563T1669.5 1347.5t-140.438 181.563T1347.5 1669.5t-213.938 90.563T896 1792t-237.563-31.938T444.5 1669.5t-181.563-140.438T122.5 1347.5t-90.563-213.938T0 896t31.938-237.563T122.5 444.5t140.438-181.563T444.5 122.5t213.938-90.563T896 0zm0 112q-107.625 0-207.813 28t-187.25 79.188-158.812 122.937-122.938 158.813T140 688.188 112 896q0 56.875 7.875 112h1552.25Q1680 952.875 1680 896q0-107.625-28-207.813t-79.188-187.25-122.937-158.812-158.813-122.938T1103.813 140 896 112zm162.75 1232h-346.5l-37.625 112h405.125zm-20.125-112l-21-112h-873.25q16.625 56.875 43.75 112h850.5zm113.75 0h451.5q27.125-55.125 43.75-112h-516.25zm-899.5 112q51.625 73.5 117.688 133.438t144.812 103.687L594.125 1344h-341.25zm364.875 285.25q67.375 25.375 137.375 38.063T896 1680q112.875 0 219.625-31.5l-14.875-80.5H637.875zm604.625-20.125q95.375-43.75 175.875-111.125t140.875-154h-365.75z"/></svg>