<svg width="1792" height="1792" xmlns="http://www.w3.org/2000/svg"><path d="M753.375 893.375l-78.75-78.75L1232 256.375l557.375 558.25-78.75 78.75-30.625-29.75V1344h-336v-336h-224v336H784V863.625zM896 1232h112V896h448v336h112V751.625l-336-336-336 336V1232zm896 224v112H0v-112h1792zM224 1002.75q-49-9.625-89.688-35.438T63.438 904.75t-46.812-81.813T0 728q0-63.875 12.25-115.5t32.375-100.188 46.813-97.125T147 308.875q8.75-17.5 23.188-33.25t31.937-27.125 37.625-17.938T280 224q42 0 70.875 19.688t50.313 49.437 37.187 64.75 31.5 64.75l38.938 77.875 28.437 67.375 17.063 70.875L560 728q0 49.875-16.625 94.938t-46.813 81.812-71.312 62.563T336 1002.75V1344H224v-341.25zM280 336q-7.875 0-20.563 15.75t-28 40.25-30.625 54.25-28.875 56.875-23.625 49-13.562 30.625Q121.625 616 116.812 654.5T112 728t13.125 65.625T161 847t53.375 35.875T280 896t65.625-13.125T399 847t35.875-53.375T448 728t-4.813-73.5-17.937-71.75q-3.5-8.75-13.563-30.625t-23.625-49-29.312-56.875T328.125 392t-27.563-40.25T280 336z"/></svg>