<svg width="1792" height="1792" viewBox="0 0 1792 1792" xmlns="http://www.w3.org/2000/svg"><path d="M1192.625 441l78.75 79.625L896 896 520.625 520.625 599.375 441l241.5 240.625V224h110.25v457.625zM896 0q123.375 0 237.563 31.938T1347.5 122.5t181.563 140.438T1669.5 444.5t90.563 213.938T1792 896t-31.938 237.563T1669.5 1347.5t-140.438 181.563T1347.5 1669.5t-213.938 90.563T896 1792t-237.563-31.938T444.5 1669.5t-181.563-140.438T122.5 1347.5t-90.563-213.938T0 896t31.938-237.563T122.5 444.5t140.438-181.563T444.5 122.5t213.938-90.563T896 0zM144.375 1120q8.75 28.875 19.688 56.438t23.187 54.687h850.5L1017.625 1120h-873.25zm567.875 224l-36.75 111.125h404.25l-21-111.125h-346.5zm-118.125 0h-341.25q51.625 73.5 117.688 133.438t144.812 103.687zM896 1680q112.875 0 219.625-31.5l-14.875-80.5H637.875l-20.125 61.25q67.375 25.375 137.375 38.063T896 1680zm326.375-70.875q95.375-43.75 175.875-111.125t140.875-154h-365.75zm382.375-378q12.25-27.125 23.188-54.688t19.687-56.437h-516.25l21 111.125h452.375zm67.375-224Q1680 952 1680 896q0-107.625-28-207.813t-79.188-187.25-122.937-158.812-158.813-122.938T1103.813 140 896 112t-207.813 28-187.25 79.188-158.812 122.937-122.938 158.813T140 688.188 112 896q0 56 7.875 111.125h1552.25z"/></svg>