<svg width="1792" height="1792" xmlns="http://www.w3.org/2000/svg"><path d="M335.125 111.125q-56 56-99.313 120.75t-73.062 136.5-45.063 148.313T102.376 672t15.313 155.313 45.062 148.312 73.063 136.5 99.312 120.75L269.5 1298.5q-63-62.125-111.125-134.75T77 1011.5 26.687 846.125 9.625 672t17.063-174.125T77 332.5t81.375-152.25T269.5 45.5zM572.25 348.25Q506.625 413.875 472.5 497t-34.125 175T472.5 847t99.75 148.75l-65.625 65.625q-77.875-78.75-119.438-178.938T345.625 672t41.563-210.438 119.437-178.937zm324.625 538.125q-44.625 0-83.563-16.625t-68.25-45.938-46.375-68.25T681.625 672t17.063-83.563 45.937-67.812 67.813-45.938T896 457.625t83.563 17.063 67.812 45.937 45.938 67.813T1110.374 672v.875q-25.375 1.75-50.313 8.313t-47.687 19.687q1.75-7 3.5-14.438t1.75-14.437q0-25.375-9.625-47.688t-25.813-38.5-38.5-25.812T896 550.375 848.312 560t-38.5 25.813-25.812 38.5T774.375 672 784 719.688t25.813 38.5 38.5 25.812T896 793.625q7 0 14.438-1.75t14.437-3.5q-13.125 22.75-19.688 47.688t-8.312 50.312zM1792 1008v784H672v-784h336V896q0-23.625 8.75-43.75t24.063-35.438 35.437-24.062T1120 784h224q23.625 0 43.75 8.75t35.438 24.063 24.062 35.437T1456 896v112h336zm-672 0h224V896h-224v112zm560 286.125L1344 1463v105h-224v-105l-336-168.875V1680h896v-385.875zm0-174.125H784v49.875L1133.125 1344h197.75L1680 1169.875V1120zm-236.25-423.5q-42-21-90.125-23.625 0-91.875-34.563-175.875t-99.312-148.75l65.625-65.625q77.875 78.75 118.563 179.375t40.687 210.875zm213.5 199.5q15.75-55.125 24.063-110.688T1689.624 672q0-79.625-15.313-156.188t-45.062-147.875-73.063-136.062-99.312-120.75L1522.5 45.5q126 126 192.938 287t66.937 339.5q0 56.875-7.438 112.875T1752.626 896h-95.375z"/></svg>