<svg width="64" height="64" viewBox="0 0 1792 1792" xmlns="http://www.w3.org/2000/svg"><path d="M735 332.5l-40.25-39.375L875 112.875l181.125 180.25-40.25 39.375-112-112v224.875H847V220.5zm558.25 604.625q24.5 6.125 45.063 19.688t35 32.375 22.75 41.562 8.312 48.125v231q0 12.25-7.875 20.125t-20.125 7.875-20.125-7.875-7.875-20.125v-231q0-32.375-19.25-56t-49.875-31.5l-234.5-57.75q-9.625-2.625-15.313-10.5t-5.687-17.5V602q0-25.375-17.5-42.875t-42.875-17.5q-32.375 0-46.813 21T902.125 612.5v603.75q0 12.25-4.813 33.25t-13.125 40.688-21 34.124-28.437 14.438q-12.25 0-20.125-7.875t-7.875-20.125q0-7.875 6.125-15.75t13.563-18.813T840 1250.813t6.125-34.563V1113h-41.563l-38.937 5.25-29.313 18.813-11.812 41.562v212.625q0 46.375 32.375 78.75l168 167.125Q952 1664.25 952 1701.875V1764q0 11.375-8.313 19.688T924 1792q-20.125 0-24.938-14.438t-4.375-33.25.875-38.062-10.062-29.75l-168-167.125q-23.625-23.625-36.313-54.25T668.5 1391.25v-212.625q0-24.5 8.75-46.375t24.5-38.5 36.75-26.688T784.875 1057h61.25v-52.5H626.5q-24.5 0-41.563-17.063t-17.062-41.562V58.625q0-24.5 17.063-41.563T626.5 0h497.875q24.5 0 41.563 17.063T1183 58.624V910zm-447.125-99.75h-231v112h231v-112zm273 0h-39.375v47.25l39.375 9.625v-56.875zm0-778.75h-504v722.75h231V612.5q0-26.25 7.875-49t23.188-40.25 36.75-27.563 49.437-10.062q23.625 0 45.063 9.188t37.187 24.937 24.938 37.188T1079.75 602v179.375h39.375V58.625z"/></svg>