<svg width="1792" height="1792" xmlns="http://www.w3.org/2000/svg"><path d="M1045.625 970.375l206.5 205.625-206.5 205.625-75.25-75.25L1044.75 1232H560v-112h484.75l-74.375-74.375zM747.25 1456H1232v112H747.25l74.375 74.375-75.25 75.25L539.875 1512l206.5-205.625 75.25 75.25zm357-856.625q79.625 32.375 144.375 85.313t110.688 121.187 71.312 148.313T1456 1120h-112q0-91.875-35.438-173.688t-96.25-142.625-142.624-96.25T896 672t-173.688 35.438-142.625 96.25-96.25 142.625T448 1120H336q0-85.75 25.375-165.813t71.313-148.312 110.687-121.188 144.375-85.312q-60.375-47.25-94.063-116.813T560 336q0-69.125 26.688-130.375t72.187-106.75 106.75-72.188T896 0t130.375 26.688 106.75 72.187 72.188 106.75T1232 336q0 77-33.688 146.563t-94.062 116.812zM672 336q0 46.375 17.938 87.063t48.125 70.875 70.875 48.125T896 560q45.5 0 86.625-17.938t71.313-48.125 48.124-70.875T1120 336q0-45.5-17.938-86.625t-48.124-71.313-71.313-48.125T896 112q-46.375 0-87.063 17.938t-70.875 48.125-48.125 71.312T672 336z"/></svg>