<svg width="1792" height="1792" viewBox="0 0 1792 1792" xmlns="http://www.w3.org/2000/svg"><path d="M1456 0q23.625 0 43.75 8.75t35.438 24.063 24.062 35.437T1568 112v868q0 27.125 8.313 47.688t20.562 38.5 27.125 35.437 27.125 39.813 20.563 50.75T1680 1260v420q0 23.625-8.75 43.75t-24.063 35.438-35.437 24.062T1568 1792H749q54.25-49.875 93.625-112H1344v-420q0-39.375 8.313-67.813t20.562-50.75 27.125-39.812 27.125-35.438 20.563-38.5T1456 980V112H336v761.25q-28 3.5-56.438 9.188T224 897.75V0h1232zm112 1260q0-21-3.938-36.75t-11.374-28.875-17.5-25.813T1512 1141q-13.125 14.875-23.188 27.563t-17.5 25.812-11.374 28.875T1456 1260v420h112v-420zM392 1120q-51.625 0-97.563 17.5t-82.687 48.563T150.5 1260t-33.25 93.625l-111.125-19.25Q18.375 1263.5 53.375 1204t86.188-103.25T255.5 1032.5 392 1008q79.625 0 152.25 31.063T672 1127.874V1008h112v336H448v-112h166.25q-39.375-52.5-98-82.25T392 1120zm385.875 345.625q-12.25 70.875-47.25 130.375t-86.188 103.25T528.5 1767.5 392 1792q-79.625 0-152.25-31.063T112 1672.126V1792H0v-336h336v112H169.75q39.375 52.5 98 82.25T392 1680q50.75 0 97.125-17.5t83.125-48.563T633.5 1540t33.25-93.625z"/></svg>