<svg width="64" height="64" viewBox="0 0 1792 1792" xmlns="http://www.w3.org/2000/svg"><path d="M896 1680q134.75 0 258.563-41.563t225.75-117.25 177.624-182T1673 1103.376l106.75 33.25q-43.75 146.125-130.375 266.438T1445.937 1610t-257.25 134.313T896 1792q-119.875 0-233.625-29.75t-214.813-86.188-186.812-137.374T112 1355.374V1568H0v-448h448v112H171.5q51.625 102.375 128.188 185.063t171.062 140.874 202.563 90.126T896 1680zm896-1456v448h-448V560h276.5q-51.625-102.375-128.188-185.063T1321.25 234.063t-202.563-90.125T896 112q-134.75 0-258.563 41.563t-225.75 117.25-177.625 182T119 688.625l-106.75-33.25q43.75-145.25 130.375-266T346.063 182t257.25-134.313T896 0q119.875 0 233.625 29.75t214.813 86.188 186.812 137.375T1680 436.625V224h112z"/></svg>