<svg width="64" height="64" viewBox="0 0 1792 1792" xmlns="http://www.w3.org/2000/svg"><path d="M1750 1334.375q10.5 10.5 18.375 25.375t13.125 31.5 7.875 33.688T1792 1456q0 23.625-8.75 43.75t-24.063 35.438-35.437 24.062T1680 1568H112q-23.625 0-43.75-8.75t-35.438-24.063T8.75 1499.75 0 1456q0-14 2.625-31.063t7.875-33.687 13.125-31.5T42 1334.375l182-182V336h1344v816.375zM336 1120h1120V448H336v672zm1344 336q0-9.625-3.5-24.938t-10.5-22.312L1488.375 1232H303.625L126 1408.75q-7 7-10.5 22.313T112 1456h1568z"/></svg>