<svg width="1792" height="1792" viewBox="0 0 1792 1792" xmlns="http://www.w3.org/2000/svg"><path d="M1652 448q28.875 0 54.25 10.938t44.625 30.187 30.188 44.625T1792 588v1064q0 28.875-10.938 54.25t-30.187 44.625-44.625 30.188T1652 1792H140q-28.875 0-54.25-10.938t-44.625-30.187-30.188-44.625T0 1652V588q0-28.875 10.938-54.25t30.187-44.625 44.625-30.188T140 448h1512zm28 140q0-12.25-7.875-20.125T1652 560H140q-12.25 0-20.125 7.875T112 588v1064q0 12.25 7.875 20.125T140 1680h1512q12.25 0 20.125-7.875T1680 1652V588zm-896 868h224v112H784v-112z"/></svg>