<svg width="1792" height="1792" viewBox="0 0 1792 1792" xmlns="http://www.w3.org/2000/svg"><path d="M1680 905.625q25.375 8.75 45.938 24.5t35.437 36.75 22.75 45.938T1792 1064v224q0 104.125-39.813 196t-108.062 160.125T1484 1752.188 1288 1792q-96.25 0-182.438-34.125t-153.124-94.5-110.688-142.188T786.625 1344H112q-23.625 0-43.75-8.75t-35.438-24.063T8.75 1275.75 0 1232V224q0-23.625 8.75-43.75t24.063-35.438T68.25 120.75 112 112h1456q23.625 0 43.75 8.75t35.438 24.063 24.062 35.437T1680 224v681.625zM784 1120q0-46.375 17.5-87.063t48.125-71.312 71.313-48.125T1008 896V616q0-35 13.125-65.625T1057 497t53.375-35.875T1176 448t65.625 13.125T1295 497t35.875 53.375T1344 616v280h224V224H112v1008h672v-112zm896-56q0-22.75-16.625-39.375T1624 1008h-392V616q0-22.75-16.625-39.375T1176 560t-39.375 16.625T1120 616v672q0 22.75-16.625 39.375T1064 1344t-39.375-16.625T1008 1288v-280q-23.625 0-43.75 8.75t-35.438 24.063-24.062 35.437T896 1120v168q0 81.375 31.063 152.688t84 124.25 124.25 84T1288 1680t152.688-31.063 124.25-84 84-124.25T1680 1288v-224z"/></svg>