<svg width="1792" height="1792" xmlns="http://www.w3.org/2000/svg"><path d="M784 1232h224v112H784v-112zm868-1008q28.875 0 54.25 10.938t44.625 30.187 30.188 44.625T1792 364v737.625L1680 994V364q0-12.25-7.875-20.125T1652 336H140q-12.25 0-20.125 7.875T112 364v1064q0 12.25 7.875 20.125T140 1456h700l112 112H140q-28.875 0-54.25-10.938t-44.625-30.187-30.188-44.625T0 1428V364q0-28.875 10.938-54.25t30.187-44.625 44.625-30.188T140 224h1512zm44.625 954.625l78.75 79.625L1288 1745.625l-235.375-235.375 78.75-79.625L1288 1587.25z"/></svg>