<svg width="1792" height="1792" viewBox="0 0 1792 1792" xmlns="http://www.w3.org/2000/svg"><path d="M1792 896v896H896v-448h112v336h672v-672h-144.375l71.75 72.625-78.75 78.75L1321.25 952l207.375-207.375 78.75 78.75-71.75 72.625H1792zm-560 0q0 70-26.25 130.813t-72.188 106.75-107.187 72.187T896 1232q-70 0-130.813-26.25t-106.75-72.188-72.187-106.75T560 896q0-69.125 26.25-130.375t72.188-107.188 106.75-72.187T896 560q69.125 0 130.375 26.25t107.188 72.188 72.187 107.187T1232 896zm-560 0q0 46.375 17.5 87.063t48.125 71.312 71.313 48.125T896 1120t87.063-17.5 71.312-48.125 48.125-71.313T1120 896t-17.5-87.063-48.125-71.312-71.313-48.125T896 672t-87.063 17.5-71.312 48.125-48.125 71.313T672 896zM263.375 632.625L470.75 840l-207.375 207.375-78.75-78.75L256.375 896H0V0h896v448H784V112H112v672h144.375l-71.75-72.625z"/></svg>