<svg width="1792" height="1792" viewBox="0 0 1792 1792" xmlns="http://www.w3.org/2000/svg"><path d="M392 1232q35 0 65.625 13.125T511 1281t35.875 53.375T560 1400t-13.125 65.625T511 1519t-53.375 35.875T392 1568t-65.625-13.125T273 1519t-35.875-53.375T224 1400t13.125-65.625T273 1281t53.375-35.875T392 1232zm0 224q22.75 0 39.375-16.625T448 1400t-16.625-39.375T392 1344t-39.375 16.625T336 1400t16.625 39.375T392 1456zm-280 112q23.625 0 43.75 8.75t35.438 24.063 24.062 35.437T224 1680t-8.75 43.75-24.063 35.438-35.437 24.062T112 1792t-43.75-8.75-35.438-24.063T8.75 1723.75 0 1680t8.75-43.75 24.063-35.438 35.437-24.062T112 1568zM1288 112q104.125 0 196 39.813t160.125 108.062T1752.188 420 1792 616t-39.813 196-108.062 160.125T1484 1080.188 1288 1120h-20.125q-66.5 54.25-147.875 83.125T952 1232q-63.875 0-123.813-15.313t-113.75-44.187-99.75-70.438T532.875 1008H504q-81.375 0-152.688-30.625t-124.687-84-84-124.688T112 616t30.625-152.688 84-124.687 124.688-84T504 224h60.375q29.75-51.625 71.75-93.188t92.313-70.437 106.75-44.625T952 0q82.25 0 158.813 28.875T1247.75 112H1288zm0 896q81.375 0 152.688-31.063t124.25-84 84-124.25T1680 616t-31.063-152.688-84-124.25-124.25-84T1288 224h-84.875q-55.125-53.375-114.188-82.688T952 112q-57.75 0-105.875 16.188t-87.5 45.937T688.187 245 633.5 336H504q-57.75 0-108.938 22.313t-89.25 60.375-59.937 88.812T224 616t21.875 108.938 59.938 89.25 89.25 59.937T504 896h92.75q27.125 50.75 63.875 92.313t82.25 70.875 98 45.062T952 1120q78.75 0 147.875-29.313T1226.75 1008H1288z"/></svg>