<svg width="1792" height="1792" xmlns="http://www.w3.org/2000/svg"><path d="M1512 224l280 1344H0L280 224h1232zM728 669.375l-22.75 341.25h381.5L1064 669.375H728zm-129.5 341.25l22.75-341.25h-325.5l-70.875 341.25H598.5zm136.5-448h322l-14.875-231.875h-292.25zm832.125 448l-70.875-341.25h-325.5l22.75 341.25h373.625zm-474.25 106.75h-393.75l-22.75 343.875h439.25zm106.75 0l22.75 343.875h438.375L1589 1117.375h-389.375zm273.875-554.75l-48.125-231.875h-276.5l14.875 231.875h309.75zM643.125 330.75h-276.5L318.5 562.625h309.75zM203 1117.375l-71.75 343.875h438.375l22.75-343.875H203z"/></svg>