<svg width="64" height="64" viewBox="0 0 1792 1792" xmlns="http://www.w3.org/2000/svg"><path d="M1384.25 488.25q84 0 158.375 32.375t129.5 87.5 87.5 129.5T1792 896t-32.375 158.375-87.5 129.5-129.5 87.5-158.375 32.375h-976.5q-84 0-158.375-32.375t-129.5-87.5-87.5-129.5T0 896t32.375-158.375 87.5-129.5 129.5-87.5T407.75 488.25h976.5zm0 733.25q67.375 0 126.875-25.813t103.688-70 70-103.25T1710.624 896t-25.813-126.438-70-103.25-103.687-70T1384.25 570.5h-976.5q-67.375 0-126.875 25.813t-103.688 70-70 103.25T81.376 896t25.813 126.438 70 103.25 103.687 70T407.75 1221.5h976.5z"/></svg>