<svg width="64" height="64" viewBox="0 0 1792 1792" xmlns="http://www.w3.org/2000/svg"><path d="M1624 672q35 0 65.625 13.125T1743 721t35.875 53.375T1792 840v509.25q0 108.5-44.188 191.188t-117.25 138.687-166.687 84.438-192.5 28.437q-82.25 0-143.063-9.625t-108.062-28-84.875-45.938-75.25-63.874-78.313-80.5-93.187-96.688q-28-28-56.875-56t-56.875-56.875q-61.25 28-121.625 56l-120.75 56-100.625-217.875q-57.75 57.75-115.938 114.188T0 1477V233.625l784 784V392q0-35 13.125-65.625T833 273t53.375-35.875T952 224q49 0 80.938 16.625t50.75 43.75 26.687 63 10.063 74.375.874 77-1.312 70.875q28.875-9.625 56-9.625 30.625 0 59.938 11.375t52.062 31.5q22.75-20.125 52.063-31.5T1400 560q28 0 54.25 9.188T1501.938 595t37.187 39.375 22.75 49.875Q1591.625 672 1624 672zM488.25 1271.375L367.5 1008H616L112 504v705.25L266.875 1057l119.875 260.75zM1680 840q0-22.75-16.625-39.375T1624 784q-21.875 0-34.125 12.688t-18.813 33.25-7.874 45.937 0 50.313T1566.25 973t1.75 35h-112V840q0-17.5 2.625-45.938t-.438-55.562-15.75-46.813T1400 672q-22.75 0-39.375 16.625T1344 728v280h-112V728q0-22.75-16.625-39.375T1176 672t-35.438 13.125-18.812 33.688-7 45.937 0 50.313 3.063 46.812T1120 896v112h-112V392q0-22.75-16.625-39.375T952 336t-39.375 16.625T896 392v842.625q-23.625-10.5-65.188-29.75t-87.062-38.063T655.375 1134t-69.125-14q-14 0-25.813 4.375t-11.812 21.875q0 16.625 9.188 29.313t20.562 24.062q19.25 19.25 52.938 53.813t73.5 76.562 82.25 86.625T868 1499.75t68.688 66.938 45.062 38.062q41.125 26.25 73.938 41.125t65.187 22.313 67.813 9.624 82.687 2.188q74.375 0 147.875-20.125t131.25-60.813 93.625-102.812 35.875-147V840z"/></svg>