<svg width="1792" height="1792" viewBox="0 0 1792 1792" xmlns="http://www.w3.org/2000/svg"><path d="M1400 672q35 0 65.625 13.125T1519 721t35.875 53.375T1568 840v509.25q0 109.375-44.188 192.063t-117.25 138.25-166.687 84-192.5 28.437q-56 0-99.313-3.063t-82.687-12.687-79.188-28-87.937-49q-9.625-6.125-31.5-26.25t-52.5-49.438-66.938-65.187T473.375 1484t-74.813-76.125-68.687-70.438-55.125-58.187-35-37.625q-32.375-36.75-32.375-84.875 0-29.75 11.375-56.438t31.063-47.25 46.375-32.812 56.437-12.25q54.25 0 105.875 17.063T560 1062.25v-315q-50.75-24.5-91.875-61.688t-70.438-83.125-45.062-99.312-15.75-110.25q0-81.375 31.063-152.688t84-124.25 124.25-84T728.875.875t152.688 31.063 124.687 84 84.438 124.25 31.062 152.687q0 55.125-15.313 108.063t-44.187 100.187l1.75 1.75q22.75-20.125 52.063-31.5T1176 560q28 0 54.25 9.188T1277.938 595t37.187 39.375 22.75 49.875Q1367.625 672 1400 672zM449.75 392.875q0 65.625 28.875 124.688T560 616q0-33.25-2.188-75.25T556.5 455t7.875-85.313 25.813-73.937 51.625-52.063T728 224q49 0 80.938 16.625t50.75 43.75 26.687 63 10.063 74.375.875 77T896 569.625Q924.875 560 953.75 560q27.125-36.75 41.125-79.188t14-87.937q0-57.75-22.313-108.5t-60.375-88.813-88.812-59.937-108.5-21.875-108.5 21.875-88.813 59.938-59.937 88.812-21.875 108.5zM1456 840q0-22.75-16.625-39.375T1400 784q-21.875 0-35 13.125t-19.25 33.688-7 45.937 0 50.313 3.063 46.812T1344 1008h-112V728q0-22.75-16.625-39.375T1176 672t-39.375 16.625T1120 728v280h-112V728q0-4.375-.438-7.438t-1.312-7.437q0-.875-.875-3.5t-1.75-1.75q-6.125-15.75-20.125-25.813T952 672q-22.75 0-39.375 16.625T896 728v280H784V392q0-22.75-16.625-39.375T728 336t-39.375 16.625T672 392v842.625q-24.5-11.375-66.063-30.625t-87.062-38.063-88.375-32.374-70-13.563q-40.25 0-40.25 40.25v4.375q55.125 57.75 111.125 112.875t112 111.125q45.5 45.5 80.5 84.875t66.938 71.75 64.75 57.75 73.5 42.438 93.625 25.812 124.687 8.75q74.375 0 147.875-20.125t131.25-60.813 93.625-102.812 35.875-147V840z"/></svg>