<svg width="64" height="64" viewBox="0 0 1792 1792" xmlns="http://www.w3.org/2000/svg"><path d="M1568 224v1568H224V224h448q0-46.375 17.5-87.063t48.125-71.312T808.938 17.5 896 0t87.063 17.5 71.312 48.125 48.125 71.313T1120 224h448zM560 448h672V336h-224V224q0-23.625-8.75-43.75t-24.063-35.438-35.437-24.062T896 112t-43.75 8.75-35.438 24.063-24.062 35.437T784 224v112H560v112zm896-112h-112v224H448V336H336v1344h1120V336zM896 784h448v112H896V784zm0 336h448v112H896v-112zm0 336h448v112H896v-112zM744.625 632.625l78.75 78.75L616 918.75 464.625 767.375l78.75-78.75L616 761.25zm0 336l78.75 78.75L616 1254.75l-151.375-151.375 78.75-78.75L616 1097.25zm0 336l78.75 78.75L616 1590.75l-151.375-151.375 78.75-78.75L616 1433.25z"/></svg>