<svg width="1792" height="1792" viewBox="0 0 1792 1792" xmlns="http://www.w3.org/2000/svg"><path d="M504 1344q-22.75 0-39.375-16.625T448 1288t16.625-39.375T504 1232t39.375 16.625T560 1288t-16.625 39.375T504 1344zm784 0q-22.75 0-39.375-16.625T1232 1288t16.625-39.375T1288 1232t39.375 16.625T1344 1288t-16.625 39.375T1288 1344zM1120 336H672V224h448v112zm144.375 1232h-736.75l-224 224h-159.25l225.75-225.75q-30.625-3.5-57.313-18.375t-46.375-37.188-31.062-50.75T224 1400V168q0-35 13.125-65.625T273 49t53.375-35.875T392 0h1008q35 0 65.625 13.125T1519 49t35.875 53.375T1568 168v1232q0 31.5-11.375 59.938t-31.063 50.75-46.374 37.187-57.313 18.375l225.75 225.75h-159.25zM1456 560H336v448h1120V560zM392 112q-22.75 0-39.375 16.625T336 168v280h1120V168q0-22.75-16.625-39.375T1400 112H392zm-56 1288q0 22.75 16.625 39.375T392 1456h1008q22.75 0 39.375-16.625T1456 1400v-280H336v280z"/></svg>