<svg width="1792" height="1792" viewBox="0 0 1792 1792" xmlns="http://www.w3.org/2000/svg"><path d="M1646.75 1792h-158.375l-224-224H526.75l-224 224H144.375L371 1566.25q-31.5-3.5-58.625-18.375t-46.813-37.188-30.625-50.75T224 1400V168q0-35 13.125-65.625T273 49t53.375-35.875T392 0h1008q35 0 65.625 13.125T1519 49t35.875 53.375T1568 168v1232q0 31.5-11.375 59.938t-31.063 50.75-46.374 37.187T1421 1566.25zM672 336h448V224H672v112zm784 672V560H336v448h1120zm-952 336q22.75 0 39.375-16.625T560 1288t-16.625-39.375T504 1232t-39.375 16.625T448 1288t16.625 39.375T504 1344zm784 0q22.75 0 39.375-16.625T1344 1288t-16.625-39.375T1288 1232t-39.375 16.625T1232 1288t16.625 39.375T1288 1344z"/></svg>