<svg width="64" height="64" viewBox="0 0 1792 1792" xmlns="http://www.w3.org/2000/svg"><path d="M1344 0q22.75 0 43.313 8.75t35.874 24.063 24.063 35.874T1456 112v813.75q0 26.25 8.313 45.938t20.562 37.625 27.125 35.875 27.125 40.25 20.563 51.187T1568 1204v252q0 22.75-8.75 43.313t-24.063 35.874-35.874 24.063T1456 1568H224V0h1120zM336 1456h896v-252q0-38.5 8.313-67.375t20.562-51.188 27.125-40.25 27.125-35.874 20.563-37.625T1344 925.75V112H336v1344zm1120-252q0-21-3.938-36.75t-11.374-28.875-17.938-25.813T1400 1085q-12.25 14.875-22.75 27.563t-17.938 25.812-11.374 28.875T1344 1204v252h112v-252z"/></svg>