<svg width="64" height="64" viewBox="0 0 1792 1792" xmlns="http://www.w3.org/2000/svg"><path d="M952 3.5q84 0 161.875 21.875T1260 87.5t124.25 96.25T1480.5 308t62.125 146.125T1564.5 616q0 119.875-45.938 231.438t-130.812 196.437l-732.375 731.5-78.75-78.75 731.5-732.375q69.125-69.125 106.75-159.688T1452.5 616q0-102.375-39.813-193.375t-108.062-159.25-159.25-108.063T952 115.5q-94.5 0-166.688 28.438t-133.437 75.25T534.187 325.5 415.625 448H784v112H224V0h112v368.375q48.125-49 92.313-94.938t88.375-86.625 90.125-74.375 98-57.75 112.875-37.624T952 3.5z"/></svg>