<svg width="1792" height="1792" xmlns="http://www.w3.org/2000/svg"><path d="M1407.875 868q-109.375 0-205.188 38.5t-168 107.188-115.937 162.75-49 205.187L336 1792l217-694.75L0 672h686L896 0l210 672h686l-273.875 210q-27.125-6.125-54.688-10.063T1407.876 868zM1400 1008q81.375 0 152.688 31.063t124.25 84 84 124.25T1792 1400t-31.063 152.688-84 124.25-124.25 84T1400 1792t-152.688-31.063-124.25-84-84-124.25T1008 1400t31.063-152.688 84-124.25 124.25-84T1400 1008zm-280 392q0 57.75 22.313 108.5t60.374 88.813 88.813 60.374T1400 1680q41.125 0 80.5-11.813t73.5-34.562L1166.375 1246q-22.75 34.125-34.563 73.5T1120 1400zm513.625 154q22.75-34.125 34.563-73.5T1680 1400q0-57.75-22.313-108.5t-60.374-88.813-88.813-60.374T1400 1120q-41.125 0-80.5 11.813t-73.5 34.562z"/></svg>