<svg width="64" height="64" viewBox="0 0 1792 1792" xmlns="http://www.w3.org/2000/svg"><path d="M1288 1008q81.375 0 152.688 30.625t124.687 84 84 124.688T1680 1400t-30.625 152.688-84 124.687-124.688 84T1288 1792t-152.688-30.625-124.687-84-84-124.688T896 1400t30.625-152.688 84-124.687 124.688-84T1288 1008zm-280 392q0 57.75 21.875 108.938t59.938 89.25 89.25 59.937T1288 1680q41.125 0 80.5-11.813t73.5-34.562L1054.375 1246q-22.75 34.125-34.563 73.5T1008 1400zm513.625 154q22.75-34.125 34.563-73.5T1568 1400q0-57.75-22.313-108.5t-60.374-88.813-88.813-60.374T1288 1120q-41.125 0-80.5 11.813t-73.5 34.562zm219.625-899.5q-28.875 28.875-56.438 52.938t-56.874 40.687-63.876 25.813-78.312 9.187q-29.75 0-56.875-5.25L1311.625 896h-159.25l243.25-243.25q22.75 7 44.625 12.688t45.5 5.687q48.125 0 91-22.75L1143.625 215.25q-22.75 42.875-22.75 91 0 23.625 5.688 45.5t12.687 44.625L708.75 826q-21-8.75-40.25-16.625T630 796.25t-39.813-8.313T546 784.875q-49.875 0-97.125 14.438t-87.5 42.437L784 1264.375v159.25L616 1254.75l-497 497.875L0 1792l39.375-119 497.875-497L199.5 838.25l39.375-39.375q61.25-61.25 141.75-93.625t167.125-32.375q34.125 0 67.813 5.688T682.5 694.75l331.625-331.625q-5.25-27.125-5.25-56.875 0-42.875 9.188-77.438t25.812-64.312 40.688-57.313T1137.5 50.75z"/></svg>