<svg width="1792" height="1792" xmlns="http://www.w3.org/2000/svg"><path d="M1456 0q23.625 0 43.75 8.75t35.438 24.063 24.062 35.437T1568 112v868q0 27.125 8.313 47.688t20.562 38.5 27.125 35.437 27.125 39.813 20.563 50.75T1680 1260v420q0 23.625-8.75 43.75t-24.063 35.438-35.437 24.062T1568 1792H840l112-112h392v-420q0-39.375 8.313-67.813t20.562-50.75 27.125-39.812 27.125-35.438 20.563-38.5T1456 980V112H336v761.25q-28 3.5-56.438 9.188T224 897.75V0h1232zm112 1260q0-21-3.938-36.75t-11.374-28.875-17.5-25.813T1512 1141q-13.125 14.875-23.188 27.563t-17.5 25.812-11.374 28.875T1456 1260v420h112v-420zm-896-252h112v336H448v-112h166.25q-39.375-52.5-98-82.25T392 1120q-41.125 0-80.5 11.813t-73.5 34.562L625.625 1554q31.5-49 41.125-107.625l111.125 19.25Q770 1512 751.625 1554.438T705.25 1634.5l76.125 76.125-78.75 78.75-76.125-75.25q-50.75 37.625-111.125 57.75T392 1792q-79.625 0-152.25-31.063T112 1672.126V1792H0v-336h336v112H169.75q39.375 52.5 98 82.25T392 1680q41.125 0 80.5-11.813t73.5-34.562L158.375 1246q-31.5 49-41.125 107.625l-111.125-19.25Q14 1288 32.375 1245.562T78.75 1165.5l-76.125-76.125 78.75-78.75 76.125 75.25q50.75-37.625 111.125-57.75T392 1008q79.625 0 152.25 31.063T672 1127.874V1008z"/></svg>