<svg width="1792" height="1792" viewBox="0 0 1792 1792" xmlns="http://www.w3.org/2000/svg"><path d="M896 0q123.375 0 238 31.938t214.375 90.124 181.563 140 140 181.563T1760.062 658 1792 896t-31.938 238-90.124 214.375-140 181.563-181.563 140T1134 1760.062 896 1792q-150.5 0-289.188-48.125t-252.875-135.188-197.75-207.812-122.937-266l107.625-29.75q35 126.875 108.063 232.313T421.75 1519t221.375 118.563T896 1680q107.625 0 207.813-28t187.25-79.188 158.812-122.937 122.938-158.813T1652 1104.25 1680 896q0-107.625-28-207.813t-79.188-187.25-122.937-158.812-158.813-122.938T1103.813 140 896 112q-112.875 0-219.625 31.5t-199.063 90.125-166.687 141.313T188.125 560H448v112H0V224h112v239.75q58.625-107.625 142.625-193.375t185.938-145.688T658 32.376 896 0z"/></svg>