<svg width="64" height="64" xmlns="http://www.w3.org/2000/svg" viewBox="0 0 1280 1792"><path d="M1050 1106q0 215-147 374-148 161-378 161-232 0-378-161Q0 1321 0 1106q0-147 68-270.5T257 639t268-73q96 0 182 31-32 62-39 126-66-28-143-28-167 0-280.5 123T131 1109q0 170 112.5 288.5T525 1516t281-118.5T918 1109q0-89-32-166 66-13 123-49 41 98 41 212zM846 917q0 192-79.5 345T528 1515l-14 1q-29 0-62-5 83-32 146.5-102.5T698 1254t58.5-189 30-192.5T794 694q0-69-3-103 55 160 55 326zm-55-328v2q-73-214-206-440 88 59 142.5 186.5T791 589zm244 203q-83 0-160-75 218-120 290-247 19-37 21-56-42 94-139.5 166.5T842 678q-35-54-35-113 0-37 17-79t43-68q46-44 157-74 59-16 106-58.5t74-100.5q74 105 74 253 0 109-24 170-32 77-88.5 130.5T1035 792z"/></svg>