<svg width="1792" height="1792" xmlns="http://www.w3.org/2000/svg"><path d="M896 672q69.125 0 130.375 26.25t107.188 72.188 72.187 107.187T1232 1008q0 70-26.25 130.813t-72.188 106.75-107.187 72.187T896 1344q-70 0-130.813-26.25t-106.75-72.188-72.187-106.75T560 1008q0-69.125 26.25-130.375t72.188-107.188 106.75-72.187T896 672zm0 560q46.375 0 87.063-17.5t71.312-48.125 48.125-71.313T1120 1008t-17.5-87.063-48.125-71.312-71.313-48.125T896 784t-87.063 17.5-71.312 48.125-48.125 71.313T672 1008t17.5 87.063 48.125 71.312 71.313 48.125T896 1232zm0-1008q125.125 0 248.5 31.063t232.75 91.437 198.188 149.188T1720.25 700q35 72.625 53.375 150.063T1792 1008h-112q0-103.25-31.5-193.375t-87.063-164.5-130.812-133-162.313-98.875T1085.876 357 896 336t-189.875 21-182.438 61.25-162.312 98.875-130.813 133-87.062 164.5T112 1008H0q0-80.5 18.375-157.938T71.75 700q56-115.5 144.813-204.313T414.75 346.5t232.75-91.438T896 224z"/></svg>