<svg width="64" height="64" viewBox="0 0 1792 1792" xmlns="http://www.w3.org/2000/svg"><path d="M1226.75 341.25q110.25 112 169.75 254.625T1456 896t-59.5 300.125-169.75 254.625l-79.625-79.625q95.375-95.375 146.125-217.875T1344 896t-50.75-257.25-146.125-217.875zm-238 238q63.875 63.875 97.563 145.25T1120 896t-33.688 171.5-97.562 145.25L910 1134q47.25-47.25 72.625-108.938T1008 896t-25.375-129.063T910 658zM592.375 224H672v1344h-78.75l-336.875-336H0V560h256.375zM560 415.625L303.625 672H112v448h191.625L560 1376.375v-960.75z"/></svg>