<svg width="64" height="64" viewBox="0 0 1792 1792" xmlns="http://www.w3.org/2000/svg"><path d="M1463.875 104.125q78.75 78.75 140 170.625t102.813 192.5 63.437 209.125T1792 896q0 112-21.875 220.063t-63.438 208.687-102.812 192.5-140 170.625l-79.625-79.625q70.875-70.875 126-153.563t92.75-173.25 56.875-187.687 19.25-197.75-19.25-197.75T1603 510.562t-92.75-173.25-126-153.562zM1456 896q0 157.5-59.5 300.125t-169.75 254.625l-79.625-79.625q95.375-95.375 146.125-217.875T1344 896t-50.75-257.25-146.125-217.875l79.625-79.625q110.25 112 169.75 254.625T1456 896zM988.75 579.25q63.875 63.875 97.563 145.25T1120 896t-33.688 171.5-97.562 145.25L910 1134q47.25-47.25 72.625-108.938T1008 896t-25.375-129.063T910 658z"/></svg>