<svg width="1792" height="1792" xmlns="http://www.w3.org/2000/svg"><path d="M1463.875 104.125q78.75 78.75 139.563 170.625t102.812 192.938 63.438 209.125T1791.124 896t-21.438 219.188-63.437 209.124-102.813 192.938-139.562 170.625l-78.75-78.75q70.875-70.875 125.563-153.563T1603 1281.876t57.313-188.563T1680 896t-19.688-197.313T1603 510.125t-92.313-173.688-125.562-153.562zM1226.75 341.25q55.125 55.125 97.563 119.438t71.75 135.187 44.624 147T1456 896q0 77.875-15.313 153.563t-44.624 146.562-71.75 135.188-97.563 119.437l-79.625-79.625q94.5-94.5 145.688-217.875T1344 896t-51.188-257.25-145.687-217.875zm-238 238q63 63 97.125 145.25T1120 896t-34.125 171.5-97.125 145.25L910 1134q47.25-47.25 72.625-108.938T1008 896t-25.375-129.063T910 658zM592.375 224H672v1344h-79.625l-336-336H0V560h256.375zM560 415.625L303.625 672H112v448h191.625L560 1376.375v-960.75z"/></svg>