<svg width="1792" height="1792" xmlns="http://www.w3.org/2000/svg"><path d="M681.625 891.625l-124.25-124.25Q549.5 819 525 863.188t-61.688 76.562-84 50.313T280 1008q-57.75 0-108.938-21.875t-89.25-59.938-59.937-89.25T0 728t21.875-108.938 59.938-89.25 89.25-59.937T280 448q56 0 107.188 21t90.562 61.25h.875l281.75 282.625zM280 896q35 0 65.625-13.125T399 847t35.875-53.375T448 728t-13.125-65.625T399 609t-53.375-35.875T280 560t-65.625 13.125T161 609t-35.875 53.375T112 728t13.125 65.625T161 847t53.375 35.875T280 896zm1120-448q57.75 0 108.938 21.875t89.25 59.938 59.937 89.25T1680 728t-21.875 108.938-59.938 89.25-89.25 59.937T1400 1008q-41.125 0-73.063-8.75t-59.5-24.5-52.5-38.063-52.062-50.312l78.75-79.625q18.375 18.375 34.563 35t34.562 28.438T1350.563 889t49.437 7q35 0 65.625-13.125T1519 847t35.875-53.375T1568 728t-13.125-65.625T1519 609t-53.375-35.875T1400 560q-33.25 0-64.313 12.688T1281 609l-560 560q-23.625 23.625-36.313 54.688T672 1288q0 35 13.125 65.625T721 1407t53.375 35.875T840 1456t65.625-13.125T959 1407t35.875-53.375T1008 1288q0-28-7-49.438t-18.813-39.812-28.437-34.563-35-34.562l79.625-78.75q27.125 27.125 49.875 52.063t38.5 52.5 24.5 59.5T1120 1288q0 57.75-21.875 108.938t-59.938 89.25-89.25 59.937T840 1568t-108.938-21.875-89.25-59.938-59.937-89.25T560 1288t21-107.625 61.25-90.125l560-560Q1242.5 490 1292.375 469T1400 448zM840 694.75L592.375 448h159.25L840 537.25 928.375 448h159.25z"/></svg>