<svg width="64" height="64" viewBox="0 0 1792 1792" xmlns="http://www.w3.org/2000/svg"><path d="M952 448q-35 0-65.625-13.125T833 399t-35.875-53.375T784 280t13.125-65.625T833 161t53.375-35.875T952 112t65.625 13.125T1071 161t35.875 53.375T1120 280t-13.125 65.625T1071 399t-53.375 35.875T952 448zm448 224q23.625 0 43.75 8.75t35.438 24.063 24.062 35.437T1512 784t-8.75 43.75-24.063 35.438-35.437 24.062T1400 896h-233.625q-21.875 0-42.438-8.75t-36.312-23.625L1008 784q-17.5 67.375-33.688 134.313t-33.687 134.312l259 259q15.75 15.75 24.063 36.313t8.312 42.437V1680q0 23.625-8.75 43.75t-24.063 35.438-35.437 24.062T1120 1792t-43.75-8.75-35.438-24.063-24.062-35.437T1008 1680v-224l-233.625-233.625-69.125 316.75q-8.75 41.125-16.625 82.688t-19.25 81.812Q658 1743 630 1767.5t-70 24.5q-22.75 0-43.313-8.75t-35.875-24.063-24.062-35.437T448 1680q0-11.375 2.625-23.625Q465.5 1575 484.75 1494.937t36.75-160.562q36.75-165.375 72.188-329.438T665 675.5L560 728v224q0 23.625-8.75 43.75t-24.063 35.438-35.437 24.062T448 1064t-43.75-8.75-35.438-24.063-24.062-35.437T336 952V657.125q0-32.375 16.625-58.625t45.5-41.125l170.625-85.75Q616 448 669.375 448H728q39.375 53.375 98.438 82.688T952 560q71.75 0 133.875-34.125L1232 672h168z"/></svg>