<svg width="64" height="64" viewBox="0 0 1792 1792" xmlns="http://www.w3.org/2000/svg"><path d="M1456 560q35 0 65.625 13.125T1575 609t35.875 53.375T1624 728t-13.125 65.625T1575 847t-53.375 35.875T1456 896h-280q-12.25 0-23.625-6.125T1130.937 875t-19.25-19.25-17.062-18.375L1058.75 980l268.625 268.625Q1344 1265.25 1344 1288v336q0 35-13.125 65.625T1295 1743t-53.375 35.875T1176 1792t-65.625-13.125T1057 1743t-35.875-53.375T1008 1624v-200.375l-190.75-190.75-63 287-14 70-15.75 70q-7 28.875-22.313 53.375t-36.75 42-48.125 27.125T560 1792q-35 0-65.625-13.125T441 1742.562t-35.875-53.812T392 1623.125q0-8.75.875-17.5t2.625-17.5L498.75 1120q-34.125-.875-63.438-14.438t-51.625-36.75-35-52.937T336 952V532q0-14.875 8.313-28.875t22.312-21l232.75-116.375q41.125-20.125 77.438-24.938T757.75 336Q728 283.5 728 224q0-46.375 17.5-87.063t48.125-71.312T864.938 17.5 952 0t87.063 17.5 71.312 48.125 48.125 71.313T1176 224q0 40.25-14.438 78.313T1120.876 371q4.375 3.5 7.875 6.563t7.875 7.437l175 175H1456zM840 224q0 23.625 8.75 43.75t24.063 35.438 35.437 24.062T952 336t43.75-8.75 35.438-24.063 24.062-35.437T1064 224t-8.75-43.75-24.063-35.438-35.437-24.062T952 112t-43.75 8.75-35.438 24.063-24.062 35.437T840 224zm616 560q22.75 0 39.375-16.625T1512 728q0-28-15.75-40.25T1456 672t-55.125-1.313-59.5 3.5-53.813-1.75-38.937-17.062L1057 464.625Q1040.375 448 1017.625 448H724.5q-39.375 0-74.375 17.5L448 567v385q0 22.75 16.625 39.375T504 1008t39.375-16.625T560 952V700q0-14.875 8.313-28.875t22.312-21q10.5-5.25 29.313-15.75t39.375-20.563 39.375-17.937T728 588q22.75 0 39.375 16.625T784 644q0 14.875-8.313 28.875t-22.312 21L672 734.125V952q0 33.25-12.688 63.875t-35.437 53.375l-118.125 542.5Q504 1620.5 504 1624q0 22.75 16.188 39.375T559.125 1680q21 0 35.875-11.813t19.25-31.937q30.625-132.125 58.188-263.375t57.312-264.25q4.375-19.25 19.25-31.5t35-12.25q23.625 0 40.25 16.625l279.125 279.125Q1120 1377.25 1120 1400v224q0 22.75 16.625 39.375T1176 1680t39.375-16.625T1232 1624v-312.375L957.25 1036q-16.625-16.625-16.625-39.375 0-6.125 4.375-27.125t11.375-49L971.25 861 987 800.187l14-52.062 8.75-33.25q4.375-19.25 19.25-31.063T1064 672q22.75 0 39.375 16.625l96.25 95.375H1456z"/></svg>