<svg width="64" height="64" viewBox="0 0 1792 1792" xmlns="http://www.w3.org/2000/svg"><path d="M1680 784q0 129.5-40.688 249.375t-114.624 219.188-177.188 172.812-227.5 110.25V1680h336v112H336v-112h336v-144.375q-125.125-36.75-227.938-110.25t-176.75-172.813-114.625-219.187T112 784q0-108.5 28-208.688t79.188-187.25 122.5-158.375 158.375-122.5T687.313 28 896 0t208.688 28 187.25 79.188 158.374 122.5 122.5 158.375T1652 575.313 1680 784zM896 112q-92.75 0-178.5 24.063t-160.563 67.812-136.062 105-105 136.063T248.062 605.5 224 784h280q0-81.375 30.625-152.688t84-124.687 124.688-84T896 392t152.688 30.625 124.687 84 84 124.688T1288 784h280q0-92.75-24.063-178.5t-67.812-160.563-105-136.062-136.063-105-160.562-67.813T896 112zm280 672q0-57.75-21.875-108.938t-59.938-89.25-89.25-59.937T896 504t-108.938 21.875-89.25 59.938-59.937 89.25T616 784t21.875 108.938 59.938 89.25 89.25 59.937T896 1064t108.938-21.875 89.25-59.938 59.937-89.25T1176 784zM233.625 896q13.125 80.5 45.063 153.563T357 1184.75t105.438 112.438 128.187 85.312 146.125 54.25T896 1456q81.375 0 158.813-19.25t146.562-54.25 128.188-85.313T1435 1184.75t77.875-135.188 45.5-153.562h-287q-17.5 62.125-54.25 113.75t-86.625 88.375-110.25 57.313T896 1176q-64.75 0-124.688-20.563T661.5 1098.126t-86.625-88.375T520.625 896h-287zM1008 1680v-119.875Q952.875 1568 896 1568t-112-7.875V1680h224z"/></svg>