<svg width="1792" height="1792" viewBox="0 0 1792 1792" xmlns="http://www.w3.org/2000/svg"><path d="M896 224q65.625 0 135.625 5.688t139.563 17.937 136.5 31.938 126.437 47.687q42.875 20.125 86.625 48.125t79.188 63.875 57.75 80.063T1680 616v560q0 52.5-22.313 96.688t-57.75 80.062-79.187 63.875-86.625 48.125q-59.5 28-126.438 47.688t-136.5 31.937-139.562 17.938T896 1568t-135.625-5.688-139.563-17.937-136.5-31.938-126.437-47.687q-42.875-20.125-86.625-48.125t-79.188-63.875-57.75-80.063T112 1176V616q0-52.5 22.313-96.688t57.75-80.062 79.187-63.875 86.625-48.125q59.5-28 126.438-47.688t136.5-31.937 139.562-17.938T896 224zm0 112q-59.5 0-123.375 4.813t-127.75 15.75-125.563 28.875T404.25 428.75Q378 441 346.937 459.375t-58.625 42-45.937 52.5T224 616t18.375 62.125 45.938 52.5 58.625 42 57.312 30.625q53.375 25.375 115.063 43.313t125.562 28.875 127.75 15.75T896 896q58.625 0 122.938-4.813t128.187-15.75 125.125-28.875 115.5-43.312q26.25-12.25 57.313-30.625t58.624-42 45.938-52.5T1568 616t-18.375-62.125-45.938-52.5-58.624-42-57.313-30.625q-54.25-25.375-115.5-43.313t-125.125-28.875-128.188-15.75T896 336zm0 1120q58.625 0 122.938-4.813t128.187-15.75 125.125-28.874 115.5-43.313q26.25-12.25 57.313-30.625t58.624-42 45.938-52.5T1568 1176V822.5q-65.625 52.5-147.875 88.375t-171.5 57.313-180.25 30.625T896 1008t-172.375-9.188-180.25-30.625-171.5-57.312T224 822.5V1176q0 33.25 18.375 62.125t45.938 52.5 58.625 42 57.312 30.625q53.375 25.375 115.063 43.313t125.562 28.874 127.75 15.75T896 1456z"/></svg>