<svg width="1792" height="1792" viewBox="0 0 1792 1792" xmlns="http://www.w3.org/2000/svg"><path d="M896 1792q0-92.75 24.063-178.5t67.812-160.563 105-136.062 136.063-105 160.562-67.813T1568 1120v112q-77 0-148.75 20.125t-133.875 56.438-113.313 87.5-87.5 113.312-56.437 133.875T1008 1792H896zm-336 0q0-139.125 35.875-268.188t101.5-241.062 157.5-203.875 203.875-157.5 241.063-101.5T1568 784v112q-123.375 0-237.563 31.938T1116.5 1018.5t-181.563 140.438T794.5 1340.5t-90.563 213.938T672 1792H560zm-336 0q0-185.5 48.125-357t135.625-321.125 210-272.125 272.125-210T1211 496.125 1568 448v112q-169.75 0-326.813 44.188t-294 124.25-249.812 192.937-192.938 249.813-124.25 294T336 1792H224zm1176-336q35 0 65.625 13.125T1519 1505t35.875 53.375T1568 1624t-13.125 65.625T1519 1743t-53.375 35.875T1400 1792t-65.625-13.125T1281 1743t-35.875-53.375T1232 1624t13.125-65.625T1281 1505t53.375-35.875T1400 1456z"/></svg>