<svg width="64" height="64" viewBox="0 0 1792 1792" xmlns="http://www.w3.org/2000/svg"><path d="M896 1792q0-92.75 24.063-178.5t67.812-160.563 105-136.062 136.063-105 160.562-67.813T1568 1120v112q-77 0-148.75 20.125t-133.875 56.438-113.313 87.5-87.5 113.312-56.437 133.875T1008 1792H896zm504-336q35 0 65.625 13.125T1519 1505t35.875 53.375T1568 1624t-13.125 65.625T1519 1743t-53.375 35.875T1400 1792t-65.625-13.125T1281 1743t-35.875-53.375T1232 1624t13.125-65.625T1281 1505t53.375-35.875T1400 1456z"/></svg>