<svg width="1792" height="1792" xmlns="http://www.w3.org/2000/svg"><path d="M630 1279.25q27.125 0 45.5 18.375l90.125 90.125Q784 1406.125 784 1433.25q0 12.25-4.375 24.063t-14 20.562q-21.875 21.875-38.938 38.5t-35.437 28-40.688 17.5-54.687 6.125q-63 0-131.688-26.688T329 1469.563 203 1365 98.437 1239t-71.75-135.188T0 972.125q0-32.375 6.125-54.688t17.5-40.687 28-35.438 38.5-38.937q8.75-9.625 20.563-14T134.75 784q27.125 0 45.5 18.375l90.125 90.125q18.375 18.375 18.375 45.5 0 22.75-12.688 38.063t-28.437 29.312-28.438 29.75-12.687 37.625q0 27.125 18.375 45.5l224.875 224.875q18.375 18.375 45.5 18.375 21.875 0 37.625-12.688t29.75-28.437 29.313-28.438T630 1279.25zM1008 1568q0-92.75 24.063-178.938t67.812-160.562 105-135.625 135.625-105 160.563-67.813T1680 896v112q-77 0-148.75 20.125t-133.875 56.438-113.313 87.5-87.5 113.312-56.437 133.875T1120 1568h-112zm504-336q35 0 65.625 13.125T1631 1281t35.875 53.375T1680 1400t-13.125 65.625T1631 1519t-53.375 35.875T1512 1568t-65.625-13.125T1393 1519t-35.875-53.375T1344 1400t13.125-65.625T1393 1281t53.375-35.875T1512 1232z"/></svg>