<svg width="1792" height="1792" viewBox="0 0 1792 1792" xmlns="http://www.w3.org/2000/svg"><path d="M504 784l504 1008H0zm345.625 910L504 1002.75 158.375 1694h691.25zM448 1232h112v280H448v-280zm0 336h112v112H448v-112zm1064-224q35 0 65.625 13.125T1631 1393t35.875 53.375T1680 1512t-13.125 65.625T1631 1631t-53.375 35.875T1512 1680t-65.625-13.125T1393 1631t-35.875-53.375T1344 1512t13.125-65.625T1393 1393t53.375-35.875T1512 1344zM667.625 798.875q95.375-110.25 210.875-196t245-145.25 269.938-90.563T1680 336v112q-140 0-274.313 31.063t-256.812 89.687-231 144.375-196 194.25zM834.75 1132.25q70-107.625 162.75-192.938T1199.188 794.5t230.562-91T1680 672v112q-123.375 0-239.313 32.375t-217.437 93.188-185.938 147-143.062 193.812zM1028.125 1519q28-112 89.688-206.063t148.312-161.874 192.5-105.438T1680 1008v112q-77 0-148.75 20.125t-133.875 56.438-113.313 87.5-87.5 113.312-56.437 133.875T1120 1680h-11.375z"/></svg>