<svg width="64" height="64" viewBox="0 0 1792 1792" xmlns="http://www.w3.org/2000/svg"><path d="M1512 1344q35 0 65.625 13.125T1631 1393t35.875 53.375T1680 1512t-13.125 65.625T1631 1631t-53.375 35.875T1512 1680t-65.625-13.125T1393 1631t-35.875-53.375T1344 1512t13.125-65.625T1393 1393t53.375-35.875T1512 1344zm-483.875 175q28-112 89.688-206.063t148.312-161.874 192.5-105.438T1680 1008v112q-77 0-148.75 20.125t-133.875 56.438-113.313 87.5-87.5 113.312-56.437 133.875T1120 1680h-11.375zM504 784l504 1008H0zm368.375 924L504 972.125 135.625 1708h736.75zM448 1232h112v280H448v-280zm0 336h112v112H448v-112z"/></svg>