<svg width="1792" height="1792" xmlns="http://www.w3.org/2000/svg"><path d="M1232 1568q23.625 0 43.75 8.75t35.438 24.063 24.062 35.437T1344 1680t-8.75 43.75-24.063 35.438-35.437 24.062T1232 1792t-43.75-8.75-35.438-24.063-24.062-35.437T1120 1680t8.75-43.75 24.063-35.438 35.437-24.062T1232 1568zm-448 224q0-116.375 43.75-218.313t119.875-178.062 178.063-119.875T1344 1232v112q-92.75 0-174.125 35.438t-142.188 96.25-96.25 142.187T896 1792H784zm-336 0q0-123.375 31.938-238t90.125-214.375 140-181.563 181.562-140 213.938-90.125T1344 896v112q-108.5 0-208.25 28t-186.813 79.188-158.812 122.937-122.938 158.813T588 1584.188 560 1792H448zM1792 784h-224v1008h-112V784h-224V112h560v672zm-448-560v112h336V224h-336zm336 448V448h-112v112h-112V448h-112v224h336zm-560 22.75q-130.375 27.125-247.188 81.813T656.25 908.688t-179.813 175.437T340.375 1295t-86.188 238.438T224 1792H112q0-147.875 34.125-287.875t97.563-265.563 153.562-233.624 202.125-193.375 243.25-144.375T1120 581v113.75z"/></svg>