<svg width="1792" height="1792" xmlns="http://www.w3.org/2000/svg"><path d="M1008 1568q0-92.75 24.063-178.938t67.812-160.562 105-135.625 135.625-105 160.563-67.813T1680 896v112q-77 0-148.75 20.125t-133.875 56.438-113.313 87.5-87.5 113.312-56.437 133.875T1120 1568h-112zm504-336q35 0 65.625 13.125T1631 1281t35.875 53.375T1680 1400t-13.125 65.625T1631 1519t-53.375 35.875T1512 1568t-65.625-13.125T1393 1519t-35.875-53.375T1344 1400t13.125-65.625T1393 1281t53.375-35.875T1512 1232zm-749.875-77.875q61.25-135.625 156.625-245.438t214.813-187.25T1392.124 602 1680 560v112q-138.25 0-266.438 40.688T1176.438 827.75t-193.813 178.938T847 1239zM423.5 1095.5q49-130.375 122.5-245.875T712.688 637t203.437-173.688 233.188-129.937T1406.124 252 1680 224v112q-133 0-259.438 27.563t-242.812 79.625-219.188 126.875T770 738.938 618.187 944.563t-108.062 237.562z"/></svg>