<svg width="64" height="64" viewBox="0 0 1792 1792" xmlns="http://www.w3.org/2000/svg"><path d="M504 784q104.125 0 196 39.813t160.125 108.062T968.188 1092 1008 1288t-39.813 196-108.062 160.125T700 1752.188 504 1792t-196-39.813-160.125-108.062T39.812 1484 0 1288t39.813-196 108.062-160.125T308 823.812 504 784zm406 504q0-84-31.938-157.938T791 1001t-129.063-87.063T504 882t-157.938 31.938T217 1001t-87.063 129.063T98 1288t31.938 157.938T217 1575t129.063 87.063T504 1694t157.938-31.938T791 1575t87.063-129.063T910 1288zm-170.625-156.625L582.75 1288l156.625 156.625-78.75 78.75L504 1367.625l-156.625 155.75-78.75-78.75L424.375 1288l-155.75-156.625 78.75-78.75L504 1209.25l156.625-156.625zM1512 1344q35 0 65.625 13.125T1631 1393t35.875 53.375T1680 1512t-13.125 65.625T1631 1631t-53.375 35.875T1512 1680t-65.625-13.125T1393 1631t-35.875-53.375T1344 1512t13.125-65.625T1393 1393t53.375-35.875T1512 1344zm-364.875-71.75q48.125-62.125 107.625-111.125T1382.5 1078t143.5-52.063T1680 1008v112q-77 0-148.75 20.125t-133.875 56.438-113.313 87.5-87.5 113.312-56.437 133.875T1120 1680h-105.875q65.625-84.875 99.75-185.063T1148 1288q0-4.375-.438-7.875t-.437-7.875z"/></svg>