<svg width="1792" height="1792" viewBox="0 0 1792 1792" xmlns="http://www.w3.org/2000/svg"><path d="M630 1279.25q27.125 0 45.5 18.375l90.125 90.125Q784 1406.125 784 1433.25q0 12.25-4.375 24.063t-14 20.562q-21.875 21.875-38.938 38.5t-35.437 28-40.688 17.5-54.687 6.125q-63 0-131.688-26.688T329 1469.563 203 1365 98.437 1239t-71.75-135.188T0 972.125q0-32.375 6.125-54.688t17.5-40.687 28-35.438 38.5-38.937q8.75-9.625 20.563-14T134.75 784q27.125 0 45.5 18.375l90.125 90.125q18.375 18.375 18.375 45.5 0 22.75-12.688 38.063t-28.437 29.312-28.438 29.75-12.687 37.625q0 27.125 18.375 45.5l224.875 224.875q18.375 18.375 45.5 18.375 21.875 0 37.625-12.688t29.75-28.437 29.313-28.438T630 1279.25z"/></svg>