<svg width="1792" height="1792" viewBox="0 0 1792 1792" xmlns="http://www.w3.org/2000/svg"><path d="M672 224h112v112H672V224zm224 0h112v112H896V224zm-448 896q-23.625 0-43.75-8.75t-35.438-24.063-24.062-35.874-8.75-44.188v-446.25q0-23.625 8.75-44.188t24.063-35.875 35.437-24.062T448 448V0h784v448q23.625 0 43.75 8.75t35.438 24.063 24.062 35.875 8.75 44.187v446.25q0 23.625-8.75 44.188t-24.063 35.874-35.437 24.063T1232 1120H448zm112-672h560V112H560v336zm-112 560h784V560H448v448zm946.75 554.75q-112 110.25-254.625 169.75T840 1792t-300.125-59.5-254.625-169.75l79.625-79.625Q460.25 1578.5 582.75 1629.25T840 1680t257.25-50.75 217.875-146.125zM602.875 1246q47.25 47.25 108.938 72.625T840 1344t128.188-25.375T1077.124 1246l79.625 78.75q-63.875 63.875-145.25 97.563T840 1456t-171.5-33.688-145.25-97.562z"/></svg>