<svg width="1792" height="1792" viewBox="0 0 1792 1792" xmlns="http://www.w3.org/2000/svg"><path d="M1075.375 1120q21 0 30.625-11.375t12.688-27.563 2.187-34.562-.875-31.5l672-336v777H0V679l672 336q0 13.125-.875 31.5t2.188 34.563T686 1108.624 716.625 1120h358.75zM1792 336v217l-672 336q0-13.125.875-31.5t-2.188-34.563T1106 795.375 1075.375 784h-358.75q-21 0-30.625 11.375t-12.688 27.563-2.187 34.562T672 889L0 553V336h560V224q0-23.625 8.75-43.75t24.063-35.438 35.437-24.062T672 112h448q23.625 0 43.75 8.75t35.438 24.063 24.062 35.437T1232 224v112h560zm-672 0V224H672v112h448zm-112 560v112H784V896h224z"/></svg>