<svg width="1792" height="1792" xmlns="http://www.w3.org/2000/svg"><path d="M434 772.625q11.375 0 25.375 3.938t28.438 9.187 28 11.375 24.937 10.5q-7 .875-14.438 1.75t-14.437.875q-14.875 0-27.125-4.813T461.562 794.5t-21-10.938-18.812-4.812-15.75 3.5-14 7.875q0-3.5-6.125-3.5 6.125-6.125 22.75-10.063T434 772.625zM552.125 812q35.875 0 65.625 12.25-12.25 4.375-24.5 7.438t-25.375 3.062q-17.5 0-31.5-3.5 4.375-7 8.75-9.188t7-10.062zM896 0q123.375 0 237.563 32.375t213.5 90.563 181.562 140.437 140.438 181.563 90.562 213.5T1792 896t-32.375 237.563-90.563 213.5-140.437 181.562-181.563 140.438-213.5 90.562T896 1792t-237.563-32.375-213.5-90.563-181.562-140.437-140.438-181.563-90.562-213.5T0 896t32.375-237.563 90.563-213.5 140.437-181.562 181.563-140.438 213.5-90.562T896 0zm666.75 485.625q-12.25-19.25-24.5-37.188T1512.875 413q-1.75 7.875-4.813 11.375t-3.062 15.75q0 7.875 6.563 15.313t15.75 13.562 18.812 10.5 16.625 6.125zm-60.375-85.75q0 7-2.625 9.625h5.25q3.5 0 5.25.875zM896 1680q99.75 0 195.125-25.375t180.688-72.188 157.5-113.75 126.437-150.062q-11.375-26.25-21.875-53.375t-10.5-56q0-31.5 3.063-51.188t5.687-33.687 3.938-25.813-3.063-26.687-15.313-35.875-31.937-54.25q.875-6.125 3.063-16.625t3.062-21.875.438-21.438-3.938-16.187q-22.75-2.625-47.688-9.625t-43.312-21l5.25-4.375q-11.375 2.625-22.75 7.438t-22.313 9.187-22.312 7.438-23.625 3.062l-14-1.75 2.625-6.125q-12.25 3.5-26.688 8.75t-26.687 5.25q-8.75 0-25.375-6.125t-33.688-14.875-29.75-19.25-12.687-20.125l1.75-2.625q-4.375-5.25-11.375-9.625t-13.563-8.75-10.937-9.625-4.375-12.25l9.625-7.875-20.125-2.625-7-26.25q1.75 4.375 8.313 3.5t9.187-3.5l-31.5-16.625 21.875-56q-12.25-45.5-5.688-70t23.188-40.688 38.938-31.5 42.437-42.437l-2.625-10.5 57.75-70 13.125-1.75q24.5 0 55.125-2.188t62.125-6.125 62.125-8.75 56-10.937q-28-33.25-59.063-63T1375.5 276.5q-9.625 3.5-24.063 10.063t-27.562 15.75-22.313 20.562-9.187 23.625l5.25 16.625q-15.75 25.375-35 31.938t-39.813 7-42-.438-41.562 7.875l-14-29.75 13.125-50.75-14.875-21.875 151.375-47.25q-9.625-24.5-31.938-36.75t-47.687-12.25v-8.75l49-7.875Q1162.875 154 1074.937 133T896 112q-76.125 0-150.5 14.875t-143.938 43.313-133.437 69.562T350 334.25q22.75 0 35.438 11.813t22.75 25.375 21.437 25.375 30.625 11.812l14-10.5-1.75-19.25 28.875-41.125-22.75-64.75q4.375-2.625 13.563-8.75t14.437-6.125q26.25 0 40.688 2.625t24.062 10.063 18.375 20.125 24.5 32.812l31.5-24.5q8.75 3.5 28.438 11.813t38.937 19.25T747.25 353.5t14.875 22.75q0 13.125-10.063 21t-24.937 13.125-32.813 8.313-32.812 6.562-25.375 9.188-10.5 14.437l50.75 16.625q-17.5 14.875-38.063 27.563t-41.562 22.312l3.5 14.875-80.5 31.5v24.5l-6.125 2.625L518 558.25l-3.5-.875q-6.125 0-7.438 2.625t-.437 6.125 2.188 7 .437 5.25l-11.375-6.125 1.75 3.5q0 2.625 3.063 7.875t7 10.063 7 8.75l3.062 3.937q0 2.625-3.938 5.25t-8.312 3.938-7 2.187 0 .875q12.25 0 4.813 1.75t-21.438 8.75-27.563 20.563-13.562 38.062q0 14.875 1.313 28.875T442.75 745.5Q430.5 712.25 406 694.75t-59.5-17.5l-37.625 3.5L327.25 693q-14.875-1.75-31.063-3.5t-31.937-.438-30.188 7T208.25 714L203 753.375q0 28 12.688 45.938t42.437 17.937q26.25 0 51.625-8.313T359.625 791q-7.875 19.25-17.5 37.188t-14 38.062l11.375 5.25q21-14 38.5-4.375t34.125 28 34.125 38.063 37.625 27.562l-29.75 15.75-70-39.375q.875 1.75 2.188 7.875T385 947.625l-31.5-53.375q-28-.875-59.938-9.188t-63.437-21-60.813-28.875-51.187-32.812L112 896q0 106.75 28.875 208.25T222.688 1295t128.187 163.188 168.875 124.687q-4.375-18.375-.875-36.75t9.188-36.75 11.375-37.188 5.687-37.187q0-28-8.75-59.063t-21.438-62.124-26.687-61.688-24.063-58.188-13.562-50.75 5.25-40.687l-13.125-6.125q5.25-12.25 14.438-23.625t17.937-23.188T490 1025.5t6.125-26.25q0-8.75-3.938-18.813T486.5 962.5l18.375 4.375q14.875-34.125 40.688-46.813T609 907.375q4.375 0 18.375 3.938t29.75 9.187l30.188 10.063 20.562 6.562q0 6.125 7.438 8.313t7.437 5.687l-1.75 7q2.625.875 12.688 6.563t21 12.687 20.125 14 11.812 9.625q15.75 0 43.313 10.5T889 1038.188t64.313 37.624 59.062 43.75 43.313 43.75 17.062 38.063l-29.75 31.5q3.5 44.625-6.563 68.688t-29.75 38.937-46.375 26.25-56.437 29.75q0 17.5-8.75 38.063t-22.313 38.5-31.5 30.187T805 1515.5l-36.75-28q1.75 1.75-.438 6.563t-3.937 1.312q8.75 16.625 4.375 38.5t-14.875 44.625-23.625 43.313-23.625 33.687q47.25 12.25 94.5 18.375T896 1680z"/></svg>