<svg width="1792" height="1792" xmlns="http://www.w3.org/2000/svg"><path d="M1792 1730.75q0 24.5-14.875 42.875T1736 1792q-22.75 0-39.375-16.625l-686.875-686q-84 69.125-184.188 105.875T616 1232q-84.875 0-163.625-21.875t-147-62.125-124.688-96.688T84 926.625t-62.125-147T0 616t21.875-163.625 62.125-147 96.688-124.688T305.375 84t147-62.125T616 0t163.625 21.875 147 62.125 124.688 96.688T1148 305.375t62.125 147T1232 616q0 109.375-36.75 209.563t-105.875 184.187q13.125 13.125 50.313 49.875t89.25 87.5 113.75 111.563 124.25 123.374 121.187 122.063 104.125 107.625 72.625 80.063T1792 1730.75zM616 1120q104.125 0 196-39.813t160.125-108.062T1080.188 812 1120 616t-39.813-196-108.062-160.125T812 151.812 616 112t-196 39.813-160.125 108.062T151.812 420 112 616t39.813 196 108.062 160.125T420 1080.188 616 1120zM336 560h560v112H336V560z"/></svg>