<svg width="1792" height="1792" xmlns="http://www.w3.org/2000/svg"><path d="M1775.375 1696.625Q1792 1713.25 1792 1736t-16.625 39.375T1736 1792t-39.375-16.625l-686.875-686q-84 69.125-184.188 105.875T616 1232q-84.875 0-163.625-21.875t-147-62.125-124.688-96.688T84 926.625t-62.125-147T0 616t21.875-163.625 62.125-147 96.688-124.688T305.375 84t147-62.125T616 0t163.625 21.875 147 62.125 124.688 96.688T1148 305.375t62.125 147T1232 616q0 109.375-36.75 209.563t-105.875 184.187zM616 1120q104.125 0 196-39.813t160.125-108.062T1080.188 812 1120 616t-39.813-196-108.062-160.125T812 151.812 616 112t-196 39.813-160.125 108.062T151.812 420 112 616t39.813 196 108.062 160.125T420 1080.188 616 1120zm56-560h224v112H672v224H560V672H336V560h224V336h112v224z"/></svg>