<?xml version="1.0" standalone="no"?>
<!DOCTYPE svg PUBLIC "-//W3C//DTD SVG 1.1//EN" "http://www.w3.org/Graphics/SVG/1.1/DTD/svg11.dtd" >
<svg xmlns="http://www.w3.org/2000/svg">
<defs>
  <font id="bootstrap-icons" horiz-adv-x="128">
    <font-face font-family="bootstrap-icons"
      units-per-em="128" ascent="128"
      descent="0" />
    <missing-glyph horiz-adv-x="0" />
    <glyph glyph-name="alarm"
      unicode="&#xEA01;"
      horiz-adv-x="128" d="M67.9995499830386 84A4 4 0 0 1 59.9995499830386 84V57.104L48.5675499830386 38.064A4 4 0 1 1 55.4315499830386 33.944L67.4315499830386 53.944A4 4 0 0 1 67.9995499830386 56V84zM51.9995499830386 128A4 4 0 0 1 51.9995499830386 120H55.9995499830386V111.44A56.008 56.008 0 0 1 29.8155499830386 11.648L24.9995499830386 6.832A4 4 0 0 1 30.6555499830386 1.168L36.6235499830386 7.136A55.76 55.76 0 0 1 63.9995499830386 0A55.76 55.76 0 0 1 91.3755499830386 7.136L97.3435499830386 1.168A4 4 0 0 1 102.9995499830386 6.832L98.1915499830386 11.648A56.008 56.008 0 0 1 71.9995499830386 111.44V120H75.9995499830386A4 4 0 0 1 75.9995499830386 128H51.9995499830386zM60.3035499830386 103.856A48.744 48.744 0 0 0 67.6955499830386 103.856A48 48 0 1 0 60.3035499830386 103.856zM-0.0004500169614 100C-0.0004500169614 93.976 2.6635499830386 88.568 6.8795499830386 84.904A64.28 64.28 0 0 0 35.0955499830386 113.12A20 20 0 0 1 -0.0004500169614 100zM107.9995499830386 120C101.9755499830386 120 96.5675499830386 117.336 92.9035499830386 113.12A64.28 64.28 0 0 0 121.1195499830386 84.904A20 20 0 0 1 107.9995499830386 120z" />
    <glyph glyph-name="alarm-fill"
      unicode="&#xEA02;"
      horiz-adv-x="128" d="M48 124A4 4 0 0 0 52 128H76A4 4 0 0 0 76 120H72V111.44A56.008 56.008 0 0 0 98.192 11.648L103 6.832A4 4 0 0 0 97.344 1.168L91.376 7.136A55.76 55.76 0 0 0 64 0A55.76 55.76 0 0 0 36.624 7.136L30.656 1.168A4 4 0 0 0 25 6.832L29.816 11.648A56.008 56.008 0 0 0 56 111.44V120H52A4 4 0 0 0 48 124zM68 84A4 4 0 0 1 60 84V57.104L48.568 38.064A4 4 0 1 1 55.432 33.944L67.432 53.944A4 4 0 0 1 68 56V84zM6.88 84.904A20 20 0 1 0 35.096 113.12A64.28 64.28 0 0 1 6.88 84.904zM92.904 113.12A20 20 0 1 0 121.12 84.904A64.28 64.28 0 0 1 92.904 113.12z" />
    <glyph glyph-name="align-bottom"
      unicode="&#xEA03;"
      horiz-adv-x="128" d="M56 120H72A8 8 0 0 0 80 112V32A8 8 0 0 0 72 24H56A8 8 0 0 0 48 32V112A8 8 0 0 0 56 120zM12 16A4 4 0 0 1 12 8V16zM116 8A4 4 0 0 1 116 16V8zM12 8H116V16H12V8z" />
    <glyph glyph-name="align-center"
      unicode="&#xEA04;"
      horiz-adv-x="128" d="M64 120A4 4 0 0 0 68 116V80H60V116A4 4 0 0 0 64 120zM64 8A4 4 0 0 0 60 12V48H68V12A4 4 0 0 0 64 8zM16 72A8 8 0 0 0 24 80H104A8 8 0 0 0 112 72V56A8 8 0 0 0 104 48H24A8 8 0 0 0 16 56V72z" />
    <glyph glyph-name="align-end"
      unicode="&#xEA05;"
      horiz-adv-x="128" d="M116 120A4 4 0 0 1 112 116V12A4 4 0 0 1 120 12V116A4 4 0 0 1 116 120zM104 72A8 8 0 0 1 96 80H16A8 8 0 0 1 8 72V56A8 8 0 0 1 16 48H96A8 8 0 0 1 104 56V72z" />
    <glyph glyph-name="align-middle"
      unicode="&#xEA06;"
      horiz-adv-x="128" d="M48 24A8 8 0 0 1 56 16H72A8 8 0 0 1 80 24V104A8 8 0 0 1 72 112H56A8 8 0 0 1 48 104V24zM8 64A4 4 0 0 1 12 60H48V68H12A4 4 0 0 1 8 64zM120 64A4 4 0 0 0 116 60H80V68H116A4 4 0 0 0 120 64z" />
    <glyph glyph-name="align-start"
      unicode="&#xEA07;"
      horiz-adv-x="128" d="M12 120A4 4 0 0 0 16 116V12A4 4 0 0 0 8 12V116A4 4 0 0 0 12 120zM24 72A8 8 0 0 0 32 80H112A8 8 0 0 0 120 72V56A8 8 0 0 0 112 48H32A8 8 0 0 0 24 56V72z" />
    <glyph glyph-name="align-top"
      unicode="&#xEA08;"
      horiz-adv-x="128" d="M56 8H72A8 8 0 0 1 80 16V96A8 8 0 0 1 72 104H56A8 8 0 0 1 48 96V16A8 8 0 0 1 56 8zM12 112A4 4 0 0 0 12 120V112zM116 120A4 4 0 0 0 116 112V120zM12 120H116V112H12V120z" />
    <glyph glyph-name="alt"
      unicode="&#xEA09;"
      horiz-adv-x="128" d="M8 20A4 4 0 0 1 12 16H42.376A4 4 0 0 1 45.888 18.08L88 104H116A4 4 0 0 1 116 112H85.624A4 4 0 0 1 82.112 109.92L40 24H12A4 4 0 0 1 8 20zM88 20A4 4 0 0 1 92 16H116A4 4 0 0 1 116 24H92A4 4 0 0 1 88 20z" />
    <glyph glyph-name="app"
      unicode="&#xEA0A;"
      horiz-adv-x="128" d="M88 112A24 24 0 0 0 112 88V40A24 24 0 0 0 88 16H40A24 24 0 0 0 16 40V88A24 24 0 0 0 40 112H88zM40 120A32 32 0 0 1 8 88V40A32 32 0 0 1 40 8H88A32 32 0 0 1 120 40V88A32 32 0 0 1 88 120H40z" />
    <glyph glyph-name="app-indicator"
      unicode="&#xEA0B;"
      horiz-adv-x="128" d="M40 112A28 28 0 0 1 12 84V44A28 28 0 0 1 40 16H80A28 28 0 0 1 108 44V64A4 4 0 0 0 116 64V44A36 36 0 0 0 80 8H40A36 36 0 0 0 4 44V84A36 36 0 0 0 40 120H60A4 4 0 0 0 60 112H40zM124 104A24 24 0 1 0 76 104A24 24 0 0 0 124 104z" />
    <glyph glyph-name="archive"
      unicode="&#xEA0C;"
      horiz-adv-x="128" d="M0 112A8 8 0 0 0 8 120H120A8 8 0 0 0 128 112V96A8 8 0 0 0 120 88V28A20 20 0 0 0 100 8H28A20 20 0 0 0 8 28V88A8 8 0 0 0 0 96V112zM16 88V28A12 12 0 0 1 28 16H100A12 12 0 0 1 112 28V88H16zM120 112H8V96H120V112zM40 68A4 4 0 0 0 44 72H84A4 4 0 0 0 84 64H44A4 4 0 0 0 40 68z" />
    <glyph glyph-name="archive-fill"
      unicode="&#xEA0D;"
      horiz-adv-x="128" d="M101.144 8C111.832 8 120 17.24 120 28V88H8V28C8 17.24 16.168 8 26.856 8H101.144zM44 72H84A4 4 0 0 0 84 64H44A4 4 0 0 0 44 72zM6.4 120A6.4 6.4 0 0 1 0 113.6V104A6.4 6.4 0 0 1 6.4 97.6H121.6A6.4 6.4 0 0 1 128 104V113.6A6.4 6.4 0 0 1 121.6 120H6.4z" />
    <glyph glyph-name="arrow-90deg-down"
      unicode="&#xEA0E;"
      horiz-adv-x="128" d="M42.8345263832735 9.168A4 4 0 0 0 37.1705263832735 9.168L5.1705263832735 41.168A4 4 0 0 0 10.8345263832735 46.832L36.0025263832735 21.656V100A20 20 0 0 0 56.0025263832735 120H120.0025263832735A4 4 0 0 0 120.0025263832735 112H56.0025263832735A12 12 0 0 1 44.0025263832735 100V21.656L69.1705263832735 46.832A4 4 0 0 0 74.8345263832735 41.168L42.8345263832735 9.168z" />
    <glyph glyph-name="arrow-90deg-left"
      unicode="&#xEA0F;"
      horiz-adv-x="128" d="M9.1715751347417 89.168A4 4 0 0 0 9.1715751347417 94.832L41.1715751347417 126.832A4 4 0 1 0 46.8355751347417 121.168L21.6595751347417 96H100.0035751347417A20 20 0 0 0 120.0035751347417 76V12A4 4 0 0 0 112.0035751347417 12V76A12 12 0 0 1 100.0035751347417 88H21.6595751347417L46.8355751347417 62.832A4 4 0 1 0 41.1715751347417 57.168L9.1715751347417 89.168z" />
    <glyph glyph-name="arrow-90deg-right"
      unicode="&#xEA10;"
      horiz-adv-x="128" d="M118.8284248652583 89.168A4 4 0 0 1 118.8284248652583 94.832L86.8284248652583 126.832A4 4 0 0 1 81.1644248652583 121.168L106.3404248652583 96H27.9964248652583A20 20 0 0 1 7.9964248652583 76V12A4 4 0 0 1 15.9964248652583 12V76A12 12 0 0 0 27.9964248652583 88H106.3404248652583L81.1644248652583 62.832A4 4 0 0 1 86.8284248652583 57.168L118.8284248652583 89.168z" />
    <glyph glyph-name="arrow-90deg-up"
      unicode="&#xEA11;"
      horiz-adv-x="128" d="M42.8345264253671 118.832A4 4 0 0 1 37.1705264253671 118.832L5.1705264253671 86.832A4 4 0 1 1 10.8345264253671 81.168L36.0025264253671 106.344V28A20 20 0 0 1 56.0025264253671 8H120.0025264253671A4 4 0 0 1 120.0025264253671 16H56.0025264253671A12 12 0 0 0 44.0025264253671 28V106.344L69.1705264253671 81.168A4 4 0 1 1 74.8345264253672 86.832L42.8345264253671 118.832z" />
    <glyph glyph-name="arrow-bar-down"
      unicode="&#xEA12;"
      horiz-adv-x="128" d="M8 100A4 4 0 0 0 12 104H116A4 4 0 0 0 116 96H12A4 4 0 0 0 8 100zM64 80A4 4 0 0 0 68 76V29.656L85.168 46.832A4 4 0 0 0 90.832 41.168L66.832 17.168A4 4 0 0 0 61.168 17.168L37.168 41.168A4 4 0 0 0 42.832 46.832L60 29.656V76A4 4 0 0 0 64 80z" />
    <glyph glyph-name="arrow-bar-left"
      unicode="&#xEA13;"
      horiz-adv-x="128" d="M104.0035751347417 8A4 4 0 0 0 100.0035751347417 12V116A4 4 0 0 0 108.0035751347417 116V12A4 4 0 0 0 104.0035751347417 8zM84.0035751347417 64A4 4 0 0 0 80.0035751347417 60H33.6595751347417L50.8355751347417 42.832A4 4 0 0 0 45.1715751347417 37.168L21.1715751347417 61.168A4 4 0 0 0 21.1715751347417 66.832L45.1715751347417 90.832A4 4 0 1 0 50.8355751347417 85.168L33.6595751347417 68H80.0035751347417A4 4 0 0 0 84.0035751347417 64z" />
    <glyph glyph-name="arrow-bar-right"
      unicode="&#xEA14;"
      horiz-adv-x="128" d="M43.9964248652583 64A4 4 0 0 1 47.9964248652583 60H94.3404248652583L77.1644248652583 42.832A4 4 0 0 1 82.8284248652583 37.168L106.8284248652583 61.168A4 4 0 0 1 106.8284248652583 66.832L82.8284248652583 90.832A4 4 0 0 1 77.1644248652583 85.168L94.3404248652583 68H47.9964248652583A4 4 0 0 1 43.9964248652583 64zM23.9964248652583 8A4 4 0 0 0 19.9964248652583 12V116A4 4 0 0 0 27.9964248652583 116V12A4 4 0 0 0 23.9964248652583 8z" />
    <glyph glyph-name="arrow-bar-up"
      unicode="&#xEA15;"
      horiz-adv-x="128" d="M64 48A4 4 0 0 1 68 52V98.344L85.168 81.168A4 4 0 0 1 90.832 86.832L66.832 110.832A4 4 0 0 1 61.168 110.832L37.168 86.832A4 4 0 1 1 42.832 81.168L60 98.344V52A4 4 0 0 1 64 48zM8 28A4 4 0 0 0 12 32H116A4 4 0 0 0 116 24H12A4 4 0 0 0 8 28z" />
    <glyph glyph-name="arrow-clockwise"
      unicode="&#xEA16;"
      horiz-adv-x="128" d="M63.991840406073 104A40 40 0 1 1 100.359840406073 80.688A4 4 0 0 0 107.623840406073 84.024A48 48 0 1 0 63.991840406073 112V104zM63.991840406073 92.272V123.728A2 2 0 0 0 67.271840406073 125.264L86.151840406073 109.536C87.111840406073 108.736 87.111840406073 107.264 86.151840406073 106.464L67.271840406073 90.736A2 2 0 0 0 63.991840406073 92.272z" />
    <glyph glyph-name="arrow-counterclockwise"
      unicode="&#xEA17;"
      horiz-adv-x="128" d="M64.008159593927 104A40 40 0 1 0 27.640159593927 80.688A4 4 0 0 1 20.376159593927 84.024A48 48 0 1 1 64.008159593927 112V104zM64.008159593927 92.272V123.728A2 2 0 0 1 60.728159593927 125.264L41.848159593927 109.536A2 2 0 0 1 41.848159593927 106.464L60.728159593927 90.736A2 2 0 0 1 64.008159593927 92.272z" />
    <glyph glyph-name="arrow-down"
      unicode="&#xEA18;"
      horiz-adv-x="128" d="M64 120A4 4 0 0 0 68 116V21.656L93.168 46.832A4 4 0 0 0 98.832 41.168L66.832 9.168A4 4 0 0 0 61.168 9.168L29.168 41.168A4 4 0 0 0 34.832 46.832L60 21.656V116A4 4 0 0 0 64 120z" />
    <glyph glyph-name="arrow-down-circle"
      unicode="&#xEA19;"
      horiz-adv-x="128" d="M8 64A56 56 0 1 1 120 64A56 56 0 0 1 8 64zM128 64A64 64 0 1 0 0 64A64 64 0 0 0 128 64zM68 92A4 4 0 0 1 60 92V45.656L42.832 62.832A4 4 0 1 1 37.168 57.168L61.168 33.168A4 4 0 0 1 66.832 33.168L90.832 57.168A4 4 0 0 1 85.168 62.832L68 45.656V92z" />
    <glyph glyph-name="arrow-down-circle-fill"
      unicode="&#xEA1A;"
      horiz-adv-x="128" d="M128 64A64 64 0 1 0 0 64A64 64 0 0 0 128 64zM68 92A4 4 0 0 1 60 92V45.656L42.832 62.832A4 4 0 1 1 37.168 57.168L61.168 33.168A4 4 0 0 1 66.832 33.168L90.832 57.168A4 4 0 0 1 85.168 62.832L68 45.656V92z" />
    <glyph glyph-name="arrow-down-left"
      unicode="&#xEA1B;"
      horiz-adv-x="128" d="M15.9974736167265 20A4 4 0 0 1 19.9974736167265 16H67.9974736167265A4 4 0 0 1 67.9974736167265 24H29.6534736167265L110.8294736167265 105.168A4 4 0 0 1 105.1654736167265 110.832L23.9974736167265 29.656V68A4 4 0 0 1 15.9974736167265 68V20z" />
    <glyph glyph-name="arrow-down-left-circle"
      unicode="&#xEA1C;"
      horiz-adv-x="128" d="M8 64A56 56 0 1 1 120 64A56 56 0 0 1 8 64zM128 64A64 64 0 1 0 0 64A64 64 0 0 0 128 64zM80.768 86.832A4 4 0 1 0 86.424 81.168L53.656 48.4H75.8A4 4 0 1 0 75.8 40.4H44A4 4 0 0 0 40 44.4V76.2A4 4 0 1 0 48 76.2V54.056L80.768 86.832z" />
    <glyph glyph-name="arrow-down-left-circle-fill"
      unicode="&#xEA1D;"
      horiz-adv-x="128" d="M128 64A64 64 0 1 1 0 64A64 64 0 0 1 128 64zM80.768 86.424A4 4 0 1 0 86.424 80.768L53.656 48H75.8A4 4 0 0 0 75.8 40H44A4 4 0 0 0 40 44V75.8A4 4 0 0 0 48 75.8V53.656L80.768 86.424z" />
    <glyph glyph-name="arrow-down-left-square"
      unicode="&#xEA1E;"
      horiz-adv-x="128" d="M120 112A8 8 0 0 1 112 120H16A8 8 0 0 1 8 112V16A8 8 0 0 1 16 8H112A8 8 0 0 1 120 16V112zM0 112A16 16 0 0 0 16 128H112A16 16 0 0 0 128 112V16A16 16 0 0 0 112 0H16A16 16 0 0 0 0 16V112zM80.768 86.832A4 4 0 1 0 86.424 81.168L53.656 48.4H75.8A4 4 0 1 0 75.8 40.4H44A4 4 0 0 0 40 44.4V76.2A4 4 0 1 0 48 76.2V54.056L80.768 86.832z" />
    <glyph glyph-name="arrow-down-left-square-fill"
      unicode="&#xEA1F;"
      horiz-adv-x="128" d="M16 0A16 16 0 0 0 0 16V112A16 16 0 0 0 16 128H112A16 16 0 0 0 128 112V16A16 16 0 0 0 112 0H16zM80.768 86.424L48 53.656V75.8A4 4 0 0 1 40 75.8V44A4 4 0 0 1 44 40H75.8A4 4 0 0 1 75.8 48H53.656L86.424 80.768A4 4 0 1 1 80.768 86.424z" />
    <glyph glyph-name="arrow-down-right"
      unicode="&#xEA20;"
      horiz-adv-x="128" d="M112.0025264253671 20A4 4 0 0 0 108.0025264253671 16H60.0025264253671A4 4 0 0 0 60.0025264253671 24H98.3465264253671L17.1705264253671 105.168A4 4 0 1 0 22.8345264253671 110.832L104.0025264253671 29.656V68A4 4 0 0 0 112.0025264253671 68V20z" />
    <glyph glyph-name="arrow-down-right-circle"
      unicode="&#xEA21;"
      horiz-adv-x="128" d="M8 64A56 56 0 1 1 120 64A56 56 0 0 1 8 64zM128 64A64 64 0 1 0 0 64A64 64 0 0 0 128 64zM46.832 86.832A4 4 0 1 1 41.168 81.168L73.944 48.4H51.8A4 4 0 1 1 51.8 40.4H83.6A4 4 0 0 1 87.6 44.4V76.2A4 4 0 1 1 79.6 76.2V54.056L46.832 86.832z" />
    <glyph glyph-name="arrow-down-right-circle-fill"
      unicode="&#xEA22;"
      horiz-adv-x="128" d="M0 64A64 64 0 1 0 128 64A64 64 0 0 0 0 64zM47.232 86.424A4 4 0 1 1 41.576 80.768L74.344 48H52.2A4 4 0 0 1 52.2 40H84A4 4 0 0 1 88 44V75.8A4 4 0 0 1 80 75.8V53.656L47.232 86.424z" />
    <glyph glyph-name="arrow-down-right-square"
      unicode="&#xEA23;"
      horiz-adv-x="128" d="M120 112A8 8 0 0 1 112 120H16A8 8 0 0 1 8 112V16A8 8 0 0 1 16 8H112A8 8 0 0 1 120 16V112zM0 112A16 16 0 0 0 16 128H112A16 16 0 0 0 128 112V16A16 16 0 0 0 112 0H16A16 16 0 0 0 0 16V112zM46.832 86.832A4 4 0 1 1 41.168 81.168L73.944 48.4H51.8A4 4 0 1 1 51.8 40.4H83.6A4 4 0 0 1 87.6 44.4V76.2A4 4 0 1 1 79.6 76.2V54.056L46.832 86.832z" />
    <glyph glyph-name="arrow-down-right-square-fill"
      unicode="&#xEA24;"
      horiz-adv-x="128" d="M112 0A16 16 0 0 1 128 16V112A16 16 0 0 1 112 128H16A16 16 0 0 1 0 112V16A16 16 0 0 1 16 0H112zM47.232 86.424L80 53.656V75.8A4 4 0 0 0 88 75.8V44A4 4 0 0 0 84 40H52.2A4 4 0 0 0 52.2 48H74.344L41.576 80.768A4 4 0 0 0 47.232 86.424z" />
    <glyph glyph-name="arrow-down-short"
      unicode="&#xEA25;"
      horiz-adv-x="128" d="M64 96A4 4 0 0 0 68 92V45.656L85.168 62.832A4 4 0 0 0 90.832 57.168L66.832 33.168A4 4 0 0 0 61.168 33.168L37.168 57.168A4 4 0 1 0 42.832 62.832L60 45.656V92A4 4 0 0 0 64 96z" />
    <glyph glyph-name="arrow-down-square"
      unicode="&#xEA26;"
      horiz-adv-x="128" d="M120 112A8 8 0 0 1 112 120H16A8 8 0 0 1 8 112V16A8 8 0 0 1 16 8H112A8 8 0 0 1 120 16V112zM0 112A16 16 0 0 0 16 128H112A16 16 0 0 0 128 112V16A16 16 0 0 0 112 0H16A16 16 0 0 0 0 16V112zM68 92A4 4 0 0 1 60 92V45.656L42.832 62.832A4 4 0 1 1 37.168 57.168L61.168 33.168A4 4 0 0 1 66.832 33.168L90.832 57.168A4 4 0 0 1 85.168 62.832L68 45.656V92z" />
    <glyph glyph-name="arrow-down-square-fill"
      unicode="&#xEA27;"
      horiz-adv-x="128" d="M16 128A16 16 0 0 1 0 112V16A16 16 0 0 1 16 0H112A16 16 0 0 1 128 16V112A16 16 0 0 1 112 128H16zM68 92V45.656L85.168 62.832A4 4 0 0 0 90.832 57.168L66.832 33.168A4 4 0 0 0 61.168 33.168L37.168 57.168A4 4 0 1 0 42.832 62.832L60 45.656V92A4 4 0 0 0 68 92z" />
    <glyph glyph-name="arrow-down-up"
      unicode="&#xEA28;"
      horiz-adv-x="128" d="M91.9999999789532 8A4 4 0 0 1 95.9999999789532 12V106.344L121.1679999789532 81.168A4 4 0 0 1 126.8319999789532 86.832L94.8319999789532 118.832A4 4 0 0 1 89.1679999789532 118.832L57.1679999789532 86.832A4 4 0 1 1 62.8319999789532 81.168L87.9999999789532 106.344V12A4 4 0 0 1 91.9999999789532 8zM35.9999999789532 120A4 4 0 0 0 39.9999999789532 116V21.656L65.1679999789532 46.832A4 4 0 0 0 70.8319999789532 41.168L38.8319999789532 9.168A4 4 0 0 0 33.1679999789532 9.168L1.1679999789532 41.168A4 4 0 0 0 6.8319999789532 46.832L31.9999999789532 21.656V116A4 4 0 0 0 35.9999999789532 120z" />
    <glyph glyph-name="arrow-left"
      unicode="&#xEA29;"
      horiz-adv-x="128" d="M120.0035751347417 64A4 4 0 0 1 116.0035751347417 68H21.6595751347417L46.8355751347417 93.168A4 4 0 1 1 41.1715751347417 98.832L9.1715751347417 66.832A4 4 0 0 1 9.1715751347417 61.168L41.1715751347417 29.168A4 4 0 0 1 46.8355751347417 34.832L21.6595751347417 60H116.0035751347417A4 4 0 0 1 120.0035751347417 64z" />
    <glyph glyph-name="arrow-left-circle"
      unicode="&#xEA2A;"
      horiz-adv-x="128" d="M8 64A56 56 0 1 1 120 64A56 56 0 0 1 8 64zM128 64A64 64 0 1 0 0 64A64 64 0 0 0 128 64zM92 68A4 4 0 0 0 92 60H45.656L62.832 42.832A4 4 0 0 0 57.168 37.168L33.168 61.168A4 4 0 0 0 33.168 66.832L57.168 90.832A4 4 0 1 0 62.832 85.168L45.656 68H92z" />
    <glyph glyph-name="arrow-left-circle-fill"
      unicode="&#xEA2B;"
      horiz-adv-x="128" d="M64 128A64 64 0 1 1 64 0A64 64 0 0 1 64 128zM92 68A4 4 0 0 0 92 60H45.656L62.832 42.832A4 4 0 0 0 57.168 37.168L33.168 61.168A4 4 0 0 0 33.168 66.832L57.168 90.832A4 4 0 1 0 62.832 85.168L45.656 68H92z" />
    <glyph glyph-name="arrow-left-right"
      unicode="&#xEA2C;"
      horiz-adv-x="128" d="M8 36A4 4 0 0 1 12 32H106.344L81.168 6.832A4 4 0 0 1 86.832 1.168L118.832 33.168A4 4 0 0 1 118.832 38.832L86.832 70.832A4 4 0 0 1 81.168 65.168L106.344 40H12A4 4 0 0 1 8 36zM120 92A4 4 0 0 0 116 88H21.656L46.832 62.832A4 4 0 1 0 41.168 57.168L9.168 89.168A4 4 0 0 0 9.168 94.832L41.168 126.832A4 4 0 1 0 46.832 121.168L21.656 96H116A4 4 0 0 0 120 92z" />
    <glyph glyph-name="arrow-left-short"
      unicode="&#xEA2D;"
      horiz-adv-x="128" d="M96.0035751347417 64A4 4 0 0 0 92.0035751347417 60H45.6595751347417L62.8355751347417 42.832A4 4 0 0 0 57.1715751347417 37.168L33.1715751347417 61.168A4 4 0 0 0 33.1715751347417 66.832L57.1715751347417 90.832A4 4 0 1 0 62.8355751347417 85.168L45.6595751347417 68H92.0035751347417A4 4 0 0 0 96.0035751347417 64z" />
    <glyph glyph-name="arrow-left-square"
      unicode="&#xEA2E;"
      horiz-adv-x="128" d="M120 112A8 8 0 0 1 112 120H16A8 8 0 0 1 8 112V16A8 8 0 0 1 16 8H112A8 8 0 0 1 120 16V112zM0 112A16 16 0 0 0 16 128H112A16 16 0 0 0 128 112V16A16 16 0 0 0 112 0H16A16 16 0 0 0 0 16V112zM92 68A4 4 0 0 0 92 60H45.656L62.832 42.832A4 4 0 0 0 57.168 37.168L33.168 61.168A4 4 0 0 0 33.168 66.832L57.168 90.832A4 4 0 1 0 62.832 85.168L45.656 68H92z" />
    <glyph glyph-name="arrow-left-square-fill"
      unicode="&#xEA2F;"
      horiz-adv-x="128" d="M128 16A16 16 0 0 0 112 0H16A16 16 0 0 0 0 16V112A16 16 0 0 0 16 128H112A16 16 0 0 0 128 112V16zM92 68H45.656L62.832 85.168A4 4 0 1 1 57.168 90.832L33.168 66.832A4 4 0 0 1 33.168 61.168L57.168 37.168A4 4 0 0 1 62.832 42.832L45.656 60H92A4 4 0 0 1 92 68z" />
    <glyph glyph-name="arrow-repeat"
      unicode="&#xEA30;"
      horiz-adv-x="128" d="M92.272 72H123.728A2 2 0 0 0 125.264 68.72L109.536 49.84A2 2 0 0 0 106.464 49.84L90.736 68.72A2 2 0 0 0 92.272 72zM4.272 56H35.728A2 2 0 0 1 37.264 59.28L21.536 78.16A2 2 0 0 1 18.464 78.16L2.736 59.28A2 2 0 0 1 4.272 56zM64 104C51.584 104 40.48 98.344 33.144 89.456A4 4 0 1 0 26.976 94.544A48.016 48.016 0 0 0 111.336 72H103.2A40.016 40.016 0 0 1 64 104zM24.8 56A40.016 40.016 0 0 1 94.856 38.544A4 4 0 1 0 101.024 33.456A48.016 48.016 0 0 0 16.664 56H24.8z" />
    <glyph glyph-name="arrow-return-left"
      unicode="&#xEA31;"
      horiz-adv-x="128" d="M116.0035751347417 116A4 4 0 0 0 120.0035751347417 112V73.6A20 20 0 0 0 100.0035751347417 53.6H21.6595751347417L48.4355751347417 26.832A4 4 0 0 0 42.7715751347417 21.168L9.1715751347417 54.768A4 4 0 0 0 9.1715751347417 60.432L41.1715751347417 92.432A4 4 0 1 0 46.8355751347417 86.768L21.6595751347417 61.6H100.0035751347417A12 12 0 0 1 112.0035751347417 73.6V112A4 4 0 0 0 116.0035751347417 116z" />
    <glyph glyph-name="arrow-return-right"
      unicode="&#xEA32;"
      horiz-adv-x="128" d="M11.9964248652583 116A4 4 0 0 1 7.9964248652583 112V73.6A20 20 0 0 1 27.9964248652583 53.6H106.3404248652583L79.5644248652583 26.832A4 4 0 0 1 85.2284248652583 21.168L118.8284248652583 54.768A4 4 0 0 1 118.8284248652583 60.432L86.8284248652583 92.432A4 4 0 0 1 81.1644248652583 86.768L106.3404248652583 61.6H27.9964248652583A12 12 0 0 0 15.9964248652583 73.6V112A4 4 0 0 1 11.9964248652583 116z" />
    <glyph glyph-name="arrow-right"
      unicode="&#xEA33;"
      horiz-adv-x="128" d="M7.9964248652583 64A4 4 0 0 0 11.9964248652583 68H106.3404248652583L81.1644248652583 93.168A4 4 0 0 0 86.8284248652583 98.832L118.8284248652583 66.832A4 4 0 0 0 118.8284248652583 61.168L86.8284248652583 29.168A4 4 0 0 0 81.1644248652583 34.832L106.3404248652583 60H11.9964248652583A4 4 0 0 0 7.9964248652583 64z" />
    <glyph glyph-name="arrow-right-circle"
      unicode="&#xEA34;"
      horiz-adv-x="128" d="M8 64A56 56 0 1 1 120 64A56 56 0 0 1 8 64zM128 64A64 64 0 1 0 0 64A64 64 0 0 0 128 64zM36 68A4 4 0 0 1 36 60H82.344L65.168 42.832A4 4 0 0 1 70.832 37.168L94.832 61.168A4 4 0 0 1 94.832 66.832L70.832 90.832A4 4 0 1 1 65.168 85.168L82.344 68H36z" />
    <glyph glyph-name="arrow-right-circle-fill"
      unicode="&#xEA35;"
      horiz-adv-x="128" d="M64 128A64 64 0 1 0 64 0A64 64 0 0 0 64 128zM36 68A4 4 0 0 1 36 60H82.344L65.168 42.832A4 4 0 0 1 70.832 37.168L94.832 61.168A4 4 0 0 1 94.832 66.832L70.832 90.832A4 4 0 1 1 65.168 85.168L82.344 68H36z" />
    <glyph glyph-name="arrow-right-short"
      unicode="&#xEA36;"
      horiz-adv-x="128" d="M31.9964248652583 64A4 4 0 0 0 35.9964248652583 68H82.3404248652583L65.1644248652583 85.168A4 4 0 1 0 70.8284248652583 90.832L94.8284248652583 66.832A4 4 0 0 0 94.8284248652583 61.168L70.8284248652583 37.168A4 4 0 0 0 65.1644248652583 42.832L82.3404248652583 60H35.9964248652583A4 4 0 0 0 31.9964248652583 64z" />
    <glyph glyph-name="arrow-right-square"
      unicode="&#xEA37;"
      horiz-adv-x="128" d="M120 112A8 8 0 0 1 112 120H16A8 8 0 0 1 8 112V16A8 8 0 0 1 16 8H112A8 8 0 0 1 120 16V112zM0 112A16 16 0 0 0 16 128H112A16 16 0 0 0 128 112V16A16 16 0 0 0 112 0H16A16 16 0 0 0 0 16V112zM36 68A4 4 0 0 1 36 60H82.344L65.168 42.832A4 4 0 0 1 70.832 37.168L94.832 61.168A4 4 0 0 1 94.832 66.832L70.832 90.832A4 4 0 1 1 65.168 85.168L82.344 68H36z" />
    <glyph glyph-name="arrow-right-square-fill"
      unicode="&#xEA38;"
      horiz-adv-x="128" d="M0 16A16 16 0 0 1 16 0H112A16 16 0 0 1 128 16V112A16 16 0 0 1 112 128H16A16 16 0 0 1 0 112V16zM36 68H82.344L65.168 85.168A4 4 0 1 0 70.832 90.832L94.832 66.832A4 4 0 0 0 94.832 61.168L70.832 37.168A4 4 0 0 0 65.168 42.832L82.344 60H36A4 4 0 0 0 36 68z" />
    <glyph glyph-name="arrow-up"
      unicode="&#xEA39;"
      horiz-adv-x="128" d="M64 8A4 4 0 0 1 68 12V106.344L93.168 81.168A4 4 0 0 1 98.832 86.832L66.832 118.832A4 4 0 0 1 61.168 118.832L29.168 86.832A4 4 0 1 1 34.832 81.168L60 106.344V12A4 4 0 0 1 64 8z" />
    <glyph glyph-name="arrow-up-circle"
      unicode="&#xEA3A;"
      horiz-adv-x="128" d="M8 64A56 56 0 1 1 120 64A56 56 0 0 1 8 64zM128 64A64 64 0 1 0 0 64A64 64 0 0 0 128 64zM68 36A4 4 0 0 0 60 36V82.344L42.832 65.168A4 4 0 1 0 37.168 70.832L61.168 94.832A4 4 0 0 0 66.832 94.832L90.832 70.832A4 4 0 0 0 85.168 65.168L68 82.344V36z" />
    <glyph glyph-name="arrow-up-circle-fill"
      unicode="&#xEA3B;"
      horiz-adv-x="128" d="M128 64A64 64 0 1 1 0 64A64 64 0 0 1 128 64zM68 36A4 4 0 0 0 60 36V82.344L42.832 65.168A4 4 0 1 0 37.168 70.832L61.168 94.832A4 4 0 0 0 66.832 94.832L90.832 70.832A4 4 0 0 0 85.168 65.168L68 82.344V36z" />
    <glyph glyph-name="arrow-up-left"
      unicode="&#xEA3C;"
      horiz-adv-x="128" d="M15.9974735956797 108A4 4 0 0 0 19.9974735956797 112H67.9974735956797A4 4 0 0 0 67.9974735956797 104H29.6534735956797L110.8294735956797 22.832A4 4 0 0 0 105.1654735956797 17.168L23.9974735956797 98.344V60A4 4 0 0 0 15.9974735956797 60V108z" />
    <glyph glyph-name="arrow-up-left-circle"
      unicode="&#xEA3D;"
      horiz-adv-x="128" d="M8 64A56 56 0 1 1 120 64A56 56 0 0 1 8 64zM128 64A64 64 0 1 0 0 64A64 64 0 0 0 128 64zM80.768 41.576A4 4 0 1 1 86.424 47.232L53.656 80H75.8A4 4 0 1 1 75.8 88H44A4 4 0 0 1 40 84V52.2A4 4 0 0 1 48 52.2V74.344L80.768 41.576z" />
    <glyph glyph-name="arrow-up-left-circle-fill"
      unicode="&#xEA3E;"
      horiz-adv-x="128" d="M128 64A64 64 0 1 0 0 64A64 64 0 0 0 128 64zM80.768 41.576A4 4 0 1 1 86.424 47.232L53.656 80H75.8A4 4 0 1 1 75.8 88H44A4 4 0 0 1 40 84V52.2A4 4 0 0 1 48 52.2V74.344L80.768 41.576z" />
    <glyph glyph-name="arrow-up-left-square"
      unicode="&#xEA3F;"
      horiz-adv-x="128" d="M120 112A8 8 0 0 1 112 120H16A8 8 0 0 1 8 112V16A8 8 0 0 1 16 8H112A8 8 0 0 1 120 16V112zM0 112A16 16 0 0 0 16 128H112A16 16 0 0 0 128 112V16A16 16 0 0 0 112 0H16A16 16 0 0 0 0 16V112zM80.768 41.576A4 4 0 1 1 86.424 47.232L53.656 80H75.8A4 4 0 1 1 75.8 88H44A4 4 0 0 1 40 84V52.2A4 4 0 0 1 48 52.2V74.344L80.768 41.576z" />
    <glyph glyph-name="arrow-up-left-square-fill"
      unicode="&#xEA40;"
      horiz-adv-x="128" d="M16 128A16 16 0 0 1 0 112V16A16 16 0 0 1 16 0H112A16 16 0 0 1 128 16V112A16 16 0 0 1 112 128H16zM80.768 41.576L48 74.344V52.2A4 4 0 0 0 40 52.2V84A4 4 0 0 0 44 88H75.8A4 4 0 1 0 75.8 80H53.656L86.424 47.232A4 4 0 1 0 80.768 41.576z" />
    <glyph glyph-name="arrow-up-right"
      unicode="&#xEA41;"
      horiz-adv-x="128" d="M112.0025264043203 108A4 4 0 0 1 108.0025264043203 112H60.0025264043203A4 4 0 0 1 60.0025264043203 104H98.3465264043203L17.1705264043203 22.832A4 4 0 0 1 22.8345264043203 17.168L104.0025264043203 98.344V60A4 4 0 0 1 112.0025264043203 60V108z" />
    <glyph glyph-name="arrow-up-right-circle"
      unicode="&#xEA42;"
      horiz-adv-x="128" d="M8 64A56 56 0 1 1 120 64A56 56 0 0 1 8 64zM128 64A64 64 0 1 0 0 64A64 64 0 0 0 128 64zM46.832 41.576A4 4 0 1 0 41.168 47.232L73.944 80H51.8A4 4 0 1 0 51.8 88H83.6A4 4 0 0 0 87.6 84V52.2A4 4 0 1 0 79.6 52.2V74.344L46.832 41.576z" />
    <glyph glyph-name="arrow-up-right-circle-fill"
      unicode="&#xEA43;"
      horiz-adv-x="128" d="M0 64A64 64 0 1 1 128 64A64 64 0 0 1 0 64zM47.232 41.576A4 4 0 1 0 41.576 47.232L74.344 80H52.2A4 4 0 1 0 52.2 88H84A4 4 0 0 0 88 84V52.2A4 4 0 0 0 80 52.2V74.344L47.232 41.576z" />
    <glyph glyph-name="arrow-up-right-square"
      unicode="&#xEA44;"
      horiz-adv-x="128" d="M120 112A8 8 0 0 1 112 120H16A8 8 0 0 1 8 112V16A8 8 0 0 1 16 8H112A8 8 0 0 1 120 16V112zM0 112A16 16 0 0 0 16 128H112A16 16 0 0 0 128 112V16A16 16 0 0 0 112 0H16A16 16 0 0 0 0 16V112zM46.832 41.576A4 4 0 1 0 41.168 47.232L73.944 80H51.8A4 4 0 1 0 51.8 88H83.6A4 4 0 0 0 87.6 84V52.2A4 4 0 1 0 79.6 52.2V74.344L46.832 41.576z" />
    <glyph glyph-name="arrow-up-right-square-fill"
      unicode="&#xEA45;"
      horiz-adv-x="128" d="M112 128A16 16 0 0 0 128 112V16A16 16 0 0 0 112 0H16A16 16 0 0 0 0 16V112A16 16 0 0 0 16 128H112zM47.232 41.576L80 74.344V52.2A4 4 0 0 1 88 52.2V84A4 4 0 0 1 84 88H52.2A4 4 0 1 1 52.2 80H74.344L41.576 47.232A4 4 0 0 1 47.232 41.576z" />
    <glyph glyph-name="arrow-up-short"
      unicode="&#xEA46;"
      horiz-adv-x="128" d="M64 32A4 4 0 0 1 68 36V82.344L85.168 65.168A4 4 0 0 1 90.832 70.832L66.832 94.832A4 4 0 0 1 61.168 94.832L37.168 70.832A4 4 0 1 1 42.832 65.168L60 82.344V36A4 4 0 0 1 64 32z" />
    <glyph glyph-name="arrow-up-square"
      unicode="&#xEA47;"
      horiz-adv-x="128" d="M120 112A8 8 0 0 1 112 120H16A8 8 0 0 1 8 112V16A8 8 0 0 1 16 8H112A8 8 0 0 1 120 16V112zM0 112A16 16 0 0 0 16 128H112A16 16 0 0 0 128 112V16A16 16 0 0 0 112 0H16A16 16 0 0 0 0 16V112zM68 36A4 4 0 0 0 60 36V82.344L42.832 65.168A4 4 0 1 0 37.168 70.832L61.168 94.832A4 4 0 0 0 66.832 94.832L90.832 70.832A4 4 0 0 0 85.168 65.168L68 82.344V36z" />
    <glyph glyph-name="arrow-up-square-fill"
      unicode="&#xEA48;"
      horiz-adv-x="128" d="M16 0A16 16 0 0 0 0 16V112A16 16 0 0 0 16 128H112A16 16 0 0 0 128 112V16A16 16 0 0 0 112 0H16zM68 36V82.344L85.168 65.168A4 4 0 0 1 90.832 70.832L66.832 94.832A4 4 0 0 1 61.168 94.832L37.168 70.832A4 4 0 1 1 42.832 65.168L60 82.344V36A4 4 0 0 1 68 36z" />
    <glyph glyph-name="arrows-angle-contract"
      unicode="&#xEA49;"
      horiz-adv-x="128" d="M1.376 1.376A4 4 0 0 1 7.032 1.376L39.8 34.144V12A4 4 0 1 1 47.8 12V43.8A4 4 0 0 1 43.8 47.8H12A4 4 0 0 1 12 39.8H34.144L1.376 7.032A4 4 0 0 1 1.376 1.376zM126.624 126.624A4 4 0 0 1 120.968 126.624L88.2 93.856V116A4 4 0 1 1 80.2 116V84.2A4 4 0 0 1 84.2 80.2H116A4 4 0 0 1 116 88.2H93.856L126.624 120.968A4 4 0 0 1 126.624 126.624z" />
    <glyph glyph-name="arrows-angle-expand"
      unicode="&#xEA4A;"
      horiz-adv-x="128" d="M46.624 46.624A4 4 0 0 1 40.968 46.624L8.2 13.856V36A4 4 0 0 1 0.2 36V4.2A4 4 0 0 1 4.2 0.2H36A4 4 0 0 1 36 8.2H13.856L46.624 40.968A4 4 0 0 1 46.624 46.624zM81.376 81.376A4 4 0 0 1 87.032 81.376L119.8 114.144V92A4 4 0 1 1 127.8 92V123.8A4 4 0 0 1 123.8 127.8H92A4 4 0 0 1 92 119.8H114.144L81.376 87.032A4 4 0 0 1 81.376 81.376z" />
    <glyph glyph-name="arrows-collapse"
      unicode="&#xEA4B;"
      horiz-adv-x="128" d="M8 64A4 4 0 0 0 12 68H116A4 4 0 0 0 116 60H12A4 4 0 0 0 8 64zM64 128A4 4 0 0 0 68 124V93.656L77.168 102.832A4 4 0 0 0 82.832 97.168L66.832 81.168A4 4 0 0 0 61.168 81.168L45.168 97.168A4 4 0 1 0 50.832 102.832L60 93.656V124A4 4 0 0 0 64 128zM60 34.344L50.832 25.168A4 4 0 0 0 45.168 30.832L61.168 46.832A4 4 0 0 0 66.832 46.832L82.832 30.832A4 4 0 0 0 77.168 25.168L68 34.344V4A4 4 0 0 0 60 4V34.344z" />
    <glyph glyph-name="arrows-expand"
      unicode="&#xEA4C;"
      horiz-adv-x="128" d="M8 64A4 4 0 0 0 12 68H116A4 4 0 0 0 116 60H12A4 4 0 0 0 8 64zM61.168 126.832A4 4 0 0 0 66.832 126.832L82.832 110.832A4 4 0 0 0 77.168 105.168L68 114.344V84A4 4 0 0 0 60 84V114.344L50.832 105.168A4 4 0 1 0 45.168 110.832L61.168 126.832zM64 48A4 4 0 0 0 68 44V13.656L77.168 22.832A4 4 0 0 0 82.832 17.168L66.832 1.168A4 4 0 0 0 61.168 1.168L45.168 17.168A4 4 0 0 0 50.832 22.832L60 13.656V44A4 4 0 0 0 64 48z" />
    <glyph glyph-name="arrows-fullscreen"
      unicode="&#xEA4D;"
      horiz-adv-x="128" d="M46.624 46.624A4 4 0 0 1 40.968 46.624L8.2 13.856V36A4 4 0 0 1 0.2 36V4.2A4 4 0 0 1 4.2 0.2H36A4 4 0 0 1 36 8.2H13.856L46.624 40.968A4 4 0 0 1 46.624 46.624zM81.376 46.624A4 4 0 0 0 87.032 46.624L119.8 13.856V36A4 4 0 1 0 127.8 36V4.2A4 4 0 0 0 123.8 0.2H92A4 4 0 0 0 92 8.2H114.144L81.376 40.968A4 4 0 0 0 81.376 46.624zM81.376 81.376A4 4 0 0 1 87.032 81.376L119.8 114.144V92A4 4 0 1 1 127.8 92V123.8A4 4 0 0 1 123.8 127.8H92A4 4 0 0 1 92 119.8H114.144L81.376 87.032A4 4 0 0 1 81.376 81.376zM46.624 81.376A4 4 0 0 0 40.968 81.376L8.2 114.144V92A4 4 0 0 0 0.2 92V123.8A4 4 0 0 0 4.2 127.8H36A4 4 0 0 0 36 119.8H13.856L46.624 87.032A4 4 0 0 0 46.624 81.376z" />
    <glyph glyph-name="arrows-move"
      unicode="&#xEA4E;"
      horiz-adv-x="128" d="M61.168 126.832A4 4 0 0 0 66.832 126.832L82.832 110.832A4 4 0 0 0 77.168 105.168L68 114.344V84A4 4 0 0 0 60 84V114.344L50.832 105.168A4 4 0 1 0 45.168 110.832L61.168 126.832zM64 48A4 4 0 0 0 68 44V13.656L77.168 22.832A4 4 0 0 0 82.832 17.168L66.832 1.168A4 4 0 0 0 61.168 1.168L45.168 17.168A4 4 0 0 0 50.832 22.832L60 13.656V44A4 4 0 0 0 64 48zM1.168 61.168A4 4 0 0 0 1.168 66.832L17.168 82.832A4 4 0 1 0 22.832 77.168L13.656 68H44A4 4 0 0 0 44 60H13.656L22.832 50.832A4 4 0 0 0 17.168 45.168L1.168 61.168zM80 64A4 4 0 0 0 84 68H114.344L105.168 77.168A4 4 0 0 0 110.832 82.832L126.832 66.832A4 4 0 0 0 126.832 61.168L110.832 45.168A4 4 0 0 0 105.168 50.832L114.344 60H84A4 4 0 0 0 80 64z" />
    <glyph glyph-name="aspect-ratio"
      unicode="&#xEA4F;"
      horiz-adv-x="128" d="M0 100A12 12 0 0 0 12 112H116A12 12 0 0 0 128 100V28A12 12 0 0 0 116 16H12A12 12 0 0 0 0 28V100zM12 104A4 4 0 0 1 8 100V28A4 4 0 0 1 12 24H116A4 4 0 0 1 120 28V100A4 4 0 0 1 116 104H12zM16 92A4 4 0 0 0 20 96H44A4 4 0 0 0 44 88H24V68A4 4 0 0 0 16 68V92zM112 36A4 4 0 0 0 108 32H84A4 4 0 0 0 84 40H104V60A4 4 0 0 0 112 60V36z" />
    <glyph glyph-name="aspect-ratio-fill"
      unicode="&#xEA50;"
      horiz-adv-x="128" d="M0 28V100A12 12 0 0 0 12 112H116A12 12 0 0 0 128 100V28A12 12 0 0 0 116 16H12A12 12 0 0 0 0 28zM20 96A4 4 0 0 1 16 92V68A4 4 0 0 1 24 68V88H44A4 4 0 0 1 44 96H20zM108 32A4 4 0 0 1 112 36V60A4 4 0 0 1 104 60V40H84A4 4 0 0 1 84 32H108z" />
    <glyph glyph-name="asterisk"
      unicode="&#xEA51;"
      horiz-adv-x="128" d="M64 128A8 8 0 0 0 72 120V77.856L108.496 98.928A8 8 0 1 0 116.496 85.072L80 64L116.496 42.928A8 8 0 1 0 108.496 29.072L72 50.144V8A8 8 0 1 0 56 8V50.144L19.504 29.072A8 8 0 1 0 11.504 42.928L48 64L11.504 85.072A8 8 0 0 0 19.504 98.928L56 77.856V120A8 8 0 0 0 64 128z" />
    <glyph glyph-name="at"
      unicode="&#xEA52;"
      horiz-adv-x="128" d="M108.512 70.224C108.512 93.96 90.52 110.48 64.656 110.48C37.856 110.48 19.488 91.936 19.488 64.864C19.488 36.92 37.368 19.2 65.584 19.2C72.48 19.2 79.096 20.184 84.016 21.88V28.776C80.576 27.184 73.184 26.152 65.696 26.152C42.288 26.152 27.192 41.192 27.192 64.536C27.192 87.288 42.56 103.584 63.944 103.584C85.824 103.584 100.808 90.08 100.808 70.336C100.808 56.88 96.376 48.184 89.48 48.184C85.544 48.184 83.304 50.424 83.304 54.264V86.352H75.048V79.68H74.168C72.04 84.44 67.12 87.392 61.368 87.392C50.168 87.392 42.344 78.096 42.344 64.808C42.344 50.912 50 41.56 61.376 41.56C67.776 41.56 72.696 44.68 75.048 50.256H75.928C76.576 44.896 81.552 41.072 87.952 41.072C100.528 41.072 108.512 52.392 108.512 70.216zM51.096 64.592C51.096 74.168 55.416 79.848 62.744 79.848C70.184 79.848 74.936 73.944 74.936 64.592S70.128 49.28 62.632 49.28C55.472 49.28 51.096 55.08 51.096 64.592z" />
    <glyph glyph-name="award"
      unicode="&#xEA53;"
      horiz-adv-x="128" d="M77.352 121.088L64 128L50.648 121.088L35.784 118.832L29.048 105.392L18.352 94.832L20.8 80L18.352 65.168L29.048 54.608L35.784 41.168L50.648 38.912L64 32L77.352 38.912L92.216 41.168L98.952 54.608L109.648 65.168L107.2 80L109.648 94.832L98.952 105.392L92.216 118.832L77.352 121.088zM86.92 111.544L92.392 100.624L101.08 92.048L99.096 80L101.08 67.952L92.392 59.376L86.92 48.456L74.84 46.624L64 41.008L53.16 46.624L41.08 48.456L35.608 59.376L26.92 67.952L28.912 80L26.912 92.048L35.608 100.624L41.08 111.544L53.16 113.376L64 118.992L74.848 113.376L86.92 111.544zM32 33.648V0L64 8L96 0V33.648L79.856 31.2L64 22.992L48.144 31.2L32 33.648z" />
    <glyph glyph-name="award-fill"
      unicode="&#xEA54;"
      horiz-adv-x="128" d="M64 128L77.352 121.088L92.216 118.832L98.952 105.392L109.648 94.832L107.2 80L109.648 65.168L98.952 54.608L92.216 41.168L77.352 38.912L64 32L50.648 38.912L35.784 41.168L29.048 54.608L18.352 65.168L20.8 80L18.352 94.832L29.048 105.392L35.784 118.832L50.648 121.088L64 128zM32 33.648V0L64 8L96 0V33.648L79.856 31.2L64 22.992L48.144 31.2L32 33.648z" />
    <glyph glyph-name="back"
      unicode="&#xEA55;"
      horiz-adv-x="128" d="M0 112A16 16 0 0 0 16 128H80A16 16 0 0 0 96 112V96H112A16 16 0 0 0 128 80V16A16 16 0 0 0 112 0H48A16 16 0 0 0 32 16V32H16A16 16 0 0 0 0 48V112zM16 120A8 8 0 0 1 8 112V48A8 8 0 0 1 16 40H80A8 8 0 0 1 88 48V112A8 8 0 0 1 80 120H16z" />
    <glyph glyph-name="backspace"
      unicode="&#xEA56;"
      horiz-adv-x="128" d="M47.9076890804794 86.832A4 4 0 0 1 47.9076890804794 81.168L65.0676890804794 64L47.8916890804794 46.832A4 4 0 0 1 53.5476890804794 41.168L70.7236890804794 58.344L87.8916890804794 41.168A4 4 0 0 1 93.5476890804794 46.832L76.3876890804794 64L93.5556890804794 81.168A4 4 0 0 1 87.8996890804794 86.832L70.7316890804794 69.656L53.5556890804794 86.832A4 4 0 0 1 47.8996890804794 86.832zM110.7316890804794 120A16 16 0 0 0 126.7316890804794 104V24A16 16 0 0 0 110.7316890804794 8H54.0916890804794A16 16 0 0 0 41.9396890804794 13.584L3.1956890804794 58.8A8 8 0 0 0 3.1956890804794 69.216L41.9396890804794 114.4A16 16 0 0 0 54.0916890804794 120H110.7316890804794zM54.0916890804794 112A8 8 0 0 1 48.0116890804794 109.2L9.2676890804794 64L48.0196890804794 18.8A8 8 0 0 1 54.0916890804794 16H110.7316890804794A8 8 0 0 1 118.7316890804794 24V104A8 8 0 0 1 110.7316890804794 112H54.0916890804794z" />
    <glyph glyph-name="backspace-fill"
      unicode="&#xEA57;"
      horiz-adv-x="128" d="M126.7316890804794 104A16 16 0 0 1 110.7316890804794 120H54.0916890804794A16 16 0 0 1 41.9396890804794 114.416L3.1956890804794 69.2A8 8 0 0 1 3.1956890804794 58.784L41.9396890804794 13.584A16 16 0 0 1 54.0916890804794 8H110.7316890804794A16 16 0 0 1 126.7316890804794 24V104zM47.8996890804794 81.168A4 4 0 1 0 53.5556890804794 86.832L70.7316890804794 69.656L87.8996890804794 86.832A4 4 0 1 0 93.5556890804794 81.168L76.3876890804794 64L93.5556890804794 46.832A4 4 0 0 0 87.8996890804794 41.168L70.7316890804794 58.344L53.5556890804794 41.168A4 4 0 0 0 47.8996890804794 46.832L65.0756890804794 64L47.8996890804794 81.168z" />
    <glyph glyph-name="backspace-reverse"
      unicode="&#xEA58;"
      horiz-adv-x="128" d="M80.1003109195206 86.832A4 4 0 0 0 80.1003109195206 81.168L62.9243109195206 64L80.1003109195206 46.832A4 4 0 0 0 74.4363109195206 41.168L57.2683109195206 58.344L40.1003109195206 41.168A4 4 0 0 0 34.4363109195206 46.832L51.6123109195206 64L34.4363109195206 81.168A4 4 0 1 0 40.1003109195206 86.832L57.2683109195206 69.656L74.4363109195206 86.832A4 4 0 0 0 80.1003109195206 86.832zM17.2683109195206 120A16 16 0 0 1 1.2683109195206 104V24A16 16 0 0 1 17.2683109195206 8H73.9083109195206A16 16 0 0 1 86.0603109195206 13.584L124.8043109195206 58.792A8 8 0 0 1 124.8043109195206 69.208L86.0683109195206 114.4A16 16 0 0 1 73.9083109195206 120H17.2683109195206zM73.9083109195206 112A8 8 0 0 0 79.9883109195206 109.2L118.7243109195206 64L79.9723109195206 18.8A8 8 0 0 0 73.9003109195206 16H17.2683109195206A8 8 0 0 0 9.2683109195206 24V104A8 8 0 0 0 17.2683109195206 112H73.9083109195206z" />
    <glyph glyph-name="backspace-reverse-fill"
      unicode="&#xEA59;"
      horiz-adv-x="128" d="M1.2683109195206 104A16 16 0 0 0 17.2683109195206 120H73.9083109195206A16 16 0 0 0 86.0603109195206 114.416L124.8043109195206 69.208A8 8 0 0 0 124.8043109195206 58.792L86.0683109195206 13.6A16 16 0 0 0 73.9083109195206 8H17.2683109195206A16 16 0 0 0 1.2683109195206 24V104zM80.1003109195206 81.168A4 4 0 0 1 74.4363109195206 86.832L57.2683109195206 69.656L40.1003109195206 86.832A4 4 0 1 1 34.4363109195206 81.168L51.6123109195206 64L34.4363109195206 46.832A4 4 0 0 1 40.1003109195206 41.168L57.2683109195206 58.344L74.4363109195206 41.168A4 4 0 0 1 80.1003109195206 46.832L62.9243109195206 64L80.1003109195206 81.168z" />
    <glyph glyph-name="badge-3d"
      unicode="&#xEA5A;"
      horiz-adv-x="128" d="M36.16 61.056H41.472C46.64 61.056 49.912 58.032 49.952 53.856C50.016 49.56 46.536 46.504 41.264 46.504C36.48 46.536 32.968 49.104 32.72 52.552H24C24.24 45.24 30.328 39.048 41.224 39.048C51.144 39.048 59.504 44.328 59.4 53.432C59.296 61.056 53.424 64.472 49.064 64.888V65.384C52.584 65.944 58.064 69.6 57.928 76.384C57.824 83.632 51.528 88.944 41.504 88.904C31.024 88.864 25.16 83.032 24.912 75.544H33.736C33.912 78.672 36.8 81.552 41.224 81.552C45.48 81.552 48.648 78.912 48.648 75.048C48.68 71.216 45.584 68.368 41.224 68.368H36.168V61.056zM65.008 87.992V40H82.52C97 40 104 48.856 104 64.12C104 79.272 97.112 87.992 82.52 87.992H65.008zM74.504 80.256H81.256C90.152 80.256 94.224 74.768 94.224 63.936C94.224 53.112 90.184 47.776 81.256 47.776H74.504V80.256zM112 104A8 8 0 0 0 120 96V32A8 8 0 0 0 112 24H16A8 8 0 0 0 8 32V96A8 8 0 0 0 16 104H112zM16 112A16 16 0 0 1 0 96V32A16 16 0 0 1 16 16H112A16 16 0 0 1 128 32V96A16 16 0 0 1 112 112H16z" />
    <glyph glyph-name="badge-3d-fill"
      unicode="&#xEA5B;"
      horiz-adv-x="128" d="M81.256 80.256H74.504V47.776H81.256C90.184 47.776 94.224 53.112 94.224 63.936C94.224 74.768 90.144 80.256 81.256 80.256zM0 96A16 16 0 0 0 16 112H112A16 16 0 0 0 128 96V32A16 16 0 0 0 112 16H16A16 16 0 0 0 0 32V96zM41.472 61.056C46.64 61.056 49.912 58.032 49.952 53.856C50.016 49.56 46.536 46.504 41.264 46.504C36.48 46.536 32.968 49.104 32.72 52.552H24C24.24 45.24 30.328 39.048 41.224 39.048C51.144 39.048 59.504 44.328 59.4 53.432C59.296 61.056 53.424 64.472 49.064 64.888V65.384C52.584 65.944 58.064 69.6 57.928 76.384C57.824 83.632 51.528 88.944 41.504 88.904C31.024 88.864 25.16 83.032 24.912 75.544H33.736C33.912 78.672 36.8 81.552 41.224 81.552C45.48 81.552 48.648 78.912 48.648 75.048C48.68 71.216 45.584 68.368 41.224 68.368H36.168V61.056H41.472zM65.008 40H82.52C97 40 104 48.856 104 64.12C104 79.272 97.112 87.992 82.52 87.992H65.008V40z" />
    <glyph glyph-name="badge-4k"
      unicode="&#xEA5C;"
      horiz-adv-x="128" d="M38.456 87.992C32.168 77.616 25.624 67.2 20 56.664V48.896H43.24V40H52.136V48.896H58V56.56H52.136V87.992H38.456zM28.616 56.552V56.808A374.248 374.248 0 0 0 42.744 80.816H43.24V56.56H28.616zM107.264 87.992H96.816L78.68 66.504H78.224V88H68.72V40H78.216V55.4L83.136 60.992L96.576 40H108L90.144 67.32L107.264 87.992zM112 104A8 8 0 0 0 120 96V32A8 8 0 0 0 112 24H16A8 8 0 0 0 8 32V96A8 8 0 0 0 16 104H112zM16 112A16 16 0 0 1 0 96V32A16 16 0 0 1 16 16H112A16 16 0 0 1 128 32V96A16 16 0 0 1 112 112H16z" />
    <glyph glyph-name="badge-4k-fill"
      unicode="&#xEA5D;"
      horiz-adv-x="128" d="M28.616 56.8V56.56H43.24V80.816H42.744A374.248 374.248 0 0 1 28.616 56.808zM16 112A16 16 0 0 1 0 96V32A16 16 0 0 1 16 16H112A16 16 0 0 1 128 32V96A16 16 0 0 1 112 112H16zM34.976 82.28L38.456 87.992H52.136V56.552H58V48.896H52.136V40H43.24V48.896H20V56.664C24.592 65.28 29.8 73.8 34.976 82.28zM96.816 87.992H107.264L90.144 67.32L108 40H96.576L83.144 60.992L78.224 55.392V40H68.72V87.992H78.216V66.504H78.672L96.816 88z" />
    <glyph glyph-name="badge-8k"
      unicode="&#xEA5E;"
      horiz-adv-x="128" d="M38.696 39.088C49.944 39.088 57.36 44.888 57.36 53.216C57.36 60.776 51.664 64.256 47.312 65.136V65.56C51.28 66.76 55.472 69.96 55.472 76.208C55.472 83.52 48.824 88.904 38.8 88.904C28.744 88.904 22.104 83.52 22.104 76.208C22.104 70.024 26.184 66.792 30.264 65.56V65.136C25.896 64.256 20.2 60.816 20.2 53.184C20.2 44.848 27.448 39.088 38.696 39.088zM38.8 68.232C34.44 68.232 31.2 71.08 31.2 75.16S34.44 81.976 38.8 81.976C43.16 81.976 46.36 79.232 46.36 75.16C46.36 71.08 43.16 68.232 38.8 68.232zM38.8 45.944C33.6 45.944 29.664 49.104 29.664 53.816S33.6 61.76 38.8 61.76C43.968 61.76 47.944 58.528 47.944 53.816S43.968 45.944 38.8 45.944zM107.264 88H96.816L78.68 66.52H78.224V88H68.72V40.016H78.216V55.4L83.136 60.992L96.568 40.008H108L90.144 67.32L107.264 88zM112 104A8 8 0 0 0 120 96V32A8 8 0 0 0 112 24H16A8 8 0 0 0 8 32V96A8 8 0 0 0 16 104H112zM16 112A16 16 0 0 1 0 96V32A16 16 0 0 1 16 16H112A16 16 0 0 1 128 32V96A16 16 0 0 1 112 112H16z" />
    <glyph glyph-name="badge-8k-fill"
      unicode="&#xEA5F;"
      horiz-adv-x="128" d="M31.2 75.16C31.2 71.08 34.44 68.232 38.8 68.232C43.16 68.232 46.36 71.08 46.36 75.16S43.16 81.976 38.8 81.976C34.44 81.976 31.2 79.232 31.2 75.16zM29.664 53.816C29.664 49.104 33.6 45.944 38.8 45.944C43.968 45.944 47.944 49.104 47.944 53.816S43.968 61.76 38.8 61.76C33.6 61.76 29.664 58.528 29.664 53.816zM16 112A16 16 0 0 1 0 96V32A16 16 0 0 1 16 16H112A16 16 0 0 1 128 32V96A16 16 0 0 1 112 112H16zM57.36 53.216C57.36 44.888 49.944 39.088 38.696 39.088C27.448 39.088 20.2 44.848 20.2 53.184C20.2 60.816 25.896 64.256 30.256 65.136V65.56C26.176 66.792 22.096 70.024 22.096 76.208C22.096 83.52 28.744 88.904 38.8 88.904C48.824 88.904 55.464 83.52 55.464 76.208C55.464 69.952 51.28 66.752 47.304 65.56V65.136C51.664 64.256 57.36 60.776 57.36 53.216zM96.816 88H107.264L90.144 67.328L108 40.008H96.576L83.144 61L78.224 55.408V40.008H68.72V88H78.216V66.52H78.672L96.816 88z" />
    <glyph glyph-name="badge-ad"
      unicode="&#xEA60;"
      horiz-adv-x="128" d="M29.6 40L33.36 52.336H49.392L53.152 40H63.24L47.208 87.992H36.104L20 40H29.6zM41.624 78.816L47.496 59.408H35.328L41.2 78.816H41.624zM79.696 77.792C71.224 77.792 65.672 71.672 65.672 61.448V55.888C65.672 45.656 71.152 39.544 79.592 39.544C85.008 39.544 89.368 42.184 90.528 45.976H90.984V40H100.088V90.52H90.808V71.64H90.384C88.944 75.44 84.944 77.8 79.696 77.8zM82.792 70.408C87.432 70.408 90.808 66.888 90.808 61.304V56.488C90.808 50.408 87.64 46.888 82.936 46.888C78.152 46.888 75.16 50.48 75.16 56.872V60.496C75.16 66.856 78.12 70.416 82.792 70.416zM112 104A8 8 0 0 0 120 96V32A8 8 0 0 0 112 24H16A8 8 0 0 0 8 32V96A8 8 0 0 0 16 104H112zM16 112A16 16 0 0 1 0 96V32A16 16 0 0 1 16 16H112A16 16 0 0 1 128 32V96A16 16 0 0 1 112 112H16z" />
    <glyph glyph-name="badge-ad-fill"
      unicode="&#xEA61;"
      horiz-adv-x="128" d="M90.8 61.304C90.8 66.896 87.44 70.408 82.792 70.408C78.12 70.408 75.16 66.856 75.16 60.496V56.872C75.16 50.472 78.152 46.888 82.936 46.888C87.64 46.888 90.808 50.408 90.808 56.488V61.304zM47.496 59.408L41.624 78.816H41.2L35.328 59.408H47.488zM16 112A16 16 0 0 1 0 96V32A16 16 0 0 1 16 16H112A16 16 0 0 1 128 32V96A16 16 0 0 1 112 112H16zM65.672 61.44C65.672 71.68 71.224 77.792 79.696 77.792C84.936 77.792 88.944 75.44 90.384 71.64H90.808V90.52H100.088V40H90.984V45.976H90.528C89.368 42.184 85.008 39.544 79.592 39.544C71.152 39.544 65.672 45.656 65.672 55.888V61.448zM33.352 52.336L29.6 40H20L36.104 87.992H47.2L63.24 40H53.152L49.392 52.336H33.36z" />
    <glyph glyph-name="badge-ar"
      unicode="&#xEA62;"
      horiz-adv-x="128" d="M30.352 40L34.112 52.336H50.16L53.912 40H64L47.968 87.992H36.856L20.76 40H30.36zM42.376 78.816L48.248 59.408H36.088L41.96 78.816H42.376zM87.16 87.992H68V40H77.384V57.896H85.896L94.296 40H104.912L95.28 59.336C99.64 61.016 104 65.768 104 72.8C104 81.976 97.816 88 87.16 88zM77.384 65.032V80.536H85.784C90.824 80.536 94.184 77.76 94.184 72.624C94.184 67.56 90.92 65.024 85.648 65.024H77.384zM112 104A8 8 0 0 0 120 96V32A8 8 0 0 0 112 24H16A8 8 0 0 0 8 32V96A8 8 0 0 0 16 104H112zM16 112A16 16 0 0 1 0 96V32A16 16 0 0 1 16 16H112A16 16 0 0 1 128 32V96A16 16 0 0 1 112 112H16z" />
    <glyph glyph-name="badge-ar-fill"
      unicode="&#xEA63;"
      horiz-adv-x="128" d="M48.248 59.408L42.376 78.816H41.96L36.08 59.408H48.24zM77.384 80.536V65.032H85.648C90.928 65.032 94.192 67.56 94.192 72.632C94.192 77.752 90.816 80.536 85.792 80.536H77.392zM0 96A16 16 0 0 0 16 112H112A16 16 0 0 0 128 96V32A16 16 0 0 0 112 16H16A16 16 0 0 0 0 32V96zM34.12 52.336H50.152L53.912 40H64L47.968 87.992H36.856L20.76 40H30.36L34.12 52.336zM68 88V40H77.384V57.896H85.896L94.296 40H104.912L95.28 59.336C99.64 61.016 104 65.768 104 72.8C104 81.976 97.816 88 87.16 88H68z" />
    <glyph glyph-name="badge-cc"
      unicode="&#xEA64;"
      horiz-adv-x="128" d="M29.664 65.96C29.664 74.848 33.568 79.984 40.216 79.984C45.664 79.984 49.32 76.224 49.704 71.128H58.88V72C58.464 81.488 50.688 88 40.144 88C27.312 88 20 79.6 20 65.992V60.016C20 46.416 27.24 38.176 40.144 38.176C50.656 38.176 58.424 44.512 58.88 53.688V54.6H49.704C49.32 49.68 45.736 46.2 40.216 46.2C33.496 46.2 29.664 51.16 29.664 60.016V65.96zM78.784 65.96C78.784 74.848 82.688 79.984 89.328 79.984C94.784 79.984 98.44 76.224 98.824 71.128H108V72C107.576 81.488 99.808 88 89.264 88C76.432 88 69.12 79.6 69.12 65.992V60.016C69.12 46.416 76.36 38.176 89.264 38.176C99.776 38.176 107.544 44.512 108 53.688V54.6H98.824C98.44 49.68 94.848 46.2 89.328 46.2C82.616 46.2 78.784 51.16 78.784 60.016V65.96zM112 104A8 8 0 0 0 120 96V32A8 8 0 0 0 112 24H16A8 8 0 0 0 8 32V96A8 8 0 0 0 16 104H112zM16 112A16 16 0 0 1 0 96V32A16 16 0 0 1 16 16H112A16 16 0 0 1 128 32V96A16 16 0 0 1 112 112H16z" />
    <glyph glyph-name="badge-cc-fill"
      unicode="&#xEA65;"
      horiz-adv-x="128" d="M16 112A16 16 0 0 1 0 96V32A16 16 0 0 1 16 16H112A16 16 0 0 1 128 32V96A16 16 0 0 1 112 112H16zM40.216 79.984C33.576 79.984 29.664 74.848 29.664 65.96V60.016C29.664 51.16 33.504 46.2 40.216 46.2C45.736 46.2 49.32 49.68 49.704 54.6H58.88V53.688C58.424 44.512 50.656 38.184 40.144 38.184C27.24 38.184 20 46.408 20 60.016V65.992C20 79.592 27.312 88 40.144 88C50.688 88 58.464 81.496 58.88 72V71.12H49.704C49.32 76.224 45.664 79.984 40.216 79.984zM89.336 79.984C82.688 79.984 78.784 74.848 78.784 65.96V60.016C78.784 51.16 82.624 46.2 89.328 46.2C94.848 46.2 98.44 49.68 98.824 54.6H108V53.688C107.544 44.512 99.776 38.184 89.264 38.184C76.36 38.184 69.12 46.408 69.12 60.016V65.992C69.12 79.592 76.432 88 89.264 88C99.808 88 107.584 81.496 108 72V71.12H98.824C98.44 76.224 94.784 79.984 89.328 79.984z" />
    <glyph glyph-name="badge-hd"
      unicode="&#xEA66;"
      horiz-adv-x="128" d="M59.168 40V87.992H49.672V68.472H29.496V88H20V40H29.496V60.56H49.672V40H59.168zM68 87.992V40H85.504C99.992 40 106.984 48.856 106.984 64.12C106.984 79.272 100.104 87.992 85.512 87.992H68zM77.496 80.256H84.24C93.136 80.256 97.216 74.768 97.216 63.936C97.216 53.112 93.176 47.776 84.24 47.776H77.496V80.256zM112 104A8 8 0 0 0 120 96V32A8 8 0 0 0 112 24H16A8 8 0 0 0 8 32V96A8 8 0 0 0 16 104H112zM16 112A16 16 0 0 1 0 96V32A16 16 0 0 1 16 16H112A16 16 0 0 1 128 32V96A16 16 0 0 1 112 112H16z" />
    <glyph glyph-name="badge-hd-fill"
      unicode="&#xEA67;"
      horiz-adv-x="128" d="M84.24 80.256H77.496V47.776H84.24C93.176 47.776 97.216 53.112 97.216 63.936C97.216 74.768 93.136 80.256 84.24 80.256zM16 112A16 16 0 0 1 0 96V32A16 16 0 0 1 16 16H112A16 16 0 0 1 128 32V96A16 16 0 0 1 112 112H16zM59.168 87.992V40H49.672V60.56H29.496V40H20V87.992H29.496V68.472H49.672V88H59.168zM68 40V87.992H85.504C100.096 87.992 106.984 79.272 106.984 64.12C106.984 48.856 100 40 85.52 40H68z" />
    <glyph glyph-name="badge-tm"
      unicode="&#xEA68;"
      horiz-adv-x="128" d="M42.36 40V80.04H56V88H19.224V80.048H32.832V40H42.352zM69.536 40V71.92H70L81.424 46.008H87.608L98.968 71.928H99.424V40H108V87.992H98.4L84.72 56.84H84.408L70.728 87.992H61.072V40H69.552zM112 104A8 8 0 0 0 120 96V32A8 8 0 0 0 112 24H16A8 8 0 0 0 8 32V96A8 8 0 0 0 16 104H112zM16 112A16 16 0 0 1 0 96V32A16 16 0 0 1 16 16H112A16 16 0 0 1 128 32V96A16 16 0 0 1 112 112H16z" />
    <glyph glyph-name="badge-tm-fill"
      unicode="&#xEA69;"
      horiz-adv-x="128" d="M16 112A16 16 0 0 1 0 96V32A16 16 0 0 1 16 16H112A16 16 0 0 1 128 32V96A16 16 0 0 1 112 112H16zM42.36 80.04V40H32.832V80.04H19.232V88H56V80.048H42.36zM69.536 71.92V40H61.064V87.992H70.736L84.416 56.84H84.728L98.408 87.992H108V40H99.424V71.92H98.968L87.608 46.008H81.424L70 71.936H69.536z" />
    <glyph glyph-name="badge-vo"
      unicode="&#xEA6A;"
      horiz-adv-x="128" d="M36.064 40H47.496L63.416 87.992H52.88L42.216 50.336H41.76L31 87.992H20L36.064 40zM108 60.88V67.04C108 80.608 100.304 88.904 87.472 88.904C74.64 88.904 66.904 80.672 66.904 67.032V60.88C66.904 47.352 74.64 39.088 87.464 39.088C100.304 39.088 108 47.352 108 60.88zM98.368 67.104V60.848C98.368 51.6 93.8 46.992 87.472 46.992C81.104 46.992 76.568 51.6 76.568 60.848V67.104C76.568 76.352 81.104 80.992 87.472 80.992C93.792 80.992 98.368 76.352 98.368 67.104zM112 104A8 8 0 0 0 120 96V32A8 8 0 0 0 112 24H16A8 8 0 0 0 8 32V96A8 8 0 0 0 16 104H112zM16 112A16 16 0 0 1 0 96V32A16 16 0 0 1 16 16H112A16 16 0 0 1 128 32V96A16 16 0 0 1 112 112H16z" />
    <glyph glyph-name="badge-vo-fill"
      unicode="&#xEA6B;"
      horiz-adv-x="128" d="M98.368 60.848V67.104C98.368 76.352 93.8 80.992 87.472 80.992C81.104 80.992 76.568 76.352 76.568 67.104V60.848C76.568 51.6 81.104 46.992 87.472 46.992C93.792 46.992 98.368 51.6 98.368 60.848zM16 112A16 16 0 0 1 0 96V32A16 16 0 0 1 16 16H112A16 16 0 0 1 128 32V96A16 16 0 0 1 112 112H16zM108 67.04V60.88C108 47.352 100.304 39.088 87.472 39.088C74.64 39.088 66.904 47.352 66.904 60.88V67.04C66.904 80.672 74.64 88.904 87.464 88.904C100.304 88.904 108 80.608 108 67.032zM47.496 40H36.064L20 87.992H31L41.76 50.336H42.216L52.88 87.992H63.424L47.496 40z" />
    <glyph glyph-name="badge-vr"
      unicode="&#xEA6C;"
      horiz-adv-x="128" d="M112 104A8 8 0 0 0 120 96V32A8 8 0 0 0 112 24H16A8 8 0 0 0 8 32V96A8 8 0 0 0 16 104H112zM16 112A16 16 0 0 1 0 96V32A16 16 0 0 1 16 16H112A16 16 0 0 1 128 32V96A16 16 0 0 1 112 112H16zM36.064 40H47.496L63.416 87.992H52.88L42.216 50.336H41.76L31 87.992H20L36.064 40zM87.16 87.992H68V40H77.384V57.896H85.896L94.296 40H104.912L95.28 59.336C99.64 61.016 104 65.768 104 72.8C104 81.976 97.816 88 87.16 88zM77.384 65.032V80.536H85.784C90.824 80.536 94.184 77.76 94.184 72.624C94.184 67.56 90.92 65.024 85.648 65.024H77.384z" />
    <glyph glyph-name="badge-vr-fill"
      unicode="&#xEA6D;"
      horiz-adv-x="128" d="M77.384 80.536V65.032H85.648C90.928 65.032 94.192 67.56 94.192 72.632C94.192 77.752 90.816 80.536 85.792 80.536H77.392zM0 96A16 16 0 0 0 16 112H112A16 16 0 0 0 128 96V32A16 16 0 0 0 112 16H16A16 16 0 0 0 0 32V96zM47.496 40L63.416 87.992H52.88L42.216 50.336H41.76L31 87.992H20L36.064 40H47.496zM68 87.992V40H77.384V57.896H85.896L94.296 40H104.912L95.28 59.336C99.64 61.016 104 65.768 104 72.8C104 81.976 97.816 88 87.16 88H68z" />
    <glyph glyph-name="badge-wc"
      unicode="&#xEA6E;"
      horiz-adv-x="128" d="M82.784 66.856C82.784 75.752 86.688 80.888 93.328 80.888C98.784 80.888 102.44 77.128 102.824 72.024H112V72.904C111.576 82.4 103.808 88.904 93.264 88.904C80.432 88.904 73.12 80.504 73.12 66.896V60.92C73.12 47.32 80.36 39.08 93.264 39.08C103.776 39.08 111.544 45.416 112 54.592V55.504H102.824C102.44 50.584 98.848 47.104 93.328 47.104C86.616 47.104 82.784 52.064 82.784 60.92V66.856zM35.656 40L43.816 73.472H44.176L52.336 40H60.384L72 87.992H62.544L55.984 53.152H55.536L47.76 87.992H40.24L32.464 53.152H32.04L25.424 87.992H16L27.616 40H35.656zM112 104A8 8 0 0 0 120 96V32A8 8 0 0 0 112 24H16A8 8 0 0 0 8 32V96A8 8 0 0 0 16 104H112zM16 112A16 16 0 0 1 0 96V32A16 16 0 0 1 16 16H112A16 16 0 0 1 128 32V96A16 16 0 0 1 112 112H16z" />
    <glyph glyph-name="badge-wc-fill"
      unicode="&#xEA6F;"
      horiz-adv-x="128" d="M0 96A16 16 0 0 0 16 112H112A16 16 0 0 0 128 96V32A16 16 0 0 0 112 16H16A16 16 0 0 0 0 32V96zM93.328 80.88C98.784 80.88 102.44 77.12 102.824 72.024H112V72.904C111.576 82.4 103.808 88.904 93.264 88.904C80.432 88.904 73.12 80.504 73.12 66.896V60.92C73.12 47.32 80.36 39.08 93.264 39.08C103.776 39.08 111.544 45.416 112 54.592V55.504H102.824C102.44 50.584 98.848 47.104 93.328 47.104C86.616 47.104 82.784 52.064 82.784 60.92V66.856C82.784 75.752 86.688 80.888 93.328 80.888zM43.824 73.472H44.176L52.336 40H60.384L72 87.992H62.544L55.984 53.152H55.536L47.76 87.992H40.24L32.464 53.152H32.04L25.424 87.992H16L27.616 40H35.656L43.816 73.472z" />
    <glyph glyph-name="bag"
      unicode="&#xEA70;"
      horiz-adv-x="128" d="M64 120A20 20 0 0 0 84 100V96H44V100A20 20 0 0 0 64 120zM92 96V100A28 28 0 1 1 36 100V96H8V16A16 16 0 0 1 24 0H104A16 16 0 0 1 120 16V96H92zM16 88H112V16A8 8 0 0 0 104 8H24A8 8 0 0 0 16 16V88z" />
    <glyph glyph-name="bag-check"
      unicode="&#xEA71;"
      horiz-adv-x="128" d="M86.832 62.832A4 4 0 0 0 86.832 57.168L62.832 33.168A4 4 0 0 0 57.168 33.168L45.168 45.168A4 4 0 0 0 50.832 50.832L60 41.656L81.168 62.832A4 4 0 0 0 86.832 62.832zM64 120A20 20 0 0 0 84 100V96H44V100A20 20 0 0 0 64 120zM92 96V100A28 28 0 1 1 36 100V96H8V16A16 16 0 0 1 24 0H104A16 16 0 0 1 120 16V96H92zM16 88H112V16A8 8 0 0 0 104 8H24A8 8 0 0 0 16 16V88z" />
    <glyph glyph-name="bag-check-fill"
      unicode="&#xEA72;"
      horiz-adv-x="128" d="M84 100A20 20 0 0 1 44 100V96H84V100zM92 100V96H120V16A16 16 0 0 0 104 0H24A16 16 0 0 0 8 16V96H36V100A28 28 0 1 0 92 100zM86.832 57.168A4 4 0 0 1 81.168 62.832L60 41.656L50.832 50.832A4 4 0 1 1 45.168 45.168L57.168 33.168A4 4 0 0 1 62.832 33.168L86.832 57.168z" />
    <glyph glyph-name="bag-dash"
      unicode="&#xEA73;"
      horiz-adv-x="128" d="M44 48A4 4 0 0 0 48 52H80A4 4 0 0 0 80 44H48A4 4 0 0 0 44 48zM64 120A20 20 0 0 0 84 100V96H44V100A20 20 0 0 0 64 120zM92 96V100A28 28 0 1 1 36 100V96H8V16A16 16 0 0 1 24 0H104A16 16 0 0 1 120 16V96H92zM16 88H112V16A8 8 0 0 0 104 8H24A8 8 0 0 0 16 16V88z" />
    <glyph glyph-name="bag-dash-fill"
      unicode="&#xEA74;"
      horiz-adv-x="128" d="M84 100A20 20 0 0 1 44 100V96H84V100zM92 100V96H120V16A16 16 0 0 0 104 0H24A16 16 0 0 0 8 16V96H36V100A28 28 0 1 0 92 100zM48 52A4 4 0 0 1 48 44H80A4 4 0 0 1 80 52H48z" />
    <glyph glyph-name="bag-fill"
      unicode="&#xEA75;"
      horiz-adv-x="128" d="M64 120A20 20 0 0 0 84 100V96H44V100A20 20 0 0 0 64 120zM92 96V100A28 28 0 1 1 36 100V96H8V16A16 16 0 0 1 24 0H104A16 16 0 0 1 120 16V96H92z" />
    <glyph glyph-name="bag-plus"
      unicode="&#xEA76;"
      horiz-adv-x="128" d="M64 68A4 4 0 0 0 68 64V52H80A4 4 0 0 0 80 44H68V32A4 4 0 0 0 60 32V44H48A4 4 0 0 0 48 52H60V64A4 4 0 0 0 64 68zM64 120A20 20 0 0 0 84 100V96H44V100A20 20 0 0 0 64 120zM92 96V100A28 28 0 1 1 36 100V96H8V16A16 16 0 0 1 24 0H104A16 16 0 0 1 120 16V96H92zM16 88H112V16A8 8 0 0 0 104 8H24A8 8 0 0 0 16 16V88z" />
    <glyph glyph-name="bag-plus-fill"
      unicode="&#xEA77;"
      horiz-adv-x="128" d="M84 100A20 20 0 0 1 44 100V96H84V100zM92 100V96H120V16A16 16 0 0 0 104 0H24A16 16 0 0 0 8 16V96H36V100A28 28 0 1 0 92 100zM68 64A4 4 0 0 1 60 64V52H48A4 4 0 0 1 48 44H60V32A4 4 0 0 1 68 32V44H80A4 4 0 0 1 80 52H68V64z" />
    <glyph glyph-name="bag-x"
      unicode="&#xEA78;"
      horiz-adv-x="128" d="M49.168 62.832A4 4 0 0 0 54.832 62.832L64 53.656L73.168 62.832A4 4 0 1 0 78.832 57.168L69.656 48L78.832 38.832A4 4 0 0 0 73.168 33.168L64 42.344L54.832 33.168A4 4 0 0 0 49.168 38.832L58.344 48L49.168 57.168A4 4 0 0 0 49.168 62.832zM64 120A20 20 0 0 0 84 100V96H44V100A20 20 0 0 0 64 120zM92 96V100A28 28 0 1 1 36 100V96H8V16A16 16 0 0 1 24 0H104A16 16 0 0 1 120 16V96H92zM16 88H112V16A8 8 0 0 0 104 8H24A8 8 0 0 0 16 16V88z" />
    <glyph glyph-name="bag-x-fill"
      unicode="&#xEA79;"
      horiz-adv-x="128" d="M84 100A20 20 0 0 1 44 100V96H84V100zM92 100V96H120V16A16 16 0 0 0 104 0H24A16 16 0 0 0 8 16V96H36V100A28 28 0 1 0 92 100zM54.832 62.832A4 4 0 1 1 49.168 57.168L58.344 48L49.168 38.832A4 4 0 0 1 54.832 33.168L64 42.344L73.168 33.168A4 4 0 0 1 78.832 38.832L69.656 48L78.832 57.168A4 4 0 0 1 73.168 62.832L64 53.656L54.832 62.832z" />
    <glyph glyph-name="bar-chart"
      unicode="&#xEA7A;"
      horiz-adv-x="128" d="M32 40H16V16H32V40zM72 72H56V16H72V72zM112 112V16H96V112H112zM96 120A8 8 0 0 1 88 112V16A8 8 0 0 1 96 8H112A8 8 0 0 1 120 16V112A8 8 0 0 1 112 120H96zM48 72A8 8 0 0 0 56 80H72A8 8 0 0 0 80 72V16A8 8 0 0 0 72 8H56A8 8 0 0 0 48 16V72zM8 40A8 8 0 0 0 16 48H32A8 8 0 0 0 40 40V16A8 8 0 0 0 32 8H16A8 8 0 0 0 8 16V40z" />
    <glyph glyph-name="bar-chart-fill"
      unicode="&#xEA7B;"
      horiz-adv-x="128" d="M8 40A8 8 0 0 0 16 48H32A8 8 0 0 0 40 40V16A8 8 0 0 0 32 8H16A8 8 0 0 0 8 16V40zM48 72A8 8 0 0 0 56 80H72A8 8 0 0 0 80 72V16A8 8 0 0 0 72 8H56A8 8 0 0 0 48 16V72zM88 112A8 8 0 0 0 96 120H112A8 8 0 0 0 120 112V16A8 8 0 0 0 112 8H96A8 8 0 0 0 88 16V112z" />
    <glyph glyph-name="bar-chart-line"
      unicode="&#xEA7C;"
      horiz-adv-x="128" d="M88 112A8 8 0 0 0 96 120H112A8 8 0 0 0 120 112V16H124A4 4 0 0 0 124 8H4A4 4 0 0 0 4 16H8V40A8 8 0 0 0 16 48H32A8 8 0 0 0 40 40V16H48V72A8 8 0 0 0 56 80H72A8 8 0 0 0 80 72V16H88V112zM96 16H112V112H96V16zM72 16V72H56V16H72zM32 16V40H16V16H32z" />
    <glyph glyph-name="bar-chart-line-fill"
      unicode="&#xEA7D;"
      horiz-adv-x="128" d="M88 112A8 8 0 0 0 96 120H112A8 8 0 0 0 120 112V16H124A4 4 0 0 0 124 8H4A4 4 0 0 0 4 16H8V40A8 8 0 0 0 16 48H32A8 8 0 0 0 40 40V16H48V72A8 8 0 0 0 56 80H72A8 8 0 0 0 80 72V16H88V112z" />
    <glyph glyph-name="bar-chart-steps"
      unicode="&#xEA7E;"
      horiz-adv-x="128" d="M4 128A4 4 0 0 0 8 124V4A4 4 0 0 0 0 4V124A4 4 0 0 0 4 128zM16 116A4 4 0 0 0 20 120H52A4 4 0 0 0 56 116V108A4 4 0 0 0 52 104H20A4 4 0 0 0 16 108V116zM32 84A4 4 0 0 0 36 88H92A4 4 0 0 0 96 84V76A4 4 0 0 0 92 72H36A4 4 0 0 0 32 76V84zM48 52A4 4 0 0 0 52 56H100A4 4 0 0 0 104 52V44A4 4 0 0 0 100 40H52A4 4 0 0 0 48 44V52zM64 20A4 4 0 0 0 68 24H124A4 4 0 0 0 128 20V12A4 4 0 0 0 124 8H68A4 4 0 0 0 64 12V20z" />
    <glyph glyph-name="basket"
      unicode="&#xEA7F;"
      horiz-adv-x="128" d="M46.056 119.432A4 4 0 0 0 47.432 113.944L27.064 80H100.936L80.56 113.944A4 4 0 1 0 87.424 118.056L110.264 80H120A8 8 0 0 0 128 72V64A8 8 0 0 0 120 56V20A20 20 0 0 0 100 0H28A20 20 0 0 0 8 20V56A8 8 0 0 0 0 64V72A8 8 0 0 0 8 80H17.736L40.56 118.056A4 4 0 0 0 46.048 119.432zM16 56V20A12 12 0 0 1 28 8H100A12 12 0 0 1 112 20V56H16zM8 72V64H120V72H8zM32 48A4 4 0 0 0 36 44V20A4 4 0 0 0 28 20V44A4 4 0 0 0 32 48zM48 48A4 4 0 0 0 52 44V20A4 4 0 0 0 44 20V44A4 4 0 0 0 48 48zM64 48A4 4 0 0 0 68 44V20A4 4 0 0 0 60 20V44A4 4 0 0 0 64 48zM80 48A4 4 0 0 0 84 44V20A4 4 0 0 0 76 20V44A4 4 0 0 0 80 48zM96 48A4 4 0 0 0 100 44V20A4 4 0 0 0 92 20V44A4 4 0 0 0 96 48z" />
    <glyph glyph-name="basket-fill"
      unicode="&#xEA80;"
      horiz-adv-x="128" d="M40.568 118.056A4 4 0 0 0 47.432 113.944L27.064 80H100.936L80.56 113.944A4 4 0 1 0 87.424 118.056L110.264 80H124A4 4 0 0 0 128 76V60A4 4 0 0 0 124 56H120V16A16 16 0 0 0 104 0H24A16 16 0 0 0 8 16V56H4A4 4 0 0 0 0 60V76A4 4 0 0 0 4 80H17.736L40.56 118.056zM28 44A4 4 0 1 1 20 44V20A4 4 0 0 1 28 20V44zM48 44A4 4 0 1 1 40 44V20A4 4 0 0 1 48 20V44zM68 44A4 4 0 1 1 60 44V20A4 4 0 0 1 68 20V44zM88 44A4 4 0 1 1 80 44V20A4 4 0 0 1 88 20V44zM108 44A4 4 0 1 1 100 44V20A4 4 0 0 1 108 20V44z" />
    <glyph glyph-name="basket2"
      unicode="&#xEA81;"
      horiz-adv-x="128" d="M32 48A8 8 0 0 0 48 48V32A8 8 0 0 0 32 32V48zM56 48A8 8 0 0 0 72 48V32A8 8 0 0 0 56 32V48zM80 48A8 8 0 1 0 96 48V32A8 8 0 0 0 80 32V48zM46.056 119.432A4 4 0 0 0 47.432 113.944L27.064 80H100.936L80.56 113.944A4 4 0 1 0 87.424 118.056L110.264 80H124A4 4 0 0 0 128 76V68A4 4 0 0 0 124 64H119.016L104.264 12.352A6 6 0 0 0 98.488 8H29.52A6 6 0 0 0 23.744 12.352L8.984 64H4A4 4 0 0 0 0 68V76A4 4 0 0 0 4 80H17.736L40.56 118.056A4 4 0 0 0 46.048 119.432zM17.304 64L31.016 16H96.984L110.696 64H17.304z" />
    <glyph glyph-name="basket2-fill"
      unicode="&#xEA82;"
      horiz-adv-x="128" d="M47.432 113.944A4 4 0 1 1 40.568 118.056L17.736 80H4A4 4 0 0 1 0 76V68A4 4 0 0 1 4 64H8.984L23.736 12.352A6 6 0 0 1 29.52 8H98.496A6 6 0 0 1 104.272 12.352L119.016 64H124A4 4 0 0 1 128 68V76A4 4 0 0 1 124 80H110.264L87.44 118.056A4 4 0 1 1 80.576 113.944L100.936 80H27.064L47.44 113.944zM32 48A8 8 0 0 0 48 48V32A8 8 0 1 0 32 32V48zM56 48A8 8 0 0 0 72 48V32A8 8 0 1 0 56 32V48zM88 56A8 8 0 0 0 96 48V32A8 8 0 1 0 80 32V48A8 8 0 0 0 88 56z" />
    <glyph glyph-name="basket3"
      unicode="&#xEA83;"
      horiz-adv-x="128" d="M46.056 119.432A4 4 0 0 0 47.432 113.944L27.064 80H100.936L80.56 113.944A4 4 0 1 0 87.424 118.056L110.264 80H124A4 4 0 0 0 128 76V68A4 4 0 0 0 124 64H4A4 4 0 0 0 0 68V76A4 4 0 0 0 4 80H17.736L40.56 118.056A4 4 0 0 0 46.048 119.432zM27.152 8L15.312 56H7.552L19.752 4.592A6 6 0 0 1 25.584 0H102.432A6 6 0 0 1 108.272 4.592L120.448 56H112.672L100.84 8H27.16z" />
    <glyph glyph-name="basket3-fill"
      unicode="&#xEA84;"
      horiz-adv-x="128" d="M46.056 119.432A4 4 0 0 0 47.432 113.944L27.064 80H100.936L80.56 113.944A4 4 0 1 0 87.424 118.056L110.264 80H124A4 4 0 0 0 128 76V68A4 4 0 0 0 124 64H4A4 4 0 0 0 0 68V76A4 4 0 0 0 4 80H17.736L40.56 118.056A4 4 0 0 0 46.048 119.432zM19.744 4.592L7.544 56H120.456L108.256 4.592A6 6 0 0 0 102.424 0H25.576A6 6 0 0 0 19.736 4.592z" />
    <glyph glyph-name="battery"
      unicode="&#xEA85;"
      horiz-adv-x="128" d="M0 80A16 16 0 0 0 16 96H96A16 16 0 0 0 112 80V48A16 16 0 0 0 96 32H16A16 16 0 0 0 0 48V80zM16 88A8 8 0 0 1 8 80V48A8 8 0 0 1 16 40H96A8 8 0 0 1 104 48V80A8 8 0 0 1 96 88H16zM128 64A12 12 0 0 0 116 52V76A12 12 0 0 0 128 64z" />
    <glyph glyph-name="battery-charging"
      unicode="&#xEA86;"
      horiz-adv-x="128" d="M76.68 107.456A4 4 0 0 0 78.488 102.816L69.416 73.344H85.336A4 4 0 0 0 88.248 66.6L45.576 21.264A4 4 0 0 0 38.84 25.184L47.92 54.664H32A4 4 0 0 0 29.088 61.408L71.752 106.744A4 4 0 0 0 76.68 107.464zM16 96H50.656L43.136 88H16A8 8 0 0 1 8 80V48A8 8 0 0 1 16 40H35.04L32.576 32H16A16 16 0 0 0 0 48V80A16 16 0 0 0 16 96zM16 80H35.6L23.264 66.888A12 12 0 0 1 26.504 48H16V80zM84.76 96L82.296 88H96A8 8 0 0 0 104 80V48A8 8 0 0 0 96 40H74.208L66.672 32H96A16 16 0 0 1 112 48V80A16 16 0 0 1 96 96H84.76zM96 48H81.736L94.072 61.112C94.848 61.936 95.496 62.856 96 63.832V48zM96 74.832V80H90.832A12 12 0 0 0 96 74.832zM128 64A12 12 0 0 0 116 52V76A12 12 0 0 0 128 64z" />
    <glyph glyph-name="battery-full"
      unicode="&#xEA87;"
      horiz-adv-x="128" d="M16 80H96V48H16V80zM16 96A16 16 0 0 1 0 80V48A16 16 0 0 1 16 32H96A16 16 0 0 1 112 48V80A16 16 0 0 1 96 96H16zM96 88A8 8 0 0 0 104 80V48A8 8 0 0 0 96 40H16A8 8 0 0 0 8 48V80A8 8 0 0 0 16 88H96zM128 64A12 12 0 0 0 116 52V76A12 12 0 0 0 128 64z" />
    <glyph glyph-name="battery-half"
      unicode="&#xEA88;"
      horiz-adv-x="128" d="M16 80H56V48H16V80zM16 96A16 16 0 0 1 0 80V48A16 16 0 0 1 16 32H96A16 16 0 0 1 112 48V80A16 16 0 0 1 96 96H16zM96 88A8 8 0 0 0 104 80V48A8 8 0 0 0 96 40H16A8 8 0 0 0 8 48V80A8 8 0 0 0 16 88H96zM128 64A12 12 0 0 0 116 52V76A12 12 0 0 0 128 64z" />
    <glyph glyph-name="bell"
      unicode="&#xEA89;"
      horiz-adv-x="128" d="M64 0A16 16 0 0 1 80 16H48A16 16 0 0 1 64 0zM64 112.656L57.624 111.368A32.016 32.016 0 0 1 32 80C32 74.976 30.928 62.424 28.328 50.064C27.048 43.928 25.32 37.536 23.024 32H104.976C102.68 37.536 100.96 43.92 99.672 50.064C97.072 62.424 96 74.976 96 80A32.016 32.016 0 0 1 70.376 111.36L64 112.664zM113.76 32C115.544 28.424 117.608 25.592 120 24H8C10.392 25.592 12.456 28.424 14.24 32C21.44 46.4 24 72.96 24 80C24 99.36 37.76 115.52 56.04 119.208A8 8 0 1 0 71.96 119.208A40.016 40.016 0 0 0 104 80C104 72.96 106.56 46.4 113.76 32z" />
    <glyph glyph-name="bell-fill"
      unicode="&#xEA8A;"
      horiz-adv-x="128" d="M64 0A16 16 0 0 1 80 16H48A16 16 0 0 1 64 0zM71.96 119.208A8 8 0 1 1 56.04 119.208A40.016 40.016 0 0 1 24 80C24 71.216 20 32 8 24H120C108 32 104 71.216 104 80C104 99.36 90.24 115.52 71.96 119.208z" />
    <glyph glyph-name="bezier"
      unicode="&#xEA8B;"
      horiz-adv-x="128" d="M0 44A12 12 0 0 0 12 56H20A12 12 0 0 0 32 44V36A12 12 0 0 0 20 24H12A12 12 0 0 0 0 36V44zM12 48A4 4 0 0 1 8 44V36A4 4 0 0 1 12 32H20A4 4 0 0 1 24 36V44A4 4 0 0 1 20 48H12zM96 44A12 12 0 0 0 108 56H116A12 12 0 0 0 128 44V36A12 12 0 0 0 116 24H108A12 12 0 0 0 96 36V44zM108 48A4 4 0 0 1 104 44V36A4 4 0 0 1 108 32H116A4 4 0 0 1 120 36V44A4 4 0 0 1 116 48H108zM48 92A12 12 0 0 0 60 104H68A12 12 0 0 0 80 92V84A12 12 0 0 0 68 72H60A12 12 0 0 0 48 84V92zM60 96A4 4 0 0 1 56 92V84A4 4 0 0 1 60 80H68A4 4 0 0 1 72 84V92A4 4 0 0 1 68 96H60zM48 92H14.928A8 8 0 1 1 14.928 84H36.272A52.136 52.136 0 0 1 14.512 56H20C20.984 56 21.952 55.88 22.864 55.656A44.136 44.136 0 0 0 48.344 81.136A12.024 12.024 0 0 0 48 84V92zM79.656 81.136A12 12 0 0 1 80 84V92H113.072A8 8 0 1 0 113.072 84H91.728A52.136 52.136 0 0 0 113.488 56H108C107.016 56 106.056 55.88 105.136 55.656A44.136 44.136 0 0 1 79.656 81.136z" />
    <glyph glyph-name="bezier2"
      unicode="&#xEA8C;"
      horiz-adv-x="128" d="M8 108A12 12 0 0 0 20 120H28A12 12 0 0 0 40 108H73.072A8 8 0 1 0 73.072 100H56.992C58.432 98.56 59.712 96.952 60.864 95.16C65.968 87.224 68 76.328 68 64C68 48.056 70.056 39.264 73.704 34.4C76.552 30.592 80.864 28.632 88 28.128A12 12 0 0 0 100 40H108A12 12 0 0 0 120 28V20A12 12 0 0 0 108 8H100A12 12 0 0 0 88 20H54.928A8 8 0 1 0 54.928 28H68.616A22.712 22.712 0 0 0 67.296 29.6C61.944 36.744 60 47.944 60 64C60 75.68 58.032 84.776 54.136 90.84C51.016 95.68 46.52 98.84 40 99.736A12 12 0 0 0 28 88H20A12 12 0 0 0 8 100V108zM20 112A4 4 0 0 1 16 108V100A4 4 0 0 1 20 96H28A4 4 0 0 1 32 100V108A4 4 0 0 1 28 112H20zM100 32A4 4 0 0 1 96 28V20A4 4 0 0 1 100 16H108A4 4 0 0 1 112 20V28A4 4 0 0 1 108 32H100z" />
    <glyph glyph-name="bicycle"
      unicode="&#xEA8D;"
      horiz-adv-x="128" d="M31.9969437025174 92A4 4 0 0 0 35.9969437025174 96H47.9969437025174A4 4 0 0 0 47.9969437025174 88V84H81.1169437025174L84.2049437025174 93.264A4 4 0 0 0 87.9969437025174 96H95.9969437025174A4 4 0 0 0 95.9969437025174 88H90.8769437025174L88.3889437025174 80.52L94.8449437025174 70.2A24 24 0 1 0 88.0609437025174 65.96L83.9969437025174 72.456L67.3889437025174 45.88A4 4 0 0 0 63.9969437025174 44H47.6689437025174A24 24 0 1 0 33.1489437025174 70.192L39.9969437025174 81.152V88H35.9969437025174A4 4 0 0 0 31.9969437025174 92zM43.9969437025174 72.456L39.9329437025174 65.944C43.9329437025174 62.392 46.7329437025174 57.512 47.6689437025174 52H56.7809437025174L43.9969437025174 72.456zM63.9969437025174 55.544L76.7809437025174 76H51.2129437025174L63.9969437025174 55.544zM39.4929437025174 52A15.976 15.976 0 0 1 35.5969437025174 59.016L31.2129437025174 52H39.4929437025174zM28.8209437025174 63.264A16 16 0 1 1 39.4929437025174 44H23.9969437025174A4 4 0 0 0 20.6049437025174 50.12L28.8209437025174 63.264zM92.3969437025174 59.024A16 16 0 1 1 99.1809437025174 63.264L107.3889437025174 50.12A4 4 0 1 0 100.6049437025174 45.88L92.3969437025174 59.016z" />
    <glyph glyph-name="binoculars"
      unicode="&#xEA8E;"
      horiz-adv-x="128" d="M23.9999997312007 108A12 12 0 0 0 35.9999997312007 120H43.9999997312007A12 12 0 0 0 55.9999997312007 108V88H71.9999997312007V108A12 12 0 0 0 83.9999997312007 120H91.9999997312007A12 12 0 0 0 103.9999997312007 108V88.944A4 4 0 0 1 106.2079997312007 85.368L113.3679997312007 81.792A12 12 0 0 0 119.9999997312007 71.056V12A12 12 0 0 0 107.9999997312007 0H83.9999997312007A12 12 0 0 0 71.9999997312007 12V36A4 4 0 0 0 73.1679997312007 38.832L79.9999997312007 45.656V52A4 4 0 0 1 75.9999997312007 56H51.9999997312007A4 4 0 0 1 47.9999997312007 52V45.656L54.8319997312007 38.832A4 4 0 0 0 55.9999997312007 36V12A12 12 0 0 0 43.9999997312007 0H19.9999997312007A12 12 0 0 0 7.9999997312007 12V71.056A12 12 0 0 0 14.6399997312007 81.792L21.7919997312007 85.368A4 4 0 0 1 23.9999997312007 88.944V108zM35.9999997312007 112A4 4 0 0 1 31.9999997312007 108V104H47.9999997312007V108A4 4 0 0 1 43.9999997312007 112H35.9999997312007zM47.9999997312007 96H31.9999997312007V88.944A12 12 0 0 0 25.3599997312007 78.208L18.2079997312007 74.632A4 4 0 0 1 15.9999997312007 71.056V24H47.9999997312007V34.344L41.1679997312007 41.168A4 4 0 0 0 39.9999997312007 44V52A12 12 0 0 0 51.9999997312007 64H75.9999997312007A12 12 0 0 0 87.9999997312007 52V44A4 4 0 0 0 86.8319997312007 41.168L79.9999997312007 34.344V24H111.9999997312007V71.056A4 4 0 0 1 109.7919997312007 74.632L102.6319997312007 78.208A12 12 0 0 0 95.9999997312007 88.944V96H79.9999997312007V84A4 4 0 0 0 75.9999997312007 80H51.9999997312007A4 4 0 0 0 47.9999997312007 84V96zM79.9999997312007 104H95.9999997312007V108A4 4 0 0 1 91.9999997312007 112H83.9999997312007A4 4 0 0 1 79.9999997312007 108V104zM111.9999997312007 16H79.9999997312007V12A4 4 0 0 1 83.9999997312007 8H107.9999997312007A4 4 0 0 1 111.9999997312007 12V16zM47.9999997312007 16H15.9999997312007V12A4 4 0 0 1 19.9999997312007 8H43.9999997312007A4 4 0 0 1 47.9999997312007 12V16z" />
    <glyph glyph-name="binoculars-fill"
      unicode="&#xEA8F;"
      horiz-adv-x="128" d="M35.9999997312007 120A12 12 0 0 1 23.9999997312007 108V104H55.9999997312007V108A12 12 0 0 1 43.9999997312007 120H35.9999997312007zM55.9999997312007 96V88H71.9999997312007V96H103.9999997312007V88.944A4 4 0 0 1 106.2079997312007 85.368L113.3679997312007 81.792A12 12 0 0 0 119.9999997312007 71.056V24H71.9999997312007V36A4 4 0 0 0 73.1679997312007 38.832L79.9999997312007 45.656V52A4 4 0 0 1 75.9999997312007 56H51.9999997312007A4 4 0 0 1 47.9999997312007 52V45.656L54.8319997312007 38.832A4 4 0 0 0 55.9999997312007 36V24H7.9999997312007V71.056A12 12 0 0 0 14.6399997312007 81.792L21.7919997312007 85.368A4 4 0 0 1 23.9999997312007 88.944V96H55.9999997312007zM7.9999997312007 16V12A12 12 0 0 1 19.9999997312007 0H43.9999997312007A12 12 0 0 1 55.9999997312007 12V16H7.9999997312007zM71.9999997312007 16V12A12 12 0 0 1 83.9999997312007 0H107.9999997312007A12 12 0 0 1 119.9999997312007 12V16H71.9999997312007zM103.9999997312007 104H71.9999997312007V108A12 12 0 0 0 83.9999997312007 120H91.9999997312007A12 12 0 0 0 103.9999997312007 108V104z" />
    <glyph glyph-name="blockquote-left"
      unicode="&#xEA90;"
      horiz-adv-x="128" d="M20 104A4 4 0 0 1 20 96H108A4 4 0 0 1 108 104H20zM60 80A4 4 0 0 1 60 72H108A4 4 0 0 1 108 80H60zM60 56A4 4 0 0 1 60 48H108A4 4 0 0 1 108 56H60zM20 32A4 4 0 0 1 20 24H108A4 4 0 0 1 108 32H20zM26.32 74.984C27.216 75.608 28.4 76.344 29.872 77.184L28.192 80C27.216 79.408 26.016 78.64 24.576 77.704C23.136 76.768 21.776 75.624 20.496 74.28A19.4 19.4 0 0 1 17.312 69.784C16.432 68.128 16 66.28 16 64.248C16 61.368 16.576 59.048 17.736 57.264C18.888 55.512 20.816 54.64 23.496 54.64C25.216 54.64 26.56 55.2 27.528 56.328A5.576 5.576 0 0 1 29.032 60.032C29.032 61.872 28.472 63.264 27.344 64.2C26.248 65.168 24.736 65.656 22.8 65.656H20.544C20.736 67.28 21.064 68.616 21.528 69.64A11.04 11.04 0 0 0 23.544 72.6A15.52 15.52 0 0 0 26.312 74.984zM43.656 74.984C44.56 75.608 45.752 76.344 47.216 77.184L45.536 80C44.56 79.408 43.36 78.64 41.92 77.704C40.48 76.768 39.12 75.624 37.84 74.28A19.4 19.4 0 0 1 34.656 69.784C33.776 68.128 33.344 66.28 33.344 64.248C33.344 61.368 33.92 59.048 35.08 57.264C36.232 55.512 38.16 54.64 40.84 54.64C42.56 54.64 43.904 55.2 44.872 56.328A5.576 5.576 0 0 1 46.376 60.032C46.376 61.872 45.816 63.264 44.688 64.2C43.592 65.168 42.08 65.656 40.144 65.656H37.888A14 14 0 0 0 38.832 69.592C39.296 70.632 39.984 71.624 40.888 72.592A15.52 15.52 0 0 0 43.656 74.992z" />
    <glyph glyph-name="blockquote-right"
      unicode="&#xEA91;"
      horiz-adv-x="128" d="M20 104A4 4 0 0 1 20 96H108A4 4 0 0 1 108 104H20zM20 80A4 4 0 0 1 20 72H68A4 4 0 0 1 68 80H20zM20 56A4 4 0 0 1 20 48H68A4 4 0 0 1 68 56H20zM20 32A4 4 0 0 1 20 24H108A4 4 0 0 1 108 32H20zM100.904 74.984A52.72 52.72 0 0 1 97.344 77.184L99.024 80C100 79.408 101.2 78.64 102.64 77.704C104.08 76.768 105.44 75.624 106.72 74.28C107.968 72.968 109.032 71.472 109.904 69.784C110.784 68.128 111.216 66.28 111.216 64.248C111.216 61.368 110.64 59.048 109.488 57.264C108.328 55.512 106.408 54.64 103.72 54.64C102 54.64 100.656 55.2 99.688 56.328A5.576 5.576 0 0 0 98.184 60.032C98.184 61.872 98.744 63.264 99.872 64.2C100.968 65.168 102.48 65.656 104.424 65.656H106.672A13.488 13.488 0 0 1 105.688 69.64A11.032 11.032 0 0 1 103.672 72.6A15.52 15.52 0 0 1 100.904 74.984zM83.56 74.984A52.72 52.72 0 0 1 80 77.184L81.68 80C82.656 79.408 83.856 78.64 85.296 77.704C86.736 76.768 88.096 75.624 89.376 74.28C90.624 72.968 91.688 71.472 92.56 69.784C93.44 68.128 93.872 66.28 93.872 64.248C93.872 61.368 93.296 59.048 92.144 57.264C90.984 55.512 89.064 54.64 86.376 54.64C84.656 54.64 83.312 55.2 82.344 56.328A5.576 5.576 0 0 0 80.84 60.032C80.84 61.872 81.4 63.264 82.528 64.2C83.624 65.168 85.144 65.656 87.08 65.656H89.328A13.992 13.992 0 0 1 88.392 69.592A11.216 11.216 0 0 1 86.328 72.592A15.52 15.52 0 0 1 83.56 74.992z" />
    <glyph glyph-name="book"
      unicode="&#xEA92;"
      horiz-adv-x="128" d="M8 105.376C15.08 108.336 25.232 111.528 35.104 112.52C45.744 113.592 54.768 112.016 60 106.504V28.536C52.52 32.776 43.04 33.36 34.296 32.48C24.856 31.52 15.336 28.792 8 25.992V105.376zM68 106.504C73.232 112.016 82.256 113.592 92.896 112.52C102.768 111.528 112.92 108.336 120 105.376V25.992C112.656 28.792 103.144 31.528 93.704 32.472C84.952 33.36 75.48 32.784 68 28.536V106.504zM64 113.736C56.12 120.512 44.696 121.52 34.296 120.48C22.184 119.256 9.96 115.104 2.344 111.64A4 4 0 0 1 0 108V20A4 4 0 0 1 5.656 16.36C12.712 19.56 24.08 23.408 35.096 24.52C46.368 25.656 55.816 23.824 60.88 17.504A4 4 0 0 1 67.12 17.504C72.184 23.824 81.632 25.656 92.896 24.52C103.92 23.408 115.296 19.56 122.344 16.36A4 4 0 0 1 128 20V108A4 4 0 0 1 125.656 111.64C118.04 115.104 105.816 119.256 93.704 120.48C83.304 121.528 71.88 120.512 64 113.736z" />
    <glyph glyph-name="book-fill"
      unicode="&#xEA93;"
      horiz-adv-x="128" d="M64 113.736C56.12 120.512 44.696 121.52 34.296 120.48C22.184 119.256 9.96 115.104 2.344 111.64A4 4 0 0 1 0 108V20A4 4 0 0 1 5.656 16.36C12.712 19.56 24.08 23.408 35.096 24.52C46.368 25.656 55.816 23.824 60.88 17.504A4 4 0 0 1 67.12 17.504C72.184 23.824 81.632 25.656 92.896 24.52C103.92 23.408 115.296 19.56 122.344 16.36A4 4 0 0 1 128 20V108A4 4 0 0 1 125.656 111.64C118.04 115.104 105.816 119.256 93.704 120.48C83.304 121.528 71.88 120.512 64 113.736z" />
    <glyph glyph-name="book-half"
      unicode="&#xEA94;"
      horiz-adv-x="128" d="M68 106.504C73.232 112.016 82.256 113.592 92.896 112.52C102.768 111.528 112.92 108.336 120 105.376V25.992C112.656 28.792 103.144 31.528 93.704 32.472C84.952 33.36 75.48 32.784 68 28.536V106.504zM64 113.736C56.12 120.512 44.696 121.52 34.296 120.48C22.184 119.256 9.96 115.104 2.344 111.64A4 4 0 0 1 0 108V20A4 4 0 0 1 5.656 16.36C12.712 19.56 24.08 23.408 35.096 24.52C46.368 25.656 55.816 23.824 60.88 17.504A4 4 0 0 1 67.12 17.504C72.184 23.824 81.632 25.656 92.896 24.52C103.92 23.408 115.296 19.56 122.344 16.36A4 4 0 0 1 128 20V108A4 4 0 0 1 125.656 111.64C118.04 115.104 105.816 119.256 93.704 120.48C83.304 121.528 71.88 120.512 64 113.736z" />
    <glyph glyph-name="bookmark"
      unicode="&#xEA95;"
      horiz-adv-x="128" d="M16 112A16 16 0 0 0 32 128H96A16 16 0 0 0 112 112V4A4 4 0 0 0 105.784 0.672L64 23.192L22.216 0.672A4 4 0 0 0 16 4V112zM32 120A8 8 0 0 1 24 112V11.472L61.784 31.328A4 4 0 0 0 66.216 31.328L104 11.472V112A8 8 0 0 1 96 120H32z" />
    <glyph glyph-name="bookmark-check"
      unicode="&#xEA96;"
      horiz-adv-x="128" d="M86.832 86.832A4 4 0 0 0 86.832 81.168L62.832 57.168A4 4 0 0 0 57.168 57.168L45.168 69.168A4 4 0 1 0 50.832 74.832L60 65.656L81.168 86.832A4 4 0 0 0 86.832 86.832zM16 112A16 16 0 0 0 32 128H96A16 16 0 0 0 112 112V4A4 4 0 0 0 105.784 0.672L64 23.192L22.216 0.672A4 4 0 0 0 16 4V112zM32 120A8 8 0 0 1 24 112V11.472L61.784 31.328A4 4 0 0 0 66.216 31.328L104 11.472V112A8 8 0 0 1 96 120H32z" />
    <glyph glyph-name="bookmark-check-fill"
      unicode="&#xEA97;"
      horiz-adv-x="128" d="M16 4V112A16 16 0 0 0 32 128H96A16 16 0 0 0 112 112V4A4 4 0 0 0 106.08 0.488L64 23.448L21.92 0.488A4 4 0 0 0 16 4zM86.832 81.168A4 4 0 0 1 81.168 86.832L60 65.656L50.832 74.832A4 4 0 1 1 45.168 69.168L57.168 57.168A4 4 0 0 1 62.832 57.168L86.832 81.168z" />
    <glyph glyph-name="bookmark-dash"
      unicode="&#xEA98;"
      horiz-adv-x="128" d="M44 76A4 4 0 0 0 48 80H80A4 4 0 0 0 80 72H48A4 4 0 0 0 44 76zM16 112A16 16 0 0 0 32 128H96A16 16 0 0 0 112 112V4A4 4 0 0 0 105.784 0.672L64 23.192L22.216 0.672A4 4 0 0 0 16 4V112zM32 120A8 8 0 0 1 24 112V11.472L61.784 31.328A4 4 0 0 0 66.216 31.328L104 11.472V112A8 8 0 0 1 96 120H32z" />
    <glyph glyph-name="bookmark-dash-fill"
      unicode="&#xEA99;"
      horiz-adv-x="128" d="M16 4V112A16 16 0 0 0 32 128H96A16 16 0 0 0 112 112V4A4 4 0 0 0 106.08 0.488L64 23.448L21.92 0.488A4 4 0 0 0 16 4zM48 80A4 4 0 0 1 48 72H80A4 4 0 0 1 80 80H48z" />
    <glyph glyph-name="bookmark-fill"
      unicode="&#xEA9A;"
      horiz-adv-x="128" d="M16 112V4A4 4 0 0 1 21.92 0.488L64 23.448L106.08 0.488A4 4 0 0 1 112 4V112A16 16 0 0 1 96 128H32A16 16 0 0 1 16 112z" />
    <glyph glyph-name="bookmark-heart"
      unicode="&#xEA9B;"
      horiz-adv-x="128" d="M64 92.72C75.096 104.12 102.832 84.16 64 58.504C25.168 84.16 52.904 104.112 64 92.704zM16 112A16 16 0 0 0 32 128H96A16 16 0 0 0 112 112V4A4 4 0 0 0 105.784 0.672L64 23.192L22.216 0.672A4 4 0 0 0 16 4V112zM32 120A8 8 0 0 1 24 112V11.472L61.784 31.328A4 4 0 0 0 66.216 31.328L104 11.472V112A8 8 0 0 1 96 120H32z" />
    <glyph glyph-name="bookmark-heart-fill"
      unicode="&#xEA9C;"
      horiz-adv-x="128" d="M16 4A4 4 0 0 1 21.92 0.488L64 23.448L106.08 0.488A4 4 0 0 1 112 4V112A16 16 0 0 1 96 128H32A16 16 0 0 1 16 112V4zM64 92.72C75.096 104.12 102.832 84.16 64 58.504C25.168 84.16 52.904 104.112 64 92.704z" />
    <glyph glyph-name="bookmark-plus"
      unicode="&#xEA9D;"
      horiz-adv-x="128" d="M64 96A4 4 0 0 0 68 92V80H80A4 4 0 0 0 80 72H68V60A4 4 0 0 0 60 60V72H48A4 4 0 0 0 48 80H60V92A4 4 0 0 0 64 96zM16 112A16 16 0 0 0 32 128H96A16 16 0 0 0 112 112V4A4 4 0 0 0 105.784 0.672L64 23.192L22.216 0.672A4 4 0 0 0 16 4V112zM32 120A8 8 0 0 1 24 112V11.472L61.784 31.328A4 4 0 0 0 66.216 31.328L104 11.472V112A8 8 0 0 1 96 120H32z" />
    <glyph glyph-name="bookmark-plus-fill"
      unicode="&#xEA9E;"
      horiz-adv-x="128" d="M16 4V112A16 16 0 0 0 32 128H96A16 16 0 0 0 112 112V4A4 4 0 0 0 106.08 0.488L64 23.448L21.92 0.488A4 4 0 0 0 16 4zM68 92A4 4 0 0 1 60 92V80H48A4 4 0 0 1 48 72H60V60A4 4 0 0 1 68 60V72H80A4 4 0 0 1 80 80H68V92z" />
    <glyph glyph-name="bookmark-star"
      unicode="&#xEA9F;"
      horiz-adv-x="128" d="M62.72 95.2A1.424 1.424 0 0 0 65.28 95.2L70.352 84.92A1.424 1.424 0 0 1 71.424 84.136L82.784 82.488C83.944 82.32 84.416 80.888 83.568 80.064L75.36 72.056A1.424 1.424 0 0 1 74.952 70.792L76.888 59.48A1.424 1.424 0 0 0 74.824 57.984L64.664 63.328A1.424 1.424 0 0 1 63.344 63.328L53.184 57.984A1.424 1.424 0 0 0 51.128 59.48L53.064 70.792A1.424 1.424 0 0 1 52.664 72.056L44.424 80.064A1.424 1.424 0 0 0 45.208 82.488L56.568 84.136A1.424 1.424 0 0 1 57.64 84.92L62.72 95.2zM16 112A16 16 0 0 0 32 128H96A16 16 0 0 0 112 112V4A4 4 0 0 0 105.784 0.672L64 23.192L22.216 0.672A4 4 0 0 0 16 4V112zM32 120A8 8 0 0 1 24 112V11.472L61.784 31.328A4 4 0 0 0 66.216 31.328L104 11.472V112A8 8 0 0 1 96 120H32z" />
    <glyph glyph-name="bookmark-star-fill"
      unicode="&#xEAA0;"
      horiz-adv-x="128" d="M16 4V112A16 16 0 0 0 32 128H96A16 16 0 0 0 112 112V4A4 4 0 0 0 106.08 0.488L64 23.448L21.92 0.488A4 4 0 0 0 16 4zM65.28 95.2A1.424 1.424 0 0 1 62.72 95.2L57.648 84.92A1.424 1.424 0 0 0 56.576 84.136L45.216 82.488A1.424 1.424 0 0 1 44.432 80.064L52.64 72.056C52.976 71.728 53.128 71.256 53.048 70.792L51.12 59.48A1.424 1.424 0 0 1 53.184 57.984L63.344 63.328A1.424 1.424 0 0 0 64.664 63.328L74.824 57.984A1.424 1.424 0 0 1 76.88 59.48L74.944 70.8A1.424 1.424 0 0 0 75.344 72.064L83.568 80.072A1.424 1.424 0 0 1 82.784 82.496L71.424 84.144A1.424 1.424 0 0 0 70.352 84.928L65.28 95.2z" />
    <glyph glyph-name="bookmark-x"
      unicode="&#xEAA1;"
      horiz-adv-x="128" d="M49.168 86.832A4 4 0 0 0 54.832 86.832L64 77.656L73.168 86.832A4 4 0 1 0 78.832 81.168L69.656 72L78.832 62.832A4 4 0 0 0 73.168 57.168L64 66.344L54.832 57.168A4 4 0 1 0 49.168 62.832L58.344 72L49.168 81.168A4 4 0 0 0 49.168 86.832zM16 112A16 16 0 0 0 32 128H96A16 16 0 0 0 112 112V4A4 4 0 0 0 105.784 0.672L64 23.192L22.216 0.672A4 4 0 0 0 16 4V112zM32 120A8 8 0 0 1 24 112V11.472L61.784 31.328A4 4 0 0 0 66.216 31.328L104 11.472V112A8 8 0 0 1 96 120H32z" />
    <glyph glyph-name="bookmark-x-fill"
      unicode="&#xEAA2;"
      horiz-adv-x="128" d="M16 4V112A16 16 0 0 0 32 128H96A16 16 0 0 0 112 112V4A4 4 0 0 0 106.08 0.488L64 23.448L21.92 0.488A4 4 0 0 0 16 4zM54.832 86.832A4 4 0 1 1 49.168 81.168L58.344 72L49.168 62.832A4 4 0 1 1 54.832 57.168L64 66.344L73.168 57.168A4 4 0 1 1 78.832 62.832L69.656 72L78.832 81.168A4 4 0 0 1 73.168 86.832L64 77.656L54.832 86.832z" />
    <glyph glyph-name="bookmarks"
      unicode="&#xEAA3;"
      horiz-adv-x="128" d="M16 96A16 16 0 0 0 32 112H80A16 16 0 0 0 96 96V4A4 4 0 0 0 89.784 0.672L56 23.192L22.216 0.672A4 4 0 0 0 16 4V96zM32 104A8 8 0 0 1 24 96V11.472L53.784 31.328A4 4 0 0 0 58.216 31.328L88 11.472V96A8 8 0 0 1 80 104H32zM34.144 120H96A8 8 0 0 0 104 112V17.856L105.784 16.672A4 4 0 0 1 112 20V112A16 16 0 0 1 96 128H48A16 16 0 0 1 34.144 120z" />
    <glyph glyph-name="bookmarks-fill"
      unicode="&#xEAA4;"
      horiz-adv-x="128" d="M16 96A16 16 0 0 0 32 112H80A16 16 0 0 0 96 96V4A4 4 0 0 0 89.784 0.672L56 23.192L22.216 0.672A4 4 0 0 0 16 4V96zM34.144 120A16 16 0 0 0 48 128H96A16 16 0 0 0 112 112V20A4 4 0 0 0 105.784 16.672L104 17.856V112A8 8 0 0 1 96 120H34.144z" />
    <glyph glyph-name="bookshelf"
      unicode="&#xEAA5;"
      horiz-adv-x="128" d="M20 128A4 4 0 0 0 24 124V112H104V124A4 4 0 0 0 112 124V4A4 4 0 0 0 104 4V8H24V4A4 4 0 0 0 16 4V124A4 4 0 0 0 20 128zM24 16H104V40H24V16zM24 48H104V72H24V48zM24 80H104V104H24V80z" />
    <glyph glyph-name="bootstrap"
      unicode="&#xEAA6;"
      horiz-adv-x="128" d="M40.496 32H68.296C82.728 32 91.4 39.264 91.4 51.168C91.4 59.984 85.312 66.496 76.168 67.44V68.24C82.824 69.36 88.024 75.68 88.024 82.768C88.024 93.168 80.384 99.648 67.688 99.648H40.496V32zM51 71V90.736H65.24C73.024 90.736 77.576 87.08 77.576 80.84C77.576 74.424 72.744 71 63.464 71H51zM51 40.904V62.704H65.576C75.464 62.704 80.672 59 80.672 51.92C80.672 44.752 75.656 40.904 66.184 40.904H51zM0 96A32 32 0 0 0 32 128H96A32 32 0 0 0 128 96V32A32 32 0 0 0 96 0H32A32 32 0 0 0 0 32V96zM32 120A24 24 0 0 1 8 96V32A24 24 0 0 1 32 8H96A24 24 0 0 1 120 32V96A24 24 0 0 1 96 120H32z" />
    <glyph glyph-name="bootstrap-fill"
      unicode="&#xEAA7;"
      horiz-adv-x="128" d="M50.984 71V90.736H65.224C73.008 90.736 77.56 87.08 77.56 80.84C77.56 74.424 72.728 71 63.448 71H50.984zM50.984 40.904H66.168C75.64 40.904 80.648 44.744 80.648 51.92C80.648 59 75.448 62.704 65.56 62.704H50.984V40.904zM32 128A32 32 0 0 1 0 96V32A32 32 0 0 1 32 0H96A32 32 0 0 1 128 32V96A32 32 0 0 1 96 128H32zM40.48 32V99.64H67.672C80.368 99.64 88.016 93.168 88.016 82.76C88.016 75.688 82.816 69.36 76.152 68.232V67.432C85.296 66.496 91.384 59.984 91.384 51.168C91.384 39.264 82.712 32 68.28 32H40.48z" />
    <glyph glyph-name="bootstrap-reboot"
      unicode="&#xEAA8;"
      horiz-adv-x="128" d="M9.2828422000807 64A54.72 54.72 0 1 1 64.0188422000807 118.72A4.64 4.64 0 0 0 64.0188422000807 128A64 64 0 1 0 11.5708422000807 100.704L6.2668422000807 105.32A4.64 4.64 0 0 0 8.0828422000807 113.296L28.2428422000807 118.816A4.64 4.64 0 0 0 34.0668422000807 113.752L31.4108422000807 93.016A4.64 4.64 0 0 0 23.7628422000807 90.104L18.6188422000807 94.584A54.496 54.496 0 0 1 9.2748422000807 64zM53.1228422000807 34.632V57.256H65.6828422000807L77.6668422000807 34.632H88.1788422000807L75.0108422000807 58.68C82.1868422000807 61.08 86.4268422000807 67.528 86.4268422000807 75.48C86.4268422000807 86.44 78.8828422000807 93.448 66.7788422000807 93.448H43.9948422000807V34.632H53.1228422000807zM53.1228422000807 64.632V85.784H65.6828422000807C72.7308422000807 85.784 77.0108422000807 81.792 77.0108422000807 75.224C77.0108422000807 68.504 72.9788422000807 64.632 65.9228422000807 64.632H53.1228422000807z" />
    <glyph glyph-name="border"
      unicode="&#xEAA9;"
      horiz-adv-x="128" d="M0 128H7.752V124H8V120.248H7.752V120H4V120.248H0V128zM22.752 120H15.248V128H22.752V120zM37.752 120H30.24V128H37.744V120zM52.752 120H45.248V128H52.752V120zM60.248 120V120.248H60V124H60.248V128H67.752V124H68V120.248H67.752V120H60.24zM82.752 120H75.248V128H82.752V120zM97.752 120H90.248V128H97.752V120zM112.752 120H105.248V128H112.752V120zM124 120H120.248V120.248H120V124H120.248V128H128V120.248H124V120zM8 112.752V105.248H0V112.752H8zM60 105.248V112.752H68V105.248H60zM120 105.248V112.752H128V105.248H120zM8 97.76V90.256H0V97.76H8zM60 90.256V97.76H68V90.256H60zM120 90.256V97.76H128V90.256H120zM8 82.752V75.248H0V82.752H8zM60 75.248V82.752H68V75.248H60zM120 75.248V82.752H128V75.248H120zM7.752 60H4V60.248H0V67.76H4V68H7.752V67.752H8V60.248H7.752V60zM22.752 60H15.248V68H22.752V60zM37.752 60H30.24V68H37.744V60zM52.752 60H45.248V68H52.752V60zM67.752 60.248V60H60.24V60.248H60V67.76H60.248V68H67.752V67.752H68V60.248H67.752zM82.752 60H75.248V68H82.752V60zM97.752 60H90.248V68H97.752V60zM112.752 60H105.248V68H112.752V60zM124 60H120.248V60.248H120V67.76H120.248V68H124V67.752H128V60.248H124V60zM0 45.248V52.752H8V45.248H0zM60 45.248V52.752H68V45.248H60zM128 52.752V45.248H120V52.752H128zM0 30.24V37.744H8V30.24H0zM60 30.24V37.744H68V30.24H60zM128 37.744V30.24H120V37.744H128zM0 15.248V22.752H8V15.248H0zM60 15.248V22.752H68V15.248H60zM128 22.752V15.248H120V22.752H128zM7.752 0H0V7.752H4V8H7.752V7.752H8V4H7.752V0zM22.752 0H15.248V8H22.752V0zM37.752 0H30.24V8H37.744V0zM52.752 0H45.248V8H52.752V0zM60.248 0V4H60V7.752H60.248V8H67.752V7.752H68V4H67.752V0H60.24zM82.752 0H75.248V8H82.752V0zM97.752 0H90.248V8H97.752V0zM112.752 0H105.248V8H112.752V0zM120.248 0V4H120V7.752H120.248V8H124V7.752H128V0H120.248z" />
    <glyph glyph-name="border-all"
      unicode="&#xEAAA;"
      horiz-adv-x="128" d="M0 128H128V0H0V128zM8 120V68H60V120H8zM68 120V68H120V120H68zM120 60H68V8H120V60zM60 8V60H8V8H60z" />
    <glyph glyph-name="border-bottom"
      unicode="&#xEAAB;"
      horiz-adv-x="128" d="M7.752 128H0V120.248H4V120H7.752V120.248H8V124H7.752V128zM15.248 120H22.752V128H15.248V120zM30.248 120H37.752V128H30.24V120zM45.248 120H52.752V128H45.248V120zM60.248 120.248V120H67.752V120.248H68V124H67.752V128H60.24V124H60V120.248H60.248zM75.248 120H82.752V128H75.248V120zM90.248 120H97.752V128H90.248V120zM105.248 120H112.752V128H105.248V120zM120.248 120H124V120.248H128V128H120.248V124H120V120.248H120.248V120zM8 105.248V112.752H0V105.248H8zM60 112.752V105.248H68V112.752H60zM120 112.752V105.248H128V112.752H120zM8 90.248V97.76H0V90.256H8zM60 97.752V90.248H68V97.76H60zM120 97.752V90.248H128V97.76H120zM8 75.248V82.752H0V75.248H8zM60 82.752V75.248H68V82.752H60zM120 82.752V75.248H128V82.752H120zM4 60H7.752V60.248H8V67.76H7.752V68H4V67.752H0V60.248H4V60zM15.248 60H22.752V68H15.248V60zM30.248 60H37.752V68H30.24V60zM45.248 60H52.752V68H45.248V60zM67.752 60V60.248H68V67.76H67.752V68H60.24V67.752H60V60.248H60.248V60H67.752zM75.248 60H82.752V68H75.248V60zM90.248 60H97.752V68H90.248V60zM105.248 60H112.752V68H105.248V60zM120.248 60H124V60.248H128V67.76H124V68H120.248V67.752H120V60.248H120.248V60zM0 52.752V45.248H8V52.752H0zM60 52.752V45.248H68V52.752H60zM128 45.248V52.752H120V45.248H128zM0 37.752V30.248H8V37.752H0zM60 37.752V30.248H68V37.752H60zM128 30.248V37.752H120V30.248H128zM0 22.752V15.248H8V22.752H0zM60 22.752V15.248H68V22.752H60zM128 15.248V22.752H120V15.248H128zM0 8H128V0H0V8z" />
    <glyph glyph-name="border-center"
      unicode="&#xEAAC;"
      horiz-adv-x="128" d="M7.752 128H0V120.248H4V120H7.752V120.248H8V124H7.752V128zM15.248 120H22.752V128H15.248V120zM30.248 120H37.752V128H30.24V120zM45.248 120H52.752V128H45.248V120zM60.248 120.248V120H67.752V120.248H68V124H67.752V128H60.24V124H60V120.248H60.248zM75.248 120H82.752V128H75.248V120zM90.248 120H97.752V128H90.248V120zM105.248 120H112.752V128H105.248V120zM120.248 120H124V120.248H128V128H120.248V124H120V120.248H120.248V120zM8 105.248V112.752H0V105.248H8zM60 112.752V105.248H68V112.752H60zM120 112.752V105.248H128V112.752H120zM8 90.248V97.76H0V90.256H8zM60 97.752V90.248H68V97.76H60zM120 97.752V90.248H128V97.76H120zM8 75.248V82.752H0V75.248H8zM60 82.752V75.248H68V82.752H60zM120 82.752V75.248H128V82.752H120zM0 60V68H128V60H0zM0 52.752V45.248H8V52.752H0zM60 52.752V45.248H68V52.752H60zM128 45.248V52.752H120V45.248H128zM0 37.752V30.248H8V37.752H0zM60 37.752V30.248H68V37.752H60zM128 30.248V37.752H120V30.248H128zM0 22.752V15.248H8V22.752H0zM60 22.752V15.248H68V22.752H60zM128 15.248V22.752H120V15.248H128zM0 0H7.752V4H8V7.752H7.752V8H4V7.752H0V0zM15.248 0H22.752V8H15.248V0zM30.248 0H37.752V8H30.24V0zM45.248 0H52.752V8H45.248V0zM60.248 4V0H67.752V4H68V7.752H67.752V8H60.24V7.752H60V4H60.248zM75.248 0H82.752V8H75.248V0zM90.248 0H97.752V8H90.248V0zM105.248 0H112.752V8H105.248V0zM120.248 4V0H128V7.752H124V8H120.248V7.752H120V4H120.248z" />
    <glyph glyph-name="border-inner"
      unicode="&#xEAAD;"
      horiz-adv-x="128" d="M7.752 128H0V120.248H4V120H7.752V120.248H8V124H7.752V128zM15.248 120H22.752V128H15.248V120zM30.248 120H37.752V128H30.24V120zM45.248 120H52.752V128H45.248V120zM68 68H128V60H68V0H60V60H0V68H60V128H68V68zM75.248 120H82.752V128H75.248V120zM90.248 120H97.752V128H90.248V120zM105.248 120H112.752V128H105.248V120zM120.248 120H124V120.248H128V128H120.248V124H120V120.248H120.248V120zM8 105.248V112.752H0V105.248H8zM120 112.752V105.248H128V112.752H120zM8 90.248V97.76H0V90.256H8zM120 97.752V90.248H128V97.76H120zM8 75.248V82.752H0V75.248H8zM120 82.752V75.248H128V82.752H120zM0 52.752V45.248H8V52.752H0zM128 45.248V52.752H120V45.248H128zM0 37.752V30.248H8V37.752H0zM128 30.248V37.752H120V30.248H128zM0 22.752V15.248H8V22.752H0zM128 15.248V22.752H120V15.248H128zM0 0H7.752V4H8V7.752H7.752V8H4V7.752H0V0zM15.248 0H22.752V8H15.248V0zM30.248 0H37.752V8H30.24V0zM45.248 0H52.752V8H45.248V0zM75.248 0H82.752V8H75.248V0zM90.248 0H97.752V8H90.248V0zM105.248 0H112.752V8H105.248V0zM120.248 4V0H128V7.752H124V8H120.248V7.752H120V4H120.248z" />
    <glyph glyph-name="border-left"
      unicode="&#xEAAE;"
      horiz-adv-x="128" d="M0 128V0H8V128H0zM15.248 120H22.752V128H15.248V120zM30.248 120H37.752V128H30.24V120zM45.248 120H52.752V128H45.248V120zM60.248 120.248V120H67.752V120.248H68V124H67.752V128H60.24V124H60V120.248H60.248zM75.248 120H82.752V128H75.248V120zM90.248 120H97.752V128H90.248V120zM105.248 120H112.752V128H105.248V120zM120.248 120H124V120.248H128V128H120.248V124H120V120.248H120.248V120zM60 112.752V105.248H68V112.752H60zM120 112.752V105.248H128V112.752H120zM60 97.752V90.248H68V97.76H60zM120 97.752V90.248H128V97.76H120zM60 82.752V75.248H68V82.752H60zM120 82.752V75.248H128V82.752H120zM15.248 60H22.752V68H15.248V60zM30.248 60H37.752V68H30.24V60zM45.248 60H52.752V68H45.248V60zM67.752 60V60.248H68V67.76H67.752V68H60.24V67.752H60V60.248H60.248V60H67.752zM75.248 60H82.752V68H75.248V60zM90.248 60H97.752V68H90.248V60zM105.248 60H112.752V68H105.248V60zM120.248 60H124V60.248H128V67.76H124V68H120.248V67.752H120V60.248H120.248V60zM60 52.752V45.248H68V52.752H60zM128 45.248V52.752H120V45.248H128zM60 37.752V30.248H68V37.752H60zM128 30.248V37.752H120V30.248H128zM60 22.752V15.248H68V22.752H60zM128 15.248V22.752H120V15.248H128zM15.248 0H22.752V8H15.248V0zM30.248 0H37.752V8H30.24V0zM45.248 0H52.752V8H45.248V0zM60.248 4V0H67.752V4H68V7.752H67.752V8H60.24V7.752H60V4H60.248zM75.248 0H82.752V8H75.248V0zM90.248 0H97.752V8H90.248V0zM105.248 0H112.752V8H105.248V0zM120.248 4V0H128V7.752H124V8H120.248V7.752H120V4H120.248z" />
    <glyph glyph-name="border-middle"
      unicode="&#xEAAF;"
      horiz-adv-x="128" d="M7.752 128H0V120.248H4V120H7.752V120.248H8V124H7.752V128zM15.248 120H22.752V128H15.248V120zM30.248 120H37.752V128H30.24V120zM45.248 120H52.752V128H45.248V120zM68 0H60V128H68V0zM75.248 120H82.752V128H75.248V120zM90.248 120H97.752V128H90.248V120zM105.248 120H112.752V128H105.248V120zM120.248 120H124V120.248H128V128H120.248V124H120V120.248H120.248V120zM8 105.248V112.752H0V105.248H8zM120 112.752V105.248H128V112.752H120zM8 90.248V97.76H0V90.256H8zM120 97.752V90.248H128V97.76H120zM8 75.248V82.752H0V75.248H8zM120 82.752V75.248H128V82.752H120zM4 60H7.752V60.248H8V67.76H7.752V68H4V67.752H0V60.248H4V60zM15.248 60H22.752V68H15.248V60zM30.248 60H37.752V68H30.24V60zM45.248 60H52.752V68H45.248V60zM75.248 60H82.752V68H75.248V60zM90.248 60H97.752V68H90.248V60zM105.248 60H112.752V68H105.248V60zM120.248 60H124V60.248H128V67.76H124V68H120.248V67.752H120V60.248H120.248V60zM0 52.752V45.248H8V52.752H0zM128 45.248V52.752H120V45.248H128zM0 37.752V30.248H8V37.752H0zM128 30.248V37.752H120V30.248H128zM0 22.752V15.248H8V22.752H0zM128 15.248V22.752H120V15.248H128zM0 0H7.752V4H8V7.752H7.752V8H4V7.752H0V0zM15.248 0H22.752V8H15.248V0zM30.248 0H37.752V8H30.24V0zM45.248 0H52.752V8H45.248V0zM75.248 0H82.752V8H75.248V0zM90.248 0H97.752V8H90.248V0zM105.248 0H112.752V8H105.248V0zM120.248 4V0H128V7.752H124V8H120.248V7.752H120V4H120.248z" />
    <glyph glyph-name="border-outer"
      unicode="&#xEAB0;"
      horiz-adv-x="128" d="M60 112.752V105.248H68V112.752H60zM60 97.752V90.248H68V97.76H60zM60 82.752V75.248H68V82.752H60zM15.248 60H22.752V68H15.248V60zM30.248 60H37.752V68H30.24V60zM45.248 60H52.752V68H45.248V60zM67.752 60V60.248H68V67.76H67.752V68H60.24V67.752H60V60.248H60.248V60H67.752zM75.248 60H82.752V68H75.248V60zM90.248 60H97.752V68H90.248V60zM105.248 60H112.752V68H105.248V60zM60 52.752V45.248H68V52.752H60zM60 37.752V30.248H68V37.752H60zM60 22.752V15.248H68V22.752H60zM0 128V0H128V128H0zM8 120H120V8H8V120z" />
    <glyph glyph-name="border-right"
      unicode="&#xEAB1;"
      horiz-adv-x="128" d="M7.752 128H0V120.248H4V120H7.752V120.248H8V124H7.752V128zM15.248 120H22.752V128H15.248V120zM30.248 120H37.752V128H30.24V120zM45.248 120H52.752V128H45.248V120zM60.248 120.248V120H67.752V120.248H68V124H67.752V128H60.24V124H60V120.248H60.248zM75.248 120H82.752V128H75.248V120zM90.248 120H97.752V128H90.248V120zM105.248 120H112.752V128H105.248V120zM128 128H120V0H128V128zM8 105.248V112.752H0V105.248H8zM60 112.752V105.248H68V112.752H60zM8 90.248V97.76H0V90.256H8zM60 97.752V90.248H68V97.76H60zM8 75.248V82.752H0V75.248H8zM60 82.752V75.248H68V82.752H60zM4 60H7.752V60.248H8V67.76H7.752V68H4V67.752H0V60.248H4V60zM15.248 60H22.752V68H15.248V60zM30.248 60H37.752V68H30.24V60zM45.248 60H52.752V68H45.248V60zM67.752 60V60.248H68V67.76H67.752V68H60.24V67.752H60V60.248H60.248V60H67.752zM75.248 60H82.752V68H75.248V60zM90.248 60H97.752V68H90.248V60zM105.248 60H112.752V68H105.248V60zM0 52.752V45.248H8V52.752H0zM60 52.752V45.248H68V52.752H60zM0 37.752V30.248H8V37.752H0zM60 37.752V30.248H68V37.752H60zM0 22.752V15.248H8V22.752H0zM60 22.752V15.248H68V22.752H60zM0 0H7.752V4H8V7.752H7.752V8H4V7.752H0V0zM15.248 0H22.752V8H15.248V0zM30.248 0H37.752V8H30.24V0zM45.248 0H52.752V8H45.248V0zM60.248 4V0H67.752V4H68V7.752H67.752V8H60.24V7.752H60V4H60.248zM75.248 0H82.752V8H75.248V0zM90.248 0H97.752V8H90.248V0zM105.248 0H112.752V8H105.248V0z" />
    <glyph glyph-name="border-style"
      unicode="&#xEAB2;"
      horiz-adv-x="128" d="M8 100A4 4 0 0 0 12 104H116A4 4 0 0 0 120 100V92A4 4 0 0 0 116 88H12A4 4 0 0 0 8 92V100zM8 68A4 4 0 0 0 12 72H52A4 4 0 0 0 56 68V60A4 4 0 0 0 52 56H12A4 4 0 0 0 8 60V68zM8 36A4 4 0 0 0 12 40H20A4 4 0 0 0 24 36V28A4 4 0 0 0 20 24H12A4 4 0 0 0 8 28V36zM72 36A4 4 0 0 0 76 40H84A4 4 0 0 0 88 36V28A4 4 0 0 0 84 24H76A4 4 0 0 0 72 28V36zM40 36A4 4 0 0 0 44 40H52A4 4 0 0 0 56 36V28A4 4 0 0 0 52 24H44A4 4 0 0 0 40 28V36zM104 36A4 4 0 0 0 108 40H116A4 4 0 0 0 120 36V28A4 4 0 0 0 116 24H108A4 4 0 0 0 104 28V36zM72 68A4 4 0 0 0 76 72H116A4 4 0 0 0 120 68V60A4 4 0 0 0 116 56H76A4 4 0 0 0 72 60V68z" />
    <glyph glyph-name="border-top"
      unicode="&#xEAB3;"
      horiz-adv-x="128" d="M0 128V120H128V128H0zM8 105.248V112.752H0V105.248H8zM60 112.752V105.248H68V112.752H60zM120 112.752V105.248H128V112.752H120zM8 90.248V97.76H0V90.256H8zM60 97.752V90.248H68V97.76H60zM120 97.752V90.248H128V97.76H120zM8 75.248V82.752H0V75.248H8zM60 82.752V75.248H68V82.752H60zM120 82.752V75.248H128V82.752H120zM4 60H7.752V60.248H8V67.76H7.752V68H4V67.752H0V60.248H4V60zM15.248 60H22.752V68H15.248V60zM30.248 60H37.752V68H30.24V60zM45.248 60H52.752V68H45.248V60zM67.752 60V60.248H68V67.76H67.752V68H60.24V67.752H60V60.248H60.248V60H67.752zM75.248 60H82.752V68H75.248V60zM90.248 60H97.752V68H90.248V60zM105.248 60H112.752V68H105.248V60zM120.248 60H124V60.248H128V67.76H124V68H120.248V67.752H120V60.248H120.248V60zM0 52.752V45.248H8V52.752H0zM60 52.752V45.248H68V52.752H60zM128 45.248V52.752H120V45.248H128zM0 37.752V30.248H8V37.752H0zM60 37.752V30.248H68V37.752H60zM128 30.248V37.752H120V30.248H128zM0 22.752V15.248H8V22.752H0zM60 22.752V15.248H68V22.752H60zM128 15.248V22.752H120V15.248H128zM0 0H7.752V4H8V7.752H7.752V8H4V7.752H0V0zM15.248 0H22.752V8H15.248V0zM30.248 0H37.752V8H30.24V0zM45.248 0H52.752V8H45.248V0zM60.248 4V0H67.752V4H68V7.752H67.752V8H60.24V7.752H60V4H60.248zM75.248 0H82.752V8H75.248V0zM90.248 0H97.752V8H90.248V0zM105.248 0H112.752V8H105.248V0zM120.248 4V0H128V7.752H124V8H120.248V7.752H120V4H120.248z" />
    <glyph glyph-name="border-width"
      unicode="&#xEAB4;"
      horiz-adv-x="128" d="M0 100A4 4 0 0 0 4 104H124A4 4 0 0 0 128 100V84A4 4 0 0 0 124 80H4A4 4 0 0 0 0 84V100zM0 60A4 4 0 0 0 4 64H124A4 4 0 0 0 128 60V52A4 4 0 0 0 124 48H4A4 4 0 0 0 0 52V60zM0 28A4 4 0 0 0 4 32H124A4 4 0 0 0 124 24H4A4 4 0 0 0 0 28z" />
    <glyph glyph-name="bounding-box"
      unicode="&#xEAB5;"
      horiz-adv-x="128" d="M40 112V128H0V88H16V40H0V0H40V16H88V0H128V40H112V88H128V128H88V112H40zM88 104V88H104V40H88V24H40V40H24V88H40V104H88zM96 120H120V96H96V120zM120 32V8H96V32H120zM32 8H8V32H32V8zM8 96V120H32V96H8z" />
    <glyph glyph-name="bounding-box-circles"
      unicode="&#xEAB6;"
      horiz-adv-x="128" d="M16.0027456465474 120A8 8 0 1 1 16.0027456465474 104A8 8 0 0 1 16.0027456465474 120zM0.0027456465474 112A16 16 0 0 0 31.4987456465474 116H96.5067456465474A16 16 0 1 0 116.0027456465474 96.504V31.496A16 16 0 1 0 96.5067456465474 12H31.4987456465474A16 16 0 1 0 12.0027456465474 31.496V96.504A16 16 0 0 0 0.0027456465474 112zM20.0027456465474 96.504V31.496C25.6267456465474 30.056 30.0507456465474 25.624 31.4987456465474 20H96.5067456465474A16.032 16.032 0 0 0 108.0027456465473 31.496V96.504A16.032 16.032 0 0 0 96.5067456465474 108H31.4987456465474A16.032 16.032 0 0 0 20.0027456465474 96.504zM112.0027456465474 120A8 8 0 1 1 112.0027456465474 104A8 8 0 0 1 112.0027456465474 120zM16.0027456465474 24A8 8 0 1 1 16.0027456465474 8A8 8 0 0 1 16.0027456465474 24zM112.0027456465474 24A8 8 0 1 1 112.0027456465474 8A8 8 0 0 1 112.0027456465474 24z" />
    </font>
</defs>
</svg>
