<svg xmlns="http://www.w3.org/2000/svg" width="64" height="64" viewBox="0 0 64 64"><path fill="none" stroke="#000" stroke-width="2" stroke-miterlimit="10" d="M37.004 32.166a9.97 9.97 0 0 0 3.997.828 9.99 9.99 0 0 0 7.998-4.006L60.99 16.98a9.953 9.953 0 0 0 1.996-6.002C62.983 5.456 58.502.981 52.979.985a9.961 9.961 0 0 0-5.999 2.004L33.989 15.998c-1.768 1.805-2.997 4.277-2.996 7.003.001 1.424.3 2.778.837 4.003M31.831 27.004c.053.121.107.24.166.358M26.997 31.836a9.946 9.946 0 0 0-3.998-.83A9.959 9.959 0 0 0 17 33.01L4.01 46.02c-1.768 1.804-2.997 4.276-2.995 7.002.003 5.522 4.484 9.997 10.007 9.993a9.987 9.987 0 0 0 7.997-4.006L31.01 47.001a9.953 9.953 0 0 0 1.996-6.002 9.96 9.96 0 0 0-.835-3.998M23.006 41.006l17.988-18.012"/></svg>