<svg xmlns="http://www.w3.org/2000/svg" width="64" height="64" viewBox="0 0 64 64"><path fill="none" stroke="#000" stroke-width="2" stroke-miterlimit="10" d="M36 34l5 5"/><path fill="none" stroke="#000" stroke-width="1.99998" stroke-miterlimit="10" d="M63 55l-5.999 6-19-19 6-6z"/><path fill="none" stroke="#000" stroke-width="2" stroke-miterlimit="10" d="M12 16l6-6L8 4 6 6zM28 26L15 13M58 12.5l-8 3.75-4-4.125 3.5-8.062h0C39.5 4.062 37 9 37 14v4L3.5 52l-1.75 6 2.125 2 6.062-1.5L44 25h4c5 0 10-2.5 10-12.5h0z"/></svg>