<svg xmlns="http://www.w3.org/2000/svg" viewBox="0 0 64 64"><g fill="none" stroke="#000" stroke-width="2" stroke-miterlimit="10"><path d="M51.799 15.202c10.936 10.933 10.936 28.662 0 39.595-10.935 10.938-28.664 10.938-39.598 0-10.935-10.933-10.935-28.662 0-39.595 10.934-10.936 28.663-10.936 39.598 0z"/><path d="M32 7V1h6M26 1h6M32 63v-4M32 11V7M4 35h4M56 35h4M14.564 17.565l2.83 2.829M46.606 49.606l2.83 2.83M49.436 17.565l-2.829 2.829M17.395 49.606l-2.831 2.83M32 21v12"/><circle cx="32" cy="35" r="3"/></g></svg>