<svg width="64" height="64" viewBox="0 0 609 609" xmlns="http://www.w3.org/2000/svg"><path d="M304.094 272.274c122.735-.155 222.189-99.609 222.345-222.329v-191.401H81.784V49.93c.155 122.723 99.59 222.17 222.294 222.345h.017zm-194.287-388.3h78.507v17.306h-78.507zm0 62.907h78.507v17.306h-78.507zm0 62.669h78.507v17.306h-78.507zm0 62.908h78.507v17.306h-78.507zm443.938-466.125H0V50.066c.17 147.505 105.172 270.437 244.499 298.308l1.944.324v11.537c0 8.943 9.694 16.009 21.743 16.009h18.364v62.123h-6.861c-6.504 0-11.776 5.272-11.776 11.776v91.818c0 6.466 5.242 11.708 11.708 11.708H286.516v76.663h35.43v-76.561h6.895c6.504 0 11.776-5.272 11.776-11.776V450.04c0-6.504-5.272-11.776-11.776-11.776H321.946v-62.123h18.364c12.22 0 21.811-7.066 21.811-16.009v-11.537c141.264-28.208 246.258-151.132 246.443-298.612V-393.77zm0 443.733c-1.648 136.599-112.767 246.698-249.6 246.698S56.193 186.664 54.546 50.221l-.001-.156v-389.12h499.2zm-443.87-354.577h78.37v17.306h-78.37v-17.306zm0 62.908h78.37v17.306h-78.37v-17.306zm0 62.942h78.37v17.306h-78.37v-17.306z"/></svg>