<svg width="64" height="64" viewBox="0 0 914 914" xmlns="http://www.w3.org/2000/svg"><path d="M278.596 256.865l5.973-.512a12.71 12.71 0 006.012-2.279l-.039.026a657.046 657.046 0 0021.47 62.157c11.231 28.431 22.292 51.764 34.643 74.289l-1.705-3.394c-1.024 15.531-2.253 31.471-3.891 46.933-.757 9.535-2.624 18.368-5.484 26.741l.227-.765c-.512.205-1.229 88.747-1.229 88.747.03 57.708 40.012 106.068 93.785 118.923l.833.168c2.411-6.185 8.312-10.492 15.221-10.513h24.477c6.879.095 12.74 4.355 15.183 10.368l.04.111c54.744-12.899 94.899-61.244 95.095-119.001v-.022s-1.502-88.166-2.253-88.747c-2.36-7.459-4.21-16.257-5.201-25.313l-.056-.628c-1.502-15.531-2.492-31.095-3.891-46.933 10.536-19.012 21.595-42.342 31.315-66.357l1.623-4.538c8.738-21.709 15.531-42.428 21.47-62.157a12.565 12.565 0 005.916 2.248l.057.005 6.007.512c7.236.751 13.653-5.222 14.234-14.473l6.485-82.398v-.103c0-6.951-5.195-12.689-11.914-13.544l-.068-.007h-.717c1.666-11.969 2.617-25.797 2.617-39.847 0-30.642-4.523-60.228-12.938-88.126l.559 2.158c-24.639-53.995-73.446-93.235-132.203-104.172l-1.122-.173c-12.62-2.612-27.329-4.331-42.359-4.77l-.376-.009h-.512c-15.306.305-30.026 2.018-44.273 5.015l1.538-.271C353.341-72.504 304.602-33.327 280.289 19.426l-.468 1.133c-7.925 25.597-12.49 55.024-12.49 85.518 0 14.212.991 28.192 2.909 41.875l-.181-1.577c-6.786.747-12.018 6.449-12.018 13.372 0 .099.001.197.003.296v-.015l6.485 82.398c.614 9.489 7.066 15.189 14.063 14.438zm635.153 545.246c-3.004-129.707-15.974-159.061-22.972-178.961-2.765-7.987-5.018-61.918-94.14-96.905-54.613-21.504-125.099-21.948-184.764-47.138v70.144c-.125 75.434-54.14 138.215-125.596 151.909l-.971.155c-1.33 7.746-7.96 13.577-15.966 13.653h-.759v52.907c0 51.709 41.919 93.628 93.628 93.628s93.628-41.919 93.628-93.628v-36.966c-25.931-3.873-45.593-25.988-45.593-52.695 0-29.408 23.84-53.248 53.248-53.248s53.248 23.84 53.248 53.248c0 23.303-14.969 43.11-35.817 50.329l-.374.113v39.151c.011.598.017 1.303.017 2.01 0 65.358-52.983 118.34-118.34 118.34s-118.34-52.983-118.34-118.34c0-.707.006-1.412.019-2.116l-.001.106v-53.385c-7.603-.529-13.732-6.215-14.938-13.559l-.013-.094c-72.121-14.019-125.852-76.584-126.054-151.735v-70.712c-59.904 25.737-130.799 26.249-185.719 47.787-89.361 34.953-91.375 88.747-94.14 96.87C16.213 642.947 3.072 672.165.068 801.974c-.512 17.067 0 43.213 51.439 66.082 112.06 43.93 256.375 57.617 398.677 67.413h13.653c142.575-9.728 286.72-23.347 398.677-67.413 51.234-22.733 51.712-48.742 51.234-65.946zm-626.38-52.907h-53.18v53.385h-37.956v-53.214h-53.18v-37.956h53.18v-53.18h37.956v53.18h53.18zm404.889-71.373v-.034c0-15.854-12.852-28.706-28.706-28.706s-28.706 12.852-28.706 28.706 12.852 28.706 28.706 28.706c15.842 0 28.687-12.833 28.706-28.67v-.002z"/></svg>