<svg width="64" height="64" viewBox="0 0 1178 1178" xmlns="http://www.w3.org/2000/svg"><path d="M1077.726 354.772H810.462v-86.323c-.058-51.403-41.713-93.057-93.11-93.116H460.698c-51.403.058-93.057 41.713-93.116 93.11v86.329H99.977c-55.197 0-99.942 44.746-99.942 99.942v644.71c0 55.197 44.746 99.942 99.942 99.942h977.988c55.197 0 99.942-44.746 99.942-99.942v-644.71-.035c0-55.178-44.73-99.908-99.908-99.908h-.288.015zm-630.443-86.323v-.068c0-7.258 5.884-13.141 13.141-13.141h256.955l.137-.001c7.239 0 13.107 5.868 13.107 13.107v.109-.006 86.323H447.316zm141.619 793.19c-157.239 0-284.706-127.467-284.706-284.706s127.467-284.706 284.706-284.706c157.239 0 284.706 127.467 284.706 284.706-.02 157.212-127.46 284.653-284.67 284.672h-.002zm70.11-486.332H518.11v130.901H386.97V847.52h131.311v130.901h140.902V847.349h131.311V706.037H658.978z"/></svg>