<svg width="64" height="64" viewBox="0 0 1178 1178" xmlns="http://www.w3.org/2000/svg"><path d="M1175.347 490.657c-12.732-97.314-64.58-266.24-267.605-306.415-24.97-5.282-53.816-8.506-83.345-8.905l-.316-.003h-6.212c-88.804.526-169.413 35.187-229.457 91.511l.183-.17c-60.093-56.295-141.025-90.985-230.056-91.341h-5.43c-29.846.405-58.692 3.629-86.599 9.419l2.939-.51C32.495 230.801 3.96 465.126 1.844 491.784v.887c-12.186 127.863 20.173 452.164 574.805 701.303l12.186 5.359 11.844-5.359c584.704-262.554 587.674-604.809 574.669-703.317zm-610.44-165.103l23.45 22.835 23.45-22.835c51.967-54.94 124.837-89.644 205.823-91.336l.308-.005h5.018c26.216.468 51.481 3.254 75.977 8.165l-2.693-.45c166.98 32.939 209.988 174.694 220.945 256.239 1.407 12.744 2.209 27.521 2.209 42.485 0 72.324-18.745 140.271-51.642 199.246l1.066-2.081c-78.882 153.907-240.572 287.403-480.495 397.175C79.361 902.442 48.812 612.752 59.495 498.269v-1.195c2.082-22.255 25.498-216.849 220.672-255.386 21.692-4.442 46.836-7.228 72.543-7.708l.4-.006h5.632c81.339 1.753 154.223 36.543 206.032 91.438l.133.142z"/></svg>