<svg width="64" height="64" viewBox="0 0 1024 1024" xmlns="http://www.w3.org/2000/svg"><path d="M122.061 534.732l-.583.002c-52.991 0-95.949-42.958-95.949-95.949s42.958-95.949 95.949-95.949c34.916 0 65.477 18.651 82.262 46.533l.241.432h29.184c-19.331-43.239-61.967-72.824-111.512-72.824-67.262 0-121.788 54.526-121.788 121.788s54.526 121.788 121.788 121.788c42.966 0 80.736-22.25 102.415-55.856l.29-.48-26.317-7.373c-17.697 22.929-45.096 37.625-75.938 37.888h-.043zm882.824 9.455c-74.501-110.624-199.279-182.424-340.827-182.424-2.23 0-4.456.018-6.678.053l.335-.004h-2.833l-7.578-31.539-7.817-.478-13.653.717-4.267 32.939c-40.782 1.305-77.668 16.982-105.987 42.101l.174-.151h-409.6l26.556 56.9 324.267 91.307c4.684 81.388 65.232 147.334 143.656 160.29l1.001.137-11.844 34.406h-85.333c-10.085 0-18.261 8.176-18.261 18.261s8.176 18.261 18.261 18.261h440.32c10.085 0 18.261-8.176 18.261-18.261s-8.176-18.261-18.261-18.261h-68.062l-16.828-34.406c85.845-8.09 137.318-32.051 157.013-73.284 4.621-11.108 7.305-24.011 7.305-37.541 0-22.134-7.183-42.59-19.345-59.165l.196.28zm-405.947 19.661v40.073h-47.206v-40.073h-39.765v-47.206h40.073v-40.073h47.206v40.073h40.073v47.206zm21.333 184.525l11.059-32.461h196.369l15.906 32.461zm377.788-168.619c-4.868 9.238-14.405 15.428-25.389 15.428H819.063c-88.369-1.019-159.612-72.893-159.612-161.406 0-.448.002-.895.005-1.342v.069-6.178c0-4.506.273-9.011.478-13.653 1.697-21.082 19.224-37.548 40.597-37.548l.382.002h-.019a29.94 29.94 0 014.651.22l-.146-.015c121.882 11.42 226.234 77.694 289.229 173.569l.905 1.467c3.494 4.569 5.599 10.362 5.599 16.646a27.42 27.42 0 01-3.179 12.858l.072-.15zm-62.908-228.113c.707.094 1.525.148 2.356.148 10.312 0 18.683-8.315 18.773-18.606v-54.315l.001-.147a17.81 17.81 0 00-6.157-13.488l-.022-.019a19.159 19.159 0 00-12.779-4.853c-.596 0-1.186.027-1.768.08l.075-.006-299.52 32.734-299.486-32.734a18.551 18.551 0 00-1.717-.077 19.115 19.115 0 00-12.775 4.872l.019-.016c-3.776 3.343-6.144 8.203-6.144 13.616v.04-.002 54.306c.112 10.302 8.489 18.61 18.806 18.61.819 0 1.625-.052 2.416-.154l-.094.01 298.906-40.585z"/></svg>