<svg width="64" height="64" viewBox="0 0 965 965" xmlns="http://www.w3.org/2000/svg"><path d="M945.971 802.013L632.286 319.402V88.695h72.875V-37.667H260.199V88.831h73.455v230.707l-314.3 482.475C7.18 820.39-.069 842.952-.069 867.208c0 65.791 53.334 119.125 119.125 119.125h726.768c65.886-.124 119.249-53.563 119.249-119.466 0-24.103-7.138-46.54-19.416-65.31l.28.457zm-38.605 98.202c-12.012 21.875-34.893 36.455-61.179 36.455l-.275-.001H119.087c-38.551 0-69.803-31.252-69.803-69.803 0-14.096 4.178-27.215 11.363-38.188l-.164.266 322.082-494.933V88.626h199.953v245.521L904.259 829.08c7.267 10.719 11.601 23.941 11.601 38.174 0 12.156-3.162 23.574-8.708 33.477l.178-.347zM614.912 489.318H350.754L109.465 860.416a12.115 12.115 0 00-2.065 6.797c0 2.165.563 4.198 1.551 5.962l-.032-.062c2.141 3.713 6.066 6.186 10.573 6.246H846.186c4.526 0 8.469-2.495 10.529-6.185l.031-.061a12.046 12.046 0 001.525-5.902 12.13 12.13 0 00-2.098-6.838l.027.043z"/></svg>