<svg width="64" height="64" viewBox="0 0 958 958" xmlns="http://www.w3.org/2000/svg"><path d="M592.145 722.753c-39.409 99.406-134.415 168.568-245.668 169.301h-.201c-143.27 0-259.413-116.143-259.413-259.413 0-85.402 41.269-161.166 104.952-208.436l.697-.494-15.155-93.491C70.712 390.701-.072 503.456-.072 632.745c0 191.435 155.189 346.624 346.624 346.624 135.204 0 252.329-77.41 309.47-190.328l.909-1.98zm101.103-124.416a73.002 73.002 0 00-9.994-8.271l-.246-.16c-9.349-6.412-20.907-10.24-33.36-10.24H379.494l-34.953-215.347h288.358c23.413 0 42.394-18.98 42.394-42.394s-18.98-42.394-42.394-42.394H330.751l-4.745-28.672c-4.889-28.743-29.609-50.353-59.375-50.353-33.238 0-60.183 26.945-60.183 60.183 0 3.472.294 6.875.858 10.186l-.05-.356 61.44 376.525c5.752 29.618 31.04 51.82 61.682 52.768l.099.002h294.537l230.775 230.81c10.911 11.225 26.153 18.19 43.023 18.19 33.122 0 59.972-26.85 59.972-59.972 0-16.878-6.972-32.127-18.193-43.025l-.015-.014zM356.045 70.158c0 63.416-51.409 114.825-114.825 114.825S126.395 133.574 126.395 70.158c0-63.416 51.409-114.825 114.825-114.825 63.416 0 114.825 51.409 114.825 114.825z"/></svg>