<svg width="64" height="64" viewBox="0 0 1006 1006" xmlns="http://www.w3.org/2000/svg"><path d="M225.894 3.333C101.152 3.372.038 104.485 0 229.224v572.215c0 124.758 101.136 225.894 225.894 225.894s225.894-101.136 225.894-225.894V229.228C451.44 104.622 350.531 3.701 225.963 3.334h-.035zm176.675 487.39H49.187V229.228c0-97.593 79.115-176.708 176.708-176.708s176.708 79.115 176.708 176.708zM948.77 625.55c-44.798-52.437-110.987-85.466-184.891-85.466-134.052 0-242.722 108.67-242.722 242.722 0 44.081 11.751 85.417 32.291 121.047l-.624-1.174zm-369.8 314.47c44.798 52.437 110.987 85.466 184.891 85.466 134.052 0 242.722-108.67 242.722-242.722 0-44.081-11.751-85.417-32.291-121.047l.624 1.174zM783.394 37.5h.216c86.716 0 157.013 70.297 157.013 157.013 0 37.332-13.029 71.622-34.788 98.569l.233-.299L733.319 45.692c14.912-5.169 32.099-8.177 49.982-8.226h.023zm0-26.828h-.251c-33.189 0-64.308 8.867-91.115 24.362l.879-.469 209.749 299.93c39.76-33.938 64.807-84.103 64.807-140.118 0-101.552-82.324-183.876-183.876-183.876h-.419.022zm-122.095 85.64l172.749 247.091c-15.025 5.262-32.346 8.301-50.377 8.301-86.716 0-157.013-70.297-157.013-157.013 0-37.382 13.063-71.712 34.874-98.675l-.232.296zm3.414-41.847c-39.9 33.914-65.049 84.142-65.049 140.244 0 101.458 82.248 183.706 183.706 183.706 33.401 0 64.719-8.914 91.707-24.492l-.887.473z"/></svg>