<svg width="64" height="64" viewBox="0 0 775 775" xmlns="http://www.w3.org/2000/svg"><path d="M672.427-105.982H562.484v52.087h109.943l.308-.001c27.957 0 50.62 22.663 50.62 50.62l-.001.325v-.017 696.559l.001.308c0 27.975-22.679 50.654-50.654 50.654l-.289-.001H102.776l-.308.001c-27.975 0-50.654-22.679-50.654-50.654l.001-.325v.017V-2.968l-.001-.308c0-27.975 22.679-50.654 50.654-50.654l.289.001H212.72v-52.053H102.777C45.967-105.963-.081-59.914-.101-3.106v696.561c.039 56.795 46.08 102.824 102.876 102.844h569.653c56.81-.019 102.858-46.068 102.878-102.876V-3.138c-.019-56.81-46.068-102.858-102.876-102.878h-.002zm-134.622-26.76h-56.286c0-52.435-42.507-94.942-94.942-94.942s-94.942 42.507-94.942 94.942h-55.876V-2.319h301.773v-130.423zm-96.324 0h-109.67a52.263 52.263 0 01-.017-1.368c0-30.294 24.558-54.852 54.852-54.852s54.852 24.558 54.852 54.852c0 .481-.006.961-.019 1.439l.001-.071zM253.747 135.512h403.524v49.937H253.747v-49.937zm0 208.964h403.524v49.937H253.747v-49.937zm0 206.541h403.524v50.176H253.747v-50.176zM112.128 103.29h114.347v114.347H112.128V103.29zm0 208.998h114.347v114.347H112.128V312.288zm0 206.575h114.347V633.21H112.128V518.863z"/></svg>