<svg width="64" height="64" viewBox="0 0 1193 1193" xmlns="http://www.w3.org/2000/svg"><path d="M367.172 675.265l92.16-299.008L656.418 824.12l43.622-151.313h474.453c11.456-36.97 18.054-79.472 18.054-123.515 0-17.904-1.09-35.553-3.208-52.885l.207 2.081c-11.981-90.761-61.099-260.301-260.028-299.281-24.884-5.2-53.668-8.409-83.119-8.87l-.371-.005h-5.837c-96.673 1.711-183.267 43.468-244.152 109.34l-.208.228c-61.137-66.036-147.704-107.772-244.038-109.563l-.323-.005h-5.939c-29.813.45-58.598 3.66-86.465 9.385l2.975-.511C119.365 230.079 12.362 350.432 2.071 497.452l-.058 1.035c-1.374 13.205-2.157 28.531-2.157 44.04 0 47.347 7.303 92.989 20.845 135.86l-.87-3.191zm385.775 67.823l-82.569 287.642-199.407-453.086-51.575 167.936H46.387c63.522 140.629 211.627 317.099 549.274 468.753 341.982-153.6 490.257-330.274 552.96-471.04z"/></svg>