<svg width="64" height="64" viewBox="0 0 822 822" xmlns="http://www.w3.org/2000/svg"><path d="M822.067 429.978v-.313c0-58.439-47.374-105.813-105.813-105.813s-105.813 47.374-105.813 105.813c0 53.019 38.994 96.931 89.868 104.62l.585.073v73.66c0 102.627-83.195 185.822-185.822 185.822S329.25 710.645 329.25 608.018V502.99h1.263c15.942-.002 29.169-11.618 31.684-26.847l.025-.187c143.936-27.287 251.369-151.913 251.733-301.699v-335.571a19.5 19.5 0 00-5.768-13.652l-.001-.001a19.255 19.255 0 00-13.567-5.565l-.27.002h-98.188c-10.662.019-19.3 8.657-19.319 19.318v26.387c.019 10.662 8.657 19.3 19.318 19.319h53.421v289.314c-.139 114.889-80.033 211.078-187.285 236.186l-1.643.324c-4.717-12.29-16.422-20.856-30.127-20.856H282.112c-13.664.086-25.317 8.6-30.029 20.601l-.076.22C143.561 384.403 64.141 288.405 63.966 173.827v-289.368h53.419l.273.002c10.67 0 19.319-8.65 19.319-19.319v-26.387-.002c0-10.67-8.65-19.319-19.319-19.319l-.288.002H19.524a22.347 22.347 0 00-.273-.002c-10.651 0-19.285 8.634-19.285 19.285v.038-.002 335.292c.217 149.482 107.058 273.946 248.533 301.425l1.938.313c2.376 14.719 14.491 25.983 29.424 27.028l.101.006v105.335c-.011.842-.017 1.837-.017 2.834 0 129.923 105.324 235.247 235.247 235.247s235.247-105.324 235.247-235.247c0-.996-.006-1.991-.019-2.984l.001.151v-77.892c41.973-14.804 71.533-54.077 71.646-100.27v-.014zm-162.816 0c.058-31.513 25.618-57.037 57.139-57.037 31.557 0 57.139 25.582 57.139 57.139s-25.582 57.139-57.139 57.139c-31.557 0-57.139-25.582-57.139-57.139v-.108.006z"/></svg>