<svg width="64" height="64" viewBox="0 0 1024 1024" xmlns="http://www.w3.org/2000/svg"><path d="M460.933 828.502c-31.637 0-56.32-25.327-56.32-56.798 0-31.163 24.99-56.785 56.32-56.785 17.702 0 31.62 7.117 42.394 19.614l-16.781 14.549c-6.166-7.274-15.501-12.501-25.788-12.501-18.812 0-33.365 15.356-33.365 35.119 0 20.091 15.19 35.281 33.365 35.281 8.072 0 16.926-2.377 22.626-8.069v-13.773h-22.135v-19.131h43.178v41.766c-10.599 12.642-24.521 20.728-43.495 20.728zm84.645-1.443v-18.654h13.755v-73.242h-13.755v-18.82h50.134v18.82h-13.76v73.242h13.76v18.654h-50.134zm107.043 0V737.22h-21.206v-20.877h65.182v20.877h-21.201v89.839h-22.775zm97.865 0V737.22h-21.214v-20.877h65.16v20.877h-21.184v89.839h-22.763zm79.752 0v-18.654h13.751v-73.242h-13.751v-18.82h50.146v18.82h-13.769v73.242h13.769v18.654h-50.146zm95.436 0V716.343h40.328c21.816 0 35.737 14.075 35.737 36.377s-13.927 36.228-35.737 36.228h-17.881v38.11h-22.447zm54.392-74.338c0-10.12-6.481-15.813-17.553-15.813h-14.395v31.471h14.395c10.918 0 17.553-5.534 17.553-15.659zM173.718 616.534c-83.648 0-151.458 67.81-151.458 151.463 0 83.657 67.81 151.471 151.458 151.471 83.669 0 151.466-67.815 151.466-151.471 0-83.653-67.793-151.462-151.466-151.462zm69.96 138.299l-68.911 93.299-68.911-93.299c-5.829-6.857-11.648-30.728 8.367-43.921 17.041-11.239 33.233-2.726 41.719 7.134 3.161 3.682 8.589 8.013 18.825 8.013 10.24 0 15.663-4.335 18.829-8.013 8.482-9.861 24.674-18.373 41.724-7.134 20.015 13.192 14.191 37.06 8.358 43.921z"/></svg>