<svg width="64" height="64" viewBox="0 0 1792 1792" xmlns="http://www.w3.org/2000/svg"><path d="M690.944 1338.018h85.034v141.201h-85.034v-141.201zm91.465-70.588c0 26.588-21.553 48.141-48.141 48.141s-48.141-21.553-48.141-48.141c0-26.588 21.553-48.141 48.141-48.141 26.587 0 48.141 21.553 48.141 48.141zm362.15-62.933c-11.469-28.817-28.408-53.32-50.36-72.824-38.656-34.355-92.915-52.932-157.15-53.986v-.102H631.961v462.682l305.088-.089c66.641-.909 119.437-17.464 156.898-49.336 45.563-38.767 68.668-99.973 68.668-181.918 0-39.168-6.076-74.304-18.057-104.426zm-213.282 305.041H662.695v-401.224h268.582c59.128 0 108.408 16.022 142.511 46.327 38.553 34.262 58.099 86.17 58.099 154.283 0 134.993-65.621 200.614-200.61 200.614zm-87.983-251.089c-.977-2.949-2.329-5.252-4.027-6.848-1.673-1.575-3.849-2.658-6.494-3.23-1.447-.324-4.851-.712-12.856-.712h-4.894v48.674h9.724c4.335 0 7.458-.234 9.293-.7 2.27-.563 4.16-1.519 5.615-2.833 1.43-1.293 2.649-3.559 3.627-6.745 1.029-3.367 1.549-8.085 1.549-14.033 0-5.931-.517-10.496-1.536-13.572zm157.346 19.665c-1.413-3.802-5.479-14.733-7.885-21.197-2.364 6.481-6.349 17.416-7.731 21.197h15.616zm44.352-47.799h20.578v66.014h38.114c-7.791-118.118-99.115-150.605-185.157-150.605H815.022v83.934h11.021c6.95 0 12.151.529 15.894 1.621 5.06 1.494 9.459 4.182 13.069 7.992 3.558 3.755 6.302 8.401 8.149 13.807 1.822 5.334 2.748 11.955 2.748 19.682 0 6.818-.87 12.809-2.582 17.797-2.112 6.144-5.188 11.204-9.139 15.04-3.042 2.965-7.163 5.295-12.258 6.929-3.776 1.195-8.824 1.8-15.006 1.8h-11.899v165.048h103.505c89.664 0 185.067-26.931 185.69-165.048h-59.221v-84.01zm-99.81 84.014h-65.353v-84.672h63.821v18.001h-43.242v13.389h40.222v18.001h-40.222v17.285h44.774v17.997zm69.316 0s-6.085-15.821-7.006-18.219h-29.03c-.891 2.445-6.648 18.219-6.648 18.219h-21.939l32.9-84.672h20.241l33.865 84.672h-22.383z"/></svg>