<svg width="64" height="64" viewBox="0 0 1792 1792" xmlns="http://www.w3.org/2000/svg"><path d="M1042.573 1299.286h-.367v-35.238h38.946c.235 0 .448.013.696.03.235.017.465.034.699.056.231.013.465.034.696.068.264.013.482.047.699.064.235.017.397.056.534.077l.162.034c.235.034.482.086.699.149.235.034.461.094.699.167.231.06.461.124.712.192.247.068.461.158.696.239.217.085.465.166.699.247.251.09.482.209.699.312.251.111.478.205.696.341.247.106.478.243.717.354.231.141.461.273.696.405a9.8 9.8 0 0 1 .696.465c.235.149.482.337.699.507.264.175.482.354.717.563.251.197.478.406.696.623.251.226.465.448.696.699.251.256.482.517.699.785.251.307.482.593.699.896.247.341.482.699.696 1.058.251.409.499.84.712 1.263.269.525.465 1.058.699 1.608.298.746.516 1.553.699 2.368.294 1.276.431 2.632.431 4.066 0 1.408-.167 2.786-.431 4.075a17.179 17.179 0 0 1-.699 2.381 13.49 13.49 0 0 1-.699 1.6c-.213.427-.461.853-.712 1.263a12.79 12.79 0 0 1-.696 1.049c-.217.307-.448.61-.699.9-.217.273-.448.55-.699.781-.231.243-.443.482-.696.7a9.54 9.54 0 0 1-.696.631 8.065 8.065 0 0 1-.717.563c-.217.167-.465.358-.699.507a9.716 9.716 0 0 1-.696.44c-.235.145-.465.294-.696.418-.239.119-.47.251-.717.358-.217.098-.443.234-.696.341-.217.098-.448.184-.699.281-.217.089-.448.188-.699.273-.235.064-.448.154-.696.222-.231.069-.482.137-.712.201-.239.077-.465.124-.699.175-.217.051-.465.085-.699.132l-.162.034c-.136.017-.333.034-.534.077-.201.017-.435.051-.699.064-.231.022-.465.055-.696.072-.235.017-.465.034-.699.047a7.57 7.57 0 0 1-.696.034c-.251 0-.499.022-.699.022h-37.88v-.042zm-.367 59.733h42.351c.217 0 .448-.034.699-.034.213-.043.461-.043.696-.077.251 0 .465-.034.699-.043.251-.026.443-.034.699-.068.247-.026.478-.06.691-.086.256-.034.504-.068.699-.098.149-.043.286-.077.418-.106l.282-.068c.251-.026.448-.089.712-.175.235-.068.465-.132.699-.2.235-.077.465-.183.696-.252.239-.098.465-.166.699-.264s.465-.2.699-.315c.231-.115.461-.217.712-.367.251-.115.448-.235.699-.35.213-.132.482-.264.696-.401.251-.149.478-.298.699-.457.251-.141.478-.325.696-.465.251-.2.482-.367.717-.55.231-.183.461-.384.699-.584.231-.252.461-.457.712-.7.247-.264.482-.49.696-.751.251-.273.482-.542.717-.858s.461-.632.696-.981c.264-.333.465-.734.699-1.075.264-.418.461-.866.699-1.284.247-.567.495-1.101.691-1.698.298-.76.504-1.541.699-2.394.333-1.391.499-2.885.499-4.45 0-1.549-.167-3.025-.499-4.433-.197-.815-.401-1.6-.699-2.385a20.609 20.609 0 0 0-.691-1.625c-.239-.448-.439-.918-.699-1.331-.235-.367-.435-.726-.699-1.092-.235-.333-.461-.666-.696-.969-.235-.281-.435-.567-.717-.824a5.208 5.208 0 0 0-.696-.768 4.228 4.228 0 0 0-.712-.666c-.239-.235-.47-.418-.699-.632-.235-.166-.465-.367-.717-.534a8.601 8.601 0 0 0-.696-.49c-.222-.149-.448-.333-.699-.474-.213-.123-.448-.273-.696-.375-.251-.149-.448-.281-.699-.35-.251-.098-.448-.252-.712-.35-.235-.098-.465-.217-.699-.315s-.461-.2-.699-.281c-.231-.086-.461-.149-.696-.252-.235-.034-.465-.132-.699-.2-.231-.06-.461-.115-.712-.175l-.282-.068c-.128-.026-.278-.06-.418-.077a13.615 13.615 0 0 0-.699-.098 2.904 2.904 0 0 1-.691-.115c-.256 0-.448-.034-.699-.034a4.66 4.66 0 0 0-.699-.06c-.235-.034-.482-.034-.696-.068-.251 0-.482 0-.699-.034h-42.351v38.229zm-58.376-264.111H877.164c-.239.013-.469.013-.7.034l-.734.013c-.2 0-.448.017-.695.034-.239 0-.448.034-.7.034-.197.013-.448.034-.695.047-.235.017-.448.034-.7.051l-.695.064c-.235.022-.465.042-.7.059s-.478.055-.695.09l-.7.064-.7.089c-.231.034-.461.064-.695.107-.235.034-.465.068-.695.081-.235.034-.465.069-.7.115l-.695.115-.7.124c-.235.055-.465.089-.717.136-.217.047-.461.081-.695.141-.252.034-.465.086-.7.137l-.695.149c-.252.047-.465.106-.695.154-.256.051-.465.12-.7.171a6.414 6.414 0 0 0-.695.175c-.256.047-.465.115-.7.17l-.7.209-.695.179c-.252.077-.448.145-.7.209a7.538 7.538 0 0 0-.695.222c-.217.047-.448.137-.7.197l-.712.243a11.28 11.28 0 0 0-.7.235c-.235.089-.461.154-.717.256-.214.081-.443.158-.695.256-.248.068-.443.171-.695.26-.217.081-.482.183-.7.264-.252.089-.482.192-.712.273l-.7.29-.695.29c-.235.098-.465.2-.7.307-.217.102-.461.196-.7.307-.231.094-.461.218-.695.316-.235.111-.465.205-.712.341-.235.106-.448.222-.7.341l-.695.358-.7.354c-.235.12-.478.243-.7.358-.231.124-.443.239-.712.354-.217.141-.465.273-.695.397-.235.119-.465.251-.7.375-.217.137-.465.264-.695.406-.239.136-.465.269-.717.409-.235.128-.448.29-.7.423-.231.132-.443.29-.695.44-.217.141-.448.307-.7.448-.231.149-.482.298-.695.457-.235.149-.448.325-.683.474-.248.162-.461.325-.729.474-.217.162-.465.35-.7.499-.217.171-.461.354-.695.507-.235.179-.465.358-.7.534-.231.166-.461.354-.695.52-.252.192-.465.354-.7.563a6.113 6.113 0 0 0-.695.567c-.252.197-.465.371-.695.568-.239.192-.465.392-.7.597-.252.205-.465.392-.7.618-.252.218-.495.406-.695.623-.252.209-.465.435-.734.648-.214.226-.465.423-.695.649-.235.243-.448.457-.7.695-.235.226-.448.444-.695.7-.235.218-.448.474-.7.713-.235.243-.443.49-.695.734-.235.256-.465.49-.7.747s-.443.516-.7.763c-.231.273-.443.534-.695.802-.235.273-.448.546-.695.819-.252.273-.465.559-.7.849-.252.29-.482.584-.729.875-.217.298-.448.589-.7.913-.235.307-.443.632-.7.943-.231.325-.461.632-.695.955-.235.341-.448.678-.687.999-.243.358-.474.695-.7 1.058-.243.358-.457.712-.7 1.071-.231.379-.469.746-.695 1.13-.235.375-.457.781-.695 1.173-.235.406-.457.815-.7 1.221-.235.435-.457.857-.695 1.275-.239.444-.474.883-.717 1.344-.235.457-.457.93-.7 1.416-.231.49-.469.982-.712 1.494-.235.529-.457 1.058-.7 1.6-.231.563-.469 1.131-.695 1.719-.235.615-.474 1.233-.695 1.865-.256.67-.474 1.353-.7 2.018-.252.746-.474 1.498-.7 2.253-.235.849-.474 1.694-.687 2.569a55.053 55.053 0 0 0-.7 3.025 72.382 72.382 0 0 0-1.506 14.707v94.737c.499-.405.99-.832 1.506-1.241.217-.188.457-.38.7-.563.231-.167.452-.358.687-.546.243-.184.465-.354.7-.525.243-.192.461-.358.7-.52.222-.179.461-.328.695-.504.226-.149.465-.324.695-.486l.7-.482c.243-.149.465-.325.712-.457l.7-.457c.243-.158.461-.303.717-.44.222-.162.461-.29.695-.435.243-.149.465-.278.7-.418.239-.137.461-.273.695-.41.243-.128.465-.29.695-.406.243-.145.457-.273.7-.392l.7-.375.687-.371c.252-.123.465-.26.695-.384.256-.115.465-.231.7-.35l.7-.367.729-.345.7-.346c.231-.106.443-.222.695-.325l.695-.325.7-.325.7-.307.695-.312.7-.29.695-.29.7-.281.695-.273.734-.269c.2-.085.443-.183.695-.273l.7-.264c.2-.089.443-.179.7-.261.231-.081.443-.175.695-.256l.695-.243.7-.252c.235-.068.465-.158.695-.243l.7-.243c.235-.068.461-.149.695-.217l.7-.222.729-.226.683-.197.695-.209.7-.196.695-.205.7-.201 1.413-.371.862-.205.7-.17.695-.175.7-.162.695-.179.7-.166.7-.158.729-.149.695-.154.7-.149.695-.158 1.382-.269.712-.145.7-.128.695-.136.695-.128.717-.115.7-.123.712-.115 1.395-.231.7-.089.695-.115.7-.098.695-.089.7-.098.7-.081.695-.09.695-.102.7-.086.695-.089.717-.081.7-.072.695-.081.7-.068.695-.086.695-.051.7-.072 1.395-.137.7-.047 1.413-.103.691-.042.7-.051.7-.047.717-.034.695-.047 3.486-.171.683-.038.7-.017.734-.034.691-.013.7-.017.7-.013.695-.022h.7l1.395-.025.695-.022h.7l.729-.013h7.675l.699.013h.699l.691.022.699.013h.699l.73.013h.699l.699.022.696.013.696.017.699.013.696.017.699.013.699.034.691.043h.367l.333.013.734.034.696.013.699.034.699.056.691.034.699.03 1.399.102.696.056 1.395.102.696.068.699.064.699.051.696.072.717.051.696.064 1.413.136.699.072.696.09.717.064.696.086.699.064 1.391.179.699.081.712.086.699.089.699.081.696.086.699.098.712.09.699.102.699.094.696.103.696.123.717.081.699.103.691.107.699.115.699.102.712.102.699.107.696.115.683.123.696.115.734.115.699.115.696.145.699.115.696.123.696.133.699.115.699.128.696.133.696.115.699.141.699.149.696.137.699.141.699.128.73.145.696.128.699.149.696.145.699.128.699.162.726.128.699.149.699.158.696.149.699.162.699.149.691.162.699.149.699.175.73.166.699.149.699.175.699.171v30.635l-.699-.354-.699-.346-.699-.354-.73-.337-.699-.341-.699-.358-.691-.325-.699-.341-.699-.324-.696-.325-.699-.328-.699-.325-.726-.298-.699-.303-.699-.307-.696-.307-.699-.307-.696-.29-.73-.29-.699-.286-.699-.29-.696-.29-1.399-.546-.696-.264-.696-.26-.699-.256-.699-.252-.696-.243-.696-.256-.699-.235-.696-.226-.699-.243-.734-.214-1.378-.448-.696-.218-.699-.226-.712-.209-.699-.197-.699-.209-.691-.201-.699-.188-.717-.183-.696-.192-.696-.162-.699-.175-1.413-.345-.699-.167-.696-.158-1.399-.298-.712-.141-.699-.137-.691-.141-.699-.136-.699-.115-.696-.141-.717-.115-.696-.115-.699-.145-.699-.094-.712-.103-.696-.107-1.413-.2-.699-.089-.699-.098-.696-.069-.696-.081-.699-.069-.696-.089-1.033.175-.699-.068-.691-.047-.687-.077-.691-.047-.439-.034-.264-.013-.699-.056-.717-.034-.696-.03-.696-.034-.699-.043-.699-.013-.696-.017-.696-.013h-.699l-.717-.017h-1.392l-.717.017h-.696l-.717.013c-.217 0-.443 0-.699.017-.251.013-.443.013-.699.038l-1.391.069-.7.047-.695.055c-.217.013-.448.034-.7.047s-.443.034-.7.068l-.7.072-.691.089-.7.064-.7.098-.695.107-.7.103c-.231.034-.443.068-.712.115-.217.034-.465.068-.7.111-.231.047-.461.081-.691.128-.239.047-.469.069-.7.137-.256.034-.469.085-.717.141l-.7.137c-.231.064-.443.115-.695.175l-.695.167c-.239.047-.448.115-.7.17-.235.06-.482.12-.678.175-.252.068-.469.128-.734.205l-.7.196c-.214.056-.461.137-.695.209-.239.081-.465.136-.7.217-.231.068-.461.158-.7.226-.231.081-.461.149-.691.239-.239.085-.469.166-.7.264a6.577 6.577 0 0 0-.7.256c-.235.098-.461.192-.695.273-.235.081-.465.179-.7.273-.252.098-.465.196-.695.298-.256.107-.465.209-.7.303-.235.111-.461.226-.7.329-.248.098-.461.222-.695.337-.248.128-.465.226-.729.345-.235.115-.448.243-.7.354-.235.124-.461.243-.695.359-.235.115-.465.256-.7.388-.235.141-.443.273-.7.392-.231.141-.443.29-.695.435-.231.132-.448.277-.695.439-.235.149-.465.307-.7.44-.235.149-.448.324-.695.473-.235.175-.448.325-.7.504-.235.167-.461.337-.695.507-.252.175-.465.358-.7.546a6.971 6.971 0 0 0-.7.559c-.248.205-.478.371-.695.576-.235.209-.465.393-.7.619-.231.196-.461.423-.695.623-.235.226-.465.448-.695.683-.239.226-.482.47-.7.687-.235.256-.465.495-.7.747-.235.256-.461.512-.695.772-.235.248-.465.521-.7.815-.231.269-.461.554-.695.845-.235.307-.465.597-.7.905-.231.325-.478.644-.712.956-.252.345-.465.674-.695 1.016-.256.375-.482.713-.717 1.088-.235.367-.465.773-.7 1.182-.231.405-.478.827-.695 1.255-.235.461-.482.905-.7 1.378-.264.482-.482.99-.712 1.502a34.138 34.138 0 0 0-.7 1.634 35.506 35.506 0 0 0-.695 1.869 41.279 41.279 0 0 0-.7 2.125c-.252.84-.495 1.685-.7 2.56a46.576 46.576 0 0 0-.695 3.298 55.748 55.748 0 0 0-.712 5.133 63.944 63.944 0 0 0-.298 6.264c0 2.146.098 4.258.298 6.264.166 1.767.397 3.461.712 5.125.2 1.101.418 2.21.695 3.286.205.883.448 1.733.7 2.568.217.726.448 1.425.7 2.125a41 41 0 0 0 .695 1.861c.217.534.448 1.067.7 1.668.217.465.443.99.712 1.493.2.435.435.901.7 1.365.217.392.465.824.695 1.224.217.367.465.785.7 1.165.235.367.461.751.717 1.092.214.358.443.666.695.998.235.333.443.632.712.981.217.315.465.593.7.918.235.298.465.559.695.858.235.264.465.534.7.802.235.281.461.525.695.768s.465.49.7.751c.217.226.461.443.7.691.231.235.461.448.695.683.235.2.465.435.695.632.235.2.465.384.7.601.217.209.448.358.695.601.217.158.448.341.7.525.217.2.448.367.7.534.235.166.443.367.695.49.235.183.465.358.7.507.248.123.461.298.695.457.235.149.465.298.7.435.248.106.465.298.695.418.252.115.465.315.695.418.256.132.465.281.7.401.235.132.465.264.7.384s.461.226.695.341c.252.141.465.264.7.367.248.115.482.235.729.333.235.141.448.235.695.367.2.098.452.217.7.315.235.115.443.217.7.315.231.115.443.217.695.315.235.086.448.183.7.281.235.068.461.2.695.273.235.089.465.175.7.29.231.068.461.158.7.226.231.077.461.175.691.26.239.068.469.141.7.217.235.089.461.158.7.226.235.068.461.149.695.217.239.068.482.132.7.2.231.086.465.149.734.217.197.034.443.098.678.166.252.034.461.115.7.166l.695.166c.252.068.465.098.695.166.256.068.465.098.7.132.248.068.461.115.717.149.231.068.461.098.7.149.231.043.461.077.691.132.235.034.469.089.7.123.235.034.461.077.712.106.222.034.469.068.7.098l.695.089.7.115.7.068.691.086.7.068c.256.034.448.068.7.068.252.034.482.034.7.068l.695.043.7.06.699.034.691.051c.256 0 .448 0 .699.043h.699l.717.026h4.22l.696-.026h.696l.699-.043.699-.051 1.391-.068.717-.026.699-.043.264-.034.439-.034.691-.034.687-.086.691-.051.699-.06.699-.077.696-.098.699-.068.699-.06.691-.098.699-.106.699-.089.699-.098.73-.149.699-.115 2.091-.295.699-.149.73-.115.699-.115.696-.149.696-.132.699-.166.699-.132.696-.166.696-.132.699-.158.696-.175.699-.149.734-.183.696-.158 1.395-.367.696-.2.699-.166 1.399-.435.691-.2.699-.2.734-.2.696-.2.699-.243.699-.217 1.378-.478.691-.226.699-.235.699-.252.696-.252.712-.264.699-.235 1.399-.529.696-.281.696-.273.699-.264.696-.281 1.399-.563.712-.315.699-.298.712-.281.696-.315.699-.315.699-.307.712-.298.699-.333.696-.35.699-.315.712-.333.699-.333.699-.35.691-.35.699-.333.717-.325.696-.367.696-.333.699-.367v30.609l-.699.166-.696.183-.696.166-.717.183-.699.166-.691.166-.699.166-.699.132-.712.166-.699.166-.913.567-.699.149-.699.123-.696.149-.696.175-.699.123-.73.175-.699.123-.699.166-1.391.264-.699.098-2.786.529-.699.149-.699.115-.717.115-.696.149-.696.098-1.399.264-.712.115-.699.115-.696.132-.699.089-.696.068-.717.141-.699.089-.691.098-1.399.231-.717.098-.691.098-.699.132-.699.086-.699.098-.712.098-.696.115-.699.098-.699.068-.691.098-.721.086-.696.086-.696.077-.699.089-.696.06-.699.106-1.413.137-.678.086-.699.077-.73.077-.699.068-.699.043-.691.055-.691.068-.699.034-.699.077-.696.06-.699-.026-.699.06-.691.034-.699.068-.699.034-.696.051-.699.034-.73.034-1.395.068h-.346l-.354.017-1.395.034-2.091.103h-.699l-.734.034h-.696l-.696.034h-.699l-.696.034h-2.829l-.699.034h-7.347l-.695-.034h-1.395l-.734-.034h-.7l-.7-.034h-.691l-2.095-.103-.7-.017-2.091-.103-.666.098-2.091-.103-.7-.043-.695-.06-.7-.051-.695-.034-.7-.068-.729-.034-.7-.06-.7-.068-.695-.043-.7-.068-.695-.077-.695-.086-.683-.068-.695-.086-.7-.068-.717-.115-.695-.068-.7-.106-.695-.06-2.095-.295-.695-.051-.7-.115-1.395-.197-.695-.132-.695-.115-.717-.115-.7-.132-.712-.132-.7-.098-.695-.089-.7-.141-.712-.132-1.399-.264-.695-.149-.695-.158-.7-.149-.712-.175-.7-.158-.695-.149-.7-.166-.7-.183-.712-.166-.695-.2-.7-.183-.695-.217-.738-.179-1.395-.401-.7-.192-.695-.217-.695-.235-.717-.149-.683-.2a6.771 6.771 0 0 0-.695-.252c-.252-.086-.465-.166-.7-.252l-.499-.333-.729-.235c-.235-.098-.448-.166-.695-.264-.235-.068-.448-.183-.7-.26l-.695-.273c-.235-.089-.448-.2-.7-.264l-.7-.273-1.391-.563-.7-.315-.695-.298-.7-.298-.695-.298-2.095-.998c-.235-.089-.465-.235-.712-.333l-.7-.341-.712-.35-.7-.35a6.346 6.346 0 0 0-.7-.35c-.231-.132-.461-.281-.695-.367l-.7-.392-.695-.358-.695-.273c-.243-.132-.465-.281-.7-.401-.243-.141-.465-.298-.7-.401l-.695-.418c-.243-.149-.457-.315-.7-.418a5.916 5.916 0 0 0-.712-.435l-.7-.465c-.243-.149-.452-.333-.712-.457l-.7-.448c-.239-.183-.474-.367-.695-.499-.243-.166-.474-.35-.7-.482-.243-.183-.457-.35-.7-.499-.239-.158-.452-.367-.695-.525-.243-.175-.452-.367-.695-.55s-.474-.35-.7-.55c-.507-.418-1.019-.832-1.498-1.267v167.1H914.427c.239 0 .465 0 .699-.009.231-.026.465-.026.699-.026.231 0 .461-.017.699-.017l.691-.034.699-.051c.235-.017.461-.017.699-.026.235-.026.461-.034.696-.06l.712-.068c.217-.026.465-.026.699-.06.251-.034.465-.077.712-.106.239-.034.47-.034.699-.068.235-.034.461-.068.699-.089l.696-.098c.235-.034.465-.077.717-.106.247-.034.448-.077.696-.106.251-.043.448-.077.699-.132l.699-.123.691-.123c.256-.068.482-.098.699-.149.251-.034.448-.086.717-.149l1.395-.333c.235-.034.461-.098.696-.166s.465-.115.699-.183c.231-.068.461-.115.712-.2.217-.086.448-.115.699-.183l.696-.2.699-.192c.251-.077.478-.141.699-.243.231-.06.443-.123.712-.2.235-.098.461-.183.699-.252l.691-.273.699-.235c.235-.086.47-.166.699-.252.235-.086.461-.183.717-.281.231-.068.443-.183.696-.264.213-.086.448-.183.696-.298l.699-.298.699-.273.712-.325c.217-.089.461-.217.699-.333.235-.089.461-.192.696-.333.217-.123.465-.226.699-.341.231-.098.461-.217.699-.35.231-.098.461-.252.691-.367.235-.115.47-.264.699-.367l.699-.367.696-.358.699-.392a6.53 6.53 0 0 1 .696-.375c.251-.141.465-.298.696-.401.251-.166.504-.298.699-.418.251-.149.448-.298.699-.418.251-.132.448-.315.699-.448.264-.149.443-.307.73-.448.217-.123.443-.298.696-.426.235-.132.435-.333.699-.499.235-.149.443-.333.696-.465.251-.183.448-.35.699-.499.251-.166.448-.35.699-.499.247-.158.443-.367.73-.525a9.88 9.88 0 0 1 .696-.542c.235-.158.435-.341.699-.559.235-.166.431-.35.696-.55.235-.217.448-.35.699-.601.251-.183.448-.35.699-.55.247-.226.443-.435.696-.623.251-.235.465-.401.696-.632.256-.217.465-.418.699-.632.247-.235.448-.435.73-.666.239-.235.435-.448.699-.691.235-.243.448-.448.699-.7.231-.235.443-.465.696-.7.251-.264.443-.499.696-.734.256-.26.448-.517.699-.768.235-.226.448-.517.696-.76.239-.281.465-.534.699-.802.231-.298.443-.567.699-.841.231-.298.443-.593.699-.883.231-.298.443-.584.691-.866.235-.333.448-.618.699-.935.235-.307.448-.632.699-.943.235-.315.461-.649.696-.969.235-.35.465-.683.734-1.015.231-.367.431-.691.699-1.058.197-.367.431-.717.691-1.067.239-.367.448-.734.687-1.127.247-.401.461-.768.678-1.182.264-.418.482-.815.699-1.25.264-.418.473-.841.712-1.293.247-.418.482-.901.696-1.365.251-.448.482-.935.699-1.425.251-.482.478-1.015.699-1.502.247-.559.478-1.075.691-1.642.286-.584.482-1.152.721-1.75.264-.632.461-1.259.696-1.907.264-.7.478-1.391.696-2.074.264-.768.482-1.549.699-2.325.264-.901.482-1.8.696-2.692.298-1.067.499-2.168.712-3.26a67.02 67.02 0 0 0 .699-4.327c.384-3.059.601-6.149.601-9.267v-361.907h-1.95zm-200.236 0H676.898c-.235 0-.452.013-.695.034l-.704.013c-.235 0-.457.017-.695.034-.235 0-.457.034-.7.034-.235.013-.457.013-.687.047l-.717.051-.695.064c-.243.022-.482.042-.717.059-.226.017-.465.055-.695.069l-.7.081-.695.089c-.243.034-.465.047-.7.106a7.845 7.845 0 0 1-.695.081c-.243.034-.465.068-.7.115l-.7.115c-.239.042-.478.077-.712.123-.243.055-.465.089-.695.137s-.465.081-.7.141c-.243.047-.482.103-.712.15l-.7.149c-.243.06-.457.111-.717.158-.226.047-.452.115-.695.166-.243.06-.457.111-.7.179-.243.064-.469.115-.695.162l-.712.192c-.243.064-.457.115-.7.196-.243.072-.457.141-.7.205-.222.068-.457.136-.695.226-.243.064-.457.149-.7.213l-.695.243-.717.243c-.239.081-.452.149-.695.251-.226.073-.457.158-.7.243-.239.081-.457.167-.695.256l-.542.264-.712.273-.7.29c-.243.098-.461.192-.7.295-.222.094-.461.217-.695.325-.243.102-.482.196-.712.307-.243.098-.465.214-.7.316-.243.123-.465.226-.695.35a6.873 6.873 0 0 0-.7.354l-.7.367a4.169 4.169 0 0 0-.695.346c-.243.128-.457.243-.717.367-.226.115-.461.248-.695.371-.243.115-.482.264-.695.389-.243.136-.457.251-.7.375-.243.128-.457.29-.7.406-.239.136-.474.273-.712.409-.243.132-.457.29-.7.418-.243.145-.452.294-.696.426a8.58 8.58 0 0 1-.7.448c-.239.149-.452.307-.696.456-.243.15-.474.325-.696.47-.243.162-.457.325-.717.503-.226.15-.457.325-.7.487l-.696.516c-.243.167-.457.354-.7.525-.243.188-.47.358-.713.52-.243.192-.457.367-.696.563-.239.192-.457.358-.7.563-.218.183-.457.392-.7.593-.234.188-.457.371-.696.598-.234.188-.457.392-.717.598-.214.196-.452.405-.696.606-.234.226-.457.435-.717.648-.218.222-.452.431-.696.645-.234.243-.457.456-.7.699-.234.222-.457.457-.696.7-.234.234-.457.473-.7.712-.234.239-.47.486-.7.726-.231.26-.47.503-.713.746-.234.26-.452.517-.696.768-.234.273-.457.534-.717.806-.234.264-.457.538-.7.815-.231.269-.452.563-.696.845-.234.294-.474.584-.7.875-.231.286-.47.597-.687.896-.243.307-.461.619-.717.943-.222.325-.461.632-.696.956-.243.346-.465.683-.7.999-.239.35-.478.695-.696 1.037-.261.358-.482.713-.713 1.071-.243.367-.465.76-.7 1.114-.243.392-.465.781-.7 1.173-.239.406-.478.815-.696 1.221-.243.435-.482.857-.7 1.275-.243.444-.478.896-.696 1.344-.243.457-.482.93-.717 1.416-.239.49-.461.982-.696 1.494-.243.529-.465 1.058-.696 1.583-.243.581-.482 1.144-.7 1.715-.261.618-.457 1.233-.7 1.851-.243.687-.47 1.365-.713 2.043-.243.746-.457 1.498-.7 2.253-.243.849-.487 1.694-.696 2.569a63.532 63.532 0 0 0-.7 3.025 72.653 72.653 0 0 0-1.498 14.728v178.726c.507.264 1.002.465 1.498.717l.7.35.696.325.7.333.713.333 1.399.666.696.298.696.35.717.273.696.333.7.298.696.298.7.315.7.281.713.298.696.298.7.298.696.29.717.264.687.298.7.252.696.281.7.252.717.281.696.264.713.235.7.264.7.235.696.243.7.29.696.226.717.2.696.273.717.209.696.235.7.217 1.395.401.713.217.7.183.696.217.7.2.717.183.696.158.696.209.7.158.696.2.7.166.712.183.7.166.7.183.695.132.695.166.717.132.695.132.7.166.7.132.695.149.7.098.712.123.695.106.7.141.7.106.712.123.7.098.695.077.7.089.687.098.726.098.687.077.7.06.695.086 1.395.137.717.034.695.068.7.034.695.068h.717l.695.051 2.112.103h1.413l.695.034h2.094l.7-.034h.695c.243 0 .474-.034.712-.034.243-.034.457-.034.7-.034.243-.034.457-.034.717-.086.222 0 .452 0 .695-.034s.457-.034.7-.068l.695-.068c.243-.034.452-.068.695-.098.243 0 .457-.026.7-.086l.7-.098c.235-.026.452-.098.695-.132.235-.034.457-.098.7-.132.231-.034.469-.089.712-.123.235-.043.457-.106.7-.141.231-.068.452-.123.695-.158.217-.068.457-.141.695-.209.239-.086.457-.115.7-.175.235-.068.474-.132.7-.2.235-.086.457-.149.712-.217.217-.068.457-.166.7-.235.231-.098.452-.166.695-.235.235-.098.457-.2.7-.264.235-.098.452-.183.691-.281s.478-.2.712-.315c.243-.098.465-.2.695-.298.243-.098.465-.226.7-.325.226-.106.465-.235.695-.35.243-.132.482-.243.7-.35.243-.132.478-.264.695-.401.243-.098.465-.235.717-.367.226-.132.465-.281.695-.418.243-.132.465-.315.7-.418.243-.166.465-.35.695-.465.243-.158.465-.333.7-.49.239-.166.465-.367.695-.534.243-.166.465-.35.7-.534.243-.2.457-.384.7-.584.26-.217.478-.435.712-.623.243-.217.457-.418.695-.666.243-.252.457-.448.7-.734.243-.252.474-.499.712-.734.243-.281.457-.534.7-.802.243-.307.474-.567.717-.875.243-.333.452-.632.695-.969.243-.298.474-.632.7-.998.239-.367.469-.726.695-1.092a37.6 37.6 0 0 0 .695-1.199c.243-.448.474-.926.7-1.365.243-.474.474-1.024.7-1.523.256-.601.469-1.144.695-1.775.26-.7.49-1.399.7-2.125.273-.918.503-1.817.695-2.791.325-1.531.559-3.111.717-4.711.098-1.267.149-2.56.149-3.909v-83.955h62.255v83.976c0 2.449-.098 4.842-.337 7.215a68.517 68.517 0 0 1-.7 4.983c-.209 1.084-.426 2.202-.7 3.277-.205.883-.44 1.75-.695 2.59a53.739 53.739 0 0 1-.7 2.159c-.226.632-.44 1.233-.695 1.869a34.776 34.776 0 0 1-.712 1.659c-.226.534-.457 1.05-.7 1.523-.226.474-.457.96-.717 1.399-.222.435-.452.883-.695 1.301-.243.401-.457.802-.7 1.165-.243.358-.452.76-.695 1.127-.226.333-.452.7-.695 1.033-.243.358-.457.691-.7 1.024-.235.315-.457.632-.7.952-.235.298-.452.584-.695.866a12.92 12.92 0 0 1-.7.824c-.217.281-.452.567-.695.849-.217.264-.457.517-.7.768-.231.264-.452.482-.712.734-.217.235-.457.448-.695.691-.222.235-.443.448-.7.7-.217.235-.457.418-.7.632-.235.235-.457.418-.695.666-.235.192-.457.375-.687.576-.243.183-.465.35-.726.576a6.632 6.632 0 0 1-.691.542c-.226.217-.461.367-.7.534-.222.217-.461.367-.695.534-.243.166-.465.333-.695.49-.243.166-.465.333-.717.474a3.516 3.516 0 0 1-.695.443c-.243.183-.465.35-.7.465a6.663 6.663 0 0 1-.695.448c-.243.132-.465.281-.7.401-.243.149-.465.298-.7.392a4.422 4.422 0 0 1-.712.418 4.987 4.987 0 0 1-.695.384c-.226.115-.465.252-.7.367-.243.132-.465.264-.695.367a9.337 9.337 0 0 1-.717.35c-.226.115-.465.252-.7.367-.222.098-.452.2-.695.315-.226.123-.457.235-.695.367l-.7.333-.712.298c-.226.106-.457.209-.7.341-.243.086-.474.183-.717.281l-.695.298-.7.298c-.239.098-.452.166-.695.264a4.936 4.936 0 0 1-.695.281c-.226.098-.474.183-.7.281l-.717.264c-.239.068-.452.158-.695.226-.243.106-.457.175-.717.264l-.695.252-.695.235c-.243.086-.474.149-.7.217l-.7.235-.712.2c-.217.068-.457.166-.7.235l-.695.217c-.217.068-.457.098-.7.166-.235.068-.469.132-.712.217l-.7.158c-.235.077-.457.175-.695.209-.217.06-.457.123-.7.2l-.695.158a4.946 4.946 0 0 1-.7.166c-.231.077-.452.115-.712.183l-.7.132c-.235.068-.457.098-.695.183l-.7.132-.687.132a9.386 9.386 0 0 0-.7.166l-2.095.397c-.256.034-.461.098-.695.132-.243.034-.482.068-.717.115l-.695.098c-.226.068-.465.089-.695.132l-1.399.214-.712-.35c-.226.034-.443.086-.7.089l-.695.123-.7.06-.695.106-.729.123-1.395.179-.695.086-.7.068-.7.094-.7.068-.695.077-.7.068-.695.022-.717.068-.695.068-.717.026-.695.043-.7.034-1.413.103-.61.086-.695.051-.695.034-.7.022h-.695l-2.812.137h-.695l-.695.034h-.7l-.717.034h-.695l-.7.034h-9.758l-.695-.034h-2.112l-.695-.034h-.717l-.687-.034h-.7l-.695-.034h-.7l-2.808-.137-.618-.086-2.82-.137-.7-.051-.7-.034-.695-.043-.717-.06-.695-.034-.7-.068-.695-.026-.7-.068-.695-.043-.717-.068-.7-.017-.7-.086-.695-.043-.61-.115-.712-.068-.7-.06-.7-.055-.695-.068-.712-.068-.7-.106-1.395-.154-.7-.06-.695-.068-.717-.086-1.391-.197-.7-.068-.7-.098-.712-.068-.7-.098-1.395-.171-1.391-.197-.717-.068-.7-.098-.696-.132-.7-.086-.713-.098-1.395-.214-.7-.098-.696-.123-.717-.106-.696-.098-.717-.089-.696-.132-.7-.106-.696-.123-.7-.115-.7-.132-.713-.115-.696-.132-.717-.132-.7-.132-.696-.115-.7-.132-.687-.115-.717-.132-.696-.132-.7-.141-.696-.175-.713-.149-.7-.158-.7-.141-.696-.132-1.395-.298-.717-.158-.696-.149-.696-.166-.7-.149-.7-.2-.713-.166-2.095-.499c-.986-.281-1.498-.401-1.498-.401v152.525H713.872c.235 0 .474 0 .717-.034h.695c.222 0 .457-.034.7-.034l.7-.034.695-.051c.235-.017.457-.017.7-.034.231-.009.452-.034.695-.043l.691-.077c.239-.034.461-.034.695-.068.243-.034.465-.068.7-.098.243-.026.461-.026.712-.06.243-.034.465-.089.7-.115l.695-.068c.226-.034.465-.068.7-.115.239-.034.461-.089.695-.115.243-.051.465-.089.7-.123l.712-.123c.226-.034.465-.098.7-.132.243-.068.465-.098.695-.132.243-.034.465-.098.7-.166l.712-.166.7-.166c.243-.051.461-.115.7-.183.222-.034.452-.098.695-.166s.452-.115.695-.183c.243-.098.457-.132.717-.2l.695-.2.717-.2c.226-.068.457-.123.7-.226.239-.077.452-.149.695-.226.243-.098.457-.158.695-.226l.7-.281.695-.235c.243-.068.474-.166.717-.264.243-.068.457-.166.7-.264.239-.086.452-.149.712-.252.243-.098.457-.217.7-.315.226-.068.452-.2.695-.298l.695-.29.7-.325c.235-.089.457-.192.717-.307.217-.098.452-.235.695-.333.235-.132.457-.235.7-.333.231-.132.452-.235.695-.367.252-.115.469-.217.712-.35.235-.115.457-.252.7-.35l.7-.358c.217-.141.452-.264.695-.409.235-.132.457-.26.7-.341.231-.149.469-.281.695-.401.235-.132.457-.264.717-.418.214-.132.452-.281.695-.401.235-.132.474-.298.695-.435.239-.166.457-.29.7-.418.235-.175.457-.315.7-.465.235-.132.474-.29.717-.443.214-.141.452-.325.687-.465.239-.166.461-.333.695-.465.226-.166.465-.35.7-.499.243-.2.478-.367.7-.517.239-.183.461-.341.695-.525.243-.183.465-.358.712-.517.226-.183.465-.367.7-.567.243-.166.465-.367.695-.567.243-.2.465-.367.7-.567.243-.235.461-.392.695-.601.243-.209.465-.392.7-.623.243-.2.457-.401.7-.632.243-.2.452-.401.695-.666.243-.2.452-.401.695-.632.243-.26.457-.443.7-.7.243-.226.457-.457.695-.691.243-.264.474-.448.717-.7.243-.264.457-.499.7-.734.239-.264.452-.49.712-.76.243-.264.457-.542.695-.802.243-.264.457-.534.7-.802.243-.281.474-.567.695-.824.243-.298.457-.567.7-.866s.457-.567.7-.901c.239-.315.457-.593.695-.918.243-.298.457-.61.7-.926.243-.35.452-.666.695-.981.235-.367.474-.7.7-1.033.231-.367.469-.691.695-1.058.235-.35.474-.734.717-1.067.235-.358.452-.768.695-1.135.235-.341.474-.76.7-1.144l.695-1.259c.235-.426.457-.841.7-1.284.231-.435.469-.918.695-1.365.235-.465.457-.952.7-1.433.235-.49.469-1.007.695-1.51.235-.55.474-1.075.691-1.625.26-.601.482-1.152.721-1.775.235-.632.457-1.267.691-1.882.239-.691.478-1.391.695-2.091a64.02 64.02 0 0 0 .7-2.342c.26-.901.495-1.784.695-2.701a54.85 54.85 0 0 0 .7-3.234c.273-1.433.517-2.893.712-4.356.375-3.034.601-6.135.601-9.267v-361.736h-1.63zm400.768 0h-106.905a7.96 7.96 0 0 0-.696.034l-.699.013c-.231 0-.448 0-.699.017-.247 0-.478.03-.712.03-.217.022-.461.034-.696.055l-.717.034-.696.064a9.829 9.829 0 0 0-.699.069c-.231.022-.482.055-.712.077l-.699.069a8.947 8.947 0 0 0-.699.081c-.231.034-.461.051-.712.086-.235.042-.448.072-.696.106-.239.017-.448.069-.712.098l-.699.115c-.235.034-.465.068-.699.111-.235.047-.461.094-.699.132-.231.034-.461.081-.696.132l-.708.141-.696.149c-.235.051-.465.115-.696.162a5.893 5.893 0 0 0-.699.167c-.251.068-.495.115-.699.175l-.696.184a6.287 6.287 0 0 0-.73.192c-.235.068-.465.115-.699.196-.213.069-.465.141-.696.209-.239.069-.465.137-.699.201-.251.072-.465.141-.699.222l-.73.226c-.217.081-.465.149-.699.231-.231.081-.461.158-.696.256-.235.068-.448.175-.696.243-.251.085-.448.171-.699.251l-.699.273-.73.273c-.217.081-.435.179-.699.29-.231.081-.443.179-.696.286-.235.103-.448.197-.696.298-.239.111-.435.209-.699.307-.251.106-.448.222-.699.325-.251.103-.443.226-.699.346l-.691.337c-.256.115-.448.243-.699.354-.251.115-.448.243-.699.354-.247.119-.448.243-.73.358-.217.123-.435.26-.699.375-.231.115-.431.256-.699.375-.231.12-.443.269-.691.384-.239.145-.439.273-.699.423-.235.128-.435.264-.699.405-.247.137-.448.29-.696.427l-.699.44a9.272 9.272 0 0 1-.734.457l-.691.448-.699.474c-.235.149-.47.325-.699.49l-.696.499c-.239.171-.465.342-.699.508-.231.175-.465.341-.699.516l-.696.542-.696.55c-.235.183-.482.371-.699.555-.235.192-.461.375-.699.584-.235.209-.461.392-.696.597-.235.197-.465.406-.734.606-.231.205-.443.418-.696.619-.235.222-.465.426-.683.644-.251.217-.482.426-.712.653-.235.214-.461.44-.699.679-.231.217-.461.456-.712.7-.247.231-.461.474-.699.712-.247.248-.461.486-.696.726-.217.251-.465.495-.699.746-.251.252-.478.529-.699.781-.247.261-.478.507-.712.785s-.461.55-.696.837c-.235.286-.465.554-.699.832-.231.294-.465.584-.696.862-.235.307-.482.618-.699.926-.235.303-.461.615-.696.921-.235.325-.482.64-.699.965-.231.325-.461.665-.712 1.002-.217.341-.448.7-.699 1.037-.247.363-.482.717-.696 1.075-.251.371-.482.746-.699 1.118-.251.393-.478.781-.712 1.157l-.699 1.229c-.231.406-.461.827-.699 1.28-.231.44-.461.879-.691 1.336-.264.482-.47.943-.717 1.416-.251.495-.482.986-.699 1.506-.251.521-.443 1.071-.699 1.596a30.739 30.739 0 0 0-.696 1.72 53.582 53.582 0 0 0-.696 1.851 48.317 48.317 0 0 0-.699 2.043c-.251.729-.482 1.493-.712 2.24-.235.84-.47 1.702-.699 2.551a72.532 72.532 0 0 0-.717 3.046 73.417 73.417 0 0 0-1.494 14.763v75.144l108.923.179.696.034.435.034.965.047.696.06 1.395.102.696.081.699.068.699.09 1.429.166.696.103c.235.034.448.077.696.123l.699.115c.251.034.465.085.699.137.264.038.461.106.699.141l.691.133c.264.051.482.119.734.158.247.055.448.115.699.171l.696.188c.264.051.465.115.699.171.264.069.461.128.699.205.264.069.478.133.691.218.264.072.47.141.699.209.264.081.461.149.699.243.264.064.461.149.73.231.239.069.448.175.699.256.251.081.461.17.699.26.231.094.461.183.691.29.264.098.482.184.699.298.235.107.461.192.734.29.235.123.448.226.696.325.239.102.448.243.699.346.197.098.443.226.699.354.231.115.461.243.691.354.239.115.47.261.699.375.235.128.47.269.699.406.235.141.482.29.696.426.239.162.465.29.699.448.231.149.482.307.699.457.231.149.461.325.726.487.205.179.448.345.699.516.235.184.448.354.699.559.235.175.461.371.699.58.235.192.461.389.696.619.231.197.465.418.683.644.247.217.461.44.712.67.235.261.465.504.696.743.239.264.482.507.717.781.251.273.478.555.696.827.256.307.482.598.717.905.235.337.482.649.699.977.231.367.461.712.696 1.079.235.393.482.781.696 1.186.239.443.482.896.699 1.365.264.507.482 1.037.699 1.578.264.632.495 1.263.712 1.912.251.802.499 1.63.699 2.483a33.95 33.95 0 0 1 .712 4.216c.098 1.13.167 2.299.167 3.503 0 1.127-.068 2.253-.167 3.379-.145 1.413-.367 2.791-.712 4.13-.201.84-.423 1.668-.699 2.47-.217.644-.443 1.28-.712 1.911-.217.52-.435 1.071-.699 1.591-.217.478-.461.939-.699 1.395-.213.41-.461.819-.696 1.233-.235.371-.465.726-.696 1.105-.217.354-.465.7-.699 1.019-.235.325-.461.623-.717.935-.217.286-.443.581-.696.87-.235.269-.448.537-.717.798-.213.261-.461.517-.696.763-.235.243-.465.482-.712.721-.217.222-.452.444-.683.679-.235.209-.461.427-.696.631-.239.205-.465.405-.699.614-.231.184-.465.375-.699.559-.251.188-.461.358-.699.546-.247.167-.461.341-.726.504-.217.175-.47.328-.699.482-.235.149-.461.315-.699.457-.213.149-.461.286-.696.44-.231.137-.465.286-.699.418-.231.132-.461.269-.699.388a4.684 4.684 0 0 1-.691.345c-.235.132-.47.251-.699.367-.251.128-.461.231-.699.367-.247.115-.461.214-.696.345-.251.115-.443.218-.734.311-.217.102-.435.205-.699.298-.231.089-.431.205-.691.298-.239.069-.448.184-.699.269-.251.085-.448.162-.699.248-.247.085-.461.149-.73.251-.239.069-.435.149-.699.234-.231.069-.435.132-.699.218a6.832 6.832 0 0 1-.691.218c-.239.064-.439.128-.699.196-.235.072-.435.115-.699.184a7.739 7.739 0 0 0-.696.184c-.235.034-.452.102-.699.132l-.734.167c-.217.051-.431.098-.691.149l-.699.128c-.235.034-.435.089-.699.119l-.699.128-.623.102v.827l.657.047.699.055.699.064.696.069.696.072.734.098.696.064c.251.034.448.069.699.098l.699.137c.247.034.448.064.696.115l.699.111.696.132c.256.069.448.098.699.132.247.069.448.098.73.162.217.055.435.089.699.154.235.051.448.098.699.166.231.047.443.115.696.183s.443.128.696.162c.235.089.448.137.734.217l.696.2c.205.089.435.149.699.217.197.068.435.166.699.231.231.089.443.149.696.239.235.064.443.162.696.235.235.098.448.183.699.264.235.086.448.171.696.269.239.098.448.2.699.298.231.098.448.2.678.281.251.089.465.217.751.307.201.106.435.209.696.325.235.089.439.209.683.341.251.098.465.217.699.35.251.115.443.252.696.35.247.132.461.252.683.384.264.132.461.252.712.384.251.149.465.281.699.409.247.149.482.29.712.418.264.175.461.315.699.465.264.132.482.315.712.465.247.149.465.333.696.499.251.166.465.333.699.499.251.166.482.367.699.525.247.209.461.367.699.593.247.183.473.375.691.593.256.217.47.418.717.618.235.235.465.465.699.666.264.252.478.465.712.7.251.26.465.49.699.76.278.264.482.534.699.802.247.264.473.567.712.832.264.298.461.61.696.926.269.315.465.632.699.969.264.367.465.734.696 1.084.264.384.465.785.699 1.173.264.435.461.883.717 1.331.247.534.443 1.007.691 1.541.286.584.482 1.182.699 1.817.286.726.482 1.493.699 2.291.312 1.127.516 2.308.696 3.524.201 1.459.316 2.966.316 4.519 0 1.591-.115 3.158-.316 4.651-.179 1.267-.384 2.483-.696 3.656-.217.802-.414 1.6-.699 2.377-.217.632-.414 1.267-.699 1.882-.247.525-.414 1.041-.691 1.575-.217.482-.448.918-.717 1.374-.235.443-.435.841-.699 1.233-.231.35-.435.768-.696 1.118-.235.341-.431.666-.699 1.007-.235.333-.431.632-.696.969-.239.298-.435.601-.712.901-.217.264-.448.525-.699.793a7.937 7.937 0 0 1-.699.768c-.235.29-.448.482-.712.734-.235.264-.439.448-.699.7a8.465 8.465 0 0 1-.717.632c-.217.192-.443.409-.691.623-.239.2-.452.384-.699.567-.217.2-.448.367-.699.567-.235.183-.448.367-.699.534-.231.2-.448.35-.696.534-.231.158-.443.307-.712.448-.217.158-.435.341-.699.443-.231.166-.435.315-.712.435-.217.132-.448.298-.699.435-.235.115-.448.264-.712.401-.222.132-.439.264-.683.358-.251.123-.443.273-.696.367-.235.106-.448.26-.699.367-.247.115-.448.264-.683.367-.264.106-.461.226-.696.333-.264.098-.465.2-.751.298-.231.098-.448.2-.678.333-.251.098-.461.183-.699.281-.247.115-.461.217-.696.315-.251.086-.465.166-.699.252-.251.086-.461.183-.696.252-.251.098-.465.158-.696.252-.251.086-.47.158-.699.243l-.699.243c-.264.06-.461.123-.696.192-.264.068-.465.149-.734.2-.251.068-.443.132-.696.2s-.448.098-.696.166c-.251.068-.465.098-.699.183-.264.068-.465.115-.699.166l-.73.149c-.251.034-.443.132-.699.166a5.753 5.753 0 0 0-.696.132l-.699.098-.696.132c-.251.034-.448.06-.699.098-.251.034-.448.068-.699.098-.247.034-.461.068-.696.098l-.734.06c-.231.034-.443.068-.696.068a3.822 3.822 0 0 1-.696.077h-.699l-.699.068-1.391.068-.977.089c-.239.026-.448.026-.717.034-.235 0-.465 0-.699.026l-.696.009h-113.233v147.541l107.158-.017h.699l1.391-.034c.264 0 .499 0 .734-.017.235 0 .461-.017.699-.034l.696-.034c.264-.009.465-.034.696-.051a8.29 8.29 0 0 0 .699-.068 3.96 3.96 0 0 0 .696-.077c.269 0 .465-.043.699-.043.264-.034.465-.068.699-.098.264 0 .461-.034.73-.068.235-.026.465-.06.699-.06l.696-.141.696-.098.699-.089c.251-.034.465-.068.699-.132.264-.043.461-.077.699-.132l.691-.132.734-.149c.247-.051.448-.098.699-.149.264-.051.461-.098.696-.166l.699-.166.699-.183.691-.183a4.17 4.17 0 0 0 .699-.2c.264-.068.461-.132.699-.2.264-.068.461-.098.73-.2l.699-.2c.251-.068.461-.132.699-.192l.691-.252c.264-.086.47-.149.699-.235.235-.089.461-.183.734-.252.247-.106.448-.166.696-.264l.699-.252c.197-.086.443-.183.699-.281.231-.086.461-.183.691-.281.239-.086.47-.183.699-.315.235-.068.47-.166.699-.26.235-.123.461-.226.696-.333.239-.106.465-.209.699-.325l.699-.307.726-.367c.205-.098.448-.217.699-.315.235-.115.448-.252.699-.35.235-.149.461-.252.699-.367.235-.132.448-.264.696-.367a5.72 5.72 0 0 1 .683-.35c.247-.149.461-.273.712-.341.235-.149.465-.29.696-.409.239-.123.482-.26.717-.401l.696-.392c.256-.132.482-.298.717-.418s.465-.281.699-.418c.231-.149.461-.315.696-.435.235-.158.465-.298.696-.457.239-.149.465-.298.699-.465.235-.132.465-.315.699-.465.235-.166.461-.333.712-.482.217-.166.461-.35.699-.482.247-.183.482-.367.712-.517.235-.183.465-.367.696-.55.239-.158.47-.367.699-.525.235-.2.482-.367.712-.567.256-.2.47-.367.699-.567.217-.2.448-.384.699-.584.247-.217.482-.384.696-.601.251-.217.482-.375.699-.623.251-.2.443-.384.712-.632.235-.217.465-.418.699-.649s.461-.435.699-.666c.231-.243.461-.457.696-.666.231-.26.465-.49.696-.726.235-.252.465-.465.699-.7.235-.264.461-.499.717-.726.217-.298.443-.542.691-.768.256-.298.482-.534.699-.832.251-.264.482-.534.699-.815.251-.281.482-.567.712-.824.235-.325.465-.584.699-.883s.461-.584.696-.901c.217-.315.465-.632.699-.935.231-.333.465-.632.712-.96.251-.35.448-.666.699-1.015.235-.35.448-.666.699-1.015.231-.367.448-.709.696-1.075.235-.35.478-.734.699-1.084.231-.392.478-.76.696-1.156.235-.401.448-.802.696-1.199.239-.401.448-.832.699-1.267.235-.409.482-.858.712-1.293.235-.465.47-.969.699-1.408.235-.482.461-.981.699-1.485.247-.517.461-1.033.696-1.566.235-.559.465-1.11.712-1.69.239-.601.448-1.19.683-1.792.251-.666.499-1.301.696-1.967.251-.709.504-1.459.699-2.223a40.73 40.73 0 0 0 .699-2.457c.264-.969.495-1.925.699-2.91.278-1.182.495-2.406.73-3.627.294-1.809.529-3.648.696-5.5.183-2.125.282-4.258.282-6.409v-361.971h-1.51v.077z"/></svg>