<svg width="64" height="64" viewBox="0 0 1024 1024" xmlns="http://www.w3.org/2000/svg"><path d="M951.859 726.123c-22.575-3.055-41.528 3.946-55.109 22.904-9.459 13.197-12.194 28.305-10.538 44.113 1.962 18.991 11.077 33.942 27.737 43.648 13.235 7.685 27.742 9.514 42.667 7.317 12.928-1.942 24.098-7.591 33.191-17.144 2.466-2.624 2.986-4.625-.154-7.168-4.544-3.656-8.938-7.475-13.115-11.541-2.181-2.134-3.644-2.176-5.798-.115-5.222 4.933-11.499 7.808-18.573 9.135-13.735 2.641-26.774-3.909-31.322-15.659-1.344-3.55-.559-4.702 3.2-4.625 11.515.115 23.035.043 34.594.043 11.366 0 22.75-.158 34.116.034 4.177.077 5.739-1.575 5.777-5.623.098-9.207-.653-18.317-3.426-27.149-6.725-21.478-20.668-35.106-43.247-38.169zm10.522 49.412c-6.856.017-13.679.017-20.535.017-6.545 0-13.095.017-19.644-.017-1.621 0-3.409.141-2.812-2.509 3.409-15.582 16.222-22.639 28.412-19.798 10.326 2.402 15.466 11.221 17.395 19.823.589 2.641-1.221 2.483-2.816 2.483zm-622.259-77.363c-.337 7.3-.222 14.601-.017 21.892.077 3.234-.935 4.361-4.228 4.305-11.652-.132-23.347.132-35.012-.154-4.557-.124-5.598 1.455-5.577 5.777.137 35.464.077 70.907.06 106.373 0 6.127 0 6.166-5.982 6.166-7.437.034-14.89-.2-22.327.089-4.536.209-5.645-1.558-5.623-5.832.145-35.452.081-70.921.081-106.385 0-6.076 0-6.076-5.974-6.076-11.383 0-22.788-.115-34.142.038-3.951.06-5.491-1.203-5.346-5.265.231-7.138.251-14.323 0-21.44-.145-4.143 1.561-5.248 5.406-5.231 18.974.132 37.947.055 56.901.055 18.683 0 37.363.107 56.047-.077 4.403-.034 5.905 1.322 5.735 5.764zm-155.396-15.719H37.274c-6.532 0-11.819 5.287-11.819 11.819v147.447c0 6.55 5.287 11.832 11.819 11.832h147.452c6.519 0 11.81-5.282 11.81-11.832V694.272c-.005-6.532-5.291-11.819-11.81-11.819zm-42.595 82.722c-.354-5.069-2.053-9.681-4.813-13.965-6.725-10.488-19.187-15.919-31.475-13.743-5.192.905-9.903 2.901-13.85 6.191-6.703 5.538-10.808 12.723-11.499 21.611-.79 9.894 2.427 18.253 9.412 25.169 8.542 8.474 22.472 10.901 33.528 6.139 3.141-1.339 6.059-3.042 8.542-5.423.887-.875 1.578-1.007 2.543.017a80.447 80.447 0 0 0 6.174 6.084c1.049.892 1.011 2.026-.077 2.91-13.29 11.277-28.267 14.49-44.595 8.341-15.642-5.892-24.896-17.642-27.576-34.117-1.745-10.458.397-20.399 6.174-29.393 7.493-11.653 18.129-18.479 31.829-20.117 7.3-.888 14.4.111 21.308 2.974 9.66 4.024 16.845 10.671 21.893 19.665 2.841 5.073 4.458 10.611 4.873 16.435.038.448.06.883.081 1.242H142.14v-.022zm-12.642 0H93.235c1.433-8.636 8.465-15.006 17.258-15.582 8.939-.567 17.809 6.792 18.995 15.582zm38.469 2.808a55.687 55.687 0 0 0-2.351-13.555c-2.726-9.071-7.569-17.126-14.383-23.906-7.655-7.637-16.806-12.719-27.2-15.091-4.497-1.019-8.96-1.541-13.29-1.541-9.037 0-17.762 2.253-25.95 6.695-16.662 9.011-26.688 23.266-29.82 42.389-.278 1.655-.376 3.333-.414 5.009H43.917c.298-9.583 2.62-18.705 6.907-27.106 9.032-17.677 23.211-29.453 42.129-35.008 7.147-2.112 14.383-2.957 21.385-2.526 16.554 1.019 30.869 7.04 42.573 17.848 11.298 10.479 18.317 23.513 20.889 38.81.354 2.07.47 4.254.589 6.366.017.546.055 1.088.077 1.617h-10.509zm464.635-70.853c-.154 29.031.405 58.065-.427 87.07-.499 18.649-6.506 35.601-21.957 47.659-9.092 7.091-19.648 10.825-31.014 12.015-14.178 1.467-28.279 1.118-41.784-4.275-20.305-8.051-30.395-24-34.074-44.808-.81-4.582-1.063-9.241-1.041-13.909.081-12.825 0-25.664 0-38.502 0-14.869.115-29.773-.06-44.642-.06-3.99 1.212-5.44 5.223-5.329 7.74.222 15.484.243 23.189-.017 4.356-.154 5.47 1.6 5.432 5.666-.133 26.825-.154 53.688 0 80.521 0 9.514 1.732 18.683 8.768 25.851 9.878 9.984 21.901 10.709 34.457 6.784 11.465-3.601 16.55-12.714 18.453-23.923.712-4.335.926-8.649.926-13.09-.077-25.225-.038-50.479-.038-75.704 0-6.003.038-6.02 6.144-6.042 7.586 0 15.198.094 22.75-.038 3.473-.025 5.086.918 5.052 4.715zm-180.92 95.736c-2.137-3.085-1.659-4.177 1.694-5.623 8.358-3.644 14.929-9.476 19.917-17.19 6.57-10.053 7.437-21.303 6.818-32.823-.827-15.326-7.514-27.354-20.531-35.665-11.81-7.513-25.238-8.755-38.681-8.969-19.707-.315-39.411-.086-59.102-.086-6.404 0-6.421.038-6.421 6.281v137.48c0 6.267.017 6.267 6.404 6.267 7.599.034 15.19-.158 22.767.077 3.99.115 5.385-1.276 5.329-5.317-.2-12.365.017-24.832-.123-37.243-.06-3.498.99-5.043 4.719-4.889 5.086.252 10.219.217 15.305 0 3.14-.115 5.094 1.144 6.81 3.716 8.862 13.393 17.954 26.624 26.816 40.034 1.694 2.582 3.601 3.716 6.741 3.699 9.942-.192 19.861-.043 29.798-.077 1.37 0 3.255.649 4.066-.776.964-1.69-.807-2.927-1.677-4.16-10.151-14.95-20.301-29.935-30.647-44.736zm-24.289-28.574c-11.315 1.485-22.703.393-34.065.79-2.675.06-3.592-1.182-3.546-3.708.055-5.837.017-11.653.017-17.481V727.27c0-1.861.154-3.69 2.658-3.614 12.07.298 24.222-1.203 36.224.772 11.443 1.851 17.839 9.622 17.587 20.438-.248 10.373-7.761 17.971-18.875 19.426zm341.055 33.276c-.081 18.108-7.415 31.441-23.27 40.034-7.936 4.335-16.683 6.007-25.621 6.682-2.159.149-4.39 0-6.549 0-22.114-.325-42.069-6.844-59.542-20.783-2.91-2.351-3.465-4.126-.904-7.048 4.911-5.606 9.63-11.332 14.327-17.127 2.043-2.599 3.78-2.91 6.477-.717 9.532 7.8 20.263 13.218 32.516 15.099 6.528 1.007 13.095 1.101 19.418-1.19 5.048-1.775 8.726-4.74 9.165-10.474.461-6.208-1.425-9.31-7.552-12.408-9.207-4.608-19.358-6.285-29.145-9.25-9.34-2.841-18.705-5.64-26.833-11.418-13.022-9.267-16.179-22.588-14.87-37.457 2.181-24.909 22.464-37.709 42.381-40.06 22.537-2.666 43.077 2.428 61.777 15.305 3.289 2.291 4.143 3.989 1.404 7.496-4.544 5.863-8.665 12.096-12.749 18.308-1.681 2.522-3.085 2.803-5.59 1.058-8.708-6.046-18.24-10.41-28.74-12.271-5.509-.964-11.038-.845-16.414 1.13-5.082 1.894-8.439 5.304-8.627 10.931-.231 5.248 2.812 8.7 7.279 10.991 7.365 3.725 15.338 5.5 23.232 7.629 9.327 2.505 18.491 5.192 27.085 9.784 14.409 7.629 21.418 19.23 21.346 35.754zm123.167-73.221c-11.515-.111-23.035.137-34.56-.111-4.39-.106-5.777 1.173-5.777 5.654.175 35.307.094 70.609.094 105.937 0 6.707 0 6.707-6.84 6.707-7.146.051-14.311-.158-21.423.106-4.16.141-5.547-1.233-5.529-5.509.136-35.601.081-71.207.059-106.812 0-5.973 0-5.99-6.046-5.99h-33.711c-5.376-.021-5.59-.264-5.624-5.777 0-6.985.175-14.003-.038-20.988-.115-3.814 1.233-5.115 5.048-5.094 18.974.145 37.965.038 56.926.038 18.837 0 37.658.085 56.457-.06 4.083-.038 5.777 1.105 5.624 5.44-.346 7.283-.251 14.579-.038 21.88.077 3.417-1.25 4.621-4.621 4.578z"/></svg>