<svg width="64" height="64" viewBox="0 0 1792 1792" xmlns="http://www.w3.org/2000/svg"><path d="M1220.438 1362.735c0-3.985 2.905-6.882 6.519-6.882 3.994 0 6.89 2.906 6.89 6.882 0 3.631-2.905 6.89-6.89 6.89-3.614 0-6.519-3.269-6.519-6.89zm6.519 5.073c2.905 0 5.436-2.176 5.436-5.073s-2.538-5.069-5.436-5.069c-2.534 0-5.069 2.176-5.069 5.069 0 2.897 2.538 5.073 5.069 5.073zm-.726-2.176h-1.451v-5.798h3.994c.726.367.726 1.092.726 1.817 0 .358-.359 1.084-1.088 1.45l1.451 2.534h-1.813l-.726-2.176h-1.092v2.171-3.26h.726c.367 0 .734 0 .734-.367.359 0 .359-.363.359-.729 0 0 0-.358-.359-.358 0-.367-.367 0-.734 0h-.726v4.714zm-532.044-181.078l-64.691 174.503-6.942-35.452c-15.642-42.346-46.102-80.986-91.525-106.88l59.157 223.501 69.948-.009 104.051-255.663h-69.999zm55.424 255.775l41.344-255.992h66.142l-41.374 255.992h-66.112zm305.894-249.681c-13.077-5.184-33.689-10.791-59.226-10.791-65.408 0-111.368 34.735-111.757 84.424-.418 36.889 32.862 57.378 57.898 69.662 25.766 12.536 34.398 20.57 34.291 31.778-.217 17.088-20.625 24.883-39.616 24.883-26.398 0-40.474-3.801-62.118-13.423l-8.584-4.002-9.233 57.25c15.441 7.232 43.968 13.334 73.669 13.721 69.414 0 114.526-34.381 115.067-87.505.29-29.167-17.37-51.306-55.561-69.577-23.023-11.84-37.325-19.69-37.098-31.727.051-10.633 11.976-21.99 37.927-21.99 21.615-.444 37.167 4.557 49.459 9.834l5.884 2.966 8.999-55.505zm169.463-6.076h-51.042c-15.846 0-27.691 4.608-34.697 21.243l-98.125 234.551h69.466s11.35-31.518 13.893-38.459c7.599 0 74.991.132 84.6.132 2.043 8.969 8.09 38.319 8.09 38.319h61.376l-53.559-255.786zm-81.497 164.983c5.534-14.669 26.364-71.535 26.364-71.535-.423.691 5.376-14.856 8.793-24.435l4.408 22.127s12.702 61.065 15.317 73.843h-54.882zm-573.982-169.361H462.878l-.602 4.399c82.858 21.159 137.541 73.302 160.273 134.788l-23.125-117.598c-3.964-16.273-15.578-20.997-29.935-21.589zm207.932 356.292h10.889l.009-.055 28.736-.175 1.433-10.794-28.702.166 3.158-23.121 21.866-.171 1.438-10.791-21.832.171 2.837-20.787 27.806-.171 1.438-10.794-38.664.222zm104.994 0h10.897v-.055l28.736-.175 1.442-10.794-28.706.166 3.166-23.121 21.854-.171 1.447-10.791-21.824.171 2.833-20.787 27.798-.171 1.447-10.794-38.664.222zm-29.478-76.522l-12.036.222-10.419 76.301h10.897v-.055l28.736-.175 1.442-10.794-28.706.166zm155.336 10.965h21.462l-9.088 65.558h10.902l.009-.055.777-.175 8.325-65.327 23.864-.171 1.433-10.795-56.226.222zm93.372-10.965l-23.177.226-11.358 76.301 10.897-.235h.781l4.002-32.278 5.862-.005 17.575 32.281h11.776l-17.233-32.264c21.636-5.329 27.895-44.288.875-44.027zm-4.804 34.62h-12.531l3.221-25.297 13.398.175c12.058.149 5.927 25.122-4.087 25.122zm73.906-37.197c-18.283 0-35.208 18.095-37.798 40.414-2.582 22.31 10.15 40.409 28.433 40.409s35.208-18.095 37.79-40.409c2.59-22.319-10.138-40.414-28.424-40.414zm19.264 40.413c-1.869 16.137-14.28 31.3-27.515 31.3-13.218 0-22.259-15.163-20.382-31.3 1.869-16.141 14.114-31.3 27.337-31.3s22.438 15.159 20.561 31.3zm77.351-37.615l-8.662 54.899-26.513-54.899h-10.59l-12.309 76.301 10.893-.231h.793l8.367-58.983 28.621 58.983h9.088l10.598-76.07zM937.976 1497.8c-2.701 22.31 10.538 40.409 29.551 40.409 7.035 0 13.88-2.479 19.853-6.737v-12.873c-5.133 5.209-11.687 8.431-18.509 8.431-13.751 0-23.322-13.09-21.385-29.231 1.95-16.141 14.682-29.231 28.424-29.231 6.652 0 12.318 3.055 16.175 8.034l5.837-10.108c-5.244-5.692-12.412-9.11-20.663-9.11-19.008 0-36.6 18.095-39.283 40.414z"/></svg>