<svg width="50" height="50" xmlns="http://www.w3.org/2000/svg"><g fill-rule="evenodd"><path d="M25 49c12.15 0 22-9.85 22-22S37.15 5 25 5 3 14.85 3 27s9.85 22 22 22zm0-19h1V12h-2v16H14v2h11zM3 47.492l5.78-5.782 2.122 2.122-5.781 5.781z"/><path d="M46.6 47.492l-5.781-5.781-2.122 2.121 5.782 5.782zm1.522-31.552l.576-1.21c.146-.306.352-.827.555-1.512.58-1.954.75-3.988.252-5.929a8.072 8.072 0 0 0-2.437-4.029 8.167 8.167 0 0 0-3.587-1.917c-2.09-.515-4.28-.245-6.395.506-.808.287-1.422.576-1.783.78l-1.21.684 1.033.93 12 10.8.996.897zM14.869 4.243l1.034-.93-1.211-.684c-.361-.204-.975-.493-1.783-.78-2.114-.751-4.305-1.02-6.395-.506A8.167 8.167 0 0 0 2.927 3.26 8.072 8.072 0 0 0 .49 7.29c-.498 1.94-.327 3.974.252 5.928.203.685.41 1.206.555 1.512l.576 1.21.996-.897 12-10.8z"/></g></svg>