<svg width="38" height="48" xmlns="http://www.w3.org/2000/svg"><path d="M2 8h34v2H2zm0 38h34v2H2zM0 8h2v40H0zm36 0h2v40h-2zM17.61 20.287l.003.709a1311.176 1311.176 0 0 1 .014 2.872c.005 1.33.01 2.633.012 3.855.005 3.101 0 4.546 0 4.546v.145s-.45.158-.888.26c-.4.093-.662.133-1.508.245-.808.107-1.217.18-1.665.325-1.896.611-3.066 2.294-2.621 4.476.54 2.652 4.461 2.697 6.903 1.19.96-.593 1.671-2.633 1.748-4.677.028-.77.037-3.091.03-6.514a1015.83 1015.83 0 0 0-.01-3.375l7.627-1.21c.555-.088.994-.605.99-1.157l-.037-4.672c-.004-.55-.446-.93-.987-.845l-8.652 1.353c-.537.084-.975.602-.969 1.155l.01 1.029v.29zM2 4h34v2H2zm1-4h32v2H3z" fill-rule="evenodd"/></svg>