<svg width="50" height="50" viewBox="0 0 50 50" xmlns="http://www.w3.org/2000/svg"><path d="M25 50c13.807 0 25-11.193 25-25S38.807 0 25 0 0 11.193 0 25s11.193 25 25 25zm1.95-31.219v18.17c0 1.106-.887 2.002-2 2.002-1.104 0-2-.902-2-2.001v-18.17l-6.538 6.538c-.78.78-2.039.783-2.825-.003a1.997 1.997 0 0 1-.004-2.825l9.907-9.907a1.988 1.988 0 0 1 1.498-.583 1.986 1.986 0 0 1 1.424.583l9.906 9.907c.78.779.783 2.038-.003 2.825a1.997 1.997 0 0 1-2.825.003l-6.54-6.539z" fill="#000" fill-rule="evenodd"/></svg>