<svg width="50" height="50" xmlns="http://www.w3.org/2000/svg"><g fill="#000" fill-rule="evenodd"><path d="M48 25C48 12.297 37.703 2 25 2S2 12.297 2 25s10.297 23 23 23 23-10.297 23-23zM0 25C0 11.193 11.193 0 25 0s25 11.193 25 25-11.193 25-25 25S0 38.807 0 25z"/><path d="M24.904 19.281c2.62 0 4.254 2.092 4.254 5.397 0 3.357-1.67 5.537-4.271 5.537-2.55 0-4.184-2.145-4.184-5.45 0-3.322 1.652-5.484 4.201-5.484zM25.467 10C16.994 10 11 15.959 11 24.59c0 9.21 6.117 14.695 14.643 14.695 2.355 0 4.43-.281 5.853-.773v-1.74c-1.195.474-3.463.773-5.836.773-7.348 0-12.726-4.816-12.726-12.885 0-7.523 5.22-12.92 12.375-12.92 7.26 0 12.304 4.588 12.304 11.303 0 4.728-1.6 7.418-3.937 7.418-1.6 0-2.444-1.055-2.444-2.654V17.752h-2.039v2.478h-.123c-.65-1.722-2.425-2.83-4.465-2.83-3.585 0-6.082 2.989-6.082 7.313 0 4.43 2.461 7.418 6.082 7.418 2.18 0 3.815-1.108 4.606-3.111h.123c.264 1.968 1.916 3.234 4.008 3.234 3.867 0 6.187-3.586 6.187-9.176C39.53 15.291 33.676 10 25.467 10z"/></g></svg>