<svg width="42" height="51" xmlns="http://www.w3.org/2000/svg"><g fill="#000" fill-rule="evenodd"><path d="M0 16.005A5.006 5.006 0 0 1 5.004 11h31.992A5.001 5.001 0 0 1 42 16.005v29.99A5.006 5.006 0 0 1 36.996 51H5.004A5.001 5.001 0 0 1 0 45.995v-29.99zm2 .002A3.01 3.01 0 0 1 4.998 13h32.004A3.002 3.002 0 0 1 40 16.007v29.986A3.01 3.01 0 0 1 37.002 49H4.998A3.002 3.002 0 0 1 2 45.993V16.007z"/><path d="M12.039 10.97c.043-.286.106-.607.192-.954.247-.993.626-1.986 1.161-2.905C14.9 4.527 17.322 3 21 3c3.678 0 6.1 1.527 7.608 4.111.535.92.914 1.912 1.16 2.905.087.347.15.668.193.954.026.165.038.277.042.326l.08.996 1.994-.16-.08-.997a10.6 10.6 0 0 0-.287-1.6 13.042 13.042 0 0 0-1.375-3.43C28.485 2.928 25.422 1 21 1c-4.422 0-7.485 1.93-9.335 5.104a13.042 13.042 0 0 0-1.375 3.43 10.6 10.6 0 0 0-.287 1.601l-.08.997 1.993.16.08-.996c.005-.05.017-.161.043-.326z"/></g></svg>