<svg width="44" height="50" xmlns="http://www.w3.org/2000/svg"><g fill="none" fill-rule="evenodd"><path d="M20 3.1s0-2.6 2-2.6 2 2.6 2 2.6-1-.09-2-.09-2 .09-2 .09z" fill="#000"/><path d="M1.538 40.155c-.297.467-.095.845.46.845h40.018c.55 0 .755-.379.458-.845l-4.865-7.631c-.889-1.394-1.451-3.85-1.32-5.507C36.29 27.017 40 4 22 4S7.71 27.017 7.71 27.017c.16 1.648-.433 4.119-1.316 5.507l-4.856 7.631z" stroke="#000" stroke-width="2"/><path d="M22 49.44c5 0 5-5.44 5-5.44H17s0 5.44 5 5.44z" fill="#000"/></g></svg>