<svg width="50" height="49" xmlns="http://www.w3.org/2000/svg"><g fill="none" fill-rule="evenodd"><path d="M12 1C4 1 1 7 1 7v38.4s1-.4 4-1.9S9 40 15 40c5.033 0 10 6 10 6 .013-.013 4.973-6 10-6 6 0 7 2 10 3.5s4 1.9 4 1.9V7s-3-6-11-6c-7.998 0-12.998 5.998-13 6 0 0-5-6-13-6z" stroke="#DF1C1C" stroke-width="2"/><path d="M24 7.381c.104.11.182.2.233.26L25 8.56l.768-.92c.05-.06.129-.149.232-.259v36.135c-.298.28-.585.564-.86.847-.428.443-.14.137-.14.137s.112.124-.136-.133c-.276-.285-.564-.57-.864-.852V7.38z" fill="#979797"/></g></svg>