<svg width="51" height="50" xmlns="http://www.w3.org/2000/svg"><g fill-rule="evenodd"><path d="M22.059 26H.933v2h21.126a4.002 4.002 0 0 0 7.747 0h21.127v-2H29.806a4.002 4.002 0 0 0-7.747 0zM.933 15.005a5.007 5.007 0 0 1 5-5.005h40a5 5 0 0 1 5 5.005v29.99a5.007 5.007 0 0 1-5 5.005h-40a5 5 0 0 1-5-5.005v-29.99z"/><path d="M16.971 9.97c.044-.286.107-.607.193-.954.246-.993.625-1.986 1.161-2.905C19.832 3.527 22.255 2 25.933 2c3.677 0 6.1 1.527 7.607 4.111.536.92.915 1.912 1.161 2.905.086.347.15.668.193.954.025.165.038.277.042.326l.08.996 1.994-.16-.08-.997a10.6 10.6 0 0 0-.288-1.6 13.042 13.042 0 0 0-1.374-3.43C33.418 1.928 30.355 0 25.933 0c-4.423 0-7.485 1.93-9.336 5.104a13.042 13.042 0 0 0-1.374 3.43 10.6 10.6 0 0 0-.287 1.601l-.08.997 1.993.16.08-.996c.004-.05.017-.161.042-.326z"/></g></svg>