<svg width="50" height="50" xmlns="http://www.w3.org/2000/svg"><g fill-rule="evenodd"><path d="M0 15.005A5.007 5.007 0 0 1 5 10h40a5 5 0 0 1 5 5.005v29.99A5.007 5.007 0 0 1 45 50H5a5 5 0 0 1-5-5.005v-29.99zm2.067.002a3.01 3.01 0 0 1 3-3.007h40c1.657 0 3 1.346 3 3.007v29.986a3.01 3.01 0 0 1-3 3.007h-40c-1.656 0-3-1.346-3-3.007V15.007z"/><path d="M21.126 26H2.067v2h19.059a4.007 4.007 0 0 1 0-2zm7.748 0h19.193v2H28.874a4.007 4.007 0 0 0 0-2z"/><circle cx="25" cy="27" r="4"/><path d="M16.039 9.97c.043-.286.106-.607.192-.954.247-.993.626-1.986 1.161-2.905C18.9 3.527 21.322 2 25 2c3.678 0 6.1 1.527 7.608 4.111.535.92.914 1.912 1.16 2.905a10.154 10.154 0 0 1 .235 1.28l.08.996 1.994-.16-.08-.997a10.6 10.6 0 0 0-.287-1.6 13.042 13.042 0 0 0-1.375-3.43C32.485 1.928 29.422 0 25 0c-4.422 0-7.485 1.93-9.335 5.104a13.042 13.042 0 0 0-1.375 3.43 10.6 10.6 0 0 0-.287 1.601l-.08.997 1.993.16.08-.996c.005-.05.017-.161.043-.326z"/></g></svg>