<svg width="44" height="44" xmlns="http://www.w3.org/2000/svg"><g fill-rule="evenodd"><path d="M0 4.002A4.003 4.003 0 0 1 4.002 0h35.996A4.003 4.003 0 0 1 44 4.002v35.996A4.003 4.003 0 0 1 39.998 44H4.002A4.003 4.003 0 0 1 0 39.998V4.002zm2 7C2 9.896 2.892 9 3.997 9h36.006C41.106 9 42 9.9 42 11.002v28.996A1.998 1.998 0 0 1 40.003 42H3.997C2.894 42 2 41.1 2 39.998V11.002z"/><circle cx="29.5" cy="25.5" r="1.5"/><circle cx="22.5" cy="25.5" r="1.5"/><circle cx="36.5" cy="25.5" r="1.5"/><circle cx="22.5" cy="34.5" r="1.5"/><circle cx="29.5" cy="34.5" r="1.5"/><circle cx="29.5" cy="16.5" r="1.5"/><circle cx="36.5" cy="16.5" r="1.5"/><circle cx="15.5" cy="25.5" r="1.5"/><circle cx="15.5" cy="34.5" r="1.5"/><circle cx="22.5" cy="16.5" r="1.5"/><circle cx="8.5" cy="25.5" r="1.5"/><circle cx="8.5" cy="34.5" r="1.5"/><circle cx="15.5" cy="16.5" r="1.5"/></g></svg>