<svg width="50" height="50" xmlns="http://www.w3.org/2000/svg"><g transform="translate(-3 3)" fill-rule="evenodd"><path d="M2 36.995A3.991 3.991 0 0 0 5.993 41h44.014A3.999 3.999 0 0 0 54 36.995v-23.99A3.991 3.991 0 0 0 50.007 9h-7.015c-1.745 0-3.764-1.04-4.78-2.461l-2.68-3.753C35.265 2.412 34.463 2 34.006 2H21.994c-.454 0-1.262.415-1.526.786l-2.68 3.753C16.768 7.964 14.755 9 13.007 9H5.993A3.998 3.998 0 0 0 2 13.005v23.99zM5.993 7h7.015c1.1 0 2.508-.723 3.152-1.624l2.68-3.752C19.48.727 20.895 0 21.994 0h12.012c1.101 0 2.51.723 3.154 1.624l2.68 3.752C40.48 6.273 41.893 7 42.992 7h7.015A5.991 5.991 0 0 1 56 13.005v23.99C56 40.31 53.318 43 50.007 43H5.993A5.991 5.991 0 0 1 0 36.995v-23.99C0 9.69 2.682 7 5.993 7z"/><path d="M40 25c0-6.627-5.373-12-12-12s-12 5.373-12 12 5.373 12 12 12 12-5.373 12-12zm-22 0c0-5.523 4.477-10 10-10s10 4.477 10 10-4.477 10-10 10-10-4.477-10-10z"/><circle cx="45" cy="13" r="2"/><rect x="5" y="3" width="6" height="2" rx="1"/></g></svg>