<svg width="55" height="50" xmlns="http://www.w3.org/2000/svg"><path d="M53 21.885C53 11.015 41.67 2 27.5 2S2 11.016 2 21.885C2 28.693 6.466 34.98 13.786 38.64c2.204 1.102 1.952 4.309.548 7.179-.26.531-.559 1.065-.936 1.691 1.643-.507 3.392-1.21 4.766-1.986.503-.284.994-.624 1.502-1.033.307-.248.606-.507.978-.843l.455-.416c.187-.17.317-.289.446-.402 1.056-.926 1.7-1.32 2.78-1.215 1.047.102 2.107.153 3.175.153 14.17 0 25.5-9.016 25.5-19.884zM24.13 43.607c-.873-.085-2.367 2.185-4.983 3.66-3.272 1.845-7.757 2.97-8.764 2.69-1.086-.3.968-2.592 2.154-5.016.96-1.963 1.13-4.124.355-4.511C5.148 36.558 0 29.7 0 21.885 0 9.798 12.312 0 27.5 0S55 9.798 55 21.885c0 12.086-12.312 21.884-27.5 21.884-1.14 0-2.265-.055-3.37-.162z" fill="#000" fill-rule="evenodd"/></svg>