<svg width="65" height="50" viewBox="0 0 65 50" xmlns="http://www.w3.org/2000/svg"><g fill="#000" fill-rule="evenodd"><path d="M39.43 5.108A30.49 30.49 0 0 1 42 5c12.703 0 23 7.835 23 17.5 0 6.227-4.274 11.694-10.712 14.796-.464.223-.409 1.767.23 3.173.934 2.056 2.641 4.176 1.888 4.409-.857.265-3.99-.614-6.452-2.098-2.038-1.23-3.447-3.105-4.224-3.009-1.214.15-2.46.229-3.73.229-1.297 0-2.569-.082-3.808-.239C45.26 36.194 50 29.62 50 22.1c0-7.072-4.192-13.307-10.57-16.992z"/><path d="M24 41c13.255 0 24-8.507 24-19S37.255 3 24 3 0 11.507 0 22c0 6.785 4.493 12.74 11.251 16.1.677.337.529 2.213-.31 3.917-1.034 2.105-2.827 4.094-1.88 4.356.88.242 4.794-.734 7.649-2.336 2.283-1.281 3.587-3.252 4.35-3.178.963.093 1.945.141 2.94.141z"/></g></svg>