<svg width="65" height="50" xmlns="http://www.w3.org/2000/svg"><g fill-rule="evenodd"><path d="M53.12 42.157a.068.068 0 0 1 .024-.022 15.498 15.498 0 0 1-2.157-1.068c-.375-.226-.757-.5-1.175-.836-.345-.277-1.47-1.256-1.675-1.422-.97-.788-1.632-1.15-2.653-1.023A28.297 28.297 0 0 1 42 38c-2.393 0-4.73-.297-6.94-.872l-.503 1.935c2.335.608 4.838.937 7.443.937 1.27 0 2.516-.078 3.73-.229.777-.096 2.186 1.78 4.224 3.009a17.866 17.866 0 0 0 4.489 1.893l.022.03c.825.201 1.615.276 1.941.175.437-.135-.005-1.008-.591-2.03l-.01-.003c-.415-.719-.913-1.552-1.287-2.376-.639-1.406-.694-2.95-.23-3.173C60.726 34.194 65 28.726 65 22.5 65 12.835 54.703 5 42 5a29.84 29.84 0 0 0-5.94.59l.397 1.96C38.247 7.185 40.107 7 42 7c11.699 0 21 7.077 21 15.5 0 5.237-3.61 10.117-9.58 12.994-1.915.923-1.758 3.525-.723 5.803l.111.238c.097.203.2.408.313.622z"/><path d="M15.731 42.293c.426-.24.843-.527 1.277-.874.263-.212.52-.434.841-.723.098-.088.2-.18.397-.36.164-.149.28-.252.393-.352.977-.853 1.575-1.216 2.613-1.116A28.44 28.44 0 0 0 24 39c12.24 0 22-7.727 22-17S36.24 5 24 5 2 12.727 2 22c0 5.8 3.835 11.174 10.142 14.31 2.11 1.05 1.879 3.978.594 6.59-.136.276-.283.553-.45.846-.115.204 2.264-.79 3.445-1.453zm5.328-1.434c-.762-.074-2.066 1.897-4.35 3.178-2.854 1.602-6.768 2.578-7.648 2.336-.947-.262.846-2.25 1.88-4.356.839-1.704.987-3.58.31-3.916C4.493 34.74 0 28.785 0 22 0 11.507 10.745 3 24 3s24 8.507 24 19-10.745 19-24 19a30.6 30.6 0 0 1-2.94-.141z"/></g></svg>