<svg width="50" height="59" viewBox="0 0 50 59" xmlns="http://www.w3.org/2000/svg"><g fill="none" fill-rule="evenodd"><path d="M20.143 43H3.629C-3.346 43-9 38-9 30.59-9 25-5 21 .1 19.3c-.1-.3-.308-.916-.3-1.118C0 13 3.618 10 8.486 10 11 10 13.9 12.2 13.9 12.2l1-2C18 4.473 23.368 1 29.857 1 39.514 1 47.2 8.693 47 18.182c0 .818-.1 2.618-.1 2.618l2.267.35C55 21.8 58.5 26 59 31.545 59 38.5 54.2 43 47.343 43H29.857" stroke="#000" stroke-width="2"/><g fill="#000"><path d="M24.048 58.974h2V22.5h-2z"/><path d="M16.548 28.512l8.486-8.486 1.414 1.414-8.486 8.486z"/><path d="M25.063 20.026l8.485 8.485-1.414 1.415-8.486-8.486z"/></g></g></svg>