<svg width="50" height="59" viewBox="0 0 50 59" xmlns="http://www.w3.org/2000/svg"><g fill="#000" fill-rule="evenodd"><path d="M47.89 20l1.988.22C55.618 21.052 60 26.014 60 32c0 6.627-5.373 12-12 12H3c-7.18 0-13-5.82-13-13 0-5.792 3.788-10.699 9.021-12.38a9 9 0 0 1 12.726-8.806c.253.186 1.727 1.041 1.727 1.041s.526-1.04.91-1.814C17.491 3.638 23.32 0 30 0c9.941 0 18 8.059 18 18-.064 0-.11 2-.11 2zm-21.842 3.84V44h-2V23.84l-6.085 6.086-1.415-1.414 8.486-8.486.014.015.015-.015 8.485 8.486-1.414 1.414-6.086-6.086zM24.05 44H26v15h-2z"/></g></svg>