<svg width="50" height="59" xmlns="http://www.w3.org/2000/svg"><g fill="#000" fill-rule="evenodd"><path d="M26.05 44H48c6.627 0 12-5.373 12-12 0-5.986-4.383-10.948-10.122-11.78L47.89 20s.046-2 .11-2c0-9.941-8.059-18-18-18-6.68 0-12.51 3.638-15.616 9.041-.384.774-.91 1.814-.91 1.814S12 10 11.747 9.815A9 9 0 0 0-.98 18.62C-6.212 20.3-10 25.207-10 31c0 7.18 5.82 13 13 13h21.05V20.25h2V44zM24.05 44h2v12.074h-2z"/><path d="M16.548 50.538l8.486 8.486 1.414-1.414-8.486-8.486z"/><path d="M25.063 59.024l8.485-8.485-1.414-1.415-8.486 8.486z"/></g></svg>