<svg width="50" height="50" xmlns="http://www.w3.org/2000/svg"><path d="M48 45c5.523 0 10-4.477 10-10s-4.477-10-10-10l-2.345.02.247-2.24C45.967 22.194 46 21.6 46 21c0-8.837-7.163-16-16-16-6.44 0-12.176 3.84-14.69 9.65l-1.02 2.353-2.034-1.561A6.96 6.96 0 0 0 8 14a7 7 0 0 0-6.984 7.484l.107 1.562-1.49.478A11.005 11.005 0 0 0-8 34c0 6.075 4.925 11 11 11h45zm-.11-22l1.988.22C55.618 24.052 60 29.014 60 35c0 6.627-5.373 12-12 12H3c-7.18 0-13-5.82-13-13 0-5.792 3.788-10.699 9.021-12.38a9 9 0 0 1 12.726-8.806c.253.186 1.727 1.041 1.727 1.041s.526-1.04.91-1.814C17.491 6.638 23.32 3 30 3c9.941 0 18 8.059 18 18-.064 0-.11 2-.11 2z" fill="#000" fill-rule="evenodd"/></svg>