<svg width="44" height="44" viewBox="0 0 44 44" xmlns="http://www.w3.org/2000/svg"><g fill="#000" fill-rule="evenodd"><path d="M2 16a2 2 0 0 0 2 2h12a2 2 0 0 0 2-2V4a2 2 0 0 0-2-2H4a2 2 0 0 0-2 2v12zM4 0h12a4 4 0 0 1 4 4v12a4 4 0 0 1-4 4H4a4 4 0 0 1-4-4V4a4 4 0 0 1 4-4zM26 16a2 2 0 0 0 2 2h12a2 2 0 0 0 2-2V4a2 2 0 0 0-2-2H28a2 2 0 0 0-2 2v12zm2-16h12a4 4 0 0 1 4 4v12a4 4 0 0 1-4 4H28a4 4 0 0 1-4-4V4a4 4 0 0 1 4-4zM26 40a2 2 0 0 0 2 2h12a2 2 0 0 0 2-2V28a2 2 0 0 0-2-2H28a2 2 0 0 0-2 2v12zm2-16h12a4 4 0 0 1 4 4v12a4 4 0 0 1-4 4H28a4 4 0 0 1-4-4V28a4 4 0 0 1 4-4zM2 40a2 2 0 0 0 2 2h12a2 2 0 0 0 2-2V28a2 2 0 0 0-2-2H4a2 2 0 0 0-2 2v12zm2-16h12a4 4 0 0 1 4 4v12a4 4 0 0 1-4 4H4a4 4 0 0 1-4-4V28a4 4 0 0 1 4-4z"/></g></svg>