<svg width="50" height="50" viewBox="0 0 50 50" xmlns="http://www.w3.org/2000/svg"><g fill="none" fill-rule="evenodd"><path d="M48 25C48 12.297 37.703 2 25 2S2 12.297 2 25s10.297 23 23 23 23-10.297 23-23zM0 25C0 11.193 11.193 0 25 0s25 11.193 25 25-11.193 25-25 25S0 38.807 0 25z" fill="#000"/><path fill="#000" d="M19 17h2v22h-2z"/><path d="M27 24a7 7 0 1 0-7-7" stroke="#000" stroke-width="2"/><path fill="#000" d="M11.5 32.414l8.486 8.485 1.414-1.414L12.915 31z"/><path fill="#000" d="M20.014 40.9l8.485-8.486L27.085 31 18.6 39.485z"/></g></svg>