<svg width="44" height="50" viewBox="0 0 44 50" xmlns="http://www.w3.org/2000/svg"><g fill="#000" fill-rule="evenodd"><path d="M17.028 31H0l2-2v20l-2-2h44l-2 2V29l2 2H27.017v-2H44v20H0V29h17.028z"/><path d="M17.028 13H0l2-2v20l-2-2h44l-2 2V11l2 2H27.017v-2H44v20H0V11h17.028zM0 11L7.02 1h29.636L44 11 36.656 1H7.02L0 11h2.444H0zm2.444 0H0L7.02 1h29.636L44 11h-2.481l-6.475-8.816L36.656 3H7.02l1.637-.85L2.444 11z"/><path d="M22 19c-4 0-7-3-7-7h1-1a7 7 0 0 0 14 0c0 4-3 7-7 7zm6-7h1a7 7 0 0 1-14 0h2a5 5 0 0 0 10 0h1zM22 37c-4 0-7-3-7-7h1-1a7 7 0 0 0 14 0c0 4-3 7-7 7zm6-7h1a7 7 0 0 1-14 0h2a5 5 0 0 0 10 0h1z"/></g></svg>