<svg width="50" height="50" xmlns="http://www.w3.org/2000/svg"><g transform="translate(-7 8)" fill="#000" fill-rule="evenodd"><path d="M53.561 23.892a58.449 58.449 0 0 0 6.556-5.65 48.44 48.44 0 0 0 1.76-1.849c.293-.326.488-.553.58-.664l.043 2.594c-.1-.114-.31-.344-.625-.673a55.714 55.714 0 0 0-1.864-1.859 65.91 65.91 0 0 0-6.808-5.67C46.169 5.031 38.945 2 32 2c-6.92 0-14.132 3.205-21.159 8.588a66.976 66.976 0 0 0-6.81 6.007 57.522 57.522 0 0 0-1.867 1.97c-.315.35-.526.594-.628.715l-.03-2.597c.09.104.284.316.577.623a46.842 46.842 0 0 0 1.756 1.738 57.587 57.587 0 0 0 6.553 5.314C17.272 29.145 24.59 32 32 32c7.385 0 14.688-3.028 21.561-8.108zM0 18S15 0 32 0s32 17 32 17-14 17-32 17S0 18 0 18z"/><path d="M40 17a8 8 0 1 0-16 0 8 8 0 0 0 16 0zm-18 0c0-5.523 4.477-10 10-10s10 4.477 10 10-4.477 10-10 10-10-4.477-10-10z"/><circle cx="32" cy="17" r="4"/></g></svg>