<svg width="50" height="50" viewBox="0 0 50 50" xmlns="http://www.w3.org/2000/svg"><g fill="#000" fill-rule="evenodd"><path d="M48 25C48 12.297 37.703 2 25 2S2 12.297 2 25s10.297 23 23 23 23-10.297 23-23zM0 25C0 11.193 11.193 0 25 0s25 11.193 25 25-11.193 25-25 25S0 38.807 0 25z"/><path d="M12 32.698V18.61c0-1.108.769-1.557 1.734-.994l12.038 7.027c.958.558.965 1.46 0 2.023l-12.038 7.027c-.958.559-1.734.114-1.734-.995z"/><path d="M26.5 32.698V18.61c0-1.108.769-1.557 1.734-.994l12.038 7.027c.958.558.965 1.46 0 2.023l-12.038 7.027c-.958.559-1.734.114-1.734-.995z"/></g></svg>