<svg width="50" height="50" xmlns="http://www.w3.org/2000/svg"><g fill="#000" fill-rule="evenodd"><path d="M22.41 25.292c.591-.345.591-.237 0-.582L2.45 13.06c-.58-.339-.45-.414-.45.26v23.363c0 .665-.123.594.45.26l19.96-11.65zM0 36.682V13.32c0-2.212 1.542-3.106 3.459-1.987l19.96 11.65c1.91 1.115 1.917 2.919 0 4.038L3.458 38.67C1.549 39.783 0 38.888 0 36.682z"/><path d="M47.27 25.292c.591-.345.591-.237 0-.582L27.31 13.06c-.58-.339-.45-.414-.45.26v23.363c0 .665-.124.594.45.26l19.96-11.65zm-22.41 11.39V13.32c0-2.212 1.541-3.106 3.459-1.987l19.96 11.65c1.91 1.115 1.916 2.919 0 4.038l-19.96 11.65c-1.91 1.114-3.46.219-3.46-1.987z"/></g></svg>