<svg width="46" height="46" xmlns="http://www.w3.org/2000/svg"><g fill-rule="evenodd"><path d="M2 44V2h42v42H2zm-2 1V0h46v46H0v-1z"/><path d="M18 10h22v2H18zm0 12h22v2H18zm0 12h22v2H18zM9.5 13.193L6.855 15.14l1.035-3.118-2.67-1.914 3.285.021L9.5 7l.995 3.13 3.285-.02-2.67 1.913 1.035 3.118zm0 12L6.855 27.14l1.035-3.118-2.67-1.914 3.285.021L9.5 19l.995 3.13 3.285-.02-2.67 1.913 1.035 3.118zm0 12L6.855 39.14l1.035-3.118-2.67-1.914 3.285.021L9.5 31l.995 3.13 3.285-.02-2.67 1.913 1.035 3.118z"/></g></svg>