<svg width="34" height="50" xmlns="http://www.w3.org/2000/svg"><g fill="#000" fill-rule="evenodd"><path d="M0 29.414V6.382l.553-.276c.314-.157.882-.37 1.704-.576C3.587 5.198 5.167 5 7 5c1.763 0 3.226.296 8.358 1.528.533.127.942.225 1.339.317C20.055 7.63 22.237 8 24 8c2.08 0 4.139-.358 6.08-.956.68-.209 1.296-.433 1.835-.656.317-.13.533-.23.638-.282L34 5.382V27.77l-.745.197c-.132.035-.372.094-.706.168-.55.123-1.166.245-1.835.36-2.266.387-4.57.588-6.752.504-1.88-.072-3.98-.467-8.266-1.447l-.319-.073C10.454 26.352 8.603 26 7 26c-1.59 0-2.938.337-4.053.894a6.377 6.377 0 0 0-.972.594 2.97 2.97 0 0 0-.268.22L0 29.413z"/><path d="M0 45h2V27H0z"/></g></svg>