<svg width="42" height="50" viewBox="0 0 42 50" xmlns="http://www.w3.org/2000/svg"><g fill="#000" fill-rule="evenodd"><path d="M0 10.993a3.976 3.976 0 0 1 4-3.975l9.179.043c1.66.007 2.882 1.349 2.729 2.99l.088-.948c-.102 1.094.717 1.979 1.817 1.975l20.181-.065A3.988 3.988 0 0 1 42 15.01V21s0-2-1-3-3-1-3-1H4s-2 0-3 1-1 3-1 3V10.993z"/><path d="M0 22.99A3.997 3.997 0 0 1 4.008 19h33.984A3.998 3.998 0 0 1 42 22.99v16.02A3.997 3.997 0 0 1 37.992 43H4.008A3.998 3.998 0 0 1 0 39.01V22.99z"/></g></svg>