<svg width="42" height="50" viewBox="0 0 42 50" xmlns="http://www.w3.org/2000/svg"><g fill="#000" fill-rule="evenodd"><path d="M15.908 10.052l-1.991-.185c.043-.472-.26-.804-.748-.806l-9.177-.043A1.975 1.975 0 0 0 2 10.99v28.02C2 40.108 2.897 41 4.008 41h33.984A2.004 2.004 0 0 0 40 38.996V15.004a1.987 1.987 0 0 0-2-1.991l-20.181.065c-2.278.007-4.025-1.889-3.814-4.16l1.832.17c.076.303.102.627.071.964l.088-.949c-.033.354.03.686.169.973l-.257-.024zm-1.903-1.134l-.088.949 2.248.209c.288.6.904 1.004 1.648 1.002l20.181-.065A3.987 3.987 0 0 1 42 15.004v23.992A4.004 4.004 0 0 1 37.992 43H4.008A3.998 3.998 0 0 1 0 39.01V10.99a3.975 3.975 0 0 1 4-3.972l9.179.043c1.32.006 2.362.855 2.658 2.027l-1.832-.17z"/><path d="M2.686 19.49c.363-.314.826-.49 1.32-.49h33.987A2 2 0 0 1 40 20.991h2A4 4 0 0 0 37.993 17H4.007c-.98 0-1.908.352-2.632.98A3.977 3.977 0 0 0 0 20.99h2c0-.584.252-1.124.686-1.5z"/></g></svg>