<svg width="50" height="50" viewBox="0 0 50 50" xmlns="http://www.w3.org/2000/svg"><path d="M46.531 22.006L28 35.15V26.117h-2c-.754 0-2.02.065-3.633.26-2.686.325-5.375.91-7.908 1.829-1.903.69-3.645 1.546-5.19 2.588-1.774 1.199-3.367 2.843-4.943 4.941-.92 1.226-1.868 3.176-1.593 2.298C3 32 5.15 26.703 8.053 23.827c1.722-1.707 3.89-3.016 6.411-3.964 2.205-.829 4.582-1.348 7.002-1.61a29.948 29.948 0 0 1 4.172-.178l.232.01 2.13.14V8.897l18.531 13.109zM26 28.116V39l24-17L26 5v9.087c.054.002 0 .13 0 .13v1.873s-.749-.05-1.985-.014c-3.77.108-11.98.989-17.37 6.33C2.339 26.674.428 35.436.701 40.873c.344 6.84 3.264-4.085 9.688-8.42C14.963 29.364 20.938 28.475 24 28.22c1.277-.103 2-.103 2-.103z" fill="#000" fill-rule="evenodd"/></svg>