<svg width="50" height="50" viewBox="0 0 50 50" xmlns="http://www.w3.org/2000/svg"><g fill="none" fill-rule="evenodd"><path d="M33 25a8 8 0 1 0-16 0 8 8 0 0 0 16 0zm-18 0c0-5.523 4.477-10 10-10s10 4.477 10 10-4.477 10-10 10-10-4.477-10-10z" fill="#000"/><path d="M19.792 48.433l1.525-1.69c2.213-2.45 5.817-2.457 8.036 0l1.408 1.561a23.864 23.864 0 0 0 6.975-2.958l-.104-2.032c-.168-3.298 2.375-5.85 5.682-5.682l2.032.104a23.864 23.864 0 0 0 2.958-6.975l-1.56-1.408c-2.452-2.213-2.458-5.817 0-8.036l1.69-1.525a23.847 23.847 0 0 0-2.695-6.878l-2.425.124c-3.298.168-5.85-2.375-5.682-5.682l.137-2.68a23.871 23.871 0 0 0-6.517-2.854l-1.9 2.104c-2.212 2.452-5.816 2.458-8.035 0l-2.025-2.243A23.852 23.852 0 0 0 12.88 4.28l.157 3.076c.168 3.298-2.375 5.85-5.682 5.682L4.28 12.88a23.852 23.852 0 0 0-2.597 6.41l2.243 2.026c2.452 2.213 2.458 5.817 0 8.036l-2.104 1.9a23.871 23.871 0 0 0 2.853 6.516l2.68-.137c3.299-.168 5.852 2.375 5.683 5.682l-.124 2.425a23.847 23.847 0 0 0 6.878 2.694z" stroke="#000" stroke-width="2"/></g></svg>