<svg width="50" height="50" xmlns="http://www.w3.org/2000/svg"><path d="M20.099 49.524l1.222-1.353c2.217-2.456 5.811-2.456 8.028 0l1.115 1.235c2.99-.667 5.78-1.87 8.26-3.502l-.08-1.583c-.169-3.305 2.373-5.846 5.677-5.677l1.583.08a24.866 24.866 0 0 0 3.502-8.26l-1.235-1.115c-2.456-2.217-2.456-5.811 0-8.028l1.353-1.222a24.85 24.85 0 0 0-3.207-8.175l-1.996.102c-3.305.169-5.846-2.373-5.677-5.677l.114-2.231A24.873 24.873 0 0 0 30.963.71L29.35 2.5c-2.217 2.456-5.811 2.456-8.028 0L19.59.582a24.854 24.854 0 0 0-7.7 3.121l.135 2.646c.169 3.305-2.373 5.846-5.677 5.677l-2.646-.135a24.854 24.854 0 0 0-3.12 7.7l1.916 1.73c2.456 2.217 2.456 5.811 0 8.028L.71 30.963a24.873 24.873 0 0 0 3.407 7.795l2.23-.114c3.306-.169 5.847 2.373 5.678 5.677l-.102 1.996a24.85 24.85 0 0 0 8.175 3.207zM25 35c5.523 0 10-4.477 10-10s-4.477-10-10-10-10 4.477-10 10 4.477 10 10 10z" fill="#000" fill-rule="evenodd"/></svg>