<svg width="50" height="50" viewBox="0 0 50 50" xmlns="http://www.w3.org/2000/svg"><g fill="#000" fill-rule="evenodd"><path d="M50 25C50 11.193 38.807 0 25 0S0 11.193 0 25s11.193 25 25 25 25-11.193 25-25zM1.923 25C1.923 12.255 12.255 1.923 25 1.923c12.745 0 23.077 10.332 23.077 23.077 0 12.745-10.332 23.077-23.077 23.077C12.255 48.077 1.923 37.745 1.923 25z"/><path d="M.642 28.944l5.947 2.432.624.255.47-.482 4.488-4.602-1.553-.15 5.416 8.266.842 1.285.834-1.29 9.324-14.416-1.703-.038 10.06 17.205.971 1.662.801-1.75 10.099-22.068-.994-2.634-10.923 23.87 1.772-.09-10.06-17.205-.82-1.403-.883 1.365-9.323 14.416 1.676-.005-5.416-8.266-.683-1.042-.87.892-4.487 4.602 1.095-.228-5.884-2.405-1.4-.69z"/></g></svg>