<svg width="50" height="50" xmlns="http://www.w3.org/2000/svg"><path d="M47.65 14.404A24.905 24.905 0 0 1 50 25c0 13.807-11.193 25-25 25C12.479 50 2.108 40.795.284 28.783l.38.171 5.925 2.422.624.255.47-.482 3.617-3.71 4.734 7.224.842 1.285.834-1.29 8.463-13.013 9.218 15.764.971 1.662.801-1.75L47.65 14.403zm-1.18-2.22C42.102 4.885 34.121 0 25 0 11.193 0 0 11.193 0 25c0 .495.014.988.043 1.476l1.419.644 5.261 2.15 4.016-4.12.87-.891.682 1.042 4.591 7.007 9.355-14.517 9.918 16.962 10.314-22.57z" fill="#000" fill-rule="evenodd"/></svg>