<svg width="44" height="44" xmlns="http://www.w3.org/2000/svg"><path d="M22 44c12.15 0 22-9.85 22-22S34.15 0 22 0 0 9.85 0 22s9.85 22 22 22zm-7-28.41h2.904c.187-2.429 1.817-3.94 4.382-3.94 2.53 0 4.161 1.545 4.161 3.651 0 1.817-.764 2.887-2.734 4.093-2.327 1.393-3.414 2.921-3.397 5.163v1.563h2.972v-1.104c0-1.784.611-2.735 2.768-4.009 2.174-1.307 3.55-3.192 3.55-5.859C29.606 11.65 26.685 9 22.405 9c-4.773 0-7.218 2.921-7.405 6.59zM22.031 34c1.376 0 2.344-.985 2.344-2.36 0-1.393-.968-2.378-2.344-2.378-1.375 0-2.36.985-2.36 2.377 0 1.376.985 2.361 2.36 2.361z" fill="#000" fill-rule="evenodd"/></svg>