<svg width="48" height="48" viewBox="0 0 48 48" xmlns="http://www.w3.org/2000/svg"><g fill="#000" fill-rule="evenodd"><path d="M11 6.5a4.5 4.5 0 1 0-9 0 4.5 4.5 0 0 0 9 0zm-11 0a6.5 6.5 0 1 1 13 0 6.5 6.5 0 0 1-13 0zM28.5 6.5a4.5 4.5 0 1 0-9 0 4.5 4.5 0 0 0 9 0zm-11 0a6.5 6.5 0 1 1 13 0 6.5 6.5 0 0 1-13 0zM46 6.5a4.5 4.5 0 1 0-9 0 4.5 4.5 0 0 0 9 0zm-11 0a6.5 6.5 0 1 1 13 0 6.5 6.5 0 0 1-13 0zM11 41.5a4.5 4.5 0 1 0-9 0 4.5 4.5 0 0 0 9 0zm-11 0a6.5 6.5 0 1 1 13 0 6.5 6.5 0 0 1-13 0zM28.5 41.5a4.5 4.5 0 1 0-9 0 4.5 4.5 0 0 0 9 0zm-11 0a6.5 6.5 0 1 1 13 0 6.5 6.5 0 0 1-13 0zM46 41.5a4.5 4.5 0 1 0-9 0 4.5 4.5 0 0 0 9 0zm-11 0a6.5 6.5 0 1 1 13 0 6.5 6.5 0 0 1-13 0zM11 24a4.5 4.5 0 1 0-9 0 4.5 4.5 0 0 0 9 0zM0 24a6.5 6.5 0 1 1 13 0 6.5 6.5 0 0 1-13 0zM28.5 24a4.5 4.5 0 1 0-9 0 4.5 4.5 0 0 0 9 0zm-11 0a6.5 6.5 0 1 1 13 0 6.5 6.5 0 0 1-13 0zM46 24a4.5 4.5 0 1 0-9 0 4.5 4.5 0 0 0 9 0zm-11 0a6.5 6.5 0 1 1 13 0 6.5 6.5 0 0 1-13 0z"/></g></svg>