<svg width="50" height="50" xmlns="http://www.w3.org/2000/svg"><g fill="#000" fill-rule="evenodd"><path d="M48 25C48 12.297 37.703 2 25 2S2 12.297 2 25s10.297 23 23 23 23-10.297 23-23zM0 25C0 11.193 11.193 0 25 0s25 11.193 25 25-11.193 25-25 25S0 38.807 0 25z"/><path d="M25.637 40.637V38.14c4.904-.334 8.015-3.041 8.015-7.084 0-3.586-2.091-5.608-6.996-6.838l-1.02-.264v-9.562c2.989.263 5.186 2.197 5.274 4.623h2.285c-.123-3.657-3.199-6.399-7.558-6.715V9.893h-1.828v2.425c-4.518.334-7.489 3.006-7.489 6.786 0 3.304 2.092 5.396 6.522 6.521l.967.264v10.177c-3.323-.298-5.625-2.25-5.819-4.939h-2.285c.053 3.92 3.357 6.732 8.104 7.031v2.479h1.828zm5.695-9.405c0 2.795-2.25 4.711-5.695 4.87v-9.844c4.06.914 5.695 2.355 5.695 4.974zM18.623 18.98c0-2.53 2.197-4.447 5.186-4.587v9.158c-3.586-.791-5.186-2.215-5.186-4.57z"/></g></svg>