<svg width="50" height="50" xmlns="http://www.w3.org/2000/svg"><path d="M25 50c13.807 0 25-11.193 25-25S38.807 0 25 0 0 11.193 0 25s11.193 25 25 25zm7.232-37.436c-.65-.193-2.074-.334-3.164-.334-5.818 0-10.793 3.2-12.146 9.493h-4.043v1.845h3.762a18.673 18.673 0 0 0-.088 1.758c0 .615.035 1.195.088 1.758h-3.762v1.863h4.043c1.371 6.258 6.346 9.457 12.146 9.457 1.09 0 2.514-.123 3.164-.316v-2.18c-.668.194-2.074.281-3.164.281-4.588 0-8.367-2.478-9.597-7.242h9.843v-1.863H19.12a18.673 18.673 0 0 1-.088-1.758c0-.615.035-1.195.088-1.758h10.195v-1.845h-9.843c1.23-4.782 4.992-7.26 9.597-7.26 1.09 0 2.496.123 3.164.281v-2.18z" fill="#000" fill-rule="evenodd"/></svg>