<svg width="50" height="50" xmlns="http://www.w3.org/2000/svg"><path d="M25 50c13.807 0 25-11.193 25-25S38.807 0 25 0 0 11.193 0 25s11.193 25 25 25zM21.59 8.247c-3.053 1.406-3.26 1.588-4.637 3.485-2.233 3.075-.788 6.88-.752 9.761.006.499-.971.063-.918.547.08.718.54 2.647.671 3.273.44 2.09.538 1.574.999 2.62.423.96.772-.144 1.15.892.396 1.084.27 3.794.693 4.838 1 2.47 1.991 2.487 1.278 5.074-.286 1.037-.82 2.183-1.971 2.557-1.15.375-4.453 1.406-4.453 1.406S19 46 25.96 46c6.224 0 11.453-3.772 11.207-3.867-1.883-.721-3.904-1.545-4.777-2.172-.7-.502-1.834-2.245-1.153-4.543.374-1.26.787-.87 1.153-1.755.434-1.05.209-4.073.846-5.427.145-.308.955-.41 1.095-.77.379-.978 1.183-4.476 1.38-5.426.071-.34-1.442-.205-1.38-.547.138-.76.449-1.44.523-2.214.217-2.278-.032-5.902-.523-7.547-.648-2.167-4.384-3.877-5.705-3.989C27.648 7.66 27.414 7 26.376 7c-2.359 0-4.786 1.247-4.786 1.247zm20.756 28.608a7.308 7.308 0 0 1-.88-.528c-.437-.313-1.143-1.399-.719-2.83.233-.786.49-.543.718-1.094.27-.654.13-2.538.527-3.382.09-.192.595-.255.682-.48.237-.608.737-2.788.86-3.38.045-.211-.898-.128-.86-.34.086-.474.28-.898.326-1.38.136-1.42-.02-3.677-.326-4.702-.403-1.35-2.73-2.416-3.554-2.485-.485-.041-.677-.31-1.061-.419.01.804-.014 1.576-.077 2.235-.074.773-.385 1.455-.523 2.214-.062.341 1.451.207 1.38.547-.197.95-1 4.448-1.38 5.426-.14.36-.95.461-1.095.77-.637 1.353-.412 4.377-.846 5.427-.366.884-.779.494-1.153 1.755-.68 2.298.453 4.04 1.153 4.543.701.503 2.143 1.133 3.658 1.736C41 39 41.466 38 42.346 36.855zm-34.239.624c.21-.037.383-.075.5-.113.749-.244 1.097-.99 1.283-1.665.465-1.685-.18-1.696-.831-3.304-.276-.68-.194-2.444-.452-3.15-.246-.675-.474.045-.749-.581-.3-.681-.364-.345-.65-1.706-.085-.407-.385-1.663-.437-2.13-.035-.316.602-.032.598-.357-.024-1.876-.965-4.353.49-6.356.896-1.235 1.03-1.353 3.019-2.27 0 0 .667-.342 1.556-.582.033 1.85.471 3.695.49 5.264.007.499-.97.064-.917.547.08.718.54 2.648.671 3.273.44 2.09.538 1.574.999 2.62.422.96.771-.144 1.15.892.396 1.085.27 3.794.693 4.838 1 2.47 1.99 2.487 1.278 5.074-.286 1.038-.821 2.183-1.971 2.557-.482.157-1.791.53-3.15.91C11 40.6 10 40 8.107 37.48z" fill-rule="evenodd"/></svg>