<svg width="50" height="50" xmlns="http://www.w3.org/2000/svg"><g fill-rule="evenodd"><path d="M48 25C48 12.297 37.703 2 25 2S2 12.297 2 25s10.297 23 23 23 23-10.297 23-23zM0 25C0 11.193 11.193 0 25 0s25 11.193 25 25-11.193 25-25 25S0 38.807 0 25z"/><path d="M20.765 8.1c-3.053 1.406-3.26 1.588-4.637 3.485-2.233 3.076-.788 6.88-.752 9.762.006.498-.971.063-.918.547.08.717.54 2.647.671 3.272.44 2.09.538 1.574.999 2.62.423.961.771-.144 1.15.892.396 1.085.27 3.794.693 4.838 1 2.47 1.991 2.487 1.278 5.074-.286 1.038-.82 2.183-1.971 2.558-1.15.374-7.019 1.98-7.019 1.98-.973 3.834 10.73 6.905 19.29 5.762 6.346-.848 10.226-5.594 9.802-5.761-1.98-.78-6.377-2.304-7.786-3.315-.7-.502-1.834-2.244-1.153-4.543.374-1.26.787-.87 1.153-1.755.434-1.049.209-4.073.846-5.427.145-.308.955-.409 1.095-.77.379-.977 1.183-4.476 1.38-5.425.07-.34-1.442-.206-1.38-.547.138-.76.449-1.441.523-2.215.217-2.277-.032-5.902-.523-7.547-.648-2.167-4.384-3.877-5.705-3.988-.978-.083-1.212-.744-2.25-.744-2.359 0-4.786 1.247-4.786 1.247z"/></g></svg>