<svg width="50" height="50" xmlns="http://www.w3.org/2000/svg"><g fill-rule="evenodd"><path d="M19.191 18.077c.131-.173.134-.641.002-.82l-3.038-4.134c.03.041.158.056.197.023l-1.856 1.585c-.298.255-.557.987-.486 1.355l.026.134.007.136c0-.01.003.025.013.1.022.158.057.354.11.586.159.705.427 1.533.831 2.47 1.197 2.775 3.272 5.823 6.455 9.037 3.145 3.176 6.342 5.194 9.42 6.305 1.052.38 2.007.621 2.842.753.47.075.772.097.886.097l-.67.115a3.73 3.73 0 0 0 .975-.582c.304-.246.53-.514.666-.792.02-.04.108-.249.218-.517.12-.295.226-.561.3-.747.048-.12-.035-.37-.14-.434l-4.109-2.485c-.248-.15-.852-.122-1.09.054l-.076.057c-1.693 1.253-4.15 1.062-5.62-.437l-5.074-5.17c-1.85-1.884-2.049-5.024-.452-7.134l1.539 1.164a2.37 2.37 0 0 1-.28.488l.336-.445a3.09 3.09 0 0 0-.297.475l-1.635-1.237zm.337-.445l-.337.445 1.595 1.207c-.62 1.326-.401 3.04.622 4.082l5.073 5.169c.77.785 2.11.892 3.002.23l.078-.057c.888-.657 2.37-.729 3.314-.158l4.11 2.486c.942.57 1.374 1.861.96 2.891 0 0-.45 1.136-.576 1.395-.825 1.691-2.77 2.382-2.77 2.382s-6.895 0-14.568-7.748-7.985-13.492-7.985-13.492c-.207-1.077.307-2.533 1.15-3.253l1.857-1.586a1.834 1.834 0 0 1 2.714.313l3.038 4.134c.545.742.63 1.863.262 2.724l-1.54-1.164z"/><path d="M48 25C48 12.297 37.703 2 25 2S2 12.297 2 25s10.297 23 23 23 23-10.297 23-23zM0 25C0 11.193 11.193 0 25 0s25 11.193 25 25-11.193 25-25 25S0 38.807 0 25z"/></g></svg>