<svg width="44" height="50" xmlns="http://www.w3.org/2000/svg"><path d="M.035 10.19c-.18-1.081.35-2.535 1.195-3.258l3.533-3.018c1.676-1.432 4.094-1.152 5.403.63l4.782 6.507c.98 1.332.963 3.484-.036 4.805l-.798 1.055c-1 1.32-.873 3.346.288 4.529l9.917 10.105c1.159 1.18 3.17 1.343 4.51.351l.603-.446c1.332-.987 3.556-1.094 4.981-.232l6.409 3.876c1.89 1.143 2.753 3.742 1.93 5.78 0 0-.438 1.139-.689 1.652-1.36 2.788-3.652 3.512-3.652 3.512-.503.228-1.364.394-1.91.345 0 0-10.367.07-23.013-12.7C.84 20.912.035 10.19.035 10.19z" fill="#000" fill-rule="evenodd"/></svg>