<svg width="50" height="50" viewBox="0 0 50 50" xmlns="http://www.w3.org/2000/svg"><path d="M25 50c13.807 0 25-11.193 25-25S38.807 0 25 0 0 11.193 0 25s11.193 25 25 25zM12.199 17.124c-.208-1.077.307-2.533 1.15-3.253l1.856-1.586a1.834 1.834 0 0 1 2.714.313l3.038 4.134c.656.893.646 2.334-.018 3.212l.336-.445c-1 1.321-.869 3.351.285 4.527l5.073 5.169c.77.785 2.11.892 3.003.23l.077-.056c.888-.658 2.37-.73 3.315-.159l4.109 2.486c.943.57 1.375 1.861.96 2.892 0 0-.45 1.135-.576 1.394-.824 1.691-2.769 2.382-2.769 2.382s-6.895 0-14.569-7.748C12.51 22.868 12.2 17.124 12.2 17.124z" fill="#000" fill-rule="evenodd"/></svg>