<svg width="50" height="50" xmlns="http://www.w3.org/2000/svg"><g fill-rule="evenodd"><path d="M25 48c12.703 0 23-10.297 23-23S37.703 2 25 2L26.927.073C26.95.075 27 25 27 25v1.192l-1.049.567L4.027 38.611c-.014-.02.734-2.67.734-2.67A22.997 22.997 0 0 0 25 48zm25-23c0 13.807-11.193 25-25 25-9.503 0-17.767-5.302-21.996-13.109L25 25V0c13.807 0 25 11.193 25 25z"/><path d="M2 25c0 2.962.982 6.61.982 6.61l19.063-10.367L21 23V2.368C13 3 2 13.036 2 25zm21-2L1.865 34.493A24.927 24.927 0 0 1 0 25C0 11.866 10.128 1.098 23 .079V23z"/></g></svg>