<svg width="51" height="50" xmlns="http://www.w3.org/2000/svg"><g fill="none" fill-rule="evenodd"><path d="M48.933 25c0-12.703-10.298-23-23-23-12.703 0-23 10.297-23 23s10.297 23 23 23c12.702 0 23-10.297 23-23zm-48 0c0-13.807 11.192-25 25-25 13.807 0 25 11.193 25 25s-11.193 25-25 25c-13.808 0-25-11.193-25-25z" fill="#000"/><path d="M25.933 11c-7.732 0-14 6.268-14 14m14 14c7.731 0 14-6.268 14-14" stroke="#000" stroke-width="2"/><path fill="#000" d="M25.933 4v13.91l9-6.955zm0 27.5v13.91l-9-6.955z"/></g></svg>