<svg width="50" height="50" viewBox="0 0 50 50" xmlns="http://www.w3.org/2000/svg"><path d="M3.469 22.006L22 35.15V26.117h2c.754 0 2.02.065 3.633.26 2.686.325 5.375.91 7.908 1.829 1.903.69 3.645 1.546 5.19 2.588 1.774 1.199 3.367 2.843 4.943 4.941.92 1.226 1.868 3.176 1.593 2.298C47 32 44.85 26.703 41.947 23.827c-1.722-1.707-3.89-3.016-6.411-3.964-2.205-.829-4.582-1.348-7.002-1.61a29.948 29.948 0 0 0-4.172-.178l-.232.01-2.13.14V8.897L3.469 22.006zM24 28.116V39L0 22 24 5v9.087c-.054.002 0 .13 0 .13v1.873s.749-.05 1.985-.014c3.77.108 11.98.989 17.37 6.33 4.306 4.268 6.217 13.03 5.944 18.467-.344 6.84-3.264-4.085-9.688-8.42C35.037 29.364 29.062 28.475 26 28.22c-1.277-.103-2-.103-2-.103z" fill="#000" fill-rule="evenodd"/></svg>