<svg width="50" height="50" xmlns="http://www.w3.org/2000/svg"><g fill-rule="evenodd"><path d="M2 25C2 12.297 12.297 2 25 2s23 10.297 23 23-10.297 23-23 23S2 37.703 2 25zm48 0C50 11.193 38.807 0 25 0S0 11.193 0 25s11.193 25 25 25 25-11.193 25-25z"/><path d="M23.5 32.698V18.61c0-1.108-.769-1.557-1.734-.994L9.728 24.643c-.958.558-.965 1.46 0 2.023l12.038 7.027c.958.559 1.734.114 1.734-.995z"/><path d="M38 32.698V18.61c0-1.108-.769-1.557-1.734-.994l-12.038 7.027c-.958.558-.965 1.46 0 2.023l12.038 7.027c.958.559 1.734.114 1.734-.995z"/></g></svg>