<svg width="50" height="50" viewBox="0 0 50 50" xmlns="http://www.w3.org/2000/svg"><path d="M29.656 7.608A18.025 18.025 0 0 0 25 7a17.963 17.963 0 0 0-13.848 6.5l7.098 5.546A8.978 8.978 0 0 1 25 16c.64 0 1.264.067 1.866.194l2.79-8.586zm1.9.623C37.961 10.737 42.58 16.806 42.973 24h-9.028a9.007 9.007 0 0 0-5.18-7.177l2.791-8.592zM9.96 15.107A17.916 17.916 0 0 0 7 25c0 3.578 1.044 6.912 2.844 9.714l7.306-5.309A8.96 8.96 0 0 1 16 25a8.96 8.96 0 0 1 1.1-4.315l-7.14-5.578zm1.056 21.227C14.316 40.401 19.355 43 25 43c1.615 0 3.18-.213 4.668-.611l-3.102-8.525A9.056 9.056 0 0 1 25 34a8.977 8.977 0 0 1-6.682-2.97l-7.302 5.304zm20.553 5.43c6.398-2.51 11.01-8.575 11.404-15.764h-9.028a9.008 9.008 0 0 1-5.457 7.3l3.081 8.464zM44.975 24C44.455 13.419 35.71 5 25 5 13.954 5 5 13.954 5 25s8.954 20 20 20c10.71 0 19.454-8.419 19.975-19H45v-2h-.025zM26 46.978a22.012 22.012 0 0 0 3.82-.508l.656 2.448 1.932-.517-.658-2.456a21.86 21.86 0 0 0 3.162-1.3l1.364 2.363 1.732-1-1.354-2.345a22.085 22.085 0 0 0 3.18-2.416l1.76 1.761 1.414-1.414-1.76-1.76a22.085 22.085 0 0 0 2.415-3.18l2.345 1.354 1-1.732-2.362-1.364a21.855 21.855 0 0 0 1.421-3.553l2.424.65.517-1.933-2.452-.657c.227-1.111.37-2.253.422-3.419H49.5v-2h-2.522a22.033 22.033 0 0 0-.42-3.407l2.43-.651-.517-1.932-2.4.643a21.855 21.855 0 0 0-1.423-3.56l2.34-1.351-1-1.732-2.322 1.34a22.085 22.085 0 0 0-2.42-3.184l1.742-1.742-1.414-1.414-1.742 1.742a22.085 22.085 0 0 0-3.185-2.42l1.341-2.322-1.732-1-1.351 2.34a21.86 21.86 0 0 0-3.169-1.3l.652-2.432-1.932-.518-.65 2.427A22.013 22.013 0 0 0 26 3.022V.5h-2v2.522c-1.304.059-2.58.23-3.815.506l-.653-2.438-1.932.518.655 2.445a21.86 21.86 0 0 0-3.165 1.3L13.732 3 12 4l1.348 2.335a22.085 22.085 0 0 0-3.181 2.418L8.414 7 7 8.414l1.753 1.753a22.085 22.085 0 0 0-2.418 3.181L4 12l-1 1.732 2.353 1.358a21.855 21.855 0 0 0-1.422 3.557L1.518 18 1 19.932l2.443.654A22.033 22.033 0 0 0 3.023 24H.5v2h2.522c.053 1.166.196 2.31.422 3.421L1 30.076l.518 1.932 2.416-.647c.372 1.234.85 2.423 1.422 3.555L3 36.276l1 1.732 2.34-1.35a22.086 22.086 0 0 0 2.416 3.18L7 41.594l1.414 1.414 1.757-1.757a22.085 22.085 0 0 0 3.18 2.416L12 46.008l1.732 1 1.362-2.359a21.86 21.86 0 0 0 3.163 1.299L17.6 48.4l1.932.517.655-2.446c1.235.276 2.51.447 3.813.506V49.5h2v-2.522zM32 25a7 7 0 1 0-14 0 7 7 0 0 0 14 0zm-7 1a1 1 0 1 0 0-2 1 1 0 0 0 0 2z" fill="#000" fill-rule="evenodd"/></svg>