<svg width="50" height="50" xmlns="http://www.w3.org/2000/svg"><g fill="#000" fill-rule="evenodd"><g transform="translate(3 3)"><path d="M42 22c0-11.046-8.954-20-20-20S2 10.954 2 22s8.954 20 20 20 20-8.954 20-20zM0 22C0 9.85 9.85 0 22 0s22 9.85 22 22-9.85 22-22 22S0 34.15 0 22z"/><circle cx="22" cy="22" r="1"/><path d="M29 22a7 7 0 1 0-14 0 7 7 0 0 0 14 0zm-5.134-8.806A9.037 9.037 0 0 0 22 13a8.978 8.978 0 0 0-6.75 3.046L6.231 9 5 10.576l9.1 7.11A8.96 8.96 0 0 0 13 22c0 1.6.418 3.103 1.15 4.405L5 33.053l1.176 1.618 9.142-6.642A8.977 8.977 0 0 0 22 31c.534 0 1.057-.047 1.566-.136l4.038 11.096 1.88-.684L25.488 30.3A9.008 9.008 0 0 0 30.945 23H42v-2H30.945a9.007 9.007 0 0 0-5.18-7.177l3.551-10.93-1.902-.619-3.548 10.92z"/></g><path d="M1.518 18l2.898.776-.518 1.932L1 19.932zM4 12l2.598 1.5-1 1.732L3 13.732zM8.414 7l2.122 2.122-1.415 1.414L7 8.415zM13.732 3l1.5 2.598-1.732 1L12 4zM19.532 1.09l.776 2.898-1.932.517-.776-2.898zM1.518 32l2.898-.776-.518-1.932L1 30.068zM4 38l2.598-1.5-1-1.732L3 36.268zM8.414 43l2.122-2.122-1.415-1.414L7 41.585zM13.732 47l1.5-2.598-1.732-1L12 46zM19.532 48.91l.776-2.898-1.932-.517-.776 2.898z"/><g><path d="M48.482 18l-2.898.776.518 1.932L49 19.932zM46 12l-2.598 1.5 1 1.732 2.598-1.5zM41.586 7l-2.122 2.122 1.415 1.414L43 8.415zM36.268 3l-1.5 2.598 1.732 1L38 4zM30.468 1.09l-.776 2.898 1.932.517.776-2.898z"/></g><g><path d="M48.482 32l-2.898-.776.518-1.932 2.898.776zM46 38l-2.598-1.5 1-1.732 2.598 1.5zM41.586 43l-2.122-2.122 1.415-1.414L43 41.585zM36.268 47l-1.5-2.598 1.732-1L38 46zM30.468 48.91l-.776-2.898 1.932-.517.776 2.898z"/></g><path d="M24 .5h2v3h-2zM46.5 24h3v2h-3zM.5 24h3v2h-3zM24 46.5h2v3h-2z"/></g></svg>