<svg width="50" height="50" xmlns="http://www.w3.org/2000/svg"><g fill-rule="evenodd"><path d="M3.688 2C2.747 2 2 2.73 2 3.606v42.787c0 .877.748 1.608 1.688 1.608H46.3c.947 0 1.699-.733 1.699-1.608V3.606C48 2.732 47.249 2 46.301 2H3.688zM46.3 0C48.341 0 50 1.614 50 3.606v42.787c0 1.992-1.66 3.608-3.699 3.608H3.688C1.653 50.001 0 48.385 0 46.393V3.606C0 1.614 1.653 0 3.688 0H46.3z"/><path d="M14.832 43.607h1V17.745H6.41v25.862h8.423zM8.408 41.6L8.4 19.74h5.43l.002 21.86H8.408zM7.82 11.184a3.3 3.3 0 1 1 6.6 0 3.3 3.3 0 0 1-6.6 0zm8.6 0a5.3 5.3 0 1 0-5.297 5.301 5.3 5.3 0 0 0 5.297-5.301zM36.193 41.6V31.002c0-2.236-.102-3.382-.57-4.568-.695-1.763-2.12-2.758-4.283-2.758-4.037 0-5.449 2.563-5.449 7.129V41.6c0-.031-5.407 0-5.407 0V19.75h5.108v3.258H27.3l.28-.534c1.007-1.91 3.29-3.32 6.132-3.32 5.972 0 7.897 3.052 7.897 10.366V41.6h-5.415zm7.415 2.007V29.52c0-8.28-2.578-12.367-9.897-12.367-3.593 0-6.552 1.83-7.9 4.388l.884.467v-1h-.103v1h1v-4.263h-9.108v25.862h9.407V30.805c0-3.608.838-5.13 3.449-5.13 2.32 0 2.853 1.35 2.853 5.327v12.605h9.415z"/></g></svg>