<svg width="50" height="50" xmlns="http://www.w3.org/2000/svg"><path d="M42.608 42.607h-7.415V31.002c0-2.766-.048-6.326-3.853-6.326-3.86 0-4.449 3.015-4.449 6.129v11.802h-7.407V18.745h7.108v3.263h.103c.99-1.877 3.409-3.855 7.016-3.855 7.51 0 8.897 4.94 8.897 11.367v13.087zM11.123 15.485a4.299 4.299 0 0 1-4.303-4.301 4.3 4.3 0 0 1 8.6 0 4.3 4.3 0 0 1-4.297 4.301zM7.409 42.607h7.423V18.745H7.41v23.862zM46.3 0H3.688C1.653 0 0 1.614 0 3.606v42.787c0 1.992 1.653 3.608 3.688 3.608H46.3c2.04 0 3.699-1.616 3.699-3.608V3.606C50 1.614 48.34 0 46.301 0z" fill="#1A1918" fill-rule="evenodd"/></svg>