<svg width="50" height="50" xmlns="http://www.w3.org/2000/svg"><g fill-rule="evenodd"><path d="M2 36.006C2 42.628 7.371 48 13.994 48h22.012C42.628 48 48 42.629 48 36.006V13.994C48 7.372 42.629 2 36.006 2H13.994C7.372 2 2 7.371 2 13.994v22.012zM13.994 0h22.012C43.735 0 50 6.27 50 13.994v22.012C50 43.735 43.73 50 36.006 50H13.994C6.265 50 0 43.73 0 36.006V13.994C0 6.265 6.27 0 13.994 0z"/><circle cx="38.5" cy="11.5" r="2.5"/><path d="M36 25c0-6.075-4.925-11-11-11s-11 4.925-11 11 4.925 11 11 11 11-4.925 11-11zm-24 0c0-7.18 5.82-13 13-13s13 5.82 13 13-5.82 13-13 13-13-5.82-13-13z"/></g></svg>