<svg width="50" height="50" xmlns="http://www.w3.org/2000/svg"><path d="M33.229 40.66c0 1.45-.006 2.837-.016 4.387l-.005.835-.005.701c-.004.484-.005.755-.005.934 0-.359-.479-.796-.66-.76l.379 1.963-.633-1.897C41.596 43.715 48 34.974 48 25 48 12.298 37.701 2 24.998 2 12.298 2 2 12.298 2 25a23.001 23.001 0 0 0 15.728 21.824l-.631 1.898.362-1.967c-.185-.035-.655.395-.655.762 0-.179-.002-.453-.007-.944l-.007-.714a1031.162 1031.162 0 0 1-.019-2.316c.1-.005.202-.012.305-.02l1.706 1.366c0 .143.002.28.003.415-3.85.735-6.783-.16-8.728-2.183-.903-.94-1.401-1.895-1.623-2.63l.054.155a7.913 7.913 0 0 0-.68-1.357c-.31-.484-.623-.838-.918-1.084-.134-.112-.198-.152-.167-.138L6.577 38l-.133-.09c-1.252-.856-1.934-1.658-1.83-2.895.07-.827.535-1.438 1.157-1.81a3.115 3.115 0 0 1 1.012-.375 4.79 4.79 0 0 1 .972-.092c1.696.115 3.033.793 4.134 1.821.695.649 1.165 1.298 1.412 1.748 1.156 1.981 2.798 2.128 4.729 1.26l.82 1.824-1.98-.278c.186-1.329.62-2.496 1.252-3.43a24.64 24.64 0 0 0 2.314.367c-.468.41-.907 1.026-1.218 1.858-7.75-1.155-12.17-5.236-12.17-14.214 0-3.122 1.088-5.862 3.1-8.059l1.475 1.35-1.852.756c-.85-2.085-1.038-4.884.237-8.107l.349-.88.9-.289a2.94 2.94 0 0 1 .438-.1c1.86-.292 4.571.475 8.169 2.912l-1.659-.27c2.14-.597 4.452-.905 6.806-.917 2.332.012 4.642.32 6.785.916l-1.659.271c3.596-2.437 6.305-3.204 8.164-2.912.171.027.317.062.437.1l.9.289.348.878c1.278 3.223 1.093 6.013.245 8.105l-1.854-.751 1.474-1.352c2.012 2.193 3.096 4.933 3.096 8.06 0 8.993-4.411 13.054-12.18 14.194-.316-.834-.762-1.45-1.234-1.858a24.905 24.905 0 0 0 2.327-.362c.875 1.285 1.369 3.007 1.369 4.993zM9.455 35.136a4.986 4.986 0 0 0-1.033-.69l-.169.36a4.083 4.083 0 0 0-.509-.069s-2.442-.03-.172 1.52c0 0 .16.075.416.267-.054.043-.11.082-.168.116a.808.808 0 0 1-.252.112c.046-.01.133-.015.16-.015.212.019.535.124.843.302.546.557 1.222 1.463 1.778 2.875 0 0 1.467 4.862 8.42 3.352.013 2.085.035 3.658.035 4.25 0 .664-.456 1.436-1.707 1.206C7.163 45.416 0 36.046 0 25 0 11.193 11.194 0 24.998 0 38.806 0 50 11.193 50 25c0 11.043-7.156 20.407-17.083 23.72-1.268.244-1.719-.534-1.719-1.203 0-.82.03-3.516.03-6.857 0-2.333-.799-3.859-1.695-4.63 5.568-.62 11.414-2.732 11.414-12.337 0-2.729-.967-4.962-2.57-6.708.257-.632 1.115-3.175-.25-6.616 0 0-2.095-.673-6.868 2.563-1.996-.556-4.134-.832-6.258-.843-2.126.01-4.265.287-6.259.843-4.776-3.236-6.874-2.563-6.874-2.563-1.361 3.44-.503 5.984-.245 6.616-1.6 1.746-2.574 3.98-2.574 6.708 0 9.58 5.836 11.726 11.387 12.356-.713.625-1.36 1.727-1.586 3.341-1.425.64-5.047 1.744-7.277-2.076 0 0-.597-1.087-1.752-1.851a7.363 7.363 0 0 0-.366-.327zm-.755-.531a2.727 2.727 0 0 1-.374-.288c.046.054.1.135.152.256.042.095.075.199.097.31a4.128 4.128 0 0 0-.054-.015l.18-.263z" fill="#000" fill-rule="evenodd"/></svg>