<svg width="50" height="50" xmlns="http://www.w3.org/2000/svg"><path d="M45.108 15.873c0-.655-.005-.95-.031-1.328l-.998.067.586.803a20.93 20.93 0 0 0 5.158-5.303c.557-.826-.32-1.86-1.236-1.457a18.785 18.785 0 0 1-5.368 1.457l.63 1.834a10.8 10.8 0 0 0 4.768-5.943c.282-.87-.67-1.622-1.462-1.157a18.835 18.835 0 0 1-5.936 2.25l.922.292c-3.362-3.542-8.703-4.41-13.03-2.115-4.326 2.295-6.561 7.181-5.452 11.918l1.024-1.213c-7.634-.38-14.746-3.953-19.567-9.831a1.005 1.005 0 0 0-1.64.127c-2.88 4.911-1.409 11.194 3.357 14.348l.585-1.814a8.834 8.834 0 0 1-4.012-1.097c-.666-.368-1.486.11-1.486.866v.124c.001 5.117 3.64 9.524 8.701 10.537l-.065-1.927a8.908 8.908 0 0 1-3.994.15c-.746-.143-1.373.56-1.14 1.276 1.42 4.379 5.491 7.378 10.131 7.465l-.599-1.77a18.865 18.865 0 0 1-13.835 3.84c-1.055-.125-1.553 1.25-.66 1.818a29.065 29.065 0 0 0 15.635 4.532l-.003-1.981A27.053 27.053 0 0 1 1.54 38.42l-.54.835-.119.983a20.877 20.877 0 0 0 15.309-4.25c.739-.575.34-1.751-.6-1.769-3.784-.07-7.106-2.517-8.265-6.09l-1.141 1.277c1.625.31 3.301.247 4.898-.184 1.017-.275.968-1.72-.065-1.928-4.128-.826-7.097-4.421-7.098-8.595v-.123h-1l-.486.865a10.847 10.847 0 0 0 4.926 1.347c1.004.03 1.42-1.262.585-1.815-3.888-2.573-5.088-7.698-2.74-11.705l-1.64.128c5.179 6.314 12.819 10.153 21.019 10.56a.994.994 0 0 0 1.024-1.214c-.905-3.864.918-7.85 4.448-9.722 3.53-1.872 7.887-1.165 10.63 1.725a1 1 0 0 0 .921.293 20.846 20.846 0 0 0 6.57-2.488l-1.462-1.156a8.816 8.816 0 0 1-3.891 4.85c-.925.55-.44 1.96.63 1.835a20.799 20.799 0 0 0 5.944-1.613L48.16 9.01a18.94 18.94 0 0 1-4.668 4.8.983.983 0 0 0-.411.87c.022.318.026.583.026 1.193 0 14.241-11.148 26.775-27.016 26.775v1.982c17.033 0 29.016-13.473 29.016-28.757z" fill-rule="evenodd"/></svg>