<svg width="50" height="50" viewBox="0 0 50 50" xmlns="http://www.w3.org/2000/svg"><path d="M0 25c0 11.046 7.163 20.416 17.097 23.722 1.25.23 1.707-.542 1.707-1.205 0-.593-.022-2.166-.034-4.251-6.954 1.51-8.421-3.352-8.421-3.352-1.138-2.889-2.777-3.658-2.777-3.658-2.27-1.55.172-1.519.172-1.519 2.51.177 3.83 2.577 3.83 2.577 2.23 3.82 5.851 2.716 7.276 2.076.227-1.614.873-2.716 1.586-3.34-5.55-.631-11.387-2.777-11.387-12.357 0-2.729.974-4.962 2.574-6.708-.258-.632-1.116-3.175.245-6.616 0 0 2.098-.673 6.874 2.563 1.994-.556 4.133-.832 6.259-.843 2.124.01 4.262.287 6.258.843 4.773-3.236 6.868-2.563 6.868-2.563 1.365 3.44.507 5.984.25 6.616 1.603 1.746 2.57 3.98 2.57 6.708 0 9.605-5.846 11.718-11.414 12.336.896.772 1.696 2.298 1.696 4.63 0 3.342-.031 6.038-.031 6.858 0 .669.451 1.447 1.719 1.203C42.844 45.407 50 36.043 50 25 50 11.194 38.806 0 24.998 0 11.194 0 0 11.193 0 25z" fill="#151513" fill-rule="evenodd"/></svg>