<svg width="38" height="50" xmlns="http://www.w3.org/2000/svg"><g fill="none" fill-rule="evenodd"><path d="M12 8l-2-2h18l-2 2V1.998C26 1.995 11.995 2 11.995 2 11.998 2 12 8 12 8zm-.005-8h14.01C27.107 0 28 .887 28 1.998V8H10V1.998C10 .895 10.893 0 11.995 0z" fill="#000"/><path fill="#000" d="M0 6h38v2H0z"/><path d="M2.13 8l-.008-.13L3.874 6h.13l2.73 41.865c.003.059.084.135.125.135h23.313c.603 0 1.16-.521 1.198-1.118L33.996 6h.128l1.756 1.872-.008.128H2.13zM36 6l-2.634 41.01C33.26 48.661 31.828 50 30.172 50H6.859c-1.1 0-2.05-.899-2.121-2.005L2 6h34z" fill="#000"/><path d="M11 13l2 30m14-30l-2 30m-6-30v30" stroke="#000" stroke-width="2" stroke-linecap="square"/></g></svg>