<svg width="38" height="49" viewBox="0 0 38 49" xmlns="http://www.w3.org/2000/svg"><path d="M13.923 16.49c.006 1.988.01 3.928.014 5.79.016 8.625 0 14.362-.062 15.94-.183 4.73-.565 6.274-2.413 8.016-1.798 1.696-4.406 2.165-6.711 1.68-2.133-.449-3.77-1.607-4.267-3.48-.872-3.282.968-6.21 4.175-7.209.677-.21 1.337-.355 2.186-.495l.69-.109c2.3-.352 3.324-.612 4.895-1.396l.893 1.79c-.498.248-.949.45-1.394.622l-.007-.139-.027.003c.045-2.165.057-7.566.042-15.22a5192.421 5192.421 0 0 0-.053-15.765l-.003-.55c-.005-1.048.783-1.984 1.812-2.156L35.283.184a1.826 1.826 0 0 1 2.157 1.805l.275 32.108c.003.043.007.116.011.216.048 1.137-.034 2.46-.354 3.749a8.026 8.026 0 0 1-.695 1.856C35.61 41.912 33.3 43.3 31.161 43.74c-3.206.66-6.154-.659-7.252-3.306-1.152-2.776.34-6.646 4.036-8.086.35-.136.697-.242 1.06-.327.479-.113.917-.178 1.666-.262 2.428-.274 3.487-.466 5.742-1.186l.609 1.905c-.396.127-.758.238-1.098.337a51.773 51.773 0 0 0-.015-.336l-.206.034-.171-19.826-21.61 3.803z" fill="#000" fill-rule="evenodd"/></svg>