<svg width="38" height="49" viewBox="0 0 38 49" xmlns="http://www.w3.org/2000/svg"><g fill="#000" fill-rule="evenodd"><path d="M30.671 31.759c-.749.084-1.187.15-1.667.262-.362.085-.71.191-1.059.327-3.697 1.44-5.188 5.31-4.036 8.086 1.098 2.647 4.046 3.966 7.252 3.306 2.14-.44 4.448-1.828 5.516-3.822a8.026 8.026 0 0 0 .695-1.856c.32-1.288.402-2.612.354-3.749a6.89 6.89 0 0 0-.011-.216L37.44 1.989A1.826 1.826 0 0 0 35.283.184l-21.59 3.628c-1.029.172-1.817 1.108-1.812 2.156l.003.55a4919.004 4919.004 0 0 1 .028 6.814c.011 3.092.02 6.115.025 8.951.016 8.575 0 14.323-.06 15.86-.164 4.23-.448 5.375-1.787 6.638-1.26 1.189-3.209 1.539-4.928 1.177-1.468-.308-2.476-1.021-2.745-2.035-.583-2.195.609-4.093 2.837-4.786.575-.18 1.15-.305 1.917-.432l.667-.105c2.49-.381 3.684-.685 5.485-1.584l-.893-1.79c-1.57.785-2.595 1.045-4.894 1.397-.317.049-.494.077-.69.109-.85.14-1.51.284-2.187.495-3.207.998-5.047 3.927-4.175 7.21.497 1.872 2.134 3.03 4.267 3.479 2.305.485 4.913.016 6.711-1.68 1.848-1.742 2.23-3.285 2.413-8.015.062-1.58.078-7.316.062-15.942a5194.324 5194.324 0 0 0-.053-15.77l-.003-.55c0-.068.081-.165.143-.175l21.59-3.628c-.067.012-.174-.077-.174-.15l.277 32.175.011.215c.04.963-.03 2.111-.297 3.183a6.063 6.063 0 0 1-.517 1.394c-.747 1.395-2.546 2.477-4.156 2.809-2.317.476-4.294-.408-5.002-2.114-.733-1.768.294-4.436 2.915-5.456.26-.101.517-.18.79-.244.383-.09.758-.146 1.434-.222 2.547-.287 3.721-.5 6.127-1.268l-.609-1.905c-2.255.72-3.314.912-5.742 1.186z"/><path d="M35.53 10.613l-21.62 3.902v1.97l21.63-3.844z"/></g></svg>