<svg width="42" height="50" viewBox="0 0 42 50" xmlns="http://www.w3.org/2000/svg"><g fill="none" fill-rule="evenodd"><path d="M2 45.006A3.003 3.003 0 0 0 5.004 48h31.992A3 3 0 0 0 40 45.006V21.994A3.003 3.003 0 0 0 36.996 19H5.004A3 3 0 0 0 2 21.994v23.012zM5.004 17h31.992A5.003 5.003 0 0 1 42 21.994v23.012A5 5 0 0 1 36.996 50H5.004A5.003 5.003 0 0 1 0 45.006V21.994A5 5 0 0 1 5.004 17z" fill="#000"/><path d="M24 32a3 3 0 1 0-6 0 3 3 0 0 0 6 0zm-8 0a5 5 0 1 1 10 0 5 5 0 0 1-10 0z" fill="#000"/><path fill="#000" d="M20 36h2v6h-2z"/><path d="M31 11c0-5.523-4.477-10-10-10S11 5.477 11 11" stroke="#000" stroke-width="2"/><path fill="#000" d="M10 10.9h2v7.139h-2z"/></g></svg>