<svg width="50" height="50" xmlns="http://www.w3.org/2000/svg"><g fill="none" fill-rule="evenodd"><path d="M48 25C48 12.297 37.703 2 25 2S2 12.297 2 25s10.297 23 23 23 23-10.297 23-23zM0 25C0 11.193 11.193 0 25 0s25 11.193 25 25-11.193 25-25 25S0 38.807 0 25z" fill="#000"/><path d="M12 30.994c0 1.113.892 2.006 1.995 2.006h12.603a2.002 2.002 0 0 0 1.995-2.006V20.006A1.997 1.997 0 0 0 26.598 18H13.995A2.002 2.002 0 0 0 12 20.006v10.988zM13.995 16h12.603a3.997 3.997 0 0 1 3.995 4.006v10.988A4.002 4.002 0 0 1 26.598 35H13.995A3.997 3.997 0 0 1 10 30.994V20.006A4.002 4.002 0 0 1 13.995 16z" fill="#000"/><path d="M33.86 22.085c-.475.274-.86.947-.86 1.486v4.019c0 .547.394 1.218.86 1.487l4.28 2.47c.475.273.86.05.86-.497V20.112c0-.549-.394-.766-.86-.497l-4.28 2.47z" stroke="#000" stroke-width="2"/></g></svg>