<svg width="59" height="50" xmlns="http://www.w3.org/2000/svg"><g fill="none" fill-rule="evenodd"><path d="M2 36.995A3.994 3.994 0 0 0 5.998 41h28.504a4.004 4.004 0 0 0 3.998-4.005v-23.99A3.994 3.994 0 0 0 34.502 9H5.998A4.004 4.004 0 0 0 2 13.005v23.99zM5.998 7h28.504a5.994 5.994 0 0 1 5.998 6.005v23.99A6.004 6.004 0 0 1 34.502 43H5.998A5.994 5.994 0 0 1 0 36.995v-23.99A6.004 6.004 0 0 1 5.998 7z" fill="#000"/><path d="M45.373 17.996c-.482.278-.873.951-.873 1.503V30.5c0 .552.39 1.223.873 1.503l11.254 6.492c.482.278.873.064.873-.493V11.997c0-.55-.39-.773-.873-.493l-11.254 6.492z" stroke="#000" stroke-width="2"/></g></svg>