<svg width="50" height="50" xmlns="http://www.w3.org/2000/svg"><path d="M25 50c13.807 0 25-11.193 25-25S38.807 0 25 0 0 11.193 0 25s11.193 25 25 25zM10 20.006A4.002 4.002 0 0 1 13.995 16h12.603a3.997 3.997 0 0 1 3.995 4.006v10.988A4.002 4.002 0 0 1 26.598 35H13.995A3.997 3.997 0 0 1 10 30.994V20.006zm28.734-2.229c.612-.353 1.266.018 1.266.725v13.87c0 .71-.655 1.077-1.266.725l-6.002-3.463c-.422-.243-.732-.777-.732-1.263v-5.868c0-.485.31-1.02.732-1.263l6.002-3.463z" fill="#000" fill-rule="evenodd"/></svg>