<svg width="32" height="50" xmlns="http://www.w3.org/2000/svg"><g fill="#000" fill-rule="evenodd"><path d="M8.9 17.603H1.997c-1.101 0-1.997.9-1.997 2.009v7.983c0 1.106.894 2.008 1.997 2.008H8.9l12.177 8.43c.448.31.823.123.823-.428V10.602c0-.543-.382-.764-.853-.474L8.9 17.603zM27.15 16.326c-.3-.457-.136-1.008.375-1.233.508-.224 1.15-.03 1.43.453 0 0 2.854 4.304 2.854 9.304s-2.832 8.99-2.832 8.99a.999.999 0 0 1-1.373.324c-.464-.29-.57-.891-.268-1.344 0 0 2.473-2.97 2.473-7.97s-2.66-8.524-2.66-8.524z"/></g></svg>