<svg width="32" height="50" viewBox="0 0 32 50" xmlns="http://www.w3.org/2000/svg"><g fill="#000" fill-rule="evenodd"><path d="M8.9 17.603l12.147-7.475c.471-.29.853-.07.853.474v27.003c0 .551-.375.739-.823.428L8.9 29.603H1.997A2.005 2.005 0 0 1 0 27.595v-7.983c0-1.11.896-2.009 1.997-2.009H8.9zm-6.93 2.009H9.5L20 13v22L9.5 27.61H1.97v-7.998zM27.15 16.326c-.3-.457-.136-1.008.375-1.233.508-.224 1.15-.03 1.43.453 0 0 2.854 4.304 2.854 9.304s-2.832 8.99-2.832 8.99a.999.999 0 0 1-1.373.324c-.464-.29-.57-.891-.268-1.344 0 0 2.473-2.97 2.473-7.97s-2.66-8.524-2.66-8.524z"/></g></svg>