<svg width="50" height="50" viewBox="0 0 50 50" xmlns="http://www.w3.org/2000/svg"><path d="M25 50c13.807 0 25-11.193 25-25S38.807 0 25 0 0 11.193 0 25s11.193 25 25 25zm-6.399-2.81s-2.033-.378-5.291-2.309c-3.258-1.93-4.888-3.862-4.888-3.862s.66-.58 2.195-1.228c1.535-.648 3.03-1.026 3.03-1.026s.82 2.43 2.194 4.766 2.76 3.659 2.76 3.659zm12.754 0s2.033-.378 5.291-2.309c3.258-1.93 4.887-3.862 4.887-3.862s-.66-.58-2.194-1.228c-1.535-.648-3.03-1.026-3.03-1.026s-.82 2.43-2.194 4.766-2.76 3.659-2.76 3.659zm-7.368.81V37.428s-1.346 0-4.187.27-4.188.607-4.188.607 1.185 3.633 3.541 6.522C21.51 47.717 23.987 48 23.987 48zm2 0V37.428s1.347 0 4.188.27c2.84.27 4.187.607 4.187.607s-1.185 3.633-3.541 6.522C28.465 47.717 25.987 48 25.987 48zM14.993 36.343s2.42-.428 3.931-.594c1.478-.163 5.063-.365 5.063-.365V26H13.498s.081 2.835.485 5.63c.404 2.795 1.01 4.713 1.01 4.713zm19.98 0s-2.42-.428-3.932-.594c-1.477-.163-5.062-.365-5.062-.365V26h10.488s-.08 2.835-.484 5.63c-.404 2.795-1.01 4.713-1.01 4.713zm-21.919.472s-.673-2.525-1.037-5.185c-.363-2.66-.525-5.63-.525-5.63H2s.243 4.645 1.804 7.94c2.343 4.941 3.285 5.535 3.285 5.535s.916-.756 2.262-1.364c1.347-.607 3.703-1.296 3.703-1.296zm23.86 0s.674-2.525 1.037-5.185c.364-2.66.525-5.63.525-5.63h9.493s-.243 4.645-1.805 7.94c-2.342 4.941-3.285 5.535-3.285 5.535s-.915-.756-2.262-1.364c-1.346-.607-3.703-1.296-3.703-1.296zm-21.921-23.19s2.42.428 3.931.594c1.478.163 5.063.365 5.063.365v9.384H13.498s.081-2.835.485-5.63c.404-2.795 1.01-4.713 1.01-4.713zm19.98 0s-2.42.428-3.932.594c-1.477.163-5.062.365-5.062.365v9.384h10.488s-.08-2.835-.484-5.63c-.404-2.795-1.01-4.713-1.01-4.713zm-21.919-.472s-.673 2.525-1.037 5.185c-.363 2.66-.525 5.63-.525 5.63H2s.243-4.645 1.804-7.94c2.343-4.941 3.285-5.535 3.285-5.535s.916.756 2.262 1.364c1.347.607 3.703 1.296 3.703 1.296zm23.86 0s.674 2.525 1.037 5.185c.364 2.66.525 5.63.525 5.63h9.493s-.243-4.645-1.805-7.94c-2.342-4.941-3.285-5.535-3.285-5.535s-.915.756-2.262 1.364c-1.346.607-3.703 1.296-3.703 1.296zM18.601 2.81s-2.033.378-5.291 2.309c-3.258 1.93-4.888 3.862-4.888 3.862s.66.58 2.195 1.228a23.856 23.856 0 0 0 3.03 1.026s.82-2.43 2.194-4.766 2.76-3.659 2.76-3.659zm12.754 0s2.033.378 5.291 2.309c3.258 1.93 4.887 3.862 4.887 3.862s-.66.58-2.194 1.228a23.856 23.856 0 0 1-3.03 1.026s-.82-2.43-2.194-4.766-2.76-3.659-2.76-3.659zM23.987 2v10.572s-1.346 0-4.187-.27-4.188-.607-4.188-.607 1.185-3.633 3.541-6.522C21.51 2.283 23.987 2 23.987 2zm2 0v10.572s1.347 0 4.188-.27c2.84-.27 4.187-.607 4.187-.607s-1.185-3.633-3.541-6.522C28.465 2.283 25.987 2 25.987 2z" fill="#000" fill-rule="evenodd"/></svg>