<svg width="50" height="50" xmlns="http://www.w3.org/2000/svg"><g fill-rule="evenodd"><path d="M48 25C48 12.297 37.703 2 25 2S2 12.297 2 25s10.297 23 23 23 23-10.297 23-23zM0 25C0 11.193 11.193 0 25 0s25 11.193 25 25-11.193 25-25 25S0 38.807 0 25z"/><path d="M19.158 45.206s-1.857-.345-4.832-2.108c-2.975-1.763-4.462-3.526-4.462-3.526s.602-.53 2.004-1.122c1.401-.591 2.766-.937 2.766-.937s.75 2.22 2.004 4.352c1.254 2.133 2.52 3.341 2.52 3.341zm11.644 0s1.856-.345 4.831-2.108c2.975-1.763 4.463-3.526 4.463-3.526s-.603-.53-2.004-1.122c-1.401-.591-2.766-.937-2.766-.937s-.75 2.22-2.004 4.352c-1.254 2.133-2.52 3.341-2.52 3.341zm-6.727.74v-9.653s-1.23 0-3.823.247c-2.594.246-3.823.554-3.823.554s1.081 3.317 3.233 5.955c2.151 2.638 4.413 2.897 4.413 2.897zm1.826 0v-9.653s1.23 0 3.824.247c2.594.246 3.823.554 3.823.554s-1.082 3.317-3.233 5.955c-2.152 2.638-4.414 2.897-4.414 2.897zM15.863 35.336s2.21-.39 3.59-.543c1.349-.148 4.622-.332 4.622-.332v-8.568H14.5s.073 2.589.442 5.14c.369 2.552.922 4.303.922 4.303zm18.243 0s-2.21-.39-3.59-.543c-1.35-.148-4.622-.332-4.622-.332v-8.568h9.576s-.074 2.589-.442 5.14c-.37 2.552-.922 4.303-.922 4.303zm-20.013.431s-.615-2.305-.947-4.734c-.332-2.428-.48-5.14-.48-5.14H4s.222 4.241 1.647 7.249c2.14 4.512 3 5.054 3 5.054s.836-.69 2.065-1.245c1.23-.555 3.38-1.184 3.38-1.184zm21.785 0s.615-2.305.947-4.734c.332-2.428.48-5.14.48-5.14h8.666s-.221 4.241-1.647 7.249c-2.14 4.512-3 5.054-3 5.054s-.836-.69-2.065-1.245c-1.23-.555-3.38-1.184-3.38-1.184zM15.863 14.614s2.21.391 3.59.543c1.349.148 4.622.333 4.622.333v8.568H14.5s.073-2.59.442-5.141c.369-2.552.922-4.303.922-4.303zm18.243 0s-2.21.391-3.59.543c-1.35.148-4.622.333-4.622.333v8.568h9.576s-.074-2.59-.442-5.141c-.37-2.552-.922-4.303-.922-4.303zm-20.013-.431s-.615 2.305-.947 4.734c-.332 2.429-.48 5.14-.48 5.14H4s.222-4.24 1.647-7.248c2.14-4.512 3-5.055 3-5.055s.836.69 2.065 1.245c1.23.555 3.38 1.184 3.38 1.184zm21.785 0s.615 2.305.947 4.734c.332 2.429.48 5.14.48 5.14h8.666s-.221-4.24-1.647-7.248c-2.14-4.512-3-5.055-3-5.055s-.836.69-2.065 1.245c-1.23.555-3.38 1.184-3.38 1.184zM19.158 4.74s-1.857.345-4.832 2.108c-2.975 1.763-4.462 3.526-4.462 3.526s.602.53 2.004 1.121c1.401.592 2.766.937 2.766.937s.75-2.219 2.004-4.351c1.254-2.133 2.52-3.341 2.52-3.341zm11.644 0s1.856.345 4.831 2.108c2.975 1.763 4.463 3.526 4.463 3.526s-.603.53-2.004 1.121c-1.401.592-2.766.937-2.766.937s-.75-2.219-2.004-4.351c-1.254-2.133-2.52-3.341-2.52-3.341zM24.075 4v9.653s-1.23 0-3.823-.247c-2.594-.246-3.823-.554-3.823-.554s1.081-3.317 3.233-5.955C21.813 4.26 24.075 4 24.075 4zm1.826 0v9.653s1.23 0 3.824-.247c2.594-.246 3.823-.554 3.823-.554s-1.082-3.317-3.233-5.955C28.163 4.26 25.9 4 25.9 4z"/></g></svg>