<?xml version="1.0" encoding="utf-8"?>
<!-- Generator: Adobe Illustrator 16.0.0, SVG Export Plug-In . SVG Version: 6.00 Build 0)  -->
<!DOCTYPE svg PUBLIC "-//W3C//DTD SVG 1.1//EN" "http://www.w3.org/Graphics/SVG/1.1/DTD/svg11.dtd">
<svg version="1.1" id="Ebene_1" xmlns="http://www.w3.org/2000/svg" xmlns:xlink="http://www.w3.org/1999/xlink" x="0px" y="0px"
	 width="64px" height="64px" viewBox="0 0 64 64" enable-background="new 0 0 64 64" xml:space="preserve">
<g>
	<path d="M28.373,13.546c-0.803-0.758-2.068-0.722-2.827,0.081c-0.758,0.803-0.722,2.069,0.081,2.827L42.087,32l-16.46,15.546
		c-0.803,0.758-0.839,2.024-0.081,2.827C25.939,50.79,26.469,51,27,51c0.493,0,0.986-0.181,1.373-0.546l18-17
		C46.773,33.076,47,32.55,47,32s-0.227-1.076-0.627-1.454L28.373,13.546z"/>
	<path d="M32,0C23.453,0,15.417,3.329,9.374,9.373C3.329,15.417,0,23.453,0,32s3.33,16.583,9.374,22.626
		C15.417,60.671,23.453,64,32,64s16.583-3.329,22.626-9.373C60.671,48.583,64,40.547,64,32s-3.33-16.583-9.374-22.626
		C48.583,3.329,40.547,0,32,0z M51.797,51.798C46.509,57.087,39.479,60,32,60s-14.509-2.913-19.798-8.202C6.913,46.51,4,39.479,4,32
		s2.913-14.51,8.203-19.798C17.491,6.913,24.521,4,32,4s14.509,2.913,19.798,8.202C57.087,17.49,60,24.521,60,32
		S57.087,46.51,51.797,51.798z"/>
</g>
</svg>
