<?xml version="1.0" encoding="utf-8"?>
<!-- Generator: Adobe Illustrator 16.0.0, SVG Export Plug-In . SVG Version: 6.00 Build 0)  -->
<!DOCTYPE svg PUBLIC "-//W3C//DTD SVG 1.1//EN" "http://www.w3.org/Graphics/SVG/1.1/DTD/svg11.dtd">
<svg version="1.1" id="Ebene_1" xmlns="http://www.w3.org/2000/svg" xmlns:xlink="http://www.w3.org/1999/xlink" x="0px" y="0px"
	 width="64px" height="64px" viewBox="0 0 64 64" enable-background="new 0 0 64 64" xml:space="preserve">
<g>
	<path d="M0,45c0,1.104,0.896,2,2,2h58c1.104,0,2-0.896,2-2v-4h2V25h-2v-4c0-1.104-0.896-2-2-2H2c-1.104,0-2,0.896-2,2V45z M4,23h54
		v20H4V23z"/>
	<path d="M10,25c-1.104,0-2,0.896-2,2v12c0,1.104,0.896,2,2,2s2-0.896,2-2V27C12,25.896,11.104,25,10,25z"/>
	<path d="M16,25c-1.104,0-2,0.896-2,2v12c0,1.104,0.896,2,2,2s2-0.896,2-2V27C18,25.896,17.104,25,16,25z"/>
</g>
</svg>
