<?xml version="1.0" encoding="utf-8"?>
<!-- Generator: Adobe Illustrator 16.0.0, SVG Export Plug-In . SVG Version: 6.00 Build 0)  -->
<!DOCTYPE svg PUBLIC "-//W3C//DTD SVG 1.1//EN" "http://www.w3.org/Graphics/SVG/1.1/DTD/svg11.dtd">
<svg version="1.1" id="Ebene_1" xmlns="http://www.w3.org/2000/svg" xmlns:xlink="http://www.w3.org/1999/xlink" x="0px" y="0px"
	 width="64px" height="64px" viewBox="0 0 64 64" enable-background="new 0 0 64 64" xml:space="preserve">
<g>
	<path d="M0,52c0,1.104,0.896,2,2,2h60c1.104,0,2-0.896,2-2V16c0-1.104-0.896-2-2-2H20v-4c0-1.104-0.896-2-2-2H8
		c-1.104,0-2,0.896-2,2v4H2c-1.104,0-2,0.896-2,2V52z M10,12h6v2h-6V12z M4,18h56v32H4V18z"/>
	<path d="M40,22c-6.617,0-12,5.383-12,12s5.383,12,12,12s12-5.383,12-12S46.617,22,40,22z M40,42c-4.411,0-8-3.589-8-8s3.589-8,8-8
		s8,3.589,8,8S44.411,42,40,42z"/>
	<path d="M16,23h-6c-1.104,0-2,0.896-2,2s0.896,2,2,2h6c1.104,0,2-0.896,2-2S17.104,23,16,23z"/>
</g>
</svg>
