<?xml version="1.0" encoding="utf-8"?>
<!-- Generator: Adobe Illustrator 16.0.0, SVG Export Plug-In . SVG Version: 6.00 Build 0)  -->
<!DOCTYPE svg PUBLIC "-//W3C//DTD SVG 1.1//EN" "http://www.w3.org/Graphics/SVG/1.1/DTD/svg11.dtd">
<svg version="1.1" id="Ebene_1" xmlns="http://www.w3.org/2000/svg" xmlns:xlink="http://www.w3.org/1999/xlink" x="0px" y="0px"
	 width="64px" height="64px" viewBox="0 0 64 64" enable-background="new 0 0 64 64" xml:space="preserve">
<g>
	<path d="M32,0c-8.548,0-16.584,3.33-22.627,9.374C3.328,15.417-0.001,23.453-0.001,32s3.329,16.583,9.374,22.626
		C15.416,60.671,23.452,64,32,64c8.547,0,16.583-3.33,22.627-9.374c6.045-6.044,9.374-14.079,9.374-22.626
		s-3.329-16.583-9.374-22.626C48.583,3.329,40.547,0,32,0z M51.799,51.798C46.51,57.087,39.479,60,32,60
		c-7.479,0-14.511-2.913-19.799-8.203C6.912,46.509,3.999,39.479,3.999,32s2.913-14.509,8.202-19.798C17.489,6.913,24.521,4,32,4
		c7.479,0,14.51,2.913,19.799,8.203c5.289,5.288,8.202,12.319,8.202,19.797S57.088,46.509,51.799,51.798z"/>
	<path d="M41.857,31.257l-8-20C33.554,10.498,32.817,10,32,10s-1.554,0.498-1.857,1.257l-8,20c-0.192,0.482-0.182,1.011,0.006,1.483
		l-0.006,0.002l8,20C30.446,53.502,31.183,54,32,54s1.554-0.498,1.857-1.257l8-20l-0.006-0.002
		C42.039,32.269,42.05,31.739,41.857,31.257z M32,17.385L37.046,30H26.954L32,17.385z M32,46.615L26.954,34h10.092L32,46.615z"/>
</g>
</svg>
