<?xml version="1.0" encoding="utf-8"?>
<!-- Generator: Adobe Illustrator 16.0.0, SVG Export Plug-In . SVG Version: 6.00 Build 0)  -->
<!DOCTYPE svg PUBLIC "-//W3C//DTD SVG 1.1//EN" "http://www.w3.org/Graphics/SVG/1.1/DTD/svg11.dtd">
<svg version="1.1" id="Ebene_1" xmlns="http://www.w3.org/2000/svg" xmlns:xlink="http://www.w3.org/1999/xlink" x="0px" y="0px"
	 width="64px" height="64px" viewBox="0 0 64 64" enable-background="new 0 0 64 64" xml:space="preserve">
<g>
	<path d="M62,3H2C0.896,3,0,3.896,0,5v42c0,1.104,0.896,2,2,2h14v10c0,0.781,0.455,1.491,1.164,1.817C17.432,60.94,17.717,61,18,61
		c0.469,0,0.932-0.165,1.302-0.481L32.74,49H62c1.104,0,2-0.896,2-2V5C64,3.896,63.104,3,62,3z M60,45H32
		c-0.478,0-0.939,0.171-1.302,0.481L20,54.651V47c0-1.104-0.896-2-2-2H4V7h56V45z"/>
	<path d="M23.586,34.414C23.977,34.805,24.488,35,25,35s1.023-0.195,1.414-0.586L32,28.828l5.586,5.586
		C37.977,34.805,38.488,35,39,35s1.023-0.195,1.414-0.586c0.781-0.781,0.781-2.047,0-2.828L34.828,26l5.586-5.586
		c0.781-0.781,0.781-2.047,0-2.828c-0.781-0.781-2.047-0.781-2.828,0L32,23.172l-5.586-5.586c-0.781-0.781-2.047-0.781-2.828,0
		c-0.781,0.781-0.781,2.047,0,2.828L29.172,26l-5.586,5.586C22.805,32.367,22.805,33.633,23.586,34.414z"/>
</g>
</svg>
