<?xml version="1.0" encoding="utf-8"?>
<!-- Generator: Adobe Illustrator 16.0.0, SVG Export Plug-In . SVG Version: 6.00 Build 0)  -->
<!DOCTYPE svg PUBLIC "-//W3C//DTD SVG 1.1//EN" "http://www.w3.org/Graphics/SVG/1.1/DTD/svg11.dtd">
<svg version="1.1" id="Ebene_1" xmlns="http://www.w3.org/2000/svg" xmlns:xlink="http://www.w3.org/1999/xlink" x="0px" y="0px"
	 width="64px" height="64px" viewBox="0 0 64 64" enable-background="new 0 0 64 64" xml:space="preserve">
<g>
	<path d="M47.562,6.75C47.182,6.276,46.607,6,46,6H18c-0.607,0-1.182,0.276-1.562,0.75l-16,20c-0.637,0.796-0.573,1.943,0.147,2.664
		l30,30C30.976,59.805,31.488,60,32,60s1.024-0.195,1.414-0.586l30-30c0.721-0.721,0.784-1.868,0.147-2.664L47.562,6.75z M57.838,26
		h-10.35l-4.8-16h2.351L57.838,26z M16.784,30l10.722,20.677L6.829,30H16.784z M21.29,30H30v16.798L21.29,30z M34,30h8.71L34,46.798
		V30z M47.216,30h9.956L36.494,50.677L47.216,30z M38.512,10l4.8,16H34V10H38.512z M30,26h-9.312l4.8-16H30V26z M18.961,10h2.351
		l-4.8,16H6.162L18.961,10z"/>
</g>
</svg>
