<?xml version="1.0" encoding="utf-8"?>
<!-- Generator: Adobe Illustrator 16.0.0, SVG Export Plug-In . SVG Version: 6.00 Build 0)  -->
<!DOCTYPE svg PUBLIC "-//W3C//DTD SVG 1.1//EN" "http://www.w3.org/Graphics/SVG/1.1/DTD/svg11.dtd">
<svg version="1.1" id="Ebene_1" xmlns="http://www.w3.org/2000/svg" xmlns:xlink="http://www.w3.org/1999/xlink" x="0px" y="0px"
	 width="64px" height="64px" viewBox="0 0 64 64" enable-background="new 0 0 64 64" xml:space="preserve">
<g>
	<path d="M32.001,24C30.896,24,30,24.896,30,26v27.171l-4.585-4.585c-0.781-0.781-2.046-0.781-2.827,0
		c-0.781,0.781-0.781,2.047,0,2.828l8,8C30.979,59.805,31.49,60,32.002,60s1.023-0.195,1.414-0.586l8-8
		c0.781-0.781,0.781-2.047,0-2.828c-0.781-0.781-2.047-0.781-2.828,0L34,53.173V26C33.998,25,33.105,24,32.001,24z"/>
	<path d="M62,4H2C0.896,4,0,4.896,0,6v36c0,1.104,0.896,2,2,2h22c1.104,0,2-0.896,2-2s-0.896-2-2-2H4V8h56v32H40
		c-1.104,0-2,0.896-2,2s0.896,2,2,2h22c1.104,0,2-0.896,2-2V6C64,4.896,63.104,4,62,4z"/>
</g>
</svg>
