<?xml version="1.0" encoding="utf-8"?>
<!-- Generator: Adobe Illustrator 16.0.0, SVG Export Plug-In . SVG Version: 6.00 Build 0)  -->
<!DOCTYPE svg PUBLIC "-//W3C//DTD SVG 1.1//EN" "http://www.w3.org/Graphics/SVG/1.1/DTD/svg11.dtd">
<svg version="1.1" id="Ebene_1" xmlns="http://www.w3.org/2000/svg" xmlns:xlink="http://www.w3.org/1999/xlink" x="0px" y="0px"
	 width="64px" height="64px" viewBox="0 0 64 64" enable-background="new 0 0 64 64" xml:space="preserve">
<g>
	<path d="M4.586,55.414l8,8C12.961,63.789,13.47,64,14,64h6c0.53,0,1.039-0.211,1.414-0.586L42,42.829L45.172,46l-6.586,6.586
		c-0.781,0.781-0.781,2.047,0,2.828c0.781,0.781,2.047,0.781,2.828,0l8-8c0.781-0.781,0.781-2.047,0-2.828l-6-6
		c-0.781-0.781-2.047-0.781-2.828,0L19.172,60h-4.344l-6-6L10,52.828l2.586,2.586C12.977,55.805,13.488,56,14,56
		s1.023-0.195,1.414-0.586l25.893-25.893C42.491,29.822,43.724,30,45,30c8.271,0,15-6.729,15-15S53.271,0,45,0S30,6.729,30,15
		c0,1.276,0.178,2.509,0.479,3.693L4.586,44.586c-0.781,0.781-0.781,2.047,0,2.828L7.172,50l-2.586,2.586
		C3.805,53.367,3.805,54.633,4.586,55.414z M45,4c6.065,0,11,4.935,11,11s-4.935,11-11,11s-11-4.935-11-11S38.935,4,45,4z
		 M37.314,27.857L32,33.172L26.828,28l5.314-5.314C33.415,24.807,35.193,26.584,37.314,27.857z M24,30.828L29.172,36L14,51.171
		L8.828,46L24,30.828z"/>
</g>
</svg>
