<?xml version="1.0" encoding="utf-8"?>
<!-- Generator: Adobe Illustrator 16.0.0, SVG Export Plug-In . SVG Version: 6.00 Build 0)  -->
<!DOCTYPE svg PUBLIC "-//W3C//DTD SVG 1.1//EN" "http://www.w3.org/Graphics/SVG/1.1/DTD/svg11.dtd">
<svg version="1.1" id="Ebene_1" xmlns="http://www.w3.org/2000/svg" xmlns:xlink="http://www.w3.org/1999/xlink" x="0px" y="0px"
	 width="64px" height="64px" viewBox="0 0 64 64" enable-background="new 0 0 64 64" xml:space="preserve">
<g>
	<path d="M54,46H12V28.828l4.586,4.586C16.977,33.805,17.488,34,18,34s1.023-0.195,1.414-0.586c0.781-0.781,0.781-2.047,0-2.828
		l-7.999-7.999c-0.093-0.093-0.196-0.177-0.307-0.251c-0.047-0.031-0.099-0.053-0.148-0.08c-0.064-0.035-0.127-0.074-0.195-0.104
		c-0.065-0.026-0.133-0.042-0.2-0.062c-0.058-0.017-0.113-0.039-0.173-0.052c-0.259-0.051-0.524-0.051-0.783,0
		c-0.06,0.013-0.115,0.035-0.173,0.052c-0.067,0.02-0.135,0.035-0.2,0.062c-0.068,0.029-0.131,0.068-0.195,0.104
		c-0.05,0.027-0.102,0.049-0.148,0.08c-0.11,0.074-0.214,0.158-0.307,0.251l-7.999,7.999c-0.781,0.781-0.781,2.047,0,2.828
		s2.047,0.781,2.828,0L8,28.828V48c0,1.104,0.896,2,2,2h44c1.104,0,2-0.896,2-2S55.104,46,54,46z"/>
	<path d="M60.586,30.586L56,35.172V16c0-1.104-0.896-2-2-2H10c-1.104,0-2,0.896-2,2s0.896,2,2,2h42v17.172l-4.586-4.586
		c-0.781-0.781-2.047-0.781-2.828,0s-0.781,2.047,0,2.828l7.999,7.999c0.093,0.093,0.196,0.177,0.307,0.251
		c0.047,0.031,0.099,0.053,0.148,0.08c0.064,0.035,0.127,0.074,0.195,0.104c0.065,0.026,0.133,0.042,0.2,0.062
		c0.058,0.017,0.113,0.039,0.173,0.052C53.737,41.986,53.869,42,54,42s0.263-0.014,0.392-0.039c0.06-0.013,0.115-0.035,0.173-0.052
		c0.067-0.02,0.135-0.035,0.2-0.062c0.068-0.029,0.131-0.068,0.195-0.104c0.05-0.027,0.102-0.049,0.148-0.08
		c0.11-0.074,0.214-0.158,0.307-0.251l7.999-7.999c0.781-0.781,0.781-2.047,0-2.828S61.367,29.805,60.586,30.586z"/>
</g>
</svg>
