<?xml version="1.0" encoding="utf-8"?>
<!-- Generator: Adobe Illustrator 16.0.0, SVG Export Plug-In . SVG Version: 6.00 Build 0)  -->
<!DOCTYPE svg PUBLIC "-//W3C//DTD SVG 1.1//EN" "http://www.w3.org/Graphics/SVG/1.1/DTD/svg11.dtd">
<svg version="1.1" id="Ebene_1" xmlns="http://www.w3.org/2000/svg" xmlns:xlink="http://www.w3.org/1999/xlink" x="0px" y="0px"
	 width="64px" height="64px" viewBox="0 0 64 64" enable-background="new 0 0 64 64" xml:space="preserve">
<g>
	<path d="M3.161,63.357c0.471,0,0.968-0.115,1.479-0.342l14.346-6.376c1.234-0.549,2.887-1.684,3.843-2.64L62,14.829
		c0.754-0.754,1.17-1.759,1.17-2.829S62.754,9.925,62,9.172l-7.172-7.173C54.074,1.246,53.07,0.831,52,0.831S49.926,1.246,49.172,2
		L9,42.171c-0.968,0.967-2.09,2.651-2.612,3.917L0.912,59.389c-0.594,1.444-0.174,2.42,0.129,2.873
		C1.507,62.958,2.28,63.357,3.161,63.357z M20,51.171C20,51.171,20,51.172,20,51.171L12.828,44L46,10.828L53.172,18L20,51.171z
		 M52,4.828L59.172,12L56,15.172L48.828,8L52,4.828z M10.088,47.611c0.059-0.142,0.138-0.303,0.226-0.469l6.213,6.213L5.751,58.143
		L10.088,47.611z"/>
</g>
</svg>
