<?xml version="1.0" encoding="utf-8"?>
<!-- Generator: Adobe Illustrator 16.0.0, SVG Export Plug-In . SVG Version: 6.00 Build 0)  -->
<!DOCTYPE svg PUBLIC "-//W3C//DTD SVG 1.1//EN" "http://www.w3.org/Graphics/SVG/1.1/DTD/svg11.dtd">
<svg version="1.1" id="Ebene_1" xmlns="http://www.w3.org/2000/svg" xmlns:xlink="http://www.w3.org/1999/xlink" x="0px" y="0px"
	 width="64px" height="64px" viewBox="0 0 64 64" enable-background="new 0 0 64 64" xml:space="preserve">
<g>
	<path d="M24.586,63.414C24.976,63.805,25.488,64,26,64s1.024-0.195,1.414-0.586l36-36C63.789,27.039,64,26.53,64,26V2
		c0-1.104-0.896-2-2-2H38c-0.53,0-1.039,0.211-1.414,0.586l-36,36c-0.781,0.781-0.781,2.047,0,2.828L24.586,63.414z M38.829,4H60
		v21.172l-34,34L4.829,38L38.829,4z"/>
	<path d="M47,25c4.411,0,8-3.589,8-8s-3.589-8-8-8s-8,3.589-8,8S42.589,25,47,25z M47,13c2.206,0,4,1.794,4,4s-1.794,4-4,4
		s-4-1.794-4-4S44.794,13,47,13z"/>
</g>
</svg>
