<?xml version="1.0" encoding="utf-8"?>
<!-- Generator: Adobe Illustrator 16.0.0, SVG Export Plug-In . SVG Version: 6.00 Build 0)  -->
<!DOCTYPE svg PUBLIC "-//W3C//DTD SVG 1.1//EN" "http://www.w3.org/Graphics/SVG/1.1/DTD/svg11.dtd">
<svg version="1.1" id="Ebene_1" xmlns="http://www.w3.org/2000/svg" xmlns:xlink="http://www.w3.org/1999/xlink" x="0px" y="0px"
	 width="64px" height="64px" viewBox="0 0 64 64" enable-background="new 0 0 64 64" xml:space="preserve">
<g>
	<path d="M32,42c8.673,0,16-8.701,16-19S40.673,4,32,4s-16,8.701-16,19S23.327,42,32,42z M32,8c6.505,0,12,6.869,12,15
		s-5.495,15-12,15s-12-6.869-12-15S25.495,8,32,8z"/>
	<path d="M4.103,45.367l-4,12c-0.203,0.61-0.101,1.28,0.275,1.802C0.753,59.691,1.357,60,2,60h60c0.643,0,1.247-0.309,1.622-0.831
		c0.376-0.521,0.479-1.191,0.275-1.802l-4-12c-0.209-0.626-0.713-1.108-1.348-1.29l-14-4c-0.482-0.139-0.996-0.09-1.444,0.134
		L32,45.764l-11.105-5.553c-0.448-0.224-0.962-0.272-1.444-0.134l-14,4C4.815,44.259,4.312,44.741,4.103,45.367z M19.802,44.137
		l11.304,5.652c0.562,0.281,1.227,0.281,1.789,0l11.304-5.652l12.238,3.496L59.226,56H4.774l2.789-8.367L19.802,44.137z"/>
	<path d="M62,6h-4V2c0-1.104-0.896-2-2-2s-2,0.896-2,2v4h-4c-1.104,0-2,0.896-2,2s0.896,2,2,2h4v4c0,1.104,0.896,2,2,2s2-0.896,2-2
		v-4h4c1.104,0,2-0.896,2-2S63.104,6,62,6z"/>
</g>
</svg>
