<?xml version="1.0" encoding="utf-8"?>
<!-- Generator: Adobe Illustrator 16.0.0, SVG Export Plug-In . SVG Version: 6.00 Build 0)  -->
<!DOCTYPE svg PUBLIC "-//W3C//DTD SVG 1.1//EN" "http://www.w3.org/Graphics/SVG/1.1/DTD/svg11.dtd">
<svg version="1.1" id="Ebene_1" xmlns="http://www.w3.org/2000/svg" xmlns:xlink="http://www.w3.org/1999/xlink" x="0px" y="0px"
	 width="64px" height="64px" viewBox="0 0 64 64" enable-background="new 0 0 64 64" xml:space="preserve">
<g>
	<path d="M30,2c0,1.104,0.896,2,2,2c7.479,0,14.51,2.913,19.798,8.202C57.087,17.49,60,24.521,60,32c0,7.381-2.842,14.323-8,19.587
		V46c0-1.104-0.896-2-2-2s-2,0.896-2,2v12h12c1.104,0,2-0.896,2-2s-0.896-2-2-2h-4.776C60.885,48.032,64,40.257,64,32
		c0-8.547-3.329-16.583-9.374-22.627C48.583,3.329,40.547,0,32,0C30.896,0,30,0.896,30,2z"/>
	<path d="M9.374,54.627C15.417,60.671,23.453,64,32,64c1.104,0,2-0.896,2-2s-0.896-2-2-2c-7.479,0-14.51-2.913-19.798-8.202
		C6.913,46.51,4,39.479,4,32c0-7.381,2.842-14.323,8-19.587V18c0,1.104,0.896,2,2,2s2-0.896,2-2V6H4C2.896,6,2,6.896,2,8
		s0.896,2,2,2h4.776C3.115,15.968,0,23.743,0,32C0,40.547,3.329,48.583,9.374,54.627z"/>
</g>
</svg>
