<?xml version="1.0" encoding="utf-8"?>
<!-- Generator: Adobe Illustrator 16.0.0, SVG Export Plug-In . SVG Version: 6.00 Build 0)  -->
<!DOCTYPE svg PUBLIC "-//W3C//DTD SVG 1.1//EN" "http://www.w3.org/Graphics/SVG/1.1/DTD/svg11.dtd">
<svg version="1.1" id="Ebene_1" xmlns="http://www.w3.org/2000/svg" xmlns:xlink="http://www.w3.org/1999/xlink" x="0px" y="0px"
	 width="64px" height="64px" viewBox="0 0 64 64" enable-background="new 0 0 64 64" xml:space="preserve">
<g>
	<path d="M54,64c1.104,0,2-0.896,2-2V8c0-1.104-0.896-2-2-2h-9.764l-2.447-4.895C41.45,0.428,40.758,0,40,0H24
		c-0.758,0-1.45,0.428-1.789,1.105L19.764,6H10C8.896,6,8,6.896,8,8v54c0,1.104,0.896,2,2,2H54z M25.236,4h13.527l4,8H21.236
		L25.236,4z M12,10h5.764l-1.553,3.105c-0.31,0.62-0.276,1.356,0.088,1.946C16.663,15.641,17.307,16,18,16h28
		c0.008,0,0.016,0,0.02,0c1.105,0,2-0.896,2-2c0-0.418-0.128-0.806-0.347-1.126L46.236,10H52v50H12V10z"/>
	<path d="M38.586,28.586L30,37.171l-4.586-4.585c-0.781-0.781-2.047-0.781-2.828,0c-0.781,0.781-0.781,2.047,0,2.828l6,6
		C28.977,41.805,29.488,42,30,42s1.023-0.195,1.414-0.586l10-10c0.781-0.781,0.781-2.047,0-2.828
		C40.633,27.805,39.367,27.805,38.586,28.586z"/>
</g>
</svg>
