<?xml version="1.0" encoding="utf-8"?>
<!-- Generator: Adobe Illustrator 16.0.0, SVG Export Plug-In . SVG Version: 6.00 Build 0)  -->
<!DOCTYPE svg PUBLIC "-//W3C//DTD SVG 1.1//EN" "http://www.w3.org/Graphics/SVG/1.1/DTD/svg11.dtd">
<svg version="1.1" id="Ebene_1" xmlns="http://www.w3.org/2000/svg" xmlns:xlink="http://www.w3.org/1999/xlink" x="0px" y="0px"
	 width="64px" height="64px" viewBox="0 0 64 64" enable-background="new 0 0 64 64" xml:space="preserve">
<g>
	<path d="M32.001,60C33.105,60,34,59.104,34,58V30.827l4.588,4.587C38.978,35.805,39.49,36,40.002,36s1.024-0.195,1.414-0.586
		c0.781-0.781,0.781-2.047,0-2.828l-8-8c-0.78-0.781-2.048-0.781-2.828,0l-8,8c-0.781,0.781-0.781,2.047,0,2.828
		c0.78,0.781,2.047,0.781,2.827,0L30,30.829V58C30,59.104,30.896,60,32.001,60z"/>
	<path d="M2,44h22c1.104,0,2-0.896,2-2s-0.896-2-2-2H4V8h56v32H40c-1.104,0-2,0.896-2,2s0.896,2,2,2h22c1.104,0,2-0.896,2-2V6
		c0-1.104-0.896-2-2-2H2C0.896,4,0,4.896,0,6v36C0,43.104,0.896,44,2,44z"/>
</g>
</svg>
