<?xml version="1.0" encoding="utf-8"?>
<!-- Generator: Adobe Illustrator 16.0.0, SVG Export Plug-In . SVG Version: 6.00 Build 0)  -->
<!DOCTYPE svg PUBLIC "-//W3C//DTD SVG 1.1//EN" "http://www.w3.org/Graphics/SVG/1.1/DTD/svg11.dtd">
<svg version="1.1" id="Ebene_1" xmlns="http://www.w3.org/2000/svg" xmlns:xlink="http://www.w3.org/1999/xlink" x="0px" y="0px"
	 width="64px" height="64px" viewBox="0 0 64 64" enable-background="new 0 0 64 64" xml:space="preserve">
<g>
	<path d="M49.854,34.186c-0.004-0.029-0.011-0.056-0.014-0.085C51.99,32.365,54,30.006,54,26c0-6.925-5.607-13-12-13
		c-3.582,0-6.875,1.562-9.162,4.281C31.604,17.102,30.326,17,29,17c-8.3,0-14.011,4.279-17.422,13.07C6.922,30.511,0,33.15,0,41
		c0,4.978,3.711,10,12,10h36c5.532,0,8-2.467,8-8C56,38.264,53.644,34.979,49.854,34.186z M42,17c4.579,0,8,4.751,8,9
		c0,1.434-0.361,2.531-1.252,3.61c-1.916-5.266-5.914-9.197-11.314-11.173C38.755,17.513,40.33,17,42,17z M48,47H12
		c-5.898,0-8-3.1-8-6c0-2.851,1.363-4.81,4.168-5.987C10.523,34.024,12.98,34,13,34h1.424l0.466-1.345
		C17.684,24.595,22.035,21,29,21c10.055,0,16.569,5.783,17.002,15.093L46.091,38H48c3.306,0,4,2.719,4,5C52,46.327,51.327,47,48,47z
		"/>
	<path d="M62,23h-4c-1.104,0-2,0.896-2,2s0.896,2,2,2h4c1.104,0,2-0.896,2-2S63.104,23,62,23z"/>
	<path d="M44,9V5c0-1.104-0.896-2-2-2s-2,0.896-2,2v4c0,1.104,0.896,2,2,2S44,10.104,44,9z"/>
	<path d="M54.414,13.414l3-3c0.781-0.781,0.781-2.047,0-2.828c-0.781-0.781-2.047-0.781-2.828,0l-3,3
		c-0.781,0.781-0.781,2.047,0,2.828C51.977,13.805,52.488,14,53,14S54.023,13.805,54.414,13.414z"/>
	<path d="M31,14c0.512,0,1.023-0.195,1.414-0.586c0.781-0.781,0.781-2.047,0-2.828l-3-3c-0.781-0.781-2.047-0.781-2.828,0
		c-0.781,0.781-0.781,2.047,0,2.828l3,3C29.977,13.805,30.488,14,31,14z"/>
</g>
</svg>
