<svg version="1.0" xmlns="http://www.w3.org/2000/svg" width="64" height="64" viewBox="0 0 64 64"><g fill="none" stroke="#000" stroke-width="2" stroke-miterlimit="10"><path d="M52 62.999v-62H26l-14 14V63l4-2 4 2 4-2 4 2 4-2 4 2 4-2 4 2 4-2z"/><path d="M12 14.999h14v-14"/></g><path fill="none" stroke="#000" stroke-width="2" stroke-miterlimit="10" d="M26 48V22M26 23h5s6 0 6 6c0 5-6 5-6 5h-5"/><path fill="none" stroke="#000" stroke-width="2" stroke-miterlimit="10" d="M27 34h5s7-.226 7 7c0 6-7 6-7 6h-6M32 20v30"/></svg>