<?xml version="1.0" standalone="no"?>
<!DOCTYPE svg PUBLIC "-//W3C//DTD SVG 1.1//EN" "http://www.w3.org/Graphics/SVG/1.1/DTD/svg11.dtd" >
<svg xmlns="http://www.w3.org/2000/svg">
<defs>
  <font id="remixicon-line" horiz-adv-x="128">
    <font-face font-family="remixicon-line"
      units-per-em="128" ascent="128"
      descent="0" />
    <missing-glyph horiz-adv-x="0" />
    <glyph glyph-name="24-hours"
      unicode="&#xEA01;"
      horiz-adv-x="128" d="M64.0000028628655 58.6666666666667A16 16 0 0 0 75.0933361961989 31.136L64.9066695295322 21.3333333333333H80.0000028628655V10.6666666666667H48.0000028628655V19.8613333333333L67.6960028628655 38.8213333333333A5.3333333333333 5.3333333333333 0 1 1 58.6666695295322 42.6666666666667H48.0000028628655A16 16 0 0 0 64.0000028628655 58.6666666666667zM96.0000028628655 58.6666666666667V37.3333333333333H106.6666695295322V58.6666666666667H117.3333361961989V10.6666666666667H106.6666695295322V26.6666666666667H85.3333361961989V58.6666666666667H96.0000028628655zM21.3333361961989 64A42.5866666666667 42.5866666666667 0 0 1 37.3333361961989 30.688V17.8026666666667A53.3066666666667 53.3066666666667 0 0 0 10.6666695295322 64H21.3333361961989zM64.0000028628655 117.3333333333333C91.6533361961989 117.3333333333333 114.3946695295322 96.2826666666667 117.0666695295322 69.3333333333333H106.3360028628655A42.672 42.672 0 0 1 28.7200028628655 88H42.6666695295322V77.3333333333333H10.6666695295322V109.3333333333333H21.3333361961989V96A53.2266666666667 53.2266666666667 0 0 0 64.0000028628655 117.3333333333333z" />
    <glyph glyph-name="4k"
      unicode="&#xEA02;"
      horiz-adv-x="128" d="M21.3333333333333 101.3333333333333V26.6666666666667H106.6666666666667V101.3333333333333H21.3333333333333zM16 112H112A5.3333333333333 5.3333333333333 0 0 0 117.3333333333334 106.6666666666667V21.3333333333333A5.3333333333333 5.3333333333333 0 0 0 112 16H16A5.3333333333333 5.3333333333333 0 0 0 10.6666666666667 21.3333333333333V106.6666666666667A5.3333333333333 5.3333333333333 0 0 0 16 112zM61.3333333333333 56H56V48H48V56H32V80H40V64H48V80H56V64H61.3333333333333V56zM96 48H86.6666666666667L77.3333333333333 60V48H69.3333333333333V80H77.3333333333333V68L86.6666666666667 80H96L84 64L96 48z" />
    <glyph glyph-name="account-box"
      unicode="&#xEA03;"
      horiz-adv-x="128" d="M16 101.36C16 107.2373333333333 20.7626666666667 112 26.64 112H101.36C107.2373333333333 112 112 107.2373333333333 112 101.36V26.64A10.64 10.64 0 0 0 101.36 16H26.64A10.64 10.64 0 0 0 16 26.64V101.36zM26.6666666666667 101.3333333333333V26.6666666666667H101.3333333333333V101.3333333333333H26.6666666666667zM42.5173333333333 31.04A53.2426666666667 53.2426666666667 0 0 0 33.1786666666667 36.256A37.3013333333333 37.3013333333333 0 0 0 64.544 53.3333333333333C77.344 53.3333333333333 88.6346666666667 46.896 95.36 37.0826666666667A53.3066666666667 53.3066666666667 0 0 0 86.1653333333333 31.616A26.6293333333333 26.6293333333333 0 0 1 64.544 42.6666666666667C55.3973333333333 42.6666666666667 47.3173333333333 38.0586666666667 42.5173333333333 31.04zM64 58.6666666666667A18.6666666666667 18.6666666666667 0 1 0 64 96A18.6666666666667 18.6666666666667 0 0 0 64 58.6666666666667zM64 69.3333333333333A8 8 0 1 1 64 85.3333333333333A8 8 0 0 1 64 69.3333333333333z" />
    <glyph glyph-name="account-circle"
      unicode="&#xEA04;"
      horiz-adv-x="128" d="M64 10.6666666666667C34.544 10.6666666666667 10.6666666666667 34.544 10.6666666666667 64S34.544 117.3333333333333 64 117.3333333333333S117.3333333333333 93.456 117.3333333333333 64S93.456 10.6666666666667 64 10.6666666666667zM37.4026666666667 30.6346666666667A42.4853333333333 42.4853333333333 0 0 1 64 21.3333333333333A42.5066666666667 42.5066666666667 0 0 1 91.5573333333333 31.424A37.2213333333333 37.2213333333333 0 0 1 64.8533333333333 42.6666666666667A37.232 37.232 0 0 1 37.4026666666667 30.6346666666667zM29.952 38.2933333333333A47.8666666666667 47.8666666666667 0 0 0 64.8533333333333 53.3333333333333A47.8506666666667 47.8506666666667 0 0 0 98.784 39.2853333333333A42.6666666666667 42.6666666666667 0 1 1 29.952 38.288zM64 58.6666666666667A21.3333333333333 21.3333333333333 0 1 0 64 101.3333333333333A21.3333333333333 21.3333333333333 0 0 0 64 58.6666666666667zM64 69.3333333333333A10.6666666666667 10.6666666666667 0 1 1 64 90.6666666666667A10.6666666666667 10.6666666666667 0 0 1 64 69.3333333333333z" />
    <glyph glyph-name="account-pin-box"
      unicode="&#xEA05;"
      horiz-adv-x="128" d="M74.6666666666667 16L64 5.3333333333333L53.3333333333333 16H26.64A10.64 10.64 0 0 0 16 26.64V101.36C16 107.2373333333333 20.7626666666667 112 26.64 112H101.36C107.2373333333333 112 112 107.2373333333333 112 101.36V26.64A10.64 10.64 0 0 0 101.36 16H74.6666666666667zM101.3333333333333 26.6666666666667V101.3333333333333H26.6666666666667V26.6666666666667H57.7493333333333L64 20.416L70.2506666666667 26.6666666666667H101.3333333333333zM42.5173333333333 31.04A53.2426666666667 53.2426666666667 0 0 0 33.1786666666667 36.256A37.3013333333333 37.3013333333333 0 0 0 64.544 53.3333333333333C77.344 53.3333333333333 88.6346666666667 46.896 95.36 37.0826666666667A53.3066666666667 53.3066666666667 0 0 0 86.1653333333333 31.616A26.6293333333333 26.6293333333333 0 0 1 64.544 42.6666666666667C55.3973333333333 42.6666666666667 47.3173333333333 38.0586666666667 42.5173333333333 31.04zM64 58.6666666666667A18.6666666666667 18.6666666666667 0 1 0 64 96A18.6666666666667 18.6666666666667 0 0 0 64 58.6666666666667zM64 69.3333333333333A8 8 0 1 1 64 85.3333333333333A8 8 0 0 1 64 69.3333333333333z" />
    <glyph glyph-name="account-pin-circle"
      unicode="&#xEA06;"
      horiz-adv-x="128" d="M51.9733333333333 12.0266666666667C28.3093333333333 17.4826666666667 10.6666666666667 38.6826666666667 10.6666666666667 64C10.6666666666667 93.456 34.544 117.3333333333333 64 117.3333333333333S117.3333333333333 93.456 117.3333333333333 64C117.3333333333333 38.6826666666667 99.6906666666667 17.4826666666667 76.0266666666667 12.0266666666667L64 0L51.9733333333333 12.0266666666667zM37.3973333333333 30.6293333333333A42.416 42.416 0 0 1 54.368 22.4213333333333L57.3546666666667 21.7333333333333L64 15.0826666666667L70.6506666666667 21.7333333333333L73.6373333333333 22.4266666666667A42.432 42.432 0 0 1 91.5573333333333 31.4186666666667A37.2213333333333 37.2213333333333 0 0 1 64.8533333333333 42.6666666666667C53.9946666666667 42.6666666666667 44.2133333333333 38.0266666666667 37.3973333333333 30.6293333333333zM29.952 38.2933333333333A47.8666666666667 47.8666666666667 0 0 0 64.8533333333333 53.3333333333333A47.8506666666667 47.8506666666667 0 0 0 98.784 39.2853333333333A42.6666666666667 42.6666666666667 0 1 1 29.952 38.288zM64 58.6666666666667A21.3333333333333 21.3333333333333 0 1 0 64 101.3333333333333A21.3333333333333 21.3333333333333 0 0 0 64 58.6666666666667zM64 69.3333333333333A10.6666666666667 10.6666666666667 0 1 1 64 90.6666666666667A10.6666666666667 10.6666666666667 0 0 1 64 69.3333333333333z" />
    <glyph glyph-name="add"
      unicode="&#xEA07;"
      horiz-adv-x="128" d="M58.6666666666667 69.3333333333333V101.3333333333333H69.3333333333333V69.3333333333333H101.3333333333333V58.6666666666667H69.3333333333333V26.6666666666667H58.6666666666667V58.6666666666667H26.6666666666667V69.3333333333333z" />
    <glyph glyph-name="add-box"
      unicode="&#xEA08;"
      horiz-adv-x="128" d="M21.3333333333333 112H106.6666666666667A5.3333333333333 5.3333333333333 0 0 0 112 106.6666666666667V21.3333333333333A5.3333333333333 5.3333333333333 0 0 0 106.6666666666667 16H21.3333333333333A5.3333333333333 5.3333333333333 0 0 0 16 21.3333333333333V106.6666666666667A5.3333333333333 5.3333333333333 0 0 0 21.3333333333333 112zM26.6666666666667 101.3333333333333V26.6666666666667H101.3333333333333V101.3333333333333H26.6666666666667zM58.6666666666667 69.3333333333333V90.6666666666667H69.3333333333333V69.3333333333333H90.6666666666667V58.6666666666667H69.3333333333333V37.3333333333333H58.6666666666667V58.6666666666667H37.3333333333333V69.3333333333333H58.6666666666667z" />
    <glyph glyph-name="add-circle"
      unicode="&#xEA09;"
      horiz-adv-x="128" d="M58.6666666666667 69.3333333333333V90.6666666666667H69.3333333333333V69.3333333333333H90.6666666666667V58.6666666666667H69.3333333333333V37.3333333333333H58.6666666666667V58.6666666666667H37.3333333333333V69.3333333333333H58.6666666666667zM64 10.6666666666667C34.544 10.6666666666667 10.6666666666667 34.544 10.6666666666667 64S34.544 117.3333333333333 64 117.3333333333333S117.3333333333333 93.456 117.3333333333333 64S93.456 10.6666666666667 64 10.6666666666667zM64 21.3333333333333A42.6666666666667 42.6666666666667 0 1 1 64 106.6666666666667A42.6666666666667 42.6666666666667 0 0 1 64 21.3333333333333z" />
    <glyph glyph-name="admin"
      unicode="&#xEA0A;"
      horiz-adv-x="128" d="M58.6666666666667 53.3333333333333V42.6666666666667A32 32 0 0 1 26.6666666666667 10.6666666666667H16A42.6666666666667 42.6666666666667 0 0 0 58.6666666666667 53.3333333333333zM58.6666666666667 58.6666666666667C40.9866666666667 58.6666666666667 26.6666666666667 72.9866666666667 26.6666666666667 90.6666666666667S40.9866666666667 122.6666666666667 58.6666666666667 122.6666666666667S90.6666666666667 108.3466666666667 90.6666666666667 90.6666666666667S76.3466666666667 58.6666666666667 58.6666666666667 58.6666666666667zM58.6666666666667 69.3333333333333C70.4533333333333 69.3333333333333 80 78.88 80 90.6666666666667S70.4533333333333 112 58.6666666666667 112S37.3333333333333 102.4533333333333 37.3333333333333 90.6666666666667S46.88 69.3333333333333 58.6666666666667 69.3333333333333zM106.6666666666667 37.3333333333333H112V10.6666666666667H69.3333333333333V37.3333333333333H74.6666666666667V42.6666666666667A16 16 0 0 0 106.6666666666667 42.6666666666667V37.3333333333333zM96 37.3333333333333V42.6666666666667A5.3333333333333 5.3333333333333 0 0 1 85.3333333333333 42.6666666666667V37.3333333333333H96z" />
    <glyph glyph-name="advertisement"
      unicode="&#xEA0B;"
      horiz-adv-x="128" d="M112 112A5.3333333333333 5.3333333333333 0 0 0 117.3333333333334 106.6666666666667V21.3333333333333A5.3333333333333 5.3333333333333 0 0 0 112 16H16A5.3333333333333 5.3333333333333 0 0 0 10.6666666666667 21.3333333333333V106.6666666666667A5.3333333333333 5.3333333333333 0 0 0 16 112H112zM106.6666666666667 101.3333333333333H21.3333333333333V26.6666666666667H106.6666666666667V101.3333333333333zM50.128 85.3333333333333L67.1893333333333 42.6666666666667H55.696L53.5626666666667 48H36.016L33.8826666666667 42.6666666666667H22.3946666666667L39.4613333333333 85.3333333333333H50.128zM101.3333333333333 85.3333333333333V42.6666666666667H85.3333333333333A16 16 0 0 0 85.3333333333333 74.6666666666667H90.6613333333333L90.6666666666667 85.3333333333333H101.3333333333333zM90.6666666666667 64H85.3333333333333A5.3333333333333 5.3333333333333 0 0 1 84.7093333333333 53.3706666666667L85.3333333333333 53.3333333333333H90.6666666666667V64zM44.7946666666667 69.9466666666667L40.2773333333333 58.6666666666667H49.3013333333333L44.7946666666667 69.9466666666667z" />
    <glyph glyph-name="airplay"
      unicode="&#xEA0C;"
      horiz-adv-x="128" d="M66.1333816553208 55.824L92.8000483219874 20.2666666666667A2.6666666666667 2.6666666666667 0 0 0 90.6667149886541 16H37.3333816553208A2.6666666666667 2.6666666666667 0 0 0 35.2000483219874 20.2666666666667L61.8667149886541 55.824A2.6666666666667 2.6666666666667 0 0 0 66.1333816553208 55.824zM64.0000483219874 40.9066666666667L53.3333816553208 26.6666666666667H74.6667149886541L64.0000483219874 40.9066666666667zM96.0000483219874 26.6666666666667V37.3333333333333H106.6667149886541V101.3333333333333H21.3333816553208V37.3333333333333H32.0000483219874V26.6666666666667H15.9573816553208A5.3013333333333 5.3013333333333 0 0 0 10.6667149886541 32V106.6666666666667C10.6667149886541 109.6106666666667 13.0933816553208 112 15.9573816553208 112H112.0427149886541C114.9653816553208 112 117.3333816553208 109.6266666666667 117.3333816553208 106.6666666666667V32C117.3333816553208 29.056 114.9067149886541 26.6666666666667 112.0427149886541 26.6666666666667H96.0000483219874z" />
    <glyph glyph-name="alarm"
      unicode="&#xEA0D;"
      horiz-adv-x="128" d="M64 10.6666666666667A48 48 0 1 0 64 106.6666666666667A48 48 0 0 0 64 10.6666666666667zM64 21.3333333333333A37.3333333333333 37.3333333333333 0 1 1 64 96A37.3333333333333 37.3333333333333 0 0 1 64 21.3333333333333zM69.3333333333333 58.6666666666667H85.3333333333333V48H58.6666666666667V85.3333333333333H69.3333333333333V58.6666666666667zM9.3173333333333 94.496L28.1706666666667 113.3493333333333L35.7173333333333 105.808L16.8533333333333 86.9493333333333L9.3173333333333 94.496zM99.824 113.3493333333333L118.6826666666667 94.496L111.1413333333333 86.9493333333333L92.2826666666666 105.808L99.8293333333333 113.3493333333333z" />
    <glyph glyph-name="alarm-warning"
      unicode="&#xEA0E;"
      horiz-adv-x="128" d="M21.3333333333333 21.3333333333333V53.3333333333333A42.6666666666667 42.6666666666667 0 1 0 106.6666666666667 53.3333333333333V21.3333333333333H112V10.6666666666667H16V21.3333333333333H21.3333333333333zM32 21.3333333333333H96V53.3333333333333A32 32 0 1 1 32 53.3333333333333V21.3333333333333zM58.6666666666667 117.3333333333333H69.3333333333333V101.3333333333333H58.6666666666667V117.3333333333333zM105.4826666666667 102.3573333333333L113.024 94.816L101.7173333333333 83.504L94.1706666666667 91.0453333333333L105.4826666666667 102.3573333333333zM14.976 94.816L22.5173333333333 102.3573333333333L33.8293333333333 91.0506666666667L26.2933333333333 83.4986666666667L14.976 94.816zM37.3333333333333 53.3333333333333A26.6666666666667 26.6666666666667 0 0 0 64 80V69.3333333333333A16 16 0 0 1 48 53.3333333333333H37.3333333333333z" />
    <glyph glyph-name="album"
      unicode="&#xEA0F;"
      horiz-adv-x="128" d="M64 21.3333333333333A42.6666666666667 42.6666666666667 0 1 1 64 106.6666666666667A42.6666666666667 42.6666666666667 0 0 1 64 21.3333333333333zM64 10.6666666666667C34.544 10.6666666666667 10.6666666666667 34.544 10.6666666666667 64S34.544 117.3333333333333 64 117.3333333333333S117.3333333333333 93.456 117.3333333333333 64S93.456 10.6666666666667 64 10.6666666666667zM64 53.3333333333333A10.6666666666667 10.6666666666667 0 1 1 64 74.6666666666667A10.6666666666667 10.6666666666667 0 0 1 64 53.3333333333333zM64 42.6666666666667A21.3333333333333 21.3333333333333 0 1 0 64 85.3333333333333A21.3333333333333 21.3333333333333 0 0 0 64 42.6666666666667z" />
    <glyph glyph-name="alert"
      unicode="&#xEA10;"
      horiz-adv-x="128" d="M68.6186666666667 112L119.424 24A5.3333333333333 5.3333333333333 0 0 0 114.8053333333333 16H13.1946666666667A5.3333333333333 5.3333333333333 0 0 0 8.576 24L59.3813333333333 112A5.3333333333333 5.3333333333333 0 0 0 68.6186666666667 112zM22.432 26.6666666666667H105.568L64 98.6666666666667L22.432 26.6666666666667zM58.6666666666667 42.6666666666667H69.3333333333333V32H58.6666666666667V42.6666666666667zM58.6666666666667 80H69.3333333333333V53.3333333333333H58.6666666666667V80z" />
    <glyph glyph-name="aliens"
      unicode="&#xEA11;"
      horiz-adv-x="128" d="M64 117.3333333333333A45.3333333333333 45.3333333333333 0 0 0 109.3333333333333 72C109.3333333333333 37.3333333333333 80 8 64 8S18.6666666666667 37.3333333333333 18.6666666666667 72A45.3333333333333 45.3333333333333 0 0 0 64 117.3333333333333zM64 106.6666666666667A34.6666666666667 34.6666666666667 0 0 1 29.3333333333333 72C29.3333333333333 46.432 51.5466666666667 18.6666666666667 64 18.6666666666667S98.6666666666667 46.432 98.6666666666667 72A34.6666666666667 34.6666666666667 0 0 1 64 106.6666666666667zM93.3333333333333 69.3333333333333C94.1866666666667 69.3333333333333 95.0346666666667 69.2906666666667 95.8666666666667 69.2A24 24 0 0 0 69.4666666666667 42.8A24 24 0 0 0 93.3333333333333 69.3333333333333zM34.6666666666667 69.3333333333333A24 24 0 0 0 58.5333333333333 42.8A24 24 0 0 0 32.1333333333333 69.2C32.96 69.2906666666667 33.8133333333333 69.3333333333333 34.6666666666667 69.3333333333333z" />
    <glyph glyph-name="alipay"
      unicode="&#xEA12;"
      horiz-adv-x="128" d="M98.176 38.4533333333334C86.5866666666667 43.52 78.336 47.232 73.4293333333333 49.5786666666667C65.9626666666667 40.5333333333333 58.112 35.072 46.336 35.072S26.6666666666667 42.3253333333333 27.6053333333333 51.2426666666667C28.2453333333333 57.088 32.256 66.6453333333333 49.6213333333333 64.9813333333333C58.7946666666667 64.128 62.976 62.4213333333333 70.4853333333333 59.9466666666667C72.4053333333333 63.488 74.0266666666667 67.4133333333334 75.2213333333333 71.552H42.0266666666667V74.8373333333334H58.4106666666667V80.7253333333333H38.4V84.352H58.4106666666667V92.8426666666667S58.5813333333333 94.1653333333333 60.0746666666667 94.1653333333333H68.2666666666667V84.3093333333333H89.6V80.6826666666667H68.2666666666667V74.7946666666667H85.6746666666667A66.1866666666667 66.1866666666667 0 0 0 78.6346666666667 57.088C81.3546666666667 56.1173333333333 89.8186666666667 53.4826666666667 104.0213333333333 49.1786666666667A42.6666666666667 42.6666666666667 0 1 1 98.176 38.448zM64 10.6666666666667C34.544 10.6666666666667 10.6666666666667 34.544 10.6666666666667 64S34.544 117.3333333333333 64 117.3333333333333S117.3333333333333 93.456 117.3333333333333 64S93.456 10.6666666666667 64 10.6666666666667zM44.9706666666667 40.704C52.6506666666667 40.704 60.032 45.3546666666667 66.0906666666667 53.248C57.5146666666667 57.3866666666667 50.3893333333333 59.4346666666667 42.4106666666667 59.4346666666667C35.456 59.4346666666667 31.8293333333333 55.168 31.1893333333333 51.8826666666667C30.5493333333333 48.5973333333333 32.512 40.704 44.9706666666667 40.704z" />
    <glyph glyph-name="amazon"
      unicode="&#xEA13;"
      horiz-adv-x="128" d="M81.9245084328672 50.0266666666667C76.0205084328672 41.392 67.3751750995339 37.312 57.2578417662005 37.312C44.9698417662005 37.312 34.4525084328672 46.768 35.9618417662005 59.3066666666667C37.6418417662005 73.216 48.4418417662005 79.2 66.4045084328672 81.4026666666667C69.6098417662005 81.792 70.9378417662005 81.904 77.8551750995339 82.416L78.5911750995339 82.4693333333333V83.616C78.5911750995339 93.1946666666667 72.8951750995339 99.7333333333333 65.2578417662005 99.7333333333333C57.5938417662005 99.7333333333333 52.2445084328672 95.7493333333333 48.9645084328672 86.2613333333333L38.8845084328672 89.7386666666667C43.6151750995339 103.4453333333333 52.9538417662005 110.4 65.2578417662005 110.4C79.1405084328672 110.4 89.2578417662005 98.784 89.2578417662005 83.616C89.2578417662005 69.488 90.1271750995339 58.2506666666667 91.8338417662005 53.9786666666667C93.7325084328672 49.2213333333334 94.4258417662005 48.0213333333333 96.5485084328672 45.376L88.2285084328672 38.704C85.4391750995339 42.1813333333334 84.2125084328672 44.2986666666667 81.9298417662005 50.0213333333333V50.0266666666667zM111.9618417662005 18.4266666666667C110.5165084328672 17.36 108.0045084328672 17.9946666666667 109.1405084328672 20.7733333333334C110.5538417662005 24.2293333333334 112.0578417662005 28.2826666666667 110.5378417662005 30.1173333333334C109.4178417662005 31.4773333333334 108.0471750995339 32.1546666666667 105.0605084328672 32.1546666666667C102.6071750995338 32.1546666666667 101.3805084328672 31.8346666666667 99.7538417662005 31.728C98.6658417662005 31.6586666666667 98.1911750995338 33.312 99.2685084328672 34.0746666666667A15.7866666666667 15.7866666666667 0 0 0 103.9085084328672 36.3573333333334C110.0418417662005 38.1920000000001 117.2685084328672 37.1840000000001 118.1485084328672 35.9146666666667C120.0951750995338 33.0880000000001 117.0871750995338 22.2133333333334 111.9618417662005 18.4213333333334zM105.6578417662005 24.208A40.2933333333333 40.2933333333333 0 0 0 101.2311750995339 20.5013333333334C89.9138417662005 11.8826666666667 75.2578417662005 7.3813333333333 62.5218417662005 7.3813333333333C42.0258417662005 7.3813333333333 23.6951750995339 16.944 9.7858417662005 32.9546666666667C8.5965084328672 34.1813333333334 9.5831750995339 35.9733333333333 10.9751750995339 35.0026666666667C25.9618417662005 23.9253333333334 44.5111750995339 17.2266666666667 63.7165084328672 17.2266666666667C75.7965084328672 17.2266666666667 88.8258417662005 20.0906666666667 101.2365084328672 26.256C102.1005084328672 26.6613333333334 103.0711750995339 27.216 103.9191750995339 27.6106666666667C105.8765084328672 28.7306666666667 107.5991750995339 25.9786666666667 105.6578417662005 24.208zM78.6445084328672 71.7813333333334C71.9351750995339 71.28 70.6658417662005 71.1786666666667 67.7005084328672 70.816C54.0898417662005 69.1466666666667 47.4498417662005 65.4666666666667 46.5538417662005 58.0266666666667C45.8818417662005 52.464 50.8738417662005 47.9786666666667 57.2578417662005 47.9786666666667C68.1325084328672 47.9786666666667 76.0151750995338 54.528 78.7085084328672 71.7813333333334H78.6445084328672z" />
    <glyph glyph-name="anchor"
      unicode="&#xEA14;"
      horiz-adv-x="128" d="M10.9333333333333 69.3333333333333H37.3333333333333V58.6666666666667H21.664A42.688 42.688 0 0 1 58.6666666666667 21.664V75.3386666666667A21.344 21.344 0 0 0 64 117.3333333333333A21.3333333333333 21.3333333333333 0 0 0 69.3333333333333 75.3386666666667V21.664A42.688 42.688 0 0 1 106.336 58.6666666666667H90.6666666666667V69.3333333333333H117.0666666666667C117.2426666666667 67.5786666666667 117.3333333333333 65.7973333333333 117.3333333333333 64C117.3333333333333 34.544 93.456 10.6666666666667 64 10.6666666666667S10.6666666666667 34.544 10.6666666666667 64C10.6666666666667 65.7973333333333 10.7573333333333 67.5786666666667 10.9333333333333 69.3333333333333zM64 85.3333333333333A10.6666666666667 10.6666666666667 0 1 1 64 106.6666666666667A10.6666666666667 10.6666666666667 0 0 1 64 85.3333333333333z" />
    <glyph glyph-name="ancient-gate"
      unicode="&#xEA15;"
      horiz-adv-x="128" d="M100.8136456709071 74.6666666666667A15.9946666666667 15.9946666666667 0 0 1 122.5469790042404 68.7306666666667A18.6666666666667 18.6666666666667 0 0 0 112.013645670907 49.7973333333333L112.0083123375737 16H74.6749790042404V26.6666666666667A10.6666666666667 10.6666666666667 0 0 1 64.8083123375737 37.3066666666667L64.0083123375737 37.3333333333333A10.6666666666667 10.6666666666667 0 0 1 53.3683123375737 27.4666666666667L53.3416456709071 26.6666666666667V16H16.0083123375737V49.792A18.6666666666667 18.6666666666667 0 0 0 5.4536456709071 68.7413333333333A15.9946666666667 15.9946666666667 0 0 1 27.1976456709071 74.6666666666667H100.8136456709071zM95.6349790042404 64H32.3763123375737L31.9709790042404 63.5786666666667C29.6723123375737 61.3386666666667 26.9843123375737 59.5253333333333 24.0456456709071 58.2346666666667L23.5336456709071 58.0266666666667L26.6749790042404 56.5333333333333L26.6696456709071 26.6666666666667L42.6803123375737 26.672V27.056L42.7336456709071 28.2453333333333C43.5283123375737 38.9973333333333 52.2269790042404 47.44 63.2883123375737 47.968L64.3976456709071 47.9946666666667L65.5869790042404 47.9413333333334A21.3333333333333 21.3333333333333 0 0 0 85.3149790042404 27.744L85.3363123375737 26.672L101.3416456709071 26.6666666666667L101.3469790042404 56.5333333333333L104.4776456709071 58.0266666666667L103.9709790042404 58.24A26.6773333333333 26.6773333333333 0 0 0 96.0456456709071 63.5786666666667L95.6349790042404 64zM90.8669790042404 112A18.6666666666667 18.6666666666667 0 0 1 114.5789790042404 96.7466666666667A18.6666666666667 18.6666666666667 0 0 0 97.0323123375737 80.0266666666667L96.0083123375737 80H32.0083123375737A18.6666666666667 18.6666666666667 0 0 0 13.4376456709071 96.7466666666667A18.6666666666667 18.6666666666667 0 0 1 37.1496456709071 112H90.8669790042404zM83.2083123375737 101.3333333333333H44.8029790042404A29.3706666666667 29.3706666666667 0 0 0 36.8563123375737 91.648L35.5336456709071 90.6666666666667H92.4776456709071L92.4136456709071 90.7093333333333A29.4293333333333 29.4293333333333 0 0 0 83.9923123375737 99.8933333333334L83.2083123375737 101.3333333333333z" />
    <glyph glyph-name="ancient-pavilion"
      unicode="&#xEA16;"
      horiz-adv-x="128" d="M66.7386666666667 117.328A48.0213333333333 48.0213333333333 0 0 1 119.912 85.984A24.0053333333333 24.0053333333333 0 0 0 101.336 64.5973333333333V26.6666666666667L112.0026666666667 26.6613333333333V15.9946666666667H16.0026666666667V26.6613333333333H26.6693333333333V64.5973333333333A24.016 24.016 0 0 0 8.088 85.984A48.0213333333333 48.0213333333333 0 0 1 61.272 117.3226666666667H66.7386666666667zM90.6693333333333 64H37.336V26.6666666666667H90.6693333333333V64zM64.0026666666667 99.5893333333333L63.416 98.7626666666667A58.7306666666667 58.7306666666667 0 0 0 28.8026666666667 76.0746666666667L26.8933333333333 75.6853333333333L30.4826666666667 74.672H97.5386666666667L101.1013333333333 75.6853333333333L101.0426666666667 75.696A58.72 58.72 0 0 0 64.584 98.768L64.0026666666667 99.5946666666667z" />
    <glyph glyph-name="android"
      unicode="&#xEA17;"
      horiz-adv-x="128" d="M101.3333029531856 58.6666666666667H26.6666362865189V21.3333333333333H101.3333029531856V58.6666666666667zM101.3333029531856 69.3333333333333A37.3333333333333 37.3333333333333 0 0 1 26.6666362865189 69.3333333333333H101.3333029531856zM34.0373029531856 106.8373333333333A47.7973333333333 47.7973333333333 0 0 0 63.9999696198523 117.3333333333333C75.3333029531856 117.3333333333333 85.7493029531856 113.408 93.962636286519 106.8373333333333L101.7119696198523 114.5866666666667L109.2533029531856 107.0453333333333L101.5039696198523 99.296A47.7973333333333 47.7973333333333 0 0 0 111.9999696198523 69.3333333333333V16A5.3333333333333 5.3333333333333 0 0 0 106.6666362865189 10.6666666666667H21.3333029531856A5.3333333333333 5.3333333333333 0 0 0 15.9999696198523 16V69.3333333333333C15.9999696198523 80.6666666666667 19.9253029531856 91.0826666666667 26.4959696198523 99.296L18.7466362865189 107.04L26.2879696198523 114.5813333333333L34.0373029531856 106.832zM47.9999696198523 80A5.3333333333333 5.3333333333333 0 1 0 47.9999696198523 90.6666666666667A5.3333333333333 5.3333333333333 0 0 0 47.9999696198523 80zM79.9999696198523 80A5.3333333333333 5.3333333333333 0 1 0 79.9999696198523 90.6666666666667A5.3333333333333 5.3333333333333 0 0 0 79.9999696198523 80z" />
    <glyph glyph-name="angularjs"
      unicode="&#xEA18;"
      horiz-adv-x="128" d="M93.456 39.2L96.0693333333333 40.64L102.032 92.4266666666667L64 106.0106666666667L25.968 92.432L31.936 40.6453333333333L34.4586666666667 39.2426666666667L64 105.5466666666667L93.456 39.2zM87.5946666666667 35.9466666666667H83.3386666666667L77.104 51.52H50.7893333333333L44.5493333333333 35.9466666666667H40.4053333333333L64 22.864L87.5946666666667 35.9466666666667zM64 117.3333333333333L113.6 99.6266666666667L106.0373333333333 33.9733333333333L64 10.6666666666667L21.9626666666667 33.9733333333333L14.4 99.6266666666667L64 117.3333333333333zM73.056 61.12L64 82.9333333333333L54.944 61.12H73.056z" />
    <glyph glyph-name="anticlockwise"
      unicode="&#xEA19;"
      horiz-adv-x="128" d="M61.9813333333333 80H115.3146666666667A5.3333333333333 5.3333333333333 0 0 0 120.648 74.6666666666667V21.3333333333333A5.3333333333333 5.3333333333333 0 0 0 115.3146666666667 16H61.9813333333333A5.3333333333333 5.3333333333333 0 0 0 56.648 21.3333333333333V74.6666666666667A5.3333333333333 5.3333333333333 0 0 0 61.9813333333333 80zM67.3146666666667 69.3333333333333V26.6666666666667H109.9813333333333V69.3333333333333H67.3146666666667zM35.3146666666667 71.5413333333333L45.064 81.296L52.6106666666667 73.7493333333333L29.9813333333333 51.1253333333333L7.352 73.7493333333333L14.8986666666667 81.296L24.648 71.5413333333333V85.3333333333333A26.6666666666667 26.6666666666667 0 0 0 51.3146666666667 112H72.648V101.3333333333333H51.3146666666667A16 16 0 0 1 35.3146666666667 85.3333333333333V71.5413333333333z" />
    <glyph glyph-name="anticlockwise-2"
      unicode="&#xEA1A;"
      horiz-adv-x="128" d="M71.5413333333333 96L81.296 86.2506666666667L73.7493333333333 78.704L51.1253333333333 101.3333333333333L73.7493333333333 123.9626666666667L81.296 116.416L71.5413333333333 106.6666666666667H85.3333333333333A26.6666666666667 26.6666666666667 0 0 0 112 80V58.6666666666667H101.3333333333333V80A16 16 0 0 1 85.3333333333333 96H71.5413333333333zM80 69.3333333333333V16A5.3333333333333 5.3333333333333 0 0 0 74.6666666666667 10.6666666666667H21.3333333333333A5.3333333333333 5.3333333333333 0 0 0 16 16V69.3333333333333A5.3333333333333 5.3333333333333 0 0 0 21.3333333333333 74.6666666666667H74.6666666666667A5.3333333333333 5.3333333333333 0 0 0 80 69.3333333333333zM69.3333333333333 64H26.6666666666667V21.3333333333333H69.3333333333333V64z" />
    <glyph glyph-name="app-store"
      unicode="&#xEA1B;"
      horiz-adv-x="128" d="M64 117.3333333333333C93.456 117.3333333333333 117.3333333333333 93.456 117.3333333333333 64S93.456 10.6666666666667 64 10.6666666666667S10.6666666666667 34.544 10.6666666666667 64S34.544 117.3333333333333 64 117.3333333333333zM64 106.6666666666667A42.6666666666667 42.6666666666667 0 1 1 64 21.3333333333333A42.6666666666667 42.6666666666667 0 0 1 64 106.6666666666667zM47.056 46.1706666666667L42.8426666666667 38.864A4.3893333333333 4.3893333333333 0 1 0 35.2266666666667 43.248L38.368 48.6666666666667C41.888 49.7653333333333 44.7733333333334 48.9226666666667 47.056 46.1706666666667zM70.4533333333333 81.8133333333333L83.376 59.4453333333333H94.7946666666667A4.3733333333333 4.3733333333333 0 0 0 99.184 55.0613333333334A4.3733333333333 4.3733333333333 0 0 0 94.7946666666667 50.672H88.448L92.7306666666667 43.2533333333333A4.3946666666667 4.3946666666667 0 0 0 85.12 38.864L68.9066666666667 66.9493333333334C65.2266666666667 73.296 67.8506666666667 79.6586666666667 70.4533333333333 81.8133333333334zM71.936 98.048C74.0426666666667 96.8426666666667 74.752 94.1546666666667 73.5466666666667 92.048L54.7306666666667 59.4666666666667H68.3466666666667C72.752 59.4666666666667 75.2266666666667 54.2826666666667 73.312 50.6933333333333H33.4186666666667A4.3733333333333 4.3733333333333 0 0 0 29.0346666666667 55.0826666666667A4.3733333333333 4.3733333333333 0 0 0 33.4186666666667 59.4666666666667H44.6026666666667L58.9226666666667 84.2826666666667L54.4533333333334 92.048A4.3946666666667 4.3946666666667 0 0 0 62.064 96.4373333333333L63.9786666666667 93.0613333333333L65.936 96.4373333333333A4.3893333333333 4.3893333333333 0 0 0 71.936 98.048z" />
    <glyph glyph-name="apple"
      unicode="&#xEA1C;"
      horiz-adv-x="128" d="M86.6436744870901 84.224C84.1210078204234 84.4213333333333 81.4116744870901 83.8186666666667 77.2623411537567 82.2346666666667C77.6143411537567 82.368 73.3050078204234 80.688 72.0996744870901 80.2613333333333C69.4223411537567 79.328 67.2196744870901 78.816 64.7503411537567 78.816C62.3076744870901 78.816 60.0570078204234 79.3066666666667 57.4650078204234 80.176A63.3066666666667 63.3066666666667 0 0 0 54.7716744870901 81.168C54.3343411537567 81.3386666666667 52.7343411537567 81.9786666666667 52.3823411537567 82.112C48.9263411537567 83.4666666666667 46.9796744870901 83.9786666666667 45.3636744870901 83.936C39.2196744870901 83.856 33.4010078204234 80.3093333333333 30.0250078204234 74.432C23.1343411537567 62.464 26.9476744870901 40.8373333333333 37.0223411537567 26.2666666666667C42.3876744870901 18.5653333333333 45.3210078204234 15.8133333333333 46.5050078204234 15.8506666666667C47.6890078204234 15.904 48.5583411537567 16.1546666666667 50.6810078204234 17.0506666666667L51.5716744870901 17.4293333333334C56.9316744870901 19.7173333333334 60.6916744870901 20.7253333333334 66.3503411537567 20.7253333333334C71.79567448709 20.7253333333334 75.4330078204234 19.7333333333334 80.57967448709 17.5146666666667L81.47567448709 17.1306666666667C83.5983411537567 16.224 84.3663411537567 16.0213333333334 85.69967448709 16.0533333333333C87.6090078204234 16.08 89.9610078204234 18.2773333333334 95.1823411537567 25.9413333333333C96.61167448709 28.0266666666667 97.87567448709 30.224 98.9690078204234 32.448A39.2213333333333 39.2213333333333 0 0 0 96.8783411537567 34.2986666666667C90.00367448709 40.848 85.7530078204234 49.68 85.63567448709 60.592A35.3333333333333 35.3333333333333 0 0 0 93.15567448709 82.8906666666667A21.9946666666667 21.9946666666667 0 0 1 86.64367448709 84.224zM87.4703411537567 94.8586666666667C91.2463411537567 94.6026666666667 102.0623411537567 93.4506666666667 109.1023411537567 83.1466666666667C108.5263411537567 82.8266666666667 96.1743411537567 75.6586666666667 96.3023411537567 60.6826666666667C96.4943411537567 42.7626666666667 111.9823411537567 36.8106666666667 112.1743411537567 36.7466666666667C112.0463411537567 36.2986666666667 109.6783411537567 28.2346666666667 103.9823411537567 19.9146666666667C99.0543411537567 12.6826666666667 93.9343411537567 5.5146666666667 85.8703411537567 5.3866666666667C77.9343411537567 5.1946666666667 75.3743411537567 10.0586666666667 66.3503411537567 10.0586666666667C57.2623411537567 10.0586666666667 54.4463411537567 5.5146666666667 46.9583411537567 5.1946666666667C39.1503411537567 4.9386666666667 33.2623411537567 13.0026666666667 28.2703411537567 20.1706666666667C18.0943411537567 34.8906666666667 10.3503411537567 61.6426666666667 20.7823411537567 79.7546666666667C25.9663411537567 88.7786666666667 35.1823411537567 94.4746666666667 45.2303411537567 94.6026666666667C52.8463411537567 94.7946666666667 60.0783411537567 89.4826666666667 64.7503411537567 89.4826666666667C69.3583411537567 89.4826666666667 77.6143411537567 95.6266666666667 87.4703411537567 94.8586666666667zM81.3903411537567 104.5866666666667C77.2303411537567 99.5946666666667 70.4463411537567 95.6906666666667 63.8543411537567 96.2026666666667C62.9583411537567 102.9866666666667 66.2863411537567 110.0906666666667 70.1263411537567 114.5066666666667C74.4143411537567 119.4986666666667 81.5823411537567 123.2106666666667 87.5343411537567 123.4666666666667C88.3023411537567 116.5546666666667 85.5503411537567 109.5786666666667 81.3903411537567 104.5866666666667z" />
    <glyph glyph-name="apps"
      unicode="&#xEA1D;"
      horiz-adv-x="128" d="M36 114.6666666666667A22.6666666666667 22.6666666666667 0 0 0 58.6666666666667 92V69.3333333333333H36A22.6666666666667 22.6666666666667 0 1 0 36 114.6666666666667zM48 80V92A12 12 0 1 1 36 80H48zM36 58.6666666666667H58.6666666666667V36A22.6666666666667 22.6666666666667 0 1 0 36 58.6666666666667zM36 48A12 12 0 1 1 48 36V48H36zM92 114.6666666666667A22.6666666666667 22.6666666666667 0 1 0 92 69.3333333333333H69.3333333333333V92A22.6666666666667 22.6666666666667 0 0 0 92 114.6666666666667zM92 80A12 12 0 1 1 80 92V80H92zM69.3333333333333 58.6666666666667H92A22.6666666666667 22.6666666666667 0 1 0 69.3333333333333 36V58.6666666666667zM80 48V36A12 12 0 1 1 92 48H80z" />
    <glyph glyph-name="apps-2"
      unicode="&#xEA1E;"
      horiz-adv-x="128" d="M36 66.6666666666667A24 24 0 1 0 36 114.6666666666667A24 24 0 0 0 36 66.6666666666667zM38.6666666666667 13.3333333333333A24 24 0 1 0 38.6666666666667 61.3333333333333A24 24 0 0 0 38.6666666666667 13.3333333333333zM92 66.6666666666667A24 24 0 1 0 92 114.6666666666667A24 24 0 0 0 92 66.6666666666667zM92 13.3333333333333A24 24 0 1 0 92 61.3333333333333A24 24 0 0 0 92 13.3333333333333zM36 77.3333333333333A13.3333333333333 13.3333333333333 0 1 1 36 104A13.3333333333333 13.3333333333333 0 0 1 36 77.3333333333333zM38.6666666666667 24A13.3333333333333 13.3333333333333 0 1 1 38.6666666666667 50.6666666666667A13.3333333333333 13.3333333333333 0 0 1 38.6666666666667 24zM92 77.3333333333333A13.3333333333333 13.3333333333333 0 1 1 92 104A13.3333333333333 13.3333333333333 0 0 1 92 77.3333333333333zM92 24A13.3333333333333 13.3333333333333 0 1 1 92 50.6666666666667A13.3333333333333 13.3333333333333 0 0 1 92 24z" />
    <glyph glyph-name="archive"
      unicode="&#xEA1F;"
      horiz-adv-x="128" d="M15.9997723038363 74.6666666666667H10.6664389705029V106.6506666666667C10.6664389705029 109.6053333333333 13.0931056371696 112 15.9571056371696 112H112.0424389705029A5.28 5.28 0 0 0 117.3331056371696 106.6506666666667V74.6666666666667H111.9997723038363V21.328A5.312 5.312 0 0 0 106.7037723038363 16H21.2957723038363A5.312 5.312 0 0 0 15.9997723038363 21.328V74.6666666666667zM101.3331056371696 74.6666666666667H26.6664389705029V26.6666666666667H101.3331056371696V74.6666666666667zM21.3331056371696 101.3333333333333V85.3333333333333H106.6664389705029V101.3333333333333H21.3331056371696zM47.9997723038363 64H79.9997723038363V53.3333333333333H47.9997723038363V64z" />
    <glyph glyph-name="archive-drawer"
      unicode="&#xEA20;"
      horiz-adv-x="128" d="M16 112.0426666666667C16 114.9653333333333 18.3733333333333 117.3333333333333 21.296 117.3333333333333H106.704A5.3333333333333 5.3333333333333 0 0 0 112 112.0426666666667V15.9573333333333A5.296 5.296 0 0 0 106.704 10.6666666666667H21.296A5.3333333333333 5.3333333333333 0 0 0 16 15.9573333333333V112.0426666666667zM101.3333333333333 69.3333333333333V106.6666666666667H26.6666666666667V69.3333333333333H101.3333333333333zM101.3333333333333 58.6666666666667H26.6666666666667V21.3333333333333H101.3333333333333V58.6666666666667zM48 96H80V85.3333333333333H48V96zM48 48H80V37.3333333333333H48V48z" />
    <glyph glyph-name="arrow-down"
      unicode="&#xEA21;"
      horiz-adv-x="128" d="M69.3333333333333 41.7493333333333L97.9413333333333 70.3573333333333L105.4826666666667 62.816L64 21.3333333333333L22.5173333333333 62.816L30.0586666666667 70.3573333333333L58.6666666666667 41.7493333333333V106.6666666666667H69.3333333333333V41.7493333333333z" />
    <glyph glyph-name="arrow-down-circle"
      unicode="&#xEA22;"
      horiz-adv-x="128" d="M64 117.3333333333333C93.44 117.3333333333333 117.3333333333333 93.44 117.3333333333333 64S93.44 10.6666666666667 64 10.6666666666667S10.6666666666667 34.56 10.6666666666667 64S34.56 117.3333333333333 64 117.3333333333333zM64 21.3333333333333C87.5733333333333 21.3333333333333 106.6666666666667 40.4266666666667 106.6666666666667 64S87.5733333333333 106.6666666666667 64 106.6666666666667S21.3333333333333 87.5733333333333 21.3333333333333 64S40.4266666666667 21.3333333333333 64 21.3333333333333zM69.3333333333333 64H85.3333333333333L64 42.6666666666667L42.6666666666667 64H58.6666666666667V85.3333333333333H69.3333333333333V64z" />
    <glyph glyph-name="arrow-down-s"
      unicode="&#xEA23;"
      horiz-adv-x="128" d="M64 57.7493333333333L90.4 84.1493333333333L97.9413333333333 76.608L64 42.6666666666667L30.0586666666667 76.608L37.6 84.1493333333334z" />
    <glyph glyph-name="arrow-drop-down"
      unicode="&#xEA24;"
      horiz-adv-x="128" d="M64 48L41.3706666666667 70.6293333333333L48.9173333333333 78.1706666666667L64 63.0826666666667L79.0826666666667 78.1706666666667L86.6293333333333 70.6293333333333z" />
    <glyph glyph-name="arrow-drop-left"
      unicode="&#xEA25;"
      horiz-adv-x="128" d="M63.9973333333333 64L79.0853333333333 48.9173333333333L71.544 41.3706666666667L48.9146666666667 64L71.544 86.6293333333333L79.0853333333333 79.0826666666667L63.9973333333333 64z" />
    <glyph glyph-name="arrow-drop-right"
      unicode="&#xEA26;"
      horiz-adv-x="128" d="M64.0026666666667 64L48.9146666666667 79.0826666666667L56.456 86.6293333333333L79.0853333333333 64L56.456 41.3706666666667L48.9146666666667 48.9173333333333z" />
    <glyph glyph-name="arrow-drop-up"
      unicode="&#xEA27;"
      horiz-adv-x="128" d="M64 64.9173333333334L48.9173333333333 49.8293333333333L41.3706666666667 57.3706666666667L64 80L86.6293333333333 57.3706666666667L79.0826666666667 49.8293333333333L64 64.9173333333334z" />
    <glyph glyph-name="arrow-go-back"
      unicode="&#xEA28;"
      horiz-adv-x="128" d="M33.7493333333333 90.6666666666667L47.2746666666667 77.1413333333333L39.7333333333333 69.6L13.3333333333333 96L39.7333333333333 122.4L47.2746666666667 114.8586666666667L33.7493333333333 101.3333333333333H72A42.6666666666667 42.6666666666667 0 1 0 72 16H24V26.6666666666667H72A32 32 0 1 1 72 90.6666666666667H33.7493333333333z" />
    <glyph glyph-name="arrow-go-forward"
      unicode="&#xEA29;"
      horiz-adv-x="128" d="M94.2506666666667 90.6666666666667H56A32 32 0 1 1 56 26.6666666666667H104V16H56A42.6666666666667 42.6666666666667 0 1 0 56 101.3333333333333H94.2506666666667L80.7253333333333 114.8586666666667L88.2666666666667 122.4L114.6666666666667 96L88.2666666666667 69.6L80.7253333333333 77.1413333333333L94.2506666666667 90.6666666666667z" />
    <glyph glyph-name="arrow-left"
      unicode="&#xEA2A;"
      horiz-adv-x="128" d="M41.7493333333333 69.3333333333333H106.6666666666667V58.6666666666667H41.7493333333333L70.3573333333333 30.0586666666667L62.816 22.5173333333333L21.3333333333333 64L62.816 105.4826666666667L70.3573333333333 97.9413333333333z" />
    <glyph glyph-name="arrow-left-circle"
      unicode="&#xEA2B;"
      horiz-adv-x="128" d="M64 117.3333333333333C93.44 117.3333333333333 117.3333333333333 93.44 117.3333333333333 64S93.44 10.6666666666667 64 10.6666666666667S10.6666666666667 34.56 10.6666666666667 64S34.56 117.3333333333333 64 117.3333333333333zM64 21.3333333333333C87.5733333333333 21.3333333333333 106.6666666666667 40.4266666666667 106.6666666666667 64S87.5733333333333 106.6666666666667 64 106.6666666666667S21.3333333333333 87.5733333333333 21.3333333333333 64S40.4266666666667 21.3333333333333 64 21.3333333333333zM64 69.3333333333333H85.3333333333333V58.6666666666667H64V42.6666666666667L42.6666666666667 64L64 85.3333333333333V69.3333333333333z" />
    <glyph glyph-name="arrow-left-down"
      unicode="&#xEA2C;"
      horiz-adv-x="128" d="M42.6106666666667 55.52L88.5146666666667 101.424L96.056 93.8826666666667L50.152 47.9786666666667H90.6106666666667V37.312H31.944V95.9786666666667H42.6106666666667V55.5253333333334z" />
    <glyph glyph-name="arrow-left-right"
      unicode="&#xEA2D;"
      horiz-adv-x="128" d="M85.6 63.7333333333333L112 37.3333333333333L85.6 10.9333333333333L78.0586666666667 18.4746666666667L91.584 32.0053333333333L21.3333333333333 32V42.6666666666667H91.584L78.0586666666667 56.192L85.6 63.7333333333333zM42.4 117.0666666666667L49.9413333333333 109.5253333333333L36.416 96H106.6666666666667V85.3333333333333H36.416L49.9413333333333 71.808L42.4 64.2666666666667L16 90.6666666666667L42.4 117.0666666666667z" />
    <glyph glyph-name="arrow-left-s"
      unicode="&#xEA2E;"
      horiz-adv-x="128" d="M58.3413333333333 64L84.7413333333333 37.6L77.2 30.0586666666667L43.2586666666667 64L77.2 97.9413333333333L84.7413333333333 90.4z" />
    <glyph glyph-name="arrow-left-up"
      unicode="&#xEA2F;"
      horiz-adv-x="128" d="M50.152 85.3333333333333L96.056 39.4293333333333L88.5146666666667 31.888L42.6106666666667 77.792V37.3333333333333H31.944V96H90.6106666666667V85.3333333333333z" />
    <glyph glyph-name="arrow-right"
      unicode="&#xEA30;"
      horiz-adv-x="128" d="M86.2506666666667 69.3333333333333L57.6426666666667 97.9413333333333L65.184 105.4826666666667L106.6666666666667 64L65.184 22.5173333333333L57.6426666666667 30.0586666666667L86.2506666666667 58.6666666666667H21.3333333333333V69.3333333333333z" />
    <glyph glyph-name="arrow-right-circle"
      unicode="&#xEA31;"
      horiz-adv-x="128" d="M64 69.3333333333333V85.3333333333333L85.3333333333333 64L64 42.6666666666667V58.6666666666667H42.6666666666667V69.3333333333333H64zM64 117.3333333333333C93.44 117.3333333333333 117.3333333333333 93.44 117.3333333333333 64S93.44 10.6666666666667 64 10.6666666666667S10.6666666666667 34.56 10.6666666666667 64S34.56 117.3333333333333 64 117.3333333333333zM64 21.3333333333333C87.5733333333333 21.3333333333333 106.6666666666667 40.4266666666667 106.6666666666667 64S87.5733333333333 106.6666666666667 64 106.6666666666667S21.3333333333333 87.5733333333333 21.3333333333333 64S40.4266666666667 21.3333333333333 64 21.3333333333333z" />
    <glyph glyph-name="arrow-right-down"
      unicode="&#xEA32;"
      horiz-adv-x="128" d="M77.8533333333333 42.6453333333333L31.944 88.5493333333333L39.4853333333333 96.0906666666667L85.3893333333333 50.192V90.6453333333333H96.056V31.9786666666667H37.3893333333333V42.6453333333334z" />
    <glyph glyph-name="arrow-right-s"
      unicode="&#xEA33;"
      horiz-adv-x="128" d="M69.6586666666667 64L43.2586666666667 90.4L50.8 97.9413333333333L84.7413333333333 64L50.8 30.0586666666667L43.2586666666667 37.6z" />
    <glyph glyph-name="arrow-right-up"
      unicode="&#xEA34;"
      horiz-adv-x="128" d="M85.3893333333334 77.792L39.4853333333334 31.888L31.944 39.4293333333333L77.8426666666667 85.3333333333333H37.3893333333333V96H96.056V37.3333333333333H85.3893333333333V77.792z" />
    <glyph glyph-name="arrow-up"
      unicode="&#xEA35;"
      horiz-adv-x="128" d="M69.3333333333333 86.2506666666667V21.3333333333333H58.6666666666667V86.2506666666667L30.0586666666667 57.6426666666667L22.5173333333333 65.184L64 106.6666666666667L105.4826666666667 65.184L97.9413333333333 57.6426666666667L69.3333333333333 86.2506666666667z" />
    <glyph glyph-name="arrow-up-circle"
      unicode="&#xEA36;"
      horiz-adv-x="128" d="M64 117.3333333333333C93.44 117.3333333333333 117.3333333333333 93.44 117.3333333333333 64S93.44 10.6666666666667 64 10.6666666666667S10.6666666666667 34.56 10.6666666666667 64S34.56 117.3333333333333 64 117.3333333333333zM64 21.3333333333333C87.5733333333333 21.3333333333333 106.6666666666667 40.4266666666667 106.6666666666667 64S87.5733333333333 106.6666666666667 64 106.6666666666667S21.3333333333333 87.5733333333333 21.3333333333333 64S40.4266666666667 21.3333333333333 64 21.3333333333333zM69.3333333333333 64V42.6666666666667H58.6666666666667V64H42.6666666666667L64 85.3333333333333L85.3333333333333 64H69.3333333333333z" />
    <glyph glyph-name="arrow-up-down"
      unicode="&#xEA37;"
      horiz-adv-x="128" d="M63.7333333333333 85.6L56.192 78.0586666666667L42.6666666666667 91.584V21.3333333333333H32V91.584L18.48 78.0586666666667L10.9333333333333 85.6L37.3333333333333 112L63.7333333333333 85.6zM117.0666666666667 42.4L90.6666666666667 16L64.2666666666667 42.4L71.808 49.9413333333333L85.3386666666667 36.416L85.3333333333333 106.6666666666667H96V36.416L109.5253333333333 49.9413333333333L117.0666666666667 42.4z" />
    <glyph glyph-name="arrow-up-s"
      unicode="&#xEA38;"
      horiz-adv-x="128" d="M64 70.2506666666667L37.6 43.8506666666667L30.0586666666667 51.392L64 85.3333333333333L97.9413333333333 51.392L90.4 43.8506666666667z" />
    <glyph glyph-name="artboard"
      unicode="&#xEA39;"
      horiz-adv-x="128" d="M45.792 37.3333333333333H16V48H112V37.3333333333333H82.208L99.504 20.0373333333334L91.9626666666667 12.496L69.3333333333333 35.1253333333333V21.3333333333333H58.6666666666667V35.1253333333333L36.0373333333333 12.496L28.496 20.0373333333333L45.792 37.3333333333333zM26.6666666666667 112H101.3333333333333A5.3333333333333 5.3333333333333 0 0 0 106.6666666666667 106.6666666666667V53.3333333333333H21.3333333333333V106.6666666666667A5.3333333333333 5.3333333333333 0 0 0 26.6666666666667 112zM32 101.3333333333333V64H96V101.3333333333333H32z" />
    <glyph glyph-name="artboard-2"
      unicode="&#xEA3A;"
      horiz-adv-x="128" d="M42.6666666666667 85.3333333333333V42.6666666666667H85.3333333333333V85.3333333333333H42.6666666666667zM32 96H96V32H32V96zM32 117.3333333333333H42.6666666666667V101.3333333333333H32V117.3333333333333zM32 26.6666666666667H42.6666666666667V10.6666666666667H32V26.6666666666667zM10.6666666666667 96H26.6666666666667V85.3333333333333H10.6666666666667V96zM10.6666666666667 42.6666666666667H26.6666666666667V32H10.6666666666667V42.6666666666667zM101.3333333333333 96H117.3333333333333V85.3333333333333H101.3333333333333V96zM101.3333333333333 42.6666666666667H117.3333333333333V32H101.3333333333333V42.6666666666667zM85.3333333333333 117.3333333333333H96V101.3333333333333H85.3333333333333V117.3333333333333zM85.3333333333333 26.6666666666667H96V10.6666666666667H85.3333333333333V26.6666666666667z" />
    <glyph glyph-name="article"
      unicode="&#xEA3B;"
      horiz-adv-x="128" d="M106.6666666666667 10.6666666666667H21.3333333333333A5.3333333333333 5.3333333333333 0 0 0 16 16V112A5.3333333333333 5.3333333333333 0 0 0 21.3333333333333 117.3333333333333H106.6666666666667A5.3333333333333 5.3333333333333 0 0 0 112 112V16A5.3333333333333 5.3333333333333 0 0 0 106.6666666666667 10.6666666666667zM101.3333333333333 21.3333333333333V106.6666666666667H26.6666666666667V21.3333333333333H101.3333333333333zM37.3333333333333 96H58.6666666666667V74.6666666666667H37.3333333333333V96zM37.3333333333333 64H90.6666666666667V53.3333333333333H37.3333333333333V64zM37.3333333333333 42.6666666666667H90.6666666666667V32H37.3333333333333V42.6666666666667zM69.3333333333333 90.6666666666667H90.6666666666667V80H69.3333333333333V90.6666666666667z" />
    <glyph glyph-name="aspect-ratio"
      unicode="&#xEA3C;"
      horiz-adv-x="128" d="M112 112A5.3333333333333 5.3333333333333 0 0 0 117.3333333333334 106.6666666666667V21.3333333333333A5.3333333333333 5.3333333333333 0 0 0 112 16H16A5.3333333333333 5.3333333333333 0 0 0 10.6666666666667 21.3333333333333V106.6666666666667A5.3333333333333 5.3333333333333 0 0 0 16 112H112zM106.6666666666667 101.3333333333333H21.3333333333333V26.6666666666667H106.6666666666667V101.3333333333333zM69.3333333333333 37.3333333333333V48H85.3333333333333V64H96V37.3333333333333H69.3333333333333zM58.6666666666667 90.6666666666667V80H42.6666666666667V64H32V90.6666666666667H58.6666666666667z" />
    <glyph glyph-name="at"
      unicode="&#xEA3D;"
      horiz-adv-x="128" d="M106.6666665708017 64A42.6666666666667 42.6666666666667 0 1 1 87.6693332374683 28.496L93.5893332374683 19.6213333333333A53.0826666666667 53.0826666666667 0 0 0 63.999999904135 10.6666666666667C34.543999904135 10.6666666666667 10.6666665708017 34.544 10.6666665708017 64S34.543999904135 117.3333333333333 63.999999904135 117.3333333333333S117.3333332374684 93.456 117.3333332374684 64V56A18.6666666666667 18.6666666666667 0 0 0 83.2213332374683 45.5146666666667A26.6666666666667 26.6666666666667 0 1 0 79.999999904135 85.3333333333333H90.6666665708017V56A8 8 0 0 1 106.6666665708017 56V64zM63.999999904135 80A16 16 0 1 1 63.999999904135 48A16 16 0 0 1 63.999999904135 80z" />
    <glyph glyph-name="attachment"
      unicode="&#xEA3E;"
      horiz-adv-x="128" d="M72 56V85.3333333333333A21.3333333333333 21.3333333333333 0 1 1 29.3333333333333 85.3333333333333V56A34.6666666666667 34.6666666666667 0 1 1 98.6666666666667 56V106.6666666666667H109.3333333333333V56A45.3333333333333 45.3333333333333 0 1 0 18.6666666666667 56V85.3333333333333A32 32 0 1 0 82.6666666666667 85.3333333333333V56A18.6666666666667 18.6666666666667 0 0 0 45.3333333333333 56V85.3333333333333H56V56A8 8 0 0 1 72 56z" />
    <glyph glyph-name="auction"
      unicode="&#xEA3F;"
      horiz-adv-x="128" d="M71.8133333333333 21.3333333333333V10.6666666666667H7.8133333333333V21.3333333333333H71.8133333333333zM74.9386666666667 124.3413333333334L116.4213333333333 82.8586666666667L108.88 75.3066666666667L103.2266666666667 77.1946666666667L90.016 64L120.1866666666667 33.8293333333333L112.6453333333333 26.288L82.48 56.4586666666667L69.6586666666667 43.6373333333333L71.168 37.6L63.6213333333333 30.0586666666667L22.1386666666667 71.5413333333333L29.6853333333333 79.0826666666667L35.712 77.5786666666667L69.28 111.1413333333333L67.3973333333333 116.7946666666667L74.9386666666667 124.3413333333334zM78.7093333333334 105.4826666666667L40.9973333333333 67.776L59.8506666666667 48.9173333333333L97.5626666666667 86.624L78.7093333333334 105.4826666666667z" />
    <glyph glyph-name="award"
      unicode="&#xEA40;"
      horiz-adv-x="128" d="M90.6666666666667 46.6933333333333V10.0426666666667A2.6666666666667 2.6666666666667 0 0 0 86.6293333333333 7.7546666666667L64 21.3333333333333L41.3706666666667 7.7546666666667A2.6666666666667 2.6666666666667 0 0 0 37.3333333333333 10.048V46.688A42.6666666666667 42.6666666666667 0 1 0 90.6666666666667 46.688zM48 40.4373333333333V24.1706666666667L64 33.7706666666667L80 24.1706666666667V40.4373333333333A42.5493333333333 42.5493333333333 0 0 0 64 37.3333333333333A42.5493333333333 42.5493333333333 0 0 0 48 40.4373333333333zM64 48A32 32 0 1 1 64 112A32 32 0 0 1 64 48z" />
    <glyph glyph-name="baidu"
      unicode="&#xEA41;"
      horiz-adv-x="128" d="M40.3475104093084 25.1733333333333A51.68 51.68 0 0 1 53.6595104093084 26.3306666666667A46.9333333333333 46.9333333333333 0 0 0 69.5528437426418 27.0293333333333C72.4701770759751 26.672 74.8061770759751 26.1493333333333 76.4221770759751 25.6586666666666C82.1715104093084 24.192 90.3421770759751 24.4693333333333 92.4488437426417 27.8453333333333C94.0008437426418 30.3413333333333 93.7981770759751 32.0426666666667 92.3101770759751 34.24A10.0586666666667 10.0586666666667 0 0 1 91.1795104093084 35.6266666666667A133.3653333333333 133.3653333333333 0 0 0 87.2168437426418 38.9226666666667A136.6293333333333 136.6293333333333 0 0 0 77.8675104093084 47.776A86.1386666666667 86.1386666666667 0 0 0 69.4568437426418 57.872L69.2648437426418 58.1546666666667C65.3075104093084 64.2293333333333 60.9555104093084 63.8453333333333 58.5875104093084 59.8453333333333A51.2213333333333 51.2213333333333 0 0 0 53.4941770759751 52.7466666666667C51.3075104093084 50.176 49.0675104093084 48 46.5341770759751 45.8293333333333C45.8781770759751 45.2693333333333 43.8515104093084 43.5893333333333 44.3368437426418 43.9946666666667C44.3155104093084 43.9786666666667 44.2461770759751 43.9146666666667 44.6088437426418 44.3733333333333C44.0861770759751 43.7333333333334 39.5421770759751 39.696 38.2088437426418 38.176C35.4621770759751 35.0666666666667 34.3528437426418 32.416 34.7688437426418 30.2826666666667C35.1528437426418 28.2773333333333 35.9368437426418 27.152 37.1688437426418 26.3093333333333A7.6373333333333 7.6373333333333 0 0 1 39.7288437426418 25.2106666666667L40.3475104093084 25.1733333333333zM78.2035104093084 63.9786666666667C85.5421770759751 53.472 98.1075104093084 43.7493333333333 98.1075104093084 43.7493333333333S109.1101770759751 34.4266666666667 101.5048437426417 22.2133333333333C93.8995104093084 10 73.4888437426417 15.3973333333333 73.4888437426417 15.3973333333333S65.3821770759751 18.0106666666667 55.9635104093084 15.92C46.5501770759751 13.8133333333333 38.4381770759751 14.6133333333333 38.4381770759751 14.6133333333333S26.6728437426417 15.92 24.2941770759751 28.2613333333333C21.9155104093084 40.6026666666667 35.2808437426418 49.808 36.3368437426418 51.1093333333333C37.3768437426417 52.4266666666667 44.4008437426418 56.832 49.4141770759751 65.2853333333333C54.4275104093084 73.744 68.5235104093084 78.832 78.2035104093084 63.9786666666667zM107.7448437426417 71.552C107.7448437426417 69.1093333333333 108.7581770759751 58.7893333333333 99.4621770759751 58.5813333333333C90.1715104093084 58.3786666666667 89.7768437426418 64.864 89.7768437426418 69.5146666666667C89.7768437426418 74.384 90.7795104093084 81.2746666666667 98.2568437426417 81.2746666666667C105.7235104093084 81.2746666666667 107.7448437426417 73.9733333333333 107.7448437426417 71.5466666666667zM78.7848437426418 86.3626666666667C72.4915104093084 87.1733333333333 71.0675104093084 92.88 71.6755104093084 98.592C72.1875104093084 103.2586666666667 77.7715104093084 110.4266666666667 82.2408437426417 109.3973333333333C86.7048437426417 108.384 90.7741770759751 102.464 89.9528437426418 97.376C89.1475104093084 92.272 85.0941770759751 85.5466666666667 78.7848437426418 86.3626666666667zM52.0328437426418 88.32C47.4461770759751 88.32 43.7128437426417 93.616 43.7128437426417 100.16C43.7128437426417 106.704 47.4408437426417 112 52.0328437426418 112C56.6355104093084 112 60.3528437426418 106.704 60.3528437426418 100.16C60.3528437426418 93.616 56.6355104093084 88.32 52.0328437426418 88.32zM31.8035104093084 63.968C22.7635104093084 62.0213333333333 19.3981770759751 72.4853333333333 20.3901770759751 77.3813333333334C20.3901770759751 77.3813333333334 21.4568437426417 87.9786666666667 28.7955104093084 88.6346666666667C34.6248437426418 89.1413333333333 38.9181770759751 82.7626666666667 39.3608437426418 79.1146666666667C39.6328437426417 76.7466666666667 40.8701770759751 65.9146666666667 31.8035104093084 63.968z" />
    <glyph glyph-name="ball-pen"
      unicode="&#xEA42;"
      horiz-adv-x="128" d="M93.3872361233343 65.024L89.6165694566676 68.7946666666667L36.8165694566676 15.9946666666667H14.1925694566676V38.624L74.5285694566676 98.9653333333333L104.6992361233343 68.7946666666667A5.3333333333333 5.3333333333333 0 0 0 104.6992361233343 61.2533333333334L66.9925694566676 23.5413333333333L59.4459027900009 31.0826666666667L93.3872361233343 65.024zM82.0752361233343 76.336L74.5285694566676 83.8773333333333L24.8592361233343 34.208V26.6613333333333H32.4005694566676L82.0752361233343 76.336zM97.157902790001 114.048L112.2459027900009 98.9653333333334A5.3333333333333 5.3333333333333 0 0 0 112.2459027900009 91.424L104.6992361233343 83.8773333333333L82.0752361233343 106.5066666666667L89.6165694566676 114.048A5.3333333333333 5.3333333333333 0 0 0 97.157902790001 114.048z" />
    <glyph glyph-name="bank"
      unicode="&#xEA43;"
      horiz-adv-x="128" d="M10.6666666666667 21.3333333333333H117.3333333333333V10.6666666666667H10.6666666666667V21.3333333333333zM21.3333333333333 64H32V26.6666666666667H21.3333333333333V64zM48 64H58.6666666666667V26.6666666666667H48V64zM69.3333333333333 64H80V26.6666666666667H69.3333333333333V64zM96 64H106.6666666666667V26.6666666666667H96V64zM10.6666666666667 90.6666666666667L64 117.3333333333333L117.3333333333333 90.6666666666667V69.3333333333333H10.6666666666667V90.6666666666667zM21.3333333333333 84.0746666666667V80H106.6666666666667V84.0746666666667L64 105.408L21.3333333333333 84.0746666666667zM64 85.3333333333333A5.3333333333333 5.3333333333333 0 1 0 64 96A5.3333333333333 5.3333333333333 0 0 0 64 85.3333333333333z" />
    <glyph glyph-name="bank-card"
      unicode="&#xEA44;"
      horiz-adv-x="128" d="M16 112H112A5.3333333333333 5.3333333333333 0 0 0 117.3333333333334 106.6666666666667V21.3333333333333A5.3333333333333 5.3333333333333 0 0 0 112 16H16A5.3333333333333 5.3333333333333 0 0 0 10.6666666666667 21.3333333333333V106.6666666666667A5.3333333333333 5.3333333333333 0 0 0 16 112zM106.6666666666667 69.3333333333333H21.3333333333333V26.6666666666667H106.6666666666667V69.3333333333333zM106.6666666666667 80V101.3333333333333H21.3333333333333V80H106.6666666666667zM74.6666666666667 48H96V37.3333333333333H74.6666666666667V48z" />
    <glyph glyph-name="bank-card-2"
      unicode="&#xEA45;"
      horiz-adv-x="128" d="M16 112H112A5.3333333333333 5.3333333333333 0 0 0 117.3333333333334 106.6666666666667V21.3333333333333A5.3333333333333 5.3333333333333 0 0 0 112 16H16A5.3333333333333 5.3333333333333 0 0 0 10.6666666666667 21.3333333333333V106.6666666666667A5.3333333333333 5.3333333333333 0 0 0 16 112zM106.6666666666667 64H21.3333333333333V26.6666666666667H106.6666666666667V64zM106.6666666666667 85.3333333333333V101.3333333333333H21.3333333333333V85.3333333333333H106.6666666666667z" />
    <glyph glyph-name="bar-chart"
      unicode="&#xEA46;"
      horiz-adv-x="128" d="M16 64H26.6666666666667V16H16V64zM101.3333333333333 85.3333333333333H112V16H101.3333333333333V85.3333333333333zM58.6666666666667 117.3333333333333H69.3333333333333V16H58.6666666666667V117.3333333333333z" />
    <glyph glyph-name="bar-chart-2"
      unicode="&#xEA47;"
      horiz-adv-x="128" d="M10.6666666666667 58.6666666666667H42.6666666666667V16H10.6666666666667V58.6666666666667zM85.3333333333333 85.3333333333333H117.3333333333333V16H85.3333333333333V85.3333333333333zM48 112H80V16H48V112zM21.3333333333333 48V26.6666666666667H32V48H21.3333333333333zM58.6666666666667 101.3333333333333V26.6666666666667H69.3333333333333V101.3333333333333H58.6666666666667zM96 74.6666666666667V26.6666666666667H106.6666666666667V74.6666666666667H96z" />
    <glyph glyph-name="bar-chart-box"
      unicode="&#xEA48;"
      horiz-adv-x="128" d="M16 112H112A5.3333333333333 5.3333333333333 0 0 0 117.3333333333334 106.6666666666667V21.3333333333333A5.3333333333333 5.3333333333333 0 0 0 112 16H16A5.3333333333333 5.3333333333333 0 0 0 10.6666666666667 21.3333333333333V106.6666666666667A5.3333333333333 5.3333333333333 0 0 0 16 112zM21.3333333333333 101.3333333333333V26.6666666666667H106.6666666666667V101.3333333333333H21.3333333333333zM37.3333333333333 58.6666666666667H48V37.3333333333333H37.3333333333333V58.6666666666667zM58.6666666666667 90.6666666666667H69.3333333333333V37.3333333333333H58.6666666666667V90.6666666666667zM80 74.6666666666667H90.6666666666667V37.3333333333333H80V74.6666666666667z" />
    <glyph glyph-name="bar-chart-grouped"
      unicode="&#xEA49;"
      horiz-adv-x="128" d="M13.3333333333333 64H24V16H13.3333333333333V64zM29.3333333333333 53.3333333333333H40V16H29.3333333333333V53.3333333333333zM88 85.3333333333333H98.6666666666667V16H88V85.3333333333333zM104 74.6666666666667H114.6666666666667V16H104V74.6666666666667zM50.6666666666667 117.3333333333333H61.3333333333333V16H50.6666666666667V117.3333333333333zM66.6666666666667 106.6666666666667H77.3333333333333V16H66.6666666666667V106.6666666666667z" />
    <glyph glyph-name="bar-chart-horizontal"
      unicode="&#xEA4A;"
      horiz-adv-x="128" d="M61.3333333333333 112V101.3333333333333H13.3333333333333V112H61.3333333333333zM82.6666666666667 26.6666666666667V16H13.3333333333333V26.6666666666667H82.6666666666667zM114.6666666666667 69.3333333333333V58.6666666666667H13.3333333333333V69.3333333333333H114.6666666666667z" />
    <glyph glyph-name="barcode"
      unicode="&#xEA4B;"
      horiz-adv-x="128" d="M10.6666666666667 106.6666666666667H21.3333333333333V21.3333333333333H10.6666666666667V106.6666666666667zM32 106.6666666666667H37.3333333333333V21.3333333333333H32V106.6666666666667zM42.6666666666667 106.6666666666667H53.3333333333333V21.3333333333333H42.6666666666667V106.6666666666667zM58.6666666666667 106.6666666666667H69.3333333333333V21.3333333333333H58.6666666666667V106.6666666666667zM74.6666666666667 106.6666666666667H85.3333333333333V21.3333333333333H74.6666666666667V106.6666666666667zM90.6666666666667 106.6666666666667H96V21.3333333333333H90.6666666666667V106.6666666666667zM101.3333333333333 106.6666666666667H117.3333333333333V21.3333333333333H101.3333333333333V106.6666666666667z" />
    <glyph glyph-name="barcode-box"
      unicode="&#xEA4C;"
      horiz-adv-x="128" d="M21.3333333333333 101.3333333333333V26.6666666666667H106.6666666666667V101.3333333333333H21.3333333333333zM16 112H112A5.3333333333333 5.3333333333333 0 0 0 117.3333333333334 106.6666666666667V21.3333333333333A5.3333333333333 5.3333333333333 0 0 0 112 16H16A5.3333333333333 5.3333333333333 0 0 0 10.6666666666667 21.3333333333333V106.6666666666667A5.3333333333333 5.3333333333333 0 0 0 16 112zM32 90.6666666666667H48V37.3333333333333H32V90.6666666666667zM53.3333333333333 90.6666666666667H64V37.3333333333333H53.3333333333333V90.6666666666667zM69.3333333333333 90.6666666666667H74.6666666666667V37.3333333333333H69.3333333333333V90.6666666666667zM80 90.6666666666667H96V37.3333333333333H80V90.6666666666667z" />
    <glyph glyph-name="barricade"
      unicode="&#xEA4D;"
      horiz-adv-x="128" d="M34.6293333333333 26.6666666666667H93.3706666666667L89.8133333333333 42.6666666666667H38.1866666666667L34.6293333333333 26.6666666666667zM104.2986666666667 26.6666666666667H112V16H16V26.6666666666667H23.7013333333333L41.7386666666667 107.824A5.3333333333333 5.3333333333333 0 0 0 46.944 112H81.056A5.3333333333333 5.3333333333333 0 0 0 86.2613333333333 107.824L104.2986666666667 26.6666666666667zM40.5546666666667 53.3333333333333H87.4453333333333L82.6986666666667 74.6666666666667H45.3013333333333L40.56 53.3333333333333zM47.6693333333333 85.3333333333333H80.3306666666667L76.7786666666667 101.3333333333333H51.2213333333333L47.6693333333333 85.3333333333333z" />
    <glyph glyph-name="base-station"
      unicode="&#xEA4E;"
      horiz-adv-x="128" d="M64.0053333333333 58.6666666666667L96.0053333333333 10.6666666666667H32.0053333333334L64.0053333333333 58.6666666666667zM64.0053333333333 39.4666666666667L51.952 21.3333333333333H76.0586666666667L64.0053333333333 39.4666666666667zM58.352 71.68A8 8 0 1 0 69.6586666666667 82.9866666666667A8 8 0 0 0 58.352 71.68zM28.1706666666667 113.1573333333333L35.7173333333333 105.6106666666667A40 40 0 0 1 35.7173333333333 49.0453333333333L28.1706666666667 41.4986666666667A50.6666666666667 50.6666666666667 0 0 0 28.1706666666667 113.1573333333333zM99.8293333333333 113.1573333333333A50.6666666666667 50.6666666666667 0 0 0 99.8293333333333 41.4986666666667L92.2826666666667 49.0453333333333A40 40 0 0 1 92.2826666666667 105.6106666666667L99.8293333333333 113.1573333333333zM43.2586666666667 98.0746666666667L50.8 90.5333333333333A18.6666666666667 18.6666666666667 0 0 1 50.8 64.1333333333333L43.2586666666667 56.592A29.3333333333333 29.3333333333333 0 0 0 43.2586666666667 98.0746666666667zM84.7413333333333 98.0746666666667A29.3333333333333 29.3333333333333 0 0 0 84.7413333333333 56.592L77.2 64.1333333333333A18.6666666666667 18.6666666666667 0 0 1 77.2 90.5333333333333L84.7413333333333 98.0746666666667z" />
    <glyph glyph-name="basketball"
      unicode="&#xEA4F;"
      horiz-adv-x="128" d="M64 117.3333333333333C93.456 117.3333333333333 117.3333333333333 93.456 117.3333333333333 64S93.456 10.6666666666667 64 10.6666666666667S10.6666666666667 34.544 10.6666666666667 64S34.544 117.3333333333333 64 117.3333333333333zM65.952 56.7146666666667L47.4506666666667 24.6613333333333A42.9493333333333 42.9493333333333 0 0 1 71.232 21.9413333333333A52.9973333333333 52.9973333333333 0 0 0 75.4133333333333 51.2426666666667L65.952 56.7146666666667zM84.7146666666667 45.8826666666667A42.432 42.432 0 0 1 81.584 25.1146666666667A42.784 42.784 0 0 1 97.9946666666667 38.2133333333333L84.7146666666667 45.8826666666667zM47.248 67.5093333333333A53.0666666666667 53.0666666666667 0 0 0 23.968 49.2266666666667A42.72 42.72 0 0 1 38.2133333333333 30.0053333333333L56.7146666666667 62.048L47.248 67.5093333333334zM106.464 68.2026666666667L105.088 67.5626666666667A42.384 42.384 0 0 1 90.048 55.12L103.3386666666667 47.4453333333333A42.5333333333333 42.5333333333333 0 0 1 106.464 68.208zM21.3333333333333 64C21.3333333333333 62.5813333333333 21.4026666666667 61.1733333333334 21.536 59.792A42.4 42.4 0 0 1 37.952 72.88L24.6613333333333 80.5493333333333A42.5333333333333 42.5333333333333 0 0 1 21.3333333333333 64zM89.7866666666667 97.9946666666667L71.2853333333333 65.952L80.752 60.4853333333333A53.0666666666667 53.0666666666667 0 0 0 104.0373333333333 78.7786666666667A42.7466666666667 42.7466666666667 0 0 1 91.136 96.9226666666667L89.7866666666667 97.9946666666667zM64 106.6666666666667C61.5306666666667 106.6666666666667 59.1146666666667 106.4533333333333 56.7626666666667 106.0533333333333A52.9493333333333 52.9493333333333 0 0 0 52.5813333333333 76.752L62.048 71.2853333333333L80.5493333333333 103.3386666666667A42.5333333333333 42.5333333333333 0 0 1 64 106.6666666666667zM46.416 102.88L45.3973333333333 102.4106666666667A42.8426666666667 42.8426666666667 0 0 1 30.0053333333333 89.7866666666667L43.2853333333333 82.1173333333333A42.432 42.432 0 0 1 46.416 102.88z" />
    <glyph glyph-name="battery"
      unicode="&#xEA50;"
      horiz-adv-x="128" d="M18.6666666666667 90.6666666666667V37.3333333333333H93.3333333333333V90.6666666666667H18.6666666666667zM13.3333333333333 101.3333333333333H98.6666666666667A5.3333333333333 5.3333333333333 0 0 0 104 96V32A5.3333333333333 5.3333333333333 0 0 0 98.6666666666667 26.6666666666667H13.3333333333333A5.3333333333333 5.3333333333333 0 0 0 8 32V96A5.3333333333333 5.3333333333333 0 0 0 13.3333333333333 101.3333333333333zM109.3333333333333 80H120V48H109.3333333333333V80z" />
    <glyph glyph-name="battery-2"
      unicode="&#xEA51;"
      horiz-adv-x="128" d="M58.6666666666667 96H37.3333333333333V21.3333333333333H90.6666666666667V96H69.3333333333333V106.6666666666667H58.6666666666667V96zM48 106.6666666666667V112A5.3333333333333 5.3333333333333 0 0 0 53.3333333333333 117.3333333333333H74.6666666666667A5.3333333333333 5.3333333333333 0 0 0 80 112V106.6666666666667H96A5.3333333333333 5.3333333333333 0 0 0 101.3333333333333 101.3333333333333V16A5.3333333333333 5.3333333333333 0 0 0 96 10.6666666666667H32A5.3333333333333 5.3333333333333 0 0 0 26.6666666666667 16V101.3333333333333A5.3333333333333 5.3333333333333 0 0 0 32 106.6666666666667H48z" />
    <glyph glyph-name="battery-2-charge"
      unicode="&#xEA52;"
      horiz-adv-x="128" d="M69.3333333333333 64H85.3333333333333L58.6666666666667 26.6666666666667V53.3333333333333H42.6666666666667L69.3333333333333 90.6666666666667V64zM58.6666666666667 96H37.3333333333333V21.3333333333333H90.6666666666667V96H69.3333333333333V106.6666666666667H58.6666666666667V96zM48 106.6666666666667V112A5.3333333333333 5.3333333333333 0 0 0 53.3333333333333 117.3333333333333H74.6666666666667A5.3333333333333 5.3333333333333 0 0 0 80 112V106.6666666666667H96A5.3333333333333 5.3333333333333 0 0 0 101.3333333333333 101.3333333333333V16A5.3333333333333 5.3333333333333 0 0 0 96 10.6666666666667H32A5.3333333333333 5.3333333333333 0 0 0 26.6666666666667 16V101.3333333333333A5.3333333333333 5.3333333333333 0 0 0 32 106.6666666666667H48z" />
    <glyph glyph-name="battery-charge"
      unicode="&#xEA53;"
      horiz-adv-x="128" d="M40 26.6666666666667H13.3333333333333A5.3333333333333 5.3333333333333 0 0 0 8 32V96A5.3333333333333 5.3333333333333 0 0 0 13.3333333333333 101.3333333333333H48.6666666666667L42.4426666666667 90.6666666666667H18.6666666666667V37.3333333333333H40V26.6666666666667zM63.3333333333333 26.6666666666667L69.5573333333333 37.3333333333333H93.3333333333333V90.6666666666667H72V101.3333333333333H98.6666666666667A5.3333333333333 5.3333333333333 0 0 0 104 96V32A5.3333333333333 5.3333333333333 0 0 0 98.6666666666667 26.6666666666667H63.3333333333333zM109.3333333333333 80H120V48H109.3333333333333V80zM61.3333333333333 69.3333333333333H77.3333333333333L50.6666666666667 26.6666666666667V58.6666666666667H34.6666666666667L61.3333333333333 101.3333333333333V69.3333333333333z" />
    <glyph glyph-name="battery-low"
      unicode="&#xEA54;"
      horiz-adv-x="128" d="M18.6666666666667 90.6666666666667V37.3333333333333H93.3333333333333V90.6666666666667H18.6666666666667zM13.3333333333333 101.3333333333333H98.6666666666667A5.3333333333333 5.3333333333333 0 0 0 104 96V32A5.3333333333333 5.3333333333333 0 0 0 98.6666666666667 26.6666666666667H13.3333333333333A5.3333333333333 5.3333333333333 0 0 0 8 32V96A5.3333333333333 5.3333333333333 0 0 0 13.3333333333333 101.3333333333333zM24 85.3333333333333H45.3333333333333V42.6666666666667H24V85.3333333333333zM109.3333333333333 80H120V48H109.3333333333333V80z" />
    <glyph glyph-name="battery-saver"
      unicode="&#xEA55;"
      horiz-adv-x="128" d="M74.6666666666667 117.3333333333333A5.3333333333333 5.3333333333333 0 0 0 80 112V106.6666666666667H96A5.3333333333333 5.3333333333333 0 0 0 101.3333333333333 101.3333333333333V16A5.3333333333333 5.3333333333333 0 0 0 96 10.6666666666667H32A5.3333333333333 5.3333333333333 0 0 0 26.6666666666667 16V101.3333333333333A5.3333333333333 5.3333333333333 0 0 0 32 106.6666666666667H48V112A5.3333333333333 5.3333333333333 0 0 0 53.3333333333333 117.3333333333333H74.6666666666667zM69.3333333333333 106.6666666666667H58.6666666666667V96H37.3333333333333V21.3333333333333H90.6666666666667V96H69.3333333333333V106.6666666666667zM69.3333333333333 80V64H85.3333333333333V53.3333333333333H69.3333333333333V37.3333333333333H58.6666666666667V53.3333333333333H42.6666666666667V64H58.6666666666667V80H69.3333333333333z" />
    <glyph glyph-name="battery-share"
      unicode="&#xEA56;"
      horiz-adv-x="128" d="M72 117.3333333333333A5.3333333333333 5.3333333333333 0 0 0 77.3333333333333 112V106.6666666666667H93.3333333333333A5.3333333333333 5.3333333333333 0 0 0 98.6666666666667 101.3333333333333V90.6666666666667H88V96H66.6666666666667V106.6666666666667H56V96H34.6666666666667V21.3333333333333H88V37.3333333333333H98.6666666666667V16A5.3333333333333 5.3333333333333 0 0 0 93.3333333333333 10.6666666666667H29.3333333333333A5.3333333333333 5.3333333333333 0 0 0 24 16V101.3333333333333A5.3333333333333 5.3333333333333 0 0 0 29.3333333333333 106.6666666666667H45.3333333333333V112A5.3333333333333 5.3333333333333 0 0 0 50.6666666666667 117.3333333333333H72zM77.3333333333333 85.3333333333333L104 64L77.3333333333333 42.6666666666667V58.6666666666667H72C66.3786666666667 58.6666666666667 61.3333333333333 53.6 61.3333333333333 48V32H50.6666666666667V48A21.3333333333333 21.3333333333333 0 0 0 72 69.3333333333333H77.3333333333333V85.3333333333333z" />
    <glyph glyph-name="bear-smile"
      unicode="&#xEA57;"
      horiz-adv-x="128" d="M93.3296149418821 117.3333333333333A24 24 0 0 0 109.0682816085488 75.216A47.9466666666667 47.9466666666667 0 0 0 111.9962816085488 58.6666666666667A48 48 0 1 0 18.9296149418821 75.216A24 24 0 1 0 55.1482816085488 105.8506666666667A48.2666666666667 48.2666666666667 0 0 0 72.8549482752155 105.8506666666667A23.968 23.968 0 0 0 93.3296149418821 117.3333333333333zM93.3296149418821 106.6666666666667C88.9402816085488 106.6666666666667 84.9296149418821 104.5333333333333 82.4602816085488 101.056L81.9536149418821 100.288L78.1242816085488 94.016L70.8976149418821 95.3653333333333A37.6 37.6 0 0 1 58.8069482752155 95.6426666666667L57.1216149418821 95.3653333333333L49.8896149418821 94.0053333333333L46.0496149418821 100.2773333333333A13.3333333333333 13.3333333333333 0 1 1 25.2229482752155 83.92L25.9216149418821 83.264L31.4736149418821 78.4426666666667L28.9402816085488 71.536A37.3333333333333 37.3333333333333 0 1 1 101.3296149418821 58.6666666666667C101.3296149418821 62.4853333333333 100.7589482752155 66.2186666666667 99.6549482752155 69.776L99.0576149418821 71.536L96.5242816085488 78.4426666666667L102.0709482752155 83.264A13.3333333333333 13.3333333333333 0 0 1 93.3296149418821 106.6666666666667zM53.3296149418821 58.6666666666667A10.6666666666667 10.6666666666667 0 1 1 74.6629482752155 58.6666666666667H85.3296149418821A21.3333333333333 21.3333333333333 0 1 0 42.6629482752155 58.6666666666667H53.3296149418821z" />
    <glyph glyph-name="behance"
      unicode="&#xEA58;"
      horiz-adv-x="128" d="M40 69.3333333333333A10.6666666666667 10.6666666666667 0 1 1 40 90.6666666666667H16V69.3333333333333H40zM45.3333333333333 58.6666666666667H16V37.3333333333333H45.3333333333333A10.6666666666667 10.6666666666667 0 1 1 45.3333333333333 58.6666666666667zM56.336 66.2826666666667A21.3333333333333 21.3333333333333 0 0 0 45.3333333333333 26.6666666666667H5.3333333333333V101.3333333333333H40A21.3333333333333 21.3333333333333 0 0 0 56.336 66.2826666666667zM82.6666666666667 96H112V88H82.6666666666667V96zM122.6666666666667 50.6666666666667H82.6666666666667V49.3333333333333A14.6666666666667 14.6666666666667 0 0 1 110.4 42.6666666666667H121.7813333333333A25.344 25.344 0 0 0 72 49.3333333333333V57.3333333333333A25.3333333333333 25.3333333333333 0 1 0 122.6666666666667 57.3333333333333V50.6666666666667zM111.4453333333333 61.3333333333333A14.672 14.672 0 0 1 83.2213333333333 61.3333333333333H111.4453333333333z" />
    <glyph glyph-name="bell"
      unicode="&#xEA59;"
      horiz-adv-x="128" d="M75.3103612446749 75.312C98.2223612446749 52.4053333333333 111.7316945780082 28.7626666666667 105.4810279113415 22.512C102.9476945780082 19.984 97.5556945780082 20.6986666666667 90.5103612446749 23.968A48.0426666666667 48.0426666666667 0 0 0 34.0303612446749 26.496L33.8276945780082 26.2826666666667L26.2863612446749 33.8293333333333L26.4890279113415 34.0426666666667A48.032 48.032 0 0 0 23.9716945780082 90.5066666666667C20.6970279113415 97.5573333333333 19.9823612446749 102.9493333333333 22.5156945780082 105.4826666666667C28.5316945780082 111.4986666666667 50.6596945780082 99.2053333333333 72.7396945780082 77.8453333333333L75.3103612446749 75.312zM67.7690279113415 67.7706666666667C57.7210279113415 77.8186666666667 47.3050279113415 86.176 38.5903612446749 91.36L37.5983612446749 90.4A37.344 37.344 0 0 1 34.0943612446749 41.6426666666667L43.9396945780082 51.488A10.6666666666667 10.6666666666667 0 1 0 51.4916945780082 43.9413333333334L41.6356945780082 34.096A37.344 37.344 0 0 1 90.3983612446749 37.6L91.3530279113415 38.6026666666667L91.0703612446749 39.0773333333333C85.8650279113415 47.6906666666667 77.6303612446749 57.904 67.7690279113415 67.7706666666667zM105.4810279113415 105.4826666666667A10.6666666666667 10.6666666666667 0 0 0 104.6063612446748 89.6106666666667A48.08 48.08 0 0 0 108.1370279113415 45.104A112.896 112.896 0 0 1 100.7450279113415 57.4026666666667A37.28 37.28 0 0 1 90.3983612446749 90.4A37.2906666666667 37.2906666666667 0 0 1 57.4010279113415 100.7466666666667A112.4906666666667 112.4906666666667 0 0 1 45.1023612446748 108.1386666666667A48.0853333333333 48.0853333333333 0 0 0 89.6196945780082 104.6026666666667A10.6666666666667 10.6666666666667 0 0 0 105.4810279113415 105.4826666666667z" />
    <glyph glyph-name="bike"
      unicode="&#xEA5A;"
      horiz-adv-x="128" d="M29.3333333333333 64H21.3333333333333V90.6666666666667H10.6666666666667V101.3333333333333H42.6666666666667V90.6666666666667H32V75.76L84.336 89.7813333333333L81.2426666666667 101.3333333333333H64V112H85.216A5.3333333333333 5.3333333333333 0 0 0 90.4853333333333 108.048L98.768 77.136L88.464 74.3786666666667L87.0986666666667 79.4773333333333L29.3333333333333 64zM26.6666666666667 26.6666666666667A10.6666666666667 10.6666666666667 0 1 1 26.6666666666667 48A10.6666666666667 10.6666666666667 0 0 1 26.6666666666667 26.6666666666667zM26.6666666666667 16A21.3333333333333 21.3333333333333 0 1 0 26.6666666666667 58.6666666666667A21.3333333333333 21.3333333333333 0 0 0 26.6666666666667 16zM96 26.6666666666667A16 16 0 1 1 96 58.6666666666667A16 16 0 0 1 96 26.6666666666667zM96 16A26.6666666666667 26.6666666666667 0 1 0 96 69.3333333333333A26.6666666666667 26.6666666666667 0 0 0 96 16z" />
    <glyph glyph-name="bilibili"
      unicode="&#xEA5B;"
      horiz-adv-x="128" d="M38.2506666666667 113.296L55.5413333333333 96H72.4533333333333L89.7493333333333 113.2906666666667A5.3333333333333 5.3333333333333 0 0 0 97.296 105.744L87.5413333333333 96H98.6666666666667A18.6666666666667 18.6666666666667 0 0 0 117.3333333333333 77.3333333333333V34.6666666666667A18.6666666666667 18.6666666666667 0 0 0 98.6666666666667 16H29.3333333333333A18.6666666666667 18.6666666666667 0 0 0 10.6666666666667 34.6666666666667V77.3333333333333A18.6666666666667 18.6666666666667 0 0 0 29.3333333333333 96H40.4533333333333L30.704 105.7546666666667A5.3333333333333 5.3333333333333 0 0 0 38.2506666666667 113.3013333333333zM98.6666666666667 85.3333333333333H29.3333333333333A8 8 0 0 1 21.3706666666667 78.1013333333333L21.3333333333333 77.3333333333333V34.6666666666667A8 8 0 0 1 28.5653333333333 26.704L29.3333333333333 26.6666666666667H98.6666666666667A8 8 0 0 1 106.6293333333333 33.8986666666667L106.6666666666667 34.6666666666667V77.3333333333333A8 8 0 0 1 98.6666666666667 85.3333333333333zM42.6666666666667 69.3333333333333A5.3333333333333 5.3333333333333 0 0 0 48 64V53.3333333333333A5.3333333333333 5.3333333333333 0 0 0 37.3333333333333 53.3333333333333V64A5.3333333333333 5.3333333333333 0 0 0 42.6666666666667 69.3333333333333zM85.3333333333333 69.3333333333333A5.3333333333333 5.3333333333333 0 0 0 90.6666666666667 64V53.3333333333333A5.3333333333333 5.3333333333333 0 0 0 80 53.3333333333333V64A5.3333333333333 5.3333333333333 0 0 0 85.3333333333333 69.3333333333333z" />
    <glyph glyph-name="bill"
      unicode="&#xEA5C;"
      horiz-adv-x="128" d="M106.6666666666667 10.6666666666667H21.3333333333333A5.3333333333333 5.3333333333333 0 0 0 16 16V112A5.3333333333333 5.3333333333333 0 0 0 21.3333333333333 117.3333333333333H106.6666666666667A5.3333333333333 5.3333333333333 0 0 0 112 112V16A5.3333333333333 5.3333333333333 0 0 0 106.6666666666667 10.6666666666667zM101.3333333333333 21.3333333333333V106.6666666666667H26.6666666666667V21.3333333333333H101.3333333333333zM42.6666666666667 80H85.3333333333333V69.3333333333333H42.6666666666667V80zM42.6666666666667 58.6666666666667H85.3333333333333V48H42.6666666666667V58.6666666666667z" />
    <glyph glyph-name="billiards"
      unicode="&#xEA5D;"
      horiz-adv-x="128" d="M64 117.3333333333333C93.456 117.3333333333333 117.3333333333333 93.456 117.3333333333333 64S93.456 10.6666666666667 64 10.6666666666667S10.6666666666667 34.544 10.6666666666667 64S34.544 117.3333333333333 64 117.3333333333333zM64 106.6666666666667A42.6666666666667 42.6666666666667 0 1 1 64 21.3333333333333A42.6666666666667 42.6666666666667 0 0 1 64 106.6666666666667zM64 96A32 32 0 1 0 64 32A32 32 0 0 0 64 96zM64 86.6666666666667A13.3333333333333 13.3333333333333 0 0 1 53.9733333333333 64.5493333333333C50.96 62.112 49.0666666666667 58.5866666666667 49.0666666666667 54.6666666666667C49.0666666666667 47.3066666666667 55.7546666666667 41.3333333333333 64 41.3333333333333C72.2453333333333 41.3333333333333 78.9333333333333 47.3066666666667 78.9333333333333 54.6666666666667C78.9333333333333 58.5866666666667 77.04 62.112 74.0266666666667 64.544A13.3333333333333 13.3333333333333 0 0 1 64 86.6666666666667zM64 60C68.016 60 70.9333333333333 57.3973333333333 70.9333333333333 54.6666666666667S68.016 49.3333333333333 64 49.3333333333333S57.0666666666667 51.936 57.0666666666667 54.6666666666667S59.984 60 64 60zM64 78.6666666666667A5.3333333333333 5.3333333333333 0 1 0 64 68A5.3333333333333 5.3333333333333 0 0 0 64 78.6666666666667z" />
    <glyph glyph-name="bit-coin"
      unicode="&#xEA5E;"
      horiz-adv-x="128" d="M64 10.6666666666667C34.544 10.6666666666667 10.6666666666667 34.544 10.6666666666667 64S34.544 117.3333333333333 64 117.3333333333333S117.3333333333333 93.456 117.3333333333333 64S93.456 10.6666666666667 64 10.6666666666667zM64 21.3333333333333A42.6666666666667 42.6666666666667 0 1 1 64 106.6666666666667A42.6666666666667 42.6666666666667 0 0 1 64 21.3333333333333zM58.6666666666667 42.6666666666667H42.6666666666667V85.3333333333333H58.6666666666667V96H69.3333333333333V85.3333333333333H74.6666666666667A13.3333333333333 13.3333333333333 0 0 0 85.3333333333333 64A13.3333333333333 13.3333333333333 0 0 0 74.6666666666667 42.6666666666667H69.3333333333333V32H58.6666666666667V42.6666666666667zM53.3333333333333 58.6666666666667V53.3333333333333H74.6666666666667A2.6666666666667 2.6666666666667 0 1 1 74.6666666666667 58.6666666666667H53.3333333333333zM53.3333333333333 74.6666666666667V69.3333333333333H74.6666666666667A2.6666666666667 2.6666666666667 0 1 1 74.6666666666667 74.6666666666667H53.3333333333333z" />
    <glyph glyph-name="blaze"
      unicode="&#xEA5F;"
      horiz-adv-x="128" d="M102.6666666666667 80C106.224 74.3466666666667 108 67.232 108 58.6666666666667C108 42.6666666666667 89.3333333333333 37.3333333333333 81.3333333333333 10.6666666666667C77.776 13.7333333333333 76 18.176 76 24C76 42.5706666666667 102.6666666666667 52.2133333333333 102.6666666666667 80zM78.6666666666667 101.3333333333333A44.32 44.32 0 0 0 84 80C84 53.3333333333333 52 48 62.6666666666667 10.6666666666667C53.776 16.8533333333333 49.3333333333333 25.744 49.3333333333333 37.3333333333333C49.3333333333333 55.0666666666667 78.6666666666667 69.3333333333333 78.6666666666667 101.3333333333333zM54.6666666666667 122.6666666666667C58.224 115.5573333333333 60 107.5573333333333 60 98.6666666666667C60 66.6666666666667 12 58.6666666666667 44 10.6666666666667C30.6666666666667 13.3333333333333 20 26.6666666666667 20 42.6666666666667C20 77.3333333333333 54.6666666666667 82.6666666666667 54.6666666666667 122.6666666666667z" />
    <glyph glyph-name="bluetooth"
      unicode="&#xEA60;"
      horiz-adv-x="128" d="M76.664 63.84L99.8266666666667 40.6773333333334L69.6613333333334 10.512H58.9946666666667V46.1706666666667L35.72 22.896L28.1733333333333 30.4373333333334L58.9946666666667 61.2533333333334V66.4266666666667L28.1733333333333 97.2533333333334L35.72 104.7946666666667L58.9946666666667 81.52V117.1786666666667H69.6613333333334L99.8266666666667 87.008L76.664 63.8453333333333zM69.6613333333334 55.7653333333333V25.5946666666667L84.744 40.6773333333333L69.6613333333334 55.7653333333333zM69.6613333333334 71.9253333333333L84.744 87.008L69.6613333333334 102.0906666666667V71.92z" />
    <glyph glyph-name="bluetooth-connect"
      unicode="&#xEA61;"
      horiz-adv-x="128" d="M71.152 63.84L94.3146666666667 40.6773333333334L64.1493333333333 10.512H53.4826666666667V46.1706666666667L30.208 22.896L22.6613333333333 30.4373333333334L53.4826666666667 61.2533333333334V66.4266666666667L22.6613333333333 97.2533333333334L30.208 104.7946666666667L53.4826666666667 81.52V117.1786666666667H64.1493333333333L94.3146666666667 87.008L71.152 63.8453333333333zM64.1493333333333 55.7653333333333V25.5946666666667L79.232 40.6773333333333L64.1493333333333 55.7653333333333zM64.1493333333333 71.9253333333333L79.232 87.008L64.1493333333333 102.0906666666667V71.92zM98.6666666666667 56A8 8 0 1 0 98.6666666666667 72A8 8 0 0 0 98.6666666666667 56zM29.3333333333333 56A8 8 0 1 0 29.3333333333333 72A8 8 0 0 0 29.3333333333333 56z" />
    <glyph glyph-name="blur-off"
      unicode="&#xEA62;"
      horiz-adv-x="128" d="M96.8213333333333 23.6373333333333A48 48 0 0 0 28.9706666666667 91.488L7.4293333333333 113.024L14.976 120.5706666666667L120.5706666666667 14.9706666666667L113.024 7.4293333333333L96.8213333333333 23.6426666666667zM36.5173333333333 83.936A37.3333333333333 37.3333333333333 0 0 1 89.2693333333333 31.1893333333333L36.5226666666667 83.936zM108.8746666666667 41.6L100.3466666666667 50.128A37.3066666666667 37.3066666666667 0 0 1 90.4 85.0613333333334L64 111.4666666666667L51.504 98.9706666666667L43.9626666666667 106.5066666666667L64 126.5493333333333L97.9413333333333 92.608A48.0106666666667 48.0106666666667 0 0 0 108.8746666666667 41.6z" />
    <glyph glyph-name="body-scan"
      unicode="&#xEA63;"
      horiz-adv-x="128" d="M21.3333333333333 42.6666666666667V21.3333333333333H42.6666666666667V10.6666666666667H10.6666666666667V42.6666666666667H21.3333333333333zM117.3333333333333 42.6666666666667V10.6666666666667H85.3333333333333V21.3333333333333H106.6666666666667V42.6666666666667H117.3333333333333zM40 90.6666666666667A24.0106666666667 24.0106666666667 0 0 1 58.6666666666667 67.2586666666667V37.3333333333333H69.3333333333333L69.3386666666667 67.264A24.0106666666667 24.0106666666667 0 0 1 88 90.6666666666667H98.6666666666667A34.6666666666667 34.6666666666667 0 0 0 80.0053333333333 59.9093333333333L80 26.6666666666667H48V59.904A34.6666666666667 34.6666666666667 0 0 0 29.3333333333333 90.6666666666667H40zM64 101.3333333333333A13.3333333333333 13.3333333333333 0 1 0 64 74.6666666666667A13.3333333333333 13.3333333333333 0 0 0 64 101.3333333333333zM42.6666666666667 117.3333333333333V106.6666666666667L21.3333333333333 106.672V85.3333333333333H10.6666666666667V117.3333333333333H42.6666666666667zM117.3333333333333 117.3333333333333V85.3333333333333H106.6666666666667V106.6666666666667H85.3333333333333V117.3333333333333H117.3333333333333z" />
    <glyph glyph-name="book"
      unicode="&#xEA64;"
      horiz-adv-x="128" d="M16 29.3333333333333V101.3333333333333A16 16 0 0 0 32 117.3333333333333H106.6666666666667A5.3333333333333 5.3333333333333 0 0 0 112 112V16A5.3333333333333 5.3333333333333 0 0 0 106.6666666666667 10.6666666666667H34.6666666666667A18.6666666666667 18.6666666666667 0 0 0 16 29.3333333333333zM101.3333333333333 21.3333333333333V37.3333333333333H34.6666666666667A8 8 0 0 1 34.6666666666667 21.3333333333333H101.3333333333333zM26.6666666666667 46.2026666666667A18.592 18.592 0 0 0 34.6666666666667 48H101.3333333333333V106.6666666666667H32A5.3333333333333 5.3333333333333 0 0 1 26.6666666666667 101.3333333333333V46.2026666666667z" />
    <glyph glyph-name="book-2"
      unicode="&#xEA65;"
      horiz-adv-x="128" d="M112 32H32A5.3333333333333 5.3333333333333 0 0 1 32 21.3333333333333H112V10.6666666666667H32A16 16 0 0 0 16 26.6666666666667V106.6666666666667A10.6666666666667 10.6666666666667 0 0 0 26.6666666666667 117.3333333333333H112V32zM26.6666666666667 42.4C27.5306666666667 42.576 28.4213333333333 42.6666666666667 29.3333333333333 42.6666666666667H101.3333333333333V106.6666666666667H26.6666666666667V42.4zM85.3333333333333 80H42.6666666666667V90.6666666666667H85.3333333333333V80z" />
    <glyph glyph-name="book-3"
      unicode="&#xEA66;"
      horiz-adv-x="128" d="M112 106.6666666666667H37.3333333333333A10.6666666666667 10.6666666666667 0 1 1 37.3333333333333 85.3333333333333H112V16A5.3333333333333 5.3333333333333 0 0 0 106.6666666666667 10.6666666666667H37.3333333333333A21.3333333333333 21.3333333333333 0 0 0 16 32V96A21.3333333333333 21.3333333333333 0 0 0 37.3333333333333 117.3333333333333H106.6666666666667A5.3333333333333 5.3333333333333 0 0 0 112 112V106.6666666666667zM26.6666666666667 32A10.6666666666667 10.6666666666667 0 0 1 37.3333333333333 21.3333333333333H101.3333333333333V74.6666666666667H37.3333333333333A21.2373333333333 21.2373333333333 0 0 0 26.6666666666667 77.52V32zM106.6666666666667 90.6666666666667H37.3333333333333A5.3333333333333 5.3333333333333 0 1 0 37.3333333333333 101.3333333333333H106.6666666666667V90.6666666666667z" />
    <glyph glyph-name="book-mark"
      unicode="&#xEA67;"
      horiz-adv-x="128" d="M16 29.3333333333333V101.3333333333333A16 16 0 0 0 32 117.3333333333333H106.6666666666667A5.3333333333333 5.3333333333333 0 0 0 112 112V16A5.3333333333333 5.3333333333333 0 0 0 106.6666666666667 10.6666666666667H34.6666666666667A18.6666666666667 18.6666666666667 0 0 0 16 29.3333333333333zM101.3333333333333 21.3333333333333V37.3333333333333H34.6666666666667A8 8 0 0 1 34.6666666666667 21.3333333333333H101.3333333333333zM53.3333333333333 106.6666666666667H32A5.3333333333333 5.3333333333333 0 0 1 26.6666666666667 101.3333333333333V46.2026666666667A18.592 18.592 0 0 0 34.6666666666667 48H101.3333333333333V106.6666666666667H90.6666666666667V64L72 74.6666666666667L53.3333333333333 64V106.6666666666667z" />
    <glyph glyph-name="book-open"
      unicode="&#xEA68;"
      horiz-adv-x="128" d="M69.3333333333333 16V5.3333333333333H58.6666666666667V16H16A5.3333333333333 5.3333333333333 0 0 0 10.6666666666667 21.3333333333333V106.6666666666667A5.3333333333333 5.3333333333333 0 0 0 16 112H48A21.28 21.28 0 0 0 64 104.7786666666667A21.28 21.28 0 0 0 80 112H112A5.3333333333333 5.3333333333333 0 0 0 117.3333333333334 106.6666666666667V21.3333333333333A5.3333333333333 5.3333333333333 0 0 0 112 16H69.3333333333333zM106.6666666666667 26.6666666666667V101.3333333333333H80A10.6666666666667 10.6666666666667 0 0 1 69.3333333333333 90.6666666666667V26.6666666666667H106.6666666666667zM58.6666666666667 26.6666666666667V90.6666666666667A10.6666666666667 10.6666666666667 0 0 1 48 101.3333333333333H21.3333333333333V26.6666666666667H58.6666666666667z" />
    <glyph glyph-name="book-read"
      unicode="&#xEA69;"
      horiz-adv-x="128" d="M10.666666666667 106.704A5.3333333333333 5.3333333333333 0 0 0 15.9573333333337 112H112.042666666667C114.9653333333337 112 117.3333333333337 109.6266666666667 117.3333333333337 106.704V21.296A5.3333333333333 5.3333333333333 0 0 0 112.042666666667 16H15.9573333333337A5.296 5.296 0 0 0 10.666666666667 21.296V106.704zM58.666666666667 101.3333333333333H21.3333333333337V26.6666666666667H58.666666666667V101.3333333333333zM69.3333333333337 101.3333333333333V26.6666666666667H106.666666666667V101.3333333333333H69.3333333333337zM74.666666666667 90.6666666666667H101.3333333333337V80H74.666666666667V90.6666666666667zM74.666666666667 74.6666666666667H101.3333333333337V64H74.666666666667V74.6666666666667z" />
    <glyph glyph-name="booklet"
      unicode="&#xEA6A;"
      horiz-adv-x="128" d="M106.6933333333333 117.3333333333333C112.5706666666667 117.3333333333333 117.3333333333333 112.544 117.3333333333333 106.72V21.28C117.3333333333333 15.4186666666667 112.5706666666667 10.6666666666667 106.6933333333333 10.6666666666667H21.3333333333333V32H10.6666666666667V42.6666666666667H21.3333333333333V58.6666666666667H10.6666666666667V69.3333333333334H21.3333333333333V85.3333333333333H10.6666666666667V96H21.3333333333333V117.3333333333333H106.6933333333333zM42.6666666666667 106.6666666666667H32V21.3333333333333H42.6666666666667V106.6666666666667zM106.6666666666667 106.6666666666667H53.3333333333333V21.3333333333333H106.6666666666667V106.6666666666667z" />
    <glyph glyph-name="bookmark"
      unicode="&#xEA6B;"
      horiz-adv-x="128" d="M26.6666656147373 117.3333333333333H101.3333322814039A5.3333333333333 5.3333333333333 0 0 0 106.6666656147373 112V9.904A2.6666666666667 2.6666666666667 0 0 0 102.581332281404 7.6426666666667L63.9999989480706 31.84L25.4186656147373 7.648A2.6666666666667 2.6666666666667 0 0 0 21.3333322814039 9.904V112A5.3333333333333 5.3333333333333 0 0 0 26.6666656147373 117.3333333333333zM95.9999989480706 106.6666666666667H31.9999989480706V24.3626666666667L63.9999989480706 44.4213333333333L95.9999989480706 24.3626666666667V106.6666666666667z" />
    <glyph glyph-name="bookmark-2"
      unicode="&#xEA6C;"
      horiz-adv-x="128" d="M26.6666656147373 117.3333333333333H101.3333322814039A5.3333333333333 5.3333333333333 0 0 0 106.6666656147373 112V9.904A2.6666666666667 2.6666666666667 0 0 0 102.581332281404 7.6426666666667L63.9999989480706 31.84L25.4186656147373 7.648A2.6666666666667 2.6666666666667 0 0 0 21.3333322814039 9.904V112A5.3333333333333 5.3333333333333 0 0 0 26.6666656147373 117.3333333333333zM95.9999989480706 106.6666666666667H31.9999989480706V24.3626666666667L63.9999989480706 44.4213333333333L95.9999989480706 24.3626666666667V106.6666666666667zM42.6666656147373 80H85.3333322814039V69.3333333333333H42.6666656147373V80z" />
    <glyph glyph-name="bookmark-3"
      unicode="&#xEA6D;"
      horiz-adv-x="128" d="M21.3333326420376 117.3333333333333H106.6666659753709A5.3333333333333 5.3333333333333 0 0 0 111.9999993087042 112V9.1946666666667A2.6666666666667 2.6666666666667 0 0 0 108.2453326420376 6.7573333333333L63.9999993087042 26.5066666666667L19.7546659753709 6.7626666666667A2.6666666666667 2.6666666666667 0 0 0 15.9999993087042 9.1946666666667V112A5.3333333333333 5.3333333333333 0 0 0 21.3333326420376 117.3333333333333zM101.3333326420376 21.52V106.6666666666667H26.6666659753709V21.52L63.9999993087042 38.1813333333333L101.3333326420376 21.52zM63.9999993087042 56L48.3253326420376 47.76L51.3173326420376 65.2106666666667L38.6399993087042 77.5733333333333L56.1653326420376 80.1226666666667L63.9999993087042 96L71.8399993087042 80.1226666666667L89.3599993087043 77.5733333333333L76.6826659753709 65.2106666666667L79.6693326420376 47.76L63.9999993087042 56z" />
    <glyph glyph-name="boxing"
      unicode="&#xEA6E;"
      horiz-adv-x="128" d="M85.3333284904585 117.3333333333333A29.3333333333333 29.3333333333333 0 0 0 114.6666618237918 88V74.6666666666667A15.9466666666667 15.9466666666667 0 0 0 109.3333284904585 62.7466666666667V37.3333333333333A16.0053333333333 16.0053333333333 0 0 0 98.6666618237918 22.2453333333333V16A5.3333333333333 5.3333333333333 0 0 0 93.3333284904585 10.6666666666667H29.3333284904585A5.3333333333333 5.3333333333333 0 0 0 23.9999951571251 16V22.24A16.0053333333333 16.0053333333333 0 0 0 13.3333284904584 37.3333333333333V96A21.3333333333333 21.3333333333333 0 0 0 34.6666618237918 117.3333333333333H85.3333284904585zM47.9999951571251 69.3333333333333H23.9999951571251V37.3333333333333A5.3333333333333 5.3333333333333 0 0 1 28.7093284904584 32.0373333333334L29.3333284904585 32H93.3333284904585A5.3333333333333 5.3333333333333 0 0 1 98.6293284904585 36.7093333333333L98.6666618237918 37.3333333333333V58.6666666666667H66.4746618237918A18.6666666666667 18.6666666666667 0 0 0 47.9999951571251 42.6666666666667H29.3333284904585V53.3333333333333H47.9999951571251A8 8 0 0 1 55.9626618237918 60.5653333333333L55.9999951571251 61.3333333333333A8 8 0 0 1 48.7679951571251 69.296L47.9999951571251 69.3333333333333zM85.3333284904585 106.6666666666667H34.6666618237918A10.6666666666667 10.6666666666667 0 0 1 24.0266618237918 96.8L23.9999951571251 96V80H47.9999951571251A18.6666666666667 18.6666666666667 0 0 0 64.8693284904585 69.3333333333333H98.6666618237918A5.3333333333333 5.3333333333333 0 0 1 103.9626618237918 74.0426666666667L103.9999951571251 74.6666666666667V88A18.6666666666667 18.6666666666667 0 0 1 86.3573284904585 106.64L85.3333284904585 106.6666666666667z" />
    <glyph glyph-name="braces"
      unicode="&#xEA6F;"
      horiz-adv-x="128" d="M21.3333333333333 32V51.7333333333333A8 8 0 0 1 13.3333333333333 59.7333333333333H10.6666666666667V68.2666666666667H13.3333333333333A8 8 0 0 1 21.3333333333333 76.2666666666667V96A16 16 0 0 0 37.3333333333333 112H42.6666666666667V101.3333333333333H37.3333333333333A5.3333333333333 5.3333333333333 0 0 1 32 96V74.1333333333333A10.6666666666667 10.6666666666667 0 0 0 24.672 64A10.6666666666667 10.6666666666667 0 0 0 32 53.8666666666667V32A5.3333333333333 5.3333333333333 0 0 1 37.3333333333333 26.6666666666667H42.6666666666667V16H37.3333333333333A16 16 0 0 0 21.3333333333333 32zM106.6666666666667 51.7333333333333V32A16 16 0 0 0 90.6666666666667 16H85.3333333333333V26.6666666666667H90.6666666666667A5.3333333333333 5.3333333333333 0 0 1 96 32V53.8666666666667A10.6666666666667 10.6666666666667 0 0 0 103.328 64A10.6666666666667 10.6666666666667 0 0 0 96 74.1333333333333V96A5.3333333333333 5.3333333333333 0 0 1 90.6666666666667 101.3333333333333H85.3333333333333V112H90.6666666666667A16 16 0 0 0 106.6666666666667 96V76.2666666666667A8 8 0 0 1 114.6666666666667 68.2666666666667H117.3333333333333V59.7333333333334H114.6666666666667A8 8 0 0 1 106.6666666666667 51.7333333333334z" />
    <glyph glyph-name="brackets"
      unicode="&#xEA70;"
      horiz-adv-x="128" d="M48 112V101.3333333333333H32V26.6666666666667H48V16H21.3333333333333V112H48zM80 112H106.6666666666667V16H80V26.6666666666667H96V101.3333333333333H80V112z" />
    <glyph glyph-name="briefcase"
      unicode="&#xEA71;"
      horiz-adv-x="128" d="M37.3333333333333 101.3333333333333V117.3333333333333A5.3333333333333 5.3333333333333 0 0 0 42.6666666666667 122.6666666666667H85.3333333333333A5.3333333333333 5.3333333333333 0 0 0 90.6666666666667 117.3333333333333V101.3333333333333H112A5.3333333333333 5.3333333333333 0 0 0 117.3333333333334 96V21.3333333333333A5.3333333333333 5.3333333333333 0 0 0 112 16H16A5.3333333333333 5.3333333333333 0 0 0 10.6666666666667 21.3333333333333V96A5.3333333333333 5.3333333333333 0 0 0 16 101.3333333333333H37.3333333333333zM21.3333333333333 42.6666666666667V26.6666666666667H106.6666666666667V42.6666666666667H21.3333333333333zM21.3333333333333 53.3333333333333H106.6666666666667V90.6666666666667H21.3333333333333V53.3333333333333zM48 112V101.3333333333333H80V112H48zM58.6666666666667 69.3333333333333H69.3333333333333V58.6666666666667H58.6666666666667V69.3333333333333z" />
    <glyph glyph-name="briefcase-2"
      unicode="&#xEA72;"
      horiz-adv-x="128" d="M37.3333333333333 101.3333333333333V117.3333333333333A5.3333333333333 5.3333333333333 0 0 0 42.6666666666667 122.6666666666667H85.3333333333333A5.3333333333333 5.3333333333333 0 0 0 90.6666666666667 117.3333333333333V101.3333333333333H112A5.3333333333333 5.3333333333333 0 0 0 117.3333333333334 96V21.3333333333333A5.3333333333333 5.3333333333333 0 0 0 112 16H16A5.3333333333333 5.3333333333333 0 0 0 10.6666666666667 21.3333333333333V96A5.3333333333333 5.3333333333333 0 0 0 16 101.3333333333333H37.3333333333333zM106.6666666666667 58.6666666666667H21.3333333333333V26.6666666666667H106.6666666666667V58.6666666666667zM106.6666666666667 90.6666666666667H21.3333333333333V69.3333333333333H37.3333333333333V80H48V69.3333333333333H80V80H90.6666666666667V69.3333333333333H106.6666666666667V90.6666666666667zM48 112V101.3333333333333H80V112H48z" />
    </font>
</defs>
</svg>
