<svg xmlns="http://www.w3.org/2000/svg" width="64" height="64" viewBox="0 0 64 64"><path fill="none" stroke="#010101" stroke-width="2" stroke-miterlimit="10" d="M0 47h64"/><path fill="none" stroke="#010101" stroke-width="2" stroke-linejoin="bevel" stroke-miterlimit="10" d="M25 53l7 7 7-7"/><path fill="none" stroke="#010101" stroke-width="2" stroke-miterlimit="10" d="M48.158 47A18.905 18.905 0 0 0 51 37c0-10.493-8.506-19-19-19-.059 0-.115.008-.175.009A13.44 13.44 0 0 1 33 23.5C33 30.956 26.956 37 19.5 37c-2.323 0-4.51-.588-6.418-1.621A19.287 19.287 0 0 0 13 37a18.9 18.9 0 0 0 2.841 9.998"/></svg>