<svg xmlns="http://www.w3.org/2000/svg" width="64" height="64"><path fill="none" stroke="#000" stroke-width="2" stroke-miterlimit="10" d="M24.957 15.001C22.646 11.392 18.604 9 14 9c-.826 0-1.631.085-2.414.233A8.945 8.945 0 0 1 13 14.063a9 9 0 0 1-9 9 8.97 8.97 0 0 1-2.98-.516 12.936 12.936 0 0 0 2.023 6.452 13.068 13.068 0 0 0 3.961 3.96"/><path fill="none" stroke="#000" stroke-width="2" stroke-miterlimit="10" d="M56 45c4.19 0 7-2.81 7-7 0-4.189-2.81-9-7-9 0-10.475-9.525-18-20-18-9.271 0-17.348 6.211-19 15h-2c-5.238 0-9 4.762-9 10s3.762 9 9 9M27 58a5 5 0 1 0 5-5H2"/><path fill="none" stroke="#000" stroke-width="2" stroke-miterlimit="10" d="M40 44a5 5 0 1 1 5 5H4"/></svg>