<svg xmlns="http://www.w3.org/2000/svg" width="64" height="64" viewBox="0 0 64 64"><path d="M32 0C23.453 0 15.417 3.33 9.374 9.374 3.329 15.417 0 23.453 0 32s3.329 16.583 9.373 22.626C15.417 60.671 23.452 64 32 64c8.548 0 16.583-3.33 22.627-9.374C60.671 48.583 64 40.547 64 32s-3.329-16.583-9.373-22.626C48.583 3.329 40.547 0 32 0zm19.798 51.798C46.51 57.087 39.479 60 32 60s-14.51-2.913-19.798-8.203C6.912 46.509 4 39.479 4 32s2.913-14.509 8.202-19.798C17.49 6.913 24.521 4 32 4s14.511 2.913 19.799 8.203C57.088 17.491 60 24.521 60 32s-2.912 14.509-8.202 19.798z"/><path d="M32 8a23.84 23.84 0 0 0-16.97 7.03A23.843 23.843 0 0 0 8 32a2 2 0 0 0 4 0 19.872 19.872 0 0 1 5.859-14.142A19.868 19.868 0 0 1 32 12a19.87 19.87 0 0 1 14.142 5.858A19.871 19.871 0 0 1 52 32a2 2 0 0 0 4 0 23.846 23.846 0 0 0-7.029-16.97A23.844 23.844 0 0 0 32 8z"/><path d="M32 31a4.01 4.01 0 0 0-.807.083l-5.698-6.411a1.999 1.999 0 1 0-2.989 2.657l5.71 6.424A3.975 3.975 0 0 0 28 35.017a3.97 3.97 0 0 0 1.184 2.823A3.974 3.974 0 0 0 32 39c1.075 0 2.083-.42 2.841-1.184a4.006 4.006 0 0 0-.024-5.655A3.973 3.973 0 0 0 32 31z"/></svg>