<?xml version="1.0" encoding="utf-8"?>
<!-- Generator: Adobe Illustrator 16.0.0, SVG Export Plug-In . SVG Version: 6.00 Build 0)  -->
<!DOCTYPE svg PUBLIC "-//W3C//DTD SVG 1.1//EN" "http://www.w3.org/Graphics/SVG/1.1/DTD/svg11.dtd">
<svg version="1.1" id="Ebene_1" xmlns="http://www.w3.org/2000/svg" xmlns:xlink="http://www.w3.org/1999/xlink" x="0px" y="0px"
	 width="64px" height="64px" viewBox="0 0 64 64" enable-background="new 0 0 64 64" xml:space="preserve">
<g>
	<path d="M62,14H30.829l-7.415-7.414C23.039,6.211,22.53,6,22,6H2C0.896,6,0,6.896,0,8v44c0,1.104,0.896,2,2,2h60
		c1.104,0,2-0.896,2-2V16C64,14.896,63.104,14,62,14z M60,50H4V10h17.171l7.415,7.414C28.961,17.789,29.47,18,30,18h30V50z"/>
	<path d="M30,32h-8c-1.104,0-2,0.896-2,2s0.896,2,2,2h8v8c0,1.104,0.896,2,2,2s2-0.896,2-2v-8h8c1.104,0,2-0.896,2-2s-0.896-2-2-2
		h-8v-8c0-1.104-0.896-2-2-2s-2,0.896-2,2V32z"/>
</g>
</svg>
