<svg xmlns="http://www.w3.org/2000/svg" width="64" height="64" viewBox="0 0 64 64"><path d="M58 32C58 17.663 46.336 6 32 6S6 17.663 6 32c0 9.777 5.427 18.308 13.425 22.747l-5.839 5.839a2 2 0 1 0 2.828 2.828l6.908-6.908C26.038 57.47 28.958 58 32 58s5.962-.53 8.678-1.494l6.908 6.908c.39.391.902.586 1.414.586s1.024-.195 1.414-.586a2 2 0 0 0 0-2.828l-5.839-5.839C52.573 50.308 58 41.777 58 32zM41.122 52.012a1.987 1.987 0 0 0-1.536.574c-.029.029-.049.062-.076.093C37.166 53.533 34.637 54 32 54s-5.166-.467-7.51-1.321c-.027-.03-.047-.063-.076-.093a1.987 1.987 0 0 0-1.536-.574C15.289 48.538 10 40.878 10 32c0-12.131 9.869-22 22-22s22 9.869 22 22c0 8.878-5.289 16.538-12.878 20.012z"/><path d="M40.895 34.211L34 30.764V20a2 2 0 0 0-4 0v12a2 2 0 0 0 1.105 1.789l8 4a2 2 0 0 0 1.79-3.578zM17.914 3.421a1.999 1.999 0 0 0-1.522-1.382l-10-2a1.994 1.994 0 0 0-1.806.547l-4 4a2 2 0 0 0-.547 1.807l2 10a1.998 1.998 0 0 0 3.375 1.021l12-12a1.997 1.997 0 0 0 .5-1.993zM5.228 11.943L4.171 6.657l2.486-2.486 5.286 1.058-6.715 6.714zM60 18a2 2 0 0 0 1.961-1.607l2-10a2.001 2.001 0 0 0-.547-1.807l-4-4a1.995 1.995 0 0 0-1.806-.547l-10 2a1.999 1.999 0 0 0-1.022 3.375l12 12c.38.381.892.586 1.414.586zM57.343 4.171l2.486 2.486-1.057 5.286-6.715-6.715 5.286-1.057z"/></svg>