<?xml version="1.0" encoding="utf-8"?>
<!-- Generator: Adobe Illustrator 16.0.0, SVG Export Plug-In . SVG Version: 6.00 Build 0)  -->
<!DOCTYPE svg PUBLIC "-//W3C//DTD SVG 1.1//EN" "http://www.w3.org/Graphics/SVG/1.1/DTD/svg11.dtd">
<svg version="1.1" id="Ebene_1" xmlns="http://www.w3.org/2000/svg" xmlns:xlink="http://www.w3.org/1999/xlink" x="0px" y="0px"
	 width="64px" height="64px" viewBox="0 0 64 64" enable-background="new 0 0 64 64" xml:space="preserve">
<g>
	<path d="M38.454,13.627c-0.759-0.804-2.024-0.839-2.827-0.081l-18,17C17.227,30.924,17,31.45,17,32s0.227,1.076,0.627,1.454l18,17
		C36.013,50.819,36.507,51,37,51c0.531,0,1.061-0.21,1.455-0.627c0.758-0.803,0.722-2.069-0.081-2.827L21.913,32l16.46-15.546
		C39.176,15.696,39.212,14.43,38.454,13.627z"/>
	<path d="M32,0C23.453,0,15.417,3.329,9.374,9.373C3.329,15.417,0,23.453,0,32s3.33,16.583,9.374,22.626
		C15.417,60.671,23.453,64,32,64s16.583-3.329,22.626-9.373C60.671,48.583,64,40.547,64,32s-3.33-16.583-9.374-22.626
		C48.583,3.329,40.547,0,32,0z M51.797,51.798C46.509,57.087,39.479,60,32,60s-14.509-2.913-19.798-8.202C6.913,46.51,4,39.479,4,32
		s2.913-14.51,8.203-19.798C17.491,6.913,24.521,4,32,4s14.509,2.913,19.798,8.202C57.087,17.49,60,24.521,60,32
		S57.087,46.51,51.797,51.798z"/>
</g>
</svg>
