<svg xmlns="http://www.w3.org/2000/svg" width="64" height="64"><path d="M47.546 25.627L32 42.087l-15.546-16.46a2 2 0 1 0-2.908 2.746l17 18a2.001 2.001 0 0 0 2.908 0l17-18a2 2 0 0 0-2.908-2.746z"/><path d="M32 0C23.452 0 15.417 3.329 9.373 9.374 3.329 15.417 0 23.453 0 32s3.329 16.583 9.373 22.626C15.417 60.671 23.452 64 32 64s16.583-3.329 22.626-9.374C60.671 48.583 64 40.547 64 32s-3.33-16.583-9.374-22.626C48.583 3.329 40.548 0 32 0zm19.797 51.798C46.51 57.087 39.479 60 32 60c-7.479 0-14.51-2.913-19.799-8.202C6.913 46.51 4 39.479 4 32s2.913-14.51 8.202-19.798C17.49 6.913 24.521 4 32 4c7.479 0 14.51 2.913 19.798 8.203C57.087 17.491 60 24.521 60 32s-2.913 14.509-8.203 19.798z"/></svg>