<svg xmlns="http://www.w3.org/2000/svg" width="64" height="64" viewBox="0 0 64 64"><path d="M0 44a2 2 0 0 0 2 2h58a2 2 0 0 0 2-2v-4h2V24h-2v-4a2 2 0 0 0-2-2H2a2 2 0 0 0-2 2v24zm4-22h54v20H4V22z"/><path d="M10 24a2 2 0 0 0-2 2v12a2 2 0 0 0 4 0V26a2 2 0 0 0-2-2zM16 24a2 2 0 0 0-2 2v12a2 2 0 0 0 4 0V26a2 2 0 0 0-2-2zM22 24a2 2 0 0 0-2 2v12a2 2 0 0 0 4 0V26a2 2 0 0 0-2-2zM28 24a2 2 0 0 0-2 2v12a2 2 0 0 0 4 0V26a2 2 0 0 0-2-2zM34 24a2 2 0 0 0-2 2v12a2 2 0 0 0 4 0V26a2 2 0 0 0-2-2zM40 24a2 2 0 0 0-2 2v12a2 2 0 0 0 4 0V26a2 2 0 0 0-2-2zM46 24a2 2 0 0 0-2 2v12a2 2 0 0 0 4 0V26a2 2 0 0 0-2-2zM52 24a2 2 0 0 0-2 2v12a2 2 0 0 0 4 0V26a2 2 0 0 0-2-2z"/></svg>