<?xml version="1.0" encoding="utf-8"?>
<!-- Generator: Adobe Illustrator 16.0.0, SVG Export Plug-In . SVG Version: 6.00 Build 0)  -->
<!DOCTYPE svg PUBLIC "-//W3C//DTD SVG 1.1//EN" "http://www.w3.org/Graphics/SVG/1.1/DTD/svg11.dtd">
<svg version="1.1" id="Ebene_1" xmlns="http://www.w3.org/2000/svg" xmlns:xlink="http://www.w3.org/1999/xlink" x="0px" y="0px"
	 width="64px" height="64px" viewBox="0 0 64 64" enable-background="new 0 0 64 64" xml:space="preserve">
<g>
	<path d="M58,46H32V2c0-1.104-0.896-2-2-2s-2,0.896-2,2v44H6c-0.672,0-1.3,0.338-1.67,0.899c-0.37,0.562-0.433,1.271-0.168,1.889
		l6,14C10.477,63.523,11.2,64,12,64h40c0.8,0,1.523-0.477,1.838-1.212l6-14c0.265-0.618,0.201-1.327-0.168-1.889
		C59.3,46.338,58.672,46,58,46z M50.681,60H13.319L9.033,50h45.934L50.681,60z"/>
	<path d="M22.285,20.971l-12,20c-0.371,0.618-0.38,1.387-0.025,2.014S11.279,44,12,44h12c1.104,0,2-0.896,2-2V22
		c0-0.899-0.6-1.688-1.466-1.927C23.668,19.833,22.747,20.2,22.285,20.971z M22,40h-6.468L22,29.221V40z"/>
	<path d="M34,2v40c0,1.104,0.896,2,2,2c0.18,0,18-0.251,18-22S36.18,0,36,0C34.896,0,34,0.896,34,2z M38,4.222
		C41.88,4.961,50,8.163,50,22c0,13.736-8.114,16.991-12,17.761V4.222z"/>
</g>
</svg>
