<svg xmlns="http://www.w3.org/2000/svg" width="64" height="64" viewBox="0 0 64 64"><path d="M58 46H32V2a2 2 0 0 0-4 0v44H6a2.001 2.001 0 0 0-1.838 2.788l6 14A2 2 0 0 0 12 64h40a2 2 0 0 0 1.838-1.212l6-14A2.001 2.001 0 0 0 58 46zm-7.319 14H13.319L9.033 50h45.934l-4.286 10z"/><path d="M22.285 20.971l-12 20A1.999 1.999 0 0 0 12 44h12a2 2 0 0 0 2-2V22a1.999 1.999 0 0 0-3.715-1.029zM22 40h-6.468L22 29.221V40zM34 2v40a2 2 0 0 0 2 2c.18 0 18-.251 18-22S36.18 0 36 0a2 2 0 0 0-2 2zm4 2.222C41.88 4.961 50 8.163 50 22c0 13.736-8.114 16.991-12 17.761V4.222z"/></svg>