<svg xmlns="http://www.w3.org/2000/svg" width="64" height="64" viewBox="0 0 64 64"><path d="M19.414 63.414L32 50.828l12.586 12.586a1.996 1.996 0 0 0 2.179.434A2 2 0 0 0 48 62V2a2 2 0 0 0-2-2H18a2 2 0 0 0-2 2v60a2 2 0 0 0 3.414 1.414zM20 4h24v53.172L33.414 46.586C33.024 46.195 32.512 46 32 46s-1.024.195-1.414.586L20 57.172V4z"/><path d="M36.586 29.414c.39.391.902.586 1.414.586s1.024-.195 1.414-.586a2 2 0 0 0 0-2.828L34.828 22l4.586-4.586a2 2 0 1 0-2.828-2.828L32 19.172l-4.586-4.586a2 2 0 1 0-2.828 2.828L29.172 22l-4.586 4.586a2 2 0 1 0 2.828 2.828L32 24.828l4.586 4.586z"/></svg>