<svg xmlns="http://www.w3.org/2000/svg" width="64" height="64" viewBox="0 0 64 64"><path d="M62 8h-8V6a2 2 0 0 0-2-2h-6a2 2 0 0 0-2 2v2H20V6a2 2 0 0 0-2-2h-6a2 2 0 0 0-2 2v2H2a2 2 0 0 0-2 2v48a2 2 0 0 0 2 2h60a2 2 0 0 0 2-2V10a2 2 0 0 0-2-2zM48 8h2v4h-2V8zM14 8h2v4h-2V8zm46 48H4V12h6v2a2 2 0 0 0 2 2h6a2 2 0 0 0 2-2v-2h24v2a2 2 0 0 0 2 2h6a2 2 0 0 0 2-2v-2h6v44z"/><path d="M20 24h-8a2 2 0 0 0-2 2v8a2 2 0 0 0 2 2h8a2 2 0 0 0 2-2v-8a2 2 0 0 0-2-2zm-2 8h-4v-4h4v4zM36 24h-8a2 2 0 0 0-2 2v8a2 2 0 0 0 2 2h8a2 2 0 0 0 2-2v-8a2 2 0 0 0-2-2zm-2 8h-4v-4h4v4zM52 24h-8a2 2 0 0 0-2 2v8a2 2 0 0 0 2 2h8a2 2 0 0 0 2-2v-8a2 2 0 0 0-2-2zm-2 8h-4v-4h4v4zM20 40h-8a2 2 0 0 0-2 2v8a2 2 0 0 0 2 2h8a2 2 0 0 0 2-2v-8a2 2 0 0 0-2-2zm-2 8h-4v-4h4v4zM36 40h-8a2 2 0 0 0-2 2v8a2 2 0 0 0 2 2h8a2 2 0 0 0 2-2v-8a2 2 0 0 0-2-2zm-2 8h-4v-4h4v4zM52 40h-8a2 2 0 0 0-2 2v8a2 2 0 0 0 2 2h8a2 2 0 0 0 2-2v-8a2 2 0 0 0-2-2zm-2 8h-4v-4h4v4z"/></svg>