<?xml version="1.0" encoding="utf-8"?>
<!-- Generator: Adobe Illustrator 16.0.0, SVG Export Plug-In . SVG Version: 6.00 Build 0)  -->
<!DOCTYPE svg PUBLIC "-//W3C//DTD SVG 1.1//EN" "http://www.w3.org/Graphics/SVG/1.1/DTD/svg11.dtd">
<svg version="1.1" id="Ebene_1" xmlns="http://www.w3.org/2000/svg" xmlns:xlink="http://www.w3.org/1999/xlink" x="0px" y="0px"
	 width="64px" height="64px" viewBox="0 0 64 64" enable-background="new 0 0 64 64" xml:space="preserve">
<g>
	<path d="M0,52c0,1.104,0.896,2,2,2h60c1.104,0,2-0.896,2-2V20c0-1.104-0.896-2-2-2H46.961l-7.4-9.249C39.182,8.276,38.607,8,38,8
		H26c-0.607,0-1.182,0.276-1.562,0.751L17.039,18H2c-1.104,0-2,0.896-2,2V52z M18,22c0.607,0,1.182-0.276,1.562-0.751l7.4-9.249
		h10.077l7.4,9.249C44.818,21.724,45.393,22,46,22h14v28H12V22H18z M4,22h4v28H4V22z"/>
	<path d="M32,46c5.514,0,10-4.486,10-10s-4.486-10-10-10s-10,4.486-10,10S26.486,46,32,46z M32,30c3.309,0,6,2.691,6,6s-2.691,6-6,6
		s-6-2.691-6-6S28.691,30,32,30z"/>
	<path d="M54,30c0.52,0,1.04-0.21,1.41-0.59C55.79,29.04,56,28.53,56,28s-0.21-1.04-0.59-1.41c-0.74-0.75-2.08-0.75-2.82,0
		C52.21,26.96,52,27.47,52,28s0.21,1.04,0.59,1.42C52.96,29.79,53.48,30,54,30z"/>
</g>
</svg>
