<svg xmlns="http://www.w3.org/2000/svg" width="64" height="64"><path d="M0 52a2 2 0 0 0 2 2h60a2 2 0 0 0 2-2V20a2 2 0 0 0-2-2H46.961l-7.4-9.249A1.997 1.997 0 0 0 38 8H26a2 2 0 0 0-1.562.751L17.039 18H2a2 2 0 0 0-2 2v32zm18-30a2 2 0 0 0 1.562-.751l7.4-9.249h10.077l7.4 9.249c.379.475.954.751 1.561.751h14v28H12V22h6zM4 22h4v28H4V22z"/><path d="M32 46c5.514 0 10-4.486 10-10s-4.486-10-10-10-10 4.486-10 10 4.486 10 10 10zm0-16c3.309 0 6 2.691 6 6s-2.691 6-6 6-6-2.691-6-6 2.691-6 6-6zM54 30c.52 0 1.04-.21 1.41-.59.38-.37.59-.88.59-1.41s-.21-1.04-.59-1.41c-.74-.75-2.08-.75-2.82 0-.38.37-.59.88-.59 1.41s.21 1.04.59 1.42c.37.37.89.58 1.41.58z"/></svg>