<?xml version="1.0" encoding="utf-8"?>
<!-- Generator: Adobe Illustrator 16.0.0, SVG Export Plug-In . SVG Version: 6.00 Build 0)  -->
<!DOCTYPE svg PUBLIC "-//W3C//DTD SVG 1.1//EN" "http://www.w3.org/Graphics/SVG/1.1/DTD/svg11.dtd">
<svg version="1.1" id="Ebene_1" xmlns="http://www.w3.org/2000/svg" xmlns:xlink="http://www.w3.org/1999/xlink" x="0px" y="0px"
	 width="64px" height="64px" viewBox="0 0 64 64" enable-background="new 0 0 64 64" xml:space="preserve">
<g>
	<path d="M62,16H45v-6c0-1.104-0.896-2-2-2H21c-1.104,0-2,0.896-2,2v6H2c-1.104,0-2,0.896-2,2v36c0,1.104,0.896,2,2,2h60
		c1.104,0,2-0.896,2-2V18C64,16.896,63.104,16,62,16z M23,12h18v4H23V12z M60,52H4V20h56V52z"/>
</g>
</svg>
