<svg xmlns="http://www.w3.org/2000/svg" width="64" height="64"><path d="M32 0C23.452 0 15.416 3.33 9.373 9.374 3.328 15.417-.001 23.453-.001 32s3.329 16.583 9.374 22.626C15.416 60.671 23.452 64 32 64c8.547 0 16.583-3.33 22.627-9.374 6.045-6.044 9.374-14.079 9.374-22.626s-3.329-16.583-9.374-22.626C48.583 3.329 40.547 0 32 0zM12.201 12.202a28.23 28.23 0 0 1 4.857-3.884L27.362 25.49a8.138 8.138 0 0 0-1.019.853 8.012 8.012 0 0 0-.852 1.02L8.318 17.059a28.233 28.233 0 0 1 3.883-4.857zm22.627 22.627C34.072 35.584 33.068 36 32 36s-2.072-.417-2.828-1.171a4.005 4.005 0 0 1 0-5.658A3.976 3.976 0 0 1 32 28c1.068 0 2.072.416 2.828 1.171a4.005 4.005 0 0 1 0 5.658zM12.201 51.797C6.912 46.509 3.999 39.479 3.999 32c0-4 .841-7.868 2.425-11.413l17.627 10.576a7.986 7.986 0 0 0 2.293 6.495 7.95 7.95 0 0 0 6.497 2.297l10.572 17.621A27.913 27.913 0 0 1 32 60c-7.479 0-14.511-2.913-19.799-8.203zm39.598.001a28.277 28.277 0 0 1-4.857 3.884L36.639 38.51c.357-.256.7-.536 1.018-.853.319-.319.598-.664.852-1.02l17.174 10.304a28.287 28.287 0 0 1-3.884 4.857zm5.777-8.385L39.949 32.837a7.986 7.986 0 0 0-2.293-6.495 7.95 7.95 0 0 0-6.497-2.297L20.587 6.424A27.91 27.91 0 0 1 32 4c7.479 0 14.51 2.913 19.799 8.203 5.289 5.288 8.202 12.319 8.202 19.797 0 4-.841 7.868-2.425 11.413z"/></svg>