<?xml version="1.0" encoding="utf-8"?>
<!-- Generator: Adobe Illustrator 16.0.0, SVG Export Plug-In . SVG Version: 6.00 Build 0)  -->
<!DOCTYPE svg PUBLIC "-//W3C//DTD SVG 1.1//EN" "http://www.w3.org/Graphics/SVG/1.1/DTD/svg11.dtd">
<svg version="1.1" id="Ebene_1" xmlns="http://www.w3.org/2000/svg" xmlns:xlink="http://www.w3.org/1999/xlink" x="0px" y="0px"
	 width="64px" height="64px" viewBox="0 0 64 64" enable-background="new 0 0 64 64" xml:space="preserve">
<g>
	<path d="M32,64c8.547,0,16.583-3.329,22.626-9.373C60.671,48.583,64,40.547,64,32s-3.329-16.583-9.373-22.626
		C48.583,3.329,40.547,0,32,0S15.417,3.329,9.374,9.373C3.329,15.417,0,23.453,0,32s3.329,16.583,9.373,22.626
		C15.417,60.671,23.453,64,32,64z M12.202,12.202C17.49,6.913,24.521,4,32,4s14.51,2.913,19.798,8.202C57.087,17.49,60,24.521,60,32
		s-2.913,14.51-8.202,19.798C46.51,57.087,39.479,60,32,60s-14.51-2.913-19.798-8.202C6.913,46.51,4,39.479,4,32
		S6.913,17.49,12.202,12.202z"/>
	<path d="M23.937,48c0.021,0,0.042,0,0.063,0c0.543,0,1.064-0.221,1.442-0.614l25-26c0.765-0.796,0.741-2.062-0.056-2.828
		c-0.797-0.766-2.062-0.74-2.828,0.056L24.095,43.016l-9.568-11.308c-0.714-0.844-1.976-0.949-2.819-0.235
		c-0.843,0.713-0.948,1.976-0.235,2.819l11,13C22.839,47.725,23.371,48,23.937,48z"/>
</g>
</svg>
