<svg xmlns="http://www.w3.org/2000/svg" width="64" height="64"><path d="M32 64c8.547 0 16.583-3.329 22.626-9.373C60.671 48.583 64 40.547 64 32s-3.329-16.583-9.373-22.626C48.583 3.329 40.547 0 32 0S15.417 3.329 9.374 9.373C3.329 15.417 0 23.453 0 32s3.329 16.583 9.373 22.626C15.417 60.671 23.453 64 32 64zM12.202 12.202C17.49 6.913 24.521 4 32 4s14.51 2.913 19.798 8.202C57.087 17.49 60 24.521 60 32s-2.913 14.51-8.202 19.798C46.51 57.087 39.479 60 32 60s-14.51-2.913-19.798-8.202C6.913 46.51 4 39.479 4 32s2.913-14.51 8.202-19.798z"/><path d="M23.937 48H24a2 2 0 0 0 1.442-.614l25-26a2 2 0 1 0-2.884-2.772L24.095 43.016l-9.568-11.308a2 2 0 1 0-3.054 2.584l11 13c.366.433.898.708 1.464.708z"/></svg>