<svg xmlns="http://www.w3.org/2000/svg" width="64" height="64"><path d="M3 35c0 7.746 3.017 15.028 8.494 20.505C16.971 60.983 24.253 64 32 64c7.746 0 15.029-3.017 20.506-8.495C57.984 50.028 61 42.746 61 35s-3.017-15.028-8.494-20.505C47.503 9.491 40.993 6.549 34 6.076V4h4a2 2 0 0 0 0-4H26a2 2 0 0 0 0 4h4v2.076c-6.993.473-13.503 3.415-18.505 8.419C6.017 19.972 3 27.254 3 35zm53.915-2H55a2 2 0 0 0 0 4h1.915a24.767 24.767 0 0 1-5.901 14.223c-.053-.068-.102-.139-.164-.201l-2.829-2.829a2 2 0 0 0-2.829 2.828l2.829 2.829c.062.062.133.112.201.164A24.753 24.753 0 0 1 34 59.914V57a2 2 0 0 0-4 0v2.914a24.753 24.753 0 0 1-14.222-5.9c.068-.053.139-.102.201-.164l2.829-2.829a2 2 0 1 0-2.828-2.828l-2.829 2.829c-.062.062-.112.133-.164.201A24.761 24.761 0 0 1 7.085 37H9a2 2 0 0 0 0-4H7.085a24.761 24.761 0 0 1 5.901-14.222c.053.068.102.139.165.201l2.829 2.828c.391.391.902.586 1.414.586s1.024-.195 1.415-.586a2 2 0 0 0 0-2.828l-2.829-2.828c-.062-.062-.133-.112-.202-.165a24.756 24.756 0 0 1 14.223-5.9V12a2 2 0 0 0 4 0v-1.914a24.759 24.759 0 0 1 14.223 5.9c-.068.053-.139.103-.202.165l-2.828 2.828a2 2 0 1 0 2.828 2.828l2.828-2.828c.063-.062.112-.133.165-.202A24.772 24.772 0 0 1 56.915 33z"/><path d="M34 31.557V23a2 2 0 0 0-4 0v8.557c-1.19.693-2 1.969-2 3.443 0 2.206 1.794 4 4 4s4-1.794 4-4c0-1.475-.81-2.75-2-3.443z"/></svg>