<?xml version="1.0" encoding="utf-8"?>
<!-- Generator: Adobe Illustrator 16.0.0, SVG Export Plug-In . SVG Version: 6.00 Build 0)  -->
<!DOCTYPE svg PUBLIC "-//W3C//DTD SVG 1.1//EN" "http://www.w3.org/Graphics/SVG/1.1/DTD/svg11.dtd">
<svg version="1.1" id="Ebene_1" xmlns="http://www.w3.org/2000/svg" xmlns:xlink="http://www.w3.org/1999/xlink" x="0px" y="0px"
	 width="64px" height="64px" viewBox="0 0 64 64" enable-background="new 0 0 64 64" xml:space="preserve">
<g>
	<path d="M32,0C23.453,0,15.417,3.329,9.374,9.374C3.329,15.417,0,23.453,0,32s3.329,16.583,9.373,22.626
		C15.417,60.671,23.453,64,32,64s16.583-3.329,22.627-9.374C60.671,48.583,64,40.547,64,32s-3.329-16.583-9.373-22.626
		C48.583,3.329,40.547,0,32,0z M51.798,51.798C46.51,57.087,39.479,60,32,60c-7.479,0-14.51-2.913-19.798-8.202
		C6.913,46.51,4,39.479,4,32s2.913-14.51,8.202-19.798C17.49,6.913,24.521,4,32,4c7.479,0,14.51,2.913,19.799,8.202
		C57.088,17.49,60,24.521,60,32S57.088,46.51,51.798,51.798z"/>
	<path d="M46.788,36.162L34,30.682V10c0-1.104-0.896-2-2-2s-2,0.896-2,2v22c0,0.8,0.477,1.523,1.212,1.838l14,6
		c0.257,0.11,0.524,0.163,0.787,0.163c0.776-0.001,1.514-0.455,1.839-1.213C48.273,37.772,47.803,36.597,46.788,36.162z"/>
	<path d="M12,30h-2c-1.104,0-2,0.896-2,2s0.896,2,2,2h2c1.104,0,2-0.896,2-2S13.104,30,12,30z"/>
	<path d="M50,32c0,1.104,0.896,2,2,2h2c1.104,0,2-0.896,2-2s-0.896-2-2-2h-2C50.896,30,50,30.896,50,32z"/>
	<path d="M32,50c-1.104,0-2,0.896-2,2v2c0,1.104,0.896,2,2,2s2-0.896,2-2v-2C34,50.896,33.104,50,32,50z"/>
</g>
</svg>
