<?xml version="1.0" encoding="utf-8"?>
<!-- Generator: Adobe Illustrator 16.0.0, SVG Export Plug-In . SVG Version: 6.00 Build 0)  -->
<!DOCTYPE svg PUBLIC "-//W3C//DTD SVG 1.1//EN" "http://www.w3.org/Graphics/SVG/1.1/DTD/svg11.dtd">
<svg version="1.1" id="Ebene_1" xmlns="http://www.w3.org/2000/svg" xmlns:xlink="http://www.w3.org/1999/xlink" x="0px" y="0px"
	 width="64px" height="64px" viewBox="0 0 64 64" enable-background="new 0 0 64 64" xml:space="preserve">
<g>
	<path d="M55.926,32.186C55,20.901,45.52,12,34,12c-10.224,0-19.043,6.635-21.591,16H12C5.383,28,0,33.383,0,40s5.383,12,12,12h42
		c5.514,0,10-4.486,10-10C64,37.145,60.521,33.086,55.926,32.186z M54,48H12c-4.411,0-8-3.589-8-8s3.589-8,8-8h2
		c0.962,0,1.788-0.685,1.966-1.63C17.53,22.043,25.115,16,34,16c9.925,0,18,8.075,18,18c0,1.104,0.896,2,2,2c3.309,0,6,2.691,6,6
		S57.309,48,54,48z"/>
	<path d="M39.414,28.586c-0.781-0.781-2.047-0.781-2.828,0L33,32.172l-3.586-3.586c-0.781-0.781-2.047-0.781-2.828,0
		c-0.781,0.781-0.781,2.047,0,2.828L30.172,35l-3.586,3.586c-0.781,0.781-0.781,2.047,0,2.828C26.977,41.805,27.488,42,28,42
		s1.023-0.195,1.414-0.586L33,37.828l3.586,3.586C36.977,41.805,37.488,42,38,42s1.023-0.195,1.414-0.586
		c0.781-0.781,0.781-2.047,0-2.828L35.828,35l3.586-3.586C40.195,30.633,40.195,29.367,39.414,28.586z"/>
</g>
</svg>
