<svg xmlns="http://www.w3.org/2000/svg" width="64" height="64"><path d="M55.926 32.186C55 20.901 45.52 12 34 12c-10.224 0-19.043 6.635-21.591 16H12C5.383 28 0 33.383 0 40s5.383 12 12 12h42c5.514 0 10-4.486 10-10 0-4.855-3.479-8.914-8.074-9.814zM54 48H12c-4.411 0-8-3.589-8-8s3.589-8 8-8h2a2 2 0 0 0 1.966-1.63C17.53 22.043 25.115 16 34 16c9.925 0 18 8.075 18 18a2 2 0 0 0 2 2c3.309 0 6 2.691 6 6s-2.691 6-6 6z"/><path d="M39.414 28.586a2 2 0 0 0-2.828 0L33 32.172l-3.586-3.586a2 2 0 1 0-2.828 2.828L30.172 35l-3.586 3.586a2 2 0 1 0 2.828 2.828L33 37.828l3.586 3.586c.391.391.902.586 1.414.586s1.023-.195 1.414-.586a2 2 0 0 0 0-2.828L35.828 35l3.586-3.586a2 2 0 0 0 0-2.828z"/></svg>