<?xml version="1.0" encoding="utf-8"?>
<!-- Generator: Adobe Illustrator 16.0.0, SVG Export Plug-In . SVG Version: 6.00 Build 0)  -->
<!DOCTYPE svg PUBLIC "-//W3C//DTD SVG 1.1//EN" "http://www.w3.org/Graphics/SVG/1.1/DTD/svg11.dtd">
<svg version="1.1" id="Ebene_1" xmlns="http://www.w3.org/2000/svg" xmlns:xlink="http://www.w3.org/1999/xlink" x="0px" y="0px"
	 width="64px" height="64px" viewBox="0 0 64 64" enable-background="new 0 0 64 64" xml:space="preserve">
<g>
	<path d="M32,60c1.104,0,2-0.896,2-2V30.829l4.586,4.585C38.977,35.805,39.488,36,40,36s1.023-0.195,1.414-0.586
		c0.781-0.781,0.781-2.047,0-2.828l-8-8c-0.781-0.781-2.047-0.781-2.828,0l-8,8c-0.781,0.781-0.781,2.047,0,2.828
		c0.781,0.781,2.047,0.781,2.828,0L30,30.829V58C30,59.104,30.896,60,32,60z"/>
	<path d="M55.926,24.186C55,12.901,45.52,4,34,4c-10.224,0-19.043,6.635-21.591,16H12C5.383,20,0,25.383,0,32s5.383,12,12,12h12
		c1.104,0,2-0.896,2-2s-0.896-2-2-2H12c-4.411,0-8-3.589-8-8s3.589-8,8-8h2c0.962,0,1.788-0.685,1.966-1.63
		C17.53,14.043,25.115,8,34,8c9.925,0,18,8.075,18,18c0,1.104,0.896,2,2,2c3.309,0,6,2.691,6,6s-2.691,6-6,6H40
		c-1.104,0-2,0.896-2,2s0.896,2,2,2h14c5.514,0,10-4.486,10-10C64,29.145,60.521,25.086,55.926,24.186z"/>
</g>
</svg>
