<?xml version="1.0" encoding="utf-8"?>
<!-- Generator: Adobe Illustrator 16.0.0, SVG Export Plug-In . SVG Version: 6.00 Build 0)  -->
<!DOCTYPE svg PUBLIC "-//W3C//DTD SVG 1.1//EN" "http://www.w3.org/Graphics/SVG/1.1/DTD/svg11.dtd">
<svg version="1.1" id="Ebene_1" xmlns="http://www.w3.org/2000/svg" xmlns:xlink="http://www.w3.org/1999/xlink" x="0px" y="0px"
	 width="64px" height="64px" viewBox="0 0 64 64" enable-background="new 0 0 64 64" xml:space="preserve">
<g>
	<path d="M12,52h42c5.514,0,10-4.486,10-10c0-4.855-3.479-8.914-8.074-9.814C55,20.901,45.52,12,34,12
		c-10.224,0-19.043,6.635-21.591,16H12C5.383,28,0,33.383,0,40S5.383,52,12,52z M12,32h2c0.962,0,1.788-0.685,1.966-1.63
		C17.53,22.043,25.115,16,34,16c9.925,0,18,8.075,18,18c0,1.104,0.896,2,2,2c3.309,0,6,2.691,6,6s-2.691,6-6,6H12
		c-4.411,0-8-3.589-8-8S7.589,32,12,32z"/>
	<path d="M28.586,41.414C28.977,41.805,29.488,42,30,42s1.023-0.195,1.414-0.586l10-10c0.781-0.781,0.781-2.047,0-2.828
		c-0.781-0.781-2.047-0.781-2.828,0L30,37.171l-4.586-4.585c-0.781-0.781-2.047-0.781-2.828,0c-0.781,0.781-0.781,2.047,0,2.828
		L28.586,41.414z"/>
</g>
</svg>
