<svg xmlns="http://www.w3.org/2000/svg" width="64" height="64" viewBox="0 0 64 64"><path d="M12 52h42c5.514 0 10-4.486 10-10 0-4.855-3.479-8.914-8.074-9.814C55 20.901 45.52 12 34 12c-10.224 0-19.043 6.635-21.591 16H12C5.383 28 0 33.383 0 40s5.383 12 12 12zm0-20h2a2 2 0 0 0 1.966-1.63C17.53 22.043 25.115 16 34 16c9.925 0 18 8.075 18 18a2 2 0 0 0 2 2c3.309 0 6 2.691 6 6s-2.691 6-6 6H12c-4.411 0-8-3.589-8-8s3.589-8 8-8z"/><path d="M28.586 41.414c.391.391.902.586 1.414.586s1.023-.195 1.414-.586l10-10a2 2 0 1 0-2.828-2.828L30 37.171l-4.586-4.585a2 2 0 1 0-2.828 2.828l6 6z"/></svg>