<?xml version="1.0" encoding="utf-8"?>
<!-- Generator: Adobe Illustrator 16.0.0, SVG Export Plug-In . SVG Version: 6.00 Build 0)  -->
<!DOCTYPE svg PUBLIC "-//W3C//DTD SVG 1.1//EN" "http://www.w3.org/Graphics/SVG/1.1/DTD/svg11.dtd">
<svg version="1.1" id="Ebene_1" xmlns="http://www.w3.org/2000/svg" xmlns:xlink="http://www.w3.org/1999/xlink" x="0px" y="0px"
	 width="64px" height="64px" viewBox="0 0 64 64" enable-background="new 0 0 64 64" xml:space="preserve">
<g>
	<path d="M4.122,8.312C3.833,9.1,4.067,9.985,4.708,10.527L30,31.928V60H19c-1.104,0-2,0.896-2,2s0.896,2,2,2h26
		c1.104,0,2-0.896,2-2s-0.896-2-2-2H34V31.928l25.292-21.401c0.641-0.542,0.875-1.427,0.586-2.215S58.839,7,58,7H43.828l3.586-3.586
		c0.781-0.781,0.781-2.047,0-2.828c-0.781-0.781-2.047-0.781-2.828,0l-6,6C38.46,6.712,38.362,6.853,38.276,7H6
		C5.161,7,4.411,7.524,4.122,8.312z M52.54,11L32,28.38L11.46,11H52.54z"/>
</g>
</svg>
