<svg xmlns="http://www.w3.org/2000/svg" width="64" height="64"><path d="M10 26v28c0 3.459 2.09 10 10 10h16c7.91 0 10-6.541 10-10v-2h6a2 2 0 0 0 2-2V34a2 2 0 0 0-2-2h-6v-6a2 2 0 0 0-2-2H12a2 2 0 0 0-2 2zm40 10v12h-4V36h4zm-36-8h28v25.989C41.989 54.993 41.646 60 36 60H20c-5.646 0-5.989-5.007-6-6V28zM17 12a2 2 0 0 0-2 2v4a2 2 0 0 0 4 0v-2h8a2 2 0 0 0 2-2V8a2 2 0 0 0-2-2h-5V2a2 2 0 0 0-4 0v6a2 2 0 0 0 2 2h5v2h-8zM33 12a2 2 0 0 0-2 2v4a2 2 0 0 0 4 0v-2h8a2 2 0 0 0 2-2V6a2 2 0 0 0-2-2h-5V2a2 2 0 0 0-4 0v4a2 2 0 0 0 2 2h5v4h-8z"/></svg>