<?xml version="1.0" encoding="utf-8"?>
<!-- Generator: Adobe Illustrator 16.0.0, SVG Export Plug-In . SVG Version: 6.00 Build 0)  -->
<!DOCTYPE svg PUBLIC "-//W3C//DTD SVG 1.1//EN" "http://www.w3.org/Graphics/SVG/1.1/DTD/svg11.dtd">
<svg version="1.1" id="Ebene_1" xmlns="http://www.w3.org/2000/svg" xmlns:xlink="http://www.w3.org/1999/xlink" x="0px" y="0px"
	 width="64px" height="64px" viewBox="0 0 64 64" enable-background="new 0 0 64 64" xml:space="preserve">
<g>
	<path d="M17.172,24H12c-1.104,0-2,0.896-2,2s0.896,2,2,2h12V16c0-1.104-0.896-2-2-2s-2,0.896-2,2v5.172L3.414,4.586
		c-0.78-0.781-2.048-0.781-2.828,0c-0.781,0.781-0.781,2.047,0,2.828L17.172,24z"/>
	<path d="M46.828,40H52c1.104,0,2-0.896,2-2s-0.896-2-2-2H40v12c0,1.104,0.896,2,2,2s2-0.896,2-2v-5.172l16.586,16.586
		C60.976,59.805,61.488,60,62,60s1.024-0.195,1.414-0.586c0.781-0.781,0.781-2.047,0-2.828L46.828,40z"/>
	<path d="M2,60c0.512,0,1.024-0.195,1.414-0.586L20,42.828V48c0,1.104,0.896,2,2,2s2-0.896,2-2V36H12c-1.104,0-2,0.896-2,2
		s0.896,2,2,2h5.172L0.586,56.586c-0.781,0.781-0.781,2.047,0,2.828C0.976,59.805,1.488,60,2,60z"/>
	<path d="M60.586,4.586L44,21.172V16c0-1.104-0.896-2-2-2s-2,0.896-2,2v12h12c1.104,0,2-0.896,2-2s-0.896-2-2-2h-5.172L63.414,7.414
		c0.781-0.781,0.781-2.047,0-2.828C62.634,3.805,61.366,3.805,60.586,4.586z"/>
</g>
</svg>
