<svg xmlns="http://www.w3.org/2000/svg" width="64" height="64"><path d="M17.172 24H12a2 2 0 0 0 0 4h12V16a2 2 0 0 0-4 0v5.172L3.414 4.586A2 2 0 1 0 .586 7.414L17.172 24zM46.828 40H52a2 2 0 0 0 0-4H40v12a2 2 0 0 0 4 0v-5.172l16.586 16.586c.39.391.902.586 1.414.586s1.024-.195 1.414-.586a2 2 0 0 0 0-2.828L46.828 40zM2 60a1.99 1.99 0 0 0 1.414-.586L20 42.828V48a2 2 0 0 0 4 0V36H12a2 2 0 0 0 0 4h5.172L.586 56.586A2 2 0 0 0 2 60zM60.586 4.586L44 21.172V16a2 2 0 0 0-4 0v12h12a2 2 0 0 0 0-4h-5.172L63.414 7.414a2 2 0 1 0-2.828-2.828z"/></svg>