<?xml version="1.0" encoding="utf-8"?>
<!-- Generator: Adobe Illustrator 16.0.0, SVG Export Plug-In . SVG Version: 6.00 Build 0)  -->
<!DOCTYPE svg PUBLIC "-//W3C//DTD SVG 1.1//EN" "http://www.w3.org/Graphics/SVG/1.1/DTD/svg11.dtd">
<svg version="1.1" id="Ebene_1" xmlns="http://www.w3.org/2000/svg" xmlns:xlink="http://www.w3.org/1999/xlink" x="0px" y="0px"
	 width="64px" height="64px" viewBox="0 0 64 64" enable-background="new 0 0 64 64" xml:space="preserve">
<g>
	<path d="M8,0C6.896,0,6,0.896,6,2v16c0,0.861,0.551,1.625,1.368,1.897L12,21.441V62c0,1.104,0.896,2,2,2s2-0.896,2-2V21.441
		l4.632-1.544C21.449,19.625,22,18.861,22,18V2c0-1.104-0.896-2-2-2s-2,0.896-2,2v14.559l-2,0.667V2c0-1.104-0.896-2-2-2
		s-2,0.896-2,2v15.225l-2-0.667V2C10,0.896,9.104,0,8,0z"/>
	<path d="M34,64c1.104,0,2-0.896,2-2V37.042c0-0.029,0-0.058,0-0.087V2c0-1.104-0.896-2-2-2h-4c-1.012,0-1.864,0.755-1.985,1.759
		l-4,33c-0.122,1.001,0.522,1.937,1.5,2.181L32,38.562V62C32,63.104,32.896,64,34,64z M28.198,33.488L31.772,4H32v30.438
		L28.198,33.488z"/>
	<path d="M49,64c1.104,0,2-0.896,2-2V23.721c4.115-1.138,7-5.635,7-9.721c0-4.276-3.4-14-9-14s-9,9.724-9,14
		c0,4.085,2.885,8.583,7,9.721V62C47,63.104,47.896,64,49,64z M44,14c0-4.121,3.234-10,5-10s5,5.879,5,10c0,2.718-2.23,6-5,6
		S44,16.718,44,14z"/>
</g>
</svg>
