<svg xmlns="http://www.w3.org/2000/svg" width="64" height="64" viewBox="0 0 64 64"><path d="M8 0a2 2 0 0 0-2 2v16a2 2 0 0 0 1.368 1.897L12 21.441V62a2 2 0 0 0 4 0V21.441l4.632-1.544A2 2 0 0 0 22 18V2a2 2 0 0 0-4 0v14.559l-2 .667V2a2 2 0 0 0-4 0v15.225l-2-.667V2a2 2 0 0 0-2-2zM34 64a2 2 0 0 0 2-2V37.042 2a2 2 0 0 0-2-2h-4a1.998 1.998 0 0 0-1.985 1.759l-4 33a2 2 0 0 0 1.5 2.181L32 38.562V62a2 2 0 0 0 2 2zm-5.802-30.512L31.772 4H32v30.438l-3.802-.95zM49 64a2 2 0 0 0 2-2V23.721c4.115-1.138 7-5.635 7-9.721 0-4.276-3.4-14-9-14s-9 9.724-9 14c0 4.085 2.885 8.583 7 9.721V62a2 2 0 0 0 2 2zm-5-50c0-4.121 3.234-10 5-10s5 5.879 5 10c0 2.718-2.23 6-5 6s-5-3.282-5-6z"/></svg>