<svg xmlns="http://www.w3.org/2000/svg" width="64" height="64"><path d="M17.586 46.414c.391.391.902.586 1.414.586s1.023-.195 1.414-.586L32 34.828l11.586 11.586c.391.391.902.586 1.414.586s1.023-.195 1.414-.586a2 2 0 0 0 0-2.828L34.828 32l11.586-11.586a2 2 0 1 0-2.828-2.828L32 29.172 20.414 17.586a2 2 0 1 0-2.828 2.828L29.172 32 17.586 43.586a2 2 0 0 0 0 2.828z"/><path d="M32 64c8.547 0 16.583-3.329 22.626-9.373C60.671 48.583 64 40.547 64 32s-3.329-16.583-9.374-22.626C48.583 3.329 40.547 0 32 0S15.417 3.329 9.374 9.373C3.329 15.417 0 23.453 0 32s3.329 16.583 9.374 22.626C15.417 60.671 23.453 64 32 64zM12.202 12.202C17.49 6.913 24.521 4 32 4s14.51 2.913 19.798 8.202C57.087 17.49 60 24.521 60 32s-2.913 14.51-8.202 19.798C46.51 57.087 39.479 60 32 60s-14.51-2.913-19.798-8.202C6.913 46.51 4 39.479 4 32s2.913-14.51 8.202-19.798z"/></svg>