<svg xmlns="http://www.w3.org/2000/svg" width="64" height="64"><path d="M0 52a2 2 0 0 0 2 2h60a2 2 0 0 0 2-2V16a2 2 0 0 0-2-2H30.829l-7.415-7.414A2 2 0 0 0 22 6H2a2 2 0 0 0-2 2v44zm4-42h17.171l7.415 7.414A2 2 0 0 0 30 18h30v32H4V10z"/><path d="M41.414 24.586a2 2 0 0 0-2.828 0L32 31.172l-6.586-6.586a2 2 0 1 0-2.828 2.828L29.172 34l-6.586 6.586a2 2 0 1 0 2.828 2.828L32 36.828l6.586 6.586c.39.391.902.586 1.414.586s1.024-.195 1.414-.586a2 2 0 0 0 0-2.828L34.828 34l6.586-6.586a2 2 0 0 0 0-2.828z"/></svg>