<?xml version="1.0" encoding="utf-8"?>
<!-- Generator: Adobe Illustrator 16.0.0, SVG Export Plug-In . SVG Version: 6.00 Build 0)  -->
<!DOCTYPE svg PUBLIC "-//W3C//DTD SVG 1.1//EN" "http://www.w3.org/Graphics/SVG/1.1/DTD/svg11.dtd">
<svg version="1.1" id="Ebene_1" xmlns="http://www.w3.org/2000/svg" xmlns:xlink="http://www.w3.org/1999/xlink" x="0px" y="0px"
	 width="64px" height="64px" viewBox="0 0 64 64" enable-background="new 0 0 64 64" xml:space="preserve">
<g>
	<path d="M0,52c0,1.104,0.896,2,2,2h60c1.104,0,2-0.896,2-2V16c0-1.104-0.896-2-2-2H30.829l-7.415-7.414C23.039,6.211,22.53,6,22,6
		H2C0.896,6,0,6.896,0,8V52z M4,10h17.171l7.415,7.414C28.961,17.789,29.47,18,30,18h30v32H4V10z"/>
	<path d="M41.414,24.586c-0.78-0.781-2.048-0.781-2.828,0L32,31.172l-6.586-6.586c-0.78-0.781-2.048-0.781-2.828,0
		c-0.781,0.781-0.781,2.047,0,2.828L29.172,34l-6.586,6.586c-0.781,0.781-0.781,2.047,0,2.828C22.976,43.805,23.488,44,24,44
		s1.024-0.195,1.414-0.586L32,36.828l6.586,6.586C38.976,43.805,39.488,44,40,44s1.024-0.195,1.414-0.586
		c0.781-0.781,0.781-2.047,0-2.828L34.828,34l6.586-6.586C42.195,26.633,42.195,25.367,41.414,24.586z"/>
</g>
</svg>
