<svg xmlns="http://www.w3.org/2000/svg" viewBox="0 0 64 64"><path d="M32 32c3.309 0 6-2.691 6-6s-2.691-6-6-6-6 2.691-6 6 2.691 6 6 6zm0-8c1.103 0 2 .897 2 2s-.897 2-2 2-2-.897-2-2 .897-2 2-2zM16 32c3.309 0 6-2.691 6-6s-2.691-6-6-6-6 2.691-6 6 2.691 6 6 6zm0-8c1.103 0 2 .897 2 2s-.897 2-2 2-2-.897-2-2 .897-2 2-2zM48 32c3.309 0 6-2.691 6-6s-2.691-6-6-6-6 2.691-6 6 2.691 6 6 6zm0-8c1.103 0 2 .897 2 2s-.897 2-2 2-2-.897-2-2 .897-2 2-2z"/><path d="M62 3H2a2 2 0 00-2 2v42a2 2 0 002 2h14v10a2 2 0 003.302 1.519L32.74 49H62a2 2 0 002-2V5a2 2 0 00-2-2zm-2 42H32c-.478 0-.939.171-1.302.481L20 54.651V47a2 2 0 00-2-2H4V7h56v38z"/></svg>