<svg xmlns="http://www.w3.org/2000/svg" width="64" height="64" viewBox="0 0 64 64"><path d="M32.001 38c4.112 0 8-3.888 8-8a2 2 0 0 0-4 0c0 1.907-2.093 4-4 4s-4-2.093-4-4a2 2 0 0 0-4 0c0 4.112 3.888 8 8 8zM22 22a1.998 1.998 0 0 0 2-2c0-.53-.21-1.04-.58-1.41-.75-.75-2.09-.75-2.84 0-.37.37-.58.88-.58 1.41 0 .53.21 1.04.59 1.41.37.38.89.59 1.41.59zM42 22c.52 0 1.04-.21 1.41-.59.38-.37.59-.88.59-1.41 0-.53-.21-1.04-.59-1.41-.74-.75-2.08-.75-2.82 0-.38.37-.59.88-.59 1.41 0 .53.21 1.04.59 1.41.37.38.88.59 1.41.59z"/><path d="M0 47a2 2 0 0 0 2 2h14v10a2 2 0 0 0 3.302 1.519L32.74 49H62a2 2 0 0 0 2-2V5a2 2 0 0 0-2-2H2a2 2 0 0 0-2 2v42zM4 7h56v38H32c-.478 0-.939.171-1.302.481L20 54.651V47a2 2 0 0 0-2-2H4V7z"/></svg>