<?xml version="1.0" encoding="utf-8"?>
<!-- Generator: Adobe Illustrator 16.0.0, SVG Export Plug-In . SVG Version: 6.00 Build 0)  -->
<!DOCTYPE svg PUBLIC "-//W3C//DTD SVG 1.1//EN" "http://www.w3.org/Graphics/SVG/1.1/DTD/svg11.dtd">
<svg version="1.1" id="Ebene_1" xmlns="http://www.w3.org/2000/svg" xmlns:xlink="http://www.w3.org/1999/xlink" x="0px" y="0px"
	 width="64px" height="64px" viewBox="0 0 64 64" enable-background="new 0 0 64 64" xml:space="preserve">
<g>
	<path d="M32.001,38c4.112,0,8-3.888,8-8c0-1.104-0.896-2-2-2s-2,0.896-2,2c0,1.907-2.093,4-4,4s-4-2.093-4-4c0-1.104-0.896-2-2-2
		s-2,0.896-2,2C24.001,34.112,27.889,38,32.001,38z"/>
	<path d="M22,22c0.53,0,1.04-0.21,1.42-0.59C23.79,21.04,24,20.53,24,20c0-0.53-0.21-1.04-0.58-1.41c-0.75-0.75-2.09-0.75-2.84,0
		C20.21,18.96,20,19.47,20,20c0,0.53,0.21,1.04,0.59,1.41C20.96,21.79,21.48,22,22,22z"/>
	<path d="M42,22c0.52,0,1.04-0.21,1.41-0.59C43.79,21.04,44,20.53,44,20c0-0.53-0.21-1.04-0.59-1.41c-0.74-0.75-2.08-0.75-2.82,0
		C40.21,18.96,40,19.47,40,20c0,0.53,0.21,1.04,0.59,1.41C40.96,21.79,41.47,22,42,22z"/>
	<path d="M0,47c0,1.104,0.896,2,2,2h14v10c0,0.781,0.455,1.491,1.164,1.817C17.432,60.94,17.716,61,18,61
		c0.469,0,0.933-0.165,1.302-0.481L32.74,49H62c1.104,0,2-0.896,2-2V5c0-1.104-0.896-2-2-2H2C0.896,3,0,3.896,0,5V47z M4,7h56v38H32
		c-0.478,0-0.939,0.171-1.302,0.481L20,54.651V47c0-1.104-0.896-2-2-2H4V7z"/>
</g>
</svg>
