<svg xmlns="http://www.w3.org/2000/svg" viewBox="0 0 64 64"><path d="M62 3H2a2 2 0 00-2 2v42a2 2 0 002 2h14v10a2 2 0 003.302 1.519L32.74 49H62a2 2 0 002-2V5a2 2 0 00-2-2zm-2 42H32c-.478 0-.939.171-1.302.481L20 54.651V47a2 2 0 00-2-2H4V7h56v38z"/><path d="M23.586 34.414c.391.391.902.586 1.414.586s1.023-.195 1.414-.586L32 28.828l5.586 5.586c.391.391.902.586 1.414.586s1.023-.195 1.414-.586a2 2 0 000-2.828L34.828 26l5.586-5.586a2 2 0 10-2.828-2.828L32 23.172l-5.586-5.586a2 2 0 10-2.828 2.828L29.172 26l-5.586 5.586a2 2 0 000 2.828z"/></svg>