<svg xmlns="http://www.w3.org/2000/svg" width="64" height="64"><path d="M25 60c13.785 0 25-11.215 25-25S38.785 10 25 10 0 21.215 0 35s11.215 25 25 25zm0-46c11.58 0 21 9.42 21 21s-9.42 21-21 21S4 46.58 4 35s9.42-21 21-21z"/><path d="M25 52c9.374 0 17-7.626 17-17s-7.626-17-17-17S8 25.626 8 35s7.626 17 17 17zm0-30c7.168 0 13 5.832 13 13s-5.832 13-13 13-13-5.832-13-13 5.832-13 13-13zM55 64a2 2 0 0 0 2-2V23.721c4.115-1.138 7-5.635 7-9.721 0-4.276-3.4-14-9-14s-9 9.724-9 14c0 4.085 2.885 8.583 7 9.721V62a2 2 0 0 0 2 2zm-5-50c0-4.121 3.234-10 5-10s5 5.879 5 10c0 2.718-2.23 6-5 6s-5-3.282-5-6z"/></svg>