<?xml version="1.0" encoding="utf-8"?>
<!-- Generator: Adobe Illustrator 16.0.0, SVG Export Plug-In . SVG Version: 6.00 Build 0)  -->
<!DOCTYPE svg PUBLIC "-//W3C//DTD SVG 1.1//EN" "http://www.w3.org/Graphics/SVG/1.1/DTD/svg11.dtd">
<svg version="1.1" id="Ebene_1" xmlns="http://www.w3.org/2000/svg" xmlns:xlink="http://www.w3.org/1999/xlink" x="0px" y="0px"
	 width="64px" height="64px" viewBox="0 0 64 64" enable-background="new 0 0 64 64" xml:space="preserve">
<g>
	<path d="M25,60c13.785,0,25-11.215,25-25S38.785,10,25,10S0,21.215,0,35S11.215,60,25,60z M25,14c11.58,0,21,9.42,21,21
		s-9.42,21-21,21S4,46.58,4,35S13.42,14,25,14z"/>
	<path d="M25,52c9.374,0,17-7.626,17-17s-7.626-17-17-17S8,25.626,8,35S15.626,52,25,52z M25,22c7.168,0,13,5.832,13,13
		s-5.832,13-13,13s-13-5.832-13-13S17.832,22,25,22z"/>
	<path d="M55,64c1.104,0,2-0.896,2-2V23.721c4.115-1.138,7-5.635,7-9.721c0-4.276-3.4-14-9-14s-9,9.724-9,14
		c0,4.085,2.885,8.583,7,9.721V62C53,63.104,53.896,64,55,64z M50,14c0-4.121,3.234-10,5-10s5,5.879,5,10c0,2.718-2.23,6-5,6
		S50,16.718,50,14z"/>
</g>
</svg>
