<?xml version="1.0" encoding="utf-8"?>
<!-- Generator: Adobe Illustrator 16.0.0, SVG Export Plug-In . SVG Version: 6.00 Build 0)  -->
<!DOCTYPE svg PUBLIC "-//W3C//DTD SVG 1.1//EN" "http://www.w3.org/Graphics/SVG/1.1/DTD/svg11.dtd">
<svg version="1.1" id="Ebene_1" xmlns="http://www.w3.org/2000/svg" xmlns:xlink="http://www.w3.org/1999/xlink" x="0px" y="0px"
	 width="64px" height="64px" viewBox="0 0 64 64" enable-background="new 0 0 64 64" xml:space="preserve">
<g>
	<path d="M0,46c0,1.104,0.896,2,2,2h22c1.104,0,2-0.896,2-2s-0.896-2-2-2H4V4h17.171l7.415,7.414C28.961,11.789,29.47,12,30,12h30
		v32H40c-1.104,0-2,0.896-2,2s0.896,2,2,2h22c1.104,0,2-0.896,2-2V10c0-1.104-0.896-2-2-2H30.829l-7.415-7.414
		C23.039,0.211,22.53,0,22,0H2C0.896,0,0,0.896,0,2V46z"/>
	<path d="M32,28c-1.104,0-2,0.896-2,2v27.171l-4.586-4.585c-0.78-0.781-2.048-0.781-2.828,0c-0.781,0.781-0.781,2.047,0,2.828l8,8
		C30.976,63.805,31.488,64,32,64s1.024-0.195,1.414-0.586l8-8c0.781-0.781,0.781-2.047,0-2.828c-0.78-0.781-2.048-0.781-2.828,0
		L34,57.171V30C34,28.896,33.104,28,32,28z"/>
</g>
</svg>
