<svg xmlns="http://www.w3.org/2000/svg" width="64" height="64"><path d="M2 24a2 2 0 0 0 2-2V10.828l17.586 17.586c.39.391.902.586 1.414.586s1.024-.195 1.414-.586a2 2 0 0 0 0-2.828L6.828 8H18a2 2 0 0 0 0-4H2a2 2 0 0 0-2 2v16a2 2 0 0 0 2 2zM2 60h16a2 2 0 0 0 0-4H6.828l17.586-17.586a2 2 0 1 0-2.828-2.828L4 53.172V42a2 2 0 0 0-4 0v16a2 2 0 0 0 2 2zM62 40a2 2 0 0 0-2 2v11.172L42.414 35.586a2 2 0 1 0-2.828 2.828L57.172 56H46a2 2 0 0 0 0 4h16a2 2 0 0 0 2-2V42a2 2 0 0 0-2-2zM62 4H46a2 2 0 0 0 0 4h11.172L39.586 25.586a2 2 0 1 0 2.828 2.828L60 10.828V22a2 2 0 0 0 4 0V6a2 2 0 0 0-2-2z"/></svg>