<?xml version="1.0" encoding="utf-8"?>
<!-- Generator: Adobe Illustrator 16.0.0, SVG Export Plug-In . SVG Version: 6.00 Build 0)  -->
<!DOCTYPE svg PUBLIC "-//W3C//DTD SVG 1.1//EN" "http://www.w3.org/Graphics/SVG/1.1/DTD/svg11.dtd">
<svg version="1.1" id="Ebene_1" xmlns="http://www.w3.org/2000/svg" xmlns:xlink="http://www.w3.org/1999/xlink" x="0px" y="0px"
	 width="64px" height="64px" viewBox="0 0 64 64" enable-background="new 0 0 64 64" xml:space="preserve">
<g>
	<path d="M2,24c1.104,0,2-0.896,2-2V10.828l17.586,17.586C21.976,28.805,22.488,29,23,29s1.024-0.195,1.414-0.586
		c0.781-0.781,0.781-2.047,0-2.828L6.828,8H18c1.104,0,2-0.896,2-2s-0.896-2-2-2H2C0.896,4,0,4.896,0,6v16C0,23.104,0.896,24,2,24z"
		/>
	<path d="M2,60h16c1.104,0,2-0.896,2-2s-0.896-2-2-2H6.828l17.586-17.586c0.781-0.781,0.781-2.047,0-2.828
		c-0.78-0.781-2.048-0.781-2.828,0L4,53.172V42c0-1.104-0.896-2-2-2s-2,0.896-2,2v16C0,59.104,0.896,60,2,60z"/>
	<path d="M62,40c-1.104,0-2,0.896-2,2v11.172L42.414,35.586c-0.78-0.781-2.048-0.781-2.828,0c-0.781,0.781-0.781,2.047,0,2.828
		L57.172,56H46c-1.104,0-2,0.896-2,2s0.896,2,2,2h16c1.104,0,2-0.896,2-2V42C64,40.896,63.104,40,62,40z"/>
	<path d="M62,4H46c-1.104,0-2,0.896-2,2s0.896,2,2,2h11.172L39.586,25.586c-0.781,0.781-0.781,2.047,0,2.828
		C39.976,28.805,40.488,29,41,29s1.024-0.195,1.414-0.586L60,10.828V22c0,1.104,0.896,2,2,2s2-0.896,2-2V6C64,4.896,63.104,4,62,4z"
		/>
</g>
</svg>
