<svg xmlns="http://www.w3.org/2000/svg" width="64" height="64" viewBox="0 0 64 64"><path d="M32 15C11.169 15 .769 30.242.336 30.891a2 2 0 0 0 0 2.219C.769 33.758 11.169 49 32 49s31.231-15.242 31.664-15.891a2 2 0 0 0 0-2.219C63.231 30.242 52.831 15 32 15zm0 30C16.493 45 7.234 35.322 4.512 31.996 7.225 28.663 16.436 19 32 19c15.507 0 24.766 9.678 27.488 13.004C56.775 35.337 47.564 45 32 45z"/><path d="M32 23c-4.963 0-9 4.038-9 9s4.037 9 9 9 9-4.038 9-9-4.037-9-9-9zm0 14c-2.757 0-5-2.243-5-5s2.243-5 5-5 5 2.243 5 5-2.243 5-5 5z"/></svg>