<svg xmlns="http://www.w3.org/2000/svg" width="64" height="64" viewBox="0 0 64 64"><path d="M42 55v-8a2 2 0 0 0-2-2H2a2 2 0 0 0-2 2v8a2 2 0 0 0 2 2h38a2 2 0 0 0 2-2zm-4-2H4v-4h34v4zM6 39a2 2 0 0 0 0 4h30a2 2 0 0 0 0-4H6zM2 37h38a2 2 0 0 0 2-2c0-.14-.24-14-21-14S0 34.86 0 35a2 2 0 0 0 2 2zm19-12c12.068 0 15.57 5.068 16.585 8H4.415C5.43 30.068 8.932 25 21 25zM62 17H51.694L49.973 6.671a2 2 0 1 0-3.945.657L47.639 17H46a2 2 0 0 0-1.997 2.11l2 36A2 2 0 0 0 48 57h12a2 2 0 0 0 1.997-1.889l2-36A2.003 2.003 0 0 0 62 17zm-3.892 36h-8.216l-1.778-32H59.885l-1.777 32z"/></svg>