<?xml version="1.0" encoding="utf-8"?>
<!-- Generator: Adobe Illustrator 16.0.0, SVG Export Plug-In . SVG Version: 6.00 Build 0)  -->
<!DOCTYPE svg PUBLIC "-//W3C//DTD SVG 1.1//EN" "http://www.w3.org/Graphics/SVG/1.1/DTD/svg11.dtd">
<svg version="1.1" id="Ebene_1" xmlns="http://www.w3.org/2000/svg" xmlns:xlink="http://www.w3.org/1999/xlink" x="0px" y="0px"
	 width="64px" height="64px" viewBox="0 0 64 64" enable-background="new 0 0 64 64" xml:space="preserve">
<g>
	<path d="M42,55v-8c0-1.104-0.896-2-2-2H2c-1.104,0-2,0.896-2,2v8c0,1.104,0.896,2,2,2h38C41.104,57,42,56.104,42,55z M38,53H4v-4
		h34V53z"/>
	<path d="M6,39c-1.104,0-2,0.896-2,2s0.896,2,2,2h30c1.104,0,2-0.896,2-2s-0.896-2-2-2H6z"/>
	<path d="M2,37h38c1.104,0,2-0.896,2-2c0-0.14-0.24-14-21-14S0,34.86,0,35C0,36.104,0.896,37,2,37z M21,25
		c12.068,0,15.57,5.068,16.585,8H4.415C5.43,30.068,8.932,25,21,25z"/>
	<path d="M62,17H51.694L49.973,6.671c-0.181-1.09-1.214-1.822-2.301-1.644c-1.09,0.182-1.826,1.212-1.644,2.301L47.639,17H46
		c-0.55,0-1.075,0.226-1.453,0.625c-0.377,0.399-0.574,0.937-0.544,1.485l2,36C46.062,56.171,46.938,57,48,57h12
		c1.062,0,1.938-0.829,1.997-1.889l2-36c0.03-0.549-0.167-1.086-0.544-1.485C63.075,17.226,62.55,17,62,17z M58.108,53h-8.216
		l-1.778-32h1.878c0.002,0,0.003,0,0.005,0s0.004,0,0.006,0h9.882L58.108,53z"/>
</g>
</svg>
