<?xml version="1.0" encoding="utf-8"?>
<!-- Generator: Adobe Illustrator 16.0.0, SVG Export Plug-In . SVG Version: 6.00 Build 0)  -->
<!DOCTYPE svg PUBLIC "-//W3C//DTD SVG 1.1//EN" "http://www.w3.org/Graphics/SVG/1.1/DTD/svg11.dtd">
<svg version="1.1" id="Ebene_1" xmlns="http://www.w3.org/2000/svg" xmlns:xlink="http://www.w3.org/1999/xlink" x="0px" y="0px"
	 width="64px" height="64px" viewBox="0 0 64 64" enable-background="new 0 0 64 64" xml:space="preserve">
<g>
	<path d="M12,0c-1.104,0-2,0.896-2,2v60c0,1.104,0.896,2,2,2s2-0.896,2-2V32h38c0.693,0,1.337-0.359,1.701-0.949
		c0.364-0.589,0.397-1.326,0.088-1.946L48.236,18l5.553-11.105c0.31-0.62,0.276-1.356-0.088-1.946C53.337,4.359,52.693,4,52,4H14V2
		C14,0.896,13.104,0,12,0z M48.764,8l-4.553,9.105c-0.281,0.563-0.281,1.226,0,1.789L48.764,28H14V8H48.764z"/>
</g>
</svg>
