<svg xmlns="http://www.w3.org/2000/svg" width="64" height="64" viewBox="0 0 64 64"><path d="M40 23c0-4.411-3.589-8-8-8s-8 3.589-8 8 3.589 8 8 8 8-3.589 8-8zm-12 0c0-2.206 1.794-4 4-4s4 1.794 4 4-1.794 4-4 4-4-1.794-4-4z"/><path d="M31.966 64c.574 0 1.12-.247 1.5-.677.882-1 21.605-24.682 21.534-40.298C54.942 10.329 44.625 0 32 0 19.317 0 9 10.333 9 23.034c0 15.607 20.585 39.284 21.462 40.284.38.433.898.668 1.504.682zM32 4c10.429 0 18.952 8.543 19 19.043.054 11.824-14.281 30.122-19.029 35.855C27.246 53.161 13 34.872 13 23.034 13 12.539 21.523 4 32 4z"/></svg>