<?xml version="1.0" encoding="utf-8"?>
<!-- Generator: Adobe Illustrator 16.0.0, SVG Export Plug-In . SVG Version: 6.00 Build 0)  -->
<!DOCTYPE svg PUBLIC "-//W3C//DTD SVG 1.1//EN" "http://www.w3.org/Graphics/SVG/1.1/DTD/svg11.dtd">
<svg version="1.1" id="Ebene_1" xmlns="http://www.w3.org/2000/svg" xmlns:xlink="http://www.w3.org/1999/xlink" x="0px" y="0px"
	 width="64px" height="64px" viewBox="0 0 64 64" enable-background="new 0 0 64 64" xml:space="preserve">
<g>
	<path d="M40,23c0-4.411-3.589-8-8-8s-8,3.589-8,8s3.589,8,8,8S40,27.411,40,23z M28,23c0-2.206,1.794-4,4-4s4,1.794,4,4
		s-1.794,4-4,4S28,25.206,28,23z"/>
	<path d="M31.966,64c0.574,0,1.12-0.247,1.5-0.677c0.882-1,21.605-24.682,21.534-40.298C54.942,10.329,44.625,0,32,0
		C19.317,0,9,10.333,9,23.034c0,15.607,20.585,39.284,21.462,40.284C30.842,63.751,31.36,63.986,31.966,64z M32,4
		c10.429,0,18.952,8.543,19,19.043c0.054,11.824-14.281,30.122-19.029,35.855C27.246,53.161,13,34.872,13,23.034
		C13,12.539,21.523,4,32,4z"/>
</g>
</svg>
