<?xml version="1.0" encoding="utf-8"?>
<!-- Generator: Adobe Illustrator 16.0.0, SVG Export Plug-In . SVG Version: 6.00 Build 0)  -->
<!DOCTYPE svg PUBLIC "-//W3C//DTD SVG 1.1//EN" "http://www.w3.org/Graphics/SVG/1.1/DTD/svg11.dtd">
<svg version="1.1" id="Ebene_1" xmlns="http://www.w3.org/2000/svg" xmlns:xlink="http://www.w3.org/1999/xlink" x="0px" y="0px"
	 width="64px" height="64px" viewBox="0 0 64 64" enable-background="new 0 0 64 64" xml:space="preserve">
<g>
	<path d="M62,60H4v-8h4c1.104,0,2-0.896,2-2s-0.896-2-2-2H4v-6c1.104,0,2-0.896,2-2s-0.896-2-2-2v-6h4c1.104,0,2-0.896,2-2
		s-0.896-2-2-2H4v-6c1.104,0,2-0.896,2-2s-0.896-2-2-2v-6h4c1.104,0,2-0.896,2-2S9.104,8,8,8H4V2c0-1.104-0.896-2-2-2S0,0.896,0,2
		v58c0,2.206,1.794,4,4,4h58c1.104,0,2-0.896,2-2S63.104,60,62,60z"/>
	<path d="M31.414,18.586l-10-10c-0.781-0.781-2.047-0.781-2.828,0s-0.781,2.047,0,2.828L27.172,20l-4.586,4.586
		c-0.781,0.781-0.781,2.047,0,2.828L43.172,48H38c-1.104,0-2,0.896-2,2s0.896,2,2,2h10c0.131,0,0.263-0.014,0.392-0.039
		c0.06-0.013,0.115-0.035,0.173-0.052c0.067-0.02,0.135-0.035,0.2-0.062c0.068-0.029,0.131-0.068,0.195-0.104
		c0.05-0.027,0.102-0.049,0.148-0.08c0.22-0.147,0.408-0.336,0.556-0.556c0.031-0.047,0.053-0.099,0.08-0.148
		c0.035-0.064,0.074-0.127,0.104-0.195c0.026-0.065,0.042-0.133,0.062-0.2c0.017-0.058,0.039-0.113,0.052-0.173
		C49.986,50.262,50,50.131,50,50V40c0-1.104-0.896-2-2-2s-2,0.896-2,2v5.172L26.828,26l4.586-4.586
		C32.195,20.633,32.195,19.367,31.414,18.586z"/>
</g>
</svg>
