<svg xmlns="http://www.w3.org/2000/svg" width="64" height="64" viewBox="0 0 64 64"><path d="M62 60H4v-8h4a2 2 0 0 0 0-4H4v-6a2 2 0 0 0 0-4v-6h4a2 2 0 0 0 0-4H4v-6a2 2 0 0 0 0-4v-6h4a2 2 0 0 0 0-4H4V2a2 2 0 0 0-4 0v58c0 2.206 1.794 4 4 4h58a2 2 0 0 0 0-4z"/><path d="M31.414 18.586l-10-10a2 2 0 1 0-2.828 2.828L27.172 20l-4.586 4.586a2 2 0 0 0 0 2.828L43.172 48H38a2 2 0 0 0 0 4h10c.131 0 .263-.014.392-.039.06-.013.115-.035.173-.052.067-.02.135-.035.2-.062.068-.029.131-.068.195-.104.05-.027.102-.049.148-.08a2.03 2.03 0 0 0 .556-.556c.031-.047.053-.099.08-.148.035-.064.074-.127.104-.195.026-.065.042-.133.062-.2.017-.058.039-.113.052-.173A2.14 2.14 0 0 0 50 50V40a2 2 0 0 0-4 0v5.172L26.828 26l4.586-4.586a2 2 0 0 0 0-2.828z"/></svg>