<svg xmlns="http://www.w3.org/2000/svg" width="64" height="64"><path d="M28 44a2 2 0 0 0-4 0c0 4.112 3.888 8 8 8s8-3.888 8-8a2 2 0 0 0-4 0c0 1.907-2.093 4-4 4s-4-2.093-4-4zM23.41 34.59c-.74-.75-2.08-.75-2.82 0-.38.37-.59.88-.59 1.41 0 .53.21 1.04.59 1.41.37.38.88.59 1.41.59.53 0 1.04-.21 1.41-.59.38-.37.59-.88.59-1.41 0-.53-.21-1.04-.59-1.41zM42 38c.53 0 1.04-.21 1.42-.59.37-.37.58-.89.58-1.41s-.21-1.04-.58-1.41c-.75-.75-2.09-.75-2.83 0-.38.37-.59.88-.59 1.41 0 .53.21 1.04.59 1.41.37.38.88.59 1.41.59z"/><path d="M32.038-1h-.003c-.602 0-1.172.271-1.552.739C29.602.821 8.929 26.438 9 42.009 9.057 54.546 18.945 64 32 64c13.112 0 23-9.458 23-22C55 26.438 34.464.826 33.59-.256A1.997 1.997 0 0 0 32.038-1zM32 60c-10.785 0-18.954-7.742-19-18.009-.054-11.824 14.221-31.462 19.029-37.738C36.812 10.537 51 30.173 51 42c0 10.262-8.168 18-19 18z"/></svg>