<?xml version="1.0" encoding="utf-8"?>
<!-- Generator: Adobe Illustrator 16.0.0, SVG Export Plug-In . SVG Version: 6.00 Build 0)  -->
<!DOCTYPE svg PUBLIC "-//W3C//DTD SVG 1.1//EN" "http://www.w3.org/Graphics/SVG/1.1/DTD/svg11.dtd">
<svg version="1.1" id="Ebene_1" xmlns="http://www.w3.org/2000/svg" xmlns:xlink="http://www.w3.org/1999/xlink" x="0px" y="0px"
	 width="64px" height="64px" viewBox="0 0 64 64" enable-background="new 0 0 64 64" xml:space="preserve">
<g>
	<path d="M30.971,60.715L32,61.333l1.029-0.618C34.294,59.956,64,41.892,64,21c0-8.945-5.496-18-16-18
		c-6.957,0-13.005,3.527-16,8.674C29.005,6.527,22.957,3,16,3C5.496,3,0,12.055,0,21C0,41.892,29.706,59.956,30.971,60.715z M48,7
		c8.245,0,12,7.257,12,14c0,16.07-21.384,31.285-27.446,35.274l4.86-4.86c0.781-0.781,0.781-2.047,0-2.828L32.828,44l4.586-4.586
		c0.781-0.781,0.781-2.047,0-2.828L32.828,32l6.586-6.586c0.781-0.781,0.781-2.047,0-2.828l-5.27-5.27C35.15,10.903,41.795,7,48,7z
		 M16,7c6.733,0,14,4.588,14,12h0.276c0.086,0.147,0.184,0.288,0.31,0.414L35.172,24l-6.586,6.586c-0.781,0.781-0.781,2.047,0,2.828
		L33.172,38l-4.586,4.586c-0.781,0.781-0.781,2.047,0,2.828L33.172,50l-4.429,4.429C20.67,48.718,4,35.209,4,21
		C4,14.257,7.755,7,16,7z"/>
</g>
</svg>
