<svg xmlns="http://www.w3.org/2000/svg" width="64" height="64"><path d="M30.971 60.715l1.029.618 1.029-.618C34.294 59.956 64 41.892 64 21c0-8.945-5.496-18-16-18-6.957 0-13.005 3.527-16 8.674C29.005 6.527 22.957 3 16 3 5.496 3 0 12.055 0 21c0 20.892 29.706 38.956 30.971 39.715zM48 7c8.245 0 12 7.257 12 14 0 16.07-21.384 31.285-27.446 35.274l4.86-4.86a2 2 0 0 0 0-2.828L32.828 44l4.586-4.586a2 2 0 0 0 0-2.828L32.828 32l6.586-6.586a2 2 0 0 0 0-2.828l-5.27-5.27C35.15 10.903 41.795 7 48 7zM16 7c6.733 0 14 4.588 14 12h.276c.086.147.184.288.31.414L35.172 24l-6.586 6.586a2 2 0 0 0 0 2.828L33.172 38l-4.586 4.586a2 2 0 0 0 0 2.828L33.172 50l-4.429 4.429C20.67 48.718 4 35.209 4 21 4 14.257 7.755 7 16 7z"/></svg>