<?xml version="1.0" encoding="utf-8"?>
<!-- Generator: Adobe Illustrator 16.0.0, SVG Export Plug-In . SVG Version: 6.00 Build 0)  -->
<!DOCTYPE svg PUBLIC "-//W3C//DTD SVG 1.1//EN" "http://www.w3.org/Graphics/SVG/1.1/DTD/svg11.dtd">
<svg version="1.1" id="Ebene_1" xmlns="http://www.w3.org/2000/svg" xmlns:xlink="http://www.w3.org/1999/xlink" x="0px" y="0px"
	 width="64px" height="64px" viewBox="0 0 64 64" enable-background="new 0 0 64 64" xml:space="preserve">
<g>
	<path d="M40,64h12c1.104,0,2-0.896,2-2V34h8c0.809,0,1.538-0.487,1.848-1.235c0.31-0.747,0.139-1.607-0.434-2.179l-30-30
		c-0.781-0.781-2.047-0.781-2.828,0l-30,30c-0.572,0.572-0.743,1.432-0.434,2.179C0.462,33.513,1.191,34,2,34h8v28
		c0,1.104,0.896,2,2,2h12c1.104,0,2-0.896,2-2V48h12v14C38,63.104,38.896,64,40,64z M24,44c-1.104,0-2,0.896-2,2v14h-8V32
		c0-1.104-0.896-2-2-2H6.828L32,4.829L57.172,30H52c-1.104,0-2,0.896-2,2v28h-8V46c0-1.104-0.896-2-2-2H24z"/>
</g>
</svg>
