<svg xmlns="http://www.w3.org/2000/svg" width="64" height="64"><path d="M2 55h60a2 2 0 0 0 2-2V11a2 2 0 0 0-2-2H2a2 2 0 0 0-2 2v42a2 2 0 0 0 2 2zm2-4v-3.115l19.934-18.122 10.652 10.651A1.998 1.998 0 0 0 37.6 40.2l4.688-6.251L60 49.891V51H4zm56-38v31.51L43.338 29.514a1.998 1.998 0 0 0-2.938.286l-4.616 6.155-10.37-10.369a1.998 1.998 0 0 0-2.759-.065L4 42.479V13h56z"/><path d="M51 29c3.86 0 7-3.141 7-7s-3.14-7-7-7-7 3.141-7 7 3.14 7 7 7zm0-10c1.654 0 3 1.346 3 3s-1.346 3-3 3-3-1.346-3-3 1.346-3 3-3z"/></svg>