<?xml version="1.0" encoding="utf-8"?>
<!-- Generator: Adobe Illustrator 16.0.0, SVG Export Plug-In . SVG Version: 6.00 Build 0)  -->
<!DOCTYPE svg PUBLIC "-//W3C//DTD SVG 1.1//EN" "http://www.w3.org/Graphics/SVG/1.1/DTD/svg11.dtd">
<svg version="1.1" id="Ebene_1" xmlns="http://www.w3.org/2000/svg" xmlns:xlink="http://www.w3.org/1999/xlink" x="0px" y="0px"
	 width="64px" height="64px" viewBox="0 0 64 64" enable-background="new 0 0 64 64" xml:space="preserve">
<g>
	<path d="M2,55h60c1.104,0,2-0.896,2-2V11c0-1.104-0.896-2-2-2H2c-1.104,0-2,0.896-2,2v42C0,54.104,0.896,55,2,55z M4,51v-3.115
		l19.934-18.122l10.652,10.651c0.41,0.41,0.974,0.617,1.556,0.581c0.579-0.041,1.11-0.331,1.458-0.795l4.688-6.251L60,49.891V51H4z
		 M60,13v31.51L43.338,29.514c-0.417-0.375-0.971-0.562-1.532-0.504c-0.559,0.054-1.069,0.341-1.406,0.79l-4.616,6.155
		l-10.37-10.369c-0.755-0.755-1.969-0.784-2.759-0.065L4,42.479V13H60z"/>
	<path d="M51,29c3.86,0,7-3.141,7-7s-3.14-7-7-7s-7,3.141-7,7S47.14,29,51,29z M51,19c1.654,0,3,1.346,3,3s-1.346,3-3,3
		s-3-1.346-3-3S49.346,19,51,19z"/>
</g>
</svg>
