<?xml version="1.0" encoding="utf-8"?>
<!-- Generator: Adobe Illustrator 16.0.0, SVG Export Plug-In . SVG Version: 6.00 Build 0)  -->
<!DOCTYPE svg PUBLIC "-//W3C//DTD SVG 1.1//EN" "http://www.w3.org/Graphics/SVG/1.1/DTD/svg11.dtd">
<svg version="1.1" id="Ebene_1" xmlns="http://www.w3.org/2000/svg" xmlns:xlink="http://www.w3.org/1999/xlink" x="0px" y="0px"
	 width="64px" height="64px" viewBox="0 0 64 64" enable-background="new 0 0 64 64" xml:space="preserve">
<g>
	<path d="M50,18c-7.039,0-12.864,5.227-13.84,12H2c-1.104,0-2,0.896-2,2s0.896,2,2,2h2v6c0,1.104,0.896,2,2,2s2-0.896,2-2v-6h4v2
		c0,1.104,0.896,2,2,2s2-0.896,2-2v-2h20.16c0.976,6.773,6.801,12,13.84,12c7.72,0,14-6.28,14-14S57.72,18,50,18z M50,42
		c-5.514,0-10-4.486-10-10s4.486-10,10-10s10,4.486,10,10S55.514,42,50,42z"/>
</g>
</svg>
