<?xml version="1.0" encoding="utf-8"?>
<!-- Generator: Adobe Illustrator 16.0.0, SVG Export Plug-In . SVG Version: 6.00 Build 0)  -->
<!DOCTYPE svg PUBLIC "-//W3C//DTD SVG 1.1//EN" "http://www.w3.org/Graphics/SVG/1.1/DTD/svg11.dtd">
<svg version="1.1" id="Ebene_1" xmlns="http://www.w3.org/2000/svg" xmlns:xlink="http://www.w3.org/1999/xlink" x="0px" y="0px"
	 width="64px" height="64px" viewBox="0 0 64 64" enable-background="new 0 0 64 64" xml:space="preserve">
<g>
	<path d="M32,0C14.355,0,0,14.355,0,32s14.355,32,32,32s32-14.355,32-32S49.645,0,32,0z M58.829,24H48
		c-0.326,0-0.629,0.085-0.9,0.224c-1.622-3.136-4.187-5.701-7.323-7.323C39.915,16.629,40,16.326,40,16V5.171
		C49.016,7.864,56.136,14.984,58.829,24z M48.505,28H59.71c0.188,1.307,0.29,2.642,0.29,4s-0.103,2.693-0.29,4H48.505
		C48.816,34.715,49,33.38,49,32S48.816,29.285,48.505,28z M32,45c-7.168,0-13-5.832-13-13s5.832-13,13-13s13,5.832,13,13
		S39.168,45,32,45z M36,4.29v11.205C34.715,15.183,33.38,15,32,15s-2.715,0.183-4,0.495V4.29C29.307,4.103,30.642,4,32,4
		S34.693,4.103,36,4.29z M24,5.171V16c0,0.326,0.085,0.629,0.224,0.9c-3.137,1.622-5.701,4.187-7.323,7.323
		C16.629,24.085,16.326,24,16,24H5.171C7.864,14.984,14.984,7.864,24,5.171z M4,32c0-1.358,0.103-2.693,0.29-4h11.205
		C15.184,29.285,15,30.62,15,32s0.184,2.715,0.495,4H4.29C4.103,34.693,4,33.358,4,32z M5.171,40H16c0.326,0,0.629-0.085,0.9-0.224
		c1.622,3.136,4.187,5.701,7.323,7.323C24.085,47.371,24,47.674,24,48v10.829C14.984,56.136,7.864,49.016,5.171,40z M28,59.71
		V48.505C29.285,48.817,30.62,49,32,49s2.715-0.183,4-0.495V59.71C34.693,59.897,33.358,60,32,60S29.307,59.897,28,59.71z
		 M40,58.829V48c0-0.326-0.085-0.629-0.224-0.9c3.137-1.622,5.701-4.187,7.323-7.323C47.371,39.915,47.674,40,48,40h10.829
		C56.136,49.016,49.016,56.136,40,58.829z"/>
</g>
</svg>
