<svg xmlns="http://www.w3.org/2000/svg" width="64" height="64"><path d="M32 0C14.355 0 0 14.355 0 32s14.355 32 32 32 32-14.355 32-32S49.645 0 32 0zm26.829 24H48c-.326 0-.629.085-.9.224a17.099 17.099 0 0 0-7.323-7.323c.138-.272.223-.575.223-.901V5.171C49.016 7.864 56.136 14.984 58.829 24zm-10.324 4H59.71c.188 1.307.29 2.642.29 4s-.103 2.693-.29 4H48.505c.311-1.285.495-2.62.495-4s-.184-2.715-.495-4zM32 45c-7.168 0-13-5.832-13-13s5.832-13 13-13 13 5.832 13 13-5.832 13-13 13zm4-40.71v11.205c-1.285-.312-2.62-.495-4-.495s-2.715.183-4 .495V4.29c1.307-.187 2.642-.29 4-.29s2.693.103 4 .29zm-12 .881V16c0 .326.085.629.224.9a17.093 17.093 0 0 0-7.323 7.323A1.982 1.982 0 0 0 16 24H5.171C7.864 14.984 14.984 7.864 24 5.171zM4 32c0-1.358.103-2.693.29-4h11.205c-.311 1.285-.495 2.62-.495 4s.184 2.715.495 4H4.29A28.223 28.223 0 0 1 4 32zm1.171 8H16c.326 0 .629-.085.9-.224a17.099 17.099 0 0 0 7.323 7.323A1.982 1.982 0 0 0 24 48v10.829C14.984 56.136 7.864 49.016 5.171 40zM28 59.71V48.505c1.285.312 2.62.495 4 .495s2.715-.183 4-.495V59.71c-1.307.187-2.642.29-4 .29s-2.693-.103-4-.29zm12-.881V48c0-.326-.085-.629-.224-.9a17.093 17.093 0 0 0 7.323-7.323c.272.138.575.223.901.223h10.829C56.136 49.016 49.016 56.136 40 58.829z"/></svg>