<?xml version="1.0" encoding="utf-8"?>
<!-- Generator: Adobe Illustrator 16.0.0, SVG Export Plug-In . SVG Version: 6.00 Build 0)  -->
<!DOCTYPE svg PUBLIC "-//W3C//DTD SVG 1.1//EN" "http://www.w3.org/Graphics/SVG/1.1/DTD/svg11.dtd">
<svg version="1.1" id="Ebene_1" xmlns="http://www.w3.org/2000/svg" xmlns:xlink="http://www.w3.org/1999/xlink" x="0px" y="0px"
	 width="64px" height="64px" viewBox="0 0 64 64" enable-background="new 0 0 64 64" xml:space="preserve">
<g>
	<path d="M14,18v14H8c-1.104,0-2,0.896-2,2v28c0,1.104,0.896,2,2,2h48c1.104,0,2-0.896,2-2V34c0-1.104-0.896-2-2-2h-6V18
		c0-9.925-8.075-18-18-18S14,8.075,14,18z M54,60H10V36h44V60z M32,4c7.72,0,14,6.28,14,14v14H18V18C18,10.28,24.28,4,32,4z"/>
	<path d="M32,40c-3.309,0-6,2.691-6,6c0,2.606,1.674,4.824,4,5.65V54c0,1.104,0.896,2,2,2s2-0.896,2-2v-2.35
		c2.326-0.826,4-3.043,4-5.65C38,42.691,35.309,40,32,40z M32,48c-1.103,0-2-0.897-2-2s0.897-2,2-2s2,0.897,2,2S33.103,48,32,48z"/>
</g>
</svg>
