<?xml version="1.0" encoding="utf-8"?>
<!-- Generator: Adobe Illustrator 16.0.0, SVG Export Plug-In . SVG Version: 6.00 Build 0)  -->
<!DOCTYPE svg PUBLIC "-//W3C//DTD SVG 1.1//EN" "http://www.w3.org/Graphics/SVG/1.1/DTD/svg11.dtd">
<svg version="1.1" id="Ebene_1" xmlns="http://www.w3.org/2000/svg" xmlns:xlink="http://www.w3.org/1999/xlink" x="0px" y="0px"
	 width="64px" height="64px" viewBox="0 0 64 64" enable-background="new 0 0 64 64" xml:space="preserve">
<g>
	<path d="M12,64h40c1.104,0,2-0.896,2-2V2c0-1.104-0.896-2-2-2H12c-1.104,0-2,0.896-2,2v60C10,63.104,10.896,64,12,64z M14,4h36v56
		H14V4z"/>
	<path d="M32,28c-7.72,0-14,6.28-14,14s6.28,14,14,14s14-6.28,14-14S39.72,28,32,28z M32,52c-5.514,0-10-4.486-10-10s4.486-10,10-10
		s10,4.486,10,10S37.514,52,32,52z"/>
	<path d="M32,24c4.411,0,8-3.589,8-8s-3.589-8-8-8s-8,3.589-8,8S27.589,24,32,24z M32,12c2.206,0,4,1.794,4,4s-1.794,4-4,4
		s-4-1.794-4-4S29.794,12,32,12z"/>
	<path d="M32,39c-1.654,0-3,1.346-3,3s1.346,3,3,3s3-1.346,3-3S33.654,39,32,39z M32,43c-0.551,0-1-0.449-1-1s0.449-1,1-1
		s1,0.449,1,1S32.551,43,32,43z"/>
</g>
</svg>
