<svg xmlns="http://www.w3.org/2000/svg" width="64" height="64"><path d="M12 64h40a2 2 0 0 0 2-2V2a2 2 0 0 0-2-2H12a2 2 0 0 0-2 2v60a2 2 0 0 0 2 2zm2-60h36v56H14V4z"/><path d="M32 28c-7.72 0-14 6.28-14 14s6.28 14 14 14 14-6.28 14-14-6.28-14-14-14zm0 24c-5.514 0-10-4.486-10-10s4.486-10 10-10 10 4.486 10 10-4.486 10-10 10zM32 24c4.411 0 8-3.589 8-8s-3.589-8-8-8-8 3.589-8 8 3.589 8 8 8zm0-12c2.206 0 4 1.794 4 4s-1.794 4-4 4-4-1.794-4-4 1.794-4 4-4z"/><path d="M32 39c-1.654 0-3 1.346-3 3s1.346 3 3 3 3-1.346 3-3-1.346-3-3-3zm0 4c-.551 0-1-.449-1-1s.449-1 1-1 1 .449 1 1-.449 1-1 1z"/></svg>