<svg xmlns="http://www.w3.org/2000/svg" width="64" height="64"><path d="M45.414 36.586a2 2 0 0 0-2.828 0L41 38.172l-3.811-3.811A20.908 20.908 0 0 0 42 21C42 9.42 32.579 0 21 0S0 9.42 0 21s9.421 21 21 21c5.071 0 9.728-1.808 13.361-4.811L38.172 41l-1.586 1.586a2 2 0 0 0 0 2.828l18 18c.391.391.902.586 1.414.586s1.023-.195 1.414-.586l6-6a2 2 0 0 0 0-2.828l-18-18zM4 21c0-9.374 7.626-17 17-17s17 7.626 17 17-7.626 17-17 17S4 30.374 4 21zm52 38.171L40.828 44 44 40.829 59.172 56 56 59.171z"/><path d="M30 19H12a2 2 0 0 0 0 4h18a2 2 0 0 0 0-4z"/></svg>