<?xml version="1.0" encoding="utf-8"?>
<!-- Generator: Adobe Illustrator 16.0.0, SVG Export Plug-In . SVG Version: 6.00 Build 0)  -->
<!DOCTYPE svg PUBLIC "-//W3C//DTD SVG 1.1//EN" "http://www.w3.org/Graphics/SVG/1.1/DTD/svg11.dtd">
<svg version="1.1" id="Ebene_1" xmlns="http://www.w3.org/2000/svg" xmlns:xlink="http://www.w3.org/1999/xlink" x="0px" y="0px"
	 width="64px" height="64px" viewBox="0 0 64 64" enable-background="new 0 0 64 64" xml:space="preserve">
<g>
	<path d="M45.414,36.586c-0.781-0.781-2.047-0.781-2.828,0L41,38.172l-3.811-3.811C40.192,30.728,42,26.071,42,21
		C42,9.42,32.579,0,21,0S0,9.42,0,21s9.421,21,21,21c5.071,0,9.728-1.808,13.361-4.811L38.172,41l-1.586,1.586
		c-0.781,0.781-0.781,2.047,0,2.828l18,18C54.977,63.805,55.488,64,56,64s1.023-0.195,1.414-0.586l6-6
		c0.781-0.781,0.781-2.047,0-2.828L45.414,36.586z M4,21c0-9.374,7.626-17,17-17s17,7.626,17,17s-7.626,17-17,17S4,30.374,4,21z
		 M56,59.171L40.828,44L44,40.829L59.172,56L56,59.171z"/>
</g>
</svg>
