<svg xmlns="http://www.w3.org/2000/svg" width="64" height="64" viewBox="0 0 64 64"><path d="M62.743 24.143L54 20.646V2a2 2 0 0 0-2-2H12a2 2 0 0 0-2 2v18.646l-8.743 3.497A2 2 0 0 0 .002 26H0v36a2 2 0 0 0 2 2h60a2 2 0 0 0 2-2V26h-.002a2 2 0 0 0-1.255-1.857zm-4.789 2.393L54 28.991v-4.036l3.954 1.581zM50 4V31.474L32 42.646 14 31.474v-9.431V4h36zM10 28.991l-3.954-2.455L10 24.955v4.036zM4 60V29.975L30.945 46.7a2.006 2.006 0 0 0 2.11-.001L60 29.975V60H4z"/><path d="M36 12h8a2 2 0 0 0 0-4h-8a2 2 0 0 0 0 4zM20 20h24a2 2 0 0 0 0-4H20a2 2 0 0 0 0 4zM20 28h24a2 2 0 0 0 0-4H20a2 2 0 0 0 0 4z"/></svg>