<?xml version="1.0" encoding="utf-8"?>
<!-- Generator: Adobe Illustrator 16.0.0, SVG Export Plug-In . SVG Version: 6.00 Build 0)  -->
<!DOCTYPE svg PUBLIC "-//W3C//DTD SVG 1.1//EN" "http://www.w3.org/Graphics/SVG/1.1/DTD/svg11.dtd">
<svg version="1.1" id="Ebene_1" xmlns="http://www.w3.org/2000/svg" xmlns:xlink="http://www.w3.org/1999/xlink" x="0px" y="0px"
	 width="64px" height="64px" viewBox="0 0 64 64" enable-background="new 0 0 64 64" xml:space="preserve">
<g>
	<path d="M63.121,3.344c-0.55-0.371-1.247-0.447-1.864-0.201L42,10.846L22.743,3.143c-0.479-0.19-1.008-0.19-1.486,0l-20,8
		C0.498,11.447,0,12.182,0,13v46c0,0.664,0.329,1.284,0.879,1.656C1.215,60.883,1.605,61,2,61c0.251,0,0.503-0.047,0.743-0.143
		L22,53.154l19.257,7.703c0.479,0.19,1.008,0.19,1.486,0l20-8C63.502,52.553,64,51.818,64,51V5C64,4.336,63.671,3.716,63.121,3.344z
		 M24,7.954l16,6.4v41.692l-16-6.4V7.954z M4,14.354l16-6.4v41.692l-16,6.4V14.354z M60,49.646l-16,6.4V14.354l16-6.4V49.646z"/>
</g>
</svg>
