<svg xmlns="http://www.w3.org/2000/svg" width="64" height="64"><path d="M30 43.844V60H17a2 2 0 0 0 0 4h30a2 2 0 0 0 0-4H34V43.844c8.348-1.173 16-9.43 16-17.844a2 2 0 0 0-4 0c0 6.935-7.065 14-14 14s-14-7.065-14-14a2 2 0 0 0-4 0c0 8.415 7.652 16.671 16 17.844z"/><path d="M32 36c5.514 0 10-4.486 10-10V10c0-5.514-4.486-10-10-10S22 4.486 22 10v16c0 5.514 4.486 10 10 10zm0-32c3.309 0 6 2.691 6 6v1h-2a2 2 0 0 0 0 4h2v4h-2a2 2 0 0 0 0 4h2v3c0 3.309-2.691 6-6 6s-6-2.691-6-6v-3h2a2 2 0 0 0 0-4h-2v-4h2a2 2 0 0 0 0-4h-2v-1c0-3.309 2.691-6 6-6z"/></svg>