<svg xmlns="http://www.w3.org/2000/svg" width="64" height="64" viewBox="0 0 64 64"><path d="M4.586 55.414l8 8A2 2 0 0 0 14 64h6a2 2 0 0 0 1.414-.586L42 42.829 45.172 46l-6.586 6.586a2 2 0 1 0 2.828 2.828l8-8a2 2 0 0 0 0-2.828l-6-6a2 2 0 0 0-2.828 0L19.172 60h-4.344l-6-6L10 52.828l2.586 2.586c.391.391.902.586 1.414.586s1.023-.195 1.414-.586l25.893-25.893c1.184.301 2.417.479 3.693.479 8.271 0 15-6.729 15-15S53.271 0 45 0 30 6.729 30 15c0 1.276.178 2.509.479 3.693L4.586 44.586a2 2 0 0 0 0 2.828L7.172 50l-2.586 2.586a2 2 0 0 0 0 2.828zM45 4c6.065 0 11 4.935 11 11s-4.935 11-11 11-11-4.935-11-11S38.935 4 45 4zm-7.686 23.857L32 33.172 26.828 28l5.314-5.314a15.092 15.092 0 0 0 5.172 5.171zM24 30.828L29.172 36 14 51.171 8.828 46 24 30.828z"/></svg>