<svg xmlns="http://www.w3.org/2000/svg" width="64" height="64" viewBox="0 0 64 64"><path d="M32 0C23.452 0 15.416 3.329 9.373 9.373 3.328 15.417-.001 23.453-.001 32s3.329 16.583 9.374 22.626C15.416 60.671 23.452 64 32 64s16.584-3.329 22.627-9.373c6.045-6.044 9.374-14.08 9.374-22.627s-3.329-16.583-9.374-22.626C48.584 3.329 40.548 0 32 0zm19.799 51.798C46.511 57.087 39.479 60 32 60s-14.511-2.913-19.799-8.202C6.912 46.51 3.999 39.479 3.999 32s2.913-14.51 8.202-19.798C17.489 6.913 24.521 4 32 4s14.511 2.913 19.799 8.202C57.088 17.49 60.001 24.521 60.001 32s-2.913 14.51-8.202 19.798z"/><path d="M50 30H14a2 2 0 0 0 0 4h36a2 2 0 0 0 0-4z"/></svg>