<svg xmlns="http://www.w3.org/2000/svg" viewBox="0 0 64 64"><path d="M62 6H10a2 2 0 00-2 2v6H2a2 2 0 00-2 2v40a2 2 0 002 2h52a2 2 0 002-2v-6h6a2 2 0 002-2V8a2 2 0 00-2-2zM52 18v31.651l-10.698-9.17a2 2 0 00-2.331-.196l-8.566 5.14-12.9-14.742a2.003 2.003 0 00-1.438-.682 2.012 2.012 0 00-1.48.585L4 41.172V18h48zM4 46.828l11.902-11.902 12.593 14.392a1.997 1.997 0 002.534.397l8.764-5.258L50.927 54H4v-7.172zM60 46h-4V16a2 2 0 00-2-2H12v-4h48v36z"/><path d="M41 36c3.859 0 7-3.141 7-7s-3.141-7-7-7-7 3.141-7 7 3.141 7 7 7zm0-10c1.654 0 3 1.346 3 3s-1.346 3-3 3-3-1.346-3-3 1.346-3 3-3z"/></svg>