<?xml version="1.0" encoding="utf-8"?>
<!-- Generator: Adobe Illustrator 16.0.0, SVG Export Plug-In . SVG Version: 6.00 Build 0)  -->
<!DOCTYPE svg PUBLIC "-//W3C//DTD SVG 1.1//EN" "http://www.w3.org/Graphics/SVG/1.1/DTD/svg11.dtd">
<svg version="1.1" id="Ebene_1" xmlns="http://www.w3.org/2000/svg" xmlns:xlink="http://www.w3.org/1999/xlink" x="0px" y="0px"
	 width="64px" height="64px" viewBox="0 0 64 64" enable-background="new 0 0 64 64" xml:space="preserve">
<g>
	<path d="M32,0C23.453,0,15.417,3.329,9.374,9.374C3.329,15.417,0,23.453,0,32s3.329,16.583,9.374,22.626
		C15.417,60.671,23.453,64,32,64s16.583-3.329,22.626-9.374C60.671,48.583,64,40.547,64,32s-3.329-16.583-9.374-22.626
		C48.583,3.329,40.547,0,32,0z M51.798,51.798C46.51,57.087,39.479,60,32,60s-14.51-2.913-19.798-8.202C6.913,46.51,4,39.479,4,32
		s2.913-14.51,8.202-19.798C17.49,6.913,24.521,4,32,4s14.51,2.913,19.798,8.202C57.087,17.49,60,24.521,60,32
		S57.087,46.51,51.798,51.798z"/>
	<path d="M33.572,18.765c-0.758-0.965-2.387-0.965-3.145,0l-11,14c-0.474,0.602-0.562,1.421-0.227,2.109S20.234,36,21,36h22
		c0.766,0,1.464-0.438,1.799-1.126s0.247-1.508-0.227-2.109L33.572,18.765z M25.115,32L32,23.237L38.885,32H25.115z"/>
	<path d="M42,38H22c-1.104,0-2,0.896-2,2s0.896,2,2,2h20c1.104,0,2-0.896,2-2S43.104,38,42,38z"/>
</g>
</svg>
