<svg xmlns="http://www.w3.org/2000/svg" width="64" height="64"><path d="M18 64c5.514 0 10-4.486 10-10V25.617l24-5.143v19.545A9.94 9.94 0 0 0 46 38c-5.514 0-10 4.486-10 10s4.486 10 10 10 10-4.486 10-10V17.987 2A1.998 1.998 0 0 0 53.581.045l-28 6A2 2 0 0 0 24 8V46.019A9.94 9.94 0 0 0 18 44c-5.514 0-10 4.486-10 10s4.486 10 10 10zm28-10c-3.309 0-6-2.691-6-6s2.691-6 6-6 6 2.691 6 6-2.691 6-6 6zm6-49.526v11.909l-24 5.143V9.617l24-5.143zM18 48c3.309 0 6 2.691 6 6s-2.691 6-6 6-6-2.691-6-6 2.691-6 6-6z"/></svg>