<svg xmlns="http://www.w3.org/2000/svg" width="64" height="64" viewBox="0 0 64 64"><path d="M32 0C23.453 0 15.417 3.329 9.374 9.374 3.329 15.417 0 23.453 0 32s3.33 16.583 9.374 22.626C15.417 60.671 23.453 64 32 64s16.583-3.329 22.626-9.374C60.671 48.583 64 40.547 64 32s-3.33-16.583-9.374-22.626C48.583 3.329 40.547 0 32 0zm19.797 51.798C46.509 57.087 39.479 60 32 60s-14.509-2.913-19.798-8.202C6.913 46.51 4 39.479 4 32s2.913-14.51 8.203-19.798C17.491 6.913 24.521 4 32 4s14.509 2.913 19.798 8.202C57.087 17.49 60 24.521 60 32s-2.913 14.51-8.203 19.798z"/><path d="M42 20H22a2 2 0 0 0-2 2v20a2 2 0 0 0 2 2h20a2 2 0 0 0 2-2V22a2 2 0 0 0-2-2zm-2 20H24V24h16v16z"/></svg>