<?xml version="1.0" encoding="utf-8"?>
<!-- Generator: Adobe Illustrator 16.0.0, SVG Export Plug-In . SVG Version: 6.00 Build 0)  -->
<!DOCTYPE svg PUBLIC "-//W3C//DTD SVG 1.1//EN" "http://www.w3.org/Graphics/SVG/1.1/DTD/svg11.dtd">
<svg version="1.1" id="Ebene_1" xmlns="http://www.w3.org/2000/svg" xmlns:xlink="http://www.w3.org/1999/xlink" x="0px" y="0px"
	 width="64px" height="64px" viewBox="0 0 64 64" enable-background="new 0 0 64 64" xml:space="preserve">
<g>
	<path d="M18,64c5.514,0,10-4.486,10-10V25.617l24-5.143v19.545C50.326,38.758,48.252,38,46,38c-5.514,0-10,4.486-10,10
		s4.486,10,10,10s10-4.486,10-10V17.987c0-0.002,0-0.004,0-0.006V2c0-0.604-0.273-1.176-0.743-1.555
		c-0.469-0.38-1.087-0.527-1.676-0.4l-28,6C24.659,6.242,24,7.057,24,8v16.013c0,0.002,0,0.004,0,0.006v22
		C22.326,44.758,20.252,44,18,44c-5.514,0-10,4.486-10,10S12.486,64,18,64z M46,54c-3.309,0-6-2.691-6-6s2.691-6,6-6s6,2.691,6,6
		S49.309,54,46,54z M52,4.474v11.909l-24,5.143V9.617L52,4.474z M18,48c3.309,0,6,2.691,6,6s-2.691,6-6,6s-6-2.691-6-6
		S14.691,48,18,48z"/>
</g>
</svg>
