<?xml version="1.0" encoding="utf-8"?>
<!-- Generator: Adobe Illustrator 16.0.0, SVG Export Plug-In . SVG Version: 6.00 Build 0)  -->
<!DOCTYPE svg PUBLIC "-//W3C//DTD SVG 1.1//EN" "http://www.w3.org/Graphics/SVG/1.1/DTD/svg11.dtd">
<svg version="1.1" id="Ebene_1" xmlns="http://www.w3.org/2000/svg" xmlns:xlink="http://www.w3.org/1999/xlink" x="0px" y="0px"
	 width="64px" height="64px" viewBox="0 0 64 64" enable-background="new 0 0 64 64" xml:space="preserve">
<g>
	<path d="M63.909,15.436c-0.02-0.067-0.035-0.135-0.062-0.2c-0.029-0.068-0.068-0.131-0.104-0.195
		c-0.027-0.05-0.049-0.102-0.08-0.148c-0.074-0.11-0.158-0.214-0.251-0.307l-7.999-7.999c-0.781-0.781-2.047-0.781-2.828,0
		s-0.781,2.047,0,2.828L57.172,14h-10l-32,32H2c-1.104,0-2,0.896-2,2s0.896,2,2,2h14.828l32-32h8.344l-4.586,4.586
		c-0.781,0.781-0.781,2.047,0,2.828C52.977,25.805,53.488,26,54,26s1.023-0.195,1.414-0.586l7.999-7.999
		c0.093-0.093,0.177-0.196,0.251-0.307c0.031-0.047,0.053-0.099,0.08-0.148c0.035-0.064,0.074-0.127,0.104-0.195
		c0.026-0.065,0.042-0.133,0.062-0.2c0.017-0.058,0.039-0.113,0.052-0.173c0.051-0.259,0.051-0.524,0-0.783
		C63.948,15.549,63.926,15.493,63.909,15.436z"/>
	<path d="M63.848,48.765c0.026-0.065,0.042-0.133,0.062-0.2c0.017-0.058,0.039-0.113,0.052-0.173c0.051-0.259,0.051-0.524,0-0.783
		c-0.013-0.06-0.035-0.115-0.052-0.173c-0.02-0.067-0.035-0.135-0.062-0.2c-0.029-0.068-0.068-0.131-0.104-0.195
		c-0.027-0.05-0.049-0.102-0.08-0.148c-0.074-0.11-0.158-0.214-0.251-0.307l-7.999-7.999c-0.781-0.781-2.047-0.781-2.828,0
		s-0.781,2.047,0,2.828L57.172,46h-8.344l-9.414-9.414c-0.781-0.781-2.047-0.781-2.828,0s-0.781,2.047,0,2.828L47.172,50h10
		l-4.586,4.586c-0.781,0.781-0.781,2.047,0,2.828C52.977,57.805,53.488,58,54,58s1.023-0.195,1.414-0.586l7.999-7.999
		c0.093-0.093,0.177-0.196,0.251-0.307c0.031-0.047,0.053-0.099,0.08-0.148C63.779,48.896,63.818,48.833,63.848,48.765z"/>
	<path d="M2,18h13.172l9.414,9.414C24.977,27.805,25.488,28,26,28s1.023-0.195,1.414-0.586c0.781-0.781,0.781-2.047,0-2.828
		L16.828,14H2c-1.104,0-2,0.896-2,2S0.896,18,2,18z"/>
</g>
</svg>
