<svg xmlns="http://www.w3.org/2000/svg" width="64" height="64"><path d="M32 0C23.453 0 15.417 3.329 9.374 9.374 3.329 15.417 0 23.453 0 32s3.329 16.583 9.374 22.626C15.417 60.671 23.453 64 32 64s16.583-3.329 22.626-9.374C60.671 48.583 64 40.547 64 32s-3.329-16.583-9.374-22.626C48.583 3.329 40.547 0 32 0zm19.798 51.798C46.51 57.087 39.479 60 32 60s-14.51-2.913-19.798-8.202C6.913 46.51 4 39.479 4 32s2.913-14.51 8.202-19.798C17.49 6.913 24.521 4 32 4s14.51 2.913 19.798 8.202C57.087 17.49 60 24.521 60 32s-2.913 14.51-8.202 19.798z"/><path d="M33.572 18.765c-.758-.965-2.387-.965-3.145 0l-11 14c-.474.602-.562 1.421-.227 2.109S20.234 36 21 36h22c.766 0 1.464-.438 1.799-1.126s.247-1.508-.227-2.109l-11-14zM25.115 32L32 23.237 38.885 32h-13.77zM42 38H22a2 2 0 0 0 0 4h20a2 2 0 0 0 0-4z"/></svg>