<?xml version="1.0" encoding="utf-8"?>
<!-- Generator: Adobe Illustrator 16.0.0, SVG Export Plug-In . SVG Version: 6.00 Build 0)  -->
<!DOCTYPE svg PUBLIC "-//W3C//DTD SVG 1.1//EN" "http://www.w3.org/Graphics/SVG/1.1/DTD/svg11.dtd">
<svg version="1.1" id="Ebene_1" xmlns="http://www.w3.org/2000/svg" xmlns:xlink="http://www.w3.org/1999/xlink" x="0px" y="0px"
	 width="64px" height="64px" viewBox="0 0 64 64" enable-background="new 0 0 64 64" xml:space="preserve">
<g>
	<path d="M32,0C23.452,0,15.417,3.329,9.373,9.374C3.328,15.417-0.001,23.453-0.001,32s3.329,16.583,9.374,22.626
		C15.417,60.671,23.452,64,32,64c8.547,0,16.583-3.329,22.626-9.374C60.671,48.583,64,40.547,64,32s-3.329-16.583-9.374-22.626
		C48.583,3.329,40.547,0,32,0z M51.798,51.798C46.51,57.087,39.479,60,32,60s-14.51-2.913-19.799-8.202
		C6.912,46.51,3.999,39.479,3.999,32s2.913-14.51,8.202-19.798C17.49,6.913,24.521,4,32,4s14.51,2.913,19.798,8.202
		C57.087,17.49,60,24.521,60,32S57.087,46.51,51.798,51.798z"/>
	<path d="M51.235,30.428l-14-11c-0.604-0.474-1.423-0.56-2.109-0.227C34.438,19.536,34,20.234,34,21v22
		c0,0.766,0.438,1.464,1.126,1.799C35.403,44.934,35.702,45,36,45c0.439,0,0.876-0.146,1.235-0.428l14-11
		C51.718,33.193,52,32.613,52,32S51.718,30.807,51.235,30.428z M38,38.885v-13.77L46.763,32L38,38.885z"/>
	<path d="M31.235,30.428l-14-11c-0.603-0.474-1.424-0.56-2.109-0.227C14.438,19.536,14,20.234,14,21v22
		c0,0.766,0.438,1.464,1.126,1.799C15.403,44.934,15.702,45,16,45c0.439,0,0.876-0.146,1.235-0.428l14-11
		C31.718,33.193,32,32.613,32,32S31.718,30.807,31.235,30.428z M18,38.885v-13.77L26.763,32L18,38.885z"/>
</g>
</svg>
