<svg xmlns="http://www.w3.org/2000/svg" width="64" height="64"><path d="M24 21a2 2 0 0 0-2 2v18a2 2 0 0 0 4 0V23a2 2 0 0 0-2-2zM40 21a2 2 0 0 0-2 2v18a2 2 0 0 0 4 0V23a2 2 0 0 0-2-2z"/><path d="M32 0C23.453 0 15.417 3.329 9.374 9.374 3.329 15.417 0 23.453 0 32s3.329 16.583 9.373 22.626C15.417 60.671 23.453 64 32 64s16.583-3.329 22.627-9.374C60.671 48.583 64 40.547 64 32s-3.329-16.583-9.373-22.626C48.583 3.329 40.547 0 32 0zm19.798 51.798C46.51 57.087 39.479 60 32 60c-7.479 0-14.51-2.913-19.798-8.202C6.913 46.51 4 39.479 4 32s2.913-14.51 8.202-19.798C17.49 6.913 24.521 4 32 4c7.479 0 14.51 2.913 19.799 8.202C57.088 17.49 60 24.521 60 32s-2.912 14.51-8.202 19.798z"/></svg>