<svg xmlns="http://www.w3.org/2000/svg" width="64" height="64"><path d="M63.909 15.436c-.02-.067-.035-.135-.062-.2-.029-.068-.068-.131-.104-.195-.027-.05-.049-.102-.08-.148a2.063 2.063 0 0 0-.251-.307l-7.999-7.999a2 2 0 1 0-2.828 2.828L57.172 14h-10l-32 32H2a2 2 0 0 0 0 4h14.828l32-32h8.344l-4.586 4.586a2 2 0 1 0 2.828 2.828l7.999-7.999c.093-.093.177-.196.251-.307.031-.047.053-.099.08-.148.035-.064.074-.127.104-.195.026-.065.042-.133.062-.2.017-.058.039-.113.052-.173a2.023 2.023 0 0 0 0-.783c-.014-.06-.036-.116-.053-.173z"/><path d="M63.848 48.765c.026-.065.042-.133.062-.2.017-.058.039-.113.052-.173a2.023 2.023 0 0 0 0-.783c-.013-.06-.035-.115-.052-.173-.02-.067-.035-.135-.062-.2-.029-.068-.068-.131-.104-.195-.027-.05-.049-.102-.08-.148a2.063 2.063 0 0 0-.251-.307l-7.999-7.999a2 2 0 1 0-2.828 2.828L57.172 46h-8.344l-9.414-9.414a2 2 0 1 0-2.828 2.828L47.172 50h10l-4.586 4.586a2 2 0 1 0 2.828 2.828l7.999-7.999c.093-.093.177-.196.251-.307.031-.047.053-.099.08-.148.035-.064.074-.127.104-.195zM2 18h13.172l9.414 9.414c.391.391.902.586 1.414.586s1.023-.195 1.414-.586a2 2 0 0 0 0-2.828L16.828 14H2a2 2 0 0 0 0 4z"/></svg>