<svg xmlns="http://www.w3.org/2000/svg" width="64" height="64" viewBox="0 0 64 64"><path d="M54 46H12V28.828l4.586 4.586c.391.391.902.586 1.414.586s1.023-.195 1.414-.586a2 2 0 0 0 0-2.828l-7.999-7.999a2.013 2.013 0 0 0-.307-.251c-.047-.031-.099-.053-.148-.08-.064-.035-.127-.074-.195-.104-.065-.026-.133-.042-.2-.062-.058-.017-.113-.039-.173-.052a2.023 2.023 0 0 0-.783 0c-.06.013-.115.035-.173.052-.067.02-.135.035-.2.062-.068.029-.131.068-.195.104-.05.027-.102.049-.148.08-.11.074-.214.158-.307.251L.587 30.586a2 2 0 1 0 2.828 2.828L8 28.828V48a2 2 0 0 0 2 2h44a2 2 0 0 0 0-4zM60.586 30.586L56 35.172V16a2 2 0 0 0-2-2H10a2 2 0 0 0 0 4h42v17.172l-4.586-4.586a2 2 0 1 0-2.828 2.828l7.999 7.999c.093.093.196.177.307.251.047.031.099.053.148.08.064.035.127.074.195.104.065.026.133.042.2.062.058.017.113.039.173.052a2.068 2.068 0 0 0 .784-.001c.06-.013.115-.035.173-.052.067-.02.135-.035.2-.062.068-.029.131-.068.195-.104.05-.027.102-.049.148-.08.11-.074.214-.158.307-.251l7.999-7.999a2 2 0 1 0-2.828-2.827z"/></svg>