<svg xmlns="http://www.w3.org/2000/svg" width="64" height="64"><path d="M32-.001c-8.547 0-16.583 3.329-22.626 9.374C3.329 15.417 0 23.453 0 32s3.329 16.583 9.373 22.627c6.044 6.045 14.08 9.374 22.627 9.374s16.583-3.329 22.627-9.374C60.671 48.583 64 40.547 64 32s-3.329-16.583-9.374-22.627C48.583 3.328 40.547-.001 32-.001zm19.799 51.8C46.51 57.088 39.479 60.001 32 60.001c-7.479 0-14.51-2.913-19.798-8.202C6.913 46.51 4 39.479 4 32s2.913-14.51 8.202-19.799C17.49 6.912 24.521 3.999 32 3.999c7.479 0 14.51 2.913 19.799 8.202S60 24.521 60 32s-2.912 14.51-8.201 19.799z"/><path d="M42.236 30.428l-14-11A2.002 2.002 0 0 0 25 21v22a2 2 0 0 0 3.236 1.572l14-11a2.001 2.001 0 0 0 0-3.144zM29 38.885v-13.77L37.763 32 29 38.885z"/></svg>