<svg xmlns="http://www.w3.org/2000/svg" width="64" height="64"><path d="M62.993 22.264a1.997 1.997 0 0 0-2.007.013L47 30.503V24a2 2 0 0 0-2-2h-5.082C41.827 19.874 43 17.075 43 14c0-6.617-5.383-12-12-12-5.68 0-10.439 3.971-11.677 9.279A7.95 7.95 0 0 0 15 10c-4.411 0-8 3.589-8 8 0 1.458.398 2.821 1.083 4H2a2 2 0 0 0-2 2v24a2 2 0 0 0 1.547 1.948l43 10A1.999 1.999 0 0 0 47 58v-6.503l13.986 8.227A2.001 2.001 0 0 0 64 58V24c0-.718-.384-1.38-1.007-1.736zM31 6c4.411 0 8 3.589 8 8s-3.589 8-8 8-8-3.589-8-8 3.588-8 8-8zm-8.919 16h-.164c.021-.036.045-.071.065-.107l.099.107zM11 18c0-2.206 1.794-4 4-4s4 1.794 4 4-1.794 4-4 4-4-1.794-4-4zm49 36.503l-13.986-8.227A1.997 1.997 0 0 0 43 48v7.481L4 46.412V26h39v8a1.998 1.998 0 0 0 3.014 1.723L60 27.497v27.006z"/></svg>