<?xml version="1.0" encoding="utf-8"?>
<!-- Generator: Adobe Illustrator 16.0.0, SVG Export Plug-In . SVG Version: 6.00 Build 0)  -->
<!DOCTYPE svg PUBLIC "-//W3C//DTD SVG 1.1//EN" "http://www.w3.org/Graphics/SVG/1.1/DTD/svg11.dtd">
<svg version="1.1" id="Ebene_1" xmlns="http://www.w3.org/2000/svg" xmlns:xlink="http://www.w3.org/1999/xlink" x="0px" y="0px"
	 width="64px" height="64px" viewBox="0 0 64 64" enable-background="new 0 0 64 64" xml:space="preserve">
<g>
	<path d="M62.993,22.264c-0.623-0.355-1.388-0.353-2.007,0.013L47,30.503V24c0-1.104-0.896-2-2-2h-5.082
		C41.827,19.874,43,17.075,43,14c0-6.617-5.383-12-12-12c-5.68,0-10.439,3.971-11.677,9.279C18.075,10.474,16.593,10,15,10
		c-4.411,0-8,3.589-8,8c0,1.458,0.398,2.821,1.083,4H2c-1.104,0-2,0.896-2,2v24c0,0.93,0.641,1.737,1.547,1.948l43,10
		C44.697,59.982,44.849,60,45,60c0.447,0,0.887-0.15,1.244-0.434C46.722,59.187,47,58.61,47,58v-6.503l13.986,8.227
		c0.618,0.364,1.383,0.368,2.007,0.013C63.616,59.38,64,58.718,64,58V24C64,23.282,63.616,22.62,62.993,22.264z M31,6
		c4.411,0,8,3.589,8,8s-3.589,8-8,8s-8-3.589-8-8S26.588,6,31,6z M22.081,22h-0.164c0.021-0.036,0.045-0.071,0.065-0.107
		C22.015,21.929,22.048,21.964,22.081,22z M11,18c0-2.206,1.794-4,4-4s4,1.794,4,4s-1.794,4-4,4S11,20.206,11,18z M60,54.503
		l-13.986-8.227c-0.619-0.365-1.384-0.369-2.007-0.013C43.384,46.62,43,47.282,43,48v7.481L4,46.412V26h39v8
		c0,0.718,0.384,1.38,1.007,1.736c0.624,0.356,1.389,0.354,2.007-0.013L60,27.497V54.503z"/>
</g>
</svg>
