<?xml version="1.0" encoding="utf-8"?>
<!-- Generator: Adobe Illustrator 16.0.0, SVG Export Plug-In . SVG Version: 6.00 Build 0)  -->
<!DOCTYPE svg PUBLIC "-//W3C//DTD SVG 1.1//EN" "http://www.w3.org/Graphics/SVG/1.1/DTD/svg11.dtd">
<svg version="1.1" id="Ebene_1" xmlns="http://www.w3.org/2000/svg" xmlns:xlink="http://www.w3.org/1999/xlink" x="0px" y="0px"
	 width="64px" height="64px" viewBox="0 0 64 64" enable-background="new 0 0 64 64" xml:space="preserve">
<g>
	<path d="M0,58c0,2.206,1.794,4,4,4h36c2.206,0,4-1.794,4-4V18c0-1.64-0.841-3.67-2-4.828l-9.172-9.173C31.668,2.841,29.638,2,28,2
		H4C1.794,2,0,3.794,0,6V58z M37.171,14H32V8.828L37.171,14z M4,6h24v8c0,2.206,1.794,4,4,4h8v40H4V6z"/>
	<path d="M60,2h-4c-2.206,0-4,1.794-4,4v46c0,1.409,0.475,3.423,1.105,4.684l2.211,4.422c0.586,1.172,1.564,1.844,2.684,1.844
		s2.098-0.672,2.684-1.844l2.211-4.422C63.525,55.423,64,53.409,64,52V6C64,3.794,62.206,2,60,2z M60,6v6h-4V6H60z M59.316,54.895
		L58,57.527l-1.316-2.633C56.332,54.192,56,52.785,56,52V16h4v36C60,52.785,59.668,54.192,59.316,54.895z"/>
	<path d="M10,16h11c1.104,0,2-0.896,2-2s-0.896-2-2-2H10c-1.104,0-2,0.896-2,2S8.896,16,10,16z"/>
	<path d="M34,22H10c-1.104,0-2,0.896-2,2s0.896,2,2,2h24c1.104,0,2-0.896,2-2S35.104,22,34,22z"/>
	<path d="M34,30H10c-1.104,0-2,0.896-2,2s0.896,2,2,2h24c1.104,0,2-0.896,2-2S35.104,30,34,30z"/>
	<path d="M34,38H10c-1.104,0-2,0.896-2,2s0.896,2,2,2h24c1.104,0,2-0.896,2-2S35.104,38,34,38z"/>
	<path d="M34,46H10c-1.104,0-2,0.896-2,2s0.896,2,2,2h24c1.104,0,2-0.896,2-2S35.104,46,34,46z"/>
</g>
</svg>
