<svg xmlns="http://www.w3.org/2000/svg" width="64" height="64"><path d="M53.105 56.684l2.211 4.422c.586 1.172 1.564 1.844 2.684 1.844s2.098-.672 2.684-1.844l2.211-4.422C63.525 55.423 64 53.409 64 52V6c0-2.206-1.794-4-4-4h-4c-2.206 0-4 1.794-4 4h-2c-2.206 0-4 1.794-4 4v8a2 2 0 0 0 4 0v-8h2v42c0 1.409.475 3.423 1.105 4.684zM56 6h4v46c0 .785-.332 2.192-.684 2.895L58 57.527l-1.316-2.633C56.332 54.192 56 52.785 56 52V6zM4 62h36c2.206 0 4-1.794 4-4V18c0-1.64-.841-3.67-2-4.828l-9.172-9.173C31.668 2.841 29.638 2 28 2H4C1.794 2 0 3.794 0 6v52c0 2.206 1.794 4 4 4zm33.171-48H32V8.828L37.171 14zM4 6h24v8c0 2.206 1.794 4 4 4h8v40H4V6z"/><path d="M10 16h11a2 2 0 0 0 0-4H10a2 2 0 0 0 0 4zM34 22H10a2 2 0 0 0 0 4h24a2 2 0 0 0 0-4zM34 30H10a2 2 0 0 0 0 4h24a2 2 0 0 0 0-4zM34 38H10a2 2 0 0 0 0 4h24a2 2 0 0 0 0-4zM34 46H10a2 2 0 0 0 0 4h24a2 2 0 0 0 0-4z"/></svg>