<svg xmlns="http://www.w3.org/2000/svg" width="64" height="64" viewBox="0 0 64 64"><path d="M35 64c2.206 0 4-1.794 4-4V4c0-2.206-1.794-4-4-4H23c-2.206 0-4 1.794-4 4v56c0 2.206 1.794 4 4 4h12zM23 4h12v6h-6a2 2 0 0 0 0 4h6v6h-1a2 2 0 0 0 0 4h1v6h-6a2 2 0 0 0 0 4h6v6h-1a2 2 0 0 0 0 4h1v6h-6a2 2 0 0 0 0 4h6v6H23V4zM9 62.949c1.119 0 2.098-.672 2.684-1.844l2.211-4.422C14.524 55.423 15 53.409 15 52V6c0-2.206-1.794-4-4-4H7C4.794 2 3 3.794 3 6v46c0 1.409.476 3.423 1.105 4.684l2.211 4.422c.586 1.171 1.565 1.843 2.684 1.843zm1.316-8.054L9 57.527l-1.316-2.633C7.332 54.192 7 52.785 7 52V16h4v36c0 .785-.332 2.192-.684 2.895zM11 6v6H7V6h4zM53.895 7.316l-2.211-4.422C51.098 1.723 50.119 1.051 49 1.051s-2.098.672-2.684 1.844l-2.211 4.422C43.476 8.577 43 10.591 43 12v46c0 2.206 1.794 4 4 4h4c2.206 0 4-1.794 4-4h2c2.206 0 4-1.794 4-4v-8a2 2 0 0 0-4 0v8h-2V12c0-1.409-.476-3.423-1.105-4.684zM51 58h-4V12c0-.785.332-2.192.684-2.895L49 6.473l1.316 2.633c.352.702.684 2.109.684 2.894v46z"/></svg>