<?xml version="1.0" encoding="utf-8"?>
<!-- Generator: Adobe Illustrator 16.0.0, SVG Export Plug-In . SVG Version: 6.00 Build 0)  -->
<!DOCTYPE svg PUBLIC "-//W3C//DTD SVG 1.1//EN" "http://www.w3.org/Graphics/SVG/1.1/DTD/svg11.dtd">
<svg version="1.1" id="Ebene_1" xmlns="http://www.w3.org/2000/svg" xmlns:xlink="http://www.w3.org/1999/xlink" x="0px" y="0px"
	 width="64px" height="64px" viewBox="0 0 64 64" enable-background="new 0 0 64 64" xml:space="preserve">
<g>
	<path d="M35,64c2.206,0,4-1.794,4-4V4c0-2.206-1.794-4-4-4H23c-2.206,0-4,1.794-4,4v56c0,2.206,1.794,4,4,4H35z M23,4h12v6h-6
		c-1.104,0-2,0.896-2,2s0.896,2,2,2h6v6h-1c-1.104,0-2,0.896-2,2s0.896,2,2,2h1v6h-6c-1.104,0-2,0.896-2,2s0.896,2,2,2h6v6h-1
		c-1.104,0-2,0.896-2,2s0.896,2,2,2h1v6h-6c-1.104,0-2,0.896-2,2s0.896,2,2,2h6v6H23V4z"/>
	<path d="M9,62.949c1.119,0,2.098-0.672,2.684-1.844l2.211-4.422C14.524,55.423,15,53.409,15,52V6c0-2.206-1.794-4-4-4H7
		C4.794,2,3,3.794,3,6v46c0,1.409,0.476,3.423,1.105,4.684l2.211,4.422C6.902,62.277,7.881,62.949,9,62.949z M10.316,54.895
		L9,57.527l-1.316-2.633C7.332,54.192,7,52.785,7,52V16h4v36C11,52.785,10.668,54.192,10.316,54.895z M11,6v6H7V6H11z"/>
	<path d="M53.895,7.316l-2.211-4.422C51.098,1.723,50.119,1.051,49,1.051s-2.098,0.672-2.684,1.844l-2.211,4.422
		C43.476,8.577,43,10.591,43,12v46c0,2.206,1.794,4,4,4h4c2.206,0,4-1.794,4-4h2c2.206,0,4-1.794,4-4v-8c0-1.104-0.896-2-2-2
		s-2,0.896-2,2v8h-2V12C55,10.591,54.524,8.577,53.895,7.316z M51,58h-4V12c0-0.785,0.332-2.192,0.684-2.895L49,6.473l1.316,2.633
		C50.668,9.808,51,11.215,51,12V58z"/>
</g>
</svg>
