<svg xmlns="http://www.w3.org/2000/svg" width="64" height="64" viewBox="0 0 64 64"><path d="M2.602.968C1.349.968 0 1.916 0 4v56c0 2.206 1.794 4 4 4h56c1.95 0 2.639-1.154 2.845-1.65.205-.496.534-1.799-.845-3.178L4.828 2C3.975 1.146 3.146.968 2.602.968zM4 60v-4h4a2 2 0 0 0 0-4H4v-4h2a2 2 0 0 0 0-4H4v-4h4a2 2 0 0 0 0-4H4v-4h2a2 2 0 0 0 0-4H4v-4h4a2 2 0 0 0 0-4H4V7l53.169 53H4z"/><path d="M16 56h24c1.95 0 2.639-1.154 2.845-1.65.205-.496.534-1.799-.845-3.178L16.828 26c-.854-.854-1.682-1.032-2.227-1.032-1.252 0-2.601.948-2.601 3.032v24c0 2.206 1.794 4 4 4zm.001-25.17L37.17 52H16l.001-21.17zM55.456 46.426l4.119 1.029c.316.079.632.119.938.119h.001c.975 0 1.857-.414 2.422-1.137.604-.772.788-1.789.52-2.862l-1.029-4.119c-.353-1.412-1.396-3.254-2.426-4.284L26.828 2C26.074 1.246 25.07.831 24 .831S21.926 1.246 21.172 2L18 5.172a4.003 4.003 0 0 0 0 5.656L51.172 44c1.03 1.03 2.872 2.073 4.284 2.426zm3.089-6.001l.706 2.826-2.826-.706c-.721-.18-1.898-.848-2.425-1.373L26.828 14 30 10.828 57.172 38c.525.526 1.193 1.704 1.373 2.425zM24 4.828L27.172 8 24 11.172 20.828 8 24 4.828z"/></svg>