<?xml version="1.0" encoding="utf-8"?>
<!-- Generator: Adobe Illustrator 16.0.0, SVG Export Plug-In . SVG Version: 6.00 Build 0)  -->
<!DOCTYPE svg PUBLIC "-//W3C//DTD SVG 1.1//EN" "http://www.w3.org/Graphics/SVG/1.1/DTD/svg11.dtd">
<svg version="1.1" id="Ebene_1" xmlns="http://www.w3.org/2000/svg" xmlns:xlink="http://www.w3.org/1999/xlink" x="0px" y="0px"
	 width="64px" height="64px" viewBox="0 0 64 64" enable-background="new 0 0 64 64" xml:space="preserve">
<g>
	<path d="M2.602,0.968C1.349,0.968,0,1.916,0,4v56c0,2.206,1.794,4,4,4h56c1.95,0,2.639-1.154,2.845-1.65
		c0.205-0.496,0.534-1.799-0.845-3.178L4.828,2C3.975,1.146,3.146,0.968,2.602,0.968z M4,60v-4h4c1.104,0,2-0.896,2-2s-0.896-2-2-2
		H4v-4h2c1.104,0,2-0.896,2-2s-0.896-2-2-2H4v-4h4c1.104,0,2-0.896,2-2s-0.896-2-2-2H4v-4h2c1.104,0,2-0.896,2-2s-0.896-2-2-2H4v-4
		h4c1.104,0,2-0.896,2-2s-0.896-2-2-2H4V7l53.169,53H4z"/>
	<path d="M16,56h24c1.95,0,2.639-1.154,2.845-1.65c0.205-0.496,0.534-1.799-0.845-3.178L16.828,26
		c-0.854-0.854-1.682-1.032-2.227-1.032C13.349,24.968,12,25.916,12,28v24C12,54.206,13.794,56,16,56z M16.001,30.83L37.17,52H16
		L16.001,30.83z"/>
	<path d="M55.456,46.426l4.119,1.029c0.316,0.079,0.632,0.119,0.938,0.119c0,0,0,0,0.001,0c0.975,0,1.857-0.414,2.422-1.137
		c0.604-0.772,0.788-1.789,0.52-2.862l-1.029-4.119c-0.353-1.412-1.396-3.254-2.426-4.284L26.828,2
		C26.074,1.246,25.07,0.831,24,0.831S21.926,1.246,21.172,2L18,5.172c-1.56,1.56-1.56,4.097,0,5.656L51.172,44
		C52.202,45.03,54.044,46.073,55.456,46.426z M58.545,40.425l0.706,2.826l-2.826-0.706c-0.721-0.18-1.898-0.848-2.425-1.373
		L26.828,14L30,10.828L57.172,38C57.697,38.526,58.365,39.704,58.545,40.425z M24,4.828L27.172,8L24,11.172L20.828,8L24,4.828z"/>
</g>
</svg>
