<?xml version="1.0" encoding="utf-8"?>
<!-- Generator: Adobe Illustrator 16.0.0, SVG Export Plug-In . SVG Version: 6.00 Build 0)  -->
<!DOCTYPE svg PUBLIC "-//W3C//DTD SVG 1.1//EN" "http://www.w3.org/Graphics/SVG/1.1/DTD/svg11.dtd">
<svg version="1.1" id="Ebene_1" xmlns="http://www.w3.org/2000/svg" xmlns:xlink="http://www.w3.org/1999/xlink" x="0px" y="0px"
	 width="64px" height="64px" viewBox="0 0 64 64" enable-background="new 0 0 64 64" xml:space="preserve">
<g>
	<path d="M32,0c-8.548,0-16.584,3.33-22.627,9.374C3.328,15.417-0.001,23.453-0.001,32s3.329,16.583,9.374,22.626
		C15.416,60.671,23.452,64,32,64c8.547,0,16.583-3.33,22.627-9.374c6.045-6.044,9.374-14.079,9.374-22.626
		s-3.329-16.583-9.374-22.626C48.583,3.329,40.547,0,32,0z M51.799,51.798C46.51,57.087,39.479,60,32,60
		c-7.479,0-14.511-2.913-19.799-8.203C6.912,46.509,3.999,39.479,3.999,32s2.913-14.509,8.202-19.798C17.489,6.913,24.521,4,32,4
		c7.479,0,14.51,2.913,19.799,8.203c5.289,5.288,8.202,12.319,8.202,19.797S57.088,46.509,51.799,51.798z"/>
	<path d="M50,30H34V14c0-1.104-0.896-2-2-2s-2,0.896-2,2v16H14c-1.104,0-2,0.896-2,2s0.896,2,2,2h16v16c0,1.104,0.896,2,2,2
		s2-0.896,2-2V34h16c1.104,0,2-0.896,2-2S51.104,30,50,30z"/>
</g>
</svg>
