<svg xmlns="http://www.w3.org/2000/svg" width="64" height="64" viewBox="0 0 64 64"><path d="M32 0C23.452 0 15.416 3.33 9.373 9.374 3.328 15.417-.001 23.453-.001 32s3.329 16.583 9.374 22.626C15.416 60.671 23.452 64 32 64c8.547 0 16.583-3.33 22.627-9.374 6.045-6.044 9.374-14.079 9.374-22.626s-3.329-16.583-9.374-22.626C48.583 3.329 40.547 0 32 0zm19.799 51.798C46.51 57.087 39.479 60 32 60c-7.479 0-14.511-2.913-19.799-8.203C6.912 46.509 3.999 39.479 3.999 32s2.913-14.509 8.202-19.798C17.489 6.913 24.521 4 32 4c7.479 0 14.51 2.913 19.799 8.203 5.289 5.288 8.202 12.319 8.202 19.797s-2.913 14.509-8.202 19.798z"/><path d="M50 30H34V14a2 2 0 0 0-4 0v16H14a2 2 0 0 0 0 4h16v16a2 2 0 0 0 4 0V34h16a2 2 0 0 0 0-4z"/></svg>