<?xml version="1.0" encoding="utf-8"?>
<!-- Generator: Adobe Illustrator 16.0.0, SVG Export Plug-In . SVG Version: 6.00 Build 0)  -->
<!DOCTYPE svg PUBLIC "-//W3C//DTD SVG 1.1//EN" "http://www.w3.org/Graphics/SVG/1.1/DTD/svg11.dtd">
<svg version="1.1" id="Ebene_1" xmlns="http://www.w3.org/2000/svg" xmlns:xlink="http://www.w3.org/1999/xlink" x="0px" y="0px"
	 width="64px" height="64px" viewBox="0 0 64 64" enable-background="new 0 0 64 64" xml:space="preserve">
<g>
	<path d="M2,54h60c1.104,0,2-0.896,2-2v-6c0-1.104-0.896-2-2-2h-4V12c0-1.104-0.896-2-2-2H8c-1.104,0-2,0.896-2,2v32H2
		c-1.104,0-2,0.896-2,2v6C0,53.104,0.896,54,2,54z M10,14h44v30H10V14z M4,48h4h48h4v2H4V48z"/>
	<path d="M30.58,16.58C30.21,16.96,30,17.479,30,18c0,0.53,0.21,1.04,0.59,1.41C30.96,19.79,31.47,20,32,20s1.04-0.21,1.42-0.59
		C33.79,19.04,34,18.52,34,18c0-0.521-0.21-1.04-0.59-1.42C32.67,15.84,31.33,15.84,30.58,16.58z"/>
</g>
</svg>
