<svg xmlns="http://www.w3.org/2000/svg" width="64" height="64" viewBox="0 0 64 64"><path d="M2 54h12v8a2 2 0 0 0 2 2h32a2 2 0 0 0 2-2v-8h12a2 2 0 0 0 2-2V20a2 2 0 0 0-2-2H50V2a2 2 0 0 0-2-2H16a2 2 0 0 0-2 2v16H2a2 2 0 0 0-2 2v32a2 2 0 0 0 2 2zm44 6H18V40h28v20zM18 4h28v14H18V4zM4 22h56v28H50V38a2 2 0 0 0-2-2H16a2 2 0 0 0-2 2v12H4V22z"/><path d="M11.41 25.59c-.74-.75-2.08-.75-2.82 0-.38.37-.59.88-.59 1.41a1.998 1.998 0 0 0 2 2c.53 0 1.04-.21 1.42-.59.37-.37.58-.89.58-1.41 0-.53-.21-1.04-.59-1.41zM16 29c.53 0 1.04-.21 1.41-.59.38-.37.59-.89.59-1.41s-.21-1.04-.59-1.42c-.74-.74-2.08-.74-2.82.01-.38.37-.59.88-.59 1.41a1.998 1.998 0 0 0 2 2zM42 44H22a2 2 0 0 0 0 4h20a2 2 0 0 0 0-4zM42 52H22a2 2 0 0 0 0 4h20a2 2 0 0 0 0-4z"/></svg>