<?xml version="1.0" encoding="utf-8"?>
<!-- Generator: Adobe Illustrator 16.0.0, SVG Export Plug-In . SVG Version: 6.00 Build 0)  -->
<!DOCTYPE svg PUBLIC "-//W3C//DTD SVG 1.1//EN" "http://www.w3.org/Graphics/SVG/1.1/DTD/svg11.dtd">
<svg version="1.1" id="Ebene_1" xmlns="http://www.w3.org/2000/svg" xmlns:xlink="http://www.w3.org/1999/xlink" x="0px" y="0px"
	 width="64px" height="64px" viewBox="0 0 64 64" enable-background="new 0 0 64 64" xml:space="preserve">
<g>
	<path d="M2,54h12v8c0,1.104,0.896,2,2,2h32c1.104,0,2-0.896,2-2v-8h12c1.104,0,2-0.896,2-2V20c0-1.104-0.896-2-2-2H50V2
		c0-1.104-0.896-2-2-2H16c-1.104,0-2,0.896-2,2v16H2c-1.104,0-2,0.896-2,2v32C0,53.104,0.896,54,2,54z M46,60H18V40h28V60z M18,4h28
		v14H18V4z M4,22h12h32h12v28H50V38c0-1.104-0.896-2-2-2H16c-1.104,0-2,0.896-2,2v12H4V22z"/>
	<path d="M11.41,25.59c-0.74-0.75-2.08-0.75-2.82,0C8.21,25.96,8,26.47,8,27c0,0.52,0.21,1.04,0.59,1.42C8.96,28.79,9.47,29,10,29
		s1.04-0.21,1.42-0.59C11.79,28.04,12,27.52,12,27C12,26.47,11.79,25.96,11.41,25.59z"/>
	<path d="M16,29c0.53,0,1.04-0.21,1.41-0.59C17.79,28.04,18,27.52,18,27s-0.21-1.04-0.59-1.42c-0.74-0.74-2.08-0.74-2.82,0.01
		C14.21,25.96,14,26.47,14,27c0,0.52,0.21,1.04,0.59,1.42C14.96,28.79,15.47,29,16,29z"/>
	<path d="M42,44H22c-1.104,0-2,0.896-2,2s0.896,2,2,2h20c1.104,0,2-0.896,2-2S43.104,44,42,44z"/>
	<path d="M42,52H22c-1.104,0-2,0.896-2,2s0.896,2,2,2h20c1.104,0,2-0.896,2-2S43.104,52,42,52z"/>
</g>
</svg>
