<svg xmlns="http://www.w3.org/2000/svg" width="64" height="64"><path d="M32 42c8.271 0 15-8.523 15-19S40.271 4 32 4s-15 8.523-15 19 6.729 19 15 19zm0-34c5.963 0 11 6.869 11 15s-5.037 15-11 15-11-6.869-11-15S26.037 8 32 8z"/><path d="M4.103 45.367l-4 12A2.001 2.001 0 0 0 2 60h60c.643 0 1.247-.309 1.622-.831a1.997 1.997 0 0 0 .275-1.802l-4-12a2.001 2.001 0 0 0-1.348-1.29l-14-4a1.991 1.991 0 0 0-1.444.134L32 45.764l-11.105-5.553a1.996 1.996 0 0 0-1.444-.134l-14 4a2 2 0 0 0-1.348 1.29zm15.699-1.23l11.304 5.652a2.004 2.004 0 0 0 1.789 0l11.304-5.652 12.238 3.496L59.226 56H4.774l2.789-8.367 12.239-3.496z"/></svg>