<svg xmlns="http://www.w3.org/2000/svg" width="64" height="64"><path d="M32 42c8.673 0 16-8.701 16-19S40.673 4 32 4s-16 8.701-16 19 7.327 19 16 19zm0-34c6.505 0 12 6.869 12 15s-5.495 15-12 15-12-6.869-12-15S25.495 8 32 8z"/><path d="M4.103 45.367l-4 12A2.001 2.001 0 0 0 2 60h60c.643 0 1.247-.309 1.622-.831a1.997 1.997 0 0 0 .275-1.802l-4-12a2.001 2.001 0 0 0-1.348-1.29l-14-4a1.991 1.991 0 0 0-1.444.134L32 45.764l-11.105-5.553a1.996 1.996 0 0 0-1.444-.134l-14 4a2 2 0 0 0-1.348 1.29zm15.699-1.23l11.304 5.652a2.004 2.004 0 0 0 1.789 0l11.304-5.652 12.238 3.496L59.226 56H4.774l2.789-8.367 12.239-3.496zM62 6h-4V2a2 2 0 0 0-4 0v4h-4a2 2 0 0 0 0 4h4v4a2 2 0 0 0 4 0v-4h4a2 2 0 0 0 0-4z"/></svg>