<svg xmlns="http://www.w3.org/2000/svg" width="64" height="64"><path d="M30 2a2 2 0 0 0 2 2c7.479 0 14.51 2.913 19.798 8.202C57.087 17.49 60 24.521 60 32c0 7.381-2.842 14.323-8 19.587V46a2 2 0 0 0-4 0v12h12a2 2 0 0 0 0-4h-4.776C60.885 48.032 64 40.257 64 32c0-8.547-3.329-16.583-9.374-22.627C48.583 3.329 40.547 0 32 0a2 2 0 0 0-2 2zM9.374 54.627C15.417 60.671 23.453 64 32 64a2 2 0 0 0 0-4c-7.479 0-14.51-2.913-19.798-8.202C6.913 46.51 4 39.479 4 32c0-7.381 2.842-14.323 8-19.587V18a2 2 0 0 0 4 0V6H4a2 2 0 0 0 0 4h4.776C3.115 15.968 0 23.743 0 32c0 8.547 3.329 16.583 9.374 22.627z"/></svg>