<svg xmlns="http://www.w3.org/2000/svg" width="64" height="64"><path d="M2 40h6.559l1.153 3.46-5.126 5.126a2 2 0 0 0 0 2.828l8 8a2 2 0 0 0 2.828 0l5.126-5.126L24 55.441V62a2 2 0 0 0 2 2h12a2 2 0 0 0 2-2v-6.559l3.46-1.153 5.126 5.126a2 2 0 0 0 2.828 0l8-8a2 2 0 0 0 0-2.828l-5.126-5.126L55.441 40H62a2 2 0 0 0 2-2V26a2 2 0 0 0-2-2h-6.559l-1.153-3.46 5.126-5.126a2 2 0 0 0 0-2.828l-8-8a2 2 0 0 0-2.828 0L43.46 9.712 40 8.559V2a2 2 0 0 0-2-2H26a2 2 0 0 0-2 2v6.559l-3.46 1.153-5.126-5.126a2 2 0 0 0-2.828 0l-8 8a2 2 0 0 0 0 2.828l5.126 5.126L8.559 24H2a2 2 0 0 0-2 2v12a2 2 0 0 0 2 2zm2-12h6a2 2 0 0 0 1.897-1.368l2-6a2 2 0 0 0-.483-2.046L8.829 14 14 8.829l4.586 4.585a2 2 0 0 0 2.046.483l6-2A2 2 0 0 0 28 10V4h8v6a2 2 0 0 0 1.368 1.897l6 2c.72.24 1.511.053 2.046-.483L50 8.829 55.171 14l-4.585 4.586a1.998 1.998 0 0 0-.483 2.046l2 6A2 2 0 0 0 54 28h6v8h-6a2 2 0 0 0-1.897 1.368l-2 6a2 2 0 0 0 .483 2.046L55.171 50 50 55.171l-4.586-4.585a1.996 1.996 0 0 0-2.046-.483l-6 2A2 2 0 0 0 36 54v6h-8v-6a2 2 0 0 0-1.368-1.897l-6-2a2.002 2.002 0 0 0-2.046.483L14 55.171 8.829 50l4.585-4.586a1.998 1.998 0 0 0 .483-2.046l-2-6A2 2 0 0 0 10 36H4v-8z"/><path d="M32 40c4.411 0 8-3.589 8-8s-3.589-8-8-8-8 3.589-8 8 3.589 8 8 8zm0-12c2.206 0 4 1.794 4 4s-1.794 4-4 4-4-1.794-4-4 1.794-4 4-4z"/></svg>