<?xml version="1.0" encoding="utf-8"?>
<!-- Generator: Adobe Illustrator 16.0.0, SVG Export Plug-In . SVG Version: 6.00 Build 0)  -->
<!DOCTYPE svg PUBLIC "-//W3C//DTD SVG 1.1//EN" "http://www.w3.org/Graphics/SVG/1.1/DTD/svg11.dtd">
<svg version="1.1" id="Ebene_1" xmlns="http://www.w3.org/2000/svg" xmlns:xlink="http://www.w3.org/1999/xlink" x="0px" y="0px"
	 width="64px" height="64px" viewBox="0 0 64 64" enable-background="new 0 0 64 64" xml:space="preserve">
<g>
	<path d="M2,40h6.559l1.153,3.46l-5.126,5.126c-0.781,0.781-0.781,2.047,0,2.828l8,8c0.78,0.781,2.048,0.781,2.828,0l5.126-5.126
		L24,55.441V62c0,1.104,0.896,2,2,2h12c1.104,0,2-0.896,2-2v-6.559l3.46-1.153l5.126,5.126c0.78,0.781,2.048,0.781,2.828,0l8-8
		c0.781-0.781,0.781-2.047,0-2.828l-5.126-5.126L55.441,40H62c1.104,0,2-0.896,2-2V26c0-1.104-0.896-2-2-2h-6.559l-1.153-3.46
		l5.126-5.126c0.781-0.781,0.781-2.047,0-2.828l-8-8c-0.78-0.781-2.048-0.781-2.828,0L43.46,9.712L40,8.559V2c0-1.104-0.896-2-2-2
		H26c-1.104,0-2,0.896-2,2v6.559l-3.46,1.153l-5.126-5.126c-0.78-0.781-2.048-0.781-2.828,0l-8,8c-0.781,0.781-0.781,2.047,0,2.828
		l5.126,5.126L8.559,24H2c-1.104,0-2,0.896-2,2v12C0,39.104,0.896,40,2,40z M4,28h6c0.861,0,1.625-0.551,1.897-1.368l2-6
		c0.239-0.719,0.052-1.511-0.483-2.046L8.829,14L14,8.829l4.586,4.585c0.535,0.536,1.328,0.722,2.046,0.483l6-2
		C27.449,11.625,28,10.861,28,10V4h8v6c0,0.861,0.551,1.625,1.368,1.897l6,2c0.72,0.24,1.511,0.053,2.046-0.483L50,8.829L55.171,14
		l-4.585,4.586c-0.536,0.536-0.723,1.328-0.483,2.046l2,6C52.375,27.449,53.139,28,54,28h6v8h-6c-0.861,0-1.625,0.551-1.897,1.368
		l-2,6c-0.239,0.719-0.052,1.511,0.483,2.046L55.171,50L50,55.171l-4.586-4.585c-0.536-0.536-1.328-0.724-2.046-0.483l-6,2
		C36.551,52.375,36,53.139,36,54v6h-8v-6c0-0.861-0.551-1.625-1.368-1.897l-6-2c-0.717-0.239-1.511-0.052-2.046,0.483L14,55.171
		L8.829,50l4.585-4.586c0.536-0.536,0.723-1.328,0.483-2.046l-2-6C11.625,36.551,10.861,36,10,36H4V28z"/>
	<path d="M32,40c4.411,0,8-3.589,8-8s-3.589-8-8-8s-8,3.589-8,8S27.589,40,32,40z M32,28c2.206,0,4,1.794,4,4s-1.794,4-4,4
		s-4-1.794-4-4S29.794,28,32,28z"/>
</g>
</svg>
