<svg xmlns="http://www.w3.org/2000/svg" width="64" height="64" viewBox="0 0 64 64"><path d="M45.414 34.586a2 2 0 0 0-2.828 0L41 36.172 37.828 33l7-7H48c7.851 0 12-4.841 12-14a1.999 1.999 0 0 0-2.895-1.789l-6.71 3.355-1.961-1.961 3.355-6.71A1.999 1.999 0 0 0 50 2c-9.159 0-14 4.149-14 12v3.171l-7 7L17.828 13l1.586-1.586a1.999 1.999 0 0 0-.385-3.129l-10-6a1.999 1.999 0 0 0-2.443.301l-2 2a2 2 0 0 0-.301 2.443l6 10a2 2 0 0 0 3.129.385L15 15.828 26.172 27 2.586 50.586c-.22.219-.385.487-.483.782l-2 6a2 2 0 0 0 .483 2.046l2 2a2 2 0 0 0 2.046.483l6-2c.295-.098.562-.264.782-.483L35 35.828 38.172 39l-1.586 1.586a2 2 0 0 0 0 2.828l18 18c.39.391.902.586 1.414.586s1.024-.195 1.414-.586l6-6a2 2 0 0 0 0-2.828l-18-18zM12.397 12.774L8.831 6.831l5.943 3.566-2.377 2.377zM8.919 56.252l-4.379 1.46-.252-.252 1.46-4.379 33.666-33.667A2 2 0 0 0 40 18v-4c0-3.385.87-6.835 6.644-7.76l-2.433 4.866a2 2 0 0 0 .375 2.309l4 4a2 2 0 0 0 2.309.375l4.866-2.433C54.835 21.13 51.385 22 48 22h-4a2 2 0 0 0-1.414.586L8.919 56.252zM56 57.171L40.829 42 44 38.829 59.171 54 56 57.171z"/></svg>