<?xml version="1.0" encoding="utf-8"?>
<!-- Generator: Adobe Illustrator 16.0.0, SVG Export Plug-In . SVG Version: 6.00 Build 0)  -->
<!DOCTYPE svg PUBLIC "-//W3C//DTD SVG 1.1//EN" "http://www.w3.org/Graphics/SVG/1.1/DTD/svg11.dtd">
<svg version="1.1" id="Ebene_1" xmlns="http://www.w3.org/2000/svg" xmlns:xlink="http://www.w3.org/1999/xlink" x="0px" y="0px"
	 width="64px" height="64px" viewBox="0 0 64 64" enable-background="new 0 0 64 64" xml:space="preserve">
<g>
	<path d="M12,54c3.863,0,7.297-1.843,9.493-4.688l16.622,6.125C38.816,60.271,42.976,64,48,64c5.514,0,10-4.486,10-10
		s-4.486-10-10-10c-4.568,0-8.422,3.083-9.613,7.274L23.392,45.75C23.781,44.569,24,43.31,24,42c0-2.522-0.786-4.862-2.12-6.795
		l18.474-11.084C42.867,26.518,46.261,28,50,28c7.72,0,14-6.28,14-14S57.72,0,50,0S36,6.28,36,14c0,2.53,0.685,4.899,1.863,6.949
		L18.996,32.27C17.023,30.848,14.611,30,12,30C5.383,30,0,35.383,0,42S5.383,54,12,54z M48,48c3.309,0,6,2.691,6,6s-2.691,6-6,6
		s-6-2.691-6-6S44.691,48,48,48z M50,4c5.514,0,10,4.486,10,10s-4.486,10-10,10s-10-4.486-10-10S44.486,4,50,4z M12,34
		c4.411,0,8,3.589,8,8s-3.589,8-8,8s-8-3.589-8-8S7.589,34,12,34z"/>
</g>
</svg>
