<svg xmlns="http://www.w3.org/2000/svg" width="64" height="64"><path d="M0 10a2 2 0 0 0 2 2h6.166L12 56.173v.007c0 4.328 3.645 7.82 7.996 7.82 3.719 0 6.849-2.556 7.74-6h8.527c.892 3.444 4.017 6 7.736 6 4.411 0 8-3.589 8-8s-3.589-8-8-8c-3.72 0-6.845 2.556-7.736 6h-8.527c-.892-3.444-4.017-6-7.736-6a7.946 7.946 0 0 0-4.563 1.438l-.561-6.45c.041.002.08.012.122.012l.1-.002 41-2a2.001 2.001 0 0 0 1.825-1.448l6-21A1.998 1.998 0 0 0 62 16h-6.491L51.923 3.45A2 2 0 0 0 50 2H36a2 2 0 0 0-1.414.586L29.172 8H20a2 2 0 0 0-1.94 1.515L16.438 16h-3.909l-.537-6.173A2 2 0 0 0 10 8H2a2 2 0 0 0-2 2zm44 42c2.206 0 4 1.794 4 4s-1.794 4-4 4-4-1.794-4-4 1.794-4 4-4zm-24 0c2.206 0 4 1.794 4 4s-1.794 4-4 4-4-1.794-4-4 1.794-4 4-4zM36.828 6h11.663l2.857 10H33.562l-1.347-5.387L36.828 6zm-15.266 6h6.877l1 4h-8.877l1-4zm32.431 8h5.356l-4.878 17.072-39.568 1.93a1.933 1.933 0 0 0-.368.056L12.877 20h41.116z"/></svg>