<?xml version="1.0" encoding="utf-8"?>
<!-- Generator: Adobe Illustrator 16.0.0, SVG Export Plug-In . SVG Version: 6.00 Build 0)  -->
<!DOCTYPE svg PUBLIC "-//W3C//DTD SVG 1.1//EN" "http://www.w3.org/Graphics/SVG/1.1/DTD/svg11.dtd">
<svg version="1.1" id="Ebene_1" xmlns="http://www.w3.org/2000/svg" xmlns:xlink="http://www.w3.org/1999/xlink" x="0px" y="0px"
	 width="64px" height="64px" viewBox="0 0 64 64" enable-background="new 0 0 64 64" xml:space="preserve">
<g>
	<path d="M62,0H2C0.896,0,0,0.896,0,2v60c0,1.104,0.896,2,2,2h60c1.104,0,2-0.896,2-2V2C64,0.896,63.104,0,62,0z M60,60H4V4h56V60z"
		/>
	<path d="M10,16h4v38c0,1.104,0.896,2,2,2s2-0.896,2-2V16h4c1.104,0,2-0.896,2-2s-0.896-2-2-2h-4v-2c0-1.104-0.896-2-2-2
		s-2,0.896-2,2v2h-4c-1.104,0-2,0.896-2,2S8.896,16,10,16z"/>
	<path d="M42,52h4v2c0,1.104,0.896,2,2,2s2-0.896,2-2v-2h4c1.104,0,2-0.896,2-2s-0.896-2-2-2h-4V10c0-1.104-0.896-2-2-2
		s-2,0.896-2,2v38h-4c-1.104,0-2,0.896-2,2S40.896,52,42,52z"/>
	<path d="M26,34h4v20c0,1.104,0.896,2,2,2s2-0.896,2-2V34h4c1.104,0,2-0.896,2-2s-0.896-2-2-2h-4V10c0-1.104-0.896-2-2-2
		s-2,0.896-2,2v20h-4c-1.104,0-2,0.896-2,2S24.896,34,26,34z"/>
</g>
</svg>
