<?xml version="1.0" encoding="utf-8"?>
<!-- Generator: Adobe Illustrator 16.0.0, SVG Export Plug-In . SVG Version: 6.00 Build 0)  -->
<!DOCTYPE svg PUBLIC "-//W3C//DTD SVG 1.1//EN" "http://www.w3.org/Graphics/SVG/1.1/DTD/svg11.dtd">
<svg version="1.1" id="Ebene_1" xmlns="http://www.w3.org/2000/svg" xmlns:xlink="http://www.w3.org/1999/xlink" x="0px" y="0px"
	 width="64px" height="64px" viewBox="0 0 64 64" enable-background="new 0 0 64 64" xml:space="preserve">
<g>
	<path d="M48,0H16c-1.104,0-2,0.896-2,2v60c0,1.104,0.896,2,2,2h32c1.104,0,2-0.896,2-2V2C50,0.896,49.104,0,48,0z M46,60H18V4h28
		V60z"/>
	<path d="M33,52h-2c-1.104,0-2,0.896-2,2s0.896,2,2,2h2c1.104,0,2-0.896,2-2S34.104,52,33,52z"/>
	<path d="M25,12h14c1.104,0,2-0.896,2-2s-0.896-2-2-2H25c-1.104,0-2,0.896-2,2S23.896,12,25,12z"/>
</g>
</svg>
