<svg xmlns="http://www.w3.org/2000/svg" width="64" height="64" viewBox="0 0 64 64"><path d="M61.735 4.018L32 7.982 2.265 4.018c-.577-.08-1.149.097-1.582.477S0 5.424 0 6v48a2 2 0 0 0 1.735 1.982l30 4a1.966 1.966 0 0 0 .53 0l30-4A2 2 0 0 0 64 54V6a2.001 2.001 0 0 0-2.265-1.982zM4 8.284l26 3.467v43.965L4 52.249V8.284zm56 43.965l-26 3.467V11.751l26-3.467v43.965z"/><path d="M9.752 17.984l16 2a2 2 0 0 0 .496-3.968l-16-2a1.998 1.998 0 0 0-2.232 1.736 1.999 1.999 0 0 0 1.736 2.232zM26.248 26.016l-16-2a1.995 1.995 0 0 0-2.232 1.736 2 2 0 0 0 1.736 2.232l16 2a2 2 0 0 0 .496-3.968zM26.248 36.016l-16-2a1.997 1.997 0 0 0-2.232 1.736 2 2 0 0 0 1.736 2.232l16 2a2 2 0 0 0 .496-3.968zM26.248 46.016l-16-2a2 2 0 1 0-.496 3.968l16 2a2 2 0 0 0 .496-3.968zM37.997 20c.083 0 .167-.005.251-.016l16-2a2 2 0 0 0-.496-3.968l-16 2A2 2 0 0 0 37.997 20zM37.997 30c.083 0 .167-.005.251-.016l16-2a2 2 0 0 0-.496-3.968l-16 2A2 2 0 0 0 37.997 30zM37.997 40c.083 0 .167-.005.251-.016l16-2a2 2 0 0 0-.496-3.968l-16 2A2 2 0 0 0 37.997 40zM53.752 44.016l-16 2a2 2 0 0 0 .496 3.968l16-2a2 2 0 0 0-.496-3.968z"/></svg>