<?xml version="1.0" encoding="utf-8"?>
<!-- Generator: Adobe Illustrator 16.0.0, SVG Export Plug-In . SVG Version: 6.00 Build 0)  -->
<!DOCTYPE svg PUBLIC "-//W3C//DTD SVG 1.1//EN" "http://www.w3.org/Graphics/SVG/1.1/DTD/svg11.dtd">
<svg version="1.1" id="Ebene_1" xmlns="http://www.w3.org/2000/svg" xmlns:xlink="http://www.w3.org/1999/xlink" x="0px" y="0px"
	 width="64px" height="64px" viewBox="0 0 64 64" enable-background="new 0 0 64 64" xml:space="preserve">
<g>
	<path d="M61.735,4.018L32,7.982L2.265,4.018C1.688,3.938,1.116,4.115,0.683,4.495S0,5.424,0,6v48c0,1.002,0.742,1.85,1.735,1.982
		l30,4C31.823,59.994,31.912,60,32,60s0.177-0.006,0.265-0.018l30-4C63.258,55.85,64,55.002,64,54V6
		c0-0.576-0.249-1.125-0.683-1.505C62.883,4.115,62.312,3.944,61.735,4.018z M4,8.284l26,3.467v43.965L4,52.249V8.284z M60,52.249
		l-26,3.467V11.751l26-3.467V52.249z"/>
	<path d="M9.752,17.984l16,2C25.836,19.995,25.92,20,26.003,20c0.993,0,1.855-0.74,1.981-1.752c0.137-1.096-0.641-2.096-1.736-2.232
		l-16-2c-1.093-0.14-2.096,0.64-2.232,1.736C7.879,16.848,8.656,17.848,9.752,17.984z"/>
	<path d="M26.248,26.016l-16-2c-1.093-0.144-2.096,0.64-2.232,1.736c-0.137,1.096,0.641,2.096,1.736,2.232l16,2
		C25.836,29.995,25.92,30,26.003,30c0.993,0,1.855-0.74,1.981-1.752C28.121,27.152,27.344,26.152,26.248,26.016z"/>
	<path d="M26.248,36.016l-16-2c-1.093-0.142-2.096,0.64-2.232,1.736c-0.137,1.096,0.641,2.096,1.736,2.232l16,2
		C25.836,39.995,25.92,40,26.003,40c0.993,0,1.855-0.74,1.981-1.752C28.121,37.152,27.344,36.152,26.248,36.016z"/>
	<path d="M26.248,46.016l-16-2c-1.093-0.14-2.096,0.64-2.232,1.736c-0.137,1.096,0.641,2.096,1.736,2.232l16,2
		C25.836,49.995,25.92,50,26.003,50c0.993,0,1.855-0.74,1.981-1.752C28.121,47.152,27.344,46.152,26.248,46.016z"/>
	<path d="M37.997,20c0.083,0,0.167-0.005,0.251-0.016l16-2c1.096-0.137,1.873-1.137,1.736-2.232
		c-0.137-1.097-1.148-1.876-2.232-1.736l-16,2c-1.096,0.137-1.873,1.137-1.736,2.232C36.142,19.26,37.004,20,37.997,20z"/>
	<path d="M37.997,30c0.083,0,0.167-0.005,0.251-0.016l16-2c1.096-0.137,1.873-1.137,1.736-2.232
		c-0.137-1.097-1.148-1.88-2.232-1.736l-16,2c-1.096,0.137-1.873,1.137-1.736,2.232C36.142,29.26,37.004,30,37.997,30z"/>
	<path d="M37.997,40c0.083,0,0.167-0.005,0.251-0.016l16-2c1.096-0.137,1.873-1.137,1.736-2.232
		c-0.137-1.097-1.148-1.878-2.232-1.736l-16,2c-1.096,0.137-1.873,1.137-1.736,2.232C36.142,39.26,37.004,40,37.997,40z"/>
	<path d="M53.752,44.016l-16,2c-1.096,0.137-1.873,1.137-1.736,2.232C36.142,49.26,37.004,50,37.997,50
		c0.083,0,0.167-0.005,0.251-0.016l16-2c1.096-0.137,1.873-1.137,1.736-2.232C55.848,44.655,54.836,43.876,53.752,44.016z"/>
</g>
</svg>
