<svg xmlns="http://www.w3.org/2000/svg" width="64" height="64" viewBox="0 0 64 64"><path d="M41.414 48.414a2 2 0 1 0-2.828-2.828l-5.726 5.725 6 4-2.274 2.275a2 2 0 1 0 2.828 2.828l5.726-5.725-6-4 2.274-2.275zM25.414 48.414a2 2 0 1 0-2.828-2.828l-5.726 5.725 6 4-2.274 2.275a2 2 0 1 0 2.828 2.828l5.726-5.725-6-4 2.274-2.275zM55.926 23.186C55 11.901 45.52 3 34 3 23.776 3 14.958 9.635 12.409 19H12C5.383 19 0 24.383 0 31s5.383 12 12 12h42c5.514 0 10-4.486 10-10 0-4.855-3.479-8.914-8.074-9.814zM54 39H12c-4.411 0-8-3.589-8-8s3.589-8 8-8h2a2 2 0 0 0 1.966-1.63C17.531 13.043 25.115 7 34 7c9.925 0 18 8.075 18 18a2 2 0 0 0 2 2c3.309 0 6 2.691 6 6s-2.691 6-6 6z"/></svg>