<?xml version="1.0" encoding="utf-8"?>
<!-- Generator: Adobe Illustrator 16.0.0, SVG Export Plug-In . SVG Version: 6.00 Build 0)  -->
<!DOCTYPE svg PUBLIC "-//W3C//DTD SVG 1.1//EN" "http://www.w3.org/Graphics/SVG/1.1/DTD/svg11.dtd">
<svg version="1.1" id="Ebene_1" xmlns="http://www.w3.org/2000/svg" xmlns:xlink="http://www.w3.org/1999/xlink" x="0px" y="0px"
	 width="64px" height="64px" viewBox="0 0 64 64" enable-background="new 0 0 64 64" xml:space="preserve">
<g>
	<path d="M41.414,48.414c0.781-0.781,0.781-2.047,0-2.828c-0.781-0.781-2.047-0.781-2.828,0l-5.726,5.725l6,4l-2.274,2.275
		c-0.781,0.781-0.781,2.047,0,2.828C36.977,60.805,37.488,61,38,61s1.023-0.195,1.414-0.586l5.726-5.725l-6-4L41.414,48.414z"/>
	<path d="M25.414,48.414c0.781-0.781,0.781-2.047,0-2.828c-0.781-0.781-2.047-0.781-2.828,0l-5.726,5.725l6,4l-2.274,2.275
		c-0.781,0.781-0.781,2.047,0,2.828C20.977,60.805,21.488,61,22,61s1.023-0.195,1.414-0.586l5.726-5.725l-6-4L25.414,48.414z"/>
	<path d="M55.926,23.186C55,11.901,45.52,3,34,3C23.776,3,14.958,9.635,12.409,19H12C5.383,19,0,24.383,0,31s5.383,12,12,12h42
		c5.514,0,10-4.486,10-10C64,28.145,60.521,24.086,55.926,23.186z M54,39H12c-4.411,0-8-3.589-8-8s3.589-8,8-8h2
		c0.962,0,1.788-0.685,1.966-1.63C17.531,13.043,25.115,7,34,7c9.925,0,18,8.075,18,18c0,1.104,0.896,2,2,2c3.309,0,6,2.691,6,6
		S57.309,39,54,39z"/>
</g>
</svg>
