<svg xmlns="http://www.w3.org/2000/svg" width="64" height="64" viewBox="0 0 64 64"><path d="M32 14c-9.925 0-18 8.075-18 18s8.075 18 18 18 18-8.075 18-18-8.075-18-18-18zm0 32c-7.72 0-14-6.28-14-14s6.28-14 14-14 14 6.28 14 14-6.28 14-14 14zM30 2v8a2 2 0 0 0 4 0V2a2 2 0 0 0-4 0zM32 52a2 2 0 0 0-2 2v8a2 2 0 0 0 4 0v-8a2 2 0 0 0-2-2zM62 30h-8a2 2 0 0 0 0 4h8a2 2 0 0 0 0-4zM12 32a2 2 0 0 0-2-2H2a2 2 0 0 0 0 4h8a2 2 0 0 0 2-2zM50.586 10.586l-4 4a2 2 0 1 0 2.828 2.828l4-4a2 2 0 1 0-2.828-2.828zM14.586 46.586l-4 4a2 2 0 1 0 2.828 2.828l4-4a2 2 0 1 0-2.828-2.828zM49.414 46.586a2 2 0 1 0-2.828 2.828l4 4c.39.391.902.586 1.414.586s1.024-.195 1.414-.586a2 2 0 0 0 0-2.828l-4-4zM10.586 10.586a2 2 0 0 0 0 2.828l4 4c.39.391.902.586 1.414.586s1.024-.195 1.414-.586a2 2 0 0 0 0-2.828l-4-4a2 2 0 0 0-2.828 0z"/></svg>