<?xml version="1.0" encoding="utf-8"?>
<!-- Generator: Adobe Illustrator 16.0.0, SVG Export Plug-In . SVG Version: 6.00 Build 0)  -->
<!DOCTYPE svg PUBLIC "-//W3C//DTD SVG 1.1//EN" "http://www.w3.org/Graphics/SVG/1.1/DTD/svg11.dtd">
<svg version="1.1" id="Ebene_1" xmlns="http://www.w3.org/2000/svg" xmlns:xlink="http://www.w3.org/1999/xlink" x="0px" y="0px"
	 width="64px" height="64px" viewBox="0 0 64 64" enable-background="new 0 0 64 64" xml:space="preserve">
<g>
	<path d="M62,38H2c-1.104,0-2,0.896-2,2s0.896,2,2,2h60c1.104,0,2-0.896,2-2S63.104,38,62,38z"/>
	<path d="M62,30H2c-1.104,0-2,0.896-2,2s0.896,2,2,2h60c1.104,0,2-0.896,2-2S63.104,30,62,30z"/>
	<path d="M62,22H2c-1.104,0-2,0.896-2,2s0.896,2,2,2h60c1.104,0,2-0.896,2-2S63.104,22,62,22z"/>
</g>
</svg>
