<?xml version="1.0" encoding="utf-8"?>
<!-- Generator: Adobe Illustrator 16.0.0, SVG Export Plug-In . SVG Version: 6.00 Build 0)  -->
<!DOCTYPE svg PUBLIC "-//W3C//DTD SVG 1.1//EN" "http://www.w3.org/Graphics/SVG/1.1/DTD/svg11.dtd">
<svg version="1.1" id="Ebene_1" xmlns="http://www.w3.org/2000/svg" xmlns:xlink="http://www.w3.org/1999/xlink" x="0px" y="0px"
	 width="64px" height="64px" viewBox="0 0 64 64" enable-background="new 0 0 64 64" xml:space="preserve">
<g>
	<path d="M0.586,41.414l5.344,5.343c0.781,0.781,2.048,0.781,2.828,0C9.891,45.624,11.397,45,13,45c3.309,0,6,2.691,6,6
		c0,1.603-0.625,3.109-1.758,4.243c-0.375,0.375-0.586,0.884-0.586,1.414s0.211,1.039,0.586,1.414l5.344,5.343
		C22.977,63.805,23.488,64,24,64s1.024-0.195,1.414-0.586l38-38C63.79,25.039,64,24.53,64,24s-0.211-1.039-0.586-1.414l-5.344-5.343
		c-0.781-0.781-2.048-0.781-2.828,0C54.109,18.376,52.603,19,51,19c-3.309,0-6-2.691-6-6c0-1.603,0.625-3.109,1.758-4.243
		c0.375-0.375,0.586-0.884,0.586-1.414s-0.211-1.039-0.586-1.414l-5.344-5.343c-0.781-0.781-2.048-0.781-2.828,0l-38,38
		C0.21,38.961,0,39.47,0,40S0.211,41.039,0.586,41.414z M26,18.828l1.586,1.586C27.976,20.805,28.488,21,29,21
		s1.024-0.195,1.414-0.586c0.781-0.781,0.781-2.047,0-2.828L28.828,16L40,4.828l2.656,2.655C41.579,9.105,41,11.009,41,13
		c0,5.514,4.486,10,10,10c1.992,0,3.894-0.578,5.516-1.655L59.171,24L48,35.172l-1.586-1.586c-0.78-0.781-2.048-0.781-2.828,0
		c-0.781,0.781-0.781,2.047,0,2.828L45.172,38L24,59.172l-2.656-2.655C22.421,54.895,23,52.991,23,51c0-5.514-4.486-10-10-10
		c-1.992,0-3.894,0.578-5.516,1.655L4.829,40L26,18.828z"/>
	<path d="M33.586,26.414C33.976,26.805,34.488,27,35,27s1.024-0.195,1.414-0.586c0.781-0.781,0.781-2.047,0-2.828l-2-2
		c-0.78-0.781-2.048-0.781-2.828,0c-0.781,0.781-0.781,2.047,0,2.828L33.586,26.414z"/>
	<path d="M37.586,30.414l2,2C39.976,32.805,40.488,33,41,33s1.024-0.195,1.414-0.586c0.781-0.781,0.781-2.047,0-2.828l-2-2
		c-0.78-0.781-2.048-0.781-2.828,0C36.805,28.367,36.805,29.633,37.586,30.414z"/>
</g>
</svg>
