<?xml version="1.0" encoding="utf-8"?>
<!-- Generator: Adobe Illustrator 16.0.0, SVG Export Plug-In . SVG Version: 6.00 Build 0)  -->
<!DOCTYPE svg PUBLIC "-//W3C//DTD SVG 1.1//EN" "http://www.w3.org/Graphics/SVG/1.1/DTD/svg11.dtd">
<svg version="1.1" id="Ebene_1" xmlns="http://www.w3.org/2000/svg" xmlns:xlink="http://www.w3.org/1999/xlink" x="0px" y="0px"
	 width="64px" height="64px" viewBox="0 0 64 64" enable-background="new 0 0 64 64" xml:space="preserve">
<g>
	<path d="M22.211,1.105L19.764,6H10C8.896,6,8,6.896,8,8v54c0,1.104,0.896,2,2,2h44c1.104,0,2-0.896,2-2V8c0-1.104-0.896-2-2-2
		h-9.764l-2.447-4.895C41.45,0.428,40.758,0,40,0H24C23.242,0,22.55,0.428,22.211,1.105z M52,10v50H12V10h5.764l-1.553,3.105
		c-0.31,0.62-0.276,1.356,0.088,1.946C16.663,15.641,17.307,16,18,16h28c0.008,0,0.015,0,0.02,0c1.105,0,2-0.896,2-2
		c0-0.418-0.128-0.806-0.347-1.126L46.236,10H52z M38.764,4l4,8H21.236l4-8H38.764z"/>
	<path d="M40,32h-6v-6c0-1.104-0.896-2-2-2s-2,0.896-2,2v6h-6c-1.104,0-2,0.896-2,2s0.896,2,2,2h6v6c0,1.104,0.896,2,2,2
		s2-0.896,2-2v-6h6c1.104,0,2-0.896,2-2S41.104,32,40,32z"/>
</g>
</svg>
