<?xml version="1.0" encoding="utf-8"?>
<!-- Generator: Adobe Illustrator 16.0.0, SVG Export Plug-In . SVG Version: 6.00 Build 0)  -->
<!DOCTYPE svg PUBLIC "-//W3C//DTD SVG 1.1//EN" "http://www.w3.org/Graphics/SVG/1.1/DTD/svg11.dtd">
<svg version="1.1" id="Ebene_1" xmlns="http://www.w3.org/2000/svg" xmlns:xlink="http://www.w3.org/1999/xlink" x="0px" y="0px"
	 width="64px" height="64px" viewBox="0 0 64 64" enable-background="new 0 0 64 64" xml:space="preserve">
<g>
	<path d="M39,0H25c-1.104,0-2,0.896-2,2v6H10c-1.104,0-2,0.896-2,2s0.896,2,2,2h2v50c0,1.104,0.896,2,2,2h36c1.104,0,2-0.896,2-2V12
		h2c1.104,0,2-0.896,2-2s-0.896-2-2-2H41V2C41,0.896,40.104,0,39,0z M48,12v48H16V12H48z M27,8V4h10v4H27z"/>
	<path d="M26,56c1.104,0,2-0.896,2-2V20c0-1.104-0.896-2-2-2s-2,0.896-2,2v34C24,55.104,24.896,56,26,56z"/>
	<path d="M38,56c1.104,0,2-0.896,2-2V20c0-1.104-0.896-2-2-2s-2,0.896-2,2v34C36,55.104,36.896,56,38,56z"/>
</g>
</svg>
