<?xml version="1.0" encoding="utf-8"?>
<!-- Generator: Adobe Illustrator 16.0.0, SVG Export Plug-In . SVG Version: 6.00 Build 0)  -->
<!DOCTYPE svg PUBLIC "-//W3C//DTD SVG 1.1//EN" "http://www.w3.org/Graphics/SVG/1.1/DTD/svg11.dtd">
<svg version="1.1" id="Ebene_1" xmlns="http://www.w3.org/2000/svg" xmlns:xlink="http://www.w3.org/1999/xlink" x="0px" y="0px"
	 width="64px" height="64px" viewBox="0 0 64 64" enable-background="new 0 0 64 64" xml:space="preserve">
<g>
	<path d="M62,4H42c-0.63,0-1.223,0.296-1.6,0.8L35,12h-6l-5.4-7.2C23.223,4.296,22.63,4,22,4H2C0.896,4,0,4.896,0,6v16
		c0,1.104,0.896,2,2,2h10v34c0,1.104,0.896,2,2,2h36c1.104,0,2-0.896,2-2V24h10c1.104,0,2-0.896,2-2V6C64,4.896,63.104,4,62,4z
		 M60,20H50c-1.104,0-2,0.896-2,2v34H16V22c0-1.104-0.896-2-2-2H4V8h17l5.4,7.2c0.377,0.503,0.97,0.8,1.6,0.8h8
		c0.63,0,1.223-0.296,1.6-0.8L43,8h17V20z"/>
</g>
</svg>
