<svg xmlns="http://www.w3.org/2000/svg" width="64" height="64" viewBox="0 0 64 64"><path d="M49.854 34.186c-.004-.029-.011-.056-.014-.085C51.99 32.365 54 30.006 54 26c0-6.925-5.607-13-12-13-3.582 0-6.875 1.562-9.162 4.281A26.677 26.677 0 0 0 29 17c-8.3 0-14.011 4.279-17.422 13.07C6.922 30.511 0 33.15 0 41c0 4.978 3.711 10 12 10h36c5.532 0 8-2.467 8-8 0-4.736-2.356-8.021-6.146-8.814zM42 17c4.579 0 8 4.751 8 9 0 1.434-.361 2.531-1.252 3.61-1.916-5.266-5.914-9.197-11.314-11.173A7.93 7.93 0 0 1 42 17zm6 30H12c-5.898 0-8-3.1-8-6 0-2.851 1.363-4.81 4.168-5.987C10.523 34.024 12.98 34 13 34h1.424l.466-1.345C17.684 24.595 22.035 21 29 21c10.055 0 16.569 5.783 17.002 15.093L46.091 38H48c3.306 0 4 2.719 4 5 0 3.327-.673 4-4 4zM62 23h-4a2 2 0 0 0 0 4h4a2 2 0 0 0 0-4zM44 9V5a2 2 0 0 0-4 0v4a2 2 0 0 0 4 0zM54.414 13.414l3-3a2 2 0 1 0-2.828-2.828l-3 3a2 2 0 1 0 2.828 2.828zM31 14a2 2 0 0 0 1.414-3.414l-3-3a2 2 0 1 0-2.828 2.828l3 3c.391.391.902.586 1.414.586z"/></svg>