<?xml version="1.0" encoding="utf-8"?>
<!-- Generator: Adobe Illustrator 16.0.0, SVG Export Plug-In . SVG Version: 6.00 Build 0)  -->
<!DOCTYPE svg PUBLIC "-//W3C//DTD SVG 1.1//EN" "http://www.w3.org/Graphics/SVG/1.1/DTD/svg11.dtd">
<svg version="1.1" id="Ebene_1" xmlns="http://www.w3.org/2000/svg" xmlns:xlink="http://www.w3.org/1999/xlink" x="0px" y="0px"
	 width="64px" height="64px" viewBox="0 0 64 64" enable-background="new 0 0 64 64" xml:space="preserve">
<g>
	<path d="M62.97,18.251c-0.635-0.354-1.413-0.332-2.03,0.053L48,26.392V20c0-1.104-0.896-2-2-2h-5.172l-8-8H6c-1.104,0-2,0.896-2,2
		s0.896,2,2,2h25.171l4,4H2c-1.104,0-2,0.896-2,2v32c0,1.104,0.896,2,2,2h44c1.104,0,2-0.896,2-2v-6.392l12.94,8.088
		C61.264,53.898,61.631,54,62,54c0.333,0,0.667-0.083,0.97-0.251C63.605,53.396,64,52.727,64,52V20
		C64,19.273,63.605,18.604,62.97,18.251z M60,48.392l-12.94-8.088c-0.617-0.386-1.394-0.406-2.03-0.053
		C44.395,40.604,44,41.273,44,42v8H4V22h40v8c0,0.727,0.395,1.396,1.03,1.749c0.637,0.354,1.414,0.333,2.03-0.053L60,23.608V48.392z
		"/>
	<path d="M8,30h4c1.104,0,2-0.896,2-2s-0.896-2-2-2H8c-1.104,0-2,0.896-2,2S6.896,30,8,30z"/>
	<path d="M24,34H8c-1.104,0-2,0.896-2,2v8c0,1.104,0.896,2,2,2h16c1.104,0,2-0.896,2-2v-8C26,34.896,25.104,34,24,34z M22,42H10v-4
		h12V42z"/>
</g>
</svg>
