<svg xmlns="http://www.w3.org/2000/svg" width="64" height="64"><path d="M62.97 18.251a1.998 1.998 0 0 0-2.03.053L48 26.392V20a2 2 0 0 0-2-2h-5.172l-8-8H6a2 2 0 0 0 0 4h25.171l4 4H2a2 2 0 0 0-2 2v32a2 2 0 0 0 2 2h44a2 2 0 0 0 2-2v-6.392l12.94 8.088A2 2 0 0 0 64 52V20c0-.727-.395-1.396-1.03-1.749zM60 48.392l-12.94-8.088A1.998 1.998 0 0 0 44 42v8H4V22h40v8a2.002 2.002 0 0 0 3.06 1.696L60 23.608v24.784z"/><path d="M8 30h4a2 2 0 0 0 0-4H8a2 2 0 0 0 0 4zM24 34H8a2 2 0 0 0-2 2v8a2 2 0 0 0 2 2h16a2 2 0 0 0 2-2v-8a2 2 0 0 0-2-2zm-2 8H10v-4h12v4z"/></svg>