<svg xmlns="http://www.w3.org/2000/svg" width="64" height="64" viewBox="0 0 64 64"><path d="M3 46h11.172l17.414 17.414a1.996 1.996 0 0 0 2.18.434A2 2 0 0 0 35 62V2A2 2 0 0 0 31.586.586L14.172 18H3a2 2 0 0 0-2 2v24a2 2 0 0 0 2 2zm2-24h10a2 2 0 0 0 1.414-.586L31 6.829v50.343L16.414 42.586A2 2 0 0 0 15 42H5V22zM41 40a2 2 0 0 0 0 4c6.617 0 12-5.383 12-12s-5.383-12-12-12a2 2 0 0 0 0 4c4.411 0 8 3.589 8 8s-3.589 8-8 8z"/><path d="M41 54c12.131 0 22-9.869 22-22s-9.869-22-22-22a2 2 0 0 0 0 4c9.925 0 18 8.075 18 18s-8.075 18-18 18a2 2 0 0 0 0 4z"/></svg>