<svg xmlns="http://www.w3.org/2000/svg" viewBox="0 0 64 64"><path d="M4 46h11.172l17.414 17.414a1.996 1.996 0 002.18.434A2 2 0 0036 62V2A2 2 0 0032.586.586L15.172 18H4a2 2 0 00-2 2v24a2 2 0 002 2zm2-24h10a2 2 0 001.414-.586L32 6.829v50.343L17.414 42.586A2 2 0 0016 42H6V22zM40.586 42.414c.391.391.902.586 1.414.586s1.023-.195 1.414-.586L51 34.828l7.586 7.586c.391.391.902.586 1.414.586s1.023-.195 1.414-.586a2 2 0 000-2.828L53.828 32l7.586-7.586a2 2 0 10-2.828-2.828L51 29.172l-7.586-7.586a2 2 0 10-2.828 2.828L48.172 32l-7.586 7.586a2 2 0 000 2.828z"/></svg>