<?xml version="1.0" encoding="utf-8"?>
<!-- Generator: Adobe Illustrator 16.0.0, SVG Export Plug-In . SVG Version: 6.00 Build 0)  -->
<!DOCTYPE svg PUBLIC "-//W3C//DTD SVG 1.1//EN" "http://www.w3.org/Graphics/SVG/1.1/DTD/svg11.dtd">
<svg version="1.1" id="Ebene_1" xmlns="http://www.w3.org/2000/svg" xmlns:xlink="http://www.w3.org/1999/xlink" x="0px" y="0px"
	 width="64px" height="64px" viewBox="0 0 64 64" enable-background="new 0 0 64 64" xml:space="preserve">
<g>
	<path d="M3,46h11.172l17.414,17.414C31.969,63.797,32.479,64,33,64c0.258,0,0.518-0.05,0.766-0.152C34.513,63.538,35,62.809,35,62
		V2c0-0.809-0.487-1.538-1.234-1.848c-0.75-0.31-1.607-0.14-2.18,0.434L14.172,18H3c-1.104,0-2,0.896-2,2v24C1,45.104,1.896,46,3,46
		z M5,22h10c0.53,0,1.039-0.211,1.414-0.586L31,6.829v50.343L16.414,42.586C16.039,42.211,15.53,42,15,42H5V22z"/>
	<path d="M41,40c-1.104,0-2,0.896-2,2s0.896,2,2,2c6.617,0,12-5.383,12-12s-5.383-12-12-12c-1.104,0-2,0.896-2,2s0.896,2,2,2
		c4.411,0,8,3.589,8,8S45.411,40,41,40z"/>
	<path d="M41,54c12.131,0,22-9.869,22-22s-9.869-22-22-22c-1.104,0-2,0.896-2,2s0.896,2,2,2c9.925,0,18,8.075,18,18s-8.075,18-18,18
		c-1.104,0-2,0.896-2,2S39.896,54,41,54z"/>
</g>
</svg>
