<svg xmlns="http://www.w3.org/2000/svg" width="64" height="64"><path d="M20 64h24a2 2 0 0 0 2-2V48.958c4.883-4.039 8-10.141 8-16.958s-3.117-12.919-8-16.958V2a2 2 0 0 0-2-2H20a2 2 0 0 0-2 2v13.042C13.117 19.081 10 25.183 10 32s3.117 12.919 8 16.958V62a2 2 0 0 0 2 2zm22-4H22v-8.414C25.003 53.125 28.4 54 32 54s6.997-.875 10-2.414V60zM22 4h20v8.414C38.997 10.875 35.6 10 32 10s-6.997.875-10 2.414V4zm-8 28c0-9.925 8.075-18 18-18s18 8.075 18 18-8.075 18-18 18-18-8.075-18-18z"/><path d="M31.105 33.789l8 4a2 2 0 0 0 1.79-3.578L34 30.764V20a2 2 0 0 0-4 0v12a2 2 0 0 0 1.105 1.789z"/></svg>