<?xml version="1.0" encoding="utf-8"?>
<!-- Generator: Adobe Illustrator 16.0.0, SVG Export Plug-In . SVG Version: 6.00 Build 0)  -->
<!DOCTYPE svg PUBLIC "-//W3C//DTD SVG 1.1//EN" "http://www.w3.org/Graphics/SVG/1.1/DTD/svg11.dtd">
<svg version="1.1" id="Ebene_1" xmlns="http://www.w3.org/2000/svg" xmlns:xlink="http://www.w3.org/1999/xlink" x="0px" y="0px"
	 width="64px" height="64px" viewBox="0 0 64 64" enable-background="new 0 0 64 64" xml:space="preserve">
<g>
	<path d="M20,64h24c1.104,0,2-0.896,2-2V48.958c4.883-4.039,8-10.141,8-16.958s-3.117-12.919-8-16.958V2c0-1.104-0.896-2-2-2H20
		c-1.104,0-2,0.896-2,2v13.042C13.117,19.081,10,25.183,10,32s3.117,12.919,8,16.958V62C18,63.104,18.896,64,20,64z M42,60H22
		v-8.414C25.003,53.125,28.4,54,32,54s6.997-0.875,10-2.414V60z M22,4h20v8.414C38.997,10.875,35.6,10,32,10s-6.997,0.875-10,2.414
		V4z M14,32c0-9.925,8.075-18,18-18s18,8.075,18,18s-8.075,18-18,18S14,41.925,14,32z"/>
	<path d="M31.105,33.789l8,4C39.393,37.933,39.698,38,39.999,38c0.733,0,1.44-0.404,1.791-1.105
		c0.494-0.988,0.093-2.189-0.895-2.684L34,30.764V20c0-1.104-0.896-2-2-2s-2,0.896-2,2v12C30,32.758,30.428,33.45,31.105,33.789z"/>
</g>
</svg>
