<?xml version="1.0" encoding="utf-8"?>
<!-- Generator: Adobe Illustrator 16.0.0, SVG Export Plug-In . SVG Version: 6.00 Build 0)  -->
<!DOCTYPE svg PUBLIC "-//W3C//DTD SVG 1.1//EN" "http://www.w3.org/Graphics/SVG/1.1/DTD/svg11.dtd">
<svg version="1.1" id="Ebene_1" xmlns="http://www.w3.org/2000/svg" xmlns:xlink="http://www.w3.org/1999/xlink" x="0px" y="0px"
	 width="64px" height="64px" viewBox="0 0 64 64" enable-background="new 0 0 64 64" xml:space="preserve">
<g>
	<path d="M20,44c-1.104,0-2,0.896-2,2v6c0,1.104,0.896,2,2,2s2-0.896,2-2v-6C22,44.896,21.104,44,20,44z"/>
	<path d="M36,44c-1.104,0-2,0.896-2,2v8c0,1.104,0.896,2,2,2s2-0.896,2-2v-8C38,44.896,37.104,44,36,44z"/>
	<path d="M28,44c-1.104,0-2,0.896-2,2v14c0,1.104,0.896,2,2,2s2-0.896,2-2V46C30,44.896,29.104,44,28,44z"/>
	<path d="M44,44c-1.104,0-2,0.896-2,2v14c0,1.104,0.896,2,2,2s2-0.896,2-2V46C46,44.896,45.104,44,44,44z"/>
	<path d="M55.926,22.186C55,10.901,45.52,2,34,2C23.776,2,14.958,8.635,12.409,18H12C5.383,18,0,23.383,0,30s5.383,12,12,12h42
		c5.514,0,10-4.486,10-10C64,27.145,60.521,23.086,55.926,22.186z M54,38H12c-4.411,0-8-3.589-8-8s3.589-8,8-8h2
		c0.962,0,1.788-0.685,1.966-1.63C17.531,12.043,25.115,6,34,6c9.925,0,18,8.075,18,18c0,1.104,0.896,2,2,2c3.309,0,6,2.691,6,6
		S57.309,38,54,38z"/>
</g>
</svg>
