<?xml version="1.0" encoding="utf-8"?>
<!-- Generator: Adobe Illustrator 16.0.0, SVG Export Plug-In . SVG Version: 6.00 Build 0)  -->
<!DOCTYPE svg PUBLIC "-//W3C//DTD SVG 1.1//EN" "http://www.w3.org/Graphics/SVG/1.1/DTD/svg11.dtd">
<svg version="1.1" id="Ebene_1" xmlns="http://www.w3.org/2000/svg" xmlns:xlink="http://www.w3.org/1999/xlink" x="0px" y="0px"
	 width="64px" height="64px" viewBox="0 0 64 64" enable-background="new 0 0 64 64" xml:space="preserve">
<g>
	<path d="M2,59h60c1.104,0,2-0.896,2-2V7c0-1.104-0.896-2-2-2H2C0.896,5,0,5.896,0,7v50C0,58.104,0.896,59,2,59z M4,55V21h56v34H4z
		 M60,9v8H4V9H60z"/>
	<path d="M10,15c0.52,0,1.04-0.21,1.42-0.59C11.79,14.04,12,13.53,12,13c0-0.52-0.21-1.04-0.59-1.41c-0.74-0.75-2.08-0.75-2.82,0
		C8.21,11.96,8,12.47,8,13c0,0.53,0.21,1.04,0.59,1.42C8.96,14.79,9.479,15,10,15z"/>
	<path d="M16,15c0.52,0,1.04-0.21,1.41-0.59C17.79,14.04,18,13.53,18,13c0-0.53-0.21-1.04-0.59-1.41c-0.74-0.75-2.08-0.75-2.82,0
		C14.21,11.96,14,12.47,14,13c0,0.53,0.21,1.04,0.59,1.42C14.96,14.79,15.47,15,16,15z"/>
	<path d="M22,15c0.53,0,1.04-0.21,1.41-0.58C23.79,14.04,24,13.53,24,13c0-0.53-0.21-1.04-0.59-1.42c-0.74-0.74-2.08-0.74-2.82,0.01
		C20.21,11.96,20,12.48,20,13c0,0.53,0.21,1.04,0.59,1.42C20.96,14.79,21.47,15,22,15z"/>
	<path d="M54,25H10c-1.104,0-2,0.896-2,2s0.896,2,2,2h44c1.104,0,2-0.896,2-2S55.104,25,54,25z"/>
	<path d="M54,33H10c-1.104,0-2,0.896-2,2s0.896,2,2,2h44c1.104,0,2-0.896,2-2S55.104,33,54,33z"/>
	<path d="M54,41H10c-1.104,0-2,0.896-2,2s0.896,2,2,2h44c1.104,0,2-0.896,2-2S55.104,41,54,41z"/>
</g>
</svg>
