<?xml version="1.0" encoding="utf-8"?>
<!-- Generator: Adobe Illustrator 16.0.0, SVG Export Plug-In . SVG Version: 6.00 Build 0)  -->
<!DOCTYPE svg PUBLIC "-//W3C//DTD SVG 1.1//EN" "http://www.w3.org/Graphics/SVG/1.1/DTD/svg11.dtd">
<svg version="1.1" id="Ebene_1" xmlns="http://www.w3.org/2000/svg" xmlns:xlink="http://www.w3.org/1999/xlink" x="0px" y="0px"
	 width="64px" height="64px" viewBox="0 0 64 64" enable-background="new 0 0 64 64" xml:space="preserve">
<g>
	<path d="M62,5H2C0.896,5,0,5.896,0,7v50c0,1.104,0.896,2,2,2h60c1.104,0,2-0.896,2-2V7C64,5.896,63.104,5,62,5z M60,9v8H4V9H60z
		 M4,55V21h56v34H4z"/>
	<path d="M10,15c0.52,0,1.04-0.21,1.41-0.59C11.79,14.04,12,13.52,12,13s-0.21-1.04-0.59-1.42c-0.74-0.74-2.08-0.74-2.83,0.01
		C8.21,11.96,8,12.47,8,13c0,0.53,0.21,1.04,0.59,1.42C8.96,14.79,9.479,15,10,15z"/>
	<path d="M16,15c0.52,0,1.04-0.21,1.42-0.59C17.79,14.04,18,13.52,18,13s-0.21-1.04-0.59-1.42c-0.74-0.74-2.08-0.74-2.83,0.01
		C14.21,11.96,14,12.48,14,13s0.21,1.04,0.59,1.42C14.96,14.79,15.479,15,16,15z"/>
	<path d="M22,15c0.53,0,1.04-0.21,1.41-0.59C23.79,14.04,24,13.53,24,13c0-0.52-0.21-1.04-0.59-1.42c-0.74-0.74-2.08-0.74-2.83,0.01
		C20.21,11.96,20,12.48,20,13c0,0.53,0.21,1.04,0.59,1.41C20.96,14.79,21.479,15,22,15z"/>
	<path d="M31,25H10c-1.104,0-2,0.896-2,2s0.896,2,2,2h21c1.104,0,2-0.896,2-2S32.104,25,31,25z"/>
	<path d="M31,33H10c-1.104,0-2,0.896-2,2s0.896,2,2,2h21c1.104,0,2-0.896,2-2S32.104,33,31,33z"/>
	<path d="M31,41H10c-1.104,0-2,0.896-2,2s0.896,2,2,2h21c1.104,0,2-0.896,2-2S32.104,41,31,41z"/>
	<path d="M54,25H39c-1.104,0-2,0.896-2,2v16c0,1.104,0.896,2,2,2h15c1.104,0,2-0.896,2-2V27C56,25.896,55.104,25,54,25z M52,41H41
		V29h11V41z"/>
</g>
</svg>
