<svg xmlns="http://www.w3.org/2000/svg" width="64" height="64" viewBox="0 0 64 64"><path d="M62 5H2a2 2 0 0 0-2 2v50a2 2 0 0 0 2 2h60a2 2 0 0 0 2-2V7a2 2 0 0 0-2-2zm-2 4v8H4V9h56zM4 55V21h56v34H4z"/><path d="M10 15c.52 0 1.04-.21 1.41-.59.38-.37.59-.89.59-1.41s-.21-1.04-.59-1.42c-.74-.74-2.08-.74-2.83.01a2.006 2.006 0 0 0 .01 2.83c.37.37.889.58 1.41.58zM16 15c.52 0 1.04-.21 1.42-.59.37-.37.58-.89.58-1.41s-.21-1.04-.59-1.42c-.74-.74-2.08-.74-2.83.01-.37.37-.58.89-.58 1.41s.21 1.04.59 1.42c.37.37.889.58 1.41.58zM22 15c.53 0 1.04-.21 1.41-.59.38-.37.59-.88.59-1.41 0-.52-.21-1.04-.59-1.42-.74-.74-2.08-.74-2.83.01-.37.37-.58.89-.58 1.41 0 .53.21 1.04.59 1.41.37.38.889.59 1.41.59zM31 25H10a2 2 0 0 0 0 4h21a2 2 0 0 0 0-4zM31 33H10a2 2 0 0 0 0 4h21a2 2 0 0 0 0-4zM31 41H10a2 2 0 0 0 0 4h21a2 2 0 0 0 0-4zM54 25H39a2 2 0 0 0-2 2v16a2 2 0 0 0 2 2h15a2 2 0 0 0 2-2V27a2 2 0 0 0-2-2zm-2 16H41V29h11v12z"/></svg>