<svg xmlns="http://www.w3.org/2000/svg" width="64" height="64"><path d="M2 59h60a2 2 0 0 0 2-2V7a2 2 0 0 0-2-2H2a2 2 0 0 0-2 2v50a2 2 0 0 0 2 2zm2-4V21h56v34H4zM60 9v8H4V9h56z"/><path d="M10 15a1.998 1.998 0 0 0 2-2c0-.52-.21-1.04-.59-1.41-.74-.75-2.08-.75-2.82 0-.38.37-.59.88-.59 1.41 0 .53.21 1.04.59 1.42.37.37.889.58 1.41.58zM16 15c.52 0 1.04-.21 1.41-.59.38-.37.59-.88.59-1.41 0-.53-.21-1.04-.59-1.41-.74-.75-2.08-.75-2.82 0-.38.37-.59.88-.59 1.41a1.998 1.998 0 0 0 2 2zM22 15a1.998 1.998 0 0 0 2-2c0-.53-.21-1.04-.59-1.42-.74-.74-2.08-.74-2.82.01-.38.37-.59.89-.59 1.41a1.998 1.998 0 0 0 2 2zM54 25H10a2 2 0 0 0 0 4h44a2 2 0 0 0 0-4zM54 33H10a2 2 0 0 0 0 4h44a2 2 0 0 0 0-4zM54 41H10a2 2 0 0 0 0 4h44a2 2 0 0 0 0-4z"/></svg>