<svg xmlns="http://www.w3.org/2000/svg" width="64" height="64" viewBox="0 0 64 64"><path d="M46 0h-8a2 2 0 0 0-2 2v18.333c-2.011.667-4 2.39-4 5.667v36a2 2 0 0 0 2 2h16a2 2 0 0 0 2-2V26c0-3.277-1.989-5-4-5.667V2a2 2 0 0 0-2-2zm-8 24a2 2 0 0 0 2-2V4h4v18c0 1.085.892 1.972 1.977 2 .922.023 2.023.389 2.023 2v8H36v-8c0-1.611 1.101-1.977 2-2zm-2 14h12v8H36v-8zm0 22V50h12v10H36zM27.109 41.664c.557-.371.891-.995.891-1.664V24a2 2 0 0 0-2-2H14a2 2 0 0 0-2 2v16c0 .669.334 1.293.891 1.664L18 45.07V60h-3a2 2 0 0 0 0 4h10a2 2 0 0 0 0-4h-3V45.07l5.109-3.406zM16 26h8v12.93l-4 2.667-4-2.667V26z"/></svg>