<?xml version="1.0" standalone="no"?>
<!DOCTYPE svg PUBLIC "-//W3C//DTD SVG 1.1//EN" "http://www.w3.org/Graphics/SVG/1.1/DTD/svg11.dtd" >
<svg xmlns="http://www.w3.org/2000/svg">
<defs>
  <font id="heroicons-solid" horiz-adv-x="128">
    <font-face font-family="heroicons-solid"
      units-per-em="128" ascent="128"
      descent="0" />
    <missing-glyph horiz-adv-x="0" />
    <glyph glyph-name="academic-cap"
      unicode="&#xEA01;"
      horiz-adv-x="128" d="M66.5290853478505 114.688A6.4 6.4 0 0 1 61.4858853478505 114.688L16.6858853478505 95.488A6.4 6.4 0 0 1 16.6858853478505 83.712L33.6074853478505 76.4736A6.3936 6.3936 0 0 0 35.8858853478505 78.1184L61.4858853478505 89.088A6.4 6.4 0 1 0 66.5290853478505 77.3248L49.0762853478505 69.8368L61.4922853478505 64.5184A6.4 6.4 0 0 1 66.5290853478505 64.5184L111.3290853478505 83.7184A6.4 6.4 0 0 1 111.3290853478505 95.4816L66.5290853478505 114.6816zM21.1914853478505 67.8592L32.0074853478505 63.232V36.9792A57.4016 57.4016 0 0 1 25.2874853478505 38.0928A6.4 6.4 0 0 0 19.5914853478505 43.7888A71.136 71.136 0 0 0 21.1914853478505 67.8656zM59.5274853478505 21.9328A57.7664 57.7664 0 0 1 44.8074853478505 32.416V57.7408L56.4426853478505 52.7488A19.2 19.2 0 0 1 71.5722853478505 52.7488L106.8234853478505 67.8592A70.5664 70.5664 0 0 0 108.4234853478505 43.7824A6.4 6.4 0 0 0 102.7274853478505 38.0864A57.3952 57.3952 0 0 1 68.4874853478505 21.9328A6.4 6.4 0 0 0 59.5274853478505 21.9328zM38.4074853478505 12.8A6.4 6.4 0 0 1 44.8074853478505 19.2V32.416A57.184 57.184 0 0 1 32.0074853478505 36.9728V19.2A6.4 6.4 0 0 1 38.4074853478505 12.8z" />
    <glyph glyph-name="adjustments"
      unicode="&#xEA02;"
      horiz-adv-x="128" d="M32 102.4A6.4 6.4 0 0 1 19.2 102.4V55.8848A12.8 12.8 0 0 1 19.2 33.7152V25.6A6.4 6.4 0 1 1 32 25.6V33.7152A12.8 12.8 0 0 1 32 55.8848V102.4zM70.4 102.4A6.4 6.4 0 1 1 57.6 102.4V94.2848A12.8 12.8 0 0 1 57.6 72.1152V25.6A6.4 6.4 0 1 1 70.4 25.6V72.1152A12.8 12.8 0 0 1 70.4 94.2848V102.4zM102.4 108.8A6.4 6.4 0 0 0 108.8 102.4V55.8848A12.8 12.8 0 0 0 108.8 33.7152V25.6A6.4 6.4 0 1 0 96 25.6V33.7152A12.8 12.8 0 0 0 96 55.8848V102.4A6.4 6.4 0 0 0 102.4 108.8z" />
    <glyph glyph-name="annotation"
      unicode="&#xEA03;"
      horiz-adv-x="128" d="M115.2 44.8V96A12.8 12.8 0 0 1 102.4 108.8H25.6A12.8 12.8 0 0 1 12.8 96V44.8A12.8 12.8 0 0 1 25.6 32H44.8L64 12.8L83.2 32H102.4A12.8 12.8 0 0 1 115.2 44.8zM32 83.2A6.4 6.4 0 0 0 38.4 89.6H89.6A6.4 6.4 0 1 0 89.6 76.8H38.4A6.4 6.4 0 0 0 32 83.2zM38.4 64A6.4 6.4 0 1 1 38.4 51.2H57.6A6.4 6.4 0 1 1 57.6 64H38.4z" />
    <glyph glyph-name="archive"
      unicode="&#xEA04;"
      horiz-adv-x="128" d="M25.6 108.8A12.8 12.8 0 1 1 25.6 83.2H102.4A12.8 12.8 0 1 1 102.4 108.8H25.6zM19.2 76.8H108.8V32A12.8 12.8 0 0 0 96 19.2H32A12.8 12.8 0 0 0 19.2 32V76.8zM51.2 57.6A6.4 6.4 0 0 0 57.6 64H70.4A6.4 6.4 0 1 0 70.4 51.2H57.6A6.4 6.4 0 0 0 51.2 57.6z" />
    <glyph glyph-name="arrow-circle-down"
      unicode="&#xEA05;"
      horiz-adv-x="128" d="M63.9999994039536 12.8A51.2 51.2 0 1 1 63.9999994039536 115.2A51.2 51.2 0 0 1 63.9999994039536 12.8zM70.3999994039536 83.2A6.4 6.4 0 1 1 57.5999994039536 83.2V60.2496L49.3247994039536 68.5248A6.4 6.4 0 0 1 40.2751994039536 59.4752L59.4751994039536 40.2752A6.4 6.4 0 0 1 68.5247994039536 40.2752L87.7247994039535 59.4752A6.4 6.4 0 0 1 78.6751994039535 68.5248L70.3999994039536 60.2496V83.2z" />
    <glyph glyph-name="arrow-circle-left"
      unicode="&#xEA06;"
      horiz-adv-x="128" d="M63.9999994039536 12.8A51.2 51.2 0 1 1 63.9999994039536 115.2A51.2 51.2 0 0 1 63.9999994039536 12.8zM68.5247994039536 78.6752A6.4 6.4 0 0 1 59.4751994039536 87.7248L40.2751994039536 68.5248A6.4 6.4 0 0 1 40.2751994039536 59.4752L59.4751994039536 40.2752A6.4 6.4 0 0 1 68.5247994039536 49.3248L60.2495994039536 57.6H83.1999994039535A6.4 6.4 0 1 1 83.1999994039535 70.4H60.2495994039536L68.5247994039536 78.6752z" />
    <glyph glyph-name="arrow-circle-right"
      unicode="&#xEA07;"
      horiz-adv-x="128" d="M63.9999994039536 12.8A51.2 51.2 0 1 1 63.9999994039536 115.2A51.2 51.2 0 0 1 63.9999994039536 12.8zM87.7247994039536 68.5248L68.5247994039536 87.7248A6.4 6.4 0 0 1 59.4751994039536 78.6752L67.7503994039535 70.4H44.7999994039536A6.4 6.4 0 1 1 44.7999994039536 57.6H67.7503994039535L59.4751994039536 49.3248A6.4 6.4 0 1 1 68.5247994039536 40.2752L87.7247994039536 59.4752A6.4 6.4 0 0 1 87.7247994039536 68.5248z" />
    <glyph glyph-name="arrow-circle-up"
      unicode="&#xEA08;"
      horiz-adv-x="128" d="M63.9999994039536 12.8A51.2 51.2 0 1 1 63.9999994039536 115.2A51.2 51.2 0 0 1 63.9999994039536 12.8zM87.7247994039536 68.5248L68.5247994039536 87.7248A6.4 6.4 0 0 1 59.4751994039536 87.7248L40.2751994039536 68.5248A6.4 6.4 0 0 1 49.3247994039536 59.4752L57.5999994039536 67.7504V44.8A6.4 6.4 0 1 1 70.3999994039536 44.8V67.7504L78.6751994039535 59.4752A6.4 6.4 0 0 1 87.7247994039535 68.5248z" />
    <glyph glyph-name="arrow-down"
      unicode="&#xEA09;"
      horiz-adv-x="128" d="M106.964805606329 62.1248A6.4 6.4 0 0 0 106.964805606329 53.0752L68.564805606329 14.6752A6.4 6.4 0 0 0 59.515205606329 14.6752L21.115205606329 53.0752A6.4 6.4 0 1 0 30.164805606329 62.1248L57.640005606329 34.6496V108.8A6.4 6.4 0 0 0 70.440005606329 108.8V34.6496L97.915205606329 62.1248A6.4 6.4 0 0 0 106.964805606329 62.1248z" />
    <glyph glyph-name="arrow-left"
      unicode="&#xEA0A;"
      horiz-adv-x="128" d="M62.1241166519989 21.0752A6.4 6.4 0 0 0 53.0745166519989 21.0752L14.6745166519989 59.4752A6.4 6.4 0 0 0 14.6745166519989 68.5248L53.0745166519989 106.9248A6.4 6.4 0 0 0 62.1241166519989 97.8752L34.6489166519989 70.4H108.7993166519989A6.4 6.4 0 1 0 108.7993166519989 57.6H34.6489166519989L62.1241166519989 30.1248A6.4 6.4 0 0 0 62.1241166519989 21.0752z" />
    <glyph glyph-name="arrow-narrow-down"
      unicode="&#xEA0B;"
      horiz-adv-x="128" d="M94.164805606329 49.3248A6.4 6.4 0 0 0 94.164805606329 40.2752L68.564805606329 14.6752A6.4 6.4 0 0 0 59.515205606329 14.6752L33.915205606329 40.2752A6.4 6.4 0 1 0 42.964805606329 49.3248L57.640005606329 34.6496V108.8A6.4 6.4 0 0 0 70.440005606329 108.8V34.6496L85.115205606329 49.3248A6.4 6.4 0 0 0 94.164805606329 49.3248z" />
    <glyph glyph-name="arrow-narrow-left"
      unicode="&#xEA0C;"
      horiz-adv-x="128" d="M49.3241166519989 33.8752A6.4 6.4 0 0 0 40.2745166519989 33.8752L14.6745166519989 59.4752A6.4 6.4 0 0 0 14.6745166519989 68.5248L40.2745166519989 94.1248A6.4 6.4 0 0 0 49.3241166519989 85.0752L34.6489166519989 70.4H108.7993166519989A6.4 6.4 0 1 0 108.7993166519989 57.6H34.6489166519989L49.3241166519989 42.9248A6.4 6.4 0 0 0 49.3241166519989 33.8752z" />
    <glyph glyph-name="arrow-narrow-right"
      unicode="&#xEA0D;"
      horiz-adv-x="128" d="M78.6758833480011 94.1248A6.4 6.4 0 0 0 87.7254833480011 94.1248L113.3254833480012 68.5248A6.4 6.4 0 0 0 113.3254833480012 59.4752L87.7254833480012 33.8752A6.4 6.4 0 0 0 78.6758833480012 42.9248L93.3510833480011 57.6H19.2006833480011A6.4 6.4 0 1 0 19.2006833480011 70.4H93.3510833480011L78.6758833480011 85.0752A6.4 6.4 0 0 0 78.6758833480011 94.1248z" />
    <glyph glyph-name="arrow-narrow-up"
      unicode="&#xEA0E;"
      horiz-adv-x="128" d="M33.9138389103267 78.6752A6.4 6.4 0 0 0 33.9138389103267 87.7248L59.5138389103267 113.3248A6.4 6.4 0 0 0 68.5634389103267 113.3248L94.1634389103267 87.7248A6.4 6.4 0 0 0 85.1138389103267 78.6752L70.4386389103268 93.3504V19.2A6.4 6.4 0 1 0 57.6386389103267 19.2V93.3504L42.9634389103267 78.6752A6.4 6.4 0 0 0 33.9138389103267 78.6752z" />
    <glyph glyph-name="arrow-right"
      unicode="&#xEA0F;"
      horiz-adv-x="128" d="M65.8758833480011 106.9248A6.4 6.4 0 0 0 74.9254833480011 106.9248L113.3254833480012 68.5248A6.4 6.4 0 0 0 113.3254833480012 59.4752L74.9254833480011 21.0752A6.4 6.4 0 0 0 65.8758833480011 30.1248L93.3510833480011 57.6H19.2006833480011A6.4 6.4 0 1 0 19.2006833480011 70.4H93.3510833480011L65.8758833480011 97.8752A6.4 6.4 0 0 0 65.8758833480011 106.9248z" />
    <glyph glyph-name="arrow-up"
      unicode="&#xEA10;"
      horiz-adv-x="128" d="M21.1138389103267 65.8752A6.4 6.4 0 0 0 21.1138389103267 74.9248L59.5138389103267 113.3248A6.4 6.4 0 0 0 68.5634389103267 113.3248L106.9634389103268 74.9248A6.4 6.4 0 0 0 97.9138389103268 65.8752L70.4386389103268 93.3504V19.2A6.4 6.4 0 1 0 57.6386389103267 19.2V93.3504L30.1634389103267 65.8752A6.4 6.4 0 0 0 21.1138389103267 65.8752z" />
    <glyph glyph-name="arrows-expand"
      unicode="&#xEA11;"
      horiz-adv-x="121.60000000000001" d="M22.4 76.8V102.4M22.4 102.4H48M22.4 102.4L48 76.8M99.2 76.8V102.4M99.2 102.4H73.6M99.2 102.4L73.6 76.8M22.4 51.2V25.6M22.4 25.6H48M22.4 25.6L48 51.2M99.2 25.6L73.6 51.2M99.2 25.6V51.2M99.2 25.6H73.6" />
    <glyph glyph-name="at-symbol"
      unicode="&#xEA12;"
      horiz-adv-x="128" d="M91.1551992073501 91.1552A38.4 38.4 0 1 1 84.8447992073501 31.7376A6.4 6.4 0 1 0 91.8015992073501 20.9984A51.2 51.2 0 1 0 115.1999992073501 64A19.2 19.2 0 0 0 84.4799992073501 48.6336A25.6 25.6 0 1 0 89.5999992073501 64A6.4 6.4 0 1 1 102.3999992073501 64C102.3999992073501 73.8368 98.6495992073501 83.648 91.1551992073501 91.1552zM76.7999992073501 64A12.8 12.8 0 1 1 51.1999992073501 64A12.8 12.8 0 0 1 76.7999992073501 64z" />
    <glyph glyph-name="backspace"
      unicode="&#xEA13;"
      horiz-adv-x="128" d="M42.9241166519989 96.7744A19.2 19.2 0 0 0 56.4985166519989 102.4H95.9993166519989A19.2 19.2 0 0 0 115.1993166519989 83.2V44.8A19.2 19.2 0 0 0 95.9993166519989 25.6H56.4985166519989A19.2 19.2 0 0 0 42.9305166519989 31.2256L14.6745166519989 59.4752A6.4 6.4 0 0 0 14.6745166519989 68.5248L42.9241166519989 96.7744zM68.5241166519989 81.3248A6.4 6.4 0 0 1 59.4745166519989 72.2752L67.7497166519989 64L59.4745166519989 55.7248A6.4 6.4 0 1 1 68.5241166519989 46.6752L76.7993166519989 54.9504L85.0745166519989 46.6752A6.4 6.4 0 0 1 94.1241166519989 55.7248L85.8489166519989 64L94.1241166519989 72.2752A6.4 6.4 0 0 1 85.0745166519989 81.3248L76.7993166519989 73.0496L68.5241166519989 81.3248z" />
    <glyph glyph-name="badge-check"
      unicode="&#xEA14;"
      horiz-adv-x="128" d="M40.1088 105.888A19.6224 19.6224 0 0 1 51.2768 110.5152A19.6224 19.6224 0 0 0 76.7232 110.5152A19.6224 19.6224 0 0 1 87.8912 105.888A19.6224 19.6224 0 0 0 105.888 87.8912C106.2144 83.776 107.8336 79.8656 110.5152 76.7232A19.6224 19.6224 0 0 0 110.5152 51.2768A19.6224 19.6224 0 0 1 105.888 40.1088A19.6224 19.6224 0 0 0 87.8912 22.112A19.6224 19.6224 0 0 1 76.7232 17.4848A19.6224 19.6224 0 0 0 51.2768 17.4848A19.6224 19.6224 0 0 1 40.1088 22.112A19.6224 19.6224 0 0 0 22.112 40.1088A19.6224 19.6224 0 0 1 17.4848 51.2768A19.6224 19.6224 0 0 0 17.4848 76.7232A19.6224 19.6224 0 0 1 22.112 87.8912A19.6224 19.6224 0 0 0 40.1088 105.888zM87.7248 72.2752A6.4 6.4 0 0 1 78.6752 81.3248L57.6 60.2496L49.3248 68.5248A6.4 6.4 0 0 1 40.2752 59.4752L53.0752 46.6752A6.4 6.4 0 0 1 62.1248 46.6752L87.7248 72.2752z" />
    <glyph glyph-name="ban"
      unicode="&#xEA15;"
      horiz-adv-x="128" d="M86.2528 32.704A38.4 38.4 0 0 0 32.704 86.2464L86.2528 32.6912zM95.3024 41.7536L41.7536 95.296A38.4 38.4 0 0 0 95.3024 41.7472zM115.2 64A51.2 51.2 0 1 0 12.8 64A51.2 51.2 0 0 0 115.2 64z" />
    <glyph glyph-name="beaker"
      unicode="&#xEA16;"
      horiz-adv-x="128" d="M44.8001081834856 115.2A6.4 6.4 0 0 1 40.2753081834856 104.2752L44.8001081834856 99.7504V75.6992A6.4 6.4 0 0 0 42.9249081834856 71.1744L17.3249081834856 45.5744C5.2289081834856 33.4784 13.7985081834856 12.8 30.8993081834856 12.8H97.0945081834856C114.2017081834856 12.8 122.7713081834856 33.4784 110.6753081834856 45.5744L85.0753081834856 71.1744A6.4 6.4 0 0 0 83.2001081834856 75.6992V99.7504L87.7249081834856 104.2752A6.4 6.4 0 0 1 83.2001081834856 115.2H44.8001081834856zM57.6001081834856 75.6992V102.4H70.4001081834856V75.6992A19.2 19.2 0 0 1 76.0257081834856 62.1312L82.5985081834856 55.552A25.6 25.6 0 0 1 68.7041081834856 54.8992L65.6961081834856 53.9008A25.6 25.6 0 0 0 49.5041081834856 53.9008L45.9009081834856 55.0976A12.7552 12.7552 0 0 1 45.1713081834856 55.3216L51.9745081834856 62.1248A19.2 19.2 0 0 1 57.6001081834856 75.6992z" />
    <glyph glyph-name="bell"
      unicode="&#xEA17;"
      horiz-adv-x="128" d="M64 115.2A38.4 38.4 0 0 1 25.6 76.8V53.8496L21.0752 49.3248A6.4 6.4 0 0 1 25.6 38.4H102.4A6.4 6.4 0 0 1 106.9248 49.3248L102.4 53.8496V76.8A38.4 38.4 0 0 1 64 115.2zM64 12.8A19.2 19.2 0 0 0 44.8 32H83.2A19.2 19.2 0 0 0 64 12.8z" />
    <glyph glyph-name="book-open"
      unicode="&#xEA18;"
      horiz-adv-x="128" d="M57.6 97.2544A50.9952 50.9952 0 0 1 35.2 102.4C27.168 102.4 19.5648 100.544 12.8 97.2544V33.2544A51.0016 51.0016 0 0 0 35.2 38.4C45.8816 38.4 55.7952 35.136 64 29.536A50.9568 50.9568 0 0 0 92.8 38.4C100.832 38.4 108.4352 36.544 115.2 33.2544V97.2544A50.9952 50.9952 0 0 1 92.8 102.4C84.768 102.4 77.1648 100.544 70.4 97.2544V51.2A6.4 6.4 0 1 0 57.6 51.2V97.2544z" />
    <glyph glyph-name="bookmark"
      unicode="&#xEA19;"
      horiz-adv-x="128" d="M32 102.4A12.8 12.8 0 0 0 44.8 115.2H83.2A12.8 12.8 0 0 0 96 102.4V12.8L64 28.8L32 12.8V102.4z" />
    <glyph glyph-name="bookmark-alt"
      unicode="&#xEA1A;"
      horiz-adv-x="128" d="M19.2 96A12.8 12.8 0 0 0 32 108.8H96A12.8 12.8 0 0 0 108.8 96V32A12.8 12.8 0 0 0 96 19.2H32A12.8 12.8 0 0 0 19.2 32V96zM89.6 89.6H38.4V38.4L64 51.2L89.6 38.4V89.6z" />
    <glyph glyph-name="briefcase"
      unicode="&#xEA1B;"
      horiz-adv-x="128" d="M38.4 89.6V96A19.2 19.2 0 0 0 57.6 115.2H70.4A19.2 19.2 0 0 0 89.6 96V89.6H102.4A12.8 12.8 0 0 0 115.2 76.8V53.952A146.8928 146.8928 0 0 0 64 44.8A146.88 146.88 0 0 0 12.8 53.952V76.8A12.8 12.8 0 0 0 25.6 89.6H38.4zM51.2 96A6.4 6.4 0 0 0 57.6 102.4H70.4A6.4 6.4 0 0 0 76.8 96V89.6H51.2V96zM57.6 64A6.4 6.4 0 0 0 64 70.4H64.064A6.4 6.4 0 1 0 64.064 57.6H64A6.4 6.4 0 0 0 57.6 64zM12.8 40.3712V25.6A12.8 12.8 0 0 1 25.6 12.8H102.4A12.8 12.8 0 0 1 115.2 25.6V40.3712A159.8336000000001 159.8336000000001 0 0 0 64 32A159.8720000000001 159.8720000000001 0 0 0 12.8 40.3712z" />
    <glyph glyph-name="cake"
      unicode="&#xEA1C;"
      horiz-adv-x="128" d="M38.4 108.8A6.4 6.4 0 0 0 44.8 115.2H44.864A6.4 6.4 0 0 0 44.864 102.4H44.8A6.4 6.4 0 0 0 38.4 108.8zM51.2 89.6A6.4 6.4 0 0 1 38.4 89.6V83.2A12.8 12.8 0 0 1 25.6 70.4V64A12.8 12.8 0 0 1 12.8 51.2V46.8288A23.68 23.68 0 0 0 19.552 43.7248A10.9056 10.9056 0 0 1 31.648 43.7248A23.7056 23.7056 0 0 0 57.952 43.7248A10.9056 10.9056 0 0 1 70.048 43.7248A23.7056 23.7056 0 0 0 96.352 43.7248A10.9056 10.9056 0 0 1 108.448 43.7248A23.68 23.68 0 0 0 115.2 46.8288V51.2A12.8 12.8 0 0 1 102.4 64V70.4A12.8 12.8 0 0 1 89.6 83.2V89.6A6.4 6.4 0 1 1 76.8 89.6V83.2H70.4V89.6A6.4 6.4 0 1 1 57.6 89.6V83.2H51.2V89.6zM115.2 32.8448A23.7056 23.7056 0 0 0 89.248 33.0752A10.9056 10.9056 0 0 1 77.152 33.0752A23.7056 23.7056 0 0 0 50.848 33.0752A10.9056 10.9056 0 0 1 38.752 33.0752A23.7056 23.7056 0 0 0 12.8 32.8448V19.2A6.4 6.4 0 0 1 19.2 12.8H108.8A6.4 6.4 0 0 1 115.2 19.2V32.8448zM57.6 108.8A6.4 6.4 0 0 0 64 115.2H64.064A6.4 6.4 0 1 0 64.064 102.4H64A6.4 6.4 0 0 0 57.6 108.8zM76.8 108.8A6.4 6.4 0 0 0 83.2 115.2H83.264A6.4 6.4 0 1 0 83.264 102.4H83.2A6.4 6.4 0 0 0 76.8 108.8z" />
    <glyph glyph-name="calculator"
      unicode="&#xEA1D;"
      horiz-adv-x="128" d="M38.4 115.2A12.8 12.8 0 0 1 25.6 102.4V25.6A12.8 12.8 0 0 1 38.4 12.8H89.6A12.8 12.8 0 0 1 102.4 25.6V102.4A12.8 12.8 0 0 1 89.6 115.2H38.4zM44.8 102.4A6.4 6.4 0 0 1 44.8 89.6H83.2A6.4 6.4 0 1 1 83.2 102.4H44.8zM83.2 57.6A6.4 6.4 0 0 0 89.6 51.2V32A6.4 6.4 0 1 0 76.8 32V51.2A6.4 6.4 0 0 0 83.2 57.6zM64 38.4A6.4 6.4 0 1 1 64 25.6H64.064A6.4 6.4 0 1 1 64.064 38.4H64zM38.4 32A6.4 6.4 0 0 0 44.8 38.4H44.864A6.4 6.4 0 1 0 44.864 25.6H44.8A6.4 6.4 0 0 0 38.4 32zM44.8 57.6A6.4 6.4 0 1 1 44.8 44.8H44.864A6.4 6.4 0 1 1 44.864 57.6H44.8zM57.6 51.2A6.4 6.4 0 0 0 64 57.6H64.064A6.4 6.4 0 1 0 64.064 44.8H64A6.4 6.4 0 0 0 57.6 51.2zM83.2 76.8A6.4 6.4 0 1 1 83.2 64H83.264A6.4 6.4 0 1 1 83.264 76.8H83.2zM57.6 70.4A6.4 6.4 0 0 0 64 76.8H64.064A6.4 6.4 0 1 0 64.064 64H64A6.4 6.4 0 0 0 57.6 70.4zM44.8 76.8A6.4 6.4 0 0 1 44.8 64H44.864A6.4 6.4 0 0 1 44.864 76.8H44.8z" />
    <glyph glyph-name="calendar"
      unicode="&#xEA1E;"
      horiz-adv-x="128" d="M38.4 115.2A6.4 6.4 0 0 1 32 108.8V102.4H25.6A12.8 12.8 0 0 1 12.8 89.6V25.6A12.8 12.8 0 0 1 25.6 12.8H102.4A12.8 12.8 0 0 1 115.2 25.6V89.6A12.8 12.8 0 0 1 102.4 102.4H96V108.8A6.4 6.4 0 1 1 83.2 108.8V102.4H44.8V108.8A6.4 6.4 0 0 1 38.4 115.2zM38.4 83.2A6.4 6.4 0 0 1 38.4 70.4H89.6A6.4 6.4 0 1 1 89.6 83.2H38.4z" />
    <glyph glyph-name="camera"
      unicode="&#xEA1F;"
      horiz-adv-x="128" d="M25.6 96A12.8 12.8 0 0 1 12.8 83.2V32A12.8 12.8 0 0 1 25.6 19.2H102.4A12.8 12.8 0 0 1 115.2 32V83.2A12.8 12.8 0 0 1 102.4 96H92.2496A6.4 6.4 0 0 0 87.7248 97.8752L80.5504 105.0496A12.8 12.8 0 0 1 71.5008 108.8H56.4992A12.8 12.8 0 0 1 47.4496 105.0496L40.2752 97.8752A6.4 6.4 0 0 0 35.7504 96H25.6zM64 38.4A19.2 19.2 0 1 1 64 76.8A19.2 19.2 0 0 1 64 38.4z" />
    <glyph glyph-name="cash"
      unicode="&#xEA20;"
      horiz-adv-x="128" d="M25.6 102.4A12.8 12.8 0 0 1 12.8 89.6V64A12.8 12.8 0 0 1 25.6 51.2V89.6H89.6A12.8 12.8 0 0 1 76.8 102.4H25.6zM38.4 64A12.8 12.8 0 0 0 51.2 76.8H102.4A12.8 12.8 0 0 0 115.2 64V38.4A12.8 12.8 0 0 0 102.4 25.6H51.2A12.8 12.8 0 0 0 38.4 38.4V64zM76.8 38.4A12.8 12.8 0 1 1 76.8 64A12.8 12.8 0 0 1 76.8 38.4z" />
    <glyph glyph-name="chart-bar"
      unicode="&#xEA21;"
      horiz-adv-x="128" d="M12.8 57.6A6.4 6.4 0 0 0 19.2 64H32A6.4 6.4 0 0 0 38.4 57.6V25.6A6.4 6.4 0 0 0 32 19.2H19.2A6.4 6.4 0 0 0 12.8 25.6V57.6zM51.2 83.2A6.4 6.4 0 0 0 57.6 89.6H70.4A6.4 6.4 0 0 0 76.8 83.2V25.6A6.4 6.4 0 0 0 70.4 19.2H57.6A6.4 6.4 0 0 0 51.2 25.6V83.2zM89.6 102.4A6.4 6.4 0 0 0 96 108.8H108.8A6.4 6.4 0 0 0 115.2 102.4V25.6A6.4 6.4 0 0 0 108.8 19.2H96A6.4 6.4 0 0 0 89.6 25.6V102.4z" />
    <glyph glyph-name="chart-pie"
      unicode="&#xEA22;"
      horiz-adv-x="128" d="M12.8 64A51.2 51.2 0 0 0 64 115.2V64H115.2A51.2 51.2 0 1 0 12.8 64zM76.8 113.5872A51.2896 51.2896 0 0 0 113.5872 76.8H76.8V113.5872z" />
    <glyph glyph-name="chart-square-bar"
      unicode="&#xEA23;"
      horiz-adv-x="128" d="M32 108.8A12.8 12.8 0 0 1 19.2 96V32A12.8 12.8 0 0 1 32 19.2H96A12.8 12.8 0 0 1 108.8 32V96A12.8 12.8 0 0 1 96 108.8H32zM89.6 83.2A6.4 6.4 0 1 1 76.8 83.2V44.8A6.4 6.4 0 1 1 89.6 44.8V83.2zM70.4 70.4A6.4 6.4 0 1 1 57.6 70.4V44.8A6.4 6.4 0 1 1 70.4 44.8V70.4zM51.2 51.2A6.4 6.4 0 1 1 38.4 51.2V44.8A6.4 6.4 0 1 1 51.2 44.8V51.2z" />
    <glyph glyph-name="chat"
      unicode="&#xEA24;"
      horiz-adv-x="128" d="M115.2 64C115.2 39.2576 92.2752 19.2 64 19.2A56.5824 56.5824 0 0 0 37.8688 25.472L12.8 19.2L21.3632 39.1872C15.9552 46.2912 12.8 54.8224 12.8 64C12.8 88.7424 35.7248 108.8 64 108.8S115.2 88.7424 115.2 64zM44.8 70.4H32V57.6H44.8V70.4zM96 70.4H83.2V57.6H96V70.4zM57.6 70.4H70.4V57.6H57.6V70.4z" />
    <glyph glyph-name="chat-alt"
      unicode="&#xEA25;"
      horiz-adv-x="128" d="M115.2 96V44.8A12.8 12.8 0 0 0 102.4 32H70.4L38.4 6.4V32H25.6A12.8 12.8 0 0 0 12.8 44.8V96A12.8 12.8 0 0 0 25.6 108.8H102.4A12.8 12.8 0 0 0 115.2 96zM44.8 76.8H32V64H44.8V76.8zM57.6 76.8H70.4V64H57.6V76.8zM96 76.8H83.2V64H96V76.8z" />
    <glyph glyph-name="chat-alt-2"
      unicode="&#xEA26;"
      horiz-adv-x="128" d="M12.8 96A12.8 12.8 0 0 0 25.6 108.8H70.4A12.8 12.8 0 0 0 83.2 96V70.4A12.8 12.8 0 0 0 70.4 57.6H57.6L38.4 38.4V57.6H25.6A12.8 12.8 0 0 0 12.8 70.4V96zM96 83.2V70.4A25.6 25.6 0 0 0 70.4 44.8H62.8992L51.5968 33.4912C53.3888 32.5376 55.4304 32 57.6 32H70.4L89.6 12.8V32H102.4A12.8 12.8 0 0 1 115.2 44.8V70.4A12.8 12.8 0 0 1 102.4 83.2H96z" />
    <glyph glyph-name="check"
      unicode="&#xEA27;"
      horiz-adv-x="128" d="M106.8861610896734 94.1248A6.4 6.4 0 0 0 106.8861610896734 85.0752L55.6861610896734 33.8752A6.4 6.4 0 0 0 46.6365610896734 33.8752L21.0365610896734 59.4752A6.4 6.4 0 0 0 30.0861610896734 68.5248L51.1613610896734 47.4496L97.8365610896734 94.1248A6.4 6.4 0 0 0 106.8861610896734 94.1248z" />
    <glyph glyph-name="check-circle"
      unicode="&#xEA28;"
      horiz-adv-x="128" d="M63.9999994039536 12.8A51.2 51.2 0 1 1 63.9999994039536 115.2A51.2 51.2 0 0 1 63.9999994039536 12.8zM87.7247994039536 72.2752A6.4 6.4 0 0 1 78.6751994039536 81.3248L57.5999994039536 60.2496L49.3247994039536 68.5248A6.4 6.4 0 0 1 40.2751994039536 59.4752L53.0751994039535 46.6752A6.4 6.4 0 0 1 62.1247994039535 46.6752L87.7247994039535 72.2752z" />
    <glyph glyph-name="chevron-double-down"
      unicode="&#xEA29;"
      horiz-adv-x="128" d="M100.564805606329 100.5248A6.4 6.4 0 0 0 100.564805606329 91.4752L68.564805606329 59.4752A6.4 6.4 0 0 0 59.515205606329 59.4752L27.515205606329 91.4752A6.4 6.4 0 0 0 36.564805606329 100.5248L64.040005606329 73.0496L91.515205606329 100.5248A6.4 6.4 0 0 0 100.564805606329 100.5248zM100.564805606329 62.1248A6.4 6.4 0 0 0 100.564805606329 53.0752L68.564805606329 21.0752A6.4 6.4 0 0 0 59.515205606329 21.0752L27.515205606329 53.0752A6.4 6.4 0 1 0 36.564805606329 62.1248L64.040005606329 34.6496L91.515205606329 62.1248A6.4 6.4 0 0 0 100.564805606329 62.1248z" />
    <glyph glyph-name="chevron-double-left"
      unicode="&#xEA2A;"
      horiz-adv-x="128" d="M103.684794393671 27.4752A6.4 6.4 0 0 0 94.635194393671 27.4752L62.635194393671 59.4752A6.4 6.4 0 0 0 62.635194393671 68.5248L94.635194393671 100.5248A6.4 6.4 0 1 0 103.684794393671 91.4752L76.209594393671 64L103.684794393671 36.5248A6.4 6.4 0 0 0 103.684794393671 27.4752zM65.284794393671 27.4752A6.4 6.4 0 0 0 56.235194393671 27.4752L24.235194393671 59.4752A6.4 6.4 0 0 0 24.235194393671 68.5248L56.235194393671 100.5248A6.4 6.4 0 0 0 65.284794393671 91.4752L37.809594393671 64L65.284794393671 36.5248A6.4 6.4 0 0 0 65.284794393671 27.4752z" />
    <glyph glyph-name="chevron-double-right"
      unicode="&#xEA2B;"
      horiz-adv-x="128" d="M62.6752 27.4752A6.4 6.4 0 0 0 62.6752 36.5248L90.1504 64L62.6752 91.4752A6.4 6.4 0 1 0 71.7248 100.5248L103.7248 68.5248A6.4 6.4 0 0 0 103.7248 59.4752L71.7248 27.4752A6.4 6.4 0 0 0 62.6752 27.4752zM24.2752 27.4752A6.4 6.4 0 0 0 24.2752 36.5248L51.7504 64L24.2752 91.4752A6.4 6.4 0 0 0 33.3248 100.5248L65.3248 68.5248A6.4 6.4 0 0 0 65.3248 59.4752L33.3248 27.4752A6.4 6.4 0 0 0 24.2752 27.4752z" />
    <glyph glyph-name="chevron-double-up"
      unicode="&#xEA2C;"
      horiz-adv-x="128" d="M27.5138389103267 27.4752A6.4 6.4 0 0 0 27.5138389103267 36.5248L59.5138389103267 68.5248A6.4 6.4 0 0 0 68.5634389103267 68.5248L100.5634389103267 36.5248A6.4 6.4 0 0 0 91.5138389103267 27.4752L64.0386389103267 54.9504L36.5634389103267 27.4752A6.4 6.4 0 0 0 27.5138389103267 27.4752zM27.5138389103267 65.8752A6.4 6.4 0 0 0 27.5138389103267 74.9248L59.5138389103267 106.9248A6.4 6.4 0 0 0 68.5634389103267 106.9248L100.5634389103267 74.9248A6.4 6.4 0 0 0 91.5138389103267 65.8752L64.0386389103267 93.3504L36.5634389103267 65.8752A6.4 6.4 0 0 0 27.5138389103267 65.8752z" />
    <glyph glyph-name="chevron-down"
      unicode="&#xEA2D;"
      horiz-adv-x="128" d="M33.8351943936711 81.3248A6.4 6.4 0 0 0 42.8847943936711 81.3248L63.9599943936711 60.2496L85.0351943936711 81.3248A6.4 6.4 0 1 0 94.0847943936711 72.2752L68.4847943936711 46.6752A6.4 6.4 0 0 0 59.4351943936711 46.6752L33.8351943936711 72.2752A6.4 6.4 0 0 0 33.8351943936711 81.3248z" />
    <glyph glyph-name="chevron-left"
      unicode="&#xEA2E;"
      horiz-adv-x="128" d="M81.3248 94.1248A6.4 6.4 0 0 0 81.3248 85.0752L60.2496 64L81.3248 42.9248A6.4 6.4 0 0 0 72.2752 33.8752L46.6752 59.4752A6.4 6.4 0 0 0 46.6752 68.5248L72.2752 94.1248A6.4 6.4 0 0 0 81.3248 94.1248z" />
    <glyph glyph-name="chevron-right"
      unicode="&#xEA2F;"
      horiz-adv-x="128" d="M46.6752 33.8752A6.4 6.4 0 0 0 46.6752 42.9248L67.7504 64L46.6752 85.0752A6.4 6.4 0 0 0 55.7248 94.1248L81.3248 68.5248A6.4 6.4 0 0 0 81.3248 59.4752L55.7248 33.8752A6.4 6.4 0 0 0 46.6752 33.8752z" />
    <glyph glyph-name="chevron-up"
      unicode="&#xEA30;"
      horiz-adv-x="128" d="M94.0861610896733 46.6752A6.4 6.4 0 0 0 85.0365610896733 46.6752L63.9613610896733 67.7504L42.8861610896733 46.6752A6.4 6.4 0 0 0 33.8365610896733 55.7248L59.4365610896733 81.3248A6.4 6.4 0 0 0 68.4861610896733 81.3248L94.0861610896733 55.7248A6.4 6.4 0 0 0 94.0861610896733 46.6752z" />
    <glyph glyph-name="chip"
      unicode="&#xEA31;"
      horiz-adv-x="128" d="M83.199999916519 83.2H44.799999916519V44.8H83.199999916519V83.2zM44.799999916519 115.2A6.4 6.4 0 0 0 57.599999916519 115.2V108.8H70.399999916519V115.2A6.4 6.4 0 1 0 83.199999916519 115.2V108.8H95.999999916519A12.8 12.8 0 0 0 108.799999916519 96V83.2H115.199999916519A6.4 6.4 0 1 0 115.199999916519 70.4H108.799999916519V57.6H115.199999916519A6.4 6.4 0 1 0 115.199999916519 44.8H108.799999916519V32A12.8 12.8 0 0 0 95.999999916519 19.2H83.199999916519V12.8A6.4 6.4 0 1 0 70.399999916519 12.8V19.2H57.599999916519V12.8A6.4 6.4 0 1 0 44.799999916519 12.8V19.2H31.999999916519A12.8 12.8 0 0 0 19.199999916519 32V44.8H12.799999916519A6.4 6.4 0 1 0 12.799999916519 57.6H19.199999916519V70.4H12.799999916519A6.4 6.4 0 0 0 12.799999916519 83.2H19.199999916519V96A12.8 12.8 0 0 0 31.999999916519 108.8H44.799999916519V115.2zM31.999999916519 96H95.999999916519V32H31.999999916519V96z" />
    <glyph glyph-name="clipboard"
      unicode="&#xEA32;"
      horiz-adv-x="128" d="M51.2 108.8A6.4 6.4 0 0 0 57.6 115.2H70.4A6.4 6.4 0 1 0 70.4 102.4H57.6A6.4 6.4 0 0 0 51.2 108.8zM38.4 108.8A12.8 12.8 0 0 1 25.6 96V25.6A12.8 12.8 0 0 1 38.4 12.8H89.6A12.8 12.8 0 0 1 102.4 25.6V96A12.8 12.8 0 0 1 89.6 108.8A19.2 19.2 0 0 0 70.4 89.6H57.6A19.2 19.2 0 0 0 38.4 108.8z" />
    <glyph glyph-name="clipboard-check"
      unicode="&#xEA33;"
      horiz-adv-x="128" d="M57.6 115.2A6.4 6.4 0 0 1 57.6 102.4H70.4A6.4 6.4 0 1 1 70.4 115.2H57.6zM25.6 96A12.8 12.8 0 0 0 38.4 108.8A19.2 19.2 0 0 1 57.6 89.6H70.4A19.2 19.2 0 0 1 89.6 108.8A12.8 12.8 0 0 0 102.4 96V25.6A12.8 12.8 0 0 0 89.6 12.8H38.4A12.8 12.8 0 0 0 25.6 25.6V96zM87.7248 59.4752A6.4 6.4 0 0 1 78.6752 68.5248L57.6 47.4496L49.3248 55.7248A6.4 6.4 0 0 1 40.2752 46.6752L53.0752 33.8752A6.4 6.4 0 0 1 62.1248 33.8752L87.7248 59.4752z" />
    <glyph glyph-name="clipboard-copy"
      unicode="&#xEA34;"
      horiz-adv-x="128" d="M47.9999999087494 115.2A6.4 6.4 0 0 1 47.9999999087494 102.4H60.7999999087494A6.4 6.4 0 1 1 60.7999999087494 115.2H47.9999999087494zM15.9999999087494 96A12.8 12.8 0 0 0 28.7999999087494 108.8A19.2 19.2 0 0 1 47.9999999087494 89.6H60.7999999087494A19.2 19.2 0 0 1 79.9999999087494 108.8A12.8 12.8 0 0 0 92.7999999087494 96V57.6H63.4495999087494L71.7247999087494 65.8752A6.4 6.4 0 0 1 62.6751999087494 74.9248L43.4751999087494 55.7248A6.4 6.4 0 0 1 43.4751999087494 46.6752L62.6751999087494 27.4752A6.4 6.4 0 0 1 71.7247999087494 36.5248L63.4495999087494 44.8H92.7999999087494V25.6A12.8 12.8 0 0 0 79.9999999087494 12.8H28.7999999087494A12.8 12.8 0 0 0 15.9999999087494 25.6V96zM92.7999999087494 57.6H105.5999999087494A6.4 6.4 0 1 0 105.5999999087494 44.8H92.7999999087494V57.6z" />
    <glyph glyph-name="clipboard-list"
      unicode="&#xEA35;"
      horiz-adv-x="128" d="M57.6 115.2A6.4 6.4 0 0 1 57.6 102.4H70.4A6.4 6.4 0 1 1 70.4 115.2H57.6zM25.6 96A12.8 12.8 0 0 0 38.4 108.8A19.2 19.2 0 0 1 57.6 89.6H70.4A19.2 19.2 0 0 1 89.6 108.8A12.8 12.8 0 0 0 102.4 96V25.6A12.8 12.8 0 0 0 89.6 12.8H38.4A12.8 12.8 0 0 0 25.6 25.6V96zM44.8 70.4A6.4 6.4 0 0 1 44.8 57.6H44.864A6.4 6.4 0 1 1 44.864 70.4H44.8zM64 70.4A6.4 6.4 0 0 1 64 57.6H83.2A6.4 6.4 0 1 1 83.2 70.4H64zM44.8 44.8A6.4 6.4 0 1 1 44.8 32H44.864A6.4 6.4 0 1 1 44.864 44.8H44.8zM64 44.8A6.4 6.4 0 1 1 64 32H83.2A6.4 6.4 0 1 1 83.2 44.8H64z" />
    <glyph glyph-name="clock"
      unicode="&#xEA36;"
      horiz-adv-x="128" d="M63.9999994039536 12.8A51.2 51.2 0 1 1 63.9999994039536 115.2A51.2 51.2 0 0 1 63.9999994039536 12.8zM70.3999994039536 89.6A6.4 6.4 0 1 1 57.5999994039536 89.6V64A6.4 6.4 0 0 1 59.4751994039536 59.4752L77.5743994039536 41.3696A6.4 6.4 0 1 1 86.6303994039535 50.4256L70.3999994039536 66.6496V89.6z" />
    <glyph glyph-name="cloud"
      unicode="&#xEA37;"
      horiz-adv-x="128" d="M35.1705881796745 25.6A22.4 22.4 0 0 0 32.8089881796745 70.272A25.6 25.6 0 1 0 82.4281881796745 82.9248A28.8 28.8 0 1 0 86.3705881796745 25.6H35.1705881796745z" />
    <glyph glyph-name="cloud-download"
      unicode="&#xEA38;"
      horiz-adv-x="128" d="M12.8083993754948 67.2A22.4 22.4 0 0 1 35.2083993754948 44.8H57.6083993754948V28.2496L49.3331993754948 36.5248A6.4 6.4 0 0 1 40.2835993754948 27.4752L59.4835993754948 8.2752A6.4 6.4 0 0 1 68.5331993754948 8.2752L87.7331993754948 27.4752A6.4 6.4 0 0 1 78.6835993754948 36.5248L70.4083993754948 28.2496V44.8H86.4083993754948A28.8 28.8 0 1 1 82.4659993754948 102.1312A25.6128 25.6128 0 1 1 32.8467993754948 89.4784A22.4 22.4 0 0 1 12.8083993754948 67.2zM70.4083993754948 44.8H57.6083993754948V76.8A6.4 6.4 0 0 0 70.4083993754948 76.8V44.8z" />
    <glyph glyph-name="cloud-upload"
      unicode="&#xEA39;"
      horiz-adv-x="128" d="M35.1705881796746 44.8A22.4 22.4 0 0 0 32.8089881796746 89.472A25.6 25.6 0 1 0 82.4281881796746 102.1248A28.8 28.8 0 1 0 86.3705881796746 44.8H70.3705881796746V67.7568L78.6457881796746 59.4816A6.4 6.4 0 0 1 87.6953881796746 68.5312L68.4953881796746 87.7312A6.4 6.4 0 0 1 59.4457881796746 87.7312L40.2457881796746 68.5312A6.4 6.4 0 0 1 49.2953881796746 59.4816L57.5705881796746 67.7504V44.8H35.1705881796746zM57.5705881796746 44.8H70.3705881796746V12.8A6.4 6.4 0 1 0 57.5705881796746 12.8V44.8z" />
    <glyph glyph-name="code"
      unicode="&#xEA3A;"
      horiz-adv-x="128" d="M78.8224 108.4736A6.4 6.4 0 0 0 82.8736 100.3776L57.2736 23.5776A6.4 6.4 0 1 0 45.1264 27.6224L70.7264 104.4224A6.4 6.4 0 0 0 78.8224 108.4736zM36.5248 87.7248A6.4 6.4 0 0 0 36.5248 78.6752L21.8496 64L36.5248 49.3248A6.4 6.4 0 1 0 27.4752 40.2752L8.2752 59.4752A6.4 6.4 0 0 0 8.2752 68.5248L27.4752 87.7248A6.4 6.4 0 0 0 36.5248 87.7248zM91.4752 87.7248A6.4 6.4 0 0 0 100.5248 87.7248L119.7248 68.5248A6.4 6.4 0 0 0 119.7248 59.4752L100.5248 40.2752A6.4 6.4 0 1 0 91.4752 49.3248L106.1504 64L91.4752 78.6752A6.4 6.4 0 0 0 91.4752 87.7248z" />
    <glyph glyph-name="cog"
      unicode="&#xEA3B;"
      horiz-adv-x="128" d="M73.536 107.712C71.104 117.696 56.896 117.696 54.464 107.712A9.8048 9.8048 0 0 0 39.8336 101.6448C31.0528 106.9952 21.0048 96.9472 26.3552 88.1664C29.8112 82.496 26.7456 75.0976 20.2944 73.5296C10.304 71.104 10.304 56.8896 20.2944 54.4704A9.8048 9.8048 0 0 0 26.3552 39.8336C21.0048 31.0528 31.0528 21.0048 39.8336 26.3552A9.8048 9.8048 0 0 0 54.4704 20.2944C56.896 10.304 71.1104 10.304 73.5296 20.2944A9.8112 9.8112 0 0 0 88.1664 26.3552C96.9472 21.0048 106.9952 31.0528 101.6448 39.8336A9.8112 9.8112 0 0 0 107.7056 54.4704C117.696 56.896 117.696 71.1104 107.7056 73.5296A9.8048 9.8048 0 0 0 101.6448 88.1664C106.9952 96.9472 96.9472 106.9952 88.1664 101.6448A9.8048 9.8048 0 0 0 73.5296 107.7056zM64 44.8A19.2 19.2 0 1 1 64 83.2A19.2 19.2 0 0 1 64 44.8z" />
    <glyph glyph-name="collection"
      unicode="&#xEA3C;"
      horiz-adv-x="128" d="M44.8 108.8A6.4 6.4 0 0 1 44.8 96H83.2A6.4 6.4 0 1 1 83.2 108.8H44.8zM25.6 83.2A6.4 6.4 0 0 0 32 89.6H96A6.4 6.4 0 1 0 96 76.8H32A6.4 6.4 0 0 0 25.6 83.2zM12.8 57.6A12.8 12.8 0 0 0 25.6 70.4H102.4A12.8 12.8 0 0 0 115.2 57.6V32A12.8 12.8 0 0 0 102.4 19.2H25.6A12.8 12.8 0 0 0 12.8 32V57.6z" />
    <glyph glyph-name="color-swatch"
      unicode="&#xEA3D;"
      horiz-adv-x="128" d="M25.6 115.2A12.8 12.8 0 0 1 12.8 102.4V32A19.2 19.2 0 1 1 51.2 32V102.4A12.8 12.8 0 0 1 38.4 115.2H25.6zM32 25.6A6.4 6.4 0 1 1 32 38.4A6.4 6.4 0 0 1 32 25.6zM64 36.8448L95.36 68.2048A12.8 12.8 0 0 1 95.36 86.304L86.304 95.36A12.8 12.8 0 0 1 68.2048 95.36L64 91.1552V36.8448zM102.4 12.8H58.0544L96.4544 51.2H102.4A12.8 12.8 0 0 0 115.2 38.4V25.6A12.8 12.8 0 0 0 102.4 12.8z" />
    <glyph glyph-name="credit-card"
      unicode="&#xEA3E;"
      horiz-adv-x="128" d="M25.6 102.4A12.8 12.8 0 0 1 12.8 89.6V83.2H115.2V89.6A12.8 12.8 0 0 1 102.4 102.4H25.6zM115.2 70.4H12.8V38.4A12.8 12.8 0 0 1 25.6 25.6H102.4A12.8 12.8 0 0 1 115.2 38.4V70.4zM25.6 44.8A6.4 6.4 0 0 0 32 51.2H38.4A6.4 6.4 0 1 0 38.4 38.4H32A6.4 6.4 0 0 0 25.6 44.8zM57.6 51.2A6.4 6.4 0 1 1 57.6 38.4H64A6.4 6.4 0 1 1 64 51.2H57.6z" />
    <glyph glyph-name="cube"
      unicode="&#xEA3F;"
      horiz-adv-x="128" d="M70.4 19.2A6.4 6.4 0 0 1 79.6608 13.4784L105.2608 26.2784A6.4 6.4 0 0 1 108.8 32V68.8896A6.4 6.4 0 0 1 99.5392 74.6112L73.9392 61.8112A6.4 6.4 0 0 1 70.4 56.0896V19.2zM97.3504 87.8336A6.4 6.4 0 0 1 97.3504 99.2768L66.8608 114.5216A6.4 6.4 0 0 1 61.1392 114.5216L30.6496 99.2768A6.4 6.4 0 0 1 30.6496 87.8336L61.1392 72.5888A6.4 6.4 0 0 1 66.8608 72.5888L97.3504 87.8336zM28.4608 74.6112A6.4 6.4 0 0 1 19.2 68.8896V32A6.4 6.4 0 0 1 22.7392 26.2784L48.3392 13.4784A6.4 6.4 0 0 1 57.6 19.2V56.0896A6.4 6.4 0 0 1 54.0608 61.8112L28.4608 74.6112z" />
    <glyph glyph-name="cube-transparent"
      unicode="&#xEA40;"
      horiz-adv-x="128" d="M60.8256154685869 120.7552A6.4 6.4 0 0 0 67.1744154685869 120.7552L78.3744154685869 114.3552A6.4 6.4 0 1 0 72.0256154685869 103.2448L64.0000154685869 107.8272L55.9744154685869 103.2448A6.4 6.4 0 1 0 49.6256154685869 114.3552L60.8256154685869 120.7552zM35.9552154685869 99.1744A6.4 6.4 0 0 0 33.5744154685869 90.4448L32.1024154685869 89.6L33.5744154685869 88.7552A6.4 6.4 0 1 0 27.2256154685869 77.6448L25.6000154685869 78.5728V76.8A6.4 6.4 0 0 0 12.8000154685869 76.8V89.6A6.3744 6.3744 0 0 0 16.1280154685869 95.2192L27.2256154685869 101.5552A6.4 6.4 0 0 0 35.9552154685869 99.1744zM92.0448154685869 99.1744A6.4 6.4 0 0 0 100.7744154685869 101.5552L111.8656154685869 95.2192A6.4128 6.4128 0 0 0 115.2000154685869 89.6V76.8A6.4 6.4 0 1 0 102.4000154685869 76.8V78.5728L100.7744154685869 77.6448A6.4 6.4 0 1 0 94.4256154685869 88.7552L95.8976154685869 89.6L94.4256154685869 90.4448A6.4 6.4 0 0 0 92.0448154685869 99.1744zM47.2448154685869 73.5744A6.4 6.4 0 0 0 55.9744154685869 75.9552L64.0000154685869 71.3728L72.0256154685869 75.9552A6.4 6.4 0 1 0 78.3744154685869 64.8448L70.4000154685869 60.288V51.2A6.4 6.4 0 1 0 57.6000154685869 51.2V60.288L49.6256154685869 64.8448A6.4 6.4 0 0 0 47.2448154685869 73.5744zM19.2000154685869 57.6A6.4 6.4 0 0 0 25.6000154685869 51.2V42.112L33.5744154685869 37.5552A6.4 6.4 0 1 0 27.2256154685869 26.4448L16.0256154685869 32.8448A6.4 6.4 0 0 0 12.8000154685869 38.4V51.2A6.4 6.4 0 0 0 19.2000154685869 57.6zM108.8000154685869 57.6A6.4 6.4 0 0 0 115.2000154685869 51.2V38.4A6.4 6.4 0 0 0 111.9744154685869 32.8448L100.7744154685869 26.4448A6.4 6.4 0 1 0 94.4256154685869 37.5552L102.4000154685869 42.112V51.2A6.4 6.4 0 0 0 108.8000154685869 57.6zM47.2448154685869 22.3744A6.4 6.4 0 0 0 55.9744154685869 24.7552L57.6000154685869 23.8272V25.6A6.4 6.4 0 1 0 70.4000154685869 25.6V23.8272L72.0256154685869 24.7552A6.4 6.4 0 1 0 78.3744154685869 13.6448L67.2704154685869 7.296A6.368 6.368 0 0 0 60.7296154685869 7.296L49.6256154685869 13.6448A6.4 6.4 0 0 0 47.2448154685869 22.3744z" />
    <glyph glyph-name="currency-bangladeshi"
      unicode="&#xEA41;"
      horiz-adv-x="128" d="M63.9999994039536 12.8A51.2 51.2 0 1 1 63.9999994039536 115.2A51.2 51.2 0 0 1 63.9999994039536 12.8zM44.7999994039536 102.4A6.4 6.4 0 0 1 44.7999994039536 89.6A6.4 6.4 0 0 0 51.1999994039536 83.2V76.8H44.7999994039536A6.4 6.4 0 0 1 44.7999994039536 64H51.1999994039536V44.8A19.2 19.2 0 1 1 89.5999994039536 44.8V51.2A6.4 6.4 0 1 1 76.7999994039536 51.2V44.8A6.4 6.4 0 1 0 63.9999994039536 44.8V64H83.1999994039535A6.4 6.4 0 1 1 83.1999994039535 76.8H63.9999994039536V83.2A19.2 19.2 0 0 1 44.7999994039536 102.4z" />
    <glyph glyph-name="currency-dollar"
      unicode="&#xEA42;"
      horiz-adv-x="128" d="M53.9711994039536 80.5248C54.9631994039535 81.184 56.1855994039535 81.7792 57.5999994039536 82.2336V71.3664A14.752 14.752 0 0 0 53.9711994039536 73.0752C51.6479994039536 74.624 51.1999994039536 76.0704 51.1999994039536 76.8C51.1999994039536 77.5296 51.6479994039536 78.976 53.9711994039536 80.5248zM70.3999994039536 45.7664V56.6336C71.8079994039536 56.1792 73.0367994039536 55.584 74.0287994039535 54.9248C76.3583994039535 53.3696 76.7999994039536 51.9296 76.7999994039536 51.2C76.7999994039536 50.4704 76.3519994039536 49.024 74.0287994039535 47.4752A14.752 14.752 0 0 0 70.3999994039536 45.7664zM63.9999994039536 12.8A51.2 51.2 0 1 1 63.9999994039536 115.2A51.2 51.2 0 0 1 63.9999994039536 12.8zM70.3999994039536 96A6.4 6.4 0 1 1 57.5999994039536 96V95.4112A29.024 29.024 0 0 1 46.8735994039536 91.1744C42.2527994039536 88.1024 38.3999994039536 83.1424 38.3999994039536 76.8C38.3999994039536 70.464 42.2527994039536 65.504 46.8735994039536 62.4256C49.9455994039536 60.3776 53.6191994039536 58.9376 57.5999994039536 58.1888V45.7664C55.0975994039535 46.5792 53.2479994039536 47.7952 52.2047994039536 48.992A6.4 6.4 0 1 1 42.5407994039536 40.608C46.1375994039536 36.4544 51.5839994039536 33.7216 57.5999994039536 32.5888V32A6.4 6.4 0 1 1 70.3999994039536 32V32.5888A29.024 29.024 0 0 1 81.1263994039535 36.8256C85.7471994039536 39.8976 89.5999994039536 44.8576 89.5999994039536 51.2C89.5999994039536 57.536 85.7471994039536 62.496 81.1263994039535 65.5744A29.024 29.024 0 0 1 70.3999994039536 69.8112V82.2336C72.9023994039536 81.4208 74.7519994039535 80.2048 75.7951994039536 79.008A6.4 6.4 0 1 1 85.4655994039536 87.392C81.8623994039535 91.5456 76.4223994039535 94.2784 70.3999994039536 95.4112V96z" />
    <glyph glyph-name="currency-euro"
      unicode="&#xEA43;"
      horiz-adv-x="128" d="M63.9999994039536 12.8A51.2 51.2 0 1 1 63.9999994039536 115.2A51.2 51.2 0 0 1 63.9999994039536 12.8zM55.9103994039536 83.3344C58.9311994039536 88.3648 62.0543994039536 89.6 63.9999994039536 89.6C65.9455994039535 89.6 69.0687994039535 88.3648 72.0895994039535 83.3344A6.4 6.4 0 0 1 83.0655994039535 89.92C78.5855994039536 97.3824 71.8847994039535 102.4 63.9999994039536 102.4S49.4143994039535 97.3824 44.9343994039536 89.92C43.1103994039535 86.88 41.6895994039536 83.52 40.6463994039535 80H38.3999994039536A6.4 6.4 0 0 1 38.3999994039536 67.2H38.4831994039536A59.8912 59.8912 0 0 1 38.4831994039536 60.8H38.3999994039536A6.4 6.4 0 1 1 38.3999994039536 48H40.6463994039535C41.6895994039536 44.48 43.1103994039535 41.12 44.9343994039536 38.08C49.4143994039535 30.6176 56.1151994039536 25.6 63.9999994039536 25.6S78.5855994039536 30.6176 83.0655994039535 38.08A6.4 6.4 0 1 1 72.0895994039535 44.6656C69.0687994039535 39.6352 65.9455994039535 38.4 63.9999994039536 38.4C62.0543994039536 38.4 58.9311994039536 39.6352 55.9103994039536 44.6656A27.296 27.296 0 0 0 54.2207994039536 48H63.9999994039536A6.4 6.4 0 1 1 63.9999994039536 60.8H51.3087994039535A47.104 47.104 0 0 0 51.3087994039535 67.2H63.9999994039536A6.4 6.4 0 1 1 63.9999994039536 80H54.2207994039535C54.7327994039535 81.184 55.2895994039535 82.304 55.9103994039535 83.3344z" />
    <glyph glyph-name="currency-pound"
      unicode="&#xEA44;"
      horiz-adv-x="128" d="M63.9999994039536 12.8A51.2 51.2 0 1 1 63.9999994039536 115.2A51.2 51.2 0 0 1 63.9999994039536 12.8zM70.3999994039536 102.4A19.2 19.2 0 0 1 51.1999994039536 83.2V70.4H44.7999994039536A6.4 6.4 0 0 1 44.7999994039536 57.6H51.1999994039536V51.2A6.4 6.4 0 0 0 44.7999994039536 44.8A6.4 6.4 0 1 1 44.7999994039536 32H83.1999994039535A6.4 6.4 0 1 1 83.1999994039535 44.8H62.9119994039536C63.6159994039536 46.8032 63.9999994039536 48.96 63.9999994039536 51.2V57.6H70.3999994039536A6.4 6.4 0 1 1 70.3999994039536 70.4H63.9999994039536V83.2A6.4 6.4 0 1 0 76.7999994039536 83.2A6.4 6.4 0 1 1 89.5999994039536 83.2A19.2 19.2 0 0 1 70.3999994039536 102.4z" />
    <glyph glyph-name="currency-rupee"
      unicode="&#xEA45;"
      horiz-adv-x="128" d="M63.9999994039536 12.8A51.2 51.2 0 1 1 63.9999994039536 115.2A51.2 51.2 0 0 1 63.9999994039536 12.8zM44.7999994039536 96A6.4 6.4 0 1 1 44.7999994039536 83.2H51.1999994039536A12.8 12.8 0 0 0 62.2847994039535 76.8H44.7999994039536A6.4 6.4 0 1 1 44.7999994039536 64H62.2847994039535A12.8 12.8 0 0 0 51.1999994039536 57.6H44.7999994039536A6.4 6.4 0 0 1 40.2751994039536 46.6752L59.4751994039536 27.4752A6.4 6.4 0 0 1 68.5247994039536 36.5248L59.0335994039535 46.0224A25.6512 25.6512 0 0 1 75.9935994039535 64H83.1999994039535A6.4 6.4 0 1 1 83.1999994039535 76.8H75.9935994039535A25.4464 25.4464 0 0 1 73.3695994039535 83.2H83.1999994039535A6.4 6.4 0 1 1 83.1999994039535 96H44.7999994039536z" />
    <glyph glyph-name="currency-yen"
      unicode="&#xEA46;"
      horiz-adv-x="128" d="M63.9999994039536 12.8A51.2 51.2 0 1 1 63.9999994039536 115.2A51.2 51.2 0 0 1 63.9999994039536 12.8zM50.2911994039536 92.896A6.4 6.4 0 0 1 39.3151994039536 86.304L48.8511994039536 70.4H44.7999994039536A6.4 6.4 0 1 1 44.7999994039536 57.6H56.5375994039535L57.5999994039536 55.8272V51.2H44.7999994039536A6.4 6.4 0 1 1 44.7999994039536 38.4H57.5999994039536V32A6.4 6.4 0 1 1 70.3999994039536 32V38.4H83.1999994039535A6.4 6.4 0 1 1 83.1999994039535 51.2H70.3999994039536V55.8272L71.4623994039536 57.6H83.1999994039535A6.4 6.4 0 1 1 83.1999994039535 70.4H79.1423994039536L88.6911994039536 86.3104A6.4 6.4 0 1 1 77.7087994039536 92.896L64.2175994039536 70.4H63.7823994039536L50.2911994039536 92.896z" />
    <glyph glyph-name="cursor-click"
      unicode="&#xEA47;"
      horiz-adv-x="128" d="M45.3689682195223 115.7696A6.4 6.4 0 1 1 33.0041682195223 112.4544L34.6617682195223 106.272A6.4 6.4 0 0 1 47.0265682195224 109.5872L45.3625682195224 115.7696zM18.2137682195223 97.664A6.4 6.4 0 1 1 14.9049682195223 85.2992L21.0873682195223 83.6416A6.4 6.4 0 0 1 24.3961682195223 96.0064L18.2137682195223 97.6704zM74.6233682195224 101.3056A6.4 6.4 0 0 1 65.5673682195223 110.3552L61.0425682195223 105.8304A6.4 6.4 0 1 1 70.0985682195223 96.7744L74.6233682195223 101.3056zM29.3689682195224 56.0448L33.8937682195223 60.5696A6.4 6.4 0 0 1 24.8441682195223 69.632L20.3129682195223 65.1072A6.4 6.4 0 0 1 29.3689682195223 56.0512zM49.8489682195224 89.1392A6.4 6.4 0 0 1 41.5289682195224 80.8192L67.1289682195224 16.8192A6.4 6.4 0 0 1 78.7961682195224 16.3392L87.6281682195224 33.9968L106.9433682195224 14.6688A6.4 6.4 0 0 1 115.9929682195224 23.7248L96.6713682195224 43.0528L114.3353682195224 51.8784A6.4 6.4 0 0 1 113.8489682195224 63.5392L49.8489682195224 89.1392z" />
    <glyph glyph-name="database"
      unicode="&#xEA48;"
      horiz-adv-x="128" d="M19.2 51.2V32C19.2 21.3952 39.2576 12.8 64 12.8S108.8 21.3952 108.8 32V51.2C108.8 40.5952 88.7424 32 64 32S19.2 40.5952 19.2 51.2zM19.2 83.2V64C19.2 53.3952 39.2576 44.8 64 44.8S108.8 53.3952 108.8 64V83.2C108.8 72.5952 88.7424 64 64 64S19.2 72.5952 19.2 83.2zM108.8 96C108.8 85.3952 88.7424 76.8 64 76.8S19.2 85.3952 19.2 96S39.2576 115.2 64 115.2S108.8 106.6048 108.8 96z" />
    <glyph glyph-name="desktop-computer"
      unicode="&#xEA49;"
      horiz-adv-x="128" d="M19.2 96A12.8 12.8 0 0 0 32 108.8H96A12.8 12.8 0 0 0 108.8 96V44.8A12.8 12.8 0 0 0 96 32H81.792L82.5792 28.8704L87.7248 23.7248A6.4 6.4 0 0 0 83.2 12.8H44.8A6.4 6.4 0 0 0 40.2752 23.7248L45.4208 28.8704L46.208 32H32A12.8 12.8 0 0 0 19.2 44.8V96zM56.1344 51.2H32V96H96V51.2H56.1344z" />
    <glyph glyph-name="device-mobile"
      unicode="&#xEA4A;"
      horiz-adv-x="128" d="M44.8 115.2A12.8 12.8 0 0 1 32 102.4V25.6A12.8 12.8 0 0 1 44.8 12.8H83.2A12.8 12.8 0 0 1 96 25.6V102.4A12.8 12.8 0 0 1 83.2 115.2H44.8zM64 25.6A6.4 6.4 0 1 1 64 38.4A6.4 6.4 0 0 1 64 25.6z" />
    <glyph glyph-name="device-tablet"
      unicode="&#xEA4B;"
      horiz-adv-x="128" d="M38.4 115.2A12.8 12.8 0 0 1 25.6 102.4V25.6A12.8 12.8 0 0 1 38.4 12.8H89.6A12.8 12.8 0 0 1 102.4 25.6V102.4A12.8 12.8 0 0 1 89.6 115.2H38.4zM64 25.6A6.4 6.4 0 1 1 64 38.4A6.4 6.4 0 0 1 64 25.6z" />
    <glyph glyph-name="document"
      unicode="&#xEA4C;"
      horiz-adv-x="128" d="M25.6 102.4A12.8 12.8 0 0 0 38.4 115.2H67.7504A12.8 12.8 0 0 0 76.8 111.4496L98.6496 89.6A12.8 12.8 0 0 0 102.4 80.5504V25.6A12.8 12.8 0 0 0 89.6 12.8H38.4A12.8 12.8 0 0 0 25.6 25.6V102.4z" />
    <glyph glyph-name="document-add"
      unicode="&#xEA4D;"
      horiz-adv-x="128" d="M38.4 115.2A12.8 12.8 0 0 1 25.6 102.4V25.6A12.8 12.8 0 0 1 38.4 12.8H89.6A12.8 12.8 0 0 1 102.4 25.6V80.5504A12.8 12.8 0 0 1 98.6496 89.6L76.8 111.4496A12.8 12.8 0 0 1 67.7504 115.2H38.4zM70.4 76.8A6.4 6.4 0 1 1 57.6 76.8V64H44.8A6.4 6.4 0 1 1 44.8 51.2H57.6V38.4A6.4 6.4 0 1 1 70.4 38.4V51.2H83.2A6.4 6.4 0 1 1 83.2 64H70.4V76.8z" />
    <glyph glyph-name="document-download"
      unicode="&#xEA4E;"
      horiz-adv-x="128" d="M38.4 115.2A12.8 12.8 0 0 1 25.6 102.4V25.6A12.8 12.8 0 0 1 38.4 12.8H89.6A12.8 12.8 0 0 1 102.4 25.6V80.5504A12.8 12.8 0 0 1 98.6496 89.6L76.8 111.4496A12.8 12.8 0 0 1 67.7504 115.2H38.4zM70.4 76.8A6.4 6.4 0 1 1 57.6 76.8V53.8496L49.3248 62.1248A6.4 6.4 0 1 1 40.2752 53.0752L59.4752 33.8752A6.4 6.4 0 0 1 68.5248 33.8752L87.7248 53.0752A6.4 6.4 0 0 1 78.6752 62.1248L70.4 53.8496V76.8z" />
    <glyph glyph-name="document-duplicate"
      unicode="&#xEA4F;"
      horiz-adv-x="128" d="M57.6 115.2A12.8 12.8 0 0 1 44.8 102.4V51.2A12.8 12.8 0 0 1 57.6 38.4H96A12.8 12.8 0 0 1 108.8 51.2V86.9504A12.8 12.8 0 0 1 105.0496 96L89.6 111.4496A12.8 12.8 0 0 1 80.5504 115.2H57.6zM19.2 76.8A12.8 12.8 0 0 0 32 89.6V25.6H83.2A12.8 12.8 0 0 0 70.4 12.8H32A12.8 12.8 0 0 0 19.2 25.6V76.8z" />
    <glyph glyph-name="document-remove"
      unicode="&#xEA50;"
      horiz-adv-x="128" d="M38.4 115.2A12.8 12.8 0 0 1 25.6 102.4V25.6A12.8 12.8 0 0 1 38.4 12.8H89.6A12.8 12.8 0 0 1 102.4 25.6V80.5504A12.8 12.8 0 0 1 98.6496 89.6L76.8 111.4496A12.8 12.8 0 0 1 67.7504 115.2H38.4zM44.8 64A6.4 6.4 0 1 1 44.8 51.2H83.2A6.4 6.4 0 1 1 83.2 64H44.8z" />
    <glyph glyph-name="document-report"
      unicode="&#xEA51;"
      horiz-adv-x="128" d="M38.4 115.2A12.8 12.8 0 0 1 25.6 102.4V25.6A12.8 12.8 0 0 1 38.4 12.8H89.6A12.8 12.8 0 0 1 102.4 25.6V80.5504A12.8 12.8 0 0 1 98.6496 89.6L76.8 111.4496A12.8 12.8 0 0 1 67.7504 115.2H38.4zM51.2 51.2A6.4 6.4 0 1 1 38.4 51.2V32A6.4 6.4 0 1 1 51.2 32V51.2zM64 70.4A6.4 6.4 0 0 0 70.4 64V32A6.4 6.4 0 1 0 57.6 32V64A6.4 6.4 0 0 0 64 70.4zM89.6 76.8A6.4 6.4 0 1 1 76.8 76.8V32A6.4 6.4 0 1 1 89.6 32V76.8z" />
    <glyph glyph-name="document-search"
      unicode="&#xEA52;"
      horiz-adv-x="128" d="M28.800648360668 102.4A12.8 12.8 0 0 0 41.600648360668 115.2H70.951048360668A12.8 12.8 0 0 0 80.000648360668 111.4496L101.8502483606681 89.6A12.8 12.8 0 0 0 105.600648360668 80.5504V25.6A12.8 12.8 0 0 0 92.8006483606681 12.8H83.0214483606681A38.4 38.4 0 0 1 28.800648360668 67.0208V102.4zM54.400648360668 64A25.6 25.6 0 0 1 32.346248360668 25.3952L24.275848360668 17.3312A6.4 6.4 0 1 1 33.325448360668 8.2752L41.395848360668 16.3456A25.6 25.6 0 1 1 54.400648360668 64zM41.600648360668 38.4A12.8 12.8 0 1 0 67.200648360668 38.4A12.8 12.8 0 0 0 41.600648360668 38.4z" />
    <glyph glyph-name="document-text"
      unicode="&#xEA53;"
      horiz-adv-x="128" d="M25.6 102.4A12.8 12.8 0 0 0 38.4 115.2H67.7504A12.8 12.8 0 0 0 76.8 111.4496L98.6496 89.6A12.8 12.8 0 0 0 102.4 80.5504V25.6A12.8 12.8 0 0 0 89.6 12.8H38.4A12.8 12.8 0 0 0 25.6 25.6V102.4zM38.4 64A6.4 6.4 0 0 0 44.8 70.4H83.2A6.4 6.4 0 1 0 83.2 57.6H44.8A6.4 6.4 0 0 0 38.4 64zM44.8 44.8A6.4 6.4 0 1 1 44.8 32H83.2A6.4 6.4 0 1 1 83.2 44.8H44.8z" />
    <glyph glyph-name="dots-circle-horizontal"
      unicode="&#xEA54;"
      horiz-adv-x="128" d="M63.9999994039536 12.8A51.2 51.2 0 1 1 63.9999994039536 115.2A51.2 51.2 0 0 1 63.9999994039536 12.8zM44.7999994039536 70.4H31.9999994039535V57.6H44.7999994039536V70.4zM95.9999994039536 70.4H83.1999994039535V57.6H95.9999994039536V70.4zM57.5999994039536 70.4H70.3999994039536V57.6H57.5999994039536V70.4z" />
    <glyph glyph-name="dots-horizontal"
      unicode="&#xEA55;"
      horiz-adv-x="128" d="M38.3999998946329 64A12.8 12.8 0 1 0 12.7999998946329 64A12.8 12.8 0 0 0 38.3999998946329 64zM76.7999998946329 64A12.8 12.8 0 1 0 51.1999998946329 64A12.8 12.8 0 0 0 76.7999998946329 64zM102.3999998946329 51.2A12.8 12.8 0 1 1 102.3999998946329 76.8A12.8 12.8 0 0 1 102.3999998946329 51.2z" />
    <glyph glyph-name="dots-vertical"
      unicode="&#xEA56;"
      horiz-adv-x="128" d="M64.0000002878683 89.6A12.8 12.8 0 1 0 64.0000002878683 115.2A12.8 12.8 0 0 0 64.0000002878683 89.6zM64.0000002878683 51.2A12.8 12.8 0 1 0 64.0000002878683 76.8A12.8 12.8 0 0 0 64.0000002878683 51.2zM64.0000002878683 12.8A12.8 12.8 0 1 0 64.0000002878683 38.4A12.8 12.8 0 0 0 64.0000002878683 12.8z" />
    <glyph glyph-name="download"
      unicode="&#xEA57;"
      horiz-adv-x="128" d="M19.1999999087494 19.2A6.4 6.4 0 0 0 25.5999999087494 25.6H102.3999999087494A6.4 6.4 0 1 0 102.3999999087494 12.8H25.5999999087494A6.4 6.4 0 0 0 19.1999999087494 19.2zM40.2751999087494 68.5248A6.4 6.4 0 0 0 49.3247999087494 68.5248L57.5999999087494 60.2496V108.8A6.4 6.4 0 1 0 70.3999999087494 108.8V60.2496L78.6751999087494 68.5248A6.4 6.4 0 1 0 87.7247999087494 59.4752L68.5247999087494 40.2752A6.4 6.4 0 0 0 59.4751999087494 40.2752L40.2751999087494 59.4752A6.4 6.4 0 0 0 40.2751999087494 68.5248z" />
    <glyph glyph-name="duplicate"
      unicode="&#xEA58;"
      horiz-adv-x="128" d="M44.8 70.4A12.8 12.8 0 0 0 57.6 83.2H96A12.8 12.8 0 0 0 108.8 70.4V32A12.8 12.8 0 0 0 96 19.2H57.6A12.8 12.8 0 0 0 44.8 32V70.4zM32 108.8A12.8 12.8 0 0 1 19.2 96V57.6A12.8 12.8 0 0 1 32 44.8V96H83.2A12.8 12.8 0 0 1 70.4 108.8H32z" />
    <glyph glyph-name="emoji-happy"
      unicode="&#xEA59;"
      horiz-adv-x="128" d="M63.9999994039536 12.8A51.2 51.2 0 1 1 63.9999994039536 115.2A51.2 51.2 0 0 1 63.9999994039536 12.8zM44.7999994039536 70.4A6.4 6.4 0 1 1 44.7999994039536 83.2A6.4 6.4 0 0 1 44.7999994039536 70.4zM89.5999994039536 76.8A6.4 6.4 0 1 0 76.7999994039536 76.8A6.4 6.4 0 0 0 89.5999994039536 76.8zM86.6303994039536 41.376A6.4 6.4 0 1 1 77.5743994039536 50.4256A19.2 19.2 0 0 0 50.4255994039535 50.4256A6.4 6.4 0 0 1 41.3695994039535 41.376A32 32 0 0 1 86.6303994039535 41.376z" />
    <glyph glyph-name="emoji-sad"
      unicode="&#xEA5A;"
      horiz-adv-x="128" d="M63.9999994039536 12.8A51.2 51.2 0 1 1 63.9999994039536 115.2A51.2 51.2 0 0 1 63.9999994039536 12.8zM44.7999994039536 70.4A6.4 6.4 0 1 1 44.7999994039536 83.2A6.4 6.4 0 0 1 44.7999994039536 70.4zM89.5999994039536 76.8A6.4 6.4 0 1 0 76.7999994039536 76.8A6.4 6.4 0 0 0 89.5999994039536 76.8zM41.3695994039536 39.1744A6.4 6.4 0 0 1 50.4255994039536 39.1744A19.2 19.2 0 0 0 77.5743994039536 39.1744A6.4 6.4 0 0 1 86.6303994039536 48.2304A32 32 0 0 1 41.3695994039536 48.2304A6.4 6.4 0 0 1 41.3695994039536 39.1744z" />
    <glyph glyph-name="exclamation"
      unicode="&#xEA5B;"
      horiz-adv-x="128" d="M52.8447569440072 108.1664C57.7407569440072 116.8704 70.2655569440072 116.8704 75.1551569440072 108.1664L110.8671569440072 44.6784C115.6671569440072 36.1408 109.5039569440072 25.6064 99.7183569440072 25.6064H28.2879569440072C18.4959569440072 25.6064 12.3327569440072 36.1408 17.1327569440072 44.6784L52.8447569440072 108.1664zM70.3999569440072 44.8A6.4 6.4 0 1 0 57.5999569440072 44.8A6.4 6.4 0 0 0 70.3999569440072 44.8zM63.9999569440072 96A6.4 6.4 0 0 1 57.5999569440072 89.6V70.4A6.4 6.4 0 0 1 70.3999569440072 70.4V89.6A6.4 6.4 0 0 1 63.9999569440072 96z" />
    <glyph glyph-name="exclamation-circle"
      unicode="&#xEA5C;"
      horiz-adv-x="128" d="M115.2 64A51.2 51.2 0 1 0 12.8 64A51.2 51.2 0 0 0 115.2 64zM70.4 38.4A6.4 6.4 0 1 0 57.6 38.4A6.4 6.4 0 0 0 70.4 38.4zM64 96A6.4 6.4 0 0 1 57.6 89.6V64A6.4 6.4 0 1 1 70.4 64V89.6A6.4 6.4 0 0 1 64 96z" />
    <glyph glyph-name="external-link"
      unicode="&#xEA5D;"
      horiz-adv-x="128" d="M70.4 108.8A6.4 6.4 0 1 1 70.4 96H86.9504L46.6752 55.7248A6.4 6.4 0 1 1 55.7248 46.6752L96 86.9504V70.4A6.4 6.4 0 1 1 108.8 70.4V102.4A6.4 6.4 0 0 1 102.4 108.8H70.4zM32 96A12.8 12.8 0 0 1 19.2 83.2V32A12.8 12.8 0 0 1 32 19.2H83.2A12.8 12.8 0 0 1 96 32V51.2A6.4 6.4 0 1 1 83.2 51.2V32H32V83.2H51.2A6.4 6.4 0 0 1 51.2 96H32z" />
    <glyph glyph-name="eye"
      unicode="&#xEA5E;"
      horiz-adv-x="128" d="M64 51.2A12.8 12.8 0 1 1 64 76.8A12.8 12.8 0 0 1 64 51.2zM2.9312 64C11.0848 89.9648 35.3408 108.8 64 108.8S116.9152 89.9648 125.0688 64C116.9152 38.0352 92.6592 19.2 64 19.2S11.0848 38.0352 2.9312 64zM89.6 64A25.6 25.6 0 1 0 38.4 64A25.6 25.6 0 0 0 89.6 64z" />
    <glyph glyph-name="eye-off"
      unicode="&#xEA5F;"
      horiz-adv-x="128" d="M23.7248 113.3248A6.4 6.4 0 0 1 14.6752 104.2752L104.2752 14.6752A6.4 6.4 0 0 1 113.3248 23.7248L103.8976 33.152A64.0896 64.0896 0 0 1 125.0688 64C116.9152 89.9648 92.6592 108.8 64 108.8A63.7312 63.7312 0 0 1 35.1232 101.9264L23.7312 113.3248zM50.9952 86.0608L60.6848 76.3648A12.8192 12.8192 0 0 0 76.3648 60.6848L86.0544 50.9952A25.6 25.6 0 0 1 50.9952 86.0544zM79.7056 21.1392L62.4 38.4512A25.6 25.6 0 0 0 38.4512 62.3936L14.944 85.9008A63.872 63.872 0 0 1 2.9312 64C11.0848 38.0352 35.3472 19.2 64 19.2C69.4208 19.2 74.6816 19.872 79.7056 21.1392z" />
    <glyph glyph-name="fast-forward"
      unicode="&#xEA60;"
      horiz-adv-x="128" d="M25.9512820528699 94.9248A6.4 6.4 0 0 1 15.9992820528699 89.6V38.4A6.4 6.4 0 0 1 25.9512820528699 33.0752L60.7992820528699 56.3072V38.4A6.4 6.4 0 0 1 70.7512820528699 33.0752L109.15128205287 58.6752A6.4 6.4 0 0 1 109.15128205287 69.3248L70.7512820528699 94.9248A6.4 6.4 0 0 1 60.7992820528699 89.6V71.6928L25.9512820528699 94.9248z" />
    <glyph glyph-name="film"
      unicode="&#xEA61;"
      horiz-adv-x="128" d="M25.6 108.8A12.8 12.8 0 0 1 12.8 96V32A12.8 12.8 0 0 1 25.6 19.2H102.4A12.8 12.8 0 0 1 115.2 32V96A12.8 12.8 0 0 1 102.4 108.8H25.6zM44.8 96H83.2V70.4H44.8V96zM96 44.8V32H102.4V44.8H96zM83.2 57.6H44.8V32H83.2V57.6zM96 57.6H102.4V70.4H96V57.6zM102.4 83.2V96H96V83.2H102.4zM32 96V83.2H25.6V96H32zM32 70.4H25.6V57.6H32V70.4zM25.6 44.8H32V32H25.6V44.8z" />
    <glyph glyph-name="filter"
      unicode="&#xEA62;"
      horiz-adv-x="128" d="M19.2 108.8A6.4 6.4 0 0 0 25.6 115.2H102.4A6.4 6.4 0 0 0 108.8 108.8V89.6A6.4 6.4 0 0 0 106.9248 85.0752L76.8 54.9504V32A6.4 6.4 0 0 0 74.9248 27.4752L62.1248 14.6752A6.4 6.4 0 0 0 51.2 19.2V54.9504L21.0752 85.0752A6.4 6.4 0 0 0 19.2 89.6V108.8z" />
    <glyph glyph-name="finger-print"
      unicode="&#xEA63;"
      horiz-adv-x="128" d="M42.4000226245605 111.008A57.6 57.6 0 0 0 121.6000226245605 57.6A6.4 6.4 0 1 0 108.8000226245605 57.6A44.8 44.8 0 0 1 47.2000226245605 99.1488A6.4 6.4 0 1 0 42.4000226245605 111.008zM29.8368226245605 96.2624A6.4 6.4 0 0 0 30.4000226245605 87.232A44.608 44.608 0 0 1 19.2000226245605 57.6A6.4 6.4 0 1 0 6.4000226245605 57.6A57.408 57.408 0 0 0 20.8000226245605 95.6992A6.4 6.4 0 0 0 29.8368226245605 96.2624zM32.0000226245605 57.6A32 32 0 1 0 96.0000226245605 57.6A6.4 6.4 0 1 0 83.2000226245605 57.6A19.2 19.2 0 1 1 44.8000226245605 57.6C44.8000226245605 46.8672 42.5920226245605 36.6336 38.6048226245605 27.3344A6.4 6.4 0 1 0 26.8416226245605 32.384A63.7696 63.7696 0 0 1 32.0000226245605 57.6zM89.0944226245605 44.7232A6.4 6.4 0 0 0 94.4128226245605 37.3952A127.104 127.104 0 0 0 90.9248226245605 21.8048A6.4 6.4 0 1 0 78.6368226245605 25.376C79.9616226245605 29.9392 81.0112226245605 34.624 81.7728226245605 39.4048A6.4 6.4 0 0 0 89.0944226245605 44.7168zM64.0000226245605 64A6.4 6.4 0 0 0 70.4000226245605 57.6C70.4000226245605 43.2896 67.4560226245605 29.6448 62.1440226245605 17.2544A6.4 6.4 0 0 0 50.3808226245605 22.304A89.2928 89.2928 0 0 1 57.6000226245605 57.6A6.4 6.4 0 0 0 64.0000226245605 64z" />
    <glyph glyph-name="fire"
      unicode="&#xEA64;"
      horiz-adv-x="128" d="M79.3280161372377 111.6608A6.4 6.4 0 0 1 70.0480161372377 114.1248C67.8400161372377 112.6528 66.1184161372377 110.5536 64.7872161372377 108.4928C63.4176161372377 106.3808 62.2080161372377 103.9296 61.1392161372377 101.3504C59.0016161372377 96.2048 57.2096161372377 90.0352 55.7632161372377 83.8528A200.736 200.736 0 0 1 51.8400161372377 60.9408A16.896 16.896 0 0 0 45.7920161372377 67.7696C43.6928161372377 72.1216 43.2448161372377 77.5872 43.2448161372377 84.7552A6.4 6.4 0 0 1 32.3200161372377 89.28A44.6784 44.6784 0 0 1 19.2000161372377 57.6A44.8 44.8 0 1 1 95.6800161372377 89.28C91.8912161372377 93.0624 89.4080161372377 95.584 87.0528161372377 98.6688C84.7296161372377 101.7152 82.4192161372377 105.472 79.3280161372377 111.6608zM77.5680161372377 31.232A19.2 19.2 0 0 0 44.8000161372377 44.8S50.4256161372377 41.6 60.8000161372377 41.6C60.8000161372377 48 64.0000161372377 67.2 68.8000161372377 70.4C72.0000161372377 64 73.8304161372377 62.1248 77.5744161372377 58.3744A19.136 19.136 0 0 0 83.2000161372377 44.8A19.136 19.136 0 0 0 77.5744161372377 31.2256z" />
    <glyph glyph-name="flag"
      unicode="&#xEA65;"
      horiz-adv-x="128" d="M19.2 89.6A19.2 19.2 0 0 0 38.4 108.8H102.4A6.4 6.4 0 0 0 107.52 98.56L91.2 76.8L107.52 55.04A6.4 6.4 0 0 0 102.4 44.8H38.4A6.4 6.4 0 0 1 32 38.4V19.2A6.4 6.4 0 1 0 19.2 19.2V89.6z" />
    <glyph glyph-name="folder"
      unicode="&#xEA66;"
      horiz-adv-x="128" d="M12.8 89.6A12.8 12.8 0 0 0 25.6 102.4H57.6L70.4 89.6H102.4A12.8 12.8 0 0 0 115.2 76.8V38.4A12.8 12.8 0 0 0 102.4 25.6H25.6A12.8 12.8 0 0 0 12.8 38.4V89.6z" />
    <glyph glyph-name="folder-add"
      unicode="&#xEA67;"
      horiz-adv-x="128" d="M12.8 89.6A12.8 12.8 0 0 0 25.6 102.4H57.6L70.4 89.6H102.4A12.8 12.8 0 0 0 115.2 76.8V38.4A12.8 12.8 0 0 0 102.4 25.6H25.6A12.8 12.8 0 0 0 12.8 38.4V89.6zM51.2 57.6H76.8M64 70.4V44.8" />
    <glyph glyph-name="folder-download"
      unicode="&#xEA68;"
      horiz-adv-x="128" d="M12.8 89.6A12.8 12.8 0 0 0 25.6 102.4H57.6L70.4 89.6H102.4A12.8 12.8 0 0 0 115.2 76.8V38.4A12.8 12.8 0 0 0 102.4 25.6H25.6A12.8 12.8 0 0 0 12.8 38.4V89.6zM64 70.4V44.8M64 44.8L51.2 57.6M64 44.8L76.8 57.6" />
    <glyph glyph-name="folder-open"
      unicode="&#xEA69;"
      horiz-adv-x="128" d="M12.8 89.6A12.8 12.8 0 0 0 25.6 102.4H51.2L64 89.6H89.6A12.8 12.8 0 0 0 102.4 76.8V70.4H51.2A19.2 19.2 0 0 1 32 51.2V41.6A9.6 9.6 0 0 0 12.8 41.6V89.6zM38.4 51.2A12.8 12.8 0 0 0 51.2 64H102.4A12.8 12.8 0 0 0 115.2 51.2V38.4A12.8 12.8 0 0 0 102.4 25.6H12.8H25.6A12.8 12.8 0 0 1 38.4 38.4V51.2z" />
    <glyph glyph-name="folder-remove"
      unicode="&#xEA6A;"
      horiz-adv-x="128" d="M12.8 89.6A12.8 12.8 0 0 0 25.6 102.4H57.6L70.4 89.6H102.4A12.8 12.8 0 0 0 115.2 76.8V38.4A12.8 12.8 0 0 0 102.4 25.6H25.6A12.8 12.8 0 0 0 12.8 38.4V89.6zM51.2 57.6H76.8" />
    <glyph glyph-name="gift"
      unicode="&#xEA6B;"
      horiz-adv-x="128" d="M32 96A19.2 19.2 0 0 0 64 110.3104A19.2 19.2 0 0 0 94.912 89.6H102.4A12.8 12.8 0 1 0 102.4 64H70.4V70.4A6.4 6.4 0 1 1 57.6 70.4V64H25.6A12.8 12.8 0 1 0 25.6 89.6H33.088C32.384 91.6032 32 93.76 32 96zM57.6 89.6V96A6.4 6.4 0 1 1 51.2 89.6H57.6zM76.8 89.6A6.4 6.4 0 1 1 70.4 96V89.6H76.8zM57.6 57.6H19.2V25.6A12.8 12.8 0 0 1 32 12.8H57.6V57.6zM70.4 12.8H96A12.8 12.8 0 0 1 108.8 25.6V57.6H70.4V12.8z" />
    <glyph glyph-name="globe"
      unicode="&#xEA6C;"
      horiz-adv-x="128" d="M63.9999994039536 12.8A51.2 51.2 0 1 1 63.9999994039536 115.2A51.2 51.2 0 0 1 63.9999994039536 12.8zM27.7247994039535 76.6272A38.4768 38.4768 0 0 0 39.9615994039536 93.9456C41.6767994039535 91.328 44.6335994039535 89.6 47.9999994039535 89.6A9.6 9.6 0 0 0 57.5999994039536 80V76.8A12.8 12.8 0 0 1 83.1999994039535 76.8A12.8 12.8 0 0 0 92.9471994039536 89.2352A38.2528 38.2528 0 0 0 102.3999994039536 64C102.3999994039536 61.824 102.2207994039536 59.68 101.8687994039536 57.6H95.9999994039536A12.8 12.8 0 0 1 83.1999994039535 44.8V30.7392A38.2272 38.2272 0 0 0 63.9999994039536 25.6V38.4A12.8 12.8 0 0 1 51.1999994039536 51.2A12.8 12.8 0 0 0 38.3999994039536 64A12.8 12.8 0 0 1 27.7247994039535 76.6272z" />
    <glyph glyph-name="globe-alt"
      unicode="&#xEA6D;"
      horiz-adv-x="128" d="M26.1312005960464 70.4H38.5856005960464C39.1552005960465 80.2944 41.0368005960464 89.408 43.9424005960464 96.7552A38.4256 38.4256 0 0 1 26.1312005960464 70.4zM64.0000005960465 115.2A51.2 51.2 0 1 1 64.0000005960465 12.8A51.2 51.2 0 0 1 64.0000005960465 115.2zM64.0000005960465 102.4C63.5136005960464 102.4 62.5152005960465 102.1952 61.0240005960464 100.7232C59.5008005960465 99.2256 57.8432005960464 96.736 56.3072005960464 93.1584C53.8176005960464 87.3536 52.0000005960464 79.4496 51.4048005960464 70.4H76.5952005960465C76.0000005960465 79.4496 74.1824005960465 87.3536 71.6928005960465 93.1584C70.1568005960465 96.7424 68.4928005960464 99.2256 66.9760005960465 100.7232C65.4848005960464 102.1952 64.4864005960465 102.4 64.0000005960465 102.4zM89.4144005960465 70.4C88.8448005960464 80.2944 86.9632005960465 89.408 84.0576005960465 96.7552A38.4256 38.4256 0 0 0 101.8688005960464 70.4H89.4144005960465zM76.5952005960465 57.6H51.4048005960464C52.0000005960464 48.5504 53.8176005960464 40.6464 56.3072005960464 34.8416C57.8432005960464 31.2576 59.5072005960465 28.7744 61.0240005960464 27.2768C62.5152005960465 25.8048 63.5136005960464 25.6 64.0000005960465 25.6C64.4864005960465 25.6 65.4848005960464 25.8048 66.9760005960465 27.2768C68.4992005960465 28.7744 70.1632005960464 31.264 71.6928005960465 34.8416C74.1824005960465 40.6464 76.0000005960465 48.5504 76.5952005960465 57.6zM84.0576005960465 31.2448C86.9632005960465 38.5856 88.8448005960464 47.7056 89.4144005960465 57.6H101.8688005960464A38.4256 38.4256 0 0 0 84.0576005960465 31.2448zM43.9424005960465 31.2448C41.0368005960464 38.592 39.1552005960465 47.7056 38.5920005960464 57.6H26.1312005960464A38.4256 38.4256 0 0 1 43.9424005960464 31.2448z" />
    <glyph glyph-name="hand"
      unicode="&#xEA6E;"
      horiz-adv-x="128" d="M57.6 108.8A6.4 6.4 0 0 0 70.4 108.8V73.6A3.2 3.2 0 0 1 76.8 73.6V102.4A6.4 6.4 0 1 0 89.6 102.4V73.6A3.2 3.2 0 0 1 96 73.6V89.6A6.4 6.4 0 1 0 108.8 89.6V57.6A44.8 44.8 0 1 0 19.2 57.6V70.4A6.4 6.4 0 0 0 32 70.4V54.4A3.2 3.2 0 0 1 38.4 54.4V102.4A6.4 6.4 0 0 0 51.2 102.4V73.6A3.2 3.2 0 0 1 57.6 73.6V108.8z" />
    <glyph glyph-name="hashtag"
      unicode="&#xEA6F;"
      horiz-adv-x="128" d="M59.1552 108.608A6.4 6.4 0 0 0 63.808 100.8448L60.992 89.6H79.808L83.392 103.9552A6.4 6.4 0 1 0 95.808 100.8448L92.992 89.6H108.8A6.4 6.4 0 1 0 108.8 76.8H89.792L83.392 51.2H96A6.4 6.4 0 1 0 96 38.4H80.192L76.608 24.0512A6.4 6.4 0 1 0 64.192 27.1552L67.008 38.4H48.192L44.608 24.0512A6.4 6.4 0 1 0 32.192 27.1552L35.008 38.4H19.2A6.4 6.4 0 1 0 19.2 51.2H38.208L44.608 76.8H32A6.4 6.4 0 1 0 32 89.6H47.808L51.392 103.9552A6.4 6.4 0 0 0 59.1552 108.608zM57.792 76.8L51.392 51.2H70.1952L76.5952 76.8H57.7984z" />
    <glyph glyph-name="heart"
      unicode="&#xEA70;"
      horiz-adv-x="128" d="M20.1407775746841 94.8992A25.6 25.6 0 0 0 56.3391775746841 94.8992L63.8399775746841 87.4048L71.3407775746841 94.8992A25.6 25.6 0 1 0 107.5391775746841 58.7008L63.8399775746841 14.9952L20.1407775746841 58.7008A25.6 25.6 0 0 0 20.1407775746841 94.8992z" />
    <glyph glyph-name="home"
      unicode="&#xEA71;"
      horiz-adv-x="128" d="M68.5247999999999 113.3248A6.4 6.4 0 0 1 59.4751999999999 113.3248L14.6751999999999 68.5248A6.4 6.4 0 0 1 23.7247999999999 59.4752L25.5999999999999 61.3504V19.2A6.4 6.4 0 0 1 31.9999999999999 12.8H44.7999999999999A6.4 6.4 0 0 1 51.1999999999999 19.2V32A6.4 6.4 0 0 0 57.5999999999999 38.4H70.3999999999999A6.4 6.4 0 0 0 76.7999999999999 32V19.2A6.4 6.4 0 0 1 83.1999999999999 12.8H95.9999999999999A6.4 6.4 0 0 1 102.3999999999999 19.2V61.3504L104.2751999999999 59.4752A6.4 6.4 0 0 1 113.3247999999999 68.5248L68.5247999999999 113.3248z" />
    <glyph glyph-name="identification"
      unicode="&#xEA72;"
      horiz-adv-x="128" d="M64 115.2A6.4 6.4 0 0 1 57.6 108.8V102.4A6.4 6.4 0 0 1 70.4 102.4V108.8A6.4 6.4 0 0 1 64 115.2zM25.6 102.4H44.8A19.2 19.2 0 0 1 83.2 102.4H102.4A12.8 12.8 0 0 0 115.2 89.6V32A12.8 12.8 0 0 0 102.4 19.2H25.6A12.8 12.8 0 0 0 12.8 32V89.6A12.8 12.8 0 0 0 25.6 102.4zM41.6 57.6A9.6 9.6 0 1 1 41.6 76.8A9.6 9.6 0 0 1 41.6 57.6zM57.28 32A16 16 0 1 1 25.92 32H57.28zM76.8 70.4A6.4 6.4 0 1 1 76.8 57.6H96A6.4 6.4 0 1 1 96 70.4H76.8zM70.4 44.8A6.4 6.4 0 0 0 76.8 51.2H89.6A6.4 6.4 0 1 0 89.6 38.4H76.8A6.4 6.4 0 0 0 70.4 44.8z" />
    <glyph glyph-name="inbox"
      unicode="&#xEA73;"
      horiz-adv-x="128" d="M32 108.8A12.8 12.8 0 0 1 19.2 96V32A12.8 12.8 0 0 1 32 19.2H96A12.8 12.8 0 0 1 108.8 32V96A12.8 12.8 0 0 1 96 108.8H32zM32 96H96V51.2H83.2L76.8 38.4H51.2L44.8 51.2H32V96z" />
    <glyph glyph-name="inbox-in"
      unicode="&#xEA74;"
      horiz-adv-x="128" d="M55.7248 81.3248A6.4 6.4 0 0 1 46.6752 72.2752L59.4752 59.4752A6.4 6.4 0 0 1 68.5248 59.4752L81.3248 72.2752A6.4 6.4 0 0 1 72.2752 81.3248L70.4 79.4496V108.8A6.4 6.4 0 1 1 57.6 108.8V79.4496L55.7248 81.3248zM19.2 96A12.8 12.8 0 0 0 32 108.8H38.4A6.4 6.4 0 0 0 38.4 96H32V51.2H44.8L51.2 38.4H76.8L83.2 51.2H96V96H89.6A6.4 6.4 0 1 0 89.6 108.8H96A12.8 12.8 0 0 0 108.8 96V32A12.8 12.8 0 0 0 96 19.2H32A12.8 12.8 0 0 0 19.2 32V96z" />
    <glyph glyph-name="information-circle"
      unicode="&#xEA75;"
      horiz-adv-x="128" d="M115.2 64A51.2 51.2 0 1 0 12.8 64A51.2 51.2 0 0 0 115.2 64zM70.4 89.6A6.4 6.4 0 1 0 57.6 89.6A6.4 6.4 0 0 0 70.4 89.6zM57.6 70.4A6.4 6.4 0 0 1 57.6 57.6V38.4A6.4 6.4 0 0 1 64 32H70.4A6.4 6.4 0 1 1 70.4 44.8V64A6.4 6.4 0 0 1 64 70.4H57.6z" />
    <glyph glyph-name="key"
      unicode="&#xEA76;"
      horiz-adv-x="128" d="M115.1999991832153 76.8A38.4 38.4 0 0 0 65.6447991832153 40.0448L63.9999991832153 38.4L57.5999991832153 32L51.1999991832153 25.6H38.3999991832153V12.8H12.7999991832153V38.4L40.0447991832153 65.6448A38.4 38.4 0 1 0 115.1999991832153 76.8zM76.7999991832153 102.4A6.4 6.4 0 1 1 76.7999991832153 89.6A12.8 12.8 0 0 0 89.5999991832153 76.8A6.4 6.4 0 1 1 102.3999991832153 76.8A25.6 25.6 0 0 1 76.7999991832153 102.4z" />
    <glyph glyph-name="library"
      unicode="&#xEA77;"
      horiz-adv-x="128" d="M67.1744 114.3552A6.4 6.4 0 0 1 60.8256 114.3552L16.0256 88.7552A6.4 6.4 0 0 1 19.2 76.8V32A6.4 6.4 0 1 1 19.2 19.2H108.8A6.4 6.4 0 1 1 108.8 32V76.8A6.4 6.4 0 0 1 111.9744 88.7552L67.1744 114.3552zM38.4 70.4A6.4 6.4 0 0 1 32 64V44.8A6.4 6.4 0 1 1 44.8 44.8V64A6.4 6.4 0 0 1 38.4 70.4zM57.6 64A6.4 6.4 0 0 0 70.4 64V44.8A6.4 6.4 0 1 0 57.6 44.8V64zM89.6 70.4A6.4 6.4 0 0 1 83.2 64V44.8A6.4 6.4 0 1 1 96 44.8V64A6.4 6.4 0 0 1 89.6 70.4z" />
    <glyph glyph-name="light-bulb"
      unicode="&#xEA78;"
      horiz-adv-x="128" d="M70.4 108.8A6.4 6.4 0 1 1 57.6 108.8V102.4A6.4 6.4 0 1 1 70.4 102.4V108.8zM100.2048 91.1552A6.4 6.4 0 0 1 91.1552 100.2048L86.6304 95.68A6.4 6.4 0 0 1 95.68 86.6304L100.2048 91.1552zM115.2 64A6.4 6.4 0 0 0 108.8 57.6H102.4A6.4 6.4 0 1 0 102.4 70.4H108.8A6.4 6.4 0 0 0 115.2 64zM32.32 86.6304A6.4 6.4 0 1 1 41.3696 95.68L36.8448 100.2048A6.4 6.4 0 0 1 27.7952 91.1552L32.32 86.6304zM32 64A6.4 6.4 0 0 0 25.6 57.6H19.2A6.4 6.4 0 1 0 19.2 70.4H25.6A6.4 6.4 0 0 0 32 64zM51.2 25.6V32H76.8V25.6A12.8 12.8 0 1 0 51.2 25.6zM76.8 38.4C76.896 40.576 78.1312 42.5344 79.8528 43.8976A25.6 25.6 0 1 1 48.1472 43.8976C49.8752 42.5344 51.104 40.576 51.1936 38.4H76.8064z" />
    <glyph glyph-name="lightning-bolt"
      unicode="&#xEA79;"
      horiz-adv-x="128" d="M72.32 121.3056A6.4 6.4 0 0 0 76.8 115.2V83.2H102.4A6.4 6.4 0 0 0 107.648 73.1328L62.848 9.1328A6.4 6.4 0 0 0 51.2 12.8V44.8H25.6A6.4 6.4 0 0 0 20.352 54.8672L65.152 118.8672A6.4 6.4 0 0 0 72.32 121.2992z" />
    <glyph glyph-name="link"
      unicode="&#xEA7A;"
      horiz-adv-x="128" d="M80.8649780666228 98.6496A12.8 12.8 0 1 0 98.9641780666228 80.5504L79.7641780666228 61.3504A12.8 12.8 0 0 0 61.6649780666228 61.3504A6.4 6.4 0 0 1 52.6153780666228 52.3008A25.6 25.6 0 0 1 88.8137780666228 52.3008L108.0137780666228 71.5008A25.6 25.6 0 0 1 71.8153780666228 107.6992L62.2153780666228 98.0992A6.4 6.4 0 1 1 71.2649780666228 89.0496L80.8649780666228 98.6496zM48.8649780666228 66.6496A12.8 12.8 0 0 0 66.9641780666228 66.6496A6.4 6.4 0 1 1 76.0137780666228 75.6992A25.6 25.6 0 0 1 39.8153780666228 75.6992L20.6153780666228 56.4992A25.6 25.6 0 1 1 56.8137780666228 20.3008L66.4137780666228 29.9008A6.4 6.4 0 1 1 57.3641780666228 38.9504L47.7641780666228 29.3504A12.8 12.8 0 1 0 29.6649780666228 47.4496L48.8649780666228 66.6496z" />
    <glyph glyph-name="location-marker"
      unicode="&#xEA7B;"
      horiz-adv-x="128" d="M32.3204734160836 102.08A44.8 44.8 0 1 0 95.6804734160836 38.72L64.0004734160836 7.04L32.3204734160836 38.72A44.8 44.8 0 0 0 32.3204734160836 102.08zM64.0004734160836 57.6A12.8 12.8 0 1 1 64.0004734160836 83.2A12.8 12.8 0 0 1 64.0004734160836 57.6z" />
    <glyph glyph-name="lock-closed"
      unicode="&#xEA7C;"
      horiz-adv-x="128" d="M32 70.4V83.2A32 32 0 0 0 96 83.2V70.4A12.8 12.8 0 0 0 108.8 57.6V25.6A12.8 12.8 0 0 0 96 12.8H32A12.8 12.8 0 0 0 19.2 25.6V57.6A12.8 12.8 0 0 0 32 70.4zM83.2 83.2V70.4H44.8V83.2A19.2 19.2 0 0 0 83.2 83.2z" />
    <glyph glyph-name="lock-open"
      unicode="&#xEA7D;"
      horiz-adv-x="128" d="M64 115.2A32 32 0 0 1 32 83.2V70.4A12.8 12.8 0 0 1 19.2 57.6V25.6A12.8 12.8 0 0 1 32 12.8H96A12.8 12.8 0 0 1 108.8 25.6V57.6A12.8 12.8 0 0 1 96 70.4H44.8V83.2A19.2 19.2 0 0 0 82.592 88A6.4 6.4 0 0 1 94.9888 91.2A32.0128 32.0128 0 0 1 64 115.2z" />
    <glyph glyph-name="login"
      unicode="&#xEA7E;"
      horiz-adv-x="128" d="M19.2 108.8A6.4 6.4 0 0 0 25.6 102.4V25.6A6.4 6.4 0 1 0 12.8 25.6V102.4A6.4 6.4 0 0 0 19.2 108.8zM68.5248 87.7248A6.4 6.4 0 0 0 68.5248 78.6752L60.2496 70.4H108.8A6.4 6.4 0 1 0 108.8 57.6H60.2496L68.5248 49.3248A6.4 6.4 0 0 0 59.4752 40.2752L40.2752 59.4752A6.4 6.4 0 0 0 40.2752 68.5248L59.4752 87.7248A6.4 6.4 0 0 0 68.5248 87.7248z" />
    <glyph glyph-name="logout"
      unicode="&#xEA7F;"
      horiz-adv-x="128" d="M19.2006833480011 108.8A6.4 6.4 0 0 1 12.8006833480011 102.4V25.6A6.4 6.4 0 1 1 25.6006833480011 25.6V102.4A6.4 6.4 0 0 1 19.2006833480011 108.8zM85.0758833480011 49.3248A6.4 6.4 0 0 1 94.1254833480011 40.2752L113.3254833480011 59.4752A6.4 6.4 0 0 1 113.3254833480011 68.5248L94.1254833480011 87.7248A6.4 6.4 0 1 1 85.0758833480011 78.6752L93.3510833480011 70.4H44.8006833480011A6.4 6.4 0 1 1 44.8006833480011 57.6H93.3510833480011L85.0758833480011 49.3248z" />
    <glyph glyph-name="mail"
      unicode="&#xEA80;"
      horiz-adv-x="128" d="M12.8192 90.3424L64 64.7552L115.1808 90.3424A12.8 12.8 0 0 1 102.4 102.4H25.6A12.8 12.8 0 0 1 12.8192 90.3424zM115.2 76.0448L64 50.4448L12.8 76.0448V38.4A12.8 12.8 0 0 1 25.6 25.6H102.4A12.8 12.8 0 0 1 115.2 38.4V76.0448z" />
    <glyph glyph-name="mail-open"
      unicode="&#xEA81;"
      horiz-adv-x="128" d="M18.816 86.9632A12.8 12.8 0 0 1 12.8 76.1088V25.6A12.8 12.8 0 0 1 25.6 12.8H102.4A12.8 12.8 0 0 1 115.2 25.6V76.1088A12.8 12.8 0 0 1 109.184 86.9632L70.784 110.9632A12.8 12.8 0 0 1 57.216 110.9632L18.816 86.9632zM35.552 71.456A6.4 6.4 0 1 1 28.448 60.8064L60.448 39.4752A6.4 6.4 0 0 1 67.552 39.4752L99.552 60.8064A6.4 6.4 0 0 1 92.448 71.456L64 52.4928L35.552 71.456z" />
    <glyph glyph-name="map"
      unicode="&#xEA82;"
      horiz-adv-x="128" d="M76.8 117.8496L51.2 92.2496V10.1504L76.8 35.7504V117.8496zM23.7248 106.9248A6.4 6.4 0 0 1 12.8 102.4V38.4A6.4 6.4 0 0 1 14.6752 33.8752L38.4 10.1504V92.2496L23.7248 106.9248zM113.3248 94.1248L89.6 117.8496V35.7504L104.2752 21.0752A6.4 6.4 0 0 1 115.2 25.6V89.6A6.4 6.4 0 0 1 113.3248 94.1248z" />
    <glyph glyph-name="menu"
      unicode="&#xEA83;"
      horiz-adv-x="128" d="M19.1999999087494 96A6.4 6.4 0 0 0 25.5999999087494 102.4H102.3999999087494A6.4 6.4 0 1 0 102.3999999087494 89.6H25.5999999087494A6.4 6.4 0 0 0 19.1999999087494 96zM19.1999999087494 64A6.4 6.4 0 0 0 25.5999999087494 70.4H102.3999999087494A6.4 6.4 0 1 0 102.3999999087494 57.6H25.5999999087494A6.4 6.4 0 0 0 19.1999999087494 64zM19.1999999087494 32A6.4 6.4 0 0 0 25.5999999087494 38.4H102.3999999087494A6.4 6.4 0 1 0 102.3999999087494 25.6H25.5999999087494A6.4 6.4 0 0 0 19.1999999087494 32z" />
    <glyph glyph-name="menu-alt-1"
      unicode="&#xEA84;"
      horiz-adv-x="128" d="M19.1999999087494 96A6.4 6.4 0 0 0 25.5999999087494 102.4H102.3999999087494A6.4 6.4 0 1 0 102.3999999087494 89.6H25.5999999087494A6.4 6.4 0 0 0 19.1999999087494 96zM19.1999999087494 64A6.4 6.4 0 0 0 25.5999999087494 70.4H63.9999999087494A6.4 6.4 0 1 0 63.9999999087494 57.6H25.5999999087494A6.4 6.4 0 0 0 19.1999999087494 64zM19.1999999087494 32A6.4 6.4 0 0 0 25.5999999087494 38.4H102.3999999087494A6.4 6.4 0 1 0 102.3999999087494 25.6H25.5999999087494A6.4 6.4 0 0 0 19.1999999087494 32z" />
    <glyph glyph-name="menu-alt-2"
      unicode="&#xEA85;"
      horiz-adv-x="128" d="M19.2 96A6.4 6.4 0 0 0 25.6 102.4H102.4A6.4 6.4 0 1 0 102.4 89.6H25.6A6.4 6.4 0 0 0 19.2 96zM19.2 64A6.4 6.4 0 0 0 25.6 70.4H102.4A6.4 6.4 0 1 0 102.4 57.6H25.6A6.4 6.4 0 0 0 19.2 64zM19.2 32A6.4 6.4 0 0 0 25.6 38.4H64A6.4 6.4 0 1 0 64 25.6H25.6A6.4 6.4 0 0 0 19.2 32z" />
    <glyph glyph-name="menu-alt-3"
      unicode="&#xEA86;"
      horiz-adv-x="128" d="M19.1999999087494 96A6.4 6.4 0 0 0 25.5999999087494 102.4H102.3999999087494A6.4 6.4 0 1 0 102.3999999087494 89.6H25.5999999087494A6.4 6.4 0 0 0 19.1999999087494 96zM19.1999999087494 64A6.4 6.4 0 0 0 25.5999999087494 70.4H102.3999999087494A6.4 6.4 0 1 0 102.3999999087494 57.6H25.5999999087494A6.4 6.4 0 0 0 19.1999999087494 64zM57.5999999087494 32A6.4 6.4 0 0 0 63.9999999087494 38.4H102.3999999087494A6.4 6.4 0 1 0 102.3999999087494 25.6H63.9999999087494A6.4 6.4 0 0 0 57.5999999087494 32z" />
    <glyph glyph-name="menu-alt-4"
      unicode="&#xEA87;"
      horiz-adv-x="128" d="M19.1999999087494 83.2A6.4 6.4 0 0 0 25.5999999087494 89.6H102.3999999087494A6.4 6.4 0 1 0 102.3999999087494 76.8H25.5999999087494A6.4 6.4 0 0 0 19.1999999087494 83.2zM19.1999999087494 44.8A6.4 6.4 0 0 0 25.5999999087494 51.2H102.3999999087494A6.4 6.4 0 1 0 102.3999999087494 38.4H25.5999999087494A6.4 6.4 0 0 0 19.1999999087494 44.8z" />
    <glyph glyph-name="microphone"
      unicode="&#xEA88;"
      horiz-adv-x="128" d="M44.8 102.4A19.2 19.2 0 0 0 83.2 102.4V76.8A19.2 19.2 0 1 0 44.8 76.8V102.4zM70.4 32.448A44.8064 44.8064 0 0 1 108.8 76.8A6.4 6.4 0 1 1 96 76.8A32 32 0 0 0 32 76.8A6.4 6.4 0 0 1 19.2 76.8A44.8064 44.8064 0 0 1 57.6 32.448V19.2H38.4A6.4 6.4 0 1 1 38.4 6.4H89.6A6.4 6.4 0 1 1 89.6 19.2H70.4V32.448z" />
    <glyph glyph-name="minus"
      unicode="&#xEA89;"
      horiz-adv-x="128" d="M19.2 64A6.4 6.4 0 0 0 25.6 70.4H102.4A6.4 6.4 0 1 0 102.4 57.6H25.6A6.4 6.4 0 0 0 19.2 64z" />
    <glyph glyph-name="minus-circle"
      unicode="&#xEA8A;"
      horiz-adv-x="128" d="M63.9999994039536 12.8A51.2 51.2 0 1 1 63.9999994039536 115.2A51.2 51.2 0 0 1 63.9999994039536 12.8zM44.7999994039536 70.4A6.4 6.4 0 0 1 44.7999994039536 57.6H83.1999994039535A6.4 6.4 0 1 1 83.1999994039535 70.4H44.7999994039536z" />
    <glyph glyph-name="minus-sm"
      unicode="&#xEA8B;"
      horiz-adv-x="128" d="M32 64A6.4 6.4 0 0 0 38.4 70.4H89.6A6.4 6.4 0 1 0 89.6 57.6H38.4A6.4 6.4 0 0 0 32 64z" />
    <glyph glyph-name="moon"
      unicode="&#xEA8C;"
      horiz-adv-x="128" d="M112.9345181170271 42.9248A51.2 51.2 0 0 0 45.1841181170271 110.6752A51.2064 51.2064 0 1 1 112.9345181170271 42.9248z" />
    <glyph glyph-name="music-note"
      unicode="&#xEA8D;"
      horiz-adv-x="128" d="M115.2 108.8A6.4 6.4 0 0 1 107.5456 115.072L43.5456 102.272A6.4 6.4 0 0 1 38.4 96V37.6704A27.9616 27.9616 0 0 1 32 38.4C21.3952 38.4 12.8 32.672 12.8 25.6S21.3952 12.8 32 12.8S51.2 18.528 51.2 25.6V77.952L102.4 88.192V50.4704A27.968 27.968 0 0 1 96 51.2C85.3952 51.2 76.8 45.472 76.8 38.4S85.3952 25.6 96 25.6S115.2 31.328 115.2 38.4V108.8z" />
    <glyph glyph-name="newspaper"
      unicode="&#xEA8E;"
      horiz-adv-x="128" d="M12.8 96A12.8 12.8 0 0 0 25.6 108.8H76.8A12.8 12.8 0 0 0 89.6 96V32A12.8 12.8 0 0 1 102.4 19.2H25.6A12.8 12.8 0 0 0 12.8 32V96zM32 89.6H70.4V64H32V89.6zM70.4 51.2H32V38.4H70.4V51.2zM96 83.2H102.4A12.8 12.8 0 0 0 115.2 70.4V35.2A9.6 9.6 0 0 0 96 35.2V83.2z" />
    <glyph glyph-name="office-building"
      unicode="&#xEA8F;"
      horiz-adv-x="128" d="M25.6 102.4A12.8 12.8 0 0 0 38.4 115.2H89.6A12.8 12.8 0 0 0 102.4 102.4V25.6A6.4 6.4 0 1 0 102.4 12.8H83.2A6.4 6.4 0 0 0 76.8 19.2V32A6.4 6.4 0 0 1 70.4 38.4H57.6A6.4 6.4 0 0 1 51.2 32V19.2A6.4 6.4 0 0 0 44.8 12.8H25.6A6.4 6.4 0 1 0 25.6 25.6V102.4zM44.8 96H57.6V83.2H44.8V96zM57.6 70.4H44.8V57.6H57.6V70.4zM70.4 96H83.2V83.2H70.4V96zM83.2 70.4H70.4V57.6H83.2V70.4z" />
    <glyph glyph-name="paper-airplane"
      unicode="&#xEA90;"
      horiz-adv-x="128" d="M69.7197323059149 111.6608A6.4 6.4 0 0 1 58.2765323059149 111.6608L13.4765323059148 22.0608A6.4 6.4 0 0 1 20.9581323059148 13.0432L52.9581323059149 22.1888A6.4 6.4 0 0 1 57.5981323059149 28.3456V57.6A6.4 6.4 0 1 0 70.3981323059149 57.6V28.3456A6.4 6.4 0 0 1 75.0381323059148 22.1888L107.0381323059149 13.0496A6.4 6.4 0 0 1 114.5261323059149 22.0608L69.7261323059149 111.6608z" />
    <glyph glyph-name="paper-clip"
      unicode="&#xEA91;"
      horiz-adv-x="128" d="M51.2 102.4A19.2 19.2 0 0 1 32 83.2V57.6A32 32 0 0 1 96 57.6V83.2A6.4 6.4 0 1 0 108.8 83.2V57.6A44.8 44.8 0 1 0 19.2 57.6V83.2A32 32 0 0 0 83.2 83.2V57.6A19.2 19.2 0 1 0 44.8 57.6V83.2A6.4 6.4 0 0 0 57.6 83.2V57.6A6.4 6.4 0 1 1 70.4 57.6V83.2A19.2 19.2 0 0 1 51.2 102.4z" />
    <glyph glyph-name="pause"
      unicode="&#xEA92;"
      horiz-adv-x="128" d="M115.2 64A51.2 51.2 0 1 0 12.8 64A51.2 51.2 0 0 0 115.2 64zM44.8 76.8A6.4 6.4 0 0 0 57.6 76.8V51.2A6.4 6.4 0 1 0 44.8 51.2V76.8zM76.8 83.2A6.4 6.4 0 0 1 70.4 76.8V51.2A6.4 6.4 0 1 1 83.2 51.2V76.8A6.4 6.4 0 0 1 76.8 83.2z" />
    <glyph glyph-name="pencil"
      unicode="&#xEA93;"
      horiz-adv-x="128" d="M86.8717554833444 105.0496A12.8 12.8 0 1 0 104.9709554833444 86.9504L99.8957554833444 81.8752L81.7965554833444 99.9744L86.8717554833444 105.0496zM72.7469554833444 90.9248L19.1213554833444 37.2992V19.2H37.2205554833444L90.8525554833444 72.8256L72.7405554833444 90.9248z" />
    <glyph glyph-name="pencil-alt"
      unicode="&#xEA94;"
      horiz-adv-x="128" d="M111.4509666960023 111.4496A12.8 12.8 0 0 1 93.3517666960023 111.4496L44.8013666960023 62.8992V44.8H62.9005666960023L111.4509666960023 93.3504A12.8 12.8 0 0 1 111.4509666960023 111.4496zM12.8013666960023 89.6A12.8 12.8 0 0 0 25.6013666960023 102.4H51.2013666960023A6.4 6.4 0 0 0 51.2013666960023 89.6H25.6013666960023V25.6H89.6013666960023V51.2A6.4 6.4 0 1 0 102.4013666960023 51.2V25.6A12.8 12.8 0 0 0 89.6013666960023 12.8H25.6013666960023A12.8 12.8 0 0 0 12.8013666960023 25.6V89.6z" />
    <glyph glyph-name="phone"
      unicode="&#xEA95;"
      horiz-adv-x="128" d="M12.8 108.8A6.4 6.4 0 0 0 19.2 115.2H32.9792A6.4 6.4 0 0 0 39.2896 109.8496L44.0256 81.4656A6.4 6.4 0 0 0 40.5696 74.6816L30.6624 69.7344A70.6368 70.6368 0 0 1 69.7344 30.6624L74.688 40.5696A6.4 6.4 0 0 0 81.4656 44.0256L109.8496 39.2896A6.4 6.4 0 0 0 115.2 32.9792V19.2A6.4 6.4 0 0 0 108.8 12.8H96C50.048 12.8 12.8 50.048 12.8 96V108.8z" />
    <glyph glyph-name="phone-incoming"
      unicode="&#xEA96;"
      horiz-adv-x="128" d="M92.2496 83.2L113.3248 104.2752A6.4 6.4 0 0 1 104.2752 113.3248L83.2 92.2496V102.4A6.4 6.4 0 1 1 70.4 102.4V76.7808A6.3744 6.3744 0 0 1 74.3488 70.8864A6.3808 6.3808 0 0 1 76.8 70.4H102.4A6.4 6.4 0 1 1 102.4 83.2H92.2496zM12.8 108.8A6.4 6.4 0 0 0 19.2 115.2H32.9792A6.4 6.4 0 0 0 39.2896 109.8496L44.0256 81.4656A6.4 6.4 0 0 0 40.5696 74.6816L30.6624 69.7344A70.6368 70.6368 0 0 1 69.7344 30.6624L74.688 40.5696A6.4 6.4 0 0 0 81.4656 44.0256L109.8496 39.2896A6.4 6.4 0 0 0 115.2 32.9792V19.2A6.4 6.4 0 0 0 108.8 12.8H96C50.048 12.8 12.8 50.048 12.8 96V108.8z" />
    <glyph glyph-name="phone-missed-call"
      unicode="&#xEA97;"
      horiz-adv-x="128" d="M12.8 108.8A6.4 6.4 0 0 0 19.2 115.2H32.9792A6.4 6.4 0 0 0 39.2896 109.8496L44.0256 81.4656A6.4 6.4 0 0 0 40.5696 74.6816L30.6624 69.7344A70.6368 70.6368 0 0 1 69.7344 30.6624L74.688 40.5696A6.4 6.4 0 0 0 81.4656 44.0256L109.8496 39.2896A6.4 6.4 0 0 0 115.2 32.9792V19.2A6.4 6.4 0 0 0 108.8 12.8H96C50.048 12.8 12.8 50.048 12.8 96V108.8zM106.9248 106.9248A6.4 6.4 0 0 0 106.9248 97.8752L98.6496 89.6L106.9248 81.3248A6.4 6.4 0 0 0 97.8752 72.2752L89.6 80.5504L81.3248 72.2752A6.4 6.4 0 1 0 72.2752 81.3248L80.5504 89.6L72.2752 97.8752A6.4 6.4 0 0 0 81.3248 106.9248L89.6 98.6496L97.8752 106.9248A6.4 6.4 0 0 0 106.9248 106.9248z" />
    <glyph glyph-name="phone-outgoing"
      unicode="&#xEA98;"
      horiz-adv-x="128" d="M114.7135976794515 111.2512A6.3808 6.3808 0 0 1 113.3375976794515 113.312L113.3119976794515 113.3376A6.3808 6.3808 0 0 1 108.7999976794515 115.2H83.1999976794515A6.4 6.4 0 1 1 83.1999976794515 102.4H93.3503976794515L72.2751976794515 81.3248A6.4 6.4 0 0 1 81.3247976794515 72.2752L102.3999976794515 93.3504V83.2A6.4 6.4 0 1 1 115.1999976794515 83.2V108.8A6.3808 6.3808 0 0 1 114.7135976794515 111.2512zM12.7999976794515 108.8A6.4 6.4 0 0 0 19.1999976794515 115.2H32.9791976794515A6.4 6.4 0 0 0 39.2895976794515 109.8496L44.0255976794515 81.4656A6.4 6.4 0 0 0 40.5695976794515 74.6816L30.6623976794515 69.7344A70.6368 70.6368 0 0 1 69.7343976794515 30.6624L74.6879976794515 40.5696A6.4 6.4 0 0 0 81.4655976794515 44.0256L109.8495976794515 39.2896A6.4 6.4 0 0 0 115.1999976794515 32.9792V19.2A6.4 6.4 0 0 0 108.7999976794515 12.8H95.9999976794515C50.0479976794515 12.8 12.7999976794515 50.048 12.7999976794515 96V108.8z" />
    <glyph glyph-name="photograph"
      unicode="&#xEA99;"
      horiz-adv-x="128" d="M25.6 108.8A12.8 12.8 0 0 1 12.8 96V32A12.8 12.8 0 0 1 25.6 19.2H102.4A12.8 12.8 0 0 1 115.2 32V96A12.8 12.8 0 0 1 102.4 108.8H25.6zM102.4 32H25.6L51.2 83.2L70.4 44.8L83.2 70.4L102.4 32z" />
    <glyph glyph-name="play"
      unicode="&#xEA9A;"
      horiz-adv-x="128" d="M63.9999994039536 12.8A51.2 51.2 0 1 1 63.9999994039536 115.2A51.2 51.2 0 0 1 63.9999994039536 12.8zM61.1519994039536 82.1248A6.4 6.4 0 0 1 51.1999994039536 76.8V51.2A6.4 6.4 0 0 1 61.1519994039536 45.8752L80.3519994039536 58.6752A6.4 6.4 0 0 1 80.3519994039536 69.3248L61.1519994039536 82.1248z" />
    <glyph glyph-name="plus"
      unicode="&#xEA9B;"
      horiz-adv-x="128" d="M64 96A6.4 6.4 0 0 0 70.4 89.6V70.4H89.6A6.4 6.4 0 1 0 89.6 57.6H70.4V38.4A6.4 6.4 0 1 0 57.6 38.4V57.6H38.4A6.4 6.4 0 1 0 38.4 70.4H57.6V89.6A6.4 6.4 0 0 0 64 96z" />
    <glyph glyph-name="plus-circle"
      unicode="&#xEA9C;"
      horiz-adv-x="128" d="M63.9999994039536 12.8A51.2 51.2 0 1 1 63.9999994039536 115.2A51.2 51.2 0 0 1 63.9999994039536 12.8zM70.3999994039536 83.2A6.4 6.4 0 1 1 57.5999994039536 83.2V70.4H44.7999994039536A6.4 6.4 0 1 1 44.7999994039536 57.6H57.5999994039536V44.8A6.4 6.4 0 1 1 70.3999994039536 44.8V57.6H83.1999994039535A6.4 6.4 0 1 1 83.1999994039535 70.4H70.3999994039536V83.2z" />
    <glyph glyph-name="plus-sm"
      unicode="&#xEA9D;"
      horiz-adv-x="128" d="M64 96A6.4 6.4 0 0 0 70.4 89.6V70.4H89.6A6.4 6.4 0 1 0 89.6 57.6H70.4V38.4A6.4 6.4 0 1 0 57.6 38.4V57.6H38.4A6.4 6.4 0 1 0 38.4 70.4H57.6V89.6A6.4 6.4 0 0 0 64 96z" />
    <glyph glyph-name="presentation-chart-bar"
      unicode="&#xEA9E;"
      horiz-adv-x="128" d="M19.1999998174988 108.8A6.4 6.4 0 0 1 19.1999998174988 96V44.8A12.8 12.8 0 0 1 31.9999998174988 32H48.5503998174988L40.2751998174988 23.7248A6.4 6.4 0 1 1 49.3247998174988 14.6752L63.9999998174988 29.3504L78.6751998174988 14.6752A6.4 6.4 0 0 1 87.7247998174988 23.7248L79.4495998174988 32H95.9999998174988A12.8 12.8 0 0 1 108.7999998174988 44.8V96A6.4 6.4 0 1 1 108.7999998174988 108.8H19.1999998174988zM89.5999998174988 83.2A6.4 6.4 0 1 1 76.7999998174988 83.2V57.6A6.4 6.4 0 1 1 89.5999998174988 57.6V83.2zM70.3999998174988 76.8A6.4 6.4 0 1 1 57.5999998174988 76.8V57.6A6.4 6.4 0 1 1 70.3999998174988 57.6V76.8zM51.1999998174988 70.4A6.4 6.4 0 0 1 38.3999998174988 70.4V57.6A6.4 6.4 0 1 1 51.1999998174988 57.6V70.4z" />
    <glyph glyph-name="presentation-chart-line"
      unicode="&#xEA9F;"
      horiz-adv-x="128" d="M19.1999998174988 108.8A6.4 6.4 0 0 1 19.1999998174988 96V44.8A12.8 12.8 0 0 1 31.9999998174988 32H48.5503998174988L40.2751998174988 23.7248A6.4 6.4 0 1 1 49.3247998174988 14.6752L63.9999998174988 29.3504L78.6751998174988 14.6752A6.4 6.4 0 0 1 87.7247998174988 23.7248L79.4495998174988 32H95.9999998174988A12.8 12.8 0 0 1 108.7999998174988 44.8V96A6.4 6.4 0 1 1 108.7999998174988 108.8H19.1999998174988zM94.1247998174988 78.6752A6.4 6.4 0 0 1 85.0751998174988 87.7248L63.9999998174988 66.6496L55.7247998174988 74.9248A6.4 6.4 0 0 1 46.6751998174988 74.9248L33.8751998174988 62.1248A6.4 6.4 0 1 1 42.9247998174988 53.0752L51.1999998174988 61.3504L59.4751998174988 53.0752A6.4 6.4 0 0 1 68.5247998174988 53.0752L94.1247998174988 78.6752z" />
    <glyph glyph-name="printer"
      unicode="&#xEAA0;"
      horiz-adv-x="128" d="M32 102.4V83.2H25.6A12.8 12.8 0 0 1 12.8 70.4V51.2A12.8 12.8 0 0 1 25.6 38.4H32V25.6A12.8 12.8 0 0 1 44.8 12.8H83.2A12.8 12.8 0 0 1 96 25.6V38.4H102.4A12.8 12.8 0 0 1 115.2 51.2V70.4A12.8 12.8 0 0 1 102.4 83.2H96V102.4A12.8 12.8 0 0 1 83.2 115.2H44.8A12.8 12.8 0 0 1 32 102.4zM83.2 102.4H44.8V83.2H83.2V102.4zM83.2 51.2H44.8V25.6H83.2V51.2z" />
    <glyph glyph-name="puzzle"
      unicode="&#xEAA1;"
      horiz-adv-x="128" d="M64 105.6A9.6 9.6 0 0 0 83.2 105.6V102.4A6.4 6.4 0 0 1 89.6 96H108.8A6.4 6.4 0 0 0 115.2 89.6V70.4A6.4 6.4 0 0 0 108.8 64H105.6A9.6 9.6 0 0 1 105.6 44.8H108.8A6.4 6.4 0 0 0 115.2 38.4V19.2A6.4 6.4 0 0 0 108.8 12.8H89.6A6.4 6.4 0 0 0 83.2 19.2V22.4A9.6 9.6 0 0 1 64 22.4V19.2A6.4 6.4 0 0 0 57.6 12.8H38.4A6.4 6.4 0 0 0 32 19.2V38.4A6.4 6.4 0 0 1 25.6 44.8H22.4A9.6 9.6 0 0 0 22.4 64H25.6A6.4 6.4 0 0 1 32 70.4V89.6A6.4 6.4 0 0 0 38.4 96H57.6A6.4 6.4 0 0 1 64 102.4V105.6z" />
    <glyph glyph-name="qrcode"
      unicode="&#xEAA2;"
      horiz-adv-x="128" d="M19.2 102.4A6.4 6.4 0 0 0 25.6 108.8H44.8A6.4 6.4 0 0 0 51.2 102.4V83.2A6.4 6.4 0 0 0 44.8 76.8H25.6A6.4 6.4 0 0 0 19.2 83.2V102.4zM32 89.6V96H38.4V89.6H32zM19.2 44.8A6.4 6.4 0 0 0 25.6 51.2H44.8A6.4 6.4 0 0 0 51.2 44.8V25.6A6.4 6.4 0 0 0 44.8 19.2H25.6A6.4 6.4 0 0 0 19.2 25.6V44.8zM32 32V38.4H38.4V32H32zM83.2 108.8A6.4 6.4 0 0 1 76.8 102.4V83.2A6.4 6.4 0 0 1 83.2 76.8H102.4A6.4 6.4 0 0 1 108.8 83.2V102.4A6.4 6.4 0 0 1 102.4 108.8H83.2zM89.6 96V89.6H96V96H89.6zM70.4 102.4A6.4 6.4 0 1 1 57.6 102.4V96A6.4 6.4 0 0 1 70.4 96V102.4zM64 83.2A6.4 6.4 0 0 0 70.4 76.8V70.4H83.2A6.4 6.4 0 1 0 83.2 57.6H64A6.4 6.4 0 0 0 57.6 64V76.8A6.4 6.4 0 0 0 64 83.2zM102.4 70.4A6.4 6.4 0 1 1 102.4 57.6A6.4 6.4 0 0 1 102.4 70.4zM57.6 44.8A6.4 6.4 0 0 0 64 51.2H70.4A6.4 6.4 0 1 0 70.4 38.4V25.6A6.4 6.4 0 1 0 57.6 25.6V44.8zM44.8 57.6A6.4 6.4 0 1 1 44.8 70.4H25.6A6.4 6.4 0 1 1 25.6 57.6H44.8zM108.8 44.8A6.4 6.4 0 0 0 102.4 38.4H89.6A6.4 6.4 0 1 0 89.6 51.2H102.4A6.4 6.4 0 0 0 108.8 44.8zM102.4 19.2A6.4 6.4 0 1 1 102.4 32H83.2A6.4 6.4 0 1 1 83.2 19.2H102.4z" />
    <glyph glyph-name="question-mark-circle"
      unicode="&#xEAA3;"
      horiz-adv-x="128" d="M115.2 64A51.2 51.2 0 1 0 12.8 64A51.2 51.2 0 0 0 115.2 64zM64 83.2A6.4 6.4 0 0 1 58.4512 80A6.4 6.4 0 1 0 47.3728 86.4A19.2 19.2 0 0 0 83.2 76.8A19.2064 19.2064 0 0 0 70.4 58.688V57.6A6.4 6.4 0 1 0 57.6 57.6V64A6.4 6.4 0 0 0 64 70.4A6.4 6.4 0 1 1 64 83.2zM64 32A6.4 6.4 0 1 1 64 44.8A6.4 6.4 0 0 1 64 32z" />
    <glyph glyph-name="receipt-refund"
      unicode="&#xEAA4;"
      horiz-adv-x="128" d="M32 115.2A12.8 12.8 0 0 1 19.2 102.4V12.8L41.6 25.6L64 12.8L86.4 25.6L108.8 12.8V102.4A12.8 12.8 0 0 1 96 115.2H32zM62.1248 91.4752A6.4 6.4 0 0 1 53.0752 100.5248L33.8752 81.3248A6.4 6.4 0 0 1 33.8752 72.2752L53.0752 53.0752A6.4 6.4 0 0 1 62.1248 62.1248L53.8496 70.4H64A19.2 19.2 0 0 0 83.2 51.2V44.8A6.4 6.4 0 1 1 96 44.8V51.2A32 32 0 0 1 64 83.2H53.8496L62.1248 91.4752z" />
    <glyph glyph-name="receipt-tax"
      unicode="&#xEAA5;"
      horiz-adv-x="128" d="M32 115.2A12.8 12.8 0 0 1 19.2 102.4V12.8L41.6 25.6L64 12.8L86.4 25.6L108.8 12.8V102.4A12.8 12.8 0 0 1 96 115.2H32zM48 96A9.6 9.6 0 1 1 48 76.8A9.6 9.6 0 0 1 48 96zM87.7248 94.1248A6.4 6.4 0 0 1 78.6752 94.1248L40.2752 55.7248A6.4 6.4 0 1 1 49.3248 46.6752L87.7248 85.0752A6.4 6.4 0 0 1 87.7248 94.1248zM80 64A9.6 9.6 0 1 1 80 44.8A9.6 9.6 0 0 1 80 64z" />
    <glyph glyph-name="refresh"
      unicode="&#xEAA6;"
      horiz-adv-x="128" d="M25.6 115.2A6.4 6.4 0 0 0 32 108.8V95.3536A44.8128 44.8128 0 0 0 106.2464 78.9312A6.4 6.4 0 1 0 94.1824 74.6688A32.0128 32.0128 0 0 1 38.3936 83.2H57.6A6.4 6.4 0 0 0 57.6 70.4H25.6A6.4 6.4 0 0 0 19.2 76.8V108.8A6.4 6.4 0 0 0 25.6 115.2zM25.6512 57.2352A6.4 6.4 0 0 0 33.8176 53.3312A32.0128 32.0128 0 0 1 89.6064 44.8H70.4A6.4 6.4 0 1 0 70.4 57.6H102.4A6.4 6.4 0 0 0 108.8 51.2V19.2A6.4 6.4 0 1 0 96 19.2V32.6464A44.8128 44.8128 0 0 0 21.7536 49.0688A6.4 6.4 0 0 0 25.6576 57.2352z" />
    <glyph glyph-name="reply"
      unicode="&#xEAA7;"
      horiz-adv-x="128" d="M49.3241166519989 106.9248A6.4 6.4 0 0 0 49.3241166519989 97.8752L34.6489166519989 83.2H70.3993166519989A44.8 44.8 0 0 0 115.1993166519989 38.4V25.6A6.4 6.4 0 1 0 102.3993166519989 25.6V38.4A32 32 0 0 1 70.3993166519989 70.4H34.6489166519989L49.3241166519989 55.7248A6.4 6.4 0 1 0 40.2745166519989 46.6752L14.6745166519989 72.2752A6.4 6.4 0 0 0 14.6745166519989 81.3248L40.2745166519989 106.9248A6.4 6.4 0 0 0 49.3241166519989 106.9248z" />
    <glyph glyph-name="rewind"
      unicode="&#xEAA8;"
      horiz-adv-x="128" d="M57.2487179471301 33.0752A6.4 6.4 0 0 1 67.2007179471301 38.4V56.3072L102.0487179471301 33.0752A6.4 6.4 0 0 1 112.0007179471301 38.4V89.6A6.4 6.4 0 0 1 102.0487179471301 94.9248L67.2007179471301 71.6928V89.6A6.4 6.4 0 0 1 57.2487179471301 94.9248L18.8487179471301 69.3248A6.4 6.4 0 0 1 18.8487179471301 58.6752L57.2487179471301 33.0752z" />
    <glyph glyph-name="rss"
      unicode="&#xEAA9;"
      horiz-adv-x="128" d="M32 108.8A6.4 6.4 0 0 1 32 96C67.3472 96 96 67.3472 96 32A6.4 6.4 0 1 1 108.8 32C108.8 74.4128 74.4128 108.8 32 108.8zM25.6 70.4A6.4 6.4 0 0 0 32 76.8A44.8 44.8 0 0 0 76.8 32A6.4 6.4 0 1 0 64 32A32 32 0 0 1 32 64A6.4 6.4 0 0 0 25.6 70.4zM19.2 32A12.8 12.8 0 1 0 44.8 32A12.8 12.8 0 0 0 19.2 32z" />
    <glyph glyph-name="save"
      unicode="&#xEAAA;"
      horiz-adv-x="128" d="M49.3248 62.1248A6.4 6.4 0 1 1 40.2752 53.0752L59.4752 33.8752A6.4 6.4 0 0 1 68.5248 33.8752L87.7248 53.0752A6.4 6.4 0 0 1 78.6752 62.1248L70.4 53.8496V89.6H102.4A12.8 12.8 0 0 0 115.2 76.8V32A12.8 12.8 0 0 0 102.4 19.2H25.6A12.8 12.8 0 0 0 12.8 32V76.8A12.8 12.8 0 0 0 25.6 89.6H57.6V53.8496L49.3248 62.1248zM57.6 102.4A6.4 6.4 0 0 0 70.4 102.4V89.6H57.6V102.4z" />
    <glyph glyph-name="save-as"
      unicode="&#xEAAB;"
      horiz-adv-x="128" d="M62.1248 81.3248A6.4 6.4 0 0 1 53.0752 72.2752L72.2752 53.0752A6.4 6.4 0 0 1 81.3248 53.0752L100.5248 72.2752A6.4 6.4 0 0 1 91.4752 81.3248L83.2 73.0496V96H102.4A12.8 12.8 0 0 0 115.2 83.2V51.2A12.8 12.8 0 0 0 102.4 38.4H51.2A12.8 12.8 0 0 0 38.4 51.2V83.2A12.8 12.8 0 0 0 51.2 96H70.4V73.0496L62.1248 81.3248zM70.4 108.8A6.4 6.4 0 1 0 83.2 108.8V96H70.4V108.8zM25.6 70.4A12.8 12.8 0 0 1 12.8 57.6V25.6A12.8 12.8 0 0 1 25.6 12.8H76.8A12.8 12.8 0 0 1 89.6 25.6H25.6V70.4z" />
    <glyph glyph-name="scale"
      unicode="&#xEAAC;"
      horiz-adv-x="128" d="M63.9977437611884 115.2A6.4 6.4 0 0 0 70.3977437611884 108.8V100.3328L95.7033437611884 90.208L105.9369437611884 95.328A6.4 6.4 0 0 0 111.6585437611884 83.872L103.7673437611884 79.9296L114.8905437611884 45.2416A6.4 6.4 0 0 0 113.0665437611884 38.5216A25.5296 25.5296 0 0 0 95.9977437611884 32A25.5296 25.5296 0 0 0 78.9289437611884 38.5216A6.4 6.4 0 0 0 77.1049437611884 45.2416L88.0809437611884 79.4752L70.3977437611884 86.5472V25.6H83.1977437611884A6.4 6.4 0 1 0 83.1977437611884 12.8H44.7977437611884A6.4 6.4 0 1 0 44.7977437611884 25.6H57.5977437611884V86.5472L39.9145437611884 79.4752L50.8905437611884 45.2416A6.4 6.4 0 0 0 49.0665437611884 38.5216A25.5296 25.5296 0 0 0 31.9977437611884 32A25.5296 25.5296 0 0 0 14.9289437611884 38.5216A6.4 6.4 0 0 0 13.1049437611884 45.2416L24.2281437611884 79.9296L16.3369437611884 83.8784A6.4 6.4 0 0 0 22.0585437611884 95.3216L32.2921437611884 90.208L57.5977437611884 100.3328V108.8A6.4 6.4 0 0 0 63.9977437611884 115.2zM31.9977437611884 62.2464L26.7625437611884 45.9136C28.3625437611884 45.1968 30.1289437611884 44.8 31.9977437611884 44.8C33.8665437611884 44.8 35.6393437611884 45.1968 37.2329437611884 45.9136L31.9977437611884 62.2464zM95.9977437611884 62.2464L90.7625437611884 45.9136C92.3625437611884 45.1968 94.1289437611884 44.8 95.9977437611884 44.8C97.8665437611884 44.8 99.6393437611884 45.1968 101.2329437611884 45.9136L95.9977437611884 62.2464z" />
    <glyph glyph-name="scissors"
      unicode="&#xEAAD;"
      horiz-adv-x="128" d="M38.3985199169026 115.2A22.4 22.4 0 1 1 49.0545199169026 73.088L58.1425199169026 64L49.0545199169026 54.912A22.4 22.4 0 1 1 58.1041199169026 45.8624L110.1233199169026 97.8752A6.4 6.4 0 0 1 101.0737199169026 106.9248L67.1985199169025 73.0496L58.1105199169026 82.1376A22.4 22.4 0 0 1 38.3985199169026 115.2zM28.7985199169026 92.8A9.6 9.6 0 1 0 47.9985199169026 92.8A9.6 9.6 0 0 0 28.7985199169026 92.8zM28.7985199169026 35.2A9.6 9.6 0 1 0 47.9985199169026 35.2A9.6 9.6 0 0 0 28.7985199169026 35.2zM85.2977199169025 54.9504A6.4 6.4 0 0 1 76.2481199169025 45.9008L101.0737199169026 21.0688A6.4 6.4 0 0 1 110.1233199169026 30.1248L85.2977199169026 54.9504z" />
    <glyph glyph-name="search"
      unicode="&#xEAAE;"
      horiz-adv-x="128" d="M51.239322621279 102.4A25.6 25.6 0 1 1 51.239322621279 51.2A25.6 25.6 0 0 1 51.239322621279 102.4zM12.839322621279 76.8A38.4 38.4 0 1 0 82.535322621279 54.5536L113.364122621279 23.7248A6.4 6.4 0 0 0 104.314522621279 14.6752L73.492122621279 45.4976A38.4 38.4 0 0 0 12.839322621279 76.8z" />
    <glyph glyph-name="search-circle"
      unicode="&#xEAAF;"
      horiz-adv-x="128" d="M57.5999994039536 70.4A12.8 12.8 0 1 0 83.1999994039535 70.4A12.8 12.8 0 0 0 57.5999994039536 70.4zM63.9999994039536 12.8A51.2 51.2 0 1 1 63.9999994039536 115.2A51.2 51.2 0 0 1 63.9999994039536 12.8zM70.3999994039536 96A25.6 25.6 0 0 1 48.3455994039536 57.3952L33.8751994039535 42.9312A6.4 6.4 0 1 1 42.9247994039536 33.8752L57.3951994039536 48.3456A25.6 25.6 0 1 1 70.3999994039536 96z" />
    <glyph glyph-name="selector"
      unicode="&#xEAB0;"
      horiz-adv-x="128" d="M64.0386389103267 108.8A6.4 6.4 0 0 0 68.5634389103267 106.9248L87.7634389103268 87.7248A6.4 6.4 0 0 0 78.7138389103268 78.6752L64.0386389103267 93.3504L49.3634389103267 78.6752A6.4 6.4 0 0 0 40.3138389103267 87.7248L59.5138389103267 106.9248A6.4 6.4 0 0 0 64.0386389103267 108.8zM40.3138389103267 49.3248A6.4 6.4 0 0 0 49.3634389103267 49.3248L64.0386389103267 34.6496L78.7138389103267 49.3248A6.4 6.4 0 0 0 87.7634389103267 40.2752L68.5634389103267 21.0752A6.4 6.4 0 0 0 59.5138389103267 21.0752L40.3138389103267 40.2752A6.4 6.4 0 0 0 40.3138389103267 49.3248z" />
    <glyph glyph-name="server"
      unicode="&#xEAB1;"
      horiz-adv-x="128" d="M12.8 96A12.8 12.8 0 0 0 25.6 108.8H102.4A12.8 12.8 0 0 0 115.2 96V83.2A12.8 12.8 0 0 0 102.4 70.4H25.6A12.8 12.8 0 0 0 12.8 83.2V96zM102.4 89.6A6.4 6.4 0 1 0 89.6 89.6A6.4 6.4 0 0 0 102.4 89.6zM12.8 44.8A12.8 12.8 0 0 0 25.6 57.6H102.4A12.8 12.8 0 0 0 115.2 44.8V32A12.8 12.8 0 0 0 102.4 19.2H25.6A12.8 12.8 0 0 0 12.8 32V44.8zM102.4 38.4A6.4 6.4 0 1 0 89.6 38.4A6.4 6.4 0 0 0 102.4 38.4z" />
    <glyph glyph-name="share"
      unicode="&#xEAB2;"
      horiz-adv-x="128" d="M95.99790372776 76.8A19.2 19.2 0 1 1 76.94510372776 93.632L45.32910372776 77.824A19.2 19.2 0 1 1 45.32910372776 50.1824L76.94510372776 34.3744A19.2 19.2 0 1 1 82.67310372776 45.824L51.05710372776 61.632A19.3728 19.3728 0 0 1 51.05710372776 66.368L82.67310372776 82.176C86.11630372776 78.848 90.81390372776 76.8 95.99790372776 76.8z" />
    <glyph glyph-name="shield-check"
      unicode="&#xEAB3;"
      horiz-adv-x="128" d="M13.8624 96.0064A76.5056 76.5056 0 0 1 64 115.5584A76.5056 76.5056 0 0 1 114.1376 96C114.8416 91.84 115.2 87.552 115.2 83.1936C115.2 49.7536 93.824 21.3056 64 10.7648C34.176 21.312 12.8 49.76 12.8 83.2C12.8 87.5648 13.1648 91.84 13.8624 96.0064zM87.7248 72.2752A6.4 6.4 0 0 1 78.6752 81.3248L57.6 60.2496L49.3248 68.5248A6.4 6.4 0 0 1 40.2752 59.4752L53.0752 46.6752A6.4 6.4 0 0 1 62.1248 46.6752L87.7248 72.2752z" />
    <glyph glyph-name="shield-exclamation"
      unicode="&#xEAB4;"
      horiz-adv-x="128" d="M64 115.5584A76.5056 76.5056 0 0 0 13.8624 96C13.1584 91.8464 12.8 87.5584 12.8 83.2C12.8 49.76 34.176 21.312 64 10.7712C93.824 21.312 115.2 49.76 115.2 83.2C115.2 87.5648 114.8352 91.84 114.1376 96.0064A76.5056 76.5056 0 0 0 64 115.5584zM70.4 38.4A6.4 6.4 0 1 0 57.6 38.4A6.4 6.4 0 0 0 70.4 38.4zM70.4 83.2A6.4 6.4 0 1 1 57.6 83.2V64A6.4 6.4 0 1 1 70.4 64V83.2z" />
    <glyph glyph-name="shopping-bag"
      unicode="&#xEAB5;"
      horiz-adv-x="128" d="M64 115.2A25.6 25.6 0 0 1 38.4 89.6V83.2H32A6.4 6.4 0 0 1 25.6384 77.504L19.2384 19.904A6.4 6.4 0 0 1 25.6 12.8H102.4A6.4 6.4 0 0 1 108.7616 19.904L102.3616 77.504A6.4 6.4 0 0 1 96 83.2H89.6V89.6A25.6 25.6 0 0 1 64 115.2zM76.8 83.2V89.6A12.8 12.8 0 1 1 51.2 89.6V83.2H76.8zM38.4 64A6.4 6.4 0 1 0 51.2 64A6.4 6.4 0 0 0 38.4 64zM83.2 70.4A6.4 6.4 0 1 1 83.2 57.6A6.4 6.4 0 0 1 83.2 70.4z" />
    <glyph glyph-name="shopping-cart"
      unicode="&#xEAB6;"
      horiz-adv-x="128" d="M19.201708342854 121.6A6.4 6.4 0 0 1 19.201708342854 108.8H27.009708342854L28.961708342854 100.9792A6.3808 6.3808 0 0 1 29.025708342854 100.7104L37.716908342854 65.9584L32.001708342854 60.2496C23.937708342854 52.1856 29.646508342854 38.4 41.051308342854 38.4H96.001708342854A6.4 6.4 0 0 1 96.001708342854 51.2H41.051308342854L47.451308342854 57.6H89.601708342854A6.4 6.4 0 0 1 95.323308342854 61.1392L114.523308342854 99.5392A6.4 6.4 0 0 1 108.801708342854 108.8H40.193708342854L38.209708342854 116.7552A6.4 6.4 0 0 1 32.001708342854 121.6H19.201708342854zM102.401708342854 22.4A9.6 9.6 0 1 0 83.201708342854 22.4A9.6 9.6 0 0 0 102.401708342854 22.4zM41.601708342854 12.8A9.6 9.6 0 1 1 41.601708342854 32A9.6 9.6 0 0 1 41.601708342854 12.8z" />
    <glyph glyph-name="sort-ascending"
      unicode="&#xEAB7;"
      horiz-adv-x="128" d="M19.2393223495784 108.8A6.4 6.4 0 0 1 19.2393223495784 96H89.6393223495784A6.4 6.4 0 1 1 89.6393223495784 108.8H19.2393223495784zM19.2393223495784 83.2A6.4 6.4 0 0 1 19.2393223495784 70.4H51.2393223495784A6.4 6.4 0 0 1 51.2393223495784 83.2H19.2393223495784zM19.2393223495784 57.6A6.4 6.4 0 1 1 19.2393223495784 44.8H44.8393223495784A6.4 6.4 0 1 1 44.8393223495784 57.6H19.2393223495784zM83.2393223495784 25.6A6.4 6.4 0 1 1 96.0393223495784 25.6V61.3504L104.3145223495784 53.0752A6.4 6.4 0 0 1 113.3641223495784 62.1248L94.1641223495784 81.3248A6.4 6.4 0 0 1 85.1145223495784 81.3248L65.9145223495784 62.1248A6.4 6.4 0 1 1 74.9641223495784 53.0752L83.2393223495784 61.3504V25.6z" />
    <glyph glyph-name="sort-descending"
      unicode="&#xEAB8;"
      horiz-adv-x="128" d="M19.2393223495784 108.8A6.4 6.4 0 0 1 19.2393223495784 96H89.6393223495784A6.4 6.4 0 1 1 89.6393223495784 108.8H19.2393223495784zM19.2393223495784 83.2A6.4 6.4 0 0 1 19.2393223495784 70.4H64.0393223495784A6.4 6.4 0 1 1 64.0393223495784 83.2H19.2393223495784zM19.2393223495784 57.6A6.4 6.4 0 1 1 19.2393223495784 44.8H44.8393223495784A6.4 6.4 0 1 1 44.8393223495784 57.6H19.2393223495784zM96.0393223495784 76.8A6.4 6.4 0 1 1 83.2393223495784 76.8V41.0496L74.9641223495784 49.3248A6.4 6.4 0 0 1 65.9145223495784 40.2752L85.1145223495784 21.0752A6.4 6.4 0 0 1 94.1641223495784 21.0752L113.3641223495784 40.2752A6.4 6.4 0 0 1 104.3145223495784 49.3248L96.0393223495784 41.0496V76.8z" />
    <glyph glyph-name="sparkles"
      unicode="&#xEAB9;"
      horiz-adv-x="128" d="M32.000140885056 115.2A6.4 6.4 0 0 0 38.400140885056 108.8V102.4H44.800140885056A6.4 6.4 0 0 0 44.800140885056 89.6H38.400140885056V83.2A6.4 6.4 0 0 0 25.600140885056 83.2V89.6H19.200140885056A6.4 6.4 0 0 0 19.200140885056 102.4H25.600140885056V108.8A6.4 6.4 0 0 0 32.000140885056 115.2zM32.000140885056 51.2A6.4 6.4 0 0 0 38.400140885056 44.8V38.4H44.800140885056A6.4 6.4 0 1 0 44.800140885056 25.6H38.400140885056V19.2A6.4 6.4 0 1 0 25.600140885056 19.2V25.6H19.200140885056A6.4 6.4 0 1 0 19.200140885056 38.4H25.600140885056V44.8A6.4 6.4 0 0 0 32.000140885056 51.2zM76.800140885056 115.2A6.4 6.4 0 0 0 82.988940885056 110.4384L90.534540885056 81.92L112.0001408850559 69.5424A6.4 6.4 0 0 0 112.0001408850559 58.4576L90.534540885056 46.0736L82.982540885056 17.5616A6.4 6.4 0 0 0 70.611340885056 17.5616L63.065740885056 46.08L41.600140885056 58.4576A6.4 6.4 0 0 0 41.600140885056 69.5424L63.065740885056 81.9264L70.617740885056 110.4384A6.4 6.4 0 0 0 76.800140885056 115.2z" />
    <glyph glyph-name="speakerphone"
      unicode="&#xEABA;"
      horiz-adv-x="128" d="M115.2 108.8A6.4 6.4 0 0 1 105.9392 114.5216L56.0832 89.6H32A19.2 19.2 0 0 1 32 51.2H33.792L45.1264 17.1776A6.4 6.4 0 0 1 51.2 12.8H57.6A6.4 6.4 0 0 1 64 19.2V47.2448L105.9392 26.2784A6.4 6.4 0 0 1 115.2 32V108.8z" />
    </font>
</defs>
</svg>
