<svg width="64" height="64" viewBox="0 0 1920 1920" xmlns="http://www.w3.org/2000/svg"><path d="M0 896q0-195 76-373t204.5-306.5T586.5 12 960-64q195 0 373 76t306.5 204.5T1844 523t76 373-76 373-204.5 306.5T1333 1780t-373 76q-196 0-373.5-76t-306-204.5T76 1269 0 896zm683-360l63 208q94-60 189-60 102 0 102 46 0 9-3.5 16.5t-12.5 15-14.5 11T986 784t-19 10l-82 43q-44 24-56.5 51T816 963v77h239v-32q0-15 .5-21t5-12.5T1074 964q1 0 21.5-10t36-17.5T1169 915t37-27q40-34 61-75t21-114q0-101-85.5-170T986 460q-175 0-303 76zm98 683q0 65 42 100.5t113 35.5q69 0 111-35.5t42-100.5-42-101-111-36q-71 0-113 36t-42 101z"/></svg>