<svg width="2048" height="1792" xmlns="http://www.w3.org/2000/svg"><path d="M72 1609q69-41 120-95.5t81.5-110.5 55-116.5 49-120.5 55-116.5 82-110.5T635 843q110-65 234-65 119 0 227.5 59.5T1277 1003q77 115 78.5 249.5t-62 250.5-173.5 196q-78 56-219.5 91.5T606 1826q-179 0-323.5-53T72 1609zm277-2q103 40 257 40 130 0 245-28t165-65q71-51 114-126.5t47-160-48-163.5q-47-70-115.5-108.5T869 957q-73 0-142 40-43 26-74.5 56t-56 72.5-39 74.5-38.5 93q-26 67-42.5 105t-51.5 99.5-76 109.5zm585-928l151-228q144 35 265 115 120 81 205 196l-153 229q-77-131-197-212-120-79-271-100zm211-318l341-508q28-41 75.5-51t88.5 16L1922-1q41 28 51 75.5t-18 88.5l-339 509q-87-117-207-197-120-81-264-114z" fill="undefined"/></svg>