<svg width="64" height="64" viewBox="0 0 1920 1920" xmlns="http://www.w3.org/2000/svg"><path d="M0 1700q69-41 120-95.5t81.5-110.5 55-116.5 49-120.5 55-116.5 82-110.5T563 934q110-65 234-65 119 0 227.5 59.5T1205 1094q77 115 78.5 249.5t-62 250.5-173.5 196q-78 56-219.5 91.5T534 1917q-179 0-323.5-53T0 1700zm277-2q103 40 257 40 130 0 245-28t165-65q71-51 114-126.5t47-160-48-163.5q-47-70-115.5-108.5T797 1048q-73 0-142 40-43 26-74.5 56t-56 72.5-39 74.5-38.5 93q-26 67-42.5 105t-51.5 99.5-76 109.5zm585-928l151-228q144 35 265 115 120 81 205 196l-153 229q-77-131-197-212-120-79-271-100zm211-318l341-508q28-41 75.5-51t88.5 16l272 181q41 28 51 75.5t-18 88.5l-339 509q-87-117-207-197-120-81-264-114z"/></svg>