<svg width="2304" height="1792" xmlns="http://www.w3.org/2000/svg"><path d="M72 1326V285q0-133 95.5-226.5T397-35h1510q134 0 229.5 93.5T2232 285v1041q0 132-95.5 225.5T1907 1645H397q-134 0-229.5-93.5T72 1326zM306 285q0 37 26.5 63t64.5 26q37 0 63.5-26t26.5-63-26.5-64-63.5-27-64 27-27 64zm367 502q0 130 64.5 240.5t175 175T1153 1267t240.5-64.5 175-175T1633 787t-64.5-240.5-175-175T1153 307t-240.5 64.5-175 175T673 787zm180 0q0 125 88 213t212 88 212-88 88-213q0-124-87.5-211.5T1153 488t-212.5 87.5T853 787z" fill="undefined"/></svg>