<?xml version="1.0" encoding="utf-8"?>
<svg width="1792" height="1792" xmlns="http://www.w3.org/2000/svg"><path d="M128 805q0-195 76-373t204.5-306.5T715-79t373-76 373 76 306.5 204.5T1972 432t76 373-76 373-204.5 306.5T1461 1689t-373 76-373-76-306.5-204.5T204 1178t-76-373zm534 318q0 45 32 76 31 32 75 32 45 0 77-32l242-242 243 242q31 32 76 32 44 0 76-32 31-31 31-76t-31-76l-243-242 243-244q31-31 31-76t-31-76-76-31-76 31l-243 244-242-244q-32-31-76.5-31T694 409q-32 31-32 76t32 76l242 244-242 242q-32 31-32 76z" fill="undefined"/></svg>