<svg width="64" height="64" viewBox="0 0 1920 1920" xmlns="http://www.w3.org/2000/svg"><path d="M0 896q0-195 76-373t204.5-306.5T587 12t373-76 373 76 306.5 204.5T1844 523t76 373-76 373-204.5 306.5T1333 1780t-373 76-373-76-306.5-204.5T76 1269 0 896zm240 0q0 196 96.5 361.5t262.5 262 361 96.5q196 0 361.5-96.5t262-262T1680 896q0-195-96.5-361t-262-262.5T960 176q-146 0-279.5 57t-230 153.5-153.5 230T240 896zm600 0V436q0-49 35-84.5t85-35.5 85 35.5 35 84.5v410l290 290q35 35 35 85t-35 85-84 35q-50 0-85-35L875 981q-3-3-7.5-9.5T861 963q-2-3-5-9l-3-6-3-7q-1-1-4-11-3-9-3-10-3-12-3-24z"/></svg>