<?xml version="1.0" encoding="utf-8"?>
<svg width="1792" height="1792" xmlns="http://www.w3.org/2000/svg"><path d="M128 805q0-195 76-373t204.5-306.5T715-79t373-76 373 76 306.5 204.5T1972 432t76 373-76 373-204.5 306.5T1461 1689t-373 76-373-76-306.5-204.5T204 1178t-76-373zm240 0q0 196 96.5 361.5t262.5 262 361 96.5q196 0 361.5-96.5t262-262T1808 805q0-195-96.5-361t-262-262.5T1088 85q-146 0-279.5 57t-230 153.5-153.5 230T368 805zm600 0V345q0-49 35-84.5t85-35.5 85 35.5 35 84.5v410l290 290q35 35 35 85t-35 85-84 35q-50 0-85-35l-326-325q-3-3-7.5-9.5T989 872q-2-3-5-9l-3-6-3-7q-1-1-4-11-3-9-3-10-3-12-3-24z" fill="undefined"/></svg>