<?xml version="1.0" encoding="utf-8"?>
<svg width="2304" height="1792" xmlns="http://www.w3.org/2000/svg"><path d="M-81.5 1007Q-86 915-62 830.5t71-159T127 539t158-92q158-60 319-26 75-165 228-265.5T1172 55q127 0 242.5 49.5t199 133 133 199T1796 679q0 19-4 55 3 0 7.5-2t6.5-3q164-64 325.5 8.5T2357 974q40 114 24 221.5t-88 198-181 132.5q-72 26-148 28h-611v-344h139q38 0 50.5-22t-7.5-53l-350-564q-14-20-33-20-9 0-17.5 5t-12.5 10l-4 5-350 564q-20 31-6.5 53t51.5 22h137v344l-459-1q-175 0-322.5-99.5T-43 1186q-34-87-38.5-179z" fill="undefined"/></svg>