<svg width="1792" height="1792" xmlns="http://www.w3.org/2000/svg"><path d="M86.5 1585V25q0-74 52.5-127t126.5-53h1261q74 0 126.5 53t52.5 127v1560q0 74-52.5 127t-126.5 53h-1261q-74 0-126.5-53t-52.5-127zm367-602q0 121 59 223T674 1367.5t222.5 59.5q184 0 314.5-130t130.5-314T1211 668.5 896.5 538q-90 0-172 35.5t-141.5 95-94.5 142-35 172.5zm120-15q6-129 99.5-219.5T896.5 658q122 0 213 80.5t108 199.5q0 1-.5 3.5t-.5 4.5q0 43-31 74t-74 31q-44 0-73-29-111-111-266-111-110 0-199 57zm713-792q0 37 26.5 63t63.5 26 63-26 26-63-26-63.5-63-26.5q-38 0-64 26t-26 64z" fill="undefined"/></svg>