<?xml version="1.0" encoding="utf-8"?>
<svg width="2304" height="1792" xmlns="http://www.w3.org/2000/svg"><path d="M42.5 1126q0 16 17 27.5t42 11.5 42.5-11.5 17.5-27.5V483q0-16-17.5-27t-42.5-11-42 11-17 27v643zm254 120q0 16 17.5 27.5t42.5 11.5 42.5-11.5 17.5-27.5V363q0-16-17.5-27t-42.5-11-42.5 11-17.5 27v883zm288 80q0 32 23.5 55.5t55.5 23.5h978q32 0 55-23.5t23-55.5V285q0-34-23-57t-55-23h-978q-33 0-56 23.5t-23 56.5v1041zm1303-80V363q0-16 17.5-27t41.5-11q25 0 43 11t18 27v883q0 16-18 27.5t-43 11.5q-24 0-41.5-11.5t-17.5-27.5zm254-120V483q0-16 17.5-27t42.5-11 42.5 11 17.5 27v643q0 16-17.5 27.5t-42.5 11.5-42.5-11.5-17.5-27.5z" fill="undefined"/></svg>