<svg width="64" height="64" viewBox="0 0 1920 1920" xmlns="http://www.w3.org/2000/svg"><path d="M0 1214V574q0-16 18-26.5T61 537t42 10.5 17 26.5v640q0 16-17 27.5T61 1253t-43-11.5T0 1214zm255 120V456q0-16 17.5-27.5T315 417q24 0 42 11.5t18 27.5v878q0 16-18 27t-42 11q-25 0-42.5-11t-17.5-27zm288 79V376q0-32 23-55t55-23h978q32 0 55.5 23t23.5 55v1037q0 32-23.5 55.5T1599 1492H621q-32 0-55-23.5t-23-55.5zm179-100h776V476H722v837zm1124 21V456q0-16 17-27.5t42-11.5 43 11.5 18 27.5v878q0 16-18 27t-43 11-42-11-17-27zm255-120V574q0-16 17-26.5t42-10.5 42 10.5 17 26.5v640q0 16-17 27.5t-42 11.5-42-11.5-17-27.5z"/></svg>