<svg width="64" height="64" viewBox="0 0 1920 1920" xmlns="http://www.w3.org/2000/svg"><path d="M0 1217q0 16 17 27.5t42 11.5 42.5-11.5T119 1217V574q0-16-17.5-27T59 536t-42 11-17 27v643zm254 120q0 16 17.5 27.5T314 1376t42.5-11.5T374 1337V454q0-16-17.5-27T314 416t-42.5 11-17.5 27v883zm288 80q0 32 23.5 55.5T621 1496h978q32 0 55-23.5t23-55.5V376q0-34-23-57t-55-23H621q-33 0-56 23.5T542 376v1041zm1303-80V454q0-16 17.5-27t41.5-11q25 0 43 11t18 27v883q0 16-18 27.5t-43 11.5q-24 0-41.5-11.5T1845 1337zm254-120V574q0-16 17.5-27t42.5-11 42.5 11 17.5 27v643q0 16-17.5 27.5T2159 1256t-42.5-11.5-17.5-27.5z"/></svg>