<?xml version="1.0" encoding="utf-8"?>
<svg width="1792" height="1792" xmlns="http://www.w3.org/2000/svg"><path d="M128 1355V253q0-62 46.5-107T286 101h1607q65 0 110 44t45 108v1102q0 62-45.5 107t-109.5 45H286q-65 0-111.5-45T128 1355zm158-1h1607V251H286v1103zm169-192q0-22 9.5-36.5T488 1111h367q14 0 24 14.5t10 36.5-10 37.5-24 15.5H488q-14 0-23.5-15.5T455 1162zm0-191q0-22 9.5-36.5T488 920h659q14 0 24 15t10 36q0 22-10 37.5t-24 15.5H488q-14 0-23.5-15.5T455 971zm0-236V573q0-28 19.5-48t47.5-20h197q28 0 47.5 20t19.5 48v162q0 28-19.5 47.5T719 802H522q-28 0-47.5-19.5T455 735zm79-10h173V584H534v141zm703 246q0-21 10-36t24-15h137q14 0 24 14.5t10 36.5-10 37.5-24 15.5h-137q-14 0-24-15.5t-10-37.5zm262 0q0-22 10.5-36.5T1534 920h137q14 0 24 14.5t10 36.5-10 37.5-24 15.5h-137q-14 0-24.5-15.5T1499 971z" fill="undefined"/></svg>