<svg width="64" height="64" viewBox="0 0 1920 1920" xmlns="http://www.w3.org/2000/svg"><path d="M0 1446V344q0-62 46.5-107T158 192h1607q65 0 110 44t45 108v1102q0 62-45.5 107t-109.5 45H158q-65 0-111.5-45T0 1446zm158-1h1607V342H158v1103zm169-192q0-22 9.5-36.5T360 1202h367q14 0 24 14.5t10 36.5-10 37.5-24 15.5H360q-14 0-23.5-15.5T327 1253zm0-191q0-22 9.5-36.5T360 1011h659q14 0 24 15t10 36q0 22-10 37.5t-24 15.5H360q-14 0-23.5-15.5T327 1062zm0-236V664q0-28 19.5-48t47.5-20h197q28 0 47.5 20t19.5 48v162q0 28-19.5 47.5T591 893H394q-28 0-47.5-19.5T327 826zm79-10h173V675H406v141zm703 246q0-21 10-36t24-15h137q14 0 24 14.5t10 36.5-10 37.5-24 15.5h-137q-14 0-24-15.5t-10-37.5zm262 0q0-22 10.5-36.5t24.5-14.5h137q14 0 24 14.5t10 36.5-10 37.5-24 15.5h-137q-14 0-24.5-15.5T1371 1062z"/></svg>