<svg width="2304" height="1792" xmlns="http://www.w3.org/2000/svg"><path d="M-173.5 539q0-221 140-408.5t380-296.5 523-109q213 0 406 64.5t332 173.5T1829 222.5t82.5 316.5q0 133-52.5 257t-148.5 224.5-224 176T1199 1313t-329.5 41q-212 0-397-61l-238 166q-133 85-187.5 49.5T24.5 1310l48-248Q-44.5 954-109 819.5T-173.5 539zm1331 959q242-48 441-169t324.5-297.5T2076.5 650q182 73 291.5 210t109.5 301q0 101-45 196t-126 171l35 175q20 114-17.5 139t-131.5-35l-167-118q-130 44-279 44-179 0-334-63t-255-172z" fill="undefined"/></svg>