<svg width="2304" height="1792" xmlns="http://www.w3.org/2000/svg"><path d="M49.5 1368V2q0-65 52.5-111t126.5-46h1846q74 0 127.5 46t53.5 111v1366q0 65-53.5 111.5t-127.5 46.5h-497v119q0 49-35 84.5t-85 35.5h-614q-50 0-85-35.5t-35-84.5v-119h-495q-74 0-126.5-46.5T49.5 1368zm240-82h1726V954h-406q-19 54-66.5 88.5t-106.5 34.5q-76 0-128.5-53t-52.5-129q0-65 41-114l-106-171q-33 5-40 5t-39-5l-104 169q42 52 42 116 0 76-53.5 129t-129.5 53q-59 0-105.5-34.5T695.5 954h-406v332zm0-452h406q19-54 65.5-88t105.5-34q17 0 39 5l104-170q-41-52-41-115 0-76 53-129.5t129-53.5 129 53.5 53 129.5q0 62-41 114l107 171q22-5 38-5 59 0 106.5 34t66.5 88h406V85h-1726v749z" fill="undefined"/></svg>