<svg width="1792" height="1792" xmlns="http://www.w3.org/2000/svg"><path d="M128 802q0-194 75.5-371T407 125.5 712.5-79t372.5-76q196 0 374.5 76T1767 125.5 1972 431t76 371q0 196-76 374t-205 307-307.5 205.5T1085 1765t-373-76.5T407 1483t-203.5-307T128 802zm160 41q4 141 59.5 270T501 1345q118-180 289.5-311T1168 831q-23-45-48-112-368 130-720 130-17 0-54-3t-58-3zm6-160h106q339 0 649-112Q925 337 719 93q-169 90-281.5 245.5T294 683zm324 774q223 149 467 149 135 0 254-43-26-294-118-578-185 61-338.5 182T618 1457zM879 34q186 231 319 478 242-108 442-283-111-108-253.5-166T1085 5q-92 0-206 29zm390 627q8 21 25.5 65t26.5 64q157-30 261-30 120 0 306 42 0-232-142-449-227 190-477 308zm106 283q79 241 118 549 145-84 244-223t134-309q-147-35-289-35-109 0-207 18z" fill="undefined"/></svg>