<svg width="64" height="64" viewBox="0 0 1920 1920" xmlns="http://www.w3.org/2000/svg"><path d="M0 893q0-194 75.5-371T279 216.5 584.5 12 957-64q196 0 374.5 76T1639 216.5 1844 522t76 371q0 196-76 374t-205 307-307.5 205.5T957 1856t-373-76.5T279 1574 75.5 1267 0 893zm160 41q4 141 59.5 270T373 1436q118-180 289.5-311T1040 922q-23-45-48-112-368 130-720 130-17 0-54-3t-58-3zm6-160h106q339 0 649-112-124-234-330-478-169 90-281.5 245.5T166 774zm324 774q223 149 467 149 135 0 254-43-26-294-118-578-185 61-338.5 182T490 1548zM751 125q186 231 319 478 242-108 442-283-111-108-253.5-166T957 96q-92 0-206 29zm390 627q8 21 25.5 65t26.5 64q157-30 261-30 120 0 306 42 0-232-142-449-227 190-477 308zm106 283q79 241 118 549 145-84 244-223t134-309q-147-35-289-35-109 0-207 18z"/></svg>