<svg width="64" height="64" viewBox="0 0 1920 1920" xmlns="http://www.w3.org/2000/svg"><path d="M0 896q0-61 31.5-138T120 599.5 264 440t189.5-139.5 235-99T960 164t271.5 37.5 235 99T1656 440t144 159.5 88.5 158.5 31.5 138q0 60-31.5 137t-88.5 158.5-144 159-189.5 139-235 99T960 1626t-271.5-37.5-235-99-189.5-139-144-159T31.5 1033 0 896zm480 0q0 130 64.5 240t175 174 240.5 64 240.5-64 175-174 64.5-240-64.5-240.5-175-175T960 416t-240.5 64.5-175 175T480 896zm279 0q0 83 59 142t142 59 142-59 59-142q0-84-59-143.5T960 693t-142 59.5T759 896z"/></svg>