<svg width="1792" height="1792" xmlns="http://www.w3.org/2000/svg"><path d="M128 805q0-61 31.5-138T248 508.5 392 349t189.5-139.5 235-99T1088 73t271.5 37.5 235 99T1784 349t144 159.5 88.5 158.5 31.5 138q0 60-31.5 137t-88.5 158.5-144 159-189.5 139-235 99T1088 1535t-271.5-37.5-235-99-189.5-139-144-159T159.5 942 128 805zm480 0q0 130 64.5 240t175 174 240.5 64 240.5-64 175-174 64.5-240-64.5-240.5-175-175T1088 325t-240.5 64.5-175 175T608 805zm279 0q0 83 59 142t142 59 142-59 59-142q0-84-59-143.5T1088 602t-142 59.5T887 805z" fill="undefined"/></svg>