<svg width="64" height="64" viewBox="0 0 1920 1920" xmlns="http://www.w3.org/2000/svg"><path d="M0 1254q0-29 3-56H0q0-116 24-239.5T78.5 747 137 557t36.5-175.5T162 213q6 1 17 5.5t43 27.5 63 58.5 71.5 107T431 576q55-51 95.5-106T603 339t55-177.5T677-64q11 7 30 20t73.5 65T885 137t110.5 175.5 104 239 73.5 312 30 390.5q0 163-80.5 301.5t-219 219.5-301.5 81q-164 0-302.5-81t-219-219.5T0 1254zm389 150q0 89 62.5 151.5T602 1618t150.5-62.5T815 1404q0-100-19-185t-46.5-135-55-85-46.5-48l-19-14q0 83-23 135t-65 91q-19-52-42.5-84t-38.5-38l-14-6q11 42-3 95.5t-34 123-20 131.5h1q-1 6-1 19z"/></svg>