<?xml version="1.0" encoding="utf-8"?>
<svg width="1792" height="1792" xmlns="http://www.w3.org/2000/svg"><path d="M294.5 1163q0-29 3-56h-3q0-116 24-239.5T373 656t58.5-190T468 290.5 456.5 122q6 1 17 5.5t43 27.5 63 58.5 71.5 107T725.5 485q55-51 95.5-106t76.5-131 55-177.5 19-225.5q11 7 30 20t73.5 65 104.5 116T1290 221.5t104 239 73.5 312 30 390.5q0 163-80.5 301.5T1198 1684t-301.5 81q-164 0-302.5-81t-219-219.5-80.5-301.5zm389 150q0 89 62.5 151.5t150.5 62.5 150.5-62.5 62.5-151.5q0-100-19-185T1044 993t-55-85-46.5-48l-19-14q0 83-23 135t-65 91q-19-52-42.5-84t-38.5-38l-14-6q11 42-3 95.5t-34 123-20 131.5h1q-1 6-1 19z" fill="undefined"/></svg>