<?xml version="1.0" encoding="utf-8"?>
<svg width="1792" height="1792" xmlns="http://www.w3.org/2000/svg"><path d="M128 896q0 240 72 383 77 152 239 225 164 77 335 95 154 18 332 18 77 0 193-6 97-6 206.5-26.5T1694 1531q90-38 166-102.5t118-149.5q70-143 70-383 0-274-157-458 31-93 31-195 0-135-58-251-119 0-212.5 42T1430 176q-157-37-324-37-182 0-356 40Q619 76 525.5 34T313-8q-59 115-59 251 0 103 31 197-157 184-157 456zm258 203q0-142 81.5-237T682 767q53 0 225 25 88 13 181 13t182-13q175-25 225-25 133 0 214 95t81 237q0 101-37 178-37 74-92.5 117.5T1519 1464q-142 43-334 43H991q-95 0-172-9-82-8-165-35t-137-68q-59-46-95-122.5T386 1099zm185 0q0 47 15 95 15 52 51.5 89.5T719 1321q48 0 84-39 63-73 63-183 0-46-13-94-15-52-51.5-89.5T719 878q-48 0-84 40-64 69-64 181zm739 0q0 47 15 95 15 52 51 89.5t81 37.5q49 0 85-39 63-73 63-183 0-43-14-94-15-52-51.5-89.5T1457 878q-48 0-82 40-65 69-65 181z" fill="undefined"/></svg>