<svg width="64" height="64" viewBox="0 0 1920 1920" xmlns="http://www.w3.org/2000/svg"><path d="M0 896q0-195 76-373t205-306.5T587.5 12 960-64t373 76 306.5 204.5T1844 523t76 373-76 372.5-204.5 306.5-306.5 205-373 76-372.5-76T281 1575 76 1268.5 0 896zm165 0q0 161 63 308.5t169.5 254 254 169.5 308.5 63q282 0 502-178l-107-107q-176 136-395 136-132 0-251.5-51t-206-137.5-138-206.5T313 896q0-245 162.5-428.5T878 253V104q-198 21-361 131T259.5 519.5 165 896zm313 0q0 151 89 277l151-152q-32-64-32-125t32-127L567 618q-89 124-89 278zm204 394q126 88 279 88 152 0 278-88l-152-152q-64 32-127 32-62 0-126-32zm0-789l152 152q14-8 44-18V420q-112 20-196 81zm360 134q85 27 138.5 98.5T1234 896q0 67-32 125l152 152q89-126 89-277 0-178-114.5-312T1042 420v215zm0-382q118 15 222.5 71.5t180 141.5T1564 663t44 233q0 220-136 394l105 106q178-218 178-500 0-202-94.5-376.5T1403 235t-361-131v149z"/></svg>