<svg width="64" height="64" viewBox="0 0 1920 1920" xmlns="http://www.w3.org/2000/svg"><path d="M0 1688v-143q0-45 24-100.5t49.5-94.5 77.5-113l49.5-66 54.5-74.5 44.5-67.5 36-72 11.5-61-11.5-61-36-72-44.5-67.5-54.5-74.5-49.5-66q-53-75-78-113t-49-93.5T0 248V105Q0 35 50-14.5T171-64h858q71 0 121 49.5t50 119.5v143q0 45-24 100.5t-49 93.5-78 113l-49.5 66-54.5 74.5-44.5 67.5-36 72-11.5 61 11.5 61 36 72 44.5 67.5 54.5 74.5 49.5 66q52 74 77.5 113t49.5 94.5 24 100.5v143q0 70-50 119t-121 49H171q-71 0-121-49T0 1688zm205-72h81q0-17 5-34.5t17.5-36 24.5-34 35-35.5 39-33.5 46-35 46.5-33.5 51-35.5T600 1304q16 11 54.5 38t57 40 51.5 37.5 50 40 39.5 38 33.5 40 19.5 38.5 8.5 40h81v-71q0-15-27-64-17-29-87-129-109-154-146-221-70-130-70-235 0-54 16-110.5t51-118 61-101T866 461l15-21q67-95 87-130 12-20 18.5-35.5T994 253l1-5v-71H205v71q1 16 27 62 20 35 87 130 109 154 146 221 70 130 70 235 0 54-16 110.5t-51 118-61 101-73 105.5q-2 3-3.5 5t-4 5-4 5.5-3.5 5.5q-70 100-87 129-27 49-27 64v71z"/></svg>