<svg width="1792" height="1792" xmlns="http://www.w3.org/2000/svg"><path d="M128 805q0-196 76-373.5t204.5-306T714.5-79t373.5-76q195 0 373 76t306.5 204.5 204.5 306 76 373.5q0 195-76 373t-204.5 306.5T1461 1689t-373 76q-196 0-373.5-76t-306-204.5T204 1178t-76-373zm240 0q0 146 57 279.5t153.5 230 230 153.5 279.5 57 279.5-57 230-153.5 153.5-230 57-279.5-57-279.5-153.5-230-230-153.5T1088 85t-279.5 57-230 153.5-153.5 230T368 805zm576-348q0-58 39.5-93t104.5-35q66 0 105 34.5t39 93.5-39 94-105 35q-65 0-104.5-35T944 457zm9 823V667h271v613H953z" fill="undefined"/></svg>