<svg width="64" height="64" viewBox="0 0 1920 1920" xmlns="http://www.w3.org/2000/svg"><path d="M0 896q0-195 76-373t204.5-306.5T587 12t373-76 373 76 306.5 204.5T1844 523t76 373-76 373-204.5 306.5T1333 1780t-373 76-373-76-306.5-204.5T76 1269 0 896zm551 266q0 64 44.5 109t108.5 45h512q64 0 108.5-45t44.5-109V910h-188q-20 73-81.5 120T960 1077t-139-47-83-120H551v252zm0-380h187q22-73 83-119t139-46 139.5 46 81.5 119h188V650q0-64-44.5-108.5T1216 497H704q-64 0-108.5 44.5T551 650v132zm281 64q0 53 37.5 90.5T960 974t90.5-37.5T1088 846t-37.5-90.5T960 718t-90.5 37.5T832 846z"/></svg>