<svg width="1792" height="1792" xmlns="http://www.w3.org/2000/svg"><path d="M128 805q0-195 76-373t204.5-306.5T715-79t373-76 373 76 306.5 204.5T1972 432t76 373-76 372.5-204.5 306.5-306.5 205-373 76-373-76-306.5-205T204 1177.5 128 805zm360 0q0 162 80.5 300.5t218.5 219 301 80.5 301-80.5 218.5-219T1688 805q0-163-80.5-301T1389 285.5 1088 205t-301 80.5T568.5 504 488 805zm362 307q202-13 341.5-161T1331 599q0-55-11-108 73 54 115.5 137t42.5 177q0 161-114.5 275T1088 1194q-133 0-238-82z" fill="undefined"/></svg>