<svg width="64" height="64" viewBox="0 0 1920 1920" xmlns="http://www.w3.org/2000/svg"><path d="M0 896q0-195 76-373t204.5-306.5T587 12t373-76 373 76 306.5 204.5T1844 523t76 373-76 372.5-204.5 306.5-306.5 205-373 76-373-76-306.5-205T76 1268.5 0 896zm360 0q0 162 80.5 300.5t218.5 219 301 80.5 301-80.5 218.5-219T1560 896q0-163-80.5-301T1261 376.5 960 296t-301 80.5T440.5 595 360 896zm362 307q202-13 341.5-161T1203 690q0-55-11-108 73 54 115.5 137t42.5 177q0 161-114.5 275T960 1285q-133 0-238-82z"/></svg>