<svg width="1792" height="1792" xmlns="http://www.w3.org/2000/svg"><path d="M61 1584q-8-64 11-157l90-424q49-185 163-185h250V10q0-68 94-116.5T896-155t227 48.5T1217 10v808h250q115 0 164 185l90 424q19 93 11 157t-40 104.5-70 58.5-79 18H250q-41 0-79-18t-70-58.5T61 1584zm354-455q0 103 141 176.5t340 73.5q200 0 341-73.5t141-176.5q0-54-43-102t-118-83v183q0 68-94 117t-227 49-227-49-94-117V944q-75 35-117.5 83T415 1129zM728 10q0 36 49 62t119 26 119.5-26 49.5-62-49.5-61.5T896-77 777-51.5 728 10z" fill="undefined"/></svg>