<?xml version="1.0" encoding="utf-8"?>
<svg width="2048" height="1792" xmlns="http://www.w3.org/2000/svg"><path d="M82.5 238Q82.5 81 193-30.5T460.5-142 729-30.5 840.5 238q0 86-40 168l539 538q-107 67-168 171l-540-539q-80 40-171 40-157 0-267.5-110.5T82.5 238zm1139 1139.5q0-154.5 109-263.5 61-61 142-88V417h-161q-32 0-43-18.5t6-43.5l291-470q12-18 28-18 8 0 15 4.5t10 8.5l3 5 292 470q17 25 6 43.5t-43 18.5h-164v608q82 26 145 89 109 109 109 263.5t-109 264.5q-111 109-264 109-152 0-263-109-109-110-109-264.5zm181 0q0 80.5 55 135.5 56 58 136 58 83 0 136-58 56-56 56-136t-56-136-136-56q-77 0-136 56-55 56-55 136.5z" fill="undefined"/></svg>