<svg width="2048" height="1792" xmlns="http://www.w3.org/2000/svg"><path d="M99 1382q0-149 106-253 105-105 253-105 41 0 78 9l250-499q-14-12-21-19-104-104-104-253T765 9Q869-97 1018.5-97T1272 9q106 104 106 253t-106 253q-9 8-19 16l257 502q41-9 82-9 148 0 253 105 104 104 104 253t-104 253q-106 106-253 106t-253-106q-106-104-106-253t106-253q11-11 18-17l-258-502q-75 19-158 1l-250 500q2 2 6.5 5.5t8 6.5 6.5 6q104 104 104 253t-104 253q-108 106-254 106-147 0-253-106-106-104-106-253zm174 0q0 76 55 131 54 54 130 54 75 0 131-54 54-56 54-131 0-77-54-131t-131-54q-78 0-130 54-55 53-55 131zm1133 0q0 76 55 131 54 54 131 54 75 0 131-54 54-54 54-131t-54-131-131-54q-79 0-131 54-55 53-55 131z" fill="undefined"/></svg>