<?xml version="1.0" encoding="utf-8"?>
<svg width="2304" height="1792" xmlns="http://www.w3.org/2000/svg"><path d="M87 1487.5q-25.5-96.5 0-193t97.5-168.5q110-110 265-110 142 0 250 97l77-49q-17-89 10-178t93-155q61-61 144-89v-69q-80-26-144-90-71-72-96.5-168.5t0-192.5 96.5-168q109-109 265-109 155 0 264 109 72 72 97.5 168t0 192.5-97.5 168.5q-62 64-144 90v69q83 28 144 89 65 65 91.5 151t12.5 174l91 58q109-98 252-98 155 0 265 110 72 72 97.5 168.5t0 193-97.5 168.5q-111 109-265 109-153 0-264-109-65-66-92-154t-12-176l-88-57q-106 100-251.5 101t-252.5-96l-78 51q16 89-11 177t-93 154q-111 109-264 109-154 0-265-109-72-72-97.5-168.5zm169.5-97q0 80.5 56 136.5 56 57 137 57t136-57q56-56 56-136.5t-56-136.5q-57-57-136-57-80 0-137 57-56 56-56 136.5zm695-1172q0 80.5 56 136.5 58 58 137 58 78 0 136-58 56-56 56-136.5t-56-136.5-136-56q-81 0-137 56t-56 136.5zm712 1172q0 80.5 56 136.5 55 57 136 57t137-57q56-56 56-137 0-80-56-136-57-57-137-57-79 0-136 57-56 56-56 136.5z" fill="undefined"/></svg>