<svg width="64" height="64" viewBox="0 0 1920 1920" xmlns="http://www.w3.org/2000/svg"><path d="M0 329Q0 172 110.5 60.5T378-51 646.5 60.5 758 329q0 86-40 168l539 538q-107 67-168 171L549 667q-80 40-171 40-157 0-267.5-110.5T0 329zm1139 1139.5q0-154.5 109-263.5 61-61 142-88V508h-161q-32 0-43-18.5t6-43.5l291-470q12-18 28-18 8 0 15 4.5t10 8.5l3 5 292 470q17 25 6 43.5t-43 18.5h-164v608q82 26 145 89 109 109 109 263.5T1775 1733q-111 109-264 109-152 0-263-109-109-110-109-264.5zm181 0q0 80.5 55 135.5 56 58 136 58 83 0 136-58 56-56 56-136t-56-136-136-56q-77 0-136 56-55 56-55 136.5z"/></svg>