<?xml version="1.0" encoding="utf-8"?>
<svg width="2048" height="1792" xmlns="http://www.w3.org/2000/svg"><path d="M100 1359q0-153 110-262 107-107 260-107 89 0 164 37l525-524q63 103 167 163l-525 527q53 103 34.5 222T732 1622q-107 107-262 107-153 0-260-107-110-110-110-263zm177 0q0 81 56 137 58 58 137 58t137-58 58-137-58-137q-57-57-137-57t-137 57q-56 56-56 137zm933-1109q0-153 108-261 109-109 262-109 152 0 261 109 108 108 108 261t-108 261-261 108q-154 0-262-108t-108-261zm176 0q0 80 57 137 56 56 137 56t137-56 56-137-56-137q-57-57-137-57t-137 57-57 137z" fill="undefined"/></svg>