<?xml version="1.0" encoding="utf-8"?>
<svg width="1792" height="1792" xmlns="http://www.w3.org/2000/svg"><path d="M128 805q0-195 76-373t204.5-306.5T715-79t373-76 373 76 306.5 204.5T1972 432t76 373-76 373-204.5 306.5T1461 1689t-373 76-373-76-306.5-204.5T204 1178t-76-373zm465 309q0 77 54.5 131t131.5 54h619q77 0 131.5-54t54.5-131V495q0-77-54.5-131T1398 310H779q-77 0-131.5 54T593 495v619zm166 0V702q0-8 6-14.5t14-6.5h124q8 0 14 6.5t6 14.5v412q0 8-6 14.5t-14 6.5H779q-8 0-14-6.5t-6-14.5zm0-560q0-32 23.5-56t55.5-24q33 0 56.5 23.5T918 554t-23 56q-24 24-57 24-32 0-55.5-23T759 554zm206 560V699q0-8 9.5-13t18.5-5h114q23 0 23 23 0-3 8-8 46-29 103-29 84 0 130.5 42.5T1418 834v280q0 8-6 14.5t-14 6.5h-120q-9 0-16.5-6.5t-7.5-14.5V861q0-34-10.5-48t-40.5-14q-73 0-73 90v225q0 8-6 14.5t-13 6.5H993q-9 0-18.5-6.5T965 1114z" fill="undefined"/></svg>