<svg width="2048" height="1792" xmlns="http://www.w3.org/2000/svg"><path d="M99.5 296q0-150 106-256t256-106q151 0 257 106 62 63 88 142h306q-14 58-14 114 0 57 14 115h-306q-24 71-75 128l226 414q44-6 65-6 151 0 258 107 70 70 94.5 163.5t0 187.5-94.5 164q-106 106-258 106-151 0-257-106-103-104-105.5-251t96.5-253l-225-412q-28 6-70 6-150 0-256-106-106-107-106-257zm174 1q0 79 55 134 53 56 133 56 82 0 135-56 55-55 55-134t-55-135q-53-56-135-56-80 0-133 56-55 56-55 135zm560 1014q0 79 55 135 59 56 134 56 79 0 135-56t56-135-56-135q-53-56-135-56-78 0-134 56-55 56-55 135zm319-471l163-301q-97-107-93.5-251.5T1328.5 40q106-106 257-106 150 0 257 106 70 70 94.5 163t0 186.5-94.5 163.5q-107 106-257 106-42 0-70-6l-162 299q-87-80-201-112zm243-543q0 79 55 134 53 56 135 56 79 0 135-56 55-55 55-134t-55-135q-56-56-135-56-82 0-135 56-55 56-55 135z" fill="undefined"/></svg>