<svg width="64" height="64" viewBox="0 0 1920 1920" xmlns="http://www.w3.org/2000/svg"><path d="M0 1496V296Q0 147 105.5 41.5T360-64h1200q149 0 254.5 105.5T1920 296v1200q0 149-105.5 254.5T1560 1856H360q-149 0-254.5-105.5T0 1496zm320 0q0 16 12 28t28 12h240q16 0 28-11.5t12-28.5V696q0-16-12-28t-28-12H360q-16 0-28 12t-12 28v800zm0-1085q0 64 45 109.5T474 566q67 0 110-46 45-45 45-109t-45.5-109.5T474 256t-109 45.5T320 411zm400 1085q0 16 19 28t38 12h228q14 0 24.5-12t10.5-28v-436q0-175 143-175 59 0 78 26t19 94v491q0 16 15 28t33 12h232q16 0 28-11.5t12-28.5V953q0-157-90.5-240.5T1255 629q-113 0-197 57-17 10-18 15 0-45-43-45H777q-20 0-38.5 10T720 691v805z"/></svg>