<svg width="1792" height="1792" xmlns="http://www.w3.org/2000/svg"><path d="M128 1405V205q0-149 105.5-254.5T488-155h1200q149 0 254.5 105.5T2048 205v1200q0 149-105.5 254.5T1688 1765H488q-149 0-254.5-105.5T128 1405zm320 0q0 16 12 28t28 12h240q16 0 28-11.5t12-28.5V605q0-16-12-28t-28-12H488q-16 0-28 12t-12 28v800zm0-1085q0 64 45 109.5T602 475q67 0 110-46 45-45 45-109t-45.5-109.5T602 165t-109 45.5T448 320zm400 1085q0 16 19 28t38 12h228q14 0 24.5-12t10.5-28V969q0-175 143-175 59 0 78 26t19 94v491q0 16 15 28t33 12h232q16 0 28-11.5t12-28.5V862q0-157-90.5-240.5T1383 538q-113 0-197 57-17 10-18 15 0-45-43-45H905q-20 0-38.5 10T848 600v805z" fill="undefined"/></svg>