<?xml version="1.0" encoding="utf-8"?>
<svg width="2048" height="1792" xmlns="http://www.w3.org/2000/svg"><path d="M99.5 296q0-150 106-256t257-106q150 0 256 106 61 61 88 142h306q-14 58-14 115 0 56 14 114h-306q-26 79-88 142-106 106-256 106-151 0-257-106-106-107-106-257zm174 1q0 79 55 135 55 55 134 55 77 0 135-55 56-56 56-135t-56-135-135-56q-81 0-134 56-55 56-55 135zM672 1405.5q-24.5-93.5 0-187.5t94.5-164q107-107 258-107 149 0 256 107t107 257.5-107 257.5q-106 106-256 106-152 0-258-106-70-70-94.5-163.5zm161.5-94.5q0 79 56 135 53 56 135 56 78 0 134-56 55-56 55-135t-55-135q-59-56-134-56-79 0-135 56t-56 135zm319-470l163-302q-96-107-92.5-252t105.5-247q106-106 257-106t257 106q70 70 94.5 163t0 186.5-94.5 163.5q-106 106-257 106-32 0-70-5l-162 299q-83-78-201-112zm243-544q0 79 55 135 55 55 135 55 77 0 135-55 55-56 55-135t-55-135q-56-56-135-56-82 0-135 56-55 56-55 135z" fill="undefined"/></svg>