<?xml version="1.0" encoding="utf-8"?>
<svg width="1792" height="1792" xmlns="http://www.w3.org/2000/svg"><path d="M128 1395q0 61 43 104.5t104 43.5h66q61 0 104-43.5t43-104.5-43-104-104-43h-66q-61 0-104 43t-43 104zm0-590q0 61 43 104t104 43h66q61 0 104-43t43-104-43-104.5T341 657h-66q-61 0-104 43.5T128 805zm0-591q0 61 43 104t104 43h66q61 0 104-43t43-104-43-104.5T341 66h-66q-61 0-104 43.5T128 214zm480 1181q0 61 43 104.5t104 43.5h1146q61 0 104-43.5t43-104.5-43-104-104-43H755q-61 0-104 43t-43 104zm0-590q0 61 43 104t104 43h1146q61 0 104-43t43-104-43-104.5-104-43.5H755q-61 0-104 43.5T608 805zm0-591q0 61 43 104t104 43h1146q61 0 104-43t43-104-43-104.5T1901 66H755q-61 0-104 43.5T608 214z" fill="undefined"/></svg>