<svg width="64" height="64" viewBox="0 0 1920 1920" xmlns="http://www.w3.org/2000/svg"><path d="M0 1674V869q0-29 20.5-48.5T71 801h92V496q0-112 41.5-214T320 102q73-78 173.5-122T706-64t213 44 174 122q74 78 115 180t41 214v305h93q30 0 50.5 19.5T1413 869v805q0 26-16.5 39t-54.5 29q-20 9-71 25t-135.5 37.5T935 1841t-229 15q-317 0-635-114-34-11-52.5-26.5T0 1674zm422-873h569V496q0-130-86-221-85-87-199-87t-199 87q-85 90-85 221v305zm58 685q0 23 17 40 18 18 40 18 24 0 40-18l129-128 129 128q16 18 40 18 22 0 40-18 17-17 17-40.5t-17-39.5l-129-129 129-128q17-17 17-40.5t-17-40.5-40-17-40 17l-129 129-129-129q-17-17-40-17t-40 17-17 40.5 17 40.5l129 128-129 129q-17 17-17 40z"/></svg>