<?xml version="1.0" encoding="utf-8"?>
<svg width="2304" height="1792" xmlns="http://www.w3.org/2000/svg"><path d="M104 750.5q-49-185.5 0-371T292 56Q396-48 528.5-101.5T802-155q142 0 274 53.5T1312 56q111 110 165 254.5t45.5 294T1446 889q64 21 106 63l372 373q76 76 76 182t-76 182-181 76q-107 0-183-76l-373-372q-46-46-63-107-155 76-322 76-141 0-273.5-53.5T292 1075Q153 936 104 750.5zM323 565q0 200 140 340 68 68 155.5 104.5T802 1046t184.5-36.5T1142 905q68-67 104.5-155t36.5-184q0-200-141-341-67-67-155.5-103.5T802 85q-199 0-339 140T323 565zm1279-410q0-25 17.5-42.5T1662 95h501q25 0 43 17.5t18 42.5-18 42.5-43 17.5h-501q-24 0-43-17-17-19-17-43z" fill="undefined"/></svg>