<svg width="64" height="64" viewBox="0 0 1920 1920" xmlns="http://www.w3.org/2000/svg"><path d="M23 841.5q-49-185.5 0-371T211 147Q315 43 447.5-10.5T721-64q142 0 274 53.5T1231 147q111 110 165 254.5t45.5 294T1365 980q64 21 106 63l372 373q76 76 76 182t-76 182-181 76q-107 0-183-76l-373-372q-41-41-63-107-154 76-322 76-141 0-273.5-53.5T211 1166Q72 1027 23 841.5zM242 656q0 200 140 340 68 68 155.5 104.5T721 1137q201 0 340-141 68-67 104.5-155t36.5-184q0-200-141-341-140-140-340-140-199 0-339 140T242 656zm1279-410q0-25 18-42.5t42-17.5h192V-5q0-25 17-42t42-17 42 17 17 42v191h192q24 0 42 17.5t18 42.5-18 42.5-42 17.5h-192v191q0 25-17 42.5t-42 17.5q-24 0-42-18-17-17-17-42V306h-192q-24 0-43-17-17-19-17-43z"/></svg>