<?xml version="1.0" encoding="utf-8"?>
<svg width="2048" height="1792" xmlns="http://www.w3.org/2000/svg"><path d="M132 753.5Q85 576 132 399T311 91Q410-8 536.5-59.5T798-111q134 0 260.5 51.5T1284 91q106 106 157 243.5t43 280.5-73 271q58 17 100 59l357 356q71 72 71 173.5t-71 173.5q-72 72-174 72t-174-72l-355-355q-44-42-61-102-143 73-306 73-135 0-261.5-51T311 1063Q179 931 132 753.5zm208-176Q340 768 473 901q134 134 325 134 189 0 323-134t134-324-134-324Q985 119 798 119q-189 0-325 134-133 134-133 324.5z" fill="undefined"/></svg>