<svg width="64" height="64" viewBox="0 0 1920 1920" xmlns="http://www.w3.org/2000/svg"><path d="M0 896q0-196 76-373.5t204.5-306T586.5 12 960-64q195 0 373 76t306.5 204.5 204.5 306 76 373.5q0 195-76 373t-204.5 306.5T1333 1780t-373 76q-196 0-373.5-76t-306-204.5T76 1269 0 896zm181 0q0 158 61.5 302.5t166 249 249 166.5 302.5 62 303-62 249.5-166.5 166.5-249 62-302.5-62-302.5-166.5-249T1263 178t-303-62-302.5 62-249 166.5-166 249T181 896zm240-63q0-32 24-55t58-23h220l167 255 93-533h313q35 0 60 23.5t25 55.5-25 55.5-60 23.5h-174l-139 802-351-527H503q-34 0-58-22.5T421 833z"/></svg>