<svg width="64" height="64" viewBox="0 0 1920 1920" xmlns="http://www.w3.org/2000/svg"><path d="M4 1817l1-5 125-537q6-30 27-35.5t43 17.5l115 115 211-210q36 57 73 95 42 41 96 74l-210 210 114 115q23 23 17.5 43t-35.5 26L43 1852q-19 3-30-8-6-6-8-14t-1-13zm575-917q0-156 111-266.5T957 523q157 0 267.5 110.5T1335 900q0 157-110.5 267.5T957 1278q-156 0-267-110.5T579 900zm180 0q0 82 58 140.5t140 58.5 140-58 58-141-57.5-140.5T957 702q-82 0-140 58t-58 140zm464-436l214-214-115-114q-23-23-17-43.5t36-26.5l537-127q20-3 31 8 5 5 7 13t2 13l-1 6-126 537q-6 30-27 35.5t-43-17.5l-115-115-214 214q-37-58-74-95-40-40-95-74z"/></svg>