<svg width="64" height="64" viewBox="0 0 1920 1920" xmlns="http://www.w3.org/2000/svg"><path d="M0 1676V116Q0 42 53.5-11T181-64h240v360h1080V-64h240q74 0 126.5 53t52.5 127v1560q0 74-52.5 127t-126.5 53h-240v-360H421v360H181q-74 0-127.5-53T0 1676zm151-90v120h120v-120H151zm0-181h120v-120H151v120zm0-299h120V986H151v120zm0-301h120V685H151v120zm0-299h120V386H151v120zm0-301h120V85H151v120zm270 991h1080V596H421v600zm1228 390v120h120v-120h-120zm0-181h120v-120h-120v120zm0-299h120V986h-120v120zm0-301h120V685h-120v120zm0-299h120V386h-120v120zm0-301h120V85h-120v120z"/></svg>