<svg width="64" height="64" viewBox="0 0 1920 1920" xmlns="http://www.w3.org/2000/svg"><path d="M0 1010V793q0-37 26-63t63-26 63.5 26 26.5 63v217q0 182 132 311.5T629 1451q185 0 316.5-129.5T1077 1010V793q0-37 26.5-63t63.5-26 63.5 26 26.5 63v217q0 231-153.5 403.5T722 1621v87h280q37 0 64 26t27 62q0 37-26.5 63t-64.5 26H262q-37 0-63-26t-26-63q0-36 26-62t63-26h281v-86q-151-20-275.5-106t-196-219.5T0 1010zm296-10V234q0-136 97.5-232T629-94q137 0 234 96t97 232v766q0 136-97 232t-234 96q-138 0-235.5-96T296 1000z"/></svg>