<?xml version="1.0" encoding="utf-8"?>
<svg width="1792" height="1792" xmlns="http://www.w3.org/2000/svg"><path d="M267.5 919V702q0-37 26-63t63-26 63.5 26 26.5 63v217q0 182 132 311.5t318 129.5q185 0 316.5-129.5T1344.5 919V702q0-37 26.5-63t63.5-26 63.5 26 26.5 63v217q0 231-153.5 403.5T989.5 1530v87h280q37 0 64 26t27 62q0 37-26.5 63t-64.5 26h-740q-37 0-63-26t-26-63q0-36 26-62t63-26h281v-86q-151-20-275.5-106t-196-219.5T267.5 919zm296-10V143q0-136 97.5-232t235.5-96q137 0 234 96t97 232v766q0 136-97 232t-234 96q-138 0-235.5-96t-97.5-232z" fill="undefined"/></svg>