<svg width="64" height="64" viewBox="0 0 1920 1920" xmlns="http://www.w3.org/2000/svg"><path d="M0 1856q0-17 2-45.5t21.5-91.5 53.5-98q34-34 132.5-74.5T432 1461t183-75q73-37 113.5-110.5T769 1124q0-54-63-125-36-40-64-119-89-37-89-151 0-83 29-120-12-77-20-164-2-16-4.5-42.5t5.5-91T595 203q38-67 96-92.5t96-9.5l2-1q2-10 9-26.5t29-44T878-13q16-8 52.5-12.5t87.5-1T1124.5-11t111 43.5T1335 110t72 121.5 30 171.5q0 13-2 41-10 113-17 164 28 35 28 120 0 110-89 150-30 77-66 119-62 70-62 127 0 77 40.5 151t113.5 110q59 30 183.5 75t222.5 85.5 132 74.5q22 22 38 54.5t23.5 63 11.5 58 6 43.5l1 17H0zM1711 411V235h263V-28h177v263h262v176h-262v263h-177V411h-263z"/></svg>