<?xml version="1.0" encoding="utf-8"?>
<svg width="2304" height="1792" xmlns="http://www.w3.org/2000/svg"><path d="M-54 1765q0-17 2-45.5t21.5-91.5 53.5-98q34-34 132.5-74.5T378 1370t183-75q73-37 113.5-110.5T715 1033q0-54-63-125-36-40-64-119-89-37-89-151 0-83 29-120-12-77-20-164-2-16-4.5-42.5t5.5-91T541 112q38-67 96-92.5t96-9.5l2-1q2-10 9-26.5t29-44 51-42.5q16-8 52.5-12.5t87.5-1 106.5 15.5 111 43.5T1281 19t72 121.5 30 171.5q0 13-2 41-10 113-17 164 28 35 28 120 0 110-89 150-30 77-66 119-62 70-62 127 0 77 40.5 151t113.5 110q59 30 183.5 75t222.5 85.5 132 74.5q22 22 38 54.5t23.5 63 11.5 58 6 43.5l1 17H-54zM1657 320V144h263v-263h177v263h262v176h-262v263h-177V320h-263z" fill="undefined"/></svg>