<svg width="1792" height="1792" xmlns="http://www.w3.org/2000/svg"><path d="M128 1390V219q0-80 57-137t137-57h1145q80 0 137.5 57t57.5 137v131h192q80 0 137 57t57 137v846q0 80-57 137t-137 57H322q-80 0-137-57t-57-137zm179-88q1 41 29.5 70t69.5 31h1061q13 0 15-13V309q0-43-30.5-73t-73.5-30H411q-43 0-73 29.5T307 307v995zm151-143q0-37 27-63.5t64-26.5h272q37 0 63.5 26.5T911 1159t-26.5 63.5T821 1249H549q-37 0-64-26.5t-27-63.5zm0-354q0-37 27-64t64-27h692q37 0 63.5 26.5T1331 805q0 37-26.5 63.5T1241 895H549q-37 0-64-26.5T458 805zm0-355q0-37 26.5-63.5T549 360h692q37 0 63.5 26t26.5 64q0 37-26.5 64t-63.5 27H549q-37 0-64-27t-27-64zm1204 853q1 41 28.5 69.5t68.5 30.5h11q41-2 69-31t28-71V544q0-15-13-15h-192v774z" fill="undefined"/></svg>