<svg width="64" height="64" viewBox="0 0 1920 1920" xmlns="http://www.w3.org/2000/svg"><path d="M0 1481V310q0-80 57-137t137-57h1145q80 0 137.5 57t57.5 137v131h192q80 0 137 57t57 137v846q0 80-57 137t-137 57H194q-80 0-137-57T0 1481zm179-88q1 41 29.5 70t69.5 31h1061q13 0 15-13V400q0-43-30.5-73t-73.5-30H283q-43 0-73 29.5T179 398v995zm151-143q0-37 27-63.5t64-26.5h272q37 0 63.5 26.5T783 1250t-26.5 63.5T693 1340H421q-37 0-64-26.5t-27-63.5zm0-354q0-37 27-64t64-27h692q37 0 63.5 26.5T1203 896q0 37-26.5 63.5T1113 986H421q-37 0-64-26.5T330 896zm0-355q0-37 26.5-63.5T421 451h692q37 0 63.5 26t26.5 64q0 37-26.5 64t-63.5 27H421q-37 0-64-27t-27-64zm1204 853q1 41 28.5 69.5t68.5 30.5h11q41-2 69-31t28-71V635q0-15-13-15h-192v774z"/></svg>