<svg width="64" height="64" viewBox="0 0 1920 1920" xmlns="http://www.w3.org/2000/svg"><path d="M0 1468.5Q0 1315 109 1206q108-107 262-107 89 0 166 39l657-654q-41-79-41-167 0-151 107-257t259-106q151 0 257.5 106T1883 317t-106.5 257.5T1519 681q-79 0-154-35l-661 658q54 102 35.5 221.5T634 1730q-108 108-263 108-152 0-262-108Q0 1622 0 1468.5zM48 145L189 4l733 333 69 29-39 37-112 111-158-76-207 207 76 159-141 141zm129 1323q0 81 56 137 59 57 138 57 82 0 139-57 56-56 56-137t-56-137q-57-57-139-57-79 0-138 57-56 56-56 137zm87-1240l136 280 145-144zm1066 89q0 77 55.5 132.5T1519 505t133-55.5 55-132.5q0-78-55-132.5T1519 130t-133.5 54.5T1330 317z"/></svg>