<?xml version="1.0" encoding="utf-8"?>
<svg width="2048" height="1792" xmlns="http://www.w3.org/2000/svg"><path d="M86 211Q86 59 193.5-48T453-155q119 0 215 70.5T800 96h317q-28 120 1 237H798q-29 80-89 139.5T570 558v324q-118-27-236 0V558q-109-37-178.5-132.5T86 211zm5.5 1240.5Q66 1355 91.5 1259t97.5-168q87-87 207.5-104.5T620 1023l654-650q-37-76-37-162 0-151 107.5-258.5T1604-155q151 0 258 107t107 259-107 259.5T1604 578q-88 0-164-39l-654 651q53 103 34.5 223T716 1619q-109 109-263.5 109T189 1619q-72-71-97.5-167.5zM263 211q0 78 55.5 134T453 401q78 0 133-56t55-134-55-133.5T453 22q-79 0-134.5 55.5T263 211z" fill="undefined"/></svg>