<svg width="64" height="64" viewBox="0 0 1920 1920" xmlns="http://www.w3.org/2000/svg"><path d="M0 896q0-195 76-373t204.5-306.5T587 12t373-76 373 76 306.5 204.5T1844 523t76 373-76 373-204.5 306.5T1333 1780t-373 76-373-76-306.5-204.5T76 1269 0 896zm469 308q0 83 58 141t140 58h410q82 0 140-58t58-141v-97q-30-14-53-32l-89-64-87 63q-81 58-155 58-86 0-134-67-55-73-22-193l36-112 3-6-89-64q-49-35-80-82-60 20-98 71.5T469 796v408zm238.5-702.5Q697 536 763 584l3 1 2 2 162 115-63 190v1l-1 1q-26 78 3.5 100t96.5-26l2-3 165-117 161 116 2 2 2 2q67 48 96.5 26t3.5-100v-2l-63-190 162-115 4-3q67-48 56.5-82.5T1464 467h-207l-63-190v-1q-26-78-63-78t-62 78v1l-63 190H799q-81 0-91.5 34.5z"/></svg>