<svg width="64" height="64" viewBox="0 0 1920 1920" xmlns="http://www.w3.org/2000/svg"><path d="M17 1014Q-3 810 65 618.5T278 283Q408 153 577 85t340-68 340.5 68T1557 283t198 299 68 340-68 340.5-198 299.5q-127 127-293.5 195.5T917 1826q-26 0-78-4l-47-4q-80 22-159 22-65 0-148-19-93 31-194 8t-174-96q-70-70-94.5-165.5T25 1382q-48-166-4-336zm156 165q104-71 232.5-59T626 1224q89 89 103.5 213.5T680 1666q165-17 279-134 136-134 136-326T959 880Q823 744 633 744q-191 0-327 136-124 122-133 299zm35-441q180-165 425-165 123 0 239.5 47T1080 758q118 118 162.5 275.5t7 316.5-148.5 282q192-49 334-191 103-103 159-238t56-281-55.5-280.5T1435 403t-237-159-281-55q-146 0-280.5 55.5T399 403Q258 544 208 738z"/></svg>