<?xml version="1.0" encoding="utf-8"?>
<svg width="1792" height="1792" xmlns="http://www.w3.org/2000/svg"><path d="M128 605V322q0-67 34.5-124t91.5-89q27 74 114 137l88 63-2 5-39 120q-36 127 23 207 52 72 144 72 76 0 165-63l93-66 64 47q-10 94-80 158t-166 64H376q-103 0-175.5-72.5T128 605zM386 43q11-36 97-35h221l67-205q29-84 67.5-84t66.5 84h1L973 8h220q89 0 100.5 35.5T1233 131l-4 4-173 124 66 203 1 1v1q28 83-3.5 106.5T1017 542l-2-1-2-3-173-124-176 125-2 3q-71 52-103 28.5T555 464l2-2v-1l66-203-173-123-2-2-2-2q-71-52-60-88zm424 1255q0-126 49-240.5t132-197T1189 729t241-49 240.5 49 197 131.5 131.5 197 49 240.5-49 241-131.5 198-197 132-240.5 49-241-49-198-132-132-198-49-241z" fill="undefined"/></svg>