<svg width="64" height="64" viewBox="0 0 1920 1920" xmlns="http://www.w3.org/2000/svg"><path d="M7 302Q7 150 114.5 43T374-64q119 0 215 70.5T721 187h317q-28 120 1 237H719q-29 80-89 139.5T491 649v324q-118-27-236 0V649Q146 612 76.5 516.5T7 302zm5.5 1240.5q-25.5-96.5 0-192.5t97.5-168q87-87 207.5-104.5T541 1114l654-650q-37-76-37-162 0-151 107.5-258.5T1525-64q151 0 258 107t107 259-107 259.5T1525 669q-88 0-164-39l-654 651q53 103 34.5 223T637 1710q-109 109-263.5 109T110 1710q-72-71-97.5-167.5zM184 302q0 78 55.5 134T374 492q78 0 133-56t55-134-55-133.5T374 113q-79 0-134.5 55.5T184 302z"/></svg>