<svg width="64" height="64" viewBox="0 0 1920 1920" xmlns="http://www.w3.org/2000/svg"><path d="M0 1482q0-155 109-264t264-109 264 109 109 264-109.5 264.5T373 1856t-263.5-109.5T0 1482zm182 0q0 79 56 135t135 56 134.5-56 55.5-135-55.5-135-134.5-56-135 56-56 135zm449-429l474-483-97-95q-23-22-18-42.5t35-27.5l529-129q20-3 31 8 5 5 7 12.5t2 12.5l-1 6-119 531q-6 30-25.5 35.5T1406 865l-132-129-474 483q-37-58-74-94-35-35-95-72zm566-872q40-109 135.5-177T1547-64q155 0 264 109t109 263q0 112-60.5 204T1701 648l66-294 1-10q8-53-7-102.5t-51-84.5q-61-59-149-59h-2l-37 3-8 3z"/></svg>