<svg width="2048" height="1792" xmlns="http://www.w3.org/2000/svg"><path d="M84 1524.5Q84 1371 193 1262t261-109q88 0 166 40l656-656q-41-82-41-168 0-151 107-258.5T1601 3q151 0 257.5 107T1965 369q0 151-106.5 258T1601 734q-80 0-155-35l-659 660q53 104 34.5 223T717 1787q-109 109-263 109-152 0-261-109T84 1524.5zM89.5 295Q65 194 125 135l372-372 1 2q42-39 135.5-2.5T818-110q73 73 112 151t31 130v435q0 36-26 62t-62 26q-37 0-63-26t-26-62V373L573 583q-39 42-106 42-124 0-253-131-100-98-124.5-199zM259 1524q0 81 58 139 57 57 137 57 82 0 139-57 56-58 56-139t-56-137q-56-57-139-57-81 0-137 57-58 56-58 137zm2-1276q7 50 78 121t121 78l270-270q-52-33-111-88-55-59-88-111zm1151 121q0 78 55.5 133.5T1601 558t133-55.5 55-133.5-55-133-133-55-133.5 55-55.5 133z" fill="undefined"/></svg>