<?xml version="1.0" encoding="utf-8"?>
<svg width="2048" height="1792" xmlns="http://www.w3.org/2000/svg"><path d="M82.5 1377.5q0-153.5 109-262.5 108-107 262-107 89 0 166 39l657-654q-41-79-41-167 0-151 107-257t259-106q151 0 257.5 106t106.5 257T1859 483.5 1601.5 590q-79 0-154-35l-661 658q54 102 35.5 221.5T716.5 1639q-108 108-263 108-152 0-262-108-109-108-109-261.5zM130.5 54l141-141 733 333 69 29-39 37-112 111-158-76-207 207 76 159-141 141zm129 1323q0 81 56 137 59 57 138 57 82 0 139-57 56-56 56-137t-56-137q-57-57-139-57-79 0-138 57-56 56-56 137zm87-1240l136 280 145-144zm1066 89q0 77 55.5 132.5t133.5 55.5 133-55.5 55-132.5q0-78-55-132.5t-133-54.5T1468 93.5 1412.5 226z" fill="undefined"/></svg>