<svg width="64" height="64" viewBox="0 0 1920 1920" xmlns="http://www.w3.org/2000/svg"><path d="M1 1615.5Q1 1462 110 1353t261-109q88 0 166 40l656-656q-41-82-41-168 0-151 107-258.5T1518 94q151 0 257.5 107T1882 460q0 151-106.5 258T1518 825q-80 0-155-35l-659 660q53 104 34.5 223T634 1878q-109 109-263 109-152 0-261-109T1 1615.5zM6.5 386Q-18 285 42 226l372-372 1 2q42-39 135.5-2.5T735-19q73 73 112 151t31 130v435q0 36-26 62t-62 26q-37 0-63-26t-26-62V464L490 674q-39 42-106 42-124 0-253-131Q31 487 6.5 386zM176 1615q0 81 58 139 57 57 137 57 82 0 139-57 56-58 56-139t-56-137q-56-57-139-57-81 0-137 57-58 56-58 137zm2-1276q7 50 78 121t121 78l270-270q-52-33-111-88-55-59-88-111zm1151 121q0 78 55.5 133.5T1518 649t133-55.5 55-133.5-55-133-133-55-133.5 55-55.5 133z"/></svg>