<svg width="1792" height="1792" xmlns="http://www.w3.org/2000/svg"><path d="M128 1391q0-155 109-264t264-109 264 109 109 264-109.5 264.5T501 1765t-263.5-109.5T128 1391zm182 0q0 79 56 135t135 56 134.5-56 55.5-135-55.5-135-134.5-56-135 56-56 135zm449-429l474-483-97-95q-23-22-18-42.5t35-27.5l529-129q20-3 31 8 5 5 7 12.5t2 12.5l-1 6-119 531q-6 30-25.5 35.5T1534 774l-132-129-474 483q-37-58-74-94-35-35-95-72zm566-872q40-109 135.5-177t214.5-68q155 0 264 109t109 263q0 112-60.5 204T1829 557l66-294 1-10q8-53-7-102.5T1838 66q-61-59-149-59h-2l-37 3-8 3z" fill="undefined"/></svg>