<svg width="64" height="64" viewBox="0 0 1920 1920" xmlns="http://www.w3.org/2000/svg"><path d="M7 386q-25-101 35-160l372-372v2q42-39 136-2.5T735-19q73 73 112 151t31 130v435q0 36-26 62t-63 26q-36 0-62-26t-26-62V464L490 674q-41 41-106 41-40 0-86-17-88-33-168-113Q32 487 7 386zm171-47q7 50 78 121 69 70 120 78l271-270q-50-30-111-88-55-59-88-111zm491 1041q0-123 48-235.5T846 951t193.5-129 235.5-48q165 0 304.5 81t221 220.5T1882 1380t-81.5 305-221 221-304.5 81q-123 0-235.5-48T846 1810t-129-193.5-48-236.5z"/></svg>