<?xml version="1.0" encoding="utf-8"?>
<svg width="2048" height="1792" xmlns="http://www.w3.org/2000/svg"><path d="M130.5 923q-20-204 48-395.5t213-335.5q130-130 299-198t340-68T1371-6t299.5 198 198 299 68 340-68 340.5-198 299.5q-127 127-293.5 195.5t-346.5 68.5q-26 0-78-4l-47-4q-80 22-159 22-65 0-148-19-93 31-194 8t-174-96q-70-70-94.5-165.5t2.5-185.5q-48-166-4-336zm156 165q104-71 232.5-59t220.5 104q89 89 103.5 213.5T793.5 1575q165-17 279-134 136-134 136-326t-136-326q-136-136-326-136-191 0-327 136-124 122-133 299zm35-441q180-165 425-165 123 0 239.5 47t207.5 138q118 118 162.5 275.5t7 316.5-148.5 282q192-49 334-191 103-103 159-238t56-281-55.5-280.5T1548.5 312t-237-159-281-55q-146 0-280.5 55.5T512.5 312q-141 141-191 335z" fill="undefined"/></svg>