<?xml version="1.0" encoding="utf-8"?>
<svg width="2048" height="1792" xmlns="http://www.w3.org/2000/svg"><path d="M100 245q0-151 106-258 107-107 258.5-107T723-13q70 70 94.5 164t0 188T723 503Q616 610 464.5 610T206 503Q100 396 100 245zm544 1119.5q0-151.5 106-258.5 107-106 258.5-106t258.5 106q70 70 94.5 164.5t0 188.5-94.5 164-164.5 94.5-188.5 0-164-94.5q-106-107-106-258.5zM1219 245q0-151 107-258 106-107 257.5-107T1842-13t107 258-107 258-258.5 107T1326 503q-107-107-107-258z" fill="undefined"/></svg>