<?xml version="1.0" encoding="utf-8"?>
<svg width="1792" height="1792" xmlns="http://www.w3.org/2000/svg"><path d="M128 1451v-246q0-3 3-3h114q3 0 3 4v245q0 4-3 4H131q-3 0-3-4zm0-347V857q0-2 3-2h114q3 0 3 3v246q0 3-3 3H131q-3 0-3-3zm0-346V511q0-4 3-4h114q3 0 3 4v246q0 3-3 3H131q-3 0-3-2zm0-353V158q0-4 3-4h114q3 0 3 4v245q0 5-3 5H131q-3 0-3-3zm18 1189l1-1q1-1 2-1l104-46q3 0 4 3 12 28 38 44.5t56 16.5v120q-66 0-122-36t-82-96zm0-1579v-2l1-2q26-60 82-95.5T351-120V0q-30 0-56 16.5T257 61q-1 2-4 2L149 17zm295 1598q0-3 4-3h245q5 0 5 3v114q0 3-4 3H445q-4 0-4-3v-114zM441-3v-115q0-2 4-2h245q5 0 5 2V-3q0 3-4 3H445q-4 0-4-3zm42 1088q0-113 80-193.5T755 811q113 0 193.5 80.5T1029 1085q0 112-80.5 192T755 1357t-192.5-79.5T483 1085zm180 0q0 37 27.5 64.5T755 1177q38 0 65.5-27t27.5-65-27.5-66-65.5-28q-37 0-64.5 28t-27.5 66zm131 528q0-3 4-3h245q4 0 4 3v114q0 3-4 3H798q-4 0-4-3v-114zM794-3v-115q0-2 4-2h245q4 0 4 2V-3q0 3-4 3H798q-4 0-4-3zm17 528q0-113 80.5-193.5T1085 251t193 80.5 80 193.5-80 193-193 80-193.5-80T811 525zm181 0q0 38 27.5 65t65.5 27 65-27 27-65-27-65.5-65-27.5-65.5 27.5T992 525zm150 1088q0-3 3-3h246q3 0 3 3v114q0 3-3 3h-247q-2 0-2-3v-114zm0-1616v-115q0-2 3-2h246q3 0 3 2V-3q0 3-3 3h-247q-2 0-2-3zm5 1088q0-113 80.5-193.5T1421 811q112 0 192 80.5t80 193.5-79.5 192.5T1421 1357t-193.5-80-80.5-192zm181 0q0 38 27.5 65t65.5 27q37 0 64.5-27.5t27.5-64.5q0-38-27.5-66t-64.5-28q-38 0-65.5 28t-27.5 66zm160 528q0-3 5-3h245q4 0 4 3v114q0 3-4 3h-247q-3 0-3-3v-114zm0-1616v-115q0-2 5-2h245q4 0 4 2V-3q0 3-4 3h-247q-3 0-3-3zm337 1613q30 0 56-16.5t38-44.5q1-3 4-3l104 46 3 2v3l-1 1q-26 60-82 96t-122 36v-120zm0-1610v-120q66 0 122 35.5t82 95.5l1 4q0 1-1 1t-2 1l-104 46q-3 0-4-2-12-28-38-44.5T1825 0zm103 1451v-245q0-4 3-4h114q3 0 3 3v246q0 4-3 4h-114q-3 0-3-4zm0-353V853q0-4 3-4h114q3 0 3 4v245q0 4-3 4h-114q-3 0-3-4zm0-347V505q0-3 3-3h114q3 0 3 3v247q0 2-3 2h-114q-3 0-3-3zm0-348V158q0-4 3-4h114q3 0 3 4v247q0 3-3 3h-114q-3 0-3-5z" fill="undefined"/></svg>