<?xml version="1.0" encoding="utf-8"?>
<svg width="1792" height="1792" xmlns="http://www.w3.org/2000/svg"><path d="M128 805q0-195 76-373t204.5-306.5T715-79t373-76 373 76 306.5 204.5T1972 432t76 373-76 373-204.5 306.5T1461 1689t-373 76-373-76-306.5-204.5T204 1178t-76-373zm410-410q-13 14 3 46l352 734q16 32 49.5 44.5t65.5-1.5l146-68 59 60 3 3 27 27q24 25 54 22t48-32l135-238 193-93q31-16 29.5-35.5T1669 831L585 394q-34-13-47 1zm206 134q3-4 34 15l515 306q31 19 31.5 42t-29.5 36q-31 13-71.5 5.5T1155 902L769 558q-28-25-25-29z" fill="undefined"/></svg>