<svg width="1792" height="1792" xmlns="http://www.w3.org/2000/svg"><path d="M128 805q0-195 76-373t204.5-306.5T715-79t373-76 373 76 306.5 204.5T1972 432t76 373-76 373-204.5 306.5T1461 1689t-373 76-373-76-306.5-204.5T204 1178t-76-373zm181 0q0 212 104.5 391.5t283.5 284 391 104.5 391.5-104.5 284.5-284T1869 805q0-158-62-302.5t-166.5-249T1391 87t-303-62-302.5 62-249 166.5-166 249T309 805zm242-410q13-14 47-1l1083 437q22 8 30.5 20t2 25-26.5 23l-193 93-135 238q-19 29-48.5 32t-54.5-22l-26-27q-3-3-4-3l-59-60-145 68q-32 14-66 1.5t-50-44.5L554 441q-16-32-3-46zm207 134q-1 2 5 9.5t19 19.5l386 344q28 24 68.5 31.5t70.5-5.5q31-13 30.5-36t-32.5-42L792 544q-16-9-24.5-13t-9.5-2z" fill="undefined"/></svg>