<svg width="64" height="64" viewBox="0 0 1920 1920" xmlns="http://www.w3.org/2000/svg"><path d="M0 896q0-195 76-373t204.5-306.5T587 12t373-76 373 76 306.5 204.5T1844 523t76 373-76 373-204.5 306.5T1333 1780t-373 76-373-76-306.5-204.5T76 1269 0 896zm410-410q-13 14 3 46l352 734q16 32 49.5 44.5t65.5-1.5l146-68 59 60 3 3 27 27q24 25 54 22t48-32l135-238 193-93q31-16 29.5-35.5T1541 922L457 485q-34-13-47 1zm206 134q3-4 34 15l515 306q31 19 31.5 42t-29.5 36q-31 13-71.5 5.5T1027 993L641 649q-28-25-25-29z"/></svg>