<?xml version="1.0" encoding="utf-8"?>
<svg width="1792" height="1792" xmlns="http://www.w3.org/2000/svg"><path d="M128 1333V285q0-72 53.5-123.5T309 110h120V81q0-73 52.5-124T608-94h960q74 0 126.5 51T1747 81v41q0-2 1.5-5.5t1.5-6.5h117q74 0 127.5 51.5T2048 285v1048q0 72-53 123t-128 51h-120v20q0 73-52.5 124.5T1568 1703H608q-74 0-126.5-51.5T429 1527v-20H309q-75 0-128-51t-53-123zm421 194q0 23 17 39.5t42 16.5h960q25 0 43-16.5t18-39.5V833q-43-24-92-24H638q-47 0-89 24v694zm0-1254q31 12 60 12h960q25 0 60-11V81q0-23-18-39t-43-16H608q-25 0-42 16t-17 39v192z" fill="undefined"/></svg>