<svg width="2304" height="1792" xmlns="http://www.w3.org/2000/svg"><path d="M72 1453v-356h470q56 0 105-20 65 173 202 298-145 78-307 78H72zm0-940V158h470q132 0 252 51.5t206.5 138 138 206.5 51.5 252q0 120 85.5 205.5T1482 1097h173q3 0 8 .5t8 .5V990q0-32 19-43.5t45 5.5l480 295q17 11 17 28 0 7-4 14.5t-8 10.5l-5 4-480 294q-26 17-45 6t-19-43v-110q-3 0-8 1t-8 1h-173q-132 0-252-51.5t-206.5-138-138-206T834 806q0-121-85.5-207T542 513H72zm1102-278q140-77 308-77h173q3 0 8 .5t8 .5V49q0-32 19-43.5t45 5.5l480 296q17 12 17 28 0 8-4 15t-8 10l-5 3-480 295q-26 17-45 6t-19-43V512q-3 0-8 .5t-8 .5h-173q-53 0-105 21-66-175-203-299z" fill="undefined"/></svg>