<svg width="2304" height="1792" xmlns="http://www.w3.org/2000/svg"><path d="M33.5 622.5q10-17.5 41-17.5h139q51-242 214.5-429.5T822.5-96l8-3q57-18 68-21 12-4 19-6l61-13q6-1 17-3t16-2l24.5-3.5 27.5-3.5q34-3 70-3 4 0 9.5-.5t8.5-.5h3q332 2 588 203 49 37 56 98.5t-31 110.5q-37 49-98.5 56t-110.5-31q-179-139-407-139-30 0-61 3-2 0-20 3-12 1-39 5-4 0-8.5 1t-10 2.5-8.5 2.5l-26 7q-6 1-35 9l-7 3q-148 52-257 164.5T523.5 605h88q31 0 41 17.5t-6 42.5l-276 453q-12 16-28 16-7 0-13.5-4t-9.5-8l-3-4-277-453q-16-25-6-42.5zm474 839q-7-61.5 31-109.5 37-49 98.5-56.5t110.5 30.5q180 140 407 140 29 0 61-3 3 0 10-.5t10-1.5q6-1 12.5-2t14.5-2 12-2q3-1 8.5-2.5t10-2.5 8.5-1l26-7q5-2 17-5t18-5q4-2 6-2 148-52 257.5-165t156.5-262h-89q-30 0-40-17t6-42l276-454q12-16 28-16 7 0 13.5 4t9.5 8l3 4 277 454q16 25 6 42t-41 17h-139q-52 243-215.5 430t-393.5 271l-8 3q-22 8-68 22-3 0-9 2t-10 3q-30 9-62 13-5 1-16 3t-16 3l-52 7q-10 1-22 1.5t-26 1-22 .5q-4 0-9.5 1t-8.5 1l-2-2-2 2v-2q-329 0-587-203-49-37-56-98.5z" fill="undefined"/></svg>