<svg width="64" height="64" viewBox="0 0 1920 1920" xmlns="http://www.w3.org/2000/svg"><path d="M4.5 713Q15 696 45 696h141q35-161 122-301.5T517.5 153 798-6t328-58q195 0 372.5 76T1805 216t205 305.5 76 372.5-76 373-205 307-306.5 205.5T1126 1856q-330 0-591-204-49-38-56.5-99.5T509 1443q38-49 99.5-56.5T718 1417q182 140 408 140 180 0 332-89t240.5-241.5T1787 894q0-134-52.5-256.5t-141-211-211-141T1126 233q-219 0-392.5 129.5T495 696h89q30 0 40 17t-6 42l-276 454q-12 16-28 16-7 0-13.5-4t-9.5-8l-3-4L10 755q-16-25-5.5-42z"/></svg>