<svg width="1792" height="1792" xmlns="http://www.w3.org/2000/svg"><path d="M128 1656v-586q0-44 31.5-75.5T234 963h587q43 0 74.5 31.5T927 1070v586q0 44-31.5 75t-74.5 31H234q-44 0-75-31t-31-75zm0-1117V-47q0-43 31-74.5t75-31.5h587q43 0 74.5 31.5T927-47v586q0 44-31.5 75.5T821 646H234q-43 0-74.5-31.5T128 539zm181 1043h437v-438H309v438zm0-1117h437V27H309v438zm940 1191v-586q0-44 31.5-75.5T1355 963h587q43 0 74.5 31.5t31.5 75.5v586q0 44-31 75t-75 31h-587q-43 0-74.5-31t-31.5-75zm0-1117V-47q0-43 31.5-74.5T1355-153h587q44 0 75 31.5t31 74.5v586q0 44-31.5 75.5T1942 646h-587q-43 0-74.5-31.5T1249 539zm181 1043h439v-438h-439v438zm0-1117h439V27h-439v438z" fill="undefined"/></svg>