<svg width="64" height="64" viewBox="0 0 1920 1920" xmlns="http://www.w3.org/2000/svg"><path d="M0 711q2-44 30-85 31-47 80.5-71.5T210 534q6 0 17 2 84 8 154-14 189-61 489-361Q981 50 1129.5 11t296.5 0 259 150 150 259.5 0 296.5-150 259q-83 83-147 157t-104 129.5-67.5 106-39.5 84.5-17 68-4 54 3 43q2 12 2 18 4 50-21 100t-71 81q-41 27-85 29.5t-95-12.5q-1 0-21.5-5t-41.5-11-59-21-76.5-33-90.5-49-104-68-115.5-90.5T405 1441q-56-56-104.5-112t-84-105-65-95-50-86.5-35.5-74-25-63-15-48-9-34.5-4-17q-15-51-13-95zm201 134q10 61 48 137.5T356.5 1151 514 1331q181 180 349 266t226 27q43-46 4-156.5T949 1221q-16 22-29 35-68 67-165 67t-165-67q-68-68-68-166t68-166q13-11 34-27-136-105-246-144.5T222 756q-31 28-21 89z"/></svg>