<svg width="1792" height="1792" xmlns="http://www.w3.org/2000/svg"><path d="M128 800q0-77 15-169 102 7 193.5-40T480 453q52-94 47-196T465 70Q597-44 773-106q47 85 131 135.5T1088 80t183.5-50.5T1402-106q174 62 308 176-44 81-44 174.5t48 176.5q49 85 133 132t179 47q22 101 22 200 0 66-14 153-92 2-172.5 49.5T1733 1133q-51 90-48.5 188.5T1739 1503q-135 124-298 190-47-86-131.5-137t-184.5-51q-107 0-195.5 57.5T798 1715q-169-54-313-169 57-84 61.5-185.5T498 1165q-54-95-150.5-142.5T146 987q-18-84-18-187zm600 0q0 149 105.5 254.5T1088 1160t254.5-105.5T1448 800t-105.5-254.5T1088 440 833.5 545.5 728 800z" fill="undefined"/></svg>