<svg width="64" height="64" viewBox="0 0 1920 1920" xmlns="http://www.w3.org/2000/svg"><path d="M0 891q0-77 15-169 102 7 193.5-40T352 544q52-94 47-196t-62-187Q469 47 645-15q47 85 131 135.5T960 171t183.5-50.5T1274-15q174 62 308 176-44 81-44 174.5t48 176.5q49 85 133 132t179 47q22 101 22 200 0 66-14 153-92 2-172.5 49.5T1605 1224q-51 90-48.5 188.5T1611 1594q-135 124-298 190-47-86-131.5-137T997 1596q-107 0-195.5 57.5T670 1806q-169-54-313-169 57-84 61.5-185.5T370 1256q-54-95-150.5-142.5T18 1078Q0 994 0 891zm600 0q0 149 105.5 254.5T960 1251t254.5-105.5T1320 891t-105.5-254.5T960 531 705.5 636.5 600 891z"/></svg>