<?xml version="1.0" encoding="utf-8"?>
<svg width="1792" height="1792" xmlns="http://www.w3.org/2000/svg"><path d="M128 786q0-68 48.5-116T293 622h705L771 395q-48-48-48-116t48-117q49-48 117.5-48t116.5 48l506 508q49 48 49 116t-49 116l-496 497q-48 48-116.5 48T782 1399t-48-116 48-117l216-215H293q-68 0-116.5-48.5T128 786zm1192 814q0-68 48.5-116.5T1485 1435h147q36 0 61.5-25t25.5-61V259q0-35-25.5-60t-61.5-25h-147q-68 0-116.5-48.5T1320 9t48.5-116 116.5-48h147q173 0 294.5 121T2048 259v1090q0 173-122 294.5T1632 1765h-147q-68 0-116.5-48.5T1320 1600z" fill="undefined"/></svg>