<?xml version="1.0" encoding="utf-8"?>
<svg width="1792" height="1792" xmlns="http://www.w3.org/2000/svg"><path d="M128 1349q0 172 121.5 294T543 1765h148q68 0 116.5-48.5T856 1600t-48.5-116.5T691 1435H543q-35 0-60.5-25t-25.5-61V259q0-35 25.5-60t60.5-25h148q68 0 116.5-48.5T856 9t-48.5-116T691-155H543q-172 0-293.5 121T128 259v1090zm488-516q0-68 48.5-116T781 669h705l-225-227q-49-48-49-116.5t49-116.5q48-48 116-48t116 48l507 508q48 48 48 116t-48 116l-497 497q-48 48-116 48t-117-48q-48-48-48-116t49-117l215-215H781q-67 0-116-49t-49-116z" fill="undefined"/></svg>