<svg width="64" height="64" viewBox="0 0 1920 1920" xmlns="http://www.w3.org/2000/svg"><path d="M0 896q0-195 76-373t204.5-306.5T587 12t373-76 373 76 306.5 204.5T1844 523t76 373-76 373-204.5 306.5T1333 1780t-373 76-373-76-306.5-204.5T76 1269 0 896zm337 176q0 23 17 34.5t37 8.5q18-4 25-12.5t7-30.5V904q0-18-12-30.5T381 861t-31 12.5-13 30.5v168zm134 72q0 16 12 25t30 9q19 0 31.5-9t12.5-25V753q0-18-13-31t-31-13q-17 0-29.5 13T471 753v391zm132 18q0 33 44 33 42 0 42-33V804q0-18-12.5-30T647 762q-18 0-31 12t-13 30v358zm134 2q0 31 42 31 44 0 44-31V585q0-48-30-55-19-5-37.5 10.5T737 585v579zm135 14q-2 12 11 17h503q82 0 139-56.5t58-138.5q0-81-57.5-138.5T1386 804q-37 0-75 16-11-133-110-224t-233-91q-40 0-78 9-18 7-18 36v628z"/></svg>