<?xml version="1.0" encoding="utf-8"?>
<svg width="2304" height="1792" xmlns="http://www.w3.org/2000/svg"><path d="M78 1186q0 40 29 60.5t62 14.5q31-6 43.5-22t12.5-53V896q0-31-21.5-52.5T151 822q-30 0-51.5 21.5T78 896v290zm230 124q0 29 20.5 43.5T381 1368q33 0 53.5-14.5T455 1310V634q0-30-21.5-51.5T381 561q-30 0-51.5 21.5T308 634v676zm229 32q0 29 21 43.5t54 14.5q32 0 52.5-14.5T685 1342V725q0-31-21.5-53T612 650q-31 0-53 22t-22 53v617zm230 3q0 55 74 55t74-55V345q0-84-51-95-33-8-65 19t-32 76v1000zm234 29V286q0-52 31-62 67-16 133-16 153 0 285 72t213.5 196.5T1758 751q61-26 130-26 140 0 239.5 99t99.5 238q0 140-99.5 239t-238.5 98h-870q-9-3-13.5-11t-4.5-14z" fill="undefined"/></svg>