<?xml version="1.0" encoding="utf-8"?>
<svg width="1792" height="1792" xmlns="http://www.w3.org/2000/svg"><path d="M128 805q1-61 44.5-104.5T277 657h262q61 0 105 43.5T688 805t-44 104.5T539 953H277q-62 0-105.5-43.5T128 805zm238 574q0-61 44-104l187-186q43-43 104-43.5t104 42.5q43 44 43 105t-43 104l-187 186q-43 43-104 43t-104-43q-44-43-44-104zm0-1148q0-61 43-105 43-43 104.5-43T618 126l187 186q43 44 43 105t-43 104-104 43-104-43L409 335q-43-43-43-104zm575 1386v-264q0-61 43.5-104t104.5-43 104.5 43 43.5 104v264q0 61-43.5 104.5T1089 1765t-104.5-43.5T941 1617zm0-1361V-7q0-61 43-104.5t104-43.5q62 0 105.5 43.5T1237-7v263q0 61-43.5 104.5T1088 405q-61 0-104-44t-43-105zm389 937q0-61 43-105 43-43 104-43t104 43l187 186q43 43 43 104.5t-43 104.5q-44 43-105 43t-104-43l-186-186q-43-43-43-104zm0-776q0-61 43-105l186-186q43-43 104-43t104 43q43 44 43 105t-43 104l-186 186q-43 43-104 43t-104-43-43-104zm159 388q0-61 44-104.5t105-43.5h263q61 0 104 43.5t43 104.5-43 104.5-104 43.5h-263q-62 0-105.5-43.5T1489 805z" fill="undefined"/></svg>