<?xml version="1.0" encoding="utf-8"?>
<svg width="2304" height="1792" xmlns="http://www.w3.org/2000/svg"><path d="M-100 512q0-118 83.5-201.5T185 227q119 0 202 83.5T470 512q0 81-43 149l577 576q40-24 81-34V406q-95-23-156.5-100T867 129q0-118 83.5-201t202.5-83q118 0 201 83t83 201q0 100-61.5 177T1219 406v797q41 10 81 34l577-576q-42-69-42-149 0-119 83-202t201-83 201.5 83.5T2404 512t-83.5 202-201.5 84q-75 0-148-44l-577 577q43 68 43 148 0 119-83 202.5t-201 83.5q-119 0-202.5-83.5T867 1479q0-80 43-148L333 754q-73 44-148 44-118 0-201.5-84T-100 512z" fill="undefined"/></svg>