<svg width="64" height="64" viewBox="0 0 1920 1920" xmlns="http://www.w3.org/2000/svg"><path d="M0 603q0-118 83.5-201.5T285 318q119 0 202 83.5T570 603q0 81-43 149l577 576q40-24 81-34V497q-95-23-156.5-100T967 220q0-118 83.5-201T1253-64q118 0 201 83t83 201q0 100-61.5 177T1319 497v797q41 10 81 34l577-576q-42-69-42-149 0-119 83-202t201-83 201.5 83.5T2504 603t-83.5 202-201.5 84q-75 0-148-44l-577 577q43 68 43 148 0 119-83 202.5t-201 83.5q-119 0-202.5-83.5T967 1570q0-80 43-148L433 845q-73 44-148 44-118 0-201.5-84T0 603z"/></svg>