<svg width="64" height="64" viewBox="0 0 1920 1920" xmlns="http://www.w3.org/2000/svg"><path d="M6.5 719Q-19 655 39 617.5T226 580h495l151-456v-2q30-92 69-139t81-47q41 0 80 47t69 139l2 2 149 456h495q129 0 187 37.5t32.5 101.5T1906 858l-10 8-389 278 150 452 2 7q39 122 22.5 186.5T1600 1854q-75 0-179-77l-12-7-387-278-393 281-6 4q-107 79-180 79-65 0-81.5-65.5T384 1603l2-7 150-452-389-278-4-5-6-3Q32 783 6.5 719zM345 772l416 297-43 134-117 354 421-301 420 301-116-354-44-134 416-297h-514l-43-132-119-359-163 491H345z"/></svg>