<?xml version="1.0" encoding="utf-8"?>
<svg width="2304" height="1792" xmlns="http://www.w3.org/2000/svg"><path d="M95.5 257l503-503 168 168-84 84 88 88q118-71 253-107v-208h474v208q203 53 364.5 185t254 324 92.5 409q0 193-75 368.5t-202 303-302.5 203-368.5 75.5-369-75.5-303-203-202-303-75-368.5q0-252 127-473l-92-90-83 83zm454 648q0 193 95.5 357t259 260 356.5 96 357-96 259.5-260 95.5-357-95.5-356.5-259.5-259-357-95.5T904 289.5t-259 259T549.5 905zm242-266q0-49 34-84 35-35 84-35t84 35l286 286h406q49 0 83.5 35t33.5 84q0 51-34 83-36 36-83 36h-454q-8 0-24-2l-10-4-12-3q-3-1-6.5-3.5t-4.5-2.5l-9-6q-7-3-19-15l-321-321q-34-34-34-83z" fill="undefined"/></svg>