<svg width="64" height="64" viewBox="0 0 1920 1920" xmlns="http://www.w3.org/2000/svg"><path d="M0 211q0-75 121-138T451-27t455-37q247 0 456 37t330 100 121 138q-21 165-79 466t-113.5 565-58.5 283q-13 74-81.5 138t-165 105-204.5 64.5-205 23.5-205-23.5-204-64.5-164.5-105-81.5-138q-8-43-67-328.5t-114-570T0 211zm259 458l77 375 178-154zm11-397q0 65 186 110.5T906 428q265 0 451-45.5T1543 272q0-66-186.5-112T906 114t-450 46-186 112zm113 1000l43 210 101-87zm16-638l207 178 146-127q-194-12-353-51zm11 504l207 179 197-169-208-179zm101 428q146 62 304 77l-198-169zm185-676l208 179 197-169-204-183zm13 505l209 181 194-171-208-179zm286-247l207 178 189-164-201-182zm29 493q145-17 275-73l-96-84zm17-955l150 136 217-187q-162 41-367 51zm239 216l191 172 84-408zm14 503l92 80 40-196z"/></svg>