<svg width="2048" height="1792" xmlns="http://www.w3.org/2000/svg"><path d="M118 120q0-75 121-138t330-100 455-37q247 0 456 37t330 100 121 138q-21 165-79 466t-113.5 565-58.5 283q-13 74-81.5 138t-165 105-204.5 64.5-205 23.5-205-23.5-204-64.5-164.5-105-81.5-138q-8-43-67-328.5t-114-570T118 120zm259 458l77 375 178-154zm11-397q0 65 186 110.5t450 45.5q265 0 451-45.5T1661 181q0-66-186.5-112T1024 23 574 69 388 181zm113 1000l43 210 101-87zm16-638l207 178 146-127q-194-12-353-51zm11 504l207 179 197-169-208-179zm101 428q146 62 304 77l-198-169zm185-676l208 179 197-169-204-183zm13 505l209 181 194-171-208-179zm286-247l207 178 189-164-201-182zm29 493q145-17 275-73l-96-84zm17-955l150 136 217-187q-162 41-367 51zm239 216l191 172 84-408zm14 503l92 80 40-196z" fill="undefined"/></svg>