<svg width="1792" height="1792" xmlns="http://www.w3.org/2000/svg"><path d="M190 1583V778q0-29 20.5-48.5T261 710h920V405q0-130-86-221-85-87-199-87t-199 87q-85 90-85 221v78H353v-78q0-112 41.5-214T510 11q73-78 173.5-122T896-155t213 44 174 122q74 78 115 180t41 214v305h93q30 0 50.5 19.5T1603 778v805q0 26-16.5 39t-54.5 29q-20 9-71 25t-135.5 37.5T1125 1750t-229 15q-317 0-635-114-34-11-52.5-26.5T190 1583zm383-349.5q0 24.5 17 41.5l175 171q17 17 42 17 27 0 42-17l359-351q18-18 18-42.5t-18-42.5q-17-17-42-17t-42 17l-317 310-131-128q-18-18-43-18t-43 18q-17 17-17 41.5z" fill="undefined"/></svg>