<svg width="64" height="64" viewBox="0 0 1920 1920" xmlns="http://www.w3.org/2000/svg"><path d="M0 1674V869q0-29 20.5-48.5T71 801h920V496q0-130-86-221-85-87-199-87t-199 87q-85 90-85 221v78H163v-78q0-112 41.5-214T320 102q73-78 173.5-122T706-64t213 44 174 122q74 78 115 180t41 214v305h93q30 0 50.5 19.5T1413 869v805q0 26-16.5 39t-54.5 29q-20 9-71 25t-135.5 37.5T935 1841t-229 15q-317 0-635-114-34-11-52.5-26.5T0 1674zm383-349.5q0 24.5 17 41.5l175 171q17 17 42 17 27 0 42-17l359-351q18-18 18-42.5t-18-42.5q-17-17-42-17t-42 17l-317 310-131-128q-18-18-43-18t-43 18q-17 17-17 41.5z"/></svg>