<svg width="64" height="64" viewBox="0 0 1920 1920" xmlns="http://www.w3.org/2000/svg"><path d="M0 896q0-196 76-373.5t204.5-306T586.5 12 960-64q195 0 373 76t306.5 204.5 204.5 306 76 373.5q0 195-76 373t-204.5 306.5T1333 1780t-373 76q-196 0-373.5-76t-306-204.5T76 1269 0 896zm240 0q0 196 96.5 361.5t262.5 262 361 96.5q196 0 361.5-96.5t262-262T1680 896q0-195-96.5-361t-262-262.5T960 176q-146 0-279.5 57t-230 153.5-153.5 230T240 896zm554-403q-7-72 39-128t119-63q72-7 128 39t63 118q2 18 0 34l-55 501q-4 49-42.5 80.5T957 1101q-43-4-73.5-34.5T848 994zm24 843q0-64 45-106 41-42 105.5-42t105.5 42q45 42 45 106t-45 106q-42 45-106 45-63 0-105-45-45-42-45-106z"/></svg>