<svg width="64" height="64" viewBox="0 0 1024 1024" xmlns="http://www.w3.org/2000/svg"><path d="M716.984 523.1c-6.697-26.481-40.407-47.391-65.741-35.144l-98.284 44.524v-175.8L725.667 85.463c12.534-19.804 7.7-46.06-12.472-58.757-19.927-12.472-45.875-6.676-57.078 12.698L511.385 269.906l-87.265.225c-5.591 0-11.141.901-16.753 3.113l-150.856 58.757-77.722-117.043c-12.78-19.579-39.199-25.375-59.126-12.698s-25.743 39.158-12.964 58.962l96.993 145.961c10.977 16.916 34.038 24.474 53.514 16.466l111.432-42.947v192.737L217.147 909.045c-11.428 25.62 1.106 53.76 27.771 68.69s57.364 6.226 68.444-19.354l121.876-278.159c10.732 3.113 22.385 4.485 34.263 4.485 10.977 0 21.729-2.007 31.355-5.571l136.827-63.652 29.983 119.951c6.676 26.685 33.915 42.947 60.826 36.27 26.87-6.676 42.967-33.628 36.25-60.314l-47.759-188.293zM593.92 452.362v31.805C798.72 381.398 878.141 29.388 878.141-.001h-28.652c-10.752 73.421-91.73 367.124-255.57 452.362zM448.676 254.566c41.902 0 75.94-33.587 75.94-75.203 0-41.595-34.038-75.448-75.94-75.448s-75.94 33.833-75.94 75.448c0 41.615 34.038 75.203 75.94 75.203zM512 1024h40.96V684.687L512 716.8z"/></svg>