<svg width="64" height="64" viewBox="0 0 1024 1024" xmlns="http://www.w3.org/2000/svg"><path d="M839.68 20.48H184.32c-45.056 0-81.92 36.864-81.92 81.92v819.2c0 45.056 36.864 81.92 81.92 81.92h655.36c45.056 0 81.92-36.864 81.92-81.92V102.4c0-45.056-36.864-81.92-81.92-81.92zm-491.52 819.2c0 22.528-18.432 40.96-40.96 40.96h-81.92c-22.528 0-40.96-18.432-40.96-40.96V819.2c0-22.528 18.432-40.96 40.96-40.96h81.92c22.528 0 40.96 18.432 40.96 40.96v20.48zm0-163.84c0 22.528-18.432 40.96-40.96 40.96h-81.92c-22.528 0-40.96-18.432-40.96-40.96v-20.48c0-22.528 18.432-40.96 40.96-40.96h81.92c22.528 0 40.96 18.432 40.96 40.96v20.48zm0-163.84c0 22.528-18.432 40.96-40.96 40.96h-81.92c-22.528 0-40.96-18.432-40.96-40.96v-20.48c0-22.528 18.432-40.96 40.96-40.96h81.92c22.528 0 40.96 18.432 40.96 40.96V512zm245.76 327.68c0 22.528-18.432 40.96-40.96 40.96h-81.92c-22.528 0-40.96-18.432-40.96-40.96V819.2c0-22.528 18.432-40.96 40.96-40.96h81.92c22.528 0 40.96 18.432 40.96 40.96v20.48zm0-163.84c0 22.528-18.432 40.96-40.96 40.96h-81.92c-22.528 0-40.96-18.432-40.96-40.96v-20.48c0-22.528 18.432-40.96 40.96-40.96h81.92c22.528 0 40.96 18.432 40.96 40.96v20.48zm0-163.84c0 22.528-18.432 40.96-40.96 40.96h-81.92c-22.528 0-40.96-18.432-40.96-40.96v-20.48c0-22.528 18.432-40.96 40.96-40.96h81.92c22.528 0 40.96 18.432 40.96 40.96V512zm245.76 327.68c0 22.528-18.432 40.96-40.96 40.96H716.8c-22.528 0-40.96-18.432-40.96-40.96V819.2c0-22.528 18.432-40.96 40.96-40.96h81.92c22.528 0 40.96 18.432 40.96 40.96v20.48zm0-163.84c0 22.528-18.432 40.96-40.96 40.96H716.8c-22.528 0-40.96-18.432-40.96-40.96v-20.48c0-22.528 18.432-40.96 40.96-40.96h81.92c22.528 0 40.96 18.432 40.96 40.96v20.48zm0-163.84c0 22.528-18.432 40.96-40.96 40.96H716.8c-22.528 0-40.96-18.432-40.96-40.96v-20.48c0-22.528 18.432-40.96 40.96-40.96h81.92c22.528 0 40.96 18.432 40.96 40.96V512zm0-184.32c0 22.528-18.432 40.96-40.96 40.96H225.28c-22.528 0-40.96-18.432-40.96-40.96V163.84c0-22.528 18.432-40.96 40.96-40.96h573.44c22.528 0 40.96 18.432 40.96 40.96v163.84z"/></svg>