<svg width="64" height="64" viewBox="0 0 1024 1024" xmlns="http://www.w3.org/2000/svg"><path d="M984.044 743.629c10.711 3.461 19.476-2.908 19.476-14.172V657.9c0-11.264-7.926-25.19-17.592-30.966l-374.415-223.13c-9.667-5.755-17.592-19.702-17.592-30.945V122.88c0-11.264-3.441-29.02-7.66-39.485 0 0-22.344-55.46-61.44-61.645-4.178-.737-8.417-1.27-12.677-1.27h-.204c-4.936-.041-9.81.573-14.602 1.475-1.516.266-2.949.635-4.424.983-2.294.594-4.526 1.27-6.717 2.089-32.522 10.854-49.275 58.061-49.275 58.061-3.768 10.629-6.84 28.529-6.84 39.793V372.86c0 11.264-7.926 25.19-17.592 30.966L38.075 626.935c-9.667 5.775-17.592 19.702-17.592 30.966v71.557c0 11.264 8.765 17.633 19.476 14.152l370.647-120.32c10.711-3.461 19.476 2.908 19.476 14.172v195.236c0 11.264-7.373 26.03-16.384 32.788l-49.152 36.905c-9.011 6.758-16.384 21.524-16.384 32.788v47.862c0 11.264 8.868 17.94 19.681 14.828l124.416-35.738c10.813-3.113 28.549-3.113 39.363 0l124.539 35.738c10.813 3.113 19.681-3.564 19.681-14.828v-47.882c0-11.264-7.373-26.03-16.384-32.788l-49.152-36.905c-8.991-6.758-16.384-21.524-16.384-32.788V637.442c0-11.264 8.765-17.633 19.476-14.152l370.647 120.34z"/></svg>