<svg width="64" height="64" viewBox="0 0 1024 1024" xmlns="http://www.w3.org/2000/svg"><path d="M817.603 575.222c9.482 4.649 21.033 4.567 25.661-.225 4.69-4.772.635-12.308-8.97-16.732l-167.485-77.578c-9.605-4.465-25.743-5.591-35.82-2.56l-59.904 17.961c-10.179 3.052-23.45 5.55-29.471 5.55s-11.039-8.479-11.039-18.883V300.094c0-10.383 8.663-18.903 19.272-18.903h434.36c10.65 0 19.292-8.499 19.292-18.903V200.95c0-10.404-8.335-21.34-18.473-24.31L527.605 43.172c-10.138-2.97-26.767-2.97-36.905.041L38.891 176.62c-10.117 2.97-18.412 13.947-18.412 24.33v61.317c0 10.404 8.663 18.903 19.251 18.903h428.646c10.609 0 19.272 8.52 19.272 18.903v182.764c0 10.383-8.663 18.903-19.272 18.924h-7.782c-10.609.02-25.477-5.919-33.096-13.169l-103.342-98.693c-7.639-7.27-22.508-13.189-33.116-13.189h-47.8c-10.568 0-23.327-6.246-28.303-13.844-4.936-7.619-16.445-13.804-25.559-13.804s-11.919 7.127-6.185 15.892l.901 1.372c5.734 8.745 5.755 23.142.123 31.928l-51.692 80.364c-5.612 8.827-3.871 21.729 4.014 28.713l3.666 3.297c7.885 6.963 21.934 8.765 31.334 3.912l55.378-28.815c9.421-4.874 21.729-1.7 27.443 7.045l60.764 93.02c5.755 8.765 3.83 21.463-4.26 28.18l-27.791 23.204c-8.09 6.717-12.8 20.5-10.465 30.679l36.024 156.713c2.335 10.179 12.677 16.384 22.958 13.824l25.047-6.185c10.301-2.58 16.773-12.943 14.52-23.101L346.765 703.12c-2.335-10.138 4.116-20.746 14.377-23.47l61.583-16.507c10.199-2.744 27.259-4.936 37.868-4.936h7.782c10.609 0 19.272 8.499 19.272 18.842v187.945c0 10.363-8.663 18.862-19.272 18.862H39.729c-10.588 0-19.251 8.479-19.251 18.924v61.276c0 10.506 8.663 18.985 19.251 18.985h936.509c10.609 0 19.251-8.479 19.251-18.944v-61.276c0-10.445-8.663-18.924-19.251-18.924H549.865c-10.629 0-19.272-8.499-19.272-18.862V677.09c0-10.342 8.663-18.842 19.272-18.842h22.2c10.609 0 27.546 2.191 37.847 4.936l61.583 16.507c10.281 2.724 16.753 13.312 14.377 23.47l-24.33 105.984c-2.376 10.158 4.137 20.521 14.438 23.101l25.088 6.185c10.301 2.56 20.562-3.645 22.938-13.824l36.065-156.713c2.396-10.179-2.15-23.757-9.994-30.351-7.823-6.513-14.725-20.398-15.34-30.761l-3.133-55.439c-.635-10.363 6.676-15.053 16.179-10.383l69.816 34.263z"/></svg>