<svg width="64" height="64" viewBox="0 0 1024 1024" xmlns="http://www.w3.org/2000/svg"><path d="M20.48 130.683s46.223 81.92 46.223 134.267S20.746 395.1 20.746 395.1c0 12.165 8.212 16.302 17.94 9.339L189.89 295.977c30.536 22.548 90.358 52.47 133.796 77.046V460.8l96.973-55.214c31.13 7.066 62.71 11.551 96.522 11.551 203.756 0 369.172-132.198 369.172-154.235 0-19.149-124.396-121.508-290.836-147.927L410.46 20.48v102.134c-86.753 24.044-175.493 73.912-220.549 107.192L38.154 121.344c-9.708-6.984-17.674-2.826-17.674 9.339zm701.46 159.048c-23.982 0-43.459-19.722-43.459-44.093s19.476-44.073 43.459-44.073c24.023 0 43.377 19.702 43.377 44.073s-19.354 44.093-43.377 44.093zm281.58 383.651c0-12.186-7.967-16.343-17.674-9.339l-151.02 108.503c-45.056-33.28-132.895-83.149-219.771-107.172V563.199L429.26 657.673c-166.502 26.399-291.246 128.799-291.246 147.948 0 22.036 165.253 154.296 368.988 154.296 33.792 0 66.13-4.588 97.219-11.674l97.69 55.276v-87.757c43.377-24.637 102.502-54.518 132.895-77.148l150.815 108.483c9.81 7.066 17.797 2.847 17.797-9.236 0 0-46.039-77.804-46.039-130.191.02-52.388 46.141-134.287 46.141-134.287zM332.083 804.209c-24.003 0-43.397-19.681-43.397-44.093 0-24.33 19.395-43.991 43.397-43.991 23.962 0 43.418 19.681 43.418 43.991 0 24.412-19.436 44.093-43.418 44.093z"/></svg>