<svg width="64" height="64" viewBox="0 0 1024 1024" xmlns="http://www.w3.org/2000/svg"><path d="M386.15 217.027c45.916 0 82.76-37.97 82.76-84.746 0-46.797-36.844-84.767-82.76-84.767-45.568 0-82.78 37.97-82.78 84.767 0 46.776 37.212 84.746 82.78 84.746zm23.45 28.733H163.84c-40.96 0-40.96 61.44 0 61.44H409.6c40.96 0 40.96-61.44 0-61.44zm389.12 25.682c0-93.942-32.87-183.685-92.774-254.403C706.212 16.793 690.832 0 690.832 0L453.796 242.483c.717 1.065 1.761 1.782 2.212 2.99 3.584 6.533 5.571 13.804 6.39 21.053.246 2.99 0 6.083-.348 9.175-.451 6.308-1.638 12.493-4.28 18.35l-.246.594c-.573 1.065-.819 2.376-1.495 3.564-.451.84-.942 2.294-1.516 2.99-10.24 16.097-27.771 26.481-49.07 26.481H266.24v327.68l-44.79 311.972c-4.895 25.702 14.684 50.708 39.793 55.706 25.108 5.263 61.317-14.029 66.437-39.997l40.96-348.16h20.48l69.427 350.781c5.12 25.969 41.001 42.639 66.335 37.376 24.904-4.997 38.789-30.003 33.894-55.706L491.52 634.245V355.471l190.996 187.085s19.517-16.896 19.517-17.121c59.617-70.656 96.686-160.42 96.686-253.993zM756.511 307.2c-6.84 61.44-42.639 135.741-87.511 190.095-41.472-42.332-136.52-122.061-177.48-174.305V307.2h264.991zm0-61.44H489.513c49.05-61.44 140.759-144.036 187.761-192 45.076 54.272 72.643 110.08 79.237 192z"/></svg>