<svg width="64" height="64" viewBox="0 0 1024 1024" xmlns="http://www.w3.org/2000/svg"><path d="M492.831 307.2h19.784c110.592 0 174.162 107.95 174.592 179.261-.43 13.885-3.871 27.013-19.579 26.706-33.137.307-21.32-55.112-48.722-100.413-12.902-22.364-54.436-64.594-101.765-64.594h-17.428c-25.395 0-73.155 16.896-105.206 65.208-40.12 58.204-13.763 102.134-47.452 101.929-5.161.225-20.009-3.011-19.784-27.136C328.787 378.654 429.159 307.2 492.831 307.2zm15.073 614.4c41.513 0 65.536-46.223 65.536-75.141v-60.252c0-123.064 133.202-171.663 132.751-294.953.43-115.528-101.888-202.65-200.417-202.445-81.756-.205-136.54 52.511-157.614 79.811-63.263 78.213-26.378 152.76-71.107 152.76-12.698 0-24.924-7.209-25.129-32.481-1.966-122.409 99.103-251.945 258.191-252.15 128.328.225 253.133 102.42 253.133 259.154 0 145.224-128.41 175.677-128.41 303.022v54.436c0 56.033-48.722 120.033-130.683 120.381-2.99-.881-5.775-1.946-9.646-2.376-15.053-4.506-25.272-18.063-21.606-33.546 4.342-13.455 17.142-16.22 33.935-16.22h1.065zM913.592 20.48h-58.286L656.814 238.1c20.869 10.793 40.12 26.194 57.242 42.496 28.262 26.829 45.199 60.416 58.04 96.584l231.424-231.178V20.48h-89.928zM20.48 1003.52h185.897L483.82 702.525 318.075 592.097 20.48 904.478v99.041z"/></svg>