<svg width="64" height="64" viewBox="0 0 1024 1024" xmlns="http://www.w3.org/2000/svg"><path d="M847.974 448.266l-50.36-210.248c-8.827-36.68-45.998-59.72-82.883-50.668-32.44 7.926-48.21 30.392-54.6 46.203-7.557 18.657-41.288 103.199-49.172 120.668-2.765 6.062-8.602 9.257-9.789 9.789-6.697 2.97-73.728 31.252-73.728 31.252v.123c-13.23 6.205-22.405 19.436-22.405 34.877 0 21.361 17.49 38.687 39.055 38.687 4.649 0 9.073-.963 13.23-2.437 0 .02-.041.082 0 .143.43-.184 88.986-36.987 88.986-36.987 12.206-5.693 18.166-12.902 24.228-23.409 2.54-4.424 10.26-22.938 16.548-38.134l53.699 224.563c-.02 124.314-.061 347.955-.061 347.955-.102 34.57 23.777 62.751 58.675 62.874 34.939.123 60.191-27.791 60.416-62.423 0 0 .348-391.311.348-410.685-.041-19.313-7.721-65.208-12.186-82.145zM732.242 98.714c0 43.207-35.347 78.234-78.95 78.234s-78.95-35.026-78.95-78.234c0-43.207 35.347-78.234 78.95-78.234s78.95 35.026 78.95 78.234zM350.843 759.849v87.654c11.366-2.089 20.562-7.291 27.709-15.626 7.086-8.335 10.629-18.084 10.629-29.307 0-10.035-2.97-18.698-8.909-25.989-6.021-7.209-15.831-12.78-29.43-16.732zm-54.149-136.131c-5.325 7.168-8.008 15.114-8.008 23.798 0 7.987 2.437 15.319 7.25 22.118 4.874 6.84 12.227 12.37 21.996 16.548v-77.763c-8.909 2.99-16.015 8.11-21.238 15.299zm208.281-104.12h.082L382.689 274.104l-.02.225a55.73 55.73 0 0 0-50.278-31.437H219.608c-30.781-.02-55.767 24.719-55.767 55.235v705.392h347.464V547.286a64.638 64.638 0 0 0-6.328-27.689zm-85.033 343.429c-16.589 18.575-39.608 29.962-69.038 34.14v42.045h-32.911v-40.919c-26.173-3.133-47.37-12.82-63.754-28.979-16.302-16.2-26.726-39.035-31.252-68.547l59.187-6.328c2.396 12.001 6.922 22.344 13.619 31.068 6.615 8.684 14.029 14.971 22.18 18.862v-94.167c-29.614-8.397-51.384-21.115-65.167-38.052-13.865-16.998-20.787-37.622-20.787-61.911 0-24.576 7.803-45.22 23.511-61.952 15.647-16.691 36.454-26.337 62.464-28.856v-22.262h32.911v22.262c24.003 2.826 43.151 10.957 57.364 24.351 14.172 13.373 23.245 31.375 27.197 53.842l-57.364 7.414c-3.502-17.654-12.554-29.676-27.197-35.963v87.859c36.27 9.769 60.989 22.385 74.158 37.868 13.128 15.524 19.722 35.41 19.722 59.679 0 27.116-8.274 49.951-24.842 68.547z"/></svg>