<svg width="64" height="64" viewBox="0 0 1024 1024" xmlns="http://www.w3.org/2000/svg"><path d="M527.892 409.6H512v184.32h15.892c48.804 0 88.084-43.5 88.084-92.303 0-48.538-39.281-92.017-88.084-92.017zM819.2 143.36H204.8C92.16 143.36 0 235.52 0 348.16v286.72c0 112.64 92.16 204.8 204.8 204.8h614.4c112.64 0 204.8-92.16 204.8-204.8V348.16c0-112.64-92.16-204.8-204.8-204.8zm-409.6 512h-81.92V614.4H207.053l-28.037 40.96H72.643l237.752-327.68H409.6v327.68zm143.36 0H430.08V327.68h107.581c91.341 0 163.82 74.281 163.82 165.888 0 91.361-57.16 161.792-148.521 161.792zm179.405 0h-28.283c36.536-40.96 57.324-97.772 57.324-155.587 0-65.065-26.296-131.133-72.335-172.093h40.837c41.021 61.44 64.061 108.278 64.061 172.093 0 56.791-18.022 114.627-51.077 155.587h-10.527zm83.579 0h-28.529c36.782-40.96 57.569-97.772 57.569-155.587 0-65.065-26.542-131.133-72.581-172.093h40.796c41.062 61.44 64.348 108.278 64.348 172.093 0 56.791-18.289 114.627-51.323 155.587h-10.281zm93.86 0h-39.055c36.782-40.96 57.569-97.772 57.569-155.587 0-65.065-26.542-131.133-72.581-172.093h40.796c41.062 61.44 64.348 108.278 64.348 172.093-.02 56.812-18.309 114.627-51.077 155.587zM327.68 552.96V432.067L252.6 552.96z"/></svg>