<svg width="64" height="64" viewBox="0 0 1024 1024" xmlns="http://www.w3.org/2000/svg"><path d="M774.82 303.35c6.82 106.598-44.892 181.33-44.892 181.33 6.717-82.104-26.563-195.584-26.563-195.584-28.426-5.571-73.851.41-73.851.41 6.554 88.556-38.482 165.888-71.741 194.355 16.445-98.202-9.728-172.503-9.728-172.503-44.995-11.346-109.486-4.403-109.486-4.403 14.008 104.468-43.622 181.33-43.622 181.33 9.544-72.827-29.368-166.236-29.368-166.236-33.034-2.15-85.668 8.602-85.668 8.602 27.75 49.582 5.591 158.556 5.591 158.556-15.135-89.108-66.007-141.66-66.007-141.66C-72.232 471.779 4.609 642.93 147.252 693.905c134.574 48.005 568.197 71.66 762.204-12.513 194.028-84.214 57.405-320.86-134.636-378.04z"/></svg>