<svg width="64" height="64" viewBox="0 0 1024 1024" xmlns="http://www.w3.org/2000/svg"><path d="M600.76 278.712c38.851 0 70.472-34.57 70.472-77.087 0-42.537-31.621-77.107-70.472-77.107-38.912 0-70.554 34.57-70.554 77.107 0 42.516 31.642 77.087 70.554 77.087zm195.523 673.239L696.32 614.4V348.16c0-36.168-41.083-40.96-41.083-40.96h-134.39s-17.674 10.138-29.327 20.48l-66.13 30.31-81.674-90.808c-13.312-17.285-36.803-20.5-52.613-5.96-16.015 14.541-16.835 40.571-3.543 58.081l104.12 113.766c7.107 8.212 16.855 13.681 27.873 13.681 8.11 0-3.932-2.888 2.335-7.557l69.632-29.594v204.8L385.516 951.295c-7.7 30.474 18.678 61.85 46.715 70.042 27.894 8.172 61.501-9.994 68.997-40.489l94.147-302.694 94.659 303.391c7.434 30.679 38.81 48.66 66.683 40.468 27.873-8.151 47.206-39.567 39.567-70.062zM269.046 357.868c3.523 3.973 9.564 4.076 13.312 0l1.249-1.147c3.564-4.116 3.768-10.691 0-14.664l-20.378-22.856c-3.768-4.096-9.81-4.096-13.558-.102l-1.024 1.249c-3.727 4.096-3.953 10.588-.205 14.561l20.603 22.958zm194.99-258.806l-120.32 142.254 14.602 16.261 134.246-126.566 89.252-89.948c3.564-4.321 5.816-9.994 5.816-16.159 0-13.64-9.994-24.781-22.262-24.904-6.021-.102-11.223 2.396-15.36 6.267l-85.975 92.795z"/></svg>