<svg width="64" height="64" viewBox="0 0 1024 1024" xmlns="http://www.w3.org/2000/svg"><path d="M712.315 136.479H569.959c-25.723.082-24.76 38.42 0 38.195h142.356v19.599H569.959c-25.58-.225-24.637 38.093 0 38.195h142.356v20.029H569.959c-25.58 0-24.637 38.298 0 38.195h142.356v19.087H569.959c-25.047.184-24.637 38.523 0 38.646h142.356v19.128H569.959c-25.047-.082-25.149 38.195 0 38.195h142.356v19.087H569.959c-25.047.082-25.149 38.4 0 38.216h142.356v19.558H569.959c-25.047-.225-25.149 38.052 0 38.195h142.356v19.046H569.959c-25.047-.02-24.637 38.339 0 38.216h142.356v371.896c.082 56.668 86.159 55.644 86.405 0V79.664c-.246-25.887-21.504-58.614-56.484-58.716H569.958c-25.723.02-24.76 38.359 0 38.195l142.356.471V78.66H569.958c-25.682-.123-24.719 38.195 0 38.216h142.356v19.599zM560.169 795.812c-.082-66.15-68.649-137.298-150.569-91.218v-253.01l-52.982-417.28c-1.106-11.039-10.465-13.64-16.753-13.824-6.492.184-19.497 2.785-20.91 13.824l-52.716 417.28v253.01c-81.92-46.08-148.275 25.518-148.296 90.706.02 57.999 44.667 105.636 105.083 105.492 60.867.143 104.653-53.248 104.653-105.492V532.48h20.48V795.3c0 58.491 45.302 101.786 95.642 104.53-.84 32.072 9.626 77.824 29.327 95.969 23.101 21.299 50.606-5.939 39.322-28.119-10.895-20.644-21.586-32.87-12.902-77.947 36.291-16.794 60.539-52.142 60.621-93.921zm-334.807 52.04c-28.59-.184-51.692-23.368-51.732-52.04.041-28.652 23.142-51.937 51.732-52.101 28.385.164 51.507 23.45 51.712 52.101-.205 28.692-23.327 51.876-51.712 52.04zm175.534-52.04c.184-28.652 23.265-51.937 51.732-52.101 28.508.164 51.63 23.45 51.712 52.101-.082 28.672-23.183 51.855-51.712 52.04-28.467-.164-51.569-23.347-51.732-52.04z"/></svg>