<svg width="64" height="64" viewBox="0 0 1024 1024" xmlns="http://www.w3.org/2000/svg"><path d="M837.816 463.892c-25.928 0-50.565 5.325-72.95 14.889l-62.996-107.95 47.473-81.367c6.451-11.1 2.703-25.354-8.376-31.846-4.874-2.826-10.301-7.946-15.442-7.107-1.352-.225-2.662-4.751-4.035-4.751h-93.123c-12.841 0-23.265 17.879-23.265 30.72 0 12.861 10.424 30.72 23.265 30.72h60.355l-27.177 40.96H389.612l54.313-102.4h21.524c12.841 0 23.265-7.619 23.265-20.48s-10.424-20.48-23.265-20.48H349.061c-12.82 0-23.265 7.619-23.265 20.48s10.424 20.48 23.265 20.48h40.94L259.154 474.419c-22.405-9.564-47.084-12.698-72.991-12.698C83.353 461.721 0 546.181 0 648.99c0 102.83 83.354 186.716 186.184 186.716s186.184-83.087 186.184-185.917c0-60.211-28.713-113.48-73.114-147.538l49.828-85.32L491.91 661.79c.164.266.369.512.553.778.184.348.41.635.614.922.164.266.287.471.471.696.573.758 1.208 1.454 1.843 2.13.061.082.143.164.225.266.205.205.41.389.635.573.205.184.43.369.655.532.573.492 1.188 1.004 1.802 1.434.246.184.492.328.758.492.205.123.389.246.594.389.082.041.143.102.246.143.02.041.061.041.082.082.635.348 1.29.655 1.966.963a.55.55 0 0 0 .225.102c.143.061.307.184.471.246.041 0 .102.041.164.041.471.205 1.004.369 1.495.532.471.164.922.348 1.393.451.102.02.205.02.287.082.184.02.348.041.512.082.287.061.594.102.901.184 1.393.266 2.765.43 4.178.43.02 0 .02 1.27.02 1.27.041 0 .061 1.208.082 1.208H653.21c11.51 81.92 89.661 161.69 184.586 161.69 102.83 0 186.184-83.988 186.184-186.819.02-102.81-83.333-186.798-186.163-186.798zm-512 186.184c0 77.148-62.505 139.653-139.633 139.653S46.55 727.204 46.55 650.076c0-77.107 62.505-139.612 139.633-139.612 17.347 0 33.894 3.297 49.213 9.093l-69.325 118.825c-6.472 11.08-2.703 25.334 8.397 31.846a23.337 23.337 0 0 0 11.694 3.154c8.008 0 15.79-4.137 20.132-11.53l69.345-118.907c30.638 25.62 50.176 64.102 50.176 107.131zM512 598.917L389.612 389.12h244.797L512 598.917zm162.898-177.869l49.848 87.409c-38.543 29.573-65.167 64.983-71.516 126.423H552.509l122.388-213.832zm73.462 129.946l48.968 83.886h-97.034c5.612-40.96 23.06-62.976 48.067-83.886zm89.456 240.005c-69.161 0-126.464-53.719-137.544-115.159h137.482c.061 0 .061-1.208.102-1.208 1.393 0 2.785-.819 4.157-1.085.328-.082.614-.43.942-.471 1.27-.307 2.56-.84 3.871-1.352.123-.061.266-.266.43-.328a35.345 35.345 0 0 0 2.314-1.188c.184-.102.348-.307.553-.43.696-.451 1.352-.983 2.068-1.495.532-.451 1.147-.881 1.597-1.352.573-.512 1.065-1.106 1.556-1.7.471-.532 1.004-1.106 1.393-1.741.41-.553.819-1.249 1.167-1.884.369-.655.737-1.27 1.065-1.946.307-.696.532-1.413.799-2.13.246-.696.471-1.393.635-2.13.184-.737.246-1.393.348-2.13.123-.881.225-1.638.266-2.519 0-.246.061-.471.061-.717 0-.43-.102-.86-.102-1.311-.082-.881-.143-1.679-.287-2.54-.102-.758-.307-1.413-.471-2.171-.205-.717-.389-1.413-.676-2.13a29.825 29.825 0 0 0-1.065-2.314c-.205-.41-.348-.819-.553-1.208l-69.325-118.825c15.36-5.796 31.887-9.093 49.213-9.093 77.148 0 139.653 63.14 139.653 140.247.02 77.148-62.505 140.308-139.653 140.308z"/></svg>