<svg width="64" height="64" viewBox="0 0 1024 1024" xmlns="http://www.w3.org/2000/svg"><path d="M1024 819.2c-20.48 0-41.103-4.833-58.9-13.046-18.289-8.684-38.932-13.804-60.293-13.804-21.647 0-42.25 5.12-60.58 13.804-18.022 8.192-37.97 13.046-58.88 13.046-20.644 0-40.858-4.833-58.634-13.046-18.33-8.684-38.953-13.804-60.539-13.804-21.402 0-42.066 5.12-60.314 13.804-18.084 8.212-38.031 13.046-58.921 13.046s-40.858-4.833-58.655-13.046c-18.289-8.684-38.953-13.804-60.498-13.804-21.627 0-42.025 5.12-60.334 13.804-18.022 8.212-37.949 13.046-58.86 13.046s-40.714-4.833-58.532-13.046c-18.514-8.684-38.953-13.804-60.559-13.804s-36.209 5.12-54.743 13.804C116.961 814.366 102.4 819.2 81.92 819.2v-89.661c20.48 0 35.041-4.833 52.838-13.046 18.514-8.458 36.045-13.578 57.651-13.578s40.571 5.12 59.105 13.578c17.818 8.192 36.905 13.046 57.815 13.046s40.468-4.833 58.511-13.046c18.309-8.458 38.523-13.578 60.15-13.578 21.545 0 42.107 5.12 60.396 13.578 17.797 8.192 37.704 13.046 58.593 13.046s40.817-4.833 58.88-13.046c18.268-8.458 38.892-13.578 60.293-13.578 21.586 0 42.23 5.12 60.539 13.578 17.777 8.192 37.99 13.046 58.634 13.046 20.91 0 40.858-4.833 58.88-13.046 18.33-8.458 38.932-13.578 60.58-13.578 21.361 0 42.025 5.12 60.293 13.578 17.797 8.192 38.42 13.046 58.9 13.046V819.2zM784.138 444.703l173.384 13.783-13.087-90.173-127.283-9.155c-34.406-1.7-29.45 33.362-29.45 33.362l-3.564 52.183zm-321.515-20.542c31.846 0 57.487-26.092 57.487-58.47 0-32.399-25.62-58.47-57.487-58.47-31.805 0-57.385 26.092-57.385 58.47s25.58 58.47 57.385 58.47zM107.827 649.544c7.352-2.171 14.5-5.059 21.135-8.212 18.534-8.684 38.953-13.783 60.559-13.783s42.045 5.1 60.559 13.783c17.818 8.212 37.622 13.046 58.532 13.046s40.837-4.813 58.88-13.046c18.309-8.684 38.707-13.783 60.334-13.783 21.545 0 42.209 5.1 60.498 13.783 17.797 8.212 37.765 13.046 58.655 13.046s40.837-4.813 58.9-13.046c18.268-8.684 38.912-13.783 60.314-13.783 21.586 0 42.23 5.1 60.539 13.783 17.777 8.212 37.99 13.046 58.634 13.046 20.91 0 40.858-4.813 58.88-13.046 18.33-8.684 38.932-13.783 60.58-13.783 21.361 0 42.025 5.1 60.293 13.783 17.797 8.212 37.765 13.046 58.675 13.046l-19.497-159.887-720.65-61.399 108.769-111.657-47.739-4.342-108.626 111.903L.019 409.171c-1.434 81.92 88.31 218.132 107.807 240.374z"/></svg>