<svg width="64" height="64" viewBox="0 0 1024 1024" xmlns="http://www.w3.org/2000/svg"><path d="M174.08 145.244l195.891 54.047 108.728-76.411 37.827 9.318-107.704 76.636 593.613 164.925-43.438 161.423-595.825-164.475c-230.83-69.612-188.744-225.464-188.744-225.464zm521.359 413c-.717-13.476-3.277-26.317-7.68-38.441l271.995 75.715-8.724 33.567-255.59-70.84zm-247.111-68.24c7.332-10.67 16.015-20.296 25.887-28.631L20.481 336.035v36.106l427.848 117.862zm112.353 119.522c24.392 0 44.196-19.845 44.196-44.237 0-24.474-19.804-44.278-44.196-44.278-24.474 0-44.257 19.804-44.257 44.278 0 24.392 19.784 44.237 44.257 44.237zM1003.52 880.64c-21.524 0-42.004-4.874-60.273-13.271-19.005-8.602-40.202-13.763-62.403-13.763-22.118 0-43.438 5.161-62.157 13.763-18.534 8.397-38.973 13.271-60.518 13.271-21.524 0-42.045-4.874-60.518-13.271-18.842-8.602-39.997-13.763-62.157-13.763-22.241 0-43.397 5.161-62.362 13.763-18.289 8.397-39.014 13.271-60.436 13.271-21.402 0-42.004-4.874-60.396-13.271-18.964-8.602-40.284-13.763-62.382-13.763-22.118 0-43.418 5.161-62.157 13.763-18.391 8.397-39.096 13.271-60.539 13.271-21.402 0-42.004-4.874-60.518-13.271-18.76-8.602-40.059-13.763-62.177-13.763-22.098 0-43.397 5.161-62.259 13.763-18.371 8.397-39.096 13.271-60.396 13.271l-1.393-360.55 496.169 136.929c-34.202-16.527-57.958-51.2-57.958-91.73 0-56.402 45.609-102.052 101.97-102.052 56.197 0 101.929 45.65 101.929 102.052 0 56.361-45.711 101.99-101.929 101.99-3.4 0-6.758-.676-10.035-.963l452.157 124.682.737 89.641z"/></svg>