<svg width="64" height="64" viewBox="0 0 1024 1024" xmlns="http://www.w3.org/2000/svg"><path d="M983.04 839.68c-20.48 0-37.97-4.628-55.992-12.595-18.76-8.417-37.929-13.353-59.863-13.353-21.832 0-42.025 4.936-60.498 13.353-18.268 7.967-38.072 12.595-59.331 12.595-21.135 0-41.308-4.628-59.556-12.595-18.616-8.417-39.424-13.353-61.256-13.353-21.914 0-42.824 4.936-61.583 13.353-18.022 7.987-38.441 12.595-59.597 12.595s-41.574-4.628-59.638-12.595c-18.739-8.417-39.649-13.353-61.481-13.353-21.955 0-42.988 4.936-61.481 13.353-18.166 7.967-38.502 12.595-59.658 12.595-21.258 0-41.595-4.628-59.863-12.595-18.514-8.417-39.547-13.353-61.379-13.353s-42.988 4.936-61.604 13.353c-18.186 7.967-39.301 12.595-59.781 12.595v-87.45c20.48 0 41.595-4.71 59.761-12.718 18.637-8.397 39.711-13.353 61.542-13.353s42.906 4.956 61.42 13.353c18.289 8.008 38.625 12.718 59.884 12.718 21.176 0 41.492-4.71 59.658-12.718 18.493-8.397 39.547-13.353 61.501-13.353 21.832 0 42.742 4.956 61.481 13.353 18.043 8.008 38.502 12.718 59.658 12.718s41.615-4.71 59.638-12.718c18.76-8.397 39.69-13.353 61.624-13.353 21.832 0 42.762 4.956 61.379 13.353 18.268 8.008 38.646 12.718 59.781 12.718 21.258 0 41.492-4.71 59.761-12.718 18.473-8.397 39.547-13.353 61.379-13.353 21.934 0 39.342 4.956 58.102 13.353 18.022 8.008 35.512 12.718 55.992 12.718v87.45zM21.053 471.04l-.348 202.957c21.156 0 41.492-6.369 59.658-14.356 18.637-8.438 39.67-14.275 61.481-14.275 21.832 0 42.865 4.485 61.379 12.923 18.289 8.008 38.605 12.37 59.863 12.37 21.176 0 41.492-4.69 59.658-12.677 18.493-8.438 39.547-13.435 61.481-13.435 21.832 0 42.742 4.895 61.481 13.332 18.043 8.008 38.502 12.575 59.658 12.575s41.615-4.608 59.638-12.595c18.76-8.438 39.69-13.373 61.624-13.373 21.832 0 42.762 4.936 61.379 13.373 18.268 8.008 38.646 12.575 59.781 12.575 5.98 0 11.715-1.249 17.572-1.905 10.67-2.232 21.484-3.256 31.846-7.291.225-.102.471-.225.696-.348 77.005-30.556 143.421-102.625 184.893-159.048l20.726-30.802H21.052zm548.373-225.28h144.261c1.618 0 38.953-5.755 51.487 21.565l54.211 121.795H634.594l-65.167-143.36zM184.32 376.463c0 9.544-7.864 12.657-17.51 12.657H87.491c-9.667 0-26.051-3.113-26.051-12.657v-117.33c0-9.421 16.384-13.373 26.051-13.373h79.299c9.667 0 17.531 3.953 17.531 13.373v117.33zm327.68 0c0 9.544-8.561 12.657-18.33 12.657h-79.196c-9.769 0-25.354-3.113-25.354-12.657v-117.33c0-9.421 15.585-13.373 25.354-13.373h79.196c9.769 0 18.33 3.953 18.33 13.373v117.33zm-163.84 0c0 9.544-8.52 12.657-18.268 12.657h-78.725c-9.789 0-25.887-3.113-25.887-12.657v-117.33c0-9.421 16.097-13.373 25.887-13.373h78.725c9.748 0 18.268 3.953 18.268 13.373v117.33zm441.242-144.937c-23.572-51.241-87.368-47.206-87.368-47.206H20.582l-.102 245.76h854.323l-85.402-198.554z"/></svg>