<svg width="64" height="64" viewBox="0 0 1024 1024" xmlns="http://www.w3.org/2000/svg"><path d="M839.68 819.2V122.88c0-45.056-36.864-81.92-81.92-81.92H266.24c-45.056 0-81.92 36.864-81.92 81.92v778.24c0 45.056 36.864 81.92 81.92 81.92h491.52c38.052 0 81.92 0 81.92-40.96V921.6H286.72c-22.528 0-40.96-18.432-40.96-40.96V819.2h593.92zM286.72 204.8c0-11.264 9.216-20.48 20.48-20.48h409.6c11.264 0 20.48 9.216 20.48 20.48v40.96c0 11.264-9.216 20.48-20.48 20.48H307.2c-11.264 0-20.48-9.216-20.48-20.48V204.8zm0 163.84c0-11.264 9.216-20.48 20.48-20.48h409.6c11.264 0 20.48 9.216 20.48 20.48v40.96c0 11.264-9.216 20.48-20.48 20.48H307.2c-11.264 0-20.48-9.216-20.48-20.48v-40.96z"/></svg>