<svg width="64" height="64" viewBox="0 0 1024 1024" xmlns="http://www.w3.org/2000/svg"><path d="M646.554 617.615s-38.441-96.113-75.735-187.884c0 0-12.493-55.153-2.724-128.348 0 0 26.542-111.882 11.776-164.782 0 0-22.671-45.322-69.775-48.476 0 0-65.004 4.588-77.148 67.83 0 0-3.174 36.454 6.922 78.52 0 0 36.393 139.203-3.523 230.052 0 0-55.685 116.347-60.109 142.991 0 0-20.849 113.992-.328 197.939 0 0 43.09 143.626 74.629 191.201 0 0 63.98 16.323 118.866-1.454 0 0 65.802-106.537 78.95-202.813.041 0 16.466-101.724-1.802-174.776zm204.984-67.666s-38.42-96.133-75.878-187.863c0 0-12.472-55.173-2.744-128.246 0 0 26.583-111.882 11.776-164.905 0 0-22.569-45.322-69.714-48.435 0 0-65.024 4.567-77.148 67.789 0 0-3.195 36.475 7.025 78.541 0 0 36.413 139.325-3.625 230.031 0 0-8.643 18.248-19.415 41.636 34.959 85.914 68.547 169.841 68.547 169.841l.532 1.454.348 1.434c19.21 76.411 2.867 179.139 2.273 182.948-6.226 45.752-23.47 92.529-40.489 130.662.758 1.372 1.7 2.949 2.519 4.157 0 0 63.918 16.343 118.866-1.556 0 0 65.761-106.394 78.93-202.732 0-.02 16.486-101.724-1.802-174.756zm-457.81-94.146c2.171-4.772 3.973-10.035 5.673-15.196-9.994-24.822-20.89-51.487-31.642-78.07 0 0-12.616-55.296-2.744-128.348 0 0 26.563-111.78 11.817-164.803 0 0-22.671-45.343-69.796-48.456 0 0-65.065 4.69-77.128 67.666 0 0-3.154 36.618 7.045 78.561 0 0 36.413 139.284-3.625 230.134 0 0-55.685 116.367-60.129 142.991 0 0-20.869 114.012-.328 197.939 0 0 43.09 143.647 74.609 191.099 0 0 64 16.466 118.866-1.475 0 0 1.27-1.987 3.42-5.693-20.07-52.797-36.495-107.151-37.745-111.534-21.34-87.491-.799-202.158 0-206.541 4.628-28.344 52.408-129.024 61.706-148.275z"/></svg>