<svg width="64" height="64" viewBox="0 0 1024 1024" xmlns="http://www.w3.org/2000/svg"><path d="M842.998 512h-655.77c-19.108 0-34.836-16.425-34.836-35.103 0-3.113.573-6.636 1.208-9.462l34.898-243.692c2.97-15.831 17.224-18.944 34.284-18.944h584.765c16.937 0 31.314 2.847 34.243 18.616l34.898 248.136c.532 2.888 1.229 4.588 1.229 7.7-.02 18.678-15.831 32.748-34.918 32.748zm-26.235 273.306c-36.925 0-66.867-29.061-66.867-65.29 0-35.983 29.942-65.004 66.867-65.004 36.68 0 66.683 29.02 66.683 65.004 0 36.229-30.003 65.29-66.683 65.29zm-604.181 0c-36.659 0-66.621-29.061-66.621-65.29 0-35.983 29.962-65.004 66.621-65.004 37.028 0 66.929 29.02 66.929 65.004 0 36.229-29.901 65.29-66.929 65.29zM327.68 61.44h409.6v61.44h-409.6c-40.96 0-40.96-61.44 0-61.44zm577.577 94.003c-11.96-57.61-46.899-80.814-103.895-103.997C744.469 28.345 612.618.656 513.454.656c-99.594 0-232.12 27.709-289.075 50.79-56.975 23.204-91.341 46.387-103.199 103.997L81.92 476.139v445.46h61.44v40.96c0 81.92 102.4 81.92 102.4 0v-40.96h512v40.96c0 81.92 122.88 81.92 122.88 0v-40.96h61.44v-445.46l-36.823-320.696z"/></svg>