<svg width="64" height="64" viewBox="0 0 1024 1024" xmlns="http://www.w3.org/2000/svg"><path d="M357.11 263.885c50.463 0 91.136-40.817 91.136-91.054 0-50.217-40.694-90.911-91.136-90.911-50.36 0-91.156 40.694-91.156 90.911-.02 50.237 40.796 91.054 91.156 91.054zM20.48 761.18c20.48 0 41.964-4.915 60.355-13.169 18.883-8.724 40.284-13.844 62.423-13.844 22.159 0 43.52 5.12 62.3 13.844 18.514 8.233 39.178 13.046 60.723 13.046 21.443 0 42.086-4.792 60.498-13.046 18.76-8.724 40.1-13.844 62.382-13.844 22.139 0 43.336 5.12 62.341 13.844 18.309 8.233 39.055 13.046 60.498 13.046s42.189-4.792 60.477-13.046c19.005-8.724 40.243-13.844 62.484-13.844 22.159 0 43.356 5.12 62.239 13.844 18.514 8.233 39.178 13.046 60.641 13.046 21.504 0 42.086-4.792 60.6-13.046 18.76-8.724 40.079-13.844 62.218-13.844 19.005 0 37.437 3.625 54.067 10.117 27.075-29.512 43.868-68.813 43.868-111.841 0-91.628-74.363-165.806-166.093-165.806l-18.616 1.987c-20.419 82.678-103.301 86.159-103.301 86.159l-379.29-.102-31.703-18.616 76.452-128 83.702 48.251c50.115 32.42 76.206-13.025 76.206-13.025l83.927-136.52c36.475-59.31-40.899-106.865-77.148-47.329l-58.757 95.683-139.633-77.087c-96.768-53.842-137.769 35.348-137.769 35.348L76.901 500.819c-18.657 38.953-2.13 55.685-2.13 55.685l-54.292-.082v204.759zm983.04 180.9a146.808 146.808 0 0 1-60.375-13.025c-18.985-8.724-40.223-13.824-62.484-13.824-22.139 0-43.459 5.1-62.218 13.824-18.514 8.274-39.096 13.025-60.6 13.025-21.463 0-42.127-4.751-60.641-13.025-18.883-8.724-40.079-13.824-62.239-13.824-22.241 0-43.479 5.1-62.484 13.824-18.289 8.274-39.035 13.025-60.477 13.025-21.422 0-42.189-4.751-60.498-13.025-19.005-8.724-40.202-13.824-62.341-13.824-22.262 0-43.602 5.1-62.362 13.824-18.412 8.274-39.055 13.025-60.498 13.025-21.565 0-42.209-4.751-60.723-13.025-18.78-8.724-40.1-13.824-62.259-13.824-22.139 0-43.479 5.1-62.341 13.824-18.412 8.274-39.055 13.025-60.498 13.025v-90.46c21.443 0 42.086-4.874 60.498-13.148 18.883-8.704 40.202-13.824 62.341-13.824 22.159 0 43.5 5.12 62.259 13.824 18.514 8.253 39.158 13.148 60.723 13.148 21.443 0 42.086-4.874 60.498-13.148 18.76-8.704 40.1-13.824 62.362-13.824 22.139 0 43.336 5.12 62.341 13.824 18.309 8.253 39.055 13.148 60.498 13.148s42.189-4.874 60.477-13.148c19.005-8.704 40.243-13.824 62.484-13.824 22.159 0 43.356 5.12 62.239 13.824 18.514 8.253 39.178 13.148 60.641 13.148 21.504 0 42.086-4.874 60.6-13.148 18.76-8.704 40.079-13.824 62.218-13.824 22.262 0 43.5 5.12 62.484 13.824 18.309 8.253 38.912 13.148 60.375 13.148v90.46z"/></svg>