<svg width="64" height="64" viewBox="0 0 1024 1024" xmlns="http://www.w3.org/2000/svg"><path d="M839.68 81.92H452.137C421.356 40.96 370.913 5.079 313.856 5.079c-93.737 0-169.718 73.236-169.718 166.973 0 93.757 75.981 164.598 169.718 164.598 71.291 0 132.28-49.93 157.45-111.37h56.422l40.899-40.919 40.878 40.919h25.498l40.878-40.919 40.899 40.919h25.477l40.899-40.919 40.899 40.919h15.626v5.755l-3.564.84 80.691-79.094L839.68 81.92zM258.929 217.293c-27.116 0-49.132-22.016-49.132-49.172s22.016-49.152 49.132-49.152c27.156 0 49.172 21.996 49.172 49.152s-22.016 49.172-49.172 49.172zM880.64 614.4h-11.325L743.486 386.56c-5.427-9.851-19.108-17.92-30.372-17.92H331.367c-11.264 0-24.945 8.069-30.372 17.92L175.145 614.4H163.84c-22.528 0-40.96 18.432-40.96 40.96v204.8c0 22.528 18.432 40.96 40.96 40.96h40.96v61.44c0 33.792 27.648 61.44 61.44 61.44h20.48c33.792 0 61.44-27.648 61.44-61.44v-61.44h348.16v61.44c0 33.792 27.648 61.44 61.44 61.44h20.48c33.792 0 61.44-27.648 61.44-61.44v-61.44h40.96c22.528 0 40.96-18.432 40.96-40.96v-204.8c0-22.528-18.432-40.96-40.96-40.96zM235.52 778.24c-28.283 0-51.2-22.917-51.2-51.2s22.917-51.2 51.2-51.2 51.2 22.917 51.2 51.2-22.917 51.2-51.2 51.2zm40.96-163.84l83.005-165.99c5.038-10.097 18.371-18.33 29.635-18.33h266.24c11.264 0 24.596 8.233 29.635 18.33L768 614.4H276.48zm532.48 163.84c-28.283 0-51.2-22.917-51.2-51.2s22.917-51.2 51.2-51.2 51.2 22.917 51.2 51.2-22.917 51.2-51.2 51.2z"/></svg>