<svg width="64" height="64" viewBox="0 0 1024 1024" xmlns="http://www.w3.org/2000/svg"><path d="M880.64 122.88V40.96H143.36v81.92H0v880.64h81.92V204.8h61.44v81.92h737.28V204.8h61.44v798.72H1024V122.88zm-19.415 471.04L727.593 366.08c-5.304-9.851-18.637-17.92-29.614-17.92H326.001c-10.977 0-24.31 8.069-29.594 17.92L162.795 593.92c-21.955 0-39.916 18.432-39.916 40.96v204.8c0 22.528 17.961 40.96 39.916 40.96h42.004v61.44c0 33.792 24.842 61.44 57.754 61.44h19.968c32.911 0 65.638-27.648 65.638-61.44v-61.44h327.68v61.44c0 33.792 32.707 61.44 65.638 61.44h19.968c32.911 0 57.754-27.648 57.754-61.44v-61.44h42.025c21.934 0 39.895-18.432 39.895-40.96v-204.8c0-22.528-17.961-40.96-39.895-40.96zM232.632 757.76c-27.546 0-49.889-22.917-49.889-51.2s22.344-51.2 49.889-51.2c27.566 0 49.889 22.917 49.889 51.2s-22.323 51.2-49.889 51.2zm29.922-163.84l90.849-166.011c4.915-10.076 17.92-18.309 28.877-18.309H641.7c10.977 0 23.982 8.233 28.877 18.309l90.87 166.011H262.554zm528.814 163.84c-27.546 0-49.889-22.917-49.889-51.2s22.344-51.2 49.889-51.2c27.566 0 49.91 22.917 49.91 51.2s-22.364 51.2-49.91 51.2z"/></svg>