<svg width="64" height="64" viewBox="0 0 1024 1024" xmlns="http://www.w3.org/2000/svg"><path d="M438.968 157.471L389.12 225.28H272.712c14.356 40.96 61.358 79.585 126.996 66.765 19.456-1.311 85.094-11.735 112.292-5.325 36.209 8.684 21.115 8.724 86.036 60.826L921.6 614.4c19.825 17.51 45.179 10.342 62.73-9.441 17.551-19.825 18.534-54.968-1.29-72.479L573.44 204.8c-25.641-20.582-32.113-49.091-40.96-81.92-17.203-56.422-80.466-101.683-142.561-101.683-50.033 0-103.875 43.274-123.679 81.203h122.88l49.848 55.071zM719.954 655.36L593.347 435.61c-4.997-9.114-17.633-26.01-28.017-26.01H212.91c-10.383 0-23.02 16.896-28.037 26.01L61.44 655.36h-3.154c-20.787 0-37.806 7.557-37.806 28.365v189.03c0 20.808 17.019 28.365 37.806 28.365H102.4v66.15c0 31.212 19.21 56.73 50.401 56.73h18.903c31.212 0 53.576-25.518 53.576-56.73v-66.15h327.68v66.15c0 31.191 22.364 56.73 53.555 56.73h18.903c31.212 0 50.422-25.518 50.422-56.73v-66.15h44.114c20.787 0 37.806-7.557 37.806-28.365v-189.03c0-20.808-17.019-28.365-37.806-28.365zM124.457 797.143c-26.112 0-47.268-21.156-47.268-47.268s21.156-47.268 47.268-47.268c26.092 0 47.268 21.156 47.268 47.268s-21.156 47.268-47.268 47.268zm37.806-141.783l76.616-160.317c4.649-9.298 16.978-24.003 27.361-24.003H512c10.383 0 22.692 14.705 27.361 24.003l76.616 160.317H162.263zm491.52 141.783c-26.092 0-47.268-21.156-47.268-47.268s21.156-47.268 47.268-47.268 47.268 21.156 47.268 47.268-21.176 47.268-47.268 47.268z"/></svg>