<svg width="64" height="64" viewBox="0 0 1024 1024" xmlns="http://www.w3.org/2000/svg"><path d="M978.596 243.364c-14.09-11.1-51.876-20.009-80.159-26.644l-38.277-5.12v-92.529c0 .41 18.678-.758 19.599-.307 18.371 9.318 44.831 24.596 46.203 45.076h73.81c-1.372-40.96-32.481-66.806-60.17-87.327-18.371-13.619-38.482-20.89-79.442-25.293V0H819.2v49.644c-40.96 3.932-54.19 14.131-72.684 30.781-24.187 21.77-34.959 49.091-34.959 81.981 0 36.045 10.301 62.525 35.062 79.483 13.844 9.605 31.621 18.534 72.581 26.808v100.25c-20.48-3.625-20.521-2.703-27.75-11.284-6.963-8.315-8.868-29.983-11.244-29.983H706.97c0 40.96 11.08 60.58 38.81 82.432 19.988 15.749 32.461 18.534 73.421 22.671v38.257h40.96v-37.601c40.96-3.953 75.756-14.377 95.764-31.457 25.969-22.18 47.206-50.053 47.206-83.599-.02-32.727-2.642-57.713-24.535-75.018zm-179.507-57.057c-11.919-6.492-16.507-16.323-16.507-29.45 0-14.295 3.953-25.477 16.036-33.464 6.369-4.198.102-7.25 20.582-9.277v80.691c-20.48-3.113-15.606-5.939-20.111-8.499zm88.944 180.633c-3.441 1.188-27.873 2.13-27.873 2.97v-85.34c40.96 3.523 37.806 7.311 44.605 11.428 10.67 6.636 16.036 16.097 16.036 28.201 0 20.808-10.957 35.082-32.768 42.742zM788.89 614.4h-11.325L651.736 386.56c-5.427-9.851-19.108-17.92-30.372-17.92H239.596c-11.264 0-24.945 8.069-30.372 17.92L83.395 614.4H72.09c-22.548 0-51.61 18.432-51.61 40.96v204.8c0 22.528 29.061 40.96 51.61 40.96h30.31v61.44c0 33.792 38.298 61.44 72.09 61.44h20.48c33.792 0 50.79-27.648 50.79-61.44v-61.44h348.16v61.44c0 33.792 38.277 61.44 72.09 61.44h20.48c33.792 0 50.79-27.648 50.79-61.44v-61.44h51.61c22.528 0 30.31-18.432 30.31-40.96v-204.8c0-22.528-7.803-40.96-30.31-40.96zM143.77 778.24c-28.283 0-51.2-22.917-51.2-51.2s22.917-51.2 51.2-51.2 51.2 22.917 51.2 51.2-22.938 51.2-51.2 51.2zm40.96-163.84l83.005-165.99c5.018-10.097 18.371-18.33 29.635-18.33h266.24c11.264 0 24.596 8.233 29.635 18.33L676.25 614.4H184.73zm532.48 163.84c-28.283 0-51.2-22.917-51.2-51.2s22.917-51.2 51.2-51.2 51.2 22.917 51.2 51.2-22.938 51.2-51.2 51.2z"/></svg>