<svg width="64" height="64" viewBox="0 0 1024 1024" xmlns="http://www.w3.org/2000/svg"><path d="M1003.52 214.815c12.37-9.359 20.48-24.023 20.48-40.735 0-28.283-22.917-51.2-51.2-51.2s-51.2 22.917-51.2 51.2c0 16.691 8.11 31.375 20.48 40.735V532.48H757.76v163.84h204.8v-6.083c30.003-12.165 51.2-41.452 51.2-75.837 0-14.152-3.912-27.279-10.24-38.892V214.814zM122.88 348.16c20.91 0 35.43 3.523 61.44 0 0 0-82.248 54.6-82.248 122.88H204.8s.123-113.746 61.44-184.32l-20.48-20.48s-40.96 20.48-81.92 0c0 0-40.96 0-81.92 20.48v-20.48H61.44v122.88h20.48s0-40.96 40.96-40.96zm286.72 0c20.91 0 35.43 3.523 61.44 0 0 0-82.248 54.6-82.248 122.88H491.52s.123-113.746 61.44-184.32l-20.48-20.48s-40.96 20.48-81.92 0c0 0-40.96 0-81.92 20.48v-20.48h-20.48v122.88h20.48s0-40.96 40.96-40.96zm368.64-204.8V102.4H530.022c-9.339-41.001-45.855-71.68-89.702-71.68s-80.364 30.679-89.702 71.68H102.4v40.96H0v839.68h901.12V143.36H778.24zm-450.56 81.92h245.76V512H327.68V225.28zm-286.72 0h245.76V512H40.96V225.28zm737.28 655.36H102.4V737.28h675.84v143.36zM860.16 512H614.4V225.28h245.76V512zM696.32 348.16c20.91 0 35.43 3.523 61.44 0 0 0-82.248 54.6-82.248 122.88H778.24s.123-113.746 61.44-184.32l-20.48-20.48s-40.96 20.48-81.92 0c0 0-40.96 0-81.92 20.48v-20.48h-20.48v122.88h20.48s0-40.96 40.96-40.96z"/></svg>