<svg width="64" height="64" viewBox="0 0 1024 1024" xmlns="http://www.w3.org/2000/svg"><path d="M872.428 761.242c37.663-12.329 57.938-52.367 45.548-89.723l-27.3 8.724c7.455 22.385-4.956 46.531-27.279 53.924L145.983 976.671l9.236 26.849 717.21-242.278zM211.825 342.18c39.363-11.407 61.891-52.572 50.401-91.73-11.51-39.137-52.879-61.522-92.365-50.115-39.465 11.407-62.239 52.572-50.504 91.73 11.51 39.158 52.777 61.542 92.467 50.115zm-30.454 102.461c-39.26-74.26 73.4-134.431 114.893-62.403l80.896 152.596 154.03-43.438c25.477-7.168 60.682 20.378 60.682 52.797l.86 217.477c.246 53.903-80.486 54.129-80.486-.43-.246-50.586-1.577-158.392-1.577-158.392L349.942 650.71c-35.185 10.076-64.287-7.352-78.029-33.096L181.371 444.64zm248.709 34.468V20.48h-40.96v467.354zm-322.683 64.655c-22.098-43.172 34.959-71.803 57.057-28.631l69.571 135.127c15.114 27.955 44.667 47.002 78.725 47.002 10.588 0 20.5-2.703 30.208-4.71l87.654-25.477c46.469-13.885 64.492 46.94 17.613 60.641l-92.201 26.583c-13.742 4.26-28.631 6.472-43.971 6.472-59.31 0-110.612-33.321-135.864-82.084l-68.792-134.922z"/></svg>