<svg width="64" height="64" viewBox="0 0 1024 1024" xmlns="http://www.w3.org/2000/svg"><path d="M158.577 446.464h71.373v458.752h107.09V512h107.09v393.216h107.069V512h107.11v393.216h107.09V446.464h71.352c19.722 0 35.717-14.664 35.717-32.768 0-10.936-5.898-20.562-14.889-26.501l.061-.061-.532-.307c-.307-.205-.635-.369-.922-.553L515.501 209.962v-51.651c62.915 28.918 114.708-20.89 196.301 9.052V53.269c-81.633-29.942-133.407 19.825-196.301-9.073v-7.332c0-9.073-7.967-16.384-17.838-16.384s-17.818 7.311-17.818 16.384v173.097L139.16 386.232c-.307.184-.614.389-.922.553l-.512.348v.061c-8.95 5.939-14.828 15.585-14.828 26.501-.02 18.104 15.974 32.768 35.676 32.768zm35.676 491.54l-71.373 65.516h749.609l-71.414-65.516z"/></svg>