<svg width="64" height="64" viewBox="0 0 1024 1024" xmlns="http://www.w3.org/2000/svg"><path d="M131.727 441.344c-4.444 9.114-7.68 19.21-9.38 30.065-.758 5.386-1.249 10.834-1.249 16.241l3.953 248.32-86.118 184.812a55.998 55.998 0 0 0-6.164 18.473c-4.71 30.556 16.323 58.9 47.002 63.59 23.757 3.686 46.51-8.376 57.405-28.385l94.74-202.015c1.966-4.69 3.727-9.626 4.444-15.032.266-2.458.512-5.181.512-7.619l-.737-153.518L381.727 659.6l23.511 150.036c4.69 21.934 22.753 39.465 46.264 43.131 30.679 4.424 59.126-16.527 63.857-46.797.717-5.181.717-10.363.225-15.278l-28.692-181.125c-3.461-17.49-15.073-32.522-31.416-40.182l-130.13-57.59 82.862-143.647 41.103 51.999c4.198 4.669 9.646 8.622 15.811 11.08l156.631 45.568c20.808 4.444 42.086-6.369 50.217-26.337 9.155-22.671-1.7-48.292-24.228-57.405-.758-.246-1.495-.492-2.232-.737L509.42 352.4 406.979 229.95c-15.34-16.261-35.881-27.832-59.617-31.56-41.574-6.144-81.039 13.558-101.827 47.063L131.728 441.344zm449.311 356.024l-9.892 74.404-269.435 65.27 2.601 45.998h657.121c23.286 0 42.086-18.678 42.086-41.841l-.737-882.053-90.03-20.931L861.02 270.11l-86.487 36.209-76.698 213.832 72.868 163.615-20.521 62.812-169.144 50.79zM398.09 187.535c46.264 0 83.866-37.437 83.866-83.517-.02-46.06-37.601-83.538-83.866-83.538s-83.886 37.478-83.886 83.538c-.02 46.08 37.601 83.517 83.886 83.517zm-166.891 13.067c6.431-11.325 2.703-26.112-8.909-32.522l-40.591-23.654c-11.612-6.41-26.235-2.703-32.911 8.868L23.614 368.416c-6.431 11.325-2.724 25.866 8.888 32.522l40.837 23.429c11.366 6.636 25.989 2.703 32.645-8.643l125.215-215.122z"/></svg>