<svg width="64" height="64" viewBox="0 0 1024 1024" xmlns="http://www.w3.org/2000/svg"><path d="M319.468 471.04c-.676-20.48-6.554-35.451-16.507-45.179-9.728-10.506-23.286-18.125-40.468-18.125-58.798 0-68.506 59.781-68.506 106.476 0 59.331 22.61 97.956 68.506 97.956 40.468 0 56.3-18.268 60.805-59.228h158.044c-13.558 122.88-109.875 163.881-218.849 163.881-127.078 0-224.973-71.475-224.973-204.534 0-134.636 94.72-207.483 224.973-207.483 105.124 0 204.616 43.356 215.695 166.236h-158.72zm501.698 0c-.676-20.48-6.779-35.451-16.507-45.179-9.728-10.506-23.286-18.125-40.714-18.125-58.532 0-68.26 59.781-68.26 106.476 0 59.331 22.61 97.956 68.26 97.956 40.714 0 56.545-18.268 61.051-59.228H983.04c-13.558 122.88-109.875 163.881-219.095 163.881-127.058 0-224.727-71.475-224.727-204.534 0-134.636 94.74-207.483 224.727-207.483 105.39 0 204.616 43.356 215.941 166.236h-158.72z"/></svg>