<svg width="64" height="64" viewBox="0 0 1024 1024" xmlns="http://www.w3.org/2000/svg"><path d="M969.933 302.08c1.638 5.939-.43 12.493-3.891 17.613l-110.387 164.25c-4.096 6.349-12.698 9.83-19.886 9.83-2.048 0-7.782-.41-10.015-1.024L737.28 471.04v389.12c0 11.878-8.397 20.48-20.48 20.48H286.72c-12.083 0-20.48-8.602-20.48-20.48V471.04l-79.462 21.914c-9.216 2.867-17.203-.819-22.323-8.806L54.887 320.308c-3.482-5.325-4.506-11.264-2.867-17.203 1.434-6.144 5.734-10.24 11.264-13.107l223.437-105.677h102.4c12.083 0 20.48 8.397 20.48 20.48 0 42.189 59.187 72.09 101.376 72.09s103.424-29.696 103.424-72.09c0-11.878 8.397-20.48 20.48-20.48h102.4L958.465 287.95c5.734 2.867 9.83 7.987 11.469 14.131z"/></svg>