<svg width="64" height="64" viewBox="0 0 1024 1024" xmlns="http://www.w3.org/2000/svg"><path d="M512 1003.52c-271.032 0-491.52-220.508-491.52-491.52C20.48 240.968 240.968 20.48 512 20.48c271.012 0 491.52 220.488 491.52 491.52 0 271.012-220.508 491.52-491.52 491.52zm0-901.12c-225.853 0-409.6 183.747-409.6 409.6S286.147 921.6 512 921.6 921.6 737.853 921.6 512 737.853 102.4 512 102.4zm.922 66.56S368.64 416.174 368.64 491.52v40.96c0 75.325 144.712 327.68 144.712 327.68S655.36 613.048 655.36 537.723v-46.326c0-75.346-142.438-322.437-142.438-322.437zM512 593.92c-45.24 0-81.92-36.68-81.92-81.92s36.68-81.92 81.92-81.92 81.92 36.68 81.92 81.92-36.68 81.92-81.92 81.92z"/></svg>