<svg width="64" height="64" viewBox="0 0 1024 1024" xmlns="http://www.w3.org/2000/svg"><path d="M839.68 389.12h-5.571c-1.516-2.621-3.277-5.161-5.448-7.475L592.24 128.348c1.044-5.059 1.679-10.301 1.679-15.708 0-39.588-29.164-71.68-65.167-71.68h-74.486c-35.983 0-65.147 32.092-65.147 71.68 0 5.407.655 10.65 1.679 15.708L154.377 381.645c-2.15 2.314-3.912 4.854-5.448 7.475H40.958v143.36h40.96v307.2c0 56.566 45.855 102.4 102.4 102.4h655.36c56.566 0 102.4-45.834 102.4-102.4v-307.2h40.96V389.12h-143.36zm-385.393-204.8h74.486c1.147 0 2.191-.307 3.338-.369L723.579 389.12H259.461l191.488-205.169c1.126.061 2.191.369 3.338.369zM266.24 819.2c0 22.528-18.432 40.96-40.96 40.96s-40.96-18.432-40.96-40.96V573.44c0-22.528 18.432-40.96 40.96-40.96s40.96 18.432 40.96 40.96V819.2zm184.32 0c0 22.528-18.432 40.96-40.96 40.96s-40.96-18.432-40.96-40.96V573.44c0-22.528 18.432-40.96 40.96-40.96s40.96 18.432 40.96 40.96V819.2zm204.8 0c0 22.528-18.432 40.96-40.96 40.96s-40.96-18.432-40.96-40.96V573.44c0-22.528 18.432-40.96 40.96-40.96s40.96 18.432 40.96 40.96V819.2zm184.32 0c0 22.528-18.432 40.96-40.96 40.96s-40.96-18.432-40.96-40.96V573.44c0-22.528 18.432-40.96 40.96-40.96s40.96 18.432 40.96 40.96V819.2z"/></svg>