<svg width="64" height="64" viewBox="0 0 1024 1024" xmlns="http://www.w3.org/2000/svg"><path d="M370.688 502.641L182.19 396.35l65.516-114.893 188.539 106.23zm376.218 98.058L428.401 421.294l-32.748 57.508 318.464 179.425zm38.666 21.811l-32.85 57.467 164.25 92.447 32.85-57.405zm-44.237 57.467c-2.519 4.485-9.4 5.55-15.38 2.273-5.96-3.359-8.602-9.728-6.062-14.275l38.4-67.277c2.642-4.567 9.523-5.673 15.442-2.273 5.878 3.359 8.54 9.871 6.001 14.438l-38.4 67.113zm242.319 36.843c-6.533-3.604-13.742-5.284-20.705-5.079l-42.004 73.564c3.379 6.164 8.417 11.551 15.053 15.155 18.514 10.486 41.8 4.444 51.978-13.353l10.772-19.046c10.199-17.92 3.482-40.755-15.094-51.241zM454.472 365.548c-4.936 8.929-16.179 11.919-25.088 7.004l-164.987-93.02c-8.929-4.956-11.94-16.118-6.943-25.047 5.018-8.765 16.282-11.899 25.19-6.84l164.946 92.897c8.847 5.059 12.001 16.241 6.881 25.006zm23.122-40.387c-5.079 8.909-16.323 11.919-25.129 6.963l-165.048-93c-8.868-4.956-11.981-16.138-6.902-24.924 4.956-8.909 16.22-12.001 25.19-6.984l164.987 92.918c8.909 5.018 11.94 16.22 6.902 25.027zM338.166 569.774c-5.079 8.806-16.323 11.796-25.17 6.84l-165.11-93.02c-8.847-4.915-11.94-16.118-6.922-25.047 5.018-8.643 16.425-11.899 25.17-6.84l165.028 93.02c8.868 4.936 11.94 16.138 7.004 25.047zm23.06-40.53c-5.018 8.909-16.261 11.899-25.272 6.861l-164.987-92.918c-8.806-5.059-11.94-16.241-6.943-25.047 5.1-8.888 16.343-11.899 25.211-6.861l164.966 92.918c8.847 5.038 12.042 16.261 7.025 25.047zM84.357 694.702h290.898v33.444H84.357v-33.444zm354.427 69.755c-1.864-11.162-11.51-19.722-23.245-19.722H44.155c-11.715 0-21.422 8.561-23.245 19.722h-.43v54.764h418.734v-54.764h-.43z"/></svg>