<svg width="64" height="64" viewBox="0 0 1024 1024" xmlns="http://www.w3.org/2000/svg"><path d="M512 20.48C240.968 20.48 20.48 240.968 20.48 512c0 271.012 220.488 491.52 491.52 491.52 271.012 0 491.52-220.508 491.52-491.52 0-271.032-220.508-491.52-491.52-491.52zm61.44 896v-179.2H450.56v179.2c-176.64-26.767-316.273-166.4-343.04-343.04h179.2V450.56h-179.2c26.767-176.64 166.4-316.273 343.04-343.04v179.2h122.88v-179.2c176.64 26.767 316.273 166.4 343.04 343.04h-179.2v122.88h179.2c-26.767 176.64-166.4 316.273-343.04 343.04z"/></svg>