<svg width="64" height="64" viewBox="0 0 1024 1024" xmlns="http://www.w3.org/2000/svg"><path d="M825.303 137.114c0 41.793-33.77 75.674-75.428 75.674s-75.428-33.88-75.428-75.674c0-41.793 33.77-75.674 75.428-75.674s75.428 33.88 75.428 75.674zM271.565 864.297L20.48 611.717l.102 44.114 233.697 235.254c26.849 29.184 72.847-4.567 72.847-4.567l-22.057-23.695s-21.729 14.295-32.973 2.13l-.532-.655zM20.48 389.12h266.24v20.48H20.48v-20.48zm953.754-71.803l29.286 13.865L711.782 921.6h-32.297zm-484.127-48.333L372.695 404.93c-6.902 8.602-17.49 13.967-29.307 13.967-21.053 0-37.97-17.08-37.97-38.093 0-11.387 4.895-21.545 12.8-28.488l126.546-146.227c7.004-8.376 17.49-13.742 29.286-13.742l183.255-.102c13.476 0 25.518 5.489 34.427 13.967L808.57 323.399l96.809-96.85a38.74 38.74 0 0 1 25.17-9.277c21.729 0 39.219 17.654 39.219 39.322 0 9.482-3.236 18.084-8.806 24.904L844.226 399.463c-35.41 35.533-63.959 5.366-63.959 5.366l-71.598-72.151L596.705 462.48l102.584 102.871s21.606 20.111 9.257 60.211l-57.487 256.942c-4.567 22.344-24.289 39.096-47.78 39.096-26.931 0-48.804-21.873-48.804-48.927 0-4.26.43-8.376 1.577-12.308l47.227-210.883-116.511-113.521-100.25 112.046s-16.261 20.111-59.269 18.555l-203.284.348c-22.733.43-43.336-15.217-48.456-38.216-6.021-26.358 10.24-52.285 36.536-58.081 4.116-.922 8.233-1.352 12.247-1.126l174.899.43 258.56-300.605-67.645-.328zm448.389 656.057c-.061 19.804-16.466 37.519-36.147 37.519H307.2v20.48h595.067c33.116.184 60.129-25.375 60.293-58.655l-24.064.655z"/></svg>