<svg width="64" height="64" viewBox="0 0 1024 1024" xmlns="http://www.w3.org/2000/svg"><path d="M508.867 558.449c72.643 0 106.312 55.091 113.377 133.366 1.659 18.719-.02 46.019-2.458 77.64-8.151 105.021-17.531 234.066 52.367 234.066 59.187 0 89.518-113.459 107.09-242.811 16.916-128.041-1.044-191.754 7.823-248.627 16.814-107.725 110.838-204.308 81.797-341.668-16.097-76.206-58.081-112.026-99.615-127.119C673.524 8.46 611.675 75.593 508.865 75.593c-102.789 0-164.598-67.133-260.362-32.297-41.513 15.073-83.517 50.913-99.656 127.119-28.979 137.359 65.024 233.923 81.9 341.668 8.786 56.852-9.073 120.586 7.823 248.627 17.531 129.352 47.923 242.811 107.049 242.811 69.857 0 60.539-129.044 52.388-234.066-2.376-31.642-4.178-58.941-2.478-77.66 7.045-78.254 41.206-133.345 113.336-133.345z"/></svg>