<svg width="64" height="64" viewBox="0 0 1024 1024" xmlns="http://www.w3.org/2000/svg"><path d="M879.084 266.24H778.24V159.212c0-76.513-60.375-138.732-137.093-138.732H382.874c-76.759 0-137.114 62.218-137.114 138.732V266.24H144.896c-68.731 0-124.416 53.064-124.416 121.59v471.183c0 68.506 55.685 124.027 124.416 124.027h734.188c68.71 0 124.436-55.521 124.436-124.047V387.83c0-68.526-55.726-121.59-124.436-121.59zM327.68 159.212c0-28.652 26.46-56.812 55.194-56.812h258.273c28.652 0 55.173 28.16 55.173 56.812V266.24H327.68V159.212zM737.28 716.8H593.92v143.36H430.08V716.8H286.72V552.96h143.36V409.6h163.84v143.36h143.36V716.8z"/></svg>