<svg width="64" height="64" viewBox="0 0 1024 1024" xmlns="http://www.w3.org/2000/svg"><path d="M506.225 1003.52c-236.339 0-428.626-192.287-428.626-428.646 0-151.265 77.332-288.42 206.889-366.858 27.771-16.814 63.857-7.926 80.65 19.804s7.905 63.836-19.804 80.65c-94.106 56.975-150.282 156.59-150.282 266.404 0 171.602 139.592 311.194 311.194 311.194s311.173-139.592 311.173-311.194c0-111.616-60.293-215.347-157.43-270.643-28.201-16.056-38.011-51.896-21.975-80.077 16.056-28.16 51.896-37.99 80.077-21.955 133.734 76.145 216.781 218.972 216.781 372.695-.02 236.339-192.266 428.626-428.646 428.626zm-4.465-434.504c-32.42 0-71.68-26.296-71.68-58.716V87.531c0-32.42 39.26-58.716 71.68-58.716s71.68 26.296 71.68 58.716V510.3c0 32.42-39.26 58.716-71.68 58.716z"/></svg>