<svg width="64" height="64" viewBox="0 0 1024 1024" xmlns="http://www.w3.org/2000/svg"><path d="M234.742 20.48c-27.914 0-50.422 23.081-50.422 51.732v879.534c0 25.846 25.211 51.753 50.422 51.753 25.19 0 50.401-25.928 50.401-51.753V421.437c17.224-7.516 33.976-12.943 50.422-12.943 100.823 0 249.549 129.372 352.891 129.372 44.052 0 107.131-17.838 151.224-51.753V123.945c-50.012 38.482-100.68 77.619-151.224 77.619-100.823 0-251.72-129.352-352.891-129.352-16.998 0-33.587 3.113-50.422 6.472v-6.472c0-28.652-22.508-51.732-50.401-51.732z"/></svg>