<svg width="64" height="64" viewBox="0 0 1024 1024" xmlns="http://www.w3.org/2000/svg"><path d="M552.96 94.72c0 46.657-37.823 84.48-84.48 84.48S384 141.377 384 94.72c0-46.657 37.823-84.48 84.48-84.48s84.48 37.823 84.48 84.48zm121.098 560.64L553.042 322.826a8.641 8.641 0 0 1-.696-3.42c0-4.854 4.076-8.786 9.155-8.786 4.321 0 7.946 2.888 8.909 6.738l82.268 215.122c5.468 12.308 27.955 20.48 42.742 20.48 19.763 0 21.811-38.81 21.381-40.96l-82.268-212.111c-7.148-47.534-55.153-95.089-109.937-95.089H417.383c-54.784 0-106.353 47.555-113.5 95.089L225.301 512c-1.782 4.076 0 40.96 21.361 40.96 16.609 0 38.707-5.796 42.742-20.48l79.36-216.044c1.27-3.4 4.669-5.816 8.622-5.816 5.059 0 9.134 3.932 9.134 8.765 0 1.106-.184 2.171-.573 3.133L268.044 655.359c-.225.983 0 19.476 0 20.48 0 7.086 17.101 20.48 24.535 20.48h76.063v268.186c0 21.299 18.76 39.014 40.96 39.014s40.96-17.736 40.96-39.014v-268.37c0-5.796 40.96-5.612 40.96.184v266.24c0 21.299 18.78 40.96 40.96 40.96 22.241 0 40.96-19.681 40.96-40.96v-266.24h79.237c7.414 0 21.381-13.394 21.381-20.48 0-1.638.594-19.067 0-20.48z"/></svg>