<svg width="64" height="64" viewBox="0 0 1024 1024" xmlns="http://www.w3.org/2000/svg"><path d="M880.64 245.76H0v532.48h1024V245.76H880.64zm102.4 394.67c-47.677 13.169-83.681 49.132-96.85 96.85H137.81c-13.189-47.677-49.152-83.681-96.85-96.85V383.57c47.698-13.189 83.661-49.152 96.85-96.85h748.851c13.763 46.223 50.156 82.616 96.379 96.379V640.43zm-427.704-86.344c-4.71-2.867-2.376-5.509-22.856-7.946v59.331c0-.573 8.847-1.27 11.223-2.089 15.196-5.325 22.815-15.258 22.815-29.716 0-8.376-3.748-14.971-11.182-19.579zm-92.181-96.809c0 9.114 4.157 15.974 12.431 20.48 3.174 1.782 8.52 3.768 15.913 5.919V427.54c-6.021 1.413-11.305 3.543-15.749 6.451-8.397 5.571-12.595 13.353-12.595 23.286zM512 307.2c-101.806 0-184.32 91.709-184.32 204.8 0 113.07 82.514 204.8 184.32 204.8S696.32 625.07 696.32 512c0-113.091-82.514-204.8-184.32-204.8zm78.93 320.594c-13.906 11.878-37.97 19.149-58.45 21.893v26.153h-40.96v-26.624c-21.381-2.908-39.096-6.144-53.002-17.101-19.292-15.196-28.918-38.195-28.918-58.675h50.954c1.659 0 4.895 16.404 9.728 22.2 5.018 5.96 12.145 6.656 21.238 9.175v-69.734c-24.924-5.755-42.291-11.96-51.937-18.637-17.224-11.776-25.825-30.228-25.825-55.296 0-22.876 8.417-41.882 25.272-57.016 12.861-11.571 30.392-18.678 52.49-21.422v-34.55h40.96v35.635c20.48 3.052 34.324 12.554 47.104 22.036 19.231 14.275 32.768 24.248 33.69 65.208h-51.323c-.963-20.48-11.244-29.327-24.003-35.799-.676-.328-5.468-3.953-5.468-4.239v64.369l18.473 3.564c19.64 4.628 37.806 10.813 47.596 18.534 15.237 12.042 21.135 29.43 21.135 52.163.041 23.347-10.732 42.721-28.754 58.163z"/></svg>