<svg width="64" height="64" viewBox="0 0 1024 1024" xmlns="http://www.w3.org/2000/svg"><path d="M49.664 688.415c-.676-.758-.922-1.454-.922-2.437 0-1.987 1.393-3.666 3.461-3.666l99.574.266c5.059 0 8.97-4.157 8.97-9.298 0-3.912-1.843-6.615-5.53-8.806l-90.399-45.711c-1.597-1.208-2.765-3.154-2.765-5.386 0-1.72.696-3.441 1.618-4.424 0 0 237.24-222.945 762.02-6.799l144.2-74.834a9.958 9.958 0 0 1 4.833-1.249c5.96 0 11.059 5.407 11.059 11.756 0 2.437-.696 4.403-1.638 6.083l-85.074 112.456 85.074 112.497c.942 1.7 1.638 3.891 1.638 6.083 0 6.595-5.1 11.981-11.059 11.981-1.823 0-3.461-.492-4.833-1.208l-144.2-75.059c.02.02-501.76 212.214-776.028-22.241zm160.072-45.937c19.087 0 34.161-16.179 34.161-36.291 0-20.46-15.073-36.557-34.161-36.557-18.842 0-33.915 16.097-33.915 36.557 0 20.111 15.073 36.291 33.915 36.291zM655.36 266.24v122.88h290.202c31.949 0 57.958-27.464 57.958-61.44 0-34.243-26.01-61.44-57.958-61.44H655.36zm-534.61 88.474l26.46-11.735 16.548 30.085 26.685-20.541 19.087 28.365 25.539-22.016 20.705 26.911 24.146-23.47 21.955 25.641 23.245-24.678 23.224 24.678 23.224-24.678 22.999 24.678 23.245-24.678 23.142 24.678 23.245-24.678 23.224 24.678 22.999-24.678 23.245 24.678 23.245-24.678 23.224 24.678 27.177-24.678 27.566 24.699V266.242h-614.4v.737c20.48 35.43 61.87 65.516 100.27 87.736z"/></svg>