<svg width="64" height="64" viewBox="0 0 1024 1024" xmlns="http://www.w3.org/2000/svg"><path d="M513.556 154.747c36.311 0 65.597-29.204 65.597-65.413 0-35.942-29.286-65.393-65.597-65.393s-65.597 29.45-65.597 65.393c0 36.188 29.286 65.413 65.597 65.413zm411.403 749.732c-18.084-8.397-38.441-13.292-59.761-13.292-21.074 0-41.431 4.895-59.761 13.292-17.551 7.721-37.233 12.39-57.836 12.39s-40.53-4.69-58.122-12.39c-18.043-8.397-38.4-13.292-59.72-13.292s-41.718 4.895-59.761 13.292c-17.797 7.721-37.478 12.39-58.081 12.39-20.623 0-40.305-4.69-58.102-12.39-18.043-8.397-38.42-13.292-59.74-13.292-21.074 0-41.452 4.895-59.74 13.292-17.572 7.721-37.192 12.39-57.692 12.39-20.603 0-40.53-4.69-58.102-12.39-18.043-8.397-38.42-13.292-59.74-13.292s-41.697 4.895-59.74 13.292C81.264 912.2 61.583 916.89 40.959 916.89v86.63c20.623 0 40.305-4.444 58.102-12.39 18.043-8.397 38.42-13.292 59.74-13.292s41.697 4.895 59.74 13.292c17.551 7.946 37.499 12.39 58.102 12.39 20.5 0 40.12-4.444 57.692-12.39 18.289-8.397 38.646-13.292 59.74-13.292 21.32 0 41.697 4.895 59.74 13.292a142.25 142.25 0 0 0 58.102 12.39c20.603 0 40.284-4.444 58.081-12.39 18.043-8.397 38.441-13.292 59.761-13.292s41.677 4.895 59.72 13.292c17.592 7.946 37.519 12.39 58.122 12.39s40.284-4.444 57.836-12.39c18.33-8.397 38.687-13.292 59.761-13.292 21.32 0 41.677 4.895 59.761 13.292a142.081 142.081 0 0 0 58.081 12.39v-86.63c-20.603 0-40.325-4.69-58.081-12.411zm5.406-883.118c-4.71-1.864-11.837-.717-15.606 2.806L674.795 265.749c-3.748-1.638-8.724.492-13.189.492h-90.644c-15.483-20.48-97.464-100.475-97.464-100.475-4.198-4.219-9.605-8.09-14.991-9.482-18.739-16.364-47.084-16.896-65.126 1.085L253.134 298.067c-5.386 5.366-7.373 12.452-7.373 20.398v91.136h-204.8v40.96h204.8v235.991c0 29.204 21.873 52.797 51.057 52.797 29 0 51.343-23.593 51.343-52.797V450.561h143.36v307.2H40.961v61.44h491.52v-368.64h61.44v-40.96h-245.76v-16.876l132.608-131.707 54.129 55.521c5.816 6.062 14.254 11.141 22.938 11.141h103.752c17.859 0 34.734-2.724 34.734-20.48 0-4.219 1.352-16.732 0-20.48 56.689-56.525 204.8-195.523 225.28-223.785V819.2h20.48V33.034c0-5.14-7.045-9.564-11.715-11.674z"/></svg>