<svg width="64" height="64" viewBox="0 0 1024 1024" xmlns="http://www.w3.org/2000/svg"><path d="M1001.349 310.354L920.76 942.08h-272.2L568.299 307.2h332.308l65.679-226.857 37.233 11.223-63.017 218.317 60.846.471zM529.818 675.84s10.179-81.92-130.97-81.92H174.06c-140.943 0-130.97 81.92-130.97 81.92h486.728zM43.09 860.16s-9.974 81.92 130.97 81.92h224.809c141.148 0 130.97-81.92 130.97-81.92H43.091zm465.613-40.96c23.101 0 41.759-22.815 41.759-51.18 0-28.529-18.657-51.22-41.759-51.22H62.259c-22.999 0-41.779 22.692-41.779 51.22 0 28.365 18.78 51.18 41.779 51.18h446.444z"/></svg>