<svg width="64" height="64" viewBox="0 0 1024 1024" xmlns="http://www.w3.org/2000/svg"><path d="M952.218 225.28H72.11c-28.303 0-51.466 25.743-51.466 51.2s23.163 51.18 51.466 51.18h12.431v102.4h856.494v-102.4h11.182c28.324 0 51.466-25.723 51.466-51.18s-23.142-51.2-51.466-51.2zM512.164 379.29c-14.213 0-25.723-11.858-25.723-26.46s11.51-26.46 25.723-26.46c14.234 0 25.723 11.858 25.723 26.46s-11.489 26.46-25.723 26.46zM84.541 634.839h856.494V471.04H84.541v163.799zM512.164 524.78c14.234 0 25.723 11.837 25.723 26.44 0 14.623-11.489 26.46-25.723 26.46-14.213 0-25.723-11.837-25.723-26.46-.02-14.602 11.51-26.44 25.723-26.44zM84.541 776.09v119.071c0 14.541 1.823 26.46 15.974 26.46h102.892c14.152 0 20.562-11.919 20.562-26.46V819.18h577.638v75.981c0 14.541 5.161 26.46 19.292 26.46h102.912c14.111 0 17.203-11.919 17.203-26.46v-219.32H84.54v100.25zm427.623-52.9c14.234 0 25.723 11.858 25.723 26.44 0 14.643-11.489 26.44-25.723 26.44-14.213 0-25.723-11.796-25.723-26.44-.02-14.561 11.51-26.44 25.723-26.44z"/></svg>