<svg width="64" height="64" viewBox="0 0 1024 1024" xmlns="http://www.w3.org/2000/svg"><path d="M923.689 206.438c11.244-11.244 27.075-23.47 43.233-38.216l14.93-12.513-40.694-45.67-13.292 12.431c-56.238 51.098-90.071 81.981-106.598 145.285-16.404 62.935-17.06 126.648-15.34 186.204 1.802 61.399 4.116 101.908 21.279 147.087l6.472 16.65c16.466 41.431 41.39 104.018 41.39 184.525 0 97.26-39.404 146.596-117.105 146.596-70.697 0-108.831-47.186-113.295-140.411-2.028-41.308 9.564-92.303 21.75-146.186 10.301-45.486 20.91-92.549 26.132-142.5 5.775-55.071-1.454-94.433-22.61-118.067-27.156-30.331-68.956-33.014-105.779-33.014h-11.203V84.766c0-24.576-17.838-43.807-42.271-43.807H87.96c-24.392 0-47.002 19.231-47.002 43.807v898.273h512v-552.96h11.223c25.19 0 51.282 2.826 60.15 12.718 4.751 5.325 12.042 22.569 7.229 69.079-4.854 46.367-15.135 92.221-25.047 135.905-13.128 58.143-25.58 113.439-23.122 163.287 6.042 126.546 69.714 199.27 174.572 199.27 111.759 0 178.483-77.783 178.483-208.241 0-92.344-28.57-164.291-45.711-207.401l-6.185-15.708c-12.329-32.543-15.094-62.71-16.794-115.343 19.722-.451 43.602-.922 54.333-.922 24.556 0 36.905-14.397 42.168-39.342 3.072-14.541-1.679-33.608-1.679-68.219v-9.175c-.02-91.484-14.008-117.617-38.892-139.551zM491.52 389.12H102.4V122.88h389.12v266.24zm409.6-33.874c0 17.879 4.71 34.98 4.116 45.855-12.247.184-26.337.512-40.673.84.532-39.506 4.915-79.729 15.012-118.456 2.744-10.322 1.925-19.415 6.062-27.894 10.916 10.506 15.483 26.255 15.483 90.44v9.216z"/></svg>