<svg width="64" height="64" viewBox="0 0 1024 1024" xmlns="http://www.w3.org/2000/svg"><path d="M983.04 860.16c0 45.243-36.677 81.92-81.92 81.92s-81.92-36.677-81.92-81.92 36.677-81.92 81.92-81.92 81.92 36.677 81.92 81.92zm-593.92 0c0 45.243-36.677 81.92-81.92 81.92s-81.92-36.677-81.92-81.92 36.677-81.92 81.92-81.92 81.92 36.677 81.92 81.92zm573.44-184.32H322.99l13.66-22.159a40.994 40.994 0 0 0 4.772-31.805l-13.332-51.323 593.572-30.843c22.508-1.147 40.899-20.541 40.899-43.069v-271.36c0-22.528-18.432-40.96-40.96-40.96H227.718l-8.008-30.781c-4.69-18.063-20.992-30.659-39.649-30.659h-139.1c-22.61 0-40.96 18.35-40.96 40.96s18.35 40.96 40.96 40.96h107.438l109.363 420.762-43.008 69.734c-7.782 12.636-8.131 28.508-.881 41.452a40.895 40.895 0 0 0 35.738 21.012h712.95c22.61 0 40.96-18.35 40.96-40.96s-18.35-40.96-40.96-40.96z"/></svg>