<svg width="64" height="64" viewBox="0 0 1024 1024" xmlns="http://www.w3.org/2000/svg"><path d="M367.862 919.02c7.66 8.253 7.209 21.32-1.024 29l-44.483 41.595c-8.233 7.68-21.238 7.229-28.897-1.044L34.406 709.388c-7.66-8.253-7.188-21.299 1.044-29l44.544-41.533c8.233-7.7 21.238-7.229 28.897 1.044l258.97 279.122zm330.547-525.312c7.66 8.253 7.188 21.32-1.044 29l-279.962 261.53c-8.233 7.68-21.238 7.229-28.897-1.044l-66.826-72.11c-7.66-8.253-7.188-21.32 1.044-29l279.9-261.53c8.212-7.68 21.217-7.229 28.877 1.044l66.908 72.11zM463.114 829.993c7.66 8.253 7.188 21.299-1.044 29l-44.544 41.574c-8.233 7.7-21.238 7.229-28.897-1.044L129.721 620.34c-7.66-8.253-7.209-21.32 1.024-29l44.462-41.554c8.233-7.68 21.238-7.229 28.897 1.044l259.011 279.163zm431.37-426.271c7.66 8.253 7.188 21.32-1.065 29l-44.524 41.574c-8.233 7.68-21.238 7.229-28.918-1.024L561.028 194.15c-7.68-8.253-7.209-21.299 1.024-29l44.646-41.677c8.212-7.68 21.217-7.229 28.877 1.044l258.908 279.204zm95.11-88.883c7.66 8.253 7.188 21.32-1.044 29.02l-44.442 41.554c-8.212 7.7-21.217 7.229-28.877-1.024L656.323 105.144c-7.66-8.253-7.209-21.32 1.024-29.02l44.483-41.636c8.212-7.7 21.197-7.25 28.856 1.024l258.908 279.327z"/></svg>