<svg width="64" height="64" viewBox="0 0 1024 1024" xmlns="http://www.w3.org/2000/svg"><path d="M590.93 588.431c26.563 8.991 55.439-4.506 64.717-30.454 9.236-25.887-4.854-54.026-31.437-63.037-26.604-9.011-55.48 4.731-64.717 30.618-9.032 25.784 4.854 54.129 31.437 62.874zm416.727-322.662s-171.95-20.152-529.06-20.152C215.183 245.617 0 265.769 0 265.769s89.231 38.277 73.748 156.938c0 0 128.041-14.868 181.678 91.955l240.497-71.045-15.729 156.303-101.724 24.31c-9.011 2.028-16.63 6.308-22.856 11.694L132.443 845.783c-13.169 12.145-13.394 32.645-.676 45.22 12.472 12.861 33.505 13.312 46.449 1.147l167.916-157.573 204.329-48.64 34.202-8.561 31.437 34.918c4.854 5.161 11.776 8.315 19.19 8.315l110.715.43c13.885 0 25.416-11.018 25.416-24.76 0-11.94-8.54-21.156-19.866-23.88l-82.514-279.777 343.695-101.417c16.425-7.004 15.032-23.306-5.079-25.436zM726.835 671.273c-25.19 0-67.277-.225-79.974-.225a164765.052 164765.052 0 0 0-59.658-65.741c-.676-.901-1.843-1.126-2.54-1.802-12.022-13.722-31.191-20.91-50.36-16.445l-29.839 7.229 15.954-157.88 125.952-37.13 80.466 271.995z"/></svg>