<svg width="64" height="64" viewBox="0 0 1024 1024" xmlns="http://www.w3.org/2000/svg"><path d="M257.044 1013.453c-6.963 12.206-26.788 14.131-44.278 4.096L103.28 955.228c-17.408-9.933-25.907-27.894-18.924-40.079L550.01 176.988c66.97-108.257-167.117-98.714-224.584-66.847C368.885 32.215 507.391 6.492 597.216 0l26.132 1.7c50.77 25.293 123.576 63.242 171.561 95.068 35.246 55.357 72.417 84.5 125.051 84.357 68.69 52.634-38.605 196.219-106.107 129.72.369-32.85-94.945-117.842-161.71-47.821l-395.1 750.428z"/></svg>