<svg width="64" height="64" viewBox="0 0 1024 1024" xmlns="http://www.w3.org/2000/svg"><path d="M1003.52 348.16c0-11.264-9.216-20.48-20.48-20.48H716.8c-11.264 0-20.48-9.216-20.48-20.48V40.96c0-11.264-9.216-20.48-20.48-20.48H348.16c-11.264 0-20.48 9.216-20.48 20.48V307.2c0 11.264-9.216 20.48-20.48 20.48H40.96c-11.264 0-20.48 9.216-20.48 20.48v327.68c0 11.264 9.216 20.48 20.48 20.48H307.2c11.264 0 20.48 9.216 20.48 20.48v266.24c0 11.264 9.216 20.48 20.48 20.48h327.68c11.264 0 20.48-9.216 20.48-20.48V716.8c0-11.264 9.216-20.48 20.48-20.48h266.24c11.264 0 20.48-9.216 20.48-20.48V348.16z"/></svg>