<svg width="64" height="64" viewBox="0 0 1024 1024" xmlns="http://www.w3.org/2000/svg"><path d="M563.384 196.178c12.39 11.346 24.125 22.057 32.932 35.512l4.895 7.475 8.09-3.85c22.487-10.752 37.827-27.955 52.654-44.585 11.182-12.534 21.75-24.392 35-33.3l8.233-5.55-5.304-8.417c-23.081-36.618-53.187-67.092-89.457-90.604l-7.598-4.936-5.816 6.963a638.112 638.112 0 0 1-75.039 75.96l-5.919 5.079 3.318 7.066c10.65 22.671 27.607 38.175 44.012 53.187zM695.091 351.15c76.984 0 140.022-31.457 177.5-88.596l4.465-6.799-5.591-5.898c-6.513-6.84-12.739-13.988-18.964-21.135-18.575-21.32-37.806-43.356-64.881-57.979l-9.441-5.1-4.649 9.708c-31.662 65.946-92.959 79.79-138.793 79.79-80.343 0-176.906-44.831-219.832-102.093l-33.792-45.076 15.79 54.088c29.348 100.741 168.714 189.092 298.189 189.092zM429.425 527.954c31.99-60.867 33.321-132.137 3.379-196.751-29.532-63.775-84.193-108.728-146.186-120.32-13.128-2.458-26.071-3.666-38.482-3.666-75.284 0-124.559 43.95-172.196 86.426-17.347 15.462-33.731 30.167-51.22 42.639l-12.227 8.929 12.575 8.622c4.014 2.601 14.111 17.94 22.241 29.614 25.805 37.069 47.309 67.113 70.164 67.113h.02c8.049 0 15.565-9.544 41.759-38.994 11.039-12.39 23.532-28.14 30.228-33.444 29.942-23.777 70.984-56.34 115.814-56.34a91.97 91.97 0 0 1 18.043 1.782c20.746 4.157 33.28 13.763 38.298 29.389 10.281 32.01-13.332 81.08-33.587 102.748-10.22 10.957-21.402 18.842-33.26 27.197-16.998 11.981-34.57 24.392-49.091 46.203l-4.71 7.086 6.124 5.939c8.847 8.561 17.633 17.162 26.419 25.764 22.733 22.262 46.244 45.281 70.369 67.031l8.09 7.291 6.799-8.52c15.299-19.19 31.437-39.608 47.268-60.477 4.26 6.328 8.786 12.8 13.435 19.436 34.918 49.93 74.506 106.516 48.681 180.47-19.231 55.112-84.173 90.993-157.327 85.729-86.508-6.062-163.512-79.913-235.459-225.772-4.485-9.114-8.172-19.333-11.735-29.225-8.335-23.142-16.978-47.063-37.089-61.932L6.389 527.012l3.973 24.76c21.115 131.727 83.005 258.847 165.581 340.05 49.951 49.193 131.912 80.978 208.794 80.978 88.822 0 183.992-46.162 184.648-175.718.573-121.344-74.363-200.151-134.595-263.475l-5.366-5.652zm560.517-111.268c-23.859-44.38-113.562-76.739-158.556-66.888-68.157 14.868-115.937 53.432-158.106 87.47-43.151 34.857-80.445 64.942-130.212 64.942-14.95 0-30.249-2.662-46.756-8.11l-26.214-8.663 14.213 23.654c32.645 54.333 70.758 80.753 116.511 80.753 37.171-.02 75.223-17.838 112.927-40.919l8.458 25.068c19.149 56.709 102.502 140.82 178.381 140.82 1.516 0 3.031-.041 4.547-.123 33.116-1.475 60.764-20.132 79.974-54.006 39.363-69.366 34.918-188.129 4.833-243.999zM765.87 514.703c55.951-38.031 114.729-77.087 162.877-68.588 20.951 36.413 12.39 67.768 1.249 87.921-21.258 38.359-67.83 65.167-113.295 65.167-21.422 0-52.163-6.103-76.984-35.144l-17.469-20.419c14.602-9.236 29.164-19.128 43.622-28.938z"/></svg>