<svg width="64" height="64" viewBox="0 0 1024 1024" xmlns="http://www.w3.org/2000/svg"><path d="M757.76 20.48c-11.264 0-20.48 9.216-20.48 20.48v286.72c0 11.264-9.216 20.48-20.48 20.48H307.2c-11.264 0-20.48-9.216-20.48-20.48V40.96c0-11.264-9.216-20.48-20.48-20.48H81.92c-11.264 0-20.48 9.216-20.48 20.48v942.08c0 11.264 9.216 20.48 20.48 20.48h184.32c11.264 0 20.48-9.216 20.48-20.48V655.36c0-11.264 9.216-20.48 20.48-20.48h409.6c11.264 0 20.48 9.216 20.48 20.48v327.68c0 11.264 9.216 20.48 20.48 20.48h184.32c11.264 0 20.48-9.216 20.48-20.48V40.96c0-11.264-9.216-20.48-20.48-20.48H757.76z"/></svg>