<svg width="64" height="64" viewBox="0 0 1024 1024" xmlns="http://www.w3.org/2000/svg"><path d="M893.604 200.765c49.5 0 89.436-40.448 89.436-90.153 0-49.807-39.936-90.132-89.436-90.132-49.234 0-89.17 40.325-89.17 90.132-.02 49.705 39.936 90.153 89.17 90.153zM634.88 983.04h245.76s20.48-2.109 20.48-20.48v-20.48h20.48s8.417 55.48-38.031 61.44H634.88v-20.48zM61.44 798.72l163.84 163.84s13.496 5.079 26.44-7.864l12.943-13.046 22.057 20.91s-36.762 53.658-73.81 24.719L40.96 813.609l20.48-14.889zm632.934-66.519l.287 163.185c0 30.679 21.627 55.521 52.019 55.521 27.873 0 52.04-32.461 52.04-55.521V668.304c0-15.811-3.564-30.167-14.09-40.284L653.968 495.146l175.841-176.742c32.911-41.452 15.933-91.156 15.933-91.156-18.084-55.132-79.913-57.037-79.913-57.037l-451.154-.123c-23.982 0-43.54 19.64-43.54 43.971 0 24.474 19.62 43.991 43.622 43.991l311.542.492-131.113 131.85c-18.821 19.395-28.365 41.206-28.365 69.714 0 27.382 10.793 51.855 28.897 69.734l198.656 202.363zm-226.57-177.48c-4.26-4.055-8.049-8.479-11.53-13.189L195.932 804.864c-19.702 15.974-26.112 44.114-14.295 67.564 13.558 26.87 46.346 37.54 72.95 23.716 3.645-1.925 6.922-4.198 10.056-6.717l267.223-270.172-64.061-64.532z"/></svg>