<svg width="64" height="64" viewBox="0 0 1024 1024" xmlns="http://www.w3.org/2000/svg"><path d="M1003.52 970.65c-225.28 3.297-468.992-40.796-655.237-189.44-.963-1.188 1.516-2.355 1.516-4.28 0-3.297 4.465-6.144 8.028-6.144l183.931.246c9.073 0 16.65-7.127 16.65-16.138 0-6.615-2.929-11.141-9.81-14.705l-165.663-78.705c-3.338-1.905-5.181-5.222-5.181-9.236 0-3.092-5.161-5.693-3.256-7.598 0 0 198.922-177.562 629.002-173.527v499.528zM627.487 689.439c21.729 0 39.363-17.531 39.363-39.076 0-21.606-17.633-38.912-39.363-38.912-21.484 0-39.117 17.326-39.117 38.912 0 21.545 17.633 39.076 39.117 39.076zM20.48 40.96H204.8v143.36H20.48V40.96zm368.64 0h614.4v143.36h-614.4V40.96zM286.72 256c-20.48 4.977-26.604 19.681-26.604 36.721 0 17.08 6.124 31.785 26.604 37.233v240.64c0 31.048-29.532 55.931-60.785 55.931-31.007 0-58.368-24.904-58.368-55.931 0-7.578.266-14.93 3.133-21.586l1.802 1.905 19.517 18.043-12.554-109.793-32.276 73.994c-9.769 22.753-7.434 37.437-7.434 37.437 0 44.81 38.564 81.326 83.64 81.326 45.322 0 83.763-36.516 83.763-81.326V329.483c20.48-5.468 26.235-19.907 26.235-36.762 0-17.06-5.755-31.764-26.235-37.192V40.96h-20.48V256z"/></svg>