<svg width="64" height="64" viewBox="0 0 1024 1024" xmlns="http://www.w3.org/2000/svg"><path d="M720.466 20.48c-46.203 0-83.702 38.072-83.702 84.767 0 46.879 37.499 84.726 83.702 84.726 46.469 0 84.111-37.847 84.111-84.726 0-46.694-37.663-84.767-84.111-84.767zM86.774 604.979c-7.25-11.796-22.487-15.38-34.079-8.09-11.694 7.352-15.217 22.712-7.946 34.529 7.291 11.571 22.467 15.135 34.324 7.967 11.448-7.393 14.95-22.733 7.7-34.406zm17.244 69.141c-7.25-11.571-22.487-15.155-34.304-7.803-11.469 7.209-14.971 22.671-7.721 34.243 7.27 11.981 22.508 15.38 33.956 8.09 11.694-7.373 15.237-22.753 8.069-34.529zm17.142 69.365c-7.148-11.919-22.692-15.36-34.181-8.008-11.817 7.291-15.217 22.63-7.926 34.529 7.148 11.551 22.671 15.073 34.161 7.782 11.715-7.27 15.217-22.753 7.946-34.304zm17.039 69.141c-7.25-11.571-22.487-15.135-33.935-8.11-11.837 7.578-15.237 22.917-8.09 34.611 7.27 11.796 22.508 15.36 34.304 8.008 11.469-7.352 14.991-22.733 7.721-34.509zM541.02 953.549c-13.169 4.424-20.46 18.452-16.241 31.683 4.342 13.292 18.309 20.378 31.273 16.282 13.046-4.28 20.296-18.35 16.22-31.416-4.239-13.23-18.207-20.439-31.252-16.548zm70.533.614c-13.107 3.994-20.214 18.248-16.036 31.273 4.219 13.312 18.268 20.644 31.252 16.364 12.923-4.178 20.173-18.412 15.995-31.498-4.301-13.066-18.002-20.419-31.212-16.138zm70.963.225c-13.271 4.219-20.562 18.248-16.22 31.539 4.178 13.046 18.166 20.378 31.252 16.118 12.943-3.994 20.152-18.166 15.831-31.478-3.932-13.087-17.94-20.48-30.863-16.179zm70.431.287c-12.923 4.28-20.193 18.35-16.036 31.457 4.321 13.189 18.33 20.378 31.252 16.2 13.025-4.301 20.152-18.166 16.036-31.355-4.219-13.292-18.268-20.398-31.252-16.302zM921.559 348.16H775.004l-72.479-118.518c-12.513-26.767-38.728-45.179-69.693-46.428-6.042-.307-11.51.594-17.06 1.823l-368.394 87.511c-22.282 5.263-36.25 27.587-30.925 50.278 4.997 22.487 26.931 36.393 49.193 31.314l245.985-44.81-186.962 325.55H124.682l44.278 161.649c1.495 5.243 1.495-.532 3.215 2.232 6.226 10.281 19.538 10.056 29.491 3.789 5.448-3.215 8.991-10.609 9.994-16.466l26.481-82.309 1.004-3.768s122.307-.717 123.228-.717c24.535 0 45.548-6.861 58.02-27.648l56.689-94.884 126.177 129.495L549.786 921.6h185.201c11.919 0 21.688-12.472 21.688-24.351 0-9.4-5.755-17.224-12.902-21.217l-79.954-45.384 38.38-153.088s9.523-32.543-20.664-62.341L578.316 510.71s55.153-91.587 90.501-150.426l47.985 69.796h204.001c22.999 0 41.533-17.879 41.759-40.817.205-23.224-18.289-41.103-41.001-41.103z"/></svg>