<svg width="64" height="64" viewBox="0 0 1024 1024" xmlns="http://www.w3.org/2000/svg"><path d="M337.51 243.466c43.663-5.263 74.65-45.691 69.489-90.173-5.161-44.503-44.831-76.063-88.494-70.82-43.663 5.55-74.527 45.691-69.366 90.173 5.407 44.524 44.708 76.083 88.371 70.82zm654.173 382.198c-4.219-2.15-328.643-170.045-328.643-170.045l-82.371-108.114-5.1-1.208c-11.244-10.506-22.61-9.544-43.09 1.925v.246c0 8.602-4.547 21.279 1.126 31.58l63.078 80.343 1.249.737-50.176 118.374-134.185-34.222-5.734-49.05 110.572-13.599c4.936-.225 10.117-1.679 14.807-4.301 18.33-9.789 25.375-33.014 15.749-51.651-7.516-14.356-22.528-22.016-37.315-20.337l-112.62 13.865-10.097-85.135c-5.386-44.257-45.076-76.063-88.494-70.799-43.52 5.509-74.752 45.957-69.591 90.419l23.47 196.833c2.826 25.129 17.49 46.879 36.966 59.556l-176.886 21.524-55.153 139.182c2.109-.942 4.444-1.188 6.328-2.13 22.774-10.772 48.128-16.527 73.011-16.527s49.992 5.734 72.54 16.261c14.316 6.676 30.044 10.035 45.302 10.035 15.38 0 30.863-3.359 44.954-9.789 22.774-10.772 47.882-16.527 73.011-16.527 24.883 0 49.93 5.734 72.253 16.261 14.541 6.676 30.269 10.035 45.548 10.035 15.483 0 30.74-3.359 45.056-9.789 22.774-10.772 48.148-16.527 73.011-16.527s49.992 5.734 72.294 16.261c5.407 2.376 11.284 4.055 17.142 5.734 90.378-24.207 250.47-70.799 293.642-110.264 12.657-11.428 15.032-30.802-1.659-39.158zM20.48 942.08c20.664 0 40.612-4.772 58.225-12.902 18.063-8.622 38.502-13.619 59.863-13.619s41.554 4.997 59.863 13.619c17.592 8.131 37.315 12.902 57.979 12.902 20.541 0 40.264-4.772 58.102-12.902 18.063-8.622 38.482-13.619 59.863-13.619 21.135 0 41.554 4.997 59.802 13.619 17.613 8.11 37.335 12.902 57.999 12.902 20.644 0 40.366-4.772 58.204-12.902 18.104-8.622 38.502-13.619 59.884-13.619 21.115 0 41.554 4.997 59.617 13.619 17.818 8.131 37.54 12.902 58.184 12.902 20.685 0 40.387-4.772 57.999-12.902 18.33-8.622 38.748-13.619 59.863-13.619 21.34 0 41.083 4.997 59.126 13.619 17.613 8.131 37.028 12.902 57.508 12.902v-88.74c-20.48 0-39.895-4.731-57.528-12.882-18.043-8.643-38.134-13.414-59.474-13.414-21.115 0-41.37 4.772-59.679 13.414-17.613 8.131-37.233 12.882-57.917 12.882-20.644 0-40.305-4.731-58.143-12.882-18.063-8.643-38.482-13.414-59.597-13.414-21.381 0-41.779 4.772-59.884 13.414-17.838 8.131-37.54 12.882-58.184 12.882-20.664 0-40.366-4.731-57.979-12.882-18.248-8.643-38.666-13.414-59.802-13.414-21.361 0-41.8 4.772-59.863 13.414-17.838 8.131-37.56 12.882-58.102 12.882-20.664 0-40.387-4.731-57.979-12.882-18.309-8.643-38.502-13.414-59.863-13.414s-41.8 4.772-59.863 13.414c-17.613 8.151-37.56 12.882-58.225 12.882v88.74z"/></svg>