<svg width="64" height="64" viewBox="0 0 1024 1024" xmlns="http://www.w3.org/2000/svg"><path d="M951.828 423.158l-.266-2.068c-.573-2.888-1.638-5.796-2.601-7.414L819.2 204.8s-16.548-20.48-20.48-20.48H245.76L79.462 406.589l-1.966 2.048-.266.963c-1.311 2.068-2.437 4.403-3.441 7.168l-.676 1.987c-.983 3.4-1.434 6.349-1.311 10.772.143 2.867.655 5.714 1.577 8.684l.778 2.232c1.044 2.642 2.335 5.059 3.85 7.209l402.862 510.444c2.068 2.662 4.588 5.018 7.66 7.168l2.335 1.454c2.294 1.434 4.69 2.58 8.172 3.85l2.273.758c3.932 1.004 7.352 1.475 10.691 1.475 3.379 0 6.676-.451 11.121-1.597l2.724-.963c2.662-.942 5.059-2.109 7.946-3.891l1.802-1.126c3.092-2.191 5.571-4.567 6.943-6.431l402.555-509.809c1.802-2.335 3.318-4.956 5.12-9.605.983-2.58 1.413-5.079 1.638-6.574.184-1.044.307-2.109.307-2.642l.164-2.089c0-2.048-.225-4.096-.492-4.915zM735.969 409.6l57.303-103.69 57.262 103.69H735.969zm-34.365 61.44H837.55L610.959 758.067l90.644-287.027zm-33.628-92.529l-82.76-112.271H730.01l-62.034 112.271zM402.883 471.04h218.296L512 816.681 402.883 471.04zm21.647-61.44L512 290.898 599.47 409.6H424.53zm-61.604-40.387L324.997 266.24h113.807l-75.878 102.973zm50.156 388.875L186.471 471.04h135.967l90.644 287.048zM259.379 306.627L297.328 409.6H183.5l75.878-102.973z"/></svg>