<svg width="64" height="64" viewBox="0 0 1024 1024" xmlns="http://www.w3.org/2000/svg"><path d="M848.814 631.194c-20.419 0-39.916 4.874-57.201 13.271-17.08 7.68-35.901 12.329-55.665 12.329-19.702 0-38.543-4.649-55.603-12.329-17.306-8.397-36.803-13.271-57.201-13.271-20.193 0-39.711 4.874-57.221 13.271-16.855 7.68-35.656 12.329-55.398 12.329-19.763 0-38.83-4.649-55.706-12.329-17.285-8.397-36.782-13.271-57.221-13.271-20.398 0-39.895 4.874-57.18 13.271-17.06 7.68-35.881 12.329-55.521 12.329-19.743 0-38.584-4.649-55.644-12.329-17.265-8.397-36.557-13.271-56.955-13.271-20.439 0-38.953 4.874-56.259 13.271-17.019 7.7-34.12 12.329-54.6 12.329v86.262c20.48 0 37.581-4.69 54.641-12.349 17.285-8.376 36.311-13.251 56.75-13.251 20.398 0 39.444 4.874 56.709 13.251 14.377 6.513 30.167 10.199 46.551 11.407l-69.14 71.332c-21.996-14.152-51.2-11.612-70.267 8.172l-79.196 82.043c-21.996 22.794-22.016 59.72 0 82.739 22.2 22.794 57.876 22.794 79.831 0l79.217-82.022c17.961-18.657 21.074-46.51 9.851-68.608l95.232-98.55c6.513-2.13 12.78-3.727 18.842-6.513 17.285-8.376 36.803-13.251 57.18-13.251 20.439 0 39.936 4.874 57.221 13.251 16.876 7.66 35.942 12.349 55.706 12.349 19.743 0 38.523-4.69 55.398-12.349 17.49-8.376 37.028-13.251 57.221-13.251 20.398 0 39.895 4.874 57.201 13.251 17.06 7.66 35.901 12.349 55.603 12.349 19.763 0 38.584-4.69 55.665-12.349 17.285-8.376 36.782-13.251 57.201-13.251 20.378 0 40.161 4.874 57.651 13.251 16.794 7.68 35.574 12.349 56.054 12.349v-86.262c-20.48 0-39.26-4.649-56.074-12.329-17.51-8.376-37.294-13.271-57.672-13.271zm38.359-421.806l79.196-82.063c22.2-22.999 22.2-59.986 0-82.78-21.996-22.999-57.897-22.999-79.872 0l-79.176 82.063c-19.087 19.763-21.524 49.992-7.619 72.54l-98.488 102.195-195.625-75.1c-5.14-3.031-10.547-5.571-16.589-7.455-42.68-13.23-87.777 11.858-100.577 56.054L328.314 484.25c-.778 2.437-.983 7.27-1.208 7.27H61.439v110.735c20.48 0 28.733-3.502 41.984-9.523 21.75-10.465 45.548-16.056 69.345-16.056 23.757 0 47.555 5.591 68.874 15.852 14.111 6.492 28.59 9.728 43.397 9.728 14.93 0 29.43-3.215 42.906-9.523 21.975-10.465 45.978-16.056 69.714-16.056 24.023 0 47.555 5.345 69.366 15.852 13.681 6.492 28.713 9.728 43.52 9.728 14.828 0 29.348-3.215 43.028-9.523 21.77-10.465 45.998-16.056 69.571-16.056 24.207 0 47.555 5.345 69.284 15.852 13.926 6.492 28.979 9.728 43.52 9.728 14.848 0 29.635-3.215 43.09-9.523 21.77-10.465 45.998-16.056 69.775-16.056 3.994 0 20.378 1.29 36.577-9.851 28.692-13.005 39.485-20.439 64.573-36.372 20.685-13.128 37.028-38.932-7.885-38.932h-389.12l120.197-118.825 15.258 6.021c19.292 7.209 40.817-3.011 48.005-23.02 4.936-14.152 1.147-29.512-8.294-39.731l92.877-96.604c21.299 11.653 48.189 8.602 66.171-9.974zM518.82 491.52h-23.982l48.435-167.916 100.065 38.687L518.82 491.52zm-.656-370.422l-10.322 20.808c-6.738 14.152-20.623 21.934-36.577 21.934h-24.269c13.947 20.48 40.735 33.423 66.519 33.423 42.168 0 80.404-35.656 80.404-79.38v4.997h-72.151c-1.577 0-3.154-3.42-3.604-1.782zm-46.899 22.262c8.315 0 15.729-5.181 19.087-12.595l10.097-18.371c3.809-8.622 11.878-9.994 21.32-9.994h78.93c-10.342-40.96-47.329-77.455-91.054-77.455-51.876 0-93.839 41.329-93.839 95.232 0 8.602.901 23.183 3.154 23.183h52.306z"/></svg>