<svg width="64" height="64" viewBox="0 0 1024 1024" xmlns="http://www.w3.org/2000/svg"><path d="M6.042 564.859c8.397 65.024 63.836 115.22 131.174 115.22 67.256 0 122.655-50.196 131.072-115.22H6.042zm714.485 266.219c0 11.325-9.134 20.541-20.439 20.541H318.013c-11.223 0-20.48-9.216-20.48-20.541 0-11.244 9.236-20.337 20.48-20.337h382.054c11.305 0 20.46 9.093 20.46 20.337zm-420.761 31.007h418.55v59.126h-418.55v-59.126zm455.946-297.226c8.376 65.024 63.877 115.22 131.113 115.22 67.277 0 122.696-50.196 131.052-115.22H755.713zm254.956-41.144L903.291 375.808h57.405c13.967 0 25.211-11.448 25.211-25.6 0-14.029-11.264-25.354-25.211-25.354H656.609c-18.125-49.992-61.87-87.552-115.384-96.911v-79.811a25.426 25.426 0 0 0-25.498-25.518c-.778 0-1.536.164-2.376.266-.758-.102-1.577-.266-2.376-.266-14.111 0-25.457 11.325-25.457 25.518v79.77c-53.514 9.359-97.239 46.92-115.343 96.911H66.027c-13.865 0-25.17 11.325-25.17 25.354 0 14.172 11.305 25.6 25.17 25.6h54.784L13.414 523.674H0v27.32h274.391v-27.32h-13.476L153.559 375.808H402.78c0-5.775.635-11.448 1.495-16.876.881-2.56 1.475-5.161 1.475-7.844 9.38-39.526 40.264-70.922 79.77-80.548v280.515h-1.065c-2.191 105.513-52.388 197.53-126.853 249.242h311.583c-74.486-51.712-124.641-143.729-126.956-249.242h-.983V270.54c39.444 9.626 70.431 41.021 79.749 80.548.082 2.683.635 5.284 1.536 7.844.819 5.448 1.331 11.1 1.331 16.876h246.62L763.085 523.715h-13.394v27.32H1024v-27.32h-13.332zm-884.409 0H40.55l85.709-118.067v118.067zm21.934 0V405.648l85.709 118.067h-85.709zm727.696 0h-85.75l85.75-118.067v118.067zm21.831 0V405.648l85.811 118.067H897.72zM162.632 289.26c0 13.906-11.387 25.375-25.395 25.375-14.07 0-25.498-11.469-25.498-25.375 0-14.049 11.428-25.518 25.498-25.518 14.008-.02 25.395 11.469 25.395 25.518zm749.65-1.352c0 14.152-11.387 25.375-25.436 25.375-14.111 0-25.436-11.223-25.436-25.375 0-14.049 11.325-25.498 25.436-25.498 14.049 0 25.436 11.448 25.436 25.498z"/></svg>