<svg width="64" height="64" viewBox="0 0 1024 1024" xmlns="http://www.w3.org/2000/svg"><path d="M286.72 327.68c61.44 20.48 102.4 72.663 102.4 141.476v528.732c0 16.261 16.445 26.112-.348 26.112H85.648c-16.753 0-24.207-9.851-24.207-26.092V469.155c0-68.977 40.96-126.034 102.4-141.476V81.919h122.88v245.76zM163.84 0h122.88v40.96H163.84V0zm558.182 97.997c-9.359-1.331-16.548-8.929-16.548-18.084 0-6.697 4.014-12.534 9.851-15.852-5.837-3.072-9.851-13.885-9.851-20.644 0-10.158 8.561-22.938 19.169-22.938h95.928c10.67 0 19.169 12.78 19.169 22.917 0 7.066-3.994 15.299-10.076 18.268 5.837 3.174 10.076 10.117 10.076 17.06 0 9.175-6.922 17.347-16.241 18.575l122.163 299.008c7.168 19.436 16.896 41.288 16.896 62.751v523.981c0 19.988.532 40.96-20.48 40.96H633.055c-21.34 0-18.657-20.972-18.657-40.96v-532.48c0-21.443 3.994-34.529 11.203-53.985l96.42-298.578z"/></svg>