<svg width="64" height="64" viewBox="0 0 1024 1024" xmlns="http://www.w3.org/2000/svg"><path d="M942.08 593.92v409.6h-307.2V921.6H368.64v81.92H81.92v-409.6zm-185.364-74.65c-11.756-51.384-38.277-96.563-80.077-131.092-40.489-33.649-88.392-40.018-143.954-60.498h-.205V198.083c0-.573 5.55-1.024 10.732-2.888 7.352-2.56 14.295-5.509 23.491-8.704 9.032-3.052 17.203-5.612 25.723-7.414 8.356-1.987 14.152-2.826 18.125-2.826 7.721 0 17.49 1.229 28.918 3.727 11.633 2.826 24.023 5.878 36.618 9.339a508.725 508.725 0 0 0 36.209 9.544c10.834 2.478 19.907 3.502 27.423 3.502 11.96.02 18.043-1.638 38.523-5.284V48.763c-20.48 4.874-24.105 7.557-38.543 7.557-7.516 0-16.814-1.147-27.668-3.891-11.325-2.171-22.999-5.55-36.127-9.359-12.595-3.83-24.494-6.717-35.492-9.134-11.121-2.642-18.35-3.912-26.214-3.912-26.071 0-61.235 6.164-81.715 17.531V20.48h-40.96v307.2h-1.29c-55.132 20.48-103.404 28.017-143.852 61.665-41.001 34.57-67.625 76.82-80.22 128.225 0 0-39.26-5.571-39.26 35.389h572.826c0-40.96-43.008-33.69-43.008-33.69z"/></svg>