<svg width="64" height="64" viewBox="0 0 1024 1024" xmlns="http://www.w3.org/2000/svg"><path d="M942.08 655.36V819.2H1024V573.44H81.92V238.797c0-22.999-17.797-41.82-40.96-41.82-23.081 0-40.96 18.801-40.96 41.82V819.2h81.92V655.36h860.16zM211.558 406.569c41.8 0 75.51-33.853 75.51-75.653 0-41.513-33.71-75.264-75.51-75.264-41.738 0-75.428 33.731-75.428 75.264 0 41.779 33.69 75.653 75.428 75.653zM1024 512l-.287-99.758c-.266-32.891-27.853-53.617-60.191-57.528l-593.039-58.02c-1.065-.287-3.42-.184-4.403-.184-20.603 0-38.4 17.08-38.4 37.581v116.47H175.043c-20.705 0-37.396 10.24-37.396 30.7 0 20.787 16.691 30.74 37.396 30.74H1024z"/></svg>