<svg width="64" height="64" viewBox="0 0 1024 1024" xmlns="http://www.w3.org/2000/svg"><path d="M453.263 87.286c.451-42.107-34.161-76.964-76.37-76.513-43.131-.451-77.988 34.406-77.763 76.513-.225 43.11 34.632 77.64 77.763 77.742 42.189-.102 76.82-34.632 76.37-77.742zm222.045 422.502l-247.03-299.684c-12.841-19.046-84.419-27.054-114.688-2.744L193.393 426.066l29.573 184.873c30.065 48.271 89.702-.573 72.95-26.952l-20.173-130.97 51.937-104.858v245.76L204.8 921.599c-21.34 71.557 81.285 109.875 102.4 40.96l143.36-368.64v-184.32l-60.15-83.19c-2.99-3.564-2.54-8.95 1.147-12.042 3.666-2.99 8.95-2.519 11.94 1.024l205.496 243.016c33.075 45.199 99.348-2.867 66.314-48.62zm-94.516 415.703L459.448 623.554 409.6 757.759l71.209 208.261c28.652 67.072 129.352 27.832 99.983-40.53zm321.803 69.284c.246.246.451.573.451.696 4.813 5.734 13.312 6.308 19.046 1.597 5.038-4.362 5.98-12.042 2.519-17.531l-228.68-397.046a5.298 5.298 0 0 1-.676-.799c-4.608-5.53-13.087-6.328-18.821-1.495-5.038 4.362-5.509 11.694-2.273 17.531l228.434 397.046z"/></svg>