<svg width="64" height="64" viewBox="0 0 1024 1024" xmlns="http://www.w3.org/2000/svg"><path d="M368.64 962.56c0 25.252 15.729 40.96 40.96 40.96 25.293 0 40.96-15.708 40.96-40.96V573.44h40.96v389.12c0 25.211 15.708 40.96 40.96 40.96s40.96-15.708 40.96-40.96V307.2h20.48v241.951c0 49.05 61.563 49.05 61.44 0V300.258c0-54.19-39.035-95.457-102.4-95.457H389.12c-57.754 0-102.4 35.205-102.4 93.942v254.218c0 40.96 61.44 40.96 61.44 0v-245.76h20.48v655.36zM552.96 94.72c0 46.657-37.823 84.48-84.48 84.48S384 141.377 384 94.72c0-46.657 37.823-84.48 84.48-84.48s84.48 37.823 84.48 84.48z"/></svg>