<svg width="64" height="64" viewBox="0 0 1024 1024" xmlns="http://www.w3.org/2000/svg"><path d="M514.396 211.661c-30.208 0-55.112-25.027-55.112-55.706 0-30.884 24.904-55.685 55.112-55.685 30.74 0 55.398 24.801 55.398 55.685 0 30.679-24.658 55.706-55.398 55.706zm447.201 487.547l-29.512-184.873c-3.359-17.285-18.391-30.433-36.27-30.433-10.875 0-20.562 4.628-27.587 12.186L732.261 624.293c-2.13 1.946-4.321 4.116-6.287 6.82-12.78 17.49-9.134 42.312 8.274 55.46 3.318 2.396 7.004 4.116 10.629 5.591l34.058 11.448C746.126 796.98 651.631 881.44 552.959 901.121v-614.4c48.353-20.685 96.154-74.793 96.154-130.765 0-74.916-60.252-135.475-134.717-135.475-74.199 0-134.676 60.559-134.676 135.475 0 55.972 43.172 110.08 91.3 130.765v614.4c-100.844-18.248-192.635-102.4-226.263-197.53l34.365-11.448c3.625-1.475 7.229-3.195 10.629-5.591 17.388-13.148 21.258-37.97 8.233-55.46-1.966-2.703-3.871-4.874-6.308-6.82L155.73 496.067a36.814 36.814 0 0 0-27.341-12.186c-18.125 0-33.382 13.148-36.516 30.433L62.361 699.187c-.676 2.929-.922 6.083-.922 9.277 0 21.832 17.654 39.649 39.444 39.649 4.096 0 7.967-.512 11.592-1.741l31.928-10.445c50.79 155.197 196.096 267.592 367.596 267.592 171.479 0 316.846-112.394 367.636-267.837l31.949 10.67c3.584 1.229 7.516 1.741 11.571 1.741 21.77 0 39.424-17.797 39.424-39.649-.02-3.174-.246-6.328-.983-9.236z"/></svg>