<svg width="64" height="64" viewBox="0 0 1024 1024" xmlns="http://www.w3.org/2000/svg"><path d="M983.491 545.833c-28.59 133.509-126.812 243.18-256.328 286.228-39.731 13.23-80.896 19.927-122.368 19.927-166.892 0-314.45-106.291-367.206-264.479-32.666-97.915-25.17-202.67 21.094-294.994 46.264-92.303 125.768-161.116 223.846-193.741 92.262-30.638 192.451-25.518 280.781 14.111l19.149-36.106C654.193-2.458 494.428-21.423 350.782 26.357 220.877 69.549 115.59 160.685 54.314 282.93-6.962 405.196-16.874 543.968 26.379 673.688c69.878 209.531 265.318 350.31 486.339 350.31 54.927 0 109.425-8.868 162.017-26.337 196.055-65.208 333.128-240.23 349.225-445.932l-40.468-5.898zM731.075 299.069L628.388 106.885l-52.224 214.569-213.586 41.984L558.101 474.46l-33.628 221.102 166.031-151.02 205.742 98.714-105.083-205.353 166.38-160.604z"/></svg>