<svg width="64" height="64" viewBox="0 0 1024 1024" xmlns="http://www.w3.org/2000/svg"><path d="M522.383 462.275c-30.966 0-56.136 25.17-56.136 56.115s25.17 56.115 56.136 56.115c30.945 0 56.136-25.17 56.136-56.115s-25.19-56.115-56.136-56.115zm334.173-378.86c0-23.45-19.005-42.455-42.435-42.455H206.295c-23.45 0-42.455 19.005-42.455 42.455v857.211c0 23.429 19.005 42.414 42.455 42.414h607.826c23.45 0 42.435-18.985 42.435-42.414V83.415zM522.383 786.739c-147.968 0-268.349-120.361-268.349-268.349 0-147.948 120.381-268.329 268.349-268.329 147.948 0 268.308 120.381 268.308 268.329-.02 147.988-120.381 268.349-268.308 268.349z"/></svg>