<svg width="64" height="64" viewBox="0 0 1024 1024" xmlns="http://www.w3.org/2000/svg"><path d="M174.572 630.682c-40.509 0-73.421 33.116-73.421 73.81 0 40.714 32.932 73.748 73.421 73.748 40.591 0 73.523-33.034 73.523-73.769 0-40.673-32.911-73.789-73.523-73.789zm0 111.841c-20.234 0-36.7-16.527-36.7-36.925 0-20.316 16.466-36.884 36.7-36.884 20.337 0 36.803 16.568 36.803 36.884.02 20.398-16.445 36.925-36.803 36.925zm646-111.841c-40.571 0-73.462 33.116-73.462 73.81 0 40.714 32.87 73.769 73.462 73.769 40.55 0 73.523-33.034 73.523-73.769 0-40.694-32.952-73.81-73.523-73.81zm0 111.841c-20.255 0-36.741-16.527-36.741-36.925.02-20.316 16.486-36.884 36.741-36.884 20.316 0 36.803 16.568 36.803 36.884 0 20.398-16.466 36.925-36.803 36.925zM983.183 286.72H337.121c-11.203 0-20.337 9.134-20.337 20.419v185.18H276.09V378.635c0-11.305-9.114-20.419-20.357-20.419H117.124c-24.166 0-45.752 17.859-49.623 43.418v-1.331L45.874 522.917l.041.43c-14.684 2.499-25.436 15.258-25.436 30.228 0 2.191.246 4.444.676 6.554l-.676-.184 30.515 137.933h31.785v-1.249c0-49.439 40.448-89.477 90.317-89.477 49.828 0 90.296 40.038 90.296 89.477v1.249H728.82v-1.249c0-49.439 40.468-89.477 90.255-89.477 49.869 0 90.337 40.038 90.337 89.477 0 .41 0 .84-.082 1.249h94.188V307.14c0-11.264-9.093-20.419-20.337-20.419zM204.861 391.393v100.925H82.8l15.258-85.627c1.27-10.24 10.179-17.797 19.067-17.797h87.736v2.499z"/></svg>