<svg width="64" height="64" viewBox="0 0 1024 1024" xmlns="http://www.w3.org/2000/svg"><path d="M189.85 389.12h80.2l12.329 368.64H179.18l10.67-368.64zm-66.97 389.12h778.24v40.96h61.44v61.44h40.96v40.96H20.48v-40.96h40.96V819.2h61.44v-40.96zm819.2-495.37L512.041 102.4 81.92 282.87v24.33h860.16v-24.33zm-778.24 44.81h696.32v40.96H163.84v-40.96zm588.513 61.44h80.159l12.431 368.64H741.601l10.752-368.64zm-187.433 0h80.159l12.288 368.64h-103.24l10.793-368.64zm-187.474 0h80.179l12.206 368.64H366.632l10.813-368.64z"/></svg>