<svg width="64" height="64" viewBox="0 0 1024 1024" xmlns="http://www.w3.org/2000/svg"><path d="M245.76 20.48h184.32v143.36H245.76V20.48zm383.447 590.275c-17.879 0-35.287-18.248-35.287-36.25V204.8h290.55l119.378 509.501-.328 30.228v226.427c0 17.408-14.479 32.563-31.724 32.563H696.934c-17.06 0-21.094-15.155-21.094-32.563V614.399h-40.96zm-234.332.409c17.736 0 35.205-17.592 35.205-35.717V204.8H139.715L20.194 714.588l.287 30.884v226.365c0 17.49 14.479 31.683 31.703 31.683h274.534c17.49 0 21.443-14.193 21.443-31.683V614.4h40.96zM471.04 204.8h81.92v348.16h-81.92V204.8zM593.92 20.48h204.8v143.36h-204.8V20.48z"/></svg>