<svg width="64" height="64" viewBox="0 0 1024 1024" xmlns="http://www.w3.org/2000/svg"><path d="M962.56 184.32h-307.2S634.88 348.16 675.84 512c16.466 27.443 57.139 42.23 102.4 45.978V757.76h-6.82l-75.1 61.44H921.6l-73.4-61.44h-8.52V556.483c43.418-5.632 83.21-20.767 102.4-44.483 40.96-143.36 20.48-327.68 20.48-327.68zM942.08 307.2H675.84V204.8h266.24v102.4zM440.32 757.76H327.68V583.68l225.28-337.92H20.48l225.28 337.92v174.08H133.12c-16.978 0-30.72 13.763-30.72 30.72s13.742 30.72 30.72 30.72h307.2c16.978 0 30.72-13.763 30.72-30.72s-13.742-30.72-30.72-30.72z"/></svg>