<svg width="64" height="64" viewBox="0 0 1024 1024" xmlns="http://www.w3.org/2000/svg"><path d="M512 439.767c57.426 0 105.636 38.912 119.255 91.525 17.121 65.966 14.807 138.26 90.071 175.8 66.806 22.733 92.078 51.302 92.078 127.898 0 61.133-52.306 126.116-119.747 134.226-75.407 11.325-134.103-3.482-181.678-30.597-47.575 27.116-106.291 41.943-181.596 30.597-67.482-8.11-119.767-73.318-119.767-134.226 0-74.957 26.972-106.68 93.655-128.41 82.063-41.923 71.045-115.405 89.354-178.524 14.807-50.995 62.198-88.289 118.374-88.289zm375.951-45.547c-20.337-17.674-103.342 51.323-129.454 85.443-15.872 18.207-25.743 43.233-25.743 70.84 0 55.521 39.731 100.536 88.617 100.536 37.192 0 69.018-25.866 82.186-62.648 25.58-66.15 26.993-157.184-15.606-194.171zm-751.943 0c-42.537 36.987-41.165 128.02-15.544 194.171 13.169 36.782 44.974 62.648 82.145 62.648 48.927 0 88.617-45.015 88.617-100.536 0-27.607-9.851-52.634-25.723-70.84-26.132-34.12-109.117-103.117-129.495-85.443zM621.261 31.58c206.602 35.062 192.102 383.017 26.685 354.98-47.718-8.11-83.149-51.569-88.535-103.485-5.468-52.797-17.777-264.97 61.85-251.494zm-218.522 0c79.647-13.496 67.318 198.676 61.85 251.474-5.386 51.937-40.776 95.375-88.494 103.485C210.637 414.617 196.158 66.641 402.739 31.58z"/></svg>