<svg width="64" height="64" viewBox="0 0 1024 1024" xmlns="http://www.w3.org/2000/svg"><path d="M718.868 214.098c38.482 0 69.612-32.01 69.612-71.578 0-39.322-31.15-71.352-69.612-71.352-38.195 0-69.366 32.01-69.366 71.352 0 39.567 31.15 71.578 69.366 71.578zm51.733 16.015H669.205L496.395 52.326c-13.496-14.602-35.922-15.299-50.135-1.188-14.193 13.885-14.889 36.966-1.352 51.569l180.593 186.02v616.489c0 22.364 17.408 40.243 38.912 40.243 21.75 0 39.137-17.879 39.137-40.243V570.839h31.58l.246 334.397c0 22.364 17.613 40.243 39.117 40.243 21.565 0 38.932-17.879 38.932-40.243l-.225-616.468 180.613-186.02c13.496-14.602 12.8-37.683-1.393-51.569-14.172-14.111-36.618-13.435-50.135 1.188L770.601 230.113zM403.21 502.088c-10.527-11.08-24.965-17.654-40.96-17.654H216.862c-16.015 0-30.433 6.595-40.735 17.654L30.289 652.104c-13.496 14.602-13.025 37.663 1.167 51.569 14.172 13.885 36.864 13.414 50.135-1.188l113.07-116.326v155.402H67.849c-23.327 0-42.148 19.292-42.148 43.336 0 12.472 4.588 23.552 12.841 31.56L181.37 963.381c12.595 19.087 37.315 25.211 57.016 13.414 20.808-12.227 27.709-39.301 15.79-60.477l-81.49-83.62 1.597.225h233.943l-81.715 83.599c-11.674 21.197-4.813 48.271 15.77 60.498 19.702 11.796 44.667 5.693 57.262-13.394l142.828-146.924c8.212-8.028 12.82-19.108 12.82-31.56 0-24.044-18.78-43.315-42.107-43.315H386.477V588.043l111.022 114.668c13.517 14.623 35.922 15.094 50.115 1.188 14.193-13.885 14.684-36.966 1.167-51.548L403.209 502.089zm-112.148-32.973c38.216 0 69.12-31.99 69.12-71.352 0-39.567-30.904-71.352-69.12-71.352-38.257 0-69.407 31.785-69.407 71.352 0 39.363 31.171 71.352 69.407 71.352z"/></svg>