<svg width="64" height="64" viewBox="0 0 1024 1024" xmlns="http://www.w3.org/2000/svg"><path d="M147.579 637.768c59.085 0 106.885-49.132 106.885-109.937 0-60.477-47.8-109.629-106.885-109.629-58.839 0-106.619 49.152-106.619 109.629 0 60.785 47.78 109.937 106.619 109.937zm598.63 188.743c4.977-3.523 11.551-2.458 15.176 2.396l19.763 28.099c3.359 4.874 2.335 11.878-2.376 15.688L633.774 980.972c-4.69 3.523-11.51 2.417-15.217-2.417l-19.702-28.099c-3.379-4.874-2.314-11.858 2.376-15.647l144.978-108.298zM582.308 686.899L524.8 583.209l-30.188 22.671 57.508 104.243zM448.143 444.682L224.501 40.96l-42.783.287 235.971 426.394zm210.555 213.607c12.636-9.441 41.554-23.409 58.102-23.409h204.8c40.428 0 61.44 40.673 61.44 82.002 0 41.574-21.012 61.358-61.44 61.358H737.28L515.359 952.361c-77.988 57.733-125.256-5.693-125.256-5.693l-173.732-178.77c-29.143-35.901-22.835-104.223 12.104-134.472L468.89 457.359c23.88-20.48 59.331-17.265 79.565 7.025 19.988 24.576 16.835 61.317-7.086 81.838L387.462 662.077l110.572 112.312L658.7 658.288z"/></svg>