<svg width="64" height="64" viewBox="0 0 1024 1024" xmlns="http://www.w3.org/2000/svg"><path d="M941.486 909.23c0-40.837-74.506-154.972-74.506-154.972s-75.633 114.135-75.633 154.972c0 40.755 33.628 73.81 75.08 73.81 41.431 0 75.059-33.055 75.059-73.81zM402.76 269.742H252.621V121.733h40.94V40.96H20.481v80.773h40.96v228.762c0 59.474 48.906 107.663 109.22 107.663h232.1v40.387h81.94V229.397h-81.94v40.346zm559.759 336.446V377.426c0-59.453-48.886-107.663-109.138-107.663H621.24v-40.346H539.3v269.169h81.94v-40.407h150.159v148.009H730.5v80.773h273.019v-80.773h-41.001z"/></svg>