<svg width="64" height="64" viewBox="0 0 1024 1024" xmlns="http://www.w3.org/2000/svg"><path d="M634.88 512.041c-67.768 0-122.798 54.989-122.798 122.839 0 67.912 55.05 122.88 122.798 122.88 67.789 0 122.839-54.968 122.839-122.88 0-67.83-55.05-122.839-122.839-122.839zm245.78-245.862L779.468 62.055c-8.172-24.207-31.089-41.574-58.143-41.574H552.549c-27.525 0-50.483 17.859-58.45 42.496L389.262 266.241H143.338c-67.748 0-122.86 55.05-122.86 122.9v614.38h983.04v-614.38c0-67.85-55.071-122.962-122.86-122.962zM204.8 512.041c-33.997 0-61.46-27.484-61.46-61.399 0-34.038 27.484-61.501 61.46-61.501s61.42 27.464 61.42 61.501c0 33.915-27.423 61.399-61.42 61.399zm430.08 368.722c-135.68 0-245.78-110.121-245.78-245.883 0-135.7 110.08-245.74 245.78-245.74s245.78 110.019 245.78 245.74c0 135.762-110.08 245.883-245.78 245.883z"/></svg>