<svg width="64" height="64" viewBox="0 0 1024 1024" xmlns="http://www.w3.org/2000/svg"><path d="M252.58 450.56h54.62v327.68h81.92V491.52h81.92v286.72h81.92V491.52h81.92v286.72h81.92V450.56h54.6c15.073 0 27.32-15.073 27.32-28.652 0-8.212-4.526-17.469-11.366-21.934l.041-1.065-.43-.758c-.246-.143 2.949-.532 2.744-.676L532.48 264.99v-38.748c40.96 21.688 80.916-15.667 143.36 6.799v-85.586c-62.484-22.446-102.4 14.889-143.36-6.799v-5.489c0-6.779-12.923-12.288-20.48-12.288s-20.48 5.509-20.48 12.288V264.99L234.312 397.209c-.246.123 5.796.266 5.55.43l5.898.225v.041c-20.48 4.465-15.892 15.77-15.892 23.982-.02 13.599 7.639 28.672 22.712 28.672zm34.14 348.16l-61.44 61.44h573.44l-61.44-61.44zm450.56-327.68v307.2h18.125l8.008 11.325 54.6 51.18 19.313 19.415h166.195V471.04h-266.24zM860.16 716.8h-61.44v-61.44h61.44v61.44zm0-122.88h-61.44v-61.44h61.44v61.44zm81.92 122.88h-40.96v-61.44h40.96v61.44zm0-122.88h-40.96v-61.44h40.96v61.44zM268.575 778.24h18.145v-307.2H20.48v389.12h166.175l19.292-17.367 54.62-53.248 8.008-11.305zM122.88 716.8H81.92v-61.44h40.96v61.44zm0-122.88H81.92v-61.44h40.96v61.44zm102.4 122.88h-61.44v-61.44h61.44v61.44zm0-122.88h-61.44v-61.44h61.44v61.44z"/></svg>