<svg width="64" height="64" viewBox="0 0 1024 1024" xmlns="http://www.w3.org/2000/svg"><path d="M585.339 420.741c0 68.997-57.119 68.997-87.9 68.997h-38.38V359.301h48.23c26.972 0 78.049 0 78.049 61.44zm294.83-68.874c5.693-70.205 26.03-134.636 61.911-193.7L804.475 20.48c-43.479 37.437-92.959 58.163-149.074 61.829-51.384 4.649-100.168-5.12-145.961-29.368-47.124 23.47-95.662 33.28-146.268 29.368-52.347-4.69-99.574-23.245-141.885-56.136L83.293 163.799c33.935 59.904 52.838 122.614 56.566 188.068 1.761 30.147-6.84 71.639-26.132 125.276-10.097 29.737-17.736 55.542-22.938 77.087-4.813 21.402-7.823 38.81-8.827 51.835-.717 57.16 15.319 108.769 48.189 154.624 25.682 33.485 68.035 70.451 126.853 110.899 64.348 32.768 114.156 54.047 149.033 63.099 9.974 4.69 19.784 9.175 28.918 13.435 9.093 4.383 18.842 8.622 29.02 13.251 21.934 13.148 37.356 27.423 45.466 42.127 9.953-15.913 25.702-29.819 46.633-42.127 14.787-6.431 27.3-12.042 37.335-16.957 10.035-4.403 17.51-7.721 21.852-9.748 7.434-3.707 17.203-7.926 29.02-12.595 11.94-4.69 26.665-10.445 44.257-16.794 33.997-12.063 58.737-23.429 74.465-33.71 57.037-40.448 98.734-76.8 125.276-109.343 34.038-46.06 50.565-97.894 49.807-156.18-2.007-26.092-13.046-67.85-33.096-124.744-19.128-55.378-27.607-98.386-24.822-129.434zM627.241 540.488c-32.666 21.381-77.578 21.381-101.028 21.381h-64.41V738.12h-96.85V286.004h137.482c63.898 0 117.33 4.116 154.44 49.357 23.163 28.795 27.075 61.501 27.075 84.746-.041 52.654-21.729 97.096-56.709 120.381z"/></svg>