<svg width="64" height="64" viewBox="0 0 1024 1024" xmlns="http://www.w3.org/2000/svg"><path d="M440.177 163.86l-11.1 19.866c-7.25 14.705-22.241 21.074-39.383 21.074h-26.092c14.971 20.48 38.932 37.253 66.703 37.253 45.425 0 81.695-34.324 81.695-79.626v1.413h-67.953c-1.7 0-3.4-1.679-3.871.02zm-50.484 20.46c8.95 0 16.896-3.113 20.541-10.813l10.854-19.415c4.116-8.909 12.82-10.732 22.958-10.732h85.053c-11.121-40.96-50.975-78.807-98.12-78.807-55.808 0-100.987 41.329-100.987 97.239 0 8.929.963 22.528 3.379 22.528h56.32zm279.675 450.56c75.756 0 273.633-23.204 328.11-75.284-24.515-75.284-121.16-81.306-209.838-42.967-15.237 6.595-35.512 11.469-58.716 15.811l-18.125-70.164c14.479-7.475 24.044-22.794 23.163-40.018-.922-23.511-20.644-41.882-44.155-40.919l-13.312-51.384c13.087-9.871 19.968-26.522 16.077-43.5-5.325-23.02-28.16-37.601-51.241-32.42 0 0-187.617 1.679-246.456 17.469-58.716 15.79-78.52 114.463-78.52 114.463l-51.589 166.994H20.481v81.92h648.888zM500.716 344.146l145.572-6.001 11.592 44.585c-39.363 1.925-109.322 5.55-171.786 9.032l14.623-47.616zm-40.592 133.038l219.628-9.871L698 537.211c-89.641 12.882-205.865 14.725-260.833 14.95l22.958-74.977zm410.399 252.088s132.997-1.679 132.997-131.482c0-5.202-.512-9.114-.963-13.926-83.005 59.986-304.804 71.496-332.841 71.496H20.48v100.434c15.708 0 31.908-3.645 46.141-9.871 23.45-10.834 49.541-16.63 75.162-16.63 25.6 0 51.466 5.796 74.404 16.404 15.217 6.758 30.925 10.117 46.879 10.117 16.2 0 31.887-3.359 46.387-9.871 23.675-10.834 49.521-16.63 75.141-16.63 25.846 0 51.22 5.55 74.67 16.404 14.725 6.758 30.904 10.117 46.879 10.117 15.933 0 31.642-3.359 46.367-9.871 23.45-10.834 49.562-16.63 74.916-16.63 26.071 0 51.241 5.55 74.65 16.404 14.991 6.758 31.15 10.117 46.879 10.117 1.966 0 3.768-.246 5.673-.246l19.354 74.199c-8.356 1.434-16.671 2.437-25.272 2.437-21.238 0-41.8-4.608-59.924-12.8-18.596-8.684-39.608-13.722-61.604-13.722-21.955 0-43.008 5.038-61.604 13.722-18.125 8.192-38.441 12.8-59.699 12.8s-41.8-4.608-59.924-12.8c-18.596-8.684-39.608-13.722-61.604-13.722s-43.008 5.038-61.604 13.722c-18.125 8.192-38.42 12.8-59.679 12.8-21.012 0-41.554-4.608-59.679-12.8-18.616-8.684-39.629-13.722-61.604-13.722-21.75 0-42.783 5.038-61.379 13.722-18.35 8.151-38.666 12.759-59.924 12.759v89.395c21.258 0 41.574-4.567 59.924-12.759 18.596-8.684 39.629-13.763 61.379-13.763 21.975 0 42.988 5.079 61.604 13.763 18.125 8.192 38.666 12.759 59.679 12.759 21.258 0 41.554-4.567 59.679-12.759 18.596-8.684 39.629-13.763 61.604-13.763 22.016 0 43.008 5.079 61.604 13.763 18.125 8.192 38.666 12.759 59.924 12.759s41.574-4.567 59.699-12.759c18.596-8.684 39.649-13.763 61.604-13.763 21.996 0 43.008 5.079 61.604 13.763 18.125 8.192 38.687 12.759 59.924 12.759 20.992 0 41.595-4.567 59.679-12.759 18.637-8.684 39.649-13.763 61.645-13.763 21.955 0 38.748 5.079 57.344 13.763 18.125 8.192 35.185 12.759 55.665 12.759v-89.395c-20.48 0-37.54-4.608-55.665-12.8-18.596-8.684-37.499-13.722-59.453-13.722-21.996 0-41.943 5.038-60.58 13.722-1.434.635-2.355 1.085-3.85 1.679l-18.33-71.311c3.4-1.208 6.799-2.396 10.035-3.85 23.47-10.834 49.725-16.65 75.325-16.65z"/></svg>