<svg width="64" height="64" viewBox="0 0 1024 1024" xmlns="http://www.w3.org/2000/svg"><path d="M972.902 420.946C968.151 162.12 818.77 59.269 812.646 55.173l-23.142-15.852-23.265 15.811c-38.687 26.378-78.787 39.772-119.132 39.772-66.949 0-112.312-36.209-114.258-37.765l-26.051-21.012-25.866 21.053c-1.884 1.536-47.309 37.745-114.217 37.745-40.366 0-80.445-13.373-119.173-39.834l-23.183-15.729-23.347 15.852C185.14 66.171 46.06 169.41 41.022 419.676c-2.007 21.77 57.815 433.684 465.94 553.185 443.822-130.335 468.193-524.718 465.94-551.916zm-849.694 4.956l.061 5.837c.819-47.247 7.414-104.059 20.193-124.539h726.815c12.841 20.48 19.497 77.435 20.234 125.01l.287-.205c1.618 13.189-14.623 384-383.836 458.445-330.547-72.95-385.208-452.383-383.754-464.548z"/></svg>