<svg width="64" height="64" viewBox="0 0 1024 1024" xmlns="http://www.w3.org/2000/svg"><path d="M573.112 629.33c-46.1 0-83.517 37.888-83.517 84.685 0 46.776 37.437 84.726 83.517 84.726 46.121 0 83.497-37.949 83.497-84.726.02-46.817-37.376-84.685-83.497-84.685zm0 129.515c-24.474 0-44.237-20.05-44.237-44.831 0-24.76 19.763-44.913 44.237-44.913 24.392 0 44.257 20.152 44.257 44.913.02 24.781-19.845 44.831-44.257 44.831zm345.559-502.968c-29.553-10.199-220.262-30.597-345.805-30.597-125.522 0-327.68 20.664-357.601 29.512-3.092.901-92.385 25.518-92.385 122.327v258.376c0 17.551 6.574 40.346 16.282 40.346H20.48v40.96h449.843c0-61.44 46.326-104.899 103.383-104.899 57.139 0 103.444 43.459 103.444 104.899h250.491c41.964 0 75.878-38.83 75.878-81.306V363.377c0-42.496-31.949-89.211-84.849-107.5zM410.337 458.199c0 8.069-5.755 12.841-13.66 12.841h-134.82c-7.967 0-16.097-3.031-16.097-11.1v-95.478c0-8.028 8.131-16.302 16.077-16.302h134.82c7.905 0 12.943 8.274 12.943 16.302v95.478l.737-1.741zm490.783 1.741c0 8.069-6.349 11.1-14.336 11.1H588.472c-7.967 0-15.032-3.031-15.032-11.1v-95.478c0-8.028 7.066-16.302 15.032-16.302h298.312c8.008 0 14.336 8.274 14.336 16.302v95.478z"/></svg>