<svg width="64" height="64" viewBox="0 0 1024 1024" xmlns="http://www.w3.org/2000/svg"><path d="M962.56 1003.52c-19.497 0-38.584-4.506-55.398-12.227-17.265-8.131-36.762-12.902-57.221-12.902-20.193 0-39.69 4.751-56.955 12.902-17.08 7.721-35.963 12.227-55.665 12.227-19.538 0-38.584-4.506-55.46-12.227-17.224-8.131-36.762-12.902-57.18-12.902-20.214 0-39.711 4.751-57.037 12.902-16.957 7.721-35.922 12.227-55.542 12.227-19.743 0-38.584-4.506-55.542-12.227-17.265-8.131-36.803-12.902-57.078-12.902-20.419 0-39.956 4.751-57.221 12.902-16.855 7.721-35.799 12.227-55.562 12.227-19.62 0-38.584-4.506-55.501-12.227-17.285-8.131-36.803-12.902-57.119-12.902s-39.834 4.751-57.119 12.902c-16.937 7.721-35.779 12.227-55.521 12.227v-84.009c19.743 0 38.584-4.506 55.521-12.227 17.285-7.926 36.803-12.677 57.119-12.677 20.296 0 39.813 4.751 57.119 12.677 16.937 7.721 35.881 12.227 55.501 12.227 19.763 0 38.707-4.506 55.542-12.227 17.265-7.926 36.803-12.677 57.221-12.677 20.275 0 39.813 4.751 57.078 12.677 16.978 7.721 35.799 12.227 55.542 12.227 19.62 0 38.584-4.506 55.542-12.227 17.326-7.926 36.823-12.677 57.037-12.677 20.419 0 39.956 4.751 57.18 12.677 16.876 7.721 35.922 12.227 55.46 12.227 19.702 0 38.584-4.506 55.665-12.227 17.265-7.926 36.762-12.677 56.955-12.677 20.46 0 39.956 4.751 57.221 12.677 16.814 7.721 35.901 12.227 55.398 12.227v84.009zM593.92 20.48v634.88H87.798zm61.44 145.797c0 70.881 324.547 263.803 300.913 489.083H655.36V166.277zM891.433 696.32H204.8v126.976c20.48 2.048 17.326 4.321 24.31 7.721 16.937 7.475 36.946 11.981 56.566 11.981 19.763 0 39.24-4.506 56.074-11.981 17.265-8.151 37.069-12.902 57.487-12.902 20.275 0 39.936 4.731 57.201 12.902 16.978 7.475 35.86 11.981 55.603 11.981 19.62 0 38.605-4.506 55.562-11.981 17.326-8.151 36.844-12.902 57.057-12.902 20.419 0 39.977 4.731 57.201 12.902 16.876 7.475 35.922 11.981 55.46 11.981 3.83 0 7.373-.901 10.977-1.352.451 0 .451.451.922.451 2.437 0 4.239-1.126 6.717-1.126 4.485-.676 8.95-1.147 13.455-2.253 40.346-8.376 66.437-41.083 66.437-41.083L914.37 696.32h-22.938z"/></svg>