<svg width="64" height="64" viewBox="0 0 1024 1024" xmlns="http://www.w3.org/2000/svg"><path d="M614.4 163.84v675.84H122.88V163.84H614.4zm81.92-81.92H40.96v860.16h655.36V81.92zm-512 163.84h368.64v81.92H184.32v-81.92zm0 143.36h368.64v81.92H184.32v-81.92zm0 143.36h368.64v81.92H184.32v-81.92zm0 143.36h368.64v81.92H184.32v-81.92zM819.2 245.76h163.84V819.2H819.2V245.76zm82.043-225.28c-44.933 0-82.043 36.147-82.043 80.63v83.21h163.84v-83.21c0-44.483-37.048-80.63-81.797-80.63zM817.93 880.64l82.76 130.806 82.35-130.806z"/></svg>