<svg width="64" height="64" viewBox="0 0 1024 1024" xmlns="http://www.w3.org/2000/svg"><path d="M20.48 102.4l155.996 161.649 59.945-54.559-54.272-106.598zm703.201 452.772c29.471 8.233 61.194-8.684 69.55-39.096 8.09-29.86-9.114-61.256-38.871-69.734l-23.081-6.451-29.962 108.585 22.364 6.697zm-18.165-122.266l-186.675-53.309c-12.288-3.236-24.678 4.26-28.14 16.691l-17.449 63.263c-3.42 12.452 3.195 25.149 15.729 28.897L675.8 541.266l29.716-108.36zm29.45 179.835c-14.234-13.701-31.928-24.658-52.511-30.392L456.09 518.103 317.031 268.042c-7.373-12.943-19.169-23.163-34.406-27.402-30.474-8.704-62.177 9.462-70.513 40.346-4.178 14.705-2.212 29.635 4.424 42.332l173.957 309.33s14.254 23.163 50.115 35.144L756.86 757.72l146.678 150.917c4.915 5.222 11.325 9.196 18.924 11.469 22.118 6.226 45.199-7.25 51.61-29.43 4.198-15.667-.717-32.113-11.796-42.332L734.968 612.742zm168.837 62.526l32.87 43.581 66.847-73.994-56.484-31.908c5.366-40.1-19.21-78.93-58.511-90.132-43.233-12.227-88.207 13.189-100.209 57.037-12.329 44.093 13.005 89.395 56.238 101.622 20.644 5.96 41.533 2.724 59.249-6.205z"/></svg>