<svg width="64" height="64" viewBox="0 0 1024 1024" xmlns="http://www.w3.org/2000/svg"><path d="M871.629 350.372c5.693-67.707 26.112-129.864 62.054-186.86L795.771 30.72c-43.561 36.106-93.204 56.115-149.402 59.638-51.528 4.485-100.352-4.936-146.309-28.324-47.227 22.61-95.867 32.092-146.555 28.324-52.47-4.506-99.799-22.426-142.193-54.149L73.052 168.96c34.017 57.795 52.961 118.272 56.668 181.412 1.761 29.061-6.84 69.12-26.194 120.832-10.117 28.672-17.756 53.555-22.999 74.342-4.833 20.664-7.844 37.417-8.868 50.012-.696 55.112 15.36 104.878 48.292 149.135 25.743 32.297 68.198 67.973 127.14 106.988 64.471 31.601 114.381 52.101 149.34 60.846 10.035 4.526 19.825 8.847 29 13.005 9.114 4.178 18.883 8.294 29.061 12.759 22.016 12.698 37.437 26.44 45.568 40.632 9.994-15.38 25.784-28.754 46.756-40.632 14.787-6.226 27.341-11.571 37.396-16.323 10.056-4.301 17.551-7.475 21.893-9.421 7.475-3.543 17.244-7.639 29.123-12.165 11.919-4.526 26.726-10.056 44.319-16.2 34.058-11.592 58.86-22.589 74.609-32.502 57.18-38.994 98.98-74.117 125.583-105.472 34.099-44.401 50.688-94.413 49.93-150.61-2.028-25.19-13.107-65.454-33.219-120.32-19.128-53.473-27.587-94.966-24.822-124.908z"/></svg>