<svg width="64" height="64" viewBox="0 0 1024 1024" xmlns="http://www.w3.org/2000/svg"><path d="M523.817 183.05c47.043 3.461 88.187-30.065 91.914-74.711 3.768-44.872-31.334-84.132-78.377-87.593-47.104-3.42-88.248 29.901-91.894 74.772-3.666 44.851 31.457 84.029 78.356 87.532zm352.379 656.63L847.77 593.92h-46.121c.43-20.48.369-22.753-1.044-35.185-1.372-12.718-5.407-22.016-11.981-24.945 5.386-5.734 8.97-13.025 9.667-21.238 1.044-12.943-5.018-25.047-15.155-32.256l-117.391-77.169-86.426-162.734c-14.316-21.299-38.564-38.482-67.83-40.94-22.487-1.556-43.172 5.878-59.904 16.937l-171.5 132.751c-5.652 4.547-9.892 10.527-11.817 17.715l-39.956 160.788c-.348 1.536-3.031 3.256-3.031 4.772v.061h-.328c-6.697 0-12.8 6.39-15.135 14.848-2.253 8.294-5.018 19.251-5.018 28.119v18.473h-44.524l-28.426 245.76h114.872l-50.36 80.589c-3.277 6.246-7.127 15.073-7.803 23.593-2.478 30.515 21.279 57.037 53.125 59.474 22.753 1.516 42.332-9.462 54.231-26.993l84.992-136.663h11.121l-1.741-15.094 23.572-37.929c2.56-5.079 10.691-17.51 11.592-23.409l28.795-125.133 122.9 128.471L615.73 959.73c6.164 22.835 25.866 41.677 52.081 43.602 31.887 2.417 59.802-20.091 62.341-50.545.225-3.809-.451-6.676-.348-11.223l-20.152-101.888h166.543zM224.399 573.235c1.147-9.687 4.772-15.196 11.162-15.196.84 0 1.556-.02 2.396-.041 6.451 7.803 16.036 13.148 27.095 14.049 12.677.983 24.064-4.485 31.805-12.964 1.72 1.454 3.092 3.645 4.035 6.676 1.7 5.878 2.683 12.616 2.683 18.166 0 3.318-.164 9.994-.389 9.994h-79.38c-.266 0-.184-13.169.594-20.685zM341.77 593.92h-24.269c.512-20.48.369-22.753-.963-35.185-1.147-10.65-4.157-18.883-8.929-23.101l30.29-131.932 59.74-46.223-55.869 236.442zm445.604 0h-79.442c-.328 0-.225-13.169.594-20.685 1.065-9.687 4.751-15.196 11.162-15.196 9.196 0 17.531-.287 24.924-.451 7.434-.266 17.572-.635 30.331-.635 4.895 0 8.212 2.908 10.056 8.827 1.761 5.878 2.703 12.616 2.703 18.166 0 3.297-.184 9.974-.328 9.974zm-256.942-46.756l38.502-162.529 32.379 61.092c2.56 4.198 5.591 7.66 9.585 10.916l115.651 75.837H709.08c-6.697 0-9.155 6.39-11.469 14.848-2.191 8.294-1.29 19.251-1.29 28.119v18.473h-51.855l-8.376 72.294-105.656-119.05z"/></svg>