<svg width="64" height="64" viewBox="0 0 1024 1024" xmlns="http://www.w3.org/2000/svg"><path d="M734.822 871.69c23.02-28.017 77.619-94.966 52.04-77.169-18.534 13.292-41.574 36.577-72.909 53.412-12.616 6.656-67.912 32.072-81.449 32.317-30.618.922-61.727 12.554-71.7 4.26-16.609-12.575-2.13-36.577 15.421-40.837 17.101-5.489 15.913-4.055 40.837-9.748 26.849-5.468 10.916-6.185 67.441-23.982 18.76-23.982 95.457-72.643 63.14-56.013-34.898 18.739-90.911 35.144-97.096 33.485-16.159-2.15-43.213 1.659-68.628-4.055-20.89-4.977-22.774-18.985-43.684-32.276-14.5-9.052-30.167-19.948-33.485-26.829 3.789-10.711 8.294-16.404 18.043-22.344 25.866-18.534 68.608 33.731 73.134 33.731 5.448 2.13-24.228-2.847 64.573-5.714 7.578.246 77.394-54.108 78.582-56.033 5.448-15.217 3.543-11.141-2.867-7.127-28.467 19.722-84.5 17.592-103.731 18.289-12.82-.696-63.16-42.496-87.142-60.293-17.572-13.066-10.67-24.453-12.575-40.837-1.659-21.606 0-34.918 6.881-54.845-10.445-4.751-12.595-9.974 5.693-48.906 14.725-29.696 10.916-43.213 26.604-60.559 12.104-14.008 3.789-8.069 21.115-15.442 20.193-6.881 32.543-7.107 52.019-12.575 30.618-9.503 46.531-17.572 75.715-26.583 19.026-6.431 28.713-13.537 47.739-14.254 20.398-1.884 31.334 6.902 51.978 7.127 54.845 2.867 83.333-9.728 136.294-40.591-.492.246 62.444 77.64 43.438 216.084-20.419 10.445-34.898 14.725-47.698 32.276-42.045 59.351-29.204 96.604-73.134 179.712-8.294 14.254-14.725 17.818-23.757 29.45-14.725 22.323-18.289 38.216-35.144 59.126-9.953 12.329-17.551 17.551-28.017 29.45-14.234 15.176-29.43 37.499-35.144 40.571-11.162 6.656-17.797 27.054-28.017 30.884-8.765 4.26-26.358-22.794-12.554-40.612 8.294-11.633 11.407-13.537 18.043-22.548zM563.63 530.493c18.76 14.95 28.262 59.597 28.017 59.126 34.427 10.916 56.259 33.71 56.259 33.71 52.961-29.45 54.17-16.159 77.189-33.71 19.005-13.066 18.063-17.101 28.017-51.978 9.257-28.283-23.511-25.661-50.586-77.189-47.002 17.797-72.397 9.748-88.31 8.315-7.127-.942-5.96 27.771-50.586 61.727zM288.44 164.147c-23.04 27.771-77.885 94.495-51.958 75.735 18.514-12.349 41.554-35.615 72.888-51.999 12.575-7.127 67.912-32.543 81.674-33.485 30.392-.225 61.256-11.858 71.455-4.26 16.609 13.517 1.905 37.274-15.421 42.025-17.101 4.977-15.913 3.543-40.612 8.54-27.3 6.185-11.162 6.881-67.441 23.757-18.964 24.924-95.908 73.605-63.14 56.259 34.652-18.022 90.706-34.427 96.87-33.71 15.913 3.092 43.213-.696 68.628 5.468 20.664 4.526 22.794 18.534 43.684 32.522 14.479 8.294 30.147 19.251 33.71 26.604-4.055 10.199-8.806 15.913-18.289 22.303-25.887 18.043-68.628-34.181-73.134-33.71-5.468-2.621 24.207 2.355-64.594 4.26-7.578.717-77.394 55.091-78.582 57.692-5.468 14.479-3.564 10.445 2.847 5.468 28.488-18.76 84.521-16.609 103.997-16.855 12.575.246 62.915 42.025 86.897 60.559 17.572 12.329 10.445 23.962 12.575 40.591 1.659 21.361-.225 34.427-6.881 54.845 10.445 4.28 12.575 9.462-7.127 49.152-13.292 28.959-9.748 42.476-25.17 60.273-12.104 13.578-3.789 7.639-21.135 14.029-20.173 7.844-32.522 8.09-53.412 14.029-29.204 9.032-45.117 17.101-74.322 26.829-18.985 5.714-28.713 12.82-47.718 14.008-20.419 1.434-31.355-7.332-51.999-8.54-55.091-1.905-83.354 10.67-136.294 40.858.246.471-62.444-76.698-43.459-214.897 20.419-10.916 34.918-14.95 47.718-33.71 41.8-58.429 29.225-95.683 73.134-178.319 8.09-14.725 14.746-18.063 23.757-30.863 14.725-21.381 18.063-37.294 35.144-57.467 9.974-13.046 17.572-18.268 28.017-29.676 14.008-15.688 29.184-38.011 33.71-40.612 12.595-7.127 19.231-27.546 29.676-32.297 8.561-3.318 25.887 23.736 12.595 42.025-8.561 11.162-11.633 13.066-18.289 22.569zm171.193 341.177c-18.76-15.421-28.262-60.047-28.017-60.293-34.427-10.22-56.279-33.014-56.279-32.297-52.941 28.733-54.354 15.442-77.169 32.297-19.231 13.783-18.043 18.043-28.017 51.773-9.277 29.45 23.265 26.583 50.565 77.394 47.022-17.121 72.438-9.032 88.33-7.148 7.127.492 5.939-28.242 50.586-61.727z"/></svg>