<svg width="64" height="64" viewBox="0 0 1024 1024" xmlns="http://www.w3.org/2000/svg"><path d="M420.741 974.971c0 15.767-12.433 28.549-27.771 28.549s-27.771-12.782-27.771-28.549 12.433-28.549 27.771-28.549 27.771 12.782 27.771 28.549zm196.69 28.017c15.319 0 27.73-12.902 27.73-28.897 0-15.811-12.39-28.652-27.73-28.652-15.36 0-27.75 12.841-27.75 28.652 0 15.995 12.39 28.897 27.75 28.897zm-47.903-830.874c40.714 0 73.81-34.058 73.81-75.94-.02-41.861-33.096-75.694-73.81-75.694-40.694 0-73.81 33.833-73.81 75.694 0 41.882 33.116 75.94 73.81 75.94zm-400.24 663.429c-3.482 6.717-5.448 14.336-5.448 22.589 0 26.665 21.135 48.415 47.247 48.415 18.739 0 34.836-11.203 42.455-27.341l160.993-284.672-66.847-68.772-178.401 309.78zm348.836-12.779c-7.598 16.138-23.716 27.361-42.435 27.361-25.907 0-47.002-21.75-47.002-48.415 0-8.274 1.946-15.872 5.448-22.61l70.103-126.751-136.724-139.796c-52.47-54.19-15.012-112.865-15.012-112.865l73.585-133.714-195.174.225c-21.545 0-38.748-19.108-38.748-41.062-.02-21.729 17.183-40.817 38.728-40.817h590.705c21.361 0 38.564 19.128 38.564 41.062 0 21.955-17.203 40.858-38.564 40.858H596.277l-107.52 193.7 109.486 111.309c38.359 37.868 13.517 80.404 13.517 80.404l-93.635 171.11zM696.32 901.12c0 11.325-9.155 20.48-20.48 20.48H327.68c-11.305 0-20.48-9.155-20.48-20.48 0-11.325 9.175-20.48 20.48-20.48h348.16c11.325 0 20.48 9.155 20.48 20.48z"/></svg>