<svg width="64" height="64" viewBox="0 0 1024 1024" xmlns="http://www.w3.org/2000/svg"><path d="M693.371 175.739c42.578 0 76.78-34.632 76.78-77.517S735.97 20.48 693.371 20.48c-42.394 0-76.636 34.857-76.636 77.742s34.243 77.517 76.636 77.517zM367.698 490.557l276.009-180.47c36.045-23.142 46.94-71.311 24.044-107.766-22.63-36.475-70.472-47.473-106.537-24.31L357.725 310.988c-11.551 7.578-20.623 17.449-26.501 28.897l-211.845 422.4c-12.472 25.006-2.703 55.276 21.77 67.891 24.474 12.575 54.62 2.744 67.072-22.036l159.478-317.583zm537.6-29.573c36.495-23.163 47.841-71.762 24.924-108.708l-26.767 16.507c13.824 22.241 7.045 51.364-14.93 65.126L40.96 976.67l16.773 26.849 847.565-542.536z"/></svg>