<svg width="64" height="64" viewBox="0 0 1024 1024" xmlns="http://www.w3.org/2000/svg"><path d="M904.602 381.788c43.377 0 78.438-35.471 78.438-79.135 0-43.622-35.062-78.889-78.438-78.889-43.172 0-78.316 35.246-78.316 78.889s35.144 79.135 78.316 79.135zm-22.098 541.45L57.14 434.524l-16.179 27.894 824.996 488.837c37.827 22.63 86.651 10.281 109.199-27.996l-27.382-16.609c-13.455 22.876-42.824 30.147-65.27 16.589zm79.36-366.878l-140.37-82.616-16.2-211.681c-2.417-25.334-16.077-48.067-35.963-62.075L567.173 79.32c-47.677-32.338-112.128-19.62-144.282 28.713-17.695 26.378-22.569 59.74-13.885 86.815l54.845 181.125-165.458 53.207c-20.705 8.397-36.7 27.996-39.465 52.04-4.28 35.246 21.75 58.593 56.812 62.751 7.987.963 13.292-1.352 20.705-3.236l225.853-75.387c16.568-6.062 34.673-22.651 36.434-37.11 1.29-10.506 4.628-19.374 2.437-25.682l-34.365-123.924 135.823 81.469 16.425 118.804c1.413 20.767 10.793 35.697 26.644 44.564l177.5 104.55c19.415 10.752 43.95 3.523 54.579-16.323 10.813-19.661 3.502-44.626-15.913-55.337z"/></svg>