<svg width="64" height="64" viewBox="0 0 1024 1024" xmlns="http://www.w3.org/2000/svg"><path d="M880.087 685.752c51.548 0 93.45-43.397 93.45-97.034 0-53.35-41.923-96.543-93.45-96.543-51.794 0-93.491 43.172-93.491 96.543-.02 53.637 41.677 97.034 93.491 97.034zm71.721 216.412c4.198 1.475 6.185 2.191 10.854 2.191 23.921 0 42.107-20.111 42.107-44.872 0-18.678-11.817-34.918-27.566-41.472l-129.638-52.163-94.31-173.24s-7.823-19.128-35-29.594L409.396 434.912 225.875 112.966c-10.67-18.432-30.249-31.048-52.736-31.048-33.976 0-61.399 28.611-61.399 63.795 0 11.162 2.826 21.606 7.741 30.822l227.84 400.056-144.445-59.679-36.311 24.412 576.881 236.913 23.654 37.007s9.359 19.927 37.274 31.314l71.68 28.426c-46.633 48.271-112.005 27.218-112.005 27.218L59.373 608.99l-38.892 23.941 740.844 301.281c85.524 32.276 160.276-45.138 160.276-45.138v.246l30.208 12.841z"/></svg>