<svg width="64" height="64" viewBox="0 0 1024 1024" xmlns="http://www.w3.org/2000/svg"><path d="M471.04 976.671V846.787l-68.751 40.796-33.649-21.176v-45.65l102.4-61.153v-85.361l-81.92 50.196v-90.44l-81.92 42.885v122.675l-33.853 25.19-27.587-22.753V719.83l-114.156 63.939-49.684-20.46v-51.794l116.429-64.922-75.469-37.315v-47.514l43.479-23.081 106.783 62.833 73.974-42.68-1.679-1.331-75.059-43.479 73.073-45.629-73.257-42.66-106.762 62.505-40.55-19.845V421.15l72.54-40.509-113.5-62.525v-51.794l47.534-22.815 116.306 65.475v-83.476l30.413-23.081 39.793 24.166-1.147 125.03 75.223 43.459.676-88.289 80.323 42.988v-85.34l-102.4-61.194v-45.343l33.649-21.504 68.751 40.796V47.597l40.837-27.116 41.083 27.116v129.597l79.995-41.595 42.885 24.965v40.796l-122.88 63.078v85.34l81.92-46.428v92.856l81.92-42.68V219.914l29.798-17.736 31.642 17.715v85.34l119.644-63.078 44.196 24.945v48.312l-112.538 64.922 71.578 40.018v46.162l-37.478 20.398-109.097-64.676-75.346 48.046 72.684 45.629-74.936 43.459 77.251 40.796 110.367-61.153 36.557 24.904v44.032l-67.994 38.646 108.954 64.922v50.995l-51.651 21.238-112.189-61.194v80.998l-31.13 21.484-30.31-21.484V680.633l-81.92-45.322v85.361l-81.92-46.449v85.361l102.4 61.153v48.312l-33.731 18.514-68.669-40.755v129.884l-41.083 26.829-40.837-26.849zm-30.024-462.787l38.625 59.556h71.967l33.034-59.556-34.898-63.324h-71.967l-36.762 63.324z"/></svg>