<svg width="64" height="64" viewBox="0 0 1024 1024" xmlns="http://www.w3.org/2000/svg"><path d="M708.956 178.893c43.295 0 78.254-35.512 78.254-79.217 0-43.684-34.959-79.196-78.254-79.196-43.336 0-78.561 35.512-78.561 79.217 0 43.684 35.226 79.196 78.561 79.196zm210.535 302.141c-13.66 31.764-42.824 22.221-42.824 22.221l-122.798-46.756c-12.308-4.444-21.77-14.725-25.047-27.341l-27.771-81.777-43.336 120.34 127.427 134.82c15.954 28.303 13.578 49.07 13.578 49.07V837.61s83.21 37.151 83.21 82.944c0 45.814-36.332 82.964-81.736 82.964-6.472 0-12.513-.696-18.76-2.335l-269.435-60.498v-40.202l204.8-45.343V685.75L579.194 548.575l-21.565 143.729c-3.441 18.248-16.773 35.287-24.228 43.704l-94.618 110.51c-1.372-1.188-3.297-1.188-5.14-.942l5.018.942c24.494 19.395 37.233 51.855 29.594 84.357-10.363 44.626-54.866 72.192-98.898 61.686-6.472-1.618-12.493-3.748-18.289-6.533L102.4 864.008l9.277-39.035 228.045 3.277 108.421-126.382 33.546-248.648 70.39-188.109-97.444 56.545-58.143 114.975c-17.613 36.454-49.336 17.285-49.336 17.285-28.733-16.589-17.613-44.626-17.613-44.626l59.535-121.508c15.995-30.843 28.733-35.512 28.733-35.512l139.141-76.882c30.331-21.033 65.556-4.669 65.556-4.669l80.138 30.618c40.079 14.5 41.718 37.151 41.718 37.151l49.582 160.072 106.783 38.072s28.733 12.39 18.76 44.401zM794.399 965.898c2.13.246 4.178.471 6.287.471 25.027 0 44.421-20.562 44.421-45.814 0-25.211-25.907-45.773-46.387-45.773v9.585c0 24.064-18.432 43.684-42.353 43.684-21.053 0-37.274-15.421-41.165-35.512l-125.85 28.037 205.046 45.322zM371.937 954.45c1.864.942 3.707 1.372 5.775 1.884 24.556 5.816 48.886-9.38 54.682-33.894 4.383-18.698-3.256-37.396-17.859-47.903l-18.534 21.75c-15.749 18.207-43.09 20.296-61.153 4.424-10.65-9.359-14.807-22.63-14.111-35.738l-137.953-2.355 189.153 91.832z"/></svg>