<svg width="64" height="64" viewBox="0 0 1024 1024" xmlns="http://www.w3.org/2000/svg"><path d="M867.656 154.706c0 42.766-35.228 77.435-78.684 77.435s-78.684-34.669-78.684-77.435c0-42.766 35.228-77.435 78.684-77.435s78.684 34.669 78.684 77.435zm102.604 291.43l-221.676-200.54c-7.434-7.066-15.995-12.8-25.539-16.916l-172.708-60.498-78.459-111.944c-6.021-7.967-15.278-13.66-26.173-15.053-20.664-2.273-39.219 12.329-41.8 32.666-.922 8.663 1.167 16.896 5.571 23.736l80.036 113.971c3.707 4.772 8.356 8.438 13.926 10.957l92.877 36.086-152.719 76.739c-21.135 12.104-36.434 32.891-40.612 57.569l.922 137.277-141.005 62.587c-16.015 7.291-27.402 23.06-28.119 41.533-.471 10.936 2.97 21.053 8.868 29.389l-76.042-28.467c-14.275-5.386-25.416-16.773-30.269-31.273-8.704-25.498-36.803-39.199-62.689-30.597-25.887 8.561-39.793 36.188-31.109 61.686 14.397 42.086 46.899 75.366 88.904 91.095l660.46 247.071c42.25 15.913 88.945 12.37 127.672-9.646 23.695-13.373 31.805-43.069 18.35-66.355-13.701-23.327-43.889-31.293-67.523-17.961-13.005 7.414-29.061 8.622-43.438 3.133l-163.758-61.297c17.019-5.755 29.942-20.582 32.399-38.748l25.784-205.332c.205-.922.205-1.843.205-2.765.717-14.377-5.12-27.628-15.114-36.741l-110.92-96.85 167.137-81.06 155.259 140.657c7.004 6.636 16.282 10.752 26.706 10.752 20.91-.225 37.622-16.916 37.396-37.458-.02-10.977-5.161-20.808-12.8-27.402zM621.834 590.213l-22.077 180.244c0 .881-.205 2.048-.205 3.154-.41 9.359 2.007 18.104 6.39 25.641L294.789 682.803c3.523-.86 6.984-1.966 10.138-3.523l172.749-76.78c12.308-6.574 21.586-18.207 24.617-32.174l-.451-85.381 119.992 105.267z"/></svg>