<svg width="64" height="64" viewBox="0 0 1024 1024" xmlns="http://www.w3.org/2000/svg"><path d="M423.711 253.809c40.55 0 73.339-33.772 73.339-75.817 0-41.595-32.788-75.592-73.339-75.592-40.571 0-73.503 33.997-73.503 75.592 0 42.045 32.932 75.817 73.503 75.817zm86.364 606.351h349.368s22.589 4.096 67.502-33.014l76.575-57.631v67.994l-78.111 60.17s-23.204 19.436-62.3 23.921H480.788l29.286-61.44zM23.409 921.6h349.532l29.061-61.44H49.664L20.48 921.6zm437.207-573.071c0-43.254-36.209-78.397-76.677-78.397-40.53 0-76.739 35.144-76.739 78.397v191.672c0 24.269 17.736 53.719 34.079 53.719H177.07L88.289 769.7c-1.946 3.912-2.806 12.268-2.806 16.896-.02 15.729 22.671 32.604 37.396 32.604h593.92s26.808 2.355 65.987-30.515L939.97 664.228 880.639 552.96s-13.435-27.054-63.631-35.185l-118.661-21.402-63.652-113.582-2.724-1.188c-9.318-11.325-17.572-12.513-38.052-2.806v.246c0 7.393-10.465 19.415-6.328 30.044l47.288 84.193v.676l-62.198 107.52-122.122-48.599v-40.878h104.223c4.588 0 9.339-3.85 13.865-5.919 18.002-7.127 26.87-30.31 19.927-49.295-5.14-14.807-18.207-24.433-31.805-24.658l-96.358-.655.205-82.944z"/></svg>