<svg width="64" height="64" viewBox="0 0 1024 1024" xmlns="http://www.w3.org/2000/svg"><path d="M967.291 839.68H634.88v81.92h335.81c27.607 0 32.829-24.064 32.829-24.064V877.67s-.246-37.99-36.229-37.99zm-45.978-16.179c45.343 0 82.207-36.905 82.207-82.371 0-45.609-36.864-82.391-82.207-82.391-45.281 0-82.043 36.803-82.043 82.391 0 45.445 36.762 82.371 82.043 82.371zM748.175 819.2c43.131 0 77.824-30.392 77.824-73.462-.02-42.988-34.836-65.536-77.64-65.864l-113.48 14.377v124.948h113.295zM379.351 285.348c50.36 0 91.095-40.96 91.095-91.484S429.711 102.4 379.351 102.4c-50.319 0-91.116 40.94-91.116 91.464s40.796 91.484 91.116 91.484zm-93.02 296.059c-.225-.43-.594-.676-.819-1.188l-41.288-96.133-.061 191.754h123.392l26.952-28.672-73.093-28.14c-17.326-6.513-29.635-21.258-35.082-37.622zm26.153-8.622c3.994 8.97 11.387 16.241 20.685 19.579l140.841 52.204c18.022 7.967 39.076-.307 46.981-18.391 7.905-18.207-.307-39.404-18.35-47.329l-129.946-49.07-40.141-96.276 26.173-9.748 34.017 82.493 98.775 36.618V442.062l52.429 31.191 26.132 131.645c6.41 18.801 26.706 28.692 45.425 22.2 18.534-6.431 28.385-26.931 22.016-45.65l-29.286-126.792c-1.925-7.107-6.001-13.312-11.51-17.961-15.012-16.63-90.931-101.519-96.338-107.192-7.926-7.946-26.051-22.303-60.293-22.303h-122.88c-69.837 0-83.272 71.27-68.997 107.52l64.266 158.065zM614.4 696.32H60.764c-20.152 0-40.284 11.366-40.284 36.372v188.907H614.4v-225.28z"/></svg>