<svg width="64" height="64" viewBox="0 0 1024 1024" xmlns="http://www.w3.org/2000/svg"><path d="M705.29 359.465c71.639 0 129.966-57.364 129.966-128.43 0-71.045-58.307-128.635-129.966-128.635-71.926 0-130.355 57.59-130.355 128.635 0 71.066 58.45 128.43 130.355 128.43zm298.23 313.446V510.3l-175.411-98.652c-29.716-14.909-62.751-19.968-95.764-13.005-13.517 2.765-26.235 7.926-40.53 15.79-1.556.43-53.637 23.142-83.907 93L487.117 747.725S368.108 770.519 318.3 780.022c-3.932 2.601-8.151 4.71-12.186 7.188l-30.822-110.203c-12.759-44.81 34.836-109.773 36.618-112.415 31.498-45.568 40.12-105.595 23.572-165.048-15.073-53.76-49.398-99.082-94.085-124.58-34.959-19.64-74.26-25.047-109.937-15.34-27.709 7.516-52.408 23.634-71.496 46.797-.246.225-14.766 21.504-14.766 21.504-25.682 44.708-31.601 100.741-16.753 154.788 15.073 54.272 49.009 99.41 93.921 124.559l10.752 5.632c1.434.102 75.407 29.921 88.269 72.704-.164.225 19.415 70.185 35.389 127.201-4.096 1.761-8.028 3.891-12.165 5.53.594.43 1.7 1.106 2.376 1.577-3.604 5.509-9.933 17.715-9.482 30.208 0 3.973.328 7.946 1.085 11.796 6.82 35.328 41.82 58.921 77.578 51.732l228.25-43.909s19.415-5.837 27.73-11.694c10.711-7.516 18.78-23.286 18.78-23.286l59.986-119.255s41.349 192.717 42.148 196.28c-.696.532-4.055 4.198-9.523 9.81h311.357c-4.69-27.361-7.803-44.913-7.803-45.117 0-.451-9.81-43.233-9.81-43.233.328.307-26.706-120.054-47.37-214.262 32.932 18.842 62.771 35.594 64.43 36.495.246.532 3.789 7.27 9.175 17.428zm-784.65-98.836c-23.122 6.144-47.821 2.417-71.496-10.629-32.973-18.432-58.45-52.736-69.366-94.126-11.633-41.247-7.393-83.497 11.387-116.06l10.486-15.114c12.37-15.012 27.361-25.047 45.343-30.024 57.426-15.421 120.668 31.56 141.107 104.94 20.132 73.052-10.015 145.551-67.461 161.014z"/></svg>