<svg width="64" height="64" viewBox="0 0 1024 1024" xmlns="http://www.w3.org/2000/svg"><path d="M1024 1024l-.307-513.208c0-282.235-229.089-510.894-511.324-510.894S1.045 228.721 1.045 510.976l4.116 513.741 117.719-.287V510.996c0-219.976 169.206-398.275 389.12-398.275 219.955 0 389.12 178.319 389.12 398.295v512.983H1024zM679.875 838.164c0-.553-.594-1.556-1.884-3.441 0-.532.328-.922.983-1.27.532-.287.901-.614.901-1.27 17.613-7.27 33.608-16.179 47.903-26.829 14.295-10.691 22.651-26.337 27.607-47.022.553-2.396 2.376-7.967 2.376-16.466V314.797c0-10.301-1.823-20.992-7.926-31.867-6.062-11.059-13.046-20.951-22.323-29.737-8.991-8.704-18.862-14.766-30.147-20.603-11.264-5.775-21.791-7.311-32.174-7.311H359.588c-9.748 0-20.234 1.372-31.539 6.861-11.284 5.468-21.668 11.817-31.048 20.378-9.4 8.458-16.343 17.715-22.446 28.303-6.021 10.793-8.315 20.849-8.315 31.293v433.439c0 7.229 1.106 14.909 4.669 22.733 3.666 7.967 7.803 15.401 13.271 22.282 5.489 7.127 11.244 13.537 17.654 19.272 6.39 5.775 12.452 10.486 18.596 14.09 2.97 1.249 8.253 3.154 15.913 5.55 7.557 2.437 11.039 3.891 10.465 5.038l-125.03 189.481h72.929l91.3-122.88h251.945l91.177 122.88h73.851L679.875 838.163zM409.6 266.24c0-11.264 9.216-20.48 20.48-20.48h163.84c11.264 0 20.48 9.216 20.48 20.48v20.48c0 11.264-9.216 20.48-20.48 20.48H430.08c-11.264 0-20.48-9.216-20.48-20.48v-20.48zm-80.609 100.045c2.724-5.775 4.854-11.018 9.093-15.954 4.321-4.874 8.643-11.878 14.397-14.93 5.755-3.072 11.059-7.721 17.142-7.721h283.791c5.468 0 10.895 4.403 16.404 6.717 5.489 2.458 10.486 7.434 15.094 11.653 4.547 4.239 6.349 9.667 9.175 14.52 2.683 4.751 2.232 10.772 2.232 16.241v96.748c0 5.53.266 10.67-2.724 15.872-3.031 5.325-6.103 9.912-11.018 13.865-4.895 3.871-9.544 4.874-15.012 7.229-5.489 2.58-10.527 1.475-15.933 1.475H371.445c-.676 0-2.191 1.905-4.608 1.413-2.417-.655-4.301-.184-5.53-.799-10.301-1.802-16.63-6.738-24.576-15.872-7.885-9.196-9.052-18.575-9.052-29.553v-83.026c0-6.083-1.393-12.063 1.311-17.879zm77.557 394.752c-9.4 9.728-21.176 14.582-35.103 14.582-13.988 0-25.416-4.854-34.263-14.582-8.847-9.708-13.23-21.668-13.23-35.615 0-12.78 4.608-23.859 13.701-33.26 9.114-9.462 20.398-14.193 33.792-14.193 13.926 0 25.682 4.485 35.103 13.169 9.441 8.97 14.172 20.521 14.172 35.246 0 13.394-4.731 24.965-14.172 34.652zm208.958 0c-9.38-9.708-14.111-21.668-14.111-35.615 0-14.049 4.977-25.334 15.032-34.304 10.097-8.684 21.77-13.169 35.226-13.169 13.885 0 25.313 4.731 34.12 14.193 8.868 9.4 13.292 20.48 13.292 33.26 0 13.967-4.526 25.928-13.742 35.615-9.093 9.728-20.664 14.582-34.673 14.582-13.988.02-25.661-4.833-35.144-14.561z"/></svg>