<svg width="64" height="64" viewBox="0 0 1024 1024" xmlns="http://www.w3.org/2000/svg"><path d="M192.84 726.323c274.821 116.183 483.553 183.931 777.564 277.074 6.021.922 11.571-3.256 12.493-9.544.922-6.042-3.215-11.878-9.257-13.046-463.114-146.452-826.655-308.736-909.599-346.46-8.581-3.461-18.555.471-21.77 8.888-3.482 8.622.225 17.92 8.561 21.176a6041.554 6041.554 0 0 0 60.703 26.993l-65.331 50.053c-7.414 10.936-4.178 24.924 6.717 32.358 8.11 5.591 19.702 4.895 27.566-.246l112.353-47.247zM951.378 433.07L737.464 235.602c1.597.102 3.113.471 4.731.471 43.315 0 78.295-35.389 78.295-78.93s-34.98-78.909-78.295-78.909c-43.561 0-78.541 35.389-78.541 78.93 0 16.63 5.181 32.031 13.926 44.79l-145.039-51.999-78.316-113.848c-6.021-8.397-15.299-13.988-26.132-15.38-20.378-2.314-39.158 12.575-41.452 33.3-.922 8.622 1.167 16.998 5.325 23.982l79.852 116.408c3.707 4.649 8.356 8.602 13.906 11.182l92.672 36.557L426.25 320.39c-21.299 12.104-36.372 33.526-40.53 58.45l.696 139.94-140.739 63.775c-15.749 7.68-27.095 23.511-27.791 42.394-1.147 27.013 19.702 49.582 46.572 50.77 8.335.43 16.445-1.393 23.409-4.915l172.196-78.193c12.288-6.533 21.545-18.391 24.556-32.85l-.225-87.081 119.521 107.581-22.016 183.214c0 1.167-.225 2.314-.225 3.502-1.167 26.993 19.722 49.828 46.572 50.995 25.231.922 46.776-17.469 50.258-42.373l25.723-209.101c0-.922.225-1.843.225-2.806.451-14.664-5.304-27.935-15.053-37.233L578.684 427.5l166.81-82.432 154.767 143.196c6.943 6.758 16.445 10.936 26.644 10.936 20.849-.225 37.519-17.224 37.315-37.949-.061-11.182-5.181-21.197-12.841-28.18z"/></svg>