<svg width="64" height="64" viewBox="0 0 1024 1024" xmlns="http://www.w3.org/2000/svg"><path d="M1003.52 819.2c-21.524 0-42.025-4.751-60.457-13.128-18.78-8.479-40.059-13.599-62.3-13.599-22.344 0-43.643 5.161-62.444 13.599-18.412 8.376-38.932 13.128-60.477 13.128-21.504 0-42.107-4.751-60.416-13.128-19.108-8.479-40.428-13.599-62.423-13.599-22.262 0-43.581 5.161-62.444 13.599-18.33 8.376-39.158 13.128-60.477 13.128-21.545 0-42.045-4.751-60.621-13.128-18.862-8.479-40.1-13.599-62.177-13.599-22.262 0-43.561 5.161-62.423 13.599-18.33 8.376-39.158 13.128-60.703 13.128-21.217 0-42.045-4.751-60.375-13.128-18.862-8.479-40.182-13.599-62.423-13.599-22.098 0-43.295 5.161-62.198 13.599C62.546 814.448 42.025 819.2 20.48 819.2v-90.03c21.524 0 42.045-4.874 60.682-12.923 18.903-8.684 40.1-13.804 62.198-13.804 22.241 0 43.561 5.12 62.423 13.804 18.33 8.049 39.158 12.923 60.375 12.923 21.524 0 42.373-4.874 60.703-12.923 18.842-8.684 40.161-13.804 62.423-13.804 22.077 0 43.295 5.12 62.177 13.804 18.575 8.049 39.076 12.923 60.621 12.923 21.32 0 42.127-4.874 60.477-12.923 18.862-8.684 40.182-13.804 62.444-13.804 21.975 0 43.274 5.12 62.423 13.804 18.33 8.049 38.912 12.923 60.416 12.923 21.545 0 42.066-4.874 60.477-12.923 18.801-8.684 40.1-13.804 62.444-13.804 22.241 0 43.52 5.12 62.3 13.804 18.432 8.049 38.932 12.923 60.457 12.923v90.03zM861.143 564.511c64.553 0 116.941-52.224 116.941-116.285 0-64.123-52.388-116.081-116.941-116.081-64.655 0-116.982 51.978-116.982 116.081 0 64.061 47.677 116.285 116.982 116.285zM180.04 629.883c9.073 2.15 17.633 5.284 25.764 8.929 18.33 8.233 39.158 13.128 60.396 13.128 21.504 0 42.373-4.874 60.682-13.128 18.862-8.479 40.161-13.844 62.423-13.844 22.077 0 43.336 5.366 62.177 13.844 18.555 8.233 39.076 13.128 60.621 13.128 21.299 0 42.148-4.874 60.457-13.128 18.883-8.479 40.182-13.844 62.444-13.844 21.996 0 43.315 5.366 62.423 13.844 18.35 8.233 38.912 13.128 60.457 13.128 15.667 0 30.761-2.642 44.995-7.086L607.807 295.547l226.898-41.103c33.3-6.308 57.467-32.276 57.467-65.516 0-36.659-30.044-66.048-66.806-66.048-2.642 0-5.1 0-7.578.225l-350.495 63.324c-24.596 5.591-57.18 41.349-38.625 85.217 1.024 2.417 1.946 4.669 2.99 7.066l91.464 163.901-343.081 187.269z"/></svg>