<svg width="64" height="64" viewBox="0 0 1024 1024" xmlns="http://www.w3.org/2000/svg"><path d="M512 20.48l145.039 247.931 285.041.061-142.5 243.507 142.5 243.589-285 .041L512 1003.519l-145.06-247.91-285.02-.041 142.5-243.589-142.5-243.507 285.041-.061L512 20.48zM326.083 512.205l91.935 163.635h187.699l92.18-163.635-92.16-164.045H418.325l-92.242 164.045zM707.359 675.84h82.76l-41.349-70.717-41.411 70.717zm-473.539 0h82.78l-41.411-70.738-41.37 70.738zm237.036-409.6h82.78l-41.39-70.697-41.39 70.697zm277.913 152.596l41.349-70.676h-82.76l41.411 70.676zm-473.579.041l41.39-70.717H233.8l41.39 70.717zm237.056 409.539l41.39-70.656h-82.801l41.411 70.656z"/></svg>