<svg width="64" height="64" viewBox="0 0 1024 1024" xmlns="http://www.w3.org/2000/svg"><path d="M118.968 495.821c-20.705 0-37.642 16.937-37.642 37.581 0 20.623 16.957 37.274 37.642 37.274s37.396-16.65 37.396-37.274c0-20.644-16.712-37.581-37.396-37.581zm521.995-312.505c44.872 0 81.51-36.27 81.51-81.285s-36.639-81.551-81.51-81.551c-45.117 0-81.777 36.536-81.777 81.551s36.659 81.285 81.777 81.285zm350.842 725.238l-132.649-156.18s-41.431-241.132-41.431-241.644c0-.225-6.205-27.341-6.205-27.341.246.266-16.671-76.063-29.635-135.721 20.685 11.919 39.363 22.61 40.366 23.122 1.004 2.212 70.287 133.734 70.287 133.734 5.284 9.728 14.049 16.937 24.474 20.132 10.711 3.236 21.955 2.253 31.683-2.99 9.728-4.956 16.957-13.66 20.152-24.351 3.564-10.424 2.478-21.647-2.765-31.314l-75.96-144.466s-3.031-5.222-7.004-9.175c-5.489-5.468-17.51-12.186-17.51-12.186L718.05 216.37c-18.719-9.441-39.404-12.657-60.129-8.192-8.52 1.741-16.445 4.977-25.395 9.953-1.044.225-33.71 14.643-52.634 58.941l-75.776 152.146s-115.466 22.364-119.46 23.122c-.983.246-2.028.492-2.744.983L274.064 377.24c-24.187-16.896-27.156-67.625-27.443-69.612-2.97-34.796-22.938-67.625-54.845-90.255-28.897-20.378-63.836-29.061-95.764-23.88-24.945 4.239-46.121 17.162-59.597 36.086-10.445 14.664-15.933 32.317-15.933 51.2 0 .266 1.495 16.445 1.495 16.445 5.509 32.031 25.19 61.87 54.129 82.514 29.164 20.623 63.836 29.348 95.744 23.88l7.496-1.495c.737-.492 48.62-15.196 72.049.758 0 .225 80.65 56.914 102.113 72.09-2.232 3.482-6.226 11.162-5.98 19.149 0 2.499.266 4.956.758 7.434 4.239 22.405 26.153 37.315 48.62 32.85L540 506.531s12.247-3.727 17.49-7.475c6.758-4.71 11.715-14.643 11.715-14.643l37.642-75.592s25.969 122.061 26.399 124.293c-2.97 2.99-117.391 124.068-117.391 124.068l-4.403 2.499c-11.284 10.158-19.927 23.572-19.927 37.786v256.532c0 27.402 23.9 49.521 51.323 49.521 27.197 0 51.077-22.118 51.077-49.521V739.717c20.48-10.916 99.205-103.137 122.634-127.57 2.519 14.418 25.641 144.507 25.641 144.507 2.007 11.448 7.762 21.873 15.995 30.29 0 .287 157.676 185.774 157.676 185.774 8.765 9.871 20.746 16.138 33.935 17.367 13.23 1.004 25.989-3.195 36.229-11.633 11.448-9.728 17.469-23.9 17.469-37.847 0-11.407-3.707-22.61-11.694-32.051zm-786.554-559.39c-8.724 12.186-22.18 20.132-38.892 23.122-23.45 3.953-49.644-2.744-71.557-18.657-22.18-15.688-37.171-38.031-41.144-61.399l-1.024-11.694c0-12.186 3.256-23.101 9.994-32.563 21.688-30.31 71.291-32.297 110.674-4.465 39.178 27.853 53.637 75.325 31.949 105.656z"/></svg>