<svg width="64" height="64" viewBox="0 0 1024 1024" xmlns="http://www.w3.org/2000/svg"><path d="M122.88 972.8c0 25.252 15.729 40.96 40.96 40.96 25.293 0 40.96-15.708 40.96-40.96V593.92h40.96V972.8c0 25.211 15.708 40.96 40.96 40.96s40.96-15.708 40.96-40.96V327.68h20.48v231.711c0 49.05 61.563 49.05 61.44 0V310.498c0-54.19-39.035-85.217-102.4-85.217H143.36c-57.754 0-102.4 24.965-102.4 83.702v264.458c0 40.96 61.44 40.96 61.44 0v-245.76h20.48v645.12zM307.2 104.96c0 46.657-37.823 84.48-84.48 84.48s-84.48-37.823-84.48-84.48c0-46.657 37.823-84.48 84.48-84.48s84.48 37.823 84.48 84.48zm512 0c0 46.657-37.823 84.48-84.48 84.48s-84.48-37.823-84.48-84.48c0-46.657 37.823-84.48 84.48-84.48s84.48 37.823 84.48 84.48zM940.298 665.6L819.282 333.066a8.641 8.641 0 0 1-.696-3.42c0-4.854 4.076-8.786 9.155-8.786 4.321 0 7.946 2.888 8.909 6.738l82.268 215.122c5.468 12.308 27.955 20.48 42.742 20.48 19.763 0 21.811-38.81 21.381-40.96l-82.268-206.991c-7.148-47.534-55.153-89.969-109.937-89.969H683.623c-54.784 0-106.332 42.435-113.5 89.969L491.541 524.8c-1.782 4.076 0 39.69 21.381 39.69 16.609 0 38.707-6.431 42.721-21.115l79.36-216.351c1.27-3.4 4.69-5.98 8.643-5.98 5.038 0 9.114 3.85 9.114 8.684 0 1.106-.184 2.13-.553 3.092L534.283 665.64c-.246.983 0 24.576 0 25.58 0 7.086 17.121 25.6 24.535 25.6h76.063v257.946c0 21.299 18.76 39.014 40.96 39.014s40.96-17.736 40.96-39.014v-268.39c0-5.796 40.96-5.612 40.96.184V972.8c0 21.299 18.78 40.96 40.96 40.96 22.241 0 40.96-19.681 40.96-40.96v-256h79.237c7.414 0 21.381-18.514 21.381-25.6 0-1.638.594-24.187 0-25.6z"/></svg>