<svg width="64" height="64" viewBox="0 0 1024 1024" xmlns="http://www.w3.org/2000/svg"><path d="M709.448 774.287c0-.696-.799-2.13-2.314-4.424 0-.655.43-1.249 1.167-1.659.717-.43 1.167-.881 1.167-1.659 21.524-8.888 41.083-19.886 58.593-32.85 17.49-13.107 29.204-32.236 35.246-57.528.635-2.99 2.232-9.81 4.403-20.234v-522.67c0-12.616-3.768-25.702-11.203-39.014-7.434-13.537-16.712-25.641-27.955-36.393-11.121-10.65-23.511-19.681-37.356-26.849-13.844-7.045-27.034-10.527-39.711-10.527H317.418c-11.94 0-24.822 3.277-38.605 9.974-13.824 6.717-26.501 15.299-37.97 25.743-11.51 10.342-21.033 22.118-28.467 35.082-7.455 13.21-11.203 25.948-11.203 38.707v530.452c0 8.929 2.355 18.248 6.697 27.914a137.34 137.34 0 0 0 16.753 27.259c6.676 8.724 14.029 16.527 21.852 23.552s15.421 12.841 22.897 17.285c3.604 1.516 10.22 3.85 19.599 6.82 9.175 2.949 13.476 5.14 12.78 6.574l-153.108 232.366h89.313l111.759-161.976h308.326l111.636 161.976h90.481L709.446 774.286zM415.621 65.106c0-3.748 1.782-7.578 5.591-11.776 3.666-4.076 7.373-6.042 11.162-6.042h142.991c1.434 0 4.526 1.434 8.97 4.362 4.403 2.99 6.636 5.96 6.636 8.929v54.723c0 3.748-1.884 7.188-5.55 10.035-3.768 3.072-7.168 4.628-10.035 4.628H431.309c-2.335-1.556-3.748-2.662-4.547-3.543a40.818 40.818 0 0 1-7.229-6.164c-2.621-2.499-3.912-5.243-3.912-8.212v-46.94zM271.503 218.132c0-7.434 1.761-14.725 5.059-21.832 3.318-7.066 7.639-13.517 12.841-19.558 5.243-5.98 11.387-10.67 18.391-14.418 7.127-3.768 14.438-5.612 21.873-5.612h347.402c6.595 0 13.312 1.556 20.009 4.383 6.717 2.99 12.841 7.168 18.473 12.329a70.057 70.057 0 0 1 13.414 16.835c3.318 5.816 4.956 12.206 4.956 18.903v118.436c0 6.717-1.802 13.066-5.53 19.456-3.727 6.492-8.561 12.104-14.52 16.937-6.042 4.751-12.247 8.684-19.005 11.551-6.676 3.174-13.394 4.506-20.05 4.506H331.899c-.819 0-2.683-.348-5.652-1.004-2.949-.778-5.243-1.516-6.738-2.314-12.595-2.171-23.736-8.909-33.444-20.111-9.708-11.182-14.561-23.429-14.561-36.803V218.133zm103.404 461.333c-11.53 11.899-25.969 17.838-43.008 17.838-17.142 0-31.13-5.939-41.984-17.838-10.772-11.878-16.159-26.501-16.159-43.643 0-15.626 5.612-29.164 16.814-40.673 11.141-11.571 24.924-17.428 41.329-17.428 17.039 0 31.457 5.53 43.008 16.159 11.551 10.916 17.306 25.108 17.306 43.11 0 16.404-5.755 30.597-17.306 42.476zm255.775 0c-11.51-11.878-17.367-26.501-17.367-43.643 0-17.162 6.124-31.027 18.432-41.943 12.329-10.65 26.644-16.159 43.09-16.159 16.998 0 31.048 5.837 41.841 17.428 10.752 11.51 16.241 25.068 16.241 40.673 0 17.142-5.632 31.764-16.794 43.643-11.244 11.899-25.313 17.838-42.516 17.838-17.08 0-31.416-5.939-42.926-17.838z"/></svg>