<svg width="64" height="64" viewBox="0 0 1024 1024" xmlns="http://www.w3.org/2000/svg"><path d="M424.264 491.52H64.697c-10.486 0-19.108-6.431-19.108-16.691 0-1.7.307-2.355.655-3.891l19.149-123.003c1.597-8.684 9.4.225 18.78.225h320.655c9.298 0 17.162-8.438 18.739.246l19.169 131.052c.307 1.577.676-2.54.676-.778 0 10.179-8.684 12.841-19.149 12.841zm-14.398 155.013c-20.214 0-36.68-15.995-36.68-35.84 0-19.743 16.445-35.635 36.68-35.635 20.111 0 36.557 15.892 36.557 35.635 0 19.845-16.425 35.84-36.557 35.84zm-331.305 0c-20.05 0-36.495-15.995-36.495-35.84 0-19.743 16.425-35.635 36.495-35.635 20.337 0 36.741 15.892 36.741 35.635 0 19.845-16.404 35.84-36.741 35.84zM122.88 245.76h225.28v61.44H122.88c-20.48 0-20.48-61.44 0-61.44zm341.975 55.357c-6.533-31.58-28.918-44.278-60.191-56.996-31.212-12.677-105.124-27.853-159.498-27.853-54.6 0-128.102 15.196-159.314 27.853-31.232 12.718-53.965 25.416-60.498 56.996L0 476.958v239.841h36.557c0 102.4 68.833 102.4 68.833 0h275.272c0 102.4 68.813 102.4 68.813 0h42.045V476.958l-26.665-175.841zm451.809 417.608c0-.512-.553-1.331-1.638-2.97 0-.471.307-.819.819-1.126.492-.307.819-.553.819-1.126 15.319-6.328 29.266-14.131 41.738-23.368 12.431-9.339 19.005-22.938 23.327-40.94.43-2.089 1.311-6.963 1.311-14.397V262.574c0-8.991-.881-18.309-6.164-27.771-5.325-9.646-11.039-18.268-19.046-25.928-7.926-7.578-19.395-14.029-29.266-19.108-8.54-4.383-27.443-6.717-27.443-7.27v1.823h-266.24v-1.475c-20.48.942-15.483 3.072-22.569 6.513-9.83 4.792-20.05 10.895-28.242 18.33-8.192 7.373-16.404 15.749-21.709 24.986-5.304 9.4-9.4 18.473-9.4 27.566v377.774c0 6.349 2.519 12.984 5.591 19.886 3.236 6.902 7.619 13.353 12.37 19.395 4.751 6.226 10.199 11.776 15.79 16.773 5.55 5.018 11.1 9.155 16.425 12.329 2.56 1.085 7.311 2.724 14.008 4.833 6.513 2.109 9.626 3.277 9.134 4.321L517.284 880.64h63.611l79.585-122.88h219.587l79.503 122.88H1024L916.664 718.725zM732.303 204.8h72.929c16.036 0 29.184 4.424 29.184 20.48 0 16.036-13.148 20.48-29.184 20.48h-72.929c-16.056 0-29.184-4.444-29.184-20.48 0-16.056 13.128-20.48 29.184-20.48zM921.6 392.212c0 32.236-26.112 58.348-58.348 58.348H652.267c-32.236 0-58.348-26.112-58.348-58.348v-47.165c0-32.215 26.112-58.327 58.348-58.327h211.005c32.215 0 58.327 26.112 58.327 58.348v47.145zM678.42 651.551c-8.212 8.479-18.493 12.698-30.618 12.698-12.227 0-22.18-4.219-29.921-12.698-7.66-8.458-11.51-18.883-11.51-31.089 0-11.121 3.994-20.787 11.981-28.979 7.926-8.233 17.756-12.39 29.45-12.39 12.124 0 22.405 3.932 30.618 11.51 8.212 7.782 12.329 17.879 12.329 30.72 0 11.674-4.116 21.77-12.329 30.228zm182.17 0c-8.212-8.458-12.37-18.883-12.37-31.089 0-12.227 4.362-22.098 13.148-29.88 8.786-7.557 18.985-11.51 30.679-11.51 12.104 0 22.098 4.157 29.798 12.39 7.66 8.192 11.551 17.859 11.551 28.979 0 12.206-4.014 22.61-11.96 31.089-8.008 8.479-18.043 12.698-30.29 12.698-12.165.041-22.364-4.178-30.556-12.677z"/></svg>