<svg width="64" height="64" viewBox="0 0 1024 1024" xmlns="http://www.w3.org/2000/svg"><path d="M942.08 286.72H696.32v-81.428c0-58.388-37.704-123.372-96.031-123.372H403.845c-58.388 0-96.645 64.983-96.645 123.372v81.428H81.92c-22.528 0-40.96 18.432-40.96 40.96V921.6c0 22.528 18.432 40.96 40.96 40.96h860.16c22.528 0 40.96-18.432 40.96-40.96V327.68c0-22.528-18.432-40.96-40.96-40.96zM614.4 901.12H389.12v-21.852c0-.471 12.554-1.085 18.555-1.802s11.264-1.925 15.585-3.604c7.68-2.888 16.282-7.025 19.415-12.411s7.885-12.554 7.885-21.422v-209.51c0-8.397-5.079-15.79-8.929-22.139s-10.22-11.469-15.974-15.299c-4.321-2.888-7.352-5.632-16.118-8.274s-20.419-4.342-20.419-5.059v-26.276l167.424-9.359-3.584 5.386v285.839c0 8.397 6.472 15.544 10.076 21.422s11.1 10.26 17.818 13.148c4.792 2.15 9.933 4.076 15.708 5.755s17.838 2.867 17.838 3.604v21.852zM422.277 414.495c0-18.248 7.025-33.833 21.053-46.797s30.781-19.436 50.217-19.436 36.127 6.472 50.033 19.436 20.89 28.57 20.89 46.797-7.025 33.772-21.053 46.612-30.659 19.251-49.869 19.251c-19.436 0-36.188-6.41-50.217-19.251s-21.053-28.365-21.053-46.612zM634.88 286.72H368.64v-81.428c0-21.852 22.118-61.932 43.971-61.932h164.905c21.811 0 57.364 40.079 57.364 61.932v81.428z"/></svg>