<svg width="64" height="64" viewBox="0 0 1024 1024" xmlns="http://www.w3.org/2000/svg"><path d="M552.96 94.72c0 46.657-37.823 84.48-84.48 84.48S384 141.377 384 94.72c0-46.657 37.823-84.48 84.48-84.48s84.48 37.823 84.48 84.48zM450.56 204.8h-61.44c-57.754 0-102.4 35.205-102.4 93.942V552.96c0 40.96 61.44 40.96 61.44 0V307.2h20.48v655.36c0 25.252 15.729 40.96 40.96 40.96 25.293 0 40.96-15.708 40.96-40.96V204.8zM716.8 512l-82.268-212.111c-7.148-47.534-55.153-95.089-109.937-95.089H471.04v487.076c10.24.041 20.48 1.536 20.48 4.444v266.24c0 21.299 18.78 40.96 40.96 40.96 22.241 0 40.96-19.681 40.96-40.96V696.32h79.237c7.414 0 21.381-13.394 21.381-20.48 0-1.638.594-19.067 0-20.48L553.042 322.826a8.641 8.641 0 0 1-.696-3.42c0-4.854 4.076-8.786 9.155-8.786 4.321 0 7.946 2.888 8.909 6.738l82.268 215.122c5.468 12.308 27.955 20.48 42.742 20.48 19.763 0 21.811-38.81 21.381-40.96z"/></svg>