<svg width="64" height="64" viewBox="0 0 1024 1024" xmlns="http://www.w3.org/2000/svg"><path d="M511.98 560.763c-110.715 0-204.78 32.195-266.22 82.657v93.86h532.48v-93.86c-61.44-50.463-155.525-82.657-266.26-82.657zm488.878-48.169L510.69 286.72 20.726 512.594 102.4 549.97v57.487c-20.48 4.239-20.541 14.971-20.541 27.73 0 7.537 2.499 16.364 7.25 21.647l-28.017 59.965h99.942l-27.771-60.006c4.669-5.284 8.499-13.066 8.499-20.603 0-12.739-18.883-24.515-18.883-28.754v-47.862l102.4 45.998v-4.076c61.44-53.432 169.39-87.347 286.679-87.347 117.33 0 225.321 33.915 286.761 87.347v4.076l202.138-92.979z"/></svg>