<svg width="64" height="64" viewBox="0 0 1024 1024" xmlns="http://www.w3.org/2000/svg"><path d="M378.47 386.56c47.718-8.11 83.108-51.569 88.494-103.485 5.468-52.797 17.797-264.97-61.85-251.474C198.512 66.642 213.012 414.618 378.47 386.56zm271.831 0c165.417 28.058 179.917-319.918-26.685-354.98-79.626-13.496-67.318 198.676-61.87 251.474 5.407 51.937 40.837 95.396 88.556 103.506zm-356.7 163.942c0-27.607-9.851-52.634-25.723-70.84-26.112-34.12-109.117-103.117-129.495-85.443-42.537 36.987-41.165 128.02-15.544 194.171 13.169 36.782 44.974 62.648 82.145 62.648 48.927 0 88.617-45.015 88.617-100.536zM890.327 394.22c-20.337-17.674-103.342 51.323-129.454 85.443-15.872 18.207-25.743 43.233-25.743 70.84 0 55.521 39.731 100.536 88.617 100.536 37.192 0 69.018-25.866 82.186-62.648 25.559-66.15 26.972-157.184-15.606-194.171zM723.702 707.092c-75.284-37.54-72.95-109.834-90.071-175.8-13.619-52.613-61.85-91.525-119.255-91.525-56.177 0-103.567 37.294-118.354 88.31-18.33 63.119-7.291 136.602-89.354 178.524-66.662 21.729-93.655 53.432-93.655 128.41 0 60.908 52.285 126.116 119.767 134.226 75.284 11.346 134.021-3.482 181.596-30.597 47.575 27.116 106.271 41.923 181.678 30.597 67.441-8.11 119.747-73.073 119.747-134.226-.02-76.616-25.293-105.165-92.099-127.918zM634.88 798.72h-78.049l.102 81.92h-85.115l.123-81.92H389.12V716.8h82.842l-.123-81.92h85.115l-.102 81.92h78.029v81.92z"/></svg>