<svg width="64" height="64" viewBox="0 0 1024 1024" xmlns="http://www.w3.org/2000/svg"><path d="M348.16 430.08h54.927c16.466 0 26.993-24.207 26.993-40.55V216.597c0-16.364-10.527-11.796-26.993-11.796H348.16v225.28zm0 327.68h54.927c16.466 0 26.993 19.005 26.993 35.389v172.892c0 16.261-10.527 37.478-26.993 37.478H348.16v-245.76zm-72.499-163.84c-.471-158.044 29.245-163.84 46.182-163.84h5.837V204.8h-7.004c-30.167 0-177.316 49.582-177.316 399.34 0 349.778 147.149 399.38 177.316 399.38h7.004V757.76h-5.837c-16.937 0-45.732-5.878-46.182-163.84zm199.393-340.398c9.974 11.94 15.299 27.034 15.299 42.578s-5.325 30.638-15.299 42.598l32.707 26.911c15.995-19.497 24.863-44.196 24.863-69.509 0-25.293-8.868-50.033-24.863-69.509l-32.707 26.931zm105.144 189.727c35.717-39.117 55.46-89.825 55.46-142.868 0-52.797-19.497-103.506-55.235-142.5l-31.805 27.73c28.774 31.334 44.79 72.049 44.79 114.77 0 42.824-15.995 83.681-45.261 115.139l32.051 27.73zm72.377 77.639c55.48-58.593 86.118-135.414 86.118-216.084 0-80.425-30.372-157.02-85.402-215.613l-31.334 28.549c47.8 50.729 74.281 117.228 74.281 187.085 0 70.103-26.481 136.704-74.752 187.535l31.089 28.529zm72.663 77.66c74.957-78.234 116.285-181.043 116.285-289.444 0-108.032-41.042-210.534-115.61-288.625l-30.597 29.245c67.052 70.205 103.956 162.345 103.956 259.379 0 97.485-37.13 189.87-104.653 260.035l30.618 29.409z"/></svg>