<svg width="64" height="64" viewBox="0 0 1024 1024" xmlns="http://www.w3.org/2000/svg"><path d="M606.392 889.61c7.045-1.188 14.09-1.618 21.361-1.618 21.955 0 43.008 4.997 61.686 13.681 18.166 7.905 38.482 12.698 59.761 12.698s41.882-4.792 60.047-12.698c18.596-8.684 39.649-13.681 61.44-13.681 22.036 0 38.584 4.997 57.18 13.681 18.166 7.905 34.693 12.698 55.173 12.698v89.149c-20.48 0-37.028-4.792-55.173-13.025-18.596-8.315-37.417-13.435-59.453-13.435-21.791 0-41.697 5.12-60.293 13.435-18.186 8.233-38.195 13.025-59.474 13.025s-41.329-4.792-59.474-13.025c-18.678-8.315-39.588-13.435-61.542-13.435-21.791 0-42.824 5.12-61.706 13.435-18.145 8.233-38.461 13.025-59.74 13.025-21.299 0-41.615-4.792-59.761-13.025-18.596-8.315-39.588-13.435-61.604-13.435-22.036 0-43.09 5.12-61.727 13.435-18.125 8.233-38.482 13.025-59.638 13.025-21.299 0-41.636-4.792-59.761-13.025-18.883-8.315-39.956-13.435-61.727-13.435-22.016 0-43.09 5.12-61.686 13.435-18.166 8.233-38.502 13.025-59.802 13.025v-89.149c21.299 0 41.636-4.792 59.802-12.698a146.046 146.046 0 0 1 61.686-13.681c21.77 0 42.824 4.997 61.727 13.681 18.125 7.905 38.482 12.698 59.761 12.698 21.156 0 41.513-4.792 59.638-12.698 10.691-4.792 21.791-8.684 33.403-10.793l566.231-100.209c18.35-4.321 43.315-17.019 51.999-38.892 1.72-4.157 7.721-5.345 12.8-5.12 9.236.532 15.995 8.438 15.995 17.592 0 14.418-11.162 54.784-73.032 67.256l-324.096 58.102zM115.098 183.112c45.24 0 82.043-36.516 82.043-81.449 0-44.913-36.803-81.183-82.043-81.183-45.22 0-81.777 36.27-81.777 81.183 0 44.954 36.557 81.449 81.777 81.449zm238.223 657.285c4.137 18.043 26.153 35.328 49.152 35.328l-.266.246c28.733 0 52.224-23.081 52.224-51.876l-.963-8.438-62.382-265.912c-5.325-17.06-21.565-33.178-38.257-39.916l-91.812-54.764-41.861-179.2 258.007-.471c21.074 0 38.031-14.234 38.031-35.164 0-20.89-16.957-35.41-38.031-35.41h-372.49c-37.212 0-54.436 23.88-50.053 46.94l52.756 236.319c4.137 22.344 18.862 40.448 38.748 50.319l1.188.143 153.559 89.477 52.449 212.378zM532.48 245.76h471.04v20.48H532.48v-20.48z"/></svg>