<svg width="64" height="64" viewBox="0 0 1024 1024" xmlns="http://www.w3.org/2000/svg"><path d="M983.04 1003.52c-20.603 0-40.366-4.71-57.958-12.739-18.289-8.499-38.687-13.455-59.802-13.455-21.32 0-41.759 4.956-59.802 13.455-17.592 8.028-37.56 12.739-57.938 12.739-20.664 0-40.571-4.71-58.184-12.739-18.084-8.499-38.482-13.455-59.802-13.455-21.115 0-41.533 4.956-59.597 13.455-17.572 8.028-37.519 12.739-58.163 12.739s-40.346-4.71-57.938-12.739c-18.084-8.499-38.42-13.455-59.761-13.455-21.115 0-41.554 4.956-59.822 13.455-17.592 8.028-37.274 12.739-57.815 12.739-20.644 0-40.346-4.71-57.938-12.739-18.043-8.499-38.482-13.455-59.802-13.455-21.115 0-41.513 4.956-59.802 13.455-17.613 8.028-37.315 12.739-57.958 12.739v-87.572c20.644 0 40.346-4.731 57.938-12.8 18.309-8.212 38.687-13.189 59.802-13.189 21.34 0 41.759 4.956 59.802 13.189 17.592 8.069 37.294 12.8 57.938 12.8 20.541 0 40.223-4.731 57.836-12.8 18.268-8.212 38.707-13.189 59.822-13.189 21.34 0 41.677 4.956 59.761 13.189 17.592 8.069 37.294 12.8 57.938 12.8 20.623 0 40.571-4.731 58.163-12.8 18.063-8.212 38.482-13.189 59.597-13.189 21.32 0 41.718 4.956 59.802 13.189 17.592 8.069 37.519 12.8 58.184 12.8 20.378 0 40.346-4.731 57.938-12.8 18.043-8.212 38.482-13.189 59.802-13.189 21.115 0 41.513 4.956 59.802 13.189 17.592 8.069 37.356 12.8 57.958 12.8v87.572zM602.563 822.682a129.77 129.77 0 0 1 26.993-2.826c21.32 0 41.718 4.936 59.802 13.189 17.592 8.069 37.519 12.78 58.184 12.78 20.378 0 40.346-4.71 57.938-12.78 12.431-5.612 25.805-10.138 40.12-12.022-7.762-234.967-251.249-444.6-262.717-455.455-11.96-10.875-22.999-34.693-15.237-62.812l58.143-193.597c10.342-30.003 5.181-70.124-9.114-82.166-8.212-6.615-25.58-11.346-37.335 2.13L422.013 208.774c-34.488 36.844-5.612 76.268-6.308 76.042-53.514-19.374-116.347-6.39-154.46 9.421l-129.966 66.376c-12.902 5.427-18.514 21.934-11.715 33.034 21.586 34.734 93.123 34.959 242.176 18.657 240.824-25.989 241.07 362.455 240.824 410.378z"/></svg>