<svg width="64" height="64" viewBox="0 0 1024 1024" xmlns="http://www.w3.org/2000/svg"><path d="M343.716 184.32c45.445 0 81.92-36.966 81.92-81.92a81.663 81.663 0 0 0-81.92-81.92c-45.179 0-81.92 36.495-81.92 81.92 0 44.954 36.741 81.92 81.92 81.92zm57.835 751.104c-139.51 0-252.641-114.708-252.641-256.758 0-77.763 34.591-147.149 88.556-194.335l-4.485-80.323c-90.358 57.385-151.06 158.331-151.06 274.657 0 179.241 143.012 324.854 319.631 324.854 129.966 0 244.838-91.566 294.769-204.8l-48.66-67.011c-24.044 116.019-124.723 203.715-246.108 203.715zM901.12 778.24h-40.96L696.32 552.96c-8.868-15.585-40.96-61.44-81.92-61.44H430.08V409.6h163.84c21.217 0 44.114-9.032 44.114-30.843 0-21.647-22.303-30.597-44.114-30.597H430.08v-81.92c-3.011-45.425-40.96-61.44-81.715-60.498-41.165.942-61.645 19.538-61.645 60.498v286.72c3.891 45.998 37.007 61.44 81.92 61.44H614.4l143.36 184.32c9.236 15.278 40.96 61.44 40.96 61.44h102.4c21.135 0 40.96-19.21 40.96-40.96 0-21.647-19.169-40.96-40.96-40.96z"/></svg>