<svg width="64" height="64" viewBox="0 0 1024 1024" xmlns="http://www.w3.org/2000/svg"><path d="M940.605 592.876l-2.232-6.021c-7.004-18.883-15.667-42.353-37.868-55.644-15.462-9.257-33.444-12.472-49.295-15.299-8.151-1.454-15.872-2.867-22.487-4.874-1.946-.573-3.871-1.311-5.816-2.048-.307-.102-.614-.184-.922-.307-63.652-51.118-192.532-52.511-272.814-124.805C434.114 280.331 341.77 176.211 237.916 20.481L108.155 124.315c-9.011 7.209-26.214 12.984-26.214 38.932 0 12.964 13.189 14.95 28.733 10.138l73.196-23.122 205.251 285.573v155.771c0 36.045-.594 68.854 29.983 87.491l-77.087 324.424h51.917l48.783-154.051 48.804-76.186v230.236h61.44V747.357s-.717-51.917 51.2-51.917 51.2 51.917 51.2 51.917v256.164h40.96v-204.8l112.968 204.8h51.917c-25.969-81.92-62.484-74.486-62.484-152.351v-51.917c0-54.436 61.44-103.834 61.44-155.75v-51.876c0-12.329-1.597-23.245-4.403-33.116 9.052 1.843 17.367 4.076 23.695 7.885 9.81 5.878 15.237 20.541 20.48 34.714l2.376 6.39c4.035 10.547 15.852 15.852 26.419 11.837l.02-.02c10.588-4.055 15.892-15.872 11.858-26.44z"/></svg>